<svg width="1200" height="630" xmlns="http://www.w3.org/2000/svg">
  <defs>
    <linearGradient id="bgGradient" x1="0%" y1="0%" x2="100%" y2="100%">
      <stop offset="0%" style="stop-color:#0B0F14;stop-opacity:1" />
      <stop offset="50%" style="stop-color:#0F1619;stop-opacity:1" />
      <stop offset="100%" style="stop-color:#0F1922;stop-opacity:1" />
    </linearGradient>
    <linearGradient id="goldGradient" x1="0%" y1="0%" x2="100%" y2="0%">
      <stop offset="0%" style="stop-color:#E5D596;stop-opacity:1" />
      <stop offset="50%" style="stop-color:#CFAE58;stop-opacity:1" />
      <stop offset="100%" style="stop-color:#B89842;stop-opacity:1" />
    </linearGradient>
    <radialGradient id="oceanGradient" cx="50%" cy="50%" r="50%">
      <stop offset="0%" style="stop-color:#4FD1C5;stop-opacity:0.3" />
      <stop offset="100%" style="stop-color:#1E90A0;stop-opacity:0.05" />
    </radialGradient>
    <filter id="glow">
      <feGaussianBlur stdDeviation="5" result="coloredBlur"/>
      <feMerge>
        <feMergeNode in="coloredBlur"/>
        <feMergeNode in="SourceGraphic"/>
      </feMerge>
    </filter>
    <filter id="softGlow">
      <feGaussianBlur stdDeviation="8" result="coloredBlur"/>
      <feMerge>
        <feMergeNode in="coloredBlur"/>
        <feMergeNode in="SourceGraphic"/>
      </feMerge>
    </filter>
    <filter id="shadow">
      <feDropShadow dx="0" dy="4" stdDeviation="8" flood-color="#000000" flood-opacity="0.5"/>
    </filter>
  </defs>

  <!-- Background -->
  <rect width="1200" height="630" fill="url(#bgGradient)"/>

  <!-- Decorative ocean gradients -->
  <ellipse cx="1000" cy="150" rx="300" ry="200" fill="url(#oceanGradient)" opacity="0.4"/>
  <ellipse cx="200" cy="530" rx="250" ry="180" fill="url(#oceanGradient)" opacity="0.3"/>

  <!-- Wave patterns -->
  <path d="M 0 400 Q 300 350 600 400 T 1200 400 L 1200 630 L 0 630 Z" fill="#1E90A0" opacity="0.08"/>
  <path d="M 0 450 Q 250 420 500 450 T 1000 450 T 1200 450 L 1200 630 L 0 630 Z" fill="#4FD1C5" opacity="0.05"/>

  <!-- Caviar roe particles -->
  <circle cx="37.66458285523582" cy="177.14939739220634" r="2.7412578473165303" fill="#CFAE58" opacity="0.16345300111787373"/>
  <circle cx="1028.4479992633449" cy="367.236803039029" r="4.717255062835981" fill="#CFAE58" opacity="0.18886708650669698"/>
  <circle cx="959.8145432180711" cy="358.12286727370304" r="3.280941033253239" fill="#CFAE58" opacity="0.2305623910395819"/>
  <circle cx="382.873659503385" cy="28.297215088283913" r="5.183631690343276" fill="#CFAE58" opacity="0.11049535544611178"/>
  <circle cx="91.18181915030887" cy="137.80930597668242" r="2.711700456220756" fill="#CFAE58" opacity="0.19858217292678265"/>
  <circle cx="822.5764513663178" cy="471.2122074859569" r="3.2858692450248426" fill="#CFAE58" opacity="0.17973365894158172"/>
  <circle cx="810.7095427848918" cy="91.39850429884395" r="5.3277365512453425" fill="#CFAE58" opacity="0.20491639842494774"/>
  <circle cx="486.7273808288579" cy="615.0810302681592" r="4.318978805674629" fill="#CFAE58" opacity="0.15680702422357917"/>
  <circle cx="643.7546956161835" cy="336.11371269226447" r="5.723605125314894" fill="#CFAE58" opacity="0.1601785242861776"/>
  <circle cx="1151.0885939483267" cy="355.84369292161944" r="3.7501340304297757" fill="#CFAE58" opacity="0.23821598371558936"/>
  <circle cx="584.612832593793" cy="204.80025570291184" r="3.9031173405487953" fill="#CFAE58" opacity="0.19771849896234103"/>
  <circle cx="45.856166680326595" cy="521.9120231799233" r="4.486160879499408" fill="#CFAE58" opacity="0.24245554898554356"/>
  <circle cx="205.3286476856323" cy="329.6400820236218" r="3.814681459427127" fill="#CFAE58" opacity="0.16019418105116562"/>
  <circle cx="1134.6017185123633" cy="472.23895867180374" r="4.027065657689912" fill="#CFAE58" opacity="0.16845863386090337"/>
  <circle cx="221.4611796626974" cy="261.1835292005077" r="3.750860313078907" fill="#CFAE58" opacity="0.1912888140804469"/>
  <circle cx="1158.732907254153" cy="495.8483132487613" r="4.826660891343904" fill="#CFAE58" opacity="0.18463558428189802"/>
  <circle cx="214.74423930234283" cy="72.905320410968" r="4.522424967963794" fill="#CFAE58" opacity="0.18040710468484944"/>
  <circle cx="939.2854036048889" cy="107.73994712394598" r="4.636682650257408" fill="#CFAE58" opacity="0.1846127344613563"/>
  <circle cx="573.6923590678982" cy="35.02276440927648" r="4.243670455648969" fill="#CFAE58" opacity="0.19315757374526002"/>
  <circle cx="793.9507082216736" cy="591.4191105037827" r="2.3699938331194166" fill="#CFAE58" opacity="0.2237499750776264"/>
  <circle cx="818.7337266970962" cy="105.33302249353353" r="4.100146774290014" fill="#CFAE58" opacity="0.19431222763244946"/>
  <circle cx="186.04688710299914" cy="153.13888984860748" r="2.0723310060270563" fill="#CFAE58" opacity="0.13697700538928578"/>
  <circle cx="560.6313654064945" cy="191.56845487692453" r="2.5744824978337872" fill="#CFAE58" opacity="0.15054188812979644"/>
  <circle cx="702.5567870962747" cy="75.64535429124511" r="5.452495261387112" fill="#CFAE58" opacity="0.20067981623162529"/>
  <circle cx="125.52358091664738" cy="455.159736193119" r="4.690468814250263" fill="#CFAE58" opacity="0.1170574552736138"/>
  <circle cx="889.2575811212724" cy="603.6277093104874" r="5.976910931002738" fill="#CFAE58" opacity="0.1287683766448585"/>
  <circle cx="829.7096006295602" cy="398.65663926866" r="4.0393736706632755" fill="#CFAE58" opacity="0.11540480655560174"/>
  <circle cx="245.42508232191628" cy="92.85180315051817" r="2.91804560111461" fill="#CFAE58" opacity="0.15630379613182765"/>
  <circle cx="839.8056384142765" cy="338.2207682445569" r="2.0569397097270348" fill="#CFAE58" opacity="0.15638627262832877"/>
  <circle cx="936.1443960107739" cy="414.0866099466292" r="4.816808156093066" fill="#CFAE58" opacity="0.1438522459115921"/>

  <!-- Border with glow -->
  <rect x="40" y="40" width="1120" height="550" fill="none" stroke="url(#goldGradient)" stroke-width="3" rx="12" filter="url(#softGlow)"/>

  <!-- Icon circle with premium background -->
  <circle cx="150" cy="200" r="75" fill="#CFAE58" opacity="0.15" filter="url(#softGlow)"/>
  <circle cx="150" cy="200" r="70" fill="#CFAE58" opacity="0.25"/>
  <text x="150" y="235" font-size="90" text-anchor="middle" fill="#CFAE58" filter="url(#glow)">ℹ️</text>

  <!-- Premium logo (crown) with enhanced styling -->
  <g transform="translate(100, 70)">
    <path d="M 30 20 L 40 35 L 35 35 Z M 50 15 L 60 35 L 45 35 Z M 65 20 L 75 35 L 70 35 Z M 30 35 L 75 35 L 73 45 L 32 45 Z"
          fill="url(#goldGradient)" filter="url(#glow)" stroke="#B89842" stroke-width="0.5"/>
    <circle cx="40" cy="25" r="3" fill="#4FD1C5" filter="url(#glow)"/>
    <circle cx="52" cy="20" r="4" fill="#4FD1C5" filter="url(#glow)"/>
    <circle cx="65" cy="25" r="3" fill="#4FD1C5" filter="url(#glow)"/>
  </g>

  <!-- Title with shadow -->
  <text x="280" y="180" font-family="Georgia, serif" font-size="72" font-weight="bold"
        fill="url(#goldGradient)" filter="url(#shadow)">About Royal Keta</text>

  <!-- Subtitle with subtle glow -->
  <text x="280" y="230" font-family="Arial, sans-serif" font-size="36"
        fill="#D6DEE6" opacity="0.95" filter="url(#softGlow)">Our Mission, Team &amp; Values</text>

  <!-- Brand name with letter spacing -->
  <text x="280" y="300" font-family="Georgia, serif" font-size="32" font-weight="bold"
        fill="#CFAE58" letter-spacing="4" filter="url(#glow)">ROYAL KETA</text>

  <!-- Russian tagline -->
  <text x="280" y="340" font-family="Arial, sans-serif" font-size="22" font-style="italic"
        fill="#8B95A1" opacity="0.8">От икринки к королевской</text>

  <!-- Location -->
  <text x="280" y="380" font-family="Arial, sans-serif" font-size="20"
        fill="#8B95A1" opacity="0.7">Невельский район, Сахалин</text>

  <!-- Website with glow -->
  <text x="100" y="570" font-family="Arial, sans-serif" font-size="30" font-weight="bold"
        fill="#4FD1C5" filter="url(#glow)">royalketa.com</text>

  <!-- Enhanced decorative salmon silhouette -->
  <g transform="translate(950, 480)" opacity="0.2" filter="url(#softGlow)">
    <ellipse cx="0" cy="0" rx="90" ry="35" fill="#CFAE58"/>
    <path d="M 90 0 L 120 -18 L 130 0 L 120 18 Z" fill="#CFAE58"/>
    <path d="M -25 -35 L 0 -45 L 25 -35 Z" fill="#CFAE58"/>
    <ellipse cx="-50" cy="0" rx="15" ry="12" fill="#0B0F14"/>
  </g>

  <!-- Additional decorative caviar clusters -->
  <g opacity="0.2">
    <circle cx="1050" cy="120" r="6" fill="#CFAE58"/>
    <circle cx="1065" cy="115" r="5" fill="#CFAE58"/>
    <circle cx="1058" cy="130" r="4" fill="#CFAE58"/>
    <circle cx="150" cy="500" r="5" fill="#4FD1C5"/>
    <circle cx="165" cy="508" r="4" fill="#4FD1C5"/>
    <circle cx="140" cy="512" r="5" fill="#4FD1C5"/>
  </g>
</svg>