<svg width="1200" height="630" xmlns="http://www.w3.org/2000/svg">
  <defs>
    <linearGradient id="bgGradient" x1="0%" y1="0%" x2="100%" y2="100%">
      <stop offset="0%" style="stop-color:#0B0F14;stop-opacity:1" />
      <stop offset="50%" style="stop-color:#0F1619;stop-opacity:1" />
      <stop offset="100%" style="stop-color:#0F1922;stop-opacity:1" />
    </linearGradient>
    <linearGradient id="goldGradient" x1="0%" y1="0%" x2="100%" y2="0%">
      <stop offset="0%" style="stop-color:#E5D596;stop-opacity:1" />
      <stop offset="50%" style="stop-color:#CFAE58;stop-opacity:1" />
      <stop offset="100%" style="stop-color:#B89842;stop-opacity:1" />
    </linearGradient>
    <radialGradient id="oceanGradient" cx="50%" cy="50%" r="50%">
      <stop offset="0%" style="stop-color:#4FD1C5;stop-opacity:0.3" />
      <stop offset="100%" style="stop-color:#1E90A0;stop-opacity:0.05" />
    </radialGradient>
    <filter id="glow">
      <feGaussianBlur stdDeviation="5" result="coloredBlur"/>
      <feMerge>
        <feMergeNode in="coloredBlur"/>
        <feMergeNode in="SourceGraphic"/>
      </feMerge>
    </filter>
    <filter id="softGlow">
      <feGaussianBlur stdDeviation="8" result="coloredBlur"/>
      <feMerge>
        <feMergeNode in="coloredBlur"/>
        <feMergeNode in="SourceGraphic"/>
      </feMerge>
    </filter>
    <filter id="shadow">
      <feDropShadow dx="0" dy="4" stdDeviation="8" flood-color="#000000" flood-opacity="0.5"/>
    </filter>
  </defs>

  <!-- Background -->
  <rect width="1200" height="630" fill="url(#bgGradient)"/>

  <!-- Decorative ocean gradients -->
  <ellipse cx="1000" cy="150" rx="300" ry="200" fill="url(#oceanGradient)" opacity="0.4"/>
  <ellipse cx="200" cy="530" rx="250" ry="180" fill="url(#oceanGradient)" opacity="0.3"/>

  <!-- Wave patterns -->
  <path d="M 0 400 Q 300 350 600 400 T 1200 400 L 1200 630 L 0 630 Z" fill="#1E90A0" opacity="0.08"/>
  <path d="M 0 450 Q 250 420 500 450 T 1000 450 T 1200 450 L 1200 630 L 0 630 Z" fill="#4FD1C5" opacity="0.05"/>

  <!-- Caviar roe particles -->
  <circle cx="107.47150492148711" cy="519.0295814792039" r="3.439375207031662" fill="#CFAE58" opacity="0.1979443519749688"/>
  <circle cx="1026.8946827252867" cy="274.51252204363647" r="5.80212415714211" fill="#CFAE58" opacity="0.19176981451004838"/>
  <circle cx="1060.1680117971255" cy="488.7045554066159" r="5.32988784021347" fill="#CFAE58" opacity="0.1887668762100195"/>
  <circle cx="921.7289723935801" cy="351.6987352829848" r="3.917427631067307" fill="#CFAE58" opacity="0.2055549249389707"/>
  <circle cx="801.3350069949074" cy="184.53121991702832" r="5.113447262517802" fill="#CFAE58" opacity="0.1357062940452819"/>
  <circle cx="784.0316338115393" cy="1.3464715536916494" r="2.8343866218947738" fill="#CFAE58" opacity="0.17346631795247214"/>
  <circle cx="1015.5024383085777" cy="56.70457958918746" r="4.116259710585979" fill="#CFAE58" opacity="0.12963395064547428"/>
  <circle cx="619.3475524504374" cy="384.5620519803468" r="3.1600905998673885" fill="#CFAE58" opacity="0.15885964087608434"/>
  <circle cx="466.2692501376943" cy="36.83130318747001" r="4.878278176725072" fill="#CFAE58" opacity="0.19617595208438932"/>
  <circle cx="452.78813646455086" cy="97.6909790903525" r="2.2586738311523518" fill="#CFAE58" opacity="0.14199889492495862"/>
  <circle cx="1179.2595397816904" cy="462.5282036291311" r="4.38652174335587" fill="#CFAE58" opacity="0.1318284347498193"/>
  <circle cx="458.3646024482063" cy="561.7167726285065" r="5.338238388634142" fill="#CFAE58" opacity="0.14473387285194544"/>
  <circle cx="992.1850619894495" cy="257.8617570892704" r="3.634999669631141" fill="#CFAE58" opacity="0.12817217450339274"/>
  <circle cx="1161.7558028787141" cy="89.61918237900547" r="5.840297293812654" fill="#CFAE58" opacity="0.18821249505009865"/>
  <circle cx="1058.4275021386782" cy="511.924466091329" r="5.044113135167308" fill="#CFAE58" opacity="0.17330574578127395"/>
  <circle cx="1147.5717964209848" cy="522.6344192379032" r="5.077542253723424" fill="#CFAE58" opacity="0.20719411939014415"/>
  <circle cx="241.36923634153354" cy="322.53534627339013" r="5.168957938689584" fill="#CFAE58" opacity="0.10201069638324899"/>
  <circle cx="955.2101625910386" cy="99.25332232609163" r="2.5050147841808297" fill="#CFAE58" opacity="0.14679752494071333"/>
  <circle cx="540.3383892704502" cy="218.96676504987218" r="3.647565489271748" fill="#CFAE58" opacity="0.176722312589424"/>
  <circle cx="571.7410429229501" cy="337.66111625942045" r="5.780663015756588" fill="#CFAE58" opacity="0.12260139051260525"/>
  <circle cx="102.92363766198523" cy="406.349110226812" r="4.557462728163959" fill="#CFAE58" opacity="0.15060923068713672"/>
  <circle cx="282.99776856573516" cy="461.78205083963087" r="5.060050614512005" fill="#CFAE58" opacity="0.12422646851037361"/>
  <circle cx="731.8663306622699" cy="473.734408655771" r="5.824959591829986" fill="#CFAE58" opacity="0.1491515053214635"/>
  <circle cx="1087.7283538515358" cy="321.0373797131212" r="4.920234115076548" fill="#CFAE58" opacity="0.1569502237459059"/>
  <circle cx="1069.0684674903873" cy="337.21941231638914" r="4.147766061846113" fill="#CFAE58" opacity="0.21693020071726066"/>
  <circle cx="440.5101405521393" cy="296.18772823910876" r="4.4089716664617615" fill="#CFAE58" opacity="0.10469676105673903"/>
  <circle cx="392.8328643900065" cy="514.4224955395268" r="2.975329273725115" fill="#CFAE58" opacity="0.24490763117873002"/>
  <circle cx="624.3423410236927" cy="349.2749832814088" r="2.8534308639538417" fill="#CFAE58" opacity="0.1113109586930627"/>
  <circle cx="864.0054152378267" cy="406.77131358057017" r="5.497349625076083" fill="#CFAE58" opacity="0.2315076817012736"/>
  <circle cx="464.05425520115847" cy="128.79544973284789" r="2.7197396619771577" fill="#CFAE58" opacity="0.1719064363039164"/>

  <!-- Border with glow -->
  <rect x="40" y="40" width="1120" height="550" fill="none" stroke="url(#goldGradient)" stroke-width="3" rx="12" filter="url(#softGlow)"/>

  <!-- Icon circle with premium background -->
  <circle cx="150" cy="200" r="75" fill="#CFAE58" opacity="0.15" filter="url(#softGlow)"/>
  <circle cx="150" cy="200" r="70" fill="#CFAE58" opacity="0.25"/>
  <text x="150" y="235" font-size="90" text-anchor="middle" fill="#CFAE58" filter="url(#glow)">ℹ️</text>

  <!-- Premium logo (crown) with enhanced styling -->
  <g transform="translate(100, 70)">
    <path d="M 30 20 L 40 35 L 35 35 Z M 50 15 L 60 35 L 45 35 Z M 65 20 L 75 35 L 70 35 Z M 30 35 L 75 35 L 73 45 L 32 45 Z"
          fill="url(#goldGradient)" filter="url(#glow)" stroke="#B89842" stroke-width="0.5"/>
    <circle cx="40" cy="25" r="3" fill="#4FD1C5" filter="url(#glow)"/>
    <circle cx="52" cy="20" r="4" fill="#4FD1C5" filter="url(#glow)"/>
    <circle cx="65" cy="25" r="3" fill="#4FD1C5" filter="url(#glow)"/>
  </g>

  <!-- Title with shadow -->
  <text x="280" y="180" font-family="Georgia, serif" font-size="72" font-weight="bold"
        fill="url(#goldGradient)" filter="url(#shadow)">About Royal Keta</text>

  <!-- Subtitle with subtle glow -->
  <text x="280" y="230" font-family="Arial, sans-serif" font-size="36"
        fill="#D6DEE6" opacity="0.95" filter="url(#softGlow)">Our Mission, Team &amp; Values</text>

  <!-- Brand name with letter spacing -->
  <text x="280" y="300" font-family="Georgia, serif" font-size="32" font-weight="bold"
        fill="#CFAE58" letter-spacing="4" filter="url(#glow)">ROYAL KETA</text>

  <!-- Russian tagline -->
  <text x="280" y="340" font-family="Arial, sans-serif" font-size="22" font-style="italic"
        fill="#8B95A1" opacity="0.8">От икринки к королевской</text>

  <!-- Location -->
  <text x="280" y="380" font-family="Arial, sans-serif" font-size="20"
        fill="#8B95A1" opacity="0.7">Невельский район, Сахалин</text>

  <!-- Website with glow -->
  <text x="100" y="570" font-family="Arial, sans-serif" font-size="30" font-weight="bold"
        fill="#4FD1C5" filter="url(#glow)">royalketa.com</text>

  <!-- Enhanced decorative salmon silhouette -->
  <g transform="translate(950, 480)" opacity="0.2" filter="url(#softGlow)">
    <ellipse cx="0" cy="0" rx="90" ry="35" fill="#CFAE58"/>
    <path d="M 90 0 L 120 -18 L 130 0 L 120 18 Z" fill="#CFAE58"/>
    <path d="M -25 -35 L 0 -45 L 25 -35 Z" fill="#CFAE58"/>
    <ellipse cx="-50" cy="0" rx="15" ry="12" fill="#0B0F14"/>
  </g>

  <!-- Additional decorative caviar clusters -->
  <g opacity="0.2">
    <circle cx="1050" cy="120" r="6" fill="#CFAE58"/>
    <circle cx="1065" cy="115" r="5" fill="#CFAE58"/>
    <circle cx="1058" cy="130" r="4" fill="#CFAE58"/>
    <circle cx="150" cy="500" r="5" fill="#4FD1C5"/>
    <circle cx="165" cy="508" r="4" fill="#4FD1C5"/>
    <circle cx="140" cy="512" r="5" fill="#4FD1C5"/>
  </g>
</svg>