<svg width="1200" height="630" xmlns="http://www.w3.org/2000/svg">
  <defs>
    <linearGradient id="bgGradient" x1="0%" y1="0%" x2="100%" y2="100%">
      <stop offset="0%" style="stop-color:#0B0F14;stop-opacity:1" />
      <stop offset="50%" style="stop-color:#0F1619;stop-opacity:1" />
      <stop offset="100%" style="stop-color:#0F1922;stop-opacity:1" />
    </linearGradient>
    <linearGradient id="goldGradient" x1="0%" y1="0%" x2="100%" y2="0%">
      <stop offset="0%" style="stop-color:#E5D596;stop-opacity:1" />
      <stop offset="50%" style="stop-color:#CFAE58;stop-opacity:1" />
      <stop offset="100%" style="stop-color:#B89842;stop-opacity:1" />
    </linearGradient>
    <radialGradient id="oceanGradient" cx="50%" cy="50%" r="50%">
      <stop offset="0%" style="stop-color:#4FD1C5;stop-opacity:0.3" />
      <stop offset="100%" style="stop-color:#1E90A0;stop-opacity:0.05" />
    </radialGradient>
    <filter id="glow">
      <feGaussianBlur stdDeviation="5" result="coloredBlur"/>
      <feMerge>
        <feMergeNode in="coloredBlur"/>
        <feMergeNode in="SourceGraphic"/>
      </feMerge>
    </filter>
    <filter id="softGlow">
      <feGaussianBlur stdDeviation="8" result="coloredBlur"/>
      <feMerge>
        <feMergeNode in="coloredBlur"/>
        <feMergeNode in="SourceGraphic"/>
      </feMerge>
    </filter>
    <filter id="shadow">
      <feDropShadow dx="0" dy="4" stdDeviation="8" flood-color="#000000" flood-opacity="0.5"/>
    </filter>
  </defs>

  <!-- Background -->
  <rect width="1200" height="630" fill="url(#bgGradient)"/>

  <!-- Decorative ocean gradients -->
  <ellipse cx="1000" cy="150" rx="300" ry="200" fill="url(#oceanGradient)" opacity="0.4"/>
  <ellipse cx="200" cy="530" rx="250" ry="180" fill="url(#oceanGradient)" opacity="0.3"/>

  <!-- Wave patterns -->
  <path d="M 0 400 Q 300 350 600 400 T 1200 400 L 1200 630 L 0 630 Z" fill="#1E90A0" opacity="0.08"/>
  <path d="M 0 450 Q 250 420 500 450 T 1000 450 T 1200 450 L 1200 630 L 0 630 Z" fill="#4FD1C5" opacity="0.05"/>

  <!-- Caviar roe particles -->
  <circle cx="336.9032482943593" cy="384.03047623073485" r="2.8768205117538326" fill="#CFAE58" opacity="0.14120073110726372"/>
  <circle cx="1176.5794545249114" cy="225.76261976931147" r="3.5104249717513496" fill="#CFAE58" opacity="0.17930277708806838"/>
  <circle cx="963.1011723791526" cy="485.6163553051871" r="2.1881489831203957" fill="#CFAE58" opacity="0.14730695368836622"/>
  <circle cx="96.90946793429495" cy="134.28950569540112" r="3.172934251228176" fill="#CFAE58" opacity="0.1564889153867201"/>
  <circle cx="816.5931982672239" cy="149.8420310870671" r="5.851564117414902" fill="#CFAE58" opacity="0.20043591342676748"/>
  <circle cx="168.0715789285741" cy="523.7610968833786" r="5.5630393382610865" fill="#CFAE58" opacity="0.17872939192508247"/>
  <circle cx="176.42287460883605" cy="98.33464919970224" r="5.209395794554303" fill="#CFAE58" opacity="0.14420024095949702"/>
  <circle cx="957.8726706931891" cy="225.98168892884183" r="2.9439347607725965" fill="#CFAE58" opacity="0.18515875872169135"/>
  <circle cx="1140.4324105712142" cy="65.30072054134972" r="2.1975922089119244" fill="#CFAE58" opacity="0.19770491164444617"/>
  <circle cx="351.4662091860967" cy="555.8867923739333" r="4.66592455194184" fill="#CFAE58" opacity="0.14529171033229832"/>
  <circle cx="336.7178857500508" cy="116.6340140695078" r="5.182602709380038" fill="#CFAE58" opacity="0.10882807829321652"/>
  <circle cx="1151.2799537629803" cy="622.0748037712805" r="5.8684792496025295" fill="#CFAE58" opacity="0.2417496677529665"/>
  <circle cx="307.48891079829986" cy="393.1647452550689" r="5.024060785433729" fill="#CFAE58" opacity="0.16997606445621025"/>
  <circle cx="15.796524505700571" cy="277.91575813003897" r="4.29388374368305" fill="#CFAE58" opacity="0.1877381050690773"/>
  <circle cx="20.897056363634505" cy="246.87007479626809" r="5.9361050646736775" fill="#CFAE58" opacity="0.11425820346380483"/>
  <circle cx="546.5493093103714" cy="273.3828353278206" r="4.706827980833782" fill="#CFAE58" opacity="0.12777218092082473"/>
  <circle cx="955.2286559156556" cy="32.821530797407945" r="5.796358206146305" fill="#CFAE58" opacity="0.24506378827142497"/>
  <circle cx="1095.8720576088567" cy="373.64617568509186" r="5.04770981718396" fill="#CFAE58" opacity="0.1928013347127585"/>
  <circle cx="598.5626415528334" cy="216.9131299995758" r="4.62218213131018" fill="#CFAE58" opacity="0.2025807139165078"/>
  <circle cx="960.7224607191913" cy="338.2775124638486" r="3.9273840167685066" fill="#CFAE58" opacity="0.1410838193397962"/>
  <circle cx="1002.2504727464107" cy="312.1962959668512" r="4.453630548003026" fill="#CFAE58" opacity="0.12619752544315666"/>
  <circle cx="311.5719726997618" cy="495.6305936044709" r="4.94817171943798" fill="#CFAE58" opacity="0.24350802608332697"/>
  <circle cx="888.040345842557" cy="281.4801082115108" r="5.574861608163143" fill="#CFAE58" opacity="0.13237879811167522"/>
  <circle cx="80.9599057592039" cy="336.89824943261686" r="4.922528808314338" fill="#CFAE58" opacity="0.16671414241697163"/>
  <circle cx="98.04709454978165" cy="617.4291984245077" r="2.7048109827234224" fill="#CFAE58" opacity="0.17063469920195765"/>
  <circle cx="880.4740806639968" cy="233.74847864317542" r="4.95490090586244" fill="#CFAE58" opacity="0.2237217043120298"/>
  <circle cx="744.9983512048058" cy="604.4844250473659" r="2.925376565123078" fill="#CFAE58" opacity="0.24519196553114803"/>
  <circle cx="698.3495727385742" cy="237.55872597168351" r="4.228203048766215" fill="#CFAE58" opacity="0.18147825708934034"/>
  <circle cx="559.7652124200254" cy="104.38435277658367" r="5.610654223862204" fill="#CFAE58" opacity="0.23481830661722544"/>
  <circle cx="629.4547360174298" cy="447.3238939840961" r="5.377499065634669" fill="#CFAE58" opacity="0.18356849351760346"/>

  <!-- Border with glow -->
  <rect x="40" y="40" width="1120" height="550" fill="none" stroke="url(#goldGradient)" stroke-width="3" rx="12" filter="url(#softGlow)"/>

  <!-- Icon circle with premium background -->
  <circle cx="150" cy="200" r="75" fill="#CFAE58" opacity="0.15" filter="url(#softGlow)"/>
  <circle cx="150" cy="200" r="70" fill="#CFAE58" opacity="0.25"/>
  <text x="150" y="235" font-size="90" text-anchor="middle" fill="#CFAE58" filter="url(#glow)">ℹ️</text>

  <!-- Premium logo (crown) with enhanced styling -->
  <g transform="translate(100, 70)">
    <path d="M 30 20 L 40 35 L 35 35 Z M 50 15 L 60 35 L 45 35 Z M 65 20 L 75 35 L 70 35 Z M 30 35 L 75 35 L 73 45 L 32 45 Z"
          fill="url(#goldGradient)" filter="url(#glow)" stroke="#B89842" stroke-width="0.5"/>
    <circle cx="40" cy="25" r="3" fill="#4FD1C5" filter="url(#glow)"/>
    <circle cx="52" cy="20" r="4" fill="#4FD1C5" filter="url(#glow)"/>
    <circle cx="65" cy="25" r="3" fill="#4FD1C5" filter="url(#glow)"/>
  </g>

  <!-- Title with shadow -->
  <text x="280" y="180" font-family="Georgia, serif" font-size="72" font-weight="bold"
        fill="url(#goldGradient)" filter="url(#shadow)">About Royal Keta</text>

  <!-- Subtitle with subtle glow -->
  <text x="280" y="230" font-family="Arial, sans-serif" font-size="36"
        fill="#D6DEE6" opacity="0.95" filter="url(#softGlow)">Our Mission, Team &amp; Values</text>

  <!-- Brand name with letter spacing -->
  <text x="280" y="300" font-family="Georgia, serif" font-size="32" font-weight="bold"
        fill="#CFAE58" letter-spacing="4" filter="url(#glow)">ROYAL KETA</text>

  <!-- Russian tagline -->
  <text x="280" y="340" font-family="Arial, sans-serif" font-size="22" font-style="italic"
        fill="#8B95A1" opacity="0.8">От икринки к королевской</text>

  <!-- Location -->
  <text x="280" y="380" font-family="Arial, sans-serif" font-size="20"
        fill="#8B95A1" opacity="0.7">Невельский район, Сахалин</text>

  <!-- Website with glow -->
  <text x="100" y="570" font-family="Arial, sans-serif" font-size="30" font-weight="bold"
        fill="#4FD1C5" filter="url(#glow)">royalketa.com</text>

  <!-- Enhanced decorative salmon silhouette -->
  <g transform="translate(950, 480)" opacity="0.2" filter="url(#softGlow)">
    <ellipse cx="0" cy="0" rx="90" ry="35" fill="#CFAE58"/>
    <path d="M 90 0 L 120 -18 L 130 0 L 120 18 Z" fill="#CFAE58"/>
    <path d="M -25 -35 L 0 -45 L 25 -35 Z" fill="#CFAE58"/>
    <ellipse cx="-50" cy="0" rx="15" ry="12" fill="#0B0F14"/>
  </g>

  <!-- Additional decorative caviar clusters -->
  <g opacity="0.2">
    <circle cx="1050" cy="120" r="6" fill="#CFAE58"/>
    <circle cx="1065" cy="115" r="5" fill="#CFAE58"/>
    <circle cx="1058" cy="130" r="4" fill="#CFAE58"/>
    <circle cx="150" cy="500" r="5" fill="#4FD1C5"/>
    <circle cx="165" cy="508" r="4" fill="#4FD1C5"/>
    <circle cx="140" cy="512" r="5" fill="#4FD1C5"/>
  </g>
</svg>