<svg width="1200" height="630" xmlns="http://www.w3.org/2000/svg">
  <defs>
    <linearGradient id="bgGradient" x1="0%" y1="0%" x2="100%" y2="100%">
      <stop offset="0%" style="stop-color:#0B0F14;stop-opacity:1" />
      <stop offset="50%" style="stop-color:#0F1619;stop-opacity:1" />
      <stop offset="100%" style="stop-color:#0F1922;stop-opacity:1" />
    </linearGradient>
    <linearGradient id="goldGradient" x1="0%" y1="0%" x2="100%" y2="0%">
      <stop offset="0%" style="stop-color:#E5D596;stop-opacity:1" />
      <stop offset="50%" style="stop-color:#CFAE58;stop-opacity:1" />
      <stop offset="100%" style="stop-color:#B89842;stop-opacity:1" />
    </linearGradient>
    <radialGradient id="oceanGradient" cx="50%" cy="50%" r="50%">
      <stop offset="0%" style="stop-color:#4FD1C5;stop-opacity:0.3" />
      <stop offset="100%" style="stop-color:#1E90A0;stop-opacity:0.05" />
    </radialGradient>
    <filter id="glow">
      <feGaussianBlur stdDeviation="5" result="coloredBlur"/>
      <feMerge>
        <feMergeNode in="coloredBlur"/>
        <feMergeNode in="SourceGraphic"/>
      </feMerge>
    </filter>
    <filter id="softGlow">
      <feGaussianBlur stdDeviation="8" result="coloredBlur"/>
      <feMerge>
        <feMergeNode in="coloredBlur"/>
        <feMergeNode in="SourceGraphic"/>
      </feMerge>
    </filter>
    <filter id="shadow">
      <feDropShadow dx="0" dy="4" stdDeviation="8" flood-color="#000000" flood-opacity="0.5"/>
    </filter>
  </defs>

  <!-- Background -->
  <rect width="1200" height="630" fill="url(#bgGradient)"/>

  <!-- Decorative ocean gradients -->
  <ellipse cx="1000" cy="150" rx="300" ry="200" fill="url(#oceanGradient)" opacity="0.4"/>
  <ellipse cx="200" cy="530" rx="250" ry="180" fill="url(#oceanGradient)" opacity="0.3"/>

  <!-- Wave patterns -->
  <path d="M 0 400 Q 300 350 600 400 T 1200 400 L 1200 630 L 0 630 Z" fill="#1E90A0" opacity="0.08"/>
  <path d="M 0 450 Q 250 420 500 450 T 1000 450 T 1200 450 L 1200 630 L 0 630 Z" fill="#4FD1C5" opacity="0.05"/>

  <!-- Caviar roe particles -->
  <circle cx="608.277990179107" cy="82.20657306934037" r="5.707870628554366" fill="#CFAE58" opacity="0.14996158956311562"/>
  <circle cx="406.5493486983289" cy="523.2498395481139" r="4.092232241783829" fill="#CFAE58" opacity="0.1871371347787822"/>
  <circle cx="1066.4814875475279" cy="607.9899377324753" r="4.97881587256142" fill="#CFAE58" opacity="0.24288647285174803"/>
  <circle cx="934.5761117130368" cy="594.4964081354715" r="2.834624297164278" fill="#CFAE58" opacity="0.15307404313409814"/>
  <circle cx="644.121419594313" cy="195.32480367033466" r="4.355488451132798" fill="#CFAE58" opacity="0.22645272712503423"/>
  <circle cx="126.6519573035568" cy="504.5853143439025" r="3.611437650724465" fill="#CFAE58" opacity="0.2114889159168608"/>
  <circle cx="890.8406358709819" cy="230.84787608763745" r="2.503017790534045" fill="#CFAE58" opacity="0.213548506531523"/>
  <circle cx="575.0249300191086" cy="343.5504341820914" r="2.706628732476938" fill="#CFAE58" opacity="0.1278271234964701"/>
  <circle cx="999.2032301206691" cy="426.6373520126371" r="4.855686572783342" fill="#CFAE58" opacity="0.191095104876482"/>
  <circle cx="858.4395795690566" cy="1.8729781808208368" r="4.232896911034769" fill="#CFAE58" opacity="0.1755245338253527"/>
  <circle cx="321.100228937705" cy="126.56021212727657" r="5.226914274337899" fill="#CFAE58" opacity="0.22910048005180964"/>
  <circle cx="988.935864059055" cy="519.8237699651" r="2.9684582878322363" fill="#CFAE58" opacity="0.15867728369065018"/>
  <circle cx="686.1121838018223" cy="310.94078481528834" r="3.3774164693933226" fill="#CFAE58" opacity="0.1598159298594778"/>
  <circle cx="1153.5272286204884" cy="346.1434698725646" r="2.5670492033892858" fill="#CFAE58" opacity="0.17547495049445627"/>
  <circle cx="308.09954101945823" cy="480.8929330345503" r="3.2874402119080397" fill="#CFAE58" opacity="0.14422082638750222"/>
  <circle cx="322.79782765579216" cy="407.6706288441907" r="4.35596393000303" fill="#CFAE58" opacity="0.13082895334741393"/>
  <circle cx="590.8339778156386" cy="605.3330029343346" r="4.453324360674093" fill="#CFAE58" opacity="0.2402945434387938"/>
  <circle cx="1113.5854661388214" cy="252.7662786002985" r="4.434492142699933" fill="#CFAE58" opacity="0.22036082484337108"/>
  <circle cx="1035.8587561393238" cy="390.1874354111889" r="2.5617601303753705" fill="#CFAE58" opacity="0.240878527778873"/>
  <circle cx="224.7430781413156" cy="609.8311089554326" r="5.950752803861796" fill="#CFAE58" opacity="0.23367816688410106"/>
  <circle cx="453.51719898066955" cy="397.4995738013981" r="4.566056440557055" fill="#CFAE58" opacity="0.16167774365725535"/>
  <circle cx="1004.0650043391779" cy="334.20859213374507" r="2.5738298693099875" fill="#CFAE58" opacity="0.20260626164377185"/>
  <circle cx="106.666033006009" cy="544.2530904343125" r="2.3859538200364785" fill="#CFAE58" opacity="0.20992884324139144"/>
  <circle cx="645.9856749765268" cy="462.41769181350145" r="3.7682005223062722" fill="#CFAE58" opacity="0.13967912561204368"/>
  <circle cx="324.5093060614192" cy="330.0489469214614" r="2.9762711475826116" fill="#CFAE58" opacity="0.1958328445376867"/>
  <circle cx="582.1842501546215" cy="127.45129250618831" r="5.963242863048792" fill="#CFAE58" opacity="0.16349256575591115"/>
  <circle cx="138.27574952977537" cy="494.88318483667587" r="3.8946827298916897" fill="#CFAE58" opacity="0.15908466274018845"/>
  <circle cx="1173.7418040327432" cy="150.8114020293601" r="5.465936711031166" fill="#CFAE58" opacity="0.1583321007256018"/>
  <circle cx="593.7632208504126" cy="326.54612874782237" r="5.080025313459711" fill="#CFAE58" opacity="0.2046044877142154"/>
  <circle cx="954.2259313341532" cy="309.9093725968518" r="2.247196543360051" fill="#CFAE58" opacity="0.13681752622911564"/>

  <!-- Border with glow -->
  <rect x="40" y="40" width="1120" height="550" fill="none" stroke="url(#goldGradient)" stroke-width="3" rx="12" filter="url(#softGlow)"/>

  <!-- Icon circle with premium background -->
  <circle cx="150" cy="200" r="75" fill="#CFAE58" opacity="0.15" filter="url(#softGlow)"/>
  <circle cx="150" cy="200" r="70" fill="#CFAE58" opacity="0.25"/>
  <text x="150" y="235" font-size="90" text-anchor="middle" fill="#CFAE58" filter="url(#glow)">ℹ️</text>

  <!-- Premium logo (crown) with enhanced styling -->
  <g transform="translate(100, 70)">
    <path d="M 30 20 L 40 35 L 35 35 Z M 50 15 L 60 35 L 45 35 Z M 65 20 L 75 35 L 70 35 Z M 30 35 L 75 35 L 73 45 L 32 45 Z"
          fill="url(#goldGradient)" filter="url(#glow)" stroke="#B89842" stroke-width="0.5"/>
    <circle cx="40" cy="25" r="3" fill="#4FD1C5" filter="url(#glow)"/>
    <circle cx="52" cy="20" r="4" fill="#4FD1C5" filter="url(#glow)"/>
    <circle cx="65" cy="25" r="3" fill="#4FD1C5" filter="url(#glow)"/>
  </g>

  <!-- Title with shadow -->
  <text x="280" y="180" font-family="Georgia, serif" font-size="72" font-weight="bold"
        fill="url(#goldGradient)" filter="url(#shadow)">About Royal Keta</text>

  <!-- Subtitle with subtle glow -->
  <text x="280" y="230" font-family="Arial, sans-serif" font-size="36"
        fill="#D6DEE6" opacity="0.95" filter="url(#softGlow)">Our Mission, Team &amp; Values</text>

  <!-- Brand name with letter spacing -->
  <text x="280" y="300" font-family="Georgia, serif" font-size="32" font-weight="bold"
        fill="#CFAE58" letter-spacing="4" filter="url(#glow)">ROYAL KETA</text>

  <!-- Russian tagline -->
  <text x="280" y="340" font-family="Arial, sans-serif" font-size="22" font-style="italic"
        fill="#8B95A1" opacity="0.8">От икринки к королевской</text>

  <!-- Location -->
  <text x="280" y="380" font-family="Arial, sans-serif" font-size="20"
        fill="#8B95A1" opacity="0.7">Невельский район, Сахалин</text>

  <!-- Website with glow -->
  <text x="100" y="570" font-family="Arial, sans-serif" font-size="30" font-weight="bold"
        fill="#4FD1C5" filter="url(#glow)">royalketa.com</text>

  <!-- Enhanced decorative salmon silhouette -->
  <g transform="translate(950, 480)" opacity="0.2" filter="url(#softGlow)">
    <ellipse cx="0" cy="0" rx="90" ry="35" fill="#CFAE58"/>
    <path d="M 90 0 L 120 -18 L 130 0 L 120 18 Z" fill="#CFAE58"/>
    <path d="M -25 -35 L 0 -45 L 25 -35 Z" fill="#CFAE58"/>
    <ellipse cx="-50" cy="0" rx="15" ry="12" fill="#0B0F14"/>
  </g>

  <!-- Additional decorative caviar clusters -->
  <g opacity="0.2">
    <circle cx="1050" cy="120" r="6" fill="#CFAE58"/>
    <circle cx="1065" cy="115" r="5" fill="#CFAE58"/>
    <circle cx="1058" cy="130" r="4" fill="#CFAE58"/>
    <circle cx="150" cy="500" r="5" fill="#4FD1C5"/>
    <circle cx="165" cy="508" r="4" fill="#4FD1C5"/>
    <circle cx="140" cy="512" r="5" fill="#4FD1C5"/>
  </g>
</svg>