<svg width="1200" height="630" xmlns="http://www.w3.org/2000/svg">
  <defs>
    <linearGradient id="bgGradient" x1="0%" y1="0%" x2="100%" y2="100%">
      <stop offset="0%" style="stop-color:#0B0F14;stop-opacity:1" />
      <stop offset="50%" style="stop-color:#0F1619;stop-opacity:1" />
      <stop offset="100%" style="stop-color:#0F1922;stop-opacity:1" />
    </linearGradient>
    <linearGradient id="goldGradient" x1="0%" y1="0%" x2="100%" y2="0%">
      <stop offset="0%" style="stop-color:#E5D596;stop-opacity:1" />
      <stop offset="50%" style="stop-color:#CFAE58;stop-opacity:1" />
      <stop offset="100%" style="stop-color:#B89842;stop-opacity:1" />
    </linearGradient>
    <radialGradient id="oceanGradient" cx="50%" cy="50%" r="50%">
      <stop offset="0%" style="stop-color:#4FD1C5;stop-opacity:0.3" />
      <stop offset="100%" style="stop-color:#1E90A0;stop-opacity:0.05" />
    </radialGradient>
    <filter id="glow">
      <feGaussianBlur stdDeviation="5" result="coloredBlur"/>
      <feMerge>
        <feMergeNode in="coloredBlur"/>
        <feMergeNode in="SourceGraphic"/>
      </feMerge>
    </filter>
    <filter id="softGlow">
      <feGaussianBlur stdDeviation="8" result="coloredBlur"/>
      <feMerge>
        <feMergeNode in="coloredBlur"/>
        <feMergeNode in="SourceGraphic"/>
      </feMerge>
    </filter>
    <filter id="shadow">
      <feDropShadow dx="0" dy="4" stdDeviation="8" flood-color="#000000" flood-opacity="0.5"/>
    </filter>
  </defs>

  <!-- Background -->
  <rect width="1200" height="630" fill="url(#bgGradient)"/>

  <!-- Decorative ocean gradients -->
  <ellipse cx="1000" cy="150" rx="300" ry="200" fill="url(#oceanGradient)" opacity="0.4"/>
  <ellipse cx="200" cy="530" rx="250" ry="180" fill="url(#oceanGradient)" opacity="0.3"/>

  <!-- Wave patterns -->
  <path d="M 0 400 Q 300 350 600 400 T 1200 400 L 1200 630 L 0 630 Z" fill="#1E90A0" opacity="0.08"/>
  <path d="M 0 450 Q 250 420 500 450 T 1000 450 T 1200 450 L 1200 630 L 0 630 Z" fill="#4FD1C5" opacity="0.05"/>

  <!-- Caviar roe particles -->
  <circle cx="89.99140140883739" cy="4.610998176668726" r="4.835695102004079" fill="#CFAE58" opacity="0.12575767557162496"/>
  <circle cx="772.3955480241154" cy="0.9188381393504219" r="5.849456464447073" fill="#CFAE58" opacity="0.19244257368436696"/>
  <circle cx="102.53941927557015" cy="502.0056601734971" r="2.476814151924451" fill="#CFAE58" opacity="0.17230660939479658"/>
  <circle cx="1130.6722042183687" cy="408.1703957361541" r="5.281161556191083" fill="#CFAE58" opacity="0.18459461735255622"/>
  <circle cx="892.7075197927014" cy="225.66583644010427" r="5.76433948644089" fill="#CFAE58" opacity="0.14427153846523033"/>
  <circle cx="69.72108505636747" cy="529.6916056084104" r="5.678245161739167" fill="#CFAE58" opacity="0.19829081193896383"/>
  <circle cx="70.33084845440013" cy="125.46933050753887" r="4.334647492623732" fill="#CFAE58" opacity="0.22796432063615496"/>
  <circle cx="1198.3153853626231" cy="410.5992892604119" r="5.1037824747567635" fill="#CFAE58" opacity="0.1757953622254227"/>
  <circle cx="536.356574432062" cy="594.4975526948772" r="5.237216138864289" fill="#CFAE58" opacity="0.19430601510502626"/>
  <circle cx="95.57826281428473" cy="72.6948876574398" r="4.230646862031175" fill="#CFAE58" opacity="0.24642440825776685"/>
  <circle cx="1149.982525287829" cy="312.83004101503855" r="4.281054548385694" fill="#CFAE58" opacity="0.18899731289170146"/>
  <circle cx="695.9580762716267" cy="304.72039413705653" r="4.444487787493613" fill="#CFAE58" opacity="0.2213471262291865"/>
  <circle cx="724.9398405469034" cy="121.01269572991512" r="3.716820609604471" fill="#CFAE58" opacity="0.19227751654266362"/>
  <circle cx="449.53861505454614" cy="612.2976843770713" r="4.6495104110329235" fill="#CFAE58" opacity="0.15028870137510517"/>
  <circle cx="422.59335279303576" cy="10.748805845765565" r="2.616799579937565" fill="#CFAE58" opacity="0.12753688193714585"/>
  <circle cx="55.53217066562972" cy="474.3369835642905" r="4.722437570539697" fill="#CFAE58" opacity="0.1583260664506111"/>
  <circle cx="32.564705948171024" cy="194.16391102393652" r="3.182763106464729" fill="#CFAE58" opacity="0.1419639514844083"/>
  <circle cx="578.1710338689982" cy="369.18430928361363" r="4.936008138034015" fill="#CFAE58" opacity="0.21948627648361052"/>
  <circle cx="226.70406122124245" cy="95.48651278746709" r="3.874950113583984" fill="#CFAE58" opacity="0.11262934688125566"/>
  <circle cx="315.7981581084856" cy="173.41296088162383" r="3.2499195539220533" fill="#CFAE58" opacity="0.1547122239773189"/>
  <circle cx="382.4424601442821" cy="264.6050108062772" r="4.416310609719214" fill="#CFAE58" opacity="0.1259873306481499"/>
  <circle cx="664.462027277443" cy="246.40953619506357" r="5.474825008796684" fill="#CFAE58" opacity="0.2319981996218959"/>
  <circle cx="218.53652991072732" cy="387.755244077117" r="5.161205040975398" fill="#CFAE58" opacity="0.24653602860706292"/>
  <circle cx="1136.3200319064008" cy="114.43067592926165" r="3.669731480600735" fill="#CFAE58" opacity="0.20227969136409107"/>
  <circle cx="179.0186239702348" cy="214.7535873926249" r="4.2132105768404005" fill="#CFAE58" opacity="0.12473137868759523"/>
  <circle cx="199.94953417290233" cy="513.8019493518174" r="5.307211476892857" fill="#CFAE58" opacity="0.10711811887582216"/>
  <circle cx="704.6170647439546" cy="304.34333871138574" r="2.3591737654557576" fill="#CFAE58" opacity="0.16243243868379043"/>
  <circle cx="1052.0853437489525" cy="333.1555764070974" r="3.692790529282166" fill="#CFAE58" opacity="0.10241806388968121"/>
  <circle cx="979.1162568627485" cy="306.01779281035493" r="4.218231263210445" fill="#CFAE58" opacity="0.13749404202617632"/>
  <circle cx="299.45319476091566" cy="191.15038409412236" r="4.840736760763469" fill="#CFAE58" opacity="0.24990851933107514"/>

  <!-- Border with glow -->
  <rect x="40" y="40" width="1120" height="550" fill="none" stroke="url(#goldGradient)" stroke-width="3" rx="12" filter="url(#softGlow)"/>

  <!-- Icon circle with premium background -->
  <circle cx="150" cy="200" r="75" fill="#CFAE58" opacity="0.15" filter="url(#softGlow)"/>
  <circle cx="150" cy="200" r="70" fill="#CFAE58" opacity="0.25"/>
  <text x="150" y="235" font-size="90" text-anchor="middle" fill="#CFAE58" filter="url(#glow)">ℹ️</text>

  <!-- Premium logo (crown) with enhanced styling -->
  <g transform="translate(100, 70)">
    <path d="M 30 20 L 40 35 L 35 35 Z M 50 15 L 60 35 L 45 35 Z M 65 20 L 75 35 L 70 35 Z M 30 35 L 75 35 L 73 45 L 32 45 Z"
          fill="url(#goldGradient)" filter="url(#glow)" stroke="#B89842" stroke-width="0.5"/>
    <circle cx="40" cy="25" r="3" fill="#4FD1C5" filter="url(#glow)"/>
    <circle cx="52" cy="20" r="4" fill="#4FD1C5" filter="url(#glow)"/>
    <circle cx="65" cy="25" r="3" fill="#4FD1C5" filter="url(#glow)"/>
  </g>

  <!-- Title with shadow -->
  <text x="280" y="180" font-family="Georgia, serif" font-size="72" font-weight="bold"
        fill="url(#goldGradient)" filter="url(#shadow)">About Royal Keta</text>

  <!-- Subtitle with subtle glow -->
  <text x="280" y="230" font-family="Arial, sans-serif" font-size="36"
        fill="#D6DEE6" opacity="0.95" filter="url(#softGlow)">Our Mission, Team &amp; Values</text>

  <!-- Brand name with letter spacing -->
  <text x="280" y="300" font-family="Georgia, serif" font-size="32" font-weight="bold"
        fill="#CFAE58" letter-spacing="4" filter="url(#glow)">ROYAL KETA</text>

  <!-- Russian tagline -->
  <text x="280" y="340" font-family="Arial, sans-serif" font-size="22" font-style="italic"
        fill="#8B95A1" opacity="0.8">От икринки к королевской</text>

  <!-- Location -->
  <text x="280" y="380" font-family="Arial, sans-serif" font-size="20"
        fill="#8B95A1" opacity="0.7">Невельский район, Сахалин</text>

  <!-- Website with glow -->
  <text x="100" y="570" font-family="Arial, sans-serif" font-size="30" font-weight="bold"
        fill="#4FD1C5" filter="url(#glow)">royalketa.com</text>

  <!-- Enhanced decorative salmon silhouette -->
  <g transform="translate(950, 480)" opacity="0.2" filter="url(#softGlow)">
    <ellipse cx="0" cy="0" rx="90" ry="35" fill="#CFAE58"/>
    <path d="M 90 0 L 120 -18 L 130 0 L 120 18 Z" fill="#CFAE58"/>
    <path d="M -25 -35 L 0 -45 L 25 -35 Z" fill="#CFAE58"/>
    <ellipse cx="-50" cy="0" rx="15" ry="12" fill="#0B0F14"/>
  </g>

  <!-- Additional decorative caviar clusters -->
  <g opacity="0.2">
    <circle cx="1050" cy="120" r="6" fill="#CFAE58"/>
    <circle cx="1065" cy="115" r="5" fill="#CFAE58"/>
    <circle cx="1058" cy="130" r="4" fill="#CFAE58"/>
    <circle cx="150" cy="500" r="5" fill="#4FD1C5"/>
    <circle cx="165" cy="508" r="4" fill="#4FD1C5"/>
    <circle cx="140" cy="512" r="5" fill="#4FD1C5"/>
  </g>
</svg>