<svg width="1200" height="630" xmlns="http://www.w3.org/2000/svg">
  <defs>
    <linearGradient id="bgGradient" x1="0%" y1="0%" x2="100%" y2="100%">
      <stop offset="0%" style="stop-color:#0B0F14;stop-opacity:1" />
      <stop offset="50%" style="stop-color:#0F1619;stop-opacity:1" />
      <stop offset="100%" style="stop-color:#0F1922;stop-opacity:1" />
    </linearGradient>
    <linearGradient id="goldGradient" x1="0%" y1="0%" x2="100%" y2="0%">
      <stop offset="0%" style="stop-color:#E5D596;stop-opacity:1" />
      <stop offset="50%" style="stop-color:#CFAE58;stop-opacity:1" />
      <stop offset="100%" style="stop-color:#B89842;stop-opacity:1" />
    </linearGradient>
    <radialGradient id="oceanGradient" cx="50%" cy="50%" r="50%">
      <stop offset="0%" style="stop-color:#4FD1C5;stop-opacity:0.3" />
      <stop offset="100%" style="stop-color:#1E90A0;stop-opacity:0.05" />
    </radialGradient>
    <filter id="glow">
      <feGaussianBlur stdDeviation="5" result="coloredBlur"/>
      <feMerge>
        <feMergeNode in="coloredBlur"/>
        <feMergeNode in="SourceGraphic"/>
      </feMerge>
    </filter>
    <filter id="softGlow">
      <feGaussianBlur stdDeviation="8" result="coloredBlur"/>
      <feMerge>
        <feMergeNode in="coloredBlur"/>
        <feMergeNode in="SourceGraphic"/>
      </feMerge>
    </filter>
    <filter id="shadow">
      <feDropShadow dx="0" dy="4" stdDeviation="8" flood-color="#000000" flood-opacity="0.5"/>
    </filter>
  </defs>

  <!-- Background -->
  <rect width="1200" height="630" fill="url(#bgGradient)"/>

  <!-- Decorative ocean gradients -->
  <ellipse cx="1000" cy="150" rx="300" ry="200" fill="url(#oceanGradient)" opacity="0.4"/>
  <ellipse cx="200" cy="530" rx="250" ry="180" fill="url(#oceanGradient)" opacity="0.3"/>

  <!-- Wave patterns -->
  <path d="M 0 400 Q 300 350 600 400 T 1200 400 L 1200 630 L 0 630 Z" fill="#1E90A0" opacity="0.08"/>
  <path d="M 0 450 Q 250 420 500 450 T 1000 450 T 1200 450 L 1200 630 L 0 630 Z" fill="#4FD1C5" opacity="0.05"/>

  <!-- Caviar roe particles -->
  <circle cx="530.5625185411875" cy="90.45568741262876" r="2.240149190073047" fill="#CFAE58" opacity="0.11354982681202441"/>
  <circle cx="1050.853581901251" cy="505.672730666527" r="3.003339971204632" fill="#CFAE58" opacity="0.21785346151558105"/>
  <circle cx="551.0529022319054" cy="573.4387172219265" r="5.749173379451343" fill="#CFAE58" opacity="0.1450149826341085"/>
  <circle cx="1038.6276476279963" cy="546.0788093382631" r="4.705665434458899" fill="#CFAE58" opacity="0.10261705737017271"/>
  <circle cx="704.2999930774192" cy="139.8199577177012" r="5.144739821231426" fill="#CFAE58" opacity="0.16817902664991916"/>
  <circle cx="1025.1593692250958" cy="232.02957179121248" r="4.630916678543914" fill="#CFAE58" opacity="0.14193452645950572"/>
  <circle cx="36.227117643690576" cy="115.08265649552354" r="3.0788476102915574" fill="#CFAE58" opacity="0.17189917090509876"/>
  <circle cx="155.1814727340428" cy="281.11007599060775" r="5.319739593824832" fill="#CFAE58" opacity="0.13310714281166522"/>
  <circle cx="544.2018409819648" cy="59.145887864699425" r="3.759378009545391" fill="#CFAE58" opacity="0.15032015871985116"/>
  <circle cx="1079.2287487175151" cy="219.74831429771584" r="4.953683380956874" fill="#CFAE58" opacity="0.18952991044298506"/>
  <circle cx="87.76405573898086" cy="472.3316373730511" r="5.32782720340863" fill="#CFAE58" opacity="0.12850843712444254"/>
  <circle cx="604.8740953240211" cy="22.561852229792837" r="5.168459540069283" fill="#CFAE58" opacity="0.2313511933067351"/>
  <circle cx="218.69988679779482" cy="302.89333426470785" r="3.975450120623348" fill="#CFAE58" opacity="0.1876674574499163"/>
  <circle cx="845.1153336413546" cy="573.4923737423645" r="2.357072971013256" fill="#CFAE58" opacity="0.20197780703999188"/>
  <circle cx="381.8585747757677" cy="117.49976322029472" r="3.574133922278837" fill="#CFAE58" opacity="0.12528408245303183"/>
  <circle cx="1060.6273668965605" cy="17.66469212960654" r="5.311791998551658" fill="#CFAE58" opacity="0.11696301904745307"/>
  <circle cx="936.3791991611811" cy="229.44280741954123" r="5.42248785859138" fill="#CFAE58" opacity="0.20011272148101716"/>
  <circle cx="992.4280120425466" cy="195.69088520150572" r="2.3516309460559963" fill="#CFAE58" opacity="0.14283632748664116"/>
  <circle cx="277.4513330312413" cy="358.76574645273803" r="4.698552143392258" fill="#CFAE58" opacity="0.1284053990404252"/>
  <circle cx="751.9057612803522" cy="39.99229977095459" r="5.740463911175363" fill="#CFAE58" opacity="0.11045281768022383"/>
  <circle cx="942.5782753020046" cy="307.62711570171405" r="4.713861513387575" fill="#CFAE58" opacity="0.16742824267639245"/>
  <circle cx="814.5507504080355" cy="37.4660476015338" r="5.359500627952935" fill="#CFAE58" opacity="0.13923200258132656"/>
  <circle cx="501.96018156848464" cy="186.52772087819721" r="5.844701213425108" fill="#CFAE58" opacity="0.24066421933242932"/>
  <circle cx="477.6451192697898" cy="312.81295276856287" r="2.196580928615343" fill="#CFAE58" opacity="0.20832283129015644"/>
  <circle cx="906.5619646605741" cy="143.68586027415097" r="4.606638606346318" fill="#CFAE58" opacity="0.19101189429989018"/>
  <circle cx="636.9961349635144" cy="462.0397878950362" r="3.4640147125597016" fill="#CFAE58" opacity="0.22598030313721967"/>
  <circle cx="1134.34288239303" cy="98.318914482321" r="4.20029514070749" fill="#CFAE58" opacity="0.24555526361445207"/>
  <circle cx="220.0795201311287" cy="1.3147207276369266" r="4.805584724913419" fill="#CFAE58" opacity="0.23634017750130973"/>
  <circle cx="219.92589857161516" cy="182.78210336408887" r="4.18809504928198" fill="#CFAE58" opacity="0.14910119028077654"/>
  <circle cx="805.7822876443187" cy="207.2748545966389" r="4.99510538659606" fill="#CFAE58" opacity="0.19918246139944037"/>

  <!-- Border with glow -->
  <rect x="40" y="40" width="1120" height="550" fill="none" stroke="url(#goldGradient)" stroke-width="3" rx="12" filter="url(#softGlow)"/>

  <!-- Icon circle with premium background -->
  <circle cx="150" cy="200" r="75" fill="#CFAE58" opacity="0.15" filter="url(#softGlow)"/>
  <circle cx="150" cy="200" r="70" fill="#CFAE58" opacity="0.25"/>
  <text x="150" y="235" font-size="90" text-anchor="middle" fill="#CFAE58" filter="url(#glow)">ℹ️</text>

  <!-- Premium logo (crown) with enhanced styling -->
  <g transform="translate(100, 70)">
    <path d="M 30 20 L 40 35 L 35 35 Z M 50 15 L 60 35 L 45 35 Z M 65 20 L 75 35 L 70 35 Z M 30 35 L 75 35 L 73 45 L 32 45 Z"
          fill="url(#goldGradient)" filter="url(#glow)" stroke="#B89842" stroke-width="0.5"/>
    <circle cx="40" cy="25" r="3" fill="#4FD1C5" filter="url(#glow)"/>
    <circle cx="52" cy="20" r="4" fill="#4FD1C5" filter="url(#glow)"/>
    <circle cx="65" cy="25" r="3" fill="#4FD1C5" filter="url(#glow)"/>
  </g>

  <!-- Title with shadow -->
  <text x="280" y="180" font-family="Georgia, serif" font-size="72" font-weight="bold"
        fill="url(#goldGradient)" filter="url(#shadow)">About Royal Keta</text>

  <!-- Subtitle with subtle glow -->
  <text x="280" y="230" font-family="Arial, sans-serif" font-size="36"
        fill="#D6DEE6" opacity="0.95" filter="url(#softGlow)">Our Mission, Team & Values</text>

  <!-- Brand name with letter spacing -->
  <text x="280" y="300" font-family="Georgia, serif" font-size="32" font-weight="bold"
        fill="#CFAE58" letter-spacing="4" filter="url(#glow)">ROYAL KETA</text>

  <!-- Russian tagline -->
  <text x="280" y="340" font-family="Arial, sans-serif" font-size="22" font-style="italic"
        fill="#8B95A1" opacity="0.8">От икринки к королевской</text>

  <!-- Location -->
  <text x="280" y="380" font-family="Arial, sans-serif" font-size="20"
        fill="#8B95A1" opacity="0.7">Невельский район, Сахалин</text>

  <!-- Website with glow -->
  <text x="100" y="570" font-family="Arial, sans-serif" font-size="30" font-weight="bold"
        fill="#4FD1C5" filter="url(#glow)">royalketa.com</text>

  <!-- Enhanced decorative salmon silhouette -->
  <g transform="translate(950, 480)" opacity="0.2" filter="url(#softGlow)">
    <ellipse cx="0" cy="0" rx="90" ry="35" fill="#CFAE58"/>
    <path d="M 90 0 L 120 -18 L 130 0 L 120 18 Z" fill="#CFAE58"/>
    <path d="M -25 -35 L 0 -45 L 25 -35 Z" fill="#CFAE58"/>
    <ellipse cx="-50" cy="0" rx="15" ry="12" fill="#0B0F14"/>
  </g>

  <!-- Additional decorative caviar clusters -->
  <g opacity="0.2">
    <circle cx="1050" cy="120" r="6" fill="#CFAE58"/>
    <circle cx="1065" cy="115" r="5" fill="#CFAE58"/>
    <circle cx="1058" cy="130" r="4" fill="#CFAE58"/>
    <circle cx="150" cy="500" r="5" fill="#4FD1C5"/>
    <circle cx="165" cy="508" r="4" fill="#4FD1C5"/>
    <circle cx="140" cy="512" r="5" fill="#4FD1C5"/>
  </g>
</svg>