<svg width="1200" height="630" xmlns="http://www.w3.org/2000/svg">
  <defs>
    <linearGradient id="bgGradient" x1="0%" y1="0%" x2="100%" y2="100%">
      <stop offset="0%" style="stop-color:#0B0F14;stop-opacity:1" />
      <stop offset="50%" style="stop-color:#0F1619;stop-opacity:1" />
      <stop offset="100%" style="stop-color:#0F1922;stop-opacity:1" />
    </linearGradient>
    <linearGradient id="goldGradient" x1="0%" y1="0%" x2="100%" y2="0%">
      <stop offset="0%" style="stop-color:#E5D596;stop-opacity:1" />
      <stop offset="50%" style="stop-color:#CFAE58;stop-opacity:1" />
      <stop offset="100%" style="stop-color:#B89842;stop-opacity:1" />
    </linearGradient>
    <radialGradient id="oceanGradient" cx="50%" cy="50%" r="50%">
      <stop offset="0%" style="stop-color:#4FD1C5;stop-opacity:0.3" />
      <stop offset="100%" style="stop-color:#1E90A0;stop-opacity:0.05" />
    </radialGradient>
    <filter id="glow">
      <feGaussianBlur stdDeviation="5" result="coloredBlur"/>
      <feMerge>
        <feMergeNode in="coloredBlur"/>
        <feMergeNode in="SourceGraphic"/>
      </feMerge>
    </filter>
    <filter id="softGlow">
      <feGaussianBlur stdDeviation="8" result="coloredBlur"/>
      <feMerge>
        <feMergeNode in="coloredBlur"/>
        <feMergeNode in="SourceGraphic"/>
      </feMerge>
    </filter>
    <filter id="shadow">
      <feDropShadow dx="0" dy="4" stdDeviation="8" flood-color="#000000" flood-opacity="0.5"/>
    </filter>
  </defs>

  <!-- Background -->
  <rect width="1200" height="630" fill="url(#bgGradient)"/>

  <!-- Decorative ocean gradients -->
  <ellipse cx="1000" cy="150" rx="300" ry="200" fill="url(#oceanGradient)" opacity="0.4"/>
  <ellipse cx="200" cy="530" rx="250" ry="180" fill="url(#oceanGradient)" opacity="0.3"/>

  <!-- Wave patterns -->
  <path d="M 0 400 Q 300 350 600 400 T 1200 400 L 1200 630 L 0 630 Z" fill="#1E90A0" opacity="0.08"/>
  <path d="M 0 450 Q 250 420 500 450 T 1000 450 T 1200 450 L 1200 630 L 0 630 Z" fill="#4FD1C5" opacity="0.05"/>

  <!-- Caviar roe particles -->
  <circle cx="911.5415046849049" cy="374.93181108355367" r="5.7162946313317065" fill="#CFAE58" opacity="0.23905886883390354"/>
  <circle cx="662.8324347847116" cy="11.422120032947529" r="4.60109099695772" fill="#CFAE58" opacity="0.22142087392722484"/>
  <circle cx="959.0593311074259" cy="397.9960809844672" r="5.063015776050516" fill="#CFAE58" opacity="0.20615955856232304"/>
  <circle cx="661.2633683929433" cy="163.25178638177601" r="4.86692021831113" fill="#CFAE58" opacity="0.23070605096288357"/>
  <circle cx="951.1568944734361" cy="120.92049503062405" r="4.575971303681371" fill="#CFAE58" opacity="0.16513996684138266"/>
  <circle cx="287.5366635553114" cy="7.712007784221731" r="2.8996834901708572" fill="#CFAE58" opacity="0.18966377328787876"/>
  <circle cx="681.5908234336853" cy="172.01052674806692" r="4.051582976824989" fill="#CFAE58" opacity="0.18531166924104941"/>
  <circle cx="568.6870222109826" cy="596.0050041920118" r="3.1063279168455145" fill="#CFAE58" opacity="0.24138730655020516"/>
  <circle cx="373.36878337741064" cy="410.98745987161124" r="4.982269448186317" fill="#CFAE58" opacity="0.17122842746080374"/>
  <circle cx="869.357513393264" cy="152.68184034193598" r="2.4990823726184175" fill="#CFAE58" opacity="0.17630524587014035"/>
  <circle cx="625.6310601191715" cy="259.47828427527696" r="2.394926051155184" fill="#CFAE58" opacity="0.16929762408467802"/>
  <circle cx="737.4172134254161" cy="501.7644227812505" r="4.548867683075489" fill="#CFAE58" opacity="0.15489530936735554"/>
  <circle cx="128.42515443901786" cy="206.34332201569003" r="2.7641794538740028" fill="#CFAE58" opacity="0.22023503803755282"/>
  <circle cx="584.9201923653917" cy="221.28947867157737" r="4.728147290138999" fill="#CFAE58" opacity="0.17904004055940387"/>
  <circle cx="272.58239817974567" cy="576.5914932516664" r="2.841404865870154" fill="#CFAE58" opacity="0.12523298779423295"/>
  <circle cx="521.2718646919966" cy="385.6541589456591" r="4.977826262049182" fill="#CFAE58" opacity="0.2019296567769157"/>
  <circle cx="825.1374204086745" cy="574.6328832588187" r="2.1206681099630176" fill="#CFAE58" opacity="0.15262209269928753"/>
  <circle cx="79.02965173370582" cy="315.08867918462295" r="3.3466724287319147" fill="#CFAE58" opacity="0.16716070133632677"/>
  <circle cx="489.76110934704104" cy="425.3309832047437" r="3.161568907969995" fill="#CFAE58" opacity="0.2127139714689499"/>
  <circle cx="201.6674464910164" cy="21.351598619743342" r="3.5336629181345476" fill="#CFAE58" opacity="0.18726922859045475"/>
  <circle cx="750.0816837182115" cy="74.15898350149382" r="2.6873524596146243" fill="#CFAE58" opacity="0.15370207008486997"/>
  <circle cx="208.3228626281036" cy="119.83846970878908" r="4.014006905537638" fill="#CFAE58" opacity="0.12801021260241027"/>
  <circle cx="142.49878300758186" cy="559.0255067418909" r="4.599293878448603" fill="#CFAE58" opacity="0.15174043978901933"/>
  <circle cx="334.6928679070931" cy="225.6113920968664" r="4.45702052480364" fill="#CFAE58" opacity="0.17075895804353491"/>
  <circle cx="232.40172811328978" cy="586.1591925780508" r="3.1420896475672793" fill="#CFAE58" opacity="0.19105064694499513"/>
  <circle cx="416.2461579303739" cy="304.48759710633226" r="4.215717164280949" fill="#CFAE58" opacity="0.20782591652430715"/>
  <circle cx="794.3173330739471" cy="445.1390168001188" r="5.770881617001671" fill="#CFAE58" opacity="0.2095912515240864"/>
  <circle cx="391.72512542818134" cy="31.007969511700797" r="4.051141672398437" fill="#CFAE58" opacity="0.1260890180724235"/>
  <circle cx="384.8094451222912" cy="133.8715517009928" r="3.230579932571886" fill="#CFAE58" opacity="0.20972501811751024"/>
  <circle cx="876.9998512708096" cy="129.59457044649798" r="4.602638321340391" fill="#CFAE58" opacity="0.22959817604310853"/>

  <!-- Border with glow -->
  <rect x="40" y="40" width="1120" height="550" fill="none" stroke="url(#goldGradient)" stroke-width="3" rx="12" filter="url(#softGlow)"/>

  <!-- Icon circle with premium background -->
  <circle cx="150" cy="200" r="75" fill="#CFAE58" opacity="0.15" filter="url(#softGlow)"/>
  <circle cx="150" cy="200" r="70" fill="#CFAE58" opacity="0.25"/>
  <text x="150" y="235" font-size="90" text-anchor="middle" fill="#CFAE58" filter="url(#glow)">ℹ️</text>

  <!-- Premium logo (crown) with enhanced styling -->
  <g transform="translate(100, 70)">
    <path d="M 30 20 L 40 35 L 35 35 Z M 50 15 L 60 35 L 45 35 Z M 65 20 L 75 35 L 70 35 Z M 30 35 L 75 35 L 73 45 L 32 45 Z"
          fill="url(#goldGradient)" filter="url(#glow)" stroke="#B89842" stroke-width="0.5"/>
    <circle cx="40" cy="25" r="3" fill="#4FD1C5" filter="url(#glow)"/>
    <circle cx="52" cy="20" r="4" fill="#4FD1C5" filter="url(#glow)"/>
    <circle cx="65" cy="25" r="3" fill="#4FD1C5" filter="url(#glow)"/>
  </g>

  <!-- Title with shadow -->
  <text x="280" y="180" font-family="Georgia, serif" font-size="72" font-weight="bold"
        fill="url(#goldGradient)" filter="url(#shadow)">About Royal Keta</text>

  <!-- Subtitle with subtle glow -->
  <text x="280" y="230" font-family="Arial, sans-serif" font-size="36"
        fill="#D6DEE6" opacity="0.95" filter="url(#softGlow)">Our Mission, Team &amp; Values</text>

  <!-- Brand name with letter spacing -->
  <text x="280" y="300" font-family="Georgia, serif" font-size="32" font-weight="bold"
        fill="#CFAE58" letter-spacing="4" filter="url(#glow)">ROYAL KETA</text>

  <!-- Russian tagline -->
  <text x="280" y="340" font-family="Arial, sans-serif" font-size="22" font-style="italic"
        fill="#8B95A1" opacity="0.8">От икринки к королевской</text>

  <!-- Location -->
  <text x="280" y="380" font-family="Arial, sans-serif" font-size="20"
        fill="#8B95A1" opacity="0.7">Невельский район, Сахалин</text>

  <!-- Website with glow -->
  <text x="100" y="570" font-family="Arial, sans-serif" font-size="30" font-weight="bold"
        fill="#4FD1C5" filter="url(#glow)">royalketa.com</text>

  <!-- Enhanced decorative salmon silhouette -->
  <g transform="translate(950, 480)" opacity="0.2" filter="url(#softGlow)">
    <ellipse cx="0" cy="0" rx="90" ry="35" fill="#CFAE58"/>
    <path d="M 90 0 L 120 -18 L 130 0 L 120 18 Z" fill="#CFAE58"/>
    <path d="M -25 -35 L 0 -45 L 25 -35 Z" fill="#CFAE58"/>
    <ellipse cx="-50" cy="0" rx="15" ry="12" fill="#0B0F14"/>
  </g>

  <!-- Additional decorative caviar clusters -->
  <g opacity="0.2">
    <circle cx="1050" cy="120" r="6" fill="#CFAE58"/>
    <circle cx="1065" cy="115" r="5" fill="#CFAE58"/>
    <circle cx="1058" cy="130" r="4" fill="#CFAE58"/>
    <circle cx="150" cy="500" r="5" fill="#4FD1C5"/>
    <circle cx="165" cy="508" r="4" fill="#4FD1C5"/>
    <circle cx="140" cy="512" r="5" fill="#4FD1C5"/>
  </g>
</svg>