<svg width="1200" height="630" xmlns="http://www.w3.org/2000/svg">
  <defs>
    <linearGradient id="bgGradient" x1="0%" y1="0%" x2="100%" y2="100%">
      <stop offset="0%" style="stop-color:#0B0F14;stop-opacity:1" />
      <stop offset="50%" style="stop-color:#0F1619;stop-opacity:1" />
      <stop offset="100%" style="stop-color:#0F1922;stop-opacity:1" />
    </linearGradient>
    <linearGradient id="goldGradient" x1="0%" y1="0%" x2="100%" y2="0%">
      <stop offset="0%" style="stop-color:#E5D596;stop-opacity:1" />
      <stop offset="50%" style="stop-color:#CFAE58;stop-opacity:1" />
      <stop offset="100%" style="stop-color:#B89842;stop-opacity:1" />
    </linearGradient>
    <radialGradient id="oceanGradient" cx="50%" cy="50%" r="50%">
      <stop offset="0%" style="stop-color:#4FD1C5;stop-opacity:0.3" />
      <stop offset="100%" style="stop-color:#1E90A0;stop-opacity:0.05" />
    </radialGradient>
    <filter id="glow">
      <feGaussianBlur stdDeviation="5" result="coloredBlur"/>
      <feMerge>
        <feMergeNode in="coloredBlur"/>
        <feMergeNode in="SourceGraphic"/>
      </feMerge>
    </filter>
    <filter id="softGlow">
      <feGaussianBlur stdDeviation="8" result="coloredBlur"/>
      <feMerge>
        <feMergeNode in="coloredBlur"/>
        <feMergeNode in="SourceGraphic"/>
      </feMerge>
    </filter>
    <filter id="shadow">
      <feDropShadow dx="0" dy="4" stdDeviation="8" flood-color="#000000" flood-opacity="0.5"/>
    </filter>
  </defs>

  <!-- Background -->
  <rect width="1200" height="630" fill="url(#bgGradient)"/>

  <!-- Decorative ocean gradients -->
  <ellipse cx="1000" cy="150" rx="300" ry="200" fill="url(#oceanGradient)" opacity="0.4"/>
  <ellipse cx="200" cy="530" rx="250" ry="180" fill="url(#oceanGradient)" opacity="0.3"/>

  <!-- Wave patterns -->
  <path d="M 0 400 Q 300 350 600 400 T 1200 400 L 1200 630 L 0 630 Z" fill="#1E90A0" opacity="0.08"/>
  <path d="M 0 450 Q 250 420 500 450 T 1000 450 T 1200 450 L 1200 630 L 0 630 Z" fill="#4FD1C5" opacity="0.05"/>

  <!-- Caviar roe particles -->
  <circle cx="897.408425475099" cy="318.80297428269813" r="5.987031343993036" fill="#CFAE58" opacity="0.20762670848460768"/>
  <circle cx="1011.1029084104409" cy="275.3888844631366" r="5.256688312111116" fill="#CFAE58" opacity="0.11037962461605387"/>
  <circle cx="951.2283387859848" cy="378.7249176801255" r="3.2748022128268754" fill="#CFAE58" opacity="0.15387005048189642"/>
  <circle cx="427.4105526219156" cy="589.2260730095132" r="2.4339459827585364" fill="#CFAE58" opacity="0.20006136957783455"/>
  <circle cx="465.7972733143189" cy="446.9452727566704" r="5.457706472897781" fill="#CFAE58" opacity="0.2277974372823357"/>
  <circle cx="1069.6286042207687" cy="115.17207524372085" r="3.009914178875179" fill="#CFAE58" opacity="0.2136091772145121"/>
  <circle cx="206.27999451628085" cy="173.27031280797402" r="5.2415059304166896" fill="#CFAE58" opacity="0.17003424753925106"/>
  <circle cx="1062.9159954569875" cy="320.1178976775074" r="4.441004270544885" fill="#CFAE58" opacity="0.14102171083350148"/>
  <circle cx="553.9693840321527" cy="484.7355154168987" r="3.709105431505643" fill="#CFAE58" opacity="0.15174660583390112"/>
  <circle cx="585.8557159765575" cy="613.3671075476544" r="4.921553729543789" fill="#CFAE58" opacity="0.10792226741962299"/>
  <circle cx="1159.5785022477671" cy="409.67484926264933" r="5.769345581795103" fill="#CFAE58" opacity="0.21773829383589885"/>
  <circle cx="125.3750522346329" cy="221.79315874144527" r="2.0517746281066005" fill="#CFAE58" opacity="0.13014056230920157"/>
  <circle cx="33.891994749599164" cy="21.817556514321346" r="2.181715973233506" fill="#CFAE58" opacity="0.10146198279755841"/>
  <circle cx="1007.7194983948915" cy="459.58566801128535" r="4.090151268983405" fill="#CFAE58" opacity="0.19742667553469984"/>
  <circle cx="990.2174864350079" cy="425.25949666034165" r="4.727071675433368" fill="#CFAE58" opacity="0.10879274699364352"/>
  <circle cx="758.7940695212421" cy="34.01855845757794" r="4.470187757435872" fill="#CFAE58" opacity="0.173723052681209"/>
  <circle cx="7.06713922288742" cy="159.23667310252523" r="3.049441341539511" fill="#CFAE58" opacity="0.23265256075967683"/>
  <circle cx="278.65041768361385" cy="525.7898749392092" r="4.075251776762247" fill="#CFAE58" opacity="0.12751205262124046"/>
  <circle cx="323.9304448908192" cy="312.0280005965196" r="2.667640718475017" fill="#CFAE58" opacity="0.16491829567113458"/>
  <circle cx="110.5113498230379" cy="108.47999452564943" r="4.577263652275831" fill="#CFAE58" opacity="0.2032359580160421"/>
  <circle cx="121.12691302340383" cy="297.4330967607503" r="5.048673931676309" fill="#CFAE58" opacity="0.16046274655560028"/>
  <circle cx="872.1871545000748" cy="180.33836665168224" r="2.7240228001088287" fill="#CFAE58" opacity="0.15883287811719143"/>
  <circle cx="1094.593139592399" cy="559.0065518237241" r="2.834061741397833" fill="#CFAE58" opacity="0.12584471067142552"/>
  <circle cx="950.6561031780956" cy="392.4787115395708" r="2.426512865338088" fill="#CFAE58" opacity="0.11547700080695827"/>
  <circle cx="379.25538818586426" cy="270.86265206402044" r="3.489551726118898" fill="#CFAE58" opacity="0.13057788052283092"/>
  <circle cx="819.6063669212401" cy="170.0600243875822" r="4.974171321106252" fill="#CFAE58" opacity="0.2225103646290486"/>
  <circle cx="150.07171294112086" cy="482.42344864851077" r="5.057433202216502" fill="#CFAE58" opacity="0.18369340664571698"/>
  <circle cx="889.8828420851952" cy="50.19666277722329" r="3.31395244159883" fill="#CFAE58" opacity="0.2194122054422243"/>
  <circle cx="951.7768380286066" cy="435.2629009980039" r="3.1657567942615517" fill="#CFAE58" opacity="0.23623086345195438"/>
  <circle cx="1164.266875283844" cy="365.675915002287" r="4.479315255497681" fill="#CFAE58" opacity="0.13837050725311134"/>

  <!-- Border with glow -->
  <rect x="40" y="40" width="1120" height="550" fill="none" stroke="url(#goldGradient)" stroke-width="3" rx="12" filter="url(#softGlow)"/>

  <!-- Icon circle with premium background -->
  <circle cx="150" cy="200" r="75" fill="#CFAE58" opacity="0.15" filter="url(#softGlow)"/>
  <circle cx="150" cy="200" r="70" fill="#CFAE58" opacity="0.25"/>
  <text x="150" y="235" font-size="90" text-anchor="middle" fill="#CFAE58" filter="url(#glow)">ℹ️</text>

  <!-- Premium logo (crown) with enhanced styling -->
  <g transform="translate(100, 70)">
    <path d="M 30 20 L 40 35 L 35 35 Z M 50 15 L 60 35 L 45 35 Z M 65 20 L 75 35 L 70 35 Z M 30 35 L 75 35 L 73 45 L 32 45 Z"
          fill="url(#goldGradient)" filter="url(#glow)" stroke="#B89842" stroke-width="0.5"/>
    <circle cx="40" cy="25" r="3" fill="#4FD1C5" filter="url(#glow)"/>
    <circle cx="52" cy="20" r="4" fill="#4FD1C5" filter="url(#glow)"/>
    <circle cx="65" cy="25" r="3" fill="#4FD1C5" filter="url(#glow)"/>
  </g>

  <!-- Title with shadow -->
  <text x="280" y="180" font-family="Georgia, serif" font-size="72" font-weight="bold"
        fill="url(#goldGradient)" filter="url(#shadow)">About Royal Keta</text>

  <!-- Subtitle with subtle glow -->
  <text x="280" y="230" font-family="Arial, sans-serif" font-size="36"
        fill="#D6DEE6" opacity="0.95" filter="url(#softGlow)">Our Mission, Team &amp; Values</text>

  <!-- Brand name with letter spacing -->
  <text x="280" y="300" font-family="Georgia, serif" font-size="32" font-weight="bold"
        fill="#CFAE58" letter-spacing="4" filter="url(#glow)">ROYAL KETA</text>

  <!-- Russian tagline -->
  <text x="280" y="340" font-family="Arial, sans-serif" font-size="22" font-style="italic"
        fill="#8B95A1" opacity="0.8">От икринки к королевской</text>

  <!-- Location -->
  <text x="280" y="380" font-family="Arial, sans-serif" font-size="20"
        fill="#8B95A1" opacity="0.7">Невельский район, Сахалин</text>

  <!-- Website with glow -->
  <text x="100" y="570" font-family="Arial, sans-serif" font-size="30" font-weight="bold"
        fill="#4FD1C5" filter="url(#glow)">royalketa.com</text>

  <!-- Enhanced decorative salmon silhouette -->
  <g transform="translate(950, 480)" opacity="0.2" filter="url(#softGlow)">
    <ellipse cx="0" cy="0" rx="90" ry="35" fill="#CFAE58"/>
    <path d="M 90 0 L 120 -18 L 130 0 L 120 18 Z" fill="#CFAE58"/>
    <path d="M -25 -35 L 0 -45 L 25 -35 Z" fill="#CFAE58"/>
    <ellipse cx="-50" cy="0" rx="15" ry="12" fill="#0B0F14"/>
  </g>

  <!-- Additional decorative caviar clusters -->
  <g opacity="0.2">
    <circle cx="1050" cy="120" r="6" fill="#CFAE58"/>
    <circle cx="1065" cy="115" r="5" fill="#CFAE58"/>
    <circle cx="1058" cy="130" r="4" fill="#CFAE58"/>
    <circle cx="150" cy="500" r="5" fill="#4FD1C5"/>
    <circle cx="165" cy="508" r="4" fill="#4FD1C5"/>
    <circle cx="140" cy="512" r="5" fill="#4FD1C5"/>
  </g>
</svg>