<svg width="1200" height="630" xmlns="http://www.w3.org/2000/svg">
  <defs>
    <linearGradient id="bgGradient" x1="0%" y1="0%" x2="100%" y2="100%">
      <stop offset="0%" style="stop-color:#0B0F14;stop-opacity:1" />
      <stop offset="50%" style="stop-color:#0F1619;stop-opacity:1" />
      <stop offset="100%" style="stop-color:#0F1922;stop-opacity:1" />
    </linearGradient>
    <linearGradient id="goldGradient" x1="0%" y1="0%" x2="100%" y2="0%">
      <stop offset="0%" style="stop-color:#E5D596;stop-opacity:1" />
      <stop offset="50%" style="stop-color:#CFAE58;stop-opacity:1" />
      <stop offset="100%" style="stop-color:#B89842;stop-opacity:1" />
    </linearGradient>
    <radialGradient id="oceanGradient" cx="50%" cy="50%" r="50%">
      <stop offset="0%" style="stop-color:#4FD1C5;stop-opacity:0.3" />
      <stop offset="100%" style="stop-color:#1E90A0;stop-opacity:0.05" />
    </radialGradient>
    <filter id="glow">
      <feGaussianBlur stdDeviation="5" result="coloredBlur"/>
      <feMerge>
        <feMergeNode in="coloredBlur"/>
        <feMergeNode in="SourceGraphic"/>
      </feMerge>
    </filter>
    <filter id="softGlow">
      <feGaussianBlur stdDeviation="8" result="coloredBlur"/>
      <feMerge>
        <feMergeNode in="coloredBlur"/>
        <feMergeNode in="SourceGraphic"/>
      </feMerge>
    </filter>
    <filter id="shadow">
      <feDropShadow dx="0" dy="4" stdDeviation="8" flood-color="#000000" flood-opacity="0.5"/>
    </filter>
  </defs>

  <!-- Background -->
  <rect width="1200" height="630" fill="url(#bgGradient)"/>

  <!-- Decorative ocean gradients -->
  <ellipse cx="1000" cy="150" rx="300" ry="200" fill="url(#oceanGradient)" opacity="0.4"/>
  <ellipse cx="200" cy="530" rx="250" ry="180" fill="url(#oceanGradient)" opacity="0.3"/>

  <!-- Wave patterns -->
  <path d="M 0 400 Q 300 350 600 400 T 1200 400 L 1200 630 L 0 630 Z" fill="#1E90A0" opacity="0.08"/>
  <path d="M 0 450 Q 250 420 500 450 T 1000 450 T 1200 450 L 1200 630 L 0 630 Z" fill="#4FD1C5" opacity="0.05"/>

  <!-- Caviar roe particles -->
  <circle cx="13.21843947600918" cy="117.93475992711195" r="3.9764234186185607" fill="#CFAE58" opacity="0.21539001913017009"/>
  <circle cx="958.6913768684504" cy="554.6189873115138" r="5.7659816087607485" fill="#CFAE58" opacity="0.13668089239550854"/>
  <circle cx="490.39244447428194" cy="499.1682631877935" r="5.8674394298553745" fill="#CFAE58" opacity="0.11074067682677581"/>
  <circle cx="348.14710891848165" cy="94.66832531205733" r="2.244224733816948" fill="#CFAE58" opacity="0.16354920754480812"/>
  <circle cx="967.8085686897161" cy="209.37843293960785" r="4.317210225727124" fill="#CFAE58" opacity="0.16657733961309296"/>
  <circle cx="839.2013081819574" cy="344.7963826375888" r="4.124687539231642" fill="#CFAE58" opacity="0.2297517687941126"/>
  <circle cx="475.14528027142387" cy="349.15355949366625" r="4.983452004009642" fill="#CFAE58" opacity="0.12181653535259894"/>
  <circle cx="965.2478222502544" cy="497.0723595194186" r="3.4955169477165775" fill="#CFAE58" opacity="0.1298626537952663"/>
  <circle cx="1123.853804079968" cy="91.60578256377191" r="4.4855109861440825" fill="#CFAE58" opacity="0.16048944348650004"/>
  <circle cx="278.54000512700105" cy="149.76003141491682" r="5.5860475938600676" fill="#CFAE58" opacity="0.13709196267338977"/>
  <circle cx="301.6364484558465" cy="213.75715766313695" r="3.2382971528366653" fill="#CFAE58" opacity="0.1435806273473964"/>
  <circle cx="280.59371653237326" cy="390.7456206505531" r="5.576015118090354" fill="#CFAE58" opacity="0.19506776650530838"/>
  <circle cx="933.61637692089" cy="190.96389529671154" r="4.2152080674951" fill="#CFAE58" opacity="0.11334518501083081"/>
  <circle cx="118.81120336657709" cy="60.25354728829354" r="2.303423915582459" fill="#CFAE58" opacity="0.19128770648001703"/>
  <circle cx="1148.7896191160603" cy="46.70858210564373" r="4.082112972922891" fill="#CFAE58" opacity="0.1835115450368654"/>
  <circle cx="121.27562580464311" cy="552.0395806987544" r="3.9072516031843403" fill="#CFAE58" opacity="0.1776587507777509"/>
  <circle cx="975.7966779336928" cy="464.3930484241412" r="3.8421874520825514" fill="#CFAE58" opacity="0.2278463317582273"/>
  <circle cx="619.6940190508054" cy="197.69421521236606" r="4.149369891569984" fill="#CFAE58" opacity="0.14316147382731467"/>
  <circle cx="82.17270167316046" cy="108.16600264365651" r="5.81220712053317" fill="#CFAE58" opacity="0.16661522978101656"/>
  <circle cx="651.1333513843218" cy="596.8788843364172" r="2.231610042396337" fill="#CFAE58" opacity="0.1840509793137779"/>
  <circle cx="348.0662862606117" cy="529.8927897006186" r="4.755589092678669" fill="#CFAE58" opacity="0.19571394503542555"/>
  <circle cx="506.56979031821135" cy="534.2733830118705" r="4.458238676837146" fill="#CFAE58" opacity="0.1577015963058857"/>
  <circle cx="317.41071750734795" cy="245.48634559380187" r="5.172775707155609" fill="#CFAE58" opacity="0.16607113797563644"/>
  <circle cx="62.44307232185751" cy="9.375677227673627" r="3.9070746685679922" fill="#CFAE58" opacity="0.10057773840924764"/>
  <circle cx="10.64593384378636" cy="19.13828176663569" r="5.700317817403342" fill="#CFAE58" opacity="0.20985892380705037"/>
  <circle cx="443.4737257011528" cy="226.00060558813473" r="2.4723663841513117" fill="#CFAE58" opacity="0.20348436162703754"/>
  <circle cx="419.30093308944805" cy="100.33703272096898" r="2.8691207285257345" fill="#CFAE58" opacity="0.24316621276425338"/>
  <circle cx="37.938994841042685" cy="26.766748064123465" r="2.01876974807297" fill="#CFAE58" opacity="0.1383134298042612"/>
  <circle cx="972.4202955924713" cy="340.5623437107" r="4.9256339039241155" fill="#CFAE58" opacity="0.10732611849920813"/>
  <circle cx="239.18416764590216" cy="455.1394955332839" r="3.906129811038858" fill="#CFAE58" opacity="0.11122754491946178"/>

  <!-- Border with glow -->
  <rect x="40" y="40" width="1120" height="550" fill="none" stroke="url(#goldGradient)" stroke-width="3" rx="12" filter="url(#softGlow)"/>

  <!-- Icon circle with premium background -->
  <circle cx="150" cy="200" r="75" fill="#CFAE58" opacity="0.15" filter="url(#softGlow)"/>
  <circle cx="150" cy="200" r="70" fill="#CFAE58" opacity="0.25"/>
  <text x="150" y="235" font-size="90" text-anchor="middle" fill="#CFAE58" filter="url(#glow)">ℹ️</text>

  <!-- Premium logo (crown) with enhanced styling -->
  <g transform="translate(100, 70)">
    <path d="M 30 20 L 40 35 L 35 35 Z M 50 15 L 60 35 L 45 35 Z M 65 20 L 75 35 L 70 35 Z M 30 35 L 75 35 L 73 45 L 32 45 Z"
          fill="url(#goldGradient)" filter="url(#glow)" stroke="#B89842" stroke-width="0.5"/>
    <circle cx="40" cy="25" r="3" fill="#4FD1C5" filter="url(#glow)"/>
    <circle cx="52" cy="20" r="4" fill="#4FD1C5" filter="url(#glow)"/>
    <circle cx="65" cy="25" r="3" fill="#4FD1C5" filter="url(#glow)"/>
  </g>

  <!-- Title with shadow -->
  <text x="280" y="180" font-family="Georgia, serif" font-size="72" font-weight="bold"
        fill="url(#goldGradient)" filter="url(#shadow)">About Royal Keta</text>

  <!-- Subtitle with subtle glow -->
  <text x="280" y="230" font-family="Arial, sans-serif" font-size="36"
        fill="#D6DEE6" opacity="0.95" filter="url(#softGlow)">Our Mission, Team &amp; Values</text>

  <!-- Brand name with letter spacing -->
  <text x="280" y="300" font-family="Georgia, serif" font-size="32" font-weight="bold"
        fill="#CFAE58" letter-spacing="4" filter="url(#glow)">ROYAL KETA</text>

  <!-- Russian tagline -->
  <text x="280" y="340" font-family="Arial, sans-serif" font-size="22" font-style="italic"
        fill="#8B95A1" opacity="0.8">От икринки к королевской</text>

  <!-- Location -->
  <text x="280" y="380" font-family="Arial, sans-serif" font-size="20"
        fill="#8B95A1" opacity="0.7">Невельский район, Сахалин</text>

  <!-- Website with glow -->
  <text x="100" y="570" font-family="Arial, sans-serif" font-size="30" font-weight="bold"
        fill="#4FD1C5" filter="url(#glow)">royalketa.com</text>

  <!-- Enhanced decorative salmon silhouette -->
  <g transform="translate(950, 480)" opacity="0.2" filter="url(#softGlow)">
    <ellipse cx="0" cy="0" rx="90" ry="35" fill="#CFAE58"/>
    <path d="M 90 0 L 120 -18 L 130 0 L 120 18 Z" fill="#CFAE58"/>
    <path d="M -25 -35 L 0 -45 L 25 -35 Z" fill="#CFAE58"/>
    <ellipse cx="-50" cy="0" rx="15" ry="12" fill="#0B0F14"/>
  </g>

  <!-- Additional decorative caviar clusters -->
  <g opacity="0.2">
    <circle cx="1050" cy="120" r="6" fill="#CFAE58"/>
    <circle cx="1065" cy="115" r="5" fill="#CFAE58"/>
    <circle cx="1058" cy="130" r="4" fill="#CFAE58"/>
    <circle cx="150" cy="500" r="5" fill="#4FD1C5"/>
    <circle cx="165" cy="508" r="4" fill="#4FD1C5"/>
    <circle cx="140" cy="512" r="5" fill="#4FD1C5"/>
  </g>
</svg>