<svg width="1200" height="630" xmlns="http://www.w3.org/2000/svg">
  <defs>
    <linearGradient id="bgGradient" x1="0%" y1="0%" x2="100%" y2="100%">
      <stop offset="0%" style="stop-color:#0B0F14;stop-opacity:1" />
      <stop offset="50%" style="stop-color:#0F1619;stop-opacity:1" />
      <stop offset="100%" style="stop-color:#0F1922;stop-opacity:1" />
    </linearGradient>
    <linearGradient id="goldGradient" x1="0%" y1="0%" x2="100%" y2="0%">
      <stop offset="0%" style="stop-color:#E5D596;stop-opacity:1" />
      <stop offset="50%" style="stop-color:#CFAE58;stop-opacity:1" />
      <stop offset="100%" style="stop-color:#B89842;stop-opacity:1" />
    </linearGradient>
    <radialGradient id="oceanGradient" cx="50%" cy="50%" r="50%">
      <stop offset="0%" style="stop-color:#4FD1C5;stop-opacity:0.3" />
      <stop offset="100%" style="stop-color:#1E90A0;stop-opacity:0.05" />
    </radialGradient>
    <filter id="glow">
      <feGaussianBlur stdDeviation="5" result="coloredBlur"/>
      <feMerge>
        <feMergeNode in="coloredBlur"/>
        <feMergeNode in="SourceGraphic"/>
      </feMerge>
    </filter>
    <filter id="softGlow">
      <feGaussianBlur stdDeviation="8" result="coloredBlur"/>
      <feMerge>
        <feMergeNode in="coloredBlur"/>
        <feMergeNode in="SourceGraphic"/>
      </feMerge>
    </filter>
    <filter id="shadow">
      <feDropShadow dx="0" dy="4" stdDeviation="8" flood-color="#000000" flood-opacity="0.5"/>
    </filter>
  </defs>

  <!-- Background -->
  <rect width="1200" height="630" fill="url(#bgGradient)"/>

  <!-- Decorative ocean gradients -->
  <ellipse cx="1000" cy="150" rx="300" ry="200" fill="url(#oceanGradient)" opacity="0.4"/>
  <ellipse cx="200" cy="530" rx="250" ry="180" fill="url(#oceanGradient)" opacity="0.3"/>

  <!-- Wave patterns -->
  <path d="M 0 400 Q 300 350 600 400 T 1200 400 L 1200 630 L 0 630 Z" fill="#1E90A0" opacity="0.08"/>
  <path d="M 0 450 Q 250 420 500 450 T 1000 450 T 1200 450 L 1200 630 L 0 630 Z" fill="#4FD1C5" opacity="0.05"/>

  <!-- Caviar roe particles -->
  <circle cx="71.6693476733957" cy="314.3997678673051" r="5.073049404014304" fill="#CFAE58" opacity="0.13363283588862673"/>
  <circle cx="767.4175313629764" cy="292.03993105404555" r="3.095656191959131" fill="#CFAE58" opacity="0.17797043400209972"/>
  <circle cx="73.09696185662719" cy="133.1675808539214" r="3.91906750824099" fill="#CFAE58" opacity="0.1738260899573908"/>
  <circle cx="557.2918574177909" cy="613.2807464521272" r="3.0911706872479745" fill="#CFAE58" opacity="0.17684012500762425"/>
  <circle cx="886.0487068172561" cy="474.2087564615311" r="2.8377858552386703" fill="#CFAE58" opacity="0.14599260208093462"/>
  <circle cx="771.9118412394129" cy="68.20201564411019" r="4.267582025803663" fill="#CFAE58" opacity="0.12299716493547543"/>
  <circle cx="318.2201329549961" cy="32.087072187751524" r="4.782209867417341" fill="#CFAE58" opacity="0.10503625364173946"/>
  <circle cx="510.46941342464527" cy="544.2182679347636" r="2.3948181430314817" fill="#CFAE58" opacity="0.12217580464582678"/>
  <circle cx="798.767078843724" cy="140.95669272922098" r="3.1178063539131373" fill="#CFAE58" opacity="0.2342724849397703"/>
  <circle cx="329.2372073707517" cy="141.6472459399851" r="2.5827767159670887" fill="#CFAE58" opacity="0.17192725059676855"/>
  <circle cx="7.458310258969414" cy="498.10279918427847" r="5.909590813846888" fill="#CFAE58" opacity="0.23704009980582225"/>
  <circle cx="1068.2451636720873" cy="552.6384767650133" r="3.5972892740828537" fill="#CFAE58" opacity="0.2273457832634203"/>
  <circle cx="717.3424458537089" cy="461.58064003944315" r="4.421589241153403" fill="#CFAE58" opacity="0.23543665602150227"/>
  <circle cx="1194.7076099008868" cy="39.18124369322943" r="3.5066669310357543" fill="#CFAE58" opacity="0.16676458333145758"/>
  <circle cx="5.671987306583803" cy="276.90218217642456" r="4.600026532716279" fill="#CFAE58" opacity="0.19248360920742127"/>
  <circle cx="401.66422314999943" cy="472.6239956268103" r="4.083773167571906" fill="#CFAE58" opacity="0.17971011642485357"/>
  <circle cx="474.18228266271177" cy="519.1659065614592" r="4.758872522622183" fill="#CFAE58" opacity="0.17828157376460746"/>
  <circle cx="269.0903733115205" cy="351.96619843535785" r="2.6372898196241383" fill="#CFAE58" opacity="0.14913808620057697"/>
  <circle cx="212.34345492871304" cy="197.97225181774618" r="4.429028940008029" fill="#CFAE58" opacity="0.2482568718961698"/>
  <circle cx="790.2135097815279" cy="115.15881342303084" r="2.634529916126697" fill="#CFAE58" opacity="0.15326100639247875"/>
  <circle cx="831.1705966515524" cy="46.77642079867989" r="3.813992899443867" fill="#CFAE58" opacity="0.17836091313378521"/>
  <circle cx="845.7866581869445" cy="84.88665323518599" r="5.570893501111052" fill="#CFAE58" opacity="0.12355560539984975"/>
  <circle cx="739.9309613051952" cy="462.62200768726416" r="4.961051277173473" fill="#CFAE58" opacity="0.10952511585097975"/>
  <circle cx="622.284959817793" cy="176.133657626649" r="4.4763161487119" fill="#CFAE58" opacity="0.11135028228494087"/>
  <circle cx="41.592195993450964" cy="324.6251732198819" r="2.1722443107316423" fill="#CFAE58" opacity="0.20471312215236231"/>
  <circle cx="980.1629174496666" cy="573.1710699470626" r="2.204956153289101" fill="#CFAE58" opacity="0.15550952669863805"/>
  <circle cx="595.963121489011" cy="370.8940816820472" r="3.9673154735784504" fill="#CFAE58" opacity="0.10863456543649716"/>
  <circle cx="139.76575351517434" cy="220.00721838676967" r="3.5482149862405743" fill="#CFAE58" opacity="0.2446118318995222"/>
  <circle cx="58.958329984013204" cy="307.18937171972226" r="5.044707630970702" fill="#CFAE58" opacity="0.22604496616916045"/>
  <circle cx="898.4869001945088" cy="440.43014611846394" r="4.141753443115175" fill="#CFAE58" opacity="0.15189712146304152"/>

  <!-- Border with glow -->
  <rect x="40" y="40" width="1120" height="550" fill="none" stroke="url(#goldGradient)" stroke-width="3" rx="12" filter="url(#softGlow)"/>

  <!-- Icon circle with premium background -->
  <circle cx="150" cy="200" r="75" fill="#CFAE58" opacity="0.15" filter="url(#softGlow)"/>
  <circle cx="150" cy="200" r="70" fill="#CFAE58" opacity="0.25"/>
  <text x="150" y="235" font-size="90" text-anchor="middle" fill="#CFAE58" filter="url(#glow)">ℹ️</text>

  <!-- Premium logo (crown) with enhanced styling -->
  <g transform="translate(100, 70)">
    <path d="M 30 20 L 40 35 L 35 35 Z M 50 15 L 60 35 L 45 35 Z M 65 20 L 75 35 L 70 35 Z M 30 35 L 75 35 L 73 45 L 32 45 Z"
          fill="url(#goldGradient)" filter="url(#glow)" stroke="#B89842" stroke-width="0.5"/>
    <circle cx="40" cy="25" r="3" fill="#4FD1C5" filter="url(#glow)"/>
    <circle cx="52" cy="20" r="4" fill="#4FD1C5" filter="url(#glow)"/>
    <circle cx="65" cy="25" r="3" fill="#4FD1C5" filter="url(#glow)"/>
  </g>

  <!-- Title with shadow -->
  <text x="280" y="180" font-family="Georgia, serif" font-size="72" font-weight="bold"
        fill="url(#goldGradient)" filter="url(#shadow)">About Royal Keta</text>

  <!-- Subtitle with subtle glow -->
  <text x="280" y="230" font-family="Arial, sans-serif" font-size="36"
        fill="#D6DEE6" opacity="0.95" filter="url(#softGlow)">Our Mission, Team &amp; Values</text>

  <!-- Brand name with letter spacing -->
  <text x="280" y="300" font-family="Georgia, serif" font-size="32" font-weight="bold"
        fill="#CFAE58" letter-spacing="4" filter="url(#glow)">ROYAL KETA</text>

  <!-- Russian tagline -->
  <text x="280" y="340" font-family="Arial, sans-serif" font-size="22" font-style="italic"
        fill="#8B95A1" opacity="0.8">От икринки к королевской</text>

  <!-- Location -->
  <text x="280" y="380" font-family="Arial, sans-serif" font-size="20"
        fill="#8B95A1" opacity="0.7">Невельский район, Сахалин</text>

  <!-- Website with glow -->
  <text x="100" y="570" font-family="Arial, sans-serif" font-size="30" font-weight="bold"
        fill="#4FD1C5" filter="url(#glow)">royalketa.com</text>

  <!-- Enhanced decorative salmon silhouette -->
  <g transform="translate(950, 480)" opacity="0.2" filter="url(#softGlow)">
    <ellipse cx="0" cy="0" rx="90" ry="35" fill="#CFAE58"/>
    <path d="M 90 0 L 120 -18 L 130 0 L 120 18 Z" fill="#CFAE58"/>
    <path d="M -25 -35 L 0 -45 L 25 -35 Z" fill="#CFAE58"/>
    <ellipse cx="-50" cy="0" rx="15" ry="12" fill="#0B0F14"/>
  </g>

  <!-- Additional decorative caviar clusters -->
  <g opacity="0.2">
    <circle cx="1050" cy="120" r="6" fill="#CFAE58"/>
    <circle cx="1065" cy="115" r="5" fill="#CFAE58"/>
    <circle cx="1058" cy="130" r="4" fill="#CFAE58"/>
    <circle cx="150" cy="500" r="5" fill="#4FD1C5"/>
    <circle cx="165" cy="508" r="4" fill="#4FD1C5"/>
    <circle cx="140" cy="512" r="5" fill="#4FD1C5"/>
  </g>
</svg>