<svg width="1200" height="630" xmlns="http://www.w3.org/2000/svg">
  <defs>
    <linearGradient id="bgGradient" x1="0%" y1="0%" x2="100%" y2="100%">
      <stop offset="0%" style="stop-color:#0B0F14;stop-opacity:1" />
      <stop offset="50%" style="stop-color:#0F1619;stop-opacity:1" />
      <stop offset="100%" style="stop-color:#0F1922;stop-opacity:1" />
    </linearGradient>
    <linearGradient id="goldGradient" x1="0%" y1="0%" x2="100%" y2="0%">
      <stop offset="0%" style="stop-color:#E5D596;stop-opacity:1" />
      <stop offset="50%" style="stop-color:#CFAE58;stop-opacity:1" />
      <stop offset="100%" style="stop-color:#B89842;stop-opacity:1" />
    </linearGradient>
    <radialGradient id="oceanGradient" cx="50%" cy="50%" r="50%">
      <stop offset="0%" style="stop-color:#4FD1C5;stop-opacity:0.3" />
      <stop offset="100%" style="stop-color:#1E90A0;stop-opacity:0.05" />
    </radialGradient>
    <filter id="glow">
      <feGaussianBlur stdDeviation="5" result="coloredBlur"/>
      <feMerge>
        <feMergeNode in="coloredBlur"/>
        <feMergeNode in="SourceGraphic"/>
      </feMerge>
    </filter>
    <filter id="softGlow">
      <feGaussianBlur stdDeviation="8" result="coloredBlur"/>
      <feMerge>
        <feMergeNode in="coloredBlur"/>
        <feMergeNode in="SourceGraphic"/>
      </feMerge>
    </filter>
    <filter id="shadow">
      <feDropShadow dx="0" dy="4" stdDeviation="8" flood-color="#000000" flood-opacity="0.5"/>
    </filter>
  </defs>

  <!-- Background -->
  <rect width="1200" height="630" fill="url(#bgGradient)"/>

  <!-- Decorative ocean gradients -->
  <ellipse cx="1000" cy="150" rx="300" ry="200" fill="url(#oceanGradient)" opacity="0.4"/>
  <ellipse cx="200" cy="530" rx="250" ry="180" fill="url(#oceanGradient)" opacity="0.3"/>

  <!-- Wave patterns -->
  <path d="M 0 400 Q 300 350 600 400 T 1200 400 L 1200 630 L 0 630 Z" fill="#1E90A0" opacity="0.08"/>
  <path d="M 0 450 Q 250 420 500 450 T 1000 450 T 1200 450 L 1200 630 L 0 630 Z" fill="#4FD1C5" opacity="0.05"/>

  <!-- Caviar roe particles -->
  <circle cx="873.8175492665637" cy="164.37934718947508" r="3.82946708370741" fill="#CFAE58" opacity="0.1190558628662693"/>
  <circle cx="731.518905770324" cy="91.37729503702509" r="5.060364952212489" fill="#CFAE58" opacity="0.24615848880859661"/>
  <circle cx="497.7815601676838" cy="240.36257360121604" r="3.6271388004043477" fill="#CFAE58" opacity="0.1808056503797008"/>
  <circle cx="311.2730940840173" cy="547.8040327904848" r="5.230880890454031" fill="#CFAE58" opacity="0.10414920015925382"/>
  <circle cx="954.0369043774909" cy="394.94244425770853" r="5.238857576059141" fill="#CFAE58" opacity="0.15247736955506772"/>
  <circle cx="758.2620928188494" cy="152.74010278602336" r="3.094798016845905" fill="#CFAE58" opacity="0.10264486348085117"/>
  <circle cx="300.03090048675176" cy="550.2089836138609" r="5.451252586114387" fill="#CFAE58" opacity="0.10792891487803771"/>
  <circle cx="357.72008144686873" cy="440.5553481183213" r="5.833214778508684" fill="#CFAE58" opacity="0.12551670245771498"/>
  <circle cx="316.47443027944087" cy="367.671406701169" r="2.5804095040190997" fill="#CFAE58" opacity="0.23597216030827095"/>
  <circle cx="5.426473175876723" cy="368.8968058845903" r="5.2358977121057695" fill="#CFAE58" opacity="0.21333780779253947"/>
  <circle cx="437.0346057979886" cy="256.4216031394082" r="3.1052067050631873" fill="#CFAE58" opacity="0.20027702192300081"/>
  <circle cx="241.25645697268413" cy="120.25050696808152" r="2.5730400812352476" fill="#CFAE58" opacity="0.10360533723175859"/>
  <circle cx="541.0645465747183" cy="357.010691397673" r="2.6985868491078664" fill="#CFAE58" opacity="0.11141517191623629"/>
  <circle cx="99.858879957055" cy="337.7493693823411" r="2.609867921997594" fill="#CFAE58" opacity="0.24751170281982676"/>
  <circle cx="719.3434628129156" cy="488.7984268663945" r="2.43729842470431" fill="#CFAE58" opacity="0.23694186579673346"/>
  <circle cx="149.8227494222146" cy="370.93468650062687" r="3.4762629703009846" fill="#CFAE58" opacity="0.11061739662230465"/>
  <circle cx="421.63826241504694" cy="477.10183144838174" r="5.1696535702099515" fill="#CFAE58" opacity="0.24975486317902654"/>
  <circle cx="266.3671092748909" cy="88.91690488039305" r="4.1336076641429855" fill="#CFAE58" opacity="0.1491798936807172"/>
  <circle cx="876.9650998341464" cy="169.14571927972347" r="5.521935520297699" fill="#CFAE58" opacity="0.17128967990611205"/>
  <circle cx="109.13737687576095" cy="109.89423192595571" r="4.365049683863311" fill="#CFAE58" opacity="0.199518503025447"/>
  <circle cx="841.2632350948711" cy="147.63806959831444" r="2.9590576699073514" fill="#CFAE58" opacity="0.145631086139386"/>
  <circle cx="686.3805608388225" cy="228.99534954483332" r="2.9266948479799604" fill="#CFAE58" opacity="0.126283132280016"/>
  <circle cx="431.92581591717516" cy="80.370571340494" r="3.0390545110248013" fill="#CFAE58" opacity="0.247840421543983"/>
  <circle cx="856.0536909965248" cy="578.1574635582201" r="5.2571747526917045" fill="#CFAE58" opacity="0.2396822184087432"/>
  <circle cx="833.71017861545" cy="229.20912699968005" r="4.5528003267918935" fill="#CFAE58" opacity="0.1543048376398099"/>
  <circle cx="515.924630614771" cy="483.1914219384798" r="2.320787785224997" fill="#CFAE58" opacity="0.15170650842230476"/>
  <circle cx="684.7660832144322" cy="142.18289855605076" r="2.9909513382595083" fill="#CFAE58" opacity="0.20731220889369012"/>
  <circle cx="236.216029244183" cy="586.279337942147" r="3.786273803659097" fill="#CFAE58" opacity="0.20019553094732506"/>
  <circle cx="257.03715357728134" cy="178.24154209514583" r="4.992404820831857" fill="#CFAE58" opacity="0.23836016253085407"/>
  <circle cx="758.2327289745227" cy="279.33902962142844" r="5.842443059498518" fill="#CFAE58" opacity="0.23381963447015897"/>

  <!-- Border with glow -->
  <rect x="40" y="40" width="1120" height="550" fill="none" stroke="url(#goldGradient)" stroke-width="3" rx="12" filter="url(#softGlow)"/>

  <!-- Icon circle with premium background -->
  <circle cx="150" cy="200" r="75" fill="#CFAE58" opacity="0.15" filter="url(#softGlow)"/>
  <circle cx="150" cy="200" r="70" fill="#CFAE58" opacity="0.25"/>
  <text x="150" y="235" font-size="90" text-anchor="middle" fill="#CFAE58" filter="url(#glow)">ℹ️</text>

  <!-- Premium logo (crown) with enhanced styling -->
  <g transform="translate(100, 70)">
    <path d="M 30 20 L 40 35 L 35 35 Z M 50 15 L 60 35 L 45 35 Z M 65 20 L 75 35 L 70 35 Z M 30 35 L 75 35 L 73 45 L 32 45 Z"
          fill="url(#goldGradient)" filter="url(#glow)" stroke="#B89842" stroke-width="0.5"/>
    <circle cx="40" cy="25" r="3" fill="#4FD1C5" filter="url(#glow)"/>
    <circle cx="52" cy="20" r="4" fill="#4FD1C5" filter="url(#glow)"/>
    <circle cx="65" cy="25" r="3" fill="#4FD1C5" filter="url(#glow)"/>
  </g>

  <!-- Title with shadow -->
  <text x="280" y="180" font-family="Georgia, serif" font-size="72" font-weight="bold"
        fill="url(#goldGradient)" filter="url(#shadow)">About Royal Keta</text>

  <!-- Subtitle with subtle glow -->
  <text x="280" y="230" font-family="Arial, sans-serif" font-size="36"
        fill="#D6DEE6" opacity="0.95" filter="url(#softGlow)">Our Mission, Team &amp; Values</text>

  <!-- Brand name with letter spacing -->
  <text x="280" y="300" font-family="Georgia, serif" font-size="32" font-weight="bold"
        fill="#CFAE58" letter-spacing="4" filter="url(#glow)">ROYAL KETA</text>

  <!-- Russian tagline -->
  <text x="280" y="340" font-family="Arial, sans-serif" font-size="22" font-style="italic"
        fill="#8B95A1" opacity="0.8">От икринки к королевской</text>

  <!-- Location -->
  <text x="280" y="380" font-family="Arial, sans-serif" font-size="20"
        fill="#8B95A1" opacity="0.7">Невельский район, Сахалин</text>

  <!-- Website with glow -->
  <text x="100" y="570" font-family="Arial, sans-serif" font-size="30" font-weight="bold"
        fill="#4FD1C5" filter="url(#glow)">royalketa.com</text>

  <!-- Enhanced decorative salmon silhouette -->
  <g transform="translate(950, 480)" opacity="0.2" filter="url(#softGlow)">
    <ellipse cx="0" cy="0" rx="90" ry="35" fill="#CFAE58"/>
    <path d="M 90 0 L 120 -18 L 130 0 L 120 18 Z" fill="#CFAE58"/>
    <path d="M -25 -35 L 0 -45 L 25 -35 Z" fill="#CFAE58"/>
    <ellipse cx="-50" cy="0" rx="15" ry="12" fill="#0B0F14"/>
  </g>

  <!-- Additional decorative caviar clusters -->
  <g opacity="0.2">
    <circle cx="1050" cy="120" r="6" fill="#CFAE58"/>
    <circle cx="1065" cy="115" r="5" fill="#CFAE58"/>
    <circle cx="1058" cy="130" r="4" fill="#CFAE58"/>
    <circle cx="150" cy="500" r="5" fill="#4FD1C5"/>
    <circle cx="165" cy="508" r="4" fill="#4FD1C5"/>
    <circle cx="140" cy="512" r="5" fill="#4FD1C5"/>
  </g>
</svg>