<svg width="1200" height="630" xmlns="http://www.w3.org/2000/svg">
  <defs>
    <linearGradient id="bgGradient" x1="0%" y1="0%" x2="100%" y2="100%">
      <stop offset="0%" style="stop-color:#0B0F14;stop-opacity:1" />
      <stop offset="50%" style="stop-color:#0F1619;stop-opacity:1" />
      <stop offset="100%" style="stop-color:#0F1922;stop-opacity:1" />
    </linearGradient>
    <linearGradient id="goldGradient" x1="0%" y1="0%" x2="100%" y2="0%">
      <stop offset="0%" style="stop-color:#E5D596;stop-opacity:1" />
      <stop offset="50%" style="stop-color:#CFAE58;stop-opacity:1" />
      <stop offset="100%" style="stop-color:#B89842;stop-opacity:1" />
    </linearGradient>
    <radialGradient id="oceanGradient" cx="50%" cy="50%" r="50%">
      <stop offset="0%" style="stop-color:#4FD1C5;stop-opacity:0.3" />
      <stop offset="100%" style="stop-color:#1E90A0;stop-opacity:0.05" />
    </radialGradient>
    <filter id="glow">
      <feGaussianBlur stdDeviation="5" result="coloredBlur"/>
      <feMerge>
        <feMergeNode in="coloredBlur"/>
        <feMergeNode in="SourceGraphic"/>
      </feMerge>
    </filter>
    <filter id="softGlow">
      <feGaussianBlur stdDeviation="8" result="coloredBlur"/>
      <feMerge>
        <feMergeNode in="coloredBlur"/>
        <feMergeNode in="SourceGraphic"/>
      </feMerge>
    </filter>
    <filter id="shadow">
      <feDropShadow dx="0" dy="4" stdDeviation="8" flood-color="#000000" flood-opacity="0.5"/>
    </filter>
  </defs>

  <!-- Background -->
  <rect width="1200" height="630" fill="url(#bgGradient)"/>

  <!-- Decorative ocean gradients -->
  <ellipse cx="1000" cy="150" rx="300" ry="200" fill="url(#oceanGradient)" opacity="0.4"/>
  <ellipse cx="200" cy="530" rx="250" ry="180" fill="url(#oceanGradient)" opacity="0.3"/>

  <!-- Wave patterns -->
  <path d="M 0 400 Q 300 350 600 400 T 1200 400 L 1200 630 L 0 630 Z" fill="#1E90A0" opacity="0.08"/>
  <path d="M 0 450 Q 250 420 500 450 T 1000 450 T 1200 450 L 1200 630 L 0 630 Z" fill="#4FD1C5" opacity="0.05"/>

  <!-- Caviar roe particles -->
  <circle cx="155.41540852846828" cy="611.6153269584461" r="5.364262131859305" fill="#CFAE58" opacity="0.2480379431118996"/>
  <circle cx="1197.642206701856" cy="244.7704086230822" r="4.748452283322168" fill="#CFAE58" opacity="0.14288009147223069"/>
  <circle cx="356.97450652923476" cy="43.14421778434998" r="2.790909497430375" fill="#CFAE58" opacity="0.1576602743119266"/>
  <circle cx="460.56163760632967" cy="102.73852018777015" r="2.0560828604019807" fill="#CFAE58" opacity="0.10252367582195299"/>
  <circle cx="897.1121376201143" cy="448.08608128667163" r="5.2435273060394465" fill="#CFAE58" opacity="0.15117324321739598"/>
  <circle cx="456.78147917360246" cy="170.18871700898129" r="3.149267401256223" fill="#CFAE58" opacity="0.135057244600872"/>
  <circle cx="343.97939176582105" cy="572.15254317977" r="2.164513907573923" fill="#CFAE58" opacity="0.21981084671661355"/>
  <circle cx="484.87581697446274" cy="260.80888864196504" r="2.159334668370251" fill="#CFAE58" opacity="0.24906100540039872"/>
  <circle cx="256.1158792787236" cy="104.18556184645745" r="5.540359494069656" fill="#CFAE58" opacity="0.14330615111323372"/>
  <circle cx="1077.8289280293545" cy="519.384997205194" r="4.2684396054603555" fill="#CFAE58" opacity="0.2154704128763486"/>
  <circle cx="947.5201059760989" cy="101.93410329509165" r="5.479780789437786" fill="#CFAE58" opacity="0.2434473099459196"/>
  <circle cx="96.67743387329635" cy="338.6780679718602" r="2.905094453931305" fill="#CFAE58" opacity="0.12851387566361794"/>
  <circle cx="268.12866058225353" cy="554.4862071133317" r="2.947029540312043" fill="#CFAE58" opacity="0.19347759948107185"/>
  <circle cx="14.084476280001113" cy="369.19522714102106" r="5.198123622066113" fill="#CFAE58" opacity="0.12798891291723374"/>
  <circle cx="504.8540403219841" cy="119.96427862569453" r="4.065034328299583" fill="#CFAE58" opacity="0.21065281687583504"/>
  <circle cx="1045.6476553644295" cy="352.70345237827985" r="5.33775592942911" fill="#CFAE58" opacity="0.14527286455595423"/>
  <circle cx="341.63086128560536" cy="237.0032263781032" r="2.536119958153824" fill="#CFAE58" opacity="0.18967337946250962"/>
  <circle cx="895.3020604664416" cy="530.1412680271849" r="4.1633376551863766" fill="#CFAE58" opacity="0.1400112110178917"/>
  <circle cx="595.8817994970127" cy="99.50462786043411" r="3.5805979712802856" fill="#CFAE58" opacity="0.14946957406342717"/>
  <circle cx="159.28889256525807" cy="547.2130254234153" r="4.442836947624935" fill="#CFAE58" opacity="0.1981891434821948"/>
  <circle cx="105.87135106598069" cy="318.8174712737378" r="4.147470054046052" fill="#CFAE58" opacity="0.14848275815110692"/>
  <circle cx="981.1918317953149" cy="326.9210693510167" r="3.0954103834314664" fill="#CFAE58" opacity="0.22868725834790604"/>
  <circle cx="952.3118502891888" cy="71.25461348685796" r="2.401575949855406" fill="#CFAE58" opacity="0.10934091881233512"/>
  <circle cx="107.78818171707476" cy="364.164792534466" r="4.950157750019109" fill="#CFAE58" opacity="0.13304422660589627"/>
  <circle cx="295.3902816475543" cy="361.25512460718215" r="2.065176803415164" fill="#CFAE58" opacity="0.18849068893342574"/>
  <circle cx="162.4979057506451" cy="145.44041171050844" r="2.108553944631767" fill="#CFAE58" opacity="0.24763564659144457"/>
  <circle cx="209.67304506118003" cy="148.74935137206674" r="5.148106026826032" fill="#CFAE58" opacity="0.12229471488606206"/>
  <circle cx="1135.46177594043" cy="407.5003563931374" r="3.2320843217270028" fill="#CFAE58" opacity="0.17138070892220253"/>
  <circle cx="228.68171171671037" cy="443.88762036224745" r="2.321609765316813" fill="#CFAE58" opacity="0.21478381849719788"/>
  <circle cx="375.5867283695469" cy="289.4603308304852" r="5.688544649035906" fill="#CFAE58" opacity="0.15327100926482137"/>

  <!-- Border with glow -->
  <rect x="40" y="40" width="1120" height="550" fill="none" stroke="url(#goldGradient)" stroke-width="3" rx="12" filter="url(#softGlow)"/>

  <!-- Icon circle with premium background -->
  <circle cx="150" cy="200" r="75" fill="#CFAE58" opacity="0.15" filter="url(#softGlow)"/>
  <circle cx="150" cy="200" r="70" fill="#CFAE58" opacity="0.25"/>
  <text x="150" y="235" font-size="90" text-anchor="middle" fill="#CFAE58" filter="url(#glow)">ℹ️</text>

  <!-- Premium logo (crown) with enhanced styling -->
  <g transform="translate(100, 70)">
    <path d="M 30 20 L 40 35 L 35 35 Z M 50 15 L 60 35 L 45 35 Z M 65 20 L 75 35 L 70 35 Z M 30 35 L 75 35 L 73 45 L 32 45 Z"
          fill="url(#goldGradient)" filter="url(#glow)" stroke="#B89842" stroke-width="0.5"/>
    <circle cx="40" cy="25" r="3" fill="#4FD1C5" filter="url(#glow)"/>
    <circle cx="52" cy="20" r="4" fill="#4FD1C5" filter="url(#glow)"/>
    <circle cx="65" cy="25" r="3" fill="#4FD1C5" filter="url(#glow)"/>
  </g>

  <!-- Title with shadow -->
  <text x="280" y="180" font-family="Georgia, serif" font-size="72" font-weight="bold"
        fill="url(#goldGradient)" filter="url(#shadow)">About Royal Keta</text>

  <!-- Subtitle with subtle glow -->
  <text x="280" y="230" font-family="Arial, sans-serif" font-size="36"
        fill="#D6DEE6" opacity="0.95" filter="url(#softGlow)">Our Mission, Team &amp; Values</text>

  <!-- Brand name with letter spacing -->
  <text x="280" y="300" font-family="Georgia, serif" font-size="32" font-weight="bold"
        fill="#CFAE58" letter-spacing="4" filter="url(#glow)">ROYAL KETA</text>

  <!-- Russian tagline -->
  <text x="280" y="340" font-family="Arial, sans-serif" font-size="22" font-style="italic"
        fill="#8B95A1" opacity="0.8">От икринки к королевской</text>

  <!-- Location -->
  <text x="280" y="380" font-family="Arial, sans-serif" font-size="20"
        fill="#8B95A1" opacity="0.7">Невельский район, Сахалин</text>

  <!-- Website with glow -->
  <text x="100" y="570" font-family="Arial, sans-serif" font-size="30" font-weight="bold"
        fill="#4FD1C5" filter="url(#glow)">royalketa.com</text>

  <!-- Enhanced decorative salmon silhouette -->
  <g transform="translate(950, 480)" opacity="0.2" filter="url(#softGlow)">
    <ellipse cx="0" cy="0" rx="90" ry="35" fill="#CFAE58"/>
    <path d="M 90 0 L 120 -18 L 130 0 L 120 18 Z" fill="#CFAE58"/>
    <path d="M -25 -35 L 0 -45 L 25 -35 Z" fill="#CFAE58"/>
    <ellipse cx="-50" cy="0" rx="15" ry="12" fill="#0B0F14"/>
  </g>

  <!-- Additional decorative caviar clusters -->
  <g opacity="0.2">
    <circle cx="1050" cy="120" r="6" fill="#CFAE58"/>
    <circle cx="1065" cy="115" r="5" fill="#CFAE58"/>
    <circle cx="1058" cy="130" r="4" fill="#CFAE58"/>
    <circle cx="150" cy="500" r="5" fill="#4FD1C5"/>
    <circle cx="165" cy="508" r="4" fill="#4FD1C5"/>
    <circle cx="140" cy="512" r="5" fill="#4FD1C5"/>
  </g>
</svg>