<svg width="1200" height="630" xmlns="http://www.w3.org/2000/svg">
  <defs>
    <linearGradient id="bgGradient" x1="0%" y1="0%" x2="100%" y2="100%">
      <stop offset="0%" style="stop-color:#0B0F14;stop-opacity:1" />
      <stop offset="50%" style="stop-color:#0F1619;stop-opacity:1" />
      <stop offset="100%" style="stop-color:#0F1922;stop-opacity:1" />
    </linearGradient>
    <linearGradient id="goldGradient" x1="0%" y1="0%" x2="100%" y2="0%">
      <stop offset="0%" style="stop-color:#E5D596;stop-opacity:1" />
      <stop offset="50%" style="stop-color:#CFAE58;stop-opacity:1" />
      <stop offset="100%" style="stop-color:#B89842;stop-opacity:1" />
    </linearGradient>
    <radialGradient id="oceanGradient" cx="50%" cy="50%" r="50%">
      <stop offset="0%" style="stop-color:#4FD1C5;stop-opacity:0.3" />
      <stop offset="100%" style="stop-color:#1E90A0;stop-opacity:0.05" />
    </radialGradient>
    <filter id="glow">
      <feGaussianBlur stdDeviation="5" result="coloredBlur"/>
      <feMerge>
        <feMergeNode in="coloredBlur"/>
        <feMergeNode in="SourceGraphic"/>
      </feMerge>
    </filter>
    <filter id="softGlow">
      <feGaussianBlur stdDeviation="8" result="coloredBlur"/>
      <feMerge>
        <feMergeNode in="coloredBlur"/>
        <feMergeNode in="SourceGraphic"/>
      </feMerge>
    </filter>
    <filter id="shadow">
      <feDropShadow dx="0" dy="4" stdDeviation="8" flood-color="#000000" flood-opacity="0.5"/>
    </filter>
  </defs>

  <!-- Background -->
  <rect width="1200" height="630" fill="url(#bgGradient)"/>

  <!-- Decorative ocean gradients -->
  <ellipse cx="1000" cy="150" rx="300" ry="200" fill="url(#oceanGradient)" opacity="0.4"/>
  <ellipse cx="200" cy="530" rx="250" ry="180" fill="url(#oceanGradient)" opacity="0.3"/>

  <!-- Wave patterns -->
  <path d="M 0 400 Q 300 350 600 400 T 1200 400 L 1200 630 L 0 630 Z" fill="#1E90A0" opacity="0.08"/>
  <path d="M 0 450 Q 250 420 500 450 T 1000 450 T 1200 450 L 1200 630 L 0 630 Z" fill="#4FD1C5" opacity="0.05"/>

  <!-- Caviar roe particles -->
  <circle cx="1083.4895346722983" cy="401.2977448454938" r="2.4411527366476973" fill="#CFAE58" opacity="0.14935715052456913"/>
  <circle cx="571.4614670349965" cy="562.7597934966785" r="3.8659662794059027" fill="#CFAE58" opacity="0.1968959131228571"/>
  <circle cx="1189.8482590225583" cy="447.35334085160565" r="3.3926930748587414" fill="#CFAE58" opacity="0.14151408072947136"/>
  <circle cx="1149.6178031266877" cy="315.698687734548" r="5.544337078685493" fill="#CFAE58" opacity="0.19522222430327119"/>
  <circle cx="573.3630712346827" cy="202.02541340683976" r="5.210574100235059" fill="#CFAE58" opacity="0.2316894441718851"/>
  <circle cx="206.5067778135522" cy="396.7052900196298" r="3.7894473070874017" fill="#CFAE58" opacity="0.21324138177768942"/>
  <circle cx="864.1984527550117" cy="53.63559696947389" r="5.65402663554734" fill="#CFAE58" opacity="0.23437969265141054"/>
  <circle cx="630.7504948306855" cy="317.94443469356906" r="4.7940996688533986" fill="#CFAE58" opacity="0.13019421699523914"/>
  <circle cx="520.2036289282098" cy="105.78835418480384" r="5.517066309353096" fill="#CFAE58" opacity="0.21363098095320204"/>
  <circle cx="1049.0530009626889" cy="539.9120063169252" r="5.641209568139681" fill="#CFAE58" opacity="0.14054324268561696"/>
  <circle cx="987.4171964558436" cy="353.30465544858464" r="3.3847684964325278" fill="#CFAE58" opacity="0.2040287149180857"/>
  <circle cx="996.3521348182156" cy="118.79613516402979" r="5.580089572668348" fill="#CFAE58" opacity="0.1885672794369817"/>
  <circle cx="814.4864379104044" cy="91.15676028332292" r="2.7205756434041923" fill="#CFAE58" opacity="0.22273704147223505"/>
  <circle cx="444.5901820852177" cy="300.90608300421997" r="5.091051998188369" fill="#CFAE58" opacity="0.17157758663496134"/>
  <circle cx="133.60585764935072" cy="435.00103207461564" r="2.843018818121829" fill="#CFAE58" opacity="0.10897841824203786"/>
  <circle cx="828.7936507234153" cy="219.67238523393922" r="5.967967548407277" fill="#CFAE58" opacity="0.21740385458792347"/>
  <circle cx="386.2822158850137" cy="269.21558006472156" r="5.764711767409583" fill="#CFAE58" opacity="0.13858571995325225"/>
  <circle cx="35.083824958580266" cy="357.8675247519605" r="5.813118163708599" fill="#CFAE58" opacity="0.2285445048009975"/>
  <circle cx="883.1580983560892" cy="125.10469094896398" r="2.2370612650584536" fill="#CFAE58" opacity="0.12788607010813433"/>
  <circle cx="254.9892553325608" cy="495.59335509058286" r="5.9534735717048255" fill="#CFAE58" opacity="0.1004666544035051"/>
  <circle cx="548.5668642259802" cy="407.48619949830794" r="3.8442767385509002" fill="#CFAE58" opacity="0.21358595618103424"/>
  <circle cx="23.639588160271742" cy="393.6167960505405" r="4.612379666012968" fill="#CFAE58" opacity="0.2265645720599138"/>
  <circle cx="365.7992638016008" cy="352.4952831311795" r="4.204139374466093" fill="#CFAE58" opacity="0.211197800928831"/>
  <circle cx="278.5888260546332" cy="485.900368328131" r="5.014268038728341" fill="#CFAE58" opacity="0.13582732477727127"/>
  <circle cx="943.2714281423149" cy="2.750602118150539" r="4.464185397258951" fill="#CFAE58" opacity="0.16166800783806343"/>
  <circle cx="1173.554285701155" cy="266.6331300876952" r="3.4001058630544034" fill="#CFAE58" opacity="0.18356621978094467"/>
  <circle cx="128.74371508917318" cy="288.57743178485856" r="4.052606548020279" fill="#CFAE58" opacity="0.13327875389948998"/>
  <circle cx="582.4218435197058" cy="113.16177470098057" r="3.78960139173938" fill="#CFAE58" opacity="0.1143364836708291"/>
  <circle cx="1166.9267993738792" cy="180.59416986633056" r="3.8202012887765915" fill="#CFAE58" opacity="0.16866158751297056"/>
  <circle cx="854.8202583829329" cy="601.3784749249247" r="4.304528149772228" fill="#CFAE58" opacity="0.19198667974225736"/>

  <!-- Border with glow -->
  <rect x="40" y="40" width="1120" height="550" fill="none" stroke="url(#goldGradient)" stroke-width="3" rx="12" filter="url(#softGlow)"/>

  <!-- Icon circle with premium background -->
  <circle cx="150" cy="200" r="75" fill="#CFAE58" opacity="0.15" filter="url(#softGlow)"/>
  <circle cx="150" cy="200" r="70" fill="#CFAE58" opacity="0.25"/>
  <text x="150" y="235" font-size="90" text-anchor="middle" fill="#CFAE58" filter="url(#glow)">ℹ️</text>

  <!-- Premium logo (crown) with enhanced styling -->
  <g transform="translate(100, 70)">
    <path d="M 30 20 L 40 35 L 35 35 Z M 50 15 L 60 35 L 45 35 Z M 65 20 L 75 35 L 70 35 Z M 30 35 L 75 35 L 73 45 L 32 45 Z"
          fill="url(#goldGradient)" filter="url(#glow)" stroke="#B89842" stroke-width="0.5"/>
    <circle cx="40" cy="25" r="3" fill="#4FD1C5" filter="url(#glow)"/>
    <circle cx="52" cy="20" r="4" fill="#4FD1C5" filter="url(#glow)"/>
    <circle cx="65" cy="25" r="3" fill="#4FD1C5" filter="url(#glow)"/>
  </g>

  <!-- Title with shadow -->
  <text x="280" y="180" font-family="Georgia, serif" font-size="72" font-weight="bold"
        fill="url(#goldGradient)" filter="url(#shadow)">About Royal Keta</text>

  <!-- Subtitle with subtle glow -->
  <text x="280" y="230" font-family="Arial, sans-serif" font-size="36"
        fill="#D6DEE6" opacity="0.95" filter="url(#softGlow)">Our Mission, Team &amp; Values</text>

  <!-- Brand name with letter spacing -->
  <text x="280" y="300" font-family="Georgia, serif" font-size="32" font-weight="bold"
        fill="#CFAE58" letter-spacing="4" filter="url(#glow)">ROYAL KETA</text>

  <!-- Russian tagline -->
  <text x="280" y="340" font-family="Arial, sans-serif" font-size="22" font-style="italic"
        fill="#8B95A1" opacity="0.8">От икринки к королевской</text>

  <!-- Location -->
  <text x="280" y="380" font-family="Arial, sans-serif" font-size="20"
        fill="#8B95A1" opacity="0.7">Невельский район, Сахалин</text>

  <!-- Website with glow -->
  <text x="100" y="570" font-family="Arial, sans-serif" font-size="30" font-weight="bold"
        fill="#4FD1C5" filter="url(#glow)">royalketa.com</text>

  <!-- Enhanced decorative salmon silhouette -->
  <g transform="translate(950, 480)" opacity="0.2" filter="url(#softGlow)">
    <ellipse cx="0" cy="0" rx="90" ry="35" fill="#CFAE58"/>
    <path d="M 90 0 L 120 -18 L 130 0 L 120 18 Z" fill="#CFAE58"/>
    <path d="M -25 -35 L 0 -45 L 25 -35 Z" fill="#CFAE58"/>
    <ellipse cx="-50" cy="0" rx="15" ry="12" fill="#0B0F14"/>
  </g>

  <!-- Additional decorative caviar clusters -->
  <g opacity="0.2">
    <circle cx="1050" cy="120" r="6" fill="#CFAE58"/>
    <circle cx="1065" cy="115" r="5" fill="#CFAE58"/>
    <circle cx="1058" cy="130" r="4" fill="#CFAE58"/>
    <circle cx="150" cy="500" r="5" fill="#4FD1C5"/>
    <circle cx="165" cy="508" r="4" fill="#4FD1C5"/>
    <circle cx="140" cy="512" r="5" fill="#4FD1C5"/>
  </g>
</svg>