<svg width="1200" height="630" xmlns="http://www.w3.org/2000/svg">
  <defs>
    <linearGradient id="bgGradient" x1="0%" y1="0%" x2="100%" y2="100%">
      <stop offset="0%" style="stop-color:#0B0F14;stop-opacity:1" />
      <stop offset="50%" style="stop-color:#0F1619;stop-opacity:1" />
      <stop offset="100%" style="stop-color:#0F1922;stop-opacity:1" />
    </linearGradient>
    <linearGradient id="goldGradient" x1="0%" y1="0%" x2="100%" y2="0%">
      <stop offset="0%" style="stop-color:#E5D596;stop-opacity:1" />
      <stop offset="50%" style="stop-color:#CFAE58;stop-opacity:1" />
      <stop offset="100%" style="stop-color:#B89842;stop-opacity:1" />
    </linearGradient>
    <radialGradient id="oceanGradient" cx="50%" cy="50%" r="50%">
      <stop offset="0%" style="stop-color:#4FD1C5;stop-opacity:0.3" />
      <stop offset="100%" style="stop-color:#1E90A0;stop-opacity:0.05" />
    </radialGradient>
    <filter id="glow">
      <feGaussianBlur stdDeviation="5" result="coloredBlur"/>
      <feMerge>
        <feMergeNode in="coloredBlur"/>
        <feMergeNode in="SourceGraphic"/>
      </feMerge>
    </filter>
    <filter id="softGlow">
      <feGaussianBlur stdDeviation="8" result="coloredBlur"/>
      <feMerge>
        <feMergeNode in="coloredBlur"/>
        <feMergeNode in="SourceGraphic"/>
      </feMerge>
    </filter>
    <filter id="shadow">
      <feDropShadow dx="0" dy="4" stdDeviation="8" flood-color="#000000" flood-opacity="0.5"/>
    </filter>
  </defs>

  <!-- Background -->
  <rect width="1200" height="630" fill="url(#bgGradient)"/>

  <!-- Decorative ocean gradients -->
  <ellipse cx="1000" cy="150" rx="300" ry="200" fill="url(#oceanGradient)" opacity="0.4"/>
  <ellipse cx="200" cy="530" rx="250" ry="180" fill="url(#oceanGradient)" opacity="0.3"/>

  <!-- Wave patterns -->
  <path d="M 0 400 Q 300 350 600 400 T 1200 400 L 1200 630 L 0 630 Z" fill="#1E90A0" opacity="0.08"/>
  <path d="M 0 450 Q 250 420 500 450 T 1000 450 T 1200 450 L 1200 630 L 0 630 Z" fill="#4FD1C5" opacity="0.05"/>

  <!-- Caviar roe particles -->
  <circle cx="316.99620803969293" cy="356.3345940053297" r="5.334827911154983" fill="#CFAE58" opacity="0.20815986375289547"/>
  <circle cx="254.08907298371074" cy="581.6040949277517" r="3.7525342298383224" fill="#CFAE58" opacity="0.10461342825836423"/>
  <circle cx="1168.8383899662697" cy="45.02152714337267" r="3.2250450355213047" fill="#CFAE58" opacity="0.21175591740208188"/>
  <circle cx="698.4791848109523" cy="252.79105538038647" r="4.721787150100146" fill="#CFAE58" opacity="0.1983927685345548"/>
  <circle cx="724.211150055456" cy="232.45972822050473" r="5.078503133819666" fill="#CFAE58" opacity="0.1888190636108697"/>
  <circle cx="354.222693114496" cy="514.2589619006966" r="4.179574042739646" fill="#CFAE58" opacity="0.23072678180685188"/>
  <circle cx="690.1612442075756" cy="102.4757563849887" r="5.569226918672903" fill="#CFAE58" opacity="0.2195152465859635"/>
  <circle cx="880.1039570963414" cy="493.99923611674154" r="3.2234922595131836" fill="#CFAE58" opacity="0.1670111111834894"/>
  <circle cx="622.374161054571" cy="542.6250154468858" r="2.222159546893348" fill="#CFAE58" opacity="0.12489064877398537"/>
  <circle cx="501.8673863441214" cy="33.05039490150909" r="4.949232032047534" fill="#CFAE58" opacity="0.15871119203144324"/>
  <circle cx="889.8674576434987" cy="607.6325793011754" r="2.8783781286976424" fill="#CFAE58" opacity="0.1876366083027315"/>
  <circle cx="261.2666991190471" cy="601.9172648718119" r="5.128296395970441" fill="#CFAE58" opacity="0.1537939799551851"/>
  <circle cx="557.968410628885" cy="558.9916350362548" r="4.427635221654622" fill="#CFAE58" opacity="0.2095426635724537"/>
  <circle cx="468.80725939714614" cy="614.9197097345342" r="4.426367771969754" fill="#CFAE58" opacity="0.24290358248111166"/>
  <circle cx="555.2551918862616" cy="377.17457901787924" r="4.072743139348387" fill="#CFAE58" opacity="0.22391653312067805"/>
  <circle cx="269.7930952466801" cy="256.111624497216" r="2.302026873047496" fill="#CFAE58" opacity="0.14281074160262958"/>
  <circle cx="894.3307246395997" cy="49.84050990613343" r="5.113772596717057" fill="#CFAE58" opacity="0.16801578973725728"/>
  <circle cx="708.4041799342947" cy="207.7115000674992" r="2.477667268055858" fill="#CFAE58" opacity="0.17132376790741877"/>
  <circle cx="809.2724983906443" cy="626.9680759786032" r="2.1284391178777033" fill="#CFAE58" opacity="0.2336986972124731"/>
  <circle cx="768.67208178946" cy="564.761396684995" r="3.8983937501421577" fill="#CFAE58" opacity="0.14659050392252465"/>
  <circle cx="1044.4822438011063" cy="326.58820133187487" r="2.0515729657711876" fill="#CFAE58" opacity="0.13668918116430678"/>
  <circle cx="539.8337328703495" cy="146.25736266209873" r="3.514351443732324" fill="#CFAE58" opacity="0.2337330058025054"/>
  <circle cx="1012.5448268847812" cy="627.4252652369984" r="3.026292039725737" fill="#CFAE58" opacity="0.12132958066005815"/>
  <circle cx="461.74021174263453" cy="421.9510405851685" r="3.486400408364493" fill="#CFAE58" opacity="0.22612701899491994"/>
  <circle cx="518.4074738800742" cy="85.3626135131911" r="4.66031737342249" fill="#CFAE58" opacity="0.18609588923941717"/>
  <circle cx="718.3903645305303" cy="409.6111116280433" r="2.2278290719594844" fill="#CFAE58" opacity="0.1361076757414065"/>
  <circle cx="116.38457842487267" cy="7.293528055565051" r="3.4726077394855537" fill="#CFAE58" opacity="0.21555588724983696"/>
  <circle cx="566.01761194817" cy="48.62932666780642" r="4.41983697164764" fill="#CFAE58" opacity="0.10890741093456288"/>
  <circle cx="488.51709245995954" cy="586.8595836571305" r="5.0276256940204425" fill="#CFAE58" opacity="0.10148616152880424"/>
  <circle cx="861.210745361077" cy="485.7564862285671" r="5.506271158782125" fill="#CFAE58" opacity="0.21346398400797215"/>

  <!-- Border with glow -->
  <rect x="40" y="40" width="1120" height="550" fill="none" stroke="url(#goldGradient)" stroke-width="3" rx="12" filter="url(#softGlow)"/>

  <!-- Icon circle with premium background -->
  <circle cx="150" cy="200" r="75" fill="#CFAE58" opacity="0.15" filter="url(#softGlow)"/>
  <circle cx="150" cy="200" r="70" fill="#CFAE58" opacity="0.25"/>
  <text x="150" y="235" font-size="90" text-anchor="middle" fill="#CFAE58" filter="url(#glow)">ℹ️</text>

  <!-- Premium logo (crown) with enhanced styling -->
  <g transform="translate(100, 70)">
    <path d="M 30 20 L 40 35 L 35 35 Z M 50 15 L 60 35 L 45 35 Z M 65 20 L 75 35 L 70 35 Z M 30 35 L 75 35 L 73 45 L 32 45 Z"
          fill="url(#goldGradient)" filter="url(#glow)" stroke="#B89842" stroke-width="0.5"/>
    <circle cx="40" cy="25" r="3" fill="#4FD1C5" filter="url(#glow)"/>
    <circle cx="52" cy="20" r="4" fill="#4FD1C5" filter="url(#glow)"/>
    <circle cx="65" cy="25" r="3" fill="#4FD1C5" filter="url(#glow)"/>
  </g>

  <!-- Title with shadow -->
  <text x="280" y="180" font-family="Georgia, serif" font-size="72" font-weight="bold"
        fill="url(#goldGradient)" filter="url(#shadow)">About Royal Keta</text>

  <!-- Subtitle with subtle glow -->
  <text x="280" y="230" font-family="Arial, sans-serif" font-size="36"
        fill="#D6DEE6" opacity="0.95" filter="url(#softGlow)">Our Mission, Team & Values</text>

  <!-- Brand name with letter spacing -->
  <text x="280" y="300" font-family="Georgia, serif" font-size="32" font-weight="bold"
        fill="#CFAE58" letter-spacing="4" filter="url(#glow)">ROYAL KETA</text>

  <!-- Russian tagline -->
  <text x="280" y="340" font-family="Arial, sans-serif" font-size="22" font-style="italic"
        fill="#8B95A1" opacity="0.8">От икринки к королевской</text>

  <!-- Location -->
  <text x="280" y="380" font-family="Arial, sans-serif" font-size="20"
        fill="#8B95A1" opacity="0.7">Невельский район, Сахалин</text>

  <!-- Website with glow -->
  <text x="100" y="570" font-family="Arial, sans-serif" font-size="30" font-weight="bold"
        fill="#4FD1C5" filter="url(#glow)">royalketa.com</text>

  <!-- Enhanced decorative salmon silhouette -->
  <g transform="translate(950, 480)" opacity="0.2" filter="url(#softGlow)">
    <ellipse cx="0" cy="0" rx="90" ry="35" fill="#CFAE58"/>
    <path d="M 90 0 L 120 -18 L 130 0 L 120 18 Z" fill="#CFAE58"/>
    <path d="M -25 -35 L 0 -45 L 25 -35 Z" fill="#CFAE58"/>
    <ellipse cx="-50" cy="0" rx="15" ry="12" fill="#0B0F14"/>
  </g>

  <!-- Additional decorative caviar clusters -->
  <g opacity="0.2">
    <circle cx="1050" cy="120" r="6" fill="#CFAE58"/>
    <circle cx="1065" cy="115" r="5" fill="#CFAE58"/>
    <circle cx="1058" cy="130" r="4" fill="#CFAE58"/>
    <circle cx="150" cy="500" r="5" fill="#4FD1C5"/>
    <circle cx="165" cy="508" r="4" fill="#4FD1C5"/>
    <circle cx="140" cy="512" r="5" fill="#4FD1C5"/>
  </g>
</svg>