<svg width="1200" height="630" xmlns="http://www.w3.org/2000/svg">
  <defs>
    <linearGradient id="bgGradient" x1="0%" y1="0%" x2="100%" y2="100%">
      <stop offset="0%" style="stop-color:#0B0F14;stop-opacity:1" />
      <stop offset="50%" style="stop-color:#0F1619;stop-opacity:1" />
      <stop offset="100%" style="stop-color:#0F1922;stop-opacity:1" />
    </linearGradient>
    <linearGradient id="goldGradient" x1="0%" y1="0%" x2="100%" y2="0%">
      <stop offset="0%" style="stop-color:#E5D596;stop-opacity:1" />
      <stop offset="50%" style="stop-color:#CFAE58;stop-opacity:1" />
      <stop offset="100%" style="stop-color:#B89842;stop-opacity:1" />
    </linearGradient>
    <radialGradient id="oceanGradient" cx="50%" cy="50%" r="50%">
      <stop offset="0%" style="stop-color:#4FD1C5;stop-opacity:0.3" />
      <stop offset="100%" style="stop-color:#1E90A0;stop-opacity:0.05" />
    </radialGradient>
    <filter id="glow">
      <feGaussianBlur stdDeviation="5" result="coloredBlur"/>
      <feMerge>
        <feMergeNode in="coloredBlur"/>
        <feMergeNode in="SourceGraphic"/>
      </feMerge>
    </filter>
    <filter id="softGlow">
      <feGaussianBlur stdDeviation="8" result="coloredBlur"/>
      <feMerge>
        <feMergeNode in="coloredBlur"/>
        <feMergeNode in="SourceGraphic"/>
      </feMerge>
    </filter>
    <filter id="shadow">
      <feDropShadow dx="0" dy="4" stdDeviation="8" flood-color="#000000" flood-opacity="0.5"/>
    </filter>
  </defs>

  <!-- Background -->
  <rect width="1200" height="630" fill="url(#bgGradient)"/>

  <!-- Decorative ocean gradients -->
  <ellipse cx="1000" cy="150" rx="300" ry="200" fill="url(#oceanGradient)" opacity="0.4"/>
  <ellipse cx="200" cy="530" rx="250" ry="180" fill="url(#oceanGradient)" opacity="0.3"/>

  <!-- Wave patterns -->
  <path d="M 0 400 Q 300 350 600 400 T 1200 400 L 1200 630 L 0 630 Z" fill="#1E90A0" opacity="0.08"/>
  <path d="M 0 450 Q 250 420 500 450 T 1000 450 T 1200 450 L 1200 630 L 0 630 Z" fill="#4FD1C5" opacity="0.05"/>

  <!-- Caviar roe particles -->
  <circle cx="263.4506008418185" cy="422.4060722974943" r="4.2745189704505195" fill="#CFAE58" opacity="0.22776330487521157"/>
  <circle cx="320.7361310399005" cy="74.9126333184762" r="3.689916711730702" fill="#CFAE58" opacity="0.177512102629132"/>
  <circle cx="1002.7602539451485" cy="363.82129294016784" r="2.409322433237505" fill="#CFAE58" opacity="0.14179923786075255"/>
  <circle cx="619.0362237878064" cy="290.76723893255814" r="4.143650284221767" fill="#CFAE58" opacity="0.194580060882913"/>
  <circle cx="1035.0073250602675" cy="382.9925682971859" r="4.38669437136915" fill="#CFAE58" opacity="0.12006365888299625"/>
  <circle cx="1110.2192884433416" cy="407.17508849174897" r="5.709102937585151" fill="#CFAE58" opacity="0.13528968907314712"/>
  <circle cx="896.8659539103428" cy="580.4374644347802" r="4.197647020562719" fill="#CFAE58" opacity="0.1549798529607307"/>
  <circle cx="888.6955869745835" cy="243.6061896989108" r="3.5482071572780294" fill="#CFAE58" opacity="0.10929870108691646"/>
  <circle cx="1004.7454446041721" cy="266.5420099935205" r="4.226840117157206" fill="#CFAE58" opacity="0.1474066620324057"/>
  <circle cx="738.7105844824247" cy="600.1696376936162" r="5.444023940925166" fill="#CFAE58" opacity="0.21310950395428263"/>
  <circle cx="368.9295283508607" cy="190.34615273939684" r="2.0341625246443513" fill="#CFAE58" opacity="0.17896945097192293"/>
  <circle cx="126.57374734654611" cy="570.3508401247155" r="5.95858288110661" fill="#CFAE58" opacity="0.13427403798989673"/>
  <circle cx="87.38763342340494" cy="95.38521464914115" r="3.88202919826867" fill="#CFAE58" opacity="0.10249601641808054"/>
  <circle cx="893.549789495947" cy="267.89002259977167" r="4.793881596142336" fill="#CFAE58" opacity="0.22709533024964185"/>
  <circle cx="823.0933817259686" cy="496.38897890108086" r="3.007843566377278" fill="#CFAE58" opacity="0.1430948868900631"/>
  <circle cx="492.3424780467166" cy="137.21311894315667" r="3.3995118277991176" fill="#CFAE58" opacity="0.22516384840479348"/>
  <circle cx="247.62707550225588" cy="534.4590447853851" r="3.792236148011538" fill="#CFAE58" opacity="0.20434079348718798"/>
  <circle cx="587.2189152403623" cy="507.5774470181454" r="4.354505132341004" fill="#CFAE58" opacity="0.1910413580642351"/>
  <circle cx="472.0765702769752" cy="346.7966560855558" r="4.575068616450967" fill="#CFAE58" opacity="0.11634853247685739"/>
  <circle cx="535.7435420427146" cy="470.28440813874806" r="5.02536013126424" fill="#CFAE58" opacity="0.24336443912475952"/>
  <circle cx="266.7863655197463" cy="618.455207796295" r="5.118944652798297" fill="#CFAE58" opacity="0.18585163976576888"/>
  <circle cx="1071.6581859780426" cy="201.948140715401" r="3.000242692555207" fill="#CFAE58" opacity="0.22925502312687324"/>
  <circle cx="610.514276464376" cy="164.1236161150443" r="4.637540057782942" fill="#CFAE58" opacity="0.24939185524407442"/>
  <circle cx="779.7693642151746" cy="216.99193254224912" r="2.8556918068114028" fill="#CFAE58" opacity="0.15579232921642316"/>
  <circle cx="831.7944782972346" cy="557.0132446061647" r="3.910945015787158" fill="#CFAE58" opacity="0.10337161928315274"/>
  <circle cx="281.2624831976577" cy="439.1258291933074" r="4.910980321913169" fill="#CFAE58" opacity="0.11387900334587198"/>
  <circle cx="33.1633569349032" cy="598.8451899171887" r="2.322665633421061" fill="#CFAE58" opacity="0.15683451642212803"/>
  <circle cx="772.5589963821961" cy="133.46702763417684" r="5.638590086637628" fill="#CFAE58" opacity="0.13644789239516683"/>
  <circle cx="23.05252365858257" cy="246.66222376050132" r="5.3676246243322225" fill="#CFAE58" opacity="0.24327129027019156"/>
  <circle cx="239.45575659401302" cy="604.2497674562194" r="2.644402950315876" fill="#CFAE58" opacity="0.23945044623380077"/>

  <!-- Border with glow -->
  <rect x="40" y="40" width="1120" height="550" fill="none" stroke="url(#goldGradient)" stroke-width="3" rx="12" filter="url(#softGlow)"/>

  <!-- Icon circle with premium background -->
  <circle cx="150" cy="200" r="75" fill="#CFAE58" opacity="0.15" filter="url(#softGlow)"/>
  <circle cx="150" cy="200" r="70" fill="#CFAE58" opacity="0.25"/>
  <text x="150" y="235" font-size="90" text-anchor="middle" fill="#CFAE58" filter="url(#glow)">ℹ️</text>

  <!-- Premium logo (crown) with enhanced styling -->
  <g transform="translate(100, 70)">
    <path d="M 30 20 L 40 35 L 35 35 Z M 50 15 L 60 35 L 45 35 Z M 65 20 L 75 35 L 70 35 Z M 30 35 L 75 35 L 73 45 L 32 45 Z"
          fill="url(#goldGradient)" filter="url(#glow)" stroke="#B89842" stroke-width="0.5"/>
    <circle cx="40" cy="25" r="3" fill="#4FD1C5" filter="url(#glow)"/>
    <circle cx="52" cy="20" r="4" fill="#4FD1C5" filter="url(#glow)"/>
    <circle cx="65" cy="25" r="3" fill="#4FD1C5" filter="url(#glow)"/>
  </g>

  <!-- Title with shadow -->
  <text x="280" y="180" font-family="Georgia, serif" font-size="72" font-weight="bold"
        fill="url(#goldGradient)" filter="url(#shadow)">About Royal Keta</text>

  <!-- Subtitle with subtle glow -->
  <text x="280" y="230" font-family="Arial, sans-serif" font-size="36"
        fill="#D6DEE6" opacity="0.95" filter="url(#softGlow)">Our Mission, Team & Values</text>

  <!-- Brand name with letter spacing -->
  <text x="280" y="300" font-family="Georgia, serif" font-size="32" font-weight="bold"
        fill="#CFAE58" letter-spacing="4" filter="url(#glow)">ROYAL KETA</text>

  <!-- Russian tagline -->
  <text x="280" y="340" font-family="Arial, sans-serif" font-size="22" font-style="italic"
        fill="#8B95A1" opacity="0.8">От икринки к королевской</text>

  <!-- Location -->
  <text x="280" y="380" font-family="Arial, sans-serif" font-size="20"
        fill="#8B95A1" opacity="0.7">Невельский район, Сахалин</text>

  <!-- Website with glow -->
  <text x="100" y="570" font-family="Arial, sans-serif" font-size="30" font-weight="bold"
        fill="#4FD1C5" filter="url(#glow)">royalketa.com</text>

  <!-- Enhanced decorative salmon silhouette -->
  <g transform="translate(950, 480)" opacity="0.2" filter="url(#softGlow)">
    <ellipse cx="0" cy="0" rx="90" ry="35" fill="#CFAE58"/>
    <path d="M 90 0 L 120 -18 L 130 0 L 120 18 Z" fill="#CFAE58"/>
    <path d="M -25 -35 L 0 -45 L 25 -35 Z" fill="#CFAE58"/>
    <ellipse cx="-50" cy="0" rx="15" ry="12" fill="#0B0F14"/>
  </g>

  <!-- Additional decorative caviar clusters -->
  <g opacity="0.2">
    <circle cx="1050" cy="120" r="6" fill="#CFAE58"/>
    <circle cx="1065" cy="115" r="5" fill="#CFAE58"/>
    <circle cx="1058" cy="130" r="4" fill="#CFAE58"/>
    <circle cx="150" cy="500" r="5" fill="#4FD1C5"/>
    <circle cx="165" cy="508" r="4" fill="#4FD1C5"/>
    <circle cx="140" cy="512" r="5" fill="#4FD1C5"/>
  </g>
</svg>