<svg width="1200" height="630" xmlns="http://www.w3.org/2000/svg">
  <defs>
    <linearGradient id="bgGradient" x1="0%" y1="0%" x2="100%" y2="100%">
      <stop offset="0%" style="stop-color:#0B0F14;stop-opacity:1" />
      <stop offset="50%" style="stop-color:#0F1619;stop-opacity:1" />
      <stop offset="100%" style="stop-color:#0F1922;stop-opacity:1" />
    </linearGradient>
    <linearGradient id="goldGradient" x1="0%" y1="0%" x2="100%" y2="0%">
      <stop offset="0%" style="stop-color:#E5D596;stop-opacity:1" />
      <stop offset="50%" style="stop-color:#CFAE58;stop-opacity:1" />
      <stop offset="100%" style="stop-color:#B89842;stop-opacity:1" />
    </linearGradient>
    <radialGradient id="oceanGradient" cx="50%" cy="50%" r="50%">
      <stop offset="0%" style="stop-color:#4FD1C5;stop-opacity:0.3" />
      <stop offset="100%" style="stop-color:#1E90A0;stop-opacity:0.05" />
    </radialGradient>
    <filter id="glow">
      <feGaussianBlur stdDeviation="5" result="coloredBlur"/>
      <feMerge>
        <feMergeNode in="coloredBlur"/>
        <feMergeNode in="SourceGraphic"/>
      </feMerge>
    </filter>
    <filter id="softGlow">
      <feGaussianBlur stdDeviation="8" result="coloredBlur"/>
      <feMerge>
        <feMergeNode in="coloredBlur"/>
        <feMergeNode in="SourceGraphic"/>
      </feMerge>
    </filter>
    <filter id="shadow">
      <feDropShadow dx="0" dy="4" stdDeviation="8" flood-color="#000000" flood-opacity="0.5"/>
    </filter>
  </defs>

  <!-- Background -->
  <rect width="1200" height="630" fill="url(#bgGradient)"/>

  <!-- Decorative ocean gradients -->
  <ellipse cx="1000" cy="150" rx="300" ry="200" fill="url(#oceanGradient)" opacity="0.4"/>
  <ellipse cx="200" cy="530" rx="250" ry="180" fill="url(#oceanGradient)" opacity="0.3"/>

  <!-- Wave patterns -->
  <path d="M 0 400 Q 300 350 600 400 T 1200 400 L 1200 630 L 0 630 Z" fill="#1E90A0" opacity="0.08"/>
  <path d="M 0 450 Q 250 420 500 450 T 1000 450 T 1200 450 L 1200 630 L 0 630 Z" fill="#4FD1C5" opacity="0.05"/>

  <!-- Caviar roe particles -->
  <circle cx="817.1529886625274" cy="588.292867355248" r="5.394606873618878" fill="#CFAE58" opacity="0.1501809905218104"/>
  <circle cx="13.057359031590732" cy="174.48864497702698" r="4.042743575891754" fill="#CFAE58" opacity="0.2436133597926923"/>
  <circle cx="1100.2460880855542" cy="516.1946937900641" r="5.424430311311906" fill="#CFAE58" opacity="0.15900762255959836"/>
  <circle cx="86.38754073921487" cy="210.51523410554603" r="2.817814088777257" fill="#CFAE58" opacity="0.1483464813352357"/>
  <circle cx="1186.7591597577693" cy="300.3053295943681" r="2.3114183335981844" fill="#CFAE58" opacity="0.1649273221718165"/>
  <circle cx="878.9359725795986" cy="484.7217051529109" r="4.082325447715897" fill="#CFAE58" opacity="0.14215163036241782"/>
  <circle cx="974.850518961898" cy="620.6223661904909" r="4.468871917155765" fill="#CFAE58" opacity="0.11607344998315036"/>
  <circle cx="660.3439862040235" cy="335.66954116344016" r="5.878643983058727" fill="#CFAE58" opacity="0.12650225218857408"/>
  <circle cx="470.1489962449783" cy="151.9153854170796" r="3.714677908065285" fill="#CFAE58" opacity="0.2421754175776334"/>
  <circle cx="194.23709575104286" cy="21.820830044663182" r="3.5648146971941683" fill="#CFAE58" opacity="0.17469426529779364"/>
  <circle cx="205.04396309047027" cy="432.8976652765999" r="3.717484909557136" fill="#CFAE58" opacity="0.12943559775009864"/>
  <circle cx="939.72109687472" cy="99.04010390990334" r="3.10297186451879" fill="#CFAE58" opacity="0.17537257545935508"/>
  <circle cx="944.5275392146842" cy="109.93374582488586" r="2.1961898381853153" fill="#CFAE58" opacity="0.16899055244460573"/>
  <circle cx="984.4481948034398" cy="146.3734061506053" r="2.511008638520118" fill="#CFAE58" opacity="0.2470144131100751"/>
  <circle cx="551.9271879978143" cy="342.6939594853075" r="2.537476473662812" fill="#CFAE58" opacity="0.1118694318507689"/>
  <circle cx="1029.0511505448537" cy="194.81289116131774" r="5.767964552218766" fill="#CFAE58" opacity="0.2112123611214261"/>
  <circle cx="427.881301736699" cy="350.4049966513648" r="2.539482101199372" fill="#CFAE58" opacity="0.16282046044883686"/>
  <circle cx="250.35531344674106" cy="299.62358325697534" r="5.6108702042880525" fill="#CFAE58" opacity="0.11999913581936056"/>
  <circle cx="743.1998288490095" cy="560.1946585104229" r="5.96466183770001" fill="#CFAE58" opacity="0.1979490290310167"/>
  <circle cx="615.2310633982946" cy="351.25426769643826" r="4.652589627079956" fill="#CFAE58" opacity="0.23965666507055383"/>
  <circle cx="1010.372645695853" cy="490.70681628999444" r="2.4595165504622845" fill="#CFAE58" opacity="0.17001235504483908"/>
  <circle cx="1117.1395564136844" cy="372.83534003860444" r="5.5177591311523" fill="#CFAE58" opacity="0.18737794557889648"/>
  <circle cx="1113.1262683075465" cy="13.596926883986804" r="2.4415087489195555" fill="#CFAE58" opacity="0.22730780992490243"/>
  <circle cx="169.21675863502878" cy="263.214989093845" r="3.655817581491527" fill="#CFAE58" opacity="0.15972629312105388"/>
  <circle cx="631.0828030394091" cy="210.56679726100646" r="3.636095396274939" fill="#CFAE58" opacity="0.1664878898552914"/>
  <circle cx="522.1686549461649" cy="459.27866761805643" r="5.326259615168095" fill="#CFAE58" opacity="0.13721173976771542"/>
  <circle cx="826.5106710755474" cy="602.2283475032785" r="3.0273900127897946" fill="#CFAE58" opacity="0.21771499199582464"/>
  <circle cx="745.7087640839671" cy="527.1284495972255" r="3.8802090612182356" fill="#CFAE58" opacity="0.16301783513645676"/>
  <circle cx="541.3396421715746" cy="31.160815963339914" r="3.33114965798749" fill="#CFAE58" opacity="0.13971423690944879"/>
  <circle cx="658.5643678158665" cy="287.56549848931036" r="3.7231433817941912" fill="#CFAE58" opacity="0.20733096620691743"/>

  <!-- Border with glow -->
  <rect x="40" y="40" width="1120" height="550" fill="none" stroke="url(#goldGradient)" stroke-width="3" rx="12" filter="url(#softGlow)"/>

  <!-- Icon circle with premium background -->
  <circle cx="150" cy="200" r="75" fill="#CFAE58" opacity="0.15" filter="url(#softGlow)"/>
  <circle cx="150" cy="200" r="70" fill="#CFAE58" opacity="0.25"/>
  <text x="150" y="235" font-size="90" text-anchor="middle" fill="#CFAE58" filter="url(#glow)">ℹ️</text>

  <!-- Premium logo (crown) with enhanced styling -->
  <g transform="translate(100, 70)">
    <path d="M 30 20 L 40 35 L 35 35 Z M 50 15 L 60 35 L 45 35 Z M 65 20 L 75 35 L 70 35 Z M 30 35 L 75 35 L 73 45 L 32 45 Z"
          fill="url(#goldGradient)" filter="url(#glow)" stroke="#B89842" stroke-width="0.5"/>
    <circle cx="40" cy="25" r="3" fill="#4FD1C5" filter="url(#glow)"/>
    <circle cx="52" cy="20" r="4" fill="#4FD1C5" filter="url(#glow)"/>
    <circle cx="65" cy="25" r="3" fill="#4FD1C5" filter="url(#glow)"/>
  </g>

  <!-- Title with shadow -->
  <text x="280" y="180" font-family="Georgia, serif" font-size="72" font-weight="bold"
        fill="url(#goldGradient)" filter="url(#shadow)">About Royal Keta</text>

  <!-- Subtitle with subtle glow -->
  <text x="280" y="230" font-family="Arial, sans-serif" font-size="36"
        fill="#D6DEE6" opacity="0.95" filter="url(#softGlow)">Our Mission, Team &amp; Values</text>

  <!-- Brand name with letter spacing -->
  <text x="280" y="300" font-family="Georgia, serif" font-size="32" font-weight="bold"
        fill="#CFAE58" letter-spacing="4" filter="url(#glow)">ROYAL KETA</text>

  <!-- Russian tagline -->
  <text x="280" y="340" font-family="Arial, sans-serif" font-size="22" font-style="italic"
        fill="#8B95A1" opacity="0.8">От икринки к королевской</text>

  <!-- Location -->
  <text x="280" y="380" font-family="Arial, sans-serif" font-size="20"
        fill="#8B95A1" opacity="0.7">Невельский район, Сахалин</text>

  <!-- Website with glow -->
  <text x="100" y="570" font-family="Arial, sans-serif" font-size="30" font-weight="bold"
        fill="#4FD1C5" filter="url(#glow)">royalketa.com</text>

  <!-- Enhanced decorative salmon silhouette -->
  <g transform="translate(950, 480)" opacity="0.2" filter="url(#softGlow)">
    <ellipse cx="0" cy="0" rx="90" ry="35" fill="#CFAE58"/>
    <path d="M 90 0 L 120 -18 L 130 0 L 120 18 Z" fill="#CFAE58"/>
    <path d="M -25 -35 L 0 -45 L 25 -35 Z" fill="#CFAE58"/>
    <ellipse cx="-50" cy="0" rx="15" ry="12" fill="#0B0F14"/>
  </g>

  <!-- Additional decorative caviar clusters -->
  <g opacity="0.2">
    <circle cx="1050" cy="120" r="6" fill="#CFAE58"/>
    <circle cx="1065" cy="115" r="5" fill="#CFAE58"/>
    <circle cx="1058" cy="130" r="4" fill="#CFAE58"/>
    <circle cx="150" cy="500" r="5" fill="#4FD1C5"/>
    <circle cx="165" cy="508" r="4" fill="#4FD1C5"/>
    <circle cx="140" cy="512" r="5" fill="#4FD1C5"/>
  </g>
</svg>