<svg width="1200" height="630" xmlns="http://www.w3.org/2000/svg">
  <defs>
    <linearGradient id="bgGradient" x1="0%" y1="0%" x2="100%" y2="100%">
      <stop offset="0%" style="stop-color:#0B0F14;stop-opacity:1" />
      <stop offset="50%" style="stop-color:#0F1619;stop-opacity:1" />
      <stop offset="100%" style="stop-color:#0F1922;stop-opacity:1" />
    </linearGradient>
    <linearGradient id="goldGradient" x1="0%" y1="0%" x2="100%" y2="0%">
      <stop offset="0%" style="stop-color:#E5D596;stop-opacity:1" />
      <stop offset="50%" style="stop-color:#CFAE58;stop-opacity:1" />
      <stop offset="100%" style="stop-color:#B89842;stop-opacity:1" />
    </linearGradient>
    <radialGradient id="oceanGradient" cx="50%" cy="50%" r="50%">
      <stop offset="0%" style="stop-color:#4FD1C5;stop-opacity:0.3" />
      <stop offset="100%" style="stop-color:#1E90A0;stop-opacity:0.05" />
    </radialGradient>
    <filter id="glow">
      <feGaussianBlur stdDeviation="5" result="coloredBlur"/>
      <feMerge>
        <feMergeNode in="coloredBlur"/>
        <feMergeNode in="SourceGraphic"/>
      </feMerge>
    </filter>
    <filter id="softGlow">
      <feGaussianBlur stdDeviation="8" result="coloredBlur"/>
      <feMerge>
        <feMergeNode in="coloredBlur"/>
        <feMergeNode in="SourceGraphic"/>
      </feMerge>
    </filter>
    <filter id="shadow">
      <feDropShadow dx="0" dy="4" stdDeviation="8" flood-color="#000000" flood-opacity="0.5"/>
    </filter>
  </defs>

  <!-- Background -->
  <rect width="1200" height="630" fill="url(#bgGradient)"/>

  <!-- Decorative ocean gradients -->
  <ellipse cx="1000" cy="150" rx="300" ry="200" fill="url(#oceanGradient)" opacity="0.4"/>
  <ellipse cx="200" cy="530" rx="250" ry="180" fill="url(#oceanGradient)" opacity="0.3"/>

  <!-- Wave patterns -->
  <path d="M 0 400 Q 300 350 600 400 T 1200 400 L 1200 630 L 0 630 Z" fill="#1E90A0" opacity="0.08"/>
  <path d="M 0 450 Q 250 420 500 450 T 1000 450 T 1200 450 L 1200 630 L 0 630 Z" fill="#4FD1C5" opacity="0.05"/>

  <!-- Caviar roe particles -->
  <circle cx="1129.1065243283315" cy="492.71339923761553" r="3.0856745199807003" fill="#CFAE58" opacity="0.19619292309964917"/>
  <circle cx="428.62239747974536" cy="83.91707235689778" r="2.7812692139528647" fill="#CFAE58" opacity="0.23692483858063318"/>
  <circle cx="532.8963752843991" cy="520.0772709117059" r="4.439856169489159" fill="#CFAE58" opacity="0.1776969932890568"/>
  <circle cx="171.2528565180826" cy="117.21405668734768" r="2.6917825479732387" fill="#CFAE58" opacity="0.24349707302220047"/>
  <circle cx="638.1917255571054" cy="628.4480674446995" r="5.578011787535356" fill="#CFAE58" opacity="0.2221349381714057"/>
  <circle cx="438.11279496596336" cy="463.1670321308083" r="5.553309921487659" fill="#CFAE58" opacity="0.18950420224189538"/>
  <circle cx="1110.7361685644605" cy="455.7920008294619" r="2.07349458608203" fill="#CFAE58" opacity="0.19987543392645488"/>
  <circle cx="1049.4225657317413" cy="293.6205312052244" r="2.739942803898135" fill="#CFAE58" opacity="0.24610134893781777"/>
  <circle cx="850.1922208964206" cy="276.21291496974595" r="2.15396966919245" fill="#CFAE58" opacity="0.24134518268030547"/>
  <circle cx="868.3994659970972" cy="466.95620356228767" r="3.811427815024724" fill="#CFAE58" opacity="0.2267871812591957"/>
  <circle cx="296.08892164206475" cy="74.07333058825483" r="2.205741487626486" fill="#CFAE58" opacity="0.137733661988728"/>
  <circle cx="413.3438706695674" cy="364.1091422895411" r="3.057855860162928" fill="#CFAE58" opacity="0.23398054611895527"/>
  <circle cx="351.84272606573825" cy="607.5078475730485" r="4.961156368843028" fill="#CFAE58" opacity="0.14807736454464368"/>
  <circle cx="414.9036476693358" cy="117.1691144982116" r="3.035331825471496" fill="#CFAE58" opacity="0.1983857296092047"/>
  <circle cx="1085.6819642051478" cy="425.17411142389403" r="5.958613257866977" fill="#CFAE58" opacity="0.24039160744481822"/>
  <circle cx="620.8702452601163" cy="91.86866447605901" r="2.3802078840264" fill="#CFAE58" opacity="0.12871122444096425"/>
  <circle cx="1016.8938080196043" cy="526.967562081321" r="2.12647677741014" fill="#CFAE58" opacity="0.12393792803950046"/>
  <circle cx="719.0238082696707" cy="532.8106485614586" r="2.021877408986708" fill="#CFAE58" opacity="0.1291384442031956"/>
  <circle cx="1119.6299839897724" cy="417.9185619477912" r="3.4528441949794564" fill="#CFAE58" opacity="0.17472118511916715"/>
  <circle cx="221.2956974011825" cy="507.8462828551662" r="4.352747186976652" fill="#CFAE58" opacity="0.1766267392343488"/>
  <circle cx="224.9724563632643" cy="206.23689858161583" r="3.6163569004403615" fill="#CFAE58" opacity="0.15720832346337604"/>
  <circle cx="344.0792529193013" cy="272.01427376405485" r="4.830155169230376" fill="#CFAE58" opacity="0.22498207196316533"/>
  <circle cx="1013.7934283345681" cy="53.63219272021987" r="3.3232849114386536" fill="#CFAE58" opacity="0.16220178906767727"/>
  <circle cx="909.5221977115709" cy="20.287911181583965" r="5.24874545236104" fill="#CFAE58" opacity="0.14076511577802533"/>
  <circle cx="19.10026879036679" cy="225.22069979115443" r="4.783306564597842" fill="#CFAE58" opacity="0.2068744487894737"/>
  <circle cx="211.4563696227596" cy="289.0845985082354" r="3.294534703236016" fill="#CFAE58" opacity="0.18974356194014713"/>
  <circle cx="925.345810463068" cy="467.79861533792814" r="4.020014275280225" fill="#CFAE58" opacity="0.24541663728788968"/>
  <circle cx="28.127073915772314" cy="617.3813131061672" r="2.93968475049039" fill="#CFAE58" opacity="0.1818019086543782"/>
  <circle cx="80.43489226959358" cy="274.34976754815244" r="2.8820792550706384" fill="#CFAE58" opacity="0.15873170852704122"/>
  <circle cx="20.42846833117884" cy="220.29387741861117" r="5.828288392840517" fill="#CFAE58" opacity="0.19573873392424934"/>

  <!-- Border with glow -->
  <rect x="40" y="40" width="1120" height="550" fill="none" stroke="url(#goldGradient)" stroke-width="3" rx="12" filter="url(#softGlow)"/>

  <!-- Icon circle with premium background -->
  <circle cx="150" cy="200" r="75" fill="#CFAE58" opacity="0.15" filter="url(#softGlow)"/>
  <circle cx="150" cy="200" r="70" fill="#CFAE58" opacity="0.25"/>
  <text x="150" y="235" font-size="90" text-anchor="middle" fill="#CFAE58" filter="url(#glow)">ℹ️</text>

  <!-- Premium logo (crown) with enhanced styling -->
  <g transform="translate(100, 70)">
    <path d="M 30 20 L 40 35 L 35 35 Z M 50 15 L 60 35 L 45 35 Z M 65 20 L 75 35 L 70 35 Z M 30 35 L 75 35 L 73 45 L 32 45 Z"
          fill="url(#goldGradient)" filter="url(#glow)" stroke="#B89842" stroke-width="0.5"/>
    <circle cx="40" cy="25" r="3" fill="#4FD1C5" filter="url(#glow)"/>
    <circle cx="52" cy="20" r="4" fill="#4FD1C5" filter="url(#glow)"/>
    <circle cx="65" cy="25" r="3" fill="#4FD1C5" filter="url(#glow)"/>
  </g>

  <!-- Title with shadow -->
  <text x="280" y="180" font-family="Georgia, serif" font-size="72" font-weight="bold"
        fill="url(#goldGradient)" filter="url(#shadow)">About Royal Keta</text>

  <!-- Subtitle with subtle glow -->
  <text x="280" y="230" font-family="Arial, sans-serif" font-size="36"
        fill="#D6DEE6" opacity="0.95" filter="url(#softGlow)">Our Mission, Team &amp; Values</text>

  <!-- Brand name with letter spacing -->
  <text x="280" y="300" font-family="Georgia, serif" font-size="32" font-weight="bold"
        fill="#CFAE58" letter-spacing="4" filter="url(#glow)">ROYAL KETA</text>

  <!-- Russian tagline -->
  <text x="280" y="340" font-family="Arial, sans-serif" font-size="22" font-style="italic"
        fill="#8B95A1" opacity="0.8">От икринки к королевской</text>

  <!-- Location -->
  <text x="280" y="380" font-family="Arial, sans-serif" font-size="20"
        fill="#8B95A1" opacity="0.7">Невельский район, Сахалин</text>

  <!-- Website with glow -->
  <text x="100" y="570" font-family="Arial, sans-serif" font-size="30" font-weight="bold"
        fill="#4FD1C5" filter="url(#glow)">royalketa.com</text>

  <!-- Enhanced decorative salmon silhouette -->
  <g transform="translate(950, 480)" opacity="0.2" filter="url(#softGlow)">
    <ellipse cx="0" cy="0" rx="90" ry="35" fill="#CFAE58"/>
    <path d="M 90 0 L 120 -18 L 130 0 L 120 18 Z" fill="#CFAE58"/>
    <path d="M -25 -35 L 0 -45 L 25 -35 Z" fill="#CFAE58"/>
    <ellipse cx="-50" cy="0" rx="15" ry="12" fill="#0B0F14"/>
  </g>

  <!-- Additional decorative caviar clusters -->
  <g opacity="0.2">
    <circle cx="1050" cy="120" r="6" fill="#CFAE58"/>
    <circle cx="1065" cy="115" r="5" fill="#CFAE58"/>
    <circle cx="1058" cy="130" r="4" fill="#CFAE58"/>
    <circle cx="150" cy="500" r="5" fill="#4FD1C5"/>
    <circle cx="165" cy="508" r="4" fill="#4FD1C5"/>
    <circle cx="140" cy="512" r="5" fill="#4FD1C5"/>
  </g>
</svg>