<svg width="1200" height="630" xmlns="http://www.w3.org/2000/svg">
  <defs>
    <linearGradient id="bgGradient" x1="0%" y1="0%" x2="100%" y2="100%">
      <stop offset="0%" style="stop-color:#0B0F14;stop-opacity:1" />
      <stop offset="50%" style="stop-color:#0F1619;stop-opacity:1" />
      <stop offset="100%" style="stop-color:#0F1922;stop-opacity:1" />
    </linearGradient>
    <linearGradient id="goldGradient" x1="0%" y1="0%" x2="100%" y2="0%">
      <stop offset="0%" style="stop-color:#E5D596;stop-opacity:1" />
      <stop offset="50%" style="stop-color:#CFAE58;stop-opacity:1" />
      <stop offset="100%" style="stop-color:#B89842;stop-opacity:1" />
    </linearGradient>
    <radialGradient id="oceanGradient" cx="50%" cy="50%" r="50%">
      <stop offset="0%" style="stop-color:#4FD1C5;stop-opacity:0.3" />
      <stop offset="100%" style="stop-color:#1E90A0;stop-opacity:0.05" />
    </radialGradient>
    <filter id="glow">
      <feGaussianBlur stdDeviation="5" result="coloredBlur"/>
      <feMerge>
        <feMergeNode in="coloredBlur"/>
        <feMergeNode in="SourceGraphic"/>
      </feMerge>
    </filter>
    <filter id="softGlow">
      <feGaussianBlur stdDeviation="8" result="coloredBlur"/>
      <feMerge>
        <feMergeNode in="coloredBlur"/>
        <feMergeNode in="SourceGraphic"/>
      </feMerge>
    </filter>
    <filter id="shadow">
      <feDropShadow dx="0" dy="4" stdDeviation="8" flood-color="#000000" flood-opacity="0.5"/>
    </filter>
  </defs>

  <!-- Background -->
  <rect width="1200" height="630" fill="url(#bgGradient)"/>

  <!-- Decorative ocean gradients -->
  <ellipse cx="1000" cy="150" rx="300" ry="200" fill="url(#oceanGradient)" opacity="0.4"/>
  <ellipse cx="200" cy="530" rx="250" ry="180" fill="url(#oceanGradient)" opacity="0.3"/>

  <!-- Wave patterns -->
  <path d="M 0 400 Q 300 350 600 400 T 1200 400 L 1200 630 L 0 630 Z" fill="#1E90A0" opacity="0.08"/>
  <path d="M 0 450 Q 250 420 500 450 T 1000 450 T 1200 450 L 1200 630 L 0 630 Z" fill="#4FD1C5" opacity="0.05"/>

  <!-- Caviar roe particles -->
  <circle cx="140.93729129139626" cy="160.99768579123813" r="5.374345556947438" fill="#CFAE58" opacity="0.18879093535421626"/>
  <circle cx="20.6752203865463" cy="242.64612010159408" r="2.4128611024651985" fill="#CFAE58" opacity="0.10498065541900506"/>
  <circle cx="1100.1236872918178" cy="330.47138658179114" r="5.891205113277189" fill="#CFAE58" opacity="0.20212172537835382"/>
  <circle cx="940.3425156267833" cy="307.7224133640475" r="3.7289943009837545" fill="#CFAE58" opacity="0.11788041087527111"/>
  <circle cx="142.05639741274663" cy="143.67630237260897" r="5.714912790680616" fill="#CFAE58" opacity="0.11353458320206472"/>
  <circle cx="875.5093932817031" cy="284.77292148313944" r="2.085771463904223" fill="#CFAE58" opacity="0.18315554227206055"/>
  <circle cx="340.65452826859115" cy="444.13000806567965" r="5.4439564361036155" fill="#CFAE58" opacity="0.18570609053115214"/>
  <circle cx="124.34596978107058" cy="482.6251040899827" r="3.87361462683896" fill="#CFAE58" opacity="0.13698811918694728"/>
  <circle cx="596.3549449731228" cy="40.71867087975279" r="2.5714522807517" fill="#CFAE58" opacity="0.19129360950384333"/>
  <circle cx="441.9795340402132" cy="151.81170831228587" r="5.947243033720411" fill="#CFAE58" opacity="0.18110730577714265"/>
  <circle cx="334.6301355760422" cy="596.7591126119279" r="5.879336024358457" fill="#CFAE58" opacity="0.1828709696892355"/>
  <circle cx="1197.8209793360593" cy="445.395724477601" r="2.0267101726582153" fill="#CFAE58" opacity="0.17647754343677186"/>
  <circle cx="685.995350074177" cy="188.0516860692172" r="4.588433972754995" fill="#CFAE58" opacity="0.2339851746391168"/>
  <circle cx="536.7981721812514" cy="478.2526013715598" r="3.6896466555867606" fill="#CFAE58" opacity="0.16037505484400785"/>
  <circle cx="500.8042406290375" cy="264.14248255918244" r="4.862120491801185" fill="#CFAE58" opacity="0.24752891936986213"/>
  <circle cx="1114.6217293172483" cy="274.2545770228775" r="3.7333340278634397" fill="#CFAE58" opacity="0.22199979100797018"/>
  <circle cx="828.2685837242628" cy="114.97427493694494" r="3.107206271659499" fill="#CFAE58" opacity="0.23523995680750437"/>
  <circle cx="831.6488840443019" cy="464.9381386071841" r="4.612440427215867" fill="#CFAE58" opacity="0.12877406180623338"/>
  <circle cx="577.9234782175116" cy="274.8179666394899" r="4.17266494020182" fill="#CFAE58" opacity="0.20961346698668465"/>
  <circle cx="1018.3217397740217" cy="79.13093596765913" r="2.690205971175387" fill="#CFAE58" opacity="0.18430221406190428"/>
  <circle cx="1143.8238305511495" cy="292.37175660798476" r="2.6071623043526566" fill="#CFAE58" opacity="0.11982636054265736"/>
  <circle cx="219.25709198907643" cy="341.305814843966" r="4.426722167475339" fill="#CFAE58" opacity="0.16467091140518447"/>
  <circle cx="1136.2099212332405" cy="80.9424286845861" r="5.641863933909982" fill="#CFAE58" opacity="0.17597230582131473"/>
  <circle cx="536.6910130312134" cy="137.9079391617149" r="2.252807785478243" fill="#CFAE58" opacity="0.14996582549400705"/>
  <circle cx="354.02241587459804" cy="293.6865758716228" r="2.4295573973596714" fill="#CFAE58" opacity="0.2408991326831558"/>
  <circle cx="782.9327054605384" cy="347.974508608405" r="5.005298573919558" fill="#CFAE58" opacity="0.2345644353374719"/>
  <circle cx="912.9671435226459" cy="161.7256359014162" r="4.440992890469845" fill="#CFAE58" opacity="0.21161841852155888"/>
  <circle cx="104.19262004512797" cy="433.74527324482" r="5.108009518264098" fill="#CFAE58" opacity="0.2006530737574076"/>
  <circle cx="456.7198344984932" cy="282.7358476557416" r="3.943977087556857" fill="#CFAE58" opacity="0.2419156072238682"/>
  <circle cx="19.08181288948576" cy="260.56066669793563" r="2.6733638177001993" fill="#CFAE58" opacity="0.20533288614134385"/>

  <!-- Border with glow -->
  <rect x="40" y="40" width="1120" height="550" fill="none" stroke="url(#goldGradient)" stroke-width="3" rx="12" filter="url(#softGlow)"/>

  <!-- Icon circle with premium background -->
  <circle cx="150" cy="200" r="75" fill="#CFAE58" opacity="0.15" filter="url(#softGlow)"/>
  <circle cx="150" cy="200" r="70" fill="#CFAE58" opacity="0.25"/>
  <text x="150" y="235" font-size="90" text-anchor="middle" fill="#CFAE58" filter="url(#glow)">ℹ️</text>

  <!-- Premium logo (crown) with enhanced styling -->
  <g transform="translate(100, 70)">
    <path d="M 30 20 L 40 35 L 35 35 Z M 50 15 L 60 35 L 45 35 Z M 65 20 L 75 35 L 70 35 Z M 30 35 L 75 35 L 73 45 L 32 45 Z"
          fill="url(#goldGradient)" filter="url(#glow)" stroke="#B89842" stroke-width="0.5"/>
    <circle cx="40" cy="25" r="3" fill="#4FD1C5" filter="url(#glow)"/>
    <circle cx="52" cy="20" r="4" fill="#4FD1C5" filter="url(#glow)"/>
    <circle cx="65" cy="25" r="3" fill="#4FD1C5" filter="url(#glow)"/>
  </g>

  <!-- Title with shadow -->
  <text x="280" y="180" font-family="Georgia, serif" font-size="72" font-weight="bold"
        fill="url(#goldGradient)" filter="url(#shadow)">About Royal Keta</text>

  <!-- Subtitle with subtle glow -->
  <text x="280" y="230" font-family="Arial, sans-serif" font-size="36"
        fill="#D6DEE6" opacity="0.95" filter="url(#softGlow)">Our Mission, Team & Values</text>

  <!-- Brand name with letter spacing -->
  <text x="280" y="300" font-family="Georgia, serif" font-size="32" font-weight="bold"
        fill="#CFAE58" letter-spacing="4" filter="url(#glow)">ROYAL KETA</text>

  <!-- Russian tagline -->
  <text x="280" y="340" font-family="Arial, sans-serif" font-size="22" font-style="italic"
        fill="#8B95A1" opacity="0.8">От икринки к королевской</text>

  <!-- Location -->
  <text x="280" y="380" font-family="Arial, sans-serif" font-size="20"
        fill="#8B95A1" opacity="0.7">Невельский район, Сахалин</text>

  <!-- Website with glow -->
  <text x="100" y="570" font-family="Arial, sans-serif" font-size="30" font-weight="bold"
        fill="#4FD1C5" filter="url(#glow)">royalketa.com</text>

  <!-- Enhanced decorative salmon silhouette -->
  <g transform="translate(950, 480)" opacity="0.2" filter="url(#softGlow)">
    <ellipse cx="0" cy="0" rx="90" ry="35" fill="#CFAE58"/>
    <path d="M 90 0 L 120 -18 L 130 0 L 120 18 Z" fill="#CFAE58"/>
    <path d="M -25 -35 L 0 -45 L 25 -35 Z" fill="#CFAE58"/>
    <ellipse cx="-50" cy="0" rx="15" ry="12" fill="#0B0F14"/>
  </g>

  <!-- Additional decorative caviar clusters -->
  <g opacity="0.2">
    <circle cx="1050" cy="120" r="6" fill="#CFAE58"/>
    <circle cx="1065" cy="115" r="5" fill="#CFAE58"/>
    <circle cx="1058" cy="130" r="4" fill="#CFAE58"/>
    <circle cx="150" cy="500" r="5" fill="#4FD1C5"/>
    <circle cx="165" cy="508" r="4" fill="#4FD1C5"/>
    <circle cx="140" cy="512" r="5" fill="#4FD1C5"/>
  </g>
</svg>