<svg width="1200" height="630" xmlns="http://www.w3.org/2000/svg">
  <defs>
    <linearGradient id="bgGradient" x1="0%" y1="0%" x2="100%" y2="100%">
      <stop offset="0%" style="stop-color:#0B0F14;stop-opacity:1" />
      <stop offset="50%" style="stop-color:#0F1619;stop-opacity:1" />
      <stop offset="100%" style="stop-color:#0F1922;stop-opacity:1" />
    </linearGradient>
    <linearGradient id="goldGradient" x1="0%" y1="0%" x2="100%" y2="0%">
      <stop offset="0%" style="stop-color:#E5D596;stop-opacity:1" />
      <stop offset="50%" style="stop-color:#CFAE58;stop-opacity:1" />
      <stop offset="100%" style="stop-color:#B89842;stop-opacity:1" />
    </linearGradient>
    <radialGradient id="oceanGradient" cx="50%" cy="50%" r="50%">
      <stop offset="0%" style="stop-color:#4FD1C5;stop-opacity:0.3" />
      <stop offset="100%" style="stop-color:#1E90A0;stop-opacity:0.05" />
    </radialGradient>
    <filter id="glow">
      <feGaussianBlur stdDeviation="5" result="coloredBlur"/>
      <feMerge>
        <feMergeNode in="coloredBlur"/>
        <feMergeNode in="SourceGraphic"/>
      </feMerge>
    </filter>
    <filter id="softGlow">
      <feGaussianBlur stdDeviation="8" result="coloredBlur"/>
      <feMerge>
        <feMergeNode in="coloredBlur"/>
        <feMergeNode in="SourceGraphic"/>
      </feMerge>
    </filter>
    <filter id="shadow">
      <feDropShadow dx="0" dy="4" stdDeviation="8" flood-color="#000000" flood-opacity="0.5"/>
    </filter>
  </defs>

  <!-- Background -->
  <rect width="1200" height="630" fill="url(#bgGradient)"/>

  <!-- Decorative ocean gradients -->
  <ellipse cx="1000" cy="150" rx="300" ry="200" fill="url(#oceanGradient)" opacity="0.4"/>
  <ellipse cx="200" cy="530" rx="250" ry="180" fill="url(#oceanGradient)" opacity="0.3"/>

  <!-- Wave patterns -->
  <path d="M 0 400 Q 300 350 600 400 T 1200 400 L 1200 630 L 0 630 Z" fill="#1E90A0" opacity="0.08"/>
  <path d="M 0 450 Q 250 420 500 450 T 1000 450 T 1200 450 L 1200 630 L 0 630 Z" fill="#4FD1C5" opacity="0.05"/>

  <!-- Caviar roe particles -->
  <circle cx="969.2040794313328" cy="617.5548616505068" r="5.439899876869259" fill="#CFAE58" opacity="0.15854810363803695"/>
  <circle cx="658.6550045475014" cy="238.37339683080862" r="5.705846789200828" fill="#CFAE58" opacity="0.20184625015575464"/>
  <circle cx="164.75807047109026" cy="450.41939647422436" r="4.080782445214557" fill="#CFAE58" opacity="0.1629573526818282"/>
  <circle cx="745.842710847773" cy="480.1799316917903" r="4.118740013999656" fill="#CFAE58" opacity="0.1821437022215422"/>
  <circle cx="301.6255306931605" cy="292.7442436032338" r="5.243262755201332" fill="#CFAE58" opacity="0.10997707827830769"/>
  <circle cx="337.69062828924984" cy="551.4970642894681" r="5.492969258915778" fill="#CFAE58" opacity="0.15896933715743575"/>
  <circle cx="560.7701967667847" cy="288.5976733731824" r="4.444991407204924" fill="#CFAE58" opacity="0.10751274045994474"/>
  <circle cx="1118.9418543775134" cy="91.02132544053094" r="5.770660987322235" fill="#CFAE58" opacity="0.2093681889845923"/>
  <circle cx="650.1140720806488" cy="612.3445146171262" r="3.835542692062207" fill="#CFAE58" opacity="0.20037800941358602"/>
  <circle cx="6.3648995543541975" cy="431.1568072656585" r="4.616850869867981" fill="#CFAE58" opacity="0.13982683948897384"/>
  <circle cx="918.9125242871106" cy="577.714122380187" r="5.268468379789346" fill="#CFAE58" opacity="0.13021825015229244"/>
  <circle cx="637.2700303656966" cy="602.7381967141697" r="5.922335401358137" fill="#CFAE58" opacity="0.17888835435403644"/>
  <circle cx="539.7374234199184" cy="6.228118880643533" r="5.302329843822758" fill="#CFAE58" opacity="0.13289008582920406"/>
  <circle cx="351.0328719069241" cy="137.39653110749518" r="2.399032303584408" fill="#CFAE58" opacity="0.17487843010529408"/>
  <circle cx="355.2290694103793" cy="439.6869136552979" r="4.632870826653215" fill="#CFAE58" opacity="0.1651676021333399"/>
  <circle cx="946.5956290892924" cy="292.17811023750613" r="5.06610750303693" fill="#CFAE58" opacity="0.2107722829720603"/>
  <circle cx="1070.799438665404" cy="185.9813316590534" r="3.0387014998661686" fill="#CFAE58" opacity="0.21885223560372175"/>
  <circle cx="293.47310711431754" cy="460.3289419461968" r="2.0728213810303964" fill="#CFAE58" opacity="0.24802622071138825"/>
  <circle cx="1078.8695980570892" cy="58.36105258329405" r="4.727059064607383" fill="#CFAE58" opacity="0.14933610426129296"/>
  <circle cx="1104.697189329068" cy="394.7169457338678" r="4.483929077564894" fill="#CFAE58" opacity="0.24538831310851147"/>
  <circle cx="613.2727828320078" cy="203.135885275589" r="3.7850077792712975" fill="#CFAE58" opacity="0.20725443230919183"/>
  <circle cx="566.3800823783644" cy="171.78163406643998" r="4.14231238518538" fill="#CFAE58" opacity="0.21248495191222022"/>
  <circle cx="215.14379104355802" cy="191.3714517284866" r="2.2252928881045855" fill="#CFAE58" opacity="0.13450167430267074"/>
  <circle cx="170.86201662848111" cy="36.34464504689918" r="2.4174128472908825" fill="#CFAE58" opacity="0.2186513936650269"/>
  <circle cx="535.7685520423058" cy="298.2716447068445" r="4.198375001185025" fill="#CFAE58" opacity="0.15113502089645772"/>
  <circle cx="690.0772024413175" cy="465.5186425038912" r="5.057416881798662" fill="#CFAE58" opacity="0.1825209488846828"/>
  <circle cx="274.64024457964865" cy="322.7394868644089" r="4.952540884290455" fill="#CFAE58" opacity="0.21831036141793264"/>
  <circle cx="932.6860002602266" cy="403.2045477826173" r="2.1147400782883854" fill="#CFAE58" opacity="0.1982446136304736"/>
  <circle cx="210.35292825281044" cy="545.0838627999755" r="2.4319977354835656" fill="#CFAE58" opacity="0.1728457521557758"/>
  <circle cx="231.42547681737744" cy="185.1412386057464" r="4.064153668460804" fill="#CFAE58" opacity="0.12936069349997337"/>

  <!-- Border with glow -->
  <rect x="40" y="40" width="1120" height="550" fill="none" stroke="url(#goldGradient)" stroke-width="3" rx="12" filter="url(#softGlow)"/>

  <!-- Icon circle with premium background -->
  <circle cx="150" cy="200" r="75" fill="#CFAE58" opacity="0.15" filter="url(#softGlow)"/>
  <circle cx="150" cy="200" r="70" fill="#CFAE58" opacity="0.25"/>
  <text x="150" y="235" font-size="90" text-anchor="middle" fill="#CFAE58" filter="url(#glow)">ℹ️</text>

  <!-- Premium logo (crown) with enhanced styling -->
  <g transform="translate(100, 70)">
    <path d="M 30 20 L 40 35 L 35 35 Z M 50 15 L 60 35 L 45 35 Z M 65 20 L 75 35 L 70 35 Z M 30 35 L 75 35 L 73 45 L 32 45 Z"
          fill="url(#goldGradient)" filter="url(#glow)" stroke="#B89842" stroke-width="0.5"/>
    <circle cx="40" cy="25" r="3" fill="#4FD1C5" filter="url(#glow)"/>
    <circle cx="52" cy="20" r="4" fill="#4FD1C5" filter="url(#glow)"/>
    <circle cx="65" cy="25" r="3" fill="#4FD1C5" filter="url(#glow)"/>
  </g>

  <!-- Title with shadow -->
  <text x="280" y="180" font-family="Georgia, serif" font-size="72" font-weight="bold"
        fill="url(#goldGradient)" filter="url(#shadow)">About Royal Keta</text>

  <!-- Subtitle with subtle glow -->
  <text x="280" y="230" font-family="Arial, sans-serif" font-size="36"
        fill="#D6DEE6" opacity="0.95" filter="url(#softGlow)">Our Mission, Team &amp; Values</text>

  <!-- Brand name with letter spacing -->
  <text x="280" y="300" font-family="Georgia, serif" font-size="32" font-weight="bold"
        fill="#CFAE58" letter-spacing="4" filter="url(#glow)">ROYAL KETA</text>

  <!-- Russian tagline -->
  <text x="280" y="340" font-family="Arial, sans-serif" font-size="22" font-style="italic"
        fill="#8B95A1" opacity="0.8">От икринки к королевской</text>

  <!-- Location -->
  <text x="280" y="380" font-family="Arial, sans-serif" font-size="20"
        fill="#8B95A1" opacity="0.7">Невельский район, Сахалин</text>

  <!-- Website with glow -->
  <text x="100" y="570" font-family="Arial, sans-serif" font-size="30" font-weight="bold"
        fill="#4FD1C5" filter="url(#glow)">royalketa.com</text>

  <!-- Enhanced decorative salmon silhouette -->
  <g transform="translate(950, 480)" opacity="0.2" filter="url(#softGlow)">
    <ellipse cx="0" cy="0" rx="90" ry="35" fill="#CFAE58"/>
    <path d="M 90 0 L 120 -18 L 130 0 L 120 18 Z" fill="#CFAE58"/>
    <path d="M -25 -35 L 0 -45 L 25 -35 Z" fill="#CFAE58"/>
    <ellipse cx="-50" cy="0" rx="15" ry="12" fill="#0B0F14"/>
  </g>

  <!-- Additional decorative caviar clusters -->
  <g opacity="0.2">
    <circle cx="1050" cy="120" r="6" fill="#CFAE58"/>
    <circle cx="1065" cy="115" r="5" fill="#CFAE58"/>
    <circle cx="1058" cy="130" r="4" fill="#CFAE58"/>
    <circle cx="150" cy="500" r="5" fill="#4FD1C5"/>
    <circle cx="165" cy="508" r="4" fill="#4FD1C5"/>
    <circle cx="140" cy="512" r="5" fill="#4FD1C5"/>
  </g>
</svg>