<svg width="1200" height="630" xmlns="http://www.w3.org/2000/svg">
  <defs>
    <linearGradient id="bgGradient" x1="0%" y1="0%" x2="100%" y2="100%">
      <stop offset="0%" style="stop-color:#0B0F14;stop-opacity:1" />
      <stop offset="50%" style="stop-color:#0F1619;stop-opacity:1" />
      <stop offset="100%" style="stop-color:#0F1922;stop-opacity:1" />
    </linearGradient>
    <linearGradient id="goldGradient" x1="0%" y1="0%" x2="100%" y2="0%">
      <stop offset="0%" style="stop-color:#E5D596;stop-opacity:1" />
      <stop offset="50%" style="stop-color:#CFAE58;stop-opacity:1" />
      <stop offset="100%" style="stop-color:#B89842;stop-opacity:1" />
    </linearGradient>
    <radialGradient id="oceanGradient" cx="50%" cy="50%" r="50%">
      <stop offset="0%" style="stop-color:#4FD1C5;stop-opacity:0.3" />
      <stop offset="100%" style="stop-color:#1E90A0;stop-opacity:0.05" />
    </radialGradient>
    <filter id="glow">
      <feGaussianBlur stdDeviation="5" result="coloredBlur"/>
      <feMerge>
        <feMergeNode in="coloredBlur"/>
        <feMergeNode in="SourceGraphic"/>
      </feMerge>
    </filter>
    <filter id="softGlow">
      <feGaussianBlur stdDeviation="8" result="coloredBlur"/>
      <feMerge>
        <feMergeNode in="coloredBlur"/>
        <feMergeNode in="SourceGraphic"/>
      </feMerge>
    </filter>
    <filter id="shadow">
      <feDropShadow dx="0" dy="4" stdDeviation="8" flood-color="#000000" flood-opacity="0.5"/>
    </filter>
  </defs>

  <!-- Background -->
  <rect width="1200" height="630" fill="url(#bgGradient)"/>

  <!-- Decorative ocean gradients -->
  <ellipse cx="1000" cy="150" rx="300" ry="200" fill="url(#oceanGradient)" opacity="0.4"/>
  <ellipse cx="200" cy="530" rx="250" ry="180" fill="url(#oceanGradient)" opacity="0.3"/>

  <!-- Wave patterns -->
  <path d="M 0 400 Q 300 350 600 400 T 1200 400 L 1200 630 L 0 630 Z" fill="#1E90A0" opacity="0.08"/>
  <path d="M 0 450 Q 250 420 500 450 T 1000 450 T 1200 450 L 1200 630 L 0 630 Z" fill="#4FD1C5" opacity="0.05"/>

  <!-- Caviar roe particles -->
  <circle cx="465.7228576973372" cy="114.48614935872894" r="4.686001729631691" fill="#CFAE58" opacity="0.22771930745380098"/>
  <circle cx="769.6516280159632" cy="346.5167132797283" r="2.0717945926001073" fill="#CFAE58" opacity="0.23667250357747774"/>
  <circle cx="958.037872084373" cy="392.1586464542987" r="3.4329557578199856" fill="#CFAE58" opacity="0.24737812723594402"/>
  <circle cx="821.0115993865969" cy="194.5012638656977" r="3.1739962902906163" fill="#CFAE58" opacity="0.21538326298479712"/>
  <circle cx="570.2086707671039" cy="182.73850502409906" r="4.137674680287024" fill="#CFAE58" opacity="0.22679284999015667"/>
  <circle cx="418.70456299365503" cy="365.6816653434009" r="4.295777974916412" fill="#CFAE58" opacity="0.1919791448778782"/>
  <circle cx="280.38700247250404" cy="459.18467559523606" r="4.922691453794887" fill="#CFAE58" opacity="0.23427588748938183"/>
  <circle cx="508.4922118284988" cy="199.1723544427872" r="3.4205543519841872" fill="#CFAE58" opacity="0.1623999365007826"/>
  <circle cx="431.89336176055104" cy="359.802884412651" r="2.172462830540303" fill="#CFAE58" opacity="0.2228031388013187"/>
  <circle cx="128.41054311278305" cy="112.36092559529413" r="4.847510101164918" fill="#CFAE58" opacity="0.17428856902023307"/>
  <circle cx="688.6192348271671" cy="119.32173755208751" r="4.092441155469032" fill="#CFAE58" opacity="0.12419736288938894"/>
  <circle cx="346.2145180327601" cy="425.1886716915124" r="2.975999764015434" fill="#CFAE58" opacity="0.15612207298208766"/>
  <circle cx="1121.1475692183055" cy="131.0191261036726" r="2.693860989941214" fill="#CFAE58" opacity="0.1023892780725573"/>
  <circle cx="658.3854161537882" cy="553.0465421760447" r="5.998009478798192" fill="#CFAE58" opacity="0.2387974670749908"/>
  <circle cx="211.39329568401672" cy="557.796864140287" r="5.238929273524941" fill="#CFAE58" opacity="0.15584402885355328"/>
  <circle cx="92.89705967483388" cy="544.4303439172047" r="3.462812221530335" fill="#CFAE58" opacity="0.19927451306406857"/>
  <circle cx="866.3496919702231" cy="292.8838864363459" r="3.888450486682666" fill="#CFAE58" opacity="0.18791831614156257"/>
  <circle cx="180.76526387595067" cy="463.67831491200576" r="4.064159450827869" fill="#CFAE58" opacity="0.19047508775920519"/>
  <circle cx="725.9744908732679" cy="128.32061760131663" r="4.115714150691538" fill="#CFAE58" opacity="0.2400989537370716"/>
  <circle cx="908.1753248895814" cy="432.9870758398193" r="2.236667814507985" fill="#CFAE58" opacity="0.13902583510901226"/>
  <circle cx="361.48918781208556" cy="567.9857388424007" r="3.1105956672798296" fill="#CFAE58" opacity="0.186239836198077"/>
  <circle cx="933.4539520285912" cy="351.2615666622503" r="5.259647177541305" fill="#CFAE58" opacity="0.24143943818687638"/>
  <circle cx="882.7661441734299" cy="23.878729176600874" r="2.1612552398830824" fill="#CFAE58" opacity="0.19686929555841598"/>
  <circle cx="972.7704587539621" cy="298.2826338902229" r="2.1531037082817437" fill="#CFAE58" opacity="0.11930960379890243"/>
  <circle cx="679.4338310826465" cy="207.5122680552436" r="5.1928153205070355" fill="#CFAE58" opacity="0.1679152117059739"/>
  <circle cx="960.6686282754044" cy="193.08588196356322" r="4.105844505618176" fill="#CFAE58" opacity="0.15479392855349025"/>
  <circle cx="418.4588681928252" cy="81.71983878418786" r="5.713673870759246" fill="#CFAE58" opacity="0.224850769635408"/>
  <circle cx="194.31868594087388" cy="492.49573333090495" r="3.563740978485437" fill="#CFAE58" opacity="0.1940280207644045"/>
  <circle cx="36.36657205498635" cy="360.7423008521093" r="5.123864327975177" fill="#CFAE58" opacity="0.19513856110726702"/>
  <circle cx="569.6700253736608" cy="2.0401309817220037" r="4.130988570290718" fill="#CFAE58" opacity="0.1384465656130314"/>

  <!-- Border with glow -->
  <rect x="40" y="40" width="1120" height="550" fill="none" stroke="url(#goldGradient)" stroke-width="3" rx="12" filter="url(#softGlow)"/>

  <!-- Icon circle with premium background -->
  <circle cx="150" cy="200" r="75" fill="#CFAE58" opacity="0.15" filter="url(#softGlow)"/>
  <circle cx="150" cy="200" r="70" fill="#CFAE58" opacity="0.25"/>
  <text x="150" y="235" font-size="90" text-anchor="middle" fill="#CFAE58" filter="url(#glow)">ℹ️</text>

  <!-- Premium logo (crown) with enhanced styling -->
  <g transform="translate(100, 70)">
    <path d="M 30 20 L 40 35 L 35 35 Z M 50 15 L 60 35 L 45 35 Z M 65 20 L 75 35 L 70 35 Z M 30 35 L 75 35 L 73 45 L 32 45 Z"
          fill="url(#goldGradient)" filter="url(#glow)" stroke="#B89842" stroke-width="0.5"/>
    <circle cx="40" cy="25" r="3" fill="#4FD1C5" filter="url(#glow)"/>
    <circle cx="52" cy="20" r="4" fill="#4FD1C5" filter="url(#glow)"/>
    <circle cx="65" cy="25" r="3" fill="#4FD1C5" filter="url(#glow)"/>
  </g>

  <!-- Title with shadow -->
  <text x="280" y="180" font-family="Georgia, serif" font-size="72" font-weight="bold"
        fill="url(#goldGradient)" filter="url(#shadow)">About Royal Keta</text>

  <!-- Subtitle with subtle glow -->
  <text x="280" y="230" font-family="Arial, sans-serif" font-size="36"
        fill="#D6DEE6" opacity="0.95" filter="url(#softGlow)">Our Mission, Team &amp; Values</text>

  <!-- Brand name with letter spacing -->
  <text x="280" y="300" font-family="Georgia, serif" font-size="32" font-weight="bold"
        fill="#CFAE58" letter-spacing="4" filter="url(#glow)">ROYAL KETA</text>

  <!-- Russian tagline -->
  <text x="280" y="340" font-family="Arial, sans-serif" font-size="22" font-style="italic"
        fill="#8B95A1" opacity="0.8">От икринки к королевской</text>

  <!-- Location -->
  <text x="280" y="380" font-family="Arial, sans-serif" font-size="20"
        fill="#8B95A1" opacity="0.7">Невельский район, Сахалин</text>

  <!-- Website with glow -->
  <text x="100" y="570" font-family="Arial, sans-serif" font-size="30" font-weight="bold"
        fill="#4FD1C5" filter="url(#glow)">royalketa.com</text>

  <!-- Enhanced decorative salmon silhouette -->
  <g transform="translate(950, 480)" opacity="0.2" filter="url(#softGlow)">
    <ellipse cx="0" cy="0" rx="90" ry="35" fill="#CFAE58"/>
    <path d="M 90 0 L 120 -18 L 130 0 L 120 18 Z" fill="#CFAE58"/>
    <path d="M -25 -35 L 0 -45 L 25 -35 Z" fill="#CFAE58"/>
    <ellipse cx="-50" cy="0" rx="15" ry="12" fill="#0B0F14"/>
  </g>

  <!-- Additional decorative caviar clusters -->
  <g opacity="0.2">
    <circle cx="1050" cy="120" r="6" fill="#CFAE58"/>
    <circle cx="1065" cy="115" r="5" fill="#CFAE58"/>
    <circle cx="1058" cy="130" r="4" fill="#CFAE58"/>
    <circle cx="150" cy="500" r="5" fill="#4FD1C5"/>
    <circle cx="165" cy="508" r="4" fill="#4FD1C5"/>
    <circle cx="140" cy="512" r="5" fill="#4FD1C5"/>
  </g>
</svg>