<svg width="1200" height="630" xmlns="http://www.w3.org/2000/svg">
  <defs>
    <linearGradient id="bgGradient" x1="0%" y1="0%" x2="100%" y2="100%">
      <stop offset="0%" style="stop-color:#0B0F14;stop-opacity:1" />
      <stop offset="50%" style="stop-color:#0F1619;stop-opacity:1" />
      <stop offset="100%" style="stop-color:#0F1922;stop-opacity:1" />
    </linearGradient>
    <linearGradient id="goldGradient" x1="0%" y1="0%" x2="100%" y2="0%">
      <stop offset="0%" style="stop-color:#E5D596;stop-opacity:1" />
      <stop offset="50%" style="stop-color:#CFAE58;stop-opacity:1" />
      <stop offset="100%" style="stop-color:#B89842;stop-opacity:1" />
    </linearGradient>
    <radialGradient id="oceanGradient" cx="50%" cy="50%" r="50%">
      <stop offset="0%" style="stop-color:#4FD1C5;stop-opacity:0.3" />
      <stop offset="100%" style="stop-color:#1E90A0;stop-opacity:0.05" />
    </radialGradient>
    <filter id="glow">
      <feGaussianBlur stdDeviation="5" result="coloredBlur"/>
      <feMerge>
        <feMergeNode in="coloredBlur"/>
        <feMergeNode in="SourceGraphic"/>
      </feMerge>
    </filter>
    <filter id="softGlow">
      <feGaussianBlur stdDeviation="8" result="coloredBlur"/>
      <feMerge>
        <feMergeNode in="coloredBlur"/>
        <feMergeNode in="SourceGraphic"/>
      </feMerge>
    </filter>
    <filter id="shadow">
      <feDropShadow dx="0" dy="4" stdDeviation="8" flood-color="#000000" flood-opacity="0.5"/>
    </filter>
  </defs>

  <!-- Background -->
  <rect width="1200" height="630" fill="url(#bgGradient)"/>

  <!-- Decorative ocean gradients -->
  <ellipse cx="1000" cy="150" rx="300" ry="200" fill="url(#oceanGradient)" opacity="0.4"/>
  <ellipse cx="200" cy="530" rx="250" ry="180" fill="url(#oceanGradient)" opacity="0.3"/>

  <!-- Wave patterns -->
  <path d="M 0 400 Q 300 350 600 400 T 1200 400 L 1200 630 L 0 630 Z" fill="#1E90A0" opacity="0.08"/>
  <path d="M 0 450 Q 250 420 500 450 T 1000 450 T 1200 450 L 1200 630 L 0 630 Z" fill="#4FD1C5" opacity="0.05"/>

  <!-- Caviar roe particles -->
  <circle cx="707.3096359814442" cy="301.6597718720277" r="5.649543296332192" fill="#CFAE58" opacity="0.15883073150514943"/>
  <circle cx="974.4849097465205" cy="18.539092946273588" r="4.015402929096566" fill="#CFAE58" opacity="0.1483734399530206"/>
  <circle cx="773.9797305876406" cy="202.38985273074974" r="4.963475366194777" fill="#CFAE58" opacity="0.16932896257658822"/>
  <circle cx="595.6461963684077" cy="184.47472770654923" r="2.9825639930093386" fill="#CFAE58" opacity="0.1559233814986805"/>
  <circle cx="477.99438071847095" cy="18.552022928873516" r="2.6236153945237053" fill="#CFAE58" opacity="0.24440478389691195"/>
  <circle cx="1074.295550233845" cy="82.35693138311048" r="3.0990531482924313" fill="#CFAE58" opacity="0.18425916272149706"/>
  <circle cx="745.635843951384" cy="311.68300889465684" r="4.292168831494971" fill="#CFAE58" opacity="0.24591909198426928"/>
  <circle cx="426.63262228600684" cy="574.1919106741699" r="2.172891008213883" fill="#CFAE58" opacity="0.1758470127723662"/>
  <circle cx="183.12316096132665" cy="624.6531505169337" r="4.835875719303101" fill="#CFAE58" opacity="0.21891751603946943"/>
  <circle cx="728.0512181263522" cy="455.7230654106114" r="5.406047335849194" fill="#CFAE58" opacity="0.11900202488075667"/>
  <circle cx="44.404498257503455" cy="382.2537611354641" r="2.371853124126196" fill="#CFAE58" opacity="0.13923744213076616"/>
  <circle cx="17.0358664904656" cy="211.29358537088922" r="5.268471969924878" fill="#CFAE58" opacity="0.21683896059914137"/>
  <circle cx="1114.7819971277677" cy="134.44524158665743" r="4.260668419060804" fill="#CFAE58" opacity="0.12750259402651587"/>
  <circle cx="683.3121565769571" cy="468.2915930374515" r="5.064759216583081" fill="#CFAE58" opacity="0.10155132660587839"/>
  <circle cx="735.9717403570484" cy="422.27392416753946" r="5.3316583105993365" fill="#CFAE58" opacity="0.14994053549026554"/>
  <circle cx="142.9335049286242" cy="516.3982046134892" r="5.31105618970957" fill="#CFAE58" opacity="0.1384346651600509"/>
  <circle cx="1013.7779173678297" cy="628.7054243800038" r="2.036640236888095" fill="#CFAE58" opacity="0.22970996726026732"/>
  <circle cx="352.42904358956275" cy="418.7301705467031" r="4.913237265280579" fill="#CFAE58" opacity="0.1292270147504324"/>
  <circle cx="447.82960346099054" cy="266.721450688551" r="4.83626152282475" fill="#CFAE58" opacity="0.2457260095500568"/>
  <circle cx="482.0117242056516" cy="476.45241334522046" r="4.329912756238488" fill="#CFAE58" opacity="0.14139725096492262"/>
  <circle cx="346.75097767763015" cy="79.7991752336475" r="4.330160134861135" fill="#CFAE58" opacity="0.16292358400666856"/>
  <circle cx="1001.5609032882522" cy="45.92483332224774" r="2.9983086453860173" fill="#CFAE58" opacity="0.24078351611031762"/>
  <circle cx="639.3870277935192" cy="347.73441600792376" r="2.812472445582606" fill="#CFAE58" opacity="0.23554225595772887"/>
  <circle cx="395.2963119214958" cy="577.3787868617308" r="2.4715674536131376" fill="#CFAE58" opacity="0.1752873621511255"/>
  <circle cx="314.55071416842566" cy="6.632977369447457" r="3.983339904374491" fill="#CFAE58" opacity="0.16712330087184507"/>
  <circle cx="615.1836719523883" cy="459.2481499932675" r="5.384956778983868" fill="#CFAE58" opacity="0.10253151178523086"/>
  <circle cx="20.251872001814064" cy="194.46395331197394" r="3.9354659030922488" fill="#CFAE58" opacity="0.20966630987453766"/>
  <circle cx="611.0002413508453" cy="535.787420649101" r="5.960033727101341" fill="#CFAE58" opacity="0.21583823944351124"/>
  <circle cx="170.12616798270022" cy="513.0943682066546" r="2.334734382760976" fill="#CFAE58" opacity="0.11034786995041782"/>
  <circle cx="1051.1142102862302" cy="510.879543150838" r="2.9536071170831075" fill="#CFAE58" opacity="0.16494997043236964"/>

  <!-- Border with glow -->
  <rect x="40" y="40" width="1120" height="550" fill="none" stroke="url(#goldGradient)" stroke-width="3" rx="12" filter="url(#softGlow)"/>

  <!-- Icon circle with premium background -->
  <circle cx="150" cy="200" r="75" fill="#CFAE58" opacity="0.15" filter="url(#softGlow)"/>
  <circle cx="150" cy="200" r="70" fill="#CFAE58" opacity="0.25"/>
  <text x="150" y="235" font-size="90" text-anchor="middle" fill="#CFAE58" filter="url(#glow)">ℹ️</text>

  <!-- Premium logo (crown) with enhanced styling -->
  <g transform="translate(100, 70)">
    <path d="M 30 20 L 40 35 L 35 35 Z M 50 15 L 60 35 L 45 35 Z M 65 20 L 75 35 L 70 35 Z M 30 35 L 75 35 L 73 45 L 32 45 Z"
          fill="url(#goldGradient)" filter="url(#glow)" stroke="#B89842" stroke-width="0.5"/>
    <circle cx="40" cy="25" r="3" fill="#4FD1C5" filter="url(#glow)"/>
    <circle cx="52" cy="20" r="4" fill="#4FD1C5" filter="url(#glow)"/>
    <circle cx="65" cy="25" r="3" fill="#4FD1C5" filter="url(#glow)"/>
  </g>

  <!-- Title with shadow -->
  <text x="280" y="180" font-family="Georgia, serif" font-size="72" font-weight="bold"
        fill="url(#goldGradient)" filter="url(#shadow)">About Royal Keta</text>

  <!-- Subtitle with subtle glow -->
  <text x="280" y="230" font-family="Arial, sans-serif" font-size="36"
        fill="#D6DEE6" opacity="0.95" filter="url(#softGlow)">Our Mission, Team &amp; Values</text>

  <!-- Brand name with letter spacing -->
  <text x="280" y="300" font-family="Georgia, serif" font-size="32" font-weight="bold"
        fill="#CFAE58" letter-spacing="4" filter="url(#glow)">ROYAL KETA</text>

  <!-- Russian tagline -->
  <text x="280" y="340" font-family="Arial, sans-serif" font-size="22" font-style="italic"
        fill="#8B95A1" opacity="0.8">От икринки к королевской</text>

  <!-- Location -->
  <text x="280" y="380" font-family="Arial, sans-serif" font-size="20"
        fill="#8B95A1" opacity="0.7">Невельский район, Сахалин</text>

  <!-- Website with glow -->
  <text x="100" y="570" font-family="Arial, sans-serif" font-size="30" font-weight="bold"
        fill="#4FD1C5" filter="url(#glow)">royalketa.com</text>

  <!-- Enhanced decorative salmon silhouette -->
  <g transform="translate(950, 480)" opacity="0.2" filter="url(#softGlow)">
    <ellipse cx="0" cy="0" rx="90" ry="35" fill="#CFAE58"/>
    <path d="M 90 0 L 120 -18 L 130 0 L 120 18 Z" fill="#CFAE58"/>
    <path d="M -25 -35 L 0 -45 L 25 -35 Z" fill="#CFAE58"/>
    <ellipse cx="-50" cy="0" rx="15" ry="12" fill="#0B0F14"/>
  </g>

  <!-- Additional decorative caviar clusters -->
  <g opacity="0.2">
    <circle cx="1050" cy="120" r="6" fill="#CFAE58"/>
    <circle cx="1065" cy="115" r="5" fill="#CFAE58"/>
    <circle cx="1058" cy="130" r="4" fill="#CFAE58"/>
    <circle cx="150" cy="500" r="5" fill="#4FD1C5"/>
    <circle cx="165" cy="508" r="4" fill="#4FD1C5"/>
    <circle cx="140" cy="512" r="5" fill="#4FD1C5"/>
  </g>
</svg>