<svg width="1200" height="630" xmlns="http://www.w3.org/2000/svg">
  <defs>
    <linearGradient id="bgGradient" x1="0%" y1="0%" x2="100%" y2="100%">
      <stop offset="0%" style="stop-color:#0B0F14;stop-opacity:1" />
      <stop offset="50%" style="stop-color:#0F1619;stop-opacity:1" />
      <stop offset="100%" style="stop-color:#0F1922;stop-opacity:1" />
    </linearGradient>
    <linearGradient id="goldGradient" x1="0%" y1="0%" x2="100%" y2="0%">
      <stop offset="0%" style="stop-color:#E5D596;stop-opacity:1" />
      <stop offset="50%" style="stop-color:#CFAE58;stop-opacity:1" />
      <stop offset="100%" style="stop-color:#B89842;stop-opacity:1" />
    </linearGradient>
    <radialGradient id="oceanGradient" cx="50%" cy="50%" r="50%">
      <stop offset="0%" style="stop-color:#4FD1C5;stop-opacity:0.3" />
      <stop offset="100%" style="stop-color:#1E90A0;stop-opacity:0.05" />
    </radialGradient>
    <filter id="glow">
      <feGaussianBlur stdDeviation="5" result="coloredBlur"/>
      <feMerge>
        <feMergeNode in="coloredBlur"/>
        <feMergeNode in="SourceGraphic"/>
      </feMerge>
    </filter>
    <filter id="softGlow">
      <feGaussianBlur stdDeviation="8" result="coloredBlur"/>
      <feMerge>
        <feMergeNode in="coloredBlur"/>
        <feMergeNode in="SourceGraphic"/>
      </feMerge>
    </filter>
    <filter id="shadow">
      <feDropShadow dx="0" dy="4" stdDeviation="8" flood-color="#000000" flood-opacity="0.5"/>
    </filter>
  </defs>

  <!-- Background -->
  <rect width="1200" height="630" fill="url(#bgGradient)"/>

  <!-- Decorative ocean gradients -->
  <ellipse cx="1000" cy="150" rx="300" ry="200" fill="url(#oceanGradient)" opacity="0.4"/>
  <ellipse cx="200" cy="530" rx="250" ry="180" fill="url(#oceanGradient)" opacity="0.3"/>

  <!-- Wave patterns -->
  <path d="M 0 400 Q 300 350 600 400 T 1200 400 L 1200 630 L 0 630 Z" fill="#1E90A0" opacity="0.08"/>
  <path d="M 0 450 Q 250 420 500 450 T 1000 450 T 1200 450 L 1200 630 L 0 630 Z" fill="#4FD1C5" opacity="0.05"/>

  <!-- Caviar roe particles -->
  <circle cx="179.37048378231236" cy="73.23646353047721" r="3.929928898852257" fill="#CFAE58" opacity="0.14091052065440432"/>
  <circle cx="746.2095208720943" cy="23.757932177769735" r="4.115247283072152" fill="#CFAE58" opacity="0.1496889564702863"/>
  <circle cx="1154.582283209272" cy="204.69940719257585" r="5.167752474301773" fill="#CFAE58" opacity="0.20940594918772265"/>
  <circle cx="788.6066214474141" cy="89.92066538676887" r="5.953693124927196" fill="#CFAE58" opacity="0.2443304393314337"/>
  <circle cx="932.9143739953694" cy="406.11428975971614" r="3.8968096289811003" fill="#CFAE58" opacity="0.21544749914157932"/>
  <circle cx="26.078614191642124" cy="517.4426813533147" r="2.762480689438327" fill="#CFAE58" opacity="0.1357673264706695"/>
  <circle cx="539.4449465843909" cy="531.6062533136968" r="2.770181466553292" fill="#CFAE58" opacity="0.2028000642244488"/>
  <circle cx="71.39805313999253" cy="60.84231795330261" r="4.990843610689716" fill="#CFAE58" opacity="0.10621102470573056"/>
  <circle cx="1166.8344928578767" cy="606.8860545326197" r="2.7131462764455083" fill="#CFAE58" opacity="0.23329921161656308"/>
  <circle cx="53.942266118845964" cy="13.481152596212073" r="3.917134501576747" fill="#CFAE58" opacity="0.21205544627459214"/>
  <circle cx="235.883469804478" cy="503.7354054571631" r="3.208987570392005" fill="#CFAE58" opacity="0.20978085211544562"/>
  <circle cx="75.11671534266986" cy="273.92452627726874" r="3.613242671753306" fill="#CFAE58" opacity="0.12521823892446432"/>
  <circle cx="1190.0623361555831" cy="108.79697291539446" r="2.269948841206313" fill="#CFAE58" opacity="0.13290880955868625"/>
  <circle cx="93.97419544601418" cy="590.6629910194561" r="3.031347584082331" fill="#CFAE58" opacity="0.2267692163362119"/>
  <circle cx="580.0171683932085" cy="6.82094771252695" r="3.89164257126476" fill="#CFAE58" opacity="0.23707094021797157"/>
  <circle cx="614.2994038479735" cy="311.5123510790337" r="4.52299850598099" fill="#CFAE58" opacity="0.16286047766781678"/>
  <circle cx="409.4234869280107" cy="301.92997025900706" r="3.516754770571815" fill="#CFAE58" opacity="0.24055728234248355"/>
  <circle cx="799.8667919974463" cy="591.3846332509347" r="2.828084197034306" fill="#CFAE58" opacity="0.1569150742310633"/>
  <circle cx="1089.0586481624903" cy="176.81820972314972" r="5.236163319216358" fill="#CFAE58" opacity="0.11103206161116741"/>
  <circle cx="1030.1253352582742" cy="47.04454023931616" r="5.5708294740714885" fill="#CFAE58" opacity="0.14618516666431638"/>
  <circle cx="326.74163057347664" cy="147.36913198351618" r="3.1010862443244953" fill="#CFAE58" opacity="0.23922056965537636"/>
  <circle cx="97.71877484179647" cy="606.4286121501547" r="3.0881450904352983" fill="#CFAE58" opacity="0.1523587927161594"/>
  <circle cx="384.9966013066058" cy="626.9987016623857" r="3.341259943680563" fill="#CFAE58" opacity="0.12837604774313222"/>
  <circle cx="130.46729477340682" cy="50.35761320879996" r="4.386400504226642" fill="#CFAE58" opacity="0.1953833433348549"/>
  <circle cx="83.95373873871836" cy="546.6608581873455" r="5.532260980184816" fill="#CFAE58" opacity="0.14606440868368464"/>
  <circle cx="674.2996413250579" cy="570.2848763350759" r="5.086323108318349" fill="#CFAE58" opacity="0.2497631585436965"/>
  <circle cx="1073.28742085596" cy="600.0098708598409" r="4.546020369674655" fill="#CFAE58" opacity="0.1814306472319043"/>
  <circle cx="1139.96041150267" cy="534.0740282212668" r="5.6412099660213455" fill="#CFAE58" opacity="0.18421973136889508"/>
  <circle cx="1029.5751197635436" cy="310.1642040631061" r="4.653182529623336" fill="#CFAE58" opacity="0.21135295176499508"/>
  <circle cx="750.9442403672131" cy="492.3516603742055" r="4.380631894796892" fill="#CFAE58" opacity="0.2093643531380141"/>

  <!-- Border with glow -->
  <rect x="40" y="40" width="1120" height="550" fill="none" stroke="url(#goldGradient)" stroke-width="3" rx="12" filter="url(#softGlow)"/>

  <!-- Icon circle with premium background -->
  <circle cx="150" cy="200" r="75" fill="#CFAE58" opacity="0.15" filter="url(#softGlow)"/>
  <circle cx="150" cy="200" r="70" fill="#CFAE58" opacity="0.25"/>
  <text x="150" y="235" font-size="90" text-anchor="middle" fill="#CFAE58" filter="url(#glow)">ℹ️</text>

  <!-- Premium logo (crown) with enhanced styling -->
  <g transform="translate(100, 70)">
    <path d="M 30 20 L 40 35 L 35 35 Z M 50 15 L 60 35 L 45 35 Z M 65 20 L 75 35 L 70 35 Z M 30 35 L 75 35 L 73 45 L 32 45 Z"
          fill="url(#goldGradient)" filter="url(#glow)" stroke="#B89842" stroke-width="0.5"/>
    <circle cx="40" cy="25" r="3" fill="#4FD1C5" filter="url(#glow)"/>
    <circle cx="52" cy="20" r="4" fill="#4FD1C5" filter="url(#glow)"/>
    <circle cx="65" cy="25" r="3" fill="#4FD1C5" filter="url(#glow)"/>
  </g>

  <!-- Title with shadow -->
  <text x="280" y="180" font-family="Georgia, serif" font-size="72" font-weight="bold"
        fill="url(#goldGradient)" filter="url(#shadow)">About Royal Keta</text>

  <!-- Subtitle with subtle glow -->
  <text x="280" y="230" font-family="Arial, sans-serif" font-size="36"
        fill="#D6DEE6" opacity="0.95" filter="url(#softGlow)">Our Mission, Team & Values</text>

  <!-- Brand name with letter spacing -->
  <text x="280" y="300" font-family="Georgia, serif" font-size="32" font-weight="bold"
        fill="#CFAE58" letter-spacing="4" filter="url(#glow)">ROYAL KETA</text>

  <!-- Russian tagline -->
  <text x="280" y="340" font-family="Arial, sans-serif" font-size="22" font-style="italic"
        fill="#8B95A1" opacity="0.8">От икринки к королевской</text>

  <!-- Location -->
  <text x="280" y="380" font-family="Arial, sans-serif" font-size="20"
        fill="#8B95A1" opacity="0.7">Невельский район, Сахалин</text>

  <!-- Website with glow -->
  <text x="100" y="570" font-family="Arial, sans-serif" font-size="30" font-weight="bold"
        fill="#4FD1C5" filter="url(#glow)">royalketa.com</text>

  <!-- Enhanced decorative salmon silhouette -->
  <g transform="translate(950, 480)" opacity="0.2" filter="url(#softGlow)">
    <ellipse cx="0" cy="0" rx="90" ry="35" fill="#CFAE58"/>
    <path d="M 90 0 L 120 -18 L 130 0 L 120 18 Z" fill="#CFAE58"/>
    <path d="M -25 -35 L 0 -45 L 25 -35 Z" fill="#CFAE58"/>
    <ellipse cx="-50" cy="0" rx="15" ry="12" fill="#0B0F14"/>
  </g>

  <!-- Additional decorative caviar clusters -->
  <g opacity="0.2">
    <circle cx="1050" cy="120" r="6" fill="#CFAE58"/>
    <circle cx="1065" cy="115" r="5" fill="#CFAE58"/>
    <circle cx="1058" cy="130" r="4" fill="#CFAE58"/>
    <circle cx="150" cy="500" r="5" fill="#4FD1C5"/>
    <circle cx="165" cy="508" r="4" fill="#4FD1C5"/>
    <circle cx="140" cy="512" r="5" fill="#4FD1C5"/>
  </g>
</svg>