<svg width="1200" height="630" xmlns="http://www.w3.org/2000/svg">
  <defs>
    <linearGradient id="bgGradient" x1="0%" y1="0%" x2="100%" y2="100%">
      <stop offset="0%" style="stop-color:#0B0F14;stop-opacity:1" />
      <stop offset="50%" style="stop-color:#0F1619;stop-opacity:1" />
      <stop offset="100%" style="stop-color:#0F1922;stop-opacity:1" />
    </linearGradient>
    <linearGradient id="goldGradient" x1="0%" y1="0%" x2="100%" y2="0%">
      <stop offset="0%" style="stop-color:#E5D596;stop-opacity:1" />
      <stop offset="50%" style="stop-color:#CFAE58;stop-opacity:1" />
      <stop offset="100%" style="stop-color:#B89842;stop-opacity:1" />
    </linearGradient>
    <radialGradient id="oceanGradient" cx="50%" cy="50%" r="50%">
      <stop offset="0%" style="stop-color:#4FD1C5;stop-opacity:0.3" />
      <stop offset="100%" style="stop-color:#1E90A0;stop-opacity:0.05" />
    </radialGradient>
    <filter id="glow">
      <feGaussianBlur stdDeviation="5" result="coloredBlur"/>
      <feMerge>
        <feMergeNode in="coloredBlur"/>
        <feMergeNode in="SourceGraphic"/>
      </feMerge>
    </filter>
    <filter id="softGlow">
      <feGaussianBlur stdDeviation="8" result="coloredBlur"/>
      <feMerge>
        <feMergeNode in="coloredBlur"/>
        <feMergeNode in="SourceGraphic"/>
      </feMerge>
    </filter>
    <filter id="shadow">
      <feDropShadow dx="0" dy="4" stdDeviation="8" flood-color="#000000" flood-opacity="0.5"/>
    </filter>
  </defs>

  <!-- Background -->
  <rect width="1200" height="630" fill="url(#bgGradient)"/>

  <!-- Decorative ocean gradients -->
  <ellipse cx="1000" cy="150" rx="300" ry="200" fill="url(#oceanGradient)" opacity="0.4"/>
  <ellipse cx="200" cy="530" rx="250" ry="180" fill="url(#oceanGradient)" opacity="0.3"/>

  <!-- Wave patterns -->
  <path d="M 0 400 Q 300 350 600 400 T 1200 400 L 1200 630 L 0 630 Z" fill="#1E90A0" opacity="0.08"/>
  <path d="M 0 450 Q 250 420 500 450 T 1000 450 T 1200 450 L 1200 630 L 0 630 Z" fill="#4FD1C5" opacity="0.05"/>

  <!-- Caviar roe particles -->
  <circle cx="751.2700054197787" cy="300.3260769040213" r="2.891932910961745" fill="#CFAE58" opacity="0.12150865921253234"/>
  <circle cx="310.3392181435318" cy="329.70365760200195" r="3.011674179593788" fill="#CFAE58" opacity="0.16493448621465046"/>
  <circle cx="833.4124980402261" cy="268.9514266039193" r="5.537293551269684" fill="#CFAE58" opacity="0.16426147016648768"/>
  <circle cx="693.7337079204253" cy="480.9344066042625" r="2.189524346405804" fill="#CFAE58" opacity="0.11139470089063103"/>
  <circle cx="190.63378638654095" cy="426.27291878527456" r="2.210939184037381" fill="#CFAE58" opacity="0.14673699024992418"/>
  <circle cx="507.327487211958" cy="263.4658812947122" r="5.607291165565714" fill="#CFAE58" opacity="0.1886032361698785"/>
  <circle cx="208.54545101153357" cy="588.6878476038189" r="3.7895468208930345" fill="#CFAE58" opacity="0.20946996487199376"/>
  <circle cx="339.88430545777095" cy="480.25878687820375" r="2.8355568626188297" fill="#CFAE58" opacity="0.17608265519583116"/>
  <circle cx="964.105864457631" cy="406.6937975788846" r="5.270954954845935" fill="#CFAE58" opacity="0.11009163967138172"/>
  <circle cx="954.271609331479" cy="556.3211189983926" r="2.715433605639549" fill="#CFAE58" opacity="0.13318518340072724"/>
  <circle cx="341.65039520998357" cy="227.75974872679865" r="4.235996535899117" fill="#CFAE58" opacity="0.11155559570866311"/>
  <circle cx="604.8242734622889" cy="34.68666261665369" r="2.7239845419151094" fill="#CFAE58" opacity="0.24526571945628173"/>
  <circle cx="1012.9064092355923" cy="233.6202667089451" r="3.271569653598935" fill="#CFAE58" opacity="0.1861921002568923"/>
  <circle cx="462.41778779980336" cy="123.64421738724081" r="2.3171912521718823" fill="#CFAE58" opacity="0.13150458473569"/>
  <circle cx="1117.466470557275" cy="311.1293742689406" r="5.256202817749974" fill="#CFAE58" opacity="0.11026466634688126"/>
  <circle cx="1150.4260833678818" cy="276.59505910531" r="3.7775578290143184" fill="#CFAE58" opacity="0.22318214464078956"/>
  <circle cx="1194.9150128694148" cy="100.31129241380134" r="3.830478971928554" fill="#CFAE58" opacity="0.16001879392719598"/>
  <circle cx="742.5778700794885" cy="40.948452061615754" r="3.7687749862295257" fill="#CFAE58" opacity="0.19097244703364818"/>
  <circle cx="277.5596834426497" cy="271.9369589446969" r="5.741002430867057" fill="#CFAE58" opacity="0.14129957758573644"/>
  <circle cx="138.84482936271948" cy="591.0306755007465" r="2.1641649738098487" fill="#CFAE58" opacity="0.21066290632336326"/>
  <circle cx="499.32493208754505" cy="145.540493239823" r="2.6595828450560632" fill="#CFAE58" opacity="0.13532920200639162"/>
  <circle cx="129.2982179156654" cy="363.26643629114494" r="2.4796388572696197" fill="#CFAE58" opacity="0.1640819765941427"/>
  <circle cx="125.6205669437561" cy="9.604434562635674" r="5.500133501669307" fill="#CFAE58" opacity="0.21462454425204516"/>
  <circle cx="219.87520006827833" cy="420.90955411094023" r="4.884563083743904" fill="#CFAE58" opacity="0.10909946756940608"/>
  <circle cx="814.3455654178181" cy="185.41985802364317" r="3.4243539530621656" fill="#CFAE58" opacity="0.24115966935168906"/>
  <circle cx="144.82679952377606" cy="220.8394541797897" r="4.3966883984022616" fill="#CFAE58" opacity="0.213154101494571"/>
  <circle cx="378.4804393085974" cy="540.1572530554411" r="4.545834618029147" fill="#CFAE58" opacity="0.16113373165282568"/>
  <circle cx="1027.492199207885" cy="88.05388521221548" r="5.635045081973468" fill="#CFAE58" opacity="0.17343412122163276"/>
  <circle cx="820.1992364924125" cy="90.44703589403234" r="4.292577789170672" fill="#CFAE58" opacity="0.16699177800951753"/>
  <circle cx="1186.724154897586" cy="502.303438883062" r="2.991549995285369" fill="#CFAE58" opacity="0.24408204601344805"/>

  <!-- Border with glow -->
  <rect x="40" y="40" width="1120" height="550" fill="none" stroke="url(#goldGradient)" stroke-width="3" rx="12" filter="url(#softGlow)"/>

  <!-- Icon circle with premium background -->
  <circle cx="150" cy="200" r="75" fill="#CFAE58" opacity="0.15" filter="url(#softGlow)"/>
  <circle cx="150" cy="200" r="70" fill="#CFAE58" opacity="0.25"/>
  <text x="150" y="235" font-size="90" text-anchor="middle" fill="#CFAE58" filter="url(#glow)">ℹ️</text>

  <!-- Premium logo (crown) with enhanced styling -->
  <g transform="translate(100, 70)">
    <path d="M 30 20 L 40 35 L 35 35 Z M 50 15 L 60 35 L 45 35 Z M 65 20 L 75 35 L 70 35 Z M 30 35 L 75 35 L 73 45 L 32 45 Z"
          fill="url(#goldGradient)" filter="url(#glow)" stroke="#B89842" stroke-width="0.5"/>
    <circle cx="40" cy="25" r="3" fill="#4FD1C5" filter="url(#glow)"/>
    <circle cx="52" cy="20" r="4" fill="#4FD1C5" filter="url(#glow)"/>
    <circle cx="65" cy="25" r="3" fill="#4FD1C5" filter="url(#glow)"/>
  </g>

  <!-- Title with shadow -->
  <text x="280" y="180" font-family="Georgia, serif" font-size="72" font-weight="bold"
        fill="url(#goldGradient)" filter="url(#shadow)">About Royal Keta</text>

  <!-- Subtitle with subtle glow -->
  <text x="280" y="230" font-family="Arial, sans-serif" font-size="36"
        fill="#D6DEE6" opacity="0.95" filter="url(#softGlow)">Our Mission, Team &amp; Values</text>

  <!-- Brand name with letter spacing -->
  <text x="280" y="300" font-family="Georgia, serif" font-size="32" font-weight="bold"
        fill="#CFAE58" letter-spacing="4" filter="url(#glow)">ROYAL KETA</text>

  <!-- Russian tagline -->
  <text x="280" y="340" font-family="Arial, sans-serif" font-size="22" font-style="italic"
        fill="#8B95A1" opacity="0.8">От икринки к королевской</text>

  <!-- Location -->
  <text x="280" y="380" font-family="Arial, sans-serif" font-size="20"
        fill="#8B95A1" opacity="0.7">Невельский район, Сахалин</text>

  <!-- Website with glow -->
  <text x="100" y="570" font-family="Arial, sans-serif" font-size="30" font-weight="bold"
        fill="#4FD1C5" filter="url(#glow)">royalketa.com</text>

  <!-- Enhanced decorative salmon silhouette -->
  <g transform="translate(950, 480)" opacity="0.2" filter="url(#softGlow)">
    <ellipse cx="0" cy="0" rx="90" ry="35" fill="#CFAE58"/>
    <path d="M 90 0 L 120 -18 L 130 0 L 120 18 Z" fill="#CFAE58"/>
    <path d="M -25 -35 L 0 -45 L 25 -35 Z" fill="#CFAE58"/>
    <ellipse cx="-50" cy="0" rx="15" ry="12" fill="#0B0F14"/>
  </g>

  <!-- Additional decorative caviar clusters -->
  <g opacity="0.2">
    <circle cx="1050" cy="120" r="6" fill="#CFAE58"/>
    <circle cx="1065" cy="115" r="5" fill="#CFAE58"/>
    <circle cx="1058" cy="130" r="4" fill="#CFAE58"/>
    <circle cx="150" cy="500" r="5" fill="#4FD1C5"/>
    <circle cx="165" cy="508" r="4" fill="#4FD1C5"/>
    <circle cx="140" cy="512" r="5" fill="#4FD1C5"/>
  </g>
</svg>