<svg width="1200" height="630" xmlns="http://www.w3.org/2000/svg">
  <defs>
    <linearGradient id="bgGradient" x1="0%" y1="0%" x2="100%" y2="100%">
      <stop offset="0%" style="stop-color:#0B0F14;stop-opacity:1" />
      <stop offset="50%" style="stop-color:#0F1619;stop-opacity:1" />
      <stop offset="100%" style="stop-color:#0F1922;stop-opacity:1" />
    </linearGradient>
    <linearGradient id="goldGradient" x1="0%" y1="0%" x2="100%" y2="0%">
      <stop offset="0%" style="stop-color:#E5D596;stop-opacity:1" />
      <stop offset="50%" style="stop-color:#CFAE58;stop-opacity:1" />
      <stop offset="100%" style="stop-color:#B89842;stop-opacity:1" />
    </linearGradient>
    <radialGradient id="oceanGradient" cx="50%" cy="50%" r="50%">
      <stop offset="0%" style="stop-color:#4FD1C5;stop-opacity:0.3" />
      <stop offset="100%" style="stop-color:#1E90A0;stop-opacity:0.05" />
    </radialGradient>
    <filter id="glow">
      <feGaussianBlur stdDeviation="5" result="coloredBlur"/>
      <feMerge>
        <feMergeNode in="coloredBlur"/>
        <feMergeNode in="SourceGraphic"/>
      </feMerge>
    </filter>
    <filter id="softGlow">
      <feGaussianBlur stdDeviation="8" result="coloredBlur"/>
      <feMerge>
        <feMergeNode in="coloredBlur"/>
        <feMergeNode in="SourceGraphic"/>
      </feMerge>
    </filter>
    <filter id="shadow">
      <feDropShadow dx="0" dy="4" stdDeviation="8" flood-color="#000000" flood-opacity="0.5"/>
    </filter>
  </defs>

  <!-- Background -->
  <rect width="1200" height="630" fill="url(#bgGradient)"/>

  <!-- Decorative ocean gradients -->
  <ellipse cx="1000" cy="150" rx="300" ry="200" fill="url(#oceanGradient)" opacity="0.4"/>
  <ellipse cx="200" cy="530" rx="250" ry="180" fill="url(#oceanGradient)" opacity="0.3"/>

  <!-- Wave patterns -->
  <path d="M 0 400 Q 300 350 600 400 T 1200 400 L 1200 630 L 0 630 Z" fill="#1E90A0" opacity="0.08"/>
  <path d="M 0 450 Q 250 420 500 450 T 1000 450 T 1200 450 L 1200 630 L 0 630 Z" fill="#4FD1C5" opacity="0.05"/>

  <!-- Caviar roe particles -->
  <circle cx="750.4896360941278" cy="404.9002627939459" r="2.4833651081581496" fill="#CFAE58" opacity="0.1818817650320232"/>
  <circle cx="36.378274806781704" cy="31.367377862613036" r="2.9685226502042483" fill="#CFAE58" opacity="0.13416363674106488"/>
  <circle cx="528.0811021679078" cy="254.34415251657805" r="3.192150763688854" fill="#CFAE58" opacity="0.12443701643283032"/>
  <circle cx="824.150675252575" cy="160.41543727392465" r="5.950751338442879" fill="#CFAE58" opacity="0.13667465770014617"/>
  <circle cx="434.90709984254437" cy="505.61186189478707" r="5.908196173000155" fill="#CFAE58" opacity="0.20209631202734968"/>
  <circle cx="305.15471690617875" cy="609.648231336779" r="2.59967830918391" fill="#CFAE58" opacity="0.22773312387131017"/>
  <circle cx="108.62201342123763" cy="52.84105188821491" r="3.9740159437259788" fill="#CFAE58" opacity="0.2135678887589651"/>
  <circle cx="511.86430307735094" cy="279.6177047596617" r="4.041329201375658" fill="#CFAE58" opacity="0.11017563732377872"/>
  <circle cx="149.01989187972697" cy="130.16316817392203" r="2.4470339858825865" fill="#CFAE58" opacity="0.22358421049356758"/>
  <circle cx="804.8005195937181" cy="95.1449878368733" r="4.325739908505135" fill="#CFAE58" opacity="0.16414220102867763"/>
  <circle cx="623.6856203582283" cy="543.9818837216827" r="3.278583544903958" fill="#CFAE58" opacity="0.1138315905306341"/>
  <circle cx="867.1915050465427" cy="77.36021732475146" r="4.422303790983728" fill="#CFAE58" opacity="0.18694037311024356"/>
  <circle cx="389.55793780520014" cy="408.1017676421414" r="3.5166638342089445" fill="#CFAE58" opacity="0.19824431637045165"/>
  <circle cx="148.63398283401216" cy="586.8184128601353" r="4.456197464746285" fill="#CFAE58" opacity="0.19924595091634556"/>
  <circle cx="736.346434766559" cy="253.48852817950166" r="4.3570329785486095" fill="#CFAE58" opacity="0.13761343410553675"/>
  <circle cx="556.5053881979476" cy="121.2367724389446" r="5.779050689430671" fill="#CFAE58" opacity="0.11541141608035443"/>
  <circle cx="909.9645370884781" cy="561.3092349580251" r="3.4633333600435203" fill="#CFAE58" opacity="0.1968774577302026"/>
  <circle cx="99.37447482333765" cy="494.14296233527864" r="2.735715364905275" fill="#CFAE58" opacity="0.15034432463867117"/>
  <circle cx="498.6050698683054" cy="151.8337160338417" r="4.316583044231332" fill="#CFAE58" opacity="0.2463882323457824"/>
  <circle cx="1063.588365600766" cy="474.06954292489417" r="3.9921614476105844" fill="#CFAE58" opacity="0.12288236493386415"/>
  <circle cx="1046.0105816555372" cy="129.85641228839515" r="2.222632836300667" fill="#CFAE58" opacity="0.13497623810249856"/>
  <circle cx="833.342387687168" cy="313.00236268155965" r="2.6583923787462793" fill="#CFAE58" opacity="0.13759019522960883"/>
  <circle cx="974.4308921843616" cy="504.2681032823311" r="4.513323135339853" fill="#CFAE58" opacity="0.184395867323061"/>
  <circle cx="311.2074062505435" cy="335.0013771333467" r="3.8618658733038886" fill="#CFAE58" opacity="0.1757387607096888"/>
  <circle cx="996.9864086364921" cy="606.9170429920795" r="3.63916697124673" fill="#CFAE58" opacity="0.20176206593299273"/>
  <circle cx="1123.3050109285684" cy="441.07430143318356" r="5.995710199932391" fill="#CFAE58" opacity="0.1213266624767336"/>
  <circle cx="678.1099741123475" cy="581.4711615924472" r="3.3230448519090663" fill="#CFAE58" opacity="0.22670732816880515"/>
  <circle cx="534.4056121476035" cy="182.06100112437852" r="3.857805872547354" fill="#CFAE58" opacity="0.15688540400258094"/>
  <circle cx="379.9606243087676" cy="47.430134659098016" r="3.5030723260237457" fill="#CFAE58" opacity="0.11305269113690465"/>
  <circle cx="51.332114188232495" cy="610.0435541994057" r="2.7157939986245827" fill="#CFAE58" opacity="0.17835654091801112"/>

  <!-- Border with glow -->
  <rect x="40" y="40" width="1120" height="550" fill="none" stroke="url(#goldGradient)" stroke-width="3" rx="12" filter="url(#softGlow)"/>

  <!-- Icon circle with premium background -->
  <circle cx="150" cy="200" r="75" fill="#CFAE58" opacity="0.15" filter="url(#softGlow)"/>
  <circle cx="150" cy="200" r="70" fill="#CFAE58" opacity="0.25"/>
  <text x="150" y="235" font-size="90" text-anchor="middle" fill="#CFAE58" filter="url(#glow)">ℹ️</text>

  <!-- Premium logo (crown) with enhanced styling -->
  <g transform="translate(100, 70)">
    <path d="M 30 20 L 40 35 L 35 35 Z M 50 15 L 60 35 L 45 35 Z M 65 20 L 75 35 L 70 35 Z M 30 35 L 75 35 L 73 45 L 32 45 Z"
          fill="url(#goldGradient)" filter="url(#glow)" stroke="#B89842" stroke-width="0.5"/>
    <circle cx="40" cy="25" r="3" fill="#4FD1C5" filter="url(#glow)"/>
    <circle cx="52" cy="20" r="4" fill="#4FD1C5" filter="url(#glow)"/>
    <circle cx="65" cy="25" r="3" fill="#4FD1C5" filter="url(#glow)"/>
  </g>

  <!-- Title with shadow -->
  <text x="280" y="180" font-family="Georgia, serif" font-size="72" font-weight="bold"
        fill="url(#goldGradient)" filter="url(#shadow)">About Royal Keta</text>

  <!-- Subtitle with subtle glow -->
  <text x="280" y="230" font-family="Arial, sans-serif" font-size="36"
        fill="#D6DEE6" opacity="0.95" filter="url(#softGlow)">Our Mission, Team &amp; Values</text>

  <!-- Brand name with letter spacing -->
  <text x="280" y="300" font-family="Georgia, serif" font-size="32" font-weight="bold"
        fill="#CFAE58" letter-spacing="4" filter="url(#glow)">ROYAL KETA</text>

  <!-- Russian tagline -->
  <text x="280" y="340" font-family="Arial, sans-serif" font-size="22" font-style="italic"
        fill="#8B95A1" opacity="0.8">От икринки к королевской</text>

  <!-- Location -->
  <text x="280" y="380" font-family="Arial, sans-serif" font-size="20"
        fill="#8B95A1" opacity="0.7">Невельский район, Сахалин</text>

  <!-- Website with glow -->
  <text x="100" y="570" font-family="Arial, sans-serif" font-size="30" font-weight="bold"
        fill="#4FD1C5" filter="url(#glow)">royalketa.com</text>

  <!-- Enhanced decorative salmon silhouette -->
  <g transform="translate(950, 480)" opacity="0.2" filter="url(#softGlow)">
    <ellipse cx="0" cy="0" rx="90" ry="35" fill="#CFAE58"/>
    <path d="M 90 0 L 120 -18 L 130 0 L 120 18 Z" fill="#CFAE58"/>
    <path d="M -25 -35 L 0 -45 L 25 -35 Z" fill="#CFAE58"/>
    <ellipse cx="-50" cy="0" rx="15" ry="12" fill="#0B0F14"/>
  </g>

  <!-- Additional decorative caviar clusters -->
  <g opacity="0.2">
    <circle cx="1050" cy="120" r="6" fill="#CFAE58"/>
    <circle cx="1065" cy="115" r="5" fill="#CFAE58"/>
    <circle cx="1058" cy="130" r="4" fill="#CFAE58"/>
    <circle cx="150" cy="500" r="5" fill="#4FD1C5"/>
    <circle cx="165" cy="508" r="4" fill="#4FD1C5"/>
    <circle cx="140" cy="512" r="5" fill="#4FD1C5"/>
  </g>
</svg>