<svg width="1200" height="630" xmlns="http://www.w3.org/2000/svg">
  <defs>
    <linearGradient id="bgGradient" x1="0%" y1="0%" x2="100%" y2="100%">
      <stop offset="0%" style="stop-color:#0B0F14;stop-opacity:1" />
      <stop offset="50%" style="stop-color:#0F1619;stop-opacity:1" />
      <stop offset="100%" style="stop-color:#0F1922;stop-opacity:1" />
    </linearGradient>
    <linearGradient id="goldGradient" x1="0%" y1="0%" x2="100%" y2="0%">
      <stop offset="0%" style="stop-color:#E5D596;stop-opacity:1" />
      <stop offset="50%" style="stop-color:#CFAE58;stop-opacity:1" />
      <stop offset="100%" style="stop-color:#B89842;stop-opacity:1" />
    </linearGradient>
    <radialGradient id="oceanGradient" cx="50%" cy="50%" r="50%">
      <stop offset="0%" style="stop-color:#4FD1C5;stop-opacity:0.3" />
      <stop offset="100%" style="stop-color:#1E90A0;stop-opacity:0.05" />
    </radialGradient>
    <filter id="glow">
      <feGaussianBlur stdDeviation="5" result="coloredBlur"/>
      <feMerge>
        <feMergeNode in="coloredBlur"/>
        <feMergeNode in="SourceGraphic"/>
      </feMerge>
    </filter>
    <filter id="softGlow">
      <feGaussianBlur stdDeviation="8" result="coloredBlur"/>
      <feMerge>
        <feMergeNode in="coloredBlur"/>
        <feMergeNode in="SourceGraphic"/>
      </feMerge>
    </filter>
    <filter id="shadow">
      <feDropShadow dx="0" dy="4" stdDeviation="8" flood-color="#000000" flood-opacity="0.5"/>
    </filter>
  </defs>

  <!-- Background -->
  <rect width="1200" height="630" fill="url(#bgGradient)"/>

  <!-- Decorative ocean gradients -->
  <ellipse cx="1000" cy="150" rx="300" ry="200" fill="url(#oceanGradient)" opacity="0.4"/>
  <ellipse cx="200" cy="530" rx="250" ry="180" fill="url(#oceanGradient)" opacity="0.3"/>

  <!-- Wave patterns -->
  <path d="M 0 400 Q 300 350 600 400 T 1200 400 L 1200 630 L 0 630 Z" fill="#1E90A0" opacity="0.08"/>
  <path d="M 0 450 Q 250 420 500 450 T 1000 450 T 1200 450 L 1200 630 L 0 630 Z" fill="#4FD1C5" opacity="0.05"/>

  <!-- Caviar roe particles -->
  <circle cx="718.692269427012" cy="350.62114068058827" r="4.8249824715832705" fill="#CFAE58" opacity="0.11281770798374857"/>
  <circle cx="278.58218229971544" cy="370.94304839635373" r="4.374394048263382" fill="#CFAE58" opacity="0.2308236515639225"/>
  <circle cx="797.1121624566567" cy="600.6512103487228" r="3.568447698834163" fill="#CFAE58" opacity="0.24072660880910374"/>
  <circle cx="413.4895990500967" cy="342.21782283048674" r="3.7341150003669297" fill="#CFAE58" opacity="0.15156925455404954"/>
  <circle cx="1077.2601926210896" cy="437.39752884457897" r="2.1693598604348994" fill="#CFAE58" opacity="0.22813220707081322"/>
  <circle cx="461.6357367486193" cy="35.45113201066693" r="2.9153758707185675" fill="#CFAE58" opacity="0.1491218758157325"/>
  <circle cx="987.3810387541394" cy="299.3606379459802" r="2.9531505517738363" fill="#CFAE58" opacity="0.21628496368530198"/>
  <circle cx="593.4190067983023" cy="315.89155072237503" r="3.167113163433365" fill="#CFAE58" opacity="0.15104398638513877"/>
  <circle cx="135.15372358749485" cy="428.24720210135274" r="2.6254604362654197" fill="#CFAE58" opacity="0.12566240451832725"/>
  <circle cx="448.17815218506115" cy="497.4588046911088" r="2.1754901977521985" fill="#CFAE58" opacity="0.22848866765886233"/>
  <circle cx="24.028706544589706" cy="181.73278371187538" r="5.533703652796694" fill="#CFAE58" opacity="0.11646271440480283"/>
  <circle cx="952.0506202235474" cy="22.45371658959989" r="3.0247123307921076" fill="#CFAE58" opacity="0.21117795630418038"/>
  <circle cx="190.14656509927593" cy="355.88740277702976" r="5.808809421592999" fill="#CFAE58" opacity="0.15806419255267667"/>
  <circle cx="606.2627890440133" cy="316.58820789335624" r="2.2105751271096246" fill="#CFAE58" opacity="0.16720183487765658"/>
  <circle cx="728.466495504601" cy="298.68033476996516" r="2.955910144522827" fill="#CFAE58" opacity="0.2498403859176305"/>
  <circle cx="435.3389193961604" cy="539.1479726304894" r="5.995069728037405" fill="#CFAE58" opacity="0.13374784196273704"/>
  <circle cx="93.64755179903258" cy="387.1000851157267" r="3.636049222223688" fill="#CFAE58" opacity="0.23961745694356484"/>
  <circle cx="223.1146805472398" cy="304.60505699700997" r="4.963476139980166" fill="#CFAE58" opacity="0.11832501020936807"/>
  <circle cx="1055.3793332300265" cy="103.36431892803364" r="3.061487452667496" fill="#CFAE58" opacity="0.10363928264828584"/>
  <circle cx="354.8556885214727" cy="206.8056503389215" r="2.8232346383538154" fill="#CFAE58" opacity="0.23015915890148042"/>
  <circle cx="175.4825052057118" cy="422.41415227263354" r="4.094024674607812" fill="#CFAE58" opacity="0.1358221363635593"/>
  <circle cx="330.7587133703775" cy="431.69902844771485" r="4.613988546069722" fill="#CFAE58" opacity="0.18761706857410465"/>
  <circle cx="838.1490469282586" cy="233.86547636299446" r="3.5445425790990184" fill="#CFAE58" opacity="0.20118305506957507"/>
  <circle cx="29.23976646291111" cy="161.95030441544546" r="2.7175933907219436" fill="#CFAE58" opacity="0.17843290413513357"/>
  <circle cx="1109.0944673935696" cy="325.5998698922842" r="3.3856550166045016" fill="#CFAE58" opacity="0.13326275154093004"/>
  <circle cx="92.7992036464909" cy="57.34606484494984" r="5.173507600294137" fill="#CFAE58" opacity="0.216471280523015"/>
  <circle cx="136.19786249091686" cy="3.4784815345022757" r="2.853069385509114" fill="#CFAE58" opacity="0.14929977756603366"/>
  <circle cx="187.46270236021002" cy="314.6103751213123" r="5.547526231268702" fill="#CFAE58" opacity="0.18588360051904024"/>
  <circle cx="467.30834068320314" cy="346.63098454525" r="3.3335894238177906" fill="#CFAE58" opacity="0.15191031999978044"/>
  <circle cx="1078.161752856539" cy="100.62954190176153" r="5.472234757380466" fill="#CFAE58" opacity="0.14111580892676"/>

  <!-- Border with glow -->
  <rect x="40" y="40" width="1120" height="550" fill="none" stroke="url(#goldGradient)" stroke-width="3" rx="12" filter="url(#softGlow)"/>

  <!-- Icon circle with premium background -->
  <circle cx="150" cy="200" r="75" fill="#CFAE58" opacity="0.15" filter="url(#softGlow)"/>
  <circle cx="150" cy="200" r="70" fill="#CFAE58" opacity="0.25"/>
  <text x="150" y="235" font-size="90" text-anchor="middle" fill="#CFAE58" filter="url(#glow)">ℹ️</text>

  <!-- Premium logo (crown) with enhanced styling -->
  <g transform="translate(100, 70)">
    <path d="M 30 20 L 40 35 L 35 35 Z M 50 15 L 60 35 L 45 35 Z M 65 20 L 75 35 L 70 35 Z M 30 35 L 75 35 L 73 45 L 32 45 Z"
          fill="url(#goldGradient)" filter="url(#glow)" stroke="#B89842" stroke-width="0.5"/>
    <circle cx="40" cy="25" r="3" fill="#4FD1C5" filter="url(#glow)"/>
    <circle cx="52" cy="20" r="4" fill="#4FD1C5" filter="url(#glow)"/>
    <circle cx="65" cy="25" r="3" fill="#4FD1C5" filter="url(#glow)"/>
  </g>

  <!-- Title with shadow -->
  <text x="280" y="180" font-family="Georgia, serif" font-size="72" font-weight="bold"
        fill="url(#goldGradient)" filter="url(#shadow)">About Royal Keta</text>

  <!-- Subtitle with subtle glow -->
  <text x="280" y="230" font-family="Arial, sans-serif" font-size="36"
        fill="#D6DEE6" opacity="0.95" filter="url(#softGlow)">Our Mission, Team &amp; Values</text>

  <!-- Brand name with letter spacing -->
  <text x="280" y="300" font-family="Georgia, serif" font-size="32" font-weight="bold"
        fill="#CFAE58" letter-spacing="4" filter="url(#glow)">ROYAL KETA</text>

  <!-- Russian tagline -->
  <text x="280" y="340" font-family="Arial, sans-serif" font-size="22" font-style="italic"
        fill="#8B95A1" opacity="0.8">От икринки к королевской</text>

  <!-- Location -->
  <text x="280" y="380" font-family="Arial, sans-serif" font-size="20"
        fill="#8B95A1" opacity="0.7">Невельский район, Сахалин</text>

  <!-- Website with glow -->
  <text x="100" y="570" font-family="Arial, sans-serif" font-size="30" font-weight="bold"
        fill="#4FD1C5" filter="url(#glow)">royalketa.com</text>

  <!-- Enhanced decorative salmon silhouette -->
  <g transform="translate(950, 480)" opacity="0.2" filter="url(#softGlow)">
    <ellipse cx="0" cy="0" rx="90" ry="35" fill="#CFAE58"/>
    <path d="M 90 0 L 120 -18 L 130 0 L 120 18 Z" fill="#CFAE58"/>
    <path d="M -25 -35 L 0 -45 L 25 -35 Z" fill="#CFAE58"/>
    <ellipse cx="-50" cy="0" rx="15" ry="12" fill="#0B0F14"/>
  </g>

  <!-- Additional decorative caviar clusters -->
  <g opacity="0.2">
    <circle cx="1050" cy="120" r="6" fill="#CFAE58"/>
    <circle cx="1065" cy="115" r="5" fill="#CFAE58"/>
    <circle cx="1058" cy="130" r="4" fill="#CFAE58"/>
    <circle cx="150" cy="500" r="5" fill="#4FD1C5"/>
    <circle cx="165" cy="508" r="4" fill="#4FD1C5"/>
    <circle cx="140" cy="512" r="5" fill="#4FD1C5"/>
  </g>
</svg>