<svg width="1200" height="630" xmlns="http://www.w3.org/2000/svg">
  <defs>
    <linearGradient id="bgGradient" x1="0%" y1="0%" x2="100%" y2="100%">
      <stop offset="0%" style="stop-color:#0B0F14;stop-opacity:1" />
      <stop offset="50%" style="stop-color:#0F1619;stop-opacity:1" />
      <stop offset="100%" style="stop-color:#0F1922;stop-opacity:1" />
    </linearGradient>
    <linearGradient id="goldGradient" x1="0%" y1="0%" x2="100%" y2="0%">
      <stop offset="0%" style="stop-color:#E5D596;stop-opacity:1" />
      <stop offset="50%" style="stop-color:#CFAE58;stop-opacity:1" />
      <stop offset="100%" style="stop-color:#B89842;stop-opacity:1" />
    </linearGradient>
    <radialGradient id="oceanGradient" cx="50%" cy="50%" r="50%">
      <stop offset="0%" style="stop-color:#4FD1C5;stop-opacity:0.3" />
      <stop offset="100%" style="stop-color:#1E90A0;stop-opacity:0.05" />
    </radialGradient>
    <filter id="glow">
      <feGaussianBlur stdDeviation="5" result="coloredBlur"/>
      <feMerge>
        <feMergeNode in="coloredBlur"/>
        <feMergeNode in="SourceGraphic"/>
      </feMerge>
    </filter>
    <filter id="softGlow">
      <feGaussianBlur stdDeviation="8" result="coloredBlur"/>
      <feMerge>
        <feMergeNode in="coloredBlur"/>
        <feMergeNode in="SourceGraphic"/>
      </feMerge>
    </filter>
    <filter id="shadow">
      <feDropShadow dx="0" dy="4" stdDeviation="8" flood-color="#000000" flood-opacity="0.5"/>
    </filter>
  </defs>

  <!-- Background -->
  <rect width="1200" height="630" fill="url(#bgGradient)"/>

  <!-- Decorative ocean gradients -->
  <ellipse cx="1000" cy="150" rx="300" ry="200" fill="url(#oceanGradient)" opacity="0.4"/>
  <ellipse cx="200" cy="530" rx="250" ry="180" fill="url(#oceanGradient)" opacity="0.3"/>

  <!-- Wave patterns -->
  <path d="M 0 400 Q 300 350 600 400 T 1200 400 L 1200 630 L 0 630 Z" fill="#1E90A0" opacity="0.08"/>
  <path d="M 0 450 Q 250 420 500 450 T 1000 450 T 1200 450 L 1200 630 L 0 630 Z" fill="#4FD1C5" opacity="0.05"/>

  <!-- Caviar roe particles -->
  <circle cx="579.3209025221631" cy="217.219827754194" r="4.317446573665595" fill="#CFAE58" opacity="0.20110215623387134"/>
  <circle cx="1015.1637377021373" cy="621.5641493871505" r="5.60482490567976" fill="#CFAE58" opacity="0.18855471403945073"/>
  <circle cx="1033.986665126808" cy="388.2635721848385" r="4.027453781235578" fill="#CFAE58" opacity="0.2131559049548994"/>
  <circle cx="986.5445956551519" cy="486.96505522150443" r="4.601446483115639" fill="#CFAE58" opacity="0.12974277110959442"/>
  <circle cx="1135.6754648208591" cy="11.375309831054652" r="4.959819934720944" fill="#CFAE58" opacity="0.22560451214807456"/>
  <circle cx="400.4780164211035" cy="299.41178282467314" r="2.0746198445820494" fill="#CFAE58" opacity="0.12018080422073077"/>
  <circle cx="419.4868325012799" cy="624.0745784349953" r="2.4091876723867576" fill="#CFAE58" opacity="0.18622102955157865"/>
  <circle cx="149.12632784394825" cy="256.28866828829996" r="2.7745667815212736" fill="#CFAE58" opacity="0.12329882074553009"/>
  <circle cx="482.1839961492033" cy="480.0798428087051" r="5.805165928427176" fill="#CFAE58" opacity="0.1069057982894737"/>
  <circle cx="494.3450785605352" cy="71.51277235374963" r="4.871469862270782" fill="#CFAE58" opacity="0.14073871257524637"/>
  <circle cx="871.1071436801261" cy="445.0369260881448" r="3.761274095111853" fill="#CFAE58" opacity="0.1711890769936082"/>
  <circle cx="227.51816137419252" cy="112.53812752237094" r="2.526523225954074" fill="#CFAE58" opacity="0.21098704981049166"/>
  <circle cx="383.93151308407096" cy="5.337859070237808" r="2.8999540402179336" fill="#CFAE58" opacity="0.10980372729486078"/>
  <circle cx="235.96459969404685" cy="425.43521280084866" r="5.505941150417829" fill="#CFAE58" opacity="0.19176950716350682"/>
  <circle cx="302.1794180579106" cy="306.4238661252283" r="2.357876379186309" fill="#CFAE58" opacity="0.21514940887311285"/>
  <circle cx="495.98275181597404" cy="10.221712226132754" r="3.489036654386004" fill="#CFAE58" opacity="0.11363905604317998"/>
  <circle cx="227.6775557151272" cy="421.9841320755198" r="2.9442785522290214" fill="#CFAE58" opacity="0.12908157678677407"/>
  <circle cx="382.9549829400916" cy="544.5686192506998" r="3.272259171284139" fill="#CFAE58" opacity="0.1543103661793503"/>
  <circle cx="347.99513065026207" cy="118.56991470944513" r="5.320638028133902" fill="#CFAE58" opacity="0.13771333654613566"/>
  <circle cx="890.3778306208512" cy="267.7790770244263" r="5.052386794992055" fill="#CFAE58" opacity="0.13540302356653466"/>
  <circle cx="477.729888543092" cy="369.1594438255078" r="4.400122840775902" fill="#CFAE58" opacity="0.11208183358088651"/>
  <circle cx="959.0013393620685" cy="385.46425807284123" r="5.895436125768679" fill="#CFAE58" opacity="0.1181860294353341"/>
  <circle cx="25.610430833131083" cy="227.3874011644956" r="5.892417252164096" fill="#CFAE58" opacity="0.11907446724113299"/>
  <circle cx="834.1048347104477" cy="606.2756554830545" r="5.718146164632987" fill="#CFAE58" opacity="0.18827667625228353"/>
  <circle cx="323.18247538487174" cy="361.6781484087607" r="5.635297415177593" fill="#CFAE58" opacity="0.1570660908170892"/>
  <circle cx="769.6937341242254" cy="258.8181572533925" r="4.302210983464907" fill="#CFAE58" opacity="0.22894298106604014"/>
  <circle cx="487.6512270282986" cy="549.074180528577" r="5.718533685269152" fill="#CFAE58" opacity="0.14467709950654123"/>
  <circle cx="20.0544328529924" cy="131.7680394600531" r="2.5495043152989605" fill="#CFAE58" opacity="0.14610585589393624"/>
  <circle cx="763.7903895941279" cy="49.57360404587101" r="2.303158115038067" fill="#CFAE58" opacity="0.11739768574130505"/>
  <circle cx="395.37825876437273" cy="215.41758117207925" r="2.501739091796173" fill="#CFAE58" opacity="0.22762497092605352"/>

  <!-- Border with glow -->
  <rect x="40" y="40" width="1120" height="550" fill="none" stroke="url(#goldGradient)" stroke-width="3" rx="12" filter="url(#softGlow)"/>

  <!-- Icon circle with premium background -->
  <circle cx="150" cy="200" r="75" fill="#CFAE58" opacity="0.15" filter="url(#softGlow)"/>
  <circle cx="150" cy="200" r="70" fill="#CFAE58" opacity="0.25"/>
  <text x="150" y="235" font-size="90" text-anchor="middle" fill="#CFAE58" filter="url(#glow)">ℹ️</text>

  <!-- Premium logo (crown) with enhanced styling -->
  <g transform="translate(100, 70)">
    <path d="M 30 20 L 40 35 L 35 35 Z M 50 15 L 60 35 L 45 35 Z M 65 20 L 75 35 L 70 35 Z M 30 35 L 75 35 L 73 45 L 32 45 Z"
          fill="url(#goldGradient)" filter="url(#glow)" stroke="#B89842" stroke-width="0.5"/>
    <circle cx="40" cy="25" r="3" fill="#4FD1C5" filter="url(#glow)"/>
    <circle cx="52" cy="20" r="4" fill="#4FD1C5" filter="url(#glow)"/>
    <circle cx="65" cy="25" r="3" fill="#4FD1C5" filter="url(#glow)"/>
  </g>

  <!-- Title with shadow -->
  <text x="280" y="180" font-family="Georgia, serif" font-size="72" font-weight="bold"
        fill="url(#goldGradient)" filter="url(#shadow)">About Royal Keta</text>

  <!-- Subtitle with subtle glow -->
  <text x="280" y="230" font-family="Arial, sans-serif" font-size="36"
        fill="#D6DEE6" opacity="0.95" filter="url(#softGlow)">Our Mission, Team &amp; Values</text>

  <!-- Brand name with letter spacing -->
  <text x="280" y="300" font-family="Georgia, serif" font-size="32" font-weight="bold"
        fill="#CFAE58" letter-spacing="4" filter="url(#glow)">ROYAL KETA</text>

  <!-- Russian tagline -->
  <text x="280" y="340" font-family="Arial, sans-serif" font-size="22" font-style="italic"
        fill="#8B95A1" opacity="0.8">От икринки к королевской</text>

  <!-- Location -->
  <text x="280" y="380" font-family="Arial, sans-serif" font-size="20"
        fill="#8B95A1" opacity="0.7">Невельский район, Сахалин</text>

  <!-- Website with glow -->
  <text x="100" y="570" font-family="Arial, sans-serif" font-size="30" font-weight="bold"
        fill="#4FD1C5" filter="url(#glow)">royalketa.com</text>

  <!-- Enhanced decorative salmon silhouette -->
  <g transform="translate(950, 480)" opacity="0.2" filter="url(#softGlow)">
    <ellipse cx="0" cy="0" rx="90" ry="35" fill="#CFAE58"/>
    <path d="M 90 0 L 120 -18 L 130 0 L 120 18 Z" fill="#CFAE58"/>
    <path d="M -25 -35 L 0 -45 L 25 -35 Z" fill="#CFAE58"/>
    <ellipse cx="-50" cy="0" rx="15" ry="12" fill="#0B0F14"/>
  </g>

  <!-- Additional decorative caviar clusters -->
  <g opacity="0.2">
    <circle cx="1050" cy="120" r="6" fill="#CFAE58"/>
    <circle cx="1065" cy="115" r="5" fill="#CFAE58"/>
    <circle cx="1058" cy="130" r="4" fill="#CFAE58"/>
    <circle cx="150" cy="500" r="5" fill="#4FD1C5"/>
    <circle cx="165" cy="508" r="4" fill="#4FD1C5"/>
    <circle cx="140" cy="512" r="5" fill="#4FD1C5"/>
  </g>
</svg>