<svg width="1200" height="630" xmlns="http://www.w3.org/2000/svg">
  <defs>
    <linearGradient id="bgGradient" x1="0%" y1="0%" x2="100%" y2="100%">
      <stop offset="0%" style="stop-color:#0B0F14;stop-opacity:1" />
      <stop offset="50%" style="stop-color:#0F1619;stop-opacity:1" />
      <stop offset="100%" style="stop-color:#0F1922;stop-opacity:1" />
    </linearGradient>
    <linearGradient id="goldGradient" x1="0%" y1="0%" x2="100%" y2="0%">
      <stop offset="0%" style="stop-color:#E5D596;stop-opacity:1" />
      <stop offset="50%" style="stop-color:#CFAE58;stop-opacity:1" />
      <stop offset="100%" style="stop-color:#B89842;stop-opacity:1" />
    </linearGradient>
    <radialGradient id="oceanGradient" cx="50%" cy="50%" r="50%">
      <stop offset="0%" style="stop-color:#4FD1C5;stop-opacity:0.3" />
      <stop offset="100%" style="stop-color:#1E90A0;stop-opacity:0.05" />
    </radialGradient>
    <filter id="glow">
      <feGaussianBlur stdDeviation="5" result="coloredBlur"/>
      <feMerge>
        <feMergeNode in="coloredBlur"/>
        <feMergeNode in="SourceGraphic"/>
      </feMerge>
    </filter>
    <filter id="softGlow">
      <feGaussianBlur stdDeviation="8" result="coloredBlur"/>
      <feMerge>
        <feMergeNode in="coloredBlur"/>
        <feMergeNode in="SourceGraphic"/>
      </feMerge>
    </filter>
    <filter id="shadow">
      <feDropShadow dx="0" dy="4" stdDeviation="8" flood-color="#000000" flood-opacity="0.5"/>
    </filter>
  </defs>

  <!-- Background -->
  <rect width="1200" height="630" fill="url(#bgGradient)"/>

  <!-- Decorative ocean gradients -->
  <ellipse cx="1000" cy="150" rx="300" ry="200" fill="url(#oceanGradient)" opacity="0.4"/>
  <ellipse cx="200" cy="530" rx="250" ry="180" fill="url(#oceanGradient)" opacity="0.3"/>

  <!-- Wave patterns -->
  <path d="M 0 400 Q 300 350 600 400 T 1200 400 L 1200 630 L 0 630 Z" fill="#1E90A0" opacity="0.08"/>
  <path d="M 0 450 Q 250 420 500 450 T 1000 450 T 1200 450 L 1200 630 L 0 630 Z" fill="#4FD1C5" opacity="0.05"/>

  <!-- Caviar roe particles -->
  <circle cx="311.3234589733172" cy="178.18898016084174" r="2.6787162450079856" fill="#CFAE58" opacity="0.20971482713844014"/>
  <circle cx="38.357819829929966" cy="171.69574945437745" r="2.474006808802432" fill="#CFAE58" opacity="0.2010436409997326"/>
  <circle cx="561.8662509930286" cy="469.27042470681397" r="5.412850415342575" fill="#CFAE58" opacity="0.19639926704223484"/>
  <circle cx="872.946133925411" cy="301.7569442290007" r="4.567231366250603" fill="#CFAE58" opacity="0.11891588558972409"/>
  <circle cx="160.76159919587468" cy="21.837142853311924" r="2.541624561401797" fill="#CFAE58" opacity="0.18664702281280682"/>
  <circle cx="230.62512901286885" cy="567.7895508259486" r="3.366569759311217" fill="#CFAE58" opacity="0.12145567983326976"/>
  <circle cx="1087.7551473111585" cy="333.10888129431737" r="4.744084717305829" fill="#CFAE58" opacity="0.17864345342033516"/>
  <circle cx="369.117508318728" cy="20.32990270368364" r="3.124903680772155" fill="#CFAE58" opacity="0.11404923817208576"/>
  <circle cx="669.1560559541957" cy="465.9758376544687" r="4.9894201993826375" fill="#CFAE58" opacity="0.2096349130216627"/>
  <circle cx="1085.2749666859295" cy="617.9474034560017" r="5.742327189291391" fill="#CFAE58" opacity="0.16662024966208627"/>
  <circle cx="366.83189595620036" cy="151.28434613361324" r="4.25304645865492" fill="#CFAE58" opacity="0.14110463713974603"/>
  <circle cx="610.8829492351642" cy="518.4552808070921" r="5.46389415358521" fill="#CFAE58" opacity="0.22187506922845143"/>
  <circle cx="242.5564159027107" cy="231.1928472924694" r="2.0340921513387373" fill="#CFAE58" opacity="0.22822649812087112"/>
  <circle cx="1067.8060385636222" cy="341.8040541363196" r="2.6548477425316475" fill="#CFAE58" opacity="0.1626965781710879"/>
  <circle cx="279.91325484908214" cy="283.72196657132537" r="4.034479518948309" fill="#CFAE58" opacity="0.1600654350583181"/>
  <circle cx="924.7118185943582" cy="508.6877094924754" r="4.1834442621066135" fill="#CFAE58" opacity="0.21225643716360296"/>
  <circle cx="792.5063058124688" cy="16.22748728427691" r="2.8264520679202834" fill="#CFAE58" opacity="0.22545608685177917"/>
  <circle cx="392.275957021782" cy="135.06645337290684" r="3.1525441045983755" fill="#CFAE58" opacity="0.24300200123243165"/>
  <circle cx="269.2028786830685" cy="121.7947006747642" r="5.271358417916623" fill="#CFAE58" opacity="0.2498702369563279"/>
  <circle cx="928.8399566381245" cy="193.72083231150472" r="5.595401492985835" fill="#CFAE58" opacity="0.2285144946517264"/>
  <circle cx="543.4336787923977" cy="489.3077031049494" r="4.318611207175735" fill="#CFAE58" opacity="0.21513687229174838"/>
  <circle cx="998.5252651636712" cy="25.89602785770112" r="4.887077523894623" fill="#CFAE58" opacity="0.24961367787964486"/>
  <circle cx="79.06384578459193" cy="365.31347097292263" r="5.28289429603781" fill="#CFAE58" opacity="0.14888408330925326"/>
  <circle cx="1108.3387507243992" cy="261.33070166430514" r="4.891406177190964" fill="#CFAE58" opacity="0.2132684184083959"/>
  <circle cx="847.8502463243542" cy="519.0340581104864" r="5.8253777379112215" fill="#CFAE58" opacity="0.1473672830681419"/>
  <circle cx="484.81689882056867" cy="65.91127655964911" r="4.15362212889735" fill="#CFAE58" opacity="0.14370630710928262"/>
  <circle cx="828.5219837984674" cy="285.0690231796297" r="2.490829878483619" fill="#CFAE58" opacity="0.13645993451519836"/>
  <circle cx="127.13945786186227" cy="252.83401088411674" r="2.1127674478703056" fill="#CFAE58" opacity="0.19487722071833802"/>
  <circle cx="688.2803254155733" cy="129.63969333873314" r="5.516367568553615" fill="#CFAE58" opacity="0.1955417239119724"/>
  <circle cx="22.022048396494533" cy="39.655108678337086" r="3.1911412935311034" fill="#CFAE58" opacity="0.11326547785576291"/>

  <!-- Border with glow -->
  <rect x="40" y="40" width="1120" height="550" fill="none" stroke="url(#goldGradient)" stroke-width="3" rx="12" filter="url(#softGlow)"/>

  <!-- Icon circle with premium background -->
  <circle cx="150" cy="200" r="75" fill="#CFAE58" opacity="0.15" filter="url(#softGlow)"/>
  <circle cx="150" cy="200" r="70" fill="#CFAE58" opacity="0.25"/>
  <text x="150" y="235" font-size="90" text-anchor="middle" fill="#CFAE58" filter="url(#glow)">ℹ️</text>

  <!-- Premium logo (crown) with enhanced styling -->
  <g transform="translate(100, 70)">
    <path d="M 30 20 L 40 35 L 35 35 Z M 50 15 L 60 35 L 45 35 Z M 65 20 L 75 35 L 70 35 Z M 30 35 L 75 35 L 73 45 L 32 45 Z"
          fill="url(#goldGradient)" filter="url(#glow)" stroke="#B89842" stroke-width="0.5"/>
    <circle cx="40" cy="25" r="3" fill="#4FD1C5" filter="url(#glow)"/>
    <circle cx="52" cy="20" r="4" fill="#4FD1C5" filter="url(#glow)"/>
    <circle cx="65" cy="25" r="3" fill="#4FD1C5" filter="url(#glow)"/>
  </g>

  <!-- Title with shadow -->
  <text x="280" y="180" font-family="Georgia, serif" font-size="72" font-weight="bold"
        fill="url(#goldGradient)" filter="url(#shadow)">About Royal Keta</text>

  <!-- Subtitle with subtle glow -->
  <text x="280" y="230" font-family="Arial, sans-serif" font-size="36"
        fill="#D6DEE6" opacity="0.95" filter="url(#softGlow)">Our Mission, Team &amp; Values</text>

  <!-- Brand name with letter spacing -->
  <text x="280" y="300" font-family="Georgia, serif" font-size="32" font-weight="bold"
        fill="#CFAE58" letter-spacing="4" filter="url(#glow)">ROYAL KETA</text>

  <!-- Russian tagline -->
  <text x="280" y="340" font-family="Arial, sans-serif" font-size="22" font-style="italic"
        fill="#8B95A1" opacity="0.8">От икринки к королевской</text>

  <!-- Location -->
  <text x="280" y="380" font-family="Arial, sans-serif" font-size="20"
        fill="#8B95A1" opacity="0.7">Невельский район, Сахалин</text>

  <!-- Website with glow -->
  <text x="100" y="570" font-family="Arial, sans-serif" font-size="30" font-weight="bold"
        fill="#4FD1C5" filter="url(#glow)">royalketa.com</text>

  <!-- Enhanced decorative salmon silhouette -->
  <g transform="translate(950, 480)" opacity="0.2" filter="url(#softGlow)">
    <ellipse cx="0" cy="0" rx="90" ry="35" fill="#CFAE58"/>
    <path d="M 90 0 L 120 -18 L 130 0 L 120 18 Z" fill="#CFAE58"/>
    <path d="M -25 -35 L 0 -45 L 25 -35 Z" fill="#CFAE58"/>
    <ellipse cx="-50" cy="0" rx="15" ry="12" fill="#0B0F14"/>
  </g>

  <!-- Additional decorative caviar clusters -->
  <g opacity="0.2">
    <circle cx="1050" cy="120" r="6" fill="#CFAE58"/>
    <circle cx="1065" cy="115" r="5" fill="#CFAE58"/>
    <circle cx="1058" cy="130" r="4" fill="#CFAE58"/>
    <circle cx="150" cy="500" r="5" fill="#4FD1C5"/>
    <circle cx="165" cy="508" r="4" fill="#4FD1C5"/>
    <circle cx="140" cy="512" r="5" fill="#4FD1C5"/>
  </g>
</svg>