<svg width="1200" height="630" xmlns="http://www.w3.org/2000/svg">
  <defs>
    <linearGradient id="bgGradient" x1="0%" y1="0%" x2="100%" y2="100%">
      <stop offset="0%" style="stop-color:#0B0F14;stop-opacity:1" />
      <stop offset="50%" style="stop-color:#0F1619;stop-opacity:1" />
      <stop offset="100%" style="stop-color:#0F1922;stop-opacity:1" />
    </linearGradient>
    <linearGradient id="goldGradient" x1="0%" y1="0%" x2="100%" y2="0%">
      <stop offset="0%" style="stop-color:#E5D596;stop-opacity:1" />
      <stop offset="50%" style="stop-color:#CFAE58;stop-opacity:1" />
      <stop offset="100%" style="stop-color:#B89842;stop-opacity:1" />
    </linearGradient>
    <radialGradient id="oceanGradient" cx="50%" cy="50%" r="50%">
      <stop offset="0%" style="stop-color:#4FD1C5;stop-opacity:0.3" />
      <stop offset="100%" style="stop-color:#1E90A0;stop-opacity:0.05" />
    </radialGradient>
    <filter id="glow">
      <feGaussianBlur stdDeviation="5" result="coloredBlur"/>
      <feMerge>
        <feMergeNode in="coloredBlur"/>
        <feMergeNode in="SourceGraphic"/>
      </feMerge>
    </filter>
    <filter id="softGlow">
      <feGaussianBlur stdDeviation="8" result="coloredBlur"/>
      <feMerge>
        <feMergeNode in="coloredBlur"/>
        <feMergeNode in="SourceGraphic"/>
      </feMerge>
    </filter>
    <filter id="shadow">
      <feDropShadow dx="0" dy="4" stdDeviation="8" flood-color="#000000" flood-opacity="0.5"/>
    </filter>
  </defs>

  <!-- Background -->
  <rect width="1200" height="630" fill="url(#bgGradient)"/>

  <!-- Decorative ocean gradients -->
  <ellipse cx="1000" cy="150" rx="300" ry="200" fill="url(#oceanGradient)" opacity="0.4"/>
  <ellipse cx="200" cy="530" rx="250" ry="180" fill="url(#oceanGradient)" opacity="0.3"/>

  <!-- Wave patterns -->
  <path d="M 0 400 Q 300 350 600 400 T 1200 400 L 1200 630 L 0 630 Z" fill="#1E90A0" opacity="0.08"/>
  <path d="M 0 450 Q 250 420 500 450 T 1000 450 T 1200 450 L 1200 630 L 0 630 Z" fill="#4FD1C5" opacity="0.05"/>

  <!-- Caviar roe particles -->
  <circle cx="1193.7921890031182" cy="142.75345039308297" r="3.9384611707855104" fill="#CFAE58" opacity="0.14160909064007993"/>
  <circle cx="694.9867751319606" cy="90.06822227777795" r="2.6371615382228093" fill="#CFAE58" opacity="0.15558805445932827"/>
  <circle cx="659.6802204677726" cy="33.45358505610491" r="5.972759484099701" fill="#CFAE58" opacity="0.1096635143031804"/>
  <circle cx="996.9751208436518" cy="378.55992664713546" r="3.9353209561636557" fill="#CFAE58" opacity="0.21020970405754663"/>
  <circle cx="728.716073074421" cy="284.403916549402" r="4.3414032407845085" fill="#CFAE58" opacity="0.21435489319629175"/>
  <circle cx="297.25447833573486" cy="458.9249852705016" r="5.923145528921111" fill="#CFAE58" opacity="0.10481403386303584"/>
  <circle cx="126.6463146474691" cy="534.9021134514735" r="2.123728166718047" fill="#CFAE58" opacity="0.23174006182696005"/>
  <circle cx="1014.3963214130124" cy="55.393412554345346" r="5.91149483004333" fill="#CFAE58" opacity="0.2046422606977581"/>
  <circle cx="625.1622395294106" cy="554.9727865895013" r="3.591835501122727" fill="#CFAE58" opacity="0.13355632553484997"/>
  <circle cx="887.5965904420998" cy="176.25636948620502" r="3.4172213682178505" fill="#CFAE58" opacity="0.1707960200029467"/>
  <circle cx="808.5291702931419" cy="246.268714063823" r="2.0689367279945765" fill="#CFAE58" opacity="0.15687786946613694"/>
  <circle cx="893.8007152664329" cy="350.06778247028853" r="3.9813229113313433" fill="#CFAE58" opacity="0.18499645679201812"/>
  <circle cx="688.8302548934693" cy="259.06567366658345" r="3.604656988790987" fill="#CFAE58" opacity="0.1638099918420822"/>
  <circle cx="1153.5198190720212" cy="590.3466317773718" r="5.237559718564753" fill="#CFAE58" opacity="0.24766221992913623"/>
  <circle cx="240.77625298061508" cy="340.06639014366937" r="4.911232477315368" fill="#CFAE58" opacity="0.20801764485574545"/>
  <circle cx="317.25343557978977" cy="45.00920953991058" r="3.099691434801046" fill="#CFAE58" opacity="0.12815835579403212"/>
  <circle cx="596.099858695258" cy="238.03112950005504" r="4.51390206710138" fill="#CFAE58" opacity="0.15754921974802696"/>
  <circle cx="24.328820347728453" cy="277.27476933731316" r="5.387416685585042" fill="#CFAE58" opacity="0.12913223387532638"/>
  <circle cx="293.98825304667275" cy="195.55172427555593" r="5.690686520116085" fill="#CFAE58" opacity="0.17065276250975808"/>
  <circle cx="709.1742060609995" cy="487.81628407556593" r="3.2071457434421653" fill="#CFAE58" opacity="0.19231196206183787"/>
  <circle cx="599.6582657460107" cy="463.44990285864463" r="3.288359913594994" fill="#CFAE58" opacity="0.1693743275654792"/>
  <circle cx="726.9777411700841" cy="507.5721998930565" r="2.1178270929711687" fill="#CFAE58" opacity="0.14303160016862398"/>
  <circle cx="1058.2366968867368" cy="200.59584418019173" r="2.148590910714174" fill="#CFAE58" opacity="0.15133894791068692"/>
  <circle cx="579.3750495767388" cy="541.1725306522101" r="5.582561145003954" fill="#CFAE58" opacity="0.24850473579945265"/>
  <circle cx="536.3876460178117" cy="299.77549998568855" r="2.2588186770285796" fill="#CFAE58" opacity="0.11430927113429547"/>
  <circle cx="1.555399979452421" cy="195.815563891268" r="5.268847284735456" fill="#CFAE58" opacity="0.21571030662448604"/>
  <circle cx="1108.5834459544378" cy="611.7479831846847" r="2.8420019765138234" fill="#CFAE58" opacity="0.1461038025922061"/>
  <circle cx="1134.0133011115245" cy="444.2423306684545" r="2.2023645818402153" fill="#CFAE58" opacity="0.18278495445235465"/>
  <circle cx="303.4266119858799" cy="606.269559481597" r="3.716573646730496" fill="#CFAE58" opacity="0.23864888189052663"/>
  <circle cx="1006.79216517487" cy="110.65777965529126" r="3.5180938748485637" fill="#CFAE58" opacity="0.24294033186805908"/>

  <!-- Border with glow -->
  <rect x="40" y="40" width="1120" height="550" fill="none" stroke="url(#goldGradient)" stroke-width="3" rx="12" filter="url(#softGlow)"/>

  <!-- Icon circle with premium background -->
  <circle cx="150" cy="200" r="75" fill="#CFAE58" opacity="0.15" filter="url(#softGlow)"/>
  <circle cx="150" cy="200" r="70" fill="#CFAE58" opacity="0.25"/>
  <text x="150" y="235" font-size="90" text-anchor="middle" fill="#CFAE58" filter="url(#glow)">ℹ️</text>

  <!-- Premium logo (crown) with enhanced styling -->
  <g transform="translate(100, 70)">
    <path d="M 30 20 L 40 35 L 35 35 Z M 50 15 L 60 35 L 45 35 Z M 65 20 L 75 35 L 70 35 Z M 30 35 L 75 35 L 73 45 L 32 45 Z"
          fill="url(#goldGradient)" filter="url(#glow)" stroke="#B89842" stroke-width="0.5"/>
    <circle cx="40" cy="25" r="3" fill="#4FD1C5" filter="url(#glow)"/>
    <circle cx="52" cy="20" r="4" fill="#4FD1C5" filter="url(#glow)"/>
    <circle cx="65" cy="25" r="3" fill="#4FD1C5" filter="url(#glow)"/>
  </g>

  <!-- Title with shadow -->
  <text x="280" y="180" font-family="Georgia, serif" font-size="72" font-weight="bold"
        fill="url(#goldGradient)" filter="url(#shadow)">About Royal Keta</text>

  <!-- Subtitle with subtle glow -->
  <text x="280" y="230" font-family="Arial, sans-serif" font-size="36"
        fill="#D6DEE6" opacity="0.95" filter="url(#softGlow)">Our Mission, Team &amp; Values</text>

  <!-- Brand name with letter spacing -->
  <text x="280" y="300" font-family="Georgia, serif" font-size="32" font-weight="bold"
        fill="#CFAE58" letter-spacing="4" filter="url(#glow)">ROYAL KETA</text>

  <!-- Russian tagline -->
  <text x="280" y="340" font-family="Arial, sans-serif" font-size="22" font-style="italic"
        fill="#8B95A1" opacity="0.8">От икринки к королевской</text>

  <!-- Location -->
  <text x="280" y="380" font-family="Arial, sans-serif" font-size="20"
        fill="#8B95A1" opacity="0.7">Невельский район, Сахалин</text>

  <!-- Website with glow -->
  <text x="100" y="570" font-family="Arial, sans-serif" font-size="30" font-weight="bold"
        fill="#4FD1C5" filter="url(#glow)">royalketa.com</text>

  <!-- Enhanced decorative salmon silhouette -->
  <g transform="translate(950, 480)" opacity="0.2" filter="url(#softGlow)">
    <ellipse cx="0" cy="0" rx="90" ry="35" fill="#CFAE58"/>
    <path d="M 90 0 L 120 -18 L 130 0 L 120 18 Z" fill="#CFAE58"/>
    <path d="M -25 -35 L 0 -45 L 25 -35 Z" fill="#CFAE58"/>
    <ellipse cx="-50" cy="0" rx="15" ry="12" fill="#0B0F14"/>
  </g>

  <!-- Additional decorative caviar clusters -->
  <g opacity="0.2">
    <circle cx="1050" cy="120" r="6" fill="#CFAE58"/>
    <circle cx="1065" cy="115" r="5" fill="#CFAE58"/>
    <circle cx="1058" cy="130" r="4" fill="#CFAE58"/>
    <circle cx="150" cy="500" r="5" fill="#4FD1C5"/>
    <circle cx="165" cy="508" r="4" fill="#4FD1C5"/>
    <circle cx="140" cy="512" r="5" fill="#4FD1C5"/>
  </g>
</svg>