<svg width="1200" height="630" xmlns="http://www.w3.org/2000/svg">
  <defs>
    <linearGradient id="bgGradient" x1="0%" y1="0%" x2="100%" y2="100%">
      <stop offset="0%" style="stop-color:#0B0F14;stop-opacity:1" />
      <stop offset="50%" style="stop-color:#0F1619;stop-opacity:1" />
      <stop offset="100%" style="stop-color:#0F1922;stop-opacity:1" />
    </linearGradient>
    <linearGradient id="goldGradient" x1="0%" y1="0%" x2="100%" y2="0%">
      <stop offset="0%" style="stop-color:#E5D596;stop-opacity:1" />
      <stop offset="50%" style="stop-color:#CFAE58;stop-opacity:1" />
      <stop offset="100%" style="stop-color:#B89842;stop-opacity:1" />
    </linearGradient>
    <radialGradient id="oceanGradient" cx="50%" cy="50%" r="50%">
      <stop offset="0%" style="stop-color:#4FD1C5;stop-opacity:0.3" />
      <stop offset="100%" style="stop-color:#1E90A0;stop-opacity:0.05" />
    </radialGradient>
    <filter id="glow">
      <feGaussianBlur stdDeviation="5" result="coloredBlur"/>
      <feMerge>
        <feMergeNode in="coloredBlur"/>
        <feMergeNode in="SourceGraphic"/>
      </feMerge>
    </filter>
    <filter id="softGlow">
      <feGaussianBlur stdDeviation="8" result="coloredBlur"/>
      <feMerge>
        <feMergeNode in="coloredBlur"/>
        <feMergeNode in="SourceGraphic"/>
      </feMerge>
    </filter>
    <filter id="shadow">
      <feDropShadow dx="0" dy="4" stdDeviation="8" flood-color="#000000" flood-opacity="0.5"/>
    </filter>
  </defs>

  <!-- Background -->
  <rect width="1200" height="630" fill="url(#bgGradient)"/>

  <!-- Decorative ocean gradients -->
  <ellipse cx="1000" cy="150" rx="300" ry="200" fill="url(#oceanGradient)" opacity="0.4"/>
  <ellipse cx="200" cy="530" rx="250" ry="180" fill="url(#oceanGradient)" opacity="0.3"/>

  <!-- Wave patterns -->
  <path d="M 0 400 Q 300 350 600 400 T 1200 400 L 1200 630 L 0 630 Z" fill="#1E90A0" opacity="0.08"/>
  <path d="M 0 450 Q 250 420 500 450 T 1000 450 T 1200 450 L 1200 630 L 0 630 Z" fill="#4FD1C5" opacity="0.05"/>

  <!-- Caviar roe particles -->
  <circle cx="150.3387614344854" cy="107.01965569680615" r="5.6308531224613985" fill="#CFAE58" opacity="0.12220076742258221"/>
  <circle cx="441.0625329266165" cy="562.69601965971" r="2.974536189691902" fill="#CFAE58" opacity="0.11015149585454312"/>
  <circle cx="503.4599686497662" cy="138.41663867451882" r="3.112968005964362" fill="#CFAE58" opacity="0.16382976313496916"/>
  <circle cx="199.1356382221622" cy="264.7070063099109" r="4.902823433605967" fill="#CFAE58" opacity="0.2486601505345152"/>
  <circle cx="642.2131399315864" cy="376.118335998478" r="4.352410091737235" fill="#CFAE58" opacity="0.2135619189305882"/>
  <circle cx="608.4937817720173" cy="377.89921705710753" r="3.141486796192587" fill="#CFAE58" opacity="0.1704761444200117"/>
  <circle cx="14.703397312710731" cy="214.27874081340698" r="3.93451318143583" fill="#CFAE58" opacity="0.1940960326434685"/>
  <circle cx="784.0270735891484" cy="340.77717526504404" r="2.9768534074536737" fill="#CFAE58" opacity="0.2309566096059487"/>
  <circle cx="918.7425803501964" cy="239.3167459315967" r="5.348381736397163" fill="#CFAE58" opacity="0.1708109941108326"/>
  <circle cx="867.8482665005279" cy="2.4727100047439254" r="2.0662287400947648" fill="#CFAE58" opacity="0.18042842535058498"/>
  <circle cx="1062.6537947754582" cy="147.09976880543942" r="3.0395300908915592" fill="#CFAE58" opacity="0.12440955607996305"/>
  <circle cx="3.3743505876956625" cy="400.8998876150109" r="5.888448883804939" fill="#CFAE58" opacity="0.17310532603865397"/>
  <circle cx="683.5569026665048" cy="392.7136280307043" r="5.1867250310326725" fill="#CFAE58" opacity="0.23769056936291058"/>
  <circle cx="663.8315211415579" cy="144.55817592207202" r="4.829807285630479" fill="#CFAE58" opacity="0.19542506058870873"/>
  <circle cx="204.1594842279884" cy="317.48204356427163" r="3.1219701417860737" fill="#CFAE58" opacity="0.21082513005754994"/>
  <circle cx="766.3992905527671" cy="110.2517872454512" r="4.738353313776635" fill="#CFAE58" opacity="0.18076637459602463"/>
  <circle cx="710.0831072305682" cy="99.72078124696819" r="2.3878777756753404" fill="#CFAE58" opacity="0.1673884319608812"/>
  <circle cx="819.3614630655107" cy="550.194669462203" r="4.234852787761068" fill="#CFAE58" opacity="0.11263810878274871"/>
  <circle cx="817.6570711499861" cy="549.9113389774317" r="2.122135383625759" fill="#CFAE58" opacity="0.19118398897566807"/>
  <circle cx="868.3266372104423" cy="395.8890141410287" r="3.6125490643660614" fill="#CFAE58" opacity="0.18501154791947205"/>
  <circle cx="188.86596700810134" cy="121.41906703312446" r="3.988767814558954" fill="#CFAE58" opacity="0.16725405283544925"/>
  <circle cx="997.5014947164866" cy="532.2307933369933" r="4.617215475133617" fill="#CFAE58" opacity="0.1174128183940503"/>
  <circle cx="277.51314696802353" cy="1.9579165316302216" r="3.281514365197335" fill="#CFAE58" opacity="0.13502003688218156"/>
  <circle cx="744.5809314553259" cy="312.1327508549059" r="5.81812623947867" fill="#CFAE58" opacity="0.2357672410017488"/>
  <circle cx="706.5883427842737" cy="457.8633844408032" r="5.130217501698187" fill="#CFAE58" opacity="0.2056521375220329"/>
  <circle cx="49.7513956920713" cy="202.71551515971822" r="4.298614881686854" fill="#CFAE58" opacity="0.14089003535036088"/>
  <circle cx="119.49789207697962" cy="190.66483304793758" r="4.063329607324136" fill="#CFAE58" opacity="0.15431946369950061"/>
  <circle cx="250.99595926613256" cy="120.96710524550994" r="2.273074190758538" fill="#CFAE58" opacity="0.17381643711033595"/>
  <circle cx="254.63552781721265" cy="372.685271916727" r="5.4519216973484745" fill="#CFAE58" opacity="0.15676992243388552"/>
  <circle cx="1124.8275272409903" cy="60.63352505645551" r="4.0667178389892555" fill="#CFAE58" opacity="0.2134102588580054"/>

  <!-- Border with glow -->
  <rect x="40" y="40" width="1120" height="550" fill="none" stroke="url(#goldGradient)" stroke-width="3" rx="12" filter="url(#softGlow)"/>

  <!-- Icon circle with premium background -->
  <circle cx="150" cy="200" r="75" fill="#CFAE58" opacity="0.15" filter="url(#softGlow)"/>
  <circle cx="150" cy="200" r="70" fill="#CFAE58" opacity="0.25"/>
  <text x="150" y="235" font-size="90" text-anchor="middle" fill="#CFAE58" filter="url(#glow)">ℹ️</text>

  <!-- Premium logo (crown) with enhanced styling -->
  <g transform="translate(100, 70)">
    <path d="M 30 20 L 40 35 L 35 35 Z M 50 15 L 60 35 L 45 35 Z M 65 20 L 75 35 L 70 35 Z M 30 35 L 75 35 L 73 45 L 32 45 Z"
          fill="url(#goldGradient)" filter="url(#glow)" stroke="#B89842" stroke-width="0.5"/>
    <circle cx="40" cy="25" r="3" fill="#4FD1C5" filter="url(#glow)"/>
    <circle cx="52" cy="20" r="4" fill="#4FD1C5" filter="url(#glow)"/>
    <circle cx="65" cy="25" r="3" fill="#4FD1C5" filter="url(#glow)"/>
  </g>

  <!-- Title with shadow -->
  <text x="280" y="180" font-family="Georgia, serif" font-size="72" font-weight="bold"
        fill="url(#goldGradient)" filter="url(#shadow)">About Royal Keta</text>

  <!-- Subtitle with subtle glow -->
  <text x="280" y="230" font-family="Arial, sans-serif" font-size="36"
        fill="#D6DEE6" opacity="0.95" filter="url(#softGlow)">Our Mission, Team & Values</text>

  <!-- Brand name with letter spacing -->
  <text x="280" y="300" font-family="Georgia, serif" font-size="32" font-weight="bold"
        fill="#CFAE58" letter-spacing="4" filter="url(#glow)">ROYAL KETA</text>

  <!-- Russian tagline -->
  <text x="280" y="340" font-family="Arial, sans-serif" font-size="22" font-style="italic"
        fill="#8B95A1" opacity="0.8">От икринки к королевской</text>

  <!-- Location -->
  <text x="280" y="380" font-family="Arial, sans-serif" font-size="20"
        fill="#8B95A1" opacity="0.7">Невельский район, Сахалин</text>

  <!-- Website with glow -->
  <text x="100" y="570" font-family="Arial, sans-serif" font-size="30" font-weight="bold"
        fill="#4FD1C5" filter="url(#glow)">royalketa.com</text>

  <!-- Enhanced decorative salmon silhouette -->
  <g transform="translate(950, 480)" opacity="0.2" filter="url(#softGlow)">
    <ellipse cx="0" cy="0" rx="90" ry="35" fill="#CFAE58"/>
    <path d="M 90 0 L 120 -18 L 130 0 L 120 18 Z" fill="#CFAE58"/>
    <path d="M -25 -35 L 0 -45 L 25 -35 Z" fill="#CFAE58"/>
    <ellipse cx="-50" cy="0" rx="15" ry="12" fill="#0B0F14"/>
  </g>

  <!-- Additional decorative caviar clusters -->
  <g opacity="0.2">
    <circle cx="1050" cy="120" r="6" fill="#CFAE58"/>
    <circle cx="1065" cy="115" r="5" fill="#CFAE58"/>
    <circle cx="1058" cy="130" r="4" fill="#CFAE58"/>
    <circle cx="150" cy="500" r="5" fill="#4FD1C5"/>
    <circle cx="165" cy="508" r="4" fill="#4FD1C5"/>
    <circle cx="140" cy="512" r="5" fill="#4FD1C5"/>
  </g>
</svg>