<svg width="1200" height="630" xmlns="http://www.w3.org/2000/svg">
  <defs>
    <linearGradient id="bgGradient" x1="0%" y1="0%" x2="100%" y2="100%">
      <stop offset="0%" style="stop-color:#0B0F14;stop-opacity:1" />
      <stop offset="50%" style="stop-color:#0F1619;stop-opacity:1" />
      <stop offset="100%" style="stop-color:#0F1922;stop-opacity:1" />
    </linearGradient>
    <linearGradient id="goldGradient" x1="0%" y1="0%" x2="100%" y2="0%">
      <stop offset="0%" style="stop-color:#E5D596;stop-opacity:1" />
      <stop offset="50%" style="stop-color:#CFAE58;stop-opacity:1" />
      <stop offset="100%" style="stop-color:#B89842;stop-opacity:1" />
    </linearGradient>
    <radialGradient id="oceanGradient" cx="50%" cy="50%" r="50%">
      <stop offset="0%" style="stop-color:#4FD1C5;stop-opacity:0.3" />
      <stop offset="100%" style="stop-color:#1E90A0;stop-opacity:0.05" />
    </radialGradient>
    <filter id="glow">
      <feGaussianBlur stdDeviation="5" result="coloredBlur"/>
      <feMerge>
        <feMergeNode in="coloredBlur"/>
        <feMergeNode in="SourceGraphic"/>
      </feMerge>
    </filter>
    <filter id="softGlow">
      <feGaussianBlur stdDeviation="8" result="coloredBlur"/>
      <feMerge>
        <feMergeNode in="coloredBlur"/>
        <feMergeNode in="SourceGraphic"/>
      </feMerge>
    </filter>
    <filter id="shadow">
      <feDropShadow dx="0" dy="4" stdDeviation="8" flood-color="#000000" flood-opacity="0.5"/>
    </filter>
  </defs>

  <!-- Background -->
  <rect width="1200" height="630" fill="url(#bgGradient)"/>

  <!-- Decorative ocean gradients -->
  <ellipse cx="1000" cy="150" rx="300" ry="200" fill="url(#oceanGradient)" opacity="0.4"/>
  <ellipse cx="200" cy="530" rx="250" ry="180" fill="url(#oceanGradient)" opacity="0.3"/>

  <!-- Wave patterns -->
  <path d="M 0 400 Q 300 350 600 400 T 1200 400 L 1200 630 L 0 630 Z" fill="#1E90A0" opacity="0.08"/>
  <path d="M 0 450 Q 250 420 500 450 T 1000 450 T 1200 450 L 1200 630 L 0 630 Z" fill="#4FD1C5" opacity="0.05"/>

  <!-- Caviar roe particles -->
  <circle cx="857.7078830172454" cy="518.7479797582527" r="3.3616100309014865" fill="#CFAE58" opacity="0.15355936651058766"/>
  <circle cx="628.5934267568988" cy="62.737816869750155" r="4.8333235572983275" fill="#CFAE58" opacity="0.1647461788730088"/>
  <circle cx="1027.359295447526" cy="372.0997232357561" r="3.8792630217333226" fill="#CFAE58" opacity="0.12500943135329265"/>
  <circle cx="3.47175430790303" cy="228.48427800490336" r="2.5821874014150294" fill="#CFAE58" opacity="0.19909556772466402"/>
  <circle cx="578.7202576476517" cy="6.302769182478869" r="5.330136144262664" fill="#CFAE58" opacity="0.12072605413424571"/>
  <circle cx="1110.374608609513" cy="256.74189010414085" r="4.416554507060738" fill="#CFAE58" opacity="0.1777762734061903"/>
  <circle cx="1187.315638757811" cy="65.12159644133126" r="5.470670806491538" fill="#CFAE58" opacity="0.1305588353638228"/>
  <circle cx="843.9437438910506" cy="106.59458780552141" r="4.622670278910056" fill="#CFAE58" opacity="0.1333656913930072"/>
  <circle cx="884.4555099652559" cy="354.3903267546424" r="5.472819303949733" fill="#CFAE58" opacity="0.18274072581887424"/>
  <circle cx="131.36691717903693" cy="460.22453949796915" r="2.767746728204437" fill="#CFAE58" opacity="0.22342836283108997"/>
  <circle cx="216.16127058807652" cy="490.47977656814516" r="2.483728393257496" fill="#CFAE58" opacity="0.18931352359986464"/>
  <circle cx="259.4605485498395" cy="40.51247366312232" r="2.1078053150125067" fill="#CFAE58" opacity="0.1551894596285019"/>
  <circle cx="100.09479087659247" cy="370.19609617495405" r="4.195715933467582" fill="#CFAE58" opacity="0.1930648657667788"/>
  <circle cx="23.60745781505944" cy="434.20347541442493" r="4.94009162732496" fill="#CFAE58" opacity="0.17887803689339066"/>
  <circle cx="241.6656068862813" cy="104.34242992725169" r="5.701975801998237" fill="#CFAE58" opacity="0.19664863439795122"/>
  <circle cx="626.5644269303655" cy="144.5088146448559" r="2.2921822920985004" fill="#CFAE58" opacity="0.21131406281700038"/>
  <circle cx="195.01655482468666" cy="255.22688270277243" r="4.808265204702596" fill="#CFAE58" opacity="0.11971718596754555"/>
  <circle cx="150.8388084509514" cy="205.47178317939378" r="2.4521457846006633" fill="#CFAE58" opacity="0.1503993886689324"/>
  <circle cx="783.6703675395851" cy="522.8690209303097" r="3.095000843147954" fill="#CFAE58" opacity="0.14213882388098042"/>
  <circle cx="799.036455639303" cy="84.93522402269622" r="5.756898150809328" fill="#CFAE58" opacity="0.12553493334446256"/>
  <circle cx="849.873542091666" cy="162.86362905031152" r="4.929827833327587" fill="#CFAE58" opacity="0.13736992672154974"/>
  <circle cx="514.2024870774569" cy="230.56982622162684" r="4.687920860987472" fill="#CFAE58" opacity="0.15628509347248098"/>
  <circle cx="473.2961168197674" cy="423.9744145004764" r="2.9625849522037013" fill="#CFAE58" opacity="0.2025148197418568"/>
  <circle cx="922.5071443075816" cy="229.13268872465667" r="3.464035399986747" fill="#CFAE58" opacity="0.1660673041181453"/>
  <circle cx="1078.8161937169293" cy="187.52653581549697" r="5.537035123042405" fill="#CFAE58" opacity="0.14193832124535244"/>
  <circle cx="908.8931166510531" cy="134.4582778431138" r="2.5351828728355956" fill="#CFAE58" opacity="0.18005915779533788"/>
  <circle cx="578.7341335310177" cy="504.45480530613446" r="4.891359356281731" fill="#CFAE58" opacity="0.19147042477893242"/>
  <circle cx="730.3890817352802" cy="237.7278094645155" r="3.939295543971383" fill="#CFAE58" opacity="0.19326599563874103"/>
  <circle cx="876.0943437984423" cy="219.86746867509555" r="2.666507618689936" fill="#CFAE58" opacity="0.21611970740992056"/>
  <circle cx="736.9230428844935" cy="520.6506915090797" r="3.9303952254015533" fill="#CFAE58" opacity="0.172433480493831"/>

  <!-- Border with glow -->
  <rect x="40" y="40" width="1120" height="550" fill="none" stroke="url(#goldGradient)" stroke-width="3" rx="12" filter="url(#softGlow)"/>

  <!-- Icon circle with premium background -->
  <circle cx="150" cy="200" r="75" fill="#CFAE58" opacity="0.15" filter="url(#softGlow)"/>
  <circle cx="150" cy="200" r="70" fill="#CFAE58" opacity="0.25"/>
  <text x="150" y="235" font-size="90" text-anchor="middle" fill="#CFAE58" filter="url(#glow)">ℹ️</text>

  <!-- Premium logo (crown) with enhanced styling -->
  <g transform="translate(100, 70)">
    <path d="M 30 20 L 40 35 L 35 35 Z M 50 15 L 60 35 L 45 35 Z M 65 20 L 75 35 L 70 35 Z M 30 35 L 75 35 L 73 45 L 32 45 Z"
          fill="url(#goldGradient)" filter="url(#glow)" stroke="#B89842" stroke-width="0.5"/>
    <circle cx="40" cy="25" r="3" fill="#4FD1C5" filter="url(#glow)"/>
    <circle cx="52" cy="20" r="4" fill="#4FD1C5" filter="url(#glow)"/>
    <circle cx="65" cy="25" r="3" fill="#4FD1C5" filter="url(#glow)"/>
  </g>

  <!-- Title with shadow -->
  <text x="280" y="180" font-family="Georgia, serif" font-size="72" font-weight="bold"
        fill="url(#goldGradient)" filter="url(#shadow)">About Royal Keta</text>

  <!-- Subtitle with subtle glow -->
  <text x="280" y="230" font-family="Arial, sans-serif" font-size="36"
        fill="#D6DEE6" opacity="0.95" filter="url(#softGlow)">Our Mission, Team & Values</text>

  <!-- Brand name with letter spacing -->
  <text x="280" y="300" font-family="Georgia, serif" font-size="32" font-weight="bold"
        fill="#CFAE58" letter-spacing="4" filter="url(#glow)">ROYAL KETA</text>

  <!-- Russian tagline -->
  <text x="280" y="340" font-family="Arial, sans-serif" font-size="22" font-style="italic"
        fill="#8B95A1" opacity="0.8">От икринки к королевской</text>

  <!-- Location -->
  <text x="280" y="380" font-family="Arial, sans-serif" font-size="20"
        fill="#8B95A1" opacity="0.7">Невельский район, Сахалин</text>

  <!-- Website with glow -->
  <text x="100" y="570" font-family="Arial, sans-serif" font-size="30" font-weight="bold"
        fill="#4FD1C5" filter="url(#glow)">royalketa.com</text>

  <!-- Enhanced decorative salmon silhouette -->
  <g transform="translate(950, 480)" opacity="0.2" filter="url(#softGlow)">
    <ellipse cx="0" cy="0" rx="90" ry="35" fill="#CFAE58"/>
    <path d="M 90 0 L 120 -18 L 130 0 L 120 18 Z" fill="#CFAE58"/>
    <path d="M -25 -35 L 0 -45 L 25 -35 Z" fill="#CFAE58"/>
    <ellipse cx="-50" cy="0" rx="15" ry="12" fill="#0B0F14"/>
  </g>

  <!-- Additional decorative caviar clusters -->
  <g opacity="0.2">
    <circle cx="1050" cy="120" r="6" fill="#CFAE58"/>
    <circle cx="1065" cy="115" r="5" fill="#CFAE58"/>
    <circle cx="1058" cy="130" r="4" fill="#CFAE58"/>
    <circle cx="150" cy="500" r="5" fill="#4FD1C5"/>
    <circle cx="165" cy="508" r="4" fill="#4FD1C5"/>
    <circle cx="140" cy="512" r="5" fill="#4FD1C5"/>
  </g>
</svg>