<svg width="1200" height="630" xmlns="http://www.w3.org/2000/svg">
  <defs>
    <linearGradient id="bgGradient" x1="0%" y1="0%" x2="100%" y2="100%">
      <stop offset="0%" style="stop-color:#0B0F14;stop-opacity:1" />
      <stop offset="50%" style="stop-color:#0F1619;stop-opacity:1" />
      <stop offset="100%" style="stop-color:#0F1922;stop-opacity:1" />
    </linearGradient>
    <linearGradient id="goldGradient" x1="0%" y1="0%" x2="100%" y2="0%">
      <stop offset="0%" style="stop-color:#E5D596;stop-opacity:1" />
      <stop offset="50%" style="stop-color:#CFAE58;stop-opacity:1" />
      <stop offset="100%" style="stop-color:#B89842;stop-opacity:1" />
    </linearGradient>
    <radialGradient id="oceanGradient" cx="50%" cy="50%" r="50%">
      <stop offset="0%" style="stop-color:#4FD1C5;stop-opacity:0.3" />
      <stop offset="100%" style="stop-color:#1E90A0;stop-opacity:0.05" />
    </radialGradient>
    <filter id="glow">
      <feGaussianBlur stdDeviation="5" result="coloredBlur"/>
      <feMerge>
        <feMergeNode in="coloredBlur"/>
        <feMergeNode in="SourceGraphic"/>
      </feMerge>
    </filter>
    <filter id="softGlow">
      <feGaussianBlur stdDeviation="8" result="coloredBlur"/>
      <feMerge>
        <feMergeNode in="coloredBlur"/>
        <feMergeNode in="SourceGraphic"/>
      </feMerge>
    </filter>
    <filter id="shadow">
      <feDropShadow dx="0" dy="4" stdDeviation="8" flood-color="#000000" flood-opacity="0.5"/>
    </filter>
  </defs>

  <!-- Background -->
  <rect width="1200" height="630" fill="url(#bgGradient)"/>

  <!-- Decorative ocean gradients -->
  <ellipse cx="1000" cy="150" rx="300" ry="200" fill="url(#oceanGradient)" opacity="0.4"/>
  <ellipse cx="200" cy="530" rx="250" ry="180" fill="url(#oceanGradient)" opacity="0.3"/>

  <!-- Wave patterns -->
  <path d="M 0 400 Q 300 350 600 400 T 1200 400 L 1200 630 L 0 630 Z" fill="#1E90A0" opacity="0.08"/>
  <path d="M 0 450 Q 250 420 500 450 T 1000 450 T 1200 450 L 1200 630 L 0 630 Z" fill="#4FD1C5" opacity="0.05"/>

  <!-- Caviar roe particles -->
  <circle cx="514.9764335595866" cy="101.32149394500105" r="5.738083205742141" fill="#CFAE58" opacity="0.195731766157079"/>
  <circle cx="741.9925433166572" cy="568.1438507211817" r="3.6356272999686965" fill="#CFAE58" opacity="0.19740796370671226"/>
  <circle cx="270.83930485347565" cy="520.3177474124346" r="2.549415963708995" fill="#CFAE58" opacity="0.24325438767428034"/>
  <circle cx="1022.4370553879345" cy="434.81063256270954" r="4.8579191497555" fill="#CFAE58" opacity="0.11642529552168851"/>
  <circle cx="1095.265434186751" cy="207.5613967679944" r="2.229684210009827" fill="#CFAE58" opacity="0.20438325838798388"/>
  <circle cx="465.4326259305896" cy="625.336639499342" r="3.1027411739575754" fill="#CFAE58" opacity="0.1309348561981977"/>
  <circle cx="136.75009279839384" cy="75.41849803830165" r="5.29702416163766" fill="#CFAE58" opacity="0.18957321644782626"/>
  <circle cx="926.9307455361443" cy="270.91380079080767" r="4.288267243373433" fill="#CFAE58" opacity="0.2494949045078762"/>
  <circle cx="122.80318255762977" cy="73.04758932019513" r="4.558419056479511" fill="#CFAE58" opacity="0.13929375389889426"/>
  <circle cx="176.34369423978544" cy="149.42717813004154" r="3.841031277479245" fill="#CFAE58" opacity="0.20678839677745686"/>
  <circle cx="9.268249429498354" cy="45.582817395033935" r="4.370638140996973" fill="#CFAE58" opacity="0.1293396958513038"/>
  <circle cx="700.456408094415" cy="601.1187809545539" r="3.155796603921721" fill="#CFAE58" opacity="0.176966760974054"/>
  <circle cx="392.06809012014565" cy="355.3871666127289" r="4.026057843874723" fill="#CFAE58" opacity="0.20791532988203182"/>
  <circle cx="611.5297414093869" cy="367.5334966992079" r="4.2971775609294856" fill="#CFAE58" opacity="0.11574793062653375"/>
  <circle cx="207.1410152111002" cy="260.39542366161606" r="2.3910261932298242" fill="#CFAE58" opacity="0.1434848886215378"/>
  <circle cx="738.0800922985501" cy="164.79791622348293" r="5.483047487971117" fill="#CFAE58" opacity="0.1130530871235898"/>
  <circle cx="1014.1668414518964" cy="183.22204779419883" r="4.997710790386931" fill="#CFAE58" opacity="0.1743676163669236"/>
  <circle cx="383.45726485486216" cy="497.98986134103484" r="3.8734178178722454" fill="#CFAE58" opacity="0.18497939422098839"/>
  <circle cx="1149.3785015476499" cy="590.6359332537788" r="3.9812304898968973" fill="#CFAE58" opacity="0.2042119249068458"/>
  <circle cx="478.3066264100779" cy="537.7773324033988" r="3.14246318781195" fill="#CFAE58" opacity="0.19637433084779116"/>
  <circle cx="975.6259598508595" cy="573.0185709694723" r="5.151257964465851" fill="#CFAE58" opacity="0.18461957618906763"/>
  <circle cx="5.281498037290966" cy="305.58672836114096" r="4.457701623952351" fill="#CFAE58" opacity="0.18649879901031427"/>
  <circle cx="127.43483817920023" cy="349.86175611627243" r="3.6127567034130657" fill="#CFAE58" opacity="0.11746695559640646"/>
  <circle cx="225.95104582385267" cy="370.5842877889352" r="2.7822606949267117" fill="#CFAE58" opacity="0.2433698888981866"/>
  <circle cx="484.2235039627808" cy="321.41866004535314" r="5.637375856022507" fill="#CFAE58" opacity="0.13341827378733861"/>
  <circle cx="248.85676773168024" cy="162.7127673570601" r="2.624056966917589" fill="#CFAE58" opacity="0.16149545403529278"/>
  <circle cx="1098.8244504168028" cy="270.1392554110014" r="4.159279371835545" fill="#CFAE58" opacity="0.13531435474476472"/>
  <circle cx="684.7591126571912" cy="437.75458788662115" r="3.2847363684299253" fill="#CFAE58" opacity="0.22744046263307066"/>
  <circle cx="121.13250339551307" cy="323.1177791456763" r="4.361005808240941" fill="#CFAE58" opacity="0.13379031144957676"/>
  <circle cx="606.9711952296639" cy="78.98819280304967" r="4.516110897790719" fill="#CFAE58" opacity="0.20025802548155103"/>

  <!-- Border with glow -->
  <rect x="40" y="40" width="1120" height="550" fill="none" stroke="url(#goldGradient)" stroke-width="3" rx="12" filter="url(#softGlow)"/>

  <!-- Icon circle with premium background -->
  <circle cx="150" cy="200" r="75" fill="#CFAE58" opacity="0.15" filter="url(#softGlow)"/>
  <circle cx="150" cy="200" r="70" fill="#CFAE58" opacity="0.25"/>
  <text x="150" y="235" font-size="90" text-anchor="middle" fill="#CFAE58" filter="url(#glow)">ℹ️</text>

  <!-- Premium logo (crown) with enhanced styling -->
  <g transform="translate(100, 70)">
    <path d="M 30 20 L 40 35 L 35 35 Z M 50 15 L 60 35 L 45 35 Z M 65 20 L 75 35 L 70 35 Z M 30 35 L 75 35 L 73 45 L 32 45 Z"
          fill="url(#goldGradient)" filter="url(#glow)" stroke="#B89842" stroke-width="0.5"/>
    <circle cx="40" cy="25" r="3" fill="#4FD1C5" filter="url(#glow)"/>
    <circle cx="52" cy="20" r="4" fill="#4FD1C5" filter="url(#glow)"/>
    <circle cx="65" cy="25" r="3" fill="#4FD1C5" filter="url(#glow)"/>
  </g>

  <!-- Title with shadow -->
  <text x="280" y="180" font-family="Georgia, serif" font-size="72" font-weight="bold"
        fill="url(#goldGradient)" filter="url(#shadow)">About Royal Keta</text>

  <!-- Subtitle with subtle glow -->
  <text x="280" y="230" font-family="Arial, sans-serif" font-size="36"
        fill="#D6DEE6" opacity="0.95" filter="url(#softGlow)">Our Mission, Team &amp; Values</text>

  <!-- Brand name with letter spacing -->
  <text x="280" y="300" font-family="Georgia, serif" font-size="32" font-weight="bold"
        fill="#CFAE58" letter-spacing="4" filter="url(#glow)">ROYAL KETA</text>

  <!-- Russian tagline -->
  <text x="280" y="340" font-family="Arial, sans-serif" font-size="22" font-style="italic"
        fill="#8B95A1" opacity="0.8">От икринки к королевской</text>

  <!-- Location -->
  <text x="280" y="380" font-family="Arial, sans-serif" font-size="20"
        fill="#8B95A1" opacity="0.7">Невельский район, Сахалин</text>

  <!-- Website with glow -->
  <text x="100" y="570" font-family="Arial, sans-serif" font-size="30" font-weight="bold"
        fill="#4FD1C5" filter="url(#glow)">royalketa.com</text>

  <!-- Enhanced decorative salmon silhouette -->
  <g transform="translate(950, 480)" opacity="0.2" filter="url(#softGlow)">
    <ellipse cx="0" cy="0" rx="90" ry="35" fill="#CFAE58"/>
    <path d="M 90 0 L 120 -18 L 130 0 L 120 18 Z" fill="#CFAE58"/>
    <path d="M -25 -35 L 0 -45 L 25 -35 Z" fill="#CFAE58"/>
    <ellipse cx="-50" cy="0" rx="15" ry="12" fill="#0B0F14"/>
  </g>

  <!-- Additional decorative caviar clusters -->
  <g opacity="0.2">
    <circle cx="1050" cy="120" r="6" fill="#CFAE58"/>
    <circle cx="1065" cy="115" r="5" fill="#CFAE58"/>
    <circle cx="1058" cy="130" r="4" fill="#CFAE58"/>
    <circle cx="150" cy="500" r="5" fill="#4FD1C5"/>
    <circle cx="165" cy="508" r="4" fill="#4FD1C5"/>
    <circle cx="140" cy="512" r="5" fill="#4FD1C5"/>
  </g>
</svg>