<svg width="1200" height="630" xmlns="http://www.w3.org/2000/svg">
  <defs>
    <linearGradient id="bgGradient" x1="0%" y1="0%" x2="100%" y2="100%">
      <stop offset="0%" style="stop-color:#0B0F14;stop-opacity:1" />
      <stop offset="50%" style="stop-color:#0F1619;stop-opacity:1" />
      <stop offset="100%" style="stop-color:#0F1922;stop-opacity:1" />
    </linearGradient>
    <linearGradient id="goldGradient" x1="0%" y1="0%" x2="100%" y2="0%">
      <stop offset="0%" style="stop-color:#E5D596;stop-opacity:1" />
      <stop offset="50%" style="stop-color:#CFAE58;stop-opacity:1" />
      <stop offset="100%" style="stop-color:#B89842;stop-opacity:1" />
    </linearGradient>
    <radialGradient id="oceanGradient" cx="50%" cy="50%" r="50%">
      <stop offset="0%" style="stop-color:#4FD1C5;stop-opacity:0.3" />
      <stop offset="100%" style="stop-color:#1E90A0;stop-opacity:0.05" />
    </radialGradient>
    <filter id="glow">
      <feGaussianBlur stdDeviation="5" result="coloredBlur"/>
      <feMerge>
        <feMergeNode in="coloredBlur"/>
        <feMergeNode in="SourceGraphic"/>
      </feMerge>
    </filter>
    <filter id="softGlow">
      <feGaussianBlur stdDeviation="8" result="coloredBlur"/>
      <feMerge>
        <feMergeNode in="coloredBlur"/>
        <feMergeNode in="SourceGraphic"/>
      </feMerge>
    </filter>
    <filter id="shadow">
      <feDropShadow dx="0" dy="4" stdDeviation="8" flood-color="#000000" flood-opacity="0.5"/>
    </filter>
  </defs>

  <!-- Background -->
  <rect width="1200" height="630" fill="url(#bgGradient)"/>

  <!-- Decorative ocean gradients -->
  <ellipse cx="1000" cy="150" rx="300" ry="200" fill="url(#oceanGradient)" opacity="0.4"/>
  <ellipse cx="200" cy="530" rx="250" ry="180" fill="url(#oceanGradient)" opacity="0.3"/>

  <!-- Wave patterns -->
  <path d="M 0 400 Q 300 350 600 400 T 1200 400 L 1200 630 L 0 630 Z" fill="#1E90A0" opacity="0.08"/>
  <path d="M 0 450 Q 250 420 500 450 T 1000 450 T 1200 450 L 1200 630 L 0 630 Z" fill="#4FD1C5" opacity="0.05"/>

  <!-- Caviar roe particles -->
  <circle cx="757.1844714864218" cy="217.22284586336968" r="4.7124168059431" fill="#CFAE58" opacity="0.23276407285269415"/>
  <circle cx="1119.8865841487914" cy="522.6310005077421" r="3.151262020866951" fill="#CFAE58" opacity="0.1662843750428611"/>
  <circle cx="935.2054590640415" cy="276.3002240020857" r="2.8349497367969585" fill="#CFAE58" opacity="0.1518805405337554"/>
  <circle cx="924.1213787819095" cy="44.08159914120321" r="2.428902536161664" fill="#CFAE58" opacity="0.21908115308958034"/>
  <circle cx="1124.25988891524" cy="379.68024959108266" r="4.174606797656795" fill="#CFAE58" opacity="0.173619331565103"/>
  <circle cx="287.6194662377876" cy="107.34648874549706" r="2.2258205874152877" fill="#CFAE58" opacity="0.100786801757965"/>
  <circle cx="858.4006860939775" cy="533.6415770521941" r="5.740432025132218" fill="#CFAE58" opacity="0.16603436370180025"/>
  <circle cx="713.8964695577822" cy="427.068882099214" r="4.426913109759626" fill="#CFAE58" opacity="0.21667162080576519"/>
  <circle cx="817.1054285650538" cy="492.4939628833882" r="4.165034258278877" fill="#CFAE58" opacity="0.23406894177015977"/>
  <circle cx="688.8708096240048" cy="89.95890063387654" r="2.493080455733412" fill="#CFAE58" opacity="0.1331018390712861"/>
  <circle cx="135.0190016842489" cy="496.970205769336" r="4.186701951190734" fill="#CFAE58" opacity="0.10418619996554256"/>
  <circle cx="98.84485253227884" cy="546.7775192624023" r="4.297542259461229" fill="#CFAE58" opacity="0.2472001083739346"/>
  <circle cx="107.64877727498016" cy="149.47865789358426" r="3.5285245396212552" fill="#CFAE58" opacity="0.15319362336183912"/>
  <circle cx="29.098068093544516" cy="81.93728439427282" r="3.2501451810592767" fill="#CFAE58" opacity="0.1129977060064772"/>
  <circle cx="1151.7169048767498" cy="36.429574968026834" r="2.5975431748727464" fill="#CFAE58" opacity="0.23692978778330082"/>
  <circle cx="677.2237837112141" cy="301.17217290522973" r="5.299156772423312" fill="#CFAE58" opacity="0.18972123603038096"/>
  <circle cx="418.28239478360877" cy="299.1742775163686" r="5.708877470259651" fill="#CFAE58" opacity="0.10268613512299249"/>
  <circle cx="17.628466730942005" cy="361.5830944153121" r="5.811177914536146" fill="#CFAE58" opacity="0.23179160071897403"/>
  <circle cx="1140.423470902923" cy="516.9988807071458" r="5.616639029527599" fill="#CFAE58" opacity="0.14639006515305344"/>
  <circle cx="301.16928688805086" cy="105.46456611001716" r="4.554525750865919" fill="#CFAE58" opacity="0.13041620959818126"/>
  <circle cx="973.1084877901376" cy="86.90312255799147" r="5.727932934406039" fill="#CFAE58" opacity="0.24953553436438478"/>
  <circle cx="767.3423331589837" cy="115.52027603297073" r="5.24462140146135" fill="#CFAE58" opacity="0.20626986017685203"/>
  <circle cx="736.0230311695832" cy="585.2765293267946" r="2.6814224036306946" fill="#CFAE58" opacity="0.12941728749875803"/>
  <circle cx="126.58782154088755" cy="467.8742959518687" r="2.3110045026442347" fill="#CFAE58" opacity="0.12807926848196702"/>
  <circle cx="6.951032639285382" cy="415.15985013460795" r="3.1537761094484287" fill="#CFAE58" opacity="0.18039282096870515"/>
  <circle cx="1086.350462846227" cy="268.16963971257127" r="5.926429957992957" fill="#CFAE58" opacity="0.10840498092002611"/>
  <circle cx="1191.3937631421672" cy="161.40031668880522" r="4.652654689685749" fill="#CFAE58" opacity="0.10182971213791767"/>
  <circle cx="662.0969518439907" cy="380.62054998255627" r="5.5861186722148215" fill="#CFAE58" opacity="0.13937547626726296"/>
  <circle cx="1153.1589482097938" cy="401.714933428651" r="5.399875902883171" fill="#CFAE58" opacity="0.1270453631305191"/>
  <circle cx="452.92447905536574" cy="51.70750208942789" r="3.2594624255316687" fill="#CFAE58" opacity="0.22340678435419473"/>

  <!-- Border with glow -->
  <rect x="40" y="40" width="1120" height="550" fill="none" stroke="url(#goldGradient)" stroke-width="3" rx="12" filter="url(#softGlow)"/>

  <!-- Icon circle with premium background -->
  <circle cx="150" cy="200" r="75" fill="#CFAE58" opacity="0.15" filter="url(#softGlow)"/>
  <circle cx="150" cy="200" r="70" fill="#CFAE58" opacity="0.25"/>
  <text x="150" y="235" font-size="90" text-anchor="middle" fill="#CFAE58" filter="url(#glow)">📰</text>

  <!-- Premium logo (crown) with enhanced styling -->
  <g transform="translate(100, 70)">
    <path d="M 30 20 L 40 35 L 35 35 Z M 50 15 L 60 35 L 45 35 Z M 65 20 L 75 35 L 70 35 Z M 30 35 L 75 35 L 73 45 L 32 45 Z"
          fill="url(#goldGradient)" filter="url(#glow)" stroke="#B89842" stroke-width="0.5"/>
    <circle cx="40" cy="25" r="3" fill="#4FD1C5" filter="url(#glow)"/>
    <circle cx="52" cy="20" r="4" fill="#4FD1C5" filter="url(#glow)"/>
    <circle cx="65" cy="25" r="3" fill="#4FD1C5" filter="url(#glow)"/>
  </g>

  <!-- Title with shadow -->
  <text x="280" y="180" font-family="Georgia, serif" font-size="72" font-weight="bold"
        fill="url(#goldGradient)" filter="url(#shadow)">News &amp; Insights</text>

  <!-- Subtitle with subtle glow -->
  <text x="280" y="230" font-family="Arial, sans-serif" font-size="36"
        fill="#D6DEE6" opacity="0.95" filter="url(#softGlow)">Updates from Royal Keta Hatchery</text>

  <!-- Brand name with letter spacing -->
  <text x="280" y="300" font-family="Georgia, serif" font-size="32" font-weight="bold"
        fill="#CFAE58" letter-spacing="4" filter="url(#glow)">ROYAL KETA</text>

  <!-- Russian tagline -->
  <text x="280" y="340" font-family="Arial, sans-serif" font-size="22" font-style="italic"
        fill="#8B95A1" opacity="0.8">От икринки к королевской</text>

  <!-- Location -->
  <text x="280" y="380" font-family="Arial, sans-serif" font-size="20"
        fill="#8B95A1" opacity="0.7">Невельский район, Сахалин</text>

  <!-- Website with glow -->
  <text x="100" y="570" font-family="Arial, sans-serif" font-size="30" font-weight="bold"
        fill="#4FD1C5" filter="url(#glow)">royalketa.com</text>

  <!-- Enhanced decorative salmon silhouette -->
  <g transform="translate(950, 480)" opacity="0.2" filter="url(#softGlow)">
    <ellipse cx="0" cy="0" rx="90" ry="35" fill="#CFAE58"/>
    <path d="M 90 0 L 120 -18 L 130 0 L 120 18 Z" fill="#CFAE58"/>
    <path d="M -25 -35 L 0 -45 L 25 -35 Z" fill="#CFAE58"/>
    <ellipse cx="-50" cy="0" rx="15" ry="12" fill="#0B0F14"/>
  </g>

  <!-- Additional decorative caviar clusters -->
  <g opacity="0.2">
    <circle cx="1050" cy="120" r="6" fill="#CFAE58"/>
    <circle cx="1065" cy="115" r="5" fill="#CFAE58"/>
    <circle cx="1058" cy="130" r="4" fill="#CFAE58"/>
    <circle cx="150" cy="500" r="5" fill="#4FD1C5"/>
    <circle cx="165" cy="508" r="4" fill="#4FD1C5"/>
    <circle cx="140" cy="512" r="5" fill="#4FD1C5"/>
  </g>
</svg>