<svg width="1200" height="630" xmlns="http://www.w3.org/2000/svg">
  <defs>
    <linearGradient id="bgGradient" x1="0%" y1="0%" x2="100%" y2="100%">
      <stop offset="0%" style="stop-color:#0B0F14;stop-opacity:1" />
      <stop offset="50%" style="stop-color:#0F1619;stop-opacity:1" />
      <stop offset="100%" style="stop-color:#0F1922;stop-opacity:1" />
    </linearGradient>
    <linearGradient id="goldGradient" x1="0%" y1="0%" x2="100%" y2="0%">
      <stop offset="0%" style="stop-color:#E5D596;stop-opacity:1" />
      <stop offset="50%" style="stop-color:#CFAE58;stop-opacity:1" />
      <stop offset="100%" style="stop-color:#B89842;stop-opacity:1" />
    </linearGradient>
    <radialGradient id="oceanGradient" cx="50%" cy="50%" r="50%">
      <stop offset="0%" style="stop-color:#4FD1C5;stop-opacity:0.3" />
      <stop offset="100%" style="stop-color:#1E90A0;stop-opacity:0.05" />
    </radialGradient>
    <filter id="glow">
      <feGaussianBlur stdDeviation="5" result="coloredBlur"/>
      <feMerge>
        <feMergeNode in="coloredBlur"/>
        <feMergeNode in="SourceGraphic"/>
      </feMerge>
    </filter>
    <filter id="softGlow">
      <feGaussianBlur stdDeviation="8" result="coloredBlur"/>
      <feMerge>
        <feMergeNode in="coloredBlur"/>
        <feMergeNode in="SourceGraphic"/>
      </feMerge>
    </filter>
    <filter id="shadow">
      <feDropShadow dx="0" dy="4" stdDeviation="8" flood-color="#000000" flood-opacity="0.5"/>
    </filter>
  </defs>

  <!-- Background -->
  <rect width="1200" height="630" fill="url(#bgGradient)"/>

  <!-- Decorative ocean gradients -->
  <ellipse cx="1000" cy="150" rx="300" ry="200" fill="url(#oceanGradient)" opacity="0.4"/>
  <ellipse cx="200" cy="530" rx="250" ry="180" fill="url(#oceanGradient)" opacity="0.3"/>

  <!-- Wave patterns -->
  <path d="M 0 400 Q 300 350 600 400 T 1200 400 L 1200 630 L 0 630 Z" fill="#1E90A0" opacity="0.08"/>
  <path d="M 0 450 Q 250 420 500 450 T 1000 450 T 1200 450 L 1200 630 L 0 630 Z" fill="#4FD1C5" opacity="0.05"/>

  <!-- Caviar roe particles -->
  <circle cx="906.446464137347" cy="353.777178080005" r="2.0389749051494235" fill="#CFAE58" opacity="0.13618572991076183"/>
  <circle cx="1077.6178626468288" cy="0.04827879417275249" r="2.5155338144376027" fill="#CFAE58" opacity="0.24418012212850101"/>
  <circle cx="616.648197203066" cy="482.1884928943755" r="3.555987425086741" fill="#CFAE58" opacity="0.20315525646801386"/>
  <circle cx="171.80599677151696" cy="588.0431093084618" r="4.370971854630019" fill="#CFAE58" opacity="0.1726235093598626"/>
  <circle cx="324.65724854850316" cy="391.96052057558387" r="2.5981101919917022" fill="#CFAE58" opacity="0.23522257281728529"/>
  <circle cx="1093.8600774067545" cy="602.3713789643655" r="2.5935493565778853" fill="#CFAE58" opacity="0.1990508759532864"/>
  <circle cx="477.20073381177315" cy="157.9419406412792" r="3.799878282133094" fill="#CFAE58" opacity="0.22365176454747898"/>
  <circle cx="551.6730071254266" cy="506.0708598608357" r="4.422763413010017" fill="#CFAE58" opacity="0.14453627653365952"/>
  <circle cx="810.5368829713234" cy="363.84740513312147" r="2.702641523991006" fill="#CFAE58" opacity="0.23138340183814765"/>
  <circle cx="30.621355561964904" cy="374.382546125962" r="4.799832428988459" fill="#CFAE58" opacity="0.21348796338385673"/>
  <circle cx="181.36215145743515" cy="57.59740850732178" r="5.609479827507642" fill="#CFAE58" opacity="0.22610364830958152"/>
  <circle cx="46.454318913718005" cy="492.9701430225732" r="3.2017610321175782" fill="#CFAE58" opacity="0.1344531132691188"/>
  <circle cx="1058.0016506289921" cy="68.00621087501999" r="4.750080246649679" fill="#CFAE58" opacity="0.15668088424402615"/>
  <circle cx="1046.9093888524583" cy="383.95222287639876" r="3.4295263740824535" fill="#CFAE58" opacity="0.20021084112793128"/>
  <circle cx="606.3119090002554" cy="575.2161099993859" r="3.335882778472675" fill="#CFAE58" opacity="0.13613102744012323"/>
  <circle cx="628.0661954530339" cy="5.555639020500206" r="3.3030609280703755" fill="#CFAE58" opacity="0.13324913524111592"/>
  <circle cx="41.68772226404509" cy="120.47860163874053" r="3.698218503500403" fill="#CFAE58" opacity="0.15952551768618775"/>
  <circle cx="252.46885841333557" cy="71.38891460863002" r="3.739907397923844" fill="#CFAE58" opacity="0.20427058513788193"/>
  <circle cx="1120.1431544567417" cy="316.5329695104785" r="5.582950374392109" fill="#CFAE58" opacity="0.20734187645489455"/>
  <circle cx="622.8521115785047" cy="232.16584319164062" r="3.0203550383025983" fill="#CFAE58" opacity="0.24022686967737622"/>
  <circle cx="804.5645745867367" cy="535.4102393752788" r="2.876512665616432" fill="#CFAE58" opacity="0.13972735346338622"/>
  <circle cx="258.52021702622795" cy="101.95755125895984" r="2.432792674709305" fill="#CFAE58" opacity="0.22996897579048936"/>
  <circle cx="812.0417718044508" cy="334.9589911246065" r="5.2104811227828876" fill="#CFAE58" opacity="0.1287075303682545"/>
  <circle cx="895.1094050598508" cy="526.6685887154147" r="4.257912621772207" fill="#CFAE58" opacity="0.2462418272451309"/>
  <circle cx="35.964693911332326" cy="555.4309293750689" r="3.355733247204077" fill="#CFAE58" opacity="0.1843390444661031"/>
  <circle cx="749.8320974933149" cy="555.72689237047" r="4.802321816782861" fill="#CFAE58" opacity="0.14397165357453665"/>
  <circle cx="185.52415954508353" cy="84.53842328214347" r="4.605214423426461" fill="#CFAE58" opacity="0.21092767522370004"/>
  <circle cx="604.6157749866993" cy="544.2139235219482" r="2.221860088254247" fill="#CFAE58" opacity="0.1488803536034552"/>
  <circle cx="605.1552572916191" cy="172.36420219476014" r="3.0373728377160205" fill="#CFAE58" opacity="0.232663111064758"/>
  <circle cx="582.0826806829011" cy="493.2643356494669" r="2.951961295110098" fill="#CFAE58" opacity="0.18132097411432505"/>

  <!-- Border with glow -->
  <rect x="40" y="40" width="1120" height="550" fill="none" stroke="url(#goldGradient)" stroke-width="3" rx="12" filter="url(#softGlow)"/>

  <!-- Icon circle with premium background -->
  <circle cx="150" cy="200" r="75" fill="#CFAE58" opacity="0.15" filter="url(#softGlow)"/>
  <circle cx="150" cy="200" r="70" fill="#CFAE58" opacity="0.25"/>
  <text x="150" y="235" font-size="90" text-anchor="middle" fill="#CFAE58" filter="url(#glow)">📰</text>

  <!-- Premium logo (crown) with enhanced styling -->
  <g transform="translate(100, 70)">
    <path d="M 30 20 L 40 35 L 35 35 Z M 50 15 L 60 35 L 45 35 Z M 65 20 L 75 35 L 70 35 Z M 30 35 L 75 35 L 73 45 L 32 45 Z"
          fill="url(#goldGradient)" filter="url(#glow)" stroke="#B89842" stroke-width="0.5"/>
    <circle cx="40" cy="25" r="3" fill="#4FD1C5" filter="url(#glow)"/>
    <circle cx="52" cy="20" r="4" fill="#4FD1C5" filter="url(#glow)"/>
    <circle cx="65" cy="25" r="3" fill="#4FD1C5" filter="url(#glow)"/>
  </g>

  <!-- Title with shadow -->
  <text x="280" y="180" font-family="Georgia, serif" font-size="72" font-weight="bold"
        fill="url(#goldGradient)" filter="url(#shadow)">News &amp; Insights</text>

  <!-- Subtitle with subtle glow -->
  <text x="280" y="230" font-family="Arial, sans-serif" font-size="36"
        fill="#D6DEE6" opacity="0.95" filter="url(#softGlow)">Updates from Royal Keta Hatchery</text>

  <!-- Brand name with letter spacing -->
  <text x="280" y="300" font-family="Georgia, serif" font-size="32" font-weight="bold"
        fill="#CFAE58" letter-spacing="4" filter="url(#glow)">ROYAL KETA</text>

  <!-- Russian tagline -->
  <text x="280" y="340" font-family="Arial, sans-serif" font-size="22" font-style="italic"
        fill="#8B95A1" opacity="0.8">От икринки к королевской</text>

  <!-- Location -->
  <text x="280" y="380" font-family="Arial, sans-serif" font-size="20"
        fill="#8B95A1" opacity="0.7">Невельский район, Сахалин</text>

  <!-- Website with glow -->
  <text x="100" y="570" font-family="Arial, sans-serif" font-size="30" font-weight="bold"
        fill="#4FD1C5" filter="url(#glow)">royalketa.com</text>

  <!-- Enhanced decorative salmon silhouette -->
  <g transform="translate(950, 480)" opacity="0.2" filter="url(#softGlow)">
    <ellipse cx="0" cy="0" rx="90" ry="35" fill="#CFAE58"/>
    <path d="M 90 0 L 120 -18 L 130 0 L 120 18 Z" fill="#CFAE58"/>
    <path d="M -25 -35 L 0 -45 L 25 -35 Z" fill="#CFAE58"/>
    <ellipse cx="-50" cy="0" rx="15" ry="12" fill="#0B0F14"/>
  </g>

  <!-- Additional decorative caviar clusters -->
  <g opacity="0.2">
    <circle cx="1050" cy="120" r="6" fill="#CFAE58"/>
    <circle cx="1065" cy="115" r="5" fill="#CFAE58"/>
    <circle cx="1058" cy="130" r="4" fill="#CFAE58"/>
    <circle cx="150" cy="500" r="5" fill="#4FD1C5"/>
    <circle cx="165" cy="508" r="4" fill="#4FD1C5"/>
    <circle cx="140" cy="512" r="5" fill="#4FD1C5"/>
  </g>
</svg>