<svg width="1200" height="630" xmlns="http://www.w3.org/2000/svg">
  <defs>
    <linearGradient id="bgGradient" x1="0%" y1="0%" x2="100%" y2="100%">
      <stop offset="0%" style="stop-color:#0B0F14;stop-opacity:1" />
      <stop offset="50%" style="stop-color:#0F1619;stop-opacity:1" />
      <stop offset="100%" style="stop-color:#0F1922;stop-opacity:1" />
    </linearGradient>
    <linearGradient id="goldGradient" x1="0%" y1="0%" x2="100%" y2="0%">
      <stop offset="0%" style="stop-color:#E5D596;stop-opacity:1" />
      <stop offset="50%" style="stop-color:#CFAE58;stop-opacity:1" />
      <stop offset="100%" style="stop-color:#B89842;stop-opacity:1" />
    </linearGradient>
    <radialGradient id="oceanGradient" cx="50%" cy="50%" r="50%">
      <stop offset="0%" style="stop-color:#4FD1C5;stop-opacity:0.3" />
      <stop offset="100%" style="stop-color:#1E90A0;stop-opacity:0.05" />
    </radialGradient>
    <filter id="glow">
      <feGaussianBlur stdDeviation="5" result="coloredBlur"/>
      <feMerge>
        <feMergeNode in="coloredBlur"/>
        <feMergeNode in="SourceGraphic"/>
      </feMerge>
    </filter>
    <filter id="softGlow">
      <feGaussianBlur stdDeviation="8" result="coloredBlur"/>
      <feMerge>
        <feMergeNode in="coloredBlur"/>
        <feMergeNode in="SourceGraphic"/>
      </feMerge>
    </filter>
    <filter id="shadow">
      <feDropShadow dx="0" dy="4" stdDeviation="8" flood-color="#000000" flood-opacity="0.5"/>
    </filter>
  </defs>

  <!-- Background -->
  <rect width="1200" height="630" fill="url(#bgGradient)"/>

  <!-- Decorative ocean gradients -->
  <ellipse cx="1000" cy="150" rx="300" ry="200" fill="url(#oceanGradient)" opacity="0.4"/>
  <ellipse cx="200" cy="530" rx="250" ry="180" fill="url(#oceanGradient)" opacity="0.3"/>

  <!-- Wave patterns -->
  <path d="M 0 400 Q 300 350 600 400 T 1200 400 L 1200 630 L 0 630 Z" fill="#1E90A0" opacity="0.08"/>
  <path d="M 0 450 Q 250 420 500 450 T 1000 450 T 1200 450 L 1200 630 L 0 630 Z" fill="#4FD1C5" opacity="0.05"/>

  <!-- Caviar roe particles -->
  <circle cx="1176.0965733184923" cy="477.64490605999" r="5.471234274744836" fill="#CFAE58" opacity="0.22555952890277783"/>
  <circle cx="21.3001800225777" cy="483.14434236776856" r="2.2275113134521107" fill="#CFAE58" opacity="0.10480574538934706"/>
  <circle cx="935.3061325121765" cy="299.0363286061417" r="2.74380711013256" fill="#CFAE58" opacity="0.13853545951649912"/>
  <circle cx="887.5240551493127" cy="541.444261091549" r="5.340375283018718" fill="#CFAE58" opacity="0.15895238686424568"/>
  <circle cx="861.9582690550634" cy="262.14201899703187" r="4.216863782191963" fill="#CFAE58" opacity="0.19182763368774763"/>
  <circle cx="684.4908017883811" cy="374.7006847339659" r="3.888520931080728" fill="#CFAE58" opacity="0.14809749181409693"/>
  <circle cx="240.6699800549582" cy="241.11104271073955" r="2.2907358411841297" fill="#CFAE58" opacity="0.22800317991702002"/>
  <circle cx="773.6685890068766" cy="324.1989245477041" r="4.763776582329724" fill="#CFAE58" opacity="0.1502837371928865"/>
  <circle cx="564.9103569052357" cy="306.6125740092764" r="3.104842786920046" fill="#CFAE58" opacity="0.24359936969304177"/>
  <circle cx="1059.687898522216" cy="514.2250707269127" r="4.278333491102307" fill="#CFAE58" opacity="0.23208678888312723"/>
  <circle cx="976.0857048594271" cy="67.94856373162526" r="3.500153861283581" fill="#CFAE58" opacity="0.15422579323056232"/>
  <circle cx="616.514503425272" cy="431.3961882902807" r="3.4917742976753403" fill="#CFAE58" opacity="0.1996581617365053"/>
  <circle cx="789.4202275306593" cy="205.87906019509805" r="2.6318697104036426" fill="#CFAE58" opacity="0.16725490752579433"/>
  <circle cx="195.26373617280282" cy="191.59346889672995" r="5.504185922838187" fill="#CFAE58" opacity="0.11250817278233566"/>
  <circle cx="39.48068475613438" cy="69.01266969136856" r="5.473133463651787" fill="#CFAE58" opacity="0.1396864922229485"/>
  <circle cx="1022.5050374139495" cy="547.9278904595861" r="4.442316339896287" fill="#CFAE58" opacity="0.1635413917664778"/>
  <circle cx="314.63424381483975" cy="307.2851152772006" r="3.2100288620226345" fill="#CFAE58" opacity="0.23113457437481333"/>
  <circle cx="100.1458927324054" cy="92.58435706073057" r="2.715204292963861" fill="#CFAE58" opacity="0.14227671477602674"/>
  <circle cx="207.34423949227318" cy="221.76662595049973" r="3.3791047006808896" fill="#CFAE58" opacity="0.15619850813298827"/>
  <circle cx="240.9898575937515" cy="460.7471490961911" r="2.706065962791812" fill="#CFAE58" opacity="0.10331908303573144"/>
  <circle cx="252.24568098901807" cy="94.02234374566987" r="3.222121890259454" fill="#CFAE58" opacity="0.14192532633136157"/>
  <circle cx="682.8341380145653" cy="351.5387295491842" r="5.473335149175841" fill="#CFAE58" opacity="0.10557839300645354"/>
  <circle cx="1079.765538271346" cy="358.8864803517549" r="2.6142784671154646" fill="#CFAE58" opacity="0.1933086364805816"/>
  <circle cx="537.967270613576" cy="303.3691705419386" r="5.670047229856198" fill="#CFAE58" opacity="0.24787834457383673"/>
  <circle cx="509.26415593619294" cy="362.51108511970557" r="4.362437920357989" fill="#CFAE58" opacity="0.24337065113902182"/>
  <circle cx="509.1519439679319" cy="526.5518774281638" r="4.989435684358285" fill="#CFAE58" opacity="0.21987014977640906"/>
  <circle cx="536.5882883273334" cy="29.92851614357866" r="2.5051371418350907" fill="#CFAE58" opacity="0.14501314242513086"/>
  <circle cx="734.8766238907427" cy="183.3814204187149" r="2.73835085520898" fill="#CFAE58" opacity="0.18546740925594962"/>
  <circle cx="724.6100150253814" cy="513.5007943044162" r="2.8160908185432207" fill="#CFAE58" opacity="0.1100715510761577"/>
  <circle cx="599.3065387840925" cy="64.51380224186097" r="3.508173475805354" fill="#CFAE58" opacity="0.1678003436665666"/>

  <!-- Border with glow -->
  <rect x="40" y="40" width="1120" height="550" fill="none" stroke="url(#goldGradient)" stroke-width="3" rx="12" filter="url(#softGlow)"/>

  <!-- Icon circle with premium background -->
  <circle cx="150" cy="200" r="75" fill="#CFAE58" opacity="0.15" filter="url(#softGlow)"/>
  <circle cx="150" cy="200" r="70" fill="#CFAE58" opacity="0.25"/>
  <text x="150" y="235" font-size="90" text-anchor="middle" fill="#CFAE58" filter="url(#glow)">📰</text>

  <!-- Premium logo (crown) with enhanced styling -->
  <g transform="translate(100, 70)">
    <path d="M 30 20 L 40 35 L 35 35 Z M 50 15 L 60 35 L 45 35 Z M 65 20 L 75 35 L 70 35 Z M 30 35 L 75 35 L 73 45 L 32 45 Z"
          fill="url(#goldGradient)" filter="url(#glow)" stroke="#B89842" stroke-width="0.5"/>
    <circle cx="40" cy="25" r="3" fill="#4FD1C5" filter="url(#glow)"/>
    <circle cx="52" cy="20" r="4" fill="#4FD1C5" filter="url(#glow)"/>
    <circle cx="65" cy="25" r="3" fill="#4FD1C5" filter="url(#glow)"/>
  </g>

  <!-- Title with shadow -->
  <text x="280" y="180" font-family="Georgia, serif" font-size="72" font-weight="bold"
        fill="url(#goldGradient)" filter="url(#shadow)">News &amp; Insights</text>

  <!-- Subtitle with subtle glow -->
  <text x="280" y="230" font-family="Arial, sans-serif" font-size="36"
        fill="#D6DEE6" opacity="0.95" filter="url(#softGlow)">Updates from Royal Keta Hatchery</text>

  <!-- Brand name with letter spacing -->
  <text x="280" y="300" font-family="Georgia, serif" font-size="32" font-weight="bold"
        fill="#CFAE58" letter-spacing="4" filter="url(#glow)">ROYAL KETA</text>

  <!-- Russian tagline -->
  <text x="280" y="340" font-family="Arial, sans-serif" font-size="22" font-style="italic"
        fill="#8B95A1" opacity="0.8">От икринки к королевской</text>

  <!-- Location -->
  <text x="280" y="380" font-family="Arial, sans-serif" font-size="20"
        fill="#8B95A1" opacity="0.7">Невельский район, Сахалин</text>

  <!-- Website with glow -->
  <text x="100" y="570" font-family="Arial, sans-serif" font-size="30" font-weight="bold"
        fill="#4FD1C5" filter="url(#glow)">royalketa.com</text>

  <!-- Enhanced decorative salmon silhouette -->
  <g transform="translate(950, 480)" opacity="0.2" filter="url(#softGlow)">
    <ellipse cx="0" cy="0" rx="90" ry="35" fill="#CFAE58"/>
    <path d="M 90 0 L 120 -18 L 130 0 L 120 18 Z" fill="#CFAE58"/>
    <path d="M -25 -35 L 0 -45 L 25 -35 Z" fill="#CFAE58"/>
    <ellipse cx="-50" cy="0" rx="15" ry="12" fill="#0B0F14"/>
  </g>

  <!-- Additional decorative caviar clusters -->
  <g opacity="0.2">
    <circle cx="1050" cy="120" r="6" fill="#CFAE58"/>
    <circle cx="1065" cy="115" r="5" fill="#CFAE58"/>
    <circle cx="1058" cy="130" r="4" fill="#CFAE58"/>
    <circle cx="150" cy="500" r="5" fill="#4FD1C5"/>
    <circle cx="165" cy="508" r="4" fill="#4FD1C5"/>
    <circle cx="140" cy="512" r="5" fill="#4FD1C5"/>
  </g>
</svg>