<svg width="1200" height="630" xmlns="http://www.w3.org/2000/svg">
  <defs>
    <linearGradient id="bgGradient" x1="0%" y1="0%" x2="100%" y2="100%">
      <stop offset="0%" style="stop-color:#0B0F14;stop-opacity:1" />
      <stop offset="50%" style="stop-color:#0F1619;stop-opacity:1" />
      <stop offset="100%" style="stop-color:#0F1922;stop-opacity:1" />
    </linearGradient>
    <linearGradient id="goldGradient" x1="0%" y1="0%" x2="100%" y2="0%">
      <stop offset="0%" style="stop-color:#E5D596;stop-opacity:1" />
      <stop offset="50%" style="stop-color:#CFAE58;stop-opacity:1" />
      <stop offset="100%" style="stop-color:#B89842;stop-opacity:1" />
    </linearGradient>
    <radialGradient id="oceanGradient" cx="50%" cy="50%" r="50%">
      <stop offset="0%" style="stop-color:#4FD1C5;stop-opacity:0.3" />
      <stop offset="100%" style="stop-color:#1E90A0;stop-opacity:0.05" />
    </radialGradient>
    <filter id="glow">
      <feGaussianBlur stdDeviation="5" result="coloredBlur"/>
      <feMerge>
        <feMergeNode in="coloredBlur"/>
        <feMergeNode in="SourceGraphic"/>
      </feMerge>
    </filter>
    <filter id="softGlow">
      <feGaussianBlur stdDeviation="8" result="coloredBlur"/>
      <feMerge>
        <feMergeNode in="coloredBlur"/>
        <feMergeNode in="SourceGraphic"/>
      </feMerge>
    </filter>
    <filter id="shadow">
      <feDropShadow dx="0" dy="4" stdDeviation="8" flood-color="#000000" flood-opacity="0.5"/>
    </filter>
  </defs>

  <!-- Background -->
  <rect width="1200" height="630" fill="url(#bgGradient)"/>

  <!-- Decorative ocean gradients -->
  <ellipse cx="1000" cy="150" rx="300" ry="200" fill="url(#oceanGradient)" opacity="0.4"/>
  <ellipse cx="200" cy="530" rx="250" ry="180" fill="url(#oceanGradient)" opacity="0.3"/>

  <!-- Wave patterns -->
  <path d="M 0 400 Q 300 350 600 400 T 1200 400 L 1200 630 L 0 630 Z" fill="#1E90A0" opacity="0.08"/>
  <path d="M 0 450 Q 250 420 500 450 T 1000 450 T 1200 450 L 1200 630 L 0 630 Z" fill="#4FD1C5" opacity="0.05"/>

  <!-- Caviar roe particles -->
  <circle cx="962.4605333604152" cy="223.93530399440965" r="3.7315196869650658" fill="#CFAE58" opacity="0.24627664332808166"/>
  <circle cx="1056.740349913227" cy="610.248808692855" r="3.2927929241293086" fill="#CFAE58" opacity="0.20495816625616475"/>
  <circle cx="387.06031314609214" cy="511.37348346415865" r="5.124337365240338" fill="#CFAE58" opacity="0.1942068277607329"/>
  <circle cx="903.0141813231901" cy="40.3994221351072" r="3.139050290282028" fill="#CFAE58" opacity="0.12797526953712088"/>
  <circle cx="1107.8811468589386" cy="374.21228005646606" r="4.198705659954963" fill="#CFAE58" opacity="0.2109251260269663"/>
  <circle cx="1116.9167338381083" cy="570.6085318341052" r="5.0728515632422875" fill="#CFAE58" opacity="0.23119560456446972"/>
  <circle cx="358.30884083815715" cy="138.82687606121962" r="5.775869618621725" fill="#CFAE58" opacity="0.1656534980348524"/>
  <circle cx="365.5624577822819" cy="38.453289726325124" r="3.4384928314024963" fill="#CFAE58" opacity="0.1747524351910163"/>
  <circle cx="399.487847870199" cy="602.7105303977332" r="3.211169206216833" fill="#CFAE58" opacity="0.12655019602825268"/>
  <circle cx="78.5055312054891" cy="541.3398523458851" r="4.1365352943175315" fill="#CFAE58" opacity="0.22687403940159126"/>
  <circle cx="202.95903429627583" cy="488.4645667319546" r="3.7330186438725033" fill="#CFAE58" opacity="0.14865235655678657"/>
  <circle cx="937.5397625688149" cy="68.51545776502373" r="4.671874272017929" fill="#CFAE58" opacity="0.22324314812355817"/>
  <circle cx="931.7865005300674" cy="321.9571792805747" r="3.296979470337485" fill="#CFAE58" opacity="0.24679265324944274"/>
  <circle cx="759.2222260914687" cy="301.60995050124643" r="2.4629720577033956" fill="#CFAE58" opacity="0.12308765502785184"/>
  <circle cx="945.5386091636924" cy="570.6397989538743" r="5.081860503961684" fill="#CFAE58" opacity="0.19426354483488267"/>
  <circle cx="371.04566113556746" cy="156.75903118316393" r="3.016034218689521" fill="#CFAE58" opacity="0.12036176373630403"/>
  <circle cx="233.05647013221932" cy="612.8570296092157" r="4.678270525938476" fill="#CFAE58" opacity="0.20075721695898374"/>
  <circle cx="944.2476924098578" cy="395.1295277501202" r="2.825732881494118" fill="#CFAE58" opacity="0.18982508870090023"/>
  <circle cx="338.8060423492348" cy="544.930633366032" r="3.455818548839286" fill="#CFAE58" opacity="0.14004180012823986"/>
  <circle cx="1034.5008048006368" cy="160.38900685099563" r="2.7056921435819135" fill="#CFAE58" opacity="0.18637374635581785"/>
  <circle cx="306.3571924872722" cy="152.63234273388755" r="2.186248043012239" fill="#CFAE58" opacity="0.15022513943371402"/>
  <circle cx="704.7074005237832" cy="173.92060852651073" r="3.930742583087625" fill="#CFAE58" opacity="0.14880120929726814"/>
  <circle cx="586.2223628019025" cy="427.45590027944246" r="5.401615636493767" fill="#CFAE58" opacity="0.11112101797390385"/>
  <circle cx="499.95455252028665" cy="11.531625699034347" r="5.426898817224464" fill="#CFAE58" opacity="0.12120468587175245"/>
  <circle cx="666.7786278004065" cy="430.5274536960341" r="5.482812401203755" fill="#CFAE58" opacity="0.13831766593138928"/>
  <circle cx="949.3691442777408" cy="233.49119595265344" r="3.99429222157792" fill="#CFAE58" opacity="0.20233390144272845"/>
  <circle cx="740.820452044616" cy="365.5438201369986" r="3.4669467646238585" fill="#CFAE58" opacity="0.24169885316484907"/>
  <circle cx="647.0893119856103" cy="72.06649094326528" r="5.380599646079637" fill="#CFAE58" opacity="0.18426523134787426"/>
  <circle cx="421.21024931587334" cy="417.43918945652257" r="2.5761722710125623" fill="#CFAE58" opacity="0.19325252303860607"/>
  <circle cx="710.3684196075966" cy="262.063962599754" r="5.448381009081465" fill="#CFAE58" opacity="0.2070805430454326"/>

  <!-- Border with glow -->
  <rect x="40" y="40" width="1120" height="550" fill="none" stroke="url(#goldGradient)" stroke-width="3" rx="12" filter="url(#softGlow)"/>

  <!-- Icon circle with premium background -->
  <circle cx="150" cy="200" r="75" fill="#CFAE58" opacity="0.15" filter="url(#softGlow)"/>
  <circle cx="150" cy="200" r="70" fill="#CFAE58" opacity="0.25"/>
  <text x="150" y="235" font-size="90" text-anchor="middle" fill="#CFAE58" filter="url(#glow)">📰</text>

  <!-- Premium logo (crown) with enhanced styling -->
  <g transform="translate(100, 70)">
    <path d="M 30 20 L 40 35 L 35 35 Z M 50 15 L 60 35 L 45 35 Z M 65 20 L 75 35 L 70 35 Z M 30 35 L 75 35 L 73 45 L 32 45 Z"
          fill="url(#goldGradient)" filter="url(#glow)" stroke="#B89842" stroke-width="0.5"/>
    <circle cx="40" cy="25" r="3" fill="#4FD1C5" filter="url(#glow)"/>
    <circle cx="52" cy="20" r="4" fill="#4FD1C5" filter="url(#glow)"/>
    <circle cx="65" cy="25" r="3" fill="#4FD1C5" filter="url(#glow)"/>
  </g>

  <!-- Title with shadow -->
  <text x="280" y="180" font-family="Georgia, serif" font-size="72" font-weight="bold"
        fill="url(#goldGradient)" filter="url(#shadow)">News &amp; Insights</text>

  <!-- Subtitle with subtle glow -->
  <text x="280" y="230" font-family="Arial, sans-serif" font-size="36"
        fill="#D6DEE6" opacity="0.95" filter="url(#softGlow)">Updates from Royal Keta Hatchery</text>

  <!-- Brand name with letter spacing -->
  <text x="280" y="300" font-family="Georgia, serif" font-size="32" font-weight="bold"
        fill="#CFAE58" letter-spacing="4" filter="url(#glow)">ROYAL KETA</text>

  <!-- Russian tagline -->
  <text x="280" y="340" font-family="Arial, sans-serif" font-size="22" font-style="italic"
        fill="#8B95A1" opacity="0.8">От икринки к королевской</text>

  <!-- Location -->
  <text x="280" y="380" font-family="Arial, sans-serif" font-size="20"
        fill="#8B95A1" opacity="0.7">Невельский район, Сахалин</text>

  <!-- Website with glow -->
  <text x="100" y="570" font-family="Arial, sans-serif" font-size="30" font-weight="bold"
        fill="#4FD1C5" filter="url(#glow)">royalketa.com</text>

  <!-- Enhanced decorative salmon silhouette -->
  <g transform="translate(950, 480)" opacity="0.2" filter="url(#softGlow)">
    <ellipse cx="0" cy="0" rx="90" ry="35" fill="#CFAE58"/>
    <path d="M 90 0 L 120 -18 L 130 0 L 120 18 Z" fill="#CFAE58"/>
    <path d="M -25 -35 L 0 -45 L 25 -35 Z" fill="#CFAE58"/>
    <ellipse cx="-50" cy="0" rx="15" ry="12" fill="#0B0F14"/>
  </g>

  <!-- Additional decorative caviar clusters -->
  <g opacity="0.2">
    <circle cx="1050" cy="120" r="6" fill="#CFAE58"/>
    <circle cx="1065" cy="115" r="5" fill="#CFAE58"/>
    <circle cx="1058" cy="130" r="4" fill="#CFAE58"/>
    <circle cx="150" cy="500" r="5" fill="#4FD1C5"/>
    <circle cx="165" cy="508" r="4" fill="#4FD1C5"/>
    <circle cx="140" cy="512" r="5" fill="#4FD1C5"/>
  </g>
</svg>