<svg width="1200" height="630" xmlns="http://www.w3.org/2000/svg">
  <defs>
    <linearGradient id="bgGradient" x1="0%" y1="0%" x2="100%" y2="100%">
      <stop offset="0%" style="stop-color:#0B0F14;stop-opacity:1" />
      <stop offset="50%" style="stop-color:#0F1619;stop-opacity:1" />
      <stop offset="100%" style="stop-color:#0F1922;stop-opacity:1" />
    </linearGradient>
    <linearGradient id="goldGradient" x1="0%" y1="0%" x2="100%" y2="0%">
      <stop offset="0%" style="stop-color:#E5D596;stop-opacity:1" />
      <stop offset="50%" style="stop-color:#CFAE58;stop-opacity:1" />
      <stop offset="100%" style="stop-color:#B89842;stop-opacity:1" />
    </linearGradient>
    <radialGradient id="oceanGradient" cx="50%" cy="50%" r="50%">
      <stop offset="0%" style="stop-color:#4FD1C5;stop-opacity:0.3" />
      <stop offset="100%" style="stop-color:#1E90A0;stop-opacity:0.05" />
    </radialGradient>
    <filter id="glow">
      <feGaussianBlur stdDeviation="5" result="coloredBlur"/>
      <feMerge>
        <feMergeNode in="coloredBlur"/>
        <feMergeNode in="SourceGraphic"/>
      </feMerge>
    </filter>
    <filter id="softGlow">
      <feGaussianBlur stdDeviation="8" result="coloredBlur"/>
      <feMerge>
        <feMergeNode in="coloredBlur"/>
        <feMergeNode in="SourceGraphic"/>
      </feMerge>
    </filter>
    <filter id="shadow">
      <feDropShadow dx="0" dy="4" stdDeviation="8" flood-color="#000000" flood-opacity="0.5"/>
    </filter>
  </defs>

  <!-- Background -->
  <rect width="1200" height="630" fill="url(#bgGradient)"/>

  <!-- Decorative ocean gradients -->
  <ellipse cx="1000" cy="150" rx="300" ry="200" fill="url(#oceanGradient)" opacity="0.4"/>
  <ellipse cx="200" cy="530" rx="250" ry="180" fill="url(#oceanGradient)" opacity="0.3"/>

  <!-- Wave patterns -->
  <path d="M 0 400 Q 300 350 600 400 T 1200 400 L 1200 630 L 0 630 Z" fill="#1E90A0" opacity="0.08"/>
  <path d="M 0 450 Q 250 420 500 450 T 1000 450 T 1200 450 L 1200 630 L 0 630 Z" fill="#4FD1C5" opacity="0.05"/>

  <!-- Caviar roe particles -->
  <circle cx="367.3512315940494" cy="43.60334544450909" r="3.143158001361012" fill="#CFAE58" opacity="0.17027062509107813"/>
  <circle cx="816.1181782578197" cy="275.18067577659616" r="5.715372167555896" fill="#CFAE58" opacity="0.1609218698373359"/>
  <circle cx="850.1565810790872" cy="161.45633368077677" r="3.6578157523158574" fill="#CFAE58" opacity="0.1458711278015532"/>
  <circle cx="724.5145433137568" cy="9.9326567501159" r="5.68195841691623" fill="#CFAE58" opacity="0.17516712731889236"/>
  <circle cx="159.59061937704266" cy="167.45707115182648" r="5.895374117986291" fill="#CFAE58" opacity="0.1721191246754769"/>
  <circle cx="157.3276004483668" cy="480.0082776348938" r="5.302543255977452" fill="#CFAE58" opacity="0.12393762864249272"/>
  <circle cx="512.5776657129587" cy="387.56204653004863" r="3.1062797138650287" fill="#CFAE58" opacity="0.19097840643639497"/>
  <circle cx="622.7875255034667" cy="139.43418579690305" r="5.755283974365691" fill="#CFAE58" opacity="0.2370358669058037"/>
  <circle cx="1151.9772896256027" cy="235.92039784881763" r="3.494809131532795" fill="#CFAE58" opacity="0.21928922169927834"/>
  <circle cx="144.8571027398765" cy="459.76741489479997" r="4.205638962079311" fill="#CFAE58" opacity="0.15596487059771763"/>
  <circle cx="1116.5391307000764" cy="104.4776872818478" r="4.497031382361678" fill="#CFAE58" opacity="0.22033502707904468"/>
  <circle cx="726.009433219383" cy="116.44508214224797" r="4.846665389133127" fill="#CFAE58" opacity="0.1770469028039688"/>
  <circle cx="132.42447286983952" cy="466.6175073660945" r="4.028034746815722" fill="#CFAE58" opacity="0.1558299014662681"/>
  <circle cx="418.3717532634051" cy="472.7880737148763" r="4.235635322123477" fill="#CFAE58" opacity="0.15965574682519196"/>
  <circle cx="36.971987719921586" cy="628.8071284353799" r="3.8261530636740972" fill="#CFAE58" opacity="0.1533210065467701"/>
  <circle cx="791.8109218804968" cy="425.5330567124484" r="4.466923523485112" fill="#CFAE58" opacity="0.2418365853209501"/>
  <circle cx="892.7094667770652" cy="365.089149452362" r="4.446969849409911" fill="#CFAE58" opacity="0.13039590533340306"/>
  <circle cx="644.7572925863332" cy="63.82490663463341" r="3.888587908338392" fill="#CFAE58" opacity="0.21428291142670586"/>
  <circle cx="368.16901566676256" cy="72.84005220166233" r="5.955533352131286" fill="#CFAE58" opacity="0.18941546921669739"/>
  <circle cx="361.51215916486603" cy="95.35028440757723" r="3.002592644741191" fill="#CFAE58" opacity="0.10343085625019716"/>
  <circle cx="13.494340552292305" cy="395.1904276212516" r="5.964430987458469" fill="#CFAE58" opacity="0.1705200340689072"/>
  <circle cx="763.3971910293695" cy="610.697782671601" r="4.4136060486423165" fill="#CFAE58" opacity="0.24782887013456184"/>
  <circle cx="1190.8913032559326" cy="434.53246118054415" r="5.48262670729031" fill="#CFAE58" opacity="0.10351314699944923"/>
  <circle cx="606.8240194089196" cy="54.21569474457093" r="2.9987571995628026" fill="#CFAE58" opacity="0.21733097819310598"/>
  <circle cx="1142.4990201925873" cy="247.9723005850823" r="2.8353446164312097" fill="#CFAE58" opacity="0.1868176836719243"/>
  <circle cx="1145.8856581685063" cy="323.8994110228637" r="2.6487671703524716" fill="#CFAE58" opacity="0.1278253708079967"/>
  <circle cx="681.9164645897154" cy="463.36198278281984" r="4.670539155332181" fill="#CFAE58" opacity="0.12877989092886136"/>
  <circle cx="320.0385866850783" cy="55.98808468556786" r="2.896871290868572" fill="#CFAE58" opacity="0.1974325932049249"/>
  <circle cx="1010.4349542216162" cy="533.9038498882022" r="5.010039716673811" fill="#CFAE58" opacity="0.17631997946354105"/>
  <circle cx="1017.4718297569041" cy="122.76264578422114" r="2.1568550521366308" fill="#CFAE58" opacity="0.19534268854374853"/>

  <!-- Border with glow -->
  <rect x="40" y="40" width="1120" height="550" fill="none" stroke="url(#goldGradient)" stroke-width="3" rx="12" filter="url(#softGlow)"/>

  <!-- Icon circle with premium background -->
  <circle cx="150" cy="200" r="75" fill="#CFAE58" opacity="0.15" filter="url(#softGlow)"/>
  <circle cx="150" cy="200" r="70" fill="#CFAE58" opacity="0.25"/>
  <text x="150" y="235" font-size="90" text-anchor="middle" fill="#CFAE58" filter="url(#glow)">📰</text>

  <!-- Premium logo (crown) with enhanced styling -->
  <g transform="translate(100, 70)">
    <path d="M 30 20 L 40 35 L 35 35 Z M 50 15 L 60 35 L 45 35 Z M 65 20 L 75 35 L 70 35 Z M 30 35 L 75 35 L 73 45 L 32 45 Z"
          fill="url(#goldGradient)" filter="url(#glow)" stroke="#B89842" stroke-width="0.5"/>
    <circle cx="40" cy="25" r="3" fill="#4FD1C5" filter="url(#glow)"/>
    <circle cx="52" cy="20" r="4" fill="#4FD1C5" filter="url(#glow)"/>
    <circle cx="65" cy="25" r="3" fill="#4FD1C5" filter="url(#glow)"/>
  </g>

  <!-- Title with shadow -->
  <text x="280" y="180" font-family="Georgia, serif" font-size="72" font-weight="bold"
        fill="url(#goldGradient)" filter="url(#shadow)">News &amp; Insights</text>

  <!-- Subtitle with subtle glow -->
  <text x="280" y="230" font-family="Arial, sans-serif" font-size="36"
        fill="#D6DEE6" opacity="0.95" filter="url(#softGlow)">Updates from Royal Keta Hatchery</text>

  <!-- Brand name with letter spacing -->
  <text x="280" y="300" font-family="Georgia, serif" font-size="32" font-weight="bold"
        fill="#CFAE58" letter-spacing="4" filter="url(#glow)">ROYAL KETA</text>

  <!-- Russian tagline -->
  <text x="280" y="340" font-family="Arial, sans-serif" font-size="22" font-style="italic"
        fill="#8B95A1" opacity="0.8">От икринки к королевской</text>

  <!-- Location -->
  <text x="280" y="380" font-family="Arial, sans-serif" font-size="20"
        fill="#8B95A1" opacity="0.7">Невельский район, Сахалин</text>

  <!-- Website with glow -->
  <text x="100" y="570" font-family="Arial, sans-serif" font-size="30" font-weight="bold"
        fill="#4FD1C5" filter="url(#glow)">royalketa.com</text>

  <!-- Enhanced decorative salmon silhouette -->
  <g transform="translate(950, 480)" opacity="0.2" filter="url(#softGlow)">
    <ellipse cx="0" cy="0" rx="90" ry="35" fill="#CFAE58"/>
    <path d="M 90 0 L 120 -18 L 130 0 L 120 18 Z" fill="#CFAE58"/>
    <path d="M -25 -35 L 0 -45 L 25 -35 Z" fill="#CFAE58"/>
    <ellipse cx="-50" cy="0" rx="15" ry="12" fill="#0B0F14"/>
  </g>

  <!-- Additional decorative caviar clusters -->
  <g opacity="0.2">
    <circle cx="1050" cy="120" r="6" fill="#CFAE58"/>
    <circle cx="1065" cy="115" r="5" fill="#CFAE58"/>
    <circle cx="1058" cy="130" r="4" fill="#CFAE58"/>
    <circle cx="150" cy="500" r="5" fill="#4FD1C5"/>
    <circle cx="165" cy="508" r="4" fill="#4FD1C5"/>
    <circle cx="140" cy="512" r="5" fill="#4FD1C5"/>
  </g>
</svg>