<svg width="1200" height="630" xmlns="http://www.w3.org/2000/svg">
  <defs>
    <linearGradient id="bgGradient" x1="0%" y1="0%" x2="100%" y2="100%">
      <stop offset="0%" style="stop-color:#0B0F14;stop-opacity:1" />
      <stop offset="50%" style="stop-color:#0F1619;stop-opacity:1" />
      <stop offset="100%" style="stop-color:#0F1922;stop-opacity:1" />
    </linearGradient>
    <linearGradient id="goldGradient" x1="0%" y1="0%" x2="100%" y2="0%">
      <stop offset="0%" style="stop-color:#E5D596;stop-opacity:1" />
      <stop offset="50%" style="stop-color:#CFAE58;stop-opacity:1" />
      <stop offset="100%" style="stop-color:#B89842;stop-opacity:1" />
    </linearGradient>
    <radialGradient id="oceanGradient" cx="50%" cy="50%" r="50%">
      <stop offset="0%" style="stop-color:#4FD1C5;stop-opacity:0.3" />
      <stop offset="100%" style="stop-color:#1E90A0;stop-opacity:0.05" />
    </radialGradient>
    <filter id="glow">
      <feGaussianBlur stdDeviation="5" result="coloredBlur"/>
      <feMerge>
        <feMergeNode in="coloredBlur"/>
        <feMergeNode in="SourceGraphic"/>
      </feMerge>
    </filter>
    <filter id="softGlow">
      <feGaussianBlur stdDeviation="8" result="coloredBlur"/>
      <feMerge>
        <feMergeNode in="coloredBlur"/>
        <feMergeNode in="SourceGraphic"/>
      </feMerge>
    </filter>
    <filter id="shadow">
      <feDropShadow dx="0" dy="4" stdDeviation="8" flood-color="#000000" flood-opacity="0.5"/>
    </filter>
  </defs>

  <!-- Background -->
  <rect width="1200" height="630" fill="url(#bgGradient)"/>

  <!-- Decorative ocean gradients -->
  <ellipse cx="1000" cy="150" rx="300" ry="200" fill="url(#oceanGradient)" opacity="0.4"/>
  <ellipse cx="200" cy="530" rx="250" ry="180" fill="url(#oceanGradient)" opacity="0.3"/>

  <!-- Wave patterns -->
  <path d="M 0 400 Q 300 350 600 400 T 1200 400 L 1200 630 L 0 630 Z" fill="#1E90A0" opacity="0.08"/>
  <path d="M 0 450 Q 250 420 500 450 T 1000 450 T 1200 450 L 1200 630 L 0 630 Z" fill="#4FD1C5" opacity="0.05"/>

  <!-- Caviar roe particles -->
  <circle cx="632.852273935049" cy="346.46922549509486" r="3.508066377250323" fill="#CFAE58" opacity="0.17062675799949129"/>
  <circle cx="804.7745277916179" cy="313.26572350707136" r="5.486948512136117" fill="#CFAE58" opacity="0.23086861664579425"/>
  <circle cx="701.2831571921918" cy="365.26137924249974" r="2.21037151758828" fill="#CFAE58" opacity="0.15337552591298262"/>
  <circle cx="146.02379125499985" cy="511.84342312077575" r="2.6651544464685957" fill="#CFAE58" opacity="0.10606933714915119"/>
  <circle cx="926.1627525293775" cy="135.58843164273426" r="4.8391839400374" fill="#CFAE58" opacity="0.2346680713448309"/>
  <circle cx="1027.1904293030104" cy="420.86691963965677" r="2.2317616920010144" fill="#CFAE58" opacity="0.22873436499356048"/>
  <circle cx="634.091423158993" cy="69.54861512518374" r="2.026324560225776" fill="#CFAE58" opacity="0.13242540657977997"/>
  <circle cx="1048.3353011469583" cy="19.245445547840202" r="5.041722824541807" fill="#CFAE58" opacity="0.23758876060542763"/>
  <circle cx="11.479305866182177" cy="484.85486893008203" r="2.576797432481051" fill="#CFAE58" opacity="0.22413394205801146"/>
  <circle cx="651.7941692292504" cy="60.661136934593266" r="4.547951789071015" fill="#CFAE58" opacity="0.23724089834543458"/>
  <circle cx="876.7736357479083" cy="524.2292184093047" r="4.215807862124055" fill="#CFAE58" opacity="0.2400716194721943"/>
  <circle cx="709.5953406546706" cy="484.9675639086274" r="3.8244653469123424" fill="#CFAE58" opacity="0.2449593474174683"/>
  <circle cx="846.0178210505085" cy="236.11865534494913" r="5.92101624881683" fill="#CFAE58" opacity="0.24439569102303765"/>
  <circle cx="528.6946514665774" cy="157.89944990215514" r="4.401611643525548" fill="#CFAE58" opacity="0.1561178837687257"/>
  <circle cx="820.5463045252284" cy="98.1203328743973" r="3.2188714869734145" fill="#CFAE58" opacity="0.1586659023832838"/>
  <circle cx="167.05713816456776" cy="322.09215113013965" r="3.8870949028366413" fill="#CFAE58" opacity="0.10814422311427682"/>
  <circle cx="189.86325577707942" cy="28.505375873939705" r="3.069239332298011" fill="#CFAE58" opacity="0.14520192762375145"/>
  <circle cx="653.5622847172772" cy="158.2177126162383" r="5.305612610018776" fill="#CFAE58" opacity="0.15155505716506004"/>
  <circle cx="582.7380136410372" cy="289.1798605666802" r="4.780507907508672" fill="#CFAE58" opacity="0.19989444786111754"/>
  <circle cx="286.20288139461564" cy="326.411957594485" r="5.781948230508989" fill="#CFAE58" opacity="0.11742272528912036"/>
  <circle cx="893.9342474644651" cy="3.3960032091170977" r="4.819173834701135" fill="#CFAE58" opacity="0.1910820814659292"/>
  <circle cx="896.1412758733566" cy="319.47919814934835" r="3.0164306162741292" fill="#CFAE58" opacity="0.19917296908914725"/>
  <circle cx="959.6620766234059" cy="629.5685850823104" r="5.548792750503404" fill="#CFAE58" opacity="0.18448015243381072"/>
  <circle cx="210.41355719009164" cy="4.531100435626123" r="3.7339640926614335" fill="#CFAE58" opacity="0.18186391400616814"/>
  <circle cx="570.1969546751025" cy="577.5652457042041" r="2.2462075293641277" fill="#CFAE58" opacity="0.20012838800233065"/>
  <circle cx="1081.9187543860403" cy="591.0778442243648" r="5.6666178634185735" fill="#CFAE58" opacity="0.10989738775323578"/>
  <circle cx="1027.0456023572353" cy="253.2996733106311" r="4.715664893816718" fill="#CFAE58" opacity="0.14376024912772084"/>
  <circle cx="1055.9115920935528" cy="609.9864348058304" r="2.7837486950754036" fill="#CFAE58" opacity="0.2321056093447612"/>
  <circle cx="69.21771034574951" cy="453.42498129225487" r="3.308206508419958" fill="#CFAE58" opacity="0.10179534390936316"/>
  <circle cx="817.3653596813127" cy="125.97709537240891" r="5.594335785878131" fill="#CFAE58" opacity="0.17598975891268412"/>

  <!-- Border with glow -->
  <rect x="40" y="40" width="1120" height="550" fill="none" stroke="url(#goldGradient)" stroke-width="3" rx="12" filter="url(#softGlow)"/>

  <!-- Icon circle with premium background -->
  <circle cx="150" cy="200" r="75" fill="#CFAE58" opacity="0.15" filter="url(#softGlow)"/>
  <circle cx="150" cy="200" r="70" fill="#CFAE58" opacity="0.25"/>
  <text x="150" y="235" font-size="90" text-anchor="middle" fill="#CFAE58" filter="url(#glow)">📰</text>

  <!-- Premium logo (crown) with enhanced styling -->
  <g transform="translate(100, 70)">
    <path d="M 30 20 L 40 35 L 35 35 Z M 50 15 L 60 35 L 45 35 Z M 65 20 L 75 35 L 70 35 Z M 30 35 L 75 35 L 73 45 L 32 45 Z"
          fill="url(#goldGradient)" filter="url(#glow)" stroke="#B89842" stroke-width="0.5"/>
    <circle cx="40" cy="25" r="3" fill="#4FD1C5" filter="url(#glow)"/>
    <circle cx="52" cy="20" r="4" fill="#4FD1C5" filter="url(#glow)"/>
    <circle cx="65" cy="25" r="3" fill="#4FD1C5" filter="url(#glow)"/>
  </g>

  <!-- Title with shadow -->
  <text x="280" y="180" font-family="Georgia, serif" font-size="72" font-weight="bold"
        fill="url(#goldGradient)" filter="url(#shadow)">News & Insights</text>

  <!-- Subtitle with subtle glow -->
  <text x="280" y="230" font-family="Arial, sans-serif" font-size="36"
        fill="#D6DEE6" opacity="0.95" filter="url(#softGlow)">Updates from Royal Keta Hatchery</text>

  <!-- Brand name with letter spacing -->
  <text x="280" y="300" font-family="Georgia, serif" font-size="32" font-weight="bold"
        fill="#CFAE58" letter-spacing="4" filter="url(#glow)">ROYAL KETA</text>

  <!-- Russian tagline -->
  <text x="280" y="340" font-family="Arial, sans-serif" font-size="22" font-style="italic"
        fill="#8B95A1" opacity="0.8">От икринки к королевской</text>

  <!-- Location -->
  <text x="280" y="380" font-family="Arial, sans-serif" font-size="20"
        fill="#8B95A1" opacity="0.7">Невельский район, Сахалин</text>

  <!-- Website with glow -->
  <text x="100" y="570" font-family="Arial, sans-serif" font-size="30" font-weight="bold"
        fill="#4FD1C5" filter="url(#glow)">royalketa.com</text>

  <!-- Enhanced decorative salmon silhouette -->
  <g transform="translate(950, 480)" opacity="0.2" filter="url(#softGlow)">
    <ellipse cx="0" cy="0" rx="90" ry="35" fill="#CFAE58"/>
    <path d="M 90 0 L 120 -18 L 130 0 L 120 18 Z" fill="#CFAE58"/>
    <path d="M -25 -35 L 0 -45 L 25 -35 Z" fill="#CFAE58"/>
    <ellipse cx="-50" cy="0" rx="15" ry="12" fill="#0B0F14"/>
  </g>

  <!-- Additional decorative caviar clusters -->
  <g opacity="0.2">
    <circle cx="1050" cy="120" r="6" fill="#CFAE58"/>
    <circle cx="1065" cy="115" r="5" fill="#CFAE58"/>
    <circle cx="1058" cy="130" r="4" fill="#CFAE58"/>
    <circle cx="150" cy="500" r="5" fill="#4FD1C5"/>
    <circle cx="165" cy="508" r="4" fill="#4FD1C5"/>
    <circle cx="140" cy="512" r="5" fill="#4FD1C5"/>
  </g>
</svg>