<svg width="1200" height="630" xmlns="http://www.w3.org/2000/svg">
  <defs>
    <linearGradient id="bgGradient" x1="0%" y1="0%" x2="100%" y2="100%">
      <stop offset="0%" style="stop-color:#0B0F14;stop-opacity:1" />
      <stop offset="50%" style="stop-color:#0F1619;stop-opacity:1" />
      <stop offset="100%" style="stop-color:#0F1922;stop-opacity:1" />
    </linearGradient>
    <linearGradient id="goldGradient" x1="0%" y1="0%" x2="100%" y2="0%">
      <stop offset="0%" style="stop-color:#E5D596;stop-opacity:1" />
      <stop offset="50%" style="stop-color:#CFAE58;stop-opacity:1" />
      <stop offset="100%" style="stop-color:#B89842;stop-opacity:1" />
    </linearGradient>
    <radialGradient id="oceanGradient" cx="50%" cy="50%" r="50%">
      <stop offset="0%" style="stop-color:#4FD1C5;stop-opacity:0.3" />
      <stop offset="100%" style="stop-color:#1E90A0;stop-opacity:0.05" />
    </radialGradient>
    <filter id="glow">
      <feGaussianBlur stdDeviation="5" result="coloredBlur"/>
      <feMerge>
        <feMergeNode in="coloredBlur"/>
        <feMergeNode in="SourceGraphic"/>
      </feMerge>
    </filter>
    <filter id="softGlow">
      <feGaussianBlur stdDeviation="8" result="coloredBlur"/>
      <feMerge>
        <feMergeNode in="coloredBlur"/>
        <feMergeNode in="SourceGraphic"/>
      </feMerge>
    </filter>
    <filter id="shadow">
      <feDropShadow dx="0" dy="4" stdDeviation="8" flood-color="#000000" flood-opacity="0.5"/>
    </filter>
  </defs>

  <!-- Background -->
  <rect width="1200" height="630" fill="url(#bgGradient)"/>

  <!-- Decorative ocean gradients -->
  <ellipse cx="1000" cy="150" rx="300" ry="200" fill="url(#oceanGradient)" opacity="0.4"/>
  <ellipse cx="200" cy="530" rx="250" ry="180" fill="url(#oceanGradient)" opacity="0.3"/>

  <!-- Wave patterns -->
  <path d="M 0 400 Q 300 350 600 400 T 1200 400 L 1200 630 L 0 630 Z" fill="#1E90A0" opacity="0.08"/>
  <path d="M 0 450 Q 250 420 500 450 T 1000 450 T 1200 450 L 1200 630 L 0 630 Z" fill="#4FD1C5" opacity="0.05"/>

  <!-- Caviar roe particles -->
  <circle cx="1122.596542896075" cy="51.96749999039365" r="3.3870762039799684" fill="#CFAE58" opacity="0.22604716905229774"/>
  <circle cx="282.3402933095518" cy="103.31609839907698" r="4.574036928810398" fill="#CFAE58" opacity="0.22385687293640702"/>
  <circle cx="468.1689375472003" cy="267.9395916871339" r="4.017881181354399" fill="#CFAE58" opacity="0.1415988386070586"/>
  <circle cx="223.07895289844487" cy="463.6202447785168" r="3.110404887962545" fill="#CFAE58" opacity="0.11142744260988217"/>
  <circle cx="529.4459069435317" cy="72.46603966694516" r="4.468332738569176" fill="#CFAE58" opacity="0.21942548682134547"/>
  <circle cx="1125.9217713609282" cy="529.5436814744781" r="5.805019297832317" fill="#CFAE58" opacity="0.16976833928349683"/>
  <circle cx="263.67455544375497" cy="211.73255710674763" r="2.724789738971338" fill="#CFAE58" opacity="0.20552827355750594"/>
  <circle cx="364.587427535869" cy="512.7835943894656" r="3.2672614092248464" fill="#CFAE58" opacity="0.14498774056650654"/>
  <circle cx="880.4954979819373" cy="279.76360220960214" r="5.737021515753189" fill="#CFAE58" opacity="0.13139172795386223"/>
  <circle cx="536.2411965796618" cy="122.80177718934688" r="3.837330918916396" fill="#CFAE58" opacity="0.16716954494985942"/>
  <circle cx="509.5096235294589" cy="292.4967369910165" r="2.0129223367741558" fill="#CFAE58" opacity="0.1233572719034064"/>
  <circle cx="887.12777177209" cy="360.43226742180343" r="4.2011311723063" fill="#CFAE58" opacity="0.24358638978864058"/>
  <circle cx="314.3756717989122" cy="89.27031042235146" r="4.63747683094071" fill="#CFAE58" opacity="0.20769275244726085"/>
  <circle cx="940.5338061792967" cy="356.0895705560138" r="2.37808334854608" fill="#CFAE58" opacity="0.22431420735043123"/>
  <circle cx="73.39464632755295" cy="110.769446689308" r="2.5056977327316527" fill="#CFAE58" opacity="0.2482659686591205"/>
  <circle cx="755.495522440761" cy="131.12651341635527" r="5.02885309930334" fill="#CFAE58" opacity="0.21759053292644218"/>
  <circle cx="189.82144703687086" cy="476.5164132627488" r="2.466430641758393" fill="#CFAE58" opacity="0.10880828188534872"/>
  <circle cx="979.3740404292063" cy="259.6412013634737" r="3.4521097643348506" fill="#CFAE58" opacity="0.18848944844820742"/>
  <circle cx="1190.423328123278" cy="176.73720253136338" r="4.245484451905592" fill="#CFAE58" opacity="0.10822041228260026"/>
  <circle cx="218.0373693986528" cy="73.71999635724629" r="2.7519102160016073" fill="#CFAE58" opacity="0.12793297187513472"/>
  <circle cx="426.983967037154" cy="239.85159083076135" r="5.703573151308948" fill="#CFAE58" opacity="0.17985422640741883"/>
  <circle cx="970.7045553372078" cy="293.2262598647275" r="5.513435529428065" fill="#CFAE58" opacity="0.10723745121809514"/>
  <circle cx="566.6401261791655" cy="145.43078016696933" r="2.3123799860790335" fill="#CFAE58" opacity="0.17805662177154502"/>
  <circle cx="789.4715659144374" cy="316.3782450885751" r="5.692053684371699" fill="#CFAE58" opacity="0.24162906912043564"/>
  <circle cx="346.308707509509" cy="378.8508537777213" r="3.894928293927693" fill="#CFAE58" opacity="0.22692687307750153"/>
  <circle cx="179.35202546696817" cy="122.31717114653338" r="4.584731434669322" fill="#CFAE58" opacity="0.1087237167798984"/>
  <circle cx="263.5506501679176" cy="6.955648429514902" r="4.556637572976769" fill="#CFAE58" opacity="0.24101065373223787"/>
  <circle cx="332.7796104107173" cy="485.49348034597847" r="5.376588992104063" fill="#CFAE58" opacity="0.19695262407184344"/>
  <circle cx="188.1726741537074" cy="617.8025175625226" r="4.4174944341050795" fill="#CFAE58" opacity="0.2363875485118714"/>
  <circle cx="1062.3380993669937" cy="372.1254440743172" r="4.188422667972503" fill="#CFAE58" opacity="0.1337304795154948"/>

  <!-- Border with glow -->
  <rect x="40" y="40" width="1120" height="550" fill="none" stroke="url(#goldGradient)" stroke-width="3" rx="12" filter="url(#softGlow)"/>

  <!-- Icon circle with premium background -->
  <circle cx="150" cy="200" r="75" fill="#CFAE58" opacity="0.15" filter="url(#softGlow)"/>
  <circle cx="150" cy="200" r="70" fill="#CFAE58" opacity="0.25"/>
  <text x="150" y="235" font-size="90" text-anchor="middle" fill="#CFAE58" filter="url(#glow)">📰</text>

  <!-- Premium logo (crown) with enhanced styling -->
  <g transform="translate(100, 70)">
    <path d="M 30 20 L 40 35 L 35 35 Z M 50 15 L 60 35 L 45 35 Z M 65 20 L 75 35 L 70 35 Z M 30 35 L 75 35 L 73 45 L 32 45 Z"
          fill="url(#goldGradient)" filter="url(#glow)" stroke="#B89842" stroke-width="0.5"/>
    <circle cx="40" cy="25" r="3" fill="#4FD1C5" filter="url(#glow)"/>
    <circle cx="52" cy="20" r="4" fill="#4FD1C5" filter="url(#glow)"/>
    <circle cx="65" cy="25" r="3" fill="#4FD1C5" filter="url(#glow)"/>
  </g>

  <!-- Title with shadow -->
  <text x="280" y="180" font-family="Georgia, serif" font-size="72" font-weight="bold"
        fill="url(#goldGradient)" filter="url(#shadow)">News & Insights</text>

  <!-- Subtitle with subtle glow -->
  <text x="280" y="230" font-family="Arial, sans-serif" font-size="36"
        fill="#D6DEE6" opacity="0.95" filter="url(#softGlow)">Updates from Royal Keta Hatchery</text>

  <!-- Brand name with letter spacing -->
  <text x="280" y="300" font-family="Georgia, serif" font-size="32" font-weight="bold"
        fill="#CFAE58" letter-spacing="4" filter="url(#glow)">ROYAL KETA</text>

  <!-- Russian tagline -->
  <text x="280" y="340" font-family="Arial, sans-serif" font-size="22" font-style="italic"
        fill="#8B95A1" opacity="0.8">От икринки к королевской</text>

  <!-- Location -->
  <text x="280" y="380" font-family="Arial, sans-serif" font-size="20"
        fill="#8B95A1" opacity="0.7">Невельский район, Сахалин</text>

  <!-- Website with glow -->
  <text x="100" y="570" font-family="Arial, sans-serif" font-size="30" font-weight="bold"
        fill="#4FD1C5" filter="url(#glow)">royalketa.com</text>

  <!-- Enhanced decorative salmon silhouette -->
  <g transform="translate(950, 480)" opacity="0.2" filter="url(#softGlow)">
    <ellipse cx="0" cy="0" rx="90" ry="35" fill="#CFAE58"/>
    <path d="M 90 0 L 120 -18 L 130 0 L 120 18 Z" fill="#CFAE58"/>
    <path d="M -25 -35 L 0 -45 L 25 -35 Z" fill="#CFAE58"/>
    <ellipse cx="-50" cy="0" rx="15" ry="12" fill="#0B0F14"/>
  </g>

  <!-- Additional decorative caviar clusters -->
  <g opacity="0.2">
    <circle cx="1050" cy="120" r="6" fill="#CFAE58"/>
    <circle cx="1065" cy="115" r="5" fill="#CFAE58"/>
    <circle cx="1058" cy="130" r="4" fill="#CFAE58"/>
    <circle cx="150" cy="500" r="5" fill="#4FD1C5"/>
    <circle cx="165" cy="508" r="4" fill="#4FD1C5"/>
    <circle cx="140" cy="512" r="5" fill="#4FD1C5"/>
  </g>
</svg>