<svg width="1200" height="630" xmlns="http://www.w3.org/2000/svg">
  <defs>
    <linearGradient id="bgGradient" x1="0%" y1="0%" x2="100%" y2="100%">
      <stop offset="0%" style="stop-color:#0B0F14;stop-opacity:1" />
      <stop offset="50%" style="stop-color:#0F1619;stop-opacity:1" />
      <stop offset="100%" style="stop-color:#0F1922;stop-opacity:1" />
    </linearGradient>
    <linearGradient id="goldGradient" x1="0%" y1="0%" x2="100%" y2="0%">
      <stop offset="0%" style="stop-color:#E5D596;stop-opacity:1" />
      <stop offset="50%" style="stop-color:#CFAE58;stop-opacity:1" />
      <stop offset="100%" style="stop-color:#B89842;stop-opacity:1" />
    </linearGradient>
    <radialGradient id="oceanGradient" cx="50%" cy="50%" r="50%">
      <stop offset="0%" style="stop-color:#4FD1C5;stop-opacity:0.3" />
      <stop offset="100%" style="stop-color:#1E90A0;stop-opacity:0.05" />
    </radialGradient>
    <filter id="glow">
      <feGaussianBlur stdDeviation="5" result="coloredBlur"/>
      <feMerge>
        <feMergeNode in="coloredBlur"/>
        <feMergeNode in="SourceGraphic"/>
      </feMerge>
    </filter>
    <filter id="softGlow">
      <feGaussianBlur stdDeviation="8" result="coloredBlur"/>
      <feMerge>
        <feMergeNode in="coloredBlur"/>
        <feMergeNode in="SourceGraphic"/>
      </feMerge>
    </filter>
    <filter id="shadow">
      <feDropShadow dx="0" dy="4" stdDeviation="8" flood-color="#000000" flood-opacity="0.5"/>
    </filter>
  </defs>

  <!-- Background -->
  <rect width="1200" height="630" fill="url(#bgGradient)"/>

  <!-- Decorative ocean gradients -->
  <ellipse cx="1000" cy="150" rx="300" ry="200" fill="url(#oceanGradient)" opacity="0.4"/>
  <ellipse cx="200" cy="530" rx="250" ry="180" fill="url(#oceanGradient)" opacity="0.3"/>

  <!-- Wave patterns -->
  <path d="M 0 400 Q 300 350 600 400 T 1200 400 L 1200 630 L 0 630 Z" fill="#1E90A0" opacity="0.08"/>
  <path d="M 0 450 Q 250 420 500 450 T 1000 450 T 1200 450 L 1200 630 L 0 630 Z" fill="#4FD1C5" opacity="0.05"/>

  <!-- Caviar roe particles -->
  <circle cx="772.9078476850482" cy="380.85431852974756" r="2.2003208155767364" fill="#CFAE58" opacity="0.20376504932266287"/>
  <circle cx="518.2911623249702" cy="347.71934792718065" r="4.2001998108634115" fill="#CFAE58" opacity="0.18069680688003534"/>
  <circle cx="1173.709773486598" cy="367.12608556126037" r="2.258380174194124" fill="#CFAE58" opacity="0.2272629742918305"/>
  <circle cx="688.3166824039628" cy="279.4362859421351" r="3.9900310561635672" fill="#CFAE58" opacity="0.13723387466909964"/>
  <circle cx="792.0869217320237" cy="503.33827451648386" r="5.0030878266539425" fill="#CFAE58" opacity="0.14802116807012788"/>
  <circle cx="541.9958902890194" cy="530.358238815125" r="5.805357619480748" fill="#CFAE58" opacity="0.13155633335649952"/>
  <circle cx="28.210079855627068" cy="233.76243335907884" r="2.059899023128807" fill="#CFAE58" opacity="0.18911428041144387"/>
  <circle cx="126.89931438472372" cy="610.7286004014356" r="5.6918349554642385" fill="#CFAE58" opacity="0.16330346710036003"/>
  <circle cx="902.6706581218403" cy="336.62543885450646" r="3.122111349430578" fill="#CFAE58" opacity="0.2456354954917433"/>
  <circle cx="50.009638423641704" cy="516.2310681723671" r="3.1353056799171535" fill="#CFAE58" opacity="0.18632285666500842"/>
  <circle cx="433.7127012151871" cy="440.93668074073275" r="2.1743192160693" fill="#CFAE58" opacity="0.1721609132693729"/>
  <circle cx="528.0578616962513" cy="138.79897805682955" r="4.319748812758737" fill="#CFAE58" opacity="0.23112605427281535"/>
  <circle cx="122.09491526715564" cy="113.28963640852781" r="3.612677729128218" fill="#CFAE58" opacity="0.21538567341540638"/>
  <circle cx="518.8328937403126" cy="322.8016676783732" r="2.122079808883057" fill="#CFAE58" opacity="0.2134883094575977"/>
  <circle cx="997.2184286050302" cy="133.87461987223315" r="5.460195659955203" fill="#CFAE58" opacity="0.20879845004980074"/>
  <circle cx="103.79311310532388" cy="3.7986276412343867" r="5.056867040787601" fill="#CFAE58" opacity="0.23867231932295518"/>
  <circle cx="14.56588692122942" cy="533.7361669984692" r="4.355477953745644" fill="#CFAE58" opacity="0.15879876314308294"/>
  <circle cx="957.8564994818113" cy="109.91265135489733" r="3.27787432300671" fill="#CFAE58" opacity="0.14591277003491143"/>
  <circle cx="378.97858282033997" cy="320.352705190118" r="3.5465367735561584" fill="#CFAE58" opacity="0.16902928797759847"/>
  <circle cx="845.2920396137176" cy="458.6375861892729" r="2.308637197663831" fill="#CFAE58" opacity="0.1610531882629262"/>
  <circle cx="22.355532207239648" cy="53.88816809235451" r="2.144076392242387" fill="#CFAE58" opacity="0.2490031996672578"/>
  <circle cx="1099.246947815848" cy="405.0900559371864" r="4.742552700684931" fill="#CFAE58" opacity="0.1564870074956621"/>
  <circle cx="982.6671292554245" cy="41.939625232957276" r="4.844470245093355" fill="#CFAE58" opacity="0.10563413528345934"/>
  <circle cx="730.2559579017457" cy="248.18383178069723" r="2.5172852837391" fill="#CFAE58" opacity="0.11093397751119988"/>
  <circle cx="581.3523261159074" cy="333.4202248340079" r="3.7064683852879616" fill="#CFAE58" opacity="0.24342218850848166"/>
  <circle cx="221.8988962374117" cy="303.4218199083479" r="3.4844861237563736" fill="#CFAE58" opacity="0.23542932444861459"/>
  <circle cx="881.135847335904" cy="82.6073429968344" r="2.7896083162648484" fill="#CFAE58" opacity="0.19542546321911156"/>
  <circle cx="179.8133913613925" cy="152.21115662277347" r="4.329928663736802" fill="#CFAE58" opacity="0.17969656815621038"/>
  <circle cx="1063.1411074628206" cy="482.0171816416043" r="2.3289371507631946" fill="#CFAE58" opacity="0.12186568888202098"/>
  <circle cx="226.30934721293832" cy="317.57949167187604" r="3.8398836935750786" fill="#CFAE58" opacity="0.18774954758523432"/>

  <!-- Border with glow -->
  <rect x="40" y="40" width="1120" height="550" fill="none" stroke="url(#goldGradient)" stroke-width="3" rx="12" filter="url(#softGlow)"/>

  <!-- Icon circle with premium background -->
  <circle cx="150" cy="200" r="75" fill="#CFAE58" opacity="0.15" filter="url(#softGlow)"/>
  <circle cx="150" cy="200" r="70" fill="#CFAE58" opacity="0.25"/>
  <text x="150" y="235" font-size="90" text-anchor="middle" fill="#CFAE58" filter="url(#glow)">📰</text>

  <!-- Premium logo (crown) with enhanced styling -->
  <g transform="translate(100, 70)">
    <path d="M 30 20 L 40 35 L 35 35 Z M 50 15 L 60 35 L 45 35 Z M 65 20 L 75 35 L 70 35 Z M 30 35 L 75 35 L 73 45 L 32 45 Z"
          fill="url(#goldGradient)" filter="url(#glow)" stroke="#B89842" stroke-width="0.5"/>
    <circle cx="40" cy="25" r="3" fill="#4FD1C5" filter="url(#glow)"/>
    <circle cx="52" cy="20" r="4" fill="#4FD1C5" filter="url(#glow)"/>
    <circle cx="65" cy="25" r="3" fill="#4FD1C5" filter="url(#glow)"/>
  </g>

  <!-- Title with shadow -->
  <text x="280" y="180" font-family="Georgia, serif" font-size="72" font-weight="bold"
        fill="url(#goldGradient)" filter="url(#shadow)">News & Insights</text>

  <!-- Subtitle with subtle glow -->
  <text x="280" y="230" font-family="Arial, sans-serif" font-size="36"
        fill="#D6DEE6" opacity="0.95" filter="url(#softGlow)">Updates from Royal Keta Hatchery</text>

  <!-- Brand name with letter spacing -->
  <text x="280" y="300" font-family="Georgia, serif" font-size="32" font-weight="bold"
        fill="#CFAE58" letter-spacing="4" filter="url(#glow)">ROYAL KETA</text>

  <!-- Russian tagline -->
  <text x="280" y="340" font-family="Arial, sans-serif" font-size="22" font-style="italic"
        fill="#8B95A1" opacity="0.8">От икринки к королевской</text>

  <!-- Location -->
  <text x="280" y="380" font-family="Arial, sans-serif" font-size="20"
        fill="#8B95A1" opacity="0.7">Невельский район, Сахалин</text>

  <!-- Website with glow -->
  <text x="100" y="570" font-family="Arial, sans-serif" font-size="30" font-weight="bold"
        fill="#4FD1C5" filter="url(#glow)">royalketa.com</text>

  <!-- Enhanced decorative salmon silhouette -->
  <g transform="translate(950, 480)" opacity="0.2" filter="url(#softGlow)">
    <ellipse cx="0" cy="0" rx="90" ry="35" fill="#CFAE58"/>
    <path d="M 90 0 L 120 -18 L 130 0 L 120 18 Z" fill="#CFAE58"/>
    <path d="M -25 -35 L 0 -45 L 25 -35 Z" fill="#CFAE58"/>
    <ellipse cx="-50" cy="0" rx="15" ry="12" fill="#0B0F14"/>
  </g>

  <!-- Additional decorative caviar clusters -->
  <g opacity="0.2">
    <circle cx="1050" cy="120" r="6" fill="#CFAE58"/>
    <circle cx="1065" cy="115" r="5" fill="#CFAE58"/>
    <circle cx="1058" cy="130" r="4" fill="#CFAE58"/>
    <circle cx="150" cy="500" r="5" fill="#4FD1C5"/>
    <circle cx="165" cy="508" r="4" fill="#4FD1C5"/>
    <circle cx="140" cy="512" r="5" fill="#4FD1C5"/>
  </g>
</svg>