<svg width="1200" height="630" xmlns="http://www.w3.org/2000/svg">
  <defs>
    <linearGradient id="bgGradient" x1="0%" y1="0%" x2="100%" y2="100%">
      <stop offset="0%" style="stop-color:#0B0F14;stop-opacity:1" />
      <stop offset="50%" style="stop-color:#0F1619;stop-opacity:1" />
      <stop offset="100%" style="stop-color:#0F1922;stop-opacity:1" />
    </linearGradient>
    <linearGradient id="goldGradient" x1="0%" y1="0%" x2="100%" y2="0%">
      <stop offset="0%" style="stop-color:#E5D596;stop-opacity:1" />
      <stop offset="50%" style="stop-color:#CFAE58;stop-opacity:1" />
      <stop offset="100%" style="stop-color:#B89842;stop-opacity:1" />
    </linearGradient>
    <radialGradient id="oceanGradient" cx="50%" cy="50%" r="50%">
      <stop offset="0%" style="stop-color:#4FD1C5;stop-opacity:0.3" />
      <stop offset="100%" style="stop-color:#1E90A0;stop-opacity:0.05" />
    </radialGradient>
    <filter id="glow">
      <feGaussianBlur stdDeviation="5" result="coloredBlur"/>
      <feMerge>
        <feMergeNode in="coloredBlur"/>
        <feMergeNode in="SourceGraphic"/>
      </feMerge>
    </filter>
    <filter id="softGlow">
      <feGaussianBlur stdDeviation="8" result="coloredBlur"/>
      <feMerge>
        <feMergeNode in="coloredBlur"/>
        <feMergeNode in="SourceGraphic"/>
      </feMerge>
    </filter>
    <filter id="shadow">
      <feDropShadow dx="0" dy="4" stdDeviation="8" flood-color="#000000" flood-opacity="0.5"/>
    </filter>
  </defs>

  <!-- Background -->
  <rect width="1200" height="630" fill="url(#bgGradient)"/>

  <!-- Decorative ocean gradients -->
  <ellipse cx="1000" cy="150" rx="300" ry="200" fill="url(#oceanGradient)" opacity="0.4"/>
  <ellipse cx="200" cy="530" rx="250" ry="180" fill="url(#oceanGradient)" opacity="0.3"/>

  <!-- Wave patterns -->
  <path d="M 0 400 Q 300 350 600 400 T 1200 400 L 1200 630 L 0 630 Z" fill="#1E90A0" opacity="0.08"/>
  <path d="M 0 450 Q 250 420 500 450 T 1000 450 T 1200 450 L 1200 630 L 0 630 Z" fill="#4FD1C5" opacity="0.05"/>

  <!-- Caviar roe particles -->
  <circle cx="451.75204146844123" cy="263.6412905193442" r="2.2413153724009813" fill="#CFAE58" opacity="0.18906705949805708"/>
  <circle cx="277.4872788748428" cy="204.7064663063098" r="2.8869411067551596" fill="#CFAE58" opacity="0.12935721310552215"/>
  <circle cx="268.3678438513233" cy="419.0257259027577" r="5.821491911237793" fill="#CFAE58" opacity="0.13772646999265017"/>
  <circle cx="1032.840787239044" cy="327.2225333379006" r="2.6821901556738923" fill="#CFAE58" opacity="0.11304411392989239"/>
  <circle cx="999.8335230997501" cy="624.0958111315985" r="2.0028882789969105" fill="#CFAE58" opacity="0.13081439350262308"/>
  <circle cx="1147.9130389293919" cy="283.63241207777907" r="3.172356986702786" fill="#CFAE58" opacity="0.12484464175989868"/>
  <circle cx="671.851291250836" cy="530.4028108471103" r="2.7796518378211688" fill="#CFAE58" opacity="0.12238496097312095"/>
  <circle cx="745.2144435622156" cy="197.51891640240723" r="4.237516525283383" fill="#CFAE58" opacity="0.10990501900118659"/>
  <circle cx="722.8423151430233" cy="30.6380654937096" r="5.662414782001999" fill="#CFAE58" opacity="0.18970479064559337"/>
  <circle cx="1162.7220933009642" cy="39.70743401123082" r="2.7877330077241798" fill="#CFAE58" opacity="0.14922396174814512"/>
  <circle cx="540.8997176478719" cy="460.2933663065758" r="2.492119236040726" fill="#CFAE58" opacity="0.24867111475757123"/>
  <circle cx="1136.6143320215517" cy="343.04765181843396" r="4.8776062749486755" fill="#CFAE58" opacity="0.2496514701395575"/>
  <circle cx="297.27050819735246" cy="159.27169045741022" r="2.668772379167155" fill="#CFAE58" opacity="0.17830760961959902"/>
  <circle cx="1094.0004263321705" cy="24.976127525512855" r="4.314622147762323" fill="#CFAE58" opacity="0.21067218428227852"/>
  <circle cx="473.7207847460225" cy="517.7999387216439" r="5.643102344707065" fill="#CFAE58" opacity="0.13183236809502413"/>
  <circle cx="813.5143445619684" cy="399.1258075929779" r="4.159497509875575" fill="#CFAE58" opacity="0.20122258995110054"/>
  <circle cx="369.45368163215767" cy="262.4298754983259" r="5.355579351450449" fill="#CFAE58" opacity="0.1790850799485298"/>
  <circle cx="803.1419251683446" cy="156.4487296195073" r="3.6779789917686188" fill="#CFAE58" opacity="0.14658589554944634"/>
  <circle cx="28.59980630813017" cy="58.43625327341897" r="4.543808317590369" fill="#CFAE58" opacity="0.2232276094547297"/>
  <circle cx="166.7344557533693" cy="557.3822222137846" r="3.8149345923122593" fill="#CFAE58" opacity="0.21714957927174955"/>
  <circle cx="33.9356956774576" cy="626.7456297636959" r="3.6252992480638895" fill="#CFAE58" opacity="0.14040929952429093"/>
  <circle cx="526.1908095510393" cy="459.7008837022165" r="2.2203768577263436" fill="#CFAE58" opacity="0.19316013153806394"/>
  <circle cx="250.08454047492208" cy="619.5752856541931" r="5.28106552251116" fill="#CFAE58" opacity="0.179931949987176"/>
  <circle cx="7.798768719531424" cy="552.7649854792973" r="3.54210162818918" fill="#CFAE58" opacity="0.1360830738946763"/>
  <circle cx="1015.0974554900663" cy="482.0518405328082" r="5.609574788127738" fill="#CFAE58" opacity="0.23763057836365786"/>
  <circle cx="367.7097221280134" cy="462.7136350299785" r="3.6251156822963417" fill="#CFAE58" opacity="0.1409943563361845"/>
  <circle cx="1124.049247558288" cy="516.9701702244565" r="3.839691296944103" fill="#CFAE58" opacity="0.11807180746483771"/>
  <circle cx="861.4569943450355" cy="218.215938196696" r="4.359351861429759" fill="#CFAE58" opacity="0.1850061304364466"/>
  <circle cx="39.675816673043585" cy="251.91174007392712" r="5.867717552256973" fill="#CFAE58" opacity="0.12870329552064705"/>
  <circle cx="79.32155258691643" cy="518.7566539831159" r="4.526176161215564" fill="#CFAE58" opacity="0.21152504923698862"/>

  <!-- Border with glow -->
  <rect x="40" y="40" width="1120" height="550" fill="none" stroke="url(#goldGradient)" stroke-width="3" rx="12" filter="url(#softGlow)"/>

  <!-- Icon circle with premium background -->
  <circle cx="150" cy="200" r="75" fill="#CFAE58" opacity="0.15" filter="url(#softGlow)"/>
  <circle cx="150" cy="200" r="70" fill="#CFAE58" opacity="0.25"/>
  <text x="150" y="235" font-size="90" text-anchor="middle" fill="#CFAE58" filter="url(#glow)">📰</text>

  <!-- Premium logo (crown) with enhanced styling -->
  <g transform="translate(100, 70)">
    <path d="M 30 20 L 40 35 L 35 35 Z M 50 15 L 60 35 L 45 35 Z M 65 20 L 75 35 L 70 35 Z M 30 35 L 75 35 L 73 45 L 32 45 Z"
          fill="url(#goldGradient)" filter="url(#glow)" stroke="#B89842" stroke-width="0.5"/>
    <circle cx="40" cy="25" r="3" fill="#4FD1C5" filter="url(#glow)"/>
    <circle cx="52" cy="20" r="4" fill="#4FD1C5" filter="url(#glow)"/>
    <circle cx="65" cy="25" r="3" fill="#4FD1C5" filter="url(#glow)"/>
  </g>

  <!-- Title with shadow -->
  <text x="280" y="180" font-family="Georgia, serif" font-size="72" font-weight="bold"
        fill="url(#goldGradient)" filter="url(#shadow)">News &amp; Insights</text>

  <!-- Subtitle with subtle glow -->
  <text x="280" y="230" font-family="Arial, sans-serif" font-size="36"
        fill="#D6DEE6" opacity="0.95" filter="url(#softGlow)">Updates from Royal Keta Hatchery</text>

  <!-- Brand name with letter spacing -->
  <text x="280" y="300" font-family="Georgia, serif" font-size="32" font-weight="bold"
        fill="#CFAE58" letter-spacing="4" filter="url(#glow)">ROYAL KETA</text>

  <!-- Russian tagline -->
  <text x="280" y="340" font-family="Arial, sans-serif" font-size="22" font-style="italic"
        fill="#8B95A1" opacity="0.8">От икринки к королевской</text>

  <!-- Location -->
  <text x="280" y="380" font-family="Arial, sans-serif" font-size="20"
        fill="#8B95A1" opacity="0.7">Невельский район, Сахалин</text>

  <!-- Website with glow -->
  <text x="100" y="570" font-family="Arial, sans-serif" font-size="30" font-weight="bold"
        fill="#4FD1C5" filter="url(#glow)">royalketa.com</text>

  <!-- Enhanced decorative salmon silhouette -->
  <g transform="translate(950, 480)" opacity="0.2" filter="url(#softGlow)">
    <ellipse cx="0" cy="0" rx="90" ry="35" fill="#CFAE58"/>
    <path d="M 90 0 L 120 -18 L 130 0 L 120 18 Z" fill="#CFAE58"/>
    <path d="M -25 -35 L 0 -45 L 25 -35 Z" fill="#CFAE58"/>
    <ellipse cx="-50" cy="0" rx="15" ry="12" fill="#0B0F14"/>
  </g>

  <!-- Additional decorative caviar clusters -->
  <g opacity="0.2">
    <circle cx="1050" cy="120" r="6" fill="#CFAE58"/>
    <circle cx="1065" cy="115" r="5" fill="#CFAE58"/>
    <circle cx="1058" cy="130" r="4" fill="#CFAE58"/>
    <circle cx="150" cy="500" r="5" fill="#4FD1C5"/>
    <circle cx="165" cy="508" r="4" fill="#4FD1C5"/>
    <circle cx="140" cy="512" r="5" fill="#4FD1C5"/>
  </g>
</svg>