<svg width="1200" height="630" xmlns="http://www.w3.org/2000/svg">
  <defs>
    <linearGradient id="bgGradient" x1="0%" y1="0%" x2="100%" y2="100%">
      <stop offset="0%" style="stop-color:#0B0F14;stop-opacity:1" />
      <stop offset="50%" style="stop-color:#0F1619;stop-opacity:1" />
      <stop offset="100%" style="stop-color:#0F1922;stop-opacity:1" />
    </linearGradient>
    <linearGradient id="goldGradient" x1="0%" y1="0%" x2="100%" y2="0%">
      <stop offset="0%" style="stop-color:#E5D596;stop-opacity:1" />
      <stop offset="50%" style="stop-color:#CFAE58;stop-opacity:1" />
      <stop offset="100%" style="stop-color:#B89842;stop-opacity:1" />
    </linearGradient>
    <radialGradient id="oceanGradient" cx="50%" cy="50%" r="50%">
      <stop offset="0%" style="stop-color:#4FD1C5;stop-opacity:0.3" />
      <stop offset="100%" style="stop-color:#1E90A0;stop-opacity:0.05" />
    </radialGradient>
    <filter id="glow">
      <feGaussianBlur stdDeviation="5" result="coloredBlur"/>
      <feMerge>
        <feMergeNode in="coloredBlur"/>
        <feMergeNode in="SourceGraphic"/>
      </feMerge>
    </filter>
    <filter id="softGlow">
      <feGaussianBlur stdDeviation="8" result="coloredBlur"/>
      <feMerge>
        <feMergeNode in="coloredBlur"/>
        <feMergeNode in="SourceGraphic"/>
      </feMerge>
    </filter>
    <filter id="shadow">
      <feDropShadow dx="0" dy="4" stdDeviation="8" flood-color="#000000" flood-opacity="0.5"/>
    </filter>
  </defs>

  <!-- Background -->
  <rect width="1200" height="630" fill="url(#bgGradient)"/>

  <!-- Decorative ocean gradients -->
  <ellipse cx="1000" cy="150" rx="300" ry="200" fill="url(#oceanGradient)" opacity="0.4"/>
  <ellipse cx="200" cy="530" rx="250" ry="180" fill="url(#oceanGradient)" opacity="0.3"/>

  <!-- Wave patterns -->
  <path d="M 0 400 Q 300 350 600 400 T 1200 400 L 1200 630 L 0 630 Z" fill="#1E90A0" opacity="0.08"/>
  <path d="M 0 450 Q 250 420 500 450 T 1000 450 T 1200 450 L 1200 630 L 0 630 Z" fill="#4FD1C5" opacity="0.05"/>

  <!-- Caviar roe particles -->
  <circle cx="46.61993397885471" cy="629.0386525383727" r="3.805512677674904" fill="#CFAE58" opacity="0.10537478066248136"/>
  <circle cx="282.69256740870657" cy="358.43467897011135" r="4.231777256803108" fill="#CFAE58" opacity="0.17217217192802003"/>
  <circle cx="984.2159472730099" cy="230.5850647524555" r="2.447996886318796" fill="#CFAE58" opacity="0.10116370773603914"/>
  <circle cx="299.5476916567152" cy="13.448205739344012" r="5.893095857884844" fill="#CFAE58" opacity="0.10092541560005668"/>
  <circle cx="976.9576777734679" cy="534.3578686479716" r="2.1482648853346067" fill="#CFAE58" opacity="0.15059594852088537"/>
  <circle cx="967.5625659352334" cy="254.0130898493605" r="2.0808051460599923" fill="#CFAE58" opacity="0.16750244022050348"/>
  <circle cx="505.9058356738403" cy="310.94993737728794" r="2.719038597680658" fill="#CFAE58" opacity="0.11286239514671202"/>
  <circle cx="463.99874894604255" cy="596.9496665993792" r="3.8176121194765207" fill="#CFAE58" opacity="0.21397428989466133"/>
  <circle cx="470.88486997638813" cy="105.48171936935778" r="5.150655998005701" fill="#CFAE58" opacity="0.16142629764582409"/>
  <circle cx="347.11931989765" cy="378.1839944499505" r="4.6657497756689175" fill="#CFAE58" opacity="0.1604755400683188"/>
  <circle cx="116.2082910932658" cy="550.9205000482556" r="3.504545523531479" fill="#CFAE58" opacity="0.2031579743792375"/>
  <circle cx="1075.8306326958564" cy="140.61683505371175" r="2.2725934047725627" fill="#CFAE58" opacity="0.17061833111768485"/>
  <circle cx="965.0038205994624" cy="301.9432284431813" r="5.308252999252593" fill="#CFAE58" opacity="0.2055740019177412"/>
  <circle cx="882.8933513565513" cy="384.0317136507907" r="5.828748623597369" fill="#CFAE58" opacity="0.15209143510148915"/>
  <circle cx="242.61612194695257" cy="86.87964656264779" r="4.9247897483904435" fill="#CFAE58" opacity="0.11602651201324099"/>
  <circle cx="559.439827041971" cy="517.8973983120691" r="3.0825027831401624" fill="#CFAE58" opacity="0.15200532935257982"/>
  <circle cx="851.8255290982407" cy="515.2895275242041" r="3.5398750423289815" fill="#CFAE58" opacity="0.18908549853773784"/>
  <circle cx="622.0047702348132" cy="562.764989200235" r="3.992974816943814" fill="#CFAE58" opacity="0.21455802940536545"/>
  <circle cx="715.0782312339936" cy="86.77699638017873" r="3.058972343872558" fill="#CFAE58" opacity="0.12710699989281243"/>
  <circle cx="229.13651916789286" cy="7.258527242265753" r="4.232054585206042" fill="#CFAE58" opacity="0.19526142804505736"/>
  <circle cx="760.3931746318397" cy="472.22743638253945" r="5.303826717003779" fill="#CFAE58" opacity="0.1008963303467449"/>
  <circle cx="295.542802277156" cy="329.0876603937048" r="3.73895446582675" fill="#CFAE58" opacity="0.10361431107260272"/>
  <circle cx="763.4373372841762" cy="109.87983291923022" r="5.630865287238051" fill="#CFAE58" opacity="0.10018256487363364"/>
  <circle cx="736.5187822959034" cy="537.345814087351" r="2.6049158013261486" fill="#CFAE58" opacity="0.21009300847380463"/>
  <circle cx="715.7206568801889" cy="70.1594933248163" r="2.9318913212765407" fill="#CFAE58" opacity="0.14198870141247788"/>
  <circle cx="502.25588185321186" cy="10.24833560498771" r="3.8913665227872176" fill="#CFAE58" opacity="0.2485673875075306"/>
  <circle cx="69.66055018873689" cy="190.05355460428768" r="4.319837494972209" fill="#CFAE58" opacity="0.10453550585070763"/>
  <circle cx="962.7703241813488" cy="550.8116366613751" r="3.537565441460603" fill="#CFAE58" opacity="0.20396197527977983"/>
  <circle cx="290.48766137002985" cy="482.1571452113725" r="3.346411541563076" fill="#CFAE58" opacity="0.20509215266980202"/>
  <circle cx="377.3974958511264" cy="277.4131432435947" r="2.3733798113937645" fill="#CFAE58" opacity="0.2276106490699138"/>

  <!-- Border with glow -->
  <rect x="40" y="40" width="1120" height="550" fill="none" stroke="url(#goldGradient)" stroke-width="3" rx="12" filter="url(#softGlow)"/>

  <!-- Icon circle with premium background -->
  <circle cx="150" cy="200" r="75" fill="#CFAE58" opacity="0.15" filter="url(#softGlow)"/>
  <circle cx="150" cy="200" r="70" fill="#CFAE58" opacity="0.25"/>
  <text x="150" y="235" font-size="90" text-anchor="middle" fill="#CFAE58" filter="url(#glow)">📰</text>

  <!-- Premium logo (crown) with enhanced styling -->
  <g transform="translate(100, 70)">
    <path d="M 30 20 L 40 35 L 35 35 Z M 50 15 L 60 35 L 45 35 Z M 65 20 L 75 35 L 70 35 Z M 30 35 L 75 35 L 73 45 L 32 45 Z"
          fill="url(#goldGradient)" filter="url(#glow)" stroke="#B89842" stroke-width="0.5"/>
    <circle cx="40" cy="25" r="3" fill="#4FD1C5" filter="url(#glow)"/>
    <circle cx="52" cy="20" r="4" fill="#4FD1C5" filter="url(#glow)"/>
    <circle cx="65" cy="25" r="3" fill="#4FD1C5" filter="url(#glow)"/>
  </g>

  <!-- Title with shadow -->
  <text x="280" y="180" font-family="Georgia, serif" font-size="72" font-weight="bold"
        fill="url(#goldGradient)" filter="url(#shadow)">News & Insights</text>

  <!-- Subtitle with subtle glow -->
  <text x="280" y="230" font-family="Arial, sans-serif" font-size="36"
        fill="#D6DEE6" opacity="0.95" filter="url(#softGlow)">Updates from Royal Keta Hatchery</text>

  <!-- Brand name with letter spacing -->
  <text x="280" y="300" font-family="Georgia, serif" font-size="32" font-weight="bold"
        fill="#CFAE58" letter-spacing="4" filter="url(#glow)">ROYAL KETA</text>

  <!-- Russian tagline -->
  <text x="280" y="340" font-family="Arial, sans-serif" font-size="22" font-style="italic"
        fill="#8B95A1" opacity="0.8">От икринки к королевской</text>

  <!-- Location -->
  <text x="280" y="380" font-family="Arial, sans-serif" font-size="20"
        fill="#8B95A1" opacity="0.7">Невельский район, Сахалин</text>

  <!-- Website with glow -->
  <text x="100" y="570" font-family="Arial, sans-serif" font-size="30" font-weight="bold"
        fill="#4FD1C5" filter="url(#glow)">royalketa.com</text>

  <!-- Enhanced decorative salmon silhouette -->
  <g transform="translate(950, 480)" opacity="0.2" filter="url(#softGlow)">
    <ellipse cx="0" cy="0" rx="90" ry="35" fill="#CFAE58"/>
    <path d="M 90 0 L 120 -18 L 130 0 L 120 18 Z" fill="#CFAE58"/>
    <path d="M -25 -35 L 0 -45 L 25 -35 Z" fill="#CFAE58"/>
    <ellipse cx="-50" cy="0" rx="15" ry="12" fill="#0B0F14"/>
  </g>

  <!-- Additional decorative caviar clusters -->
  <g opacity="0.2">
    <circle cx="1050" cy="120" r="6" fill="#CFAE58"/>
    <circle cx="1065" cy="115" r="5" fill="#CFAE58"/>
    <circle cx="1058" cy="130" r="4" fill="#CFAE58"/>
    <circle cx="150" cy="500" r="5" fill="#4FD1C5"/>
    <circle cx="165" cy="508" r="4" fill="#4FD1C5"/>
    <circle cx="140" cy="512" r="5" fill="#4FD1C5"/>
  </g>
</svg>