<svg width="1200" height="630" xmlns="http://www.w3.org/2000/svg">
  <defs>
    <linearGradient id="bgGradient" x1="0%" y1="0%" x2="100%" y2="100%">
      <stop offset="0%" style="stop-color:#0B0F14;stop-opacity:1" />
      <stop offset="50%" style="stop-color:#0F1619;stop-opacity:1" />
      <stop offset="100%" style="stop-color:#0F1922;stop-opacity:1" />
    </linearGradient>
    <linearGradient id="goldGradient" x1="0%" y1="0%" x2="100%" y2="0%">
      <stop offset="0%" style="stop-color:#E5D596;stop-opacity:1" />
      <stop offset="50%" style="stop-color:#CFAE58;stop-opacity:1" />
      <stop offset="100%" style="stop-color:#B89842;stop-opacity:1" />
    </linearGradient>
    <radialGradient id="oceanGradient" cx="50%" cy="50%" r="50%">
      <stop offset="0%" style="stop-color:#4FD1C5;stop-opacity:0.3" />
      <stop offset="100%" style="stop-color:#1E90A0;stop-opacity:0.05" />
    </radialGradient>
    <filter id="glow">
      <feGaussianBlur stdDeviation="5" result="coloredBlur"/>
      <feMerge>
        <feMergeNode in="coloredBlur"/>
        <feMergeNode in="SourceGraphic"/>
      </feMerge>
    </filter>
    <filter id="softGlow">
      <feGaussianBlur stdDeviation="8" result="coloredBlur"/>
      <feMerge>
        <feMergeNode in="coloredBlur"/>
        <feMergeNode in="SourceGraphic"/>
      </feMerge>
    </filter>
    <filter id="shadow">
      <feDropShadow dx="0" dy="4" stdDeviation="8" flood-color="#000000" flood-opacity="0.5"/>
    </filter>
  </defs>

  <!-- Background -->
  <rect width="1200" height="630" fill="url(#bgGradient)"/>

  <!-- Decorative ocean gradients -->
  <ellipse cx="1000" cy="150" rx="300" ry="200" fill="url(#oceanGradient)" opacity="0.4"/>
  <ellipse cx="200" cy="530" rx="250" ry="180" fill="url(#oceanGradient)" opacity="0.3"/>

  <!-- Wave patterns -->
  <path d="M 0 400 Q 300 350 600 400 T 1200 400 L 1200 630 L 0 630 Z" fill="#1E90A0" opacity="0.08"/>
  <path d="M 0 450 Q 250 420 500 450 T 1000 450 T 1200 450 L 1200 630 L 0 630 Z" fill="#4FD1C5" opacity="0.05"/>

  <!-- Caviar roe particles -->
  <circle cx="295.33735702236925" cy="172.0801109173769" r="4.434950771246307" fill="#CFAE58" opacity="0.12701433190096056"/>
  <circle cx="1099.938350591905" cy="427.7560746008848" r="2.3551475141188507" fill="#CFAE58" opacity="0.2395119965155083"/>
  <circle cx="231.16361458938232" cy="151.0568531233798" r="4.207401993620557" fill="#CFAE58" opacity="0.12934444860090716"/>
  <circle cx="971.4476736833199" cy="355.2101647221341" r="4.49738061566416" fill="#CFAE58" opacity="0.15701434790189564"/>
  <circle cx="1114.3249618622817" cy="417.9665281053557" r="2.3949715442228916" fill="#CFAE58" opacity="0.15015635898141552"/>
  <circle cx="24.64803994370408" cy="482.27041865611153" r="4.247572558714475" fill="#CFAE58" opacity="0.23182321802147235"/>
  <circle cx="373.9106838976863" cy="90.43814221798857" r="3.2755237721813892" fill="#CFAE58" opacity="0.23346285085581986"/>
  <circle cx="140.5923394134707" cy="563.4976930445329" r="2.720044536642845" fill="#CFAE58" opacity="0.17641081124506405"/>
  <circle cx="411.6630053248982" cy="71.4998762550207" r="4.813865659365517" fill="#CFAE58" opacity="0.22531805315399134"/>
  <circle cx="45.74752908436972" cy="479.62379524037226" r="5.415983709917709" fill="#CFAE58" opacity="0.19916800306672983"/>
  <circle cx="925.5029746229169" cy="525.1768691136738" r="5.181781701199315" fill="#CFAE58" opacity="0.24296889156847667"/>
  <circle cx="258.8510561390388" cy="89.64667073449309" r="5.257045632507299" fill="#CFAE58" opacity="0.1674856220742571"/>
  <circle cx="809.8370162454371" cy="195.95602096732287" r="2.215770212328529" fill="#CFAE58" opacity="0.10812906583473066"/>
  <circle cx="934.1673057616341" cy="346.93340341341997" r="2.5964553013648164" fill="#CFAE58" opacity="0.2383872916211733"/>
  <circle cx="485.64000293270226" cy="197.52191678543045" r="3.1006276340455643" fill="#CFAE58" opacity="0.1599785644863645"/>
  <circle cx="701.0861935495659" cy="181.30095824202937" r="4.1178108969550244" fill="#CFAE58" opacity="0.13929018768383078"/>
  <circle cx="217.93902538146958" cy="309.78316024535275" r="3.2658128787010496" fill="#CFAE58" opacity="0.23505562170963792"/>
  <circle cx="358.4979029530576" cy="62.54480022981475" r="4.167080818920272" fill="#CFAE58" opacity="0.12805477503416018"/>
  <circle cx="1171.5581935337711" cy="508.75279793739446" r="5.8811344191280615" fill="#CFAE58" opacity="0.20062649753339745"/>
  <circle cx="229.8396185866776" cy="121.12942483126211" r="4.631674603308875" fill="#CFAE58" opacity="0.11240340260521821"/>
  <circle cx="884.973336133745" cy="577.1086389807981" r="3.060957472161979" fill="#CFAE58" opacity="0.19900607478032845"/>
  <circle cx="1137.7628946610776" cy="613.8354255660466" r="2.922135920869458" fill="#CFAE58" opacity="0.1732458129120808"/>
  <circle cx="714.6461776125341" cy="136.8985723063041" r="3.571966073116312" fill="#CFAE58" opacity="0.21685271703201814"/>
  <circle cx="311.2500974339585" cy="22.895817185093932" r="3.8167501677407696" fill="#CFAE58" opacity="0.15919132996710963"/>
  <circle cx="657.9260750336329" cy="279.1335778884624" r="2.0773215177894566" fill="#CFAE58" opacity="0.16766151238038562"/>
  <circle cx="572.8879528508762" cy="352.01241021462454" r="2.1280174200400186" fill="#CFAE58" opacity="0.1137454014485367"/>
  <circle cx="398.65226129700125" cy="439.9738338447197" r="5.460245241811743" fill="#CFAE58" opacity="0.19970873782354553"/>
  <circle cx="193.75067243813163" cy="619.0590474194131" r="2.5722718061366248" fill="#CFAE58" opacity="0.11756569315963968"/>
  <circle cx="1011.1724758126039" cy="604.1519886882566" r="3.8310291020305933" fill="#CFAE58" opacity="0.19138686850114384"/>
  <circle cx="669.4113314645881" cy="205.45796071701477" r="5.349026702140991" fill="#CFAE58" opacity="0.17765665661782204"/>

  <!-- Border with glow -->
  <rect x="40" y="40" width="1120" height="550" fill="none" stroke="url(#goldGradient)" stroke-width="3" rx="12" filter="url(#softGlow)"/>

  <!-- Icon circle with premium background -->
  <circle cx="150" cy="200" r="75" fill="#CFAE58" opacity="0.15" filter="url(#softGlow)"/>
  <circle cx="150" cy="200" r="70" fill="#CFAE58" opacity="0.25"/>
  <text x="150" y="235" font-size="90" text-anchor="middle" fill="#CFAE58" filter="url(#glow)">📰</text>

  <!-- Premium logo (crown) with enhanced styling -->
  <g transform="translate(100, 70)">
    <path d="M 30 20 L 40 35 L 35 35 Z M 50 15 L 60 35 L 45 35 Z M 65 20 L 75 35 L 70 35 Z M 30 35 L 75 35 L 73 45 L 32 45 Z"
          fill="url(#goldGradient)" filter="url(#glow)" stroke="#B89842" stroke-width="0.5"/>
    <circle cx="40" cy="25" r="3" fill="#4FD1C5" filter="url(#glow)"/>
    <circle cx="52" cy="20" r="4" fill="#4FD1C5" filter="url(#glow)"/>
    <circle cx="65" cy="25" r="3" fill="#4FD1C5" filter="url(#glow)"/>
  </g>

  <!-- Title with shadow -->
  <text x="280" y="180" font-family="Georgia, serif" font-size="72" font-weight="bold"
        fill="url(#goldGradient)" filter="url(#shadow)">News &amp; Insights</text>

  <!-- Subtitle with subtle glow -->
  <text x="280" y="230" font-family="Arial, sans-serif" font-size="36"
        fill="#D6DEE6" opacity="0.95" filter="url(#softGlow)">Updates from Royal Keta Hatchery</text>

  <!-- Brand name with letter spacing -->
  <text x="280" y="300" font-family="Georgia, serif" font-size="32" font-weight="bold"
        fill="#CFAE58" letter-spacing="4" filter="url(#glow)">ROYAL KETA</text>

  <!-- Russian tagline -->
  <text x="280" y="340" font-family="Arial, sans-serif" font-size="22" font-style="italic"
        fill="#8B95A1" opacity="0.8">От икринки к королевской</text>

  <!-- Location -->
  <text x="280" y="380" font-family="Arial, sans-serif" font-size="20"
        fill="#8B95A1" opacity="0.7">Невельский район, Сахалин</text>

  <!-- Website with glow -->
  <text x="100" y="570" font-family="Arial, sans-serif" font-size="30" font-weight="bold"
        fill="#4FD1C5" filter="url(#glow)">royalketa.com</text>

  <!-- Enhanced decorative salmon silhouette -->
  <g transform="translate(950, 480)" opacity="0.2" filter="url(#softGlow)">
    <ellipse cx="0" cy="0" rx="90" ry="35" fill="#CFAE58"/>
    <path d="M 90 0 L 120 -18 L 130 0 L 120 18 Z" fill="#CFAE58"/>
    <path d="M -25 -35 L 0 -45 L 25 -35 Z" fill="#CFAE58"/>
    <ellipse cx="-50" cy="0" rx="15" ry="12" fill="#0B0F14"/>
  </g>

  <!-- Additional decorative caviar clusters -->
  <g opacity="0.2">
    <circle cx="1050" cy="120" r="6" fill="#CFAE58"/>
    <circle cx="1065" cy="115" r="5" fill="#CFAE58"/>
    <circle cx="1058" cy="130" r="4" fill="#CFAE58"/>
    <circle cx="150" cy="500" r="5" fill="#4FD1C5"/>
    <circle cx="165" cy="508" r="4" fill="#4FD1C5"/>
    <circle cx="140" cy="512" r="5" fill="#4FD1C5"/>
  </g>
</svg>