<svg width="1200" height="630" xmlns="http://www.w3.org/2000/svg">
  <defs>
    <linearGradient id="bgGradient" x1="0%" y1="0%" x2="100%" y2="100%">
      <stop offset="0%" style="stop-color:#0B0F14;stop-opacity:1" />
      <stop offset="50%" style="stop-color:#0F1619;stop-opacity:1" />
      <stop offset="100%" style="stop-color:#0F1922;stop-opacity:1" />
    </linearGradient>
    <linearGradient id="goldGradient" x1="0%" y1="0%" x2="100%" y2="0%">
      <stop offset="0%" style="stop-color:#E5D596;stop-opacity:1" />
      <stop offset="50%" style="stop-color:#CFAE58;stop-opacity:1" />
      <stop offset="100%" style="stop-color:#B89842;stop-opacity:1" />
    </linearGradient>
    <radialGradient id="oceanGradient" cx="50%" cy="50%" r="50%">
      <stop offset="0%" style="stop-color:#4FD1C5;stop-opacity:0.3" />
      <stop offset="100%" style="stop-color:#1E90A0;stop-opacity:0.05" />
    </radialGradient>
    <filter id="glow">
      <feGaussianBlur stdDeviation="5" result="coloredBlur"/>
      <feMerge>
        <feMergeNode in="coloredBlur"/>
        <feMergeNode in="SourceGraphic"/>
      </feMerge>
    </filter>
    <filter id="softGlow">
      <feGaussianBlur stdDeviation="8" result="coloredBlur"/>
      <feMerge>
        <feMergeNode in="coloredBlur"/>
        <feMergeNode in="SourceGraphic"/>
      </feMerge>
    </filter>
    <filter id="shadow">
      <feDropShadow dx="0" dy="4" stdDeviation="8" flood-color="#000000" flood-opacity="0.5"/>
    </filter>
  </defs>

  <!-- Background -->
  <rect width="1200" height="630" fill="url(#bgGradient)"/>

  <!-- Decorative ocean gradients -->
  <ellipse cx="1000" cy="150" rx="300" ry="200" fill="url(#oceanGradient)" opacity="0.4"/>
  <ellipse cx="200" cy="530" rx="250" ry="180" fill="url(#oceanGradient)" opacity="0.3"/>

  <!-- Wave patterns -->
  <path d="M 0 400 Q 300 350 600 400 T 1200 400 L 1200 630 L 0 630 Z" fill="#1E90A0" opacity="0.08"/>
  <path d="M 0 450 Q 250 420 500 450 T 1000 450 T 1200 450 L 1200 630 L 0 630 Z" fill="#4FD1C5" opacity="0.05"/>

  <!-- Caviar roe particles -->
  <circle cx="213.3335748183071" cy="573.5302422985229" r="3.6851795601466124" fill="#CFAE58" opacity="0.11977216550729476"/>
  <circle cx="275.22102938228625" cy="108.63529631896411" r="5.219592497914576" fill="#CFAE58" opacity="0.14721077140889735"/>
  <circle cx="456.1513422888348" cy="264.75403334871254" r="4.441285414423563" fill="#CFAE58" opacity="0.10648347116546855"/>
  <circle cx="1091.4783239181963" cy="536.5018155812023" r="4.04873213502926" fill="#CFAE58" opacity="0.21107089923899786"/>
  <circle cx="910.0939732307" cy="73.44468382096743" r="3.2397506547214303" fill="#CFAE58" opacity="0.18247377636765347"/>
  <circle cx="280.3208785111039" cy="43.347636450527425" r="5.23566860942186" fill="#CFAE58" opacity="0.1557125301296398"/>
  <circle cx="829.2400543980359" cy="244.77597901838192" r="4.948625771615136" fill="#CFAE58" opacity="0.2099754046023528"/>
  <circle cx="291.6993460998678" cy="624.1258687415709" r="2.4152988664754065" fill="#CFAE58" opacity="0.19608663802177478"/>
  <circle cx="642.4225600760544" cy="147.75328833416376" r="3.3336619741467928" fill="#CFAE58" opacity="0.24542927565442885"/>
  <circle cx="462.211105199162" cy="441.2318817472884" r="3.4012944856592098" fill="#CFAE58" opacity="0.11966058840559948"/>
  <circle cx="457.165160202834" cy="11.779895928629912" r="4.788290901555731" fill="#CFAE58" opacity="0.20083797164041967"/>
  <circle cx="646.8627823039155" cy="30.804914457702665" r="5.867046091754876" fill="#CFAE58" opacity="0.10534142164218413"/>
  <circle cx="549.0784469600198" cy="566.9569969059569" r="4.800885260127472" fill="#CFAE58" opacity="0.23161742166874927"/>
  <circle cx="656.2700092095158" cy="219.1900291598677" r="4.515117388040597" fill="#CFAE58" opacity="0.2441802512832065"/>
  <circle cx="155.75873396956007" cy="233.98804727714537" r="3.069364656450163" fill="#CFAE58" opacity="0.16753105652569722"/>
  <circle cx="800.3952908931361" cy="238.8913862964716" r="2.1704477094643897" fill="#CFAE58" opacity="0.18134730243016378"/>
  <circle cx="759.6596952678083" cy="535.1510716822416" r="4.697842046295051" fill="#CFAE58" opacity="0.1736371344262438"/>
  <circle cx="566.5382857516912" cy="514.2829031361287" r="4.432082272146338" fill="#CFAE58" opacity="0.15490288894600013"/>
  <circle cx="1140.1358424773766" cy="353.7503876372852" r="2.9644533418776513" fill="#CFAE58" opacity="0.19629522122234405"/>
  <circle cx="835.0927120690538" cy="245.734572353572" r="3.410981438475497" fill="#CFAE58" opacity="0.20998547390109096"/>
  <circle cx="249.99730550420117" cy="126.4545269454852" r="2.363639864042622" fill="#CFAE58" opacity="0.2272786317246052"/>
  <circle cx="94.07170103433535" cy="463.3945344764053" r="4.275720704291448" fill="#CFAE58" opacity="0.1325789350856963"/>
  <circle cx="550.8959522817543" cy="227.25656205644188" r="4.053488572495331" fill="#CFAE58" opacity="0.12136817541422126"/>
  <circle cx="16.01295123416908" cy="193.13443295884824" r="2.314324544842" fill="#CFAE58" opacity="0.15277605656004595"/>
  <circle cx="1184.4980761843667" cy="143.49272444166493" r="2.5167102365386675" fill="#CFAE58" opacity="0.11750377462031171"/>
  <circle cx="162.87776740733997" cy="308.9305883236611" r="2.856811243824209" fill="#CFAE58" opacity="0.1833048660383701"/>
  <circle cx="14.32195676602337" cy="362.3484974062677" r="5.168469598481515" fill="#CFAE58" opacity="0.2139412869352435"/>
  <circle cx="460.60544270741747" cy="302.3384927219262" r="3.5583074002247987" fill="#CFAE58" opacity="0.21245099873354928"/>
  <circle cx="345.58290275347684" cy="78.33505567305653" r="5.485791939271816" fill="#CFAE58" opacity="0.12770201448712223"/>
  <circle cx="679.8974104350024" cy="358.0884251174255" r="3.3665200918634444" fill="#CFAE58" opacity="0.221042460789108"/>

  <!-- Border with glow -->
  <rect x="40" y="40" width="1120" height="550" fill="none" stroke="url(#goldGradient)" stroke-width="3" rx="12" filter="url(#softGlow)"/>

  <!-- Icon circle with premium background -->
  <circle cx="150" cy="200" r="75" fill="#CFAE58" opacity="0.15" filter="url(#softGlow)"/>
  <circle cx="150" cy="200" r="70" fill="#CFAE58" opacity="0.25"/>
  <text x="150" y="235" font-size="90" text-anchor="middle" fill="#CFAE58" filter="url(#glow)">📰</text>

  <!-- Premium logo (crown) with enhanced styling -->
  <g transform="translate(100, 70)">
    <path d="M 30 20 L 40 35 L 35 35 Z M 50 15 L 60 35 L 45 35 Z M 65 20 L 75 35 L 70 35 Z M 30 35 L 75 35 L 73 45 L 32 45 Z"
          fill="url(#goldGradient)" filter="url(#glow)" stroke="#B89842" stroke-width="0.5"/>
    <circle cx="40" cy="25" r="3" fill="#4FD1C5" filter="url(#glow)"/>
    <circle cx="52" cy="20" r="4" fill="#4FD1C5" filter="url(#glow)"/>
    <circle cx="65" cy="25" r="3" fill="#4FD1C5" filter="url(#glow)"/>
  </g>

  <!-- Title with shadow -->
  <text x="280" y="180" font-family="Georgia, serif" font-size="72" font-weight="bold"
        fill="url(#goldGradient)" filter="url(#shadow)">News &amp; Insights</text>

  <!-- Subtitle with subtle glow -->
  <text x="280" y="230" font-family="Arial, sans-serif" font-size="36"
        fill="#D6DEE6" opacity="0.95" filter="url(#softGlow)">Updates from Royal Keta Hatchery</text>

  <!-- Brand name with letter spacing -->
  <text x="280" y="300" font-family="Georgia, serif" font-size="32" font-weight="bold"
        fill="#CFAE58" letter-spacing="4" filter="url(#glow)">ROYAL KETA</text>

  <!-- Russian tagline -->
  <text x="280" y="340" font-family="Arial, sans-serif" font-size="22" font-style="italic"
        fill="#8B95A1" opacity="0.8">От икринки к королевской</text>

  <!-- Location -->
  <text x="280" y="380" font-family="Arial, sans-serif" font-size="20"
        fill="#8B95A1" opacity="0.7">Невельский район, Сахалин</text>

  <!-- Website with glow -->
  <text x="100" y="570" font-family="Arial, sans-serif" font-size="30" font-weight="bold"
        fill="#4FD1C5" filter="url(#glow)">royalketa.com</text>

  <!-- Enhanced decorative salmon silhouette -->
  <g transform="translate(950, 480)" opacity="0.2" filter="url(#softGlow)">
    <ellipse cx="0" cy="0" rx="90" ry="35" fill="#CFAE58"/>
    <path d="M 90 0 L 120 -18 L 130 0 L 120 18 Z" fill="#CFAE58"/>
    <path d="M -25 -35 L 0 -45 L 25 -35 Z" fill="#CFAE58"/>
    <ellipse cx="-50" cy="0" rx="15" ry="12" fill="#0B0F14"/>
  </g>

  <!-- Additional decorative caviar clusters -->
  <g opacity="0.2">
    <circle cx="1050" cy="120" r="6" fill="#CFAE58"/>
    <circle cx="1065" cy="115" r="5" fill="#CFAE58"/>
    <circle cx="1058" cy="130" r="4" fill="#CFAE58"/>
    <circle cx="150" cy="500" r="5" fill="#4FD1C5"/>
    <circle cx="165" cy="508" r="4" fill="#4FD1C5"/>
    <circle cx="140" cy="512" r="5" fill="#4FD1C5"/>
  </g>
</svg>