<svg width="1200" height="630" xmlns="http://www.w3.org/2000/svg">
  <defs>
    <linearGradient id="bgGradient" x1="0%" y1="0%" x2="100%" y2="100%">
      <stop offset="0%" style="stop-color:#0B0F14;stop-opacity:1" />
      <stop offset="50%" style="stop-color:#0F1619;stop-opacity:1" />
      <stop offset="100%" style="stop-color:#0F1922;stop-opacity:1" />
    </linearGradient>
    <linearGradient id="goldGradient" x1="0%" y1="0%" x2="100%" y2="0%">
      <stop offset="0%" style="stop-color:#E5D596;stop-opacity:1" />
      <stop offset="50%" style="stop-color:#CFAE58;stop-opacity:1" />
      <stop offset="100%" style="stop-color:#B89842;stop-opacity:1" />
    </linearGradient>
    <radialGradient id="oceanGradient" cx="50%" cy="50%" r="50%">
      <stop offset="0%" style="stop-color:#4FD1C5;stop-opacity:0.3" />
      <stop offset="100%" style="stop-color:#1E90A0;stop-opacity:0.05" />
    </radialGradient>
    <filter id="glow">
      <feGaussianBlur stdDeviation="5" result="coloredBlur"/>
      <feMerge>
        <feMergeNode in="coloredBlur"/>
        <feMergeNode in="SourceGraphic"/>
      </feMerge>
    </filter>
    <filter id="softGlow">
      <feGaussianBlur stdDeviation="8" result="coloredBlur"/>
      <feMerge>
        <feMergeNode in="coloredBlur"/>
        <feMergeNode in="SourceGraphic"/>
      </feMerge>
    </filter>
    <filter id="shadow">
      <feDropShadow dx="0" dy="4" stdDeviation="8" flood-color="#000000" flood-opacity="0.5"/>
    </filter>
  </defs>

  <!-- Background -->
  <rect width="1200" height="630" fill="url(#bgGradient)"/>

  <!-- Decorative ocean gradients -->
  <ellipse cx="1000" cy="150" rx="300" ry="200" fill="url(#oceanGradient)" opacity="0.4"/>
  <ellipse cx="200" cy="530" rx="250" ry="180" fill="url(#oceanGradient)" opacity="0.3"/>

  <!-- Wave patterns -->
  <path d="M 0 400 Q 300 350 600 400 T 1200 400 L 1200 630 L 0 630 Z" fill="#1E90A0" opacity="0.08"/>
  <path d="M 0 450 Q 250 420 500 450 T 1000 450 T 1200 450 L 1200 630 L 0 630 Z" fill="#4FD1C5" opacity="0.05"/>

  <!-- Caviar roe particles -->
  <circle cx="747.9543805413149" cy="53.84048019582008" r="3.4376048267694235" fill="#CFAE58" opacity="0.22969541992468828"/>
  <circle cx="728.2699730345157" cy="113.1423241785744" r="4.4756823346625625" fill="#CFAE58" opacity="0.17104819045299807"/>
  <circle cx="1009.3202861320332" cy="8.74566164819473" r="3.740840784667629" fill="#CFAE58" opacity="0.22258238330134422"/>
  <circle cx="711.4483112109548" cy="519.9409077664338" r="4.864106155555388" fill="#CFAE58" opacity="0.17375940861546102"/>
  <circle cx="741.311549695202" cy="122.98362581601616" r="5.553308629817662" fill="#CFAE58" opacity="0.1777543128098048"/>
  <circle cx="1170.9601331943086" cy="242.22128229708332" r="5.196592016550095" fill="#CFAE58" opacity="0.17252185046003396"/>
  <circle cx="1044.831478057998" cy="124.9762110510914" r="4.7974159105625445" fill="#CFAE58" opacity="0.19006925992215223"/>
  <circle cx="1053.6989866517704" cy="35.828350208621856" r="4.888059300490935" fill="#CFAE58" opacity="0.22499448752723145"/>
  <circle cx="1093.0953767413846" cy="57.664491648018725" r="3.0091236807203083" fill="#CFAE58" opacity="0.10436515774588073"/>
  <circle cx="605.4513611709378" cy="141.2016022920309" r="3.456197689252379" fill="#CFAE58" opacity="0.12634632498776394"/>
  <circle cx="436.2721216896822" cy="175.07377442612875" r="3.748768072324476" fill="#CFAE58" opacity="0.22443699216687812"/>
  <circle cx="661.4826984668744" cy="435.0367861594489" r="4.6392357744205786" fill="#CFAE58" opacity="0.16832965775599873"/>
  <circle cx="547.3439682407376" cy="545.9287983474385" r="2.4425724544670753" fill="#CFAE58" opacity="0.1579192037247445"/>
  <circle cx="390.98756493325897" cy="598.1776748869058" r="4.216693009530601" fill="#CFAE58" opacity="0.14469256158016924"/>
  <circle cx="630.9143939986861" cy="341.3736866136338" r="3.2299286175475213" fill="#CFAE58" opacity="0.2028327718960882"/>
  <circle cx="942.1753640002637" cy="374.22186596540257" r="2.5926644597337565" fill="#CFAE58" opacity="0.1807357288115798"/>
  <circle cx="168.83264616416685" cy="188.2651125742876" r="3.985313936220774" fill="#CFAE58" opacity="0.1570440648241336"/>
  <circle cx="28.77389367557326" cy="430.3824896978601" r="4.142751280009397" fill="#CFAE58" opacity="0.18590837791785064"/>
  <circle cx="320.71657767293476" cy="331.55795426498975" r="4.976130717736671" fill="#CFAE58" opacity="0.21613133542270466"/>
  <circle cx="72.61726365435366" cy="38.136628595356385" r="4.489476977508399" fill="#CFAE58" opacity="0.24841240812566134"/>
  <circle cx="148.47671857542798" cy="144.8801734588757" r="3.2473952372581936" fill="#CFAE58" opacity="0.13460270115296435"/>
  <circle cx="521.8826447931244" cy="9.950868803592156" r="4.362372868576493" fill="#CFAE58" opacity="0.14920572792768713"/>
  <circle cx="1124.4146588270526" cy="280.5772015089747" r="4.199175390154181" fill="#CFAE58" opacity="0.24336384009090128"/>
  <circle cx="269.8079475833694" cy="145.30818769675756" r="2.0017056513993947" fill="#CFAE58" opacity="0.23291282386804021"/>
  <circle cx="640.7128451680328" cy="598.3747300431193" r="4.942108049538534" fill="#CFAE58" opacity="0.22807338093228188"/>
  <circle cx="200.61239678900668" cy="583.4895815848657" r="4.889076469839994" fill="#CFAE58" opacity="0.23658124335810493"/>
  <circle cx="1005.6865495371451" cy="162.01328286743941" r="3.697526447435556" fill="#CFAE58" opacity="0.2266669265945974"/>
  <circle cx="531.9499645077931" cy="112.6766999217032" r="5.581388819088875" fill="#CFAE58" opacity="0.2233738560077612"/>
  <circle cx="770.298897438251" cy="33.46189181033121" r="2.209322759253453" fill="#CFAE58" opacity="0.17294307624694472"/>
  <circle cx="204.0678053516465" cy="292.5495125550197" r="5.294624596276016" fill="#CFAE58" opacity="0.2225070975618482"/>

  <!-- Border with glow -->
  <rect x="40" y="40" width="1120" height="550" fill="none" stroke="url(#goldGradient)" stroke-width="3" rx="12" filter="url(#softGlow)"/>

  <!-- Icon circle with premium background -->
  <circle cx="150" cy="200" r="75" fill="#CFAE58" opacity="0.15" filter="url(#softGlow)"/>
  <circle cx="150" cy="200" r="70" fill="#CFAE58" opacity="0.25"/>
  <text x="150" y="235" font-size="90" text-anchor="middle" fill="#CFAE58" filter="url(#glow)">📰</text>

  <!-- Premium logo (crown) with enhanced styling -->
  <g transform="translate(100, 70)">
    <path d="M 30 20 L 40 35 L 35 35 Z M 50 15 L 60 35 L 45 35 Z M 65 20 L 75 35 L 70 35 Z M 30 35 L 75 35 L 73 45 L 32 45 Z"
          fill="url(#goldGradient)" filter="url(#glow)" stroke="#B89842" stroke-width="0.5"/>
    <circle cx="40" cy="25" r="3" fill="#4FD1C5" filter="url(#glow)"/>
    <circle cx="52" cy="20" r="4" fill="#4FD1C5" filter="url(#glow)"/>
    <circle cx="65" cy="25" r="3" fill="#4FD1C5" filter="url(#glow)"/>
  </g>

  <!-- Title with shadow -->
  <text x="280" y="180" font-family="Georgia, serif" font-size="72" font-weight="bold"
        fill="url(#goldGradient)" filter="url(#shadow)">News &amp; Insights</text>

  <!-- Subtitle with subtle glow -->
  <text x="280" y="230" font-family="Arial, sans-serif" font-size="36"
        fill="#D6DEE6" opacity="0.95" filter="url(#softGlow)">Updates from Royal Keta Hatchery</text>

  <!-- Brand name with letter spacing -->
  <text x="280" y="300" font-family="Georgia, serif" font-size="32" font-weight="bold"
        fill="#CFAE58" letter-spacing="4" filter="url(#glow)">ROYAL KETA</text>

  <!-- Russian tagline -->
  <text x="280" y="340" font-family="Arial, sans-serif" font-size="22" font-style="italic"
        fill="#8B95A1" opacity="0.8">От икринки к королевской</text>

  <!-- Location -->
  <text x="280" y="380" font-family="Arial, sans-serif" font-size="20"
        fill="#8B95A1" opacity="0.7">Невельский район, Сахалин</text>

  <!-- Website with glow -->
  <text x="100" y="570" font-family="Arial, sans-serif" font-size="30" font-weight="bold"
        fill="#4FD1C5" filter="url(#glow)">royalketa.com</text>

  <!-- Enhanced decorative salmon silhouette -->
  <g transform="translate(950, 480)" opacity="0.2" filter="url(#softGlow)">
    <ellipse cx="0" cy="0" rx="90" ry="35" fill="#CFAE58"/>
    <path d="M 90 0 L 120 -18 L 130 0 L 120 18 Z" fill="#CFAE58"/>
    <path d="M -25 -35 L 0 -45 L 25 -35 Z" fill="#CFAE58"/>
    <ellipse cx="-50" cy="0" rx="15" ry="12" fill="#0B0F14"/>
  </g>

  <!-- Additional decorative caviar clusters -->
  <g opacity="0.2">
    <circle cx="1050" cy="120" r="6" fill="#CFAE58"/>
    <circle cx="1065" cy="115" r="5" fill="#CFAE58"/>
    <circle cx="1058" cy="130" r="4" fill="#CFAE58"/>
    <circle cx="150" cy="500" r="5" fill="#4FD1C5"/>
    <circle cx="165" cy="508" r="4" fill="#4FD1C5"/>
    <circle cx="140" cy="512" r="5" fill="#4FD1C5"/>
  </g>
</svg>