<svg width="1200" height="630" xmlns="http://www.w3.org/2000/svg">
  <defs>
    <linearGradient id="bgGradient" x1="0%" y1="0%" x2="100%" y2="100%">
      <stop offset="0%" style="stop-color:#0B0F14;stop-opacity:1" />
      <stop offset="50%" style="stop-color:#0F1619;stop-opacity:1" />
      <stop offset="100%" style="stop-color:#0F1922;stop-opacity:1" />
    </linearGradient>
    <linearGradient id="goldGradient" x1="0%" y1="0%" x2="100%" y2="0%">
      <stop offset="0%" style="stop-color:#E5D596;stop-opacity:1" />
      <stop offset="50%" style="stop-color:#CFAE58;stop-opacity:1" />
      <stop offset="100%" style="stop-color:#B89842;stop-opacity:1" />
    </linearGradient>
    <radialGradient id="oceanGradient" cx="50%" cy="50%" r="50%">
      <stop offset="0%" style="stop-color:#4FD1C5;stop-opacity:0.3" />
      <stop offset="100%" style="stop-color:#1E90A0;stop-opacity:0.05" />
    </radialGradient>
    <filter id="glow">
      <feGaussianBlur stdDeviation="5" result="coloredBlur"/>
      <feMerge>
        <feMergeNode in="coloredBlur"/>
        <feMergeNode in="SourceGraphic"/>
      </feMerge>
    </filter>
    <filter id="softGlow">
      <feGaussianBlur stdDeviation="8" result="coloredBlur"/>
      <feMerge>
        <feMergeNode in="coloredBlur"/>
        <feMergeNode in="SourceGraphic"/>
      </feMerge>
    </filter>
    <filter id="shadow">
      <feDropShadow dx="0" dy="4" stdDeviation="8" flood-color="#000000" flood-opacity="0.5"/>
    </filter>
  </defs>

  <!-- Background -->
  <rect width="1200" height="630" fill="url(#bgGradient)"/>

  <!-- Decorative ocean gradients -->
  <ellipse cx="1000" cy="150" rx="300" ry="200" fill="url(#oceanGradient)" opacity="0.4"/>
  <ellipse cx="200" cy="530" rx="250" ry="180" fill="url(#oceanGradient)" opacity="0.3"/>

  <!-- Wave patterns -->
  <path d="M 0 400 Q 300 350 600 400 T 1200 400 L 1200 630 L 0 630 Z" fill="#1E90A0" opacity="0.08"/>
  <path d="M 0 450 Q 250 420 500 450 T 1000 450 T 1200 450 L 1200 630 L 0 630 Z" fill="#4FD1C5" opacity="0.05"/>

  <!-- Caviar roe particles -->
  <circle cx="0.46220836993260406" cy="200.9191718165104" r="5.440348888885911" fill="#CFAE58" opacity="0.12648920347540019"/>
  <circle cx="443.149235605064" cy="248.3091112941409" r="4.070309516160737" fill="#CFAE58" opacity="0.21948631709392297"/>
  <circle cx="1021.1355095352926" cy="384.0511631919339" r="2.6125180179647662" fill="#CFAE58" opacity="0.10290457753832441"/>
  <circle cx="1154.3057204356837" cy="317.59803233243565" r="2.1320602879690735" fill="#CFAE58" opacity="0.1165020868179797"/>
  <circle cx="113.4228298850747" cy="612.3560204681968" r="2.4580869632176903" fill="#CFAE58" opacity="0.19148940697541356"/>
  <circle cx="620.5307035214867" cy="589.8313212497542" r="5.244770356266924" fill="#CFAE58" opacity="0.19488866044875788"/>
  <circle cx="830.195599376699" cy="399.9547420884237" r="4.761854476040653" fill="#CFAE58" opacity="0.14921827179292568"/>
  <circle cx="566.7318261343962" cy="206.2596878104926" r="2.4737092059110104" fill="#CFAE58" opacity="0.1866991317687854"/>
  <circle cx="121.91714177348017" cy="258.5344378549263" r="2.4476582699735348" fill="#CFAE58" opacity="0.21778303510552705"/>
  <circle cx="331.7022193486796" cy="214.42614123609232" r="3.457211160336695" fill="#CFAE58" opacity="0.1887687196800199"/>
  <circle cx="286.85001826867824" cy="404.6736437146049" r="3.961627909524415" fill="#CFAE58" opacity="0.24167701882711518"/>
  <circle cx="278.65286573617345" cy="102.99069160920442" r="5.871308754023636" fill="#CFAE58" opacity="0.14672618333553242"/>
  <circle cx="1077.7445362431974" cy="114.94778001378936" r="2.5637197183522114" fill="#CFAE58" opacity="0.2448837755632231"/>
  <circle cx="339.42169281611854" cy="249.26776855786665" r="4.492473458219348" fill="#CFAE58" opacity="0.1272684782006453"/>
  <circle cx="448.98432722631804" cy="606.989658409234" r="5.1317903418222555" fill="#CFAE58" opacity="0.2116884440413915"/>
  <circle cx="1109.6694377905717" cy="433.07603296551144" r="4.504028743150926" fill="#CFAE58" opacity="0.24896767038264986"/>
  <circle cx="657.6391431828237" cy="293.17250454558865" r="2.8956788819636845" fill="#CFAE58" opacity="0.2498236661140677"/>
  <circle cx="508.06941977431535" cy="599.1950509414504" r="5.5828888310834035" fill="#CFAE58" opacity="0.16876866319752942"/>
  <circle cx="120.65241877719916" cy="14.424618361534026" r="4.910258125747325" fill="#CFAE58" opacity="0.10993396672964173"/>
  <circle cx="291.13320075710226" cy="567.1051864282151" r="2.3573006665463128" fill="#CFAE58" opacity="0.24264649179715755"/>
  <circle cx="826.8607142109076" cy="324.2306750492923" r="3.7062775466336113" fill="#CFAE58" opacity="0.11581203258088986"/>
  <circle cx="397.1108634791188" cy="402.50409187556903" r="3.0565384415022336" fill="#CFAE58" opacity="0.22033298332066126"/>
  <circle cx="1154.1963776461548" cy="96.72991744460411" r="4.187879259599946" fill="#CFAE58" opacity="0.11514498050550129"/>
  <circle cx="704.6001454192025" cy="43.82603281879329" r="5.662396635826615" fill="#CFAE58" opacity="0.1706199976041486"/>
  <circle cx="688.9975548463158" cy="328.37972800388593" r="2.6831666159754173" fill="#CFAE58" opacity="0.16976137490829735"/>
  <circle cx="1168.5152504562502" cy="427.5923320574361" r="3.2287498007865825" fill="#CFAE58" opacity="0.128788915061637"/>
  <circle cx="406.9133035702751" cy="423.74281068952047" r="3.5261781724583905" fill="#CFAE58" opacity="0.1664134574660164"/>
  <circle cx="906.6391208864064" cy="411.04506219824765" r="5.202946026930242" fill="#CFAE58" opacity="0.10448103111988702"/>
  <circle cx="780.5253165912146" cy="567.3604948989874" r="3.469876345440875" fill="#CFAE58" opacity="0.21191738896979495"/>
  <circle cx="139.68472306114626" cy="365.4527644680979" r="5.569060052103105" fill="#CFAE58" opacity="0.16775837563737955"/>

  <!-- Border with glow -->
  <rect x="40" y="40" width="1120" height="550" fill="none" stroke="url(#goldGradient)" stroke-width="3" rx="12" filter="url(#softGlow)"/>

  <!-- Icon circle with premium background -->
  <circle cx="150" cy="200" r="75" fill="#CFAE58" opacity="0.15" filter="url(#softGlow)"/>
  <circle cx="150" cy="200" r="70" fill="#CFAE58" opacity="0.25"/>
  <text x="150" y="235" font-size="90" text-anchor="middle" fill="#CFAE58" filter="url(#glow)">📰</text>

  <!-- Premium logo (crown) with enhanced styling -->
  <g transform="translate(100, 70)">
    <path d="M 30 20 L 40 35 L 35 35 Z M 50 15 L 60 35 L 45 35 Z M 65 20 L 75 35 L 70 35 Z M 30 35 L 75 35 L 73 45 L 32 45 Z"
          fill="url(#goldGradient)" filter="url(#glow)" stroke="#B89842" stroke-width="0.5"/>
    <circle cx="40" cy="25" r="3" fill="#4FD1C5" filter="url(#glow)"/>
    <circle cx="52" cy="20" r="4" fill="#4FD1C5" filter="url(#glow)"/>
    <circle cx="65" cy="25" r="3" fill="#4FD1C5" filter="url(#glow)"/>
  </g>

  <!-- Title with shadow -->
  <text x="280" y="180" font-family="Georgia, serif" font-size="72" font-weight="bold"
        fill="url(#goldGradient)" filter="url(#shadow)">News & Insights</text>

  <!-- Subtitle with subtle glow -->
  <text x="280" y="230" font-family="Arial, sans-serif" font-size="36"
        fill="#D6DEE6" opacity="0.95" filter="url(#softGlow)">Updates from Royal Keta Hatchery</text>

  <!-- Brand name with letter spacing -->
  <text x="280" y="300" font-family="Georgia, serif" font-size="32" font-weight="bold"
        fill="#CFAE58" letter-spacing="4" filter="url(#glow)">ROYAL KETA</text>

  <!-- Russian tagline -->
  <text x="280" y="340" font-family="Arial, sans-serif" font-size="22" font-style="italic"
        fill="#8B95A1" opacity="0.8">От икринки к королевской</text>

  <!-- Location -->
  <text x="280" y="380" font-family="Arial, sans-serif" font-size="20"
        fill="#8B95A1" opacity="0.7">Невельский район, Сахалин</text>

  <!-- Website with glow -->
  <text x="100" y="570" font-family="Arial, sans-serif" font-size="30" font-weight="bold"
        fill="#4FD1C5" filter="url(#glow)">royalketa.com</text>

  <!-- Enhanced decorative salmon silhouette -->
  <g transform="translate(950, 480)" opacity="0.2" filter="url(#softGlow)">
    <ellipse cx="0" cy="0" rx="90" ry="35" fill="#CFAE58"/>
    <path d="M 90 0 L 120 -18 L 130 0 L 120 18 Z" fill="#CFAE58"/>
    <path d="M -25 -35 L 0 -45 L 25 -35 Z" fill="#CFAE58"/>
    <ellipse cx="-50" cy="0" rx="15" ry="12" fill="#0B0F14"/>
  </g>

  <!-- Additional decorative caviar clusters -->
  <g opacity="0.2">
    <circle cx="1050" cy="120" r="6" fill="#CFAE58"/>
    <circle cx="1065" cy="115" r="5" fill="#CFAE58"/>
    <circle cx="1058" cy="130" r="4" fill="#CFAE58"/>
    <circle cx="150" cy="500" r="5" fill="#4FD1C5"/>
    <circle cx="165" cy="508" r="4" fill="#4FD1C5"/>
    <circle cx="140" cy="512" r="5" fill="#4FD1C5"/>
  </g>
</svg>