<svg width="1200" height="630" xmlns="http://www.w3.org/2000/svg">
  <defs>
    <linearGradient id="bgGradient" x1="0%" y1="0%" x2="100%" y2="100%">
      <stop offset="0%" style="stop-color:#0B0F14;stop-opacity:1" />
      <stop offset="50%" style="stop-color:#0F1619;stop-opacity:1" />
      <stop offset="100%" style="stop-color:#0F1922;stop-opacity:1" />
    </linearGradient>
    <linearGradient id="goldGradient" x1="0%" y1="0%" x2="100%" y2="0%">
      <stop offset="0%" style="stop-color:#E5D596;stop-opacity:1" />
      <stop offset="50%" style="stop-color:#CFAE58;stop-opacity:1" />
      <stop offset="100%" style="stop-color:#B89842;stop-opacity:1" />
    </linearGradient>
    <radialGradient id="oceanGradient" cx="50%" cy="50%" r="50%">
      <stop offset="0%" style="stop-color:#4FD1C5;stop-opacity:0.3" />
      <stop offset="100%" style="stop-color:#1E90A0;stop-opacity:0.05" />
    </radialGradient>
    <filter id="glow">
      <feGaussianBlur stdDeviation="5" result="coloredBlur"/>
      <feMerge>
        <feMergeNode in="coloredBlur"/>
        <feMergeNode in="SourceGraphic"/>
      </feMerge>
    </filter>
    <filter id="softGlow">
      <feGaussianBlur stdDeviation="8" result="coloredBlur"/>
      <feMerge>
        <feMergeNode in="coloredBlur"/>
        <feMergeNode in="SourceGraphic"/>
      </feMerge>
    </filter>
    <filter id="shadow">
      <feDropShadow dx="0" dy="4" stdDeviation="8" flood-color="#000000" flood-opacity="0.5"/>
    </filter>
  </defs>

  <!-- Background -->
  <rect width="1200" height="630" fill="url(#bgGradient)"/>

  <!-- Decorative ocean gradients -->
  <ellipse cx="1000" cy="150" rx="300" ry="200" fill="url(#oceanGradient)" opacity="0.4"/>
  <ellipse cx="200" cy="530" rx="250" ry="180" fill="url(#oceanGradient)" opacity="0.3"/>

  <!-- Wave patterns -->
  <path d="M 0 400 Q 300 350 600 400 T 1200 400 L 1200 630 L 0 630 Z" fill="#1E90A0" opacity="0.08"/>
  <path d="M 0 450 Q 250 420 500 450 T 1000 450 T 1200 450 L 1200 630 L 0 630 Z" fill="#4FD1C5" opacity="0.05"/>

  <!-- Caviar roe particles -->
  <circle cx="833.7706679342219" cy="499.2019302843989" r="2.1958978018881297" fill="#CFAE58" opacity="0.22444613107009007"/>
  <circle cx="374.58480690535475" cy="372.7086427127099" r="4.043013264153612" fill="#CFAE58" opacity="0.17784696044916626"/>
  <circle cx="1179.9243437176806" cy="296.8061279776197" r="2.6810563369278144" fill="#CFAE58" opacity="0.18167953810792176"/>
  <circle cx="1088.8807703166108" cy="428.6520689163448" r="4.6342978160659465" fill="#CFAE58" opacity="0.17107969224284764"/>
  <circle cx="961.8054075001161" cy="37.48782051518506" r="5.55175882814126" fill="#CFAE58" opacity="0.22159945023638714"/>
  <circle cx="1001.8026314914919" cy="182.90968392223417" r="3.402516257295111" fill="#CFAE58" opacity="0.18885465591720416"/>
  <circle cx="245.08151683082565" cy="257.43569144072507" r="4.250855350614175" fill="#CFAE58" opacity="0.1456257648739435"/>
  <circle cx="750.7425058476451" cy="152.64119762988125" r="5.436041008261463" fill="#CFAE58" opacity="0.12949728684436607"/>
  <circle cx="436.51094993263024" cy="32.9321159801245" r="3.0296321243204627" fill="#CFAE58" opacity="0.1561720563575611"/>
  <circle cx="1115.0267533430074" cy="398.84311193933263" r="3.366540001208711" fill="#CFAE58" opacity="0.13834320968580782"/>
  <circle cx="929.8186989591378" cy="129.02683748543893" r="4.886923929569413" fill="#CFAE58" opacity="0.15465701496424078"/>
  <circle cx="35.7759309008042" cy="617.334419995014" r="3.97925687552177" fill="#CFAE58" opacity="0.11990180575553334"/>
  <circle cx="159.57162230381297" cy="35.67293325128416" r="4.592592972514631" fill="#CFAE58" opacity="0.20737825237356106"/>
  <circle cx="938.4316712333704" cy="94.07906529128293" r="5.193693701974106" fill="#CFAE58" opacity="0.1877726345959343"/>
  <circle cx="888.096555804374" cy="623.2161874156823" r="2.865714295158641" fill="#CFAE58" opacity="0.17737134646176106"/>
  <circle cx="414.0256288771029" cy="290.6515787856361" r="5.073953589335486" fill="#CFAE58" opacity="0.11802737128872073"/>
  <circle cx="554.0199144931852" cy="628.2282007765547" r="4.093523525715718" fill="#CFAE58" opacity="0.16832012036818828"/>
  <circle cx="775.9928701057333" cy="142.39963924055021" r="4.564249143544804" fill="#CFAE58" opacity="0.21685003079545082"/>
  <circle cx="1002.1102972630796" cy="38.559402407834504" r="4.32552066205622" fill="#CFAE58" opacity="0.22741947039258548"/>
  <circle cx="1123.0995131085624" cy="436.5721396853778" r="4.775262801699988" fill="#CFAE58" opacity="0.19293708715621888"/>
  <circle cx="923.1149084500819" cy="190.67985495196555" r="3.941818695190954" fill="#CFAE58" opacity="0.1839163912955757"/>
  <circle cx="625.7574264302197" cy="142.3448368347601" r="5.135988928593071" fill="#CFAE58" opacity="0.19948401474381122"/>
  <circle cx="436.6374829912731" cy="82.1229619845618" r="3.3042846601583085" fill="#CFAE58" opacity="0.173219944081698"/>
  <circle cx="792.1076101002191" cy="434.90974996395965" r="4.336300637165232" fill="#CFAE58" opacity="0.10462384467331684"/>
  <circle cx="896.6281666325374" cy="392.5217957875975" r="5.0511931842286675" fill="#CFAE58" opacity="0.21828283516883035"/>
  <circle cx="1094.8822813351255" cy="407.63426894583233" r="2.3179823615250337" fill="#CFAE58" opacity="0.24904923399078793"/>
  <circle cx="682.4320053729932" cy="230.946021494872" r="5.454968484729321" fill="#CFAE58" opacity="0.13213223298543839"/>
  <circle cx="295.7329032211166" cy="134.83172597093014" r="3.1845408716515546" fill="#CFAE58" opacity="0.183812968948447"/>
  <circle cx="539.9859979573445" cy="508.73936227483745" r="4.0572768414971705" fill="#CFAE58" opacity="0.1617792691443437"/>
  <circle cx="100.85720974452687" cy="147.3948412980416" r="5.498527499899059" fill="#CFAE58" opacity="0.20219114942427485"/>

  <!-- Border with glow -->
  <rect x="40" y="40" width="1120" height="550" fill="none" stroke="url(#goldGradient)" stroke-width="3" rx="12" filter="url(#softGlow)"/>

  <!-- Icon circle with premium background -->
  <circle cx="150" cy="200" r="75" fill="#CFAE58" opacity="0.15" filter="url(#softGlow)"/>
  <circle cx="150" cy="200" r="70" fill="#CFAE58" opacity="0.25"/>
  <text x="150" y="235" font-size="90" text-anchor="middle" fill="#CFAE58" filter="url(#glow)">📰</text>

  <!-- Premium logo (crown) with enhanced styling -->
  <g transform="translate(100, 70)">
    <path d="M 30 20 L 40 35 L 35 35 Z M 50 15 L 60 35 L 45 35 Z M 65 20 L 75 35 L 70 35 Z M 30 35 L 75 35 L 73 45 L 32 45 Z"
          fill="url(#goldGradient)" filter="url(#glow)" stroke="#B89842" stroke-width="0.5"/>
    <circle cx="40" cy="25" r="3" fill="#4FD1C5" filter="url(#glow)"/>
    <circle cx="52" cy="20" r="4" fill="#4FD1C5" filter="url(#glow)"/>
    <circle cx="65" cy="25" r="3" fill="#4FD1C5" filter="url(#glow)"/>
  </g>

  <!-- Title with shadow -->
  <text x="280" y="180" font-family="Georgia, serif" font-size="72" font-weight="bold"
        fill="url(#goldGradient)" filter="url(#shadow)">News &amp; Insights</text>

  <!-- Subtitle with subtle glow -->
  <text x="280" y="230" font-family="Arial, sans-serif" font-size="36"
        fill="#D6DEE6" opacity="0.95" filter="url(#softGlow)">Updates from Royal Keta Hatchery</text>

  <!-- Brand name with letter spacing -->
  <text x="280" y="300" font-family="Georgia, serif" font-size="32" font-weight="bold"
        fill="#CFAE58" letter-spacing="4" filter="url(#glow)">ROYAL KETA</text>

  <!-- Russian tagline -->
  <text x="280" y="340" font-family="Arial, sans-serif" font-size="22" font-style="italic"
        fill="#8B95A1" opacity="0.8">От икринки к королевской</text>

  <!-- Location -->
  <text x="280" y="380" font-family="Arial, sans-serif" font-size="20"
        fill="#8B95A1" opacity="0.7">Невельский район, Сахалин</text>

  <!-- Website with glow -->
  <text x="100" y="570" font-family="Arial, sans-serif" font-size="30" font-weight="bold"
        fill="#4FD1C5" filter="url(#glow)">royalketa.com</text>

  <!-- Enhanced decorative salmon silhouette -->
  <g transform="translate(950, 480)" opacity="0.2" filter="url(#softGlow)">
    <ellipse cx="0" cy="0" rx="90" ry="35" fill="#CFAE58"/>
    <path d="M 90 0 L 120 -18 L 130 0 L 120 18 Z" fill="#CFAE58"/>
    <path d="M -25 -35 L 0 -45 L 25 -35 Z" fill="#CFAE58"/>
    <ellipse cx="-50" cy="0" rx="15" ry="12" fill="#0B0F14"/>
  </g>

  <!-- Additional decorative caviar clusters -->
  <g opacity="0.2">
    <circle cx="1050" cy="120" r="6" fill="#CFAE58"/>
    <circle cx="1065" cy="115" r="5" fill="#CFAE58"/>
    <circle cx="1058" cy="130" r="4" fill="#CFAE58"/>
    <circle cx="150" cy="500" r="5" fill="#4FD1C5"/>
    <circle cx="165" cy="508" r="4" fill="#4FD1C5"/>
    <circle cx="140" cy="512" r="5" fill="#4FD1C5"/>
  </g>
</svg>