<svg width="1200" height="630" xmlns="http://www.w3.org/2000/svg">
  <defs>
    <linearGradient id="bgGradient" x1="0%" y1="0%" x2="100%" y2="100%">
      <stop offset="0%" style="stop-color:#0B0F14;stop-opacity:1" />
      <stop offset="50%" style="stop-color:#0F1619;stop-opacity:1" />
      <stop offset="100%" style="stop-color:#0F1922;stop-opacity:1" />
    </linearGradient>
    <linearGradient id="goldGradient" x1="0%" y1="0%" x2="100%" y2="0%">
      <stop offset="0%" style="stop-color:#E5D596;stop-opacity:1" />
      <stop offset="50%" style="stop-color:#CFAE58;stop-opacity:1" />
      <stop offset="100%" style="stop-color:#B89842;stop-opacity:1" />
    </linearGradient>
    <radialGradient id="oceanGradient" cx="50%" cy="50%" r="50%">
      <stop offset="0%" style="stop-color:#4FD1C5;stop-opacity:0.3" />
      <stop offset="100%" style="stop-color:#1E90A0;stop-opacity:0.05" />
    </radialGradient>
    <filter id="glow">
      <feGaussianBlur stdDeviation="5" result="coloredBlur"/>
      <feMerge>
        <feMergeNode in="coloredBlur"/>
        <feMergeNode in="SourceGraphic"/>
      </feMerge>
    </filter>
    <filter id="softGlow">
      <feGaussianBlur stdDeviation="8" result="coloredBlur"/>
      <feMerge>
        <feMergeNode in="coloredBlur"/>
        <feMergeNode in="SourceGraphic"/>
      </feMerge>
    </filter>
    <filter id="shadow">
      <feDropShadow dx="0" dy="4" stdDeviation="8" flood-color="#000000" flood-opacity="0.5"/>
    </filter>
  </defs>

  <!-- Background -->
  <rect width="1200" height="630" fill="url(#bgGradient)"/>

  <!-- Decorative ocean gradients -->
  <ellipse cx="1000" cy="150" rx="300" ry="200" fill="url(#oceanGradient)" opacity="0.4"/>
  <ellipse cx="200" cy="530" rx="250" ry="180" fill="url(#oceanGradient)" opacity="0.3"/>

  <!-- Wave patterns -->
  <path d="M 0 400 Q 300 350 600 400 T 1200 400 L 1200 630 L 0 630 Z" fill="#1E90A0" opacity="0.08"/>
  <path d="M 0 450 Q 250 420 500 450 T 1000 450 T 1200 450 L 1200 630 L 0 630 Z" fill="#4FD1C5" opacity="0.05"/>

  <!-- Caviar roe particles -->
  <circle cx="678.51288159766" cy="453.92708809935533" r="2.981834452791184" fill="#CFAE58" opacity="0.2223030686928295"/>
  <circle cx="144.5636187084151" cy="109.43345385045704" r="2.407216147862049" fill="#CFAE58" opacity="0.18631571493242294"/>
  <circle cx="359.23129649015715" cy="100.2646504225853" r="2.0553757689755416" fill="#CFAE58" opacity="0.14754611510301063"/>
  <circle cx="1183.2848571738634" cy="254.61952181963193" r="4.773368437595054" fill="#CFAE58" opacity="0.18014071053866834"/>
  <circle cx="408.55413893060114" cy="70.40406358347113" r="2.9567301097011525" fill="#CFAE58" opacity="0.15228656180750227"/>
  <circle cx="310.869476761345" cy="351.2440477313434" r="4.291859325533765" fill="#CFAE58" opacity="0.1358386420580366"/>
  <circle cx="22.283602102877254" cy="411.57299290581113" r="2.5781471859590024" fill="#CFAE58" opacity="0.1308890470213679"/>
  <circle cx="1082.7054928824339" cy="283.3362051588835" r="3.8933877590245487" fill="#CFAE58" opacity="0.10145202338163582"/>
  <circle cx="462.69852177342426" cy="2.93080343773805" r="5.158854800625658" fill="#CFAE58" opacity="0.18517834578656142"/>
  <circle cx="1078.1633005268332" cy="516.767859465519" r="5.558202662093217" fill="#CFAE58" opacity="0.23371437497747355"/>
  <circle cx="887.8218741646708" cy="250.65229999615028" r="2.3094581578814326" fill="#CFAE58" opacity="0.2130767950024586"/>
  <circle cx="605.9402449773296" cy="564.1701955772227" r="5.795962614860939" fill="#CFAE58" opacity="0.1387905955438887"/>
  <circle cx="813.1027387676208" cy="105.83186066217944" r="2.096185446373724" fill="#CFAE58" opacity="0.1761626245126215"/>
  <circle cx="679.3655048289655" cy="18.463046023257736" r="5.312558299734212" fill="#CFAE58" opacity="0.18085986404913817"/>
  <circle cx="246.23228303860643" cy="103.77480696200465" r="5.196645174593783" fill="#CFAE58" opacity="0.23490781787569034"/>
  <circle cx="140.27899016286904" cy="51.53128129339718" r="3.7962028904107052" fill="#CFAE58" opacity="0.19026977988266058"/>
  <circle cx="217.68690119090596" cy="192.09488190643484" r="4.9525899226514385" fill="#CFAE58" opacity="0.21658364897643473"/>
  <circle cx="112.7684187176964" cy="166.03972765671693" r="2.311688081393605" fill="#CFAE58" opacity="0.23748634565957394"/>
  <circle cx="905.8302240855454" cy="101.24060233873756" r="4.151804152255314" fill="#CFAE58" opacity="0.19119643386385354"/>
  <circle cx="1057.7729633455347" cy="315.65924238337817" r="2.3121068218437166" fill="#CFAE58" opacity="0.24551163473506543"/>
  <circle cx="333.2580577844382" cy="410.01481575619465" r="3.8590925177017725" fill="#CFAE58" opacity="0.24629572921912984"/>
  <circle cx="380.48155819520827" cy="452.9217780515889" r="4.110398974623933" fill="#CFAE58" opacity="0.2351684007121991"/>
  <circle cx="695.9677162247065" cy="447.8194117750601" r="3.6894041553507595" fill="#CFAE58" opacity="0.2470719063820479"/>
  <circle cx="205.78919479983765" cy="184.49225177249315" r="5.36773620285367" fill="#CFAE58" opacity="0.20133212554937574"/>
  <circle cx="527.2539200336826" cy="495.4605202471588" r="2.4673317163832795" fill="#CFAE58" opacity="0.2420980897439095"/>
  <circle cx="929.4120541833266" cy="496.3907246235786" r="2.88622198862629" fill="#CFAE58" opacity="0.1038005822917245"/>
  <circle cx="339.9903004604883" cy="170.31508313751812" r="2.82715140525449" fill="#CFAE58" opacity="0.207950665753408"/>
  <circle cx="15.441879366540157" cy="212.4265603557914" r="5.9170854979545595" fill="#CFAE58" opacity="0.13554763013678997"/>
  <circle cx="388.17537994892444" cy="42.24235097153611" r="5.2403714890230395" fill="#CFAE58" opacity="0.12528911754805253"/>
  <circle cx="816.4929328846052" cy="245.4687449688187" r="4.642895409290112" fill="#CFAE58" opacity="0.10627307446095374"/>

  <!-- Border with glow -->
  <rect x="40" y="40" width="1120" height="550" fill="none" stroke="url(#goldGradient)" stroke-width="3" rx="12" filter="url(#softGlow)"/>

  <!-- Icon circle with premium background -->
  <circle cx="150" cy="200" r="75" fill="#CFAE58" opacity="0.15" filter="url(#softGlow)"/>
  <circle cx="150" cy="200" r="70" fill="#CFAE58" opacity="0.25"/>
  <text x="150" y="235" font-size="90" text-anchor="middle" fill="#CFAE58" filter="url(#glow)">📰</text>

  <!-- Premium logo (crown) with enhanced styling -->
  <g transform="translate(100, 70)">
    <path d="M 30 20 L 40 35 L 35 35 Z M 50 15 L 60 35 L 45 35 Z M 65 20 L 75 35 L 70 35 Z M 30 35 L 75 35 L 73 45 L 32 45 Z"
          fill="url(#goldGradient)" filter="url(#glow)" stroke="#B89842" stroke-width="0.5"/>
    <circle cx="40" cy="25" r="3" fill="#4FD1C5" filter="url(#glow)"/>
    <circle cx="52" cy="20" r="4" fill="#4FD1C5" filter="url(#glow)"/>
    <circle cx="65" cy="25" r="3" fill="#4FD1C5" filter="url(#glow)"/>
  </g>

  <!-- Title with shadow -->
  <text x="280" y="180" font-family="Georgia, serif" font-size="72" font-weight="bold"
        fill="url(#goldGradient)" filter="url(#shadow)">News &amp; Insights</text>

  <!-- Subtitle with subtle glow -->
  <text x="280" y="230" font-family="Arial, sans-serif" font-size="36"
        fill="#D6DEE6" opacity="0.95" filter="url(#softGlow)">Updates from Royal Keta Hatchery</text>

  <!-- Brand name with letter spacing -->
  <text x="280" y="300" font-family="Georgia, serif" font-size="32" font-weight="bold"
        fill="#CFAE58" letter-spacing="4" filter="url(#glow)">ROYAL KETA</text>

  <!-- Russian tagline -->
  <text x="280" y="340" font-family="Arial, sans-serif" font-size="22" font-style="italic"
        fill="#8B95A1" opacity="0.8">От икринки к королевской</text>

  <!-- Location -->
  <text x="280" y="380" font-family="Arial, sans-serif" font-size="20"
        fill="#8B95A1" opacity="0.7">Невельский район, Сахалин</text>

  <!-- Website with glow -->
  <text x="100" y="570" font-family="Arial, sans-serif" font-size="30" font-weight="bold"
        fill="#4FD1C5" filter="url(#glow)">royalketa.com</text>

  <!-- Enhanced decorative salmon silhouette -->
  <g transform="translate(950, 480)" opacity="0.2" filter="url(#softGlow)">
    <ellipse cx="0" cy="0" rx="90" ry="35" fill="#CFAE58"/>
    <path d="M 90 0 L 120 -18 L 130 0 L 120 18 Z" fill="#CFAE58"/>
    <path d="M -25 -35 L 0 -45 L 25 -35 Z" fill="#CFAE58"/>
    <ellipse cx="-50" cy="0" rx="15" ry="12" fill="#0B0F14"/>
  </g>

  <!-- Additional decorative caviar clusters -->
  <g opacity="0.2">
    <circle cx="1050" cy="120" r="6" fill="#CFAE58"/>
    <circle cx="1065" cy="115" r="5" fill="#CFAE58"/>
    <circle cx="1058" cy="130" r="4" fill="#CFAE58"/>
    <circle cx="150" cy="500" r="5" fill="#4FD1C5"/>
    <circle cx="165" cy="508" r="4" fill="#4FD1C5"/>
    <circle cx="140" cy="512" r="5" fill="#4FD1C5"/>
  </g>
</svg>