<svg width="1200" height="630" xmlns="http://www.w3.org/2000/svg">
  <defs>
    <linearGradient id="bgGradient" x1="0%" y1="0%" x2="100%" y2="100%">
      <stop offset="0%" style="stop-color:#0B0F14;stop-opacity:1" />
      <stop offset="50%" style="stop-color:#0F1619;stop-opacity:1" />
      <stop offset="100%" style="stop-color:#0F1922;stop-opacity:1" />
    </linearGradient>
    <linearGradient id="goldGradient" x1="0%" y1="0%" x2="100%" y2="0%">
      <stop offset="0%" style="stop-color:#E5D596;stop-opacity:1" />
      <stop offset="50%" style="stop-color:#CFAE58;stop-opacity:1" />
      <stop offset="100%" style="stop-color:#B89842;stop-opacity:1" />
    </linearGradient>
    <radialGradient id="oceanGradient" cx="50%" cy="50%" r="50%">
      <stop offset="0%" style="stop-color:#4FD1C5;stop-opacity:0.3" />
      <stop offset="100%" style="stop-color:#1E90A0;stop-opacity:0.05" />
    </radialGradient>
    <filter id="glow">
      <feGaussianBlur stdDeviation="5" result="coloredBlur"/>
      <feMerge>
        <feMergeNode in="coloredBlur"/>
        <feMergeNode in="SourceGraphic"/>
      </feMerge>
    </filter>
    <filter id="softGlow">
      <feGaussianBlur stdDeviation="8" result="coloredBlur"/>
      <feMerge>
        <feMergeNode in="coloredBlur"/>
        <feMergeNode in="SourceGraphic"/>
      </feMerge>
    </filter>
    <filter id="shadow">
      <feDropShadow dx="0" dy="4" stdDeviation="8" flood-color="#000000" flood-opacity="0.5"/>
    </filter>
  </defs>

  <!-- Background -->
  <rect width="1200" height="630" fill="url(#bgGradient)"/>

  <!-- Decorative ocean gradients -->
  <ellipse cx="1000" cy="150" rx="300" ry="200" fill="url(#oceanGradient)" opacity="0.4"/>
  <ellipse cx="200" cy="530" rx="250" ry="180" fill="url(#oceanGradient)" opacity="0.3"/>

  <!-- Wave patterns -->
  <path d="M 0 400 Q 300 350 600 400 T 1200 400 L 1200 630 L 0 630 Z" fill="#1E90A0" opacity="0.08"/>
  <path d="M 0 450 Q 250 420 500 450 T 1000 450 T 1200 450 L 1200 630 L 0 630 Z" fill="#4FD1C5" opacity="0.05"/>

  <!-- Caviar roe particles -->
  <circle cx="1056.7096164771792" cy="247.4702392637318" r="3.186497595267122" fill="#CFAE58" opacity="0.14758861947397756"/>
  <circle cx="930.1457207898491" cy="421.7247066177398" r="3.5450988110578523" fill="#CFAE58" opacity="0.13136641356668052"/>
  <circle cx="635.1715301618183" cy="329.73642679452445" r="3.2586924190566275" fill="#CFAE58" opacity="0.11273871814901484"/>
  <circle cx="395.3187086057846" cy="213.20132342784535" r="2.672322828210815" fill="#CFAE58" opacity="0.21323105818146415"/>
  <circle cx="295.4702614941566" cy="53.84186391726117" r="3.486010294310571" fill="#CFAE58" opacity="0.2342833939828669"/>
  <circle cx="815.6609171321525" cy="528.8608322516678" r="4.467678973518917" fill="#CFAE58" opacity="0.13536307453114174"/>
  <circle cx="251.71474145285666" cy="248.14165935934028" r="5.929673034873077" fill="#CFAE58" opacity="0.22564316907214305"/>
  <circle cx="1013.957828302488" cy="128.89537374562465" r="4.633748182334643" fill="#CFAE58" opacity="0.11693967878994332"/>
  <circle cx="463.4380586821299" cy="550.7221566021865" r="5.931014192298359" fill="#CFAE58" opacity="0.2233848684566704"/>
  <circle cx="1113.7528564542863" cy="402.7950877556777" r="2.525233476716532" fill="#CFAE58" opacity="0.13327978963441697"/>
  <circle cx="1052.714678143897" cy="302.57331971151245" r="3.245761792857939" fill="#CFAE58" opacity="0.12660545875307933"/>
  <circle cx="823.9990426837384" cy="55.643907166641924" r="3.0609583756001344" fill="#CFAE58" opacity="0.19916541550326933"/>
  <circle cx="564.4266948263157" cy="352.18010092593835" r="2.145711895323813" fill="#CFAE58" opacity="0.17810485384075647"/>
  <circle cx="840.9568187626319" cy="34.8594424519826" r="4.433289123629404" fill="#CFAE58" opacity="0.13959448044245817"/>
  <circle cx="275.3006293862324" cy="317.6444841481696" r="4.292879181148907" fill="#CFAE58" opacity="0.24122851286071617"/>
  <circle cx="531.0573683784609" cy="480.56708514448036" r="4.65227895174279" fill="#CFAE58" opacity="0.11412952748777663"/>
  <circle cx="726.6569294236674" cy="396.0759008375712" r="5.472493122867199" fill="#CFAE58" opacity="0.22514442806230495"/>
  <circle cx="212.6276710772048" cy="431.40001122694474" r="5.301041754579426" fill="#CFAE58" opacity="0.22523188584227263"/>
  <circle cx="537.3239213832077" cy="441.9250655808068" r="4.884584653533537" fill="#CFAE58" opacity="0.1122554801330501"/>
  <circle cx="577.3243677066149" cy="116.05468627982496" r="4.789887857714999" fill="#CFAE58" opacity="0.13768008113286645"/>
  <circle cx="245.7063354526883" cy="271.91985784261675" r="3.738526443604677" fill="#CFAE58" opacity="0.15025814769229318"/>
  <circle cx="783.7833332167291" cy="600.0022176550298" r="3.111083544570003" fill="#CFAE58" opacity="0.16802546536531066"/>
  <circle cx="373.06401538675755" cy="115.98137389503816" r="2.5263401290355887" fill="#CFAE58" opacity="0.23077141914702848"/>
  <circle cx="351.5816272238898" cy="205.08714567402285" r="3.036316562474906" fill="#CFAE58" opacity="0.15726715517625814"/>
  <circle cx="407.0800005761212" cy="271.09683509731093" r="5.3730916662584" fill="#CFAE58" opacity="0.10826593729381402"/>
  <circle cx="644.3999740370393" cy="227.0261298761008" r="4.576447222121927" fill="#CFAE58" opacity="0.22846111307835748"/>
  <circle cx="398.18232087526286" cy="112.6840685281574" r="5.238782745670361" fill="#CFAE58" opacity="0.154617781916548"/>
  <circle cx="1108.936428421496" cy="579.5550885001411" r="4.499153898802569" fill="#CFAE58" opacity="0.16138766608531258"/>
  <circle cx="1014.4249227127274" cy="570.9387276452563" r="3.3495494839015736" fill="#CFAE58" opacity="0.24948702314303092"/>
  <circle cx="92.84358912586548" cy="368.6343238390075" r="5.5389310800869795" fill="#CFAE58" opacity="0.20748569523771077"/>

  <!-- Border with glow -->
  <rect x="40" y="40" width="1120" height="550" fill="none" stroke="url(#goldGradient)" stroke-width="3" rx="12" filter="url(#softGlow)"/>

  <!-- Icon circle with premium background -->
  <circle cx="150" cy="200" r="75" fill="#CFAE58" opacity="0.15" filter="url(#softGlow)"/>
  <circle cx="150" cy="200" r="70" fill="#CFAE58" opacity="0.25"/>
  <text x="150" y="235" font-size="90" text-anchor="middle" fill="#CFAE58" filter="url(#glow)">📰</text>

  <!-- Premium logo (crown) with enhanced styling -->
  <g transform="translate(100, 70)">
    <path d="M 30 20 L 40 35 L 35 35 Z M 50 15 L 60 35 L 45 35 Z M 65 20 L 75 35 L 70 35 Z M 30 35 L 75 35 L 73 45 L 32 45 Z"
          fill="url(#goldGradient)" filter="url(#glow)" stroke="#B89842" stroke-width="0.5"/>
    <circle cx="40" cy="25" r="3" fill="#4FD1C5" filter="url(#glow)"/>
    <circle cx="52" cy="20" r="4" fill="#4FD1C5" filter="url(#glow)"/>
    <circle cx="65" cy="25" r="3" fill="#4FD1C5" filter="url(#glow)"/>
  </g>

  <!-- Title with shadow -->
  <text x="280" y="180" font-family="Georgia, serif" font-size="72" font-weight="bold"
        fill="url(#goldGradient)" filter="url(#shadow)">News &amp; Insights</text>

  <!-- Subtitle with subtle glow -->
  <text x="280" y="230" font-family="Arial, sans-serif" font-size="36"
        fill="#D6DEE6" opacity="0.95" filter="url(#softGlow)">Updates from Royal Keta Hatchery</text>

  <!-- Brand name with letter spacing -->
  <text x="280" y="300" font-family="Georgia, serif" font-size="32" font-weight="bold"
        fill="#CFAE58" letter-spacing="4" filter="url(#glow)">ROYAL KETA</text>

  <!-- Russian tagline -->
  <text x="280" y="340" font-family="Arial, sans-serif" font-size="22" font-style="italic"
        fill="#8B95A1" opacity="0.8">От икринки к королевской</text>

  <!-- Location -->
  <text x="280" y="380" font-family="Arial, sans-serif" font-size="20"
        fill="#8B95A1" opacity="0.7">Невельский район, Сахалин</text>

  <!-- Website with glow -->
  <text x="100" y="570" font-family="Arial, sans-serif" font-size="30" font-weight="bold"
        fill="#4FD1C5" filter="url(#glow)">royalketa.com</text>

  <!-- Enhanced decorative salmon silhouette -->
  <g transform="translate(950, 480)" opacity="0.2" filter="url(#softGlow)">
    <ellipse cx="0" cy="0" rx="90" ry="35" fill="#CFAE58"/>
    <path d="M 90 0 L 120 -18 L 130 0 L 120 18 Z" fill="#CFAE58"/>
    <path d="M -25 -35 L 0 -45 L 25 -35 Z" fill="#CFAE58"/>
    <ellipse cx="-50" cy="0" rx="15" ry="12" fill="#0B0F14"/>
  </g>

  <!-- Additional decorative caviar clusters -->
  <g opacity="0.2">
    <circle cx="1050" cy="120" r="6" fill="#CFAE58"/>
    <circle cx="1065" cy="115" r="5" fill="#CFAE58"/>
    <circle cx="1058" cy="130" r="4" fill="#CFAE58"/>
    <circle cx="150" cy="500" r="5" fill="#4FD1C5"/>
    <circle cx="165" cy="508" r="4" fill="#4FD1C5"/>
    <circle cx="140" cy="512" r="5" fill="#4FD1C5"/>
  </g>
</svg>