<svg width="1200" height="630" xmlns="http://www.w3.org/2000/svg">
  <defs>
    <linearGradient id="bgGradient" x1="0%" y1="0%" x2="100%" y2="100%">
      <stop offset="0%" style="stop-color:#0B0F14;stop-opacity:1" />
      <stop offset="50%" style="stop-color:#0F1619;stop-opacity:1" />
      <stop offset="100%" style="stop-color:#0F1922;stop-opacity:1" />
    </linearGradient>
    <linearGradient id="goldGradient" x1="0%" y1="0%" x2="100%" y2="0%">
      <stop offset="0%" style="stop-color:#E5D596;stop-opacity:1" />
      <stop offset="50%" style="stop-color:#CFAE58;stop-opacity:1" />
      <stop offset="100%" style="stop-color:#B89842;stop-opacity:1" />
    </linearGradient>
    <radialGradient id="oceanGradient" cx="50%" cy="50%" r="50%">
      <stop offset="0%" style="stop-color:#4FD1C5;stop-opacity:0.3" />
      <stop offset="100%" style="stop-color:#1E90A0;stop-opacity:0.05" />
    </radialGradient>
    <filter id="glow">
      <feGaussianBlur stdDeviation="5" result="coloredBlur"/>
      <feMerge>
        <feMergeNode in="coloredBlur"/>
        <feMergeNode in="SourceGraphic"/>
      </feMerge>
    </filter>
    <filter id="softGlow">
      <feGaussianBlur stdDeviation="8" result="coloredBlur"/>
      <feMerge>
        <feMergeNode in="coloredBlur"/>
        <feMergeNode in="SourceGraphic"/>
      </feMerge>
    </filter>
    <filter id="shadow">
      <feDropShadow dx="0" dy="4" stdDeviation="8" flood-color="#000000" flood-opacity="0.5"/>
    </filter>
  </defs>

  <!-- Background -->
  <rect width="1200" height="630" fill="url(#bgGradient)"/>

  <!-- Decorative ocean gradients -->
  <ellipse cx="1000" cy="150" rx="300" ry="200" fill="url(#oceanGradient)" opacity="0.4"/>
  <ellipse cx="200" cy="530" rx="250" ry="180" fill="url(#oceanGradient)" opacity="0.3"/>

  <!-- Wave patterns -->
  <path d="M 0 400 Q 300 350 600 400 T 1200 400 L 1200 630 L 0 630 Z" fill="#1E90A0" opacity="0.08"/>
  <path d="M 0 450 Q 250 420 500 450 T 1000 450 T 1200 450 L 1200 630 L 0 630 Z" fill="#4FD1C5" opacity="0.05"/>

  <!-- Caviar roe particles -->
  <circle cx="627.6587622798062" cy="185.32353554515225" r="4.358777210803986" fill="#CFAE58" opacity="0.11477519454621343"/>
  <circle cx="956.2712094285844" cy="494.9532090790364" r="5.993958939824436" fill="#CFAE58" opacity="0.170536040809475"/>
  <circle cx="691.0102959283162" cy="377.7368917079723" r="5.1572211982836045" fill="#CFAE58" opacity="0.19388861567498422"/>
  <circle cx="498.67086428263855" cy="451.61068197872777" r="2.1506551881672507" fill="#CFAE58" opacity="0.148355828362413"/>
  <circle cx="690.0329277410184" cy="37.48009064978339" r="2.446836234235179" fill="#CFAE58" opacity="0.18714891423713126"/>
  <circle cx="381.12914791121455" cy="601.8168427646009" r="4.829848320913959" fill="#CFAE58" opacity="0.19203670969090797"/>
  <circle cx="1034.0585168004934" cy="579.7946868593873" r="3.716100861934981" fill="#CFAE58" opacity="0.2160990283182276"/>
  <circle cx="296.9791289441971" cy="219.8226433008389" r="5.057952235899625" fill="#CFAE58" opacity="0.21612531594855675"/>
  <circle cx="509.8293416302044" cy="226.94442719197477" r="5.816216358511009" fill="#CFAE58" opacity="0.13233246722803504"/>
  <circle cx="879.3858248004859" cy="301.9421130948466" r="3.3695691051903145" fill="#CFAE58" opacity="0.2232995748151058"/>
  <circle cx="50.071128870352275" cy="188.8245004882876" r="5.381904420248079" fill="#CFAE58" opacity="0.15725504086497644"/>
  <circle cx="454.28121305214637" cy="261.71031038534676" r="3.185352447308976" fill="#CFAE58" opacity="0.19687238667260112"/>
  <circle cx="998.8862847329008" cy="551.0037174590913" r="3.5209381201560377" fill="#CFAE58" opacity="0.14469749240495045"/>
  <circle cx="1072.7827245912144" cy="235.5108449738536" r="4.800261036201897" fill="#CFAE58" opacity="0.185265484243"/>
  <circle cx="793.8853092117527" cy="557.7779922130741" r="3.086597469528882" fill="#CFAE58" opacity="0.24359737613100507"/>
  <circle cx="597.2192018876228" cy="209.89802709283006" r="5.642648583304737" fill="#CFAE58" opacity="0.19637177158657837"/>
  <circle cx="771.465785998979" cy="494.03398337358993" r="2.50463166110834" fill="#CFAE58" opacity="0.19905963401660914"/>
  <circle cx="534.5200512171464" cy="187.9937246611762" r="2.8227086267773394" fill="#CFAE58" opacity="0.11701790805319406"/>
  <circle cx="257.07051128934086" cy="26.99056406414326" r="2.7990441601967415" fill="#CFAE58" opacity="0.10353222339128092"/>
  <circle cx="414.5368233117678" cy="489.3670947290846" r="2.823394615258389" fill="#CFAE58" opacity="0.18983464393944255"/>
  <circle cx="257.9061420076275" cy="248.38569270396596" r="3.273884777765809" fill="#CFAE58" opacity="0.21866539716190958"/>
  <circle cx="436.27764325405366" cy="71.34064234406361" r="3.415335706401105" fill="#CFAE58" opacity="0.20920665832478558"/>
  <circle cx="551.142394579148" cy="453.1891709456528" r="2.7125543955375218" fill="#CFAE58" opacity="0.15815152459649093"/>
  <circle cx="1102.2548169858637" cy="10.71925343865704" r="3.041686858664113" fill="#CFAE58" opacity="0.22517060475167347"/>
  <circle cx="624.34159331907" cy="353.0555261215073" r="3.807283628596008" fill="#CFAE58" opacity="0.16185859888595794"/>
  <circle cx="393.39098287576604" cy="194.15769898429713" r="4.15570906734586" fill="#CFAE58" opacity="0.16101121934101587"/>
  <circle cx="354.0571211124741" cy="565.6319878510022" r="5.405813440044913" fill="#CFAE58" opacity="0.1138975650717282"/>
  <circle cx="426.1106844935684" cy="235.87156720229936" r="5.121261006201564" fill="#CFAE58" opacity="0.24661779493037983"/>
  <circle cx="697.8578081894638" cy="304.7014393546148" r="3.3009561234088527" fill="#CFAE58" opacity="0.12005911543935116"/>
  <circle cx="623.4347761756867" cy="219.70288381536184" r="2.246987258023906" fill="#CFAE58" opacity="0.17473762917947577"/>

  <!-- Border with glow -->
  <rect x="40" y="40" width="1120" height="550" fill="none" stroke="url(#goldGradient)" stroke-width="3" rx="12" filter="url(#softGlow)"/>

  <!-- Icon circle with premium background -->
  <circle cx="150" cy="200" r="75" fill="#CFAE58" opacity="0.15" filter="url(#softGlow)"/>
  <circle cx="150" cy="200" r="70" fill="#CFAE58" opacity="0.25"/>
  <text x="150" y="235" font-size="90" text-anchor="middle" fill="#CFAE58" filter="url(#glow)">📰</text>

  <!-- Premium logo (crown) with enhanced styling -->
  <g transform="translate(100, 70)">
    <path d="M 30 20 L 40 35 L 35 35 Z M 50 15 L 60 35 L 45 35 Z M 65 20 L 75 35 L 70 35 Z M 30 35 L 75 35 L 73 45 L 32 45 Z"
          fill="url(#goldGradient)" filter="url(#glow)" stroke="#B89842" stroke-width="0.5"/>
    <circle cx="40" cy="25" r="3" fill="#4FD1C5" filter="url(#glow)"/>
    <circle cx="52" cy="20" r="4" fill="#4FD1C5" filter="url(#glow)"/>
    <circle cx="65" cy="25" r="3" fill="#4FD1C5" filter="url(#glow)"/>
  </g>

  <!-- Title with shadow -->
  <text x="280" y="180" font-family="Georgia, serif" font-size="72" font-weight="bold"
        fill="url(#goldGradient)" filter="url(#shadow)">News &amp; Insights</text>

  <!-- Subtitle with subtle glow -->
  <text x="280" y="230" font-family="Arial, sans-serif" font-size="36"
        fill="#D6DEE6" opacity="0.95" filter="url(#softGlow)">Updates from Royal Keta Hatchery</text>

  <!-- Brand name with letter spacing -->
  <text x="280" y="300" font-family="Georgia, serif" font-size="32" font-weight="bold"
        fill="#CFAE58" letter-spacing="4" filter="url(#glow)">ROYAL KETA</text>

  <!-- Russian tagline -->
  <text x="280" y="340" font-family="Arial, sans-serif" font-size="22" font-style="italic"
        fill="#8B95A1" opacity="0.8">От икринки к королевской</text>

  <!-- Location -->
  <text x="280" y="380" font-family="Arial, sans-serif" font-size="20"
        fill="#8B95A1" opacity="0.7">Невельский район, Сахалин</text>

  <!-- Website with glow -->
  <text x="100" y="570" font-family="Arial, sans-serif" font-size="30" font-weight="bold"
        fill="#4FD1C5" filter="url(#glow)">royalketa.com</text>

  <!-- Enhanced decorative salmon silhouette -->
  <g transform="translate(950, 480)" opacity="0.2" filter="url(#softGlow)">
    <ellipse cx="0" cy="0" rx="90" ry="35" fill="#CFAE58"/>
    <path d="M 90 0 L 120 -18 L 130 0 L 120 18 Z" fill="#CFAE58"/>
    <path d="M -25 -35 L 0 -45 L 25 -35 Z" fill="#CFAE58"/>
    <ellipse cx="-50" cy="0" rx="15" ry="12" fill="#0B0F14"/>
  </g>

  <!-- Additional decorative caviar clusters -->
  <g opacity="0.2">
    <circle cx="1050" cy="120" r="6" fill="#CFAE58"/>
    <circle cx="1065" cy="115" r="5" fill="#CFAE58"/>
    <circle cx="1058" cy="130" r="4" fill="#CFAE58"/>
    <circle cx="150" cy="500" r="5" fill="#4FD1C5"/>
    <circle cx="165" cy="508" r="4" fill="#4FD1C5"/>
    <circle cx="140" cy="512" r="5" fill="#4FD1C5"/>
  </g>
</svg>