<svg width="1200" height="630" xmlns="http://www.w3.org/2000/svg">
  <defs>
    <linearGradient id="bgGradient" x1="0%" y1="0%" x2="100%" y2="100%">
      <stop offset="0%" style="stop-color:#0B0F14;stop-opacity:1" />
      <stop offset="50%" style="stop-color:#0F1619;stop-opacity:1" />
      <stop offset="100%" style="stop-color:#0F1922;stop-opacity:1" />
    </linearGradient>
    <linearGradient id="goldGradient" x1="0%" y1="0%" x2="100%" y2="0%">
      <stop offset="0%" style="stop-color:#E5D596;stop-opacity:1" />
      <stop offset="50%" style="stop-color:#CFAE58;stop-opacity:1" />
      <stop offset="100%" style="stop-color:#B89842;stop-opacity:1" />
    </linearGradient>
    <radialGradient id="oceanGradient" cx="50%" cy="50%" r="50%">
      <stop offset="0%" style="stop-color:#4FD1C5;stop-opacity:0.3" />
      <stop offset="100%" style="stop-color:#1E90A0;stop-opacity:0.05" />
    </radialGradient>
    <filter id="glow">
      <feGaussianBlur stdDeviation="5" result="coloredBlur"/>
      <feMerge>
        <feMergeNode in="coloredBlur"/>
        <feMergeNode in="SourceGraphic"/>
      </feMerge>
    </filter>
    <filter id="softGlow">
      <feGaussianBlur stdDeviation="8" result="coloredBlur"/>
      <feMerge>
        <feMergeNode in="coloredBlur"/>
        <feMergeNode in="SourceGraphic"/>
      </feMerge>
    </filter>
    <filter id="shadow">
      <feDropShadow dx="0" dy="4" stdDeviation="8" flood-color="#000000" flood-opacity="0.5"/>
    </filter>
  </defs>

  <!-- Background -->
  <rect width="1200" height="630" fill="url(#bgGradient)"/>

  <!-- Decorative ocean gradients -->
  <ellipse cx="1000" cy="150" rx="300" ry="200" fill="url(#oceanGradient)" opacity="0.4"/>
  <ellipse cx="200" cy="530" rx="250" ry="180" fill="url(#oceanGradient)" opacity="0.3"/>

  <!-- Wave patterns -->
  <path d="M 0 400 Q 300 350 600 400 T 1200 400 L 1200 630 L 0 630 Z" fill="#1E90A0" opacity="0.08"/>
  <path d="M 0 450 Q 250 420 500 450 T 1000 450 T 1200 450 L 1200 630 L 0 630 Z" fill="#4FD1C5" opacity="0.05"/>

  <!-- Caviar roe particles -->
  <circle cx="762.8282929446361" cy="27.564176550082934" r="4.082222545146174" fill="#CFAE58" opacity="0.23329179452598253"/>
  <circle cx="924.9882657569078" cy="17.157553524163735" r="4.437071964763117" fill="#CFAE58" opacity="0.2178036808072665"/>
  <circle cx="1048.1776074017457" cy="26.77907586001844" r="5.205939338220436" fill="#CFAE58" opacity="0.22797173468802598"/>
  <circle cx="653.7133613066484" cy="171.81637181042223" r="3.5174454147456524" fill="#CFAE58" opacity="0.2201854749920992"/>
  <circle cx="836.5323713751636" cy="438.93899500385515" r="3.7965447657300464" fill="#CFAE58" opacity="0.1657625560137969"/>
  <circle cx="34.85584575338638" cy="339.9487595204271" r="4.53189238770634" fill="#CFAE58" opacity="0.17993364857456928"/>
  <circle cx="1135.984875381732" cy="512.8358279799421" r="2.855688134146984" fill="#CFAE58" opacity="0.22846647931431116"/>
  <circle cx="1181.098521153473" cy="196.42374556171" r="3.104187940348682" fill="#CFAE58" opacity="0.23959240144653826"/>
  <circle cx="923.5793249103651" cy="542.5578592525854" r="5.035852363763241" fill="#CFAE58" opacity="0.20684537871725384"/>
  <circle cx="88.77402332601064" cy="72.6930899131589" r="2.057497525295676" fill="#CFAE58" opacity="0.21987655442386594"/>
  <circle cx="649.8645217768109" cy="243.8619591457366" r="4.347367524283157" fill="#CFAE58" opacity="0.1363173923112266"/>
  <circle cx="731.01327728502" cy="129.47511085590563" r="4.426555253822487" fill="#CFAE58" opacity="0.21911892997620186"/>
  <circle cx="1029.099303979838" cy="351.92056812686525" r="5.81150276846634" fill="#CFAE58" opacity="0.16292433903158715"/>
  <circle cx="375.07263898735334" cy="109.70796691691218" r="4.717347058457572" fill="#CFAE58" opacity="0.11687373428314998"/>
  <circle cx="1166.6901523750078" cy="159.73042314593977" r="4.735858960229049" fill="#CFAE58" opacity="0.20105022663637534"/>
  <circle cx="765.37293800997" cy="520.3068247222908" r="2.3612925544574654" fill="#CFAE58" opacity="0.15756829946565531"/>
  <circle cx="631.1887822332824" cy="351.27085024959405" r="3.486583395384021" fill="#CFAE58" opacity="0.2274037486615802"/>
  <circle cx="36.850620205387855" cy="102.55540706535047" r="3.898628398687931" fill="#CFAE58" opacity="0.18818637924370318"/>
  <circle cx="953.8128579803594" cy="571.9230397872365" r="4.321181162393542" fill="#CFAE58" opacity="0.17712547178019983"/>
  <circle cx="528.8432702410367" cy="268.2079878625174" r="3.783161845427717" fill="#CFAE58" opacity="0.2477109113910415"/>
  <circle cx="1088.2602308675437" cy="351.8723512751558" r="4.890331682117421" fill="#CFAE58" opacity="0.1760726461067365"/>
  <circle cx="257.8774531401376" cy="366.50080492857325" r="3.9851316751654675" fill="#CFAE58" opacity="0.22257128768722195"/>
  <circle cx="399.186370008565" cy="621.980659592391" r="4.937928239949481" fill="#CFAE58" opacity="0.10715086398813958"/>
  <circle cx="219.93135745330133" cy="291.36840087346735" r="5.6835049152159245" fill="#CFAE58" opacity="0.2214202461915573"/>
  <circle cx="57.32705485375966" cy="459.29758063863807" r="4.895206957728301" fill="#CFAE58" opacity="0.1527374568797791"/>
  <circle cx="260.216307334821" cy="441.1362550505535" r="2.0063431349533207" fill="#CFAE58" opacity="0.18999203145675675"/>
  <circle cx="1194.2618469979716" cy="349.8757916192324" r="3.3629666116869714" fill="#CFAE58" opacity="0.13231602186888428"/>
  <circle cx="28.434333606344442" cy="138.76749789268987" r="2.1022096741451604" fill="#CFAE58" opacity="0.22189620613661287"/>
  <circle cx="89.26016401704811" cy="84.64173134582737" r="2.4404378782351914" fill="#CFAE58" opacity="0.21117920008824353"/>
  <circle cx="812.7283645429854" cy="29.03032858911591" r="2.9809124924739843" fill="#CFAE58" opacity="0.22214509659535747"/>

  <!-- Border with glow -->
  <rect x="40" y="40" width="1120" height="550" fill="none" stroke="url(#goldGradient)" stroke-width="3" rx="12" filter="url(#softGlow)"/>

  <!-- Icon circle with premium background -->
  <circle cx="150" cy="200" r="75" fill="#CFAE58" opacity="0.15" filter="url(#softGlow)"/>
  <circle cx="150" cy="200" r="70" fill="#CFAE58" opacity="0.25"/>
  <text x="150" y="235" font-size="90" text-anchor="middle" fill="#CFAE58" filter="url(#glow)">📰</text>

  <!-- Premium logo (crown) with enhanced styling -->
  <g transform="translate(100, 70)">
    <path d="M 30 20 L 40 35 L 35 35 Z M 50 15 L 60 35 L 45 35 Z M 65 20 L 75 35 L 70 35 Z M 30 35 L 75 35 L 73 45 L 32 45 Z"
          fill="url(#goldGradient)" filter="url(#glow)" stroke="#B89842" stroke-width="0.5"/>
    <circle cx="40" cy="25" r="3" fill="#4FD1C5" filter="url(#glow)"/>
    <circle cx="52" cy="20" r="4" fill="#4FD1C5" filter="url(#glow)"/>
    <circle cx="65" cy="25" r="3" fill="#4FD1C5" filter="url(#glow)"/>
  </g>

  <!-- Title with shadow -->
  <text x="280" y="180" font-family="Georgia, serif" font-size="72" font-weight="bold"
        fill="url(#goldGradient)" filter="url(#shadow)">News &amp; Insights</text>

  <!-- Subtitle with subtle glow -->
  <text x="280" y="230" font-family="Arial, sans-serif" font-size="36"
        fill="#D6DEE6" opacity="0.95" filter="url(#softGlow)">Updates from Royal Keta Hatchery</text>

  <!-- Brand name with letter spacing -->
  <text x="280" y="300" font-family="Georgia, serif" font-size="32" font-weight="bold"
        fill="#CFAE58" letter-spacing="4" filter="url(#glow)">ROYAL KETA</text>

  <!-- Russian tagline -->
  <text x="280" y="340" font-family="Arial, sans-serif" font-size="22" font-style="italic"
        fill="#8B95A1" opacity="0.8">От икринки к королевской</text>

  <!-- Location -->
  <text x="280" y="380" font-family="Arial, sans-serif" font-size="20"
        fill="#8B95A1" opacity="0.7">Невельский район, Сахалин</text>

  <!-- Website with glow -->
  <text x="100" y="570" font-family="Arial, sans-serif" font-size="30" font-weight="bold"
        fill="#4FD1C5" filter="url(#glow)">royalketa.com</text>

  <!-- Enhanced decorative salmon silhouette -->
  <g transform="translate(950, 480)" opacity="0.2" filter="url(#softGlow)">
    <ellipse cx="0" cy="0" rx="90" ry="35" fill="#CFAE58"/>
    <path d="M 90 0 L 120 -18 L 130 0 L 120 18 Z" fill="#CFAE58"/>
    <path d="M -25 -35 L 0 -45 L 25 -35 Z" fill="#CFAE58"/>
    <ellipse cx="-50" cy="0" rx="15" ry="12" fill="#0B0F14"/>
  </g>

  <!-- Additional decorative caviar clusters -->
  <g opacity="0.2">
    <circle cx="1050" cy="120" r="6" fill="#CFAE58"/>
    <circle cx="1065" cy="115" r="5" fill="#CFAE58"/>
    <circle cx="1058" cy="130" r="4" fill="#CFAE58"/>
    <circle cx="150" cy="500" r="5" fill="#4FD1C5"/>
    <circle cx="165" cy="508" r="4" fill="#4FD1C5"/>
    <circle cx="140" cy="512" r="5" fill="#4FD1C5"/>
  </g>
</svg>