<svg width="1200" height="630" xmlns="http://www.w3.org/2000/svg">
  <defs>
    <linearGradient id="bgGradient" x1="0%" y1="0%" x2="100%" y2="100%">
      <stop offset="0%" style="stop-color:#0B0F14;stop-opacity:1" />
      <stop offset="50%" style="stop-color:#0F1619;stop-opacity:1" />
      <stop offset="100%" style="stop-color:#0F1922;stop-opacity:1" />
    </linearGradient>
    <linearGradient id="goldGradient" x1="0%" y1="0%" x2="100%" y2="0%">
      <stop offset="0%" style="stop-color:#E5D596;stop-opacity:1" />
      <stop offset="50%" style="stop-color:#CFAE58;stop-opacity:1" />
      <stop offset="100%" style="stop-color:#B89842;stop-opacity:1" />
    </linearGradient>
    <radialGradient id="oceanGradient" cx="50%" cy="50%" r="50%">
      <stop offset="0%" style="stop-color:#4FD1C5;stop-opacity:0.3" />
      <stop offset="100%" style="stop-color:#1E90A0;stop-opacity:0.05" />
    </radialGradient>
    <filter id="glow">
      <feGaussianBlur stdDeviation="5" result="coloredBlur"/>
      <feMerge>
        <feMergeNode in="coloredBlur"/>
        <feMergeNode in="SourceGraphic"/>
      </feMerge>
    </filter>
    <filter id="softGlow">
      <feGaussianBlur stdDeviation="8" result="coloredBlur"/>
      <feMerge>
        <feMergeNode in="coloredBlur"/>
        <feMergeNode in="SourceGraphic"/>
      </feMerge>
    </filter>
    <filter id="shadow">
      <feDropShadow dx="0" dy="4" stdDeviation="8" flood-color="#000000" flood-opacity="0.5"/>
    </filter>
  </defs>

  <!-- Background -->
  <rect width="1200" height="630" fill="url(#bgGradient)"/>

  <!-- Decorative ocean gradients -->
  <ellipse cx="1000" cy="150" rx="300" ry="200" fill="url(#oceanGradient)" opacity="0.4"/>
  <ellipse cx="200" cy="530" rx="250" ry="180" fill="url(#oceanGradient)" opacity="0.3"/>

  <!-- Wave patterns -->
  <path d="M 0 400 Q 300 350 600 400 T 1200 400 L 1200 630 L 0 630 Z" fill="#1E90A0" opacity="0.08"/>
  <path d="M 0 450 Q 250 420 500 450 T 1000 450 T 1200 450 L 1200 630 L 0 630 Z" fill="#4FD1C5" opacity="0.05"/>

  <!-- Caviar roe particles -->
  <circle cx="1089.7038291792585" cy="80.11624024551004" r="4.167431477930751" fill="#CFAE58" opacity="0.11936632771073513"/>
  <circle cx="911.4295596942545" cy="155.48598315822318" r="2.19957778157431" fill="#CFAE58" opacity="0.2095691240217079"/>
  <circle cx="1151.2612243902531" cy="315.8761239067114" r="5.872071031605993" fill="#CFAE58" opacity="0.11792923349925995"/>
  <circle cx="211.99389944223103" cy="592.3074889224328" r="2.8005027448358852" fill="#CFAE58" opacity="0.14743231968517356"/>
  <circle cx="808.9243140177293" cy="59.797814074825666" r="3.8437021991784865" fill="#CFAE58" opacity="0.23287410546079054"/>
  <circle cx="459.0112158129001" cy="296.1278043865132" r="4.0434568440477365" fill="#CFAE58" opacity="0.14475726571016317"/>
  <circle cx="536.4504915643781" cy="235.03991247576838" r="2.552253273630847" fill="#CFAE58" opacity="0.24216075341231008"/>
  <circle cx="297.83362353729785" cy="191.20995480907914" r="3.206643221918161" fill="#CFAE58" opacity="0.18845348813310708"/>
  <circle cx="1045.8347824299772" cy="204.88724894539246" r="3.347016264511515" fill="#CFAE58" opacity="0.15140752774551225"/>
  <circle cx="442.0755921548914" cy="11.11673034872404" r="4.200298231290344" fill="#CFAE58" opacity="0.10530448863357982"/>
  <circle cx="617.438367600263" cy="403.42463276168286" r="2.2066946875737017" fill="#CFAE58" opacity="0.237786119102003"/>
  <circle cx="665.8100232999788" cy="3.914112793006117" r="4.768764612599843" fill="#CFAE58" opacity="0.15173752146596345"/>
  <circle cx="1099.3662379496272" cy="494.1105187358053" r="5.875212599082667" fill="#CFAE58" opacity="0.16834244013812477"/>
  <circle cx="860.3175017008795" cy="77.88218769722185" r="5.597886708440605" fill="#CFAE58" opacity="0.14877864719720654"/>
  <circle cx="1178.4545381222413" cy="507.85077227017473" r="5.582875640073193" fill="#CFAE58" opacity="0.1794923902997782"/>
  <circle cx="841.6132189837074" cy="461.8730548965212" r="5.63496583798068" fill="#CFAE58" opacity="0.18188191973835988"/>
  <circle cx="638.9856295699932" cy="170.33561461429684" r="2.534497229988495" fill="#CFAE58" opacity="0.2141836878284235"/>
  <circle cx="267.6306511921442" cy="409.83842129943014" r="2.5469845469355494" fill="#CFAE58" opacity="0.1399668948078768"/>
  <circle cx="752.9917401771085" cy="119.70287706959313" r="2.9796102917091343" fill="#CFAE58" opacity="0.1484390025547142"/>
  <circle cx="116.37961237884494" cy="347.184581848426" r="3.9619750535882314" fill="#CFAE58" opacity="0.12786716588630936"/>
  <circle cx="947.0161334208997" cy="246.49092662530268" r="2.313317168764578" fill="#CFAE58" opacity="0.2396296611808346"/>
  <circle cx="796.7414370109617" cy="31.594244900189853" r="3.7167438435234654" fill="#CFAE58" opacity="0.13885319479341957"/>
  <circle cx="179.38871933083158" cy="548.6208891786961" r="3.772761601715162" fill="#CFAE58" opacity="0.23019214470439306"/>
  <circle cx="639.5958642746918" cy="330.52864575365106" r="4.504104462438179" fill="#CFAE58" opacity="0.19524090619717732"/>
  <circle cx="272.08946539013317" cy="289.99265480863363" r="2.6147706071310077" fill="#CFAE58" opacity="0.18258719806222953"/>
  <circle cx="529.8283845245961" cy="50.02578794984322" r="2.2951514566644313" fill="#CFAE58" opacity="0.17811788049640503"/>
  <circle cx="652.318541294467" cy="103.87984148704686" r="2.6324570353978025" fill="#CFAE58" opacity="0.2351800780491726"/>
  <circle cx="877.0673933427196" cy="352.38013128324906" r="4.72125177460152" fill="#CFAE58" opacity="0.1277584860761495"/>
  <circle cx="611.5716950981175" cy="249.33783332716806" r="3.4289420774818318" fill="#CFAE58" opacity="0.18062950463896127"/>
  <circle cx="761.4136847829027" cy="261.9261409572308" r="5.173509126725903" fill="#CFAE58" opacity="0.12429254408980032"/>

  <!-- Border with glow -->
  <rect x="40" y="40" width="1120" height="550" fill="none" stroke="url(#goldGradient)" stroke-width="3" rx="12" filter="url(#softGlow)"/>

  <!-- Icon circle with premium background -->
  <circle cx="150" cy="200" r="75" fill="#CFAE58" opacity="0.15" filter="url(#softGlow)"/>
  <circle cx="150" cy="200" r="70" fill="#CFAE58" opacity="0.25"/>
  <text x="150" y="235" font-size="90" text-anchor="middle" fill="#CFAE58" filter="url(#glow)">📰</text>

  <!-- Premium logo (crown) with enhanced styling -->
  <g transform="translate(100, 70)">
    <path d="M 30 20 L 40 35 L 35 35 Z M 50 15 L 60 35 L 45 35 Z M 65 20 L 75 35 L 70 35 Z M 30 35 L 75 35 L 73 45 L 32 45 Z"
          fill="url(#goldGradient)" filter="url(#glow)" stroke="#B89842" stroke-width="0.5"/>
    <circle cx="40" cy="25" r="3" fill="#4FD1C5" filter="url(#glow)"/>
    <circle cx="52" cy="20" r="4" fill="#4FD1C5" filter="url(#glow)"/>
    <circle cx="65" cy="25" r="3" fill="#4FD1C5" filter="url(#glow)"/>
  </g>

  <!-- Title with shadow -->
  <text x="280" y="180" font-family="Georgia, serif" font-size="72" font-weight="bold"
        fill="url(#goldGradient)" filter="url(#shadow)">News &amp; Insights</text>

  <!-- Subtitle with subtle glow -->
  <text x="280" y="230" font-family="Arial, sans-serif" font-size="36"
        fill="#D6DEE6" opacity="0.95" filter="url(#softGlow)">Updates from Royal Keta Hatchery</text>

  <!-- Brand name with letter spacing -->
  <text x="280" y="300" font-family="Georgia, serif" font-size="32" font-weight="bold"
        fill="#CFAE58" letter-spacing="4" filter="url(#glow)">ROYAL KETA</text>

  <!-- Russian tagline -->
  <text x="280" y="340" font-family="Arial, sans-serif" font-size="22" font-style="italic"
        fill="#8B95A1" opacity="0.8">От икринки к королевской</text>

  <!-- Location -->
  <text x="280" y="380" font-family="Arial, sans-serif" font-size="20"
        fill="#8B95A1" opacity="0.7">Невельский район, Сахалин</text>

  <!-- Website with glow -->
  <text x="100" y="570" font-family="Arial, sans-serif" font-size="30" font-weight="bold"
        fill="#4FD1C5" filter="url(#glow)">royalketa.com</text>

  <!-- Enhanced decorative salmon silhouette -->
  <g transform="translate(950, 480)" opacity="0.2" filter="url(#softGlow)">
    <ellipse cx="0" cy="0" rx="90" ry="35" fill="#CFAE58"/>
    <path d="M 90 0 L 120 -18 L 130 0 L 120 18 Z" fill="#CFAE58"/>
    <path d="M -25 -35 L 0 -45 L 25 -35 Z" fill="#CFAE58"/>
    <ellipse cx="-50" cy="0" rx="15" ry="12" fill="#0B0F14"/>
  </g>

  <!-- Additional decorative caviar clusters -->
  <g opacity="0.2">
    <circle cx="1050" cy="120" r="6" fill="#CFAE58"/>
    <circle cx="1065" cy="115" r="5" fill="#CFAE58"/>
    <circle cx="1058" cy="130" r="4" fill="#CFAE58"/>
    <circle cx="150" cy="500" r="5" fill="#4FD1C5"/>
    <circle cx="165" cy="508" r="4" fill="#4FD1C5"/>
    <circle cx="140" cy="512" r="5" fill="#4FD1C5"/>
  </g>
</svg>