<svg width="1200" height="630" xmlns="http://www.w3.org/2000/svg">
  <defs>
    <linearGradient id="bgGradient" x1="0%" y1="0%" x2="100%" y2="100%">
      <stop offset="0%" style="stop-color:#0B0F14;stop-opacity:1" />
      <stop offset="50%" style="stop-color:#0F1619;stop-opacity:1" />
      <stop offset="100%" style="stop-color:#0F1922;stop-opacity:1" />
    </linearGradient>
    <linearGradient id="goldGradient" x1="0%" y1="0%" x2="100%" y2="0%">
      <stop offset="0%" style="stop-color:#E5D596;stop-opacity:1" />
      <stop offset="50%" style="stop-color:#CFAE58;stop-opacity:1" />
      <stop offset="100%" style="stop-color:#B89842;stop-opacity:1" />
    </linearGradient>
    <radialGradient id="oceanGradient" cx="50%" cy="50%" r="50%">
      <stop offset="0%" style="stop-color:#4FD1C5;stop-opacity:0.3" />
      <stop offset="100%" style="stop-color:#1E90A0;stop-opacity:0.05" />
    </radialGradient>
    <filter id="glow">
      <feGaussianBlur stdDeviation="5" result="coloredBlur"/>
      <feMerge>
        <feMergeNode in="coloredBlur"/>
        <feMergeNode in="SourceGraphic"/>
      </feMerge>
    </filter>
    <filter id="softGlow">
      <feGaussianBlur stdDeviation="8" result="coloredBlur"/>
      <feMerge>
        <feMergeNode in="coloredBlur"/>
        <feMergeNode in="SourceGraphic"/>
      </feMerge>
    </filter>
    <filter id="shadow">
      <feDropShadow dx="0" dy="4" stdDeviation="8" flood-color="#000000" flood-opacity="0.5"/>
    </filter>
  </defs>

  <!-- Background -->
  <rect width="1200" height="630" fill="url(#bgGradient)"/>

  <!-- Decorative ocean gradients -->
  <ellipse cx="1000" cy="150" rx="300" ry="200" fill="url(#oceanGradient)" opacity="0.4"/>
  <ellipse cx="200" cy="530" rx="250" ry="180" fill="url(#oceanGradient)" opacity="0.3"/>

  <!-- Wave patterns -->
  <path d="M 0 400 Q 300 350 600 400 T 1200 400 L 1200 630 L 0 630 Z" fill="#1E90A0" opacity="0.08"/>
  <path d="M 0 450 Q 250 420 500 450 T 1000 450 T 1200 450 L 1200 630 L 0 630 Z" fill="#4FD1C5" opacity="0.05"/>

  <!-- Caviar roe particles -->
  <circle cx="628.6963890314222" cy="123.41250772384342" r="2.950108783261026" fill="#CFAE58" opacity="0.18008039935462916"/>
  <circle cx="1065.1211273086228" cy="426.00082142108096" r="4.630315733055108" fill="#CFAE58" opacity="0.20785498153695453"/>
  <circle cx="1016.909806826014" cy="457.9447995262078" r="5.702188756474651" fill="#CFAE58" opacity="0.17550393051168345"/>
  <circle cx="333.56239815239644" cy="614.351646107744" r="5.482347190978588" fill="#CFAE58" opacity="0.24440324574468864"/>
  <circle cx="1005.9494008564423" cy="44.953204954659434" r="3.1445110102772817" fill="#CFAE58" opacity="0.2389504917692595"/>
  <circle cx="333.98135480009756" cy="574.2455310268782" r="2.307861204873097" fill="#CFAE58" opacity="0.21938383923807647"/>
  <circle cx="729.6584507329469" cy="524.328052705844" r="4.459663308787733" fill="#CFAE58" opacity="0.20441548188742326"/>
  <circle cx="765.0662253218637" cy="97.16431428276364" r="5.280713241039221" fill="#CFAE58" opacity="0.13345771093731162"/>
  <circle cx="392.50999427797143" cy="137.46352911947034" r="3.627016567208952" fill="#CFAE58" opacity="0.17816385961691977"/>
  <circle cx="1060.8058059786504" cy="135.88097896287516" r="5.411399869577396" fill="#CFAE58" opacity="0.17799764409393176"/>
  <circle cx="1089.8268292925547" cy="77.87652402720114" r="2.8486589222022722" fill="#CFAE58" opacity="0.11198227239250888"/>
  <circle cx="1063.6985425704672" cy="459.66053460460756" r="2.6559273933443066" fill="#CFAE58" opacity="0.23548559164851673"/>
  <circle cx="768.3367862333984" cy="472.2710130538315" r="2.6779991228039366" fill="#CFAE58" opacity="0.2333436512704458"/>
  <circle cx="331.5398534577285" cy="289.7559253348712" r="5.4720425255540865" fill="#CFAE58" opacity="0.17053624679654877"/>
  <circle cx="300.08667464319814" cy="505.4141346802844" r="2.960728019763674" fill="#CFAE58" opacity="0.1081389306406863"/>
  <circle cx="1042.3238657962177" cy="463.6340338311829" r="2.6874801102598163" fill="#CFAE58" opacity="0.13718701588870294"/>
  <circle cx="1192.2659313548224" cy="341.39701460251644" r="3.2620545106897865" fill="#CFAE58" opacity="0.19115437729722268"/>
  <circle cx="918.6080981081998" cy="160.9249522276212" r="5.526374524781878" fill="#CFAE58" opacity="0.15026856584845796"/>
  <circle cx="596.6538611064939" cy="7.823672601275047" r="3.1116582066882614" fill="#CFAE58" opacity="0.19900712833776799"/>
  <circle cx="470.8376234508546" cy="398.55970495490766" r="3.398459248291547" fill="#CFAE58" opacity="0.14854994416374787"/>
  <circle cx="691.1189452770959" cy="481.51380001831666" r="3.8343330132518965" fill="#CFAE58" opacity="0.11005600671500539"/>
  <circle cx="76.33673475295764" cy="114.10849169091611" r="4.222882122416275" fill="#CFAE58" opacity="0.19733452242903882"/>
  <circle cx="783.6811867254406" cy="19.20407142596647" r="5.637415066667016" fill="#CFAE58" opacity="0.13936180482881588"/>
  <circle cx="1129.1345151307603" cy="358.3796661751455" r="4.15239520465359" fill="#CFAE58" opacity="0.2107288058337191"/>
  <circle cx="824.0103156955549" cy="606.2066739257763" r="3.6642619131487324" fill="#CFAE58" opacity="0.20766358678768476"/>
  <circle cx="96.46951500043653" cy="107.83090437656574" r="4.5106695292884655" fill="#CFAE58" opacity="0.1324123454407144"/>
  <circle cx="158.7400977332167" cy="500.8412508901063" r="3.2275918215295434" fill="#CFAE58" opacity="0.11524041214162109"/>
  <circle cx="689.7452516753023" cy="415.6179419886317" r="3.1216423438125664" fill="#CFAE58" opacity="0.10597109606749372"/>
  <circle cx="930.8225933941359" cy="86.94931513539377" r="4.327760907339517" fill="#CFAE58" opacity="0.16637885767774058"/>
  <circle cx="486.4975704689299" cy="1.5866082307526619" r="4.357820007098652" fill="#CFAE58" opacity="0.18293590739718046"/>

  <!-- Border with glow -->
  <rect x="40" y="40" width="1120" height="550" fill="none" stroke="url(#goldGradient)" stroke-width="3" rx="12" filter="url(#softGlow)"/>

  <!-- Icon circle with premium background -->
  <circle cx="150" cy="200" r="75" fill="#CFAE58" opacity="0.15" filter="url(#softGlow)"/>
  <circle cx="150" cy="200" r="70" fill="#CFAE58" opacity="0.25"/>
  <text x="150" y="235" font-size="90" text-anchor="middle" fill="#CFAE58" filter="url(#glow)">📰</text>

  <!-- Premium logo (crown) with enhanced styling -->
  <g transform="translate(100, 70)">
    <path d="M 30 20 L 40 35 L 35 35 Z M 50 15 L 60 35 L 45 35 Z M 65 20 L 75 35 L 70 35 Z M 30 35 L 75 35 L 73 45 L 32 45 Z"
          fill="url(#goldGradient)" filter="url(#glow)" stroke="#B89842" stroke-width="0.5"/>
    <circle cx="40" cy="25" r="3" fill="#4FD1C5" filter="url(#glow)"/>
    <circle cx="52" cy="20" r="4" fill="#4FD1C5" filter="url(#glow)"/>
    <circle cx="65" cy="25" r="3" fill="#4FD1C5" filter="url(#glow)"/>
  </g>

  <!-- Title with shadow -->
  <text x="280" y="180" font-family="Georgia, serif" font-size="72" font-weight="bold"
        fill="url(#goldGradient)" filter="url(#shadow)">News &amp; Insights</text>

  <!-- Subtitle with subtle glow -->
  <text x="280" y="230" font-family="Arial, sans-serif" font-size="36"
        fill="#D6DEE6" opacity="0.95" filter="url(#softGlow)">Updates from Royal Keta Hatchery</text>

  <!-- Brand name with letter spacing -->
  <text x="280" y="300" font-family="Georgia, serif" font-size="32" font-weight="bold"
        fill="#CFAE58" letter-spacing="4" filter="url(#glow)">ROYAL KETA</text>

  <!-- Russian tagline -->
  <text x="280" y="340" font-family="Arial, sans-serif" font-size="22" font-style="italic"
        fill="#8B95A1" opacity="0.8">От икринки к королевской</text>

  <!-- Location -->
  <text x="280" y="380" font-family="Arial, sans-serif" font-size="20"
        fill="#8B95A1" opacity="0.7">Невельский район, Сахалин</text>

  <!-- Website with glow -->
  <text x="100" y="570" font-family="Arial, sans-serif" font-size="30" font-weight="bold"
        fill="#4FD1C5" filter="url(#glow)">royalketa.com</text>

  <!-- Enhanced decorative salmon silhouette -->
  <g transform="translate(950, 480)" opacity="0.2" filter="url(#softGlow)">
    <ellipse cx="0" cy="0" rx="90" ry="35" fill="#CFAE58"/>
    <path d="M 90 0 L 120 -18 L 130 0 L 120 18 Z" fill="#CFAE58"/>
    <path d="M -25 -35 L 0 -45 L 25 -35 Z" fill="#CFAE58"/>
    <ellipse cx="-50" cy="0" rx="15" ry="12" fill="#0B0F14"/>
  </g>

  <!-- Additional decorative caviar clusters -->
  <g opacity="0.2">
    <circle cx="1050" cy="120" r="6" fill="#CFAE58"/>
    <circle cx="1065" cy="115" r="5" fill="#CFAE58"/>
    <circle cx="1058" cy="130" r="4" fill="#CFAE58"/>
    <circle cx="150" cy="500" r="5" fill="#4FD1C5"/>
    <circle cx="165" cy="508" r="4" fill="#4FD1C5"/>
    <circle cx="140" cy="512" r="5" fill="#4FD1C5"/>
  </g>
</svg>