<svg width="1200" height="630" xmlns="http://www.w3.org/2000/svg">
  <defs>
    <linearGradient id="bgGradient" x1="0%" y1="0%" x2="100%" y2="100%">
      <stop offset="0%" style="stop-color:#0B0F14;stop-opacity:1" />
      <stop offset="50%" style="stop-color:#0F1619;stop-opacity:1" />
      <stop offset="100%" style="stop-color:#0F1922;stop-opacity:1" />
    </linearGradient>
    <linearGradient id="goldGradient" x1="0%" y1="0%" x2="100%" y2="0%">
      <stop offset="0%" style="stop-color:#E5D596;stop-opacity:1" />
      <stop offset="50%" style="stop-color:#CFAE58;stop-opacity:1" />
      <stop offset="100%" style="stop-color:#B89842;stop-opacity:1" />
    </linearGradient>
    <radialGradient id="oceanGradient" cx="50%" cy="50%" r="50%">
      <stop offset="0%" style="stop-color:#4FD1C5;stop-opacity:0.3" />
      <stop offset="100%" style="stop-color:#1E90A0;stop-opacity:0.05" />
    </radialGradient>
    <filter id="glow">
      <feGaussianBlur stdDeviation="5" result="coloredBlur"/>
      <feMerge>
        <feMergeNode in="coloredBlur"/>
        <feMergeNode in="SourceGraphic"/>
      </feMerge>
    </filter>
    <filter id="softGlow">
      <feGaussianBlur stdDeviation="8" result="coloredBlur"/>
      <feMerge>
        <feMergeNode in="coloredBlur"/>
        <feMergeNode in="SourceGraphic"/>
      </feMerge>
    </filter>
    <filter id="shadow">
      <feDropShadow dx="0" dy="4" stdDeviation="8" flood-color="#000000" flood-opacity="0.5"/>
    </filter>
  </defs>

  <!-- Background -->
  <rect width="1200" height="630" fill="url(#bgGradient)"/>

  <!-- Decorative ocean gradients -->
  <ellipse cx="1000" cy="150" rx="300" ry="200" fill="url(#oceanGradient)" opacity="0.4"/>
  <ellipse cx="200" cy="530" rx="250" ry="180" fill="url(#oceanGradient)" opacity="0.3"/>

  <!-- Wave patterns -->
  <path d="M 0 400 Q 300 350 600 400 T 1200 400 L 1200 630 L 0 630 Z" fill="#1E90A0" opacity="0.08"/>
  <path d="M 0 450 Q 250 420 500 450 T 1000 450 T 1200 450 L 1200 630 L 0 630 Z" fill="#4FD1C5" opacity="0.05"/>

  <!-- Caviar roe particles -->
  <circle cx="798.5167639012775" cy="519.7933532906865" r="4.176584217952249" fill="#CFAE58" opacity="0.1712352180326711"/>
  <circle cx="792.8872145544265" cy="206.67830862275298" r="4.824918415564477" fill="#CFAE58" opacity="0.1839044762782496"/>
  <circle cx="37.40347401124416" cy="288.9742784733711" r="3.144839398236588" fill="#CFAE58" opacity="0.20786833494399684"/>
  <circle cx="784.2655186009379" cy="353.6975487076968" r="2.8185997541675625" fill="#CFAE58" opacity="0.20232423693889118"/>
  <circle cx="1185.0812528645768" cy="478.57563191446354" r="4.0861714988346876" fill="#CFAE58" opacity="0.1103412807709551"/>
  <circle cx="445.32920744972853" cy="390.9179703117558" r="4.4029928894255566" fill="#CFAE58" opacity="0.14874202005351772"/>
  <circle cx="1160.7493742945708" cy="93.06625346801698" r="4.21019810253844" fill="#CFAE58" opacity="0.11477338719970548"/>
  <circle cx="57.91834748408844" cy="234.89548473399762" r="3.709258195568064" fill="#CFAE58" opacity="0.11254161871792587"/>
  <circle cx="42.80668858427386" cy="230.23158215512572" r="5.357757811038628" fill="#CFAE58" opacity="0.22674212440496783"/>
  <circle cx="152.31216186743902" cy="347.58913136334115" r="5.636361252474124" fill="#CFAE58" opacity="0.1038637468900799"/>
  <circle cx="100.28958056813045" cy="151.4303570192344" r="2.010500982881453" fill="#CFAE58" opacity="0.2486156180871196"/>
  <circle cx="404.7663215583347" cy="302.1132594215854" r="5.8433737035598785" fill="#CFAE58" opacity="0.23081175054969277"/>
  <circle cx="407.4186066119623" cy="522.3536135082454" r="4.608043738189946" fill="#CFAE58" opacity="0.21740226859415263"/>
  <circle cx="343.96221479817734" cy="144.3890740385694" r="3.6637959959286626" fill="#CFAE58" opacity="0.15205541905042047"/>
  <circle cx="918.8637204471651" cy="229.10681926020962" r="4.868662920829384" fill="#CFAE58" opacity="0.14972843665403396"/>
  <circle cx="87.50394988181358" cy="576.8429593392103" r="4.879245878265362" fill="#CFAE58" opacity="0.2106123316259988"/>
  <circle cx="818.441920863773" cy="334.9683582284462" r="3.2795297939384085" fill="#CFAE58" opacity="0.10673137585466261"/>
  <circle cx="685.7399632227746" cy="415.01593017458924" r="2.159182162712989" fill="#CFAE58" opacity="0.24444413176268953"/>
  <circle cx="442.64454405052254" cy="133.73631842728508" r="3.26428090187608" fill="#CFAE58" opacity="0.161122448295371"/>
  <circle cx="687.6017566968256" cy="294.20118427745945" r="3.14783843660557" fill="#CFAE58" opacity="0.20524034295696103"/>
  <circle cx="628.8212996712151" cy="487.49573346118206" r="3.4465098914394914" fill="#CFAE58" opacity="0.1955278079175979"/>
  <circle cx="1136.5303594246232" cy="459.7845745014166" r="5.034446497597191" fill="#CFAE58" opacity="0.1427737449676949"/>
  <circle cx="186.65423517952297" cy="294.68307883667404" r="3.4680199876560023" fill="#CFAE58" opacity="0.23414401067864843"/>
  <circle cx="1181.7837624427202" cy="383.66686373738474" r="5.25837550954899" fill="#CFAE58" opacity="0.2328629671839821"/>
  <circle cx="221.81956010430008" cy="207.40214688493535" r="3.0783201420442454" fill="#CFAE58" opacity="0.16327076219584635"/>
  <circle cx="557.0349232361596" cy="93.89227810968657" r="5.235413372309652" fill="#CFAE58" opacity="0.18762468374850602"/>
  <circle cx="595.5213756683255" cy="532.296485306394" r="2.146043148122001" fill="#CFAE58" opacity="0.22818053447429523"/>
  <circle cx="947.7961206751545" cy="361.7259323641669" r="3.8164249296424706" fill="#CFAE58" opacity="0.23379938622673474"/>
  <circle cx="721.9704207663922" cy="323.6356609769101" r="3.837176047404791" fill="#CFAE58" opacity="0.15841585846905537"/>
  <circle cx="514.869043942645" cy="97.87304669061842" r="5.475163736342852" fill="#CFAE58" opacity="0.1309988046038697"/>

  <!-- Border with glow -->
  <rect x="40" y="40" width="1120" height="550" fill="none" stroke="url(#goldGradient)" stroke-width="3" rx="12" filter="url(#softGlow)"/>

  <!-- Icon circle with premium background -->
  <circle cx="150" cy="200" r="75" fill="#CFAE58" opacity="0.15" filter="url(#softGlow)"/>
  <circle cx="150" cy="200" r="70" fill="#CFAE58" opacity="0.25"/>
  <text x="150" y="235" font-size="90" text-anchor="middle" fill="#CFAE58" filter="url(#glow)">📰</text>

  <!-- Premium logo (crown) with enhanced styling -->
  <g transform="translate(100, 70)">
    <path d="M 30 20 L 40 35 L 35 35 Z M 50 15 L 60 35 L 45 35 Z M 65 20 L 75 35 L 70 35 Z M 30 35 L 75 35 L 73 45 L 32 45 Z"
          fill="url(#goldGradient)" filter="url(#glow)" stroke="#B89842" stroke-width="0.5"/>
    <circle cx="40" cy="25" r="3" fill="#4FD1C5" filter="url(#glow)"/>
    <circle cx="52" cy="20" r="4" fill="#4FD1C5" filter="url(#glow)"/>
    <circle cx="65" cy="25" r="3" fill="#4FD1C5" filter="url(#glow)"/>
  </g>

  <!-- Title with shadow -->
  <text x="280" y="180" font-family="Georgia, serif" font-size="72" font-weight="bold"
        fill="url(#goldGradient)" filter="url(#shadow)">News &amp; Insights</text>

  <!-- Subtitle with subtle glow -->
  <text x="280" y="230" font-family="Arial, sans-serif" font-size="36"
        fill="#D6DEE6" opacity="0.95" filter="url(#softGlow)">Updates from Royal Keta Hatchery</text>

  <!-- Brand name with letter spacing -->
  <text x="280" y="300" font-family="Georgia, serif" font-size="32" font-weight="bold"
        fill="#CFAE58" letter-spacing="4" filter="url(#glow)">ROYAL KETA</text>

  <!-- Russian tagline -->
  <text x="280" y="340" font-family="Arial, sans-serif" font-size="22" font-style="italic"
        fill="#8B95A1" opacity="0.8">От икринки к королевской</text>

  <!-- Location -->
  <text x="280" y="380" font-family="Arial, sans-serif" font-size="20"
        fill="#8B95A1" opacity="0.7">Невельский район, Сахалин</text>

  <!-- Website with glow -->
  <text x="100" y="570" font-family="Arial, sans-serif" font-size="30" font-weight="bold"
        fill="#4FD1C5" filter="url(#glow)">royalketa.com</text>

  <!-- Enhanced decorative salmon silhouette -->
  <g transform="translate(950, 480)" opacity="0.2" filter="url(#softGlow)">
    <ellipse cx="0" cy="0" rx="90" ry="35" fill="#CFAE58"/>
    <path d="M 90 0 L 120 -18 L 130 0 L 120 18 Z" fill="#CFAE58"/>
    <path d="M -25 -35 L 0 -45 L 25 -35 Z" fill="#CFAE58"/>
    <ellipse cx="-50" cy="0" rx="15" ry="12" fill="#0B0F14"/>
  </g>

  <!-- Additional decorative caviar clusters -->
  <g opacity="0.2">
    <circle cx="1050" cy="120" r="6" fill="#CFAE58"/>
    <circle cx="1065" cy="115" r="5" fill="#CFAE58"/>
    <circle cx="1058" cy="130" r="4" fill="#CFAE58"/>
    <circle cx="150" cy="500" r="5" fill="#4FD1C5"/>
    <circle cx="165" cy="508" r="4" fill="#4FD1C5"/>
    <circle cx="140" cy="512" r="5" fill="#4FD1C5"/>
  </g>
</svg>