<svg width="1200" height="630" xmlns="http://www.w3.org/2000/svg">
  <defs>
    <linearGradient id="bgGradient" x1="0%" y1="0%" x2="100%" y2="100%">
      <stop offset="0%" style="stop-color:#0B0F14;stop-opacity:1" />
      <stop offset="50%" style="stop-color:#0F1619;stop-opacity:1" />
      <stop offset="100%" style="stop-color:#0F1922;stop-opacity:1" />
    </linearGradient>
    <linearGradient id="goldGradient" x1="0%" y1="0%" x2="100%" y2="0%">
      <stop offset="0%" style="stop-color:#E5D596;stop-opacity:1" />
      <stop offset="50%" style="stop-color:#CFAE58;stop-opacity:1" />
      <stop offset="100%" style="stop-color:#B89842;stop-opacity:1" />
    </linearGradient>
    <radialGradient id="oceanGradient" cx="50%" cy="50%" r="50%">
      <stop offset="0%" style="stop-color:#4FD1C5;stop-opacity:0.3" />
      <stop offset="100%" style="stop-color:#1E90A0;stop-opacity:0.05" />
    </radialGradient>
    <filter id="glow">
      <feGaussianBlur stdDeviation="5" result="coloredBlur"/>
      <feMerge>
        <feMergeNode in="coloredBlur"/>
        <feMergeNode in="SourceGraphic"/>
      </feMerge>
    </filter>
    <filter id="softGlow">
      <feGaussianBlur stdDeviation="8" result="coloredBlur"/>
      <feMerge>
        <feMergeNode in="coloredBlur"/>
        <feMergeNode in="SourceGraphic"/>
      </feMerge>
    </filter>
    <filter id="shadow">
      <feDropShadow dx="0" dy="4" stdDeviation="8" flood-color="#000000" flood-opacity="0.5"/>
    </filter>
  </defs>

  <!-- Background -->
  <rect width="1200" height="630" fill="url(#bgGradient)"/>

  <!-- Decorative ocean gradients -->
  <ellipse cx="1000" cy="150" rx="300" ry="200" fill="url(#oceanGradient)" opacity="0.4"/>
  <ellipse cx="200" cy="530" rx="250" ry="180" fill="url(#oceanGradient)" opacity="0.3"/>

  <!-- Wave patterns -->
  <path d="M 0 400 Q 300 350 600 400 T 1200 400 L 1200 630 L 0 630 Z" fill="#1E90A0" opacity="0.08"/>
  <path d="M 0 450 Q 250 420 500 450 T 1000 450 T 1200 450 L 1200 630 L 0 630 Z" fill="#4FD1C5" opacity="0.05"/>

  <!-- Caviar roe particles -->
  <circle cx="576.1320255650769" cy="65.10310363536962" r="5.9979432211430534" fill="#CFAE58" opacity="0.19468377113161822"/>
  <circle cx="112.08891214356092" cy="179.45046860137026" r="4.046846803258099" fill="#CFAE58" opacity="0.2030875634854563"/>
  <circle cx="625.9432781099563" cy="265.18631238358563" r="4.719534993684148" fill="#CFAE58" opacity="0.21001506732198671"/>
  <circle cx="953.5307221012348" cy="169.87417246152543" r="3.3852881617244566" fill="#CFAE58" opacity="0.1802615210414219"/>
  <circle cx="136.96128878604904" cy="339.9069378761395" r="2.1413777436028787" fill="#CFAE58" opacity="0.12808458225246377"/>
  <circle cx="355.1771773887063" cy="457.6917071189391" r="5.111068824578019" fill="#CFAE58" opacity="0.12817235544482633"/>
  <circle cx="1045.3419909199667" cy="43.28885749964076" r="2.2902783677360317" fill="#CFAE58" opacity="0.21920466035085828"/>
  <circle cx="876.391895346167" cy="32.76855197239831" r="2.521082205693311" fill="#CFAE58" opacity="0.18069546784005144"/>
  <circle cx="174.5932894953612" cy="508.616810033063" r="4.5374094433396035" fill="#CFAE58" opacity="0.1777683062786385"/>
  <circle cx="1047.5562537010146" cy="373.6879518376607" r="5.944496014746489" fill="#CFAE58" opacity="0.2443829289004023"/>
  <circle cx="601.5541849533843" cy="603.5187497598193" r="2.4351932680267585" fill="#CFAE58" opacity="0.11795236358425992"/>
  <circle cx="674.4377433867774" cy="52.23059845374461" r="4.80842884144673" fill="#CFAE58" opacity="0.2185218529375585"/>
  <circle cx="1129.5944502607824" cy="131.65978536583114" r="5.905893915328014" fill="#CFAE58" opacity="0.19136405601680057"/>
  <circle cx="528.3502682842355" cy="18.55157885641227" r="5.32466489816105" fill="#CFAE58" opacity="0.21360957752901352"/>
  <circle cx="91.44788158983883" cy="468.5740072483612" r="2.548205641915191" fill="#CFAE58" opacity="0.1157190775241913"/>
  <circle cx="329.3297049761182" cy="17.668263410249942" r="3.639882165238665" fill="#CFAE58" opacity="0.14995675496367233"/>
  <circle cx="609.1777929330991" cy="355.0485742799928" r="3.3681637164908467" fill="#CFAE58" opacity="0.10702525611548325"/>
  <circle cx="11.886315969441874" cy="143.46475554948057" r="3.9740134600214168" fill="#CFAE58" opacity="0.15149004599017765"/>
  <circle cx="496.154201272636" cy="626.0222868172007" r="4.744972333482979" fill="#CFAE58" opacity="0.10292089580568939"/>
  <circle cx="492.3967493814952" cy="19.572550164790307" r="5.970570357301854" fill="#CFAE58" opacity="0.18231315837980996"/>
  <circle cx="670.3926071814674" cy="284.2844269329068" r="5.0613561858021745" fill="#CFAE58" opacity="0.11352533675870316"/>
  <circle cx="938.436858054707" cy="338.52124968326007" r="2.2834355004455005" fill="#CFAE58" opacity="0.22167713036890443"/>
  <circle cx="662.2404550020663" cy="162.79145144604396" r="5.730972352739549" fill="#CFAE58" opacity="0.16105914298839413"/>
  <circle cx="170.11107954193596" cy="77.13803823387143" r="3.551711247048981" fill="#CFAE58" opacity="0.14027653732326165"/>
  <circle cx="878.4428517782322" cy="597.8960648120559" r="2.8386375834145716" fill="#CFAE58" opacity="0.11659130195864295"/>
  <circle cx="472.52487681729326" cy="561.251509818729" r="5.771365377121045" fill="#CFAE58" opacity="0.24930155134081025"/>
  <circle cx="790.3063276992686" cy="153.50904303433543" r="3.2272209384470716" fill="#CFAE58" opacity="0.19694921078332328"/>
  <circle cx="341.78976588859655" cy="335.8786452707526" r="3.575128861463971" fill="#CFAE58" opacity="0.20186247090525516"/>
  <circle cx="665.9233013312919" cy="207.2927135458893" r="3.523610464597541" fill="#CFAE58" opacity="0.22686058151755387"/>
  <circle cx="199.3690361454972" cy="541.1206499494285" r="2.0972161131416582" fill="#CFAE58" opacity="0.10351866231242066"/>

  <!-- Border with glow -->
  <rect x="40" y="40" width="1120" height="550" fill="none" stroke="url(#goldGradient)" stroke-width="3" rx="12" filter="url(#softGlow)"/>

  <!-- Icon circle with premium background -->
  <circle cx="150" cy="200" r="75" fill="#CFAE58" opacity="0.15" filter="url(#softGlow)"/>
  <circle cx="150" cy="200" r="70" fill="#CFAE58" opacity="0.25"/>
  <text x="150" y="235" font-size="90" text-anchor="middle" fill="#CFAE58" filter="url(#glow)">📰</text>

  <!-- Premium logo (crown) with enhanced styling -->
  <g transform="translate(100, 70)">
    <path d="M 30 20 L 40 35 L 35 35 Z M 50 15 L 60 35 L 45 35 Z M 65 20 L 75 35 L 70 35 Z M 30 35 L 75 35 L 73 45 L 32 45 Z"
          fill="url(#goldGradient)" filter="url(#glow)" stroke="#B89842" stroke-width="0.5"/>
    <circle cx="40" cy="25" r="3" fill="#4FD1C5" filter="url(#glow)"/>
    <circle cx="52" cy="20" r="4" fill="#4FD1C5" filter="url(#glow)"/>
    <circle cx="65" cy="25" r="3" fill="#4FD1C5" filter="url(#glow)"/>
  </g>

  <!-- Title with shadow -->
  <text x="280" y="180" font-family="Georgia, serif" font-size="72" font-weight="bold"
        fill="url(#goldGradient)" filter="url(#shadow)">News &amp; Insights</text>

  <!-- Subtitle with subtle glow -->
  <text x="280" y="230" font-family="Arial, sans-serif" font-size="36"
        fill="#D6DEE6" opacity="0.95" filter="url(#softGlow)">Updates from Royal Keta Hatchery</text>

  <!-- Brand name with letter spacing -->
  <text x="280" y="300" font-family="Georgia, serif" font-size="32" font-weight="bold"
        fill="#CFAE58" letter-spacing="4" filter="url(#glow)">ROYAL KETA</text>

  <!-- Russian tagline -->
  <text x="280" y="340" font-family="Arial, sans-serif" font-size="22" font-style="italic"
        fill="#8B95A1" opacity="0.8">От икринки к королевской</text>

  <!-- Location -->
  <text x="280" y="380" font-family="Arial, sans-serif" font-size="20"
        fill="#8B95A1" opacity="0.7">Невельский район, Сахалин</text>

  <!-- Website with glow -->
  <text x="100" y="570" font-family="Arial, sans-serif" font-size="30" font-weight="bold"
        fill="#4FD1C5" filter="url(#glow)">royalketa.com</text>

  <!-- Enhanced decorative salmon silhouette -->
  <g transform="translate(950, 480)" opacity="0.2" filter="url(#softGlow)">
    <ellipse cx="0" cy="0" rx="90" ry="35" fill="#CFAE58"/>
    <path d="M 90 0 L 120 -18 L 130 0 L 120 18 Z" fill="#CFAE58"/>
    <path d="M -25 -35 L 0 -45 L 25 -35 Z" fill="#CFAE58"/>
    <ellipse cx="-50" cy="0" rx="15" ry="12" fill="#0B0F14"/>
  </g>

  <!-- Additional decorative caviar clusters -->
  <g opacity="0.2">
    <circle cx="1050" cy="120" r="6" fill="#CFAE58"/>
    <circle cx="1065" cy="115" r="5" fill="#CFAE58"/>
    <circle cx="1058" cy="130" r="4" fill="#CFAE58"/>
    <circle cx="150" cy="500" r="5" fill="#4FD1C5"/>
    <circle cx="165" cy="508" r="4" fill="#4FD1C5"/>
    <circle cx="140" cy="512" r="5" fill="#4FD1C5"/>
  </g>
</svg>