<svg width="1200" height="630" xmlns="http://www.w3.org/2000/svg">
  <defs>
    <linearGradient id="bgGradient" x1="0%" y1="0%" x2="100%" y2="100%">
      <stop offset="0%" style="stop-color:#0B0F14;stop-opacity:1" />
      <stop offset="50%" style="stop-color:#0F1619;stop-opacity:1" />
      <stop offset="100%" style="stop-color:#0F1922;stop-opacity:1" />
    </linearGradient>
    <linearGradient id="goldGradient" x1="0%" y1="0%" x2="100%" y2="0%">
      <stop offset="0%" style="stop-color:#E5D596;stop-opacity:1" />
      <stop offset="50%" style="stop-color:#CFAE58;stop-opacity:1" />
      <stop offset="100%" style="stop-color:#B89842;stop-opacity:1" />
    </linearGradient>
    <radialGradient id="oceanGradient" cx="50%" cy="50%" r="50%">
      <stop offset="0%" style="stop-color:#4FD1C5;stop-opacity:0.3" />
      <stop offset="100%" style="stop-color:#1E90A0;stop-opacity:0.05" />
    </radialGradient>
    <filter id="glow">
      <feGaussianBlur stdDeviation="5" result="coloredBlur"/>
      <feMerge>
        <feMergeNode in="coloredBlur"/>
        <feMergeNode in="SourceGraphic"/>
      </feMerge>
    </filter>
    <filter id="softGlow">
      <feGaussianBlur stdDeviation="8" result="coloredBlur"/>
      <feMerge>
        <feMergeNode in="coloredBlur"/>
        <feMergeNode in="SourceGraphic"/>
      </feMerge>
    </filter>
    <filter id="shadow">
      <feDropShadow dx="0" dy="4" stdDeviation="8" flood-color="#000000" flood-opacity="0.5"/>
    </filter>
  </defs>

  <!-- Background -->
  <rect width="1200" height="630" fill="url(#bgGradient)"/>

  <!-- Decorative ocean gradients -->
  <ellipse cx="1000" cy="150" rx="300" ry="200" fill="url(#oceanGradient)" opacity="0.4"/>
  <ellipse cx="200" cy="530" rx="250" ry="180" fill="url(#oceanGradient)" opacity="0.3"/>

  <!-- Wave patterns -->
  <path d="M 0 400 Q 300 350 600 400 T 1200 400 L 1200 630 L 0 630 Z" fill="#1E90A0" opacity="0.08"/>
  <path d="M 0 450 Q 250 420 500 450 T 1000 450 T 1200 450 L 1200 630 L 0 630 Z" fill="#4FD1C5" opacity="0.05"/>

  <!-- Caviar roe particles -->
  <circle cx="772.1733252838319" cy="582.5726220118115" r="4.540490110578823" fill="#CFAE58" opacity="0.20179853836782236"/>
  <circle cx="892.9177798348644" cy="566.6618733625032" r="3.309080623045495" fill="#CFAE58" opacity="0.22432009067803155"/>
  <circle cx="317.71928305161003" cy="566.9835709882872" r="3.691399472974469" fill="#CFAE58" opacity="0.1626742102680014"/>
  <circle cx="819.1006648113314" cy="373.6617059432561" r="4.9688031811628095" fill="#CFAE58" opacity="0.23283246388179638"/>
  <circle cx="595.6645687823601" cy="227.9777377836621" r="5.613569626504031" fill="#CFAE58" opacity="0.1670526466470985"/>
  <circle cx="852.4170582810724" cy="259.1465032839098" r="2.9445652382503495" fill="#CFAE58" opacity="0.12957427627016865"/>
  <circle cx="987.1573250443112" cy="292.5636660174184" r="4.8398728700546645" fill="#CFAE58" opacity="0.11704969170251443"/>
  <circle cx="1191.566897322457" cy="618.789628737547" r="5.309759062843673" fill="#CFAE58" opacity="0.1357426360461174"/>
  <circle cx="691.900132571022" cy="55.314671393979694" r="4.317311796696611" fill="#CFAE58" opacity="0.19753747835705454"/>
  <circle cx="665.523969992746" cy="439.1794561054302" r="5.891642940456909" fill="#CFAE58" opacity="0.2006379284412712"/>
  <circle cx="505.6121668126663" cy="327.40384221324916" r="3.153358293752347" fill="#CFAE58" opacity="0.1641195052563258"/>
  <circle cx="1175.4664233767353" cy="79.76971175669573" r="3.5820564030306326" fill="#CFAE58" opacity="0.15441093626182367"/>
  <circle cx="532.949964804388" cy="92.09755417277393" r="4.747654905600287" fill="#CFAE58" opacity="0.1932855323075423"/>
  <circle cx="693.5263591570741" cy="243.72679771840703" r="3.8719012871682974" fill="#CFAE58" opacity="0.13726865356096166"/>
  <circle cx="223.06643561805987" cy="315.0566690522923" r="2.783179099761106" fill="#CFAE58" opacity="0.19131121331348305"/>
  <circle cx="855.3224263866659" cy="554.3995313976839" r="2.620454044154396" fill="#CFAE58" opacity="0.1714928818595426"/>
  <circle cx="1119.7816401264608" cy="593.1648653696748" r="3.111425088330593" fill="#CFAE58" opacity="0.19674640432045698"/>
  <circle cx="278.2011293232818" cy="96.3006813824778" r="3.1341897639091587" fill="#CFAE58" opacity="0.24084058924885438"/>
  <circle cx="264.7245172560429" cy="393.70609119165897" r="3.1263870887121805" fill="#CFAE58" opacity="0.10278021381174354"/>
  <circle cx="621.4513467064455" cy="372.3526629872816" r="3.824632836705084" fill="#CFAE58" opacity="0.1797641471724744"/>
  <circle cx="817.8214534540438" cy="1.3878936086226024" r="5.558833265940365" fill="#CFAE58" opacity="0.14682812705081302"/>
  <circle cx="71.07991744233999" cy="57.18077379986704" r="2.33685639054363" fill="#CFAE58" opacity="0.17585075225824437"/>
  <circle cx="1043.4910713006204" cy="587.1938737274879" r="3.437447749024872" fill="#CFAE58" opacity="0.15562327361246925"/>
  <circle cx="15.26642198615118" cy="554.6813839208503" r="5.758983646915637" fill="#CFAE58" opacity="0.21166809830263286"/>
  <circle cx="410.92373375676397" cy="134.67285753038848" r="4.3163509167473215" fill="#CFAE58" opacity="0.16664774105109847"/>
  <circle cx="1198.888793361152" cy="395.62545717212475" r="2.7501256149437583" fill="#CFAE58" opacity="0.11445579289571838"/>
  <circle cx="320.12678508835336" cy="523.8355356781032" r="3.5194797248726766" fill="#CFAE58" opacity="0.23636601623233128"/>
  <circle cx="697.193400498511" cy="383.9640690398265" r="4.070508741258851" fill="#CFAE58" opacity="0.2044737339101153"/>
  <circle cx="690.0057289703877" cy="155.7294075937653" r="2.9970558057231753" fill="#CFAE58" opacity="0.23781089641118083"/>
  <circle cx="629.7705635283597" cy="598.8339793000215" r="5.748095800960757" fill="#CFAE58" opacity="0.17797159433743845"/>

  <!-- Border with glow -->
  <rect x="40" y="40" width="1120" height="550" fill="none" stroke="url(#goldGradient)" stroke-width="3" rx="12" filter="url(#softGlow)"/>

  <!-- Icon circle with premium background -->
  <circle cx="150" cy="200" r="75" fill="#CFAE58" opacity="0.15" filter="url(#softGlow)"/>
  <circle cx="150" cy="200" r="70" fill="#CFAE58" opacity="0.25"/>
  <text x="150" y="235" font-size="90" text-anchor="middle" fill="#CFAE58" filter="url(#glow)">📰</text>

  <!-- Premium logo (crown) with enhanced styling -->
  <g transform="translate(100, 70)">
    <path d="M 30 20 L 40 35 L 35 35 Z M 50 15 L 60 35 L 45 35 Z M 65 20 L 75 35 L 70 35 Z M 30 35 L 75 35 L 73 45 L 32 45 Z"
          fill="url(#goldGradient)" filter="url(#glow)" stroke="#B89842" stroke-width="0.5"/>
    <circle cx="40" cy="25" r="3" fill="#4FD1C5" filter="url(#glow)"/>
    <circle cx="52" cy="20" r="4" fill="#4FD1C5" filter="url(#glow)"/>
    <circle cx="65" cy="25" r="3" fill="#4FD1C5" filter="url(#glow)"/>
  </g>

  <!-- Title with shadow -->
  <text x="280" y="180" font-family="Georgia, serif" font-size="72" font-weight="bold"
        fill="url(#goldGradient)" filter="url(#shadow)">News &amp; Insights</text>

  <!-- Subtitle with subtle glow -->
  <text x="280" y="230" font-family="Arial, sans-serif" font-size="36"
        fill="#D6DEE6" opacity="0.95" filter="url(#softGlow)">Updates from Royal Keta Hatchery</text>

  <!-- Brand name with letter spacing -->
  <text x="280" y="300" font-family="Georgia, serif" font-size="32" font-weight="bold"
        fill="#CFAE58" letter-spacing="4" filter="url(#glow)">ROYAL KETA</text>

  <!-- Russian tagline -->
  <text x="280" y="340" font-family="Arial, sans-serif" font-size="22" font-style="italic"
        fill="#8B95A1" opacity="0.8">От икринки к королевской</text>

  <!-- Location -->
  <text x="280" y="380" font-family="Arial, sans-serif" font-size="20"
        fill="#8B95A1" opacity="0.7">Невельский район, Сахалин</text>

  <!-- Website with glow -->
  <text x="100" y="570" font-family="Arial, sans-serif" font-size="30" font-weight="bold"
        fill="#4FD1C5" filter="url(#glow)">royalketa.com</text>

  <!-- Enhanced decorative salmon silhouette -->
  <g transform="translate(950, 480)" opacity="0.2" filter="url(#softGlow)">
    <ellipse cx="0" cy="0" rx="90" ry="35" fill="#CFAE58"/>
    <path d="M 90 0 L 120 -18 L 130 0 L 120 18 Z" fill="#CFAE58"/>
    <path d="M -25 -35 L 0 -45 L 25 -35 Z" fill="#CFAE58"/>
    <ellipse cx="-50" cy="0" rx="15" ry="12" fill="#0B0F14"/>
  </g>

  <!-- Additional decorative caviar clusters -->
  <g opacity="0.2">
    <circle cx="1050" cy="120" r="6" fill="#CFAE58"/>
    <circle cx="1065" cy="115" r="5" fill="#CFAE58"/>
    <circle cx="1058" cy="130" r="4" fill="#CFAE58"/>
    <circle cx="150" cy="500" r="5" fill="#4FD1C5"/>
    <circle cx="165" cy="508" r="4" fill="#4FD1C5"/>
    <circle cx="140" cy="512" r="5" fill="#4FD1C5"/>
  </g>
</svg>