<svg width="1200" height="630" xmlns="http://www.w3.org/2000/svg">
  <defs>
    <linearGradient id="bgGradient" x1="0%" y1="0%" x2="100%" y2="100%">
      <stop offset="0%" style="stop-color:#0B0F14;stop-opacity:1" />
      <stop offset="50%" style="stop-color:#0F1619;stop-opacity:1" />
      <stop offset="100%" style="stop-color:#0F1922;stop-opacity:1" />
    </linearGradient>
    <linearGradient id="goldGradient" x1="0%" y1="0%" x2="100%" y2="0%">
      <stop offset="0%" style="stop-color:#E5D596;stop-opacity:1" />
      <stop offset="50%" style="stop-color:#CFAE58;stop-opacity:1" />
      <stop offset="100%" style="stop-color:#B89842;stop-opacity:1" />
    </linearGradient>
    <radialGradient id="oceanGradient" cx="50%" cy="50%" r="50%">
      <stop offset="0%" style="stop-color:#4FD1C5;stop-opacity:0.3" />
      <stop offset="100%" style="stop-color:#1E90A0;stop-opacity:0.05" />
    </radialGradient>
    <filter id="glow">
      <feGaussianBlur stdDeviation="5" result="coloredBlur"/>
      <feMerge>
        <feMergeNode in="coloredBlur"/>
        <feMergeNode in="SourceGraphic"/>
      </feMerge>
    </filter>
    <filter id="softGlow">
      <feGaussianBlur stdDeviation="8" result="coloredBlur"/>
      <feMerge>
        <feMergeNode in="coloredBlur"/>
        <feMergeNode in="SourceGraphic"/>
      </feMerge>
    </filter>
    <filter id="shadow">
      <feDropShadow dx="0" dy="4" stdDeviation="8" flood-color="#000000" flood-opacity="0.5"/>
    </filter>
  </defs>

  <!-- Background -->
  <rect width="1200" height="630" fill="url(#bgGradient)"/>

  <!-- Decorative ocean gradients -->
  <ellipse cx="1000" cy="150" rx="300" ry="200" fill="url(#oceanGradient)" opacity="0.4"/>
  <ellipse cx="200" cy="530" rx="250" ry="180" fill="url(#oceanGradient)" opacity="0.3"/>

  <!-- Wave patterns -->
  <path d="M 0 400 Q 300 350 600 400 T 1200 400 L 1200 630 L 0 630 Z" fill="#1E90A0" opacity="0.08"/>
  <path d="M 0 450 Q 250 420 500 450 T 1000 450 T 1200 450 L 1200 630 L 0 630 Z" fill="#4FD1C5" opacity="0.05"/>

  <!-- Caviar roe particles -->
  <circle cx="557.2618672067739" cy="460.87422233009715" r="4.446914347333701" fill="#CFAE58" opacity="0.21374043042922153"/>
  <circle cx="662.199901656445" cy="335.0198091168095" r="4.510252307646509" fill="#CFAE58" opacity="0.22703750023801558"/>
  <circle cx="207.1924680972586" cy="576.122691161297" r="4.508462620221321" fill="#CFAE58" opacity="0.23013691151507848"/>
  <circle cx="523.8638974670043" cy="328.7061034057315" r="2.838343083793944" fill="#CFAE58" opacity="0.14820723327164914"/>
  <circle cx="966.2456507343973" cy="2.571308304523777" r="4.980500910274689" fill="#CFAE58" opacity="0.23880616411450933"/>
  <circle cx="987.7626660912463" cy="318.63656287246033" r="2.991591656037525" fill="#CFAE58" opacity="0.20028708128780348"/>
  <circle cx="336.5293731430766" cy="358.25945481736636" r="3.2168124238870455" fill="#CFAE58" opacity="0.1893584597594214"/>
  <circle cx="820.4853741861415" cy="600.7721437622032" r="4.36104907850493" fill="#CFAE58" opacity="0.22277798707755372"/>
  <circle cx="150.30346876304716" cy="17.0719252802537" r="5.211783847674881" fill="#CFAE58" opacity="0.10466396449553002"/>
  <circle cx="716.1660179617157" cy="547.3058951868286" r="4.851441831936615" fill="#CFAE58" opacity="0.20216607048238744"/>
  <circle cx="565.6972470990403" cy="264.25959188026417" r="3.6656839723414323" fill="#CFAE58" opacity="0.19180356767065765"/>
  <circle cx="137.44710724506427" cy="437.67746311333957" r="2.675768151329885" fill="#CFAE58" opacity="0.18385059391065278"/>
  <circle cx="935.8687003221048" cy="45.99563021724782" r="4.624089455051037" fill="#CFAE58" opacity="0.19060534573325383"/>
  <circle cx="641.0863937244644" cy="624.0049899204655" r="4.5787447995507335" fill="#CFAE58" opacity="0.16896571236404967"/>
  <circle cx="924.8582962644226" cy="150.41673531053306" r="3.9028365641924574" fill="#CFAE58" opacity="0.17254955612765394"/>
  <circle cx="1199.897288095402" cy="229.3771927731945" r="2.077716183313511" fill="#CFAE58" opacity="0.19306506713132687"/>
  <circle cx="665.9070952243871" cy="581.4017247573399" r="4.4359888912358825" fill="#CFAE58" opacity="0.11757675556098167"/>
  <circle cx="659.9249900216951" cy="242.31184227862906" r="4.672121654689256" fill="#CFAE58" opacity="0.17964535904741585"/>
  <circle cx="770.1845932689876" cy="4.734055332853857" r="2.5010168658542553" fill="#CFAE58" opacity="0.10078456629981641"/>
  <circle cx="909.3659703021799" cy="234.31624923075498" r="5.812480653102947" fill="#CFAE58" opacity="0.2493774113816902"/>
  <circle cx="837.5608561975159" cy="607.54482618493" r="4.457998203129126" fill="#CFAE58" opacity="0.24416735081295263"/>
  <circle cx="268.8486558129826" cy="447.20347910922527" r="5.211664321669177" fill="#CFAE58" opacity="0.14111488895215785"/>
  <circle cx="331.34390845492" cy="374.8360188137257" r="2.2069234023940774" fill="#CFAE58" opacity="0.1153156559427372"/>
  <circle cx="168.72499560209926" cy="478.4923004400972" r="4.209216320787384" fill="#CFAE58" opacity="0.15378789450650526"/>
  <circle cx="66.15998933015703" cy="470.5755839438564" r="4.85642530004443" fill="#CFAE58" opacity="0.1045839677215473"/>
  <circle cx="917.6354096461677" cy="95.20878764699049" r="4.295708879126991" fill="#CFAE58" opacity="0.14120842120846017"/>
  <circle cx="937.9039924678649" cy="611.6089430190794" r="3.2946288032391746" fill="#CFAE58" opacity="0.13979868733057338"/>
  <circle cx="1087.1253439392299" cy="623.7940597813614" r="4.927027526817352" fill="#CFAE58" opacity="0.1644648579997969"/>
  <circle cx="1051.7928897536972" cy="51.67920714367959" r="2.027064780042991" fill="#CFAE58" opacity="0.12075234433966892"/>
  <circle cx="615.1020001127532" cy="278.15561832877654" r="2.8580511898457077" fill="#CFAE58" opacity="0.12047547212183904"/>

  <!-- Border with glow -->
  <rect x="40" y="40" width="1120" height="550" fill="none" stroke="url(#goldGradient)" stroke-width="3" rx="12" filter="url(#softGlow)"/>

  <!-- Icon circle with premium background -->
  <circle cx="150" cy="200" r="75" fill="#CFAE58" opacity="0.15" filter="url(#softGlow)"/>
  <circle cx="150" cy="200" r="70" fill="#CFAE58" opacity="0.25"/>
  <text x="150" y="235" font-size="90" text-anchor="middle" fill="#CFAE58" filter="url(#glow)">📰</text>

  <!-- Premium logo (crown) with enhanced styling -->
  <g transform="translate(100, 70)">
    <path d="M 30 20 L 40 35 L 35 35 Z M 50 15 L 60 35 L 45 35 Z M 65 20 L 75 35 L 70 35 Z M 30 35 L 75 35 L 73 45 L 32 45 Z"
          fill="url(#goldGradient)" filter="url(#glow)" stroke="#B89842" stroke-width="0.5"/>
    <circle cx="40" cy="25" r="3" fill="#4FD1C5" filter="url(#glow)"/>
    <circle cx="52" cy="20" r="4" fill="#4FD1C5" filter="url(#glow)"/>
    <circle cx="65" cy="25" r="3" fill="#4FD1C5" filter="url(#glow)"/>
  </g>

  <!-- Title with shadow -->
  <text x="280" y="180" font-family="Georgia, serif" font-size="72" font-weight="bold"
        fill="url(#goldGradient)" filter="url(#shadow)">News &amp; Insights</text>

  <!-- Subtitle with subtle glow -->
  <text x="280" y="230" font-family="Arial, sans-serif" font-size="36"
        fill="#D6DEE6" opacity="0.95" filter="url(#softGlow)">Updates from Royal Keta Hatchery</text>

  <!-- Brand name with letter spacing -->
  <text x="280" y="300" font-family="Georgia, serif" font-size="32" font-weight="bold"
        fill="#CFAE58" letter-spacing="4" filter="url(#glow)">ROYAL KETA</text>

  <!-- Russian tagline -->
  <text x="280" y="340" font-family="Arial, sans-serif" font-size="22" font-style="italic"
        fill="#8B95A1" opacity="0.8">От икринки к королевской</text>

  <!-- Location -->
  <text x="280" y="380" font-family="Arial, sans-serif" font-size="20"
        fill="#8B95A1" opacity="0.7">Невельский район, Сахалин</text>

  <!-- Website with glow -->
  <text x="100" y="570" font-family="Arial, sans-serif" font-size="30" font-weight="bold"
        fill="#4FD1C5" filter="url(#glow)">royalketa.com</text>

  <!-- Enhanced decorative salmon silhouette -->
  <g transform="translate(950, 480)" opacity="0.2" filter="url(#softGlow)">
    <ellipse cx="0" cy="0" rx="90" ry="35" fill="#CFAE58"/>
    <path d="M 90 0 L 120 -18 L 130 0 L 120 18 Z" fill="#CFAE58"/>
    <path d="M -25 -35 L 0 -45 L 25 -35 Z" fill="#CFAE58"/>
    <ellipse cx="-50" cy="0" rx="15" ry="12" fill="#0B0F14"/>
  </g>

  <!-- Additional decorative caviar clusters -->
  <g opacity="0.2">
    <circle cx="1050" cy="120" r="6" fill="#CFAE58"/>
    <circle cx="1065" cy="115" r="5" fill="#CFAE58"/>
    <circle cx="1058" cy="130" r="4" fill="#CFAE58"/>
    <circle cx="150" cy="500" r="5" fill="#4FD1C5"/>
    <circle cx="165" cy="508" r="4" fill="#4FD1C5"/>
    <circle cx="140" cy="512" r="5" fill="#4FD1C5"/>
  </g>
</svg>