<svg width="1200" height="630" xmlns="http://www.w3.org/2000/svg">
  <defs>
    <linearGradient id="bgGradient" x1="0%" y1="0%" x2="100%" y2="100%">
      <stop offset="0%" style="stop-color:#0B0F14;stop-opacity:1" />
      <stop offset="50%" style="stop-color:#0F1619;stop-opacity:1" />
      <stop offset="100%" style="stop-color:#0F1922;stop-opacity:1" />
    </linearGradient>
    <linearGradient id="goldGradient" x1="0%" y1="0%" x2="100%" y2="0%">
      <stop offset="0%" style="stop-color:#E5D596;stop-opacity:1" />
      <stop offset="50%" style="stop-color:#CFAE58;stop-opacity:1" />
      <stop offset="100%" style="stop-color:#B89842;stop-opacity:1" />
    </linearGradient>
    <radialGradient id="oceanGradient" cx="50%" cy="50%" r="50%">
      <stop offset="0%" style="stop-color:#4FD1C5;stop-opacity:0.3" />
      <stop offset="100%" style="stop-color:#1E90A0;stop-opacity:0.05" />
    </radialGradient>
    <filter id="glow">
      <feGaussianBlur stdDeviation="5" result="coloredBlur"/>
      <feMerge>
        <feMergeNode in="coloredBlur"/>
        <feMergeNode in="SourceGraphic"/>
      </feMerge>
    </filter>
    <filter id="softGlow">
      <feGaussianBlur stdDeviation="8" result="coloredBlur"/>
      <feMerge>
        <feMergeNode in="coloredBlur"/>
        <feMergeNode in="SourceGraphic"/>
      </feMerge>
    </filter>
    <filter id="shadow">
      <feDropShadow dx="0" dy="4" stdDeviation="8" flood-color="#000000" flood-opacity="0.5"/>
    </filter>
  </defs>

  <!-- Background -->
  <rect width="1200" height="630" fill="url(#bgGradient)"/>

  <!-- Decorative ocean gradients -->
  <ellipse cx="1000" cy="150" rx="300" ry="200" fill="url(#oceanGradient)" opacity="0.4"/>
  <ellipse cx="200" cy="530" rx="250" ry="180" fill="url(#oceanGradient)" opacity="0.3"/>

  <!-- Wave patterns -->
  <path d="M 0 400 Q 300 350 600 400 T 1200 400 L 1200 630 L 0 630 Z" fill="#1E90A0" opacity="0.08"/>
  <path d="M 0 450 Q 250 420 500 450 T 1000 450 T 1200 450 L 1200 630 L 0 630 Z" fill="#4FD1C5" opacity="0.05"/>

  <!-- Caviar roe particles -->
  <circle cx="252.89580423933415" cy="139.41267546158497" r="2.8885336919389646" fill="#CFAE58" opacity="0.13943661324751946"/>
  <circle cx="317.0369939105733" cy="11.857532314153715" r="4.477863240800685" fill="#CFAE58" opacity="0.1832724525839345"/>
  <circle cx="681.7964326418488" cy="359.5608995113031" r="2.7200566185434756" fill="#CFAE58" opacity="0.12902753745549622"/>
  <circle cx="1106.314079990904" cy="495.5251826336294" r="3.827214869971156" fill="#CFAE58" opacity="0.1402264828597151"/>
  <circle cx="847.4488045704934" cy="273.33969742183245" r="4.827645031968447" fill="#CFAE58" opacity="0.19075050808338578"/>
  <circle cx="646.7852576926948" cy="422.5367444072463" r="5.738779449847603" fill="#CFAE58" opacity="0.24031852489587205"/>
  <circle cx="834.6539062849007" cy="115.41017703984762" r="3.4193571922104535" fill="#CFAE58" opacity="0.20059381497186257"/>
  <circle cx="1152.4865653263873" cy="191.87051868814063" r="2.8201563588183713" fill="#CFAE58" opacity="0.2055618727790372"/>
  <circle cx="75.47658401221291" cy="446.6096928751794" r="2.4357322426775703" fill="#CFAE58" opacity="0.2058346408902048"/>
  <circle cx="213.09936160667897" cy="238.94773157005926" r="4.26992982096321" fill="#CFAE58" opacity="0.11722836363299677"/>
  <circle cx="931.8779887218927" cy="86.95630225602547" r="3.909665405159802" fill="#CFAE58" opacity="0.24653833458157"/>
  <circle cx="785.9294635464388" cy="165.0726789836273" r="5.447030172026083" fill="#CFAE58" opacity="0.1727230171374236"/>
  <circle cx="1097.7021634617654" cy="626.7702754939521" r="2.5247241054327203" fill="#CFAE58" opacity="0.14648798521036355"/>
  <circle cx="1010.1328934021519" cy="538.8894563248515" r="2.4698386557090863" fill="#CFAE58" opacity="0.136660575481091"/>
  <circle cx="683.1455744252961" cy="554.3691531384162" r="5.277806105550808" fill="#CFAE58" opacity="0.11263578197050053"/>
  <circle cx="662.6191070577507" cy="182.93593267480026" r="2.8965377778409147" fill="#CFAE58" opacity="0.24907743726051396"/>
  <circle cx="485.7196170717888" cy="200.57554364280836" r="5.844578147078145" fill="#CFAE58" opacity="0.184023955342373"/>
  <circle cx="347.82517441397937" cy="12.251872616945645" r="2.226073385672805" fill="#CFAE58" opacity="0.1796590248236406"/>
  <circle cx="480.9186364218132" cy="116.93507185626245" r="2.7926204123562055" fill="#CFAE58" opacity="0.18218135657950418"/>
  <circle cx="826.5059076229468" cy="143.39692540231985" r="4.0682773856114816" fill="#CFAE58" opacity="0.12483803474878677"/>
  <circle cx="357.79608026816624" cy="32.076483241404276" r="3.2114382029158044" fill="#CFAE58" opacity="0.19288527132199654"/>
  <circle cx="221.9276884592941" cy="541.351381684099" r="3.433140127181675" fill="#CFAE58" opacity="0.2125346586320339"/>
  <circle cx="1158.146299038551" cy="525.9967682015856" r="5.9704484282191785" fill="#CFAE58" opacity="0.13144293041388372"/>
  <circle cx="1160.4933121019556" cy="454.13553022692855" r="5.331628609699922" fill="#CFAE58" opacity="0.22178766073734096"/>
  <circle cx="796.8135880919616" cy="563.614056435028" r="2.611242018437933" fill="#CFAE58" opacity="0.13168448722316045"/>
  <circle cx="159.77242463853668" cy="223.8822501198205" r="2.880726934768407" fill="#CFAE58" opacity="0.11166028575468263"/>
  <circle cx="283.5909022580628" cy="572.0075347543419" r="2.7478279989196714" fill="#CFAE58" opacity="0.20995085510067707"/>
  <circle cx="165.3074334701765" cy="409.0171735996777" r="3.0163244092611317" fill="#CFAE58" opacity="0.11822618191182407"/>
  <circle cx="1134.6805103141448" cy="563.0159096848992" r="3.7123834998410787" fill="#CFAE58" opacity="0.11175949479851689"/>
  <circle cx="798.4788647776553" cy="295.868011533516" r="5.380558986603406" fill="#CFAE58" opacity="0.14763009444598063"/>

  <!-- Border with glow -->
  <rect x="40" y="40" width="1120" height="550" fill="none" stroke="url(#goldGradient)" stroke-width="3" rx="12" filter="url(#softGlow)"/>

  <!-- Icon circle with premium background -->
  <circle cx="150" cy="200" r="75" fill="#CFAE58" opacity="0.15" filter="url(#softGlow)"/>
  <circle cx="150" cy="200" r="70" fill="#CFAE58" opacity="0.25"/>
  <text x="150" y="235" font-size="90" text-anchor="middle" fill="#CFAE58" filter="url(#glow)">📰</text>

  <!-- Premium logo (crown) with enhanced styling -->
  <g transform="translate(100, 70)">
    <path d="M 30 20 L 40 35 L 35 35 Z M 50 15 L 60 35 L 45 35 Z M 65 20 L 75 35 L 70 35 Z M 30 35 L 75 35 L 73 45 L 32 45 Z"
          fill="url(#goldGradient)" filter="url(#glow)" stroke="#B89842" stroke-width="0.5"/>
    <circle cx="40" cy="25" r="3" fill="#4FD1C5" filter="url(#glow)"/>
    <circle cx="52" cy="20" r="4" fill="#4FD1C5" filter="url(#glow)"/>
    <circle cx="65" cy="25" r="3" fill="#4FD1C5" filter="url(#glow)"/>
  </g>

  <!-- Title with shadow -->
  <text x="280" y="180" font-family="Georgia, serif" font-size="72" font-weight="bold"
        fill="url(#goldGradient)" filter="url(#shadow)">News & Insights</text>

  <!-- Subtitle with subtle glow -->
  <text x="280" y="230" font-family="Arial, sans-serif" font-size="36"
        fill="#D6DEE6" opacity="0.95" filter="url(#softGlow)">Updates from Royal Keta Hatchery</text>

  <!-- Brand name with letter spacing -->
  <text x="280" y="300" font-family="Georgia, serif" font-size="32" font-weight="bold"
        fill="#CFAE58" letter-spacing="4" filter="url(#glow)">ROYAL KETA</text>

  <!-- Russian tagline -->
  <text x="280" y="340" font-family="Arial, sans-serif" font-size="22" font-style="italic"
        fill="#8B95A1" opacity="0.8">От икринки к королевской</text>

  <!-- Location -->
  <text x="280" y="380" font-family="Arial, sans-serif" font-size="20"
        fill="#8B95A1" opacity="0.7">Невельский район, Сахалин</text>

  <!-- Website with glow -->
  <text x="100" y="570" font-family="Arial, sans-serif" font-size="30" font-weight="bold"
        fill="#4FD1C5" filter="url(#glow)">royalketa.com</text>

  <!-- Enhanced decorative salmon silhouette -->
  <g transform="translate(950, 480)" opacity="0.2" filter="url(#softGlow)">
    <ellipse cx="0" cy="0" rx="90" ry="35" fill="#CFAE58"/>
    <path d="M 90 0 L 120 -18 L 130 0 L 120 18 Z" fill="#CFAE58"/>
    <path d="M -25 -35 L 0 -45 L 25 -35 Z" fill="#CFAE58"/>
    <ellipse cx="-50" cy="0" rx="15" ry="12" fill="#0B0F14"/>
  </g>

  <!-- Additional decorative caviar clusters -->
  <g opacity="0.2">
    <circle cx="1050" cy="120" r="6" fill="#CFAE58"/>
    <circle cx="1065" cy="115" r="5" fill="#CFAE58"/>
    <circle cx="1058" cy="130" r="4" fill="#CFAE58"/>
    <circle cx="150" cy="500" r="5" fill="#4FD1C5"/>
    <circle cx="165" cy="508" r="4" fill="#4FD1C5"/>
    <circle cx="140" cy="512" r="5" fill="#4FD1C5"/>
  </g>
</svg>