<svg width="1200" height="630" xmlns="http://www.w3.org/2000/svg">
  <defs>
    <linearGradient id="bgGradient" x1="0%" y1="0%" x2="100%" y2="100%">
      <stop offset="0%" style="stop-color:#0B0F14;stop-opacity:1" />
      <stop offset="50%" style="stop-color:#0F1619;stop-opacity:1" />
      <stop offset="100%" style="stop-color:#0F1922;stop-opacity:1" />
    </linearGradient>
    <linearGradient id="goldGradient" x1="0%" y1="0%" x2="100%" y2="0%">
      <stop offset="0%" style="stop-color:#E5D596;stop-opacity:1" />
      <stop offset="50%" style="stop-color:#CFAE58;stop-opacity:1" />
      <stop offset="100%" style="stop-color:#B89842;stop-opacity:1" />
    </linearGradient>
    <radialGradient id="oceanGradient" cx="50%" cy="50%" r="50%">
      <stop offset="0%" style="stop-color:#4FD1C5;stop-opacity:0.3" />
      <stop offset="100%" style="stop-color:#1E90A0;stop-opacity:0.05" />
    </radialGradient>
    <filter id="glow">
      <feGaussianBlur stdDeviation="5" result="coloredBlur"/>
      <feMerge>
        <feMergeNode in="coloredBlur"/>
        <feMergeNode in="SourceGraphic"/>
      </feMerge>
    </filter>
    <filter id="softGlow">
      <feGaussianBlur stdDeviation="8" result="coloredBlur"/>
      <feMerge>
        <feMergeNode in="coloredBlur"/>
        <feMergeNode in="SourceGraphic"/>
      </feMerge>
    </filter>
    <filter id="shadow">
      <feDropShadow dx="0" dy="4" stdDeviation="8" flood-color="#000000" flood-opacity="0.5"/>
    </filter>
  </defs>

  <!-- Background -->
  <rect width="1200" height="630" fill="url(#bgGradient)"/>

  <!-- Decorative ocean gradients -->
  <ellipse cx="1000" cy="150" rx="300" ry="200" fill="url(#oceanGradient)" opacity="0.4"/>
  <ellipse cx="200" cy="530" rx="250" ry="180" fill="url(#oceanGradient)" opacity="0.3"/>

  <!-- Wave patterns -->
  <path d="M 0 400 Q 300 350 600 400 T 1200 400 L 1200 630 L 0 630 Z" fill="#1E90A0" opacity="0.08"/>
  <path d="M 0 450 Q 250 420 500 450 T 1000 450 T 1200 450 L 1200 630 L 0 630 Z" fill="#4FD1C5" opacity="0.05"/>

  <!-- Caviar roe particles -->
  <circle cx="633.579291698148" cy="446.64728537352516" r="4.917012469661292" fill="#CFAE58" opacity="0.23528988797951433"/>
  <circle cx="261.56736664211735" cy="393.3426707259681" r="2.9312579995121055" fill="#CFAE58" opacity="0.21006942015983904"/>
  <circle cx="713.2903712294233" cy="3.63982141175899" r="2.5812796286949045" fill="#CFAE58" opacity="0.138223380976636"/>
  <circle cx="1129.4587014157105" cy="346.77020436458537" r="2.105116118920237" fill="#CFAE58" opacity="0.14605654660508252"/>
  <circle cx="402.8449225139518" cy="393.77881898842423" r="3.2746065340549766" fill="#CFAE58" opacity="0.17073426012627302"/>
  <circle cx="760.2671446885757" cy="591.2542909741733" r="4.022381222103601" fill="#CFAE58" opacity="0.12241218700800394"/>
  <circle cx="766.8398406675288" cy="301.7194388252806" r="4.530622230784945" fill="#CFAE58" opacity="0.2353198273304346"/>
  <circle cx="410.9654996562744" cy="25.762393545677075" r="5.38914514563057" fill="#CFAE58" opacity="0.18822068450984114"/>
  <circle cx="385.58251050008573" cy="363.330921554263" r="4.602123929966312" fill="#CFAE58" opacity="0.1907335642683167"/>
  <circle cx="161.7279224993606" cy="611.8423437359626" r="5.43541574805623" fill="#CFAE58" opacity="0.19165433192498726"/>
  <circle cx="611.2044486154249" cy="341.1998505428124" r="5.251117156504373" fill="#CFAE58" opacity="0.13784105364231508"/>
  <circle cx="1018.484156815628" cy="562.5680361194438" r="4.768311286254676" fill="#CFAE58" opacity="0.22005856512053099"/>
  <circle cx="422.66995751096505" cy="530.9261812022775" r="2.333537863205862" fill="#CFAE58" opacity="0.10005469491813407"/>
  <circle cx="144.66362646448943" cy="541.4195250707553" r="3.634751637017575" fill="#CFAE58" opacity="0.15604609701915917"/>
  <circle cx="565.606686229764" cy="390.6147774491612" r="3.347465366451548" fill="#CFAE58" opacity="0.1925426185217783"/>
  <circle cx="1010.3492417975888" cy="58.73523360181259" r="5.548881596827383" fill="#CFAE58" opacity="0.1303892632335652"/>
  <circle cx="1179.3686310410899" cy="383.7821210775124" r="3.348511319872289" fill="#CFAE58" opacity="0.1787896626483732"/>
  <circle cx="823.475289112135" cy="155.07309034144794" r="3.8530654427006326" fill="#CFAE58" opacity="0.24258329384956126"/>
  <circle cx="86.27709280263458" cy="547.3593671222065" r="5.5433412469782075" fill="#CFAE58" opacity="0.22841424174956818"/>
  <circle cx="193.19759356471965" cy="95.44708177835892" r="3.434345402198881" fill="#CFAE58" opacity="0.2267869230406726"/>
  <circle cx="175.88219391390635" cy="628.5739667738725" r="4.8720981725360515" fill="#CFAE58" opacity="0.20213959041863566"/>
  <circle cx="979.1727714537194" cy="57.752454315775886" r="2.4358567529210173" fill="#CFAE58" opacity="0.15055197515743923"/>
  <circle cx="291.61941311253787" cy="183.5778517615246" r="3.0769244139292624" fill="#CFAE58" opacity="0.15169808275377678"/>
  <circle cx="190.7571608575794" cy="511.29887471177454" r="5.084249083082535" fill="#CFAE58" opacity="0.20116462079074296"/>
  <circle cx="953.2957985714277" cy="142.94378651828427" r="4.263819876428601" fill="#CFAE58" opacity="0.16154329953697794"/>
  <circle cx="118.92097631663097" cy="569.329538552898" r="4.050559753975482" fill="#CFAE58" opacity="0.17736000197868762"/>
  <circle cx="669.2362602767181" cy="418.04054038656" r="3.5441180575374878" fill="#CFAE58" opacity="0.11448751974689977"/>
  <circle cx="928.6943058228136" cy="360.4443787391245" r="3.3805189359850347" fill="#CFAE58" opacity="0.1767466774795477"/>
  <circle cx="370.79795621312553" cy="347.89658300209584" r="2.973582737234077" fill="#CFAE58" opacity="0.193219444251369"/>
  <circle cx="472.2710283044247" cy="357.3148933776955" r="3.9339092042412345" fill="#CFAE58" opacity="0.19077193328075198"/>

  <!-- Border with glow -->
  <rect x="40" y="40" width="1120" height="550" fill="none" stroke="url(#goldGradient)" stroke-width="3" rx="12" filter="url(#softGlow)"/>

  <!-- Icon circle with premium background -->
  <circle cx="150" cy="200" r="75" fill="#CFAE58" opacity="0.15" filter="url(#softGlow)"/>
  <circle cx="150" cy="200" r="70" fill="#CFAE58" opacity="0.25"/>
  <text x="150" y="235" font-size="90" text-anchor="middle" fill="#CFAE58" filter="url(#glow)">📰</text>

  <!-- Premium logo (crown) with enhanced styling -->
  <g transform="translate(100, 70)">
    <path d="M 30 20 L 40 35 L 35 35 Z M 50 15 L 60 35 L 45 35 Z M 65 20 L 75 35 L 70 35 Z M 30 35 L 75 35 L 73 45 L 32 45 Z"
          fill="url(#goldGradient)" filter="url(#glow)" stroke="#B89842" stroke-width="0.5"/>
    <circle cx="40" cy="25" r="3" fill="#4FD1C5" filter="url(#glow)"/>
    <circle cx="52" cy="20" r="4" fill="#4FD1C5" filter="url(#glow)"/>
    <circle cx="65" cy="25" r="3" fill="#4FD1C5" filter="url(#glow)"/>
  </g>

  <!-- Title with shadow -->
  <text x="280" y="180" font-family="Georgia, serif" font-size="72" font-weight="bold"
        fill="url(#goldGradient)" filter="url(#shadow)">News &amp; Insights</text>

  <!-- Subtitle with subtle glow -->
  <text x="280" y="230" font-family="Arial, sans-serif" font-size="36"
        fill="#D6DEE6" opacity="0.95" filter="url(#softGlow)">Updates from Royal Keta Hatchery</text>

  <!-- Brand name with letter spacing -->
  <text x="280" y="300" font-family="Georgia, serif" font-size="32" font-weight="bold"
        fill="#CFAE58" letter-spacing="4" filter="url(#glow)">ROYAL KETA</text>

  <!-- Russian tagline -->
  <text x="280" y="340" font-family="Arial, sans-serif" font-size="22" font-style="italic"
        fill="#8B95A1" opacity="0.8">От икринки к королевской</text>

  <!-- Location -->
  <text x="280" y="380" font-family="Arial, sans-serif" font-size="20"
        fill="#8B95A1" opacity="0.7">Невельский район, Сахалин</text>

  <!-- Website with glow -->
  <text x="100" y="570" font-family="Arial, sans-serif" font-size="30" font-weight="bold"
        fill="#4FD1C5" filter="url(#glow)">royalketa.com</text>

  <!-- Enhanced decorative salmon silhouette -->
  <g transform="translate(950, 480)" opacity="0.2" filter="url(#softGlow)">
    <ellipse cx="0" cy="0" rx="90" ry="35" fill="#CFAE58"/>
    <path d="M 90 0 L 120 -18 L 130 0 L 120 18 Z" fill="#CFAE58"/>
    <path d="M -25 -35 L 0 -45 L 25 -35 Z" fill="#CFAE58"/>
    <ellipse cx="-50" cy="0" rx="15" ry="12" fill="#0B0F14"/>
  </g>

  <!-- Additional decorative caviar clusters -->
  <g opacity="0.2">
    <circle cx="1050" cy="120" r="6" fill="#CFAE58"/>
    <circle cx="1065" cy="115" r="5" fill="#CFAE58"/>
    <circle cx="1058" cy="130" r="4" fill="#CFAE58"/>
    <circle cx="150" cy="500" r="5" fill="#4FD1C5"/>
    <circle cx="165" cy="508" r="4" fill="#4FD1C5"/>
    <circle cx="140" cy="512" r="5" fill="#4FD1C5"/>
  </g>
</svg>