<svg width="1200" height="630" xmlns="http://www.w3.org/2000/svg">
  <defs>
    <linearGradient id="bgGradient" x1="0%" y1="0%" x2="100%" y2="100%">
      <stop offset="0%" style="stop-color:#0B0F14;stop-opacity:1" />
      <stop offset="50%" style="stop-color:#0F1619;stop-opacity:1" />
      <stop offset="100%" style="stop-color:#0F1922;stop-opacity:1" />
    </linearGradient>
    <linearGradient id="goldGradient" x1="0%" y1="0%" x2="100%" y2="0%">
      <stop offset="0%" style="stop-color:#E5D596;stop-opacity:1" />
      <stop offset="50%" style="stop-color:#CFAE58;stop-opacity:1" />
      <stop offset="100%" style="stop-color:#B89842;stop-opacity:1" />
    </linearGradient>
    <radialGradient id="oceanGradient" cx="50%" cy="50%" r="50%">
      <stop offset="0%" style="stop-color:#4FD1C5;stop-opacity:0.3" />
      <stop offset="100%" style="stop-color:#1E90A0;stop-opacity:0.05" />
    </radialGradient>
    <filter id="glow">
      <feGaussianBlur stdDeviation="5" result="coloredBlur"/>
      <feMerge>
        <feMergeNode in="coloredBlur"/>
        <feMergeNode in="SourceGraphic"/>
      </feMerge>
    </filter>
    <filter id="softGlow">
      <feGaussianBlur stdDeviation="8" result="coloredBlur"/>
      <feMerge>
        <feMergeNode in="coloredBlur"/>
        <feMergeNode in="SourceGraphic"/>
      </feMerge>
    </filter>
    <filter id="shadow">
      <feDropShadow dx="0" dy="4" stdDeviation="8" flood-color="#000000" flood-opacity="0.5"/>
    </filter>
  </defs>

  <!-- Background -->
  <rect width="1200" height="630" fill="url(#bgGradient)"/>

  <!-- Decorative ocean gradients -->
  <ellipse cx="1000" cy="150" rx="300" ry="200" fill="url(#oceanGradient)" opacity="0.4"/>
  <ellipse cx="200" cy="530" rx="250" ry="180" fill="url(#oceanGradient)" opacity="0.3"/>

  <!-- Wave patterns -->
  <path d="M 0 400 Q 300 350 600 400 T 1200 400 L 1200 630 L 0 630 Z" fill="#1E90A0" opacity="0.08"/>
  <path d="M 0 450 Q 250 420 500 450 T 1000 450 T 1200 450 L 1200 630 L 0 630 Z" fill="#4FD1C5" opacity="0.05"/>

  <!-- Caviar roe particles -->
  <circle cx="1186.4352836272958" cy="400.5153662649433" r="5.250641613604059" fill="#CFAE58" opacity="0.16714917422557185"/>
  <circle cx="639.7891284509975" cy="147.68860214874348" r="5.266395757808912" fill="#CFAE58" opacity="0.15332726319661838"/>
  <circle cx="465.5457847029769" cy="284.22598659989217" r="3.951230251807077" fill="#CFAE58" opacity="0.20371518870512753"/>
  <circle cx="548.1486400969973" cy="38.965153391809544" r="3.0904241780288837" fill="#CFAE58" opacity="0.24959188774117919"/>
  <circle cx="608.8910911508386" cy="431.20493241832395" r="4.73425507571527" fill="#CFAE58" opacity="0.24432718099045675"/>
  <circle cx="802.2023608267776" cy="57.84617238487698" r="5.224808429837758" fill="#CFAE58" opacity="0.11109076964638881"/>
  <circle cx="161.25812469476938" cy="287.04831216310447" r="3.3282775948767958" fill="#CFAE58" opacity="0.16244483519375966"/>
  <circle cx="707.2117797897425" cy="374.8017568714028" r="2.929044347071982" fill="#CFAE58" opacity="0.20056263268463376"/>
  <circle cx="924.8766423811039" cy="170.2718338915405" r="4.712583150516097" fill="#CFAE58" opacity="0.16005949774985248"/>
  <circle cx="487.8438430085813" cy="397.7677000948779" r="3.990719658938403" fill="#CFAE58" opacity="0.13878164195309967"/>
  <circle cx="1164.3064170146267" cy="616.3022670540557" r="2.398954442744298" fill="#CFAE58" opacity="0.10148102427194045"/>
  <circle cx="186.85658992847064" cy="489.8271151729758" r="5.286223505679274" fill="#CFAE58" opacity="0.24344580556810802"/>
  <circle cx="442.95408334187545" cy="340.2071201974451" r="2.886233294335324" fill="#CFAE58" opacity="0.16652065685516673"/>
  <circle cx="782.3447137220882" cy="136.00614090075638" r="3.663867465910732" fill="#CFAE58" opacity="0.15784872617874737"/>
  <circle cx="611.3650619971243" cy="408.7673120775317" r="5.702095882222696" fill="#CFAE58" opacity="0.12244562670117798"/>
  <circle cx="1072.8342792927062" cy="124.83219158818486" r="4.632741209294365" fill="#CFAE58" opacity="0.16991964449938474"/>
  <circle cx="10.779437629359556" cy="222.70786534916522" r="3.6099187121376746" fill="#CFAE58" opacity="0.23818395444908733"/>
  <circle cx="353.56990528623015" cy="435.812900485853" r="5.724212207156556" fill="#CFAE58" opacity="0.23497256141253567"/>
  <circle cx="414.626071116934" cy="609.2330826761727" r="4.126504018694326" fill="#CFAE58" opacity="0.2483788104733167"/>
  <circle cx="1020.009995655801" cy="302.9510623917306" r="3.4991164159831456" fill="#CFAE58" opacity="0.24452117362306308"/>
  <circle cx="96.46550292063426" cy="109.57028373329518" r="3.390200318617989" fill="#CFAE58" opacity="0.24836978083128866"/>
  <circle cx="746.4756818169133" cy="148.89455707593507" r="5.715233472127849" fill="#CFAE58" opacity="0.12168889559767349"/>
  <circle cx="1144.9766973986475" cy="198.58300445529068" r="4.5548215051036065" fill="#CFAE58" opacity="0.17786104919993484"/>
  <circle cx="120.44967347037839" cy="80.51404802160354" r="3.4729787842442548" fill="#CFAE58" opacity="0.23684602841913993"/>
  <circle cx="281.42460049221387" cy="507.928330731662" r="4.093486531806229" fill="#CFAE58" opacity="0.23551590457897092"/>
  <circle cx="759.1558117135717" cy="395.52494956542984" r="3.4078747543261" fill="#CFAE58" opacity="0.196515864746336"/>
  <circle cx="804.9186705155748" cy="454.6418848105855" r="4.130628398308356" fill="#CFAE58" opacity="0.22981766332568065"/>
  <circle cx="548.6352150405972" cy="513.4774083662468" r="3.4046530654448945" fill="#CFAE58" opacity="0.19442996068961582"/>
  <circle cx="782.0143271779672" cy="135.09547958588334" r="3.2902878572162786" fill="#CFAE58" opacity="0.23034306871779442"/>
  <circle cx="724.7830993349106" cy="571.1785525832319" r="4.892455480250805" fill="#CFAE58" opacity="0.10201765278759548"/>

  <!-- Border with glow -->
  <rect x="40" y="40" width="1120" height="550" fill="none" stroke="url(#goldGradient)" stroke-width="3" rx="12" filter="url(#softGlow)"/>

  <!-- Icon circle with premium background -->
  <circle cx="150" cy="200" r="75" fill="#CFAE58" opacity="0.15" filter="url(#softGlow)"/>
  <circle cx="150" cy="200" r="70" fill="#CFAE58" opacity="0.25"/>
  <text x="150" y="235" font-size="90" text-anchor="middle" fill="#CFAE58" filter="url(#glow)">📰</text>

  <!-- Premium logo (crown) with enhanced styling -->
  <g transform="translate(100, 70)">
    <path d="M 30 20 L 40 35 L 35 35 Z M 50 15 L 60 35 L 45 35 Z M 65 20 L 75 35 L 70 35 Z M 30 35 L 75 35 L 73 45 L 32 45 Z"
          fill="url(#goldGradient)" filter="url(#glow)" stroke="#B89842" stroke-width="0.5"/>
    <circle cx="40" cy="25" r="3" fill="#4FD1C5" filter="url(#glow)"/>
    <circle cx="52" cy="20" r="4" fill="#4FD1C5" filter="url(#glow)"/>
    <circle cx="65" cy="25" r="3" fill="#4FD1C5" filter="url(#glow)"/>
  </g>

  <!-- Title with shadow -->
  <text x="280" y="180" font-family="Georgia, serif" font-size="72" font-weight="bold"
        fill="url(#goldGradient)" filter="url(#shadow)">News &amp; Insights</text>

  <!-- Subtitle with subtle glow -->
  <text x="280" y="230" font-family="Arial, sans-serif" font-size="36"
        fill="#D6DEE6" opacity="0.95" filter="url(#softGlow)">Updates from Royal Keta Hatchery</text>

  <!-- Brand name with letter spacing -->
  <text x="280" y="300" font-family="Georgia, serif" font-size="32" font-weight="bold"
        fill="#CFAE58" letter-spacing="4" filter="url(#glow)">ROYAL KETA</text>

  <!-- Russian tagline -->
  <text x="280" y="340" font-family="Arial, sans-serif" font-size="22" font-style="italic"
        fill="#8B95A1" opacity="0.8">От икринки к королевской</text>

  <!-- Location -->
  <text x="280" y="380" font-family="Arial, sans-serif" font-size="20"
        fill="#8B95A1" opacity="0.7">Невельский район, Сахалин</text>

  <!-- Website with glow -->
  <text x="100" y="570" font-family="Arial, sans-serif" font-size="30" font-weight="bold"
        fill="#4FD1C5" filter="url(#glow)">royalketa.com</text>

  <!-- Enhanced decorative salmon silhouette -->
  <g transform="translate(950, 480)" opacity="0.2" filter="url(#softGlow)">
    <ellipse cx="0" cy="0" rx="90" ry="35" fill="#CFAE58"/>
    <path d="M 90 0 L 120 -18 L 130 0 L 120 18 Z" fill="#CFAE58"/>
    <path d="M -25 -35 L 0 -45 L 25 -35 Z" fill="#CFAE58"/>
    <ellipse cx="-50" cy="0" rx="15" ry="12" fill="#0B0F14"/>
  </g>

  <!-- Additional decorative caviar clusters -->
  <g opacity="0.2">
    <circle cx="1050" cy="120" r="6" fill="#CFAE58"/>
    <circle cx="1065" cy="115" r="5" fill="#CFAE58"/>
    <circle cx="1058" cy="130" r="4" fill="#CFAE58"/>
    <circle cx="150" cy="500" r="5" fill="#4FD1C5"/>
    <circle cx="165" cy="508" r="4" fill="#4FD1C5"/>
    <circle cx="140" cy="512" r="5" fill="#4FD1C5"/>
  </g>
</svg>