<svg width="1200" height="630" xmlns="http://www.w3.org/2000/svg">
  <defs>
    <linearGradient id="bgGradient" x1="0%" y1="0%" x2="100%" y2="100%">
      <stop offset="0%" style="stop-color:#0B0F14;stop-opacity:1" />
      <stop offset="50%" style="stop-color:#0F1619;stop-opacity:1" />
      <stop offset="100%" style="stop-color:#0F1922;stop-opacity:1" />
    </linearGradient>
    <linearGradient id="goldGradient" x1="0%" y1="0%" x2="100%" y2="0%">
      <stop offset="0%" style="stop-color:#E5D596;stop-opacity:1" />
      <stop offset="50%" style="stop-color:#CFAE58;stop-opacity:1" />
      <stop offset="100%" style="stop-color:#B89842;stop-opacity:1" />
    </linearGradient>
    <radialGradient id="oceanGradient" cx="50%" cy="50%" r="50%">
      <stop offset="0%" style="stop-color:#4FD1C5;stop-opacity:0.3" />
      <stop offset="100%" style="stop-color:#1E90A0;stop-opacity:0.05" />
    </radialGradient>
    <filter id="glow">
      <feGaussianBlur stdDeviation="5" result="coloredBlur"/>
      <feMerge>
        <feMergeNode in="coloredBlur"/>
        <feMergeNode in="SourceGraphic"/>
      </feMerge>
    </filter>
    <filter id="softGlow">
      <feGaussianBlur stdDeviation="8" result="coloredBlur"/>
      <feMerge>
        <feMergeNode in="coloredBlur"/>
        <feMergeNode in="SourceGraphic"/>
      </feMerge>
    </filter>
    <filter id="shadow">
      <feDropShadow dx="0" dy="4" stdDeviation="8" flood-color="#000000" flood-opacity="0.5"/>
    </filter>
  </defs>

  <!-- Background -->
  <rect width="1200" height="630" fill="url(#bgGradient)"/>

  <!-- Decorative ocean gradients -->
  <ellipse cx="1000" cy="150" rx="300" ry="200" fill="url(#oceanGradient)" opacity="0.4"/>
  <ellipse cx="200" cy="530" rx="250" ry="180" fill="url(#oceanGradient)" opacity="0.3"/>

  <!-- Wave patterns -->
  <path d="M 0 400 Q 300 350 600 400 T 1200 400 L 1200 630 L 0 630 Z" fill="#1E90A0" opacity="0.08"/>
  <path d="M 0 450 Q 250 420 500 450 T 1000 450 T 1200 450 L 1200 630 L 0 630 Z" fill="#4FD1C5" opacity="0.05"/>

  <!-- Caviar roe particles -->
  <circle cx="366.6938548908627" cy="208.57369006872173" r="5.956379368551749" fill="#CFAE58" opacity="0.13105088973270235"/>
  <circle cx="645.0392605639247" cy="102.94305395132099" r="4.9468808711312064" fill="#CFAE58" opacity="0.18243739190408625"/>
  <circle cx="771.6922159491481" cy="307.14730010759104" r="4.680188394907683" fill="#CFAE58" opacity="0.24187591337116482"/>
  <circle cx="32.19342797375164" cy="313.77250114293656" r="4.717888274576657" fill="#CFAE58" opacity="0.10909862280576883"/>
  <circle cx="1038.0381340253039" cy="435.74653456659405" r="2.7014027843393547" fill="#CFAE58" opacity="0.24517988112345007"/>
  <circle cx="1050.967774019468" cy="360.37898165670947" r="5.46054109789802" fill="#CFAE58" opacity="0.22657568913772308"/>
  <circle cx="850.5204230841764" cy="372.1068460770414" r="2.7683143977287643" fill="#CFAE58" opacity="0.2212474240658615"/>
  <circle cx="983.3241719910586" cy="291.57523741380993" r="3.348288509934226" fill="#CFAE58" opacity="0.12157264981950947"/>
  <circle cx="1190.7475303580643" cy="141.01626159184394" r="4.142847207258453" fill="#CFAE58" opacity="0.10553480487595149"/>
  <circle cx="490.9027447570345" cy="324.3577571196284" r="2.4782080462765745" fill="#CFAE58" opacity="0.10829057531282123"/>
  <circle cx="1125.1408879080711" cy="41.302183621865176" r="2.129078821376756" fill="#CFAE58" opacity="0.2015955634819091"/>
  <circle cx="836.6812836539524" cy="286.05427547158286" r="2.2433752004438454" fill="#CFAE58" opacity="0.15857991150141895"/>
  <circle cx="329.86366722965255" cy="209.2849382515522" r="2.8764153332685782" fill="#CFAE58" opacity="0.1152732932276985"/>
  <circle cx="683.9153341267278" cy="141.40392295106855" r="3.1414470106710586" fill="#CFAE58" opacity="0.10995003659152149"/>
  <circle cx="197.5670031235702" cy="608.4862334729182" r="5.238212142790866" fill="#CFAE58" opacity="0.213033598143529"/>
  <circle cx="105.8537147538877" cy="598.0851032939498" r="2.0187162844220907" fill="#CFAE58" opacity="0.21907799642154258"/>
  <circle cx="711.35157081028" cy="611.4237812075223" r="4.140536262278206" fill="#CFAE58" opacity="0.11476120495256464"/>
  <circle cx="1061.963431869348" cy="307.04818050700936" r="4.277328520941319" fill="#CFAE58" opacity="0.13384838398194615"/>
  <circle cx="1101.0866060554945" cy="531.9440206433925" r="4.565254492543628" fill="#CFAE58" opacity="0.12352857581647116"/>
  <circle cx="91.63235995574186" cy="472.52185336679986" r="3.9648164179086614" fill="#CFAE58" opacity="0.23517831603799472"/>
  <circle cx="937.0779079694067" cy="207.85500029795" r="2.163532066928574" fill="#CFAE58" opacity="0.2258256888538964"/>
  <circle cx="597.3572214977071" cy="43.12826915429342" r="4.6199010783277235" fill="#CFAE58" opacity="0.15605369649141998"/>
  <circle cx="808.8613028827608" cy="185.70140047021513" r="2.3420810441012296" fill="#CFAE58" opacity="0.2233108499705275"/>
  <circle cx="954.2482920105535" cy="351.2276759697542" r="5.744428475493885" fill="#CFAE58" opacity="0.19749099813591178"/>
  <circle cx="984.7942269290895" cy="468.51485458843734" r="5.31277309442418" fill="#CFAE58" opacity="0.11230019023220142"/>
  <circle cx="476.63750350363955" cy="491.17142555727435" r="5.223234378628371" fill="#CFAE58" opacity="0.21301009866927206"/>
  <circle cx="578.4484091826656" cy="297.04523205764514" r="2.3121481242777895" fill="#CFAE58" opacity="0.23007652843556992"/>
  <circle cx="1000.0607166621674" cy="495.08340910618006" r="5.610443106655347" fill="#CFAE58" opacity="0.1404224351108079"/>
  <circle cx="1179.0935533523264" cy="8.351831773991975" r="3.6317751715071895" fill="#CFAE58" opacity="0.13819607195216246"/>
  <circle cx="1164.8454408374766" cy="351.6007538343571" r="2.8393842054591762" fill="#CFAE58" opacity="0.2495292770908533"/>

  <!-- Border with glow -->
  <rect x="40" y="40" width="1120" height="550" fill="none" stroke="url(#goldGradient)" stroke-width="3" rx="12" filter="url(#softGlow)"/>

  <!-- Icon circle with premium background -->
  <circle cx="150" cy="200" r="75" fill="#CFAE58" opacity="0.15" filter="url(#softGlow)"/>
  <circle cx="150" cy="200" r="70" fill="#CFAE58" opacity="0.25"/>
  <text x="150" y="235" font-size="90" text-anchor="middle" fill="#CFAE58" filter="url(#glow)">📰</text>

  <!-- Premium logo (crown) with enhanced styling -->
  <g transform="translate(100, 70)">
    <path d="M 30 20 L 40 35 L 35 35 Z M 50 15 L 60 35 L 45 35 Z M 65 20 L 75 35 L 70 35 Z M 30 35 L 75 35 L 73 45 L 32 45 Z"
          fill="url(#goldGradient)" filter="url(#glow)" stroke="#B89842" stroke-width="0.5"/>
    <circle cx="40" cy="25" r="3" fill="#4FD1C5" filter="url(#glow)"/>
    <circle cx="52" cy="20" r="4" fill="#4FD1C5" filter="url(#glow)"/>
    <circle cx="65" cy="25" r="3" fill="#4FD1C5" filter="url(#glow)"/>
  </g>

  <!-- Title with shadow -->
  <text x="280" y="180" font-family="Georgia, serif" font-size="72" font-weight="bold"
        fill="url(#goldGradient)" filter="url(#shadow)">News &amp; Insights</text>

  <!-- Subtitle with subtle glow -->
  <text x="280" y="230" font-family="Arial, sans-serif" font-size="36"
        fill="#D6DEE6" opacity="0.95" filter="url(#softGlow)">Updates from Royal Keta Hatchery</text>

  <!-- Brand name with letter spacing -->
  <text x="280" y="300" font-family="Georgia, serif" font-size="32" font-weight="bold"
        fill="#CFAE58" letter-spacing="4" filter="url(#glow)">ROYAL KETA</text>

  <!-- Russian tagline -->
  <text x="280" y="340" font-family="Arial, sans-serif" font-size="22" font-style="italic"
        fill="#8B95A1" opacity="0.8">От икринки к королевской</text>

  <!-- Location -->
  <text x="280" y="380" font-family="Arial, sans-serif" font-size="20"
        fill="#8B95A1" opacity="0.7">Невельский район, Сахалин</text>

  <!-- Website with glow -->
  <text x="100" y="570" font-family="Arial, sans-serif" font-size="30" font-weight="bold"
        fill="#4FD1C5" filter="url(#glow)">royalketa.com</text>

  <!-- Enhanced decorative salmon silhouette -->
  <g transform="translate(950, 480)" opacity="0.2" filter="url(#softGlow)">
    <ellipse cx="0" cy="0" rx="90" ry="35" fill="#CFAE58"/>
    <path d="M 90 0 L 120 -18 L 130 0 L 120 18 Z" fill="#CFAE58"/>
    <path d="M -25 -35 L 0 -45 L 25 -35 Z" fill="#CFAE58"/>
    <ellipse cx="-50" cy="0" rx="15" ry="12" fill="#0B0F14"/>
  </g>

  <!-- Additional decorative caviar clusters -->
  <g opacity="0.2">
    <circle cx="1050" cy="120" r="6" fill="#CFAE58"/>
    <circle cx="1065" cy="115" r="5" fill="#CFAE58"/>
    <circle cx="1058" cy="130" r="4" fill="#CFAE58"/>
    <circle cx="150" cy="500" r="5" fill="#4FD1C5"/>
    <circle cx="165" cy="508" r="4" fill="#4FD1C5"/>
    <circle cx="140" cy="512" r="5" fill="#4FD1C5"/>
  </g>
</svg>