<svg width="1200" height="630" xmlns="http://www.w3.org/2000/svg">
  <defs>
    <linearGradient id="bgGradient" x1="0%" y1="0%" x2="100%" y2="100%">
      <stop offset="0%" style="stop-color:#0B0F14;stop-opacity:1" />
      <stop offset="50%" style="stop-color:#0F1619;stop-opacity:1" />
      <stop offset="100%" style="stop-color:#0F1922;stop-opacity:1" />
    </linearGradient>
    <linearGradient id="goldGradient" x1="0%" y1="0%" x2="100%" y2="0%">
      <stop offset="0%" style="stop-color:#E5D596;stop-opacity:1" />
      <stop offset="50%" style="stop-color:#CFAE58;stop-opacity:1" />
      <stop offset="100%" style="stop-color:#B89842;stop-opacity:1" />
    </linearGradient>
    <radialGradient id="oceanGradient" cx="50%" cy="50%" r="50%">
      <stop offset="0%" style="stop-color:#4FD1C5;stop-opacity:0.3" />
      <stop offset="100%" style="stop-color:#1E90A0;stop-opacity:0.05" />
    </radialGradient>
    <filter id="glow">
      <feGaussianBlur stdDeviation="5" result="coloredBlur"/>
      <feMerge>
        <feMergeNode in="coloredBlur"/>
        <feMergeNode in="SourceGraphic"/>
      </feMerge>
    </filter>
    <filter id="softGlow">
      <feGaussianBlur stdDeviation="8" result="coloredBlur"/>
      <feMerge>
        <feMergeNode in="coloredBlur"/>
        <feMergeNode in="SourceGraphic"/>
      </feMerge>
    </filter>
    <filter id="shadow">
      <feDropShadow dx="0" dy="4" stdDeviation="8" flood-color="#000000" flood-opacity="0.5"/>
    </filter>
  </defs>

  <!-- Background -->
  <rect width="1200" height="630" fill="url(#bgGradient)"/>

  <!-- Decorative ocean gradients -->
  <ellipse cx="1000" cy="150" rx="300" ry="200" fill="url(#oceanGradient)" opacity="0.4"/>
  <ellipse cx="200" cy="530" rx="250" ry="180" fill="url(#oceanGradient)" opacity="0.3"/>

  <!-- Wave patterns -->
  <path d="M 0 400 Q 300 350 600 400 T 1200 400 L 1200 630 L 0 630 Z" fill="#1E90A0" opacity="0.08"/>
  <path d="M 0 450 Q 250 420 500 450 T 1000 450 T 1200 450 L 1200 630 L 0 630 Z" fill="#4FD1C5" opacity="0.05"/>

  <!-- Caviar roe particles -->
  <circle cx="171.4263179594094" cy="244.68850269427395" r="2.794495323955548" fill="#CFAE58" opacity="0.1821470296144334"/>
  <circle cx="634.0882623649501" cy="375.31546761000646" r="4.126408859744564" fill="#CFAE58" opacity="0.10643381661057594"/>
  <circle cx="7.955576874883885" cy="411.0683123954165" r="4.255768401352761" fill="#CFAE58" opacity="0.14841482755504717"/>
  <circle cx="151.29059109098674" cy="279.1106282150215" r="3.040758169656425" fill="#CFAE58" opacity="0.22527641474134158"/>
  <circle cx="82.60968110855744" cy="521.1849329564503" r="2.774587608447116" fill="#CFAE58" opacity="0.1483958069766262"/>
  <circle cx="54.4082749096539" cy="122.69385194996205" r="3.2008740726973812" fill="#CFAE58" opacity="0.12206237339323575"/>
  <circle cx="880.3161367910145" cy="99.05684331810168" r="3.8753890610134025" fill="#CFAE58" opacity="0.2496203008417089"/>
  <circle cx="172.70102103011888" cy="233.81298377825098" r="3.307825163755748" fill="#CFAE58" opacity="0.12550967013602377"/>
  <circle cx="671.8186807301482" cy="495.46309943509806" r="3.474926517140778" fill="#CFAE58" opacity="0.11101239067356133"/>
  <circle cx="1136.7516149877365" cy="358.48107698658447" r="5.088939977081548" fill="#CFAE58" opacity="0.12701586145012275"/>
  <circle cx="755.2391469683437" cy="543.8084824906751" r="3.1508704205054583" fill="#CFAE58" opacity="0.22577651021754291"/>
  <circle cx="169.22174417729954" cy="591.2528523484835" r="3.3520624690047605" fill="#CFAE58" opacity="0.2129344713727399"/>
  <circle cx="977.3759760175358" cy="42.31839210951773" r="4.835663536156537" fill="#CFAE58" opacity="0.2259526809725969"/>
  <circle cx="20.75148665628479" cy="573.8272114905537" r="2.2061600097230176" fill="#CFAE58" opacity="0.18532713876411933"/>
  <circle cx="709.0682096312544" cy="10.640581398508736" r="3.8994340496604503" fill="#CFAE58" opacity="0.221193928114253"/>
  <circle cx="782.7608684440605" cy="455.32997546001985" r="4.514417050558824" fill="#CFAE58" opacity="0.19444865683423923"/>
  <circle cx="482.16174047445486" cy="599.4057454326152" r="2.2665169318482166" fill="#CFAE58" opacity="0.17742983820338107"/>
  <circle cx="715.2596073646924" cy="155.43793888290332" r="5.228908734584688" fill="#CFAE58" opacity="0.13216377697569603"/>
  <circle cx="9.5603910926215" cy="494.74163828363703" r="2.6990789915325433" fill="#CFAE58" opacity="0.21112644691554472"/>
  <circle cx="1051.103130624971" cy="410.201885485771" r="3.2851558116711415" fill="#CFAE58" opacity="0.1237639759749906"/>
  <circle cx="512.3565807870441" cy="139.30751424648167" r="4.760984371226015" fill="#CFAE58" opacity="0.1466205796032801"/>
  <circle cx="172.83881082273442" cy="506.0453427798614" r="3.2569378485132745" fill="#CFAE58" opacity="0.22675544509080825"/>
  <circle cx="835.9890787808154" cy="468.41760070252474" r="4.671489072897166" fill="#CFAE58" opacity="0.24880915125938963"/>
  <circle cx="632.8184813574851" cy="84.39265351064509" r="5.223314961419914" fill="#CFAE58" opacity="0.18190903792570545"/>
  <circle cx="37.462414702535526" cy="547.2110465579457" r="5.6007372137700235" fill="#CFAE58" opacity="0.10348821714516476"/>
  <circle cx="831.1472401700488" cy="273.5794401571085" r="5.064006377915917" fill="#CFAE58" opacity="0.20388499683461075"/>
  <circle cx="290.7708112108883" cy="249.4239850080775" r="2.9339582335109693" fill="#CFAE58" opacity="0.10670350794229042"/>
  <circle cx="1134.910692269702" cy="23.034409416226662" r="4.0441486715736" fill="#CFAE58" opacity="0.18164032703627087"/>
  <circle cx="967.1959563122493" cy="262.378549240939" r="3.8664707313278095" fill="#CFAE58" opacity="0.12665570717625638"/>
  <circle cx="467.31322653631696" cy="133.72128686796006" r="5.781126804840403" fill="#CFAE58" opacity="0.11835721458762537"/>

  <!-- Border with glow -->
  <rect x="40" y="40" width="1120" height="550" fill="none" stroke="url(#goldGradient)" stroke-width="3" rx="12" filter="url(#softGlow)"/>

  <!-- Icon circle with premium background -->
  <circle cx="150" cy="200" r="75" fill="#CFAE58" opacity="0.15" filter="url(#softGlow)"/>
  <circle cx="150" cy="200" r="70" fill="#CFAE58" opacity="0.25"/>
  <text x="150" y="235" font-size="90" text-anchor="middle" fill="#CFAE58" filter="url(#glow)">📰</text>

  <!-- Premium logo (crown) with enhanced styling -->
  <g transform="translate(100, 70)">
    <path d="M 30 20 L 40 35 L 35 35 Z M 50 15 L 60 35 L 45 35 Z M 65 20 L 75 35 L 70 35 Z M 30 35 L 75 35 L 73 45 L 32 45 Z"
          fill="url(#goldGradient)" filter="url(#glow)" stroke="#B89842" stroke-width="0.5"/>
    <circle cx="40" cy="25" r="3" fill="#4FD1C5" filter="url(#glow)"/>
    <circle cx="52" cy="20" r="4" fill="#4FD1C5" filter="url(#glow)"/>
    <circle cx="65" cy="25" r="3" fill="#4FD1C5" filter="url(#glow)"/>
  </g>

  <!-- Title with shadow -->
  <text x="280" y="180" font-family="Georgia, serif" font-size="72" font-weight="bold"
        fill="url(#goldGradient)" filter="url(#shadow)">News & Insights</text>

  <!-- Subtitle with subtle glow -->
  <text x="280" y="230" font-family="Arial, sans-serif" font-size="36"
        fill="#D6DEE6" opacity="0.95" filter="url(#softGlow)">Updates from Royal Keta Hatchery</text>

  <!-- Brand name with letter spacing -->
  <text x="280" y="300" font-family="Georgia, serif" font-size="32" font-weight="bold"
        fill="#CFAE58" letter-spacing="4" filter="url(#glow)">ROYAL KETA</text>

  <!-- Russian tagline -->
  <text x="280" y="340" font-family="Arial, sans-serif" font-size="22" font-style="italic"
        fill="#8B95A1" opacity="0.8">От икринки к королевской</text>

  <!-- Location -->
  <text x="280" y="380" font-family="Arial, sans-serif" font-size="20"
        fill="#8B95A1" opacity="0.7">Невельский район, Сахалин</text>

  <!-- Website with glow -->
  <text x="100" y="570" font-family="Arial, sans-serif" font-size="30" font-weight="bold"
        fill="#4FD1C5" filter="url(#glow)">royalketa.com</text>

  <!-- Enhanced decorative salmon silhouette -->
  <g transform="translate(950, 480)" opacity="0.2" filter="url(#softGlow)">
    <ellipse cx="0" cy="0" rx="90" ry="35" fill="#CFAE58"/>
    <path d="M 90 0 L 120 -18 L 130 0 L 120 18 Z" fill="#CFAE58"/>
    <path d="M -25 -35 L 0 -45 L 25 -35 Z" fill="#CFAE58"/>
    <ellipse cx="-50" cy="0" rx="15" ry="12" fill="#0B0F14"/>
  </g>

  <!-- Additional decorative caviar clusters -->
  <g opacity="0.2">
    <circle cx="1050" cy="120" r="6" fill="#CFAE58"/>
    <circle cx="1065" cy="115" r="5" fill="#CFAE58"/>
    <circle cx="1058" cy="130" r="4" fill="#CFAE58"/>
    <circle cx="150" cy="500" r="5" fill="#4FD1C5"/>
    <circle cx="165" cy="508" r="4" fill="#4FD1C5"/>
    <circle cx="140" cy="512" r="5" fill="#4FD1C5"/>
  </g>
</svg>