<svg width="1200" height="630" xmlns="http://www.w3.org/2000/svg">
  <defs>
    <linearGradient id="bgGradient" x1="0%" y1="0%" x2="100%" y2="100%">
      <stop offset="0%" style="stop-color:#0B0F14;stop-opacity:1" />
      <stop offset="50%" style="stop-color:#0F1619;stop-opacity:1" />
      <stop offset="100%" style="stop-color:#0F1922;stop-opacity:1" />
    </linearGradient>
    <linearGradient id="goldGradient" x1="0%" y1="0%" x2="100%" y2="0%">
      <stop offset="0%" style="stop-color:#E5D596;stop-opacity:1" />
      <stop offset="50%" style="stop-color:#CFAE58;stop-opacity:1" />
      <stop offset="100%" style="stop-color:#B89842;stop-opacity:1" />
    </linearGradient>
    <radialGradient id="oceanGradient" cx="50%" cy="50%" r="50%">
      <stop offset="0%" style="stop-color:#4FD1C5;stop-opacity:0.3" />
      <stop offset="100%" style="stop-color:#1E90A0;stop-opacity:0.05" />
    </radialGradient>
    <filter id="glow">
      <feGaussianBlur stdDeviation="5" result="coloredBlur"/>
      <feMerge>
        <feMergeNode in="coloredBlur"/>
        <feMergeNode in="SourceGraphic"/>
      </feMerge>
    </filter>
    <filter id="softGlow">
      <feGaussianBlur stdDeviation="8" result="coloredBlur"/>
      <feMerge>
        <feMergeNode in="coloredBlur"/>
        <feMergeNode in="SourceGraphic"/>
      </feMerge>
    </filter>
    <filter id="shadow">
      <feDropShadow dx="0" dy="4" stdDeviation="8" flood-color="#000000" flood-opacity="0.5"/>
    </filter>
  </defs>

  <!-- Background -->
  <rect width="1200" height="630" fill="url(#bgGradient)"/>

  <!-- Decorative ocean gradients -->
  <ellipse cx="1000" cy="150" rx="300" ry="200" fill="url(#oceanGradient)" opacity="0.4"/>
  <ellipse cx="200" cy="530" rx="250" ry="180" fill="url(#oceanGradient)" opacity="0.3"/>

  <!-- Wave patterns -->
  <path d="M 0 400 Q 300 350 600 400 T 1200 400 L 1200 630 L 0 630 Z" fill="#1E90A0" opacity="0.08"/>
  <path d="M 0 450 Q 250 420 500 450 T 1000 450 T 1200 450 L 1200 630 L 0 630 Z" fill="#4FD1C5" opacity="0.05"/>

  <!-- Caviar roe particles -->
  <circle cx="909.3182876368463" cy="208.559950111743" r="2.789560630532291" fill="#CFAE58" opacity="0.11031576634902573"/>
  <circle cx="1006.1151923738045" cy="190.9106017660412" r="3.704328518617177" fill="#CFAE58" opacity="0.22639008699020588"/>
  <circle cx="977.6452181203441" cy="521.2694029903319" r="2.2921018934647117" fill="#CFAE58" opacity="0.20892142303180045"/>
  <circle cx="758.5295735950062" cy="395.32929589931825" r="5.109158887599974" fill="#CFAE58" opacity="0.1476720669551087"/>
  <circle cx="226.6953930184349" cy="14.525553979914934" r="4.535519883025655" fill="#CFAE58" opacity="0.18231442280914822"/>
  <circle cx="113.68749802604859" cy="28.491962303123366" r="5.965158905994752" fill="#CFAE58" opacity="0.1416375701325818"/>
  <circle cx="404.0835751189723" cy="435.06628019074475" r="4.999670671351892" fill="#CFAE58" opacity="0.16945466653406033"/>
  <circle cx="845.8886845190656" cy="395.27159239428477" r="2.452882781788686" fill="#CFAE58" opacity="0.23220773398073044"/>
  <circle cx="474.0313905256559" cy="216.40041712646263" r="5.133216847271173" fill="#CFAE58" opacity="0.12511893587997924"/>
  <circle cx="386.66706391388897" cy="291.8826776738761" r="5.418369289724265" fill="#CFAE58" opacity="0.24944210634467298"/>
  <circle cx="292.70526528254396" cy="286.10716891805146" r="4.761207570353226" fill="#CFAE58" opacity="0.11784147954493364"/>
  <circle cx="75.07749726279664" cy="125.05774489082373" r="3.0055295872706616" fill="#CFAE58" opacity="0.20228078113995912"/>
  <circle cx="574.174630264398" cy="418.4472063184155" r="2.4353293397630953" fill="#CFAE58" opacity="0.17296627405950826"/>
  <circle cx="368.39864205467654" cy="206.80740013807494" r="2.942162586042614" fill="#CFAE58" opacity="0.13276397658182054"/>
  <circle cx="80.80789145521771" cy="572.0361505205068" r="5.856977968649493" fill="#CFAE58" opacity="0.1320257930092446"/>
  <circle cx="1092.2114127006935" cy="18.4673836173553" r="5.356996164374687" fill="#CFAE58" opacity="0.16589305334565563"/>
  <circle cx="12.8637230078394" cy="423.418398433593" r="3.0613422046704697" fill="#CFAE58" opacity="0.22037802580091695"/>
  <circle cx="385.324982936453" cy="87.76595770386967" r="5.4771526736699725" fill="#CFAE58" opacity="0.13069657301050383"/>
  <circle cx="146.13460923144154" cy="39.61166334633179" r="3.7951953370358913" fill="#CFAE58" opacity="0.16246128140912855"/>
  <circle cx="149.02825786705947" cy="259.5054470558334" r="3.384651270053756" fill="#CFAE58" opacity="0.1283248783364618"/>
  <circle cx="112.15660524138782" cy="479.5697050722109" r="3.7701171124035913" fill="#CFAE58" opacity="0.13268031210043"/>
  <circle cx="279.96733032880405" cy="266.3232132123645" r="5.8219950852956295" fill="#CFAE58" opacity="0.2333871033291989"/>
  <circle cx="407.7481637293706" cy="159.6698397040314" r="3.2469245676210434" fill="#CFAE58" opacity="0.24835852287624138"/>
  <circle cx="684.6069043234505" cy="462.82806989134514" r="4.025010435875845" fill="#CFAE58" opacity="0.2219872759927161"/>
  <circle cx="81.37139135016191" cy="463.9348208809526" r="3.197213115647272" fill="#CFAE58" opacity="0.1756447215342523"/>
  <circle cx="1098.570464469488" cy="564.6660113308361" r="4.78748404474139" fill="#CFAE58" opacity="0.1387613549733614"/>
  <circle cx="1123.8799271252162" cy="200.09942195409783" r="5.62710921221464" fill="#CFAE58" opacity="0.12485428883411875"/>
  <circle cx="331.91879048581245" cy="288.1854919619215" r="5.287250939231996" fill="#CFAE58" opacity="0.1323031407094966"/>
  <circle cx="356.28013532321256" cy="541.665700857013" r="3.1431669466161782" fill="#CFAE58" opacity="0.19032619701039452"/>
  <circle cx="670.5261267950223" cy="233.13757611557972" r="3.984068720230531" fill="#CFAE58" opacity="0.1551123588077129"/>

  <!-- Border with glow -->
  <rect x="40" y="40" width="1120" height="550" fill="none" stroke="url(#goldGradient)" stroke-width="3" rx="12" filter="url(#softGlow)"/>

  <!-- Icon circle with premium background -->
  <circle cx="150" cy="200" r="75" fill="#CFAE58" opacity="0.15" filter="url(#softGlow)"/>
  <circle cx="150" cy="200" r="70" fill="#CFAE58" opacity="0.25"/>
  <text x="150" y="235" font-size="90" text-anchor="middle" fill="#CFAE58" filter="url(#glow)">📰</text>

  <!-- Premium logo (crown) with enhanced styling -->
  <g transform="translate(100, 70)">
    <path d="M 30 20 L 40 35 L 35 35 Z M 50 15 L 60 35 L 45 35 Z M 65 20 L 75 35 L 70 35 Z M 30 35 L 75 35 L 73 45 L 32 45 Z"
          fill="url(#goldGradient)" filter="url(#glow)" stroke="#B89842" stroke-width="0.5"/>
    <circle cx="40" cy="25" r="3" fill="#4FD1C5" filter="url(#glow)"/>
    <circle cx="52" cy="20" r="4" fill="#4FD1C5" filter="url(#glow)"/>
    <circle cx="65" cy="25" r="3" fill="#4FD1C5" filter="url(#glow)"/>
  </g>

  <!-- Title with shadow -->
  <text x="280" y="180" font-family="Georgia, serif" font-size="72" font-weight="bold"
        fill="url(#goldGradient)" filter="url(#shadow)">News &amp; Insights</text>

  <!-- Subtitle with subtle glow -->
  <text x="280" y="230" font-family="Arial, sans-serif" font-size="36"
        fill="#D6DEE6" opacity="0.95" filter="url(#softGlow)">Updates from Royal Keta Hatchery</text>

  <!-- Brand name with letter spacing -->
  <text x="280" y="300" font-family="Georgia, serif" font-size="32" font-weight="bold"
        fill="#CFAE58" letter-spacing="4" filter="url(#glow)">ROYAL KETA</text>

  <!-- Russian tagline -->
  <text x="280" y="340" font-family="Arial, sans-serif" font-size="22" font-style="italic"
        fill="#8B95A1" opacity="0.8">От икринки к королевской</text>

  <!-- Location -->
  <text x="280" y="380" font-family="Arial, sans-serif" font-size="20"
        fill="#8B95A1" opacity="0.7">Невельский район, Сахалин</text>

  <!-- Website with glow -->
  <text x="100" y="570" font-family="Arial, sans-serif" font-size="30" font-weight="bold"
        fill="#4FD1C5" filter="url(#glow)">royalketa.com</text>

  <!-- Enhanced decorative salmon silhouette -->
  <g transform="translate(950, 480)" opacity="0.2" filter="url(#softGlow)">
    <ellipse cx="0" cy="0" rx="90" ry="35" fill="#CFAE58"/>
    <path d="M 90 0 L 120 -18 L 130 0 L 120 18 Z" fill="#CFAE58"/>
    <path d="M -25 -35 L 0 -45 L 25 -35 Z" fill="#CFAE58"/>
    <ellipse cx="-50" cy="0" rx="15" ry="12" fill="#0B0F14"/>
  </g>

  <!-- Additional decorative caviar clusters -->
  <g opacity="0.2">
    <circle cx="1050" cy="120" r="6" fill="#CFAE58"/>
    <circle cx="1065" cy="115" r="5" fill="#CFAE58"/>
    <circle cx="1058" cy="130" r="4" fill="#CFAE58"/>
    <circle cx="150" cy="500" r="5" fill="#4FD1C5"/>
    <circle cx="165" cy="508" r="4" fill="#4FD1C5"/>
    <circle cx="140" cy="512" r="5" fill="#4FD1C5"/>
  </g>
</svg>