<svg width="1200" height="630" xmlns="http://www.w3.org/2000/svg">
  <defs>
    <linearGradient id="bgGradient" x1="0%" y1="0%" x2="100%" y2="100%">
      <stop offset="0%" style="stop-color:#0B0F14;stop-opacity:1" />
      <stop offset="50%" style="stop-color:#0F1619;stop-opacity:1" />
      <stop offset="100%" style="stop-color:#0F1922;stop-opacity:1" />
    </linearGradient>
    <linearGradient id="goldGradient" x1="0%" y1="0%" x2="100%" y2="0%">
      <stop offset="0%" style="stop-color:#E5D596;stop-opacity:1" />
      <stop offset="50%" style="stop-color:#CFAE58;stop-opacity:1" />
      <stop offset="100%" style="stop-color:#B89842;stop-opacity:1" />
    </linearGradient>
    <radialGradient id="oceanGradient" cx="50%" cy="50%" r="50%">
      <stop offset="0%" style="stop-color:#4FD1C5;stop-opacity:0.3" />
      <stop offset="100%" style="stop-color:#1E90A0;stop-opacity:0.05" />
    </radialGradient>
    <filter id="glow">
      <feGaussianBlur stdDeviation="5" result="coloredBlur"/>
      <feMerge>
        <feMergeNode in="coloredBlur"/>
        <feMergeNode in="SourceGraphic"/>
      </feMerge>
    </filter>
    <filter id="softGlow">
      <feGaussianBlur stdDeviation="8" result="coloredBlur"/>
      <feMerge>
        <feMergeNode in="coloredBlur"/>
        <feMergeNode in="SourceGraphic"/>
      </feMerge>
    </filter>
    <filter id="shadow">
      <feDropShadow dx="0" dy="4" stdDeviation="8" flood-color="#000000" flood-opacity="0.5"/>
    </filter>
  </defs>

  <!-- Background -->
  <rect width="1200" height="630" fill="url(#bgGradient)"/>

  <!-- Decorative ocean gradients -->
  <ellipse cx="1000" cy="150" rx="300" ry="200" fill="url(#oceanGradient)" opacity="0.4"/>
  <ellipse cx="200" cy="530" rx="250" ry="180" fill="url(#oceanGradient)" opacity="0.3"/>

  <!-- Wave patterns -->
  <path d="M 0 400 Q 300 350 600 400 T 1200 400 L 1200 630 L 0 630 Z" fill="#1E90A0" opacity="0.08"/>
  <path d="M 0 450 Q 250 420 500 450 T 1000 450 T 1200 450 L 1200 630 L 0 630 Z" fill="#4FD1C5" opacity="0.05"/>

  <!-- Caviar roe particles -->
  <circle cx="474.7700480900277" cy="348.2146256051735" r="3.0386055303905284" fill="#CFAE58" opacity="0.17298358144711604"/>
  <circle cx="30.541737631692236" cy="552.1496903617654" r="5.868413957374292" fill="#CFAE58" opacity="0.19081774744319713"/>
  <circle cx="296.86178988411353" cy="104.68669202613239" r="5.166824280195069" fill="#CFAE58" opacity="0.12024657893921467"/>
  <circle cx="864.781853757522" cy="562.1226825188135" r="2.186343356928454" fill="#CFAE58" opacity="0.2007681298408575"/>
  <circle cx="946.7252846126044" cy="583.7010267069309" r="3.3126823620006993" fill="#CFAE58" opacity="0.21470642948364208"/>
  <circle cx="1179.8282752503137" cy="522.4319864943667" r="2.3563734166577524" fill="#CFAE58" opacity="0.1809005251562132"/>
  <circle cx="867.0372753211791" cy="456.5822102837783" r="3.5763098702131133" fill="#CFAE58" opacity="0.1175429836337592"/>
  <circle cx="322.52644181039955" cy="58.78990341166898" r="2.73907017033615" fill="#CFAE58" opacity="0.24636317054220142"/>
  <circle cx="608.0735694137785" cy="18.934866715453765" r="3.0233897109732437" fill="#CFAE58" opacity="0.17124981130522676"/>
  <circle cx="368.50325529439465" cy="181.02020995686652" r="5.538328121186801" fill="#CFAE58" opacity="0.14256738820210857"/>
  <circle cx="718.3666994349301" cy="456.133309334489" r="4.19395240478263" fill="#CFAE58" opacity="0.20337350703965906"/>
  <circle cx="389.7818232707092" cy="426.15692292229477" r="5.3309822885986256" fill="#CFAE58" opacity="0.14149027309322032"/>
  <circle cx="1191.0012859620997" cy="166.85836528642648" r="3.7544144644707638" fill="#CFAE58" opacity="0.10506884272708963"/>
  <circle cx="836.8802247935666" cy="37.59694176197302" r="4.882254134349639" fill="#CFAE58" opacity="0.13887017891297607"/>
  <circle cx="33.3091720366192" cy="11.003341731162578" r="5.559096754845172" fill="#CFAE58" opacity="0.1769546221635406"/>
  <circle cx="565.8833161808786" cy="432.09875796757757" r="3.658352727185967" fill="#CFAE58" opacity="0.244617811455644"/>
  <circle cx="503.27310097454784" cy="526.6391442165684" r="5.83073296310859" fill="#CFAE58" opacity="0.10334258936666042"/>
  <circle cx="1102.9871619264666" cy="404.6159831914498" r="2.6224557923992444" fill="#CFAE58" opacity="0.11323179452409497"/>
  <circle cx="162.78692407883116" cy="261.94162037962224" r="4.220812691224109" fill="#CFAE58" opacity="0.23880968154766416"/>
  <circle cx="755.897678911537" cy="148.3006573098562" r="5.74182865485861" fill="#CFAE58" opacity="0.19747107252789814"/>
  <circle cx="1001.1084955349095" cy="456.6555211306061" r="5.694103480215675" fill="#CFAE58" opacity="0.20563915756038426"/>
  <circle cx="751.4865833143721" cy="256.2413233759877" r="4.964668970467411" fill="#CFAE58" opacity="0.19892032426581646"/>
  <circle cx="660.8463971263697" cy="243.3183320337198" r="3.8997772181304335" fill="#CFAE58" opacity="0.24876968683731815"/>
  <circle cx="625.8174430278549" cy="602.4155814881667" r="4.830734141883796" fill="#CFAE58" opacity="0.15806462412968758"/>
  <circle cx="51.88062627133934" cy="564.2106685325361" r="3.194374863332739" fill="#CFAE58" opacity="0.10570567775505238"/>
  <circle cx="237.50373836633725" cy="5.235442018212215" r="4.769912484657875" fill="#CFAE58" opacity="0.1277980496240728"/>
  <circle cx="30.281151976493792" cy="592.2220296369411" r="3.309566328509067" fill="#CFAE58" opacity="0.10073717177171074"/>
  <circle cx="715.383737943178" cy="50.59518310567363" r="4.097546596401132" fill="#CFAE58" opacity="0.2271813803175649"/>
  <circle cx="77.47068091099737" cy="565.1422785188398" r="5.104024029423443" fill="#CFAE58" opacity="0.23586859886468758"/>
  <circle cx="864.4204041715078" cy="567.7233452578907" r="2.363545554902871" fill="#CFAE58" opacity="0.12727575670982882"/>

  <!-- Border with glow -->
  <rect x="40" y="40" width="1120" height="550" fill="none" stroke="url(#goldGradient)" stroke-width="3" rx="12" filter="url(#softGlow)"/>

  <!-- Icon circle with premium background -->
  <circle cx="150" cy="200" r="75" fill="#CFAE58" opacity="0.15" filter="url(#softGlow)"/>
  <circle cx="150" cy="200" r="70" fill="#CFAE58" opacity="0.25"/>
  <text x="150" y="235" font-size="90" text-anchor="middle" fill="#CFAE58" filter="url(#glow)">🫙</text>

  <!-- Premium logo (crown) with enhanced styling -->
  <g transform="translate(100, 70)">
    <path d="M 30 20 L 40 35 L 35 35 Z M 50 15 L 60 35 L 45 35 Z M 65 20 L 75 35 L 70 35 Z M 30 35 L 75 35 L 73 45 L 32 45 Z"
          fill="url(#goldGradient)" filter="url(#glow)" stroke="#B89842" stroke-width="0.5"/>
    <circle cx="40" cy="25" r="3" fill="#4FD1C5" filter="url(#glow)"/>
    <circle cx="52" cy="20" r="4" fill="#4FD1C5" filter="url(#glow)"/>
    <circle cx="65" cy="25" r="3" fill="#4FD1C5" filter="url(#glow)"/>
  </g>

  <!-- Title with shadow -->
  <text x="280" y="180" font-family="Georgia, serif" font-size="72" font-weight="bold"
        fill="url(#goldGradient)" filter="url(#shadow)">Premium Caviar</text>

  <!-- Subtitle with subtle glow -->
  <text x="280" y="230" font-family="Arial, sans-serif" font-size="36"
        fill="#D6DEE6" opacity="0.95" filter="url(#softGlow)">Excellence in Every Jar</text>

  <!-- Brand name with letter spacing -->
  <text x="280" y="300" font-family="Georgia, serif" font-size="32" font-weight="bold"
        fill="#CFAE58" letter-spacing="4" filter="url(#glow)">ROYAL KETA</text>

  <!-- Russian tagline -->
  <text x="280" y="340" font-family="Arial, sans-serif" font-size="22" font-style="italic"
        fill="#8B95A1" opacity="0.8">От икринки к королевской</text>

  <!-- Location -->
  <text x="280" y="380" font-family="Arial, sans-serif" font-size="20"
        fill="#8B95A1" opacity="0.7">Невельский район, Сахалин</text>

  <!-- Website with glow -->
  <text x="100" y="570" font-family="Arial, sans-serif" font-size="30" font-weight="bold"
        fill="#4FD1C5" filter="url(#glow)">royalketa.com</text>

  <!-- Enhanced decorative salmon silhouette -->
  <g transform="translate(950, 480)" opacity="0.2" filter="url(#softGlow)">
    <ellipse cx="0" cy="0" rx="90" ry="35" fill="#CFAE58"/>
    <path d="M 90 0 L 120 -18 L 130 0 L 120 18 Z" fill="#CFAE58"/>
    <path d="M -25 -35 L 0 -45 L 25 -35 Z" fill="#CFAE58"/>
    <ellipse cx="-50" cy="0" rx="15" ry="12" fill="#0B0F14"/>
  </g>

  <!-- Additional decorative caviar clusters -->
  <g opacity="0.2">
    <circle cx="1050" cy="120" r="6" fill="#CFAE58"/>
    <circle cx="1065" cy="115" r="5" fill="#CFAE58"/>
    <circle cx="1058" cy="130" r="4" fill="#CFAE58"/>
    <circle cx="150" cy="500" r="5" fill="#4FD1C5"/>
    <circle cx="165" cy="508" r="4" fill="#4FD1C5"/>
    <circle cx="140" cy="512" r="5" fill="#4FD1C5"/>
  </g>
</svg>