<svg width="1200" height="630" xmlns="http://www.w3.org/2000/svg">
  <defs>
    <linearGradient id="bgGradient" x1="0%" y1="0%" x2="100%" y2="100%">
      <stop offset="0%" style="stop-color:#0B0F14;stop-opacity:1" />
      <stop offset="50%" style="stop-color:#0F1619;stop-opacity:1" />
      <stop offset="100%" style="stop-color:#0F1922;stop-opacity:1" />
    </linearGradient>
    <linearGradient id="goldGradient" x1="0%" y1="0%" x2="100%" y2="0%">
      <stop offset="0%" style="stop-color:#E5D596;stop-opacity:1" />
      <stop offset="50%" style="stop-color:#CFAE58;stop-opacity:1" />
      <stop offset="100%" style="stop-color:#B89842;stop-opacity:1" />
    </linearGradient>
    <radialGradient id="oceanGradient" cx="50%" cy="50%" r="50%">
      <stop offset="0%" style="stop-color:#4FD1C5;stop-opacity:0.3" />
      <stop offset="100%" style="stop-color:#1E90A0;stop-opacity:0.05" />
    </radialGradient>
    <filter id="glow">
      <feGaussianBlur stdDeviation="5" result="coloredBlur"/>
      <feMerge>
        <feMergeNode in="coloredBlur"/>
        <feMergeNode in="SourceGraphic"/>
      </feMerge>
    </filter>
    <filter id="softGlow">
      <feGaussianBlur stdDeviation="8" result="coloredBlur"/>
      <feMerge>
        <feMergeNode in="coloredBlur"/>
        <feMergeNode in="SourceGraphic"/>
      </feMerge>
    </filter>
    <filter id="shadow">
      <feDropShadow dx="0" dy="4" stdDeviation="8" flood-color="#000000" flood-opacity="0.5"/>
    </filter>
  </defs>

  <!-- Background -->
  <rect width="1200" height="630" fill="url(#bgGradient)"/>

  <!-- Decorative ocean gradients -->
  <ellipse cx="1000" cy="150" rx="300" ry="200" fill="url(#oceanGradient)" opacity="0.4"/>
  <ellipse cx="200" cy="530" rx="250" ry="180" fill="url(#oceanGradient)" opacity="0.3"/>

  <!-- Wave patterns -->
  <path d="M 0 400 Q 300 350 600 400 T 1200 400 L 1200 630 L 0 630 Z" fill="#1E90A0" opacity="0.08"/>
  <path d="M 0 450 Q 250 420 500 450 T 1000 450 T 1200 450 L 1200 630 L 0 630 Z" fill="#4FD1C5" opacity="0.05"/>

  <!-- Caviar roe particles -->
  <circle cx="205.24105887530934" cy="180.6417883924428" r="3.458566307953551" fill="#CFAE58" opacity="0.2209200236744607"/>
  <circle cx="568.7616227129722" cy="488.35726371612316" r="5.928835042448045" fill="#CFAE58" opacity="0.24297650668331192"/>
  <circle cx="260.8556588224835" cy="447.7859677268685" r="4.618352960332908" fill="#CFAE58" opacity="0.16648469067192992"/>
  <circle cx="819.3559841351123" cy="235.6757338235317" r="4.207685225216198" fill="#CFAE58" opacity="0.22326965934620369"/>
  <circle cx="97.07269125805551" cy="491.71766313603445" r="3.8937395406626445" fill="#CFAE58" opacity="0.22247079796876673"/>
  <circle cx="375.2509073703861" cy="522.4564254096779" r="4.508996555248217" fill="#CFAE58" opacity="0.2247979574000793"/>
  <circle cx="649.498598725162" cy="470.3312426265589" r="5.197223650396875" fill="#CFAE58" opacity="0.1705268272102461"/>
  <circle cx="810.423387659901" cy="575.5746067767228" r="5.778931000937052" fill="#CFAE58" opacity="0.12268802364147996"/>
  <circle cx="750.8115958277721" cy="585.4483359354871" r="4.278323106649661" fill="#CFAE58" opacity="0.1492158565528275"/>
  <circle cx="1031.1503077835664" cy="443.263091792453" r="4.635322942027588" fill="#CFAE58" opacity="0.12883076389660017"/>
  <circle cx="889.541550921905" cy="157.13993917871483" r="5.471444301672664" fill="#CFAE58" opacity="0.1959916697452331"/>
  <circle cx="660.034123730654" cy="565.8433257881378" r="5.057809193761714" fill="#CFAE58" opacity="0.11950836827194118"/>
  <circle cx="390.2065793659285" cy="529.495745532498" r="3.3375972836222925" fill="#CFAE58" opacity="0.20029518298810978"/>
  <circle cx="1094.2453040287887" cy="66.48296473858709" r="3.799095394726937" fill="#CFAE58" opacity="0.24660231299318758"/>
  <circle cx="994.4205328077842" cy="523.1049032848492" r="2.7912374475785455" fill="#CFAE58" opacity="0.10331713954946826"/>
  <circle cx="874.2271260588542" cy="405.9666012044017" r="4.197115218115104" fill="#CFAE58" opacity="0.1752732751967908"/>
  <circle cx="1193.3308048956385" cy="118.83007927223052" r="2.0582579623480086" fill="#CFAE58" opacity="0.11609622523274936"/>
  <circle cx="93.29124119551908" cy="133.33614757911118" r="3.397612804043219" fill="#CFAE58" opacity="0.20534620633727185"/>
  <circle cx="921.8877096146605" cy="239.22186195255318" r="3.937511849436108" fill="#CFAE58" opacity="0.1599966969797413"/>
  <circle cx="985.7661412196362" cy="152.80542375526477" r="4.248532480995845" fill="#CFAE58" opacity="0.1744875337099251"/>
  <circle cx="427.1451002982227" cy="171.04494816610227" r="3.3648725930018015" fill="#CFAE58" opacity="0.18823281258627078"/>
  <circle cx="489.01543558426994" cy="25.652536406486433" r="2.3450639027575813" fill="#CFAE58" opacity="0.12607475861256248"/>
  <circle cx="167.0909496954221" cy="199.75730967838044" r="4.257832471389378" fill="#CFAE58" opacity="0.18354867058145488"/>
  <circle cx="33.95019983405163" cy="619.075868239627" r="2.124991408186226" fill="#CFAE58" opacity="0.15455127889851825"/>
  <circle cx="235.406886526809" cy="370.06955783360127" r="2.2233789750861908" fill="#CFAE58" opacity="0.15736079172742157"/>
  <circle cx="790.770117441328" cy="373.0878559708606" r="4.745879919416769" fill="#CFAE58" opacity="0.16400239466109068"/>
  <circle cx="806.2978408420806" cy="600.5642951598483" r="4.786549527878928" fill="#CFAE58" opacity="0.15905030015359603"/>
  <circle cx="1089.3485421079224" cy="405.0602005728838" r="4.898354510798457" fill="#CFAE58" opacity="0.19295770250718192"/>
  <circle cx="974.7917042229653" cy="284.2760676975186" r="4.73692516120285" fill="#CFAE58" opacity="0.11929731342970898"/>
  <circle cx="1175.9364305661522" cy="62.936611346916486" r="4.5373264573077075" fill="#CFAE58" opacity="0.17159963411464643"/>

  <!-- Border with glow -->
  <rect x="40" y="40" width="1120" height="550" fill="none" stroke="url(#goldGradient)" stroke-width="3" rx="12" filter="url(#softGlow)"/>

  <!-- Icon circle with premium background -->
  <circle cx="150" cy="200" r="75" fill="#CFAE58" opacity="0.15" filter="url(#softGlow)"/>
  <circle cx="150" cy="200" r="70" fill="#CFAE58" opacity="0.25"/>
  <text x="150" y="235" font-size="90" text-anchor="middle" fill="#CFAE58" filter="url(#glow)">🫙</text>

  <!-- Premium logo (crown) with enhanced styling -->
  <g transform="translate(100, 70)">
    <path d="M 30 20 L 40 35 L 35 35 Z M 50 15 L 60 35 L 45 35 Z M 65 20 L 75 35 L 70 35 Z M 30 35 L 75 35 L 73 45 L 32 45 Z"
          fill="url(#goldGradient)" filter="url(#glow)" stroke="#B89842" stroke-width="0.5"/>
    <circle cx="40" cy="25" r="3" fill="#4FD1C5" filter="url(#glow)"/>
    <circle cx="52" cy="20" r="4" fill="#4FD1C5" filter="url(#glow)"/>
    <circle cx="65" cy="25" r="3" fill="#4FD1C5" filter="url(#glow)"/>
  </g>

  <!-- Title with shadow -->
  <text x="280" y="180" font-family="Georgia, serif" font-size="72" font-weight="bold"
        fill="url(#goldGradient)" filter="url(#shadow)">Premium Caviar</text>

  <!-- Subtitle with subtle glow -->
  <text x="280" y="230" font-family="Arial, sans-serif" font-size="36"
        fill="#D6DEE6" opacity="0.95" filter="url(#softGlow)">Excellence in Every Jar</text>

  <!-- Brand name with letter spacing -->
  <text x="280" y="300" font-family="Georgia, serif" font-size="32" font-weight="bold"
        fill="#CFAE58" letter-spacing="4" filter="url(#glow)">ROYAL KETA</text>

  <!-- Russian tagline -->
  <text x="280" y="340" font-family="Arial, sans-serif" font-size="22" font-style="italic"
        fill="#8B95A1" opacity="0.8">От икринки к королевской</text>

  <!-- Location -->
  <text x="280" y="380" font-family="Arial, sans-serif" font-size="20"
        fill="#8B95A1" opacity="0.7">Невельский район, Сахалин</text>

  <!-- Website with glow -->
  <text x="100" y="570" font-family="Arial, sans-serif" font-size="30" font-weight="bold"
        fill="#4FD1C5" filter="url(#glow)">royalketa.com</text>

  <!-- Enhanced decorative salmon silhouette -->
  <g transform="translate(950, 480)" opacity="0.2" filter="url(#softGlow)">
    <ellipse cx="0" cy="0" rx="90" ry="35" fill="#CFAE58"/>
    <path d="M 90 0 L 120 -18 L 130 0 L 120 18 Z" fill="#CFAE58"/>
    <path d="M -25 -35 L 0 -45 L 25 -35 Z" fill="#CFAE58"/>
    <ellipse cx="-50" cy="0" rx="15" ry="12" fill="#0B0F14"/>
  </g>

  <!-- Additional decorative caviar clusters -->
  <g opacity="0.2">
    <circle cx="1050" cy="120" r="6" fill="#CFAE58"/>
    <circle cx="1065" cy="115" r="5" fill="#CFAE58"/>
    <circle cx="1058" cy="130" r="4" fill="#CFAE58"/>
    <circle cx="150" cy="500" r="5" fill="#4FD1C5"/>
    <circle cx="165" cy="508" r="4" fill="#4FD1C5"/>
    <circle cx="140" cy="512" r="5" fill="#4FD1C5"/>
  </g>
</svg>