<svg width="1200" height="630" xmlns="http://www.w3.org/2000/svg">
  <defs>
    <linearGradient id="bgGradient" x1="0%" y1="0%" x2="100%" y2="100%">
      <stop offset="0%" style="stop-color:#0B0F14;stop-opacity:1" />
      <stop offset="50%" style="stop-color:#0F1619;stop-opacity:1" />
      <stop offset="100%" style="stop-color:#0F1922;stop-opacity:1" />
    </linearGradient>
    <linearGradient id="goldGradient" x1="0%" y1="0%" x2="100%" y2="0%">
      <stop offset="0%" style="stop-color:#E5D596;stop-opacity:1" />
      <stop offset="50%" style="stop-color:#CFAE58;stop-opacity:1" />
      <stop offset="100%" style="stop-color:#B89842;stop-opacity:1" />
    </linearGradient>
    <radialGradient id="oceanGradient" cx="50%" cy="50%" r="50%">
      <stop offset="0%" style="stop-color:#4FD1C5;stop-opacity:0.3" />
      <stop offset="100%" style="stop-color:#1E90A0;stop-opacity:0.05" />
    </radialGradient>
    <filter id="glow">
      <feGaussianBlur stdDeviation="5" result="coloredBlur"/>
      <feMerge>
        <feMergeNode in="coloredBlur"/>
        <feMergeNode in="SourceGraphic"/>
      </feMerge>
    </filter>
    <filter id="softGlow">
      <feGaussianBlur stdDeviation="8" result="coloredBlur"/>
      <feMerge>
        <feMergeNode in="coloredBlur"/>
        <feMergeNode in="SourceGraphic"/>
      </feMerge>
    </filter>
    <filter id="shadow">
      <feDropShadow dx="0" dy="4" stdDeviation="8" flood-color="#000000" flood-opacity="0.5"/>
    </filter>
  </defs>

  <!-- Background -->
  <rect width="1200" height="630" fill="url(#bgGradient)"/>

  <!-- Decorative ocean gradients -->
  <ellipse cx="1000" cy="150" rx="300" ry="200" fill="url(#oceanGradient)" opacity="0.4"/>
  <ellipse cx="200" cy="530" rx="250" ry="180" fill="url(#oceanGradient)" opacity="0.3"/>

  <!-- Wave patterns -->
  <path d="M 0 400 Q 300 350 600 400 T 1200 400 L 1200 630 L 0 630 Z" fill="#1E90A0" opacity="0.08"/>
  <path d="M 0 450 Q 250 420 500 450 T 1000 450 T 1200 450 L 1200 630 L 0 630 Z" fill="#4FD1C5" opacity="0.05"/>

  <!-- Caviar roe particles -->
  <circle cx="884.6675826033537" cy="88.49929441263224" r="4.43969584151081" fill="#CFAE58" opacity="0.17653404902404174"/>
  <circle cx="862.4410144542109" cy="445.47951769803814" r="3.975512736645384" fill="#CFAE58" opacity="0.24842043301206995"/>
  <circle cx="648.5158019588752" cy="58.856674277730214" r="2.0523350814633314" fill="#CFAE58" opacity="0.12239392752851162"/>
  <circle cx="551.5736554505957" cy="616.8399520399665" r="2.316497138333758" fill="#CFAE58" opacity="0.17016309378760835"/>
  <circle cx="500.96426520169024" cy="93.02282327165116" r="2.2487865705029826" fill="#CFAE58" opacity="0.11863729734426465"/>
  <circle cx="800.5067439149872" cy="6.352994662741278" r="4.175375050716083" fill="#CFAE58" opacity="0.10833483093273147"/>
  <circle cx="253.88369670701758" cy="247.46305155969628" r="2.4771653640698226" fill="#CFAE58" opacity="0.10802698375463927"/>
  <circle cx="675.3668564464554" cy="23.48011191593754" r="4.358873872850636" fill="#CFAE58" opacity="0.2097970689728934"/>
  <circle cx="103.80424020514809" cy="180.89211618982182" r="4.030901369392318" fill="#CFAE58" opacity="0.12830699627800923"/>
  <circle cx="820.7854442333538" cy="538.9095093539312" r="3.382592286170966" fill="#CFAE58" opacity="0.20947386419877595"/>
  <circle cx="430.00183910359164" cy="567.948148111845" r="4.868740102130343" fill="#CFAE58" opacity="0.22622113569374375"/>
  <circle cx="1133.8975763438705" cy="65.02440331449554" r="2.898524198744872" fill="#CFAE58" opacity="0.11968777196878705"/>
  <circle cx="422.80773045389816" cy="88.44379752135694" r="4.949321160114986" fill="#CFAE58" opacity="0.2472351680841281"/>
  <circle cx="1061.2040016329156" cy="414.7421464017535" r="3.1434893678715365" fill="#CFAE58" opacity="0.10911319727148247"/>
  <circle cx="496.5667512074573" cy="627.1283001695818" r="4.738816366435478" fill="#CFAE58" opacity="0.21709760285004392"/>
  <circle cx="927.9126659359787" cy="350.7650454180279" r="5.65024072468579" fill="#CFAE58" opacity="0.22014033790615817"/>
  <circle cx="1176.5797910792612" cy="255.45642152417432" r="3.1788090909599527" fill="#CFAE58" opacity="0.23797406161475662"/>
  <circle cx="1143.0196276752104" cy="506.8463927506307" r="3.429829310034304" fill="#CFAE58" opacity="0.1135565013621274"/>
  <circle cx="48.5051074857358" cy="486.97992599480114" r="2.2741031017049353" fill="#CFAE58" opacity="0.23903937142857246"/>
  <circle cx="845.9255624841518" cy="490.64022299980115" r="5.523071084754439" fill="#CFAE58" opacity="0.10285591131354661"/>
  <circle cx="286.9745988142256" cy="145.33124770704282" r="4.949439397002431" fill="#CFAE58" opacity="0.15535766214957827"/>
  <circle cx="1123.968322664725" cy="181.77088871549282" r="3.692240615074109" fill="#CFAE58" opacity="0.22254599849957657"/>
  <circle cx="1021.9971989282067" cy="158.8453622767707" r="3.393843061710272" fill="#CFAE58" opacity="0.1497004265030787"/>
  <circle cx="148.00201493530815" cy="19.518843735597677" r="3.990820599872685" fill="#CFAE58" opacity="0.15575420537225595"/>
  <circle cx="462.2286216352693" cy="20.10433100349698" r="5.081817477103383" fill="#CFAE58" opacity="0.15772084628129635"/>
  <circle cx="402.4479313179722" cy="540.3805783689024" r="2.748906913446956" fill="#CFAE58" opacity="0.11539657587945568"/>
  <circle cx="1168.8352776367806" cy="74.15992417472239" r="5.687459015319114" fill="#CFAE58" opacity="0.12104512757271302"/>
  <circle cx="338.4693861728069" cy="554.1280188522826" r="5.759682822051277" fill="#CFAE58" opacity="0.22507204595631347"/>
  <circle cx="77.18785420807049" cy="604.1854798042059" r="3.4871057175992553" fill="#CFAE58" opacity="0.1768949478108766"/>
  <circle cx="717.3195748009177" cy="251.13942928546896" r="4.158489445567085" fill="#CFAE58" opacity="0.16260334004181426"/>

  <!-- Border with glow -->
  <rect x="40" y="40" width="1120" height="550" fill="none" stroke="url(#goldGradient)" stroke-width="3" rx="12" filter="url(#softGlow)"/>

  <!-- Icon circle with premium background -->
  <circle cx="150" cy="200" r="75" fill="#CFAE58" opacity="0.15" filter="url(#softGlow)"/>
  <circle cx="150" cy="200" r="70" fill="#CFAE58" opacity="0.25"/>
  <text x="150" y="235" font-size="90" text-anchor="middle" fill="#CFAE58" filter="url(#glow)">🫙</text>

  <!-- Premium logo (crown) with enhanced styling -->
  <g transform="translate(100, 70)">
    <path d="M 30 20 L 40 35 L 35 35 Z M 50 15 L 60 35 L 45 35 Z M 65 20 L 75 35 L 70 35 Z M 30 35 L 75 35 L 73 45 L 32 45 Z"
          fill="url(#goldGradient)" filter="url(#glow)" stroke="#B89842" stroke-width="0.5"/>
    <circle cx="40" cy="25" r="3" fill="#4FD1C5" filter="url(#glow)"/>
    <circle cx="52" cy="20" r="4" fill="#4FD1C5" filter="url(#glow)"/>
    <circle cx="65" cy="25" r="3" fill="#4FD1C5" filter="url(#glow)"/>
  </g>

  <!-- Title with shadow -->
  <text x="280" y="180" font-family="Georgia, serif" font-size="72" font-weight="bold"
        fill="url(#goldGradient)" filter="url(#shadow)">Premium Caviar</text>

  <!-- Subtitle with subtle glow -->
  <text x="280" y="230" font-family="Arial, sans-serif" font-size="36"
        fill="#D6DEE6" opacity="0.95" filter="url(#softGlow)">Excellence in Every Jar</text>

  <!-- Brand name with letter spacing -->
  <text x="280" y="300" font-family="Georgia, serif" font-size="32" font-weight="bold"
        fill="#CFAE58" letter-spacing="4" filter="url(#glow)">ROYAL KETA</text>

  <!-- Russian tagline -->
  <text x="280" y="340" font-family="Arial, sans-serif" font-size="22" font-style="italic"
        fill="#8B95A1" opacity="0.8">От икринки к королевской</text>

  <!-- Location -->
  <text x="280" y="380" font-family="Arial, sans-serif" font-size="20"
        fill="#8B95A1" opacity="0.7">Невельский район, Сахалин</text>

  <!-- Website with glow -->
  <text x="100" y="570" font-family="Arial, sans-serif" font-size="30" font-weight="bold"
        fill="#4FD1C5" filter="url(#glow)">royalketa.com</text>

  <!-- Enhanced decorative salmon silhouette -->
  <g transform="translate(950, 480)" opacity="0.2" filter="url(#softGlow)">
    <ellipse cx="0" cy="0" rx="90" ry="35" fill="#CFAE58"/>
    <path d="M 90 0 L 120 -18 L 130 0 L 120 18 Z" fill="#CFAE58"/>
    <path d="M -25 -35 L 0 -45 L 25 -35 Z" fill="#CFAE58"/>
    <ellipse cx="-50" cy="0" rx="15" ry="12" fill="#0B0F14"/>
  </g>

  <!-- Additional decorative caviar clusters -->
  <g opacity="0.2">
    <circle cx="1050" cy="120" r="6" fill="#CFAE58"/>
    <circle cx="1065" cy="115" r="5" fill="#CFAE58"/>
    <circle cx="1058" cy="130" r="4" fill="#CFAE58"/>
    <circle cx="150" cy="500" r="5" fill="#4FD1C5"/>
    <circle cx="165" cy="508" r="4" fill="#4FD1C5"/>
    <circle cx="140" cy="512" r="5" fill="#4FD1C5"/>
  </g>
</svg>