<svg width="1200" height="630" xmlns="http://www.w3.org/2000/svg">
  <defs>
    <linearGradient id="bgGradient" x1="0%" y1="0%" x2="100%" y2="100%">
      <stop offset="0%" style="stop-color:#0B0F14;stop-opacity:1" />
      <stop offset="50%" style="stop-color:#0F1619;stop-opacity:1" />
      <stop offset="100%" style="stop-color:#0F1922;stop-opacity:1" />
    </linearGradient>
    <linearGradient id="goldGradient" x1="0%" y1="0%" x2="100%" y2="0%">
      <stop offset="0%" style="stop-color:#E5D596;stop-opacity:1" />
      <stop offset="50%" style="stop-color:#CFAE58;stop-opacity:1" />
      <stop offset="100%" style="stop-color:#B89842;stop-opacity:1" />
    </linearGradient>
    <radialGradient id="oceanGradient" cx="50%" cy="50%" r="50%">
      <stop offset="0%" style="stop-color:#4FD1C5;stop-opacity:0.3" />
      <stop offset="100%" style="stop-color:#1E90A0;stop-opacity:0.05" />
    </radialGradient>
    <filter id="glow">
      <feGaussianBlur stdDeviation="5" result="coloredBlur"/>
      <feMerge>
        <feMergeNode in="coloredBlur"/>
        <feMergeNode in="SourceGraphic"/>
      </feMerge>
    </filter>
    <filter id="softGlow">
      <feGaussianBlur stdDeviation="8" result="coloredBlur"/>
      <feMerge>
        <feMergeNode in="coloredBlur"/>
        <feMergeNode in="SourceGraphic"/>
      </feMerge>
    </filter>
    <filter id="shadow">
      <feDropShadow dx="0" dy="4" stdDeviation="8" flood-color="#000000" flood-opacity="0.5"/>
    </filter>
  </defs>

  <!-- Background -->
  <rect width="1200" height="630" fill="url(#bgGradient)"/>

  <!-- Decorative ocean gradients -->
  <ellipse cx="1000" cy="150" rx="300" ry="200" fill="url(#oceanGradient)" opacity="0.4"/>
  <ellipse cx="200" cy="530" rx="250" ry="180" fill="url(#oceanGradient)" opacity="0.3"/>

  <!-- Wave patterns -->
  <path d="M 0 400 Q 300 350 600 400 T 1200 400 L 1200 630 L 0 630 Z" fill="#1E90A0" opacity="0.08"/>
  <path d="M 0 450 Q 250 420 500 450 T 1000 450 T 1200 450 L 1200 630 L 0 630 Z" fill="#4FD1C5" opacity="0.05"/>

  <!-- Caviar roe particles -->
  <circle cx="1066.8361124711762" cy="503.13373292267244" r="2.531543757541431" fill="#CFAE58" opacity="0.16728846332720737"/>
  <circle cx="584.2011700102181" cy="76.82514458330733" r="4.346555690711693" fill="#CFAE58" opacity="0.16735098333384774"/>
  <circle cx="242.52817745475355" cy="317.86534231598984" r="5.654078176793744" fill="#CFAE58" opacity="0.22737355876563337"/>
  <circle cx="248.8905461416127" cy="306.13742287743855" r="2.4386288326710748" fill="#CFAE58" opacity="0.10269231905151645"/>
  <circle cx="520.3737926874122" cy="524.2087327290301" r="3.7637051546520066" fill="#CFAE58" opacity="0.1593431011291772"/>
  <circle cx="884.661292163209" cy="212.33866377618014" r="5.265872590175926" fill="#CFAE58" opacity="0.16409290280525096"/>
  <circle cx="1080.3670612673618" cy="221.88926148643606" r="5.685984298056399" fill="#CFAE58" opacity="0.1608665079468461"/>
  <circle cx="118.28163856772153" cy="618.2819723505729" r="5.781754523624478" fill="#CFAE58" opacity="0.23052928763946112"/>
  <circle cx="352.43130766809594" cy="70.8774134546363" r="2.5497233659043204" fill="#CFAE58" opacity="0.23346210467728212"/>
  <circle cx="1082.7441428314157" cy="324.9912128417993" r="3.038853229137667" fill="#CFAE58" opacity="0.18611897820655665"/>
  <circle cx="380.33187481541586" cy="130.75157139443144" r="5.681796818280191" fill="#CFAE58" opacity="0.24547043117525622"/>
  <circle cx="785.7957893635212" cy="36.7007970179569" r="3.3029599080971535" fill="#CFAE58" opacity="0.11269967463927885"/>
  <circle cx="552.2202299942453" cy="365.4478634305608" r="2.8855981102433006" fill="#CFAE58" opacity="0.22623839049782657"/>
  <circle cx="24.711215460223013" cy="589.697660414286" r="4.040178493190813" fill="#CFAE58" opacity="0.15682345726294722"/>
  <circle cx="207.07151494951123" cy="459.19585420425517" r="5.210588626205938" fill="#CFAE58" opacity="0.13797251967517526"/>
  <circle cx="570.0789862288784" cy="346.17167804534716" r="2.2026586417300047" fill="#CFAE58" opacity="0.23988877713625004"/>
  <circle cx="738.5237931054018" cy="357.69133892141184" r="5.939508886929007" fill="#CFAE58" opacity="0.10161090677937545"/>
  <circle cx="675.723185419821" cy="591.6595570459857" r="3.254952043512798" fill="#CFAE58" opacity="0.1945411444679671"/>
  <circle cx="798.3858142159573" cy="415.8965329512231" r="2.92163239478603" fill="#CFAE58" opacity="0.2120740504894617"/>
  <circle cx="1081.064184251188" cy="607.2126473805289" r="4.7325285654277085" fill="#CFAE58" opacity="0.18255790765815996"/>
  <circle cx="467.17418526156496" cy="275.83893682396666" r="4.372739561639248" fill="#CFAE58" opacity="0.2117566230801322"/>
  <circle cx="469.409652020463" cy="414.3400326274632" r="5.992738820499939" fill="#CFAE58" opacity="0.14465542034372594"/>
  <circle cx="30.786786886912143" cy="16.276625750188398" r="4.000899076482136" fill="#CFAE58" opacity="0.1440324092547207"/>
  <circle cx="459.9475852495826" cy="303.1270971304914" r="3.802094180880023" fill="#CFAE58" opacity="0.2099757141282089"/>
  <circle cx="570.601514746976" cy="312.0487027857627" r="4.046067963385516" fill="#CFAE58" opacity="0.1568284025016355"/>
  <circle cx="530.2715169656553" cy="503.4569734349266" r="4.264470661807598" fill="#CFAE58" opacity="0.1643435334084859"/>
  <circle cx="125.36901059426756" cy="396.29894466861685" r="3.5579604357641337" fill="#CFAE58" opacity="0.11249547916945946"/>
  <circle cx="206.35934186363892" cy="440.63920622884484" r="4.567823520622497" fill="#CFAE58" opacity="0.13858824976539766"/>
  <circle cx="193.21028705723714" cy="364.38434870176104" r="2.024500244703338" fill="#CFAE58" opacity="0.20473992502707863"/>
  <circle cx="597.3153301931503" cy="89.09324585563483" r="4.529212941416691" fill="#CFAE58" opacity="0.16992801334995467"/>

  <!-- Border with glow -->
  <rect x="40" y="40" width="1120" height="550" fill="none" stroke="url(#goldGradient)" stroke-width="3" rx="12" filter="url(#softGlow)"/>

  <!-- Icon circle with premium background -->
  <circle cx="150" cy="200" r="75" fill="#CFAE58" opacity="0.15" filter="url(#softGlow)"/>
  <circle cx="150" cy="200" r="70" fill="#CFAE58" opacity="0.25"/>
  <text x="150" y="235" font-size="90" text-anchor="middle" fill="#CFAE58" filter="url(#glow)">🫙</text>

  <!-- Premium logo (crown) with enhanced styling -->
  <g transform="translate(100, 70)">
    <path d="M 30 20 L 40 35 L 35 35 Z M 50 15 L 60 35 L 45 35 Z M 65 20 L 75 35 L 70 35 Z M 30 35 L 75 35 L 73 45 L 32 45 Z"
          fill="url(#goldGradient)" filter="url(#glow)" stroke="#B89842" stroke-width="0.5"/>
    <circle cx="40" cy="25" r="3" fill="#4FD1C5" filter="url(#glow)"/>
    <circle cx="52" cy="20" r="4" fill="#4FD1C5" filter="url(#glow)"/>
    <circle cx="65" cy="25" r="3" fill="#4FD1C5" filter="url(#glow)"/>
  </g>

  <!-- Title with shadow -->
  <text x="280" y="180" font-family="Georgia, serif" font-size="72" font-weight="bold"
        fill="url(#goldGradient)" filter="url(#shadow)">Premium Caviar</text>

  <!-- Subtitle with subtle glow -->
  <text x="280" y="230" font-family="Arial, sans-serif" font-size="36"
        fill="#D6DEE6" opacity="0.95" filter="url(#softGlow)">Excellence in Every Jar</text>

  <!-- Brand name with letter spacing -->
  <text x="280" y="300" font-family="Georgia, serif" font-size="32" font-weight="bold"
        fill="#CFAE58" letter-spacing="4" filter="url(#glow)">ROYAL KETA</text>

  <!-- Russian tagline -->
  <text x="280" y="340" font-family="Arial, sans-serif" font-size="22" font-style="italic"
        fill="#8B95A1" opacity="0.8">От икринки к королевской</text>

  <!-- Location -->
  <text x="280" y="380" font-family="Arial, sans-serif" font-size="20"
        fill="#8B95A1" opacity="0.7">Невельский район, Сахалин</text>

  <!-- Website with glow -->
  <text x="100" y="570" font-family="Arial, sans-serif" font-size="30" font-weight="bold"
        fill="#4FD1C5" filter="url(#glow)">royalketa.com</text>

  <!-- Enhanced decorative salmon silhouette -->
  <g transform="translate(950, 480)" opacity="0.2" filter="url(#softGlow)">
    <ellipse cx="0" cy="0" rx="90" ry="35" fill="#CFAE58"/>
    <path d="M 90 0 L 120 -18 L 130 0 L 120 18 Z" fill="#CFAE58"/>
    <path d="M -25 -35 L 0 -45 L 25 -35 Z" fill="#CFAE58"/>
    <ellipse cx="-50" cy="0" rx="15" ry="12" fill="#0B0F14"/>
  </g>

  <!-- Additional decorative caviar clusters -->
  <g opacity="0.2">
    <circle cx="1050" cy="120" r="6" fill="#CFAE58"/>
    <circle cx="1065" cy="115" r="5" fill="#CFAE58"/>
    <circle cx="1058" cy="130" r="4" fill="#CFAE58"/>
    <circle cx="150" cy="500" r="5" fill="#4FD1C5"/>
    <circle cx="165" cy="508" r="4" fill="#4FD1C5"/>
    <circle cx="140" cy="512" r="5" fill="#4FD1C5"/>
  </g>
</svg>