<svg width="1200" height="630" xmlns="http://www.w3.org/2000/svg">
  <defs>
    <linearGradient id="bgGradient" x1="0%" y1="0%" x2="100%" y2="100%">
      <stop offset="0%" style="stop-color:#0B0F14;stop-opacity:1" />
      <stop offset="50%" style="stop-color:#0F1619;stop-opacity:1" />
      <stop offset="100%" style="stop-color:#0F1922;stop-opacity:1" />
    </linearGradient>
    <linearGradient id="goldGradient" x1="0%" y1="0%" x2="100%" y2="0%">
      <stop offset="0%" style="stop-color:#E5D596;stop-opacity:1" />
      <stop offset="50%" style="stop-color:#CFAE58;stop-opacity:1" />
      <stop offset="100%" style="stop-color:#B89842;stop-opacity:1" />
    </linearGradient>
    <radialGradient id="oceanGradient" cx="50%" cy="50%" r="50%">
      <stop offset="0%" style="stop-color:#4FD1C5;stop-opacity:0.3" />
      <stop offset="100%" style="stop-color:#1E90A0;stop-opacity:0.05" />
    </radialGradient>
    <filter id="glow">
      <feGaussianBlur stdDeviation="5" result="coloredBlur"/>
      <feMerge>
        <feMergeNode in="coloredBlur"/>
        <feMergeNode in="SourceGraphic"/>
      </feMerge>
    </filter>
    <filter id="softGlow">
      <feGaussianBlur stdDeviation="8" result="coloredBlur"/>
      <feMerge>
        <feMergeNode in="coloredBlur"/>
        <feMergeNode in="SourceGraphic"/>
      </feMerge>
    </filter>
    <filter id="shadow">
      <feDropShadow dx="0" dy="4" stdDeviation="8" flood-color="#000000" flood-opacity="0.5"/>
    </filter>
  </defs>

  <!-- Background -->
  <rect width="1200" height="630" fill="url(#bgGradient)"/>

  <!-- Decorative ocean gradients -->
  <ellipse cx="1000" cy="150" rx="300" ry="200" fill="url(#oceanGradient)" opacity="0.4"/>
  <ellipse cx="200" cy="530" rx="250" ry="180" fill="url(#oceanGradient)" opacity="0.3"/>

  <!-- Wave patterns -->
  <path d="M 0 400 Q 300 350 600 400 T 1200 400 L 1200 630 L 0 630 Z" fill="#1E90A0" opacity="0.08"/>
  <path d="M 0 450 Q 250 420 500 450 T 1000 450 T 1200 450 L 1200 630 L 0 630 Z" fill="#4FD1C5" opacity="0.05"/>

  <!-- Caviar roe particles -->
  <circle cx="338.652041336862" cy="593.1176712897321" r="5.8740884341308295" fill="#CFAE58" opacity="0.1928587662429251"/>
  <circle cx="1149.8394888516298" cy="436.43112271126853" r="2.14341464119878" fill="#CFAE58" opacity="0.14912848330347056"/>
  <circle cx="771.86164764493" cy="45.147545808871826" r="3.185198778603157" fill="#CFAE58" opacity="0.17997717535961322"/>
  <circle cx="194.0421462566674" cy="570.0072340418128" r="5.573346216781837" fill="#CFAE58" opacity="0.11474950495248414"/>
  <circle cx="798.1163039064769" cy="566.8019664025533" r="5.515810812017078" fill="#CFAE58" opacity="0.2196425579989586"/>
  <circle cx="664.352363648713" cy="624.9061219246582" r="3.8662533893142985" fill="#CFAE58" opacity="0.1801612140363646"/>
  <circle cx="1161.8128403097435" cy="166.0444518936633" r="3.7953537819404923" fill="#CFAE58" opacity="0.24473512367886965"/>
  <circle cx="87.69258371706776" cy="466.4819642461062" r="2.411403517100077" fill="#CFAE58" opacity="0.18879286984409976"/>
  <circle cx="984.9463997900285" cy="431.4218339888979" r="5.251686418970868" fill="#CFAE58" opacity="0.16672064763588323"/>
  <circle cx="794.9017571201664" cy="75.06000390231033" r="5.534773508421288" fill="#CFAE58" opacity="0.11596388049856957"/>
  <circle cx="648.9109684196053" cy="628.595026884182" r="2.07906314740502" fill="#CFAE58" opacity="0.18674799379175278"/>
  <circle cx="520.8183277928986" cy="43.81178593176938" r="4.4406842643075635" fill="#CFAE58" opacity="0.22579628866756474"/>
  <circle cx="529.0934411926779" cy="391.39054193960806" r="3.880418582919017" fill="#CFAE58" opacity="0.1023684243215909"/>
  <circle cx="835.2650365151478" cy="624.7905822571997" r="4.805247300038932" fill="#CFAE58" opacity="0.1627232279677147"/>
  <circle cx="926.2275858485777" cy="424.9487370817826" r="5.488146167313399" fill="#CFAE58" opacity="0.12184336195978626"/>
  <circle cx="1163.156033876046" cy="184.69697834858698" r="3.8287567014702155" fill="#CFAE58" opacity="0.19395058664834774"/>
  <circle cx="1099.2983221173542" cy="421.13340330718785" r="4.746165719623735" fill="#CFAE58" opacity="0.23047982787054472"/>
  <circle cx="885.6105999104907" cy="570.510585154089" r="5.995869466116702" fill="#CFAE58" opacity="0.16025742581507676"/>
  <circle cx="650.9724250289472" cy="450.79589180033935" r="4.714303762235641" fill="#CFAE58" opacity="0.19584222536369555"/>
  <circle cx="463.7956273720393" cy="486.4594831270653" r="5.610269666327094" fill="#CFAE58" opacity="0.10866475415546445"/>
  <circle cx="927.3109205523358" cy="494.0383862836933" r="4.863273013709533" fill="#CFAE58" opacity="0.23078699042967857"/>
  <circle cx="1060.8888445500816" cy="148.96392402160302" r="2.5987648824876577" fill="#CFAE58" opacity="0.20057212162024948"/>
  <circle cx="589.5008914381208" cy="6.33861706964041" r="2.6779934544318382" fill="#CFAE58" opacity="0.16981420583206316"/>
  <circle cx="1039.199281822526" cy="149.27789327177246" r="3.994883356083209" fill="#CFAE58" opacity="0.19212230804161215"/>
  <circle cx="1032.2439543731057" cy="323.95024527216265" r="3.8156720020820747" fill="#CFAE58" opacity="0.21389187355104627"/>
  <circle cx="504.2671489064384" cy="309.668281327504" r="4.511392934220858" fill="#CFAE58" opacity="0.13798280864068677"/>
  <circle cx="71.93840994926579" cy="307.7351122305839" r="5.134561409766831" fill="#CFAE58" opacity="0.13150929512944057"/>
  <circle cx="313.5606406696438" cy="359.065328588198" r="5.627053370951767" fill="#CFAE58" opacity="0.17104882005581323"/>
  <circle cx="723.8924565109426" cy="493.98229685500354" r="2.688845393733399" fill="#CFAE58" opacity="0.21476555742149805"/>
  <circle cx="441.8411770117019" cy="148.31088522970748" r="4.676964181163463" fill="#CFAE58" opacity="0.13281946809117093"/>

  <!-- Border with glow -->
  <rect x="40" y="40" width="1120" height="550" fill="none" stroke="url(#goldGradient)" stroke-width="3" rx="12" filter="url(#softGlow)"/>

  <!-- Icon circle with premium background -->
  <circle cx="150" cy="200" r="75" fill="#CFAE58" opacity="0.15" filter="url(#softGlow)"/>
  <circle cx="150" cy="200" r="70" fill="#CFAE58" opacity="0.25"/>
  <text x="150" y="235" font-size="90" text-anchor="middle" fill="#CFAE58" filter="url(#glow)">🫙</text>

  <!-- Premium logo (crown) with enhanced styling -->
  <g transform="translate(100, 70)">
    <path d="M 30 20 L 40 35 L 35 35 Z M 50 15 L 60 35 L 45 35 Z M 65 20 L 75 35 L 70 35 Z M 30 35 L 75 35 L 73 45 L 32 45 Z"
          fill="url(#goldGradient)" filter="url(#glow)" stroke="#B89842" stroke-width="0.5"/>
    <circle cx="40" cy="25" r="3" fill="#4FD1C5" filter="url(#glow)"/>
    <circle cx="52" cy="20" r="4" fill="#4FD1C5" filter="url(#glow)"/>
    <circle cx="65" cy="25" r="3" fill="#4FD1C5" filter="url(#glow)"/>
  </g>

  <!-- Title with shadow -->
  <text x="280" y="180" font-family="Georgia, serif" font-size="72" font-weight="bold"
        fill="url(#goldGradient)" filter="url(#shadow)">Premium Caviar</text>

  <!-- Subtitle with subtle glow -->
  <text x="280" y="230" font-family="Arial, sans-serif" font-size="36"
        fill="#D6DEE6" opacity="0.95" filter="url(#softGlow)">Excellence in Every Jar</text>

  <!-- Brand name with letter spacing -->
  <text x="280" y="300" font-family="Georgia, serif" font-size="32" font-weight="bold"
        fill="#CFAE58" letter-spacing="4" filter="url(#glow)">ROYAL KETA</text>

  <!-- Russian tagline -->
  <text x="280" y="340" font-family="Arial, sans-serif" font-size="22" font-style="italic"
        fill="#8B95A1" opacity="0.8">От икринки к королевской</text>

  <!-- Location -->
  <text x="280" y="380" font-family="Arial, sans-serif" font-size="20"
        fill="#8B95A1" opacity="0.7">Невельский район, Сахалин</text>

  <!-- Website with glow -->
  <text x="100" y="570" font-family="Arial, sans-serif" font-size="30" font-weight="bold"
        fill="#4FD1C5" filter="url(#glow)">royalketa.com</text>

  <!-- Enhanced decorative salmon silhouette -->
  <g transform="translate(950, 480)" opacity="0.2" filter="url(#softGlow)">
    <ellipse cx="0" cy="0" rx="90" ry="35" fill="#CFAE58"/>
    <path d="M 90 0 L 120 -18 L 130 0 L 120 18 Z" fill="#CFAE58"/>
    <path d="M -25 -35 L 0 -45 L 25 -35 Z" fill="#CFAE58"/>
    <ellipse cx="-50" cy="0" rx="15" ry="12" fill="#0B0F14"/>
  </g>

  <!-- Additional decorative caviar clusters -->
  <g opacity="0.2">
    <circle cx="1050" cy="120" r="6" fill="#CFAE58"/>
    <circle cx="1065" cy="115" r="5" fill="#CFAE58"/>
    <circle cx="1058" cy="130" r="4" fill="#CFAE58"/>
    <circle cx="150" cy="500" r="5" fill="#4FD1C5"/>
    <circle cx="165" cy="508" r="4" fill="#4FD1C5"/>
    <circle cx="140" cy="512" r="5" fill="#4FD1C5"/>
  </g>
</svg>