<svg width="1200" height="630" xmlns="http://www.w3.org/2000/svg">
  <defs>
    <linearGradient id="bgGradient" x1="0%" y1="0%" x2="100%" y2="100%">
      <stop offset="0%" style="stop-color:#0B0F14;stop-opacity:1" />
      <stop offset="50%" style="stop-color:#0F1619;stop-opacity:1" />
      <stop offset="100%" style="stop-color:#0F1922;stop-opacity:1" />
    </linearGradient>
    <linearGradient id="goldGradient" x1="0%" y1="0%" x2="100%" y2="0%">
      <stop offset="0%" style="stop-color:#E5D596;stop-opacity:1" />
      <stop offset="50%" style="stop-color:#CFAE58;stop-opacity:1" />
      <stop offset="100%" style="stop-color:#B89842;stop-opacity:1" />
    </linearGradient>
    <radialGradient id="oceanGradient" cx="50%" cy="50%" r="50%">
      <stop offset="0%" style="stop-color:#4FD1C5;stop-opacity:0.3" />
      <stop offset="100%" style="stop-color:#1E90A0;stop-opacity:0.05" />
    </radialGradient>
    <filter id="glow">
      <feGaussianBlur stdDeviation="5" result="coloredBlur"/>
      <feMerge>
        <feMergeNode in="coloredBlur"/>
        <feMergeNode in="SourceGraphic"/>
      </feMerge>
    </filter>
    <filter id="softGlow">
      <feGaussianBlur stdDeviation="8" result="coloredBlur"/>
      <feMerge>
        <feMergeNode in="coloredBlur"/>
        <feMergeNode in="SourceGraphic"/>
      </feMerge>
    </filter>
    <filter id="shadow">
      <feDropShadow dx="0" dy="4" stdDeviation="8" flood-color="#000000" flood-opacity="0.5"/>
    </filter>
  </defs>

  <!-- Background -->
  <rect width="1200" height="630" fill="url(#bgGradient)"/>

  <!-- Decorative ocean gradients -->
  <ellipse cx="1000" cy="150" rx="300" ry="200" fill="url(#oceanGradient)" opacity="0.4"/>
  <ellipse cx="200" cy="530" rx="250" ry="180" fill="url(#oceanGradient)" opacity="0.3"/>

  <!-- Wave patterns -->
  <path d="M 0 400 Q 300 350 600 400 T 1200 400 L 1200 630 L 0 630 Z" fill="#1E90A0" opacity="0.08"/>
  <path d="M 0 450 Q 250 420 500 450 T 1000 450 T 1200 450 L 1200 630 L 0 630 Z" fill="#4FD1C5" opacity="0.05"/>

  <!-- Caviar roe particles -->
  <circle cx="616.547976517717" cy="554.4931509470788" r="2.009858314816208" fill="#CFAE58" opacity="0.24384851598464363"/>
  <circle cx="749.2102743823173" cy="291.4975594625096" r="3.1623261641071103" fill="#CFAE58" opacity="0.20080514960721302"/>
  <circle cx="1011.9159498461138" cy="191.19025632916924" r="2.667498918080989" fill="#CFAE58" opacity="0.22725486295420932"/>
  <circle cx="295.9882449533478" cy="221.36441855870015" r="5.500245345431397" fill="#CFAE58" opacity="0.17841501059988485"/>
  <circle cx="763.0154768505365" cy="390.05369142628433" r="5.338387923443159" fill="#CFAE58" opacity="0.14923366530473875"/>
  <circle cx="757.6049030912151" cy="328.30845689165227" r="2.318323702844469" fill="#CFAE58" opacity="0.17998022017655035"/>
  <circle cx="853.7530033155829" cy="40.63244053241802" r="5.213769158455473" fill="#CFAE58" opacity="0.20875390875504568"/>
  <circle cx="512.5542782771512" cy="36.83564507859137" r="5.950906573707852" fill="#CFAE58" opacity="0.10642335364966973"/>
  <circle cx="731.9208260824186" cy="231.14756467138733" r="2.572166393217528" fill="#CFAE58" opacity="0.20965663956055003"/>
  <circle cx="92.00528344459222" cy="23.85021766590529" r="3.078325925532906" fill="#CFAE58" opacity="0.17586127168891624"/>
  <circle cx="49.730559556115495" cy="423.3971438745535" r="5.21840687734807" fill="#CFAE58" opacity="0.17612091080224584"/>
  <circle cx="567.3556147728787" cy="63.62673095104341" r="3.705248858671264" fill="#CFAE58" opacity="0.15573487588448306"/>
  <circle cx="227.09641585466258" cy="33.692297135647124" r="5.318272072095509" fill="#CFAE58" opacity="0.2220358616899202"/>
  <circle cx="451.3166988483862" cy="174.27151768240896" r="3.639784482114262" fill="#CFAE58" opacity="0.11788972956127292"/>
  <circle cx="348.4102585338211" cy="623.4070083171137" r="4.834215168625706" fill="#CFAE58" opacity="0.2349578263971767"/>
  <circle cx="1042.4107864418136" cy="341.95658564007266" r="3.8191414493582645" fill="#CFAE58" opacity="0.2177799859738145"/>
  <circle cx="590.2849319461822" cy="552.3867664570774" r="5.132646720668488" fill="#CFAE58" opacity="0.13348305345422637"/>
  <circle cx="832.1699028100282" cy="206.30620480559844" r="2.1054057570582287" fill="#CFAE58" opacity="0.16929539091588724"/>
  <circle cx="392.6340776925797" cy="423.1213999424577" r="3.036002506283241" fill="#CFAE58" opacity="0.20897531474738149"/>
  <circle cx="111.09350994780102" cy="538.5557182944218" r="4.230376369976886" fill="#CFAE58" opacity="0.15138218429713227"/>
  <circle cx="870.7775656844502" cy="7.277363778951694" r="5.92525732521699" fill="#CFAE58" opacity="0.14579100701206427"/>
  <circle cx="832.8838374926374" cy="396.66315352181385" r="5.569321134930396" fill="#CFAE58" opacity="0.1761202472724821"/>
  <circle cx="553.6484486103333" cy="499.93763806909453" r="2.5053370547070646" fill="#CFAE58" opacity="0.10747168490380472"/>
  <circle cx="358.90908838671123" cy="226.45139452586554" r="3.843004415555993" fill="#CFAE58" opacity="0.1816876346212737"/>
  <circle cx="1078.8036484725421" cy="111.32049066835923" r="5.170607570459685" fill="#CFAE58" opacity="0.23361583379121528"/>
  <circle cx="446.25627201973816" cy="14.858055784263225" r="3.920830316527635" fill="#CFAE58" opacity="0.13832394314251512"/>
  <circle cx="236.9180252860301" cy="367.8910729205735" r="3.2172526904889143" fill="#CFAE58" opacity="0.192098103862928"/>
  <circle cx="220.9085940830807" cy="160.26224233849692" r="5.7170302939793505" fill="#CFAE58" opacity="0.18934454688785335"/>
  <circle cx="1084.0212212063814" cy="125.18354555550741" r="5.260110864834287" fill="#CFAE58" opacity="0.12340897509350135"/>
  <circle cx="874.6160464912298" cy="332.0714101515617" r="2.5772948722012217" fill="#CFAE58" opacity="0.2342783262404604"/>

  <!-- Border with glow -->
  <rect x="40" y="40" width="1120" height="550" fill="none" stroke="url(#goldGradient)" stroke-width="3" rx="12" filter="url(#softGlow)"/>

  <!-- Icon circle with premium background -->
  <circle cx="150" cy="200" r="75" fill="#CFAE58" opacity="0.15" filter="url(#softGlow)"/>
  <circle cx="150" cy="200" r="70" fill="#CFAE58" opacity="0.25"/>
  <text x="150" y="235" font-size="90" text-anchor="middle" fill="#CFAE58" filter="url(#glow)">🫙</text>

  <!-- Premium logo (crown) with enhanced styling -->
  <g transform="translate(100, 70)">
    <path d="M 30 20 L 40 35 L 35 35 Z M 50 15 L 60 35 L 45 35 Z M 65 20 L 75 35 L 70 35 Z M 30 35 L 75 35 L 73 45 L 32 45 Z"
          fill="url(#goldGradient)" filter="url(#glow)" stroke="#B89842" stroke-width="0.5"/>
    <circle cx="40" cy="25" r="3" fill="#4FD1C5" filter="url(#glow)"/>
    <circle cx="52" cy="20" r="4" fill="#4FD1C5" filter="url(#glow)"/>
    <circle cx="65" cy="25" r="3" fill="#4FD1C5" filter="url(#glow)"/>
  </g>

  <!-- Title with shadow -->
  <text x="280" y="180" font-family="Georgia, serif" font-size="72" font-weight="bold"
        fill="url(#goldGradient)" filter="url(#shadow)">Premium Caviar</text>

  <!-- Subtitle with subtle glow -->
  <text x="280" y="230" font-family="Arial, sans-serif" font-size="36"
        fill="#D6DEE6" opacity="0.95" filter="url(#softGlow)">Excellence in Every Jar</text>

  <!-- Brand name with letter spacing -->
  <text x="280" y="300" font-family="Georgia, serif" font-size="32" font-weight="bold"
        fill="#CFAE58" letter-spacing="4" filter="url(#glow)">ROYAL KETA</text>

  <!-- Russian tagline -->
  <text x="280" y="340" font-family="Arial, sans-serif" font-size="22" font-style="italic"
        fill="#8B95A1" opacity="0.8">От икринки к королевской</text>

  <!-- Location -->
  <text x="280" y="380" font-family="Arial, sans-serif" font-size="20"
        fill="#8B95A1" opacity="0.7">Невельский район, Сахалин</text>

  <!-- Website with glow -->
  <text x="100" y="570" font-family="Arial, sans-serif" font-size="30" font-weight="bold"
        fill="#4FD1C5" filter="url(#glow)">royalketa.com</text>

  <!-- Enhanced decorative salmon silhouette -->
  <g transform="translate(950, 480)" opacity="0.2" filter="url(#softGlow)">
    <ellipse cx="0" cy="0" rx="90" ry="35" fill="#CFAE58"/>
    <path d="M 90 0 L 120 -18 L 130 0 L 120 18 Z" fill="#CFAE58"/>
    <path d="M -25 -35 L 0 -45 L 25 -35 Z" fill="#CFAE58"/>
    <ellipse cx="-50" cy="0" rx="15" ry="12" fill="#0B0F14"/>
  </g>

  <!-- Additional decorative caviar clusters -->
  <g opacity="0.2">
    <circle cx="1050" cy="120" r="6" fill="#CFAE58"/>
    <circle cx="1065" cy="115" r="5" fill="#CFAE58"/>
    <circle cx="1058" cy="130" r="4" fill="#CFAE58"/>
    <circle cx="150" cy="500" r="5" fill="#4FD1C5"/>
    <circle cx="165" cy="508" r="4" fill="#4FD1C5"/>
    <circle cx="140" cy="512" r="5" fill="#4FD1C5"/>
  </g>
</svg>