<svg width="1200" height="630" xmlns="http://www.w3.org/2000/svg">
  <defs>
    <linearGradient id="bgGradient" x1="0%" y1="0%" x2="100%" y2="100%">
      <stop offset="0%" style="stop-color:#0B0F14;stop-opacity:1" />
      <stop offset="50%" style="stop-color:#0F1619;stop-opacity:1" />
      <stop offset="100%" style="stop-color:#0F1922;stop-opacity:1" />
    </linearGradient>
    <linearGradient id="goldGradient" x1="0%" y1="0%" x2="100%" y2="0%">
      <stop offset="0%" style="stop-color:#E5D596;stop-opacity:1" />
      <stop offset="50%" style="stop-color:#CFAE58;stop-opacity:1" />
      <stop offset="100%" style="stop-color:#B89842;stop-opacity:1" />
    </linearGradient>
    <radialGradient id="oceanGradient" cx="50%" cy="50%" r="50%">
      <stop offset="0%" style="stop-color:#4FD1C5;stop-opacity:0.3" />
      <stop offset="100%" style="stop-color:#1E90A0;stop-opacity:0.05" />
    </radialGradient>
    <filter id="glow">
      <feGaussianBlur stdDeviation="5" result="coloredBlur"/>
      <feMerge>
        <feMergeNode in="coloredBlur"/>
        <feMergeNode in="SourceGraphic"/>
      </feMerge>
    </filter>
    <filter id="softGlow">
      <feGaussianBlur stdDeviation="8" result="coloredBlur"/>
      <feMerge>
        <feMergeNode in="coloredBlur"/>
        <feMergeNode in="SourceGraphic"/>
      </feMerge>
    </filter>
    <filter id="shadow">
      <feDropShadow dx="0" dy="4" stdDeviation="8" flood-color="#000000" flood-opacity="0.5"/>
    </filter>
  </defs>

  <!-- Background -->
  <rect width="1200" height="630" fill="url(#bgGradient)"/>

  <!-- Decorative ocean gradients -->
  <ellipse cx="1000" cy="150" rx="300" ry="200" fill="url(#oceanGradient)" opacity="0.4"/>
  <ellipse cx="200" cy="530" rx="250" ry="180" fill="url(#oceanGradient)" opacity="0.3"/>

  <!-- Wave patterns -->
  <path d="M 0 400 Q 300 350 600 400 T 1200 400 L 1200 630 L 0 630 Z" fill="#1E90A0" opacity="0.08"/>
  <path d="M 0 450 Q 250 420 500 450 T 1000 450 T 1200 450 L 1200 630 L 0 630 Z" fill="#4FD1C5" opacity="0.05"/>

  <!-- Caviar roe particles -->
  <circle cx="929.5493740623403" cy="82.85430399868581" r="2.5963486466633263" fill="#CFAE58" opacity="0.18657293759174337"/>
  <circle cx="1175.2513375080202" cy="155.19124421982428" r="4.224653385284297" fill="#CFAE58" opacity="0.16738722490377267"/>
  <circle cx="840.5189474199783" cy="350.0903871144525" r="2.8600812145035857" fill="#CFAE58" opacity="0.13113421586473978"/>
  <circle cx="739.8383080875177" cy="300.333045629865" r="3.781078141430676" fill="#CFAE58" opacity="0.14460249449410784"/>
  <circle cx="552.369301136069" cy="142.7419613978767" r="4.073758504223488" fill="#CFAE58" opacity="0.1101153913873372"/>
  <circle cx="641.8142957980708" cy="59.80026360196557" r="2.2847082663775042" fill="#CFAE58" opacity="0.1683260827492778"/>
  <circle cx="519.437776534778" cy="6.358639289075063" r="5.7891023732217555" fill="#CFAE58" opacity="0.17998861320688087"/>
  <circle cx="360.82108708801996" cy="550.7334575817199" r="4.997306907318763" fill="#CFAE58" opacity="0.15912588273256417"/>
  <circle cx="868.449409210948" cy="254.57821129229023" r="3.1707365901331057" fill="#CFAE58" opacity="0.208817820169023"/>
  <circle cx="946.3248581071178" cy="154.63150778014153" r="3.2295826552830826" fill="#CFAE58" opacity="0.12978731263645993"/>
  <circle cx="571.152308815099" cy="569.1246669323767" r="2.037812048454245" fill="#CFAE58" opacity="0.20384019008367"/>
  <circle cx="121.4519501095019" cy="519.9363188911408" r="5.117472673145836" fill="#CFAE58" opacity="0.23376009952333945"/>
  <circle cx="783.3740499745132" cy="124.90507835645008" r="4.764638493190297" fill="#CFAE58" opacity="0.10579719327781004"/>
  <circle cx="760.0620898509468" cy="120.08227485983015" r="3.749633306809571" fill="#CFAE58" opacity="0.22458969137378837"/>
  <circle cx="316.1567644200076" cy="306.648667936742" r="4.655639451204504" fill="#CFAE58" opacity="0.24100714589813652"/>
  <circle cx="1050.1072488761438" cy="187.89314613519167" r="4.555778056019219" fill="#CFAE58" opacity="0.2374008242308286"/>
  <circle cx="179.5095113917796" cy="113.0520863060584" r="2.896285628721178" fill="#CFAE58" opacity="0.11283538946603781"/>
  <circle cx="645.1457469381589" cy="433.458089739025" r="3.940635334121323" fill="#CFAE58" opacity="0.24608403220205233"/>
  <circle cx="1124.8226761330902" cy="12.135263085407221" r="3.6097338425289642" fill="#CFAE58" opacity="0.21706949426945982"/>
  <circle cx="1069.7738556151296" cy="424.64739478164455" r="4.892430755573685" fill="#CFAE58" opacity="0.1832360912778027"/>
  <circle cx="809.3920624184217" cy="349.1704179467081" r="5.3385925085922565" fill="#CFAE58" opacity="0.21105772073500412"/>
  <circle cx="460.4474600928543" cy="370.62999129892614" r="3.484172184694547" fill="#CFAE58" opacity="0.12874221159751548"/>
  <circle cx="1195.0517538967842" cy="22.767137468571857" r="3.624036580803084" fill="#CFAE58" opacity="0.19805286744877404"/>
  <circle cx="527.9541045578894" cy="361.74566625188083" r="3.6952646041804647" fill="#CFAE58" opacity="0.16490344220800485"/>
  <circle cx="85.2519127986171" cy="508.20174563776146" r="5.759534441301169" fill="#CFAE58" opacity="0.12136059587902134"/>
  <circle cx="184.31166916507723" cy="91.48398084766313" r="4.562191310393469" fill="#CFAE58" opacity="0.21533170207490016"/>
  <circle cx="1108.9257067487617" cy="217.80599445485637" r="5.127669565791537" fill="#CFAE58" opacity="0.1807306665061556"/>
  <circle cx="590.0173523635008" cy="565.397992543966" r="5.504110083231655" fill="#CFAE58" opacity="0.19751309702857112"/>
  <circle cx="187.4870370028499" cy="386.62697317771364" r="3.668192297509223" fill="#CFAE58" opacity="0.1114373843441459"/>
  <circle cx="285.2491767777018" cy="176.4395914339127" r="3.8311877518011066" fill="#CFAE58" opacity="0.2453095097207652"/>

  <!-- Border with glow -->
  <rect x="40" y="40" width="1120" height="550" fill="none" stroke="url(#goldGradient)" stroke-width="3" rx="12" filter="url(#softGlow)"/>

  <!-- Icon circle with premium background -->
  <circle cx="150" cy="200" r="75" fill="#CFAE58" opacity="0.15" filter="url(#softGlow)"/>
  <circle cx="150" cy="200" r="70" fill="#CFAE58" opacity="0.25"/>
  <text x="150" y="235" font-size="90" text-anchor="middle" fill="#CFAE58" filter="url(#glow)">🫙</text>

  <!-- Premium logo (crown) with enhanced styling -->
  <g transform="translate(100, 70)">
    <path d="M 30 20 L 40 35 L 35 35 Z M 50 15 L 60 35 L 45 35 Z M 65 20 L 75 35 L 70 35 Z M 30 35 L 75 35 L 73 45 L 32 45 Z"
          fill="url(#goldGradient)" filter="url(#glow)" stroke="#B89842" stroke-width="0.5"/>
    <circle cx="40" cy="25" r="3" fill="#4FD1C5" filter="url(#glow)"/>
    <circle cx="52" cy="20" r="4" fill="#4FD1C5" filter="url(#glow)"/>
    <circle cx="65" cy="25" r="3" fill="#4FD1C5" filter="url(#glow)"/>
  </g>

  <!-- Title with shadow -->
  <text x="280" y="180" font-family="Georgia, serif" font-size="72" font-weight="bold"
        fill="url(#goldGradient)" filter="url(#shadow)">Premium Caviar</text>

  <!-- Subtitle with subtle glow -->
  <text x="280" y="230" font-family="Arial, sans-serif" font-size="36"
        fill="#D6DEE6" opacity="0.95" filter="url(#softGlow)">Excellence in Every Jar</text>

  <!-- Brand name with letter spacing -->
  <text x="280" y="300" font-family="Georgia, serif" font-size="32" font-weight="bold"
        fill="#CFAE58" letter-spacing="4" filter="url(#glow)">ROYAL KETA</text>

  <!-- Russian tagline -->
  <text x="280" y="340" font-family="Arial, sans-serif" font-size="22" font-style="italic"
        fill="#8B95A1" opacity="0.8">От икринки к королевской</text>

  <!-- Location -->
  <text x="280" y="380" font-family="Arial, sans-serif" font-size="20"
        fill="#8B95A1" opacity="0.7">Невельский район, Сахалин</text>

  <!-- Website with glow -->
  <text x="100" y="570" font-family="Arial, sans-serif" font-size="30" font-weight="bold"
        fill="#4FD1C5" filter="url(#glow)">royalketa.com</text>

  <!-- Enhanced decorative salmon silhouette -->
  <g transform="translate(950, 480)" opacity="0.2" filter="url(#softGlow)">
    <ellipse cx="0" cy="0" rx="90" ry="35" fill="#CFAE58"/>
    <path d="M 90 0 L 120 -18 L 130 0 L 120 18 Z" fill="#CFAE58"/>
    <path d="M -25 -35 L 0 -45 L 25 -35 Z" fill="#CFAE58"/>
    <ellipse cx="-50" cy="0" rx="15" ry="12" fill="#0B0F14"/>
  </g>

  <!-- Additional decorative caviar clusters -->
  <g opacity="0.2">
    <circle cx="1050" cy="120" r="6" fill="#CFAE58"/>
    <circle cx="1065" cy="115" r="5" fill="#CFAE58"/>
    <circle cx="1058" cy="130" r="4" fill="#CFAE58"/>
    <circle cx="150" cy="500" r="5" fill="#4FD1C5"/>
    <circle cx="165" cy="508" r="4" fill="#4FD1C5"/>
    <circle cx="140" cy="512" r="5" fill="#4FD1C5"/>
  </g>
</svg>