<svg width="1200" height="630" xmlns="http://www.w3.org/2000/svg">
  <defs>
    <linearGradient id="bgGradient" x1="0%" y1="0%" x2="100%" y2="100%">
      <stop offset="0%" style="stop-color:#0B0F14;stop-opacity:1" />
      <stop offset="50%" style="stop-color:#0F1619;stop-opacity:1" />
      <stop offset="100%" style="stop-color:#0F1922;stop-opacity:1" />
    </linearGradient>
    <linearGradient id="goldGradient" x1="0%" y1="0%" x2="100%" y2="0%">
      <stop offset="0%" style="stop-color:#E5D596;stop-opacity:1" />
      <stop offset="50%" style="stop-color:#CFAE58;stop-opacity:1" />
      <stop offset="100%" style="stop-color:#B89842;stop-opacity:1" />
    </linearGradient>
    <radialGradient id="oceanGradient" cx="50%" cy="50%" r="50%">
      <stop offset="0%" style="stop-color:#4FD1C5;stop-opacity:0.3" />
      <stop offset="100%" style="stop-color:#1E90A0;stop-opacity:0.05" />
    </radialGradient>
    <filter id="glow">
      <feGaussianBlur stdDeviation="5" result="coloredBlur"/>
      <feMerge>
        <feMergeNode in="coloredBlur"/>
        <feMergeNode in="SourceGraphic"/>
      </feMerge>
    </filter>
    <filter id="softGlow">
      <feGaussianBlur stdDeviation="8" result="coloredBlur"/>
      <feMerge>
        <feMergeNode in="coloredBlur"/>
        <feMergeNode in="SourceGraphic"/>
      </feMerge>
    </filter>
    <filter id="shadow">
      <feDropShadow dx="0" dy="4" stdDeviation="8" flood-color="#000000" flood-opacity="0.5"/>
    </filter>
  </defs>

  <!-- Background -->
  <rect width="1200" height="630" fill="url(#bgGradient)"/>

  <!-- Decorative ocean gradients -->
  <ellipse cx="1000" cy="150" rx="300" ry="200" fill="url(#oceanGradient)" opacity="0.4"/>
  <ellipse cx="200" cy="530" rx="250" ry="180" fill="url(#oceanGradient)" opacity="0.3"/>

  <!-- Wave patterns -->
  <path d="M 0 400 Q 300 350 600 400 T 1200 400 L 1200 630 L 0 630 Z" fill="#1E90A0" opacity="0.08"/>
  <path d="M 0 450 Q 250 420 500 450 T 1000 450 T 1200 450 L 1200 630 L 0 630 Z" fill="#4FD1C5" opacity="0.05"/>

  <!-- Caviar roe particles -->
  <circle cx="861.1428485936376" cy="554.9390207343503" r="4.747754560909" fill="#CFAE58" opacity="0.11116457639687627"/>
  <circle cx="487.38925784012304" cy="178.276419513101" r="4.564001820168217" fill="#CFAE58" opacity="0.18857658174295455"/>
  <circle cx="946.0408658980809" cy="495.5920616506332" r="4.989957213250301" fill="#CFAE58" opacity="0.2067962065673657"/>
  <circle cx="1155.6487081019977" cy="88.12979980561076" r="2.672011372198495" fill="#CFAE58" opacity="0.18179114782395195"/>
  <circle cx="200.49713234323733" cy="154.387450645394" r="3.676750420054671" fill="#CFAE58" opacity="0.1262949014834502"/>
  <circle cx="672.0619847651698" cy="247.6638126378362" r="4.310728296858231" fill="#CFAE58" opacity="0.1441101742003889"/>
  <circle cx="474.0168207712263" cy="107.88060951196303" r="2.4639727239876956" fill="#CFAE58" opacity="0.144507190415578"/>
  <circle cx="500.03317421780264" cy="255.57748240598949" r="5.800215241035677" fill="#CFAE58" opacity="0.16659937314265139"/>
  <circle cx="570.6323119653623" cy="155.5146236069624" r="5.714867910931375" fill="#CFAE58" opacity="0.13387123797435302"/>
  <circle cx="768.2800009340075" cy="358.24109659963824" r="5.567929189976504" fill="#CFAE58" opacity="0.13387641246213988"/>
  <circle cx="554.5680529114746" cy="456.51193924996863" r="5.405034106475153" fill="#CFAE58" opacity="0.19029048642526852"/>
  <circle cx="326.88875549528717" cy="293.3674114744122" r="4.117678502587507" fill="#CFAE58" opacity="0.2333802117353383"/>
  <circle cx="162.53661281841622" cy="98.73714966357788" r="2.5242043347030956" fill="#CFAE58" opacity="0.2148723388293805"/>
  <circle cx="458.00235506668116" cy="391.1162705460612" r="3.7530200768527466" fill="#CFAE58" opacity="0.21784732621142916"/>
  <circle cx="513.9602896040252" cy="487.06115124044413" r="4.053145489024449" fill="#CFAE58" opacity="0.11493908837078802"/>
  <circle cx="1119.135254242551" cy="589.469264715271" r="5.088827499357079" fill="#CFAE58" opacity="0.14235881062113231"/>
  <circle cx="768.3253068761525" cy="179.45592425350574" r="5.796099711093539" fill="#CFAE58" opacity="0.19505523611806175"/>
  <circle cx="773.0136328187112" cy="125.72134284021693" r="3.6374015793374936" fill="#CFAE58" opacity="0.10186576868494386"/>
  <circle cx="724.5059885571154" cy="502.97650707370207" r="4.604208916938999" fill="#CFAE58" opacity="0.15686860762857158"/>
  <circle cx="1167.2114245452142" cy="64.82029685784508" r="5.057853759995242" fill="#CFAE58" opacity="0.11547240788418733"/>
  <circle cx="841.4459345884494" cy="344.8602071970293" r="4.325359663829551" fill="#CFAE58" opacity="0.14714742809506284"/>
  <circle cx="878.7903069674895" cy="39.40030787172104" r="3.1600880050518594" fill="#CFAE58" opacity="0.1741771008335719"/>
  <circle cx="529.7635408356048" cy="555.8672240838544" r="3.313825497298868" fill="#CFAE58" opacity="0.10731198295662193"/>
  <circle cx="1185.576530832897" cy="138.17289756740217" r="2.763903595817207" fill="#CFAE58" opacity="0.13150437304360568"/>
  <circle cx="3.477433474520941" cy="624.28593447526" r="4.029372924831415" fill="#CFAE58" opacity="0.2030764489190106"/>
  <circle cx="104.07760902285759" cy="379.37025886827814" r="4.496335543456161" fill="#CFAE58" opacity="0.22579152271636263"/>
  <circle cx="565.6623164663077" cy="569.8254884515696" r="4.6852804217126955" fill="#CFAE58" opacity="0.22489510654277445"/>
  <circle cx="90.04589493632223" cy="576.3847254081201" r="4.616725143940201" fill="#CFAE58" opacity="0.23891762422960577"/>
  <circle cx="550.3940457578655" cy="528.378054365762" r="3.318578704708694" fill="#CFAE58" opacity="0.22768767517326016"/>
  <circle cx="669.8457260240588" cy="489.32631241622636" r="3.092320467988858" fill="#CFAE58" opacity="0.2207184726292967"/>

  <!-- Border with glow -->
  <rect x="40" y="40" width="1120" height="550" fill="none" stroke="url(#goldGradient)" stroke-width="3" rx="12" filter="url(#softGlow)"/>

  <!-- Icon circle with premium background -->
  <circle cx="150" cy="200" r="75" fill="#CFAE58" opacity="0.15" filter="url(#softGlow)"/>
  <circle cx="150" cy="200" r="70" fill="#CFAE58" opacity="0.25"/>
  <text x="150" y="235" font-size="90" text-anchor="middle" fill="#CFAE58" filter="url(#glow)">🫙</text>

  <!-- Premium logo (crown) with enhanced styling -->
  <g transform="translate(100, 70)">
    <path d="M 30 20 L 40 35 L 35 35 Z M 50 15 L 60 35 L 45 35 Z M 65 20 L 75 35 L 70 35 Z M 30 35 L 75 35 L 73 45 L 32 45 Z"
          fill="url(#goldGradient)" filter="url(#glow)" stroke="#B89842" stroke-width="0.5"/>
    <circle cx="40" cy="25" r="3" fill="#4FD1C5" filter="url(#glow)"/>
    <circle cx="52" cy="20" r="4" fill="#4FD1C5" filter="url(#glow)"/>
    <circle cx="65" cy="25" r="3" fill="#4FD1C5" filter="url(#glow)"/>
  </g>

  <!-- Title with shadow -->
  <text x="280" y="180" font-family="Georgia, serif" font-size="72" font-weight="bold"
        fill="url(#goldGradient)" filter="url(#shadow)">Premium Caviar</text>

  <!-- Subtitle with subtle glow -->
  <text x="280" y="230" font-family="Arial, sans-serif" font-size="36"
        fill="#D6DEE6" opacity="0.95" filter="url(#softGlow)">Excellence in Every Jar</text>

  <!-- Brand name with letter spacing -->
  <text x="280" y="300" font-family="Georgia, serif" font-size="32" font-weight="bold"
        fill="#CFAE58" letter-spacing="4" filter="url(#glow)">ROYAL KETA</text>

  <!-- Russian tagline -->
  <text x="280" y="340" font-family="Arial, sans-serif" font-size="22" font-style="italic"
        fill="#8B95A1" opacity="0.8">От икринки к королевской</text>

  <!-- Location -->
  <text x="280" y="380" font-family="Arial, sans-serif" font-size="20"
        fill="#8B95A1" opacity="0.7">Невельский район, Сахалин</text>

  <!-- Website with glow -->
  <text x="100" y="570" font-family="Arial, sans-serif" font-size="30" font-weight="bold"
        fill="#4FD1C5" filter="url(#glow)">royalketa.com</text>

  <!-- Enhanced decorative salmon silhouette -->
  <g transform="translate(950, 480)" opacity="0.2" filter="url(#softGlow)">
    <ellipse cx="0" cy="0" rx="90" ry="35" fill="#CFAE58"/>
    <path d="M 90 0 L 120 -18 L 130 0 L 120 18 Z" fill="#CFAE58"/>
    <path d="M -25 -35 L 0 -45 L 25 -35 Z" fill="#CFAE58"/>
    <ellipse cx="-50" cy="0" rx="15" ry="12" fill="#0B0F14"/>
  </g>

  <!-- Additional decorative caviar clusters -->
  <g opacity="0.2">
    <circle cx="1050" cy="120" r="6" fill="#CFAE58"/>
    <circle cx="1065" cy="115" r="5" fill="#CFAE58"/>
    <circle cx="1058" cy="130" r="4" fill="#CFAE58"/>
    <circle cx="150" cy="500" r="5" fill="#4FD1C5"/>
    <circle cx="165" cy="508" r="4" fill="#4FD1C5"/>
    <circle cx="140" cy="512" r="5" fill="#4FD1C5"/>
  </g>
</svg>