<svg width="1200" height="630" xmlns="http://www.w3.org/2000/svg">
  <defs>
    <linearGradient id="bgGradient" x1="0%" y1="0%" x2="100%" y2="100%">
      <stop offset="0%" style="stop-color:#0B0F14;stop-opacity:1" />
      <stop offset="50%" style="stop-color:#0F1619;stop-opacity:1" />
      <stop offset="100%" style="stop-color:#0F1922;stop-opacity:1" />
    </linearGradient>
    <linearGradient id="goldGradient" x1="0%" y1="0%" x2="100%" y2="0%">
      <stop offset="0%" style="stop-color:#E5D596;stop-opacity:1" />
      <stop offset="50%" style="stop-color:#CFAE58;stop-opacity:1" />
      <stop offset="100%" style="stop-color:#B89842;stop-opacity:1" />
    </linearGradient>
    <radialGradient id="oceanGradient" cx="50%" cy="50%" r="50%">
      <stop offset="0%" style="stop-color:#4FD1C5;stop-opacity:0.3" />
      <stop offset="100%" style="stop-color:#1E90A0;stop-opacity:0.05" />
    </radialGradient>
    <filter id="glow">
      <feGaussianBlur stdDeviation="5" result="coloredBlur"/>
      <feMerge>
        <feMergeNode in="coloredBlur"/>
        <feMergeNode in="SourceGraphic"/>
      </feMerge>
    </filter>
    <filter id="softGlow">
      <feGaussianBlur stdDeviation="8" result="coloredBlur"/>
      <feMerge>
        <feMergeNode in="coloredBlur"/>
        <feMergeNode in="SourceGraphic"/>
      </feMerge>
    </filter>
    <filter id="shadow">
      <feDropShadow dx="0" dy="4" stdDeviation="8" flood-color="#000000" flood-opacity="0.5"/>
    </filter>
  </defs>

  <!-- Background -->
  <rect width="1200" height="630" fill="url(#bgGradient)"/>

  <!-- Decorative ocean gradients -->
  <ellipse cx="1000" cy="150" rx="300" ry="200" fill="url(#oceanGradient)" opacity="0.4"/>
  <ellipse cx="200" cy="530" rx="250" ry="180" fill="url(#oceanGradient)" opacity="0.3"/>

  <!-- Wave patterns -->
  <path d="M 0 400 Q 300 350 600 400 T 1200 400 L 1200 630 L 0 630 Z" fill="#1E90A0" opacity="0.08"/>
  <path d="M 0 450 Q 250 420 500 450 T 1000 450 T 1200 450 L 1200 630 L 0 630 Z" fill="#4FD1C5" opacity="0.05"/>

  <!-- Caviar roe particles -->
  <circle cx="765.8464072726872" cy="350.1207689936958" r="4.733935601752956" fill="#CFAE58" opacity="0.15261127009059997"/>
  <circle cx="716.2448555187833" cy="343.9831786104213" r="5.093994060600785" fill="#CFAE58" opacity="0.2477890138977662"/>
  <circle cx="1196.0394530287463" cy="615.6468323833147" r="3.767654158498094" fill="#CFAE58" opacity="0.11117722262378715"/>
  <circle cx="61.43924248984342" cy="608.0239145335312" r="2.8591870310928487" fill="#CFAE58" opacity="0.16648596566519114"/>
  <circle cx="757.0358131187184" cy="557.4079911958186" r="2.3359166802774984" fill="#CFAE58" opacity="0.1999812072164405"/>
  <circle cx="912.2893079707907" cy="170.82413334635305" r="2.281065743486476" fill="#CFAE58" opacity="0.1601374542018661"/>
  <circle cx="1152.277520483733" cy="397.75582951341136" r="3.9294134062559483" fill="#CFAE58" opacity="0.1497658948091175"/>
  <circle cx="741.7765179645014" cy="45.209801547746586" r="5.578671174885136" fill="#CFAE58" opacity="0.220911411455789"/>
  <circle cx="896.4814538634988" cy="176.9776063279031" r="5.039840330087807" fill="#CFAE58" opacity="0.11170413354101466"/>
  <circle cx="544.49996652055" cy="125.9940467964042" r="4.588179056990942" fill="#CFAE58" opacity="0.1935967034545798"/>
  <circle cx="572.9443431681301" cy="296.8977960006101" r="2.2154593753264447" fill="#CFAE58" opacity="0.10198040833188898"/>
  <circle cx="1124.0763016427682" cy="281.21029628215905" r="3.21113911279501" fill="#CFAE58" opacity="0.11767674325454518"/>
  <circle cx="547.0612267657469" cy="589.1359948774452" r="4.7492857950695955" fill="#CFAE58" opacity="0.14474321693212505"/>
  <circle cx="1014.5914412218566" cy="434.3389569960864" r="4.504712954639771" fill="#CFAE58" opacity="0.16429575962473392"/>
  <circle cx="999.9996322976561" cy="415.01209022101955" r="3.033762573959641" fill="#CFAE58" opacity="0.1932636521963295"/>
  <circle cx="71.97673153746305" cy="467.1129575461706" r="2.547951492513838" fill="#CFAE58" opacity="0.11486575953909195"/>
  <circle cx="486.10544688259284" cy="218.86776251111425" r="2.3150258873749037" fill="#CFAE58" opacity="0.10271347074786119"/>
  <circle cx="361.6576718276595" cy="239.62508923196376" r="3.3429634450823817" fill="#CFAE58" opacity="0.24671014203742928"/>
  <circle cx="479.23061196387124" cy="402.3150092827764" r="4.519104191101907" fill="#CFAE58" opacity="0.21593032681373664"/>
  <circle cx="597.5262319336638" cy="614.6196861058988" r="3.467880180637291" fill="#CFAE58" opacity="0.12893067449237144"/>
  <circle cx="298.89740831477354" cy="379.9325044248427" r="5.703879968593523" fill="#CFAE58" opacity="0.11102531666978412"/>
  <circle cx="150.85242387934866" cy="618.1869884272177" r="2.149939452337043" fill="#CFAE58" opacity="0.10846902110204361"/>
  <circle cx="438.4072170074297" cy="376.2689725639639" r="4.6857211263986205" fill="#CFAE58" opacity="0.22995121955021797"/>
  <circle cx="12.279718763910363" cy="544.3594057437384" r="4.805322371711549" fill="#CFAE58" opacity="0.23599222647132118"/>
  <circle cx="419.984723266823" cy="193.8872227924506" r="2.2634530208130252" fill="#CFAE58" opacity="0.15059853254196323"/>
  <circle cx="1163.1707303042122" cy="300.8683720031169" r="4.381530333426263" fill="#CFAE58" opacity="0.20010939749946555"/>
  <circle cx="796.1023245356689" cy="577.8573781547863" r="3.3703241733119134" fill="#CFAE58" opacity="0.12758518884023692"/>
  <circle cx="713.3831802332159" cy="574.4640853459143" r="4.055092310245301" fill="#CFAE58" opacity="0.13637101051725434"/>
  <circle cx="1028.3521273886372" cy="482.3143964880847" r="3.6169197557528037" fill="#CFAE58" opacity="0.15563813409196614"/>
  <circle cx="625.8500196321617" cy="226.39689997522538" r="3.6387003485351164" fill="#CFAE58" opacity="0.18935210113757392"/>

  <!-- Border with glow -->
  <rect x="40" y="40" width="1120" height="550" fill="none" stroke="url(#goldGradient)" stroke-width="3" rx="12" filter="url(#softGlow)"/>

  <!-- Icon circle with premium background -->
  <circle cx="150" cy="200" r="75" fill="#CFAE58" opacity="0.15" filter="url(#softGlow)"/>
  <circle cx="150" cy="200" r="70" fill="#CFAE58" opacity="0.25"/>
  <text x="150" y="235" font-size="90" text-anchor="middle" fill="#CFAE58" filter="url(#glow)">🫙</text>

  <!-- Premium logo (crown) with enhanced styling -->
  <g transform="translate(100, 70)">
    <path d="M 30 20 L 40 35 L 35 35 Z M 50 15 L 60 35 L 45 35 Z M 65 20 L 75 35 L 70 35 Z M 30 35 L 75 35 L 73 45 L 32 45 Z"
          fill="url(#goldGradient)" filter="url(#glow)" stroke="#B89842" stroke-width="0.5"/>
    <circle cx="40" cy="25" r="3" fill="#4FD1C5" filter="url(#glow)"/>
    <circle cx="52" cy="20" r="4" fill="#4FD1C5" filter="url(#glow)"/>
    <circle cx="65" cy="25" r="3" fill="#4FD1C5" filter="url(#glow)"/>
  </g>

  <!-- Title with shadow -->
  <text x="280" y="180" font-family="Georgia, serif" font-size="72" font-weight="bold"
        fill="url(#goldGradient)" filter="url(#shadow)">Premium Caviar</text>

  <!-- Subtitle with subtle glow -->
  <text x="280" y="230" font-family="Arial, sans-serif" font-size="36"
        fill="#D6DEE6" opacity="0.95" filter="url(#softGlow)">Excellence in Every Jar</text>

  <!-- Brand name with letter spacing -->
  <text x="280" y="300" font-family="Georgia, serif" font-size="32" font-weight="bold"
        fill="#CFAE58" letter-spacing="4" filter="url(#glow)">ROYAL KETA</text>

  <!-- Russian tagline -->
  <text x="280" y="340" font-family="Arial, sans-serif" font-size="22" font-style="italic"
        fill="#8B95A1" opacity="0.8">От икринки к королевской</text>

  <!-- Location -->
  <text x="280" y="380" font-family="Arial, sans-serif" font-size="20"
        fill="#8B95A1" opacity="0.7">Невельский район, Сахалин</text>

  <!-- Website with glow -->
  <text x="100" y="570" font-family="Arial, sans-serif" font-size="30" font-weight="bold"
        fill="#4FD1C5" filter="url(#glow)">royalketa.com</text>

  <!-- Enhanced decorative salmon silhouette -->
  <g transform="translate(950, 480)" opacity="0.2" filter="url(#softGlow)">
    <ellipse cx="0" cy="0" rx="90" ry="35" fill="#CFAE58"/>
    <path d="M 90 0 L 120 -18 L 130 0 L 120 18 Z" fill="#CFAE58"/>
    <path d="M -25 -35 L 0 -45 L 25 -35 Z" fill="#CFAE58"/>
    <ellipse cx="-50" cy="0" rx="15" ry="12" fill="#0B0F14"/>
  </g>

  <!-- Additional decorative caviar clusters -->
  <g opacity="0.2">
    <circle cx="1050" cy="120" r="6" fill="#CFAE58"/>
    <circle cx="1065" cy="115" r="5" fill="#CFAE58"/>
    <circle cx="1058" cy="130" r="4" fill="#CFAE58"/>
    <circle cx="150" cy="500" r="5" fill="#4FD1C5"/>
    <circle cx="165" cy="508" r="4" fill="#4FD1C5"/>
    <circle cx="140" cy="512" r="5" fill="#4FD1C5"/>
  </g>
</svg>