<svg width="1200" height="630" xmlns="http://www.w3.org/2000/svg">
  <defs>
    <linearGradient id="bgGradient" x1="0%" y1="0%" x2="100%" y2="100%">
      <stop offset="0%" style="stop-color:#0B0F14;stop-opacity:1" />
      <stop offset="50%" style="stop-color:#0F1619;stop-opacity:1" />
      <stop offset="100%" style="stop-color:#0F1922;stop-opacity:1" />
    </linearGradient>
    <linearGradient id="goldGradient" x1="0%" y1="0%" x2="100%" y2="0%">
      <stop offset="0%" style="stop-color:#E5D596;stop-opacity:1" />
      <stop offset="50%" style="stop-color:#CFAE58;stop-opacity:1" />
      <stop offset="100%" style="stop-color:#B89842;stop-opacity:1" />
    </linearGradient>
    <radialGradient id="oceanGradient" cx="50%" cy="50%" r="50%">
      <stop offset="0%" style="stop-color:#4FD1C5;stop-opacity:0.3" />
      <stop offset="100%" style="stop-color:#1E90A0;stop-opacity:0.05" />
    </radialGradient>
    <filter id="glow">
      <feGaussianBlur stdDeviation="5" result="coloredBlur"/>
      <feMerge>
        <feMergeNode in="coloredBlur"/>
        <feMergeNode in="SourceGraphic"/>
      </feMerge>
    </filter>
    <filter id="softGlow">
      <feGaussianBlur stdDeviation="8" result="coloredBlur"/>
      <feMerge>
        <feMergeNode in="coloredBlur"/>
        <feMergeNode in="SourceGraphic"/>
      </feMerge>
    </filter>
    <filter id="shadow">
      <feDropShadow dx="0" dy="4" stdDeviation="8" flood-color="#000000" flood-opacity="0.5"/>
    </filter>
  </defs>

  <!-- Background -->
  <rect width="1200" height="630" fill="url(#bgGradient)"/>

  <!-- Decorative ocean gradients -->
  <ellipse cx="1000" cy="150" rx="300" ry="200" fill="url(#oceanGradient)" opacity="0.4"/>
  <ellipse cx="200" cy="530" rx="250" ry="180" fill="url(#oceanGradient)" opacity="0.3"/>

  <!-- Wave patterns -->
  <path d="M 0 400 Q 300 350 600 400 T 1200 400 L 1200 630 L 0 630 Z" fill="#1E90A0" opacity="0.08"/>
  <path d="M 0 450 Q 250 420 500 450 T 1000 450 T 1200 450 L 1200 630 L 0 630 Z" fill="#4FD1C5" opacity="0.05"/>

  <!-- Caviar roe particles -->
  <circle cx="1032.9946255750262" cy="403.5123116935553" r="2.1071989414388073" fill="#CFAE58" opacity="0.171498999687337"/>
  <circle cx="622.6650193678335" cy="301.7033309418893" r="4.438690368777287" fill="#CFAE58" opacity="0.239837110613636"/>
  <circle cx="722.1393455156178" cy="200.95672143277525" r="2.0797151601627135" fill="#CFAE58" opacity="0.20934437984977766"/>
  <circle cx="884.8926562392164" cy="356.67781721032526" r="2.751724295704978" fill="#CFAE58" opacity="0.1570014612097476"/>
  <circle cx="37.36887053150575" cy="249.03834445966308" r="4.667038814124346" fill="#CFAE58" opacity="0.15120518679352907"/>
  <circle cx="965.049818271179" cy="151.2442151715246" r="3.974434641720576" fill="#CFAE58" opacity="0.12644923501972763"/>
  <circle cx="708.3492191052208" cy="133.2201795416931" r="2.742473868157684" fill="#CFAE58" opacity="0.23985690412262822"/>
  <circle cx="8.520949388672072" cy="460.9513875459556" r="4.8227172162789405" fill="#CFAE58" opacity="0.24391308388148608"/>
  <circle cx="1041.7745048291104" cy="119.29126483814237" r="4.539978170366417" fill="#CFAE58" opacity="0.10384052240876629"/>
  <circle cx="345.40056158551016" cy="96.35563206588162" r="4.326158513023293" fill="#CFAE58" opacity="0.1037383862026142"/>
  <circle cx="578.9065233872697" cy="183.5683949580452" r="3.673132587248107" fill="#CFAE58" opacity="0.16506810737045818"/>
  <circle cx="364.5133908038814" cy="264.84888201072977" r="4.199950535953757" fill="#CFAE58" opacity="0.10823159059606652"/>
  <circle cx="659.8825056142855" cy="472.90076310795524" r="2.35059945774118" fill="#CFAE58" opacity="0.22204052848292805"/>
  <circle cx="826.8512910400955" cy="513.0123190882061" r="2.393853413228534" fill="#CFAE58" opacity="0.2278926624239564"/>
  <circle cx="623.1394214280995" cy="594.2928758541061" r="2.5036050484713863" fill="#CFAE58" opacity="0.10176108160147057"/>
  <circle cx="374.0366113977269" cy="505.9588144130846" r="5.702356067724966" fill="#CFAE58" opacity="0.21928623768010222"/>
  <circle cx="159.33337580551523" cy="467.52385205251215" r="5.01689832857989" fill="#CFAE58" opacity="0.2328215888410633"/>
  <circle cx="1104.5708344044722" cy="362.33336322991056" r="3.7314429698771754" fill="#CFAE58" opacity="0.19996409430860068"/>
  <circle cx="863.6057118384241" cy="214.20695083880676" r="2.804331236146318" fill="#CFAE58" opacity="0.1584461575241431"/>
  <circle cx="1149.8043031761924" cy="257.0306821293093" r="3.7913579635699053" fill="#CFAE58" opacity="0.18709723752294455"/>
  <circle cx="911.5925992700709" cy="126.23234987357102" r="3.549852643183476" fill="#CFAE58" opacity="0.19019106246451153"/>
  <circle cx="570.3899164406065" cy="613.4234513669444" r="3.6274141833034337" fill="#CFAE58" opacity="0.17816792270504328"/>
  <circle cx="862.5810170350042" cy="10.195985898431676" r="2.2681744937532295" fill="#CFAE58" opacity="0.191672817534285"/>
  <circle cx="173.63929618501484" cy="436.45704627631" r="5.607197498069684" fill="#CFAE58" opacity="0.20210617141098658"/>
  <circle cx="951.2161030166548" cy="308.88100885764555" r="5.139939069012723" fill="#CFAE58" opacity="0.14463109923722153"/>
  <circle cx="44.77351456184016" cy="83.25569000143396" r="2.2118316401555864" fill="#CFAE58" opacity="0.11717118367637992"/>
  <circle cx="129.24972213152452" cy="237.45894462650057" r="4.083520886891017" fill="#CFAE58" opacity="0.19680634588508034"/>
  <circle cx="516.2573298271977" cy="174.91766269115556" r="4.851650535478603" fill="#CFAE58" opacity="0.19792395242619465"/>
  <circle cx="98.64263790789325" cy="502.13357572203523" r="3.963774987842073" fill="#CFAE58" opacity="0.24781640119949117"/>
  <circle cx="1198.8239040569329" cy="113.52111969578488" r="5.280375004622851" fill="#CFAE58" opacity="0.21037696476724257"/>

  <!-- Border with glow -->
  <rect x="40" y="40" width="1120" height="550" fill="none" stroke="url(#goldGradient)" stroke-width="3" rx="12" filter="url(#softGlow)"/>

  <!-- Icon circle with premium background -->
  <circle cx="150" cy="200" r="75" fill="#CFAE58" opacity="0.15" filter="url(#softGlow)"/>
  <circle cx="150" cy="200" r="70" fill="#CFAE58" opacity="0.25"/>
  <text x="150" y="235" font-size="90" text-anchor="middle" fill="#CFAE58" filter="url(#glow)">🫙</text>

  <!-- Premium logo (crown) with enhanced styling -->
  <g transform="translate(100, 70)">
    <path d="M 30 20 L 40 35 L 35 35 Z M 50 15 L 60 35 L 45 35 Z M 65 20 L 75 35 L 70 35 Z M 30 35 L 75 35 L 73 45 L 32 45 Z"
          fill="url(#goldGradient)" filter="url(#glow)" stroke="#B89842" stroke-width="0.5"/>
    <circle cx="40" cy="25" r="3" fill="#4FD1C5" filter="url(#glow)"/>
    <circle cx="52" cy="20" r="4" fill="#4FD1C5" filter="url(#glow)"/>
    <circle cx="65" cy="25" r="3" fill="#4FD1C5" filter="url(#glow)"/>
  </g>

  <!-- Title with shadow -->
  <text x="280" y="180" font-family="Georgia, serif" font-size="72" font-weight="bold"
        fill="url(#goldGradient)" filter="url(#shadow)">Premium Caviar</text>

  <!-- Subtitle with subtle glow -->
  <text x="280" y="230" font-family="Arial, sans-serif" font-size="36"
        fill="#D6DEE6" opacity="0.95" filter="url(#softGlow)">Excellence in Every Jar</text>

  <!-- Brand name with letter spacing -->
  <text x="280" y="300" font-family="Georgia, serif" font-size="32" font-weight="bold"
        fill="#CFAE58" letter-spacing="4" filter="url(#glow)">ROYAL KETA</text>

  <!-- Russian tagline -->
  <text x="280" y="340" font-family="Arial, sans-serif" font-size="22" font-style="italic"
        fill="#8B95A1" opacity="0.8">От икринки к королевской</text>

  <!-- Location -->
  <text x="280" y="380" font-family="Arial, sans-serif" font-size="20"
        fill="#8B95A1" opacity="0.7">Невельский район, Сахалин</text>

  <!-- Website with glow -->
  <text x="100" y="570" font-family="Arial, sans-serif" font-size="30" font-weight="bold"
        fill="#4FD1C5" filter="url(#glow)">royalketa.com</text>

  <!-- Enhanced decorative salmon silhouette -->
  <g transform="translate(950, 480)" opacity="0.2" filter="url(#softGlow)">
    <ellipse cx="0" cy="0" rx="90" ry="35" fill="#CFAE58"/>
    <path d="M 90 0 L 120 -18 L 130 0 L 120 18 Z" fill="#CFAE58"/>
    <path d="M -25 -35 L 0 -45 L 25 -35 Z" fill="#CFAE58"/>
    <ellipse cx="-50" cy="0" rx="15" ry="12" fill="#0B0F14"/>
  </g>

  <!-- Additional decorative caviar clusters -->
  <g opacity="0.2">
    <circle cx="1050" cy="120" r="6" fill="#CFAE58"/>
    <circle cx="1065" cy="115" r="5" fill="#CFAE58"/>
    <circle cx="1058" cy="130" r="4" fill="#CFAE58"/>
    <circle cx="150" cy="500" r="5" fill="#4FD1C5"/>
    <circle cx="165" cy="508" r="4" fill="#4FD1C5"/>
    <circle cx="140" cy="512" r="5" fill="#4FD1C5"/>
  </g>
</svg>