<svg width="1200" height="630" xmlns="http://www.w3.org/2000/svg">
  <defs>
    <linearGradient id="bgGradient" x1="0%" y1="0%" x2="100%" y2="100%">
      <stop offset="0%" style="stop-color:#0B0F14;stop-opacity:1" />
      <stop offset="50%" style="stop-color:#0F1619;stop-opacity:1" />
      <stop offset="100%" style="stop-color:#0F1922;stop-opacity:1" />
    </linearGradient>
    <linearGradient id="goldGradient" x1="0%" y1="0%" x2="100%" y2="0%">
      <stop offset="0%" style="stop-color:#E5D596;stop-opacity:1" />
      <stop offset="50%" style="stop-color:#CFAE58;stop-opacity:1" />
      <stop offset="100%" style="stop-color:#B89842;stop-opacity:1" />
    </linearGradient>
    <radialGradient id="oceanGradient" cx="50%" cy="50%" r="50%">
      <stop offset="0%" style="stop-color:#4FD1C5;stop-opacity:0.3" />
      <stop offset="100%" style="stop-color:#1E90A0;stop-opacity:0.05" />
    </radialGradient>
    <filter id="glow">
      <feGaussianBlur stdDeviation="5" result="coloredBlur"/>
      <feMerge>
        <feMergeNode in="coloredBlur"/>
        <feMergeNode in="SourceGraphic"/>
      </feMerge>
    </filter>
    <filter id="softGlow">
      <feGaussianBlur stdDeviation="8" result="coloredBlur"/>
      <feMerge>
        <feMergeNode in="coloredBlur"/>
        <feMergeNode in="SourceGraphic"/>
      </feMerge>
    </filter>
    <filter id="shadow">
      <feDropShadow dx="0" dy="4" stdDeviation="8" flood-color="#000000" flood-opacity="0.5"/>
    </filter>
  </defs>

  <!-- Background -->
  <rect width="1200" height="630" fill="url(#bgGradient)"/>

  <!-- Decorative ocean gradients -->
  <ellipse cx="1000" cy="150" rx="300" ry="200" fill="url(#oceanGradient)" opacity="0.4"/>
  <ellipse cx="200" cy="530" rx="250" ry="180" fill="url(#oceanGradient)" opacity="0.3"/>

  <!-- Wave patterns -->
  <path d="M 0 400 Q 300 350 600 400 T 1200 400 L 1200 630 L 0 630 Z" fill="#1E90A0" opacity="0.08"/>
  <path d="M 0 450 Q 250 420 500 450 T 1000 450 T 1200 450 L 1200 630 L 0 630 Z" fill="#4FD1C5" opacity="0.05"/>

  <!-- Caviar roe particles -->
  <circle cx="737.903946124486" cy="185.66513223428234" r="3.104784281328798" fill="#CFAE58" opacity="0.20856673190483027"/>
  <circle cx="461.48823959159097" cy="375.6982381669906" r="2.522962502444308" fill="#CFAE58" opacity="0.10067249636401523"/>
  <circle cx="826.0012956816734" cy="63.292436013539685" r="4.007486421530043" fill="#CFAE58" opacity="0.12124983204016153"/>
  <circle cx="989.7769639831934" cy="38.23547751476753" r="3.498479610840385" fill="#CFAE58" opacity="0.16481345735605188"/>
  <circle cx="1161.8058837727488" cy="597.5030845009065" r="2.5018010829583552" fill="#CFAE58" opacity="0.2207041998980263"/>
  <circle cx="175.70497434574727" cy="183.06171374907626" r="3.4582258207620145" fill="#CFAE58" opacity="0.1614741653102843"/>
  <circle cx="588.5257949957956" cy="411.30004966444005" r="5.436083796000194" fill="#CFAE58" opacity="0.13919131594038403"/>
  <circle cx="554.0941621612477" cy="184.7201031006029" r="3.95705807298575" fill="#CFAE58" opacity="0.15759788742373562"/>
  <circle cx="54.90690435890082" cy="533.7071604663988" r="3.439870147609435" fill="#CFAE58" opacity="0.1516191458012674"/>
  <circle cx="419.6209954444674" cy="14.482492335202878" r="2.09009902483678" fill="#CFAE58" opacity="0.17306525981368315"/>
  <circle cx="988.9565949603115" cy="424.02851402450773" r="3.3394437638255123" fill="#CFAE58" opacity="0.13843980527694744"/>
  <circle cx="29.39916685236028" cy="230.05613274165864" r="4.138256944535164" fill="#CFAE58" opacity="0.13679833268531996"/>
  <circle cx="157.60868911359873" cy="189.37535355179165" r="2.138757894841998" fill="#CFAE58" opacity="0.11111815582854673"/>
  <circle cx="525.1293775391138" cy="29.70409190692722" r="5.47291690543765" fill="#CFAE58" opacity="0.10293352915882163"/>
  <circle cx="765.4226973997798" cy="154.60757202269042" r="5.515571350974084" fill="#CFAE58" opacity="0.20359614669915682"/>
  <circle cx="590.0184887957347" cy="552.230392918899" r="4.924039912585916" fill="#CFAE58" opacity="0.12539823838397"/>
  <circle cx="1163.9877901416437" cy="523.966475651624" r="3.7037411959798927" fill="#CFAE58" opacity="0.11830199334358421"/>
  <circle cx="1070.7887059162258" cy="117.10720701419856" r="2.287853646245729" fill="#CFAE58" opacity="0.17472681271244608"/>
  <circle cx="995.4627121183875" cy="177.43014581161702" r="2.7985123086121417" fill="#CFAE58" opacity="0.15586004511018034"/>
  <circle cx="545.4095498205481" cy="391.8604151574557" r="3.474653581164649" fill="#CFAE58" opacity="0.18983145971403703"/>
  <circle cx="237.19553372316255" cy="23.642110756558314" r="2.5036612064180046" fill="#CFAE58" opacity="0.11566093920996798"/>
  <circle cx="1172.661173717602" cy="188.48039070888626" r="2.6440179935570045" fill="#CFAE58" opacity="0.21405272458418942"/>
  <circle cx="281.1811636299815" cy="180.18607037464005" r="2.9560262260811525" fill="#CFAE58" opacity="0.24101686212472972"/>
  <circle cx="928.4623210814243" cy="240.63409628757492" r="4.732946413006441" fill="#CFAE58" opacity="0.2339954943089104"/>
  <circle cx="591.275196742332" cy="600.2710377442921" r="3.085098640490626" fill="#CFAE58" opacity="0.14259998785635575"/>
  <circle cx="842.321311570861" cy="105.64298350435617" r="4.928321902098793" fill="#CFAE58" opacity="0.12068796214593407"/>
  <circle cx="204.20446901494253" cy="218.9576717922386" r="2.7604152034326965" fill="#CFAE58" opacity="0.16820335585213425"/>
  <circle cx="1012.0630609660612" cy="393.5150991284037" r="4.479140681488696" fill="#CFAE58" opacity="0.2210452284557108"/>
  <circle cx="1158.9611509855215" cy="272.9625898271804" r="3.5143957012198506" fill="#CFAE58" opacity="0.13553047533878354"/>
  <circle cx="451.09594862083" cy="78.53988480350162" r="2.40354890750677" fill="#CFAE58" opacity="0.21301403242497605"/>

  <!-- Border with glow -->
  <rect x="40" y="40" width="1120" height="550" fill="none" stroke="url(#goldGradient)" stroke-width="3" rx="12" filter="url(#softGlow)"/>

  <!-- Icon circle with premium background -->
  <circle cx="150" cy="200" r="75" fill="#CFAE58" opacity="0.15" filter="url(#softGlow)"/>
  <circle cx="150" cy="200" r="70" fill="#CFAE58" opacity="0.25"/>
  <text x="150" y="235" font-size="90" text-anchor="middle" fill="#CFAE58" filter="url(#glow)">🫙</text>

  <!-- Premium logo (crown) with enhanced styling -->
  <g transform="translate(100, 70)">
    <path d="M 30 20 L 40 35 L 35 35 Z M 50 15 L 60 35 L 45 35 Z M 65 20 L 75 35 L 70 35 Z M 30 35 L 75 35 L 73 45 L 32 45 Z"
          fill="url(#goldGradient)" filter="url(#glow)" stroke="#B89842" stroke-width="0.5"/>
    <circle cx="40" cy="25" r="3" fill="#4FD1C5" filter="url(#glow)"/>
    <circle cx="52" cy="20" r="4" fill="#4FD1C5" filter="url(#glow)"/>
    <circle cx="65" cy="25" r="3" fill="#4FD1C5" filter="url(#glow)"/>
  </g>

  <!-- Title with shadow -->
  <text x="280" y="180" font-family="Georgia, serif" font-size="72" font-weight="bold"
        fill="url(#goldGradient)" filter="url(#shadow)">Premium Caviar</text>

  <!-- Subtitle with subtle glow -->
  <text x="280" y="230" font-family="Arial, sans-serif" font-size="36"
        fill="#D6DEE6" opacity="0.95" filter="url(#softGlow)">Excellence in Every Jar</text>

  <!-- Brand name with letter spacing -->
  <text x="280" y="300" font-family="Georgia, serif" font-size="32" font-weight="bold"
        fill="#CFAE58" letter-spacing="4" filter="url(#glow)">ROYAL KETA</text>

  <!-- Russian tagline -->
  <text x="280" y="340" font-family="Arial, sans-serif" font-size="22" font-style="italic"
        fill="#8B95A1" opacity="0.8">От икринки к королевской</text>

  <!-- Location -->
  <text x="280" y="380" font-family="Arial, sans-serif" font-size="20"
        fill="#8B95A1" opacity="0.7">Невельский район, Сахалин</text>

  <!-- Website with glow -->
  <text x="100" y="570" font-family="Arial, sans-serif" font-size="30" font-weight="bold"
        fill="#4FD1C5" filter="url(#glow)">royalketa.com</text>

  <!-- Enhanced decorative salmon silhouette -->
  <g transform="translate(950, 480)" opacity="0.2" filter="url(#softGlow)">
    <ellipse cx="0" cy="0" rx="90" ry="35" fill="#CFAE58"/>
    <path d="M 90 0 L 120 -18 L 130 0 L 120 18 Z" fill="#CFAE58"/>
    <path d="M -25 -35 L 0 -45 L 25 -35 Z" fill="#CFAE58"/>
    <ellipse cx="-50" cy="0" rx="15" ry="12" fill="#0B0F14"/>
  </g>

  <!-- Additional decorative caviar clusters -->
  <g opacity="0.2">
    <circle cx="1050" cy="120" r="6" fill="#CFAE58"/>
    <circle cx="1065" cy="115" r="5" fill="#CFAE58"/>
    <circle cx="1058" cy="130" r="4" fill="#CFAE58"/>
    <circle cx="150" cy="500" r="5" fill="#4FD1C5"/>
    <circle cx="165" cy="508" r="4" fill="#4FD1C5"/>
    <circle cx="140" cy="512" r="5" fill="#4FD1C5"/>
  </g>
</svg>