<svg width="1200" height="630" xmlns="http://www.w3.org/2000/svg">
  <defs>
    <linearGradient id="bgGradient" x1="0%" y1="0%" x2="100%" y2="100%">
      <stop offset="0%" style="stop-color:#0B0F14;stop-opacity:1" />
      <stop offset="50%" style="stop-color:#0F1619;stop-opacity:1" />
      <stop offset="100%" style="stop-color:#0F1922;stop-opacity:1" />
    </linearGradient>
    <linearGradient id="goldGradient" x1="0%" y1="0%" x2="100%" y2="0%">
      <stop offset="0%" style="stop-color:#E5D596;stop-opacity:1" />
      <stop offset="50%" style="stop-color:#CFAE58;stop-opacity:1" />
      <stop offset="100%" style="stop-color:#B89842;stop-opacity:1" />
    </linearGradient>
    <radialGradient id="oceanGradient" cx="50%" cy="50%" r="50%">
      <stop offset="0%" style="stop-color:#4FD1C5;stop-opacity:0.3" />
      <stop offset="100%" style="stop-color:#1E90A0;stop-opacity:0.05" />
    </radialGradient>
    <filter id="glow">
      <feGaussianBlur stdDeviation="5" result="coloredBlur"/>
      <feMerge>
        <feMergeNode in="coloredBlur"/>
        <feMergeNode in="SourceGraphic"/>
      </feMerge>
    </filter>
    <filter id="softGlow">
      <feGaussianBlur stdDeviation="8" result="coloredBlur"/>
      <feMerge>
        <feMergeNode in="coloredBlur"/>
        <feMergeNode in="SourceGraphic"/>
      </feMerge>
    </filter>
    <filter id="shadow">
      <feDropShadow dx="0" dy="4" stdDeviation="8" flood-color="#000000" flood-opacity="0.5"/>
    </filter>
  </defs>

  <!-- Background -->
  <rect width="1200" height="630" fill="url(#bgGradient)"/>

  <!-- Decorative ocean gradients -->
  <ellipse cx="1000" cy="150" rx="300" ry="200" fill="url(#oceanGradient)" opacity="0.4"/>
  <ellipse cx="200" cy="530" rx="250" ry="180" fill="url(#oceanGradient)" opacity="0.3"/>

  <!-- Wave patterns -->
  <path d="M 0 400 Q 300 350 600 400 T 1200 400 L 1200 630 L 0 630 Z" fill="#1E90A0" opacity="0.08"/>
  <path d="M 0 450 Q 250 420 500 450 T 1000 450 T 1200 450 L 1200 630 L 0 630 Z" fill="#4FD1C5" opacity="0.05"/>

  <!-- Caviar roe particles -->
  <circle cx="352.2279982693266" cy="226.03089810892521" r="2.5766116159179657" fill="#CFAE58" opacity="0.1656739066704082"/>
  <circle cx="73.87152045292828" cy="328.48573767018536" r="5.536571221309229" fill="#CFAE58" opacity="0.21042986852252443"/>
  <circle cx="182.47024610849954" cy="483.7680091224603" r="5.11829526334762" fill="#CFAE58" opacity="0.20911207896618172"/>
  <circle cx="56.5188566240733" cy="163.77918746467526" r="2.830458394524688" fill="#CFAE58" opacity="0.17506762685117733"/>
  <circle cx="756.8397158605098" cy="21.75837072601588" r="3.6844276235141016" fill="#CFAE58" opacity="0.219655341224851"/>
  <circle cx="959.4468239695381" cy="23.0793278857437" r="4.590354144620473" fill="#CFAE58" opacity="0.162040616941111"/>
  <circle cx="568.7550035975937" cy="291.8823699343428" r="3.2724768496042285" fill="#CFAE58" opacity="0.14490694557153216"/>
  <circle cx="619.7229768410662" cy="161.0060202584886" r="5.844884967980277" fill="#CFAE58" opacity="0.17617559806671956"/>
  <circle cx="1193.4222995560663" cy="554.6537373999084" r="2.5112110363368054" fill="#CFAE58" opacity="0.22256735085856383"/>
  <circle cx="861.1926947513623" cy="381.77846364399755" r="3.224074070902641" fill="#CFAE58" opacity="0.20656756837285356"/>
  <circle cx="325.7011049240806" cy="62.20205134471426" r="5.881389924016503" fill="#CFAE58" opacity="0.1459148350716064"/>
  <circle cx="557.979834773243" cy="442.2249820039813" r="4.036139143485184" fill="#CFAE58" opacity="0.1824825180569514"/>
  <circle cx="281.87301608675426" cy="278.92315467077134" r="4.014455701412795" fill="#CFAE58" opacity="0.14796128797201324"/>
  <circle cx="462.07361723049746" cy="532.1422802748093" r="2.2868593501958827" fill="#CFAE58" opacity="0.10904116814760723"/>
  <circle cx="458.5445148333581" cy="485.37603761270464" r="2.51045204002477" fill="#CFAE58" opacity="0.16354357967286384"/>
  <circle cx="673.3856339902267" cy="430.73595750958117" r="4.817740240988437" fill="#CFAE58" opacity="0.2441697882512208"/>
  <circle cx="1133.2372715302413" cy="153.74409818712792" r="2.8131627956330245" fill="#CFAE58" opacity="0.2356562780656646"/>
  <circle cx="443.76276273864147" cy="458.093663154956" r="4.622585422055634" fill="#CFAE58" opacity="0.1164925993778457"/>
  <circle cx="1114.492369209698" cy="402.0309047210348" r="3.873207199371311" fill="#CFAE58" opacity="0.21410061870836833"/>
  <circle cx="550.1181721739265" cy="525.5854728552393" r="4.740400820352961" fill="#CFAE58" opacity="0.2301620717739085"/>
  <circle cx="1111.963121123355" cy="292.85623879677644" r="5.794355111069432" fill="#CFAE58" opacity="0.24718864254388653"/>
  <circle cx="397.98322152824153" cy="313.4123329210436" r="3.4325668515147703" fill="#CFAE58" opacity="0.2180340396368226"/>
  <circle cx="1021.2575076689219" cy="227.47722159886655" r="4.044920935168664" fill="#CFAE58" opacity="0.12514742531527373"/>
  <circle cx="1170.8287696988634" cy="438.883613334917" r="2.7580854801166037" fill="#CFAE58" opacity="0.1193103247896901"/>
  <circle cx="1006.8455852936784" cy="303.8840660628751" r="3.1124910908093715" fill="#CFAE58" opacity="0.1568978315214795"/>
  <circle cx="166.60523729542325" cy="279.39242431168674" r="3.5145512575070104" fill="#CFAE58" opacity="0.1567432840640453"/>
  <circle cx="1120.5373670214672" cy="268.9998814591665" r="2.382872392904917" fill="#CFAE58" opacity="0.15855071103227614"/>
  <circle cx="1118.9930799519539" cy="403.8626267347344" r="2.6193186883958464" fill="#CFAE58" opacity="0.20600406913891461"/>
  <circle cx="416.3273041709941" cy="624.1934303438582" r="3.0643581774556576" fill="#CFAE58" opacity="0.15786225540733476"/>
  <circle cx="724.2076974159357" cy="212.4762595234533" r="3.9634269205937263" fill="#CFAE58" opacity="0.22199612826521448"/>

  <!-- Border with glow -->
  <rect x="40" y="40" width="1120" height="550" fill="none" stroke="url(#goldGradient)" stroke-width="3" rx="12" filter="url(#softGlow)"/>

  <!-- Icon circle with premium background -->
  <circle cx="150" cy="200" r="75" fill="#CFAE58" opacity="0.15" filter="url(#softGlow)"/>
  <circle cx="150" cy="200" r="70" fill="#CFAE58" opacity="0.25"/>
  <text x="150" y="235" font-size="90" text-anchor="middle" fill="#CFAE58" filter="url(#glow)">🫙</text>

  <!-- Premium logo (crown) with enhanced styling -->
  <g transform="translate(100, 70)">
    <path d="M 30 20 L 40 35 L 35 35 Z M 50 15 L 60 35 L 45 35 Z M 65 20 L 75 35 L 70 35 Z M 30 35 L 75 35 L 73 45 L 32 45 Z"
          fill="url(#goldGradient)" filter="url(#glow)" stroke="#B89842" stroke-width="0.5"/>
    <circle cx="40" cy="25" r="3" fill="#4FD1C5" filter="url(#glow)"/>
    <circle cx="52" cy="20" r="4" fill="#4FD1C5" filter="url(#glow)"/>
    <circle cx="65" cy="25" r="3" fill="#4FD1C5" filter="url(#glow)"/>
  </g>

  <!-- Title with shadow -->
  <text x="280" y="180" font-family="Georgia, serif" font-size="72" font-weight="bold"
        fill="url(#goldGradient)" filter="url(#shadow)">Premium Caviar</text>

  <!-- Subtitle with subtle glow -->
  <text x="280" y="230" font-family="Arial, sans-serif" font-size="36"
        fill="#D6DEE6" opacity="0.95" filter="url(#softGlow)">Excellence in Every Jar</text>

  <!-- Brand name with letter spacing -->
  <text x="280" y="300" font-family="Georgia, serif" font-size="32" font-weight="bold"
        fill="#CFAE58" letter-spacing="4" filter="url(#glow)">ROYAL KETA</text>

  <!-- Russian tagline -->
  <text x="280" y="340" font-family="Arial, sans-serif" font-size="22" font-style="italic"
        fill="#8B95A1" opacity="0.8">От икринки к королевской</text>

  <!-- Location -->
  <text x="280" y="380" font-family="Arial, sans-serif" font-size="20"
        fill="#8B95A1" opacity="0.7">Невельский район, Сахалин</text>

  <!-- Website with glow -->
  <text x="100" y="570" font-family="Arial, sans-serif" font-size="30" font-weight="bold"
        fill="#4FD1C5" filter="url(#glow)">royalketa.com</text>

  <!-- Enhanced decorative salmon silhouette -->
  <g transform="translate(950, 480)" opacity="0.2" filter="url(#softGlow)">
    <ellipse cx="0" cy="0" rx="90" ry="35" fill="#CFAE58"/>
    <path d="M 90 0 L 120 -18 L 130 0 L 120 18 Z" fill="#CFAE58"/>
    <path d="M -25 -35 L 0 -45 L 25 -35 Z" fill="#CFAE58"/>
    <ellipse cx="-50" cy="0" rx="15" ry="12" fill="#0B0F14"/>
  </g>

  <!-- Additional decorative caviar clusters -->
  <g opacity="0.2">
    <circle cx="1050" cy="120" r="6" fill="#CFAE58"/>
    <circle cx="1065" cy="115" r="5" fill="#CFAE58"/>
    <circle cx="1058" cy="130" r="4" fill="#CFAE58"/>
    <circle cx="150" cy="500" r="5" fill="#4FD1C5"/>
    <circle cx="165" cy="508" r="4" fill="#4FD1C5"/>
    <circle cx="140" cy="512" r="5" fill="#4FD1C5"/>
  </g>
</svg>