<svg width="1200" height="630" xmlns="http://www.w3.org/2000/svg">
  <defs>
    <linearGradient id="bgGradient" x1="0%" y1="0%" x2="100%" y2="100%">
      <stop offset="0%" style="stop-color:#0B0F14;stop-opacity:1" />
      <stop offset="50%" style="stop-color:#0F1619;stop-opacity:1" />
      <stop offset="100%" style="stop-color:#0F1922;stop-opacity:1" />
    </linearGradient>
    <linearGradient id="goldGradient" x1="0%" y1="0%" x2="100%" y2="0%">
      <stop offset="0%" style="stop-color:#E5D596;stop-opacity:1" />
      <stop offset="50%" style="stop-color:#CFAE58;stop-opacity:1" />
      <stop offset="100%" style="stop-color:#B89842;stop-opacity:1" />
    </linearGradient>
    <radialGradient id="oceanGradient" cx="50%" cy="50%" r="50%">
      <stop offset="0%" style="stop-color:#4FD1C5;stop-opacity:0.3" />
      <stop offset="100%" style="stop-color:#1E90A0;stop-opacity:0.05" />
    </radialGradient>
    <filter id="glow">
      <feGaussianBlur stdDeviation="5" result="coloredBlur"/>
      <feMerge>
        <feMergeNode in="coloredBlur"/>
        <feMergeNode in="SourceGraphic"/>
      </feMerge>
    </filter>
    <filter id="softGlow">
      <feGaussianBlur stdDeviation="8" result="coloredBlur"/>
      <feMerge>
        <feMergeNode in="coloredBlur"/>
        <feMergeNode in="SourceGraphic"/>
      </feMerge>
    </filter>
    <filter id="shadow">
      <feDropShadow dx="0" dy="4" stdDeviation="8" flood-color="#000000" flood-opacity="0.5"/>
    </filter>
  </defs>

  <!-- Background -->
  <rect width="1200" height="630" fill="url(#bgGradient)"/>

  <!-- Decorative ocean gradients -->
  <ellipse cx="1000" cy="150" rx="300" ry="200" fill="url(#oceanGradient)" opacity="0.4"/>
  <ellipse cx="200" cy="530" rx="250" ry="180" fill="url(#oceanGradient)" opacity="0.3"/>

  <!-- Wave patterns -->
  <path d="M 0 400 Q 300 350 600 400 T 1200 400 L 1200 630 L 0 630 Z" fill="#1E90A0" opacity="0.08"/>
  <path d="M 0 450 Q 250 420 500 450 T 1000 450 T 1200 450 L 1200 630 L 0 630 Z" fill="#4FD1C5" opacity="0.05"/>

  <!-- Caviar roe particles -->
  <circle cx="290.15513578299164" cy="502.88112843779516" r="4.327099988829623" fill="#CFAE58" opacity="0.18448739856423896"/>
  <circle cx="955.9035028518213" cy="291.2308027840776" r="3.6213826434582383" fill="#CFAE58" opacity="0.1515141357532354"/>
  <circle cx="740.0518911748211" cy="507.9903579694257" r="4.010012066337055" fill="#CFAE58" opacity="0.16881139695757447"/>
  <circle cx="1073.8816831990648" cy="91.70377085796906" r="5.30921605894097" fill="#CFAE58" opacity="0.15306674848060955"/>
  <circle cx="649.2593786769625" cy="106.71192031656173" r="5.595132007790755" fill="#CFAE58" opacity="0.14537291825848392"/>
  <circle cx="827.9800570705396" cy="521.578698609346" r="3.894053985216992" fill="#CFAE58" opacity="0.21035207071889261"/>
  <circle cx="856.9878356282368" cy="439.10696713837103" r="3.0144573530445884" fill="#CFAE58" opacity="0.12994702022667953"/>
  <circle cx="358.5585949338437" cy="541.1118990010889" r="5.011022730116746" fill="#CFAE58" opacity="0.1964784994715753"/>
  <circle cx="463.0878963532322" cy="316.4555698190791" r="5.169918135755718" fill="#CFAE58" opacity="0.16462428821318104"/>
  <circle cx="216.3479149503133" cy="104.89516415462464" r="3.403283770136942" fill="#CFAE58" opacity="0.19025448998518046"/>
  <circle cx="265.85011227558095" cy="163.35200230962977" r="4.739095132065724" fill="#CFAE58" opacity="0.10055230133203179"/>
  <circle cx="610.3178755711889" cy="220.02273208335924" r="4.099699670838928" fill="#CFAE58" opacity="0.11173070895125564"/>
  <circle cx="610.6325716492752" cy="258.6615942012269" r="5.856175000925484" fill="#CFAE58" opacity="0.1315848469418973"/>
  <circle cx="771.4404209023674" cy="199.1559751539877" r="4.313941658302088" fill="#CFAE58" opacity="0.13999026124803615"/>
  <circle cx="800.4775255408307" cy="209.7159697909585" r="5.940392024556172" fill="#CFAE58" opacity="0.2292067550314753"/>
  <circle cx="1042.779778791556" cy="357.0560293091849" r="3.190228945225308" fill="#CFAE58" opacity="0.1901733863777016"/>
  <circle cx="1045.5184996654311" cy="339.9004548005008" r="2.979665003076489" fill="#CFAE58" opacity="0.14076515929146283"/>
  <circle cx="231.2603889737897" cy="530.2689937307305" r="4.787526287678257" fill="#CFAE58" opacity="0.11747071990790274"/>
  <circle cx="28.365849924843012" cy="204.89454730827114" r="2.026601949684216" fill="#CFAE58" opacity="0.24289961390168813"/>
  <circle cx="106.27010742681352" cy="152.92808890388702" r="5.791963029887185" fill="#CFAE58" opacity="0.22881357236947897"/>
  <circle cx="488.26135470632914" cy="379.9281921865603" r="5.594258346155356" fill="#CFAE58" opacity="0.18825774640703402"/>
  <circle cx="375.87549120038756" cy="299.80800282094566" r="3.339708559692813" fill="#CFAE58" opacity="0.2052712075258909"/>
  <circle cx="585.8414854220773" cy="494.6560539671567" r="3.7406000394815972" fill="#CFAE58" opacity="0.10207766857461742"/>
  <circle cx="460.8643137365325" cy="279.0100707021319" r="3.9341465997891705" fill="#CFAE58" opacity="0.11124194442705523"/>
  <circle cx="143.42543547622145" cy="329.27675197899185" r="4.784101563470362" fill="#CFAE58" opacity="0.18380203942529424"/>
  <circle cx="50.93653945121419" cy="236.60867881670296" r="2.4998991285024816" fill="#CFAE58" opacity="0.24044608886478958"/>
  <circle cx="527.0911933339518" cy="47.177297682995004" r="4.832577627278286" fill="#CFAE58" opacity="0.10031170222805721"/>
  <circle cx="74.34049515466174" cy="489.0329810190899" r="5.322727735706063" fill="#CFAE58" opacity="0.24767638319841434"/>
  <circle cx="280.74489717943993" cy="204.37201099880716" r="2.09055253330836" fill="#CFAE58" opacity="0.2166032892944511"/>
  <circle cx="259.8767223204668" cy="587.8922778663849" r="4.513209568882354" fill="#CFAE58" opacity="0.20824733906357487"/>

  <!-- Border with glow -->
  <rect x="40" y="40" width="1120" height="550" fill="none" stroke="url(#goldGradient)" stroke-width="3" rx="12" filter="url(#softGlow)"/>

  <!-- Icon circle with premium background -->
  <circle cx="150" cy="200" r="75" fill="#CFAE58" opacity="0.15" filter="url(#softGlow)"/>
  <circle cx="150" cy="200" r="70" fill="#CFAE58" opacity="0.25"/>
  <text x="150" y="235" font-size="90" text-anchor="middle" fill="#CFAE58" filter="url(#glow)">🫙</text>

  <!-- Premium logo (crown) with enhanced styling -->
  <g transform="translate(100, 70)">
    <path d="M 30 20 L 40 35 L 35 35 Z M 50 15 L 60 35 L 45 35 Z M 65 20 L 75 35 L 70 35 Z M 30 35 L 75 35 L 73 45 L 32 45 Z"
          fill="url(#goldGradient)" filter="url(#glow)" stroke="#B89842" stroke-width="0.5"/>
    <circle cx="40" cy="25" r="3" fill="#4FD1C5" filter="url(#glow)"/>
    <circle cx="52" cy="20" r="4" fill="#4FD1C5" filter="url(#glow)"/>
    <circle cx="65" cy="25" r="3" fill="#4FD1C5" filter="url(#glow)"/>
  </g>

  <!-- Title with shadow -->
  <text x="280" y="180" font-family="Georgia, serif" font-size="72" font-weight="bold"
        fill="url(#goldGradient)" filter="url(#shadow)">Premium Caviar</text>

  <!-- Subtitle with subtle glow -->
  <text x="280" y="230" font-family="Arial, sans-serif" font-size="36"
        fill="#D6DEE6" opacity="0.95" filter="url(#softGlow)">Excellence in Every Jar</text>

  <!-- Brand name with letter spacing -->
  <text x="280" y="300" font-family="Georgia, serif" font-size="32" font-weight="bold"
        fill="#CFAE58" letter-spacing="4" filter="url(#glow)">ROYAL KETA</text>

  <!-- Russian tagline -->
  <text x="280" y="340" font-family="Arial, sans-serif" font-size="22" font-style="italic"
        fill="#8B95A1" opacity="0.8">От икринки к королевской</text>

  <!-- Location -->
  <text x="280" y="380" font-family="Arial, sans-serif" font-size="20"
        fill="#8B95A1" opacity="0.7">Невельский район, Сахалин</text>

  <!-- Website with glow -->
  <text x="100" y="570" font-family="Arial, sans-serif" font-size="30" font-weight="bold"
        fill="#4FD1C5" filter="url(#glow)">royalketa.com</text>

  <!-- Enhanced decorative salmon silhouette -->
  <g transform="translate(950, 480)" opacity="0.2" filter="url(#softGlow)">
    <ellipse cx="0" cy="0" rx="90" ry="35" fill="#CFAE58"/>
    <path d="M 90 0 L 120 -18 L 130 0 L 120 18 Z" fill="#CFAE58"/>
    <path d="M -25 -35 L 0 -45 L 25 -35 Z" fill="#CFAE58"/>
    <ellipse cx="-50" cy="0" rx="15" ry="12" fill="#0B0F14"/>
  </g>

  <!-- Additional decorative caviar clusters -->
  <g opacity="0.2">
    <circle cx="1050" cy="120" r="6" fill="#CFAE58"/>
    <circle cx="1065" cy="115" r="5" fill="#CFAE58"/>
    <circle cx="1058" cy="130" r="4" fill="#CFAE58"/>
    <circle cx="150" cy="500" r="5" fill="#4FD1C5"/>
    <circle cx="165" cy="508" r="4" fill="#4FD1C5"/>
    <circle cx="140" cy="512" r="5" fill="#4FD1C5"/>
  </g>
</svg>