<svg width="1200" height="630" xmlns="http://www.w3.org/2000/svg">
  <defs>
    <linearGradient id="bgGradient" x1="0%" y1="0%" x2="100%" y2="100%">
      <stop offset="0%" style="stop-color:#0B0F14;stop-opacity:1" />
      <stop offset="50%" style="stop-color:#0F1619;stop-opacity:1" />
      <stop offset="100%" style="stop-color:#0F1922;stop-opacity:1" />
    </linearGradient>
    <linearGradient id="goldGradient" x1="0%" y1="0%" x2="100%" y2="0%">
      <stop offset="0%" style="stop-color:#E5D596;stop-opacity:1" />
      <stop offset="50%" style="stop-color:#CFAE58;stop-opacity:1" />
      <stop offset="100%" style="stop-color:#B89842;stop-opacity:1" />
    </linearGradient>
    <radialGradient id="oceanGradient" cx="50%" cy="50%" r="50%">
      <stop offset="0%" style="stop-color:#4FD1C5;stop-opacity:0.3" />
      <stop offset="100%" style="stop-color:#1E90A0;stop-opacity:0.05" />
    </radialGradient>
    <filter id="glow">
      <feGaussianBlur stdDeviation="5" result="coloredBlur"/>
      <feMerge>
        <feMergeNode in="coloredBlur"/>
        <feMergeNode in="SourceGraphic"/>
      </feMerge>
    </filter>
    <filter id="softGlow">
      <feGaussianBlur stdDeviation="8" result="coloredBlur"/>
      <feMerge>
        <feMergeNode in="coloredBlur"/>
        <feMergeNode in="SourceGraphic"/>
      </feMerge>
    </filter>
    <filter id="shadow">
      <feDropShadow dx="0" dy="4" stdDeviation="8" flood-color="#000000" flood-opacity="0.5"/>
    </filter>
  </defs>

  <!-- Background -->
  <rect width="1200" height="630" fill="url(#bgGradient)"/>

  <!-- Decorative ocean gradients -->
  <ellipse cx="1000" cy="150" rx="300" ry="200" fill="url(#oceanGradient)" opacity="0.4"/>
  <ellipse cx="200" cy="530" rx="250" ry="180" fill="url(#oceanGradient)" opacity="0.3"/>

  <!-- Wave patterns -->
  <path d="M 0 400 Q 300 350 600 400 T 1200 400 L 1200 630 L 0 630 Z" fill="#1E90A0" opacity="0.08"/>
  <path d="M 0 450 Q 250 420 500 450 T 1000 450 T 1200 450 L 1200 630 L 0 630 Z" fill="#4FD1C5" opacity="0.05"/>

  <!-- Caviar roe particles -->
  <circle cx="755.2405225815061" cy="184.58017309594362" r="5.257056821929784" fill="#CFAE58" opacity="0.13866434431794322"/>
  <circle cx="1173.340905386639" cy="526.715458618135" r="2.7635913426747196" fill="#CFAE58" opacity="0.1974440142918578"/>
  <circle cx="1063.5823423773945" cy="393.60684511678954" r="2.0675737732654795" fill="#CFAE58" opacity="0.10325179608884447"/>
  <circle cx="568.2365616233865" cy="31.98591188693645" r="5.76736284206214" fill="#CFAE58" opacity="0.12726697610330628"/>
  <circle cx="1084.7969373544267" cy="0.1367446075436951" r="5.898998794925103" fill="#CFAE58" opacity="0.17039889406663383"/>
  <circle cx="348.56125783594257" cy="521.2290770350023" r="2.620818015494928" fill="#CFAE58" opacity="0.16170156504263994"/>
  <circle cx="506.2117801837537" cy="433.74771221237563" r="5.066456377488557" fill="#CFAE58" opacity="0.23369039111987677"/>
  <circle cx="1066.5938995096828" cy="615.7295959037973" r="4.737435680898384" fill="#CFAE58" opacity="0.11516188920118463"/>
  <circle cx="515.7082338845711" cy="218.87189577394207" r="2.3422055897690015" fill="#CFAE58" opacity="0.21914412720956333"/>
  <circle cx="899.3357249092999" cy="292.705415025836" r="3.215404758012518" fill="#CFAE58" opacity="0.1464420280755452"/>
  <circle cx="465.81621868274203" cy="592.2005514194005" r="3.8347615721927877" fill="#CFAE58" opacity="0.22639620880152495"/>
  <circle cx="764.4058237524137" cy="454.8743311339506" r="5.270067115404849" fill="#CFAE58" opacity="0.24374070070765916"/>
  <circle cx="735.2762777877493" cy="213.62310715902902" r="5.84290420991307" fill="#CFAE58" opacity="0.1256538188751016"/>
  <circle cx="631.6595574733195" cy="148.7726066159277" r="3.6457513941461848" fill="#CFAE58" opacity="0.20860771996574862"/>
  <circle cx="1192.699982863974" cy="177.90900800790013" r="3.1503481858329305" fill="#CFAE58" opacity="0.1246144384963713"/>
  <circle cx="407.7146828579487" cy="564.9434408582783" r="4.458040323530853" fill="#CFAE58" opacity="0.20123788407270507"/>
  <circle cx="290.06939630793084" cy="524.8371491773174" r="3.9272740259606795" fill="#CFAE58" opacity="0.15670017852778365"/>
  <circle cx="821.6215190615856" cy="483.0610512499987" r="3.298749551318017" fill="#CFAE58" opacity="0.23864582449618918"/>
  <circle cx="964.2171544199095" cy="140.21441502293837" r="2.298644018055759" fill="#CFAE58" opacity="0.12005396554209692"/>
  <circle cx="608.7609803197846" cy="403.62559550113315" r="4.003225158739124" fill="#CFAE58" opacity="0.12986952821747405"/>
  <circle cx="1180.581419776177" cy="522.7535870175142" r="2.199242657870201" fill="#CFAE58" opacity="0.14677898749877477"/>
  <circle cx="1140.3121503007433" cy="261.63508993552614" r="2.3206427350063237" fill="#CFAE58" opacity="0.14054765523644938"/>
  <circle cx="314.22686461793586" cy="246.11388219605828" r="4.072816199884727" fill="#CFAE58" opacity="0.11768162240214819"/>
  <circle cx="85.88183419969573" cy="97.09318946947502" r="5.037700160056039" fill="#CFAE58" opacity="0.13556199402138136"/>
  <circle cx="814.0015591861948" cy="27.401331601884884" r="5.705072066939813" fill="#CFAE58" opacity="0.16734360899949402"/>
  <circle cx="1083.189221228298" cy="88.23639371469253" r="2.675809352763001" fill="#CFAE58" opacity="0.1903913302487657"/>
  <circle cx="748.6882470945773" cy="512.1296580311413" r="5.721412482741281" fill="#CFAE58" opacity="0.24505348422657997"/>
  <circle cx="293.0856446571321" cy="345.28131252355934" r="4.841609014349658" fill="#CFAE58" opacity="0.24351226930725925"/>
  <circle cx="889.870403467172" cy="54.2994182352501" r="5.0184814537120825" fill="#CFAE58" opacity="0.16458646159273088"/>
  <circle cx="25.77962861512937" cy="313.15971008149717" r="4.827192214899352" fill="#CFAE58" opacity="0.1967025297734984"/>

  <!-- Border with glow -->
  <rect x="40" y="40" width="1120" height="550" fill="none" stroke="url(#goldGradient)" stroke-width="3" rx="12" filter="url(#softGlow)"/>

  <!-- Icon circle with premium background -->
  <circle cx="150" cy="200" r="75" fill="#CFAE58" opacity="0.15" filter="url(#softGlow)"/>
  <circle cx="150" cy="200" r="70" fill="#CFAE58" opacity="0.25"/>
  <text x="150" y="235" font-size="90" text-anchor="middle" fill="#CFAE58" filter="url(#glow)">🫙</text>

  <!-- Premium logo (crown) with enhanced styling -->
  <g transform="translate(100, 70)">
    <path d="M 30 20 L 40 35 L 35 35 Z M 50 15 L 60 35 L 45 35 Z M 65 20 L 75 35 L 70 35 Z M 30 35 L 75 35 L 73 45 L 32 45 Z"
          fill="url(#goldGradient)" filter="url(#glow)" stroke="#B89842" stroke-width="0.5"/>
    <circle cx="40" cy="25" r="3" fill="#4FD1C5" filter="url(#glow)"/>
    <circle cx="52" cy="20" r="4" fill="#4FD1C5" filter="url(#glow)"/>
    <circle cx="65" cy="25" r="3" fill="#4FD1C5" filter="url(#glow)"/>
  </g>

  <!-- Title with shadow -->
  <text x="280" y="180" font-family="Georgia, serif" font-size="72" font-weight="bold"
        fill="url(#goldGradient)" filter="url(#shadow)">Premium Caviar</text>

  <!-- Subtitle with subtle glow -->
  <text x="280" y="230" font-family="Arial, sans-serif" font-size="36"
        fill="#D6DEE6" opacity="0.95" filter="url(#softGlow)">Excellence in Every Jar</text>

  <!-- Brand name with letter spacing -->
  <text x="280" y="300" font-family="Georgia, serif" font-size="32" font-weight="bold"
        fill="#CFAE58" letter-spacing="4" filter="url(#glow)">ROYAL KETA</text>

  <!-- Russian tagline -->
  <text x="280" y="340" font-family="Arial, sans-serif" font-size="22" font-style="italic"
        fill="#8B95A1" opacity="0.8">От икринки к королевской</text>

  <!-- Location -->
  <text x="280" y="380" font-family="Arial, sans-serif" font-size="20"
        fill="#8B95A1" opacity="0.7">Невельский район, Сахалин</text>

  <!-- Website with glow -->
  <text x="100" y="570" font-family="Arial, sans-serif" font-size="30" font-weight="bold"
        fill="#4FD1C5" filter="url(#glow)">royalketa.com</text>

  <!-- Enhanced decorative salmon silhouette -->
  <g transform="translate(950, 480)" opacity="0.2" filter="url(#softGlow)">
    <ellipse cx="0" cy="0" rx="90" ry="35" fill="#CFAE58"/>
    <path d="M 90 0 L 120 -18 L 130 0 L 120 18 Z" fill="#CFAE58"/>
    <path d="M -25 -35 L 0 -45 L 25 -35 Z" fill="#CFAE58"/>
    <ellipse cx="-50" cy="0" rx="15" ry="12" fill="#0B0F14"/>
  </g>

  <!-- Additional decorative caviar clusters -->
  <g opacity="0.2">
    <circle cx="1050" cy="120" r="6" fill="#CFAE58"/>
    <circle cx="1065" cy="115" r="5" fill="#CFAE58"/>
    <circle cx="1058" cy="130" r="4" fill="#CFAE58"/>
    <circle cx="150" cy="500" r="5" fill="#4FD1C5"/>
    <circle cx="165" cy="508" r="4" fill="#4FD1C5"/>
    <circle cx="140" cy="512" r="5" fill="#4FD1C5"/>
  </g>
</svg>