<svg width="1200" height="630" xmlns="http://www.w3.org/2000/svg">
  <defs>
    <linearGradient id="bgGradient" x1="0%" y1="0%" x2="100%" y2="100%">
      <stop offset="0%" style="stop-color:#0B0F14;stop-opacity:1" />
      <stop offset="50%" style="stop-color:#0F1619;stop-opacity:1" />
      <stop offset="100%" style="stop-color:#0F1922;stop-opacity:1" />
    </linearGradient>
    <linearGradient id="goldGradient" x1="0%" y1="0%" x2="100%" y2="0%">
      <stop offset="0%" style="stop-color:#E5D596;stop-opacity:1" />
      <stop offset="50%" style="stop-color:#CFAE58;stop-opacity:1" />
      <stop offset="100%" style="stop-color:#B89842;stop-opacity:1" />
    </linearGradient>
    <radialGradient id="oceanGradient" cx="50%" cy="50%" r="50%">
      <stop offset="0%" style="stop-color:#4FD1C5;stop-opacity:0.3" />
      <stop offset="100%" style="stop-color:#1E90A0;stop-opacity:0.05" />
    </radialGradient>
    <filter id="glow">
      <feGaussianBlur stdDeviation="5" result="coloredBlur"/>
      <feMerge>
        <feMergeNode in="coloredBlur"/>
        <feMergeNode in="SourceGraphic"/>
      </feMerge>
    </filter>
    <filter id="softGlow">
      <feGaussianBlur stdDeviation="8" result="coloredBlur"/>
      <feMerge>
        <feMergeNode in="coloredBlur"/>
        <feMergeNode in="SourceGraphic"/>
      </feMerge>
    </filter>
    <filter id="shadow">
      <feDropShadow dx="0" dy="4" stdDeviation="8" flood-color="#000000" flood-opacity="0.5"/>
    </filter>
  </defs>

  <!-- Background -->
  <rect width="1200" height="630" fill="url(#bgGradient)"/>

  <!-- Decorative ocean gradients -->
  <ellipse cx="1000" cy="150" rx="300" ry="200" fill="url(#oceanGradient)" opacity="0.4"/>
  <ellipse cx="200" cy="530" rx="250" ry="180" fill="url(#oceanGradient)" opacity="0.3"/>

  <!-- Wave patterns -->
  <path d="M 0 400 Q 300 350 600 400 T 1200 400 L 1200 630 L 0 630 Z" fill="#1E90A0" opacity="0.08"/>
  <path d="M 0 450 Q 250 420 500 450 T 1000 450 T 1200 450 L 1200 630 L 0 630 Z" fill="#4FD1C5" opacity="0.05"/>

  <!-- Caviar roe particles -->
  <circle cx="108.17343320811274" cy="440.2863349391787" r="2.432693835888597" fill="#CFAE58" opacity="0.10911805602982846"/>
  <circle cx="1060.758013162073" cy="327.51432752031457" r="2.006400300587486" fill="#CFAE58" opacity="0.154580947968022"/>
  <circle cx="780.1151248450385" cy="142.49162782212642" r="4.144765419489248" fill="#CFAE58" opacity="0.22379559380120118"/>
  <circle cx="616.4354109324202" cy="569.993147996669" r="3.77909569023776" fill="#CFAE58" opacity="0.19362300701006108"/>
  <circle cx="1014.724189654039" cy="411.8328647003051" r="3.0475770163744875" fill="#CFAE58" opacity="0.1348155892844576"/>
  <circle cx="150.87108778322386" cy="193.18489564292454" r="4.60463131985855" fill="#CFAE58" opacity="0.11307559002094539"/>
  <circle cx="243.51718684939283" cy="456.79995948603454" r="5.02698054135398" fill="#CFAE58" opacity="0.16052585463572183"/>
  <circle cx="395.7202359754789" cy="277.0955141451912" r="4.72328641027798" fill="#CFAE58" opacity="0.24765857701379507"/>
  <circle cx="288.4538321335405" cy="30.02044871915176" r="2.689946229711598" fill="#CFAE58" opacity="0.13767656760822228"/>
  <circle cx="57.377582981798355" cy="494.91020659682584" r="2.952762592327491" fill="#CFAE58" opacity="0.1023154430608712"/>
  <circle cx="159.64152050855455" cy="278.1456672296797" r="5.358925115202056" fill="#CFAE58" opacity="0.1530295072234938"/>
  <circle cx="309.168692053958" cy="229.2851499535041" r="5.516474719756973" fill="#CFAE58" opacity="0.21457593140699874"/>
  <circle cx="894.9705521103166" cy="578.0515674193705" r="3.339444640441916" fill="#CFAE58" opacity="0.14249813499770894"/>
  <circle cx="338.31830010130756" cy="359.06357617063435" r="2.316116716597401" fill="#CFAE58" opacity="0.180285150710274"/>
  <circle cx="360.7359151128714" cy="570.464067969315" r="2.7485230059657306" fill="#CFAE58" opacity="0.22157716802299635"/>
  <circle cx="504.66750294102457" cy="469.8978035860347" r="3.099370753426243" fill="#CFAE58" opacity="0.15945031553431238"/>
  <circle cx="539.3898458595276" cy="286.68978469496847" r="5.153670696042193" fill="#CFAE58" opacity="0.15780803926817838"/>
  <circle cx="700.0009407236403" cy="65.70908355706992" r="3.2223242555975222" fill="#CFAE58" opacity="0.16319737280644067"/>
  <circle cx="265.9100696589619" cy="355.23159389785707" r="3.5238660748907042" fill="#CFAE58" opacity="0.19842974549182446"/>
  <circle cx="384.8681802186519" cy="277.1956441369036" r="3.0540520582293205" fill="#CFAE58" opacity="0.24405067754370266"/>
  <circle cx="122.78061021653018" cy="408.88582368377183" r="2.4215534458422394" fill="#CFAE58" opacity="0.1765477820162301"/>
  <circle cx="804.7630123444948" cy="34.19884096329611" r="2.7069113467958945" fill="#CFAE58" opacity="0.16264818232911898"/>
  <circle cx="273.7171462829568" cy="533.6633413554822" r="3.6570699376975173" fill="#CFAE58" opacity="0.17857097160146773"/>
  <circle cx="516.2334692869223" cy="396.7349445582859" r="4.279200730450229" fill="#CFAE58" opacity="0.18245744828530272"/>
  <circle cx="755.8357337610872" cy="532.2460740577608" r="3.515417146533143" fill="#CFAE58" opacity="0.21902010056240698"/>
  <circle cx="379.7435731847513" cy="183.50655598558114" r="5.642153714866208" fill="#CFAE58" opacity="0.16131835210937615"/>
  <circle cx="591.2745950430856" cy="111.85288638663584" r="4.3820446937148105" fill="#CFAE58" opacity="0.126884274432445"/>
  <circle cx="466.747260466813" cy="90.46329171209781" r="5.250340266774115" fill="#CFAE58" opacity="0.23102847044446617"/>
  <circle cx="563.0828571625082" cy="269.6745893142096" r="2.8131142286642867" fill="#CFAE58" opacity="0.23789849337989938"/>
  <circle cx="863.1174665592181" cy="629.8374551207704" r="3.852171989677577" fill="#CFAE58" opacity="0.18060422546427501"/>

  <!-- Border with glow -->
  <rect x="40" y="40" width="1120" height="550" fill="none" stroke="url(#goldGradient)" stroke-width="3" rx="12" filter="url(#softGlow)"/>

  <!-- Icon circle with premium background -->
  <circle cx="150" cy="200" r="75" fill="#CFAE58" opacity="0.15" filter="url(#softGlow)"/>
  <circle cx="150" cy="200" r="70" fill="#CFAE58" opacity="0.25"/>
  <text x="150" y="235" font-size="90" text-anchor="middle" fill="#CFAE58" filter="url(#glow)">🫙</text>

  <!-- Premium logo (crown) with enhanced styling -->
  <g transform="translate(100, 70)">
    <path d="M 30 20 L 40 35 L 35 35 Z M 50 15 L 60 35 L 45 35 Z M 65 20 L 75 35 L 70 35 Z M 30 35 L 75 35 L 73 45 L 32 45 Z"
          fill="url(#goldGradient)" filter="url(#glow)" stroke="#B89842" stroke-width="0.5"/>
    <circle cx="40" cy="25" r="3" fill="#4FD1C5" filter="url(#glow)"/>
    <circle cx="52" cy="20" r="4" fill="#4FD1C5" filter="url(#glow)"/>
    <circle cx="65" cy="25" r="3" fill="#4FD1C5" filter="url(#glow)"/>
  </g>

  <!-- Title with shadow -->
  <text x="280" y="180" font-family="Georgia, serif" font-size="72" font-weight="bold"
        fill="url(#goldGradient)" filter="url(#shadow)">Premium Caviar</text>

  <!-- Subtitle with subtle glow -->
  <text x="280" y="230" font-family="Arial, sans-serif" font-size="36"
        fill="#D6DEE6" opacity="0.95" filter="url(#softGlow)">Excellence in Every Jar</text>

  <!-- Brand name with letter spacing -->
  <text x="280" y="300" font-family="Georgia, serif" font-size="32" font-weight="bold"
        fill="#CFAE58" letter-spacing="4" filter="url(#glow)">ROYAL KETA</text>

  <!-- Russian tagline -->
  <text x="280" y="340" font-family="Arial, sans-serif" font-size="22" font-style="italic"
        fill="#8B95A1" opacity="0.8">От икринки к королевской</text>

  <!-- Location -->
  <text x="280" y="380" font-family="Arial, sans-serif" font-size="20"
        fill="#8B95A1" opacity="0.7">Невельский район, Сахалин</text>

  <!-- Website with glow -->
  <text x="100" y="570" font-family="Arial, sans-serif" font-size="30" font-weight="bold"
        fill="#4FD1C5" filter="url(#glow)">royalketa.com</text>

  <!-- Enhanced decorative salmon silhouette -->
  <g transform="translate(950, 480)" opacity="0.2" filter="url(#softGlow)">
    <ellipse cx="0" cy="0" rx="90" ry="35" fill="#CFAE58"/>
    <path d="M 90 0 L 120 -18 L 130 0 L 120 18 Z" fill="#CFAE58"/>
    <path d="M -25 -35 L 0 -45 L 25 -35 Z" fill="#CFAE58"/>
    <ellipse cx="-50" cy="0" rx="15" ry="12" fill="#0B0F14"/>
  </g>

  <!-- Additional decorative caviar clusters -->
  <g opacity="0.2">
    <circle cx="1050" cy="120" r="6" fill="#CFAE58"/>
    <circle cx="1065" cy="115" r="5" fill="#CFAE58"/>
    <circle cx="1058" cy="130" r="4" fill="#CFAE58"/>
    <circle cx="150" cy="500" r="5" fill="#4FD1C5"/>
    <circle cx="165" cy="508" r="4" fill="#4FD1C5"/>
    <circle cx="140" cy="512" r="5" fill="#4FD1C5"/>
  </g>
</svg>