<svg width="1200" height="630" xmlns="http://www.w3.org/2000/svg">
  <defs>
    <linearGradient id="bgGradient" x1="0%" y1="0%" x2="100%" y2="100%">
      <stop offset="0%" style="stop-color:#0B0F14;stop-opacity:1" />
      <stop offset="50%" style="stop-color:#0F1619;stop-opacity:1" />
      <stop offset="100%" style="stop-color:#0F1922;stop-opacity:1" />
    </linearGradient>
    <linearGradient id="goldGradient" x1="0%" y1="0%" x2="100%" y2="0%">
      <stop offset="0%" style="stop-color:#E5D596;stop-opacity:1" />
      <stop offset="50%" style="stop-color:#CFAE58;stop-opacity:1" />
      <stop offset="100%" style="stop-color:#B89842;stop-opacity:1" />
    </linearGradient>
    <radialGradient id="oceanGradient" cx="50%" cy="50%" r="50%">
      <stop offset="0%" style="stop-color:#4FD1C5;stop-opacity:0.3" />
      <stop offset="100%" style="stop-color:#1E90A0;stop-opacity:0.05" />
    </radialGradient>
    <filter id="glow">
      <feGaussianBlur stdDeviation="5" result="coloredBlur"/>
      <feMerge>
        <feMergeNode in="coloredBlur"/>
        <feMergeNode in="SourceGraphic"/>
      </feMerge>
    </filter>
    <filter id="softGlow">
      <feGaussianBlur stdDeviation="8" result="coloredBlur"/>
      <feMerge>
        <feMergeNode in="coloredBlur"/>
        <feMergeNode in="SourceGraphic"/>
      </feMerge>
    </filter>
    <filter id="shadow">
      <feDropShadow dx="0" dy="4" stdDeviation="8" flood-color="#000000" flood-opacity="0.5"/>
    </filter>
  </defs>

  <!-- Background -->
  <rect width="1200" height="630" fill="url(#bgGradient)"/>

  <!-- Decorative ocean gradients -->
  <ellipse cx="1000" cy="150" rx="300" ry="200" fill="url(#oceanGradient)" opacity="0.4"/>
  <ellipse cx="200" cy="530" rx="250" ry="180" fill="url(#oceanGradient)" opacity="0.3"/>

  <!-- Wave patterns -->
  <path d="M 0 400 Q 300 350 600 400 T 1200 400 L 1200 630 L 0 630 Z" fill="#1E90A0" opacity="0.08"/>
  <path d="M 0 450 Q 250 420 500 450 T 1000 450 T 1200 450 L 1200 630 L 0 630 Z" fill="#4FD1C5" opacity="0.05"/>

  <!-- Caviar roe particles -->
  <circle cx="271.30400360573304" cy="127.4740682225683" r="2.4966259410496066" fill="#CFAE58" opacity="0.22820392186649943"/>
  <circle cx="502.7688046541542" cy="562.9312169166673" r="4.899752718244098" fill="#CFAE58" opacity="0.15277126481958353"/>
  <circle cx="98.67753453648058" cy="490.53146904028415" r="3.5725496839326794" fill="#CFAE58" opacity="0.11723889251784905"/>
  <circle cx="786.396627528887" cy="592.8874650904861" r="4.31679428263007" fill="#CFAE58" opacity="0.13836635615508808"/>
  <circle cx="341.09496360952505" cy="347.78432573308197" r="5.820692153766934" fill="#CFAE58" opacity="0.20952068738939383"/>
  <circle cx="1130.5733796358666" cy="90.59622326655933" r="4.3965717787008245" fill="#CFAE58" opacity="0.12662880239746344"/>
  <circle cx="534.8371472814997" cy="15.787561977173842" r="3.002548315289734" fill="#CFAE58" opacity="0.1981003620557525"/>
  <circle cx="284.2261589529606" cy="394.37569100542703" r="2.693145127498979" fill="#CFAE58" opacity="0.12262764572015598"/>
  <circle cx="976.7517834624718" cy="222.92022277057328" r="3.4908832714432436" fill="#CFAE58" opacity="0.10445940511226096"/>
  <circle cx="630.4618648456176" cy="483.1008722150763" r="3.447733936066019" fill="#CFAE58" opacity="0.16102211369229721"/>
  <circle cx="1057.7221630991928" cy="318.29231760009316" r="3.476688024485884" fill="#CFAE58" opacity="0.1668614389688153"/>
  <circle cx="1153.022553804386" cy="344.92501247635835" r="4.833573722367218" fill="#CFAE58" opacity="0.16521257168343662"/>
  <circle cx="580.5564353904065" cy="260.98130245110696" r="4.6156128471523665" fill="#CFAE58" opacity="0.14765549797447713"/>
  <circle cx="447.22247050454513" cy="86.84794567678415" r="2.3869759531672754" fill="#CFAE58" opacity="0.21723631533835364"/>
  <circle cx="511.15304111760946" cy="472.4318905111682" r="3.5070332037320635" fill="#CFAE58" opacity="0.12731112733668165"/>
  <circle cx="309.3918872639211" cy="384.8078432661184" r="5.350108161957191" fill="#CFAE58" opacity="0.15897525278217425"/>
  <circle cx="743.042732193465" cy="230.99089186432" r="2.528493349515583" fill="#CFAE58" opacity="0.15387445967538382"/>
  <circle cx="769.7592068985488" cy="495.9163979970524" r="2.779803924935649" fill="#CFAE58" opacity="0.13501660998403942"/>
  <circle cx="286.32276761287824" cy="484.42149967839066" r="3.0178044902777486" fill="#CFAE58" opacity="0.16566523243080547"/>
  <circle cx="288.4308886119187" cy="511.0268378879244" r="4.036661357555" fill="#CFAE58" opacity="0.15409897689264557"/>
  <circle cx="971.603832370152" cy="130.6802008869323" r="2.451806974994369" fill="#CFAE58" opacity="0.11802223114276422"/>
  <circle cx="24.309829825779737" cy="141.96586782604328" r="2.186131103823936" fill="#CFAE58" opacity="0.2126029958803374"/>
  <circle cx="914.800204378979" cy="607.1870601073349" r="4.192166674641887" fill="#CFAE58" opacity="0.21510175605240386"/>
  <circle cx="532.1113908966053" cy="129.49793678462194" r="5.821416708708243" fill="#CFAE58" opacity="0.23897224383850002"/>
  <circle cx="483.98344432948016" cy="65.64559533684633" r="4.871250052598398" fill="#CFAE58" opacity="0.20287578722846733"/>
  <circle cx="195.75565247345085" cy="398.98198124018575" r="3.6980247037624348" fill="#CFAE58" opacity="0.1995167387201392"/>
  <circle cx="626.8733386420002" cy="477.06821501272077" r="4.594401781288031" fill="#CFAE58" opacity="0.10459843948721902"/>
  <circle cx="464.56729329179103" cy="538.9338777255414" r="5.976918353472419" fill="#CFAE58" opacity="0.24940236544987285"/>
  <circle cx="756.7950194967449" cy="113.11619064438425" r="2.499115264888439" fill="#CFAE58" opacity="0.11157146331773886"/>
  <circle cx="158.7687746987721" cy="144.94297277477364" r="5.006788662315115" fill="#CFAE58" opacity="0.24567266717272476"/>

  <!-- Border with glow -->
  <rect x="40" y="40" width="1120" height="550" fill="none" stroke="url(#goldGradient)" stroke-width="3" rx="12" filter="url(#softGlow)"/>

  <!-- Icon circle with premium background -->
  <circle cx="150" cy="200" r="75" fill="#CFAE58" opacity="0.15" filter="url(#softGlow)"/>
  <circle cx="150" cy="200" r="70" fill="#CFAE58" opacity="0.25"/>
  <text x="150" y="235" font-size="90" text-anchor="middle" fill="#CFAE58" filter="url(#glow)">🫙</text>

  <!-- Premium logo (crown) with enhanced styling -->
  <g transform="translate(100, 70)">
    <path d="M 30 20 L 40 35 L 35 35 Z M 50 15 L 60 35 L 45 35 Z M 65 20 L 75 35 L 70 35 Z M 30 35 L 75 35 L 73 45 L 32 45 Z"
          fill="url(#goldGradient)" filter="url(#glow)" stroke="#B89842" stroke-width="0.5"/>
    <circle cx="40" cy="25" r="3" fill="#4FD1C5" filter="url(#glow)"/>
    <circle cx="52" cy="20" r="4" fill="#4FD1C5" filter="url(#glow)"/>
    <circle cx="65" cy="25" r="3" fill="#4FD1C5" filter="url(#glow)"/>
  </g>

  <!-- Title with shadow -->
  <text x="280" y="180" font-family="Georgia, serif" font-size="72" font-weight="bold"
        fill="url(#goldGradient)" filter="url(#shadow)">Premium Caviar</text>

  <!-- Subtitle with subtle glow -->
  <text x="280" y="230" font-family="Arial, sans-serif" font-size="36"
        fill="#D6DEE6" opacity="0.95" filter="url(#softGlow)">Excellence in Every Jar</text>

  <!-- Brand name with letter spacing -->
  <text x="280" y="300" font-family="Georgia, serif" font-size="32" font-weight="bold"
        fill="#CFAE58" letter-spacing="4" filter="url(#glow)">ROYAL KETA</text>

  <!-- Russian tagline -->
  <text x="280" y="340" font-family="Arial, sans-serif" font-size="22" font-style="italic"
        fill="#8B95A1" opacity="0.8">От икринки к королевской</text>

  <!-- Location -->
  <text x="280" y="380" font-family="Arial, sans-serif" font-size="20"
        fill="#8B95A1" opacity="0.7">Невельский район, Сахалин</text>

  <!-- Website with glow -->
  <text x="100" y="570" font-family="Arial, sans-serif" font-size="30" font-weight="bold"
        fill="#4FD1C5" filter="url(#glow)">royalketa.com</text>

  <!-- Enhanced decorative salmon silhouette -->
  <g transform="translate(950, 480)" opacity="0.2" filter="url(#softGlow)">
    <ellipse cx="0" cy="0" rx="90" ry="35" fill="#CFAE58"/>
    <path d="M 90 0 L 120 -18 L 130 0 L 120 18 Z" fill="#CFAE58"/>
    <path d="M -25 -35 L 0 -45 L 25 -35 Z" fill="#CFAE58"/>
    <ellipse cx="-50" cy="0" rx="15" ry="12" fill="#0B0F14"/>
  </g>

  <!-- Additional decorative caviar clusters -->
  <g opacity="0.2">
    <circle cx="1050" cy="120" r="6" fill="#CFAE58"/>
    <circle cx="1065" cy="115" r="5" fill="#CFAE58"/>
    <circle cx="1058" cy="130" r="4" fill="#CFAE58"/>
    <circle cx="150" cy="500" r="5" fill="#4FD1C5"/>
    <circle cx="165" cy="508" r="4" fill="#4FD1C5"/>
    <circle cx="140" cy="512" r="5" fill="#4FD1C5"/>
  </g>
</svg>