<svg width="1200" height="630" xmlns="http://www.w3.org/2000/svg">
  <defs>
    <linearGradient id="bgGradient" x1="0%" y1="0%" x2="100%" y2="100%">
      <stop offset="0%" style="stop-color:#0B0F14;stop-opacity:1" />
      <stop offset="50%" style="stop-color:#0F1619;stop-opacity:1" />
      <stop offset="100%" style="stop-color:#0F1922;stop-opacity:1" />
    </linearGradient>
    <linearGradient id="goldGradient" x1="0%" y1="0%" x2="100%" y2="0%">
      <stop offset="0%" style="stop-color:#E5D596;stop-opacity:1" />
      <stop offset="50%" style="stop-color:#CFAE58;stop-opacity:1" />
      <stop offset="100%" style="stop-color:#B89842;stop-opacity:1" />
    </linearGradient>
    <radialGradient id="oceanGradient" cx="50%" cy="50%" r="50%">
      <stop offset="0%" style="stop-color:#4FD1C5;stop-opacity:0.3" />
      <stop offset="100%" style="stop-color:#1E90A0;stop-opacity:0.05" />
    </radialGradient>
    <filter id="glow">
      <feGaussianBlur stdDeviation="5" result="coloredBlur"/>
      <feMerge>
        <feMergeNode in="coloredBlur"/>
        <feMergeNode in="SourceGraphic"/>
      </feMerge>
    </filter>
    <filter id="softGlow">
      <feGaussianBlur stdDeviation="8" result="coloredBlur"/>
      <feMerge>
        <feMergeNode in="coloredBlur"/>
        <feMergeNode in="SourceGraphic"/>
      </feMerge>
    </filter>
    <filter id="shadow">
      <feDropShadow dx="0" dy="4" stdDeviation="8" flood-color="#000000" flood-opacity="0.5"/>
    </filter>
  </defs>

  <!-- Background -->
  <rect width="1200" height="630" fill="url(#bgGradient)"/>

  <!-- Decorative ocean gradients -->
  <ellipse cx="1000" cy="150" rx="300" ry="200" fill="url(#oceanGradient)" opacity="0.4"/>
  <ellipse cx="200" cy="530" rx="250" ry="180" fill="url(#oceanGradient)" opacity="0.3"/>

  <!-- Wave patterns -->
  <path d="M 0 400 Q 300 350 600 400 T 1200 400 L 1200 630 L 0 630 Z" fill="#1E90A0" opacity="0.08"/>
  <path d="M 0 450 Q 250 420 500 450 T 1000 450 T 1200 450 L 1200 630 L 0 630 Z" fill="#4FD1C5" opacity="0.05"/>

  <!-- Caviar roe particles -->
  <circle cx="236.2248130807298" cy="471.0999964309577" r="3.5687269744018986" fill="#CFAE58" opacity="0.24811072627598477"/>
  <circle cx="876.6822537312553" cy="320.8200760265797" r="4.98295618537828" fill="#CFAE58" opacity="0.16718363711478307"/>
  <circle cx="416.3380022548709" cy="197.4246312204515" r="5.269159245896505" fill="#CFAE58" opacity="0.1493595808678169"/>
  <circle cx="354.2159281193596" cy="458.46043327741023" r="5.589709796759742" fill="#CFAE58" opacity="0.17771462541980343"/>
  <circle cx="1057.0779565433854" cy="543.6673208749079" r="4.322450000404491" fill="#CFAE58" opacity="0.14600721645168468"/>
  <circle cx="281.39790046186215" cy="479.09429472003313" r="3.9597437452313438" fill="#CFAE58" opacity="0.24949149346503294"/>
  <circle cx="79.74283639985048" cy="162.224419284748" r="4.089872280428146" fill="#CFAE58" opacity="0.1429275313443758"/>
  <circle cx="693.1283530021889" cy="24.43144563883" r="4.7030530996702975" fill="#CFAE58" opacity="0.17690226106266332"/>
  <circle cx="610.2960604903221" cy="592.7062934805556" r="5.0040200700398305" fill="#CFAE58" opacity="0.2038007111575531"/>
  <circle cx="50.501701773021466" cy="341.8903077486975" r="5.237360147962995" fill="#CFAE58" opacity="0.22429675883602548"/>
  <circle cx="1058.0948322972797" cy="219.32793224881658" r="3.432257121545168" fill="#CFAE58" opacity="0.2463931974555496"/>
  <circle cx="989.4110359515181" cy="56.52888156760659" r="3.280770100793042" fill="#CFAE58" opacity="0.12379277532034802"/>
  <circle cx="500.1596084685395" cy="560.2901324607058" r="4.120307949694558" fill="#CFAE58" opacity="0.15669560466424756"/>
  <circle cx="1060.5465918622008" cy="95.0462489769199" r="3.7784532112021463" fill="#CFAE58" opacity="0.16244098976254465"/>
  <circle cx="1142.8828108525647" cy="469.37247018647616" r="5.117583533605741" fill="#CFAE58" opacity="0.14788249418037044"/>
  <circle cx="562.9275699115302" cy="355.2461609408977" r="2.834699565821355" fill="#CFAE58" opacity="0.23633263057213663"/>
  <circle cx="1181.4156721196216" cy="380.94570165498726" r="3.996103810183347" fill="#CFAE58" opacity="0.2108120562560128"/>
  <circle cx="741.3189930735894" cy="520.3376223262866" r="5.658012701732859" fill="#CFAE58" opacity="0.1065721487411156"/>
  <circle cx="433.6864100862792" cy="446.479152240679" r="3.9608147527737088" fill="#CFAE58" opacity="0.13298984656806684"/>
  <circle cx="19.582594064987056" cy="350.33705098903044" r="3.529281101491141" fill="#CFAE58" opacity="0.11908997551527807"/>
  <circle cx="1041.1696847557423" cy="19.197909048847343" r="4.492117536589622" fill="#CFAE58" opacity="0.22037951353152713"/>
  <circle cx="1080.9719617982337" cy="345.94261314395544" r="3.5837064074798124" fill="#CFAE58" opacity="0.1825064372055643"/>
  <circle cx="441.5214255634313" cy="584.3803490949404" r="5.031622143933883" fill="#CFAE58" opacity="0.22014463337716508"/>
  <circle cx="525.9246106716696" cy="184.99298281255355" r="4.335388031667543" fill="#CFAE58" opacity="0.15149690278872824"/>
  <circle cx="676.5927777230022" cy="408.9987087266236" r="4.768298401143808" fill="#CFAE58" opacity="0.1270132641085412"/>
  <circle cx="329.05180659876146" cy="196.34704567777408" r="5.2684959635700075" fill="#CFAE58" opacity="0.2384377738437767"/>
  <circle cx="945.8081182182768" cy="320.73647892816024" r="4.616401636756466" fill="#CFAE58" opacity="0.14734723795533294"/>
  <circle cx="726.3082161411102" cy="505.0462159251896" r="2.6084754191895136" fill="#CFAE58" opacity="0.10462258915664668"/>
  <circle cx="62.78746228776333" cy="237.29965485624965" r="4.808596549148367" fill="#CFAE58" opacity="0.2115453916102733"/>
  <circle cx="167.86468233028566" cy="602.0438169106689" r="5.056714096667781" fill="#CFAE58" opacity="0.13850821489901255"/>

  <!-- Border with glow -->
  <rect x="40" y="40" width="1120" height="550" fill="none" stroke="url(#goldGradient)" stroke-width="3" rx="12" filter="url(#softGlow)"/>

  <!-- Icon circle with premium background -->
  <circle cx="150" cy="200" r="75" fill="#CFAE58" opacity="0.15" filter="url(#softGlow)"/>
  <circle cx="150" cy="200" r="70" fill="#CFAE58" opacity="0.25"/>
  <text x="150" y="235" font-size="90" text-anchor="middle" fill="#CFAE58" filter="url(#glow)">🫙</text>

  <!-- Premium logo (crown) with enhanced styling -->
  <g transform="translate(100, 70)">
    <path d="M 30 20 L 40 35 L 35 35 Z M 50 15 L 60 35 L 45 35 Z M 65 20 L 75 35 L 70 35 Z M 30 35 L 75 35 L 73 45 L 32 45 Z"
          fill="url(#goldGradient)" filter="url(#glow)" stroke="#B89842" stroke-width="0.5"/>
    <circle cx="40" cy="25" r="3" fill="#4FD1C5" filter="url(#glow)"/>
    <circle cx="52" cy="20" r="4" fill="#4FD1C5" filter="url(#glow)"/>
    <circle cx="65" cy="25" r="3" fill="#4FD1C5" filter="url(#glow)"/>
  </g>

  <!-- Title with shadow -->
  <text x="280" y="180" font-family="Georgia, serif" font-size="72" font-weight="bold"
        fill="url(#goldGradient)" filter="url(#shadow)">Premium Caviar</text>

  <!-- Subtitle with subtle glow -->
  <text x="280" y="230" font-family="Arial, sans-serif" font-size="36"
        fill="#D6DEE6" opacity="0.95" filter="url(#softGlow)">Excellence in Every Jar</text>

  <!-- Brand name with letter spacing -->
  <text x="280" y="300" font-family="Georgia, serif" font-size="32" font-weight="bold"
        fill="#CFAE58" letter-spacing="4" filter="url(#glow)">ROYAL KETA</text>

  <!-- Russian tagline -->
  <text x="280" y="340" font-family="Arial, sans-serif" font-size="22" font-style="italic"
        fill="#8B95A1" opacity="0.8">От икринки к королевской</text>

  <!-- Location -->
  <text x="280" y="380" font-family="Arial, sans-serif" font-size="20"
        fill="#8B95A1" opacity="0.7">Невельский район, Сахалин</text>

  <!-- Website with glow -->
  <text x="100" y="570" font-family="Arial, sans-serif" font-size="30" font-weight="bold"
        fill="#4FD1C5" filter="url(#glow)">royalketa.com</text>

  <!-- Enhanced decorative salmon silhouette -->
  <g transform="translate(950, 480)" opacity="0.2" filter="url(#softGlow)">
    <ellipse cx="0" cy="0" rx="90" ry="35" fill="#CFAE58"/>
    <path d="M 90 0 L 120 -18 L 130 0 L 120 18 Z" fill="#CFAE58"/>
    <path d="M -25 -35 L 0 -45 L 25 -35 Z" fill="#CFAE58"/>
    <ellipse cx="-50" cy="0" rx="15" ry="12" fill="#0B0F14"/>
  </g>

  <!-- Additional decorative caviar clusters -->
  <g opacity="0.2">
    <circle cx="1050" cy="120" r="6" fill="#CFAE58"/>
    <circle cx="1065" cy="115" r="5" fill="#CFAE58"/>
    <circle cx="1058" cy="130" r="4" fill="#CFAE58"/>
    <circle cx="150" cy="500" r="5" fill="#4FD1C5"/>
    <circle cx="165" cy="508" r="4" fill="#4FD1C5"/>
    <circle cx="140" cy="512" r="5" fill="#4FD1C5"/>
  </g>
</svg>