<svg width="1200" height="630" xmlns="http://www.w3.org/2000/svg">
  <defs>
    <linearGradient id="bgGradient" x1="0%" y1="0%" x2="100%" y2="100%">
      <stop offset="0%" style="stop-color:#0B0F14;stop-opacity:1" />
      <stop offset="50%" style="stop-color:#0F1619;stop-opacity:1" />
      <stop offset="100%" style="stop-color:#0F1922;stop-opacity:1" />
    </linearGradient>
    <linearGradient id="goldGradient" x1="0%" y1="0%" x2="100%" y2="0%">
      <stop offset="0%" style="stop-color:#E5D596;stop-opacity:1" />
      <stop offset="50%" style="stop-color:#CFAE58;stop-opacity:1" />
      <stop offset="100%" style="stop-color:#B89842;stop-opacity:1" />
    </linearGradient>
    <radialGradient id="oceanGradient" cx="50%" cy="50%" r="50%">
      <stop offset="0%" style="stop-color:#4FD1C5;stop-opacity:0.3" />
      <stop offset="100%" style="stop-color:#1E90A0;stop-opacity:0.05" />
    </radialGradient>
    <filter id="glow">
      <feGaussianBlur stdDeviation="5" result="coloredBlur"/>
      <feMerge>
        <feMergeNode in="coloredBlur"/>
        <feMergeNode in="SourceGraphic"/>
      </feMerge>
    </filter>
    <filter id="softGlow">
      <feGaussianBlur stdDeviation="8" result="coloredBlur"/>
      <feMerge>
        <feMergeNode in="coloredBlur"/>
        <feMergeNode in="SourceGraphic"/>
      </feMerge>
    </filter>
    <filter id="shadow">
      <feDropShadow dx="0" dy="4" stdDeviation="8" flood-color="#000000" flood-opacity="0.5"/>
    </filter>
  </defs>

  <!-- Background -->
  <rect width="1200" height="630" fill="url(#bgGradient)"/>

  <!-- Decorative ocean gradients -->
  <ellipse cx="1000" cy="150" rx="300" ry="200" fill="url(#oceanGradient)" opacity="0.4"/>
  <ellipse cx="200" cy="530" rx="250" ry="180" fill="url(#oceanGradient)" opacity="0.3"/>

  <!-- Wave patterns -->
  <path d="M 0 400 Q 300 350 600 400 T 1200 400 L 1200 630 L 0 630 Z" fill="#1E90A0" opacity="0.08"/>
  <path d="M 0 450 Q 250 420 500 450 T 1000 450 T 1200 450 L 1200 630 L 0 630 Z" fill="#4FD1C5" opacity="0.05"/>

  <!-- Caviar roe particles -->
  <circle cx="215.39772220980007" cy="450.74421015831336" r="5.827901091712862" fill="#CFAE58" opacity="0.1362052171109684"/>
  <circle cx="1013.0159950807629" cy="574.7456932542866" r="3.5619207963359942" fill="#CFAE58" opacity="0.1618231634587769"/>
  <circle cx="461.32470226888154" cy="550.861935892829" r="4.518964343785787" fill="#CFAE58" opacity="0.12933537901462236"/>
  <circle cx="252.9087998833953" cy="311.4027319935402" r="3.8829399123772097" fill="#CFAE58" opacity="0.12490145278541556"/>
  <circle cx="665.9598631433278" cy="535.3822922442922" r="2.615511627836507" fill="#CFAE58" opacity="0.20235775078292279"/>
  <circle cx="676.1565830103964" cy="504.722295936307" r="2.7848941964575618" fill="#CFAE58" opacity="0.14652072826531654"/>
  <circle cx="932.4346729575333" cy="163.17114508975976" r="3.197229758323579" fill="#CFAE58" opacity="0.16837933322294427"/>
  <circle cx="566.397464818447" cy="520.1615785770578" r="2.771625330502615" fill="#CFAE58" opacity="0.2404508719380333"/>
  <circle cx="775.8313868153482" cy="245.54056206618728" r="2.8035707271854005" fill="#CFAE58" opacity="0.1663819575132972"/>
  <circle cx="846.8739456796011" cy="503.69821344497143" r="5.534899045218679" fill="#CFAE58" opacity="0.2479588536130492"/>
  <circle cx="192.53628980877346" cy="599.1858715775368" r="4.795201973156394" fill="#CFAE58" opacity="0.19487169760654877"/>
  <circle cx="654.8986811498213" cy="202.24729614464783" r="4.258852141047485" fill="#CFAE58" opacity="0.1967368257921242"/>
  <circle cx="237.6501600619581" cy="225.88960921232666" r="3.807065060117538" fill="#CFAE58" opacity="0.18701432474850072"/>
  <circle cx="21.54491753105292" cy="297.239531630723" r="2.218724462549197" fill="#CFAE58" opacity="0.1675367538669707"/>
  <circle cx="713.1511546425461" cy="116.29745395951618" r="3.3938011794106764" fill="#CFAE58" opacity="0.19410057973063333"/>
  <circle cx="601.6591753630775" cy="498.7921007757272" r="3.797097790914111" fill="#CFAE58" opacity="0.204407651043382"/>
  <circle cx="349.88444499318587" cy="414.16991698213764" r="4.302409383837301" fill="#CFAE58" opacity="0.1484100177091462"/>
  <circle cx="493.3616149337089" cy="162.86553741524725" r="3.53008236458807" fill="#CFAE58" opacity="0.24194603833705297"/>
  <circle cx="714.8047036383342" cy="112.3280592191037" r="4.226403824316379" fill="#CFAE58" opacity="0.20945598062310503"/>
  <circle cx="176.71309467749606" cy="251.14802764217882" r="5.648287614360335" fill="#CFAE58" opacity="0.1776214845736787"/>
  <circle cx="278.29604205825217" cy="110.89055653676468" r="3.9722907103990357" fill="#CFAE58" opacity="0.14660397372703884"/>
  <circle cx="201.75806585131735" cy="243.42846224090619" r="5.236511481483542" fill="#CFAE58" opacity="0.14719656090753563"/>
  <circle cx="568.5377592865862" cy="162.4068357617265" r="4.168644760712529" fill="#CFAE58" opacity="0.2319226294336594"/>
  <circle cx="917.6171288874427" cy="522.4239536605522" r="4.883279172796962" fill="#CFAE58" opacity="0.22703769272229718"/>
  <circle cx="1057.520128315222" cy="9.920221675981331" r="3.8786075667462265" fill="#CFAE58" opacity="0.15254220628872342"/>
  <circle cx="152.87690220747825" cy="373.07693330301726" r="3.3233956763779053" fill="#CFAE58" opacity="0.1305574768492112"/>
  <circle cx="319.1176618457927" cy="97.85811500805572" r="3.046911300793205" fill="#CFAE58" opacity="0.1640107221429345"/>
  <circle cx="900.2262969669789" cy="297.7679426858932" r="3.114957808808808" fill="#CFAE58" opacity="0.24593796925908018"/>
  <circle cx="607.5303911140884" cy="562.6207666524675" r="3.4234009945987935" fill="#CFAE58" opacity="0.14076108295175166"/>
  <circle cx="223.4629428838905" cy="232.50408514117362" r="4.673643996550517" fill="#CFAE58" opacity="0.2023059313177178"/>

  <!-- Border with glow -->
  <rect x="40" y="40" width="1120" height="550" fill="none" stroke="url(#goldGradient)" stroke-width="3" rx="12" filter="url(#softGlow)"/>

  <!-- Icon circle with premium background -->
  <circle cx="150" cy="200" r="75" fill="#CFAE58" opacity="0.15" filter="url(#softGlow)"/>
  <circle cx="150" cy="200" r="70" fill="#CFAE58" opacity="0.25"/>
  <text x="150" y="235" font-size="90" text-anchor="middle" fill="#CFAE58" filter="url(#glow)">🫙</text>

  <!-- Premium logo (crown) with enhanced styling -->
  <g transform="translate(100, 70)">
    <path d="M 30 20 L 40 35 L 35 35 Z M 50 15 L 60 35 L 45 35 Z M 65 20 L 75 35 L 70 35 Z M 30 35 L 75 35 L 73 45 L 32 45 Z"
          fill="url(#goldGradient)" filter="url(#glow)" stroke="#B89842" stroke-width="0.5"/>
    <circle cx="40" cy="25" r="3" fill="#4FD1C5" filter="url(#glow)"/>
    <circle cx="52" cy="20" r="4" fill="#4FD1C5" filter="url(#glow)"/>
    <circle cx="65" cy="25" r="3" fill="#4FD1C5" filter="url(#glow)"/>
  </g>

  <!-- Title with shadow -->
  <text x="280" y="180" font-family="Georgia, serif" font-size="72" font-weight="bold"
        fill="url(#goldGradient)" filter="url(#shadow)">Premium Caviar</text>

  <!-- Subtitle with subtle glow -->
  <text x="280" y="230" font-family="Arial, sans-serif" font-size="36"
        fill="#D6DEE6" opacity="0.95" filter="url(#softGlow)">Excellence in Every Jar</text>

  <!-- Brand name with letter spacing -->
  <text x="280" y="300" font-family="Georgia, serif" font-size="32" font-weight="bold"
        fill="#CFAE58" letter-spacing="4" filter="url(#glow)">ROYAL KETA</text>

  <!-- Russian tagline -->
  <text x="280" y="340" font-family="Arial, sans-serif" font-size="22" font-style="italic"
        fill="#8B95A1" opacity="0.8">От икринки к королевской</text>

  <!-- Location -->
  <text x="280" y="380" font-family="Arial, sans-serif" font-size="20"
        fill="#8B95A1" opacity="0.7">Невельский район, Сахалин</text>

  <!-- Website with glow -->
  <text x="100" y="570" font-family="Arial, sans-serif" font-size="30" font-weight="bold"
        fill="#4FD1C5" filter="url(#glow)">royalketa.com</text>

  <!-- Enhanced decorative salmon silhouette -->
  <g transform="translate(950, 480)" opacity="0.2" filter="url(#softGlow)">
    <ellipse cx="0" cy="0" rx="90" ry="35" fill="#CFAE58"/>
    <path d="M 90 0 L 120 -18 L 130 0 L 120 18 Z" fill="#CFAE58"/>
    <path d="M -25 -35 L 0 -45 L 25 -35 Z" fill="#CFAE58"/>
    <ellipse cx="-50" cy="0" rx="15" ry="12" fill="#0B0F14"/>
  </g>

  <!-- Additional decorative caviar clusters -->
  <g opacity="0.2">
    <circle cx="1050" cy="120" r="6" fill="#CFAE58"/>
    <circle cx="1065" cy="115" r="5" fill="#CFAE58"/>
    <circle cx="1058" cy="130" r="4" fill="#CFAE58"/>
    <circle cx="150" cy="500" r="5" fill="#4FD1C5"/>
    <circle cx="165" cy="508" r="4" fill="#4FD1C5"/>
    <circle cx="140" cy="512" r="5" fill="#4FD1C5"/>
  </g>
</svg>