<svg width="1200" height="630" xmlns="http://www.w3.org/2000/svg">
  <defs>
    <linearGradient id="bgGradient" x1="0%" y1="0%" x2="100%" y2="100%">
      <stop offset="0%" style="stop-color:#0B0F14;stop-opacity:1" />
      <stop offset="50%" style="stop-color:#0F1619;stop-opacity:1" />
      <stop offset="100%" style="stop-color:#0F1922;stop-opacity:1" />
    </linearGradient>
    <linearGradient id="goldGradient" x1="0%" y1="0%" x2="100%" y2="0%">
      <stop offset="0%" style="stop-color:#E5D596;stop-opacity:1" />
      <stop offset="50%" style="stop-color:#CFAE58;stop-opacity:1" />
      <stop offset="100%" style="stop-color:#B89842;stop-opacity:1" />
    </linearGradient>
    <radialGradient id="oceanGradient" cx="50%" cy="50%" r="50%">
      <stop offset="0%" style="stop-color:#4FD1C5;stop-opacity:0.3" />
      <stop offset="100%" style="stop-color:#1E90A0;stop-opacity:0.05" />
    </radialGradient>
    <filter id="glow">
      <feGaussianBlur stdDeviation="5" result="coloredBlur"/>
      <feMerge>
        <feMergeNode in="coloredBlur"/>
        <feMergeNode in="SourceGraphic"/>
      </feMerge>
    </filter>
    <filter id="softGlow">
      <feGaussianBlur stdDeviation="8" result="coloredBlur"/>
      <feMerge>
        <feMergeNode in="coloredBlur"/>
        <feMergeNode in="SourceGraphic"/>
      </feMerge>
    </filter>
    <filter id="shadow">
      <feDropShadow dx="0" dy="4" stdDeviation="8" flood-color="#000000" flood-opacity="0.5"/>
    </filter>
  </defs>

  <!-- Background -->
  <rect width="1200" height="630" fill="url(#bgGradient)"/>

  <!-- Decorative ocean gradients -->
  <ellipse cx="1000" cy="150" rx="300" ry="200" fill="url(#oceanGradient)" opacity="0.4"/>
  <ellipse cx="200" cy="530" rx="250" ry="180" fill="url(#oceanGradient)" opacity="0.3"/>

  <!-- Wave patterns -->
  <path d="M 0 400 Q 300 350 600 400 T 1200 400 L 1200 630 L 0 630 Z" fill="#1E90A0" opacity="0.08"/>
  <path d="M 0 450 Q 250 420 500 450 T 1000 450 T 1200 450 L 1200 630 L 0 630 Z" fill="#4FD1C5" opacity="0.05"/>

  <!-- Caviar roe particles -->
  <circle cx="783.2170520379279" cy="400.7667230222496" r="5.305619638884016" fill="#CFAE58" opacity="0.134334229757488"/>
  <circle cx="239.74283013404855" cy="23.442592688864043" r="3.0516288167452803" fill="#CFAE58" opacity="0.18269124831437727"/>
  <circle cx="568.5936520598233" cy="372.6100592221428" r="3.4839156584070556" fill="#CFAE58" opacity="0.11285983075281232"/>
  <circle cx="1116.197439889027" cy="510.0049793691601" r="5.745879558135758" fill="#CFAE58" opacity="0.15891563771666775"/>
  <circle cx="1112.8105258601438" cy="376.17857484344523" r="4.978274723794058" fill="#CFAE58" opacity="0.1401092597891631"/>
  <circle cx="1139.7375638407834" cy="445.94991873600895" r="5.553900073063985" fill="#CFAE58" opacity="0.2495627938552861"/>
  <circle cx="577.016312261017" cy="55.693849852219905" r="5.44615921602742" fill="#CFAE58" opacity="0.1093194205636666"/>
  <circle cx="889.458622782628" cy="452.309094020531" r="5.835368632319103" fill="#CFAE58" opacity="0.1350437487559145"/>
  <circle cx="600.694557251672" cy="356.75131035957975" r="2.6836982873747655" fill="#CFAE58" opacity="0.20948040498871204"/>
  <circle cx="178.95637259090665" cy="468.64495696615296" r="3.907351915388883" fill="#CFAE58" opacity="0.13683005534036102"/>
  <circle cx="980.7833555796387" cy="118.88427024637234" r="5.525384427824637" fill="#CFAE58" opacity="0.18403504556464778"/>
  <circle cx="347.548362322638" cy="336.23965284663507" r="4.479970626897029" fill="#CFAE58" opacity="0.24666461807284976"/>
  <circle cx="880.377369649903" cy="438.4576785257449" r="2.331886821945167" fill="#CFAE58" opacity="0.1408138135464287"/>
  <circle cx="280.5651310382141" cy="568.1758243535843" r="3.4018414105340833" fill="#CFAE58" opacity="0.13401172496584038"/>
  <circle cx="883.000355896869" cy="223.9690345164435" r="5.453564275715558" fill="#CFAE58" opacity="0.14118370564876714"/>
  <circle cx="364.0712985184158" cy="77.18082798129076" r="3.8776589238284673" fill="#CFAE58" opacity="0.10272927981834716"/>
  <circle cx="713.0066718508695" cy="438.7762028682209" r="4.254318583921357" fill="#CFAE58" opacity="0.13631151541786174"/>
  <circle cx="142.84124883516515" cy="303.09608199337987" r="4.960331842584106" fill="#CFAE58" opacity="0.2070298392996302"/>
  <circle cx="997.3694617489499" cy="446.569195907484" r="3.9390917376806227" fill="#CFAE58" opacity="0.10108587951724458"/>
  <circle cx="552.402453178661" cy="179.01827567459407" r="2.5517407025426717" fill="#CFAE58" opacity="0.1154909093985914"/>
  <circle cx="335.40966437955194" cy="360.32215128761084" r="2.867725317248768" fill="#CFAE58" opacity="0.15862140818012924"/>
  <circle cx="1050.1909305660686" cy="102.29658451039685" r="3.5531762446936925" fill="#CFAE58" opacity="0.19091497337481952"/>
  <circle cx="765.2577973932094" cy="58.31131308244132" r="5.426035135438222" fill="#CFAE58" opacity="0.17881045861575462"/>
  <circle cx="1158.1928253990427" cy="158.4726587418084" r="4.1583944509225965" fill="#CFAE58" opacity="0.19745755354534655"/>
  <circle cx="185.1945943845859" cy="295.53419884230436" r="2.406612048979432" fill="#CFAE58" opacity="0.23763504388975396"/>
  <circle cx="348.8583653505142" cy="60.119763017573774" r="5.348175295228487" fill="#CFAE58" opacity="0.11742714929434858"/>
  <circle cx="1153.412138283447" cy="505.8499651075942" r="2.60157495180266" fill="#CFAE58" opacity="0.21091115481231382"/>
  <circle cx="1105.560126944275" cy="242.4069402407715" r="5.853150605692711" fill="#CFAE58" opacity="0.1947883047540651"/>
  <circle cx="1116.115053708089" cy="577.7070041128432" r="2.4292040460488327" fill="#CFAE58" opacity="0.17462666436751634"/>
  <circle cx="395.9844859523623" cy="189.2585009735602" r="4.17286614245341" fill="#CFAE58" opacity="0.21757232654193945"/>

  <!-- Border with glow -->
  <rect x="40" y="40" width="1120" height="550" fill="none" stroke="url(#goldGradient)" stroke-width="3" rx="12" filter="url(#softGlow)"/>

  <!-- Icon circle with premium background -->
  <circle cx="150" cy="200" r="75" fill="#CFAE58" opacity="0.15" filter="url(#softGlow)"/>
  <circle cx="150" cy="200" r="70" fill="#CFAE58" opacity="0.25"/>
  <text x="150" y="235" font-size="90" text-anchor="middle" fill="#CFAE58" filter="url(#glow)">🫙</text>

  <!-- Premium logo (crown) with enhanced styling -->
  <g transform="translate(100, 70)">
    <path d="M 30 20 L 40 35 L 35 35 Z M 50 15 L 60 35 L 45 35 Z M 65 20 L 75 35 L 70 35 Z M 30 35 L 75 35 L 73 45 L 32 45 Z"
          fill="url(#goldGradient)" filter="url(#glow)" stroke="#B89842" stroke-width="0.5"/>
    <circle cx="40" cy="25" r="3" fill="#4FD1C5" filter="url(#glow)"/>
    <circle cx="52" cy="20" r="4" fill="#4FD1C5" filter="url(#glow)"/>
    <circle cx="65" cy="25" r="3" fill="#4FD1C5" filter="url(#glow)"/>
  </g>

  <!-- Title with shadow -->
  <text x="280" y="180" font-family="Georgia, serif" font-size="72" font-weight="bold"
        fill="url(#goldGradient)" filter="url(#shadow)">Premium Caviar</text>

  <!-- Subtitle with subtle glow -->
  <text x="280" y="230" font-family="Arial, sans-serif" font-size="36"
        fill="#D6DEE6" opacity="0.95" filter="url(#softGlow)">Excellence in Every Jar</text>

  <!-- Brand name with letter spacing -->
  <text x="280" y="300" font-family="Georgia, serif" font-size="32" font-weight="bold"
        fill="#CFAE58" letter-spacing="4" filter="url(#glow)">ROYAL KETA</text>

  <!-- Russian tagline -->
  <text x="280" y="340" font-family="Arial, sans-serif" font-size="22" font-style="italic"
        fill="#8B95A1" opacity="0.8">От икринки к королевской</text>

  <!-- Location -->
  <text x="280" y="380" font-family="Arial, sans-serif" font-size="20"
        fill="#8B95A1" opacity="0.7">Невельский район, Сахалин</text>

  <!-- Website with glow -->
  <text x="100" y="570" font-family="Arial, sans-serif" font-size="30" font-weight="bold"
        fill="#4FD1C5" filter="url(#glow)">royalketa.com</text>

  <!-- Enhanced decorative salmon silhouette -->
  <g transform="translate(950, 480)" opacity="0.2" filter="url(#softGlow)">
    <ellipse cx="0" cy="0" rx="90" ry="35" fill="#CFAE58"/>
    <path d="M 90 0 L 120 -18 L 130 0 L 120 18 Z" fill="#CFAE58"/>
    <path d="M -25 -35 L 0 -45 L 25 -35 Z" fill="#CFAE58"/>
    <ellipse cx="-50" cy="0" rx="15" ry="12" fill="#0B0F14"/>
  </g>

  <!-- Additional decorative caviar clusters -->
  <g opacity="0.2">
    <circle cx="1050" cy="120" r="6" fill="#CFAE58"/>
    <circle cx="1065" cy="115" r="5" fill="#CFAE58"/>
    <circle cx="1058" cy="130" r="4" fill="#CFAE58"/>
    <circle cx="150" cy="500" r="5" fill="#4FD1C5"/>
    <circle cx="165" cy="508" r="4" fill="#4FD1C5"/>
    <circle cx="140" cy="512" r="5" fill="#4FD1C5"/>
  </g>
</svg>