<svg width="1200" height="630" xmlns="http://www.w3.org/2000/svg">
  <defs>
    <linearGradient id="bgGradient" x1="0%" y1="0%" x2="100%" y2="100%">
      <stop offset="0%" style="stop-color:#0B0F14;stop-opacity:1" />
      <stop offset="50%" style="stop-color:#0F1619;stop-opacity:1" />
      <stop offset="100%" style="stop-color:#0F1922;stop-opacity:1" />
    </linearGradient>
    <linearGradient id="goldGradient" x1="0%" y1="0%" x2="100%" y2="0%">
      <stop offset="0%" style="stop-color:#E5D596;stop-opacity:1" />
      <stop offset="50%" style="stop-color:#CFAE58;stop-opacity:1" />
      <stop offset="100%" style="stop-color:#B89842;stop-opacity:1" />
    </linearGradient>
    <radialGradient id="oceanGradient" cx="50%" cy="50%" r="50%">
      <stop offset="0%" style="stop-color:#4FD1C5;stop-opacity:0.3" />
      <stop offset="100%" style="stop-color:#1E90A0;stop-opacity:0.05" />
    </radialGradient>
    <filter id="glow">
      <feGaussianBlur stdDeviation="5" result="coloredBlur"/>
      <feMerge>
        <feMergeNode in="coloredBlur"/>
        <feMergeNode in="SourceGraphic"/>
      </feMerge>
    </filter>
    <filter id="softGlow">
      <feGaussianBlur stdDeviation="8" result="coloredBlur"/>
      <feMerge>
        <feMergeNode in="coloredBlur"/>
        <feMergeNode in="SourceGraphic"/>
      </feMerge>
    </filter>
    <filter id="shadow">
      <feDropShadow dx="0" dy="4" stdDeviation="8" flood-color="#000000" flood-opacity="0.5"/>
    </filter>
  </defs>

  <!-- Background -->
  <rect width="1200" height="630" fill="url(#bgGradient)"/>

  <!-- Decorative ocean gradients -->
  <ellipse cx="1000" cy="150" rx="300" ry="200" fill="url(#oceanGradient)" opacity="0.4"/>
  <ellipse cx="200" cy="530" rx="250" ry="180" fill="url(#oceanGradient)" opacity="0.3"/>

  <!-- Wave patterns -->
  <path d="M 0 400 Q 300 350 600 400 T 1200 400 L 1200 630 L 0 630 Z" fill="#1E90A0" opacity="0.08"/>
  <path d="M 0 450 Q 250 420 500 450 T 1000 450 T 1200 450 L 1200 630 L 0 630 Z" fill="#4FD1C5" opacity="0.05"/>

  <!-- Caviar roe particles -->
  <circle cx="620.4528560075564" cy="416.6083045369496" r="5.812471804985552" fill="#CFAE58" opacity="0.1621148322269036"/>
  <circle cx="294.76342003248806" cy="455.844431561135" r="5.589025203922221" fill="#CFAE58" opacity="0.14786328765206008"/>
  <circle cx="658.2580404952924" cy="547.8990314387152" r="4.80215591489414" fill="#CFAE58" opacity="0.23394627338999072"/>
  <circle cx="151.43458368901184" cy="352.61808944698254" r="5.757572828756604" fill="#CFAE58" opacity="0.14639966227257864"/>
  <circle cx="74.23420284073386" cy="551.7159039746164" r="2.05125519006055" fill="#CFAE58" opacity="0.1315420956330526"/>
  <circle cx="1006.5423310709798" cy="479.6971705515596" r="3.7188079251712174" fill="#CFAE58" opacity="0.2186936032836649"/>
  <circle cx="553.9118229044493" cy="467.6364984662374" r="2.556907138851442" fill="#CFAE58" opacity="0.14248118101158214"/>
  <circle cx="209.5284862018227" cy="242.3227376254639" r="2.87994216117963" fill="#CFAE58" opacity="0.21078495806152892"/>
  <circle cx="738.8353009861215" cy="479.4409045082213" r="4.019142088407246" fill="#CFAE58" opacity="0.11222900165303323"/>
  <circle cx="478.5139493339159" cy="338.73045668208675" r="4.292102569714787" fill="#CFAE58" opacity="0.18900854380260595"/>
  <circle cx="520.2916746889775" cy="210.95341860733603" r="5.0626182542741205" fill="#CFAE58" opacity="0.2334190209890629"/>
  <circle cx="53.993106753295805" cy="621.3985158171234" r="2.9941009443329665" fill="#CFAE58" opacity="0.13362697920470745"/>
  <circle cx="457.02215256827554" cy="301.33109745181105" r="5.472106347292725" fill="#CFAE58" opacity="0.10375785768340146"/>
  <circle cx="1190.5617924256887" cy="15.714311003306776" r="2.717473906386937" fill="#CFAE58" opacity="0.23232842309185534"/>
  <circle cx="398.07065921415733" cy="348.82198561078843" r="2.5958428372944753" fill="#CFAE58" opacity="0.12578935974446986"/>
  <circle cx="833.830938356311" cy="130.96010631332058" r="5.932433365799476" fill="#CFAE58" opacity="0.1420436359024945"/>
  <circle cx="1043.9547137423606" cy="330.542487697457" r="2.5861613702040334" fill="#CFAE58" opacity="0.18149731443997807"/>
  <circle cx="289.8879397259881" cy="379.69590301761343" r="2.08521634882913" fill="#CFAE58" opacity="0.2069567530675558"/>
  <circle cx="227.92332361382037" cy="138.75636085630433" r="5.291340280970807" fill="#CFAE58" opacity="0.18937963449648706"/>
  <circle cx="941.8564096603977" cy="39.12854373810245" r="4.468311479220703" fill="#CFAE58" opacity="0.21034967626609047"/>
  <circle cx="1195.8313278972328" cy="12.448377959576082" r="3.4313109545638403" fill="#CFAE58" opacity="0.1269856412385086"/>
  <circle cx="542.1016250884585" cy="571.7213914200039" r="4.454613221666439" fill="#CFAE58" opacity="0.2346788209334826"/>
  <circle cx="1045.188957908886" cy="342.26470866247143" r="2.191180396483971" fill="#CFAE58" opacity="0.19405098238522922"/>
  <circle cx="488.074603283124" cy="20.994929396774747" r="5.19816573751402" fill="#CFAE58" opacity="0.21908062205996282"/>
  <circle cx="660.9239880465934" cy="336.718540148415" r="5.086813333694387" fill="#CFAE58" opacity="0.2421738639456329"/>
  <circle cx="36.115721214229126" cy="518.9007899669195" r="4.4934398140345655" fill="#CFAE58" opacity="0.1833258050133479"/>
  <circle cx="652.5361924873621" cy="284.17853493196617" r="5.912940506132369" fill="#CFAE58" opacity="0.14588293633567895"/>
  <circle cx="648.2690683203994" cy="107.41171595716416" r="5.984997449237536" fill="#CFAE58" opacity="0.22724363898331645"/>
  <circle cx="246.07845378758077" cy="238.3516166617213" r="4.612539745098006" fill="#CFAE58" opacity="0.16340723642156668"/>
  <circle cx="750.5485179454239" cy="7.5860989125666745" r="5.67518056974701" fill="#CFAE58" opacity="0.158000669642823"/>

  <!-- Border with glow -->
  <rect x="40" y="40" width="1120" height="550" fill="none" stroke="url(#goldGradient)" stroke-width="3" rx="12" filter="url(#softGlow)"/>

  <!-- Icon circle with premium background -->
  <circle cx="150" cy="200" r="75" fill="#CFAE58" opacity="0.15" filter="url(#softGlow)"/>
  <circle cx="150" cy="200" r="70" fill="#CFAE58" opacity="0.25"/>
  <text x="150" y="235" font-size="90" text-anchor="middle" fill="#CFAE58" filter="url(#glow)">🫙</text>

  <!-- Premium logo (crown) with enhanced styling -->
  <g transform="translate(100, 70)">
    <path d="M 30 20 L 40 35 L 35 35 Z M 50 15 L 60 35 L 45 35 Z M 65 20 L 75 35 L 70 35 Z M 30 35 L 75 35 L 73 45 L 32 45 Z"
          fill="url(#goldGradient)" filter="url(#glow)" stroke="#B89842" stroke-width="0.5"/>
    <circle cx="40" cy="25" r="3" fill="#4FD1C5" filter="url(#glow)"/>
    <circle cx="52" cy="20" r="4" fill="#4FD1C5" filter="url(#glow)"/>
    <circle cx="65" cy="25" r="3" fill="#4FD1C5" filter="url(#glow)"/>
  </g>

  <!-- Title with shadow -->
  <text x="280" y="180" font-family="Georgia, serif" font-size="72" font-weight="bold"
        fill="url(#goldGradient)" filter="url(#shadow)">Premium Caviar</text>

  <!-- Subtitle with subtle glow -->
  <text x="280" y="230" font-family="Arial, sans-serif" font-size="36"
        fill="#D6DEE6" opacity="0.95" filter="url(#softGlow)">Excellence in Every Jar</text>

  <!-- Brand name with letter spacing -->
  <text x="280" y="300" font-family="Georgia, serif" font-size="32" font-weight="bold"
        fill="#CFAE58" letter-spacing="4" filter="url(#glow)">ROYAL KETA</text>

  <!-- Russian tagline -->
  <text x="280" y="340" font-family="Arial, sans-serif" font-size="22" font-style="italic"
        fill="#8B95A1" opacity="0.8">От икринки к королевской</text>

  <!-- Location -->
  <text x="280" y="380" font-family="Arial, sans-serif" font-size="20"
        fill="#8B95A1" opacity="0.7">Невельский район, Сахалин</text>

  <!-- Website with glow -->
  <text x="100" y="570" font-family="Arial, sans-serif" font-size="30" font-weight="bold"
        fill="#4FD1C5" filter="url(#glow)">royalketa.com</text>

  <!-- Enhanced decorative salmon silhouette -->
  <g transform="translate(950, 480)" opacity="0.2" filter="url(#softGlow)">
    <ellipse cx="0" cy="0" rx="90" ry="35" fill="#CFAE58"/>
    <path d="M 90 0 L 120 -18 L 130 0 L 120 18 Z" fill="#CFAE58"/>
    <path d="M -25 -35 L 0 -45 L 25 -35 Z" fill="#CFAE58"/>
    <ellipse cx="-50" cy="0" rx="15" ry="12" fill="#0B0F14"/>
  </g>

  <!-- Additional decorative caviar clusters -->
  <g opacity="0.2">
    <circle cx="1050" cy="120" r="6" fill="#CFAE58"/>
    <circle cx="1065" cy="115" r="5" fill="#CFAE58"/>
    <circle cx="1058" cy="130" r="4" fill="#CFAE58"/>
    <circle cx="150" cy="500" r="5" fill="#4FD1C5"/>
    <circle cx="165" cy="508" r="4" fill="#4FD1C5"/>
    <circle cx="140" cy="512" r="5" fill="#4FD1C5"/>
  </g>
</svg>