<svg width="1200" height="630" xmlns="http://www.w3.org/2000/svg">
  <defs>
    <linearGradient id="bgGradient" x1="0%" y1="0%" x2="100%" y2="100%">
      <stop offset="0%" style="stop-color:#0B0F14;stop-opacity:1" />
      <stop offset="50%" style="stop-color:#0F1619;stop-opacity:1" />
      <stop offset="100%" style="stop-color:#0F1922;stop-opacity:1" />
    </linearGradient>
    <linearGradient id="goldGradient" x1="0%" y1="0%" x2="100%" y2="0%">
      <stop offset="0%" style="stop-color:#E5D596;stop-opacity:1" />
      <stop offset="50%" style="stop-color:#CFAE58;stop-opacity:1" />
      <stop offset="100%" style="stop-color:#B89842;stop-opacity:1" />
    </linearGradient>
    <radialGradient id="oceanGradient" cx="50%" cy="50%" r="50%">
      <stop offset="0%" style="stop-color:#4FD1C5;stop-opacity:0.3" />
      <stop offset="100%" style="stop-color:#1E90A0;stop-opacity:0.05" />
    </radialGradient>
    <filter id="glow">
      <feGaussianBlur stdDeviation="5" result="coloredBlur"/>
      <feMerge>
        <feMergeNode in="coloredBlur"/>
        <feMergeNode in="SourceGraphic"/>
      </feMerge>
    </filter>
    <filter id="softGlow">
      <feGaussianBlur stdDeviation="8" result="coloredBlur"/>
      <feMerge>
        <feMergeNode in="coloredBlur"/>
        <feMergeNode in="SourceGraphic"/>
      </feMerge>
    </filter>
    <filter id="shadow">
      <feDropShadow dx="0" dy="4" stdDeviation="8" flood-color="#000000" flood-opacity="0.5"/>
    </filter>
  </defs>

  <!-- Background -->
  <rect width="1200" height="630" fill="url(#bgGradient)"/>

  <!-- Decorative ocean gradients -->
  <ellipse cx="1000" cy="150" rx="300" ry="200" fill="url(#oceanGradient)" opacity="0.4"/>
  <ellipse cx="200" cy="530" rx="250" ry="180" fill="url(#oceanGradient)" opacity="0.3"/>

  <!-- Wave patterns -->
  <path d="M 0 400 Q 300 350 600 400 T 1200 400 L 1200 630 L 0 630 Z" fill="#1E90A0" opacity="0.08"/>
  <path d="M 0 450 Q 250 420 500 450 T 1000 450 T 1200 450 L 1200 630 L 0 630 Z" fill="#4FD1C5" opacity="0.05"/>

  <!-- Caviar roe particles -->
  <circle cx="764.6591338522328" cy="526.254252819387" r="3.4426165421369923" fill="#CFAE58" opacity="0.23119389422148792"/>
  <circle cx="138.07219793194596" cy="227.09550629476752" r="2.1100207683162466" fill="#CFAE58" opacity="0.13458108382449027"/>
  <circle cx="746.2203938041085" cy="443.07907938615904" r="3.5282598938063146" fill="#CFAE58" opacity="0.21892199734186565"/>
  <circle cx="887.0228413530739" cy="68.36975405750557" r="2.3444131332942364" fill="#CFAE58" opacity="0.1188026639052378"/>
  <circle cx="506.7073848212988" cy="120.56592196042047" r="5.033082304487693" fill="#CFAE58" opacity="0.21851151385106277"/>
  <circle cx="1017.8781249425265" cy="321.13811696515035" r="5.856827105492764" fill="#CFAE58" opacity="0.23377212702027478"/>
  <circle cx="1106.7067845416411" cy="412.62923845304704" r="4.72409338856755" fill="#CFAE58" opacity="0.18925868694181922"/>
  <circle cx="548.2548610979502" cy="191.17023543579998" r="4.412899798163557" fill="#CFAE58" opacity="0.13129236493125518"/>
  <circle cx="238.20056199536612" cy="238.813706974705" r="5.033841404947484" fill="#CFAE58" opacity="0.17455083477125366"/>
  <circle cx="404.64519295551196" cy="581.7038590115253" r="5.628952179659841" fill="#CFAE58" opacity="0.20108435139573078"/>
  <circle cx="80.16548186696807" cy="64.96630589497852" r="3.445034189202799" fill="#CFAE58" opacity="0.17368822515989124"/>
  <circle cx="400.5391296711105" cy="305.55574157197736" r="4.969797893037817" fill="#CFAE58" opacity="0.16658751430993968"/>
  <circle cx="739.1931038437789" cy="288.83313265121495" r="5.5536504006250285" fill="#CFAE58" opacity="0.20117625407533074"/>
  <circle cx="38.43716826658401" cy="217.32771183967776" r="4.367940321454023" fill="#CFAE58" opacity="0.22146692875925036"/>
  <circle cx="1042.2884739595372" cy="575.617695169009" r="3.3822285827079597" fill="#CFAE58" opacity="0.15893499551038381"/>
  <circle cx="784.8048602572603" cy="430.42737347349504" r="2.7541786317005243" fill="#CFAE58" opacity="0.24126457160133635"/>
  <circle cx="282.2011456138092" cy="240.1297372632741" r="5.767488324540386" fill="#CFAE58" opacity="0.16500179756338246"/>
  <circle cx="968.9432598278235" cy="420.267565979074" r="5.861079013734567" fill="#CFAE58" opacity="0.15956705606926772"/>
  <circle cx="843.8304163784126" cy="512.6468974230046" r="5.291092259731932" fill="#CFAE58" opacity="0.21173161391087092"/>
  <circle cx="723.0175440302091" cy="578.7319315671433" r="2.505497607043207" fill="#CFAE58" opacity="0.18449450772729414"/>
  <circle cx="81.89315260541363" cy="74.54434291739912" r="2.5313454516245804" fill="#CFAE58" opacity="0.15212682593196564"/>
  <circle cx="765.6497740919032" cy="628.7059965052488" r="5.705358835020801" fill="#CFAE58" opacity="0.14004570846603687"/>
  <circle cx="313.2773688394619" cy="488.82036484981" r="5.933459996778094" fill="#CFAE58" opacity="0.11887417043312916"/>
  <circle cx="688.2598810126092" cy="300.25523714324675" r="5.1423178348762" fill="#CFAE58" opacity="0.16737983985135318"/>
  <circle cx="233.04713349096932" cy="613.8391873969134" r="5.8131581485725485" fill="#CFAE58" opacity="0.11394251771403925"/>
  <circle cx="871.1878326386775" cy="226.14969912581938" r="3.2444065466633285" fill="#CFAE58" opacity="0.13270746717981022"/>
  <circle cx="707.1428678982693" cy="363.46977410871875" r="2.6932259373473206" fill="#CFAE58" opacity="0.13142618310898957"/>
  <circle cx="498.2672384203907" cy="521.5926950938266" r="4.871642616506763" fill="#CFAE58" opacity="0.1930622097275724"/>
  <circle cx="1176.9415598693417" cy="365.33378300862455" r="4.610418216255717" fill="#CFAE58" opacity="0.14661814250936203"/>
  <circle cx="22.69677014231979" cy="487.8484568549466" r="3.555731120478036" fill="#CFAE58" opacity="0.11293003026426968"/>

  <!-- Border with glow -->
  <rect x="40" y="40" width="1120" height="550" fill="none" stroke="url(#goldGradient)" stroke-width="3" rx="12" filter="url(#softGlow)"/>

  <!-- Icon circle with premium background -->
  <circle cx="150" cy="200" r="75" fill="#CFAE58" opacity="0.15" filter="url(#softGlow)"/>
  <circle cx="150" cy="200" r="70" fill="#CFAE58" opacity="0.25"/>
  <text x="150" y="235" font-size="90" text-anchor="middle" fill="#CFAE58" filter="url(#glow)">🫙</text>

  <!-- Premium logo (crown) with enhanced styling -->
  <g transform="translate(100, 70)">
    <path d="M 30 20 L 40 35 L 35 35 Z M 50 15 L 60 35 L 45 35 Z M 65 20 L 75 35 L 70 35 Z M 30 35 L 75 35 L 73 45 L 32 45 Z"
          fill="url(#goldGradient)" filter="url(#glow)" stroke="#B89842" stroke-width="0.5"/>
    <circle cx="40" cy="25" r="3" fill="#4FD1C5" filter="url(#glow)"/>
    <circle cx="52" cy="20" r="4" fill="#4FD1C5" filter="url(#glow)"/>
    <circle cx="65" cy="25" r="3" fill="#4FD1C5" filter="url(#glow)"/>
  </g>

  <!-- Title with shadow -->
  <text x="280" y="180" font-family="Georgia, serif" font-size="72" font-weight="bold"
        fill="url(#goldGradient)" filter="url(#shadow)">Premium Caviar</text>

  <!-- Subtitle with subtle glow -->
  <text x="280" y="230" font-family="Arial, sans-serif" font-size="36"
        fill="#D6DEE6" opacity="0.95" filter="url(#softGlow)">Excellence in Every Jar</text>

  <!-- Brand name with letter spacing -->
  <text x="280" y="300" font-family="Georgia, serif" font-size="32" font-weight="bold"
        fill="#CFAE58" letter-spacing="4" filter="url(#glow)">ROYAL KETA</text>

  <!-- Russian tagline -->
  <text x="280" y="340" font-family="Arial, sans-serif" font-size="22" font-style="italic"
        fill="#8B95A1" opacity="0.8">От икринки к королевской</text>

  <!-- Location -->
  <text x="280" y="380" font-family="Arial, sans-serif" font-size="20"
        fill="#8B95A1" opacity="0.7">Невельский район, Сахалин</text>

  <!-- Website with glow -->
  <text x="100" y="570" font-family="Arial, sans-serif" font-size="30" font-weight="bold"
        fill="#4FD1C5" filter="url(#glow)">royalketa.com</text>

  <!-- Enhanced decorative salmon silhouette -->
  <g transform="translate(950, 480)" opacity="0.2" filter="url(#softGlow)">
    <ellipse cx="0" cy="0" rx="90" ry="35" fill="#CFAE58"/>
    <path d="M 90 0 L 120 -18 L 130 0 L 120 18 Z" fill="#CFAE58"/>
    <path d="M -25 -35 L 0 -45 L 25 -35 Z" fill="#CFAE58"/>
    <ellipse cx="-50" cy="0" rx="15" ry="12" fill="#0B0F14"/>
  </g>

  <!-- Additional decorative caviar clusters -->
  <g opacity="0.2">
    <circle cx="1050" cy="120" r="6" fill="#CFAE58"/>
    <circle cx="1065" cy="115" r="5" fill="#CFAE58"/>
    <circle cx="1058" cy="130" r="4" fill="#CFAE58"/>
    <circle cx="150" cy="500" r="5" fill="#4FD1C5"/>
    <circle cx="165" cy="508" r="4" fill="#4FD1C5"/>
    <circle cx="140" cy="512" r="5" fill="#4FD1C5"/>
  </g>
</svg>