<svg width="1200" height="630" xmlns="http://www.w3.org/2000/svg">
  <defs>
    <linearGradient id="bgGradient" x1="0%" y1="0%" x2="100%" y2="100%">
      <stop offset="0%" style="stop-color:#0B0F14;stop-opacity:1" />
      <stop offset="50%" style="stop-color:#0F1619;stop-opacity:1" />
      <stop offset="100%" style="stop-color:#0F1922;stop-opacity:1" />
    </linearGradient>
    <linearGradient id="goldGradient" x1="0%" y1="0%" x2="100%" y2="0%">
      <stop offset="0%" style="stop-color:#E5D596;stop-opacity:1" />
      <stop offset="50%" style="stop-color:#CFAE58;stop-opacity:1" />
      <stop offset="100%" style="stop-color:#B89842;stop-opacity:1" />
    </linearGradient>
    <radialGradient id="oceanGradient" cx="50%" cy="50%" r="50%">
      <stop offset="0%" style="stop-color:#4FD1C5;stop-opacity:0.3" />
      <stop offset="100%" style="stop-color:#1E90A0;stop-opacity:0.05" />
    </radialGradient>
    <filter id="glow">
      <feGaussianBlur stdDeviation="5" result="coloredBlur"/>
      <feMerge>
        <feMergeNode in="coloredBlur"/>
        <feMergeNode in="SourceGraphic"/>
      </feMerge>
    </filter>
    <filter id="softGlow">
      <feGaussianBlur stdDeviation="8" result="coloredBlur"/>
      <feMerge>
        <feMergeNode in="coloredBlur"/>
        <feMergeNode in="SourceGraphic"/>
      </feMerge>
    </filter>
    <filter id="shadow">
      <feDropShadow dx="0" dy="4" stdDeviation="8" flood-color="#000000" flood-opacity="0.5"/>
    </filter>
  </defs>

  <!-- Background -->
  <rect width="1200" height="630" fill="url(#bgGradient)"/>

  <!-- Decorative ocean gradients -->
  <ellipse cx="1000" cy="150" rx="300" ry="200" fill="url(#oceanGradient)" opacity="0.4"/>
  <ellipse cx="200" cy="530" rx="250" ry="180" fill="url(#oceanGradient)" opacity="0.3"/>

  <!-- Wave patterns -->
  <path d="M 0 400 Q 300 350 600 400 T 1200 400 L 1200 630 L 0 630 Z" fill="#1E90A0" opacity="0.08"/>
  <path d="M 0 450 Q 250 420 500 450 T 1000 450 T 1200 450 L 1200 630 L 0 630 Z" fill="#4FD1C5" opacity="0.05"/>

  <!-- Caviar roe particles -->
  <circle cx="620.2131693467024" cy="251.25882569836668" r="4.155010900906973" fill="#CFAE58" opacity="0.21076590402321904"/>
  <circle cx="167.64723163111626" cy="256.8286558183192" r="4.514501533374862" fill="#CFAE58" opacity="0.11856175971529612"/>
  <circle cx="895.1065073010726" cy="557.2513336274607" r="3.24246219359443" fill="#CFAE58" opacity="0.10715056595529088"/>
  <circle cx="265.5569287506945" cy="78.34040719382268" r="5.15014311467862" fill="#CFAE58" opacity="0.2499393313426944"/>
  <circle cx="402.6383956573478" cy="481.52134061272807" r="5.299657474059232" fill="#CFAE58" opacity="0.2260730108021956"/>
  <circle cx="904.0320065938834" cy="626.7546170054818" r="2.7213230437510414" fill="#CFAE58" opacity="0.14533992916552646"/>
  <circle cx="919.4215517304472" cy="609.4467389056969" r="4.592233461141474" fill="#CFAE58" opacity="0.2396607053532467"/>
  <circle cx="40.39567884375859" cy="149.7746368315358" r="5.528443257443561" fill="#CFAE58" opacity="0.16946852809090696"/>
  <circle cx="324.36930971433276" cy="354.7493556291526" r="2.316533448803449" fill="#CFAE58" opacity="0.12113435197091571"/>
  <circle cx="1166.8906379879795" cy="299.89451246127305" r="2.826776843247137" fill="#CFAE58" opacity="0.13372631888328182"/>
  <circle cx="1005.62265288052" cy="393.28395099110236" r="5.585685573955531" fill="#CFAE58" opacity="0.2426635421212514"/>
  <circle cx="661.8738564829549" cy="210.2109236903993" r="4.570486778122916" fill="#CFAE58" opacity="0.1429429302439285"/>
  <circle cx="49.10930229229411" cy="477.37550042551476" r="4.187165857262122" fill="#CFAE58" opacity="0.15119278636119726"/>
  <circle cx="40.033554387923644" cy="11.674008961731786" r="4.974842403723823" fill="#CFAE58" opacity="0.22270060933952707"/>
  <circle cx="408.8784055" cy="166.00857200476042" r="5.374941236690071" fill="#CFAE58" opacity="0.1940196551148433"/>
  <circle cx="157.25088157002466" cy="301.5685580750376" r="4.175859839192167" fill="#CFAE58" opacity="0.15382729764709685"/>
  <circle cx="309.98047445397276" cy="355.2600406040953" r="5.076697391617614" fill="#CFAE58" opacity="0.22786563438512347"/>
  <circle cx="1010.5672053695911" cy="169.40809617245904" r="4.037007840574477" fill="#CFAE58" opacity="0.24717091752486306"/>
  <circle cx="457.35570391149383" cy="479.71626250463953" r="4.151632388668911" fill="#CFAE58" opacity="0.14574017561686933"/>
  <circle cx="926.5793335033572" cy="93.11508289072607" r="3.9551566194057366" fill="#CFAE58" opacity="0.23700199172475894"/>
  <circle cx="20.37828899552112" cy="337.00111743440067" r="4.104563731883318" fill="#CFAE58" opacity="0.13276640579561666"/>
  <circle cx="1191.5006604747277" cy="6.957344984949811" r="4.7190758343297095" fill="#CFAE58" opacity="0.12197976475590165"/>
  <circle cx="542.6422424367983" cy="542.5738414647466" r="3.0881099292980094" fill="#CFAE58" opacity="0.1246373540608855"/>
  <circle cx="725.7413805391353" cy="324.8867988677363" r="5.824122865518778" fill="#CFAE58" opacity="0.1285440549290499"/>
  <circle cx="821.070873994434" cy="514.7562305567635" r="5.387603116778797" fill="#CFAE58" opacity="0.15463595983030318"/>
  <circle cx="820.5086471389566" cy="437.87093126479965" r="3.203577674695258" fill="#CFAE58" opacity="0.1806593082792979"/>
  <circle cx="492.3719899617257" cy="357.24407427288986" r="5.227644545387246" fill="#CFAE58" opacity="0.12922691281561896"/>
  <circle cx="8.210705979061306" cy="433.1761819540179" r="4.247774716691547" fill="#CFAE58" opacity="0.23304614774928434"/>
  <circle cx="1072.648076782666" cy="60.27878380838002" r="3.14010176875644" fill="#CFAE58" opacity="0.1799713286310436"/>
  <circle cx="74.89640383578653" cy="153.40234724380014" r="4.110075813983978" fill="#CFAE58" opacity="0.1993832123068387"/>

  <!-- Border with glow -->
  <rect x="40" y="40" width="1120" height="550" fill="none" stroke="url(#goldGradient)" stroke-width="3" rx="12" filter="url(#softGlow)"/>

  <!-- Icon circle with premium background -->
  <circle cx="150" cy="200" r="75" fill="#CFAE58" opacity="0.15" filter="url(#softGlow)"/>
  <circle cx="150" cy="200" r="70" fill="#CFAE58" opacity="0.25"/>
  <text x="150" y="235" font-size="90" text-anchor="middle" fill="#CFAE58" filter="url(#glow)">🫙</text>

  <!-- Premium logo (crown) with enhanced styling -->
  <g transform="translate(100, 70)">
    <path d="M 30 20 L 40 35 L 35 35 Z M 50 15 L 60 35 L 45 35 Z M 65 20 L 75 35 L 70 35 Z M 30 35 L 75 35 L 73 45 L 32 45 Z"
          fill="url(#goldGradient)" filter="url(#glow)" stroke="#B89842" stroke-width="0.5"/>
    <circle cx="40" cy="25" r="3" fill="#4FD1C5" filter="url(#glow)"/>
    <circle cx="52" cy="20" r="4" fill="#4FD1C5" filter="url(#glow)"/>
    <circle cx="65" cy="25" r="3" fill="#4FD1C5" filter="url(#glow)"/>
  </g>

  <!-- Title with shadow -->
  <text x="280" y="180" font-family="Georgia, serif" font-size="72" font-weight="bold"
        fill="url(#goldGradient)" filter="url(#shadow)">Premium Caviar</text>

  <!-- Subtitle with subtle glow -->
  <text x="280" y="230" font-family="Arial, sans-serif" font-size="36"
        fill="#D6DEE6" opacity="0.95" filter="url(#softGlow)">Excellence in Every Jar</text>

  <!-- Brand name with letter spacing -->
  <text x="280" y="300" font-family="Georgia, serif" font-size="32" font-weight="bold"
        fill="#CFAE58" letter-spacing="4" filter="url(#glow)">ROYAL KETA</text>

  <!-- Russian tagline -->
  <text x="280" y="340" font-family="Arial, sans-serif" font-size="22" font-style="italic"
        fill="#8B95A1" opacity="0.8">От икринки к королевской</text>

  <!-- Location -->
  <text x="280" y="380" font-family="Arial, sans-serif" font-size="20"
        fill="#8B95A1" opacity="0.7">Невельский район, Сахалин</text>

  <!-- Website with glow -->
  <text x="100" y="570" font-family="Arial, sans-serif" font-size="30" font-weight="bold"
        fill="#4FD1C5" filter="url(#glow)">royalketa.com</text>

  <!-- Enhanced decorative salmon silhouette -->
  <g transform="translate(950, 480)" opacity="0.2" filter="url(#softGlow)">
    <ellipse cx="0" cy="0" rx="90" ry="35" fill="#CFAE58"/>
    <path d="M 90 0 L 120 -18 L 130 0 L 120 18 Z" fill="#CFAE58"/>
    <path d="M -25 -35 L 0 -45 L 25 -35 Z" fill="#CFAE58"/>
    <ellipse cx="-50" cy="0" rx="15" ry="12" fill="#0B0F14"/>
  </g>

  <!-- Additional decorative caviar clusters -->
  <g opacity="0.2">
    <circle cx="1050" cy="120" r="6" fill="#CFAE58"/>
    <circle cx="1065" cy="115" r="5" fill="#CFAE58"/>
    <circle cx="1058" cy="130" r="4" fill="#CFAE58"/>
    <circle cx="150" cy="500" r="5" fill="#4FD1C5"/>
    <circle cx="165" cy="508" r="4" fill="#4FD1C5"/>
    <circle cx="140" cy="512" r="5" fill="#4FD1C5"/>
  </g>
</svg>