<svg width="1200" height="630" xmlns="http://www.w3.org/2000/svg">
  <defs>
    <linearGradient id="bgGradient" x1="0%" y1="0%" x2="100%" y2="100%">
      <stop offset="0%" style="stop-color:#0B0F14;stop-opacity:1" />
      <stop offset="50%" style="stop-color:#0F1619;stop-opacity:1" />
      <stop offset="100%" style="stop-color:#0F1922;stop-opacity:1" />
    </linearGradient>
    <linearGradient id="goldGradient" x1="0%" y1="0%" x2="100%" y2="0%">
      <stop offset="0%" style="stop-color:#E5D596;stop-opacity:1" />
      <stop offset="50%" style="stop-color:#CFAE58;stop-opacity:1" />
      <stop offset="100%" style="stop-color:#B89842;stop-opacity:1" />
    </linearGradient>
    <radialGradient id="oceanGradient" cx="50%" cy="50%" r="50%">
      <stop offset="0%" style="stop-color:#4FD1C5;stop-opacity:0.3" />
      <stop offset="100%" style="stop-color:#1E90A0;stop-opacity:0.05" />
    </radialGradient>
    <filter id="glow">
      <feGaussianBlur stdDeviation="5" result="coloredBlur"/>
      <feMerge>
        <feMergeNode in="coloredBlur"/>
        <feMergeNode in="SourceGraphic"/>
      </feMerge>
    </filter>
    <filter id="softGlow">
      <feGaussianBlur stdDeviation="8" result="coloredBlur"/>
      <feMerge>
        <feMergeNode in="coloredBlur"/>
        <feMergeNode in="SourceGraphic"/>
      </feMerge>
    </filter>
    <filter id="shadow">
      <feDropShadow dx="0" dy="4" stdDeviation="8" flood-color="#000000" flood-opacity="0.5"/>
    </filter>
  </defs>

  <!-- Background -->
  <rect width="1200" height="630" fill="url(#bgGradient)"/>

  <!-- Decorative ocean gradients -->
  <ellipse cx="1000" cy="150" rx="300" ry="200" fill="url(#oceanGradient)" opacity="0.4"/>
  <ellipse cx="200" cy="530" rx="250" ry="180" fill="url(#oceanGradient)" opacity="0.3"/>

  <!-- Wave patterns -->
  <path d="M 0 400 Q 300 350 600 400 T 1200 400 L 1200 630 L 0 630 Z" fill="#1E90A0" opacity="0.08"/>
  <path d="M 0 450 Q 250 420 500 450 T 1000 450 T 1200 450 L 1200 630 L 0 630 Z" fill="#4FD1C5" opacity="0.05"/>

  <!-- Caviar roe particles -->
  <circle cx="207.04453797333588" cy="2.775876009178231" r="3.4974071734920047" fill="#CFAE58" opacity="0.24415580022281075"/>
  <circle cx="474.2615891586493" cy="512.0132071070275" r="4.888511683779928" fill="#CFAE58" opacity="0.16954113457989972"/>
  <circle cx="326.622898057497" cy="44.5374359442787" r="3.7030488164899387" fill="#CFAE58" opacity="0.15268910203915426"/>
  <circle cx="1072.482464750371" cy="330.79596470974457" r="3.3738208809838506" fill="#CFAE58" opacity="0.23839903904862328"/>
  <circle cx="780.9518500825786" cy="501.0367140697204" r="4.31605194736717" fill="#CFAE58" opacity="0.16309247976580332"/>
  <circle cx="422.4168271984041" cy="130.3796712188104" r="2.5516129986703113" fill="#CFAE58" opacity="0.14389333781096308"/>
  <circle cx="23.876543017705742" cy="510.1346941825484" r="4.466125651323899" fill="#CFAE58" opacity="0.19016025293974786"/>
  <circle cx="1005.9540971534152" cy="18.112109593060296" r="5.521071047753528" fill="#CFAE58" opacity="0.19079666414354207"/>
  <circle cx="172.70413012165432" cy="423.495596027325" r="3.3776291923925736" fill="#CFAE58" opacity="0.1995527869453474"/>
  <circle cx="692.0833660715437" cy="282.03286162323394" r="3.6031406068342973" fill="#CFAE58" opacity="0.19467510657325446"/>
  <circle cx="107.95094671068802" cy="109.04402984444526" r="2.0338793869877714" fill="#CFAE58" opacity="0.11279356896605108"/>
  <circle cx="263.79249378238933" cy="76.92000807197299" r="4.4012964939024855" fill="#CFAE58" opacity="0.22278756513592576"/>
  <circle cx="80.60980051981161" cy="10.161413414224414" r="3.0991999270196704" fill="#CFAE58" opacity="0.21559073677587687"/>
  <circle cx="703.2108424840392" cy="345.8062446947384" r="2.8941016862584856" fill="#CFAE58" opacity="0.17750817290394205"/>
  <circle cx="291.189982396421" cy="358.0773839832648" r="2.9034240661284105" fill="#CFAE58" opacity="0.14738324232570646"/>
  <circle cx="911.6006855635228" cy="587.4238950438579" r="5.215822639137121" fill="#CFAE58" opacity="0.17087709351336433"/>
  <circle cx="708.2189274154449" cy="232.24734871703004" r="4.064400816968743" fill="#CFAE58" opacity="0.15502282732532174"/>
  <circle cx="826.4069671021302" cy="351.2452344652749" r="5.087183466900021" fill="#CFAE58" opacity="0.23197183008892325"/>
  <circle cx="815.2415565771762" cy="34.198473749114235" r="3.762288959286087" fill="#CFAE58" opacity="0.21188621697053608"/>
  <circle cx="667.6653744657491" cy="578.9127803436659" r="4.062204790605972" fill="#CFAE58" opacity="0.17774488193080973"/>
  <circle cx="911.335197043224" cy="562.7479910464551" r="2.258586984678799" fill="#CFAE58" opacity="0.13027083479355855"/>
  <circle cx="597.6272622253596" cy="35.60678411862044" r="2.716032677949727" fill="#CFAE58" opacity="0.23039939979695287"/>
  <circle cx="131.6269139818407" cy="462.7034139579616" r="4.710615183071081" fill="#CFAE58" opacity="0.18174419293557334"/>
  <circle cx="476.914824884093" cy="527.5760351084122" r="3.5174140087451784" fill="#CFAE58" opacity="0.1331177275608767"/>
  <circle cx="223.7226192650658" cy="579.6802558742055" r="2.7219748087517495" fill="#CFAE58" opacity="0.11597426899093427"/>
  <circle cx="204.04688656592703" cy="555.9566193548042" r="3.824282524520524" fill="#CFAE58" opacity="0.11010880799083368"/>
  <circle cx="1153.0797335235113" cy="415.7101044428541" r="4.636469344915239" fill="#CFAE58" opacity="0.16893590916471865"/>
  <circle cx="175.74204972658868" cy="209.87438127040394" r="5.215589877171582" fill="#CFAE58" opacity="0.14073368662526567"/>
  <circle cx="502.31707881088016" cy="118.75346137312924" r="2.0070835856929232" fill="#CFAE58" opacity="0.14165297982772296"/>
  <circle cx="609.8760754649087" cy="414.94272347025634" r="5.214896156038092" fill="#CFAE58" opacity="0.16927879588041994"/>

  <!-- Border with glow -->
  <rect x="40" y="40" width="1120" height="550" fill="none" stroke="url(#goldGradient)" stroke-width="3" rx="12" filter="url(#softGlow)"/>

  <!-- Icon circle with premium background -->
  <circle cx="150" cy="200" r="75" fill="#CFAE58" opacity="0.15" filter="url(#softGlow)"/>
  <circle cx="150" cy="200" r="70" fill="#CFAE58" opacity="0.25"/>
  <text x="150" y="235" font-size="90" text-anchor="middle" fill="#CFAE58" filter="url(#glow)">🫙</text>

  <!-- Premium logo (crown) with enhanced styling -->
  <g transform="translate(100, 70)">
    <path d="M 30 20 L 40 35 L 35 35 Z M 50 15 L 60 35 L 45 35 Z M 65 20 L 75 35 L 70 35 Z M 30 35 L 75 35 L 73 45 L 32 45 Z"
          fill="url(#goldGradient)" filter="url(#glow)" stroke="#B89842" stroke-width="0.5"/>
    <circle cx="40" cy="25" r="3" fill="#4FD1C5" filter="url(#glow)"/>
    <circle cx="52" cy="20" r="4" fill="#4FD1C5" filter="url(#glow)"/>
    <circle cx="65" cy="25" r="3" fill="#4FD1C5" filter="url(#glow)"/>
  </g>

  <!-- Title with shadow -->
  <text x="280" y="180" font-family="Georgia, serif" font-size="72" font-weight="bold"
        fill="url(#goldGradient)" filter="url(#shadow)">Premium Caviar</text>

  <!-- Subtitle with subtle glow -->
  <text x="280" y="230" font-family="Arial, sans-serif" font-size="36"
        fill="#D6DEE6" opacity="0.95" filter="url(#softGlow)">Excellence in Every Jar</text>

  <!-- Brand name with letter spacing -->
  <text x="280" y="300" font-family="Georgia, serif" font-size="32" font-weight="bold"
        fill="#CFAE58" letter-spacing="4" filter="url(#glow)">ROYAL KETA</text>

  <!-- Russian tagline -->
  <text x="280" y="340" font-family="Arial, sans-serif" font-size="22" font-style="italic"
        fill="#8B95A1" opacity="0.8">От икринки к королевской</text>

  <!-- Location -->
  <text x="280" y="380" font-family="Arial, sans-serif" font-size="20"
        fill="#8B95A1" opacity="0.7">Невельский район, Сахалин</text>

  <!-- Website with glow -->
  <text x="100" y="570" font-family="Arial, sans-serif" font-size="30" font-weight="bold"
        fill="#4FD1C5" filter="url(#glow)">royalketa.com</text>

  <!-- Enhanced decorative salmon silhouette -->
  <g transform="translate(950, 480)" opacity="0.2" filter="url(#softGlow)">
    <ellipse cx="0" cy="0" rx="90" ry="35" fill="#CFAE58"/>
    <path d="M 90 0 L 120 -18 L 130 0 L 120 18 Z" fill="#CFAE58"/>
    <path d="M -25 -35 L 0 -45 L 25 -35 Z" fill="#CFAE58"/>
    <ellipse cx="-50" cy="0" rx="15" ry="12" fill="#0B0F14"/>
  </g>

  <!-- Additional decorative caviar clusters -->
  <g opacity="0.2">
    <circle cx="1050" cy="120" r="6" fill="#CFAE58"/>
    <circle cx="1065" cy="115" r="5" fill="#CFAE58"/>
    <circle cx="1058" cy="130" r="4" fill="#CFAE58"/>
    <circle cx="150" cy="500" r="5" fill="#4FD1C5"/>
    <circle cx="165" cy="508" r="4" fill="#4FD1C5"/>
    <circle cx="140" cy="512" r="5" fill="#4FD1C5"/>
  </g>
</svg>