<svg width="1200" height="630" xmlns="http://www.w3.org/2000/svg">
  <defs>
    <linearGradient id="bgGradient" x1="0%" y1="0%" x2="100%" y2="100%">
      <stop offset="0%" style="stop-color:#0B0F14;stop-opacity:1" />
      <stop offset="50%" style="stop-color:#0F1619;stop-opacity:1" />
      <stop offset="100%" style="stop-color:#0F1922;stop-opacity:1" />
    </linearGradient>
    <linearGradient id="goldGradient" x1="0%" y1="0%" x2="100%" y2="0%">
      <stop offset="0%" style="stop-color:#E5D596;stop-opacity:1" />
      <stop offset="50%" style="stop-color:#CFAE58;stop-opacity:1" />
      <stop offset="100%" style="stop-color:#B89842;stop-opacity:1" />
    </linearGradient>
    <radialGradient id="oceanGradient" cx="50%" cy="50%" r="50%">
      <stop offset="0%" style="stop-color:#4FD1C5;stop-opacity:0.3" />
      <stop offset="100%" style="stop-color:#1E90A0;stop-opacity:0.05" />
    </radialGradient>
    <filter id="glow">
      <feGaussianBlur stdDeviation="5" result="coloredBlur"/>
      <feMerge>
        <feMergeNode in="coloredBlur"/>
        <feMergeNode in="SourceGraphic"/>
      </feMerge>
    </filter>
    <filter id="softGlow">
      <feGaussianBlur stdDeviation="8" result="coloredBlur"/>
      <feMerge>
        <feMergeNode in="coloredBlur"/>
        <feMergeNode in="SourceGraphic"/>
      </feMerge>
    </filter>
    <filter id="shadow">
      <feDropShadow dx="0" dy="4" stdDeviation="8" flood-color="#000000" flood-opacity="0.5"/>
    </filter>
  </defs>

  <!-- Background -->
  <rect width="1200" height="630" fill="url(#bgGradient)"/>

  <!-- Decorative ocean gradients -->
  <ellipse cx="1000" cy="150" rx="300" ry="200" fill="url(#oceanGradient)" opacity="0.4"/>
  <ellipse cx="200" cy="530" rx="250" ry="180" fill="url(#oceanGradient)" opacity="0.3"/>

  <!-- Wave patterns -->
  <path d="M 0 400 Q 300 350 600 400 T 1200 400 L 1200 630 L 0 630 Z" fill="#1E90A0" opacity="0.08"/>
  <path d="M 0 450 Q 250 420 500 450 T 1000 450 T 1200 450 L 1200 630 L 0 630 Z" fill="#4FD1C5" opacity="0.05"/>

  <!-- Caviar roe particles -->
  <circle cx="637.7061394353689" cy="194.1435648021279" r="4.56998032810552" fill="#CFAE58" opacity="0.18018804282862946"/>
  <circle cx="68.09279442880597" cy="281.15970270939255" r="5.398525068945009" fill="#CFAE58" opacity="0.24638388732563277"/>
  <circle cx="897.9663311158965" cy="436.92432520990116" r="4.08797814646638" fill="#CFAE58" opacity="0.24549104210863387"/>
  <circle cx="444.94072963618123" cy="49.97455243000317" r="5.7637699735683725" fill="#CFAE58" opacity="0.14356014162569983"/>
  <circle cx="554.4946862313478" cy="325.0211945721337" r="3.6320407878054883" fill="#CFAE58" opacity="0.10737718126942575"/>
  <circle cx="235.22977910519236" cy="349.62223109485996" r="4.347292024681781" fill="#CFAE58" opacity="0.21284555518579967"/>
  <circle cx="142.9435822065275" cy="110.49313030171598" r="4.961970118865935" fill="#CFAE58" opacity="0.1936183760890688"/>
  <circle cx="953.0828347550014" cy="335.01523413276556" r="2.3668843881039647" fill="#CFAE58" opacity="0.2333714751140259"/>
  <circle cx="206.28674229862148" cy="491.3921737868513" r="5.643651967159947" fill="#CFAE58" opacity="0.1558598359431736"/>
  <circle cx="384.8855341777326" cy="6.324031241477748" r="5.058033740590153" fill="#CFAE58" opacity="0.24320369734826877"/>
  <circle cx="624.7801348186667" cy="465.566506629595" r="3.2440683692194066" fill="#CFAE58" opacity="0.16935022209678066"/>
  <circle cx="279.1864884771351" cy="292.73134178820106" r="4.72170109171063" fill="#CFAE58" opacity="0.19501619005454712"/>
  <circle cx="201.09503064102805" cy="587.3697402430696" r="2.51193565974817" fill="#CFAE58" opacity="0.2497816001394657"/>
  <circle cx="709.7445890546398" cy="212.71167089663118" r="2.3437656593073317" fill="#CFAE58" opacity="0.10919985732956136"/>
  <circle cx="489.1362826800136" cy="130.57390737522317" r="2.826619345121065" fill="#CFAE58" opacity="0.17420219476059035"/>
  <circle cx="32.74688239425983" cy="122.06546563621296" r="3.1131698793885025" fill="#CFAE58" opacity="0.2161039177681477"/>
  <circle cx="164.87698082168382" cy="31.00053606091141" r="4.79176216776615" fill="#CFAE58" opacity="0.18989633000555584"/>
  <circle cx="269.53984326703926" cy="561.8631135410254" r="5.780561052529496" fill="#CFAE58" opacity="0.22342434723406052"/>
  <circle cx="210.1218310255062" cy="91.72285788412204" r="3.7350317958931676" fill="#CFAE58" opacity="0.24547383836719"/>
  <circle cx="239.97568738960356" cy="412.5402900973474" r="5.883472643981325" fill="#CFAE58" opacity="0.2130582503875387"/>
  <circle cx="24.525867361133713" cy="355.28923995974446" r="4.575296017730754" fill="#CFAE58" opacity="0.14812715174713176"/>
  <circle cx="487.48963832104727" cy="77.31136144534636" r="5.808796188491049" fill="#CFAE58" opacity="0.19918703925305326"/>
  <circle cx="166.38862366262606" cy="614.253278429833" r="2.9564785506838103" fill="#CFAE58" opacity="0.14438500810196375"/>
  <circle cx="948.1179338178272" cy="50.96754040740253" r="5.60091839826121" fill="#CFAE58" opacity="0.2436554675869701"/>
  <circle cx="193.13438818812978" cy="379.6436397007704" r="3.3140987892205276" fill="#CFAE58" opacity="0.2142728695654125"/>
  <circle cx="1035.2733558669538" cy="472.7043426889549" r="3.4938179316542337" fill="#CFAE58" opacity="0.12480956990133851"/>
  <circle cx="676.6818375809872" cy="73.65288652676975" r="5.526252947925812" fill="#CFAE58" opacity="0.22812848363091803"/>
  <circle cx="333.8484027771288" cy="185.9119948081197" r="3.759587042369045" fill="#CFAE58" opacity="0.10404125288711519"/>
  <circle cx="795.4876719785602" cy="447.10056142900623" r="4.200003416897702" fill="#CFAE58" opacity="0.21804703958949684"/>
  <circle cx="553.507976803527" cy="292.8100903171499" r="2.001060010851563" fill="#CFAE58" opacity="0.10193763600955709"/>

  <!-- Border with glow -->
  <rect x="40" y="40" width="1120" height="550" fill="none" stroke="url(#goldGradient)" stroke-width="3" rx="12" filter="url(#softGlow)"/>

  <!-- Icon circle with premium background -->
  <circle cx="150" cy="200" r="75" fill="#CFAE58" opacity="0.15" filter="url(#softGlow)"/>
  <circle cx="150" cy="200" r="70" fill="#CFAE58" opacity="0.25"/>
  <text x="150" y="235" font-size="90" text-anchor="middle" fill="#CFAE58" filter="url(#glow)">🫙</text>

  <!-- Premium logo (crown) with enhanced styling -->
  <g transform="translate(100, 70)">
    <path d="M 30 20 L 40 35 L 35 35 Z M 50 15 L 60 35 L 45 35 Z M 65 20 L 75 35 L 70 35 Z M 30 35 L 75 35 L 73 45 L 32 45 Z"
          fill="url(#goldGradient)" filter="url(#glow)" stroke="#B89842" stroke-width="0.5"/>
    <circle cx="40" cy="25" r="3" fill="#4FD1C5" filter="url(#glow)"/>
    <circle cx="52" cy="20" r="4" fill="#4FD1C5" filter="url(#glow)"/>
    <circle cx="65" cy="25" r="3" fill="#4FD1C5" filter="url(#glow)"/>
  </g>

  <!-- Title with shadow -->
  <text x="280" y="180" font-family="Georgia, serif" font-size="72" font-weight="bold"
        fill="url(#goldGradient)" filter="url(#shadow)">Premium Caviar</text>

  <!-- Subtitle with subtle glow -->
  <text x="280" y="230" font-family="Arial, sans-serif" font-size="36"
        fill="#D6DEE6" opacity="0.95" filter="url(#softGlow)">Excellence in Every Jar</text>

  <!-- Brand name with letter spacing -->
  <text x="280" y="300" font-family="Georgia, serif" font-size="32" font-weight="bold"
        fill="#CFAE58" letter-spacing="4" filter="url(#glow)">ROYAL KETA</text>

  <!-- Russian tagline -->
  <text x="280" y="340" font-family="Arial, sans-serif" font-size="22" font-style="italic"
        fill="#8B95A1" opacity="0.8">От икринки к королевской</text>

  <!-- Location -->
  <text x="280" y="380" font-family="Arial, sans-serif" font-size="20"
        fill="#8B95A1" opacity="0.7">Невельский район, Сахалин</text>

  <!-- Website with glow -->
  <text x="100" y="570" font-family="Arial, sans-serif" font-size="30" font-weight="bold"
        fill="#4FD1C5" filter="url(#glow)">royalketa.com</text>

  <!-- Enhanced decorative salmon silhouette -->
  <g transform="translate(950, 480)" opacity="0.2" filter="url(#softGlow)">
    <ellipse cx="0" cy="0" rx="90" ry="35" fill="#CFAE58"/>
    <path d="M 90 0 L 120 -18 L 130 0 L 120 18 Z" fill="#CFAE58"/>
    <path d="M -25 -35 L 0 -45 L 25 -35 Z" fill="#CFAE58"/>
    <ellipse cx="-50" cy="0" rx="15" ry="12" fill="#0B0F14"/>
  </g>

  <!-- Additional decorative caviar clusters -->
  <g opacity="0.2">
    <circle cx="1050" cy="120" r="6" fill="#CFAE58"/>
    <circle cx="1065" cy="115" r="5" fill="#CFAE58"/>
    <circle cx="1058" cy="130" r="4" fill="#CFAE58"/>
    <circle cx="150" cy="500" r="5" fill="#4FD1C5"/>
    <circle cx="165" cy="508" r="4" fill="#4FD1C5"/>
    <circle cx="140" cy="512" r="5" fill="#4FD1C5"/>
  </g>
</svg>