<svg width="1200" height="630" xmlns="http://www.w3.org/2000/svg">
  <defs>
    <linearGradient id="bgGradient" x1="0%" y1="0%" x2="100%" y2="100%">
      <stop offset="0%" style="stop-color:#0B0F14;stop-opacity:1" />
      <stop offset="50%" style="stop-color:#0F1619;stop-opacity:1" />
      <stop offset="100%" style="stop-color:#0F1922;stop-opacity:1" />
    </linearGradient>
    <linearGradient id="goldGradient" x1="0%" y1="0%" x2="100%" y2="0%">
      <stop offset="0%" style="stop-color:#E5D596;stop-opacity:1" />
      <stop offset="50%" style="stop-color:#CFAE58;stop-opacity:1" />
      <stop offset="100%" style="stop-color:#B89842;stop-opacity:1" />
    </linearGradient>
    <radialGradient id="oceanGradient" cx="50%" cy="50%" r="50%">
      <stop offset="0%" style="stop-color:#4FD1C5;stop-opacity:0.3" />
      <stop offset="100%" style="stop-color:#1E90A0;stop-opacity:0.05" />
    </radialGradient>
    <filter id="glow">
      <feGaussianBlur stdDeviation="5" result="coloredBlur"/>
      <feMerge>
        <feMergeNode in="coloredBlur"/>
        <feMergeNode in="SourceGraphic"/>
      </feMerge>
    </filter>
    <filter id="softGlow">
      <feGaussianBlur stdDeviation="8" result="coloredBlur"/>
      <feMerge>
        <feMergeNode in="coloredBlur"/>
        <feMergeNode in="SourceGraphic"/>
      </feMerge>
    </filter>
    <filter id="shadow">
      <feDropShadow dx="0" dy="4" stdDeviation="8" flood-color="#000000" flood-opacity="0.5"/>
    </filter>
  </defs>

  <!-- Background -->
  <rect width="1200" height="630" fill="url(#bgGradient)"/>

  <!-- Decorative ocean gradients -->
  <ellipse cx="1000" cy="150" rx="300" ry="200" fill="url(#oceanGradient)" opacity="0.4"/>
  <ellipse cx="200" cy="530" rx="250" ry="180" fill="url(#oceanGradient)" opacity="0.3"/>

  <!-- Wave patterns -->
  <path d="M 0 400 Q 300 350 600 400 T 1200 400 L 1200 630 L 0 630 Z" fill="#1E90A0" opacity="0.08"/>
  <path d="M 0 450 Q 250 420 500 450 T 1000 450 T 1200 450 L 1200 630 L 0 630 Z" fill="#4FD1C5" opacity="0.05"/>

  <!-- Caviar roe particles -->
  <circle cx="303.5834149463288" cy="102.5086410757641" r="5.288195004845379" fill="#CFAE58" opacity="0.17033153501353676"/>
  <circle cx="821.4014082740506" cy="538.2298211202823" r="5.304061723839814" fill="#CFAE58" opacity="0.24922239124473197"/>
  <circle cx="1075.794665710406" cy="400.49773057320743" r="2.1727038848977087" fill="#CFAE58" opacity="0.24869976037655903"/>
  <circle cx="735.141336611938" cy="77.98812885921811" r="5.990626089289929" fill="#CFAE58" opacity="0.2473101754493858"/>
  <circle cx="1064.570174598588" cy="517.2537038330141" r="2.891984954726834" fill="#CFAE58" opacity="0.2370850922633125"/>
  <circle cx="19.350790659256802" cy="456.60253973460124" r="2.5030024603175534" fill="#CFAE58" opacity="0.17340403010535954"/>
  <circle cx="309.22900770905284" cy="200.98195258436314" r="2.274266723300653" fill="#CFAE58" opacity="0.1935550190192582"/>
  <circle cx="692.7386451160148" cy="137.75153478283437" r="4.316170305109046" fill="#CFAE58" opacity="0.1911735276020966"/>
  <circle cx="871.4642589793232" cy="521.406847803948" r="5.251940120316272" fill="#CFAE58" opacity="0.22105463389430202"/>
  <circle cx="166.24077443406028" cy="225.19017922307623" r="4.8826626549289065" fill="#CFAE58" opacity="0.13012293842014266"/>
  <circle cx="296.55314032330693" cy="84.01465335906525" r="5.982090420518667" fill="#CFAE58" opacity="0.13857806230762387"/>
  <circle cx="124.6688814368337" cy="332.4915864724323" r="5.371265072852239" fill="#CFAE58" opacity="0.22702052351562513"/>
  <circle cx="355.59915574550075" cy="382.98955934319565" r="4.132608577609522" fill="#CFAE58" opacity="0.1848330410485059"/>
  <circle cx="195.06686096861748" cy="113.71243507187053" r="2.5731354412271465" fill="#CFAE58" opacity="0.18466565498791043"/>
  <circle cx="1103.5455285033165" cy="485.35876965442424" r="2.0729976501172174" fill="#CFAE58" opacity="0.10220773981455238"/>
  <circle cx="876.2659178129335" cy="241.4377247587406" r="3.986717059876181" fill="#CFAE58" opacity="0.2137019134492893"/>
  <circle cx="1082.2969949530166" cy="301.7778959370338" r="4.080923604654231" fill="#CFAE58" opacity="0.1215791021018655"/>
  <circle cx="738.8121465573337" cy="458.61764878849533" r="4.0144298806218615" fill="#CFAE58" opacity="0.135657465906863"/>
  <circle cx="511.7763257244089" cy="424.14281777081953" r="3.853283747856143" fill="#CFAE58" opacity="0.23704180478736797"/>
  <circle cx="1157.3331946183232" cy="149.68881704555284" r="4.480456032856101" fill="#CFAE58" opacity="0.12448684356530419"/>
  <circle cx="1173.0968429984096" cy="324.09568398449056" r="4.365143743679575" fill="#CFAE58" opacity="0.19372451084868156"/>
  <circle cx="230.850108852196" cy="401.8227771925799" r="4.757339540874034" fill="#CFAE58" opacity="0.2397953031818191"/>
  <circle cx="897.5456148914603" cy="410.83483114775527" r="3.2818480944366915" fill="#CFAE58" opacity="0.1667483541931401"/>
  <circle cx="660.7471967608078" cy="321.3021342671394" r="2.4704213447506223" fill="#CFAE58" opacity="0.24844280568153002"/>
  <circle cx="139.7034636723093" cy="57.676643158565454" r="2.8834014873417892" fill="#CFAE58" opacity="0.1725817977606619"/>
  <circle cx="895.1671587396547" cy="1.0527605440258447" r="2.2397793266961896" fill="#CFAE58" opacity="0.11198436212171495"/>
  <circle cx="1182.428870774132" cy="368.48975407215147" r="5.801518728374812" fill="#CFAE58" opacity="0.22926750293201434"/>
  <circle cx="1104.4871473534222" cy="28.07752116702643" r="5.838617841457722" fill="#CFAE58" opacity="0.13791250128763272"/>
  <circle cx="117.90070620804639" cy="71.03142745176481" r="5.066697481547824" fill="#CFAE58" opacity="0.2278337599731935"/>
  <circle cx="716.4753236140103" cy="173.90502461170817" r="2.8099989549153848" fill="#CFAE58" opacity="0.16941337010647367"/>

  <!-- Border with glow -->
  <rect x="40" y="40" width="1120" height="550" fill="none" stroke="url(#goldGradient)" stroke-width="3" rx="12" filter="url(#softGlow)"/>

  <!-- Icon circle with premium background -->
  <circle cx="150" cy="200" r="75" fill="#CFAE58" opacity="0.15" filter="url(#softGlow)"/>
  <circle cx="150" cy="200" r="70" fill="#CFAE58" opacity="0.25"/>
  <text x="150" y="235" font-size="90" text-anchor="middle" fill="#CFAE58" filter="url(#glow)">🫙</text>

  <!-- Premium logo (crown) with enhanced styling -->
  <g transform="translate(100, 70)">
    <path d="M 30 20 L 40 35 L 35 35 Z M 50 15 L 60 35 L 45 35 Z M 65 20 L 75 35 L 70 35 Z M 30 35 L 75 35 L 73 45 L 32 45 Z"
          fill="url(#goldGradient)" filter="url(#glow)" stroke="#B89842" stroke-width="0.5"/>
    <circle cx="40" cy="25" r="3" fill="#4FD1C5" filter="url(#glow)"/>
    <circle cx="52" cy="20" r="4" fill="#4FD1C5" filter="url(#glow)"/>
    <circle cx="65" cy="25" r="3" fill="#4FD1C5" filter="url(#glow)"/>
  </g>

  <!-- Title with shadow -->
  <text x="280" y="180" font-family="Georgia, serif" font-size="72" font-weight="bold"
        fill="url(#goldGradient)" filter="url(#shadow)">Premium Caviar</text>

  <!-- Subtitle with subtle glow -->
  <text x="280" y="230" font-family="Arial, sans-serif" font-size="36"
        fill="#D6DEE6" opacity="0.95" filter="url(#softGlow)">Excellence in Every Jar</text>

  <!-- Brand name with letter spacing -->
  <text x="280" y="300" font-family="Georgia, serif" font-size="32" font-weight="bold"
        fill="#CFAE58" letter-spacing="4" filter="url(#glow)">ROYAL KETA</text>

  <!-- Russian tagline -->
  <text x="280" y="340" font-family="Arial, sans-serif" font-size="22" font-style="italic"
        fill="#8B95A1" opacity="0.8">От икринки к королевской</text>

  <!-- Location -->
  <text x="280" y="380" font-family="Arial, sans-serif" font-size="20"
        fill="#8B95A1" opacity="0.7">Невельский район, Сахалин</text>

  <!-- Website with glow -->
  <text x="100" y="570" font-family="Arial, sans-serif" font-size="30" font-weight="bold"
        fill="#4FD1C5" filter="url(#glow)">royalketa.com</text>

  <!-- Enhanced decorative salmon silhouette -->
  <g transform="translate(950, 480)" opacity="0.2" filter="url(#softGlow)">
    <ellipse cx="0" cy="0" rx="90" ry="35" fill="#CFAE58"/>
    <path d="M 90 0 L 120 -18 L 130 0 L 120 18 Z" fill="#CFAE58"/>
    <path d="M -25 -35 L 0 -45 L 25 -35 Z" fill="#CFAE58"/>
    <ellipse cx="-50" cy="0" rx="15" ry="12" fill="#0B0F14"/>
  </g>

  <!-- Additional decorative caviar clusters -->
  <g opacity="0.2">
    <circle cx="1050" cy="120" r="6" fill="#CFAE58"/>
    <circle cx="1065" cy="115" r="5" fill="#CFAE58"/>
    <circle cx="1058" cy="130" r="4" fill="#CFAE58"/>
    <circle cx="150" cy="500" r="5" fill="#4FD1C5"/>
    <circle cx="165" cy="508" r="4" fill="#4FD1C5"/>
    <circle cx="140" cy="512" r="5" fill="#4FD1C5"/>
  </g>
</svg>