<svg width="1200" height="630" xmlns="http://www.w3.org/2000/svg">
  <defs>
    <linearGradient id="bgGradient" x1="0%" y1="0%" x2="100%" y2="100%">
      <stop offset="0%" style="stop-color:#0B0F14;stop-opacity:1" />
      <stop offset="50%" style="stop-color:#0F1619;stop-opacity:1" />
      <stop offset="100%" style="stop-color:#0F1922;stop-opacity:1" />
    </linearGradient>
    <linearGradient id="goldGradient" x1="0%" y1="0%" x2="100%" y2="0%">
      <stop offset="0%" style="stop-color:#E5D596;stop-opacity:1" />
      <stop offset="50%" style="stop-color:#CFAE58;stop-opacity:1" />
      <stop offset="100%" style="stop-color:#B89842;stop-opacity:1" />
    </linearGradient>
    <radialGradient id="oceanGradient" cx="50%" cy="50%" r="50%">
      <stop offset="0%" style="stop-color:#4FD1C5;stop-opacity:0.3" />
      <stop offset="100%" style="stop-color:#1E90A0;stop-opacity:0.05" />
    </radialGradient>
    <filter id="glow">
      <feGaussianBlur stdDeviation="5" result="coloredBlur"/>
      <feMerge>
        <feMergeNode in="coloredBlur"/>
        <feMergeNode in="SourceGraphic"/>
      </feMerge>
    </filter>
    <filter id="softGlow">
      <feGaussianBlur stdDeviation="8" result="coloredBlur"/>
      <feMerge>
        <feMergeNode in="coloredBlur"/>
        <feMergeNode in="SourceGraphic"/>
      </feMerge>
    </filter>
    <filter id="shadow">
      <feDropShadow dx="0" dy="4" stdDeviation="8" flood-color="#000000" flood-opacity="0.5"/>
    </filter>
  </defs>

  <!-- Background -->
  <rect width="1200" height="630" fill="url(#bgGradient)"/>

  <!-- Decorative ocean gradients -->
  <ellipse cx="1000" cy="150" rx="300" ry="200" fill="url(#oceanGradient)" opacity="0.4"/>
  <ellipse cx="200" cy="530" rx="250" ry="180" fill="url(#oceanGradient)" opacity="0.3"/>

  <!-- Wave patterns -->
  <path d="M 0 400 Q 300 350 600 400 T 1200 400 L 1200 630 L 0 630 Z" fill="#1E90A0" opacity="0.08"/>
  <path d="M 0 450 Q 250 420 500 450 T 1000 450 T 1200 450 L 1200 630 L 0 630 Z" fill="#4FD1C5" opacity="0.05"/>

  <!-- Caviar roe particles -->
  <circle cx="853.858217551736" cy="262.3032120751432" r="4.35517754037158" fill="#CFAE58" opacity="0.21235904572070746"/>
  <circle cx="181.8071453025079" cy="518.941505743232" r="5.014545062500158" fill="#CFAE58" opacity="0.23624693714403205"/>
  <circle cx="907.7032918878352" cy="344.6186419085633" r="3.1406025985643393" fill="#CFAE58" opacity="0.18554008601091657"/>
  <circle cx="103.38317996838322" cy="282.0718901141361" r="2.292357187990626" fill="#CFAE58" opacity="0.13955035456439616"/>
  <circle cx="389.99433683544294" cy="502.40029006462595" r="5.600218999179246" fill="#CFAE58" opacity="0.2304432980352449"/>
  <circle cx="530.817788352912" cy="336.01816610830974" r="2.8739904432504693" fill="#CFAE58" opacity="0.21694923888061404"/>
  <circle cx="530.2154624513461" cy="583.0812029986457" r="2.5162533465304526" fill="#CFAE58" opacity="0.14260967113290068"/>
  <circle cx="196.09469197915433" cy="108.1316689993962" r="5.750542138106167" fill="#CFAE58" opacity="0.11622299703351245"/>
  <circle cx="90.02923550656519" cy="24.509189549105045" r="2.1714935604873826" fill="#CFAE58" opacity="0.1472455261981981"/>
  <circle cx="708.0455020056503" cy="311.6149134353061" r="2.7675303677981318" fill="#CFAE58" opacity="0.13823050959615174"/>
  <circle cx="967.1845069847576" cy="192.43090460836154" r="5.914894809782543" fill="#CFAE58" opacity="0.14428110713024464"/>
  <circle cx="740.5145896046844" cy="131.9724965796104" r="2.224311184158436" fill="#CFAE58" opacity="0.11997240962884767"/>
  <circle cx="187.08658868952682" cy="608.4641644239316" r="2.7391099922474025" fill="#CFAE58" opacity="0.14528844802787227"/>
  <circle cx="803.881185581443" cy="379.572684197986" r="5.233411311548425" fill="#CFAE58" opacity="0.1519348808868805"/>
  <circle cx="493.69454328080855" cy="485.904851165308" r="4.0267482653022295" fill="#CFAE58" opacity="0.11365756379986322"/>
  <circle cx="188.04126916133131" cy="41.75409045929093" r="3.044037569746639" fill="#CFAE58" opacity="0.16911452094709023"/>
  <circle cx="657.6414201968554" cy="398.86551446812734" r="3.0509631281980805" fill="#CFAE58" opacity="0.14557793154087145"/>
  <circle cx="964.4299167434892" cy="476.9218661512112" r="2.876219847055762" fill="#CFAE58" opacity="0.18656245617124817"/>
  <circle cx="153.65389032428718" cy="375.7408139524719" r="2.851007249436415" fill="#CFAE58" opacity="0.21171583052089535"/>
  <circle cx="921.1319873294703" cy="436.6527438450393" r="3.7740840993814646" fill="#CFAE58" opacity="0.15127658709436623"/>
  <circle cx="55.31904870741546" cy="155.6086641264768" r="4.057038648643115" fill="#CFAE58" opacity="0.21956814717637463"/>
  <circle cx="292.6314990163335" cy="348.88479165055963" r="4.153148759884903" fill="#CFAE58" opacity="0.22685219397297132"/>
  <circle cx="245.7162540457905" cy="444.6033948740476" r="3.760967702507315" fill="#CFAE58" opacity="0.17415433041224793"/>
  <circle cx="626.6237562009835" cy="609.6937395409458" r="4.210986136584886" fill="#CFAE58" opacity="0.2438200573878878"/>
  <circle cx="708.0259233552295" cy="471.34049252495186" r="2.155996861802359" fill="#CFAE58" opacity="0.2154551944323701"/>
  <circle cx="467.3088576218875" cy="55.09942712973309" r="4.566062364556769" fill="#CFAE58" opacity="0.10684602963483489"/>
  <circle cx="1189.4627554348494" cy="353.6827468693895" r="2.879830021821415" fill="#CFAE58" opacity="0.11750652190026765"/>
  <circle cx="350.1393462249479" cy="385.53256535440494" r="3.600283474545307" fill="#CFAE58" opacity="0.12687621427073537"/>
  <circle cx="1118.3204620054169" cy="138.39446291786618" r="3.9917891804847927" fill="#CFAE58" opacity="0.14561826064871083"/>
  <circle cx="788.7085826402869" cy="550.0854877263674" r="2.853673579916633" fill="#CFAE58" opacity="0.14645905465108108"/>

  <!-- Border with glow -->
  <rect x="40" y="40" width="1120" height="550" fill="none" stroke="url(#goldGradient)" stroke-width="3" rx="12" filter="url(#softGlow)"/>

  <!-- Icon circle with premium background -->
  <circle cx="150" cy="200" r="75" fill="#CFAE58" opacity="0.15" filter="url(#softGlow)"/>
  <circle cx="150" cy="200" r="70" fill="#CFAE58" opacity="0.25"/>
  <text x="150" y="235" font-size="90" text-anchor="middle" fill="#CFAE58" filter="url(#glow)">🫙</text>

  <!-- Premium logo (crown) with enhanced styling -->
  <g transform="translate(100, 70)">
    <path d="M 30 20 L 40 35 L 35 35 Z M 50 15 L 60 35 L 45 35 Z M 65 20 L 75 35 L 70 35 Z M 30 35 L 75 35 L 73 45 L 32 45 Z"
          fill="url(#goldGradient)" filter="url(#glow)" stroke="#B89842" stroke-width="0.5"/>
    <circle cx="40" cy="25" r="3" fill="#4FD1C5" filter="url(#glow)"/>
    <circle cx="52" cy="20" r="4" fill="#4FD1C5" filter="url(#glow)"/>
    <circle cx="65" cy="25" r="3" fill="#4FD1C5" filter="url(#glow)"/>
  </g>

  <!-- Title with shadow -->
  <text x="280" y="180" font-family="Georgia, serif" font-size="72" font-weight="bold"
        fill="url(#goldGradient)" filter="url(#shadow)">Premium Caviar</text>

  <!-- Subtitle with subtle glow -->
  <text x="280" y="230" font-family="Arial, sans-serif" font-size="36"
        fill="#D6DEE6" opacity="0.95" filter="url(#softGlow)">Excellence in Every Jar</text>

  <!-- Brand name with letter spacing -->
  <text x="280" y="300" font-family="Georgia, serif" font-size="32" font-weight="bold"
        fill="#CFAE58" letter-spacing="4" filter="url(#glow)">ROYAL KETA</text>

  <!-- Russian tagline -->
  <text x="280" y="340" font-family="Arial, sans-serif" font-size="22" font-style="italic"
        fill="#8B95A1" opacity="0.8">От икринки к королевской</text>

  <!-- Location -->
  <text x="280" y="380" font-family="Arial, sans-serif" font-size="20"
        fill="#8B95A1" opacity="0.7">Невельский район, Сахалин</text>

  <!-- Website with glow -->
  <text x="100" y="570" font-family="Arial, sans-serif" font-size="30" font-weight="bold"
        fill="#4FD1C5" filter="url(#glow)">royalketa.com</text>

  <!-- Enhanced decorative salmon silhouette -->
  <g transform="translate(950, 480)" opacity="0.2" filter="url(#softGlow)">
    <ellipse cx="0" cy="0" rx="90" ry="35" fill="#CFAE58"/>
    <path d="M 90 0 L 120 -18 L 130 0 L 120 18 Z" fill="#CFAE58"/>
    <path d="M -25 -35 L 0 -45 L 25 -35 Z" fill="#CFAE58"/>
    <ellipse cx="-50" cy="0" rx="15" ry="12" fill="#0B0F14"/>
  </g>

  <!-- Additional decorative caviar clusters -->
  <g opacity="0.2">
    <circle cx="1050" cy="120" r="6" fill="#CFAE58"/>
    <circle cx="1065" cy="115" r="5" fill="#CFAE58"/>
    <circle cx="1058" cy="130" r="4" fill="#CFAE58"/>
    <circle cx="150" cy="500" r="5" fill="#4FD1C5"/>
    <circle cx="165" cy="508" r="4" fill="#4FD1C5"/>
    <circle cx="140" cy="512" r="5" fill="#4FD1C5"/>
  </g>
</svg>