<svg width="1200" height="630" xmlns="http://www.w3.org/2000/svg">
  <defs>
    <linearGradient id="bgGradient" x1="0%" y1="0%" x2="100%" y2="100%">
      <stop offset="0%" style="stop-color:#0B0F14;stop-opacity:1" />
      <stop offset="50%" style="stop-color:#0F1619;stop-opacity:1" />
      <stop offset="100%" style="stop-color:#0F1922;stop-opacity:1" />
    </linearGradient>
    <linearGradient id="goldGradient" x1="0%" y1="0%" x2="100%" y2="0%">
      <stop offset="0%" style="stop-color:#E5D596;stop-opacity:1" />
      <stop offset="50%" style="stop-color:#CFAE58;stop-opacity:1" />
      <stop offset="100%" style="stop-color:#B89842;stop-opacity:1" />
    </linearGradient>
    <radialGradient id="oceanGradient" cx="50%" cy="50%" r="50%">
      <stop offset="0%" style="stop-color:#4FD1C5;stop-opacity:0.3" />
      <stop offset="100%" style="stop-color:#1E90A0;stop-opacity:0.05" />
    </radialGradient>
    <filter id="glow">
      <feGaussianBlur stdDeviation="5" result="coloredBlur"/>
      <feMerge>
        <feMergeNode in="coloredBlur"/>
        <feMergeNode in="SourceGraphic"/>
      </feMerge>
    </filter>
    <filter id="softGlow">
      <feGaussianBlur stdDeviation="8" result="coloredBlur"/>
      <feMerge>
        <feMergeNode in="coloredBlur"/>
        <feMergeNode in="SourceGraphic"/>
      </feMerge>
    </filter>
    <filter id="shadow">
      <feDropShadow dx="0" dy="4" stdDeviation="8" flood-color="#000000" flood-opacity="0.5"/>
    </filter>
  </defs>

  <!-- Background -->
  <rect width="1200" height="630" fill="url(#bgGradient)"/>

  <!-- Decorative ocean gradients -->
  <ellipse cx="1000" cy="150" rx="300" ry="200" fill="url(#oceanGradient)" opacity="0.4"/>
  <ellipse cx="200" cy="530" rx="250" ry="180" fill="url(#oceanGradient)" opacity="0.3"/>

  <!-- Wave patterns -->
  <path d="M 0 400 Q 300 350 600 400 T 1200 400 L 1200 630 L 0 630 Z" fill="#1E90A0" opacity="0.08"/>
  <path d="M 0 450 Q 250 420 500 450 T 1000 450 T 1200 450 L 1200 630 L 0 630 Z" fill="#4FD1C5" opacity="0.05"/>

  <!-- Caviar roe particles -->
  <circle cx="792.6580274949274" cy="600.7693243625876" r="4.708332032573462" fill="#CFAE58" opacity="0.1445507779666562"/>
  <circle cx="93.18722937522833" cy="204.24429800724369" r="4.683241327567961" fill="#CFAE58" opacity="0.16623773334851855"/>
  <circle cx="98.25651251591205" cy="233.16002676960963" r="2.278990439272616" fill="#CFAE58" opacity="0.18811342443944462"/>
  <circle cx="598.1680826053636" cy="301.35193385223477" r="4.234175464276949" fill="#CFAE58" opacity="0.23241522462056188"/>
  <circle cx="649.8005242748713" cy="531.3848643344651" r="5.663783414354933" fill="#CFAE58" opacity="0.16144687533027835"/>
  <circle cx="60.318025098702854" cy="163.35480147050276" r="3.325070430429723" fill="#CFAE58" opacity="0.14503463542544942"/>
  <circle cx="880.2181223824998" cy="178.04724029967724" r="2.7092460970960266" fill="#CFAE58" opacity="0.20826854468164246"/>
  <circle cx="1170.3773148642324" cy="105.93284628479856" r="2.601600148056284" fill="#CFAE58" opacity="0.24819165366136964"/>
  <circle cx="696.7774354655626" cy="627.5074137252312" r="5.909307748863725" fill="#CFAE58" opacity="0.22680350295192458"/>
  <circle cx="204.1053826840047" cy="533.0271490821896" r="3.033912035122529" fill="#CFAE58" opacity="0.17787409636627516"/>
  <circle cx="1188.2877204365036" cy="308.32622531493365" r="3.459160263964626" fill="#CFAE58" opacity="0.15769918428180232"/>
  <circle cx="1159.441821423774" cy="512.0611977926277" r="5.645818140580646" fill="#CFAE58" opacity="0.1480147136876383"/>
  <circle cx="425.7020308411948" cy="628.2112957764505" r="5.877553160749198" fill="#CFAE58" opacity="0.2273619389762161"/>
  <circle cx="583.206848680196" cy="592.1036304060668" r="2.9381183105972806" fill="#CFAE58" opacity="0.19271662216754049"/>
  <circle cx="1129.9461829785032" cy="494.85268818103685" r="5.051340571271172" fill="#CFAE58" opacity="0.19706162847436665"/>
  <circle cx="1199.4190117682656" cy="334.43454688013117" r="4.376011312162729" fill="#CFAE58" opacity="0.24894218829710338"/>
  <circle cx="870.907241058716" cy="218.92889337704065" r="3.7284896664999696" fill="#CFAE58" opacity="0.10379720666023119"/>
  <circle cx="156.62459668838773" cy="351.1566349833195" r="5.358126866072012" fill="#CFAE58" opacity="0.1186928203148183"/>
  <circle cx="639.189613600318" cy="580.2672143277996" r="2.1673371366002625" fill="#CFAE58" opacity="0.1152597841425504"/>
  <circle cx="618.1701529979564" cy="595.538494125723" r="5.802359344951348" fill="#CFAE58" opacity="0.21521877241461082"/>
  <circle cx="156.70667956373512" cy="626.0638449302944" r="4.278313306678718" fill="#CFAE58" opacity="0.18056715546364532"/>
  <circle cx="1011.4825931548477" cy="306.91364361296996" r="2.5191800785602654" fill="#CFAE58" opacity="0.21050579331907893"/>
  <circle cx="1130.7388000128108" cy="291.8262094916702" r="2.0980923211562477" fill="#CFAE58" opacity="0.18254326554396494"/>
  <circle cx="1040.659522599582" cy="442.22192820921424" r="5.951657089087596" fill="#CFAE58" opacity="0.21994644728574334"/>
  <circle cx="1016.9171202776162" cy="207.17816693001535" r="2.4875600708953707" fill="#CFAE58" opacity="0.12650060771017047"/>
  <circle cx="484.51757430604755" cy="477.0388965499067" r="4.885126170007792" fill="#CFAE58" opacity="0.10826030015442355"/>
  <circle cx="1169.6684803221763" cy="533.0285019560044" r="3.158380708169905" fill="#CFAE58" opacity="0.20884064739668728"/>
  <circle cx="467.11171582530653" cy="548.3389784815724" r="2.7487433303367226" fill="#CFAE58" opacity="0.1763391277368584"/>
  <circle cx="899.8111827348771" cy="310.23638445661857" r="4.184687752657136" fill="#CFAE58" opacity="0.14072932044010608"/>
  <circle cx="56.594432661244824" cy="144.6036939383199" r="2.5420198820126005" fill="#CFAE58" opacity="0.20205411396693573"/>

  <!-- Border with glow -->
  <rect x="40" y="40" width="1120" height="550" fill="none" stroke="url(#goldGradient)" stroke-width="3" rx="12" filter="url(#softGlow)"/>

  <!-- Icon circle with premium background -->
  <circle cx="150" cy="200" r="75" fill="#CFAE58" opacity="0.15" filter="url(#softGlow)"/>
  <circle cx="150" cy="200" r="70" fill="#CFAE58" opacity="0.25"/>
  <text x="150" y="235" font-size="90" text-anchor="middle" fill="#CFAE58" filter="url(#glow)">🫙</text>

  <!-- Premium logo (crown) with enhanced styling -->
  <g transform="translate(100, 70)">
    <path d="M 30 20 L 40 35 L 35 35 Z M 50 15 L 60 35 L 45 35 Z M 65 20 L 75 35 L 70 35 Z M 30 35 L 75 35 L 73 45 L 32 45 Z"
          fill="url(#goldGradient)" filter="url(#glow)" stroke="#B89842" stroke-width="0.5"/>
    <circle cx="40" cy="25" r="3" fill="#4FD1C5" filter="url(#glow)"/>
    <circle cx="52" cy="20" r="4" fill="#4FD1C5" filter="url(#glow)"/>
    <circle cx="65" cy="25" r="3" fill="#4FD1C5" filter="url(#glow)"/>
  </g>

  <!-- Title with shadow -->
  <text x="280" y="180" font-family="Georgia, serif" font-size="72" font-weight="bold"
        fill="url(#goldGradient)" filter="url(#shadow)">Premium Caviar</text>

  <!-- Subtitle with subtle glow -->
  <text x="280" y="230" font-family="Arial, sans-serif" font-size="36"
        fill="#D6DEE6" opacity="0.95" filter="url(#softGlow)">Excellence in Every Jar</text>

  <!-- Brand name with letter spacing -->
  <text x="280" y="300" font-family="Georgia, serif" font-size="32" font-weight="bold"
        fill="#CFAE58" letter-spacing="4" filter="url(#glow)">ROYAL KETA</text>

  <!-- Russian tagline -->
  <text x="280" y="340" font-family="Arial, sans-serif" font-size="22" font-style="italic"
        fill="#8B95A1" opacity="0.8">От икринки к королевской</text>

  <!-- Location -->
  <text x="280" y="380" font-family="Arial, sans-serif" font-size="20"
        fill="#8B95A1" opacity="0.7">Невельский район, Сахалин</text>

  <!-- Website with glow -->
  <text x="100" y="570" font-family="Arial, sans-serif" font-size="30" font-weight="bold"
        fill="#4FD1C5" filter="url(#glow)">royalketa.com</text>

  <!-- Enhanced decorative salmon silhouette -->
  <g transform="translate(950, 480)" opacity="0.2" filter="url(#softGlow)">
    <ellipse cx="0" cy="0" rx="90" ry="35" fill="#CFAE58"/>
    <path d="M 90 0 L 120 -18 L 130 0 L 120 18 Z" fill="#CFAE58"/>
    <path d="M -25 -35 L 0 -45 L 25 -35 Z" fill="#CFAE58"/>
    <ellipse cx="-50" cy="0" rx="15" ry="12" fill="#0B0F14"/>
  </g>

  <!-- Additional decorative caviar clusters -->
  <g opacity="0.2">
    <circle cx="1050" cy="120" r="6" fill="#CFAE58"/>
    <circle cx="1065" cy="115" r="5" fill="#CFAE58"/>
    <circle cx="1058" cy="130" r="4" fill="#CFAE58"/>
    <circle cx="150" cy="500" r="5" fill="#4FD1C5"/>
    <circle cx="165" cy="508" r="4" fill="#4FD1C5"/>
    <circle cx="140" cy="512" r="5" fill="#4FD1C5"/>
  </g>
</svg>