<svg width="1200" height="630" xmlns="http://www.w3.org/2000/svg">
  <defs>
    <linearGradient id="bgGradient" x1="0%" y1="0%" x2="100%" y2="100%">
      <stop offset="0%" style="stop-color:#0B0F14;stop-opacity:1" />
      <stop offset="50%" style="stop-color:#0F1619;stop-opacity:1" />
      <stop offset="100%" style="stop-color:#0F1922;stop-opacity:1" />
    </linearGradient>
    <linearGradient id="goldGradient" x1="0%" y1="0%" x2="100%" y2="0%">
      <stop offset="0%" style="stop-color:#E5D596;stop-opacity:1" />
      <stop offset="50%" style="stop-color:#CFAE58;stop-opacity:1" />
      <stop offset="100%" style="stop-color:#B89842;stop-opacity:1" />
    </linearGradient>
    <radialGradient id="oceanGradient" cx="50%" cy="50%" r="50%">
      <stop offset="0%" style="stop-color:#4FD1C5;stop-opacity:0.3" />
      <stop offset="100%" style="stop-color:#1E90A0;stop-opacity:0.05" />
    </radialGradient>
    <filter id="glow">
      <feGaussianBlur stdDeviation="5" result="coloredBlur"/>
      <feMerge>
        <feMergeNode in="coloredBlur"/>
        <feMergeNode in="SourceGraphic"/>
      </feMerge>
    </filter>
    <filter id="softGlow">
      <feGaussianBlur stdDeviation="8" result="coloredBlur"/>
      <feMerge>
        <feMergeNode in="coloredBlur"/>
        <feMergeNode in="SourceGraphic"/>
      </feMerge>
    </filter>
    <filter id="shadow">
      <feDropShadow dx="0" dy="4" stdDeviation="8" flood-color="#000000" flood-opacity="0.5"/>
    </filter>
  </defs>

  <!-- Background -->
  <rect width="1200" height="630" fill="url(#bgGradient)"/>

  <!-- Decorative ocean gradients -->
  <ellipse cx="1000" cy="150" rx="300" ry="200" fill="url(#oceanGradient)" opacity="0.4"/>
  <ellipse cx="200" cy="530" rx="250" ry="180" fill="url(#oceanGradient)" opacity="0.3"/>

  <!-- Wave patterns -->
  <path d="M 0 400 Q 300 350 600 400 T 1200 400 L 1200 630 L 0 630 Z" fill="#1E90A0" opacity="0.08"/>
  <path d="M 0 450 Q 250 420 500 450 T 1000 450 T 1200 450 L 1200 630 L 0 630 Z" fill="#4FD1C5" opacity="0.05"/>

  <!-- Caviar roe particles -->
  <circle cx="1096.603776326284" cy="110.47960515992892" r="3.2431762414475673" fill="#CFAE58" opacity="0.1111113269935754"/>
  <circle cx="1097.3966670113114" cy="54.613461233981646" r="3.0399740909034523" fill="#CFAE58" opacity="0.21320836396478432"/>
  <circle cx="1194.777415700991" cy="417.9676126416268" r="3.614891619302853" fill="#CFAE58" opacity="0.10259288774447362"/>
  <circle cx="1077.1792212388225" cy="69.44788385446788" r="4.150150031611614" fill="#CFAE58" opacity="0.14632843472348933"/>
  <circle cx="887.9634595795802" cy="317.11685444379003" r="3.3780257208499087" fill="#CFAE58" opacity="0.14557592718492393"/>
  <circle cx="274.36526088704323" cy="162.1666198346799" r="5.160283418716828" fill="#CFAE58" opacity="0.1422072904896219"/>
  <circle cx="490.33799875809524" cy="484.6364204512194" r="4.836720514984416" fill="#CFAE58" opacity="0.1537209659910197"/>
  <circle cx="1035.1096914762338" cy="177.2863949019527" r="5.797426417133502" fill="#CFAE58" opacity="0.16981936331165115"/>
  <circle cx="994.923064326184" cy="350.7977620274969" r="4.577420708255211" fill="#CFAE58" opacity="0.14928027082206685"/>
  <circle cx="78.21591510721042" cy="483.42653118383794" r="2.995595893653424" fill="#CFAE58" opacity="0.23613378542289684"/>
  <circle cx="720.0620136191217" cy="310.23486721549153" r="4.469838368918023" fill="#CFAE58" opacity="0.1483135169227129"/>
  <circle cx="997.9830402012637" cy="189.9997104625542" r="2.1863320213702897" fill="#CFAE58" opacity="0.12063989158819029"/>
  <circle cx="808.4584977547864" cy="364.74319429370087" r="4.243900641465141" fill="#CFAE58" opacity="0.20368752484482966"/>
  <circle cx="407.919131455345" cy="496.3022689928606" r="2.8297489503387605" fill="#CFAE58" opacity="0.11848286785470485"/>
  <circle cx="644.1687069788651" cy="167.11850694774495" r="4.28004043439367" fill="#CFAE58" opacity="0.21612166307163755"/>
  <circle cx="1177.6590837028102" cy="234.90735794470788" r="2.3468197332526524" fill="#CFAE58" opacity="0.14520502121022827"/>
  <circle cx="509.8939730735247" cy="56.48794955693767" r="4.392718261234076" fill="#CFAE58" opacity="0.20753544962376588"/>
  <circle cx="360.2057053633875" cy="617.279098485652" r="3.744971203861391" fill="#CFAE58" opacity="0.23567338196753546"/>
  <circle cx="880.6373409922721" cy="281.10917618338055" r="2.4295438874484443" fill="#CFAE58" opacity="0.22235044344788638"/>
  <circle cx="52.21506389029899" cy="596.7226066997702" r="2.0239362582923004" fill="#CFAE58" opacity="0.23972503153040106"/>
  <circle cx="661.3335208513103" cy="24.667760058921377" r="3.282282749213499" fill="#CFAE58" opacity="0.16631454517361832"/>
  <circle cx="629.8143834151903" cy="438.31095347688444" r="2.607682262804869" fill="#CFAE58" opacity="0.17087077359081954"/>
  <circle cx="895.5188302529122" cy="599.0911835652241" r="5.889644482320347" fill="#CFAE58" opacity="0.16816556154225795"/>
  <circle cx="776.1386147681735" cy="610.4283193160688" r="2.9086052919242387" fill="#CFAE58" opacity="0.18129629403668918"/>
  <circle cx="493.5577656091439" cy="504.30512260227005" r="4.94420867002848" fill="#CFAE58" opacity="0.13862789022466057"/>
  <circle cx="783.5737258155251" cy="441.67950165207014" r="5.677690027392597" fill="#CFAE58" opacity="0.14610831895320542"/>
  <circle cx="94.45147911970078" cy="113.56064405242016" r="2.8087725821063874" fill="#CFAE58" opacity="0.17314744078502153"/>
  <circle cx="1146.475372185195" cy="300.04421290885745" r="2.408864779997688" fill="#CFAE58" opacity="0.1275798195628678"/>
  <circle cx="231.20928056913917" cy="483.5268183994269" r="5.041351421837801" fill="#CFAE58" opacity="0.16340249331544746"/>
  <circle cx="516.6566494826191" cy="260.79587050475055" r="5.689729176270403" fill="#CFAE58" opacity="0.17488092738813577"/>

  <!-- Border with glow -->
  <rect x="40" y="40" width="1120" height="550" fill="none" stroke="url(#goldGradient)" stroke-width="3" rx="12" filter="url(#softGlow)"/>

  <!-- Icon circle with premium background -->
  <circle cx="150" cy="200" r="75" fill="#CFAE58" opacity="0.15" filter="url(#softGlow)"/>
  <circle cx="150" cy="200" r="70" fill="#CFAE58" opacity="0.25"/>
  <text x="150" y="235" font-size="90" text-anchor="middle" fill="#CFAE58" filter="url(#glow)">🫙</text>

  <!-- Premium logo (crown) with enhanced styling -->
  <g transform="translate(100, 70)">
    <path d="M 30 20 L 40 35 L 35 35 Z M 50 15 L 60 35 L 45 35 Z M 65 20 L 75 35 L 70 35 Z M 30 35 L 75 35 L 73 45 L 32 45 Z"
          fill="url(#goldGradient)" filter="url(#glow)" stroke="#B89842" stroke-width="0.5"/>
    <circle cx="40" cy="25" r="3" fill="#4FD1C5" filter="url(#glow)"/>
    <circle cx="52" cy="20" r="4" fill="#4FD1C5" filter="url(#glow)"/>
    <circle cx="65" cy="25" r="3" fill="#4FD1C5" filter="url(#glow)"/>
  </g>

  <!-- Title with shadow -->
  <text x="280" y="180" font-family="Georgia, serif" font-size="72" font-weight="bold"
        fill="url(#goldGradient)" filter="url(#shadow)">Premium Caviar</text>

  <!-- Subtitle with subtle glow -->
  <text x="280" y="230" font-family="Arial, sans-serif" font-size="36"
        fill="#D6DEE6" opacity="0.95" filter="url(#softGlow)">Excellence in Every Jar</text>

  <!-- Brand name with letter spacing -->
  <text x="280" y="300" font-family="Georgia, serif" font-size="32" font-weight="bold"
        fill="#CFAE58" letter-spacing="4" filter="url(#glow)">ROYAL KETA</text>

  <!-- Russian tagline -->
  <text x="280" y="340" font-family="Arial, sans-serif" font-size="22" font-style="italic"
        fill="#8B95A1" opacity="0.8">От икринки к королевской</text>

  <!-- Location -->
  <text x="280" y="380" font-family="Arial, sans-serif" font-size="20"
        fill="#8B95A1" opacity="0.7">Невельский район, Сахалин</text>

  <!-- Website with glow -->
  <text x="100" y="570" font-family="Arial, sans-serif" font-size="30" font-weight="bold"
        fill="#4FD1C5" filter="url(#glow)">royalketa.com</text>

  <!-- Enhanced decorative salmon silhouette -->
  <g transform="translate(950, 480)" opacity="0.2" filter="url(#softGlow)">
    <ellipse cx="0" cy="0" rx="90" ry="35" fill="#CFAE58"/>
    <path d="M 90 0 L 120 -18 L 130 0 L 120 18 Z" fill="#CFAE58"/>
    <path d="M -25 -35 L 0 -45 L 25 -35 Z" fill="#CFAE58"/>
    <ellipse cx="-50" cy="0" rx="15" ry="12" fill="#0B0F14"/>
  </g>

  <!-- Additional decorative caviar clusters -->
  <g opacity="0.2">
    <circle cx="1050" cy="120" r="6" fill="#CFAE58"/>
    <circle cx="1065" cy="115" r="5" fill="#CFAE58"/>
    <circle cx="1058" cy="130" r="4" fill="#CFAE58"/>
    <circle cx="150" cy="500" r="5" fill="#4FD1C5"/>
    <circle cx="165" cy="508" r="4" fill="#4FD1C5"/>
    <circle cx="140" cy="512" r="5" fill="#4FD1C5"/>
  </g>
</svg>