<svg width="1200" height="630" xmlns="http://www.w3.org/2000/svg">
  <defs>
    <linearGradient id="bgGradient" x1="0%" y1="0%" x2="100%" y2="100%">
      <stop offset="0%" style="stop-color:#0B0F14;stop-opacity:1" />
      <stop offset="50%" style="stop-color:#0F1619;stop-opacity:1" />
      <stop offset="100%" style="stop-color:#0F1922;stop-opacity:1" />
    </linearGradient>
    <linearGradient id="goldGradient" x1="0%" y1="0%" x2="100%" y2="0%">
      <stop offset="0%" style="stop-color:#E5D596;stop-opacity:1" />
      <stop offset="50%" style="stop-color:#CFAE58;stop-opacity:1" />
      <stop offset="100%" style="stop-color:#B89842;stop-opacity:1" />
    </linearGradient>
    <radialGradient id="oceanGradient" cx="50%" cy="50%" r="50%">
      <stop offset="0%" style="stop-color:#4FD1C5;stop-opacity:0.3" />
      <stop offset="100%" style="stop-color:#1E90A0;stop-opacity:0.05" />
    </radialGradient>
    <filter id="glow">
      <feGaussianBlur stdDeviation="5" result="coloredBlur"/>
      <feMerge>
        <feMergeNode in="coloredBlur"/>
        <feMergeNode in="SourceGraphic"/>
      </feMerge>
    </filter>
    <filter id="softGlow">
      <feGaussianBlur stdDeviation="8" result="coloredBlur"/>
      <feMerge>
        <feMergeNode in="coloredBlur"/>
        <feMergeNode in="SourceGraphic"/>
      </feMerge>
    </filter>
    <filter id="shadow">
      <feDropShadow dx="0" dy="4" stdDeviation="8" flood-color="#000000" flood-opacity="0.5"/>
    </filter>
  </defs>

  <!-- Background -->
  <rect width="1200" height="630" fill="url(#bgGradient)"/>

  <!-- Decorative ocean gradients -->
  <ellipse cx="1000" cy="150" rx="300" ry="200" fill="url(#oceanGradient)" opacity="0.4"/>
  <ellipse cx="200" cy="530" rx="250" ry="180" fill="url(#oceanGradient)" opacity="0.3"/>

  <!-- Wave patterns -->
  <path d="M 0 400 Q 300 350 600 400 T 1200 400 L 1200 630 L 0 630 Z" fill="#1E90A0" opacity="0.08"/>
  <path d="M 0 450 Q 250 420 500 450 T 1000 450 T 1200 450 L 1200 630 L 0 630 Z" fill="#4FD1C5" opacity="0.05"/>

  <!-- Caviar roe particles -->
  <circle cx="285.342087989117" cy="291.7101227214408" r="3.4256100979050212" fill="#CFAE58" opacity="0.12066845998260839"/>
  <circle cx="21.05276362633166" cy="564.411957069832" r="2.740325835110533" fill="#CFAE58" opacity="0.11804268059424954"/>
  <circle cx="809.6070690708744" cy="312.1685699955284" r="5.302615167924373" fill="#CFAE58" opacity="0.1924373481611792"/>
  <circle cx="121.77076455141935" cy="512.3942788669802" r="4.451062837747273" fill="#CFAE58" opacity="0.1276080916609053"/>
  <circle cx="361.72542511613244" cy="33.165536394611344" r="3.794966315280005" fill="#CFAE58" opacity="0.2386452181512748"/>
  <circle cx="645.8974017065123" cy="191.94810510630546" r="3.8528622139769784" fill="#CFAE58" opacity="0.1320108065704238"/>
  <circle cx="695.4730737741849" cy="446.0946817840707" r="3.1777617530557625" fill="#CFAE58" opacity="0.22252885433059857"/>
  <circle cx="343.9475762371456" cy="205.22187946051145" r="5.96788831047692" fill="#CFAE58" opacity="0.24698967330293248"/>
  <circle cx="559.2599543091595" cy="197.5200397816151" r="3.7956034353059174" fill="#CFAE58" opacity="0.1177455885018476"/>
  <circle cx="262.7121921605991" cy="191.53536495729247" r="3.130085582935549" fill="#CFAE58" opacity="0.14558695463644497"/>
  <circle cx="19.65780352470179" cy="480.5290295424884" r="3.2144477568457868" fill="#CFAE58" opacity="0.2019638203778369"/>
  <circle cx="61.138906358168164" cy="239.15236804093163" r="5.2985848174076065" fill="#CFAE58" opacity="0.24239894607200937"/>
  <circle cx="714.0942649713344" cy="99.5853013110979" r="4.344053339481196" fill="#CFAE58" opacity="0.2033068368842675"/>
  <circle cx="767.7524359011526" cy="273.7468143639422" r="4.522947038542363" fill="#CFAE58" opacity="0.1607024788266342"/>
  <circle cx="1192.717154665717" cy="105.79107531730133" r="3.9331344053399566" fill="#CFAE58" opacity="0.15390800330325258"/>
  <circle cx="726.4264210598408" cy="108.47553230860221" r="3.1845822282834364" fill="#CFAE58" opacity="0.19235106667137689"/>
  <circle cx="93.09493614271544" cy="342.8579822147741" r="2.5451162949805894" fill="#CFAE58" opacity="0.18045119873690033"/>
  <circle cx="989.7376257214391" cy="362.2337169054151" r="3.195375942773959" fill="#CFAE58" opacity="0.24780438197349924"/>
  <circle cx="864.4835520602845" cy="553.7949498182631" r="5.39544177086051" fill="#CFAE58" opacity="0.20328948255671758"/>
  <circle cx="241.8261557582927" cy="485.9536163652726" r="3.3575223088315687" fill="#CFAE58" opacity="0.2199326045268748"/>
  <circle cx="368.38800879851806" cy="120.28558255854702" r="5.689000402450315" fill="#CFAE58" opacity="0.1857834155640517"/>
  <circle cx="997.670555113154" cy="497.4675018734302" r="3.034039193523362" fill="#CFAE58" opacity="0.24063453916804456"/>
  <circle cx="348.6100721532232" cy="218.70554630322653" r="3.596632697962371" fill="#CFAE58" opacity="0.21640636867545748"/>
  <circle cx="994.5867713492091" cy="102.18367281218491" r="2.3511376005005666" fill="#CFAE58" opacity="0.10303807073469021"/>
  <circle cx="454.5314958110872" cy="163.88764936872818" r="5.996106560685012" fill="#CFAE58" opacity="0.1936304295373224"/>
  <circle cx="807.0235916223533" cy="416.25927220256693" r="2.608249731144618" fill="#CFAE58" opacity="0.17795545533966417"/>
  <circle cx="207.7734319733788" cy="614.0905974966723" r="3.25059295786134" fill="#CFAE58" opacity="0.11742596693149147"/>
  <circle cx="803.8332798229201" cy="128.02233598339478" r="5.526057002740046" fill="#CFAE58" opacity="0.21201177387419368"/>
  <circle cx="265.1622388884465" cy="202.07789370798164" r="4.063094583382505" fill="#CFAE58" opacity="0.21701632265226836"/>
  <circle cx="431.9918808967785" cy="81.68841473948926" r="4.821711915661478" fill="#CFAE58" opacity="0.12508315588910157"/>

  <!-- Border with glow -->
  <rect x="40" y="40" width="1120" height="550" fill="none" stroke="url(#goldGradient)" stroke-width="3" rx="12" filter="url(#softGlow)"/>

  <!-- Icon circle with premium background -->
  <circle cx="150" cy="200" r="75" fill="#CFAE58" opacity="0.15" filter="url(#softGlow)"/>
  <circle cx="150" cy="200" r="70" fill="#CFAE58" opacity="0.25"/>
  <text x="150" y="235" font-size="90" text-anchor="middle" fill="#CFAE58" filter="url(#glow)">🫙</text>

  <!-- Premium logo (crown) with enhanced styling -->
  <g transform="translate(100, 70)">
    <path d="M 30 20 L 40 35 L 35 35 Z M 50 15 L 60 35 L 45 35 Z M 65 20 L 75 35 L 70 35 Z M 30 35 L 75 35 L 73 45 L 32 45 Z"
          fill="url(#goldGradient)" filter="url(#glow)" stroke="#B89842" stroke-width="0.5"/>
    <circle cx="40" cy="25" r="3" fill="#4FD1C5" filter="url(#glow)"/>
    <circle cx="52" cy="20" r="4" fill="#4FD1C5" filter="url(#glow)"/>
    <circle cx="65" cy="25" r="3" fill="#4FD1C5" filter="url(#glow)"/>
  </g>

  <!-- Title with shadow -->
  <text x="280" y="180" font-family="Georgia, serif" font-size="72" font-weight="bold"
        fill="url(#goldGradient)" filter="url(#shadow)">Premium Caviar</text>

  <!-- Subtitle with subtle glow -->
  <text x="280" y="230" font-family="Arial, sans-serif" font-size="36"
        fill="#D6DEE6" opacity="0.95" filter="url(#softGlow)">Excellence in Every Jar</text>

  <!-- Brand name with letter spacing -->
  <text x="280" y="300" font-family="Georgia, serif" font-size="32" font-weight="bold"
        fill="#CFAE58" letter-spacing="4" filter="url(#glow)">ROYAL KETA</text>

  <!-- Russian tagline -->
  <text x="280" y="340" font-family="Arial, sans-serif" font-size="22" font-style="italic"
        fill="#8B95A1" opacity="0.8">От икринки к королевской</text>

  <!-- Location -->
  <text x="280" y="380" font-family="Arial, sans-serif" font-size="20"
        fill="#8B95A1" opacity="0.7">Невельский район, Сахалин</text>

  <!-- Website with glow -->
  <text x="100" y="570" font-family="Arial, sans-serif" font-size="30" font-weight="bold"
        fill="#4FD1C5" filter="url(#glow)">royalketa.com</text>

  <!-- Enhanced decorative salmon silhouette -->
  <g transform="translate(950, 480)" opacity="0.2" filter="url(#softGlow)">
    <ellipse cx="0" cy="0" rx="90" ry="35" fill="#CFAE58"/>
    <path d="M 90 0 L 120 -18 L 130 0 L 120 18 Z" fill="#CFAE58"/>
    <path d="M -25 -35 L 0 -45 L 25 -35 Z" fill="#CFAE58"/>
    <ellipse cx="-50" cy="0" rx="15" ry="12" fill="#0B0F14"/>
  </g>

  <!-- Additional decorative caviar clusters -->
  <g opacity="0.2">
    <circle cx="1050" cy="120" r="6" fill="#CFAE58"/>
    <circle cx="1065" cy="115" r="5" fill="#CFAE58"/>
    <circle cx="1058" cy="130" r="4" fill="#CFAE58"/>
    <circle cx="150" cy="500" r="5" fill="#4FD1C5"/>
    <circle cx="165" cy="508" r="4" fill="#4FD1C5"/>
    <circle cx="140" cy="512" r="5" fill="#4FD1C5"/>
  </g>
</svg>