<svg width="1200" height="630" xmlns="http://www.w3.org/2000/svg">
  <defs>
    <linearGradient id="bgGradient" x1="0%" y1="0%" x2="100%" y2="100%">
      <stop offset="0%" style="stop-color:#0B0F14;stop-opacity:1" />
      <stop offset="50%" style="stop-color:#0F1619;stop-opacity:1" />
      <stop offset="100%" style="stop-color:#0F1922;stop-opacity:1" />
    </linearGradient>
    <linearGradient id="goldGradient" x1="0%" y1="0%" x2="100%" y2="0%">
      <stop offset="0%" style="stop-color:#E5D596;stop-opacity:1" />
      <stop offset="50%" style="stop-color:#CFAE58;stop-opacity:1" />
      <stop offset="100%" style="stop-color:#B89842;stop-opacity:1" />
    </linearGradient>
    <radialGradient id="oceanGradient" cx="50%" cy="50%" r="50%">
      <stop offset="0%" style="stop-color:#4FD1C5;stop-opacity:0.3" />
      <stop offset="100%" style="stop-color:#1E90A0;stop-opacity:0.05" />
    </radialGradient>
    <filter id="glow">
      <feGaussianBlur stdDeviation="5" result="coloredBlur"/>
      <feMerge>
        <feMergeNode in="coloredBlur"/>
        <feMergeNode in="SourceGraphic"/>
      </feMerge>
    </filter>
    <filter id="softGlow">
      <feGaussianBlur stdDeviation="8" result="coloredBlur"/>
      <feMerge>
        <feMergeNode in="coloredBlur"/>
        <feMergeNode in="SourceGraphic"/>
      </feMerge>
    </filter>
    <filter id="shadow">
      <feDropShadow dx="0" dy="4" stdDeviation="8" flood-color="#000000" flood-opacity="0.5"/>
    </filter>
  </defs>

  <!-- Background -->
  <rect width="1200" height="630" fill="url(#bgGradient)"/>

  <!-- Decorative ocean gradients -->
  <ellipse cx="1000" cy="150" rx="300" ry="200" fill="url(#oceanGradient)" opacity="0.4"/>
  <ellipse cx="200" cy="530" rx="250" ry="180" fill="url(#oceanGradient)" opacity="0.3"/>

  <!-- Wave patterns -->
  <path d="M 0 400 Q 300 350 600 400 T 1200 400 L 1200 630 L 0 630 Z" fill="#1E90A0" opacity="0.08"/>
  <path d="M 0 450 Q 250 420 500 450 T 1000 450 T 1200 450 L 1200 630 L 0 630 Z" fill="#4FD1C5" opacity="0.05"/>

  <!-- Caviar roe particles -->
  <circle cx="754.968838696326" cy="361.69841771448336" r="4.813962235824078" fill="#CFAE58" opacity="0.23313737701428702"/>
  <circle cx="217.52593141991818" cy="427.72107454094674" r="2.371208467372835" fill="#CFAE58" opacity="0.1604957377443334"/>
  <circle cx="705.0790644721748" cy="542.793619946238" r="3.2579837338421074" fill="#CFAE58" opacity="0.13121248586126094"/>
  <circle cx="393.05623217093523" cy="160.47006459382558" r="4.892293296679499" fill="#CFAE58" opacity="0.11165555574436568"/>
  <circle cx="591.1946055722436" cy="171.09577532281386" r="2.4411583685048415" fill="#CFAE58" opacity="0.19548011389373612"/>
  <circle cx="743.7930288141958" cy="447.8308843083223" r="3.23177642655867" fill="#CFAE58" opacity="0.24235620567434668"/>
  <circle cx="420.3712191757669" cy="586.8453496169109" r="5.884529261438468" fill="#CFAE58" opacity="0.14432347472604912"/>
  <circle cx="573.0328252680426" cy="465.8859713777716" r="2.519974183697764" fill="#CFAE58" opacity="0.21767940517987275"/>
  <circle cx="290.4025310927482" cy="54.66993436914547" r="2.0637513097627735" fill="#CFAE58" opacity="0.21081815988365216"/>
  <circle cx="1149.6519039204868" cy="457.93354114292197" r="5.757012723276816" fill="#CFAE58" opacity="0.2054415161888113"/>
  <circle cx="912.5209099665628" cy="278.2103062628536" r="3.807817340043621" fill="#CFAE58" opacity="0.24855477208379484"/>
  <circle cx="723.084794995186" cy="476.68720241548175" r="4.886784976702796" fill="#CFAE58" opacity="0.18297143501054047"/>
  <circle cx="386.28822371475513" cy="598.8454365583164" r="3.7413572339386194" fill="#CFAE58" opacity="0.12780665219667142"/>
  <circle cx="562.9399136378183" cy="403.84255875753644" r="2.283025171815897" fill="#CFAE58" opacity="0.16337719891524158"/>
  <circle cx="25.28564668068478" cy="216.8844761403955" r="4.295622258787481" fill="#CFAE58" opacity="0.18489265475589894"/>
  <circle cx="22.377351751379138" cy="154.81388215174917" r="5.207578643038791" fill="#CFAE58" opacity="0.1051472660672772"/>
  <circle cx="707.1263302236883" cy="138.02486164022943" r="3.5974830555637443" fill="#CFAE58" opacity="0.10217994509098327"/>
  <circle cx="397.2486294218203" cy="226.62487473994452" r="3.6771079972101273" fill="#CFAE58" opacity="0.2189362464761138"/>
  <circle cx="875.5066548118399" cy="371.2165079473918" r="5.89290610925623" fill="#CFAE58" opacity="0.1680354316674491"/>
  <circle cx="300.7700158680663" cy="303.24868614135374" r="5.046357620303905" fill="#CFAE58" opacity="0.15515129397292474"/>
  <circle cx="877.5866254461738" cy="597.7694462055005" r="3.2373638281134935" fill="#CFAE58" opacity="0.22038414669019085"/>
  <circle cx="794.2616227316448" cy="289.2270020361601" r="3.5126784969499285" fill="#CFAE58" opacity="0.16000436752538966"/>
  <circle cx="774.6136462896351" cy="561.7732123330271" r="3.4739041911873114" fill="#CFAE58" opacity="0.16068304536229078"/>
  <circle cx="796.9743600620434" cy="580.1555125630849" r="4.664992293725798" fill="#CFAE58" opacity="0.14796433566935188"/>
  <circle cx="328.22624295046" cy="371.56157110012344" r="4.7947427670235605" fill="#CFAE58" opacity="0.14591093211096132"/>
  <circle cx="653.7662699818496" cy="616.5583642346419" r="2.2175018714794037" fill="#CFAE58" opacity="0.12410796049115391"/>
  <circle cx="380.7781878616289" cy="561.6117732901689" r="3.497058828840827" fill="#CFAE58" opacity="0.13804715241426166"/>
  <circle cx="354.8651691043946" cy="247.7187616221762" r="5.0036368056232225" fill="#CFAE58" opacity="0.15473576742023865"/>
  <circle cx="556.2407858573686" cy="349.1753719872184" r="4.568511663319033" fill="#CFAE58" opacity="0.19513649725323465"/>
  <circle cx="129.05518285028813" cy="127.35716102355306" r="3.77554957925752" fill="#CFAE58" opacity="0.13933044682418783"/>

  <!-- Border with glow -->
  <rect x="40" y="40" width="1120" height="550" fill="none" stroke="url(#goldGradient)" stroke-width="3" rx="12" filter="url(#softGlow)"/>

  <!-- Icon circle with premium background -->
  <circle cx="150" cy="200" r="75" fill="#CFAE58" opacity="0.15" filter="url(#softGlow)"/>
  <circle cx="150" cy="200" r="70" fill="#CFAE58" opacity="0.25"/>
  <text x="150" y="235" font-size="90" text-anchor="middle" fill="#CFAE58" filter="url(#glow)">🫙</text>

  <!-- Premium logo (crown) with enhanced styling -->
  <g transform="translate(100, 70)">
    <path d="M 30 20 L 40 35 L 35 35 Z M 50 15 L 60 35 L 45 35 Z M 65 20 L 75 35 L 70 35 Z M 30 35 L 75 35 L 73 45 L 32 45 Z"
          fill="url(#goldGradient)" filter="url(#glow)" stroke="#B89842" stroke-width="0.5"/>
    <circle cx="40" cy="25" r="3" fill="#4FD1C5" filter="url(#glow)"/>
    <circle cx="52" cy="20" r="4" fill="#4FD1C5" filter="url(#glow)"/>
    <circle cx="65" cy="25" r="3" fill="#4FD1C5" filter="url(#glow)"/>
  </g>

  <!-- Title with shadow -->
  <text x="280" y="180" font-family="Georgia, serif" font-size="72" font-weight="bold"
        fill="url(#goldGradient)" filter="url(#shadow)">Premium Caviar</text>

  <!-- Subtitle with subtle glow -->
  <text x="280" y="230" font-family="Arial, sans-serif" font-size="36"
        fill="#D6DEE6" opacity="0.95" filter="url(#softGlow)">Excellence in Every Jar</text>

  <!-- Brand name with letter spacing -->
  <text x="280" y="300" font-family="Georgia, serif" font-size="32" font-weight="bold"
        fill="#CFAE58" letter-spacing="4" filter="url(#glow)">ROYAL KETA</text>

  <!-- Russian tagline -->
  <text x="280" y="340" font-family="Arial, sans-serif" font-size="22" font-style="italic"
        fill="#8B95A1" opacity="0.8">От икринки к королевской</text>

  <!-- Location -->
  <text x="280" y="380" font-family="Arial, sans-serif" font-size="20"
        fill="#8B95A1" opacity="0.7">Невельский район, Сахалин</text>

  <!-- Website with glow -->
  <text x="100" y="570" font-family="Arial, sans-serif" font-size="30" font-weight="bold"
        fill="#4FD1C5" filter="url(#glow)">royalketa.com</text>

  <!-- Enhanced decorative salmon silhouette -->
  <g transform="translate(950, 480)" opacity="0.2" filter="url(#softGlow)">
    <ellipse cx="0" cy="0" rx="90" ry="35" fill="#CFAE58"/>
    <path d="M 90 0 L 120 -18 L 130 0 L 120 18 Z" fill="#CFAE58"/>
    <path d="M -25 -35 L 0 -45 L 25 -35 Z" fill="#CFAE58"/>
    <ellipse cx="-50" cy="0" rx="15" ry="12" fill="#0B0F14"/>
  </g>

  <!-- Additional decorative caviar clusters -->
  <g opacity="0.2">
    <circle cx="1050" cy="120" r="6" fill="#CFAE58"/>
    <circle cx="1065" cy="115" r="5" fill="#CFAE58"/>
    <circle cx="1058" cy="130" r="4" fill="#CFAE58"/>
    <circle cx="150" cy="500" r="5" fill="#4FD1C5"/>
    <circle cx="165" cy="508" r="4" fill="#4FD1C5"/>
    <circle cx="140" cy="512" r="5" fill="#4FD1C5"/>
  </g>
</svg>