<svg width="1200" height="630" xmlns="http://www.w3.org/2000/svg">
  <defs>
    <linearGradient id="bgGradient" x1="0%" y1="0%" x2="100%" y2="100%">
      <stop offset="0%" style="stop-color:#0B0F14;stop-opacity:1" />
      <stop offset="50%" style="stop-color:#0F1619;stop-opacity:1" />
      <stop offset="100%" style="stop-color:#0F1922;stop-opacity:1" />
    </linearGradient>
    <linearGradient id="goldGradient" x1="0%" y1="0%" x2="100%" y2="0%">
      <stop offset="0%" style="stop-color:#E5D596;stop-opacity:1" />
      <stop offset="50%" style="stop-color:#CFAE58;stop-opacity:1" />
      <stop offset="100%" style="stop-color:#B89842;stop-opacity:1" />
    </linearGradient>
    <radialGradient id="oceanGradient" cx="50%" cy="50%" r="50%">
      <stop offset="0%" style="stop-color:#4FD1C5;stop-opacity:0.3" />
      <stop offset="100%" style="stop-color:#1E90A0;stop-opacity:0.05" />
    </radialGradient>
    <filter id="glow">
      <feGaussianBlur stdDeviation="5" result="coloredBlur"/>
      <feMerge>
        <feMergeNode in="coloredBlur"/>
        <feMergeNode in="SourceGraphic"/>
      </feMerge>
    </filter>
    <filter id="softGlow">
      <feGaussianBlur stdDeviation="8" result="coloredBlur"/>
      <feMerge>
        <feMergeNode in="coloredBlur"/>
        <feMergeNode in="SourceGraphic"/>
      </feMerge>
    </filter>
    <filter id="shadow">
      <feDropShadow dx="0" dy="4" stdDeviation="8" flood-color="#000000" flood-opacity="0.5"/>
    </filter>
  </defs>

  <!-- Background -->
  <rect width="1200" height="630" fill="url(#bgGradient)"/>

  <!-- Decorative ocean gradients -->
  <ellipse cx="1000" cy="150" rx="300" ry="200" fill="url(#oceanGradient)" opacity="0.4"/>
  <ellipse cx="200" cy="530" rx="250" ry="180" fill="url(#oceanGradient)" opacity="0.3"/>

  <!-- Wave patterns -->
  <path d="M 0 400 Q 300 350 600 400 T 1200 400 L 1200 630 L 0 630 Z" fill="#1E90A0" opacity="0.08"/>
  <path d="M 0 450 Q 250 420 500 450 T 1000 450 T 1200 450 L 1200 630 L 0 630 Z" fill="#4FD1C5" opacity="0.05"/>

  <!-- Caviar roe particles -->
  <circle cx="142.28506696135082" cy="466.2575853382543" r="2.7049539353588035" fill="#CFAE58" opacity="0.13292580826817949"/>
  <circle cx="191.40990859440868" cy="356.55051291711555" r="2.332945193115907" fill="#CFAE58" opacity="0.1426999593234723"/>
  <circle cx="1016.1022454504609" cy="25.101562663353462" r="5.832808091737065" fill="#CFAE58" opacity="0.1546052092435073"/>
  <circle cx="281.2390674900371" cy="5.074661726587113" r="5.316429104079384" fill="#CFAE58" opacity="0.20303468957482124"/>
  <circle cx="402.7782699805632" cy="55.20346065282336" r="5.638591608709733" fill="#CFAE58" opacity="0.21742561246583367"/>
  <circle cx="64.14444582531216" cy="174.1940537136837" r="2.543056684829314" fill="#CFAE58" opacity="0.15289228993710496"/>
  <circle cx="823.7175138767401" cy="539.3960443843464" r="5.893626953751773" fill="#CFAE58" opacity="0.13129517599922363"/>
  <circle cx="650.1240172856421" cy="564.318199508073" r="4.694840318569972" fill="#CFAE58" opacity="0.13260560323758042"/>
  <circle cx="1025.481641906857" cy="349.61687621003773" r="3.928270428885819" fill="#CFAE58" opacity="0.1236581181945029"/>
  <circle cx="1005.5259020321276" cy="90.31064239368716" r="5.538513213912652" fill="#CFAE58" opacity="0.18291370202326895"/>
  <circle cx="288.51189453738283" cy="378.1554129696009" r="2.932582198717795" fill="#CFAE58" opacity="0.20433154814214544"/>
  <circle cx="847.3833904042431" cy="585.4603146054019" r="3.422027115029806" fill="#CFAE58" opacity="0.13533203378256106"/>
  <circle cx="686.3413750089703" cy="8.47935039615972" r="5.722609756791108" fill="#CFAE58" opacity="0.2024820971068803"/>
  <circle cx="1190.202532629177" cy="273.71435143756855" r="5.261469487875301" fill="#CFAE58" opacity="0.22035095898154314"/>
  <circle cx="552.5062188592278" cy="384.3272066130258" r="5.413761234948485" fill="#CFAE58" opacity="0.21976139318697832"/>
  <circle cx="111.63439851772195" cy="113.5266607250613" r="2.1666952136011863" fill="#CFAE58" opacity="0.17912473032498383"/>
  <circle cx="528.664968951547" cy="245.44739191947156" r="4.725888604298917" fill="#CFAE58" opacity="0.14482809016168574"/>
  <circle cx="702.4794767586284" cy="208.28113549376621" r="2.6844601234218013" fill="#CFAE58" opacity="0.2342984128537874"/>
  <circle cx="311.5932296132262" cy="181.32418011477225" r="3.3674089244218948" fill="#CFAE58" opacity="0.10552744431852717"/>
  <circle cx="834.9431885110523" cy="414.0448543444837" r="2.1436033604034286" fill="#CFAE58" opacity="0.2263981067610854"/>
  <circle cx="995.1245844908753" cy="530.654806198299" r="2.737479293430514" fill="#CFAE58" opacity="0.22232579274635483"/>
  <circle cx="574.9811440938128" cy="283.22987737623095" r="3.30318753952323" fill="#CFAE58" opacity="0.18214178692438002"/>
  <circle cx="849.5574776276172" cy="257.06259214102204" r="3.547782775528117" fill="#CFAE58" opacity="0.24198339533759733"/>
  <circle cx="849.2018426557391" cy="382.3167838735319" r="2.976437121738763" fill="#CFAE58" opacity="0.12088435039718637"/>
  <circle cx="616.312783196056" cy="164.52877357257083" r="5.549683158399957" fill="#CFAE58" opacity="0.20049707962642882"/>
  <circle cx="1159.9505066025583" cy="227.59804145736743" r="4.052588061101878" fill="#CFAE58" opacity="0.1092777040519958"/>
  <circle cx="223.2861953789916" cy="388.08579886182287" r="4.929301756269268" fill="#CFAE58" opacity="0.21694572353949"/>
  <circle cx="1006.7930695534308" cy="147.4131578367705" r="2.3819460670883483" fill="#CFAE58" opacity="0.19221164128626964"/>
  <circle cx="1004.7968853959035" cy="484.8174213778204" r="2.4410891819341662" fill="#CFAE58" opacity="0.15105507174277671"/>
  <circle cx="1071.0925605539992" cy="430.87337965973774" r="3.297210262036594" fill="#CFAE58" opacity="0.11528104362204827"/>

  <!-- Border with glow -->
  <rect x="40" y="40" width="1120" height="550" fill="none" stroke="url(#goldGradient)" stroke-width="3" rx="12" filter="url(#softGlow)"/>

  <!-- Icon circle with premium background -->
  <circle cx="150" cy="200" r="75" fill="#CFAE58" opacity="0.15" filter="url(#softGlow)"/>
  <circle cx="150" cy="200" r="70" fill="#CFAE58" opacity="0.25"/>
  <text x="150" y="235" font-size="90" text-anchor="middle" fill="#CFAE58" filter="url(#glow)">🫙</text>

  <!-- Premium logo (crown) with enhanced styling -->
  <g transform="translate(100, 70)">
    <path d="M 30 20 L 40 35 L 35 35 Z M 50 15 L 60 35 L 45 35 Z M 65 20 L 75 35 L 70 35 Z M 30 35 L 75 35 L 73 45 L 32 45 Z"
          fill="url(#goldGradient)" filter="url(#glow)" stroke="#B89842" stroke-width="0.5"/>
    <circle cx="40" cy="25" r="3" fill="#4FD1C5" filter="url(#glow)"/>
    <circle cx="52" cy="20" r="4" fill="#4FD1C5" filter="url(#glow)"/>
    <circle cx="65" cy="25" r="3" fill="#4FD1C5" filter="url(#glow)"/>
  </g>

  <!-- Title with shadow -->
  <text x="280" y="180" font-family="Georgia, serif" font-size="72" font-weight="bold"
        fill="url(#goldGradient)" filter="url(#shadow)">Premium Caviar</text>

  <!-- Subtitle with subtle glow -->
  <text x="280" y="230" font-family="Arial, sans-serif" font-size="36"
        fill="#D6DEE6" opacity="0.95" filter="url(#softGlow)">Excellence in Every Jar</text>

  <!-- Brand name with letter spacing -->
  <text x="280" y="300" font-family="Georgia, serif" font-size="32" font-weight="bold"
        fill="#CFAE58" letter-spacing="4" filter="url(#glow)">ROYAL KETA</text>

  <!-- Russian tagline -->
  <text x="280" y="340" font-family="Arial, sans-serif" font-size="22" font-style="italic"
        fill="#8B95A1" opacity="0.8">От икринки к королевской</text>

  <!-- Location -->
  <text x="280" y="380" font-family="Arial, sans-serif" font-size="20"
        fill="#8B95A1" opacity="0.7">Невельский район, Сахалин</text>

  <!-- Website with glow -->
  <text x="100" y="570" font-family="Arial, sans-serif" font-size="30" font-weight="bold"
        fill="#4FD1C5" filter="url(#glow)">royalketa.com</text>

  <!-- Enhanced decorative salmon silhouette -->
  <g transform="translate(950, 480)" opacity="0.2" filter="url(#softGlow)">
    <ellipse cx="0" cy="0" rx="90" ry="35" fill="#CFAE58"/>
    <path d="M 90 0 L 120 -18 L 130 0 L 120 18 Z" fill="#CFAE58"/>
    <path d="M -25 -35 L 0 -45 L 25 -35 Z" fill="#CFAE58"/>
    <ellipse cx="-50" cy="0" rx="15" ry="12" fill="#0B0F14"/>
  </g>

  <!-- Additional decorative caviar clusters -->
  <g opacity="0.2">
    <circle cx="1050" cy="120" r="6" fill="#CFAE58"/>
    <circle cx="1065" cy="115" r="5" fill="#CFAE58"/>
    <circle cx="1058" cy="130" r="4" fill="#CFAE58"/>
    <circle cx="150" cy="500" r="5" fill="#4FD1C5"/>
    <circle cx="165" cy="508" r="4" fill="#4FD1C5"/>
    <circle cx="140" cy="512" r="5" fill="#4FD1C5"/>
  </g>
</svg>