<svg width="1200" height="630" xmlns="http://www.w3.org/2000/svg">
  <defs>
    <linearGradient id="bgGradient" x1="0%" y1="0%" x2="100%" y2="100%">
      <stop offset="0%" style="stop-color:#0B0F14;stop-opacity:1" />
      <stop offset="50%" style="stop-color:#0F1619;stop-opacity:1" />
      <stop offset="100%" style="stop-color:#0F1922;stop-opacity:1" />
    </linearGradient>
    <linearGradient id="goldGradient" x1="0%" y1="0%" x2="100%" y2="0%">
      <stop offset="0%" style="stop-color:#E5D596;stop-opacity:1" />
      <stop offset="50%" style="stop-color:#CFAE58;stop-opacity:1" />
      <stop offset="100%" style="stop-color:#B89842;stop-opacity:1" />
    </linearGradient>
    <radialGradient id="oceanGradient" cx="50%" cy="50%" r="50%">
      <stop offset="0%" style="stop-color:#4FD1C5;stop-opacity:0.3" />
      <stop offset="100%" style="stop-color:#1E90A0;stop-opacity:0.05" />
    </radialGradient>
    <filter id="glow">
      <feGaussianBlur stdDeviation="5" result="coloredBlur"/>
      <feMerge>
        <feMergeNode in="coloredBlur"/>
        <feMergeNode in="SourceGraphic"/>
      </feMerge>
    </filter>
    <filter id="softGlow">
      <feGaussianBlur stdDeviation="8" result="coloredBlur"/>
      <feMerge>
        <feMergeNode in="coloredBlur"/>
        <feMergeNode in="SourceGraphic"/>
      </feMerge>
    </filter>
    <filter id="shadow">
      <feDropShadow dx="0" dy="4" stdDeviation="8" flood-color="#000000" flood-opacity="0.5"/>
    </filter>
  </defs>

  <!-- Background -->
  <rect width="1200" height="630" fill="url(#bgGradient)"/>

  <!-- Decorative ocean gradients -->
  <ellipse cx="1000" cy="150" rx="300" ry="200" fill="url(#oceanGradient)" opacity="0.4"/>
  <ellipse cx="200" cy="530" rx="250" ry="180" fill="url(#oceanGradient)" opacity="0.3"/>

  <!-- Wave patterns -->
  <path d="M 0 400 Q 300 350 600 400 T 1200 400 L 1200 630 L 0 630 Z" fill="#1E90A0" opacity="0.08"/>
  <path d="M 0 450 Q 250 420 500 450 T 1000 450 T 1200 450 L 1200 630 L 0 630 Z" fill="#4FD1C5" opacity="0.05"/>

  <!-- Caviar roe particles -->
  <circle cx="233.7566568808847" cy="189.26089329016355" r="5.232003547024348" fill="#CFAE58" opacity="0.11160539215950739"/>
  <circle cx="545.2459804390082" cy="494.6488642383482" r="3.2739987016600276" fill="#CFAE58" opacity="0.2106357599851335"/>
  <circle cx="910.0721147817235" cy="472.13573758606793" r="2.561864074389737" fill="#CFAE58" opacity="0.22830127376449205"/>
  <circle cx="730.0620153954036" cy="281.1737651348815" r="5.040654263257467" fill="#CFAE58" opacity="0.12251007417409232"/>
  <circle cx="397.62835808373103" cy="5.242142330435806" r="5.874660315056523" fill="#CFAE58" opacity="0.24555143213596162"/>
  <circle cx="886.8451163018829" cy="188.3520691579139" r="3.730308828918581" fill="#CFAE58" opacity="0.11104625209215188"/>
  <circle cx="126.98219740652048" cy="531.793178463656" r="4.919776189817003" fill="#CFAE58" opacity="0.14506381476321295"/>
  <circle cx="871.5019672386792" cy="417.1558949534114" r="2.4392476313934175" fill="#CFAE58" opacity="0.2339789030057838"/>
  <circle cx="861.6041150778038" cy="451.5080477468457" r="3.2115108021406433" fill="#CFAE58" opacity="0.16961667325194701"/>
  <circle cx="183.84520215669795" cy="66.77217771574055" r="2.3090363440367403" fill="#CFAE58" opacity="0.10263335792873458"/>
  <circle cx="130.4626534273055" cy="155.5303883811263" r="3.471312751643916" fill="#CFAE58" opacity="0.22266361752473068"/>
  <circle cx="751.8687034532626" cy="574.3476194080296" r="5.4803340876923405" fill="#CFAE58" opacity="0.2107192911556668"/>
  <circle cx="436.3581057848701" cy="426.4236841944365" r="3.8252370441390413" fill="#CFAE58" opacity="0.13454109230509256"/>
  <circle cx="868.665499677481" cy="458.15699000156513" r="3.841278774058164" fill="#CFAE58" opacity="0.1530342564100703"/>
  <circle cx="541.7217296206225" cy="383.53800296832543" r="4.2976567657038105" fill="#CFAE58" opacity="0.10042913614980242"/>
  <circle cx="217.60579227956427" cy="205.09245620524135" r="4.703894526161851" fill="#CFAE58" opacity="0.2316425166285488"/>
  <circle cx="868.0552418532039" cy="355.83120880530936" r="4.6474707141180005" fill="#CFAE58" opacity="0.14769832029732363"/>
  <circle cx="118.52844434072294" cy="259.45520542355615" r="5.813227899714562" fill="#CFAE58" opacity="0.2219969386228634"/>
  <circle cx="353.80474586156686" cy="67.37578695519055" r="3.6406408419922407" fill="#CFAE58" opacity="0.22895616915488864"/>
  <circle cx="893.1541507830118" cy="170.98560073115675" r="3.6703498681856264" fill="#CFAE58" opacity="0.10819341780608516"/>
  <circle cx="587.8595499992131" cy="114.39096374080829" r="4.495523833945542" fill="#CFAE58" opacity="0.1603491993063254"/>
  <circle cx="1173.5206621155373" cy="438.6284774185797" r="3.038581390147394" fill="#CFAE58" opacity="0.20566552160774904"/>
  <circle cx="1076.3128156396165" cy="588.2541875807676" r="3.900585389167256" fill="#CFAE58" opacity="0.12456155563149958"/>
  <circle cx="777.2987307635647" cy="266.78272390785713" r="3.080176138515922" fill="#CFAE58" opacity="0.1594501310201511"/>
  <circle cx="641.45603062283" cy="84.11864169193886" r="3.9628767211244185" fill="#CFAE58" opacity="0.16197340868813043"/>
  <circle cx="79.1763809027711" cy="267.8290586521235" r="4.931774987978248" fill="#CFAE58" opacity="0.1727288961929539"/>
  <circle cx="1174.8987062444432" cy="238.35074149869828" r="5.88636988917734" fill="#CFAE58" opacity="0.1894131184305568"/>
  <circle cx="973.6176518311281" cy="53.42019246681115" r="3.075037298349681" fill="#CFAE58" opacity="0.12902558527017882"/>
  <circle cx="51.25443916847124" cy="578.1016022819326" r="5.25014790895554" fill="#CFAE58" opacity="0.17465462574100318"/>
  <circle cx="44.76995257607568" cy="265.82782103380276" r="4.210680441830233" fill="#CFAE58" opacity="0.19596583117149532"/>

  <!-- Border with glow -->
  <rect x="40" y="40" width="1120" height="550" fill="none" stroke="url(#goldGradient)" stroke-width="3" rx="12" filter="url(#softGlow)"/>

  <!-- Icon circle with premium background -->
  <circle cx="150" cy="200" r="75" fill="#CFAE58" opacity="0.15" filter="url(#softGlow)"/>
  <circle cx="150" cy="200" r="70" fill="#CFAE58" opacity="0.25"/>
  <text x="150" y="235" font-size="90" text-anchor="middle" fill="#CFAE58" filter="url(#glow)">🫙</text>

  <!-- Premium logo (crown) with enhanced styling -->
  <g transform="translate(100, 70)">
    <path d="M 30 20 L 40 35 L 35 35 Z M 50 15 L 60 35 L 45 35 Z M 65 20 L 75 35 L 70 35 Z M 30 35 L 75 35 L 73 45 L 32 45 Z"
          fill="url(#goldGradient)" filter="url(#glow)" stroke="#B89842" stroke-width="0.5"/>
    <circle cx="40" cy="25" r="3" fill="#4FD1C5" filter="url(#glow)"/>
    <circle cx="52" cy="20" r="4" fill="#4FD1C5" filter="url(#glow)"/>
    <circle cx="65" cy="25" r="3" fill="#4FD1C5" filter="url(#glow)"/>
  </g>

  <!-- Title with shadow -->
  <text x="280" y="180" font-family="Georgia, serif" font-size="72" font-weight="bold"
        fill="url(#goldGradient)" filter="url(#shadow)">Premium Caviar</text>

  <!-- Subtitle with subtle glow -->
  <text x="280" y="230" font-family="Arial, sans-serif" font-size="36"
        fill="#D6DEE6" opacity="0.95" filter="url(#softGlow)">Excellence in Every Jar</text>

  <!-- Brand name with letter spacing -->
  <text x="280" y="300" font-family="Georgia, serif" font-size="32" font-weight="bold"
        fill="#CFAE58" letter-spacing="4" filter="url(#glow)">ROYAL KETA</text>

  <!-- Russian tagline -->
  <text x="280" y="340" font-family="Arial, sans-serif" font-size="22" font-style="italic"
        fill="#8B95A1" opacity="0.8">От икринки к королевской</text>

  <!-- Location -->
  <text x="280" y="380" font-family="Arial, sans-serif" font-size="20"
        fill="#8B95A1" opacity="0.7">Невельский район, Сахалин</text>

  <!-- Website with glow -->
  <text x="100" y="570" font-family="Arial, sans-serif" font-size="30" font-weight="bold"
        fill="#4FD1C5" filter="url(#glow)">royalketa.com</text>

  <!-- Enhanced decorative salmon silhouette -->
  <g transform="translate(950, 480)" opacity="0.2" filter="url(#softGlow)">
    <ellipse cx="0" cy="0" rx="90" ry="35" fill="#CFAE58"/>
    <path d="M 90 0 L 120 -18 L 130 0 L 120 18 Z" fill="#CFAE58"/>
    <path d="M -25 -35 L 0 -45 L 25 -35 Z" fill="#CFAE58"/>
    <ellipse cx="-50" cy="0" rx="15" ry="12" fill="#0B0F14"/>
  </g>

  <!-- Additional decorative caviar clusters -->
  <g opacity="0.2">
    <circle cx="1050" cy="120" r="6" fill="#CFAE58"/>
    <circle cx="1065" cy="115" r="5" fill="#CFAE58"/>
    <circle cx="1058" cy="130" r="4" fill="#CFAE58"/>
    <circle cx="150" cy="500" r="5" fill="#4FD1C5"/>
    <circle cx="165" cy="508" r="4" fill="#4FD1C5"/>
    <circle cx="140" cy="512" r="5" fill="#4FD1C5"/>
  </g>
</svg>