<svg width="1200" height="630" xmlns="http://www.w3.org/2000/svg">
  <defs>
    <linearGradient id="bgGradient" x1="0%" y1="0%" x2="100%" y2="100%">
      <stop offset="0%" style="stop-color:#0B0F14;stop-opacity:1" />
      <stop offset="50%" style="stop-color:#0F1619;stop-opacity:1" />
      <stop offset="100%" style="stop-color:#0F1922;stop-opacity:1" />
    </linearGradient>
    <linearGradient id="goldGradient" x1="0%" y1="0%" x2="100%" y2="0%">
      <stop offset="0%" style="stop-color:#E5D596;stop-opacity:1" />
      <stop offset="50%" style="stop-color:#CFAE58;stop-opacity:1" />
      <stop offset="100%" style="stop-color:#B89842;stop-opacity:1" />
    </linearGradient>
    <radialGradient id="oceanGradient" cx="50%" cy="50%" r="50%">
      <stop offset="0%" style="stop-color:#4FD1C5;stop-opacity:0.3" />
      <stop offset="100%" style="stop-color:#1E90A0;stop-opacity:0.05" />
    </radialGradient>
    <filter id="glow">
      <feGaussianBlur stdDeviation="5" result="coloredBlur"/>
      <feMerge>
        <feMergeNode in="coloredBlur"/>
        <feMergeNode in="SourceGraphic"/>
      </feMerge>
    </filter>
    <filter id="softGlow">
      <feGaussianBlur stdDeviation="8" result="coloredBlur"/>
      <feMerge>
        <feMergeNode in="coloredBlur"/>
        <feMergeNode in="SourceGraphic"/>
      </feMerge>
    </filter>
    <filter id="shadow">
      <feDropShadow dx="0" dy="4" stdDeviation="8" flood-color="#000000" flood-opacity="0.5"/>
    </filter>
  </defs>

  <!-- Background -->
  <rect width="1200" height="630" fill="url(#bgGradient)"/>

  <!-- Decorative ocean gradients -->
  <ellipse cx="1000" cy="150" rx="300" ry="200" fill="url(#oceanGradient)" opacity="0.4"/>
  <ellipse cx="200" cy="530" rx="250" ry="180" fill="url(#oceanGradient)" opacity="0.3"/>

  <!-- Wave patterns -->
  <path d="M 0 400 Q 300 350 600 400 T 1200 400 L 1200 630 L 0 630 Z" fill="#1E90A0" opacity="0.08"/>
  <path d="M 0 450 Q 250 420 500 450 T 1000 450 T 1200 450 L 1200 630 L 0 630 Z" fill="#4FD1C5" opacity="0.05"/>

  <!-- Caviar roe particles -->
  <circle cx="105.40571608436862" cy="471.13565012291144" r="2.0924242379010103" fill="#CFAE58" opacity="0.12122765695454395"/>
  <circle cx="1190.1513376541677" cy="123.73795626307927" r="2.3602403862134906" fill="#CFAE58" opacity="0.2065165918669875"/>
  <circle cx="690.108947080265" cy="422.12645031661134" r="4.055110326444505" fill="#CFAE58" opacity="0.24743771839174958"/>
  <circle cx="49.87913808348674" cy="443.43950871293123" r="2.465727633525952" fill="#CFAE58" opacity="0.19169646875237234"/>
  <circle cx="585.7004627206563" cy="267.33146845857397" r="2.7372022857604366" fill="#CFAE58" opacity="0.1470666005179352"/>
  <circle cx="611.4123328063445" cy="451.29915230975683" r="4.762262593526502" fill="#CFAE58" opacity="0.2224169464276424"/>
  <circle cx="17.9076263585503" cy="38.06728661075637" r="5.185929669535083" fill="#CFAE58" opacity="0.18943833756799822"/>
  <circle cx="398.52190368423567" cy="321.3145869823992" r="3.0542600544643026" fill="#CFAE58" opacity="0.20240962685904001"/>
  <circle cx="1005.5408808782042" cy="412.5234259348037" r="3.2801352158320807" fill="#CFAE58" opacity="0.2283789666367439"/>
  <circle cx="57.7133454754148" cy="328.65647004838763" r="5.2630283107739" fill="#CFAE58" opacity="0.16591387650622816"/>
  <circle cx="214.60498127420627" cy="318.0265191503901" r="2.4655426465450203" fill="#CFAE58" opacity="0.20640446832946424"/>
  <circle cx="185.33729008505154" cy="266.2184924668128" r="5.99945388050174" fill="#CFAE58" opacity="0.2270419769252653"/>
  <circle cx="581.3490423207461" cy="132.21497629795368" r="4.574014628308663" fill="#CFAE58" opacity="0.1533614180572873"/>
  <circle cx="17.70186224295376" cy="265.96391318485996" r="3.0203691396767516" fill="#CFAE58" opacity="0.18624022145093228"/>
  <circle cx="497.44058427866025" cy="10.50532147150481" r="3.918855705448025" fill="#CFAE58" opacity="0.22047820746152869"/>
  <circle cx="1058.4316260859607" cy="514.7337512704838" r="4.680820277830552" fill="#CFAE58" opacity="0.13132039269979123"/>
  <circle cx="1152.2535923200678" cy="72.3898393931704" r="3.318740242832072" fill="#CFAE58" opacity="0.1748170771684516"/>
  <circle cx="161.5569645329879" cy="285.60972843619237" r="3.903154938866499" fill="#CFAE58" opacity="0.1390813644585404"/>
  <circle cx="539.2929958830732" cy="179.7313853585143" r="3.3627044804354584" fill="#CFAE58" opacity="0.20458150517146456"/>
  <circle cx="420.2261549988274" cy="196.28121779703616" r="3.5874140039082913" fill="#CFAE58" opacity="0.2026464495894177"/>
  <circle cx="858.4306941880332" cy="202.26440581322626" r="3.184509603059827" fill="#CFAE58" opacity="0.16693780578850473"/>
  <circle cx="542.1118197934218" cy="346.95212458644295" r="5.722065004370567" fill="#CFAE58" opacity="0.1273006909773631"/>
  <circle cx="402.74897328088474" cy="0.5756926863329226" r="4.45754470042332" fill="#CFAE58" opacity="0.18211765410397385"/>
  <circle cx="14.982758299200327" cy="407.4248581925741" r="2.399133561586452" fill="#CFAE58" opacity="0.16596522568026945"/>
  <circle cx="1198.6923105943163" cy="47.9938847503881" r="4.4815156216014005" fill="#CFAE58" opacity="0.14958889218549154"/>
  <circle cx="1070.75603200969" cy="592.9467175120117" r="3.24879567965593" fill="#CFAE58" opacity="0.21271826917730222"/>
  <circle cx="64.73429341862662" cy="144.2629203795665" r="2.9798636620859993" fill="#CFAE58" opacity="0.18000529794766426"/>
  <circle cx="228.0321873339962" cy="136.51162776434964" r="2.5015188004314757" fill="#CFAE58" opacity="0.12819658197668385"/>
  <circle cx="203.38557701085566" cy="93.39502977840851" r="3.806628460175025" fill="#CFAE58" opacity="0.2279226401060868"/>
  <circle cx="1053.2753401418997" cy="329.8976343792474" r="2.814881478613989" fill="#CFAE58" opacity="0.2205454557833884"/>

  <!-- Border with glow -->
  <rect x="40" y="40" width="1120" height="550" fill="none" stroke="url(#goldGradient)" stroke-width="3" rx="12" filter="url(#softGlow)"/>

  <!-- Icon circle with premium background -->
  <circle cx="150" cy="200" r="75" fill="#CFAE58" opacity="0.15" filter="url(#softGlow)"/>
  <circle cx="150" cy="200" r="70" fill="#CFAE58" opacity="0.25"/>
  <text x="150" y="235" font-size="90" text-anchor="middle" fill="#CFAE58" filter="url(#glow)">📍</text>

  <!-- Premium logo (crown) with enhanced styling -->
  <g transform="translate(100, 70)">
    <path d="M 30 20 L 40 35 L 35 35 Z M 50 15 L 60 35 L 45 35 Z M 65 20 L 75 35 L 70 35 Z M 30 35 L 75 35 L 73 45 L 32 45 Z"
          fill="url(#goldGradient)" filter="url(#glow)" stroke="#B89842" stroke-width="0.5"/>
    <circle cx="40" cy="25" r="3" fill="#4FD1C5" filter="url(#glow)"/>
    <circle cx="52" cy="20" r="4" fill="#4FD1C5" filter="url(#glow)"/>
    <circle cx="65" cy="25" r="3" fill="#4FD1C5" filter="url(#glow)"/>
  </g>

  <!-- Title with shadow -->
  <text x="280" y="180" font-family="Georgia, serif" font-size="72" font-weight="bold"
        fill="url(#goldGradient)" filter="url(#shadow)">Contact Us</text>

  <!-- Subtitle with subtle glow -->
  <text x="280" y="230" font-family="Arial, sans-serif" font-size="36"
        fill="#D6DEE6" opacity="0.95" filter="url(#softGlow)">Visit Us on Sakhalin Island</text>

  <!-- Brand name with letter spacing -->
  <text x="280" y="300" font-family="Georgia, serif" font-size="32" font-weight="bold"
        fill="#CFAE58" letter-spacing="4" filter="url(#glow)">ROYAL KETA</text>

  <!-- Russian tagline -->
  <text x="280" y="340" font-family="Arial, sans-serif" font-size="22" font-style="italic"
        fill="#8B95A1" opacity="0.8">От икринки к королевской</text>

  <!-- Location -->
  <text x="280" y="380" font-family="Arial, sans-serif" font-size="20"
        fill="#8B95A1" opacity="0.7">Невельский район, Сахалин</text>

  <!-- Website with glow -->
  <text x="100" y="570" font-family="Arial, sans-serif" font-size="30" font-weight="bold"
        fill="#4FD1C5" filter="url(#glow)">royalketa.com</text>

  <!-- Enhanced decorative salmon silhouette -->
  <g transform="translate(950, 480)" opacity="0.2" filter="url(#softGlow)">
    <ellipse cx="0" cy="0" rx="90" ry="35" fill="#CFAE58"/>
    <path d="M 90 0 L 120 -18 L 130 0 L 120 18 Z" fill="#CFAE58"/>
    <path d="M -25 -35 L 0 -45 L 25 -35 Z" fill="#CFAE58"/>
    <ellipse cx="-50" cy="0" rx="15" ry="12" fill="#0B0F14"/>
  </g>

  <!-- Additional decorative caviar clusters -->
  <g opacity="0.2">
    <circle cx="1050" cy="120" r="6" fill="#CFAE58"/>
    <circle cx="1065" cy="115" r="5" fill="#CFAE58"/>
    <circle cx="1058" cy="130" r="4" fill="#CFAE58"/>
    <circle cx="150" cy="500" r="5" fill="#4FD1C5"/>
    <circle cx="165" cy="508" r="4" fill="#4FD1C5"/>
    <circle cx="140" cy="512" r="5" fill="#4FD1C5"/>
  </g>
</svg>