<svg width="1200" height="630" xmlns="http://www.w3.org/2000/svg">
  <defs>
    <linearGradient id="bgGradient" x1="0%" y1="0%" x2="100%" y2="100%">
      <stop offset="0%" style="stop-color:#0B0F14;stop-opacity:1" />
      <stop offset="50%" style="stop-color:#0F1619;stop-opacity:1" />
      <stop offset="100%" style="stop-color:#0F1922;stop-opacity:1" />
    </linearGradient>
    <linearGradient id="goldGradient" x1="0%" y1="0%" x2="100%" y2="0%">
      <stop offset="0%" style="stop-color:#E5D596;stop-opacity:1" />
      <stop offset="50%" style="stop-color:#CFAE58;stop-opacity:1" />
      <stop offset="100%" style="stop-color:#B89842;stop-opacity:1" />
    </linearGradient>
    <radialGradient id="oceanGradient" cx="50%" cy="50%" r="50%">
      <stop offset="0%" style="stop-color:#4FD1C5;stop-opacity:0.3" />
      <stop offset="100%" style="stop-color:#1E90A0;stop-opacity:0.05" />
    </radialGradient>
    <filter id="glow">
      <feGaussianBlur stdDeviation="5" result="coloredBlur"/>
      <feMerge>
        <feMergeNode in="coloredBlur"/>
        <feMergeNode in="SourceGraphic"/>
      </feMerge>
    </filter>
    <filter id="softGlow">
      <feGaussianBlur stdDeviation="8" result="coloredBlur"/>
      <feMerge>
        <feMergeNode in="coloredBlur"/>
        <feMergeNode in="SourceGraphic"/>
      </feMerge>
    </filter>
    <filter id="shadow">
      <feDropShadow dx="0" dy="4" stdDeviation="8" flood-color="#000000" flood-opacity="0.5"/>
    </filter>
  </defs>

  <!-- Background -->
  <rect width="1200" height="630" fill="url(#bgGradient)"/>

  <!-- Decorative ocean gradients -->
  <ellipse cx="1000" cy="150" rx="300" ry="200" fill="url(#oceanGradient)" opacity="0.4"/>
  <ellipse cx="200" cy="530" rx="250" ry="180" fill="url(#oceanGradient)" opacity="0.3"/>

  <!-- Wave patterns -->
  <path d="M 0 400 Q 300 350 600 400 T 1200 400 L 1200 630 L 0 630 Z" fill="#1E90A0" opacity="0.08"/>
  <path d="M 0 450 Q 250 420 500 450 T 1000 450 T 1200 450 L 1200 630 L 0 630 Z" fill="#4FD1C5" opacity="0.05"/>

  <!-- Caviar roe particles -->
  <circle cx="965.8247019719121" cy="176.07798171990487" r="4.447982827535953" fill="#CFAE58" opacity="0.13229045133834427"/>
  <circle cx="623.6686967710438" cy="303.1797033558425" r="5.374003488228954" fill="#CFAE58" opacity="0.12766130891930694"/>
  <circle cx="813.5782718422115" cy="290.2784202853134" r="3.67484030747852" fill="#CFAE58" opacity="0.13714571830114403"/>
  <circle cx="534.2378350026645" cy="587.139119367122" r="4.623327360555463" fill="#CFAE58" opacity="0.16221723803582566"/>
  <circle cx="283.07661208699943" cy="616.8392772117701" r="4.747394757461768" fill="#CFAE58" opacity="0.1919712803457506"/>
  <circle cx="850.2759253314136" cy="426.3223882348102" r="4.9676659809632975" fill="#CFAE58" opacity="0.14946208480184697"/>
  <circle cx="1033.559936192129" cy="466.28782730136504" r="2.3290941492319277" fill="#CFAE58" opacity="0.20768509728899748"/>
  <circle cx="1093.17388009998" cy="271.5488612368976" r="3.1915692298265634" fill="#CFAE58" opacity="0.19089126091305347"/>
  <circle cx="808.9789128597852" cy="561.72939910879" r="3.1420412096196912" fill="#CFAE58" opacity="0.1896001614920125"/>
  <circle cx="262.2590873726337" cy="40.442553900101124" r="3.4957086893589784" fill="#CFAE58" opacity="0.14774743532790457"/>
  <circle cx="687.8287712869153" cy="26.58498820863334" r="2.4899332656805657" fill="#CFAE58" opacity="0.14771383886497508"/>
  <circle cx="499.61259027650226" cy="306.9101995792849" r="2.746375668614852" fill="#CFAE58" opacity="0.23292989779853404"/>
  <circle cx="105.2272592229377" cy="408.02823785286796" r="3.044999572205569" fill="#CFAE58" opacity="0.18868699859364085"/>
  <circle cx="1090.8149583610807" cy="214.19462569500567" r="5.563051394579455" fill="#CFAE58" opacity="0.13998066721701863"/>
  <circle cx="974.253478588874" cy="158.64551318471632" r="2.9541109552407057" fill="#CFAE58" opacity="0.2091625054716741"/>
  <circle cx="539.0722209759176" cy="587.9767701066783" r="2.63476643953112" fill="#CFAE58" opacity="0.18298308186873904"/>
  <circle cx="825.3032802701233" cy="89.47515291808874" r="4.504176713635513" fill="#CFAE58" opacity="0.2206582836308253"/>
  <circle cx="154.2304947839044" cy="421.45096337584533" r="3.588236298437442" fill="#CFAE58" opacity="0.12411983440205102"/>
  <circle cx="748.8180863806688" cy="378.1859810613979" r="5.72522349744068" fill="#CFAE58" opacity="0.13752425106696176"/>
  <circle cx="118.9710209182289" cy="215.6916983652571" r="3.222585679926454" fill="#CFAE58" opacity="0.16240376442013954"/>
  <circle cx="909.6586562834894" cy="625.7032231840601" r="4.724457536037516" fill="#CFAE58" opacity="0.2394299639792644"/>
  <circle cx="1034.0144093586323" cy="351.84772867207965" r="3.3138036848583097" fill="#CFAE58" opacity="0.17188673542802135"/>
  <circle cx="754.0141057307295" cy="250.80559558609718" r="4.439987825417112" fill="#CFAE58" opacity="0.10212048252785802"/>
  <circle cx="260.83397720647497" cy="320.46927069727377" r="4.246819604816114" fill="#CFAE58" opacity="0.1461764144181479"/>
  <circle cx="1133.94658915459" cy="13.840424957329757" r="4.503832020403294" fill="#CFAE58" opacity="0.21745742730546525"/>
  <circle cx="142.58729859769116" cy="454.6921816860561" r="3.216617069134276" fill="#CFAE58" opacity="0.2072835014684064"/>
  <circle cx="629.478333452001" cy="469.54125445184803" r="3.580228979988396" fill="#CFAE58" opacity="0.15469620572739723"/>
  <circle cx="487.0513019768037" cy="21.299275552750704" r="4.101340251485245" fill="#CFAE58" opacity="0.11108204025287849"/>
  <circle cx="1094.001172835411" cy="287.0635047398175" r="4.097767881171967" fill="#CFAE58" opacity="0.2262285675998067"/>
  <circle cx="985.7198972631566" cy="264.47360890837854" r="2.3595107462965075" fill="#CFAE58" opacity="0.14704589556768102"/>

  <!-- Border with glow -->
  <rect x="40" y="40" width="1120" height="550" fill="none" stroke="url(#goldGradient)" stroke-width="3" rx="12" filter="url(#softGlow)"/>

  <!-- Icon circle with premium background -->
  <circle cx="150" cy="200" r="75" fill="#CFAE58" opacity="0.15" filter="url(#softGlow)"/>
  <circle cx="150" cy="200" r="70" fill="#CFAE58" opacity="0.25"/>
  <text x="150" y="235" font-size="90" text-anchor="middle" fill="#CFAE58" filter="url(#glow)">📍</text>

  <!-- Premium logo (crown) with enhanced styling -->
  <g transform="translate(100, 70)">
    <path d="M 30 20 L 40 35 L 35 35 Z M 50 15 L 60 35 L 45 35 Z M 65 20 L 75 35 L 70 35 Z M 30 35 L 75 35 L 73 45 L 32 45 Z"
          fill="url(#goldGradient)" filter="url(#glow)" stroke="#B89842" stroke-width="0.5"/>
    <circle cx="40" cy="25" r="3" fill="#4FD1C5" filter="url(#glow)"/>
    <circle cx="52" cy="20" r="4" fill="#4FD1C5" filter="url(#glow)"/>
    <circle cx="65" cy="25" r="3" fill="#4FD1C5" filter="url(#glow)"/>
  </g>

  <!-- Title with shadow -->
  <text x="280" y="180" font-family="Georgia, serif" font-size="72" font-weight="bold"
        fill="url(#goldGradient)" filter="url(#shadow)">Contact Us</text>

  <!-- Subtitle with subtle glow -->
  <text x="280" y="230" font-family="Arial, sans-serif" font-size="36"
        fill="#D6DEE6" opacity="0.95" filter="url(#softGlow)">Visit Us on Sakhalin Island</text>

  <!-- Brand name with letter spacing -->
  <text x="280" y="300" font-family="Georgia, serif" font-size="32" font-weight="bold"
        fill="#CFAE58" letter-spacing="4" filter="url(#glow)">ROYAL KETA</text>

  <!-- Russian tagline -->
  <text x="280" y="340" font-family="Arial, sans-serif" font-size="22" font-style="italic"
        fill="#8B95A1" opacity="0.8">От икринки к королевской</text>

  <!-- Location -->
  <text x="280" y="380" font-family="Arial, sans-serif" font-size="20"
        fill="#8B95A1" opacity="0.7">Невельский район, Сахалин</text>

  <!-- Website with glow -->
  <text x="100" y="570" font-family="Arial, sans-serif" font-size="30" font-weight="bold"
        fill="#4FD1C5" filter="url(#glow)">royalketa.com</text>

  <!-- Enhanced decorative salmon silhouette -->
  <g transform="translate(950, 480)" opacity="0.2" filter="url(#softGlow)">
    <ellipse cx="0" cy="0" rx="90" ry="35" fill="#CFAE58"/>
    <path d="M 90 0 L 120 -18 L 130 0 L 120 18 Z" fill="#CFAE58"/>
    <path d="M -25 -35 L 0 -45 L 25 -35 Z" fill="#CFAE58"/>
    <ellipse cx="-50" cy="0" rx="15" ry="12" fill="#0B0F14"/>
  </g>

  <!-- Additional decorative caviar clusters -->
  <g opacity="0.2">
    <circle cx="1050" cy="120" r="6" fill="#CFAE58"/>
    <circle cx="1065" cy="115" r="5" fill="#CFAE58"/>
    <circle cx="1058" cy="130" r="4" fill="#CFAE58"/>
    <circle cx="150" cy="500" r="5" fill="#4FD1C5"/>
    <circle cx="165" cy="508" r="4" fill="#4FD1C5"/>
    <circle cx="140" cy="512" r="5" fill="#4FD1C5"/>
  </g>
</svg>