<svg width="1200" height="630" xmlns="http://www.w3.org/2000/svg">
  <defs>
    <linearGradient id="bgGradient" x1="0%" y1="0%" x2="100%" y2="100%">
      <stop offset="0%" style="stop-color:#0B0F14;stop-opacity:1" />
      <stop offset="50%" style="stop-color:#0F1619;stop-opacity:1" />
      <stop offset="100%" style="stop-color:#0F1922;stop-opacity:1" />
    </linearGradient>
    <linearGradient id="goldGradient" x1="0%" y1="0%" x2="100%" y2="0%">
      <stop offset="0%" style="stop-color:#E5D596;stop-opacity:1" />
      <stop offset="50%" style="stop-color:#CFAE58;stop-opacity:1" />
      <stop offset="100%" style="stop-color:#B89842;stop-opacity:1" />
    </linearGradient>
    <radialGradient id="oceanGradient" cx="50%" cy="50%" r="50%">
      <stop offset="0%" style="stop-color:#4FD1C5;stop-opacity:0.3" />
      <stop offset="100%" style="stop-color:#1E90A0;stop-opacity:0.05" />
    </radialGradient>
    <filter id="glow">
      <feGaussianBlur stdDeviation="5" result="coloredBlur"/>
      <feMerge>
        <feMergeNode in="coloredBlur"/>
        <feMergeNode in="SourceGraphic"/>
      </feMerge>
    </filter>
    <filter id="softGlow">
      <feGaussianBlur stdDeviation="8" result="coloredBlur"/>
      <feMerge>
        <feMergeNode in="coloredBlur"/>
        <feMergeNode in="SourceGraphic"/>
      </feMerge>
    </filter>
    <filter id="shadow">
      <feDropShadow dx="0" dy="4" stdDeviation="8" flood-color="#000000" flood-opacity="0.5"/>
    </filter>
  </defs>

  <!-- Background -->
  <rect width="1200" height="630" fill="url(#bgGradient)"/>

  <!-- Decorative ocean gradients -->
  <ellipse cx="1000" cy="150" rx="300" ry="200" fill="url(#oceanGradient)" opacity="0.4"/>
  <ellipse cx="200" cy="530" rx="250" ry="180" fill="url(#oceanGradient)" opacity="0.3"/>

  <!-- Wave patterns -->
  <path d="M 0 400 Q 300 350 600 400 T 1200 400 L 1200 630 L 0 630 Z" fill="#1E90A0" opacity="0.08"/>
  <path d="M 0 450 Q 250 420 500 450 T 1000 450 T 1200 450 L 1200 630 L 0 630 Z" fill="#4FD1C5" opacity="0.05"/>

  <!-- Caviar roe particles -->
  <circle cx="101.36150961615104" cy="368.18852790398836" r="3.1756628961086903" fill="#CFAE58" opacity="0.18566448627297166"/>
  <circle cx="284.422001406117" cy="514.8202316995466" r="4.87989966163455" fill="#CFAE58" opacity="0.22772562545385389"/>
  <circle cx="129.43274650157144" cy="535.0096829538063" r="2.088975800754213" fill="#CFAE58" opacity="0.14323026387009638"/>
  <circle cx="863.9831476754698" cy="108.53275599775183" r="5.7209451094489205" fill="#CFAE58" opacity="0.10015858578180135"/>
  <circle cx="668.4571808125313" cy="550.734749978208" r="5.432811995763243" fill="#CFAE58" opacity="0.2311459635154826"/>
  <circle cx="803.3304238718356" cy="174.25914338254884" r="2.1184162688130685" fill="#CFAE58" opacity="0.12004322508102573"/>
  <circle cx="1117.635432609999" cy="350.7342425814834" r="3.494454978598498" fill="#CFAE58" opacity="0.14952034691627236"/>
  <circle cx="371.79483424567763" cy="595.1035423144012" r="3.492199363197752" fill="#CFAE58" opacity="0.12202398561273595"/>
  <circle cx="401.9583015720758" cy="232.02065271048374" r="2.3029203879071893" fill="#CFAE58" opacity="0.10112812459331308"/>
  <circle cx="1146.8451832339565" cy="580.379238754326" r="4.711387967634694" fill="#CFAE58" opacity="0.16501016900639487"/>
  <circle cx="778.7278741580993" cy="121.67716554817835" r="5.893239227094007" fill="#CFAE58" opacity="0.12059762930622808"/>
  <circle cx="976.1738834733711" cy="526.9853534356752" r="2.7420774272027595" fill="#CFAE58" opacity="0.2064216011896478"/>
  <circle cx="110.30209810511363" cy="258.97678134883785" r="4.703968442439431" fill="#CFAE58" opacity="0.12930046847469745"/>
  <circle cx="679.7005255053067" cy="239.614845316337" r="4.6807047646608195" fill="#CFAE58" opacity="0.23987956301696464"/>
  <circle cx="940.8552007470912" cy="360.5080204070009" r="3.7763043258170623" fill="#CFAE58" opacity="0.14332346316456993"/>
  <circle cx="1029.2315325570453" cy="268.1585236222062" r="5.333509628187452" fill="#CFAE58" opacity="0.1311690845960123"/>
  <circle cx="1140.042840331936" cy="503.5001702448455" r="2.495319903115432" fill="#CFAE58" opacity="0.13278842974938604"/>
  <circle cx="484.8767723215237" cy="68.22089256765213" r="2.2077715127095" fill="#CFAE58" opacity="0.19053725985162312"/>
  <circle cx="893.726801153415" cy="404.132192755123" r="3.331321387822489" fill="#CFAE58" opacity="0.1694472646018383"/>
  <circle cx="497.9592257408578" cy="489.472331686262" r="4.798770486856576" fill="#CFAE58" opacity="0.24724284215094797"/>
  <circle cx="604.6567130821584" cy="296.4381276642466" r="5.485102250247095" fill="#CFAE58" opacity="0.18926597678681362"/>
  <circle cx="263.92400215609587" cy="181.19883360037645" r="5.24671923769724" fill="#CFAE58" opacity="0.17324883905799493"/>
  <circle cx="558.9402812437819" cy="420.95338103630485" r="5.723293875303071" fill="#CFAE58" opacity="0.10048791656081574"/>
  <circle cx="205.91265267589299" cy="187.47272892964813" r="2.8340074170859015" fill="#CFAE58" opacity="0.1256585715243557"/>
  <circle cx="111.28521473648303" cy="179.7175656574694" r="5.59791504031849" fill="#CFAE58" opacity="0.14636337536299254"/>
  <circle cx="302.246748536735" cy="53.292207291268056" r="4.429352668402446" fill="#CFAE58" opacity="0.15165587376987585"/>
  <circle cx="783.6506928315822" cy="150.89252093398477" r="3.639945481976201" fill="#CFAE58" opacity="0.1771303684002984"/>
  <circle cx="330.3063406404527" cy="458.42384743033995" r="5.996278293342629" fill="#CFAE58" opacity="0.13501179504214522"/>
  <circle cx="809.215794858376" cy="252.7196818692848" r="4.893559193477266" fill="#CFAE58" opacity="0.1998304687823243"/>
  <circle cx="993.3901910135721" cy="110.8303818708824" r="4.836589953743747" fill="#CFAE58" opacity="0.12381337919430123"/>

  <!-- Border with glow -->
  <rect x="40" y="40" width="1120" height="550" fill="none" stroke="url(#goldGradient)" stroke-width="3" rx="12" filter="url(#softGlow)"/>

  <!-- Icon circle with premium background -->
  <circle cx="150" cy="200" r="75" fill="#CFAE58" opacity="0.15" filter="url(#softGlow)"/>
  <circle cx="150" cy="200" r="70" fill="#CFAE58" opacity="0.25"/>
  <text x="150" y="235" font-size="90" text-anchor="middle" fill="#CFAE58" filter="url(#glow)">📍</text>

  <!-- Premium logo (crown) with enhanced styling -->
  <g transform="translate(100, 70)">
    <path d="M 30 20 L 40 35 L 35 35 Z M 50 15 L 60 35 L 45 35 Z M 65 20 L 75 35 L 70 35 Z M 30 35 L 75 35 L 73 45 L 32 45 Z"
          fill="url(#goldGradient)" filter="url(#glow)" stroke="#B89842" stroke-width="0.5"/>
    <circle cx="40" cy="25" r="3" fill="#4FD1C5" filter="url(#glow)"/>
    <circle cx="52" cy="20" r="4" fill="#4FD1C5" filter="url(#glow)"/>
    <circle cx="65" cy="25" r="3" fill="#4FD1C5" filter="url(#glow)"/>
  </g>

  <!-- Title with shadow -->
  <text x="280" y="180" font-family="Georgia, serif" font-size="72" font-weight="bold"
        fill="url(#goldGradient)" filter="url(#shadow)">Contact Us</text>

  <!-- Subtitle with subtle glow -->
  <text x="280" y="230" font-family="Arial, sans-serif" font-size="36"
        fill="#D6DEE6" opacity="0.95" filter="url(#softGlow)">Visit Us on Sakhalin Island</text>

  <!-- Brand name with letter spacing -->
  <text x="280" y="300" font-family="Georgia, serif" font-size="32" font-weight="bold"
        fill="#CFAE58" letter-spacing="4" filter="url(#glow)">ROYAL KETA</text>

  <!-- Russian tagline -->
  <text x="280" y="340" font-family="Arial, sans-serif" font-size="22" font-style="italic"
        fill="#8B95A1" opacity="0.8">От икринки к королевской</text>

  <!-- Location -->
  <text x="280" y="380" font-family="Arial, sans-serif" font-size="20"
        fill="#8B95A1" opacity="0.7">Невельский район, Сахалин</text>

  <!-- Website with glow -->
  <text x="100" y="570" font-family="Arial, sans-serif" font-size="30" font-weight="bold"
        fill="#4FD1C5" filter="url(#glow)">royalketa.com</text>

  <!-- Enhanced decorative salmon silhouette -->
  <g transform="translate(950, 480)" opacity="0.2" filter="url(#softGlow)">
    <ellipse cx="0" cy="0" rx="90" ry="35" fill="#CFAE58"/>
    <path d="M 90 0 L 120 -18 L 130 0 L 120 18 Z" fill="#CFAE58"/>
    <path d="M -25 -35 L 0 -45 L 25 -35 Z" fill="#CFAE58"/>
    <ellipse cx="-50" cy="0" rx="15" ry="12" fill="#0B0F14"/>
  </g>

  <!-- Additional decorative caviar clusters -->
  <g opacity="0.2">
    <circle cx="1050" cy="120" r="6" fill="#CFAE58"/>
    <circle cx="1065" cy="115" r="5" fill="#CFAE58"/>
    <circle cx="1058" cy="130" r="4" fill="#CFAE58"/>
    <circle cx="150" cy="500" r="5" fill="#4FD1C5"/>
    <circle cx="165" cy="508" r="4" fill="#4FD1C5"/>
    <circle cx="140" cy="512" r="5" fill="#4FD1C5"/>
  </g>
</svg>