<svg width="1200" height="630" xmlns="http://www.w3.org/2000/svg">
  <defs>
    <linearGradient id="bgGradient" x1="0%" y1="0%" x2="100%" y2="100%">
      <stop offset="0%" style="stop-color:#0B0F14;stop-opacity:1" />
      <stop offset="50%" style="stop-color:#0F1619;stop-opacity:1" />
      <stop offset="100%" style="stop-color:#0F1922;stop-opacity:1" />
    </linearGradient>
    <linearGradient id="goldGradient" x1="0%" y1="0%" x2="100%" y2="0%">
      <stop offset="0%" style="stop-color:#E5D596;stop-opacity:1" />
      <stop offset="50%" style="stop-color:#CFAE58;stop-opacity:1" />
      <stop offset="100%" style="stop-color:#B89842;stop-opacity:1" />
    </linearGradient>
    <radialGradient id="oceanGradient" cx="50%" cy="50%" r="50%">
      <stop offset="0%" style="stop-color:#4FD1C5;stop-opacity:0.3" />
      <stop offset="100%" style="stop-color:#1E90A0;stop-opacity:0.05" />
    </radialGradient>
    <filter id="glow">
      <feGaussianBlur stdDeviation="5" result="coloredBlur"/>
      <feMerge>
        <feMergeNode in="coloredBlur"/>
        <feMergeNode in="SourceGraphic"/>
      </feMerge>
    </filter>
    <filter id="softGlow">
      <feGaussianBlur stdDeviation="8" result="coloredBlur"/>
      <feMerge>
        <feMergeNode in="coloredBlur"/>
        <feMergeNode in="SourceGraphic"/>
      </feMerge>
    </filter>
    <filter id="shadow">
      <feDropShadow dx="0" dy="4" stdDeviation="8" flood-color="#000000" flood-opacity="0.5"/>
    </filter>
  </defs>

  <!-- Background -->
  <rect width="1200" height="630" fill="url(#bgGradient)"/>

  <!-- Decorative ocean gradients -->
  <ellipse cx="1000" cy="150" rx="300" ry="200" fill="url(#oceanGradient)" opacity="0.4"/>
  <ellipse cx="200" cy="530" rx="250" ry="180" fill="url(#oceanGradient)" opacity="0.3"/>

  <!-- Wave patterns -->
  <path d="M 0 400 Q 300 350 600 400 T 1200 400 L 1200 630 L 0 630 Z" fill="#1E90A0" opacity="0.08"/>
  <path d="M 0 450 Q 250 420 500 450 T 1000 450 T 1200 450 L 1200 630 L 0 630 Z" fill="#4FD1C5" opacity="0.05"/>

  <!-- Caviar roe particles -->
  <circle cx="157.70557824762497" cy="167.80356357324206" r="4.9609359967639" fill="#CFAE58" opacity="0.12727670389205578"/>
  <circle cx="97.99783625583309" cy="415.9342292269984" r="3.6816724953577973" fill="#CFAE58" opacity="0.20244555038783973"/>
  <circle cx="1044.025627415577" cy="41.82552667107727" r="3.3670905106218036" fill="#CFAE58" opacity="0.17184477875357623"/>
  <circle cx="203.32517987838222" cy="489.27148962508386" r="5.205978931148636" fill="#CFAE58" opacity="0.10839413444112438"/>
  <circle cx="49.736564912521786" cy="201.05474357495658" r="2.338378098861373" fill="#CFAE58" opacity="0.12391590639711177"/>
  <circle cx="989.0436080460503" cy="503.5392361419646" r="2.4051094195999303" fill="#CFAE58" opacity="0.15521401543812322"/>
  <circle cx="799.0717538380208" cy="527.3886885251319" r="2.2439629801593055" fill="#CFAE58" opacity="0.19604926963117575"/>
  <circle cx="833.0743956113811" cy="327.23856697183186" r="4.050349575416958" fill="#CFAE58" opacity="0.12669479546425302"/>
  <circle cx="229.35599592708496" cy="183.19259456139594" r="2.8491693973027257" fill="#CFAE58" opacity="0.18796347227531596"/>
  <circle cx="706.175167234026" cy="543.4460809777403" r="5.983618595645444" fill="#CFAE58" opacity="0.13301872796081587"/>
  <circle cx="863.1107560549336" cy="372.7985425798709" r="5.03321548829247" fill="#CFAE58" opacity="0.19432506489019075"/>
  <circle cx="774.2545768436029" cy="207.27242489171246" r="4.71429269879829" fill="#CFAE58" opacity="0.13845446800208894"/>
  <circle cx="161.92028146880614" cy="151.4376560329494" r="4.068279555743277" fill="#CFAE58" opacity="0.10391040589778366"/>
  <circle cx="501.31314844093316" cy="139.82788301689666" r="4.8925103754522095" fill="#CFAE58" opacity="0.16710632950640836"/>
  <circle cx="1086.8145236348514" cy="518.7856681513924" r="2.0408478817637388" fill="#CFAE58" opacity="0.14501750966512"/>
  <circle cx="611.4134498776136" cy="361.00216466232644" r="5.454036142333818" fill="#CFAE58" opacity="0.15485882885685553"/>
  <circle cx="626.1915236092187" cy="220.97094176883053" r="3.811071723146836" fill="#CFAE58" opacity="0.17922450917021854"/>
  <circle cx="987.4160027959078" cy="366.3347263009477" r="2.186525489277366" fill="#CFAE58" opacity="0.23670438758945136"/>
  <circle cx="995.4188653595179" cy="107.41217802150175" r="4.837456364927707" fill="#CFAE58" opacity="0.1945637329972768"/>
  <circle cx="851.0080762943571" cy="195.86580814215324" r="4.437738131913537" fill="#CFAE58" opacity="0.17444787038975149"/>
  <circle cx="342.92416543484035" cy="174.29904079245873" r="2.7342734951956826" fill="#CFAE58" opacity="0.1738065079220404"/>
  <circle cx="415.0149886532848" cy="532.7044227962832" r="2.326631345031857" fill="#CFAE58" opacity="0.2417582912481658"/>
  <circle cx="938.2853402342653" cy="620.1662793476326" r="3.606187497965614" fill="#CFAE58" opacity="0.18544253784446046"/>
  <circle cx="1176.89681726242" cy="48.05553298650952" r="4.107408728996247" fill="#CFAE58" opacity="0.21609243141527584"/>
  <circle cx="102.4275301887763" cy="216.3745588112716" r="4.962413310405035" fill="#CFAE58" opacity="0.1489137421169075"/>
  <circle cx="233.757859042103" cy="150.66575948076112" r="4.756384723934559" fill="#CFAE58" opacity="0.1493741008269555"/>
  <circle cx="557.6416359463841" cy="565.6171179636959" r="2.832278084740275" fill="#CFAE58" opacity="0.2372948091546074"/>
  <circle cx="821.3365227738143" cy="270.25928499672716" r="3.4948595115974648" fill="#CFAE58" opacity="0.11754753325603541"/>
  <circle cx="1148.1437750423179" cy="540.1002435705766" r="5.559038542797208" fill="#CFAE58" opacity="0.144801821521454"/>
  <circle cx="920.961630971309" cy="331.8134315687945" r="3.7099142964203757" fill="#CFAE58" opacity="0.19269806371689677"/>

  <!-- Border with glow -->
  <rect x="40" y="40" width="1120" height="550" fill="none" stroke="url(#goldGradient)" stroke-width="3" rx="12" filter="url(#softGlow)"/>

  <!-- Icon circle with premium background -->
  <circle cx="150" cy="200" r="75" fill="#CFAE58" opacity="0.15" filter="url(#softGlow)"/>
  <circle cx="150" cy="200" r="70" fill="#CFAE58" opacity="0.25"/>
  <text x="150" y="235" font-size="90" text-anchor="middle" fill="#CFAE58" filter="url(#glow)">📍</text>

  <!-- Premium logo (crown) with enhanced styling -->
  <g transform="translate(100, 70)">
    <path d="M 30 20 L 40 35 L 35 35 Z M 50 15 L 60 35 L 45 35 Z M 65 20 L 75 35 L 70 35 Z M 30 35 L 75 35 L 73 45 L 32 45 Z"
          fill="url(#goldGradient)" filter="url(#glow)" stroke="#B89842" stroke-width="0.5"/>
    <circle cx="40" cy="25" r="3" fill="#4FD1C5" filter="url(#glow)"/>
    <circle cx="52" cy="20" r="4" fill="#4FD1C5" filter="url(#glow)"/>
    <circle cx="65" cy="25" r="3" fill="#4FD1C5" filter="url(#glow)"/>
  </g>

  <!-- Title with shadow -->
  <text x="280" y="180" font-family="Georgia, serif" font-size="72" font-weight="bold"
        fill="url(#goldGradient)" filter="url(#shadow)">Contact Us</text>

  <!-- Subtitle with subtle glow -->
  <text x="280" y="230" font-family="Arial, sans-serif" font-size="36"
        fill="#D6DEE6" opacity="0.95" filter="url(#softGlow)">Visit Us on Sakhalin Island</text>

  <!-- Brand name with letter spacing -->
  <text x="280" y="300" font-family="Georgia, serif" font-size="32" font-weight="bold"
        fill="#CFAE58" letter-spacing="4" filter="url(#glow)">ROYAL KETA</text>

  <!-- Russian tagline -->
  <text x="280" y="340" font-family="Arial, sans-serif" font-size="22" font-style="italic"
        fill="#8B95A1" opacity="0.8">От икринки к королевской</text>

  <!-- Location -->
  <text x="280" y="380" font-family="Arial, sans-serif" font-size="20"
        fill="#8B95A1" opacity="0.7">Невельский район, Сахалин</text>

  <!-- Website with glow -->
  <text x="100" y="570" font-family="Arial, sans-serif" font-size="30" font-weight="bold"
        fill="#4FD1C5" filter="url(#glow)">royalketa.com</text>

  <!-- Enhanced decorative salmon silhouette -->
  <g transform="translate(950, 480)" opacity="0.2" filter="url(#softGlow)">
    <ellipse cx="0" cy="0" rx="90" ry="35" fill="#CFAE58"/>
    <path d="M 90 0 L 120 -18 L 130 0 L 120 18 Z" fill="#CFAE58"/>
    <path d="M -25 -35 L 0 -45 L 25 -35 Z" fill="#CFAE58"/>
    <ellipse cx="-50" cy="0" rx="15" ry="12" fill="#0B0F14"/>
  </g>

  <!-- Additional decorative caviar clusters -->
  <g opacity="0.2">
    <circle cx="1050" cy="120" r="6" fill="#CFAE58"/>
    <circle cx="1065" cy="115" r="5" fill="#CFAE58"/>
    <circle cx="1058" cy="130" r="4" fill="#CFAE58"/>
    <circle cx="150" cy="500" r="5" fill="#4FD1C5"/>
    <circle cx="165" cy="508" r="4" fill="#4FD1C5"/>
    <circle cx="140" cy="512" r="5" fill="#4FD1C5"/>
  </g>
</svg>