<svg width="1200" height="630" xmlns="http://www.w3.org/2000/svg">
  <defs>
    <linearGradient id="bgGradient" x1="0%" y1="0%" x2="100%" y2="100%">
      <stop offset="0%" style="stop-color:#0B0F14;stop-opacity:1" />
      <stop offset="50%" style="stop-color:#0F1619;stop-opacity:1" />
      <stop offset="100%" style="stop-color:#0F1922;stop-opacity:1" />
    </linearGradient>
    <linearGradient id="goldGradient" x1="0%" y1="0%" x2="100%" y2="0%">
      <stop offset="0%" style="stop-color:#E5D596;stop-opacity:1" />
      <stop offset="50%" style="stop-color:#CFAE58;stop-opacity:1" />
      <stop offset="100%" style="stop-color:#B89842;stop-opacity:1" />
    </linearGradient>
    <radialGradient id="oceanGradient" cx="50%" cy="50%" r="50%">
      <stop offset="0%" style="stop-color:#4FD1C5;stop-opacity:0.3" />
      <stop offset="100%" style="stop-color:#1E90A0;stop-opacity:0.05" />
    </radialGradient>
    <filter id="glow">
      <feGaussianBlur stdDeviation="5" result="coloredBlur"/>
      <feMerge>
        <feMergeNode in="coloredBlur"/>
        <feMergeNode in="SourceGraphic"/>
      </feMerge>
    </filter>
    <filter id="softGlow">
      <feGaussianBlur stdDeviation="8" result="coloredBlur"/>
      <feMerge>
        <feMergeNode in="coloredBlur"/>
        <feMergeNode in="SourceGraphic"/>
      </feMerge>
    </filter>
    <filter id="shadow">
      <feDropShadow dx="0" dy="4" stdDeviation="8" flood-color="#000000" flood-opacity="0.5"/>
    </filter>
  </defs>

  <!-- Background -->
  <rect width="1200" height="630" fill="url(#bgGradient)"/>

  <!-- Decorative ocean gradients -->
  <ellipse cx="1000" cy="150" rx="300" ry="200" fill="url(#oceanGradient)" opacity="0.4"/>
  <ellipse cx="200" cy="530" rx="250" ry="180" fill="url(#oceanGradient)" opacity="0.3"/>

  <!-- Wave patterns -->
  <path d="M 0 400 Q 300 350 600 400 T 1200 400 L 1200 630 L 0 630 Z" fill="#1E90A0" opacity="0.08"/>
  <path d="M 0 450 Q 250 420 500 450 T 1000 450 T 1200 450 L 1200 630 L 0 630 Z" fill="#4FD1C5" opacity="0.05"/>

  <!-- Caviar roe particles -->
  <circle cx="502.80038155904975" cy="242.07913897151442" r="4.413920200199456" fill="#CFAE58" opacity="0.11034649453679762"/>
  <circle cx="634.5706057042065" cy="603.1845373700494" r="5.227111691508998" fill="#CFAE58" opacity="0.10208697710996283"/>
  <circle cx="101.93722437341152" cy="589.7977512174429" r="4.154017664126558" fill="#CFAE58" opacity="0.10220022315876856"/>
  <circle cx="268.4857893891966" cy="294.26665421598227" r="2.7126733721926337" fill="#CFAE58" opacity="0.23642719445195387"/>
  <circle cx="1115.4795397231687" cy="420.4615274717319" r="4.781983832235862" fill="#CFAE58" opacity="0.2124068674869488"/>
  <circle cx="572.9292108972788" cy="529.6462817615114" r="2.515270020778228" fill="#CFAE58" opacity="0.1809872178796853"/>
  <circle cx="1177.638193426248" cy="422.9026956860441" r="2.1142918312873267" fill="#CFAE58" opacity="0.2422785526853311"/>
  <circle cx="715.0864256890218" cy="286.13228369690336" r="4.36384224054201" fill="#CFAE58" opacity="0.22974676925609544"/>
  <circle cx="549.07139484864" cy="74.35569394513114" r="4.414204093788483" fill="#CFAE58" opacity="0.18877309098902176"/>
  <circle cx="759.5689321139919" cy="198.5479234350408" r="2.122610072578005" fill="#CFAE58" opacity="0.10938298009282982"/>
  <circle cx="861.3113345913955" cy="461.76359763209587" r="2.115825197583754" fill="#CFAE58" opacity="0.18539628107961342"/>
  <circle cx="661.9204200160242" cy="71.50402352163567" r="2.334778080395015" fill="#CFAE58" opacity="0.21039576595965917"/>
  <circle cx="955.912454560985" cy="505.8436999114327" r="5.967820159288955" fill="#CFAE58" opacity="0.131179231774736"/>
  <circle cx="247.48577850430485" cy="625.4795443503837" r="3.5974992156901653" fill="#CFAE58" opacity="0.2297811735479537"/>
  <circle cx="109.28230364344608" cy="266.08944161585816" r="5.965805304700289" fill="#CFAE58" opacity="0.1589228384226559"/>
  <circle cx="1139.7230265989765" cy="482.60032248032854" r="2.2604938290703434" fill="#CFAE58" opacity="0.10259750156253461"/>
  <circle cx="1096.1563094232226" cy="396.9320129709457" r="4.028955834524384" fill="#CFAE58" opacity="0.12216212786253004"/>
  <circle cx="833.9181068935408" cy="497.73087053947177" r="5.6951010671554725" fill="#CFAE58" opacity="0.1545687821075144"/>
  <circle cx="450.0507571022588" cy="242.47604672502013" r="4.606960125944199" fill="#CFAE58" opacity="0.21968245562976835"/>
  <circle cx="1017.9147294212946" cy="436.16442018200684" r="4.202626654736257" fill="#CFAE58" opacity="0.1048768140561096"/>
  <circle cx="766.088126485207" cy="565.1493481910189" r="2.98166631180355" fill="#CFAE58" opacity="0.22651853053399237"/>
  <circle cx="429.2551085385849" cy="105.51522255556421" r="5.93177582848334" fill="#CFAE58" opacity="0.23564660931668796"/>
  <circle cx="632.811218288896" cy="391.3701911829781" r="2.6989494362789186" fill="#CFAE58" opacity="0.12555976380877454"/>
  <circle cx="666.585808097828" cy="163.83956539855467" r="4.282230553620767" fill="#CFAE58" opacity="0.10885337961056293"/>
  <circle cx="553.7255170796155" cy="390.0235139249174" r="5.50548221174688" fill="#CFAE58" opacity="0.1371799991455693"/>
  <circle cx="147.3445059341361" cy="199.11201691096807" r="2.5961324751943486" fill="#CFAE58" opacity="0.10831126222930614"/>
  <circle cx="687.6817316210688" cy="549.4116016613808" r="2.0599338079448337" fill="#CFAE58" opacity="0.23864703513969251"/>
  <circle cx="1021.9160854534695" cy="418.4775561460597" r="2.4978048500071743" fill="#CFAE58" opacity="0.15986949494039562"/>
  <circle cx="34.40344258498875" cy="353.3185372292226" r="2.7308791391698763" fill="#CFAE58" opacity="0.12190577119205474"/>
  <circle cx="1048.5252611580408" cy="594.4090852413237" r="5.938366804569943" fill="#CFAE58" opacity="0.13490242739823138"/>

  <!-- Border with glow -->
  <rect x="40" y="40" width="1120" height="550" fill="none" stroke="url(#goldGradient)" stroke-width="3" rx="12" filter="url(#softGlow)"/>

  <!-- Icon circle with premium background -->
  <circle cx="150" cy="200" r="75" fill="#CFAE58" opacity="0.15" filter="url(#softGlow)"/>
  <circle cx="150" cy="200" r="70" fill="#CFAE58" opacity="0.25"/>
  <text x="150" y="235" font-size="90" text-anchor="middle" fill="#CFAE58" filter="url(#glow)">📍</text>

  <!-- Premium logo (crown) with enhanced styling -->
  <g transform="translate(100, 70)">
    <path d="M 30 20 L 40 35 L 35 35 Z M 50 15 L 60 35 L 45 35 Z M 65 20 L 75 35 L 70 35 Z M 30 35 L 75 35 L 73 45 L 32 45 Z"
          fill="url(#goldGradient)" filter="url(#glow)" stroke="#B89842" stroke-width="0.5"/>
    <circle cx="40" cy="25" r="3" fill="#4FD1C5" filter="url(#glow)"/>
    <circle cx="52" cy="20" r="4" fill="#4FD1C5" filter="url(#glow)"/>
    <circle cx="65" cy="25" r="3" fill="#4FD1C5" filter="url(#glow)"/>
  </g>

  <!-- Title with shadow -->
  <text x="280" y="180" font-family="Georgia, serif" font-size="72" font-weight="bold"
        fill="url(#goldGradient)" filter="url(#shadow)">Contact Us</text>

  <!-- Subtitle with subtle glow -->
  <text x="280" y="230" font-family="Arial, sans-serif" font-size="36"
        fill="#D6DEE6" opacity="0.95" filter="url(#softGlow)">Visit Us on Sakhalin Island</text>

  <!-- Brand name with letter spacing -->
  <text x="280" y="300" font-family="Georgia, serif" font-size="32" font-weight="bold"
        fill="#CFAE58" letter-spacing="4" filter="url(#glow)">ROYAL KETA</text>

  <!-- Russian tagline -->
  <text x="280" y="340" font-family="Arial, sans-serif" font-size="22" font-style="italic"
        fill="#8B95A1" opacity="0.8">От икринки к королевской</text>

  <!-- Location -->
  <text x="280" y="380" font-family="Arial, sans-serif" font-size="20"
        fill="#8B95A1" opacity="0.7">Невельский район, Сахалин</text>

  <!-- Website with glow -->
  <text x="100" y="570" font-family="Arial, sans-serif" font-size="30" font-weight="bold"
        fill="#4FD1C5" filter="url(#glow)">royalketa.com</text>

  <!-- Enhanced decorative salmon silhouette -->
  <g transform="translate(950, 480)" opacity="0.2" filter="url(#softGlow)">
    <ellipse cx="0" cy="0" rx="90" ry="35" fill="#CFAE58"/>
    <path d="M 90 0 L 120 -18 L 130 0 L 120 18 Z" fill="#CFAE58"/>
    <path d="M -25 -35 L 0 -45 L 25 -35 Z" fill="#CFAE58"/>
    <ellipse cx="-50" cy="0" rx="15" ry="12" fill="#0B0F14"/>
  </g>

  <!-- Additional decorative caviar clusters -->
  <g opacity="0.2">
    <circle cx="1050" cy="120" r="6" fill="#CFAE58"/>
    <circle cx="1065" cy="115" r="5" fill="#CFAE58"/>
    <circle cx="1058" cy="130" r="4" fill="#CFAE58"/>
    <circle cx="150" cy="500" r="5" fill="#4FD1C5"/>
    <circle cx="165" cy="508" r="4" fill="#4FD1C5"/>
    <circle cx="140" cy="512" r="5" fill="#4FD1C5"/>
  </g>
</svg>