<svg width="1200" height="630" xmlns="http://www.w3.org/2000/svg">
  <defs>
    <linearGradient id="bgGradient" x1="0%" y1="0%" x2="100%" y2="100%">
      <stop offset="0%" style="stop-color:#0B0F14;stop-opacity:1" />
      <stop offset="50%" style="stop-color:#0F1619;stop-opacity:1" />
      <stop offset="100%" style="stop-color:#0F1922;stop-opacity:1" />
    </linearGradient>
    <linearGradient id="goldGradient" x1="0%" y1="0%" x2="100%" y2="0%">
      <stop offset="0%" style="stop-color:#E5D596;stop-opacity:1" />
      <stop offset="50%" style="stop-color:#CFAE58;stop-opacity:1" />
      <stop offset="100%" style="stop-color:#B89842;stop-opacity:1" />
    </linearGradient>
    <radialGradient id="oceanGradient" cx="50%" cy="50%" r="50%">
      <stop offset="0%" style="stop-color:#4FD1C5;stop-opacity:0.3" />
      <stop offset="100%" style="stop-color:#1E90A0;stop-opacity:0.05" />
    </radialGradient>
    <filter id="glow">
      <feGaussianBlur stdDeviation="5" result="coloredBlur"/>
      <feMerge>
        <feMergeNode in="coloredBlur"/>
        <feMergeNode in="SourceGraphic"/>
      </feMerge>
    </filter>
    <filter id="softGlow">
      <feGaussianBlur stdDeviation="8" result="coloredBlur"/>
      <feMerge>
        <feMergeNode in="coloredBlur"/>
        <feMergeNode in="SourceGraphic"/>
      </feMerge>
    </filter>
    <filter id="shadow">
      <feDropShadow dx="0" dy="4" stdDeviation="8" flood-color="#000000" flood-opacity="0.5"/>
    </filter>
  </defs>

  <!-- Background -->
  <rect width="1200" height="630" fill="url(#bgGradient)"/>

  <!-- Decorative ocean gradients -->
  <ellipse cx="1000" cy="150" rx="300" ry="200" fill="url(#oceanGradient)" opacity="0.4"/>
  <ellipse cx="200" cy="530" rx="250" ry="180" fill="url(#oceanGradient)" opacity="0.3"/>

  <!-- Wave patterns -->
  <path d="M 0 400 Q 300 350 600 400 T 1200 400 L 1200 630 L 0 630 Z" fill="#1E90A0" opacity="0.08"/>
  <path d="M 0 450 Q 250 420 500 450 T 1000 450 T 1200 450 L 1200 630 L 0 630 Z" fill="#4FD1C5" opacity="0.05"/>

  <!-- Caviar roe particles -->
  <circle cx="388.5721850123177" cy="52.000637137919796" r="3.638538925163923" fill="#CFAE58" opacity="0.20380087733677088"/>
  <circle cx="17.394426264968033" cy="422.7382710390329" r="3.5227550436317756" fill="#CFAE58" opacity="0.12317262160926236"/>
  <circle cx="762.4594533716356" cy="8.22759757956777" r="3.658287428076723" fill="#CFAE58" opacity="0.13310518830803553"/>
  <circle cx="396.76938446858196" cy="505.78045691333847" r="2.7927053786772467" fill="#CFAE58" opacity="0.1981890442326302"/>
  <circle cx="814.293511560838" cy="230.2811558082461" r="4.715439971404589" fill="#CFAE58" opacity="0.17247798228001054"/>
  <circle cx="101.57371972663638" cy="575.3270929149829" r="2.336675125985872" fill="#CFAE58" opacity="0.14727146045169975"/>
  <circle cx="17.049437728148575" cy="197.29793598410814" r="3.529621218197665" fill="#CFAE58" opacity="0.1797248314510324"/>
  <circle cx="117.13828204114085" cy="408.3547723829012" r="2.8169477160157106" fill="#CFAE58" opacity="0.1199714368928988"/>
  <circle cx="944.9190436579463" cy="586.8396430822488" r="4.289247373817576" fill="#CFAE58" opacity="0.16479625234230585"/>
  <circle cx="202.65796287549963" cy="497.9876582946653" r="2.4692611683322463" fill="#CFAE58" opacity="0.16508132931224934"/>
  <circle cx="1053.5825113861554" cy="482.5111742526911" r="5.610520250630441" fill="#CFAE58" opacity="0.24097901272573136"/>
  <circle cx="1085.07956617615" cy="163.92911915630313" r="3.365031694498449" fill="#CFAE58" opacity="0.24009522759685525"/>
  <circle cx="25.19455986523642" cy="235.27387947545685" r="5.803423720753193" fill="#CFAE58" opacity="0.22084221337945784"/>
  <circle cx="455.04460722164896" cy="318.77921400079174" r="4.313336589543905" fill="#CFAE58" opacity="0.24078330214298405"/>
  <circle cx="920.1707303637971" cy="136.1105427812047" r="5.692634164057521" fill="#CFAE58" opacity="0.11369217272859806"/>
  <circle cx="579.8754934659808" cy="120.41052657069314" r="5.054100290285846" fill="#CFAE58" opacity="0.2159795799120533"/>
  <circle cx="317.3923402296438" cy="29.629448697301175" r="3.9745508169344284" fill="#CFAE58" opacity="0.21997838755515803"/>
  <circle cx="903.6189718266698" cy="42.84846930989647" r="4.262066009288234" fill="#CFAE58" opacity="0.16455445770431137"/>
  <circle cx="468.89242246608944" cy="1.2873239858355179" r="2.9189822046502583" fill="#CFAE58" opacity="0.24948892780535345"/>
  <circle cx="883.86346930412" cy="105.51475395550338" r="3.6582131317040556" fill="#CFAE58" opacity="0.13634551456989036"/>
  <circle cx="1015.1440929912155" cy="111.43904229677567" r="4.648115330629276" fill="#CFAE58" opacity="0.22340964088279416"/>
  <circle cx="678.2296542062284" cy="455.76144790339526" r="3.4459979329952866" fill="#CFAE58" opacity="0.1872718651742991"/>
  <circle cx="585.1990422196977" cy="66.6327661578719" r="4.900392469752666" fill="#CFAE58" opacity="0.13275478929296025"/>
  <circle cx="945.9593695838679" cy="353.34403513993607" r="2.7938468243773835" fill="#CFAE58" opacity="0.13757022004110267"/>
  <circle cx="667.1144465951462" cy="418.27551665945225" r="5.50212944954459" fill="#CFAE58" opacity="0.19971469445031537"/>
  <circle cx="956.9594656113145" cy="579.6769187779619" r="3.5209056269174948" fill="#CFAE58" opacity="0.11167884943133098"/>
  <circle cx="824.3408009726239" cy="249.22991694562745" r="3.521372161365833" fill="#CFAE58" opacity="0.1467300587226586"/>
  <circle cx="70.7442471023243" cy="382.09876303392554" r="2.100357328020631" fill="#CFAE58" opacity="0.2133479421282275"/>
  <circle cx="124.33245643719255" cy="339.8446180353083" r="5.745643852559781" fill="#CFAE58" opacity="0.11608566335572051"/>
  <circle cx="1043.887734304771" cy="11.537053114532513" r="5.207692189670893" fill="#CFAE58" opacity="0.2437049133282604"/>

  <!-- Border with glow -->
  <rect x="40" y="40" width="1120" height="550" fill="none" stroke="url(#goldGradient)" stroke-width="3" rx="12" filter="url(#softGlow)"/>

  <!-- Icon circle with premium background -->
  <circle cx="150" cy="200" r="75" fill="#CFAE58" opacity="0.15" filter="url(#softGlow)"/>
  <circle cx="150" cy="200" r="70" fill="#CFAE58" opacity="0.25"/>
  <text x="150" y="235" font-size="90" text-anchor="middle" fill="#CFAE58" filter="url(#glow)">📍</text>

  <!-- Premium logo (crown) with enhanced styling -->
  <g transform="translate(100, 70)">
    <path d="M 30 20 L 40 35 L 35 35 Z M 50 15 L 60 35 L 45 35 Z M 65 20 L 75 35 L 70 35 Z M 30 35 L 75 35 L 73 45 L 32 45 Z"
          fill="url(#goldGradient)" filter="url(#glow)" stroke="#B89842" stroke-width="0.5"/>
    <circle cx="40" cy="25" r="3" fill="#4FD1C5" filter="url(#glow)"/>
    <circle cx="52" cy="20" r="4" fill="#4FD1C5" filter="url(#glow)"/>
    <circle cx="65" cy="25" r="3" fill="#4FD1C5" filter="url(#glow)"/>
  </g>

  <!-- Title with shadow -->
  <text x="280" y="180" font-family="Georgia, serif" font-size="72" font-weight="bold"
        fill="url(#goldGradient)" filter="url(#shadow)">Contact Us</text>

  <!-- Subtitle with subtle glow -->
  <text x="280" y="230" font-family="Arial, sans-serif" font-size="36"
        fill="#D6DEE6" opacity="0.95" filter="url(#softGlow)">Visit Us on Sakhalin Island</text>

  <!-- Brand name with letter spacing -->
  <text x="280" y="300" font-family="Georgia, serif" font-size="32" font-weight="bold"
        fill="#CFAE58" letter-spacing="4" filter="url(#glow)">ROYAL KETA</text>

  <!-- Russian tagline -->
  <text x="280" y="340" font-family="Arial, sans-serif" font-size="22" font-style="italic"
        fill="#8B95A1" opacity="0.8">От икринки к королевской</text>

  <!-- Location -->
  <text x="280" y="380" font-family="Arial, sans-serif" font-size="20"
        fill="#8B95A1" opacity="0.7">Невельский район, Сахалин</text>

  <!-- Website with glow -->
  <text x="100" y="570" font-family="Arial, sans-serif" font-size="30" font-weight="bold"
        fill="#4FD1C5" filter="url(#glow)">royalketa.com</text>

  <!-- Enhanced decorative salmon silhouette -->
  <g transform="translate(950, 480)" opacity="0.2" filter="url(#softGlow)">
    <ellipse cx="0" cy="0" rx="90" ry="35" fill="#CFAE58"/>
    <path d="M 90 0 L 120 -18 L 130 0 L 120 18 Z" fill="#CFAE58"/>
    <path d="M -25 -35 L 0 -45 L 25 -35 Z" fill="#CFAE58"/>
    <ellipse cx="-50" cy="0" rx="15" ry="12" fill="#0B0F14"/>
  </g>

  <!-- Additional decorative caviar clusters -->
  <g opacity="0.2">
    <circle cx="1050" cy="120" r="6" fill="#CFAE58"/>
    <circle cx="1065" cy="115" r="5" fill="#CFAE58"/>
    <circle cx="1058" cy="130" r="4" fill="#CFAE58"/>
    <circle cx="150" cy="500" r="5" fill="#4FD1C5"/>
    <circle cx="165" cy="508" r="4" fill="#4FD1C5"/>
    <circle cx="140" cy="512" r="5" fill="#4FD1C5"/>
  </g>
</svg>