<svg width="1200" height="630" xmlns="http://www.w3.org/2000/svg">
  <defs>
    <linearGradient id="bgGradient" x1="0%" y1="0%" x2="100%" y2="100%">
      <stop offset="0%" style="stop-color:#0B0F14;stop-opacity:1" />
      <stop offset="50%" style="stop-color:#0F1619;stop-opacity:1" />
      <stop offset="100%" style="stop-color:#0F1922;stop-opacity:1" />
    </linearGradient>
    <linearGradient id="goldGradient" x1="0%" y1="0%" x2="100%" y2="0%">
      <stop offset="0%" style="stop-color:#E5D596;stop-opacity:1" />
      <stop offset="50%" style="stop-color:#CFAE58;stop-opacity:1" />
      <stop offset="100%" style="stop-color:#B89842;stop-opacity:1" />
    </linearGradient>
    <radialGradient id="oceanGradient" cx="50%" cy="50%" r="50%">
      <stop offset="0%" style="stop-color:#4FD1C5;stop-opacity:0.3" />
      <stop offset="100%" style="stop-color:#1E90A0;stop-opacity:0.05" />
    </radialGradient>
    <filter id="glow">
      <feGaussianBlur stdDeviation="5" result="coloredBlur"/>
      <feMerge>
        <feMergeNode in="coloredBlur"/>
        <feMergeNode in="SourceGraphic"/>
      </feMerge>
    </filter>
    <filter id="softGlow">
      <feGaussianBlur stdDeviation="8" result="coloredBlur"/>
      <feMerge>
        <feMergeNode in="coloredBlur"/>
        <feMergeNode in="SourceGraphic"/>
      </feMerge>
    </filter>
    <filter id="shadow">
      <feDropShadow dx="0" dy="4" stdDeviation="8" flood-color="#000000" flood-opacity="0.5"/>
    </filter>
  </defs>

  <!-- Background -->
  <rect width="1200" height="630" fill="url(#bgGradient)"/>

  <!-- Decorative ocean gradients -->
  <ellipse cx="1000" cy="150" rx="300" ry="200" fill="url(#oceanGradient)" opacity="0.4"/>
  <ellipse cx="200" cy="530" rx="250" ry="180" fill="url(#oceanGradient)" opacity="0.3"/>

  <!-- Wave patterns -->
  <path d="M 0 400 Q 300 350 600 400 T 1200 400 L 1200 630 L 0 630 Z" fill="#1E90A0" opacity="0.08"/>
  <path d="M 0 450 Q 250 420 500 450 T 1000 450 T 1200 450 L 1200 630 L 0 630 Z" fill="#4FD1C5" opacity="0.05"/>

  <!-- Caviar roe particles -->
  <circle cx="1055.3831480321016" cy="623.2852562082885" r="2.5214658924323503" fill="#CFAE58" opacity="0.12316312758996077"/>
  <circle cx="543.2250677832998" cy="173.26057963617833" r="2.0364004221095353" fill="#CFAE58" opacity="0.19551487391750044"/>
  <circle cx="945.9586728018502" cy="307.20135502750384" r="3.9672178197649255" fill="#CFAE58" opacity="0.17184220820292118"/>
  <circle cx="866.9256803820052" cy="354.4239905837174" r="2.3177419838129363" fill="#CFAE58" opacity="0.12147535017884546"/>
  <circle cx="163.44638886461175" cy="502.198561206322" r="2.8200382491689684" fill="#CFAE58" opacity="0.18940954885835615"/>
  <circle cx="486.0256854045646" cy="163.70076500661045" r="2.108885355043474" fill="#CFAE58" opacity="0.12084964047449964"/>
  <circle cx="460.22585114939056" cy="241.86140542373101" r="5.798390365097433" fill="#CFAE58" opacity="0.16451193685240356"/>
  <circle cx="1111.3624245410651" cy="624.8787668090529" r="4.424232266573235" fill="#CFAE58" opacity="0.10043130636521311"/>
  <circle cx="972.7997773038572" cy="294.2756229046935" r="5.031175840510549" fill="#CFAE58" opacity="0.14474192817326154"/>
  <circle cx="351.5475910338831" cy="476.65634511873935" r="2.1731588847050767" fill="#CFAE58" opacity="0.17275727474145414"/>
  <circle cx="451.45584463879015" cy="289.0137384635365" r="4.458050505141712" fill="#CFAE58" opacity="0.24831024556708584"/>
  <circle cx="20.05926000438114" cy="8.18444792297287" r="4.498122500181964" fill="#CFAE58" opacity="0.16421372786720884"/>
  <circle cx="450.34969880921517" cy="476.65829927204805" r="4.424213041592059" fill="#CFAE58" opacity="0.12905516179760176"/>
  <circle cx="942.3670849159508" cy="26.109755704776237" r="4.837887030169782" fill="#CFAE58" opacity="0.2037907789086703"/>
  <circle cx="492.5078528040417" cy="441.87161864620674" r="3.7750047054532905" fill="#CFAE58" opacity="0.19988185896448657"/>
  <circle cx="459.98421561570086" cy="610.9393892702042" r="2.64561781882331" fill="#CFAE58" opacity="0.10631860242070296"/>
  <circle cx="941.4493445164748" cy="299.31811237796467" r="4.775107862282482" fill="#CFAE58" opacity="0.17370892245830677"/>
  <circle cx="471.11215488218403" cy="387.34813157029674" r="3.7127178096733826" fill="#CFAE58" opacity="0.20800673277249704"/>
  <circle cx="534.5446093492533" cy="258.7368193091902" r="5.59878110414185" fill="#CFAE58" opacity="0.1795067018422122"/>
  <circle cx="89.87237670094595" cy="515.5197134040502" r="5.778714275926491" fill="#CFAE58" opacity="0.16984775082210835"/>
  <circle cx="535.5751927781366" cy="282.3186379461559" r="2.723613349185462" fill="#CFAE58" opacity="0.1856786753148363"/>
  <circle cx="983.8909761484474" cy="452.06628460059403" r="2.112256231665269" fill="#CFAE58" opacity="0.11898116289934421"/>
  <circle cx="451.0731984589186" cy="43.76712696309422" r="3.87802221209688" fill="#CFAE58" opacity="0.23267975232138208"/>
  <circle cx="24.73377531203873" cy="477.55346436834503" r="5.757086856749213" fill="#CFAE58" opacity="0.1399881683948512"/>
  <circle cx="39.67848806130232" cy="159.82388035114016" r="3.284303238072568" fill="#CFAE58" opacity="0.19534927051091652"/>
  <circle cx="523.1039459250554" cy="19.270894464785382" r="4.4634804537438235" fill="#CFAE58" opacity="0.1524279730647573"/>
  <circle cx="427.99996712147254" cy="383.0877599772093" r="4.319787659823218" fill="#CFAE58" opacity="0.14532636868722068"/>
  <circle cx="1190.7882432319145" cy="13.376819905092518" r="4.792637008922611" fill="#CFAE58" opacity="0.1764236487726425"/>
  <circle cx="27.258139671455783" cy="167.513387390141" r="3.2390404018614447" fill="#CFAE58" opacity="0.15282883020970445"/>
  <circle cx="1107.519861195191" cy="7.21253445375153" r="2.8762945360381984" fill="#CFAE58" opacity="0.23694564983682162"/>

  <!-- Border with glow -->
  <rect x="40" y="40" width="1120" height="550" fill="none" stroke="url(#goldGradient)" stroke-width="3" rx="12" filter="url(#softGlow)"/>

  <!-- Icon circle with premium background -->
  <circle cx="150" cy="200" r="75" fill="#CFAE58" opacity="0.15" filter="url(#softGlow)"/>
  <circle cx="150" cy="200" r="70" fill="#CFAE58" opacity="0.25"/>
  <text x="150" y="235" font-size="90" text-anchor="middle" fill="#CFAE58" filter="url(#glow)">📍</text>

  <!-- Premium logo (crown) with enhanced styling -->
  <g transform="translate(100, 70)">
    <path d="M 30 20 L 40 35 L 35 35 Z M 50 15 L 60 35 L 45 35 Z M 65 20 L 75 35 L 70 35 Z M 30 35 L 75 35 L 73 45 L 32 45 Z"
          fill="url(#goldGradient)" filter="url(#glow)" stroke="#B89842" stroke-width="0.5"/>
    <circle cx="40" cy="25" r="3" fill="#4FD1C5" filter="url(#glow)"/>
    <circle cx="52" cy="20" r="4" fill="#4FD1C5" filter="url(#glow)"/>
    <circle cx="65" cy="25" r="3" fill="#4FD1C5" filter="url(#glow)"/>
  </g>

  <!-- Title with shadow -->
  <text x="280" y="180" font-family="Georgia, serif" font-size="72" font-weight="bold"
        fill="url(#goldGradient)" filter="url(#shadow)">Contact Us</text>

  <!-- Subtitle with subtle glow -->
  <text x="280" y="230" font-family="Arial, sans-serif" font-size="36"
        fill="#D6DEE6" opacity="0.95" filter="url(#softGlow)">Visit Us on Sakhalin Island</text>

  <!-- Brand name with letter spacing -->
  <text x="280" y="300" font-family="Georgia, serif" font-size="32" font-weight="bold"
        fill="#CFAE58" letter-spacing="4" filter="url(#glow)">ROYAL KETA</text>

  <!-- Russian tagline -->
  <text x="280" y="340" font-family="Arial, sans-serif" font-size="22" font-style="italic"
        fill="#8B95A1" opacity="0.8">От икринки к королевской</text>

  <!-- Location -->
  <text x="280" y="380" font-family="Arial, sans-serif" font-size="20"
        fill="#8B95A1" opacity="0.7">Невельский район, Сахалин</text>

  <!-- Website with glow -->
  <text x="100" y="570" font-family="Arial, sans-serif" font-size="30" font-weight="bold"
        fill="#4FD1C5" filter="url(#glow)">royalketa.com</text>

  <!-- Enhanced decorative salmon silhouette -->
  <g transform="translate(950, 480)" opacity="0.2" filter="url(#softGlow)">
    <ellipse cx="0" cy="0" rx="90" ry="35" fill="#CFAE58"/>
    <path d="M 90 0 L 120 -18 L 130 0 L 120 18 Z" fill="#CFAE58"/>
    <path d="M -25 -35 L 0 -45 L 25 -35 Z" fill="#CFAE58"/>
    <ellipse cx="-50" cy="0" rx="15" ry="12" fill="#0B0F14"/>
  </g>

  <!-- Additional decorative caviar clusters -->
  <g opacity="0.2">
    <circle cx="1050" cy="120" r="6" fill="#CFAE58"/>
    <circle cx="1065" cy="115" r="5" fill="#CFAE58"/>
    <circle cx="1058" cy="130" r="4" fill="#CFAE58"/>
    <circle cx="150" cy="500" r="5" fill="#4FD1C5"/>
    <circle cx="165" cy="508" r="4" fill="#4FD1C5"/>
    <circle cx="140" cy="512" r="5" fill="#4FD1C5"/>
  </g>
</svg>