<svg width="1200" height="630" xmlns="http://www.w3.org/2000/svg">
  <defs>
    <linearGradient id="bgGradient" x1="0%" y1="0%" x2="100%" y2="100%">
      <stop offset="0%" style="stop-color:#0B0F14;stop-opacity:1" />
      <stop offset="50%" style="stop-color:#0F1619;stop-opacity:1" />
      <stop offset="100%" style="stop-color:#0F1922;stop-opacity:1" />
    </linearGradient>
    <linearGradient id="goldGradient" x1="0%" y1="0%" x2="100%" y2="0%">
      <stop offset="0%" style="stop-color:#E5D596;stop-opacity:1" />
      <stop offset="50%" style="stop-color:#CFAE58;stop-opacity:1" />
      <stop offset="100%" style="stop-color:#B89842;stop-opacity:1" />
    </linearGradient>
    <radialGradient id="oceanGradient" cx="50%" cy="50%" r="50%">
      <stop offset="0%" style="stop-color:#4FD1C5;stop-opacity:0.3" />
      <stop offset="100%" style="stop-color:#1E90A0;stop-opacity:0.05" />
    </radialGradient>
    <filter id="glow">
      <feGaussianBlur stdDeviation="5" result="coloredBlur"/>
      <feMerge>
        <feMergeNode in="coloredBlur"/>
        <feMergeNode in="SourceGraphic"/>
      </feMerge>
    </filter>
    <filter id="softGlow">
      <feGaussianBlur stdDeviation="8" result="coloredBlur"/>
      <feMerge>
        <feMergeNode in="coloredBlur"/>
        <feMergeNode in="SourceGraphic"/>
      </feMerge>
    </filter>
    <filter id="shadow">
      <feDropShadow dx="0" dy="4" stdDeviation="8" flood-color="#000000" flood-opacity="0.5"/>
    </filter>
  </defs>

  <!-- Background -->
  <rect width="1200" height="630" fill="url(#bgGradient)"/>

  <!-- Decorative ocean gradients -->
  <ellipse cx="1000" cy="150" rx="300" ry="200" fill="url(#oceanGradient)" opacity="0.4"/>
  <ellipse cx="200" cy="530" rx="250" ry="180" fill="url(#oceanGradient)" opacity="0.3"/>

  <!-- Wave patterns -->
  <path d="M 0 400 Q 300 350 600 400 T 1200 400 L 1200 630 L 0 630 Z" fill="#1E90A0" opacity="0.08"/>
  <path d="M 0 450 Q 250 420 500 450 T 1000 450 T 1200 450 L 1200 630 L 0 630 Z" fill="#4FD1C5" opacity="0.05"/>

  <!-- Caviar roe particles -->
  <circle cx="60.21049042957358" cy="126.1539538436098" r="2.7638640691895198" fill="#CFAE58" opacity="0.21290906838184892"/>
  <circle cx="831.5961248572904" cy="538.7648178761015" r="2.525512833433387" fill="#CFAE58" opacity="0.1621915859233972"/>
  <circle cx="812.9876950367727" cy="121.8746825857978" r="5.1156560695917195" fill="#CFAE58" opacity="0.12090701162641192"/>
  <circle cx="355.98058955306004" cy="248.71090325770405" r="5.549984838492881" fill="#CFAE58" opacity="0.14258744967272874"/>
  <circle cx="664.0750621720277" cy="363.7957267406542" r="2.027317106310754" fill="#CFAE58" opacity="0.21580216305845323"/>
  <circle cx="918.9435482546002" cy="319.9306254393203" r="3.69281538271248" fill="#CFAE58" opacity="0.1375428738726987"/>
  <circle cx="454.6163025921384" cy="383.75040570248075" r="2.6301225782391757" fill="#CFAE58" opacity="0.15357436971894714"/>
  <circle cx="14.01764550388771" cy="452.1440131782104" r="4.253497193559723" fill="#CFAE58" opacity="0.14808602558246725"/>
  <circle cx="175.72430185863715" cy="145.41267969813148" r="3.561627145127277" fill="#CFAE58" opacity="0.12733860246209852"/>
  <circle cx="736.9484158788543" cy="512.9388470597299" r="3.379864731964" fill="#CFAE58" opacity="0.10607387142870611"/>
  <circle cx="633.6815118266674" cy="152.17998679902414" r="3.2447852889541284" fill="#CFAE58" opacity="0.11861432365056516"/>
  <circle cx="1124.4073031624664" cy="565.9947531101119" r="2.127494338977569" fill="#CFAE58" opacity="0.15807258888049402"/>
  <circle cx="318.91639488245073" cy="415.85146596493547" r="3.5283963924976556" fill="#CFAE58" opacity="0.17673339181612502"/>
  <circle cx="408.69021939861324" cy="565.0739370330482" r="2.448824252992983" fill="#CFAE58" opacity="0.18940534678027926"/>
  <circle cx="274.4352929232049" cy="559.0339506267011" r="3.2506311119673796" fill="#CFAE58" opacity="0.14256254403165358"/>
  <circle cx="387.63303128747157" cy="607.0667424907973" r="4.199126796110055" fill="#CFAE58" opacity="0.23673062161250033"/>
  <circle cx="305.2449909855222" cy="446.36321207643226" r="3.5383556299748102" fill="#CFAE58" opacity="0.20959764282131527"/>
  <circle cx="359.70634246013117" cy="452.72863007972086" r="4.385063834365464" fill="#CFAE58" opacity="0.22953576349556729"/>
  <circle cx="785.5954003291745" cy="60.912212351772475" r="2.568771174537278" fill="#CFAE58" opacity="0.10185425129372926"/>
  <circle cx="824.5405960822379" cy="492.0724003153441" r="2.1500913529435826" fill="#CFAE58" opacity="0.1946473140202542"/>
  <circle cx="1017.3060095401426" cy="513.1979684248737" r="4.053401728895901" fill="#CFAE58" opacity="0.15319153134320818"/>
  <circle cx="1085.2947582491172" cy="96.96877829574377" r="2.554552025372713" fill="#CFAE58" opacity="0.13975379372193453"/>
  <circle cx="791.1879111772467" cy="124.72713268227393" r="3.6788606365852408" fill="#CFAE58" opacity="0.1437806441024639"/>
  <circle cx="739.8770906670474" cy="442.74062006375016" r="3.175312230415451" fill="#CFAE58" opacity="0.22211731360704423"/>
  <circle cx="286.6409755129804" cy="50.189589642183265" r="4.518634096630621" fill="#CFAE58" opacity="0.2429634083987149"/>
  <circle cx="673.8971991792891" cy="60.87098209234669" r="5.954842288771377" fill="#CFAE58" opacity="0.10496435634645973"/>
  <circle cx="51.760911065073145" cy="434.1236067672887" r="3.919490221345896" fill="#CFAE58" opacity="0.16809314628149627"/>
  <circle cx="1180.0628125586156" cy="188.37360261769655" r="4.164387341017675" fill="#CFAE58" opacity="0.12262004990451533"/>
  <circle cx="215.17417541051077" cy="383.96855387585333" r="3.4005150352844327" fill="#CFAE58" opacity="0.21147649557517822"/>
  <circle cx="556.8698740640955" cy="42.67165972320426" r="5.2788780746303186" fill="#CFAE58" opacity="0.13203034928171595"/>

  <!-- Border with glow -->
  <rect x="40" y="40" width="1120" height="550" fill="none" stroke="url(#goldGradient)" stroke-width="3" rx="12" filter="url(#softGlow)"/>

  <!-- Icon circle with premium background -->
  <circle cx="150" cy="200" r="75" fill="#CFAE58" opacity="0.15" filter="url(#softGlow)"/>
  <circle cx="150" cy="200" r="70" fill="#CFAE58" opacity="0.25"/>
  <text x="150" y="235" font-size="90" text-anchor="middle" fill="#CFAE58" filter="url(#glow)">📍</text>

  <!-- Premium logo (crown) with enhanced styling -->
  <g transform="translate(100, 70)">
    <path d="M 30 20 L 40 35 L 35 35 Z M 50 15 L 60 35 L 45 35 Z M 65 20 L 75 35 L 70 35 Z M 30 35 L 75 35 L 73 45 L 32 45 Z"
          fill="url(#goldGradient)" filter="url(#glow)" stroke="#B89842" stroke-width="0.5"/>
    <circle cx="40" cy="25" r="3" fill="#4FD1C5" filter="url(#glow)"/>
    <circle cx="52" cy="20" r="4" fill="#4FD1C5" filter="url(#glow)"/>
    <circle cx="65" cy="25" r="3" fill="#4FD1C5" filter="url(#glow)"/>
  </g>

  <!-- Title with shadow -->
  <text x="280" y="180" font-family="Georgia, serif" font-size="72" font-weight="bold"
        fill="url(#goldGradient)" filter="url(#shadow)">Contact Us</text>

  <!-- Subtitle with subtle glow -->
  <text x="280" y="230" font-family="Arial, sans-serif" font-size="36"
        fill="#D6DEE6" opacity="0.95" filter="url(#softGlow)">Visit Us on Sakhalin Island</text>

  <!-- Brand name with letter spacing -->
  <text x="280" y="300" font-family="Georgia, serif" font-size="32" font-weight="bold"
        fill="#CFAE58" letter-spacing="4" filter="url(#glow)">ROYAL KETA</text>

  <!-- Russian tagline -->
  <text x="280" y="340" font-family="Arial, sans-serif" font-size="22" font-style="italic"
        fill="#8B95A1" opacity="0.8">От икринки к королевской</text>

  <!-- Location -->
  <text x="280" y="380" font-family="Arial, sans-serif" font-size="20"
        fill="#8B95A1" opacity="0.7">Невельский район, Сахалин</text>

  <!-- Website with glow -->
  <text x="100" y="570" font-family="Arial, sans-serif" font-size="30" font-weight="bold"
        fill="#4FD1C5" filter="url(#glow)">royalketa.com</text>

  <!-- Enhanced decorative salmon silhouette -->
  <g transform="translate(950, 480)" opacity="0.2" filter="url(#softGlow)">
    <ellipse cx="0" cy="0" rx="90" ry="35" fill="#CFAE58"/>
    <path d="M 90 0 L 120 -18 L 130 0 L 120 18 Z" fill="#CFAE58"/>
    <path d="M -25 -35 L 0 -45 L 25 -35 Z" fill="#CFAE58"/>
    <ellipse cx="-50" cy="0" rx="15" ry="12" fill="#0B0F14"/>
  </g>

  <!-- Additional decorative caviar clusters -->
  <g opacity="0.2">
    <circle cx="1050" cy="120" r="6" fill="#CFAE58"/>
    <circle cx="1065" cy="115" r="5" fill="#CFAE58"/>
    <circle cx="1058" cy="130" r="4" fill="#CFAE58"/>
    <circle cx="150" cy="500" r="5" fill="#4FD1C5"/>
    <circle cx="165" cy="508" r="4" fill="#4FD1C5"/>
    <circle cx="140" cy="512" r="5" fill="#4FD1C5"/>
  </g>
</svg>