<svg width="1200" height="630" xmlns="http://www.w3.org/2000/svg">
  <defs>
    <linearGradient id="bgGradient" x1="0%" y1="0%" x2="100%" y2="100%">
      <stop offset="0%" style="stop-color:#0B0F14;stop-opacity:1" />
      <stop offset="50%" style="stop-color:#0F1619;stop-opacity:1" />
      <stop offset="100%" style="stop-color:#0F1922;stop-opacity:1" />
    </linearGradient>
    <linearGradient id="goldGradient" x1="0%" y1="0%" x2="100%" y2="0%">
      <stop offset="0%" style="stop-color:#E5D596;stop-opacity:1" />
      <stop offset="50%" style="stop-color:#CFAE58;stop-opacity:1" />
      <stop offset="100%" style="stop-color:#B89842;stop-opacity:1" />
    </linearGradient>
    <radialGradient id="oceanGradient" cx="50%" cy="50%" r="50%">
      <stop offset="0%" style="stop-color:#4FD1C5;stop-opacity:0.3" />
      <stop offset="100%" style="stop-color:#1E90A0;stop-opacity:0.05" />
    </radialGradient>
    <filter id="glow">
      <feGaussianBlur stdDeviation="5" result="coloredBlur"/>
      <feMerge>
        <feMergeNode in="coloredBlur"/>
        <feMergeNode in="SourceGraphic"/>
      </feMerge>
    </filter>
    <filter id="softGlow">
      <feGaussianBlur stdDeviation="8" result="coloredBlur"/>
      <feMerge>
        <feMergeNode in="coloredBlur"/>
        <feMergeNode in="SourceGraphic"/>
      </feMerge>
    </filter>
    <filter id="shadow">
      <feDropShadow dx="0" dy="4" stdDeviation="8" flood-color="#000000" flood-opacity="0.5"/>
    </filter>
  </defs>

  <!-- Background -->
  <rect width="1200" height="630" fill="url(#bgGradient)"/>

  <!-- Decorative ocean gradients -->
  <ellipse cx="1000" cy="150" rx="300" ry="200" fill="url(#oceanGradient)" opacity="0.4"/>
  <ellipse cx="200" cy="530" rx="250" ry="180" fill="url(#oceanGradient)" opacity="0.3"/>

  <!-- Wave patterns -->
  <path d="M 0 400 Q 300 350 600 400 T 1200 400 L 1200 630 L 0 630 Z" fill="#1E90A0" opacity="0.08"/>
  <path d="M 0 450 Q 250 420 500 450 T 1000 450 T 1200 450 L 1200 630 L 0 630 Z" fill="#4FD1C5" opacity="0.05"/>

  <!-- Caviar roe particles -->
  <circle cx="1033.4337353046662" cy="451.0795393766014" r="2.478409986262986" fill="#CFAE58" opacity="0.20614220106169906"/>
  <circle cx="447.0793184889383" cy="391.7843185735968" r="5.019381048958707" fill="#CFAE58" opacity="0.1729177856691595"/>
  <circle cx="86.49111049309361" cy="444.74429705928003" r="2.911262327058881" fill="#CFAE58" opacity="0.23714981188402492"/>
  <circle cx="218.83835732433053" cy="90.53452281918577" r="2.1238594307490954" fill="#CFAE58" opacity="0.22356593509495645"/>
  <circle cx="218.85866881215793" cy="143.91916485559352" r="3.6858799442332186" fill="#CFAE58" opacity="0.1934087122991971"/>
  <circle cx="400.92610774448974" cy="140.09296364189592" r="3.4107409550593513" fill="#CFAE58" opacity="0.17843431659081793"/>
  <circle cx="1009.7037560739373" cy="289.14800148901503" r="5.457778214168458" fill="#CFAE58" opacity="0.11079989185283233"/>
  <circle cx="565.0040699155975" cy="224.00255474726185" r="4.516889338567689" fill="#CFAE58" opacity="0.10640956653843392"/>
  <circle cx="606.73873419696" cy="86.66082801757405" r="4.879540968779909" fill="#CFAE58" opacity="0.20137724064788065"/>
  <circle cx="1113.1816820456759" cy="457.32439213070444" r="2.124045527304612" fill="#CFAE58" opacity="0.2287762415048951"/>
  <circle cx="1169.425842148286" cy="169.79946036982943" r="5.956968428071741" fill="#CFAE58" opacity="0.22101482390116708"/>
  <circle cx="820.3028604134606" cy="593.0036682613287" r="4.097176000825316" fill="#CFAE58" opacity="0.15065621962295547"/>
  <circle cx="312.6632558178375" cy="335.18336847446403" r="4.118995333308586" fill="#CFAE58" opacity="0.18424926701021319"/>
  <circle cx="1055.972372594899" cy="100.84430973451992" r="2.1777371221404005" fill="#CFAE58" opacity="0.2094249474829375"/>
  <circle cx="668.5512896161372" cy="248.5244451100887" r="4.617449428705794" fill="#CFAE58" opacity="0.11501761415394693"/>
  <circle cx="1143.817990730696" cy="352.88125313235776" r="4.858477498567377" fill="#CFAE58" opacity="0.21879088788954457"/>
  <circle cx="80.5739060923317" cy="344.10972687329274" r="3.071240362559836" fill="#CFAE58" opacity="0.230885864437988"/>
  <circle cx="799.3828572726688" cy="323.72773365374263" r="4.156711882013622" fill="#CFAE58" opacity="0.1707823236418008"/>
  <circle cx="356.55795271702823" cy="28.314243070153424" r="3.984382257924458" fill="#CFAE58" opacity="0.13206168279613112"/>
  <circle cx="480.6247021521625" cy="425.03810661781563" r="3.409580022159835" fill="#CFAE58" opacity="0.1719546118030691"/>
  <circle cx="1009.6846056821649" cy="58.55111106334353" r="2.2575224951701616" fill="#CFAE58" opacity="0.14531158135936223"/>
  <circle cx="71.237085451512" cy="158.51778090824035" r="3.832432378295704" fill="#CFAE58" opacity="0.10086229809162564"/>
  <circle cx="264.8718614780115" cy="362.62765813584866" r="3.784932065580138" fill="#CFAE58" opacity="0.1322886616799666"/>
  <circle cx="986.3177191290474" cy="6.394990767393569" r="3.9728821193639234" fill="#CFAE58" opacity="0.1306603541971595"/>
  <circle cx="841.2207089728089" cy="42.95702695081247" r="4.239821518481662" fill="#CFAE58" opacity="0.12162535899124605"/>
  <circle cx="499.0057120684651" cy="123.60454282215149" r="5.53498350540281" fill="#CFAE58" opacity="0.2239553394410006"/>
  <circle cx="506.2374619618693" cy="410.6188613718039" r="5.563769417241485" fill="#CFAE58" opacity="0.15460589751588538"/>
  <circle cx="675.8474579331169" cy="130.8769918422471" r="3.5864695320500077" fill="#CFAE58" opacity="0.19061129312104902"/>
  <circle cx="927.2419781736387" cy="372.6344969498635" r="3.9116063880746523" fill="#CFAE58" opacity="0.2229960066847538"/>
  <circle cx="843.3430330877167" cy="262.09968458767696" r="3.360812929452651" fill="#CFAE58" opacity="0.13282228151151312"/>

  <!-- Border with glow -->
  <rect x="40" y="40" width="1120" height="550" fill="none" stroke="url(#goldGradient)" stroke-width="3" rx="12" filter="url(#softGlow)"/>

  <!-- Icon circle with premium background -->
  <circle cx="150" cy="200" r="75" fill="#CFAE58" opacity="0.15" filter="url(#softGlow)"/>
  <circle cx="150" cy="200" r="70" fill="#CFAE58" opacity="0.25"/>
  <text x="150" y="235" font-size="90" text-anchor="middle" fill="#CFAE58" filter="url(#glow)">📍</text>

  <!-- Premium logo (crown) with enhanced styling -->
  <g transform="translate(100, 70)">
    <path d="M 30 20 L 40 35 L 35 35 Z M 50 15 L 60 35 L 45 35 Z M 65 20 L 75 35 L 70 35 Z M 30 35 L 75 35 L 73 45 L 32 45 Z"
          fill="url(#goldGradient)" filter="url(#glow)" stroke="#B89842" stroke-width="0.5"/>
    <circle cx="40" cy="25" r="3" fill="#4FD1C5" filter="url(#glow)"/>
    <circle cx="52" cy="20" r="4" fill="#4FD1C5" filter="url(#glow)"/>
    <circle cx="65" cy="25" r="3" fill="#4FD1C5" filter="url(#glow)"/>
  </g>

  <!-- Title with shadow -->
  <text x="280" y="180" font-family="Georgia, serif" font-size="72" font-weight="bold"
        fill="url(#goldGradient)" filter="url(#shadow)">Contact Us</text>

  <!-- Subtitle with subtle glow -->
  <text x="280" y="230" font-family="Arial, sans-serif" font-size="36"
        fill="#D6DEE6" opacity="0.95" filter="url(#softGlow)">Visit Us on Sakhalin Island</text>

  <!-- Brand name with letter spacing -->
  <text x="280" y="300" font-family="Georgia, serif" font-size="32" font-weight="bold"
        fill="#CFAE58" letter-spacing="4" filter="url(#glow)">ROYAL KETA</text>

  <!-- Russian tagline -->
  <text x="280" y="340" font-family="Arial, sans-serif" font-size="22" font-style="italic"
        fill="#8B95A1" opacity="0.8">От икринки к королевской</text>

  <!-- Location -->
  <text x="280" y="380" font-family="Arial, sans-serif" font-size="20"
        fill="#8B95A1" opacity="0.7">Невельский район, Сахалин</text>

  <!-- Website with glow -->
  <text x="100" y="570" font-family="Arial, sans-serif" font-size="30" font-weight="bold"
        fill="#4FD1C5" filter="url(#glow)">royalketa.com</text>

  <!-- Enhanced decorative salmon silhouette -->
  <g transform="translate(950, 480)" opacity="0.2" filter="url(#softGlow)">
    <ellipse cx="0" cy="0" rx="90" ry="35" fill="#CFAE58"/>
    <path d="M 90 0 L 120 -18 L 130 0 L 120 18 Z" fill="#CFAE58"/>
    <path d="M -25 -35 L 0 -45 L 25 -35 Z" fill="#CFAE58"/>
    <ellipse cx="-50" cy="0" rx="15" ry="12" fill="#0B0F14"/>
  </g>

  <!-- Additional decorative caviar clusters -->
  <g opacity="0.2">
    <circle cx="1050" cy="120" r="6" fill="#CFAE58"/>
    <circle cx="1065" cy="115" r="5" fill="#CFAE58"/>
    <circle cx="1058" cy="130" r="4" fill="#CFAE58"/>
    <circle cx="150" cy="500" r="5" fill="#4FD1C5"/>
    <circle cx="165" cy="508" r="4" fill="#4FD1C5"/>
    <circle cx="140" cy="512" r="5" fill="#4FD1C5"/>
  </g>
</svg>