<svg width="1200" height="630" xmlns="http://www.w3.org/2000/svg">
  <defs>
    <linearGradient id="bgGradient" x1="0%" y1="0%" x2="100%" y2="100%">
      <stop offset="0%" style="stop-color:#0B0F14;stop-opacity:1" />
      <stop offset="50%" style="stop-color:#0F1619;stop-opacity:1" />
      <stop offset="100%" style="stop-color:#0F1922;stop-opacity:1" />
    </linearGradient>
    <linearGradient id="goldGradient" x1="0%" y1="0%" x2="100%" y2="0%">
      <stop offset="0%" style="stop-color:#E5D596;stop-opacity:1" />
      <stop offset="50%" style="stop-color:#CFAE58;stop-opacity:1" />
      <stop offset="100%" style="stop-color:#B89842;stop-opacity:1" />
    </linearGradient>
    <radialGradient id="oceanGradient" cx="50%" cy="50%" r="50%">
      <stop offset="0%" style="stop-color:#4FD1C5;stop-opacity:0.3" />
      <stop offset="100%" style="stop-color:#1E90A0;stop-opacity:0.05" />
    </radialGradient>
    <filter id="glow">
      <feGaussianBlur stdDeviation="5" result="coloredBlur"/>
      <feMerge>
        <feMergeNode in="coloredBlur"/>
        <feMergeNode in="SourceGraphic"/>
      </feMerge>
    </filter>
    <filter id="softGlow">
      <feGaussianBlur stdDeviation="8" result="coloredBlur"/>
      <feMerge>
        <feMergeNode in="coloredBlur"/>
        <feMergeNode in="SourceGraphic"/>
      </feMerge>
    </filter>
    <filter id="shadow">
      <feDropShadow dx="0" dy="4" stdDeviation="8" flood-color="#000000" flood-opacity="0.5"/>
    </filter>
  </defs>

  <!-- Background -->
  <rect width="1200" height="630" fill="url(#bgGradient)"/>

  <!-- Decorative ocean gradients -->
  <ellipse cx="1000" cy="150" rx="300" ry="200" fill="url(#oceanGradient)" opacity="0.4"/>
  <ellipse cx="200" cy="530" rx="250" ry="180" fill="url(#oceanGradient)" opacity="0.3"/>

  <!-- Wave patterns -->
  <path d="M 0 400 Q 300 350 600 400 T 1200 400 L 1200 630 L 0 630 Z" fill="#1E90A0" opacity="0.08"/>
  <path d="M 0 450 Q 250 420 500 450 T 1000 450 T 1200 450 L 1200 630 L 0 630 Z" fill="#4FD1C5" opacity="0.05"/>

  <!-- Caviar roe particles -->
  <circle cx="216.24440361253" cy="104.3093586461546" r="3.0748964558013583" fill="#CFAE58" opacity="0.17115868496556536"/>
  <circle cx="807.6884608459234" cy="592.2890427662185" r="4.301675229661632" fill="#CFAE58" opacity="0.20499453215104668"/>
  <circle cx="1050.1458766729484" cy="451.23370076893025" r="2.056688943854777" fill="#CFAE58" opacity="0.17992048090925866"/>
  <circle cx="788.3460245577792" cy="175.1788561876284" r="3.836119462762899" fill="#CFAE58" opacity="0.20996637705272325"/>
  <circle cx="1140.3648719614641" cy="384.63870564900185" r="4.389371379979468" fill="#CFAE58" opacity="0.1997410657783285"/>
  <circle cx="36.60653221410479" cy="490.0233963835259" r="2.5242490197779013" fill="#CFAE58" opacity="0.20493503214230308"/>
  <circle cx="1009.8423937387879" cy="60.522129750008844" r="5.544180954185974" fill="#CFAE58" opacity="0.224200120500883"/>
  <circle cx="1192.5857748699161" cy="109.68310148552993" r="4.976894103920307" fill="#CFAE58" opacity="0.23223116014061038"/>
  <circle cx="823.508110938" cy="81.59917158745536" r="3.2682928436922163" fill="#CFAE58" opacity="0.19094217274436853"/>
  <circle cx="85.84196733778188" cy="23.736428838840183" r="2.0493584142355266" fill="#CFAE58" opacity="0.19402590396049868"/>
  <circle cx="931.5923306680886" cy="569.3443273300511" r="3.352636082960996" fill="#CFAE58" opacity="0.24445705911542842"/>
  <circle cx="893.6106376652594" cy="32.7508116721674" r="5.181074366868577" fill="#CFAE58" opacity="0.19096946774037166"/>
  <circle cx="261.1633878450003" cy="271.6787551444826" r="5.264811294393287" fill="#CFAE58" opacity="0.17412479073411663"/>
  <circle cx="310.2780708625267" cy="85.1507895258237" r="2.4152276408544617" fill="#CFAE58" opacity="0.24972283445864596"/>
  <circle cx="860.0731833465949" cy="358.9654391208752" r="4.7205383940285355" fill="#CFAE58" opacity="0.1919738168280256"/>
  <circle cx="175.01336470465807" cy="596.2585624261473" r="4.459072251782447" fill="#CFAE58" opacity="0.22658699241928507"/>
  <circle cx="332.2418709530393" cy="373.0432204457739" r="5.755752148422993" fill="#CFAE58" opacity="0.10245471102995718"/>
  <circle cx="847.1221809291721" cy="234.65295436158428" r="4.638967162036926" fill="#CFAE58" opacity="0.18182412060658099"/>
  <circle cx="495.8070217739141" cy="615.9662496435951" r="5.813400461389607" fill="#CFAE58" opacity="0.23381288494784108"/>
  <circle cx="942.1485681130439" cy="231.8711450132866" r="3.1053041526512715" fill="#CFAE58" opacity="0.12239948949407031"/>
  <circle cx="1094.9260047110656" cy="527.7873627672452" r="3.3844668408401093" fill="#CFAE58" opacity="0.10716697891530763"/>
  <circle cx="134.80972520064566" cy="313.08778941773335" r="3.0311680473816383" fill="#CFAE58" opacity="0.1223315733152374"/>
  <circle cx="704.6114329975316" cy="281.12488642857744" r="5.347159002635781" fill="#CFAE58" opacity="0.2031647875046816"/>
  <circle cx="558.8805294294557" cy="478.34149878375473" r="3.97672166657319" fill="#CFAE58" opacity="0.12771937089810106"/>
  <circle cx="403.38907675343575" cy="370.7008612566953" r="4.962471718357032" fill="#CFAE58" opacity="0.1258888428388139"/>
  <circle cx="959.3509717594083" cy="432.30040488691924" r="4.1765341317443" fill="#CFAE58" opacity="0.11013006346900707"/>
  <circle cx="875.4354183261424" cy="381.93228720515407" r="4.941819484738964" fill="#CFAE58" opacity="0.21703344961519416"/>
  <circle cx="449.74953757506" cy="308.28168078268243" r="5.576760661547987" fill="#CFAE58" opacity="0.13067733072453216"/>
  <circle cx="895.0017115288547" cy="46.89491847905275" r="4.6984915758149866" fill="#CFAE58" opacity="0.12749526323791813"/>
  <circle cx="986.8379567939709" cy="557.9147727460894" r="4.646451282174028" fill="#CFAE58" opacity="0.16532354014370787"/>

  <!-- Border with glow -->
  <rect x="40" y="40" width="1120" height="550" fill="none" stroke="url(#goldGradient)" stroke-width="3" rx="12" filter="url(#softGlow)"/>

  <!-- Icon circle with premium background -->
  <circle cx="150" cy="200" r="75" fill="#CFAE58" opacity="0.15" filter="url(#softGlow)"/>
  <circle cx="150" cy="200" r="70" fill="#CFAE58" opacity="0.25"/>
  <text x="150" y="235" font-size="90" text-anchor="middle" fill="#CFAE58" filter="url(#glow)">📍</text>

  <!-- Premium logo (crown) with enhanced styling -->
  <g transform="translate(100, 70)">
    <path d="M 30 20 L 40 35 L 35 35 Z M 50 15 L 60 35 L 45 35 Z M 65 20 L 75 35 L 70 35 Z M 30 35 L 75 35 L 73 45 L 32 45 Z"
          fill="url(#goldGradient)" filter="url(#glow)" stroke="#B89842" stroke-width="0.5"/>
    <circle cx="40" cy="25" r="3" fill="#4FD1C5" filter="url(#glow)"/>
    <circle cx="52" cy="20" r="4" fill="#4FD1C5" filter="url(#glow)"/>
    <circle cx="65" cy="25" r="3" fill="#4FD1C5" filter="url(#glow)"/>
  </g>

  <!-- Title with shadow -->
  <text x="280" y="180" font-family="Georgia, serif" font-size="72" font-weight="bold"
        fill="url(#goldGradient)" filter="url(#shadow)">Contact Us</text>

  <!-- Subtitle with subtle glow -->
  <text x="280" y="230" font-family="Arial, sans-serif" font-size="36"
        fill="#D6DEE6" opacity="0.95" filter="url(#softGlow)">Visit Us on Sakhalin Island</text>

  <!-- Brand name with letter spacing -->
  <text x="280" y="300" font-family="Georgia, serif" font-size="32" font-weight="bold"
        fill="#CFAE58" letter-spacing="4" filter="url(#glow)">ROYAL KETA</text>

  <!-- Russian tagline -->
  <text x="280" y="340" font-family="Arial, sans-serif" font-size="22" font-style="italic"
        fill="#8B95A1" opacity="0.8">От икринки к королевской</text>

  <!-- Location -->
  <text x="280" y="380" font-family="Arial, sans-serif" font-size="20"
        fill="#8B95A1" opacity="0.7">Невельский район, Сахалин</text>

  <!-- Website with glow -->
  <text x="100" y="570" font-family="Arial, sans-serif" font-size="30" font-weight="bold"
        fill="#4FD1C5" filter="url(#glow)">royalketa.com</text>

  <!-- Enhanced decorative salmon silhouette -->
  <g transform="translate(950, 480)" opacity="0.2" filter="url(#softGlow)">
    <ellipse cx="0" cy="0" rx="90" ry="35" fill="#CFAE58"/>
    <path d="M 90 0 L 120 -18 L 130 0 L 120 18 Z" fill="#CFAE58"/>
    <path d="M -25 -35 L 0 -45 L 25 -35 Z" fill="#CFAE58"/>
    <ellipse cx="-50" cy="0" rx="15" ry="12" fill="#0B0F14"/>
  </g>

  <!-- Additional decorative caviar clusters -->
  <g opacity="0.2">
    <circle cx="1050" cy="120" r="6" fill="#CFAE58"/>
    <circle cx="1065" cy="115" r="5" fill="#CFAE58"/>
    <circle cx="1058" cy="130" r="4" fill="#CFAE58"/>
    <circle cx="150" cy="500" r="5" fill="#4FD1C5"/>
    <circle cx="165" cy="508" r="4" fill="#4FD1C5"/>
    <circle cx="140" cy="512" r="5" fill="#4FD1C5"/>
  </g>
</svg>