<svg width="1200" height="630" xmlns="http://www.w3.org/2000/svg">
  <defs>
    <linearGradient id="bgGradient" x1="0%" y1="0%" x2="100%" y2="100%">
      <stop offset="0%" style="stop-color:#0B0F14;stop-opacity:1" />
      <stop offset="50%" style="stop-color:#0F1619;stop-opacity:1" />
      <stop offset="100%" style="stop-color:#0F1922;stop-opacity:1" />
    </linearGradient>
    <linearGradient id="goldGradient" x1="0%" y1="0%" x2="100%" y2="0%">
      <stop offset="0%" style="stop-color:#E5D596;stop-opacity:1" />
      <stop offset="50%" style="stop-color:#CFAE58;stop-opacity:1" />
      <stop offset="100%" style="stop-color:#B89842;stop-opacity:1" />
    </linearGradient>
    <radialGradient id="oceanGradient" cx="50%" cy="50%" r="50%">
      <stop offset="0%" style="stop-color:#4FD1C5;stop-opacity:0.3" />
      <stop offset="100%" style="stop-color:#1E90A0;stop-opacity:0.05" />
    </radialGradient>
    <filter id="glow">
      <feGaussianBlur stdDeviation="5" result="coloredBlur"/>
      <feMerge>
        <feMergeNode in="coloredBlur"/>
        <feMergeNode in="SourceGraphic"/>
      </feMerge>
    </filter>
    <filter id="softGlow">
      <feGaussianBlur stdDeviation="8" result="coloredBlur"/>
      <feMerge>
        <feMergeNode in="coloredBlur"/>
        <feMergeNode in="SourceGraphic"/>
      </feMerge>
    </filter>
    <filter id="shadow">
      <feDropShadow dx="0" dy="4" stdDeviation="8" flood-color="#000000" flood-opacity="0.5"/>
    </filter>
  </defs>

  <!-- Background -->
  <rect width="1200" height="630" fill="url(#bgGradient)"/>

  <!-- Decorative ocean gradients -->
  <ellipse cx="1000" cy="150" rx="300" ry="200" fill="url(#oceanGradient)" opacity="0.4"/>
  <ellipse cx="200" cy="530" rx="250" ry="180" fill="url(#oceanGradient)" opacity="0.3"/>

  <!-- Wave patterns -->
  <path d="M 0 400 Q 300 350 600 400 T 1200 400 L 1200 630 L 0 630 Z" fill="#1E90A0" opacity="0.08"/>
  <path d="M 0 450 Q 250 420 500 450 T 1000 450 T 1200 450 L 1200 630 L 0 630 Z" fill="#4FD1C5" opacity="0.05"/>

  <!-- Caviar roe particles -->
  <circle cx="975.9262175657939" cy="587.4003651603416" r="5.057364935359876" fill="#CFAE58" opacity="0.2099364624255218"/>
  <circle cx="161.84654535656756" cy="7.111590367985901" r="3.0448805740630136" fill="#CFAE58" opacity="0.20316128024370753"/>
  <circle cx="926.3444732718658" cy="1.761247908576663" r="3.6893204026002095" fill="#CFAE58" opacity="0.1025721205947091"/>
  <circle cx="408.0441352617278" cy="242.40040549573376" r="3.121499275249003" fill="#CFAE58" opacity="0.1878675703168275"/>
  <circle cx="910.7471558130379" cy="137.39451137605843" r="4.141278498956889" fill="#CFAE58" opacity="0.17517492016104694"/>
  <circle cx="947.051920356445" cy="381.35735435460623" r="3.2050514777713563" fill="#CFAE58" opacity="0.214280112055879"/>
  <circle cx="841.1820784204994" cy="578.094312743713" r="5.466549642852545" fill="#CFAE58" opacity="0.20592031804595562"/>
  <circle cx="1119.8446556772947" cy="310.2458380554062" r="2.8635538363832445" fill="#CFAE58" opacity="0.16013439632631615"/>
  <circle cx="1128.2934136716624" cy="592.7240518267336" r="4.877358303049872" fill="#CFAE58" opacity="0.1264467668161428"/>
  <circle cx="1086.51158072352" cy="152.28064393334495" r="4.15577713367488" fill="#CFAE58" opacity="0.24556035933493162"/>
  <circle cx="528.6975868230239" cy="576.8871728375586" r="2.2199380783140588" fill="#CFAE58" opacity="0.14026833703403968"/>
  <circle cx="411.0470457580028" cy="389.9009964441716" r="5.602436153807778" fill="#CFAE58" opacity="0.1739980881105222"/>
  <circle cx="286.7592784999891" cy="181.91148471517081" r="3.65972906163873" fill="#CFAE58" opacity="0.15245504041728764"/>
  <circle cx="948.398062178793" cy="60.3895906163021" r="4.579770788111983" fill="#CFAE58" opacity="0.10822629394971822"/>
  <circle cx="894.0211893971152" cy="586.8891612594418" r="3.536481474697344" fill="#CFAE58" opacity="0.2469536804749448"/>
  <circle cx="331.9783499228032" cy="199.06811871461503" r="2.8807373911284118" fill="#CFAE58" opacity="0.18504102781396287"/>
  <circle cx="1025.6796529706817" cy="536.3746940544016" r="3.0723992727684757" fill="#CFAE58" opacity="0.21089899167921045"/>
  <circle cx="501.9812928164913" cy="628.9282337153109" r="5.938072399348807" fill="#CFAE58" opacity="0.16809078098795951"/>
  <circle cx="97.18016788056913" cy="138.88828500911444" r="5.2671399075514405" fill="#CFAE58" opacity="0.13412572429221153"/>
  <circle cx="64.47800186923058" cy="458.37593660604216" r="4.085656737856748" fill="#CFAE58" opacity="0.20685519343655423"/>
  <circle cx="1021.2368370875519" cy="589.2128976923384" r="2.8675823234252023" fill="#CFAE58" opacity="0.15492639280893716"/>
  <circle cx="691.8212378455502" cy="237.48495100109895" r="2.092024786318598" fill="#CFAE58" opacity="0.24908240924475736"/>
  <circle cx="863.8226960112008" cy="253.86376985247705" r="5.124402091999421" fill="#CFAE58" opacity="0.20205623015877444"/>
  <circle cx="151.47575673380916" cy="70.0221561659396" r="4.11939512845654" fill="#CFAE58" opacity="0.19206813026285968"/>
  <circle cx="829.7938828373556" cy="392.5368573780229" r="3.0602123390313394" fill="#CFAE58" opacity="0.1783530894124459"/>
  <circle cx="960.1467192437732" cy="12.374779947084226" r="2.4061602655381695" fill="#CFAE58" opacity="0.1343940046355503"/>
  <circle cx="499.80716067722847" cy="236.4561686750797" r="5.601904832181799" fill="#CFAE58" opacity="0.10837855102910778"/>
  <circle cx="1105.2100198659787" cy="623.3459080350309" r="2.9527607755078717" fill="#CFAE58" opacity="0.12581529489820448"/>
  <circle cx="1143.8870278848658" cy="437.6329446464846" r="2.990485419924572" fill="#CFAE58" opacity="0.13476480323997403"/>
  <circle cx="968.7605082665366" cy="254.42454109280575" r="3.9629243992492857" fill="#CFAE58" opacity="0.12893848127900148"/>

  <!-- Border with glow -->
  <rect x="40" y="40" width="1120" height="550" fill="none" stroke="url(#goldGradient)" stroke-width="3" rx="12" filter="url(#softGlow)"/>

  <!-- Icon circle with premium background -->
  <circle cx="150" cy="200" r="75" fill="#CFAE58" opacity="0.15" filter="url(#softGlow)"/>
  <circle cx="150" cy="200" r="70" fill="#CFAE58" opacity="0.25"/>
  <text x="150" y="235" font-size="90" text-anchor="middle" fill="#CFAE58" filter="url(#glow)">📍</text>

  <!-- Premium logo (crown) with enhanced styling -->
  <g transform="translate(100, 70)">
    <path d="M 30 20 L 40 35 L 35 35 Z M 50 15 L 60 35 L 45 35 Z M 65 20 L 75 35 L 70 35 Z M 30 35 L 75 35 L 73 45 L 32 45 Z"
          fill="url(#goldGradient)" filter="url(#glow)" stroke="#B89842" stroke-width="0.5"/>
    <circle cx="40" cy="25" r="3" fill="#4FD1C5" filter="url(#glow)"/>
    <circle cx="52" cy="20" r="4" fill="#4FD1C5" filter="url(#glow)"/>
    <circle cx="65" cy="25" r="3" fill="#4FD1C5" filter="url(#glow)"/>
  </g>

  <!-- Title with shadow -->
  <text x="280" y="180" font-family="Georgia, serif" font-size="72" font-weight="bold"
        fill="url(#goldGradient)" filter="url(#shadow)">Contact Us</text>

  <!-- Subtitle with subtle glow -->
  <text x="280" y="230" font-family="Arial, sans-serif" font-size="36"
        fill="#D6DEE6" opacity="0.95" filter="url(#softGlow)">Visit Us on Sakhalin Island</text>

  <!-- Brand name with letter spacing -->
  <text x="280" y="300" font-family="Georgia, serif" font-size="32" font-weight="bold"
        fill="#CFAE58" letter-spacing="4" filter="url(#glow)">ROYAL KETA</text>

  <!-- Russian tagline -->
  <text x="280" y="340" font-family="Arial, sans-serif" font-size="22" font-style="italic"
        fill="#8B95A1" opacity="0.8">От икринки к королевской</text>

  <!-- Location -->
  <text x="280" y="380" font-family="Arial, sans-serif" font-size="20"
        fill="#8B95A1" opacity="0.7">Невельский район, Сахалин</text>

  <!-- Website with glow -->
  <text x="100" y="570" font-family="Arial, sans-serif" font-size="30" font-weight="bold"
        fill="#4FD1C5" filter="url(#glow)">royalketa.com</text>

  <!-- Enhanced decorative salmon silhouette -->
  <g transform="translate(950, 480)" opacity="0.2" filter="url(#softGlow)">
    <ellipse cx="0" cy="0" rx="90" ry="35" fill="#CFAE58"/>
    <path d="M 90 0 L 120 -18 L 130 0 L 120 18 Z" fill="#CFAE58"/>
    <path d="M -25 -35 L 0 -45 L 25 -35 Z" fill="#CFAE58"/>
    <ellipse cx="-50" cy="0" rx="15" ry="12" fill="#0B0F14"/>
  </g>

  <!-- Additional decorative caviar clusters -->
  <g opacity="0.2">
    <circle cx="1050" cy="120" r="6" fill="#CFAE58"/>
    <circle cx="1065" cy="115" r="5" fill="#CFAE58"/>
    <circle cx="1058" cy="130" r="4" fill="#CFAE58"/>
    <circle cx="150" cy="500" r="5" fill="#4FD1C5"/>
    <circle cx="165" cy="508" r="4" fill="#4FD1C5"/>
    <circle cx="140" cy="512" r="5" fill="#4FD1C5"/>
  </g>
</svg>