<svg width="1200" height="630" xmlns="http://www.w3.org/2000/svg">
  <defs>
    <linearGradient id="bgGradient" x1="0%" y1="0%" x2="100%" y2="100%">
      <stop offset="0%" style="stop-color:#0B0F14;stop-opacity:1" />
      <stop offset="50%" style="stop-color:#0F1619;stop-opacity:1" />
      <stop offset="100%" style="stop-color:#0F1922;stop-opacity:1" />
    </linearGradient>
    <linearGradient id="goldGradient" x1="0%" y1="0%" x2="100%" y2="0%">
      <stop offset="0%" style="stop-color:#E5D596;stop-opacity:1" />
      <stop offset="50%" style="stop-color:#CFAE58;stop-opacity:1" />
      <stop offset="100%" style="stop-color:#B89842;stop-opacity:1" />
    </linearGradient>
    <radialGradient id="oceanGradient" cx="50%" cy="50%" r="50%">
      <stop offset="0%" style="stop-color:#4FD1C5;stop-opacity:0.3" />
      <stop offset="100%" style="stop-color:#1E90A0;stop-opacity:0.05" />
    </radialGradient>
    <filter id="glow">
      <feGaussianBlur stdDeviation="5" result="coloredBlur"/>
      <feMerge>
        <feMergeNode in="coloredBlur"/>
        <feMergeNode in="SourceGraphic"/>
      </feMerge>
    </filter>
    <filter id="softGlow">
      <feGaussianBlur stdDeviation="8" result="coloredBlur"/>
      <feMerge>
        <feMergeNode in="coloredBlur"/>
        <feMergeNode in="SourceGraphic"/>
      </feMerge>
    </filter>
    <filter id="shadow">
      <feDropShadow dx="0" dy="4" stdDeviation="8" flood-color="#000000" flood-opacity="0.5"/>
    </filter>
  </defs>

  <!-- Background -->
  <rect width="1200" height="630" fill="url(#bgGradient)"/>

  <!-- Decorative ocean gradients -->
  <ellipse cx="1000" cy="150" rx="300" ry="200" fill="url(#oceanGradient)" opacity="0.4"/>
  <ellipse cx="200" cy="530" rx="250" ry="180" fill="url(#oceanGradient)" opacity="0.3"/>

  <!-- Wave patterns -->
  <path d="M 0 400 Q 300 350 600 400 T 1200 400 L 1200 630 L 0 630 Z" fill="#1E90A0" opacity="0.08"/>
  <path d="M 0 450 Q 250 420 500 450 T 1000 450 T 1200 450 L 1200 630 L 0 630 Z" fill="#4FD1C5" opacity="0.05"/>

  <!-- Caviar roe particles -->
  <circle cx="276.69663384364424" cy="517.4275130899492" r="4.035398205780755" fill="#CFAE58" opacity="0.19536642339675986"/>
  <circle cx="495.5606869754528" cy="178.6732035332814" r="4.712844633945509" fill="#CFAE58" opacity="0.14030946431268412"/>
  <circle cx="945.5662434499512" cy="455.43469654622584" r="5.811797863542077" fill="#CFAE58" opacity="0.23660100054262262"/>
  <circle cx="644.3905701928104" cy="88.82373191091185" r="4.555052785043444" fill="#CFAE58" opacity="0.18968742106899933"/>
  <circle cx="758.3650026621268" cy="355.3140479577014" r="3.2674185646756744" fill="#CFAE58" opacity="0.11254073670885621"/>
  <circle cx="837.723536118745" cy="443.04941521303806" r="4.422755535115968" fill="#CFAE58" opacity="0.18516551393827257"/>
  <circle cx="174.68207381952138" cy="343.6585612900664" r="2.7499625703347848" fill="#CFAE58" opacity="0.11581488987348738"/>
  <circle cx="590.1453902401136" cy="465.204144317042" r="4.173208855045229" fill="#CFAE58" opacity="0.1601383682858973"/>
  <circle cx="60.008222690417945" cy="382.99766362579703" r="4.00080446783345" fill="#CFAE58" opacity="0.1932864520185275"/>
  <circle cx="98.48900412878719" cy="102.50979572789879" r="5.403632114527078" fill="#CFAE58" opacity="0.1879027020978522"/>
  <circle cx="558.2119305276142" cy="359.67204255401737" r="5.560624135337097" fill="#CFAE58" opacity="0.15398205243310956"/>
  <circle cx="602.6969786689265" cy="12.984197899657211" r="2.6876605336367003" fill="#CFAE58" opacity="0.24817652406545734"/>
  <circle cx="417.4588020527349" cy="465.36240236890615" r="3.9833701159270785" fill="#CFAE58" opacity="0.11841874471388608"/>
  <circle cx="928.8117391875602" cy="331.2154943833999" r="3.4751310923311305" fill="#CFAE58" opacity="0.1819090543691384"/>
  <circle cx="999.3920806351787" cy="124.60752328314831" r="4.191670618619292" fill="#CFAE58" opacity="0.2163420224848199"/>
  <circle cx="127.81567362531928" cy="461.5575399041141" r="4.495025752862271" fill="#CFAE58" opacity="0.24360092551553386"/>
  <circle cx="171.46329480162984" cy="406.2511881460751" r="5.399649307275586" fill="#CFAE58" opacity="0.22009692232405337"/>
  <circle cx="504.9168341759041" cy="143.7712772829976" r="4.62661217483892" fill="#CFAE58" opacity="0.1563746144724649"/>
  <circle cx="643.6904319527281" cy="505.9801913551941" r="4.99067353398861" fill="#CFAE58" opacity="0.17697190541956653"/>
  <circle cx="854.9259482031392" cy="39.23457678808289" r="5.027524218556873" fill="#CFAE58" opacity="0.16806424964005817"/>
  <circle cx="1011.6190028252304" cy="546.316746511107" r="5.699388457374449" fill="#CFAE58" opacity="0.13037683984180387"/>
  <circle cx="86.20144881165129" cy="258.8073132891614" r="2.14430401187054" fill="#CFAE58" opacity="0.1635240980764753"/>
  <circle cx="165.17112745860726" cy="434.9800797704558" r="5.804293812294165" fill="#CFAE58" opacity="0.15024702109879093"/>
  <circle cx="149.49169980091722" cy="582.9799807524043" r="5.034792038109739" fill="#CFAE58" opacity="0.23466932999744033"/>
  <circle cx="891.828575179463" cy="88.40490418283099" r="3.261325741333181" fill="#CFAE58" opacity="0.24716623782770214"/>
  <circle cx="774.7504317249596" cy="87.33455393362938" r="5.271400137603773" fill="#CFAE58" opacity="0.14918485818129618"/>
  <circle cx="873.9095051327937" cy="481.4897041215396" r="2.184925768741609" fill="#CFAE58" opacity="0.11217234484193794"/>
  <circle cx="60.67029156823427" cy="309.25796748073327" r="4.53283778439794" fill="#CFAE58" opacity="0.15301760773604395"/>
  <circle cx="107.97428157766245" cy="240.36814813929396" r="3.239091981040551" fill="#CFAE58" opacity="0.16455936288529832"/>
  <circle cx="101.68264479587083" cy="582.8923323469743" r="4.48915929746542" fill="#CFAE58" opacity="0.1201502440004404"/>

  <!-- Border with glow -->
  <rect x="40" y="40" width="1120" height="550" fill="none" stroke="url(#goldGradient)" stroke-width="3" rx="12" filter="url(#softGlow)"/>

  <!-- Icon circle with premium background -->
  <circle cx="150" cy="200" r="75" fill="#CFAE58" opacity="0.15" filter="url(#softGlow)"/>
  <circle cx="150" cy="200" r="70" fill="#CFAE58" opacity="0.25"/>
  <text x="150" y="235" font-size="90" text-anchor="middle" fill="#CFAE58" filter="url(#glow)">📍</text>

  <!-- Premium logo (crown) with enhanced styling -->
  <g transform="translate(100, 70)">
    <path d="M 30 20 L 40 35 L 35 35 Z M 50 15 L 60 35 L 45 35 Z M 65 20 L 75 35 L 70 35 Z M 30 35 L 75 35 L 73 45 L 32 45 Z"
          fill="url(#goldGradient)" filter="url(#glow)" stroke="#B89842" stroke-width="0.5"/>
    <circle cx="40" cy="25" r="3" fill="#4FD1C5" filter="url(#glow)"/>
    <circle cx="52" cy="20" r="4" fill="#4FD1C5" filter="url(#glow)"/>
    <circle cx="65" cy="25" r="3" fill="#4FD1C5" filter="url(#glow)"/>
  </g>

  <!-- Title with shadow -->
  <text x="280" y="180" font-family="Georgia, serif" font-size="72" font-weight="bold"
        fill="url(#goldGradient)" filter="url(#shadow)">Contact Us</text>

  <!-- Subtitle with subtle glow -->
  <text x="280" y="230" font-family="Arial, sans-serif" font-size="36"
        fill="#D6DEE6" opacity="0.95" filter="url(#softGlow)">Visit Us on Sakhalin Island</text>

  <!-- Brand name with letter spacing -->
  <text x="280" y="300" font-family="Georgia, serif" font-size="32" font-weight="bold"
        fill="#CFAE58" letter-spacing="4" filter="url(#glow)">ROYAL KETA</text>

  <!-- Russian tagline -->
  <text x="280" y="340" font-family="Arial, sans-serif" font-size="22" font-style="italic"
        fill="#8B95A1" opacity="0.8">От икринки к королевской</text>

  <!-- Location -->
  <text x="280" y="380" font-family="Arial, sans-serif" font-size="20"
        fill="#8B95A1" opacity="0.7">Невельский район, Сахалин</text>

  <!-- Website with glow -->
  <text x="100" y="570" font-family="Arial, sans-serif" font-size="30" font-weight="bold"
        fill="#4FD1C5" filter="url(#glow)">royalketa.com</text>

  <!-- Enhanced decorative salmon silhouette -->
  <g transform="translate(950, 480)" opacity="0.2" filter="url(#softGlow)">
    <ellipse cx="0" cy="0" rx="90" ry="35" fill="#CFAE58"/>
    <path d="M 90 0 L 120 -18 L 130 0 L 120 18 Z" fill="#CFAE58"/>
    <path d="M -25 -35 L 0 -45 L 25 -35 Z" fill="#CFAE58"/>
    <ellipse cx="-50" cy="0" rx="15" ry="12" fill="#0B0F14"/>
  </g>

  <!-- Additional decorative caviar clusters -->
  <g opacity="0.2">
    <circle cx="1050" cy="120" r="6" fill="#CFAE58"/>
    <circle cx="1065" cy="115" r="5" fill="#CFAE58"/>
    <circle cx="1058" cy="130" r="4" fill="#CFAE58"/>
    <circle cx="150" cy="500" r="5" fill="#4FD1C5"/>
    <circle cx="165" cy="508" r="4" fill="#4FD1C5"/>
    <circle cx="140" cy="512" r="5" fill="#4FD1C5"/>
  </g>
</svg>