<svg width="1200" height="630" xmlns="http://www.w3.org/2000/svg">
  <defs>
    <linearGradient id="bgGradient" x1="0%" y1="0%" x2="100%" y2="100%">
      <stop offset="0%" style="stop-color:#0B0F14;stop-opacity:1" />
      <stop offset="50%" style="stop-color:#0F1619;stop-opacity:1" />
      <stop offset="100%" style="stop-color:#0F1922;stop-opacity:1" />
    </linearGradient>
    <linearGradient id="goldGradient" x1="0%" y1="0%" x2="100%" y2="0%">
      <stop offset="0%" style="stop-color:#E5D596;stop-opacity:1" />
      <stop offset="50%" style="stop-color:#CFAE58;stop-opacity:1" />
      <stop offset="100%" style="stop-color:#B89842;stop-opacity:1" />
    </linearGradient>
    <radialGradient id="oceanGradient" cx="50%" cy="50%" r="50%">
      <stop offset="0%" style="stop-color:#4FD1C5;stop-opacity:0.3" />
      <stop offset="100%" style="stop-color:#1E90A0;stop-opacity:0.05" />
    </radialGradient>
    <filter id="glow">
      <feGaussianBlur stdDeviation="5" result="coloredBlur"/>
      <feMerge>
        <feMergeNode in="coloredBlur"/>
        <feMergeNode in="SourceGraphic"/>
      </feMerge>
    </filter>
    <filter id="softGlow">
      <feGaussianBlur stdDeviation="8" result="coloredBlur"/>
      <feMerge>
        <feMergeNode in="coloredBlur"/>
        <feMergeNode in="SourceGraphic"/>
      </feMerge>
    </filter>
    <filter id="shadow">
      <feDropShadow dx="0" dy="4" stdDeviation="8" flood-color="#000000" flood-opacity="0.5"/>
    </filter>
  </defs>

  <!-- Background -->
  <rect width="1200" height="630" fill="url(#bgGradient)"/>

  <!-- Decorative ocean gradients -->
  <ellipse cx="1000" cy="150" rx="300" ry="200" fill="url(#oceanGradient)" opacity="0.4"/>
  <ellipse cx="200" cy="530" rx="250" ry="180" fill="url(#oceanGradient)" opacity="0.3"/>

  <!-- Wave patterns -->
  <path d="M 0 400 Q 300 350 600 400 T 1200 400 L 1200 630 L 0 630 Z" fill="#1E90A0" opacity="0.08"/>
  <path d="M 0 450 Q 250 420 500 450 T 1000 450 T 1200 450 L 1200 630 L 0 630 Z" fill="#4FD1C5" opacity="0.05"/>

  <!-- Caviar roe particles -->
  <circle cx="314.7883546885026" cy="185.51099693641277" r="5.934792972328953" fill="#CFAE58" opacity="0.11775394708355502"/>
  <circle cx="16.848692686151033" cy="45.38750869096636" r="3.0410229326902116" fill="#CFAE58" opacity="0.10977089855525107"/>
  <circle cx="219.67913926707632" cy="392.9970762798689" r="3.6678256314570095" fill="#CFAE58" opacity="0.2349230362533614"/>
  <circle cx="1104.8451523988754" cy="616.5244721108271" r="2.2230105985705597" fill="#CFAE58" opacity="0.2093902523477004"/>
  <circle cx="100.1489112132933" cy="67.25000677252977" r="5.095279589468496" fill="#CFAE58" opacity="0.15277762166302442"/>
  <circle cx="1047.5395579517115" cy="622.941812995818" r="4.11533052702652" fill="#CFAE58" opacity="0.1896365979730193"/>
  <circle cx="141.93651947687465" cy="372.70301724255165" r="3.14862668646973" fill="#CFAE58" opacity="0.10890487705568752"/>
  <circle cx="347.66207445799785" cy="405.1242417112603" r="2.4623031376677686" fill="#CFAE58" opacity="0.11318938170180315"/>
  <circle cx="512.8841972878317" cy="512.1635166637749" r="5.12693331655197" fill="#CFAE58" opacity="0.17894246494866908"/>
  <circle cx="1157.8250491875608" cy="438.87673284512067" r="3.3557834989912387" fill="#CFAE58" opacity="0.21216666148902727"/>
  <circle cx="941.9851012759593" cy="82.31338308728805" r="3.2851709048706343" fill="#CFAE58" opacity="0.10383855330867044"/>
  <circle cx="347.6340466509137" cy="145.1234747507962" r="3.9777069357445116" fill="#CFAE58" opacity="0.11251070470472777"/>
  <circle cx="594.26966890456" cy="416.98536869194044" r="5.500797852374609" fill="#CFAE58" opacity="0.13323150475931933"/>
  <circle cx="718.3714281653553" cy="94.23070955856704" r="3.7861227044286805" fill="#CFAE58" opacity="0.12449850126560852"/>
  <circle cx="591.2565918450885" cy="239.23816859674457" r="2.8260241370389245" fill="#CFAE58" opacity="0.14596027924723914"/>
  <circle cx="564.7190109814157" cy="195.84291092045774" r="4.418123567818847" fill="#CFAE58" opacity="0.17810373269738966"/>
  <circle cx="988.3118823262764" cy="223.04612190048596" r="2.2223999617780983" fill="#CFAE58" opacity="0.11961938370139616"/>
  <circle cx="71.64661290185035" cy="544.9461720768332" r="5.366080294052736" fill="#CFAE58" opacity="0.12438591370693633"/>
  <circle cx="340.14754950348714" cy="302.3596153834561" r="5.221887581974374" fill="#CFAE58" opacity="0.17480651963997867"/>
  <circle cx="1060.6140128479817" cy="291.151475898329" r="2.08721521793752" fill="#CFAE58" opacity="0.1191201149121153"/>
  <circle cx="1157.4983350138498" cy="180.86979052432554" r="3.725200567337506" fill="#CFAE58" opacity="0.11114576226621445"/>
  <circle cx="773.3437800347314" cy="497.6962577680682" r="4.17072958530394" fill="#CFAE58" opacity="0.24946743397357027"/>
  <circle cx="891.2034078521357" cy="341.57794128266045" r="3.719815900099936" fill="#CFAE58" opacity="0.24024661263886446"/>
  <circle cx="777.6227679199092" cy="225.6314291958963" r="4.093247644110752" fill="#CFAE58" opacity="0.12326973634294322"/>
  <circle cx="1137.03536734776" cy="276.7746325521358" r="2.561410727042919" fill="#CFAE58" opacity="0.23696361889718465"/>
  <circle cx="697.7906757676434" cy="494.12908643239064" r="2.7825915478206635" fill="#CFAE58" opacity="0.10120234439269334"/>
  <circle cx="573.4311518993909" cy="470.0404728160546" r="2.292488977171848" fill="#CFAE58" opacity="0.19546167957547406"/>
  <circle cx="602.3555074768167" cy="60.81854878259988" r="2.4833424218909674" fill="#CFAE58" opacity="0.11818834720119864"/>
  <circle cx="1008.5380323742446" cy="248.53108111496653" r="5.014344906793095" fill="#CFAE58" opacity="0.1158980741548891"/>
  <circle cx="665.8240320633196" cy="394.66100115308285" r="2.164718696606017" fill="#CFAE58" opacity="0.1291532445990283"/>

  <!-- Border with glow -->
  <rect x="40" y="40" width="1120" height="550" fill="none" stroke="url(#goldGradient)" stroke-width="3" rx="12" filter="url(#softGlow)"/>

  <!-- Icon circle with premium background -->
  <circle cx="150" cy="200" r="75" fill="#CFAE58" opacity="0.15" filter="url(#softGlow)"/>
  <circle cx="150" cy="200" r="70" fill="#CFAE58" opacity="0.25"/>
  <text x="150" y="235" font-size="90" text-anchor="middle" fill="#CFAE58" filter="url(#glow)">📍</text>

  <!-- Premium logo (crown) with enhanced styling -->
  <g transform="translate(100, 70)">
    <path d="M 30 20 L 40 35 L 35 35 Z M 50 15 L 60 35 L 45 35 Z M 65 20 L 75 35 L 70 35 Z M 30 35 L 75 35 L 73 45 L 32 45 Z"
          fill="url(#goldGradient)" filter="url(#glow)" stroke="#B89842" stroke-width="0.5"/>
    <circle cx="40" cy="25" r="3" fill="#4FD1C5" filter="url(#glow)"/>
    <circle cx="52" cy="20" r="4" fill="#4FD1C5" filter="url(#glow)"/>
    <circle cx="65" cy="25" r="3" fill="#4FD1C5" filter="url(#glow)"/>
  </g>

  <!-- Title with shadow -->
  <text x="280" y="180" font-family="Georgia, serif" font-size="72" font-weight="bold"
        fill="url(#goldGradient)" filter="url(#shadow)">Contact Us</text>

  <!-- Subtitle with subtle glow -->
  <text x="280" y="230" font-family="Arial, sans-serif" font-size="36"
        fill="#D6DEE6" opacity="0.95" filter="url(#softGlow)">Visit Us on Sakhalin Island</text>

  <!-- Brand name with letter spacing -->
  <text x="280" y="300" font-family="Georgia, serif" font-size="32" font-weight="bold"
        fill="#CFAE58" letter-spacing="4" filter="url(#glow)">ROYAL KETA</text>

  <!-- Russian tagline -->
  <text x="280" y="340" font-family="Arial, sans-serif" font-size="22" font-style="italic"
        fill="#8B95A1" opacity="0.8">От икринки к королевской</text>

  <!-- Location -->
  <text x="280" y="380" font-family="Arial, sans-serif" font-size="20"
        fill="#8B95A1" opacity="0.7">Невельский район, Сахалин</text>

  <!-- Website with glow -->
  <text x="100" y="570" font-family="Arial, sans-serif" font-size="30" font-weight="bold"
        fill="#4FD1C5" filter="url(#glow)">royalketa.com</text>

  <!-- Enhanced decorative salmon silhouette -->
  <g transform="translate(950, 480)" opacity="0.2" filter="url(#softGlow)">
    <ellipse cx="0" cy="0" rx="90" ry="35" fill="#CFAE58"/>
    <path d="M 90 0 L 120 -18 L 130 0 L 120 18 Z" fill="#CFAE58"/>
    <path d="M -25 -35 L 0 -45 L 25 -35 Z" fill="#CFAE58"/>
    <ellipse cx="-50" cy="0" rx="15" ry="12" fill="#0B0F14"/>
  </g>

  <!-- Additional decorative caviar clusters -->
  <g opacity="0.2">
    <circle cx="1050" cy="120" r="6" fill="#CFAE58"/>
    <circle cx="1065" cy="115" r="5" fill="#CFAE58"/>
    <circle cx="1058" cy="130" r="4" fill="#CFAE58"/>
    <circle cx="150" cy="500" r="5" fill="#4FD1C5"/>
    <circle cx="165" cy="508" r="4" fill="#4FD1C5"/>
    <circle cx="140" cy="512" r="5" fill="#4FD1C5"/>
  </g>
</svg>