<svg width="1200" height="630" xmlns="http://www.w3.org/2000/svg">
  <defs>
    <linearGradient id="bgGradient" x1="0%" y1="0%" x2="100%" y2="100%">
      <stop offset="0%" style="stop-color:#0B0F14;stop-opacity:1" />
      <stop offset="50%" style="stop-color:#0F1619;stop-opacity:1" />
      <stop offset="100%" style="stop-color:#0F1922;stop-opacity:1" />
    </linearGradient>
    <linearGradient id="goldGradient" x1="0%" y1="0%" x2="100%" y2="0%">
      <stop offset="0%" style="stop-color:#E5D596;stop-opacity:1" />
      <stop offset="50%" style="stop-color:#CFAE58;stop-opacity:1" />
      <stop offset="100%" style="stop-color:#B89842;stop-opacity:1" />
    </linearGradient>
    <radialGradient id="oceanGradient" cx="50%" cy="50%" r="50%">
      <stop offset="0%" style="stop-color:#4FD1C5;stop-opacity:0.3" />
      <stop offset="100%" style="stop-color:#1E90A0;stop-opacity:0.05" />
    </radialGradient>
    <filter id="glow">
      <feGaussianBlur stdDeviation="5" result="coloredBlur"/>
      <feMerge>
        <feMergeNode in="coloredBlur"/>
        <feMergeNode in="SourceGraphic"/>
      </feMerge>
    </filter>
    <filter id="softGlow">
      <feGaussianBlur stdDeviation="8" result="coloredBlur"/>
      <feMerge>
        <feMergeNode in="coloredBlur"/>
        <feMergeNode in="SourceGraphic"/>
      </feMerge>
    </filter>
    <filter id="shadow">
      <feDropShadow dx="0" dy="4" stdDeviation="8" flood-color="#000000" flood-opacity="0.5"/>
    </filter>
  </defs>

  <!-- Background -->
  <rect width="1200" height="630" fill="url(#bgGradient)"/>

  <!-- Decorative ocean gradients -->
  <ellipse cx="1000" cy="150" rx="300" ry="200" fill="url(#oceanGradient)" opacity="0.4"/>
  <ellipse cx="200" cy="530" rx="250" ry="180" fill="url(#oceanGradient)" opacity="0.3"/>

  <!-- Wave patterns -->
  <path d="M 0 400 Q 300 350 600 400 T 1200 400 L 1200 630 L 0 630 Z" fill="#1E90A0" opacity="0.08"/>
  <path d="M 0 450 Q 250 420 500 450 T 1000 450 T 1200 450 L 1200 630 L 0 630 Z" fill="#4FD1C5" opacity="0.05"/>

  <!-- Caviar roe particles -->
  <circle cx="486.06512000307526" cy="608.0859896447711" r="5.053642905836875" fill="#CFAE58" opacity="0.1670218635872986"/>
  <circle cx="40.38272736710624" cy="71.79845279600725" r="5.204414771204734" fill="#CFAE58" opacity="0.10005664491068303"/>
  <circle cx="691.0761406878023" cy="273.34175242791224" r="3.4668653637555202" fill="#CFAE58" opacity="0.12250133896600557"/>
  <circle cx="50.01603728523136" cy="569.5213641078225" r="4.300290821008426" fill="#CFAE58" opacity="0.23412517723862888"/>
  <circle cx="306.6659279369876" cy="282.96897296039845" r="5.281994286195692" fill="#CFAE58" opacity="0.10823244482617811"/>
  <circle cx="686.0713442937481" cy="131.64743856737215" r="3.1035861401141336" fill="#CFAE58" opacity="0.22787164444279095"/>
  <circle cx="567.2314304379433" cy="176.97063027054736" r="5.55924933614518" fill="#CFAE58" opacity="0.14422612073936517"/>
  <circle cx="987.4486651786825" cy="402.1621006114073" r="2.5434991475505884" fill="#CFAE58" opacity="0.17278869731369462"/>
  <circle cx="309.4492597271824" cy="526.5882730765046" r="3.426459693741598" fill="#CFAE58" opacity="0.19365301253686956"/>
  <circle cx="35.57721545832617" cy="431.5554625577953" r="5.449059703325227" fill="#CFAE58" opacity="0.23947893888106414"/>
  <circle cx="1154.263224749757" cy="524.4435053986432" r="3.744051599378598" fill="#CFAE58" opacity="0.16373831338189854"/>
  <circle cx="595.2982650968107" cy="607.0287385590017" r="2.9644001534734423" fill="#CFAE58" opacity="0.1934859334922566"/>
  <circle cx="987.3293552076299" cy="132.39814251380125" r="2.2903494648124436" fill="#CFAE58" opacity="0.13962785710839803"/>
  <circle cx="301.25614186991527" cy="587.3206632121536" r="5.372609364249747" fill="#CFAE58" opacity="0.14145127831548907"/>
  <circle cx="901.9212222035608" cy="454.22195473142824" r="5.26094038837942" fill="#CFAE58" opacity="0.1500596625712981"/>
  <circle cx="554.5487811247272" cy="455.6136189701547" r="4.27930944889482" fill="#CFAE58" opacity="0.16838090469590994"/>
  <circle cx="640.9488815291616" cy="228.6335928502691" r="4.376973771459837" fill="#CFAE58" opacity="0.23197493222412272"/>
  <circle cx="283.07580062988995" cy="111.77888883730094" r="4.3407118409400285" fill="#CFAE58" opacity="0.11414768028785771"/>
  <circle cx="421.3226549559044" cy="517.6394859760677" r="3.1660546084646306" fill="#CFAE58" opacity="0.19989861006863663"/>
  <circle cx="820.1371629683412" cy="357.22944000079326" r="2.7563247973538516" fill="#CFAE58" opacity="0.16838574115932395"/>
  <circle cx="422.5630933161878" cy="485.2627277526742" r="3.0124773378926157" fill="#CFAE58" opacity="0.14071807418616766"/>
  <circle cx="104.95062981967305" cy="268.3292487625232" r="4.3636979687459005" fill="#CFAE58" opacity="0.1591182759962645"/>
  <circle cx="7.346551975993609" cy="348.6552704497283" r="3.3119596835120717" fill="#CFAE58" opacity="0.16142547809708246"/>
  <circle cx="882.1169654198198" cy="626.9363074218526" r="5.240907455832343" fill="#CFAE58" opacity="0.11141410713190741"/>
  <circle cx="251.37189572372876" cy="99.60045647780895" r="2.2731094595662054" fill="#CFAE58" opacity="0.20944822755071135"/>
  <circle cx="136.7621488578166" cy="149.5794286616579" r="5.202413523695255" fill="#CFAE58" opacity="0.1266135906806619"/>
  <circle cx="343.81451501254736" cy="621.2275475203152" r="3.695345807292922" fill="#CFAE58" opacity="0.2376143183233162"/>
  <circle cx="771.6297820699486" cy="608.0681355135897" r="5.231392676511289" fill="#CFAE58" opacity="0.13239715201139632"/>
  <circle cx="155.67224213168922" cy="148.56446906077417" r="4.521165244641171" fill="#CFAE58" opacity="0.21040115590002034"/>
  <circle cx="629.6595964857663" cy="272.6598535845614" r="5.921306167602606" fill="#CFAE58" opacity="0.10032230462140196"/>

  <!-- Border with glow -->
  <rect x="40" y="40" width="1120" height="550" fill="none" stroke="url(#goldGradient)" stroke-width="3" rx="12" filter="url(#softGlow)"/>

  <!-- Icon circle with premium background -->
  <circle cx="150" cy="200" r="75" fill="#CFAE58" opacity="0.15" filter="url(#softGlow)"/>
  <circle cx="150" cy="200" r="70" fill="#CFAE58" opacity="0.25"/>
  <text x="150" y="235" font-size="90" text-anchor="middle" fill="#CFAE58" filter="url(#glow)">📍</text>

  <!-- Premium logo (crown) with enhanced styling -->
  <g transform="translate(100, 70)">
    <path d="M 30 20 L 40 35 L 35 35 Z M 50 15 L 60 35 L 45 35 Z M 65 20 L 75 35 L 70 35 Z M 30 35 L 75 35 L 73 45 L 32 45 Z"
          fill="url(#goldGradient)" filter="url(#glow)" stroke="#B89842" stroke-width="0.5"/>
    <circle cx="40" cy="25" r="3" fill="#4FD1C5" filter="url(#glow)"/>
    <circle cx="52" cy="20" r="4" fill="#4FD1C5" filter="url(#glow)"/>
    <circle cx="65" cy="25" r="3" fill="#4FD1C5" filter="url(#glow)"/>
  </g>

  <!-- Title with shadow -->
  <text x="280" y="180" font-family="Georgia, serif" font-size="72" font-weight="bold"
        fill="url(#goldGradient)" filter="url(#shadow)">Contact Us</text>

  <!-- Subtitle with subtle glow -->
  <text x="280" y="230" font-family="Arial, sans-serif" font-size="36"
        fill="#D6DEE6" opacity="0.95" filter="url(#softGlow)">Visit Us on Sakhalin Island</text>

  <!-- Brand name with letter spacing -->
  <text x="280" y="300" font-family="Georgia, serif" font-size="32" font-weight="bold"
        fill="#CFAE58" letter-spacing="4" filter="url(#glow)">ROYAL KETA</text>

  <!-- Russian tagline -->
  <text x="280" y="340" font-family="Arial, sans-serif" font-size="22" font-style="italic"
        fill="#8B95A1" opacity="0.8">От икринки к королевской</text>

  <!-- Location -->
  <text x="280" y="380" font-family="Arial, sans-serif" font-size="20"
        fill="#8B95A1" opacity="0.7">Невельский район, Сахалин</text>

  <!-- Website with glow -->
  <text x="100" y="570" font-family="Arial, sans-serif" font-size="30" font-weight="bold"
        fill="#4FD1C5" filter="url(#glow)">royalketa.com</text>

  <!-- Enhanced decorative salmon silhouette -->
  <g transform="translate(950, 480)" opacity="0.2" filter="url(#softGlow)">
    <ellipse cx="0" cy="0" rx="90" ry="35" fill="#CFAE58"/>
    <path d="M 90 0 L 120 -18 L 130 0 L 120 18 Z" fill="#CFAE58"/>
    <path d="M -25 -35 L 0 -45 L 25 -35 Z" fill="#CFAE58"/>
    <ellipse cx="-50" cy="0" rx="15" ry="12" fill="#0B0F14"/>
  </g>

  <!-- Additional decorative caviar clusters -->
  <g opacity="0.2">
    <circle cx="1050" cy="120" r="6" fill="#CFAE58"/>
    <circle cx="1065" cy="115" r="5" fill="#CFAE58"/>
    <circle cx="1058" cy="130" r="4" fill="#CFAE58"/>
    <circle cx="150" cy="500" r="5" fill="#4FD1C5"/>
    <circle cx="165" cy="508" r="4" fill="#4FD1C5"/>
    <circle cx="140" cy="512" r="5" fill="#4FD1C5"/>
  </g>
</svg>