<svg width="1200" height="630" xmlns="http://www.w3.org/2000/svg">
  <defs>
    <linearGradient id="bgGradient" x1="0%" y1="0%" x2="100%" y2="100%">
      <stop offset="0%" style="stop-color:#0B0F14;stop-opacity:1" />
      <stop offset="50%" style="stop-color:#0F1619;stop-opacity:1" />
      <stop offset="100%" style="stop-color:#0F1922;stop-opacity:1" />
    </linearGradient>
    <linearGradient id="goldGradient" x1="0%" y1="0%" x2="100%" y2="0%">
      <stop offset="0%" style="stop-color:#E5D596;stop-opacity:1" />
      <stop offset="50%" style="stop-color:#CFAE58;stop-opacity:1" />
      <stop offset="100%" style="stop-color:#B89842;stop-opacity:1" />
    </linearGradient>
    <radialGradient id="oceanGradient" cx="50%" cy="50%" r="50%">
      <stop offset="0%" style="stop-color:#4FD1C5;stop-opacity:0.3" />
      <stop offset="100%" style="stop-color:#1E90A0;stop-opacity:0.05" />
    </radialGradient>
    <filter id="glow">
      <feGaussianBlur stdDeviation="5" result="coloredBlur"/>
      <feMerge>
        <feMergeNode in="coloredBlur"/>
        <feMergeNode in="SourceGraphic"/>
      </feMerge>
    </filter>
    <filter id="softGlow">
      <feGaussianBlur stdDeviation="8" result="coloredBlur"/>
      <feMerge>
        <feMergeNode in="coloredBlur"/>
        <feMergeNode in="SourceGraphic"/>
      </feMerge>
    </filter>
    <filter id="shadow">
      <feDropShadow dx="0" dy="4" stdDeviation="8" flood-color="#000000" flood-opacity="0.5"/>
    </filter>
  </defs>

  <!-- Background -->
  <rect width="1200" height="630" fill="url(#bgGradient)"/>

  <!-- Decorative ocean gradients -->
  <ellipse cx="1000" cy="150" rx="300" ry="200" fill="url(#oceanGradient)" opacity="0.4"/>
  <ellipse cx="200" cy="530" rx="250" ry="180" fill="url(#oceanGradient)" opacity="0.3"/>

  <!-- Wave patterns -->
  <path d="M 0 400 Q 300 350 600 400 T 1200 400 L 1200 630 L 0 630 Z" fill="#1E90A0" opacity="0.08"/>
  <path d="M 0 450 Q 250 420 500 450 T 1000 450 T 1200 450 L 1200 630 L 0 630 Z" fill="#4FD1C5" opacity="0.05"/>

  <!-- Caviar roe particles -->
  <circle cx="118.91009111031279" cy="517.0961992487265" r="2.5374717286666435" fill="#CFAE58" opacity="0.15193644749356305"/>
  <circle cx="1148.859581250317" cy="466.9013869173524" r="4.1353796720849445" fill="#CFAE58" opacity="0.1095983054567447"/>
  <circle cx="1093.2844798667754" cy="407.65115485543976" r="2.7121421714428204" fill="#CFAE58" opacity="0.10209127447861394"/>
  <circle cx="18.04292380286836" cy="248.37229462718045" r="2.655555394949532" fill="#CFAE58" opacity="0.18809266429797808"/>
  <circle cx="1078.990795564747" cy="33.75298732091089" r="4.750442675542876" fill="#CFAE58" opacity="0.1892638650191134"/>
  <circle cx="309.85027530409303" cy="129.2750665712558" r="2.5271817876743197" fill="#CFAE58" opacity="0.245831702871619"/>
  <circle cx="820.593230620798" cy="412.60795230799016" r="5.702436872425947" fill="#CFAE58" opacity="0.24607064775793805"/>
  <circle cx="526.4959428071664" cy="256.93829832251924" r="5.509203420365708" fill="#CFAE58" opacity="0.206847606504644"/>
  <circle cx="382.47328214200235" cy="529.8854898863967" r="4.454912237507501" fill="#CFAE58" opacity="0.23274641619677752"/>
  <circle cx="1034.6266704571503" cy="375.1392089350225" r="4.9233517643332245" fill="#CFAE58" opacity="0.16986370079643026"/>
  <circle cx="838.0444759063349" cy="628.3664768135577" r="5.800501224855765" fill="#CFAE58" opacity="0.2011144810114952"/>
  <circle cx="255.45521928050104" cy="302.23823331056104" r="4.4394663880748615" fill="#CFAE58" opacity="0.12130594421228415"/>
  <circle cx="816.6124945241356" cy="415.1124317152716" r="5.878664014219536" fill="#CFAE58" opacity="0.1282333322385814"/>
  <circle cx="988.7284906558283" cy="141.97275639086703" r="3.3396733978317843" fill="#CFAE58" opacity="0.23493774307033896"/>
  <circle cx="451.7144432320326" cy="454.7137218245711" r="4.302563808430909" fill="#CFAE58" opacity="0.21927928105243816"/>
  <circle cx="990.0602169215865" cy="566.6931184827707" r="3.1032960189948127" fill="#CFAE58" opacity="0.1458216059193227"/>
  <circle cx="427.47249507391285" cy="539.5212540038308" r="3.375466749172083" fill="#CFAE58" opacity="0.23307015375372236"/>
  <circle cx="168.99928398492509" cy="564.4345157640744" r="4.674815376102494" fill="#CFAE58" opacity="0.1265542338062573"/>
  <circle cx="623.3144774639115" cy="485.45757985630956" r="2.1787191830417396" fill="#CFAE58" opacity="0.1753280217809331"/>
  <circle cx="247.18719679913752" cy="60.209205619634524" r="3.3199093206025254" fill="#CFAE58" opacity="0.20167891170300983"/>
  <circle cx="303.5271725767236" cy="100.79996187961537" r="4.927549755969645" fill="#CFAE58" opacity="0.17176491463284266"/>
  <circle cx="113.61992569974247" cy="293.6997690182333" r="3.218321864710516" fill="#CFAE58" opacity="0.15888416833720337"/>
  <circle cx="659.1341907214583" cy="627.2813498762214" r="2.3579961742644526" fill="#CFAE58" opacity="0.2279124056634533"/>
  <circle cx="311.60052653279274" cy="90.37018942945437" r="2.4760515554140734" fill="#CFAE58" opacity="0.2036163724563771"/>
  <circle cx="205.73509033432825" cy="400.10168097357104" r="5.275952027864473" fill="#CFAE58" opacity="0.20705403873248351"/>
  <circle cx="256.65268704152214" cy="32.53514024296159" r="3.8727518546212667" fill="#CFAE58" opacity="0.11537766537165997"/>
  <circle cx="419.6946437064989" cy="490.022728021677" r="3.390427005322112" fill="#CFAE58" opacity="0.18933018498975124"/>
  <circle cx="245.76730107908728" cy="326.9801843558018" r="3.0004548741798693" fill="#CFAE58" opacity="0.1523429444213885"/>
  <circle cx="374.42154960865065" cy="52.771744641862824" r="5.670714230255854" fill="#CFAE58" opacity="0.14175894955529658"/>
  <circle cx="1011.1904349529037" cy="613.2062054177244" r="2.921919862898604" fill="#CFAE58" opacity="0.2257713391826369"/>

  <!-- Border with glow -->
  <rect x="40" y="40" width="1120" height="550" fill="none" stroke="url(#goldGradient)" stroke-width="3" rx="12" filter="url(#softGlow)"/>

  <!-- Icon circle with premium background -->
  <circle cx="150" cy="200" r="75" fill="#CFAE58" opacity="0.15" filter="url(#softGlow)"/>
  <circle cx="150" cy="200" r="70" fill="#CFAE58" opacity="0.25"/>
  <text x="150" y="235" font-size="90" text-anchor="middle" fill="#CFAE58" filter="url(#glow)">📍</text>

  <!-- Premium logo (crown) with enhanced styling -->
  <g transform="translate(100, 70)">
    <path d="M 30 20 L 40 35 L 35 35 Z M 50 15 L 60 35 L 45 35 Z M 65 20 L 75 35 L 70 35 Z M 30 35 L 75 35 L 73 45 L 32 45 Z"
          fill="url(#goldGradient)" filter="url(#glow)" stroke="#B89842" stroke-width="0.5"/>
    <circle cx="40" cy="25" r="3" fill="#4FD1C5" filter="url(#glow)"/>
    <circle cx="52" cy="20" r="4" fill="#4FD1C5" filter="url(#glow)"/>
    <circle cx="65" cy="25" r="3" fill="#4FD1C5" filter="url(#glow)"/>
  </g>

  <!-- Title with shadow -->
  <text x="280" y="180" font-family="Georgia, serif" font-size="72" font-weight="bold"
        fill="url(#goldGradient)" filter="url(#shadow)">Contact Us</text>

  <!-- Subtitle with subtle glow -->
  <text x="280" y="230" font-family="Arial, sans-serif" font-size="36"
        fill="#D6DEE6" opacity="0.95" filter="url(#softGlow)">Visit Us on Sakhalin Island</text>

  <!-- Brand name with letter spacing -->
  <text x="280" y="300" font-family="Georgia, serif" font-size="32" font-weight="bold"
        fill="#CFAE58" letter-spacing="4" filter="url(#glow)">ROYAL KETA</text>

  <!-- Russian tagline -->
  <text x="280" y="340" font-family="Arial, sans-serif" font-size="22" font-style="italic"
        fill="#8B95A1" opacity="0.8">От икринки к королевской</text>

  <!-- Location -->
  <text x="280" y="380" font-family="Arial, sans-serif" font-size="20"
        fill="#8B95A1" opacity="0.7">Невельский район, Сахалин</text>

  <!-- Website with glow -->
  <text x="100" y="570" font-family="Arial, sans-serif" font-size="30" font-weight="bold"
        fill="#4FD1C5" filter="url(#glow)">royalketa.com</text>

  <!-- Enhanced decorative salmon silhouette -->
  <g transform="translate(950, 480)" opacity="0.2" filter="url(#softGlow)">
    <ellipse cx="0" cy="0" rx="90" ry="35" fill="#CFAE58"/>
    <path d="M 90 0 L 120 -18 L 130 0 L 120 18 Z" fill="#CFAE58"/>
    <path d="M -25 -35 L 0 -45 L 25 -35 Z" fill="#CFAE58"/>
    <ellipse cx="-50" cy="0" rx="15" ry="12" fill="#0B0F14"/>
  </g>

  <!-- Additional decorative caviar clusters -->
  <g opacity="0.2">
    <circle cx="1050" cy="120" r="6" fill="#CFAE58"/>
    <circle cx="1065" cy="115" r="5" fill="#CFAE58"/>
    <circle cx="1058" cy="130" r="4" fill="#CFAE58"/>
    <circle cx="150" cy="500" r="5" fill="#4FD1C5"/>
    <circle cx="165" cy="508" r="4" fill="#4FD1C5"/>
    <circle cx="140" cy="512" r="5" fill="#4FD1C5"/>
  </g>
</svg>