<svg width="1200" height="630" xmlns="http://www.w3.org/2000/svg">
  <defs>
    <linearGradient id="bgGradient" x1="0%" y1="0%" x2="100%" y2="100%">
      <stop offset="0%" style="stop-color:#0B0F14;stop-opacity:1" />
      <stop offset="50%" style="stop-color:#0F1619;stop-opacity:1" />
      <stop offset="100%" style="stop-color:#0F1922;stop-opacity:1" />
    </linearGradient>
    <linearGradient id="goldGradient" x1="0%" y1="0%" x2="100%" y2="0%">
      <stop offset="0%" style="stop-color:#E5D596;stop-opacity:1" />
      <stop offset="50%" style="stop-color:#CFAE58;stop-opacity:1" />
      <stop offset="100%" style="stop-color:#B89842;stop-opacity:1" />
    </linearGradient>
    <radialGradient id="oceanGradient" cx="50%" cy="50%" r="50%">
      <stop offset="0%" style="stop-color:#4FD1C5;stop-opacity:0.3" />
      <stop offset="100%" style="stop-color:#1E90A0;stop-opacity:0.05" />
    </radialGradient>
    <filter id="glow">
      <feGaussianBlur stdDeviation="5" result="coloredBlur"/>
      <feMerge>
        <feMergeNode in="coloredBlur"/>
        <feMergeNode in="SourceGraphic"/>
      </feMerge>
    </filter>
    <filter id="softGlow">
      <feGaussianBlur stdDeviation="8" result="coloredBlur"/>
      <feMerge>
        <feMergeNode in="coloredBlur"/>
        <feMergeNode in="SourceGraphic"/>
      </feMerge>
    </filter>
    <filter id="shadow">
      <feDropShadow dx="0" dy="4" stdDeviation="8" flood-color="#000000" flood-opacity="0.5"/>
    </filter>
  </defs>

  <!-- Background -->
  <rect width="1200" height="630" fill="url(#bgGradient)"/>

  <!-- Decorative ocean gradients -->
  <ellipse cx="1000" cy="150" rx="300" ry="200" fill="url(#oceanGradient)" opacity="0.4"/>
  <ellipse cx="200" cy="530" rx="250" ry="180" fill="url(#oceanGradient)" opacity="0.3"/>

  <!-- Wave patterns -->
  <path d="M 0 400 Q 300 350 600 400 T 1200 400 L 1200 630 L 0 630 Z" fill="#1E90A0" opacity="0.08"/>
  <path d="M 0 450 Q 250 420 500 450 T 1000 450 T 1200 450 L 1200 630 L 0 630 Z" fill="#4FD1C5" opacity="0.05"/>

  <!-- Caviar roe particles -->
  <circle cx="729.6362119299357" cy="82.81774908124078" r="4.880391602120216" fill="#CFAE58" opacity="0.23031384252947235"/>
  <circle cx="539.1882538161286" cy="346.9769516862553" r="4.559551887617802" fill="#CFAE58" opacity="0.16312286140464893"/>
  <circle cx="361.3126546407934" cy="2.9316875337149972" r="3.3560534025107067" fill="#CFAE58" opacity="0.15087467440159325"/>
  <circle cx="335.4401034770316" cy="484.39717239151764" r="5.956360098784735" fill="#CFAE58" opacity="0.10737332479055646"/>
  <circle cx="1107.0529626009472" cy="110.47112976622596" r="4.052152759614253" fill="#CFAE58" opacity="0.18559558822034883"/>
  <circle cx="508.4686502219242" cy="33.510292808270755" r="5.44905554754685" fill="#CFAE58" opacity="0.22627553986160956"/>
  <circle cx="71.55176142090025" cy="115.03385748724376" r="4.9039614650486865" fill="#CFAE58" opacity="0.13763494803815027"/>
  <circle cx="226.07185199123526" cy="27.69842545042808" r="5.697650357830282" fill="#CFAE58" opacity="0.18928130565134937"/>
  <circle cx="857.7416550494821" cy="411.8881892663428" r="3.270067335879188" fill="#CFAE58" opacity="0.1635091591482596"/>
  <circle cx="340.06754773907187" cy="21.166418721588094" r="5.712267245166284" fill="#CFAE58" opacity="0.1712071170477641"/>
  <circle cx="552.9636214817092" cy="581.9363822155976" r="5.040442636424538" fill="#CFAE58" opacity="0.1638671027078083"/>
  <circle cx="603.2048009937675" cy="86.75516719461653" r="5.789211901702192" fill="#CFAE58" opacity="0.21408488290367178"/>
  <circle cx="129.83896779968208" cy="447.9285089031768" r="3.784531055983045" fill="#CFAE58" opacity="0.1449832475476318"/>
  <circle cx="30.478222912930477" cy="325.0992319427892" r="5.011843804912871" fill="#CFAE58" opacity="0.14671133240065398"/>
  <circle cx="955.4383661574693" cy="253.01850771630694" r="2.61476447127594" fill="#CFAE58" opacity="0.2229567270946048"/>
  <circle cx="581.7797958536545" cy="387.7625189950714" r="4.848052665211276" fill="#CFAE58" opacity="0.20148796785311734"/>
  <circle cx="922.9143438319245" cy="161.6717695500604" r="4.716965274303817" fill="#CFAE58" opacity="0.13346514999677658"/>
  <circle cx="84.32629388475874" cy="148.37400446661277" r="4.951825412669644" fill="#CFAE58" opacity="0.23357092239921723"/>
  <circle cx="1187.069268224858" cy="543.1679712079643" r="3.9772755485115154" fill="#CFAE58" opacity="0.2292654602760103"/>
  <circle cx="952.5044075078739" cy="25.442263336495618" r="4.97902846299856" fill="#CFAE58" opacity="0.20047694664833599"/>
  <circle cx="819.7270962600395" cy="394.9594889013565" r="2.321869421781782" fill="#CFAE58" opacity="0.2188295929340192"/>
  <circle cx="453.78895919953385" cy="342.4546184013982" r="2.507531545256128" fill="#CFAE58" opacity="0.17220034266757178"/>
  <circle cx="954.0271548781242" cy="271.71026432400816" r="3.957688258297356" fill="#CFAE58" opacity="0.18505646898730488"/>
  <circle cx="462.46341101571943" cy="320.2473246611148" r="4.373842938599735" fill="#CFAE58" opacity="0.13083945150206291"/>
  <circle cx="399.1829341599746" cy="194.97696458499" r="2.526346317940774" fill="#CFAE58" opacity="0.2108471660680516"/>
  <circle cx="429.4416586614334" cy="35.615394456921784" r="5.585950226332153" fill="#CFAE58" opacity="0.13216145390920261"/>
  <circle cx="1115.7959804401496" cy="211.79995797368971" r="2.938642270944412" fill="#CFAE58" opacity="0.1893057932896287"/>
  <circle cx="1146.9851468398729" cy="612.6301866340285" r="4.063643709429371" fill="#CFAE58" opacity="0.21461674120490715"/>
  <circle cx="482.8620138861525" cy="51.03604119583494" r="2.6080242792838906" fill="#CFAE58" opacity="0.19759214964134958"/>
  <circle cx="237.33168101383896" cy="227.43287597344755" r="3.786644512000968" fill="#CFAE58" opacity="0.2379921395587372"/>

  <!-- Border with glow -->
  <rect x="40" y="40" width="1120" height="550" fill="none" stroke="url(#goldGradient)" stroke-width="3" rx="12" filter="url(#softGlow)"/>

  <!-- Icon circle with premium background -->
  <circle cx="150" cy="200" r="75" fill="#CFAE58" opacity="0.15" filter="url(#softGlow)"/>
  <circle cx="150" cy="200" r="70" fill="#CFAE58" opacity="0.25"/>
  <text x="150" y="235" font-size="90" text-anchor="middle" fill="#CFAE58" filter="url(#glow)">📍</text>

  <!-- Premium logo (crown) with enhanced styling -->
  <g transform="translate(100, 70)">
    <path d="M 30 20 L 40 35 L 35 35 Z M 50 15 L 60 35 L 45 35 Z M 65 20 L 75 35 L 70 35 Z M 30 35 L 75 35 L 73 45 L 32 45 Z"
          fill="url(#goldGradient)" filter="url(#glow)" stroke="#B89842" stroke-width="0.5"/>
    <circle cx="40" cy="25" r="3" fill="#4FD1C5" filter="url(#glow)"/>
    <circle cx="52" cy="20" r="4" fill="#4FD1C5" filter="url(#glow)"/>
    <circle cx="65" cy="25" r="3" fill="#4FD1C5" filter="url(#glow)"/>
  </g>

  <!-- Title with shadow -->
  <text x="280" y="180" font-family="Georgia, serif" font-size="72" font-weight="bold"
        fill="url(#goldGradient)" filter="url(#shadow)">Contact Us</text>

  <!-- Subtitle with subtle glow -->
  <text x="280" y="230" font-family="Arial, sans-serif" font-size="36"
        fill="#D6DEE6" opacity="0.95" filter="url(#softGlow)">Visit Us on Sakhalin Island</text>

  <!-- Brand name with letter spacing -->
  <text x="280" y="300" font-family="Georgia, serif" font-size="32" font-weight="bold"
        fill="#CFAE58" letter-spacing="4" filter="url(#glow)">ROYAL KETA</text>

  <!-- Russian tagline -->
  <text x="280" y="340" font-family="Arial, sans-serif" font-size="22" font-style="italic"
        fill="#8B95A1" opacity="0.8">От икринки к королевской</text>

  <!-- Location -->
  <text x="280" y="380" font-family="Arial, sans-serif" font-size="20"
        fill="#8B95A1" opacity="0.7">Невельский район, Сахалин</text>

  <!-- Website with glow -->
  <text x="100" y="570" font-family="Arial, sans-serif" font-size="30" font-weight="bold"
        fill="#4FD1C5" filter="url(#glow)">royalketa.com</text>

  <!-- Enhanced decorative salmon silhouette -->
  <g transform="translate(950, 480)" opacity="0.2" filter="url(#softGlow)">
    <ellipse cx="0" cy="0" rx="90" ry="35" fill="#CFAE58"/>
    <path d="M 90 0 L 120 -18 L 130 0 L 120 18 Z" fill="#CFAE58"/>
    <path d="M -25 -35 L 0 -45 L 25 -35 Z" fill="#CFAE58"/>
    <ellipse cx="-50" cy="0" rx="15" ry="12" fill="#0B0F14"/>
  </g>

  <!-- Additional decorative caviar clusters -->
  <g opacity="0.2">
    <circle cx="1050" cy="120" r="6" fill="#CFAE58"/>
    <circle cx="1065" cy="115" r="5" fill="#CFAE58"/>
    <circle cx="1058" cy="130" r="4" fill="#CFAE58"/>
    <circle cx="150" cy="500" r="5" fill="#4FD1C5"/>
    <circle cx="165" cy="508" r="4" fill="#4FD1C5"/>
    <circle cx="140" cy="512" r="5" fill="#4FD1C5"/>
  </g>
</svg>