<svg width="1200" height="630" xmlns="http://www.w3.org/2000/svg">
  <defs>
    <linearGradient id="bgGradient" x1="0%" y1="0%" x2="100%" y2="100%">
      <stop offset="0%" style="stop-color:#0B0F14;stop-opacity:1" />
      <stop offset="50%" style="stop-color:#0F1619;stop-opacity:1" />
      <stop offset="100%" style="stop-color:#0F1922;stop-opacity:1" />
    </linearGradient>
    <linearGradient id="goldGradient" x1="0%" y1="0%" x2="100%" y2="0%">
      <stop offset="0%" style="stop-color:#E5D596;stop-opacity:1" />
      <stop offset="50%" style="stop-color:#CFAE58;stop-opacity:1" />
      <stop offset="100%" style="stop-color:#B89842;stop-opacity:1" />
    </linearGradient>
    <radialGradient id="oceanGradient" cx="50%" cy="50%" r="50%">
      <stop offset="0%" style="stop-color:#4FD1C5;stop-opacity:0.3" />
      <stop offset="100%" style="stop-color:#1E90A0;stop-opacity:0.05" />
    </radialGradient>
    <filter id="glow">
      <feGaussianBlur stdDeviation="5" result="coloredBlur"/>
      <feMerge>
        <feMergeNode in="coloredBlur"/>
        <feMergeNode in="SourceGraphic"/>
      </feMerge>
    </filter>
    <filter id="softGlow">
      <feGaussianBlur stdDeviation="8" result="coloredBlur"/>
      <feMerge>
        <feMergeNode in="coloredBlur"/>
        <feMergeNode in="SourceGraphic"/>
      </feMerge>
    </filter>
    <filter id="shadow">
      <feDropShadow dx="0" dy="4" stdDeviation="8" flood-color="#000000" flood-opacity="0.5"/>
    </filter>
  </defs>

  <!-- Background -->
  <rect width="1200" height="630" fill="url(#bgGradient)"/>

  <!-- Decorative ocean gradients -->
  <ellipse cx="1000" cy="150" rx="300" ry="200" fill="url(#oceanGradient)" opacity="0.4"/>
  <ellipse cx="200" cy="530" rx="250" ry="180" fill="url(#oceanGradient)" opacity="0.3"/>

  <!-- Wave patterns -->
  <path d="M 0 400 Q 300 350 600 400 T 1200 400 L 1200 630 L 0 630 Z" fill="#1E90A0" opacity="0.08"/>
  <path d="M 0 450 Q 250 420 500 450 T 1000 450 T 1200 450 L 1200 630 L 0 630 Z" fill="#4FD1C5" opacity="0.05"/>

  <!-- Caviar roe particles -->
  <circle cx="688.1113596920161" cy="118.27881399018243" r="5.969033414214092" fill="#CFAE58" opacity="0.19310586421842796"/>
  <circle cx="935.0221616798109" cy="4.827873416411164" r="3.4539869343928316" fill="#CFAE58" opacity="0.22921741310273688"/>
  <circle cx="1066.1167697841506" cy="319.0590105492172" r="2.833861037243149" fill="#CFAE58" opacity="0.1339636066732347"/>
  <circle cx="634.8862475824345" cy="495.72873773950596" r="5.151793255878083" fill="#CFAE58" opacity="0.17393919520276024"/>
  <circle cx="338.00568559177987" cy="39.22916917642002" r="4.857956381541373" fill="#CFAE58" opacity="0.2206839821956022"/>
  <circle cx="974.2726859325943" cy="432.0864674508797" r="4.017546596623902" fill="#CFAE58" opacity="0.18825371955087236"/>
  <circle cx="365.4959723677222" cy="6.331158594272953" r="3.091985245303373" fill="#CFAE58" opacity="0.14447529999910347"/>
  <circle cx="1173.3278209135133" cy="279.72764522098026" r="5.081566480670264" fill="#CFAE58" opacity="0.15516363233681932"/>
  <circle cx="787.494884181359" cy="485.98808517562696" r="5.286645265041161" fill="#CFAE58" opacity="0.12153181198120341"/>
  <circle cx="490.34609113896227" cy="406.34615110882146" r="4.473570502913464" fill="#CFAE58" opacity="0.2083475920179353"/>
  <circle cx="1042.2354658734364" cy="152.8063104383834" r="3.8777134873401553" fill="#CFAE58" opacity="0.19545398760771626"/>
  <circle cx="352.64934114941775" cy="376.98076582610076" r="3.889638742399021" fill="#CFAE58" opacity="0.22295858003890723"/>
  <circle cx="834.7648295420669" cy="519.1654892143979" r="2.866562052796318" fill="#CFAE58" opacity="0.23264676983569613"/>
  <circle cx="994.5406443834662" cy="213.45533950470363" r="3.9268879774429144" fill="#CFAE58" opacity="0.17467951755599048"/>
  <circle cx="875.7284754617968" cy="78.59670606514082" r="5.988599468772773" fill="#CFAE58" opacity="0.19783847823101003"/>
  <circle cx="1199.3855452422692" cy="301.6631231107127" r="2.0743553667029655" fill="#CFAE58" opacity="0.18881049597019597"/>
  <circle cx="530.6135965766083" cy="445.51637958194055" r="5.763168910374339" fill="#CFAE58" opacity="0.20738432909839655"/>
  <circle cx="1031.0890117985193" cy="267.90407908788336" r="4.046420674445155" fill="#CFAE58" opacity="0.19952959324974612"/>
  <circle cx="1010.3612404401586" cy="568.9458438770063" r="3.996840625010128" fill="#CFAE58" opacity="0.20432758035216336"/>
  <circle cx="437.8935191806972" cy="579.1521418473063" r="3.800931821566096" fill="#CFAE58" opacity="0.10464609786686764"/>
  <circle cx="470.3209971887027" cy="382.9801667564525" r="5.360213832519669" fill="#CFAE58" opacity="0.14699723920694427"/>
  <circle cx="261.93218576461703" cy="409.0314062970047" r="2.145982549546405" fill="#CFAE58" opacity="0.1726530640813529"/>
  <circle cx="913.1722610105392" cy="400.2876316944358" r="2.2708027087178695" fill="#CFAE58" opacity="0.20775290160202586"/>
  <circle cx="1016.7039146637482" cy="624.914596270463" r="4.789639278329853" fill="#CFAE58" opacity="0.11364882012192135"/>
  <circle cx="1127.0087720939257" cy="331.75442587674223" r="4.314866964746525" fill="#CFAE58" opacity="0.16144487519345668"/>
  <circle cx="583.4265950436901" cy="461.0511497253396" r="5.566976136345534" fill="#CFAE58" opacity="0.2215738516595801"/>
  <circle cx="458.58640086753735" cy="597.5045069887824" r="5.452064663067262" fill="#CFAE58" opacity="0.14946269651250926"/>
  <circle cx="196.03795483902914" cy="67.05862430514993" r="2.445178118653093" fill="#CFAE58" opacity="0.11426227309856397"/>
  <circle cx="455.58763431839725" cy="582.5456617709282" r="3.717860163128047" fill="#CFAE58" opacity="0.20201778742635956"/>
  <circle cx="1063.4625620378813" cy="51.953460117385646" r="2.2135395899648778" fill="#CFAE58" opacity="0.1645011269464305"/>

  <!-- Border with glow -->
  <rect x="40" y="40" width="1120" height="550" fill="none" stroke="url(#goldGradient)" stroke-width="3" rx="12" filter="url(#softGlow)"/>

  <!-- Icon circle with premium background -->
  <circle cx="150" cy="200" r="75" fill="#CFAE58" opacity="0.15" filter="url(#softGlow)"/>
  <circle cx="150" cy="200" r="70" fill="#CFAE58" opacity="0.25"/>
  <text x="150" y="235" font-size="90" text-anchor="middle" fill="#CFAE58" filter="url(#glow)">📍</text>

  <!-- Premium logo (crown) with enhanced styling -->
  <g transform="translate(100, 70)">
    <path d="M 30 20 L 40 35 L 35 35 Z M 50 15 L 60 35 L 45 35 Z M 65 20 L 75 35 L 70 35 Z M 30 35 L 75 35 L 73 45 L 32 45 Z"
          fill="url(#goldGradient)" filter="url(#glow)" stroke="#B89842" stroke-width="0.5"/>
    <circle cx="40" cy="25" r="3" fill="#4FD1C5" filter="url(#glow)"/>
    <circle cx="52" cy="20" r="4" fill="#4FD1C5" filter="url(#glow)"/>
    <circle cx="65" cy="25" r="3" fill="#4FD1C5" filter="url(#glow)"/>
  </g>

  <!-- Title with shadow -->
  <text x="280" y="180" font-family="Georgia, serif" font-size="72" font-weight="bold"
        fill="url(#goldGradient)" filter="url(#shadow)">Contact Us</text>

  <!-- Subtitle with subtle glow -->
  <text x="280" y="230" font-family="Arial, sans-serif" font-size="36"
        fill="#D6DEE6" opacity="0.95" filter="url(#softGlow)">Visit Us on Sakhalin Island</text>

  <!-- Brand name with letter spacing -->
  <text x="280" y="300" font-family="Georgia, serif" font-size="32" font-weight="bold"
        fill="#CFAE58" letter-spacing="4" filter="url(#glow)">ROYAL KETA</text>

  <!-- Russian tagline -->
  <text x="280" y="340" font-family="Arial, sans-serif" font-size="22" font-style="italic"
        fill="#8B95A1" opacity="0.8">От икринки к королевской</text>

  <!-- Location -->
  <text x="280" y="380" font-family="Arial, sans-serif" font-size="20"
        fill="#8B95A1" opacity="0.7">Невельский район, Сахалин</text>

  <!-- Website with glow -->
  <text x="100" y="570" font-family="Arial, sans-serif" font-size="30" font-weight="bold"
        fill="#4FD1C5" filter="url(#glow)">royalketa.com</text>

  <!-- Enhanced decorative salmon silhouette -->
  <g transform="translate(950, 480)" opacity="0.2" filter="url(#softGlow)">
    <ellipse cx="0" cy="0" rx="90" ry="35" fill="#CFAE58"/>
    <path d="M 90 0 L 120 -18 L 130 0 L 120 18 Z" fill="#CFAE58"/>
    <path d="M -25 -35 L 0 -45 L 25 -35 Z" fill="#CFAE58"/>
    <ellipse cx="-50" cy="0" rx="15" ry="12" fill="#0B0F14"/>
  </g>

  <!-- Additional decorative caviar clusters -->
  <g opacity="0.2">
    <circle cx="1050" cy="120" r="6" fill="#CFAE58"/>
    <circle cx="1065" cy="115" r="5" fill="#CFAE58"/>
    <circle cx="1058" cy="130" r="4" fill="#CFAE58"/>
    <circle cx="150" cy="500" r="5" fill="#4FD1C5"/>
    <circle cx="165" cy="508" r="4" fill="#4FD1C5"/>
    <circle cx="140" cy="512" r="5" fill="#4FD1C5"/>
  </g>
</svg>