<svg width="1200" height="630" xmlns="http://www.w3.org/2000/svg">
  <defs>
    <linearGradient id="bgGradient" x1="0%" y1="0%" x2="100%" y2="100%">
      <stop offset="0%" style="stop-color:#0B0F14;stop-opacity:1" />
      <stop offset="50%" style="stop-color:#0F1619;stop-opacity:1" />
      <stop offset="100%" style="stop-color:#0F1922;stop-opacity:1" />
    </linearGradient>
    <linearGradient id="goldGradient" x1="0%" y1="0%" x2="100%" y2="0%">
      <stop offset="0%" style="stop-color:#E5D596;stop-opacity:1" />
      <stop offset="50%" style="stop-color:#CFAE58;stop-opacity:1" />
      <stop offset="100%" style="stop-color:#B89842;stop-opacity:1" />
    </linearGradient>
    <radialGradient id="oceanGradient" cx="50%" cy="50%" r="50%">
      <stop offset="0%" style="stop-color:#4FD1C5;stop-opacity:0.3" />
      <stop offset="100%" style="stop-color:#1E90A0;stop-opacity:0.05" />
    </radialGradient>
    <filter id="glow">
      <feGaussianBlur stdDeviation="5" result="coloredBlur"/>
      <feMerge>
        <feMergeNode in="coloredBlur"/>
        <feMergeNode in="SourceGraphic"/>
      </feMerge>
    </filter>
    <filter id="softGlow">
      <feGaussianBlur stdDeviation="8" result="coloredBlur"/>
      <feMerge>
        <feMergeNode in="coloredBlur"/>
        <feMergeNode in="SourceGraphic"/>
      </feMerge>
    </filter>
    <filter id="shadow">
      <feDropShadow dx="0" dy="4" stdDeviation="8" flood-color="#000000" flood-opacity="0.5"/>
    </filter>
  </defs>

  <!-- Background -->
  <rect width="1200" height="630" fill="url(#bgGradient)"/>

  <!-- Decorative ocean gradients -->
  <ellipse cx="1000" cy="150" rx="300" ry="200" fill="url(#oceanGradient)" opacity="0.4"/>
  <ellipse cx="200" cy="530" rx="250" ry="180" fill="url(#oceanGradient)" opacity="0.3"/>

  <!-- Wave patterns -->
  <path d="M 0 400 Q 300 350 600 400 T 1200 400 L 1200 630 L 0 630 Z" fill="#1E90A0" opacity="0.08"/>
  <path d="M 0 450 Q 250 420 500 450 T 1000 450 T 1200 450 L 1200 630 L 0 630 Z" fill="#4FD1C5" opacity="0.05"/>

  <!-- Caviar roe particles -->
  <circle cx="143.1221440465075" cy="125.35064390388165" r="5.904830376729863" fill="#CFAE58" opacity="0.16403839557689093"/>
  <circle cx="626.1810875787137" cy="448.9433554468355" r="5.5155295487939755" fill="#CFAE58" opacity="0.16911228546241847"/>
  <circle cx="914.1664032069668" cy="289.21285998690036" r="2.866514924829728" fill="#CFAE58" opacity="0.1956964233172878"/>
  <circle cx="394.71284155063813" cy="227.813634058816" r="4.542721588375734" fill="#CFAE58" opacity="0.11819483422276027"/>
  <circle cx="309.39788802619165" cy="83.25689878933869" r="2.585673940705999" fill="#CFAE58" opacity="0.19670721825482296"/>
  <circle cx="72.72184786667779" cy="451.7016019109372" r="2.8546140468553762" fill="#CFAE58" opacity="0.20604020732691153"/>
  <circle cx="135.3584972394275" cy="182.69854152407098" r="3.9115630025775685" fill="#CFAE58" opacity="0.1680853593405166"/>
  <circle cx="632.0338059344144" cy="377.275689238501" r="5.0421466178500385" fill="#CFAE58" opacity="0.22141853417974267"/>
  <circle cx="603.8143947827973" cy="138.8909225845686" r="5.148377630620623" fill="#CFAE58" opacity="0.23864390460543117"/>
  <circle cx="655.4106732087571" cy="52.50854501722074" r="2.7210682344277073" fill="#CFAE58" opacity="0.20793002568548985"/>
  <circle cx="785.5991640452298" cy="246.96226418189977" r="5.0108180110344" fill="#CFAE58" opacity="0.10618144895911845"/>
  <circle cx="86.58368751665594" cy="622.4286736639907" r="4.912899175604128" fill="#CFAE58" opacity="0.2245502097111183"/>
  <circle cx="635.8548991488169" cy="53.999754689182865" r="3.7975444223102865" fill="#CFAE58" opacity="0.24279894083547085"/>
  <circle cx="11.983181270706478" cy="341.34689260417133" r="5.849509951460879" fill="#CFAE58" opacity="0.1639831317015148"/>
  <circle cx="323.58983069334596" cy="484.68331727029863" r="3.290716088146639" fill="#CFAE58" opacity="0.11847159633863202"/>
  <circle cx="801.0028704913901" cy="43.922315290435634" r="2.043624747446427" fill="#CFAE58" opacity="0.24293014190533146"/>
  <circle cx="516.4603645166931" cy="255.9293122087483" r="3.925047134757018" fill="#CFAE58" opacity="0.1859300116836619"/>
  <circle cx="749.023885113314" cy="222.34664495052246" r="2.092806220781571" fill="#CFAE58" opacity="0.2079382760188045"/>
  <circle cx="637.8585162580371" cy="531.3822484495147" r="2.4597188282245073" fill="#CFAE58" opacity="0.20579631016980104"/>
  <circle cx="669.2098836193359" cy="376.60617253656545" r="4.745354519172785" fill="#CFAE58" opacity="0.10021205927981196"/>
  <circle cx="765.9898351084473" cy="213.06552940400238" r="4.588690907345998" fill="#CFAE58" opacity="0.14264141442228342"/>
  <circle cx="319.436454012482" cy="357.3321817366497" r="2.7033066602048503" fill="#CFAE58" opacity="0.157173160298342"/>
  <circle cx="561.1989145600772" cy="574.7532635514198" r="5.216214813074876" fill="#CFAE58" opacity="0.16114618117034876"/>
  <circle cx="472.3724491622082" cy="39.42472581913596" r="4.663093504851428" fill="#CFAE58" opacity="0.10912272412515375"/>
  <circle cx="891.2348425498186" cy="11.780755114487054" r="2.9847648254221646" fill="#CFAE58" opacity="0.11142304823928822"/>
  <circle cx="309.7362658482017" cy="418.2097699432008" r="4.343254801033312" fill="#CFAE58" opacity="0.11560362847415823"/>
  <circle cx="474.0802167694549" cy="116.99721896173935" r="5.433027537766379" fill="#CFAE58" opacity="0.11516950003855275"/>
  <circle cx="308.3426733913326" cy="183.42854451676538" r="2.1173506021444988" fill="#CFAE58" opacity="0.24380682802737302"/>
  <circle cx="717.7577621969556" cy="231.23861812221392" r="5.2982345074392745" fill="#CFAE58" opacity="0.24337559600720265"/>
  <circle cx="634.9068586728132" cy="142.88144607752452" r="5.203911513916452" fill="#CFAE58" opacity="0.20414063232394564"/>

  <!-- Border with glow -->
  <rect x="40" y="40" width="1120" height="550" fill="none" stroke="url(#goldGradient)" stroke-width="3" rx="12" filter="url(#softGlow)"/>

  <!-- Icon circle with premium background -->
  <circle cx="150" cy="200" r="75" fill="#CFAE58" opacity="0.15" filter="url(#softGlow)"/>
  <circle cx="150" cy="200" r="70" fill="#CFAE58" opacity="0.25"/>
  <text x="150" y="235" font-size="90" text-anchor="middle" fill="#CFAE58" filter="url(#glow)">📍</text>

  <!-- Premium logo (crown) with enhanced styling -->
  <g transform="translate(100, 70)">
    <path d="M 30 20 L 40 35 L 35 35 Z M 50 15 L 60 35 L 45 35 Z M 65 20 L 75 35 L 70 35 Z M 30 35 L 75 35 L 73 45 L 32 45 Z"
          fill="url(#goldGradient)" filter="url(#glow)" stroke="#B89842" stroke-width="0.5"/>
    <circle cx="40" cy="25" r="3" fill="#4FD1C5" filter="url(#glow)"/>
    <circle cx="52" cy="20" r="4" fill="#4FD1C5" filter="url(#glow)"/>
    <circle cx="65" cy="25" r="3" fill="#4FD1C5" filter="url(#glow)"/>
  </g>

  <!-- Title with shadow -->
  <text x="280" y="180" font-family="Georgia, serif" font-size="72" font-weight="bold"
        fill="url(#goldGradient)" filter="url(#shadow)">Contact Us</text>

  <!-- Subtitle with subtle glow -->
  <text x="280" y="230" font-family="Arial, sans-serif" font-size="36"
        fill="#D6DEE6" opacity="0.95" filter="url(#softGlow)">Visit Us on Sakhalin Island</text>

  <!-- Brand name with letter spacing -->
  <text x="280" y="300" font-family="Georgia, serif" font-size="32" font-weight="bold"
        fill="#CFAE58" letter-spacing="4" filter="url(#glow)">ROYAL KETA</text>

  <!-- Russian tagline -->
  <text x="280" y="340" font-family="Arial, sans-serif" font-size="22" font-style="italic"
        fill="#8B95A1" opacity="0.8">От икринки к королевской</text>

  <!-- Location -->
  <text x="280" y="380" font-family="Arial, sans-serif" font-size="20"
        fill="#8B95A1" opacity="0.7">Невельский район, Сахалин</text>

  <!-- Website with glow -->
  <text x="100" y="570" font-family="Arial, sans-serif" font-size="30" font-weight="bold"
        fill="#4FD1C5" filter="url(#glow)">royalketa.com</text>

  <!-- Enhanced decorative salmon silhouette -->
  <g transform="translate(950, 480)" opacity="0.2" filter="url(#softGlow)">
    <ellipse cx="0" cy="0" rx="90" ry="35" fill="#CFAE58"/>
    <path d="M 90 0 L 120 -18 L 130 0 L 120 18 Z" fill="#CFAE58"/>
    <path d="M -25 -35 L 0 -45 L 25 -35 Z" fill="#CFAE58"/>
    <ellipse cx="-50" cy="0" rx="15" ry="12" fill="#0B0F14"/>
  </g>

  <!-- Additional decorative caviar clusters -->
  <g opacity="0.2">
    <circle cx="1050" cy="120" r="6" fill="#CFAE58"/>
    <circle cx="1065" cy="115" r="5" fill="#CFAE58"/>
    <circle cx="1058" cy="130" r="4" fill="#CFAE58"/>
    <circle cx="150" cy="500" r="5" fill="#4FD1C5"/>
    <circle cx="165" cy="508" r="4" fill="#4FD1C5"/>
    <circle cx="140" cy="512" r="5" fill="#4FD1C5"/>
  </g>
</svg>