<svg width="1200" height="630" xmlns="http://www.w3.org/2000/svg">
  <defs>
    <linearGradient id="bgGradient" x1="0%" y1="0%" x2="100%" y2="100%">
      <stop offset="0%" style="stop-color:#0B0F14;stop-opacity:1" />
      <stop offset="50%" style="stop-color:#0F1619;stop-opacity:1" />
      <stop offset="100%" style="stop-color:#0F1922;stop-opacity:1" />
    </linearGradient>
    <linearGradient id="goldGradient" x1="0%" y1="0%" x2="100%" y2="0%">
      <stop offset="0%" style="stop-color:#E5D596;stop-opacity:1" />
      <stop offset="50%" style="stop-color:#CFAE58;stop-opacity:1" />
      <stop offset="100%" style="stop-color:#B89842;stop-opacity:1" />
    </linearGradient>
    <radialGradient id="oceanGradient" cx="50%" cy="50%" r="50%">
      <stop offset="0%" style="stop-color:#4FD1C5;stop-opacity:0.3" />
      <stop offset="100%" style="stop-color:#1E90A0;stop-opacity:0.05" />
    </radialGradient>
    <filter id="glow">
      <feGaussianBlur stdDeviation="5" result="coloredBlur"/>
      <feMerge>
        <feMergeNode in="coloredBlur"/>
        <feMergeNode in="SourceGraphic"/>
      </feMerge>
    </filter>
    <filter id="softGlow">
      <feGaussianBlur stdDeviation="8" result="coloredBlur"/>
      <feMerge>
        <feMergeNode in="coloredBlur"/>
        <feMergeNode in="SourceGraphic"/>
      </feMerge>
    </filter>
    <filter id="shadow">
      <feDropShadow dx="0" dy="4" stdDeviation="8" flood-color="#000000" flood-opacity="0.5"/>
    </filter>
  </defs>

  <!-- Background -->
  <rect width="1200" height="630" fill="url(#bgGradient)"/>

  <!-- Decorative ocean gradients -->
  <ellipse cx="1000" cy="150" rx="300" ry="200" fill="url(#oceanGradient)" opacity="0.4"/>
  <ellipse cx="200" cy="530" rx="250" ry="180" fill="url(#oceanGradient)" opacity="0.3"/>

  <!-- Wave patterns -->
  <path d="M 0 400 Q 300 350 600 400 T 1200 400 L 1200 630 L 0 630 Z" fill="#1E90A0" opacity="0.08"/>
  <path d="M 0 450 Q 250 420 500 450 T 1000 450 T 1200 450 L 1200 630 L 0 630 Z" fill="#4FD1C5" opacity="0.05"/>

  <!-- Caviar roe particles -->
  <circle cx="686.0677567291427" cy="279.84034678814027" r="2.695711522217914" fill="#CFAE58" opacity="0.17658110630079785"/>
  <circle cx="823.3140000665437" cy="144.6605192055424" r="5.285705698908489" fill="#CFAE58" opacity="0.19382989913968018"/>
  <circle cx="41.45443145277983" cy="328.57925436934613" r="5.228181488416357" fill="#CFAE58" opacity="0.2273115260304951"/>
  <circle cx="264.09633432096604" cy="308.55998694927877" r="4.805682164888482" fill="#CFAE58" opacity="0.2310916257057062"/>
  <circle cx="18.167844297993163" cy="411.50831982499346" r="3.8662275441998815" fill="#CFAE58" opacity="0.13174270808846625"/>
  <circle cx="16.722859518730758" cy="493.86347208092025" r="4.135951644828944" fill="#CFAE58" opacity="0.12776602093313894"/>
  <circle cx="1148.933351353244" cy="514.753623446624" r="5.044674349799729" fill="#CFAE58" opacity="0.2286081275356644"/>
  <circle cx="1050.1313173941408" cy="267.0144482269382" r="2.0868084599014787" fill="#CFAE58" opacity="0.17124031302102669"/>
  <circle cx="685.6248280253083" cy="98.86698988943218" r="5.364921296382356" fill="#CFAE58" opacity="0.11293765148507938"/>
  <circle cx="833.3111915064189" cy="277.1142577923002" r="2.233782201373412" fill="#CFAE58" opacity="0.17391999961820767"/>
  <circle cx="730.9106710551721" cy="550.4455260930064" r="4.217434305082524" fill="#CFAE58" opacity="0.1607829548869033"/>
  <circle cx="238.403727416478" cy="337.9128887493498" r="4.45359761748397" fill="#CFAE58" opacity="0.16957443451694146"/>
  <circle cx="620.5440669460038" cy="38.47745702682007" r="4.224908839270677" fill="#CFAE58" opacity="0.18315109099620752"/>
  <circle cx="733.0950200065114" cy="617.7339836575443" r="3.6614246614353045" fill="#CFAE58" opacity="0.20141743842544424"/>
  <circle cx="491.41555107024175" cy="122.1957423044268" r="2.46890939667408" fill="#CFAE58" opacity="0.1799750981744232"/>
  <circle cx="798.8153793409592" cy="566.0338571729741" r="5.073721663792666" fill="#CFAE58" opacity="0.19740841718384236"/>
  <circle cx="446.06240855389143" cy="271.75572190160176" r="3.225108860393364" fill="#CFAE58" opacity="0.24337127502074807"/>
  <circle cx="1086.3732380920114" cy="522.9930617771258" r="2.9261884838364463" fill="#CFAE58" opacity="0.2148036630013367"/>
  <circle cx="1162.555790322132" cy="17.057150619810677" r="2.251644579634638" fill="#CFAE58" opacity="0.22107704004805206"/>
  <circle cx="121.07946095633122" cy="175.08957209203226" r="3.880027366127238" fill="#CFAE58" opacity="0.12683349978658384"/>
  <circle cx="630.6534039290201" cy="162.8291457215677" r="5.546497416405898" fill="#CFAE58" opacity="0.16621565496220372"/>
  <circle cx="861.6849147676442" cy="359.01496822820747" r="3.8660255993979" fill="#CFAE58" opacity="0.15244694494511124"/>
  <circle cx="255.0216855958448" cy="193.5368919559351" r="4.767343897134223" fill="#CFAE58" opacity="0.22591353347730847"/>
  <circle cx="247.79667732092895" cy="465.0746325491264" r="4.8820239013712765" fill="#CFAE58" opacity="0.1707648006478198"/>
  <circle cx="953.8963860576483" cy="4.6994005249815" r="2.5444135223543727" fill="#CFAE58" opacity="0.20168553991510502"/>
  <circle cx="821.0608186872806" cy="382.6857396194376" r="2.9416065382139625" fill="#CFAE58" opacity="0.24265472288521833"/>
  <circle cx="1060.3482021035682" cy="362.60642649980053" r="3.9350438317823047" fill="#CFAE58" opacity="0.1372600109616992"/>
  <circle cx="989.3974672942368" cy="513.172402107006" r="2.773553941554064" fill="#CFAE58" opacity="0.166151545700647"/>
  <circle cx="1046.6086317575175" cy="278.990604731435" r="4.508843925842585" fill="#CFAE58" opacity="0.11119398047417474"/>
  <circle cx="729.0029749608325" cy="127.56085168219309" r="2.386601777620637" fill="#CFAE58" opacity="0.16451269277211136"/>

  <!-- Border with glow -->
  <rect x="40" y="40" width="1120" height="550" fill="none" stroke="url(#goldGradient)" stroke-width="3" rx="12" filter="url(#softGlow)"/>

  <!-- Icon circle with premium background -->
  <circle cx="150" cy="200" r="75" fill="#CFAE58" opacity="0.15" filter="url(#softGlow)"/>
  <circle cx="150" cy="200" r="70" fill="#CFAE58" opacity="0.25"/>
  <text x="150" y="235" font-size="90" text-anchor="middle" fill="#CFAE58" filter="url(#glow)">📍</text>

  <!-- Premium logo (crown) with enhanced styling -->
  <g transform="translate(100, 70)">
    <path d="M 30 20 L 40 35 L 35 35 Z M 50 15 L 60 35 L 45 35 Z M 65 20 L 75 35 L 70 35 Z M 30 35 L 75 35 L 73 45 L 32 45 Z"
          fill="url(#goldGradient)" filter="url(#glow)" stroke="#B89842" stroke-width="0.5"/>
    <circle cx="40" cy="25" r="3" fill="#4FD1C5" filter="url(#glow)"/>
    <circle cx="52" cy="20" r="4" fill="#4FD1C5" filter="url(#glow)"/>
    <circle cx="65" cy="25" r="3" fill="#4FD1C5" filter="url(#glow)"/>
  </g>

  <!-- Title with shadow -->
  <text x="280" y="180" font-family="Georgia, serif" font-size="72" font-weight="bold"
        fill="url(#goldGradient)" filter="url(#shadow)">Contact Us</text>

  <!-- Subtitle with subtle glow -->
  <text x="280" y="230" font-family="Arial, sans-serif" font-size="36"
        fill="#D6DEE6" opacity="0.95" filter="url(#softGlow)">Visit Us on Sakhalin Island</text>

  <!-- Brand name with letter spacing -->
  <text x="280" y="300" font-family="Georgia, serif" font-size="32" font-weight="bold"
        fill="#CFAE58" letter-spacing="4" filter="url(#glow)">ROYAL KETA</text>

  <!-- Russian tagline -->
  <text x="280" y="340" font-family="Arial, sans-serif" font-size="22" font-style="italic"
        fill="#8B95A1" opacity="0.8">От икринки к королевской</text>

  <!-- Location -->
  <text x="280" y="380" font-family="Arial, sans-serif" font-size="20"
        fill="#8B95A1" opacity="0.7">Невельский район, Сахалин</text>

  <!-- Website with glow -->
  <text x="100" y="570" font-family="Arial, sans-serif" font-size="30" font-weight="bold"
        fill="#4FD1C5" filter="url(#glow)">royalketa.com</text>

  <!-- Enhanced decorative salmon silhouette -->
  <g transform="translate(950, 480)" opacity="0.2" filter="url(#softGlow)">
    <ellipse cx="0" cy="0" rx="90" ry="35" fill="#CFAE58"/>
    <path d="M 90 0 L 120 -18 L 130 0 L 120 18 Z" fill="#CFAE58"/>
    <path d="M -25 -35 L 0 -45 L 25 -35 Z" fill="#CFAE58"/>
    <ellipse cx="-50" cy="0" rx="15" ry="12" fill="#0B0F14"/>
  </g>

  <!-- Additional decorative caviar clusters -->
  <g opacity="0.2">
    <circle cx="1050" cy="120" r="6" fill="#CFAE58"/>
    <circle cx="1065" cy="115" r="5" fill="#CFAE58"/>
    <circle cx="1058" cy="130" r="4" fill="#CFAE58"/>
    <circle cx="150" cy="500" r="5" fill="#4FD1C5"/>
    <circle cx="165" cy="508" r="4" fill="#4FD1C5"/>
    <circle cx="140" cy="512" r="5" fill="#4FD1C5"/>
  </g>
</svg>