<svg width="1200" height="630" xmlns="http://www.w3.org/2000/svg">
  <defs>
    <linearGradient id="bgGradient" x1="0%" y1="0%" x2="100%" y2="100%">
      <stop offset="0%" style="stop-color:#0B0F14;stop-opacity:1" />
      <stop offset="50%" style="stop-color:#0F1619;stop-opacity:1" />
      <stop offset="100%" style="stop-color:#0F1922;stop-opacity:1" />
    </linearGradient>
    <linearGradient id="goldGradient" x1="0%" y1="0%" x2="100%" y2="0%">
      <stop offset="0%" style="stop-color:#E5D596;stop-opacity:1" />
      <stop offset="50%" style="stop-color:#CFAE58;stop-opacity:1" />
      <stop offset="100%" style="stop-color:#B89842;stop-opacity:1" />
    </linearGradient>
    <radialGradient id="oceanGradient" cx="50%" cy="50%" r="50%">
      <stop offset="0%" style="stop-color:#4FD1C5;stop-opacity:0.3" />
      <stop offset="100%" style="stop-color:#1E90A0;stop-opacity:0.05" />
    </radialGradient>
    <filter id="glow">
      <feGaussianBlur stdDeviation="5" result="coloredBlur"/>
      <feMerge>
        <feMergeNode in="coloredBlur"/>
        <feMergeNode in="SourceGraphic"/>
      </feMerge>
    </filter>
    <filter id="softGlow">
      <feGaussianBlur stdDeviation="8" result="coloredBlur"/>
      <feMerge>
        <feMergeNode in="coloredBlur"/>
        <feMergeNode in="SourceGraphic"/>
      </feMerge>
    </filter>
    <filter id="shadow">
      <feDropShadow dx="0" dy="4" stdDeviation="8" flood-color="#000000" flood-opacity="0.5"/>
    </filter>
  </defs>

  <!-- Background -->
  <rect width="1200" height="630" fill="url(#bgGradient)"/>

  <!-- Decorative ocean gradients -->
  <ellipse cx="1000" cy="150" rx="300" ry="200" fill="url(#oceanGradient)" opacity="0.4"/>
  <ellipse cx="200" cy="530" rx="250" ry="180" fill="url(#oceanGradient)" opacity="0.3"/>

  <!-- Wave patterns -->
  <path d="M 0 400 Q 300 350 600 400 T 1200 400 L 1200 630 L 0 630 Z" fill="#1E90A0" opacity="0.08"/>
  <path d="M 0 450 Q 250 420 500 450 T 1000 450 T 1200 450 L 1200 630 L 0 630 Z" fill="#4FD1C5" opacity="0.05"/>

  <!-- Caviar roe particles -->
  <circle cx="1088.863074011823" cy="193.2774323203927" r="3.8482488701871773" fill="#CFAE58" opacity="0.24575915485710736"/>
  <circle cx="1080.6243047176297" cy="483.89324053984654" r="5.182168918675631" fill="#CFAE58" opacity="0.20332973743670307"/>
  <circle cx="328.74315854897134" cy="35.53158526397171" r="2.297999075174717" fill="#CFAE58" opacity="0.1410653774255386"/>
  <circle cx="885.8319159548664" cy="556.1479254511421" r="4.893283792160917" fill="#CFAE58" opacity="0.14921730238679592"/>
  <circle cx="987.46493634912" cy="299.82476729980624" r="3.108508075676524" fill="#CFAE58" opacity="0.10965971085338276"/>
  <circle cx="716.46134462315" cy="469.6431415072458" r="2.4087248968869694" fill="#CFAE58" opacity="0.14475666121192077"/>
  <circle cx="797.8342654171472" cy="390.24541064793067" r="5.823340773746493" fill="#CFAE58" opacity="0.18657062009083386"/>
  <circle cx="544.4731342582821" cy="216.65095108002592" r="5.920457286342723" fill="#CFAE58" opacity="0.1619789086622433"/>
  <circle cx="149.40541513923895" cy="20.667991790444415" r="3.1486536827431024" fill="#CFAE58" opacity="0.17376354159940438"/>
  <circle cx="657.3897915158989" cy="577.618643935874" r="3.589464670401987" fill="#CFAE58" opacity="0.22027472720647603"/>
  <circle cx="1111.1707124552672" cy="212.95066144927654" r="3.553454326345104" fill="#CFAE58" opacity="0.17692791307320752"/>
  <circle cx="571.2742712323789" cy="408.0027073275177" r="4.702157707694746" fill="#CFAE58" opacity="0.14636770976454128"/>
  <circle cx="691.3858566482199" cy="442.82841740059604" r="2.5945401313030727" fill="#CFAE58" opacity="0.16672329111953266"/>
  <circle cx="145.52468555758617" cy="144.05942173234448" r="5.917781291986082" fill="#CFAE58" opacity="0.12814012655537768"/>
  <circle cx="1032.4490675603026" cy="47.086157621958044" r="5.1938762721494065" fill="#CFAE58" opacity="0.18452740863667316"/>
  <circle cx="36.60927185614548" cy="241.07979733728058" r="2.0203663845653796" fill="#CFAE58" opacity="0.18261289458766894"/>
  <circle cx="45.65341699361802" cy="245.48774567644702" r="2.243374060715529" fill="#CFAE58" opacity="0.11944879237935065"/>
  <circle cx="20.457911676425145" cy="33.87868285821055" r="3.490509672075813" fill="#CFAE58" opacity="0.2342522272663183"/>
  <circle cx="414.8337196648498" cy="493.0650244360984" r="4.517887206758229" fill="#CFAE58" opacity="0.13991468865731022"/>
  <circle cx="370.8777901598626" cy="496.85018058120653" r="3.683532203121338" fill="#CFAE58" opacity="0.1623546144126077"/>
  <circle cx="39.39471786718505" cy="189.54995462468625" r="5.937557088922108" fill="#CFAE58" opacity="0.13600787905378467"/>
  <circle cx="692.3397049912677" cy="225.67422915197105" r="3.6614330454443715" fill="#CFAE58" opacity="0.2177137489205297"/>
  <circle cx="1032.826222352328" cy="177.76156770543173" r="2.5141538168103867" fill="#CFAE58" opacity="0.12494499550487485"/>
  <circle cx="44.589044877831526" cy="275.49832573129794" r="4.281990029833375" fill="#CFAE58" opacity="0.16098961685141955"/>
  <circle cx="784.0789839848418" cy="445.2092998610917" r="5.982416595243888" fill="#CFAE58" opacity="0.21217645331757695"/>
  <circle cx="1184.484778223336" cy="339.6581752972086" r="2.2327263212172674" fill="#CFAE58" opacity="0.11260841312317588"/>
  <circle cx="403.93857506898854" cy="486.40394567325944" r="5.6885769359932565" fill="#CFAE58" opacity="0.15655529414286154"/>
  <circle cx="986.6125160450551" cy="153.98805327238702" r="2.373572817075517" fill="#CFAE58" opacity="0.12886132171140727"/>
  <circle cx="1026.1104563101076" cy="79.26247966178694" r="2.937111737525769" fill="#CFAE58" opacity="0.2463131943584346"/>
  <circle cx="890.2826068727873" cy="490.678967589461" r="2.89423001503343" fill="#CFAE58" opacity="0.22251483532452984"/>

  <!-- Border with glow -->
  <rect x="40" y="40" width="1120" height="550" fill="none" stroke="url(#goldGradient)" stroke-width="3" rx="12" filter="url(#softGlow)"/>

  <!-- Icon circle with premium background -->
  <circle cx="150" cy="200" r="75" fill="#CFAE58" opacity="0.15" filter="url(#softGlow)"/>
  <circle cx="150" cy="200" r="70" fill="#CFAE58" opacity="0.25"/>
  <text x="150" y="235" font-size="90" text-anchor="middle" fill="#CFAE58" filter="url(#glow)">📍</text>

  <!-- Premium logo (crown) with enhanced styling -->
  <g transform="translate(100, 70)">
    <path d="M 30 20 L 40 35 L 35 35 Z M 50 15 L 60 35 L 45 35 Z M 65 20 L 75 35 L 70 35 Z M 30 35 L 75 35 L 73 45 L 32 45 Z"
          fill="url(#goldGradient)" filter="url(#glow)" stroke="#B89842" stroke-width="0.5"/>
    <circle cx="40" cy="25" r="3" fill="#4FD1C5" filter="url(#glow)"/>
    <circle cx="52" cy="20" r="4" fill="#4FD1C5" filter="url(#glow)"/>
    <circle cx="65" cy="25" r="3" fill="#4FD1C5" filter="url(#glow)"/>
  </g>

  <!-- Title with shadow -->
  <text x="280" y="180" font-family="Georgia, serif" font-size="72" font-weight="bold"
        fill="url(#goldGradient)" filter="url(#shadow)">Contact Us</text>

  <!-- Subtitle with subtle glow -->
  <text x="280" y="230" font-family="Arial, sans-serif" font-size="36"
        fill="#D6DEE6" opacity="0.95" filter="url(#softGlow)">Visit Us on Sakhalin Island</text>

  <!-- Brand name with letter spacing -->
  <text x="280" y="300" font-family="Georgia, serif" font-size="32" font-weight="bold"
        fill="#CFAE58" letter-spacing="4" filter="url(#glow)">ROYAL KETA</text>

  <!-- Russian tagline -->
  <text x="280" y="340" font-family="Arial, sans-serif" font-size="22" font-style="italic"
        fill="#8B95A1" opacity="0.8">От икринки к королевской</text>

  <!-- Location -->
  <text x="280" y="380" font-family="Arial, sans-serif" font-size="20"
        fill="#8B95A1" opacity="0.7">Невельский район, Сахалин</text>

  <!-- Website with glow -->
  <text x="100" y="570" font-family="Arial, sans-serif" font-size="30" font-weight="bold"
        fill="#4FD1C5" filter="url(#glow)">royalketa.com</text>

  <!-- Enhanced decorative salmon silhouette -->
  <g transform="translate(950, 480)" opacity="0.2" filter="url(#softGlow)">
    <ellipse cx="0" cy="0" rx="90" ry="35" fill="#CFAE58"/>
    <path d="M 90 0 L 120 -18 L 130 0 L 120 18 Z" fill="#CFAE58"/>
    <path d="M -25 -35 L 0 -45 L 25 -35 Z" fill="#CFAE58"/>
    <ellipse cx="-50" cy="0" rx="15" ry="12" fill="#0B0F14"/>
  </g>

  <!-- Additional decorative caviar clusters -->
  <g opacity="0.2">
    <circle cx="1050" cy="120" r="6" fill="#CFAE58"/>
    <circle cx="1065" cy="115" r="5" fill="#CFAE58"/>
    <circle cx="1058" cy="130" r="4" fill="#CFAE58"/>
    <circle cx="150" cy="500" r="5" fill="#4FD1C5"/>
    <circle cx="165" cy="508" r="4" fill="#4FD1C5"/>
    <circle cx="140" cy="512" r="5" fill="#4FD1C5"/>
  </g>
</svg>