<svg width="1200" height="630" xmlns="http://www.w3.org/2000/svg">
  <defs>
    <linearGradient id="bgGradient" x1="0%" y1="0%" x2="100%" y2="100%">
      <stop offset="0%" style="stop-color:#0B0F14;stop-opacity:1" />
      <stop offset="50%" style="stop-color:#0F1619;stop-opacity:1" />
      <stop offset="100%" style="stop-color:#0F1922;stop-opacity:1" />
    </linearGradient>
    <linearGradient id="goldGradient" x1="0%" y1="0%" x2="100%" y2="0%">
      <stop offset="0%" style="stop-color:#E5D596;stop-opacity:1" />
      <stop offset="50%" style="stop-color:#CFAE58;stop-opacity:1" />
      <stop offset="100%" style="stop-color:#B89842;stop-opacity:1" />
    </linearGradient>
    <radialGradient id="oceanGradient" cx="50%" cy="50%" r="50%">
      <stop offset="0%" style="stop-color:#4FD1C5;stop-opacity:0.3" />
      <stop offset="100%" style="stop-color:#1E90A0;stop-opacity:0.05" />
    </radialGradient>
    <filter id="glow">
      <feGaussianBlur stdDeviation="5" result="coloredBlur"/>
      <feMerge>
        <feMergeNode in="coloredBlur"/>
        <feMergeNode in="SourceGraphic"/>
      </feMerge>
    </filter>
    <filter id="softGlow">
      <feGaussianBlur stdDeviation="8" result="coloredBlur"/>
      <feMerge>
        <feMergeNode in="coloredBlur"/>
        <feMergeNode in="SourceGraphic"/>
      </feMerge>
    </filter>
    <filter id="shadow">
      <feDropShadow dx="0" dy="4" stdDeviation="8" flood-color="#000000" flood-opacity="0.5"/>
    </filter>
  </defs>

  <!-- Background -->
  <rect width="1200" height="630" fill="url(#bgGradient)"/>

  <!-- Decorative ocean gradients -->
  <ellipse cx="1000" cy="150" rx="300" ry="200" fill="url(#oceanGradient)" opacity="0.4"/>
  <ellipse cx="200" cy="530" rx="250" ry="180" fill="url(#oceanGradient)" opacity="0.3"/>

  <!-- Wave patterns -->
  <path d="M 0 400 Q 300 350 600 400 T 1200 400 L 1200 630 L 0 630 Z" fill="#1E90A0" opacity="0.08"/>
  <path d="M 0 450 Q 250 420 500 450 T 1000 450 T 1200 450 L 1200 630 L 0 630 Z" fill="#4FD1C5" opacity="0.05"/>

  <!-- Caviar roe particles -->
  <circle cx="267.627301636455" cy="291.2038847199879" r="2.7855093423964408" fill="#CFAE58" opacity="0.15837688723264362"/>
  <circle cx="95.05681114677738" cy="437.7614709506136" r="4.597084052074138" fill="#CFAE58" opacity="0.18061199697742097"/>
  <circle cx="978.5797115782134" cy="267.0782747852849" r="4.879519470150672" fill="#CFAE58" opacity="0.20647029365458022"/>
  <circle cx="1063.3842850920794" cy="397.94391006189124" r="2.2024284891815338" fill="#CFAE58" opacity="0.1310882615138825"/>
  <circle cx="239.69951282106717" cy="372.9492328616553" r="4.860169924123948" fill="#CFAE58" opacity="0.23327762065149102"/>
  <circle cx="1024.1535980357814" cy="79.93428857641959" r="2.8674668325378927" fill="#CFAE58" opacity="0.20076806666482033"/>
  <circle cx="268.08626453234785" cy="484.5772999219132" r="5.264096344353892" fill="#CFAE58" opacity="0.2088012101336173"/>
  <circle cx="353.2376479756334" cy="505.3268881556842" r="3.95647429531678" fill="#CFAE58" opacity="0.12752473270063966"/>
  <circle cx="944.8962597335941" cy="179.13614418598848" r="3.872454148828729" fill="#CFAE58" opacity="0.2491992489722477"/>
  <circle cx="85.13053992665954" cy="321.8988885143939" r="2.522608610967178" fill="#CFAE58" opacity="0.15560560803985152"/>
  <circle cx="752.1893798687043" cy="294.3893131359915" r="5.588653181246261" fill="#CFAE58" opacity="0.11351437306528286"/>
  <circle cx="223.28637081428337" cy="567.3006077838269" r="5.127168657288584" fill="#CFAE58" opacity="0.22650363398146053"/>
  <circle cx="304.3325002276725" cy="546.3868009768709" r="2.944474999971537" fill="#CFAE58" opacity="0.18640883758545074"/>
  <circle cx="1058.9745008633877" cy="270.367654210844" r="5.398194471923262" fill="#CFAE58" opacity="0.14063993594462446"/>
  <circle cx="545.317827414089" cy="297.41852780565335" r="5.496059334268544" fill="#CFAE58" opacity="0.1376081807046157"/>
  <circle cx="616.4324440434274" cy="290.1145289696762" r="5.302849361699833" fill="#CFAE58" opacity="0.15858092495270582"/>
  <circle cx="504.87826197376756" cy="358.25202806479075" r="2.171223612178105" fill="#CFAE58" opacity="0.22505456754320005"/>
  <circle cx="141.1993154483953" cy="32.11623889040935" r="2.2672538795232953" fill="#CFAE58" opacity="0.171002854027332"/>
  <circle cx="1141.188755964009" cy="509.1424392624343" r="3.12815258957635" fill="#CFAE58" opacity="0.17700852791835586"/>
  <circle cx="573.5352074834002" cy="470.3875556527824" r="2.257027069206084" fill="#CFAE58" opacity="0.11647381842777654"/>
  <circle cx="162.4092840365787" cy="147.78264721181696" r="5.702447388994042" fill="#CFAE58" opacity="0.22890952320106564"/>
  <circle cx="849.9879630076866" cy="203.73136600286983" r="2.37694406417891" fill="#CFAE58" opacity="0.14763304784081316"/>
  <circle cx="828.7345908349594" cy="339.07858318656235" r="5.527191565827733" fill="#CFAE58" opacity="0.19347825590418022"/>
  <circle cx="1180.5464062433919" cy="149.09079652602838" r="2.2821730771381032" fill="#CFAE58" opacity="0.1486232188797622"/>
  <circle cx="190.42845838803194" cy="462.3585279274546" r="3.925794080355134" fill="#CFAE58" opacity="0.2420849478008376"/>
  <circle cx="601.2914710572177" cy="446.778124748144" r="4.337800801413779" fill="#CFAE58" opacity="0.13085157419852264"/>
  <circle cx="95.6408083646343" cy="280.3831016763247" r="2.1177474893678387" fill="#CFAE58" opacity="0.20411002839366238"/>
  <circle cx="444.03389577566065" cy="266.12525497902254" r="5.103785492927739" fill="#CFAE58" opacity="0.10246796636102724"/>
  <circle cx="728.4549738973507" cy="543.7904532564406" r="4.910388942551043" fill="#CFAE58" opacity="0.10362867791262374"/>
  <circle cx="330.90762806753236" cy="226.4596558184" r="2.918815196256526" fill="#CFAE58" opacity="0.20001860497140797"/>

  <!-- Border with glow -->
  <rect x="40" y="40" width="1120" height="550" fill="none" stroke="url(#goldGradient)" stroke-width="3" rx="12" filter="url(#softGlow)"/>

  <!-- Icon circle with premium background -->
  <circle cx="150" cy="200" r="75" fill="#CFAE58" opacity="0.15" filter="url(#softGlow)"/>
  <circle cx="150" cy="200" r="70" fill="#CFAE58" opacity="0.25"/>
  <text x="150" y="235" font-size="90" text-anchor="middle" fill="#CFAE58" filter="url(#glow)">📍</text>

  <!-- Premium logo (crown) with enhanced styling -->
  <g transform="translate(100, 70)">
    <path d="M 30 20 L 40 35 L 35 35 Z M 50 15 L 60 35 L 45 35 Z M 65 20 L 75 35 L 70 35 Z M 30 35 L 75 35 L 73 45 L 32 45 Z"
          fill="url(#goldGradient)" filter="url(#glow)" stroke="#B89842" stroke-width="0.5"/>
    <circle cx="40" cy="25" r="3" fill="#4FD1C5" filter="url(#glow)"/>
    <circle cx="52" cy="20" r="4" fill="#4FD1C5" filter="url(#glow)"/>
    <circle cx="65" cy="25" r="3" fill="#4FD1C5" filter="url(#glow)"/>
  </g>

  <!-- Title with shadow -->
  <text x="280" y="180" font-family="Georgia, serif" font-size="72" font-weight="bold"
        fill="url(#goldGradient)" filter="url(#shadow)">Contact Us</text>

  <!-- Subtitle with subtle glow -->
  <text x="280" y="230" font-family="Arial, sans-serif" font-size="36"
        fill="#D6DEE6" opacity="0.95" filter="url(#softGlow)">Visit Us on Sakhalin Island</text>

  <!-- Brand name with letter spacing -->
  <text x="280" y="300" font-family="Georgia, serif" font-size="32" font-weight="bold"
        fill="#CFAE58" letter-spacing="4" filter="url(#glow)">ROYAL KETA</text>

  <!-- Russian tagline -->
  <text x="280" y="340" font-family="Arial, sans-serif" font-size="22" font-style="italic"
        fill="#8B95A1" opacity="0.8">От икринки к королевской</text>

  <!-- Location -->
  <text x="280" y="380" font-family="Arial, sans-serif" font-size="20"
        fill="#8B95A1" opacity="0.7">Невельский район, Сахалин</text>

  <!-- Website with glow -->
  <text x="100" y="570" font-family="Arial, sans-serif" font-size="30" font-weight="bold"
        fill="#4FD1C5" filter="url(#glow)">royalketa.com</text>

  <!-- Enhanced decorative salmon silhouette -->
  <g transform="translate(950, 480)" opacity="0.2" filter="url(#softGlow)">
    <ellipse cx="0" cy="0" rx="90" ry="35" fill="#CFAE58"/>
    <path d="M 90 0 L 120 -18 L 130 0 L 120 18 Z" fill="#CFAE58"/>
    <path d="M -25 -35 L 0 -45 L 25 -35 Z" fill="#CFAE58"/>
    <ellipse cx="-50" cy="0" rx="15" ry="12" fill="#0B0F14"/>
  </g>

  <!-- Additional decorative caviar clusters -->
  <g opacity="0.2">
    <circle cx="1050" cy="120" r="6" fill="#CFAE58"/>
    <circle cx="1065" cy="115" r="5" fill="#CFAE58"/>
    <circle cx="1058" cy="130" r="4" fill="#CFAE58"/>
    <circle cx="150" cy="500" r="5" fill="#4FD1C5"/>
    <circle cx="165" cy="508" r="4" fill="#4FD1C5"/>
    <circle cx="140" cy="512" r="5" fill="#4FD1C5"/>
  </g>
</svg>