<svg width="1200" height="630" xmlns="http://www.w3.org/2000/svg">
  <defs>
    <linearGradient id="bgGradient" x1="0%" y1="0%" x2="100%" y2="100%">
      <stop offset="0%" style="stop-color:#0B0F14;stop-opacity:1" />
      <stop offset="50%" style="stop-color:#0F1619;stop-opacity:1" />
      <stop offset="100%" style="stop-color:#0F1922;stop-opacity:1" />
    </linearGradient>
    <linearGradient id="goldGradient" x1="0%" y1="0%" x2="100%" y2="0%">
      <stop offset="0%" style="stop-color:#E5D596;stop-opacity:1" />
      <stop offset="50%" style="stop-color:#CFAE58;stop-opacity:1" />
      <stop offset="100%" style="stop-color:#B89842;stop-opacity:1" />
    </linearGradient>
    <radialGradient id="oceanGradient" cx="50%" cy="50%" r="50%">
      <stop offset="0%" style="stop-color:#4FD1C5;stop-opacity:0.3" />
      <stop offset="100%" style="stop-color:#1E90A0;stop-opacity:0.05" />
    </radialGradient>
    <filter id="glow">
      <feGaussianBlur stdDeviation="5" result="coloredBlur"/>
      <feMerge>
        <feMergeNode in="coloredBlur"/>
        <feMergeNode in="SourceGraphic"/>
      </feMerge>
    </filter>
    <filter id="softGlow">
      <feGaussianBlur stdDeviation="8" result="coloredBlur"/>
      <feMerge>
        <feMergeNode in="coloredBlur"/>
        <feMergeNode in="SourceGraphic"/>
      </feMerge>
    </filter>
    <filter id="shadow">
      <feDropShadow dx="0" dy="4" stdDeviation="8" flood-color="#000000" flood-opacity="0.5"/>
    </filter>
  </defs>

  <!-- Background -->
  <rect width="1200" height="630" fill="url(#bgGradient)"/>

  <!-- Decorative ocean gradients -->
  <ellipse cx="1000" cy="150" rx="300" ry="200" fill="url(#oceanGradient)" opacity="0.4"/>
  <ellipse cx="200" cy="530" rx="250" ry="180" fill="url(#oceanGradient)" opacity="0.3"/>

  <!-- Wave patterns -->
  <path d="M 0 400 Q 300 350 600 400 T 1200 400 L 1200 630 L 0 630 Z" fill="#1E90A0" opacity="0.08"/>
  <path d="M 0 450 Q 250 420 500 450 T 1000 450 T 1200 450 L 1200 630 L 0 630 Z" fill="#4FD1C5" opacity="0.05"/>

  <!-- Caviar roe particles -->
  <circle cx="278.1949478922862" cy="504.43734012830447" r="4.789493212739026" fill="#CFAE58" opacity="0.22926197593789835"/>
  <circle cx="44.7151286083927" cy="144.01545758122532" r="2.2593265242730594" fill="#CFAE58" opacity="0.22782124170710258"/>
  <circle cx="796.9963614275232" cy="22.205325143767716" r="2.9013336201635553" fill="#CFAE58" opacity="0.24813262460373836"/>
  <circle cx="201.34219204071488" cy="273.617807077662" r="4.623588506512351" fill="#CFAE58" opacity="0.11545778196179769"/>
  <circle cx="386.73104292034964" cy="14.824678203530048" r="3.0596085029393736" fill="#CFAE58" opacity="0.20165691808730157"/>
  <circle cx="1018.0760217570842" cy="376.6906838605757" r="5.817506649442433" fill="#CFAE58" opacity="0.19340975187879345"/>
  <circle cx="370.0428756211428" cy="93.28555595250825" r="3.0008412209911786" fill="#CFAE58" opacity="0.21923117665093497"/>
  <circle cx="738.1839875390425" cy="566.1590460786231" r="4.257798632691535" fill="#CFAE58" opacity="0.2091559075913823"/>
  <circle cx="409.8660692216711" cy="552.5956790086296" r="3.467677552412537" fill="#CFAE58" opacity="0.10907553486274044"/>
  <circle cx="42.17353151540193" cy="75.55374765396577" r="4.889749852453774" fill="#CFAE58" opacity="0.16413409937274032"/>
  <circle cx="1045.5219327781663" cy="244.84118751948265" r="3.162530880541296" fill="#CFAE58" opacity="0.20550670528641665"/>
  <circle cx="612.579415467302" cy="371.9413706920959" r="3.5532810518391127" fill="#CFAE58" opacity="0.12753188945690624"/>
  <circle cx="828.5041793263676" cy="463.4750203957332" r="2.0441341665095356" fill="#CFAE58" opacity="0.2066978639426662"/>
  <circle cx="539.11210733559" cy="341.60515504536494" r="3.7970235549090248" fill="#CFAE58" opacity="0.11786635348263708"/>
  <circle cx="1091.5381224663868" cy="339.04682439615374" r="2.4438254786537534" fill="#CFAE58" opacity="0.23561727014635372"/>
  <circle cx="473.0625092815151" cy="49.84995052102568" r="2.272172633102471" fill="#CFAE58" opacity="0.19708126116464464"/>
  <circle cx="6.683308067800553" cy="169.9572105016863" r="3.13208248483018" fill="#CFAE58" opacity="0.11085075363491792"/>
  <circle cx="268.79330481603114" cy="23.161045963991047" r="4.422597250356653" fill="#CFAE58" opacity="0.11628591783782738"/>
  <circle cx="420.04077659331267" cy="30.570006672781957" r="5.430570867797052" fill="#CFAE58" opacity="0.16436698545374057"/>
  <circle cx="38.8078798024889" cy="481.1354099293489" r="3.812189445362849" fill="#CFAE58" opacity="0.13537430550124263"/>
  <circle cx="842.6075915196203" cy="280.96278838698504" r="4.492042717691911" fill="#CFAE58" opacity="0.10844303764704794"/>
  <circle cx="89.89584570095079" cy="589.154651865602" r="3.3230756091048663" fill="#CFAE58" opacity="0.23981717824930004"/>
  <circle cx="909.7406508682791" cy="472.2684030792241" r="5.166605337272127" fill="#CFAE58" opacity="0.17934104703495535"/>
  <circle cx="930.5274787870588" cy="172.32202881794618" r="2.0949370983714815" fill="#CFAE58" opacity="0.22047670280179338"/>
  <circle cx="501.3812013729588" cy="194.93218324758885" r="2.0842080723979315" fill="#CFAE58" opacity="0.2138110017694924"/>
  <circle cx="184.95581755280196" cy="565.2335896755731" r="5.806008907605614" fill="#CFAE58" opacity="0.22344358744476633"/>
  <circle cx="953.4333108199794" cy="358.68904051779657" r="2.554689633010959" fill="#CFAE58" opacity="0.16300628514344326"/>
  <circle cx="264.21424468230487" cy="330.64114992908435" r="5.134017211541007" fill="#CFAE58" opacity="0.1460594296682232"/>
  <circle cx="830.6638549482292" cy="265.3286546986103" r="2.8839973853227407" fill="#CFAE58" opacity="0.2085718318377302"/>
  <circle cx="76.47307898865793" cy="501.07500701824034" r="3.45794655104985" fill="#CFAE58" opacity="0.1322706871961038"/>

  <!-- Border with glow -->
  <rect x="40" y="40" width="1120" height="550" fill="none" stroke="url(#goldGradient)" stroke-width="3" rx="12" filter="url(#softGlow)"/>

  <!-- Icon circle with premium background -->
  <circle cx="150" cy="200" r="75" fill="#CFAE58" opacity="0.15" filter="url(#softGlow)"/>
  <circle cx="150" cy="200" r="70" fill="#CFAE58" opacity="0.25"/>
  <text x="150" y="235" font-size="90" text-anchor="middle" fill="#CFAE58" filter="url(#glow)">📍</text>

  <!-- Premium logo (crown) with enhanced styling -->
  <g transform="translate(100, 70)">
    <path d="M 30 20 L 40 35 L 35 35 Z M 50 15 L 60 35 L 45 35 Z M 65 20 L 75 35 L 70 35 Z M 30 35 L 75 35 L 73 45 L 32 45 Z"
          fill="url(#goldGradient)" filter="url(#glow)" stroke="#B89842" stroke-width="0.5"/>
    <circle cx="40" cy="25" r="3" fill="#4FD1C5" filter="url(#glow)"/>
    <circle cx="52" cy="20" r="4" fill="#4FD1C5" filter="url(#glow)"/>
    <circle cx="65" cy="25" r="3" fill="#4FD1C5" filter="url(#glow)"/>
  </g>

  <!-- Title with shadow -->
  <text x="280" y="180" font-family="Georgia, serif" font-size="72" font-weight="bold"
        fill="url(#goldGradient)" filter="url(#shadow)">Contact Us</text>

  <!-- Subtitle with subtle glow -->
  <text x="280" y="230" font-family="Arial, sans-serif" font-size="36"
        fill="#D6DEE6" opacity="0.95" filter="url(#softGlow)">Visit Us on Sakhalin Island</text>

  <!-- Brand name with letter spacing -->
  <text x="280" y="300" font-family="Georgia, serif" font-size="32" font-weight="bold"
        fill="#CFAE58" letter-spacing="4" filter="url(#glow)">ROYAL KETA</text>

  <!-- Russian tagline -->
  <text x="280" y="340" font-family="Arial, sans-serif" font-size="22" font-style="italic"
        fill="#8B95A1" opacity="0.8">От икринки к королевской</text>

  <!-- Location -->
  <text x="280" y="380" font-family="Arial, sans-serif" font-size="20"
        fill="#8B95A1" opacity="0.7">Невельский район, Сахалин</text>

  <!-- Website with glow -->
  <text x="100" y="570" font-family="Arial, sans-serif" font-size="30" font-weight="bold"
        fill="#4FD1C5" filter="url(#glow)">royalketa.com</text>

  <!-- Enhanced decorative salmon silhouette -->
  <g transform="translate(950, 480)" opacity="0.2" filter="url(#softGlow)">
    <ellipse cx="0" cy="0" rx="90" ry="35" fill="#CFAE58"/>
    <path d="M 90 0 L 120 -18 L 130 0 L 120 18 Z" fill="#CFAE58"/>
    <path d="M -25 -35 L 0 -45 L 25 -35 Z" fill="#CFAE58"/>
    <ellipse cx="-50" cy="0" rx="15" ry="12" fill="#0B0F14"/>
  </g>

  <!-- Additional decorative caviar clusters -->
  <g opacity="0.2">
    <circle cx="1050" cy="120" r="6" fill="#CFAE58"/>
    <circle cx="1065" cy="115" r="5" fill="#CFAE58"/>
    <circle cx="1058" cy="130" r="4" fill="#CFAE58"/>
    <circle cx="150" cy="500" r="5" fill="#4FD1C5"/>
    <circle cx="165" cy="508" r="4" fill="#4FD1C5"/>
    <circle cx="140" cy="512" r="5" fill="#4FD1C5"/>
  </g>
</svg>