<svg width="1200" height="630" xmlns="http://www.w3.org/2000/svg">
  <defs>
    <linearGradient id="bgGradient" x1="0%" y1="0%" x2="100%" y2="100%">
      <stop offset="0%" style="stop-color:#0B0F14;stop-opacity:1" />
      <stop offset="50%" style="stop-color:#0F1619;stop-opacity:1" />
      <stop offset="100%" style="stop-color:#0F1922;stop-opacity:1" />
    </linearGradient>
    <linearGradient id="goldGradient" x1="0%" y1="0%" x2="100%" y2="0%">
      <stop offset="0%" style="stop-color:#E5D596;stop-opacity:1" />
      <stop offset="50%" style="stop-color:#CFAE58;stop-opacity:1" />
      <stop offset="100%" style="stop-color:#B89842;stop-opacity:1" />
    </linearGradient>
    <radialGradient id="oceanGradient" cx="50%" cy="50%" r="50%">
      <stop offset="0%" style="stop-color:#4FD1C5;stop-opacity:0.3" />
      <stop offset="100%" style="stop-color:#1E90A0;stop-opacity:0.05" />
    </radialGradient>
    <filter id="glow">
      <feGaussianBlur stdDeviation="5" result="coloredBlur"/>
      <feMerge>
        <feMergeNode in="coloredBlur"/>
        <feMergeNode in="SourceGraphic"/>
      </feMerge>
    </filter>
    <filter id="softGlow">
      <feGaussianBlur stdDeviation="8" result="coloredBlur"/>
      <feMerge>
        <feMergeNode in="coloredBlur"/>
        <feMergeNode in="SourceGraphic"/>
      </feMerge>
    </filter>
    <filter id="shadow">
      <feDropShadow dx="0" dy="4" stdDeviation="8" flood-color="#000000" flood-opacity="0.5"/>
    </filter>
  </defs>

  <!-- Background -->
  <rect width="1200" height="630" fill="url(#bgGradient)"/>

  <!-- Decorative ocean gradients -->
  <ellipse cx="1000" cy="150" rx="300" ry="200" fill="url(#oceanGradient)" opacity="0.4"/>
  <ellipse cx="200" cy="530" rx="250" ry="180" fill="url(#oceanGradient)" opacity="0.3"/>

  <!-- Wave patterns -->
  <path d="M 0 400 Q 300 350 600 400 T 1200 400 L 1200 630 L 0 630 Z" fill="#1E90A0" opacity="0.08"/>
  <path d="M 0 450 Q 250 420 500 450 T 1000 450 T 1200 450 L 1200 630 L 0 630 Z" fill="#4FD1C5" opacity="0.05"/>

  <!-- Caviar roe particles -->
  <circle cx="748.7638496233178" cy="185.75796676120572" r="3.0288088715141672" fill="#CFAE58" opacity="0.1904604774495808"/>
  <circle cx="118.59022544430022" cy="282.34413320032763" r="4.195144130931291" fill="#CFAE58" opacity="0.14164458023155513"/>
  <circle cx="673.4681036871299" cy="280.8224784487249" r="3.5967596089598155" fill="#CFAE58" opacity="0.11418790305773888"/>
  <circle cx="878.2929569567923" cy="193.35271783365712" r="3.145492904824489" fill="#CFAE58" opacity="0.14282803489738258"/>
  <circle cx="77.39783275233067" cy="272.2280091599694" r="3.5005732142967467" fill="#CFAE58" opacity="0.14405290971428875"/>
  <circle cx="279.6306702349545" cy="210.78755396786173" r="5.561773564586371" fill="#CFAE58" opacity="0.17116858617947328"/>
  <circle cx="1134.297517349732" cy="206.18701137631462" r="4.554418089397023" fill="#CFAE58" opacity="0.10654237239609263"/>
  <circle cx="981.5841398453457" cy="608.5027838799932" r="3.1228024400754535" fill="#CFAE58" opacity="0.13356939324803443"/>
  <circle cx="876.7763288346694" cy="105.91378886689733" r="5.155618358345077" fill="#CFAE58" opacity="0.12533650019370401"/>
  <circle cx="303.8204145229176" cy="389.13078251583903" r="4.232329517732446" fill="#CFAE58" opacity="0.18141737465269211"/>
  <circle cx="1025.9844117634439" cy="39.84793517993806" r="5.847224348994762" fill="#CFAE58" opacity="0.2260461781937319"/>
  <circle cx="837.2707238727196" cy="491.13154039958994" r="3.082985014215202" fill="#CFAE58" opacity="0.23582912793282335"/>
  <circle cx="799.3798301139218" cy="380.95961696337827" r="2.072739222803188" fill="#CFAE58" opacity="0.17884616430236389"/>
  <circle cx="397.394777242648" cy="29.38456483310922" r="3.426970966894303" fill="#CFAE58" opacity="0.1877828497520594"/>
  <circle cx="63.4133951842788" cy="594.4314933439877" r="5.941053390899737" fill="#CFAE58" opacity="0.22930378586363415"/>
  <circle cx="743.8732256098998" cy="319.6233275301803" r="4.874183968897174" fill="#CFAE58" opacity="0.21242392429609064"/>
  <circle cx="29.16999650214258" cy="381.05524380239416" r="5.249025976505284" fill="#CFAE58" opacity="0.14956155431206025"/>
  <circle cx="425.45539232822165" cy="74.4657444439333" r="3.9354001271742503" fill="#CFAE58" opacity="0.22491874736829365"/>
  <circle cx="563.2504232800039" cy="618.8198378912643" r="5.3355924303621185" fill="#CFAE58" opacity="0.10485494404191244"/>
  <circle cx="817.4675632320822" cy="296.6899332870156" r="2.2476529352282313" fill="#CFAE58" opacity="0.13686652102563016"/>
  <circle cx="1080.8287871790535" cy="285.6444638141579" r="3.1079401158047517" fill="#CFAE58" opacity="0.17635763925510478"/>
  <circle cx="930.678035056218" cy="103.62451703161285" r="2.543194201449211" fill="#CFAE58" opacity="0.13910233898028362"/>
  <circle cx="430.2359959470351" cy="486.23382276240415" r="5.473785996545991" fill="#CFAE58" opacity="0.21526894938430183"/>
  <circle cx="87.29010100758848" cy="628.630604950861" r="3.7957280259869233" fill="#CFAE58" opacity="0.1581356632524536"/>
  <circle cx="681.7525152105281" cy="414.6541013766715" r="3.500322507775242" fill="#CFAE58" opacity="0.14158372682384399"/>
  <circle cx="442.76868879784547" cy="504.8676092404524" r="2.977973307987088" fill="#CFAE58" opacity="0.19063075919037537"/>
  <circle cx="1059.6980487020564" cy="236.0414536968008" r="5.782366424638857" fill="#CFAE58" opacity="0.15043892235916148"/>
  <circle cx="1112.9614286565745" cy="119.17669204333492" r="2.013904031135459" fill="#CFAE58" opacity="0.16343594841668396"/>
  <circle cx="1185.573944615934" cy="78.06203390845702" r="5.759646929409135" fill="#CFAE58" opacity="0.1336738438137046"/>
  <circle cx="910.1919716922285" cy="60.0313805459517" r="2.044586585039589" fill="#CFAE58" opacity="0.2296881457735743"/>

  <!-- Border with glow -->
  <rect x="40" y="40" width="1120" height="550" fill="none" stroke="url(#goldGradient)" stroke-width="3" rx="12" filter="url(#softGlow)"/>

  <!-- Icon circle with premium background -->
  <circle cx="150" cy="200" r="75" fill="#CFAE58" opacity="0.15" filter="url(#softGlow)"/>
  <circle cx="150" cy="200" r="70" fill="#CFAE58" opacity="0.25"/>
  <text x="150" y="235" font-size="90" text-anchor="middle" fill="#CFAE58" filter="url(#glow)">📍</text>

  <!-- Premium logo (crown) with enhanced styling -->
  <g transform="translate(100, 70)">
    <path d="M 30 20 L 40 35 L 35 35 Z M 50 15 L 60 35 L 45 35 Z M 65 20 L 75 35 L 70 35 Z M 30 35 L 75 35 L 73 45 L 32 45 Z"
          fill="url(#goldGradient)" filter="url(#glow)" stroke="#B89842" stroke-width="0.5"/>
    <circle cx="40" cy="25" r="3" fill="#4FD1C5" filter="url(#glow)"/>
    <circle cx="52" cy="20" r="4" fill="#4FD1C5" filter="url(#glow)"/>
    <circle cx="65" cy="25" r="3" fill="#4FD1C5" filter="url(#glow)"/>
  </g>

  <!-- Title with shadow -->
  <text x="280" y="180" font-family="Georgia, serif" font-size="72" font-weight="bold"
        fill="url(#goldGradient)" filter="url(#shadow)">Contact Us</text>

  <!-- Subtitle with subtle glow -->
  <text x="280" y="230" font-family="Arial, sans-serif" font-size="36"
        fill="#D6DEE6" opacity="0.95" filter="url(#softGlow)">Visit Us on Sakhalin Island</text>

  <!-- Brand name with letter spacing -->
  <text x="280" y="300" font-family="Georgia, serif" font-size="32" font-weight="bold"
        fill="#CFAE58" letter-spacing="4" filter="url(#glow)">ROYAL KETA</text>

  <!-- Russian tagline -->
  <text x="280" y="340" font-family="Arial, sans-serif" font-size="22" font-style="italic"
        fill="#8B95A1" opacity="0.8">От икринки к королевской</text>

  <!-- Location -->
  <text x="280" y="380" font-family="Arial, sans-serif" font-size="20"
        fill="#8B95A1" opacity="0.7">Невельский район, Сахалин</text>

  <!-- Website with glow -->
  <text x="100" y="570" font-family="Arial, sans-serif" font-size="30" font-weight="bold"
        fill="#4FD1C5" filter="url(#glow)">royalketa.com</text>

  <!-- Enhanced decorative salmon silhouette -->
  <g transform="translate(950, 480)" opacity="0.2" filter="url(#softGlow)">
    <ellipse cx="0" cy="0" rx="90" ry="35" fill="#CFAE58"/>
    <path d="M 90 0 L 120 -18 L 130 0 L 120 18 Z" fill="#CFAE58"/>
    <path d="M -25 -35 L 0 -45 L 25 -35 Z" fill="#CFAE58"/>
    <ellipse cx="-50" cy="0" rx="15" ry="12" fill="#0B0F14"/>
  </g>

  <!-- Additional decorative caviar clusters -->
  <g opacity="0.2">
    <circle cx="1050" cy="120" r="6" fill="#CFAE58"/>
    <circle cx="1065" cy="115" r="5" fill="#CFAE58"/>
    <circle cx="1058" cy="130" r="4" fill="#CFAE58"/>
    <circle cx="150" cy="500" r="5" fill="#4FD1C5"/>
    <circle cx="165" cy="508" r="4" fill="#4FD1C5"/>
    <circle cx="140" cy="512" r="5" fill="#4FD1C5"/>
  </g>
</svg>