<svg width="1200" height="630" xmlns="http://www.w3.org/2000/svg">
  <defs>
    <linearGradient id="bgGradient" x1="0%" y1="0%" x2="100%" y2="100%">
      <stop offset="0%" style="stop-color:#0B0F14;stop-opacity:1" />
      <stop offset="50%" style="stop-color:#0F1619;stop-opacity:1" />
      <stop offset="100%" style="stop-color:#0F1922;stop-opacity:1" />
    </linearGradient>
    <linearGradient id="goldGradient" x1="0%" y1="0%" x2="100%" y2="0%">
      <stop offset="0%" style="stop-color:#E5D596;stop-opacity:1" />
      <stop offset="50%" style="stop-color:#CFAE58;stop-opacity:1" />
      <stop offset="100%" style="stop-color:#B89842;stop-opacity:1" />
    </linearGradient>
    <radialGradient id="oceanGradient" cx="50%" cy="50%" r="50%">
      <stop offset="0%" style="stop-color:#4FD1C5;stop-opacity:0.3" />
      <stop offset="100%" style="stop-color:#1E90A0;stop-opacity:0.05" />
    </radialGradient>
    <filter id="glow">
      <feGaussianBlur stdDeviation="5" result="coloredBlur"/>
      <feMerge>
        <feMergeNode in="coloredBlur"/>
        <feMergeNode in="SourceGraphic"/>
      </feMerge>
    </filter>
    <filter id="softGlow">
      <feGaussianBlur stdDeviation="8" result="coloredBlur"/>
      <feMerge>
        <feMergeNode in="coloredBlur"/>
        <feMergeNode in="SourceGraphic"/>
      </feMerge>
    </filter>
    <filter id="shadow">
      <feDropShadow dx="0" dy="4" stdDeviation="8" flood-color="#000000" flood-opacity="0.5"/>
    </filter>
  </defs>

  <!-- Background -->
  <rect width="1200" height="630" fill="url(#bgGradient)"/>

  <!-- Decorative ocean gradients -->
  <ellipse cx="1000" cy="150" rx="300" ry="200" fill="url(#oceanGradient)" opacity="0.4"/>
  <ellipse cx="200" cy="530" rx="250" ry="180" fill="url(#oceanGradient)" opacity="0.3"/>

  <!-- Wave patterns -->
  <path d="M 0 400 Q 300 350 600 400 T 1200 400 L 1200 630 L 0 630 Z" fill="#1E90A0" opacity="0.08"/>
  <path d="M 0 450 Q 250 420 500 450 T 1000 450 T 1200 450 L 1200 630 L 0 630 Z" fill="#4FD1C5" opacity="0.05"/>

  <!-- Caviar roe particles -->
  <circle cx="622.5312993705708" cy="59.581880615671885" r="3.9589719207069862" fill="#CFAE58" opacity="0.23337564217762352"/>
  <circle cx="1066.8605074693867" cy="205.2708858296185" r="4.127880679201731" fill="#CFAE58" opacity="0.10727345062330433"/>
  <circle cx="940.9846259126828" cy="380.4183974230843" r="4.095647253477146" fill="#CFAE58" opacity="0.14126058855650475"/>
  <circle cx="359.9797081662658" cy="244.72197060788977" r="2.0330954448206264" fill="#CFAE58" opacity="0.16951055693031103"/>
  <circle cx="725.4714391102872" cy="393.0784732290912" r="4.492856791160891" fill="#CFAE58" opacity="0.2437213949953794"/>
  <circle cx="1000.7551787810796" cy="177.2923727657118" r="2.9243515252357577" fill="#CFAE58" opacity="0.12991035432886502"/>
  <circle cx="364.5599471044656" cy="282.1982682054004" r="5.091456403405808" fill="#CFAE58" opacity="0.2475549751403991"/>
  <circle cx="285.85109875490656" cy="521.8511601823794" r="4.990572138830963" fill="#CFAE58" opacity="0.21747890657911703"/>
  <circle cx="973.4302599113716" cy="540.8983256455638" r="4.804056478815696" fill="#CFAE58" opacity="0.23557029775433336"/>
  <circle cx="976.7501617553261" cy="413.4317596949159" r="2.1197163761364433" fill="#CFAE58" opacity="0.10441700200595745"/>
  <circle cx="918.3429858388497" cy="421.9984678534647" r="3.366783737977052" fill="#CFAE58" opacity="0.18802157786412194"/>
  <circle cx="1124.7093461572072" cy="358.7013102822902" r="3.5036955439616277" fill="#CFAE58" opacity="0.15494441997018346"/>
  <circle cx="239.4358718361522" cy="586.138528278802" r="4.1357976599368005" fill="#CFAE58" opacity="0.15089781621355552"/>
  <circle cx="459.38354530970196" cy="106.30578024279875" r="5.3197277137421946" fill="#CFAE58" opacity="0.19026742689026616"/>
  <circle cx="285.4446097913528" cy="492.26008093104883" r="4.831916454924708" fill="#CFAE58" opacity="0.19707869016055996"/>
  <circle cx="201.34452268036802" cy="192.78425873289947" r="2.130773747316409" fill="#CFAE58" opacity="0.11027840987148381"/>
  <circle cx="905.0478239242906" cy="62.81322061417776" r="3.470833552475863" fill="#CFAE58" opacity="0.14370135757087743"/>
  <circle cx="948.5448175614483" cy="609.3002371434999" r="2.5154233522566667" fill="#CFAE58" opacity="0.12595149840636843"/>
  <circle cx="901.7735195361923" cy="274.5243458737245" r="5.291313881592473" fill="#CFAE58" opacity="0.23317965928349538"/>
  <circle cx="172.37836113005153" cy="259.8224947986731" r="3.67620141446831" fill="#CFAE58" opacity="0.19644386141723286"/>
  <circle cx="445.6310127725592" cy="525.9201113925534" r="2.297332573007769" fill="#CFAE58" opacity="0.11400016220327228"/>
  <circle cx="793.4897916259763" cy="521.3986229235733" r="3.6471653356182077" fill="#CFAE58" opacity="0.18535408082771443"/>
  <circle cx="303.5243810297194" cy="58.18683669785982" r="2.467405934914607" fill="#CFAE58" opacity="0.15744224919052002"/>
  <circle cx="462.17467047777274" cy="193.90481982566618" r="3.290234324993559" fill="#CFAE58" opacity="0.10789477944821024"/>
  <circle cx="537.8952278742881" cy="92.79670138356337" r="2.451734683683008" fill="#CFAE58" opacity="0.22427185643185935"/>
  <circle cx="937.954044845472" cy="523.1397358999674" r="3.0363051273871338" fill="#CFAE58" opacity="0.18735936906923778"/>
  <circle cx="243.96999661993536" cy="200.11541501789944" r="5.000022242525853" fill="#CFAE58" opacity="0.2048069621130329"/>
  <circle cx="645.535323438006" cy="247.00664094885295" r="3.8191636084045677" fill="#CFAE58" opacity="0.12979367619269389"/>
  <circle cx="87.22319538839427" cy="79.77138523965317" r="5.520688451150832" fill="#CFAE58" opacity="0.12117952516646481"/>
  <circle cx="736.6329209808023" cy="61.376210274969935" r="3.886726850798109" fill="#CFAE58" opacity="0.23665979269731316"/>

  <!-- Border with glow -->
  <rect x="40" y="40" width="1120" height="550" fill="none" stroke="url(#goldGradient)" stroke-width="3" rx="12" filter="url(#softGlow)"/>

  <!-- Icon circle with premium background -->
  <circle cx="150" cy="200" r="75" fill="#CFAE58" opacity="0.15" filter="url(#softGlow)"/>
  <circle cx="150" cy="200" r="70" fill="#CFAE58" opacity="0.25"/>
  <text x="150" y="235" font-size="90" text-anchor="middle" fill="#CFAE58" filter="url(#glow)">📍</text>

  <!-- Premium logo (crown) with enhanced styling -->
  <g transform="translate(100, 70)">
    <path d="M 30 20 L 40 35 L 35 35 Z M 50 15 L 60 35 L 45 35 Z M 65 20 L 75 35 L 70 35 Z M 30 35 L 75 35 L 73 45 L 32 45 Z"
          fill="url(#goldGradient)" filter="url(#glow)" stroke="#B89842" stroke-width="0.5"/>
    <circle cx="40" cy="25" r="3" fill="#4FD1C5" filter="url(#glow)"/>
    <circle cx="52" cy="20" r="4" fill="#4FD1C5" filter="url(#glow)"/>
    <circle cx="65" cy="25" r="3" fill="#4FD1C5" filter="url(#glow)"/>
  </g>

  <!-- Title with shadow -->
  <text x="280" y="180" font-family="Georgia, serif" font-size="72" font-weight="bold"
        fill="url(#goldGradient)" filter="url(#shadow)">Contact Us</text>

  <!-- Subtitle with subtle glow -->
  <text x="280" y="230" font-family="Arial, sans-serif" font-size="36"
        fill="#D6DEE6" opacity="0.95" filter="url(#softGlow)">Visit Us on Sakhalin Island</text>

  <!-- Brand name with letter spacing -->
  <text x="280" y="300" font-family="Georgia, serif" font-size="32" font-weight="bold"
        fill="#CFAE58" letter-spacing="4" filter="url(#glow)">ROYAL KETA</text>

  <!-- Russian tagline -->
  <text x="280" y="340" font-family="Arial, sans-serif" font-size="22" font-style="italic"
        fill="#8B95A1" opacity="0.8">От икринки к королевской</text>

  <!-- Location -->
  <text x="280" y="380" font-family="Arial, sans-serif" font-size="20"
        fill="#8B95A1" opacity="0.7">Невельский район, Сахалин</text>

  <!-- Website with glow -->
  <text x="100" y="570" font-family="Arial, sans-serif" font-size="30" font-weight="bold"
        fill="#4FD1C5" filter="url(#glow)">royalketa.com</text>

  <!-- Enhanced decorative salmon silhouette -->
  <g transform="translate(950, 480)" opacity="0.2" filter="url(#softGlow)">
    <ellipse cx="0" cy="0" rx="90" ry="35" fill="#CFAE58"/>
    <path d="M 90 0 L 120 -18 L 130 0 L 120 18 Z" fill="#CFAE58"/>
    <path d="M -25 -35 L 0 -45 L 25 -35 Z" fill="#CFAE58"/>
    <ellipse cx="-50" cy="0" rx="15" ry="12" fill="#0B0F14"/>
  </g>

  <!-- Additional decorative caviar clusters -->
  <g opacity="0.2">
    <circle cx="1050" cy="120" r="6" fill="#CFAE58"/>
    <circle cx="1065" cy="115" r="5" fill="#CFAE58"/>
    <circle cx="1058" cy="130" r="4" fill="#CFAE58"/>
    <circle cx="150" cy="500" r="5" fill="#4FD1C5"/>
    <circle cx="165" cy="508" r="4" fill="#4FD1C5"/>
    <circle cx="140" cy="512" r="5" fill="#4FD1C5"/>
  </g>
</svg>