<svg width="1200" height="630" xmlns="http://www.w3.org/2000/svg">
  <defs>
    <linearGradient id="bgGradient" x1="0%" y1="0%" x2="100%" y2="100%">
      <stop offset="0%" style="stop-color:#0B0F14;stop-opacity:1" />
      <stop offset="50%" style="stop-color:#0F1619;stop-opacity:1" />
      <stop offset="100%" style="stop-color:#0F1922;stop-opacity:1" />
    </linearGradient>
    <linearGradient id="goldGradient" x1="0%" y1="0%" x2="100%" y2="0%">
      <stop offset="0%" style="stop-color:#E5D596;stop-opacity:1" />
      <stop offset="50%" style="stop-color:#CFAE58;stop-opacity:1" />
      <stop offset="100%" style="stop-color:#B89842;stop-opacity:1" />
    </linearGradient>
    <radialGradient id="oceanGradient" cx="50%" cy="50%" r="50%">
      <stop offset="0%" style="stop-color:#4FD1C5;stop-opacity:0.3" />
      <stop offset="100%" style="stop-color:#1E90A0;stop-opacity:0.05" />
    </radialGradient>
    <filter id="glow">
      <feGaussianBlur stdDeviation="5" result="coloredBlur"/>
      <feMerge>
        <feMergeNode in="coloredBlur"/>
        <feMergeNode in="SourceGraphic"/>
      </feMerge>
    </filter>
    <filter id="softGlow">
      <feGaussianBlur stdDeviation="8" result="coloredBlur"/>
      <feMerge>
        <feMergeNode in="coloredBlur"/>
        <feMergeNode in="SourceGraphic"/>
      </feMerge>
    </filter>
    <filter id="shadow">
      <feDropShadow dx="0" dy="4" stdDeviation="8" flood-color="#000000" flood-opacity="0.5"/>
    </filter>
  </defs>

  <!-- Background -->
  <rect width="1200" height="630" fill="url(#bgGradient)"/>

  <!-- Decorative ocean gradients -->
  <ellipse cx="1000" cy="150" rx="300" ry="200" fill="url(#oceanGradient)" opacity="0.4"/>
  <ellipse cx="200" cy="530" rx="250" ry="180" fill="url(#oceanGradient)" opacity="0.3"/>

  <!-- Wave patterns -->
  <path d="M 0 400 Q 300 350 600 400 T 1200 400 L 1200 630 L 0 630 Z" fill="#1E90A0" opacity="0.08"/>
  <path d="M 0 450 Q 250 420 500 450 T 1000 450 T 1200 450 L 1200 630 L 0 630 Z" fill="#4FD1C5" opacity="0.05"/>

  <!-- Caviar roe particles -->
  <circle cx="811.1824509250827" cy="300.29596287708796" r="3.0955326875434266" fill="#CFAE58" opacity="0.15176615819320238"/>
  <circle cx="1075.1043292434288" cy="412.02303946688374" r="4.7030577338964346" fill="#CFAE58" opacity="0.16652224320703118"/>
  <circle cx="58.04526568210382" cy="310.0265300463947" r="2.133365379774645" fill="#CFAE58" opacity="0.1857561570936854"/>
  <circle cx="463.3343652111037" cy="363.323414797673" r="4.071474294946462" fill="#CFAE58" opacity="0.12481819820247174"/>
  <circle cx="261.76866501429686" cy="115.23697331946609" r="2.4131064479863613" fill="#CFAE58" opacity="0.20605226459661508"/>
  <circle cx="581.2841638322691" cy="431.6758650444531" r="5.8517466297776295" fill="#CFAE58" opacity="0.23869927600229682"/>
  <circle cx="245.64040221487753" cy="587.2566480537864" r="3.4855764020859668" fill="#CFAE58" opacity="0.12085486479203734"/>
  <circle cx="564.4812611339526" cy="309.2347424415336" r="3.7275497528343755" fill="#CFAE58" opacity="0.1878093813704823"/>
  <circle cx="1158.0762931670754" cy="530.62873675352" r="2.767837557395216" fill="#CFAE58" opacity="0.24226665639790018"/>
  <circle cx="1042.702262249247" cy="384.65762084148486" r="5.434370327651871" fill="#CFAE58" opacity="0.1880743352107686"/>
  <circle cx="706.5532001606283" cy="560.383353177376" r="3.934306172237223" fill="#CFAE58" opacity="0.162776922297335"/>
  <circle cx="582.1148049709674" cy="352.212036161363" r="2.282998981282491" fill="#CFAE58" opacity="0.12336409205108262"/>
  <circle cx="542.9691229496724" cy="555.5133601593616" r="2.9737742771121045" fill="#CFAE58" opacity="0.20667873765175576"/>
  <circle cx="720.7921126066564" cy="461.24017310092603" r="5.057908477470667" fill="#CFAE58" opacity="0.15433447615159357"/>
  <circle cx="1141.4038787253226" cy="112.90410760311018" r="4.1508080199819855" fill="#CFAE58" opacity="0.14290597309578293"/>
  <circle cx="183.1629616480105" cy="449.9418704532783" r="5.865351391315031" fill="#CFAE58" opacity="0.1219961415216616"/>
  <circle cx="1066.9852056286722" cy="545.8028708182252" r="2.6580105205795626" fill="#CFAE58" opacity="0.1042119790495485"/>
  <circle cx="293.6122049923324" cy="216.29532001602038" r="5.561193247658234" fill="#CFAE58" opacity="0.20913390021151262"/>
  <circle cx="1108.4317746734819" cy="197.41618572485106" r="2.777280118212738" fill="#CFAE58" opacity="0.219900226766841"/>
  <circle cx="130.2861073044811" cy="399.4601033337488" r="4.245798211790818" fill="#CFAE58" opacity="0.19620213874885117"/>
  <circle cx="283.43125724483133" cy="11.050532373079339" r="2.2726116952893918" fill="#CFAE58" opacity="0.24340875533956224"/>
  <circle cx="741.8637491447626" cy="471.54446655270976" r="5.9579767520795635" fill="#CFAE58" opacity="0.15633438473790343"/>
  <circle cx="720.1851147475714" cy="249.8844711450597" r="4.351792534190157" fill="#CFAE58" opacity="0.20472041827330817"/>
  <circle cx="517.7007136652401" cy="497.32732728483813" r="3.7194856599357755" fill="#CFAE58" opacity="0.23841547277707126"/>
  <circle cx="362.4353614093285" cy="567.4488898717783" r="3.2886404874558712" fill="#CFAE58" opacity="0.20172830401758812"/>
  <circle cx="670.57506195338" cy="227.49548938971213" r="4.728714223690568" fill="#CFAE58" opacity="0.21671414751707144"/>
  <circle cx="569.0653418877413" cy="394.69336323081825" r="5.424644474243015" fill="#CFAE58" opacity="0.17384437955562962"/>
  <circle cx="324.9652686382143" cy="423.77133400292706" r="5.324018116788183" fill="#CFAE58" opacity="0.21738987608135246"/>
  <circle cx="518.9487142401254" cy="273.582063503183" r="3.8859350554255148" fill="#CFAE58" opacity="0.20230103831282137"/>
  <circle cx="138.99332930514979" cy="564.6169534220593" r="5.514956519452065" fill="#CFAE58" opacity="0.18761050515697442"/>

  <!-- Border with glow -->
  <rect x="40" y="40" width="1120" height="550" fill="none" stroke="url(#goldGradient)" stroke-width="3" rx="12" filter="url(#softGlow)"/>

  <!-- Icon circle with premium background -->
  <circle cx="150" cy="200" r="75" fill="#CFAE58" opacity="0.15" filter="url(#softGlow)"/>
  <circle cx="150" cy="200" r="70" fill="#CFAE58" opacity="0.25"/>
  <text x="150" y="235" font-size="90" text-anchor="middle" fill="#CFAE58" filter="url(#glow)">📍</text>

  <!-- Premium logo (crown) with enhanced styling -->
  <g transform="translate(100, 70)">
    <path d="M 30 20 L 40 35 L 35 35 Z M 50 15 L 60 35 L 45 35 Z M 65 20 L 75 35 L 70 35 Z M 30 35 L 75 35 L 73 45 L 32 45 Z"
          fill="url(#goldGradient)" filter="url(#glow)" stroke="#B89842" stroke-width="0.5"/>
    <circle cx="40" cy="25" r="3" fill="#4FD1C5" filter="url(#glow)"/>
    <circle cx="52" cy="20" r="4" fill="#4FD1C5" filter="url(#glow)"/>
    <circle cx="65" cy="25" r="3" fill="#4FD1C5" filter="url(#glow)"/>
  </g>

  <!-- Title with shadow -->
  <text x="280" y="180" font-family="Georgia, serif" font-size="72" font-weight="bold"
        fill="url(#goldGradient)" filter="url(#shadow)">Contact Us</text>

  <!-- Subtitle with subtle glow -->
  <text x="280" y="230" font-family="Arial, sans-serif" font-size="36"
        fill="#D6DEE6" opacity="0.95" filter="url(#softGlow)">Visit Us on Sakhalin Island</text>

  <!-- Brand name with letter spacing -->
  <text x="280" y="300" font-family="Georgia, serif" font-size="32" font-weight="bold"
        fill="#CFAE58" letter-spacing="4" filter="url(#glow)">ROYAL KETA</text>

  <!-- Russian tagline -->
  <text x="280" y="340" font-family="Arial, sans-serif" font-size="22" font-style="italic"
        fill="#8B95A1" opacity="0.8">От икринки к королевской</text>

  <!-- Location -->
  <text x="280" y="380" font-family="Arial, sans-serif" font-size="20"
        fill="#8B95A1" opacity="0.7">Невельский район, Сахалин</text>

  <!-- Website with glow -->
  <text x="100" y="570" font-family="Arial, sans-serif" font-size="30" font-weight="bold"
        fill="#4FD1C5" filter="url(#glow)">royalketa.com</text>

  <!-- Enhanced decorative salmon silhouette -->
  <g transform="translate(950, 480)" opacity="0.2" filter="url(#softGlow)">
    <ellipse cx="0" cy="0" rx="90" ry="35" fill="#CFAE58"/>
    <path d="M 90 0 L 120 -18 L 130 0 L 120 18 Z" fill="#CFAE58"/>
    <path d="M -25 -35 L 0 -45 L 25 -35 Z" fill="#CFAE58"/>
    <ellipse cx="-50" cy="0" rx="15" ry="12" fill="#0B0F14"/>
  </g>

  <!-- Additional decorative caviar clusters -->
  <g opacity="0.2">
    <circle cx="1050" cy="120" r="6" fill="#CFAE58"/>
    <circle cx="1065" cy="115" r="5" fill="#CFAE58"/>
    <circle cx="1058" cy="130" r="4" fill="#CFAE58"/>
    <circle cx="150" cy="500" r="5" fill="#4FD1C5"/>
    <circle cx="165" cy="508" r="4" fill="#4FD1C5"/>
    <circle cx="140" cy="512" r="5" fill="#4FD1C5"/>
  </g>
</svg>