<svg width="1200" height="630" xmlns="http://www.w3.org/2000/svg">
  <defs>
    <linearGradient id="bgGradient" x1="0%" y1="0%" x2="100%" y2="100%">
      <stop offset="0%" style="stop-color:#0B0F14;stop-opacity:1" />
      <stop offset="50%" style="stop-color:#0F1619;stop-opacity:1" />
      <stop offset="100%" style="stop-color:#0F1922;stop-opacity:1" />
    </linearGradient>
    <linearGradient id="goldGradient" x1="0%" y1="0%" x2="100%" y2="0%">
      <stop offset="0%" style="stop-color:#E5D596;stop-opacity:1" />
      <stop offset="50%" style="stop-color:#CFAE58;stop-opacity:1" />
      <stop offset="100%" style="stop-color:#B89842;stop-opacity:1" />
    </linearGradient>
    <radialGradient id="oceanGradient" cx="50%" cy="50%" r="50%">
      <stop offset="0%" style="stop-color:#4FD1C5;stop-opacity:0.3" />
      <stop offset="100%" style="stop-color:#1E90A0;stop-opacity:0.05" />
    </radialGradient>
    <filter id="glow">
      <feGaussianBlur stdDeviation="5" result="coloredBlur"/>
      <feMerge>
        <feMergeNode in="coloredBlur"/>
        <feMergeNode in="SourceGraphic"/>
      </feMerge>
    </filter>
    <filter id="softGlow">
      <feGaussianBlur stdDeviation="8" result="coloredBlur"/>
      <feMerge>
        <feMergeNode in="coloredBlur"/>
        <feMergeNode in="SourceGraphic"/>
      </feMerge>
    </filter>
    <filter id="shadow">
      <feDropShadow dx="0" dy="4" stdDeviation="8" flood-color="#000000" flood-opacity="0.5"/>
    </filter>
  </defs>

  <!-- Background -->
  <rect width="1200" height="630" fill="url(#bgGradient)"/>

  <!-- Decorative ocean gradients -->
  <ellipse cx="1000" cy="150" rx="300" ry="200" fill="url(#oceanGradient)" opacity="0.4"/>
  <ellipse cx="200" cy="530" rx="250" ry="180" fill="url(#oceanGradient)" opacity="0.3"/>

  <!-- Wave patterns -->
  <path d="M 0 400 Q 300 350 600 400 T 1200 400 L 1200 630 L 0 630 Z" fill="#1E90A0" opacity="0.08"/>
  <path d="M 0 450 Q 250 420 500 450 T 1000 450 T 1200 450 L 1200 630 L 0 630 Z" fill="#4FD1C5" opacity="0.05"/>

  <!-- Caviar roe particles -->
  <circle cx="249.35761826947623" cy="222.93750813129395" r="4.144718600250131" fill="#CFAE58" opacity="0.2330907319397068"/>
  <circle cx="391.6915263468594" cy="133.72880127377462" r="4.017249056618661" fill="#CFAE58" opacity="0.16948732299639258"/>
  <circle cx="935.6522351995858" cy="259.7974232528673" r="5.9089037554930535" fill="#CFAE58" opacity="0.14745100908361067"/>
  <circle cx="906.0521250226927" cy="606.1622519064935" r="3.3710386169096127" fill="#CFAE58" opacity="0.21743747136849217"/>
  <circle cx="682.2382530281614" cy="232.7670035769286" r="3.455949101951849" fill="#CFAE58" opacity="0.17182858240636"/>
  <circle cx="956.972683009949" cy="544.2394238449504" r="2.4669666530321495" fill="#CFAE58" opacity="0.2479368669500788"/>
  <circle cx="367.75550556412105" cy="232.0521063488849" r="5.1687850261970105" fill="#CFAE58" opacity="0.24933090356879103"/>
  <circle cx="632.7711151461431" cy="298.7478844057826" r="2.8359369242635104" fill="#CFAE58" opacity="0.23398523912953104"/>
  <circle cx="475.7003840154607" cy="191.9733883667242" r="2.4463959781595346" fill="#CFAE58" opacity="0.23967109449207458"/>
  <circle cx="352.93389196537436" cy="365.45982265643295" r="5.698834991913108" fill="#CFAE58" opacity="0.1712654889745332"/>
  <circle cx="791.3266527205326" cy="264.08933500552286" r="4.022338991878381" fill="#CFAE58" opacity="0.1388347862568447"/>
  <circle cx="1176.3696993851124" cy="545.743111329397" r="4.358869406874659" fill="#CFAE58" opacity="0.11579871748749188"/>
  <circle cx="926.4745170121157" cy="130.2726435819582" r="4.22771954508042" fill="#CFAE58" opacity="0.23388701148718438"/>
  <circle cx="405.2833894653392" cy="584.7027212066187" r="3.2776708195963478" fill="#CFAE58" opacity="0.21090163596143296"/>
  <circle cx="565.0604121634151" cy="625.3857597690019" r="4.764912706565222" fill="#CFAE58" opacity="0.24338003506921044"/>
  <circle cx="299.8203968788625" cy="578.686668838384" r="2.069973857449135" fill="#CFAE58" opacity="0.20726898333338784"/>
  <circle cx="800.8658552687966" cy="482.4865074066715" r="3.845385120816471" fill="#CFAE58" opacity="0.1609147340443846"/>
  <circle cx="167.9675382886705" cy="79.01416261586213" r="3.657583910709194" fill="#CFAE58" opacity="0.2330880223664888"/>
  <circle cx="12.004215115321593" cy="369.30370624778357" r="3.3253043895738887" fill="#CFAE58" opacity="0.12762912981434882"/>
  <circle cx="768.425680751296" cy="70.31895819376793" r="5.212414001848281" fill="#CFAE58" opacity="0.16253859519670116"/>
  <circle cx="29.711956600607525" cy="10.107914007417339" r="4.188277509539536" fill="#CFAE58" opacity="0.1768181808563596"/>
  <circle cx="400.08893290559564" cy="70.84393721017179" r="3.0550108143855246" fill="#CFAE58" opacity="0.18308058063444957"/>
  <circle cx="903.3036510355979" cy="245.2091844057766" r="3.8213996133275083" fill="#CFAE58" opacity="0.21362123202012534"/>
  <circle cx="266.5737466789002" cy="622.6994252744444" r="5.981815448034686" fill="#CFAE58" opacity="0.22095982676948173"/>
  <circle cx="1160.1464911451558" cy="550.4128322156921" r="5.280147063039519" fill="#CFAE58" opacity="0.1340214825467796"/>
  <circle cx="897.1596236893113" cy="565.9089335781063" r="4.909106673199143" fill="#CFAE58" opacity="0.20912851508901126"/>
  <circle cx="1080.5188036928928" cy="342.0757831237725" r="2.2880470751351956" fill="#CFAE58" opacity="0.10014747855164374"/>
  <circle cx="726.497202082832" cy="96.08161054525054" r="5.48837727814175" fill="#CFAE58" opacity="0.20721558882074959"/>
  <circle cx="1036.535411664685" cy="422.5865392135765" r="2.7413241153625796" fill="#CFAE58" opacity="0.20529006510982112"/>
  <circle cx="54.07699455644534" cy="466.1502901444824" r="2.8129389339974713" fill="#CFAE58" opacity="0.2287497399497373"/>

  <!-- Border with glow -->
  <rect x="40" y="40" width="1120" height="550" fill="none" stroke="url(#goldGradient)" stroke-width="3" rx="12" filter="url(#softGlow)"/>

  <!-- Icon circle with premium background -->
  <circle cx="150" cy="200" r="75" fill="#CFAE58" opacity="0.15" filter="url(#softGlow)"/>
  <circle cx="150" cy="200" r="70" fill="#CFAE58" opacity="0.25"/>
  <text x="150" y="235" font-size="90" text-anchor="middle" fill="#CFAE58" filter="url(#glow)">📍</text>

  <!-- Premium logo (crown) with enhanced styling -->
  <g transform="translate(100, 70)">
    <path d="M 30 20 L 40 35 L 35 35 Z M 50 15 L 60 35 L 45 35 Z M 65 20 L 75 35 L 70 35 Z M 30 35 L 75 35 L 73 45 L 32 45 Z"
          fill="url(#goldGradient)" filter="url(#glow)" stroke="#B89842" stroke-width="0.5"/>
    <circle cx="40" cy="25" r="3" fill="#4FD1C5" filter="url(#glow)"/>
    <circle cx="52" cy="20" r="4" fill="#4FD1C5" filter="url(#glow)"/>
    <circle cx="65" cy="25" r="3" fill="#4FD1C5" filter="url(#glow)"/>
  </g>

  <!-- Title with shadow -->
  <text x="280" y="180" font-family="Georgia, serif" font-size="72" font-weight="bold"
        fill="url(#goldGradient)" filter="url(#shadow)">Contact Us</text>

  <!-- Subtitle with subtle glow -->
  <text x="280" y="230" font-family="Arial, sans-serif" font-size="36"
        fill="#D6DEE6" opacity="0.95" filter="url(#softGlow)">Visit Us on Sakhalin Island</text>

  <!-- Brand name with letter spacing -->
  <text x="280" y="300" font-family="Georgia, serif" font-size="32" font-weight="bold"
        fill="#CFAE58" letter-spacing="4" filter="url(#glow)">ROYAL KETA</text>

  <!-- Russian tagline -->
  <text x="280" y="340" font-family="Arial, sans-serif" font-size="22" font-style="italic"
        fill="#8B95A1" opacity="0.8">От икринки к королевской</text>

  <!-- Location -->
  <text x="280" y="380" font-family="Arial, sans-serif" font-size="20"
        fill="#8B95A1" opacity="0.7">Невельский район, Сахалин</text>

  <!-- Website with glow -->
  <text x="100" y="570" font-family="Arial, sans-serif" font-size="30" font-weight="bold"
        fill="#4FD1C5" filter="url(#glow)">royalketa.com</text>

  <!-- Enhanced decorative salmon silhouette -->
  <g transform="translate(950, 480)" opacity="0.2" filter="url(#softGlow)">
    <ellipse cx="0" cy="0" rx="90" ry="35" fill="#CFAE58"/>
    <path d="M 90 0 L 120 -18 L 130 0 L 120 18 Z" fill="#CFAE58"/>
    <path d="M -25 -35 L 0 -45 L 25 -35 Z" fill="#CFAE58"/>
    <ellipse cx="-50" cy="0" rx="15" ry="12" fill="#0B0F14"/>
  </g>

  <!-- Additional decorative caviar clusters -->
  <g opacity="0.2">
    <circle cx="1050" cy="120" r="6" fill="#CFAE58"/>
    <circle cx="1065" cy="115" r="5" fill="#CFAE58"/>
    <circle cx="1058" cy="130" r="4" fill="#CFAE58"/>
    <circle cx="150" cy="500" r="5" fill="#4FD1C5"/>
    <circle cx="165" cy="508" r="4" fill="#4FD1C5"/>
    <circle cx="140" cy="512" r="5" fill="#4FD1C5"/>
  </g>
</svg>