<svg width="1200" height="630" xmlns="http://www.w3.org/2000/svg">
  <defs>
    <linearGradient id="bgGradient" x1="0%" y1="0%" x2="100%" y2="100%">
      <stop offset="0%" style="stop-color:#0B0F14;stop-opacity:1" />
      <stop offset="50%" style="stop-color:#0F1619;stop-opacity:1" />
      <stop offset="100%" style="stop-color:#0F1922;stop-opacity:1" />
    </linearGradient>
    <linearGradient id="goldGradient" x1="0%" y1="0%" x2="100%" y2="0%">
      <stop offset="0%" style="stop-color:#E5D596;stop-opacity:1" />
      <stop offset="50%" style="stop-color:#CFAE58;stop-opacity:1" />
      <stop offset="100%" style="stop-color:#B89842;stop-opacity:1" />
    </linearGradient>
    <radialGradient id="oceanGradient" cx="50%" cy="50%" r="50%">
      <stop offset="0%" style="stop-color:#4FD1C5;stop-opacity:0.3" />
      <stop offset="100%" style="stop-color:#1E90A0;stop-opacity:0.05" />
    </radialGradient>
    <filter id="glow">
      <feGaussianBlur stdDeviation="5" result="coloredBlur"/>
      <feMerge>
        <feMergeNode in="coloredBlur"/>
        <feMergeNode in="SourceGraphic"/>
      </feMerge>
    </filter>
    <filter id="softGlow">
      <feGaussianBlur stdDeviation="8" result="coloredBlur"/>
      <feMerge>
        <feMergeNode in="coloredBlur"/>
        <feMergeNode in="SourceGraphic"/>
      </feMerge>
    </filter>
    <filter id="shadow">
      <feDropShadow dx="0" dy="4" stdDeviation="8" flood-color="#000000" flood-opacity="0.5"/>
    </filter>
  </defs>

  <!-- Background -->
  <rect width="1200" height="630" fill="url(#bgGradient)"/>

  <!-- Decorative ocean gradients -->
  <ellipse cx="1000" cy="150" rx="300" ry="200" fill="url(#oceanGradient)" opacity="0.4"/>
  <ellipse cx="200" cy="530" rx="250" ry="180" fill="url(#oceanGradient)" opacity="0.3"/>

  <!-- Wave patterns -->
  <path d="M 0 400 Q 300 350 600 400 T 1200 400 L 1200 630 L 0 630 Z" fill="#1E90A0" opacity="0.08"/>
  <path d="M 0 450 Q 250 420 500 450 T 1000 450 T 1200 450 L 1200 630 L 0 630 Z" fill="#4FD1C5" opacity="0.05"/>

  <!-- Caviar roe particles -->
  <circle cx="259.6896163743626" cy="188.48020717948745" r="4.760037324074572" fill="#CFAE58" opacity="0.17570888081290958"/>
  <circle cx="525.8649239757774" cy="217.11101844840303" r="5.52033461882861" fill="#CFAE58" opacity="0.19406811180484287"/>
  <circle cx="535.1709655992839" cy="270.5162526110364" r="2.337523956535931" fill="#CFAE58" opacity="0.2164985968719444"/>
  <circle cx="399.41733246471307" cy="293.26273716154975" r="4.532310724361844" fill="#CFAE58" opacity="0.1205988638645169"/>
  <circle cx="675.2607918653924" cy="225.42488725568782" r="3.9583486146450255" fill="#CFAE58" opacity="0.14933779446667167"/>
  <circle cx="108.04155977021975" cy="499.6939701070829" r="5.246551550515092" fill="#CFAE58" opacity="0.13152613386227435"/>
  <circle cx="955.6829657235606" cy="14.497235245625838" r="3.201932197269767" fill="#CFAE58" opacity="0.19719724521847326"/>
  <circle cx="457.8933525620474" cy="556.163699956985" r="5.543319885776883" fill="#CFAE58" opacity="0.16693914726042158"/>
  <circle cx="980.4205308631773" cy="378.76449408397264" r="4.813247197869296" fill="#CFAE58" opacity="0.15086663629634633"/>
  <circle cx="388.93599821015323" cy="543.7419812020555" r="2.4983046388920442" fill="#CFAE58" opacity="0.16903109635055008"/>
  <circle cx="1087.388642395146" cy="618.9610350172953" r="5.3863772242341454" fill="#CFAE58" opacity="0.21502036280861592"/>
  <circle cx="616.7126115818563" cy="429.7186737077871" r="4.7953041194362385" fill="#CFAE58" opacity="0.1162992661586013"/>
  <circle cx="161.68606911971938" cy="202.2494703001353" r="4.566061415558645" fill="#CFAE58" opacity="0.16128101263979394"/>
  <circle cx="400.97803090739524" cy="194.46156034233067" r="5.184535416317406" fill="#CFAE58" opacity="0.14440849081188661"/>
  <circle cx="5.325866390943235" cy="444.6646995463146" r="5.228516808150088" fill="#CFAE58" opacity="0.17230255613972026"/>
  <circle cx="330.7166505328944" cy="611.2243695922175" r="3.5720071090094776" fill="#CFAE58" opacity="0.10567517132153423"/>
  <circle cx="66.90421892928455" cy="159.27933401190575" r="4.940851186940698" fill="#CFAE58" opacity="0.1510099948037631"/>
  <circle cx="1061.600451873191" cy="390.70816249356614" r="5.800857812132765" fill="#CFAE58" opacity="0.15268829830999509"/>
  <circle cx="824.8695403268321" cy="399.31927770244073" r="4.733213252091703" fill="#CFAE58" opacity="0.17582747138390417"/>
  <circle cx="847.0115098450424" cy="44.192794447244125" r="4.570748332424212" fill="#CFAE58" opacity="0.15484219628271315"/>
  <circle cx="993.827845030936" cy="107.32900603687872" r="2.0521573960888055" fill="#CFAE58" opacity="0.17411210546592504"/>
  <circle cx="1000.450180626574" cy="192.20253034056472" r="5.9112979791162825" fill="#CFAE58" opacity="0.12140319762734342"/>
  <circle cx="345.28303356367303" cy="103.75386455547535" r="2.1134669273395947" fill="#CFAE58" opacity="0.21751016792157082"/>
  <circle cx="971.0573678295546" cy="325.931113294737" r="3.3371973611443395" fill="#CFAE58" opacity="0.10378235892167471"/>
  <circle cx="1191.250373660596" cy="197.36366205204635" r="5.356300102293854" fill="#CFAE58" opacity="0.15623395766814385"/>
  <circle cx="232.0316393156878" cy="236.03747629898353" r="4.189464513750691" fill="#CFAE58" opacity="0.1189752868146963"/>
  <circle cx="98.30342124927371" cy="149.63706380164456" r="2.4965683071746154" fill="#CFAE58" opacity="0.22851139253615646"/>
  <circle cx="584.2228488323988" cy="14.297262343149262" r="3.6694240937574887" fill="#CFAE58" opacity="0.16167079850660035"/>
  <circle cx="870.2496138528705" cy="262.55447847538903" r="2.491977118738135" fill="#CFAE58" opacity="0.13517769494366896"/>
  <circle cx="43.57340312224301" cy="403.10668355480976" r="3.9012178539650706" fill="#CFAE58" opacity="0.10177599518117839"/>

  <!-- Border with glow -->
  <rect x="40" y="40" width="1120" height="550" fill="none" stroke="url(#goldGradient)" stroke-width="3" rx="12" filter="url(#softGlow)"/>

  <!-- Icon circle with premium background -->
  <circle cx="150" cy="200" r="75" fill="#CFAE58" opacity="0.15" filter="url(#softGlow)"/>
  <circle cx="150" cy="200" r="70" fill="#CFAE58" opacity="0.25"/>
  <text x="150" y="235" font-size="90" text-anchor="middle" fill="#CFAE58" filter="url(#glow)">📍</text>

  <!-- Premium logo (crown) with enhanced styling -->
  <g transform="translate(100, 70)">
    <path d="M 30 20 L 40 35 L 35 35 Z M 50 15 L 60 35 L 45 35 Z M 65 20 L 75 35 L 70 35 Z M 30 35 L 75 35 L 73 45 L 32 45 Z"
          fill="url(#goldGradient)" filter="url(#glow)" stroke="#B89842" stroke-width="0.5"/>
    <circle cx="40" cy="25" r="3" fill="#4FD1C5" filter="url(#glow)"/>
    <circle cx="52" cy="20" r="4" fill="#4FD1C5" filter="url(#glow)"/>
    <circle cx="65" cy="25" r="3" fill="#4FD1C5" filter="url(#glow)"/>
  </g>

  <!-- Title with shadow -->
  <text x="280" y="180" font-family="Georgia, serif" font-size="72" font-weight="bold"
        fill="url(#goldGradient)" filter="url(#shadow)">Contact Us</text>

  <!-- Subtitle with subtle glow -->
  <text x="280" y="230" font-family="Arial, sans-serif" font-size="36"
        fill="#D6DEE6" opacity="0.95" filter="url(#softGlow)">Visit Us on Sakhalin Island</text>

  <!-- Brand name with letter spacing -->
  <text x="280" y="300" font-family="Georgia, serif" font-size="32" font-weight="bold"
        fill="#CFAE58" letter-spacing="4" filter="url(#glow)">ROYAL KETA</text>

  <!-- Russian tagline -->
  <text x="280" y="340" font-family="Arial, sans-serif" font-size="22" font-style="italic"
        fill="#8B95A1" opacity="0.8">От икринки к королевской</text>

  <!-- Location -->
  <text x="280" y="380" font-family="Arial, sans-serif" font-size="20"
        fill="#8B95A1" opacity="0.7">Невельский район, Сахалин</text>

  <!-- Website with glow -->
  <text x="100" y="570" font-family="Arial, sans-serif" font-size="30" font-weight="bold"
        fill="#4FD1C5" filter="url(#glow)">royalketa.com</text>

  <!-- Enhanced decorative salmon silhouette -->
  <g transform="translate(950, 480)" opacity="0.2" filter="url(#softGlow)">
    <ellipse cx="0" cy="0" rx="90" ry="35" fill="#CFAE58"/>
    <path d="M 90 0 L 120 -18 L 130 0 L 120 18 Z" fill="#CFAE58"/>
    <path d="M -25 -35 L 0 -45 L 25 -35 Z" fill="#CFAE58"/>
    <ellipse cx="-50" cy="0" rx="15" ry="12" fill="#0B0F14"/>
  </g>

  <!-- Additional decorative caviar clusters -->
  <g opacity="0.2">
    <circle cx="1050" cy="120" r="6" fill="#CFAE58"/>
    <circle cx="1065" cy="115" r="5" fill="#CFAE58"/>
    <circle cx="1058" cy="130" r="4" fill="#CFAE58"/>
    <circle cx="150" cy="500" r="5" fill="#4FD1C5"/>
    <circle cx="165" cy="508" r="4" fill="#4FD1C5"/>
    <circle cx="140" cy="512" r="5" fill="#4FD1C5"/>
  </g>
</svg>