<svg width="1200" height="630" xmlns="http://www.w3.org/2000/svg">
  <defs>
    <linearGradient id="bgGradient" x1="0%" y1="0%" x2="100%" y2="100%">
      <stop offset="0%" style="stop-color:#0B0F14;stop-opacity:1" />
      <stop offset="50%" style="stop-color:#0F1619;stop-opacity:1" />
      <stop offset="100%" style="stop-color:#0F1922;stop-opacity:1" />
    </linearGradient>
    <linearGradient id="goldGradient" x1="0%" y1="0%" x2="100%" y2="0%">
      <stop offset="0%" style="stop-color:#E5D596;stop-opacity:1" />
      <stop offset="50%" style="stop-color:#CFAE58;stop-opacity:1" />
      <stop offset="100%" style="stop-color:#B89842;stop-opacity:1" />
    </linearGradient>
    <radialGradient id="oceanGradient" cx="50%" cy="50%" r="50%">
      <stop offset="0%" style="stop-color:#4FD1C5;stop-opacity:0.3" />
      <stop offset="100%" style="stop-color:#1E90A0;stop-opacity:0.05" />
    </radialGradient>
    <filter id="glow">
      <feGaussianBlur stdDeviation="5" result="coloredBlur"/>
      <feMerge>
        <feMergeNode in="coloredBlur"/>
        <feMergeNode in="SourceGraphic"/>
      </feMerge>
    </filter>
    <filter id="softGlow">
      <feGaussianBlur stdDeviation="8" result="coloredBlur"/>
      <feMerge>
        <feMergeNode in="coloredBlur"/>
        <feMergeNode in="SourceGraphic"/>
      </feMerge>
    </filter>
    <filter id="shadow">
      <feDropShadow dx="0" dy="4" stdDeviation="8" flood-color="#000000" flood-opacity="0.5"/>
    </filter>
  </defs>

  <!-- Background -->
  <rect width="1200" height="630" fill="url(#bgGradient)"/>

  <!-- Decorative ocean gradients -->
  <ellipse cx="1000" cy="150" rx="300" ry="200" fill="url(#oceanGradient)" opacity="0.4"/>
  <ellipse cx="200" cy="530" rx="250" ry="180" fill="url(#oceanGradient)" opacity="0.3"/>

  <!-- Wave patterns -->
  <path d="M 0 400 Q 300 350 600 400 T 1200 400 L 1200 630 L 0 630 Z" fill="#1E90A0" opacity="0.08"/>
  <path d="M 0 450 Q 250 420 500 450 T 1000 450 T 1200 450 L 1200 630 L 0 630 Z" fill="#4FD1C5" opacity="0.05"/>

  <!-- Caviar roe particles -->
  <circle cx="994.9112702946774" cy="352.5235093698315" r="4.977514694559266" fill="#CFAE58" opacity="0.18531010077506266"/>
  <circle cx="188.82809097313347" cy="113.61412692195753" r="4.76983819744275" fill="#CFAE58" opacity="0.20904626511888108"/>
  <circle cx="203.715008592248" cy="286.9091207943578" r="2.6728231700834764" fill="#CFAE58" opacity="0.23142423181591623"/>
  <circle cx="313.45618308347207" cy="562.4756446538595" r="3.6290034317709985" fill="#CFAE58" opacity="0.20667483620951874"/>
  <circle cx="1167.1995382631621" cy="383.97630683735457" r="4.271163918757697" fill="#CFAE58" opacity="0.14763501929610193"/>
  <circle cx="95.66471529743303" cy="85.28869805666125" r="2.12525617846792" fill="#CFAE58" opacity="0.20337202438021806"/>
  <circle cx="933.3226413052492" cy="65.48952424701605" r="4.145825544038097" fill="#CFAE58" opacity="0.22676204375131992"/>
  <circle cx="155.39938517501702" cy="513.062672733893" r="3.112000328416549" fill="#CFAE58" opacity="0.23170473218808396"/>
  <circle cx="564.1529379697596" cy="350.856484683626" r="4.370493116773391" fill="#CFAE58" opacity="0.13313114878316137"/>
  <circle cx="608.3895468896908" cy="285.6166106752895" r="3.1480458914056797" fill="#CFAE58" opacity="0.2060443974253083"/>
  <circle cx="1118.5993301451613" cy="606.0098902617056" r="4.063353353994331" fill="#CFAE58" opacity="0.10772380526557043"/>
  <circle cx="137.04050711622645" cy="473.94659795190387" r="5.303981808700668" fill="#CFAE58" opacity="0.10440268658901138"/>
  <circle cx="49.58737402558828" cy="566.3574074295042" r="4.760465793519947" fill="#CFAE58" opacity="0.11958349588520772"/>
  <circle cx="1093.3713155967635" cy="433.7712867721779" r="3.570347423688043" fill="#CFAE58" opacity="0.2332867482486413"/>
  <circle cx="796.2660570564043" cy="550.8912072050623" r="2.406201571190553" fill="#CFAE58" opacity="0.20586543883200575"/>
  <circle cx="500.87138835322537" cy="60.74949614312432" r="4.236333365239737" fill="#CFAE58" opacity="0.23649789389345421"/>
  <circle cx="251.63688500096927" cy="496.4179934730712" r="2.811394602025392" fill="#CFAE58" opacity="0.1691891827797209"/>
  <circle cx="636.3057745290167" cy="345.52646155104566" r="4.266732981045706" fill="#CFAE58" opacity="0.15544106838658303"/>
  <circle cx="669.3379290069022" cy="462.65440404096375" r="4.006757120337384" fill="#CFAE58" opacity="0.14146924894357793"/>
  <circle cx="651.2950370179364" cy="468.77603307657404" r="2.5046902089469034" fill="#CFAE58" opacity="0.1116551200274139"/>
  <circle cx="427.6164162354364" cy="214.37314011484946" r="4.314002797453891" fill="#CFAE58" opacity="0.15282429334291933"/>
  <circle cx="696.693041895296" cy="128.50257240855518" r="5.332841139011461" fill="#CFAE58" opacity="0.21463779454553825"/>
  <circle cx="599.1662796401482" cy="21.47257419452457" r="4.515451356003575" fill="#CFAE58" opacity="0.11484330341242134"/>
  <circle cx="1042.0441254402544" cy="466.5428068143714" r="3.513389116172333" fill="#CFAE58" opacity="0.10459519363453464"/>
  <circle cx="380.73652435606687" cy="126.9073652957695" r="2.5899011034643262" fill="#CFAE58" opacity="0.18519420972130093"/>
  <circle cx="875.9463867997162" cy="13.014038268761345" r="2.0023120636046468" fill="#CFAE58" opacity="0.16510358600210528"/>
  <circle cx="264.8137580306397" cy="128.9336125482833" r="2.117826006494922" fill="#CFAE58" opacity="0.17844150146893473"/>
  <circle cx="500.5711424785343" cy="431.5903876588888" r="2.06087340097827" fill="#CFAE58" opacity="0.1848355752624441"/>
  <circle cx="417.24311682440725" cy="217.80239910528292" r="3.3555742935443726" fill="#CFAE58" opacity="0.19440971049811878"/>
  <circle cx="1032.1473843322833" cy="361.20085242166294" r="2.858485922262961" fill="#CFAE58" opacity="0.2126032541577444"/>

  <!-- Border with glow -->
  <rect x="40" y="40" width="1120" height="550" fill="none" stroke="url(#goldGradient)" stroke-width="3" rx="12" filter="url(#softGlow)"/>

  <!-- Icon circle with premium background -->
  <circle cx="150" cy="200" r="75" fill="#CFAE58" opacity="0.15" filter="url(#softGlow)"/>
  <circle cx="150" cy="200" r="70" fill="#CFAE58" opacity="0.25"/>
  <text x="150" y="235" font-size="90" text-anchor="middle" fill="#CFAE58" filter="url(#glow)">📍</text>

  <!-- Premium logo (crown) with enhanced styling -->
  <g transform="translate(100, 70)">
    <path d="M 30 20 L 40 35 L 35 35 Z M 50 15 L 60 35 L 45 35 Z M 65 20 L 75 35 L 70 35 Z M 30 35 L 75 35 L 73 45 L 32 45 Z"
          fill="url(#goldGradient)" filter="url(#glow)" stroke="#B89842" stroke-width="0.5"/>
    <circle cx="40" cy="25" r="3" fill="#4FD1C5" filter="url(#glow)"/>
    <circle cx="52" cy="20" r="4" fill="#4FD1C5" filter="url(#glow)"/>
    <circle cx="65" cy="25" r="3" fill="#4FD1C5" filter="url(#glow)"/>
  </g>

  <!-- Title with shadow -->
  <text x="280" y="180" font-family="Georgia, serif" font-size="72" font-weight="bold"
        fill="url(#goldGradient)" filter="url(#shadow)">Contact Us</text>

  <!-- Subtitle with subtle glow -->
  <text x="280" y="230" font-family="Arial, sans-serif" font-size="36"
        fill="#D6DEE6" opacity="0.95" filter="url(#softGlow)">Visit Us on Sakhalin Island</text>

  <!-- Brand name with letter spacing -->
  <text x="280" y="300" font-family="Georgia, serif" font-size="32" font-weight="bold"
        fill="#CFAE58" letter-spacing="4" filter="url(#glow)">ROYAL KETA</text>

  <!-- Russian tagline -->
  <text x="280" y="340" font-family="Arial, sans-serif" font-size="22" font-style="italic"
        fill="#8B95A1" opacity="0.8">От икринки к королевской</text>

  <!-- Location -->
  <text x="280" y="380" font-family="Arial, sans-serif" font-size="20"
        fill="#8B95A1" opacity="0.7">Невельский район, Сахалин</text>

  <!-- Website with glow -->
  <text x="100" y="570" font-family="Arial, sans-serif" font-size="30" font-weight="bold"
        fill="#4FD1C5" filter="url(#glow)">royalketa.com</text>

  <!-- Enhanced decorative salmon silhouette -->
  <g transform="translate(950, 480)" opacity="0.2" filter="url(#softGlow)">
    <ellipse cx="0" cy="0" rx="90" ry="35" fill="#CFAE58"/>
    <path d="M 90 0 L 120 -18 L 130 0 L 120 18 Z" fill="#CFAE58"/>
    <path d="M -25 -35 L 0 -45 L 25 -35 Z" fill="#CFAE58"/>
    <ellipse cx="-50" cy="0" rx="15" ry="12" fill="#0B0F14"/>
  </g>

  <!-- Additional decorative caviar clusters -->
  <g opacity="0.2">
    <circle cx="1050" cy="120" r="6" fill="#CFAE58"/>
    <circle cx="1065" cy="115" r="5" fill="#CFAE58"/>
    <circle cx="1058" cy="130" r="4" fill="#CFAE58"/>
    <circle cx="150" cy="500" r="5" fill="#4FD1C5"/>
    <circle cx="165" cy="508" r="4" fill="#4FD1C5"/>
    <circle cx="140" cy="512" r="5" fill="#4FD1C5"/>
  </g>
</svg>