<svg width="1200" height="630" xmlns="http://www.w3.org/2000/svg">
  <defs>
    <linearGradient id="bgGradient" x1="0%" y1="0%" x2="100%" y2="100%">
      <stop offset="0%" style="stop-color:#0B0F14;stop-opacity:1" />
      <stop offset="50%" style="stop-color:#0F1619;stop-opacity:1" />
      <stop offset="100%" style="stop-color:#0F1922;stop-opacity:1" />
    </linearGradient>
    <linearGradient id="goldGradient" x1="0%" y1="0%" x2="100%" y2="0%">
      <stop offset="0%" style="stop-color:#E5D596;stop-opacity:1" />
      <stop offset="50%" style="stop-color:#CFAE58;stop-opacity:1" />
      <stop offset="100%" style="stop-color:#B89842;stop-opacity:1" />
    </linearGradient>
    <radialGradient id="oceanGradient" cx="50%" cy="50%" r="50%">
      <stop offset="0%" style="stop-color:#4FD1C5;stop-opacity:0.3" />
      <stop offset="100%" style="stop-color:#1E90A0;stop-opacity:0.05" />
    </radialGradient>
    <filter id="glow">
      <feGaussianBlur stdDeviation="5" result="coloredBlur"/>
      <feMerge>
        <feMergeNode in="coloredBlur"/>
        <feMergeNode in="SourceGraphic"/>
      </feMerge>
    </filter>
    <filter id="softGlow">
      <feGaussianBlur stdDeviation="8" result="coloredBlur"/>
      <feMerge>
        <feMergeNode in="coloredBlur"/>
        <feMergeNode in="SourceGraphic"/>
      </feMerge>
    </filter>
    <filter id="shadow">
      <feDropShadow dx="0" dy="4" stdDeviation="8" flood-color="#000000" flood-opacity="0.5"/>
    </filter>
  </defs>

  <!-- Background -->
  <rect width="1200" height="630" fill="url(#bgGradient)"/>

  <!-- Decorative ocean gradients -->
  <ellipse cx="1000" cy="150" rx="300" ry="200" fill="url(#oceanGradient)" opacity="0.4"/>
  <ellipse cx="200" cy="530" rx="250" ry="180" fill="url(#oceanGradient)" opacity="0.3"/>

  <!-- Wave patterns -->
  <path d="M 0 400 Q 300 350 600 400 T 1200 400 L 1200 630 L 0 630 Z" fill="#1E90A0" opacity="0.08"/>
  <path d="M 0 450 Q 250 420 500 450 T 1000 450 T 1200 450 L 1200 630 L 0 630 Z" fill="#4FD1C5" opacity="0.05"/>

  <!-- Caviar roe particles -->
  <circle cx="465.91207397812315" cy="73.8978817578724" r="4.491640512056284" fill="#CFAE58" opacity="0.16365488044626753"/>
  <circle cx="626.2173359826846" cy="447.848895597219" r="3.217112298191145" fill="#CFAE58" opacity="0.16200286572408104"/>
  <circle cx="326.002461679358" cy="222.45600234661458" r="3.506814240526557" fill="#CFAE58" opacity="0.13059654931352865"/>
  <circle cx="67.35554003721322" cy="324.90959509022383" r="4.219954975499626" fill="#CFAE58" opacity="0.17323978181836497"/>
  <circle cx="862.8199042671647" cy="439.22518275112844" r="3.1562391586211866" fill="#CFAE58" opacity="0.21704486433425077"/>
  <circle cx="876.4128979978044" cy="482.6217562775358" r="2.8962122345149854" fill="#CFAE58" opacity="0.15808076176419988"/>
  <circle cx="827.2715222015752" cy="89.7362580718355" r="5.106173669461471" fill="#CFAE58" opacity="0.23510462074733912"/>
  <circle cx="493.9456395328661" cy="32.39822650667033" r="3.84880212339924" fill="#CFAE58" opacity="0.19579807836728574"/>
  <circle cx="385.3585521322156" cy="580.1680511620161" r="3.238145811076551" fill="#CFAE58" opacity="0.19708541640781868"/>
  <circle cx="270.15864728900675" cy="232.08978990442276" r="5.07439309951998" fill="#CFAE58" opacity="0.10308526678518234"/>
  <circle cx="73.46360283554354" cy="444.5199594896794" r="3.537524628306385" fill="#CFAE58" opacity="0.1537984171712459"/>
  <circle cx="840.6547368753943" cy="254.27906798870512" r="3.0516703562713365" fill="#CFAE58" opacity="0.2331109305278804"/>
  <circle cx="414.81685197787226" cy="268.63908860914273" r="5.218983641505676" fill="#CFAE58" opacity="0.1461920010389876"/>
  <circle cx="1150.3184022514408" cy="384.4584104184221" r="5.902292044606697" fill="#CFAE58" opacity="0.15881286872441247"/>
  <circle cx="707.8549922731995" cy="365.4049389184707" r="5.653579672194853" fill="#CFAE58" opacity="0.1396272106600025"/>
  <circle cx="336.562432567962" cy="63.94172582762965" r="5.527038931005947" fill="#CFAE58" opacity="0.2270250045142338"/>
  <circle cx="740.1886429255197" cy="56.11049611029251" r="5.218769679114045" fill="#CFAE58" opacity="0.1322057473166392"/>
  <circle cx="761.4481478171589" cy="481.34582214424455" r="5.766257555947219" fill="#CFAE58" opacity="0.2339891583364192"/>
  <circle cx="692.592362165272" cy="501.0199838958421" r="4.750520185324709" fill="#CFAE58" opacity="0.13180059738394528"/>
  <circle cx="939.4813020504583" cy="370.4158100606118" r="4.615734565075766" fill="#CFAE58" opacity="0.2354304165678474"/>
  <circle cx="341.38727669672716" cy="594.6951725610901" r="4.283413014025611" fill="#CFAE58" opacity="0.13309805439591327"/>
  <circle cx="694.3116535926582" cy="577.4643223473373" r="5.889166605313124" fill="#CFAE58" opacity="0.17872150382656893"/>
  <circle cx="879.8569337405385" cy="628.526629400534" r="4.676883666830617" fill="#CFAE58" opacity="0.16271445000805074"/>
  <circle cx="1005.1095609807509" cy="561.8680011668345" r="4.094998695251116" fill="#CFAE58" opacity="0.1328459087496424"/>
  <circle cx="1159.176962811497" cy="280.05321131871494" r="5.3066527045325556" fill="#CFAE58" opacity="0.13271861526143094"/>
  <circle cx="661.2468354775903" cy="544.6297269814212" r="3.4931321438699596" fill="#CFAE58" opacity="0.12461534129186902"/>
  <circle cx="293.430990212571" cy="290.1166069355439" r="5.608612860625006" fill="#CFAE58" opacity="0.14125017226655548"/>
  <circle cx="822.7641189826843" cy="234.49131840865647" r="4.516806278143452" fill="#CFAE58" opacity="0.18880528354794787"/>
  <circle cx="1171.1580004165442" cy="256.0028404654237" r="3.661600581442899" fill="#CFAE58" opacity="0.19910793906025745"/>
  <circle cx="209.52357338223555" cy="186.5728137048849" r="5.595340493082087" fill="#CFAE58" opacity="0.20860058808964838"/>

  <!-- Border with glow -->
  <rect x="40" y="40" width="1120" height="550" fill="none" stroke="url(#goldGradient)" stroke-width="3" rx="12" filter="url(#softGlow)"/>

  <!-- Icon circle with premium background -->
  <circle cx="150" cy="200" r="75" fill="#CFAE58" opacity="0.15" filter="url(#softGlow)"/>
  <circle cx="150" cy="200" r="70" fill="#CFAE58" opacity="0.25"/>
  <text x="150" y="235" font-size="90" text-anchor="middle" fill="#CFAE58" filter="url(#glow)">📍</text>

  <!-- Premium logo (crown) with enhanced styling -->
  <g transform="translate(100, 70)">
    <path d="M 30 20 L 40 35 L 35 35 Z M 50 15 L 60 35 L 45 35 Z M 65 20 L 75 35 L 70 35 Z M 30 35 L 75 35 L 73 45 L 32 45 Z"
          fill="url(#goldGradient)" filter="url(#glow)" stroke="#B89842" stroke-width="0.5"/>
    <circle cx="40" cy="25" r="3" fill="#4FD1C5" filter="url(#glow)"/>
    <circle cx="52" cy="20" r="4" fill="#4FD1C5" filter="url(#glow)"/>
    <circle cx="65" cy="25" r="3" fill="#4FD1C5" filter="url(#glow)"/>
  </g>

  <!-- Title with shadow -->
  <text x="280" y="180" font-family="Georgia, serif" font-size="72" font-weight="bold"
        fill="url(#goldGradient)" filter="url(#shadow)">Contact Us</text>

  <!-- Subtitle with subtle glow -->
  <text x="280" y="230" font-family="Arial, sans-serif" font-size="36"
        fill="#D6DEE6" opacity="0.95" filter="url(#softGlow)">Visit Us on Sakhalin Island</text>

  <!-- Brand name with letter spacing -->
  <text x="280" y="300" font-family="Georgia, serif" font-size="32" font-weight="bold"
        fill="#CFAE58" letter-spacing="4" filter="url(#glow)">ROYAL KETA</text>

  <!-- Russian tagline -->
  <text x="280" y="340" font-family="Arial, sans-serif" font-size="22" font-style="italic"
        fill="#8B95A1" opacity="0.8">От икринки к королевской</text>

  <!-- Location -->
  <text x="280" y="380" font-family="Arial, sans-serif" font-size="20"
        fill="#8B95A1" opacity="0.7">Невельский район, Сахалин</text>

  <!-- Website with glow -->
  <text x="100" y="570" font-family="Arial, sans-serif" font-size="30" font-weight="bold"
        fill="#4FD1C5" filter="url(#glow)">royalketa.com</text>

  <!-- Enhanced decorative salmon silhouette -->
  <g transform="translate(950, 480)" opacity="0.2" filter="url(#softGlow)">
    <ellipse cx="0" cy="0" rx="90" ry="35" fill="#CFAE58"/>
    <path d="M 90 0 L 120 -18 L 130 0 L 120 18 Z" fill="#CFAE58"/>
    <path d="M -25 -35 L 0 -45 L 25 -35 Z" fill="#CFAE58"/>
    <ellipse cx="-50" cy="0" rx="15" ry="12" fill="#0B0F14"/>
  </g>

  <!-- Additional decorative caviar clusters -->
  <g opacity="0.2">
    <circle cx="1050" cy="120" r="6" fill="#CFAE58"/>
    <circle cx="1065" cy="115" r="5" fill="#CFAE58"/>
    <circle cx="1058" cy="130" r="4" fill="#CFAE58"/>
    <circle cx="150" cy="500" r="5" fill="#4FD1C5"/>
    <circle cx="165" cy="508" r="4" fill="#4FD1C5"/>
    <circle cx="140" cy="512" r="5" fill="#4FD1C5"/>
  </g>
</svg>