<svg width="1200" height="630" xmlns="http://www.w3.org/2000/svg">
  <defs>
    <linearGradient id="bgGradient" x1="0%" y1="0%" x2="100%" y2="100%">
      <stop offset="0%" style="stop-color:#0B0F14;stop-opacity:1" />
      <stop offset="50%" style="stop-color:#0F1619;stop-opacity:1" />
      <stop offset="100%" style="stop-color:#0F1922;stop-opacity:1" />
    </linearGradient>
    <linearGradient id="goldGradient" x1="0%" y1="0%" x2="100%" y2="0%">
      <stop offset="0%" style="stop-color:#E5D596;stop-opacity:1" />
      <stop offset="50%" style="stop-color:#CFAE58;stop-opacity:1" />
      <stop offset="100%" style="stop-color:#B89842;stop-opacity:1" />
    </linearGradient>
    <radialGradient id="oceanGradient" cx="50%" cy="50%" r="50%">
      <stop offset="0%" style="stop-color:#4FD1C5;stop-opacity:0.3" />
      <stop offset="100%" style="stop-color:#1E90A0;stop-opacity:0.05" />
    </radialGradient>
    <filter id="glow">
      <feGaussianBlur stdDeviation="5" result="coloredBlur"/>
      <feMerge>
        <feMergeNode in="coloredBlur"/>
        <feMergeNode in="SourceGraphic"/>
      </feMerge>
    </filter>
    <filter id="softGlow">
      <feGaussianBlur stdDeviation="8" result="coloredBlur"/>
      <feMerge>
        <feMergeNode in="coloredBlur"/>
        <feMergeNode in="SourceGraphic"/>
      </feMerge>
    </filter>
    <filter id="shadow">
      <feDropShadow dx="0" dy="4" stdDeviation="8" flood-color="#000000" flood-opacity="0.5"/>
    </filter>
  </defs>

  <!-- Background -->
  <rect width="1200" height="630" fill="url(#bgGradient)"/>

  <!-- Decorative ocean gradients -->
  <ellipse cx="1000" cy="150" rx="300" ry="200" fill="url(#oceanGradient)" opacity="0.4"/>
  <ellipse cx="200" cy="530" rx="250" ry="180" fill="url(#oceanGradient)" opacity="0.3"/>

  <!-- Wave patterns -->
  <path d="M 0 400 Q 300 350 600 400 T 1200 400 L 1200 630 L 0 630 Z" fill="#1E90A0" opacity="0.08"/>
  <path d="M 0 450 Q 250 420 500 450 T 1000 450 T 1200 450 L 1200 630 L 0 630 Z" fill="#4FD1C5" opacity="0.05"/>

  <!-- Caviar roe particles -->
  <circle cx="808.2022653786472" cy="569.376508547743" r="3.6685219444204127" fill="#CFAE58" opacity="0.21277149863663072"/>
  <circle cx="935.7426776314932" cy="313.59375323198356" r="4.774642484948863" fill="#CFAE58" opacity="0.16670542502426372"/>
  <circle cx="260.2930023145068" cy="413.5370798731326" r="3.3654464649596973" fill="#CFAE58" opacity="0.10044138429190007"/>
  <circle cx="257.05495558172646" cy="609.3377347369182" r="4.2738143518396745" fill="#CFAE58" opacity="0.22913686147447496"/>
  <circle cx="842.6357735689088" cy="451.4355711495796" r="2.243975660171832" fill="#CFAE58" opacity="0.20987005853798502"/>
  <circle cx="14.4057819911668" cy="381.3774305200869" r="3.2833770733039507" fill="#CFAE58" opacity="0.1539263054371686"/>
  <circle cx="730.2130253260289" cy="126.04361369389962" r="4.738088622314047" fill="#CFAE58" opacity="0.23084860318509684"/>
  <circle cx="359.37784730029085" cy="250.05904988930467" r="4.334710472011421" fill="#CFAE58" opacity="0.22218561995114341"/>
  <circle cx="1079.8314055571673" cy="304.91564632329397" r="3.5782613618775065" fill="#CFAE58" opacity="0.20750768773381123"/>
  <circle cx="724.943487833114" cy="337.981590621395" r="3.410189765867317" fill="#CFAE58" opacity="0.19900926621180662"/>
  <circle cx="936.1584959890661" cy="457.15367531709194" r="5.962236173220498" fill="#CFAE58" opacity="0.1062918598936514"/>
  <circle cx="941.0065052585916" cy="115.32399570109135" r="5.908484034763848" fill="#CFAE58" opacity="0.17560804490543275"/>
  <circle cx="1.405546468894947" cy="178.90371168009875" r="5.692738362905921" fill="#CFAE58" opacity="0.10597445397868534"/>
  <circle cx="554.6096653945541" cy="548.8242580965834" r="5.176289741144394" fill="#CFAE58" opacity="0.21061202272890267"/>
  <circle cx="709.9204843783502" cy="141.3820965545951" r="4.603950993443475" fill="#CFAE58" opacity="0.1674792455271275"/>
  <circle cx="534.6049767960354" cy="565.0353876241895" r="2.379246025952466" fill="#CFAE58" opacity="0.21787799370566283"/>
  <circle cx="999.3629003064425" cy="136.31010019996032" r="4.594643720192208" fill="#CFAE58" opacity="0.1252700876191581"/>
  <circle cx="978.1056926756762" cy="460.89054934456885" r="4.3715987134036745" fill="#CFAE58" opacity="0.12364499602845003"/>
  <circle cx="1161.8680404378547" cy="390.9277666643657" r="5.89968040692837" fill="#CFAE58" opacity="0.22078766218044243"/>
  <circle cx="547.6323027498817" cy="391.864503980884" r="5.92444327617509" fill="#CFAE58" opacity="0.16462189031379454"/>
  <circle cx="350.1766025139869" cy="238.29226466934867" r="5.020820578947444" fill="#CFAE58" opacity="0.11323582020775343"/>
  <circle cx="514.9054136718476" cy="86.75385555082357" r="2.583202086004358" fill="#CFAE58" opacity="0.11458762504376382"/>
  <circle cx="302.24230518864334" cy="385.1906299749195" r="5.218974625663986" fill="#CFAE58" opacity="0.19753967446349252"/>
  <circle cx="535.9388497453373" cy="508.3811945600565" r="2.9244392065719285" fill="#CFAE58" opacity="0.10807782955008716"/>
  <circle cx="1129.6439801083181" cy="123.16064000416843" r="2.7805166002786024" fill="#CFAE58" opacity="0.19014245752622763"/>
  <circle cx="544.2366400244341" cy="578.819516565277" r="4.4179225072006165" fill="#CFAE58" opacity="0.1129739416524595"/>
  <circle cx="252.71669260112603" cy="43.28767107954802" r="4.975853730071495" fill="#CFAE58" opacity="0.11563571765775496"/>
  <circle cx="470.1806190888337" cy="511.73093148974567" r="3.4031586394571294" fill="#CFAE58" opacity="0.1169943608742556"/>
  <circle cx="481.2926007699516" cy="216.27277005080518" r="3.218532794513815" fill="#CFAE58" opacity="0.10503459702286719"/>
  <circle cx="601.3337760068101" cy="96.14431651198915" r="4.39281475260279" fill="#CFAE58" opacity="0.23520427964760984"/>

  <!-- Border with glow -->
  <rect x="40" y="40" width="1120" height="550" fill="none" stroke="url(#goldGradient)" stroke-width="3" rx="12" filter="url(#softGlow)"/>

  <!-- Icon circle with premium background -->
  <circle cx="150" cy="200" r="75" fill="#CFAE58" opacity="0.15" filter="url(#softGlow)"/>
  <circle cx="150" cy="200" r="70" fill="#CFAE58" opacity="0.25"/>
  <text x="150" y="235" font-size="90" text-anchor="middle" fill="#CFAE58" filter="url(#glow)">📍</text>

  <!-- Premium logo (crown) with enhanced styling -->
  <g transform="translate(100, 70)">
    <path d="M 30 20 L 40 35 L 35 35 Z M 50 15 L 60 35 L 45 35 Z M 65 20 L 75 35 L 70 35 Z M 30 35 L 75 35 L 73 45 L 32 45 Z"
          fill="url(#goldGradient)" filter="url(#glow)" stroke="#B89842" stroke-width="0.5"/>
    <circle cx="40" cy="25" r="3" fill="#4FD1C5" filter="url(#glow)"/>
    <circle cx="52" cy="20" r="4" fill="#4FD1C5" filter="url(#glow)"/>
    <circle cx="65" cy="25" r="3" fill="#4FD1C5" filter="url(#glow)"/>
  </g>

  <!-- Title with shadow -->
  <text x="280" y="180" font-family="Georgia, serif" font-size="72" font-weight="bold"
        fill="url(#goldGradient)" filter="url(#shadow)">Contact Us</text>

  <!-- Subtitle with subtle glow -->
  <text x="280" y="230" font-family="Arial, sans-serif" font-size="36"
        fill="#D6DEE6" opacity="0.95" filter="url(#softGlow)">Visit Us on Sakhalin Island</text>

  <!-- Brand name with letter spacing -->
  <text x="280" y="300" font-family="Georgia, serif" font-size="32" font-weight="bold"
        fill="#CFAE58" letter-spacing="4" filter="url(#glow)">ROYAL KETA</text>

  <!-- Russian tagline -->
  <text x="280" y="340" font-family="Arial, sans-serif" font-size="22" font-style="italic"
        fill="#8B95A1" opacity="0.8">От икринки к королевской</text>

  <!-- Location -->
  <text x="280" y="380" font-family="Arial, sans-serif" font-size="20"
        fill="#8B95A1" opacity="0.7">Невельский район, Сахалин</text>

  <!-- Website with glow -->
  <text x="100" y="570" font-family="Arial, sans-serif" font-size="30" font-weight="bold"
        fill="#4FD1C5" filter="url(#glow)">royalketa.com</text>

  <!-- Enhanced decorative salmon silhouette -->
  <g transform="translate(950, 480)" opacity="0.2" filter="url(#softGlow)">
    <ellipse cx="0" cy="0" rx="90" ry="35" fill="#CFAE58"/>
    <path d="M 90 0 L 120 -18 L 130 0 L 120 18 Z" fill="#CFAE58"/>
    <path d="M -25 -35 L 0 -45 L 25 -35 Z" fill="#CFAE58"/>
    <ellipse cx="-50" cy="0" rx="15" ry="12" fill="#0B0F14"/>
  </g>

  <!-- Additional decorative caviar clusters -->
  <g opacity="0.2">
    <circle cx="1050" cy="120" r="6" fill="#CFAE58"/>
    <circle cx="1065" cy="115" r="5" fill="#CFAE58"/>
    <circle cx="1058" cy="130" r="4" fill="#CFAE58"/>
    <circle cx="150" cy="500" r="5" fill="#4FD1C5"/>
    <circle cx="165" cy="508" r="4" fill="#4FD1C5"/>
    <circle cx="140" cy="512" r="5" fill="#4FD1C5"/>
  </g>
</svg>