<svg width="1200" height="630" xmlns="http://www.w3.org/2000/svg">
  <defs>
    <linearGradient id="bgGradient" x1="0%" y1="0%" x2="100%" y2="100%">
      <stop offset="0%" style="stop-color:#0B0F14;stop-opacity:1" />
      <stop offset="50%" style="stop-color:#0F1619;stop-opacity:1" />
      <stop offset="100%" style="stop-color:#0F1922;stop-opacity:1" />
    </linearGradient>
    <linearGradient id="goldGradient" x1="0%" y1="0%" x2="100%" y2="0%">
      <stop offset="0%" style="stop-color:#E5D596;stop-opacity:1" />
      <stop offset="50%" style="stop-color:#CFAE58;stop-opacity:1" />
      <stop offset="100%" style="stop-color:#B89842;stop-opacity:1" />
    </linearGradient>
    <radialGradient id="oceanGradient" cx="50%" cy="50%" r="50%">
      <stop offset="0%" style="stop-color:#4FD1C5;stop-opacity:0.3" />
      <stop offset="100%" style="stop-color:#1E90A0;stop-opacity:0.05" />
    </radialGradient>
    <filter id="glow">
      <feGaussianBlur stdDeviation="5" result="coloredBlur"/>
      <feMerge>
        <feMergeNode in="coloredBlur"/>
        <feMergeNode in="SourceGraphic"/>
      </feMerge>
    </filter>
    <filter id="softGlow">
      <feGaussianBlur stdDeviation="8" result="coloredBlur"/>
      <feMerge>
        <feMergeNode in="coloredBlur"/>
        <feMergeNode in="SourceGraphic"/>
      </feMerge>
    </filter>
    <filter id="shadow">
      <feDropShadow dx="0" dy="4" stdDeviation="8" flood-color="#000000" flood-opacity="0.5"/>
    </filter>
  </defs>

  <!-- Background -->
  <rect width="1200" height="630" fill="url(#bgGradient)"/>

  <!-- Decorative ocean gradients -->
  <ellipse cx="1000" cy="150" rx="300" ry="200" fill="url(#oceanGradient)" opacity="0.4"/>
  <ellipse cx="200" cy="530" rx="250" ry="180" fill="url(#oceanGradient)" opacity="0.3"/>

  <!-- Wave patterns -->
  <path d="M 0 400 Q 300 350 600 400 T 1200 400 L 1200 630 L 0 630 Z" fill="#1E90A0" opacity="0.08"/>
  <path d="M 0 450 Q 250 420 500 450 T 1000 450 T 1200 450 L 1200 630 L 0 630 Z" fill="#4FD1C5" opacity="0.05"/>

  <!-- Caviar roe particles -->
  <circle cx="573.3106032465936" cy="280.8231612875954" r="2.8027497440534384" fill="#CFAE58" opacity="0.21311632695913513"/>
  <circle cx="1119.5810955252934" cy="469.31865307830094" r="4.76322406662441" fill="#CFAE58" opacity="0.2146408642031869"/>
  <circle cx="970.1465235291323" cy="544.8903611243367" r="4.209180174393513" fill="#CFAE58" opacity="0.24165120658831182"/>
  <circle cx="322.7332907616503" cy="537.824299881021" r="5.607671008843319" fill="#CFAE58" opacity="0.1677163418379174"/>
  <circle cx="709.1720593619937" cy="488.07313025614536" r="5.995283929025948" fill="#CFAE58" opacity="0.15828329957702825"/>
  <circle cx="305.015926355425" cy="100.45053319761371" r="5.359681007959359" fill="#CFAE58" opacity="0.16946709519399084"/>
  <circle cx="1096.8623089358357" cy="416.7661050930515" r="4.219138053503886" fill="#CFAE58" opacity="0.18011902607118252"/>
  <circle cx="1090.1799102267407" cy="598.7916938045777" r="2.9387985017864198" fill="#CFAE58" opacity="0.13384877973014733"/>
  <circle cx="123.58676766083478" cy="507.65096607846687" r="4.5944916943092045" fill="#CFAE58" opacity="0.1627927305710044"/>
  <circle cx="698.2940699184397" cy="144.9352175385689" r="4.408817865351873" fill="#CFAE58" opacity="0.17318771827153806"/>
  <circle cx="786.762522074103" cy="71.5606385765495" r="2.4752724853544468" fill="#CFAE58" opacity="0.17480147160881826"/>
  <circle cx="623.4457817478573" cy="481.96938411624234" r="3.7127285809549075" fill="#CFAE58" opacity="0.14163169106136395"/>
  <circle cx="427.5576272882651" cy="84.29606482577127" r="4.894420981936369" fill="#CFAE58" opacity="0.16359286848202376"/>
  <circle cx="187.09015084871749" cy="247.19047616147571" r="4.135916611481263" fill="#CFAE58" opacity="0.22778580571796697"/>
  <circle cx="542.6204868043458" cy="260.50465019321456" r="4.667979569824913" fill="#CFAE58" opacity="0.1132191926414218"/>
  <circle cx="780.2676347440427" cy="304.57832576275723" r="5.029778533276367" fill="#CFAE58" opacity="0.20204718253005535"/>
  <circle cx="545.4654847697035" cy="580.5291476225798" r="2.5759786281627375" fill="#CFAE58" opacity="0.11586238435713749"/>
  <circle cx="811.4880428548937" cy="615.0270422253204" r="2.3636533090779457" fill="#CFAE58" opacity="0.18399241654829432"/>
  <circle cx="428.596796529569" cy="541.2893210414558" r="3.8622984731585475" fill="#CFAE58" opacity="0.24875129431076223"/>
  <circle cx="807.1586825428619" cy="356.3527137388347" r="2.1833582953559576" fill="#CFAE58" opacity="0.10675372301832638"/>
  <circle cx="19.81344446662101" cy="604.0803214534415" r="4.819862494634377" fill="#CFAE58" opacity="0.17259030753666765"/>
  <circle cx="1119.6652121535983" cy="467.9480893691391" r="4.665366639264439" fill="#CFAE58" opacity="0.19570003244175005"/>
  <circle cx="10.944420606565464" cy="114.6769658858088" r="3.607977528400964" fill="#CFAE58" opacity="0.2322490810721138"/>
  <circle cx="107.1322300624283" cy="14.166308311714946" r="2.7774859123829585" fill="#CFAE58" opacity="0.1936914862061332"/>
  <circle cx="321.65321115218666" cy="586.1592341989913" r="2.641689068876242" fill="#CFAE58" opacity="0.11344013487498687"/>
  <circle cx="858.5653115714443" cy="417.3904133231676" r="2.9282093752839904" fill="#CFAE58" opacity="0.22835239688502795"/>
  <circle cx="678.6051996949187" cy="561.8651932069725" r="2.034941894297764" fill="#CFAE58" opacity="0.14502409100988778"/>
  <circle cx="1060.9161865413016" cy="280.0106381787027" r="3.539758177642876" fill="#CFAE58" opacity="0.10429416439205617"/>
  <circle cx="702.112332038275" cy="143.93950886790606" r="5.609133380070089" fill="#CFAE58" opacity="0.23364786304917734"/>
  <circle cx="459.1252880737392" cy="319.2011988901483" r="2.8427714512859947" fill="#CFAE58" opacity="0.23926453622750526"/>

  <!-- Border with glow -->
  <rect x="40" y="40" width="1120" height="550" fill="none" stroke="url(#goldGradient)" stroke-width="3" rx="12" filter="url(#softGlow)"/>

  <!-- Icon circle with premium background -->
  <circle cx="150" cy="200" r="75" fill="#CFAE58" opacity="0.15" filter="url(#softGlow)"/>
  <circle cx="150" cy="200" r="70" fill="#CFAE58" opacity="0.25"/>
  <text x="150" y="235" font-size="90" text-anchor="middle" fill="#CFAE58" filter="url(#glow)">🦀</text>

  <!-- Premium logo (crown) with enhanced styling -->
  <g transform="translate(100, 70)">
    <path d="M 30 20 L 40 35 L 35 35 Z M 50 15 L 60 35 L 45 35 Z M 65 20 L 75 35 L 70 35 Z M 30 35 L 75 35 L 73 45 L 32 45 Z"
          fill="url(#goldGradient)" filter="url(#glow)" stroke="#B89842" stroke-width="0.5"/>
    <circle cx="40" cy="25" r="3" fill="#4FD1C5" filter="url(#glow)"/>
    <circle cx="52" cy="20" r="4" fill="#4FD1C5" filter="url(#glow)"/>
    <circle cx="65" cy="25" r="3" fill="#4FD1C5" filter="url(#glow)"/>
  </g>

  <!-- Title with shadow -->
  <text x="280" y="180" font-family="Georgia, serif" font-size="72" font-weight="bold"
        fill="url(#goldGradient)" filter="url(#shadow)">Crabbing on Sakhalin</text>

  <!-- Subtitle with subtle glow -->
  <text x="280" y="230" font-family="Arial, sans-serif" font-size="36"
        fill="#D6DEE6" opacity="0.95" filter="url(#softGlow)">King Crab Fishing &amp; Tours</text>

  <!-- Brand name with letter spacing -->
  <text x="280" y="300" font-family="Georgia, serif" font-size="32" font-weight="bold"
        fill="#CFAE58" letter-spacing="4" filter="url(#glow)">ROYAL KETA</text>

  <!-- Russian tagline -->
  <text x="280" y="340" font-family="Arial, sans-serif" font-size="22" font-style="italic"
        fill="#8B95A1" opacity="0.8">От икринки к королевской</text>

  <!-- Location -->
  <text x="280" y="380" font-family="Arial, sans-serif" font-size="20"
        fill="#8B95A1" opacity="0.7">Невельский район, Сахалин</text>

  <!-- Website with glow -->
  <text x="100" y="570" font-family="Arial, sans-serif" font-size="30" font-weight="bold"
        fill="#4FD1C5" filter="url(#glow)">royalketa.com</text>

  <!-- Enhanced decorative salmon silhouette -->
  <g transform="translate(950, 480)" opacity="0.2" filter="url(#softGlow)">
    <ellipse cx="0" cy="0" rx="90" ry="35" fill="#CFAE58"/>
    <path d="M 90 0 L 120 -18 L 130 0 L 120 18 Z" fill="#CFAE58"/>
    <path d="M -25 -35 L 0 -45 L 25 -35 Z" fill="#CFAE58"/>
    <ellipse cx="-50" cy="0" rx="15" ry="12" fill="#0B0F14"/>
  </g>

  <!-- Additional decorative caviar clusters -->
  <g opacity="0.2">
    <circle cx="1050" cy="120" r="6" fill="#CFAE58"/>
    <circle cx="1065" cy="115" r="5" fill="#CFAE58"/>
    <circle cx="1058" cy="130" r="4" fill="#CFAE58"/>
    <circle cx="150" cy="500" r="5" fill="#4FD1C5"/>
    <circle cx="165" cy="508" r="4" fill="#4FD1C5"/>
    <circle cx="140" cy="512" r="5" fill="#4FD1C5"/>
  </g>
</svg>