<svg width="1200" height="630" xmlns="http://www.w3.org/2000/svg">
  <defs>
    <linearGradient id="bgGradient" x1="0%" y1="0%" x2="100%" y2="100%">
      <stop offset="0%" style="stop-color:#0B0F14;stop-opacity:1" />
      <stop offset="50%" style="stop-color:#0F1619;stop-opacity:1" />
      <stop offset="100%" style="stop-color:#0F1922;stop-opacity:1" />
    </linearGradient>
    <linearGradient id="goldGradient" x1="0%" y1="0%" x2="100%" y2="0%">
      <stop offset="0%" style="stop-color:#E5D596;stop-opacity:1" />
      <stop offset="50%" style="stop-color:#CFAE58;stop-opacity:1" />
      <stop offset="100%" style="stop-color:#B89842;stop-opacity:1" />
    </linearGradient>
    <radialGradient id="oceanGradient" cx="50%" cy="50%" r="50%">
      <stop offset="0%" style="stop-color:#4FD1C5;stop-opacity:0.3" />
      <stop offset="100%" style="stop-color:#1E90A0;stop-opacity:0.05" />
    </radialGradient>
    <filter id="glow">
      <feGaussianBlur stdDeviation="5" result="coloredBlur"/>
      <feMerge>
        <feMergeNode in="coloredBlur"/>
        <feMergeNode in="SourceGraphic"/>
      </feMerge>
    </filter>
    <filter id="softGlow">
      <feGaussianBlur stdDeviation="8" result="coloredBlur"/>
      <feMerge>
        <feMergeNode in="coloredBlur"/>
        <feMergeNode in="SourceGraphic"/>
      </feMerge>
    </filter>
    <filter id="shadow">
      <feDropShadow dx="0" dy="4" stdDeviation="8" flood-color="#000000" flood-opacity="0.5"/>
    </filter>
  </defs>

  <!-- Background -->
  <rect width="1200" height="630" fill="url(#bgGradient)"/>

  <!-- Decorative ocean gradients -->
  <ellipse cx="1000" cy="150" rx="300" ry="200" fill="url(#oceanGradient)" opacity="0.4"/>
  <ellipse cx="200" cy="530" rx="250" ry="180" fill="url(#oceanGradient)" opacity="0.3"/>

  <!-- Wave patterns -->
  <path d="M 0 400 Q 300 350 600 400 T 1200 400 L 1200 630 L 0 630 Z" fill="#1E90A0" opacity="0.08"/>
  <path d="M 0 450 Q 250 420 500 450 T 1000 450 T 1200 450 L 1200 630 L 0 630 Z" fill="#4FD1C5" opacity="0.05"/>

  <!-- Caviar roe particles -->
  <circle cx="1145.1529571775768" cy="368.9459119071216" r="5.850912853742888" fill="#CFAE58" opacity="0.1497969487251673"/>
  <circle cx="648.0516184801751" cy="20.557167394044107" r="4.883610834537663" fill="#CFAE58" opacity="0.1976063207442753"/>
  <circle cx="23.245540404468112" cy="53.05260332315255" r="2.635430443695258" fill="#CFAE58" opacity="0.22854220091381267"/>
  <circle cx="811.679845426046" cy="262.53392948168977" r="4.881416082264128" fill="#CFAE58" opacity="0.17467029711643978"/>
  <circle cx="401.0614260312914" cy="623.5491145057007" r="3.2514266836858265" fill="#CFAE58" opacity="0.21747877707477367"/>
  <circle cx="97.92445407001189" cy="404.6114906868991" r="4.50743201552341" fill="#CFAE58" opacity="0.15371438933549258"/>
  <circle cx="166.50736498427943" cy="379.16243275876946" r="4.320215787572771" fill="#CFAE58" opacity="0.17416144206580142"/>
  <circle cx="76.09419533799375" cy="533.6729155761335" r="3.434923923035284" fill="#CFAE58" opacity="0.2283230723854694"/>
  <circle cx="275.6878461787385" cy="272.55134845730606" r="2.7196190247663745" fill="#CFAE58" opacity="0.21385937053411136"/>
  <circle cx="472.43936541824183" cy="475.24282512197334" r="2.88199549476031" fill="#CFAE58" opacity="0.234057273551266"/>
  <circle cx="219.99813607727452" cy="227.17175977431555" r="4.406514124283593" fill="#CFAE58" opacity="0.10851536603403815"/>
  <circle cx="2.3456923934516816" cy="43.87180786150797" r="3.482260375389192" fill="#CFAE58" opacity="0.12206174880203009"/>
  <circle cx="1150.757296767326" cy="347.2796297989945" r="4.120335578576268" fill="#CFAE58" opacity="0.2168147588579817"/>
  <circle cx="762.7504183010548" cy="521.9278106573432" r="5.854777097887357" fill="#CFAE58" opacity="0.15351104396022133"/>
  <circle cx="223.65296016601573" cy="278.7273089786804" r="2.3928705599406292" fill="#CFAE58" opacity="0.11491387680300524"/>
  <circle cx="1187.9346355202276" cy="360.3176190272048" r="5.347333776282532" fill="#CFAE58" opacity="0.18984191173337472"/>
  <circle cx="303.255996037705" cy="11.27052485425189" r="2.7475235088711365" fill="#CFAE58" opacity="0.19646950177172384"/>
  <circle cx="423.25970896770826" cy="242.47366129303538" r="5.8860172042071035" fill="#CFAE58" opacity="0.16940292578108068"/>
  <circle cx="946.6154019629612" cy="358.0058879390274" r="4.260390654457044" fill="#CFAE58" opacity="0.21171687986779425"/>
  <circle cx="1103.3408791123431" cy="594.4026713621363" r="4.083339511857181" fill="#CFAE58" opacity="0.1747107334919372"/>
  <circle cx="1147.7896291938769" cy="450.1719369661693" r="3.9073845001655947" fill="#CFAE58" opacity="0.2034729448429906"/>
  <circle cx="707.9374359254417" cy="44.62088015914547" r="3.059636963460087" fill="#CFAE58" opacity="0.1645129963697323"/>
  <circle cx="1148.240639963672" cy="85.290824591753" r="4.235530065953336" fill="#CFAE58" opacity="0.13729489274174408"/>
  <circle cx="752.8571695981374" cy="442.90289880702807" r="5.868600318106478" fill="#CFAE58" opacity="0.23365243006033173"/>
  <circle cx="72.29720776140836" cy="18.64357864859705" r="3.438244501035717" fill="#CFAE58" opacity="0.11929578451264612"/>
  <circle cx="394.0022220480254" cy="67.91561416996132" r="4.475820932353908" fill="#CFAE58" opacity="0.14978074103970587"/>
  <circle cx="751.0798621541145" cy="59.46258648761531" r="3.6743053555613505" fill="#CFAE58" opacity="0.21866544589024078"/>
  <circle cx="364.25913651919393" cy="301.92063619552306" r="5.939407249950197" fill="#CFAE58" opacity="0.21432574878064745"/>
  <circle cx="937.8022620848633" cy="81.4342276585023" r="2.0199727569776336" fill="#CFAE58" opacity="0.23403486194310702"/>
  <circle cx="167.6939641626901" cy="313.1415085020236" r="4.600503434590434" fill="#CFAE58" opacity="0.22229304978866798"/>

  <!-- Border with glow -->
  <rect x="40" y="40" width="1120" height="550" fill="none" stroke="url(#goldGradient)" stroke-width="3" rx="12" filter="url(#softGlow)"/>

  <!-- Icon circle with premium background -->
  <circle cx="150" cy="200" r="75" fill="#CFAE58" opacity="0.15" filter="url(#softGlow)"/>
  <circle cx="150" cy="200" r="70" fill="#CFAE58" opacity="0.25"/>
  <text x="150" y="235" font-size="90" text-anchor="middle" fill="#CFAE58" filter="url(#glow)">🦀</text>

  <!-- Premium logo (crown) with enhanced styling -->
  <g transform="translate(100, 70)">
    <path d="M 30 20 L 40 35 L 35 35 Z M 50 15 L 60 35 L 45 35 Z M 65 20 L 75 35 L 70 35 Z M 30 35 L 75 35 L 73 45 L 32 45 Z"
          fill="url(#goldGradient)" filter="url(#glow)" stroke="#B89842" stroke-width="0.5"/>
    <circle cx="40" cy="25" r="3" fill="#4FD1C5" filter="url(#glow)"/>
    <circle cx="52" cy="20" r="4" fill="#4FD1C5" filter="url(#glow)"/>
    <circle cx="65" cy="25" r="3" fill="#4FD1C5" filter="url(#glow)"/>
  </g>

  <!-- Title with shadow -->
  <text x="280" y="180" font-family="Georgia, serif" font-size="72" font-weight="bold"
        fill="url(#goldGradient)" filter="url(#shadow)">Crabbing on Sakhalin</text>

  <!-- Subtitle with subtle glow -->
  <text x="280" y="230" font-family="Arial, sans-serif" font-size="36"
        fill="#D6DEE6" opacity="0.95" filter="url(#softGlow)">King Crab Fishing & Tours</text>

  <!-- Brand name with letter spacing -->
  <text x="280" y="300" font-family="Georgia, serif" font-size="32" font-weight="bold"
        fill="#CFAE58" letter-spacing="4" filter="url(#glow)">ROYAL KETA</text>

  <!-- Russian tagline -->
  <text x="280" y="340" font-family="Arial, sans-serif" font-size="22" font-style="italic"
        fill="#8B95A1" opacity="0.8">От икринки к королевской</text>

  <!-- Location -->
  <text x="280" y="380" font-family="Arial, sans-serif" font-size="20"
        fill="#8B95A1" opacity="0.7">Невельский район, Сахалин</text>

  <!-- Website with glow -->
  <text x="100" y="570" font-family="Arial, sans-serif" font-size="30" font-weight="bold"
        fill="#4FD1C5" filter="url(#glow)">royalketa.com</text>

  <!-- Enhanced decorative salmon silhouette -->
  <g transform="translate(950, 480)" opacity="0.2" filter="url(#softGlow)">
    <ellipse cx="0" cy="0" rx="90" ry="35" fill="#CFAE58"/>
    <path d="M 90 0 L 120 -18 L 130 0 L 120 18 Z" fill="#CFAE58"/>
    <path d="M -25 -35 L 0 -45 L 25 -35 Z" fill="#CFAE58"/>
    <ellipse cx="-50" cy="0" rx="15" ry="12" fill="#0B0F14"/>
  </g>

  <!-- Additional decorative caviar clusters -->
  <g opacity="0.2">
    <circle cx="1050" cy="120" r="6" fill="#CFAE58"/>
    <circle cx="1065" cy="115" r="5" fill="#CFAE58"/>
    <circle cx="1058" cy="130" r="4" fill="#CFAE58"/>
    <circle cx="150" cy="500" r="5" fill="#4FD1C5"/>
    <circle cx="165" cy="508" r="4" fill="#4FD1C5"/>
    <circle cx="140" cy="512" r="5" fill="#4FD1C5"/>
  </g>
</svg>