<svg width="1200" height="630" xmlns="http://www.w3.org/2000/svg">
  <defs>
    <linearGradient id="bgGradient" x1="0%" y1="0%" x2="100%" y2="100%">
      <stop offset="0%" style="stop-color:#0B0F14;stop-opacity:1" />
      <stop offset="50%" style="stop-color:#0F1619;stop-opacity:1" />
      <stop offset="100%" style="stop-color:#0F1922;stop-opacity:1" />
    </linearGradient>
    <linearGradient id="goldGradient" x1="0%" y1="0%" x2="100%" y2="0%">
      <stop offset="0%" style="stop-color:#E5D596;stop-opacity:1" />
      <stop offset="50%" style="stop-color:#CFAE58;stop-opacity:1" />
      <stop offset="100%" style="stop-color:#B89842;stop-opacity:1" />
    </linearGradient>
    <radialGradient id="oceanGradient" cx="50%" cy="50%" r="50%">
      <stop offset="0%" style="stop-color:#4FD1C5;stop-opacity:0.3" />
      <stop offset="100%" style="stop-color:#1E90A0;stop-opacity:0.05" />
    </radialGradient>
    <filter id="glow">
      <feGaussianBlur stdDeviation="5" result="coloredBlur"/>
      <feMerge>
        <feMergeNode in="coloredBlur"/>
        <feMergeNode in="SourceGraphic"/>
      </feMerge>
    </filter>
    <filter id="softGlow">
      <feGaussianBlur stdDeviation="8" result="coloredBlur"/>
      <feMerge>
        <feMergeNode in="coloredBlur"/>
        <feMergeNode in="SourceGraphic"/>
      </feMerge>
    </filter>
    <filter id="shadow">
      <feDropShadow dx="0" dy="4" stdDeviation="8" flood-color="#000000" flood-opacity="0.5"/>
    </filter>
  </defs>

  <!-- Background -->
  <rect width="1200" height="630" fill="url(#bgGradient)"/>

  <!-- Decorative ocean gradients -->
  <ellipse cx="1000" cy="150" rx="300" ry="200" fill="url(#oceanGradient)" opacity="0.4"/>
  <ellipse cx="200" cy="530" rx="250" ry="180" fill="url(#oceanGradient)" opacity="0.3"/>

  <!-- Wave patterns -->
  <path d="M 0 400 Q 300 350 600 400 T 1200 400 L 1200 630 L 0 630 Z" fill="#1E90A0" opacity="0.08"/>
  <path d="M 0 450 Q 250 420 500 450 T 1000 450 T 1200 450 L 1200 630 L 0 630 Z" fill="#4FD1C5" opacity="0.05"/>

  <!-- Caviar roe particles -->
  <circle cx="396.06243000135873" cy="612.2829965393971" r="4.124268612408837" fill="#CFAE58" opacity="0.1534487213010439"/>
  <circle cx="337.4051007703316" cy="345.9338194339472" r="5.167315486572065" fill="#CFAE58" opacity="0.127735586378912"/>
  <circle cx="954.3566009796886" cy="45.16918025582078" r="4.00388972832263" fill="#CFAE58" opacity="0.24562566431203187"/>
  <circle cx="741.7123175492673" cy="125.73960194938232" r="3.8784331476423493" fill="#CFAE58" opacity="0.15025882340735494"/>
  <circle cx="1145.66185712065" cy="109.53579275883013" r="2.37731015833098" fill="#CFAE58" opacity="0.1857878205462919"/>
  <circle cx="664.7844357156067" cy="275.3315349211411" r="5.678462522751942" fill="#CFAE58" opacity="0.13990296874482094"/>
  <circle cx="333.04880736069924" cy="453.1957245689098" r="4.679557003710945" fill="#CFAE58" opacity="0.1489689156961001"/>
  <circle cx="824.0152845972336" cy="275.76210205152955" r="2.9625596448206446" fill="#CFAE58" opacity="0.10158951835252719"/>
  <circle cx="978.2182124513361" cy="22.285938164274356" r="3.03312282962223" fill="#CFAE58" opacity="0.12089296714780366"/>
  <circle cx="25.045594319192066" cy="254.9827493326903" r="5.838834567724748" fill="#CFAE58" opacity="0.1466033434772376"/>
  <circle cx="242.61443589601797" cy="529.8538186199781" r="3.434080957029048" fill="#CFAE58" opacity="0.1874331313437934"/>
  <circle cx="96.95132057242652" cy="274.2067716259799" r="2.6922680578173077" fill="#CFAE58" opacity="0.11091148232144862"/>
  <circle cx="1139.7807318508935" cy="491.03049208251394" r="5.41568275955832" fill="#CFAE58" opacity="0.21973917157955739"/>
  <circle cx="237.5012601265613" cy="230.21035698911476" r="5.406822542022038" fill="#CFAE58" opacity="0.1072343745165591"/>
  <circle cx="1043.4310962175907" cy="58.65377843450064" r="4.748880100683719" fill="#CFAE58" opacity="0.15719182819411454"/>
  <circle cx="33.25664332149172" cy="280.6705737830726" r="5.513738911524229" fill="#CFAE58" opacity="0.10014608335833097"/>
  <circle cx="553.151977923181" cy="102.03888708152081" r="3.1348476853939937" fill="#CFAE58" opacity="0.11284918404840437"/>
  <circle cx="1172.0069866416152" cy="627.1744480495612" r="4.7619617956142495" fill="#CFAE58" opacity="0.18548223152594667"/>
  <circle cx="898.9994460224467" cy="55.26258810977582" r="4.177963321784597" fill="#CFAE58" opacity="0.1481736685470505"/>
  <circle cx="1164.0672868146435" cy="130.81793570614863" r="4.471006548682607" fill="#CFAE58" opacity="0.14143549672328376"/>
  <circle cx="755.7329857729014" cy="622.6848620536324" r="5.456056835233252" fill="#CFAE58" opacity="0.22169291262017915"/>
  <circle cx="678.5066855604554" cy="595.8726425393486" r="2.839731855554291" fill="#CFAE58" opacity="0.1670810409278289"/>
  <circle cx="318.0142902317714" cy="415.9422666726688" r="2.5522598205939717" fill="#CFAE58" opacity="0.24236656674004292"/>
  <circle cx="1052.848175856126" cy="1.3804527014409218" r="5.916031887202805" fill="#CFAE58" opacity="0.24958284534971809"/>
  <circle cx="804.5801183031499" cy="29.184382476200334" r="2.456114644763506" fill="#CFAE58" opacity="0.20581170859481185"/>
  <circle cx="194.83244430676692" cy="202.88621312811478" r="5.076773522485496" fill="#CFAE58" opacity="0.2411179792818906"/>
  <circle cx="494.64432521348937" cy="211.0750997383485" r="5.786491301076425" fill="#CFAE58" opacity="0.12751348382274663"/>
  <circle cx="154.06493944308144" cy="41.12217847545297" r="2.0911303567496473" fill="#CFAE58" opacity="0.23233974497327703"/>
  <circle cx="546.3757845706533" cy="334.9697413588845" r="5.953796866533805" fill="#CFAE58" opacity="0.12987033631131623"/>
  <circle cx="111.11824676637055" cy="401.6486514753323" r="5.5515071596791605" fill="#CFAE58" opacity="0.13597186485554857"/>

  <!-- Border with glow -->
  <rect x="40" y="40" width="1120" height="550" fill="none" stroke="url(#goldGradient)" stroke-width="3" rx="12" filter="url(#softGlow)"/>

  <!-- Icon circle with premium background -->
  <circle cx="150" cy="200" r="75" fill="#CFAE58" opacity="0.15" filter="url(#softGlow)"/>
  <circle cx="150" cy="200" r="70" fill="#CFAE58" opacity="0.25"/>
  <text x="150" y="235" font-size="90" text-anchor="middle" fill="#CFAE58" filter="url(#glow)">🦀</text>

  <!-- Premium logo (crown) with enhanced styling -->
  <g transform="translate(100, 70)">
    <path d="M 30 20 L 40 35 L 35 35 Z M 50 15 L 60 35 L 45 35 Z M 65 20 L 75 35 L 70 35 Z M 30 35 L 75 35 L 73 45 L 32 45 Z"
          fill="url(#goldGradient)" filter="url(#glow)" stroke="#B89842" stroke-width="0.5"/>
    <circle cx="40" cy="25" r="3" fill="#4FD1C5" filter="url(#glow)"/>
    <circle cx="52" cy="20" r="4" fill="#4FD1C5" filter="url(#glow)"/>
    <circle cx="65" cy="25" r="3" fill="#4FD1C5" filter="url(#glow)"/>
  </g>

  <!-- Title with shadow -->
  <text x="280" y="180" font-family="Georgia, serif" font-size="72" font-weight="bold"
        fill="url(#goldGradient)" filter="url(#shadow)">Crabbing on Sakhalin</text>

  <!-- Subtitle with subtle glow -->
  <text x="280" y="230" font-family="Arial, sans-serif" font-size="36"
        fill="#D6DEE6" opacity="0.95" filter="url(#softGlow)">King Crab Fishing &amp; Tours</text>

  <!-- Brand name with letter spacing -->
  <text x="280" y="300" font-family="Georgia, serif" font-size="32" font-weight="bold"
        fill="#CFAE58" letter-spacing="4" filter="url(#glow)">ROYAL KETA</text>

  <!-- Russian tagline -->
  <text x="280" y="340" font-family="Arial, sans-serif" font-size="22" font-style="italic"
        fill="#8B95A1" opacity="0.8">От икринки к королевской</text>

  <!-- Location -->
  <text x="280" y="380" font-family="Arial, sans-serif" font-size="20"
        fill="#8B95A1" opacity="0.7">Невельский район, Сахалин</text>

  <!-- Website with glow -->
  <text x="100" y="570" font-family="Arial, sans-serif" font-size="30" font-weight="bold"
        fill="#4FD1C5" filter="url(#glow)">royalketa.com</text>

  <!-- Enhanced decorative salmon silhouette -->
  <g transform="translate(950, 480)" opacity="0.2" filter="url(#softGlow)">
    <ellipse cx="0" cy="0" rx="90" ry="35" fill="#CFAE58"/>
    <path d="M 90 0 L 120 -18 L 130 0 L 120 18 Z" fill="#CFAE58"/>
    <path d="M -25 -35 L 0 -45 L 25 -35 Z" fill="#CFAE58"/>
    <ellipse cx="-50" cy="0" rx="15" ry="12" fill="#0B0F14"/>
  </g>

  <!-- Additional decorative caviar clusters -->
  <g opacity="0.2">
    <circle cx="1050" cy="120" r="6" fill="#CFAE58"/>
    <circle cx="1065" cy="115" r="5" fill="#CFAE58"/>
    <circle cx="1058" cy="130" r="4" fill="#CFAE58"/>
    <circle cx="150" cy="500" r="5" fill="#4FD1C5"/>
    <circle cx="165" cy="508" r="4" fill="#4FD1C5"/>
    <circle cx="140" cy="512" r="5" fill="#4FD1C5"/>
  </g>
</svg>