<svg width="1200" height="630" xmlns="http://www.w3.org/2000/svg">
  <defs>
    <linearGradient id="bgGradient" x1="0%" y1="0%" x2="100%" y2="100%">
      <stop offset="0%" style="stop-color:#0B0F14;stop-opacity:1" />
      <stop offset="50%" style="stop-color:#0F1619;stop-opacity:1" />
      <stop offset="100%" style="stop-color:#0F1922;stop-opacity:1" />
    </linearGradient>
    <linearGradient id="goldGradient" x1="0%" y1="0%" x2="100%" y2="0%">
      <stop offset="0%" style="stop-color:#E5D596;stop-opacity:1" />
      <stop offset="50%" style="stop-color:#CFAE58;stop-opacity:1" />
      <stop offset="100%" style="stop-color:#B89842;stop-opacity:1" />
    </linearGradient>
    <radialGradient id="oceanGradient" cx="50%" cy="50%" r="50%">
      <stop offset="0%" style="stop-color:#4FD1C5;stop-opacity:0.3" />
      <stop offset="100%" style="stop-color:#1E90A0;stop-opacity:0.05" />
    </radialGradient>
    <filter id="glow">
      <feGaussianBlur stdDeviation="5" result="coloredBlur"/>
      <feMerge>
        <feMergeNode in="coloredBlur"/>
        <feMergeNode in="SourceGraphic"/>
      </feMerge>
    </filter>
    <filter id="softGlow">
      <feGaussianBlur stdDeviation="8" result="coloredBlur"/>
      <feMerge>
        <feMergeNode in="coloredBlur"/>
        <feMergeNode in="SourceGraphic"/>
      </feMerge>
    </filter>
    <filter id="shadow">
      <feDropShadow dx="0" dy="4" stdDeviation="8" flood-color="#000000" flood-opacity="0.5"/>
    </filter>
  </defs>

  <!-- Background -->
  <rect width="1200" height="630" fill="url(#bgGradient)"/>

  <!-- Decorative ocean gradients -->
  <ellipse cx="1000" cy="150" rx="300" ry="200" fill="url(#oceanGradient)" opacity="0.4"/>
  <ellipse cx="200" cy="530" rx="250" ry="180" fill="url(#oceanGradient)" opacity="0.3"/>

  <!-- Wave patterns -->
  <path d="M 0 400 Q 300 350 600 400 T 1200 400 L 1200 630 L 0 630 Z" fill="#1E90A0" opacity="0.08"/>
  <path d="M 0 450 Q 250 420 500 450 T 1000 450 T 1200 450 L 1200 630 L 0 630 Z" fill="#4FD1C5" opacity="0.05"/>

  <!-- Caviar roe particles -->
  <circle cx="231.17060300748173" cy="293.25069745064536" r="5.5260213163204535" fill="#CFAE58" opacity="0.22259364033080994"/>
  <circle cx="158.28166977151108" cy="199.4673381473787" r="3.808560854687558" fill="#CFAE58" opacity="0.11276057749943477"/>
  <circle cx="885.2342396785123" cy="215.53750949156762" r="4.59301152592057" fill="#CFAE58" opacity="0.1141318425399401"/>
  <circle cx="703.9492851610013" cy="224.42820479765152" r="2.57023711759833" fill="#CFAE58" opacity="0.1841959346776138"/>
  <circle cx="907.8013537801364" cy="138.11016326424772" r="4.2826020338298525" fill="#CFAE58" opacity="0.14923128472091443"/>
  <circle cx="994.4183451408782" cy="439.30221731848565" r="4.147990196699961" fill="#CFAE58" opacity="0.21165897586033972"/>
  <circle cx="587.4627530941007" cy="247.45930096188408" r="4.189032356751966" fill="#CFAE58" opacity="0.1728152617454105"/>
  <circle cx="659.5817310253902" cy="574.6900466280161" r="2.898852521010406" fill="#CFAE58" opacity="0.15507926144651618"/>
  <circle cx="299.15790725319835" cy="31.808144908414736" r="2.447323410991534" fill="#CFAE58" opacity="0.24325703188273815"/>
  <circle cx="954.9518306137954" cy="10.780963514635136" r="4.0008384284283025" fill="#CFAE58" opacity="0.14894981104198377"/>
  <circle cx="704.4018333093344" cy="392.3269402297792" r="3.1601854626656634" fill="#CFAE58" opacity="0.11902033016321757"/>
  <circle cx="419.96658349286884" cy="404.10976480341384" r="3.211744159803011" fill="#CFAE58" opacity="0.13963463898589046"/>
  <circle cx="195.4264862087439" cy="215.2510143610601" r="2.0990288119152662" fill="#CFAE58" opacity="0.12374444261582437"/>
  <circle cx="688.9711954647915" cy="386.9745476979059" r="4.002558499441929" fill="#CFAE58" opacity="0.18320343925777058"/>
  <circle cx="1130.2621360199191" cy="443.98343571587793" r="2.906654118446113" fill="#CFAE58" opacity="0.11138790154368161"/>
  <circle cx="664.5811047499951" cy="617.4981244486972" r="3.500329537614448" fill="#CFAE58" opacity="0.23530629547379303"/>
  <circle cx="92.69365063953518" cy="126.91287625262797" r="5.901284623853462" fill="#CFAE58" opacity="0.130164461858629"/>
  <circle cx="605.0367301945672" cy="82.4247016870378" r="5.15136356979887" fill="#CFAE58" opacity="0.22398162898288287"/>
  <circle cx="887.3180371643577" cy="235.30403153207502" r="2.8806900280448495" fill="#CFAE58" opacity="0.12226822239509338"/>
  <circle cx="838.4892475252395" cy="272.87311616397756" r="3.678434713584404" fill="#CFAE58" opacity="0.21781922815973953"/>
  <circle cx="16.448254505053672" cy="86.08121061099168" r="4.743944911083907" fill="#CFAE58" opacity="0.1138585019917493"/>
  <circle cx="518.0029161643711" cy="503.06613161159055" r="3.426083552991953" fill="#CFAE58" opacity="0.20511976137875504"/>
  <circle cx="56.52593011341436" cy="478.6613178073011" r="5.478004962382169" fill="#CFAE58" opacity="0.23426912975418873"/>
  <circle cx="958.4548427449179" cy="454.44037547146183" r="2.5945703142530236" fill="#CFAE58" opacity="0.17534729453286624"/>
  <circle cx="519.588486996324" cy="425.0997107927549" r="5.233056568652275" fill="#CFAE58" opacity="0.15511728946177283"/>
  <circle cx="1010.3927534826923" cy="119.35387104152075" r="3.424380177357518" fill="#CFAE58" opacity="0.24592711159632674"/>
  <circle cx="761.3160448550965" cy="578.2858864868059" r="5.353590783135295" fill="#CFAE58" opacity="0.1193924089851544"/>
  <circle cx="1033.7833169113865" cy="58.951493126075206" r="2.078354266454358" fill="#CFAE58" opacity="0.20692437844452605"/>
  <circle cx="1068.3746788153417" cy="2.7471754646073743" r="3.868966857750375" fill="#CFAE58" opacity="0.15144130224102945"/>
  <circle cx="1163.814474681455" cy="199.96852005152704" r="5.178372089606515" fill="#CFAE58" opacity="0.17605348424323086"/>

  <!-- Border with glow -->
  <rect x="40" y="40" width="1120" height="550" fill="none" stroke="url(#goldGradient)" stroke-width="3" rx="12" filter="url(#softGlow)"/>

  <!-- Icon circle with premium background -->
  <circle cx="150" cy="200" r="75" fill="#CFAE58" opacity="0.15" filter="url(#softGlow)"/>
  <circle cx="150" cy="200" r="70" fill="#CFAE58" opacity="0.25"/>
  <text x="150" y="235" font-size="90" text-anchor="middle" fill="#CFAE58" filter="url(#glow)">🦀</text>

  <!-- Premium logo (crown) with enhanced styling -->
  <g transform="translate(100, 70)">
    <path d="M 30 20 L 40 35 L 35 35 Z M 50 15 L 60 35 L 45 35 Z M 65 20 L 75 35 L 70 35 Z M 30 35 L 75 35 L 73 45 L 32 45 Z"
          fill="url(#goldGradient)" filter="url(#glow)" stroke="#B89842" stroke-width="0.5"/>
    <circle cx="40" cy="25" r="3" fill="#4FD1C5" filter="url(#glow)"/>
    <circle cx="52" cy="20" r="4" fill="#4FD1C5" filter="url(#glow)"/>
    <circle cx="65" cy="25" r="3" fill="#4FD1C5" filter="url(#glow)"/>
  </g>

  <!-- Title with shadow -->
  <text x="280" y="180" font-family="Georgia, serif" font-size="72" font-weight="bold"
        fill="url(#goldGradient)" filter="url(#shadow)">Crabbing on Sakhalin</text>

  <!-- Subtitle with subtle glow -->
  <text x="280" y="230" font-family="Arial, sans-serif" font-size="36"
        fill="#D6DEE6" opacity="0.95" filter="url(#softGlow)">King Crab Fishing & Tours</text>

  <!-- Brand name with letter spacing -->
  <text x="280" y="300" font-family="Georgia, serif" font-size="32" font-weight="bold"
        fill="#CFAE58" letter-spacing="4" filter="url(#glow)">ROYAL KETA</text>

  <!-- Russian tagline -->
  <text x="280" y="340" font-family="Arial, sans-serif" font-size="22" font-style="italic"
        fill="#8B95A1" opacity="0.8">От икринки к королевской</text>

  <!-- Location -->
  <text x="280" y="380" font-family="Arial, sans-serif" font-size="20"
        fill="#8B95A1" opacity="0.7">Невельский район, Сахалин</text>

  <!-- Website with glow -->
  <text x="100" y="570" font-family="Arial, sans-serif" font-size="30" font-weight="bold"
        fill="#4FD1C5" filter="url(#glow)">royalketa.com</text>

  <!-- Enhanced decorative salmon silhouette -->
  <g transform="translate(950, 480)" opacity="0.2" filter="url(#softGlow)">
    <ellipse cx="0" cy="0" rx="90" ry="35" fill="#CFAE58"/>
    <path d="M 90 0 L 120 -18 L 130 0 L 120 18 Z" fill="#CFAE58"/>
    <path d="M -25 -35 L 0 -45 L 25 -35 Z" fill="#CFAE58"/>
    <ellipse cx="-50" cy="0" rx="15" ry="12" fill="#0B0F14"/>
  </g>

  <!-- Additional decorative caviar clusters -->
  <g opacity="0.2">
    <circle cx="1050" cy="120" r="6" fill="#CFAE58"/>
    <circle cx="1065" cy="115" r="5" fill="#CFAE58"/>
    <circle cx="1058" cy="130" r="4" fill="#CFAE58"/>
    <circle cx="150" cy="500" r="5" fill="#4FD1C5"/>
    <circle cx="165" cy="508" r="4" fill="#4FD1C5"/>
    <circle cx="140" cy="512" r="5" fill="#4FD1C5"/>
  </g>
</svg>