<svg width="1200" height="630" xmlns="http://www.w3.org/2000/svg">
  <defs>
    <linearGradient id="bgGradient" x1="0%" y1="0%" x2="100%" y2="100%">
      <stop offset="0%" style="stop-color:#0B0F14;stop-opacity:1" />
      <stop offset="50%" style="stop-color:#0F1619;stop-opacity:1" />
      <stop offset="100%" style="stop-color:#0F1922;stop-opacity:1" />
    </linearGradient>
    <linearGradient id="goldGradient" x1="0%" y1="0%" x2="100%" y2="0%">
      <stop offset="0%" style="stop-color:#E5D596;stop-opacity:1" />
      <stop offset="50%" style="stop-color:#CFAE58;stop-opacity:1" />
      <stop offset="100%" style="stop-color:#B89842;stop-opacity:1" />
    </linearGradient>
    <radialGradient id="oceanGradient" cx="50%" cy="50%" r="50%">
      <stop offset="0%" style="stop-color:#4FD1C5;stop-opacity:0.3" />
      <stop offset="100%" style="stop-color:#1E90A0;stop-opacity:0.05" />
    </radialGradient>
    <filter id="glow">
      <feGaussianBlur stdDeviation="5" result="coloredBlur"/>
      <feMerge>
        <feMergeNode in="coloredBlur"/>
        <feMergeNode in="SourceGraphic"/>
      </feMerge>
    </filter>
    <filter id="softGlow">
      <feGaussianBlur stdDeviation="8" result="coloredBlur"/>
      <feMerge>
        <feMergeNode in="coloredBlur"/>
        <feMergeNode in="SourceGraphic"/>
      </feMerge>
    </filter>
    <filter id="shadow">
      <feDropShadow dx="0" dy="4" stdDeviation="8" flood-color="#000000" flood-opacity="0.5"/>
    </filter>
  </defs>

  <!-- Background -->
  <rect width="1200" height="630" fill="url(#bgGradient)"/>

  <!-- Decorative ocean gradients -->
  <ellipse cx="1000" cy="150" rx="300" ry="200" fill="url(#oceanGradient)" opacity="0.4"/>
  <ellipse cx="200" cy="530" rx="250" ry="180" fill="url(#oceanGradient)" opacity="0.3"/>

  <!-- Wave patterns -->
  <path d="M 0 400 Q 300 350 600 400 T 1200 400 L 1200 630 L 0 630 Z" fill="#1E90A0" opacity="0.08"/>
  <path d="M 0 450 Q 250 420 500 450 T 1000 450 T 1200 450 L 1200 630 L 0 630 Z" fill="#4FD1C5" opacity="0.05"/>

  <!-- Caviar roe particles -->
  <circle cx="708.1904447723743" cy="238.08175558885156" r="4.644910512349438" fill="#CFAE58" opacity="0.19962897998783924"/>
  <circle cx="1055.1752878324253" cy="260.0580484277095" r="3.4574016741267544" fill="#CFAE58" opacity="0.13129885803209781"/>
  <circle cx="1033.2207733456032" cy="154.44379341364223" r="5.143288693408288" fill="#CFAE58" opacity="0.20556653019251533"/>
  <circle cx="983.092786030151" cy="500.514018597983" r="5.422290686263774" fill="#CFAE58" opacity="0.18184595600211811"/>
  <circle cx="442.7177035387687" cy="240.7329574963604" r="4.470229450091209" fill="#CFAE58" opacity="0.1384113385062604"/>
  <circle cx="876.5811528591925" cy="388.81396109709726" r="4.3314207564866996" fill="#CFAE58" opacity="0.12786581194534352"/>
  <circle cx="635.1738795076074" cy="202.1965653441478" r="3.921511499815212" fill="#CFAE58" opacity="0.20937187502716126"/>
  <circle cx="548.6953795127909" cy="148.68904709480884" r="2.0914374827353486" fill="#CFAE58" opacity="0.1938469100002897"/>
  <circle cx="284.8382375405289" cy="586.5211680368645" r="4.465016512813754" fill="#CFAE58" opacity="0.14332660248501966"/>
  <circle cx="735.0097110457151" cy="596.9690904215009" r="2.8199602852449592" fill="#CFAE58" opacity="0.13885845872942312"/>
  <circle cx="1040.7301221503271" cy="509.2370978297803" r="2.148177194551822" fill="#CFAE58" opacity="0.1365962381862353"/>
  <circle cx="966.1382636459483" cy="97.17540136721257" r="3.976013941863294" fill="#CFAE58" opacity="0.11754050736018361"/>
  <circle cx="491.2310663568502" cy="409.4817221014155" r="3.9393061151662225" fill="#CFAE58" opacity="0.15007095144041604"/>
  <circle cx="1079.3507779959036" cy="439.670126912718" r="5.4416148823906045" fill="#CFAE58" opacity="0.1154814682320073"/>
  <circle cx="736.5852864712595" cy="369.4544056463299" r="2.339261589031339" fill="#CFAE58" opacity="0.13918554942110678"/>
  <circle cx="782.2624603572468" cy="230.49169503437432" r="4.722759405214831" fill="#CFAE58" opacity="0.16234127163526735"/>
  <circle cx="579.2116282715504" cy="280.8280856454148" r="4.707764455596878" fill="#CFAE58" opacity="0.17356935685089347"/>
  <circle cx="67.93096591600643" cy="47.57922981369306" r="3.32427372393765" fill="#CFAE58" opacity="0.11441763111323466"/>
  <circle cx="156.37942684601435" cy="63.09442755146756" r="5.506024287297956" fill="#CFAE58" opacity="0.21225084557587154"/>
  <circle cx="363.1304844424174" cy="607.6872408323469" r="5.281209667025196" fill="#CFAE58" opacity="0.18459709971956928"/>
  <circle cx="1038.487903075029" cy="129.60510473158547" r="2.6608733002411444" fill="#CFAE58" opacity="0.1715200733111666"/>
  <circle cx="148.72359931092012" cy="304.6743303518347" r="4.701738254391815" fill="#CFAE58" opacity="0.2346265828403458"/>
  <circle cx="311.3535467204424" cy="338.6810545526628" r="4.321339308079335" fill="#CFAE58" opacity="0.1741059015131027"/>
  <circle cx="87.50023409521823" cy="178.95856256863743" r="3.2999720743392427" fill="#CFAE58" opacity="0.1831882760708275"/>
  <circle cx="1000.0569885082803" cy="309.19764174336814" r="2.0563262317343574" fill="#CFAE58" opacity="0.20865757069397425"/>
  <circle cx="50.259831729802684" cy="155.07500248830155" r="4.521438875964961" fill="#CFAE58" opacity="0.11172707451307261"/>
  <circle cx="1106.7951564400073" cy="223.726910599599" r="5.228914961817837" fill="#CFAE58" opacity="0.20912834134252456"/>
  <circle cx="989.8689730304582" cy="470.21268566234835" r="3.1313963613283304" fill="#CFAE58" opacity="0.12334390548138989"/>
  <circle cx="660.5634052287028" cy="17.58980554609547" r="2.3147042392083748" fill="#CFAE58" opacity="0.11130204202714028"/>
  <circle cx="297.4387005537747" cy="168.11034524870402" r="4.615728311848516" fill="#CFAE58" opacity="0.2018349881461457"/>

  <!-- Border with glow -->
  <rect x="40" y="40" width="1120" height="550" fill="none" stroke="url(#goldGradient)" stroke-width="3" rx="12" filter="url(#softGlow)"/>

  <!-- Icon circle with premium background -->
  <circle cx="150" cy="200" r="75" fill="#CFAE58" opacity="0.15" filter="url(#softGlow)"/>
  <circle cx="150" cy="200" r="70" fill="#CFAE58" opacity="0.25"/>
  <text x="150" y="235" font-size="90" text-anchor="middle" fill="#CFAE58" filter="url(#glow)">🦀</text>

  <!-- Premium logo (crown) with enhanced styling -->
  <g transform="translate(100, 70)">
    <path d="M 30 20 L 40 35 L 35 35 Z M 50 15 L 60 35 L 45 35 Z M 65 20 L 75 35 L 70 35 Z M 30 35 L 75 35 L 73 45 L 32 45 Z"
          fill="url(#goldGradient)" filter="url(#glow)" stroke="#B89842" stroke-width="0.5"/>
    <circle cx="40" cy="25" r="3" fill="#4FD1C5" filter="url(#glow)"/>
    <circle cx="52" cy="20" r="4" fill="#4FD1C5" filter="url(#glow)"/>
    <circle cx="65" cy="25" r="3" fill="#4FD1C5" filter="url(#glow)"/>
  </g>

  <!-- Title with shadow -->
  <text x="280" y="180" font-family="Georgia, serif" font-size="72" font-weight="bold"
        fill="url(#goldGradient)" filter="url(#shadow)">Crabbing on Sakhalin</text>

  <!-- Subtitle with subtle glow -->
  <text x="280" y="230" font-family="Arial, sans-serif" font-size="36"
        fill="#D6DEE6" opacity="0.95" filter="url(#softGlow)">King Crab Fishing & Tours</text>

  <!-- Brand name with letter spacing -->
  <text x="280" y="300" font-family="Georgia, serif" font-size="32" font-weight="bold"
        fill="#CFAE58" letter-spacing="4" filter="url(#glow)">ROYAL KETA</text>

  <!-- Russian tagline -->
  <text x="280" y="340" font-family="Arial, sans-serif" font-size="22" font-style="italic"
        fill="#8B95A1" opacity="0.8">От икринки к королевской</text>

  <!-- Location -->
  <text x="280" y="380" font-family="Arial, sans-serif" font-size="20"
        fill="#8B95A1" opacity="0.7">Невельский район, Сахалин</text>

  <!-- Website with glow -->
  <text x="100" y="570" font-family="Arial, sans-serif" font-size="30" font-weight="bold"
        fill="#4FD1C5" filter="url(#glow)">royalketa.com</text>

  <!-- Enhanced decorative salmon silhouette -->
  <g transform="translate(950, 480)" opacity="0.2" filter="url(#softGlow)">
    <ellipse cx="0" cy="0" rx="90" ry="35" fill="#CFAE58"/>
    <path d="M 90 0 L 120 -18 L 130 0 L 120 18 Z" fill="#CFAE58"/>
    <path d="M -25 -35 L 0 -45 L 25 -35 Z" fill="#CFAE58"/>
    <ellipse cx="-50" cy="0" rx="15" ry="12" fill="#0B0F14"/>
  </g>

  <!-- Additional decorative caviar clusters -->
  <g opacity="0.2">
    <circle cx="1050" cy="120" r="6" fill="#CFAE58"/>
    <circle cx="1065" cy="115" r="5" fill="#CFAE58"/>
    <circle cx="1058" cy="130" r="4" fill="#CFAE58"/>
    <circle cx="150" cy="500" r="5" fill="#4FD1C5"/>
    <circle cx="165" cy="508" r="4" fill="#4FD1C5"/>
    <circle cx="140" cy="512" r="5" fill="#4FD1C5"/>
  </g>
</svg>