<svg width="1200" height="630" xmlns="http://www.w3.org/2000/svg">
  <defs>
    <linearGradient id="bgGradient" x1="0%" y1="0%" x2="100%" y2="100%">
      <stop offset="0%" style="stop-color:#0B0F14;stop-opacity:1" />
      <stop offset="50%" style="stop-color:#0F1619;stop-opacity:1" />
      <stop offset="100%" style="stop-color:#0F1922;stop-opacity:1" />
    </linearGradient>
    <linearGradient id="goldGradient" x1="0%" y1="0%" x2="100%" y2="0%">
      <stop offset="0%" style="stop-color:#E5D596;stop-opacity:1" />
      <stop offset="50%" style="stop-color:#CFAE58;stop-opacity:1" />
      <stop offset="100%" style="stop-color:#B89842;stop-opacity:1" />
    </linearGradient>
    <radialGradient id="oceanGradient" cx="50%" cy="50%" r="50%">
      <stop offset="0%" style="stop-color:#4FD1C5;stop-opacity:0.3" />
      <stop offset="100%" style="stop-color:#1E90A0;stop-opacity:0.05" />
    </radialGradient>
    <filter id="glow">
      <feGaussianBlur stdDeviation="5" result="coloredBlur"/>
      <feMerge>
        <feMergeNode in="coloredBlur"/>
        <feMergeNode in="SourceGraphic"/>
      </feMerge>
    </filter>
    <filter id="softGlow">
      <feGaussianBlur stdDeviation="8" result="coloredBlur"/>
      <feMerge>
        <feMergeNode in="coloredBlur"/>
        <feMergeNode in="SourceGraphic"/>
      </feMerge>
    </filter>
    <filter id="shadow">
      <feDropShadow dx="0" dy="4" stdDeviation="8" flood-color="#000000" flood-opacity="0.5"/>
    </filter>
  </defs>

  <!-- Background -->
  <rect width="1200" height="630" fill="url(#bgGradient)"/>

  <!-- Decorative ocean gradients -->
  <ellipse cx="1000" cy="150" rx="300" ry="200" fill="url(#oceanGradient)" opacity="0.4"/>
  <ellipse cx="200" cy="530" rx="250" ry="180" fill="url(#oceanGradient)" opacity="0.3"/>

  <!-- Wave patterns -->
  <path d="M 0 400 Q 300 350 600 400 T 1200 400 L 1200 630 L 0 630 Z" fill="#1E90A0" opacity="0.08"/>
  <path d="M 0 450 Q 250 420 500 450 T 1000 450 T 1200 450 L 1200 630 L 0 630 Z" fill="#4FD1C5" opacity="0.05"/>

  <!-- Caviar roe particles -->
  <circle cx="427.3467693775417" cy="361.9720126749182" r="2.811525337026962" fill="#CFAE58" opacity="0.2355330815302252"/>
  <circle cx="560.6440025268996" cy="120.36781362719609" r="3.064643866040106" fill="#CFAE58" opacity="0.1135394404514535"/>
  <circle cx="358.75927788761766" cy="299.75974137376124" r="4.4507945359101075" fill="#CFAE58" opacity="0.12956074788643202"/>
  <circle cx="787.2096113982568" cy="111.63948356518807" r="5.811617123637882" fill="#CFAE58" opacity="0.15950861092215435"/>
  <circle cx="513.2323237204673" cy="272.6455892995654" r="4.056131601573155" fill="#CFAE58" opacity="0.1656683733670169"/>
  <circle cx="572.1922212726521" cy="146.8565049495994" r="4.730306593707908" fill="#CFAE58" opacity="0.1288402493225494"/>
  <circle cx="931.4295313462018" cy="40.52149783275469" r="5.848868907549739" fill="#CFAE58" opacity="0.20876075698032762"/>
  <circle cx="1058.2922000643327" cy="329.54999751920514" r="2.282820921775119" fill="#CFAE58" opacity="0.13943252857321548"/>
  <circle cx="670.8805372707865" cy="509.07182410950026" r="5.177780409601908" fill="#CFAE58" opacity="0.13916297457750498"/>
  <circle cx="800.0956731483349" cy="100.77885673427372" r="3.230735206223229" fill="#CFAE58" opacity="0.12455521783841969"/>
  <circle cx="895.9608427845847" cy="409.8823457113998" r="5.427980308954359" fill="#CFAE58" opacity="0.140453652539989"/>
  <circle cx="194.25955514692873" cy="48.75240496044805" r="5.8374079748054815" fill="#CFAE58" opacity="0.1166082735680968"/>
  <circle cx="380.5400451267359" cy="509.59449540197255" r="2.2678554339258388" fill="#CFAE58" opacity="0.2391294038343475"/>
  <circle cx="930.4288712353051" cy="306.9852311377358" r="5.85643353321948" fill="#CFAE58" opacity="0.19636935913266962"/>
  <circle cx="1047.6983859445738" cy="393.66662874477754" r="2.204265261822466" fill="#CFAE58" opacity="0.18152871311806829"/>
  <circle cx="555.7368193118103" cy="154.70281374849026" r="3.926339244663897" fill="#CFAE58" opacity="0.140614259296668"/>
  <circle cx="69.40300809756445" cy="204.38128715354375" r="3.691945645102941" fill="#CFAE58" opacity="0.1587706391026629"/>
  <circle cx="1137.298819386813" cy="421.5046586460446" r="3.0614576827965005" fill="#CFAE58" opacity="0.2194573307964976"/>
  <circle cx="486.11740145144194" cy="607.2844199136513" r="5.025806577584413" fill="#CFAE58" opacity="0.17452920584369702"/>
  <circle cx="395.3191161652798" cy="565.074208898093" r="4.38589962101414" fill="#CFAE58" opacity="0.20643950909268965"/>
  <circle cx="1095.996775920505" cy="51.5204928688431" r="3.1182149549700555" fill="#CFAE58" opacity="0.15105924636764198"/>
  <circle cx="713.1141948982144" cy="467.8019616918495" r="2.1522661140800947" fill="#CFAE58" opacity="0.2063958109987575"/>
  <circle cx="794.2221283554796" cy="248.6407899986207" r="5.597301562067418" fill="#CFAE58" opacity="0.23208614082827853"/>
  <circle cx="323.8106144192288" cy="3.125562266578176" r="2.256850876156912" fill="#CFAE58" opacity="0.23389261889156635"/>
  <circle cx="955.8583612152757" cy="239.2085102601192" r="3.887819204559838" fill="#CFAE58" opacity="0.11407145870966087"/>
  <circle cx="1125.2469872283732" cy="24.45833637226394" r="4.503314185502083" fill="#CFAE58" opacity="0.23910086634285632"/>
  <circle cx="1014.9574141412979" cy="541.7831847392363" r="4.521762679837081" fill="#CFAE58" opacity="0.14227045551444317"/>
  <circle cx="525.1431367980271" cy="180.40977825300922" r="5.504064010532" fill="#CFAE58" opacity="0.16575762358516183"/>
  <circle cx="1064.8306060528635" cy="16.56390766226815" r="3.2987345281064337" fill="#CFAE58" opacity="0.20608014841663824"/>
  <circle cx="272.8946485382851" cy="12.11119105084592" r="3.341261109419721" fill="#CFAE58" opacity="0.22656883959954222"/>

  <!-- Border with glow -->
  <rect x="40" y="40" width="1120" height="550" fill="none" stroke="url(#goldGradient)" stroke-width="3" rx="12" filter="url(#softGlow)"/>

  <!-- Icon circle with premium background -->
  <circle cx="150" cy="200" r="75" fill="#CFAE58" opacity="0.15" filter="url(#softGlow)"/>
  <circle cx="150" cy="200" r="70" fill="#CFAE58" opacity="0.25"/>
  <text x="150" y="235" font-size="90" text-anchor="middle" fill="#CFAE58" filter="url(#glow)">🦀</text>

  <!-- Premium logo (crown) with enhanced styling -->
  <g transform="translate(100, 70)">
    <path d="M 30 20 L 40 35 L 35 35 Z M 50 15 L 60 35 L 45 35 Z M 65 20 L 75 35 L 70 35 Z M 30 35 L 75 35 L 73 45 L 32 45 Z"
          fill="url(#goldGradient)" filter="url(#glow)" stroke="#B89842" stroke-width="0.5"/>
    <circle cx="40" cy="25" r="3" fill="#4FD1C5" filter="url(#glow)"/>
    <circle cx="52" cy="20" r="4" fill="#4FD1C5" filter="url(#glow)"/>
    <circle cx="65" cy="25" r="3" fill="#4FD1C5" filter="url(#glow)"/>
  </g>

  <!-- Title with shadow -->
  <text x="280" y="180" font-family="Georgia, serif" font-size="72" font-weight="bold"
        fill="url(#goldGradient)" filter="url(#shadow)">Crabbing on Sakhalin</text>

  <!-- Subtitle with subtle glow -->
  <text x="280" y="230" font-family="Arial, sans-serif" font-size="36"
        fill="#D6DEE6" opacity="0.95" filter="url(#softGlow)">King Crab Fishing &amp; Tours</text>

  <!-- Brand name with letter spacing -->
  <text x="280" y="300" font-family="Georgia, serif" font-size="32" font-weight="bold"
        fill="#CFAE58" letter-spacing="4" filter="url(#glow)">ROYAL KETA</text>

  <!-- Russian tagline -->
  <text x="280" y="340" font-family="Arial, sans-serif" font-size="22" font-style="italic"
        fill="#8B95A1" opacity="0.8">От икринки к королевской</text>

  <!-- Location -->
  <text x="280" y="380" font-family="Arial, sans-serif" font-size="20"
        fill="#8B95A1" opacity="0.7">Невельский район, Сахалин</text>

  <!-- Website with glow -->
  <text x="100" y="570" font-family="Arial, sans-serif" font-size="30" font-weight="bold"
        fill="#4FD1C5" filter="url(#glow)">royalketa.com</text>

  <!-- Enhanced decorative salmon silhouette -->
  <g transform="translate(950, 480)" opacity="0.2" filter="url(#softGlow)">
    <ellipse cx="0" cy="0" rx="90" ry="35" fill="#CFAE58"/>
    <path d="M 90 0 L 120 -18 L 130 0 L 120 18 Z" fill="#CFAE58"/>
    <path d="M -25 -35 L 0 -45 L 25 -35 Z" fill="#CFAE58"/>
    <ellipse cx="-50" cy="0" rx="15" ry="12" fill="#0B0F14"/>
  </g>

  <!-- Additional decorative caviar clusters -->
  <g opacity="0.2">
    <circle cx="1050" cy="120" r="6" fill="#CFAE58"/>
    <circle cx="1065" cy="115" r="5" fill="#CFAE58"/>
    <circle cx="1058" cy="130" r="4" fill="#CFAE58"/>
    <circle cx="150" cy="500" r="5" fill="#4FD1C5"/>
    <circle cx="165" cy="508" r="4" fill="#4FD1C5"/>
    <circle cx="140" cy="512" r="5" fill="#4FD1C5"/>
  </g>
</svg>