<svg width="1200" height="630" xmlns="http://www.w3.org/2000/svg">
  <defs>
    <linearGradient id="bgGradient" x1="0%" y1="0%" x2="100%" y2="100%">
      <stop offset="0%" style="stop-color:#0B0F14;stop-opacity:1" />
      <stop offset="50%" style="stop-color:#0F1619;stop-opacity:1" />
      <stop offset="100%" style="stop-color:#0F1922;stop-opacity:1" />
    </linearGradient>
    <linearGradient id="goldGradient" x1="0%" y1="0%" x2="100%" y2="0%">
      <stop offset="0%" style="stop-color:#E5D596;stop-opacity:1" />
      <stop offset="50%" style="stop-color:#CFAE58;stop-opacity:1" />
      <stop offset="100%" style="stop-color:#B89842;stop-opacity:1" />
    </linearGradient>
    <radialGradient id="oceanGradient" cx="50%" cy="50%" r="50%">
      <stop offset="0%" style="stop-color:#4FD1C5;stop-opacity:0.3" />
      <stop offset="100%" style="stop-color:#1E90A0;stop-opacity:0.05" />
    </radialGradient>
    <filter id="glow">
      <feGaussianBlur stdDeviation="5" result="coloredBlur"/>
      <feMerge>
        <feMergeNode in="coloredBlur"/>
        <feMergeNode in="SourceGraphic"/>
      </feMerge>
    </filter>
    <filter id="softGlow">
      <feGaussianBlur stdDeviation="8" result="coloredBlur"/>
      <feMerge>
        <feMergeNode in="coloredBlur"/>
        <feMergeNode in="SourceGraphic"/>
      </feMerge>
    </filter>
    <filter id="shadow">
      <feDropShadow dx="0" dy="4" stdDeviation="8" flood-color="#000000" flood-opacity="0.5"/>
    </filter>
  </defs>

  <!-- Background -->
  <rect width="1200" height="630" fill="url(#bgGradient)"/>

  <!-- Decorative ocean gradients -->
  <ellipse cx="1000" cy="150" rx="300" ry="200" fill="url(#oceanGradient)" opacity="0.4"/>
  <ellipse cx="200" cy="530" rx="250" ry="180" fill="url(#oceanGradient)" opacity="0.3"/>

  <!-- Wave patterns -->
  <path d="M 0 400 Q 300 350 600 400 T 1200 400 L 1200 630 L 0 630 Z" fill="#1E90A0" opacity="0.08"/>
  <path d="M 0 450 Q 250 420 500 450 T 1000 450 T 1200 450 L 1200 630 L 0 630 Z" fill="#4FD1C5" opacity="0.05"/>

  <!-- Caviar roe particles -->
  <circle cx="860.1461878056525" cy="571.2192097653585" r="3.979301038771511" fill="#CFAE58" opacity="0.21820295520877656"/>
  <circle cx="603.633959489575" cy="410.16005041962546" r="2.8049655368805735" fill="#CFAE58" opacity="0.196943620245094"/>
  <circle cx="1078.5420571715688" cy="371.9202068302563" r="4.25824064331278" fill="#CFAE58" opacity="0.12219045402991126"/>
  <circle cx="65.40594883656735" cy="322.09236863978964" r="2.3973601283205035" fill="#CFAE58" opacity="0.1969866259515894"/>
  <circle cx="748.9749151051337" cy="593.0265914054389" r="3.557498478563003" fill="#CFAE58" opacity="0.23346647810829588"/>
  <circle cx="689.7540200121866" cy="498.1558238240487" r="2.6057560435549254" fill="#CFAE58" opacity="0.2225067002978644"/>
  <circle cx="602.5995921462627" cy="433.4987730369015" r="2.145999539549369" fill="#CFAE58" opacity="0.12144666820945767"/>
  <circle cx="474.12947913956475" cy="180.7548405713916" r="5.91533891625423" fill="#CFAE58" opacity="0.1052591990995371"/>
  <circle cx="744.8380599975383" cy="185.25372919064023" r="3.053721708836933" fill="#CFAE58" opacity="0.21607133994241218"/>
  <circle cx="808.0684891219595" cy="416.42413266049925" r="3.2021047058130354" fill="#CFAE58" opacity="0.18819087953454"/>
  <circle cx="478.4814361478694" cy="388.81935316676515" r="3.0644940134131846" fill="#CFAE58" opacity="0.11008571001547955"/>
  <circle cx="637.9245562504636" cy="541.4169347431385" r="3.863840169034611" fill="#CFAE58" opacity="0.19069804299004972"/>
  <circle cx="868.2298180075668" cy="295.3377611947076" r="5.3141441738761355" fill="#CFAE58" opacity="0.23521055505981628"/>
  <circle cx="663.4372826549956" cy="618.7715643324772" r="2.8022366868141146" fill="#CFAE58" opacity="0.18260673168783426"/>
  <circle cx="56.82774094906815" cy="469.6469739763758" r="3.4415211352244213" fill="#CFAE58" opacity="0.10943611766308525"/>
  <circle cx="32.74273275587105" cy="327.86581681737414" r="4.200068025004056" fill="#CFAE58" opacity="0.2252971385694547"/>
  <circle cx="581.6448418760615" cy="100.20588619547972" r="3.498219034173332" fill="#CFAE58" opacity="0.19657532858167925"/>
  <circle cx="747.425278423908" cy="401.81065157520254" r="2.8590040408022293" fill="#CFAE58" opacity="0.15353415265334192"/>
  <circle cx="387.76377390090477" cy="427.20777330235285" r="5.869391934051425" fill="#CFAE58" opacity="0.1995683542328155"/>
  <circle cx="771.2091893694752" cy="146.3972584123058" r="4.10835604570651" fill="#CFAE58" opacity="0.18361404299254874"/>
  <circle cx="985.4771880686592" cy="121.00270984488024" r="3.883527091913034" fill="#CFAE58" opacity="0.19361059375038026"/>
  <circle cx="851.39055116799" cy="297.57526792470384" r="3.1146509835685854" fill="#CFAE58" opacity="0.14754398641633126"/>
  <circle cx="1071.2669776649504" cy="146.70933245605008" r="5.458300117873917" fill="#CFAE58" opacity="0.2223115422623282"/>
  <circle cx="599.1091412372352" cy="280.6529086883883" r="5.130999933273988" fill="#CFAE58" opacity="0.1393006379820606"/>
  <circle cx="523.4328595110022" cy="298.4745385036706" r="2.8297811224596865" fill="#CFAE58" opacity="0.15076704809678992"/>
  <circle cx="637.0691144876881" cy="18.514396974898528" r="5.124627723505196" fill="#CFAE58" opacity="0.18702944514693007"/>
  <circle cx="14.24916377683405" cy="517.083213876759" r="2.8661803723730253" fill="#CFAE58" opacity="0.12991926976169332"/>
  <circle cx="509.57313673699684" cy="105.86338011057362" r="2.553327748265392" fill="#CFAE58" opacity="0.23916745003777942"/>
  <circle cx="1058.861329612427" cy="471.4921859373279" r="2.598948225625431" fill="#CFAE58" opacity="0.17124370711369613"/>
  <circle cx="570.02537009203" cy="386.6931756505322" r="3.5879337808278833" fill="#CFAE58" opacity="0.2470083715206276"/>

  <!-- Border with glow -->
  <rect x="40" y="40" width="1120" height="550" fill="none" stroke="url(#goldGradient)" stroke-width="3" rx="12" filter="url(#softGlow)"/>

  <!-- Icon circle with premium background -->
  <circle cx="150" cy="200" r="75" fill="#CFAE58" opacity="0.15" filter="url(#softGlow)"/>
  <circle cx="150" cy="200" r="70" fill="#CFAE58" opacity="0.25"/>
  <text x="150" y="235" font-size="90" text-anchor="middle" fill="#CFAE58" filter="url(#glow)">🦀</text>

  <!-- Premium logo (crown) with enhanced styling -->
  <g transform="translate(100, 70)">
    <path d="M 30 20 L 40 35 L 35 35 Z M 50 15 L 60 35 L 45 35 Z M 65 20 L 75 35 L 70 35 Z M 30 35 L 75 35 L 73 45 L 32 45 Z"
          fill="url(#goldGradient)" filter="url(#glow)" stroke="#B89842" stroke-width="0.5"/>
    <circle cx="40" cy="25" r="3" fill="#4FD1C5" filter="url(#glow)"/>
    <circle cx="52" cy="20" r="4" fill="#4FD1C5" filter="url(#glow)"/>
    <circle cx="65" cy="25" r="3" fill="#4FD1C5" filter="url(#glow)"/>
  </g>

  <!-- Title with shadow -->
  <text x="280" y="180" font-family="Georgia, serif" font-size="72" font-weight="bold"
        fill="url(#goldGradient)" filter="url(#shadow)">Crabbing on Sakhalin</text>

  <!-- Subtitle with subtle glow -->
  <text x="280" y="230" font-family="Arial, sans-serif" font-size="36"
        fill="#D6DEE6" opacity="0.95" filter="url(#softGlow)">King Crab Fishing &amp; Tours</text>

  <!-- Brand name with letter spacing -->
  <text x="280" y="300" font-family="Georgia, serif" font-size="32" font-weight="bold"
        fill="#CFAE58" letter-spacing="4" filter="url(#glow)">ROYAL KETA</text>

  <!-- Russian tagline -->
  <text x="280" y="340" font-family="Arial, sans-serif" font-size="22" font-style="italic"
        fill="#8B95A1" opacity="0.8">От икринки к королевской</text>

  <!-- Location -->
  <text x="280" y="380" font-family="Arial, sans-serif" font-size="20"
        fill="#8B95A1" opacity="0.7">Невельский район, Сахалин</text>

  <!-- Website with glow -->
  <text x="100" y="570" font-family="Arial, sans-serif" font-size="30" font-weight="bold"
        fill="#4FD1C5" filter="url(#glow)">royalketa.com</text>

  <!-- Enhanced decorative salmon silhouette -->
  <g transform="translate(950, 480)" opacity="0.2" filter="url(#softGlow)">
    <ellipse cx="0" cy="0" rx="90" ry="35" fill="#CFAE58"/>
    <path d="M 90 0 L 120 -18 L 130 0 L 120 18 Z" fill="#CFAE58"/>
    <path d="M -25 -35 L 0 -45 L 25 -35 Z" fill="#CFAE58"/>
    <ellipse cx="-50" cy="0" rx="15" ry="12" fill="#0B0F14"/>
  </g>

  <!-- Additional decorative caviar clusters -->
  <g opacity="0.2">
    <circle cx="1050" cy="120" r="6" fill="#CFAE58"/>
    <circle cx="1065" cy="115" r="5" fill="#CFAE58"/>
    <circle cx="1058" cy="130" r="4" fill="#CFAE58"/>
    <circle cx="150" cy="500" r="5" fill="#4FD1C5"/>
    <circle cx="165" cy="508" r="4" fill="#4FD1C5"/>
    <circle cx="140" cy="512" r="5" fill="#4FD1C5"/>
  </g>
</svg>