<svg width="1200" height="630" xmlns="http://www.w3.org/2000/svg">
  <defs>
    <linearGradient id="bgGradient" x1="0%" y1="0%" x2="100%" y2="100%">
      <stop offset="0%" style="stop-color:#0B0F14;stop-opacity:1" />
      <stop offset="50%" style="stop-color:#0F1619;stop-opacity:1" />
      <stop offset="100%" style="stop-color:#0F1922;stop-opacity:1" />
    </linearGradient>
    <linearGradient id="goldGradient" x1="0%" y1="0%" x2="100%" y2="0%">
      <stop offset="0%" style="stop-color:#E5D596;stop-opacity:1" />
      <stop offset="50%" style="stop-color:#CFAE58;stop-opacity:1" />
      <stop offset="100%" style="stop-color:#B89842;stop-opacity:1" />
    </linearGradient>
    <radialGradient id="oceanGradient" cx="50%" cy="50%" r="50%">
      <stop offset="0%" style="stop-color:#4FD1C5;stop-opacity:0.3" />
      <stop offset="100%" style="stop-color:#1E90A0;stop-opacity:0.05" />
    </radialGradient>
    <filter id="glow">
      <feGaussianBlur stdDeviation="5" result="coloredBlur"/>
      <feMerge>
        <feMergeNode in="coloredBlur"/>
        <feMergeNode in="SourceGraphic"/>
      </feMerge>
    </filter>
    <filter id="softGlow">
      <feGaussianBlur stdDeviation="8" result="coloredBlur"/>
      <feMerge>
        <feMergeNode in="coloredBlur"/>
        <feMergeNode in="SourceGraphic"/>
      </feMerge>
    </filter>
    <filter id="shadow">
      <feDropShadow dx="0" dy="4" stdDeviation="8" flood-color="#000000" flood-opacity="0.5"/>
    </filter>
  </defs>

  <!-- Background -->
  <rect width="1200" height="630" fill="url(#bgGradient)"/>

  <!-- Decorative ocean gradients -->
  <ellipse cx="1000" cy="150" rx="300" ry="200" fill="url(#oceanGradient)" opacity="0.4"/>
  <ellipse cx="200" cy="530" rx="250" ry="180" fill="url(#oceanGradient)" opacity="0.3"/>

  <!-- Wave patterns -->
  <path d="M 0 400 Q 300 350 600 400 T 1200 400 L 1200 630 L 0 630 Z" fill="#1E90A0" opacity="0.08"/>
  <path d="M 0 450 Q 250 420 500 450 T 1000 450 T 1200 450 L 1200 630 L 0 630 Z" fill="#4FD1C5" opacity="0.05"/>

  <!-- Caviar roe particles -->
  <circle cx="357.3935910959273" cy="348.7669462599999" r="3.2289173884791964" fill="#CFAE58" opacity="0.1348889762943128"/>
  <circle cx="266.14155355083744" cy="462.1065585790963" r="4.389252714652356" fill="#CFAE58" opacity="0.10949906467688553"/>
  <circle cx="1051.143895581955" cy="298.3804509255666" r="3.7963103874912614" fill="#CFAE58" opacity="0.15603192442171926"/>
  <circle cx="836.0686714057377" cy="337.84683916866544" r="2.655196702067612" fill="#CFAE58" opacity="0.15365419354409574"/>
  <circle cx="255.4767994191744" cy="233.8235489392871" r="4.417269206077317" fill="#CFAE58" opacity="0.12752511356773652"/>
  <circle cx="933.3445716537907" cy="397.6180670656386" r="2.4945261351026007" fill="#CFAE58" opacity="0.19777497823239965"/>
  <circle cx="813.42159490852" cy="13.852315766216954" r="3.888771446004327" fill="#CFAE58" opacity="0.20913300116123268"/>
  <circle cx="180.22225768869413" cy="484.2737435072248" r="2.3000592916366696" fill="#CFAE58" opacity="0.20896335416755296"/>
  <circle cx="425.90188091549146" cy="294.59186621695386" r="5.969866669713149" fill="#CFAE58" opacity="0.14910984969231203"/>
  <circle cx="709.5531791159024" cy="475.21177932466173" r="3.5825263020614964" fill="#CFAE58" opacity="0.20576568959475006"/>
  <circle cx="564.8475676423526" cy="319.4550975250139" r="4.356590478894545" fill="#CFAE58" opacity="0.19195318007512485"/>
  <circle cx="769.771196345394" cy="625.0365764065258" r="3.8093810863839037" fill="#CFAE58" opacity="0.1459160343101857"/>
  <circle cx="696.7796317517043" cy="461.0490989991107" r="4.7059929423507825" fill="#CFAE58" opacity="0.1730328932513629"/>
  <circle cx="444.78486445413006" cy="170.181654024655" r="2.4691486465934576" fill="#CFAE58" opacity="0.13726551044168175"/>
  <circle cx="481.5838734472652" cy="225.14709303025364" r="5.922421348812803" fill="#CFAE58" opacity="0.15902998033866994"/>
  <circle cx="267.33336226722486" cy="413.431264866374" r="5.24169794015402" fill="#CFAE58" opacity="0.10279562037703298"/>
  <circle cx="1150.856100515152" cy="461.0394790564504" r="5.090303203239464" fill="#CFAE58" opacity="0.10964753806387591"/>
  <circle cx="959.7842358678047" cy="457.39043826771774" r="3.9054212811127584" fill="#CFAE58" opacity="0.12308478778899826"/>
  <circle cx="348.1295701999675" cy="571.8524299288424" r="4.113998482587486" fill="#CFAE58" opacity="0.17198814901878529"/>
  <circle cx="902.9424532587778" cy="473.8591542907729" r="5.5182704348592155" fill="#CFAE58" opacity="0.1407871077926896"/>
  <circle cx="781.1910163968541" cy="222.4147911258592" r="2.7593311301835852" fill="#CFAE58" opacity="0.2046130331544832"/>
  <circle cx="1125.2265137362874" cy="93.89762254356961" r="2.529193863198283" fill="#CFAE58" opacity="0.21884840967878028"/>
  <circle cx="6.674897523266132" cy="307.7801370051025" r="3.7059974993122955" fill="#CFAE58" opacity="0.24792227011380125"/>
  <circle cx="899.0199826099841" cy="396.5279337998129" r="2.0137105547632634" fill="#CFAE58" opacity="0.1801038890234586"/>
  <circle cx="514.8588032531079" cy="68.19954122698499" r="5.845964193839791" fill="#CFAE58" opacity="0.22168590665655502"/>
  <circle cx="687.7659800579597" cy="206.4815827358551" r="5.333477534424442" fill="#CFAE58" opacity="0.12491231571466202"/>
  <circle cx="502.76128923842435" cy="136.31852023890323" r="2.600551356173531" fill="#CFAE58" opacity="0.12271284254618334"/>
  <circle cx="1090.835796353682" cy="251.23159222514232" r="3.2118147670863175" fill="#CFAE58" opacity="0.20991119556478796"/>
  <circle cx="361.8054959232007" cy="296.5444374118155" r="2.439029294461447" fill="#CFAE58" opacity="0.23819594787881906"/>
  <circle cx="784.6121284911151" cy="304.00059890249923" r="4.6131527346445385" fill="#CFAE58" opacity="0.20846383685606623"/>

  <!-- Border with glow -->
  <rect x="40" y="40" width="1120" height="550" fill="none" stroke="url(#goldGradient)" stroke-width="3" rx="12" filter="url(#softGlow)"/>

  <!-- Icon circle with premium background -->
  <circle cx="150" cy="200" r="75" fill="#CFAE58" opacity="0.15" filter="url(#softGlow)"/>
  <circle cx="150" cy="200" r="70" fill="#CFAE58" opacity="0.25"/>
  <text x="150" y="235" font-size="90" text-anchor="middle" fill="#CFAE58" filter="url(#glow)">🦀</text>

  <!-- Premium logo (crown) with enhanced styling -->
  <g transform="translate(100, 70)">
    <path d="M 30 20 L 40 35 L 35 35 Z M 50 15 L 60 35 L 45 35 Z M 65 20 L 75 35 L 70 35 Z M 30 35 L 75 35 L 73 45 L 32 45 Z"
          fill="url(#goldGradient)" filter="url(#glow)" stroke="#B89842" stroke-width="0.5"/>
    <circle cx="40" cy="25" r="3" fill="#4FD1C5" filter="url(#glow)"/>
    <circle cx="52" cy="20" r="4" fill="#4FD1C5" filter="url(#glow)"/>
    <circle cx="65" cy="25" r="3" fill="#4FD1C5" filter="url(#glow)"/>
  </g>

  <!-- Title with shadow -->
  <text x="280" y="180" font-family="Georgia, serif" font-size="72" font-weight="bold"
        fill="url(#goldGradient)" filter="url(#shadow)">Crabbing on Sakhalin</text>

  <!-- Subtitle with subtle glow -->
  <text x="280" y="230" font-family="Arial, sans-serif" font-size="36"
        fill="#D6DEE6" opacity="0.95" filter="url(#softGlow)">King Crab Fishing &amp; Tours</text>

  <!-- Brand name with letter spacing -->
  <text x="280" y="300" font-family="Georgia, serif" font-size="32" font-weight="bold"
        fill="#CFAE58" letter-spacing="4" filter="url(#glow)">ROYAL KETA</text>

  <!-- Russian tagline -->
  <text x="280" y="340" font-family="Arial, sans-serif" font-size="22" font-style="italic"
        fill="#8B95A1" opacity="0.8">От икринки к королевской</text>

  <!-- Location -->
  <text x="280" y="380" font-family="Arial, sans-serif" font-size="20"
        fill="#8B95A1" opacity="0.7">Невельский район, Сахалин</text>

  <!-- Website with glow -->
  <text x="100" y="570" font-family="Arial, sans-serif" font-size="30" font-weight="bold"
        fill="#4FD1C5" filter="url(#glow)">royalketa.com</text>

  <!-- Enhanced decorative salmon silhouette -->
  <g transform="translate(950, 480)" opacity="0.2" filter="url(#softGlow)">
    <ellipse cx="0" cy="0" rx="90" ry="35" fill="#CFAE58"/>
    <path d="M 90 0 L 120 -18 L 130 0 L 120 18 Z" fill="#CFAE58"/>
    <path d="M -25 -35 L 0 -45 L 25 -35 Z" fill="#CFAE58"/>
    <ellipse cx="-50" cy="0" rx="15" ry="12" fill="#0B0F14"/>
  </g>

  <!-- Additional decorative caviar clusters -->
  <g opacity="0.2">
    <circle cx="1050" cy="120" r="6" fill="#CFAE58"/>
    <circle cx="1065" cy="115" r="5" fill="#CFAE58"/>
    <circle cx="1058" cy="130" r="4" fill="#CFAE58"/>
    <circle cx="150" cy="500" r="5" fill="#4FD1C5"/>
    <circle cx="165" cy="508" r="4" fill="#4FD1C5"/>
    <circle cx="140" cy="512" r="5" fill="#4FD1C5"/>
  </g>
</svg>