<svg width="1200" height="630" xmlns="http://www.w3.org/2000/svg">
  <defs>
    <linearGradient id="bgGradient" x1="0%" y1="0%" x2="100%" y2="100%">
      <stop offset="0%" style="stop-color:#0B0F14;stop-opacity:1" />
      <stop offset="50%" style="stop-color:#0F1619;stop-opacity:1" />
      <stop offset="100%" style="stop-color:#0F1922;stop-opacity:1" />
    </linearGradient>
    <linearGradient id="goldGradient" x1="0%" y1="0%" x2="100%" y2="0%">
      <stop offset="0%" style="stop-color:#E5D596;stop-opacity:1" />
      <stop offset="50%" style="stop-color:#CFAE58;stop-opacity:1" />
      <stop offset="100%" style="stop-color:#B89842;stop-opacity:1" />
    </linearGradient>
    <radialGradient id="oceanGradient" cx="50%" cy="50%" r="50%">
      <stop offset="0%" style="stop-color:#4FD1C5;stop-opacity:0.3" />
      <stop offset="100%" style="stop-color:#1E90A0;stop-opacity:0.05" />
    </radialGradient>
    <filter id="glow">
      <feGaussianBlur stdDeviation="5" result="coloredBlur"/>
      <feMerge>
        <feMergeNode in="coloredBlur"/>
        <feMergeNode in="SourceGraphic"/>
      </feMerge>
    </filter>
    <filter id="softGlow">
      <feGaussianBlur stdDeviation="8" result="coloredBlur"/>
      <feMerge>
        <feMergeNode in="coloredBlur"/>
        <feMergeNode in="SourceGraphic"/>
      </feMerge>
    </filter>
    <filter id="shadow">
      <feDropShadow dx="0" dy="4" stdDeviation="8" flood-color="#000000" flood-opacity="0.5"/>
    </filter>
  </defs>

  <!-- Background -->
  <rect width="1200" height="630" fill="url(#bgGradient)"/>

  <!-- Decorative ocean gradients -->
  <ellipse cx="1000" cy="150" rx="300" ry="200" fill="url(#oceanGradient)" opacity="0.4"/>
  <ellipse cx="200" cy="530" rx="250" ry="180" fill="url(#oceanGradient)" opacity="0.3"/>

  <!-- Wave patterns -->
  <path d="M 0 400 Q 300 350 600 400 T 1200 400 L 1200 630 L 0 630 Z" fill="#1E90A0" opacity="0.08"/>
  <path d="M 0 450 Q 250 420 500 450 T 1000 450 T 1200 450 L 1200 630 L 0 630 Z" fill="#4FD1C5" opacity="0.05"/>

  <!-- Caviar roe particles -->
  <circle cx="807.3818641019192" cy="589.1491529676015" r="5.232336784749901" fill="#CFAE58" opacity="0.20158898026059008"/>
  <circle cx="357.9009800547026" cy="469.95467612323114" r="5.7784442966759455" fill="#CFAE58" opacity="0.21475324423446626"/>
  <circle cx="1078.5302393755514" cy="84.11400191970412" r="3.4055679399711645" fill="#CFAE58" opacity="0.1834295742493841"/>
  <circle cx="488.5864375210268" cy="338.05172004758094" r="4.074469755656991" fill="#CFAE58" opacity="0.2404988446959719"/>
  <circle cx="17.62353077944887" cy="279.3221602080045" r="3.477140986910869" fill="#CFAE58" opacity="0.19130485725025564"/>
  <circle cx="1000.2150626294645" cy="405.762234527827" r="3.0236755311732813" fill="#CFAE58" opacity="0.2450783623603547"/>
  <circle cx="948.9035348162491" cy="236.39707699453504" r="2.9286988099201006" fill="#CFAE58" opacity="0.10341590708397057"/>
  <circle cx="781.2354460760042" cy="421.84154986344123" r="4.528405986860966" fill="#CFAE58" opacity="0.17936222947612046"/>
  <circle cx="1.6222217878248735" cy="48.41520375017638" r="5.186938688175052" fill="#CFAE58" opacity="0.2419069200580077"/>
  <circle cx="576.139106143413" cy="261.89028953289" r="2.5882330930783564" fill="#CFAE58" opacity="0.17637073045563895"/>
  <circle cx="882.2027458075939" cy="605.5070888883696" r="4.224686511511764" fill="#CFAE58" opacity="0.23199530717632066"/>
  <circle cx="904.7851581857709" cy="162.30001335603384" r="4.523156705407976" fill="#CFAE58" opacity="0.2450807945154801"/>
  <circle cx="286.0102302681009" cy="161.5516355810548" r="5.251320206932145" fill="#CFAE58" opacity="0.17744261773358672"/>
  <circle cx="570.2671305768354" cy="378.21753938039035" r="4.1725837794649125" fill="#CFAE58" opacity="0.1385159908096182"/>
  <circle cx="900.5952417281989" cy="93.14016392778122" r="2.6676630065993603" fill="#CFAE58" opacity="0.14526685938274672"/>
  <circle cx="236.7445469719514" cy="350.9144525448909" r="5.525443728503315" fill="#CFAE58" opacity="0.2124435451492211"/>
  <circle cx="693.5416894220526" cy="196.76260183560098" r="5.379351623879849" fill="#CFAE58" opacity="0.11066082456450221"/>
  <circle cx="581.6692417720785" cy="219.77657513182726" r="3.3741790999930386" fill="#CFAE58" opacity="0.10878579022307991"/>
  <circle cx="42.76618663787488" cy="493.447018904292" r="2.6382622295474807" fill="#CFAE58" opacity="0.14360362884050404"/>
  <circle cx="994.9372837038308" cy="382.9485528537308" r="2.086555619423513" fill="#CFAE58" opacity="0.17334133781770156"/>
  <circle cx="569.5414072639587" cy="285.43942018624256" r="2.897535419188036" fill="#CFAE58" opacity="0.14430027611714893"/>
  <circle cx="1037.7008465344688" cy="301.8806018295392" r="4.938899092127408" fill="#CFAE58" opacity="0.22208821933325357"/>
  <circle cx="477.39258347707585" cy="134.8625377509714" r="4.62020347386992" fill="#CFAE58" opacity="0.17106782627834213"/>
  <circle cx="421.63589394031914" cy="25.497842497400374" r="3.400566119790386" fill="#CFAE58" opacity="0.2068873506214271"/>
  <circle cx="1070.1800887631691" cy="159.05664152701527" r="4.907844124287078" fill="#CFAE58" opacity="0.17834163003366493"/>
  <circle cx="266.8995421475974" cy="180.8786023910459" r="4.925846954448236" fill="#CFAE58" opacity="0.16256916995366574"/>
  <circle cx="627.0632452216954" cy="209.52878249215914" r="3.8586624378106125" fill="#CFAE58" opacity="0.1501590870990463"/>
  <circle cx="502.6269840063028" cy="290.68444478733767" r="2.130462686511141" fill="#CFAE58" opacity="0.1659408400865191"/>
  <circle cx="326.3122901144205" cy="43.73121864921581" r="5.787731003381319" fill="#CFAE58" opacity="0.14545515800624537"/>
  <circle cx="401.14530310868435" cy="143.27962448831792" r="5.076167902825577" fill="#CFAE58" opacity="0.2163240114493179"/>

  <!-- Border with glow -->
  <rect x="40" y="40" width="1120" height="550" fill="none" stroke="url(#goldGradient)" stroke-width="3" rx="12" filter="url(#softGlow)"/>

  <!-- Icon circle with premium background -->
  <circle cx="150" cy="200" r="75" fill="#CFAE58" opacity="0.15" filter="url(#softGlow)"/>
  <circle cx="150" cy="200" r="70" fill="#CFAE58" opacity="0.25"/>
  <text x="150" y="235" font-size="90" text-anchor="middle" fill="#CFAE58" filter="url(#glow)">🦀</text>

  <!-- Premium logo (crown) with enhanced styling -->
  <g transform="translate(100, 70)">
    <path d="M 30 20 L 40 35 L 35 35 Z M 50 15 L 60 35 L 45 35 Z M 65 20 L 75 35 L 70 35 Z M 30 35 L 75 35 L 73 45 L 32 45 Z"
          fill="url(#goldGradient)" filter="url(#glow)" stroke="#B89842" stroke-width="0.5"/>
    <circle cx="40" cy="25" r="3" fill="#4FD1C5" filter="url(#glow)"/>
    <circle cx="52" cy="20" r="4" fill="#4FD1C5" filter="url(#glow)"/>
    <circle cx="65" cy="25" r="3" fill="#4FD1C5" filter="url(#glow)"/>
  </g>

  <!-- Title with shadow -->
  <text x="280" y="180" font-family="Georgia, serif" font-size="72" font-weight="bold"
        fill="url(#goldGradient)" filter="url(#shadow)">Crabbing on Sakhalin</text>

  <!-- Subtitle with subtle glow -->
  <text x="280" y="230" font-family="Arial, sans-serif" font-size="36"
        fill="#D6DEE6" opacity="0.95" filter="url(#softGlow)">King Crab Fishing &amp; Tours</text>

  <!-- Brand name with letter spacing -->
  <text x="280" y="300" font-family="Georgia, serif" font-size="32" font-weight="bold"
        fill="#CFAE58" letter-spacing="4" filter="url(#glow)">ROYAL KETA</text>

  <!-- Russian tagline -->
  <text x="280" y="340" font-family="Arial, sans-serif" font-size="22" font-style="italic"
        fill="#8B95A1" opacity="0.8">От икринки к королевской</text>

  <!-- Location -->
  <text x="280" y="380" font-family="Arial, sans-serif" font-size="20"
        fill="#8B95A1" opacity="0.7">Невельский район, Сахалин</text>

  <!-- Website with glow -->
  <text x="100" y="570" font-family="Arial, sans-serif" font-size="30" font-weight="bold"
        fill="#4FD1C5" filter="url(#glow)">royalketa.com</text>

  <!-- Enhanced decorative salmon silhouette -->
  <g transform="translate(950, 480)" opacity="0.2" filter="url(#softGlow)">
    <ellipse cx="0" cy="0" rx="90" ry="35" fill="#CFAE58"/>
    <path d="M 90 0 L 120 -18 L 130 0 L 120 18 Z" fill="#CFAE58"/>
    <path d="M -25 -35 L 0 -45 L 25 -35 Z" fill="#CFAE58"/>
    <ellipse cx="-50" cy="0" rx="15" ry="12" fill="#0B0F14"/>
  </g>

  <!-- Additional decorative caviar clusters -->
  <g opacity="0.2">
    <circle cx="1050" cy="120" r="6" fill="#CFAE58"/>
    <circle cx="1065" cy="115" r="5" fill="#CFAE58"/>
    <circle cx="1058" cy="130" r="4" fill="#CFAE58"/>
    <circle cx="150" cy="500" r="5" fill="#4FD1C5"/>
    <circle cx="165" cy="508" r="4" fill="#4FD1C5"/>
    <circle cx="140" cy="512" r="5" fill="#4FD1C5"/>
  </g>
</svg>