<svg width="1200" height="630" xmlns="http://www.w3.org/2000/svg">
  <defs>
    <linearGradient id="bgGradient" x1="0%" y1="0%" x2="100%" y2="100%">
      <stop offset="0%" style="stop-color:#0B0F14;stop-opacity:1" />
      <stop offset="50%" style="stop-color:#0F1619;stop-opacity:1" />
      <stop offset="100%" style="stop-color:#0F1922;stop-opacity:1" />
    </linearGradient>
    <linearGradient id="goldGradient" x1="0%" y1="0%" x2="100%" y2="0%">
      <stop offset="0%" style="stop-color:#E5D596;stop-opacity:1" />
      <stop offset="50%" style="stop-color:#CFAE58;stop-opacity:1" />
      <stop offset="100%" style="stop-color:#B89842;stop-opacity:1" />
    </linearGradient>
    <radialGradient id="oceanGradient" cx="50%" cy="50%" r="50%">
      <stop offset="0%" style="stop-color:#4FD1C5;stop-opacity:0.3" />
      <stop offset="100%" style="stop-color:#1E90A0;stop-opacity:0.05" />
    </radialGradient>
    <filter id="glow">
      <feGaussianBlur stdDeviation="5" result="coloredBlur"/>
      <feMerge>
        <feMergeNode in="coloredBlur"/>
        <feMergeNode in="SourceGraphic"/>
      </feMerge>
    </filter>
    <filter id="softGlow">
      <feGaussianBlur stdDeviation="8" result="coloredBlur"/>
      <feMerge>
        <feMergeNode in="coloredBlur"/>
        <feMergeNode in="SourceGraphic"/>
      </feMerge>
    </filter>
    <filter id="shadow">
      <feDropShadow dx="0" dy="4" stdDeviation="8" flood-color="#000000" flood-opacity="0.5"/>
    </filter>
  </defs>

  <!-- Background -->
  <rect width="1200" height="630" fill="url(#bgGradient)"/>

  <!-- Decorative ocean gradients -->
  <ellipse cx="1000" cy="150" rx="300" ry="200" fill="url(#oceanGradient)" opacity="0.4"/>
  <ellipse cx="200" cy="530" rx="250" ry="180" fill="url(#oceanGradient)" opacity="0.3"/>

  <!-- Wave patterns -->
  <path d="M 0 400 Q 300 350 600 400 T 1200 400 L 1200 630 L 0 630 Z" fill="#1E90A0" opacity="0.08"/>
  <path d="M 0 450 Q 250 420 500 450 T 1000 450 T 1200 450 L 1200 630 L 0 630 Z" fill="#4FD1C5" opacity="0.05"/>

  <!-- Caviar roe particles -->
  <circle cx="315.1008347378277" cy="184.3012839451229" r="4.399858743505163" fill="#CFAE58" opacity="0.23201448672256375"/>
  <circle cx="196.74515489377615" cy="345.8317336824212" r="3.9853629366251937" fill="#CFAE58" opacity="0.23881792646063163"/>
  <circle cx="591.5263551065002" cy="21.27640011288608" r="5.010646205818568" fill="#CFAE58" opacity="0.13538731255822348"/>
  <circle cx="947.1142121298315" cy="200.62503496157555" r="4.548464403613664" fill="#CFAE58" opacity="0.23093859874086603"/>
  <circle cx="552.7201705702471" cy="108.14197403612113" r="4.313209433252936" fill="#CFAE58" opacity="0.24473103794618098"/>
  <circle cx="1186.920206760864" cy="510.99584057293094" r="4.6252429980287095" fill="#CFAE58" opacity="0.1743671256092712"/>
  <circle cx="355.70334626855237" cy="243.2851166875246" r="5.5963911098852055" fill="#CFAE58" opacity="0.20668599364953594"/>
  <circle cx="118.52120688507748" cy="524.299510845199" r="5.222356800920307" fill="#CFAE58" opacity="0.22446921127977232"/>
  <circle cx="401.8367260342196" cy="358.3289671114219" r="2.688971475192754" fill="#CFAE58" opacity="0.1861741217714823"/>
  <circle cx="1072.747901722584" cy="339.2405492363913" r="4.690876366953046" fill="#CFAE58" opacity="0.17205701538464038"/>
  <circle cx="790.6381501543553" cy="47.02873612138042" r="3.583320079153401" fill="#CFAE58" opacity="0.10106225253068436"/>
  <circle cx="27.134854327998248" cy="258.259455921202" r="4.751869613588074" fill="#CFAE58" opacity="0.20723474211467935"/>
  <circle cx="1126.8876981793865" cy="583.8151144117132" r="2.3572921967233986" fill="#CFAE58" opacity="0.23648404611980556"/>
  <circle cx="979.4064306274603" cy="319.45599762104985" r="2.1632596762928853" fill="#CFAE58" opacity="0.12087902408945363"/>
  <circle cx="822.5603379297356" cy="188.1120972779286" r="2.2599916228313925" fill="#CFAE58" opacity="0.20214236284410836"/>
  <circle cx="512.7995719658965" cy="585.6173723999016" r="4.5214529667107906" fill="#CFAE58" opacity="0.23065727779174586"/>
  <circle cx="1043.931574238102" cy="356.2139113840929" r="3.3236713907458992" fill="#CFAE58" opacity="0.15689808687248605"/>
  <circle cx="175.8277506656631" cy="249.96225611272106" r="4.663989026900186" fill="#CFAE58" opacity="0.168040038362568"/>
  <circle cx="1035.2633014670987" cy="278.1097335729918" r="5.455053062691821" fill="#CFAE58" opacity="0.1921933208562262"/>
  <circle cx="440.2453588156054" cy="185.06670158491673" r="4.2016432774204695" fill="#CFAE58" opacity="0.229883058729706"/>
  <circle cx="670.0928984530109" cy="226.14692586587103" r="2.897888147094446" fill="#CFAE58" opacity="0.16058457535419407"/>
  <circle cx="632.8905841845663" cy="577.7869422720133" r="4.029425584121174" fill="#CFAE58" opacity="0.15731176214029974"/>
  <circle cx="316.6104754345541" cy="47.86843313193728" r="4.196492128858747" fill="#CFAE58" opacity="0.23709895839744657"/>
  <circle cx="1145.2143526576062" cy="119.88404879164382" r="3.412760076257149" fill="#CFAE58" opacity="0.19645085583335364"/>
  <circle cx="1164.880660803851" cy="535.847099885633" r="5.22143217749773" fill="#CFAE58" opacity="0.14327283564248272"/>
  <circle cx="264.7116777690026" cy="486.23385351799146" r="5.5004187187496685" fill="#CFAE58" opacity="0.1243169435350002"/>
  <circle cx="694.8594364825003" cy="122.23019643785818" r="2.450526105724913" fill="#CFAE58" opacity="0.11514241467202113"/>
  <circle cx="1184.4068491922976" cy="198.16515301118966" r="4.13548524027143" fill="#CFAE58" opacity="0.1592113328952796"/>
  <circle cx="440.7329609462062" cy="3.1265823215727573" r="2.703834746581047" fill="#CFAE58" opacity="0.12574593478878457"/>
  <circle cx="54.16789806946141" cy="33.156955339668" r="5.065632229235767" fill="#CFAE58" opacity="0.1583121478656467"/>

  <!-- Border with glow -->
  <rect x="40" y="40" width="1120" height="550" fill="none" stroke="url(#goldGradient)" stroke-width="3" rx="12" filter="url(#softGlow)"/>

  <!-- Icon circle with premium background -->
  <circle cx="150" cy="200" r="75" fill="#CFAE58" opacity="0.15" filter="url(#softGlow)"/>
  <circle cx="150" cy="200" r="70" fill="#CFAE58" opacity="0.25"/>
  <text x="150" y="235" font-size="90" text-anchor="middle" fill="#CFAE58" filter="url(#glow)">🦀</text>

  <!-- Premium logo (crown) with enhanced styling -->
  <g transform="translate(100, 70)">
    <path d="M 30 20 L 40 35 L 35 35 Z M 50 15 L 60 35 L 45 35 Z M 65 20 L 75 35 L 70 35 Z M 30 35 L 75 35 L 73 45 L 32 45 Z"
          fill="url(#goldGradient)" filter="url(#glow)" stroke="#B89842" stroke-width="0.5"/>
    <circle cx="40" cy="25" r="3" fill="#4FD1C5" filter="url(#glow)"/>
    <circle cx="52" cy="20" r="4" fill="#4FD1C5" filter="url(#glow)"/>
    <circle cx="65" cy="25" r="3" fill="#4FD1C5" filter="url(#glow)"/>
  </g>

  <!-- Title with shadow -->
  <text x="280" y="180" font-family="Georgia, serif" font-size="72" font-weight="bold"
        fill="url(#goldGradient)" filter="url(#shadow)">Crabbing on Sakhalin</text>

  <!-- Subtitle with subtle glow -->
  <text x="280" y="230" font-family="Arial, sans-serif" font-size="36"
        fill="#D6DEE6" opacity="0.95" filter="url(#softGlow)">King Crab Fishing &amp; Tours</text>

  <!-- Brand name with letter spacing -->
  <text x="280" y="300" font-family="Georgia, serif" font-size="32" font-weight="bold"
        fill="#CFAE58" letter-spacing="4" filter="url(#glow)">ROYAL KETA</text>

  <!-- Russian tagline -->
  <text x="280" y="340" font-family="Arial, sans-serif" font-size="22" font-style="italic"
        fill="#8B95A1" opacity="0.8">От икринки к королевской</text>

  <!-- Location -->
  <text x="280" y="380" font-family="Arial, sans-serif" font-size="20"
        fill="#8B95A1" opacity="0.7">Невельский район, Сахалин</text>

  <!-- Website with glow -->
  <text x="100" y="570" font-family="Arial, sans-serif" font-size="30" font-weight="bold"
        fill="#4FD1C5" filter="url(#glow)">royalketa.com</text>

  <!-- Enhanced decorative salmon silhouette -->
  <g transform="translate(950, 480)" opacity="0.2" filter="url(#softGlow)">
    <ellipse cx="0" cy="0" rx="90" ry="35" fill="#CFAE58"/>
    <path d="M 90 0 L 120 -18 L 130 0 L 120 18 Z" fill="#CFAE58"/>
    <path d="M -25 -35 L 0 -45 L 25 -35 Z" fill="#CFAE58"/>
    <ellipse cx="-50" cy="0" rx="15" ry="12" fill="#0B0F14"/>
  </g>

  <!-- Additional decorative caviar clusters -->
  <g opacity="0.2">
    <circle cx="1050" cy="120" r="6" fill="#CFAE58"/>
    <circle cx="1065" cy="115" r="5" fill="#CFAE58"/>
    <circle cx="1058" cy="130" r="4" fill="#CFAE58"/>
    <circle cx="150" cy="500" r="5" fill="#4FD1C5"/>
    <circle cx="165" cy="508" r="4" fill="#4FD1C5"/>
    <circle cx="140" cy="512" r="5" fill="#4FD1C5"/>
  </g>
</svg>