<svg width="1200" height="630" xmlns="http://www.w3.org/2000/svg">
  <defs>
    <linearGradient id="bgGradient" x1="0%" y1="0%" x2="100%" y2="100%">
      <stop offset="0%" style="stop-color:#0B0F14;stop-opacity:1" />
      <stop offset="50%" style="stop-color:#0F1619;stop-opacity:1" />
      <stop offset="100%" style="stop-color:#0F1922;stop-opacity:1" />
    </linearGradient>
    <linearGradient id="goldGradient" x1="0%" y1="0%" x2="100%" y2="0%">
      <stop offset="0%" style="stop-color:#E5D596;stop-opacity:1" />
      <stop offset="50%" style="stop-color:#CFAE58;stop-opacity:1" />
      <stop offset="100%" style="stop-color:#B89842;stop-opacity:1" />
    </linearGradient>
    <radialGradient id="oceanGradient" cx="50%" cy="50%" r="50%">
      <stop offset="0%" style="stop-color:#4FD1C5;stop-opacity:0.3" />
      <stop offset="100%" style="stop-color:#1E90A0;stop-opacity:0.05" />
    </radialGradient>
    <filter id="glow">
      <feGaussianBlur stdDeviation="5" result="coloredBlur"/>
      <feMerge>
        <feMergeNode in="coloredBlur"/>
        <feMergeNode in="SourceGraphic"/>
      </feMerge>
    </filter>
    <filter id="softGlow">
      <feGaussianBlur stdDeviation="8" result="coloredBlur"/>
      <feMerge>
        <feMergeNode in="coloredBlur"/>
        <feMergeNode in="SourceGraphic"/>
      </feMerge>
    </filter>
    <filter id="shadow">
      <feDropShadow dx="0" dy="4" stdDeviation="8" flood-color="#000000" flood-opacity="0.5"/>
    </filter>
  </defs>

  <!-- Background -->
  <rect width="1200" height="630" fill="url(#bgGradient)"/>

  <!-- Decorative ocean gradients -->
  <ellipse cx="1000" cy="150" rx="300" ry="200" fill="url(#oceanGradient)" opacity="0.4"/>
  <ellipse cx="200" cy="530" rx="250" ry="180" fill="url(#oceanGradient)" opacity="0.3"/>

  <!-- Wave patterns -->
  <path d="M 0 400 Q 300 350 600 400 T 1200 400 L 1200 630 L 0 630 Z" fill="#1E90A0" opacity="0.08"/>
  <path d="M 0 450 Q 250 420 500 450 T 1000 450 T 1200 450 L 1200 630 L 0 630 Z" fill="#4FD1C5" opacity="0.05"/>

  <!-- Caviar roe particles -->
  <circle cx="669.9777036983617" cy="528.4207123563094" r="5.310752175223872" fill="#CFAE58" opacity="0.21188221096464982"/>
  <circle cx="1033.4748305809594" cy="511.77005850792494" r="5.486664676406642" fill="#CFAE58" opacity="0.22583386493385377"/>
  <circle cx="1050.6734723710592" cy="263.584398187284" r="4.143694404612259" fill="#CFAE58" opacity="0.10260206281789436"/>
  <circle cx="939.5232110327858" cy="140.01042757935946" r="5.918102760396073" fill="#CFAE58" opacity="0.1430708863529678"/>
  <circle cx="946.0944383901755" cy="76.41385342307552" r="3.5400794526315105" fill="#CFAE58" opacity="0.13464740412830667"/>
  <circle cx="885.277733253744" cy="298.94502596197674" r="4.437017139704842" fill="#CFAE58" opacity="0.24934348662224803"/>
  <circle cx="120.98071398392092" cy="425.10489535222706" r="4.475245556042258" fill="#CFAE58" opacity="0.12485027486068431"/>
  <circle cx="637.3476795608669" cy="498.5006670488401" r="5.283551512770119" fill="#CFAE58" opacity="0.23480875482705313"/>
  <circle cx="898.2245271976973" cy="246.01168083097204" r="2.8470520570265476" fill="#CFAE58" opacity="0.20602401875908838"/>
  <circle cx="640.4949246366978" cy="441.72503022802" r="3.7692514861007664" fill="#CFAE58" opacity="0.22938608144727993"/>
  <circle cx="737.398331281896" cy="10.903319955276258" r="4.253062741973665" fill="#CFAE58" opacity="0.16944812928687145"/>
  <circle cx="490.57982756396143" cy="37.876723116609845" r="2.400627371736963" fill="#CFAE58" opacity="0.1496258066823677"/>
  <circle cx="867.3488550473481" cy="1.913965279811105" r="3.206555822804126" fill="#CFAE58" opacity="0.13490616910359085"/>
  <circle cx="909.2510770967111" cy="278.1509415054673" r="4.523074659560229" fill="#CFAE58" opacity="0.10755420675946958"/>
  <circle cx="216.99893688746369" cy="278.6296243331778" r="4.475402714912647" fill="#CFAE58" opacity="0.1300557051871398"/>
  <circle cx="636.0145806547814" cy="209.708996502393" r="5.636835206943451" fill="#CFAE58" opacity="0.1267804186971798"/>
  <circle cx="337.61366165244596" cy="149.66239690396517" r="3.227177251804668" fill="#CFAE58" opacity="0.1413725949420299"/>
  <circle cx="1152.5505054425591" cy="85.63252669992883" r="5.856923166639405" fill="#CFAE58" opacity="0.1395438180801859"/>
  <circle cx="627.7842791419043" cy="433.28087110973553" r="2.2542272316644034" fill="#CFAE58" opacity="0.2041569722066292"/>
  <circle cx="324.94824798803234" cy="454.5771154655676" r="4.747300777982024" fill="#CFAE58" opacity="0.11029666114817295"/>
  <circle cx="559.434955436894" cy="370.95943710457584" r="4.792300856329064" fill="#CFAE58" opacity="0.12216482771505505"/>
  <circle cx="190.1966213960893" cy="598.4166665195215" r="3.3226249499442835" fill="#CFAE58" opacity="0.12722371588271614"/>
  <circle cx="637.2477992245754" cy="90.62214229484987" r="5.516059045028384" fill="#CFAE58" opacity="0.1461029448183073"/>
  <circle cx="129.11692194697838" cy="548.9498961122125" r="5.492329647946809" fill="#CFAE58" opacity="0.18626729089233274"/>
  <circle cx="1131.6435444104177" cy="518.3724135718833" r="5.037448826570881" fill="#CFAE58" opacity="0.19762441001511588"/>
  <circle cx="729.5392509693755" cy="5.90813110984056" r="3.254086869817483" fill="#CFAE58" opacity="0.15476060616665877"/>
  <circle cx="384.4129322721377" cy="581.9750338186956" r="4.9292068575032975" fill="#CFAE58" opacity="0.2456831041477414"/>
  <circle cx="707.8350779676483" cy="200.82229651692418" r="5.123145583044576" fill="#CFAE58" opacity="0.16345925886741225"/>
  <circle cx="734.0044807054281" cy="347.6773034480211" r="2.4929757385818974" fill="#CFAE58" opacity="0.24497494215521906"/>
  <circle cx="203.15605609600675" cy="158.6357360665772" r="5.812761603195156" fill="#CFAE58" opacity="0.14617099129201272"/>

  <!-- Border with glow -->
  <rect x="40" y="40" width="1120" height="550" fill="none" stroke="url(#goldGradient)" stroke-width="3" rx="12" filter="url(#softGlow)"/>

  <!-- Icon circle with premium background -->
  <circle cx="150" cy="200" r="75" fill="#CFAE58" opacity="0.15" filter="url(#softGlow)"/>
  <circle cx="150" cy="200" r="70" fill="#CFAE58" opacity="0.25"/>
  <text x="150" y="235" font-size="90" text-anchor="middle" fill="#CFAE58" filter="url(#glow)">🦀</text>

  <!-- Premium logo (crown) with enhanced styling -->
  <g transform="translate(100, 70)">
    <path d="M 30 20 L 40 35 L 35 35 Z M 50 15 L 60 35 L 45 35 Z M 65 20 L 75 35 L 70 35 Z M 30 35 L 75 35 L 73 45 L 32 45 Z"
          fill="url(#goldGradient)" filter="url(#glow)" stroke="#B89842" stroke-width="0.5"/>
    <circle cx="40" cy="25" r="3" fill="#4FD1C5" filter="url(#glow)"/>
    <circle cx="52" cy="20" r="4" fill="#4FD1C5" filter="url(#glow)"/>
    <circle cx="65" cy="25" r="3" fill="#4FD1C5" filter="url(#glow)"/>
  </g>

  <!-- Title with shadow -->
  <text x="280" y="180" font-family="Georgia, serif" font-size="72" font-weight="bold"
        fill="url(#goldGradient)" filter="url(#shadow)">Crabbing on Sakhalin</text>

  <!-- Subtitle with subtle glow -->
  <text x="280" y="230" font-family="Arial, sans-serif" font-size="36"
        fill="#D6DEE6" opacity="0.95" filter="url(#softGlow)">King Crab Fishing &amp; Tours</text>

  <!-- Brand name with letter spacing -->
  <text x="280" y="300" font-family="Georgia, serif" font-size="32" font-weight="bold"
        fill="#CFAE58" letter-spacing="4" filter="url(#glow)">ROYAL KETA</text>

  <!-- Russian tagline -->
  <text x="280" y="340" font-family="Arial, sans-serif" font-size="22" font-style="italic"
        fill="#8B95A1" opacity="0.8">От икринки к королевской</text>

  <!-- Location -->
  <text x="280" y="380" font-family="Arial, sans-serif" font-size="20"
        fill="#8B95A1" opacity="0.7">Невельский район, Сахалин</text>

  <!-- Website with glow -->
  <text x="100" y="570" font-family="Arial, sans-serif" font-size="30" font-weight="bold"
        fill="#4FD1C5" filter="url(#glow)">royalketa.com</text>

  <!-- Enhanced decorative salmon silhouette -->
  <g transform="translate(950, 480)" opacity="0.2" filter="url(#softGlow)">
    <ellipse cx="0" cy="0" rx="90" ry="35" fill="#CFAE58"/>
    <path d="M 90 0 L 120 -18 L 130 0 L 120 18 Z" fill="#CFAE58"/>
    <path d="M -25 -35 L 0 -45 L 25 -35 Z" fill="#CFAE58"/>
    <ellipse cx="-50" cy="0" rx="15" ry="12" fill="#0B0F14"/>
  </g>

  <!-- Additional decorative caviar clusters -->
  <g opacity="0.2">
    <circle cx="1050" cy="120" r="6" fill="#CFAE58"/>
    <circle cx="1065" cy="115" r="5" fill="#CFAE58"/>
    <circle cx="1058" cy="130" r="4" fill="#CFAE58"/>
    <circle cx="150" cy="500" r="5" fill="#4FD1C5"/>
    <circle cx="165" cy="508" r="4" fill="#4FD1C5"/>
    <circle cx="140" cy="512" r="5" fill="#4FD1C5"/>
  </g>
</svg>