<svg width="1200" height="630" xmlns="http://www.w3.org/2000/svg">
  <defs>
    <linearGradient id="bgGradient" x1="0%" y1="0%" x2="100%" y2="100%">
      <stop offset="0%" style="stop-color:#0B0F14;stop-opacity:1" />
      <stop offset="50%" style="stop-color:#0F1619;stop-opacity:1" />
      <stop offset="100%" style="stop-color:#0F1922;stop-opacity:1" />
    </linearGradient>
    <linearGradient id="goldGradient" x1="0%" y1="0%" x2="100%" y2="0%">
      <stop offset="0%" style="stop-color:#E5D596;stop-opacity:1" />
      <stop offset="50%" style="stop-color:#CFAE58;stop-opacity:1" />
      <stop offset="100%" style="stop-color:#B89842;stop-opacity:1" />
    </linearGradient>
    <radialGradient id="oceanGradient" cx="50%" cy="50%" r="50%">
      <stop offset="0%" style="stop-color:#4FD1C5;stop-opacity:0.3" />
      <stop offset="100%" style="stop-color:#1E90A0;stop-opacity:0.05" />
    </radialGradient>
    <filter id="glow">
      <feGaussianBlur stdDeviation="5" result="coloredBlur"/>
      <feMerge>
        <feMergeNode in="coloredBlur"/>
        <feMergeNode in="SourceGraphic"/>
      </feMerge>
    </filter>
    <filter id="softGlow">
      <feGaussianBlur stdDeviation="8" result="coloredBlur"/>
      <feMerge>
        <feMergeNode in="coloredBlur"/>
        <feMergeNode in="SourceGraphic"/>
      </feMerge>
    </filter>
    <filter id="shadow">
      <feDropShadow dx="0" dy="4" stdDeviation="8" flood-color="#000000" flood-opacity="0.5"/>
    </filter>
  </defs>

  <!-- Background -->
  <rect width="1200" height="630" fill="url(#bgGradient)"/>

  <!-- Decorative ocean gradients -->
  <ellipse cx="1000" cy="150" rx="300" ry="200" fill="url(#oceanGradient)" opacity="0.4"/>
  <ellipse cx="200" cy="530" rx="250" ry="180" fill="url(#oceanGradient)" opacity="0.3"/>

  <!-- Wave patterns -->
  <path d="M 0 400 Q 300 350 600 400 T 1200 400 L 1200 630 L 0 630 Z" fill="#1E90A0" opacity="0.08"/>
  <path d="M 0 450 Q 250 420 500 450 T 1000 450 T 1200 450 L 1200 630 L 0 630 Z" fill="#4FD1C5" opacity="0.05"/>

  <!-- Caviar roe particles -->
  <circle cx="1058.7860023798273" cy="137.2972411463055" r="2.0581406758668654" fill="#CFAE58" opacity="0.19242941731151642"/>
  <circle cx="151.4499297095366" cy="481.7715109084288" r="4.565814628712615" fill="#CFAE58" opacity="0.14800855895371945"/>
  <circle cx="244.51843608514076" cy="326.9682221371425" r="4.582576792204241" fill="#CFAE58" opacity="0.19206567532638036"/>
  <circle cx="198.44971722697585" cy="542.4832419610862" r="5.828550344569857" fill="#CFAE58" opacity="0.2082226020590825"/>
  <circle cx="28.241772037818436" cy="92.25388448048365" r="2.2017293862585428" fill="#CFAE58" opacity="0.13533882055334368"/>
  <circle cx="717.7034372816547" cy="59.16694712359881" r="3.694532359757644" fill="#CFAE58" opacity="0.1389046766407051"/>
  <circle cx="527.5528005978805" cy="279.7524673381614" r="4.451161678835988" fill="#CFAE58" opacity="0.11009876702267808"/>
  <circle cx="736.9036768607663" cy="44.12366134781004" r="4.892499070205676" fill="#CFAE58" opacity="0.16564402307721982"/>
  <circle cx="1076.5431654152314" cy="89.68953819146375" r="4.924495449194613" fill="#CFAE58" opacity="0.17204642112014723"/>
  <circle cx="376.0711054670444" cy="554.3106105198875" r="2.368542504631172" fill="#CFAE58" opacity="0.21645676235727995"/>
  <circle cx="500.2513732726195" cy="610.4113353923827" r="4.816137862464479" fill="#CFAE58" opacity="0.216371438652233"/>
  <circle cx="763.1247731423139" cy="12.022483109420929" r="5.315262530024386" fill="#CFAE58" opacity="0.13942129450394203"/>
  <circle cx="344.14327629057067" cy="335.2889537938324" r="3.739775981843292" fill="#CFAE58" opacity="0.12218631674071052"/>
  <circle cx="920.8610856693656" cy="483.95003928491985" r="5.002335430952841" fill="#CFAE58" opacity="0.22633095070074358"/>
  <circle cx="509.4801636695583" cy="16.321866089527106" r="5.4847005402328906" fill="#CFAE58" opacity="0.1390624512259362"/>
  <circle cx="1186.3878790561644" cy="530.9970136981498" r="3.426208230865986" fill="#CFAE58" opacity="0.17300990708856948"/>
  <circle cx="247.55474202897415" cy="316.40709210662703" r="5.729186227481109" fill="#CFAE58" opacity="0.16268739137561644"/>
  <circle cx="417.45613069060016" cy="443.04546887744556" r="5.888977568452111" fill="#CFAE58" opacity="0.10293886581681375"/>
  <circle cx="199.49038146224785" cy="221.23026507624147" r="5.140872348910806" fill="#CFAE58" opacity="0.13400157095629894"/>
  <circle cx="381.36372101250436" cy="233.46749206615175" r="3.770027873667516" fill="#CFAE58" opacity="0.1662904626715402"/>
  <circle cx="132.06855446512958" cy="168.73539953549167" r="4.429206259113972" fill="#CFAE58" opacity="0.13308957048477174"/>
  <circle cx="502.79700025457413" cy="481.97384078082814" r="3.350164888336712" fill="#CFAE58" opacity="0.22947810208089958"/>
  <circle cx="992.5705931245599" cy="195.74586265902389" r="4.789893237355908" fill="#CFAE58" opacity="0.22566251462166292"/>
  <circle cx="855.8030350566288" cy="601.6715497607853" r="2.158351080121614" fill="#CFAE58" opacity="0.11901281835831606"/>
  <circle cx="720.8449890409617" cy="349.8546358180486" r="2.9212261086444897" fill="#CFAE58" opacity="0.19775289423054593"/>
  <circle cx="503.26909543243505" cy="24.572782930529613" r="5.563995135433635" fill="#CFAE58" opacity="0.2082591831557873"/>
  <circle cx="721.2146531903877" cy="80.95058117205528" r="2.903704883363976" fill="#CFAE58" opacity="0.18723333276497284"/>
  <circle cx="80.20187402189416" cy="243.60419136179763" r="2.1631624578761732" fill="#CFAE58" opacity="0.1883648394325162"/>
  <circle cx="1113.15628687528" cy="420.48594538746875" r="2.9156315275289515" fill="#CFAE58" opacity="0.1603616291135082"/>
  <circle cx="1156.4187052735056" cy="312.1217917345988" r="4.936236477547901" fill="#CFAE58" opacity="0.1338704345475594"/>

  <!-- Border with glow -->
  <rect x="40" y="40" width="1120" height="550" fill="none" stroke="url(#goldGradient)" stroke-width="3" rx="12" filter="url(#softGlow)"/>

  <!-- Icon circle with premium background -->
  <circle cx="150" cy="200" r="75" fill="#CFAE58" opacity="0.15" filter="url(#softGlow)"/>
  <circle cx="150" cy="200" r="70" fill="#CFAE58" opacity="0.25"/>
  <text x="150" y="235" font-size="90" text-anchor="middle" fill="#CFAE58" filter="url(#glow)">🦀</text>

  <!-- Premium logo (crown) with enhanced styling -->
  <g transform="translate(100, 70)">
    <path d="M 30 20 L 40 35 L 35 35 Z M 50 15 L 60 35 L 45 35 Z M 65 20 L 75 35 L 70 35 Z M 30 35 L 75 35 L 73 45 L 32 45 Z"
          fill="url(#goldGradient)" filter="url(#glow)" stroke="#B89842" stroke-width="0.5"/>
    <circle cx="40" cy="25" r="3" fill="#4FD1C5" filter="url(#glow)"/>
    <circle cx="52" cy="20" r="4" fill="#4FD1C5" filter="url(#glow)"/>
    <circle cx="65" cy="25" r="3" fill="#4FD1C5" filter="url(#glow)"/>
  </g>

  <!-- Title with shadow -->
  <text x="280" y="180" font-family="Georgia, serif" font-size="72" font-weight="bold"
        fill="url(#goldGradient)" filter="url(#shadow)">Crabbing on Sakhalin</text>

  <!-- Subtitle with subtle glow -->
  <text x="280" y="230" font-family="Arial, sans-serif" font-size="36"
        fill="#D6DEE6" opacity="0.95" filter="url(#softGlow)">King Crab Fishing &amp; Tours</text>

  <!-- Brand name with letter spacing -->
  <text x="280" y="300" font-family="Georgia, serif" font-size="32" font-weight="bold"
        fill="#CFAE58" letter-spacing="4" filter="url(#glow)">ROYAL KETA</text>

  <!-- Russian tagline -->
  <text x="280" y="340" font-family="Arial, sans-serif" font-size="22" font-style="italic"
        fill="#8B95A1" opacity="0.8">От икринки к королевской</text>

  <!-- Location -->
  <text x="280" y="380" font-family="Arial, sans-serif" font-size="20"
        fill="#8B95A1" opacity="0.7">Невельский район, Сахалин</text>

  <!-- Website with glow -->
  <text x="100" y="570" font-family="Arial, sans-serif" font-size="30" font-weight="bold"
        fill="#4FD1C5" filter="url(#glow)">royalketa.com</text>

  <!-- Enhanced decorative salmon silhouette -->
  <g transform="translate(950, 480)" opacity="0.2" filter="url(#softGlow)">
    <ellipse cx="0" cy="0" rx="90" ry="35" fill="#CFAE58"/>
    <path d="M 90 0 L 120 -18 L 130 0 L 120 18 Z" fill="#CFAE58"/>
    <path d="M -25 -35 L 0 -45 L 25 -35 Z" fill="#CFAE58"/>
    <ellipse cx="-50" cy="0" rx="15" ry="12" fill="#0B0F14"/>
  </g>

  <!-- Additional decorative caviar clusters -->
  <g opacity="0.2">
    <circle cx="1050" cy="120" r="6" fill="#CFAE58"/>
    <circle cx="1065" cy="115" r="5" fill="#CFAE58"/>
    <circle cx="1058" cy="130" r="4" fill="#CFAE58"/>
    <circle cx="150" cy="500" r="5" fill="#4FD1C5"/>
    <circle cx="165" cy="508" r="4" fill="#4FD1C5"/>
    <circle cx="140" cy="512" r="5" fill="#4FD1C5"/>
  </g>
</svg>