<svg width="1200" height="630" xmlns="http://www.w3.org/2000/svg">
  <defs>
    <linearGradient id="bgGradient" x1="0%" y1="0%" x2="100%" y2="100%">
      <stop offset="0%" style="stop-color:#0B0F14;stop-opacity:1" />
      <stop offset="50%" style="stop-color:#0F1619;stop-opacity:1" />
      <stop offset="100%" style="stop-color:#0F1922;stop-opacity:1" />
    </linearGradient>
    <linearGradient id="goldGradient" x1="0%" y1="0%" x2="100%" y2="0%">
      <stop offset="0%" style="stop-color:#E5D596;stop-opacity:1" />
      <stop offset="50%" style="stop-color:#CFAE58;stop-opacity:1" />
      <stop offset="100%" style="stop-color:#B89842;stop-opacity:1" />
    </linearGradient>
    <radialGradient id="oceanGradient" cx="50%" cy="50%" r="50%">
      <stop offset="0%" style="stop-color:#4FD1C5;stop-opacity:0.3" />
      <stop offset="100%" style="stop-color:#1E90A0;stop-opacity:0.05" />
    </radialGradient>
    <filter id="glow">
      <feGaussianBlur stdDeviation="5" result="coloredBlur"/>
      <feMerge>
        <feMergeNode in="coloredBlur"/>
        <feMergeNode in="SourceGraphic"/>
      </feMerge>
    </filter>
    <filter id="softGlow">
      <feGaussianBlur stdDeviation="8" result="coloredBlur"/>
      <feMerge>
        <feMergeNode in="coloredBlur"/>
        <feMergeNode in="SourceGraphic"/>
      </feMerge>
    </filter>
    <filter id="shadow">
      <feDropShadow dx="0" dy="4" stdDeviation="8" flood-color="#000000" flood-opacity="0.5"/>
    </filter>
  </defs>

  <!-- Background -->
  <rect width="1200" height="630" fill="url(#bgGradient)"/>

  <!-- Decorative ocean gradients -->
  <ellipse cx="1000" cy="150" rx="300" ry="200" fill="url(#oceanGradient)" opacity="0.4"/>
  <ellipse cx="200" cy="530" rx="250" ry="180" fill="url(#oceanGradient)" opacity="0.3"/>

  <!-- Wave patterns -->
  <path d="M 0 400 Q 300 350 600 400 T 1200 400 L 1200 630 L 0 630 Z" fill="#1E90A0" opacity="0.08"/>
  <path d="M 0 450 Q 250 420 500 450 T 1000 450 T 1200 450 L 1200 630 L 0 630 Z" fill="#4FD1C5" opacity="0.05"/>

  <!-- Caviar roe particles -->
  <circle cx="975.7637463931774" cy="333.9758153702106" r="2.239141629677358" fill="#CFAE58" opacity="0.13295731587120815"/>
  <circle cx="15.548544447876056" cy="186.29325720694942" r="5.920795295478273" fill="#CFAE58" opacity="0.18727166319788396"/>
  <circle cx="680.0331110423085" cy="31.865042724254135" r="5.282559543769011" fill="#CFAE58" opacity="0.1557880432685026"/>
  <circle cx="402.72786810238574" cy="27.875179510576103" r="4.730307549270977" fill="#CFAE58" opacity="0.11610653539494065"/>
  <circle cx="629.0871910499854" cy="194.67870802734564" r="5.577027882925254" fill="#CFAE58" opacity="0.22953505750540887"/>
  <circle cx="775.1300256484166" cy="611.6410144439188" r="3.74628314763983" fill="#CFAE58" opacity="0.12420029775352892"/>
  <circle cx="26.2995617861419" cy="509.86729396303167" r="4.784586654085753" fill="#CFAE58" opacity="0.18100612699172608"/>
  <circle cx="1178.1487601577269" cy="529.7913467045895" r="2.9199362228485723" fill="#CFAE58" opacity="0.22365323742980908"/>
  <circle cx="1116.4066358049179" cy="592.1997959301232" r="2.4419956258554665" fill="#CFAE58" opacity="0.22973670113156666"/>
  <circle cx="443.6172899800339" cy="445.82699239854304" r="2.92520609635429" fill="#CFAE58" opacity="0.1801780407401993"/>
  <circle cx="751.28790718555" cy="332.62640256547945" r="2.5747585364664007" fill="#CFAE58" opacity="0.15649670536227184"/>
  <circle cx="1091.041184431389" cy="66.92750969246187" r="2.8574999665320897" fill="#CFAE58" opacity="0.19216257375183954"/>
  <circle cx="743.7755881040014" cy="441.8409972394715" r="5.187022639194892" fill="#CFAE58" opacity="0.2199051268040163"/>
  <circle cx="632.4314842123006" cy="623.7257445955017" r="3.792635457843731" fill="#CFAE58" opacity="0.11885678208688671"/>
  <circle cx="1177.6107305716837" cy="327.94863845653197" r="4.174022177880519" fill="#CFAE58" opacity="0.1724713825021148"/>
  <circle cx="112.13177260262266" cy="370.34901211092574" r="3.52108854206435" fill="#CFAE58" opacity="0.1133183100460604"/>
  <circle cx="392.2123635058176" cy="502.4235472376643" r="4.284873988012995" fill="#CFAE58" opacity="0.19338768283692892"/>
  <circle cx="388.9059124579689" cy="216.62638045121065" r="5.093284038896382" fill="#CFAE58" opacity="0.22050727570881837"/>
  <circle cx="257.04606688539695" cy="27.996914493720514" r="5.2916879339416765" fill="#CFAE58" opacity="0.17268909181730158"/>
  <circle cx="372.7844065839869" cy="279.5261100178782" r="4.242295119117989" fill="#CFAE58" opacity="0.10179783085034359"/>
  <circle cx="503.146491819272" cy="593.1480165905136" r="2.245744984443739" fill="#CFAE58" opacity="0.19551025091713964"/>
  <circle cx="555.2667409995846" cy="381.2801868805478" r="5.779326970646635" fill="#CFAE58" opacity="0.24983494724551128"/>
  <circle cx="515.568979644923" cy="362.2348599008496" r="5.1791330384714325" fill="#CFAE58" opacity="0.1377176718853167"/>
  <circle cx="1071.3381437459448" cy="139.7064643058965" r="4.052267251655719" fill="#CFAE58" opacity="0.1687044586190779"/>
  <circle cx="114.75976913239312" cy="549.194063925904" r="4.466358830293574" fill="#CFAE58" opacity="0.2299877456737665"/>
  <circle cx="287.0434984013792" cy="33.169253441050415" r="2.4505887861632045" fill="#CFAE58" opacity="0.15924385409016792"/>
  <circle cx="787.5029551596232" cy="450.25818248250545" r="2.137552302765672" fill="#CFAE58" opacity="0.23501824161518323"/>
  <circle cx="879.470491356881" cy="188.11722792026345" r="4.7855907784054885" fill="#CFAE58" opacity="0.21036861406773372"/>
  <circle cx="906.9328036420645" cy="402.4934980845978" r="2.594246992834143" fill="#CFAE58" opacity="0.13269166999785176"/>
  <circle cx="401.2005710988848" cy="69.35734882165859" r="5.664453810534039" fill="#CFAE58" opacity="0.1570323394603825"/>

  <!-- Border with glow -->
  <rect x="40" y="40" width="1120" height="550" fill="none" stroke="url(#goldGradient)" stroke-width="3" rx="12" filter="url(#softGlow)"/>

  <!-- Icon circle with premium background -->
  <circle cx="150" cy="200" r="75" fill="#CFAE58" opacity="0.15" filter="url(#softGlow)"/>
  <circle cx="150" cy="200" r="70" fill="#CFAE58" opacity="0.25"/>
  <text x="150" y="235" font-size="90" text-anchor="middle" fill="#CFAE58" filter="url(#glow)">🦀</text>

  <!-- Premium logo (crown) with enhanced styling -->
  <g transform="translate(100, 70)">
    <path d="M 30 20 L 40 35 L 35 35 Z M 50 15 L 60 35 L 45 35 Z M 65 20 L 75 35 L 70 35 Z M 30 35 L 75 35 L 73 45 L 32 45 Z"
          fill="url(#goldGradient)" filter="url(#glow)" stroke="#B89842" stroke-width="0.5"/>
    <circle cx="40" cy="25" r="3" fill="#4FD1C5" filter="url(#glow)"/>
    <circle cx="52" cy="20" r="4" fill="#4FD1C5" filter="url(#glow)"/>
    <circle cx="65" cy="25" r="3" fill="#4FD1C5" filter="url(#glow)"/>
  </g>

  <!-- Title with shadow -->
  <text x="280" y="180" font-family="Georgia, serif" font-size="72" font-weight="bold"
        fill="url(#goldGradient)" filter="url(#shadow)">Crabbing on Sakhalin</text>

  <!-- Subtitle with subtle glow -->
  <text x="280" y="230" font-family="Arial, sans-serif" font-size="36"
        fill="#D6DEE6" opacity="0.95" filter="url(#softGlow)">King Crab Fishing &amp; Tours</text>

  <!-- Brand name with letter spacing -->
  <text x="280" y="300" font-family="Georgia, serif" font-size="32" font-weight="bold"
        fill="#CFAE58" letter-spacing="4" filter="url(#glow)">ROYAL KETA</text>

  <!-- Russian tagline -->
  <text x="280" y="340" font-family="Arial, sans-serif" font-size="22" font-style="italic"
        fill="#8B95A1" opacity="0.8">От икринки к королевской</text>

  <!-- Location -->
  <text x="280" y="380" font-family="Arial, sans-serif" font-size="20"
        fill="#8B95A1" opacity="0.7">Невельский район, Сахалин</text>

  <!-- Website with glow -->
  <text x="100" y="570" font-family="Arial, sans-serif" font-size="30" font-weight="bold"
        fill="#4FD1C5" filter="url(#glow)">royalketa.com</text>

  <!-- Enhanced decorative salmon silhouette -->
  <g transform="translate(950, 480)" opacity="0.2" filter="url(#softGlow)">
    <ellipse cx="0" cy="0" rx="90" ry="35" fill="#CFAE58"/>
    <path d="M 90 0 L 120 -18 L 130 0 L 120 18 Z" fill="#CFAE58"/>
    <path d="M -25 -35 L 0 -45 L 25 -35 Z" fill="#CFAE58"/>
    <ellipse cx="-50" cy="0" rx="15" ry="12" fill="#0B0F14"/>
  </g>

  <!-- Additional decorative caviar clusters -->
  <g opacity="0.2">
    <circle cx="1050" cy="120" r="6" fill="#CFAE58"/>
    <circle cx="1065" cy="115" r="5" fill="#CFAE58"/>
    <circle cx="1058" cy="130" r="4" fill="#CFAE58"/>
    <circle cx="150" cy="500" r="5" fill="#4FD1C5"/>
    <circle cx="165" cy="508" r="4" fill="#4FD1C5"/>
    <circle cx="140" cy="512" r="5" fill="#4FD1C5"/>
  </g>
</svg>