<svg width="1200" height="630" xmlns="http://www.w3.org/2000/svg">
  <defs>
    <linearGradient id="bgGradient" x1="0%" y1="0%" x2="100%" y2="100%">
      <stop offset="0%" style="stop-color:#0B0F14;stop-opacity:1" />
      <stop offset="50%" style="stop-color:#0F1619;stop-opacity:1" />
      <stop offset="100%" style="stop-color:#0F1922;stop-opacity:1" />
    </linearGradient>
    <linearGradient id="goldGradient" x1="0%" y1="0%" x2="100%" y2="0%">
      <stop offset="0%" style="stop-color:#E5D596;stop-opacity:1" />
      <stop offset="50%" style="stop-color:#CFAE58;stop-opacity:1" />
      <stop offset="100%" style="stop-color:#B89842;stop-opacity:1" />
    </linearGradient>
    <radialGradient id="oceanGradient" cx="50%" cy="50%" r="50%">
      <stop offset="0%" style="stop-color:#4FD1C5;stop-opacity:0.3" />
      <stop offset="100%" style="stop-color:#1E90A0;stop-opacity:0.05" />
    </radialGradient>
    <filter id="glow">
      <feGaussianBlur stdDeviation="5" result="coloredBlur"/>
      <feMerge>
        <feMergeNode in="coloredBlur"/>
        <feMergeNode in="SourceGraphic"/>
      </feMerge>
    </filter>
    <filter id="softGlow">
      <feGaussianBlur stdDeviation="8" result="coloredBlur"/>
      <feMerge>
        <feMergeNode in="coloredBlur"/>
        <feMergeNode in="SourceGraphic"/>
      </feMerge>
    </filter>
    <filter id="shadow">
      <feDropShadow dx="0" dy="4" stdDeviation="8" flood-color="#000000" flood-opacity="0.5"/>
    </filter>
  </defs>

  <!-- Background -->
  <rect width="1200" height="630" fill="url(#bgGradient)"/>

  <!-- Decorative ocean gradients -->
  <ellipse cx="1000" cy="150" rx="300" ry="200" fill="url(#oceanGradient)" opacity="0.4"/>
  <ellipse cx="200" cy="530" rx="250" ry="180" fill="url(#oceanGradient)" opacity="0.3"/>

  <!-- Wave patterns -->
  <path d="M 0 400 Q 300 350 600 400 T 1200 400 L 1200 630 L 0 630 Z" fill="#1E90A0" opacity="0.08"/>
  <path d="M 0 450 Q 250 420 500 450 T 1000 450 T 1200 450 L 1200 630 L 0 630 Z" fill="#4FD1C5" opacity="0.05"/>

  <!-- Caviar roe particles -->
  <circle cx="1098.933983834304" cy="249.42480326010468" r="5.761829137652747" fill="#CFAE58" opacity="0.16259812707827848"/>
  <circle cx="173.32373797638132" cy="78.47319857227339" r="5.672348886940311" fill="#CFAE58" opacity="0.16244203363035556"/>
  <circle cx="856.500179608339" cy="277.1285146500578" r="4.014623773835657" fill="#CFAE58" opacity="0.1736387709530648"/>
  <circle cx="55.67864848361026" cy="284.122400629925" r="3.0498791851732037" fill="#CFAE58" opacity="0.10705267612089904"/>
  <circle cx="779.3380611455767" cy="596.3175209549792" r="4.370410806782752" fill="#CFAE58" opacity="0.1101820490683988"/>
  <circle cx="930.4087046490495" cy="346.69691400259285" r="5.808900224691119" fill="#CFAE58" opacity="0.21798480831571432"/>
  <circle cx="738.7694338421866" cy="453.3732799540916" r="4.824911388420994" fill="#CFAE58" opacity="0.1565525786339696"/>
  <circle cx="253.1291318923877" cy="403.62934432627924" r="5.4545966668219865" fill="#CFAE58" opacity="0.1692022453299158"/>
  <circle cx="434.8686172319072" cy="96.21396349825427" r="2.1685898026279613" fill="#CFAE58" opacity="0.1854046952963686"/>
  <circle cx="205.1587615974939" cy="256.7461082438221" r="2.083098543350604" fill="#CFAE58" opacity="0.21058472071846812"/>
  <circle cx="504.06997885730505" cy="611.5165151752987" r="3.2635043918328064" fill="#CFAE58" opacity="0.12987339978748064"/>
  <circle cx="1142.9405551171203" cy="85.90749865603517" r="5.101562066504424" fill="#CFAE58" opacity="0.1368186268667992"/>
  <circle cx="995.0896990737897" cy="79.71106285341797" r="5.594904933534222" fill="#CFAE58" opacity="0.1288034373439011"/>
  <circle cx="367.3541449341548" cy="442.2786991610641" r="5.6408505828991435" fill="#CFAE58" opacity="0.20530211169150725"/>
  <circle cx="2.0443947178837796" cy="299.24939843856004" r="2.4096443127022837" fill="#CFAE58" opacity="0.20494575170160423"/>
  <circle cx="166.50202870125196" cy="528.1667151776913" r="2.258366058715663" fill="#CFAE58" opacity="0.20303086185051805"/>
  <circle cx="861.5535784012582" cy="82.63954182143645" r="2.993872481886571" fill="#CFAE58" opacity="0.23249043198820354"/>
  <circle cx="207.56463208629458" cy="265.96266858206246" r="5.1797044497612745" fill="#CFAE58" opacity="0.23675427392319776"/>
  <circle cx="1177.121379585959" cy="480.6550711083195" r="5.439715810895046" fill="#CFAE58" opacity="0.23181739446116234"/>
  <circle cx="588.8283140804692" cy="618.9488677081517" r="3.5536608201284903" fill="#CFAE58" opacity="0.10621239969966001"/>
  <circle cx="53.14098147878905" cy="116.76852405530387" r="5.317170114083677" fill="#CFAE58" opacity="0.12119878300545003"/>
  <circle cx="536.0782397360484" cy="299.9933871158791" r="5.627940124917738" fill="#CFAE58" opacity="0.2359849657229081"/>
  <circle cx="788.8082968388882" cy="184.09432007362457" r="4.639633794131342" fill="#CFAE58" opacity="0.23763971986076518"/>
  <circle cx="86.19293891922348" cy="398.57043863758236" r="5.501532710270093" fill="#CFAE58" opacity="0.11199015976895316"/>
  <circle cx="1101.6044315482986" cy="161.22323035734863" r="2.4910687020527424" fill="#CFAE58" opacity="0.10136230043662435"/>
  <circle cx="507.73550650276024" cy="503.50081564923175" r="3.9125379820955644" fill="#CFAE58" opacity="0.12105560151853687"/>
  <circle cx="291.028271447783" cy="185.36343750995238" r="3.300815653086304" fill="#CFAE58" opacity="0.13131613452282737"/>
  <circle cx="526.8736964080048" cy="174.8642999139724" r="5.98366727235032" fill="#CFAE58" opacity="0.1982934674876078"/>
  <circle cx="962.9835004108274" cy="128.81863042140589" r="5.949062834572801" fill="#CFAE58" opacity="0.11535746735627728"/>
  <circle cx="349.3085392084284" cy="610.7847898804595" r="4.052423570184801" fill="#CFAE58" opacity="0.12148083521249131"/>

  <!-- Border with glow -->
  <rect x="40" y="40" width="1120" height="550" fill="none" stroke="url(#goldGradient)" stroke-width="3" rx="12" filter="url(#softGlow)"/>

  <!-- Icon circle with premium background -->
  <circle cx="150" cy="200" r="75" fill="#CFAE58" opacity="0.15" filter="url(#softGlow)"/>
  <circle cx="150" cy="200" r="70" fill="#CFAE58" opacity="0.25"/>
  <text x="150" y="235" font-size="90" text-anchor="middle" fill="#CFAE58" filter="url(#glow)">🦀</text>

  <!-- Premium logo (crown) with enhanced styling -->
  <g transform="translate(100, 70)">
    <path d="M 30 20 L 40 35 L 35 35 Z M 50 15 L 60 35 L 45 35 Z M 65 20 L 75 35 L 70 35 Z M 30 35 L 75 35 L 73 45 L 32 45 Z"
          fill="url(#goldGradient)" filter="url(#glow)" stroke="#B89842" stroke-width="0.5"/>
    <circle cx="40" cy="25" r="3" fill="#4FD1C5" filter="url(#glow)"/>
    <circle cx="52" cy="20" r="4" fill="#4FD1C5" filter="url(#glow)"/>
    <circle cx="65" cy="25" r="3" fill="#4FD1C5" filter="url(#glow)"/>
  </g>

  <!-- Title with shadow -->
  <text x="280" y="180" font-family="Georgia, serif" font-size="72" font-weight="bold"
        fill="url(#goldGradient)" filter="url(#shadow)">Crabbing on Sakhalin</text>

  <!-- Subtitle with subtle glow -->
  <text x="280" y="230" font-family="Arial, sans-serif" font-size="36"
        fill="#D6DEE6" opacity="0.95" filter="url(#softGlow)">King Crab Fishing &amp; Tours</text>

  <!-- Brand name with letter spacing -->
  <text x="280" y="300" font-family="Georgia, serif" font-size="32" font-weight="bold"
        fill="#CFAE58" letter-spacing="4" filter="url(#glow)">ROYAL KETA</text>

  <!-- Russian tagline -->
  <text x="280" y="340" font-family="Arial, sans-serif" font-size="22" font-style="italic"
        fill="#8B95A1" opacity="0.8">От икринки к королевской</text>

  <!-- Location -->
  <text x="280" y="380" font-family="Arial, sans-serif" font-size="20"
        fill="#8B95A1" opacity="0.7">Невельский район, Сахалин</text>

  <!-- Website with glow -->
  <text x="100" y="570" font-family="Arial, sans-serif" font-size="30" font-weight="bold"
        fill="#4FD1C5" filter="url(#glow)">royalketa.com</text>

  <!-- Enhanced decorative salmon silhouette -->
  <g transform="translate(950, 480)" opacity="0.2" filter="url(#softGlow)">
    <ellipse cx="0" cy="0" rx="90" ry="35" fill="#CFAE58"/>
    <path d="M 90 0 L 120 -18 L 130 0 L 120 18 Z" fill="#CFAE58"/>
    <path d="M -25 -35 L 0 -45 L 25 -35 Z" fill="#CFAE58"/>
    <ellipse cx="-50" cy="0" rx="15" ry="12" fill="#0B0F14"/>
  </g>

  <!-- Additional decorative caviar clusters -->
  <g opacity="0.2">
    <circle cx="1050" cy="120" r="6" fill="#CFAE58"/>
    <circle cx="1065" cy="115" r="5" fill="#CFAE58"/>
    <circle cx="1058" cy="130" r="4" fill="#CFAE58"/>
    <circle cx="150" cy="500" r="5" fill="#4FD1C5"/>
    <circle cx="165" cy="508" r="4" fill="#4FD1C5"/>
    <circle cx="140" cy="512" r="5" fill="#4FD1C5"/>
  </g>
</svg>