<svg width="1200" height="630" xmlns="http://www.w3.org/2000/svg">
  <defs>
    <linearGradient id="bgGradient" x1="0%" y1="0%" x2="100%" y2="100%">
      <stop offset="0%" style="stop-color:#0B0F14;stop-opacity:1" />
      <stop offset="50%" style="stop-color:#0F1619;stop-opacity:1" />
      <stop offset="100%" style="stop-color:#0F1922;stop-opacity:1" />
    </linearGradient>
    <linearGradient id="goldGradient" x1="0%" y1="0%" x2="100%" y2="0%">
      <stop offset="0%" style="stop-color:#E5D596;stop-opacity:1" />
      <stop offset="50%" style="stop-color:#CFAE58;stop-opacity:1" />
      <stop offset="100%" style="stop-color:#B89842;stop-opacity:1" />
    </linearGradient>
    <radialGradient id="oceanGradient" cx="50%" cy="50%" r="50%">
      <stop offset="0%" style="stop-color:#4FD1C5;stop-opacity:0.3" />
      <stop offset="100%" style="stop-color:#1E90A0;stop-opacity:0.05" />
    </radialGradient>
    <filter id="glow">
      <feGaussianBlur stdDeviation="5" result="coloredBlur"/>
      <feMerge>
        <feMergeNode in="coloredBlur"/>
        <feMergeNode in="SourceGraphic"/>
      </feMerge>
    </filter>
    <filter id="softGlow">
      <feGaussianBlur stdDeviation="8" result="coloredBlur"/>
      <feMerge>
        <feMergeNode in="coloredBlur"/>
        <feMergeNode in="SourceGraphic"/>
      </feMerge>
    </filter>
    <filter id="shadow">
      <feDropShadow dx="0" dy="4" stdDeviation="8" flood-color="#000000" flood-opacity="0.5"/>
    </filter>
  </defs>

  <!-- Background -->
  <rect width="1200" height="630" fill="url(#bgGradient)"/>

  <!-- Decorative ocean gradients -->
  <ellipse cx="1000" cy="150" rx="300" ry="200" fill="url(#oceanGradient)" opacity="0.4"/>
  <ellipse cx="200" cy="530" rx="250" ry="180" fill="url(#oceanGradient)" opacity="0.3"/>

  <!-- Wave patterns -->
  <path d="M 0 400 Q 300 350 600 400 T 1200 400 L 1200 630 L 0 630 Z" fill="#1E90A0" opacity="0.08"/>
  <path d="M 0 450 Q 250 420 500 450 T 1000 450 T 1200 450 L 1200 630 L 0 630 Z" fill="#4FD1C5" opacity="0.05"/>

  <!-- Caviar roe particles -->
  <circle cx="516.0981756371423" cy="289.6600423104524" r="3.430807233318831" fill="#CFAE58" opacity="0.16726902180162892"/>
  <circle cx="16.79379946694035" cy="155.10660205376283" r="5.710190687109877" fill="#CFAE58" opacity="0.21339598437439744"/>
  <circle cx="1133.7631507766769" cy="149.46493169557525" r="3.640654870095441" fill="#CFAE58" opacity="0.10335639678108835"/>
  <circle cx="574.0575440979421" cy="16.453349438269065" r="3.7938933634994405" fill="#CFAE58" opacity="0.1959468515500789"/>
  <circle cx="1039.389760492667" cy="421.10260778310595" r="5.786306628864331" fill="#CFAE58" opacity="0.20521399231195608"/>
  <circle cx="534.1179640230488" cy="0.9069869556748167" r="4.982471852208809" fill="#CFAE58" opacity="0.18216269965261458"/>
  <circle cx="1003.181776136803" cy="155.59056503578282" r="3.8789689866477115" fill="#CFAE58" opacity="0.13125775657556746"/>
  <circle cx="655.6670347090925" cy="616.2820660333174" r="5.93312432282718" fill="#CFAE58" opacity="0.13857739418800866"/>
  <circle cx="687.4918211816994" cy="30.66460238409832" r="5.605182871955618" fill="#CFAE58" opacity="0.20078840750298987"/>
  <circle cx="1196.9388070760406" cy="349.03720113116935" r="4.821811568143751" fill="#CFAE58" opacity="0.12301271171588779"/>
  <circle cx="410.4574470473276" cy="212.0573831964476" r="2.3045049063379" fill="#CFAE58" opacity="0.21142075030312776"/>
  <circle cx="1171.524715084507" cy="566.2343690672541" r="5.128110333876222" fill="#CFAE58" opacity="0.13231554206070512"/>
  <circle cx="618.3854324579177" cy="535.6090950135188" r="4.262190242410288" fill="#CFAE58" opacity="0.10807152273935612"/>
  <circle cx="385.1096834028567" cy="581.7164709439097" r="5.131639700657645" fill="#CFAE58" opacity="0.21806323994762067"/>
  <circle cx="106.40102753113432" cy="209.7679259690829" r="3.81676875015576" fill="#CFAE58" opacity="0.1619925966977923"/>
  <circle cx="317.6870396178055" cy="176.47076011342577" r="3.380471878053156" fill="#CFAE58" opacity="0.15021272821139647"/>
  <circle cx="583.3263078351778" cy="390.74492816843565" r="2.471539014221009" fill="#CFAE58" opacity="0.12198075019362911"/>
  <circle cx="1166.6487354597073" cy="155.7227059055725" r="4.446012189950896" fill="#CFAE58" opacity="0.19574479465400788"/>
  <circle cx="986.7899790966535" cy="242.1846292154398" r="2.4364407863778514" fill="#CFAE58" opacity="0.1807866145209015"/>
  <circle cx="257.5064626789371" cy="378.31522885063487" r="3.919846455651882" fill="#CFAE58" opacity="0.1833327548597814"/>
  <circle cx="852.6405220929203" cy="423.9592388985507" r="4.984948945540228" fill="#CFAE58" opacity="0.18400860326801494"/>
  <circle cx="469.95525290682417" cy="15.442888032261461" r="5.929838943338247" fill="#CFAE58" opacity="0.20774698775396838"/>
  <circle cx="212.00886444657502" cy="587.1148486368838" r="3.6936400827007843" fill="#CFAE58" opacity="0.13721548450131246"/>
  <circle cx="81.92728903957823" cy="520.1061623302135" r="3.8349469738152835" fill="#CFAE58" opacity="0.16976368100066375"/>
  <circle cx="975.299380590874" cy="336.643091156323" r="2.6573722116407144" fill="#CFAE58" opacity="0.20865260556192516"/>
  <circle cx="1100.5004132476104" cy="305.78013514468915" r="3.169805460342226" fill="#CFAE58" opacity="0.2280994401317685"/>
  <circle cx="521.0506264940157" cy="346.45624021365745" r="4.698385863232828" fill="#CFAE58" opacity="0.1093541714979192"/>
  <circle cx="439.23125209195695" cy="296.68627563932955" r="2.0210586272013806" fill="#CFAE58" opacity="0.16297186743587005"/>
  <circle cx="848.7212951380869" cy="517.3720836952375" r="2.563287860193286" fill="#CFAE58" opacity="0.1357172571187314"/>
  <circle cx="434.5259094387294" cy="470.96543421386787" r="5.811537295834535" fill="#CFAE58" opacity="0.15794226255614813"/>

  <!-- Border with glow -->
  <rect x="40" y="40" width="1120" height="550" fill="none" stroke="url(#goldGradient)" stroke-width="3" rx="12" filter="url(#softGlow)"/>

  <!-- Icon circle with premium background -->
  <circle cx="150" cy="200" r="75" fill="#CFAE58" opacity="0.15" filter="url(#softGlow)"/>
  <circle cx="150" cy="200" r="70" fill="#CFAE58" opacity="0.25"/>
  <text x="150" y="235" font-size="90" text-anchor="middle" fill="#CFAE58" filter="url(#glow)">🦀</text>

  <!-- Premium logo (crown) with enhanced styling -->
  <g transform="translate(100, 70)">
    <path d="M 30 20 L 40 35 L 35 35 Z M 50 15 L 60 35 L 45 35 Z M 65 20 L 75 35 L 70 35 Z M 30 35 L 75 35 L 73 45 L 32 45 Z"
          fill="url(#goldGradient)" filter="url(#glow)" stroke="#B89842" stroke-width="0.5"/>
    <circle cx="40" cy="25" r="3" fill="#4FD1C5" filter="url(#glow)"/>
    <circle cx="52" cy="20" r="4" fill="#4FD1C5" filter="url(#glow)"/>
    <circle cx="65" cy="25" r="3" fill="#4FD1C5" filter="url(#glow)"/>
  </g>

  <!-- Title with shadow -->
  <text x="280" y="180" font-family="Georgia, serif" font-size="72" font-weight="bold"
        fill="url(#goldGradient)" filter="url(#shadow)">Crabbing on Sakhalin</text>

  <!-- Subtitle with subtle glow -->
  <text x="280" y="230" font-family="Arial, sans-serif" font-size="36"
        fill="#D6DEE6" opacity="0.95" filter="url(#softGlow)">King Crab Fishing &amp; Tours</text>

  <!-- Brand name with letter spacing -->
  <text x="280" y="300" font-family="Georgia, serif" font-size="32" font-weight="bold"
        fill="#CFAE58" letter-spacing="4" filter="url(#glow)">ROYAL KETA</text>

  <!-- Russian tagline -->
  <text x="280" y="340" font-family="Arial, sans-serif" font-size="22" font-style="italic"
        fill="#8B95A1" opacity="0.8">От икринки к королевской</text>

  <!-- Location -->
  <text x="280" y="380" font-family="Arial, sans-serif" font-size="20"
        fill="#8B95A1" opacity="0.7">Невельский район, Сахалин</text>

  <!-- Website with glow -->
  <text x="100" y="570" font-family="Arial, sans-serif" font-size="30" font-weight="bold"
        fill="#4FD1C5" filter="url(#glow)">royalketa.com</text>

  <!-- Enhanced decorative salmon silhouette -->
  <g transform="translate(950, 480)" opacity="0.2" filter="url(#softGlow)">
    <ellipse cx="0" cy="0" rx="90" ry="35" fill="#CFAE58"/>
    <path d="M 90 0 L 120 -18 L 130 0 L 120 18 Z" fill="#CFAE58"/>
    <path d="M -25 -35 L 0 -45 L 25 -35 Z" fill="#CFAE58"/>
    <ellipse cx="-50" cy="0" rx="15" ry="12" fill="#0B0F14"/>
  </g>

  <!-- Additional decorative caviar clusters -->
  <g opacity="0.2">
    <circle cx="1050" cy="120" r="6" fill="#CFAE58"/>
    <circle cx="1065" cy="115" r="5" fill="#CFAE58"/>
    <circle cx="1058" cy="130" r="4" fill="#CFAE58"/>
    <circle cx="150" cy="500" r="5" fill="#4FD1C5"/>
    <circle cx="165" cy="508" r="4" fill="#4FD1C5"/>
    <circle cx="140" cy="512" r="5" fill="#4FD1C5"/>
  </g>
</svg>