<svg width="1200" height="630" xmlns="http://www.w3.org/2000/svg">
  <defs>
    <linearGradient id="bgGradient" x1="0%" y1="0%" x2="100%" y2="100%">
      <stop offset="0%" style="stop-color:#0B0F14;stop-opacity:1" />
      <stop offset="50%" style="stop-color:#0F1619;stop-opacity:1" />
      <stop offset="100%" style="stop-color:#0F1922;stop-opacity:1" />
    </linearGradient>
    <linearGradient id="goldGradient" x1="0%" y1="0%" x2="100%" y2="0%">
      <stop offset="0%" style="stop-color:#E5D596;stop-opacity:1" />
      <stop offset="50%" style="stop-color:#CFAE58;stop-opacity:1" />
      <stop offset="100%" style="stop-color:#B89842;stop-opacity:1" />
    </linearGradient>
    <radialGradient id="oceanGradient" cx="50%" cy="50%" r="50%">
      <stop offset="0%" style="stop-color:#4FD1C5;stop-opacity:0.3" />
      <stop offset="100%" style="stop-color:#1E90A0;stop-opacity:0.05" />
    </radialGradient>
    <filter id="glow">
      <feGaussianBlur stdDeviation="5" result="coloredBlur"/>
      <feMerge>
        <feMergeNode in="coloredBlur"/>
        <feMergeNode in="SourceGraphic"/>
      </feMerge>
    </filter>
    <filter id="softGlow">
      <feGaussianBlur stdDeviation="8" result="coloredBlur"/>
      <feMerge>
        <feMergeNode in="coloredBlur"/>
        <feMergeNode in="SourceGraphic"/>
      </feMerge>
    </filter>
    <filter id="shadow">
      <feDropShadow dx="0" dy="4" stdDeviation="8" flood-color="#000000" flood-opacity="0.5"/>
    </filter>
  </defs>

  <!-- Background -->
  <rect width="1200" height="630" fill="url(#bgGradient)"/>

  <!-- Decorative ocean gradients -->
  <ellipse cx="1000" cy="150" rx="300" ry="200" fill="url(#oceanGradient)" opacity="0.4"/>
  <ellipse cx="200" cy="530" rx="250" ry="180" fill="url(#oceanGradient)" opacity="0.3"/>

  <!-- Wave patterns -->
  <path d="M 0 400 Q 300 350 600 400 T 1200 400 L 1200 630 L 0 630 Z" fill="#1E90A0" opacity="0.08"/>
  <path d="M 0 450 Q 250 420 500 450 T 1000 450 T 1200 450 L 1200 630 L 0 630 Z" fill="#4FD1C5" opacity="0.05"/>

  <!-- Caviar roe particles -->
  <circle cx="1064.7725769729316" cy="471.3830000757818" r="2.7210623967168526" fill="#CFAE58" opacity="0.1193872873242166"/>
  <circle cx="457.43042453165214" cy="534.1224667844999" r="3.268400627556851" fill="#CFAE58" opacity="0.23088848008341814"/>
  <circle cx="906.9706405706052" cy="118.16917341407422" r="5.293256349373399" fill="#CFAE58" opacity="0.16112538947989813"/>
  <circle cx="728.2894323303616" cy="193.2598026348762" r="5.98365124162193" fill="#CFAE58" opacity="0.10574893460621235"/>
  <circle cx="1114.2726092899854" cy="205.407450257645" r="3.656764903640678" fill="#CFAE58" opacity="0.171374051320934"/>
  <circle cx="793.6990826852448" cy="313.03966787944717" r="2.231470988529472" fill="#CFAE58" opacity="0.10729202313241781"/>
  <circle cx="1177.9643978509844" cy="508.9672234711741" r="5.802485359417771" fill="#CFAE58" opacity="0.23373087973057313"/>
  <circle cx="642.4297741203861" cy="27.809494994694223" r="5.3974620610359345" fill="#CFAE58" opacity="0.12752139545759036"/>
  <circle cx="780.4736590198114" cy="557.7237359222133" r="4.681573837529399" fill="#CFAE58" opacity="0.11466582381768807"/>
  <circle cx="1005.0157634506347" cy="269.44138633503195" r="2.0259455343673216" fill="#CFAE58" opacity="0.19979505137430548"/>
  <circle cx="1062.0093758885173" cy="170.19217343294778" r="4.2586113049971" fill="#CFAE58" opacity="0.14613452445008623"/>
  <circle cx="841.6949885404949" cy="626.8000613000088" r="2.7206799446384116" fill="#CFAE58" opacity="0.11273154800910393"/>
  <circle cx="183.49687261640463" cy="150.84184991786665" r="3.2405006085342536" fill="#CFAE58" opacity="0.24280931066604766"/>
  <circle cx="1114.711949823976" cy="378.80837603867116" r="4.090028259675264" fill="#CFAE58" opacity="0.19350290622533833"/>
  <circle cx="704.1942427460208" cy="66.30870791400534" r="2.8796390081399807" fill="#CFAE58" opacity="0.20172729299826422"/>
  <circle cx="675.7505927101255" cy="383.48805659481275" r="3.193956031618713" fill="#CFAE58" opacity="0.11906272707568477"/>
  <circle cx="299.2116916232908" cy="210.12328895446745" r="2.9373709285504748" fill="#CFAE58" opacity="0.22400221954410715"/>
  <circle cx="1162.6552196202215" cy="108.9394449602557" r="4.779944609202766" fill="#CFAE58" opacity="0.17652421215662387"/>
  <circle cx="473.9912992866358" cy="187.9947069892207" r="3.3847691749260123" fill="#CFAE58" opacity="0.21648731506706764"/>
  <circle cx="201.53413371914857" cy="559.1942032593074" r="2.787019721428531" fill="#CFAE58" opacity="0.20671283729471412"/>
  <circle cx="821.2651018751277" cy="513.3700366426076" r="4.254976719604826" fill="#CFAE58" opacity="0.145862556520892"/>
  <circle cx="807.499472599985" cy="377.43551058873464" r="5.221589079507035" fill="#CFAE58" opacity="0.16992506609429667"/>
  <circle cx="810.6399656789555" cy="292.5090738196178" r="3.4579336782716004" fill="#CFAE58" opacity="0.23394747630446497"/>
  <circle cx="1116.0996927718566" cy="585.7484784602556" r="2.331862965834417" fill="#CFAE58" opacity="0.10353220085929582"/>
  <circle cx="6.020890054450145" cy="498.2554894731699" r="5.612098775943601" fill="#CFAE58" opacity="0.19186506319637664"/>
  <circle cx="812.2382409722484" cy="200.1827392960926" r="2.4125933171639167" fill="#CFAE58" opacity="0.16834462133299039"/>
  <circle cx="1128.8508111896438" cy="489.18065544736186" r="2.806400786222673" fill="#CFAE58" opacity="0.22285005708291356"/>
  <circle cx="243.32139298559352" cy="29.4055980552045" r="5.339499439347424" fill="#CFAE58" opacity="0.18631849827487929"/>
  <circle cx="401.1746515479348" cy="189.82380322024184" r="2.4930710927107342" fill="#CFAE58" opacity="0.10640530010641489"/>
  <circle cx="117.51666764260516" cy="235.35818790418747" r="2.9819004394055137" fill="#CFAE58" opacity="0.17745588235098114"/>

  <!-- Border with glow -->
  <rect x="40" y="40" width="1120" height="550" fill="none" stroke="url(#goldGradient)" stroke-width="3" rx="12" filter="url(#softGlow)"/>

  <!-- Icon circle with premium background -->
  <circle cx="150" cy="200" r="75" fill="#CFAE58" opacity="0.15" filter="url(#softGlow)"/>
  <circle cx="150" cy="200" r="70" fill="#CFAE58" opacity="0.25"/>
  <text x="150" y="235" font-size="90" text-anchor="middle" fill="#CFAE58" filter="url(#glow)">🦀</text>

  <!-- Premium logo (crown) with enhanced styling -->
  <g transform="translate(100, 70)">
    <path d="M 30 20 L 40 35 L 35 35 Z M 50 15 L 60 35 L 45 35 Z M 65 20 L 75 35 L 70 35 Z M 30 35 L 75 35 L 73 45 L 32 45 Z"
          fill="url(#goldGradient)" filter="url(#glow)" stroke="#B89842" stroke-width="0.5"/>
    <circle cx="40" cy="25" r="3" fill="#4FD1C5" filter="url(#glow)"/>
    <circle cx="52" cy="20" r="4" fill="#4FD1C5" filter="url(#glow)"/>
    <circle cx="65" cy="25" r="3" fill="#4FD1C5" filter="url(#glow)"/>
  </g>

  <!-- Title with shadow -->
  <text x="280" y="180" font-family="Georgia, serif" font-size="72" font-weight="bold"
        fill="url(#goldGradient)" filter="url(#shadow)">Crabbing on Sakhalin</text>

  <!-- Subtitle with subtle glow -->
  <text x="280" y="230" font-family="Arial, sans-serif" font-size="36"
        fill="#D6DEE6" opacity="0.95" filter="url(#softGlow)">King Crab Fishing &amp; Tours</text>

  <!-- Brand name with letter spacing -->
  <text x="280" y="300" font-family="Georgia, serif" font-size="32" font-weight="bold"
        fill="#CFAE58" letter-spacing="4" filter="url(#glow)">ROYAL KETA</text>

  <!-- Russian tagline -->
  <text x="280" y="340" font-family="Arial, sans-serif" font-size="22" font-style="italic"
        fill="#8B95A1" opacity="0.8">От икринки к королевской</text>

  <!-- Location -->
  <text x="280" y="380" font-family="Arial, sans-serif" font-size="20"
        fill="#8B95A1" opacity="0.7">Невельский район, Сахалин</text>

  <!-- Website with glow -->
  <text x="100" y="570" font-family="Arial, sans-serif" font-size="30" font-weight="bold"
        fill="#4FD1C5" filter="url(#glow)">royalketa.com</text>

  <!-- Enhanced decorative salmon silhouette -->
  <g transform="translate(950, 480)" opacity="0.2" filter="url(#softGlow)">
    <ellipse cx="0" cy="0" rx="90" ry="35" fill="#CFAE58"/>
    <path d="M 90 0 L 120 -18 L 130 0 L 120 18 Z" fill="#CFAE58"/>
    <path d="M -25 -35 L 0 -45 L 25 -35 Z" fill="#CFAE58"/>
    <ellipse cx="-50" cy="0" rx="15" ry="12" fill="#0B0F14"/>
  </g>

  <!-- Additional decorative caviar clusters -->
  <g opacity="0.2">
    <circle cx="1050" cy="120" r="6" fill="#CFAE58"/>
    <circle cx="1065" cy="115" r="5" fill="#CFAE58"/>
    <circle cx="1058" cy="130" r="4" fill="#CFAE58"/>
    <circle cx="150" cy="500" r="5" fill="#4FD1C5"/>
    <circle cx="165" cy="508" r="4" fill="#4FD1C5"/>
    <circle cx="140" cy="512" r="5" fill="#4FD1C5"/>
  </g>
</svg>