<svg width="1200" height="630" xmlns="http://www.w3.org/2000/svg">
  <defs>
    <linearGradient id="bgGradient" x1="0%" y1="0%" x2="100%" y2="100%">
      <stop offset="0%" style="stop-color:#0B0F14;stop-opacity:1" />
      <stop offset="50%" style="stop-color:#0F1619;stop-opacity:1" />
      <stop offset="100%" style="stop-color:#0F1922;stop-opacity:1" />
    </linearGradient>
    <linearGradient id="goldGradient" x1="0%" y1="0%" x2="100%" y2="0%">
      <stop offset="0%" style="stop-color:#E5D596;stop-opacity:1" />
      <stop offset="50%" style="stop-color:#CFAE58;stop-opacity:1" />
      <stop offset="100%" style="stop-color:#B89842;stop-opacity:1" />
    </linearGradient>
    <radialGradient id="oceanGradient" cx="50%" cy="50%" r="50%">
      <stop offset="0%" style="stop-color:#4FD1C5;stop-opacity:0.3" />
      <stop offset="100%" style="stop-color:#1E90A0;stop-opacity:0.05" />
    </radialGradient>
    <filter id="glow">
      <feGaussianBlur stdDeviation="5" result="coloredBlur"/>
      <feMerge>
        <feMergeNode in="coloredBlur"/>
        <feMergeNode in="SourceGraphic"/>
      </feMerge>
    </filter>
    <filter id="softGlow">
      <feGaussianBlur stdDeviation="8" result="coloredBlur"/>
      <feMerge>
        <feMergeNode in="coloredBlur"/>
        <feMergeNode in="SourceGraphic"/>
      </feMerge>
    </filter>
    <filter id="shadow">
      <feDropShadow dx="0" dy="4" stdDeviation="8" flood-color="#000000" flood-opacity="0.5"/>
    </filter>
  </defs>

  <!-- Background -->
  <rect width="1200" height="630" fill="url(#bgGradient)"/>

  <!-- Decorative ocean gradients -->
  <ellipse cx="1000" cy="150" rx="300" ry="200" fill="url(#oceanGradient)" opacity="0.4"/>
  <ellipse cx="200" cy="530" rx="250" ry="180" fill="url(#oceanGradient)" opacity="0.3"/>

  <!-- Wave patterns -->
  <path d="M 0 400 Q 300 350 600 400 T 1200 400 L 1200 630 L 0 630 Z" fill="#1E90A0" opacity="0.08"/>
  <path d="M 0 450 Q 250 420 500 450 T 1000 450 T 1200 450 L 1200 630 L 0 630 Z" fill="#4FD1C5" opacity="0.05"/>

  <!-- Caviar roe particles -->
  <circle cx="898.5944131734665" cy="165.3581042658714" r="4.625255265317655" fill="#CFAE58" opacity="0.10774054941743386"/>
  <circle cx="1190.456249254896" cy="583.7382440188042" r="4.0112159558528315" fill="#CFAE58" opacity="0.243683998524302"/>
  <circle cx="59.06488509114149" cy="402.81174083110795" r="3.24293559925747" fill="#CFAE58" opacity="0.17264095413440866"/>
  <circle cx="162.75502525438887" cy="76.29201208316074" r="3.4890229161023494" fill="#CFAE58" opacity="0.22141858745295556"/>
  <circle cx="834.488172707298" cy="109.00886064323649" r="3.5249762531958653" fill="#CFAE58" opacity="0.24365022282448642"/>
  <circle cx="208.1398089473816" cy="624.2369950781509" r="4.0984436711531576" fill="#CFAE58" opacity="0.24070300840129816"/>
  <circle cx="846.9603196287198" cy="454.2054129171219" r="5.60933824396368" fill="#CFAE58" opacity="0.19651174509304586"/>
  <circle cx="235.67325178135374" cy="239.24430844394192" r="3.9260874543447524" fill="#CFAE58" opacity="0.19986298122296373"/>
  <circle cx="751.8417037889784" cy="421.4229019546479" r="3.1284114186263032" fill="#CFAE58" opacity="0.1563397916392219"/>
  <circle cx="861.1784396615178" cy="236.44073743987684" r="2.704315175702971" fill="#CFAE58" opacity="0.24640799832073357"/>
  <circle cx="513.7090201745291" cy="517.610404857474" r="5.487102689098351" fill="#CFAE58" opacity="0.17881130361744713"/>
  <circle cx="463.94265629230057" cy="552.2440493278749" r="4.997937316543625" fill="#CFAE58" opacity="0.24625890223361907"/>
  <circle cx="572.2853044040872" cy="483.2467206467093" r="5.003426787356066" fill="#CFAE58" opacity="0.24579279399734966"/>
  <circle cx="312.6414982737605" cy="261.8590416805966" r="5.6106804902733165" fill="#CFAE58" opacity="0.18727641879854517"/>
  <circle cx="516.380755870474" cy="344.1989574625941" r="5.198058682207497" fill="#CFAE58" opacity="0.2041039520072518"/>
  <circle cx="1141.7613826198708" cy="370.1740136768796" r="2.3108527476227465" fill="#CFAE58" opacity="0.2475266008372445"/>
  <circle cx="357.69705423700304" cy="392.7712844148361" r="4.633053055663769" fill="#CFAE58" opacity="0.2083526354245302"/>
  <circle cx="338.98878259051844" cy="220.10698173581994" r="4.107408806668681" fill="#CFAE58" opacity="0.21157144394966204"/>
  <circle cx="888.8319282811428" cy="164.36665660830076" r="3.40522701801909" fill="#CFAE58" opacity="0.15815435892876983"/>
  <circle cx="681.2986381196052" cy="614.6766721122032" r="3.13478904999168" fill="#CFAE58" opacity="0.24745625183932457"/>
  <circle cx="673.9450317664399" cy="332.57187709208847" r="5.341532165636762" fill="#CFAE58" opacity="0.13932721143816437"/>
  <circle cx="97.77124046416294" cy="349.34691988900835" r="3.931383078371418" fill="#CFAE58" opacity="0.16887758103321926"/>
  <circle cx="674.5649110502554" cy="181.74300579091178" r="5.257477801840459" fill="#CFAE58" opacity="0.15185569681721864"/>
  <circle cx="1156.6887607168032" cy="167.91729653182566" r="5.722979241488105" fill="#CFAE58" opacity="0.2080993903345909"/>
  <circle cx="847.3856287048795" cy="117.64180508510472" r="2.702610835410706" fill="#CFAE58" opacity="0.2260331004021137"/>
  <circle cx="918.3054283455486" cy="345.8955198725697" r="4.5579652430007815" fill="#CFAE58" opacity="0.22785686178043751"/>
  <circle cx="296.1069399570676" cy="122.82341865347229" r="2.2487745306591833" fill="#CFAE58" opacity="0.2485885995146657"/>
  <circle cx="1024.6241798164035" cy="614.4599900248038" r="3.3086430746592064" fill="#CFAE58" opacity="0.1327426305196901"/>
  <circle cx="128.49905450772684" cy="74.40372047073042" r="5.394476824303512" fill="#CFAE58" opacity="0.14240686106658643"/>
  <circle cx="116.76714953258976" cy="564.4151076950556" r="4.21571943256039" fill="#CFAE58" opacity="0.21396948691124185"/>

  <!-- Border with glow -->
  <rect x="40" y="40" width="1120" height="550" fill="none" stroke="url(#goldGradient)" stroke-width="3" rx="12" filter="url(#softGlow)"/>

  <!-- Icon circle with premium background -->
  <circle cx="150" cy="200" r="75" fill="#CFAE58" opacity="0.15" filter="url(#softGlow)"/>
  <circle cx="150" cy="200" r="70" fill="#CFAE58" opacity="0.25"/>
  <text x="150" y="235" font-size="90" text-anchor="middle" fill="#CFAE58" filter="url(#glow)">🦀</text>

  <!-- Premium logo (crown) with enhanced styling -->
  <g transform="translate(100, 70)">
    <path d="M 30 20 L 40 35 L 35 35 Z M 50 15 L 60 35 L 45 35 Z M 65 20 L 75 35 L 70 35 Z M 30 35 L 75 35 L 73 45 L 32 45 Z"
          fill="url(#goldGradient)" filter="url(#glow)" stroke="#B89842" stroke-width="0.5"/>
    <circle cx="40" cy="25" r="3" fill="#4FD1C5" filter="url(#glow)"/>
    <circle cx="52" cy="20" r="4" fill="#4FD1C5" filter="url(#glow)"/>
    <circle cx="65" cy="25" r="3" fill="#4FD1C5" filter="url(#glow)"/>
  </g>

  <!-- Title with shadow -->
  <text x="280" y="180" font-family="Georgia, serif" font-size="72" font-weight="bold"
        fill="url(#goldGradient)" filter="url(#shadow)">Crabbing on Sakhalin</text>

  <!-- Subtitle with subtle glow -->
  <text x="280" y="230" font-family="Arial, sans-serif" font-size="36"
        fill="#D6DEE6" opacity="0.95" filter="url(#softGlow)">King Crab Fishing &amp; Tours</text>

  <!-- Brand name with letter spacing -->
  <text x="280" y="300" font-family="Georgia, serif" font-size="32" font-weight="bold"
        fill="#CFAE58" letter-spacing="4" filter="url(#glow)">ROYAL KETA</text>

  <!-- Russian tagline -->
  <text x="280" y="340" font-family="Arial, sans-serif" font-size="22" font-style="italic"
        fill="#8B95A1" opacity="0.8">От икринки к королевской</text>

  <!-- Location -->
  <text x="280" y="380" font-family="Arial, sans-serif" font-size="20"
        fill="#8B95A1" opacity="0.7">Невельский район, Сахалин</text>

  <!-- Website with glow -->
  <text x="100" y="570" font-family="Arial, sans-serif" font-size="30" font-weight="bold"
        fill="#4FD1C5" filter="url(#glow)">royalketa.com</text>

  <!-- Enhanced decorative salmon silhouette -->
  <g transform="translate(950, 480)" opacity="0.2" filter="url(#softGlow)">
    <ellipse cx="0" cy="0" rx="90" ry="35" fill="#CFAE58"/>
    <path d="M 90 0 L 120 -18 L 130 0 L 120 18 Z" fill="#CFAE58"/>
    <path d="M -25 -35 L 0 -45 L 25 -35 Z" fill="#CFAE58"/>
    <ellipse cx="-50" cy="0" rx="15" ry="12" fill="#0B0F14"/>
  </g>

  <!-- Additional decorative caviar clusters -->
  <g opacity="0.2">
    <circle cx="1050" cy="120" r="6" fill="#CFAE58"/>
    <circle cx="1065" cy="115" r="5" fill="#CFAE58"/>
    <circle cx="1058" cy="130" r="4" fill="#CFAE58"/>
    <circle cx="150" cy="500" r="5" fill="#4FD1C5"/>
    <circle cx="165" cy="508" r="4" fill="#4FD1C5"/>
    <circle cx="140" cy="512" r="5" fill="#4FD1C5"/>
  </g>
</svg>