<svg width="1200" height="630" xmlns="http://www.w3.org/2000/svg">
  <defs>
    <linearGradient id="bgGradient" x1="0%" y1="0%" x2="100%" y2="100%">
      <stop offset="0%" style="stop-color:#0B0F14;stop-opacity:1" />
      <stop offset="50%" style="stop-color:#0F1619;stop-opacity:1" />
      <stop offset="100%" style="stop-color:#0F1922;stop-opacity:1" />
    </linearGradient>
    <linearGradient id="goldGradient" x1="0%" y1="0%" x2="100%" y2="0%">
      <stop offset="0%" style="stop-color:#E5D596;stop-opacity:1" />
      <stop offset="50%" style="stop-color:#CFAE58;stop-opacity:1" />
      <stop offset="100%" style="stop-color:#B89842;stop-opacity:1" />
    </linearGradient>
    <radialGradient id="oceanGradient" cx="50%" cy="50%" r="50%">
      <stop offset="0%" style="stop-color:#4FD1C5;stop-opacity:0.3" />
      <stop offset="100%" style="stop-color:#1E90A0;stop-opacity:0.05" />
    </radialGradient>
    <filter id="glow">
      <feGaussianBlur stdDeviation="5" result="coloredBlur"/>
      <feMerge>
        <feMergeNode in="coloredBlur"/>
        <feMergeNode in="SourceGraphic"/>
      </feMerge>
    </filter>
    <filter id="softGlow">
      <feGaussianBlur stdDeviation="8" result="coloredBlur"/>
      <feMerge>
        <feMergeNode in="coloredBlur"/>
        <feMergeNode in="SourceGraphic"/>
      </feMerge>
    </filter>
    <filter id="shadow">
      <feDropShadow dx="0" dy="4" stdDeviation="8" flood-color="#000000" flood-opacity="0.5"/>
    </filter>
  </defs>

  <!-- Background -->
  <rect width="1200" height="630" fill="url(#bgGradient)"/>

  <!-- Decorative ocean gradients -->
  <ellipse cx="1000" cy="150" rx="300" ry="200" fill="url(#oceanGradient)" opacity="0.4"/>
  <ellipse cx="200" cy="530" rx="250" ry="180" fill="url(#oceanGradient)" opacity="0.3"/>

  <!-- Wave patterns -->
  <path d="M 0 400 Q 300 350 600 400 T 1200 400 L 1200 630 L 0 630 Z" fill="#1E90A0" opacity="0.08"/>
  <path d="M 0 450 Q 250 420 500 450 T 1000 450 T 1200 450 L 1200 630 L 0 630 Z" fill="#4FD1C5" opacity="0.05"/>

  <!-- Caviar roe particles -->
  <circle cx="809.7144233534572" cy="201.49088529340395" r="3.839710490550284" fill="#CFAE58" opacity="0.14635576758904772"/>
  <circle cx="708.7613122026071" cy="179.43669274945518" r="4.398773324441408" fill="#CFAE58" opacity="0.12332372003939243"/>
  <circle cx="386.8300330654639" cy="81.47164076821439" r="5.540191920588471" fill="#CFAE58" opacity="0.23715508274745586"/>
  <circle cx="834.6167176299201" cy="304.59179499681574" r="2.961190678733889" fill="#CFAE58" opacity="0.24341105873475813"/>
  <circle cx="705.2643831040597" cy="309.60416644519194" r="2.7458089664670746" fill="#CFAE58" opacity="0.192995651957875"/>
  <circle cx="796.6534277391518" cy="359.3596335291165" r="3.014867058074069" fill="#CFAE58" opacity="0.20041107789163362"/>
  <circle cx="341.6934925785488" cy="343.00100541725055" r="2.430813715034894" fill="#CFAE58" opacity="0.1490408437735865"/>
  <circle cx="1123.9654048740942" cy="550.163530832722" r="4.157308448752102" fill="#CFAE58" opacity="0.13622154129959532"/>
  <circle cx="763.018667526072" cy="77.39587616572135" r="4.271132076040705" fill="#CFAE58" opacity="0.22723490011756348"/>
  <circle cx="174.57724954416102" cy="223.8937664842553" r="4.056041233842268" fill="#CFAE58" opacity="0.1340050260115929"/>
  <circle cx="833.4116538482272" cy="110.31117976582098" r="4.039306699502269" fill="#CFAE58" opacity="0.10239479538900625"/>
  <circle cx="1057.7356915203516" cy="474.2525876895471" r="3.4929878685881235" fill="#CFAE58" opacity="0.19152723572184333"/>
  <circle cx="458.1711720847146" cy="296.15315430576766" r="4.814516391199276" fill="#CFAE58" opacity="0.10611983132762623"/>
  <circle cx="355.5401743600276" cy="279.8684940690499" r="2.178196998370275" fill="#CFAE58" opacity="0.17239428767878814"/>
  <circle cx="46.99437334633929" cy="560.9472692595012" r="5.979948087139156" fill="#CFAE58" opacity="0.17532507687256782"/>
  <circle cx="1068.3462547968509" cy="117.65248163425262" r="5.187642574580301" fill="#CFAE58" opacity="0.2484398863234554"/>
  <circle cx="23.401767200562773" cy="505.6918799895059" r="3.9647215385874572" fill="#CFAE58" opacity="0.1760277901544403"/>
  <circle cx="577.4291794714608" cy="325.14359383531263" r="5.704979453573981" fill="#CFAE58" opacity="0.17055080654649002"/>
  <circle cx="300.9496926924871" cy="107.3689936600316" r="3.9819441238277697" fill="#CFAE58" opacity="0.24116438591664804"/>
  <circle cx="549.9765847281625" cy="410.9814543141995" r="3.6570247269144076" fill="#CFAE58" opacity="0.23068031794700183"/>
  <circle cx="79.76898777890247" cy="252.05230527465494" r="5.024617059133017" fill="#CFAE58" opacity="0.2103990454860008"/>
  <circle cx="430.3269122951384" cy="367.2012283739358" r="3.1957614468186346" fill="#CFAE58" opacity="0.1585234891376498"/>
  <circle cx="244.84964945454442" cy="20.883900563456585" r="4.5122116143499955" fill="#CFAE58" opacity="0.12354713980635056"/>
  <circle cx="400.19529334454063" cy="577.9721097056686" r="4.219446751398579" fill="#CFAE58" opacity="0.19977216375468806"/>
  <circle cx="882.2837727815347" cy="60.5387814847555" r="5.794264000757204" fill="#CFAE58" opacity="0.2414756913144042"/>
  <circle cx="1122.2948920683962" cy="429.8395711032403" r="3.1820559694940123" fill="#CFAE58" opacity="0.13505307204570904"/>
  <circle cx="507.9040983897525" cy="455.4414980029328" r="5.783745839054083" fill="#CFAE58" opacity="0.2136127866948983"/>
  <circle cx="1101.200988032888" cy="368.0058167985146" r="3.3389583431777234" fill="#CFAE58" opacity="0.13231169519363786"/>
  <circle cx="523.3892514758868" cy="150.14200090577722" r="3.844021388669937" fill="#CFAE58" opacity="0.12200824794380738"/>
  <circle cx="202.05637993317103" cy="340.71814263535913" r="3.2684492772076092" fill="#CFAE58" opacity="0.12793844265043225"/>

  <!-- Border with glow -->
  <rect x="40" y="40" width="1120" height="550" fill="none" stroke="url(#goldGradient)" stroke-width="3" rx="12" filter="url(#softGlow)"/>

  <!-- Icon circle with premium background -->
  <circle cx="150" cy="200" r="75" fill="#CFAE58" opacity="0.15" filter="url(#softGlow)"/>
  <circle cx="150" cy="200" r="70" fill="#CFAE58" opacity="0.25"/>
  <text x="150" y="235" font-size="90" text-anchor="middle" fill="#CFAE58" filter="url(#glow)">🦀</text>

  <!-- Premium logo (crown) with enhanced styling -->
  <g transform="translate(100, 70)">
    <path d="M 30 20 L 40 35 L 35 35 Z M 50 15 L 60 35 L 45 35 Z M 65 20 L 75 35 L 70 35 Z M 30 35 L 75 35 L 73 45 L 32 45 Z"
          fill="url(#goldGradient)" filter="url(#glow)" stroke="#B89842" stroke-width="0.5"/>
    <circle cx="40" cy="25" r="3" fill="#4FD1C5" filter="url(#glow)"/>
    <circle cx="52" cy="20" r="4" fill="#4FD1C5" filter="url(#glow)"/>
    <circle cx="65" cy="25" r="3" fill="#4FD1C5" filter="url(#glow)"/>
  </g>

  <!-- Title with shadow -->
  <text x="280" y="180" font-family="Georgia, serif" font-size="72" font-weight="bold"
        fill="url(#goldGradient)" filter="url(#shadow)">Crabbing on Sakhalin</text>

  <!-- Subtitle with subtle glow -->
  <text x="280" y="230" font-family="Arial, sans-serif" font-size="36"
        fill="#D6DEE6" opacity="0.95" filter="url(#softGlow)">King Crab Fishing &amp; Tours</text>

  <!-- Brand name with letter spacing -->
  <text x="280" y="300" font-family="Georgia, serif" font-size="32" font-weight="bold"
        fill="#CFAE58" letter-spacing="4" filter="url(#glow)">ROYAL KETA</text>

  <!-- Russian tagline -->
  <text x="280" y="340" font-family="Arial, sans-serif" font-size="22" font-style="italic"
        fill="#8B95A1" opacity="0.8">От икринки к королевской</text>

  <!-- Location -->
  <text x="280" y="380" font-family="Arial, sans-serif" font-size="20"
        fill="#8B95A1" opacity="0.7">Невельский район, Сахалин</text>

  <!-- Website with glow -->
  <text x="100" y="570" font-family="Arial, sans-serif" font-size="30" font-weight="bold"
        fill="#4FD1C5" filter="url(#glow)">royalketa.com</text>

  <!-- Enhanced decorative salmon silhouette -->
  <g transform="translate(950, 480)" opacity="0.2" filter="url(#softGlow)">
    <ellipse cx="0" cy="0" rx="90" ry="35" fill="#CFAE58"/>
    <path d="M 90 0 L 120 -18 L 130 0 L 120 18 Z" fill="#CFAE58"/>
    <path d="M -25 -35 L 0 -45 L 25 -35 Z" fill="#CFAE58"/>
    <ellipse cx="-50" cy="0" rx="15" ry="12" fill="#0B0F14"/>
  </g>

  <!-- Additional decorative caviar clusters -->
  <g opacity="0.2">
    <circle cx="1050" cy="120" r="6" fill="#CFAE58"/>
    <circle cx="1065" cy="115" r="5" fill="#CFAE58"/>
    <circle cx="1058" cy="130" r="4" fill="#CFAE58"/>
    <circle cx="150" cy="500" r="5" fill="#4FD1C5"/>
    <circle cx="165" cy="508" r="4" fill="#4FD1C5"/>
    <circle cx="140" cy="512" r="5" fill="#4FD1C5"/>
  </g>
</svg>