<svg width="1200" height="630" xmlns="http://www.w3.org/2000/svg">
  <defs>
    <linearGradient id="bgGradient" x1="0%" y1="0%" x2="100%" y2="100%">
      <stop offset="0%" style="stop-color:#0B0F14;stop-opacity:1" />
      <stop offset="50%" style="stop-color:#0F1619;stop-opacity:1" />
      <stop offset="100%" style="stop-color:#0F1922;stop-opacity:1" />
    </linearGradient>
    <linearGradient id="goldGradient" x1="0%" y1="0%" x2="100%" y2="0%">
      <stop offset="0%" style="stop-color:#E5D596;stop-opacity:1" />
      <stop offset="50%" style="stop-color:#CFAE58;stop-opacity:1" />
      <stop offset="100%" style="stop-color:#B89842;stop-opacity:1" />
    </linearGradient>
    <radialGradient id="oceanGradient" cx="50%" cy="50%" r="50%">
      <stop offset="0%" style="stop-color:#4FD1C5;stop-opacity:0.3" />
      <stop offset="100%" style="stop-color:#1E90A0;stop-opacity:0.05" />
    </radialGradient>
    <filter id="glow">
      <feGaussianBlur stdDeviation="5" result="coloredBlur"/>
      <feMerge>
        <feMergeNode in="coloredBlur"/>
        <feMergeNode in="SourceGraphic"/>
      </feMerge>
    </filter>
    <filter id="softGlow">
      <feGaussianBlur stdDeviation="8" result="coloredBlur"/>
      <feMerge>
        <feMergeNode in="coloredBlur"/>
        <feMergeNode in="SourceGraphic"/>
      </feMerge>
    </filter>
    <filter id="shadow">
      <feDropShadow dx="0" dy="4" stdDeviation="8" flood-color="#000000" flood-opacity="0.5"/>
    </filter>
  </defs>

  <!-- Background -->
  <rect width="1200" height="630" fill="url(#bgGradient)"/>

  <!-- Decorative ocean gradients -->
  <ellipse cx="1000" cy="150" rx="300" ry="200" fill="url(#oceanGradient)" opacity="0.4"/>
  <ellipse cx="200" cy="530" rx="250" ry="180" fill="url(#oceanGradient)" opacity="0.3"/>

  <!-- Wave patterns -->
  <path d="M 0 400 Q 300 350 600 400 T 1200 400 L 1200 630 L 0 630 Z" fill="#1E90A0" opacity="0.08"/>
  <path d="M 0 450 Q 250 420 500 450 T 1000 450 T 1200 450 L 1200 630 L 0 630 Z" fill="#4FD1C5" opacity="0.05"/>

  <!-- Caviar roe particles -->
  <circle cx="411.9812448246409" cy="546.5336115594498" r="4.7200866488522575" fill="#CFAE58" opacity="0.11375668175611148"/>
  <circle cx="429.9394921451547" cy="34.48986939032707" r="3.902497851239439" fill="#CFAE58" opacity="0.23744496609977556"/>
  <circle cx="1108.4356064829199" cy="95.41135538420791" r="5.234506617650535" fill="#CFAE58" opacity="0.2278479075965922"/>
  <circle cx="176.49395796469742" cy="280.4484582427525" r="5.976955732021114" fill="#CFAE58" opacity="0.24624969001738797"/>
  <circle cx="908.5853257009676" cy="603.4239930763008" r="2.6797676671339556" fill="#CFAE58" opacity="0.11668122579279949"/>
  <circle cx="876.9965959338834" cy="502.3614292223981" r="3.387177556653632" fill="#CFAE58" opacity="0.23249986405340195"/>
  <circle cx="544.9425898366802" cy="74.97587142954599" r="3.497043233321164" fill="#CFAE58" opacity="0.12674302617879157"/>
  <circle cx="131.8661829212486" cy="29.9381699332991" r="5.332192311597088" fill="#CFAE58" opacity="0.18167094565271197"/>
  <circle cx="1123.7888851852701" cy="81.84474245656382" r="4.329565219434078" fill="#CFAE58" opacity="0.23691663802544113"/>
  <circle cx="887.6429210678444" cy="576.4826261196764" r="2.04391781579994" fill="#CFAE58" opacity="0.12782458867538593"/>
  <circle cx="660.7614416784724" cy="556.8943219258457" r="3.1431556485187198" fill="#CFAE58" opacity="0.13613524894146833"/>
  <circle cx="536.3376656062126" cy="510.14243797542895" r="4.698125395099781" fill="#CFAE58" opacity="0.12751226367445026"/>
  <circle cx="1065.649134507254" cy="202.41095457105015" r="5.030755252802798" fill="#CFAE58" opacity="0.18095409454868255"/>
  <circle cx="905.8477224127105" cy="249.01635212534666" r="5.616332656696381" fill="#CFAE58" opacity="0.1688593679877089"/>
  <circle cx="590.3659248843594" cy="595.7863731711096" r="4.566057286830974" fill="#CFAE58" opacity="0.2236218247225383"/>
  <circle cx="83.2193473389688" cy="414.86626923122583" r="5.763496059058526" fill="#CFAE58" opacity="0.14275789973489078"/>
  <circle cx="1154.1751821231016" cy="529.6847594769806" r="3.5233908900617186" fill="#CFAE58" opacity="0.13293714326293063"/>
  <circle cx="303.6119126980027" cy="339.4116274500495" r="5.924605939558802" fill="#CFAE58" opacity="0.14360678591800421"/>
  <circle cx="329.63704563974215" cy="156.89574575013148" r="2.909299976443088" fill="#CFAE58" opacity="0.14851092113377795"/>
  <circle cx="136.95651914931082" cy="279.237717856613" r="5.337366927118064" fill="#CFAE58" opacity="0.2215341345090518"/>
  <circle cx="351.3242215235347" cy="545.9187707067167" r="3.2126817009070123" fill="#CFAE58" opacity="0.16821400924598212"/>
  <circle cx="49.62060938637749" cy="218.08062010616825" r="2.9418699411885396" fill="#CFAE58" opacity="0.1567000391977405"/>
  <circle cx="257.3851226386837" cy="317.78897037964026" r="5.814636833805202" fill="#CFAE58" opacity="0.13134351227174834"/>
  <circle cx="703.65176308315" cy="587.4942519161563" r="3.304112992833212" fill="#CFAE58" opacity="0.17641803470808198"/>
  <circle cx="796.340056321922" cy="9.725851967239038" r="2.8230388737104755" fill="#CFAE58" opacity="0.22490895184087203"/>
  <circle cx="580.4431347119465" cy="455.6370876688116" r="2.664759592132714" fill="#CFAE58" opacity="0.17334407445808964"/>
  <circle cx="663.6082283626453" cy="446.71888065138415" r="3.303637704761522" fill="#CFAE58" opacity="0.19166278503344708"/>
  <circle cx="387.10321646559026" cy="251.22265526705576" r="3.5641986440948745" fill="#CFAE58" opacity="0.15007906571092516"/>
  <circle cx="698.7166846471032" cy="621.2140021174703" r="5.73230196488324" fill="#CFAE58" opacity="0.18418375158993694"/>
  <circle cx="127.93800508080446" cy="310.0399665426351" r="3.601289273797544" fill="#CFAE58" opacity="0.14020810791500585"/>

  <!-- Border with glow -->
  <rect x="40" y="40" width="1120" height="550" fill="none" stroke="url(#goldGradient)" stroke-width="3" rx="12" filter="url(#softGlow)"/>

  <!-- Icon circle with premium background -->
  <circle cx="150" cy="200" r="75" fill="#CFAE58" opacity="0.15" filter="url(#softGlow)"/>
  <circle cx="150" cy="200" r="70" fill="#CFAE58" opacity="0.25"/>
  <text x="150" y="235" font-size="90" text-anchor="middle" fill="#CFAE58" filter="url(#glow)">🦀</text>

  <!-- Premium logo (crown) with enhanced styling -->
  <g transform="translate(100, 70)">
    <path d="M 30 20 L 40 35 L 35 35 Z M 50 15 L 60 35 L 45 35 Z M 65 20 L 75 35 L 70 35 Z M 30 35 L 75 35 L 73 45 L 32 45 Z"
          fill="url(#goldGradient)" filter="url(#glow)" stroke="#B89842" stroke-width="0.5"/>
    <circle cx="40" cy="25" r="3" fill="#4FD1C5" filter="url(#glow)"/>
    <circle cx="52" cy="20" r="4" fill="#4FD1C5" filter="url(#glow)"/>
    <circle cx="65" cy="25" r="3" fill="#4FD1C5" filter="url(#glow)"/>
  </g>

  <!-- Title with shadow -->
  <text x="280" y="180" font-family="Georgia, serif" font-size="72" font-weight="bold"
        fill="url(#goldGradient)" filter="url(#shadow)">Crabbing on Sakhalin</text>

  <!-- Subtitle with subtle glow -->
  <text x="280" y="230" font-family="Arial, sans-serif" font-size="36"
        fill="#D6DEE6" opacity="0.95" filter="url(#softGlow)">King Crab Fishing &amp; Tours</text>

  <!-- Brand name with letter spacing -->
  <text x="280" y="300" font-family="Georgia, serif" font-size="32" font-weight="bold"
        fill="#CFAE58" letter-spacing="4" filter="url(#glow)">ROYAL KETA</text>

  <!-- Russian tagline -->
  <text x="280" y="340" font-family="Arial, sans-serif" font-size="22" font-style="italic"
        fill="#8B95A1" opacity="0.8">От икринки к королевской</text>

  <!-- Location -->
  <text x="280" y="380" font-family="Arial, sans-serif" font-size="20"
        fill="#8B95A1" opacity="0.7">Невельский район, Сахалин</text>

  <!-- Website with glow -->
  <text x="100" y="570" font-family="Arial, sans-serif" font-size="30" font-weight="bold"
        fill="#4FD1C5" filter="url(#glow)">royalketa.com</text>

  <!-- Enhanced decorative salmon silhouette -->
  <g transform="translate(950, 480)" opacity="0.2" filter="url(#softGlow)">
    <ellipse cx="0" cy="0" rx="90" ry="35" fill="#CFAE58"/>
    <path d="M 90 0 L 120 -18 L 130 0 L 120 18 Z" fill="#CFAE58"/>
    <path d="M -25 -35 L 0 -45 L 25 -35 Z" fill="#CFAE58"/>
    <ellipse cx="-50" cy="0" rx="15" ry="12" fill="#0B0F14"/>
  </g>

  <!-- Additional decorative caviar clusters -->
  <g opacity="0.2">
    <circle cx="1050" cy="120" r="6" fill="#CFAE58"/>
    <circle cx="1065" cy="115" r="5" fill="#CFAE58"/>
    <circle cx="1058" cy="130" r="4" fill="#CFAE58"/>
    <circle cx="150" cy="500" r="5" fill="#4FD1C5"/>
    <circle cx="165" cy="508" r="4" fill="#4FD1C5"/>
    <circle cx="140" cy="512" r="5" fill="#4FD1C5"/>
  </g>
</svg>