<svg width="1200" height="630" xmlns="http://www.w3.org/2000/svg">
  <defs>
    <linearGradient id="bgGradient" x1="0%" y1="0%" x2="100%" y2="100%">
      <stop offset="0%" style="stop-color:#0B0F14;stop-opacity:1" />
      <stop offset="50%" style="stop-color:#0F1619;stop-opacity:1" />
      <stop offset="100%" style="stop-color:#0F1922;stop-opacity:1" />
    </linearGradient>
    <linearGradient id="goldGradient" x1="0%" y1="0%" x2="100%" y2="0%">
      <stop offset="0%" style="stop-color:#E5D596;stop-opacity:1" />
      <stop offset="50%" style="stop-color:#CFAE58;stop-opacity:1" />
      <stop offset="100%" style="stop-color:#B89842;stop-opacity:1" />
    </linearGradient>
    <radialGradient id="oceanGradient" cx="50%" cy="50%" r="50%">
      <stop offset="0%" style="stop-color:#4FD1C5;stop-opacity:0.3" />
      <stop offset="100%" style="stop-color:#1E90A0;stop-opacity:0.05" />
    </radialGradient>
    <filter id="glow">
      <feGaussianBlur stdDeviation="5" result="coloredBlur"/>
      <feMerge>
        <feMergeNode in="coloredBlur"/>
        <feMergeNode in="SourceGraphic"/>
      </feMerge>
    </filter>
    <filter id="softGlow">
      <feGaussianBlur stdDeviation="8" result="coloredBlur"/>
      <feMerge>
        <feMergeNode in="coloredBlur"/>
        <feMergeNode in="SourceGraphic"/>
      </feMerge>
    </filter>
    <filter id="shadow">
      <feDropShadow dx="0" dy="4" stdDeviation="8" flood-color="#000000" flood-opacity="0.5"/>
    </filter>
  </defs>

  <!-- Background -->
  <rect width="1200" height="630" fill="url(#bgGradient)"/>

  <!-- Decorative ocean gradients -->
  <ellipse cx="1000" cy="150" rx="300" ry="200" fill="url(#oceanGradient)" opacity="0.4"/>
  <ellipse cx="200" cy="530" rx="250" ry="180" fill="url(#oceanGradient)" opacity="0.3"/>

  <!-- Wave patterns -->
  <path d="M 0 400 Q 300 350 600 400 T 1200 400 L 1200 630 L 0 630 Z" fill="#1E90A0" opacity="0.08"/>
  <path d="M 0 450 Q 250 420 500 450 T 1000 450 T 1200 450 L 1200 630 L 0 630 Z" fill="#4FD1C5" opacity="0.05"/>

  <!-- Caviar roe particles -->
  <circle cx="305.21498802230906" cy="340.67240042663565" r="4.5912305985441275" fill="#CFAE58" opacity="0.2085266039633377"/>
  <circle cx="187.32822859276305" cy="448.4254373082612" r="3.040260708562223" fill="#CFAE58" opacity="0.11510156859044444"/>
  <circle cx="723.8327629324741" cy="473.17270721657457" r="2.4008780783679136" fill="#CFAE58" opacity="0.15442524885311426"/>
  <circle cx="530.2072340713264" cy="415.0722811364158" r="3.675164078390564" fill="#CFAE58" opacity="0.13905474254082725"/>
  <circle cx="1131.974007709724" cy="237.0301450005861" r="3.0441121235420274" fill="#CFAE58" opacity="0.24909623616586485"/>
  <circle cx="114.53442244862701" cy="115.02620623133535" r="3.473941044006364" fill="#CFAE58" opacity="0.23069552815718858"/>
  <circle cx="1023.5417397779227" cy="461.38362980033634" r="3.058797424455326" fill="#CFAE58" opacity="0.11641164827604135"/>
  <circle cx="544.3109280651715" cy="311.7299969078121" r="5.027656457273641" fill="#CFAE58" opacity="0.14350485727075488"/>
  <circle cx="561.9363763046954" cy="579.1712043202128" r="3.228935633081038" fill="#CFAE58" opacity="0.10938626010761915"/>
  <circle cx="538.2544289037106" cy="18.42874767652741" r="4.976725479909925" fill="#CFAE58" opacity="0.2137943711917133"/>
  <circle cx="1120.7017981630663" cy="605.801582013" r="5.533529272496889" fill="#CFAE58" opacity="0.14804149758627366"/>
  <circle cx="344.57015675736307" cy="600.9188296274758" r="5.320429044175173" fill="#CFAE58" opacity="0.15599782759645203"/>
  <circle cx="914.1250536262287" cy="375.49424289484705" r="5.085107622477616" fill="#CFAE58" opacity="0.10401371758757341"/>
  <circle cx="572.0955455608233" cy="22.691082980172485" r="3.902085323930921" fill="#CFAE58" opacity="0.23794081704058126"/>
  <circle cx="404.73085894953414" cy="28.155587747579222" r="5.9865911640460805" fill="#CFAE58" opacity="0.18309192910848548"/>
  <circle cx="505.44921378462516" cy="321.60426113935324" r="5.312747116195115" fill="#CFAE58" opacity="0.19020563620224382"/>
  <circle cx="991.8194702167" cy="82.27200787452081" r="5.2814207691282276" fill="#CFAE58" opacity="0.21859376828944907"/>
  <circle cx="296.70984549077673" cy="613.9764225925734" r="3.4280665467114853" fill="#CFAE58" opacity="0.21966318661333256"/>
  <circle cx="923.8851530119249" cy="311.8483858503731" r="5.531171013359119" fill="#CFAE58" opacity="0.19654452620366636"/>
  <circle cx="1112.264250467852" cy="565.7118134888306" r="2.324269824492215" fill="#CFAE58" opacity="0.20102365668530306"/>
  <circle cx="570.7764752734261" cy="124.41191897259286" r="3.9934392960083622" fill="#CFAE58" opacity="0.211581932623009"/>
  <circle cx="333.70821855550884" cy="363.8023414843296" r="3.4172766475278014" fill="#CFAE58" opacity="0.10181204302711852"/>
  <circle cx="575.5783278934254" cy="520.9489309140091" r="3.606397061920064" fill="#CFAE58" opacity="0.20037003370293544"/>
  <circle cx="203.59538584307728" cy="74.24491154048008" r="2.142315500182751" fill="#CFAE58" opacity="0.24173934879970502"/>
  <circle cx="882.870235655214" cy="629.5574020288269" r="2.491550141917476" fill="#CFAE58" opacity="0.2400883804792637"/>
  <circle cx="408.42599678286325" cy="614.9680080367916" r="3.5551036843338872" fill="#CFAE58" opacity="0.23433896595286197"/>
  <circle cx="163.90972103596891" cy="563.2486080052641" r="5.4284167838978306" fill="#CFAE58" opacity="0.22980603962260662"/>
  <circle cx="954.3774322509175" cy="304.25077914564184" r="5.499217241616907" fill="#CFAE58" opacity="0.13716514598900512"/>
  <circle cx="560.841835606594" cy="347.01192221109625" r="5.41050726340295" fill="#CFAE58" opacity="0.19723619129784464"/>
  <circle cx="797.9766131617962" cy="62.84613785972086" r="3.312678768699856" fill="#CFAE58" opacity="0.1728503917720914"/>

  <!-- Border with glow -->
  <rect x="40" y="40" width="1120" height="550" fill="none" stroke="url(#goldGradient)" stroke-width="3" rx="12" filter="url(#softGlow)"/>

  <!-- Icon circle with premium background -->
  <circle cx="150" cy="200" r="75" fill="#CFAE58" opacity="0.15" filter="url(#softGlow)"/>
  <circle cx="150" cy="200" r="70" fill="#CFAE58" opacity="0.25"/>
  <text x="150" y="235" font-size="90" text-anchor="middle" fill="#CFAE58" filter="url(#glow)">🦀</text>

  <!-- Premium logo (crown) with enhanced styling -->
  <g transform="translate(100, 70)">
    <path d="M 30 20 L 40 35 L 35 35 Z M 50 15 L 60 35 L 45 35 Z M 65 20 L 75 35 L 70 35 Z M 30 35 L 75 35 L 73 45 L 32 45 Z"
          fill="url(#goldGradient)" filter="url(#glow)" stroke="#B89842" stroke-width="0.5"/>
    <circle cx="40" cy="25" r="3" fill="#4FD1C5" filter="url(#glow)"/>
    <circle cx="52" cy="20" r="4" fill="#4FD1C5" filter="url(#glow)"/>
    <circle cx="65" cy="25" r="3" fill="#4FD1C5" filter="url(#glow)"/>
  </g>

  <!-- Title with shadow -->
  <text x="280" y="180" font-family="Georgia, serif" font-size="72" font-weight="bold"
        fill="url(#goldGradient)" filter="url(#shadow)">Crabbing on Sakhalin</text>

  <!-- Subtitle with subtle glow -->
  <text x="280" y="230" font-family="Arial, sans-serif" font-size="36"
        fill="#D6DEE6" opacity="0.95" filter="url(#softGlow)">King Crab Fishing & Tours</text>

  <!-- Brand name with letter spacing -->
  <text x="280" y="300" font-family="Georgia, serif" font-size="32" font-weight="bold"
        fill="#CFAE58" letter-spacing="4" filter="url(#glow)">ROYAL KETA</text>

  <!-- Russian tagline -->
  <text x="280" y="340" font-family="Arial, sans-serif" font-size="22" font-style="italic"
        fill="#8B95A1" opacity="0.8">От икринки к королевской</text>

  <!-- Location -->
  <text x="280" y="380" font-family="Arial, sans-serif" font-size="20"
        fill="#8B95A1" opacity="0.7">Невельский район, Сахалин</text>

  <!-- Website with glow -->
  <text x="100" y="570" font-family="Arial, sans-serif" font-size="30" font-weight="bold"
        fill="#4FD1C5" filter="url(#glow)">royalketa.com</text>

  <!-- Enhanced decorative salmon silhouette -->
  <g transform="translate(950, 480)" opacity="0.2" filter="url(#softGlow)">
    <ellipse cx="0" cy="0" rx="90" ry="35" fill="#CFAE58"/>
    <path d="M 90 0 L 120 -18 L 130 0 L 120 18 Z" fill="#CFAE58"/>
    <path d="M -25 -35 L 0 -45 L 25 -35 Z" fill="#CFAE58"/>
    <ellipse cx="-50" cy="0" rx="15" ry="12" fill="#0B0F14"/>
  </g>

  <!-- Additional decorative caviar clusters -->
  <g opacity="0.2">
    <circle cx="1050" cy="120" r="6" fill="#CFAE58"/>
    <circle cx="1065" cy="115" r="5" fill="#CFAE58"/>
    <circle cx="1058" cy="130" r="4" fill="#CFAE58"/>
    <circle cx="150" cy="500" r="5" fill="#4FD1C5"/>
    <circle cx="165" cy="508" r="4" fill="#4FD1C5"/>
    <circle cx="140" cy="512" r="5" fill="#4FD1C5"/>
  </g>
</svg>