<svg width="1200" height="630" xmlns="http://www.w3.org/2000/svg">
  <defs>
    <linearGradient id="bgGradient" x1="0%" y1="0%" x2="100%" y2="100%">
      <stop offset="0%" style="stop-color:#0B0F14;stop-opacity:1" />
      <stop offset="50%" style="stop-color:#0F1619;stop-opacity:1" />
      <stop offset="100%" style="stop-color:#0F1922;stop-opacity:1" />
    </linearGradient>
    <linearGradient id="goldGradient" x1="0%" y1="0%" x2="100%" y2="0%">
      <stop offset="0%" style="stop-color:#E5D596;stop-opacity:1" />
      <stop offset="50%" style="stop-color:#CFAE58;stop-opacity:1" />
      <stop offset="100%" style="stop-color:#B89842;stop-opacity:1" />
    </linearGradient>
    <radialGradient id="oceanGradient" cx="50%" cy="50%" r="50%">
      <stop offset="0%" style="stop-color:#4FD1C5;stop-opacity:0.3" />
      <stop offset="100%" style="stop-color:#1E90A0;stop-opacity:0.05" />
    </radialGradient>
    <filter id="glow">
      <feGaussianBlur stdDeviation="5" result="coloredBlur"/>
      <feMerge>
        <feMergeNode in="coloredBlur"/>
        <feMergeNode in="SourceGraphic"/>
      </feMerge>
    </filter>
    <filter id="softGlow">
      <feGaussianBlur stdDeviation="8" result="coloredBlur"/>
      <feMerge>
        <feMergeNode in="coloredBlur"/>
        <feMergeNode in="SourceGraphic"/>
      </feMerge>
    </filter>
    <filter id="shadow">
      <feDropShadow dx="0" dy="4" stdDeviation="8" flood-color="#000000" flood-opacity="0.5"/>
    </filter>
  </defs>

  <!-- Background -->
  <rect width="1200" height="630" fill="url(#bgGradient)"/>

  <!-- Decorative ocean gradients -->
  <ellipse cx="1000" cy="150" rx="300" ry="200" fill="url(#oceanGradient)" opacity="0.4"/>
  <ellipse cx="200" cy="530" rx="250" ry="180" fill="url(#oceanGradient)" opacity="0.3"/>

  <!-- Wave patterns -->
  <path d="M 0 400 Q 300 350 600 400 T 1200 400 L 1200 630 L 0 630 Z" fill="#1E90A0" opacity="0.08"/>
  <path d="M 0 450 Q 250 420 500 450 T 1000 450 T 1200 450 L 1200 630 L 0 630 Z" fill="#4FD1C5" opacity="0.05"/>

  <!-- Caviar roe particles -->
  <circle cx="438.3876224061093" cy="438.5382407698388" r="5.414606670371085" fill="#CFAE58" opacity="0.2110686808737416"/>
  <circle cx="6.204614600539671" cy="418.1307711816441" r="4.498880966269012" fill="#CFAE58" opacity="0.2417817255473646"/>
  <circle cx="1195.840153674754" cy="314.27004323850446" r="3.3027142658186834" fill="#CFAE58" opacity="0.11548239373585853"/>
  <circle cx="176.11705174536095" cy="526.421771774557" r="5.768194201060766" fill="#CFAE58" opacity="0.2137432915293199"/>
  <circle cx="286.4503462766646" cy="38.93685133880867" r="2.065112693036978" fill="#CFAE58" opacity="0.15076998528305563"/>
  <circle cx="951.5109437222352" cy="29.1415909507945" r="5.790522194917313" fill="#CFAE58" opacity="0.1053817618943038"/>
  <circle cx="850.0322783013594" cy="276.56240609612985" r="3.8266838525786078" fill="#CFAE58" opacity="0.11967992445852173"/>
  <circle cx="1081.9037964691884" cy="313.4609917265493" r="2.4745609905713133" fill="#CFAE58" opacity="0.13794612524271563"/>
  <circle cx="93.72944387810547" cy="372.07228332365713" r="3.791113835641645" fill="#CFAE58" opacity="0.121470506573729"/>
  <circle cx="274.5422493182706" cy="148.63784128082216" r="5.068508033799685" fill="#CFAE58" opacity="0.18939615566645057"/>
  <circle cx="736.4672418780793" cy="3.859700385492504" r="3.0733503554721544" fill="#CFAE58" opacity="0.24201051682390073"/>
  <circle cx="575.1219460921166" cy="587.9948879523623" r="3.5104751381213832" fill="#CFAE58" opacity="0.23217994755794685"/>
  <circle cx="806.5369858571994" cy="296.1863258249083" r="5.958870487367742" fill="#CFAE58" opacity="0.15485269152078074"/>
  <circle cx="558.9045300911966" cy="150.8982537961565" r="5.788171634279075" fill="#CFAE58" opacity="0.24521127740977827"/>
  <circle cx="744.7453889609691" cy="626.1214843404143" r="5.677486203307621" fill="#CFAE58" opacity="0.16946759324465682"/>
  <circle cx="968.4000957356161" cy="179.19113785756113" r="4.535636968912519" fill="#CFAE58" opacity="0.11188772908885823"/>
  <circle cx="776.3640513099451" cy="449.96899573387685" r="4.69626271684299" fill="#CFAE58" opacity="0.2485330623918547"/>
  <circle cx="434.1171816491147" cy="610.3753866229276" r="5.296099406499826" fill="#CFAE58" opacity="0.2493915109905921"/>
  <circle cx="858.4596070363058" cy="177.8599624456538" r="3.965868716521742" fill="#CFAE58" opacity="0.24815919613281806"/>
  <circle cx="61.89001290884324" cy="582.0905843217971" r="2.241497484566483" fill="#CFAE58" opacity="0.17686281880480642"/>
  <circle cx="481.0784222391426" cy="474.19468422377213" r="2.290847160943934" fill="#CFAE58" opacity="0.11102303422442471"/>
  <circle cx="731.066838496474" cy="20.868139073597618" r="2.140634824633217" fill="#CFAE58" opacity="0.12303797869268474"/>
  <circle cx="155.51491649054228" cy="266.9303394523492" r="4.296601712013278" fill="#CFAE58" opacity="0.1951034312668874"/>
  <circle cx="744.7680017006078" cy="33.30971371317859" r="5.4774195214635615" fill="#CFAE58" opacity="0.1916229780310095"/>
  <circle cx="347.64948393023485" cy="276.1992775531609" r="2.5009890087083155" fill="#CFAE58" opacity="0.1396252765001491"/>
  <circle cx="772.8169125124365" cy="142.93713985740257" r="3.1119746451865042" fill="#CFAE58" opacity="0.11020851295859196"/>
  <circle cx="558.0281320321151" cy="448.4860209979823" r="5.2456608089751695" fill="#CFAE58" opacity="0.2225950060935219"/>
  <circle cx="1191.0165134389954" cy="201.12858075099783" r="4.3866706920124034" fill="#CFAE58" opacity="0.23611350888071858"/>
  <circle cx="879.4071857308948" cy="23.63150027185536" r="3.859368691210922" fill="#CFAE58" opacity="0.1998118609126101"/>
  <circle cx="741.4385690606438" cy="576.6570969465677" r="5.662175473056607" fill="#CFAE58" opacity="0.12272888098201333"/>

  <!-- Border with glow -->
  <rect x="40" y="40" width="1120" height="550" fill="none" stroke="url(#goldGradient)" stroke-width="3" rx="12" filter="url(#softGlow)"/>

  <!-- Icon circle with premium background -->
  <circle cx="150" cy="200" r="75" fill="#CFAE58" opacity="0.15" filter="url(#softGlow)"/>
  <circle cx="150" cy="200" r="70" fill="#CFAE58" opacity="0.25"/>
  <text x="150" y="235" font-size="90" text-anchor="middle" fill="#CFAE58" filter="url(#glow)">🦀</text>

  <!-- Premium logo (crown) with enhanced styling -->
  <g transform="translate(100, 70)">
    <path d="M 30 20 L 40 35 L 35 35 Z M 50 15 L 60 35 L 45 35 Z M 65 20 L 75 35 L 70 35 Z M 30 35 L 75 35 L 73 45 L 32 45 Z"
          fill="url(#goldGradient)" filter="url(#glow)" stroke="#B89842" stroke-width="0.5"/>
    <circle cx="40" cy="25" r="3" fill="#4FD1C5" filter="url(#glow)"/>
    <circle cx="52" cy="20" r="4" fill="#4FD1C5" filter="url(#glow)"/>
    <circle cx="65" cy="25" r="3" fill="#4FD1C5" filter="url(#glow)"/>
  </g>

  <!-- Title with shadow -->
  <text x="280" y="180" font-family="Georgia, serif" font-size="72" font-weight="bold"
        fill="url(#goldGradient)" filter="url(#shadow)">Crabbing on Sakhalin</text>

  <!-- Subtitle with subtle glow -->
  <text x="280" y="230" font-family="Arial, sans-serif" font-size="36"
        fill="#D6DEE6" opacity="0.95" filter="url(#softGlow)">King Crab Fishing &amp; Tours</text>

  <!-- Brand name with letter spacing -->
  <text x="280" y="300" font-family="Georgia, serif" font-size="32" font-weight="bold"
        fill="#CFAE58" letter-spacing="4" filter="url(#glow)">ROYAL KETA</text>

  <!-- Russian tagline -->
  <text x="280" y="340" font-family="Arial, sans-serif" font-size="22" font-style="italic"
        fill="#8B95A1" opacity="0.8">От икринки к королевской</text>

  <!-- Location -->
  <text x="280" y="380" font-family="Arial, sans-serif" font-size="20"
        fill="#8B95A1" opacity="0.7">Невельский район, Сахалин</text>

  <!-- Website with glow -->
  <text x="100" y="570" font-family="Arial, sans-serif" font-size="30" font-weight="bold"
        fill="#4FD1C5" filter="url(#glow)">royalketa.com</text>

  <!-- Enhanced decorative salmon silhouette -->
  <g transform="translate(950, 480)" opacity="0.2" filter="url(#softGlow)">
    <ellipse cx="0" cy="0" rx="90" ry="35" fill="#CFAE58"/>
    <path d="M 90 0 L 120 -18 L 130 0 L 120 18 Z" fill="#CFAE58"/>
    <path d="M -25 -35 L 0 -45 L 25 -35 Z" fill="#CFAE58"/>
    <ellipse cx="-50" cy="0" rx="15" ry="12" fill="#0B0F14"/>
  </g>

  <!-- Additional decorative caviar clusters -->
  <g opacity="0.2">
    <circle cx="1050" cy="120" r="6" fill="#CFAE58"/>
    <circle cx="1065" cy="115" r="5" fill="#CFAE58"/>
    <circle cx="1058" cy="130" r="4" fill="#CFAE58"/>
    <circle cx="150" cy="500" r="5" fill="#4FD1C5"/>
    <circle cx="165" cy="508" r="4" fill="#4FD1C5"/>
    <circle cx="140" cy="512" r="5" fill="#4FD1C5"/>
  </g>
</svg>