<svg width="1200" height="630" xmlns="http://www.w3.org/2000/svg">
  <defs>
    <linearGradient id="bgGradient" x1="0%" y1="0%" x2="100%" y2="100%">
      <stop offset="0%" style="stop-color:#0B0F14;stop-opacity:1" />
      <stop offset="50%" style="stop-color:#0F1619;stop-opacity:1" />
      <stop offset="100%" style="stop-color:#0F1922;stop-opacity:1" />
    </linearGradient>
    <linearGradient id="goldGradient" x1="0%" y1="0%" x2="100%" y2="0%">
      <stop offset="0%" style="stop-color:#E5D596;stop-opacity:1" />
      <stop offset="50%" style="stop-color:#CFAE58;stop-opacity:1" />
      <stop offset="100%" style="stop-color:#B89842;stop-opacity:1" />
    </linearGradient>
    <radialGradient id="oceanGradient" cx="50%" cy="50%" r="50%">
      <stop offset="0%" style="stop-color:#4FD1C5;stop-opacity:0.3" />
      <stop offset="100%" style="stop-color:#1E90A0;stop-opacity:0.05" />
    </radialGradient>
    <filter id="glow">
      <feGaussianBlur stdDeviation="5" result="coloredBlur"/>
      <feMerge>
        <feMergeNode in="coloredBlur"/>
        <feMergeNode in="SourceGraphic"/>
      </feMerge>
    </filter>
    <filter id="softGlow">
      <feGaussianBlur stdDeviation="8" result="coloredBlur"/>
      <feMerge>
        <feMergeNode in="coloredBlur"/>
        <feMergeNode in="SourceGraphic"/>
      </feMerge>
    </filter>
    <filter id="shadow">
      <feDropShadow dx="0" dy="4" stdDeviation="8" flood-color="#000000" flood-opacity="0.5"/>
    </filter>
  </defs>

  <!-- Background -->
  <rect width="1200" height="630" fill="url(#bgGradient)"/>

  <!-- Decorative ocean gradients -->
  <ellipse cx="1000" cy="150" rx="300" ry="200" fill="url(#oceanGradient)" opacity="0.4"/>
  <ellipse cx="200" cy="530" rx="250" ry="180" fill="url(#oceanGradient)" opacity="0.3"/>

  <!-- Wave patterns -->
  <path d="M 0 400 Q 300 350 600 400 T 1200 400 L 1200 630 L 0 630 Z" fill="#1E90A0" opacity="0.08"/>
  <path d="M 0 450 Q 250 420 500 450 T 1000 450 T 1200 450 L 1200 630 L 0 630 Z" fill="#4FD1C5" opacity="0.05"/>

  <!-- Caviar roe particles -->
  <circle cx="711.6340769240517" cy="226.6295806290919" r="2.7465099766939947" fill="#CFAE58" opacity="0.24362674105031804"/>
  <circle cx="487.69450643597685" cy="209.77778227409974" r="5.6479138513377" fill="#CFAE58" opacity="0.18035274521125078"/>
  <circle cx="525.0161739061688" cy="334.59553743831236" r="4.050656059371418" fill="#CFAE58" opacity="0.2215783797933843"/>
  <circle cx="37.826766998670315" cy="195.21070781636655" r="5.484793946656086" fill="#CFAE58" opacity="0.20274881564981043"/>
  <circle cx="311.9648263677491" cy="90.40504046380325" r="3.433907624247144" fill="#CFAE58" opacity="0.17514306897863507"/>
  <circle cx="495.50538490071204" cy="35.58970939137712" r="2.13186094109061" fill="#CFAE58" opacity="0.20795661943647809"/>
  <circle cx="150.7375093551718" cy="510.09916721429386" r="5.466668700235983" fill="#CFAE58" opacity="0.2310435915306181"/>
  <circle cx="1044.975594757892" cy="257.7953254837767" r="5.844792485685186" fill="#CFAE58" opacity="0.2191956937597272"/>
  <circle cx="582.7607995923371" cy="438.85039130980175" r="2.666820475223074" fill="#CFAE58" opacity="0.1855801530372897"/>
  <circle cx="88.34161748094105" cy="312.97960996137556" r="4.719088919350093" fill="#CFAE58" opacity="0.11375529363193232"/>
  <circle cx="1032.6754969281997" cy="378.7422871676413" r="4.619256440628753" fill="#CFAE58" opacity="0.1648207184559469"/>
  <circle cx="139.29359878163433" cy="459.84930236443415" r="5.8531061745184445" fill="#CFAE58" opacity="0.1887517009330657"/>
  <circle cx="54.2896865643264" cy="64.28684975040667" r="2.5315180785249676" fill="#CFAE58" opacity="0.17794641981206505"/>
  <circle cx="6.37817142817827" cy="159.41755817468692" r="5.542581862090781" fill="#CFAE58" opacity="0.19740125566761835"/>
  <circle cx="584.7575025107915" cy="210.79577116299913" r="4.612458016992745" fill="#CFAE58" opacity="0.22073880261162462"/>
  <circle cx="137.26193259962935" cy="433.33561473174484" r="4.142427988818806" fill="#CFAE58" opacity="0.10572811110000972"/>
  <circle cx="337.7759148348374" cy="500.39527191062444" r="4.45909267334557" fill="#CFAE58" opacity="0.12146683539665121"/>
  <circle cx="466.43469609063726" cy="181.5014298712916" r="4.33715045419029" fill="#CFAE58" opacity="0.22866300994831906"/>
  <circle cx="239.49572876281366" cy="549.8380264822979" r="4.402654390315275" fill="#CFAE58" opacity="0.15280441842370088"/>
  <circle cx="24.82592234208574" cy="98.97661613270039" r="4.539316922367869" fill="#CFAE58" opacity="0.18613243868558346"/>
  <circle cx="228.3648495361479" cy="346.96756779492017" r="5.908722054929365" fill="#CFAE58" opacity="0.2205975841975014"/>
  <circle cx="789.2128405967727" cy="530.25367742356" r="2.9298306790312107" fill="#CFAE58" opacity="0.23505097701236743"/>
  <circle cx="134.34845284139536" cy="378.04503015998995" r="2.9993766448675543" fill="#CFAE58" opacity="0.10775240068199053"/>
  <circle cx="1109.4913772302473" cy="419.3232544493092" r="3.6154833467550747" fill="#CFAE58" opacity="0.15032470698143374"/>
  <circle cx="232.98583209494944" cy="257.84786950718006" r="4.851915806469986" fill="#CFAE58" opacity="0.14674842778213693"/>
  <circle cx="729.9191074322256" cy="266.65023245538055" r="4.1997182278819505" fill="#CFAE58" opacity="0.16379345443363919"/>
  <circle cx="440.13200005455207" cy="134.72614685929935" r="2.7553011682833977" fill="#CFAE58" opacity="0.18862264579001312"/>
  <circle cx="441.01123445792" cy="32.861023357831144" r="3.720377082630638" fill="#CFAE58" opacity="0.218199813387771"/>
  <circle cx="775.255824680762" cy="222.30930975018939" r="3.9384763300849635" fill="#CFAE58" opacity="0.11498470155879745"/>
  <circle cx="424.34910485657554" cy="86.6783054693482" r="5.086960666226306" fill="#CFAE58" opacity="0.13118877696613906"/>

  <!-- Border with glow -->
  <rect x="40" y="40" width="1120" height="550" fill="none" stroke="url(#goldGradient)" stroke-width="3" rx="12" filter="url(#softGlow)"/>

  <!-- Icon circle with premium background -->
  <circle cx="150" cy="200" r="75" fill="#CFAE58" opacity="0.15" filter="url(#softGlow)"/>
  <circle cx="150" cy="200" r="70" fill="#CFAE58" opacity="0.25"/>
  <text x="150" y="235" font-size="90" text-anchor="middle" fill="#CFAE58" filter="url(#glow)">🦀</text>

  <!-- Premium logo (crown) with enhanced styling -->
  <g transform="translate(100, 70)">
    <path d="M 30 20 L 40 35 L 35 35 Z M 50 15 L 60 35 L 45 35 Z M 65 20 L 75 35 L 70 35 Z M 30 35 L 75 35 L 73 45 L 32 45 Z"
          fill="url(#goldGradient)" filter="url(#glow)" stroke="#B89842" stroke-width="0.5"/>
    <circle cx="40" cy="25" r="3" fill="#4FD1C5" filter="url(#glow)"/>
    <circle cx="52" cy="20" r="4" fill="#4FD1C5" filter="url(#glow)"/>
    <circle cx="65" cy="25" r="3" fill="#4FD1C5" filter="url(#glow)"/>
  </g>

  <!-- Title with shadow -->
  <text x="280" y="180" font-family="Georgia, serif" font-size="72" font-weight="bold"
        fill="url(#goldGradient)" filter="url(#shadow)">Crabbing on Sakhalin</text>

  <!-- Subtitle with subtle glow -->
  <text x="280" y="230" font-family="Arial, sans-serif" font-size="36"
        fill="#D6DEE6" opacity="0.95" filter="url(#softGlow)">King Crab Fishing &amp; Tours</text>

  <!-- Brand name with letter spacing -->
  <text x="280" y="300" font-family="Georgia, serif" font-size="32" font-weight="bold"
        fill="#CFAE58" letter-spacing="4" filter="url(#glow)">ROYAL KETA</text>

  <!-- Russian tagline -->
  <text x="280" y="340" font-family="Arial, sans-serif" font-size="22" font-style="italic"
        fill="#8B95A1" opacity="0.8">От икринки к королевской</text>

  <!-- Location -->
  <text x="280" y="380" font-family="Arial, sans-serif" font-size="20"
        fill="#8B95A1" opacity="0.7">Невельский район, Сахалин</text>

  <!-- Website with glow -->
  <text x="100" y="570" font-family="Arial, sans-serif" font-size="30" font-weight="bold"
        fill="#4FD1C5" filter="url(#glow)">royalketa.com</text>

  <!-- Enhanced decorative salmon silhouette -->
  <g transform="translate(950, 480)" opacity="0.2" filter="url(#softGlow)">
    <ellipse cx="0" cy="0" rx="90" ry="35" fill="#CFAE58"/>
    <path d="M 90 0 L 120 -18 L 130 0 L 120 18 Z" fill="#CFAE58"/>
    <path d="M -25 -35 L 0 -45 L 25 -35 Z" fill="#CFAE58"/>
    <ellipse cx="-50" cy="0" rx="15" ry="12" fill="#0B0F14"/>
  </g>

  <!-- Additional decorative caviar clusters -->
  <g opacity="0.2">
    <circle cx="1050" cy="120" r="6" fill="#CFAE58"/>
    <circle cx="1065" cy="115" r="5" fill="#CFAE58"/>
    <circle cx="1058" cy="130" r="4" fill="#CFAE58"/>
    <circle cx="150" cy="500" r="5" fill="#4FD1C5"/>
    <circle cx="165" cy="508" r="4" fill="#4FD1C5"/>
    <circle cx="140" cy="512" r="5" fill="#4FD1C5"/>
  </g>
</svg>