<svg width="1200" height="630" xmlns="http://www.w3.org/2000/svg">
  <defs>
    <linearGradient id="bgGradient" x1="0%" y1="0%" x2="100%" y2="100%">
      <stop offset="0%" style="stop-color:#0B0F14;stop-opacity:1" />
      <stop offset="50%" style="stop-color:#0F1619;stop-opacity:1" />
      <stop offset="100%" style="stop-color:#0F1922;stop-opacity:1" />
    </linearGradient>
    <linearGradient id="goldGradient" x1="0%" y1="0%" x2="100%" y2="0%">
      <stop offset="0%" style="stop-color:#E5D596;stop-opacity:1" />
      <stop offset="50%" style="stop-color:#CFAE58;stop-opacity:1" />
      <stop offset="100%" style="stop-color:#B89842;stop-opacity:1" />
    </linearGradient>
    <radialGradient id="oceanGradient" cx="50%" cy="50%" r="50%">
      <stop offset="0%" style="stop-color:#4FD1C5;stop-opacity:0.3" />
      <stop offset="100%" style="stop-color:#1E90A0;stop-opacity:0.05" />
    </radialGradient>
    <filter id="glow">
      <feGaussianBlur stdDeviation="5" result="coloredBlur"/>
      <feMerge>
        <feMergeNode in="coloredBlur"/>
        <feMergeNode in="SourceGraphic"/>
      </feMerge>
    </filter>
    <filter id="softGlow">
      <feGaussianBlur stdDeviation="8" result="coloredBlur"/>
      <feMerge>
        <feMergeNode in="coloredBlur"/>
        <feMergeNode in="SourceGraphic"/>
      </feMerge>
    </filter>
    <filter id="shadow">
      <feDropShadow dx="0" dy="4" stdDeviation="8" flood-color="#000000" flood-opacity="0.5"/>
    </filter>
  </defs>

  <!-- Background -->
  <rect width="1200" height="630" fill="url(#bgGradient)"/>

  <!-- Decorative ocean gradients -->
  <ellipse cx="1000" cy="150" rx="300" ry="200" fill="url(#oceanGradient)" opacity="0.4"/>
  <ellipse cx="200" cy="530" rx="250" ry="180" fill="url(#oceanGradient)" opacity="0.3"/>

  <!-- Wave patterns -->
  <path d="M 0 400 Q 300 350 600 400 T 1200 400 L 1200 630 L 0 630 Z" fill="#1E90A0" opacity="0.08"/>
  <path d="M 0 450 Q 250 420 500 450 T 1000 450 T 1200 450 L 1200 630 L 0 630 Z" fill="#4FD1C5" opacity="0.05"/>

  <!-- Caviar roe particles -->
  <circle cx="215.80118591330512" cy="5.125994280072317" r="2.2519184276742683" fill="#CFAE58" opacity="0.13951294990687735"/>
  <circle cx="408.040526035536" cy="263.78673235676797" r="5.299792258208218" fill="#CFAE58" opacity="0.15533743918158877"/>
  <circle cx="1020.720910626352" cy="195.8336213252263" r="5.0127889337204765" fill="#CFAE58" opacity="0.10108308596117761"/>
  <circle cx="0.41595759921637665" cy="550.987509100846" r="4.278311398329248" fill="#CFAE58" opacity="0.17744720797231767"/>
  <circle cx="851.2160721002766" cy="473.5602086940084" r="4.063178989940398" fill="#CFAE58" opacity="0.23631885066385927"/>
  <circle cx="465.7865613428565" cy="479.93961091286025" r="3.990756450592845" fill="#CFAE58" opacity="0.2035288164064693"/>
  <circle cx="1137.9793508597354" cy="219.13985343028406" r="5.1334025324411945" fill="#CFAE58" opacity="0.1361072124054374"/>
  <circle cx="661.5094855637145" cy="430.5231803556799" r="2.6324029184706603" fill="#CFAE58" opacity="0.14815525109780564"/>
  <circle cx="573.4326839517664" cy="447.8249570883366" r="2.2190407545466897" fill="#CFAE58" opacity="0.1713306443478481"/>
  <circle cx="867.9150305446542" cy="173.7586891376029" r="2.2047810305936286" fill="#CFAE58" opacity="0.1575765162076381"/>
  <circle cx="427.4298569535488" cy="57.311320546533274" r="5.2951748939415415" fill="#CFAE58" opacity="0.20601331786615237"/>
  <circle cx="318.6959478763247" cy="499.9740026245113" r="5.025055068182808" fill="#CFAE58" opacity="0.17303870549050454"/>
  <circle cx="491.1540750289417" cy="594.6780139742469" r="3.7035598538732586" fill="#CFAE58" opacity="0.20055798677987297"/>
  <circle cx="503.38034814844593" cy="620.6546437313272" r="4.531770328702431" fill="#CFAE58" opacity="0.18588778018152047"/>
  <circle cx="1173.7476529426149" cy="87.74962728525716" r="5.416518694533122" fill="#CFAE58" opacity="0.14484692291851353"/>
  <circle cx="609.4990366066007" cy="444.98609675686816" r="3.365711870958573" fill="#CFAE58" opacity="0.2223790443093793"/>
  <circle cx="366.9783767012704" cy="305.37771671143236" r="2.33130414675495" fill="#CFAE58" opacity="0.13975125255221593"/>
  <circle cx="1183.4991454703256" cy="14.352244008314472" r="3.492822956557567" fill="#CFAE58" opacity="0.15462932042282315"/>
  <circle cx="449.76330246404945" cy="590.1724306909537" r="4.746150076180511" fill="#CFAE58" opacity="0.11296004658027892"/>
  <circle cx="1077.4851836349633" cy="443.2730837877583" r="2.409844540004383" fill="#CFAE58" opacity="0.17472052846305672"/>
  <circle cx="287.5561734123032" cy="325.58971985008174" r="3.2856511685365675" fill="#CFAE58" opacity="0.20194392474315748"/>
  <circle cx="872.5432307980584" cy="244.6648963936605" r="3.377510311827332" fill="#CFAE58" opacity="0.2237865908074975"/>
  <circle cx="680.3989080520868" cy="419.9160042791129" r="3.109694712810521" fill="#CFAE58" opacity="0.15576267297575142"/>
  <circle cx="177.58973713982192" cy="515.2225652051847" r="3.8649532867557426" fill="#CFAE58" opacity="0.13106903864571437"/>
  <circle cx="920.4781327470303" cy="272.9581800708474" r="5.28154157230459" fill="#CFAE58" opacity="0.19416392047573974"/>
  <circle cx="55.37345039198796" cy="149.64994826947614" r="3.583445225438168" fill="#CFAE58" opacity="0.23062498323594516"/>
  <circle cx="1008.6060593527052" cy="513.9417345322383" r="5.822648978529649" fill="#CFAE58" opacity="0.23526726532750247"/>
  <circle cx="901.9951086874762" cy="504.5337128695162" r="5.221594220538334" fill="#CFAE58" opacity="0.17022324425300728"/>
  <circle cx="497.6066819279835" cy="305.69543488302634" r="3.903132170111424" fill="#CFAE58" opacity="0.12887961636805786"/>
  <circle cx="42.43429984786475" cy="492.4856497654755" r="4.721961705294433" fill="#CFAE58" opacity="0.1805782604740257"/>

  <!-- Border with glow -->
  <rect x="40" y="40" width="1120" height="550" fill="none" stroke="url(#goldGradient)" stroke-width="3" rx="12" filter="url(#softGlow)"/>

  <!-- Icon circle with premium background -->
  <circle cx="150" cy="200" r="75" fill="#CFAE58" opacity="0.15" filter="url(#softGlow)"/>
  <circle cx="150" cy="200" r="70" fill="#CFAE58" opacity="0.25"/>
  <text x="150" y="235" font-size="90" text-anchor="middle" fill="#CFAE58" filter="url(#glow)">🦀</text>

  <!-- Premium logo (crown) with enhanced styling -->
  <g transform="translate(100, 70)">
    <path d="M 30 20 L 40 35 L 35 35 Z M 50 15 L 60 35 L 45 35 Z M 65 20 L 75 35 L 70 35 Z M 30 35 L 75 35 L 73 45 L 32 45 Z"
          fill="url(#goldGradient)" filter="url(#glow)" stroke="#B89842" stroke-width="0.5"/>
    <circle cx="40" cy="25" r="3" fill="#4FD1C5" filter="url(#glow)"/>
    <circle cx="52" cy="20" r="4" fill="#4FD1C5" filter="url(#glow)"/>
    <circle cx="65" cy="25" r="3" fill="#4FD1C5" filter="url(#glow)"/>
  </g>

  <!-- Title with shadow -->
  <text x="280" y="180" font-family="Georgia, serif" font-size="72" font-weight="bold"
        fill="url(#goldGradient)" filter="url(#shadow)">Crabbing on Sakhalin</text>

  <!-- Subtitle with subtle glow -->
  <text x="280" y="230" font-family="Arial, sans-serif" font-size="36"
        fill="#D6DEE6" opacity="0.95" filter="url(#softGlow)">King Crab Fishing &amp; Tours</text>

  <!-- Brand name with letter spacing -->
  <text x="280" y="300" font-family="Georgia, serif" font-size="32" font-weight="bold"
        fill="#CFAE58" letter-spacing="4" filter="url(#glow)">ROYAL KETA</text>

  <!-- Russian tagline -->
  <text x="280" y="340" font-family="Arial, sans-serif" font-size="22" font-style="italic"
        fill="#8B95A1" opacity="0.8">От икринки к королевской</text>

  <!-- Location -->
  <text x="280" y="380" font-family="Arial, sans-serif" font-size="20"
        fill="#8B95A1" opacity="0.7">Невельский район, Сахалин</text>

  <!-- Website with glow -->
  <text x="100" y="570" font-family="Arial, sans-serif" font-size="30" font-weight="bold"
        fill="#4FD1C5" filter="url(#glow)">royalketa.com</text>

  <!-- Enhanced decorative salmon silhouette -->
  <g transform="translate(950, 480)" opacity="0.2" filter="url(#softGlow)">
    <ellipse cx="0" cy="0" rx="90" ry="35" fill="#CFAE58"/>
    <path d="M 90 0 L 120 -18 L 130 0 L 120 18 Z" fill="#CFAE58"/>
    <path d="M -25 -35 L 0 -45 L 25 -35 Z" fill="#CFAE58"/>
    <ellipse cx="-50" cy="0" rx="15" ry="12" fill="#0B0F14"/>
  </g>

  <!-- Additional decorative caviar clusters -->
  <g opacity="0.2">
    <circle cx="1050" cy="120" r="6" fill="#CFAE58"/>
    <circle cx="1065" cy="115" r="5" fill="#CFAE58"/>
    <circle cx="1058" cy="130" r="4" fill="#CFAE58"/>
    <circle cx="150" cy="500" r="5" fill="#4FD1C5"/>
    <circle cx="165" cy="508" r="4" fill="#4FD1C5"/>
    <circle cx="140" cy="512" r="5" fill="#4FD1C5"/>
  </g>
</svg>