<svg width="1200" height="630" xmlns="http://www.w3.org/2000/svg">
  <defs>
    <linearGradient id="bgGradient" x1="0%" y1="0%" x2="100%" y2="100%">
      <stop offset="0%" style="stop-color:#0B0F14;stop-opacity:1" />
      <stop offset="50%" style="stop-color:#0F1619;stop-opacity:1" />
      <stop offset="100%" style="stop-color:#0F1922;stop-opacity:1" />
    </linearGradient>
    <linearGradient id="goldGradient" x1="0%" y1="0%" x2="100%" y2="0%">
      <stop offset="0%" style="stop-color:#E5D596;stop-opacity:1" />
      <stop offset="50%" style="stop-color:#CFAE58;stop-opacity:1" />
      <stop offset="100%" style="stop-color:#B89842;stop-opacity:1" />
    </linearGradient>
    <radialGradient id="oceanGradient" cx="50%" cy="50%" r="50%">
      <stop offset="0%" style="stop-color:#4FD1C5;stop-opacity:0.3" />
      <stop offset="100%" style="stop-color:#1E90A0;stop-opacity:0.05" />
    </radialGradient>
    <filter id="glow">
      <feGaussianBlur stdDeviation="5" result="coloredBlur"/>
      <feMerge>
        <feMergeNode in="coloredBlur"/>
        <feMergeNode in="SourceGraphic"/>
      </feMerge>
    </filter>
    <filter id="softGlow">
      <feGaussianBlur stdDeviation="8" result="coloredBlur"/>
      <feMerge>
        <feMergeNode in="coloredBlur"/>
        <feMergeNode in="SourceGraphic"/>
      </feMerge>
    </filter>
    <filter id="shadow">
      <feDropShadow dx="0" dy="4" stdDeviation="8" flood-color="#000000" flood-opacity="0.5"/>
    </filter>
  </defs>

  <!-- Background -->
  <rect width="1200" height="630" fill="url(#bgGradient)"/>

  <!-- Decorative ocean gradients -->
  <ellipse cx="1000" cy="150" rx="300" ry="200" fill="url(#oceanGradient)" opacity="0.4"/>
  <ellipse cx="200" cy="530" rx="250" ry="180" fill="url(#oceanGradient)" opacity="0.3"/>

  <!-- Wave patterns -->
  <path d="M 0 400 Q 300 350 600 400 T 1200 400 L 1200 630 L 0 630 Z" fill="#1E90A0" opacity="0.08"/>
  <path d="M 0 450 Q 250 420 500 450 T 1000 450 T 1200 450 L 1200 630 L 0 630 Z" fill="#4FD1C5" opacity="0.05"/>

  <!-- Caviar roe particles -->
  <circle cx="1.0304665389397005" cy="66.22694694871338" r="3.5797049995226673" fill="#CFAE58" opacity="0.24776048985289534"/>
  <circle cx="742.4923937691685" cy="154.37804326377213" r="2.070747681614694" fill="#CFAE58" opacity="0.10066565688143704"/>
  <circle cx="828.6154330020894" cy="38.8745770456376" r="2.9632904579070947" fill="#CFAE58" opacity="0.14466338444022966"/>
  <circle cx="559.6891919007802" cy="230.17128623679935" r="5.479652383039943" fill="#CFAE58" opacity="0.22734508549636584"/>
  <circle cx="1090.0530245652185" cy="238.1039130242972" r="4.161584381222077" fill="#CFAE58" opacity="0.20302320606542062"/>
  <circle cx="718.5517412460096" cy="298.62263754274346" r="5.474725839589597" fill="#CFAE58" opacity="0.13776500052467766"/>
  <circle cx="417.921606765155" cy="406.94620164957075" r="4.539668260121981" fill="#CFAE58" opacity="0.23005974028273538"/>
  <circle cx="652.7555400018463" cy="248.88815485636803" r="3.3068751054831824" fill="#CFAE58" opacity="0.13159348988540276"/>
  <circle cx="638.1837746663751" cy="182.38589762168155" r="3.9722660705478536" fill="#CFAE58" opacity="0.21571832792997597"/>
  <circle cx="145.85117941033658" cy="447.3063653354105" r="3.95147888032811" fill="#CFAE58" opacity="0.2062466708333151"/>
  <circle cx="586.719213710037" cy="491.26631865425287" r="3.528346947122816" fill="#CFAE58" opacity="0.19488142782018325"/>
  <circle cx="162.1966674784029" cy="269.8869130430067" r="3.6410647150341284" fill="#CFAE58" opacity="0.12331324466947777"/>
  <circle cx="292.0670184315456" cy="201.62664034351204" r="2.463992331313003" fill="#CFAE58" opacity="0.2200003773368529"/>
  <circle cx="284.3160051020506" cy="242.03573939548372" r="5.934165785495589" fill="#CFAE58" opacity="0.208696522568866"/>
  <circle cx="837.2483168779514" cy="238.63481587633814" r="4.144530466491536" fill="#CFAE58" opacity="0.14810959816886235"/>
  <circle cx="970.5340974926153" cy="566.9396393109507" r="3.814408953209491" fill="#CFAE58" opacity="0.15810474650932976"/>
  <circle cx="705.2346475090744" cy="151.91255621645084" r="2.502445958334261" fill="#CFAE58" opacity="0.12373769653985481"/>
  <circle cx="552.6643022732899" cy="124.6724873939443" r="3.911822432802295" fill="#CFAE58" opacity="0.12332766236280021"/>
  <circle cx="850.1799930795561" cy="193.61286541821195" r="2.0694150915567344" fill="#CFAE58" opacity="0.1977367625615773"/>
  <circle cx="221.59002608030062" cy="16.96202074932607" r="5.348737239722117" fill="#CFAE58" opacity="0.115945639520415"/>
  <circle cx="112.13877492265914" cy="77.39366631231296" r="4.952041485234721" fill="#CFAE58" opacity="0.2058918075036621"/>
  <circle cx="964.4280585874366" cy="287.32429550982414" r="5.7702080164230445" fill="#CFAE58" opacity="0.22188941837851975"/>
  <circle cx="262.7399108845162" cy="241.447464208083" r="4.535666928348341" fill="#CFAE58" opacity="0.17791978600559422"/>
  <circle cx="142.16168720753134" cy="566.6903015906189" r="4.772077697300294" fill="#CFAE58" opacity="0.193723925076615"/>
  <circle cx="993.2852254154474" cy="327.604252669069" r="5.312429199048218" fill="#CFAE58" opacity="0.20639909902593143"/>
  <circle cx="878.7234111426053" cy="533.956434355444" r="3.735155128902931" fill="#CFAE58" opacity="0.12090748988713446"/>
  <circle cx="797.2696814322204" cy="8.178957122436236" r="4.839985900597616" fill="#CFAE58" opacity="0.15278851849929387"/>
  <circle cx="142.35662606170635" cy="56.51191516398216" r="2.2736368648146805" fill="#CFAE58" opacity="0.12572013451008043"/>
  <circle cx="209.73717058747766" cy="352.7819043042329" r="5.759752905896172" fill="#CFAE58" opacity="0.1963942084887917"/>
  <circle cx="899.9377615056535" cy="498.96430208365814" r="2.480676375323584" fill="#CFAE58" opacity="0.1699751610473117"/>

  <!-- Border with glow -->
  <rect x="40" y="40" width="1120" height="550" fill="none" stroke="url(#goldGradient)" stroke-width="3" rx="12" filter="url(#softGlow)"/>

  <!-- Icon circle with premium background -->
  <circle cx="150" cy="200" r="75" fill="#CFAE58" opacity="0.15" filter="url(#softGlow)"/>
  <circle cx="150" cy="200" r="70" fill="#CFAE58" opacity="0.25"/>
  <text x="150" y="235" font-size="90" text-anchor="middle" fill="#CFAE58" filter="url(#glow)">🦀</text>

  <!-- Premium logo (crown) with enhanced styling -->
  <g transform="translate(100, 70)">
    <path d="M 30 20 L 40 35 L 35 35 Z M 50 15 L 60 35 L 45 35 Z M 65 20 L 75 35 L 70 35 Z M 30 35 L 75 35 L 73 45 L 32 45 Z"
          fill="url(#goldGradient)" filter="url(#glow)" stroke="#B89842" stroke-width="0.5"/>
    <circle cx="40" cy="25" r="3" fill="#4FD1C5" filter="url(#glow)"/>
    <circle cx="52" cy="20" r="4" fill="#4FD1C5" filter="url(#glow)"/>
    <circle cx="65" cy="25" r="3" fill="#4FD1C5" filter="url(#glow)"/>
  </g>

  <!-- Title with shadow -->
  <text x="280" y="180" font-family="Georgia, serif" font-size="72" font-weight="bold"
        fill="url(#goldGradient)" filter="url(#shadow)">Crabbing on Sakhalin</text>

  <!-- Subtitle with subtle glow -->
  <text x="280" y="230" font-family="Arial, sans-serif" font-size="36"
        fill="#D6DEE6" opacity="0.95" filter="url(#softGlow)">King Crab Fishing &amp; Tours</text>

  <!-- Brand name with letter spacing -->
  <text x="280" y="300" font-family="Georgia, serif" font-size="32" font-weight="bold"
        fill="#CFAE58" letter-spacing="4" filter="url(#glow)">ROYAL KETA</text>

  <!-- Russian tagline -->
  <text x="280" y="340" font-family="Arial, sans-serif" font-size="22" font-style="italic"
        fill="#8B95A1" opacity="0.8">От икринки к королевской</text>

  <!-- Location -->
  <text x="280" y="380" font-family="Arial, sans-serif" font-size="20"
        fill="#8B95A1" opacity="0.7">Невельский район, Сахалин</text>

  <!-- Website with glow -->
  <text x="100" y="570" font-family="Arial, sans-serif" font-size="30" font-weight="bold"
        fill="#4FD1C5" filter="url(#glow)">royalketa.com</text>

  <!-- Enhanced decorative salmon silhouette -->
  <g transform="translate(950, 480)" opacity="0.2" filter="url(#softGlow)">
    <ellipse cx="0" cy="0" rx="90" ry="35" fill="#CFAE58"/>
    <path d="M 90 0 L 120 -18 L 130 0 L 120 18 Z" fill="#CFAE58"/>
    <path d="M -25 -35 L 0 -45 L 25 -35 Z" fill="#CFAE58"/>
    <ellipse cx="-50" cy="0" rx="15" ry="12" fill="#0B0F14"/>
  </g>

  <!-- Additional decorative caviar clusters -->
  <g opacity="0.2">
    <circle cx="1050" cy="120" r="6" fill="#CFAE58"/>
    <circle cx="1065" cy="115" r="5" fill="#CFAE58"/>
    <circle cx="1058" cy="130" r="4" fill="#CFAE58"/>
    <circle cx="150" cy="500" r="5" fill="#4FD1C5"/>
    <circle cx="165" cy="508" r="4" fill="#4FD1C5"/>
    <circle cx="140" cy="512" r="5" fill="#4FD1C5"/>
  </g>
</svg>