<svg width="1200" height="630" xmlns="http://www.w3.org/2000/svg">
  <defs>
    <linearGradient id="bgGradient" x1="0%" y1="0%" x2="100%" y2="100%">
      <stop offset="0%" style="stop-color:#0B0F14;stop-opacity:1" />
      <stop offset="50%" style="stop-color:#0F1619;stop-opacity:1" />
      <stop offset="100%" style="stop-color:#0F1922;stop-opacity:1" />
    </linearGradient>
    <linearGradient id="goldGradient" x1="0%" y1="0%" x2="100%" y2="0%">
      <stop offset="0%" style="stop-color:#E5D596;stop-opacity:1" />
      <stop offset="50%" style="stop-color:#CFAE58;stop-opacity:1" />
      <stop offset="100%" style="stop-color:#B89842;stop-opacity:1" />
    </linearGradient>
    <radialGradient id="oceanGradient" cx="50%" cy="50%" r="50%">
      <stop offset="0%" style="stop-color:#4FD1C5;stop-opacity:0.3" />
      <stop offset="100%" style="stop-color:#1E90A0;stop-opacity:0.05" />
    </radialGradient>
    <filter id="glow">
      <feGaussianBlur stdDeviation="5" result="coloredBlur"/>
      <feMerge>
        <feMergeNode in="coloredBlur"/>
        <feMergeNode in="SourceGraphic"/>
      </feMerge>
    </filter>
    <filter id="softGlow">
      <feGaussianBlur stdDeviation="8" result="coloredBlur"/>
      <feMerge>
        <feMergeNode in="coloredBlur"/>
        <feMergeNode in="SourceGraphic"/>
      </feMerge>
    </filter>
    <filter id="shadow">
      <feDropShadow dx="0" dy="4" stdDeviation="8" flood-color="#000000" flood-opacity="0.5"/>
    </filter>
  </defs>

  <!-- Background -->
  <rect width="1200" height="630" fill="url(#bgGradient)"/>

  <!-- Decorative ocean gradients -->
  <ellipse cx="1000" cy="150" rx="300" ry="200" fill="url(#oceanGradient)" opacity="0.4"/>
  <ellipse cx="200" cy="530" rx="250" ry="180" fill="url(#oceanGradient)" opacity="0.3"/>

  <!-- Wave patterns -->
  <path d="M 0 400 Q 300 350 600 400 T 1200 400 L 1200 630 L 0 630 Z" fill="#1E90A0" opacity="0.08"/>
  <path d="M 0 450 Q 250 420 500 450 T 1000 450 T 1200 450 L 1200 630 L 0 630 Z" fill="#4FD1C5" opacity="0.05"/>

  <!-- Caviar roe particles -->
  <circle cx="171.07328138652372" cy="420.9345322447293" r="3.548974000551542" fill="#CFAE58" opacity="0.1134118652989036"/>
  <circle cx="568.666941989465" cy="203.39693788539677" r="2.3241335140206143" fill="#CFAE58" opacity="0.12610018997754494"/>
  <circle cx="836.0361872809989" cy="476.1281985534842" r="2.7969452145246843" fill="#CFAE58" opacity="0.21038710424534723"/>
  <circle cx="289.58383051784915" cy="250.5243005948408" r="2.408973340232086" fill="#CFAE58" opacity="0.2317336670495232"/>
  <circle cx="1161.6261079091562" cy="322.59509377729745" r="2.0922724923703857" fill="#CFAE58" opacity="0.11593506842139001"/>
  <circle cx="924.0614689711009" cy="539.47380574658" r="4.048738772125481" fill="#CFAE58" opacity="0.22993683558291242"/>
  <circle cx="562.7566554530558" cy="247.0142550923763" r="4.403028737018387" fill="#CFAE58" opacity="0.2123840616795507"/>
  <circle cx="731.4397897837338" cy="593.3251987635945" r="5.293492674551916" fill="#CFAE58" opacity="0.15824326132753178"/>
  <circle cx="817.600267998822" cy="614.3467616618303" r="2.450742384539555" fill="#CFAE58" opacity="0.1968902990328844"/>
  <circle cx="962.2773823157509" cy="568.7603392597107" r="2.6044116261915344" fill="#CFAE58" opacity="0.240215018694199"/>
  <circle cx="825.3465016678643" cy="49.017653552100285" r="3.7732099639682875" fill="#CFAE58" opacity="0.2251189657802163"/>
  <circle cx="409.0819290025198" cy="126.80006698359573" r="2.6410829085256307" fill="#CFAE58" opacity="0.14387550915427033"/>
  <circle cx="1094.8124228483732" cy="173.59124014133243" r="3.7874154399899838" fill="#CFAE58" opacity="0.24854631042621045"/>
  <circle cx="962.7399816263338" cy="68.99413235000225" r="3.455015920959552" fill="#CFAE58" opacity="0.1864675847712723"/>
  <circle cx="529.9229261465765" cy="536.7045902156767" r="3.721119771221914" fill="#CFAE58" opacity="0.10527902970990849"/>
  <circle cx="133.91210793186795" cy="249.0596303029503" r="5.29750521981292" fill="#CFAE58" opacity="0.1252106835986229"/>
  <circle cx="1015.9129325569335" cy="200.02113951369262" r="2.995232921650384" fill="#CFAE58" opacity="0.17844769212518286"/>
  <circle cx="286.94980557621136" cy="504.15478891865763" r="3.9263155658488302" fill="#CFAE58" opacity="0.20611729043716398"/>
  <circle cx="1146.4990467426876" cy="251.5758213683252" r="4.77917296335969" fill="#CFAE58" opacity="0.1758596361542702"/>
  <circle cx="927.7809559991634" cy="597.8484247951596" r="5.782886395409454" fill="#CFAE58" opacity="0.21868087871530179"/>
  <circle cx="407.440199603423" cy="349.64178626703176" r="4.085054094975025" fill="#CFAE58" opacity="0.2094656293528833"/>
  <circle cx="934.5814664453584" cy="263.5730368807419" r="3.3989481738743184" fill="#CFAE58" opacity="0.20848960660237686"/>
  <circle cx="727.5263046511535" cy="277.50437305033665" r="4.357724899568931" fill="#CFAE58" opacity="0.18917185352423002"/>
  <circle cx="123.20224000860169" cy="480.6736541363734" r="3.238459867139489" fill="#CFAE58" opacity="0.10457786105715879"/>
  <circle cx="420.8450414234475" cy="92.80316999595259" r="5.360434851400035" fill="#CFAE58" opacity="0.13178433361010133"/>
  <circle cx="697.1124829323003" cy="28.84178952863001" r="4.101964521289007" fill="#CFAE58" opacity="0.15496185689361733"/>
  <circle cx="149.8498632099933" cy="358.2951791457871" r="5.467933333616004" fill="#CFAE58" opacity="0.22885851726559478"/>
  <circle cx="182.34044965248248" cy="80.46884604809574" r="5.996259677385784" fill="#CFAE58" opacity="0.10590371787928887"/>
  <circle cx="623.8608513636021" cy="37.21540871419351" r="3.9314584463500357" fill="#CFAE58" opacity="0.24712339450488402"/>
  <circle cx="592.2390454383458" cy="505.61941239188155" r="2.5660798979777693" fill="#CFAE58" opacity="0.18802292045175822"/>

  <!-- Border with glow -->
  <rect x="40" y="40" width="1120" height="550" fill="none" stroke="url(#goldGradient)" stroke-width="3" rx="12" filter="url(#softGlow)"/>

  <!-- Icon circle with premium background -->
  <circle cx="150" cy="200" r="75" fill="#CFAE58" opacity="0.15" filter="url(#softGlow)"/>
  <circle cx="150" cy="200" r="70" fill="#CFAE58" opacity="0.25"/>
  <text x="150" y="235" font-size="90" text-anchor="middle" fill="#CFAE58" filter="url(#glow)">🦀</text>

  <!-- Premium logo (crown) with enhanced styling -->
  <g transform="translate(100, 70)">
    <path d="M 30 20 L 40 35 L 35 35 Z M 50 15 L 60 35 L 45 35 Z M 65 20 L 75 35 L 70 35 Z M 30 35 L 75 35 L 73 45 L 32 45 Z"
          fill="url(#goldGradient)" filter="url(#glow)" stroke="#B89842" stroke-width="0.5"/>
    <circle cx="40" cy="25" r="3" fill="#4FD1C5" filter="url(#glow)"/>
    <circle cx="52" cy="20" r="4" fill="#4FD1C5" filter="url(#glow)"/>
    <circle cx="65" cy="25" r="3" fill="#4FD1C5" filter="url(#glow)"/>
  </g>

  <!-- Title with shadow -->
  <text x="280" y="180" font-family="Georgia, serif" font-size="72" font-weight="bold"
        fill="url(#goldGradient)" filter="url(#shadow)">Crabbing on Sakhalin</text>

  <!-- Subtitle with subtle glow -->
  <text x="280" y="230" font-family="Arial, sans-serif" font-size="36"
        fill="#D6DEE6" opacity="0.95" filter="url(#softGlow)">King Crab Fishing &amp; Tours</text>

  <!-- Brand name with letter spacing -->
  <text x="280" y="300" font-family="Georgia, serif" font-size="32" font-weight="bold"
        fill="#CFAE58" letter-spacing="4" filter="url(#glow)">ROYAL KETA</text>

  <!-- Russian tagline -->
  <text x="280" y="340" font-family="Arial, sans-serif" font-size="22" font-style="italic"
        fill="#8B95A1" opacity="0.8">От икринки к королевской</text>

  <!-- Location -->
  <text x="280" y="380" font-family="Arial, sans-serif" font-size="20"
        fill="#8B95A1" opacity="0.7">Невельский район, Сахалин</text>

  <!-- Website with glow -->
  <text x="100" y="570" font-family="Arial, sans-serif" font-size="30" font-weight="bold"
        fill="#4FD1C5" filter="url(#glow)">royalketa.com</text>

  <!-- Enhanced decorative salmon silhouette -->
  <g transform="translate(950, 480)" opacity="0.2" filter="url(#softGlow)">
    <ellipse cx="0" cy="0" rx="90" ry="35" fill="#CFAE58"/>
    <path d="M 90 0 L 120 -18 L 130 0 L 120 18 Z" fill="#CFAE58"/>
    <path d="M -25 -35 L 0 -45 L 25 -35 Z" fill="#CFAE58"/>
    <ellipse cx="-50" cy="0" rx="15" ry="12" fill="#0B0F14"/>
  </g>

  <!-- Additional decorative caviar clusters -->
  <g opacity="0.2">
    <circle cx="1050" cy="120" r="6" fill="#CFAE58"/>
    <circle cx="1065" cy="115" r="5" fill="#CFAE58"/>
    <circle cx="1058" cy="130" r="4" fill="#CFAE58"/>
    <circle cx="150" cy="500" r="5" fill="#4FD1C5"/>
    <circle cx="165" cy="508" r="4" fill="#4FD1C5"/>
    <circle cx="140" cy="512" r="5" fill="#4FD1C5"/>
  </g>
</svg>