<svg width="1200" height="630" xmlns="http://www.w3.org/2000/svg">
  <defs>
    <linearGradient id="bgGradient" x1="0%" y1="0%" x2="100%" y2="100%">
      <stop offset="0%" style="stop-color:#0B0F14;stop-opacity:1" />
      <stop offset="50%" style="stop-color:#0F1619;stop-opacity:1" />
      <stop offset="100%" style="stop-color:#0F1922;stop-opacity:1" />
    </linearGradient>
    <linearGradient id="goldGradient" x1="0%" y1="0%" x2="100%" y2="0%">
      <stop offset="0%" style="stop-color:#E5D596;stop-opacity:1" />
      <stop offset="50%" style="stop-color:#CFAE58;stop-opacity:1" />
      <stop offset="100%" style="stop-color:#B89842;stop-opacity:1" />
    </linearGradient>
    <radialGradient id="oceanGradient" cx="50%" cy="50%" r="50%">
      <stop offset="0%" style="stop-color:#4FD1C5;stop-opacity:0.3" />
      <stop offset="100%" style="stop-color:#1E90A0;stop-opacity:0.05" />
    </radialGradient>
    <filter id="glow">
      <feGaussianBlur stdDeviation="5" result="coloredBlur"/>
      <feMerge>
        <feMergeNode in="coloredBlur"/>
        <feMergeNode in="SourceGraphic"/>
      </feMerge>
    </filter>
    <filter id="softGlow">
      <feGaussianBlur stdDeviation="8" result="coloredBlur"/>
      <feMerge>
        <feMergeNode in="coloredBlur"/>
        <feMergeNode in="SourceGraphic"/>
      </feMerge>
    </filter>
    <filter id="shadow">
      <feDropShadow dx="0" dy="4" stdDeviation="8" flood-color="#000000" flood-opacity="0.5"/>
    </filter>
  </defs>

  <!-- Background -->
  <rect width="1200" height="630" fill="url(#bgGradient)"/>

  <!-- Decorative ocean gradients -->
  <ellipse cx="1000" cy="150" rx="300" ry="200" fill="url(#oceanGradient)" opacity="0.4"/>
  <ellipse cx="200" cy="530" rx="250" ry="180" fill="url(#oceanGradient)" opacity="0.3"/>

  <!-- Wave patterns -->
  <path d="M 0 400 Q 300 350 600 400 T 1200 400 L 1200 630 L 0 630 Z" fill="#1E90A0" opacity="0.08"/>
  <path d="M 0 450 Q 250 420 500 450 T 1000 450 T 1200 450 L 1200 630 L 0 630 Z" fill="#4FD1C5" opacity="0.05"/>

  <!-- Caviar roe particles -->
  <circle cx="694.2596356384217" cy="502.3446925024747" r="4.8723797498856785" fill="#CFAE58" opacity="0.10795189969272886"/>
  <circle cx="85.86354111517309" cy="621.2181818838661" r="5.469855398269596" fill="#CFAE58" opacity="0.13781252002507402"/>
  <circle cx="72.24548866059459" cy="409.1015631593133" r="3.158123916564526" fill="#CFAE58" opacity="0.13076729499453454"/>
  <circle cx="628.3447224219977" cy="509.87289657799033" r="5.212315329721225" fill="#CFAE58" opacity="0.17119624283383147"/>
  <circle cx="644.1268787659245" cy="407.9970716836143" r="3.5636841220590503" fill="#CFAE58" opacity="0.1373815892788008"/>
  <circle cx="4.4538053717492865" cy="407.52357490018386" r="5.5012294156442625" fill="#CFAE58" opacity="0.20144892172088325"/>
  <circle cx="4.953188574018874" cy="79.53755923849747" r="2.4590421845172545" fill="#CFAE58" opacity="0.1767512455441084"/>
  <circle cx="157.89981979822508" cy="227.5553831935395" r="2.279408179638569" fill="#CFAE58" opacity="0.2158104991671589"/>
  <circle cx="407.66980801692677" cy="596.1861704571263" r="3.848079597548576" fill="#CFAE58" opacity="0.17373882489250847"/>
  <circle cx="1143.8085077034925" cy="24.596495074889557" r="5.016980284678154" fill="#CFAE58" opacity="0.16923737666295038"/>
  <circle cx="476.37445277462456" cy="16.547367277517687" r="2.363281943551961" fill="#CFAE58" opacity="0.1918018678203805"/>
  <circle cx="724.6404745519669" cy="144.1684626744269" r="5.358943207150182" fill="#CFAE58" opacity="0.24122333135988897"/>
  <circle cx="829.7327885402542" cy="66.22664258201321" r="2.6635592013821396" fill="#CFAE58" opacity="0.22026141865397267"/>
  <circle cx="238.36653245663882" cy="251.97224233175152" r="4.858207170549835" fill="#CFAE58" opacity="0.12856103555724518"/>
  <circle cx="100.84026967193167" cy="418.8545634806393" r="4.779306438408122" fill="#CFAE58" opacity="0.13838454519768154"/>
  <circle cx="166.53153815919813" cy="320.8464446328202" r="5.092563338651544" fill="#CFAE58" opacity="0.24698497783416776"/>
  <circle cx="433.2257349227872" cy="258.1625280123151" r="5.944706337487121" fill="#CFAE58" opacity="0.11337783054494624"/>
  <circle cx="131.881279406845" cy="191.78942381866227" r="3.1612725772348433" fill="#CFAE58" opacity="0.24730119683165827"/>
  <circle cx="55.34373240726702" cy="451.4054878526361" r="4.771919276131417" fill="#CFAE58" opacity="0.19270475378084187"/>
  <circle cx="373.1215064145692" cy="58.35284560931877" r="4.969576310620157" fill="#CFAE58" opacity="0.13335311831972757"/>
  <circle cx="1166.646837078236" cy="125.39365386391722" r="3.0888183409784062" fill="#CFAE58" opacity="0.19900031460100284"/>
  <circle cx="831.1677016546237" cy="348.3367794358005" r="5.285937753679548" fill="#CFAE58" opacity="0.13162366297901965"/>
  <circle cx="1014.7748349876505" cy="230.5225591085559" r="4.455110596382093" fill="#CFAE58" opacity="0.21144926241037446"/>
  <circle cx="538.3484343826278" cy="187.18164171866403" r="2.94118547982978" fill="#CFAE58" opacity="0.16589450838098302"/>
  <circle cx="21.282904277501345" cy="263.1034271774266" r="3.0344282022488716" fill="#CFAE58" opacity="0.2220436389032854"/>
  <circle cx="505.5943930327599" cy="236.21334220314736" r="5.975763220943112" fill="#CFAE58" opacity="0.21688280824722925"/>
  <circle cx="763.2395213731594" cy="289.17262147534774" r="2.9059390698733534" fill="#CFAE58" opacity="0.13024159371178737"/>
  <circle cx="1108.1770275118272" cy="394.1716593117818" r="4.652459095255066" fill="#CFAE58" opacity="0.21507169847873417"/>
  <circle cx="42.5597753625067" cy="33.894949461688356" r="2.2554512406416345" fill="#CFAE58" opacity="0.15242395882218807"/>
  <circle cx="1066.8395042682969" cy="224.81205409264638" r="4.030983077758622" fill="#CFAE58" opacity="0.1647343761885228"/>

  <!-- Border with glow -->
  <rect x="40" y="40" width="1120" height="550" fill="none" stroke="url(#goldGradient)" stroke-width="3" rx="12" filter="url(#softGlow)"/>

  <!-- Icon circle with premium background -->
  <circle cx="150" cy="200" r="75" fill="#CFAE58" opacity="0.15" filter="url(#softGlow)"/>
  <circle cx="150" cy="200" r="70" fill="#CFAE58" opacity="0.25"/>
  <text x="150" y="235" font-size="90" text-anchor="middle" fill="#CFAE58" filter="url(#glow)">🦀</text>

  <!-- Premium logo (crown) with enhanced styling -->
  <g transform="translate(100, 70)">
    <path d="M 30 20 L 40 35 L 35 35 Z M 50 15 L 60 35 L 45 35 Z M 65 20 L 75 35 L 70 35 Z M 30 35 L 75 35 L 73 45 L 32 45 Z"
          fill="url(#goldGradient)" filter="url(#glow)" stroke="#B89842" stroke-width="0.5"/>
    <circle cx="40" cy="25" r="3" fill="#4FD1C5" filter="url(#glow)"/>
    <circle cx="52" cy="20" r="4" fill="#4FD1C5" filter="url(#glow)"/>
    <circle cx="65" cy="25" r="3" fill="#4FD1C5" filter="url(#glow)"/>
  </g>

  <!-- Title with shadow -->
  <text x="280" y="180" font-family="Georgia, serif" font-size="72" font-weight="bold"
        fill="url(#goldGradient)" filter="url(#shadow)">Crabbing on Sakhalin</text>

  <!-- Subtitle with subtle glow -->
  <text x="280" y="230" font-family="Arial, sans-serif" font-size="36"
        fill="#D6DEE6" opacity="0.95" filter="url(#softGlow)">King Crab Fishing &amp; Tours</text>

  <!-- Brand name with letter spacing -->
  <text x="280" y="300" font-family="Georgia, serif" font-size="32" font-weight="bold"
        fill="#CFAE58" letter-spacing="4" filter="url(#glow)">ROYAL KETA</text>

  <!-- Russian tagline -->
  <text x="280" y="340" font-family="Arial, sans-serif" font-size="22" font-style="italic"
        fill="#8B95A1" opacity="0.8">От икринки к королевской</text>

  <!-- Location -->
  <text x="280" y="380" font-family="Arial, sans-serif" font-size="20"
        fill="#8B95A1" opacity="0.7">Невельский район, Сахалин</text>

  <!-- Website with glow -->
  <text x="100" y="570" font-family="Arial, sans-serif" font-size="30" font-weight="bold"
        fill="#4FD1C5" filter="url(#glow)">royalketa.com</text>

  <!-- Enhanced decorative salmon silhouette -->
  <g transform="translate(950, 480)" opacity="0.2" filter="url(#softGlow)">
    <ellipse cx="0" cy="0" rx="90" ry="35" fill="#CFAE58"/>
    <path d="M 90 0 L 120 -18 L 130 0 L 120 18 Z" fill="#CFAE58"/>
    <path d="M -25 -35 L 0 -45 L 25 -35 Z" fill="#CFAE58"/>
    <ellipse cx="-50" cy="0" rx="15" ry="12" fill="#0B0F14"/>
  </g>

  <!-- Additional decorative caviar clusters -->
  <g opacity="0.2">
    <circle cx="1050" cy="120" r="6" fill="#CFAE58"/>
    <circle cx="1065" cy="115" r="5" fill="#CFAE58"/>
    <circle cx="1058" cy="130" r="4" fill="#CFAE58"/>
    <circle cx="150" cy="500" r="5" fill="#4FD1C5"/>
    <circle cx="165" cy="508" r="4" fill="#4FD1C5"/>
    <circle cx="140" cy="512" r="5" fill="#4FD1C5"/>
  </g>
</svg>