<svg width="1200" height="630" xmlns="http://www.w3.org/2000/svg">
  <defs>
    <linearGradient id="bgGradient" x1="0%" y1="0%" x2="100%" y2="100%">
      <stop offset="0%" style="stop-color:#0B0F14;stop-opacity:1" />
      <stop offset="50%" style="stop-color:#0F1619;stop-opacity:1" />
      <stop offset="100%" style="stop-color:#0F1922;stop-opacity:1" />
    </linearGradient>
    <linearGradient id="goldGradient" x1="0%" y1="0%" x2="100%" y2="0%">
      <stop offset="0%" style="stop-color:#E5D596;stop-opacity:1" />
      <stop offset="50%" style="stop-color:#CFAE58;stop-opacity:1" />
      <stop offset="100%" style="stop-color:#B89842;stop-opacity:1" />
    </linearGradient>
    <radialGradient id="oceanGradient" cx="50%" cy="50%" r="50%">
      <stop offset="0%" style="stop-color:#4FD1C5;stop-opacity:0.3" />
      <stop offset="100%" style="stop-color:#1E90A0;stop-opacity:0.05" />
    </radialGradient>
    <filter id="glow">
      <feGaussianBlur stdDeviation="5" result="coloredBlur"/>
      <feMerge>
        <feMergeNode in="coloredBlur"/>
        <feMergeNode in="SourceGraphic"/>
      </feMerge>
    </filter>
    <filter id="softGlow">
      <feGaussianBlur stdDeviation="8" result="coloredBlur"/>
      <feMerge>
        <feMergeNode in="coloredBlur"/>
        <feMergeNode in="SourceGraphic"/>
      </feMerge>
    </filter>
    <filter id="shadow">
      <feDropShadow dx="0" dy="4" stdDeviation="8" flood-color="#000000" flood-opacity="0.5"/>
    </filter>
  </defs>

  <!-- Background -->
  <rect width="1200" height="630" fill="url(#bgGradient)"/>

  <!-- Decorative ocean gradients -->
  <ellipse cx="1000" cy="150" rx="300" ry="200" fill="url(#oceanGradient)" opacity="0.4"/>
  <ellipse cx="200" cy="530" rx="250" ry="180" fill="url(#oceanGradient)" opacity="0.3"/>

  <!-- Wave patterns -->
  <path d="M 0 400 Q 300 350 600 400 T 1200 400 L 1200 630 L 0 630 Z" fill="#1E90A0" opacity="0.08"/>
  <path d="M 0 450 Q 250 420 500 450 T 1000 450 T 1200 450 L 1200 630 L 0 630 Z" fill="#4FD1C5" opacity="0.05"/>

  <!-- Caviar roe particles -->
  <circle cx="534.0248362124371" cy="535.5912070873298" r="3.013820604754468" fill="#CFAE58" opacity="0.13275842098485055"/>
  <circle cx="361.63147363097414" cy="147.13145732978384" r="2.7727037810204536" fill="#CFAE58" opacity="0.16092917490353872"/>
  <circle cx="206.38739757135315" cy="452.9780960398294" r="4.104100262276207" fill="#CFAE58" opacity="0.1553437062166436"/>
  <circle cx="132.86215319672348" cy="201.56571730581672" r="4.642888018125025" fill="#CFAE58" opacity="0.21911021831035926"/>
  <circle cx="50.76776634460715" cy="610.6859233454604" r="2.443817583070774" fill="#CFAE58" opacity="0.11869891255569891"/>
  <circle cx="413.40842605501405" cy="13.277726678886934" r="2.1868478481326914" fill="#CFAE58" opacity="0.23994906323153198"/>
  <circle cx="628.5314637608934" cy="118.62257587892728" r="3.882911113354309" fill="#CFAE58" opacity="0.22404606233075236"/>
  <circle cx="71.69646871948557" cy="517.1418221680586" r="4.112004448216265" fill="#CFAE58" opacity="0.13061613523988538"/>
  <circle cx="140.02785908296485" cy="299.62246868504167" r="2.726133485149645" fill="#CFAE58" opacity="0.11749650163534126"/>
  <circle cx="88.74465895222184" cy="583.6386414097497" r="3.060168616693179" fill="#CFAE58" opacity="0.22314136900366088"/>
  <circle cx="44.56375163999535" cy="301.47057192093837" r="2.4835998675711055" fill="#CFAE58" opacity="0.20592667130294137"/>
  <circle cx="1063.6783053051845" cy="412.28768643537705" r="3.1301503427614517" fill="#CFAE58" opacity="0.1627370927114175"/>
  <circle cx="436.4823093782176" cy="202.223407797524" r="2.3226190127048634" fill="#CFAE58" opacity="0.13294345429326446"/>
  <circle cx="179.1501104840898" cy="62.752256192387115" r="2.6087427618737005" fill="#CFAE58" opacity="0.1885455606909886"/>
  <circle cx="1085.1820474956733" cy="364.6009353243491" r="5.81694246815714" fill="#CFAE58" opacity="0.24854773789982965"/>
  <circle cx="71.73099881211051" cy="605.4870571748165" r="2.8857020175226777" fill="#CFAE58" opacity="0.19456262773188304"/>
  <circle cx="247.10064091543228" cy="474.0634954362639" r="4.4952203848339165" fill="#CFAE58" opacity="0.2005465380293432"/>
  <circle cx="17.187626385840016" cy="581.3125404584381" r="3.1863120280983805" fill="#CFAE58" opacity="0.1666649252723199"/>
  <circle cx="52.49493481270689" cy="142.72350489880793" r="3.1707393976489433" fill="#CFAE58" opacity="0.21799213995438285"/>
  <circle cx="500.9951464795539" cy="472.680348788186" r="2.5356400175112777" fill="#CFAE58" opacity="0.2104337221598303"/>
  <circle cx="400.9739106727213" cy="11.139852329232404" r="5.279057265844522" fill="#CFAE58" opacity="0.15763657179397422"/>
  <circle cx="236.25362025730982" cy="429.89539461359374" r="2.0875003809289163" fill="#CFAE58" opacity="0.2418193581368775"/>
  <circle cx="432.7014929836121" cy="491.10598925802617" r="3.786958175929257" fill="#CFAE58" opacity="0.17375232186502712"/>
  <circle cx="698.710671003647" cy="173.66257057544746" r="3.6428345343729447" fill="#CFAE58" opacity="0.1700258853065954"/>
  <circle cx="661.7765774262721" cy="440.8749319277697" r="2.777628928068694" fill="#CFAE58" opacity="0.2410421093691764"/>
  <circle cx="260.6067129870913" cy="108.95873776999116" r="5.720124225659168" fill="#CFAE58" opacity="0.10143352896924397"/>
  <circle cx="574.7366647842455" cy="525.2749449234788" r="5.335885753060851" fill="#CFAE58" opacity="0.23812367774387827"/>
  <circle cx="323.22442206843675" cy="593.2559206767843" r="4.114546870238566" fill="#CFAE58" opacity="0.1630451998114863"/>
  <circle cx="1021.0719405270107" cy="446.16688933697776" r="3.179311349765734" fill="#CFAE58" opacity="0.1835992951360989"/>
  <circle cx="639.7638278176684" cy="299.92919839232815" r="5.709138924205562" fill="#CFAE58" opacity="0.1515655898848825"/>

  <!-- Border with glow -->
  <rect x="40" y="40" width="1120" height="550" fill="none" stroke="url(#goldGradient)" stroke-width="3" rx="12" filter="url(#softGlow)"/>

  <!-- Icon circle with premium background -->
  <circle cx="150" cy="200" r="75" fill="#CFAE58" opacity="0.15" filter="url(#softGlow)"/>
  <circle cx="150" cy="200" r="70" fill="#CFAE58" opacity="0.25"/>
  <text x="150" y="235" font-size="90" text-anchor="middle" fill="#CFAE58" filter="url(#glow)">🦀</text>

  <!-- Premium logo (crown) with enhanced styling -->
  <g transform="translate(100, 70)">
    <path d="M 30 20 L 40 35 L 35 35 Z M 50 15 L 60 35 L 45 35 Z M 65 20 L 75 35 L 70 35 Z M 30 35 L 75 35 L 73 45 L 32 45 Z"
          fill="url(#goldGradient)" filter="url(#glow)" stroke="#B89842" stroke-width="0.5"/>
    <circle cx="40" cy="25" r="3" fill="#4FD1C5" filter="url(#glow)"/>
    <circle cx="52" cy="20" r="4" fill="#4FD1C5" filter="url(#glow)"/>
    <circle cx="65" cy="25" r="3" fill="#4FD1C5" filter="url(#glow)"/>
  </g>

  <!-- Title with shadow -->
  <text x="280" y="180" font-family="Georgia, serif" font-size="72" font-weight="bold"
        fill="url(#goldGradient)" filter="url(#shadow)">Crabbing on Sakhalin</text>

  <!-- Subtitle with subtle glow -->
  <text x="280" y="230" font-family="Arial, sans-serif" font-size="36"
        fill="#D6DEE6" opacity="0.95" filter="url(#softGlow)">King Crab Fishing &amp; Tours</text>

  <!-- Brand name with letter spacing -->
  <text x="280" y="300" font-family="Georgia, serif" font-size="32" font-weight="bold"
        fill="#CFAE58" letter-spacing="4" filter="url(#glow)">ROYAL KETA</text>

  <!-- Russian tagline -->
  <text x="280" y="340" font-family="Arial, sans-serif" font-size="22" font-style="italic"
        fill="#8B95A1" opacity="0.8">От икринки к королевской</text>

  <!-- Location -->
  <text x="280" y="380" font-family="Arial, sans-serif" font-size="20"
        fill="#8B95A1" opacity="0.7">Невельский район, Сахалин</text>

  <!-- Website with glow -->
  <text x="100" y="570" font-family="Arial, sans-serif" font-size="30" font-weight="bold"
        fill="#4FD1C5" filter="url(#glow)">royalketa.com</text>

  <!-- Enhanced decorative salmon silhouette -->
  <g transform="translate(950, 480)" opacity="0.2" filter="url(#softGlow)">
    <ellipse cx="0" cy="0" rx="90" ry="35" fill="#CFAE58"/>
    <path d="M 90 0 L 120 -18 L 130 0 L 120 18 Z" fill="#CFAE58"/>
    <path d="M -25 -35 L 0 -45 L 25 -35 Z" fill="#CFAE58"/>
    <ellipse cx="-50" cy="0" rx="15" ry="12" fill="#0B0F14"/>
  </g>

  <!-- Additional decorative caviar clusters -->
  <g opacity="0.2">
    <circle cx="1050" cy="120" r="6" fill="#CFAE58"/>
    <circle cx="1065" cy="115" r="5" fill="#CFAE58"/>
    <circle cx="1058" cy="130" r="4" fill="#CFAE58"/>
    <circle cx="150" cy="500" r="5" fill="#4FD1C5"/>
    <circle cx="165" cy="508" r="4" fill="#4FD1C5"/>
    <circle cx="140" cy="512" r="5" fill="#4FD1C5"/>
  </g>
</svg>