<svg width="1200" height="630" xmlns="http://www.w3.org/2000/svg">
  <defs>
    <linearGradient id="bgGradient" x1="0%" y1="0%" x2="100%" y2="100%">
      <stop offset="0%" style="stop-color:#0B0F14;stop-opacity:1" />
      <stop offset="50%" style="stop-color:#0F1619;stop-opacity:1" />
      <stop offset="100%" style="stop-color:#0F1922;stop-opacity:1" />
    </linearGradient>
    <linearGradient id="goldGradient" x1="0%" y1="0%" x2="100%" y2="0%">
      <stop offset="0%" style="stop-color:#E5D596;stop-opacity:1" />
      <stop offset="50%" style="stop-color:#CFAE58;stop-opacity:1" />
      <stop offset="100%" style="stop-color:#B89842;stop-opacity:1" />
    </linearGradient>
    <radialGradient id="oceanGradient" cx="50%" cy="50%" r="50%">
      <stop offset="0%" style="stop-color:#4FD1C5;stop-opacity:0.3" />
      <stop offset="100%" style="stop-color:#1E90A0;stop-opacity:0.05" />
    </radialGradient>
    <filter id="glow">
      <feGaussianBlur stdDeviation="5" result="coloredBlur"/>
      <feMerge>
        <feMergeNode in="coloredBlur"/>
        <feMergeNode in="SourceGraphic"/>
      </feMerge>
    </filter>
    <filter id="softGlow">
      <feGaussianBlur stdDeviation="8" result="coloredBlur"/>
      <feMerge>
        <feMergeNode in="coloredBlur"/>
        <feMergeNode in="SourceGraphic"/>
      </feMerge>
    </filter>
    <filter id="shadow">
      <feDropShadow dx="0" dy="4" stdDeviation="8" flood-color="#000000" flood-opacity="0.5"/>
    </filter>
  </defs>

  <!-- Background -->
  <rect width="1200" height="630" fill="url(#bgGradient)"/>

  <!-- Decorative ocean gradients -->
  <ellipse cx="1000" cy="150" rx="300" ry="200" fill="url(#oceanGradient)" opacity="0.4"/>
  <ellipse cx="200" cy="530" rx="250" ry="180" fill="url(#oceanGradient)" opacity="0.3"/>

  <!-- Wave patterns -->
  <path d="M 0 400 Q 300 350 600 400 T 1200 400 L 1200 630 L 0 630 Z" fill="#1E90A0" opacity="0.08"/>
  <path d="M 0 450 Q 250 420 500 450 T 1000 450 T 1200 450 L 1200 630 L 0 630 Z" fill="#4FD1C5" opacity="0.05"/>

  <!-- Caviar roe particles -->
  <circle cx="41.45484664590118" cy="114.98253733830087" r="3.693501133563808" fill="#CFAE58" opacity="0.21654265254542185"/>
  <circle cx="984.9971968573138" cy="336.1890572054225" r="5.29232431954431" fill="#CFAE58" opacity="0.13815823387457574"/>
  <circle cx="754.8208519886986" cy="250.29243337657047" r="2.708675820213983" fill="#CFAE58" opacity="0.1548591330628169"/>
  <circle cx="970.5306172053291" cy="170.1887465056715" r="2.2641389869093267" fill="#CFAE58" opacity="0.17020818233051738"/>
  <circle cx="464.6417164236964" cy="14.606564303564081" r="4.393750667134119" fill="#CFAE58" opacity="0.23513166566369043"/>
  <circle cx="894.645417556166" cy="317.202951087324" r="3.7160832060829323" fill="#CFAE58" opacity="0.22214318941812286"/>
  <circle cx="596.5166704052513" cy="539.6914084712625" r="5.744854591144752" fill="#CFAE58" opacity="0.13970489142085488"/>
  <circle cx="1125.6788292731717" cy="276.8275882450417" r="2.265277655111395" fill="#CFAE58" opacity="0.21574401816275035"/>
  <circle cx="312.94249428097316" cy="29.27872374158548" r="5.089494967112948" fill="#CFAE58" opacity="0.20511542241280328"/>
  <circle cx="56.15336735517937" cy="242.52850373516836" r="2.3372180403924028" fill="#CFAE58" opacity="0.1383531787264779"/>
  <circle cx="1112.1483653447547" cy="339.78793412545303" r="3.7560515835914328" fill="#CFAE58" opacity="0.15735665454329656"/>
  <circle cx="659.2072411233315" cy="461.6229490884521" r="2.2504487767747157" fill="#CFAE58" opacity="0.17392507496238194"/>
  <circle cx="403.41013230494644" cy="253.30993460524672" r="4.6647203460736275" fill="#CFAE58" opacity="0.12102551345182536"/>
  <circle cx="444.8180926301458" cy="407.41732393524245" r="5.64283183645664" fill="#CFAE58" opacity="0.1243611704484229"/>
  <circle cx="1001.2426017877195" cy="239.33200086139777" r="4.103398416714498" fill="#CFAE58" opacity="0.17766394116909262"/>
  <circle cx="141.70648242335648" cy="391.27021319869914" r="4.701863371170878" fill="#CFAE58" opacity="0.12235041997781837"/>
  <circle cx="797.5752537549229" cy="64.23233025047207" r="2.8588001854457294" fill="#CFAE58" opacity="0.2019188911503797"/>
  <circle cx="672.7958793761748" cy="85.90397733735726" r="5.816153692693437" fill="#CFAE58" opacity="0.10866338928023786"/>
  <circle cx="647.2870503877056" cy="594.7648738646883" r="2.9812585217072005" fill="#CFAE58" opacity="0.2074697578348902"/>
  <circle cx="488.62207621794425" cy="328.1471313824615" r="5.657922281781508" fill="#CFAE58" opacity="0.20466517568023046"/>
  <circle cx="81.4796860437411" cy="459.5229330908188" r="3.672071339275501" fill="#CFAE58" opacity="0.20794740460213634"/>
  <circle cx="5.138800737864235" cy="397.6582325456079" r="4.896978426538333" fill="#CFAE58" opacity="0.2190538315908142"/>
  <circle cx="96.04488363135273" cy="519.0477566439359" r="2.9858455537980246" fill="#CFAE58" opacity="0.1839153835623078"/>
  <circle cx="758.3112816790315" cy="559.5388264840423" r="5.740914668777451" fill="#CFAE58" opacity="0.21823609662221707"/>
  <circle cx="1076.7621176765165" cy="599.9105835652268" r="2.0299244366632667" fill="#CFAE58" opacity="0.1907075955215401"/>
  <circle cx="1001.2879811680178" cy="473.4972444062211" r="3.2238084593481053" fill="#CFAE58" opacity="0.14382203405236121"/>
  <circle cx="485.3115606631293" cy="352.11120471905906" r="2.3558273284675417" fill="#CFAE58" opacity="0.22898747217471224"/>
  <circle cx="949.7333052455945" cy="430.5477086959147" r="3.266189197827402" fill="#CFAE58" opacity="0.21271347252110276"/>
  <circle cx="776.2374696136552" cy="135.74384380319853" r="5.19676798238439" fill="#CFAE58" opacity="0.1778817206152905"/>
  <circle cx="499.8610691397695" cy="197.9171690850533" r="4.802222508187621" fill="#CFAE58" opacity="0.21291824827564368"/>

  <!-- Border with glow -->
  <rect x="40" y="40" width="1120" height="550" fill="none" stroke="url(#goldGradient)" stroke-width="3" rx="12" filter="url(#softGlow)"/>

  <!-- Icon circle with premium background -->
  <circle cx="150" cy="200" r="75" fill="#CFAE58" opacity="0.15" filter="url(#softGlow)"/>
  <circle cx="150" cy="200" r="70" fill="#CFAE58" opacity="0.25"/>
  <text x="150" y="235" font-size="90" text-anchor="middle" fill="#CFAE58" filter="url(#glow)">🦀</text>

  <!-- Premium logo (crown) with enhanced styling -->
  <g transform="translate(100, 70)">
    <path d="M 30 20 L 40 35 L 35 35 Z M 50 15 L 60 35 L 45 35 Z M 65 20 L 75 35 L 70 35 Z M 30 35 L 75 35 L 73 45 L 32 45 Z"
          fill="url(#goldGradient)" filter="url(#glow)" stroke="#B89842" stroke-width="0.5"/>
    <circle cx="40" cy="25" r="3" fill="#4FD1C5" filter="url(#glow)"/>
    <circle cx="52" cy="20" r="4" fill="#4FD1C5" filter="url(#glow)"/>
    <circle cx="65" cy="25" r="3" fill="#4FD1C5" filter="url(#glow)"/>
  </g>

  <!-- Title with shadow -->
  <text x="280" y="180" font-family="Georgia, serif" font-size="72" font-weight="bold"
        fill="url(#goldGradient)" filter="url(#shadow)">Crabbing on Sakhalin</text>

  <!-- Subtitle with subtle glow -->
  <text x="280" y="230" font-family="Arial, sans-serif" font-size="36"
        fill="#D6DEE6" opacity="0.95" filter="url(#softGlow)">King Crab Fishing &amp; Tours</text>

  <!-- Brand name with letter spacing -->
  <text x="280" y="300" font-family="Georgia, serif" font-size="32" font-weight="bold"
        fill="#CFAE58" letter-spacing="4" filter="url(#glow)">ROYAL KETA</text>

  <!-- Russian tagline -->
  <text x="280" y="340" font-family="Arial, sans-serif" font-size="22" font-style="italic"
        fill="#8B95A1" opacity="0.8">От икринки к королевской</text>

  <!-- Location -->
  <text x="280" y="380" font-family="Arial, sans-serif" font-size="20"
        fill="#8B95A1" opacity="0.7">Невельский район, Сахалин</text>

  <!-- Website with glow -->
  <text x="100" y="570" font-family="Arial, sans-serif" font-size="30" font-weight="bold"
        fill="#4FD1C5" filter="url(#glow)">royalketa.com</text>

  <!-- Enhanced decorative salmon silhouette -->
  <g transform="translate(950, 480)" opacity="0.2" filter="url(#softGlow)">
    <ellipse cx="0" cy="0" rx="90" ry="35" fill="#CFAE58"/>
    <path d="M 90 0 L 120 -18 L 130 0 L 120 18 Z" fill="#CFAE58"/>
    <path d="M -25 -35 L 0 -45 L 25 -35 Z" fill="#CFAE58"/>
    <ellipse cx="-50" cy="0" rx="15" ry="12" fill="#0B0F14"/>
  </g>

  <!-- Additional decorative caviar clusters -->
  <g opacity="0.2">
    <circle cx="1050" cy="120" r="6" fill="#CFAE58"/>
    <circle cx="1065" cy="115" r="5" fill="#CFAE58"/>
    <circle cx="1058" cy="130" r="4" fill="#CFAE58"/>
    <circle cx="150" cy="500" r="5" fill="#4FD1C5"/>
    <circle cx="165" cy="508" r="4" fill="#4FD1C5"/>
    <circle cx="140" cy="512" r="5" fill="#4FD1C5"/>
  </g>
</svg>