<svg width="1200" height="630" xmlns="http://www.w3.org/2000/svg">
  <defs>
    <linearGradient id="bgGradient" x1="0%" y1="0%" x2="100%" y2="100%">
      <stop offset="0%" style="stop-color:#0B0F14;stop-opacity:1" />
      <stop offset="50%" style="stop-color:#0F1619;stop-opacity:1" />
      <stop offset="100%" style="stop-color:#0F1922;stop-opacity:1" />
    </linearGradient>
    <linearGradient id="goldGradient" x1="0%" y1="0%" x2="100%" y2="0%">
      <stop offset="0%" style="stop-color:#E5D596;stop-opacity:1" />
      <stop offset="50%" style="stop-color:#CFAE58;stop-opacity:1" />
      <stop offset="100%" style="stop-color:#B89842;stop-opacity:1" />
    </linearGradient>
    <radialGradient id="oceanGradient" cx="50%" cy="50%" r="50%">
      <stop offset="0%" style="stop-color:#4FD1C5;stop-opacity:0.3" />
      <stop offset="100%" style="stop-color:#1E90A0;stop-opacity:0.05" />
    </radialGradient>
    <filter id="glow">
      <feGaussianBlur stdDeviation="5" result="coloredBlur"/>
      <feMerge>
        <feMergeNode in="coloredBlur"/>
        <feMergeNode in="SourceGraphic"/>
      </feMerge>
    </filter>
    <filter id="softGlow">
      <feGaussianBlur stdDeviation="8" result="coloredBlur"/>
      <feMerge>
        <feMergeNode in="coloredBlur"/>
        <feMergeNode in="SourceGraphic"/>
      </feMerge>
    </filter>
    <filter id="shadow">
      <feDropShadow dx="0" dy="4" stdDeviation="8" flood-color="#000000" flood-opacity="0.5"/>
    </filter>
  </defs>

  <!-- Background -->
  <rect width="1200" height="630" fill="url(#bgGradient)"/>

  <!-- Decorative ocean gradients -->
  <ellipse cx="1000" cy="150" rx="300" ry="200" fill="url(#oceanGradient)" opacity="0.4"/>
  <ellipse cx="200" cy="530" rx="250" ry="180" fill="url(#oceanGradient)" opacity="0.3"/>

  <!-- Wave patterns -->
  <path d="M 0 400 Q 300 350 600 400 T 1200 400 L 1200 630 L 0 630 Z" fill="#1E90A0" opacity="0.08"/>
  <path d="M 0 450 Q 250 420 500 450 T 1000 450 T 1200 450 L 1200 630 L 0 630 Z" fill="#4FD1C5" opacity="0.05"/>

  <!-- Caviar roe particles -->
  <circle cx="693.6883384013892" cy="342.6198777743672" r="2.847964373421142" fill="#CFAE58" opacity="0.21550930387130174"/>
  <circle cx="1178.7703559482784" cy="552.6098595138748" r="2.6213546920456015" fill="#CFAE58" opacity="0.2001875775198116"/>
  <circle cx="701.9848265365817" cy="480.32981432928204" r="4.265161406420022" fill="#CFAE58" opacity="0.143001641708594"/>
  <circle cx="240.83617943263124" cy="629.8661326913987" r="2.3358091599024275" fill="#CFAE58" opacity="0.15978060154257984"/>
  <circle cx="474.12415800828677" cy="48.88027093810517" r="2.261177730385149" fill="#CFAE58" opacity="0.17745712748866288"/>
  <circle cx="201.90206742645537" cy="603.794436772254" r="3.441913846903896" fill="#CFAE58" opacity="0.1805396579483287"/>
  <circle cx="476.60518022147977" cy="527.0338004879802" r="2.316943958027413" fill="#CFAE58" opacity="0.19267685461984457"/>
  <circle cx="557.699344644366" cy="43.7695077704401" r="4.472327696234867" fill="#CFAE58" opacity="0.12167029383347966"/>
  <circle cx="950.494399676738" cy="417.3280973870263" r="2.8247377119961143" fill="#CFAE58" opacity="0.10981764590462532"/>
  <circle cx="425.97706257207574" cy="87.22497453399582" r="4.266404585195324" fill="#CFAE58" opacity="0.14614522434316926"/>
  <circle cx="634.9750537794711" cy="439.0589087999559" r="4.032920701459077" fill="#CFAE58" opacity="0.16083862201670893"/>
  <circle cx="50.85553177889501" cy="586.1311689259057" r="5.8275289833812485" fill="#CFAE58" opacity="0.10148451498157939"/>
  <circle cx="528.5707749845311" cy="603.070918666193" r="3.564155522435132" fill="#CFAE58" opacity="0.18477309358205257"/>
  <circle cx="741.0597920211336" cy="151.36411858599902" r="5.022409146604323" fill="#CFAE58" opacity="0.14447157469412936"/>
  <circle cx="848.4959003728236" cy="455.16688852803605" r="3.170150412394908" fill="#CFAE58" opacity="0.21652022372891874"/>
  <circle cx="425.3319508467488" cy="365.31508921028916" r="5.357415244108915" fill="#CFAE58" opacity="0.14927166263082875"/>
  <circle cx="634.0724976073094" cy="506.31544424492563" r="2.2416883810550967" fill="#CFAE58" opacity="0.12850286865843066"/>
  <circle cx="859.4210433883143" cy="297.92439192683497" r="3.6861689792875882" fill="#CFAE58" opacity="0.1150002725994097"/>
  <circle cx="998.3616661438257" cy="275.02831247504616" r="3.9750098089926986" fill="#CFAE58" opacity="0.1486402200517668"/>
  <circle cx="39.70830130256111" cy="448.18554451639125" r="3.1297473724384695" fill="#CFAE58" opacity="0.1390824986302815"/>
  <circle cx="328.3798170930314" cy="112.42342961505656" r="5.245149441207" fill="#CFAE58" opacity="0.18163783093606756"/>
  <circle cx="586.8297423207285" cy="439.2522797096995" r="3.420895378354838" fill="#CFAE58" opacity="0.11676346576249096"/>
  <circle cx="238.80650354935594" cy="417.8905539246093" r="3.0518488146776654" fill="#CFAE58" opacity="0.1941009275169692"/>
  <circle cx="1116.1720353187684" cy="459.2272461384647" r="4.468150990903667" fill="#CFAE58" opacity="0.13852303746340816"/>
  <circle cx="143.39658182556923" cy="241.10925848327847" r="3.4199348195554675" fill="#CFAE58" opacity="0.13831972739411427"/>
  <circle cx="1003.4794525707605" cy="354.6495745470671" r="5.2570627154518546" fill="#CFAE58" opacity="0.1273153561360068"/>
  <circle cx="193.39110982005928" cy="304.88096305600175" r="2.508038733398137" fill="#CFAE58" opacity="0.10110212600591567"/>
  <circle cx="945.873915033245" cy="29.098420415974093" r="2.916747079581474" fill="#CFAE58" opacity="0.14509813470468866"/>
  <circle cx="33.83466382746416" cy="575.2137720428915" r="5.961314236842525" fill="#CFAE58" opacity="0.14273501686996892"/>
  <circle cx="470.56629417881135" cy="118.558195883513" r="5.868176765494324" fill="#CFAE58" opacity="0.20266974702363813"/>

  <!-- Border with glow -->
  <rect x="40" y="40" width="1120" height="550" fill="none" stroke="url(#goldGradient)" stroke-width="3" rx="12" filter="url(#softGlow)"/>

  <!-- Icon circle with premium background -->
  <circle cx="150" cy="200" r="75" fill="#CFAE58" opacity="0.15" filter="url(#softGlow)"/>
  <circle cx="150" cy="200" r="70" fill="#CFAE58" opacity="0.25"/>
  <text x="150" y="235" font-size="90" text-anchor="middle" fill="#CFAE58" filter="url(#glow)">❓</text>

  <!-- Premium logo (crown) with enhanced styling -->
  <g transform="translate(100, 70)">
    <path d="M 30 20 L 40 35 L 35 35 Z M 50 15 L 60 35 L 45 35 Z M 65 20 L 75 35 L 70 35 Z M 30 35 L 75 35 L 73 45 L 32 45 Z"
          fill="url(#goldGradient)" filter="url(#glow)" stroke="#B89842" stroke-width="0.5"/>
    <circle cx="40" cy="25" r="3" fill="#4FD1C5" filter="url(#glow)"/>
    <circle cx="52" cy="20" r="4" fill="#4FD1C5" filter="url(#glow)"/>
    <circle cx="65" cy="25" r="3" fill="#4FD1C5" filter="url(#glow)"/>
  </g>

  <!-- Title with shadow -->
  <text x="280" y="180" font-family="Georgia, serif" font-size="72" font-weight="bold"
        fill="url(#goldGradient)" filter="url(#shadow)">FAQ</text>

  <!-- Subtitle with subtle glow -->
  <text x="280" y="230" font-family="Arial, sans-serif" font-size="36"
        fill="#D6DEE6" opacity="0.95" filter="url(#softGlow)">Frequently Asked Questions</text>

  <!-- Brand name with letter spacing -->
  <text x="280" y="300" font-family="Georgia, serif" font-size="32" font-weight="bold"
        fill="#CFAE58" letter-spacing="4" filter="url(#glow)">ROYAL KETA</text>

  <!-- Russian tagline -->
  <text x="280" y="340" font-family="Arial, sans-serif" font-size="22" font-style="italic"
        fill="#8B95A1" opacity="0.8">От икринки к королевской</text>

  <!-- Location -->
  <text x="280" y="380" font-family="Arial, sans-serif" font-size="20"
        fill="#8B95A1" opacity="0.7">Невельский район, Сахалин</text>

  <!-- Website with glow -->
  <text x="100" y="570" font-family="Arial, sans-serif" font-size="30" font-weight="bold"
        fill="#4FD1C5" filter="url(#glow)">royalketa.com</text>

  <!-- Enhanced decorative salmon silhouette -->
  <g transform="translate(950, 480)" opacity="0.2" filter="url(#softGlow)">
    <ellipse cx="0" cy="0" rx="90" ry="35" fill="#CFAE58"/>
    <path d="M 90 0 L 120 -18 L 130 0 L 120 18 Z" fill="#CFAE58"/>
    <path d="M -25 -35 L 0 -45 L 25 -35 Z" fill="#CFAE58"/>
    <ellipse cx="-50" cy="0" rx="15" ry="12" fill="#0B0F14"/>
  </g>

  <!-- Additional decorative caviar clusters -->
  <g opacity="0.2">
    <circle cx="1050" cy="120" r="6" fill="#CFAE58"/>
    <circle cx="1065" cy="115" r="5" fill="#CFAE58"/>
    <circle cx="1058" cy="130" r="4" fill="#CFAE58"/>
    <circle cx="150" cy="500" r="5" fill="#4FD1C5"/>
    <circle cx="165" cy="508" r="4" fill="#4FD1C5"/>
    <circle cx="140" cy="512" r="5" fill="#4FD1C5"/>
  </g>
</svg>