<svg width="1200" height="630" xmlns="http://www.w3.org/2000/svg">
  <defs>
    <linearGradient id="bgGradient" x1="0%" y1="0%" x2="100%" y2="100%">
      <stop offset="0%" style="stop-color:#0B0F14;stop-opacity:1" />
      <stop offset="50%" style="stop-color:#0F1619;stop-opacity:1" />
      <stop offset="100%" style="stop-color:#0F1922;stop-opacity:1" />
    </linearGradient>
    <linearGradient id="goldGradient" x1="0%" y1="0%" x2="100%" y2="0%">
      <stop offset="0%" style="stop-color:#E5D596;stop-opacity:1" />
      <stop offset="50%" style="stop-color:#CFAE58;stop-opacity:1" />
      <stop offset="100%" style="stop-color:#B89842;stop-opacity:1" />
    </linearGradient>
    <radialGradient id="oceanGradient" cx="50%" cy="50%" r="50%">
      <stop offset="0%" style="stop-color:#4FD1C5;stop-opacity:0.3" />
      <stop offset="100%" style="stop-color:#1E90A0;stop-opacity:0.05" />
    </radialGradient>
    <filter id="glow">
      <feGaussianBlur stdDeviation="5" result="coloredBlur"/>
      <feMerge>
        <feMergeNode in="coloredBlur"/>
        <feMergeNode in="SourceGraphic"/>
      </feMerge>
    </filter>
    <filter id="softGlow">
      <feGaussianBlur stdDeviation="8" result="coloredBlur"/>
      <feMerge>
        <feMergeNode in="coloredBlur"/>
        <feMergeNode in="SourceGraphic"/>
      </feMerge>
    </filter>
    <filter id="shadow">
      <feDropShadow dx="0" dy="4" stdDeviation="8" flood-color="#000000" flood-opacity="0.5"/>
    </filter>
  </defs>

  <!-- Background -->
  <rect width="1200" height="630" fill="url(#bgGradient)"/>

  <!-- Decorative ocean gradients -->
  <ellipse cx="1000" cy="150" rx="300" ry="200" fill="url(#oceanGradient)" opacity="0.4"/>
  <ellipse cx="200" cy="530" rx="250" ry="180" fill="url(#oceanGradient)" opacity="0.3"/>

  <!-- Wave patterns -->
  <path d="M 0 400 Q 300 350 600 400 T 1200 400 L 1200 630 L 0 630 Z" fill="#1E90A0" opacity="0.08"/>
  <path d="M 0 450 Q 250 420 500 450 T 1000 450 T 1200 450 L 1200 630 L 0 630 Z" fill="#4FD1C5" opacity="0.05"/>

  <!-- Caviar roe particles -->
  <circle cx="611.4721537384312" cy="50.665076824272695" r="5.7672087698976355" fill="#CFAE58" opacity="0.11821541748475503"/>
  <circle cx="324.37987359433083" cy="349.8132254744952" r="3.258789352187886" fill="#CFAE58" opacity="0.12170266479344834"/>
  <circle cx="788.9104550324546" cy="223.94378194178705" r="5.121493915941061" fill="#CFAE58" opacity="0.10528601847374633"/>
  <circle cx="757.012858841503" cy="601.0546466219727" r="4.688097464473203" fill="#CFAE58" opacity="0.11962140453661568"/>
  <circle cx="914.2968616316964" cy="77.08521639728718" r="3.85678609189853" fill="#CFAE58" opacity="0.16345216076384383"/>
  <circle cx="822.5756707936174" cy="525.0245148096116" r="2.680982741945592" fill="#CFAE58" opacity="0.11611717752614457"/>
  <circle cx="456.82215469430304" cy="363.87132213686897" r="2.9974850667203325" fill="#CFAE58" opacity="0.1249926363116742"/>
  <circle cx="1084.9203508405915" cy="62.31409704792301" r="5.96884632134451" fill="#CFAE58" opacity="0.13335348142414122"/>
  <circle cx="644.4142786295317" cy="257.2682183182891" r="2.28253123891398" fill="#CFAE58" opacity="0.2161798072639851"/>
  <circle cx="941.296021236821" cy="403.49887215627956" r="2.245316692700729" fill="#CFAE58" opacity="0.2238307505200154"/>
  <circle cx="953.252376461248" cy="362.4559250725423" r="2.483968390018606" fill="#CFAE58" opacity="0.24461491970543217"/>
  <circle cx="1118.6223543721808" cy="288.25002896670804" r="3.8781723448870706" fill="#CFAE58" opacity="0.1658611862076982"/>
  <circle cx="162.16051586000071" cy="407.45563494132585" r="3.490724012967736" fill="#CFAE58" opacity="0.15130344648834726"/>
  <circle cx="202.52654169991143" cy="461.71340466828144" r="4.120895428741438" fill="#CFAE58" opacity="0.17077296857535817"/>
  <circle cx="848.2299749766375" cy="370.18231418969486" r="4.048720183832189" fill="#CFAE58" opacity="0.18785016838998958"/>
  <circle cx="551.7709333124444" cy="526.0879661983331" r="5.523095252070394" fill="#CFAE58" opacity="0.10330280408669906"/>
  <circle cx="275.2730181684557" cy="253.0663825299301" r="3.9251609581497013" fill="#CFAE58" opacity="0.21505562395799163"/>
  <circle cx="1149.105161224943" cy="609.8983715677052" r="3.8831894294612725" fill="#CFAE58" opacity="0.21040990114460953"/>
  <circle cx="515.6172642696599" cy="37.717797205111076" r="5.519914395950716" fill="#CFAE58" opacity="0.1377579334002178"/>
  <circle cx="785.1448094220034" cy="249.75320113038705" r="4.353284039764524" fill="#CFAE58" opacity="0.12171330165101021"/>
  <circle cx="23.656184188152363" cy="20.146384102148534" r="2.6701865936637965" fill="#CFAE58" opacity="0.14958155385688088"/>
  <circle cx="925.2088638597484" cy="482.0683755966876" r="2.422461564728809" fill="#CFAE58" opacity="0.1459136174078684"/>
  <circle cx="923.6882062860378" cy="19.07215676076962" r="4.255250131508824" fill="#CFAE58" opacity="0.22434061643631606"/>
  <circle cx="1157.736067434876" cy="368.9381290314646" r="5.4519428014586095" fill="#CFAE58" opacity="0.1352859340546526"/>
  <circle cx="956.0942414050002" cy="277.2290650892439" r="3.832041170577879" fill="#CFAE58" opacity="0.20478964535479605"/>
  <circle cx="469.15335254967357" cy="443.64199190991184" r="4.39957775503561" fill="#CFAE58" opacity="0.19373946242408308"/>
  <circle cx="972.6472070927126" cy="450.5270683674602" r="4.498054935697767" fill="#CFAE58" opacity="0.1967047850115285"/>
  <circle cx="1127.8044878240687" cy="11.013485382652217" r="2.329674188001164" fill="#CFAE58" opacity="0.16197741874383292"/>
  <circle cx="492.70693087750107" cy="81.50774992749263" r="4.45900766064721" fill="#CFAE58" opacity="0.23357360434290794"/>
  <circle cx="1159.108334306064" cy="352.11425459781026" r="3.483046603797174" fill="#CFAE58" opacity="0.2188734669553309"/>

  <!-- Border with glow -->
  <rect x="40" y="40" width="1120" height="550" fill="none" stroke="url(#goldGradient)" stroke-width="3" rx="12" filter="url(#softGlow)"/>

  <!-- Icon circle with premium background -->
  <circle cx="150" cy="200" r="75" fill="#CFAE58" opacity="0.15" filter="url(#softGlow)"/>
  <circle cx="150" cy="200" r="70" fill="#CFAE58" opacity="0.25"/>
  <text x="150" y="235" font-size="90" text-anchor="middle" fill="#CFAE58" filter="url(#glow)">❓</text>

  <!-- Premium logo (crown) with enhanced styling -->
  <g transform="translate(100, 70)">
    <path d="M 30 20 L 40 35 L 35 35 Z M 50 15 L 60 35 L 45 35 Z M 65 20 L 75 35 L 70 35 Z M 30 35 L 75 35 L 73 45 L 32 45 Z"
          fill="url(#goldGradient)" filter="url(#glow)" stroke="#B89842" stroke-width="0.5"/>
    <circle cx="40" cy="25" r="3" fill="#4FD1C5" filter="url(#glow)"/>
    <circle cx="52" cy="20" r="4" fill="#4FD1C5" filter="url(#glow)"/>
    <circle cx="65" cy="25" r="3" fill="#4FD1C5" filter="url(#glow)"/>
  </g>

  <!-- Title with shadow -->
  <text x="280" y="180" font-family="Georgia, serif" font-size="72" font-weight="bold"
        fill="url(#goldGradient)" filter="url(#shadow)">FAQ</text>

  <!-- Subtitle with subtle glow -->
  <text x="280" y="230" font-family="Arial, sans-serif" font-size="36"
        fill="#D6DEE6" opacity="0.95" filter="url(#softGlow)">Frequently Asked Questions</text>

  <!-- Brand name with letter spacing -->
  <text x="280" y="300" font-family="Georgia, serif" font-size="32" font-weight="bold"
        fill="#CFAE58" letter-spacing="4" filter="url(#glow)">ROYAL KETA</text>

  <!-- Russian tagline -->
  <text x="280" y="340" font-family="Arial, sans-serif" font-size="22" font-style="italic"
        fill="#8B95A1" opacity="0.8">От икринки к королевской</text>

  <!-- Location -->
  <text x="280" y="380" font-family="Arial, sans-serif" font-size="20"
        fill="#8B95A1" opacity="0.7">Невельский район, Сахалин</text>

  <!-- Website with glow -->
  <text x="100" y="570" font-family="Arial, sans-serif" font-size="30" font-weight="bold"
        fill="#4FD1C5" filter="url(#glow)">royalketa.com</text>

  <!-- Enhanced decorative salmon silhouette -->
  <g transform="translate(950, 480)" opacity="0.2" filter="url(#softGlow)">
    <ellipse cx="0" cy="0" rx="90" ry="35" fill="#CFAE58"/>
    <path d="M 90 0 L 120 -18 L 130 0 L 120 18 Z" fill="#CFAE58"/>
    <path d="M -25 -35 L 0 -45 L 25 -35 Z" fill="#CFAE58"/>
    <ellipse cx="-50" cy="0" rx="15" ry="12" fill="#0B0F14"/>
  </g>

  <!-- Additional decorative caviar clusters -->
  <g opacity="0.2">
    <circle cx="1050" cy="120" r="6" fill="#CFAE58"/>
    <circle cx="1065" cy="115" r="5" fill="#CFAE58"/>
    <circle cx="1058" cy="130" r="4" fill="#CFAE58"/>
    <circle cx="150" cy="500" r="5" fill="#4FD1C5"/>
    <circle cx="165" cy="508" r="4" fill="#4FD1C5"/>
    <circle cx="140" cy="512" r="5" fill="#4FD1C5"/>
  </g>
</svg>