<svg width="1200" height="630" xmlns="http://www.w3.org/2000/svg">
  <defs>
    <linearGradient id="bgGradient" x1="0%" y1="0%" x2="100%" y2="100%">
      <stop offset="0%" style="stop-color:#0B0F14;stop-opacity:1" />
      <stop offset="50%" style="stop-color:#0F1619;stop-opacity:1" />
      <stop offset="100%" style="stop-color:#0F1922;stop-opacity:1" />
    </linearGradient>
    <linearGradient id="goldGradient" x1="0%" y1="0%" x2="100%" y2="0%">
      <stop offset="0%" style="stop-color:#E5D596;stop-opacity:1" />
      <stop offset="50%" style="stop-color:#CFAE58;stop-opacity:1" />
      <stop offset="100%" style="stop-color:#B89842;stop-opacity:1" />
    </linearGradient>
    <radialGradient id="oceanGradient" cx="50%" cy="50%" r="50%">
      <stop offset="0%" style="stop-color:#4FD1C5;stop-opacity:0.3" />
      <stop offset="100%" style="stop-color:#1E90A0;stop-opacity:0.05" />
    </radialGradient>
    <filter id="glow">
      <feGaussianBlur stdDeviation="5" result="coloredBlur"/>
      <feMerge>
        <feMergeNode in="coloredBlur"/>
        <feMergeNode in="SourceGraphic"/>
      </feMerge>
    </filter>
    <filter id="softGlow">
      <feGaussianBlur stdDeviation="8" result="coloredBlur"/>
      <feMerge>
        <feMergeNode in="coloredBlur"/>
        <feMergeNode in="SourceGraphic"/>
      </feMerge>
    </filter>
    <filter id="shadow">
      <feDropShadow dx="0" dy="4" stdDeviation="8" flood-color="#000000" flood-opacity="0.5"/>
    </filter>
  </defs>

  <!-- Background -->
  <rect width="1200" height="630" fill="url(#bgGradient)"/>

  <!-- Decorative ocean gradients -->
  <ellipse cx="1000" cy="150" rx="300" ry="200" fill="url(#oceanGradient)" opacity="0.4"/>
  <ellipse cx="200" cy="530" rx="250" ry="180" fill="url(#oceanGradient)" opacity="0.3"/>

  <!-- Wave patterns -->
  <path d="M 0 400 Q 300 350 600 400 T 1200 400 L 1200 630 L 0 630 Z" fill="#1E90A0" opacity="0.08"/>
  <path d="M 0 450 Q 250 420 500 450 T 1000 450 T 1200 450 L 1200 630 L 0 630 Z" fill="#4FD1C5" opacity="0.05"/>

  <!-- Caviar roe particles -->
  <circle cx="37.52158867000021" cy="83.72835260296253" r="4.481816628619006" fill="#CFAE58" opacity="0.20998718194174282"/>
  <circle cx="619.7544522619755" cy="443.7366323543192" r="2.3379188288914756" fill="#CFAE58" opacity="0.11649824514387477"/>
  <circle cx="281.4096427139041" cy="614.2690514379175" r="4.753186445039009" fill="#CFAE58" opacity="0.15146571014616672"/>
  <circle cx="788.2150142140545" cy="131.62619453443804" r="5.493171339470199" fill="#CFAE58" opacity="0.23315445848312874"/>
  <circle cx="51.38886616606433" cy="204.4790422070686" r="4.234421653450463" fill="#CFAE58" opacity="0.14564993805236434"/>
  <circle cx="1103.6000006988363" cy="501.6391752981749" r="3.6160870936407834" fill="#CFAE58" opacity="0.1392174350794716"/>
  <circle cx="936.3145185102006" cy="113.74037883375821" r="4.260160195049157" fill="#CFAE58" opacity="0.10127127296727532"/>
  <circle cx="65.5296739938814" cy="506.34680957653" r="2.688807450578147" fill="#CFAE58" opacity="0.10037212754597619"/>
  <circle cx="470.9910799579303" cy="414.2369441242547" r="2.890145757825361" fill="#CFAE58" opacity="0.18365729663705616"/>
  <circle cx="586.1117068028602" cy="39.97137557929409" r="2.6386720050921966" fill="#CFAE58" opacity="0.1580610160566276"/>
  <circle cx="356.7326590010209" cy="552.9428566974411" r="5.1598064425659" fill="#CFAE58" opacity="0.10683714978844674"/>
  <circle cx="959.9450185971791" cy="409.64706288979124" r="5.350518101496414" fill="#CFAE58" opacity="0.1127717744914157"/>
  <circle cx="1000.018514109504" cy="187.89120750539044" r="5.623760459746829" fill="#CFAE58" opacity="0.1497638642342444"/>
  <circle cx="752.2619356363807" cy="220.1333436917964" r="4.359890665865896" fill="#CFAE58" opacity="0.2046329466332385"/>
  <circle cx="183.88080743809" cy="278.1399277162858" r="4.192694117162076" fill="#CFAE58" opacity="0.1797150455436019"/>
  <circle cx="664.5769411461082" cy="291.91177175337543" r="3.318813650402805" fill="#CFAE58" opacity="0.1105548892854664"/>
  <circle cx="890.3423284625032" cy="527.3409103841672" r="4.179115237311554" fill="#CFAE58" opacity="0.14297632121492004"/>
  <circle cx="253.2581740025222" cy="77.07240300067535" r="3.5922466752923325" fill="#CFAE58" opacity="0.19381040073980882"/>
  <circle cx="1053.2335552270142" cy="292.02739816515367" r="5.599881381719669" fill="#CFAE58" opacity="0.11470203766468613"/>
  <circle cx="1058.6321525131418" cy="363.5562329896489" r="2.0839836433569605" fill="#CFAE58" opacity="0.22458349930711824"/>
  <circle cx="976.1040698660911" cy="229.93756544438452" r="4.591305808198011" fill="#CFAE58" opacity="0.10038144533422373"/>
  <circle cx="1168.2313957892202" cy="187.04459630913286" r="2.0369247037797944" fill="#CFAE58" opacity="0.14387621912658494"/>
  <circle cx="170.01019845310967" cy="351.80110001910236" r="5.705029144297751" fill="#CFAE58" opacity="0.1727929554750134"/>
  <circle cx="861.3044000808183" cy="392.07645520706654" r="5.122783629608631" fill="#CFAE58" opacity="0.16322684050891928"/>
  <circle cx="782.5673163432809" cy="593.510430834781" r="3.292679319899369" fill="#CFAE58" opacity="0.162528350096603"/>
  <circle cx="483.6908872086544" cy="508.95201810839364" r="3.5305155666116095" fill="#CFAE58" opacity="0.10833184651686184"/>
  <circle cx="1157.312478787128" cy="557.9316693569879" r="3.662361380116974" fill="#CFAE58" opacity="0.15143309005616282"/>
  <circle cx="76.16832420867902" cy="263.16779384924" r="4.562344955648904" fill="#CFAE58" opacity="0.2077194004449798"/>
  <circle cx="1035.559814100522" cy="620.6675877199712" r="2.8661404097267322" fill="#CFAE58" opacity="0.1944396570183547"/>
  <circle cx="583.4003326745129" cy="409.86509141148633" r="4.080104529574236" fill="#CFAE58" opacity="0.13453827081487993"/>

  <!-- Border with glow -->
  <rect x="40" y="40" width="1120" height="550" fill="none" stroke="url(#goldGradient)" stroke-width="3" rx="12" filter="url(#softGlow)"/>

  <!-- Icon circle with premium background -->
  <circle cx="150" cy="200" r="75" fill="#CFAE58" opacity="0.15" filter="url(#softGlow)"/>
  <circle cx="150" cy="200" r="70" fill="#CFAE58" opacity="0.25"/>
  <text x="150" y="235" font-size="90" text-anchor="middle" fill="#CFAE58" filter="url(#glow)">❓</text>

  <!-- Premium logo (crown) with enhanced styling -->
  <g transform="translate(100, 70)">
    <path d="M 30 20 L 40 35 L 35 35 Z M 50 15 L 60 35 L 45 35 Z M 65 20 L 75 35 L 70 35 Z M 30 35 L 75 35 L 73 45 L 32 45 Z"
          fill="url(#goldGradient)" filter="url(#glow)" stroke="#B89842" stroke-width="0.5"/>
    <circle cx="40" cy="25" r="3" fill="#4FD1C5" filter="url(#glow)"/>
    <circle cx="52" cy="20" r="4" fill="#4FD1C5" filter="url(#glow)"/>
    <circle cx="65" cy="25" r="3" fill="#4FD1C5" filter="url(#glow)"/>
  </g>

  <!-- Title with shadow -->
  <text x="280" y="180" font-family="Georgia, serif" font-size="72" font-weight="bold"
        fill="url(#goldGradient)" filter="url(#shadow)">FAQ</text>

  <!-- Subtitle with subtle glow -->
  <text x="280" y="230" font-family="Arial, sans-serif" font-size="36"
        fill="#D6DEE6" opacity="0.95" filter="url(#softGlow)">Frequently Asked Questions</text>

  <!-- Brand name with letter spacing -->
  <text x="280" y="300" font-family="Georgia, serif" font-size="32" font-weight="bold"
        fill="#CFAE58" letter-spacing="4" filter="url(#glow)">ROYAL KETA</text>

  <!-- Russian tagline -->
  <text x="280" y="340" font-family="Arial, sans-serif" font-size="22" font-style="italic"
        fill="#8B95A1" opacity="0.8">От икринки к королевской</text>

  <!-- Location -->
  <text x="280" y="380" font-family="Arial, sans-serif" font-size="20"
        fill="#8B95A1" opacity="0.7">Невельский район, Сахалин</text>

  <!-- Website with glow -->
  <text x="100" y="570" font-family="Arial, sans-serif" font-size="30" font-weight="bold"
        fill="#4FD1C5" filter="url(#glow)">royalketa.com</text>

  <!-- Enhanced decorative salmon silhouette -->
  <g transform="translate(950, 480)" opacity="0.2" filter="url(#softGlow)">
    <ellipse cx="0" cy="0" rx="90" ry="35" fill="#CFAE58"/>
    <path d="M 90 0 L 120 -18 L 130 0 L 120 18 Z" fill="#CFAE58"/>
    <path d="M -25 -35 L 0 -45 L 25 -35 Z" fill="#CFAE58"/>
    <ellipse cx="-50" cy="0" rx="15" ry="12" fill="#0B0F14"/>
  </g>

  <!-- Additional decorative caviar clusters -->
  <g opacity="0.2">
    <circle cx="1050" cy="120" r="6" fill="#CFAE58"/>
    <circle cx="1065" cy="115" r="5" fill="#CFAE58"/>
    <circle cx="1058" cy="130" r="4" fill="#CFAE58"/>
    <circle cx="150" cy="500" r="5" fill="#4FD1C5"/>
    <circle cx="165" cy="508" r="4" fill="#4FD1C5"/>
    <circle cx="140" cy="512" r="5" fill="#4FD1C5"/>
  </g>
</svg>