<svg width="1200" height="630" xmlns="http://www.w3.org/2000/svg">
  <defs>
    <linearGradient id="bgGradient" x1="0%" y1="0%" x2="100%" y2="100%">
      <stop offset="0%" style="stop-color:#0B0F14;stop-opacity:1" />
      <stop offset="50%" style="stop-color:#0F1619;stop-opacity:1" />
      <stop offset="100%" style="stop-color:#0F1922;stop-opacity:1" />
    </linearGradient>
    <linearGradient id="goldGradient" x1="0%" y1="0%" x2="100%" y2="0%">
      <stop offset="0%" style="stop-color:#E5D596;stop-opacity:1" />
      <stop offset="50%" style="stop-color:#CFAE58;stop-opacity:1" />
      <stop offset="100%" style="stop-color:#B89842;stop-opacity:1" />
    </linearGradient>
    <radialGradient id="oceanGradient" cx="50%" cy="50%" r="50%">
      <stop offset="0%" style="stop-color:#4FD1C5;stop-opacity:0.3" />
      <stop offset="100%" style="stop-color:#1E90A0;stop-opacity:0.05" />
    </radialGradient>
    <filter id="glow">
      <feGaussianBlur stdDeviation="5" result="coloredBlur"/>
      <feMerge>
        <feMergeNode in="coloredBlur"/>
        <feMergeNode in="SourceGraphic"/>
      </feMerge>
    </filter>
    <filter id="softGlow">
      <feGaussianBlur stdDeviation="8" result="coloredBlur"/>
      <feMerge>
        <feMergeNode in="coloredBlur"/>
        <feMergeNode in="SourceGraphic"/>
      </feMerge>
    </filter>
    <filter id="shadow">
      <feDropShadow dx="0" dy="4" stdDeviation="8" flood-color="#000000" flood-opacity="0.5"/>
    </filter>
  </defs>

  <!-- Background -->
  <rect width="1200" height="630" fill="url(#bgGradient)"/>

  <!-- Decorative ocean gradients -->
  <ellipse cx="1000" cy="150" rx="300" ry="200" fill="url(#oceanGradient)" opacity="0.4"/>
  <ellipse cx="200" cy="530" rx="250" ry="180" fill="url(#oceanGradient)" opacity="0.3"/>

  <!-- Wave patterns -->
  <path d="M 0 400 Q 300 350 600 400 T 1200 400 L 1200 630 L 0 630 Z" fill="#1E90A0" opacity="0.08"/>
  <path d="M 0 450 Q 250 420 500 450 T 1000 450 T 1200 450 L 1200 630 L 0 630 Z" fill="#4FD1C5" opacity="0.05"/>

  <!-- Caviar roe particles -->
  <circle cx="326.7030205297033" cy="15.759811953836929" r="4.68152900094875" fill="#CFAE58" opacity="0.1617232042840398"/>
  <circle cx="245.79705669626816" cy="496.9934613911325" r="3.635872165078725" fill="#CFAE58" opacity="0.20117060043292762"/>
  <circle cx="127.76600528589847" cy="355.4505005889488" r="4.958600622541126" fill="#CFAE58" opacity="0.15794807634037725"/>
  <circle cx="307.4295927755716" cy="580.8733857373454" r="5.589735165487433" fill="#CFAE58" opacity="0.1553425969392662"/>
  <circle cx="603.8443895670558" cy="83.53233556044242" r="3.7568372810554447" fill="#CFAE58" opacity="0.12809754301270126"/>
  <circle cx="641.2035714683828" cy="396.9810337809971" r="3.0267021212437033" fill="#CFAE58" opacity="0.10249577569688395"/>
  <circle cx="55.4360826370055" cy="270.2124383529009" r="4.418665880018144" fill="#CFAE58" opacity="0.17145142957774573"/>
  <circle cx="704.534119439906" cy="81.0264730692879" r="5.475605206216215" fill="#CFAE58" opacity="0.17655011091091038"/>
  <circle cx="36.12432817872797" cy="605.4263321381608" r="3.547729765480243" fill="#CFAE58" opacity="0.15482479543043381"/>
  <circle cx="1121.2671974690377" cy="5.318164166392007" r="5.650369175730084" fill="#CFAE58" opacity="0.22300714661914076"/>
  <circle cx="242.82661140142955" cy="558.4805061855956" r="4.323476920937828" fill="#CFAE58" opacity="0.15031786809958922"/>
  <circle cx="565.4230679185474" cy="46.284464209442724" r="2.830698191155437" fill="#CFAE58" opacity="0.15460218453071353"/>
  <circle cx="178.2174546950851" cy="387.6749286454348" r="2.300116853266612" fill="#CFAE58" opacity="0.19276568411786657"/>
  <circle cx="1142.6429979426111" cy="317.92926697110505" r="5.955098896893656" fill="#CFAE58" opacity="0.10277521857106678"/>
  <circle cx="935.1927627518479" cy="223.85042887653583" r="4.031556664868499" fill="#CFAE58" opacity="0.17328414883553275"/>
  <circle cx="19.84119145650194" cy="381.93451719672083" r="2.272149351220791" fill="#CFAE58" opacity="0.1766734129176412"/>
  <circle cx="1092.0942995480232" cy="218.40175921584435" r="4.4811807545943045" fill="#CFAE58" opacity="0.23359037303874366"/>
  <circle cx="28.72888767285744" cy="322.89195815019735" r="5.715935902245583" fill="#CFAE58" opacity="0.14764946548152177"/>
  <circle cx="1148.9297115453724" cy="116.48068186573569" r="5.159699470670444" fill="#CFAE58" opacity="0.2011937967858729"/>
  <circle cx="1148.812376482837" cy="166.65612509439188" r="3.7061852731165423" fill="#CFAE58" opacity="0.1844192518804721"/>
  <circle cx="474.1216555332353" cy="550.4799932045638" r="5.157829017518251" fill="#CFAE58" opacity="0.1482647648018437"/>
  <circle cx="788.6518749239958" cy="188.32237960338244" r="4.705653327646184" fill="#CFAE58" opacity="0.14498657603373497"/>
  <circle cx="1055.2665715694998" cy="116.04021100589146" r="3.751521464670401" fill="#CFAE58" opacity="0.220912436865701"/>
  <circle cx="517.0011252359152" cy="397.5826733096424" r="5.291499669446134" fill="#CFAE58" opacity="0.10042991253358921"/>
  <circle cx="747.9389624156563" cy="236.06402928582182" r="2.8220376763489643" fill="#CFAE58" opacity="0.14792004637791611"/>
  <circle cx="581.2876366113278" cy="313.3519140858338" r="4.441997824463672" fill="#CFAE58" opacity="0.21105751459814415"/>
  <circle cx="63.71071432164168" cy="310.61073271663736" r="3.312368930069632" fill="#CFAE58" opacity="0.12354310792122099"/>
  <circle cx="349.7648037811511" cy="556.0004560095896" r="2.7467148391988845" fill="#CFAE58" opacity="0.20357544116286935"/>
  <circle cx="628.8811824223762" cy="560.2272122948451" r="4.240655382936913" fill="#CFAE58" opacity="0.22001328990342955"/>
  <circle cx="239.40130806631367" cy="50.051923962839055" r="5.940435818310139" fill="#CFAE58" opacity="0.20201421276336923"/>

  <!-- Border with glow -->
  <rect x="40" y="40" width="1120" height="550" fill="none" stroke="url(#goldGradient)" stroke-width="3" rx="12" filter="url(#softGlow)"/>

  <!-- Icon circle with premium background -->
  <circle cx="150" cy="200" r="75" fill="#CFAE58" opacity="0.15" filter="url(#softGlow)"/>
  <circle cx="150" cy="200" r="70" fill="#CFAE58" opacity="0.25"/>
  <text x="150" y="235" font-size="90" text-anchor="middle" fill="#CFAE58" filter="url(#glow)">❓</text>

  <!-- Premium logo (crown) with enhanced styling -->
  <g transform="translate(100, 70)">
    <path d="M 30 20 L 40 35 L 35 35 Z M 50 15 L 60 35 L 45 35 Z M 65 20 L 75 35 L 70 35 Z M 30 35 L 75 35 L 73 45 L 32 45 Z"
          fill="url(#goldGradient)" filter="url(#glow)" stroke="#B89842" stroke-width="0.5"/>
    <circle cx="40" cy="25" r="3" fill="#4FD1C5" filter="url(#glow)"/>
    <circle cx="52" cy="20" r="4" fill="#4FD1C5" filter="url(#glow)"/>
    <circle cx="65" cy="25" r="3" fill="#4FD1C5" filter="url(#glow)"/>
  </g>

  <!-- Title with shadow -->
  <text x="280" y="180" font-family="Georgia, serif" font-size="72" font-weight="bold"
        fill="url(#goldGradient)" filter="url(#shadow)">FAQ</text>

  <!-- Subtitle with subtle glow -->
  <text x="280" y="230" font-family="Arial, sans-serif" font-size="36"
        fill="#D6DEE6" opacity="0.95" filter="url(#softGlow)">Frequently Asked Questions</text>

  <!-- Brand name with letter spacing -->
  <text x="280" y="300" font-family="Georgia, serif" font-size="32" font-weight="bold"
        fill="#CFAE58" letter-spacing="4" filter="url(#glow)">ROYAL KETA</text>

  <!-- Russian tagline -->
  <text x="280" y="340" font-family="Arial, sans-serif" font-size="22" font-style="italic"
        fill="#8B95A1" opacity="0.8">От икринки к королевской</text>

  <!-- Location -->
  <text x="280" y="380" font-family="Arial, sans-serif" font-size="20"
        fill="#8B95A1" opacity="0.7">Невельский район, Сахалин</text>

  <!-- Website with glow -->
  <text x="100" y="570" font-family="Arial, sans-serif" font-size="30" font-weight="bold"
        fill="#4FD1C5" filter="url(#glow)">royalketa.com</text>

  <!-- Enhanced decorative salmon silhouette -->
  <g transform="translate(950, 480)" opacity="0.2" filter="url(#softGlow)">
    <ellipse cx="0" cy="0" rx="90" ry="35" fill="#CFAE58"/>
    <path d="M 90 0 L 120 -18 L 130 0 L 120 18 Z" fill="#CFAE58"/>
    <path d="M -25 -35 L 0 -45 L 25 -35 Z" fill="#CFAE58"/>
    <ellipse cx="-50" cy="0" rx="15" ry="12" fill="#0B0F14"/>
  </g>

  <!-- Additional decorative caviar clusters -->
  <g opacity="0.2">
    <circle cx="1050" cy="120" r="6" fill="#CFAE58"/>
    <circle cx="1065" cy="115" r="5" fill="#CFAE58"/>
    <circle cx="1058" cy="130" r="4" fill="#CFAE58"/>
    <circle cx="150" cy="500" r="5" fill="#4FD1C5"/>
    <circle cx="165" cy="508" r="4" fill="#4FD1C5"/>
    <circle cx="140" cy="512" r="5" fill="#4FD1C5"/>
  </g>
</svg>