<svg width="1200" height="630" xmlns="http://www.w3.org/2000/svg">
  <defs>
    <linearGradient id="bgGradient" x1="0%" y1="0%" x2="100%" y2="100%">
      <stop offset="0%" style="stop-color:#0B0F14;stop-opacity:1" />
      <stop offset="50%" style="stop-color:#0F1619;stop-opacity:1" />
      <stop offset="100%" style="stop-color:#0F1922;stop-opacity:1" />
    </linearGradient>
    <linearGradient id="goldGradient" x1="0%" y1="0%" x2="100%" y2="0%">
      <stop offset="0%" style="stop-color:#E5D596;stop-opacity:1" />
      <stop offset="50%" style="stop-color:#CFAE58;stop-opacity:1" />
      <stop offset="100%" style="stop-color:#B89842;stop-opacity:1" />
    </linearGradient>
    <radialGradient id="oceanGradient" cx="50%" cy="50%" r="50%">
      <stop offset="0%" style="stop-color:#4FD1C5;stop-opacity:0.3" />
      <stop offset="100%" style="stop-color:#1E90A0;stop-opacity:0.05" />
    </radialGradient>
    <filter id="glow">
      <feGaussianBlur stdDeviation="5" result="coloredBlur"/>
      <feMerge>
        <feMergeNode in="coloredBlur"/>
        <feMergeNode in="SourceGraphic"/>
      </feMerge>
    </filter>
    <filter id="softGlow">
      <feGaussianBlur stdDeviation="8" result="coloredBlur"/>
      <feMerge>
        <feMergeNode in="coloredBlur"/>
        <feMergeNode in="SourceGraphic"/>
      </feMerge>
    </filter>
    <filter id="shadow">
      <feDropShadow dx="0" dy="4" stdDeviation="8" flood-color="#000000" flood-opacity="0.5"/>
    </filter>
  </defs>

  <!-- Background -->
  <rect width="1200" height="630" fill="url(#bgGradient)"/>

  <!-- Decorative ocean gradients -->
  <ellipse cx="1000" cy="150" rx="300" ry="200" fill="url(#oceanGradient)" opacity="0.4"/>
  <ellipse cx="200" cy="530" rx="250" ry="180" fill="url(#oceanGradient)" opacity="0.3"/>

  <!-- Wave patterns -->
  <path d="M 0 400 Q 300 350 600 400 T 1200 400 L 1200 630 L 0 630 Z" fill="#1E90A0" opacity="0.08"/>
  <path d="M 0 450 Q 250 420 500 450 T 1000 450 T 1200 450 L 1200 630 L 0 630 Z" fill="#4FD1C5" opacity="0.05"/>

  <!-- Caviar roe particles -->
  <circle cx="848.4801110464068" cy="510.41876002241366" r="3.777787230309775" fill="#CFAE58" opacity="0.14082234467025484"/>
  <circle cx="903.953927418992" cy="370.2563437028581" r="2.61454508074804" fill="#CFAE58" opacity="0.12598879245187652"/>
  <circle cx="860.2306402396771" cy="17.21823433332673" r="4.894370571289658" fill="#CFAE58" opacity="0.2416898781952264"/>
  <circle cx="51.59372310784747" cy="472.4260449643991" r="3.914258864668902" fill="#CFAE58" opacity="0.21951923471693355"/>
  <circle cx="1171.2610650745967" cy="308.55966390292696" r="4.162436989786736" fill="#CFAE58" opacity="0.16974094808139822"/>
  <circle cx="851.568930288543" cy="124.01050240491152" r="3.5824527191697753" fill="#CFAE58" opacity="0.13914231811199418"/>
  <circle cx="657.4521547885871" cy="583.5435816701106" r="2.19061633465581" fill="#CFAE58" opacity="0.18705882656304973"/>
  <circle cx="936.6787967030715" cy="84.31650735497348" r="2.5022262441062555" fill="#CFAE58" opacity="0.24098631052620798"/>
  <circle cx="1135.203285467932" cy="547.0507447513148" r="5.890968720222199" fill="#CFAE58" opacity="0.124020309351972"/>
  <circle cx="1159.4092585183635" cy="260.51170694687295" r="4.647092923327991" fill="#CFAE58" opacity="0.18844127065463478"/>
  <circle cx="367.41291692780845" cy="74.97100824039353" r="4.800888961811683" fill="#CFAE58" opacity="0.2411523109639563"/>
  <circle cx="66.71566531599665" cy="504.4600586134792" r="5.975224131116528" fill="#CFAE58" opacity="0.23360939332500416"/>
  <circle cx="936.4353941718608" cy="257.52074427210846" r="2.8865635839487043" fill="#CFAE58" opacity="0.22594917762996405"/>
  <circle cx="14.994897032473542" cy="495.2864361027727" r="2.3722132996374317" fill="#CFAE58" opacity="0.19147218334601096"/>
  <circle cx="403.9917278369892" cy="223.28656145184573" r="2.4317155316607826" fill="#CFAE58" opacity="0.1422789282100626"/>
  <circle cx="705.3478393693158" cy="225.6578242280108" r="2.7645358986119826" fill="#CFAE58" opacity="0.21456046687745953"/>
  <circle cx="983.7458804535464" cy="258.1189444108761" r="2.264587241820987" fill="#CFAE58" opacity="0.10933330896420651"/>
  <circle cx="415.04992667573805" cy="522.8016069644067" r="2.924483164803708" fill="#CFAE58" opacity="0.215120860967222"/>
  <circle cx="1054.1768007799724" cy="548.7458455458258" r="3.418641755040966" fill="#CFAE58" opacity="0.1801986941790209"/>
  <circle cx="935.0506902280456" cy="242.40378392954855" r="2.0759294650510984" fill="#CFAE58" opacity="0.21270475355124405"/>
  <circle cx="464.5300848102453" cy="458.6865236599397" r="3.5369595198963735" fill="#CFAE58" opacity="0.1347792545843644"/>
  <circle cx="532.3156583328091" cy="597.1802442091273" r="3.6230368110842974" fill="#CFAE58" opacity="0.22649714815770983"/>
  <circle cx="209.6140782594916" cy="431.89230288701265" r="3.055734515838476" fill="#CFAE58" opacity="0.16536989534455232"/>
  <circle cx="862.4228395400535" cy="320.1688364250918" r="3.386668408968476" fill="#CFAE58" opacity="0.16173128550769705"/>
  <circle cx="235.1032754920878" cy="358.18099611782606" r="2.6053569411330786" fill="#CFAE58" opacity="0.10140996054040952"/>
  <circle cx="686.7639129958721" cy="455.0206564172539" r="5.55341662662237" fill="#CFAE58" opacity="0.24461079257995313"/>
  <circle cx="114.06184022271377" cy="581.7342933820611" r="3.7957489618247333" fill="#CFAE58" opacity="0.17979028383034978"/>
  <circle cx="755.1187074770452" cy="164.51334303633055" r="5.231128299642585" fill="#CFAE58" opacity="0.15075554586122913"/>
  <circle cx="1072.020791230828" cy="629.1384542986957" r="5.9234656692625" fill="#CFAE58" opacity="0.16428967851815762"/>
  <circle cx="200.25669118583488" cy="531.2597318332363" r="4.427449893228357" fill="#CFAE58" opacity="0.20346807214757207"/>

  <!-- Border with glow -->
  <rect x="40" y="40" width="1120" height="550" fill="none" stroke="url(#goldGradient)" stroke-width="3" rx="12" filter="url(#softGlow)"/>

  <!-- Icon circle with premium background -->
  <circle cx="150" cy="200" r="75" fill="#CFAE58" opacity="0.15" filter="url(#softGlow)"/>
  <circle cx="150" cy="200" r="70" fill="#CFAE58" opacity="0.25"/>
  <text x="150" y="235" font-size="90" text-anchor="middle" fill="#CFAE58" filter="url(#glow)">❓</text>

  <!-- Premium logo (crown) with enhanced styling -->
  <g transform="translate(100, 70)">
    <path d="M 30 20 L 40 35 L 35 35 Z M 50 15 L 60 35 L 45 35 Z M 65 20 L 75 35 L 70 35 Z M 30 35 L 75 35 L 73 45 L 32 45 Z"
          fill="url(#goldGradient)" filter="url(#glow)" stroke="#B89842" stroke-width="0.5"/>
    <circle cx="40" cy="25" r="3" fill="#4FD1C5" filter="url(#glow)"/>
    <circle cx="52" cy="20" r="4" fill="#4FD1C5" filter="url(#glow)"/>
    <circle cx="65" cy="25" r="3" fill="#4FD1C5" filter="url(#glow)"/>
  </g>

  <!-- Title with shadow -->
  <text x="280" y="180" font-family="Georgia, serif" font-size="72" font-weight="bold"
        fill="url(#goldGradient)" filter="url(#shadow)">FAQ</text>

  <!-- Subtitle with subtle glow -->
  <text x="280" y="230" font-family="Arial, sans-serif" font-size="36"
        fill="#D6DEE6" opacity="0.95" filter="url(#softGlow)">Frequently Asked Questions</text>

  <!-- Brand name with letter spacing -->
  <text x="280" y="300" font-family="Georgia, serif" font-size="32" font-weight="bold"
        fill="#CFAE58" letter-spacing="4" filter="url(#glow)">ROYAL KETA</text>

  <!-- Russian tagline -->
  <text x="280" y="340" font-family="Arial, sans-serif" font-size="22" font-style="italic"
        fill="#8B95A1" opacity="0.8">От икринки к королевской</text>

  <!-- Location -->
  <text x="280" y="380" font-family="Arial, sans-serif" font-size="20"
        fill="#8B95A1" opacity="0.7">Невельский район, Сахалин</text>

  <!-- Website with glow -->
  <text x="100" y="570" font-family="Arial, sans-serif" font-size="30" font-weight="bold"
        fill="#4FD1C5" filter="url(#glow)">royalketa.com</text>

  <!-- Enhanced decorative salmon silhouette -->
  <g transform="translate(950, 480)" opacity="0.2" filter="url(#softGlow)">
    <ellipse cx="0" cy="0" rx="90" ry="35" fill="#CFAE58"/>
    <path d="M 90 0 L 120 -18 L 130 0 L 120 18 Z" fill="#CFAE58"/>
    <path d="M -25 -35 L 0 -45 L 25 -35 Z" fill="#CFAE58"/>
    <ellipse cx="-50" cy="0" rx="15" ry="12" fill="#0B0F14"/>
  </g>

  <!-- Additional decorative caviar clusters -->
  <g opacity="0.2">
    <circle cx="1050" cy="120" r="6" fill="#CFAE58"/>
    <circle cx="1065" cy="115" r="5" fill="#CFAE58"/>
    <circle cx="1058" cy="130" r="4" fill="#CFAE58"/>
    <circle cx="150" cy="500" r="5" fill="#4FD1C5"/>
    <circle cx="165" cy="508" r="4" fill="#4FD1C5"/>
    <circle cx="140" cy="512" r="5" fill="#4FD1C5"/>
  </g>
</svg>