<svg width="1200" height="630" xmlns="http://www.w3.org/2000/svg">
  <defs>
    <linearGradient id="bgGradient" x1="0%" y1="0%" x2="100%" y2="100%">
      <stop offset="0%" style="stop-color:#0B0F14;stop-opacity:1" />
      <stop offset="50%" style="stop-color:#0F1619;stop-opacity:1" />
      <stop offset="100%" style="stop-color:#0F1922;stop-opacity:1" />
    </linearGradient>
    <linearGradient id="goldGradient" x1="0%" y1="0%" x2="100%" y2="0%">
      <stop offset="0%" style="stop-color:#E5D596;stop-opacity:1" />
      <stop offset="50%" style="stop-color:#CFAE58;stop-opacity:1" />
      <stop offset="100%" style="stop-color:#B89842;stop-opacity:1" />
    </linearGradient>
    <radialGradient id="oceanGradient" cx="50%" cy="50%" r="50%">
      <stop offset="0%" style="stop-color:#4FD1C5;stop-opacity:0.3" />
      <stop offset="100%" style="stop-color:#1E90A0;stop-opacity:0.05" />
    </radialGradient>
    <filter id="glow">
      <feGaussianBlur stdDeviation="5" result="coloredBlur"/>
      <feMerge>
        <feMergeNode in="coloredBlur"/>
        <feMergeNode in="SourceGraphic"/>
      </feMerge>
    </filter>
    <filter id="softGlow">
      <feGaussianBlur stdDeviation="8" result="coloredBlur"/>
      <feMerge>
        <feMergeNode in="coloredBlur"/>
        <feMergeNode in="SourceGraphic"/>
      </feMerge>
    </filter>
    <filter id="shadow">
      <feDropShadow dx="0" dy="4" stdDeviation="8" flood-color="#000000" flood-opacity="0.5"/>
    </filter>
  </defs>

  <!-- Background -->
  <rect width="1200" height="630" fill="url(#bgGradient)"/>

  <!-- Decorative ocean gradients -->
  <ellipse cx="1000" cy="150" rx="300" ry="200" fill="url(#oceanGradient)" opacity="0.4"/>
  <ellipse cx="200" cy="530" rx="250" ry="180" fill="url(#oceanGradient)" opacity="0.3"/>

  <!-- Wave patterns -->
  <path d="M 0 400 Q 300 350 600 400 T 1200 400 L 1200 630 L 0 630 Z" fill="#1E90A0" opacity="0.08"/>
  <path d="M 0 450 Q 250 420 500 450 T 1000 450 T 1200 450 L 1200 630 L 0 630 Z" fill="#4FD1C5" opacity="0.05"/>

  <!-- Caviar roe particles -->
  <circle cx="174.48928728265568" cy="623.2478044939483" r="5.378520966050606" fill="#CFAE58" opacity="0.1690689798860705"/>
  <circle cx="231.55368980241695" cy="458.45557773866034" r="3.7371572926876606" fill="#CFAE58" opacity="0.12691636033371204"/>
  <circle cx="1084.9371888674978" cy="461.1572018621494" r="3.1010008350050597" fill="#CFAE58" opacity="0.10782436022643525"/>
  <circle cx="580.7865415470995" cy="209.30023644323438" r="4.733639955708675" fill="#CFAE58" opacity="0.24043790839966808"/>
  <circle cx="551.0633763806238" cy="373.7202649622363" r="4.99321430505136" fill="#CFAE58" opacity="0.12309414254123896"/>
  <circle cx="734.0669656421156" cy="537.533050802273" r="5.545897312659428" fill="#CFAE58" opacity="0.2209160917584023"/>
  <circle cx="526.324705581815" cy="304.6042343186186" r="5.526613194923164" fill="#CFAE58" opacity="0.2367250761366695"/>
  <circle cx="850.0911342234645" cy="334.0125490128469" r="5.521417058520291" fill="#CFAE58" opacity="0.24382962423524127"/>
  <circle cx="444.82516651821317" cy="566.0281146759523" r="4.3537436393657485" fill="#CFAE58" opacity="0.24485810750221232"/>
  <circle cx="691.4667528684071" cy="203.66189528040601" r="4.9045784336464004" fill="#CFAE58" opacity="0.1347506251470369"/>
  <circle cx="92.88705372041326" cy="198.7332053456485" r="5.873538354366222" fill="#CFAE58" opacity="0.23207827105096335"/>
  <circle cx="178.83341646958374" cy="145.90494873791238" r="4.8368323610759045" fill="#CFAE58" opacity="0.16275932606280052"/>
  <circle cx="211.14720606330613" cy="73.62657861289722" r="2.046136472516231" fill="#CFAE58" opacity="0.15198050045971934"/>
  <circle cx="41.217945454418455" cy="44.86669219757242" r="4.246161738769684" fill="#CFAE58" opacity="0.17931887693545923"/>
  <circle cx="203.34465130890055" cy="41.26499355711267" r="5.850047971609383" fill="#CFAE58" opacity="0.12790777299164244"/>
  <circle cx="373.3820325039441" cy="80.02840265681824" r="5.096265154034807" fill="#CFAE58" opacity="0.21591280946704955"/>
  <circle cx="1125.0875405943295" cy="498.6164436650885" r="5.835675626787036" fill="#CFAE58" opacity="0.17438277460748336"/>
  <circle cx="723.5468487202543" cy="626.8915419809749" r="3.792647403413083" fill="#CFAE58" opacity="0.23543082031965115"/>
  <circle cx="422.766964517802" cy="619.8487069432491" r="3.793345844538922" fill="#CFAE58" opacity="0.11044220800654672"/>
  <circle cx="542.055139345381" cy="343.00412220403473" r="3.539972592703819" fill="#CFAE58" opacity="0.24502239439870926"/>
  <circle cx="439.8856808500238" cy="145.58821297292684" r="5.908077532210966" fill="#CFAE58" opacity="0.21849105435306482"/>
  <circle cx="1142.6530502048183" cy="328.82014794117623" r="5.455540022798932" fill="#CFAE58" opacity="0.19808278678950486"/>
  <circle cx="315.8503851687142" cy="437.0044863979553" r="5.139973271689995" fill="#CFAE58" opacity="0.22857407867198962"/>
  <circle cx="691.5449381487842" cy="368.55339339797695" r="5.090949422850037" fill="#CFAE58" opacity="0.21977382203144402"/>
  <circle cx="259.48408779365894" cy="345.53457066085656" r="5.773663183099294" fill="#CFAE58" opacity="0.17965404350107753"/>
  <circle cx="89.66351448812037" cy="470.2024218649735" r="4.451809497273893" fill="#CFAE58" opacity="0.1917911245946185"/>
  <circle cx="1152.4456442872713" cy="148.52520341512184" r="4.504923063914627" fill="#CFAE58" opacity="0.15435283338564412"/>
  <circle cx="573.8657752039842" cy="67.25267559796764" r="3.5603809410403615" fill="#CFAE58" opacity="0.24288663049153653"/>
  <circle cx="577.0841958642703" cy="90.97730801320056" r="2.1830875060701898" fill="#CFAE58" opacity="0.10972392408952149"/>
  <circle cx="1181.728635287236" cy="388.4974848039483" r="5.575200328775193" fill="#CFAE58" opacity="0.18097100764793056"/>

  <!-- Border with glow -->
  <rect x="40" y="40" width="1120" height="550" fill="none" stroke="url(#goldGradient)" stroke-width="3" rx="12" filter="url(#softGlow)"/>

  <!-- Icon circle with premium background -->
  <circle cx="150" cy="200" r="75" fill="#CFAE58" opacity="0.15" filter="url(#softGlow)"/>
  <circle cx="150" cy="200" r="70" fill="#CFAE58" opacity="0.25"/>
  <text x="150" y="235" font-size="90" text-anchor="middle" fill="#CFAE58" filter="url(#glow)">❓</text>

  <!-- Premium logo (crown) with enhanced styling -->
  <g transform="translate(100, 70)">
    <path d="M 30 20 L 40 35 L 35 35 Z M 50 15 L 60 35 L 45 35 Z M 65 20 L 75 35 L 70 35 Z M 30 35 L 75 35 L 73 45 L 32 45 Z"
          fill="url(#goldGradient)" filter="url(#glow)" stroke="#B89842" stroke-width="0.5"/>
    <circle cx="40" cy="25" r="3" fill="#4FD1C5" filter="url(#glow)"/>
    <circle cx="52" cy="20" r="4" fill="#4FD1C5" filter="url(#glow)"/>
    <circle cx="65" cy="25" r="3" fill="#4FD1C5" filter="url(#glow)"/>
  </g>

  <!-- Title with shadow -->
  <text x="280" y="180" font-family="Georgia, serif" font-size="72" font-weight="bold"
        fill="url(#goldGradient)" filter="url(#shadow)">FAQ</text>

  <!-- Subtitle with subtle glow -->
  <text x="280" y="230" font-family="Arial, sans-serif" font-size="36"
        fill="#D6DEE6" opacity="0.95" filter="url(#softGlow)">Frequently Asked Questions</text>

  <!-- Brand name with letter spacing -->
  <text x="280" y="300" font-family="Georgia, serif" font-size="32" font-weight="bold"
        fill="#CFAE58" letter-spacing="4" filter="url(#glow)">ROYAL KETA</text>

  <!-- Russian tagline -->
  <text x="280" y="340" font-family="Arial, sans-serif" font-size="22" font-style="italic"
        fill="#8B95A1" opacity="0.8">От икринки к королевской</text>

  <!-- Location -->
  <text x="280" y="380" font-family="Arial, sans-serif" font-size="20"
        fill="#8B95A1" opacity="0.7">Невельский район, Сахалин</text>

  <!-- Website with glow -->
  <text x="100" y="570" font-family="Arial, sans-serif" font-size="30" font-weight="bold"
        fill="#4FD1C5" filter="url(#glow)">royalketa.com</text>

  <!-- Enhanced decorative salmon silhouette -->
  <g transform="translate(950, 480)" opacity="0.2" filter="url(#softGlow)">
    <ellipse cx="0" cy="0" rx="90" ry="35" fill="#CFAE58"/>
    <path d="M 90 0 L 120 -18 L 130 0 L 120 18 Z" fill="#CFAE58"/>
    <path d="M -25 -35 L 0 -45 L 25 -35 Z" fill="#CFAE58"/>
    <ellipse cx="-50" cy="0" rx="15" ry="12" fill="#0B0F14"/>
  </g>

  <!-- Additional decorative caviar clusters -->
  <g opacity="0.2">
    <circle cx="1050" cy="120" r="6" fill="#CFAE58"/>
    <circle cx="1065" cy="115" r="5" fill="#CFAE58"/>
    <circle cx="1058" cy="130" r="4" fill="#CFAE58"/>
    <circle cx="150" cy="500" r="5" fill="#4FD1C5"/>
    <circle cx="165" cy="508" r="4" fill="#4FD1C5"/>
    <circle cx="140" cy="512" r="5" fill="#4FD1C5"/>
  </g>
</svg>