<svg width="1200" height="630" xmlns="http://www.w3.org/2000/svg">
  <defs>
    <linearGradient id="bgGradient" x1="0%" y1="0%" x2="100%" y2="100%">
      <stop offset="0%" style="stop-color:#0B0F14;stop-opacity:1" />
      <stop offset="50%" style="stop-color:#0F1619;stop-opacity:1" />
      <stop offset="100%" style="stop-color:#0F1922;stop-opacity:1" />
    </linearGradient>
    <linearGradient id="goldGradient" x1="0%" y1="0%" x2="100%" y2="0%">
      <stop offset="0%" style="stop-color:#E5D596;stop-opacity:1" />
      <stop offset="50%" style="stop-color:#CFAE58;stop-opacity:1" />
      <stop offset="100%" style="stop-color:#B89842;stop-opacity:1" />
    </linearGradient>
    <radialGradient id="oceanGradient" cx="50%" cy="50%" r="50%">
      <stop offset="0%" style="stop-color:#4FD1C5;stop-opacity:0.3" />
      <stop offset="100%" style="stop-color:#1E90A0;stop-opacity:0.05" />
    </radialGradient>
    <filter id="glow">
      <feGaussianBlur stdDeviation="5" result="coloredBlur"/>
      <feMerge>
        <feMergeNode in="coloredBlur"/>
        <feMergeNode in="SourceGraphic"/>
      </feMerge>
    </filter>
    <filter id="softGlow">
      <feGaussianBlur stdDeviation="8" result="coloredBlur"/>
      <feMerge>
        <feMergeNode in="coloredBlur"/>
        <feMergeNode in="SourceGraphic"/>
      </feMerge>
    </filter>
    <filter id="shadow">
      <feDropShadow dx="0" dy="4" stdDeviation="8" flood-color="#000000" flood-opacity="0.5"/>
    </filter>
  </defs>

  <!-- Background -->
  <rect width="1200" height="630" fill="url(#bgGradient)"/>

  <!-- Decorative ocean gradients -->
  <ellipse cx="1000" cy="150" rx="300" ry="200" fill="url(#oceanGradient)" opacity="0.4"/>
  <ellipse cx="200" cy="530" rx="250" ry="180" fill="url(#oceanGradient)" opacity="0.3"/>

  <!-- Wave patterns -->
  <path d="M 0 400 Q 300 350 600 400 T 1200 400 L 1200 630 L 0 630 Z" fill="#1E90A0" opacity="0.08"/>
  <path d="M 0 450 Q 250 420 500 450 T 1000 450 T 1200 450 L 1200 630 L 0 630 Z" fill="#4FD1C5" opacity="0.05"/>

  <!-- Caviar roe particles -->
  <circle cx="358.41844213404545" cy="567.2465781714477" r="4.127809589439405" fill="#CFAE58" opacity="0.17574989087267673"/>
  <circle cx="267.3331531310743" cy="423.6642754336319" r="3.5130257419445767" fill="#CFAE58" opacity="0.191818922404838"/>
  <circle cx="239.9404911935121" cy="153.12779821007862" r="3.098154208382402" fill="#CFAE58" opacity="0.19626950371838106"/>
  <circle cx="1013.9883367355916" cy="118.69459478928282" r="4.990907354291109" fill="#CFAE58" opacity="0.1774027593868016"/>
  <circle cx="1030.6149784581312" cy="347.40403283696696" r="4.294363864009673" fill="#CFAE58" opacity="0.12860552998116254"/>
  <circle cx="410.7416094816857" cy="406.3499698872305" r="4.379112442506818" fill="#CFAE58" opacity="0.22107287561418854"/>
  <circle cx="228.40052602288142" cy="428.85961386677263" r="4.428133498144041" fill="#CFAE58" opacity="0.2125406078901704"/>
  <circle cx="644.959949074369" cy="195.19399724487508" r="2.6504583049623704" fill="#CFAE58" opacity="0.17073965284216674"/>
  <circle cx="77.13793596337214" cy="134.3302800903896" r="2.210433564313833" fill="#CFAE58" opacity="0.22559298745310138"/>
  <circle cx="565.6603773193018" cy="44.562490576983684" r="2.041306689525575" fill="#CFAE58" opacity="0.23246085550738307"/>
  <circle cx="2.419692386148675" cy="467.2675316940524" r="3.6120890871951667" fill="#CFAE58" opacity="0.11217967520209549"/>
  <circle cx="886.4412987575769" cy="539.020448040758" r="3.6974487504876468" fill="#CFAE58" opacity="0.12282956065543839"/>
  <circle cx="964.7374434049291" cy="393.20599650380933" r="2.7099692811672247" fill="#CFAE58" opacity="0.164288578116712"/>
  <circle cx="1145.8231982159332" cy="332.8671151604658" r="4.387199841354323" fill="#CFAE58" opacity="0.14511200772638588"/>
  <circle cx="674.8521364130834" cy="359.96297718286377" r="4.830832318628032" fill="#CFAE58" opacity="0.21022515786801677"/>
  <circle cx="744.6825876479861" cy="411.3485812553509" r="4.700660983424991" fill="#CFAE58" opacity="0.15778902312635998"/>
  <circle cx="165.30746363348783" cy="187.33023457780817" r="2.4174082091340257" fill="#CFAE58" opacity="0.17127033800669333"/>
  <circle cx="895.4458035962028" cy="103.29275477543027" r="4.266397491000734" fill="#CFAE58" opacity="0.1272659704896682"/>
  <circle cx="179.6285887640539" cy="565.2382322809035" r="4.952013729260874" fill="#CFAE58" opacity="0.10850607769860489"/>
  <circle cx="287.63702765526034" cy="525.5651589289911" r="4.49785159353969" fill="#CFAE58" opacity="0.10604214519348926"/>
  <circle cx="797.1694347520341" cy="589.2313581563485" r="5.58757621217163" fill="#CFAE58" opacity="0.24339010703637604"/>
  <circle cx="487.05861052688107" cy="410.10900173634974" r="2.0949953931131944" fill="#CFAE58" opacity="0.12155735225991865"/>
  <circle cx="724.8741703977933" cy="579.4660913312014" r="2.3980099720374097" fill="#CFAE58" opacity="0.2428334416212239"/>
  <circle cx="313.11387891258454" cy="302.9086610561326" r="4.007062304136788" fill="#CFAE58" opacity="0.1261600645085688"/>
  <circle cx="891.1728963973809" cy="152.15820690473168" r="3.403330255487763" fill="#CFAE58" opacity="0.11320720519091136"/>
  <circle cx="704.2400621257509" cy="482.19964928324674" r="4.842657506726599" fill="#CFAE58" opacity="0.19063400491333382"/>
  <circle cx="347.1140950749371" cy="592.6525342270212" r="5.541770622977521" fill="#CFAE58" opacity="0.21250452081420013"/>
  <circle cx="323.42768664839855" cy="545.827296916791" r="3.571594233858467" fill="#CFAE58" opacity="0.10174448608742978"/>
  <circle cx="920.3980398587274" cy="5.054787875735169" r="5.291705647461634" fill="#CFAE58" opacity="0.2064622293982158"/>
  <circle cx="53.79458761435893" cy="393.4180595195537" r="5.493109366243927" fill="#CFAE58" opacity="0.17268388096953874"/>

  <!-- Border with glow -->
  <rect x="40" y="40" width="1120" height="550" fill="none" stroke="url(#goldGradient)" stroke-width="3" rx="12" filter="url(#softGlow)"/>

  <!-- Icon circle with premium background -->
  <circle cx="150" cy="200" r="75" fill="#CFAE58" opacity="0.15" filter="url(#softGlow)"/>
  <circle cx="150" cy="200" r="70" fill="#CFAE58" opacity="0.25"/>
  <text x="150" y="235" font-size="90" text-anchor="middle" fill="#CFAE58" filter="url(#glow)">❓</text>

  <!-- Premium logo (crown) with enhanced styling -->
  <g transform="translate(100, 70)">
    <path d="M 30 20 L 40 35 L 35 35 Z M 50 15 L 60 35 L 45 35 Z M 65 20 L 75 35 L 70 35 Z M 30 35 L 75 35 L 73 45 L 32 45 Z"
          fill="url(#goldGradient)" filter="url(#glow)" stroke="#B89842" stroke-width="0.5"/>
    <circle cx="40" cy="25" r="3" fill="#4FD1C5" filter="url(#glow)"/>
    <circle cx="52" cy="20" r="4" fill="#4FD1C5" filter="url(#glow)"/>
    <circle cx="65" cy="25" r="3" fill="#4FD1C5" filter="url(#glow)"/>
  </g>

  <!-- Title with shadow -->
  <text x="280" y="180" font-family="Georgia, serif" font-size="72" font-weight="bold"
        fill="url(#goldGradient)" filter="url(#shadow)">FAQ</text>

  <!-- Subtitle with subtle glow -->
  <text x="280" y="230" font-family="Arial, sans-serif" font-size="36"
        fill="#D6DEE6" opacity="0.95" filter="url(#softGlow)">Frequently Asked Questions</text>

  <!-- Brand name with letter spacing -->
  <text x="280" y="300" font-family="Georgia, serif" font-size="32" font-weight="bold"
        fill="#CFAE58" letter-spacing="4" filter="url(#glow)">ROYAL KETA</text>

  <!-- Russian tagline -->
  <text x="280" y="340" font-family="Arial, sans-serif" font-size="22" font-style="italic"
        fill="#8B95A1" opacity="0.8">От икринки к королевской</text>

  <!-- Location -->
  <text x="280" y="380" font-family="Arial, sans-serif" font-size="20"
        fill="#8B95A1" opacity="0.7">Невельский район, Сахалин</text>

  <!-- Website with glow -->
  <text x="100" y="570" font-family="Arial, sans-serif" font-size="30" font-weight="bold"
        fill="#4FD1C5" filter="url(#glow)">royalketa.com</text>

  <!-- Enhanced decorative salmon silhouette -->
  <g transform="translate(950, 480)" opacity="0.2" filter="url(#softGlow)">
    <ellipse cx="0" cy="0" rx="90" ry="35" fill="#CFAE58"/>
    <path d="M 90 0 L 120 -18 L 130 0 L 120 18 Z" fill="#CFAE58"/>
    <path d="M -25 -35 L 0 -45 L 25 -35 Z" fill="#CFAE58"/>
    <ellipse cx="-50" cy="0" rx="15" ry="12" fill="#0B0F14"/>
  </g>

  <!-- Additional decorative caviar clusters -->
  <g opacity="0.2">
    <circle cx="1050" cy="120" r="6" fill="#CFAE58"/>
    <circle cx="1065" cy="115" r="5" fill="#CFAE58"/>
    <circle cx="1058" cy="130" r="4" fill="#CFAE58"/>
    <circle cx="150" cy="500" r="5" fill="#4FD1C5"/>
    <circle cx="165" cy="508" r="4" fill="#4FD1C5"/>
    <circle cx="140" cy="512" r="5" fill="#4FD1C5"/>
  </g>
</svg>