<svg width="1200" height="630" xmlns="http://www.w3.org/2000/svg">
  <defs>
    <linearGradient id="bgGradient" x1="0%" y1="0%" x2="100%" y2="100%">
      <stop offset="0%" style="stop-color:#0B0F14;stop-opacity:1" />
      <stop offset="50%" style="stop-color:#0F1619;stop-opacity:1" />
      <stop offset="100%" style="stop-color:#0F1922;stop-opacity:1" />
    </linearGradient>
    <linearGradient id="goldGradient" x1="0%" y1="0%" x2="100%" y2="0%">
      <stop offset="0%" style="stop-color:#E5D596;stop-opacity:1" />
      <stop offset="50%" style="stop-color:#CFAE58;stop-opacity:1" />
      <stop offset="100%" style="stop-color:#B89842;stop-opacity:1" />
    </linearGradient>
    <radialGradient id="oceanGradient" cx="50%" cy="50%" r="50%">
      <stop offset="0%" style="stop-color:#4FD1C5;stop-opacity:0.3" />
      <stop offset="100%" style="stop-color:#1E90A0;stop-opacity:0.05" />
    </radialGradient>
    <filter id="glow">
      <feGaussianBlur stdDeviation="5" result="coloredBlur"/>
      <feMerge>
        <feMergeNode in="coloredBlur"/>
        <feMergeNode in="SourceGraphic"/>
      </feMerge>
    </filter>
    <filter id="softGlow">
      <feGaussianBlur stdDeviation="8" result="coloredBlur"/>
      <feMerge>
        <feMergeNode in="coloredBlur"/>
        <feMergeNode in="SourceGraphic"/>
      </feMerge>
    </filter>
    <filter id="shadow">
      <feDropShadow dx="0" dy="4" stdDeviation="8" flood-color="#000000" flood-opacity="0.5"/>
    </filter>
  </defs>

  <!-- Background -->
  <rect width="1200" height="630" fill="url(#bgGradient)"/>

  <!-- Decorative ocean gradients -->
  <ellipse cx="1000" cy="150" rx="300" ry="200" fill="url(#oceanGradient)" opacity="0.4"/>
  <ellipse cx="200" cy="530" rx="250" ry="180" fill="url(#oceanGradient)" opacity="0.3"/>

  <!-- Wave patterns -->
  <path d="M 0 400 Q 300 350 600 400 T 1200 400 L 1200 630 L 0 630 Z" fill="#1E90A0" opacity="0.08"/>
  <path d="M 0 450 Q 250 420 500 450 T 1000 450 T 1200 450 L 1200 630 L 0 630 Z" fill="#4FD1C5" opacity="0.05"/>

  <!-- Caviar roe particles -->
  <circle cx="70.00137108850795" cy="257.9622996752677" r="3.9248176162192943" fill="#CFAE58" opacity="0.13840857723946284"/>
  <circle cx="652.3814239897038" cy="600.9336488207415" r="3.99456215040262" fill="#CFAE58" opacity="0.24374754718229283"/>
  <circle cx="521.5466989498734" cy="190.46010859058785" r="4.16082318206586" fill="#CFAE58" opacity="0.12423779841872538"/>
  <circle cx="1187.0886852013912" cy="75.00630704827252" r="3.074221446209201" fill="#CFAE58" opacity="0.1482001728124468"/>
  <circle cx="1137.2062527175822" cy="368.23408622717466" r="2.379367112157152" fill="#CFAE58" opacity="0.22527222057094265"/>
  <circle cx="11.70327362895982" cy="614.1206280959157" r="5.7639994827777645" fill="#CFAE58" opacity="0.1842185829875715"/>
  <circle cx="801.1173012056751" cy="619.6381125176658" r="2.128164457377524" fill="#CFAE58" opacity="0.24162052885821156"/>
  <circle cx="814.0564912006671" cy="13.116339416804676" r="4.152045311911483" fill="#CFAE58" opacity="0.19926988148488745"/>
  <circle cx="997.9099207751883" cy="505.7525233312826" r="2.0555229688582197" fill="#CFAE58" opacity="0.20030632726219644"/>
  <circle cx="945.608336309041" cy="305.9503860371263" r="3.714907571972607" fill="#CFAE58" opacity="0.19230927015407914"/>
  <circle cx="724.3200898951484" cy="122.47536597816989" r="3.039457756612386" fill="#CFAE58" opacity="0.1664607586004188"/>
  <circle cx="1124.682978553564" cy="23.199908005687043" r="4.561274180947958" fill="#CFAE58" opacity="0.23938303492534302"/>
  <circle cx="87.71486696087578" cy="428.0027024278286" r="3.8788322347961093" fill="#CFAE58" opacity="0.2275864788622781"/>
  <circle cx="937.6464002897168" cy="251.1838882538016" r="3.2964334430792754" fill="#CFAE58" opacity="0.16415417224022352"/>
  <circle cx="876.1349946779228" cy="49.39717426083605" r="2.7504528146024763" fill="#CFAE58" opacity="0.21327535323413482"/>
  <circle cx="887.9003473998717" cy="33.16395982536438" r="3.530237112179117" fill="#CFAE58" opacity="0.24807307534810852"/>
  <circle cx="855.3304436411588" cy="543.3278500120301" r="5.194363427929186" fill="#CFAE58" opacity="0.12636644069212627"/>
  <circle cx="227.19552273109267" cy="514.7628016555313" r="5.0171809797361355" fill="#CFAE58" opacity="0.1515989652064484"/>
  <circle cx="1044.766262862419" cy="77.67115437354539" r="3.9730638250121912" fill="#CFAE58" opacity="0.20826478924484915"/>
  <circle cx="807.8372121802726" cy="380.75869797145697" r="5.82391488986568" fill="#CFAE58" opacity="0.23530441882852107"/>
  <circle cx="1102.469154474765" cy="543.1697029339433" r="4.118474334623805" fill="#CFAE58" opacity="0.1530727626076172"/>
  <circle cx="800.6567670676341" cy="89.57404163657876" r="3.3935217103299835" fill="#CFAE58" opacity="0.18121789636808927"/>
  <circle cx="285.84765453850076" cy="267.5473342522643" r="4.589026432470398" fill="#CFAE58" opacity="0.1357460311627333"/>
  <circle cx="739.4333867652764" cy="203.19414091012436" r="5.350203561177704" fill="#CFAE58" opacity="0.17263466709215547"/>
  <circle cx="720.7848364612129" cy="256.62517317954206" r="2.605883999300489" fill="#CFAE58" opacity="0.22889440507743278"/>
  <circle cx="187.0934278711581" cy="182.47359733757477" r="5.259553785090967" fill="#CFAE58" opacity="0.22162947653639387"/>
  <circle cx="183.0590084310081" cy="493.39777600113564" r="3.119899587447688" fill="#CFAE58" opacity="0.13487286039177365"/>
  <circle cx="408.9359047352825" cy="290.0151231840412" r="3.31832526387586" fill="#CFAE58" opacity="0.1511522733695524"/>
  <circle cx="747.7264325491942" cy="581.3519598175261" r="4.303708972113023" fill="#CFAE58" opacity="0.19344737307528323"/>
  <circle cx="791.8637243908681" cy="583.0515682834096" r="5.543635679006614" fill="#CFAE58" opacity="0.18392577477138178"/>

  <!-- Border with glow -->
  <rect x="40" y="40" width="1120" height="550" fill="none" stroke="url(#goldGradient)" stroke-width="3" rx="12" filter="url(#softGlow)"/>

  <!-- Icon circle with premium background -->
  <circle cx="150" cy="200" r="75" fill="#CFAE58" opacity="0.15" filter="url(#softGlow)"/>
  <circle cx="150" cy="200" r="70" fill="#CFAE58" opacity="0.25"/>
  <text x="150" y="235" font-size="90" text-anchor="middle" fill="#CFAE58" filter="url(#glow)">❓</text>

  <!-- Premium logo (crown) with enhanced styling -->
  <g transform="translate(100, 70)">
    <path d="M 30 20 L 40 35 L 35 35 Z M 50 15 L 60 35 L 45 35 Z M 65 20 L 75 35 L 70 35 Z M 30 35 L 75 35 L 73 45 L 32 45 Z"
          fill="url(#goldGradient)" filter="url(#glow)" stroke="#B89842" stroke-width="0.5"/>
    <circle cx="40" cy="25" r="3" fill="#4FD1C5" filter="url(#glow)"/>
    <circle cx="52" cy="20" r="4" fill="#4FD1C5" filter="url(#glow)"/>
    <circle cx="65" cy="25" r="3" fill="#4FD1C5" filter="url(#glow)"/>
  </g>

  <!-- Title with shadow -->
  <text x="280" y="180" font-family="Georgia, serif" font-size="72" font-weight="bold"
        fill="url(#goldGradient)" filter="url(#shadow)">FAQ</text>

  <!-- Subtitle with subtle glow -->
  <text x="280" y="230" font-family="Arial, sans-serif" font-size="36"
        fill="#D6DEE6" opacity="0.95" filter="url(#softGlow)">Frequently Asked Questions</text>

  <!-- Brand name with letter spacing -->
  <text x="280" y="300" font-family="Georgia, serif" font-size="32" font-weight="bold"
        fill="#CFAE58" letter-spacing="4" filter="url(#glow)">ROYAL KETA</text>

  <!-- Russian tagline -->
  <text x="280" y="340" font-family="Arial, sans-serif" font-size="22" font-style="italic"
        fill="#8B95A1" opacity="0.8">От икринки к королевской</text>

  <!-- Location -->
  <text x="280" y="380" font-family="Arial, sans-serif" font-size="20"
        fill="#8B95A1" opacity="0.7">Невельский район, Сахалин</text>

  <!-- Website with glow -->
  <text x="100" y="570" font-family="Arial, sans-serif" font-size="30" font-weight="bold"
        fill="#4FD1C5" filter="url(#glow)">royalketa.com</text>

  <!-- Enhanced decorative salmon silhouette -->
  <g transform="translate(950, 480)" opacity="0.2" filter="url(#softGlow)">
    <ellipse cx="0" cy="0" rx="90" ry="35" fill="#CFAE58"/>
    <path d="M 90 0 L 120 -18 L 130 0 L 120 18 Z" fill="#CFAE58"/>
    <path d="M -25 -35 L 0 -45 L 25 -35 Z" fill="#CFAE58"/>
    <ellipse cx="-50" cy="0" rx="15" ry="12" fill="#0B0F14"/>
  </g>

  <!-- Additional decorative caviar clusters -->
  <g opacity="0.2">
    <circle cx="1050" cy="120" r="6" fill="#CFAE58"/>
    <circle cx="1065" cy="115" r="5" fill="#CFAE58"/>
    <circle cx="1058" cy="130" r="4" fill="#CFAE58"/>
    <circle cx="150" cy="500" r="5" fill="#4FD1C5"/>
    <circle cx="165" cy="508" r="4" fill="#4FD1C5"/>
    <circle cx="140" cy="512" r="5" fill="#4FD1C5"/>
  </g>
</svg>