<svg width="1200" height="630" xmlns="http://www.w3.org/2000/svg">
  <defs>
    <linearGradient id="bgGradient" x1="0%" y1="0%" x2="100%" y2="100%">
      <stop offset="0%" style="stop-color:#0B0F14;stop-opacity:1" />
      <stop offset="50%" style="stop-color:#0F1619;stop-opacity:1" />
      <stop offset="100%" style="stop-color:#0F1922;stop-opacity:1" />
    </linearGradient>
    <linearGradient id="goldGradient" x1="0%" y1="0%" x2="100%" y2="0%">
      <stop offset="0%" style="stop-color:#E5D596;stop-opacity:1" />
      <stop offset="50%" style="stop-color:#CFAE58;stop-opacity:1" />
      <stop offset="100%" style="stop-color:#B89842;stop-opacity:1" />
    </linearGradient>
    <radialGradient id="oceanGradient" cx="50%" cy="50%" r="50%">
      <stop offset="0%" style="stop-color:#4FD1C5;stop-opacity:0.3" />
      <stop offset="100%" style="stop-color:#1E90A0;stop-opacity:0.05" />
    </radialGradient>
    <filter id="glow">
      <feGaussianBlur stdDeviation="5" result="coloredBlur"/>
      <feMerge>
        <feMergeNode in="coloredBlur"/>
        <feMergeNode in="SourceGraphic"/>
      </feMerge>
    </filter>
    <filter id="softGlow">
      <feGaussianBlur stdDeviation="8" result="coloredBlur"/>
      <feMerge>
        <feMergeNode in="coloredBlur"/>
        <feMergeNode in="SourceGraphic"/>
      </feMerge>
    </filter>
    <filter id="shadow">
      <feDropShadow dx="0" dy="4" stdDeviation="8" flood-color="#000000" flood-opacity="0.5"/>
    </filter>
  </defs>

  <!-- Background -->
  <rect width="1200" height="630" fill="url(#bgGradient)"/>

  <!-- Decorative ocean gradients -->
  <ellipse cx="1000" cy="150" rx="300" ry="200" fill="url(#oceanGradient)" opacity="0.4"/>
  <ellipse cx="200" cy="530" rx="250" ry="180" fill="url(#oceanGradient)" opacity="0.3"/>

  <!-- Wave patterns -->
  <path d="M 0 400 Q 300 350 600 400 T 1200 400 L 1200 630 L 0 630 Z" fill="#1E90A0" opacity="0.08"/>
  <path d="M 0 450 Q 250 420 500 450 T 1000 450 T 1200 450 L 1200 630 L 0 630 Z" fill="#4FD1C5" opacity="0.05"/>

  <!-- Caviar roe particles -->
  <circle cx="476.0555768487861" cy="423.08359639975004" r="2.54726692547797" fill="#CFAE58" opacity="0.18448933536619871"/>
  <circle cx="359.40413453106135" cy="191.5527996494469" r="3.946764703707701" fill="#CFAE58" opacity="0.2341630369697279"/>
  <circle cx="1197.9020746054448" cy="433.2515875229649" r="4.791546816303363" fill="#CFAE58" opacity="0.19716224648053873"/>
  <circle cx="385.85132649198204" cy="260.59378621717724" r="3.5422460306493453" fill="#CFAE58" opacity="0.19419549113885787"/>
  <circle cx="707.791375666122" cy="596.0531189952151" r="5.450985774562924" fill="#CFAE58" opacity="0.10193065723682282"/>
  <circle cx="116.02317505045296" cy="24.93201774053182" r="2.5568362199902803" fill="#CFAE58" opacity="0.1583717397960812"/>
  <circle cx="504.3225532397455" cy="208.0189404226099" r="4.499223531941544" fill="#CFAE58" opacity="0.10249495165510678"/>
  <circle cx="912.4932787045427" cy="5.196730458287684" r="2.53160471227206" fill="#CFAE58" opacity="0.14655772033770295"/>
  <circle cx="772.9435139807389" cy="94.04612971543527" r="3.483106546521322" fill="#CFAE58" opacity="0.18379871788276714"/>
  <circle cx="201.2696715757453" cy="350.23554890233174" r="4.537446511477864" fill="#CFAE58" opacity="0.21962036863463474"/>
  <circle cx="184.2749526997093" cy="273.0402587400133" r="3.4951653891198315" fill="#CFAE58" opacity="0.13139060769345745"/>
  <circle cx="1172.0634789157439" cy="433.3334450599116" r="3.25881867587841" fill="#CFAE58" opacity="0.17818589922380532"/>
  <circle cx="648.618989975176" cy="421.3114516295129" r="4.473222611744804" fill="#CFAE58" opacity="0.21394118604218085"/>
  <circle cx="1064.4338245456972" cy="52.08660467816924" r="5.90619185521348" fill="#CFAE58" opacity="0.16714142474329113"/>
  <circle cx="839.8990945521829" cy="175.62144064659813" r="4.325596989411041" fill="#CFAE58" opacity="0.18621110175714506"/>
  <circle cx="957.3867982952893" cy="295.94990097077186" r="5.953827041139488" fill="#CFAE58" opacity="0.18567258283711724"/>
  <circle cx="494.7262324683581" cy="90.21864402207751" r="3.99712381316497" fill="#CFAE58" opacity="0.2413399636458733"/>
  <circle cx="435.80701168427703" cy="517.1765523870014" r="5.522859304513101" fill="#CFAE58" opacity="0.18634929582898352"/>
  <circle cx="154.51904681803282" cy="8.145425206169756" r="5.710480121437523" fill="#CFAE58" opacity="0.17303255628170364"/>
  <circle cx="737.727076973047" cy="244.202198072619" r="2.662252344603516" fill="#CFAE58" opacity="0.24922911021598543"/>
  <circle cx="196.3322623734887" cy="544.7747963423785" r="3.3123844401148057" fill="#CFAE58" opacity="0.10924175689451564"/>
  <circle cx="336.1494695136775" cy="87.482799980493" r="4.042323541937072" fill="#CFAE58" opacity="0.10653262134568593"/>
  <circle cx="438.0779502387608" cy="45.871931274225425" r="2.390871209696865" fill="#CFAE58" opacity="0.22200211628088085"/>
  <circle cx="548.3132946075568" cy="46.08405220923375" r="4.348238915273408" fill="#CFAE58" opacity="0.24605986161950089"/>
  <circle cx="578.3067339925128" cy="106.88027465937675" r="5.461335446159309" fill="#CFAE58" opacity="0.10341382533530732"/>
  <circle cx="571.7466304142042" cy="388.26199841527324" r="3.489766469965667" fill="#CFAE58" opacity="0.20806029105627008"/>
  <circle cx="416.04405639353627" cy="409.4237774144501" r="4.754565862627829" fill="#CFAE58" opacity="0.10209178478835573"/>
  <circle cx="345.5433337517491" cy="305.91306732800115" r="3.459252552344016" fill="#CFAE58" opacity="0.10293766512741889"/>
  <circle cx="383.4367329283059" cy="43.37411890952477" r="3.0366311114397226" fill="#CFAE58" opacity="0.10022659885735455"/>
  <circle cx="1172.1599177672442" cy="48.82167997228862" r="3.4036277235446493" fill="#CFAE58" opacity="0.17930660490074812"/>

  <!-- Border with glow -->
  <rect x="40" y="40" width="1120" height="550" fill="none" stroke="url(#goldGradient)" stroke-width="3" rx="12" filter="url(#softGlow)"/>

  <!-- Icon circle with premium background -->
  <circle cx="150" cy="200" r="75" fill="#CFAE58" opacity="0.15" filter="url(#softGlow)"/>
  <circle cx="150" cy="200" r="70" fill="#CFAE58" opacity="0.25"/>
  <text x="150" y="235" font-size="90" text-anchor="middle" fill="#CFAE58" filter="url(#glow)">❓</text>

  <!-- Premium logo (crown) with enhanced styling -->
  <g transform="translate(100, 70)">
    <path d="M 30 20 L 40 35 L 35 35 Z M 50 15 L 60 35 L 45 35 Z M 65 20 L 75 35 L 70 35 Z M 30 35 L 75 35 L 73 45 L 32 45 Z"
          fill="url(#goldGradient)" filter="url(#glow)" stroke="#B89842" stroke-width="0.5"/>
    <circle cx="40" cy="25" r="3" fill="#4FD1C5" filter="url(#glow)"/>
    <circle cx="52" cy="20" r="4" fill="#4FD1C5" filter="url(#glow)"/>
    <circle cx="65" cy="25" r="3" fill="#4FD1C5" filter="url(#glow)"/>
  </g>

  <!-- Title with shadow -->
  <text x="280" y="180" font-family="Georgia, serif" font-size="72" font-weight="bold"
        fill="url(#goldGradient)" filter="url(#shadow)">FAQ</text>

  <!-- Subtitle with subtle glow -->
  <text x="280" y="230" font-family="Arial, sans-serif" font-size="36"
        fill="#D6DEE6" opacity="0.95" filter="url(#softGlow)">Frequently Asked Questions</text>

  <!-- Brand name with letter spacing -->
  <text x="280" y="300" font-family="Georgia, serif" font-size="32" font-weight="bold"
        fill="#CFAE58" letter-spacing="4" filter="url(#glow)">ROYAL KETA</text>

  <!-- Russian tagline -->
  <text x="280" y="340" font-family="Arial, sans-serif" font-size="22" font-style="italic"
        fill="#8B95A1" opacity="0.8">От икринки к королевской</text>

  <!-- Location -->
  <text x="280" y="380" font-family="Arial, sans-serif" font-size="20"
        fill="#8B95A1" opacity="0.7">Невельский район, Сахалин</text>

  <!-- Website with glow -->
  <text x="100" y="570" font-family="Arial, sans-serif" font-size="30" font-weight="bold"
        fill="#4FD1C5" filter="url(#glow)">royalketa.com</text>

  <!-- Enhanced decorative salmon silhouette -->
  <g transform="translate(950, 480)" opacity="0.2" filter="url(#softGlow)">
    <ellipse cx="0" cy="0" rx="90" ry="35" fill="#CFAE58"/>
    <path d="M 90 0 L 120 -18 L 130 0 L 120 18 Z" fill="#CFAE58"/>
    <path d="M -25 -35 L 0 -45 L 25 -35 Z" fill="#CFAE58"/>
    <ellipse cx="-50" cy="0" rx="15" ry="12" fill="#0B0F14"/>
  </g>

  <!-- Additional decorative caviar clusters -->
  <g opacity="0.2">
    <circle cx="1050" cy="120" r="6" fill="#CFAE58"/>
    <circle cx="1065" cy="115" r="5" fill="#CFAE58"/>
    <circle cx="1058" cy="130" r="4" fill="#CFAE58"/>
    <circle cx="150" cy="500" r="5" fill="#4FD1C5"/>
    <circle cx="165" cy="508" r="4" fill="#4FD1C5"/>
    <circle cx="140" cy="512" r="5" fill="#4FD1C5"/>
  </g>
</svg>