<svg width="1200" height="630" xmlns="http://www.w3.org/2000/svg">
  <defs>
    <linearGradient id="bgGradient" x1="0%" y1="0%" x2="100%" y2="100%">
      <stop offset="0%" style="stop-color:#0B0F14;stop-opacity:1" />
      <stop offset="50%" style="stop-color:#0F1619;stop-opacity:1" />
      <stop offset="100%" style="stop-color:#0F1922;stop-opacity:1" />
    </linearGradient>
    <linearGradient id="goldGradient" x1="0%" y1="0%" x2="100%" y2="0%">
      <stop offset="0%" style="stop-color:#E5D596;stop-opacity:1" />
      <stop offset="50%" style="stop-color:#CFAE58;stop-opacity:1" />
      <stop offset="100%" style="stop-color:#B89842;stop-opacity:1" />
    </linearGradient>
    <radialGradient id="oceanGradient" cx="50%" cy="50%" r="50%">
      <stop offset="0%" style="stop-color:#4FD1C5;stop-opacity:0.3" />
      <stop offset="100%" style="stop-color:#1E90A0;stop-opacity:0.05" />
    </radialGradient>
    <filter id="glow">
      <feGaussianBlur stdDeviation="5" result="coloredBlur"/>
      <feMerge>
        <feMergeNode in="coloredBlur"/>
        <feMergeNode in="SourceGraphic"/>
      </feMerge>
    </filter>
    <filter id="softGlow">
      <feGaussianBlur stdDeviation="8" result="coloredBlur"/>
      <feMerge>
        <feMergeNode in="coloredBlur"/>
        <feMergeNode in="SourceGraphic"/>
      </feMerge>
    </filter>
    <filter id="shadow">
      <feDropShadow dx="0" dy="4" stdDeviation="8" flood-color="#000000" flood-opacity="0.5"/>
    </filter>
  </defs>

  <!-- Background -->
  <rect width="1200" height="630" fill="url(#bgGradient)"/>

  <!-- Decorative ocean gradients -->
  <ellipse cx="1000" cy="150" rx="300" ry="200" fill="url(#oceanGradient)" opacity="0.4"/>
  <ellipse cx="200" cy="530" rx="250" ry="180" fill="url(#oceanGradient)" opacity="0.3"/>

  <!-- Wave patterns -->
  <path d="M 0 400 Q 300 350 600 400 T 1200 400 L 1200 630 L 0 630 Z" fill="#1E90A0" opacity="0.08"/>
  <path d="M 0 450 Q 250 420 500 450 T 1000 450 T 1200 450 L 1200 630 L 0 630 Z" fill="#4FD1C5" opacity="0.05"/>

  <!-- Caviar roe particles -->
  <circle cx="1013.6725562692085" cy="423.5333651049093" r="2.101885532722024" fill="#CFAE58" opacity="0.12745726436352808"/>
  <circle cx="443.2619281777914" cy="75.80085777594739" r="2.053429728769987" fill="#CFAE58" opacity="0.21833288960538771"/>
  <circle cx="234.51133053346814" cy="77.74569741905803" r="2.0971098759323032" fill="#CFAE58" opacity="0.12349558223920173"/>
  <circle cx="778.3416555154265" cy="367.4807318540105" r="5.809376121646243" fill="#CFAE58" opacity="0.12424762211692732"/>
  <circle cx="215.26665198865365" cy="94.7698359280452" r="3.650916283532206" fill="#CFAE58" opacity="0.10213942466411251"/>
  <circle cx="766.4914780530079" cy="369.79282544001313" r="5.4180111568990945" fill="#CFAE58" opacity="0.2245824681675873"/>
  <circle cx="1096.1939198064745" cy="232.09291621987086" r="5.952253958942556" fill="#CFAE58" opacity="0.24553859868520095"/>
  <circle cx="1033.0252429197901" cy="620.8203640278932" r="3.2341692128199764" fill="#CFAE58" opacity="0.22719216502745382"/>
  <circle cx="854.6539495155815" cy="248.37309464693254" r="4.343281401835372" fill="#CFAE58" opacity="0.14551465041383405"/>
  <circle cx="1098.150472005787" cy="174.8226086400725" r="5.506952429640806" fill="#CFAE58" opacity="0.2481484059955396"/>
  <circle cx="652.5280368915054" cy="32.9424120757596" r="5.342804587727253" fill="#CFAE58" opacity="0.14995533026483002"/>
  <circle cx="1198.3212227465888" cy="624.559647388546" r="2.5718274842261923" fill="#CFAE58" opacity="0.12671326320422374"/>
  <circle cx="1059.4854237727557" cy="23.20705648896846" r="2.1741017704777663" fill="#CFAE58" opacity="0.16505203414557706"/>
  <circle cx="794.3260863419528" cy="370.0073238956896" r="5.236929386906167" fill="#CFAE58" opacity="0.1940758343313585"/>
  <circle cx="664.8221804489096" cy="109.54851920057871" r="5.705073498715591" fill="#CFAE58" opacity="0.14971727579402544"/>
  <circle cx="256.94383033901727" cy="135.49127689079643" r="2.414156487906819" fill="#CFAE58" opacity="0.161233388240632"/>
  <circle cx="961.370908706239" cy="56.04420915649595" r="4.336737301876195" fill="#CFAE58" opacity="0.21984825691375698"/>
  <circle cx="860.0107572035603" cy="530.6943731448234" r="4.5792673934428" fill="#CFAE58" opacity="0.19975639309023313"/>
  <circle cx="683.506033212626" cy="617.25594469926" r="3.5404386698826382" fill="#CFAE58" opacity="0.10934741960722122"/>
  <circle cx="96.81851515240511" cy="379.8531910891473" r="5.863480317864297" fill="#CFAE58" opacity="0.16614647717072245"/>
  <circle cx="513.9198180332484" cy="70.96111224783375" r="3.3474908606908436" fill="#CFAE58" opacity="0.2205369447852122"/>
  <circle cx="1037.1280112086954" cy="223.13378369961987" r="5.470215964966635" fill="#CFAE58" opacity="0.21500377512735808"/>
  <circle cx="419.4347280005245" cy="33.783033568471716" r="4.225704123624054" fill="#CFAE58" opacity="0.1740906058152042"/>
  <circle cx="495.6120873166359" cy="505.071136813795" r="3.8860139179969133" fill="#CFAE58" opacity="0.24442598102306937"/>
  <circle cx="230.5932640896949" cy="266.6542841250128" r="5.5774053216427415" fill="#CFAE58" opacity="0.2394379686570806"/>
  <circle cx="851.6831498972846" cy="460.98462449116647" r="3.0712815717323974" fill="#CFAE58" opacity="0.1783564891484236"/>
  <circle cx="926.4221217053388" cy="241.10023777268535" r="4.384200209383437" fill="#CFAE58" opacity="0.1389832210656904"/>
  <circle cx="578.8921781159158" cy="418.39141179416447" r="4.4491597670352805" fill="#CFAE58" opacity="0.2120529390059131"/>
  <circle cx="963.3932490025392" cy="266.80624912133203" r="4.745832946786978" fill="#CFAE58" opacity="0.19315042550463918"/>
  <circle cx="732.5505746674435" cy="48.52256082747014" r="5.941662050237152" fill="#CFAE58" opacity="0.1731653077885477"/>

  <!-- Border with glow -->
  <rect x="40" y="40" width="1120" height="550" fill="none" stroke="url(#goldGradient)" stroke-width="3" rx="12" filter="url(#softGlow)"/>

  <!-- Icon circle with premium background -->
  <circle cx="150" cy="200" r="75" fill="#CFAE58" opacity="0.15" filter="url(#softGlow)"/>
  <circle cx="150" cy="200" r="70" fill="#CFAE58" opacity="0.25"/>
  <text x="150" y="235" font-size="90" text-anchor="middle" fill="#CFAE58" filter="url(#glow)">❓</text>

  <!-- Premium logo (crown) with enhanced styling -->
  <g transform="translate(100, 70)">
    <path d="M 30 20 L 40 35 L 35 35 Z M 50 15 L 60 35 L 45 35 Z M 65 20 L 75 35 L 70 35 Z M 30 35 L 75 35 L 73 45 L 32 45 Z"
          fill="url(#goldGradient)" filter="url(#glow)" stroke="#B89842" stroke-width="0.5"/>
    <circle cx="40" cy="25" r="3" fill="#4FD1C5" filter="url(#glow)"/>
    <circle cx="52" cy="20" r="4" fill="#4FD1C5" filter="url(#glow)"/>
    <circle cx="65" cy="25" r="3" fill="#4FD1C5" filter="url(#glow)"/>
  </g>

  <!-- Title with shadow -->
  <text x="280" y="180" font-family="Georgia, serif" font-size="72" font-weight="bold"
        fill="url(#goldGradient)" filter="url(#shadow)">FAQ</text>

  <!-- Subtitle with subtle glow -->
  <text x="280" y="230" font-family="Arial, sans-serif" font-size="36"
        fill="#D6DEE6" opacity="0.95" filter="url(#softGlow)">Frequently Asked Questions</text>

  <!-- Brand name with letter spacing -->
  <text x="280" y="300" font-family="Georgia, serif" font-size="32" font-weight="bold"
        fill="#CFAE58" letter-spacing="4" filter="url(#glow)">ROYAL KETA</text>

  <!-- Russian tagline -->
  <text x="280" y="340" font-family="Arial, sans-serif" font-size="22" font-style="italic"
        fill="#8B95A1" opacity="0.8">От икринки к королевской</text>

  <!-- Location -->
  <text x="280" y="380" font-family="Arial, sans-serif" font-size="20"
        fill="#8B95A1" opacity="0.7">Невельский район, Сахалин</text>

  <!-- Website with glow -->
  <text x="100" y="570" font-family="Arial, sans-serif" font-size="30" font-weight="bold"
        fill="#4FD1C5" filter="url(#glow)">royalketa.com</text>

  <!-- Enhanced decorative salmon silhouette -->
  <g transform="translate(950, 480)" opacity="0.2" filter="url(#softGlow)">
    <ellipse cx="0" cy="0" rx="90" ry="35" fill="#CFAE58"/>
    <path d="M 90 0 L 120 -18 L 130 0 L 120 18 Z" fill="#CFAE58"/>
    <path d="M -25 -35 L 0 -45 L 25 -35 Z" fill="#CFAE58"/>
    <ellipse cx="-50" cy="0" rx="15" ry="12" fill="#0B0F14"/>
  </g>

  <!-- Additional decorative caviar clusters -->
  <g opacity="0.2">
    <circle cx="1050" cy="120" r="6" fill="#CFAE58"/>
    <circle cx="1065" cy="115" r="5" fill="#CFAE58"/>
    <circle cx="1058" cy="130" r="4" fill="#CFAE58"/>
    <circle cx="150" cy="500" r="5" fill="#4FD1C5"/>
    <circle cx="165" cy="508" r="4" fill="#4FD1C5"/>
    <circle cx="140" cy="512" r="5" fill="#4FD1C5"/>
  </g>
</svg>