<svg width="1200" height="630" xmlns="http://www.w3.org/2000/svg">
  <defs>
    <linearGradient id="bgGradient" x1="0%" y1="0%" x2="100%" y2="100%">
      <stop offset="0%" style="stop-color:#0B0F14;stop-opacity:1" />
      <stop offset="50%" style="stop-color:#0F1619;stop-opacity:1" />
      <stop offset="100%" style="stop-color:#0F1922;stop-opacity:1" />
    </linearGradient>
    <linearGradient id="goldGradient" x1="0%" y1="0%" x2="100%" y2="0%">
      <stop offset="0%" style="stop-color:#E5D596;stop-opacity:1" />
      <stop offset="50%" style="stop-color:#CFAE58;stop-opacity:1" />
      <stop offset="100%" style="stop-color:#B89842;stop-opacity:1" />
    </linearGradient>
    <radialGradient id="oceanGradient" cx="50%" cy="50%" r="50%">
      <stop offset="0%" style="stop-color:#4FD1C5;stop-opacity:0.3" />
      <stop offset="100%" style="stop-color:#1E90A0;stop-opacity:0.05" />
    </radialGradient>
    <filter id="glow">
      <feGaussianBlur stdDeviation="5" result="coloredBlur"/>
      <feMerge>
        <feMergeNode in="coloredBlur"/>
        <feMergeNode in="SourceGraphic"/>
      </feMerge>
    </filter>
    <filter id="softGlow">
      <feGaussianBlur stdDeviation="8" result="coloredBlur"/>
      <feMerge>
        <feMergeNode in="coloredBlur"/>
        <feMergeNode in="SourceGraphic"/>
      </feMerge>
    </filter>
    <filter id="shadow">
      <feDropShadow dx="0" dy="4" stdDeviation="8" flood-color="#000000" flood-opacity="0.5"/>
    </filter>
  </defs>

  <!-- Background -->
  <rect width="1200" height="630" fill="url(#bgGradient)"/>

  <!-- Decorative ocean gradients -->
  <ellipse cx="1000" cy="150" rx="300" ry="200" fill="url(#oceanGradient)" opacity="0.4"/>
  <ellipse cx="200" cy="530" rx="250" ry="180" fill="url(#oceanGradient)" opacity="0.3"/>

  <!-- Wave patterns -->
  <path d="M 0 400 Q 300 350 600 400 T 1200 400 L 1200 630 L 0 630 Z" fill="#1E90A0" opacity="0.08"/>
  <path d="M 0 450 Q 250 420 500 450 T 1000 450 T 1200 450 L 1200 630 L 0 630 Z" fill="#4FD1C5" opacity="0.05"/>

  <!-- Caviar roe particles -->
  <circle cx="460.1468336724941" cy="599.7113490940741" r="4.488073853133866" fill="#CFAE58" opacity="0.180613056926627"/>
  <circle cx="419.7587455490653" cy="461.3211207834124" r="2.638626475165453" fill="#CFAE58" opacity="0.24677536630766883"/>
  <circle cx="628.5186423311145" cy="364.21934601531876" r="2.9966388603031406" fill="#CFAE58" opacity="0.24919194579149542"/>
  <circle cx="1188.9800889075113" cy="297.8824461376432" r="5.721114357085812" fill="#CFAE58" opacity="0.22390659928921544"/>
  <circle cx="15.77471385697935" cy="285.43019570673766" r="2.492665020993333" fill="#CFAE58" opacity="0.1881071325020155"/>
  <circle cx="722.162257789811" cy="373.48448668222284" r="5.651926466185617" fill="#CFAE58" opacity="0.1741661191623457"/>
  <circle cx="1166.6484026884114" cy="108.47243419961383" r="2.2454852373848633" fill="#CFAE58" opacity="0.21940647198986646"/>
  <circle cx="596.5877625510566" cy="327.2179590824299" r="2.72319118303043" fill="#CFAE58" opacity="0.21613018078834356"/>
  <circle cx="1033.619242711294" cy="521.8798289926311" r="3.2977372922432897" fill="#CFAE58" opacity="0.15125965739563554"/>
  <circle cx="488.08099129139356" cy="319.8228715633138" r="3.3510955564134983" fill="#CFAE58" opacity="0.14847748613873668"/>
  <circle cx="175.15828102807163" cy="532.9065742117159" r="5.043025611133877" fill="#CFAE58" opacity="0.16868267242012208"/>
  <circle cx="999.1253451389141" cy="579.8394198319693" r="5.6110476732787475" fill="#CFAE58" opacity="0.12276657519679869"/>
  <circle cx="834.0424687632086" cy="269.8625834906749" r="4.685847982079217" fill="#CFAE58" opacity="0.16185888684373417"/>
  <circle cx="44.51076408923598" cy="462.01945063232665" r="5.562798661700917" fill="#CFAE58" opacity="0.2287349733557128"/>
  <circle cx="913.2679924717282" cy="579.2128939792018" r="5.463339783593626" fill="#CFAE58" opacity="0.20569429713752596"/>
  <circle cx="289.83554769298394" cy="210.29463926650075" r="4.779210972554065" fill="#CFAE58" opacity="0.1785133072171135"/>
  <circle cx="382.86715460237303" cy="452.0625622049635" r="5.592378146871373" fill="#CFAE58" opacity="0.19056959362628262"/>
  <circle cx="231.42761782386768" cy="532.8561632318228" r="5.481150252881116" fill="#CFAE58" opacity="0.12822576545051795"/>
  <circle cx="915.8060372749704" cy="346.7349538783294" r="2.0166856323722495" fill="#CFAE58" opacity="0.14483326236729432"/>
  <circle cx="417.45873649284056" cy="41.11856613704863" r="2.7403056153179417" fill="#CFAE58" opacity="0.15963529381497873"/>
  <circle cx="706.6916743630645" cy="476.9231384974877" r="5.689212193850412" fill="#CFAE58" opacity="0.23458972184829496"/>
  <circle cx="1132.0607141680055" cy="575.4172497722305" r="2.6971021682167144" fill="#CFAE58" opacity="0.1417054625030675"/>
  <circle cx="1041.1439480296433" cy="240.38382909841522" r="3.302915060550518" fill="#CFAE58" opacity="0.15490791980227048"/>
  <circle cx="1120.3223536777305" cy="340.59645531762993" r="4.906909405114464" fill="#CFAE58" opacity="0.20322530569601244"/>
  <circle cx="621.0560640485704" cy="503.66553935255513" r="2.0306192806637604" fill="#CFAE58" opacity="0.23508674212448738"/>
  <circle cx="361.7743013400803" cy="106.69310896593844" r="2.1785766726427402" fill="#CFAE58" opacity="0.1568581865107311"/>
  <circle cx="456.98104524856865" cy="408.3649441397179" r="3.9086836551626982" fill="#CFAE58" opacity="0.1682363749228144"/>
  <circle cx="1101.9983619094387" cy="155.2711743039124" r="5.235493710481668" fill="#CFAE58" opacity="0.158472005912547"/>
  <circle cx="150.3728699678999" cy="226.27257579468832" r="5.314724772717783" fill="#CFAE58" opacity="0.2357983006221755"/>
  <circle cx="875.1475147917288" cy="244.27705443690775" r="4.882679644128168" fill="#CFAE58" opacity="0.1781408018235734"/>

  <!-- Border with glow -->
  <rect x="40" y="40" width="1120" height="550" fill="none" stroke="url(#goldGradient)" stroke-width="3" rx="12" filter="url(#softGlow)"/>

  <!-- Icon circle with premium background -->
  <circle cx="150" cy="200" r="75" fill="#CFAE58" opacity="0.15" filter="url(#softGlow)"/>
  <circle cx="150" cy="200" r="70" fill="#CFAE58" opacity="0.25"/>
  <text x="150" y="235" font-size="90" text-anchor="middle" fill="#CFAE58" filter="url(#glow)">❓</text>

  <!-- Premium logo (crown) with enhanced styling -->
  <g transform="translate(100, 70)">
    <path d="M 30 20 L 40 35 L 35 35 Z M 50 15 L 60 35 L 45 35 Z M 65 20 L 75 35 L 70 35 Z M 30 35 L 75 35 L 73 45 L 32 45 Z"
          fill="url(#goldGradient)" filter="url(#glow)" stroke="#B89842" stroke-width="0.5"/>
    <circle cx="40" cy="25" r="3" fill="#4FD1C5" filter="url(#glow)"/>
    <circle cx="52" cy="20" r="4" fill="#4FD1C5" filter="url(#glow)"/>
    <circle cx="65" cy="25" r="3" fill="#4FD1C5" filter="url(#glow)"/>
  </g>

  <!-- Title with shadow -->
  <text x="280" y="180" font-family="Georgia, serif" font-size="72" font-weight="bold"
        fill="url(#goldGradient)" filter="url(#shadow)">FAQ</text>

  <!-- Subtitle with subtle glow -->
  <text x="280" y="230" font-family="Arial, sans-serif" font-size="36"
        fill="#D6DEE6" opacity="0.95" filter="url(#softGlow)">Frequently Asked Questions</text>

  <!-- Brand name with letter spacing -->
  <text x="280" y="300" font-family="Georgia, serif" font-size="32" font-weight="bold"
        fill="#CFAE58" letter-spacing="4" filter="url(#glow)">ROYAL KETA</text>

  <!-- Russian tagline -->
  <text x="280" y="340" font-family="Arial, sans-serif" font-size="22" font-style="italic"
        fill="#8B95A1" opacity="0.8">От икринки к королевской</text>

  <!-- Location -->
  <text x="280" y="380" font-family="Arial, sans-serif" font-size="20"
        fill="#8B95A1" opacity="0.7">Невельский район, Сахалин</text>

  <!-- Website with glow -->
  <text x="100" y="570" font-family="Arial, sans-serif" font-size="30" font-weight="bold"
        fill="#4FD1C5" filter="url(#glow)">royalketa.com</text>

  <!-- Enhanced decorative salmon silhouette -->
  <g transform="translate(950, 480)" opacity="0.2" filter="url(#softGlow)">
    <ellipse cx="0" cy="0" rx="90" ry="35" fill="#CFAE58"/>
    <path d="M 90 0 L 120 -18 L 130 0 L 120 18 Z" fill="#CFAE58"/>
    <path d="M -25 -35 L 0 -45 L 25 -35 Z" fill="#CFAE58"/>
    <ellipse cx="-50" cy="0" rx="15" ry="12" fill="#0B0F14"/>
  </g>

  <!-- Additional decorative caviar clusters -->
  <g opacity="0.2">
    <circle cx="1050" cy="120" r="6" fill="#CFAE58"/>
    <circle cx="1065" cy="115" r="5" fill="#CFAE58"/>
    <circle cx="1058" cy="130" r="4" fill="#CFAE58"/>
    <circle cx="150" cy="500" r="5" fill="#4FD1C5"/>
    <circle cx="165" cy="508" r="4" fill="#4FD1C5"/>
    <circle cx="140" cy="512" r="5" fill="#4FD1C5"/>
  </g>
</svg>