<svg width="1200" height="630" xmlns="http://www.w3.org/2000/svg">
  <defs>
    <linearGradient id="bgGradient" x1="0%" y1="0%" x2="100%" y2="100%">
      <stop offset="0%" style="stop-color:#0B0F14;stop-opacity:1" />
      <stop offset="50%" style="stop-color:#0F1619;stop-opacity:1" />
      <stop offset="100%" style="stop-color:#0F1922;stop-opacity:1" />
    </linearGradient>
    <linearGradient id="goldGradient" x1="0%" y1="0%" x2="100%" y2="0%">
      <stop offset="0%" style="stop-color:#E5D596;stop-opacity:1" />
      <stop offset="50%" style="stop-color:#CFAE58;stop-opacity:1" />
      <stop offset="100%" style="stop-color:#B89842;stop-opacity:1" />
    </linearGradient>
    <radialGradient id="oceanGradient" cx="50%" cy="50%" r="50%">
      <stop offset="0%" style="stop-color:#4FD1C5;stop-opacity:0.3" />
      <stop offset="100%" style="stop-color:#1E90A0;stop-opacity:0.05" />
    </radialGradient>
    <filter id="glow">
      <feGaussianBlur stdDeviation="5" result="coloredBlur"/>
      <feMerge>
        <feMergeNode in="coloredBlur"/>
        <feMergeNode in="SourceGraphic"/>
      </feMerge>
    </filter>
    <filter id="softGlow">
      <feGaussianBlur stdDeviation="8" result="coloredBlur"/>
      <feMerge>
        <feMergeNode in="coloredBlur"/>
        <feMergeNode in="SourceGraphic"/>
      </feMerge>
    </filter>
    <filter id="shadow">
      <feDropShadow dx="0" dy="4" stdDeviation="8" flood-color="#000000" flood-opacity="0.5"/>
    </filter>
  </defs>

  <!-- Background -->
  <rect width="1200" height="630" fill="url(#bgGradient)"/>

  <!-- Decorative ocean gradients -->
  <ellipse cx="1000" cy="150" rx="300" ry="200" fill="url(#oceanGradient)" opacity="0.4"/>
  <ellipse cx="200" cy="530" rx="250" ry="180" fill="url(#oceanGradient)" opacity="0.3"/>

  <!-- Wave patterns -->
  <path d="M 0 400 Q 300 350 600 400 T 1200 400 L 1200 630 L 0 630 Z" fill="#1E90A0" opacity="0.08"/>
  <path d="M 0 450 Q 250 420 500 450 T 1000 450 T 1200 450 L 1200 630 L 0 630 Z" fill="#4FD1C5" opacity="0.05"/>

  <!-- Caviar roe particles -->
  <circle cx="1115.3136650658435" cy="205.71959966900832" r="2.5671027195483305" fill="#CFAE58" opacity="0.21007438535292955"/>
  <circle cx="707.275205176211" cy="114.15541747598971" r="3.101803299054769" fill="#CFAE58" opacity="0.1931481652497984"/>
  <circle cx="869.7143663174999" cy="505.2174017279067" r="5.0789717171325535" fill="#CFAE58" opacity="0.2266108300765275"/>
  <circle cx="242.9181837237433" cy="360.4289960249566" r="4.4608327091650075" fill="#CFAE58" opacity="0.1689465846839182"/>
  <circle cx="636.5730906437772" cy="425.918404449056" r="4.5563781434071355" fill="#CFAE58" opacity="0.18059674252416663"/>
  <circle cx="1117.203249923853" cy="298.11853959779376" r="2.667791243239077" fill="#CFAE58" opacity="0.1105656550444806"/>
  <circle cx="911.7502180143473" cy="249.17207805750476" r="3.3749146168066915" fill="#CFAE58" opacity="0.11087428556248842"/>
  <circle cx="2.2591023011235833" cy="478.7896159945809" r="3.371865073640188" fill="#CFAE58" opacity="0.22282130603267308"/>
  <circle cx="1067.32483835306" cy="588.2744519967396" r="4.770034666998311" fill="#CFAE58" opacity="0.19099953358886052"/>
  <circle cx="666.1895715239319" cy="129.5938889515928" r="4.474891254351634" fill="#CFAE58" opacity="0.17579708403687253"/>
  <circle cx="112.65879079108166" cy="535.0009820427484" r="5.97628128358407" fill="#CFAE58" opacity="0.11118188267893366"/>
  <circle cx="805.449668351845" cy="88.94324494718876" r="3.7819275818424023" fill="#CFAE58" opacity="0.11409749934395348"/>
  <circle cx="1159.3548223267817" cy="372.23072595200813" r="5.205537641791998" fill="#CFAE58" opacity="0.10520313362564483"/>
  <circle cx="414.3892215364769" cy="73.71557004312852" r="2.2341348145807265" fill="#CFAE58" opacity="0.24891883599483114"/>
  <circle cx="504.6361838381826" cy="422.2324708412863" r="3.892493592893687" fill="#CFAE58" opacity="0.21746847221842852"/>
  <circle cx="827.6315699820749" cy="29.584381316078737" r="4.538773594316028" fill="#CFAE58" opacity="0.172023191995864"/>
  <circle cx="697.6779410297696" cy="278.8736524976844" r="3.216081932793206" fill="#CFAE58" opacity="0.21468358630653883"/>
  <circle cx="1007.8271411914707" cy="395.90059446621336" r="2.3134924840342945" fill="#CFAE58" opacity="0.1785090659650141"/>
  <circle cx="890.3688404279795" cy="249.00097927584747" r="3.3213689556381834" fill="#CFAE58" opacity="0.2205689606590626"/>
  <circle cx="513.5793623139326" cy="303.90451661789746" r="5.716502180720873" fill="#CFAE58" opacity="0.112701431129606"/>
  <circle cx="426.52196430380116" cy="184.68116411214012" r="5.821237991515784" fill="#CFAE58" opacity="0.1488371418462704"/>
  <circle cx="417.27390223502476" cy="368.0479399351479" r="4.29689329777307" fill="#CFAE58" opacity="0.2196331165708963"/>
  <circle cx="380.6306441068093" cy="367.1484005623677" r="2.7213515828606765" fill="#CFAE58" opacity="0.1426651648100307"/>
  <circle cx="476.079942704314" cy="603.769314502435" r="5.122234983529701" fill="#CFAE58" opacity="0.1515943720842366"/>
  <circle cx="275.46624826614544" cy="378.25761305125803" r="5.4626295546453845" fill="#CFAE58" opacity="0.14159632344879877"/>
  <circle cx="540.7750950568175" cy="128.78405628394452" r="5.565599268736693" fill="#CFAE58" opacity="0.24368340038006728"/>
  <circle cx="735.6840926997846" cy="336.89706256056724" r="4.03661326738182" fill="#CFAE58" opacity="0.1165647522755347"/>
  <circle cx="349.5687718542538" cy="204.13419606716" r="4.2248342447245095" fill="#CFAE58" opacity="0.14867124963789527"/>
  <circle cx="711.4242971197145" cy="432.8013424197621" r="3.669749414127317" fill="#CFAE58" opacity="0.17900969263849448"/>
  <circle cx="800.2783693562651" cy="197.44656157219376" r="2.035234914653268" fill="#CFAE58" opacity="0.15550111025300398"/>

  <!-- Border with glow -->
  <rect x="40" y="40" width="1120" height="550" fill="none" stroke="url(#goldGradient)" stroke-width="3" rx="12" filter="url(#softGlow)"/>

  <!-- Icon circle with premium background -->
  <circle cx="150" cy="200" r="75" fill="#CFAE58" opacity="0.15" filter="url(#softGlow)"/>
  <circle cx="150" cy="200" r="70" fill="#CFAE58" opacity="0.25"/>
  <text x="150" y="235" font-size="90" text-anchor="middle" fill="#CFAE58" filter="url(#glow)">❓</text>

  <!-- Premium logo (crown) with enhanced styling -->
  <g transform="translate(100, 70)">
    <path d="M 30 20 L 40 35 L 35 35 Z M 50 15 L 60 35 L 45 35 Z M 65 20 L 75 35 L 70 35 Z M 30 35 L 75 35 L 73 45 L 32 45 Z"
          fill="url(#goldGradient)" filter="url(#glow)" stroke="#B89842" stroke-width="0.5"/>
    <circle cx="40" cy="25" r="3" fill="#4FD1C5" filter="url(#glow)"/>
    <circle cx="52" cy="20" r="4" fill="#4FD1C5" filter="url(#glow)"/>
    <circle cx="65" cy="25" r="3" fill="#4FD1C5" filter="url(#glow)"/>
  </g>

  <!-- Title with shadow -->
  <text x="280" y="180" font-family="Georgia, serif" font-size="72" font-weight="bold"
        fill="url(#goldGradient)" filter="url(#shadow)">FAQ</text>

  <!-- Subtitle with subtle glow -->
  <text x="280" y="230" font-family="Arial, sans-serif" font-size="36"
        fill="#D6DEE6" opacity="0.95" filter="url(#softGlow)">Frequently Asked Questions</text>

  <!-- Brand name with letter spacing -->
  <text x="280" y="300" font-family="Georgia, serif" font-size="32" font-weight="bold"
        fill="#CFAE58" letter-spacing="4" filter="url(#glow)">ROYAL KETA</text>

  <!-- Russian tagline -->
  <text x="280" y="340" font-family="Arial, sans-serif" font-size="22" font-style="italic"
        fill="#8B95A1" opacity="0.8">От икринки к королевской</text>

  <!-- Location -->
  <text x="280" y="380" font-family="Arial, sans-serif" font-size="20"
        fill="#8B95A1" opacity="0.7">Невельский район, Сахалин</text>

  <!-- Website with glow -->
  <text x="100" y="570" font-family="Arial, sans-serif" font-size="30" font-weight="bold"
        fill="#4FD1C5" filter="url(#glow)">royalketa.com</text>

  <!-- Enhanced decorative salmon silhouette -->
  <g transform="translate(950, 480)" opacity="0.2" filter="url(#softGlow)">
    <ellipse cx="0" cy="0" rx="90" ry="35" fill="#CFAE58"/>
    <path d="M 90 0 L 120 -18 L 130 0 L 120 18 Z" fill="#CFAE58"/>
    <path d="M -25 -35 L 0 -45 L 25 -35 Z" fill="#CFAE58"/>
    <ellipse cx="-50" cy="0" rx="15" ry="12" fill="#0B0F14"/>
  </g>

  <!-- Additional decorative caviar clusters -->
  <g opacity="0.2">
    <circle cx="1050" cy="120" r="6" fill="#CFAE58"/>
    <circle cx="1065" cy="115" r="5" fill="#CFAE58"/>
    <circle cx="1058" cy="130" r="4" fill="#CFAE58"/>
    <circle cx="150" cy="500" r="5" fill="#4FD1C5"/>
    <circle cx="165" cy="508" r="4" fill="#4FD1C5"/>
    <circle cx="140" cy="512" r="5" fill="#4FD1C5"/>
  </g>
</svg>