<svg width="1200" height="630" xmlns="http://www.w3.org/2000/svg">
  <defs>
    <linearGradient id="bgGradient" x1="0%" y1="0%" x2="100%" y2="100%">
      <stop offset="0%" style="stop-color:#0B0F14;stop-opacity:1" />
      <stop offset="50%" style="stop-color:#0F1619;stop-opacity:1" />
      <stop offset="100%" style="stop-color:#0F1922;stop-opacity:1" />
    </linearGradient>
    <linearGradient id="goldGradient" x1="0%" y1="0%" x2="100%" y2="0%">
      <stop offset="0%" style="stop-color:#E5D596;stop-opacity:1" />
      <stop offset="50%" style="stop-color:#CFAE58;stop-opacity:1" />
      <stop offset="100%" style="stop-color:#B89842;stop-opacity:1" />
    </linearGradient>
    <radialGradient id="oceanGradient" cx="50%" cy="50%" r="50%">
      <stop offset="0%" style="stop-color:#4FD1C5;stop-opacity:0.3" />
      <stop offset="100%" style="stop-color:#1E90A0;stop-opacity:0.05" />
    </radialGradient>
    <filter id="glow">
      <feGaussianBlur stdDeviation="5" result="coloredBlur"/>
      <feMerge>
        <feMergeNode in="coloredBlur"/>
        <feMergeNode in="SourceGraphic"/>
      </feMerge>
    </filter>
    <filter id="softGlow">
      <feGaussianBlur stdDeviation="8" result="coloredBlur"/>
      <feMerge>
        <feMergeNode in="coloredBlur"/>
        <feMergeNode in="SourceGraphic"/>
      </feMerge>
    </filter>
    <filter id="shadow">
      <feDropShadow dx="0" dy="4" stdDeviation="8" flood-color="#000000" flood-opacity="0.5"/>
    </filter>
  </defs>

  <!-- Background -->
  <rect width="1200" height="630" fill="url(#bgGradient)"/>

  <!-- Decorative ocean gradients -->
  <ellipse cx="1000" cy="150" rx="300" ry="200" fill="url(#oceanGradient)" opacity="0.4"/>
  <ellipse cx="200" cy="530" rx="250" ry="180" fill="url(#oceanGradient)" opacity="0.3"/>

  <!-- Wave patterns -->
  <path d="M 0 400 Q 300 350 600 400 T 1200 400 L 1200 630 L 0 630 Z" fill="#1E90A0" opacity="0.08"/>
  <path d="M 0 450 Q 250 420 500 450 T 1000 450 T 1200 450 L 1200 630 L 0 630 Z" fill="#4FD1C5" opacity="0.05"/>

  <!-- Caviar roe particles -->
  <circle cx="44.36897563867967" cy="51.39816298262101" r="3.760665143339109" fill="#CFAE58" opacity="0.18424734330146952"/>
  <circle cx="736.2714363948357" cy="76.84279253244269" r="3.668241457894058" fill="#CFAE58" opacity="0.1707647213633015"/>
  <circle cx="842.530433032415" cy="217.64609142773406" r="4.284126031930743" fill="#CFAE58" opacity="0.1491173374616974"/>
  <circle cx="532.3098691849078" cy="522.9145187982826" r="5.499135721495369" fill="#CFAE58" opacity="0.11911696497206142"/>
  <circle cx="524.6614788116698" cy="44.697345475174444" r="5.11618648966794" fill="#CFAE58" opacity="0.17374668702964874"/>
  <circle cx="1071.7946101458367" cy="353.6411864853475" r="2.244629093895865" fill="#CFAE58" opacity="0.2486599235104422"/>
  <circle cx="1100.0354428012645" cy="98.89256066693598" r="4.581947996725369" fill="#CFAE58" opacity="0.22966650093665636"/>
  <circle cx="330.2809585039321" cy="458.60594179235386" r="2.5312365848853267" fill="#CFAE58" opacity="0.22624332249297585"/>
  <circle cx="1040.0977377256254" cy="442.72479848396966" r="4.972941309688157" fill="#CFAE58" opacity="0.1802842471271679"/>
  <circle cx="22.717123253016336" cy="520.8635178225164" r="5.331161503316574" fill="#CFAE58" opacity="0.11492672785662773"/>
  <circle cx="999.7937819035726" cy="142.24260513580222" r="2.789603170112291" fill="#CFAE58" opacity="0.18762613451921561"/>
  <circle cx="618.4145656851064" cy="392.51318781873755" r="3.2968455821788796" fill="#CFAE58" opacity="0.10404294361838011"/>
  <circle cx="850.5642243266102" cy="146.79141702511637" r="3.410658278694032" fill="#CFAE58" opacity="0.18493481174371068"/>
  <circle cx="1145.609700036618" cy="427.9070574909765" r="4.8157629625783" fill="#CFAE58" opacity="0.17778028157198203"/>
  <circle cx="1178.1906790054484" cy="137.52548184737307" r="4.988620497280172" fill="#CFAE58" opacity="0.1334458177234496"/>
  <circle cx="905.3142470029698" cy="491.7583116587456" r="4.919711463487566" fill="#CFAE58" opacity="0.1159120333024426"/>
  <circle cx="1120.5009425026715" cy="215.43819818007512" r="3.1214570985534476" fill="#CFAE58" opacity="0.121618840797129"/>
  <circle cx="446.4330532302919" cy="441.4568583945994" r="5.184590890186303" fill="#CFAE58" opacity="0.1885252345112069"/>
  <circle cx="479.39362421355185" cy="556.8168076596811" r="5.1320277684515325" fill="#CFAE58" opacity="0.22266544667622692"/>
  <circle cx="806.1847255582392" cy="74.32908385855063" r="5.8794976724428185" fill="#CFAE58" opacity="0.15984332862031073"/>
  <circle cx="1129.2602679706397" cy="483.53503984421945" r="5.024153212266524" fill="#CFAE58" opacity="0.15521454856238093"/>
  <circle cx="389.9061869564238" cy="565.7712368100325" r="2.2166403440475158" fill="#CFAE58" opacity="0.1641570363149651"/>
  <circle cx="464.40081802762325" cy="55.78401100247631" r="4.797576320734418" fill="#CFAE58" opacity="0.17374007425761095"/>
  <circle cx="810.0891184131984" cy="205.4587293914947" r="5.303068721261364" fill="#CFAE58" opacity="0.17285891745160237"/>
  <circle cx="568.4579140349075" cy="274.5476951912768" r="5.3793930086357475" fill="#CFAE58" opacity="0.23592761719152358"/>
  <circle cx="281.8144818592104" cy="41.496086135502935" r="2.0226059810959116" fill="#CFAE58" opacity="0.16438949380253676"/>
  <circle cx="505.8086913694095" cy="440.98536323487036" r="5.155510457507404" fill="#CFAE58" opacity="0.24709598136503788"/>
  <circle cx="75.97863234785329" cy="387.5791407832078" r="5.111385960916457" fill="#CFAE58" opacity="0.15159279124307692"/>
  <circle cx="224.42832335933448" cy="474.9540818369123" r="3.7152068668077245" fill="#CFAE58" opacity="0.24564075472595262"/>
  <circle cx="515.7577488409693" cy="250.74720728952187" r="3.2467471438693973" fill="#CFAE58" opacity="0.1524446866256389"/>

  <!-- Border with glow -->
  <rect x="40" y="40" width="1120" height="550" fill="none" stroke="url(#goldGradient)" stroke-width="3" rx="12" filter="url(#softGlow)"/>

  <!-- Icon circle with premium background -->
  <circle cx="150" cy="200" r="75" fill="#CFAE58" opacity="0.15" filter="url(#softGlow)"/>
  <circle cx="150" cy="200" r="70" fill="#CFAE58" opacity="0.25"/>
  <text x="150" y="235" font-size="90" text-anchor="middle" fill="#CFAE58" filter="url(#glow)">❓</text>

  <!-- Premium logo (crown) with enhanced styling -->
  <g transform="translate(100, 70)">
    <path d="M 30 20 L 40 35 L 35 35 Z M 50 15 L 60 35 L 45 35 Z M 65 20 L 75 35 L 70 35 Z M 30 35 L 75 35 L 73 45 L 32 45 Z"
          fill="url(#goldGradient)" filter="url(#glow)" stroke="#B89842" stroke-width="0.5"/>
    <circle cx="40" cy="25" r="3" fill="#4FD1C5" filter="url(#glow)"/>
    <circle cx="52" cy="20" r="4" fill="#4FD1C5" filter="url(#glow)"/>
    <circle cx="65" cy="25" r="3" fill="#4FD1C5" filter="url(#glow)"/>
  </g>

  <!-- Title with shadow -->
  <text x="280" y="180" font-family="Georgia, serif" font-size="72" font-weight="bold"
        fill="url(#goldGradient)" filter="url(#shadow)">FAQ</text>

  <!-- Subtitle with subtle glow -->
  <text x="280" y="230" font-family="Arial, sans-serif" font-size="36"
        fill="#D6DEE6" opacity="0.95" filter="url(#softGlow)">Frequently Asked Questions</text>

  <!-- Brand name with letter spacing -->
  <text x="280" y="300" font-family="Georgia, serif" font-size="32" font-weight="bold"
        fill="#CFAE58" letter-spacing="4" filter="url(#glow)">ROYAL KETA</text>

  <!-- Russian tagline -->
  <text x="280" y="340" font-family="Arial, sans-serif" font-size="22" font-style="italic"
        fill="#8B95A1" opacity="0.8">От икринки к королевской</text>

  <!-- Location -->
  <text x="280" y="380" font-family="Arial, sans-serif" font-size="20"
        fill="#8B95A1" opacity="0.7">Невельский район, Сахалин</text>

  <!-- Website with glow -->
  <text x="100" y="570" font-family="Arial, sans-serif" font-size="30" font-weight="bold"
        fill="#4FD1C5" filter="url(#glow)">royalketa.com</text>

  <!-- Enhanced decorative salmon silhouette -->
  <g transform="translate(950, 480)" opacity="0.2" filter="url(#softGlow)">
    <ellipse cx="0" cy="0" rx="90" ry="35" fill="#CFAE58"/>
    <path d="M 90 0 L 120 -18 L 130 0 L 120 18 Z" fill="#CFAE58"/>
    <path d="M -25 -35 L 0 -45 L 25 -35 Z" fill="#CFAE58"/>
    <ellipse cx="-50" cy="0" rx="15" ry="12" fill="#0B0F14"/>
  </g>

  <!-- Additional decorative caviar clusters -->
  <g opacity="0.2">
    <circle cx="1050" cy="120" r="6" fill="#CFAE58"/>
    <circle cx="1065" cy="115" r="5" fill="#CFAE58"/>
    <circle cx="1058" cy="130" r="4" fill="#CFAE58"/>
    <circle cx="150" cy="500" r="5" fill="#4FD1C5"/>
    <circle cx="165" cy="508" r="4" fill="#4FD1C5"/>
    <circle cx="140" cy="512" r="5" fill="#4FD1C5"/>
  </g>
</svg>