<svg width="1200" height="630" xmlns="http://www.w3.org/2000/svg">
  <defs>
    <linearGradient id="bgGradient" x1="0%" y1="0%" x2="100%" y2="100%">
      <stop offset="0%" style="stop-color:#0B0F14;stop-opacity:1" />
      <stop offset="50%" style="stop-color:#0F1619;stop-opacity:1" />
      <stop offset="100%" style="stop-color:#0F1922;stop-opacity:1" />
    </linearGradient>
    <linearGradient id="goldGradient" x1="0%" y1="0%" x2="100%" y2="0%">
      <stop offset="0%" style="stop-color:#E5D596;stop-opacity:1" />
      <stop offset="50%" style="stop-color:#CFAE58;stop-opacity:1" />
      <stop offset="100%" style="stop-color:#B89842;stop-opacity:1" />
    </linearGradient>
    <radialGradient id="oceanGradient" cx="50%" cy="50%" r="50%">
      <stop offset="0%" style="stop-color:#4FD1C5;stop-opacity:0.3" />
      <stop offset="100%" style="stop-color:#1E90A0;stop-opacity:0.05" />
    </radialGradient>
    <filter id="glow">
      <feGaussianBlur stdDeviation="5" result="coloredBlur"/>
      <feMerge>
        <feMergeNode in="coloredBlur"/>
        <feMergeNode in="SourceGraphic"/>
      </feMerge>
    </filter>
    <filter id="softGlow">
      <feGaussianBlur stdDeviation="8" result="coloredBlur"/>
      <feMerge>
        <feMergeNode in="coloredBlur"/>
        <feMergeNode in="SourceGraphic"/>
      </feMerge>
    </filter>
    <filter id="shadow">
      <feDropShadow dx="0" dy="4" stdDeviation="8" flood-color="#000000" flood-opacity="0.5"/>
    </filter>
  </defs>

  <!-- Background -->
  <rect width="1200" height="630" fill="url(#bgGradient)"/>

  <!-- Decorative ocean gradients -->
  <ellipse cx="1000" cy="150" rx="300" ry="200" fill="url(#oceanGradient)" opacity="0.4"/>
  <ellipse cx="200" cy="530" rx="250" ry="180" fill="url(#oceanGradient)" opacity="0.3"/>

  <!-- Wave patterns -->
  <path d="M 0 400 Q 300 350 600 400 T 1200 400 L 1200 630 L 0 630 Z" fill="#1E90A0" opacity="0.08"/>
  <path d="M 0 450 Q 250 420 500 450 T 1000 450 T 1200 450 L 1200 630 L 0 630 Z" fill="#4FD1C5" opacity="0.05"/>

  <!-- Caviar roe particles -->
  <circle cx="560.3552384966499" cy="616.65649974032" r="5.927531462671018" fill="#CFAE58" opacity="0.1307756163147094"/>
  <circle cx="712.079478913408" cy="431.53855205148153" r="5.294473607873757" fill="#CFAE58" opacity="0.18680919252671258"/>
  <circle cx="319.9769943500425" cy="43.75507900380856" r="2.6170446630067956" fill="#CFAE58" opacity="0.1359318920348266"/>
  <circle cx="121.1414359351004" cy="256.92218294353125" r="4.904824630073671" fill="#CFAE58" opacity="0.24290496947355852"/>
  <circle cx="1146.8925110920984" cy="530.1815882312412" r="5.309755295579205" fill="#CFAE58" opacity="0.13613760273864095"/>
  <circle cx="705.4971417373819" cy="570.2383993286103" r="5.1772793427697295" fill="#CFAE58" opacity="0.1550810298136518"/>
  <circle cx="597.7250457849066" cy="498.82582173140617" r="3.5223049304651965" fill="#CFAE58" opacity="0.21478734148357503"/>
  <circle cx="621.1308214998688" cy="530.3868230028137" r="3.0738478149173987" fill="#CFAE58" opacity="0.14647495498133042"/>
  <circle cx="811.838529362108" cy="315.6790997439921" r="4.59873463800011" fill="#CFAE58" opacity="0.17213081175362632"/>
  <circle cx="538.1467846360546" cy="63.71311186295179" r="5.509005330019476" fill="#CFAE58" opacity="0.11124546375968732"/>
  <circle cx="11.126367369532941" cy="197.614246641688" r="5.946851101779405" fill="#CFAE58" opacity="0.2471856357464011"/>
  <circle cx="94.00907660626304" cy="616.8147496156774" r="3.0906689975505" fill="#CFAE58" opacity="0.10505454631908333"/>
  <circle cx="821.7136692986567" cy="609.0302346131623" r="2.1559511754689957" fill="#CFAE58" opacity="0.23684660953353012"/>
  <circle cx="423.769673369969" cy="15.909329287788424" r="2.4775844859036784" fill="#CFAE58" opacity="0.21852647345639253"/>
  <circle cx="1065.4667211232186" cy="34.467556001712424" r="2.9395045366659684" fill="#CFAE58" opacity="0.1482800193318065"/>
  <circle cx="639.1766880377213" cy="151.90888521050945" r="3.843320250695782" fill="#CFAE58" opacity="0.10661908856382882"/>
  <circle cx="1127.3722966376106" cy="380.6766736369726" r="3.16561609629402" fill="#CFAE58" opacity="0.17024735192243245"/>
  <circle cx="12.92055830255503" cy="404.93069958217336" r="2.300306181327577" fill="#CFAE58" opacity="0.1093542168106741"/>
  <circle cx="122.71649667326483" cy="245.11047946154915" r="5.67614821148516" fill="#CFAE58" opacity="0.1438400046472601"/>
  <circle cx="768.4202684896759" cy="360.9007864215755" r="2.110643011284768" fill="#CFAE58" opacity="0.1479514199582238"/>
  <circle cx="479.12609928471517" cy="291.4479281087392" r="5.250997901508564" fill="#CFAE58" opacity="0.24788168702203642"/>
  <circle cx="1184.9209521306866" cy="623.0458681477113" r="5.354996605519296" fill="#CFAE58" opacity="0.15028103875944154"/>
  <circle cx="355.3953815571223" cy="608.905685477885" r="4.7891836431615005" fill="#CFAE58" opacity="0.13827462229474866"/>
  <circle cx="2.4330068419604167" cy="80.85490808854894" r="3.382321581548636" fill="#CFAE58" opacity="0.1452840604282309"/>
  <circle cx="625.2929540458626" cy="104.28439580446687" r="5.12233086082778" fill="#CFAE58" opacity="0.10240872942315225"/>
  <circle cx="899.238178944797" cy="421.1821581938365" r="2.5895691835924852" fill="#CFAE58" opacity="0.21023956295521776"/>
  <circle cx="821.9158478726501" cy="286.4043991155661" r="3.3313815854776925" fill="#CFAE58" opacity="0.13553324550903056"/>
  <circle cx="346.52110961642643" cy="6.893558994803319" r="3.157070162101355" fill="#CFAE58" opacity="0.16928394876853853"/>
  <circle cx="541.8192831686516" cy="436.2555235926921" r="3.2952030007132738" fill="#CFAE58" opacity="0.1435478746390134"/>
  <circle cx="419.34903958045356" cy="158.55370342336707" r="4.785691103573297" fill="#CFAE58" opacity="0.23632960505014072"/>

  <!-- Border with glow -->
  <rect x="40" y="40" width="1120" height="550" fill="none" stroke="url(#goldGradient)" stroke-width="3" rx="12" filter="url(#softGlow)"/>

  <!-- Icon circle with premium background -->
  <circle cx="150" cy="200" r="75" fill="#CFAE58" opacity="0.15" filter="url(#softGlow)"/>
  <circle cx="150" cy="200" r="70" fill="#CFAE58" opacity="0.25"/>
  <text x="150" y="235" font-size="90" text-anchor="middle" fill="#CFAE58" filter="url(#glow)">❓</text>

  <!-- Premium logo (crown) with enhanced styling -->
  <g transform="translate(100, 70)">
    <path d="M 30 20 L 40 35 L 35 35 Z M 50 15 L 60 35 L 45 35 Z M 65 20 L 75 35 L 70 35 Z M 30 35 L 75 35 L 73 45 L 32 45 Z"
          fill="url(#goldGradient)" filter="url(#glow)" stroke="#B89842" stroke-width="0.5"/>
    <circle cx="40" cy="25" r="3" fill="#4FD1C5" filter="url(#glow)"/>
    <circle cx="52" cy="20" r="4" fill="#4FD1C5" filter="url(#glow)"/>
    <circle cx="65" cy="25" r="3" fill="#4FD1C5" filter="url(#glow)"/>
  </g>

  <!-- Title with shadow -->
  <text x="280" y="180" font-family="Georgia, serif" font-size="72" font-weight="bold"
        fill="url(#goldGradient)" filter="url(#shadow)">FAQ</text>

  <!-- Subtitle with subtle glow -->
  <text x="280" y="230" font-family="Arial, sans-serif" font-size="36"
        fill="#D6DEE6" opacity="0.95" filter="url(#softGlow)">Frequently Asked Questions</text>

  <!-- Brand name with letter spacing -->
  <text x="280" y="300" font-family="Georgia, serif" font-size="32" font-weight="bold"
        fill="#CFAE58" letter-spacing="4" filter="url(#glow)">ROYAL KETA</text>

  <!-- Russian tagline -->
  <text x="280" y="340" font-family="Arial, sans-serif" font-size="22" font-style="italic"
        fill="#8B95A1" opacity="0.8">От икринки к королевской</text>

  <!-- Location -->
  <text x="280" y="380" font-family="Arial, sans-serif" font-size="20"
        fill="#8B95A1" opacity="0.7">Невельский район, Сахалин</text>

  <!-- Website with glow -->
  <text x="100" y="570" font-family="Arial, sans-serif" font-size="30" font-weight="bold"
        fill="#4FD1C5" filter="url(#glow)">royalketa.com</text>

  <!-- Enhanced decorative salmon silhouette -->
  <g transform="translate(950, 480)" opacity="0.2" filter="url(#softGlow)">
    <ellipse cx="0" cy="0" rx="90" ry="35" fill="#CFAE58"/>
    <path d="M 90 0 L 120 -18 L 130 0 L 120 18 Z" fill="#CFAE58"/>
    <path d="M -25 -35 L 0 -45 L 25 -35 Z" fill="#CFAE58"/>
    <ellipse cx="-50" cy="0" rx="15" ry="12" fill="#0B0F14"/>
  </g>

  <!-- Additional decorative caviar clusters -->
  <g opacity="0.2">
    <circle cx="1050" cy="120" r="6" fill="#CFAE58"/>
    <circle cx="1065" cy="115" r="5" fill="#CFAE58"/>
    <circle cx="1058" cy="130" r="4" fill="#CFAE58"/>
    <circle cx="150" cy="500" r="5" fill="#4FD1C5"/>
    <circle cx="165" cy="508" r="4" fill="#4FD1C5"/>
    <circle cx="140" cy="512" r="5" fill="#4FD1C5"/>
  </g>
</svg>