<svg width="1200" height="630" xmlns="http://www.w3.org/2000/svg">
  <defs>
    <linearGradient id="bgGradient" x1="0%" y1="0%" x2="100%" y2="100%">
      <stop offset="0%" style="stop-color:#0B0F14;stop-opacity:1" />
      <stop offset="50%" style="stop-color:#0F1619;stop-opacity:1" />
      <stop offset="100%" style="stop-color:#0F1922;stop-opacity:1" />
    </linearGradient>
    <linearGradient id="goldGradient" x1="0%" y1="0%" x2="100%" y2="0%">
      <stop offset="0%" style="stop-color:#E5D596;stop-opacity:1" />
      <stop offset="50%" style="stop-color:#CFAE58;stop-opacity:1" />
      <stop offset="100%" style="stop-color:#B89842;stop-opacity:1" />
    </linearGradient>
    <radialGradient id="oceanGradient" cx="50%" cy="50%" r="50%">
      <stop offset="0%" style="stop-color:#4FD1C5;stop-opacity:0.3" />
      <stop offset="100%" style="stop-color:#1E90A0;stop-opacity:0.05" />
    </radialGradient>
    <filter id="glow">
      <feGaussianBlur stdDeviation="5" result="coloredBlur"/>
      <feMerge>
        <feMergeNode in="coloredBlur"/>
        <feMergeNode in="SourceGraphic"/>
      </feMerge>
    </filter>
    <filter id="softGlow">
      <feGaussianBlur stdDeviation="8" result="coloredBlur"/>
      <feMerge>
        <feMergeNode in="coloredBlur"/>
        <feMergeNode in="SourceGraphic"/>
      </feMerge>
    </filter>
    <filter id="shadow">
      <feDropShadow dx="0" dy="4" stdDeviation="8" flood-color="#000000" flood-opacity="0.5"/>
    </filter>
  </defs>

  <!-- Background -->
  <rect width="1200" height="630" fill="url(#bgGradient)"/>

  <!-- Decorative ocean gradients -->
  <ellipse cx="1000" cy="150" rx="300" ry="200" fill="url(#oceanGradient)" opacity="0.4"/>
  <ellipse cx="200" cy="530" rx="250" ry="180" fill="url(#oceanGradient)" opacity="0.3"/>

  <!-- Wave patterns -->
  <path d="M 0 400 Q 300 350 600 400 T 1200 400 L 1200 630 L 0 630 Z" fill="#1E90A0" opacity="0.08"/>
  <path d="M 0 450 Q 250 420 500 450 T 1000 450 T 1200 450 L 1200 630 L 0 630 Z" fill="#4FD1C5" opacity="0.05"/>

  <!-- Caviar roe particles -->
  <circle cx="195.76080754777" cy="235.7461433577809" r="3.4914842424691765" fill="#CFAE58" opacity="0.199260109605678"/>
  <circle cx="1166.4728247348498" cy="158.56547520741526" r="4.4262567235980494" fill="#CFAE58" opacity="0.18326010107018664"/>
  <circle cx="1188.86654019506" cy="446.8602581719654" r="3.1557393111042993" fill="#CFAE58" opacity="0.13154525973659906"/>
  <circle cx="1154.9349603775731" cy="77.77096174431642" r="3.8465731736999773" fill="#CFAE58" opacity="0.17995482471904314"/>
  <circle cx="783.5725807311228" cy="546.5371291383032" r="3.23467217054615" fill="#CFAE58" opacity="0.10651121619536084"/>
  <circle cx="378.662550158755" cy="376.1056280001128" r="3.5459602678741025" fill="#CFAE58" opacity="0.2193907772589253"/>
  <circle cx="555.321961231051" cy="31.183768020013897" r="5.128822183023624" fill="#CFAE58" opacity="0.20555811119467715"/>
  <circle cx="647.8006784814705" cy="136.97338986003834" r="4.0362673993827585" fill="#CFAE58" opacity="0.1304545615342481"/>
  <circle cx="738.4682425099749" cy="372.3463643643248" r="3.872252697283033" fill="#CFAE58" opacity="0.23023487768538187"/>
  <circle cx="786.689337122002" cy="391.983972569235" r="4.241567000617431" fill="#CFAE58" opacity="0.1251146357655666"/>
  <circle cx="1043.2022782861782" cy="540.7894525489885" r="3.082444311045507" fill="#CFAE58" opacity="0.1679901167939623"/>
  <circle cx="88.13783722443125" cy="304.7420718099447" r="5.526015536302225" fill="#CFAE58" opacity="0.14306406064435273"/>
  <circle cx="604.9069638584281" cy="374.65049595474795" r="4.81373866858897" fill="#CFAE58" opacity="0.13323954487529324"/>
  <circle cx="468.84068138843105" cy="622.1768373003902" r="3.2998455984499433" fill="#CFAE58" opacity="0.10842007336214483"/>
  <circle cx="487.9746735844495" cy="369.65777179351096" r="5.320797522870036" fill="#CFAE58" opacity="0.20709531226586847"/>
  <circle cx="890.3144178994102" cy="617.4659472639993" r="2.8411295168487247" fill="#CFAE58" opacity="0.2039678840642648"/>
  <circle cx="990.4826178636437" cy="177.25337671375456" r="5.746149280195414" fill="#CFAE58" opacity="0.16311119434790022"/>
  <circle cx="652.7040567029072" cy="252.43576526612927" r="5.432660203639037" fill="#CFAE58" opacity="0.1561194637951253"/>
  <circle cx="1189.2056113059637" cy="10.42925426611451" r="2.3896850971393278" fill="#CFAE58" opacity="0.22046385081640624"/>
  <circle cx="750.7951438243199" cy="387.7543891729912" r="2.8585972996115143" fill="#CFAE58" opacity="0.1235839756691291"/>
  <circle cx="47.237360220176996" cy="244.91429467076637" r="5.517659441974655" fill="#CFAE58" opacity="0.14505483160626872"/>
  <circle cx="50.26669324646367" cy="555.9689238951149" r="5.266347516971901" fill="#CFAE58" opacity="0.19585980014914423"/>
  <circle cx="380.082054918601" cy="189.98063109811253" r="5.886643358692224" fill="#CFAE58" opacity="0.20887022104065062"/>
  <circle cx="319.4033175665251" cy="197.15270257707454" r="4.5218323270888785" fill="#CFAE58" opacity="0.23678794075096113"/>
  <circle cx="993.6884320806174" cy="478.51520571229764" r="3.4639650811189613" fill="#CFAE58" opacity="0.13062129026587974"/>
  <circle cx="508.8604004070065" cy="429.10509548093444" r="5.676673966674654" fill="#CFAE58" opacity="0.16997617239786617"/>
  <circle cx="1001.8720561240797" cy="332.6420370931648" r="4.062366398846622" fill="#CFAE58" opacity="0.1772742008243064"/>
  <circle cx="613.1404654049406" cy="132.89529750074388" r="3.23953246251031" fill="#CFAE58" opacity="0.1094156338791435"/>
  <circle cx="1197.661632731306" cy="595.8692208604159" r="3.4322201423982284" fill="#CFAE58" opacity="0.1621267157298992"/>
  <circle cx="412.6365298379926" cy="245.84804076579823" r="2.1707454641320956" fill="#CFAE58" opacity="0.2497806773522165"/>

  <!-- Border with glow -->
  <rect x="40" y="40" width="1120" height="550" fill="none" stroke="url(#goldGradient)" stroke-width="3" rx="12" filter="url(#softGlow)"/>

  <!-- Icon circle with premium background -->
  <circle cx="150" cy="200" r="75" fill="#CFAE58" opacity="0.15" filter="url(#softGlow)"/>
  <circle cx="150" cy="200" r="70" fill="#CFAE58" opacity="0.25"/>
  <text x="150" y="235" font-size="90" text-anchor="middle" fill="#CFAE58" filter="url(#glow)">❓</text>

  <!-- Premium logo (crown) with enhanced styling -->
  <g transform="translate(100, 70)">
    <path d="M 30 20 L 40 35 L 35 35 Z M 50 15 L 60 35 L 45 35 Z M 65 20 L 75 35 L 70 35 Z M 30 35 L 75 35 L 73 45 L 32 45 Z"
          fill="url(#goldGradient)" filter="url(#glow)" stroke="#B89842" stroke-width="0.5"/>
    <circle cx="40" cy="25" r="3" fill="#4FD1C5" filter="url(#glow)"/>
    <circle cx="52" cy="20" r="4" fill="#4FD1C5" filter="url(#glow)"/>
    <circle cx="65" cy="25" r="3" fill="#4FD1C5" filter="url(#glow)"/>
  </g>

  <!-- Title with shadow -->
  <text x="280" y="180" font-family="Georgia, serif" font-size="72" font-weight="bold"
        fill="url(#goldGradient)" filter="url(#shadow)">FAQ</text>

  <!-- Subtitle with subtle glow -->
  <text x="280" y="230" font-family="Arial, sans-serif" font-size="36"
        fill="#D6DEE6" opacity="0.95" filter="url(#softGlow)">Frequently Asked Questions</text>

  <!-- Brand name with letter spacing -->
  <text x="280" y="300" font-family="Georgia, serif" font-size="32" font-weight="bold"
        fill="#CFAE58" letter-spacing="4" filter="url(#glow)">ROYAL KETA</text>

  <!-- Russian tagline -->
  <text x="280" y="340" font-family="Arial, sans-serif" font-size="22" font-style="italic"
        fill="#8B95A1" opacity="0.8">От икринки к королевской</text>

  <!-- Location -->
  <text x="280" y="380" font-family="Arial, sans-serif" font-size="20"
        fill="#8B95A1" opacity="0.7">Невельский район, Сахалин</text>

  <!-- Website with glow -->
  <text x="100" y="570" font-family="Arial, sans-serif" font-size="30" font-weight="bold"
        fill="#4FD1C5" filter="url(#glow)">royalketa.com</text>

  <!-- Enhanced decorative salmon silhouette -->
  <g transform="translate(950, 480)" opacity="0.2" filter="url(#softGlow)">
    <ellipse cx="0" cy="0" rx="90" ry="35" fill="#CFAE58"/>
    <path d="M 90 0 L 120 -18 L 130 0 L 120 18 Z" fill="#CFAE58"/>
    <path d="M -25 -35 L 0 -45 L 25 -35 Z" fill="#CFAE58"/>
    <ellipse cx="-50" cy="0" rx="15" ry="12" fill="#0B0F14"/>
  </g>

  <!-- Additional decorative caviar clusters -->
  <g opacity="0.2">
    <circle cx="1050" cy="120" r="6" fill="#CFAE58"/>
    <circle cx="1065" cy="115" r="5" fill="#CFAE58"/>
    <circle cx="1058" cy="130" r="4" fill="#CFAE58"/>
    <circle cx="150" cy="500" r="5" fill="#4FD1C5"/>
    <circle cx="165" cy="508" r="4" fill="#4FD1C5"/>
    <circle cx="140" cy="512" r="5" fill="#4FD1C5"/>
  </g>
</svg>