<svg width="1200" height="630" xmlns="http://www.w3.org/2000/svg">
  <defs>
    <linearGradient id="bgGradient" x1="0%" y1="0%" x2="100%" y2="100%">
      <stop offset="0%" style="stop-color:#0B0F14;stop-opacity:1" />
      <stop offset="50%" style="stop-color:#0F1619;stop-opacity:1" />
      <stop offset="100%" style="stop-color:#0F1922;stop-opacity:1" />
    </linearGradient>
    <linearGradient id="goldGradient" x1="0%" y1="0%" x2="100%" y2="0%">
      <stop offset="0%" style="stop-color:#E5D596;stop-opacity:1" />
      <stop offset="50%" style="stop-color:#CFAE58;stop-opacity:1" />
      <stop offset="100%" style="stop-color:#B89842;stop-opacity:1" />
    </linearGradient>
    <radialGradient id="oceanGradient" cx="50%" cy="50%" r="50%">
      <stop offset="0%" style="stop-color:#4FD1C5;stop-opacity:0.3" />
      <stop offset="100%" style="stop-color:#1E90A0;stop-opacity:0.05" />
    </radialGradient>
    <filter id="glow">
      <feGaussianBlur stdDeviation="5" result="coloredBlur"/>
      <feMerge>
        <feMergeNode in="coloredBlur"/>
        <feMergeNode in="SourceGraphic"/>
      </feMerge>
    </filter>
    <filter id="softGlow">
      <feGaussianBlur stdDeviation="8" result="coloredBlur"/>
      <feMerge>
        <feMergeNode in="coloredBlur"/>
        <feMergeNode in="SourceGraphic"/>
      </feMerge>
    </filter>
    <filter id="shadow">
      <feDropShadow dx="0" dy="4" stdDeviation="8" flood-color="#000000" flood-opacity="0.5"/>
    </filter>
  </defs>

  <!-- Background -->
  <rect width="1200" height="630" fill="url(#bgGradient)"/>

  <!-- Decorative ocean gradients -->
  <ellipse cx="1000" cy="150" rx="300" ry="200" fill="url(#oceanGradient)" opacity="0.4"/>
  <ellipse cx="200" cy="530" rx="250" ry="180" fill="url(#oceanGradient)" opacity="0.3"/>

  <!-- Wave patterns -->
  <path d="M 0 400 Q 300 350 600 400 T 1200 400 L 1200 630 L 0 630 Z" fill="#1E90A0" opacity="0.08"/>
  <path d="M 0 450 Q 250 420 500 450 T 1000 450 T 1200 450 L 1200 630 L 0 630 Z" fill="#4FD1C5" opacity="0.05"/>

  <!-- Caviar roe particles -->
  <circle cx="1097.1839122163196" cy="618.3399022468309" r="2.2964196273483646" fill="#CFAE58" opacity="0.2071908778950116"/>
  <circle cx="491.25048635553725" cy="604.3114993029885" r="2.6947806798010046" fill="#CFAE58" opacity="0.21666795827193752"/>
  <circle cx="1095.7107768326644" cy="392.9884873695433" r="5.234065399581258" fill="#CFAE58" opacity="0.14903535863138878"/>
  <circle cx="684.1521333814155" cy="351.5686164217389" r="2.5206962795699974" fill="#CFAE58" opacity="0.1740962175171552"/>
  <circle cx="1199.332041101909" cy="187.88183890139894" r="5.338373374458108" fill="#CFAE58" opacity="0.14989300012929266"/>
  <circle cx="884.4070293998993" cy="13.339059703932975" r="2.7881643990323917" fill="#CFAE58" opacity="0.19849877275993724"/>
  <circle cx="680.3921762688087" cy="496.3450589154902" r="2.863122194389044" fill="#CFAE58" opacity="0.21166235060355904"/>
  <circle cx="654.5406829860493" cy="440.6929028167145" r="5.285032232379668" fill="#CFAE58" opacity="0.21167160643178962"/>
  <circle cx="963.6896080751055" cy="316.1147331140928" r="2.4397851559401382" fill="#CFAE58" opacity="0.13578625851811185"/>
  <circle cx="427.77449774745406" cy="616.0297493868698" r="4.342924693385813" fill="#CFAE58" opacity="0.14830964639465827"/>
  <circle cx="1161.9992049740772" cy="454.8947074559979" r="5.699791736824201" fill="#CFAE58" opacity="0.12810716302462566"/>
  <circle cx="581.7609424706122" cy="340.1444645004927" r="5.87596037637223" fill="#CFAE58" opacity="0.14848377335769541"/>
  <circle cx="894.9294203996875" cy="615.8967798123314" r="5.767543654311822" fill="#CFAE58" opacity="0.2389295917646689"/>
  <circle cx="858.3776476451003" cy="338.56139072323884" r="2.2372561425658533" fill="#CFAE58" opacity="0.14851101928850866"/>
  <circle cx="657.1845273520456" cy="399.741512132532" r="3.3898670499897516" fill="#CFAE58" opacity="0.11826056654422727"/>
  <circle cx="0.40072638472778976" cy="223.93534441732083" r="3.7481804881902305" fill="#CFAE58" opacity="0.12328010927809635"/>
  <circle cx="402.14053852922956" cy="218.6703962085694" r="4.322251129071439" fill="#CFAE58" opacity="0.136677776849354"/>
  <circle cx="673.0250568553535" cy="389.4184394053444" r="3.1262032272857803" fill="#CFAE58" opacity="0.21256090557694637"/>
  <circle cx="268.1409035007712" cy="123.6756438787403" r="4.4194715352342495" fill="#CFAE58" opacity="0.19410405214959836"/>
  <circle cx="347.3758848472998" cy="149.21024524573644" r="4.971459762357982" fill="#CFAE58" opacity="0.13158685057851707"/>
  <circle cx="1004.5730159873556" cy="36.34921600728604" r="3.499498142842701" fill="#CFAE58" opacity="0.20877530411265774"/>
  <circle cx="752.9530444815464" cy="96.35239039828636" r="4.483539628711157" fill="#CFAE58" opacity="0.21816717575813666"/>
  <circle cx="911.2507700280877" cy="594.3418641012455" r="2.9908919568264034" fill="#CFAE58" opacity="0.15617537320705605"/>
  <circle cx="144.20993242170707" cy="365.75787496478654" r="5.0770436796437615" fill="#CFAE58" opacity="0.14925524622127406"/>
  <circle cx="296.9403771998288" cy="202.8673935909799" r="4.6200045544658845" fill="#CFAE58" opacity="0.1783819515270627"/>
  <circle cx="391.5108840521768" cy="253.71446209446012" r="4.095005844788849" fill="#CFAE58" opacity="0.24363390348264657"/>
  <circle cx="872.5639036354448" cy="416.10495998767124" r="4.232272919131981" fill="#CFAE58" opacity="0.22037331908841318"/>
  <circle cx="265.6419011397697" cy="70.28654028479485" r="2.6208300658017607" fill="#CFAE58" opacity="0.19808705348917233"/>
  <circle cx="242.21115603934416" cy="574.266726859726" r="2.445099246784915" fill="#CFAE58" opacity="0.1923029376634331"/>
  <circle cx="1089.678584907955" cy="362.24063490539305" r="4.034385192147153" fill="#CFAE58" opacity="0.15167750035415897"/>

  <!-- Border with glow -->
  <rect x="40" y="40" width="1120" height="550" fill="none" stroke="url(#goldGradient)" stroke-width="3" rx="12" filter="url(#softGlow)"/>

  <!-- Icon circle with premium background -->
  <circle cx="150" cy="200" r="75" fill="#CFAE58" opacity="0.15" filter="url(#softGlow)"/>
  <circle cx="150" cy="200" r="70" fill="#CFAE58" opacity="0.25"/>
  <text x="150" y="235" font-size="90" text-anchor="middle" fill="#CFAE58" filter="url(#glow)">❓</text>

  <!-- Premium logo (crown) with enhanced styling -->
  <g transform="translate(100, 70)">
    <path d="M 30 20 L 40 35 L 35 35 Z M 50 15 L 60 35 L 45 35 Z M 65 20 L 75 35 L 70 35 Z M 30 35 L 75 35 L 73 45 L 32 45 Z"
          fill="url(#goldGradient)" filter="url(#glow)" stroke="#B89842" stroke-width="0.5"/>
    <circle cx="40" cy="25" r="3" fill="#4FD1C5" filter="url(#glow)"/>
    <circle cx="52" cy="20" r="4" fill="#4FD1C5" filter="url(#glow)"/>
    <circle cx="65" cy="25" r="3" fill="#4FD1C5" filter="url(#glow)"/>
  </g>

  <!-- Title with shadow -->
  <text x="280" y="180" font-family="Georgia, serif" font-size="72" font-weight="bold"
        fill="url(#goldGradient)" filter="url(#shadow)">FAQ</text>

  <!-- Subtitle with subtle glow -->
  <text x="280" y="230" font-family="Arial, sans-serif" font-size="36"
        fill="#D6DEE6" opacity="0.95" filter="url(#softGlow)">Frequently Asked Questions</text>

  <!-- Brand name with letter spacing -->
  <text x="280" y="300" font-family="Georgia, serif" font-size="32" font-weight="bold"
        fill="#CFAE58" letter-spacing="4" filter="url(#glow)">ROYAL KETA</text>

  <!-- Russian tagline -->
  <text x="280" y="340" font-family="Arial, sans-serif" font-size="22" font-style="italic"
        fill="#8B95A1" opacity="0.8">От икринки к королевской</text>

  <!-- Location -->
  <text x="280" y="380" font-family="Arial, sans-serif" font-size="20"
        fill="#8B95A1" opacity="0.7">Невельский район, Сахалин</text>

  <!-- Website with glow -->
  <text x="100" y="570" font-family="Arial, sans-serif" font-size="30" font-weight="bold"
        fill="#4FD1C5" filter="url(#glow)">royalketa.com</text>

  <!-- Enhanced decorative salmon silhouette -->
  <g transform="translate(950, 480)" opacity="0.2" filter="url(#softGlow)">
    <ellipse cx="0" cy="0" rx="90" ry="35" fill="#CFAE58"/>
    <path d="M 90 0 L 120 -18 L 130 0 L 120 18 Z" fill="#CFAE58"/>
    <path d="M -25 -35 L 0 -45 L 25 -35 Z" fill="#CFAE58"/>
    <ellipse cx="-50" cy="0" rx="15" ry="12" fill="#0B0F14"/>
  </g>

  <!-- Additional decorative caviar clusters -->
  <g opacity="0.2">
    <circle cx="1050" cy="120" r="6" fill="#CFAE58"/>
    <circle cx="1065" cy="115" r="5" fill="#CFAE58"/>
    <circle cx="1058" cy="130" r="4" fill="#CFAE58"/>
    <circle cx="150" cy="500" r="5" fill="#4FD1C5"/>
    <circle cx="165" cy="508" r="4" fill="#4FD1C5"/>
    <circle cx="140" cy="512" r="5" fill="#4FD1C5"/>
  </g>
</svg>