<svg width="1200" height="630" xmlns="http://www.w3.org/2000/svg">
  <defs>
    <linearGradient id="bgGradient" x1="0%" y1="0%" x2="100%" y2="100%">
      <stop offset="0%" style="stop-color:#0B0F14;stop-opacity:1" />
      <stop offset="50%" style="stop-color:#0F1619;stop-opacity:1" />
      <stop offset="100%" style="stop-color:#0F1922;stop-opacity:1" />
    </linearGradient>
    <linearGradient id="goldGradient" x1="0%" y1="0%" x2="100%" y2="0%">
      <stop offset="0%" style="stop-color:#E5D596;stop-opacity:1" />
      <stop offset="50%" style="stop-color:#CFAE58;stop-opacity:1" />
      <stop offset="100%" style="stop-color:#B89842;stop-opacity:1" />
    </linearGradient>
    <radialGradient id="oceanGradient" cx="50%" cy="50%" r="50%">
      <stop offset="0%" style="stop-color:#4FD1C5;stop-opacity:0.3" />
      <stop offset="100%" style="stop-color:#1E90A0;stop-opacity:0.05" />
    </radialGradient>
    <filter id="glow">
      <feGaussianBlur stdDeviation="5" result="coloredBlur"/>
      <feMerge>
        <feMergeNode in="coloredBlur"/>
        <feMergeNode in="SourceGraphic"/>
      </feMerge>
    </filter>
    <filter id="softGlow">
      <feGaussianBlur stdDeviation="8" result="coloredBlur"/>
      <feMerge>
        <feMergeNode in="coloredBlur"/>
        <feMergeNode in="SourceGraphic"/>
      </feMerge>
    </filter>
    <filter id="shadow">
      <feDropShadow dx="0" dy="4" stdDeviation="8" flood-color="#000000" flood-opacity="0.5"/>
    </filter>
  </defs>

  <!-- Background -->
  <rect width="1200" height="630" fill="url(#bgGradient)"/>

  <!-- Decorative ocean gradients -->
  <ellipse cx="1000" cy="150" rx="300" ry="200" fill="url(#oceanGradient)" opacity="0.4"/>
  <ellipse cx="200" cy="530" rx="250" ry="180" fill="url(#oceanGradient)" opacity="0.3"/>

  <!-- Wave patterns -->
  <path d="M 0 400 Q 300 350 600 400 T 1200 400 L 1200 630 L 0 630 Z" fill="#1E90A0" opacity="0.08"/>
  <path d="M 0 450 Q 250 420 500 450 T 1000 450 T 1200 450 L 1200 630 L 0 630 Z" fill="#4FD1C5" opacity="0.05"/>

  <!-- Caviar roe particles -->
  <circle cx="259.2118050324992" cy="48.83447134995561" r="5.5053566783007" fill="#CFAE58" opacity="0.21825039198443907"/>
  <circle cx="156.87275432485217" cy="55.33842410939714" r="3.83571827871273" fill="#CFAE58" opacity="0.17523247399803502"/>
  <circle cx="347.31620620821377" cy="550.7588630823336" r="4.264906892789627" fill="#CFAE58" opacity="0.2194950494531971"/>
  <circle cx="1064.173324410954" cy="287.75990922934847" r="3.6978001506127445" fill="#CFAE58" opacity="0.21976113013014303"/>
  <circle cx="821.957310801003" cy="23.128322566641316" r="2.9892232892090895" fill="#CFAE58" opacity="0.13486880755470546"/>
  <circle cx="292.03351429151087" cy="452.9820605829234" r="2.342954433872227" fill="#CFAE58" opacity="0.23256015739445693"/>
  <circle cx="6.9421239439821925" cy="258.8504410519033" r="3.081526363993662" fill="#CFAE58" opacity="0.23740834788901727"/>
  <circle cx="709.0107282361906" cy="448.25853368965153" r="4.8682339619117645" fill="#CFAE58" opacity="0.17867358084396648"/>
  <circle cx="966.0375593755225" cy="115.58538587050121" r="5.687715077559043" fill="#CFAE58" opacity="0.15676086485628332"/>
  <circle cx="703.829541976743" cy="434.29758590503064" r="5.667420292102637" fill="#CFAE58" opacity="0.12260207210388219"/>
  <circle cx="708.0757650575474" cy="628.302796362429" r="2.8686243888709138" fill="#CFAE58" opacity="0.16516356449109648"/>
  <circle cx="571.2744900002915" cy="562.4123843281255" r="2.0424650309282137" fill="#CFAE58" opacity="0.1986875409954834"/>
  <circle cx="124.05834533982585" cy="453.208439958531" r="4.648980162737427" fill="#CFAE58" opacity="0.1400175273824576"/>
  <circle cx="614.6135949705799" cy="219.28528899959966" r="5.550986873495916" fill="#CFAE58" opacity="0.10473498755359417"/>
  <circle cx="474.6044477859382" cy="305.0609524567711" r="4.194364821027972" fill="#CFAE58" opacity="0.22290981679162764"/>
  <circle cx="505.4942911788081" cy="225.75600926753575" r="3.1063082044072807" fill="#CFAE58" opacity="0.24394113855776386"/>
  <circle cx="497.37422698683247" cy="540.7124790409531" r="3.236374375498091" fill="#CFAE58" opacity="0.1308631174427515"/>
  <circle cx="1134.466057381977" cy="472.14780794193575" r="5.941078994227617" fill="#CFAE58" opacity="0.14134970345334955"/>
  <circle cx="1190.0654329360468" cy="10.481193238179497" r="3.819562222466346" fill="#CFAE58" opacity="0.17599767345294762"/>
  <circle cx="4.2670666207" cy="576.7380229637149" r="4.018083772813569" fill="#CFAE58" opacity="0.14278812053092535"/>
  <circle cx="425.9408818215066" cy="498.8729053844904" r="4.246317445610562" fill="#CFAE58" opacity="0.12800150067167423"/>
  <circle cx="506.71045262315715" cy="551.6381744801866" r="3.2337673954246346" fill="#CFAE58" opacity="0.14915915112245298"/>
  <circle cx="1143.2779216915767" cy="139.72659062767397" r="5.84016239436798" fill="#CFAE58" opacity="0.19547663516863506"/>
  <circle cx="1085.4159865849092" cy="415.6158238375476" r="5.238213301304828" fill="#CFAE58" opacity="0.17080933668331172"/>
  <circle cx="128.9031993201166" cy="250.13618407120214" r="4.153853399706969" fill="#CFAE58" opacity="0.23080316543943652"/>
  <circle cx="984.3732158326624" cy="566.2936452733206" r="5.600323590512877" fill="#CFAE58" opacity="0.21085801850579497"/>
  <circle cx="993.7527980738388" cy="522.1044534889248" r="4.441230587815183" fill="#CFAE58" opacity="0.11636373391164424"/>
  <circle cx="641.6140164378567" cy="5.6290015566089675" r="3.9623617962802626" fill="#CFAE58" opacity="0.24971666040514173"/>
  <circle cx="1144.664448948207" cy="568.8369705882853" r="2.553323359207834" fill="#CFAE58" opacity="0.11423237072482752"/>
  <circle cx="1087.1788305069852" cy="599.2478227477881" r="3.699313865385629" fill="#CFAE58" opacity="0.2280498612987449"/>

  <!-- Border with glow -->
  <rect x="40" y="40" width="1120" height="550" fill="none" stroke="url(#goldGradient)" stroke-width="3" rx="12" filter="url(#softGlow)"/>

  <!-- Icon circle with premium background -->
  <circle cx="150" cy="200" r="75" fill="#CFAE58" opacity="0.15" filter="url(#softGlow)"/>
  <circle cx="150" cy="200" r="70" fill="#CFAE58" opacity="0.25"/>
  <text x="150" y="235" font-size="90" text-anchor="middle" fill="#CFAE58" filter="url(#glow)">❓</text>

  <!-- Premium logo (crown) with enhanced styling -->
  <g transform="translate(100, 70)">
    <path d="M 30 20 L 40 35 L 35 35 Z M 50 15 L 60 35 L 45 35 Z M 65 20 L 75 35 L 70 35 Z M 30 35 L 75 35 L 73 45 L 32 45 Z"
          fill="url(#goldGradient)" filter="url(#glow)" stroke="#B89842" stroke-width="0.5"/>
    <circle cx="40" cy="25" r="3" fill="#4FD1C5" filter="url(#glow)"/>
    <circle cx="52" cy="20" r="4" fill="#4FD1C5" filter="url(#glow)"/>
    <circle cx="65" cy="25" r="3" fill="#4FD1C5" filter="url(#glow)"/>
  </g>

  <!-- Title with shadow -->
  <text x="280" y="180" font-family="Georgia, serif" font-size="72" font-weight="bold"
        fill="url(#goldGradient)" filter="url(#shadow)">FAQ</text>

  <!-- Subtitle with subtle glow -->
  <text x="280" y="230" font-family="Arial, sans-serif" font-size="36"
        fill="#D6DEE6" opacity="0.95" filter="url(#softGlow)">Frequently Asked Questions</text>

  <!-- Brand name with letter spacing -->
  <text x="280" y="300" font-family="Georgia, serif" font-size="32" font-weight="bold"
        fill="#CFAE58" letter-spacing="4" filter="url(#glow)">ROYAL KETA</text>

  <!-- Russian tagline -->
  <text x="280" y="340" font-family="Arial, sans-serif" font-size="22" font-style="italic"
        fill="#8B95A1" opacity="0.8">От икринки к королевской</text>

  <!-- Location -->
  <text x="280" y="380" font-family="Arial, sans-serif" font-size="20"
        fill="#8B95A1" opacity="0.7">Невельский район, Сахалин</text>

  <!-- Website with glow -->
  <text x="100" y="570" font-family="Arial, sans-serif" font-size="30" font-weight="bold"
        fill="#4FD1C5" filter="url(#glow)">royalketa.com</text>

  <!-- Enhanced decorative salmon silhouette -->
  <g transform="translate(950, 480)" opacity="0.2" filter="url(#softGlow)">
    <ellipse cx="0" cy="0" rx="90" ry="35" fill="#CFAE58"/>
    <path d="M 90 0 L 120 -18 L 130 0 L 120 18 Z" fill="#CFAE58"/>
    <path d="M -25 -35 L 0 -45 L 25 -35 Z" fill="#CFAE58"/>
    <ellipse cx="-50" cy="0" rx="15" ry="12" fill="#0B0F14"/>
  </g>

  <!-- Additional decorative caviar clusters -->
  <g opacity="0.2">
    <circle cx="1050" cy="120" r="6" fill="#CFAE58"/>
    <circle cx="1065" cy="115" r="5" fill="#CFAE58"/>
    <circle cx="1058" cy="130" r="4" fill="#CFAE58"/>
    <circle cx="150" cy="500" r="5" fill="#4FD1C5"/>
    <circle cx="165" cy="508" r="4" fill="#4FD1C5"/>
    <circle cx="140" cy="512" r="5" fill="#4FD1C5"/>
  </g>
</svg>