<svg width="1200" height="630" xmlns="http://www.w3.org/2000/svg">
  <defs>
    <linearGradient id="bgGradient" x1="0%" y1="0%" x2="100%" y2="100%">
      <stop offset="0%" style="stop-color:#0B0F14;stop-opacity:1" />
      <stop offset="50%" style="stop-color:#0F1619;stop-opacity:1" />
      <stop offset="100%" style="stop-color:#0F1922;stop-opacity:1" />
    </linearGradient>
    <linearGradient id="goldGradient" x1="0%" y1="0%" x2="100%" y2="0%">
      <stop offset="0%" style="stop-color:#E5D596;stop-opacity:1" />
      <stop offset="50%" style="stop-color:#CFAE58;stop-opacity:1" />
      <stop offset="100%" style="stop-color:#B89842;stop-opacity:1" />
    </linearGradient>
    <radialGradient id="oceanGradient" cx="50%" cy="50%" r="50%">
      <stop offset="0%" style="stop-color:#4FD1C5;stop-opacity:0.3" />
      <stop offset="100%" style="stop-color:#1E90A0;stop-opacity:0.05" />
    </radialGradient>
    <filter id="glow">
      <feGaussianBlur stdDeviation="5" result="coloredBlur"/>
      <feMerge>
        <feMergeNode in="coloredBlur"/>
        <feMergeNode in="SourceGraphic"/>
      </feMerge>
    </filter>
    <filter id="softGlow">
      <feGaussianBlur stdDeviation="8" result="coloredBlur"/>
      <feMerge>
        <feMergeNode in="coloredBlur"/>
        <feMergeNode in="SourceGraphic"/>
      </feMerge>
    </filter>
    <filter id="shadow">
      <feDropShadow dx="0" dy="4" stdDeviation="8" flood-color="#000000" flood-opacity="0.5"/>
    </filter>
  </defs>

  <!-- Background -->
  <rect width="1200" height="630" fill="url(#bgGradient)"/>

  <!-- Decorative ocean gradients -->
  <ellipse cx="1000" cy="150" rx="300" ry="200" fill="url(#oceanGradient)" opacity="0.4"/>
  <ellipse cx="200" cy="530" rx="250" ry="180" fill="url(#oceanGradient)" opacity="0.3"/>

  <!-- Wave patterns -->
  <path d="M 0 400 Q 300 350 600 400 T 1200 400 L 1200 630 L 0 630 Z" fill="#1E90A0" opacity="0.08"/>
  <path d="M 0 450 Q 250 420 500 450 T 1000 450 T 1200 450 L 1200 630 L 0 630 Z" fill="#4FD1C5" opacity="0.05"/>

  <!-- Caviar roe particles -->
  <circle cx="63.185392294424815" cy="162.57534433673516" r="2.463165914301959" fill="#CFAE58" opacity="0.1854862893681074"/>
  <circle cx="911.3285501515602" cy="12.03412117327969" r="5.216924688626516" fill="#CFAE58" opacity="0.19685123127146598"/>
  <circle cx="481.4624728178666" cy="4.451428886254324" r="3.825955904358553" fill="#CFAE58" opacity="0.15409352471539942"/>
  <circle cx="613.4969709950619" cy="508.7615823143931" r="3.2779942110042644" fill="#CFAE58" opacity="0.21485530776802797"/>
  <circle cx="285.56451712278516" cy="457.2179186716892" r="4.086314679411187" fill="#CFAE58" opacity="0.1265263867358875"/>
  <circle cx="844.883267390973" cy="420.22251692956644" r="4.360863942451888" fill="#CFAE58" opacity="0.17329454874687888"/>
  <circle cx="565.8390388198399" cy="61.396373767818396" r="3.8545947502501883" fill="#CFAE58" opacity="0.14880750009734028"/>
  <circle cx="924.564010324873" cy="487.5074765540978" r="2.2356505621013083" fill="#CFAE58" opacity="0.16003977689972831"/>
  <circle cx="1085.1368744578815" cy="518.2183522873571" r="2.250937532418254" fill="#CFAE58" opacity="0.20320940819001754"/>
  <circle cx="244.5968024559852" cy="190.9267671326585" r="4.867017654280514" fill="#CFAE58" opacity="0.11709385941033468"/>
  <circle cx="794.2942159993163" cy="478.5628570068042" r="5.717575801371149" fill="#CFAE58" opacity="0.1511722470267446"/>
  <circle cx="1180.1777251921085" cy="299.70316708496324" r="4.2977834064763005" fill="#CFAE58" opacity="0.19233850478087092"/>
  <circle cx="941.7412913361616" cy="462.8138821515209" r="3.951635852575353" fill="#CFAE58" opacity="0.15630665949557734"/>
  <circle cx="182.95858873320228" cy="253.90893331155618" r="3.3857260207049658" fill="#CFAE58" opacity="0.18422788420490488"/>
  <circle cx="72.15926821672794" cy="299.7058061298993" r="4.096410245681651" fill="#CFAE58" opacity="0.23656803529781945"/>
  <circle cx="312.7905146269841" cy="185.9557821518295" r="5.025314228057498" fill="#CFAE58" opacity="0.1740941456854293"/>
  <circle cx="623.209366443904" cy="53.29767687567759" r="4.366612922728423" fill="#CFAE58" opacity="0.2005768864510672"/>
  <circle cx="296.33059719848313" cy="71.45952804316515" r="4.2302840585100885" fill="#CFAE58" opacity="0.1867812281251841"/>
  <circle cx="26.593418328418394" cy="206.60354749698982" r="5.370801690756787" fill="#CFAE58" opacity="0.24918046855632595"/>
  <circle cx="32.39081192187157" cy="113.28384730868932" r="4.970176024303004" fill="#CFAE58" opacity="0.24711200150557722"/>
  <circle cx="75.985097804783" cy="273.45542137610147" r="4.497298182861639" fill="#CFAE58" opacity="0.1900566949625013"/>
  <circle cx="601.6703402045922" cy="553.1439165115777" r="5.012725651835063" fill="#CFAE58" opacity="0.10002199635699269"/>
  <circle cx="894.4186438370044" cy="76.98034732952063" r="4.196097457812673" fill="#CFAE58" opacity="0.10113496013054114"/>
  <circle cx="24.648647083184237" cy="321.45902398198325" r="4.219388503290013" fill="#CFAE58" opacity="0.14784185345306022"/>
  <circle cx="994.4262092189616" cy="127.21335391847119" r="4.112717808480355" fill="#CFAE58" opacity="0.1524317490392229"/>
  <circle cx="939.2874364790886" cy="494.34024583407535" r="5.345779341873406" fill="#CFAE58" opacity="0.11393491690137367"/>
  <circle cx="69.512959889728" cy="470.02807177976723" r="3.2972869336111095" fill="#CFAE58" opacity="0.2090626658768501"/>
  <circle cx="130.15164595777992" cy="496.0454377035448" r="5.946018306295867" fill="#CFAE58" opacity="0.13951009147264218"/>
  <circle cx="786.4869252837312" cy="262.30738042798566" r="3.1518871875518517" fill="#CFAE58" opacity="0.13161294620018438"/>
  <circle cx="572.4768197648899" cy="529.5335181383366" r="4.758493955300244" fill="#CFAE58" opacity="0.20473430453082603"/>

  <!-- Border with glow -->
  <rect x="40" y="40" width="1120" height="550" fill="none" stroke="url(#goldGradient)" stroke-width="3" rx="12" filter="url(#softGlow)"/>

  <!-- Icon circle with premium background -->
  <circle cx="150" cy="200" r="75" fill="#CFAE58" opacity="0.15" filter="url(#softGlow)"/>
  <circle cx="150" cy="200" r="70" fill="#CFAE58" opacity="0.25"/>
  <text x="150" y="235" font-size="90" text-anchor="middle" fill="#CFAE58" filter="url(#glow)">❓</text>

  <!-- Premium logo (crown) with enhanced styling -->
  <g transform="translate(100, 70)">
    <path d="M 30 20 L 40 35 L 35 35 Z M 50 15 L 60 35 L 45 35 Z M 65 20 L 75 35 L 70 35 Z M 30 35 L 75 35 L 73 45 L 32 45 Z"
          fill="url(#goldGradient)" filter="url(#glow)" stroke="#B89842" stroke-width="0.5"/>
    <circle cx="40" cy="25" r="3" fill="#4FD1C5" filter="url(#glow)"/>
    <circle cx="52" cy="20" r="4" fill="#4FD1C5" filter="url(#glow)"/>
    <circle cx="65" cy="25" r="3" fill="#4FD1C5" filter="url(#glow)"/>
  </g>

  <!-- Title with shadow -->
  <text x="280" y="180" font-family="Georgia, serif" font-size="72" font-weight="bold"
        fill="url(#goldGradient)" filter="url(#shadow)">FAQ</text>

  <!-- Subtitle with subtle glow -->
  <text x="280" y="230" font-family="Arial, sans-serif" font-size="36"
        fill="#D6DEE6" opacity="0.95" filter="url(#softGlow)">Frequently Asked Questions</text>

  <!-- Brand name with letter spacing -->
  <text x="280" y="300" font-family="Georgia, serif" font-size="32" font-weight="bold"
        fill="#CFAE58" letter-spacing="4" filter="url(#glow)">ROYAL KETA</text>

  <!-- Russian tagline -->
  <text x="280" y="340" font-family="Arial, sans-serif" font-size="22" font-style="italic"
        fill="#8B95A1" opacity="0.8">От икринки к королевской</text>

  <!-- Location -->
  <text x="280" y="380" font-family="Arial, sans-serif" font-size="20"
        fill="#8B95A1" opacity="0.7">Невельский район, Сахалин</text>

  <!-- Website with glow -->
  <text x="100" y="570" font-family="Arial, sans-serif" font-size="30" font-weight="bold"
        fill="#4FD1C5" filter="url(#glow)">royalketa.com</text>

  <!-- Enhanced decorative salmon silhouette -->
  <g transform="translate(950, 480)" opacity="0.2" filter="url(#softGlow)">
    <ellipse cx="0" cy="0" rx="90" ry="35" fill="#CFAE58"/>
    <path d="M 90 0 L 120 -18 L 130 0 L 120 18 Z" fill="#CFAE58"/>
    <path d="M -25 -35 L 0 -45 L 25 -35 Z" fill="#CFAE58"/>
    <ellipse cx="-50" cy="0" rx="15" ry="12" fill="#0B0F14"/>
  </g>

  <!-- Additional decorative caviar clusters -->
  <g opacity="0.2">
    <circle cx="1050" cy="120" r="6" fill="#CFAE58"/>
    <circle cx="1065" cy="115" r="5" fill="#CFAE58"/>
    <circle cx="1058" cy="130" r="4" fill="#CFAE58"/>
    <circle cx="150" cy="500" r="5" fill="#4FD1C5"/>
    <circle cx="165" cy="508" r="4" fill="#4FD1C5"/>
    <circle cx="140" cy="512" r="5" fill="#4FD1C5"/>
  </g>
</svg>