<svg width="1200" height="630" xmlns="http://www.w3.org/2000/svg">
  <defs>
    <linearGradient id="bgGradient" x1="0%" y1="0%" x2="100%" y2="100%">
      <stop offset="0%" style="stop-color:#0B0F14;stop-opacity:1" />
      <stop offset="50%" style="stop-color:#0F1619;stop-opacity:1" />
      <stop offset="100%" style="stop-color:#0F1922;stop-opacity:1" />
    </linearGradient>
    <linearGradient id="goldGradient" x1="0%" y1="0%" x2="100%" y2="0%">
      <stop offset="0%" style="stop-color:#E5D596;stop-opacity:1" />
      <stop offset="50%" style="stop-color:#CFAE58;stop-opacity:1" />
      <stop offset="100%" style="stop-color:#B89842;stop-opacity:1" />
    </linearGradient>
    <radialGradient id="oceanGradient" cx="50%" cy="50%" r="50%">
      <stop offset="0%" style="stop-color:#4FD1C5;stop-opacity:0.3" />
      <stop offset="100%" style="stop-color:#1E90A0;stop-opacity:0.05" />
    </radialGradient>
    <filter id="glow">
      <feGaussianBlur stdDeviation="5" result="coloredBlur"/>
      <feMerge>
        <feMergeNode in="coloredBlur"/>
        <feMergeNode in="SourceGraphic"/>
      </feMerge>
    </filter>
    <filter id="softGlow">
      <feGaussianBlur stdDeviation="8" result="coloredBlur"/>
      <feMerge>
        <feMergeNode in="coloredBlur"/>
        <feMergeNode in="SourceGraphic"/>
      </feMerge>
    </filter>
    <filter id="shadow">
      <feDropShadow dx="0" dy="4" stdDeviation="8" flood-color="#000000" flood-opacity="0.5"/>
    </filter>
  </defs>

  <!-- Background -->
  <rect width="1200" height="630" fill="url(#bgGradient)"/>

  <!-- Decorative ocean gradients -->
  <ellipse cx="1000" cy="150" rx="300" ry="200" fill="url(#oceanGradient)" opacity="0.4"/>
  <ellipse cx="200" cy="530" rx="250" ry="180" fill="url(#oceanGradient)" opacity="0.3"/>

  <!-- Wave patterns -->
  <path d="M 0 400 Q 300 350 600 400 T 1200 400 L 1200 630 L 0 630 Z" fill="#1E90A0" opacity="0.08"/>
  <path d="M 0 450 Q 250 420 500 450 T 1000 450 T 1200 450 L 1200 630 L 0 630 Z" fill="#4FD1C5" opacity="0.05"/>

  <!-- Caviar roe particles -->
  <circle cx="160.4750648782196" cy="132.62899180727854" r="2.3758578595505186" fill="#CFAE58" opacity="0.18849202508028606"/>
  <circle cx="837.8387319163496" cy="228.75006419028244" r="5.30402051887085" fill="#CFAE58" opacity="0.19363110775299291"/>
  <circle cx="1009.9264689961836" cy="228.6689810704693" r="3.316771924245888" fill="#CFAE58" opacity="0.1729698441099402"/>
  <circle cx="351.8360695382049" cy="437.1988642304515" r="5.49785859409664" fill="#CFAE58" opacity="0.1678653618551157"/>
  <circle cx="987.8224603995809" cy="86.64669761699946" r="3.613781256146299" fill="#CFAE58" opacity="0.13260864232603164"/>
  <circle cx="50.90251241274757" cy="25.64557141909642" r="2.9522806336323404" fill="#CFAE58" opacity="0.1998804678862709"/>
  <circle cx="1060.8543572005608" cy="139.49631654606597" r="2.7498078141604356" fill="#CFAE58" opacity="0.13485278795648797"/>
  <circle cx="698.8435515586358" cy="185.60866279185208" r="3.836746059296237" fill="#CFAE58" opacity="0.19937496051226322"/>
  <circle cx="857.238638562028" cy="494.96235102436646" r="4.324430426606553" fill="#CFAE58" opacity="0.23430823186822902"/>
  <circle cx="1123.3368328036931" cy="259.0613908443365" r="5.006033075065889" fill="#CFAE58" opacity="0.1882045909542298"/>
  <circle cx="335.4356386101031" cy="594.281193009116" r="2.969879405353316" fill="#CFAE58" opacity="0.2190752390076677"/>
  <circle cx="1005.6920727614224" cy="557.2575473098867" r="4.50422648475776" fill="#CFAE58" opacity="0.10269222753205022"/>
  <circle cx="1077.1155244218614" cy="375.3921389432227" r="3.120897879812972" fill="#CFAE58" opacity="0.1110885704299206"/>
  <circle cx="137.6983569128397" cy="139.96876554456998" r="3.862036382167746" fill="#CFAE58" opacity="0.11119554691120563"/>
  <circle cx="499.15653074062413" cy="388.3726993627555" r="3.534404556498459" fill="#CFAE58" opacity="0.17673657814174526"/>
  <circle cx="875.5041148586297" cy="233.2043496797804" r="3.177428572202677" fill="#CFAE58" opacity="0.10534264048544284"/>
  <circle cx="533.8943769947047" cy="122.25322013876347" r="5.3882048587605" fill="#CFAE58" opacity="0.20292619961741598"/>
  <circle cx="1150.2978098103013" cy="451.3988524417778" r="3.8670550388387026" fill="#CFAE58" opacity="0.17778701666855365"/>
  <circle cx="632.1380615482649" cy="482.4876464545485" r="5.416452691794654" fill="#CFAE58" opacity="0.21258520250327978"/>
  <circle cx="559.6659320795407" cy="204.69076659020067" r="3.1642601169523905" fill="#CFAE58" opacity="0.14967743102926"/>
  <circle cx="517.6898629773538" cy="107.67706072388457" r="3.8946477117726888" fill="#CFAE58" opacity="0.14389590791539872"/>
  <circle cx="232.28416562988795" cy="330.8216312786179" r="2.991025702188529" fill="#CFAE58" opacity="0.22200158973307327"/>
  <circle cx="865.7804980369883" cy="620.2851683542681" r="2.4614054434480668" fill="#CFAE58" opacity="0.24714672155709685"/>
  <circle cx="575.9574810806397" cy="246.75155941955026" r="4.257921006729268" fill="#CFAE58" opacity="0.20476413858394915"/>
  <circle cx="118.39974842682386" cy="251.74131946422543" r="4.737242609550259" fill="#CFAE58" opacity="0.21597415892392824"/>
  <circle cx="882.5620419444981" cy="386.9976596071356" r="5.742280867937704" fill="#CFAE58" opacity="0.17738339240790446"/>
  <circle cx="436.7740936984655" cy="577.3980768934914" r="5.079958652291255" fill="#CFAE58" opacity="0.17664962430245715"/>
  <circle cx="432.61615383392734" cy="488.84389754084805" r="5.144470847808346" fill="#CFAE58" opacity="0.1571393030316262"/>
  <circle cx="1130.2115464508677" cy="28.44179292512897" r="2.6251286614011464" fill="#CFAE58" opacity="0.2479596770623696"/>
  <circle cx="1000.9557729923276" cy="358.16642095020507" r="3.1104788837391" fill="#CFAE58" opacity="0.16108315726661854"/>

  <!-- Border with glow -->
  <rect x="40" y="40" width="1120" height="550" fill="none" stroke="url(#goldGradient)" stroke-width="3" rx="12" filter="url(#softGlow)"/>

  <!-- Icon circle with premium background -->
  <circle cx="150" cy="200" r="75" fill="#CFAE58" opacity="0.15" filter="url(#softGlow)"/>
  <circle cx="150" cy="200" r="70" fill="#CFAE58" opacity="0.25"/>
  <text x="150" y="235" font-size="90" text-anchor="middle" fill="#CFAE58" filter="url(#glow)">❓</text>

  <!-- Premium logo (crown) with enhanced styling -->
  <g transform="translate(100, 70)">
    <path d="M 30 20 L 40 35 L 35 35 Z M 50 15 L 60 35 L 45 35 Z M 65 20 L 75 35 L 70 35 Z M 30 35 L 75 35 L 73 45 L 32 45 Z"
          fill="url(#goldGradient)" filter="url(#glow)" stroke="#B89842" stroke-width="0.5"/>
    <circle cx="40" cy="25" r="3" fill="#4FD1C5" filter="url(#glow)"/>
    <circle cx="52" cy="20" r="4" fill="#4FD1C5" filter="url(#glow)"/>
    <circle cx="65" cy="25" r="3" fill="#4FD1C5" filter="url(#glow)"/>
  </g>

  <!-- Title with shadow -->
  <text x="280" y="180" font-family="Georgia, serif" font-size="72" font-weight="bold"
        fill="url(#goldGradient)" filter="url(#shadow)">FAQ</text>

  <!-- Subtitle with subtle glow -->
  <text x="280" y="230" font-family="Arial, sans-serif" font-size="36"
        fill="#D6DEE6" opacity="0.95" filter="url(#softGlow)">Frequently Asked Questions</text>

  <!-- Brand name with letter spacing -->
  <text x="280" y="300" font-family="Georgia, serif" font-size="32" font-weight="bold"
        fill="#CFAE58" letter-spacing="4" filter="url(#glow)">ROYAL KETA</text>

  <!-- Russian tagline -->
  <text x="280" y="340" font-family="Arial, sans-serif" font-size="22" font-style="italic"
        fill="#8B95A1" opacity="0.8">От икринки к королевской</text>

  <!-- Location -->
  <text x="280" y="380" font-family="Arial, sans-serif" font-size="20"
        fill="#8B95A1" opacity="0.7">Невельский район, Сахалин</text>

  <!-- Website with glow -->
  <text x="100" y="570" font-family="Arial, sans-serif" font-size="30" font-weight="bold"
        fill="#4FD1C5" filter="url(#glow)">royalketa.com</text>

  <!-- Enhanced decorative salmon silhouette -->
  <g transform="translate(950, 480)" opacity="0.2" filter="url(#softGlow)">
    <ellipse cx="0" cy="0" rx="90" ry="35" fill="#CFAE58"/>
    <path d="M 90 0 L 120 -18 L 130 0 L 120 18 Z" fill="#CFAE58"/>
    <path d="M -25 -35 L 0 -45 L 25 -35 Z" fill="#CFAE58"/>
    <ellipse cx="-50" cy="0" rx="15" ry="12" fill="#0B0F14"/>
  </g>

  <!-- Additional decorative caviar clusters -->
  <g opacity="0.2">
    <circle cx="1050" cy="120" r="6" fill="#CFAE58"/>
    <circle cx="1065" cy="115" r="5" fill="#CFAE58"/>
    <circle cx="1058" cy="130" r="4" fill="#CFAE58"/>
    <circle cx="150" cy="500" r="5" fill="#4FD1C5"/>
    <circle cx="165" cy="508" r="4" fill="#4FD1C5"/>
    <circle cx="140" cy="512" r="5" fill="#4FD1C5"/>
  </g>
</svg>