<svg width="1200" height="630" xmlns="http://www.w3.org/2000/svg">
  <defs>
    <linearGradient id="bgGradient" x1="0%" y1="0%" x2="100%" y2="100%">
      <stop offset="0%" style="stop-color:#0B0F14;stop-opacity:1" />
      <stop offset="50%" style="stop-color:#0F1619;stop-opacity:1" />
      <stop offset="100%" style="stop-color:#0F1922;stop-opacity:1" />
    </linearGradient>
    <linearGradient id="goldGradient" x1="0%" y1="0%" x2="100%" y2="0%">
      <stop offset="0%" style="stop-color:#E5D596;stop-opacity:1" />
      <stop offset="50%" style="stop-color:#CFAE58;stop-opacity:1" />
      <stop offset="100%" style="stop-color:#B89842;stop-opacity:1" />
    </linearGradient>
    <radialGradient id="oceanGradient" cx="50%" cy="50%" r="50%">
      <stop offset="0%" style="stop-color:#4FD1C5;stop-opacity:0.3" />
      <stop offset="100%" style="stop-color:#1E90A0;stop-opacity:0.05" />
    </radialGradient>
    <filter id="glow">
      <feGaussianBlur stdDeviation="5" result="coloredBlur"/>
      <feMerge>
        <feMergeNode in="coloredBlur"/>
        <feMergeNode in="SourceGraphic"/>
      </feMerge>
    </filter>
    <filter id="softGlow">
      <feGaussianBlur stdDeviation="8" result="coloredBlur"/>
      <feMerge>
        <feMergeNode in="coloredBlur"/>
        <feMergeNode in="SourceGraphic"/>
      </feMerge>
    </filter>
    <filter id="shadow">
      <feDropShadow dx="0" dy="4" stdDeviation="8" flood-color="#000000" flood-opacity="0.5"/>
    </filter>
  </defs>

  <!-- Background -->
  <rect width="1200" height="630" fill="url(#bgGradient)"/>

  <!-- Decorative ocean gradients -->
  <ellipse cx="1000" cy="150" rx="300" ry="200" fill="url(#oceanGradient)" opacity="0.4"/>
  <ellipse cx="200" cy="530" rx="250" ry="180" fill="url(#oceanGradient)" opacity="0.3"/>

  <!-- Wave patterns -->
  <path d="M 0 400 Q 300 350 600 400 T 1200 400 L 1200 630 L 0 630 Z" fill="#1E90A0" opacity="0.08"/>
  <path d="M 0 450 Q 250 420 500 450 T 1000 450 T 1200 450 L 1200 630 L 0 630 Z" fill="#4FD1C5" opacity="0.05"/>

  <!-- Caviar roe particles -->
  <circle cx="306.1623817125596" cy="86.92242606106699" r="5.003419701436366" fill="#CFAE58" opacity="0.15233395208361222"/>
  <circle cx="665.6892430505144" cy="600.9588750668272" r="4.918782116816624" fill="#CFAE58" opacity="0.22732881771115357"/>
  <circle cx="1190.784751456077" cy="250.71876422155668" r="5.560488447946229" fill="#CFAE58" opacity="0.1215968543824412"/>
  <circle cx="664.6528662029026" cy="501.83563871182923" r="3.458686402958485" fill="#CFAE58" opacity="0.14884876203250266"/>
  <circle cx="81.02361520953347" cy="332.9080194923228" r="3.7044343857206568" fill="#CFAE58" opacity="0.19144080511968897"/>
  <circle cx="994.066020684812" cy="385.0609281901127" r="2.532224376500754" fill="#CFAE58" opacity="0.11370021689818136"/>
  <circle cx="322.19115896232745" cy="188.2223746588809" r="5.75828407757022" fill="#CFAE58" opacity="0.22105382287842523"/>
  <circle cx="799.8092052031183" cy="117.34974575238849" r="5.108356125422963" fill="#CFAE58" opacity="0.10109047726329477"/>
  <circle cx="950.2963618584843" cy="592.23572695901" r="5.091455936018082" fill="#CFAE58" opacity="0.18856138528888905"/>
  <circle cx="62.947422027088116" cy="395.61194229762714" r="5.152520366819061" fill="#CFAE58" opacity="0.2182319097775284"/>
  <circle cx="295.59434597717666" cy="398.4174554868405" r="5.508233782691759" fill="#CFAE58" opacity="0.23496755337568187"/>
  <circle cx="115.87030202237693" cy="507.63498899074654" r="5.211469701419819" fill="#CFAE58" opacity="0.19224443351569398"/>
  <circle cx="697.7093362684982" cy="477.00504340362016" r="3.7461839817535987" fill="#CFAE58" opacity="0.1739156510821978"/>
  <circle cx="800.7658097147864" cy="297.0238213417866" r="4.8595306377728145" fill="#CFAE58" opacity="0.2155225641975844"/>
  <circle cx="483.56167060002076" cy="392.4526335336885" r="5.158524607227043" fill="#CFAE58" opacity="0.2065435089547349"/>
  <circle cx="1164.8924630766785" cy="406.96476471791675" r="4.514025206167556" fill="#CFAE58" opacity="0.13521173998980063"/>
  <circle cx="290.55141863848394" cy="403.0754445879269" r="4.099501655317823" fill="#CFAE58" opacity="0.10897694528853541"/>
  <circle cx="1106.4357368412814" cy="511.3595890624528" r="2.086601328648358" fill="#CFAE58" opacity="0.23954897181202683"/>
  <circle cx="215.51768493089716" cy="383.1063186408288" r="3.28200144386932" fill="#CFAE58" opacity="0.13152292941861843"/>
  <circle cx="990.1523647729849" cy="8.87500340895094" r="2.274275185870847" fill="#CFAE58" opacity="0.16558236167652723"/>
  <circle cx="718.7780718566979" cy="538.9514091662417" r="5.900937907388027" fill="#CFAE58" opacity="0.1538684214426859"/>
  <circle cx="1031.4657917044397" cy="621.1807506160754" r="2.7833972317340603" fill="#CFAE58" opacity="0.1188953923850116"/>
  <circle cx="1152.014337410127" cy="171.1269730927647" r="2.0254376864343078" fill="#CFAE58" opacity="0.23213310206722232"/>
  <circle cx="1106.3668795781448" cy="8.480280257960068" r="4.6688262330877475" fill="#CFAE58" opacity="0.14900363642621697"/>
  <circle cx="950.4551699500586" cy="174.92099135659788" r="2.951199384810316" fill="#CFAE58" opacity="0.2311802740268814"/>
  <circle cx="29.006895345011642" cy="36.732003651344286" r="2.399589570819505" fill="#CFAE58" opacity="0.15068463548074723"/>
  <circle cx="470.313287124356" cy="527.5759354623248" r="5.438194957089321" fill="#CFAE58" opacity="0.2205447992181685"/>
  <circle cx="11.83563352647874" cy="51.852260460659245" r="4.433093331989518" fill="#CFAE58" opacity="0.23676495085091717"/>
  <circle cx="7.0961166361916295" cy="232.9825971802696" r="2.232033882218123" fill="#CFAE58" opacity="0.2396096720030839"/>
  <circle cx="201.92868163206498" cy="24.95220071461767" r="3.722185282095269" fill="#CFAE58" opacity="0.1525186581812002"/>

  <!-- Border with glow -->
  <rect x="40" y="40" width="1120" height="550" fill="none" stroke="url(#goldGradient)" stroke-width="3" rx="12" filter="url(#softGlow)"/>

  <!-- Icon circle with premium background -->
  <circle cx="150" cy="200" r="75" fill="#CFAE58" opacity="0.15" filter="url(#softGlow)"/>
  <circle cx="150" cy="200" r="70" fill="#CFAE58" opacity="0.25"/>
  <text x="150" y="235" font-size="90" text-anchor="middle" fill="#CFAE58" filter="url(#glow)">❓</text>

  <!-- Premium logo (crown) with enhanced styling -->
  <g transform="translate(100, 70)">
    <path d="M 30 20 L 40 35 L 35 35 Z M 50 15 L 60 35 L 45 35 Z M 65 20 L 75 35 L 70 35 Z M 30 35 L 75 35 L 73 45 L 32 45 Z"
          fill="url(#goldGradient)" filter="url(#glow)" stroke="#B89842" stroke-width="0.5"/>
    <circle cx="40" cy="25" r="3" fill="#4FD1C5" filter="url(#glow)"/>
    <circle cx="52" cy="20" r="4" fill="#4FD1C5" filter="url(#glow)"/>
    <circle cx="65" cy="25" r="3" fill="#4FD1C5" filter="url(#glow)"/>
  </g>

  <!-- Title with shadow -->
  <text x="280" y="180" font-family="Georgia, serif" font-size="72" font-weight="bold"
        fill="url(#goldGradient)" filter="url(#shadow)">FAQ</text>

  <!-- Subtitle with subtle glow -->
  <text x="280" y="230" font-family="Arial, sans-serif" font-size="36"
        fill="#D6DEE6" opacity="0.95" filter="url(#softGlow)">Frequently Asked Questions</text>

  <!-- Brand name with letter spacing -->
  <text x="280" y="300" font-family="Georgia, serif" font-size="32" font-weight="bold"
        fill="#CFAE58" letter-spacing="4" filter="url(#glow)">ROYAL KETA</text>

  <!-- Russian tagline -->
  <text x="280" y="340" font-family="Arial, sans-serif" font-size="22" font-style="italic"
        fill="#8B95A1" opacity="0.8">От икринки к королевской</text>

  <!-- Location -->
  <text x="280" y="380" font-family="Arial, sans-serif" font-size="20"
        fill="#8B95A1" opacity="0.7">Невельский район, Сахалин</text>

  <!-- Website with glow -->
  <text x="100" y="570" font-family="Arial, sans-serif" font-size="30" font-weight="bold"
        fill="#4FD1C5" filter="url(#glow)">royalketa.com</text>

  <!-- Enhanced decorative salmon silhouette -->
  <g transform="translate(950, 480)" opacity="0.2" filter="url(#softGlow)">
    <ellipse cx="0" cy="0" rx="90" ry="35" fill="#CFAE58"/>
    <path d="M 90 0 L 120 -18 L 130 0 L 120 18 Z" fill="#CFAE58"/>
    <path d="M -25 -35 L 0 -45 L 25 -35 Z" fill="#CFAE58"/>
    <ellipse cx="-50" cy="0" rx="15" ry="12" fill="#0B0F14"/>
  </g>

  <!-- Additional decorative caviar clusters -->
  <g opacity="0.2">
    <circle cx="1050" cy="120" r="6" fill="#CFAE58"/>
    <circle cx="1065" cy="115" r="5" fill="#CFAE58"/>
    <circle cx="1058" cy="130" r="4" fill="#CFAE58"/>
    <circle cx="150" cy="500" r="5" fill="#4FD1C5"/>
    <circle cx="165" cy="508" r="4" fill="#4FD1C5"/>
    <circle cx="140" cy="512" r="5" fill="#4FD1C5"/>
  </g>
</svg>