<svg width="1200" height="630" xmlns="http://www.w3.org/2000/svg">
  <defs>
    <linearGradient id="bgGradient" x1="0%" y1="0%" x2="100%" y2="100%">
      <stop offset="0%" style="stop-color:#0B0F14;stop-opacity:1" />
      <stop offset="50%" style="stop-color:#0F1619;stop-opacity:1" />
      <stop offset="100%" style="stop-color:#0F1922;stop-opacity:1" />
    </linearGradient>
    <linearGradient id="goldGradient" x1="0%" y1="0%" x2="100%" y2="0%">
      <stop offset="0%" style="stop-color:#E5D596;stop-opacity:1" />
      <stop offset="50%" style="stop-color:#CFAE58;stop-opacity:1" />
      <stop offset="100%" style="stop-color:#B89842;stop-opacity:1" />
    </linearGradient>
    <radialGradient id="oceanGradient" cx="50%" cy="50%" r="50%">
      <stop offset="0%" style="stop-color:#4FD1C5;stop-opacity:0.3" />
      <stop offset="100%" style="stop-color:#1E90A0;stop-opacity:0.05" />
    </radialGradient>
    <filter id="glow">
      <feGaussianBlur stdDeviation="5" result="coloredBlur"/>
      <feMerge>
        <feMergeNode in="coloredBlur"/>
        <feMergeNode in="SourceGraphic"/>
      </feMerge>
    </filter>
    <filter id="softGlow">
      <feGaussianBlur stdDeviation="8" result="coloredBlur"/>
      <feMerge>
        <feMergeNode in="coloredBlur"/>
        <feMergeNode in="SourceGraphic"/>
      </feMerge>
    </filter>
    <filter id="shadow">
      <feDropShadow dx="0" dy="4" stdDeviation="8" flood-color="#000000" flood-opacity="0.5"/>
    </filter>
  </defs>

  <!-- Background -->
  <rect width="1200" height="630" fill="url(#bgGradient)"/>

  <!-- Decorative ocean gradients -->
  <ellipse cx="1000" cy="150" rx="300" ry="200" fill="url(#oceanGradient)" opacity="0.4"/>
  <ellipse cx="200" cy="530" rx="250" ry="180" fill="url(#oceanGradient)" opacity="0.3"/>

  <!-- Wave patterns -->
  <path d="M 0 400 Q 300 350 600 400 T 1200 400 L 1200 630 L 0 630 Z" fill="#1E90A0" opacity="0.08"/>
  <path d="M 0 450 Q 250 420 500 450 T 1000 450 T 1200 450 L 1200 630 L 0 630 Z" fill="#4FD1C5" opacity="0.05"/>

  <!-- Caviar roe particles -->
  <circle cx="950.1938740016451" cy="622.7622441541245" r="5.176560396259895" fill="#CFAE58" opacity="0.23065515594203184"/>
  <circle cx="224.26718160675722" cy="23.648895272847682" r="3.3117797183790083" fill="#CFAE58" opacity="0.16879501671093036"/>
  <circle cx="78.83569636486865" cy="194.47820339321626" r="4.4656375685806475" fill="#CFAE58" opacity="0.21191058318665695"/>
  <circle cx="1155.2508592302552" cy="468.07364430150153" r="3.8425241665416987" fill="#CFAE58" opacity="0.23027081640071745"/>
  <circle cx="342.6967456796814" cy="98.31671296840702" r="5.610082406339665" fill="#CFAE58" opacity="0.2055047712963125"/>
  <circle cx="112.82076262911076" cy="34.870138070814164" r="2.1792889186442306" fill="#CFAE58" opacity="0.12455008342185842"/>
  <circle cx="360.63872786662586" cy="602.2414968665065" r="4.360236732940555" fill="#CFAE58" opacity="0.232804223969641"/>
  <circle cx="539.8986375989215" cy="55.75948507291608" r="5.108095473485903" fill="#CFAE58" opacity="0.1476601988830325"/>
  <circle cx="731.9171970307957" cy="68.66598702243094" r="5.050346503003846" fill="#CFAE58" opacity="0.16464543425559847"/>
  <circle cx="129.17142597168657" cy="506.8588511037695" r="5.15401416949678" fill="#CFAE58" opacity="0.16710435384899913"/>
  <circle cx="241.09518986007092" cy="401.8872019979633" r="4.234320698059912" fill="#CFAE58" opacity="0.11490523587597332"/>
  <circle cx="134.34742120072514" cy="97.05158059944823" r="4.926572085431579" fill="#CFAE58" opacity="0.1227587890080287"/>
  <circle cx="582.7975104431468" cy="152.43290836624587" r="5.173041602068075" fill="#CFAE58" opacity="0.1819102374714842"/>
  <circle cx="1144.5403156522796" cy="176.04183779011052" r="4.681312129317942" fill="#CFAE58" opacity="0.13178061578775963"/>
  <circle cx="595.3609779361324" cy="575.6604773755865" r="3.3926853235489123" fill="#CFAE58" opacity="0.20210821245811905"/>
  <circle cx="822.880174739679" cy="385.0595603151371" r="3.918057101274165" fill="#CFAE58" opacity="0.24772552438027678"/>
  <circle cx="903.3339893882965" cy="302.4083689428457" r="3.0773124669704197" fill="#CFAE58" opacity="0.20079599447241986"/>
  <circle cx="575.3380639221261" cy="247.6355681788607" r="4.549287671651034" fill="#CFAE58" opacity="0.23524534935153235"/>
  <circle cx="319.5091745126702" cy="364.9621263934038" r="5.269965650770826" fill="#CFAE58" opacity="0.17422629415440133"/>
  <circle cx="693.7486030626918" cy="359.0251930791838" r="4.830890519901878" fill="#CFAE58" opacity="0.2152367271759375"/>
  <circle cx="841.7891633162512" cy="3.664854887563742" r="4.327445101206203" fill="#CFAE58" opacity="0.24926513586304314"/>
  <circle cx="280.21421221218185" cy="295.34447387416975" r="4.336221617186184" fill="#CFAE58" opacity="0.18426929207080067"/>
  <circle cx="847.0356964870963" cy="261.0400188466373" r="3.1836922566893007" fill="#CFAE58" opacity="0.2081297087495332"/>
  <circle cx="1030.057262420494" cy="593.81341702054" r="4.1794217257902755" fill="#CFAE58" opacity="0.16185646194254574"/>
  <circle cx="610.5802599359446" cy="222.5552293568273" r="3.6221684217398673" fill="#CFAE58" opacity="0.24012810866771248"/>
  <circle cx="286.1621919920987" cy="447.3575825276111" r="4.5670996542308355" fill="#CFAE58" opacity="0.1721589580163851"/>
  <circle cx="1085.8409245227674" cy="526.503810971676" r="4.0314958995495145" fill="#CFAE58" opacity="0.15305144881114094"/>
  <circle cx="1098.8415525648174" cy="543.2802982473723" r="5.670907907840284" fill="#CFAE58" opacity="0.14456149597535062"/>
  <circle cx="731.8036408472691" cy="513.8627960837948" r="4.519002403885905" fill="#CFAE58" opacity="0.2271475909992706"/>
  <circle cx="1076.8736759856556" cy="295.72084914042887" r="4.321488874053882" fill="#CFAE58" opacity="0.14744417790259048"/>

  <!-- Border with glow -->
  <rect x="40" y="40" width="1120" height="550" fill="none" stroke="url(#goldGradient)" stroke-width="3" rx="12" filter="url(#softGlow)"/>

  <!-- Icon circle with premium background -->
  <circle cx="150" cy="200" r="75" fill="#CFAE58" opacity="0.15" filter="url(#softGlow)"/>
  <circle cx="150" cy="200" r="70" fill="#CFAE58" opacity="0.25"/>
  <text x="150" y="235" font-size="90" text-anchor="middle" fill="#CFAE58" filter="url(#glow)">❓</text>

  <!-- Premium logo (crown) with enhanced styling -->
  <g transform="translate(100, 70)">
    <path d="M 30 20 L 40 35 L 35 35 Z M 50 15 L 60 35 L 45 35 Z M 65 20 L 75 35 L 70 35 Z M 30 35 L 75 35 L 73 45 L 32 45 Z"
          fill="url(#goldGradient)" filter="url(#glow)" stroke="#B89842" stroke-width="0.5"/>
    <circle cx="40" cy="25" r="3" fill="#4FD1C5" filter="url(#glow)"/>
    <circle cx="52" cy="20" r="4" fill="#4FD1C5" filter="url(#glow)"/>
    <circle cx="65" cy="25" r="3" fill="#4FD1C5" filter="url(#glow)"/>
  </g>

  <!-- Title with shadow -->
  <text x="280" y="180" font-family="Georgia, serif" font-size="72" font-weight="bold"
        fill="url(#goldGradient)" filter="url(#shadow)">FAQ</text>

  <!-- Subtitle with subtle glow -->
  <text x="280" y="230" font-family="Arial, sans-serif" font-size="36"
        fill="#D6DEE6" opacity="0.95" filter="url(#softGlow)">Frequently Asked Questions</text>

  <!-- Brand name with letter spacing -->
  <text x="280" y="300" font-family="Georgia, serif" font-size="32" font-weight="bold"
        fill="#CFAE58" letter-spacing="4" filter="url(#glow)">ROYAL KETA</text>

  <!-- Russian tagline -->
  <text x="280" y="340" font-family="Arial, sans-serif" font-size="22" font-style="italic"
        fill="#8B95A1" opacity="0.8">От икринки к королевской</text>

  <!-- Location -->
  <text x="280" y="380" font-family="Arial, sans-serif" font-size="20"
        fill="#8B95A1" opacity="0.7">Невельский район, Сахалин</text>

  <!-- Website with glow -->
  <text x="100" y="570" font-family="Arial, sans-serif" font-size="30" font-weight="bold"
        fill="#4FD1C5" filter="url(#glow)">royalketa.com</text>

  <!-- Enhanced decorative salmon silhouette -->
  <g transform="translate(950, 480)" opacity="0.2" filter="url(#softGlow)">
    <ellipse cx="0" cy="0" rx="90" ry="35" fill="#CFAE58"/>
    <path d="M 90 0 L 120 -18 L 130 0 L 120 18 Z" fill="#CFAE58"/>
    <path d="M -25 -35 L 0 -45 L 25 -35 Z" fill="#CFAE58"/>
    <ellipse cx="-50" cy="0" rx="15" ry="12" fill="#0B0F14"/>
  </g>

  <!-- Additional decorative caviar clusters -->
  <g opacity="0.2">
    <circle cx="1050" cy="120" r="6" fill="#CFAE58"/>
    <circle cx="1065" cy="115" r="5" fill="#CFAE58"/>
    <circle cx="1058" cy="130" r="4" fill="#CFAE58"/>
    <circle cx="150" cy="500" r="5" fill="#4FD1C5"/>
    <circle cx="165" cy="508" r="4" fill="#4FD1C5"/>
    <circle cx="140" cy="512" r="5" fill="#4FD1C5"/>
  </g>
</svg>