<svg width="1200" height="630" xmlns="http://www.w3.org/2000/svg">
  <defs>
    <linearGradient id="bgGradient" x1="0%" y1="0%" x2="100%" y2="100%">
      <stop offset="0%" style="stop-color:#0B0F14;stop-opacity:1" />
      <stop offset="50%" style="stop-color:#0F1619;stop-opacity:1" />
      <stop offset="100%" style="stop-color:#0F1922;stop-opacity:1" />
    </linearGradient>
    <linearGradient id="goldGradient" x1="0%" y1="0%" x2="100%" y2="0%">
      <stop offset="0%" style="stop-color:#E5D596;stop-opacity:1" />
      <stop offset="50%" style="stop-color:#CFAE58;stop-opacity:1" />
      <stop offset="100%" style="stop-color:#B89842;stop-opacity:1" />
    </linearGradient>
    <radialGradient id="oceanGradient" cx="50%" cy="50%" r="50%">
      <stop offset="0%" style="stop-color:#4FD1C5;stop-opacity:0.3" />
      <stop offset="100%" style="stop-color:#1E90A0;stop-opacity:0.05" />
    </radialGradient>
    <filter id="glow">
      <feGaussianBlur stdDeviation="5" result="coloredBlur"/>
      <feMerge>
        <feMergeNode in="coloredBlur"/>
        <feMergeNode in="SourceGraphic"/>
      </feMerge>
    </filter>
    <filter id="softGlow">
      <feGaussianBlur stdDeviation="8" result="coloredBlur"/>
      <feMerge>
        <feMergeNode in="coloredBlur"/>
        <feMergeNode in="SourceGraphic"/>
      </feMerge>
    </filter>
    <filter id="shadow">
      <feDropShadow dx="0" dy="4" stdDeviation="8" flood-color="#000000" flood-opacity="0.5"/>
    </filter>
  </defs>

  <!-- Background -->
  <rect width="1200" height="630" fill="url(#bgGradient)"/>

  <!-- Decorative ocean gradients -->
  <ellipse cx="1000" cy="150" rx="300" ry="200" fill="url(#oceanGradient)" opacity="0.4"/>
  <ellipse cx="200" cy="530" rx="250" ry="180" fill="url(#oceanGradient)" opacity="0.3"/>

  <!-- Wave patterns -->
  <path d="M 0 400 Q 300 350 600 400 T 1200 400 L 1200 630 L 0 630 Z" fill="#1E90A0" opacity="0.08"/>
  <path d="M 0 450 Q 250 420 500 450 T 1000 450 T 1200 450 L 1200 630 L 0 630 Z" fill="#4FD1C5" opacity="0.05"/>

  <!-- Caviar roe particles -->
  <circle cx="547.6072910193154" cy="392.8616451689842" r="3.6629416963326342" fill="#CFAE58" opacity="0.24670142044067866"/>
  <circle cx="1026.8663826245502" cy="489.0436543044742" r="2.568900215910611" fill="#CFAE58" opacity="0.23850357039086142"/>
  <circle cx="363.4662984868006" cy="484.48764435569655" r="2.1297585984624527" fill="#CFAE58" opacity="0.14514918636689772"/>
  <circle cx="731.2225155961277" cy="107.74442114733105" r="4.777498248881111" fill="#CFAE58" opacity="0.1413183902779509"/>
  <circle cx="109.86469399938228" cy="423.3184248206224" r="5.054841266836529" fill="#CFAE58" opacity="0.10237628376762889"/>
  <circle cx="985.475933751756" cy="606.4325975959999" r="4.985469153629176" fill="#CFAE58" opacity="0.23181028954242752"/>
  <circle cx="178.76865515904137" cy="253.2946377174223" r="3.319699802871693" fill="#CFAE58" opacity="0.16987748633938726"/>
  <circle cx="849.3220690732644" cy="285.19415461970783" r="2.240038293526898" fill="#CFAE58" opacity="0.18179108438722402"/>
  <circle cx="292.01584747156033" cy="341.53410377935836" r="2.6355979967498886" fill="#CFAE58" opacity="0.14894255301112935"/>
  <circle cx="362.7843206589762" cy="165.48275363449966" r="4.35880975550432" fill="#CFAE58" opacity="0.17832362021271553"/>
  <circle cx="1173.555122877762" cy="548.0607720450664" r="4.469416489628362" fill="#CFAE58" opacity="0.10857422301401075"/>
  <circle cx="142.1673143211134" cy="502.23341388574187" r="5.807736460007673" fill="#CFAE58" opacity="0.13636960995248879"/>
  <circle cx="792.4619283584747" cy="27.94093901865485" r="5.96902864485072" fill="#CFAE58" opacity="0.17449995650567446"/>
  <circle cx="251.1245306782963" cy="240.6030663172457" r="4.352171307194809" fill="#CFAE58" opacity="0.20748588295430764"/>
  <circle cx="779.4407172583207" cy="319.2134816185574" r="4.364783616104278" fill="#CFAE58" opacity="0.14747242237823202"/>
  <circle cx="1082.0463362407957" cy="554.7705749822147" r="4.968462814135663" fill="#CFAE58" opacity="0.1515116997635875"/>
  <circle cx="2.611386744891231" cy="456.19192793972553" r="4.36388167477425" fill="#CFAE58" opacity="0.16896600171330445"/>
  <circle cx="498.18685543224257" cy="614.500922763904" r="4.463818576852049" fill="#CFAE58" opacity="0.21240025505781934"/>
  <circle cx="620.0145095954307" cy="460.67759714419526" r="5.29246708332346" fill="#CFAE58" opacity="0.19729099531363423"/>
  <circle cx="861.2176554389382" cy="356.67240361526433" r="2.9912901374506538" fill="#CFAE58" opacity="0.12152791995095232"/>
  <circle cx="197.1306602027311" cy="119.68375715673002" r="2.6805821380218373" fill="#CFAE58" opacity="0.2091735356598705"/>
  <circle cx="937.0098118994005" cy="19.513224494976104" r="5.75217637451113" fill="#CFAE58" opacity="0.22025731021655007"/>
  <circle cx="422.0234016449387" cy="593.9826085587957" r="3.094650233831723" fill="#CFAE58" opacity="0.1008818336872257"/>
  <circle cx="433.4332622432777" cy="501.16236566853996" r="5.295137057440464" fill="#CFAE58" opacity="0.20293058838645134"/>
  <circle cx="251.3758113101628" cy="88.69106263985006" r="3.919069967177333" fill="#CFAE58" opacity="0.1955125151564649"/>
  <circle cx="173.24094612811288" cy="441.21701476608183" r="2.8649476187384586" fill="#CFAE58" opacity="0.11592591325086168"/>
  <circle cx="1046.617548463635" cy="171.07409712548218" r="2.3357441718676606" fill="#CFAE58" opacity="0.12505779524083768"/>
  <circle cx="333.5741716933012" cy="342.56229735679665" r="2.2423332996600203" fill="#CFAE58" opacity="0.14955261015297378"/>
  <circle cx="888.9341212929974" cy="280.9137179421273" r="4.579572399280549" fill="#CFAE58" opacity="0.21947501503198596"/>
  <circle cx="389.6197188263772" cy="598.2487708898931" r="2.457913751316366" fill="#CFAE58" opacity="0.13876281393040613"/>

  <!-- Border with glow -->
  <rect x="40" y="40" width="1120" height="550" fill="none" stroke="url(#goldGradient)" stroke-width="3" rx="12" filter="url(#softGlow)"/>

  <!-- Icon circle with premium background -->
  <circle cx="150" cy="200" r="75" fill="#CFAE58" opacity="0.15" filter="url(#softGlow)"/>
  <circle cx="150" cy="200" r="70" fill="#CFAE58" opacity="0.25"/>
  <text x="150" y="235" font-size="90" text-anchor="middle" fill="#CFAE58" filter="url(#glow)">❓</text>

  <!-- Premium logo (crown) with enhanced styling -->
  <g transform="translate(100, 70)">
    <path d="M 30 20 L 40 35 L 35 35 Z M 50 15 L 60 35 L 45 35 Z M 65 20 L 75 35 L 70 35 Z M 30 35 L 75 35 L 73 45 L 32 45 Z"
          fill="url(#goldGradient)" filter="url(#glow)" stroke="#B89842" stroke-width="0.5"/>
    <circle cx="40" cy="25" r="3" fill="#4FD1C5" filter="url(#glow)"/>
    <circle cx="52" cy="20" r="4" fill="#4FD1C5" filter="url(#glow)"/>
    <circle cx="65" cy="25" r="3" fill="#4FD1C5" filter="url(#glow)"/>
  </g>

  <!-- Title with shadow -->
  <text x="280" y="180" font-family="Georgia, serif" font-size="72" font-weight="bold"
        fill="url(#goldGradient)" filter="url(#shadow)">FAQ</text>

  <!-- Subtitle with subtle glow -->
  <text x="280" y="230" font-family="Arial, sans-serif" font-size="36"
        fill="#D6DEE6" opacity="0.95" filter="url(#softGlow)">Frequently Asked Questions</text>

  <!-- Brand name with letter spacing -->
  <text x="280" y="300" font-family="Georgia, serif" font-size="32" font-weight="bold"
        fill="#CFAE58" letter-spacing="4" filter="url(#glow)">ROYAL KETA</text>

  <!-- Russian tagline -->
  <text x="280" y="340" font-family="Arial, sans-serif" font-size="22" font-style="italic"
        fill="#8B95A1" opacity="0.8">От икринки к королевской</text>

  <!-- Location -->
  <text x="280" y="380" font-family="Arial, sans-serif" font-size="20"
        fill="#8B95A1" opacity="0.7">Невельский район, Сахалин</text>

  <!-- Website with glow -->
  <text x="100" y="570" font-family="Arial, sans-serif" font-size="30" font-weight="bold"
        fill="#4FD1C5" filter="url(#glow)">royalketa.com</text>

  <!-- Enhanced decorative salmon silhouette -->
  <g transform="translate(950, 480)" opacity="0.2" filter="url(#softGlow)">
    <ellipse cx="0" cy="0" rx="90" ry="35" fill="#CFAE58"/>
    <path d="M 90 0 L 120 -18 L 130 0 L 120 18 Z" fill="#CFAE58"/>
    <path d="M -25 -35 L 0 -45 L 25 -35 Z" fill="#CFAE58"/>
    <ellipse cx="-50" cy="0" rx="15" ry="12" fill="#0B0F14"/>
  </g>

  <!-- Additional decorative caviar clusters -->
  <g opacity="0.2">
    <circle cx="1050" cy="120" r="6" fill="#CFAE58"/>
    <circle cx="1065" cy="115" r="5" fill="#CFAE58"/>
    <circle cx="1058" cy="130" r="4" fill="#CFAE58"/>
    <circle cx="150" cy="500" r="5" fill="#4FD1C5"/>
    <circle cx="165" cy="508" r="4" fill="#4FD1C5"/>
    <circle cx="140" cy="512" r="5" fill="#4FD1C5"/>
  </g>
</svg>