<svg width="1200" height="630" xmlns="http://www.w3.org/2000/svg">
  <defs>
    <linearGradient id="bgGradient" x1="0%" y1="0%" x2="100%" y2="100%">
      <stop offset="0%" style="stop-color:#0B0F14;stop-opacity:1" />
      <stop offset="50%" style="stop-color:#0F1619;stop-opacity:1" />
      <stop offset="100%" style="stop-color:#0F1922;stop-opacity:1" />
    </linearGradient>
    <linearGradient id="goldGradient" x1="0%" y1="0%" x2="100%" y2="0%">
      <stop offset="0%" style="stop-color:#E5D596;stop-opacity:1" />
      <stop offset="50%" style="stop-color:#CFAE58;stop-opacity:1" />
      <stop offset="100%" style="stop-color:#B89842;stop-opacity:1" />
    </linearGradient>
    <radialGradient id="oceanGradient" cx="50%" cy="50%" r="50%">
      <stop offset="0%" style="stop-color:#4FD1C5;stop-opacity:0.3" />
      <stop offset="100%" style="stop-color:#1E90A0;stop-opacity:0.05" />
    </radialGradient>
    <filter id="glow">
      <feGaussianBlur stdDeviation="5" result="coloredBlur"/>
      <feMerge>
        <feMergeNode in="coloredBlur"/>
        <feMergeNode in="SourceGraphic"/>
      </feMerge>
    </filter>
    <filter id="softGlow">
      <feGaussianBlur stdDeviation="8" result="coloredBlur"/>
      <feMerge>
        <feMergeNode in="coloredBlur"/>
        <feMergeNode in="SourceGraphic"/>
      </feMerge>
    </filter>
    <filter id="shadow">
      <feDropShadow dx="0" dy="4" stdDeviation="8" flood-color="#000000" flood-opacity="0.5"/>
    </filter>
  </defs>

  <!-- Background -->
  <rect width="1200" height="630" fill="url(#bgGradient)"/>

  <!-- Decorative ocean gradients -->
  <ellipse cx="1000" cy="150" rx="300" ry="200" fill="url(#oceanGradient)" opacity="0.4"/>
  <ellipse cx="200" cy="530" rx="250" ry="180" fill="url(#oceanGradient)" opacity="0.3"/>

  <!-- Wave patterns -->
  <path d="M 0 400 Q 300 350 600 400 T 1200 400 L 1200 630 L 0 630 Z" fill="#1E90A0" opacity="0.08"/>
  <path d="M 0 450 Q 250 420 500 450 T 1000 450 T 1200 450 L 1200 630 L 0 630 Z" fill="#4FD1C5" opacity="0.05"/>

  <!-- Caviar roe particles -->
  <circle cx="692.9850703297931" cy="409.2346269823527" r="4.556681912830901" fill="#CFAE58" opacity="0.22074117297169701"/>
  <circle cx="798.2114955629571" cy="24.57373378512033" r="3.3114432997120224" fill="#CFAE58" opacity="0.20294253753742714"/>
  <circle cx="880.617365599833" cy="73.54414798048869" r="2.0924914550575107" fill="#CFAE58" opacity="0.1734675895482859"/>
  <circle cx="687.1727820877027" cy="522.8086455509405" r="2.814550136740707" fill="#CFAE58" opacity="0.1701926337279896"/>
  <circle cx="918.8337608790321" cy="574.1905633204126" r="4.450465532969653" fill="#CFAE58" opacity="0.24838626743678788"/>
  <circle cx="246.5070725336437" cy="77.42766961802305" r="2.9340544047843995" fill="#CFAE58" opacity="0.17152592008745704"/>
  <circle cx="1109.49835929698" cy="108.12389205148641" r="5.236371532999884" fill="#CFAE58" opacity="0.2361818680060322"/>
  <circle cx="183.31017511950088" cy="468.83431201257173" r="2.895566286120676" fill="#CFAE58" opacity="0.14788107581414411"/>
  <circle cx="980.4007137697963" cy="388.617923563807" r="3.3425488940021415" fill="#CFAE58" opacity="0.23894703051618185"/>
  <circle cx="899.6642629454598" cy="482.10729685076365" r="4.78198852767612" fill="#CFAE58" opacity="0.15738339536013754"/>
  <circle cx="157.62519068780153" cy="540.3951243803391" r="3.8577363729993093" fill="#CFAE58" opacity="0.21929876331099818"/>
  <circle cx="817.9440127722797" cy="484.0175923026792" r="2.8865100488481117" fill="#CFAE58" opacity="0.1850087241984737"/>
  <circle cx="1061.706346929959" cy="129.0426522215982" r="2.0662502389022483" fill="#CFAE58" opacity="0.11306788591600989"/>
  <circle cx="118.61587198953387" cy="440.7086900332995" r="2.0135458307876553" fill="#CFAE58" opacity="0.15274542415068038"/>
  <circle cx="723.3840110962133" cy="419.9212245000671" r="4.241797803970839" fill="#CFAE58" opacity="0.19513454787860002"/>
  <circle cx="856.8196691150432" cy="309.6162044133654" r="3.0626228135393885" fill="#CFAE58" opacity="0.10576013662610963"/>
  <circle cx="297.8698892689929" cy="477.704705132002" r="5.433867049074414" fill="#CFAE58" opacity="0.12956515259616078"/>
  <circle cx="438.40051231032623" cy="167.4323079860628" r="2.753840047293685" fill="#CFAE58" opacity="0.12576659394940037"/>
  <circle cx="216.66570799262814" cy="290.02909348266354" r="4.77159972957077" fill="#CFAE58" opacity="0.17044138437004247"/>
  <circle cx="665.6124498606281" cy="189.61420712136228" r="2.97967528971999" fill="#CFAE58" opacity="0.17798996502355352"/>
  <circle cx="1082.6036974942726" cy="290.08316448742704" r="4.285858633690367" fill="#CFAE58" opacity="0.10592372885800787"/>
  <circle cx="194.97208994526343" cy="603.0730447741144" r="2.705158683877168" fill="#CFAE58" opacity="0.1698875788188755"/>
  <circle cx="386.7097423018734" cy="284.83799492655055" r="3.9158708366763038" fill="#CFAE58" opacity="0.114228833938455"/>
  <circle cx="450.13590016675937" cy="0.8356184427095381" r="5.506415129120224" fill="#CFAE58" opacity="0.22327670806733163"/>
  <circle cx="399.7552018378763" cy="144.54738934615867" r="3.638916505728795" fill="#CFAE58" opacity="0.12904623847865848"/>
  <circle cx="228.4531707644988" cy="521.9405883237197" r="4.838618906215564" fill="#CFAE58" opacity="0.15083734184733144"/>
  <circle cx="180.79301452604759" cy="503.3699208200834" r="4.79249493896161" fill="#CFAE58" opacity="0.18698575344967006"/>
  <circle cx="828.3059960988313" cy="129.0996385956811" r="4.985374085264683" fill="#CFAE58" opacity="0.12986664280396742"/>
  <circle cx="1016.7652605102091" cy="321.88394165713567" r="5.233085909495639" fill="#CFAE58" opacity="0.17962543003438503"/>
  <circle cx="401.6535918959573" cy="115.6233563252847" r="5.520299244852575" fill="#CFAE58" opacity="0.2134756813371878"/>

  <!-- Border with glow -->
  <rect x="40" y="40" width="1120" height="550" fill="none" stroke="url(#goldGradient)" stroke-width="3" rx="12" filter="url(#softGlow)"/>

  <!-- Icon circle with premium background -->
  <circle cx="150" cy="200" r="75" fill="#CFAE58" opacity="0.15" filter="url(#softGlow)"/>
  <circle cx="150" cy="200" r="70" fill="#CFAE58" opacity="0.25"/>
  <text x="150" y="235" font-size="90" text-anchor="middle" fill="#CFAE58" filter="url(#glow)">❓</text>

  <!-- Premium logo (crown) with enhanced styling -->
  <g transform="translate(100, 70)">
    <path d="M 30 20 L 40 35 L 35 35 Z M 50 15 L 60 35 L 45 35 Z M 65 20 L 75 35 L 70 35 Z M 30 35 L 75 35 L 73 45 L 32 45 Z"
          fill="url(#goldGradient)" filter="url(#glow)" stroke="#B89842" stroke-width="0.5"/>
    <circle cx="40" cy="25" r="3" fill="#4FD1C5" filter="url(#glow)"/>
    <circle cx="52" cy="20" r="4" fill="#4FD1C5" filter="url(#glow)"/>
    <circle cx="65" cy="25" r="3" fill="#4FD1C5" filter="url(#glow)"/>
  </g>

  <!-- Title with shadow -->
  <text x="280" y="180" font-family="Georgia, serif" font-size="72" font-weight="bold"
        fill="url(#goldGradient)" filter="url(#shadow)">FAQ</text>

  <!-- Subtitle with subtle glow -->
  <text x="280" y="230" font-family="Arial, sans-serif" font-size="36"
        fill="#D6DEE6" opacity="0.95" filter="url(#softGlow)">Frequently Asked Questions</text>

  <!-- Brand name with letter spacing -->
  <text x="280" y="300" font-family="Georgia, serif" font-size="32" font-weight="bold"
        fill="#CFAE58" letter-spacing="4" filter="url(#glow)">ROYAL KETA</text>

  <!-- Russian tagline -->
  <text x="280" y="340" font-family="Arial, sans-serif" font-size="22" font-style="italic"
        fill="#8B95A1" opacity="0.8">От икринки к королевской</text>

  <!-- Location -->
  <text x="280" y="380" font-family="Arial, sans-serif" font-size="20"
        fill="#8B95A1" opacity="0.7">Невельский район, Сахалин</text>

  <!-- Website with glow -->
  <text x="100" y="570" font-family="Arial, sans-serif" font-size="30" font-weight="bold"
        fill="#4FD1C5" filter="url(#glow)">royalketa.com</text>

  <!-- Enhanced decorative salmon silhouette -->
  <g transform="translate(950, 480)" opacity="0.2" filter="url(#softGlow)">
    <ellipse cx="0" cy="0" rx="90" ry="35" fill="#CFAE58"/>
    <path d="M 90 0 L 120 -18 L 130 0 L 120 18 Z" fill="#CFAE58"/>
    <path d="M -25 -35 L 0 -45 L 25 -35 Z" fill="#CFAE58"/>
    <ellipse cx="-50" cy="0" rx="15" ry="12" fill="#0B0F14"/>
  </g>

  <!-- Additional decorative caviar clusters -->
  <g opacity="0.2">
    <circle cx="1050" cy="120" r="6" fill="#CFAE58"/>
    <circle cx="1065" cy="115" r="5" fill="#CFAE58"/>
    <circle cx="1058" cy="130" r="4" fill="#CFAE58"/>
    <circle cx="150" cy="500" r="5" fill="#4FD1C5"/>
    <circle cx="165" cy="508" r="4" fill="#4FD1C5"/>
    <circle cx="140" cy="512" r="5" fill="#4FD1C5"/>
  </g>
</svg>