<svg width="1200" height="630" xmlns="http://www.w3.org/2000/svg">
  <defs>
    <linearGradient id="bgGradient" x1="0%" y1="0%" x2="100%" y2="100%">
      <stop offset="0%" style="stop-color:#0B0F14;stop-opacity:1" />
      <stop offset="50%" style="stop-color:#0F1619;stop-opacity:1" />
      <stop offset="100%" style="stop-color:#0F1922;stop-opacity:1" />
    </linearGradient>
    <linearGradient id="goldGradient" x1="0%" y1="0%" x2="100%" y2="0%">
      <stop offset="0%" style="stop-color:#E5D596;stop-opacity:1" />
      <stop offset="50%" style="stop-color:#CFAE58;stop-opacity:1" />
      <stop offset="100%" style="stop-color:#B89842;stop-opacity:1" />
    </linearGradient>
    <radialGradient id="oceanGradient" cx="50%" cy="50%" r="50%">
      <stop offset="0%" style="stop-color:#4FD1C5;stop-opacity:0.3" />
      <stop offset="100%" style="stop-color:#1E90A0;stop-opacity:0.05" />
    </radialGradient>
    <filter id="glow">
      <feGaussianBlur stdDeviation="5" result="coloredBlur"/>
      <feMerge>
        <feMergeNode in="coloredBlur"/>
        <feMergeNode in="SourceGraphic"/>
      </feMerge>
    </filter>
    <filter id="softGlow">
      <feGaussianBlur stdDeviation="8" result="coloredBlur"/>
      <feMerge>
        <feMergeNode in="coloredBlur"/>
        <feMergeNode in="SourceGraphic"/>
      </feMerge>
    </filter>
    <filter id="shadow">
      <feDropShadow dx="0" dy="4" stdDeviation="8" flood-color="#000000" flood-opacity="0.5"/>
    </filter>
  </defs>

  <!-- Background -->
  <rect width="1200" height="630" fill="url(#bgGradient)"/>

  <!-- Decorative ocean gradients -->
  <ellipse cx="1000" cy="150" rx="300" ry="200" fill="url(#oceanGradient)" opacity="0.4"/>
  <ellipse cx="200" cy="530" rx="250" ry="180" fill="url(#oceanGradient)" opacity="0.3"/>

  <!-- Wave patterns -->
  <path d="M 0 400 Q 300 350 600 400 T 1200 400 L 1200 630 L 0 630 Z" fill="#1E90A0" opacity="0.08"/>
  <path d="M 0 450 Q 250 420 500 450 T 1000 450 T 1200 450 L 1200 630 L 0 630 Z" fill="#4FD1C5" opacity="0.05"/>

  <!-- Caviar roe particles -->
  <circle cx="295.8835842189762" cy="470.91840272159396" r="3.340779225424589" fill="#CFAE58" opacity="0.23513550247601564"/>
  <circle cx="234.23216487565713" cy="182.50400632043363" r="4.714340132477344" fill="#CFAE58" opacity="0.11372799172179729"/>
  <circle cx="378.1185597031099" cy="408.96968316201566" r="2.5885943531654787" fill="#CFAE58" opacity="0.20831506070956587"/>
  <circle cx="1063.4125469300304" cy="555.510658264505" r="4.896241058098594" fill="#CFAE58" opacity="0.13950202061469072"/>
  <circle cx="488.37598381456434" cy="622.6707228737246" r="5.843051137158934" fill="#CFAE58" opacity="0.2095969504662374"/>
  <circle cx="847.9107823838405" cy="562.9239760823868" r="2.3812099848350567" fill="#CFAE58" opacity="0.13601553600805547"/>
  <circle cx="677.6465476540436" cy="612.0011901703774" r="2.024157244165428" fill="#CFAE58" opacity="0.1751810575894589"/>
  <circle cx="855.8498691656542" cy="47.42570430993918" r="5.476962796117455" fill="#CFAE58" opacity="0.21029648384978955"/>
  <circle cx="229.33807205787744" cy="554.3788504207654" r="5.204189354033834" fill="#CFAE58" opacity="0.11494103445469353"/>
  <circle cx="1038.929849380569" cy="307.33207981752037" r="2.5868666261545408" fill="#CFAE58" opacity="0.20086945816614216"/>
  <circle cx="575.6604124253042" cy="256.90193878702274" r="4.628805984893763" fill="#CFAE58" opacity="0.22009787648075027"/>
  <circle cx="998.9049474603094" cy="321.72203687021084" r="3.1218586274073776" fill="#CFAE58" opacity="0.18812902554332256"/>
  <circle cx="73.9511302028387" cy="401.11630749347245" r="3.972937501007972" fill="#CFAE58" opacity="0.14516270582063132"/>
  <circle cx="3.5841753230614337" cy="16.06483404757347" r="5.9243493032123" fill="#CFAE58" opacity="0.1768000035598783"/>
  <circle cx="1068.4196389320566" cy="592.6067548813011" r="4.723637456916798" fill="#CFAE58" opacity="0.10185525475804857"/>
  <circle cx="149.57623923411427" cy="419.5294403669007" r="4.418290703240492" fill="#CFAE58" opacity="0.19553316075252358"/>
  <circle cx="566.2499791066227" cy="323.7960299702451" r="3.2923453634901683" fill="#CFAE58" opacity="0.15934399434229296"/>
  <circle cx="396.67545152596324" cy="453.43303187076293" r="5.370608440419911" fill="#CFAE58" opacity="0.1964741908504506"/>
  <circle cx="45.6940769519909" cy="150.75596869043008" r="3.8866726388429957" fill="#CFAE58" opacity="0.17070832680809545"/>
  <circle cx="47.95332522735585" cy="445.24033885503354" r="5.7600866825356505" fill="#CFAE58" opacity="0.18001898169877523"/>
  <circle cx="10.353681074500809" cy="590.6191717892532" r="3.0049847021858715" fill="#CFAE58" opacity="0.14522751364529635"/>
  <circle cx="649.6850296700233" cy="567.9912641261077" r="3.9377231902284815" fill="#CFAE58" opacity="0.23076445352500935"/>
  <circle cx="673.1972944231413" cy="589.0457394510694" r="2.597809922914619" fill="#CFAE58" opacity="0.2244644602839031"/>
  <circle cx="5.372707759958395" cy="146.04042839409817" r="5.948371780574249" fill="#CFAE58" opacity="0.16115668451375464"/>
  <circle cx="124.92535912971583" cy="41.10439919096187" r="5.754758824307007" fill="#CFAE58" opacity="0.1242661557332442"/>
  <circle cx="297.3729943894954" cy="349.9865430002797" r="3.605606003705299" fill="#CFAE58" opacity="0.13526534136761867"/>
  <circle cx="984.3534769913992" cy="73.93844605778067" r="4.9991447627849634" fill="#CFAE58" opacity="0.11185746866566867"/>
  <circle cx="609.6179241790271" cy="376.7278691849645" r="3.1667162509654436" fill="#CFAE58" opacity="0.17114165426430517"/>
  <circle cx="838.600803067479" cy="451.9751507643154" r="5.162722973415923" fill="#CFAE58" opacity="0.1123557819633391"/>
  <circle cx="1025.8644135563002" cy="592.4057586410335" r="4.1500266268468025" fill="#CFAE58" opacity="0.2235744596299471"/>

  <!-- Border with glow -->
  <rect x="40" y="40" width="1120" height="550" fill="none" stroke="url(#goldGradient)" stroke-width="3" rx="12" filter="url(#softGlow)"/>

  <!-- Icon circle with premium background -->
  <circle cx="150" cy="200" r="75" fill="#CFAE58" opacity="0.15" filter="url(#softGlow)"/>
  <circle cx="150" cy="200" r="70" fill="#CFAE58" opacity="0.25"/>
  <text x="150" y="235" font-size="90" text-anchor="middle" fill="#CFAE58" filter="url(#glow)">❓</text>

  <!-- Premium logo (crown) with enhanced styling -->
  <g transform="translate(100, 70)">
    <path d="M 30 20 L 40 35 L 35 35 Z M 50 15 L 60 35 L 45 35 Z M 65 20 L 75 35 L 70 35 Z M 30 35 L 75 35 L 73 45 L 32 45 Z"
          fill="url(#goldGradient)" filter="url(#glow)" stroke="#B89842" stroke-width="0.5"/>
    <circle cx="40" cy="25" r="3" fill="#4FD1C5" filter="url(#glow)"/>
    <circle cx="52" cy="20" r="4" fill="#4FD1C5" filter="url(#glow)"/>
    <circle cx="65" cy="25" r="3" fill="#4FD1C5" filter="url(#glow)"/>
  </g>

  <!-- Title with shadow -->
  <text x="280" y="180" font-family="Georgia, serif" font-size="72" font-weight="bold"
        fill="url(#goldGradient)" filter="url(#shadow)">FAQ</text>

  <!-- Subtitle with subtle glow -->
  <text x="280" y="230" font-family="Arial, sans-serif" font-size="36"
        fill="#D6DEE6" opacity="0.95" filter="url(#softGlow)">Frequently Asked Questions</text>

  <!-- Brand name with letter spacing -->
  <text x="280" y="300" font-family="Georgia, serif" font-size="32" font-weight="bold"
        fill="#CFAE58" letter-spacing="4" filter="url(#glow)">ROYAL KETA</text>

  <!-- Russian tagline -->
  <text x="280" y="340" font-family="Arial, sans-serif" font-size="22" font-style="italic"
        fill="#8B95A1" opacity="0.8">От икринки к королевской</text>

  <!-- Location -->
  <text x="280" y="380" font-family="Arial, sans-serif" font-size="20"
        fill="#8B95A1" opacity="0.7">Невельский район, Сахалин</text>

  <!-- Website with glow -->
  <text x="100" y="570" font-family="Arial, sans-serif" font-size="30" font-weight="bold"
        fill="#4FD1C5" filter="url(#glow)">royalketa.com</text>

  <!-- Enhanced decorative salmon silhouette -->
  <g transform="translate(950, 480)" opacity="0.2" filter="url(#softGlow)">
    <ellipse cx="0" cy="0" rx="90" ry="35" fill="#CFAE58"/>
    <path d="M 90 0 L 120 -18 L 130 0 L 120 18 Z" fill="#CFAE58"/>
    <path d="M -25 -35 L 0 -45 L 25 -35 Z" fill="#CFAE58"/>
    <ellipse cx="-50" cy="0" rx="15" ry="12" fill="#0B0F14"/>
  </g>

  <!-- Additional decorative caviar clusters -->
  <g opacity="0.2">
    <circle cx="1050" cy="120" r="6" fill="#CFAE58"/>
    <circle cx="1065" cy="115" r="5" fill="#CFAE58"/>
    <circle cx="1058" cy="130" r="4" fill="#CFAE58"/>
    <circle cx="150" cy="500" r="5" fill="#4FD1C5"/>
    <circle cx="165" cy="508" r="4" fill="#4FD1C5"/>
    <circle cx="140" cy="512" r="5" fill="#4FD1C5"/>
  </g>
</svg>