<svg width="1200" height="630" xmlns="http://www.w3.org/2000/svg">
  <defs>
    <linearGradient id="bgGradient" x1="0%" y1="0%" x2="100%" y2="100%">
      <stop offset="0%" style="stop-color:#0B0F14;stop-opacity:1" />
      <stop offset="50%" style="stop-color:#0F1619;stop-opacity:1" />
      <stop offset="100%" style="stop-color:#0F1922;stop-opacity:1" />
    </linearGradient>
    <linearGradient id="goldGradient" x1="0%" y1="0%" x2="100%" y2="0%">
      <stop offset="0%" style="stop-color:#E5D596;stop-opacity:1" />
      <stop offset="50%" style="stop-color:#CFAE58;stop-opacity:1" />
      <stop offset="100%" style="stop-color:#B89842;stop-opacity:1" />
    </linearGradient>
    <radialGradient id="oceanGradient" cx="50%" cy="50%" r="50%">
      <stop offset="0%" style="stop-color:#4FD1C5;stop-opacity:0.3" />
      <stop offset="100%" style="stop-color:#1E90A0;stop-opacity:0.05" />
    </radialGradient>
    <filter id="glow">
      <feGaussianBlur stdDeviation="5" result="coloredBlur"/>
      <feMerge>
        <feMergeNode in="coloredBlur"/>
        <feMergeNode in="SourceGraphic"/>
      </feMerge>
    </filter>
    <filter id="softGlow">
      <feGaussianBlur stdDeviation="8" result="coloredBlur"/>
      <feMerge>
        <feMergeNode in="coloredBlur"/>
        <feMergeNode in="SourceGraphic"/>
      </feMerge>
    </filter>
    <filter id="shadow">
      <feDropShadow dx="0" dy="4" stdDeviation="8" flood-color="#000000" flood-opacity="0.5"/>
    </filter>
  </defs>

  <!-- Background -->
  <rect width="1200" height="630" fill="url(#bgGradient)"/>

  <!-- Decorative ocean gradients -->
  <ellipse cx="1000" cy="150" rx="300" ry="200" fill="url(#oceanGradient)" opacity="0.4"/>
  <ellipse cx="200" cy="530" rx="250" ry="180" fill="url(#oceanGradient)" opacity="0.3"/>

  <!-- Wave patterns -->
  <path d="M 0 400 Q 300 350 600 400 T 1200 400 L 1200 630 L 0 630 Z" fill="#1E90A0" opacity="0.08"/>
  <path d="M 0 450 Q 250 420 500 450 T 1000 450 T 1200 450 L 1200 630 L 0 630 Z" fill="#4FD1C5" opacity="0.05"/>

  <!-- Caviar roe particles -->
  <circle cx="1042.754944467283" cy="422.20890543824254" r="5.613561426526242" fill="#CFAE58" opacity="0.1739035343951933"/>
  <circle cx="1182.8373520808195" cy="168.65681406413302" r="5.698023476536536" fill="#CFAE58" opacity="0.22409203322059879"/>
  <circle cx="825.5467235430109" cy="33.597557417202914" r="3.4264258871695965" fill="#CFAE58" opacity="0.22203765856119134"/>
  <circle cx="1113.3014775159754" cy="593.3621471087271" r="3.7336804613674346" fill="#CFAE58" opacity="0.21515390915589888"/>
  <circle cx="666.4025032978236" cy="42.70992473625617" r="5.729513857051916" fill="#CFAE58" opacity="0.17856727498484526"/>
  <circle cx="461.1489833000329" cy="367.7052364780475" r="3.565568244495422" fill="#CFAE58" opacity="0.10996862428904496"/>
  <circle cx="1005.9936961222253" cy="460.3743167534107" r="4.089342073026401" fill="#CFAE58" opacity="0.20997286772180457"/>
  <circle cx="203.52345711536782" cy="613.054875194283" r="5.573453528379149" fill="#CFAE58" opacity="0.15097758695582336"/>
  <circle cx="289.51857896930295" cy="460.001760990604" r="4.625240413792123" fill="#CFAE58" opacity="0.1434910419037714"/>
  <circle cx="988.1710326066425" cy="590.1576761494678" r="3.9746939006822313" fill="#CFAE58" opacity="0.1807614760810195"/>
  <circle cx="190.5014807877558" cy="165.3109594628078" r="4.4361681647531634" fill="#CFAE58" opacity="0.14756142268375297"/>
  <circle cx="103.36587846220668" cy="361.1804171063357" r="2.8563021160893296" fill="#CFAE58" opacity="0.2217742816452003"/>
  <circle cx="1101.591120356987" cy="563.946100160101" r="3.8355357559651813" fill="#CFAE58" opacity="0.12401408054860943"/>
  <circle cx="1020.9495330109597" cy="256.84695333576144" r="4.359403682085446" fill="#CFAE58" opacity="0.10897188075357789"/>
  <circle cx="441.92043880174197" cy="469.42832947953383" r="5.960957104390502" fill="#CFAE58" opacity="0.18486256885216987"/>
  <circle cx="182.4908202871896" cy="585.7125386163325" r="4.5202295363815415" fill="#CFAE58" opacity="0.16821124370682083"/>
  <circle cx="426.1919348235141" cy="375.63563683185413" r="2.520921653360366" fill="#CFAE58" opacity="0.10802562899970368"/>
  <circle cx="335.31352323815355" cy="453.06994507965646" r="5.840114612760736" fill="#CFAE58" opacity="0.1448283494477541"/>
  <circle cx="289.10696207496693" cy="577.8311140735926" r="3.0994708859203826" fill="#CFAE58" opacity="0.2388989136750328"/>
  <circle cx="845.6128294817349" cy="502.8514060100523" r="4.399347248939846" fill="#CFAE58" opacity="0.18716767587168265"/>
  <circle cx="1020.9594483645338" cy="415.63534806208685" r="4.333413072860056" fill="#CFAE58" opacity="0.204438004984616"/>
  <circle cx="862.1806475455833" cy="6.254784832884686" r="2.281499220759793" fill="#CFAE58" opacity="0.19560411635156466"/>
  <circle cx="423.7146261835612" cy="76.43903334681342" r="5.218718783149192" fill="#CFAE58" opacity="0.11885406879245555"/>
  <circle cx="940.9352511615937" cy="39.896655304295045" r="2.248442097419977" fill="#CFAE58" opacity="0.23697721292877427"/>
  <circle cx="444.0335828456349" cy="590.2998349810206" r="2.5824110882998177" fill="#CFAE58" opacity="0.1427951368200537"/>
  <circle cx="449.72050697495376" cy="272.0619781533815" r="4.459932170942733" fill="#CFAE58" opacity="0.19910272993729533"/>
  <circle cx="531.6865353614054" cy="196.34948168949626" r="4.745426448189157" fill="#CFAE58" opacity="0.18660794708656886"/>
  <circle cx="898.4808704864535" cy="387.95954912908155" r="2.3468867321196614" fill="#CFAE58" opacity="0.22195779725661613"/>
  <circle cx="311.6620326905113" cy="324.6933261703327" r="2.056331996035973" fill="#CFAE58" opacity="0.17034488267221773"/>
  <circle cx="1139.3079090490007" cy="420.21214760452574" r="3.4095120503954375" fill="#CFAE58" opacity="0.17706434340953492"/>

  <!-- Border with glow -->
  <rect x="40" y="40" width="1120" height="550" fill="none" stroke="url(#goldGradient)" stroke-width="3" rx="12" filter="url(#softGlow)"/>

  <!-- Icon circle with premium background -->
  <circle cx="150" cy="200" r="75" fill="#CFAE58" opacity="0.15" filter="url(#softGlow)"/>
  <circle cx="150" cy="200" r="70" fill="#CFAE58" opacity="0.25"/>
  <text x="150" y="235" font-size="90" text-anchor="middle" fill="#CFAE58" filter="url(#glow)">❓</text>

  <!-- Premium logo (crown) with enhanced styling -->
  <g transform="translate(100, 70)">
    <path d="M 30 20 L 40 35 L 35 35 Z M 50 15 L 60 35 L 45 35 Z M 65 20 L 75 35 L 70 35 Z M 30 35 L 75 35 L 73 45 L 32 45 Z"
          fill="url(#goldGradient)" filter="url(#glow)" stroke="#B89842" stroke-width="0.5"/>
    <circle cx="40" cy="25" r="3" fill="#4FD1C5" filter="url(#glow)"/>
    <circle cx="52" cy="20" r="4" fill="#4FD1C5" filter="url(#glow)"/>
    <circle cx="65" cy="25" r="3" fill="#4FD1C5" filter="url(#glow)"/>
  </g>

  <!-- Title with shadow -->
  <text x="280" y="180" font-family="Georgia, serif" font-size="72" font-weight="bold"
        fill="url(#goldGradient)" filter="url(#shadow)">FAQ</text>

  <!-- Subtitle with subtle glow -->
  <text x="280" y="230" font-family="Arial, sans-serif" font-size="36"
        fill="#D6DEE6" opacity="0.95" filter="url(#softGlow)">Frequently Asked Questions</text>

  <!-- Brand name with letter spacing -->
  <text x="280" y="300" font-family="Georgia, serif" font-size="32" font-weight="bold"
        fill="#CFAE58" letter-spacing="4" filter="url(#glow)">ROYAL KETA</text>

  <!-- Russian tagline -->
  <text x="280" y="340" font-family="Arial, sans-serif" font-size="22" font-style="italic"
        fill="#8B95A1" opacity="0.8">От икринки к королевской</text>

  <!-- Location -->
  <text x="280" y="380" font-family="Arial, sans-serif" font-size="20"
        fill="#8B95A1" opacity="0.7">Невельский район, Сахалин</text>

  <!-- Website with glow -->
  <text x="100" y="570" font-family="Arial, sans-serif" font-size="30" font-weight="bold"
        fill="#4FD1C5" filter="url(#glow)">royalketa.com</text>

  <!-- Enhanced decorative salmon silhouette -->
  <g transform="translate(950, 480)" opacity="0.2" filter="url(#softGlow)">
    <ellipse cx="0" cy="0" rx="90" ry="35" fill="#CFAE58"/>
    <path d="M 90 0 L 120 -18 L 130 0 L 120 18 Z" fill="#CFAE58"/>
    <path d="M -25 -35 L 0 -45 L 25 -35 Z" fill="#CFAE58"/>
    <ellipse cx="-50" cy="0" rx="15" ry="12" fill="#0B0F14"/>
  </g>

  <!-- Additional decorative caviar clusters -->
  <g opacity="0.2">
    <circle cx="1050" cy="120" r="6" fill="#CFAE58"/>
    <circle cx="1065" cy="115" r="5" fill="#CFAE58"/>
    <circle cx="1058" cy="130" r="4" fill="#CFAE58"/>
    <circle cx="150" cy="500" r="5" fill="#4FD1C5"/>
    <circle cx="165" cy="508" r="4" fill="#4FD1C5"/>
    <circle cx="140" cy="512" r="5" fill="#4FD1C5"/>
  </g>
</svg>