<svg width="1200" height="630" xmlns="http://www.w3.org/2000/svg">
  <defs>
    <linearGradient id="bgGradient" x1="0%" y1="0%" x2="100%" y2="100%">
      <stop offset="0%" style="stop-color:#0B0F14;stop-opacity:1" />
      <stop offset="50%" style="stop-color:#0F1619;stop-opacity:1" />
      <stop offset="100%" style="stop-color:#0F1922;stop-opacity:1" />
    </linearGradient>
    <linearGradient id="goldGradient" x1="0%" y1="0%" x2="100%" y2="0%">
      <stop offset="0%" style="stop-color:#E5D596;stop-opacity:1" />
      <stop offset="50%" style="stop-color:#CFAE58;stop-opacity:1" />
      <stop offset="100%" style="stop-color:#B89842;stop-opacity:1" />
    </linearGradient>
    <radialGradient id="oceanGradient" cx="50%" cy="50%" r="50%">
      <stop offset="0%" style="stop-color:#4FD1C5;stop-opacity:0.3" />
      <stop offset="100%" style="stop-color:#1E90A0;stop-opacity:0.05" />
    </radialGradient>
    <filter id="glow">
      <feGaussianBlur stdDeviation="5" result="coloredBlur"/>
      <feMerge>
        <feMergeNode in="coloredBlur"/>
        <feMergeNode in="SourceGraphic"/>
      </feMerge>
    </filter>
    <filter id="softGlow">
      <feGaussianBlur stdDeviation="8" result="coloredBlur"/>
      <feMerge>
        <feMergeNode in="coloredBlur"/>
        <feMergeNode in="SourceGraphic"/>
      </feMerge>
    </filter>
    <filter id="shadow">
      <feDropShadow dx="0" dy="4" stdDeviation="8" flood-color="#000000" flood-opacity="0.5"/>
    </filter>
  </defs>

  <!-- Background -->
  <rect width="1200" height="630" fill="url(#bgGradient)"/>

  <!-- Decorative ocean gradients -->
  <ellipse cx="1000" cy="150" rx="300" ry="200" fill="url(#oceanGradient)" opacity="0.4"/>
  <ellipse cx="200" cy="530" rx="250" ry="180" fill="url(#oceanGradient)" opacity="0.3"/>

  <!-- Wave patterns -->
  <path d="M 0 400 Q 300 350 600 400 T 1200 400 L 1200 630 L 0 630 Z" fill="#1E90A0" opacity="0.08"/>
  <path d="M 0 450 Q 250 420 500 450 T 1000 450 T 1200 450 L 1200 630 L 0 630 Z" fill="#4FD1C5" opacity="0.05"/>

  <!-- Caviar roe particles -->
  <circle cx="1099.947740932597" cy="347.75445006794075" r="4.928636961662989" fill="#CFAE58" opacity="0.12236544005846262"/>
  <circle cx="1074.2020326248714" cy="270.9170658515825" r="4.550102308473597" fill="#CFAE58" opacity="0.1410000241030253"/>
  <circle cx="55.45111507600815" cy="228.60399544519197" r="3.0817070343353654" fill="#CFAE58" opacity="0.16571926022635614"/>
  <circle cx="139.11769282603518" cy="497.9356948123222" r="3.952397188260065" fill="#CFAE58" opacity="0.19661740788291351"/>
  <circle cx="1011.5281193626624" cy="219.27857087431877" r="3.012737657878934" fill="#CFAE58" opacity="0.1775238087529786"/>
  <circle cx="453.0363523772465" cy="489.1954522151863" r="2.7190082229898023" fill="#CFAE58" opacity="0.1466660676109915"/>
  <circle cx="426.8931240018694" cy="478.2764469303833" r="5.299899239989254" fill="#CFAE58" opacity="0.202820046111711"/>
  <circle cx="1051.2652315513906" cy="222.0724286683549" r="5.928755404491844" fill="#CFAE58" opacity="0.20176628322031165"/>
  <circle cx="1098.5911469050843" cy="434.94869573183456" r="3.5089040891162915" fill="#CFAE58" opacity="0.220075025182906"/>
  <circle cx="974.7741778720397" cy="524.1122342729515" r="5.765395127174288" fill="#CFAE58" opacity="0.17844845591347358"/>
  <circle cx="413.05720936677835" cy="160.9983653260114" r="2.6915746726393657" fill="#CFAE58" opacity="0.17719601271121668"/>
  <circle cx="394.97151137182635" cy="386.8281846203168" r="3.950969080801104" fill="#CFAE58" opacity="0.14797344842284282"/>
  <circle cx="567.1600822311591" cy="9.484925959130873" r="2.07254719641462" fill="#CFAE58" opacity="0.19125171206604552"/>
  <circle cx="309.72702934138124" cy="34.2993787090525" r="4.798819059482585" fill="#CFAE58" opacity="0.11342927795034863"/>
  <circle cx="143.1327913803994" cy="615.5398102691942" r="3.122759169520908" fill="#CFAE58" opacity="0.1119122206394419"/>
  <circle cx="559.8057953012892" cy="485.030342217467" r="2.542600901346451" fill="#CFAE58" opacity="0.18611842617445407"/>
  <circle cx="1138.006390551754" cy="610.9066002467492" r="3.5155951567292085" fill="#CFAE58" opacity="0.1669469877970879"/>
  <circle cx="46.1187038992799" cy="54.284702506262555" r="4.418980846245746" fill="#CFAE58" opacity="0.17480067523177475"/>
  <circle cx="932.4863703308635" cy="357.7667321082206" r="3.5266481455933674" fill="#CFAE58" opacity="0.12077129173462875"/>
  <circle cx="1074.574135230164" cy="23.715799058176373" r="3.1046589206659343" fill="#CFAE58" opacity="0.23107124981191351"/>
  <circle cx="263.772100922678" cy="443.78340432632234" r="5.465842399294086" fill="#CFAE58" opacity="0.21800274184524152"/>
  <circle cx="40.00355391056889" cy="63.15268543137789" r="2.7034255194386496" fill="#CFAE58" opacity="0.1357064074161352"/>
  <circle cx="589.5332940989157" cy="154.76542885440873" r="2.3865725316159976" fill="#CFAE58" opacity="0.22431588078300546"/>
  <circle cx="915.3287975992088" cy="600.7849203823615" r="4.986911073882688" fill="#CFAE58" opacity="0.2451667977114383"/>
  <circle cx="668.5316241155617" cy="313.20236385264747" r="5.898554817498091" fill="#CFAE58" opacity="0.1720657167181316"/>
  <circle cx="748.4257382362651" cy="616.9009695888057" r="2.785579367086145" fill="#CFAE58" opacity="0.23375997855131275"/>
  <circle cx="438.77013376751546" cy="242.8862893425304" r="2.403958393163048" fill="#CFAE58" opacity="0.17709446500385978"/>
  <circle cx="1169.227178664623" cy="56.18335201354905" r="3.1570990788060422" fill="#CFAE58" opacity="0.17730836042861176"/>
  <circle cx="303.26235814540513" cy="615.1874535704972" r="2.7012193606473947" fill="#CFAE58" opacity="0.1824213388628409"/>
  <circle cx="705.2284543695743" cy="163.63066532027082" r="3.861653631861416" fill="#CFAE58" opacity="0.1389381551538431"/>

  <!-- Border with glow -->
  <rect x="40" y="40" width="1120" height="550" fill="none" stroke="url(#goldGradient)" stroke-width="3" rx="12" filter="url(#softGlow)"/>

  <!-- Icon circle with premium background -->
  <circle cx="150" cy="200" r="75" fill="#CFAE58" opacity="0.15" filter="url(#softGlow)"/>
  <circle cx="150" cy="200" r="70" fill="#CFAE58" opacity="0.25"/>
  <text x="150" y="235" font-size="90" text-anchor="middle" fill="#CFAE58" filter="url(#glow)">❓</text>

  <!-- Premium logo (crown) with enhanced styling -->
  <g transform="translate(100, 70)">
    <path d="M 30 20 L 40 35 L 35 35 Z M 50 15 L 60 35 L 45 35 Z M 65 20 L 75 35 L 70 35 Z M 30 35 L 75 35 L 73 45 L 32 45 Z"
          fill="url(#goldGradient)" filter="url(#glow)" stroke="#B89842" stroke-width="0.5"/>
    <circle cx="40" cy="25" r="3" fill="#4FD1C5" filter="url(#glow)"/>
    <circle cx="52" cy="20" r="4" fill="#4FD1C5" filter="url(#glow)"/>
    <circle cx="65" cy="25" r="3" fill="#4FD1C5" filter="url(#glow)"/>
  </g>

  <!-- Title with shadow -->
  <text x="280" y="180" font-family="Georgia, serif" font-size="72" font-weight="bold"
        fill="url(#goldGradient)" filter="url(#shadow)">FAQ</text>

  <!-- Subtitle with subtle glow -->
  <text x="280" y="230" font-family="Arial, sans-serif" font-size="36"
        fill="#D6DEE6" opacity="0.95" filter="url(#softGlow)">Frequently Asked Questions</text>

  <!-- Brand name with letter spacing -->
  <text x="280" y="300" font-family="Georgia, serif" font-size="32" font-weight="bold"
        fill="#CFAE58" letter-spacing="4" filter="url(#glow)">ROYAL KETA</text>

  <!-- Russian tagline -->
  <text x="280" y="340" font-family="Arial, sans-serif" font-size="22" font-style="italic"
        fill="#8B95A1" opacity="0.8">От икринки к королевской</text>

  <!-- Location -->
  <text x="280" y="380" font-family="Arial, sans-serif" font-size="20"
        fill="#8B95A1" opacity="0.7">Невельский район, Сахалин</text>

  <!-- Website with glow -->
  <text x="100" y="570" font-family="Arial, sans-serif" font-size="30" font-weight="bold"
        fill="#4FD1C5" filter="url(#glow)">royalketa.com</text>

  <!-- Enhanced decorative salmon silhouette -->
  <g transform="translate(950, 480)" opacity="0.2" filter="url(#softGlow)">
    <ellipse cx="0" cy="0" rx="90" ry="35" fill="#CFAE58"/>
    <path d="M 90 0 L 120 -18 L 130 0 L 120 18 Z" fill="#CFAE58"/>
    <path d="M -25 -35 L 0 -45 L 25 -35 Z" fill="#CFAE58"/>
    <ellipse cx="-50" cy="0" rx="15" ry="12" fill="#0B0F14"/>
  </g>

  <!-- Additional decorative caviar clusters -->
  <g opacity="0.2">
    <circle cx="1050" cy="120" r="6" fill="#CFAE58"/>
    <circle cx="1065" cy="115" r="5" fill="#CFAE58"/>
    <circle cx="1058" cy="130" r="4" fill="#CFAE58"/>
    <circle cx="150" cy="500" r="5" fill="#4FD1C5"/>
    <circle cx="165" cy="508" r="4" fill="#4FD1C5"/>
    <circle cx="140" cy="512" r="5" fill="#4FD1C5"/>
  </g>
</svg>