<svg width="1200" height="630" xmlns="http://www.w3.org/2000/svg">
  <defs>
    <linearGradient id="bgGradient" x1="0%" y1="0%" x2="100%" y2="100%">
      <stop offset="0%" style="stop-color:#0B0F14;stop-opacity:1" />
      <stop offset="50%" style="stop-color:#0F1619;stop-opacity:1" />
      <stop offset="100%" style="stop-color:#0F1922;stop-opacity:1" />
    </linearGradient>
    <linearGradient id="goldGradient" x1="0%" y1="0%" x2="100%" y2="0%">
      <stop offset="0%" style="stop-color:#E5D596;stop-opacity:1" />
      <stop offset="50%" style="stop-color:#CFAE58;stop-opacity:1" />
      <stop offset="100%" style="stop-color:#B89842;stop-opacity:1" />
    </linearGradient>
    <radialGradient id="oceanGradient" cx="50%" cy="50%" r="50%">
      <stop offset="0%" style="stop-color:#4FD1C5;stop-opacity:0.3" />
      <stop offset="100%" style="stop-color:#1E90A0;stop-opacity:0.05" />
    </radialGradient>
    <filter id="glow">
      <feGaussianBlur stdDeviation="5" result="coloredBlur"/>
      <feMerge>
        <feMergeNode in="coloredBlur"/>
        <feMergeNode in="SourceGraphic"/>
      </feMerge>
    </filter>
    <filter id="softGlow">
      <feGaussianBlur stdDeviation="8" result="coloredBlur"/>
      <feMerge>
        <feMergeNode in="coloredBlur"/>
        <feMergeNode in="SourceGraphic"/>
      </feMerge>
    </filter>
    <filter id="shadow">
      <feDropShadow dx="0" dy="4" stdDeviation="8" flood-color="#000000" flood-opacity="0.5"/>
    </filter>
  </defs>

  <!-- Background -->
  <rect width="1200" height="630" fill="url(#bgGradient)"/>

  <!-- Decorative ocean gradients -->
  <ellipse cx="1000" cy="150" rx="300" ry="200" fill="url(#oceanGradient)" opacity="0.4"/>
  <ellipse cx="200" cy="530" rx="250" ry="180" fill="url(#oceanGradient)" opacity="0.3"/>

  <!-- Wave patterns -->
  <path d="M 0 400 Q 300 350 600 400 T 1200 400 L 1200 630 L 0 630 Z" fill="#1E90A0" opacity="0.08"/>
  <path d="M 0 450 Q 250 420 500 450 T 1000 450 T 1200 450 L 1200 630 L 0 630 Z" fill="#4FD1C5" opacity="0.05"/>

  <!-- Caviar roe particles -->
  <circle cx="167.5155589711073" cy="308.28946536718354" r="3.081235937393474" fill="#CFAE58" opacity="0.24661088154543176"/>
  <circle cx="951.4465514489378" cy="251.80669822065565" r="5.679384365334002" fill="#CFAE58" opacity="0.14831414590819475"/>
  <circle cx="908.9131538542495" cy="579.0742862920526" r="5.827548441231118" fill="#CFAE58" opacity="0.1816093131665082"/>
  <circle cx="1184.3949096862991" cy="379.59735098796847" r="4.144115417592685" fill="#CFAE58" opacity="0.20179613968872678"/>
  <circle cx="603.0550920271039" cy="81.60845518596287" r="4.974696695679018" fill="#CFAE58" opacity="0.20862614182998118"/>
  <circle cx="706.9143633173808" cy="182.8185165822419" r="2.83466764152696" fill="#CFAE58" opacity="0.20961545884095795"/>
  <circle cx="159.97819994279948" cy="63.27807978194505" r="4.830574778361794" fill="#CFAE58" opacity="0.1834077084515857"/>
  <circle cx="443.39624376883677" cy="558.6647459838995" r="2.679988186928126" fill="#CFAE58" opacity="0.13281993757834082"/>
  <circle cx="889.9453183808392" cy="121.97026773409846" r="4.296342430155168" fill="#CFAE58" opacity="0.15707443519908673"/>
  <circle cx="716.7266492597553" cy="554.5815254570122" r="5.017820702163631" fill="#CFAE58" opacity="0.23369760096506564"/>
  <circle cx="1034.8189796125357" cy="297.42986536014126" r="5.690283909814012" fill="#CFAE58" opacity="0.1988340241156033"/>
  <circle cx="412.9171531202535" cy="286.97045030899113" r="2.286942599047878" fill="#CFAE58" opacity="0.11427701403944567"/>
  <circle cx="474.42590251960735" cy="338.9519301063764" r="4.778859312346069" fill="#CFAE58" opacity="0.1432706733510063"/>
  <circle cx="589.7470268339525" cy="33.1590618315855" r="3.8531417961982903" fill="#CFAE58" opacity="0.18207670393987224"/>
  <circle cx="138.32815682570708" cy="164.5233619193876" r="4.172001757383683" fill="#CFAE58" opacity="0.1161995557944551"/>
  <circle cx="2.0369861933443367" cy="201.03701630671858" r="2.608660919909642" fill="#CFAE58" opacity="0.1473559943671663"/>
  <circle cx="85.55994875839095" cy="606.4585513361818" r="5.394413584972481" fill="#CFAE58" opacity="0.1403737977877949"/>
  <circle cx="295.40242712783777" cy="572.2316983624921" r="2.724155891415262" fill="#CFAE58" opacity="0.19956015529137697"/>
  <circle cx="1088.25002178492" cy="247.4968098657973" r="4.837567912676208" fill="#CFAE58" opacity="0.13268863382476234"/>
  <circle cx="281.2904467714693" cy="570.9727144908844" r="4.189268276306796" fill="#CFAE58" opacity="0.17019144435157557"/>
  <circle cx="123.23139400150431" cy="305.94474957783865" r="5.490932333190628" fill="#CFAE58" opacity="0.12460677401028938"/>
  <circle cx="585.9643285615521" cy="472.31186372183396" r="2.3872079144164267" fill="#CFAE58" opacity="0.15829067409785916"/>
  <circle cx="353.58512748032587" cy="244.40367999566786" r="2.9598050514696537" fill="#CFAE58" opacity="0.21989187430323498"/>
  <circle cx="416.3136950477785" cy="125.78160783822177" r="2.7469483688621916" fill="#CFAE58" opacity="0.16564943358630885"/>
  <circle cx="874.2586463369979" cy="382.1978570515882" r="2.4631396465147706" fill="#CFAE58" opacity="0.2073701356885015"/>
  <circle cx="927.5979188135606" cy="331.0563220206231" r="3.2659182890900667" fill="#CFAE58" opacity="0.14940318789952917"/>
  <circle cx="1046.8097951385644" cy="214.78903437671934" r="4.913954828692978" fill="#CFAE58" opacity="0.13623597889194286"/>
  <circle cx="1037.2690708641585" cy="278.6311445770992" r="2.6358707039781484" fill="#CFAE58" opacity="0.15000318974677532"/>
  <circle cx="1052.3904726274634" cy="419.45917581141526" r="4.199939620179516" fill="#CFAE58" opacity="0.12392720084797107"/>
  <circle cx="147.09301935362936" cy="197.74786421842688" r="5.215029006772033" fill="#CFAE58" opacity="0.176545866525046"/>

  <!-- Border with glow -->
  <rect x="40" y="40" width="1120" height="550" fill="none" stroke="url(#goldGradient)" stroke-width="3" rx="12" filter="url(#softGlow)"/>

  <!-- Icon circle with premium background -->
  <circle cx="150" cy="200" r="75" fill="#CFAE58" opacity="0.15" filter="url(#softGlow)"/>
  <circle cx="150" cy="200" r="70" fill="#CFAE58" opacity="0.25"/>
  <text x="150" y="235" font-size="90" text-anchor="middle" fill="#CFAE58" filter="url(#glow)">❓</text>

  <!-- Premium logo (crown) with enhanced styling -->
  <g transform="translate(100, 70)">
    <path d="M 30 20 L 40 35 L 35 35 Z M 50 15 L 60 35 L 45 35 Z M 65 20 L 75 35 L 70 35 Z M 30 35 L 75 35 L 73 45 L 32 45 Z"
          fill="url(#goldGradient)" filter="url(#glow)" stroke="#B89842" stroke-width="0.5"/>
    <circle cx="40" cy="25" r="3" fill="#4FD1C5" filter="url(#glow)"/>
    <circle cx="52" cy="20" r="4" fill="#4FD1C5" filter="url(#glow)"/>
    <circle cx="65" cy="25" r="3" fill="#4FD1C5" filter="url(#glow)"/>
  </g>

  <!-- Title with shadow -->
  <text x="280" y="180" font-family="Georgia, serif" font-size="72" font-weight="bold"
        fill="url(#goldGradient)" filter="url(#shadow)">FAQ</text>

  <!-- Subtitle with subtle glow -->
  <text x="280" y="230" font-family="Arial, sans-serif" font-size="36"
        fill="#D6DEE6" opacity="0.95" filter="url(#softGlow)">Frequently Asked Questions</text>

  <!-- Brand name with letter spacing -->
  <text x="280" y="300" font-family="Georgia, serif" font-size="32" font-weight="bold"
        fill="#CFAE58" letter-spacing="4" filter="url(#glow)">ROYAL KETA</text>

  <!-- Russian tagline -->
  <text x="280" y="340" font-family="Arial, sans-serif" font-size="22" font-style="italic"
        fill="#8B95A1" opacity="0.8">От икринки к королевской</text>

  <!-- Location -->
  <text x="280" y="380" font-family="Arial, sans-serif" font-size="20"
        fill="#8B95A1" opacity="0.7">Невельский район, Сахалин</text>

  <!-- Website with glow -->
  <text x="100" y="570" font-family="Arial, sans-serif" font-size="30" font-weight="bold"
        fill="#4FD1C5" filter="url(#glow)">royalketa.com</text>

  <!-- Enhanced decorative salmon silhouette -->
  <g transform="translate(950, 480)" opacity="0.2" filter="url(#softGlow)">
    <ellipse cx="0" cy="0" rx="90" ry="35" fill="#CFAE58"/>
    <path d="M 90 0 L 120 -18 L 130 0 L 120 18 Z" fill="#CFAE58"/>
    <path d="M -25 -35 L 0 -45 L 25 -35 Z" fill="#CFAE58"/>
    <ellipse cx="-50" cy="0" rx="15" ry="12" fill="#0B0F14"/>
  </g>

  <!-- Additional decorative caviar clusters -->
  <g opacity="0.2">
    <circle cx="1050" cy="120" r="6" fill="#CFAE58"/>
    <circle cx="1065" cy="115" r="5" fill="#CFAE58"/>
    <circle cx="1058" cy="130" r="4" fill="#CFAE58"/>
    <circle cx="150" cy="500" r="5" fill="#4FD1C5"/>
    <circle cx="165" cy="508" r="4" fill="#4FD1C5"/>
    <circle cx="140" cy="512" r="5" fill="#4FD1C5"/>
  </g>
</svg>