<svg width="1200" height="630" xmlns="http://www.w3.org/2000/svg">
  <defs>
    <linearGradient id="bgGradient" x1="0%" y1="0%" x2="100%" y2="100%">
      <stop offset="0%" style="stop-color:#0B0F14;stop-opacity:1" />
      <stop offset="50%" style="stop-color:#0F1619;stop-opacity:1" />
      <stop offset="100%" style="stop-color:#0F1922;stop-opacity:1" />
    </linearGradient>
    <linearGradient id="goldGradient" x1="0%" y1="0%" x2="100%" y2="0%">
      <stop offset="0%" style="stop-color:#E5D596;stop-opacity:1" />
      <stop offset="50%" style="stop-color:#CFAE58;stop-opacity:1" />
      <stop offset="100%" style="stop-color:#B89842;stop-opacity:1" />
    </linearGradient>
    <radialGradient id="oceanGradient" cx="50%" cy="50%" r="50%">
      <stop offset="0%" style="stop-color:#4FD1C5;stop-opacity:0.3" />
      <stop offset="100%" style="stop-color:#1E90A0;stop-opacity:0.05" />
    </radialGradient>
    <filter id="glow">
      <feGaussianBlur stdDeviation="5" result="coloredBlur"/>
      <feMerge>
        <feMergeNode in="coloredBlur"/>
        <feMergeNode in="SourceGraphic"/>
      </feMerge>
    </filter>
    <filter id="softGlow">
      <feGaussianBlur stdDeviation="8" result="coloredBlur"/>
      <feMerge>
        <feMergeNode in="coloredBlur"/>
        <feMergeNode in="SourceGraphic"/>
      </feMerge>
    </filter>
    <filter id="shadow">
      <feDropShadow dx="0" dy="4" stdDeviation="8" flood-color="#000000" flood-opacity="0.5"/>
    </filter>
  </defs>

  <!-- Background -->
  <rect width="1200" height="630" fill="url(#bgGradient)"/>

  <!-- Decorative ocean gradients -->
  <ellipse cx="1000" cy="150" rx="300" ry="200" fill="url(#oceanGradient)" opacity="0.4"/>
  <ellipse cx="200" cy="530" rx="250" ry="180" fill="url(#oceanGradient)" opacity="0.3"/>

  <!-- Wave patterns -->
  <path d="M 0 400 Q 300 350 600 400 T 1200 400 L 1200 630 L 0 630 Z" fill="#1E90A0" opacity="0.08"/>
  <path d="M 0 450 Q 250 420 500 450 T 1000 450 T 1200 450 L 1200 630 L 0 630 Z" fill="#4FD1C5" opacity="0.05"/>

  <!-- Caviar roe particles -->
  <circle cx="683.7679047874589" cy="346.59739943298683" r="2.1683025803449745" fill="#CFAE58" opacity="0.22193426494764706"/>
  <circle cx="1022.2419266319421" cy="468.4868352139858" r="3.160255517891506" fill="#CFAE58" opacity="0.2040200758908131"/>
  <circle cx="1046.4052225062535" cy="47.845874880096204" r="3.7144525683503273" fill="#CFAE58" opacity="0.12143607770770098"/>
  <circle cx="756.2290060160369" cy="610.8607804787674" r="4.025343822214838" fill="#CFAE58" opacity="0.18558009720815294"/>
  <circle cx="639.6514333191026" cy="355.8831610477801" r="3.595477340669178" fill="#CFAE58" opacity="0.16238631510427787"/>
  <circle cx="84.02983408649175" cy="542.9471637597851" r="2.9309558697990505" fill="#CFAE58" opacity="0.1279436966765061"/>
  <circle cx="312.7257354040476" cy="371.82483856676964" r="3.3683555167121613" fill="#CFAE58" opacity="0.1241562052916785"/>
  <circle cx="534.6320699822362" cy="144.0090322983249" r="2.8962347243313626" fill="#CFAE58" opacity="0.13168322223735096"/>
  <circle cx="701.2226493012128" cy="212.34237370445348" r="3.794743390852723" fill="#CFAE58" opacity="0.10797385264108911"/>
  <circle cx="111.37124179942575" cy="159.33288737613316" r="5.604917380567163" fill="#CFAE58" opacity="0.10039581628358465"/>
  <circle cx="584.1329961238677" cy="233.03602634699968" r="4.256832454842682" fill="#CFAE58" opacity="0.12481574224186748"/>
  <circle cx="114.48235047088504" cy="276.69251719501096" r="2.2002613038234546" fill="#CFAE58" opacity="0.1178832599589798"/>
  <circle cx="469.4314188007051" cy="74.62273221364671" r="3.507764864775571" fill="#CFAE58" opacity="0.11987864447893126"/>
  <circle cx="913.1765145988875" cy="82.30380156318506" r="3.832955641565788" fill="#CFAE58" opacity="0.2182594469225388"/>
  <circle cx="249.69041899149832" cy="505.2986457903968" r="4.795744558756719" fill="#CFAE58" opacity="0.10872412519738846"/>
  <circle cx="1051.8838921978054" cy="547.2824585843475" r="5.50320380589819" fill="#CFAE58" opacity="0.21954195999957005"/>
  <circle cx="10.226466200272366" cy="456.1265544839645" r="2.120670193452848" fill="#CFAE58" opacity="0.24586509359519412"/>
  <circle cx="955.8703716684647" cy="467.74722064782367" r="5.05559096942411" fill="#CFAE58" opacity="0.19182081007160784"/>
  <circle cx="17.48337175571484" cy="536.7175915579409" r="3.8112772298703232" fill="#CFAE58" opacity="0.21074610498826785"/>
  <circle cx="1118.6236561957433" cy="4.294272908561743" r="5.384950264808225" fill="#CFAE58" opacity="0.23547814922637475"/>
  <circle cx="846.6813388489834" cy="348.5592528381739" r="5.87639463149985" fill="#CFAE58" opacity="0.18151612272496798"/>
  <circle cx="5.515686876332371" cy="144.7752446358114" r="2.1374412536587233" fill="#CFAE58" opacity="0.19502053672020292"/>
  <circle cx="390.1492561353897" cy="501.14063435300847" r="2.6801441668009316" fill="#CFAE58" opacity="0.242723633234179"/>
  <circle cx="832.5475805784006" cy="178.10306971706584" r="4.854862837974982" fill="#CFAE58" opacity="0.23570921002821793"/>
  <circle cx="959.6331046371735" cy="129.34868072674445" r="2.9610990392217955" fill="#CFAE58" opacity="0.1662589395489254"/>
  <circle cx="579.7471355084945" cy="554.8654723377144" r="4.875403945939259" fill="#CFAE58" opacity="0.10009518889762357"/>
  <circle cx="271.0376512195285" cy="455.3982195110777" r="4.568547317277365" fill="#CFAE58" opacity="0.15260999682239884"/>
  <circle cx="874.673406330304" cy="401.15836600113846" r="3.078944378700621" fill="#CFAE58" opacity="0.2417949454816938"/>
  <circle cx="606.2585176837961" cy="158.5251545876528" r="2.4342402721931418" fill="#CFAE58" opacity="0.21436577312830407"/>
  <circle cx="993.0483404004816" cy="429.7427688134917" r="5.033285497403099" fill="#CFAE58" opacity="0.22141885708968856"/>

  <!-- Border with glow -->
  <rect x="40" y="40" width="1120" height="550" fill="none" stroke="url(#goldGradient)" stroke-width="3" rx="12" filter="url(#softGlow)"/>

  <!-- Icon circle with premium background -->
  <circle cx="150" cy="200" r="75" fill="#CFAE58" opacity="0.15" filter="url(#softGlow)"/>
  <circle cx="150" cy="200" r="70" fill="#CFAE58" opacity="0.25"/>
  <text x="150" y="235" font-size="90" text-anchor="middle" fill="#CFAE58" filter="url(#glow)">❓</text>

  <!-- Premium logo (crown) with enhanced styling -->
  <g transform="translate(100, 70)">
    <path d="M 30 20 L 40 35 L 35 35 Z M 50 15 L 60 35 L 45 35 Z M 65 20 L 75 35 L 70 35 Z M 30 35 L 75 35 L 73 45 L 32 45 Z"
          fill="url(#goldGradient)" filter="url(#glow)" stroke="#B89842" stroke-width="0.5"/>
    <circle cx="40" cy="25" r="3" fill="#4FD1C5" filter="url(#glow)"/>
    <circle cx="52" cy="20" r="4" fill="#4FD1C5" filter="url(#glow)"/>
    <circle cx="65" cy="25" r="3" fill="#4FD1C5" filter="url(#glow)"/>
  </g>

  <!-- Title with shadow -->
  <text x="280" y="180" font-family="Georgia, serif" font-size="72" font-weight="bold"
        fill="url(#goldGradient)" filter="url(#shadow)">FAQ</text>

  <!-- Subtitle with subtle glow -->
  <text x="280" y="230" font-family="Arial, sans-serif" font-size="36"
        fill="#D6DEE6" opacity="0.95" filter="url(#softGlow)">Frequently Asked Questions</text>

  <!-- Brand name with letter spacing -->
  <text x="280" y="300" font-family="Georgia, serif" font-size="32" font-weight="bold"
        fill="#CFAE58" letter-spacing="4" filter="url(#glow)">ROYAL KETA</text>

  <!-- Russian tagline -->
  <text x="280" y="340" font-family="Arial, sans-serif" font-size="22" font-style="italic"
        fill="#8B95A1" opacity="0.8">От икринки к королевской</text>

  <!-- Location -->
  <text x="280" y="380" font-family="Arial, sans-serif" font-size="20"
        fill="#8B95A1" opacity="0.7">Невельский район, Сахалин</text>

  <!-- Website with glow -->
  <text x="100" y="570" font-family="Arial, sans-serif" font-size="30" font-weight="bold"
        fill="#4FD1C5" filter="url(#glow)">royalketa.com</text>

  <!-- Enhanced decorative salmon silhouette -->
  <g transform="translate(950, 480)" opacity="0.2" filter="url(#softGlow)">
    <ellipse cx="0" cy="0" rx="90" ry="35" fill="#CFAE58"/>
    <path d="M 90 0 L 120 -18 L 130 0 L 120 18 Z" fill="#CFAE58"/>
    <path d="M -25 -35 L 0 -45 L 25 -35 Z" fill="#CFAE58"/>
    <ellipse cx="-50" cy="0" rx="15" ry="12" fill="#0B0F14"/>
  </g>

  <!-- Additional decorative caviar clusters -->
  <g opacity="0.2">
    <circle cx="1050" cy="120" r="6" fill="#CFAE58"/>
    <circle cx="1065" cy="115" r="5" fill="#CFAE58"/>
    <circle cx="1058" cy="130" r="4" fill="#CFAE58"/>
    <circle cx="150" cy="500" r="5" fill="#4FD1C5"/>
    <circle cx="165" cy="508" r="4" fill="#4FD1C5"/>
    <circle cx="140" cy="512" r="5" fill="#4FD1C5"/>
  </g>
</svg>