<svg width="1200" height="630" xmlns="http://www.w3.org/2000/svg">
  <defs>
    <linearGradient id="bgGradient" x1="0%" y1="0%" x2="100%" y2="100%">
      <stop offset="0%" style="stop-color:#0B0F14;stop-opacity:1" />
      <stop offset="50%" style="stop-color:#0F1619;stop-opacity:1" />
      <stop offset="100%" style="stop-color:#0F1922;stop-opacity:1" />
    </linearGradient>
    <linearGradient id="goldGradient" x1="0%" y1="0%" x2="100%" y2="0%">
      <stop offset="0%" style="stop-color:#E5D596;stop-opacity:1" />
      <stop offset="50%" style="stop-color:#CFAE58;stop-opacity:1" />
      <stop offset="100%" style="stop-color:#B89842;stop-opacity:1" />
    </linearGradient>
    <radialGradient id="oceanGradient" cx="50%" cy="50%" r="50%">
      <stop offset="0%" style="stop-color:#4FD1C5;stop-opacity:0.3" />
      <stop offset="100%" style="stop-color:#1E90A0;stop-opacity:0.05" />
    </radialGradient>
    <filter id="glow">
      <feGaussianBlur stdDeviation="5" result="coloredBlur"/>
      <feMerge>
        <feMergeNode in="coloredBlur"/>
        <feMergeNode in="SourceGraphic"/>
      </feMerge>
    </filter>
    <filter id="softGlow">
      <feGaussianBlur stdDeviation="8" result="coloredBlur"/>
      <feMerge>
        <feMergeNode in="coloredBlur"/>
        <feMergeNode in="SourceGraphic"/>
      </feMerge>
    </filter>
    <filter id="shadow">
      <feDropShadow dx="0" dy="4" stdDeviation="8" flood-color="#000000" flood-opacity="0.5"/>
    </filter>
  </defs>

  <!-- Background -->
  <rect width="1200" height="630" fill="url(#bgGradient)"/>

  <!-- Decorative ocean gradients -->
  <ellipse cx="1000" cy="150" rx="300" ry="200" fill="url(#oceanGradient)" opacity="0.4"/>
  <ellipse cx="200" cy="530" rx="250" ry="180" fill="url(#oceanGradient)" opacity="0.3"/>

  <!-- Wave patterns -->
  <path d="M 0 400 Q 300 350 600 400 T 1200 400 L 1200 630 L 0 630 Z" fill="#1E90A0" opacity="0.08"/>
  <path d="M 0 450 Q 250 420 500 450 T 1000 450 T 1200 450 L 1200 630 L 0 630 Z" fill="#4FD1C5" opacity="0.05"/>

  <!-- Caviar roe particles -->
  <circle cx="998.7828794209153" cy="1.1984697858445403" r="2.224562099561015" fill="#CFAE58" opacity="0.106946796595883"/>
  <circle cx="13.88326107282385" cy="169.98803348892181" r="5.050847300590774" fill="#CFAE58" opacity="0.20415994317183767"/>
  <circle cx="128.68918282641576" cy="119.13560866707138" r="4.363628261437009" fill="#CFAE58" opacity="0.157601507384238"/>
  <circle cx="1007.5540266806584" cy="375.25918604886544" r="2.145666733145047" fill="#CFAE58" opacity="0.17085596763750982"/>
  <circle cx="223.95449195437146" cy="137.439647743886" r="2.5422731538657795" fill="#CFAE58" opacity="0.2427358252206294"/>
  <circle cx="476.4828737081456" cy="627.5705610523156" r="5.392744190116966" fill="#CFAE58" opacity="0.24893601853804492"/>
  <circle cx="1021.7265123379614" cy="601.5063441968925" r="2.2823396912845286" fill="#CFAE58" opacity="0.17103513399542847"/>
  <circle cx="332.26177867268143" cy="80.0725528115397" r="4.825915252233272" fill="#CFAE58" opacity="0.13037052132613186"/>
  <circle cx="370.76851581473653" cy="0.25958862556362927" r="3.6480360747858818" fill="#CFAE58" opacity="0.11667192204066652"/>
  <circle cx="658.8485204629519" cy="567.0944227829999" r="5.387623642012591" fill="#CFAE58" opacity="0.13053836300695026"/>
  <circle cx="803.8500709491154" cy="285.6169199197587" r="2.8127274130261286" fill="#CFAE58" opacity="0.1461899827358885"/>
  <circle cx="841.6007690313772" cy="319.4621380002445" r="3.817756783308451" fill="#CFAE58" opacity="0.13872088284055026"/>
  <circle cx="133.93924244784756" cy="572.1685478643881" r="2.3497285292494547" fill="#CFAE58" opacity="0.1681713558772644"/>
  <circle cx="1032.1104158233993" cy="530.140633915806" r="4.541422206706763" fill="#CFAE58" opacity="0.21075239392055878"/>
  <circle cx="662.1578083616506" cy="475.0615696696892" r="4.255601816019049" fill="#CFAE58" opacity="0.1864500420299933"/>
  <circle cx="321.26788311477526" cy="531.0599937355775" r="2.7709711232884713" fill="#CFAE58" opacity="0.10692025888671408"/>
  <circle cx="5.043873681622912" cy="159.8172894181533" r="2.4138623990502506" fill="#CFAE58" opacity="0.1701180251187657"/>
  <circle cx="342.0102803774993" cy="580.1048700713109" r="3.4090714331367034" fill="#CFAE58" opacity="0.15923944408219037"/>
  <circle cx="22.8193576808728" cy="225.10987591304576" r="2.2609817070541007" fill="#CFAE58" opacity="0.12684441325975798"/>
  <circle cx="1147.8824310998573" cy="374.5404672587371" r="4.653543362419635" fill="#CFAE58" opacity="0.11413283045314718"/>
  <circle cx="46.809156346281625" cy="304.25933974724734" r="2.449148861460068" fill="#CFAE58" opacity="0.1966126102019864"/>
  <circle cx="651.4602467323801" cy="621.9637129760952" r="5.666211897313698" fill="#CFAE58" opacity="0.213536545810684"/>
  <circle cx="97.6712105952692" cy="157.38456225710618" r="5.672396064134082" fill="#CFAE58" opacity="0.17528927320531346"/>
  <circle cx="1026.5445747627934" cy="255.30193098787146" r="5.914344444450056" fill="#CFAE58" opacity="0.14896922959045375"/>
  <circle cx="3.5868163231286054" cy="368.5764430395508" r="3.4264215497286123" fill="#CFAE58" opacity="0.12442383592471615"/>
  <circle cx="1137.7141715906944" cy="86.01054490068303" r="4.983795849052967" fill="#CFAE58" opacity="0.10811202948908956"/>
  <circle cx="1188.8440571849026" cy="541.1096104900417" r="3.528188838989629" fill="#CFAE58" opacity="0.1399586199400497"/>
  <circle cx="89.975339996999" cy="331.9172044338458" r="2.85055858550039" fill="#CFAE58" opacity="0.23847317748401128"/>
  <circle cx="367.3076505246167" cy="381.64427406202543" r="5.653052919578034" fill="#CFAE58" opacity="0.14227746540937625"/>
  <circle cx="450.86370805148084" cy="33.35837630594088" r="2.19792241052897" fill="#CFAE58" opacity="0.11336080002921015"/>

  <!-- Border with glow -->
  <rect x="40" y="40" width="1120" height="550" fill="none" stroke="url(#goldGradient)" stroke-width="3" rx="12" filter="url(#softGlow)"/>

  <!-- Icon circle with premium background -->
  <circle cx="150" cy="200" r="75" fill="#CFAE58" opacity="0.15" filter="url(#softGlow)"/>
  <circle cx="150" cy="200" r="70" fill="#CFAE58" opacity="0.25"/>
  <text x="150" y="235" font-size="90" text-anchor="middle" fill="#CFAE58" filter="url(#glow)">❓</text>

  <!-- Premium logo (crown) with enhanced styling -->
  <g transform="translate(100, 70)">
    <path d="M 30 20 L 40 35 L 35 35 Z M 50 15 L 60 35 L 45 35 Z M 65 20 L 75 35 L 70 35 Z M 30 35 L 75 35 L 73 45 L 32 45 Z"
          fill="url(#goldGradient)" filter="url(#glow)" stroke="#B89842" stroke-width="0.5"/>
    <circle cx="40" cy="25" r="3" fill="#4FD1C5" filter="url(#glow)"/>
    <circle cx="52" cy="20" r="4" fill="#4FD1C5" filter="url(#glow)"/>
    <circle cx="65" cy="25" r="3" fill="#4FD1C5" filter="url(#glow)"/>
  </g>

  <!-- Title with shadow -->
  <text x="280" y="180" font-family="Georgia, serif" font-size="72" font-weight="bold"
        fill="url(#goldGradient)" filter="url(#shadow)">FAQ</text>

  <!-- Subtitle with subtle glow -->
  <text x="280" y="230" font-family="Arial, sans-serif" font-size="36"
        fill="#D6DEE6" opacity="0.95" filter="url(#softGlow)">Frequently Asked Questions</text>

  <!-- Brand name with letter spacing -->
  <text x="280" y="300" font-family="Georgia, serif" font-size="32" font-weight="bold"
        fill="#CFAE58" letter-spacing="4" filter="url(#glow)">ROYAL KETA</text>

  <!-- Russian tagline -->
  <text x="280" y="340" font-family="Arial, sans-serif" font-size="22" font-style="italic"
        fill="#8B95A1" opacity="0.8">От икринки к королевской</text>

  <!-- Location -->
  <text x="280" y="380" font-family="Arial, sans-serif" font-size="20"
        fill="#8B95A1" opacity="0.7">Невельский район, Сахалин</text>

  <!-- Website with glow -->
  <text x="100" y="570" font-family="Arial, sans-serif" font-size="30" font-weight="bold"
        fill="#4FD1C5" filter="url(#glow)">royalketa.com</text>

  <!-- Enhanced decorative salmon silhouette -->
  <g transform="translate(950, 480)" opacity="0.2" filter="url(#softGlow)">
    <ellipse cx="0" cy="0" rx="90" ry="35" fill="#CFAE58"/>
    <path d="M 90 0 L 120 -18 L 130 0 L 120 18 Z" fill="#CFAE58"/>
    <path d="M -25 -35 L 0 -45 L 25 -35 Z" fill="#CFAE58"/>
    <ellipse cx="-50" cy="0" rx="15" ry="12" fill="#0B0F14"/>
  </g>

  <!-- Additional decorative caviar clusters -->
  <g opacity="0.2">
    <circle cx="1050" cy="120" r="6" fill="#CFAE58"/>
    <circle cx="1065" cy="115" r="5" fill="#CFAE58"/>
    <circle cx="1058" cy="130" r="4" fill="#CFAE58"/>
    <circle cx="150" cy="500" r="5" fill="#4FD1C5"/>
    <circle cx="165" cy="508" r="4" fill="#4FD1C5"/>
    <circle cx="140" cy="512" r="5" fill="#4FD1C5"/>
  </g>
</svg>