<svg width="1200" height="630" xmlns="http://www.w3.org/2000/svg">
  <defs>
    <linearGradient id="bgGradient" x1="0%" y1="0%" x2="100%" y2="100%">
      <stop offset="0%" style="stop-color:#0B0F14;stop-opacity:1" />
      <stop offset="50%" style="stop-color:#0F1619;stop-opacity:1" />
      <stop offset="100%" style="stop-color:#0F1922;stop-opacity:1" />
    </linearGradient>
    <linearGradient id="goldGradient" x1="0%" y1="0%" x2="100%" y2="0%">
      <stop offset="0%" style="stop-color:#E5D596;stop-opacity:1" />
      <stop offset="50%" style="stop-color:#CFAE58;stop-opacity:1" />
      <stop offset="100%" style="stop-color:#B89842;stop-opacity:1" />
    </linearGradient>
    <radialGradient id="oceanGradient" cx="50%" cy="50%" r="50%">
      <stop offset="0%" style="stop-color:#4FD1C5;stop-opacity:0.3" />
      <stop offset="100%" style="stop-color:#1E90A0;stop-opacity:0.05" />
    </radialGradient>
    <filter id="glow">
      <feGaussianBlur stdDeviation="5" result="coloredBlur"/>
      <feMerge>
        <feMergeNode in="coloredBlur"/>
        <feMergeNode in="SourceGraphic"/>
      </feMerge>
    </filter>
    <filter id="softGlow">
      <feGaussianBlur stdDeviation="8" result="coloredBlur"/>
      <feMerge>
        <feMergeNode in="coloredBlur"/>
        <feMergeNode in="SourceGraphic"/>
      </feMerge>
    </filter>
    <filter id="shadow">
      <feDropShadow dx="0" dy="4" stdDeviation="8" flood-color="#000000" flood-opacity="0.5"/>
    </filter>
  </defs>

  <!-- Background -->
  <rect width="1200" height="630" fill="url(#bgGradient)"/>

  <!-- Decorative ocean gradients -->
  <ellipse cx="1000" cy="150" rx="300" ry="200" fill="url(#oceanGradient)" opacity="0.4"/>
  <ellipse cx="200" cy="530" rx="250" ry="180" fill="url(#oceanGradient)" opacity="0.3"/>

  <!-- Wave patterns -->
  <path d="M 0 400 Q 300 350 600 400 T 1200 400 L 1200 630 L 0 630 Z" fill="#1E90A0" opacity="0.08"/>
  <path d="M 0 450 Q 250 420 500 450 T 1000 450 T 1200 450 L 1200 630 L 0 630 Z" fill="#4FD1C5" opacity="0.05"/>

  <!-- Caviar roe particles -->
  <circle cx="731.9763830879632" cy="460.60345835405667" r="5.2476100490101425" fill="#CFAE58" opacity="0.11115636955750835"/>
  <circle cx="1098.384363112448" cy="142.3050741954805" r="4.849006842526731" fill="#CFAE58" opacity="0.2179848899260799"/>
  <circle cx="186.31051988957427" cy="87.51881813510425" r="4.8539608466121145" fill="#CFAE58" opacity="0.23510203573255223"/>
  <circle cx="908.630357246436" cy="163.9657736727622" r="3.717630353946606" fill="#CFAE58" opacity="0.23406921258499114"/>
  <circle cx="401.81463170931136" cy="103.4870186598005" r="2.6975757238689075" fill="#CFAE58" opacity="0.24440736068850535"/>
  <circle cx="571.3988739270858" cy="531.851067003995" r="3.6802734331154934" fill="#CFAE58" opacity="0.20594491413425425"/>
  <circle cx="221.59022397005376" cy="338.09795578407346" r="5.037401862934309" fill="#CFAE58" opacity="0.1838176148971749"/>
  <circle cx="787.5028461640519" cy="52.08645384469978" r="2.8725440706905987" fill="#CFAE58" opacity="0.1857198004176262"/>
  <circle cx="419.6857430487231" cy="230.0921429344025" r="2.6552034264448956" fill="#CFAE58" opacity="0.19679051313775764"/>
  <circle cx="277.6320531366663" cy="88.70465490238355" r="2.9284454069150385" fill="#CFAE58" opacity="0.22046274228237456"/>
  <circle cx="429.50616033756404" cy="248.04203843802796" r="4.364157513047196" fill="#CFAE58" opacity="0.1758586010163516"/>
  <circle cx="674.7793580169263" cy="384.8163773294785" r="5.340484988699882" fill="#CFAE58" opacity="0.14183418259099156"/>
  <circle cx="152.6383919164603" cy="490.2907747914783" r="2.115675391264972" fill="#CFAE58" opacity="0.10690421691986304"/>
  <circle cx="94.33051535369418" cy="571.471171379992" r="5.522092396871806" fill="#CFAE58" opacity="0.20865742602745824"/>
  <circle cx="570.6331917888566" cy="306.22087409868425" r="2.3045926516415953" fill="#CFAE58" opacity="0.2264519701389812"/>
  <circle cx="110.44361474504765" cy="310.2940235621339" r="4.0579361509065235" fill="#CFAE58" opacity="0.15022950750571734"/>
  <circle cx="217.11730530451837" cy="282.2891656221312" r="3.965803684985695" fill="#CFAE58" opacity="0.1424781312479739"/>
  <circle cx="124.62446940359948" cy="491.42195552967644" r="3.2352717260995103" fill="#CFAE58" opacity="0.21719410275590018"/>
  <circle cx="1021.1186747927613" cy="6.292817804896115" r="5.0136070764179035" fill="#CFAE58" opacity="0.19653328181448693"/>
  <circle cx="986.3394803138677" cy="487.91590873761436" r="3.0883037178874284" fill="#CFAE58" opacity="0.1625340743941741"/>
  <circle cx="791.0723491723494" cy="596.9557249975047" r="5.550493585723957" fill="#CFAE58" opacity="0.22025124183220254"/>
  <circle cx="476.24921254520194" cy="464.4200979963644" r="5.618928549244415" fill="#CFAE58" opacity="0.16693497587171074"/>
  <circle cx="116.39908111920904" cy="60.00851653610391" r="4.405864047462858" fill="#CFAE58" opacity="0.1641794846447619"/>
  <circle cx="705.3836893530049" cy="166.76476875298877" r="5.995009500699131" fill="#CFAE58" opacity="0.1089960700286166"/>
  <circle cx="606.7605176118689" cy="233.16540280567358" r="3.841161091083105" fill="#CFAE58" opacity="0.1091311540221551"/>
  <circle cx="827.8019131260037" cy="190.71679433052086" r="4.863862176772159" fill="#CFAE58" opacity="0.21209066399488574"/>
  <circle cx="865.3140578121279" cy="542.2047221956628" r="2.8323132126682857" fill="#CFAE58" opacity="0.13957614898307122"/>
  <circle cx="227.39514464663583" cy="610.7703617141406" r="5.2298274153760635" fill="#CFAE58" opacity="0.1274177925884263"/>
  <circle cx="556.9265253993005" cy="606.2059818477554" r="2.2854245060546283" fill="#CFAE58" opacity="0.18219971789622702"/>
  <circle cx="614.9644538227924" cy="307.7447440239718" r="2.4721564651387693" fill="#CFAE58" opacity="0.21429330037496608"/>

  <!-- Border with glow -->
  <rect x="40" y="40" width="1120" height="550" fill="none" stroke="url(#goldGradient)" stroke-width="3" rx="12" filter="url(#softGlow)"/>

  <!-- Icon circle with premium background -->
  <circle cx="150" cy="200" r="75" fill="#CFAE58" opacity="0.15" filter="url(#softGlow)"/>
  <circle cx="150" cy="200" r="70" fill="#CFAE58" opacity="0.25"/>
  <text x="150" y="235" font-size="90" text-anchor="middle" fill="#CFAE58" filter="url(#glow)">❓</text>

  <!-- Premium logo (crown) with enhanced styling -->
  <g transform="translate(100, 70)">
    <path d="M 30 20 L 40 35 L 35 35 Z M 50 15 L 60 35 L 45 35 Z M 65 20 L 75 35 L 70 35 Z M 30 35 L 75 35 L 73 45 L 32 45 Z"
          fill="url(#goldGradient)" filter="url(#glow)" stroke="#B89842" stroke-width="0.5"/>
    <circle cx="40" cy="25" r="3" fill="#4FD1C5" filter="url(#glow)"/>
    <circle cx="52" cy="20" r="4" fill="#4FD1C5" filter="url(#glow)"/>
    <circle cx="65" cy="25" r="3" fill="#4FD1C5" filter="url(#glow)"/>
  </g>

  <!-- Title with shadow -->
  <text x="280" y="180" font-family="Georgia, serif" font-size="72" font-weight="bold"
        fill="url(#goldGradient)" filter="url(#shadow)">FAQ</text>

  <!-- Subtitle with subtle glow -->
  <text x="280" y="230" font-family="Arial, sans-serif" font-size="36"
        fill="#D6DEE6" opacity="0.95" filter="url(#softGlow)">Frequently Asked Questions</text>

  <!-- Brand name with letter spacing -->
  <text x="280" y="300" font-family="Georgia, serif" font-size="32" font-weight="bold"
        fill="#CFAE58" letter-spacing="4" filter="url(#glow)">ROYAL KETA</text>

  <!-- Russian tagline -->
  <text x="280" y="340" font-family="Arial, sans-serif" font-size="22" font-style="italic"
        fill="#8B95A1" opacity="0.8">От икринки к королевской</text>

  <!-- Location -->
  <text x="280" y="380" font-family="Arial, sans-serif" font-size="20"
        fill="#8B95A1" opacity="0.7">Невельский район, Сахалин</text>

  <!-- Website with glow -->
  <text x="100" y="570" font-family="Arial, sans-serif" font-size="30" font-weight="bold"
        fill="#4FD1C5" filter="url(#glow)">royalketa.com</text>

  <!-- Enhanced decorative salmon silhouette -->
  <g transform="translate(950, 480)" opacity="0.2" filter="url(#softGlow)">
    <ellipse cx="0" cy="0" rx="90" ry="35" fill="#CFAE58"/>
    <path d="M 90 0 L 120 -18 L 130 0 L 120 18 Z" fill="#CFAE58"/>
    <path d="M -25 -35 L 0 -45 L 25 -35 Z" fill="#CFAE58"/>
    <ellipse cx="-50" cy="0" rx="15" ry="12" fill="#0B0F14"/>
  </g>

  <!-- Additional decorative caviar clusters -->
  <g opacity="0.2">
    <circle cx="1050" cy="120" r="6" fill="#CFAE58"/>
    <circle cx="1065" cy="115" r="5" fill="#CFAE58"/>
    <circle cx="1058" cy="130" r="4" fill="#CFAE58"/>
    <circle cx="150" cy="500" r="5" fill="#4FD1C5"/>
    <circle cx="165" cy="508" r="4" fill="#4FD1C5"/>
    <circle cx="140" cy="512" r="5" fill="#4FD1C5"/>
  </g>
</svg>