<svg width="1200" height="630" xmlns="http://www.w3.org/2000/svg">
  <defs>
    <linearGradient id="bgGradient" x1="0%" y1="0%" x2="100%" y2="100%">
      <stop offset="0%" style="stop-color:#0B0F14;stop-opacity:1" />
      <stop offset="50%" style="stop-color:#0F1619;stop-opacity:1" />
      <stop offset="100%" style="stop-color:#0F1922;stop-opacity:1" />
    </linearGradient>
    <linearGradient id="goldGradient" x1="0%" y1="0%" x2="100%" y2="0%">
      <stop offset="0%" style="stop-color:#E5D596;stop-opacity:1" />
      <stop offset="50%" style="stop-color:#CFAE58;stop-opacity:1" />
      <stop offset="100%" style="stop-color:#B89842;stop-opacity:1" />
    </linearGradient>
    <radialGradient id="oceanGradient" cx="50%" cy="50%" r="50%">
      <stop offset="0%" style="stop-color:#4FD1C5;stop-opacity:0.3" />
      <stop offset="100%" style="stop-color:#1E90A0;stop-opacity:0.05" />
    </radialGradient>
    <filter id="glow">
      <feGaussianBlur stdDeviation="5" result="coloredBlur"/>
      <feMerge>
        <feMergeNode in="coloredBlur"/>
        <feMergeNode in="SourceGraphic"/>
      </feMerge>
    </filter>
    <filter id="softGlow">
      <feGaussianBlur stdDeviation="8" result="coloredBlur"/>
      <feMerge>
        <feMergeNode in="coloredBlur"/>
        <feMergeNode in="SourceGraphic"/>
      </feMerge>
    </filter>
    <filter id="shadow">
      <feDropShadow dx="0" dy="4" stdDeviation="8" flood-color="#000000" flood-opacity="0.5"/>
    </filter>
  </defs>

  <!-- Background -->
  <rect width="1200" height="630" fill="url(#bgGradient)"/>

  <!-- Decorative ocean gradients -->
  <ellipse cx="1000" cy="150" rx="300" ry="200" fill="url(#oceanGradient)" opacity="0.4"/>
  <ellipse cx="200" cy="530" rx="250" ry="180" fill="url(#oceanGradient)" opacity="0.3"/>

  <!-- Wave patterns -->
  <path d="M 0 400 Q 300 350 600 400 T 1200 400 L 1200 630 L 0 630 Z" fill="#1E90A0" opacity="0.08"/>
  <path d="M 0 450 Q 250 420 500 450 T 1000 450 T 1200 450 L 1200 630 L 0 630 Z" fill="#4FD1C5" opacity="0.05"/>

  <!-- Caviar roe particles -->
  <circle cx="1112.3486892070184" cy="434.2532067891697" r="4.039222657178367" fill="#CFAE58" opacity="0.134942335542286"/>
  <circle cx="1136.690754090219" cy="160.56825123747484" r="5.9771534461225055" fill="#CFAE58" opacity="0.14195958321216964"/>
  <circle cx="710.7970259271258" cy="372.285042383371" r="2.2095895065871667" fill="#CFAE58" opacity="0.14581248452927206"/>
  <circle cx="479.5211998970582" cy="167.27754173351457" r="4.095351047227867" fill="#CFAE58" opacity="0.23060434053368523"/>
  <circle cx="405.7082256948019" cy="332.35746954517475" r="4.65659450650327" fill="#CFAE58" opacity="0.20050524220985716"/>
  <circle cx="621.664169309765" cy="254.90381938631208" r="2.3093518927291226" fill="#CFAE58" opacity="0.10388890711926678"/>
  <circle cx="913.2708324491327" cy="442.4516337720598" r="3.5744338442839814" fill="#CFAE58" opacity="0.10577745802018182"/>
  <circle cx="420.7924184521753" cy="454.05602960759785" r="5.889064359738001" fill="#CFAE58" opacity="0.11893053726506633"/>
  <circle cx="569.9481911451351" cy="544.5052166375405" r="3.418851848886331" fill="#CFAE58" opacity="0.11167931401069288"/>
  <circle cx="900.5687050046956" cy="142.31417372511024" r="3.811617631892239" fill="#CFAE58" opacity="0.15016058309081964"/>
  <circle cx="936.6282293919123" cy="502.18501114704696" r="2.4010696754901493" fill="#CFAE58" opacity="0.1107524534680299"/>
  <circle cx="326.77507005726153" cy="295.63808055496844" r="2.8876743416198596" fill="#CFAE58" opacity="0.10690969753614758"/>
  <circle cx="239.52612883009957" cy="547.2104891928105" r="4.813516306358335" fill="#CFAE58" opacity="0.2047563167648737"/>
  <circle cx="1088.5153675090146" cy="617.9072974275949" r="4.6775816539013775" fill="#CFAE58" opacity="0.12249303093340219"/>
  <circle cx="818.3854779184113" cy="212.53087257807306" r="5.3084684227931085" fill="#CFAE58" opacity="0.176276141949887"/>
  <circle cx="812.740801058356" cy="480.14934320356673" r="4.9765008986508" fill="#CFAE58" opacity="0.2421895425632904"/>
  <circle cx="301.0827613611719" cy="628.7769138393196" r="3.5755156789566294" fill="#CFAE58" opacity="0.21504517265503947"/>
  <circle cx="614.9093827069397" cy="103.73589265628" r="2.79748373106688" fill="#CFAE58" opacity="0.23053978289738342"/>
  <circle cx="127.02867490692094" cy="129.7180250579978" r="2.2327647829152983" fill="#CFAE58" opacity="0.24861744250762102"/>
  <circle cx="835.36738237632" cy="272.07494514865795" r="2.100077559933288" fill="#CFAE58" opacity="0.18410420245796105"/>
  <circle cx="497.30714185683445" cy="56.67958938982258" r="5.12285315015043" fill="#CFAE58" opacity="0.18536947826401362"/>
  <circle cx="649.8643201610948" cy="587.7207332591214" r="3.466472256290107" fill="#CFAE58" opacity="0.2078460999081615"/>
  <circle cx="487.24901796280426" cy="290.6910071477196" r="2.7082196413395185" fill="#CFAE58" opacity="0.22514018818301296"/>
  <circle cx="842.6001967876372" cy="409.16260870244315" r="4.861076181009955" fill="#CFAE58" opacity="0.18374789280676837"/>
  <circle cx="1026.889641708363" cy="584.7685365375148" r="4.158128135966896" fill="#CFAE58" opacity="0.1490445531114803"/>
  <circle cx="667.9976950447225" cy="168.7304005720615" r="5.904056645565074" fill="#CFAE58" opacity="0.11477317170776316"/>
  <circle cx="57.73486014302747" cy="226.63030037007042" r="5.634224759075154" fill="#CFAE58" opacity="0.1365387953953095"/>
  <circle cx="470.7171961436109" cy="114.09146386368352" r="5.008149405378604" fill="#CFAE58" opacity="0.22067855842238823"/>
  <circle cx="106.42778040926193" cy="111.08382300614365" r="2.9489374294394133" fill="#CFAE58" opacity="0.2402538000678414"/>
  <circle cx="1013.5537213863714" cy="301.3089549068569" r="4.4465552545319085" fill="#CFAE58" opacity="0.22183956194514132"/>

  <!-- Border with glow -->
  <rect x="40" y="40" width="1120" height="550" fill="none" stroke="url(#goldGradient)" stroke-width="3" rx="12" filter="url(#softGlow)"/>

  <!-- Icon circle with premium background -->
  <circle cx="150" cy="200" r="75" fill="#CFAE58" opacity="0.15" filter="url(#softGlow)"/>
  <circle cx="150" cy="200" r="70" fill="#CFAE58" opacity="0.25"/>
  <text x="150" y="235" font-size="90" text-anchor="middle" fill="#CFAE58" filter="url(#glow)">❓</text>

  <!-- Premium logo (crown) with enhanced styling -->
  <g transform="translate(100, 70)">
    <path d="M 30 20 L 40 35 L 35 35 Z M 50 15 L 60 35 L 45 35 Z M 65 20 L 75 35 L 70 35 Z M 30 35 L 75 35 L 73 45 L 32 45 Z"
          fill="url(#goldGradient)" filter="url(#glow)" stroke="#B89842" stroke-width="0.5"/>
    <circle cx="40" cy="25" r="3" fill="#4FD1C5" filter="url(#glow)"/>
    <circle cx="52" cy="20" r="4" fill="#4FD1C5" filter="url(#glow)"/>
    <circle cx="65" cy="25" r="3" fill="#4FD1C5" filter="url(#glow)"/>
  </g>

  <!-- Title with shadow -->
  <text x="280" y="180" font-family="Georgia, serif" font-size="72" font-weight="bold"
        fill="url(#goldGradient)" filter="url(#shadow)">FAQ</text>

  <!-- Subtitle with subtle glow -->
  <text x="280" y="230" font-family="Arial, sans-serif" font-size="36"
        fill="#D6DEE6" opacity="0.95" filter="url(#softGlow)">Frequently Asked Questions</text>

  <!-- Brand name with letter spacing -->
  <text x="280" y="300" font-family="Georgia, serif" font-size="32" font-weight="bold"
        fill="#CFAE58" letter-spacing="4" filter="url(#glow)">ROYAL KETA</text>

  <!-- Russian tagline -->
  <text x="280" y="340" font-family="Arial, sans-serif" font-size="22" font-style="italic"
        fill="#8B95A1" opacity="0.8">От икринки к королевской</text>

  <!-- Location -->
  <text x="280" y="380" font-family="Arial, sans-serif" font-size="20"
        fill="#8B95A1" opacity="0.7">Невельский район, Сахалин</text>

  <!-- Website with glow -->
  <text x="100" y="570" font-family="Arial, sans-serif" font-size="30" font-weight="bold"
        fill="#4FD1C5" filter="url(#glow)">royalketa.com</text>

  <!-- Enhanced decorative salmon silhouette -->
  <g transform="translate(950, 480)" opacity="0.2" filter="url(#softGlow)">
    <ellipse cx="0" cy="0" rx="90" ry="35" fill="#CFAE58"/>
    <path d="M 90 0 L 120 -18 L 130 0 L 120 18 Z" fill="#CFAE58"/>
    <path d="M -25 -35 L 0 -45 L 25 -35 Z" fill="#CFAE58"/>
    <ellipse cx="-50" cy="0" rx="15" ry="12" fill="#0B0F14"/>
  </g>

  <!-- Additional decorative caviar clusters -->
  <g opacity="0.2">
    <circle cx="1050" cy="120" r="6" fill="#CFAE58"/>
    <circle cx="1065" cy="115" r="5" fill="#CFAE58"/>
    <circle cx="1058" cy="130" r="4" fill="#CFAE58"/>
    <circle cx="150" cy="500" r="5" fill="#4FD1C5"/>
    <circle cx="165" cy="508" r="4" fill="#4FD1C5"/>
    <circle cx="140" cy="512" r="5" fill="#4FD1C5"/>
  </g>
</svg>