<svg width="1200" height="630" xmlns="http://www.w3.org/2000/svg">
  <defs>
    <linearGradient id="bgGradient" x1="0%" y1="0%" x2="100%" y2="100%">
      <stop offset="0%" style="stop-color:#0B0F14;stop-opacity:1" />
      <stop offset="50%" style="stop-color:#0F1619;stop-opacity:1" />
      <stop offset="100%" style="stop-color:#0F1922;stop-opacity:1" />
    </linearGradient>
    <linearGradient id="goldGradient" x1="0%" y1="0%" x2="100%" y2="0%">
      <stop offset="0%" style="stop-color:#E5D596;stop-opacity:1" />
      <stop offset="50%" style="stop-color:#CFAE58;stop-opacity:1" />
      <stop offset="100%" style="stop-color:#B89842;stop-opacity:1" />
    </linearGradient>
    <radialGradient id="oceanGradient" cx="50%" cy="50%" r="50%">
      <stop offset="0%" style="stop-color:#4FD1C5;stop-opacity:0.3" />
      <stop offset="100%" style="stop-color:#1E90A0;stop-opacity:0.05" />
    </radialGradient>
    <filter id="glow">
      <feGaussianBlur stdDeviation="5" result="coloredBlur"/>
      <feMerge>
        <feMergeNode in="coloredBlur"/>
        <feMergeNode in="SourceGraphic"/>
      </feMerge>
    </filter>
    <filter id="softGlow">
      <feGaussianBlur stdDeviation="8" result="coloredBlur"/>
      <feMerge>
        <feMergeNode in="coloredBlur"/>
        <feMergeNode in="SourceGraphic"/>
      </feMerge>
    </filter>
    <filter id="shadow">
      <feDropShadow dx="0" dy="4" stdDeviation="8" flood-color="#000000" flood-opacity="0.5"/>
    </filter>
  </defs>

  <!-- Background -->
  <rect width="1200" height="630" fill="url(#bgGradient)"/>

  <!-- Decorative ocean gradients -->
  <ellipse cx="1000" cy="150" rx="300" ry="200" fill="url(#oceanGradient)" opacity="0.4"/>
  <ellipse cx="200" cy="530" rx="250" ry="180" fill="url(#oceanGradient)" opacity="0.3"/>

  <!-- Wave patterns -->
  <path d="M 0 400 Q 300 350 600 400 T 1200 400 L 1200 630 L 0 630 Z" fill="#1E90A0" opacity="0.08"/>
  <path d="M 0 450 Q 250 420 500 450 T 1000 450 T 1200 450 L 1200 630 L 0 630 Z" fill="#4FD1C5" opacity="0.05"/>

  <!-- Caviar roe particles -->
  <circle cx="175.2444613427767" cy="614.1076471762434" r="2.6864957642355924" fill="#CFAE58" opacity="0.15152610281362097"/>
  <circle cx="1036.5075057384536" cy="173.21880261665297" r="3.4183591636405866" fill="#CFAE58" opacity="0.18864453220199304"/>
  <circle cx="309.78163643680966" cy="393.81856446197884" r="5.957383691017747" fill="#CFAE58" opacity="0.22736189692210435"/>
  <circle cx="904.3548909712862" cy="80.21487840024048" r="3.553929096133872" fill="#CFAE58" opacity="0.17046335160254483"/>
  <circle cx="120.1556696915043" cy="123.87076687953721" r="2.0544439117345807" fill="#CFAE58" opacity="0.2454360387132538"/>
  <circle cx="39.976637703032345" cy="5.519832003337671" r="3.86676477967119" fill="#CFAE58" opacity="0.19648635065585296"/>
  <circle cx="259.34284581184653" cy="432.6585600598412" r="2.342298294334421" fill="#CFAE58" opacity="0.23691996323455428"/>
  <circle cx="523.7644068764653" cy="501.58006088097136" r="2.875431352141007" fill="#CFAE58" opacity="0.14350175963999434"/>
  <circle cx="1188.3099405397986" cy="198.00873046147896" r="4.486283873989531" fill="#CFAE58" opacity="0.19684640314429017"/>
  <circle cx="851.3406603327951" cy="366.53523030465226" r="3.4614069404330077" fill="#CFAE58" opacity="0.20869815542552006"/>
  <circle cx="788.3360334626843" cy="514.9031631858167" r="4.646154314832586" fill="#CFAE58" opacity="0.24558750689726866"/>
  <circle cx="333.0654268253749" cy="386.45814596083835" r="5.383033757152" fill="#CFAE58" opacity="0.18243659948236918"/>
  <circle cx="656.8746820453564" cy="301.46931057230603" r="4.89307418379896" fill="#CFAE58" opacity="0.134352498760077"/>
  <circle cx="48.313885428357" cy="167.4800190480285" r="3.5249472555597827" fill="#CFAE58" opacity="0.10738167453517086"/>
  <circle cx="106.97328811161073" cy="558.4668352489114" r="5.405153359889581" fill="#CFAE58" opacity="0.20267708144880658"/>
  <circle cx="894.6667358601669" cy="89.74815629715714" r="3.7910861522379786" fill="#CFAE58" opacity="0.18661435430716855"/>
  <circle cx="359.68260939174235" cy="466.4817420683882" r="2.364762258590386" fill="#CFAE58" opacity="0.2181648502705414"/>
  <circle cx="951.3065926755905" cy="406.09401457432773" r="4.873028680984731" fill="#CFAE58" opacity="0.24288738749670366"/>
  <circle cx="304.9307615930176" cy="25.253493221519367" r="2.820936917824593" fill="#CFAE58" opacity="0.10257360152971645"/>
  <circle cx="963.0503641146988" cy="214.00960963394013" r="2.412910703397758" fill="#CFAE58" opacity="0.1821433082691193"/>
  <circle cx="85.64522495308195" cy="584.1385618925773" r="5.780957249714739" fill="#CFAE58" opacity="0.10041704969922592"/>
  <circle cx="945.4287847427531" cy="548.1835983405177" r="4.372601271903273" fill="#CFAE58" opacity="0.1405648538005923"/>
  <circle cx="741.5507269005066" cy="196.10787820881598" r="3.7064551053652535" fill="#CFAE58" opacity="0.15243563922008718"/>
  <circle cx="80.71992105881765" cy="228.91090301408406" r="2.7705380868626026" fill="#CFAE58" opacity="0.121202903088339"/>
  <circle cx="676.501968416629" cy="524.4270264715573" r="2.191050189443268" fill="#CFAE58" opacity="0.10833741140777643"/>
  <circle cx="110.34337293833754" cy="380.01180702247615" r="2.1818072912439264" fill="#CFAE58" opacity="0.20847658204717312"/>
  <circle cx="769.5576794493215" cy="443.4318776721333" r="2.545191382933445" fill="#CFAE58" opacity="0.23181044688412347"/>
  <circle cx="208.6190603128761" cy="105.29707048245486" r="2.05265475266973" fill="#CFAE58" opacity="0.24094523515874336"/>
  <circle cx="366.597424750703" cy="458.9002575594621" r="5.468323308430034" fill="#CFAE58" opacity="0.16680942924131748"/>
  <circle cx="792.4540081701443" cy="541.0871424735353" r="3.577805083555958" fill="#CFAE58" opacity="0.23626602308391437"/>

  <!-- Border with glow -->
  <rect x="40" y="40" width="1120" height="550" fill="none" stroke="url(#goldGradient)" stroke-width="3" rx="12" filter="url(#softGlow)"/>

  <!-- Icon circle with premium background -->
  <circle cx="150" cy="200" r="75" fill="#CFAE58" opacity="0.15" filter="url(#softGlow)"/>
  <circle cx="150" cy="200" r="70" fill="#CFAE58" opacity="0.25"/>
  <text x="150" y="235" font-size="90" text-anchor="middle" fill="#CFAE58" filter="url(#glow)">❓</text>

  <!-- Premium logo (crown) with enhanced styling -->
  <g transform="translate(100, 70)">
    <path d="M 30 20 L 40 35 L 35 35 Z M 50 15 L 60 35 L 45 35 Z M 65 20 L 75 35 L 70 35 Z M 30 35 L 75 35 L 73 45 L 32 45 Z"
          fill="url(#goldGradient)" filter="url(#glow)" stroke="#B89842" stroke-width="0.5"/>
    <circle cx="40" cy="25" r="3" fill="#4FD1C5" filter="url(#glow)"/>
    <circle cx="52" cy="20" r="4" fill="#4FD1C5" filter="url(#glow)"/>
    <circle cx="65" cy="25" r="3" fill="#4FD1C5" filter="url(#glow)"/>
  </g>

  <!-- Title with shadow -->
  <text x="280" y="180" font-family="Georgia, serif" font-size="72" font-weight="bold"
        fill="url(#goldGradient)" filter="url(#shadow)">FAQ</text>

  <!-- Subtitle with subtle glow -->
  <text x="280" y="230" font-family="Arial, sans-serif" font-size="36"
        fill="#D6DEE6" opacity="0.95" filter="url(#softGlow)">Frequently Asked Questions</text>

  <!-- Brand name with letter spacing -->
  <text x="280" y="300" font-family="Georgia, serif" font-size="32" font-weight="bold"
        fill="#CFAE58" letter-spacing="4" filter="url(#glow)">ROYAL KETA</text>

  <!-- Russian tagline -->
  <text x="280" y="340" font-family="Arial, sans-serif" font-size="22" font-style="italic"
        fill="#8B95A1" opacity="0.8">От икринки к королевской</text>

  <!-- Location -->
  <text x="280" y="380" font-family="Arial, sans-serif" font-size="20"
        fill="#8B95A1" opacity="0.7">Невельский район, Сахалин</text>

  <!-- Website with glow -->
  <text x="100" y="570" font-family="Arial, sans-serif" font-size="30" font-weight="bold"
        fill="#4FD1C5" filter="url(#glow)">royalketa.com</text>

  <!-- Enhanced decorative salmon silhouette -->
  <g transform="translate(950, 480)" opacity="0.2" filter="url(#softGlow)">
    <ellipse cx="0" cy="0" rx="90" ry="35" fill="#CFAE58"/>
    <path d="M 90 0 L 120 -18 L 130 0 L 120 18 Z" fill="#CFAE58"/>
    <path d="M -25 -35 L 0 -45 L 25 -35 Z" fill="#CFAE58"/>
    <ellipse cx="-50" cy="0" rx="15" ry="12" fill="#0B0F14"/>
  </g>

  <!-- Additional decorative caviar clusters -->
  <g opacity="0.2">
    <circle cx="1050" cy="120" r="6" fill="#CFAE58"/>
    <circle cx="1065" cy="115" r="5" fill="#CFAE58"/>
    <circle cx="1058" cy="130" r="4" fill="#CFAE58"/>
    <circle cx="150" cy="500" r="5" fill="#4FD1C5"/>
    <circle cx="165" cy="508" r="4" fill="#4FD1C5"/>
    <circle cx="140" cy="512" r="5" fill="#4FD1C5"/>
  </g>
</svg>