<svg width="1200" height="630" xmlns="http://www.w3.org/2000/svg">
  <defs>
    <linearGradient id="bgGradient" x1="0%" y1="0%" x2="100%" y2="100%">
      <stop offset="0%" style="stop-color:#0B0F14;stop-opacity:1" />
      <stop offset="50%" style="stop-color:#0F1619;stop-opacity:1" />
      <stop offset="100%" style="stop-color:#0F1922;stop-opacity:1" />
    </linearGradient>
    <linearGradient id="goldGradient" x1="0%" y1="0%" x2="100%" y2="0%">
      <stop offset="0%" style="stop-color:#E5D596;stop-opacity:1" />
      <stop offset="50%" style="stop-color:#CFAE58;stop-opacity:1" />
      <stop offset="100%" style="stop-color:#B89842;stop-opacity:1" />
    </linearGradient>
    <radialGradient id="oceanGradient" cx="50%" cy="50%" r="50%">
      <stop offset="0%" style="stop-color:#4FD1C5;stop-opacity:0.3" />
      <stop offset="100%" style="stop-color:#1E90A0;stop-opacity:0.05" />
    </radialGradient>
    <filter id="glow">
      <feGaussianBlur stdDeviation="5" result="coloredBlur"/>
      <feMerge>
        <feMergeNode in="coloredBlur"/>
        <feMergeNode in="SourceGraphic"/>
      </feMerge>
    </filter>
    <filter id="softGlow">
      <feGaussianBlur stdDeviation="8" result="coloredBlur"/>
      <feMerge>
        <feMergeNode in="coloredBlur"/>
        <feMergeNode in="SourceGraphic"/>
      </feMerge>
    </filter>
    <filter id="shadow">
      <feDropShadow dx="0" dy="4" stdDeviation="8" flood-color="#000000" flood-opacity="0.5"/>
    </filter>
  </defs>

  <!-- Background -->
  <rect width="1200" height="630" fill="url(#bgGradient)"/>

  <!-- Decorative ocean gradients -->
  <ellipse cx="1000" cy="150" rx="300" ry="200" fill="url(#oceanGradient)" opacity="0.4"/>
  <ellipse cx="200" cy="530" rx="250" ry="180" fill="url(#oceanGradient)" opacity="0.3"/>

  <!-- Wave patterns -->
  <path d="M 0 400 Q 300 350 600 400 T 1200 400 L 1200 630 L 0 630 Z" fill="#1E90A0" opacity="0.08"/>
  <path d="M 0 450 Q 250 420 500 450 T 1000 450 T 1200 450 L 1200 630 L 0 630 Z" fill="#4FD1C5" opacity="0.05"/>

  <!-- Caviar roe particles -->
  <circle cx="1180.5279108034003" cy="278.3748349096962" r="4.688952995122868" fill="#CFAE58" opacity="0.1722395893827562"/>
  <circle cx="852.4896218509336" cy="605.6336711852066" r="3.828284365639576" fill="#CFAE58" opacity="0.21984720189837972"/>
  <circle cx="774.2142837319611" cy="597.468927197646" r="2.76274032748944" fill="#CFAE58" opacity="0.12033255477260942"/>
  <circle cx="608.9025844949026" cy="411.64917588315586" r="3.3391988036944067" fill="#CFAE58" opacity="0.14982617478641713"/>
  <circle cx="790.9128651163317" cy="30.68886578538112" r="4.400900001477642" fill="#CFAE58" opacity="0.18036484920654497"/>
  <circle cx="257.15534444549695" cy="391.3697315566624" r="3.1323079497348942" fill="#CFAE58" opacity="0.2427445199025176"/>
  <circle cx="1191.116276728054" cy="602.6440732192418" r="2.003461380956144" fill="#CFAE58" opacity="0.2317582263623638"/>
  <circle cx="26.347860770110863" cy="108.87438843874344" r="4.7907579452190046" fill="#CFAE58" opacity="0.22462122957491953"/>
  <circle cx="599.0894939628566" cy="420.23181486463267" r="3.2428710954834417" fill="#CFAE58" opacity="0.16225209642211377"/>
  <circle cx="2.637740865150917" cy="568.3951181644783" r="3.777347370341586" fill="#CFAE58" opacity="0.17862659811719322"/>
  <circle cx="845.5622096959386" cy="407.97148144760587" r="5.796670383491362" fill="#CFAE58" opacity="0.2083684492706353"/>
  <circle cx="651.723540402634" cy="40.9028073671214" r="4.932449400855384" fill="#CFAE58" opacity="0.17813638176859348"/>
  <circle cx="468.95747500589613" cy="380.8219283802622" r="3.769923955103028" fill="#CFAE58" opacity="0.14193198693066192"/>
  <circle cx="589.7448482554607" cy="62.285656487370694" r="5.053999259981988" fill="#CFAE58" opacity="0.16979704516561483"/>
  <circle cx="699.7917772009345" cy="160.402413968058" r="4.223914791254572" fill="#CFAE58" opacity="0.16739015703627827"/>
  <circle cx="109.0327140412342" cy="16.87586577576345" r="3.08785978709288" fill="#CFAE58" opacity="0.11694343162337054"/>
  <circle cx="591.5568571225284" cy="256.0861297460601" r="4.446316977365663" fill="#CFAE58" opacity="0.24234061286194766"/>
  <circle cx="646.1405618105956" cy="467.04180593450474" r="2.1812192192797997" fill="#CFAE58" opacity="0.21096717197448825"/>
  <circle cx="1149.0399263011489" cy="247.06595643313506" r="4.85778529872528" fill="#CFAE58" opacity="0.10547095284608701"/>
  <circle cx="72.36194956651545" cy="514.142012436844" r="4.666923264351221" fill="#CFAE58" opacity="0.18509999966316457"/>
  <circle cx="410.9036096724313" cy="3.1206156891591617" r="3.555664162125262" fill="#CFAE58" opacity="0.11411860250850805"/>
  <circle cx="346.59464795271805" cy="85.78865450730486" r="4.276722421123137" fill="#CFAE58" opacity="0.20107749327385072"/>
  <circle cx="280.34592064651736" cy="545.5315416202776" r="5.631627109013763" fill="#CFAE58" opacity="0.17114770948026545"/>
  <circle cx="983.2316283640006" cy="48.874012384680015" r="5.732764327842705" fill="#CFAE58" opacity="0.11980816477213828"/>
  <circle cx="111.89573013689764" cy="10.376612356903694" r="4.998028599119933" fill="#CFAE58" opacity="0.10226249193356081"/>
  <circle cx="70.71557515351938" cy="299.7708806973051" r="4.88312282853364" fill="#CFAE58" opacity="0.12084820067049075"/>
  <circle cx="619.1139394462416" cy="237.70140169853943" r="5.123930997063033" fill="#CFAE58" opacity="0.2409646095655371"/>
  <circle cx="223.8361496823189" cy="291.03219462838473" r="2.9740402248302598" fill="#CFAE58" opacity="0.21662796543380036"/>
  <circle cx="1105.75176331675" cy="1.4106511463773919" r="2.414985630611174" fill="#CFAE58" opacity="0.1514511222362609"/>
  <circle cx="555.7447290851802" cy="516.4017596332583" r="2.899228868695536" fill="#CFAE58" opacity="0.1556901463761316"/>

  <!-- Border with glow -->
  <rect x="40" y="40" width="1120" height="550" fill="none" stroke="url(#goldGradient)" stroke-width="3" rx="12" filter="url(#softGlow)"/>

  <!-- Icon circle with premium background -->
  <circle cx="150" cy="200" r="75" fill="#CFAE58" opacity="0.15" filter="url(#softGlow)"/>
  <circle cx="150" cy="200" r="70" fill="#CFAE58" opacity="0.25"/>
  <text x="150" y="235" font-size="90" text-anchor="middle" fill="#CFAE58" filter="url(#glow)">📸</text>

  <!-- Premium logo (crown) with enhanced styling -->
  <g transform="translate(100, 70)">
    <path d="M 30 20 L 40 35 L 35 35 Z M 50 15 L 60 35 L 45 35 Z M 65 20 L 75 35 L 70 35 Z M 30 35 L 75 35 L 73 45 L 32 45 Z"
          fill="url(#goldGradient)" filter="url(#glow)" stroke="#B89842" stroke-width="0.5"/>
    <circle cx="40" cy="25" r="3" fill="#4FD1C5" filter="url(#glow)"/>
    <circle cx="52" cy="20" r="4" fill="#4FD1C5" filter="url(#glow)"/>
    <circle cx="65" cy="25" r="3" fill="#4FD1C5" filter="url(#glow)"/>
  </g>

  <!-- Title with shadow -->
  <text x="280" y="180" font-family="Georgia, serif" font-size="72" font-weight="bold"
        fill="url(#goldGradient)" filter="url(#shadow)">Photo Gallery</text>

  <!-- Subtitle with subtle glow -->
  <text x="280" y="230" font-family="Arial, sans-serif" font-size="36"
        fill="#D6DEE6" opacity="0.95" filter="url(#softGlow)">Science, Family Tours &amp; Caviar Production</text>

  <!-- Brand name with letter spacing -->
  <text x="280" y="300" font-family="Georgia, serif" font-size="32" font-weight="bold"
        fill="#CFAE58" letter-spacing="4" filter="url(#glow)">ROYAL KETA</text>

  <!-- Russian tagline -->
  <text x="280" y="340" font-family="Arial, sans-serif" font-size="22" font-style="italic"
        fill="#8B95A1" opacity="0.8">От икринки к королевской</text>

  <!-- Location -->
  <text x="280" y="380" font-family="Arial, sans-serif" font-size="20"
        fill="#8B95A1" opacity="0.7">Невельский район, Сахалин</text>

  <!-- Website with glow -->
  <text x="100" y="570" font-family="Arial, sans-serif" font-size="30" font-weight="bold"
        fill="#4FD1C5" filter="url(#glow)">royalketa.com</text>

  <!-- Enhanced decorative salmon silhouette -->
  <g transform="translate(950, 480)" opacity="0.2" filter="url(#softGlow)">
    <ellipse cx="0" cy="0" rx="90" ry="35" fill="#CFAE58"/>
    <path d="M 90 0 L 120 -18 L 130 0 L 120 18 Z" fill="#CFAE58"/>
    <path d="M -25 -35 L 0 -45 L 25 -35 Z" fill="#CFAE58"/>
    <ellipse cx="-50" cy="0" rx="15" ry="12" fill="#0B0F14"/>
  </g>

  <!-- Additional decorative caviar clusters -->
  <g opacity="0.2">
    <circle cx="1050" cy="120" r="6" fill="#CFAE58"/>
    <circle cx="1065" cy="115" r="5" fill="#CFAE58"/>
    <circle cx="1058" cy="130" r="4" fill="#CFAE58"/>
    <circle cx="150" cy="500" r="5" fill="#4FD1C5"/>
    <circle cx="165" cy="508" r="4" fill="#4FD1C5"/>
    <circle cx="140" cy="512" r="5" fill="#4FD1C5"/>
  </g>
</svg>