<svg width="1200" height="630" xmlns="http://www.w3.org/2000/svg">
  <defs>
    <linearGradient id="bgGradient" x1="0%" y1="0%" x2="100%" y2="100%">
      <stop offset="0%" style="stop-color:#0B0F14;stop-opacity:1" />
      <stop offset="50%" style="stop-color:#0F1619;stop-opacity:1" />
      <stop offset="100%" style="stop-color:#0F1922;stop-opacity:1" />
    </linearGradient>
    <linearGradient id="goldGradient" x1="0%" y1="0%" x2="100%" y2="0%">
      <stop offset="0%" style="stop-color:#E5D596;stop-opacity:1" />
      <stop offset="50%" style="stop-color:#CFAE58;stop-opacity:1" />
      <stop offset="100%" style="stop-color:#B89842;stop-opacity:1" />
    </linearGradient>
    <radialGradient id="oceanGradient" cx="50%" cy="50%" r="50%">
      <stop offset="0%" style="stop-color:#4FD1C5;stop-opacity:0.3" />
      <stop offset="100%" style="stop-color:#1E90A0;stop-opacity:0.05" />
    </radialGradient>
    <filter id="glow">
      <feGaussianBlur stdDeviation="5" result="coloredBlur"/>
      <feMerge>
        <feMergeNode in="coloredBlur"/>
        <feMergeNode in="SourceGraphic"/>
      </feMerge>
    </filter>
    <filter id="softGlow">
      <feGaussianBlur stdDeviation="8" result="coloredBlur"/>
      <feMerge>
        <feMergeNode in="coloredBlur"/>
        <feMergeNode in="SourceGraphic"/>
      </feMerge>
    </filter>
    <filter id="shadow">
      <feDropShadow dx="0" dy="4" stdDeviation="8" flood-color="#000000" flood-opacity="0.5"/>
    </filter>
  </defs>

  <!-- Background -->
  <rect width="1200" height="630" fill="url(#bgGradient)"/>

  <!-- Decorative ocean gradients -->
  <ellipse cx="1000" cy="150" rx="300" ry="200" fill="url(#oceanGradient)" opacity="0.4"/>
  <ellipse cx="200" cy="530" rx="250" ry="180" fill="url(#oceanGradient)" opacity="0.3"/>

  <!-- Wave patterns -->
  <path d="M 0 400 Q 300 350 600 400 T 1200 400 L 1200 630 L 0 630 Z" fill="#1E90A0" opacity="0.08"/>
  <path d="M 0 450 Q 250 420 500 450 T 1000 450 T 1200 450 L 1200 630 L 0 630 Z" fill="#4FD1C5" opacity="0.05"/>

  <!-- Caviar roe particles -->
  <circle cx="346.4088152344878" cy="536.4013882787659" r="5.282928589805039" fill="#CFAE58" opacity="0.2445031521922069"/>
  <circle cx="659.5797524907338" cy="532.348788958496" r="4.498043438854715" fill="#CFAE58" opacity="0.10462039563045916"/>
  <circle cx="1148.4417095252793" cy="133.4572511221457" r="3.9745906542892646" fill="#CFAE58" opacity="0.16117698774117595"/>
  <circle cx="996.8879356666298" cy="96.92033803443525" r="5.617832221582701" fill="#CFAE58" opacity="0.21886532974035397"/>
  <circle cx="252.82803963109964" cy="261.74854966933475" r="5.3778016709147725" fill="#CFAE58" opacity="0.18452390075130376"/>
  <circle cx="570.0813095728041" cy="485.74001909613617" r="2.2505548837802727" fill="#CFAE58" opacity="0.2082148747831497"/>
  <circle cx="413.5067853504447" cy="207.30790192434966" r="5.16891516515321" fill="#CFAE58" opacity="0.1337014851717536"/>
  <circle cx="978.8838585595201" cy="464.562435224562" r="5.648108730856556" fill="#CFAE58" opacity="0.23320528950427447"/>
  <circle cx="129.42367588536916" cy="159.58953773933806" r="3.4132595084950843" fill="#CFAE58" opacity="0.24957100566946833"/>
  <circle cx="216.64360184599732" cy="493.86573358244806" r="5.963070920171573" fill="#CFAE58" opacity="0.19581098415875953"/>
  <circle cx="1166.4337137375305" cy="301.213637798166" r="2.8888271941232584" fill="#CFAE58" opacity="0.2344077942818869"/>
  <circle cx="594.9111897978939" cy="130.4730724767285" r="2.7777979265211763" fill="#CFAE58" opacity="0.21047925448336147"/>
  <circle cx="1138.497519307685" cy="192.94544578876372" r="2.220712517667601" fill="#CFAE58" opacity="0.19074629879994476"/>
  <circle cx="1140.6349761400088" cy="350.41269430194734" r="4.934620750885079" fill="#CFAE58" opacity="0.21706247235259396"/>
  <circle cx="1065.495407005859" cy="99.94890184288082" r="5.7586733016434986" fill="#CFAE58" opacity="0.21582279412920588"/>
  <circle cx="908.6205420732797" cy="527.2379717162303" r="5.118035704632524" fill="#CFAE58" opacity="0.19304423142250607"/>
  <circle cx="812.2189454812753" cy="159.77839874769822" r="3.5980870946041494" fill="#CFAE58" opacity="0.19925765803535672"/>
  <circle cx="788.6227230230601" cy="30.260492820043062" r="4.111429757143601" fill="#CFAE58" opacity="0.1302263627516823"/>
  <circle cx="688.122675464409" cy="582.2827841524659" r="2.8368236047546507" fill="#CFAE58" opacity="0.23941559565644277"/>
  <circle cx="513.5119501106682" cy="81.50598495264884" r="4.4176854307976825" fill="#CFAE58" opacity="0.10035073872910491"/>
  <circle cx="147.66776876613292" cy="237.18708320872514" r="4.268550840774303" fill="#CFAE58" opacity="0.20470394967102457"/>
  <circle cx="746.2564569032032" cy="30.895409746347912" r="5.116144338279023" fill="#CFAE58" opacity="0.12120218163806303"/>
  <circle cx="1004.1484177828582" cy="160.75661912196566" r="5.670760388550386" fill="#CFAE58" opacity="0.18585375947110666"/>
  <circle cx="440.1007385185052" cy="61.0315085334433" r="2.0267859783012905" fill="#CFAE58" opacity="0.19046943507474404"/>
  <circle cx="55.14043275748044" cy="400.7359894054752" r="4.804749538340269" fill="#CFAE58" opacity="0.10380696816091477"/>
  <circle cx="364.9559453945677" cy="1.3547092633356406" r="2.2570969409132844" fill="#CFAE58" opacity="0.12196793930051751"/>
  <circle cx="155.34540349528743" cy="280.9521593460691" r="4.338778388973106" fill="#CFAE58" opacity="0.23364281679286075"/>
  <circle cx="298.34651543885064" cy="299.22602999848647" r="4.165427112288434" fill="#CFAE58" opacity="0.20637577072851265"/>
  <circle cx="229.94900536490937" cy="188.02655868488782" r="5.048342582667496" fill="#CFAE58" opacity="0.14076131211599718"/>
  <circle cx="828.5346811381869" cy="493.36428887127624" r="4.603078779091781" fill="#CFAE58" opacity="0.23433708927940933"/>

  <!-- Border with glow -->
  <rect x="40" y="40" width="1120" height="550" fill="none" stroke="url(#goldGradient)" stroke-width="3" rx="12" filter="url(#softGlow)"/>

  <!-- Icon circle with premium background -->
  <circle cx="150" cy="200" r="75" fill="#CFAE58" opacity="0.15" filter="url(#softGlow)"/>
  <circle cx="150" cy="200" r="70" fill="#CFAE58" opacity="0.25"/>
  <text x="150" y="235" font-size="90" text-anchor="middle" fill="#CFAE58" filter="url(#glow)">📸</text>

  <!-- Premium logo (crown) with enhanced styling -->
  <g transform="translate(100, 70)">
    <path d="M 30 20 L 40 35 L 35 35 Z M 50 15 L 60 35 L 45 35 Z M 65 20 L 75 35 L 70 35 Z M 30 35 L 75 35 L 73 45 L 32 45 Z"
          fill="url(#goldGradient)" filter="url(#glow)" stroke="#B89842" stroke-width="0.5"/>
    <circle cx="40" cy="25" r="3" fill="#4FD1C5" filter="url(#glow)"/>
    <circle cx="52" cy="20" r="4" fill="#4FD1C5" filter="url(#glow)"/>
    <circle cx="65" cy="25" r="3" fill="#4FD1C5" filter="url(#glow)"/>
  </g>

  <!-- Title with shadow -->
  <text x="280" y="180" font-family="Georgia, serif" font-size="72" font-weight="bold"
        fill="url(#goldGradient)" filter="url(#shadow)">Photo Gallery</text>

  <!-- Subtitle with subtle glow -->
  <text x="280" y="230" font-family="Arial, sans-serif" font-size="36"
        fill="#D6DEE6" opacity="0.95" filter="url(#softGlow)">Science, Family Tours &amp; Caviar Production</text>

  <!-- Brand name with letter spacing -->
  <text x="280" y="300" font-family="Georgia, serif" font-size="32" font-weight="bold"
        fill="#CFAE58" letter-spacing="4" filter="url(#glow)">ROYAL KETA</text>

  <!-- Russian tagline -->
  <text x="280" y="340" font-family="Arial, sans-serif" font-size="22" font-style="italic"
        fill="#8B95A1" opacity="0.8">От икринки к королевской</text>

  <!-- Location -->
  <text x="280" y="380" font-family="Arial, sans-serif" font-size="20"
        fill="#8B95A1" opacity="0.7">Невельский район, Сахалин</text>

  <!-- Website with glow -->
  <text x="100" y="570" font-family="Arial, sans-serif" font-size="30" font-weight="bold"
        fill="#4FD1C5" filter="url(#glow)">royalketa.com</text>

  <!-- Enhanced decorative salmon silhouette -->
  <g transform="translate(950, 480)" opacity="0.2" filter="url(#softGlow)">
    <ellipse cx="0" cy="0" rx="90" ry="35" fill="#CFAE58"/>
    <path d="M 90 0 L 120 -18 L 130 0 L 120 18 Z" fill="#CFAE58"/>
    <path d="M -25 -35 L 0 -45 L 25 -35 Z" fill="#CFAE58"/>
    <ellipse cx="-50" cy="0" rx="15" ry="12" fill="#0B0F14"/>
  </g>

  <!-- Additional decorative caviar clusters -->
  <g opacity="0.2">
    <circle cx="1050" cy="120" r="6" fill="#CFAE58"/>
    <circle cx="1065" cy="115" r="5" fill="#CFAE58"/>
    <circle cx="1058" cy="130" r="4" fill="#CFAE58"/>
    <circle cx="150" cy="500" r="5" fill="#4FD1C5"/>
    <circle cx="165" cy="508" r="4" fill="#4FD1C5"/>
    <circle cx="140" cy="512" r="5" fill="#4FD1C5"/>
  </g>
</svg>