<svg width="1200" height="630" xmlns="http://www.w3.org/2000/svg">
  <defs>
    <linearGradient id="bgGradient" x1="0%" y1="0%" x2="100%" y2="100%">
      <stop offset="0%" style="stop-color:#0B0F14;stop-opacity:1" />
      <stop offset="50%" style="stop-color:#0F1619;stop-opacity:1" />
      <stop offset="100%" style="stop-color:#0F1922;stop-opacity:1" />
    </linearGradient>
    <linearGradient id="goldGradient" x1="0%" y1="0%" x2="100%" y2="0%">
      <stop offset="0%" style="stop-color:#E5D596;stop-opacity:1" />
      <stop offset="50%" style="stop-color:#CFAE58;stop-opacity:1" />
      <stop offset="100%" style="stop-color:#B89842;stop-opacity:1" />
    </linearGradient>
    <radialGradient id="oceanGradient" cx="50%" cy="50%" r="50%">
      <stop offset="0%" style="stop-color:#4FD1C5;stop-opacity:0.3" />
      <stop offset="100%" style="stop-color:#1E90A0;stop-opacity:0.05" />
    </radialGradient>
    <filter id="glow">
      <feGaussianBlur stdDeviation="5" result="coloredBlur"/>
      <feMerge>
        <feMergeNode in="coloredBlur"/>
        <feMergeNode in="SourceGraphic"/>
      </feMerge>
    </filter>
    <filter id="softGlow">
      <feGaussianBlur stdDeviation="8" result="coloredBlur"/>
      <feMerge>
        <feMergeNode in="coloredBlur"/>
        <feMergeNode in="SourceGraphic"/>
      </feMerge>
    </filter>
    <filter id="shadow">
      <feDropShadow dx="0" dy="4" stdDeviation="8" flood-color="#000000" flood-opacity="0.5"/>
    </filter>
  </defs>

  <!-- Background -->
  <rect width="1200" height="630" fill="url(#bgGradient)"/>

  <!-- Decorative ocean gradients -->
  <ellipse cx="1000" cy="150" rx="300" ry="200" fill="url(#oceanGradient)" opacity="0.4"/>
  <ellipse cx="200" cy="530" rx="250" ry="180" fill="url(#oceanGradient)" opacity="0.3"/>

  <!-- Wave patterns -->
  <path d="M 0 400 Q 300 350 600 400 T 1200 400 L 1200 630 L 0 630 Z" fill="#1E90A0" opacity="0.08"/>
  <path d="M 0 450 Q 250 420 500 450 T 1000 450 T 1200 450 L 1200 630 L 0 630 Z" fill="#4FD1C5" opacity="0.05"/>

  <!-- Caviar roe particles -->
  <circle cx="409.0778434775335" cy="313.0724560417353" r="4.317358844432678" fill="#CFAE58" opacity="0.18624797707600743"/>
  <circle cx="722.0292971243438" cy="330.7971909877258" r="5.448355557069354" fill="#CFAE58" opacity="0.13975436266108682"/>
  <circle cx="499.1273342102201" cy="517.6902854617798" r="4.0657230542527785" fill="#CFAE58" opacity="0.24388486100150555"/>
  <circle cx="446.8640589738317" cy="322.2832392345664" r="4.243864689444659" fill="#CFAE58" opacity="0.20780319682668463"/>
  <circle cx="93.4247260303004" cy="122.48988851468212" r="4.868088047303083" fill="#CFAE58" opacity="0.1924144227947997"/>
  <circle cx="840.133466413298" cy="532.6572570485665" r="2.4838344859639854" fill="#CFAE58" opacity="0.24428809625863734"/>
  <circle cx="177.97491098961675" cy="331.03704925478434" r="2.786332877590028" fill="#CFAE58" opacity="0.15057456883560238"/>
  <circle cx="564.2947355543764" cy="153.77607943208923" r="2.7989847459551225" fill="#CFAE58" opacity="0.1785258628907586"/>
  <circle cx="35.05034876692568" cy="396.9012080794779" r="3.2787217943348983" fill="#CFAE58" opacity="0.23536803291083555"/>
  <circle cx="1147.8531730519653" cy="358.3384634384987" r="3.419550537404671" fill="#CFAE58" opacity="0.16815742992976407"/>
  <circle cx="790.6659399089219" cy="104.7140594109331" r="5.172490733052524" fill="#CFAE58" opacity="0.24558596196201532"/>
  <circle cx="340.4296136749606" cy="291.0920594698586" r="4.738245758988261" fill="#CFAE58" opacity="0.1942020858892073"/>
  <circle cx="62.650682025127935" cy="620.9320010265802" r="3.8354499423101363" fill="#CFAE58" opacity="0.1971588046971094"/>
  <circle cx="802.0276283969381" cy="493.24108706215026" r="2.3006870454026416" fill="#CFAE58" opacity="0.22241380296570498"/>
  <circle cx="228.50140374672475" cy="385.1242414883966" r="5.4476759143245825" fill="#CFAE58" opacity="0.22820171597959862"/>
  <circle cx="596.2329588906424" cy="455.9888661670437" r="3.0264866497145366" fill="#CFAE58" opacity="0.1829803131564216"/>
  <circle cx="961.2287527667645" cy="531.23720316454" r="4.969577619545908" fill="#CFAE58" opacity="0.1953311406574441"/>
  <circle cx="863.6103118855591" cy="160.85888218569772" r="3.6366980408647143" fill="#CFAE58" opacity="0.14804495219959526"/>
  <circle cx="47.85020842799952" cy="427.76880808198365" r="2.3717821541688178" fill="#CFAE58" opacity="0.16967523933426787"/>
  <circle cx="428.8390485774016" cy="515.6553257029511" r="2.9719027071735598" fill="#CFAE58" opacity="0.2313293587133366"/>
  <circle cx="636.3952661809344" cy="61.86781668087807" r="4.399088396535182" fill="#CFAE58" opacity="0.10834724110968025"/>
  <circle cx="719.6348269624549" cy="380.50496606231695" r="4.106166135177165" fill="#CFAE58" opacity="0.13599615925224456"/>
  <circle cx="1084.2256111520285" cy="135.83431165342532" r="2.6246213755128087" fill="#CFAE58" opacity="0.2478946076221769"/>
  <circle cx="806.1331900246425" cy="591.935951855714" r="4.595001215854262" fill="#CFAE58" opacity="0.1077320103310186"/>
  <circle cx="673.2834066357148" cy="3.969246447783763" r="5.3308650759428495" fill="#CFAE58" opacity="0.23356351642359352"/>
  <circle cx="100.78413078615922" cy="176.43916218743226" r="3.3363976622180225" fill="#CFAE58" opacity="0.21414708762737975"/>
  <circle cx="900.8506309608483" cy="147.7754551007365" r="2.160260659437686" fill="#CFAE58" opacity="0.11339021552764053"/>
  <circle cx="996.4207336528128" cy="254.5087357006604" r="5.9226371216837395" fill="#CFAE58" opacity="0.1700134322351602"/>
  <circle cx="1057.0453304484633" cy="180.7925295977408" r="4.491043671229402" fill="#CFAE58" opacity="0.1910164767860675"/>
  <circle cx="354.83083401313405" cy="328.66375567984386" r="3.7156599237507146" fill="#CFAE58" opacity="0.1718865020389731"/>

  <!-- Border with glow -->
  <rect x="40" y="40" width="1120" height="550" fill="none" stroke="url(#goldGradient)" stroke-width="3" rx="12" filter="url(#softGlow)"/>

  <!-- Icon circle with premium background -->
  <circle cx="150" cy="200" r="75" fill="#CFAE58" opacity="0.15" filter="url(#softGlow)"/>
  <circle cx="150" cy="200" r="70" fill="#CFAE58" opacity="0.25"/>
  <text x="150" y="235" font-size="90" text-anchor="middle" fill="#CFAE58" filter="url(#glow)">📸</text>

  <!-- Premium logo (crown) with enhanced styling -->
  <g transform="translate(100, 70)">
    <path d="M 30 20 L 40 35 L 35 35 Z M 50 15 L 60 35 L 45 35 Z M 65 20 L 75 35 L 70 35 Z M 30 35 L 75 35 L 73 45 L 32 45 Z"
          fill="url(#goldGradient)" filter="url(#glow)" stroke="#B89842" stroke-width="0.5"/>
    <circle cx="40" cy="25" r="3" fill="#4FD1C5" filter="url(#glow)"/>
    <circle cx="52" cy="20" r="4" fill="#4FD1C5" filter="url(#glow)"/>
    <circle cx="65" cy="25" r="3" fill="#4FD1C5" filter="url(#glow)"/>
  </g>

  <!-- Title with shadow -->
  <text x="280" y="180" font-family="Georgia, serif" font-size="72" font-weight="bold"
        fill="url(#goldGradient)" filter="url(#shadow)">Photo Gallery</text>

  <!-- Subtitle with subtle glow -->
  <text x="280" y="230" font-family="Arial, sans-serif" font-size="36"
        fill="#D6DEE6" opacity="0.95" filter="url(#softGlow)">Science, Family Tours &amp; Caviar Production</text>

  <!-- Brand name with letter spacing -->
  <text x="280" y="300" font-family="Georgia, serif" font-size="32" font-weight="bold"
        fill="#CFAE58" letter-spacing="4" filter="url(#glow)">ROYAL KETA</text>

  <!-- Russian tagline -->
  <text x="280" y="340" font-family="Arial, sans-serif" font-size="22" font-style="italic"
        fill="#8B95A1" opacity="0.8">От икринки к королевской</text>

  <!-- Location -->
  <text x="280" y="380" font-family="Arial, sans-serif" font-size="20"
        fill="#8B95A1" opacity="0.7">Невельский район, Сахалин</text>

  <!-- Website with glow -->
  <text x="100" y="570" font-family="Arial, sans-serif" font-size="30" font-weight="bold"
        fill="#4FD1C5" filter="url(#glow)">royalketa.com</text>

  <!-- Enhanced decorative salmon silhouette -->
  <g transform="translate(950, 480)" opacity="0.2" filter="url(#softGlow)">
    <ellipse cx="0" cy="0" rx="90" ry="35" fill="#CFAE58"/>
    <path d="M 90 0 L 120 -18 L 130 0 L 120 18 Z" fill="#CFAE58"/>
    <path d="M -25 -35 L 0 -45 L 25 -35 Z" fill="#CFAE58"/>
    <ellipse cx="-50" cy="0" rx="15" ry="12" fill="#0B0F14"/>
  </g>

  <!-- Additional decorative caviar clusters -->
  <g opacity="0.2">
    <circle cx="1050" cy="120" r="6" fill="#CFAE58"/>
    <circle cx="1065" cy="115" r="5" fill="#CFAE58"/>
    <circle cx="1058" cy="130" r="4" fill="#CFAE58"/>
    <circle cx="150" cy="500" r="5" fill="#4FD1C5"/>
    <circle cx="165" cy="508" r="4" fill="#4FD1C5"/>
    <circle cx="140" cy="512" r="5" fill="#4FD1C5"/>
  </g>
</svg>