<svg width="1200" height="630" xmlns="http://www.w3.org/2000/svg">
  <defs>
    <linearGradient id="bgGradient" x1="0%" y1="0%" x2="100%" y2="100%">
      <stop offset="0%" style="stop-color:#0B0F14;stop-opacity:1" />
      <stop offset="50%" style="stop-color:#0F1619;stop-opacity:1" />
      <stop offset="100%" style="stop-color:#0F1922;stop-opacity:1" />
    </linearGradient>
    <linearGradient id="goldGradient" x1="0%" y1="0%" x2="100%" y2="0%">
      <stop offset="0%" style="stop-color:#E5D596;stop-opacity:1" />
      <stop offset="50%" style="stop-color:#CFAE58;stop-opacity:1" />
      <stop offset="100%" style="stop-color:#B89842;stop-opacity:1" />
    </linearGradient>
    <radialGradient id="oceanGradient" cx="50%" cy="50%" r="50%">
      <stop offset="0%" style="stop-color:#4FD1C5;stop-opacity:0.3" />
      <stop offset="100%" style="stop-color:#1E90A0;stop-opacity:0.05" />
    </radialGradient>
    <filter id="glow">
      <feGaussianBlur stdDeviation="5" result="coloredBlur"/>
      <feMerge>
        <feMergeNode in="coloredBlur"/>
        <feMergeNode in="SourceGraphic"/>
      </feMerge>
    </filter>
    <filter id="softGlow">
      <feGaussianBlur stdDeviation="8" result="coloredBlur"/>
      <feMerge>
        <feMergeNode in="coloredBlur"/>
        <feMergeNode in="SourceGraphic"/>
      </feMerge>
    </filter>
    <filter id="shadow">
      <feDropShadow dx="0" dy="4" stdDeviation="8" flood-color="#000000" flood-opacity="0.5"/>
    </filter>
  </defs>

  <!-- Background -->
  <rect width="1200" height="630" fill="url(#bgGradient)"/>

  <!-- Decorative ocean gradients -->
  <ellipse cx="1000" cy="150" rx="300" ry="200" fill="url(#oceanGradient)" opacity="0.4"/>
  <ellipse cx="200" cy="530" rx="250" ry="180" fill="url(#oceanGradient)" opacity="0.3"/>

  <!-- Wave patterns -->
  <path d="M 0 400 Q 300 350 600 400 T 1200 400 L 1200 630 L 0 630 Z" fill="#1E90A0" opacity="0.08"/>
  <path d="M 0 450 Q 250 420 500 450 T 1000 450 T 1200 450 L 1200 630 L 0 630 Z" fill="#4FD1C5" opacity="0.05"/>

  <!-- Caviar roe particles -->
  <circle cx="895.085081647992" cy="574.0045448505904" r="2.882508009146065" fill="#CFAE58" opacity="0.16368518606435384"/>
  <circle cx="528.690024471509" cy="394.6638194359569" r="2.3723749057543513" fill="#CFAE58" opacity="0.1670786459422829"/>
  <circle cx="339.69114004392986" cy="262.5189993874312" r="3.7007366679881972" fill="#CFAE58" opacity="0.14831048837131713"/>
  <circle cx="826.0529361136071" cy="499.47637203376553" r="4.836001782318235" fill="#CFAE58" opacity="0.1183439023949915"/>
  <circle cx="964.7648910732835" cy="264.2416414166353" r="5.439126719867206" fill="#CFAE58" opacity="0.21066540560733316"/>
  <circle cx="701.2846410499087" cy="408.73841913987974" r="4.131425253850819" fill="#CFAE58" opacity="0.14573909121876236"/>
  <circle cx="1132.910616605491" cy="167.3354876970256" r="5.849222786890725" fill="#CFAE58" opacity="0.15066038173327778"/>
  <circle cx="10.58973805875807" cy="166.93955883708165" r="4.022687317601315" fill="#CFAE58" opacity="0.11823563932377401"/>
  <circle cx="674.9912837008523" cy="191.73284101005248" r="3.2984063943142026" fill="#CFAE58" opacity="0.23495997735141572"/>
  <circle cx="436.6043912693805" cy="536.6512047825345" r="5.404463944664201" fill="#CFAE58" opacity="0.20039693699253103"/>
  <circle cx="411.98332012577464" cy="434.0973662341169" r="2.3582868304271996" fill="#CFAE58" opacity="0.23152498502408322"/>
  <circle cx="29.182139422800635" cy="244.80549190564935" r="4.87507670606436" fill="#CFAE58" opacity="0.15020942493211345"/>
  <circle cx="243.21125056182336" cy="605.1065580189176" r="3.033436544496472" fill="#CFAE58" opacity="0.177372077745606"/>
  <circle cx="305.3009787886934" cy="444.14405213946344" r="5.221495262283585" fill="#CFAE58" opacity="0.17616440027475"/>
  <circle cx="673.4568395253178" cy="216.07907431535773" r="4.802733621047987" fill="#CFAE58" opacity="0.2037447571949978"/>
  <circle cx="95.69751074465654" cy="511.67638686180175" r="4.745298125225016" fill="#CFAE58" opacity="0.2288028192388189"/>
  <circle cx="191.19320325340647" cy="600.5509886043551" r="4.518189187942427" fill="#CFAE58" opacity="0.23741192368212138"/>
  <circle cx="291.83914098308463" cy="75.71662034191161" r="4.444645756762789" fill="#CFAE58" opacity="0.12267790986361524"/>
  <circle cx="377.8887627806557" cy="82.05368105377323" r="2.6376873720841765" fill="#CFAE58" opacity="0.22865277803753814"/>
  <circle cx="538.9768848087459" cy="156.75420775636857" r="3.400126019163186" fill="#CFAE58" opacity="0.2224818178775224"/>
  <circle cx="425.088904559646" cy="203.67824017982025" r="5.435306943372028" fill="#CFAE58" opacity="0.21697012140036326"/>
  <circle cx="681.6048933666323" cy="442.8265743374336" r="2.9147243948194586" fill="#CFAE58" opacity="0.219637720659333"/>
  <circle cx="3.3262197310266473" cy="465.2790653023361" r="4.1529451393068255" fill="#CFAE58" opacity="0.17449583941925262"/>
  <circle cx="957.0751518630562" cy="17.73017329355737" r="3.209084761275892" fill="#CFAE58" opacity="0.21287625210429753"/>
  <circle cx="357.4960836243231" cy="45.734971756878636" r="2.346832411154402" fill="#CFAE58" opacity="0.22189387972588753"/>
  <circle cx="612.8952411817119" cy="343.2719309044076" r="3.8437273432726675" fill="#CFAE58" opacity="0.16473496376784508"/>
  <circle cx="262.6363475894003" cy="139.39860853964302" r="3.0396028797501415" fill="#CFAE58" opacity="0.24168879175473237"/>
  <circle cx="863.0965296953497" cy="104.944278531868" r="2.732087963017104" fill="#CFAE58" opacity="0.11858982041713914"/>
  <circle cx="235.2446097761967" cy="282.28220631063164" r="4.367690486978269" fill="#CFAE58" opacity="0.11010436331918312"/>
  <circle cx="255.44596060081918" cy="138.15249529387307" r="4.267249880875376" fill="#CFAE58" opacity="0.2053280789624632"/>

  <!-- Border with glow -->
  <rect x="40" y="40" width="1120" height="550" fill="none" stroke="url(#goldGradient)" stroke-width="3" rx="12" filter="url(#softGlow)"/>

  <!-- Icon circle with premium background -->
  <circle cx="150" cy="200" r="75" fill="#CFAE58" opacity="0.15" filter="url(#softGlow)"/>
  <circle cx="150" cy="200" r="70" fill="#CFAE58" opacity="0.25"/>
  <text x="150" y="235" font-size="90" text-anchor="middle" fill="#CFAE58" filter="url(#glow)">📸</text>

  <!-- Premium logo (crown) with enhanced styling -->
  <g transform="translate(100, 70)">
    <path d="M 30 20 L 40 35 L 35 35 Z M 50 15 L 60 35 L 45 35 Z M 65 20 L 75 35 L 70 35 Z M 30 35 L 75 35 L 73 45 L 32 45 Z"
          fill="url(#goldGradient)" filter="url(#glow)" stroke="#B89842" stroke-width="0.5"/>
    <circle cx="40" cy="25" r="3" fill="#4FD1C5" filter="url(#glow)"/>
    <circle cx="52" cy="20" r="4" fill="#4FD1C5" filter="url(#glow)"/>
    <circle cx="65" cy="25" r="3" fill="#4FD1C5" filter="url(#glow)"/>
  </g>

  <!-- Title with shadow -->
  <text x="280" y="180" font-family="Georgia, serif" font-size="72" font-weight="bold"
        fill="url(#goldGradient)" filter="url(#shadow)">Photo Gallery</text>

  <!-- Subtitle with subtle glow -->
  <text x="280" y="230" font-family="Arial, sans-serif" font-size="36"
        fill="#D6DEE6" opacity="0.95" filter="url(#softGlow)">Science, Family Tours & Caviar Production</text>

  <!-- Brand name with letter spacing -->
  <text x="280" y="300" font-family="Georgia, serif" font-size="32" font-weight="bold"
        fill="#CFAE58" letter-spacing="4" filter="url(#glow)">ROYAL KETA</text>

  <!-- Russian tagline -->
  <text x="280" y="340" font-family="Arial, sans-serif" font-size="22" font-style="italic"
        fill="#8B95A1" opacity="0.8">От икринки к королевской</text>

  <!-- Location -->
  <text x="280" y="380" font-family="Arial, sans-serif" font-size="20"
        fill="#8B95A1" opacity="0.7">Невельский район, Сахалин</text>

  <!-- Website with glow -->
  <text x="100" y="570" font-family="Arial, sans-serif" font-size="30" font-weight="bold"
        fill="#4FD1C5" filter="url(#glow)">royalketa.com</text>

  <!-- Enhanced decorative salmon silhouette -->
  <g transform="translate(950, 480)" opacity="0.2" filter="url(#softGlow)">
    <ellipse cx="0" cy="0" rx="90" ry="35" fill="#CFAE58"/>
    <path d="M 90 0 L 120 -18 L 130 0 L 120 18 Z" fill="#CFAE58"/>
    <path d="M -25 -35 L 0 -45 L 25 -35 Z" fill="#CFAE58"/>
    <ellipse cx="-50" cy="0" rx="15" ry="12" fill="#0B0F14"/>
  </g>

  <!-- Additional decorative caviar clusters -->
  <g opacity="0.2">
    <circle cx="1050" cy="120" r="6" fill="#CFAE58"/>
    <circle cx="1065" cy="115" r="5" fill="#CFAE58"/>
    <circle cx="1058" cy="130" r="4" fill="#CFAE58"/>
    <circle cx="150" cy="500" r="5" fill="#4FD1C5"/>
    <circle cx="165" cy="508" r="4" fill="#4FD1C5"/>
    <circle cx="140" cy="512" r="5" fill="#4FD1C5"/>
  </g>
</svg>