<svg width="1200" height="630" xmlns="http://www.w3.org/2000/svg">
  <defs>
    <linearGradient id="bgGradient" x1="0%" y1="0%" x2="100%" y2="100%">
      <stop offset="0%" style="stop-color:#0B0F14;stop-opacity:1" />
      <stop offset="50%" style="stop-color:#0F1619;stop-opacity:1" />
      <stop offset="100%" style="stop-color:#0F1922;stop-opacity:1" />
    </linearGradient>
    <linearGradient id="goldGradient" x1="0%" y1="0%" x2="100%" y2="0%">
      <stop offset="0%" style="stop-color:#E5D596;stop-opacity:1" />
      <stop offset="50%" style="stop-color:#CFAE58;stop-opacity:1" />
      <stop offset="100%" style="stop-color:#B89842;stop-opacity:1" />
    </linearGradient>
    <radialGradient id="oceanGradient" cx="50%" cy="50%" r="50%">
      <stop offset="0%" style="stop-color:#4FD1C5;stop-opacity:0.3" />
      <stop offset="100%" style="stop-color:#1E90A0;stop-opacity:0.05" />
    </radialGradient>
    <filter id="glow">
      <feGaussianBlur stdDeviation="5" result="coloredBlur"/>
      <feMerge>
        <feMergeNode in="coloredBlur"/>
        <feMergeNode in="SourceGraphic"/>
      </feMerge>
    </filter>
    <filter id="softGlow">
      <feGaussianBlur stdDeviation="8" result="coloredBlur"/>
      <feMerge>
        <feMergeNode in="coloredBlur"/>
        <feMergeNode in="SourceGraphic"/>
      </feMerge>
    </filter>
    <filter id="shadow">
      <feDropShadow dx="0" dy="4" stdDeviation="8" flood-color="#000000" flood-opacity="0.5"/>
    </filter>
  </defs>

  <!-- Background -->
  <rect width="1200" height="630" fill="url(#bgGradient)"/>

  <!-- Decorative ocean gradients -->
  <ellipse cx="1000" cy="150" rx="300" ry="200" fill="url(#oceanGradient)" opacity="0.4"/>
  <ellipse cx="200" cy="530" rx="250" ry="180" fill="url(#oceanGradient)" opacity="0.3"/>

  <!-- Wave patterns -->
  <path d="M 0 400 Q 300 350 600 400 T 1200 400 L 1200 630 L 0 630 Z" fill="#1E90A0" opacity="0.08"/>
  <path d="M 0 450 Q 250 420 500 450 T 1000 450 T 1200 450 L 1200 630 L 0 630 Z" fill="#4FD1C5" opacity="0.05"/>

  <!-- Caviar roe particles -->
  <circle cx="360.2841944450922" cy="428.65837481971437" r="2.3573798913000448" fill="#CFAE58" opacity="0.105510396249104"/>
  <circle cx="435.7379812584254" cy="185.01041837560948" r="5.81651777699183" fill="#CFAE58" opacity="0.15045149168913485"/>
  <circle cx="464.60877728259794" cy="589.8008213220194" r="4.221608643602119" fill="#CFAE58" opacity="0.10553199189862231"/>
  <circle cx="642.8001961650812" cy="17.527910826462985" r="5.448458825339135" fill="#CFAE58" opacity="0.22778449666621825"/>
  <circle cx="658.1427872673103" cy="301.6722131373732" r="5.772382750380022" fill="#CFAE58" opacity="0.1159503739861258"/>
  <circle cx="1196.209013500426" cy="169.23576303912495" r="5.134242749562542" fill="#CFAE58" opacity="0.1231031299039567"/>
  <circle cx="738.4615583996318" cy="382.6862302048754" r="2.871634576004507" fill="#CFAE58" opacity="0.21338161400873062"/>
  <circle cx="906.8827937788491" cy="264.0493577883522" r="3.264771451812643" fill="#CFAE58" opacity="0.10400438141703308"/>
  <circle cx="559.4388672138466" cy="264.8073368326803" r="4.9593260915132" fill="#CFAE58" opacity="0.16478412247521346"/>
  <circle cx="831.7085817115391" cy="78.21247732927881" r="4.780192910290117" fill="#CFAE58" opacity="0.22646882789758654"/>
  <circle cx="138.86997453881574" cy="343.8756301317119" r="5.329329138680688" fill="#CFAE58" opacity="0.2380373604529695"/>
  <circle cx="262.2513823896314" cy="79.15855299197817" r="2.960289080958101" fill="#CFAE58" opacity="0.14604940403597302"/>
  <circle cx="776.9323593168684" cy="136.3922383875456" r="5.875254830047016" fill="#CFAE58" opacity="0.21276360855712997"/>
  <circle cx="256.3355051976958" cy="120.44052334987754" r="5.960703363901395" fill="#CFAE58" opacity="0.19743850983989297"/>
  <circle cx="512.6117742638875" cy="446.28756678860276" r="3.040406515037058" fill="#CFAE58" opacity="0.23035110526617114"/>
  <circle cx="767.2540064768614" cy="617.2219100543226" r="2.5132567765654996" fill="#CFAE58" opacity="0.12550061840383625"/>
  <circle cx="1147.480487596334" cy="169.70807710236664" r="5.260113896071857" fill="#CFAE58" opacity="0.13491851127114604"/>
  <circle cx="557.4679779721396" cy="307.4116482879243" r="4.17755484833274" fill="#CFAE58" opacity="0.20180521640228283"/>
  <circle cx="526.6315468020899" cy="605.2094159776145" r="5.418794809796697" fill="#CFAE58" opacity="0.10050838924907639"/>
  <circle cx="49.297973844638946" cy="543.878966567589" r="3.5063327399748396" fill="#CFAE58" opacity="0.12610273188333632"/>
  <circle cx="857.0757833694793" cy="605.3373354336181" r="2.878961316174822" fill="#CFAE58" opacity="0.13669585495509556"/>
  <circle cx="1155.215826950128" cy="102.7855126773139" r="4.9169742560023115" fill="#CFAE58" opacity="0.20254296486364706"/>
  <circle cx="415.101428213741" cy="126.2582128294681" r="2.922568471719966" fill="#CFAE58" opacity="0.21119332985262151"/>
  <circle cx="250.00300907009793" cy="436.6617885508961" r="5.522907922608452" fill="#CFAE58" opacity="0.17433930366162986"/>
  <circle cx="427.1888877494248" cy="307.0356249366422" r="3.9113723592766525" fill="#CFAE58" opacity="0.15918711523354034"/>
  <circle cx="317.2498745817801" cy="596.8487527520177" r="3.846891774056479" fill="#CFAE58" opacity="0.1421146648467995"/>
  <circle cx="459.3670339371469" cy="483.5258444721901" r="2.5338008546750244" fill="#CFAE58" opacity="0.13914433079402708"/>
  <circle cx="562.9862448137665" cy="47.98168451173173" r="2.7733465919402924" fill="#CFAE58" opacity="0.11463392192756702"/>
  <circle cx="446.6543861514899" cy="85.10312067294346" r="4.951915623981996" fill="#CFAE58" opacity="0.14626112844870176"/>
  <circle cx="504.8510456487183" cy="180.78235701293175" r="2.3472643885754945" fill="#CFAE58" opacity="0.22584128148391686"/>

  <!-- Border with glow -->
  <rect x="40" y="40" width="1120" height="550" fill="none" stroke="url(#goldGradient)" stroke-width="3" rx="12" filter="url(#softGlow)"/>

  <!-- Icon circle with premium background -->
  <circle cx="150" cy="200" r="75" fill="#CFAE58" opacity="0.15" filter="url(#softGlow)"/>
  <circle cx="150" cy="200" r="70" fill="#CFAE58" opacity="0.25"/>
  <text x="150" y="235" font-size="90" text-anchor="middle" fill="#CFAE58" filter="url(#glow)">📸</text>

  <!-- Premium logo (crown) with enhanced styling -->
  <g transform="translate(100, 70)">
    <path d="M 30 20 L 40 35 L 35 35 Z M 50 15 L 60 35 L 45 35 Z M 65 20 L 75 35 L 70 35 Z M 30 35 L 75 35 L 73 45 L 32 45 Z"
          fill="url(#goldGradient)" filter="url(#glow)" stroke="#B89842" stroke-width="0.5"/>
    <circle cx="40" cy="25" r="3" fill="#4FD1C5" filter="url(#glow)"/>
    <circle cx="52" cy="20" r="4" fill="#4FD1C5" filter="url(#glow)"/>
    <circle cx="65" cy="25" r="3" fill="#4FD1C5" filter="url(#glow)"/>
  </g>

  <!-- Title with shadow -->
  <text x="280" y="180" font-family="Georgia, serif" font-size="72" font-weight="bold"
        fill="url(#goldGradient)" filter="url(#shadow)">Photo Gallery</text>

  <!-- Subtitle with subtle glow -->
  <text x="280" y="230" font-family="Arial, sans-serif" font-size="36"
        fill="#D6DEE6" opacity="0.95" filter="url(#softGlow)">Science, Family Tours &amp; Caviar Production</text>

  <!-- Brand name with letter spacing -->
  <text x="280" y="300" font-family="Georgia, serif" font-size="32" font-weight="bold"
        fill="#CFAE58" letter-spacing="4" filter="url(#glow)">ROYAL KETA</text>

  <!-- Russian tagline -->
  <text x="280" y="340" font-family="Arial, sans-serif" font-size="22" font-style="italic"
        fill="#8B95A1" opacity="0.8">От икринки к королевской</text>

  <!-- Location -->
  <text x="280" y="380" font-family="Arial, sans-serif" font-size="20"
        fill="#8B95A1" opacity="0.7">Невельский район, Сахалин</text>

  <!-- Website with glow -->
  <text x="100" y="570" font-family="Arial, sans-serif" font-size="30" font-weight="bold"
        fill="#4FD1C5" filter="url(#glow)">royalketa.com</text>

  <!-- Enhanced decorative salmon silhouette -->
  <g transform="translate(950, 480)" opacity="0.2" filter="url(#softGlow)">
    <ellipse cx="0" cy="0" rx="90" ry="35" fill="#CFAE58"/>
    <path d="M 90 0 L 120 -18 L 130 0 L 120 18 Z" fill="#CFAE58"/>
    <path d="M -25 -35 L 0 -45 L 25 -35 Z" fill="#CFAE58"/>
    <ellipse cx="-50" cy="0" rx="15" ry="12" fill="#0B0F14"/>
  </g>

  <!-- Additional decorative caviar clusters -->
  <g opacity="0.2">
    <circle cx="1050" cy="120" r="6" fill="#CFAE58"/>
    <circle cx="1065" cy="115" r="5" fill="#CFAE58"/>
    <circle cx="1058" cy="130" r="4" fill="#CFAE58"/>
    <circle cx="150" cy="500" r="5" fill="#4FD1C5"/>
    <circle cx="165" cy="508" r="4" fill="#4FD1C5"/>
    <circle cx="140" cy="512" r="5" fill="#4FD1C5"/>
  </g>
</svg>