<svg width="1200" height="630" xmlns="http://www.w3.org/2000/svg">
  <defs>
    <linearGradient id="bgGradient" x1="0%" y1="0%" x2="100%" y2="100%">
      <stop offset="0%" style="stop-color:#0B0F14;stop-opacity:1" />
      <stop offset="50%" style="stop-color:#0F1619;stop-opacity:1" />
      <stop offset="100%" style="stop-color:#0F1922;stop-opacity:1" />
    </linearGradient>
    <linearGradient id="goldGradient" x1="0%" y1="0%" x2="100%" y2="0%">
      <stop offset="0%" style="stop-color:#E5D596;stop-opacity:1" />
      <stop offset="50%" style="stop-color:#CFAE58;stop-opacity:1" />
      <stop offset="100%" style="stop-color:#B89842;stop-opacity:1" />
    </linearGradient>
    <radialGradient id="oceanGradient" cx="50%" cy="50%" r="50%">
      <stop offset="0%" style="stop-color:#4FD1C5;stop-opacity:0.3" />
      <stop offset="100%" style="stop-color:#1E90A0;stop-opacity:0.05" />
    </radialGradient>
    <filter id="glow">
      <feGaussianBlur stdDeviation="5" result="coloredBlur"/>
      <feMerge>
        <feMergeNode in="coloredBlur"/>
        <feMergeNode in="SourceGraphic"/>
      </feMerge>
    </filter>
    <filter id="softGlow">
      <feGaussianBlur stdDeviation="8" result="coloredBlur"/>
      <feMerge>
        <feMergeNode in="coloredBlur"/>
        <feMergeNode in="SourceGraphic"/>
      </feMerge>
    </filter>
    <filter id="shadow">
      <feDropShadow dx="0" dy="4" stdDeviation="8" flood-color="#000000" flood-opacity="0.5"/>
    </filter>
  </defs>

  <!-- Background -->
  <rect width="1200" height="630" fill="url(#bgGradient)"/>

  <!-- Decorative ocean gradients -->
  <ellipse cx="1000" cy="150" rx="300" ry="200" fill="url(#oceanGradient)" opacity="0.4"/>
  <ellipse cx="200" cy="530" rx="250" ry="180" fill="url(#oceanGradient)" opacity="0.3"/>

  <!-- Wave patterns -->
  <path d="M 0 400 Q 300 350 600 400 T 1200 400 L 1200 630 L 0 630 Z" fill="#1E90A0" opacity="0.08"/>
  <path d="M 0 450 Q 250 420 500 450 T 1000 450 T 1200 450 L 1200 630 L 0 630 Z" fill="#4FD1C5" opacity="0.05"/>

  <!-- Caviar roe particles -->
  <circle cx="436.90734685050046" cy="264.30865470284425" r="2.8632397678260957" fill="#CFAE58" opacity="0.2057627900166679"/>
  <circle cx="37.661868921059096" cy="624.6231771480994" r="5.274254866565714" fill="#CFAE58" opacity="0.18693834636420054"/>
  <circle cx="467.4360966772757" cy="335.14535837917646" r="5.351430054595742" fill="#CFAE58" opacity="0.14673920992690026"/>
  <circle cx="821.6042825946116" cy="44.20584728826904" r="3.4889602101996804" fill="#CFAE58" opacity="0.16560692423526557"/>
  <circle cx="45.3552565263438" cy="417.2944165825085" r="4.284741494843381" fill="#CFAE58" opacity="0.1779479219592518"/>
  <circle cx="865.1851682030892" cy="385.44843873044096" r="4.769413748849076" fill="#CFAE58" opacity="0.17351942627481964"/>
  <circle cx="489.47963351518797" cy="129.99388136027284" r="4.040180143295142" fill="#CFAE58" opacity="0.132837704822598"/>
  <circle cx="833.4939543193168" cy="478.6033244609019" r="4.105517367759333" fill="#CFAE58" opacity="0.20763200430970083"/>
  <circle cx="364.82684424902664" cy="627.6880661643161" r="3.8825396497283635" fill="#CFAE58" opacity="0.188244767249578"/>
  <circle cx="414.89735304710007" cy="230.32480754112458" r="5.0238174285293375" fill="#CFAE58" opacity="0.1839254094635912"/>
  <circle cx="887.4980382112869" cy="126.21264372399915" r="5.030451446646295" fill="#CFAE58" opacity="0.24245668064855572"/>
  <circle cx="433.8145395945993" cy="262.28351418318954" r="4.000710826509623" fill="#CFAE58" opacity="0.18504459530108067"/>
  <circle cx="535.9650690908204" cy="349.1729524250582" r="4.5454766105205335" fill="#CFAE58" opacity="0.24110479130311452"/>
  <circle cx="602.8012022151031" cy="590.7389671372812" r="5.729723748058516" fill="#CFAE58" opacity="0.1124715217348189"/>
  <circle cx="253.08851384275025" cy="590.0061306104304" r="5.786224916696983" fill="#CFAE58" opacity="0.15286992097967464"/>
  <circle cx="666.2827705695465" cy="119.13503672916887" r="4.396867348207845" fill="#CFAE58" opacity="0.14789761849873476"/>
  <circle cx="351.2361300442201" cy="389.9667832464904" r="2.522308330905035" fill="#CFAE58" opacity="0.1918604756610383"/>
  <circle cx="1017.6476087591275" cy="542.6375147629271" r="4.557503533019039" fill="#CFAE58" opacity="0.11424226886897812"/>
  <circle cx="94.95730677395349" cy="172.33661796883553" r="2.5262710822919447" fill="#CFAE58" opacity="0.11194951747109409"/>
  <circle cx="904.3466030556802" cy="294.485826668428" r="5.992180481966713" fill="#CFAE58" opacity="0.2275460717363186"/>
  <circle cx="984.716313753397" cy="454.6061349583925" r="5.308017121850256" fill="#CFAE58" opacity="0.11293371001638594"/>
  <circle cx="427.17599190160945" cy="269.4061254817257" r="4.795494803590749" fill="#CFAE58" opacity="0.13053873634595534"/>
  <circle cx="483.3467792252896" cy="219.91279667894236" r="5.165471056175336" fill="#CFAE58" opacity="0.2097579984414194"/>
  <circle cx="1110.0641174709008" cy="604.517763739825" r="4.667211867453592" fill="#CFAE58" opacity="0.16117360979160714"/>
  <circle cx="459.99621802454743" cy="83.97379628412472" r="2.6512672483293565" fill="#CFAE58" opacity="0.1814447314459965"/>
  <circle cx="932.6732249912416" cy="583.298335818263" r="5.83665173959224" fill="#CFAE58" opacity="0.14809265657815734"/>
  <circle cx="538.9870882354559" cy="402.9202751171047" r="5.500461193310635" fill="#CFAE58" opacity="0.18418783182725823"/>
  <circle cx="1120.103431509958" cy="434.2473083471628" r="4.209600366492464" fill="#CFAE58" opacity="0.21256737688195668"/>
  <circle cx="650.6799860229706" cy="533.9823996655066" r="3.5669647278080534" fill="#CFAE58" opacity="0.21130552300734604"/>
  <circle cx="231.9090713417037" cy="175.65315388096087" r="2.548476854362603" fill="#CFAE58" opacity="0.24120186412648734"/>

  <!-- Border with glow -->
  <rect x="40" y="40" width="1120" height="550" fill="none" stroke="url(#goldGradient)" stroke-width="3" rx="12" filter="url(#softGlow)"/>

  <!-- Icon circle with premium background -->
  <circle cx="150" cy="200" r="75" fill="#CFAE58" opacity="0.15" filter="url(#softGlow)"/>
  <circle cx="150" cy="200" r="70" fill="#CFAE58" opacity="0.25"/>
  <text x="150" y="235" font-size="90" text-anchor="middle" fill="#CFAE58" filter="url(#glow)">📸</text>

  <!-- Premium logo (crown) with enhanced styling -->
  <g transform="translate(100, 70)">
    <path d="M 30 20 L 40 35 L 35 35 Z M 50 15 L 60 35 L 45 35 Z M 65 20 L 75 35 L 70 35 Z M 30 35 L 75 35 L 73 45 L 32 45 Z"
          fill="url(#goldGradient)" filter="url(#glow)" stroke="#B89842" stroke-width="0.5"/>
    <circle cx="40" cy="25" r="3" fill="#4FD1C5" filter="url(#glow)"/>
    <circle cx="52" cy="20" r="4" fill="#4FD1C5" filter="url(#glow)"/>
    <circle cx="65" cy="25" r="3" fill="#4FD1C5" filter="url(#glow)"/>
  </g>

  <!-- Title with shadow -->
  <text x="280" y="180" font-family="Georgia, serif" font-size="72" font-weight="bold"
        fill="url(#goldGradient)" filter="url(#shadow)">Photo Gallery</text>

  <!-- Subtitle with subtle glow -->
  <text x="280" y="230" font-family="Arial, sans-serif" font-size="36"
        fill="#D6DEE6" opacity="0.95" filter="url(#softGlow)">Science, Family Tours &amp; Caviar Production</text>

  <!-- Brand name with letter spacing -->
  <text x="280" y="300" font-family="Georgia, serif" font-size="32" font-weight="bold"
        fill="#CFAE58" letter-spacing="4" filter="url(#glow)">ROYAL KETA</text>

  <!-- Russian tagline -->
  <text x="280" y="340" font-family="Arial, sans-serif" font-size="22" font-style="italic"
        fill="#8B95A1" opacity="0.8">От икринки к королевской</text>

  <!-- Location -->
  <text x="280" y="380" font-family="Arial, sans-serif" font-size="20"
        fill="#8B95A1" opacity="0.7">Невельский район, Сахалин</text>

  <!-- Website with glow -->
  <text x="100" y="570" font-family="Arial, sans-serif" font-size="30" font-weight="bold"
        fill="#4FD1C5" filter="url(#glow)">royalketa.com</text>

  <!-- Enhanced decorative salmon silhouette -->
  <g transform="translate(950, 480)" opacity="0.2" filter="url(#softGlow)">
    <ellipse cx="0" cy="0" rx="90" ry="35" fill="#CFAE58"/>
    <path d="M 90 0 L 120 -18 L 130 0 L 120 18 Z" fill="#CFAE58"/>
    <path d="M -25 -35 L 0 -45 L 25 -35 Z" fill="#CFAE58"/>
    <ellipse cx="-50" cy="0" rx="15" ry="12" fill="#0B0F14"/>
  </g>

  <!-- Additional decorative caviar clusters -->
  <g opacity="0.2">
    <circle cx="1050" cy="120" r="6" fill="#CFAE58"/>
    <circle cx="1065" cy="115" r="5" fill="#CFAE58"/>
    <circle cx="1058" cy="130" r="4" fill="#CFAE58"/>
    <circle cx="150" cy="500" r="5" fill="#4FD1C5"/>
    <circle cx="165" cy="508" r="4" fill="#4FD1C5"/>
    <circle cx="140" cy="512" r="5" fill="#4FD1C5"/>
  </g>
</svg>