<svg width="1200" height="630" xmlns="http://www.w3.org/2000/svg">
  <defs>
    <linearGradient id="bgGradient" x1="0%" y1="0%" x2="100%" y2="100%">
      <stop offset="0%" style="stop-color:#0B0F14;stop-opacity:1" />
      <stop offset="50%" style="stop-color:#0F1619;stop-opacity:1" />
      <stop offset="100%" style="stop-color:#0F1922;stop-opacity:1" />
    </linearGradient>
    <linearGradient id="goldGradient" x1="0%" y1="0%" x2="100%" y2="0%">
      <stop offset="0%" style="stop-color:#E5D596;stop-opacity:1" />
      <stop offset="50%" style="stop-color:#CFAE58;stop-opacity:1" />
      <stop offset="100%" style="stop-color:#B89842;stop-opacity:1" />
    </linearGradient>
    <radialGradient id="oceanGradient" cx="50%" cy="50%" r="50%">
      <stop offset="0%" style="stop-color:#4FD1C5;stop-opacity:0.3" />
      <stop offset="100%" style="stop-color:#1E90A0;stop-opacity:0.05" />
    </radialGradient>
    <filter id="glow">
      <feGaussianBlur stdDeviation="5" result="coloredBlur"/>
      <feMerge>
        <feMergeNode in="coloredBlur"/>
        <feMergeNode in="SourceGraphic"/>
      </feMerge>
    </filter>
    <filter id="softGlow">
      <feGaussianBlur stdDeviation="8" result="coloredBlur"/>
      <feMerge>
        <feMergeNode in="coloredBlur"/>
        <feMergeNode in="SourceGraphic"/>
      </feMerge>
    </filter>
    <filter id="shadow">
      <feDropShadow dx="0" dy="4" stdDeviation="8" flood-color="#000000" flood-opacity="0.5"/>
    </filter>
  </defs>

  <!-- Background -->
  <rect width="1200" height="630" fill="url(#bgGradient)"/>

  <!-- Decorative ocean gradients -->
  <ellipse cx="1000" cy="150" rx="300" ry="200" fill="url(#oceanGradient)" opacity="0.4"/>
  <ellipse cx="200" cy="530" rx="250" ry="180" fill="url(#oceanGradient)" opacity="0.3"/>

  <!-- Wave patterns -->
  <path d="M 0 400 Q 300 350 600 400 T 1200 400 L 1200 630 L 0 630 Z" fill="#1E90A0" opacity="0.08"/>
  <path d="M 0 450 Q 250 420 500 450 T 1000 450 T 1200 450 L 1200 630 L 0 630 Z" fill="#4FD1C5" opacity="0.05"/>

  <!-- Caviar roe particles -->
  <circle cx="444.82168143539764" cy="57.52921360075595" r="3.5663762944380033" fill="#CFAE58" opacity="0.11711772259398807"/>
  <circle cx="331.0003635919526" cy="528.519639730113" r="4.8602834480176735" fill="#CFAE58" opacity="0.21304646663867804"/>
  <circle cx="496.0054089444862" cy="26.10207232499066" r="5.276375150277707" fill="#CFAE58" opacity="0.2339220031845933"/>
  <circle cx="1090.1761816875537" cy="236.74885824084603" r="4.969461542861133" fill="#CFAE58" opacity="0.1748814755552524"/>
  <circle cx="952.8114854440823" cy="489.339971717079" r="4.883138993919641" fill="#CFAE58" opacity="0.21437816750719343"/>
  <circle cx="612.0260200256839" cy="465.6216456342887" r="3.2524678400718345" fill="#CFAE58" opacity="0.10684649767585602"/>
  <circle cx="600.4155432260636" cy="24.667917406941093" r="2.0014417358287533" fill="#CFAE58" opacity="0.18756419341396097"/>
  <circle cx="19.375357740303876" cy="626.0403625599886" r="5.844985031191725" fill="#CFAE58" opacity="0.18117808422406345"/>
  <circle cx="778.2834797681525" cy="418.0773315714177" r="4.854338037369873" fill="#CFAE58" opacity="0.22202802554593762"/>
  <circle cx="1041.7892535101105" cy="82.30931589707113" r="2.24798962580574" fill="#CFAE58" opacity="0.17850744728818002"/>
  <circle cx="149.6311547896483" cy="154.30213632306516" r="3.37990354194182" fill="#CFAE58" opacity="0.24572714481058272"/>
  <circle cx="428.32917916820566" cy="438.07864831638597" r="2.7498253707190874" fill="#CFAE58" opacity="0.20294531339150967"/>
  <circle cx="1055.0300188566196" cy="67.62278452768041" r="5.206135852916338" fill="#CFAE58" opacity="0.126039725139257"/>
  <circle cx="38.94365936092932" cy="185.0081888857963" r="2.8122164916139893" fill="#CFAE58" opacity="0.2104825812633342"/>
  <circle cx="444.3971661665118" cy="564.9806486057826" r="3.2144007513030814" fill="#CFAE58" opacity="0.12313483166567171"/>
  <circle cx="1092.3314830854106" cy="22.155029884175793" r="3.204160059045302" fill="#CFAE58" opacity="0.12063645844981608"/>
  <circle cx="704.8720794547035" cy="215.6860528057091" r="4.813048582430559" fill="#CFAE58" opacity="0.21480947362943315"/>
  <circle cx="121.54132318398511" cy="308.06116359974476" r="3.1860276146634217" fill="#CFAE58" opacity="0.1678807068427967"/>
  <circle cx="602.4964887899242" cy="273.8615791974218" r="5.639654172938883" fill="#CFAE58" opacity="0.11196763355958335"/>
  <circle cx="1114.856681949788" cy="365.20689730132835" r="3.5500307576969643" fill="#CFAE58" opacity="0.10032027306994923"/>
  <circle cx="199.85422404758347" cy="123.0224750620683" r="3.4354721317143206" fill="#CFAE58" opacity="0.1003135934471708"/>
  <circle cx="37.806175991102094" cy="84.90415854514222" r="2.5708713794135085" fill="#CFAE58" opacity="0.1675472222250786"/>
  <circle cx="289.8299810118588" cy="337.44552386842287" r="3.417583909726794" fill="#CFAE58" opacity="0.21677311805045862"/>
  <circle cx="391.05903727033785" cy="96.65140526834308" r="5.983885070054212" fill="#CFAE58" opacity="0.11168271523835821"/>
  <circle cx="347.9525546945463" cy="222.61706223756235" r="3.4739891553386966" fill="#CFAE58" opacity="0.15594199937880066"/>
  <circle cx="263.8643108677131" cy="552.4041298574643" r="3.539100041048987" fill="#CFAE58" opacity="0.10457573271486646"/>
  <circle cx="602.9951903534459" cy="274.7978213824735" r="3.1952112381423134" fill="#CFAE58" opacity="0.13194600492648043"/>
  <circle cx="1163.2087485116053" cy="339.5716197069037" r="4.350193932092581" fill="#CFAE58" opacity="0.17865630865516552"/>
  <circle cx="497.39763417251766" cy="537.9067450292662" r="3.682829788393956" fill="#CFAE58" opacity="0.2399716563354608"/>
  <circle cx="639.7112919922292" cy="422.32210928825805" r="3.6221805889300303" fill="#CFAE58" opacity="0.15217707603616976"/>

  <!-- Border with glow -->
  <rect x="40" y="40" width="1120" height="550" fill="none" stroke="url(#goldGradient)" stroke-width="3" rx="12" filter="url(#softGlow)"/>

  <!-- Icon circle with premium background -->
  <circle cx="150" cy="200" r="75" fill="#CFAE58" opacity="0.15" filter="url(#softGlow)"/>
  <circle cx="150" cy="200" r="70" fill="#CFAE58" opacity="0.25"/>
  <text x="150" y="235" font-size="90" text-anchor="middle" fill="#CFAE58" filter="url(#glow)">📸</text>

  <!-- Premium logo (crown) with enhanced styling -->
  <g transform="translate(100, 70)">
    <path d="M 30 20 L 40 35 L 35 35 Z M 50 15 L 60 35 L 45 35 Z M 65 20 L 75 35 L 70 35 Z M 30 35 L 75 35 L 73 45 L 32 45 Z"
          fill="url(#goldGradient)" filter="url(#glow)" stroke="#B89842" stroke-width="0.5"/>
    <circle cx="40" cy="25" r="3" fill="#4FD1C5" filter="url(#glow)"/>
    <circle cx="52" cy="20" r="4" fill="#4FD1C5" filter="url(#glow)"/>
    <circle cx="65" cy="25" r="3" fill="#4FD1C5" filter="url(#glow)"/>
  </g>

  <!-- Title with shadow -->
  <text x="280" y="180" font-family="Georgia, serif" font-size="72" font-weight="bold"
        fill="url(#goldGradient)" filter="url(#shadow)">Photo Gallery</text>

  <!-- Subtitle with subtle glow -->
  <text x="280" y="230" font-family="Arial, sans-serif" font-size="36"
        fill="#D6DEE6" opacity="0.95" filter="url(#softGlow)">Science, Family Tours &amp; Caviar Production</text>

  <!-- Brand name with letter spacing -->
  <text x="280" y="300" font-family="Georgia, serif" font-size="32" font-weight="bold"
        fill="#CFAE58" letter-spacing="4" filter="url(#glow)">ROYAL KETA</text>

  <!-- Russian tagline -->
  <text x="280" y="340" font-family="Arial, sans-serif" font-size="22" font-style="italic"
        fill="#8B95A1" opacity="0.8">От икринки к королевской</text>

  <!-- Location -->
  <text x="280" y="380" font-family="Arial, sans-serif" font-size="20"
        fill="#8B95A1" opacity="0.7">Невельский район, Сахалин</text>

  <!-- Website with glow -->
  <text x="100" y="570" font-family="Arial, sans-serif" font-size="30" font-weight="bold"
        fill="#4FD1C5" filter="url(#glow)">royalketa.com</text>

  <!-- Enhanced decorative salmon silhouette -->
  <g transform="translate(950, 480)" opacity="0.2" filter="url(#softGlow)">
    <ellipse cx="0" cy="0" rx="90" ry="35" fill="#CFAE58"/>
    <path d="M 90 0 L 120 -18 L 130 0 L 120 18 Z" fill="#CFAE58"/>
    <path d="M -25 -35 L 0 -45 L 25 -35 Z" fill="#CFAE58"/>
    <ellipse cx="-50" cy="0" rx="15" ry="12" fill="#0B0F14"/>
  </g>

  <!-- Additional decorative caviar clusters -->
  <g opacity="0.2">
    <circle cx="1050" cy="120" r="6" fill="#CFAE58"/>
    <circle cx="1065" cy="115" r="5" fill="#CFAE58"/>
    <circle cx="1058" cy="130" r="4" fill="#CFAE58"/>
    <circle cx="150" cy="500" r="5" fill="#4FD1C5"/>
    <circle cx="165" cy="508" r="4" fill="#4FD1C5"/>
    <circle cx="140" cy="512" r="5" fill="#4FD1C5"/>
  </g>
</svg>