<svg width="1200" height="630" xmlns="http://www.w3.org/2000/svg">
  <defs>
    <linearGradient id="bgGradient" x1="0%" y1="0%" x2="100%" y2="100%">
      <stop offset="0%" style="stop-color:#0B0F14;stop-opacity:1" />
      <stop offset="50%" style="stop-color:#0F1619;stop-opacity:1" />
      <stop offset="100%" style="stop-color:#0F1922;stop-opacity:1" />
    </linearGradient>
    <linearGradient id="goldGradient" x1="0%" y1="0%" x2="100%" y2="0%">
      <stop offset="0%" style="stop-color:#E5D596;stop-opacity:1" />
      <stop offset="50%" style="stop-color:#CFAE58;stop-opacity:1" />
      <stop offset="100%" style="stop-color:#B89842;stop-opacity:1" />
    </linearGradient>
    <radialGradient id="oceanGradient" cx="50%" cy="50%" r="50%">
      <stop offset="0%" style="stop-color:#4FD1C5;stop-opacity:0.3" />
      <stop offset="100%" style="stop-color:#1E90A0;stop-opacity:0.05" />
    </radialGradient>
    <filter id="glow">
      <feGaussianBlur stdDeviation="5" result="coloredBlur"/>
      <feMerge>
        <feMergeNode in="coloredBlur"/>
        <feMergeNode in="SourceGraphic"/>
      </feMerge>
    </filter>
    <filter id="softGlow">
      <feGaussianBlur stdDeviation="8" result="coloredBlur"/>
      <feMerge>
        <feMergeNode in="coloredBlur"/>
        <feMergeNode in="SourceGraphic"/>
      </feMerge>
    </filter>
    <filter id="shadow">
      <feDropShadow dx="0" dy="4" stdDeviation="8" flood-color="#000000" flood-opacity="0.5"/>
    </filter>
  </defs>

  <!-- Background -->
  <rect width="1200" height="630" fill="url(#bgGradient)"/>

  <!-- Decorative ocean gradients -->
  <ellipse cx="1000" cy="150" rx="300" ry="200" fill="url(#oceanGradient)" opacity="0.4"/>
  <ellipse cx="200" cy="530" rx="250" ry="180" fill="url(#oceanGradient)" opacity="0.3"/>

  <!-- Wave patterns -->
  <path d="M 0 400 Q 300 350 600 400 T 1200 400 L 1200 630 L 0 630 Z" fill="#1E90A0" opacity="0.08"/>
  <path d="M 0 450 Q 250 420 500 450 T 1000 450 T 1200 450 L 1200 630 L 0 630 Z" fill="#4FD1C5" opacity="0.05"/>

  <!-- Caviar roe particles -->
  <circle cx="719.9880275357846" cy="318.3390725494963" r="5.934227889474772" fill="#CFAE58" opacity="0.24318662687243328"/>
  <circle cx="0.21129527348637822" cy="1.0077132041736014" r="5.909103382945608" fill="#CFAE58" opacity="0.22234809099699432"/>
  <circle cx="566.2664395822468" cy="407.30018058410616" r="4.46826851499147" fill="#CFAE58" opacity="0.19945408528011757"/>
  <circle cx="342.7901015022938" cy="310.6259644516907" r="4.936328673653443" fill="#CFAE58" opacity="0.20357692463325283"/>
  <circle cx="933.2502075901159" cy="586.284909106848" r="5.740269553468509" fill="#CFAE58" opacity="0.17017746800077171"/>
  <circle cx="530.1549787087735" cy="494.99126337374537" r="5.904398563986231" fill="#CFAE58" opacity="0.2166640395193049"/>
  <circle cx="757.6692041071376" cy="417.1279157781876" r="2.2313575857817485" fill="#CFAE58" opacity="0.24746122407557564"/>
  <circle cx="390.9116718936966" cy="330.01002016908205" r="3.406717090826435" fill="#CFAE58" opacity="0.24333800362072222"/>
  <circle cx="39.86973510431602" cy="64.72044075270554" r="2.8559890464345488" fill="#CFAE58" opacity="0.16799169801325547"/>
  <circle cx="199.8083221083844" cy="130.28815170975776" r="4.032063775435236" fill="#CFAE58" opacity="0.1098842379264745"/>
  <circle cx="103.67338925986527" cy="242.4755223689209" r="2.4592134542296336" fill="#CFAE58" opacity="0.10977186741902954"/>
  <circle cx="973.789752898893" cy="490.10305519088297" r="4.354789074845625" fill="#CFAE58" opacity="0.16489242160501646"/>
  <circle cx="624.6735319221866" cy="96.77457972937356" r="3.3572077542535093" fill="#CFAE58" opacity="0.10031949475073275"/>
  <circle cx="935.2985243197026" cy="486.09523847731305" r="3.3036033239893836" fill="#CFAE58" opacity="0.136020934644874"/>
  <circle cx="929.5453295696532" cy="410.3174215598657" r="3.0443430582548396" fill="#CFAE58" opacity="0.1914891386605669"/>
  <circle cx="613.8248004059617" cy="72.18106730553991" r="5.330467362899127" fill="#CFAE58" opacity="0.12840727512065947"/>
  <circle cx="618.8855238364027" cy="495.04568796594344" r="5.728471107208629" fill="#CFAE58" opacity="0.24432789361376375"/>
  <circle cx="605.3386117850283" cy="50.47403168070561" r="3.4829820604681085" fill="#CFAE58" opacity="0.16971662467554868"/>
  <circle cx="470.80211139366986" cy="603.7219298566334" r="2.49548938605707" fill="#CFAE58" opacity="0.107237527990429"/>
  <circle cx="690.1328806790342" cy="171.20930657540165" r="4.818328564924661" fill="#CFAE58" opacity="0.15558938414822543"/>
  <circle cx="126.74945976988133" cy="622.3984701460234" r="3.068275279815853" fill="#CFAE58" opacity="0.11156741383295792"/>
  <circle cx="812.977692418446" cy="184.16791326003562" r="3.431153171006163" fill="#CFAE58" opacity="0.1468771324475099"/>
  <circle cx="767.3174367253589" cy="271.0976061620551" r="4.531895845329711" fill="#CFAE58" opacity="0.17442718207482888"/>
  <circle cx="855.7622080420282" cy="271.0832646716554" r="3.8047149986346804" fill="#CFAE58" opacity="0.2185757907089689"/>
  <circle cx="8.044298224433355" cy="33.72078992543247" r="2.9146791520660873" fill="#CFAE58" opacity="0.22175594518980776"/>
  <circle cx="882.8489235168399" cy="173.57511647084843" r="5.005954851851355" fill="#CFAE58" opacity="0.2257720049687023"/>
  <circle cx="768.1734620529219" cy="193.21643079440668" r="4.234838192147705" fill="#CFAE58" opacity="0.247617344168505"/>
  <circle cx="1153.4573810056029" cy="36.53307172576066" r="2.7323693448353987" fill="#CFAE58" opacity="0.13365185438283358"/>
  <circle cx="80.5233515483529" cy="580.2247275307187" r="3.6289723267170153" fill="#CFAE58" opacity="0.1278433979499057"/>
  <circle cx="692.671369763055" cy="133.11469440998778" r="4.30391369504901" fill="#CFAE58" opacity="0.17280723777231838"/>

  <!-- Border with glow -->
  <rect x="40" y="40" width="1120" height="550" fill="none" stroke="url(#goldGradient)" stroke-width="3" rx="12" filter="url(#softGlow)"/>

  <!-- Icon circle with premium background -->
  <circle cx="150" cy="200" r="75" fill="#CFAE58" opacity="0.15" filter="url(#softGlow)"/>
  <circle cx="150" cy="200" r="70" fill="#CFAE58" opacity="0.25"/>
  <text x="150" y="235" font-size="90" text-anchor="middle" fill="#CFAE58" filter="url(#glow)">📸</text>

  <!-- Premium logo (crown) with enhanced styling -->
  <g transform="translate(100, 70)">
    <path d="M 30 20 L 40 35 L 35 35 Z M 50 15 L 60 35 L 45 35 Z M 65 20 L 75 35 L 70 35 Z M 30 35 L 75 35 L 73 45 L 32 45 Z"
          fill="url(#goldGradient)" filter="url(#glow)" stroke="#B89842" stroke-width="0.5"/>
    <circle cx="40" cy="25" r="3" fill="#4FD1C5" filter="url(#glow)"/>
    <circle cx="52" cy="20" r="4" fill="#4FD1C5" filter="url(#glow)"/>
    <circle cx="65" cy="25" r="3" fill="#4FD1C5" filter="url(#glow)"/>
  </g>

  <!-- Title with shadow -->
  <text x="280" y="180" font-family="Georgia, serif" font-size="72" font-weight="bold"
        fill="url(#goldGradient)" filter="url(#shadow)">Photo Gallery</text>

  <!-- Subtitle with subtle glow -->
  <text x="280" y="230" font-family="Arial, sans-serif" font-size="36"
        fill="#D6DEE6" opacity="0.95" filter="url(#softGlow)">Science, Family Tours &amp; Caviar Production</text>

  <!-- Brand name with letter spacing -->
  <text x="280" y="300" font-family="Georgia, serif" font-size="32" font-weight="bold"
        fill="#CFAE58" letter-spacing="4" filter="url(#glow)">ROYAL KETA</text>

  <!-- Russian tagline -->
  <text x="280" y="340" font-family="Arial, sans-serif" font-size="22" font-style="italic"
        fill="#8B95A1" opacity="0.8">От икринки к королевской</text>

  <!-- Location -->
  <text x="280" y="380" font-family="Arial, sans-serif" font-size="20"
        fill="#8B95A1" opacity="0.7">Невельский район, Сахалин</text>

  <!-- Website with glow -->
  <text x="100" y="570" font-family="Arial, sans-serif" font-size="30" font-weight="bold"
        fill="#4FD1C5" filter="url(#glow)">royalketa.com</text>

  <!-- Enhanced decorative salmon silhouette -->
  <g transform="translate(950, 480)" opacity="0.2" filter="url(#softGlow)">
    <ellipse cx="0" cy="0" rx="90" ry="35" fill="#CFAE58"/>
    <path d="M 90 0 L 120 -18 L 130 0 L 120 18 Z" fill="#CFAE58"/>
    <path d="M -25 -35 L 0 -45 L 25 -35 Z" fill="#CFAE58"/>
    <ellipse cx="-50" cy="0" rx="15" ry="12" fill="#0B0F14"/>
  </g>

  <!-- Additional decorative caviar clusters -->
  <g opacity="0.2">
    <circle cx="1050" cy="120" r="6" fill="#CFAE58"/>
    <circle cx="1065" cy="115" r="5" fill="#CFAE58"/>
    <circle cx="1058" cy="130" r="4" fill="#CFAE58"/>
    <circle cx="150" cy="500" r="5" fill="#4FD1C5"/>
    <circle cx="165" cy="508" r="4" fill="#4FD1C5"/>
    <circle cx="140" cy="512" r="5" fill="#4FD1C5"/>
  </g>
</svg>