<svg width="1200" height="630" xmlns="http://www.w3.org/2000/svg">
  <defs>
    <linearGradient id="bgGradient" x1="0%" y1="0%" x2="100%" y2="100%">
      <stop offset="0%" style="stop-color:#0B0F14;stop-opacity:1" />
      <stop offset="50%" style="stop-color:#0F1619;stop-opacity:1" />
      <stop offset="100%" style="stop-color:#0F1922;stop-opacity:1" />
    </linearGradient>
    <linearGradient id="goldGradient" x1="0%" y1="0%" x2="100%" y2="0%">
      <stop offset="0%" style="stop-color:#E5D596;stop-opacity:1" />
      <stop offset="50%" style="stop-color:#CFAE58;stop-opacity:1" />
      <stop offset="100%" style="stop-color:#B89842;stop-opacity:1" />
    </linearGradient>
    <radialGradient id="oceanGradient" cx="50%" cy="50%" r="50%">
      <stop offset="0%" style="stop-color:#4FD1C5;stop-opacity:0.3" />
      <stop offset="100%" style="stop-color:#1E90A0;stop-opacity:0.05" />
    </radialGradient>
    <filter id="glow">
      <feGaussianBlur stdDeviation="5" result="coloredBlur"/>
      <feMerge>
        <feMergeNode in="coloredBlur"/>
        <feMergeNode in="SourceGraphic"/>
      </feMerge>
    </filter>
    <filter id="softGlow">
      <feGaussianBlur stdDeviation="8" result="coloredBlur"/>
      <feMerge>
        <feMergeNode in="coloredBlur"/>
        <feMergeNode in="SourceGraphic"/>
      </feMerge>
    </filter>
    <filter id="shadow">
      <feDropShadow dx="0" dy="4" stdDeviation="8" flood-color="#000000" flood-opacity="0.5"/>
    </filter>
  </defs>

  <!-- Background -->
  <rect width="1200" height="630" fill="url(#bgGradient)"/>

  <!-- Decorative ocean gradients -->
  <ellipse cx="1000" cy="150" rx="300" ry="200" fill="url(#oceanGradient)" opacity="0.4"/>
  <ellipse cx="200" cy="530" rx="250" ry="180" fill="url(#oceanGradient)" opacity="0.3"/>

  <!-- Wave patterns -->
  <path d="M 0 400 Q 300 350 600 400 T 1200 400 L 1200 630 L 0 630 Z" fill="#1E90A0" opacity="0.08"/>
  <path d="M 0 450 Q 250 420 500 450 T 1000 450 T 1200 450 L 1200 630 L 0 630 Z" fill="#4FD1C5" opacity="0.05"/>

  <!-- Caviar roe particles -->
  <circle cx="642.0869314035326" cy="553.1796483880112" r="2.2567651129563906" fill="#CFAE58" opacity="0.17944998978005605"/>
  <circle cx="1052.2229385906128" cy="407.1902094933581" r="3.825704667419007" fill="#CFAE58" opacity="0.19385382729909514"/>
  <circle cx="24.330256379512072" cy="559.629885368692" r="5.715296290002702" fill="#CFAE58" opacity="0.2466224543246036"/>
  <circle cx="672.3141569201547" cy="431.49933416365656" r="3.306986547293727" fill="#CFAE58" opacity="0.22900093427299326"/>
  <circle cx="819.9219890305278" cy="9.708975382858991" r="5.757544214608815" fill="#CFAE58" opacity="0.11888484049293879"/>
  <circle cx="282.3052774024766" cy="263.70622077806297" r="5.588385438035111" fill="#CFAE58" opacity="0.19420276011378307"/>
  <circle cx="914.3674171470933" cy="55.00906220733722" r="4.42102780886142" fill="#CFAE58" opacity="0.1562582419722075"/>
  <circle cx="808.9933401297276" cy="285.0546944952903" r="4.205550824109616" fill="#CFAE58" opacity="0.11344070863073481"/>
  <circle cx="85.2010544274509" cy="527.5443122457266" r="4.420662102517724" fill="#CFAE58" opacity="0.1756885016537449"/>
  <circle cx="205.9264452284978" cy="330.55022712914945" r="5.630582939636164" fill="#CFAE58" opacity="0.23172536893545256"/>
  <circle cx="262.4318000348546" cy="362.5461767056185" r="4.0907369281682335" fill="#CFAE58" opacity="0.11462551456025066"/>
  <circle cx="250.8405674543857" cy="251.30358762743913" r="3.072423024542906" fill="#CFAE58" opacity="0.2439633281241104"/>
  <circle cx="184.07744225110116" cy="187.0001276291891" r="2.19130200246339" fill="#CFAE58" opacity="0.23278804384389817"/>
  <circle cx="829.6733906703282" cy="175.45325423446678" r="2.980129616441695" fill="#CFAE58" opacity="0.11937156345182484"/>
  <circle cx="805.2176374397432" cy="48.62245127663201" r="5.959448943625099" fill="#CFAE58" opacity="0.1719218893976736"/>
  <circle cx="880.8444836318088" cy="240.68180742809173" r="4.595971338457013" fill="#CFAE58" opacity="0.11081718506441808"/>
  <circle cx="926.7052809947609" cy="430.6679281235159" r="3.4537817085576714" fill="#CFAE58" opacity="0.1344264349525454"/>
  <circle cx="500.2425745978374" cy="304.7591242029043" r="5.503667327322745" fill="#CFAE58" opacity="0.18903762782859956"/>
  <circle cx="621.3166165743801" cy="80.32354922414584" r="3.4945869362602027" fill="#CFAE58" opacity="0.11052025735424299"/>
  <circle cx="123.4477512687362" cy="550.9414688269255" r="3.296671672657193" fill="#CFAE58" opacity="0.12869503632083137"/>
  <circle cx="898.9046382289889" cy="36.59213896413743" r="2.0339940548147784" fill="#CFAE58" opacity="0.14141000432671105"/>
  <circle cx="1155.6110423218975" cy="124.31335586797624" r="5.761155226637925" fill="#CFAE58" opacity="0.1930396144967918"/>
  <circle cx="1104.907825843572" cy="88.62892157230607" r="4.1414467221478315" fill="#CFAE58" opacity="0.15652479772430367"/>
  <circle cx="717.2410639757002" cy="483.6401763608707" r="5.227553641570105" fill="#CFAE58" opacity="0.11895794567869677"/>
  <circle cx="29.948173832250813" cy="371.8414146792442" r="5.01080814337361" fill="#CFAE58" opacity="0.11260783538539126"/>
  <circle cx="828.0152888422018" cy="68.46868752405345" r="4.149114673939786" fill="#CFAE58" opacity="0.12838057220538215"/>
  <circle cx="840.1884616445265" cy="509.4151363163843" r="2.904063831792489" fill="#CFAE58" opacity="0.24227502374323123"/>
  <circle cx="415.31776091997097" cy="362.18816295267965" r="4.259073904030859" fill="#CFAE58" opacity="0.19171644965533402"/>
  <circle cx="534.9691619354759" cy="319.4159465087108" r="4.216920610585107" fill="#CFAE58" opacity="0.16008281260541263"/>
  <circle cx="81.5058198080786" cy="411.2781577404643" r="2.719155595600922" fill="#CFAE58" opacity="0.18937776807433715"/>

  <!-- Border with glow -->
  <rect x="40" y="40" width="1120" height="550" fill="none" stroke="url(#goldGradient)" stroke-width="3" rx="12" filter="url(#softGlow)"/>

  <!-- Icon circle with premium background -->
  <circle cx="150" cy="200" r="75" fill="#CFAE58" opacity="0.15" filter="url(#softGlow)"/>
  <circle cx="150" cy="200" r="70" fill="#CFAE58" opacity="0.25"/>
  <text x="150" y="235" font-size="90" text-anchor="middle" fill="#CFAE58" filter="url(#glow)">📸</text>

  <!-- Premium logo (crown) with enhanced styling -->
  <g transform="translate(100, 70)">
    <path d="M 30 20 L 40 35 L 35 35 Z M 50 15 L 60 35 L 45 35 Z M 65 20 L 75 35 L 70 35 Z M 30 35 L 75 35 L 73 45 L 32 45 Z"
          fill="url(#goldGradient)" filter="url(#glow)" stroke="#B89842" stroke-width="0.5"/>
    <circle cx="40" cy="25" r="3" fill="#4FD1C5" filter="url(#glow)"/>
    <circle cx="52" cy="20" r="4" fill="#4FD1C5" filter="url(#glow)"/>
    <circle cx="65" cy="25" r="3" fill="#4FD1C5" filter="url(#glow)"/>
  </g>

  <!-- Title with shadow -->
  <text x="280" y="180" font-family="Georgia, serif" font-size="72" font-weight="bold"
        fill="url(#goldGradient)" filter="url(#shadow)">Photo Gallery</text>

  <!-- Subtitle with subtle glow -->
  <text x="280" y="230" font-family="Arial, sans-serif" font-size="36"
        fill="#D6DEE6" opacity="0.95" filter="url(#softGlow)">Science, Family Tours &amp; Caviar Production</text>

  <!-- Brand name with letter spacing -->
  <text x="280" y="300" font-family="Georgia, serif" font-size="32" font-weight="bold"
        fill="#CFAE58" letter-spacing="4" filter="url(#glow)">ROYAL KETA</text>

  <!-- Russian tagline -->
  <text x="280" y="340" font-family="Arial, sans-serif" font-size="22" font-style="italic"
        fill="#8B95A1" opacity="0.8">От икринки к королевской</text>

  <!-- Location -->
  <text x="280" y="380" font-family="Arial, sans-serif" font-size="20"
        fill="#8B95A1" opacity="0.7">Невельский район, Сахалин</text>

  <!-- Website with glow -->
  <text x="100" y="570" font-family="Arial, sans-serif" font-size="30" font-weight="bold"
        fill="#4FD1C5" filter="url(#glow)">royalketa.com</text>

  <!-- Enhanced decorative salmon silhouette -->
  <g transform="translate(950, 480)" opacity="0.2" filter="url(#softGlow)">
    <ellipse cx="0" cy="0" rx="90" ry="35" fill="#CFAE58"/>
    <path d="M 90 0 L 120 -18 L 130 0 L 120 18 Z" fill="#CFAE58"/>
    <path d="M -25 -35 L 0 -45 L 25 -35 Z" fill="#CFAE58"/>
    <ellipse cx="-50" cy="0" rx="15" ry="12" fill="#0B0F14"/>
  </g>

  <!-- Additional decorative caviar clusters -->
  <g opacity="0.2">
    <circle cx="1050" cy="120" r="6" fill="#CFAE58"/>
    <circle cx="1065" cy="115" r="5" fill="#CFAE58"/>
    <circle cx="1058" cy="130" r="4" fill="#CFAE58"/>
    <circle cx="150" cy="500" r="5" fill="#4FD1C5"/>
    <circle cx="165" cy="508" r="4" fill="#4FD1C5"/>
    <circle cx="140" cy="512" r="5" fill="#4FD1C5"/>
  </g>
</svg>