<svg width="1200" height="630" xmlns="http://www.w3.org/2000/svg">
  <defs>
    <linearGradient id="bgGradient" x1="0%" y1="0%" x2="100%" y2="100%">
      <stop offset="0%" style="stop-color:#0B0F14;stop-opacity:1" />
      <stop offset="50%" style="stop-color:#0F1619;stop-opacity:1" />
      <stop offset="100%" style="stop-color:#0F1922;stop-opacity:1" />
    </linearGradient>
    <linearGradient id="goldGradient" x1="0%" y1="0%" x2="100%" y2="0%">
      <stop offset="0%" style="stop-color:#E5D596;stop-opacity:1" />
      <stop offset="50%" style="stop-color:#CFAE58;stop-opacity:1" />
      <stop offset="100%" style="stop-color:#B89842;stop-opacity:1" />
    </linearGradient>
    <radialGradient id="oceanGradient" cx="50%" cy="50%" r="50%">
      <stop offset="0%" style="stop-color:#4FD1C5;stop-opacity:0.3" />
      <stop offset="100%" style="stop-color:#1E90A0;stop-opacity:0.05" />
    </radialGradient>
    <filter id="glow">
      <feGaussianBlur stdDeviation="5" result="coloredBlur"/>
      <feMerge>
        <feMergeNode in="coloredBlur"/>
        <feMergeNode in="SourceGraphic"/>
      </feMerge>
    </filter>
    <filter id="softGlow">
      <feGaussianBlur stdDeviation="8" result="coloredBlur"/>
      <feMerge>
        <feMergeNode in="coloredBlur"/>
        <feMergeNode in="SourceGraphic"/>
      </feMerge>
    </filter>
    <filter id="shadow">
      <feDropShadow dx="0" dy="4" stdDeviation="8" flood-color="#000000" flood-opacity="0.5"/>
    </filter>
  </defs>

  <!-- Background -->
  <rect width="1200" height="630" fill="url(#bgGradient)"/>

  <!-- Decorative ocean gradients -->
  <ellipse cx="1000" cy="150" rx="300" ry="200" fill="url(#oceanGradient)" opacity="0.4"/>
  <ellipse cx="200" cy="530" rx="250" ry="180" fill="url(#oceanGradient)" opacity="0.3"/>

  <!-- Wave patterns -->
  <path d="M 0 400 Q 300 350 600 400 T 1200 400 L 1200 630 L 0 630 Z" fill="#1E90A0" opacity="0.08"/>
  <path d="M 0 450 Q 250 420 500 450 T 1000 450 T 1200 450 L 1200 630 L 0 630 Z" fill="#4FD1C5" opacity="0.05"/>

  <!-- Caviar roe particles -->
  <circle cx="630.4230053037887" cy="248.64434336643868" r="4.219915593797697" fill="#CFAE58" opacity="0.15525140836731544"/>
  <circle cx="879.1466361855329" cy="100.30188853267894" r="2.4129135778763935" fill="#CFAE58" opacity="0.18776464439402563"/>
  <circle cx="1026.5109062268125" cy="190.59565968590246" r="3.9144096021336914" fill="#CFAE58" opacity="0.2225260597829368"/>
  <circle cx="167.05062849226496" cy="611.9687241072999" r="2.6590256414087703" fill="#CFAE58" opacity="0.24685806316323233"/>
  <circle cx="1020.8906702328122" cy="456.9812990508212" r="3.749005823542153" fill="#CFAE58" opacity="0.19170399831101848"/>
  <circle cx="806.8896349385991" cy="274.8582379759748" r="2.0926007153436883" fill="#CFAE58" opacity="0.12040771752619563"/>
  <circle cx="597.2105520053351" cy="32.4823258063101" r="2.3006646063548706" fill="#CFAE58" opacity="0.1290816757601866"/>
  <circle cx="944.4592840356679" cy="52.78833567168917" r="2.746486164231155" fill="#CFAE58" opacity="0.11213116967148606"/>
  <circle cx="764.0319728556266" cy="319.68794906379895" r="3.8834625996189587" fill="#CFAE58" opacity="0.18645529301472757"/>
  <circle cx="703.6977036480142" cy="438.44211484750616" r="2.8658481004842855" fill="#CFAE58" opacity="0.13180273233597556"/>
  <circle cx="227.39785109478464" cy="325.25512125715824" r="4.27026326561177" fill="#CFAE58" opacity="0.15458948521147414"/>
  <circle cx="3.7871074043213326" cy="607.2717513088055" r="4.394384114425098" fill="#CFAE58" opacity="0.21577337978455552"/>
  <circle cx="1099.5272701037536" cy="365.93180321856204" r="2.248383733962833" fill="#CFAE58" opacity="0.2184131679068229"/>
  <circle cx="547.3090685094056" cy="182.56501470573204" r="2.956569201933573" fill="#CFAE58" opacity="0.19867219101480965"/>
  <circle cx="27.855119603850387" cy="439.7371611839932" r="5.396205153357207" fill="#CFAE58" opacity="0.23127742195487339"/>
  <circle cx="719.8188727006547" cy="425.08976515783525" r="4.6081049811964325" fill="#CFAE58" opacity="0.11087700301627491"/>
  <circle cx="480.9320674556591" cy="535.3543683294807" r="2.569922736693014" fill="#CFAE58" opacity="0.1857963639976961"/>
  <circle cx="152.61348556921837" cy="577.6039418452904" r="4.128051880817231" fill="#CFAE58" opacity="0.15648433586206775"/>
  <circle cx="443.02335465675225" cy="295.657313368552" r="5.500889671381774" fill="#CFAE58" opacity="0.12606997557390284"/>
  <circle cx="688.7032083861902" cy="617.322076328607" r="4.769721913081629" fill="#CFAE58" opacity="0.16620652494421434"/>
  <circle cx="259.85054456860644" cy="206.8067000177373" r="5.642677087858984" fill="#CFAE58" opacity="0.20471383442312663"/>
  <circle cx="53.1496976062523" cy="45.843497686128735" r="2.287357828713172" fill="#CFAE58" opacity="0.15165595437324011"/>
  <circle cx="442.5506227543257" cy="456.4906693277829" r="4.73677124118343" fill="#CFAE58" opacity="0.1315602506175871"/>
  <circle cx="1156.6527017754663" cy="420.9118170912244" r="5.775949799224111" fill="#CFAE58" opacity="0.11200335576636797"/>
  <circle cx="404.34618494989206" cy="143.70803072358285" r="3.4384284916521297" fill="#CFAE58" opacity="0.16812322862639162"/>
  <circle cx="207.0217633994142" cy="403.603286882734" r="5.836792226215925" fill="#CFAE58" opacity="0.2493682626212354"/>
  <circle cx="124.13135531552966" cy="509.5145615706422" r="4.309423101576227" fill="#CFAE58" opacity="0.15307979031817484"/>
  <circle cx="430.4557188752974" cy="131.55082327078432" r="2.277025936366127" fill="#CFAE58" opacity="0.22946482842520233"/>
  <circle cx="661.4490868523867" cy="19.808890963782982" r="4.172274615743806" fill="#CFAE58" opacity="0.11649740258082864"/>
  <circle cx="42.240374241301296" cy="571.7766873499551" r="5.222939102106296" fill="#CFAE58" opacity="0.12447206488649609"/>

  <!-- Border with glow -->
  <rect x="40" y="40" width="1120" height="550" fill="none" stroke="url(#goldGradient)" stroke-width="3" rx="12" filter="url(#softGlow)"/>

  <!-- Icon circle with premium background -->
  <circle cx="150" cy="200" r="75" fill="#CFAE58" opacity="0.15" filter="url(#softGlow)"/>
  <circle cx="150" cy="200" r="70" fill="#CFAE58" opacity="0.25"/>
  <text x="150" y="235" font-size="90" text-anchor="middle" fill="#CFAE58" filter="url(#glow)">📸</text>

  <!-- Premium logo (crown) with enhanced styling -->
  <g transform="translate(100, 70)">
    <path d="M 30 20 L 40 35 L 35 35 Z M 50 15 L 60 35 L 45 35 Z M 65 20 L 75 35 L 70 35 Z M 30 35 L 75 35 L 73 45 L 32 45 Z"
          fill="url(#goldGradient)" filter="url(#glow)" stroke="#B89842" stroke-width="0.5"/>
    <circle cx="40" cy="25" r="3" fill="#4FD1C5" filter="url(#glow)"/>
    <circle cx="52" cy="20" r="4" fill="#4FD1C5" filter="url(#glow)"/>
    <circle cx="65" cy="25" r="3" fill="#4FD1C5" filter="url(#glow)"/>
  </g>

  <!-- Title with shadow -->
  <text x="280" y="180" font-family="Georgia, serif" font-size="72" font-weight="bold"
        fill="url(#goldGradient)" filter="url(#shadow)">Photo Gallery</text>

  <!-- Subtitle with subtle glow -->
  <text x="280" y="230" font-family="Arial, sans-serif" font-size="36"
        fill="#D6DEE6" opacity="0.95" filter="url(#softGlow)">Science, Family Tours &amp; Caviar Production</text>

  <!-- Brand name with letter spacing -->
  <text x="280" y="300" font-family="Georgia, serif" font-size="32" font-weight="bold"
        fill="#CFAE58" letter-spacing="4" filter="url(#glow)">ROYAL KETA</text>

  <!-- Russian tagline -->
  <text x="280" y="340" font-family="Arial, sans-serif" font-size="22" font-style="italic"
        fill="#8B95A1" opacity="0.8">От икринки к королевской</text>

  <!-- Location -->
  <text x="280" y="380" font-family="Arial, sans-serif" font-size="20"
        fill="#8B95A1" opacity="0.7">Невельский район, Сахалин</text>

  <!-- Website with glow -->
  <text x="100" y="570" font-family="Arial, sans-serif" font-size="30" font-weight="bold"
        fill="#4FD1C5" filter="url(#glow)">royalketa.com</text>

  <!-- Enhanced decorative salmon silhouette -->
  <g transform="translate(950, 480)" opacity="0.2" filter="url(#softGlow)">
    <ellipse cx="0" cy="0" rx="90" ry="35" fill="#CFAE58"/>
    <path d="M 90 0 L 120 -18 L 130 0 L 120 18 Z" fill="#CFAE58"/>
    <path d="M -25 -35 L 0 -45 L 25 -35 Z" fill="#CFAE58"/>
    <ellipse cx="-50" cy="0" rx="15" ry="12" fill="#0B0F14"/>
  </g>

  <!-- Additional decorative caviar clusters -->
  <g opacity="0.2">
    <circle cx="1050" cy="120" r="6" fill="#CFAE58"/>
    <circle cx="1065" cy="115" r="5" fill="#CFAE58"/>
    <circle cx="1058" cy="130" r="4" fill="#CFAE58"/>
    <circle cx="150" cy="500" r="5" fill="#4FD1C5"/>
    <circle cx="165" cy="508" r="4" fill="#4FD1C5"/>
    <circle cx="140" cy="512" r="5" fill="#4FD1C5"/>
  </g>
</svg>