<svg width="1200" height="630" xmlns="http://www.w3.org/2000/svg">
  <defs>
    <linearGradient id="bgGradient" x1="0%" y1="0%" x2="100%" y2="100%">
      <stop offset="0%" style="stop-color:#0B0F14;stop-opacity:1" />
      <stop offset="50%" style="stop-color:#0F1619;stop-opacity:1" />
      <stop offset="100%" style="stop-color:#0F1922;stop-opacity:1" />
    </linearGradient>
    <linearGradient id="goldGradient" x1="0%" y1="0%" x2="100%" y2="0%">
      <stop offset="0%" style="stop-color:#E5D596;stop-opacity:1" />
      <stop offset="50%" style="stop-color:#CFAE58;stop-opacity:1" />
      <stop offset="100%" style="stop-color:#B89842;stop-opacity:1" />
    </linearGradient>
    <radialGradient id="oceanGradient" cx="50%" cy="50%" r="50%">
      <stop offset="0%" style="stop-color:#4FD1C5;stop-opacity:0.3" />
      <stop offset="100%" style="stop-color:#1E90A0;stop-opacity:0.05" />
    </radialGradient>
    <filter id="glow">
      <feGaussianBlur stdDeviation="5" result="coloredBlur"/>
      <feMerge>
        <feMergeNode in="coloredBlur"/>
        <feMergeNode in="SourceGraphic"/>
      </feMerge>
    </filter>
    <filter id="softGlow">
      <feGaussianBlur stdDeviation="8" result="coloredBlur"/>
      <feMerge>
        <feMergeNode in="coloredBlur"/>
        <feMergeNode in="SourceGraphic"/>
      </feMerge>
    </filter>
    <filter id="shadow">
      <feDropShadow dx="0" dy="4" stdDeviation="8" flood-color="#000000" flood-opacity="0.5"/>
    </filter>
  </defs>

  <!-- Background -->
  <rect width="1200" height="630" fill="url(#bgGradient)"/>

  <!-- Decorative ocean gradients -->
  <ellipse cx="1000" cy="150" rx="300" ry="200" fill="url(#oceanGradient)" opacity="0.4"/>
  <ellipse cx="200" cy="530" rx="250" ry="180" fill="url(#oceanGradient)" opacity="0.3"/>

  <!-- Wave patterns -->
  <path d="M 0 400 Q 300 350 600 400 T 1200 400 L 1200 630 L 0 630 Z" fill="#1E90A0" opacity="0.08"/>
  <path d="M 0 450 Q 250 420 500 450 T 1000 450 T 1200 450 L 1200 630 L 0 630 Z" fill="#4FD1C5" opacity="0.05"/>

  <!-- Caviar roe particles -->
  <circle cx="872.5799247441348" cy="447.1859314650547" r="4.085061808825651" fill="#CFAE58" opacity="0.15442767898626727"/>
  <circle cx="385.2599924247728" cy="234.87010251427918" r="4.842838631369615" fill="#CFAE58" opacity="0.16187159738721318"/>
  <circle cx="1150.8691068338808" cy="579.3007271311852" r="2.11614613525898" fill="#CFAE58" opacity="0.18711413391786652"/>
  <circle cx="931.1939239857367" cy="295.8314661937286" r="5.255539146782935" fill="#CFAE58" opacity="0.18363766345356408"/>
  <circle cx="918.520347631974" cy="607.0722105923187" r="3.6853668065782124" fill="#CFAE58" opacity="0.19626825851725702"/>
  <circle cx="1027.4281140840487" cy="277.36113417019754" r="3.9459795189424165" fill="#CFAE58" opacity="0.2462554387967064"/>
  <circle cx="145.87048556245264" cy="145.5148608030636" r="4.082380118742602" fill="#CFAE58" opacity="0.18496428463121614"/>
  <circle cx="654.082578310222" cy="141.88505847326408" r="5.0676662744588885" fill="#CFAE58" opacity="0.1965451362458113"/>
  <circle cx="999.0322651498332" cy="210.72191467977473" r="2.172807476592947" fill="#CFAE58" opacity="0.23816485479823446"/>
  <circle cx="1057.8287609364122" cy="71.31642528070165" r="2.0774969936245906" fill="#CFAE58" opacity="0.12593269117419478"/>
  <circle cx="500.7232560200575" cy="356.55970069762844" r="5.870389963539653" fill="#CFAE58" opacity="0.21734374196329415"/>
  <circle cx="77.30543886529642" cy="154.69523885566048" r="3.0938417476155595" fill="#CFAE58" opacity="0.22736379440272586"/>
  <circle cx="670.633801988869" cy="203.42253113522804" r="3.9987557573723405" fill="#CFAE58" opacity="0.19258233964881188"/>
  <circle cx="451.36635394442754" cy="61.0653087507811" r="3.2918001007505726" fill="#CFAE58" opacity="0.23139663931707932"/>
  <circle cx="808.9673854503777" cy="457.5057310447586" r="4.500497679142347" fill="#CFAE58" opacity="0.2150275325650928"/>
  <circle cx="229.11634410971024" cy="505.87347756410037" r="4.011977906653517" fill="#CFAE58" opacity="0.2438021430854066"/>
  <circle cx="854.3662212348485" cy="38.04819797241899" r="4.909556871281936" fill="#CFAE58" opacity="0.1424638925049236"/>
  <circle cx="712.8286479260519" cy="49.66341054764728" r="4.9271894533369265" fill="#CFAE58" opacity="0.24820390927514227"/>
  <circle cx="124.5060487936561" cy="426.99415764210625" r="4.690295746783525" fill="#CFAE58" opacity="0.16068284033662356"/>
  <circle cx="751.2743599550496" cy="148.2812463188889" r="3.5559821120832797" fill="#CFAE58" opacity="0.23081717197246365"/>
  <circle cx="1098.420429890189" cy="51.989942702948014" r="5.41495997827528" fill="#CFAE58" opacity="0.11068489907125104"/>
  <circle cx="918.3480326156915" cy="358.5204909639361" r="3.50084647961762" fill="#CFAE58" opacity="0.1970355331124351"/>
  <circle cx="281.3785993881697" cy="587.9942171515535" r="4.9666602298746785" fill="#CFAE58" opacity="0.17815908498656174"/>
  <circle cx="727.9334507603631" cy="265.2018738044621" r="3.3058007417357858" fill="#CFAE58" opacity="0.23052798332057062"/>
  <circle cx="846.2828959497903" cy="599.8748895975596" r="3.1168994907277137" fill="#CFAE58" opacity="0.23292492039405893"/>
  <circle cx="35.77646725109105" cy="201.3680964223578" r="2.308681617868431" fill="#CFAE58" opacity="0.11733265590345246"/>
  <circle cx="441.52655325425246" cy="484.40285722506405" r="5.964606000775124" fill="#CFAE58" opacity="0.10889050743600899"/>
  <circle cx="749.0798130811003" cy="93.26341098213521" r="2.9549167290496037" fill="#CFAE58" opacity="0.15277591815102756"/>
  <circle cx="942.6960010529962" cy="606.7551052364125" r="5.007422923923276" fill="#CFAE58" opacity="0.18743163895060339"/>
  <circle cx="154.8218900081464" cy="73.52926944535568" r="4.536959466947648" fill="#CFAE58" opacity="0.22454049739945314"/>

  <!-- Border with glow -->
  <rect x="40" y="40" width="1120" height="550" fill="none" stroke="url(#goldGradient)" stroke-width="3" rx="12" filter="url(#softGlow)"/>

  <!-- Icon circle with premium background -->
  <circle cx="150" cy="200" r="75" fill="#CFAE58" opacity="0.15" filter="url(#softGlow)"/>
  <circle cx="150" cy="200" r="70" fill="#CFAE58" opacity="0.25"/>
  <text x="150" y="235" font-size="90" text-anchor="middle" fill="#CFAE58" filter="url(#glow)">📸</text>

  <!-- Premium logo (crown) with enhanced styling -->
  <g transform="translate(100, 70)">
    <path d="M 30 20 L 40 35 L 35 35 Z M 50 15 L 60 35 L 45 35 Z M 65 20 L 75 35 L 70 35 Z M 30 35 L 75 35 L 73 45 L 32 45 Z"
          fill="url(#goldGradient)" filter="url(#glow)" stroke="#B89842" stroke-width="0.5"/>
    <circle cx="40" cy="25" r="3" fill="#4FD1C5" filter="url(#glow)"/>
    <circle cx="52" cy="20" r="4" fill="#4FD1C5" filter="url(#glow)"/>
    <circle cx="65" cy="25" r="3" fill="#4FD1C5" filter="url(#glow)"/>
  </g>

  <!-- Title with shadow -->
  <text x="280" y="180" font-family="Georgia, serif" font-size="72" font-weight="bold"
        fill="url(#goldGradient)" filter="url(#shadow)">Photo Gallery</text>

  <!-- Subtitle with subtle glow -->
  <text x="280" y="230" font-family="Arial, sans-serif" font-size="36"
        fill="#D6DEE6" opacity="0.95" filter="url(#softGlow)">Science, Family Tours &amp; Caviar Production</text>

  <!-- Brand name with letter spacing -->
  <text x="280" y="300" font-family="Georgia, serif" font-size="32" font-weight="bold"
        fill="#CFAE58" letter-spacing="4" filter="url(#glow)">ROYAL KETA</text>

  <!-- Russian tagline -->
  <text x="280" y="340" font-family="Arial, sans-serif" font-size="22" font-style="italic"
        fill="#8B95A1" opacity="0.8">От икринки к королевской</text>

  <!-- Location -->
  <text x="280" y="380" font-family="Arial, sans-serif" font-size="20"
        fill="#8B95A1" opacity="0.7">Невельский район, Сахалин</text>

  <!-- Website with glow -->
  <text x="100" y="570" font-family="Arial, sans-serif" font-size="30" font-weight="bold"
        fill="#4FD1C5" filter="url(#glow)">royalketa.com</text>

  <!-- Enhanced decorative salmon silhouette -->
  <g transform="translate(950, 480)" opacity="0.2" filter="url(#softGlow)">
    <ellipse cx="0" cy="0" rx="90" ry="35" fill="#CFAE58"/>
    <path d="M 90 0 L 120 -18 L 130 0 L 120 18 Z" fill="#CFAE58"/>
    <path d="M -25 -35 L 0 -45 L 25 -35 Z" fill="#CFAE58"/>
    <ellipse cx="-50" cy="0" rx="15" ry="12" fill="#0B0F14"/>
  </g>

  <!-- Additional decorative caviar clusters -->
  <g opacity="0.2">
    <circle cx="1050" cy="120" r="6" fill="#CFAE58"/>
    <circle cx="1065" cy="115" r="5" fill="#CFAE58"/>
    <circle cx="1058" cy="130" r="4" fill="#CFAE58"/>
    <circle cx="150" cy="500" r="5" fill="#4FD1C5"/>
    <circle cx="165" cy="508" r="4" fill="#4FD1C5"/>
    <circle cx="140" cy="512" r="5" fill="#4FD1C5"/>
  </g>
</svg>