<svg width="1200" height="630" xmlns="http://www.w3.org/2000/svg">
  <defs>
    <linearGradient id="bgGradient" x1="0%" y1="0%" x2="100%" y2="100%">
      <stop offset="0%" style="stop-color:#0B0F14;stop-opacity:1" />
      <stop offset="50%" style="stop-color:#0F1619;stop-opacity:1" />
      <stop offset="100%" style="stop-color:#0F1922;stop-opacity:1" />
    </linearGradient>
    <linearGradient id="goldGradient" x1="0%" y1="0%" x2="100%" y2="0%">
      <stop offset="0%" style="stop-color:#E5D596;stop-opacity:1" />
      <stop offset="50%" style="stop-color:#CFAE58;stop-opacity:1" />
      <stop offset="100%" style="stop-color:#B89842;stop-opacity:1" />
    </linearGradient>
    <radialGradient id="oceanGradient" cx="50%" cy="50%" r="50%">
      <stop offset="0%" style="stop-color:#4FD1C5;stop-opacity:0.3" />
      <stop offset="100%" style="stop-color:#1E90A0;stop-opacity:0.05" />
    </radialGradient>
    <filter id="glow">
      <feGaussianBlur stdDeviation="5" result="coloredBlur"/>
      <feMerge>
        <feMergeNode in="coloredBlur"/>
        <feMergeNode in="SourceGraphic"/>
      </feMerge>
    </filter>
    <filter id="softGlow">
      <feGaussianBlur stdDeviation="8" result="coloredBlur"/>
      <feMerge>
        <feMergeNode in="coloredBlur"/>
        <feMergeNode in="SourceGraphic"/>
      </feMerge>
    </filter>
    <filter id="shadow">
      <feDropShadow dx="0" dy="4" stdDeviation="8" flood-color="#000000" flood-opacity="0.5"/>
    </filter>
  </defs>

  <!-- Background -->
  <rect width="1200" height="630" fill="url(#bgGradient)"/>

  <!-- Decorative ocean gradients -->
  <ellipse cx="1000" cy="150" rx="300" ry="200" fill="url(#oceanGradient)" opacity="0.4"/>
  <ellipse cx="200" cy="530" rx="250" ry="180" fill="url(#oceanGradient)" opacity="0.3"/>

  <!-- Wave patterns -->
  <path d="M 0 400 Q 300 350 600 400 T 1200 400 L 1200 630 L 0 630 Z" fill="#1E90A0" opacity="0.08"/>
  <path d="M 0 450 Q 250 420 500 450 T 1000 450 T 1200 450 L 1200 630 L 0 630 Z" fill="#4FD1C5" opacity="0.05"/>

  <!-- Caviar roe particles -->
  <circle cx="1125.2878618437844" cy="292.0337597712359" r="5.139581826137111" fill="#CFAE58" opacity="0.22324504415086482"/>
  <circle cx="363.34252463529" cy="333.61249920515996" r="2.482467571183807" fill="#CFAE58" opacity="0.24517288981256793"/>
  <circle cx="1089.0366562296308" cy="565.4862303830241" r="4.09658505713344" fill="#CFAE58" opacity="0.18232786539498802"/>
  <circle cx="574.1581593596154" cy="565.986340853423" r="2.18174055988243" fill="#CFAE58" opacity="0.21083685742609842"/>
  <circle cx="1131.5942689089388" cy="440.50225459415276" r="5.26831558855695" fill="#CFAE58" opacity="0.1301883932439896"/>
  <circle cx="101.65228342186072" cy="329.14435536488605" r="2.7527707223626905" fill="#CFAE58" opacity="0.1944097533376758"/>
  <circle cx="121.77594209201881" cy="21.026993264189272" r="2.022458583336598" fill="#CFAE58" opacity="0.18211097459600942"/>
  <circle cx="1063.9408258930368" cy="214.13267163692063" r="2.27509719949049" fill="#CFAE58" opacity="0.24337298922419892"/>
  <circle cx="1155.7401290040782" cy="613.6838207993134" r="3.3203279288729473" fill="#CFAE58" opacity="0.2001102690830042"/>
  <circle cx="966.156605043078" cy="55.10549212943212" r="3.8123048162522055" fill="#CFAE58" opacity="0.21587753819923078"/>
  <circle cx="375.6817672969784" cy="28.336050486957706" r="4.031095434648096" fill="#CFAE58" opacity="0.1293779263529198"/>
  <circle cx="575.9921244781143" cy="1.8171105866702641" r="5.296693162300684" fill="#CFAE58" opacity="0.24252023334748918"/>
  <circle cx="488.81682689889226" cy="419.60998570756715" r="4.73149081334979" fill="#CFAE58" opacity="0.19849591266551186"/>
  <circle cx="825.4937716726513" cy="203.07332794833061" r="5.133332807736478" fill="#CFAE58" opacity="0.18944830912930535"/>
  <circle cx="59.49934792470395" cy="594.9683195628769" r="3.7255638001768228" fill="#CFAE58" opacity="0.20063169366255693"/>
  <circle cx="52.25741506860171" cy="154.26841370300752" r="3.9822598907004756" fill="#CFAE58" opacity="0.20689439704486545"/>
  <circle cx="151.44981052029772" cy="98.29245538688616" r="5.623389661969515" fill="#CFAE58" opacity="0.12440289699175927"/>
  <circle cx="41.64759291457503" cy="264.7920303637937" r="2.561284185559948" fill="#CFAE58" opacity="0.2353157940219171"/>
  <circle cx="403.81973864098455" cy="459.80260785060096" r="4.5614062829169475" fill="#CFAE58" opacity="0.1663181437244684"/>
  <circle cx="1112.0018362879873" cy="542.1269462592641" r="2.7460957145142486" fill="#CFAE58" opacity="0.18278681925164642"/>
  <circle cx="665.0197770433122" cy="152.74276660256635" r="4.156746971942531" fill="#CFAE58" opacity="0.16674583744777782"/>
  <circle cx="433.61859137809245" cy="73.72059340791246" r="3.6682763913459486" fill="#CFAE58" opacity="0.162331124207689"/>
  <circle cx="759.093422442965" cy="20.390210386381533" r="3.9394687816498983" fill="#CFAE58" opacity="0.2299630522013622"/>
  <circle cx="458.699333787141" cy="136.04637062322092" r="4.721283422280639" fill="#CFAE58" opacity="0.22327383088485558"/>
  <circle cx="1193.691517559487" cy="545.9709362244299" r="2.188385098148478" fill="#CFAE58" opacity="0.14237823366622676"/>
  <circle cx="244.4112452545683" cy="6.763259412069466" r="2.0761104566442214" fill="#CFAE58" opacity="0.1285719850077567"/>
  <circle cx="650.9270303436562" cy="554.4260841315902" r="5.452103956547015" fill="#CFAE58" opacity="0.19660071610494473"/>
  <circle cx="707.9714204534044" cy="524.263719099113" r="3.767407035666203" fill="#CFAE58" opacity="0.12729674353140225"/>
  <circle cx="322.8086624321736" cy="66.9489788192439" r="3.753473847762776" fill="#CFAE58" opacity="0.17179792645736677"/>
  <circle cx="53.366948192591664" cy="114.80815464576818" r="3.381928201225795" fill="#CFAE58" opacity="0.2027929040877075"/>

  <!-- Border with glow -->
  <rect x="40" y="40" width="1120" height="550" fill="none" stroke="url(#goldGradient)" stroke-width="3" rx="12" filter="url(#softGlow)"/>

  <!-- Icon circle with premium background -->
  <circle cx="150" cy="200" r="75" fill="#CFAE58" opacity="0.15" filter="url(#softGlow)"/>
  <circle cx="150" cy="200" r="70" fill="#CFAE58" opacity="0.25"/>
  <text x="150" y="235" font-size="90" text-anchor="middle" fill="#CFAE58" filter="url(#glow)">📸</text>

  <!-- Premium logo (crown) with enhanced styling -->
  <g transform="translate(100, 70)">
    <path d="M 30 20 L 40 35 L 35 35 Z M 50 15 L 60 35 L 45 35 Z M 65 20 L 75 35 L 70 35 Z M 30 35 L 75 35 L 73 45 L 32 45 Z"
          fill="url(#goldGradient)" filter="url(#glow)" stroke="#B89842" stroke-width="0.5"/>
    <circle cx="40" cy="25" r="3" fill="#4FD1C5" filter="url(#glow)"/>
    <circle cx="52" cy="20" r="4" fill="#4FD1C5" filter="url(#glow)"/>
    <circle cx="65" cy="25" r="3" fill="#4FD1C5" filter="url(#glow)"/>
  </g>

  <!-- Title with shadow -->
  <text x="280" y="180" font-family="Georgia, serif" font-size="72" font-weight="bold"
        fill="url(#goldGradient)" filter="url(#shadow)">Photo Gallery</text>

  <!-- Subtitle with subtle glow -->
  <text x="280" y="230" font-family="Arial, sans-serif" font-size="36"
        fill="#D6DEE6" opacity="0.95" filter="url(#softGlow)">Science, Family Tours &amp; Caviar Production</text>

  <!-- Brand name with letter spacing -->
  <text x="280" y="300" font-family="Georgia, serif" font-size="32" font-weight="bold"
        fill="#CFAE58" letter-spacing="4" filter="url(#glow)">ROYAL KETA</text>

  <!-- Russian tagline -->
  <text x="280" y="340" font-family="Arial, sans-serif" font-size="22" font-style="italic"
        fill="#8B95A1" opacity="0.8">От икринки к королевской</text>

  <!-- Location -->
  <text x="280" y="380" font-family="Arial, sans-serif" font-size="20"
        fill="#8B95A1" opacity="0.7">Невельский район, Сахалин</text>

  <!-- Website with glow -->
  <text x="100" y="570" font-family="Arial, sans-serif" font-size="30" font-weight="bold"
        fill="#4FD1C5" filter="url(#glow)">royalketa.com</text>

  <!-- Enhanced decorative salmon silhouette -->
  <g transform="translate(950, 480)" opacity="0.2" filter="url(#softGlow)">
    <ellipse cx="0" cy="0" rx="90" ry="35" fill="#CFAE58"/>
    <path d="M 90 0 L 120 -18 L 130 0 L 120 18 Z" fill="#CFAE58"/>
    <path d="M -25 -35 L 0 -45 L 25 -35 Z" fill="#CFAE58"/>
    <ellipse cx="-50" cy="0" rx="15" ry="12" fill="#0B0F14"/>
  </g>

  <!-- Additional decorative caviar clusters -->
  <g opacity="0.2">
    <circle cx="1050" cy="120" r="6" fill="#CFAE58"/>
    <circle cx="1065" cy="115" r="5" fill="#CFAE58"/>
    <circle cx="1058" cy="130" r="4" fill="#CFAE58"/>
    <circle cx="150" cy="500" r="5" fill="#4FD1C5"/>
    <circle cx="165" cy="508" r="4" fill="#4FD1C5"/>
    <circle cx="140" cy="512" r="5" fill="#4FD1C5"/>
  </g>
</svg>