<svg width="1200" height="630" xmlns="http://www.w3.org/2000/svg">
  <defs>
    <linearGradient id="bgGradient" x1="0%" y1="0%" x2="100%" y2="100%">
      <stop offset="0%" style="stop-color:#0B0F14;stop-opacity:1" />
      <stop offset="50%" style="stop-color:#0F1619;stop-opacity:1" />
      <stop offset="100%" style="stop-color:#0F1922;stop-opacity:1" />
    </linearGradient>
    <linearGradient id="goldGradient" x1="0%" y1="0%" x2="100%" y2="0%">
      <stop offset="0%" style="stop-color:#E5D596;stop-opacity:1" />
      <stop offset="50%" style="stop-color:#CFAE58;stop-opacity:1" />
      <stop offset="100%" style="stop-color:#B89842;stop-opacity:1" />
    </linearGradient>
    <radialGradient id="oceanGradient" cx="50%" cy="50%" r="50%">
      <stop offset="0%" style="stop-color:#4FD1C5;stop-opacity:0.3" />
      <stop offset="100%" style="stop-color:#1E90A0;stop-opacity:0.05" />
    </radialGradient>
    <filter id="glow">
      <feGaussianBlur stdDeviation="5" result="coloredBlur"/>
      <feMerge>
        <feMergeNode in="coloredBlur"/>
        <feMergeNode in="SourceGraphic"/>
      </feMerge>
    </filter>
    <filter id="softGlow">
      <feGaussianBlur stdDeviation="8" result="coloredBlur"/>
      <feMerge>
        <feMergeNode in="coloredBlur"/>
        <feMergeNode in="SourceGraphic"/>
      </feMerge>
    </filter>
    <filter id="shadow">
      <feDropShadow dx="0" dy="4" stdDeviation="8" flood-color="#000000" flood-opacity="0.5"/>
    </filter>
  </defs>

  <!-- Background -->
  <rect width="1200" height="630" fill="url(#bgGradient)"/>

  <!-- Decorative ocean gradients -->
  <ellipse cx="1000" cy="150" rx="300" ry="200" fill="url(#oceanGradient)" opacity="0.4"/>
  <ellipse cx="200" cy="530" rx="250" ry="180" fill="url(#oceanGradient)" opacity="0.3"/>

  <!-- Wave patterns -->
  <path d="M 0 400 Q 300 350 600 400 T 1200 400 L 1200 630 L 0 630 Z" fill="#1E90A0" opacity="0.08"/>
  <path d="M 0 450 Q 250 420 500 450 T 1000 450 T 1200 450 L 1200 630 L 0 630 Z" fill="#4FD1C5" opacity="0.05"/>

  <!-- Caviar roe particles -->
  <circle cx="152.36279338626045" cy="75.2788476858349" r="5.814818282044366" fill="#CFAE58" opacity="0.1409404996379523"/>
  <circle cx="162.63764982132614" cy="201.84427993863284" r="2.8508974439747456" fill="#CFAE58" opacity="0.24164392802401974"/>
  <circle cx="1026.3683959314867" cy="456.9176854470074" r="4.753753102174449" fill="#CFAE58" opacity="0.12370629547304134"/>
  <circle cx="682.9557951414231" cy="45.32086402076119" r="2.026315932100819" fill="#CFAE58" opacity="0.14609544929811843"/>
  <circle cx="561.2112839196272" cy="464.50176703553115" r="3.3149192913089083" fill="#CFAE58" opacity="0.13031584363046475"/>
  <circle cx="1162.338289857596" cy="85.93491167592666" r="4.243607689709644" fill="#CFAE58" opacity="0.16322996215328844"/>
  <circle cx="1180.5464921443654" cy="104.3136737981815" r="2.688418860937997" fill="#CFAE58" opacity="0.1178189890474096"/>
  <circle cx="608.000808110645" cy="492.7073808152903" r="2.6630556060500785" fill="#CFAE58" opacity="0.15655113180540525"/>
  <circle cx="438.5120045641415" cy="209.23927378958427" r="3.4841939629378658" fill="#CFAE58" opacity="0.12180836527341773"/>
  <circle cx="917.8195551215344" cy="19.809986127012586" r="4.91736051713814" fill="#CFAE58" opacity="0.1807926457848782"/>
  <circle cx="570.307058279123" cy="332.9223409721258" r="5.424151967796643" fill="#CFAE58" opacity="0.2459672566584422"/>
  <circle cx="230.05558132280157" cy="364.7420867662702" r="2.2802713900877976" fill="#CFAE58" opacity="0.10917906536150229"/>
  <circle cx="1036.5630288078096" cy="589.5728409735555" r="5.7852228897512274" fill="#CFAE58" opacity="0.15735663447001239"/>
  <circle cx="436.93797210983536" cy="572.1364883599234" r="5.450593191408315" fill="#CFAE58" opacity="0.18961309802398063"/>
  <circle cx="146.70316977447646" cy="114.29814414355289" r="2.712812000221354" fill="#CFAE58" opacity="0.1468269937683591"/>
  <circle cx="323.9855509668338" cy="365.71873067089166" r="5.348533644922543" fill="#CFAE58" opacity="0.10366515400176818"/>
  <circle cx="559.8705274036017" cy="159.51815161092432" r="4.147875664459365" fill="#CFAE58" opacity="0.12022630426573452"/>
  <circle cx="748.0077559376001" cy="545.2128908353712" r="3.6563435347736615" fill="#CFAE58" opacity="0.14620605660500066"/>
  <circle cx="358.1419099532272" cy="56.111228501349174" r="5.819919911810329" fill="#CFAE58" opacity="0.24862082817574577"/>
  <circle cx="61.57565395871289" cy="192.33867874961865" r="4.349635521725227" fill="#CFAE58" opacity="0.18159802540029918"/>
  <circle cx="277.0714973414437" cy="531.491108540463" r="4.795281108518181" fill="#CFAE58" opacity="0.1297202946371916"/>
  <circle cx="414.6693483936829" cy="596.344726749067" r="2.307697164983348" fill="#CFAE58" opacity="0.16520175738101023"/>
  <circle cx="305.84195728604675" cy="278.9463322295737" r="3.3710310009222475" fill="#CFAE58" opacity="0.21023023613576314"/>
  <circle cx="738.0162426838376" cy="284.02681855815376" r="5.428999523510674" fill="#CFAE58" opacity="0.24398851452662484"/>
  <circle cx="1138.3320607621174" cy="253.68725148811063" r="2.9955070810090323" fill="#CFAE58" opacity="0.1765111539198967"/>
  <circle cx="448.16120419182164" cy="176.88976660723156" r="4.597540732971641" fill="#CFAE58" opacity="0.2160935727872272"/>
  <circle cx="223.4898535686929" cy="448.31880871778037" r="3.704099633838016" fill="#CFAE58" opacity="0.1902803704991218"/>
  <circle cx="777.3668751871046" cy="408.77709968280277" r="3.7491747965091378" fill="#CFAE58" opacity="0.1541193887850193"/>
  <circle cx="1164.554328400052" cy="462.9314302851943" r="5.130514406067352" fill="#CFAE58" opacity="0.15107941874872297"/>
  <circle cx="72.73157590021651" cy="206.2166974571074" r="3.0243034917058713" fill="#CFAE58" opacity="0.1619971957669846"/>

  <!-- Border with glow -->
  <rect x="40" y="40" width="1120" height="550" fill="none" stroke="url(#goldGradient)" stroke-width="3" rx="12" filter="url(#softGlow)"/>

  <!-- Icon circle with premium background -->
  <circle cx="150" cy="200" r="75" fill="#CFAE58" opacity="0.15" filter="url(#softGlow)"/>
  <circle cx="150" cy="200" r="70" fill="#CFAE58" opacity="0.25"/>
  <text x="150" y="235" font-size="90" text-anchor="middle" fill="#CFAE58" filter="url(#glow)">📸</text>

  <!-- Premium logo (crown) with enhanced styling -->
  <g transform="translate(100, 70)">
    <path d="M 30 20 L 40 35 L 35 35 Z M 50 15 L 60 35 L 45 35 Z M 65 20 L 75 35 L 70 35 Z M 30 35 L 75 35 L 73 45 L 32 45 Z"
          fill="url(#goldGradient)" filter="url(#glow)" stroke="#B89842" stroke-width="0.5"/>
    <circle cx="40" cy="25" r="3" fill="#4FD1C5" filter="url(#glow)"/>
    <circle cx="52" cy="20" r="4" fill="#4FD1C5" filter="url(#glow)"/>
    <circle cx="65" cy="25" r="3" fill="#4FD1C5" filter="url(#glow)"/>
  </g>

  <!-- Title with shadow -->
  <text x="280" y="180" font-family="Georgia, serif" font-size="72" font-weight="bold"
        fill="url(#goldGradient)" filter="url(#shadow)">Photo Gallery</text>

  <!-- Subtitle with subtle glow -->
  <text x="280" y="230" font-family="Arial, sans-serif" font-size="36"
        fill="#D6DEE6" opacity="0.95" filter="url(#softGlow)">Science, Family Tours &amp; Caviar Production</text>

  <!-- Brand name with letter spacing -->
  <text x="280" y="300" font-family="Georgia, serif" font-size="32" font-weight="bold"
        fill="#CFAE58" letter-spacing="4" filter="url(#glow)">ROYAL KETA</text>

  <!-- Russian tagline -->
  <text x="280" y="340" font-family="Arial, sans-serif" font-size="22" font-style="italic"
        fill="#8B95A1" opacity="0.8">От икринки к королевской</text>

  <!-- Location -->
  <text x="280" y="380" font-family="Arial, sans-serif" font-size="20"
        fill="#8B95A1" opacity="0.7">Невельский район, Сахалин</text>

  <!-- Website with glow -->
  <text x="100" y="570" font-family="Arial, sans-serif" font-size="30" font-weight="bold"
        fill="#4FD1C5" filter="url(#glow)">royalketa.com</text>

  <!-- Enhanced decorative salmon silhouette -->
  <g transform="translate(950, 480)" opacity="0.2" filter="url(#softGlow)">
    <ellipse cx="0" cy="0" rx="90" ry="35" fill="#CFAE58"/>
    <path d="M 90 0 L 120 -18 L 130 0 L 120 18 Z" fill="#CFAE58"/>
    <path d="M -25 -35 L 0 -45 L 25 -35 Z" fill="#CFAE58"/>
    <ellipse cx="-50" cy="0" rx="15" ry="12" fill="#0B0F14"/>
  </g>

  <!-- Additional decorative caviar clusters -->
  <g opacity="0.2">
    <circle cx="1050" cy="120" r="6" fill="#CFAE58"/>
    <circle cx="1065" cy="115" r="5" fill="#CFAE58"/>
    <circle cx="1058" cy="130" r="4" fill="#CFAE58"/>
    <circle cx="150" cy="500" r="5" fill="#4FD1C5"/>
    <circle cx="165" cy="508" r="4" fill="#4FD1C5"/>
    <circle cx="140" cy="512" r="5" fill="#4FD1C5"/>
  </g>
</svg>