<svg width="1200" height="630" xmlns="http://www.w3.org/2000/svg">
  <defs>
    <linearGradient id="bgGradient" x1="0%" y1="0%" x2="100%" y2="100%">
      <stop offset="0%" style="stop-color:#0B0F14;stop-opacity:1" />
      <stop offset="50%" style="stop-color:#0F1619;stop-opacity:1" />
      <stop offset="100%" style="stop-color:#0F1922;stop-opacity:1" />
    </linearGradient>
    <linearGradient id="goldGradient" x1="0%" y1="0%" x2="100%" y2="0%">
      <stop offset="0%" style="stop-color:#E5D596;stop-opacity:1" />
      <stop offset="50%" style="stop-color:#CFAE58;stop-opacity:1" />
      <stop offset="100%" style="stop-color:#B89842;stop-opacity:1" />
    </linearGradient>
    <radialGradient id="oceanGradient" cx="50%" cy="50%" r="50%">
      <stop offset="0%" style="stop-color:#4FD1C5;stop-opacity:0.3" />
      <stop offset="100%" style="stop-color:#1E90A0;stop-opacity:0.05" />
    </radialGradient>
    <filter id="glow">
      <feGaussianBlur stdDeviation="5" result="coloredBlur"/>
      <feMerge>
        <feMergeNode in="coloredBlur"/>
        <feMergeNode in="SourceGraphic"/>
      </feMerge>
    </filter>
    <filter id="softGlow">
      <feGaussianBlur stdDeviation="8" result="coloredBlur"/>
      <feMerge>
        <feMergeNode in="coloredBlur"/>
        <feMergeNode in="SourceGraphic"/>
      </feMerge>
    </filter>
    <filter id="shadow">
      <feDropShadow dx="0" dy="4" stdDeviation="8" flood-color="#000000" flood-opacity="0.5"/>
    </filter>
  </defs>

  <!-- Background -->
  <rect width="1200" height="630" fill="url(#bgGradient)"/>

  <!-- Decorative ocean gradients -->
  <ellipse cx="1000" cy="150" rx="300" ry="200" fill="url(#oceanGradient)" opacity="0.4"/>
  <ellipse cx="200" cy="530" rx="250" ry="180" fill="url(#oceanGradient)" opacity="0.3"/>

  <!-- Wave patterns -->
  <path d="M 0 400 Q 300 350 600 400 T 1200 400 L 1200 630 L 0 630 Z" fill="#1E90A0" opacity="0.08"/>
  <path d="M 0 450 Q 250 420 500 450 T 1000 450 T 1200 450 L 1200 630 L 0 630 Z" fill="#4FD1C5" opacity="0.05"/>

  <!-- Caviar roe particles -->
  <circle cx="799.6125281840119" cy="87.42310036513864" r="2.2464482911615242" fill="#CFAE58" opacity="0.22323729382355476"/>
  <circle cx="99.61106078960364" cy="174.55987452291618" r="3.056914359410582" fill="#CFAE58" opacity="0.10644068231681864"/>
  <circle cx="1182.6095162387728" cy="3.261746174394633" r="2.0354638087739527" fill="#CFAE58" opacity="0.10773667195820327"/>
  <circle cx="596.3996084168177" cy="253.81377602879485" r="3.6636011346724393" fill="#CFAE58" opacity="0.24278739683239953"/>
  <circle cx="794.7418482584876" cy="185.19914543734768" r="5.801605257257366" fill="#CFAE58" opacity="0.10382139225506669"/>
  <circle cx="32.32812165057064" cy="141.40538936657956" r="2.3099523415300505" fill="#CFAE58" opacity="0.125194829727579"/>
  <circle cx="642.02895567017" cy="118.54711528238472" r="5.659069215782964" fill="#CFAE58" opacity="0.1388816880319036"/>
  <circle cx="775.3847195525136" cy="231.4352745815782" r="2.074639796569647" fill="#CFAE58" opacity="0.2144307184166978"/>
  <circle cx="448.2869044982752" cy="536.671549639294" r="4.594207830194451" fill="#CFAE58" opacity="0.23078604287917734"/>
  <circle cx="845.8914473318503" cy="53.88163586373411" r="2.4145282415414853" fill="#CFAE58" opacity="0.12598406322491565"/>
  <circle cx="75.73873789986658" cy="268.3223450773692" r="5.680301946894397" fill="#CFAE58" opacity="0.18016262750395268"/>
  <circle cx="815.6819060124902" cy="236.33834054063993" r="2.772837637897508" fill="#CFAE58" opacity="0.2133429925931035"/>
  <circle cx="339.5225601687252" cy="461.0685364850634" r="3.050913185746701" fill="#CFAE58" opacity="0.1424360815752413"/>
  <circle cx="52.403497703234336" cy="269.11548536633927" r="3.196248134542235" fill="#CFAE58" opacity="0.21369840902281168"/>
  <circle cx="850.0248576483278" cy="111.24976532048852" r="4.36053469673203" fill="#CFAE58" opacity="0.14769990299681973"/>
  <circle cx="1186.9438979613496" cy="404.6553921885277" r="5.073416050366741" fill="#CFAE58" opacity="0.24043813157698224"/>
  <circle cx="720.5115362968081" cy="5.979944062573017" r="2.417810681092231" fill="#CFAE58" opacity="0.17581593871919737"/>
  <circle cx="1156.5236702811017" cy="124.26452176282932" r="3.7255390484965405" fill="#CFAE58" opacity="0.14250668431199204"/>
  <circle cx="753.2650744558146" cy="102.42065865595772" r="4.71782071303853" fill="#CFAE58" opacity="0.20493991166318293"/>
  <circle cx="633.1260111033226" cy="327.6219696974397" r="4.373746674241609" fill="#CFAE58" opacity="0.23842270963133133"/>
  <circle cx="892.4862059018085" cy="105.12069912130573" r="2.943385438431343" fill="#CFAE58" opacity="0.21609431772665108"/>
  <circle cx="606.1798783454469" cy="535.8841324498859" r="4.610184668777046" fill="#CFAE58" opacity="0.23584270354615033"/>
  <circle cx="25.786152495920156" cy="560.8807616593307" r="3.4534605656267825" fill="#CFAE58" opacity="0.23239607879156948"/>
  <circle cx="1147.4942611018982" cy="396.7326477895391" r="3.2207789939942897" fill="#CFAE58" opacity="0.23467806057124976"/>
  <circle cx="879.3597312878468" cy="258.6976595234386" r="5.641512028007281" fill="#CFAE58" opacity="0.16293281173298196"/>
  <circle cx="309.49856067245236" cy="49.12849476279316" r="5.82964212616799" fill="#CFAE58" opacity="0.22924176267023527"/>
  <circle cx="506.25533175059945" cy="216.94070609633928" r="2.063246339874161" fill="#CFAE58" opacity="0.20939181865649104"/>
  <circle cx="1016.9938659070743" cy="74.26780774399667" r="2.671416245639435" fill="#CFAE58" opacity="0.10246999605232054"/>
  <circle cx="1131.260758417233" cy="454.7955872004967" r="4.562920059291289" fill="#CFAE58" opacity="0.21946471048275734"/>
  <circle cx="605.8988474210003" cy="444.95143844406675" r="4.764448891166289" fill="#CFAE58" opacity="0.12017774253398752"/>

  <!-- Border with glow -->
  <rect x="40" y="40" width="1120" height="550" fill="none" stroke="url(#goldGradient)" stroke-width="3" rx="12" filter="url(#softGlow)"/>

  <!-- Icon circle with premium background -->
  <circle cx="150" cy="200" r="75" fill="#CFAE58" opacity="0.15" filter="url(#softGlow)"/>
  <circle cx="150" cy="200" r="70" fill="#CFAE58" opacity="0.25"/>
  <text x="150" y="235" font-size="90" text-anchor="middle" fill="#CFAE58" filter="url(#glow)">📸</text>

  <!-- Premium logo (crown) with enhanced styling -->
  <g transform="translate(100, 70)">
    <path d="M 30 20 L 40 35 L 35 35 Z M 50 15 L 60 35 L 45 35 Z M 65 20 L 75 35 L 70 35 Z M 30 35 L 75 35 L 73 45 L 32 45 Z"
          fill="url(#goldGradient)" filter="url(#glow)" stroke="#B89842" stroke-width="0.5"/>
    <circle cx="40" cy="25" r="3" fill="#4FD1C5" filter="url(#glow)"/>
    <circle cx="52" cy="20" r="4" fill="#4FD1C5" filter="url(#glow)"/>
    <circle cx="65" cy="25" r="3" fill="#4FD1C5" filter="url(#glow)"/>
  </g>

  <!-- Title with shadow -->
  <text x="280" y="180" font-family="Georgia, serif" font-size="72" font-weight="bold"
        fill="url(#goldGradient)" filter="url(#shadow)">Photo Gallery</text>

  <!-- Subtitle with subtle glow -->
  <text x="280" y="230" font-family="Arial, sans-serif" font-size="36"
        fill="#D6DEE6" opacity="0.95" filter="url(#softGlow)">Science, Family Tours &amp; Caviar Production</text>

  <!-- Brand name with letter spacing -->
  <text x="280" y="300" font-family="Georgia, serif" font-size="32" font-weight="bold"
        fill="#CFAE58" letter-spacing="4" filter="url(#glow)">ROYAL KETA</text>

  <!-- Russian tagline -->
  <text x="280" y="340" font-family="Arial, sans-serif" font-size="22" font-style="italic"
        fill="#8B95A1" opacity="0.8">От икринки к королевской</text>

  <!-- Location -->
  <text x="280" y="380" font-family="Arial, sans-serif" font-size="20"
        fill="#8B95A1" opacity="0.7">Невельский район, Сахалин</text>

  <!-- Website with glow -->
  <text x="100" y="570" font-family="Arial, sans-serif" font-size="30" font-weight="bold"
        fill="#4FD1C5" filter="url(#glow)">royalketa.com</text>

  <!-- Enhanced decorative salmon silhouette -->
  <g transform="translate(950, 480)" opacity="0.2" filter="url(#softGlow)">
    <ellipse cx="0" cy="0" rx="90" ry="35" fill="#CFAE58"/>
    <path d="M 90 0 L 120 -18 L 130 0 L 120 18 Z" fill="#CFAE58"/>
    <path d="M -25 -35 L 0 -45 L 25 -35 Z" fill="#CFAE58"/>
    <ellipse cx="-50" cy="0" rx="15" ry="12" fill="#0B0F14"/>
  </g>

  <!-- Additional decorative caviar clusters -->
  <g opacity="0.2">
    <circle cx="1050" cy="120" r="6" fill="#CFAE58"/>
    <circle cx="1065" cy="115" r="5" fill="#CFAE58"/>
    <circle cx="1058" cy="130" r="4" fill="#CFAE58"/>
    <circle cx="150" cy="500" r="5" fill="#4FD1C5"/>
    <circle cx="165" cy="508" r="4" fill="#4FD1C5"/>
    <circle cx="140" cy="512" r="5" fill="#4FD1C5"/>
  </g>
</svg>