<svg width="1200" height="630" xmlns="http://www.w3.org/2000/svg">
  <defs>
    <linearGradient id="bgGradient" x1="0%" y1="0%" x2="100%" y2="100%">
      <stop offset="0%" style="stop-color:#0B0F14;stop-opacity:1" />
      <stop offset="50%" style="stop-color:#0F1619;stop-opacity:1" />
      <stop offset="100%" style="stop-color:#0F1922;stop-opacity:1" />
    </linearGradient>
    <linearGradient id="goldGradient" x1="0%" y1="0%" x2="100%" y2="0%">
      <stop offset="0%" style="stop-color:#E5D596;stop-opacity:1" />
      <stop offset="50%" style="stop-color:#CFAE58;stop-opacity:1" />
      <stop offset="100%" style="stop-color:#B89842;stop-opacity:1" />
    </linearGradient>
    <radialGradient id="oceanGradient" cx="50%" cy="50%" r="50%">
      <stop offset="0%" style="stop-color:#4FD1C5;stop-opacity:0.3" />
      <stop offset="100%" style="stop-color:#1E90A0;stop-opacity:0.05" />
    </radialGradient>
    <filter id="glow">
      <feGaussianBlur stdDeviation="5" result="coloredBlur"/>
      <feMerge>
        <feMergeNode in="coloredBlur"/>
        <feMergeNode in="SourceGraphic"/>
      </feMerge>
    </filter>
    <filter id="softGlow">
      <feGaussianBlur stdDeviation="8" result="coloredBlur"/>
      <feMerge>
        <feMergeNode in="coloredBlur"/>
        <feMergeNode in="SourceGraphic"/>
      </feMerge>
    </filter>
    <filter id="shadow">
      <feDropShadow dx="0" dy="4" stdDeviation="8" flood-color="#000000" flood-opacity="0.5"/>
    </filter>
  </defs>

  <!-- Background -->
  <rect width="1200" height="630" fill="url(#bgGradient)"/>

  <!-- Decorative ocean gradients -->
  <ellipse cx="1000" cy="150" rx="300" ry="200" fill="url(#oceanGradient)" opacity="0.4"/>
  <ellipse cx="200" cy="530" rx="250" ry="180" fill="url(#oceanGradient)" opacity="0.3"/>

  <!-- Wave patterns -->
  <path d="M 0 400 Q 300 350 600 400 T 1200 400 L 1200 630 L 0 630 Z" fill="#1E90A0" opacity="0.08"/>
  <path d="M 0 450 Q 250 420 500 450 T 1000 450 T 1200 450 L 1200 630 L 0 630 Z" fill="#4FD1C5" opacity="0.05"/>

  <!-- Caviar roe particles -->
  <circle cx="341.7810666001837" cy="449.68552083129686" r="4.738293798780005" fill="#CFAE58" opacity="0.14381650075589592"/>
  <circle cx="966.8239361283142" cy="42.741860003855855" r="2.463862304930542" fill="#CFAE58" opacity="0.19047161796510464"/>
  <circle cx="437.7884179406936" cy="163.46598009645652" r="3.187608873532086" fill="#CFAE58" opacity="0.1238455739946667"/>
  <circle cx="241.4703856342846" cy="140.04761674659724" r="3.3810555097311963" fill="#CFAE58" opacity="0.17431215855858528"/>
  <circle cx="533.9819442601035" cy="400.48668706691086" r="2.507783865859425" fill="#CFAE58" opacity="0.15745815416798986"/>
  <circle cx="532.1408562133289" cy="433.5248902686289" r="5.007413390714301" fill="#CFAE58" opacity="0.15482156597115487"/>
  <circle cx="818.8760090314373" cy="100.97705805364731" r="4.5523706169617615" fill="#CFAE58" opacity="0.23203167470853234"/>
  <circle cx="1077.932260919274" cy="53.576915599466034" r="2.3873672056561936" fill="#CFAE58" opacity="0.2016233496630358"/>
  <circle cx="464.83881542072623" cy="296.7732846630146" r="3.8850681243450755" fill="#CFAE58" opacity="0.19593869398065733"/>
  <circle cx="1195.1282713150968" cy="94.22387155261536" r="4.7353908860574165" fill="#CFAE58" opacity="0.24856227260240663"/>
  <circle cx="1021.1645427678011" cy="577.8909406900029" r="3.977238322618566" fill="#CFAE58" opacity="0.1718194353480885"/>
  <circle cx="756.9701165321428" cy="379.44416783101576" r="3.824852614845521" fill="#CFAE58" opacity="0.19123946055703017"/>
  <circle cx="53.82912980054591" cy="446.72820946961207" r="2.7715523533815882" fill="#CFAE58" opacity="0.24726665911971804"/>
  <circle cx="825.3780093744256" cy="486.1641480225901" r="4.297907781853577" fill="#CFAE58" opacity="0.14091524020447496"/>
  <circle cx="478.02488690418875" cy="355.3617872642701" r="2.880310441915455" fill="#CFAE58" opacity="0.13536162816970718"/>
  <circle cx="338.12231506293637" cy="450.79051503037033" r="4.08116983294736" fill="#CFAE58" opacity="0.1993470658245905"/>
  <circle cx="1049.3396688649084" cy="224.86059198782397" r="5.97715734327463" fill="#CFAE58" opacity="0.16251350897827155"/>
  <circle cx="1043.330568075157" cy="438.8792307253272" r="5.8900597471792935" fill="#CFAE58" opacity="0.17788344274479806"/>
  <circle cx="1131.3775851879213" cy="346.0999003614383" r="2.819832461940582" fill="#CFAE58" opacity="0.20862326038006634"/>
  <circle cx="633.9706477587994" cy="101.79230649673086" r="3.3986635056815238" fill="#CFAE58" opacity="0.1732780764216432"/>
  <circle cx="83.39198228431796" cy="405.54285196448" r="3.4582104241970484" fill="#CFAE58" opacity="0.14221084762208416"/>
  <circle cx="293.54384007311023" cy="113.15561235033344" r="2.4042029580603326" fill="#CFAE58" opacity="0.12228098638402035"/>
  <circle cx="916.0390358604062" cy="246.61431888775977" r="5.135112494173301" fill="#CFAE58" opacity="0.19794706784152294"/>
  <circle cx="786.1326859655097" cy="219.72694290620075" r="4.801712657697886" fill="#CFAE58" opacity="0.15837108261858157"/>
  <circle cx="226.970369029785" cy="592.437931518562" r="5.9833751883775985" fill="#CFAE58" opacity="0.1018261024710713"/>
  <circle cx="566.7481212517678" cy="187.21121043864198" r="5.085667583168768" fill="#CFAE58" opacity="0.1275344608058471"/>
  <circle cx="343.83310836223126" cy="68.99573258899976" r="2.218707726685968" fill="#CFAE58" opacity="0.12035307050384977"/>
  <circle cx="839.1030707884931" cy="474.65634825734867" r="4.34214873244939" fill="#CFAE58" opacity="0.23339610183650944"/>
  <circle cx="696.4376286805856" cy="555.5639697980033" r="3.94361688422232" fill="#CFAE58" opacity="0.18766705451277788"/>
  <circle cx="220.6148782278205" cy="364.38766774329486" r="5.507896593773147" fill="#CFAE58" opacity="0.15315823877444157"/>

  <!-- Border with glow -->
  <rect x="40" y="40" width="1120" height="550" fill="none" stroke="url(#goldGradient)" stroke-width="3" rx="12" filter="url(#softGlow)"/>

  <!-- Icon circle with premium background -->
  <circle cx="150" cy="200" r="75" fill="#CFAE58" opacity="0.15" filter="url(#softGlow)"/>
  <circle cx="150" cy="200" r="70" fill="#CFAE58" opacity="0.25"/>
  <text x="150" y="235" font-size="90" text-anchor="middle" fill="#CFAE58" filter="url(#glow)">📸</text>

  <!-- Premium logo (crown) with enhanced styling -->
  <g transform="translate(100, 70)">
    <path d="M 30 20 L 40 35 L 35 35 Z M 50 15 L 60 35 L 45 35 Z M 65 20 L 75 35 L 70 35 Z M 30 35 L 75 35 L 73 45 L 32 45 Z"
          fill="url(#goldGradient)" filter="url(#glow)" stroke="#B89842" stroke-width="0.5"/>
    <circle cx="40" cy="25" r="3" fill="#4FD1C5" filter="url(#glow)"/>
    <circle cx="52" cy="20" r="4" fill="#4FD1C5" filter="url(#glow)"/>
    <circle cx="65" cy="25" r="3" fill="#4FD1C5" filter="url(#glow)"/>
  </g>

  <!-- Title with shadow -->
  <text x="280" y="180" font-family="Georgia, serif" font-size="72" font-weight="bold"
        fill="url(#goldGradient)" filter="url(#shadow)">Photo Gallery</text>

  <!-- Subtitle with subtle glow -->
  <text x="280" y="230" font-family="Arial, sans-serif" font-size="36"
        fill="#D6DEE6" opacity="0.95" filter="url(#softGlow)">Science, Family Tours &amp; Caviar Production</text>

  <!-- Brand name with letter spacing -->
  <text x="280" y="300" font-family="Georgia, serif" font-size="32" font-weight="bold"
        fill="#CFAE58" letter-spacing="4" filter="url(#glow)">ROYAL KETA</text>

  <!-- Russian tagline -->
  <text x="280" y="340" font-family="Arial, sans-serif" font-size="22" font-style="italic"
        fill="#8B95A1" opacity="0.8">От икринки к королевской</text>

  <!-- Location -->
  <text x="280" y="380" font-family="Arial, sans-serif" font-size="20"
        fill="#8B95A1" opacity="0.7">Невельский район, Сахалин</text>

  <!-- Website with glow -->
  <text x="100" y="570" font-family="Arial, sans-serif" font-size="30" font-weight="bold"
        fill="#4FD1C5" filter="url(#glow)">royalketa.com</text>

  <!-- Enhanced decorative salmon silhouette -->
  <g transform="translate(950, 480)" opacity="0.2" filter="url(#softGlow)">
    <ellipse cx="0" cy="0" rx="90" ry="35" fill="#CFAE58"/>
    <path d="M 90 0 L 120 -18 L 130 0 L 120 18 Z" fill="#CFAE58"/>
    <path d="M -25 -35 L 0 -45 L 25 -35 Z" fill="#CFAE58"/>
    <ellipse cx="-50" cy="0" rx="15" ry="12" fill="#0B0F14"/>
  </g>

  <!-- Additional decorative caviar clusters -->
  <g opacity="0.2">
    <circle cx="1050" cy="120" r="6" fill="#CFAE58"/>
    <circle cx="1065" cy="115" r="5" fill="#CFAE58"/>
    <circle cx="1058" cy="130" r="4" fill="#CFAE58"/>
    <circle cx="150" cy="500" r="5" fill="#4FD1C5"/>
    <circle cx="165" cy="508" r="4" fill="#4FD1C5"/>
    <circle cx="140" cy="512" r="5" fill="#4FD1C5"/>
  </g>
</svg>