<svg width="1200" height="630" xmlns="http://www.w3.org/2000/svg">
  <defs>
    <linearGradient id="bgGradient" x1="0%" y1="0%" x2="100%" y2="100%">
      <stop offset="0%" style="stop-color:#0B0F14;stop-opacity:1" />
      <stop offset="50%" style="stop-color:#0F1619;stop-opacity:1" />
      <stop offset="100%" style="stop-color:#0F1922;stop-opacity:1" />
    </linearGradient>
    <linearGradient id="goldGradient" x1="0%" y1="0%" x2="100%" y2="0%">
      <stop offset="0%" style="stop-color:#E5D596;stop-opacity:1" />
      <stop offset="50%" style="stop-color:#CFAE58;stop-opacity:1" />
      <stop offset="100%" style="stop-color:#B89842;stop-opacity:1" />
    </linearGradient>
    <radialGradient id="oceanGradient" cx="50%" cy="50%" r="50%">
      <stop offset="0%" style="stop-color:#4FD1C5;stop-opacity:0.3" />
      <stop offset="100%" style="stop-color:#1E90A0;stop-opacity:0.05" />
    </radialGradient>
    <filter id="glow">
      <feGaussianBlur stdDeviation="5" result="coloredBlur"/>
      <feMerge>
        <feMergeNode in="coloredBlur"/>
        <feMergeNode in="SourceGraphic"/>
      </feMerge>
    </filter>
    <filter id="softGlow">
      <feGaussianBlur stdDeviation="8" result="coloredBlur"/>
      <feMerge>
        <feMergeNode in="coloredBlur"/>
        <feMergeNode in="SourceGraphic"/>
      </feMerge>
    </filter>
    <filter id="shadow">
      <feDropShadow dx="0" dy="4" stdDeviation="8" flood-color="#000000" flood-opacity="0.5"/>
    </filter>
  </defs>

  <!-- Background -->
  <rect width="1200" height="630" fill="url(#bgGradient)"/>

  <!-- Decorative ocean gradients -->
  <ellipse cx="1000" cy="150" rx="300" ry="200" fill="url(#oceanGradient)" opacity="0.4"/>
  <ellipse cx="200" cy="530" rx="250" ry="180" fill="url(#oceanGradient)" opacity="0.3"/>

  <!-- Wave patterns -->
  <path d="M 0 400 Q 300 350 600 400 T 1200 400 L 1200 630 L 0 630 Z" fill="#1E90A0" opacity="0.08"/>
  <path d="M 0 450 Q 250 420 500 450 T 1000 450 T 1200 450 L 1200 630 L 0 630 Z" fill="#4FD1C5" opacity="0.05"/>

  <!-- Caviar roe particles -->
  <circle cx="269.4274914573998" cy="602.5500036880492" r="4.705153645042163" fill="#CFAE58" opacity="0.22475597055685892"/>
  <circle cx="945.5711873906387" cy="119.61533459174825" r="2.3583035167379895" fill="#CFAE58" opacity="0.16061705209028668"/>
  <circle cx="219.33179460999543" cy="495.9010238141868" r="3.488185272480318" fill="#CFAE58" opacity="0.19892083842549574"/>
  <circle cx="327.65460426626606" cy="504.71607554917824" r="3.4717773622894796" fill="#CFAE58" opacity="0.18749626920030493"/>
  <circle cx="457.8784943355689" cy="175.85787437159422" r="2.983060405018917" fill="#CFAE58" opacity="0.1969157730907911"/>
  <circle cx="692.517189790008" cy="466.10541866907823" r="4.789891057355972" fill="#CFAE58" opacity="0.15236112485064268"/>
  <circle cx="477.7562936189677" cy="305.42100300307925" r="3.2337357234636617" fill="#CFAE58" opacity="0.22307390949441114"/>
  <circle cx="1003.1010082007216" cy="235.02556534951836" r="4.2070255414709266" fill="#CFAE58" opacity="0.16670086333138184"/>
  <circle cx="476.75651537031223" cy="528.0519210986934" r="2.0768803205305195" fill="#CFAE58" opacity="0.19813193304087579"/>
  <circle cx="363.29840611730094" cy="313.3822749073358" r="4.088477953328916" fill="#CFAE58" opacity="0.1294855377175429"/>
  <circle cx="30.491737358332838" cy="272.4662426053541" r="5.911694322590362" fill="#CFAE58" opacity="0.11281953759431734"/>
  <circle cx="1166.7819630247761" cy="484.5912603208102" r="3.4835426266241862" fill="#CFAE58" opacity="0.20820832494987704"/>
  <circle cx="878.8988633807709" cy="250.82331914420848" r="3.7276266515647833" fill="#CFAE58" opacity="0.1669423128433994"/>
  <circle cx="219.29772332332266" cy="16.726485737413675" r="2.1811228461228485" fill="#CFAE58" opacity="0.2436231726959459"/>
  <circle cx="0.70010887200187" cy="390.71804614199476" r="2.9329994420161727" fill="#CFAE58" opacity="0.17120061272031867"/>
  <circle cx="377.6594742972902" cy="14.117809523652529" r="5.370760684069066" fill="#CFAE58" opacity="0.1518228985230232"/>
  <circle cx="210.9135586078363" cy="160.68778900167285" r="5.374556411622523" fill="#CFAE58" opacity="0.10003681042966692"/>
  <circle cx="10.848260142711297" cy="604.7591662758603" r="2.7802251689241757" fill="#CFAE58" opacity="0.1726040854854118"/>
  <circle cx="771.7141531344525" cy="141.89465381742772" r="4.629921535682369" fill="#CFAE58" opacity="0.12739359283957374"/>
  <circle cx="161.58809340042603" cy="29.549049351529078" r="5.730746151396373" fill="#CFAE58" opacity="0.22740918814946764"/>
  <circle cx="73.39900291537225" cy="4.888217384955684" r="3.368766475099342" fill="#CFAE58" opacity="0.21166602808248303"/>
  <circle cx="1035.4671779591254" cy="567.4296065643846" r="3.3660843020240554" fill="#CFAE58" opacity="0.14490820746998176"/>
  <circle cx="839.4669999585587" cy="204.76344878337386" r="2.308420635060199" fill="#CFAE58" opacity="0.1877335339690404"/>
  <circle cx="993.6421874827012" cy="290.51087723656076" r="5.9867774747658755" fill="#CFAE58" opacity="0.23877705451678183"/>
  <circle cx="481.33642076426196" cy="436.07832263158076" r="2.7896656488724343" fill="#CFAE58" opacity="0.23173679211855783"/>
  <circle cx="556.7656006342984" cy="303.82281115497454" r="2.7238259983766415" fill="#CFAE58" opacity="0.16396936569661036"/>
  <circle cx="110.45870758644485" cy="360.5554248741576" r="5.574651900367515" fill="#CFAE58" opacity="0.15436267553667699"/>
  <circle cx="946.8467395716718" cy="504.8540540743711" r="4.015491254905015" fill="#CFAE58" opacity="0.15417751197349927"/>
  <circle cx="265.6402432134657" cy="523.2577138346434" r="5.8902583512454125" fill="#CFAE58" opacity="0.13146932306176717"/>
  <circle cx="1027.2547370262935" cy="293.1985781501416" r="4.246060437980908" fill="#CFAE58" opacity="0.24309295504426665"/>

  <!-- Border with glow -->
  <rect x="40" y="40" width="1120" height="550" fill="none" stroke="url(#goldGradient)" stroke-width="3" rx="12" filter="url(#softGlow)"/>

  <!-- Icon circle with premium background -->
  <circle cx="150" cy="200" r="75" fill="#CFAE58" opacity="0.15" filter="url(#softGlow)"/>
  <circle cx="150" cy="200" r="70" fill="#CFAE58" opacity="0.25"/>
  <text x="150" y="235" font-size="90" text-anchor="middle" fill="#CFAE58" filter="url(#glow)">📸</text>

  <!-- Premium logo (crown) with enhanced styling -->
  <g transform="translate(100, 70)">
    <path d="M 30 20 L 40 35 L 35 35 Z M 50 15 L 60 35 L 45 35 Z M 65 20 L 75 35 L 70 35 Z M 30 35 L 75 35 L 73 45 L 32 45 Z"
          fill="url(#goldGradient)" filter="url(#glow)" stroke="#B89842" stroke-width="0.5"/>
    <circle cx="40" cy="25" r="3" fill="#4FD1C5" filter="url(#glow)"/>
    <circle cx="52" cy="20" r="4" fill="#4FD1C5" filter="url(#glow)"/>
    <circle cx="65" cy="25" r="3" fill="#4FD1C5" filter="url(#glow)"/>
  </g>

  <!-- Title with shadow -->
  <text x="280" y="180" font-family="Georgia, serif" font-size="72" font-weight="bold"
        fill="url(#goldGradient)" filter="url(#shadow)">Photo Gallery</text>

  <!-- Subtitle with subtle glow -->
  <text x="280" y="230" font-family="Arial, sans-serif" font-size="36"
        fill="#D6DEE6" opacity="0.95" filter="url(#softGlow)">Science, Family Tours & Caviar Production</text>

  <!-- Brand name with letter spacing -->
  <text x="280" y="300" font-family="Georgia, serif" font-size="32" font-weight="bold"
        fill="#CFAE58" letter-spacing="4" filter="url(#glow)">ROYAL KETA</text>

  <!-- Russian tagline -->
  <text x="280" y="340" font-family="Arial, sans-serif" font-size="22" font-style="italic"
        fill="#8B95A1" opacity="0.8">От икринки к королевской</text>

  <!-- Location -->
  <text x="280" y="380" font-family="Arial, sans-serif" font-size="20"
        fill="#8B95A1" opacity="0.7">Невельский район, Сахалин</text>

  <!-- Website with glow -->
  <text x="100" y="570" font-family="Arial, sans-serif" font-size="30" font-weight="bold"
        fill="#4FD1C5" filter="url(#glow)">royalketa.com</text>

  <!-- Enhanced decorative salmon silhouette -->
  <g transform="translate(950, 480)" opacity="0.2" filter="url(#softGlow)">
    <ellipse cx="0" cy="0" rx="90" ry="35" fill="#CFAE58"/>
    <path d="M 90 0 L 120 -18 L 130 0 L 120 18 Z" fill="#CFAE58"/>
    <path d="M -25 -35 L 0 -45 L 25 -35 Z" fill="#CFAE58"/>
    <ellipse cx="-50" cy="0" rx="15" ry="12" fill="#0B0F14"/>
  </g>

  <!-- Additional decorative caviar clusters -->
  <g opacity="0.2">
    <circle cx="1050" cy="120" r="6" fill="#CFAE58"/>
    <circle cx="1065" cy="115" r="5" fill="#CFAE58"/>
    <circle cx="1058" cy="130" r="4" fill="#CFAE58"/>
    <circle cx="150" cy="500" r="5" fill="#4FD1C5"/>
    <circle cx="165" cy="508" r="4" fill="#4FD1C5"/>
    <circle cx="140" cy="512" r="5" fill="#4FD1C5"/>
  </g>
</svg>