<svg width="1200" height="630" xmlns="http://www.w3.org/2000/svg">
  <defs>
    <linearGradient id="bgGradient" x1="0%" y1="0%" x2="100%" y2="100%">
      <stop offset="0%" style="stop-color:#0B0F14;stop-opacity:1" />
      <stop offset="50%" style="stop-color:#0F1619;stop-opacity:1" />
      <stop offset="100%" style="stop-color:#0F1922;stop-opacity:1" />
    </linearGradient>
    <linearGradient id="goldGradient" x1="0%" y1="0%" x2="100%" y2="0%">
      <stop offset="0%" style="stop-color:#E5D596;stop-opacity:1" />
      <stop offset="50%" style="stop-color:#CFAE58;stop-opacity:1" />
      <stop offset="100%" style="stop-color:#B89842;stop-opacity:1" />
    </linearGradient>
    <radialGradient id="oceanGradient" cx="50%" cy="50%" r="50%">
      <stop offset="0%" style="stop-color:#4FD1C5;stop-opacity:0.3" />
      <stop offset="100%" style="stop-color:#1E90A0;stop-opacity:0.05" />
    </radialGradient>
    <filter id="glow">
      <feGaussianBlur stdDeviation="5" result="coloredBlur"/>
      <feMerge>
        <feMergeNode in="coloredBlur"/>
        <feMergeNode in="SourceGraphic"/>
      </feMerge>
    </filter>
    <filter id="softGlow">
      <feGaussianBlur stdDeviation="8" result="coloredBlur"/>
      <feMerge>
        <feMergeNode in="coloredBlur"/>
        <feMergeNode in="SourceGraphic"/>
      </feMerge>
    </filter>
    <filter id="shadow">
      <feDropShadow dx="0" dy="4" stdDeviation="8" flood-color="#000000" flood-opacity="0.5"/>
    </filter>
  </defs>

  <!-- Background -->
  <rect width="1200" height="630" fill="url(#bgGradient)"/>

  <!-- Decorative ocean gradients -->
  <ellipse cx="1000" cy="150" rx="300" ry="200" fill="url(#oceanGradient)" opacity="0.4"/>
  <ellipse cx="200" cy="530" rx="250" ry="180" fill="url(#oceanGradient)" opacity="0.3"/>

  <!-- Wave patterns -->
  <path d="M 0 400 Q 300 350 600 400 T 1200 400 L 1200 630 L 0 630 Z" fill="#1E90A0" opacity="0.08"/>
  <path d="M 0 450 Q 250 420 500 450 T 1000 450 T 1200 450 L 1200 630 L 0 630 Z" fill="#4FD1C5" opacity="0.05"/>

  <!-- Caviar roe particles -->
  <circle cx="286.8547142307433" cy="0.5381329303592974" r="3.0956365971004334" fill="#CFAE58" opacity="0.12200796108109863"/>
  <circle cx="175.48617515351012" cy="155.3630705948553" r="3.9233681584459275" fill="#CFAE58" opacity="0.13669053576806037"/>
  <circle cx="707.7379454813527" cy="482.9335566322824" r="2.1395961533542787" fill="#CFAE58" opacity="0.2481276247737466"/>
  <circle cx="683.3585354968379" cy="89.94252574142027" r="2.1326283164713553" fill="#CFAE58" opacity="0.21059109980488844"/>
  <circle cx="432.0404877416175" cy="45.503382421423645" r="5.510752526858774" fill="#CFAE58" opacity="0.23640197101246707"/>
  <circle cx="319.7499701557543" cy="255.91255063801452" r="2.5020380093087327" fill="#CFAE58" opacity="0.11281477785750782"/>
  <circle cx="1118.1997571793538" cy="605.102688806873" r="3.0804507104368954" fill="#CFAE58" opacity="0.11976923170541548"/>
  <circle cx="872.9690365278917" cy="232.15542993675706" r="4.656748917695453" fill="#CFAE58" opacity="0.22493518824249745"/>
  <circle cx="109.07312508311087" cy="490.1722935570618" r="4.0312496751216855" fill="#CFAE58" opacity="0.1874058931128377"/>
  <circle cx="1014.3439006339191" cy="597.7012278629577" r="5.179371301073284" fill="#CFAE58" opacity="0.19578770288807107"/>
  <circle cx="995.4186538370121" cy="564.7863257941553" r="2.2822585772637694" fill="#CFAE58" opacity="0.10080843504597602"/>
  <circle cx="1032.6312746274216" cy="60.21063991810441" r="5.207886236620656" fill="#CFAE58" opacity="0.135477702252719"/>
  <circle cx="1140.3413786723645" cy="250.9202204910884" r="4.6702443293090825" fill="#CFAE58" opacity="0.16116383649256222"/>
  <circle cx="1068.7381454581114" cy="568.3987139775933" r="5.070007684551445" fill="#CFAE58" opacity="0.10243923934030304"/>
  <circle cx="1022.225461696358" cy="38.6828991461553" r="5.293762697651177" fill="#CFAE58" opacity="0.17949454823070626"/>
  <circle cx="906.2979095762643" cy="276.4120083523712" r="2.618418974004071" fill="#CFAE58" opacity="0.1905813062555245"/>
  <circle cx="548.6347362598749" cy="113.7090678918791" r="4.25897826939263" fill="#CFAE58" opacity="0.217565270560659"/>
  <circle cx="886.6006700716179" cy="224.19346269037445" r="5.142171470715844" fill="#CFAE58" opacity="0.239858773119875"/>
  <circle cx="899.5466129721746" cy="233.09858074213145" r="4.3428194312119075" fill="#CFAE58" opacity="0.19323600523709655"/>
  <circle cx="19.99998912491816" cy="50.77970913743194" r="4.705327387449644" fill="#CFAE58" opacity="0.1243706863421604"/>
  <circle cx="175.62927702454613" cy="60.497176688401154" r="2.6945486395993536" fill="#CFAE58" opacity="0.1694901751234862"/>
  <circle cx="454.32146454096244" cy="108.28659938000168" r="2.7158624552838186" fill="#CFAE58" opacity="0.11214468628736095"/>
  <circle cx="1109.8226787500546" cy="568.4088295785818" r="3.8693683102635044" fill="#CFAE58" opacity="0.13272144169400935"/>
  <circle cx="657.9286762280399" cy="386.90605465422016" r="4.307476764181736" fill="#CFAE58" opacity="0.16116485122809532"/>
  <circle cx="447.7669203375298" cy="314.62398621799514" r="2.8675480333263796" fill="#CFAE58" opacity="0.17989295274153652"/>
  <circle cx="795.9989670933876" cy="611.5609817626153" r="3.647636041299889" fill="#CFAE58" opacity="0.1140109930724643"/>
  <circle cx="853.4828829755523" cy="167.69123860521856" r="2.4818467737733423" fill="#CFAE58" opacity="0.216160028204526"/>
  <circle cx="243.33657045029415" cy="521.568782792632" r="4.245955198339502" fill="#CFAE58" opacity="0.23383414243425082"/>
  <circle cx="1072.014221214636" cy="195.41849805559497" r="3.352115626122313" fill="#CFAE58" opacity="0.2018201178970993"/>
  <circle cx="67.24705085802856" cy="454.4923111130405" r="5.950842041849004" fill="#CFAE58" opacity="0.2206780827723503"/>

  <!-- Border with glow -->
  <rect x="40" y="40" width="1120" height="550" fill="none" stroke="url(#goldGradient)" stroke-width="3" rx="12" filter="url(#softGlow)"/>

  <!-- Icon circle with premium background -->
  <circle cx="150" cy="200" r="75" fill="#CFAE58" opacity="0.15" filter="url(#softGlow)"/>
  <circle cx="150" cy="200" r="70" fill="#CFAE58" opacity="0.25"/>
  <text x="150" y="235" font-size="90" text-anchor="middle" fill="#CFAE58" filter="url(#glow)">📸</text>

  <!-- Premium logo (crown) with enhanced styling -->
  <g transform="translate(100, 70)">
    <path d="M 30 20 L 40 35 L 35 35 Z M 50 15 L 60 35 L 45 35 Z M 65 20 L 75 35 L 70 35 Z M 30 35 L 75 35 L 73 45 L 32 45 Z"
          fill="url(#goldGradient)" filter="url(#glow)" stroke="#B89842" stroke-width="0.5"/>
    <circle cx="40" cy="25" r="3" fill="#4FD1C5" filter="url(#glow)"/>
    <circle cx="52" cy="20" r="4" fill="#4FD1C5" filter="url(#glow)"/>
    <circle cx="65" cy="25" r="3" fill="#4FD1C5" filter="url(#glow)"/>
  </g>

  <!-- Title with shadow -->
  <text x="280" y="180" font-family="Georgia, serif" font-size="72" font-weight="bold"
        fill="url(#goldGradient)" filter="url(#shadow)">Photo Gallery</text>

  <!-- Subtitle with subtle glow -->
  <text x="280" y="230" font-family="Arial, sans-serif" font-size="36"
        fill="#D6DEE6" opacity="0.95" filter="url(#softGlow)">Science, Family Tours &amp; Caviar Production</text>

  <!-- Brand name with letter spacing -->
  <text x="280" y="300" font-family="Georgia, serif" font-size="32" font-weight="bold"
        fill="#CFAE58" letter-spacing="4" filter="url(#glow)">ROYAL KETA</text>

  <!-- Russian tagline -->
  <text x="280" y="340" font-family="Arial, sans-serif" font-size="22" font-style="italic"
        fill="#8B95A1" opacity="0.8">От икринки к королевской</text>

  <!-- Location -->
  <text x="280" y="380" font-family="Arial, sans-serif" font-size="20"
        fill="#8B95A1" opacity="0.7">Невельский район, Сахалин</text>

  <!-- Website with glow -->
  <text x="100" y="570" font-family="Arial, sans-serif" font-size="30" font-weight="bold"
        fill="#4FD1C5" filter="url(#glow)">royalketa.com</text>

  <!-- Enhanced decorative salmon silhouette -->
  <g transform="translate(950, 480)" opacity="0.2" filter="url(#softGlow)">
    <ellipse cx="0" cy="0" rx="90" ry="35" fill="#CFAE58"/>
    <path d="M 90 0 L 120 -18 L 130 0 L 120 18 Z" fill="#CFAE58"/>
    <path d="M -25 -35 L 0 -45 L 25 -35 Z" fill="#CFAE58"/>
    <ellipse cx="-50" cy="0" rx="15" ry="12" fill="#0B0F14"/>
  </g>

  <!-- Additional decorative caviar clusters -->
  <g opacity="0.2">
    <circle cx="1050" cy="120" r="6" fill="#CFAE58"/>
    <circle cx="1065" cy="115" r="5" fill="#CFAE58"/>
    <circle cx="1058" cy="130" r="4" fill="#CFAE58"/>
    <circle cx="150" cy="500" r="5" fill="#4FD1C5"/>
    <circle cx="165" cy="508" r="4" fill="#4FD1C5"/>
    <circle cx="140" cy="512" r="5" fill="#4FD1C5"/>
  </g>
</svg>