<svg width="1200" height="630" xmlns="http://www.w3.org/2000/svg">
  <defs>
    <linearGradient id="bgGradient" x1="0%" y1="0%" x2="100%" y2="100%">
      <stop offset="0%" style="stop-color:#0B0F14;stop-opacity:1" />
      <stop offset="50%" style="stop-color:#0F1619;stop-opacity:1" />
      <stop offset="100%" style="stop-color:#0F1922;stop-opacity:1" />
    </linearGradient>
    <linearGradient id="goldGradient" x1="0%" y1="0%" x2="100%" y2="0%">
      <stop offset="0%" style="stop-color:#E5D596;stop-opacity:1" />
      <stop offset="50%" style="stop-color:#CFAE58;stop-opacity:1" />
      <stop offset="100%" style="stop-color:#B89842;stop-opacity:1" />
    </linearGradient>
    <radialGradient id="oceanGradient" cx="50%" cy="50%" r="50%">
      <stop offset="0%" style="stop-color:#4FD1C5;stop-opacity:0.3" />
      <stop offset="100%" style="stop-color:#1E90A0;stop-opacity:0.05" />
    </radialGradient>
    <filter id="glow">
      <feGaussianBlur stdDeviation="5" result="coloredBlur"/>
      <feMerge>
        <feMergeNode in="coloredBlur"/>
        <feMergeNode in="SourceGraphic"/>
      </feMerge>
    </filter>
    <filter id="softGlow">
      <feGaussianBlur stdDeviation="8" result="coloredBlur"/>
      <feMerge>
        <feMergeNode in="coloredBlur"/>
        <feMergeNode in="SourceGraphic"/>
      </feMerge>
    </filter>
    <filter id="shadow">
      <feDropShadow dx="0" dy="4" stdDeviation="8" flood-color="#000000" flood-opacity="0.5"/>
    </filter>
  </defs>

  <!-- Background -->
  <rect width="1200" height="630" fill="url(#bgGradient)"/>

  <!-- Decorative ocean gradients -->
  <ellipse cx="1000" cy="150" rx="300" ry="200" fill="url(#oceanGradient)" opacity="0.4"/>
  <ellipse cx="200" cy="530" rx="250" ry="180" fill="url(#oceanGradient)" opacity="0.3"/>

  <!-- Wave patterns -->
  <path d="M 0 400 Q 300 350 600 400 T 1200 400 L 1200 630 L 0 630 Z" fill="#1E90A0" opacity="0.08"/>
  <path d="M 0 450 Q 250 420 500 450 T 1000 450 T 1200 450 L 1200 630 L 0 630 Z" fill="#4FD1C5" opacity="0.05"/>

  <!-- Caviar roe particles -->
  <circle cx="226.5751207983787" cy="68.43987187558012" r="4.732560883241009" fill="#CFAE58" opacity="0.17319177606384836"/>
  <circle cx="492.96537365664466" cy="7.949537818304848" r="2.0970384704804284" fill="#CFAE58" opacity="0.11580729707782883"/>
  <circle cx="1087.2443649402337" cy="497.076120414833" r="4.995938572478779" fill="#CFAE58" opacity="0.24817172661158576"/>
  <circle cx="491.7799717059831" cy="2.9805358986196886" r="5.533077500312814" fill="#CFAE58" opacity="0.1495836684275364"/>
  <circle cx="591.9839550470675" cy="508.9836455769293" r="4.257720531715005" fill="#CFAE58" opacity="0.20805116119586542"/>
  <circle cx="157.1096473775218" cy="519.3759696797293" r="3.5663078254299547" fill="#CFAE58" opacity="0.1362208642220095"/>
  <circle cx="1193.0638295126091" cy="433.99178423234736" r="4.720048846287544" fill="#CFAE58" opacity="0.10068008522964655"/>
  <circle cx="13.603975170069749" cy="487.19050619646237" r="4.722723203475701" fill="#CFAE58" opacity="0.22233179329156966"/>
  <circle cx="560.1106222614483" cy="563.8789968396948" r="5.447229532081995" fill="#CFAE58" opacity="0.14228127796109796"/>
  <circle cx="522.5446677611934" cy="77.1862456716528" r="2.8664628403542767" fill="#CFAE58" opacity="0.14458946093365432"/>
  <circle cx="675.1788024194428" cy="108.99298566553463" r="5.178812248997842" fill="#CFAE58" opacity="0.11284193304493392"/>
  <circle cx="1023.7780122011396" cy="111.06849644572692" r="4.185536139831772" fill="#CFAE58" opacity="0.12779459722128206"/>
  <circle cx="1077.6692755561603" cy="480.7542972769223" r="3.435379261856014" fill="#CFAE58" opacity="0.21042847891403613"/>
  <circle cx="618.8230117730161" cy="404.2823296062438" r="3.381518110971428" fill="#CFAE58" opacity="0.2447163351000063"/>
  <circle cx="941.0798450257904" cy="416.43044412066325" r="3.7116646999424048" fill="#CFAE58" opacity="0.18256605176724391"/>
  <circle cx="934.4920848820749" cy="293.9733766990467" r="5.825776228614492" fill="#CFAE58" opacity="0.2163528013911185"/>
  <circle cx="941.1633937682116" cy="328.57988288670606" r="3.8448716315829206" fill="#CFAE58" opacity="0.2348052337903773"/>
  <circle cx="858.4229211137895" cy="52.6571581562524" r="4.994097288435223" fill="#CFAE58" opacity="0.10752990214189354"/>
  <circle cx="316.60422429268806" cy="241.58539913864172" r="4.005681816465204" fill="#CFAE58" opacity="0.1644393663546784"/>
  <circle cx="424.499518706119" cy="262.7120149871335" r="2.2464357605963294" fill="#CFAE58" opacity="0.13286877924916388"/>
  <circle cx="969.3722209348166" cy="326.12396971336864" r="5.784384594262274" fill="#CFAE58" opacity="0.10740097421869879"/>
  <circle cx="525.7070385127618" cy="175.3574355964591" r="3.1532351945769563" fill="#CFAE58" opacity="0.1486114864569324"/>
  <circle cx="145.59517142323926" cy="191.18761190271326" r="3.3416257042132793" fill="#CFAE58" opacity="0.11682079468241484"/>
  <circle cx="970.7483089524009" cy="167.89173759205755" r="5.053741113042383" fill="#CFAE58" opacity="0.17286558712865968"/>
  <circle cx="480.6335234861822" cy="380.03906808236684" r="4.20337745897325" fill="#CFAE58" opacity="0.21074536440964642"/>
  <circle cx="27.30978159410089" cy="139.93822039937533" r="3.4302899363072803" fill="#CFAE58" opacity="0.13374367990238992"/>
  <circle cx="517.4559186142407" cy="192.20006749616314" r="4.4946817156343135" fill="#CFAE58" opacity="0.2122625606712824"/>
  <circle cx="335.77242916470607" cy="185.64236895270827" r="2.7137351658017113" fill="#CFAE58" opacity="0.18487775256629352"/>
  <circle cx="598.7803117153081" cy="71.09704247588878" r="5.196892588918347" fill="#CFAE58" opacity="0.1327226442961981"/>
  <circle cx="1174.8867999181064" cy="14.974392721690403" r="2.398284863307993" fill="#CFAE58" opacity="0.18684185524681884"/>

  <!-- Border with glow -->
  <rect x="40" y="40" width="1120" height="550" fill="none" stroke="url(#goldGradient)" stroke-width="3" rx="12" filter="url(#softGlow)"/>

  <!-- Icon circle with premium background -->
  <circle cx="150" cy="200" r="75" fill="#CFAE58" opacity="0.15" filter="url(#softGlow)"/>
  <circle cx="150" cy="200" r="70" fill="#CFAE58" opacity="0.25"/>
  <text x="150" y="235" font-size="90" text-anchor="middle" fill="#CFAE58" filter="url(#glow)">📸</text>

  <!-- Premium logo (crown) with enhanced styling -->
  <g transform="translate(100, 70)">
    <path d="M 30 20 L 40 35 L 35 35 Z M 50 15 L 60 35 L 45 35 Z M 65 20 L 75 35 L 70 35 Z M 30 35 L 75 35 L 73 45 L 32 45 Z"
          fill="url(#goldGradient)" filter="url(#glow)" stroke="#B89842" stroke-width="0.5"/>
    <circle cx="40" cy="25" r="3" fill="#4FD1C5" filter="url(#glow)"/>
    <circle cx="52" cy="20" r="4" fill="#4FD1C5" filter="url(#glow)"/>
    <circle cx="65" cy="25" r="3" fill="#4FD1C5" filter="url(#glow)"/>
  </g>

  <!-- Title with shadow -->
  <text x="280" y="180" font-family="Georgia, serif" font-size="72" font-weight="bold"
        fill="url(#goldGradient)" filter="url(#shadow)">Photo Gallery</text>

  <!-- Subtitle with subtle glow -->
  <text x="280" y="230" font-family="Arial, sans-serif" font-size="36"
        fill="#D6DEE6" opacity="0.95" filter="url(#softGlow)">Science, Family Tours &amp; Caviar Production</text>

  <!-- Brand name with letter spacing -->
  <text x="280" y="300" font-family="Georgia, serif" font-size="32" font-weight="bold"
        fill="#CFAE58" letter-spacing="4" filter="url(#glow)">ROYAL KETA</text>

  <!-- Russian tagline -->
  <text x="280" y="340" font-family="Arial, sans-serif" font-size="22" font-style="italic"
        fill="#8B95A1" opacity="0.8">От икринки к королевской</text>

  <!-- Location -->
  <text x="280" y="380" font-family="Arial, sans-serif" font-size="20"
        fill="#8B95A1" opacity="0.7">Невельский район, Сахалин</text>

  <!-- Website with glow -->
  <text x="100" y="570" font-family="Arial, sans-serif" font-size="30" font-weight="bold"
        fill="#4FD1C5" filter="url(#glow)">royalketa.com</text>

  <!-- Enhanced decorative salmon silhouette -->
  <g transform="translate(950, 480)" opacity="0.2" filter="url(#softGlow)">
    <ellipse cx="0" cy="0" rx="90" ry="35" fill="#CFAE58"/>
    <path d="M 90 0 L 120 -18 L 130 0 L 120 18 Z" fill="#CFAE58"/>
    <path d="M -25 -35 L 0 -45 L 25 -35 Z" fill="#CFAE58"/>
    <ellipse cx="-50" cy="0" rx="15" ry="12" fill="#0B0F14"/>
  </g>

  <!-- Additional decorative caviar clusters -->
  <g opacity="0.2">
    <circle cx="1050" cy="120" r="6" fill="#CFAE58"/>
    <circle cx="1065" cy="115" r="5" fill="#CFAE58"/>
    <circle cx="1058" cy="130" r="4" fill="#CFAE58"/>
    <circle cx="150" cy="500" r="5" fill="#4FD1C5"/>
    <circle cx="165" cy="508" r="4" fill="#4FD1C5"/>
    <circle cx="140" cy="512" r="5" fill="#4FD1C5"/>
  </g>
</svg>