<svg width="1200" height="630" xmlns="http://www.w3.org/2000/svg">
  <defs>
    <linearGradient id="bgGradient" x1="0%" y1="0%" x2="100%" y2="100%">
      <stop offset="0%" style="stop-color:#0B0F14;stop-opacity:1" />
      <stop offset="50%" style="stop-color:#0F1619;stop-opacity:1" />
      <stop offset="100%" style="stop-color:#0F1922;stop-opacity:1" />
    </linearGradient>
    <linearGradient id="goldGradient" x1="0%" y1="0%" x2="100%" y2="0%">
      <stop offset="0%" style="stop-color:#E5D596;stop-opacity:1" />
      <stop offset="50%" style="stop-color:#CFAE58;stop-opacity:1" />
      <stop offset="100%" style="stop-color:#B89842;stop-opacity:1" />
    </linearGradient>
    <radialGradient id="oceanGradient" cx="50%" cy="50%" r="50%">
      <stop offset="0%" style="stop-color:#4FD1C5;stop-opacity:0.3" />
      <stop offset="100%" style="stop-color:#1E90A0;stop-opacity:0.05" />
    </radialGradient>
    <filter id="glow">
      <feGaussianBlur stdDeviation="5" result="coloredBlur"/>
      <feMerge>
        <feMergeNode in="coloredBlur"/>
        <feMergeNode in="SourceGraphic"/>
      </feMerge>
    </filter>
    <filter id="softGlow">
      <feGaussianBlur stdDeviation="8" result="coloredBlur"/>
      <feMerge>
        <feMergeNode in="coloredBlur"/>
        <feMergeNode in="SourceGraphic"/>
      </feMerge>
    </filter>
    <filter id="shadow">
      <feDropShadow dx="0" dy="4" stdDeviation="8" flood-color="#000000" flood-opacity="0.5"/>
    </filter>
  </defs>

  <!-- Background -->
  <rect width="1200" height="630" fill="url(#bgGradient)"/>

  <!-- Decorative ocean gradients -->
  <ellipse cx="1000" cy="150" rx="300" ry="200" fill="url(#oceanGradient)" opacity="0.4"/>
  <ellipse cx="200" cy="530" rx="250" ry="180" fill="url(#oceanGradient)" opacity="0.3"/>

  <!-- Wave patterns -->
  <path d="M 0 400 Q 300 350 600 400 T 1200 400 L 1200 630 L 0 630 Z" fill="#1E90A0" opacity="0.08"/>
  <path d="M 0 450 Q 250 420 500 450 T 1000 450 T 1200 450 L 1200 630 L 0 630 Z" fill="#4FD1C5" opacity="0.05"/>

  <!-- Caviar roe particles -->
  <circle cx="1116.7555589454516" cy="64.95420723532564" r="2.419647184217658" fill="#CFAE58" opacity="0.24702973922153867"/>
  <circle cx="1066.1773699949608" cy="423.17473281115707" r="2.7205335620853863" fill="#CFAE58" opacity="0.19623442528524793"/>
  <circle cx="819.0874304325802" cy="261.80283289260103" r="3.5038130970290156" fill="#CFAE58" opacity="0.10883383788017018"/>
  <circle cx="347.7165905762201" cy="604.7000401517469" r="3.182615258225019" fill="#CFAE58" opacity="0.146104257231696"/>
  <circle cx="797.0544839484696" cy="224.31839958088378" r="3.572144310350084" fill="#CFAE58" opacity="0.24607925016630514"/>
  <circle cx="628.9286769824764" cy="91.06823235136932" r="2.6356308674799047" fill="#CFAE58" opacity="0.23152957431741042"/>
  <circle cx="439.05209311879247" cy="238.77769273149804" r="5.578840661148645" fill="#CFAE58" opacity="0.22063199798082705"/>
  <circle cx="596.0160746061131" cy="283.7437923301213" r="3.3469883694773355" fill="#CFAE58" opacity="0.15949819541639887"/>
  <circle cx="532.2686088448687" cy="10.72567585270262" r="5.379758204526498" fill="#CFAE58" opacity="0.16363064687862106"/>
  <circle cx="71.08694091278296" cy="137.53277033448495" r="3.916395311116764" fill="#CFAE58" opacity="0.2049816070895262"/>
  <circle cx="1190.7334638015923" cy="140.3152282094419" r="5.619963706796036" fill="#CFAE58" opacity="0.1358160535480387"/>
  <circle cx="834.3162660173058" cy="610.596869865368" r="4.335386210292577" fill="#CFAE58" opacity="0.17779503904853095"/>
  <circle cx="136.95646031799126" cy="396.525330523925" r="3.2784461635547917" fill="#CFAE58" opacity="0.15814690430216438"/>
  <circle cx="484.98535170905274" cy="359.8440361310918" r="4.491857726509915" fill="#CFAE58" opacity="0.14950339225419973"/>
  <circle cx="483.3861056092116" cy="198.12347393209123" r="2.0759678841732048" fill="#CFAE58" opacity="0.20137172891026733"/>
  <circle cx="345.85345392085765" cy="133.77020456883116" r="5.1451576777705785" fill="#CFAE58" opacity="0.1999890566132214"/>
  <circle cx="867.2148020565402" cy="526.3839850304976" r="2.7433945005159606" fill="#CFAE58" opacity="0.11545721069624404"/>
  <circle cx="1158.3331720530416" cy="177.12724323721733" r="5.850358617563252" fill="#CFAE58" opacity="0.16687030967160082"/>
  <circle cx="75.73507971582183" cy="183.17560785137312" r="2.3429991299440425" fill="#CFAE58" opacity="0.23866630256233248"/>
  <circle cx="414.8933361369942" cy="15.304232624511993" r="3.1373787344222515" fill="#CFAE58" opacity="0.1225774480365"/>
  <circle cx="0.4881521754927398" cy="207.636678520083" r="2.27321494598904" fill="#CFAE58" opacity="0.13995803006043875"/>
  <circle cx="479.4870184908775" cy="615.6173828184263" r="4.074417160232654" fill="#CFAE58" opacity="0.2190615184957356"/>
  <circle cx="487.1710047817039" cy="451.6546627665645" r="2.532806371226388" fill="#CFAE58" opacity="0.11903343279121098"/>
  <circle cx="831.5920399734592" cy="425.94835969481716" r="5.037099775179078" fill="#CFAE58" opacity="0.1360339460575918"/>
  <circle cx="1147.93596925221" cy="296.7101974118557" r="4.109187622622393" fill="#CFAE58" opacity="0.11284547305013644"/>
  <circle cx="539.2337143982861" cy="292.54214762951665" r="2.766185858983462" fill="#CFAE58" opacity="0.15161294562880012"/>
  <circle cx="213.43792933512532" cy="73.30401978268834" r="2.258047164899501" fill="#CFAE58" opacity="0.2245160433785566"/>
  <circle cx="8.718648852285726" cy="513.9125899878819" r="2.6409563870025963" fill="#CFAE58" opacity="0.21474762368040612"/>
  <circle cx="1163.2161246351156" cy="52.53901658319678" r="2.2145051374426714" fill="#CFAE58" opacity="0.16571189300928202"/>
  <circle cx="699.3877757377794" cy="110.44919932263232" r="4.834662937974904" fill="#CFAE58" opacity="0.23038520713225585"/>

  <!-- Border with glow -->
  <rect x="40" y="40" width="1120" height="550" fill="none" stroke="url(#goldGradient)" stroke-width="3" rx="12" filter="url(#softGlow)"/>

  <!-- Icon circle with premium background -->
  <circle cx="150" cy="200" r="75" fill="#CFAE58" opacity="0.15" filter="url(#softGlow)"/>
  <circle cx="150" cy="200" r="70" fill="#CFAE58" opacity="0.25"/>
  <text x="150" y="235" font-size="90" text-anchor="middle" fill="#CFAE58" filter="url(#glow)">📸</text>

  <!-- Premium logo (crown) with enhanced styling -->
  <g transform="translate(100, 70)">
    <path d="M 30 20 L 40 35 L 35 35 Z M 50 15 L 60 35 L 45 35 Z M 65 20 L 75 35 L 70 35 Z M 30 35 L 75 35 L 73 45 L 32 45 Z"
          fill="url(#goldGradient)" filter="url(#glow)" stroke="#B89842" stroke-width="0.5"/>
    <circle cx="40" cy="25" r="3" fill="#4FD1C5" filter="url(#glow)"/>
    <circle cx="52" cy="20" r="4" fill="#4FD1C5" filter="url(#glow)"/>
    <circle cx="65" cy="25" r="3" fill="#4FD1C5" filter="url(#glow)"/>
  </g>

  <!-- Title with shadow -->
  <text x="280" y="180" font-family="Georgia, serif" font-size="72" font-weight="bold"
        fill="url(#goldGradient)" filter="url(#shadow)">Photo Gallery</text>

  <!-- Subtitle with subtle glow -->
  <text x="280" y="230" font-family="Arial, sans-serif" font-size="36"
        fill="#D6DEE6" opacity="0.95" filter="url(#softGlow)">Science, Family Tours &amp; Caviar Production</text>

  <!-- Brand name with letter spacing -->
  <text x="280" y="300" font-family="Georgia, serif" font-size="32" font-weight="bold"
        fill="#CFAE58" letter-spacing="4" filter="url(#glow)">ROYAL KETA</text>

  <!-- Russian tagline -->
  <text x="280" y="340" font-family="Arial, sans-serif" font-size="22" font-style="italic"
        fill="#8B95A1" opacity="0.8">От икринки к королевской</text>

  <!-- Location -->
  <text x="280" y="380" font-family="Arial, sans-serif" font-size="20"
        fill="#8B95A1" opacity="0.7">Невельский район, Сахалин</text>

  <!-- Website with glow -->
  <text x="100" y="570" font-family="Arial, sans-serif" font-size="30" font-weight="bold"
        fill="#4FD1C5" filter="url(#glow)">royalketa.com</text>

  <!-- Enhanced decorative salmon silhouette -->
  <g transform="translate(950, 480)" opacity="0.2" filter="url(#softGlow)">
    <ellipse cx="0" cy="0" rx="90" ry="35" fill="#CFAE58"/>
    <path d="M 90 0 L 120 -18 L 130 0 L 120 18 Z" fill="#CFAE58"/>
    <path d="M -25 -35 L 0 -45 L 25 -35 Z" fill="#CFAE58"/>
    <ellipse cx="-50" cy="0" rx="15" ry="12" fill="#0B0F14"/>
  </g>

  <!-- Additional decorative caviar clusters -->
  <g opacity="0.2">
    <circle cx="1050" cy="120" r="6" fill="#CFAE58"/>
    <circle cx="1065" cy="115" r="5" fill="#CFAE58"/>
    <circle cx="1058" cy="130" r="4" fill="#CFAE58"/>
    <circle cx="150" cy="500" r="5" fill="#4FD1C5"/>
    <circle cx="165" cy="508" r="4" fill="#4FD1C5"/>
    <circle cx="140" cy="512" r="5" fill="#4FD1C5"/>
  </g>
</svg>