<svg width="1200" height="630" xmlns="http://www.w3.org/2000/svg">
  <defs>
    <linearGradient id="bgGradient" x1="0%" y1="0%" x2="100%" y2="100%">
      <stop offset="0%" style="stop-color:#0B0F14;stop-opacity:1" />
      <stop offset="50%" style="stop-color:#0F1619;stop-opacity:1" />
      <stop offset="100%" style="stop-color:#0F1922;stop-opacity:1" />
    </linearGradient>
    <linearGradient id="goldGradient" x1="0%" y1="0%" x2="100%" y2="0%">
      <stop offset="0%" style="stop-color:#E5D596;stop-opacity:1" />
      <stop offset="50%" style="stop-color:#CFAE58;stop-opacity:1" />
      <stop offset="100%" style="stop-color:#B89842;stop-opacity:1" />
    </linearGradient>
    <radialGradient id="oceanGradient" cx="50%" cy="50%" r="50%">
      <stop offset="0%" style="stop-color:#4FD1C5;stop-opacity:0.3" />
      <stop offset="100%" style="stop-color:#1E90A0;stop-opacity:0.05" />
    </radialGradient>
    <filter id="glow">
      <feGaussianBlur stdDeviation="5" result="coloredBlur"/>
      <feMerge>
        <feMergeNode in="coloredBlur"/>
        <feMergeNode in="SourceGraphic"/>
      </feMerge>
    </filter>
    <filter id="softGlow">
      <feGaussianBlur stdDeviation="8" result="coloredBlur"/>
      <feMerge>
        <feMergeNode in="coloredBlur"/>
        <feMergeNode in="SourceGraphic"/>
      </feMerge>
    </filter>
    <filter id="shadow">
      <feDropShadow dx="0" dy="4" stdDeviation="8" flood-color="#000000" flood-opacity="0.5"/>
    </filter>
  </defs>

  <!-- Background -->
  <rect width="1200" height="630" fill="url(#bgGradient)"/>

  <!-- Decorative ocean gradients -->
  <ellipse cx="1000" cy="150" rx="300" ry="200" fill="url(#oceanGradient)" opacity="0.4"/>
  <ellipse cx="200" cy="530" rx="250" ry="180" fill="url(#oceanGradient)" opacity="0.3"/>

  <!-- Wave patterns -->
  <path d="M 0 400 Q 300 350 600 400 T 1200 400 L 1200 630 L 0 630 Z" fill="#1E90A0" opacity="0.08"/>
  <path d="M 0 450 Q 250 420 500 450 T 1000 450 T 1200 450 L 1200 630 L 0 630 Z" fill="#4FD1C5" opacity="0.05"/>

  <!-- Caviar roe particles -->
  <circle cx="600.7992314268239" cy="329.6547096587626" r="4.5797179355707796" fill="#CFAE58" opacity="0.17691315959754103"/>
  <circle cx="1094.806453495743" cy="23.730937795269025" r="4.446581119199484" fill="#CFAE58" opacity="0.12843906248849754"/>
  <circle cx="157.97260572163046" cy="627.8287251059611" r="2.0808715140581198" fill="#CFAE58" opacity="0.14856027947905814"/>
  <circle cx="896.967588694617" cy="522.0779790642334" r="5.653142218842651" fill="#CFAE58" opacity="0.12318344301129422"/>
  <circle cx="448.9768364912594" cy="530.9696223924524" r="4.588564957732276" fill="#CFAE58" opacity="0.21058874382876897"/>
  <circle cx="597.9518509640598" cy="526.5493078515655" r="2.531202576310788" fill="#CFAE58" opacity="0.13739544385050234"/>
  <circle cx="1030.5829200696342" cy="307.41468265630664" r="5.950093440707676" fill="#CFAE58" opacity="0.13443355077491168"/>
  <circle cx="968.9575244120377" cy="333.5490650449727" r="5.958849289239854" fill="#CFAE58" opacity="0.19331914598069105"/>
  <circle cx="934.1808766108677" cy="475.7351323827971" r="2.9802352053092473" fill="#CFAE58" opacity="0.17234428259127876"/>
  <circle cx="714.0403555465316" cy="555.0719340559583" r="3.186841104503487" fill="#CFAE58" opacity="0.21053571264708287"/>
  <circle cx="401.07330840429427" cy="526.3810908376051" r="2.3214509877731206" fill="#CFAE58" opacity="0.14897714687150637"/>
  <circle cx="762.9180761640752" cy="546.4314039427748" r="4.53615468481179" fill="#CFAE58" opacity="0.2305668348372009"/>
  <circle cx="822.3731271691448" cy="208.52916613800883" r="5.3963862109432155" fill="#CFAE58" opacity="0.19842473562533192"/>
  <circle cx="240.99874075663425" cy="534.6878864233985" r="3.5324824009504763" fill="#CFAE58" opacity="0.22834456640009682"/>
  <circle cx="1121.077623611785" cy="528.4255861170667" r="2.6316933967014364" fill="#CFAE58" opacity="0.19002323873348376"/>
  <circle cx="94.0552207843556" cy="583.1225036778736" r="5.48433740085038" fill="#CFAE58" opacity="0.12621480440910293"/>
  <circle cx="1139.0703685161839" cy="35.770923476259604" r="3.9818341794842347" fill="#CFAE58" opacity="0.15525949919109733"/>
  <circle cx="187.0925944895677" cy="526.4425568613715" r="4.823150289569722" fill="#CFAE58" opacity="0.24345103951116773"/>
  <circle cx="45.24826362268062" cy="215.57330854384614" r="4.193769369919477" fill="#CFAE58" opacity="0.11616949590878889"/>
  <circle cx="1010.5671288853331" cy="599.8158331817971" r="5.196506456893786" fill="#CFAE58" opacity="0.21023238024611896"/>
  <circle cx="253.9497293298907" cy="568.4905634369464" r="5.100830121606771" fill="#CFAE58" opacity="0.19995059751975797"/>
  <circle cx="279.8949252803861" cy="158.13662472770415" r="5.098374243332546" fill="#CFAE58" opacity="0.1500137715128065"/>
  <circle cx="440.7109452856518" cy="18.64058393258236" r="5.718300678644656" fill="#CFAE58" opacity="0.2164787383259666"/>
  <circle cx="197.31345240668298" cy="239.1859232506622" r="2.4379650785203983" fill="#CFAE58" opacity="0.20362435229532427"/>
  <circle cx="10.15272380813732" cy="243.76813254100725" r="5.580629117884128" fill="#CFAE58" opacity="0.19731442557150036"/>
  <circle cx="891.4256556479103" cy="292.4356058783626" r="3.268398571425406" fill="#CFAE58" opacity="0.17371537123455527"/>
  <circle cx="430.824632408158" cy="578.4392589208979" r="4.66375260542688" fill="#CFAE58" opacity="0.12609105282075378"/>
  <circle cx="1125.5011746106968" cy="536.8179043054847" r="2.6375231797926455" fill="#CFAE58" opacity="0.2133802151844425"/>
  <circle cx="514.6230007621396" cy="39.24549733765161" r="3.0746455918783537" fill="#CFAE58" opacity="0.15161435737762682"/>
  <circle cx="1179.4638495735953" cy="254.3188875303588" r="2.468162777366252" fill="#CFAE58" opacity="0.15558551208717145"/>

  <!-- Border with glow -->
  <rect x="40" y="40" width="1120" height="550" fill="none" stroke="url(#goldGradient)" stroke-width="3" rx="12" filter="url(#softGlow)"/>

  <!-- Icon circle with premium background -->
  <circle cx="150" cy="200" r="75" fill="#CFAE58" opacity="0.15" filter="url(#softGlow)"/>
  <circle cx="150" cy="200" r="70" fill="#CFAE58" opacity="0.25"/>
  <text x="150" y="235" font-size="90" text-anchor="middle" fill="#CFAE58" filter="url(#glow)">📸</text>

  <!-- Premium logo (crown) with enhanced styling -->
  <g transform="translate(100, 70)">
    <path d="M 30 20 L 40 35 L 35 35 Z M 50 15 L 60 35 L 45 35 Z M 65 20 L 75 35 L 70 35 Z M 30 35 L 75 35 L 73 45 L 32 45 Z"
          fill="url(#goldGradient)" filter="url(#glow)" stroke="#B89842" stroke-width="0.5"/>
    <circle cx="40" cy="25" r="3" fill="#4FD1C5" filter="url(#glow)"/>
    <circle cx="52" cy="20" r="4" fill="#4FD1C5" filter="url(#glow)"/>
    <circle cx="65" cy="25" r="3" fill="#4FD1C5" filter="url(#glow)"/>
  </g>

  <!-- Title with shadow -->
  <text x="280" y="180" font-family="Georgia, serif" font-size="72" font-weight="bold"
        fill="url(#goldGradient)" filter="url(#shadow)">Photo Gallery</text>

  <!-- Subtitle with subtle glow -->
  <text x="280" y="230" font-family="Arial, sans-serif" font-size="36"
        fill="#D6DEE6" opacity="0.95" filter="url(#softGlow)">Science, Family Tours & Caviar Production</text>

  <!-- Brand name with letter spacing -->
  <text x="280" y="300" font-family="Georgia, serif" font-size="32" font-weight="bold"
        fill="#CFAE58" letter-spacing="4" filter="url(#glow)">ROYAL KETA</text>

  <!-- Russian tagline -->
  <text x="280" y="340" font-family="Arial, sans-serif" font-size="22" font-style="italic"
        fill="#8B95A1" opacity="0.8">От икринки к королевской</text>

  <!-- Location -->
  <text x="280" y="380" font-family="Arial, sans-serif" font-size="20"
        fill="#8B95A1" opacity="0.7">Невельский район, Сахалин</text>

  <!-- Website with glow -->
  <text x="100" y="570" font-family="Arial, sans-serif" font-size="30" font-weight="bold"
        fill="#4FD1C5" filter="url(#glow)">royalketa.com</text>

  <!-- Enhanced decorative salmon silhouette -->
  <g transform="translate(950, 480)" opacity="0.2" filter="url(#softGlow)">
    <ellipse cx="0" cy="0" rx="90" ry="35" fill="#CFAE58"/>
    <path d="M 90 0 L 120 -18 L 130 0 L 120 18 Z" fill="#CFAE58"/>
    <path d="M -25 -35 L 0 -45 L 25 -35 Z" fill="#CFAE58"/>
    <ellipse cx="-50" cy="0" rx="15" ry="12" fill="#0B0F14"/>
  </g>

  <!-- Additional decorative caviar clusters -->
  <g opacity="0.2">
    <circle cx="1050" cy="120" r="6" fill="#CFAE58"/>
    <circle cx="1065" cy="115" r="5" fill="#CFAE58"/>
    <circle cx="1058" cy="130" r="4" fill="#CFAE58"/>
    <circle cx="150" cy="500" r="5" fill="#4FD1C5"/>
    <circle cx="165" cy="508" r="4" fill="#4FD1C5"/>
    <circle cx="140" cy="512" r="5" fill="#4FD1C5"/>
  </g>
</svg>