<svg width="1200" height="630" xmlns="http://www.w3.org/2000/svg">
  <defs>
    <linearGradient id="bgGradient" x1="0%" y1="0%" x2="100%" y2="100%">
      <stop offset="0%" style="stop-color:#0B0F14;stop-opacity:1" />
      <stop offset="50%" style="stop-color:#0F1619;stop-opacity:1" />
      <stop offset="100%" style="stop-color:#0F1922;stop-opacity:1" />
    </linearGradient>
    <linearGradient id="goldGradient" x1="0%" y1="0%" x2="100%" y2="0%">
      <stop offset="0%" style="stop-color:#E5D596;stop-opacity:1" />
      <stop offset="50%" style="stop-color:#CFAE58;stop-opacity:1" />
      <stop offset="100%" style="stop-color:#B89842;stop-opacity:1" />
    </linearGradient>
    <radialGradient id="oceanGradient" cx="50%" cy="50%" r="50%">
      <stop offset="0%" style="stop-color:#4FD1C5;stop-opacity:0.3" />
      <stop offset="100%" style="stop-color:#1E90A0;stop-opacity:0.05" />
    </radialGradient>
    <filter id="glow">
      <feGaussianBlur stdDeviation="5" result="coloredBlur"/>
      <feMerge>
        <feMergeNode in="coloredBlur"/>
        <feMergeNode in="SourceGraphic"/>
      </feMerge>
    </filter>
    <filter id="softGlow">
      <feGaussianBlur stdDeviation="8" result="coloredBlur"/>
      <feMerge>
        <feMergeNode in="coloredBlur"/>
        <feMergeNode in="SourceGraphic"/>
      </feMerge>
    </filter>
    <filter id="shadow">
      <feDropShadow dx="0" dy="4" stdDeviation="8" flood-color="#000000" flood-opacity="0.5"/>
    </filter>
  </defs>

  <!-- Background -->
  <rect width="1200" height="630" fill="url(#bgGradient)"/>

  <!-- Decorative ocean gradients -->
  <ellipse cx="1000" cy="150" rx="300" ry="200" fill="url(#oceanGradient)" opacity="0.4"/>
  <ellipse cx="200" cy="530" rx="250" ry="180" fill="url(#oceanGradient)" opacity="0.3"/>

  <!-- Wave patterns -->
  <path d="M 0 400 Q 300 350 600 400 T 1200 400 L 1200 630 L 0 630 Z" fill="#1E90A0" opacity="0.08"/>
  <path d="M 0 450 Q 250 420 500 450 T 1000 450 T 1200 450 L 1200 630 L 0 630 Z" fill="#4FD1C5" opacity="0.05"/>

  <!-- Caviar roe particles -->
  <circle cx="1082.1240703716257" cy="309.4545776233754" r="3.837953058566594" fill="#CFAE58" opacity="0.17698700806195147"/>
  <circle cx="1133.628133910868" cy="262.92370677458166" r="5.377640372451626" fill="#CFAE58" opacity="0.11578747611820574"/>
  <circle cx="718.3017767406286" cy="338.53699868992845" r="4.733187553008396" fill="#CFAE58" opacity="0.19192553877020466"/>
  <circle cx="1010.371813283668" cy="371.43617810875793" r="3.4873471825093487" fill="#CFAE58" opacity="0.1887981659492536"/>
  <circle cx="498.61402076788056" cy="346.37375702147057" r="4.214411458653846" fill="#CFAE58" opacity="0.18904044490367128"/>
  <circle cx="337.1309803683481" cy="211.91981789759166" r="3.411478183490197" fill="#CFAE58" opacity="0.21502499189433544"/>
  <circle cx="1082.6267441365198" cy="210.01868547629948" r="3.5956677603366654" fill="#CFAE58" opacity="0.19320221555043376"/>
  <circle cx="1157.8545648908882" cy="567.3966397007666" r="4.509593339758811" fill="#CFAE58" opacity="0.18101315137360896"/>
  <circle cx="931.1342130289665" cy="115.36233201580993" r="3.1526268152528143" fill="#CFAE58" opacity="0.23570810859668007"/>
  <circle cx="357.93069117857976" cy="428.2042532149541" r="4.182581145234908" fill="#CFAE58" opacity="0.18198956276246758"/>
  <circle cx="594.2156545033308" cy="438.42863856104105" r="2.347126414683589" fill="#CFAE58" opacity="0.2450958370017967"/>
  <circle cx="1198.4732319955513" cy="544.1554909152195" r="5.400095930631125" fill="#CFAE58" opacity="0.17718885293430353"/>
  <circle cx="1160.205699679283" cy="215.71836561960723" r="5.605537069814476" fill="#CFAE58" opacity="0.14965737875359103"/>
  <circle cx="237.25569297905116" cy="139.60047755485195" r="4.553250628151487" fill="#CFAE58" opacity="0.16075013851511294"/>
  <circle cx="704.7326934759202" cy="164.15713786511992" r="5.931270687803305" fill="#CFAE58" opacity="0.17155512742714008"/>
  <circle cx="131.25623922472488" cy="453.2175894778416" r="3.343364212338524" fill="#CFAE58" opacity="0.1940755898155802"/>
  <circle cx="1069.648800012889" cy="238.97620828629837" r="3.0272168006569986" fill="#CFAE58" opacity="0.17707929558803395"/>
  <circle cx="395.599163136673" cy="463.61315425163275" r="4.155833426849741" fill="#CFAE58" opacity="0.22728492482304694"/>
  <circle cx="323.04269009800953" cy="89.31816181674276" r="4.102608155810082" fill="#CFAE58" opacity="0.15728352240520965"/>
  <circle cx="1156.4400772967801" cy="602.747895137206" r="4.802264066415335" fill="#CFAE58" opacity="0.1809158766883646"/>
  <circle cx="182.27593282271854" cy="436.67650016612697" r="4.65764963165127" fill="#CFAE58" opacity="0.10170493900499471"/>
  <circle cx="113.82060388771703" cy="127.11568009526428" r="5.741189845844453" fill="#CFAE58" opacity="0.17477690526303827"/>
  <circle cx="518.7642565101098" cy="437.72285771559217" r="4.470015170765227" fill="#CFAE58" opacity="0.22346669417972076"/>
  <circle cx="1168.858296035868" cy="375.78764217174194" r="4.363960248675687" fill="#CFAE58" opacity="0.19219084214527815"/>
  <circle cx="1045.00949361238" cy="109.95072166422192" r="2.9905747420212876" fill="#CFAE58" opacity="0.2068389769843455"/>
  <circle cx="701.4558951886643" cy="556.9475086362396" r="2.2505452185624417" fill="#CFAE58" opacity="0.16898284907597239"/>
  <circle cx="674.3526815074644" cy="625.7022977137746" r="2.6438090068430027" fill="#CFAE58" opacity="0.24530239928696312"/>
  <circle cx="370.1141686534629" cy="403.6703624075261" r="4.627329473998906" fill="#CFAE58" opacity="0.22062850161419867"/>
  <circle cx="66.72583880147522" cy="470.7156916555071" r="5.500312003301363" fill="#CFAE58" opacity="0.11356699376324071"/>
  <circle cx="575.9782152780422" cy="364.7990602488359" r="4.254200694332648" fill="#CFAE58" opacity="0.19320242894399742"/>

  <!-- Border with glow -->
  <rect x="40" y="40" width="1120" height="550" fill="none" stroke="url(#goldGradient)" stroke-width="3" rx="12" filter="url(#softGlow)"/>

  <!-- Icon circle with premium background -->
  <circle cx="150" cy="200" r="75" fill="#CFAE58" opacity="0.15" filter="url(#softGlow)"/>
  <circle cx="150" cy="200" r="70" fill="#CFAE58" opacity="0.25"/>
  <text x="150" y="235" font-size="90" text-anchor="middle" fill="#CFAE58" filter="url(#glow)">📸</text>

  <!-- Premium logo (crown) with enhanced styling -->
  <g transform="translate(100, 70)">
    <path d="M 30 20 L 40 35 L 35 35 Z M 50 15 L 60 35 L 45 35 Z M 65 20 L 75 35 L 70 35 Z M 30 35 L 75 35 L 73 45 L 32 45 Z"
          fill="url(#goldGradient)" filter="url(#glow)" stroke="#B89842" stroke-width="0.5"/>
    <circle cx="40" cy="25" r="3" fill="#4FD1C5" filter="url(#glow)"/>
    <circle cx="52" cy="20" r="4" fill="#4FD1C5" filter="url(#glow)"/>
    <circle cx="65" cy="25" r="3" fill="#4FD1C5" filter="url(#glow)"/>
  </g>

  <!-- Title with shadow -->
  <text x="280" y="180" font-family="Georgia, serif" font-size="72" font-weight="bold"
        fill="url(#goldGradient)" filter="url(#shadow)">Photo Gallery</text>

  <!-- Subtitle with subtle glow -->
  <text x="280" y="230" font-family="Arial, sans-serif" font-size="36"
        fill="#D6DEE6" opacity="0.95" filter="url(#softGlow)">Science, Family Tours & Caviar Production</text>

  <!-- Brand name with letter spacing -->
  <text x="280" y="300" font-family="Georgia, serif" font-size="32" font-weight="bold"
        fill="#CFAE58" letter-spacing="4" filter="url(#glow)">ROYAL KETA</text>

  <!-- Russian tagline -->
  <text x="280" y="340" font-family="Arial, sans-serif" font-size="22" font-style="italic"
        fill="#8B95A1" opacity="0.8">От икринки к королевской</text>

  <!-- Location -->
  <text x="280" y="380" font-family="Arial, sans-serif" font-size="20"
        fill="#8B95A1" opacity="0.7">Невельский район, Сахалин</text>

  <!-- Website with glow -->
  <text x="100" y="570" font-family="Arial, sans-serif" font-size="30" font-weight="bold"
        fill="#4FD1C5" filter="url(#glow)">royalketa.com</text>

  <!-- Enhanced decorative salmon silhouette -->
  <g transform="translate(950, 480)" opacity="0.2" filter="url(#softGlow)">
    <ellipse cx="0" cy="0" rx="90" ry="35" fill="#CFAE58"/>
    <path d="M 90 0 L 120 -18 L 130 0 L 120 18 Z" fill="#CFAE58"/>
    <path d="M -25 -35 L 0 -45 L 25 -35 Z" fill="#CFAE58"/>
    <ellipse cx="-50" cy="0" rx="15" ry="12" fill="#0B0F14"/>
  </g>

  <!-- Additional decorative caviar clusters -->
  <g opacity="0.2">
    <circle cx="1050" cy="120" r="6" fill="#CFAE58"/>
    <circle cx="1065" cy="115" r="5" fill="#CFAE58"/>
    <circle cx="1058" cy="130" r="4" fill="#CFAE58"/>
    <circle cx="150" cy="500" r="5" fill="#4FD1C5"/>
    <circle cx="165" cy="508" r="4" fill="#4FD1C5"/>
    <circle cx="140" cy="512" r="5" fill="#4FD1C5"/>
  </g>
</svg>