<svg width="1200" height="630" xmlns="http://www.w3.org/2000/svg">
  <defs>
    <linearGradient id="bgGradient" x1="0%" y1="0%" x2="100%" y2="100%">
      <stop offset="0%" style="stop-color:#0B0F14;stop-opacity:1" />
      <stop offset="50%" style="stop-color:#0F1619;stop-opacity:1" />
      <stop offset="100%" style="stop-color:#0F1922;stop-opacity:1" />
    </linearGradient>
    <linearGradient id="goldGradient" x1="0%" y1="0%" x2="100%" y2="0%">
      <stop offset="0%" style="stop-color:#E5D596;stop-opacity:1" />
      <stop offset="50%" style="stop-color:#CFAE58;stop-opacity:1" />
      <stop offset="100%" style="stop-color:#B89842;stop-opacity:1" />
    </linearGradient>
    <radialGradient id="oceanGradient" cx="50%" cy="50%" r="50%">
      <stop offset="0%" style="stop-color:#4FD1C5;stop-opacity:0.3" />
      <stop offset="100%" style="stop-color:#1E90A0;stop-opacity:0.05" />
    </radialGradient>
    <filter id="glow">
      <feGaussianBlur stdDeviation="5" result="coloredBlur"/>
      <feMerge>
        <feMergeNode in="coloredBlur"/>
        <feMergeNode in="SourceGraphic"/>
      </feMerge>
    </filter>
    <filter id="softGlow">
      <feGaussianBlur stdDeviation="8" result="coloredBlur"/>
      <feMerge>
        <feMergeNode in="coloredBlur"/>
        <feMergeNode in="SourceGraphic"/>
      </feMerge>
    </filter>
    <filter id="shadow">
      <feDropShadow dx="0" dy="4" stdDeviation="8" flood-color="#000000" flood-opacity="0.5"/>
    </filter>
  </defs>

  <!-- Background -->
  <rect width="1200" height="630" fill="url(#bgGradient)"/>

  <!-- Decorative ocean gradients -->
  <ellipse cx="1000" cy="150" rx="300" ry="200" fill="url(#oceanGradient)" opacity="0.4"/>
  <ellipse cx="200" cy="530" rx="250" ry="180" fill="url(#oceanGradient)" opacity="0.3"/>

  <!-- Wave patterns -->
  <path d="M 0 400 Q 300 350 600 400 T 1200 400 L 1200 630 L 0 630 Z" fill="#1E90A0" opacity="0.08"/>
  <path d="M 0 450 Q 250 420 500 450 T 1000 450 T 1200 450 L 1200 630 L 0 630 Z" fill="#4FD1C5" opacity="0.05"/>

  <!-- Caviar roe particles -->
  <circle cx="161.54483617288955" cy="99.60150051956458" r="2.3921723721344463" fill="#CFAE58" opacity="0.16268847032552053"/>
  <circle cx="75.40288788087865" cy="569.24122070676" r="4.044513444421639" fill="#CFAE58" opacity="0.13404469561410526"/>
  <circle cx="1101.4136296913528" cy="304.2764069470953" r="5.330227502517055" fill="#CFAE58" opacity="0.20696950126710112"/>
  <circle cx="143.79536938106173" cy="320.1084403797081" r="5.334633964729797" fill="#CFAE58" opacity="0.10961917539187782"/>
  <circle cx="694.051311013995" cy="394.4426750040116" r="3.1379892761810897" fill="#CFAE58" opacity="0.10448649408331988"/>
  <circle cx="384.39890602075445" cy="300.83017195386066" r="5.783272195822116" fill="#CFAE58" opacity="0.10957926979325618"/>
  <circle cx="905.6767184136274" cy="615.3438862304246" r="4.090447304687495" fill="#CFAE58" opacity="0.23662721376893475"/>
  <circle cx="675.4553301180739" cy="548.9527581773216" r="2.161175380179416" fill="#CFAE58" opacity="0.18138107133332454"/>
  <circle cx="899.3691798850266" cy="53.729226709833696" r="4.754888583621921" fill="#CFAE58" opacity="0.1841962068950886"/>
  <circle cx="417.26738003866444" cy="337.29559011255776" r="4.80390281131527" fill="#CFAE58" opacity="0.14869358083714812"/>
  <circle cx="153.4997110290904" cy="63.42745087337915" r="5.09758996829453" fill="#CFAE58" opacity="0.23388488112458877"/>
  <circle cx="11.794871523785666" cy="368.4338001905297" r="3.0723041660583794" fill="#CFAE58" opacity="0.22648632573765234"/>
  <circle cx="880.3113211126553" cy="90.67852367618435" r="5.503259418774511" fill="#CFAE58" opacity="0.1322233607579432"/>
  <circle cx="74.7267506431605" cy="91.55953043390859" r="4.9580839119498075" fill="#CFAE58" opacity="0.120892311336331"/>
  <circle cx="427.91977219670645" cy="67.04610804076906" r="5.3797381375470215" fill="#CFAE58" opacity="0.16867856464385866"/>
  <circle cx="934.5047113416697" cy="320.7839082026604" r="2.9315850708731803" fill="#CFAE58" opacity="0.23899631497876275"/>
  <circle cx="575.1007564873053" cy="15.88273278007385" r="4.498436874028012" fill="#CFAE58" opacity="0.19495885787824513"/>
  <circle cx="633.1782431698349" cy="29.190376442624316" r="5.385365166518792" fill="#CFAE58" opacity="0.1658704335184775"/>
  <circle cx="369.50825196985033" cy="55.73039277681434" r="3.169624840218532" fill="#CFAE58" opacity="0.14185151050860767"/>
  <circle cx="1066.1022567280243" cy="581.6436657987944" r="4.449667252495083" fill="#CFAE58" opacity="0.19880188424191844"/>
  <circle cx="799.3397169955726" cy="622.4429508958041" r="5.669722431745546" fill="#CFAE58" opacity="0.22237327892167558"/>
  <circle cx="1124.905848875219" cy="589.6071307204897" r="2.4055405139853914" fill="#CFAE58" opacity="0.10932049706157015"/>
  <circle cx="606.8204772139712" cy="426.45739295415353" r="3.1297523462258585" fill="#CFAE58" opacity="0.21347065824225914"/>
  <circle cx="371.70092240783487" cy="580.7723425423235" r="2.7611973658487736" fill="#CFAE58" opacity="0.2312477115109796"/>
  <circle cx="910.1693883844823" cy="29.375345076796535" r="5.549459060527418" fill="#CFAE58" opacity="0.22986945286718127"/>
  <circle cx="590.4592414221479" cy="265.2314890623092" r="5.046111503174294" fill="#CFAE58" opacity="0.2301693820677121"/>
  <circle cx="977.405805332397" cy="230.34656820866624" r="4.332673118102479" fill="#CFAE58" opacity="0.13221964227413685"/>
  <circle cx="161.78376742237583" cy="380.5188979643404" r="2.790097971537964" fill="#CFAE58" opacity="0.22916836360169154"/>
  <circle cx="480.9353160573635" cy="271.9630959898514" r="5.376887232098086" fill="#CFAE58" opacity="0.20106983968681993"/>
  <circle cx="166.87922625222137" cy="250.76342652812664" r="2.2169529416040286" fill="#CFAE58" opacity="0.15649665652947248"/>

  <!-- Border with glow -->
  <rect x="40" y="40" width="1120" height="550" fill="none" stroke="url(#goldGradient)" stroke-width="3" rx="12" filter="url(#softGlow)"/>

  <!-- Icon circle with premium background -->
  <circle cx="150" cy="200" r="75" fill="#CFAE58" opacity="0.15" filter="url(#softGlow)"/>
  <circle cx="150" cy="200" r="70" fill="#CFAE58" opacity="0.25"/>
  <text x="150" y="235" font-size="90" text-anchor="middle" fill="#CFAE58" filter="url(#glow)">📸</text>

  <!-- Premium logo (crown) with enhanced styling -->
  <g transform="translate(100, 70)">
    <path d="M 30 20 L 40 35 L 35 35 Z M 50 15 L 60 35 L 45 35 Z M 65 20 L 75 35 L 70 35 Z M 30 35 L 75 35 L 73 45 L 32 45 Z"
          fill="url(#goldGradient)" filter="url(#glow)" stroke="#B89842" stroke-width="0.5"/>
    <circle cx="40" cy="25" r="3" fill="#4FD1C5" filter="url(#glow)"/>
    <circle cx="52" cy="20" r="4" fill="#4FD1C5" filter="url(#glow)"/>
    <circle cx="65" cy="25" r="3" fill="#4FD1C5" filter="url(#glow)"/>
  </g>

  <!-- Title with shadow -->
  <text x="280" y="180" font-family="Georgia, serif" font-size="72" font-weight="bold"
        fill="url(#goldGradient)" filter="url(#shadow)">Photo Gallery</text>

  <!-- Subtitle with subtle glow -->
  <text x="280" y="230" font-family="Arial, sans-serif" font-size="36"
        fill="#D6DEE6" opacity="0.95" filter="url(#softGlow)">Science, Family Tours & Caviar Production</text>

  <!-- Brand name with letter spacing -->
  <text x="280" y="300" font-family="Georgia, serif" font-size="32" font-weight="bold"
        fill="#CFAE58" letter-spacing="4" filter="url(#glow)">ROYAL KETA</text>

  <!-- Russian tagline -->
  <text x="280" y="340" font-family="Arial, sans-serif" font-size="22" font-style="italic"
        fill="#8B95A1" opacity="0.8">От икринки к королевской</text>

  <!-- Location -->
  <text x="280" y="380" font-family="Arial, sans-serif" font-size="20"
        fill="#8B95A1" opacity="0.7">Невельский район, Сахалин</text>

  <!-- Website with glow -->
  <text x="100" y="570" font-family="Arial, sans-serif" font-size="30" font-weight="bold"
        fill="#4FD1C5" filter="url(#glow)">royalketa.com</text>

  <!-- Enhanced decorative salmon silhouette -->
  <g transform="translate(950, 480)" opacity="0.2" filter="url(#softGlow)">
    <ellipse cx="0" cy="0" rx="90" ry="35" fill="#CFAE58"/>
    <path d="M 90 0 L 120 -18 L 130 0 L 120 18 Z" fill="#CFAE58"/>
    <path d="M -25 -35 L 0 -45 L 25 -35 Z" fill="#CFAE58"/>
    <ellipse cx="-50" cy="0" rx="15" ry="12" fill="#0B0F14"/>
  </g>

  <!-- Additional decorative caviar clusters -->
  <g opacity="0.2">
    <circle cx="1050" cy="120" r="6" fill="#CFAE58"/>
    <circle cx="1065" cy="115" r="5" fill="#CFAE58"/>
    <circle cx="1058" cy="130" r="4" fill="#CFAE58"/>
    <circle cx="150" cy="500" r="5" fill="#4FD1C5"/>
    <circle cx="165" cy="508" r="4" fill="#4FD1C5"/>
    <circle cx="140" cy="512" r="5" fill="#4FD1C5"/>
  </g>
</svg>