<svg width="1200" height="630" xmlns="http://www.w3.org/2000/svg">
  <defs>
    <linearGradient id="bgGradient" x1="0%" y1="0%" x2="100%" y2="100%">
      <stop offset="0%" style="stop-color:#0B0F14;stop-opacity:1" />
      <stop offset="50%" style="stop-color:#0F1619;stop-opacity:1" />
      <stop offset="100%" style="stop-color:#0F1922;stop-opacity:1" />
    </linearGradient>
    <linearGradient id="goldGradient" x1="0%" y1="0%" x2="100%" y2="0%">
      <stop offset="0%" style="stop-color:#E5D596;stop-opacity:1" />
      <stop offset="50%" style="stop-color:#CFAE58;stop-opacity:1" />
      <stop offset="100%" style="stop-color:#B89842;stop-opacity:1" />
    </linearGradient>
    <radialGradient id="oceanGradient" cx="50%" cy="50%" r="50%">
      <stop offset="0%" style="stop-color:#4FD1C5;stop-opacity:0.3" />
      <stop offset="100%" style="stop-color:#1E90A0;stop-opacity:0.05" />
    </radialGradient>
    <filter id="glow">
      <feGaussianBlur stdDeviation="5" result="coloredBlur"/>
      <feMerge>
        <feMergeNode in="coloredBlur"/>
        <feMergeNode in="SourceGraphic"/>
      </feMerge>
    </filter>
    <filter id="softGlow">
      <feGaussianBlur stdDeviation="8" result="coloredBlur"/>
      <feMerge>
        <feMergeNode in="coloredBlur"/>
        <feMergeNode in="SourceGraphic"/>
      </feMerge>
    </filter>
    <filter id="shadow">
      <feDropShadow dx="0" dy="4" stdDeviation="8" flood-color="#000000" flood-opacity="0.5"/>
    </filter>
  </defs>

  <!-- Background -->
  <rect width="1200" height="630" fill="url(#bgGradient)"/>

  <!-- Decorative ocean gradients -->
  <ellipse cx="1000" cy="150" rx="300" ry="200" fill="url(#oceanGradient)" opacity="0.4"/>
  <ellipse cx="200" cy="530" rx="250" ry="180" fill="url(#oceanGradient)" opacity="0.3"/>

  <!-- Wave patterns -->
  <path d="M 0 400 Q 300 350 600 400 T 1200 400 L 1200 630 L 0 630 Z" fill="#1E90A0" opacity="0.08"/>
  <path d="M 0 450 Q 250 420 500 450 T 1000 450 T 1200 450 L 1200 630 L 0 630 Z" fill="#4FD1C5" opacity="0.05"/>

  <!-- Caviar roe particles -->
  <circle cx="206.4321715933928" cy="452.64338664202285" r="2.5743950589472955" fill="#CFAE58" opacity="0.1561966741062247"/>
  <circle cx="924.9051681595071" cy="413.1636966461541" r="2.5915471453371017" fill="#CFAE58" opacity="0.15608076808661303"/>
  <circle cx="315.8482393519682" cy="628.6772227512616" r="2.0321768486797676" fill="#CFAE58" opacity="0.19400721246165567"/>
  <circle cx="1008.1352890092451" cy="273.0853632649232" r="3.6246680582163306" fill="#CFAE58" opacity="0.1421652431819299"/>
  <circle cx="118.8653789507549" cy="156.71138390460567" r="2.8854098885552153" fill="#CFAE58" opacity="0.17155707160219885"/>
  <circle cx="916.7087322928453" cy="21.421203154993165" r="5.4136438693212146" fill="#CFAE58" opacity="0.1541915933620875"/>
  <circle cx="43.55514905071121" cy="167.13474825141435" r="5.602435432713581" fill="#CFAE58" opacity="0.1824352472437223"/>
  <circle cx="1066.207342574158" cy="123.04998168567663" r="2.3374656530509292" fill="#CFAE58" opacity="0.2381605469845575"/>
  <circle cx="1119.727000983111" cy="137.32683125259643" r="5.032105973245703" fill="#CFAE58" opacity="0.14420521399221256"/>
  <circle cx="1076.0349405625666" cy="272.83352051057096" r="3.161255719154764" fill="#CFAE58" opacity="0.2220518640773993"/>
  <circle cx="24.087470343048565" cy="505.822173506577" r="5.231105339503738" fill="#CFAE58" opacity="0.17173892510009314"/>
  <circle cx="969.1112246962427" cy="591.8022416820934" r="5.526982246884433" fill="#CFAE58" opacity="0.10426739611651117"/>
  <circle cx="114.96562871477987" cy="10.078601659439455" r="2.2683663623333135" fill="#CFAE58" opacity="0.17142229840258494"/>
  <circle cx="1011.6038913064281" cy="149.58513396742606" r="4.534657137818137" fill="#CFAE58" opacity="0.1953960222323274"/>
  <circle cx="296.1677754680945" cy="277.48017640934" r="4.888197405659181" fill="#CFAE58" opacity="0.10578180116901241"/>
  <circle cx="1.9351520222717244" cy="284.5568991245567" r="3.557650596778282" fill="#CFAE58" opacity="0.1634544399812621"/>
  <circle cx="1043.6221815716062" cy="89.6552086390072" r="3.5487797741265243" fill="#CFAE58" opacity="0.23273271885446747"/>
  <circle cx="855.8371374659562" cy="30.6961807715304" r="3.019032470610863" fill="#CFAE58" opacity="0.1684693436310484"/>
  <circle cx="1088.0608845237375" cy="610.979208628411" r="5.678489199313349" fill="#CFAE58" opacity="0.14084579357497898"/>
  <circle cx="1170.7828531688097" cy="622.2433494476045" r="3.4330312584901357" fill="#CFAE58" opacity="0.11201373403439054"/>
  <circle cx="611.328049020061" cy="213.6472526865836" r="4.347115640625669" fill="#CFAE58" opacity="0.13575633153427516"/>
  <circle cx="117.37385218899772" cy="513.5220553966534" r="5.71204239912203" fill="#CFAE58" opacity="0.16443669764017094"/>
  <circle cx="1130.7156719209456" cy="538.5327234833304" r="2.911845717044615" fill="#CFAE58" opacity="0.12356082411001892"/>
  <circle cx="1009.2770247525295" cy="506.7792039518087" r="2.0108604916890362" fill="#CFAE58" opacity="0.2435755411395944"/>
  <circle cx="954.9099315269488" cy="366.62641513692324" r="3.3146853659947264" fill="#CFAE58" opacity="0.1834887857533662"/>
  <circle cx="647.3697157207296" cy="346.6568978409299" r="4.9146865537341435" fill="#CFAE58" opacity="0.2264368274447861"/>
  <circle cx="518.2017824488141" cy="223.9856334690999" r="5.425610033254111" fill="#CFAE58" opacity="0.2207673067794417"/>
  <circle cx="279.63655210659" cy="73.5176470160569" r="4.696848651171695" fill="#CFAE58" opacity="0.21241815788243734"/>
  <circle cx="1162.6726511671789" cy="606.4080068349126" r="4.366790579819296" fill="#CFAE58" opacity="0.18224854338726554"/>
  <circle cx="685.9064393420193" cy="89.51444071861043" r="2.616189750636104" fill="#CFAE58" opacity="0.18048795236477894"/>

  <!-- Border with glow -->
  <rect x="40" y="40" width="1120" height="550" fill="none" stroke="url(#goldGradient)" stroke-width="3" rx="12" filter="url(#softGlow)"/>

  <!-- Icon circle with premium background -->
  <circle cx="150" cy="200" r="75" fill="#CFAE58" opacity="0.15" filter="url(#softGlow)"/>
  <circle cx="150" cy="200" r="70" fill="#CFAE58" opacity="0.25"/>
  <text x="150" y="235" font-size="90" text-anchor="middle" fill="#CFAE58" filter="url(#glow)">📸</text>

  <!-- Premium logo (crown) with enhanced styling -->
  <g transform="translate(100, 70)">
    <path d="M 30 20 L 40 35 L 35 35 Z M 50 15 L 60 35 L 45 35 Z M 65 20 L 75 35 L 70 35 Z M 30 35 L 75 35 L 73 45 L 32 45 Z"
          fill="url(#goldGradient)" filter="url(#glow)" stroke="#B89842" stroke-width="0.5"/>
    <circle cx="40" cy="25" r="3" fill="#4FD1C5" filter="url(#glow)"/>
    <circle cx="52" cy="20" r="4" fill="#4FD1C5" filter="url(#glow)"/>
    <circle cx="65" cy="25" r="3" fill="#4FD1C5" filter="url(#glow)"/>
  </g>

  <!-- Title with shadow -->
  <text x="280" y="180" font-family="Georgia, serif" font-size="72" font-weight="bold"
        fill="url(#goldGradient)" filter="url(#shadow)">Photo Gallery</text>

  <!-- Subtitle with subtle glow -->
  <text x="280" y="230" font-family="Arial, sans-serif" font-size="36"
        fill="#D6DEE6" opacity="0.95" filter="url(#softGlow)">Science, Family Tours &amp; Caviar Production</text>

  <!-- Brand name with letter spacing -->
  <text x="280" y="300" font-family="Georgia, serif" font-size="32" font-weight="bold"
        fill="#CFAE58" letter-spacing="4" filter="url(#glow)">ROYAL KETA</text>

  <!-- Russian tagline -->
  <text x="280" y="340" font-family="Arial, sans-serif" font-size="22" font-style="italic"
        fill="#8B95A1" opacity="0.8">От икринки к королевской</text>

  <!-- Location -->
  <text x="280" y="380" font-family="Arial, sans-serif" font-size="20"
        fill="#8B95A1" opacity="0.7">Невельский район, Сахалин</text>

  <!-- Website with glow -->
  <text x="100" y="570" font-family="Arial, sans-serif" font-size="30" font-weight="bold"
        fill="#4FD1C5" filter="url(#glow)">royalketa.com</text>

  <!-- Enhanced decorative salmon silhouette -->
  <g transform="translate(950, 480)" opacity="0.2" filter="url(#softGlow)">
    <ellipse cx="0" cy="0" rx="90" ry="35" fill="#CFAE58"/>
    <path d="M 90 0 L 120 -18 L 130 0 L 120 18 Z" fill="#CFAE58"/>
    <path d="M -25 -35 L 0 -45 L 25 -35 Z" fill="#CFAE58"/>
    <ellipse cx="-50" cy="0" rx="15" ry="12" fill="#0B0F14"/>
  </g>

  <!-- Additional decorative caviar clusters -->
  <g opacity="0.2">
    <circle cx="1050" cy="120" r="6" fill="#CFAE58"/>
    <circle cx="1065" cy="115" r="5" fill="#CFAE58"/>
    <circle cx="1058" cy="130" r="4" fill="#CFAE58"/>
    <circle cx="150" cy="500" r="5" fill="#4FD1C5"/>
    <circle cx="165" cy="508" r="4" fill="#4FD1C5"/>
    <circle cx="140" cy="512" r="5" fill="#4FD1C5"/>
  </g>
</svg>