<svg width="1200" height="630" xmlns="http://www.w3.org/2000/svg">
  <defs>
    <linearGradient id="bgGradient" x1="0%" y1="0%" x2="100%" y2="100%">
      <stop offset="0%" style="stop-color:#0B0F14;stop-opacity:1" />
      <stop offset="50%" style="stop-color:#0F1619;stop-opacity:1" />
      <stop offset="100%" style="stop-color:#0F1922;stop-opacity:1" />
    </linearGradient>
    <linearGradient id="goldGradient" x1="0%" y1="0%" x2="100%" y2="0%">
      <stop offset="0%" style="stop-color:#E5D596;stop-opacity:1" />
      <stop offset="50%" style="stop-color:#CFAE58;stop-opacity:1" />
      <stop offset="100%" style="stop-color:#B89842;stop-opacity:1" />
    </linearGradient>
    <radialGradient id="oceanGradient" cx="50%" cy="50%" r="50%">
      <stop offset="0%" style="stop-color:#4FD1C5;stop-opacity:0.3" />
      <stop offset="100%" style="stop-color:#1E90A0;stop-opacity:0.05" />
    </radialGradient>
    <filter id="glow">
      <feGaussianBlur stdDeviation="5" result="coloredBlur"/>
      <feMerge>
        <feMergeNode in="coloredBlur"/>
        <feMergeNode in="SourceGraphic"/>
      </feMerge>
    </filter>
    <filter id="softGlow">
      <feGaussianBlur stdDeviation="8" result="coloredBlur"/>
      <feMerge>
        <feMergeNode in="coloredBlur"/>
        <feMergeNode in="SourceGraphic"/>
      </feMerge>
    </filter>
    <filter id="shadow">
      <feDropShadow dx="0" dy="4" stdDeviation="8" flood-color="#000000" flood-opacity="0.5"/>
    </filter>
  </defs>

  <!-- Background -->
  <rect width="1200" height="630" fill="url(#bgGradient)"/>

  <!-- Decorative ocean gradients -->
  <ellipse cx="1000" cy="150" rx="300" ry="200" fill="url(#oceanGradient)" opacity="0.4"/>
  <ellipse cx="200" cy="530" rx="250" ry="180" fill="url(#oceanGradient)" opacity="0.3"/>

  <!-- Wave patterns -->
  <path d="M 0 400 Q 300 350 600 400 T 1200 400 L 1200 630 L 0 630 Z" fill="#1E90A0" opacity="0.08"/>
  <path d="M 0 450 Q 250 420 500 450 T 1000 450 T 1200 450 L 1200 630 L 0 630 Z" fill="#4FD1C5" opacity="0.05"/>

  <!-- Caviar roe particles -->
  <circle cx="61.517739450753695" cy="216.73354955704542" r="4.746145238739873" fill="#CFAE58" opacity="0.1571367488000869"/>
  <circle cx="1123.2470701760033" cy="322.06453466040415" r="2.1526739089458156" fill="#CFAE58" opacity="0.1580708248541596"/>
  <circle cx="876.2879581303973" cy="167.7927551573433" r="5.369133072440823" fill="#CFAE58" opacity="0.14412889803383974"/>
  <circle cx="630.6743291773412" cy="418.7711138487363" r="2.2733379562825737" fill="#CFAE58" opacity="0.12039853214644242"/>
  <circle cx="1063.3320548355857" cy="27.21546884047106" r="4.663504726498398" fill="#CFAE58" opacity="0.2458999278354531"/>
  <circle cx="58.991056619297225" cy="287.20131251590107" r="3.9154152920791514" fill="#CFAE58" opacity="0.17656178859987476"/>
  <circle cx="979.5338858637147" cy="488.8742001806556" r="3.0812136295887953" fill="#CFAE58" opacity="0.1436676106235102"/>
  <circle cx="915.3557968964552" cy="499.2662447918705" r="3.2271748914859995" fill="#CFAE58" opacity="0.15352914700229003"/>
  <circle cx="708.5621612011333" cy="520.7091651551096" r="3.4883719012092733" fill="#CFAE58" opacity="0.10592967617234536"/>
  <circle cx="12.875796786430715" cy="384.6199865919238" r="4.072592784302199" fill="#CFAE58" opacity="0.11468725814473113"/>
  <circle cx="182.21779805545788" cy="105.59929395307772" r="4.786239025002834" fill="#CFAE58" opacity="0.14793157196547996"/>
  <circle cx="364.80083669015136" cy="374.2645627193278" r="2.944675880848173" fill="#CFAE58" opacity="0.103977173007674"/>
  <circle cx="1095.5257164541229" cy="387.6485339353265" r="2.7710248332825795" fill="#CFAE58" opacity="0.19380602329759788"/>
  <circle cx="765.5475419392627" cy="201.50069754301532" r="2.248373026646858" fill="#CFAE58" opacity="0.15379095117948258"/>
  <circle cx="281.24912651199486" cy="54.160027875208456" r="4.3943542032573335" fill="#CFAE58" opacity="0.17755162199469843"/>
  <circle cx="243.63701564304012" cy="30.592118759899527" r="2.495266974248029" fill="#CFAE58" opacity="0.22921922462972538"/>
  <circle cx="315.7399894928867" cy="18.33849020099135" r="5.980184902577472" fill="#CFAE58" opacity="0.14867125154785915"/>
  <circle cx="91.48732322427344" cy="252.56566334152595" r="5.781582130352737" fill="#CFAE58" opacity="0.21726532628691214"/>
  <circle cx="248.26956623376643" cy="106.76470647535571" r="3.0478712851524046" fill="#CFAE58" opacity="0.24911820744516228"/>
  <circle cx="261.4782631306471" cy="297.7248986145839" r="3.2608409514903594" fill="#CFAE58" opacity="0.22953955456899616"/>
  <circle cx="781.1921836872049" cy="65.13128406971883" r="4.794154670118498" fill="#CFAE58" opacity="0.10819294415704722"/>
  <circle cx="891.471291161401" cy="218.72745499948883" r="4.393870592075994" fill="#CFAE58" opacity="0.21341651083896793"/>
  <circle cx="732.2755004921794" cy="519.3025399583838" r="5.068638584286025" fill="#CFAE58" opacity="0.1898458043726399"/>
  <circle cx="375.7136894837173" cy="557.6922497884686" r="2.6348546037478995" fill="#CFAE58" opacity="0.1899098692904781"/>
  <circle cx="431.4831632415334" cy="48.57879501824879" r="3.915013412467651" fill="#CFAE58" opacity="0.14927774498947943"/>
  <circle cx="388.6322717155538" cy="270.7404063069891" r="4.7865722453883945" fill="#CFAE58" opacity="0.16618233933019927"/>
  <circle cx="1175.7305460769498" cy="348.69820339828647" r="2.26673336037479" fill="#CFAE58" opacity="0.10878828594196899"/>
  <circle cx="520.1191580468643" cy="110.70826404112714" r="2.5017597118129995" fill="#CFAE58" opacity="0.1890987381061212"/>
  <circle cx="143.77136009978128" cy="432.51706264789095" r="4.487197485326358" fill="#CFAE58" opacity="0.17168354317960932"/>
  <circle cx="504.61371776164674" cy="53.961958899536924" r="3.731855423402921" fill="#CFAE58" opacity="0.1737516646433871"/>

  <!-- Border with glow -->
  <rect x="40" y="40" width="1120" height="550" fill="none" stroke="url(#goldGradient)" stroke-width="3" rx="12" filter="url(#softGlow)"/>

  <!-- Icon circle with premium background -->
  <circle cx="150" cy="200" r="75" fill="#CFAE58" opacity="0.15" filter="url(#softGlow)"/>
  <circle cx="150" cy="200" r="70" fill="#CFAE58" opacity="0.25"/>
  <text x="150" y="235" font-size="90" text-anchor="middle" fill="#CFAE58" filter="url(#glow)">📸</text>

  <!-- Premium logo (crown) with enhanced styling -->
  <g transform="translate(100, 70)">
    <path d="M 30 20 L 40 35 L 35 35 Z M 50 15 L 60 35 L 45 35 Z M 65 20 L 75 35 L 70 35 Z M 30 35 L 75 35 L 73 45 L 32 45 Z"
          fill="url(#goldGradient)" filter="url(#glow)" stroke="#B89842" stroke-width="0.5"/>
    <circle cx="40" cy="25" r="3" fill="#4FD1C5" filter="url(#glow)"/>
    <circle cx="52" cy="20" r="4" fill="#4FD1C5" filter="url(#glow)"/>
    <circle cx="65" cy="25" r="3" fill="#4FD1C5" filter="url(#glow)"/>
  </g>

  <!-- Title with shadow -->
  <text x="280" y="180" font-family="Georgia, serif" font-size="72" font-weight="bold"
        fill="url(#goldGradient)" filter="url(#shadow)">Photo Gallery</text>

  <!-- Subtitle with subtle glow -->
  <text x="280" y="230" font-family="Arial, sans-serif" font-size="36"
        fill="#D6DEE6" opacity="0.95" filter="url(#softGlow)">Science, Family Tours &amp; Caviar Production</text>

  <!-- Brand name with letter spacing -->
  <text x="280" y="300" font-family="Georgia, serif" font-size="32" font-weight="bold"
        fill="#CFAE58" letter-spacing="4" filter="url(#glow)">ROYAL KETA</text>

  <!-- Russian tagline -->
  <text x="280" y="340" font-family="Arial, sans-serif" font-size="22" font-style="italic"
        fill="#8B95A1" opacity="0.8">От икринки к королевской</text>

  <!-- Location -->
  <text x="280" y="380" font-family="Arial, sans-serif" font-size="20"
        fill="#8B95A1" opacity="0.7">Невельский район, Сахалин</text>

  <!-- Website with glow -->
  <text x="100" y="570" font-family="Arial, sans-serif" font-size="30" font-weight="bold"
        fill="#4FD1C5" filter="url(#glow)">royalketa.com</text>

  <!-- Enhanced decorative salmon silhouette -->
  <g transform="translate(950, 480)" opacity="0.2" filter="url(#softGlow)">
    <ellipse cx="0" cy="0" rx="90" ry="35" fill="#CFAE58"/>
    <path d="M 90 0 L 120 -18 L 130 0 L 120 18 Z" fill="#CFAE58"/>
    <path d="M -25 -35 L 0 -45 L 25 -35 Z" fill="#CFAE58"/>
    <ellipse cx="-50" cy="0" rx="15" ry="12" fill="#0B0F14"/>
  </g>

  <!-- Additional decorative caviar clusters -->
  <g opacity="0.2">
    <circle cx="1050" cy="120" r="6" fill="#CFAE58"/>
    <circle cx="1065" cy="115" r="5" fill="#CFAE58"/>
    <circle cx="1058" cy="130" r="4" fill="#CFAE58"/>
    <circle cx="150" cy="500" r="5" fill="#4FD1C5"/>
    <circle cx="165" cy="508" r="4" fill="#4FD1C5"/>
    <circle cx="140" cy="512" r="5" fill="#4FD1C5"/>
  </g>
</svg>