<svg width="1200" height="630" xmlns="http://www.w3.org/2000/svg">
  <defs>
    <linearGradient id="bgGradient" x1="0%" y1="0%" x2="100%" y2="100%">
      <stop offset="0%" style="stop-color:#0B0F14;stop-opacity:1" />
      <stop offset="50%" style="stop-color:#0F1619;stop-opacity:1" />
      <stop offset="100%" style="stop-color:#0F1922;stop-opacity:1" />
    </linearGradient>
    <linearGradient id="goldGradient" x1="0%" y1="0%" x2="100%" y2="0%">
      <stop offset="0%" style="stop-color:#E5D596;stop-opacity:1" />
      <stop offset="50%" style="stop-color:#CFAE58;stop-opacity:1" />
      <stop offset="100%" style="stop-color:#B89842;stop-opacity:1" />
    </linearGradient>
    <radialGradient id="oceanGradient" cx="50%" cy="50%" r="50%">
      <stop offset="0%" style="stop-color:#4FD1C5;stop-opacity:0.3" />
      <stop offset="100%" style="stop-color:#1E90A0;stop-opacity:0.05" />
    </radialGradient>
    <filter id="glow">
      <feGaussianBlur stdDeviation="5" result="coloredBlur"/>
      <feMerge>
        <feMergeNode in="coloredBlur"/>
        <feMergeNode in="SourceGraphic"/>
      </feMerge>
    </filter>
    <filter id="softGlow">
      <feGaussianBlur stdDeviation="8" result="coloredBlur"/>
      <feMerge>
        <feMergeNode in="coloredBlur"/>
        <feMergeNode in="SourceGraphic"/>
      </feMerge>
    </filter>
    <filter id="shadow">
      <feDropShadow dx="0" dy="4" stdDeviation="8" flood-color="#000000" flood-opacity="0.5"/>
    </filter>
  </defs>

  <!-- Background -->
  <rect width="1200" height="630" fill="url(#bgGradient)"/>

  <!-- Decorative ocean gradients -->
  <ellipse cx="1000" cy="150" rx="300" ry="200" fill="url(#oceanGradient)" opacity="0.4"/>
  <ellipse cx="200" cy="530" rx="250" ry="180" fill="url(#oceanGradient)" opacity="0.3"/>

  <!-- Wave patterns -->
  <path d="M 0 400 Q 300 350 600 400 T 1200 400 L 1200 630 L 0 630 Z" fill="#1E90A0" opacity="0.08"/>
  <path d="M 0 450 Q 250 420 500 450 T 1000 450 T 1200 450 L 1200 630 L 0 630 Z" fill="#4FD1C5" opacity="0.05"/>

  <!-- Caviar roe particles -->
  <circle cx="962.6129460003755" cy="85.21978037650462" r="3.794984633306451" fill="#CFAE58" opacity="0.15667915686381031"/>
  <circle cx="98.7620871292993" cy="202.4988637160042" r="4.604931775361712" fill="#CFAE58" opacity="0.11097822605576589"/>
  <circle cx="255.94990396935228" cy="205.15170979888705" r="2.824391992794509" fill="#CFAE58" opacity="0.2225442239126496"/>
  <circle cx="1140.1780256175737" cy="127.62321158951661" r="5.779397102081193" fill="#CFAE58" opacity="0.16965404820155572"/>
  <circle cx="59.20980626268175" cy="568.0092496010899" r="4.712642326873653" fill="#CFAE58" opacity="0.19686951511710893"/>
  <circle cx="742.3053629174335" cy="256.37596900586345" r="5.066959474695602" fill="#CFAE58" opacity="0.17424713653703142"/>
  <circle cx="66.62173836419738" cy="287.04108359559154" r="2.0831511016557096" fill="#CFAE58" opacity="0.11090611913887698"/>
  <circle cx="1061.019653226238" cy="513.2331513694446" r="5.826612364877049" fill="#CFAE58" opacity="0.10391409639972854"/>
  <circle cx="1059.0439906214224" cy="46.17907454526573" r="5.833772194476078" fill="#CFAE58" opacity="0.10571918364371603"/>
  <circle cx="765.1553211629885" cy="543.0965270069581" r="5.115779267599716" fill="#CFAE58" opacity="0.10691396706132651"/>
  <circle cx="80.02737036755478" cy="590.8856723018456" r="3.416637293323607" fill="#CFAE58" opacity="0.16754082771633813"/>
  <circle cx="782.624467706488" cy="306.88056301264135" r="4.061123061342919" fill="#CFAE58" opacity="0.13163858279439322"/>
  <circle cx="57.70407599342189" cy="468.8986805410806" r="2.556587489971607" fill="#CFAE58" opacity="0.2027816807724386"/>
  <circle cx="650.493339183553" cy="625.4921508097899" r="5.901248241314389" fill="#CFAE58" opacity="0.20486492590203537"/>
  <circle cx="877.9447430323049" cy="525.6590069627055" r="4.137307118821204" fill="#CFAE58" opacity="0.1849807643573824"/>
  <circle cx="542.4221156888642" cy="263.55542168162964" r="3.9410564388765366" fill="#CFAE58" opacity="0.22226116262897105"/>
  <circle cx="513.028873062081" cy="210.70071835516293" r="3.7546492975688643" fill="#CFAE58" opacity="0.16094428248350834"/>
  <circle cx="433.4754848198547" cy="246.76863878542147" r="4.699013032972374" fill="#CFAE58" opacity="0.11872828912795204"/>
  <circle cx="130.92179185276026" cy="604.0733342346151" r="4.252544639058306" fill="#CFAE58" opacity="0.13113966550290554"/>
  <circle cx="103.29704751563628" cy="450.835787595221" r="4.0570645977102435" fill="#CFAE58" opacity="0.17892242126246355"/>
  <circle cx="551.853195212073" cy="266.9691827742995" r="2.3982362760989737" fill="#CFAE58" opacity="0.1951470346699147"/>
  <circle cx="991.0375225126714" cy="615.0815829142554" r="4.265485633909684" fill="#CFAE58" opacity="0.10526795475307367"/>
  <circle cx="806.1006836412544" cy="129.44499647850577" r="3.286114597938348" fill="#CFAE58" opacity="0.13975307604226633"/>
  <circle cx="806.548796703718" cy="456.55237226292724" r="3.438154834554883" fill="#CFAE58" opacity="0.12500143901976213"/>
  <circle cx="502.88688423814625" cy="593.5924762722422" r="4.206647916268151" fill="#CFAE58" opacity="0.13356956727437663"/>
  <circle cx="32.6334997192129" cy="442.29122216501105" r="2.8004195810496517" fill="#CFAE58" opacity="0.22034679003323426"/>
  <circle cx="311.04408280176534" cy="509.60461472648313" r="3.570414501774187" fill="#CFAE58" opacity="0.10031417015291576"/>
  <circle cx="713.2763364179436" cy="483.5093579892496" r="3.4187393311852734" fill="#CFAE58" opacity="0.23475994732803013"/>
  <circle cx="289.49182198426524" cy="115.58730570231177" r="3.529501175226403" fill="#CFAE58" opacity="0.24666355922814837"/>
  <circle cx="1106.8398666860946" cy="442.2699759176922" r="3.282653356914362" fill="#CFAE58" opacity="0.1923570481299962"/>

  <!-- Border with glow -->
  <rect x="40" y="40" width="1120" height="550" fill="none" stroke="url(#goldGradient)" stroke-width="3" rx="12" filter="url(#softGlow)"/>

  <!-- Icon circle with premium background -->
  <circle cx="150" cy="200" r="75" fill="#CFAE58" opacity="0.15" filter="url(#softGlow)"/>
  <circle cx="150" cy="200" r="70" fill="#CFAE58" opacity="0.25"/>
  <text x="150" y="235" font-size="90" text-anchor="middle" fill="#CFAE58" filter="url(#glow)">📸</text>

  <!-- Premium logo (crown) with enhanced styling -->
  <g transform="translate(100, 70)">
    <path d="M 30 20 L 40 35 L 35 35 Z M 50 15 L 60 35 L 45 35 Z M 65 20 L 75 35 L 70 35 Z M 30 35 L 75 35 L 73 45 L 32 45 Z"
          fill="url(#goldGradient)" filter="url(#glow)" stroke="#B89842" stroke-width="0.5"/>
    <circle cx="40" cy="25" r="3" fill="#4FD1C5" filter="url(#glow)"/>
    <circle cx="52" cy="20" r="4" fill="#4FD1C5" filter="url(#glow)"/>
    <circle cx="65" cy="25" r="3" fill="#4FD1C5" filter="url(#glow)"/>
  </g>

  <!-- Title with shadow -->
  <text x="280" y="180" font-family="Georgia, serif" font-size="72" font-weight="bold"
        fill="url(#goldGradient)" filter="url(#shadow)">Photo Gallery</text>

  <!-- Subtitle with subtle glow -->
  <text x="280" y="230" font-family="Arial, sans-serif" font-size="36"
        fill="#D6DEE6" opacity="0.95" filter="url(#softGlow)">Science, Family Tours & Caviar Production</text>

  <!-- Brand name with letter spacing -->
  <text x="280" y="300" font-family="Georgia, serif" font-size="32" font-weight="bold"
        fill="#CFAE58" letter-spacing="4" filter="url(#glow)">ROYAL KETA</text>

  <!-- Russian tagline -->
  <text x="280" y="340" font-family="Arial, sans-serif" font-size="22" font-style="italic"
        fill="#8B95A1" opacity="0.8">От икринки к королевской</text>

  <!-- Location -->
  <text x="280" y="380" font-family="Arial, sans-serif" font-size="20"
        fill="#8B95A1" opacity="0.7">Невельский район, Сахалин</text>

  <!-- Website with glow -->
  <text x="100" y="570" font-family="Arial, sans-serif" font-size="30" font-weight="bold"
        fill="#4FD1C5" filter="url(#glow)">royalketa.com</text>

  <!-- Enhanced decorative salmon silhouette -->
  <g transform="translate(950, 480)" opacity="0.2" filter="url(#softGlow)">
    <ellipse cx="0" cy="0" rx="90" ry="35" fill="#CFAE58"/>
    <path d="M 90 0 L 120 -18 L 130 0 L 120 18 Z" fill="#CFAE58"/>
    <path d="M -25 -35 L 0 -45 L 25 -35 Z" fill="#CFAE58"/>
    <ellipse cx="-50" cy="0" rx="15" ry="12" fill="#0B0F14"/>
  </g>

  <!-- Additional decorative caviar clusters -->
  <g opacity="0.2">
    <circle cx="1050" cy="120" r="6" fill="#CFAE58"/>
    <circle cx="1065" cy="115" r="5" fill="#CFAE58"/>
    <circle cx="1058" cy="130" r="4" fill="#CFAE58"/>
    <circle cx="150" cy="500" r="5" fill="#4FD1C5"/>
    <circle cx="165" cy="508" r="4" fill="#4FD1C5"/>
    <circle cx="140" cy="512" r="5" fill="#4FD1C5"/>
  </g>
</svg>