<svg width="1200" height="630" xmlns="http://www.w3.org/2000/svg">
  <defs>
    <linearGradient id="bgGradient" x1="0%" y1="0%" x2="100%" y2="100%">
      <stop offset="0%" style="stop-color:#0B0F14;stop-opacity:1" />
      <stop offset="50%" style="stop-color:#0F1619;stop-opacity:1" />
      <stop offset="100%" style="stop-color:#0F1922;stop-opacity:1" />
    </linearGradient>
    <linearGradient id="goldGradient" x1="0%" y1="0%" x2="100%" y2="0%">
      <stop offset="0%" style="stop-color:#E5D596;stop-opacity:1" />
      <stop offset="50%" style="stop-color:#CFAE58;stop-opacity:1" />
      <stop offset="100%" style="stop-color:#B89842;stop-opacity:1" />
    </linearGradient>
    <radialGradient id="oceanGradient" cx="50%" cy="50%" r="50%">
      <stop offset="0%" style="stop-color:#4FD1C5;stop-opacity:0.3" />
      <stop offset="100%" style="stop-color:#1E90A0;stop-opacity:0.05" />
    </radialGradient>
    <filter id="glow">
      <feGaussianBlur stdDeviation="5" result="coloredBlur"/>
      <feMerge>
        <feMergeNode in="coloredBlur"/>
        <feMergeNode in="SourceGraphic"/>
      </feMerge>
    </filter>
    <filter id="softGlow">
      <feGaussianBlur stdDeviation="8" result="coloredBlur"/>
      <feMerge>
        <feMergeNode in="coloredBlur"/>
        <feMergeNode in="SourceGraphic"/>
      </feMerge>
    </filter>
    <filter id="shadow">
      <feDropShadow dx="0" dy="4" stdDeviation="8" flood-color="#000000" flood-opacity="0.5"/>
    </filter>
  </defs>

  <!-- Background -->
  <rect width="1200" height="630" fill="url(#bgGradient)"/>

  <!-- Decorative ocean gradients -->
  <ellipse cx="1000" cy="150" rx="300" ry="200" fill="url(#oceanGradient)" opacity="0.4"/>
  <ellipse cx="200" cy="530" rx="250" ry="180" fill="url(#oceanGradient)" opacity="0.3"/>

  <!-- Wave patterns -->
  <path d="M 0 400 Q 300 350 600 400 T 1200 400 L 1200 630 L 0 630 Z" fill="#1E90A0" opacity="0.08"/>
  <path d="M 0 450 Q 250 420 500 450 T 1000 450 T 1200 450 L 1200 630 L 0 630 Z" fill="#4FD1C5" opacity="0.05"/>

  <!-- Caviar roe particles -->
  <circle cx="325.51059633872194" cy="31.454568898087786" r="4.3519648895568945" fill="#CFAE58" opacity="0.1393982681528321"/>
  <circle cx="708.1140890743222" cy="374.077392513939" r="4.214062934063085" fill="#CFAE58" opacity="0.1786633356436762"/>
  <circle cx="311.13585768815204" cy="406.02107028571675" r="5.121465268274262" fill="#CFAE58" opacity="0.1588017468836218"/>
  <circle cx="168.44022299271666" cy="83.86859656672449" r="3.5978052163924286" fill="#CFAE58" opacity="0.16961573715789802"/>
  <circle cx="1049.83074338054" cy="358.59574069716865" r="3.8181196341603427" fill="#CFAE58" opacity="0.22776695936189728"/>
  <circle cx="509.7990646456301" cy="31.88439587429443" r="2.714820529412135" fill="#CFAE58" opacity="0.1920509589130911"/>
  <circle cx="533.7413915325051" cy="274.8928706086547" r="3.5757319828733034" fill="#CFAE58" opacity="0.10178592263745859"/>
  <circle cx="72.20970282326556" cy="318.4787591711716" r="3.827843656685931" fill="#CFAE58" opacity="0.22696919756507197"/>
  <circle cx="392.85378429383616" cy="380.737332554416" r="2.665421433626321" fill="#CFAE58" opacity="0.24791349705632804"/>
  <circle cx="64.82518046857683" cy="330.6837052431268" r="2.889670229486451" fill="#CFAE58" opacity="0.11573899940958399"/>
  <circle cx="1048.5627637893012" cy="125.06718751125413" r="4.138912389987535" fill="#CFAE58" opacity="0.2070546158953377"/>
  <circle cx="464.4868418111692" cy="502.9167835690599" r="4.5497880212851385" fill="#CFAE58" opacity="0.24663755743717802"/>
  <circle cx="965.302931803466" cy="388.61210692210216" r="2.933817587359401" fill="#CFAE58" opacity="0.13793510617080856"/>
  <circle cx="1018.0328799374871" cy="462.0808296779104" r="4.354802109993605" fill="#CFAE58" opacity="0.16448796266870896"/>
  <circle cx="439.31244744034325" cy="297.83524149265565" r="4.96084051160345" fill="#CFAE58" opacity="0.24969069177770378"/>
  <circle cx="145.25161216636846" cy="164.83314303780372" r="4.6816320262845466" fill="#CFAE58" opacity="0.22794455647781822"/>
  <circle cx="51.61692804281009" cy="32.83053893388452" r="5.958347311245278" fill="#CFAE58" opacity="0.13378152467638302"/>
  <circle cx="315.07423358405424" cy="287.1878355490297" r="5.847451094022668" fill="#CFAE58" opacity="0.13256131483552971"/>
  <circle cx="991.3212881435193" cy="361.4639735779285" r="3.0756626227938044" fill="#CFAE58" opacity="0.22735808003413988"/>
  <circle cx="33.787193926268166" cy="517.9514944256006" r="5.2143679130056615" fill="#CFAE58" opacity="0.1298970313351862"/>
  <circle cx="464.34840431147677" cy="119.58973975804051" r="5.19873505679405" fill="#CFAE58" opacity="0.24448196366713168"/>
  <circle cx="594.6785358369357" cy="366.6471768191251" r="3.7304642286500935" fill="#CFAE58" opacity="0.16167463494957826"/>
  <circle cx="841.9914299900423" cy="199.299854032149" r="4.248044693349954" fill="#CFAE58" opacity="0.2327162964481474"/>
  <circle cx="560.9426172222356" cy="74.4614247212843" r="3.4979106005549663" fill="#CFAE58" opacity="0.18080628126320752"/>
  <circle cx="166.53227230602147" cy="46.21465497461989" r="4.446953620495304" fill="#CFAE58" opacity="0.23591215156444884"/>
  <circle cx="297.92608295223215" cy="371.1620895352968" r="4.951779405974454" fill="#CFAE58" opacity="0.1099067788683896"/>
  <circle cx="24.728631197936846" cy="330.04422109965276" r="2.1992214016659912" fill="#CFAE58" opacity="0.12752353503460878"/>
  <circle cx="609.332319219226" cy="304.7051005094664" r="5.072006342401653" fill="#CFAE58" opacity="0.139603960295165"/>
  <circle cx="512.5335095586402" cy="581.1039447296138" r="3.422606398329759" fill="#CFAE58" opacity="0.14820299559015004"/>
  <circle cx="112.00963780345549" cy="196.85540145658618" r="2.203673044336728" fill="#CFAE58" opacity="0.1324188493399154"/>

  <!-- Border with glow -->
  <rect x="40" y="40" width="1120" height="550" fill="none" stroke="url(#goldGradient)" stroke-width="3" rx="12" filter="url(#softGlow)"/>

  <!-- Icon circle with premium background -->
  <circle cx="150" cy="200" r="75" fill="#CFAE58" opacity="0.15" filter="url(#softGlow)"/>
  <circle cx="150" cy="200" r="70" fill="#CFAE58" opacity="0.25"/>
  <text x="150" y="235" font-size="90" text-anchor="middle" fill="#CFAE58" filter="url(#glow)">📸</text>

  <!-- Premium logo (crown) with enhanced styling -->
  <g transform="translate(100, 70)">
    <path d="M 30 20 L 40 35 L 35 35 Z M 50 15 L 60 35 L 45 35 Z M 65 20 L 75 35 L 70 35 Z M 30 35 L 75 35 L 73 45 L 32 45 Z"
          fill="url(#goldGradient)" filter="url(#glow)" stroke="#B89842" stroke-width="0.5"/>
    <circle cx="40" cy="25" r="3" fill="#4FD1C5" filter="url(#glow)"/>
    <circle cx="52" cy="20" r="4" fill="#4FD1C5" filter="url(#glow)"/>
    <circle cx="65" cy="25" r="3" fill="#4FD1C5" filter="url(#glow)"/>
  </g>

  <!-- Title with shadow -->
  <text x="280" y="180" font-family="Georgia, serif" font-size="72" font-weight="bold"
        fill="url(#goldGradient)" filter="url(#shadow)">Photo Gallery</text>

  <!-- Subtitle with subtle glow -->
  <text x="280" y="230" font-family="Arial, sans-serif" font-size="36"
        fill="#D6DEE6" opacity="0.95" filter="url(#softGlow)">Science, Family Tours &amp; Caviar Production</text>

  <!-- Brand name with letter spacing -->
  <text x="280" y="300" font-family="Georgia, serif" font-size="32" font-weight="bold"
        fill="#CFAE58" letter-spacing="4" filter="url(#glow)">ROYAL KETA</text>

  <!-- Russian tagline -->
  <text x="280" y="340" font-family="Arial, sans-serif" font-size="22" font-style="italic"
        fill="#8B95A1" opacity="0.8">От икринки к королевской</text>

  <!-- Location -->
  <text x="280" y="380" font-family="Arial, sans-serif" font-size="20"
        fill="#8B95A1" opacity="0.7">Невельский район, Сахалин</text>

  <!-- Website with glow -->
  <text x="100" y="570" font-family="Arial, sans-serif" font-size="30" font-weight="bold"
        fill="#4FD1C5" filter="url(#glow)">royalketa.com</text>

  <!-- Enhanced decorative salmon silhouette -->
  <g transform="translate(950, 480)" opacity="0.2" filter="url(#softGlow)">
    <ellipse cx="0" cy="0" rx="90" ry="35" fill="#CFAE58"/>
    <path d="M 90 0 L 120 -18 L 130 0 L 120 18 Z" fill="#CFAE58"/>
    <path d="M -25 -35 L 0 -45 L 25 -35 Z" fill="#CFAE58"/>
    <ellipse cx="-50" cy="0" rx="15" ry="12" fill="#0B0F14"/>
  </g>

  <!-- Additional decorative caviar clusters -->
  <g opacity="0.2">
    <circle cx="1050" cy="120" r="6" fill="#CFAE58"/>
    <circle cx="1065" cy="115" r="5" fill="#CFAE58"/>
    <circle cx="1058" cy="130" r="4" fill="#CFAE58"/>
    <circle cx="150" cy="500" r="5" fill="#4FD1C5"/>
    <circle cx="165" cy="508" r="4" fill="#4FD1C5"/>
    <circle cx="140" cy="512" r="5" fill="#4FD1C5"/>
  </g>
</svg>