<svg width="1200" height="630" xmlns="http://www.w3.org/2000/svg">
  <defs>
    <linearGradient id="bgGradient" x1="0%" y1="0%" x2="100%" y2="100%">
      <stop offset="0%" style="stop-color:#0B0F14;stop-opacity:1" />
      <stop offset="50%" style="stop-color:#0F1619;stop-opacity:1" />
      <stop offset="100%" style="stop-color:#0F1922;stop-opacity:1" />
    </linearGradient>
    <linearGradient id="goldGradient" x1="0%" y1="0%" x2="100%" y2="0%">
      <stop offset="0%" style="stop-color:#E5D596;stop-opacity:1" />
      <stop offset="50%" style="stop-color:#CFAE58;stop-opacity:1" />
      <stop offset="100%" style="stop-color:#B89842;stop-opacity:1" />
    </linearGradient>
    <radialGradient id="oceanGradient" cx="50%" cy="50%" r="50%">
      <stop offset="0%" style="stop-color:#4FD1C5;stop-opacity:0.3" />
      <stop offset="100%" style="stop-color:#1E90A0;stop-opacity:0.05" />
    </radialGradient>
    <filter id="glow">
      <feGaussianBlur stdDeviation="5" result="coloredBlur"/>
      <feMerge>
        <feMergeNode in="coloredBlur"/>
        <feMergeNode in="SourceGraphic"/>
      </feMerge>
    </filter>
    <filter id="softGlow">
      <feGaussianBlur stdDeviation="8" result="coloredBlur"/>
      <feMerge>
        <feMergeNode in="coloredBlur"/>
        <feMergeNode in="SourceGraphic"/>
      </feMerge>
    </filter>
    <filter id="shadow">
      <feDropShadow dx="0" dy="4" stdDeviation="8" flood-color="#000000" flood-opacity="0.5"/>
    </filter>
  </defs>

  <!-- Background -->
  <rect width="1200" height="630" fill="url(#bgGradient)"/>

  <!-- Decorative ocean gradients -->
  <ellipse cx="1000" cy="150" rx="300" ry="200" fill="url(#oceanGradient)" opacity="0.4"/>
  <ellipse cx="200" cy="530" rx="250" ry="180" fill="url(#oceanGradient)" opacity="0.3"/>

  <!-- Wave patterns -->
  <path d="M 0 400 Q 300 350 600 400 T 1200 400 L 1200 630 L 0 630 Z" fill="#1E90A0" opacity="0.08"/>
  <path d="M 0 450 Q 250 420 500 450 T 1000 450 T 1200 450 L 1200 630 L 0 630 Z" fill="#4FD1C5" opacity="0.05"/>

  <!-- Caviar roe particles -->
  <circle cx="192.0527939733164" cy="144.19525495777046" r="5.61415813328516" fill="#CFAE58" opacity="0.21590511967110293"/>
  <circle cx="228.49861210903438" cy="468.01554029790594" r="4.838723769873116" fill="#CFAE58" opacity="0.18882381218197558"/>
  <circle cx="560.2487089557329" cy="255.51524211622177" r="3.7662746335532606" fill="#CFAE58" opacity="0.12729169523590342"/>
  <circle cx="345.083153636216" cy="28.98446532865584" r="2.414606259800718" fill="#CFAE58" opacity="0.2396763562584438"/>
  <circle cx="264.79222285320185" cy="418.9528662536468" r="4.41187717041545" fill="#CFAE58" opacity="0.15209115281670993"/>
  <circle cx="1104.5894852606225" cy="486.7324366249342" r="3.9661223063684785" fill="#CFAE58" opacity="0.20006064904256582"/>
  <circle cx="303.3496273609333" cy="198.20120336297" r="5.520134421930939" fill="#CFAE58" opacity="0.11376686068795544"/>
  <circle cx="149.80915734237533" cy="313.30581244713443" r="2.069067665972275" fill="#CFAE58" opacity="0.16523704671641923"/>
  <circle cx="367.4051493553789" cy="499.59463910706506" r="5.050495755572671" fill="#CFAE58" opacity="0.14845634735262622"/>
  <circle cx="716.1393694446728" cy="534.011351541647" r="4.704333747122796" fill="#CFAE58" opacity="0.13863144880245878"/>
  <circle cx="867.9862025218265" cy="423.9665040943518" r="4.037116332072449" fill="#CFAE58" opacity="0.2368365904096868"/>
  <circle cx="501.25880298927035" cy="375.330152349286" r="4.198564765694921" fill="#CFAE58" opacity="0.13990533911904668"/>
  <circle cx="1106.2166888192196" cy="46.397379125810666" r="3.9900558115459894" fill="#CFAE58" opacity="0.11888386554142322"/>
  <circle cx="373.0519389446843" cy="548.7409742360772" r="5.540889955961436" fill="#CFAE58" opacity="0.19697093244836172"/>
  <circle cx="193.92519397292477" cy="20.084808537854087" r="3.5211659673180407" fill="#CFAE58" opacity="0.13524577021581624"/>
  <circle cx="898.610813983811" cy="236.15829019278428" r="5.489115355649522" fill="#CFAE58" opacity="0.23714033514573188"/>
  <circle cx="1029.1967772760577" cy="470.2549470517534" r="4.3171925262248365" fill="#CFAE58" opacity="0.21546071048407142"/>
  <circle cx="841.2490201433917" cy="396.1803588782932" r="4.9621833229892" fill="#CFAE58" opacity="0.21396476992574856"/>
  <circle cx="1172.466591259429" cy="616.4833008717228" r="3.081344734101674" fill="#CFAE58" opacity="0.22920371390914837"/>
  <circle cx="648.5831848757286" cy="503.68616462560493" r="2.0156470685111234" fill="#CFAE58" opacity="0.13582844626190238"/>
  <circle cx="298.849012643303" cy="390.6493156875591" r="5.764415892890355" fill="#CFAE58" opacity="0.18592596032820066"/>
  <circle cx="1035.7984177927715" cy="287.35194614594093" r="2.941447057728457" fill="#CFAE58" opacity="0.24675216136736372"/>
  <circle cx="732.2589900414002" cy="361.63509275550274" r="4.83238398191956" fill="#CFAE58" opacity="0.2155344167682003"/>
  <circle cx="278.3503951714419" cy="440.0705919928641" r="4.405368358383693" fill="#CFAE58" opacity="0.1910385493528179"/>
  <circle cx="1117.8976428639648" cy="33.98167104673441" r="2.3871145163785457" fill="#CFAE58" opacity="0.13043272171438194"/>
  <circle cx="1058.5976303867685" cy="296.6371965428512" r="3.6904997628675913" fill="#CFAE58" opacity="0.13239245069724254"/>
  <circle cx="1095.0906799582253" cy="440.2285404545227" r="3.730991940397878" fill="#CFAE58" opacity="0.15938590868175004"/>
  <circle cx="70.25127714329145" cy="81.82897261716333" r="3.9094864531213" fill="#CFAE58" opacity="0.14649357340574165"/>
  <circle cx="577.252336380298" cy="465.9311816138528" r="5.517912461102947" fill="#CFAE58" opacity="0.1701662332537705"/>
  <circle cx="691.361478118024" cy="560.0829562714406" r="3.38059909770391" fill="#CFAE58" opacity="0.14110612258665148"/>

  <!-- Border with glow -->
  <rect x="40" y="40" width="1120" height="550" fill="none" stroke="url(#goldGradient)" stroke-width="3" rx="12" filter="url(#softGlow)"/>

  <!-- Icon circle with premium background -->
  <circle cx="150" cy="200" r="75" fill="#CFAE58" opacity="0.15" filter="url(#softGlow)"/>
  <circle cx="150" cy="200" r="70" fill="#CFAE58" opacity="0.25"/>
  <text x="150" y="235" font-size="90" text-anchor="middle" fill="#CFAE58" filter="url(#glow)">📸</text>

  <!-- Premium logo (crown) with enhanced styling -->
  <g transform="translate(100, 70)">
    <path d="M 30 20 L 40 35 L 35 35 Z M 50 15 L 60 35 L 45 35 Z M 65 20 L 75 35 L 70 35 Z M 30 35 L 75 35 L 73 45 L 32 45 Z"
          fill="url(#goldGradient)" filter="url(#glow)" stroke="#B89842" stroke-width="0.5"/>
    <circle cx="40" cy="25" r="3" fill="#4FD1C5" filter="url(#glow)"/>
    <circle cx="52" cy="20" r="4" fill="#4FD1C5" filter="url(#glow)"/>
    <circle cx="65" cy="25" r="3" fill="#4FD1C5" filter="url(#glow)"/>
  </g>

  <!-- Title with shadow -->
  <text x="280" y="180" font-family="Georgia, serif" font-size="72" font-weight="bold"
        fill="url(#goldGradient)" filter="url(#shadow)">Photo Gallery</text>

  <!-- Subtitle with subtle glow -->
  <text x="280" y="230" font-family="Arial, sans-serif" font-size="36"
        fill="#D6DEE6" opacity="0.95" filter="url(#softGlow)">Science, Family Tours &amp; Caviar Production</text>

  <!-- Brand name with letter spacing -->
  <text x="280" y="300" font-family="Georgia, serif" font-size="32" font-weight="bold"
        fill="#CFAE58" letter-spacing="4" filter="url(#glow)">ROYAL KETA</text>

  <!-- Russian tagline -->
  <text x="280" y="340" font-family="Arial, sans-serif" font-size="22" font-style="italic"
        fill="#8B95A1" opacity="0.8">От икринки к королевской</text>

  <!-- Location -->
  <text x="280" y="380" font-family="Arial, sans-serif" font-size="20"
        fill="#8B95A1" opacity="0.7">Невельский район, Сахалин</text>

  <!-- Website with glow -->
  <text x="100" y="570" font-family="Arial, sans-serif" font-size="30" font-weight="bold"
        fill="#4FD1C5" filter="url(#glow)">royalketa.com</text>

  <!-- Enhanced decorative salmon silhouette -->
  <g transform="translate(950, 480)" opacity="0.2" filter="url(#softGlow)">
    <ellipse cx="0" cy="0" rx="90" ry="35" fill="#CFAE58"/>
    <path d="M 90 0 L 120 -18 L 130 0 L 120 18 Z" fill="#CFAE58"/>
    <path d="M -25 -35 L 0 -45 L 25 -35 Z" fill="#CFAE58"/>
    <ellipse cx="-50" cy="0" rx="15" ry="12" fill="#0B0F14"/>
  </g>

  <!-- Additional decorative caviar clusters -->
  <g opacity="0.2">
    <circle cx="1050" cy="120" r="6" fill="#CFAE58"/>
    <circle cx="1065" cy="115" r="5" fill="#CFAE58"/>
    <circle cx="1058" cy="130" r="4" fill="#CFAE58"/>
    <circle cx="150" cy="500" r="5" fill="#4FD1C5"/>
    <circle cx="165" cy="508" r="4" fill="#4FD1C5"/>
    <circle cx="140" cy="512" r="5" fill="#4FD1C5"/>
  </g>
</svg>