<svg width="1200" height="630" xmlns="http://www.w3.org/2000/svg">
  <defs>
    <linearGradient id="bgGradient" x1="0%" y1="0%" x2="100%" y2="100%">
      <stop offset="0%" style="stop-color:#0B0F14;stop-opacity:1" />
      <stop offset="50%" style="stop-color:#0F1619;stop-opacity:1" />
      <stop offset="100%" style="stop-color:#0F1922;stop-opacity:1" />
    </linearGradient>
    <linearGradient id="goldGradient" x1="0%" y1="0%" x2="100%" y2="0%">
      <stop offset="0%" style="stop-color:#E5D596;stop-opacity:1" />
      <stop offset="50%" style="stop-color:#CFAE58;stop-opacity:1" />
      <stop offset="100%" style="stop-color:#B89842;stop-opacity:1" />
    </linearGradient>
    <radialGradient id="oceanGradient" cx="50%" cy="50%" r="50%">
      <stop offset="0%" style="stop-color:#4FD1C5;stop-opacity:0.3" />
      <stop offset="100%" style="stop-color:#1E90A0;stop-opacity:0.05" />
    </radialGradient>
    <filter id="glow">
      <feGaussianBlur stdDeviation="5" result="coloredBlur"/>
      <feMerge>
        <feMergeNode in="coloredBlur"/>
        <feMergeNode in="SourceGraphic"/>
      </feMerge>
    </filter>
    <filter id="softGlow">
      <feGaussianBlur stdDeviation="8" result="coloredBlur"/>
      <feMerge>
        <feMergeNode in="coloredBlur"/>
        <feMergeNode in="SourceGraphic"/>
      </feMerge>
    </filter>
    <filter id="shadow">
      <feDropShadow dx="0" dy="4" stdDeviation="8" flood-color="#000000" flood-opacity="0.5"/>
    </filter>
  </defs>

  <!-- Background -->
  <rect width="1200" height="630" fill="url(#bgGradient)"/>

  <!-- Decorative ocean gradients -->
  <ellipse cx="1000" cy="150" rx="300" ry="200" fill="url(#oceanGradient)" opacity="0.4"/>
  <ellipse cx="200" cy="530" rx="250" ry="180" fill="url(#oceanGradient)" opacity="0.3"/>

  <!-- Wave patterns -->
  <path d="M 0 400 Q 300 350 600 400 T 1200 400 L 1200 630 L 0 630 Z" fill="#1E90A0" opacity="0.08"/>
  <path d="M 0 450 Q 250 420 500 450 T 1000 450 T 1200 450 L 1200 630 L 0 630 Z" fill="#4FD1C5" opacity="0.05"/>

  <!-- Caviar roe particles -->
  <circle cx="22.971685717099444" cy="336.5858185895186" r="2.974551533325127" fill="#CFAE58" opacity="0.11363428769657946"/>
  <circle cx="780.7844010417542" cy="105.39039987452486" r="4.5781141086330965" fill="#CFAE58" opacity="0.1739702809653285"/>
  <circle cx="254.62559567605805" cy="190.0826398252208" r="5.44545872496949" fill="#CFAE58" opacity="0.13099232874979044"/>
  <circle cx="492.78724264746546" cy="605.8092180638381" r="2.385908856476785" fill="#CFAE58" opacity="0.11044688219909443"/>
  <circle cx="66.76698141530677" cy="303.5599896697253" r="3.845775610350029" fill="#CFAE58" opacity="0.20065525146352647"/>
  <circle cx="288.0391899163412" cy="297.16353021681346" r="4.108327752654058" fill="#CFAE58" opacity="0.10226001129193694"/>
  <circle cx="487.34634672816065" cy="88.74832845744716" r="3.8766137286865723" fill="#CFAE58" opacity="0.17834444374880082"/>
  <circle cx="874.6158997874862" cy="304.247537683525" r="4.662601194087253" fill="#CFAE58" opacity="0.16461104896531173"/>
  <circle cx="840.5206870590173" cy="116.45330386210014" r="4.592891324166756" fill="#CFAE58" opacity="0.130339480474927"/>
  <circle cx="471.5098783154128" cy="417.45004145973815" r="3.2638605196602715" fill="#CFAE58" opacity="0.17095091047218758"/>
  <circle cx="79.0702662452019" cy="454.4513589485567" r="2.7432763723605484" fill="#CFAE58" opacity="0.15911111150760907"/>
  <circle cx="511.23878716802267" cy="89.5095553883953" r="3.928810213217413" fill="#CFAE58" opacity="0.20687776645317552"/>
  <circle cx="823.8108709425303" cy="495.5190042406961" r="5.117717566762547" fill="#CFAE58" opacity="0.21786119546425786"/>
  <circle cx="54.5552758795818" cy="621.9697526853778" r="2.6948637280659806" fill="#CFAE58" opacity="0.14478072426224947"/>
  <circle cx="628.2024270107386" cy="140.82936057352546" r="3.2907247201549774" fill="#CFAE58" opacity="0.2118212193338989"/>
  <circle cx="695.5752567494687" cy="435.0674796346447" r="4.713823573713985" fill="#CFAE58" opacity="0.2373936348896869"/>
  <circle cx="977.9586684602066" cy="180.03554646641308" r="2.367027548992951" fill="#CFAE58" opacity="0.12926957790944305"/>
  <circle cx="31.121367309465153" cy="90.55271247163311" r="4.7066619681540445" fill="#CFAE58" opacity="0.1913674844043553"/>
  <circle cx="193.73747678990537" cy="97.18154055952039" r="4.915144303291566" fill="#CFAE58" opacity="0.17749145210295436"/>
  <circle cx="173.61346847180351" cy="199.8121537907449" r="3.252431459957551" fill="#CFAE58" opacity="0.16331641243987594"/>
  <circle cx="200.89203209782926" cy="582.620994972307" r="5.366003545066471" fill="#CFAE58" opacity="0.22753433378988966"/>
  <circle cx="19.651657505664488" cy="493.5181608043359" r="5.504467571052545" fill="#CFAE58" opacity="0.21793256189161514"/>
  <circle cx="970.6113193816027" cy="529.5980471754997" r="2.3256602528592314" fill="#CFAE58" opacity="0.24063571457835325"/>
  <circle cx="422.47120083441115" cy="154.90549996854247" r="4.6744565069160915" fill="#CFAE58" opacity="0.14338066949167375"/>
  <circle cx="258.1796889473057" cy="377.4147381456087" r="4.306720848964605" fill="#CFAE58" opacity="0.16696173199758713"/>
  <circle cx="497.1295661629606" cy="575.8595211767101" r="4.443128638563307" fill="#CFAE58" opacity="0.15525722783556883"/>
  <circle cx="629.7787094204009" cy="293.51739185394155" r="5.086358168348373" fill="#CFAE58" opacity="0.15992937976383292"/>
  <circle cx="388.3938706122124" cy="450.8701043139019" r="3.8494775662197496" fill="#CFAE58" opacity="0.21300162684876994"/>
  <circle cx="114.93683048400128" cy="145.81970082846135" r="4.921991155978056" fill="#CFAE58" opacity="0.22171970568527652"/>
  <circle cx="600.7677491261418" cy="307.55299050249954" r="3.426421477653909" fill="#CFAE58" opacity="0.1672261059075129"/>

  <!-- Border with glow -->
  <rect x="40" y="40" width="1120" height="550" fill="none" stroke="url(#goldGradient)" stroke-width="3" rx="12" filter="url(#softGlow)"/>

  <!-- Icon circle with premium background -->
  <circle cx="150" cy="200" r="75" fill="#CFAE58" opacity="0.15" filter="url(#softGlow)"/>
  <circle cx="150" cy="200" r="70" fill="#CFAE58" opacity="0.25"/>
  <text x="150" y="235" font-size="90" text-anchor="middle" fill="#CFAE58" filter="url(#glow)">📸</text>

  <!-- Premium logo (crown) with enhanced styling -->
  <g transform="translate(100, 70)">
    <path d="M 30 20 L 40 35 L 35 35 Z M 50 15 L 60 35 L 45 35 Z M 65 20 L 75 35 L 70 35 Z M 30 35 L 75 35 L 73 45 L 32 45 Z"
          fill="url(#goldGradient)" filter="url(#glow)" stroke="#B89842" stroke-width="0.5"/>
    <circle cx="40" cy="25" r="3" fill="#4FD1C5" filter="url(#glow)"/>
    <circle cx="52" cy="20" r="4" fill="#4FD1C5" filter="url(#glow)"/>
    <circle cx="65" cy="25" r="3" fill="#4FD1C5" filter="url(#glow)"/>
  </g>

  <!-- Title with shadow -->
  <text x="280" y="180" font-family="Georgia, serif" font-size="72" font-weight="bold"
        fill="url(#goldGradient)" filter="url(#shadow)">Photo Gallery</text>

  <!-- Subtitle with subtle glow -->
  <text x="280" y="230" font-family="Arial, sans-serif" font-size="36"
        fill="#D6DEE6" opacity="0.95" filter="url(#softGlow)">Science, Family Tours & Caviar Production</text>

  <!-- Brand name with letter spacing -->
  <text x="280" y="300" font-family="Georgia, serif" font-size="32" font-weight="bold"
        fill="#CFAE58" letter-spacing="4" filter="url(#glow)">ROYAL KETA</text>

  <!-- Russian tagline -->
  <text x="280" y="340" font-family="Arial, sans-serif" font-size="22" font-style="italic"
        fill="#8B95A1" opacity="0.8">От икринки к королевской</text>

  <!-- Location -->
  <text x="280" y="380" font-family="Arial, sans-serif" font-size="20"
        fill="#8B95A1" opacity="0.7">Невельский район, Сахалин</text>

  <!-- Website with glow -->
  <text x="100" y="570" font-family="Arial, sans-serif" font-size="30" font-weight="bold"
        fill="#4FD1C5" filter="url(#glow)">royalketa.com</text>

  <!-- Enhanced decorative salmon silhouette -->
  <g transform="translate(950, 480)" opacity="0.2" filter="url(#softGlow)">
    <ellipse cx="0" cy="0" rx="90" ry="35" fill="#CFAE58"/>
    <path d="M 90 0 L 120 -18 L 130 0 L 120 18 Z" fill="#CFAE58"/>
    <path d="M -25 -35 L 0 -45 L 25 -35 Z" fill="#CFAE58"/>
    <ellipse cx="-50" cy="0" rx="15" ry="12" fill="#0B0F14"/>
  </g>

  <!-- Additional decorative caviar clusters -->
  <g opacity="0.2">
    <circle cx="1050" cy="120" r="6" fill="#CFAE58"/>
    <circle cx="1065" cy="115" r="5" fill="#CFAE58"/>
    <circle cx="1058" cy="130" r="4" fill="#CFAE58"/>
    <circle cx="150" cy="500" r="5" fill="#4FD1C5"/>
    <circle cx="165" cy="508" r="4" fill="#4FD1C5"/>
    <circle cx="140" cy="512" r="5" fill="#4FD1C5"/>
  </g>
</svg>