<svg width="1200" height="630" xmlns="http://www.w3.org/2000/svg">
  <defs>
    <linearGradient id="bgGradient" x1="0%" y1="0%" x2="100%" y2="100%">
      <stop offset="0%" style="stop-color:#0B0F14;stop-opacity:1" />
      <stop offset="50%" style="stop-color:#0F1619;stop-opacity:1" />
      <stop offset="100%" style="stop-color:#0F1922;stop-opacity:1" />
    </linearGradient>
    <linearGradient id="goldGradient" x1="0%" y1="0%" x2="100%" y2="0%">
      <stop offset="0%" style="stop-color:#E5D596;stop-opacity:1" />
      <stop offset="50%" style="stop-color:#CFAE58;stop-opacity:1" />
      <stop offset="100%" style="stop-color:#B89842;stop-opacity:1" />
    </linearGradient>
    <radialGradient id="oceanGradient" cx="50%" cy="50%" r="50%">
      <stop offset="0%" style="stop-color:#4FD1C5;stop-opacity:0.3" />
      <stop offset="100%" style="stop-color:#1E90A0;stop-opacity:0.05" />
    </radialGradient>
    <filter id="glow">
      <feGaussianBlur stdDeviation="5" result="coloredBlur"/>
      <feMerge>
        <feMergeNode in="coloredBlur"/>
        <feMergeNode in="SourceGraphic"/>
      </feMerge>
    </filter>
    <filter id="softGlow">
      <feGaussianBlur stdDeviation="8" result="coloredBlur"/>
      <feMerge>
        <feMergeNode in="coloredBlur"/>
        <feMergeNode in="SourceGraphic"/>
      </feMerge>
    </filter>
    <filter id="shadow">
      <feDropShadow dx="0" dy="4" stdDeviation="8" flood-color="#000000" flood-opacity="0.5"/>
    </filter>
  </defs>

  <!-- Background -->
  <rect width="1200" height="630" fill="url(#bgGradient)"/>

  <!-- Decorative ocean gradients -->
  <ellipse cx="1000" cy="150" rx="300" ry="200" fill="url(#oceanGradient)" opacity="0.4"/>
  <ellipse cx="200" cy="530" rx="250" ry="180" fill="url(#oceanGradient)" opacity="0.3"/>

  <!-- Wave patterns -->
  <path d="M 0 400 Q 300 350 600 400 T 1200 400 L 1200 630 L 0 630 Z" fill="#1E90A0" opacity="0.08"/>
  <path d="M 0 450 Q 250 420 500 450 T 1000 450 T 1200 450 L 1200 630 L 0 630 Z" fill="#4FD1C5" opacity="0.05"/>

  <!-- Caviar roe particles -->
  <circle cx="14.226024274055504" cy="1.870502686639235" r="5.006268388917539" fill="#CFAE58" opacity="0.11007312212021123"/>
  <circle cx="1017.0380169294157" cy="557.9848464721024" r="5.258892496777734" fill="#CFAE58" opacity="0.19331889171842317"/>
  <circle cx="250.93009156279055" cy="151.41867188679086" r="4.512252645159393" fill="#CFAE58" opacity="0.2078604426251453"/>
  <circle cx="1120.0299684936513" cy="531.4381692034499" r="5.5265278084061125" fill="#CFAE58" opacity="0.17801424325880943"/>
  <circle cx="23.64726752804076" cy="94.25865643776312" r="3.670308727075982" fill="#CFAE58" opacity="0.2295995039066419"/>
  <circle cx="1014.5927576696924" cy="382.9764605416706" r="2.183990612943848" fill="#CFAE58" opacity="0.15259189225694747"/>
  <circle cx="201.28733718869574" cy="561.2092259159903" r="2.8682045814072525" fill="#CFAE58" opacity="0.173588598010502"/>
  <circle cx="1024.0125509635438" cy="448.1980972601487" r="5.046382275618107" fill="#CFAE58" opacity="0.19264573307890798"/>
  <circle cx="854.5891165625934" cy="18.777054310002345" r="4.105242832233985" fill="#CFAE58" opacity="0.15947353052537988"/>
  <circle cx="1008.2167916922823" cy="560.0479804736372" r="2.3892746799163236" fill="#CFAE58" opacity="0.1205233129080898"/>
  <circle cx="637.9683069681116" cy="439.3558326931663" r="4.172786566656535" fill="#CFAE58" opacity="0.1266756965778977"/>
  <circle cx="1123.3056000441186" cy="352.91399124151957" r="2.3608267155689937" fill="#CFAE58" opacity="0.10094293238775422"/>
  <circle cx="483.0883660422825" cy="491.8899187259125" r="5.454340215755198" fill="#CFAE58" opacity="0.15863063029617808"/>
  <circle cx="522.1273666496005" cy="235.50606591460547" r="4.988889961680808" fill="#CFAE58" opacity="0.10107556366246882"/>
  <circle cx="1115.1831491488203" cy="248.1486666243052" r="4.8198486516066605" fill="#CFAE58" opacity="0.20454539750390277"/>
  <circle cx="722.9212203131962" cy="225.261731759955" r="4.620660971918251" fill="#CFAE58" opacity="0.1507321357712477"/>
  <circle cx="177.8146978991403" cy="564.4826900238616" r="2.6108350299186665" fill="#CFAE58" opacity="0.11308014682594326"/>
  <circle cx="165.89056075661864" cy="68.97933619300991" r="5.247902841728777" fill="#CFAE58" opacity="0.22493418503220722"/>
  <circle cx="309.80463229854047" cy="124.90223984109346" r="2.6622421046805345" fill="#CFAE58" opacity="0.11561723365568599"/>
  <circle cx="977.6764692782626" cy="63.61223239051588" r="4.204530366434491" fill="#CFAE58" opacity="0.2018667082124641"/>
  <circle cx="1015.3010802354054" cy="602.0313572428781" r="3.297815082980496" fill="#CFAE58" opacity="0.1355726648421314"/>
  <circle cx="330.93268786012925" cy="620.9953273482015" r="3.6614874910705346" fill="#CFAE58" opacity="0.11231978854748309"/>
  <circle cx="713.6834482162903" cy="112.68061341439356" r="2.9022619951863176" fill="#CFAE58" opacity="0.10611032457817621"/>
  <circle cx="575.6932189766048" cy="416.01866432795265" r="4.382327697504492" fill="#CFAE58" opacity="0.191631156375342"/>
  <circle cx="456.17600379123206" cy="50.30306387538894" r="3.062437159702423" fill="#CFAE58" opacity="0.16423542309902867"/>
  <circle cx="975.4832258079103" cy="245.83538976295054" r="3.8437961451701357" fill="#CFAE58" opacity="0.11691406433602664"/>
  <circle cx="624.2068201110541" cy="154.44513100293872" r="4.02252065128832" fill="#CFAE58" opacity="0.1861397536024753"/>
  <circle cx="1053.3210680499405" cy="303.8024665813157" r="2.6866911355501033" fill="#CFAE58" opacity="0.22237196865115105"/>
  <circle cx="605.6337085151812" cy="459.44601525933786" r="5.999430068703681" fill="#CFAE58" opacity="0.11499031834442001"/>
  <circle cx="360.8393191908986" cy="217.3092415718539" r="2.629328841241075" fill="#CFAE58" opacity="0.11195548878206335"/>

  <!-- Border with glow -->
  <rect x="40" y="40" width="1120" height="550" fill="none" stroke="url(#goldGradient)" stroke-width="3" rx="12" filter="url(#softGlow)"/>

  <!-- Icon circle with premium background -->
  <circle cx="150" cy="200" r="75" fill="#CFAE58" opacity="0.15" filter="url(#softGlow)"/>
  <circle cx="150" cy="200" r="70" fill="#CFAE58" opacity="0.25"/>
  <text x="150" y="235" font-size="90" text-anchor="middle" fill="#CFAE58" filter="url(#glow)">📸</text>

  <!-- Premium logo (crown) with enhanced styling -->
  <g transform="translate(100, 70)">
    <path d="M 30 20 L 40 35 L 35 35 Z M 50 15 L 60 35 L 45 35 Z M 65 20 L 75 35 L 70 35 Z M 30 35 L 75 35 L 73 45 L 32 45 Z"
          fill="url(#goldGradient)" filter="url(#glow)" stroke="#B89842" stroke-width="0.5"/>
    <circle cx="40" cy="25" r="3" fill="#4FD1C5" filter="url(#glow)"/>
    <circle cx="52" cy="20" r="4" fill="#4FD1C5" filter="url(#glow)"/>
    <circle cx="65" cy="25" r="3" fill="#4FD1C5" filter="url(#glow)"/>
  </g>

  <!-- Title with shadow -->
  <text x="280" y="180" font-family="Georgia, serif" font-size="72" font-weight="bold"
        fill="url(#goldGradient)" filter="url(#shadow)">Photo Gallery</text>

  <!-- Subtitle with subtle glow -->
  <text x="280" y="230" font-family="Arial, sans-serif" font-size="36"
        fill="#D6DEE6" opacity="0.95" filter="url(#softGlow)">Science, Family Tours &amp; Caviar Production</text>

  <!-- Brand name with letter spacing -->
  <text x="280" y="300" font-family="Georgia, serif" font-size="32" font-weight="bold"
        fill="#CFAE58" letter-spacing="4" filter="url(#glow)">ROYAL KETA</text>

  <!-- Russian tagline -->
  <text x="280" y="340" font-family="Arial, sans-serif" font-size="22" font-style="italic"
        fill="#8B95A1" opacity="0.8">От икринки к королевской</text>

  <!-- Location -->
  <text x="280" y="380" font-family="Arial, sans-serif" font-size="20"
        fill="#8B95A1" opacity="0.7">Невельский район, Сахалин</text>

  <!-- Website with glow -->
  <text x="100" y="570" font-family="Arial, sans-serif" font-size="30" font-weight="bold"
        fill="#4FD1C5" filter="url(#glow)">royalketa.com</text>

  <!-- Enhanced decorative salmon silhouette -->
  <g transform="translate(950, 480)" opacity="0.2" filter="url(#softGlow)">
    <ellipse cx="0" cy="0" rx="90" ry="35" fill="#CFAE58"/>
    <path d="M 90 0 L 120 -18 L 130 0 L 120 18 Z" fill="#CFAE58"/>
    <path d="M -25 -35 L 0 -45 L 25 -35 Z" fill="#CFAE58"/>
    <ellipse cx="-50" cy="0" rx="15" ry="12" fill="#0B0F14"/>
  </g>

  <!-- Additional decorative caviar clusters -->
  <g opacity="0.2">
    <circle cx="1050" cy="120" r="6" fill="#CFAE58"/>
    <circle cx="1065" cy="115" r="5" fill="#CFAE58"/>
    <circle cx="1058" cy="130" r="4" fill="#CFAE58"/>
    <circle cx="150" cy="500" r="5" fill="#4FD1C5"/>
    <circle cx="165" cy="508" r="4" fill="#4FD1C5"/>
    <circle cx="140" cy="512" r="5" fill="#4FD1C5"/>
  </g>
</svg>