<svg width="1200" height="630" xmlns="http://www.w3.org/2000/svg">
  <defs>
    <linearGradient id="bgGradient" x1="0%" y1="0%" x2="100%" y2="100%">
      <stop offset="0%" style="stop-color:#0B0F14;stop-opacity:1" />
      <stop offset="50%" style="stop-color:#0F1619;stop-opacity:1" />
      <stop offset="100%" style="stop-color:#0F1922;stop-opacity:1" />
    </linearGradient>
    <linearGradient id="goldGradient" x1="0%" y1="0%" x2="100%" y2="0%">
      <stop offset="0%" style="stop-color:#E5D596;stop-opacity:1" />
      <stop offset="50%" style="stop-color:#CFAE58;stop-opacity:1" />
      <stop offset="100%" style="stop-color:#B89842;stop-opacity:1" />
    </linearGradient>
    <radialGradient id="oceanGradient" cx="50%" cy="50%" r="50%">
      <stop offset="0%" style="stop-color:#4FD1C5;stop-opacity:0.3" />
      <stop offset="100%" style="stop-color:#1E90A0;stop-opacity:0.05" />
    </radialGradient>
    <filter id="glow">
      <feGaussianBlur stdDeviation="5" result="coloredBlur"/>
      <feMerge>
        <feMergeNode in="coloredBlur"/>
        <feMergeNode in="SourceGraphic"/>
      </feMerge>
    </filter>
    <filter id="softGlow">
      <feGaussianBlur stdDeviation="8" result="coloredBlur"/>
      <feMerge>
        <feMergeNode in="coloredBlur"/>
        <feMergeNode in="SourceGraphic"/>
      </feMerge>
    </filter>
    <filter id="shadow">
      <feDropShadow dx="0" dy="4" stdDeviation="8" flood-color="#000000" flood-opacity="0.5"/>
    </filter>
  </defs>

  <!-- Background -->
  <rect width="1200" height="630" fill="url(#bgGradient)"/>

  <!-- Decorative ocean gradients -->
  <ellipse cx="1000" cy="150" rx="300" ry="200" fill="url(#oceanGradient)" opacity="0.4"/>
  <ellipse cx="200" cy="530" rx="250" ry="180" fill="url(#oceanGradient)" opacity="0.3"/>

  <!-- Wave patterns -->
  <path d="M 0 400 Q 300 350 600 400 T 1200 400 L 1200 630 L 0 630 Z" fill="#1E90A0" opacity="0.08"/>
  <path d="M 0 450 Q 250 420 500 450 T 1000 450 T 1200 450 L 1200 630 L 0 630 Z" fill="#4FD1C5" opacity="0.05"/>

  <!-- Caviar roe particles -->
  <circle cx="37.57423981511998" cy="542.0549285724893" r="5.892347897134843" fill="#CFAE58" opacity="0.23129074759598311"/>
  <circle cx="985.5401220899265" cy="513.4904321986186" r="4.922608721271398" fill="#CFAE58" opacity="0.18889135690870096"/>
  <circle cx="1130.046682246137" cy="221.05278327096633" r="4.73871757002751" fill="#CFAE58" opacity="0.16307553554861742"/>
  <circle cx="854.6198055285832" cy="354.58665986814685" r="5.634019283260866" fill="#CFAE58" opacity="0.24242112419449358"/>
  <circle cx="938.4898891908518" cy="133.08349042892607" r="3.8431432467509605" fill="#CFAE58" opacity="0.1990688547686416"/>
  <circle cx="1159.7199683374592" cy="314.3271724074266" r="5.311324766362896" fill="#CFAE58" opacity="0.169561818633229"/>
  <circle cx="518.710298083722" cy="278.3603904871004" r="4.130440041290901" fill="#CFAE58" opacity="0.15003826628486236"/>
  <circle cx="141.39844351484047" cy="311.1204791953475" r="3.0300670297219074" fill="#CFAE58" opacity="0.14167427667102894"/>
  <circle cx="793.0573492474921" cy="575.314663601489" r="3.747903434947638" fill="#CFAE58" opacity="0.1449601493751695"/>
  <circle cx="651.9770132969985" cy="414.4167107452718" r="2.2810731875830603" fill="#CFAE58" opacity="0.2093733134115941"/>
  <circle cx="369.99934635736184" cy="533.4863972257441" r="5.242809939523738" fill="#CFAE58" opacity="0.1404867527788957"/>
  <circle cx="1011.4491984219563" cy="279.55950252051804" r="3.3455381100269976" fill="#CFAE58" opacity="0.216840133880441"/>
  <circle cx="1147.1685501620389" cy="385.5194892634448" r="5.216326068658388" fill="#CFAE58" opacity="0.10653458272664142"/>
  <circle cx="813.2312421740008" cy="536.4793055211787" r="5.333373848057621" fill="#CFAE58" opacity="0.21946916184198065"/>
  <circle cx="928.7015630324013" cy="144.57308565518568" r="2.0193910554368273" fill="#CFAE58" opacity="0.1999356311546885"/>
  <circle cx="1064.6783757434125" cy="604.9244479637579" r="5.735714901208533" fill="#CFAE58" opacity="0.21771766223770164"/>
  <circle cx="1151.867840971143" cy="197.69867400304602" r="2.099390334819044" fill="#CFAE58" opacity="0.2154966635918808"/>
  <circle cx="820.1650755743102" cy="260.93282517676755" r="2.4000529598725677" fill="#CFAE58" opacity="0.18620286960015914"/>
  <circle cx="338.30677419460864" cy="444.769875346094" r="5.8166070148902" fill="#CFAE58" opacity="0.14601553183318633"/>
  <circle cx="386.50988233274563" cy="159.58042344541758" r="4.426056165076864" fill="#CFAE58" opacity="0.19115732759666254"/>
  <circle cx="182.30225790382715" cy="478.16436923758613" r="2.2467417333096193" fill="#CFAE58" opacity="0.12842227795794733"/>
  <circle cx="900.7995125156395" cy="198.9052003518605" r="4.24200636059575" fill="#CFAE58" opacity="0.19157630679367732"/>
  <circle cx="774.9394959187134" cy="52.66578787563055" r="4.972921875193185" fill="#CFAE58" opacity="0.21202503582978505"/>
  <circle cx="911.869206270931" cy="449.87412461112535" r="2.659615692576967" fill="#CFAE58" opacity="0.21353126223430635"/>
  <circle cx="170.75869716452115" cy="328.65309436169304" r="3.0941419152644656" fill="#CFAE58" opacity="0.21855260202668503"/>
  <circle cx="86.77963548341525" cy="275.931164665853" r="5.264348839349064" fill="#CFAE58" opacity="0.20270618310249203"/>
  <circle cx="354.1141324650332" cy="386.8398392331202" r="4.88729640552939" fill="#CFAE58" opacity="0.166261762352536"/>
  <circle cx="793.4662881895314" cy="569.9943896559871" r="4.961534953340448" fill="#CFAE58" opacity="0.11727343104545318"/>
  <circle cx="1122.2554651643366" cy="141.93212167955815" r="3.6361464232933" fill="#CFAE58" opacity="0.22872740998897292"/>
  <circle cx="219.348137340366" cy="110.74765834081339" r="5.814782127611765" fill="#CFAE58" opacity="0.14873133073958855"/>

  <!-- Border with glow -->
  <rect x="40" y="40" width="1120" height="550" fill="none" stroke="url(#goldGradient)" stroke-width="3" rx="12" filter="url(#softGlow)"/>

  <!-- Icon circle with premium background -->
  <circle cx="150" cy="200" r="75" fill="#CFAE58" opacity="0.15" filter="url(#softGlow)"/>
  <circle cx="150" cy="200" r="70" fill="#CFAE58" opacity="0.25"/>
  <text x="150" y="235" font-size="90" text-anchor="middle" fill="#CFAE58" filter="url(#glow)">📸</text>

  <!-- Premium logo (crown) with enhanced styling -->
  <g transform="translate(100, 70)">
    <path d="M 30 20 L 40 35 L 35 35 Z M 50 15 L 60 35 L 45 35 Z M 65 20 L 75 35 L 70 35 Z M 30 35 L 75 35 L 73 45 L 32 45 Z"
          fill="url(#goldGradient)" filter="url(#glow)" stroke="#B89842" stroke-width="0.5"/>
    <circle cx="40" cy="25" r="3" fill="#4FD1C5" filter="url(#glow)"/>
    <circle cx="52" cy="20" r="4" fill="#4FD1C5" filter="url(#glow)"/>
    <circle cx="65" cy="25" r="3" fill="#4FD1C5" filter="url(#glow)"/>
  </g>

  <!-- Title with shadow -->
  <text x="280" y="180" font-family="Georgia, serif" font-size="72" font-weight="bold"
        fill="url(#goldGradient)" filter="url(#shadow)">Photo Gallery</text>

  <!-- Subtitle with subtle glow -->
  <text x="280" y="230" font-family="Arial, sans-serif" font-size="36"
        fill="#D6DEE6" opacity="0.95" filter="url(#softGlow)">Science, Family Tours &amp; Caviar Production</text>

  <!-- Brand name with letter spacing -->
  <text x="280" y="300" font-family="Georgia, serif" font-size="32" font-weight="bold"
        fill="#CFAE58" letter-spacing="4" filter="url(#glow)">ROYAL KETA</text>

  <!-- Russian tagline -->
  <text x="280" y="340" font-family="Arial, sans-serif" font-size="22" font-style="italic"
        fill="#8B95A1" opacity="0.8">От икринки к королевской</text>

  <!-- Location -->
  <text x="280" y="380" font-family="Arial, sans-serif" font-size="20"
        fill="#8B95A1" opacity="0.7">Невельский район, Сахалин</text>

  <!-- Website with glow -->
  <text x="100" y="570" font-family="Arial, sans-serif" font-size="30" font-weight="bold"
        fill="#4FD1C5" filter="url(#glow)">royalketa.com</text>

  <!-- Enhanced decorative salmon silhouette -->
  <g transform="translate(950, 480)" opacity="0.2" filter="url(#softGlow)">
    <ellipse cx="0" cy="0" rx="90" ry="35" fill="#CFAE58"/>
    <path d="M 90 0 L 120 -18 L 130 0 L 120 18 Z" fill="#CFAE58"/>
    <path d="M -25 -35 L 0 -45 L 25 -35 Z" fill="#CFAE58"/>
    <ellipse cx="-50" cy="0" rx="15" ry="12" fill="#0B0F14"/>
  </g>

  <!-- Additional decorative caviar clusters -->
  <g opacity="0.2">
    <circle cx="1050" cy="120" r="6" fill="#CFAE58"/>
    <circle cx="1065" cy="115" r="5" fill="#CFAE58"/>
    <circle cx="1058" cy="130" r="4" fill="#CFAE58"/>
    <circle cx="150" cy="500" r="5" fill="#4FD1C5"/>
    <circle cx="165" cy="508" r="4" fill="#4FD1C5"/>
    <circle cx="140" cy="512" r="5" fill="#4FD1C5"/>
  </g>
</svg>