<svg width="1200" height="630" xmlns="http://www.w3.org/2000/svg">
  <defs>
    <linearGradient id="bgGradient" x1="0%" y1="0%" x2="100%" y2="100%">
      <stop offset="0%" style="stop-color:#0B0F14;stop-opacity:1" />
      <stop offset="50%" style="stop-color:#0F1619;stop-opacity:1" />
      <stop offset="100%" style="stop-color:#0F1922;stop-opacity:1" />
    </linearGradient>
    <linearGradient id="goldGradient" x1="0%" y1="0%" x2="100%" y2="0%">
      <stop offset="0%" style="stop-color:#E5D596;stop-opacity:1" />
      <stop offset="50%" style="stop-color:#CFAE58;stop-opacity:1" />
      <stop offset="100%" style="stop-color:#B89842;stop-opacity:1" />
    </linearGradient>
    <radialGradient id="oceanGradient" cx="50%" cy="50%" r="50%">
      <stop offset="0%" style="stop-color:#4FD1C5;stop-opacity:0.3" />
      <stop offset="100%" style="stop-color:#1E90A0;stop-opacity:0.05" />
    </radialGradient>
    <filter id="glow">
      <feGaussianBlur stdDeviation="5" result="coloredBlur"/>
      <feMerge>
        <feMergeNode in="coloredBlur"/>
        <feMergeNode in="SourceGraphic"/>
      </feMerge>
    </filter>
    <filter id="softGlow">
      <feGaussianBlur stdDeviation="8" result="coloredBlur"/>
      <feMerge>
        <feMergeNode in="coloredBlur"/>
        <feMergeNode in="SourceGraphic"/>
      </feMerge>
    </filter>
    <filter id="shadow">
      <feDropShadow dx="0" dy="4" stdDeviation="8" flood-color="#000000" flood-opacity="0.5"/>
    </filter>
  </defs>

  <!-- Background -->
  <rect width="1200" height="630" fill="url(#bgGradient)"/>

  <!-- Decorative ocean gradients -->
  <ellipse cx="1000" cy="150" rx="300" ry="200" fill="url(#oceanGradient)" opacity="0.4"/>
  <ellipse cx="200" cy="530" rx="250" ry="180" fill="url(#oceanGradient)" opacity="0.3"/>

  <!-- Wave patterns -->
  <path d="M 0 400 Q 300 350 600 400 T 1200 400 L 1200 630 L 0 630 Z" fill="#1E90A0" opacity="0.08"/>
  <path d="M 0 450 Q 250 420 500 450 T 1000 450 T 1200 450 L 1200 630 L 0 630 Z" fill="#4FD1C5" opacity="0.05"/>

  <!-- Caviar roe particles -->
  <circle cx="264.44419358092085" cy="619.7516460737489" r="4.600857447453331" fill="#CFAE58" opacity="0.1702191084481079"/>
  <circle cx="1188.8999708059773" cy="74.24040259202526" r="5.226689422570783" fill="#CFAE58" opacity="0.22391099360422656"/>
  <circle cx="741.6250011702933" cy="60.0536441285407" r="3.3743671507428736" fill="#CFAE58" opacity="0.18379381451974763"/>
  <circle cx="822.4119854278902" cy="169.63739009076963" r="2.7272600030348837" fill="#CFAE58" opacity="0.12240045604098478"/>
  <circle cx="93.19240188936053" cy="605.2847126670879" r="3.619213822677679" fill="#CFAE58" opacity="0.15340723014245738"/>
  <circle cx="834.4634852372267" cy="92.9601567096775" r="5.941595754598544" fill="#CFAE58" opacity="0.2183835698916918"/>
  <circle cx="272.5359032459093" cy="357.70955083689194" r="4.6956157832925465" fill="#CFAE58" opacity="0.14417674178706102"/>
  <circle cx="516.5493304810417" cy="365.1019246229748" r="4.673339041867784" fill="#CFAE58" opacity="0.1958176543559753"/>
  <circle cx="180.34432171606022" cy="141.4448564008631" r="2.0830574525766847" fill="#CFAE58" opacity="0.19825692667583725"/>
  <circle cx="86.15236608430239" cy="11.94034524975309" r="4.664815299615558" fill="#CFAE58" opacity="0.24121673773022212"/>
  <circle cx="825.6943589086055" cy="616.1910022325793" r="4.157503486281832" fill="#CFAE58" opacity="0.13274809622078404"/>
  <circle cx="720.5592358350688" cy="250.12738012747602" r="2.144156435752624" fill="#CFAE58" opacity="0.2022253291861308"/>
  <circle cx="243.15956788045224" cy="385.05237991790204" r="2.116913156257781" fill="#CFAE58" opacity="0.20113836318949516"/>
  <circle cx="1117.9589183607652" cy="202.45777618716264" r="3.9655717647403073" fill="#CFAE58" opacity="0.22496331297728836"/>
  <circle cx="995.8186220900986" cy="497.2528634708861" r="2.8802414651434844" fill="#CFAE58" opacity="0.21886656679169098"/>
  <circle cx="249.18305108013854" cy="509.19891010080016" r="4.3805124230786125" fill="#CFAE58" opacity="0.19590166731212638"/>
  <circle cx="934.0909462616224" cy="14.281622059375923" r="4.29212299031641" fill="#CFAE58" opacity="0.12481100092332849"/>
  <circle cx="601.4311153302272" cy="361.334780420284" r="5.272013075573082" fill="#CFAE58" opacity="0.1717539410437955"/>
  <circle cx="226.48524379216593" cy="172.99486763472356" r="3.8017902472816507" fill="#CFAE58" opacity="0.20242962137291623"/>
  <circle cx="1019.5525668602713" cy="391.5288557585527" r="2.5091645234487734" fill="#CFAE58" opacity="0.13759135601541297"/>
  <circle cx="733.5047703939083" cy="478.02262363176294" r="3.5364414380200246" fill="#CFAE58" opacity="0.10064656670038782"/>
  <circle cx="747.1352555835327" cy="556.1690585407865" r="2.7708698805213006" fill="#CFAE58" opacity="0.21706764265297246"/>
  <circle cx="863.746162607765" cy="503.12884127462553" r="4.861766701689428" fill="#CFAE58" opacity="0.2248259606557769"/>
  <circle cx="14.003044826494193" cy="324.0603122230972" r="2.4997323130491464" fill="#CFAE58" opacity="0.1074127954164971"/>
  <circle cx="573.8319984923411" cy="412.7231926330649" r="5.563246357858752" fill="#CFAE58" opacity="0.11463353079184468"/>
  <circle cx="1163.9312293738615" cy="301.6072821070704" r="3.506490175924668" fill="#CFAE58" opacity="0.22207181677407423"/>
  <circle cx="1104.204562876249" cy="505.4878851115799" r="4.63159158567001" fill="#CFAE58" opacity="0.13730254210401494"/>
  <circle cx="296.6853129873163" cy="557.5072523579169" r="3.632609705883258" fill="#CFAE58" opacity="0.22294300835181902"/>
  <circle cx="210.5437635998447" cy="184.04510410733263" r="5.5240309381235955" fill="#CFAE58" opacity="0.2129825369155844"/>
  <circle cx="762.070872512961" cy="57.16313351616647" r="2.8865955119613353" fill="#CFAE58" opacity="0.12631157660221912"/>

  <!-- Border with glow -->
  <rect x="40" y="40" width="1120" height="550" fill="none" stroke="url(#goldGradient)" stroke-width="3" rx="12" filter="url(#softGlow)"/>

  <!-- Icon circle with premium background -->
  <circle cx="150" cy="200" r="75" fill="#CFAE58" opacity="0.15" filter="url(#softGlow)"/>
  <circle cx="150" cy="200" r="70" fill="#CFAE58" opacity="0.25"/>
  <text x="150" y="235" font-size="90" text-anchor="middle" fill="#CFAE58" filter="url(#glow)">📸</text>

  <!-- Premium logo (crown) with enhanced styling -->
  <g transform="translate(100, 70)">
    <path d="M 30 20 L 40 35 L 35 35 Z M 50 15 L 60 35 L 45 35 Z M 65 20 L 75 35 L 70 35 Z M 30 35 L 75 35 L 73 45 L 32 45 Z"
          fill="url(#goldGradient)" filter="url(#glow)" stroke="#B89842" stroke-width="0.5"/>
    <circle cx="40" cy="25" r="3" fill="#4FD1C5" filter="url(#glow)"/>
    <circle cx="52" cy="20" r="4" fill="#4FD1C5" filter="url(#glow)"/>
    <circle cx="65" cy="25" r="3" fill="#4FD1C5" filter="url(#glow)"/>
  </g>

  <!-- Title with shadow -->
  <text x="280" y="180" font-family="Georgia, serif" font-size="72" font-weight="bold"
        fill="url(#goldGradient)" filter="url(#shadow)">Photo Gallery</text>

  <!-- Subtitle with subtle glow -->
  <text x="280" y="230" font-family="Arial, sans-serif" font-size="36"
        fill="#D6DEE6" opacity="0.95" filter="url(#softGlow)">Science, Family Tours &amp; Caviar Production</text>

  <!-- Brand name with letter spacing -->
  <text x="280" y="300" font-family="Georgia, serif" font-size="32" font-weight="bold"
        fill="#CFAE58" letter-spacing="4" filter="url(#glow)">ROYAL KETA</text>

  <!-- Russian tagline -->
  <text x="280" y="340" font-family="Arial, sans-serif" font-size="22" font-style="italic"
        fill="#8B95A1" opacity="0.8">От икринки к королевской</text>

  <!-- Location -->
  <text x="280" y="380" font-family="Arial, sans-serif" font-size="20"
        fill="#8B95A1" opacity="0.7">Невельский район, Сахалин</text>

  <!-- Website with glow -->
  <text x="100" y="570" font-family="Arial, sans-serif" font-size="30" font-weight="bold"
        fill="#4FD1C5" filter="url(#glow)">royalketa.com</text>

  <!-- Enhanced decorative salmon silhouette -->
  <g transform="translate(950, 480)" opacity="0.2" filter="url(#softGlow)">
    <ellipse cx="0" cy="0" rx="90" ry="35" fill="#CFAE58"/>
    <path d="M 90 0 L 120 -18 L 130 0 L 120 18 Z" fill="#CFAE58"/>
    <path d="M -25 -35 L 0 -45 L 25 -35 Z" fill="#CFAE58"/>
    <ellipse cx="-50" cy="0" rx="15" ry="12" fill="#0B0F14"/>
  </g>

  <!-- Additional decorative caviar clusters -->
  <g opacity="0.2">
    <circle cx="1050" cy="120" r="6" fill="#CFAE58"/>
    <circle cx="1065" cy="115" r="5" fill="#CFAE58"/>
    <circle cx="1058" cy="130" r="4" fill="#CFAE58"/>
    <circle cx="150" cy="500" r="5" fill="#4FD1C5"/>
    <circle cx="165" cy="508" r="4" fill="#4FD1C5"/>
    <circle cx="140" cy="512" r="5" fill="#4FD1C5"/>
  </g>
</svg>