<svg width="1200" height="630" xmlns="http://www.w3.org/2000/svg">
  <defs>
    <linearGradient id="bgGradient" x1="0%" y1="0%" x2="100%" y2="100%">
      <stop offset="0%" style="stop-color:#0B0F14;stop-opacity:1" />
      <stop offset="50%" style="stop-color:#0F1619;stop-opacity:1" />
      <stop offset="100%" style="stop-color:#0F1922;stop-opacity:1" />
    </linearGradient>
    <linearGradient id="goldGradient" x1="0%" y1="0%" x2="100%" y2="0%">
      <stop offset="0%" style="stop-color:#E5D596;stop-opacity:1" />
      <stop offset="50%" style="stop-color:#CFAE58;stop-opacity:1" />
      <stop offset="100%" style="stop-color:#B89842;stop-opacity:1" />
    </linearGradient>
    <radialGradient id="oceanGradient" cx="50%" cy="50%" r="50%">
      <stop offset="0%" style="stop-color:#4FD1C5;stop-opacity:0.3" />
      <stop offset="100%" style="stop-color:#1E90A0;stop-opacity:0.05" />
    </radialGradient>
    <filter id="glow">
      <feGaussianBlur stdDeviation="5" result="coloredBlur"/>
      <feMerge>
        <feMergeNode in="coloredBlur"/>
        <feMergeNode in="SourceGraphic"/>
      </feMerge>
    </filter>
    <filter id="softGlow">
      <feGaussianBlur stdDeviation="8" result="coloredBlur"/>
      <feMerge>
        <feMergeNode in="coloredBlur"/>
        <feMergeNode in="SourceGraphic"/>
      </feMerge>
    </filter>
    <filter id="shadow">
      <feDropShadow dx="0" dy="4" stdDeviation="8" flood-color="#000000" flood-opacity="0.5"/>
    </filter>
  </defs>

  <!-- Background -->
  <rect width="1200" height="630" fill="url(#bgGradient)"/>

  <!-- Decorative ocean gradients -->
  <ellipse cx="1000" cy="150" rx="300" ry="200" fill="url(#oceanGradient)" opacity="0.4"/>
  <ellipse cx="200" cy="530" rx="250" ry="180" fill="url(#oceanGradient)" opacity="0.3"/>

  <!-- Wave patterns -->
  <path d="M 0 400 Q 300 350 600 400 T 1200 400 L 1200 630 L 0 630 Z" fill="#1E90A0" opacity="0.08"/>
  <path d="M 0 450 Q 250 420 500 450 T 1000 450 T 1200 450 L 1200 630 L 0 630 Z" fill="#4FD1C5" opacity="0.05"/>

  <!-- Caviar roe particles -->
  <circle cx="360.4028380136929" cy="577.8278217894028" r="5.89892548259848" fill="#CFAE58" opacity="0.1377209840694596"/>
  <circle cx="181.2260087429459" cy="241.66664746438315" r="4.843299838500528" fill="#CFAE58" opacity="0.16974162986510213"/>
  <circle cx="835.5891380840585" cy="218.82183528621275" r="3.499718050140414" fill="#CFAE58" opacity="0.2148205179416624"/>
  <circle cx="193.07737941512414" cy="101.6491378808383" r="5.040021782633442" fill="#CFAE58" opacity="0.1782651143841616"/>
  <circle cx="64.48206316391953" cy="153.35330461609857" r="3.93530429955833" fill="#CFAE58" opacity="0.23785747318462264"/>
  <circle cx="1056.2316576806836" cy="277.9344180123446" r="4.714456193363919" fill="#CFAE58" opacity="0.19138724702014104"/>
  <circle cx="472.7282985622024" cy="190.08599498658236" r="2.6225209500696347" fill="#CFAE58" opacity="0.12450298540509391"/>
  <circle cx="235.37438894955392" cy="183.73084784770458" r="2.994122637448073" fill="#CFAE58" opacity="0.19937873831989172"/>
  <circle cx="364.44952845421585" cy="345.50392467603245" r="3.8503378474955743" fill="#CFAE58" opacity="0.24438193527089147"/>
  <circle cx="690.367137233637" cy="302.5993416746146" r="5.154609263555773" fill="#CFAE58" opacity="0.13496948839669418"/>
  <circle cx="957.1352354149213" cy="249.00015961998812" r="2.4361823554223365" fill="#CFAE58" opacity="0.172381341825138"/>
  <circle cx="801.6637508238558" cy="236.1788455357992" r="2.577463060677566" fill="#CFAE58" opacity="0.16482328923927245"/>
  <circle cx="973.7522396827759" cy="170.10959281287901" r="5.331534086871763" fill="#CFAE58" opacity="0.2373845960697803"/>
  <circle cx="793.5082320295377" cy="366.1642517457507" r="3.869418759181398" fill="#CFAE58" opacity="0.24653448044431908"/>
  <circle cx="405.2609288305149" cy="435.75154337889035" r="2.77198545272297" fill="#CFAE58" opacity="0.10570925244441723"/>
  <circle cx="593.6511433399944" cy="590.4387171795456" r="2.116425794040596" fill="#CFAE58" opacity="0.1684352864742501"/>
  <circle cx="915.1756796155727" cy="312.51869377502516" r="3.9340547435493107" fill="#CFAE58" opacity="0.23634353151147772"/>
  <circle cx="648.9402433997489" cy="423.59418500861875" r="3.454747906498663" fill="#CFAE58" opacity="0.24803354835277813"/>
  <circle cx="333.4121562277836" cy="556.8780840631712" r="5.302605849141376" fill="#CFAE58" opacity="0.24472768498225372"/>
  <circle cx="95.05122011746946" cy="431.8825373157841" r="2.4708712792147485" fill="#CFAE58" opacity="0.10931734582843619"/>
  <circle cx="429.4361529951026" cy="539.6408727643103" r="3.4292558947056015" fill="#CFAE58" opacity="0.19669122359791472"/>
  <circle cx="291.5125967772048" cy="47.44976589569985" r="3.8426982622572896" fill="#CFAE58" opacity="0.20567584915210302"/>
  <circle cx="104.69167374826864" cy="197.8622098633086" r="3.931769962546333" fill="#CFAE58" opacity="0.17378569847182007"/>
  <circle cx="702.734838974403" cy="374.5729251041513" r="2.3859248560425255" fill="#CFAE58" opacity="0.24616366284579508"/>
  <circle cx="873.8254105699527" cy="191.62147955235412" r="4.5071546281853845" fill="#CFAE58" opacity="0.18776467687281562"/>
  <circle cx="948.0352875831785" cy="472.63583108057577" r="4.8378552192449025" fill="#CFAE58" opacity="0.18083947275760864"/>
  <circle cx="527.0572610731679" cy="510.01789744807354" r="5.379871083431558" fill="#CFAE58" opacity="0.23974788146638012"/>
  <circle cx="1166.9056614385167" cy="462.12292760835635" r="5.870951035100635" fill="#CFAE58" opacity="0.16883784335043003"/>
  <circle cx="404.73372893507474" cy="243.37478183464336" r="5.705049443389238" fill="#CFAE58" opacity="0.1476798034258898"/>
  <circle cx="1049.7873386575036" cy="289.97621165746983" r="4.309095967393157" fill="#CFAE58" opacity="0.1323397305686346"/>

  <!-- Border with glow -->
  <rect x="40" y="40" width="1120" height="550" fill="none" stroke="url(#goldGradient)" stroke-width="3" rx="12" filter="url(#softGlow)"/>

  <!-- Icon circle with premium background -->
  <circle cx="150" cy="200" r="75" fill="#CFAE58" opacity="0.15" filter="url(#softGlow)"/>
  <circle cx="150" cy="200" r="70" fill="#CFAE58" opacity="0.25"/>
  <text x="150" y="235" font-size="90" text-anchor="middle" fill="#CFAE58" filter="url(#glow)">📸</text>

  <!-- Premium logo (crown) with enhanced styling -->
  <g transform="translate(100, 70)">
    <path d="M 30 20 L 40 35 L 35 35 Z M 50 15 L 60 35 L 45 35 Z M 65 20 L 75 35 L 70 35 Z M 30 35 L 75 35 L 73 45 L 32 45 Z"
          fill="url(#goldGradient)" filter="url(#glow)" stroke="#B89842" stroke-width="0.5"/>
    <circle cx="40" cy="25" r="3" fill="#4FD1C5" filter="url(#glow)"/>
    <circle cx="52" cy="20" r="4" fill="#4FD1C5" filter="url(#glow)"/>
    <circle cx="65" cy="25" r="3" fill="#4FD1C5" filter="url(#glow)"/>
  </g>

  <!-- Title with shadow -->
  <text x="280" y="180" font-family="Georgia, serif" font-size="72" font-weight="bold"
        fill="url(#goldGradient)" filter="url(#shadow)">Photo Gallery</text>

  <!-- Subtitle with subtle glow -->
  <text x="280" y="230" font-family="Arial, sans-serif" font-size="36"
        fill="#D6DEE6" opacity="0.95" filter="url(#softGlow)">Science, Family Tours &amp; Caviar Production</text>

  <!-- Brand name with letter spacing -->
  <text x="280" y="300" font-family="Georgia, serif" font-size="32" font-weight="bold"
        fill="#CFAE58" letter-spacing="4" filter="url(#glow)">ROYAL KETA</text>

  <!-- Russian tagline -->
  <text x="280" y="340" font-family="Arial, sans-serif" font-size="22" font-style="italic"
        fill="#8B95A1" opacity="0.8">От икринки к королевской</text>

  <!-- Location -->
  <text x="280" y="380" font-family="Arial, sans-serif" font-size="20"
        fill="#8B95A1" opacity="0.7">Невельский район, Сахалин</text>

  <!-- Website with glow -->
  <text x="100" y="570" font-family="Arial, sans-serif" font-size="30" font-weight="bold"
        fill="#4FD1C5" filter="url(#glow)">royalketa.com</text>

  <!-- Enhanced decorative salmon silhouette -->
  <g transform="translate(950, 480)" opacity="0.2" filter="url(#softGlow)">
    <ellipse cx="0" cy="0" rx="90" ry="35" fill="#CFAE58"/>
    <path d="M 90 0 L 120 -18 L 130 0 L 120 18 Z" fill="#CFAE58"/>
    <path d="M -25 -35 L 0 -45 L 25 -35 Z" fill="#CFAE58"/>
    <ellipse cx="-50" cy="0" rx="15" ry="12" fill="#0B0F14"/>
  </g>

  <!-- Additional decorative caviar clusters -->
  <g opacity="0.2">
    <circle cx="1050" cy="120" r="6" fill="#CFAE58"/>
    <circle cx="1065" cy="115" r="5" fill="#CFAE58"/>
    <circle cx="1058" cy="130" r="4" fill="#CFAE58"/>
    <circle cx="150" cy="500" r="5" fill="#4FD1C5"/>
    <circle cx="165" cy="508" r="4" fill="#4FD1C5"/>
    <circle cx="140" cy="512" r="5" fill="#4FD1C5"/>
  </g>
</svg>