<svg width="1200" height="630" xmlns="http://www.w3.org/2000/svg">
  <defs>
    <linearGradient id="bgGradient" x1="0%" y1="0%" x2="100%" y2="100%">
      <stop offset="0%" style="stop-color:#0B0F14;stop-opacity:1" />
      <stop offset="50%" style="stop-color:#0F1619;stop-opacity:1" />
      <stop offset="100%" style="stop-color:#0F1922;stop-opacity:1" />
    </linearGradient>
    <linearGradient id="goldGradient" x1="0%" y1="0%" x2="100%" y2="0%">
      <stop offset="0%" style="stop-color:#E5D596;stop-opacity:1" />
      <stop offset="50%" style="stop-color:#CFAE58;stop-opacity:1" />
      <stop offset="100%" style="stop-color:#B89842;stop-opacity:1" />
    </linearGradient>
    <radialGradient id="oceanGradient" cx="50%" cy="50%" r="50%">
      <stop offset="0%" style="stop-color:#4FD1C5;stop-opacity:0.3" />
      <stop offset="100%" style="stop-color:#1E90A0;stop-opacity:0.05" />
    </radialGradient>
    <filter id="glow">
      <feGaussianBlur stdDeviation="5" result="coloredBlur"/>
      <feMerge>
        <feMergeNode in="coloredBlur"/>
        <feMergeNode in="SourceGraphic"/>
      </feMerge>
    </filter>
    <filter id="softGlow">
      <feGaussianBlur stdDeviation="8" result="coloredBlur"/>
      <feMerge>
        <feMergeNode in="coloredBlur"/>
        <feMergeNode in="SourceGraphic"/>
      </feMerge>
    </filter>
    <filter id="shadow">
      <feDropShadow dx="0" dy="4" stdDeviation="8" flood-color="#000000" flood-opacity="0.5"/>
    </filter>
  </defs>

  <!-- Background -->
  <rect width="1200" height="630" fill="url(#bgGradient)"/>

  <!-- Decorative ocean gradients -->
  <ellipse cx="1000" cy="150" rx="300" ry="200" fill="url(#oceanGradient)" opacity="0.4"/>
  <ellipse cx="200" cy="530" rx="250" ry="180" fill="url(#oceanGradient)" opacity="0.3"/>

  <!-- Wave patterns -->
  <path d="M 0 400 Q 300 350 600 400 T 1200 400 L 1200 630 L 0 630 Z" fill="#1E90A0" opacity="0.08"/>
  <path d="M 0 450 Q 250 420 500 450 T 1000 450 T 1200 450 L 1200 630 L 0 630 Z" fill="#4FD1C5" opacity="0.05"/>

  <!-- Caviar roe particles -->
  <circle cx="347.72683832418005" cy="385.16634226820236" r="2.8983959850351044" fill="#CFAE58" opacity="0.11598106166770993"/>
  <circle cx="1089.4516168131602" cy="596.5450540997938" r="2.3805656476651693" fill="#CFAE58" opacity="0.1552075630996439"/>
  <circle cx="96.74640898396927" cy="551.0580476255478" r="3.4511969530694944" fill="#CFAE58" opacity="0.19151904801185327"/>
  <circle cx="338.79025462493615" cy="332.39015880124657" r="5.402197880514224" fill="#CFAE58" opacity="0.22447086945828224"/>
  <circle cx="501.57800698229795" cy="208.8343632266734" r="2.067167393053199" fill="#CFAE58" opacity="0.18889578779837818"/>
  <circle cx="312.0474555069521" cy="408.94479073342137" r="4.709824222728674" fill="#CFAE58" opacity="0.23256056151529822"/>
  <circle cx="830.4754248699269" cy="225.58651584440457" r="2.951677244924641" fill="#CFAE58" opacity="0.12647203130882245"/>
  <circle cx="1090.5581437338878" cy="178.43400682188272" r="2.0738642897688813" fill="#CFAE58" opacity="0.11245893864930102"/>
  <circle cx="242.83678059471129" cy="457.58632093649464" r="4.699481559878734" fill="#CFAE58" opacity="0.1145319233165827"/>
  <circle cx="480.46514827603295" cy="121.59202534105742" r="5.441373607436437" fill="#CFAE58" opacity="0.14922670228392618"/>
  <circle cx="252.22030763440907" cy="326.9007067426289" r="4.2828341182522065" fill="#CFAE58" opacity="0.15281089485581312"/>
  <circle cx="1088.5216892097326" cy="605.2861794134242" r="4.990519349741911" fill="#CFAE58" opacity="0.10027866886751037"/>
  <circle cx="1111.678836983523" cy="210.85271063699452" r="2.1236733187427883" fill="#CFAE58" opacity="0.2460295558550113"/>
  <circle cx="511.08421004783804" cy="551.002486543602" r="4.012838457218168" fill="#CFAE58" opacity="0.171749701719779"/>
  <circle cx="395.23239374663234" cy="361.3055294754188" r="5.664454065307356" fill="#CFAE58" opacity="0.17473869974659012"/>
  <circle cx="248.0715225857257" cy="256.3896986117415" r="2.033620534275137" fill="#CFAE58" opacity="0.19446475136983682"/>
  <circle cx="1020.7481117148672" cy="468.6097822979771" r="2.5262581222277745" fill="#CFAE58" opacity="0.20168113463769533"/>
  <circle cx="42.35523036576163" cy="386.54076477057004" r="5.6468403292727105" fill="#CFAE58" opacity="0.1061549096576511"/>
  <circle cx="747.6362118056882" cy="437.03822295590766" r="4.958857334597516" fill="#CFAE58" opacity="0.24177398662404972"/>
  <circle cx="1049.1240371777699" cy="300.31490888087677" r="5.827419909040426" fill="#CFAE58" opacity="0.15919801452810056"/>
  <circle cx="863.7338394750635" cy="118.7660638493084" r="4.15713644411197" fill="#CFAE58" opacity="0.14431037803816538"/>
  <circle cx="371.8137585100873" cy="183.53160176890148" r="5.457365439327667" fill="#CFAE58" opacity="0.12720623121504124"/>
  <circle cx="221.84498708843043" cy="231.33250884753403" r="5.913736602592186" fill="#CFAE58" opacity="0.2088492295060358"/>
  <circle cx="586.1797206291723" cy="209.10492835660435" r="5.669002419613895" fill="#CFAE58" opacity="0.10801854791566"/>
  <circle cx="206.15055068630085" cy="18.901343778643806" r="5.335904108679074" fill="#CFAE58" opacity="0.2273729749745751"/>
  <circle cx="620.4974459062282" cy="236.85443760789357" r="4.17526504274041" fill="#CFAE58" opacity="0.2065871483796603"/>
  <circle cx="778.0449780502813" cy="267.21115070114354" r="3.2201745649230253" fill="#CFAE58" opacity="0.1280183026559656"/>
  <circle cx="315.2778818368039" cy="128.2069239506514" r="4.933305645142207" fill="#CFAE58" opacity="0.15382431441684064"/>
  <circle cx="603.486496684691" cy="593.2552295292953" r="3.6534667471253868" fill="#CFAE58" opacity="0.16748865106570865"/>
  <circle cx="1191.8393459593685" cy="306.00497169370055" r="4.899931541659592" fill="#CFAE58" opacity="0.20713337271638935"/>

  <!-- Border with glow -->
  <rect x="40" y="40" width="1120" height="550" fill="none" stroke="url(#goldGradient)" stroke-width="3" rx="12" filter="url(#softGlow)"/>

  <!-- Icon circle with premium background -->
  <circle cx="150" cy="200" r="75" fill="#CFAE58" opacity="0.15" filter="url(#softGlow)"/>
  <circle cx="150" cy="200" r="70" fill="#CFAE58" opacity="0.25"/>
  <text x="150" y="235" font-size="90" text-anchor="middle" fill="#CFAE58" filter="url(#glow)">🎣</text>

  <!-- Premium logo (crown) with enhanced styling -->
  <g transform="translate(100, 70)">
    <path d="M 30 20 L 40 35 L 35 35 Z M 50 15 L 60 35 L 45 35 Z M 65 20 L 75 35 L 70 35 Z M 30 35 L 75 35 L 73 45 L 32 45 Z"
          fill="url(#goldGradient)" filter="url(#glow)" stroke="#B89842" stroke-width="0.5"/>
    <circle cx="40" cy="25" r="3" fill="#4FD1C5" filter="url(#glow)"/>
    <circle cx="52" cy="20" r="4" fill="#4FD1C5" filter="url(#glow)"/>
    <circle cx="65" cy="25" r="3" fill="#4FD1C5" filter="url(#glow)"/>
  </g>

  <!-- Title with shadow -->
  <text x="280" y="180" font-family="Georgia, serif" font-size="72" font-weight="bold"
        fill="url(#goldGradient)" filter="url(#shadow)">Hatchery Tours</text>

  <!-- Subtitle with subtle glow -->
  <text x="280" y="230" font-family="Arial, sans-serif" font-size="36"
        fill="#D6DEE6" opacity="0.95" filter="url(#softGlow)">Family Experiences &amp; Caviar Tasting</text>

  <!-- Brand name with letter spacing -->
  <text x="280" y="300" font-family="Georgia, serif" font-size="32" font-weight="bold"
        fill="#CFAE58" letter-spacing="4" filter="url(#glow)">ROYAL KETA</text>

  <!-- Russian tagline -->
  <text x="280" y="340" font-family="Arial, sans-serif" font-size="22" font-style="italic"
        fill="#8B95A1" opacity="0.8">От икринки к королевской</text>

  <!-- Location -->
  <text x="280" y="380" font-family="Arial, sans-serif" font-size="20"
        fill="#8B95A1" opacity="0.7">Невельский район, Сахалин</text>

  <!-- Website with glow -->
  <text x="100" y="570" font-family="Arial, sans-serif" font-size="30" font-weight="bold"
        fill="#4FD1C5" filter="url(#glow)">royalketa.com</text>

  <!-- Enhanced decorative salmon silhouette -->
  <g transform="translate(950, 480)" opacity="0.2" filter="url(#softGlow)">
    <ellipse cx="0" cy="0" rx="90" ry="35" fill="#CFAE58"/>
    <path d="M 90 0 L 120 -18 L 130 0 L 120 18 Z" fill="#CFAE58"/>
    <path d="M -25 -35 L 0 -45 L 25 -35 Z" fill="#CFAE58"/>
    <ellipse cx="-50" cy="0" rx="15" ry="12" fill="#0B0F14"/>
  </g>

  <!-- Additional decorative caviar clusters -->
  <g opacity="0.2">
    <circle cx="1050" cy="120" r="6" fill="#CFAE58"/>
    <circle cx="1065" cy="115" r="5" fill="#CFAE58"/>
    <circle cx="1058" cy="130" r="4" fill="#CFAE58"/>
    <circle cx="150" cy="500" r="5" fill="#4FD1C5"/>
    <circle cx="165" cy="508" r="4" fill="#4FD1C5"/>
    <circle cx="140" cy="512" r="5" fill="#4FD1C5"/>
  </g>
</svg>