<svg width="1200" height="630" xmlns="http://www.w3.org/2000/svg">
  <defs>
    <linearGradient id="bgGradient" x1="0%" y1="0%" x2="100%" y2="100%">
      <stop offset="0%" style="stop-color:#0B0F14;stop-opacity:1" />
      <stop offset="50%" style="stop-color:#0F1619;stop-opacity:1" />
      <stop offset="100%" style="stop-color:#0F1922;stop-opacity:1" />
    </linearGradient>
    <linearGradient id="goldGradient" x1="0%" y1="0%" x2="100%" y2="0%">
      <stop offset="0%" style="stop-color:#E5D596;stop-opacity:1" />
      <stop offset="50%" style="stop-color:#CFAE58;stop-opacity:1" />
      <stop offset="100%" style="stop-color:#B89842;stop-opacity:1" />
    </linearGradient>
    <radialGradient id="oceanGradient" cx="50%" cy="50%" r="50%">
      <stop offset="0%" style="stop-color:#4FD1C5;stop-opacity:0.3" />
      <stop offset="100%" style="stop-color:#1E90A0;stop-opacity:0.05" />
    </radialGradient>
    <filter id="glow">
      <feGaussianBlur stdDeviation="5" result="coloredBlur"/>
      <feMerge>
        <feMergeNode in="coloredBlur"/>
        <feMergeNode in="SourceGraphic"/>
      </feMerge>
    </filter>
    <filter id="softGlow">
      <feGaussianBlur stdDeviation="8" result="coloredBlur"/>
      <feMerge>
        <feMergeNode in="coloredBlur"/>
        <feMergeNode in="SourceGraphic"/>
      </feMerge>
    </filter>
    <filter id="shadow">
      <feDropShadow dx="0" dy="4" stdDeviation="8" flood-color="#000000" flood-opacity="0.5"/>
    </filter>
  </defs>

  <!-- Background -->
  <rect width="1200" height="630" fill="url(#bgGradient)"/>

  <!-- Decorative ocean gradients -->
  <ellipse cx="1000" cy="150" rx="300" ry="200" fill="url(#oceanGradient)" opacity="0.4"/>
  <ellipse cx="200" cy="530" rx="250" ry="180" fill="url(#oceanGradient)" opacity="0.3"/>

  <!-- Wave patterns -->
  <path d="M 0 400 Q 300 350 600 400 T 1200 400 L 1200 630 L 0 630 Z" fill="#1E90A0" opacity="0.08"/>
  <path d="M 0 450 Q 250 420 500 450 T 1000 450 T 1200 450 L 1200 630 L 0 630 Z" fill="#4FD1C5" opacity="0.05"/>

  <!-- Caviar roe particles -->
  <circle cx="1051.0592671620743" cy="629.9117607880488" r="4.902633022602261" fill="#CFAE58" opacity="0.15649644404308"/>
  <circle cx="728.0801670573903" cy="409.7369586876029" r="5.830814734114968" fill="#CFAE58" opacity="0.20454814219236625"/>
  <circle cx="401.76615687677025" cy="186.25475728781197" r="3.016376195640582" fill="#CFAE58" opacity="0.14077966766661265"/>
  <circle cx="311.73338037713967" cy="512.7491736106322" r="3.245729858757038" fill="#CFAE58" opacity="0.2410764593035102"/>
  <circle cx="847.1742218922395" cy="374.4129898876495" r="4.203193488752689" fill="#CFAE58" opacity="0.1705053763539971"/>
  <circle cx="673.2691498219012" cy="589.8983215915132" r="2.32612011728651" fill="#CFAE58" opacity="0.24739049679215208"/>
  <circle cx="255.46472286976137" cy="164.63561917395123" r="5.328811469622783" fill="#CFAE58" opacity="0.1770810558722669"/>
  <circle cx="1128.4474824898887" cy="63.70630417839819" r="5.810634662850617" fill="#CFAE58" opacity="0.12511128342122044"/>
  <circle cx="103.95323881406328" cy="554.5293874069584" r="4.224399315461975" fill="#CFAE58" opacity="0.1710193351544015"/>
  <circle cx="199.59452635805616" cy="343.19352431378917" r="2.978967009631784" fill="#CFAE58" opacity="0.24095702655112441"/>
  <circle cx="493.1679228399319" cy="396.1822654172109" r="2.8868555744035707" fill="#CFAE58" opacity="0.11259442958450158"/>
  <circle cx="579.0311818355224" cy="398.5788094460928" r="3.9382098437877007" fill="#CFAE58" opacity="0.19732008249838995"/>
  <circle cx="574.5439949746058" cy="616.5533248976423" r="4.402605104936783" fill="#CFAE58" opacity="0.19629880984417103"/>
  <circle cx="122.20918958665604" cy="136.23487559632053" r="2.2909618613096976" fill="#CFAE58" opacity="0.14791110968224222"/>
  <circle cx="657.3742118117425" cy="382.0950393743002" r="4.78664762741095" fill="#CFAE58" opacity="0.2263830958864964"/>
  <circle cx="1116.4770907415805" cy="316.21032088458225" r="2.3558714251685613" fill="#CFAE58" opacity="0.14956721827412667"/>
  <circle cx="138.89184594126166" cy="501.4288213618705" r="5.647562621290852" fill="#CFAE58" opacity="0.17910906637798546"/>
  <circle cx="577.328979981445" cy="266.76820577484733" r="2.15584093092322" fill="#CFAE58" opacity="0.12049857280621057"/>
  <circle cx="194.3971676250227" cy="30.793210784344232" r="4.06717807374197" fill="#CFAE58" opacity="0.23962740422089518"/>
  <circle cx="303.1953573304367" cy="357.0730528170774" r="2.3513826276998016" fill="#CFAE58" opacity="0.2427507660889617"/>
  <circle cx="517.8430860730142" cy="78.25917245474812" r="4.455034219970374" fill="#CFAE58" opacity="0.21458919504163887"/>
  <circle cx="445.58487022568573" cy="161.81819615168953" r="2.5021125058210796" fill="#CFAE58" opacity="0.10297738422867647"/>
  <circle cx="260.05555221820515" cy="523.9632364887406" r="5.762011564040398" fill="#CFAE58" opacity="0.13406504006523645"/>
  <circle cx="616.6068487394449" cy="324.8932602140002" r="5.508599711605392" fill="#CFAE58" opacity="0.19161878774170826"/>
  <circle cx="676.4666925186616" cy="18.96374688665815" r="4.243367717540935" fill="#CFAE58" opacity="0.11728525611024937"/>
  <circle cx="129.92799820970902" cy="614.6649527401074" r="4.6623999031125285" fill="#CFAE58" opacity="0.14237445192016618"/>
  <circle cx="978.7668512973635" cy="470.6784913681754" r="3.4964486067973333" fill="#CFAE58" opacity="0.1473814491429164"/>
  <circle cx="311.29121339225776" cy="415.56226119316324" r="5.690645706886203" fill="#CFAE58" opacity="0.15960912937290966"/>
  <circle cx="493.85717557289564" cy="131.92062633768418" r="4.372779270834266" fill="#CFAE58" opacity="0.21830625689984606"/>
  <circle cx="811.8279861370314" cy="536.6871308746013" r="4.613798052872727" fill="#CFAE58" opacity="0.12318503894846583"/>

  <!-- Border with glow -->
  <rect x="40" y="40" width="1120" height="550" fill="none" stroke="url(#goldGradient)" stroke-width="3" rx="12" filter="url(#softGlow)"/>

  <!-- Icon circle with premium background -->
  <circle cx="150" cy="200" r="75" fill="#CFAE58" opacity="0.15" filter="url(#softGlow)"/>
  <circle cx="150" cy="200" r="70" fill="#CFAE58" opacity="0.25"/>
  <text x="150" y="235" font-size="90" text-anchor="middle" fill="#CFAE58" filter="url(#glow)">🎣</text>

  <!-- Premium logo (crown) with enhanced styling -->
  <g transform="translate(100, 70)">
    <path d="M 30 20 L 40 35 L 35 35 Z M 50 15 L 60 35 L 45 35 Z M 65 20 L 75 35 L 70 35 Z M 30 35 L 75 35 L 73 45 L 32 45 Z"
          fill="url(#goldGradient)" filter="url(#glow)" stroke="#B89842" stroke-width="0.5"/>
    <circle cx="40" cy="25" r="3" fill="#4FD1C5" filter="url(#glow)"/>
    <circle cx="52" cy="20" r="4" fill="#4FD1C5" filter="url(#glow)"/>
    <circle cx="65" cy="25" r="3" fill="#4FD1C5" filter="url(#glow)"/>
  </g>

  <!-- Title with shadow -->
  <text x="280" y="180" font-family="Georgia, serif" font-size="72" font-weight="bold"
        fill="url(#goldGradient)" filter="url(#shadow)">Hatchery Tours</text>

  <!-- Subtitle with subtle glow -->
  <text x="280" y="230" font-family="Arial, sans-serif" font-size="36"
        fill="#D6DEE6" opacity="0.95" filter="url(#softGlow)">Family Experiences & Caviar Tasting</text>

  <!-- Brand name with letter spacing -->
  <text x="280" y="300" font-family="Georgia, serif" font-size="32" font-weight="bold"
        fill="#CFAE58" letter-spacing="4" filter="url(#glow)">ROYAL KETA</text>

  <!-- Russian tagline -->
  <text x="280" y="340" font-family="Arial, sans-serif" font-size="22" font-style="italic"
        fill="#8B95A1" opacity="0.8">От икринки к королевской</text>

  <!-- Location -->
  <text x="280" y="380" font-family="Arial, sans-serif" font-size="20"
        fill="#8B95A1" opacity="0.7">Невельский район, Сахалин</text>

  <!-- Website with glow -->
  <text x="100" y="570" font-family="Arial, sans-serif" font-size="30" font-weight="bold"
        fill="#4FD1C5" filter="url(#glow)">royalketa.com</text>

  <!-- Enhanced decorative salmon silhouette -->
  <g transform="translate(950, 480)" opacity="0.2" filter="url(#softGlow)">
    <ellipse cx="0" cy="0" rx="90" ry="35" fill="#CFAE58"/>
    <path d="M 90 0 L 120 -18 L 130 0 L 120 18 Z" fill="#CFAE58"/>
    <path d="M -25 -35 L 0 -45 L 25 -35 Z" fill="#CFAE58"/>
    <ellipse cx="-50" cy="0" rx="15" ry="12" fill="#0B0F14"/>
  </g>

  <!-- Additional decorative caviar clusters -->
  <g opacity="0.2">
    <circle cx="1050" cy="120" r="6" fill="#CFAE58"/>
    <circle cx="1065" cy="115" r="5" fill="#CFAE58"/>
    <circle cx="1058" cy="130" r="4" fill="#CFAE58"/>
    <circle cx="150" cy="500" r="5" fill="#4FD1C5"/>
    <circle cx="165" cy="508" r="4" fill="#4FD1C5"/>
    <circle cx="140" cy="512" r="5" fill="#4FD1C5"/>
  </g>
</svg>