<svg width="1200" height="630" xmlns="http://www.w3.org/2000/svg">
  <defs>
    <linearGradient id="bgGradient" x1="0%" y1="0%" x2="100%" y2="100%">
      <stop offset="0%" style="stop-color:#0B0F14;stop-opacity:1" />
      <stop offset="50%" style="stop-color:#0F1619;stop-opacity:1" />
      <stop offset="100%" style="stop-color:#0F1922;stop-opacity:1" />
    </linearGradient>
    <linearGradient id="goldGradient" x1="0%" y1="0%" x2="100%" y2="0%">
      <stop offset="0%" style="stop-color:#E5D596;stop-opacity:1" />
      <stop offset="50%" style="stop-color:#CFAE58;stop-opacity:1" />
      <stop offset="100%" style="stop-color:#B89842;stop-opacity:1" />
    </linearGradient>
    <radialGradient id="oceanGradient" cx="50%" cy="50%" r="50%">
      <stop offset="0%" style="stop-color:#4FD1C5;stop-opacity:0.3" />
      <stop offset="100%" style="stop-color:#1E90A0;stop-opacity:0.05" />
    </radialGradient>
    <filter id="glow">
      <feGaussianBlur stdDeviation="5" result="coloredBlur"/>
      <feMerge>
        <feMergeNode in="coloredBlur"/>
        <feMergeNode in="SourceGraphic"/>
      </feMerge>
    </filter>
    <filter id="softGlow">
      <feGaussianBlur stdDeviation="8" result="coloredBlur"/>
      <feMerge>
        <feMergeNode in="coloredBlur"/>
        <feMergeNode in="SourceGraphic"/>
      </feMerge>
    </filter>
    <filter id="shadow">
      <feDropShadow dx="0" dy="4" stdDeviation="8" flood-color="#000000" flood-opacity="0.5"/>
    </filter>
  </defs>

  <!-- Background -->
  <rect width="1200" height="630" fill="url(#bgGradient)"/>

  <!-- Decorative ocean gradients -->
  <ellipse cx="1000" cy="150" rx="300" ry="200" fill="url(#oceanGradient)" opacity="0.4"/>
  <ellipse cx="200" cy="530" rx="250" ry="180" fill="url(#oceanGradient)" opacity="0.3"/>

  <!-- Wave patterns -->
  <path d="M 0 400 Q 300 350 600 400 T 1200 400 L 1200 630 L 0 630 Z" fill="#1E90A0" opacity="0.08"/>
  <path d="M 0 450 Q 250 420 500 450 T 1000 450 T 1200 450 L 1200 630 L 0 630 Z" fill="#4FD1C5" opacity="0.05"/>

  <!-- Caviar roe particles -->
  <circle cx="572.4063269272921" cy="615.7941659150517" r="5.872796758984612" fill="#CFAE58" opacity="0.18666545660492126"/>
  <circle cx="1069.5369959436298" cy="350.1587050092611" r="4.335874079008991" fill="#CFAE58" opacity="0.23980592417149005"/>
  <circle cx="919.901406876991" cy="478.65087753280443" r="4.271933837141861" fill="#CFAE58" opacity="0.1305685175024053"/>
  <circle cx="976.9710241742157" cy="152.96984523459972" r="2.6853727206928957" fill="#CFAE58" opacity="0.24020659290744237"/>
  <circle cx="342.71815579388425" cy="137.6550541668204" r="3.4396019630451926" fill="#CFAE58" opacity="0.13544203655502068"/>
  <circle cx="24.048099014396485" cy="353.98820390947634" r="5.970247009640618" fill="#CFAE58" opacity="0.24526666147699422"/>
  <circle cx="77.6012563090296" cy="24.75919774314695" r="3.9985324840998935" fill="#CFAE58" opacity="0.12118623827705977"/>
  <circle cx="588.369533956698" cy="551.9549605229088" r="3.0024403890871083" fill="#CFAE58" opacity="0.1038407382703443"/>
  <circle cx="845.1094077287358" cy="338.30720150604054" r="5.303358521956879" fill="#CFAE58" opacity="0.24413441456413498"/>
  <circle cx="468.71227328645773" cy="45.551189911200694" r="2.3342229800499563" fill="#CFAE58" opacity="0.11790816365582019"/>
  <circle cx="918.5601398490567" cy="2.3298746734603104" r="5.270363364908904" fill="#CFAE58" opacity="0.14122134316015825"/>
  <circle cx="295.54319238065216" cy="76.31575368128338" r="5.6049279099783025" fill="#CFAE58" opacity="0.1399730278333353"/>
  <circle cx="887.7571284343412" cy="314.93695394084364" r="3.048506024299325" fill="#CFAE58" opacity="0.19519772445364436"/>
  <circle cx="38.02527123819548" cy="209.95766735606523" r="4.405725368728186" fill="#CFAE58" opacity="0.17290023608151164"/>
  <circle cx="542.9385548300422" cy="427.6329994056631" r="4.340367935364379" fill="#CFAE58" opacity="0.12299906830056577"/>
  <circle cx="1194.4865653400836" cy="623.9450739422533" r="3.0776411437024587" fill="#CFAE58" opacity="0.19563534443309333"/>
  <circle cx="637.5585703926929" cy="148.8898048805743" r="3.6768173572182548" fill="#CFAE58" opacity="0.18007783066551525"/>
  <circle cx="256.3646554719677" cy="396.10542847251145" r="4.522443397276872" fill="#CFAE58" opacity="0.10027751935811653"/>
  <circle cx="170.34791273721322" cy="164.9005829642525" r="2.457612265128148" fill="#CFAE58" opacity="0.21724421239797537"/>
  <circle cx="774.5543631328669" cy="581.1675366851701" r="4.210652240433059" fill="#CFAE58" opacity="0.10533152355042377"/>
  <circle cx="448.48120574494754" cy="489.5966786205923" r="4.042951158950308" fill="#CFAE58" opacity="0.11356334672819168"/>
  <circle cx="1115.2900415290105" cy="365.7997514897055" r="3.001505958508086" fill="#CFAE58" opacity="0.23266243721600388"/>
  <circle cx="367.86774473936885" cy="49.43404589458419" r="4.698675138607667" fill="#CFAE58" opacity="0.11944582938918183"/>
  <circle cx="955.7944214210858" cy="7.160053437966156" r="4.819760079447267" fill="#CFAE58" opacity="0.19562931808198028"/>
  <circle cx="501.6572693044818" cy="414.60911714540583" r="3.176667943961852" fill="#CFAE58" opacity="0.22998661242429191"/>
  <circle cx="753.2584492973609" cy="616.8468516124708" r="4.366243745017919" fill="#CFAE58" opacity="0.19337030555246215"/>
  <circle cx="4.073100326550705" cy="350.1101212127655" r="2.498942169279146" fill="#CFAE58" opacity="0.17865669296054915"/>
  <circle cx="177.85259269226162" cy="405.5608948742768" r="3.839984396470304" fill="#CFAE58" opacity="0.14212898474022245"/>
  <circle cx="1080.1872009396368" cy="339.3943702767414" r="4.762916027179689" fill="#CFAE58" opacity="0.1580165628036261"/>
  <circle cx="1062.401131610499" cy="501.3572326194473" r="3.778185533021115" fill="#CFAE58" opacity="0.21454049002349002"/>

  <!-- Border with glow -->
  <rect x="40" y="40" width="1120" height="550" fill="none" stroke="url(#goldGradient)" stroke-width="3" rx="12" filter="url(#softGlow)"/>

  <!-- Icon circle with premium background -->
  <circle cx="150" cy="200" r="75" fill="#CFAE58" opacity="0.15" filter="url(#softGlow)"/>
  <circle cx="150" cy="200" r="70" fill="#CFAE58" opacity="0.25"/>
  <text x="150" y="235" font-size="90" text-anchor="middle" fill="#CFAE58" filter="url(#glow)">🎣</text>

  <!-- Premium logo (crown) with enhanced styling -->
  <g transform="translate(100, 70)">
    <path d="M 30 20 L 40 35 L 35 35 Z M 50 15 L 60 35 L 45 35 Z M 65 20 L 75 35 L 70 35 Z M 30 35 L 75 35 L 73 45 L 32 45 Z"
          fill="url(#goldGradient)" filter="url(#glow)" stroke="#B89842" stroke-width="0.5"/>
    <circle cx="40" cy="25" r="3" fill="#4FD1C5" filter="url(#glow)"/>
    <circle cx="52" cy="20" r="4" fill="#4FD1C5" filter="url(#glow)"/>
    <circle cx="65" cy="25" r="3" fill="#4FD1C5" filter="url(#glow)"/>
  </g>

  <!-- Title with shadow -->
  <text x="280" y="180" font-family="Georgia, serif" font-size="72" font-weight="bold"
        fill="url(#goldGradient)" filter="url(#shadow)">Hatchery Tours</text>

  <!-- Subtitle with subtle glow -->
  <text x="280" y="230" font-family="Arial, sans-serif" font-size="36"
        fill="#D6DEE6" opacity="0.95" filter="url(#softGlow)">Family Experiences &amp; Caviar Tasting</text>

  <!-- Brand name with letter spacing -->
  <text x="280" y="300" font-family="Georgia, serif" font-size="32" font-weight="bold"
        fill="#CFAE58" letter-spacing="4" filter="url(#glow)">ROYAL KETA</text>

  <!-- Russian tagline -->
  <text x="280" y="340" font-family="Arial, sans-serif" font-size="22" font-style="italic"
        fill="#8B95A1" opacity="0.8">От икринки к королевской</text>

  <!-- Location -->
  <text x="280" y="380" font-family="Arial, sans-serif" font-size="20"
        fill="#8B95A1" opacity="0.7">Невельский район, Сахалин</text>

  <!-- Website with glow -->
  <text x="100" y="570" font-family="Arial, sans-serif" font-size="30" font-weight="bold"
        fill="#4FD1C5" filter="url(#glow)">royalketa.com</text>

  <!-- Enhanced decorative salmon silhouette -->
  <g transform="translate(950, 480)" opacity="0.2" filter="url(#softGlow)">
    <ellipse cx="0" cy="0" rx="90" ry="35" fill="#CFAE58"/>
    <path d="M 90 0 L 120 -18 L 130 0 L 120 18 Z" fill="#CFAE58"/>
    <path d="M -25 -35 L 0 -45 L 25 -35 Z" fill="#CFAE58"/>
    <ellipse cx="-50" cy="0" rx="15" ry="12" fill="#0B0F14"/>
  </g>

  <!-- Additional decorative caviar clusters -->
  <g opacity="0.2">
    <circle cx="1050" cy="120" r="6" fill="#CFAE58"/>
    <circle cx="1065" cy="115" r="5" fill="#CFAE58"/>
    <circle cx="1058" cy="130" r="4" fill="#CFAE58"/>
    <circle cx="150" cy="500" r="5" fill="#4FD1C5"/>
    <circle cx="165" cy="508" r="4" fill="#4FD1C5"/>
    <circle cx="140" cy="512" r="5" fill="#4FD1C5"/>
  </g>
</svg>