<svg width="1200" height="630" xmlns="http://www.w3.org/2000/svg">
  <defs>
    <linearGradient id="bgGradient" x1="0%" y1="0%" x2="100%" y2="100%">
      <stop offset="0%" style="stop-color:#0B0F14;stop-opacity:1" />
      <stop offset="50%" style="stop-color:#0F1619;stop-opacity:1" />
      <stop offset="100%" style="stop-color:#0F1922;stop-opacity:1" />
    </linearGradient>
    <linearGradient id="goldGradient" x1="0%" y1="0%" x2="100%" y2="0%">
      <stop offset="0%" style="stop-color:#E5D596;stop-opacity:1" />
      <stop offset="50%" style="stop-color:#CFAE58;stop-opacity:1" />
      <stop offset="100%" style="stop-color:#B89842;stop-opacity:1" />
    </linearGradient>
    <radialGradient id="oceanGradient" cx="50%" cy="50%" r="50%">
      <stop offset="0%" style="stop-color:#4FD1C5;stop-opacity:0.3" />
      <stop offset="100%" style="stop-color:#1E90A0;stop-opacity:0.05" />
    </radialGradient>
    <filter id="glow">
      <feGaussianBlur stdDeviation="5" result="coloredBlur"/>
      <feMerge>
        <feMergeNode in="coloredBlur"/>
        <feMergeNode in="SourceGraphic"/>
      </feMerge>
    </filter>
    <filter id="softGlow">
      <feGaussianBlur stdDeviation="8" result="coloredBlur"/>
      <feMerge>
        <feMergeNode in="coloredBlur"/>
        <feMergeNode in="SourceGraphic"/>
      </feMerge>
    </filter>
    <filter id="shadow">
      <feDropShadow dx="0" dy="4" stdDeviation="8" flood-color="#000000" flood-opacity="0.5"/>
    </filter>
  </defs>

  <!-- Background -->
  <rect width="1200" height="630" fill="url(#bgGradient)"/>

  <!-- Decorative ocean gradients -->
  <ellipse cx="1000" cy="150" rx="300" ry="200" fill="url(#oceanGradient)" opacity="0.4"/>
  <ellipse cx="200" cy="530" rx="250" ry="180" fill="url(#oceanGradient)" opacity="0.3"/>

  <!-- Wave patterns -->
  <path d="M 0 400 Q 300 350 600 400 T 1200 400 L 1200 630 L 0 630 Z" fill="#1E90A0" opacity="0.08"/>
  <path d="M 0 450 Q 250 420 500 450 T 1000 450 T 1200 450 L 1200 630 L 0 630 Z" fill="#4FD1C5" opacity="0.05"/>

  <!-- Caviar roe particles -->
  <circle cx="91.94881416546963" cy="340.38792532566384" r="5.136280211545477" fill="#CFAE58" opacity="0.2105816661137807"/>
  <circle cx="1048.3750348818899" cy="72.40926279803134" r="2.11029184938716" fill="#CFAE58" opacity="0.22472993983434916"/>
  <circle cx="1059.4754150857946" cy="446.3776042900574" r="3.406782175293844" fill="#CFAE58" opacity="0.17988962059810593"/>
  <circle cx="636.6491795541331" cy="605.0456805300428" r="4.4811548828625325" fill="#CFAE58" opacity="0.2039956066584518"/>
  <circle cx="648.3080360890325" cy="180.70245045022165" r="4.891337145412218" fill="#CFAE58" opacity="0.1512352821714095"/>
  <circle cx="784.9962165875752" cy="230.92014763088494" r="5.691209835222043" fill="#CFAE58" opacity="0.2190326895664476"/>
  <circle cx="369.33981132480955" cy="581.6610992143065" r="5.193360535320257" fill="#CFAE58" opacity="0.19925604826081325"/>
  <circle cx="527.1144510048766" cy="278.1405107523394" r="3.4942404606223754" fill="#CFAE58" opacity="0.18637865915501006"/>
  <circle cx="257.5497118182094" cy="586.2751228951417" r="4.647636625396724" fill="#CFAE58" opacity="0.16476288729848"/>
  <circle cx="23.457493049705924" cy="95.18606304075443" r="2.650815982446" fill="#CFAE58" opacity="0.11254428213385366"/>
  <circle cx="431.07396171580945" cy="21.746513005017423" r="3.9856396544838484" fill="#CFAE58" opacity="0.1705699037549776"/>
  <circle cx="765.0512182994813" cy="131.10845276555216" r="2.6061309291541974" fill="#CFAE58" opacity="0.17550873593337818"/>
  <circle cx="866.8238812902982" cy="565.6295914739344" r="2.001826936657028" fill="#CFAE58" opacity="0.24014969544790354"/>
  <circle cx="495.0516022894024" cy="301.8217265899699" r="3.6613175746350493" fill="#CFAE58" opacity="0.20637041294245378"/>
  <circle cx="177.2944417030504" cy="290.42140923298876" r="3.425597684321697" fill="#CFAE58" opacity="0.19979075543403052"/>
  <circle cx="648.8135548884838" cy="387.21777156992414" r="2.826446599946804" fill="#CFAE58" opacity="0.24911451952690902"/>
  <circle cx="1190.6140160193327" cy="164.16936403453963" r="4.270840253910222" fill="#CFAE58" opacity="0.15776909041216003"/>
  <circle cx="1151.1494671954504" cy="132.23781234229935" r="4.549616521257166" fill="#CFAE58" opacity="0.132381355144869"/>
  <circle cx="1043.780609818537" cy="71.21842414768551" r="4.765383933909022" fill="#CFAE58" opacity="0.12103212288906726"/>
  <circle cx="20.363129259152224" cy="607.1054118257343" r="2.0406980224709663" fill="#CFAE58" opacity="0.18614181404716268"/>
  <circle cx="114.73081663874166" cy="62.5194060306861" r="5.864810925495513" fill="#CFAE58" opacity="0.20305887920785545"/>
  <circle cx="281.2434751197189" cy="56.82457834432276" r="4.645344029455848" fill="#CFAE58" opacity="0.1873819739197572"/>
  <circle cx="1177.4695556778404" cy="374.8223777184614" r="4.637565515378253" fill="#CFAE58" opacity="0.1603874565720759"/>
  <circle cx="272.55005272191244" cy="216.6571298404402" r="5.241468752450991" fill="#CFAE58" opacity="0.23406198236804437"/>
  <circle cx="1193.024802151984" cy="319.329967833789" r="5.452063388538771" fill="#CFAE58" opacity="0.1374319503181895"/>
  <circle cx="1052.16508106073" cy="325.2890557928112" r="3.0015211780606403" fill="#CFAE58" opacity="0.14706390940527908"/>
  <circle cx="689.9974127155671" cy="263.9775781393201" r="4.370384424483196" fill="#CFAE58" opacity="0.17093517523325324"/>
  <circle cx="352.335927014404" cy="89.17617132729167" r="4.2107505247291535" fill="#CFAE58" opacity="0.20518070050221768"/>
  <circle cx="489.37244485840694" cy="601.9949086719133" r="2.5002835932858654" fill="#CFAE58" opacity="0.10105144083393269"/>
  <circle cx="265.85899822671877" cy="566.2620246132057" r="4.503095862659509" fill="#CFAE58" opacity="0.17391302977142903"/>

  <!-- Border with glow -->
  <rect x="40" y="40" width="1120" height="550" fill="none" stroke="url(#goldGradient)" stroke-width="3" rx="12" filter="url(#softGlow)"/>

  <!-- Icon circle with premium background -->
  <circle cx="150" cy="200" r="75" fill="#CFAE58" opacity="0.15" filter="url(#softGlow)"/>
  <circle cx="150" cy="200" r="70" fill="#CFAE58" opacity="0.25"/>
  <text x="150" y="235" font-size="90" text-anchor="middle" fill="#CFAE58" filter="url(#glow)">🎣</text>

  <!-- Premium logo (crown) with enhanced styling -->
  <g transform="translate(100, 70)">
    <path d="M 30 20 L 40 35 L 35 35 Z M 50 15 L 60 35 L 45 35 Z M 65 20 L 75 35 L 70 35 Z M 30 35 L 75 35 L 73 45 L 32 45 Z"
          fill="url(#goldGradient)" filter="url(#glow)" stroke="#B89842" stroke-width="0.5"/>
    <circle cx="40" cy="25" r="3" fill="#4FD1C5" filter="url(#glow)"/>
    <circle cx="52" cy="20" r="4" fill="#4FD1C5" filter="url(#glow)"/>
    <circle cx="65" cy="25" r="3" fill="#4FD1C5" filter="url(#glow)"/>
  </g>

  <!-- Title with shadow -->
  <text x="280" y="180" font-family="Georgia, serif" font-size="72" font-weight="bold"
        fill="url(#goldGradient)" filter="url(#shadow)">Hatchery Tours</text>

  <!-- Subtitle with subtle glow -->
  <text x="280" y="230" font-family="Arial, sans-serif" font-size="36"
        fill="#D6DEE6" opacity="0.95" filter="url(#softGlow)">Family Experiences &amp; Caviar Tasting</text>

  <!-- Brand name with letter spacing -->
  <text x="280" y="300" font-family="Georgia, serif" font-size="32" font-weight="bold"
        fill="#CFAE58" letter-spacing="4" filter="url(#glow)">ROYAL KETA</text>

  <!-- Russian tagline -->
  <text x="280" y="340" font-family="Arial, sans-serif" font-size="22" font-style="italic"
        fill="#8B95A1" opacity="0.8">От икринки к королевской</text>

  <!-- Location -->
  <text x="280" y="380" font-family="Arial, sans-serif" font-size="20"
        fill="#8B95A1" opacity="0.7">Невельский район, Сахалин</text>

  <!-- Website with glow -->
  <text x="100" y="570" font-family="Arial, sans-serif" font-size="30" font-weight="bold"
        fill="#4FD1C5" filter="url(#glow)">royalketa.com</text>

  <!-- Enhanced decorative salmon silhouette -->
  <g transform="translate(950, 480)" opacity="0.2" filter="url(#softGlow)">
    <ellipse cx="0" cy="0" rx="90" ry="35" fill="#CFAE58"/>
    <path d="M 90 0 L 120 -18 L 130 0 L 120 18 Z" fill="#CFAE58"/>
    <path d="M -25 -35 L 0 -45 L 25 -35 Z" fill="#CFAE58"/>
    <ellipse cx="-50" cy="0" rx="15" ry="12" fill="#0B0F14"/>
  </g>

  <!-- Additional decorative caviar clusters -->
  <g opacity="0.2">
    <circle cx="1050" cy="120" r="6" fill="#CFAE58"/>
    <circle cx="1065" cy="115" r="5" fill="#CFAE58"/>
    <circle cx="1058" cy="130" r="4" fill="#CFAE58"/>
    <circle cx="150" cy="500" r="5" fill="#4FD1C5"/>
    <circle cx="165" cy="508" r="4" fill="#4FD1C5"/>
    <circle cx="140" cy="512" r="5" fill="#4FD1C5"/>
  </g>
</svg>