<svg width="1200" height="630" xmlns="http://www.w3.org/2000/svg">
  <defs>
    <linearGradient id="bgGradient" x1="0%" y1="0%" x2="100%" y2="100%">
      <stop offset="0%" style="stop-color:#0B0F14;stop-opacity:1" />
      <stop offset="50%" style="stop-color:#0F1619;stop-opacity:1" />
      <stop offset="100%" style="stop-color:#0F1922;stop-opacity:1" />
    </linearGradient>
    <linearGradient id="goldGradient" x1="0%" y1="0%" x2="100%" y2="0%">
      <stop offset="0%" style="stop-color:#E5D596;stop-opacity:1" />
      <stop offset="50%" style="stop-color:#CFAE58;stop-opacity:1" />
      <stop offset="100%" style="stop-color:#B89842;stop-opacity:1" />
    </linearGradient>
    <radialGradient id="oceanGradient" cx="50%" cy="50%" r="50%">
      <stop offset="0%" style="stop-color:#4FD1C5;stop-opacity:0.3" />
      <stop offset="100%" style="stop-color:#1E90A0;stop-opacity:0.05" />
    </radialGradient>
    <filter id="glow">
      <feGaussianBlur stdDeviation="5" result="coloredBlur"/>
      <feMerge>
        <feMergeNode in="coloredBlur"/>
        <feMergeNode in="SourceGraphic"/>
      </feMerge>
    </filter>
    <filter id="softGlow">
      <feGaussianBlur stdDeviation="8" result="coloredBlur"/>
      <feMerge>
        <feMergeNode in="coloredBlur"/>
        <feMergeNode in="SourceGraphic"/>
      </feMerge>
    </filter>
    <filter id="shadow">
      <feDropShadow dx="0" dy="4" stdDeviation="8" flood-color="#000000" flood-opacity="0.5"/>
    </filter>
  </defs>

  <!-- Background -->
  <rect width="1200" height="630" fill="url(#bgGradient)"/>

  <!-- Decorative ocean gradients -->
  <ellipse cx="1000" cy="150" rx="300" ry="200" fill="url(#oceanGradient)" opacity="0.4"/>
  <ellipse cx="200" cy="530" rx="250" ry="180" fill="url(#oceanGradient)" opacity="0.3"/>

  <!-- Wave patterns -->
  <path d="M 0 400 Q 300 350 600 400 T 1200 400 L 1200 630 L 0 630 Z" fill="#1E90A0" opacity="0.08"/>
  <path d="M 0 450 Q 250 420 500 450 T 1000 450 T 1200 450 L 1200 630 L 0 630 Z" fill="#4FD1C5" opacity="0.05"/>

  <!-- Caviar roe particles -->
  <circle cx="226.44926907661983" cy="369.9425179685589" r="4.307320694840991" fill="#CFAE58" opacity="0.20759276801755722"/>
  <circle cx="158.833697720671" cy="356.06772264769023" r="3.1141180808157114" fill="#CFAE58" opacity="0.21579622158549386"/>
  <circle cx="911.3068361518813" cy="281.7785372109273" r="2.7894308612435346" fill="#CFAE58" opacity="0.13077896455117555"/>
  <circle cx="276.71774460316607" cy="59.660092390949835" r="4.401966442467277" fill="#CFAE58" opacity="0.1497008472680414"/>
  <circle cx="436.0490175480779" cy="20.059630249435866" r="3.348034865039145" fill="#CFAE58" opacity="0.1669063837484261"/>
  <circle cx="271.8625710840709" cy="323.36805748283405" r="5.630963003210137" fill="#CFAE58" opacity="0.1863307768701441"/>
  <circle cx="83.41375607221467" cy="570.7874011529527" r="3.628019150426042" fill="#CFAE58" opacity="0.12242941252376059"/>
  <circle cx="24.610132284946484" cy="70.56737145021016" r="2.579351538740024" fill="#CFAE58" opacity="0.18188409856724985"/>
  <circle cx="577.3539782518448" cy="263.8446441897653" r="5.429410359638926" fill="#CFAE58" opacity="0.22674121391129032"/>
  <circle cx="945.3579127387014" cy="543.1129998310977" r="4.424289491458116" fill="#CFAE58" opacity="0.20870304690266428"/>
  <circle cx="912.1003926986904" cy="86.15123828853426" r="3.5517780832385797" fill="#CFAE58" opacity="0.19675401859764852"/>
  <circle cx="44.05128606636808" cy="326.003409508044" r="2.2782676756764415" fill="#CFAE58" opacity="0.18095901233216788"/>
  <circle cx="407.8342152187244" cy="73.93805625513788" r="4.736694764668906" fill="#CFAE58" opacity="0.2170994603277202"/>
  <circle cx="33.42682413828317" cy="25.818574237160316" r="4.304664429538117" fill="#CFAE58" opacity="0.17455164014191"/>
  <circle cx="578.6063562185792" cy="108.2156249647954" r="4.748624323866773" fill="#CFAE58" opacity="0.16761986553670996"/>
  <circle cx="934.5438635792034" cy="84.53611613149542" r="2.0431150938783946" fill="#CFAE58" opacity="0.2023591856123812"/>
  <circle cx="676.5519955128473" cy="549.529407660107" r="5.265314399985506" fill="#CFAE58" opacity="0.1147629872795405"/>
  <circle cx="1104.38820849557" cy="618.2515947284318" r="4.69708906904723" fill="#CFAE58" opacity="0.2141017362327507"/>
  <circle cx="46.5133115610751" cy="14.917362920859667" r="2.5022636349814973" fill="#CFAE58" opacity="0.11172481529586234"/>
  <circle cx="281.3180968952756" cy="17.595251326797044" r="5.407181205538965" fill="#CFAE58" opacity="0.17914788161214"/>
  <circle cx="1169.569393581934" cy="568.4378546618608" r="3.7994258037081505" fill="#CFAE58" opacity="0.14295598617401664"/>
  <circle cx="1020.4501948295176" cy="88.42009194664645" r="3.7726938932641065" fill="#CFAE58" opacity="0.1515373233765123"/>
  <circle cx="740.4564474360874" cy="22.63387803575179" r="3.0459474738760046" fill="#CFAE58" opacity="0.16762738027545404"/>
  <circle cx="935.1226278904182" cy="469.8917909623904" r="4.584338122829213" fill="#CFAE58" opacity="0.24322729594285614"/>
  <circle cx="946.7800994980952" cy="130.383878139846" r="5.124610533879998" fill="#CFAE58" opacity="0.23592282084154376"/>
  <circle cx="1032.8833559611746" cy="589.1586236523945" r="2.6776071049077292" fill="#CFAE58" opacity="0.14755559412833036"/>
  <circle cx="1198.9924224481902" cy="349.92785343589645" r="2.618776482323802" fill="#CFAE58" opacity="0.11131205076092805"/>
  <circle cx="1015.5054936778336" cy="50.30839327360604" r="2.0716008101592136" fill="#CFAE58" opacity="0.2063966628239915"/>
  <circle cx="877.340560871372" cy="462.7104508688011" r="5.883117675163737" fill="#CFAE58" opacity="0.15656995429018183"/>
  <circle cx="292.27289911620085" cy="617.6958868592047" r="2.9622588023500893" fill="#CFAE58" opacity="0.20746317705706876"/>

  <!-- Border with glow -->
  <rect x="40" y="40" width="1120" height="550" fill="none" stroke="url(#goldGradient)" stroke-width="3" rx="12" filter="url(#softGlow)"/>

  <!-- Icon circle with premium background -->
  <circle cx="150" cy="200" r="75" fill="#CFAE58" opacity="0.15" filter="url(#softGlow)"/>
  <circle cx="150" cy="200" r="70" fill="#CFAE58" opacity="0.25"/>
  <text x="150" y="235" font-size="90" text-anchor="middle" fill="#CFAE58" filter="url(#glow)">🎣</text>

  <!-- Premium logo (crown) with enhanced styling -->
  <g transform="translate(100, 70)">
    <path d="M 30 20 L 40 35 L 35 35 Z M 50 15 L 60 35 L 45 35 Z M 65 20 L 75 35 L 70 35 Z M 30 35 L 75 35 L 73 45 L 32 45 Z"
          fill="url(#goldGradient)" filter="url(#glow)" stroke="#B89842" stroke-width="0.5"/>
    <circle cx="40" cy="25" r="3" fill="#4FD1C5" filter="url(#glow)"/>
    <circle cx="52" cy="20" r="4" fill="#4FD1C5" filter="url(#glow)"/>
    <circle cx="65" cy="25" r="3" fill="#4FD1C5" filter="url(#glow)"/>
  </g>

  <!-- Title with shadow -->
  <text x="280" y="180" font-family="Georgia, serif" font-size="72" font-weight="bold"
        fill="url(#goldGradient)" filter="url(#shadow)">Hatchery Tours</text>

  <!-- Subtitle with subtle glow -->
  <text x="280" y="230" font-family="Arial, sans-serif" font-size="36"
        fill="#D6DEE6" opacity="0.95" filter="url(#softGlow)">Family Experiences &amp; Caviar Tasting</text>

  <!-- Brand name with letter spacing -->
  <text x="280" y="300" font-family="Georgia, serif" font-size="32" font-weight="bold"
        fill="#CFAE58" letter-spacing="4" filter="url(#glow)">ROYAL KETA</text>

  <!-- Russian tagline -->
  <text x="280" y="340" font-family="Arial, sans-serif" font-size="22" font-style="italic"
        fill="#8B95A1" opacity="0.8">От икринки к королевской</text>

  <!-- Location -->
  <text x="280" y="380" font-family="Arial, sans-serif" font-size="20"
        fill="#8B95A1" opacity="0.7">Невельский район, Сахалин</text>

  <!-- Website with glow -->
  <text x="100" y="570" font-family="Arial, sans-serif" font-size="30" font-weight="bold"
        fill="#4FD1C5" filter="url(#glow)">royalketa.com</text>

  <!-- Enhanced decorative salmon silhouette -->
  <g transform="translate(950, 480)" opacity="0.2" filter="url(#softGlow)">
    <ellipse cx="0" cy="0" rx="90" ry="35" fill="#CFAE58"/>
    <path d="M 90 0 L 120 -18 L 130 0 L 120 18 Z" fill="#CFAE58"/>
    <path d="M -25 -35 L 0 -45 L 25 -35 Z" fill="#CFAE58"/>
    <ellipse cx="-50" cy="0" rx="15" ry="12" fill="#0B0F14"/>
  </g>

  <!-- Additional decorative caviar clusters -->
  <g opacity="0.2">
    <circle cx="1050" cy="120" r="6" fill="#CFAE58"/>
    <circle cx="1065" cy="115" r="5" fill="#CFAE58"/>
    <circle cx="1058" cy="130" r="4" fill="#CFAE58"/>
    <circle cx="150" cy="500" r="5" fill="#4FD1C5"/>
    <circle cx="165" cy="508" r="4" fill="#4FD1C5"/>
    <circle cx="140" cy="512" r="5" fill="#4FD1C5"/>
  </g>
</svg>