<svg width="1200" height="630" xmlns="http://www.w3.org/2000/svg">
  <defs>
    <linearGradient id="bgGradient" x1="0%" y1="0%" x2="100%" y2="100%">
      <stop offset="0%" style="stop-color:#0B0F14;stop-opacity:1" />
      <stop offset="50%" style="stop-color:#0F1619;stop-opacity:1" />
      <stop offset="100%" style="stop-color:#0F1922;stop-opacity:1" />
    </linearGradient>
    <linearGradient id="goldGradient" x1="0%" y1="0%" x2="100%" y2="0%">
      <stop offset="0%" style="stop-color:#E5D596;stop-opacity:1" />
      <stop offset="50%" style="stop-color:#CFAE58;stop-opacity:1" />
      <stop offset="100%" style="stop-color:#B89842;stop-opacity:1" />
    </linearGradient>
    <radialGradient id="oceanGradient" cx="50%" cy="50%" r="50%">
      <stop offset="0%" style="stop-color:#4FD1C5;stop-opacity:0.3" />
      <stop offset="100%" style="stop-color:#1E90A0;stop-opacity:0.05" />
    </radialGradient>
    <filter id="glow">
      <feGaussianBlur stdDeviation="5" result="coloredBlur"/>
      <feMerge>
        <feMergeNode in="coloredBlur"/>
        <feMergeNode in="SourceGraphic"/>
      </feMerge>
    </filter>
    <filter id="softGlow">
      <feGaussianBlur stdDeviation="8" result="coloredBlur"/>
      <feMerge>
        <feMergeNode in="coloredBlur"/>
        <feMergeNode in="SourceGraphic"/>
      </feMerge>
    </filter>
    <filter id="shadow">
      <feDropShadow dx="0" dy="4" stdDeviation="8" flood-color="#000000" flood-opacity="0.5"/>
    </filter>
  </defs>

  <!-- Background -->
  <rect width="1200" height="630" fill="url(#bgGradient)"/>

  <!-- Decorative ocean gradients -->
  <ellipse cx="1000" cy="150" rx="300" ry="200" fill="url(#oceanGradient)" opacity="0.4"/>
  <ellipse cx="200" cy="530" rx="250" ry="180" fill="url(#oceanGradient)" opacity="0.3"/>

  <!-- Wave patterns -->
  <path d="M 0 400 Q 300 350 600 400 T 1200 400 L 1200 630 L 0 630 Z" fill="#1E90A0" opacity="0.08"/>
  <path d="M 0 450 Q 250 420 500 450 T 1000 450 T 1200 450 L 1200 630 L 0 630 Z" fill="#4FD1C5" opacity="0.05"/>

  <!-- Caviar roe particles -->
  <circle cx="372.0381295946511" cy="366.9370144531955" r="2.8235616366267893" fill="#CFAE58" opacity="0.1349897671093251"/>
  <circle cx="289.6876142215291" cy="289.3555301801691" r="4.301220825171498" fill="#CFAE58" opacity="0.17741846537347944"/>
  <circle cx="571.0370261695954" cy="300.4935099154988" r="3.174994127794542" fill="#CFAE58" opacity="0.2393419360439878"/>
  <circle cx="905.3760632037037" cy="327.46560553372984" r="5.308615013879618" fill="#CFAE58" opacity="0.12883463035580636"/>
  <circle cx="418.9384078586773" cy="55.65276294143435" r="2.8786218016876575" fill="#CFAE58" opacity="0.2445794673706718"/>
  <circle cx="447.9973650089988" cy="97.52437839530025" r="4.909779433235987" fill="#CFAE58" opacity="0.20501093594486278"/>
  <circle cx="606.9516467633523" cy="152.42957815275614" r="3.7218760600681797" fill="#CFAE58" opacity="0.15297225185035648"/>
  <circle cx="82.47773375325451" cy="68.20752591806517" r="5.306624341178016" fill="#CFAE58" opacity="0.12216436141042547"/>
  <circle cx="1071.765099601186" cy="337.8996274158051" r="2.113777359267962" fill="#CFAE58" opacity="0.16892234652665652"/>
  <circle cx="207.07889130714764" cy="58.864179007927" r="2.757855913184864" fill="#CFAE58" opacity="0.2178324448722118"/>
  <circle cx="94.19330517096887" cy="324.9133955344207" r="3.043422614865815" fill="#CFAE58" opacity="0.17774951922078253"/>
  <circle cx="267.15931810364634" cy="528.887177999378" r="2.720131754883015" fill="#CFAE58" opacity="0.1693259040838579"/>
  <circle cx="691.5853208739962" cy="260.61465920741347" r="5.711959406730316" fill="#CFAE58" opacity="0.16386761507920178"/>
  <circle cx="1020.3260920382811" cy="111.96609241536406" r="4.34047812431638" fill="#CFAE58" opacity="0.16609118193121486"/>
  <circle cx="603.9755913501239" cy="265.4119447946904" r="5.983516257147593" fill="#CFAE58" opacity="0.14810909828168897"/>
  <circle cx="25.55332124124927" cy="257.3304328235705" r="5.013520563478568" fill="#CFAE58" opacity="0.21545826959808342"/>
  <circle cx="1156.071989671273" cy="72.22508973654779" r="2.574641613750596" fill="#CFAE58" opacity="0.15678828983497123"/>
  <circle cx="305.282166443662" cy="184.65813788511238" r="2.711819245765115" fill="#CFAE58" opacity="0.16530356476713282"/>
  <circle cx="941.0828466563266" cy="531.0977429059641" r="4.2836315877140745" fill="#CFAE58" opacity="0.11494429160932451"/>
  <circle cx="465.96592558040834" cy="516.6983915574388" r="3.9765209200357496" fill="#CFAE58" opacity="0.10435418474205874"/>
  <circle cx="700.2694020743911" cy="145.40046527376853" r="2.608260409184102" fill="#CFAE58" opacity="0.1592666889217706"/>
  <circle cx="712.4182933128596" cy="482.33858238670274" r="2.906667437419035" fill="#CFAE58" opacity="0.19252507789525863"/>
  <circle cx="262.25174373572776" cy="590.0209762952587" r="5.176256692888207" fill="#CFAE58" opacity="0.1845835454436209"/>
  <circle cx="398.6196119797424" cy="366.36390813563014" r="3.766689152979639" fill="#CFAE58" opacity="0.18187139805779523"/>
  <circle cx="197.37436511895288" cy="387.1056067876185" r="3.026692373464292" fill="#CFAE58" opacity="0.13577546267535348"/>
  <circle cx="660.1515682973707" cy="369.91959301361686" r="3.749021748866145" fill="#CFAE58" opacity="0.1236705270961278"/>
  <circle cx="904.135970448171" cy="227.42671194808156" r="3.3326591435016333" fill="#CFAE58" opacity="0.1380167058964619"/>
  <circle cx="1069.6542182592748" cy="293.6458266391255" r="5.168003249237908" fill="#CFAE58" opacity="0.1497233255746688"/>
  <circle cx="572.2178779849886" cy="416.5583221385101" r="2.0556863858812697" fill="#CFAE58" opacity="0.14825522847668202"/>
  <circle cx="154.6045935830044" cy="349.65124272047535" r="2.576927918968731" fill="#CFAE58" opacity="0.12075512178106522"/>

  <!-- Border with glow -->
  <rect x="40" y="40" width="1120" height="550" fill="none" stroke="url(#goldGradient)" stroke-width="3" rx="12" filter="url(#softGlow)"/>

  <!-- Icon circle with premium background -->
  <circle cx="150" cy="200" r="75" fill="#CFAE58" opacity="0.15" filter="url(#softGlow)"/>
  <circle cx="150" cy="200" r="70" fill="#CFAE58" opacity="0.25"/>
  <text x="150" y="235" font-size="90" text-anchor="middle" fill="#CFAE58" filter="url(#glow)">🎣</text>

  <!-- Premium logo (crown) with enhanced styling -->
  <g transform="translate(100, 70)">
    <path d="M 30 20 L 40 35 L 35 35 Z M 50 15 L 60 35 L 45 35 Z M 65 20 L 75 35 L 70 35 Z M 30 35 L 75 35 L 73 45 L 32 45 Z"
          fill="url(#goldGradient)" filter="url(#glow)" stroke="#B89842" stroke-width="0.5"/>
    <circle cx="40" cy="25" r="3" fill="#4FD1C5" filter="url(#glow)"/>
    <circle cx="52" cy="20" r="4" fill="#4FD1C5" filter="url(#glow)"/>
    <circle cx="65" cy="25" r="3" fill="#4FD1C5" filter="url(#glow)"/>
  </g>

  <!-- Title with shadow -->
  <text x="280" y="180" font-family="Georgia, serif" font-size="72" font-weight="bold"
        fill="url(#goldGradient)" filter="url(#shadow)">Hatchery Tours</text>

  <!-- Subtitle with subtle glow -->
  <text x="280" y="230" font-family="Arial, sans-serif" font-size="36"
        fill="#D6DEE6" opacity="0.95" filter="url(#softGlow)">Family Experiences &amp; Caviar Tasting</text>

  <!-- Brand name with letter spacing -->
  <text x="280" y="300" font-family="Georgia, serif" font-size="32" font-weight="bold"
        fill="#CFAE58" letter-spacing="4" filter="url(#glow)">ROYAL KETA</text>

  <!-- Russian tagline -->
  <text x="280" y="340" font-family="Arial, sans-serif" font-size="22" font-style="italic"
        fill="#8B95A1" opacity="0.8">От икринки к королевской</text>

  <!-- Location -->
  <text x="280" y="380" font-family="Arial, sans-serif" font-size="20"
        fill="#8B95A1" opacity="0.7">Невельский район, Сахалин</text>

  <!-- Website with glow -->
  <text x="100" y="570" font-family="Arial, sans-serif" font-size="30" font-weight="bold"
        fill="#4FD1C5" filter="url(#glow)">royalketa.com</text>

  <!-- Enhanced decorative salmon silhouette -->
  <g transform="translate(950, 480)" opacity="0.2" filter="url(#softGlow)">
    <ellipse cx="0" cy="0" rx="90" ry="35" fill="#CFAE58"/>
    <path d="M 90 0 L 120 -18 L 130 0 L 120 18 Z" fill="#CFAE58"/>
    <path d="M -25 -35 L 0 -45 L 25 -35 Z" fill="#CFAE58"/>
    <ellipse cx="-50" cy="0" rx="15" ry="12" fill="#0B0F14"/>
  </g>

  <!-- Additional decorative caviar clusters -->
  <g opacity="0.2">
    <circle cx="1050" cy="120" r="6" fill="#CFAE58"/>
    <circle cx="1065" cy="115" r="5" fill="#CFAE58"/>
    <circle cx="1058" cy="130" r="4" fill="#CFAE58"/>
    <circle cx="150" cy="500" r="5" fill="#4FD1C5"/>
    <circle cx="165" cy="508" r="4" fill="#4FD1C5"/>
    <circle cx="140" cy="512" r="5" fill="#4FD1C5"/>
  </g>
</svg>