<svg width="1200" height="630" xmlns="http://www.w3.org/2000/svg">
  <defs>
    <linearGradient id="bgGradient" x1="0%" y1="0%" x2="100%" y2="100%">
      <stop offset="0%" style="stop-color:#0B0F14;stop-opacity:1" />
      <stop offset="50%" style="stop-color:#0F1619;stop-opacity:1" />
      <stop offset="100%" style="stop-color:#0F1922;stop-opacity:1" />
    </linearGradient>
    <linearGradient id="goldGradient" x1="0%" y1="0%" x2="100%" y2="0%">
      <stop offset="0%" style="stop-color:#E5D596;stop-opacity:1" />
      <stop offset="50%" style="stop-color:#CFAE58;stop-opacity:1" />
      <stop offset="100%" style="stop-color:#B89842;stop-opacity:1" />
    </linearGradient>
    <radialGradient id="oceanGradient" cx="50%" cy="50%" r="50%">
      <stop offset="0%" style="stop-color:#4FD1C5;stop-opacity:0.3" />
      <stop offset="100%" style="stop-color:#1E90A0;stop-opacity:0.05" />
    </radialGradient>
    <filter id="glow">
      <feGaussianBlur stdDeviation="5" result="coloredBlur"/>
      <feMerge>
        <feMergeNode in="coloredBlur"/>
        <feMergeNode in="SourceGraphic"/>
      </feMerge>
    </filter>
    <filter id="softGlow">
      <feGaussianBlur stdDeviation="8" result="coloredBlur"/>
      <feMerge>
        <feMergeNode in="coloredBlur"/>
        <feMergeNode in="SourceGraphic"/>
      </feMerge>
    </filter>
    <filter id="shadow">
      <feDropShadow dx="0" dy="4" stdDeviation="8" flood-color="#000000" flood-opacity="0.5"/>
    </filter>
  </defs>

  <!-- Background -->
  <rect width="1200" height="630" fill="url(#bgGradient)"/>

  <!-- Decorative ocean gradients -->
  <ellipse cx="1000" cy="150" rx="300" ry="200" fill="url(#oceanGradient)" opacity="0.4"/>
  <ellipse cx="200" cy="530" rx="250" ry="180" fill="url(#oceanGradient)" opacity="0.3"/>

  <!-- Wave patterns -->
  <path d="M 0 400 Q 300 350 600 400 T 1200 400 L 1200 630 L 0 630 Z" fill="#1E90A0" opacity="0.08"/>
  <path d="M 0 450 Q 250 420 500 450 T 1000 450 T 1200 450 L 1200 630 L 0 630 Z" fill="#4FD1C5" opacity="0.05"/>

  <!-- Caviar roe particles -->
  <circle cx="729.6637880295181" cy="552.0829406256372" r="5.104801530562958" fill="#CFAE58" opacity="0.16489742902096335"/>
  <circle cx="476.3492781153074" cy="114.05111087611793" r="3.387628590760815" fill="#CFAE58" opacity="0.1302327383115053"/>
  <circle cx="304.40982351039906" cy="198.38099046250528" r="2.4794974603892888" fill="#CFAE58" opacity="0.20397949810261806"/>
  <circle cx="1038.0634471913604" cy="264.28109266446404" r="5.160901778112162" fill="#CFAE58" opacity="0.18562991975664594"/>
  <circle cx="911.780634663305" cy="1.9640121348598738" r="2.850515343493309" fill="#CFAE58" opacity="0.20228968133638836"/>
  <circle cx="1179.8677522421453" cy="66.20012834998435" r="3.653972880043451" fill="#CFAE58" opacity="0.12195379740747891"/>
  <circle cx="569.6385680651377" cy="261.7016583065199" r="2.882027230468612" fill="#CFAE58" opacity="0.18908824544769234"/>
  <circle cx="123.66710571566264" cy="570.659577832049" r="2.379463623827818" fill="#CFAE58" opacity="0.13213438010951242"/>
  <circle cx="820.4058417721236" cy="560.7139206333085" r="2.5388877068208293" fill="#CFAE58" opacity="0.11101457761217118"/>
  <circle cx="296.41843711079235" cy="76.30447332509993" r="5.122951939495512" fill="#CFAE58" opacity="0.2498914626700963"/>
  <circle cx="606.8901621533552" cy="193.48499162920803" r="2.79677819665173" fill="#CFAE58" opacity="0.16357203834577538"/>
  <circle cx="814.2578530331722" cy="275.024761952843" r="2.4055189406553312" fill="#CFAE58" opacity="0.11673931628289416"/>
  <circle cx="981.4600221928555" cy="198.6666759361165" r="4.583662577907209" fill="#CFAE58" opacity="0.17668003676771482"/>
  <circle cx="952.1678816417301" cy="572.0546874461266" r="4.410497533279297" fill="#CFAE58" opacity="0.1089127925943813"/>
  <circle cx="470.34701470888206" cy="564.9625887624813" r="5.833044269279378" fill="#CFAE58" opacity="0.23588828978770904"/>
  <circle cx="1081.5715246051882" cy="415.94805410380104" r="4.320204190495558" fill="#CFAE58" opacity="0.24125091669260912"/>
  <circle cx="402.6086124868534" cy="318.311552130524" r="3.133569054711171" fill="#CFAE58" opacity="0.1584248900215977"/>
  <circle cx="893.7617660871758" cy="369.388332917337" r="5.877139479981064" fill="#CFAE58" opacity="0.11972178776552468"/>
  <circle cx="515.8696939820214" cy="294.91877990550915" r="4.737014634428462" fill="#CFAE58" opacity="0.1915329981218442"/>
  <circle cx="191.10061294243056" cy="185.33349744746934" r="2.1829077755043267" fill="#CFAE58" opacity="0.1364546268340124"/>
  <circle cx="966.0459970590728" cy="546.1232605812423" r="4.676245556648583" fill="#CFAE58" opacity="0.10856440906812632"/>
  <circle cx="839.5046838141916" cy="183.7589094991516" r="3.4741967467921384" fill="#CFAE58" opacity="0.17685840594458413"/>
  <circle cx="595.6377459996792" cy="553.0390846895945" r="5.607911812633301" fill="#CFAE58" opacity="0.24756108505074165"/>
  <circle cx="443.35102047737524" cy="387.3840079578223" r="4.596735190234082" fill="#CFAE58" opacity="0.22906548207010105"/>
  <circle cx="1098.9481777050726" cy="279.7871656415831" r="3.927364767707262" fill="#CFAE58" opacity="0.23153679817303535"/>
  <circle cx="484.4613055676256" cy="474.17111230624806" r="4.60160494123729" fill="#CFAE58" opacity="0.10600931805734043"/>
  <circle cx="251.85364716737294" cy="22.30203691070795" r="2.430758072332517" fill="#CFAE58" opacity="0.2237034396386579"/>
  <circle cx="887.7706232957164" cy="71.71471761697485" r="3.9545964549211465" fill="#CFAE58" opacity="0.15330999904166215"/>
  <circle cx="674.6624932018403" cy="343.62524903892387" r="5.643246616052243" fill="#CFAE58" opacity="0.23096045980050522"/>
  <circle cx="1006.3995659902673" cy="93.44166281713468" r="4.496720516127621" fill="#CFAE58" opacity="0.20359526353398855"/>

  <!-- Border with glow -->
  <rect x="40" y="40" width="1120" height="550" fill="none" stroke="url(#goldGradient)" stroke-width="3" rx="12" filter="url(#softGlow)"/>

  <!-- Icon circle with premium background -->
  <circle cx="150" cy="200" r="75" fill="#CFAE58" opacity="0.15" filter="url(#softGlow)"/>
  <circle cx="150" cy="200" r="70" fill="#CFAE58" opacity="0.25"/>
  <text x="150" y="235" font-size="90" text-anchor="middle" fill="#CFAE58" filter="url(#glow)">🎣</text>

  <!-- Premium logo (crown) with enhanced styling -->
  <g transform="translate(100, 70)">
    <path d="M 30 20 L 40 35 L 35 35 Z M 50 15 L 60 35 L 45 35 Z M 65 20 L 75 35 L 70 35 Z M 30 35 L 75 35 L 73 45 L 32 45 Z"
          fill="url(#goldGradient)" filter="url(#glow)" stroke="#B89842" stroke-width="0.5"/>
    <circle cx="40" cy="25" r="3" fill="#4FD1C5" filter="url(#glow)"/>
    <circle cx="52" cy="20" r="4" fill="#4FD1C5" filter="url(#glow)"/>
    <circle cx="65" cy="25" r="3" fill="#4FD1C5" filter="url(#glow)"/>
  </g>

  <!-- Title with shadow -->
  <text x="280" y="180" font-family="Georgia, serif" font-size="72" font-weight="bold"
        fill="url(#goldGradient)" filter="url(#shadow)">Hatchery Tours</text>

  <!-- Subtitle with subtle glow -->
  <text x="280" y="230" font-family="Arial, sans-serif" font-size="36"
        fill="#D6DEE6" opacity="0.95" filter="url(#softGlow)">Family Experiences & Caviar Tasting</text>

  <!-- Brand name with letter spacing -->
  <text x="280" y="300" font-family="Georgia, serif" font-size="32" font-weight="bold"
        fill="#CFAE58" letter-spacing="4" filter="url(#glow)">ROYAL KETA</text>

  <!-- Russian tagline -->
  <text x="280" y="340" font-family="Arial, sans-serif" font-size="22" font-style="italic"
        fill="#8B95A1" opacity="0.8">От икринки к королевской</text>

  <!-- Location -->
  <text x="280" y="380" font-family="Arial, sans-serif" font-size="20"
        fill="#8B95A1" opacity="0.7">Невельский район, Сахалин</text>

  <!-- Website with glow -->
  <text x="100" y="570" font-family="Arial, sans-serif" font-size="30" font-weight="bold"
        fill="#4FD1C5" filter="url(#glow)">royalketa.com</text>

  <!-- Enhanced decorative salmon silhouette -->
  <g transform="translate(950, 480)" opacity="0.2" filter="url(#softGlow)">
    <ellipse cx="0" cy="0" rx="90" ry="35" fill="#CFAE58"/>
    <path d="M 90 0 L 120 -18 L 130 0 L 120 18 Z" fill="#CFAE58"/>
    <path d="M -25 -35 L 0 -45 L 25 -35 Z" fill="#CFAE58"/>
    <ellipse cx="-50" cy="0" rx="15" ry="12" fill="#0B0F14"/>
  </g>

  <!-- Additional decorative caviar clusters -->
  <g opacity="0.2">
    <circle cx="1050" cy="120" r="6" fill="#CFAE58"/>
    <circle cx="1065" cy="115" r="5" fill="#CFAE58"/>
    <circle cx="1058" cy="130" r="4" fill="#CFAE58"/>
    <circle cx="150" cy="500" r="5" fill="#4FD1C5"/>
    <circle cx="165" cy="508" r="4" fill="#4FD1C5"/>
    <circle cx="140" cy="512" r="5" fill="#4FD1C5"/>
  </g>
</svg>