<svg width="1200" height="630" xmlns="http://www.w3.org/2000/svg">
  <defs>
    <linearGradient id="bgGradient" x1="0%" y1="0%" x2="100%" y2="100%">
      <stop offset="0%" style="stop-color:#0B0F14;stop-opacity:1" />
      <stop offset="50%" style="stop-color:#0F1619;stop-opacity:1" />
      <stop offset="100%" style="stop-color:#0F1922;stop-opacity:1" />
    </linearGradient>
    <linearGradient id="goldGradient" x1="0%" y1="0%" x2="100%" y2="0%">
      <stop offset="0%" style="stop-color:#E5D596;stop-opacity:1" />
      <stop offset="50%" style="stop-color:#CFAE58;stop-opacity:1" />
      <stop offset="100%" style="stop-color:#B89842;stop-opacity:1" />
    </linearGradient>
    <radialGradient id="oceanGradient" cx="50%" cy="50%" r="50%">
      <stop offset="0%" style="stop-color:#4FD1C5;stop-opacity:0.3" />
      <stop offset="100%" style="stop-color:#1E90A0;stop-opacity:0.05" />
    </radialGradient>
    <filter id="glow">
      <feGaussianBlur stdDeviation="5" result="coloredBlur"/>
      <feMerge>
        <feMergeNode in="coloredBlur"/>
        <feMergeNode in="SourceGraphic"/>
      </feMerge>
    </filter>
    <filter id="softGlow">
      <feGaussianBlur stdDeviation="8" result="coloredBlur"/>
      <feMerge>
        <feMergeNode in="coloredBlur"/>
        <feMergeNode in="SourceGraphic"/>
      </feMerge>
    </filter>
    <filter id="shadow">
      <feDropShadow dx="0" dy="4" stdDeviation="8" flood-color="#000000" flood-opacity="0.5"/>
    </filter>
  </defs>

  <!-- Background -->
  <rect width="1200" height="630" fill="url(#bgGradient)"/>

  <!-- Decorative ocean gradients -->
  <ellipse cx="1000" cy="150" rx="300" ry="200" fill="url(#oceanGradient)" opacity="0.4"/>
  <ellipse cx="200" cy="530" rx="250" ry="180" fill="url(#oceanGradient)" opacity="0.3"/>

  <!-- Wave patterns -->
  <path d="M 0 400 Q 300 350 600 400 T 1200 400 L 1200 630 L 0 630 Z" fill="#1E90A0" opacity="0.08"/>
  <path d="M 0 450 Q 250 420 500 450 T 1000 450 T 1200 450 L 1200 630 L 0 630 Z" fill="#4FD1C5" opacity="0.05"/>

  <!-- Caviar roe particles -->
  <circle cx="562.4053700373487" cy="17.86076231903987" r="5.312721082420776" fill="#CFAE58" opacity="0.20551680452234228"/>
  <circle cx="656.467283579438" cy="343.197118225945" r="4.420014198166714" fill="#CFAE58" opacity="0.17114851611968163"/>
  <circle cx="306.6984679552815" cy="309.8413172528242" r="3.3322269502797437" fill="#CFAE58" opacity="0.20520413409616162"/>
  <circle cx="517.5104904902389" cy="479.40074284860304" r="3.2014731770585323" fill="#CFAE58" opacity="0.11537947497002088"/>
  <circle cx="102.32166222886873" cy="389.74403483468177" r="2.1252515382310904" fill="#CFAE58" opacity="0.17674788976748182"/>
  <circle cx="12.677554951392622" cy="107.28327189598487" r="3.3789751258247582" fill="#CFAE58" opacity="0.19246282452349872"/>
  <circle cx="1195.380482018126" cy="232.7490697571984" r="2.462256304961035" fill="#CFAE58" opacity="0.20972564762497767"/>
  <circle cx="426.7461764773276" cy="16.59457306848829" r="3.736000632276345" fill="#CFAE58" opacity="0.15784468132381177"/>
  <circle cx="407.794240506593" cy="50.101581695512195" r="4.609118886984857" fill="#CFAE58" opacity="0.16227255786553618"/>
  <circle cx="373.2230919225903" cy="302.90187040532004" r="5.787460697686198" fill="#CFAE58" opacity="0.18671744651353722"/>
  <circle cx="1135.924755673265" cy="99.95863439621819" r="4.565292117937478" fill="#CFAE58" opacity="0.12004140642456768"/>
  <circle cx="481.8577592191053" cy="494.8421668124149" r="5.5614220131100645" fill="#CFAE58" opacity="0.22227273543893616"/>
  <circle cx="461.2713313518243" cy="291.91006817238105" r="5.0670241428564085" fill="#CFAE58" opacity="0.10587396124522074"/>
  <circle cx="288.57063563463663" cy="629.7198537849431" r="3.6467464771793674" fill="#CFAE58" opacity="0.15666853120928909"/>
  <circle cx="1040.2428859241854" cy="447.9435751340051" r="3.7124738813707383" fill="#CFAE58" opacity="0.1410752168060188"/>
  <circle cx="572.2864606882263" cy="149.182394911053" r="3.4381175534983828" fill="#CFAE58" opacity="0.2049443213889942"/>
  <circle cx="1011.018307925334" cy="52.361195137859276" r="4.310900362298391" fill="#CFAE58" opacity="0.12648534185016982"/>
  <circle cx="291.9379952751079" cy="140.48613837976356" r="2.1105084424126783" fill="#CFAE58" opacity="0.23927099991399345"/>
  <circle cx="296.7830696527405" cy="179.61052583993055" r="2.286884020898793" fill="#CFAE58" opacity="0.23226594443723045"/>
  <circle cx="17.410460291826936" cy="476.1172911238055" r="2.3043684097081414" fill="#CFAE58" opacity="0.2123856740398646"/>
  <circle cx="1175.474072119837" cy="373.01924684951706" r="4.658067597614889" fill="#CFAE58" opacity="0.15170546884351174"/>
  <circle cx="1192.6762172918957" cy="238.24266058322158" r="2.5587447834948778" fill="#CFAE58" opacity="0.20265024762416312"/>
  <circle cx="368.08272737380423" cy="203.16851270801678" r="4.483921294915772" fill="#CFAE58" opacity="0.10068072323025123"/>
  <circle cx="363.1896719349994" cy="322.1794222277912" r="5.694903917443343" fill="#CFAE58" opacity="0.2244219850838084"/>
  <circle cx="985.3249904171498" cy="199.61353960669797" r="2.846485951941405" fill="#CFAE58" opacity="0.11634177841437959"/>
  <circle cx="135.11240842754884" cy="532.6589023393083" r="3.168806818176695" fill="#CFAE58" opacity="0.13321187492006464"/>
  <circle cx="1160.6285367034543" cy="540.6119788534444" r="4.7674463338437985" fill="#CFAE58" opacity="0.13105063501099412"/>
  <circle cx="750.6983968084613" cy="64.95345607593318" r="2.421410383153363" fill="#CFAE58" opacity="0.239116488625663"/>
  <circle cx="1156.1398035970349" cy="102.46319938551228" r="2.8046722048434334" fill="#CFAE58" opacity="0.16208365171888867"/>
  <circle cx="512.8754451227512" cy="393.72999338837843" r="2.792789340319692" fill="#CFAE58" opacity="0.13505928972146664"/>

  <!-- Border with glow -->
  <rect x="40" y="40" width="1120" height="550" fill="none" stroke="url(#goldGradient)" stroke-width="3" rx="12" filter="url(#softGlow)"/>

  <!-- Icon circle with premium background -->
  <circle cx="150" cy="200" r="75" fill="#CFAE58" opacity="0.15" filter="url(#softGlow)"/>
  <circle cx="150" cy="200" r="70" fill="#CFAE58" opacity="0.25"/>
  <text x="150" y="235" font-size="90" text-anchor="middle" fill="#CFAE58" filter="url(#glow)">🎣</text>

  <!-- Premium logo (crown) with enhanced styling -->
  <g transform="translate(100, 70)">
    <path d="M 30 20 L 40 35 L 35 35 Z M 50 15 L 60 35 L 45 35 Z M 65 20 L 75 35 L 70 35 Z M 30 35 L 75 35 L 73 45 L 32 45 Z"
          fill="url(#goldGradient)" filter="url(#glow)" stroke="#B89842" stroke-width="0.5"/>
    <circle cx="40" cy="25" r="3" fill="#4FD1C5" filter="url(#glow)"/>
    <circle cx="52" cy="20" r="4" fill="#4FD1C5" filter="url(#glow)"/>
    <circle cx="65" cy="25" r="3" fill="#4FD1C5" filter="url(#glow)"/>
  </g>

  <!-- Title with shadow -->
  <text x="280" y="180" font-family="Georgia, serif" font-size="72" font-weight="bold"
        fill="url(#goldGradient)" filter="url(#shadow)">Hatchery Tours</text>

  <!-- Subtitle with subtle glow -->
  <text x="280" y="230" font-family="Arial, sans-serif" font-size="36"
        fill="#D6DEE6" opacity="0.95" filter="url(#softGlow)">Family Experiences &amp; Caviar Tasting</text>

  <!-- Brand name with letter spacing -->
  <text x="280" y="300" font-family="Georgia, serif" font-size="32" font-weight="bold"
        fill="#CFAE58" letter-spacing="4" filter="url(#glow)">ROYAL KETA</text>

  <!-- Russian tagline -->
  <text x="280" y="340" font-family="Arial, sans-serif" font-size="22" font-style="italic"
        fill="#8B95A1" opacity="0.8">От икринки к королевской</text>

  <!-- Location -->
  <text x="280" y="380" font-family="Arial, sans-serif" font-size="20"
        fill="#8B95A1" opacity="0.7">Невельский район, Сахалин</text>

  <!-- Website with glow -->
  <text x="100" y="570" font-family="Arial, sans-serif" font-size="30" font-weight="bold"
        fill="#4FD1C5" filter="url(#glow)">royalketa.com</text>

  <!-- Enhanced decorative salmon silhouette -->
  <g transform="translate(950, 480)" opacity="0.2" filter="url(#softGlow)">
    <ellipse cx="0" cy="0" rx="90" ry="35" fill="#CFAE58"/>
    <path d="M 90 0 L 120 -18 L 130 0 L 120 18 Z" fill="#CFAE58"/>
    <path d="M -25 -35 L 0 -45 L 25 -35 Z" fill="#CFAE58"/>
    <ellipse cx="-50" cy="0" rx="15" ry="12" fill="#0B0F14"/>
  </g>

  <!-- Additional decorative caviar clusters -->
  <g opacity="0.2">
    <circle cx="1050" cy="120" r="6" fill="#CFAE58"/>
    <circle cx="1065" cy="115" r="5" fill="#CFAE58"/>
    <circle cx="1058" cy="130" r="4" fill="#CFAE58"/>
    <circle cx="150" cy="500" r="5" fill="#4FD1C5"/>
    <circle cx="165" cy="508" r="4" fill="#4FD1C5"/>
    <circle cx="140" cy="512" r="5" fill="#4FD1C5"/>
  </g>
</svg>