<svg width="1200" height="630" xmlns="http://www.w3.org/2000/svg">
  <defs>
    <linearGradient id="bgGradient" x1="0%" y1="0%" x2="100%" y2="100%">
      <stop offset="0%" style="stop-color:#0B0F14;stop-opacity:1" />
      <stop offset="50%" style="stop-color:#0F1619;stop-opacity:1" />
      <stop offset="100%" style="stop-color:#0F1922;stop-opacity:1" />
    </linearGradient>
    <linearGradient id="goldGradient" x1="0%" y1="0%" x2="100%" y2="0%">
      <stop offset="0%" style="stop-color:#E5D596;stop-opacity:1" />
      <stop offset="50%" style="stop-color:#CFAE58;stop-opacity:1" />
      <stop offset="100%" style="stop-color:#B89842;stop-opacity:1" />
    </linearGradient>
    <radialGradient id="oceanGradient" cx="50%" cy="50%" r="50%">
      <stop offset="0%" style="stop-color:#4FD1C5;stop-opacity:0.3" />
      <stop offset="100%" style="stop-color:#1E90A0;stop-opacity:0.05" />
    </radialGradient>
    <filter id="glow">
      <feGaussianBlur stdDeviation="5" result="coloredBlur"/>
      <feMerge>
        <feMergeNode in="coloredBlur"/>
        <feMergeNode in="SourceGraphic"/>
      </feMerge>
    </filter>
    <filter id="softGlow">
      <feGaussianBlur stdDeviation="8" result="coloredBlur"/>
      <feMerge>
        <feMergeNode in="coloredBlur"/>
        <feMergeNode in="SourceGraphic"/>
      </feMerge>
    </filter>
    <filter id="shadow">
      <feDropShadow dx="0" dy="4" stdDeviation="8" flood-color="#000000" flood-opacity="0.5"/>
    </filter>
  </defs>

  <!-- Background -->
  <rect width="1200" height="630" fill="url(#bgGradient)"/>

  <!-- Decorative ocean gradients -->
  <ellipse cx="1000" cy="150" rx="300" ry="200" fill="url(#oceanGradient)" opacity="0.4"/>
  <ellipse cx="200" cy="530" rx="250" ry="180" fill="url(#oceanGradient)" opacity="0.3"/>

  <!-- Wave patterns -->
  <path d="M 0 400 Q 300 350 600 400 T 1200 400 L 1200 630 L 0 630 Z" fill="#1E90A0" opacity="0.08"/>
  <path d="M 0 450 Q 250 420 500 450 T 1000 450 T 1200 450 L 1200 630 L 0 630 Z" fill="#4FD1C5" opacity="0.05"/>

  <!-- Caviar roe particles -->
  <circle cx="115.34560389162296" cy="506.09940818636693" r="2.3275526795381527" fill="#CFAE58" opacity="0.1878305846385117"/>
  <circle cx="791.4805645817968" cy="136.0768992615851" r="4.6271296584799275" fill="#CFAE58" opacity="0.14061404202766317"/>
  <circle cx="1055.402158261388" cy="227.79877082951938" r="2.967092276225853" fill="#CFAE58" opacity="0.193220084795468"/>
  <circle cx="334.05831775954545" cy="389.61085705695376" r="5.483419433041998" fill="#CFAE58" opacity="0.1925884938784954"/>
  <circle cx="588.2004605011294" cy="14.930916382692796" r="5.377320593780475" fill="#CFAE58" opacity="0.11021154183094477"/>
  <circle cx="812.065085282376" cy="445.2253379196968" r="5.685193989520996" fill="#CFAE58" opacity="0.2010368636370128"/>
  <circle cx="192.8589008189916" cy="88.00665257441418" r="2.691581321215285" fill="#CFAE58" opacity="0.2283504396130724"/>
  <circle cx="149.02881264019038" cy="284.0629723060714" r="3.6549224952268835" fill="#CFAE58" opacity="0.14574536675954153"/>
  <circle cx="566.372733844741" cy="33.396609545048854" r="5.400370442992687" fill="#CFAE58" opacity="0.10629387265218138"/>
  <circle cx="95.29191672511645" cy="333.11423638705287" r="2.513762809171296" fill="#CFAE58" opacity="0.2407711328596532"/>
  <circle cx="344.4745445438456" cy="262.616144611989" r="2.385143867551821" fill="#CFAE58" opacity="0.11411259318847516"/>
  <circle cx="599.3682142900354" cy="182.4366823432182" r="2.3505836195590186" fill="#CFAE58" opacity="0.11264765778397745"/>
  <circle cx="981.3043817696996" cy="131.23515064801506" r="4.013611027657774" fill="#CFAE58" opacity="0.21372860313250092"/>
  <circle cx="126.12309615341601" cy="324.57333494812997" r="5.560017337766121" fill="#CFAE58" opacity="0.13384522828042494"/>
  <circle cx="254.62573856492492" cy="520.6675388109649" r="4.468309149581849" fill="#CFAE58" opacity="0.2313044789124074"/>
  <circle cx="1024.0534765277644" cy="22.736875580953647" r="4.49137511145881" fill="#CFAE58" opacity="0.10715696698565663"/>
  <circle cx="712.522608378982" cy="169.11448755931852" r="2.125051894645148" fill="#CFAE58" opacity="0.14366223259620306"/>
  <circle cx="768.7084981089002" cy="63.830111273659845" r="3.029823295732366" fill="#CFAE58" opacity="0.13157245092301242"/>
  <circle cx="583.3545744363518" cy="398.43659406262213" r="2.6361470020181414" fill="#CFAE58" opacity="0.24949409000935316"/>
  <circle cx="1138.438960884685" cy="43.43163487683524" r="5.406067480373159" fill="#CFAE58" opacity="0.21485675063664858"/>
  <circle cx="338.39654947586297" cy="581.5435621054038" r="4.372733212346817" fill="#CFAE58" opacity="0.13032171634252432"/>
  <circle cx="202.40686794419798" cy="444.3421129679443" r="3.247094542609662" fill="#CFAE58" opacity="0.220491949584577"/>
  <circle cx="345.88262498073146" cy="127.76993412916066" r="5.3224805267610895" fill="#CFAE58" opacity="0.10545305484161938"/>
  <circle cx="804.3819612570411" cy="301.8953159744406" r="5.654389964102497" fill="#CFAE58" opacity="0.15312670687445878"/>
  <circle cx="17.619136273883562" cy="3.484901976685184" r="3.1587520996128564" fill="#CFAE58" opacity="0.14574058689086256"/>
  <circle cx="1080.9685543032058" cy="524.3231688621316" r="4.65888004329946" fill="#CFAE58" opacity="0.16262720379381188"/>
  <circle cx="713.8827818507066" cy="326.3000847093738" r="5.345333000216542" fill="#CFAE58" opacity="0.18097468936380678"/>
  <circle cx="177.94038906786403" cy="598.5230384749366" r="3.968513807720008" fill="#CFAE58" opacity="0.17184804596521147"/>
  <circle cx="62.814050550670686" cy="625.393367913845" r="3.7431572019790345" fill="#CFAE58" opacity="0.1411699028631197"/>
  <circle cx="169.2087727605082" cy="219.36006145024032" r="5.1015280397067375" fill="#CFAE58" opacity="0.15766028742329188"/>

  <!-- Border with glow -->
  <rect x="40" y="40" width="1120" height="550" fill="none" stroke="url(#goldGradient)" stroke-width="3" rx="12" filter="url(#softGlow)"/>

  <!-- Icon circle with premium background -->
  <circle cx="150" cy="200" r="75" fill="#CFAE58" opacity="0.15" filter="url(#softGlow)"/>
  <circle cx="150" cy="200" r="70" fill="#CFAE58" opacity="0.25"/>
  <text x="150" y="235" font-size="90" text-anchor="middle" fill="#CFAE58" filter="url(#glow)">🎣</text>

  <!-- Premium logo (crown) with enhanced styling -->
  <g transform="translate(100, 70)">
    <path d="M 30 20 L 40 35 L 35 35 Z M 50 15 L 60 35 L 45 35 Z M 65 20 L 75 35 L 70 35 Z M 30 35 L 75 35 L 73 45 L 32 45 Z"
          fill="url(#goldGradient)" filter="url(#glow)" stroke="#B89842" stroke-width="0.5"/>
    <circle cx="40" cy="25" r="3" fill="#4FD1C5" filter="url(#glow)"/>
    <circle cx="52" cy="20" r="4" fill="#4FD1C5" filter="url(#glow)"/>
    <circle cx="65" cy="25" r="3" fill="#4FD1C5" filter="url(#glow)"/>
  </g>

  <!-- Title with shadow -->
  <text x="280" y="180" font-family="Georgia, serif" font-size="72" font-weight="bold"
        fill="url(#goldGradient)" filter="url(#shadow)">Hatchery Tours</text>

  <!-- Subtitle with subtle glow -->
  <text x="280" y="230" font-family="Arial, sans-serif" font-size="36"
        fill="#D6DEE6" opacity="0.95" filter="url(#softGlow)">Family Experiences &amp; Caviar Tasting</text>

  <!-- Brand name with letter spacing -->
  <text x="280" y="300" font-family="Georgia, serif" font-size="32" font-weight="bold"
        fill="#CFAE58" letter-spacing="4" filter="url(#glow)">ROYAL KETA</text>

  <!-- Russian tagline -->
  <text x="280" y="340" font-family="Arial, sans-serif" font-size="22" font-style="italic"
        fill="#8B95A1" opacity="0.8">От икринки к королевской</text>

  <!-- Location -->
  <text x="280" y="380" font-family="Arial, sans-serif" font-size="20"
        fill="#8B95A1" opacity="0.7">Невельский район, Сахалин</text>

  <!-- Website with glow -->
  <text x="100" y="570" font-family="Arial, sans-serif" font-size="30" font-weight="bold"
        fill="#4FD1C5" filter="url(#glow)">royalketa.com</text>

  <!-- Enhanced decorative salmon silhouette -->
  <g transform="translate(950, 480)" opacity="0.2" filter="url(#softGlow)">
    <ellipse cx="0" cy="0" rx="90" ry="35" fill="#CFAE58"/>
    <path d="M 90 0 L 120 -18 L 130 0 L 120 18 Z" fill="#CFAE58"/>
    <path d="M -25 -35 L 0 -45 L 25 -35 Z" fill="#CFAE58"/>
    <ellipse cx="-50" cy="0" rx="15" ry="12" fill="#0B0F14"/>
  </g>

  <!-- Additional decorative caviar clusters -->
  <g opacity="0.2">
    <circle cx="1050" cy="120" r="6" fill="#CFAE58"/>
    <circle cx="1065" cy="115" r="5" fill="#CFAE58"/>
    <circle cx="1058" cy="130" r="4" fill="#CFAE58"/>
    <circle cx="150" cy="500" r="5" fill="#4FD1C5"/>
    <circle cx="165" cy="508" r="4" fill="#4FD1C5"/>
    <circle cx="140" cy="512" r="5" fill="#4FD1C5"/>
  </g>
</svg>