<svg width="1200" height="630" xmlns="http://www.w3.org/2000/svg">
  <defs>
    <linearGradient id="bgGradient" x1="0%" y1="0%" x2="100%" y2="100%">
      <stop offset="0%" style="stop-color:#0B0F14;stop-opacity:1" />
      <stop offset="50%" style="stop-color:#0F1619;stop-opacity:1" />
      <stop offset="100%" style="stop-color:#0F1922;stop-opacity:1" />
    </linearGradient>
    <linearGradient id="goldGradient" x1="0%" y1="0%" x2="100%" y2="0%">
      <stop offset="0%" style="stop-color:#E5D596;stop-opacity:1" />
      <stop offset="50%" style="stop-color:#CFAE58;stop-opacity:1" />
      <stop offset="100%" style="stop-color:#B89842;stop-opacity:1" />
    </linearGradient>
    <radialGradient id="oceanGradient" cx="50%" cy="50%" r="50%">
      <stop offset="0%" style="stop-color:#4FD1C5;stop-opacity:0.3" />
      <stop offset="100%" style="stop-color:#1E90A0;stop-opacity:0.05" />
    </radialGradient>
    <filter id="glow">
      <feGaussianBlur stdDeviation="5" result="coloredBlur"/>
      <feMerge>
        <feMergeNode in="coloredBlur"/>
        <feMergeNode in="SourceGraphic"/>
      </feMerge>
    </filter>
    <filter id="softGlow">
      <feGaussianBlur stdDeviation="8" result="coloredBlur"/>
      <feMerge>
        <feMergeNode in="coloredBlur"/>
        <feMergeNode in="SourceGraphic"/>
      </feMerge>
    </filter>
    <filter id="shadow">
      <feDropShadow dx="0" dy="4" stdDeviation="8" flood-color="#000000" flood-opacity="0.5"/>
    </filter>
  </defs>

  <!-- Background -->
  <rect width="1200" height="630" fill="url(#bgGradient)"/>

  <!-- Decorative ocean gradients -->
  <ellipse cx="1000" cy="150" rx="300" ry="200" fill="url(#oceanGradient)" opacity="0.4"/>
  <ellipse cx="200" cy="530" rx="250" ry="180" fill="url(#oceanGradient)" opacity="0.3"/>

  <!-- Wave patterns -->
  <path d="M 0 400 Q 300 350 600 400 T 1200 400 L 1200 630 L 0 630 Z" fill="#1E90A0" opacity="0.08"/>
  <path d="M 0 450 Q 250 420 500 450 T 1000 450 T 1200 450 L 1200 630 L 0 630 Z" fill="#4FD1C5" opacity="0.05"/>

  <!-- Caviar roe particles -->
  <circle cx="922.6909439316385" cy="484.3861553105165" r="4.446358018688818" fill="#CFAE58" opacity="0.1865520023703641"/>
  <circle cx="149.3604278084253" cy="73.60211111141527" r="5.874907474579855" fill="#CFAE58" opacity="0.2176071608413157"/>
  <circle cx="401.43235861901553" cy="244.10505873682484" r="2.942328473303186" fill="#CFAE58" opacity="0.11577974447727651"/>
  <circle cx="130.4453716379358" cy="505.02577092216046" r="4.854000747699228" fill="#CFAE58" opacity="0.15849933793830773"/>
  <circle cx="615.995169112645" cy="69.92703344876098" r="4.32523205098888" fill="#CFAE58" opacity="0.21580936851362123"/>
  <circle cx="396.59786555896557" cy="566.2835482617311" r="3.6961039864470457" fill="#CFAE58" opacity="0.21373473316528463"/>
  <circle cx="566.579795415822" cy="624.5511561452787" r="5.893734209511065" fill="#CFAE58" opacity="0.17452241451225073"/>
  <circle cx="502.9187575039893" cy="94.12546681336796" r="4.898751238247453" fill="#CFAE58" opacity="0.19128206403355796"/>
  <circle cx="962.9246140598176" cy="66.22446033509652" r="2.5868816115735" fill="#CFAE58" opacity="0.15495446417614928"/>
  <circle cx="450.54017474292726" cy="210.98884665256037" r="3.134109730285924" fill="#CFAE58" opacity="0.21516822308606057"/>
  <circle cx="456.44472983374277" cy="218.06408564689283" r="3.7634154727571816" fill="#CFAE58" opacity="0.13091512521630488"/>
  <circle cx="791.5623557401725" cy="280.74904391937605" r="2.0733131737913695" fill="#CFAE58" opacity="0.15683579601060818"/>
  <circle cx="898.7459935016667" cy="460.37693821547225" r="2.2481937618798913" fill="#CFAE58" opacity="0.13080355229683"/>
  <circle cx="208.3201060098578" cy="184.65790587790494" r="3.5217547530505486" fill="#CFAE58" opacity="0.21527374266917684"/>
  <circle cx="820.755106274303" cy="201.95287847563247" r="3.121269573999868" fill="#CFAE58" opacity="0.2228952902672281"/>
  <circle cx="138.01968715600486" cy="304.6474135421589" r="2.5073939687841205" fill="#CFAE58" opacity="0.14371475101180103"/>
  <circle cx="706.139657801312" cy="58.30605875764082" r="2.9494966227876374" fill="#CFAE58" opacity="0.1811682873836049"/>
  <circle cx="1058.9207185310122" cy="41.977615511938595" r="5.214154834606299" fill="#CFAE58" opacity="0.20127111862576824"/>
  <circle cx="989.1849130059608" cy="304.40420529762883" r="3.1310839072435317" fill="#CFAE58" opacity="0.10738730872668709"/>
  <circle cx="1179.4910069961197" cy="558.4047346056539" r="3.185099278919081" fill="#CFAE58" opacity="0.16959182396247358"/>
  <circle cx="898.3020559393073" cy="547.5456830070716" r="2.4986755814721007" fill="#CFAE58" opacity="0.17408951073195103"/>
  <circle cx="949.1039759754927" cy="201.94474292526593" r="4.822483146250503" fill="#CFAE58" opacity="0.22326715957371646"/>
  <circle cx="802.3722845703985" cy="436.4821865976997" r="5.020556381217962" fill="#CFAE58" opacity="0.24698120133239565"/>
  <circle cx="487.46214310848933" cy="184.72373331267346" r="4.297485709132502" fill="#CFAE58" opacity="0.14057257081620997"/>
  <circle cx="731.9343980781682" cy="485.22398941245797" r="4.133911046426355" fill="#CFAE58" opacity="0.21968105151187173"/>
  <circle cx="711.0791910733385" cy="98.96707712337441" r="5.222597334025704" fill="#CFAE58" opacity="0.15800960993164376"/>
  <circle cx="518.0116316720237" cy="489.3457806640791" r="4.664753919126839" fill="#CFAE58" opacity="0.10369702126670426"/>
  <circle cx="130.88746768868754" cy="286.24803790198723" r="4.648862254310243" fill="#CFAE58" opacity="0.20000418663147468"/>
  <circle cx="524.8425615207567" cy="285.09802569641386" r="2.6325217268112007" fill="#CFAE58" opacity="0.1365587305587021"/>
  <circle cx="313.06934328940514" cy="183.1310015688194" r="3.554437361369489" fill="#CFAE58" opacity="0.11554764273571397"/>

  <!-- Border with glow -->
  <rect x="40" y="40" width="1120" height="550" fill="none" stroke="url(#goldGradient)" stroke-width="3" rx="12" filter="url(#softGlow)"/>

  <!-- Icon circle with premium background -->
  <circle cx="150" cy="200" r="75" fill="#CFAE58" opacity="0.15" filter="url(#softGlow)"/>
  <circle cx="150" cy="200" r="70" fill="#CFAE58" opacity="0.25"/>
  <text x="150" y="235" font-size="90" text-anchor="middle" fill="#CFAE58" filter="url(#glow)">🎣</text>

  <!-- Premium logo (crown) with enhanced styling -->
  <g transform="translate(100, 70)">
    <path d="M 30 20 L 40 35 L 35 35 Z M 50 15 L 60 35 L 45 35 Z M 65 20 L 75 35 L 70 35 Z M 30 35 L 75 35 L 73 45 L 32 45 Z"
          fill="url(#goldGradient)" filter="url(#glow)" stroke="#B89842" stroke-width="0.5"/>
    <circle cx="40" cy="25" r="3" fill="#4FD1C5" filter="url(#glow)"/>
    <circle cx="52" cy="20" r="4" fill="#4FD1C5" filter="url(#glow)"/>
    <circle cx="65" cy="25" r="3" fill="#4FD1C5" filter="url(#glow)"/>
  </g>

  <!-- Title with shadow -->
  <text x="280" y="180" font-family="Georgia, serif" font-size="72" font-weight="bold"
        fill="url(#goldGradient)" filter="url(#shadow)">Hatchery Tours</text>

  <!-- Subtitle with subtle glow -->
  <text x="280" y="230" font-family="Arial, sans-serif" font-size="36"
        fill="#D6DEE6" opacity="0.95" filter="url(#softGlow)">Family Experiences &amp; Caviar Tasting</text>

  <!-- Brand name with letter spacing -->
  <text x="280" y="300" font-family="Georgia, serif" font-size="32" font-weight="bold"
        fill="#CFAE58" letter-spacing="4" filter="url(#glow)">ROYAL KETA</text>

  <!-- Russian tagline -->
  <text x="280" y="340" font-family="Arial, sans-serif" font-size="22" font-style="italic"
        fill="#8B95A1" opacity="0.8">От икринки к королевской</text>

  <!-- Location -->
  <text x="280" y="380" font-family="Arial, sans-serif" font-size="20"
        fill="#8B95A1" opacity="0.7">Невельский район, Сахалин</text>

  <!-- Website with glow -->
  <text x="100" y="570" font-family="Arial, sans-serif" font-size="30" font-weight="bold"
        fill="#4FD1C5" filter="url(#glow)">royalketa.com</text>

  <!-- Enhanced decorative salmon silhouette -->
  <g transform="translate(950, 480)" opacity="0.2" filter="url(#softGlow)">
    <ellipse cx="0" cy="0" rx="90" ry="35" fill="#CFAE58"/>
    <path d="M 90 0 L 120 -18 L 130 0 L 120 18 Z" fill="#CFAE58"/>
    <path d="M -25 -35 L 0 -45 L 25 -35 Z" fill="#CFAE58"/>
    <ellipse cx="-50" cy="0" rx="15" ry="12" fill="#0B0F14"/>
  </g>

  <!-- Additional decorative caviar clusters -->
  <g opacity="0.2">
    <circle cx="1050" cy="120" r="6" fill="#CFAE58"/>
    <circle cx="1065" cy="115" r="5" fill="#CFAE58"/>
    <circle cx="1058" cy="130" r="4" fill="#CFAE58"/>
    <circle cx="150" cy="500" r="5" fill="#4FD1C5"/>
    <circle cx="165" cy="508" r="4" fill="#4FD1C5"/>
    <circle cx="140" cy="512" r="5" fill="#4FD1C5"/>
  </g>
</svg>