<svg width="1200" height="630" xmlns="http://www.w3.org/2000/svg">
  <defs>
    <linearGradient id="bgGradient" x1="0%" y1="0%" x2="100%" y2="100%">
      <stop offset="0%" style="stop-color:#0B0F14;stop-opacity:1" />
      <stop offset="50%" style="stop-color:#0F1619;stop-opacity:1" />
      <stop offset="100%" style="stop-color:#0F1922;stop-opacity:1" />
    </linearGradient>
    <linearGradient id="goldGradient" x1="0%" y1="0%" x2="100%" y2="0%">
      <stop offset="0%" style="stop-color:#E5D596;stop-opacity:1" />
      <stop offset="50%" style="stop-color:#CFAE58;stop-opacity:1" />
      <stop offset="100%" style="stop-color:#B89842;stop-opacity:1" />
    </linearGradient>
    <radialGradient id="oceanGradient" cx="50%" cy="50%" r="50%">
      <stop offset="0%" style="stop-color:#4FD1C5;stop-opacity:0.3" />
      <stop offset="100%" style="stop-color:#1E90A0;stop-opacity:0.05" />
    </radialGradient>
    <filter id="glow">
      <feGaussianBlur stdDeviation="5" result="coloredBlur"/>
      <feMerge>
        <feMergeNode in="coloredBlur"/>
        <feMergeNode in="SourceGraphic"/>
      </feMerge>
    </filter>
    <filter id="softGlow">
      <feGaussianBlur stdDeviation="8" result="coloredBlur"/>
      <feMerge>
        <feMergeNode in="coloredBlur"/>
        <feMergeNode in="SourceGraphic"/>
      </feMerge>
    </filter>
    <filter id="shadow">
      <feDropShadow dx="0" dy="4" stdDeviation="8" flood-color="#000000" flood-opacity="0.5"/>
    </filter>
  </defs>

  <!-- Background -->
  <rect width="1200" height="630" fill="url(#bgGradient)"/>

  <!-- Decorative ocean gradients -->
  <ellipse cx="1000" cy="150" rx="300" ry="200" fill="url(#oceanGradient)" opacity="0.4"/>
  <ellipse cx="200" cy="530" rx="250" ry="180" fill="url(#oceanGradient)" opacity="0.3"/>

  <!-- Wave patterns -->
  <path d="M 0 400 Q 300 350 600 400 T 1200 400 L 1200 630 L 0 630 Z" fill="#1E90A0" opacity="0.08"/>
  <path d="M 0 450 Q 250 420 500 450 T 1000 450 T 1200 450 L 1200 630 L 0 630 Z" fill="#4FD1C5" opacity="0.05"/>

  <!-- Caviar roe particles -->
  <circle cx="1031.304922360207" cy="305.8384456594728" r="5.352040512047444" fill="#CFAE58" opacity="0.13186286589782947"/>
  <circle cx="157.30758984354472" cy="384.7372929863398" r="3.42889399578978" fill="#CFAE58" opacity="0.19684009047131878"/>
  <circle cx="106.41012225767392" cy="524.9691399153899" r="4.629410944248427" fill="#CFAE58" opacity="0.17117193372171896"/>
  <circle cx="971.8576124415026" cy="72.12561629703357" r="4.5520002567870534" fill="#CFAE58" opacity="0.15609648611617144"/>
  <circle cx="414.8734534718531" cy="469.8597737877926" r="4.241167740925446" fill="#CFAE58" opacity="0.18568396519820354"/>
  <circle cx="356.0401923725381" cy="502.4187819842604" r="2.26127557343092" fill="#CFAE58" opacity="0.12293612330953187"/>
  <circle cx="47.03696830960702" cy="513.8540833936411" r="3.014468003358214" fill="#CFAE58" opacity="0.13326010095563376"/>
  <circle cx="84.50123043227782" cy="610.5800746604681" r="3.2281859601488643" fill="#CFAE58" opacity="0.12403571527801188"/>
  <circle cx="1042.62824912417" cy="426.62195706153574" r="2.64395968988881" fill="#CFAE58" opacity="0.24896662493608387"/>
  <circle cx="308.09291677656586" cy="237.16856132640262" r="3.1529738459227206" fill="#CFAE58" opacity="0.2118830488579227"/>
  <circle cx="429.1679870586085" cy="51.70243881191189" r="2.516754835136087" fill="#CFAE58" opacity="0.1701848852341709"/>
  <circle cx="463.10251284380615" cy="419.86109275495784" r="5.424901521577999" fill="#CFAE58" opacity="0.23942511577870942"/>
  <circle cx="575.5676217636804" cy="237.54182453886972" r="4.960372759447438" fill="#CFAE58" opacity="0.20706978593676195"/>
  <circle cx="630.6123092543426" cy="147.77716755878131" r="4.022455327016082" fill="#CFAE58" opacity="0.1582270896694175"/>
  <circle cx="652.4556269881665" cy="600.6203138632933" r="2.9764553331843837" fill="#CFAE58" opacity="0.10131266920110005"/>
  <circle cx="149.31337438423017" cy="176.7084517335886" r="5.700713494421379" fill="#CFAE58" opacity="0.24971456522469931"/>
  <circle cx="506.02919645201575" cy="497.78314135740925" r="2.0722325540465336" fill="#CFAE58" opacity="0.12860431061356228"/>
  <circle cx="71.04738693628497" cy="206.16377906650266" r="5.8764513227620085" fill="#CFAE58" opacity="0.17743902541491335"/>
  <circle cx="552.4430563633863" cy="227.0876186731188" r="4.054288228779143" fill="#CFAE58" opacity="0.16311745116461157"/>
  <circle cx="259.23441027288703" cy="601.0494119375467" r="3.718139496663701" fill="#CFAE58" opacity="0.18874213798495373"/>
  <circle cx="790.2145844428546" cy="532.2529041870828" r="3.826282985875742" fill="#CFAE58" opacity="0.19843678553713204"/>
  <circle cx="423.7390332763083" cy="399.6757896088987" r="3.4355529023871085" fill="#CFAE58" opacity="0.1671239711595855"/>
  <circle cx="1170.7972262078954" cy="23.278157772811017" r="4.088568905570414" fill="#CFAE58" opacity="0.1781250602713538"/>
  <circle cx="805.9343817072994" cy="243.62187000485997" r="5.113349941219759" fill="#CFAE58" opacity="0.119066706663746"/>
  <circle cx="103.33241620182116" cy="312.1470520515435" r="2.5630818844499457" fill="#CFAE58" opacity="0.23018011187288862"/>
  <circle cx="8.798501513899026" cy="615.908425138711" r="2.2595491022408254" fill="#CFAE58" opacity="0.14618782950834414"/>
  <circle cx="608.1943809639262" cy="476.15588719974687" r="4.52125066821282" fill="#CFAE58" opacity="0.15949726144315324"/>
  <circle cx="892.6101893540642" cy="588.9927517974114" r="3.371547235154827" fill="#CFAE58" opacity="0.2170514493715566"/>
  <circle cx="42.152681010400705" cy="581.2774582175568" r="2.5644272581150362" fill="#CFAE58" opacity="0.14806666258795315"/>
  <circle cx="668.7304933058756" cy="329.6198034056574" r="5.12882698216695" fill="#CFAE58" opacity="0.1066491831972578"/>

  <!-- Border with glow -->
  <rect x="40" y="40" width="1120" height="550" fill="none" stroke="url(#goldGradient)" stroke-width="3" rx="12" filter="url(#softGlow)"/>

  <!-- Icon circle with premium background -->
  <circle cx="150" cy="200" r="75" fill="#CFAE58" opacity="0.15" filter="url(#softGlow)"/>
  <circle cx="150" cy="200" r="70" fill="#CFAE58" opacity="0.25"/>
  <text x="150" y="235" font-size="90" text-anchor="middle" fill="#CFAE58" filter="url(#glow)">🎣</text>

  <!-- Premium logo (crown) with enhanced styling -->
  <g transform="translate(100, 70)">
    <path d="M 30 20 L 40 35 L 35 35 Z M 50 15 L 60 35 L 45 35 Z M 65 20 L 75 35 L 70 35 Z M 30 35 L 75 35 L 73 45 L 32 45 Z"
          fill="url(#goldGradient)" filter="url(#glow)" stroke="#B89842" stroke-width="0.5"/>
    <circle cx="40" cy="25" r="3" fill="#4FD1C5" filter="url(#glow)"/>
    <circle cx="52" cy="20" r="4" fill="#4FD1C5" filter="url(#glow)"/>
    <circle cx="65" cy="25" r="3" fill="#4FD1C5" filter="url(#glow)"/>
  </g>

  <!-- Title with shadow -->
  <text x="280" y="180" font-family="Georgia, serif" font-size="72" font-weight="bold"
        fill="url(#goldGradient)" filter="url(#shadow)">Hatchery Tours</text>

  <!-- Subtitle with subtle glow -->
  <text x="280" y="230" font-family="Arial, sans-serif" font-size="36"
        fill="#D6DEE6" opacity="0.95" filter="url(#softGlow)">Family Experiences & Caviar Tasting</text>

  <!-- Brand name with letter spacing -->
  <text x="280" y="300" font-family="Georgia, serif" font-size="32" font-weight="bold"
        fill="#CFAE58" letter-spacing="4" filter="url(#glow)">ROYAL KETA</text>

  <!-- Russian tagline -->
  <text x="280" y="340" font-family="Arial, sans-serif" font-size="22" font-style="italic"
        fill="#8B95A1" opacity="0.8">От икринки к королевской</text>

  <!-- Location -->
  <text x="280" y="380" font-family="Arial, sans-serif" font-size="20"
        fill="#8B95A1" opacity="0.7">Невельский район, Сахалин</text>

  <!-- Website with glow -->
  <text x="100" y="570" font-family="Arial, sans-serif" font-size="30" font-weight="bold"
        fill="#4FD1C5" filter="url(#glow)">royalketa.com</text>

  <!-- Enhanced decorative salmon silhouette -->
  <g transform="translate(950, 480)" opacity="0.2" filter="url(#softGlow)">
    <ellipse cx="0" cy="0" rx="90" ry="35" fill="#CFAE58"/>
    <path d="M 90 0 L 120 -18 L 130 0 L 120 18 Z" fill="#CFAE58"/>
    <path d="M -25 -35 L 0 -45 L 25 -35 Z" fill="#CFAE58"/>
    <ellipse cx="-50" cy="0" rx="15" ry="12" fill="#0B0F14"/>
  </g>

  <!-- Additional decorative caviar clusters -->
  <g opacity="0.2">
    <circle cx="1050" cy="120" r="6" fill="#CFAE58"/>
    <circle cx="1065" cy="115" r="5" fill="#CFAE58"/>
    <circle cx="1058" cy="130" r="4" fill="#CFAE58"/>
    <circle cx="150" cy="500" r="5" fill="#4FD1C5"/>
    <circle cx="165" cy="508" r="4" fill="#4FD1C5"/>
    <circle cx="140" cy="512" r="5" fill="#4FD1C5"/>
  </g>
</svg>