<svg width="1200" height="630" xmlns="http://www.w3.org/2000/svg">
  <defs>
    <linearGradient id="bgGradient" x1="0%" y1="0%" x2="100%" y2="100%">
      <stop offset="0%" style="stop-color:#0B0F14;stop-opacity:1" />
      <stop offset="50%" style="stop-color:#0F1619;stop-opacity:1" />
      <stop offset="100%" style="stop-color:#0F1922;stop-opacity:1" />
    </linearGradient>
    <linearGradient id="goldGradient" x1="0%" y1="0%" x2="100%" y2="0%">
      <stop offset="0%" style="stop-color:#E5D596;stop-opacity:1" />
      <stop offset="50%" style="stop-color:#CFAE58;stop-opacity:1" />
      <stop offset="100%" style="stop-color:#B89842;stop-opacity:1" />
    </linearGradient>
    <radialGradient id="oceanGradient" cx="50%" cy="50%" r="50%">
      <stop offset="0%" style="stop-color:#4FD1C5;stop-opacity:0.3" />
      <stop offset="100%" style="stop-color:#1E90A0;stop-opacity:0.05" />
    </radialGradient>
    <filter id="glow">
      <feGaussianBlur stdDeviation="5" result="coloredBlur"/>
      <feMerge>
        <feMergeNode in="coloredBlur"/>
        <feMergeNode in="SourceGraphic"/>
      </feMerge>
    </filter>
    <filter id="softGlow">
      <feGaussianBlur stdDeviation="8" result="coloredBlur"/>
      <feMerge>
        <feMergeNode in="coloredBlur"/>
        <feMergeNode in="SourceGraphic"/>
      </feMerge>
    </filter>
    <filter id="shadow">
      <feDropShadow dx="0" dy="4" stdDeviation="8" flood-color="#000000" flood-opacity="0.5"/>
    </filter>
  </defs>

  <!-- Background -->
  <rect width="1200" height="630" fill="url(#bgGradient)"/>

  <!-- Decorative ocean gradients -->
  <ellipse cx="1000" cy="150" rx="300" ry="200" fill="url(#oceanGradient)" opacity="0.4"/>
  <ellipse cx="200" cy="530" rx="250" ry="180" fill="url(#oceanGradient)" opacity="0.3"/>

  <!-- Wave patterns -->
  <path d="M 0 400 Q 300 350 600 400 T 1200 400 L 1200 630 L 0 630 Z" fill="#1E90A0" opacity="0.08"/>
  <path d="M 0 450 Q 250 420 500 450 T 1000 450 T 1200 450 L 1200 630 L 0 630 Z" fill="#4FD1C5" opacity="0.05"/>

  <!-- Caviar roe particles -->
  <circle cx="501.99855851380335" cy="351.51139051221645" r="4.37994646572554" fill="#CFAE58" opacity="0.15128847219003316"/>
  <circle cx="870.4316800868304" cy="239.27521967285213" r="3.086374098528397" fill="#CFAE58" opacity="0.17436430489245203"/>
  <circle cx="1051.0679165462814" cy="197.79031098801295" r="3.201307767121886" fill="#CFAE58" opacity="0.15781582878438322"/>
  <circle cx="617.3978347158655" cy="547.2464139115991" r="2.103477171555406" fill="#CFAE58" opacity="0.14116020717182162"/>
  <circle cx="161.77917242260688" cy="522.4307674756515" r="5.9959573921870195" fill="#CFAE58" opacity="0.21491287834340733"/>
  <circle cx="518.5585973868613" cy="14.056264250847661" r="2.9019829382605407" fill="#CFAE58" opacity="0.11107221573449344"/>
  <circle cx="166.63012997832354" cy="370.684543002984" r="2.84373927270033" fill="#CFAE58" opacity="0.14924521385671669"/>
  <circle cx="1122.1552214952148" cy="176.7971196086101" r="4.016879636147535" fill="#CFAE58" opacity="0.11727869853456598"/>
  <circle cx="667.8500276417191" cy="496.7929975508316" r="2.905674215989209" fill="#CFAE58" opacity="0.11934322983729183"/>
  <circle cx="935.6951054612059" cy="281.91715173477576" r="2.4302695665552774" fill="#CFAE58" opacity="0.10180177237453109"/>
  <circle cx="726.2432827355105" cy="270.8411598437127" r="2.053392871359205" fill="#CFAE58" opacity="0.11967434824677897"/>
  <circle cx="505.0414017976143" cy="425.3984389715508" r="5.083638672221888" fill="#CFAE58" opacity="0.23868194556525088"/>
  <circle cx="388.09625836673735" cy="425.0933881262022" r="4.983747602458585" fill="#CFAE58" opacity="0.15694099874658599"/>
  <circle cx="65.80378812929712" cy="78.66081209780317" r="2.126987982307626" fill="#CFAE58" opacity="0.11374598149948471"/>
  <circle cx="442.0266515203971" cy="380.8876683341082" r="2.4265426989107644" fill="#CFAE58" opacity="0.1872519388827253"/>
  <circle cx="874.3714152877717" cy="216.40647401241895" r="4.104400358698368" fill="#CFAE58" opacity="0.1690951283564039"/>
  <circle cx="915.7382280193495" cy="190.37365674594145" r="4.878191095225557" fill="#CFAE58" opacity="0.1115053338093078"/>
  <circle cx="438.261217758334" cy="59.278293083526144" r="5.725619634789684" fill="#CFAE58" opacity="0.19240446843831918"/>
  <circle cx="492.35492623022753" cy="125.00281307757481" r="3.69543515006435" fill="#CFAE58" opacity="0.1492960877536186"/>
  <circle cx="409.017482334686" cy="386.4530002876049" r="2.7321209396638766" fill="#CFAE58" opacity="0.16287038647274482"/>
  <circle cx="151.884040577713" cy="563.9937088812956" r="3.9930208824119537" fill="#CFAE58" opacity="0.1681534457212202"/>
  <circle cx="784.4862948313164" cy="359.75696805848173" r="2.886250044779369" fill="#CFAE58" opacity="0.19208708794867885"/>
  <circle cx="726.2225028973564" cy="18.53596338418855" r="4.54559862530734" fill="#CFAE58" opacity="0.22360424638490106"/>
  <circle cx="214.78319640738218" cy="378.1968870638655" r="4.4975634434112015" fill="#CFAE58" opacity="0.2181055094978782"/>
  <circle cx="890.7799111243465" cy="617.7550597266918" r="5.388017948448842" fill="#CFAE58" opacity="0.1099494612190692"/>
  <circle cx="34.85695975933947" cy="409.4317695532884" r="2.1700085025645732" fill="#CFAE58" opacity="0.1364872975496787"/>
  <circle cx="364.40584274001407" cy="41.06271797083458" r="2.623417129658386" fill="#CFAE58" opacity="0.15649421227658264"/>
  <circle cx="820.9874022701539" cy="479.6747092690365" r="4.558392909253669" fill="#CFAE58" opacity="0.10690392404462921"/>
  <circle cx="576.8219699033535" cy="27.86935736308195" r="2.110639317497645" fill="#CFAE58" opacity="0.13694122791978922"/>
  <circle cx="540.1822033156074" cy="356.5297369328589" r="5.2425323358680975" fill="#CFAE58" opacity="0.24421371809283185"/>

  <!-- Border with glow -->
  <rect x="40" y="40" width="1120" height="550" fill="none" stroke="url(#goldGradient)" stroke-width="3" rx="12" filter="url(#softGlow)"/>

  <!-- Icon circle with premium background -->
  <circle cx="150" cy="200" r="75" fill="#CFAE58" opacity="0.15" filter="url(#softGlow)"/>
  <circle cx="150" cy="200" r="70" fill="#CFAE58" opacity="0.25"/>
  <text x="150" y="235" font-size="90" text-anchor="middle" fill="#CFAE58" filter="url(#glow)">🎣</text>

  <!-- Premium logo (crown) with enhanced styling -->
  <g transform="translate(100, 70)">
    <path d="M 30 20 L 40 35 L 35 35 Z M 50 15 L 60 35 L 45 35 Z M 65 20 L 75 35 L 70 35 Z M 30 35 L 75 35 L 73 45 L 32 45 Z"
          fill="url(#goldGradient)" filter="url(#glow)" stroke="#B89842" stroke-width="0.5"/>
    <circle cx="40" cy="25" r="3" fill="#4FD1C5" filter="url(#glow)"/>
    <circle cx="52" cy="20" r="4" fill="#4FD1C5" filter="url(#glow)"/>
    <circle cx="65" cy="25" r="3" fill="#4FD1C5" filter="url(#glow)"/>
  </g>

  <!-- Title with shadow -->
  <text x="280" y="180" font-family="Georgia, serif" font-size="72" font-weight="bold"
        fill="url(#goldGradient)" filter="url(#shadow)">Hatchery Tours</text>

  <!-- Subtitle with subtle glow -->
  <text x="280" y="230" font-family="Arial, sans-serif" font-size="36"
        fill="#D6DEE6" opacity="0.95" filter="url(#softGlow)">Family Experiences &amp; Caviar Tasting</text>

  <!-- Brand name with letter spacing -->
  <text x="280" y="300" font-family="Georgia, serif" font-size="32" font-weight="bold"
        fill="#CFAE58" letter-spacing="4" filter="url(#glow)">ROYAL KETA</text>

  <!-- Russian tagline -->
  <text x="280" y="340" font-family="Arial, sans-serif" font-size="22" font-style="italic"
        fill="#8B95A1" opacity="0.8">От икринки к королевской</text>

  <!-- Location -->
  <text x="280" y="380" font-family="Arial, sans-serif" font-size="20"
        fill="#8B95A1" opacity="0.7">Невельский район, Сахалин</text>

  <!-- Website with glow -->
  <text x="100" y="570" font-family="Arial, sans-serif" font-size="30" font-weight="bold"
        fill="#4FD1C5" filter="url(#glow)">royalketa.com</text>

  <!-- Enhanced decorative salmon silhouette -->
  <g transform="translate(950, 480)" opacity="0.2" filter="url(#softGlow)">
    <ellipse cx="0" cy="0" rx="90" ry="35" fill="#CFAE58"/>
    <path d="M 90 0 L 120 -18 L 130 0 L 120 18 Z" fill="#CFAE58"/>
    <path d="M -25 -35 L 0 -45 L 25 -35 Z" fill="#CFAE58"/>
    <ellipse cx="-50" cy="0" rx="15" ry="12" fill="#0B0F14"/>
  </g>

  <!-- Additional decorative caviar clusters -->
  <g opacity="0.2">
    <circle cx="1050" cy="120" r="6" fill="#CFAE58"/>
    <circle cx="1065" cy="115" r="5" fill="#CFAE58"/>
    <circle cx="1058" cy="130" r="4" fill="#CFAE58"/>
    <circle cx="150" cy="500" r="5" fill="#4FD1C5"/>
    <circle cx="165" cy="508" r="4" fill="#4FD1C5"/>
    <circle cx="140" cy="512" r="5" fill="#4FD1C5"/>
  </g>
</svg>