<svg width="1200" height="630" xmlns="http://www.w3.org/2000/svg">
  <defs>
    <linearGradient id="bgGradient" x1="0%" y1="0%" x2="100%" y2="100%">
      <stop offset="0%" style="stop-color:#0B0F14;stop-opacity:1" />
      <stop offset="50%" style="stop-color:#0F1619;stop-opacity:1" />
      <stop offset="100%" style="stop-color:#0F1922;stop-opacity:1" />
    </linearGradient>
    <linearGradient id="goldGradient" x1="0%" y1="0%" x2="100%" y2="0%">
      <stop offset="0%" style="stop-color:#E5D596;stop-opacity:1" />
      <stop offset="50%" style="stop-color:#CFAE58;stop-opacity:1" />
      <stop offset="100%" style="stop-color:#B89842;stop-opacity:1" />
    </linearGradient>
    <radialGradient id="oceanGradient" cx="50%" cy="50%" r="50%">
      <stop offset="0%" style="stop-color:#4FD1C5;stop-opacity:0.3" />
      <stop offset="100%" style="stop-color:#1E90A0;stop-opacity:0.05" />
    </radialGradient>
    <filter id="glow">
      <feGaussianBlur stdDeviation="5" result="coloredBlur"/>
      <feMerge>
        <feMergeNode in="coloredBlur"/>
        <feMergeNode in="SourceGraphic"/>
      </feMerge>
    </filter>
    <filter id="softGlow">
      <feGaussianBlur stdDeviation="8" result="coloredBlur"/>
      <feMerge>
        <feMergeNode in="coloredBlur"/>
        <feMergeNode in="SourceGraphic"/>
      </feMerge>
    </filter>
    <filter id="shadow">
      <feDropShadow dx="0" dy="4" stdDeviation="8" flood-color="#000000" flood-opacity="0.5"/>
    </filter>
  </defs>

  <!-- Background -->
  <rect width="1200" height="630" fill="url(#bgGradient)"/>

  <!-- Decorative ocean gradients -->
  <ellipse cx="1000" cy="150" rx="300" ry="200" fill="url(#oceanGradient)" opacity="0.4"/>
  <ellipse cx="200" cy="530" rx="250" ry="180" fill="url(#oceanGradient)" opacity="0.3"/>

  <!-- Wave patterns -->
  <path d="M 0 400 Q 300 350 600 400 T 1200 400 L 1200 630 L 0 630 Z" fill="#1E90A0" opacity="0.08"/>
  <path d="M 0 450 Q 250 420 500 450 T 1000 450 T 1200 450 L 1200 630 L 0 630 Z" fill="#4FD1C5" opacity="0.05"/>

  <!-- Caviar roe particles -->
  <circle cx="423.421117003908" cy="489.677068258124" r="4.374936124892536" fill="#CFAE58" opacity="0.14369313313523208"/>
  <circle cx="534.46822431806" cy="252.17387361562447" r="4.337533239095272" fill="#CFAE58" opacity="0.17050160549281318"/>
  <circle cx="728.8566152260771" cy="301.7012599347334" r="3.6324737251260917" fill="#CFAE58" opacity="0.18664878911900182"/>
  <circle cx="881.6103858134237" cy="285.12240729357535" r="4.4378577839665185" fill="#CFAE58" opacity="0.24530018140634754"/>
  <circle cx="1008.2257372776056" cy="72.9234660705129" r="5.89847717288439" fill="#CFAE58" opacity="0.17401728516804235"/>
  <circle cx="743.0349968298166" cy="175.60500291642418" r="3.004328537022749" fill="#CFAE58" opacity="0.13767794272722764"/>
  <circle cx="1012.2716680012389" cy="196.31825837134716" r="4.837016190667393" fill="#CFAE58" opacity="0.16892861537324527"/>
  <circle cx="442.2501495566151" cy="132.9738466387397" r="5.719005834925502" fill="#CFAE58" opacity="0.2437778325817483"/>
  <circle cx="133.56600204841834" cy="32.02086822722264" r="4.26280141189052" fill="#CFAE58" opacity="0.12035447504114118"/>
  <circle cx="1122.3757787293946" cy="516.0575807243997" r="5.33500047717132" fill="#CFAE58" opacity="0.17012332292040003"/>
  <circle cx="1142.7335238560393" cy="559.2725603413912" r="5.49580946414561" fill="#CFAE58" opacity="0.12416173371757239"/>
  <circle cx="699.9290070515503" cy="591.8246242046289" r="2.79587189808161" fill="#CFAE58" opacity="0.13725457766777097"/>
  <circle cx="229.5147286097143" cy="71.08548617323592" r="5.032155480431401" fill="#CFAE58" opacity="0.19407441306731127"/>
  <circle cx="304.4202997047709" cy="473.15279476147964" r="5.544165317677501" fill="#CFAE58" opacity="0.2197726833848067"/>
  <circle cx="11.732936777527003" cy="574.930151357196" r="3.8745945038298997" fill="#CFAE58" opacity="0.12583000714304748"/>
  <circle cx="638.2973423861132" cy="140.8516176215516" r="2.1347936274797634" fill="#CFAE58" opacity="0.23088398456939957"/>
  <circle cx="28.670428246029278" cy="476.1351620120357" r="4.937811127649777" fill="#CFAE58" opacity="0.11620244506174153"/>
  <circle cx="805.1051685879936" cy="191.42185381693477" r="5.070293490702246" fill="#CFAE58" opacity="0.14092410442662184"/>
  <circle cx="534.6391530498073" cy="266.7665499291783" r="5.452645187384363" fill="#CFAE58" opacity="0.23419584037720792"/>
  <circle cx="375.098335358273" cy="88.70186411434113" r="5.914831426946048" fill="#CFAE58" opacity="0.129875926800161"/>
  <circle cx="567.0654329675036" cy="571.996709073375" r="3.982091393886763" fill="#CFAE58" opacity="0.11962848993438302"/>
  <circle cx="431.87799650874655" cy="363.89047466971596" r="5.06068899504061" fill="#CFAE58" opacity="0.20089749666297088"/>
  <circle cx="653.680929152562" cy="297.60065620844824" r="3.510212218815454" fill="#CFAE58" opacity="0.12543487309938728"/>
  <circle cx="276.27975116334056" cy="493.0003161419128" r="5.339391304390475" fill="#CFAE58" opacity="0.24741254270599697"/>
  <circle cx="248.1057793387317" cy="609.6909737263688" r="5.7315355194996735" fill="#CFAE58" opacity="0.2427909538285797"/>
  <circle cx="627.5654691322318" cy="460.07656140047163" r="2.7691092755111715" fill="#CFAE58" opacity="0.23771631201485094"/>
  <circle cx="982.9841201288949" cy="257.80793583680156" r="4.853265315156991" fill="#CFAE58" opacity="0.1993759417740236"/>
  <circle cx="492.4580756906184" cy="332.25647404015933" r="4.831957510115215" fill="#CFAE58" opacity="0.22621871046686062"/>
  <circle cx="183.68128843778982" cy="98.34571371080516" r="4.268901619919642" fill="#CFAE58" opacity="0.2253176400767931"/>
  <circle cx="779.6363189040035" cy="234.90906956033507" r="2.852010636831452" fill="#CFAE58" opacity="0.21964749063513175"/>

  <!-- Border with glow -->
  <rect x="40" y="40" width="1120" height="550" fill="none" stroke="url(#goldGradient)" stroke-width="3" rx="12" filter="url(#softGlow)"/>

  <!-- Icon circle with premium background -->
  <circle cx="150" cy="200" r="75" fill="#CFAE58" opacity="0.15" filter="url(#softGlow)"/>
  <circle cx="150" cy="200" r="70" fill="#CFAE58" opacity="0.25"/>
  <text x="150" y="235" font-size="90" text-anchor="middle" fill="#CFAE58" filter="url(#glow)">🎣</text>

  <!-- Premium logo (crown) with enhanced styling -->
  <g transform="translate(100, 70)">
    <path d="M 30 20 L 40 35 L 35 35 Z M 50 15 L 60 35 L 45 35 Z M 65 20 L 75 35 L 70 35 Z M 30 35 L 75 35 L 73 45 L 32 45 Z"
          fill="url(#goldGradient)" filter="url(#glow)" stroke="#B89842" stroke-width="0.5"/>
    <circle cx="40" cy="25" r="3" fill="#4FD1C5" filter="url(#glow)"/>
    <circle cx="52" cy="20" r="4" fill="#4FD1C5" filter="url(#glow)"/>
    <circle cx="65" cy="25" r="3" fill="#4FD1C5" filter="url(#glow)"/>
  </g>

  <!-- Title with shadow -->
  <text x="280" y="180" font-family="Georgia, serif" font-size="72" font-weight="bold"
        fill="url(#goldGradient)" filter="url(#shadow)">Hatchery Tours</text>

  <!-- Subtitle with subtle glow -->
  <text x="280" y="230" font-family="Arial, sans-serif" font-size="36"
        fill="#D6DEE6" opacity="0.95" filter="url(#softGlow)">Family Experiences &amp; Caviar Tasting</text>

  <!-- Brand name with letter spacing -->
  <text x="280" y="300" font-family="Georgia, serif" font-size="32" font-weight="bold"
        fill="#CFAE58" letter-spacing="4" filter="url(#glow)">ROYAL KETA</text>

  <!-- Russian tagline -->
  <text x="280" y="340" font-family="Arial, sans-serif" font-size="22" font-style="italic"
        fill="#8B95A1" opacity="0.8">От икринки к королевской</text>

  <!-- Location -->
  <text x="280" y="380" font-family="Arial, sans-serif" font-size="20"
        fill="#8B95A1" opacity="0.7">Невельский район, Сахалин</text>

  <!-- Website with glow -->
  <text x="100" y="570" font-family="Arial, sans-serif" font-size="30" font-weight="bold"
        fill="#4FD1C5" filter="url(#glow)">royalketa.com</text>

  <!-- Enhanced decorative salmon silhouette -->
  <g transform="translate(950, 480)" opacity="0.2" filter="url(#softGlow)">
    <ellipse cx="0" cy="0" rx="90" ry="35" fill="#CFAE58"/>
    <path d="M 90 0 L 120 -18 L 130 0 L 120 18 Z" fill="#CFAE58"/>
    <path d="M -25 -35 L 0 -45 L 25 -35 Z" fill="#CFAE58"/>
    <ellipse cx="-50" cy="0" rx="15" ry="12" fill="#0B0F14"/>
  </g>

  <!-- Additional decorative caviar clusters -->
  <g opacity="0.2">
    <circle cx="1050" cy="120" r="6" fill="#CFAE58"/>
    <circle cx="1065" cy="115" r="5" fill="#CFAE58"/>
    <circle cx="1058" cy="130" r="4" fill="#CFAE58"/>
    <circle cx="150" cy="500" r="5" fill="#4FD1C5"/>
    <circle cx="165" cy="508" r="4" fill="#4FD1C5"/>
    <circle cx="140" cy="512" r="5" fill="#4FD1C5"/>
  </g>
</svg>