<svg width="1200" height="630" xmlns="http://www.w3.org/2000/svg">
  <defs>
    <linearGradient id="bgGradient" x1="0%" y1="0%" x2="100%" y2="100%">
      <stop offset="0%" style="stop-color:#0B0F14;stop-opacity:1" />
      <stop offset="50%" style="stop-color:#0F1619;stop-opacity:1" />
      <stop offset="100%" style="stop-color:#0F1922;stop-opacity:1" />
    </linearGradient>
    <linearGradient id="goldGradient" x1="0%" y1="0%" x2="100%" y2="0%">
      <stop offset="0%" style="stop-color:#E5D596;stop-opacity:1" />
      <stop offset="50%" style="stop-color:#CFAE58;stop-opacity:1" />
      <stop offset="100%" style="stop-color:#B89842;stop-opacity:1" />
    </linearGradient>
    <radialGradient id="oceanGradient" cx="50%" cy="50%" r="50%">
      <stop offset="0%" style="stop-color:#4FD1C5;stop-opacity:0.3" />
      <stop offset="100%" style="stop-color:#1E90A0;stop-opacity:0.05" />
    </radialGradient>
    <filter id="glow">
      <feGaussianBlur stdDeviation="5" result="coloredBlur"/>
      <feMerge>
        <feMergeNode in="coloredBlur"/>
        <feMergeNode in="SourceGraphic"/>
      </feMerge>
    </filter>
    <filter id="softGlow">
      <feGaussianBlur stdDeviation="8" result="coloredBlur"/>
      <feMerge>
        <feMergeNode in="coloredBlur"/>
        <feMergeNode in="SourceGraphic"/>
      </feMerge>
    </filter>
    <filter id="shadow">
      <feDropShadow dx="0" dy="4" stdDeviation="8" flood-color="#000000" flood-opacity="0.5"/>
    </filter>
  </defs>

  <!-- Background -->
  <rect width="1200" height="630" fill="url(#bgGradient)"/>

  <!-- Decorative ocean gradients -->
  <ellipse cx="1000" cy="150" rx="300" ry="200" fill="url(#oceanGradient)" opacity="0.4"/>
  <ellipse cx="200" cy="530" rx="250" ry="180" fill="url(#oceanGradient)" opacity="0.3"/>

  <!-- Wave patterns -->
  <path d="M 0 400 Q 300 350 600 400 T 1200 400 L 1200 630 L 0 630 Z" fill="#1E90A0" opacity="0.08"/>
  <path d="M 0 450 Q 250 420 500 450 T 1000 450 T 1200 450 L 1200 630 L 0 630 Z" fill="#4FD1C5" opacity="0.05"/>

  <!-- Caviar roe particles -->
  <circle cx="734.0531014946713" cy="114.96239381504603" r="4.775723463937343" fill="#CFAE58" opacity="0.24878312444737316"/>
  <circle cx="343.97607137943976" cy="463.27824612367374" r="3.118386124630085" fill="#CFAE58" opacity="0.21003416032301847"/>
  <circle cx="615.3662029630135" cy="278.0944244654548" r="2.944338228958307" fill="#CFAE58" opacity="0.22919677913108888"/>
  <circle cx="374.6826677821259" cy="543.073459268115" r="5.23684185076783" fill="#CFAE58" opacity="0.13994031564922993"/>
  <circle cx="563.4043622023146" cy="280.0874997911788" r="3.455105939422686" fill="#CFAE58" opacity="0.1907283612169144"/>
  <circle cx="1101.019646088283" cy="98.02318886134502" r="4.124669691171588" fill="#CFAE58" opacity="0.24774932908072747"/>
  <circle cx="587.6664198275018" cy="492.3716712744125" r="5.631010705949981" fill="#CFAE58" opacity="0.213761262013844"/>
  <circle cx="1157.770423249501" cy="399.2921853807386" r="3.8560801194333476" fill="#CFAE58" opacity="0.24567667553800454"/>
  <circle cx="157.08742430645935" cy="417.2067447963103" r="3.955253104050384" fill="#CFAE58" opacity="0.10692894827640521"/>
  <circle cx="788.2366948853407" cy="234.38897514968252" r="2.6165956563812207" fill="#CFAE58" opacity="0.11944273142619163"/>
  <circle cx="74.85194747361112" cy="476.4693532984762" r="2.704482025447733" fill="#CFAE58" opacity="0.13296032246131162"/>
  <circle cx="111.59205581819944" cy="563.4105516433661" r="5.069311244999265" fill="#CFAE58" opacity="0.1684356033103837"/>
  <circle cx="1053.169915100041" cy="327.2118664703899" r="2.3117863977038944" fill="#CFAE58" opacity="0.18064830517148506"/>
  <circle cx="57.447851126115836" cy="255.53622206184463" r="5.084127752032327" fill="#CFAE58" opacity="0.20413401259918001"/>
  <circle cx="1098.0967454204974" cy="541.5720396625966" r="2.990417497586271" fill="#CFAE58" opacity="0.19871997761323879"/>
  <circle cx="456.65115776452694" cy="505.8388401680954" r="2.625713119143787" fill="#CFAE58" opacity="0.16968932585380783"/>
  <circle cx="565.9056401064366" cy="532.2726508312893" r="2.6094648985965883" fill="#CFAE58" opacity="0.1842190821387411"/>
  <circle cx="1012.5941906588091" cy="392.6649871666779" r="5.732178049788892" fill="#CFAE58" opacity="0.18377738592662107"/>
  <circle cx="129.96685337388635" cy="601.0719979480133" r="5.050052726083184" fill="#CFAE58" opacity="0.22832125881977025"/>
  <circle cx="58.42395960966811" cy="606.6913990421763" r="3.7396891520367608" fill="#CFAE58" opacity="0.127157754604946"/>
  <circle cx="259.08772403187874" cy="457.06518952277094" r="3.888667565075055" fill="#CFAE58" opacity="0.18338010268000382"/>
  <circle cx="41.24865440788219" cy="447.8205700721891" r="2.9928395799287886" fill="#CFAE58" opacity="0.22166153680178785"/>
  <circle cx="860.0378435029866" cy="327.82303987904095" r="4.901205800249084" fill="#CFAE58" opacity="0.1580882496945032"/>
  <circle cx="815.9889872839537" cy="53.65155029317234" r="5.515068700829943" fill="#CFAE58" opacity="0.23926556878146693"/>
  <circle cx="155.81634141264215" cy="221.31093357719726" r="4.094552514822082" fill="#CFAE58" opacity="0.12433854274524903"/>
  <circle cx="1035.8234097186814" cy="120.42993382703933" r="5.025579537653789" fill="#CFAE58" opacity="0.1784627757483495"/>
  <circle cx="41.72977917366585" cy="319.7961583096816" r="3.9536704795702846" fill="#CFAE58" opacity="0.12527429181017904"/>
  <circle cx="92.88429356018196" cy="548.7976921570479" r="5.1030645562034085" fill="#CFAE58" opacity="0.15282543178757096"/>
  <circle cx="541.645422128383" cy="228.13655593058118" r="2.5267062458108462" fill="#CFAE58" opacity="0.2141957774678307"/>
  <circle cx="321.03390498734" cy="192.5717978795268" r="4.996383052263602" fill="#CFAE58" opacity="0.24144169694344705"/>

  <!-- Border with glow -->
  <rect x="40" y="40" width="1120" height="550" fill="none" stroke="url(#goldGradient)" stroke-width="3" rx="12" filter="url(#softGlow)"/>

  <!-- Icon circle with premium background -->
  <circle cx="150" cy="200" r="75" fill="#CFAE58" opacity="0.15" filter="url(#softGlow)"/>
  <circle cx="150" cy="200" r="70" fill="#CFAE58" opacity="0.25"/>
  <text x="150" y="235" font-size="90" text-anchor="middle" fill="#CFAE58" filter="url(#glow)">🎣</text>

  <!-- Premium logo (crown) with enhanced styling -->
  <g transform="translate(100, 70)">
    <path d="M 30 20 L 40 35 L 35 35 Z M 50 15 L 60 35 L 45 35 Z M 65 20 L 75 35 L 70 35 Z M 30 35 L 75 35 L 73 45 L 32 45 Z"
          fill="url(#goldGradient)" filter="url(#glow)" stroke="#B89842" stroke-width="0.5"/>
    <circle cx="40" cy="25" r="3" fill="#4FD1C5" filter="url(#glow)"/>
    <circle cx="52" cy="20" r="4" fill="#4FD1C5" filter="url(#glow)"/>
    <circle cx="65" cy="25" r="3" fill="#4FD1C5" filter="url(#glow)"/>
  </g>

  <!-- Title with shadow -->
  <text x="280" y="180" font-family="Georgia, serif" font-size="72" font-weight="bold"
        fill="url(#goldGradient)" filter="url(#shadow)">Hatchery Tours</text>

  <!-- Subtitle with subtle glow -->
  <text x="280" y="230" font-family="Arial, sans-serif" font-size="36"
        fill="#D6DEE6" opacity="0.95" filter="url(#softGlow)">Family Experiences &amp; Caviar Tasting</text>

  <!-- Brand name with letter spacing -->
  <text x="280" y="300" font-family="Georgia, serif" font-size="32" font-weight="bold"
        fill="#CFAE58" letter-spacing="4" filter="url(#glow)">ROYAL KETA</text>

  <!-- Russian tagline -->
  <text x="280" y="340" font-family="Arial, sans-serif" font-size="22" font-style="italic"
        fill="#8B95A1" opacity="0.8">От икринки к королевской</text>

  <!-- Location -->
  <text x="280" y="380" font-family="Arial, sans-serif" font-size="20"
        fill="#8B95A1" opacity="0.7">Невельский район, Сахалин</text>

  <!-- Website with glow -->
  <text x="100" y="570" font-family="Arial, sans-serif" font-size="30" font-weight="bold"
        fill="#4FD1C5" filter="url(#glow)">royalketa.com</text>

  <!-- Enhanced decorative salmon silhouette -->
  <g transform="translate(950, 480)" opacity="0.2" filter="url(#softGlow)">
    <ellipse cx="0" cy="0" rx="90" ry="35" fill="#CFAE58"/>
    <path d="M 90 0 L 120 -18 L 130 0 L 120 18 Z" fill="#CFAE58"/>
    <path d="M -25 -35 L 0 -45 L 25 -35 Z" fill="#CFAE58"/>
    <ellipse cx="-50" cy="0" rx="15" ry="12" fill="#0B0F14"/>
  </g>

  <!-- Additional decorative caviar clusters -->
  <g opacity="0.2">
    <circle cx="1050" cy="120" r="6" fill="#CFAE58"/>
    <circle cx="1065" cy="115" r="5" fill="#CFAE58"/>
    <circle cx="1058" cy="130" r="4" fill="#CFAE58"/>
    <circle cx="150" cy="500" r="5" fill="#4FD1C5"/>
    <circle cx="165" cy="508" r="4" fill="#4FD1C5"/>
    <circle cx="140" cy="512" r="5" fill="#4FD1C5"/>
  </g>
</svg>