<svg width="1200" height="630" xmlns="http://www.w3.org/2000/svg">
  <defs>
    <linearGradient id="bgGradient" x1="0%" y1="0%" x2="100%" y2="100%">
      <stop offset="0%" style="stop-color:#0B0F14;stop-opacity:1" />
      <stop offset="50%" style="stop-color:#0F1619;stop-opacity:1" />
      <stop offset="100%" style="stop-color:#0F1922;stop-opacity:1" />
    </linearGradient>
    <linearGradient id="goldGradient" x1="0%" y1="0%" x2="100%" y2="0%">
      <stop offset="0%" style="stop-color:#E5D596;stop-opacity:1" />
      <stop offset="50%" style="stop-color:#CFAE58;stop-opacity:1" />
      <stop offset="100%" style="stop-color:#B89842;stop-opacity:1" />
    </linearGradient>
    <radialGradient id="oceanGradient" cx="50%" cy="50%" r="50%">
      <stop offset="0%" style="stop-color:#4FD1C5;stop-opacity:0.3" />
      <stop offset="100%" style="stop-color:#1E90A0;stop-opacity:0.05" />
    </radialGradient>
    <filter id="glow">
      <feGaussianBlur stdDeviation="5" result="coloredBlur"/>
      <feMerge>
        <feMergeNode in="coloredBlur"/>
        <feMergeNode in="SourceGraphic"/>
      </feMerge>
    </filter>
    <filter id="softGlow">
      <feGaussianBlur stdDeviation="8" result="coloredBlur"/>
      <feMerge>
        <feMergeNode in="coloredBlur"/>
        <feMergeNode in="SourceGraphic"/>
      </feMerge>
    </filter>
    <filter id="shadow">
      <feDropShadow dx="0" dy="4" stdDeviation="8" flood-color="#000000" flood-opacity="0.5"/>
    </filter>
  </defs>

  <!-- Background -->
  <rect width="1200" height="630" fill="url(#bgGradient)"/>

  <!-- Decorative ocean gradients -->
  <ellipse cx="1000" cy="150" rx="300" ry="200" fill="url(#oceanGradient)" opacity="0.4"/>
  <ellipse cx="200" cy="530" rx="250" ry="180" fill="url(#oceanGradient)" opacity="0.3"/>

  <!-- Wave patterns -->
  <path d="M 0 400 Q 300 350 600 400 T 1200 400 L 1200 630 L 0 630 Z" fill="#1E90A0" opacity="0.08"/>
  <path d="M 0 450 Q 250 420 500 450 T 1000 450 T 1200 450 L 1200 630 L 0 630 Z" fill="#4FD1C5" opacity="0.05"/>

  <!-- Caviar roe particles -->
  <circle cx="20.131305681729252" cy="321.85043179349645" r="3.3406767012641194" fill="#CFAE58" opacity="0.14696223487643748"/>
  <circle cx="201.50630721326544" cy="515.1725473622456" r="3.3141525680005004" fill="#CFAE58" opacity="0.2384307815495984"/>
  <circle cx="985.5859933304577" cy="65.15777261320991" r="5.481262726631625" fill="#CFAE58" opacity="0.20728740308056132"/>
  <circle cx="642.7920168061218" cy="338.30603611519064" r="4.1730840416469075" fill="#CFAE58" opacity="0.2150205929404097"/>
  <circle cx="957.1474332936987" cy="622.2331132946337" r="5.734382569622968" fill="#CFAE58" opacity="0.13310602610076055"/>
  <circle cx="805.0719001793611" cy="267.90745851048587" r="5.6903973432317505" fill="#CFAE58" opacity="0.18700639153095625"/>
  <circle cx="460.6548931952909" cy="581.9082361131995" r="2.3281367331559317" fill="#CFAE58" opacity="0.10509657164433048"/>
  <circle cx="531.5133226013656" cy="261.98943833607217" r="2.938374115331701" fill="#CFAE58" opacity="0.21899439004005897"/>
  <circle cx="384.0068796316488" cy="135.13381761397915" r="5.895873841534485" fill="#CFAE58" opacity="0.1143089743220381"/>
  <circle cx="116.45578997158141" cy="19.256117123895603" r="5.816845855297904" fill="#CFAE58" opacity="0.23573283098166728"/>
  <circle cx="481.0199917287678" cy="340.66763852896173" r="3.0940392817485627" fill="#CFAE58" opacity="0.18431288475787455"/>
  <circle cx="792.2705238085917" cy="399.68894316743865" r="5.097132588461472" fill="#CFAE58" opacity="0.2287007883171156"/>
  <circle cx="1017.1162277982622" cy="624.744822547458" r="5.848980343820003" fill="#CFAE58" opacity="0.16921816749919216"/>
  <circle cx="479.97663956133493" cy="37.38143055535849" r="4.483160003507768" fill="#CFAE58" opacity="0.1986630778114823"/>
  <circle cx="506.75373370686657" cy="129.44832715790147" r="5.829787100850702" fill="#CFAE58" opacity="0.12532806247926684"/>
  <circle cx="873.111018005517" cy="616.0708157724025" r="2.773336144942413" fill="#CFAE58" opacity="0.12947613550842374"/>
  <circle cx="619.362906591046" cy="280.61152021416643" r="3.684553917322793" fill="#CFAE58" opacity="0.1435736714569475"/>
  <circle cx="343.1763280038545" cy="254.0503700808805" r="2.889254135808561" fill="#CFAE58" opacity="0.1269556363456252"/>
  <circle cx="1036.3380196442508" cy="393.57373906046365" r="3.9499160017819746" fill="#CFAE58" opacity="0.12087616477101945"/>
  <circle cx="1140.280247569556" cy="395.2402790532344" r="2.99940415506406" fill="#CFAE58" opacity="0.21683960575759315"/>
  <circle cx="1086.4495929408079" cy="624.5954352406872" r="4.773126921511445" fill="#CFAE58" opacity="0.2045309960016248"/>
  <circle cx="516.0537852231853" cy="146.92467574451322" r="3.063951525280058" fill="#CFAE58" opacity="0.17918544359291944"/>
  <circle cx="1155.1821052635091" cy="43.78673646098429" r="2.0209035406350817" fill="#CFAE58" opacity="0.23822596041590036"/>
  <circle cx="129.6433842368349" cy="177.39874049169384" r="3.4683203963024667" fill="#CFAE58" opacity="0.10546004972908674"/>
  <circle cx="1144.708103284272" cy="320.85768134439184" r="2.3829376377924634" fill="#CFAE58" opacity="0.2200005710716375"/>
  <circle cx="350.7198743258074" cy="361.46627326628845" r="3.9510071965448326" fill="#CFAE58" opacity="0.1395462872409431"/>
  <circle cx="804.3828361988486" cy="103.86359088680148" r="2.5555847326797676" fill="#CFAE58" opacity="0.24420837757553276"/>
  <circle cx="1085.0139425619502" cy="584.1656387103209" r="4.294450090735768" fill="#CFAE58" opacity="0.12667017557435"/>
  <circle cx="894.7375784094236" cy="82.3655305293038" r="2.5291398731470696" fill="#CFAE58" opacity="0.1709224785925372"/>
  <circle cx="391.080815192219" cy="355.2914474381159" r="4.574360564259111" fill="#CFAE58" opacity="0.11919122480554303"/>

  <!-- Border with glow -->
  <rect x="40" y="40" width="1120" height="550" fill="none" stroke="url(#goldGradient)" stroke-width="3" rx="12" filter="url(#softGlow)"/>

  <!-- Icon circle with premium background -->
  <circle cx="150" cy="200" r="75" fill="#CFAE58" opacity="0.15" filter="url(#softGlow)"/>
  <circle cx="150" cy="200" r="70" fill="#CFAE58" opacity="0.25"/>
  <text x="150" y="235" font-size="90" text-anchor="middle" fill="#CFAE58" filter="url(#glow)">🎣</text>

  <!-- Premium logo (crown) with enhanced styling -->
  <g transform="translate(100, 70)">
    <path d="M 30 20 L 40 35 L 35 35 Z M 50 15 L 60 35 L 45 35 Z M 65 20 L 75 35 L 70 35 Z M 30 35 L 75 35 L 73 45 L 32 45 Z"
          fill="url(#goldGradient)" filter="url(#glow)" stroke="#B89842" stroke-width="0.5"/>
    <circle cx="40" cy="25" r="3" fill="#4FD1C5" filter="url(#glow)"/>
    <circle cx="52" cy="20" r="4" fill="#4FD1C5" filter="url(#glow)"/>
    <circle cx="65" cy="25" r="3" fill="#4FD1C5" filter="url(#glow)"/>
  </g>

  <!-- Title with shadow -->
  <text x="280" y="180" font-family="Georgia, serif" font-size="72" font-weight="bold"
        fill="url(#goldGradient)" filter="url(#shadow)">Hatchery Tours</text>

  <!-- Subtitle with subtle glow -->
  <text x="280" y="230" font-family="Arial, sans-serif" font-size="36"
        fill="#D6DEE6" opacity="0.95" filter="url(#softGlow)">Family Experiences &amp; Caviar Tasting</text>

  <!-- Brand name with letter spacing -->
  <text x="280" y="300" font-family="Georgia, serif" font-size="32" font-weight="bold"
        fill="#CFAE58" letter-spacing="4" filter="url(#glow)">ROYAL KETA</text>

  <!-- Russian tagline -->
  <text x="280" y="340" font-family="Arial, sans-serif" font-size="22" font-style="italic"
        fill="#8B95A1" opacity="0.8">От икринки к королевской</text>

  <!-- Location -->
  <text x="280" y="380" font-family="Arial, sans-serif" font-size="20"
        fill="#8B95A1" opacity="0.7">Невельский район, Сахалин</text>

  <!-- Website with glow -->
  <text x="100" y="570" font-family="Arial, sans-serif" font-size="30" font-weight="bold"
        fill="#4FD1C5" filter="url(#glow)">royalketa.com</text>

  <!-- Enhanced decorative salmon silhouette -->
  <g transform="translate(950, 480)" opacity="0.2" filter="url(#softGlow)">
    <ellipse cx="0" cy="0" rx="90" ry="35" fill="#CFAE58"/>
    <path d="M 90 0 L 120 -18 L 130 0 L 120 18 Z" fill="#CFAE58"/>
    <path d="M -25 -35 L 0 -45 L 25 -35 Z" fill="#CFAE58"/>
    <ellipse cx="-50" cy="0" rx="15" ry="12" fill="#0B0F14"/>
  </g>

  <!-- Additional decorative caviar clusters -->
  <g opacity="0.2">
    <circle cx="1050" cy="120" r="6" fill="#CFAE58"/>
    <circle cx="1065" cy="115" r="5" fill="#CFAE58"/>
    <circle cx="1058" cy="130" r="4" fill="#CFAE58"/>
    <circle cx="150" cy="500" r="5" fill="#4FD1C5"/>
    <circle cx="165" cy="508" r="4" fill="#4FD1C5"/>
    <circle cx="140" cy="512" r="5" fill="#4FD1C5"/>
  </g>
</svg>