<svg width="1200" height="630" xmlns="http://www.w3.org/2000/svg">
  <defs>
    <linearGradient id="bgGradient" x1="0%" y1="0%" x2="100%" y2="100%">
      <stop offset="0%" style="stop-color:#0B0F14;stop-opacity:1" />
      <stop offset="50%" style="stop-color:#0F1619;stop-opacity:1" />
      <stop offset="100%" style="stop-color:#0F1922;stop-opacity:1" />
    </linearGradient>
    <linearGradient id="goldGradient" x1="0%" y1="0%" x2="100%" y2="0%">
      <stop offset="0%" style="stop-color:#E5D596;stop-opacity:1" />
      <stop offset="50%" style="stop-color:#CFAE58;stop-opacity:1" />
      <stop offset="100%" style="stop-color:#B89842;stop-opacity:1" />
    </linearGradient>
    <radialGradient id="oceanGradient" cx="50%" cy="50%" r="50%">
      <stop offset="0%" style="stop-color:#4FD1C5;stop-opacity:0.3" />
      <stop offset="100%" style="stop-color:#1E90A0;stop-opacity:0.05" />
    </radialGradient>
    <filter id="glow">
      <feGaussianBlur stdDeviation="5" result="coloredBlur"/>
      <feMerge>
        <feMergeNode in="coloredBlur"/>
        <feMergeNode in="SourceGraphic"/>
      </feMerge>
    </filter>
    <filter id="softGlow">
      <feGaussianBlur stdDeviation="8" result="coloredBlur"/>
      <feMerge>
        <feMergeNode in="coloredBlur"/>
        <feMergeNode in="SourceGraphic"/>
      </feMerge>
    </filter>
    <filter id="shadow">
      <feDropShadow dx="0" dy="4" stdDeviation="8" flood-color="#000000" flood-opacity="0.5"/>
    </filter>
  </defs>

  <!-- Background -->
  <rect width="1200" height="630" fill="url(#bgGradient)"/>

  <!-- Decorative ocean gradients -->
  <ellipse cx="1000" cy="150" rx="300" ry="200" fill="url(#oceanGradient)" opacity="0.4"/>
  <ellipse cx="200" cy="530" rx="250" ry="180" fill="url(#oceanGradient)" opacity="0.3"/>

  <!-- Wave patterns -->
  <path d="M 0 400 Q 300 350 600 400 T 1200 400 L 1200 630 L 0 630 Z" fill="#1E90A0" opacity="0.08"/>
  <path d="M 0 450 Q 250 420 500 450 T 1000 450 T 1200 450 L 1200 630 L 0 630 Z" fill="#4FD1C5" opacity="0.05"/>

  <!-- Caviar roe particles -->
  <circle cx="793.5235765939598" cy="247.24966458058606" r="4.714335144548539" fill="#CFAE58" opacity="0.2206345501481279"/>
  <circle cx="360.6647264078663" cy="150.8232001689301" r="3.2950082483674152" fill="#CFAE58" opacity="0.1574737141195899"/>
  <circle cx="382.2818793694353" cy="12.953415645828642" r="4.75191921893248" fill="#CFAE58" opacity="0.1485246641247437"/>
  <circle cx="664.6507406726441" cy="426.16481912455424" r="4.760273725329149" fill="#CFAE58" opacity="0.11394627166261903"/>
  <circle cx="252.46718976087243" cy="490.12842465666887" r="3.2997844849745914" fill="#CFAE58" opacity="0.11924042772600311"/>
  <circle cx="728.234325704256" cy="93.49013685050612" r="2.9468143028120917" fill="#CFAE58" opacity="0.12573118563012026"/>
  <circle cx="45.41460802405699" cy="324.4516155205442" r="2.950502259091337" fill="#CFAE58" opacity="0.18226319314469042"/>
  <circle cx="128.52726049153608" cy="619.3095084920947" r="3.2184985526198076" fill="#CFAE58" opacity="0.13944277686876988"/>
  <circle cx="301.7512762669191" cy="115.59873737222568" r="5.263226863914124" fill="#CFAE58" opacity="0.24992994082293124"/>
  <circle cx="1185.0647203134781" cy="380.26483157323645" r="4.667848015053551" fill="#CFAE58" opacity="0.10897297706127299"/>
  <circle cx="603.1429975882987" cy="609.9151713544999" r="3.298574038598458" fill="#CFAE58" opacity="0.21817132402528905"/>
  <circle cx="985.3878426389889" cy="137.4054609587226" r="4.485827675011215" fill="#CFAE58" opacity="0.2419618729413241"/>
  <circle cx="392.20694245087776" cy="525.8517892621811" r="2.2481854146193623" fill="#CFAE58" opacity="0.13167588572853114"/>
  <circle cx="662.7351816141357" cy="219.25384132303117" r="2.4172281302047938" fill="#CFAE58" opacity="0.11446560661390764"/>
  <circle cx="458.9529118977757" cy="242.27595530146013" r="4.995331161027263" fill="#CFAE58" opacity="0.1674572649562011"/>
  <circle cx="1032.6317404456943" cy="84.91748085542463" r="5.242988201378585" fill="#CFAE58" opacity="0.19246564102999297"/>
  <circle cx="16.27254256899682" cy="143.28987657753981" r="2.4766078735836183" fill="#CFAE58" opacity="0.16716325288402056"/>
  <circle cx="780.3552804602259" cy="193.91610731974734" r="2.1874484481135474" fill="#CFAE58" opacity="0.17831624303539745"/>
  <circle cx="792.8752083305537" cy="567.7786191111315" r="2.7598230823804424" fill="#CFAE58" opacity="0.13687323767058138"/>
  <circle cx="628.4718321785853" cy="72.941521045017" r="5.3482853434631785" fill="#CFAE58" opacity="0.14388427443684051"/>
  <circle cx="878.549502658611" cy="522.278495166418" r="3.690180308166521" fill="#CFAE58" opacity="0.21551000158286227"/>
  <circle cx="366.780982474019" cy="249.47452978557519" r="2.1939593088559364" fill="#CFAE58" opacity="0.21130099590584445"/>
  <circle cx="21.167665589658966" cy="80.60671308376163" r="4.558560147840055" fill="#CFAE58" opacity="0.11090460246551487"/>
  <circle cx="605.8472425361416" cy="490.53137886938384" r="4.121296766560542" fill="#CFAE58" opacity="0.18856070952279919"/>
  <circle cx="9.219942090706557" cy="418.8887107191856" r="2.594454552594656" fill="#CFAE58" opacity="0.1345483490353382"/>
  <circle cx="1095.5260216979405" cy="120.8152898565856" r="4.355710175601898" fill="#CFAE58" opacity="0.1389910381313854"/>
  <circle cx="1152.36083955679" cy="334.8463589892379" r="3.460819305334915" fill="#CFAE58" opacity="0.10666473271734396"/>
  <circle cx="991.9449123013057" cy="100.59457075104596" r="5.721716443643784" fill="#CFAE58" opacity="0.1286897115979096"/>
  <circle cx="212.47085831261043" cy="555.1227010122325" r="4.3526713146360105" fill="#CFAE58" opacity="0.1592530561234804"/>
  <circle cx="856.6342262856424" cy="50.40451668787847" r="5.323425036784572" fill="#CFAE58" opacity="0.22008367862234246"/>

  <!-- Border with glow -->
  <rect x="40" y="40" width="1120" height="550" fill="none" stroke="url(#goldGradient)" stroke-width="3" rx="12" filter="url(#softGlow)"/>

  <!-- Icon circle with premium background -->
  <circle cx="150" cy="200" r="75" fill="#CFAE58" opacity="0.15" filter="url(#softGlow)"/>
  <circle cx="150" cy="200" r="70" fill="#CFAE58" opacity="0.25"/>
  <text x="150" y="235" font-size="90" text-anchor="middle" fill="#CFAE58" filter="url(#glow)">🎣</text>

  <!-- Premium logo (crown) with enhanced styling -->
  <g transform="translate(100, 70)">
    <path d="M 30 20 L 40 35 L 35 35 Z M 50 15 L 60 35 L 45 35 Z M 65 20 L 75 35 L 70 35 Z M 30 35 L 75 35 L 73 45 L 32 45 Z"
          fill="url(#goldGradient)" filter="url(#glow)" stroke="#B89842" stroke-width="0.5"/>
    <circle cx="40" cy="25" r="3" fill="#4FD1C5" filter="url(#glow)"/>
    <circle cx="52" cy="20" r="4" fill="#4FD1C5" filter="url(#glow)"/>
    <circle cx="65" cy="25" r="3" fill="#4FD1C5" filter="url(#glow)"/>
  </g>

  <!-- Title with shadow -->
  <text x="280" y="180" font-family="Georgia, serif" font-size="72" font-weight="bold"
        fill="url(#goldGradient)" filter="url(#shadow)">Hatchery Tours</text>

  <!-- Subtitle with subtle glow -->
  <text x="280" y="230" font-family="Arial, sans-serif" font-size="36"
        fill="#D6DEE6" opacity="0.95" filter="url(#softGlow)">Family Experiences &amp; Caviar Tasting</text>

  <!-- Brand name with letter spacing -->
  <text x="280" y="300" font-family="Georgia, serif" font-size="32" font-weight="bold"
        fill="#CFAE58" letter-spacing="4" filter="url(#glow)">ROYAL KETA</text>

  <!-- Russian tagline -->
  <text x="280" y="340" font-family="Arial, sans-serif" font-size="22" font-style="italic"
        fill="#8B95A1" opacity="0.8">От икринки к королевской</text>

  <!-- Location -->
  <text x="280" y="380" font-family="Arial, sans-serif" font-size="20"
        fill="#8B95A1" opacity="0.7">Невельский район, Сахалин</text>

  <!-- Website with glow -->
  <text x="100" y="570" font-family="Arial, sans-serif" font-size="30" font-weight="bold"
        fill="#4FD1C5" filter="url(#glow)">royalketa.com</text>

  <!-- Enhanced decorative salmon silhouette -->
  <g transform="translate(950, 480)" opacity="0.2" filter="url(#softGlow)">
    <ellipse cx="0" cy="0" rx="90" ry="35" fill="#CFAE58"/>
    <path d="M 90 0 L 120 -18 L 130 0 L 120 18 Z" fill="#CFAE58"/>
    <path d="M -25 -35 L 0 -45 L 25 -35 Z" fill="#CFAE58"/>
    <ellipse cx="-50" cy="0" rx="15" ry="12" fill="#0B0F14"/>
  </g>

  <!-- Additional decorative caviar clusters -->
  <g opacity="0.2">
    <circle cx="1050" cy="120" r="6" fill="#CFAE58"/>
    <circle cx="1065" cy="115" r="5" fill="#CFAE58"/>
    <circle cx="1058" cy="130" r="4" fill="#CFAE58"/>
    <circle cx="150" cy="500" r="5" fill="#4FD1C5"/>
    <circle cx="165" cy="508" r="4" fill="#4FD1C5"/>
    <circle cx="140" cy="512" r="5" fill="#4FD1C5"/>
  </g>
</svg>