<svg width="1200" height="630" xmlns="http://www.w3.org/2000/svg">
  <defs>
    <linearGradient id="bgGradient" x1="0%" y1="0%" x2="100%" y2="100%">
      <stop offset="0%" style="stop-color:#0B0F14;stop-opacity:1" />
      <stop offset="50%" style="stop-color:#0F1619;stop-opacity:1" />
      <stop offset="100%" style="stop-color:#0F1922;stop-opacity:1" />
    </linearGradient>
    <linearGradient id="goldGradient" x1="0%" y1="0%" x2="100%" y2="0%">
      <stop offset="0%" style="stop-color:#E5D596;stop-opacity:1" />
      <stop offset="50%" style="stop-color:#CFAE58;stop-opacity:1" />
      <stop offset="100%" style="stop-color:#B89842;stop-opacity:1" />
    </linearGradient>
    <radialGradient id="oceanGradient" cx="50%" cy="50%" r="50%">
      <stop offset="0%" style="stop-color:#4FD1C5;stop-opacity:0.3" />
      <stop offset="100%" style="stop-color:#1E90A0;stop-opacity:0.05" />
    </radialGradient>
    <filter id="glow">
      <feGaussianBlur stdDeviation="5" result="coloredBlur"/>
      <feMerge>
        <feMergeNode in="coloredBlur"/>
        <feMergeNode in="SourceGraphic"/>
      </feMerge>
    </filter>
    <filter id="softGlow">
      <feGaussianBlur stdDeviation="8" result="coloredBlur"/>
      <feMerge>
        <feMergeNode in="coloredBlur"/>
        <feMergeNode in="SourceGraphic"/>
      </feMerge>
    </filter>
    <filter id="shadow">
      <feDropShadow dx="0" dy="4" stdDeviation="8" flood-color="#000000" flood-opacity="0.5"/>
    </filter>
  </defs>

  <!-- Background -->
  <rect width="1200" height="630" fill="url(#bgGradient)"/>

  <!-- Decorative ocean gradients -->
  <ellipse cx="1000" cy="150" rx="300" ry="200" fill="url(#oceanGradient)" opacity="0.4"/>
  <ellipse cx="200" cy="530" rx="250" ry="180" fill="url(#oceanGradient)" opacity="0.3"/>

  <!-- Wave patterns -->
  <path d="M 0 400 Q 300 350 600 400 T 1200 400 L 1200 630 L 0 630 Z" fill="#1E90A0" opacity="0.08"/>
  <path d="M 0 450 Q 250 420 500 450 T 1000 450 T 1200 450 L 1200 630 L 0 630 Z" fill="#4FD1C5" opacity="0.05"/>

  <!-- Caviar roe particles -->
  <circle cx="354.16443310567604" cy="299.4892580572024" r="2.4145346446585396" fill="#CFAE58" opacity="0.11574185746074768"/>
  <circle cx="51.243788025629385" cy="60.56754367074071" r="5.32081450331477" fill="#CFAE58" opacity="0.22535715284039337"/>
  <circle cx="762.9588136757257" cy="548.4689133750211" r="4.414536905670983" fill="#CFAE58" opacity="0.17843778293008372"/>
  <circle cx="113.44528612446352" cy="232.6237643826682" r="3.612590375370317" fill="#CFAE58" opacity="0.2158236500890101"/>
  <circle cx="932.9649062260332" cy="239.5284504833465" r="4.37910854465995" fill="#CFAE58" opacity="0.21637686934880918"/>
  <circle cx="726.5796336540417" cy="572.7324874175872" r="5.676853464770778" fill="#CFAE58" opacity="0.15702573750580198"/>
  <circle cx="216.76749823971272" cy="245.89391703423655" r="3.3914752394820136" fill="#CFAE58" opacity="0.12864225576829008"/>
  <circle cx="582.5553538294478" cy="160.45068066341128" r="3.2499887692571994" fill="#CFAE58" opacity="0.19666519757862932"/>
  <circle cx="501.97484496866673" cy="326.01603698960497" r="5.721164228922532" fill="#CFAE58" opacity="0.2490236504965132"/>
  <circle cx="661.8421002834231" cy="566.6773911709655" r="5.953877252481752" fill="#CFAE58" opacity="0.15308991534362706"/>
  <circle cx="511.01829404487836" cy="612.8284726666737" r="4.397903944299064" fill="#CFAE58" opacity="0.12355652360314519"/>
  <circle cx="31.398113041046383" cy="592.1889861438349" r="5.142706035069398" fill="#CFAE58" opacity="0.164248979009012"/>
  <circle cx="1093.0176692065008" cy="379.821093791821" r="5.328386616879824" fill="#CFAE58" opacity="0.11628875727468922"/>
  <circle cx="989.8603129500889" cy="192.38101979797804" r="2.032695589710346" fill="#CFAE58" opacity="0.23035531469560733"/>
  <circle cx="1054.3921331897227" cy="395.6437396547539" r="4.836098174867418" fill="#CFAE58" opacity="0.2218849021888756"/>
  <circle cx="452.50911995488474" cy="472.48656130139057" r="2.248451144560992" fill="#CFAE58" opacity="0.15672630337874557"/>
  <circle cx="408.9331940068002" cy="479.5234469729492" r="5.3368397958778315" fill="#CFAE58" opacity="0.1534312718821117"/>
  <circle cx="450.50138457499315" cy="124.97339061913004" r="5.380629797576083" fill="#CFAE58" opacity="0.24057073035412463"/>
  <circle cx="942.0235317568382" cy="522.0231273466827" r="4.858795006052421" fill="#CFAE58" opacity="0.23301779939294537"/>
  <circle cx="900.8021715194194" cy="255.857161214546" r="2.5659010483323446" fill="#CFAE58" opacity="0.12140149599461907"/>
  <circle cx="517.5599717601579" cy="93.23199788260158" r="5.357324893277989" fill="#CFAE58" opacity="0.10673468654913847"/>
  <circle cx="840.9116410284817" cy="533.305041544134" r="2.0817744413672896" fill="#CFAE58" opacity="0.12031356686359351"/>
  <circle cx="287.94952947014406" cy="98.15040208906152" r="4.208648487617726" fill="#CFAE58" opacity="0.16093195322471954"/>
  <circle cx="8.81179605197664" cy="368.3411621692698" r="5.4927731971564135" fill="#CFAE58" opacity="0.15511585615160947"/>
  <circle cx="655.3456364240711" cy="168.82930725690926" r="3.705214326199262" fill="#CFAE58" opacity="0.2404585201802261"/>
  <circle cx="171.19583826425017" cy="440.754031625679" r="2.240319060141002" fill="#CFAE58" opacity="0.2238507944500126"/>
  <circle cx="427.39770807895167" cy="414.32521333686395" r="2.838764561106851" fill="#CFAE58" opacity="0.1538554985617104"/>
  <circle cx="804.4186267222703" cy="510.7208534956312" r="5.385748737812795" fill="#CFAE58" opacity="0.24374075921259725"/>
  <circle cx="349.1085154544355" cy="77.62667361790862" r="2.4650255594174233" fill="#CFAE58" opacity="0.18639882625372745"/>
  <circle cx="988.5286847108242" cy="27.074840493001066" r="2.8957256687671444" fill="#CFAE58" opacity="0.11663851464724022"/>

  <!-- Border with glow -->
  <rect x="40" y="40" width="1120" height="550" fill="none" stroke="url(#goldGradient)" stroke-width="3" rx="12" filter="url(#softGlow)"/>

  <!-- Icon circle with premium background -->
  <circle cx="150" cy="200" r="75" fill="#CFAE58" opacity="0.15" filter="url(#softGlow)"/>
  <circle cx="150" cy="200" r="70" fill="#CFAE58" opacity="0.25"/>
  <text x="150" y="235" font-size="90" text-anchor="middle" fill="#CFAE58" filter="url(#glow)">🎣</text>

  <!-- Premium logo (crown) with enhanced styling -->
  <g transform="translate(100, 70)">
    <path d="M 30 20 L 40 35 L 35 35 Z M 50 15 L 60 35 L 45 35 Z M 65 20 L 75 35 L 70 35 Z M 30 35 L 75 35 L 73 45 L 32 45 Z"
          fill="url(#goldGradient)" filter="url(#glow)" stroke="#B89842" stroke-width="0.5"/>
    <circle cx="40" cy="25" r="3" fill="#4FD1C5" filter="url(#glow)"/>
    <circle cx="52" cy="20" r="4" fill="#4FD1C5" filter="url(#glow)"/>
    <circle cx="65" cy="25" r="3" fill="#4FD1C5" filter="url(#glow)"/>
  </g>

  <!-- Title with shadow -->
  <text x="280" y="180" font-family="Georgia, serif" font-size="72" font-weight="bold"
        fill="url(#goldGradient)" filter="url(#shadow)">Hatchery Tours</text>

  <!-- Subtitle with subtle glow -->
  <text x="280" y="230" font-family="Arial, sans-serif" font-size="36"
        fill="#D6DEE6" opacity="0.95" filter="url(#softGlow)">Family Experiences &amp; Caviar Tasting</text>

  <!-- Brand name with letter spacing -->
  <text x="280" y="300" font-family="Georgia, serif" font-size="32" font-weight="bold"
        fill="#CFAE58" letter-spacing="4" filter="url(#glow)">ROYAL KETA</text>

  <!-- Russian tagline -->
  <text x="280" y="340" font-family="Arial, sans-serif" font-size="22" font-style="italic"
        fill="#8B95A1" opacity="0.8">От икринки к королевской</text>

  <!-- Location -->
  <text x="280" y="380" font-family="Arial, sans-serif" font-size="20"
        fill="#8B95A1" opacity="0.7">Невельский район, Сахалин</text>

  <!-- Website with glow -->
  <text x="100" y="570" font-family="Arial, sans-serif" font-size="30" font-weight="bold"
        fill="#4FD1C5" filter="url(#glow)">royalketa.com</text>

  <!-- Enhanced decorative salmon silhouette -->
  <g transform="translate(950, 480)" opacity="0.2" filter="url(#softGlow)">
    <ellipse cx="0" cy="0" rx="90" ry="35" fill="#CFAE58"/>
    <path d="M 90 0 L 120 -18 L 130 0 L 120 18 Z" fill="#CFAE58"/>
    <path d="M -25 -35 L 0 -45 L 25 -35 Z" fill="#CFAE58"/>
    <ellipse cx="-50" cy="0" rx="15" ry="12" fill="#0B0F14"/>
  </g>

  <!-- Additional decorative caviar clusters -->
  <g opacity="0.2">
    <circle cx="1050" cy="120" r="6" fill="#CFAE58"/>
    <circle cx="1065" cy="115" r="5" fill="#CFAE58"/>
    <circle cx="1058" cy="130" r="4" fill="#CFAE58"/>
    <circle cx="150" cy="500" r="5" fill="#4FD1C5"/>
    <circle cx="165" cy="508" r="4" fill="#4FD1C5"/>
    <circle cx="140" cy="512" r="5" fill="#4FD1C5"/>
  </g>
</svg>