<svg width="1200" height="630" xmlns="http://www.w3.org/2000/svg">
  <defs>
    <linearGradient id="bgGradient" x1="0%" y1="0%" x2="100%" y2="100%">
      <stop offset="0%" style="stop-color:#0B0F14;stop-opacity:1" />
      <stop offset="50%" style="stop-color:#0F1619;stop-opacity:1" />
      <stop offset="100%" style="stop-color:#0F1922;stop-opacity:1" />
    </linearGradient>
    <linearGradient id="goldGradient" x1="0%" y1="0%" x2="100%" y2="0%">
      <stop offset="0%" style="stop-color:#E5D596;stop-opacity:1" />
      <stop offset="50%" style="stop-color:#CFAE58;stop-opacity:1" />
      <stop offset="100%" style="stop-color:#B89842;stop-opacity:1" />
    </linearGradient>
    <radialGradient id="oceanGradient" cx="50%" cy="50%" r="50%">
      <stop offset="0%" style="stop-color:#4FD1C5;stop-opacity:0.3" />
      <stop offset="100%" style="stop-color:#1E90A0;stop-opacity:0.05" />
    </radialGradient>
    <filter id="glow">
      <feGaussianBlur stdDeviation="5" result="coloredBlur"/>
      <feMerge>
        <feMergeNode in="coloredBlur"/>
        <feMergeNode in="SourceGraphic"/>
      </feMerge>
    </filter>
    <filter id="softGlow">
      <feGaussianBlur stdDeviation="8" result="coloredBlur"/>
      <feMerge>
        <feMergeNode in="coloredBlur"/>
        <feMergeNode in="SourceGraphic"/>
      </feMerge>
    </filter>
    <filter id="shadow">
      <feDropShadow dx="0" dy="4" stdDeviation="8" flood-color="#000000" flood-opacity="0.5"/>
    </filter>
  </defs>

  <!-- Background -->
  <rect width="1200" height="630" fill="url(#bgGradient)"/>

  <!-- Decorative ocean gradients -->
  <ellipse cx="1000" cy="150" rx="300" ry="200" fill="url(#oceanGradient)" opacity="0.4"/>
  <ellipse cx="200" cy="530" rx="250" ry="180" fill="url(#oceanGradient)" opacity="0.3"/>

  <!-- Wave patterns -->
  <path d="M 0 400 Q 300 350 600 400 T 1200 400 L 1200 630 L 0 630 Z" fill="#1E90A0" opacity="0.08"/>
  <path d="M 0 450 Q 250 420 500 450 T 1000 450 T 1200 450 L 1200 630 L 0 630 Z" fill="#4FD1C5" opacity="0.05"/>

  <!-- Caviar roe particles -->
  <circle cx="953.0326503283255" cy="444.2562326977512" r="2.117935404835273" fill="#CFAE58" opacity="0.16567540339600278"/>
  <circle cx="529.3028396216015" cy="188.61426924234397" r="2.040032980510058" fill="#CFAE58" opacity="0.1022088582114038"/>
  <circle cx="307.39493734641565" cy="540.5285185208419" r="3.635659669711626" fill="#CFAE58" opacity="0.22163221514482642"/>
  <circle cx="15.99764469438556" cy="158.56911610902225" r="2.4550954665096887" fill="#CFAE58" opacity="0.12891802946683253"/>
  <circle cx="443.50697262398756" cy="180.21907281190425" r="5.27400006015537" fill="#CFAE58" opacity="0.11668801639131839"/>
  <circle cx="142.32442286707263" cy="511.097380615151" r="2.544901347108551" fill="#CFAE58" opacity="0.13668769886222387"/>
  <circle cx="467.82639002017754" cy="449.86008999631224" r="2.443731206288591" fill="#CFAE58" opacity="0.20792136321680615"/>
  <circle cx="368.30133210457126" cy="95.98473503039109" r="5.475499495837137" fill="#CFAE58" opacity="0.16224093870313333"/>
  <circle cx="468.36316720019636" cy="350.46749043655313" r="4.192841235233075" fill="#CFAE58" opacity="0.20546876272947784"/>
  <circle cx="411.3988546165567" cy="370.3832195488345" r="3.8278254079189606" fill="#CFAE58" opacity="0.14015539858575385"/>
  <circle cx="583.4659047646019" cy="225.38556988270958" r="5.729404824337171" fill="#CFAE58" opacity="0.2056535721817958"/>
  <circle cx="726.4041066369366" cy="246.02543001287242" r="3.3049896555836202" fill="#CFAE58" opacity="0.1003466163473144"/>
  <circle cx="35.36958653140854" cy="579.8705592875206" r="5.095456678779699" fill="#CFAE58" opacity="0.10644637020745885"/>
  <circle cx="251.9895990483352" cy="323.64998647621434" r="3.497677284493146" fill="#CFAE58" opacity="0.11735803646304646"/>
  <circle cx="897.7706896611653" cy="219.46841457284287" r="2.934194500338519" fill="#CFAE58" opacity="0.1917821525314815"/>
  <circle cx="117.26156384474385" cy="590.024441695335" r="5.323271338751871" fill="#CFAE58" opacity="0.20592380573849028"/>
  <circle cx="243.25437447360434" cy="142.74809902361574" r="2.7574478269053007" fill="#CFAE58" opacity="0.16437459716004127"/>
  <circle cx="153.72025822734255" cy="143.74227691489435" r="2.7891784461835156" fill="#CFAE58" opacity="0.17475233316516225"/>
  <circle cx="1160.9864519364085" cy="468.9770916483278" r="3.0122828669103283" fill="#CFAE58" opacity="0.20484315692767716"/>
  <circle cx="423.0139241186709" cy="502.7997779993055" r="3.708126535875518" fill="#CFAE58" opacity="0.14137731023374892"/>
  <circle cx="1134.9609161613314" cy="72.51682141605873" r="5.121830062271755" fill="#CFAE58" opacity="0.1117566193455921"/>
  <circle cx="1111.3131873959987" cy="595.1588263182293" r="4.352720041423684" fill="#CFAE58" opacity="0.12098065497446558"/>
  <circle cx="881.6167883288286" cy="74.18159245293293" r="4.40404521658992" fill="#CFAE58" opacity="0.17159332617766193"/>
  <circle cx="903.2479960123922" cy="22.765451985248887" r="3.653990090212136" fill="#CFAE58" opacity="0.145795789642562"/>
  <circle cx="284.5537814929521" cy="100.74037463618427" r="4.8575704744545725" fill="#CFAE58" opacity="0.16042872023575167"/>
  <circle cx="197.1595263841299" cy="550.4610229212624" r="4.754219662217927" fill="#CFAE58" opacity="0.12454652679492459"/>
  <circle cx="1007.5250115165339" cy="58.10366776635686" r="4.781191558718294" fill="#CFAE58" opacity="0.11320631547722537"/>
  <circle cx="635.9633629325839" cy="588.5871482099747" r="3.5552063193800567" fill="#CFAE58" opacity="0.1107486955114598"/>
  <circle cx="7.3547513717056034" cy="490.4993478296358" r="4.964016667478771" fill="#CFAE58" opacity="0.23116723857073745"/>
  <circle cx="519.1842626808576" cy="20.61626391897756" r="4.979574129128069" fill="#CFAE58" opacity="0.12231412945092256"/>

  <!-- Border with glow -->
  <rect x="40" y="40" width="1120" height="550" fill="none" stroke="url(#goldGradient)" stroke-width="3" rx="12" filter="url(#softGlow)"/>

  <!-- Icon circle with premium background -->
  <circle cx="150" cy="200" r="75" fill="#CFAE58" opacity="0.15" filter="url(#softGlow)"/>
  <circle cx="150" cy="200" r="70" fill="#CFAE58" opacity="0.25"/>
  <text x="150" y="235" font-size="90" text-anchor="middle" fill="#CFAE58" filter="url(#glow)">🎣</text>

  <!-- Premium logo (crown) with enhanced styling -->
  <g transform="translate(100, 70)">
    <path d="M 30 20 L 40 35 L 35 35 Z M 50 15 L 60 35 L 45 35 Z M 65 20 L 75 35 L 70 35 Z M 30 35 L 75 35 L 73 45 L 32 45 Z"
          fill="url(#goldGradient)" filter="url(#glow)" stroke="#B89842" stroke-width="0.5"/>
    <circle cx="40" cy="25" r="3" fill="#4FD1C5" filter="url(#glow)"/>
    <circle cx="52" cy="20" r="4" fill="#4FD1C5" filter="url(#glow)"/>
    <circle cx="65" cy="25" r="3" fill="#4FD1C5" filter="url(#glow)"/>
  </g>

  <!-- Title with shadow -->
  <text x="280" y="180" font-family="Georgia, serif" font-size="72" font-weight="bold"
        fill="url(#goldGradient)" filter="url(#shadow)">Hatchery Tours</text>

  <!-- Subtitle with subtle glow -->
  <text x="280" y="230" font-family="Arial, sans-serif" font-size="36"
        fill="#D6DEE6" opacity="0.95" filter="url(#softGlow)">Family Experiences &amp; Caviar Tasting</text>

  <!-- Brand name with letter spacing -->
  <text x="280" y="300" font-family="Georgia, serif" font-size="32" font-weight="bold"
        fill="#CFAE58" letter-spacing="4" filter="url(#glow)">ROYAL KETA</text>

  <!-- Russian tagline -->
  <text x="280" y="340" font-family="Arial, sans-serif" font-size="22" font-style="italic"
        fill="#8B95A1" opacity="0.8">От икринки к королевской</text>

  <!-- Location -->
  <text x="280" y="380" font-family="Arial, sans-serif" font-size="20"
        fill="#8B95A1" opacity="0.7">Невельский район, Сахалин</text>

  <!-- Website with glow -->
  <text x="100" y="570" font-family="Arial, sans-serif" font-size="30" font-weight="bold"
        fill="#4FD1C5" filter="url(#glow)">royalketa.com</text>

  <!-- Enhanced decorative salmon silhouette -->
  <g transform="translate(950, 480)" opacity="0.2" filter="url(#softGlow)">
    <ellipse cx="0" cy="0" rx="90" ry="35" fill="#CFAE58"/>
    <path d="M 90 0 L 120 -18 L 130 0 L 120 18 Z" fill="#CFAE58"/>
    <path d="M -25 -35 L 0 -45 L 25 -35 Z" fill="#CFAE58"/>
    <ellipse cx="-50" cy="0" rx="15" ry="12" fill="#0B0F14"/>
  </g>

  <!-- Additional decorative caviar clusters -->
  <g opacity="0.2">
    <circle cx="1050" cy="120" r="6" fill="#CFAE58"/>
    <circle cx="1065" cy="115" r="5" fill="#CFAE58"/>
    <circle cx="1058" cy="130" r="4" fill="#CFAE58"/>
    <circle cx="150" cy="500" r="5" fill="#4FD1C5"/>
    <circle cx="165" cy="508" r="4" fill="#4FD1C5"/>
    <circle cx="140" cy="512" r="5" fill="#4FD1C5"/>
  </g>
</svg>