<svg width="1200" height="630" xmlns="http://www.w3.org/2000/svg">
  <defs>
    <linearGradient id="bgGradient" x1="0%" y1="0%" x2="100%" y2="100%">
      <stop offset="0%" style="stop-color:#0B0F14;stop-opacity:1" />
      <stop offset="50%" style="stop-color:#0F1619;stop-opacity:1" />
      <stop offset="100%" style="stop-color:#0F1922;stop-opacity:1" />
    </linearGradient>
    <linearGradient id="goldGradient" x1="0%" y1="0%" x2="100%" y2="0%">
      <stop offset="0%" style="stop-color:#E5D596;stop-opacity:1" />
      <stop offset="50%" style="stop-color:#CFAE58;stop-opacity:1" />
      <stop offset="100%" style="stop-color:#B89842;stop-opacity:1" />
    </linearGradient>
    <radialGradient id="oceanGradient" cx="50%" cy="50%" r="50%">
      <stop offset="0%" style="stop-color:#4FD1C5;stop-opacity:0.3" />
      <stop offset="100%" style="stop-color:#1E90A0;stop-opacity:0.05" />
    </radialGradient>
    <filter id="glow">
      <feGaussianBlur stdDeviation="5" result="coloredBlur"/>
      <feMerge>
        <feMergeNode in="coloredBlur"/>
        <feMergeNode in="SourceGraphic"/>
      </feMerge>
    </filter>
    <filter id="softGlow">
      <feGaussianBlur stdDeviation="8" result="coloredBlur"/>
      <feMerge>
        <feMergeNode in="coloredBlur"/>
        <feMergeNode in="SourceGraphic"/>
      </feMerge>
    </filter>
    <filter id="shadow">
      <feDropShadow dx="0" dy="4" stdDeviation="8" flood-color="#000000" flood-opacity="0.5"/>
    </filter>
  </defs>

  <!-- Background -->
  <rect width="1200" height="630" fill="url(#bgGradient)"/>

  <!-- Decorative ocean gradients -->
  <ellipse cx="1000" cy="150" rx="300" ry="200" fill="url(#oceanGradient)" opacity="0.4"/>
  <ellipse cx="200" cy="530" rx="250" ry="180" fill="url(#oceanGradient)" opacity="0.3"/>

  <!-- Wave patterns -->
  <path d="M 0 400 Q 300 350 600 400 T 1200 400 L 1200 630 L 0 630 Z" fill="#1E90A0" opacity="0.08"/>
  <path d="M 0 450 Q 250 420 500 450 T 1000 450 T 1200 450 L 1200 630 L 0 630 Z" fill="#4FD1C5" opacity="0.05"/>

  <!-- Caviar roe particles -->
  <circle cx="181.2729870959327" cy="240.98797912398751" r="5.269481462370048" fill="#CFAE58" opacity="0.1205435856147324"/>
  <circle cx="548.4777729203762" cy="607.8851802769865" r="5.4311210393676035" fill="#CFAE58" opacity="0.13962501468171878"/>
  <circle cx="605.3230053634596" cy="458.53156047646064" r="3.273118216620821" fill="#CFAE58" opacity="0.2129873783318563"/>
  <circle cx="731.0043869705604" cy="45.54306164533831" r="3.659822887347956" fill="#CFAE58" opacity="0.17165390869659491"/>
  <circle cx="9.545813394172598" cy="209.02656793664715" r="4.85267776328808" fill="#CFAE58" opacity="0.11568827577695953"/>
  <circle cx="213.8777028524978" cy="477.4904398764148" r="5.535906340778157" fill="#CFAE58" opacity="0.12363519725252697"/>
  <circle cx="751.7501471226396" cy="424.7277224218555" r="2.272995527260062" fill="#CFAE58" opacity="0.22478119869065585"/>
  <circle cx="18.990147952003955" cy="594.5900871966961" r="2.8231309675553202" fill="#CFAE58" opacity="0.21913160186177047"/>
  <circle cx="106.38312025443071" cy="416.2095436240948" r="2.003460287417443" fill="#CFAE58" opacity="0.15272133840852536"/>
  <circle cx="215.52736100961596" cy="123.44365866966245" r="2.4249901862415735" fill="#CFAE58" opacity="0.13972595484269254"/>
  <circle cx="359.242212229804" cy="61.21139625282784" r="5.727897515353711" fill="#CFAE58" opacity="0.2110191218926454"/>
  <circle cx="178.5436335860096" cy="516.0783224363812" r="4.179463142294178" fill="#CFAE58" opacity="0.20501933539852107"/>
  <circle cx="703.3442517540362" cy="439.60137760697387" r="4.106461350763234" fill="#CFAE58" opacity="0.13885754575920536"/>
  <circle cx="196.1573019724437" cy="380.4864827745063" r="3.5903720083620687" fill="#CFAE58" opacity="0.17479149407749792"/>
  <circle cx="563.7815070317281" cy="250.18299959524023" r="3.704043598639033" fill="#CFAE58" opacity="0.12153769445638594"/>
  <circle cx="1129.2335591262638" cy="137.14175702785036" r="5.5888267214338985" fill="#CFAE58" opacity="0.10052622838000402"/>
  <circle cx="400.6112606653414" cy="374.07878230847206" r="5.651088783256005" fill="#CFAE58" opacity="0.18206456287128897"/>
  <circle cx="64.62555998437179" cy="14.370628000513168" r="2.287354518626781" fill="#CFAE58" opacity="0.18630464409778885"/>
  <circle cx="179.58175664020058" cy="17.313610817210744" r="2.196530427473709" fill="#CFAE58" opacity="0.14903609772449294"/>
  <circle cx="630.0222657252519" cy="47.84639702686205" r="3.3237108022533217" fill="#CFAE58" opacity="0.2264172237383372"/>
  <circle cx="240.02862289414918" cy="178.54531698760755" r="2.7833849370598323" fill="#CFAE58" opacity="0.17983729151998074"/>
  <circle cx="284.79903114935104" cy="87.41281767583149" r="5.5615024504612744" fill="#CFAE58" opacity="0.16850234338883363"/>
  <circle cx="180.55510903318242" cy="625.6080191317137" r="4.882624329643892" fill="#CFAE58" opacity="0.1750460763258066"/>
  <circle cx="473.2564490029393" cy="191.32494768995642" r="4.28299318873997" fill="#CFAE58" opacity="0.23367595492209464"/>
  <circle cx="1073.5547411573266" cy="322.57909183521116" r="5.330089426032385" fill="#CFAE58" opacity="0.2315322347666894"/>
  <circle cx="305.36991906900346" cy="141.93781452214424" r="5.361045210760687" fill="#CFAE58" opacity="0.2267761864875866"/>
  <circle cx="853.9002977813352" cy="243.4880198045579" r="3.8970511810877113" fill="#CFAE58" opacity="0.24177214352581008"/>
  <circle cx="975.9639281734304" cy="75.83606662825419" r="4.239894035725661" fill="#CFAE58" opacity="0.14832129655327606"/>
  <circle cx="946.4324113669902" cy="274.59167009791486" r="4.997657823686689" fill="#CFAE58" opacity="0.22069985477970266"/>
  <circle cx="300.29170931861654" cy="372.86643565735983" r="5.016785663778751" fill="#CFAE58" opacity="0.11081517223943099"/>

  <!-- Border with glow -->
  <rect x="40" y="40" width="1120" height="550" fill="none" stroke="url(#goldGradient)" stroke-width="3" rx="12" filter="url(#softGlow)"/>

  <!-- Icon circle with premium background -->
  <circle cx="150" cy="200" r="75" fill="#CFAE58" opacity="0.15" filter="url(#softGlow)"/>
  <circle cx="150" cy="200" r="70" fill="#CFAE58" opacity="0.25"/>
  <text x="150" y="235" font-size="90" text-anchor="middle" fill="#CFAE58" filter="url(#glow)">🎣</text>

  <!-- Premium logo (crown) with enhanced styling -->
  <g transform="translate(100, 70)">
    <path d="M 30 20 L 40 35 L 35 35 Z M 50 15 L 60 35 L 45 35 Z M 65 20 L 75 35 L 70 35 Z M 30 35 L 75 35 L 73 45 L 32 45 Z"
          fill="url(#goldGradient)" filter="url(#glow)" stroke="#B89842" stroke-width="0.5"/>
    <circle cx="40" cy="25" r="3" fill="#4FD1C5" filter="url(#glow)"/>
    <circle cx="52" cy="20" r="4" fill="#4FD1C5" filter="url(#glow)"/>
    <circle cx="65" cy="25" r="3" fill="#4FD1C5" filter="url(#glow)"/>
  </g>

  <!-- Title with shadow -->
  <text x="280" y="180" font-family="Georgia, serif" font-size="72" font-weight="bold"
        fill="url(#goldGradient)" filter="url(#shadow)">Hatchery Tours</text>

  <!-- Subtitle with subtle glow -->
  <text x="280" y="230" font-family="Arial, sans-serif" font-size="36"
        fill="#D6DEE6" opacity="0.95" filter="url(#softGlow)">Family Experiences &amp; Caviar Tasting</text>

  <!-- Brand name with letter spacing -->
  <text x="280" y="300" font-family="Georgia, serif" font-size="32" font-weight="bold"
        fill="#CFAE58" letter-spacing="4" filter="url(#glow)">ROYAL KETA</text>

  <!-- Russian tagline -->
  <text x="280" y="340" font-family="Arial, sans-serif" font-size="22" font-style="italic"
        fill="#8B95A1" opacity="0.8">От икринки к королевской</text>

  <!-- Location -->
  <text x="280" y="380" font-family="Arial, sans-serif" font-size="20"
        fill="#8B95A1" opacity="0.7">Невельский район, Сахалин</text>

  <!-- Website with glow -->
  <text x="100" y="570" font-family="Arial, sans-serif" font-size="30" font-weight="bold"
        fill="#4FD1C5" filter="url(#glow)">royalketa.com</text>

  <!-- Enhanced decorative salmon silhouette -->
  <g transform="translate(950, 480)" opacity="0.2" filter="url(#softGlow)">
    <ellipse cx="0" cy="0" rx="90" ry="35" fill="#CFAE58"/>
    <path d="M 90 0 L 120 -18 L 130 0 L 120 18 Z" fill="#CFAE58"/>
    <path d="M -25 -35 L 0 -45 L 25 -35 Z" fill="#CFAE58"/>
    <ellipse cx="-50" cy="0" rx="15" ry="12" fill="#0B0F14"/>
  </g>

  <!-- Additional decorative caviar clusters -->
  <g opacity="0.2">
    <circle cx="1050" cy="120" r="6" fill="#CFAE58"/>
    <circle cx="1065" cy="115" r="5" fill="#CFAE58"/>
    <circle cx="1058" cy="130" r="4" fill="#CFAE58"/>
    <circle cx="150" cy="500" r="5" fill="#4FD1C5"/>
    <circle cx="165" cy="508" r="4" fill="#4FD1C5"/>
    <circle cx="140" cy="512" r="5" fill="#4FD1C5"/>
  </g>
</svg>