<svg width="1200" height="630" xmlns="http://www.w3.org/2000/svg">
  <defs>
    <linearGradient id="bgGradient" x1="0%" y1="0%" x2="100%" y2="100%">
      <stop offset="0%" style="stop-color:#0B0F14;stop-opacity:1" />
      <stop offset="50%" style="stop-color:#0F1619;stop-opacity:1" />
      <stop offset="100%" style="stop-color:#0F1922;stop-opacity:1" />
    </linearGradient>
    <linearGradient id="goldGradient" x1="0%" y1="0%" x2="100%" y2="0%">
      <stop offset="0%" style="stop-color:#E5D596;stop-opacity:1" />
      <stop offset="50%" style="stop-color:#CFAE58;stop-opacity:1" />
      <stop offset="100%" style="stop-color:#B89842;stop-opacity:1" />
    </linearGradient>
    <radialGradient id="oceanGradient" cx="50%" cy="50%" r="50%">
      <stop offset="0%" style="stop-color:#4FD1C5;stop-opacity:0.3" />
      <stop offset="100%" style="stop-color:#1E90A0;stop-opacity:0.05" />
    </radialGradient>
    <filter id="glow">
      <feGaussianBlur stdDeviation="5" result="coloredBlur"/>
      <feMerge>
        <feMergeNode in="coloredBlur"/>
        <feMergeNode in="SourceGraphic"/>
      </feMerge>
    </filter>
    <filter id="softGlow">
      <feGaussianBlur stdDeviation="8" result="coloredBlur"/>
      <feMerge>
        <feMergeNode in="coloredBlur"/>
        <feMergeNode in="SourceGraphic"/>
      </feMerge>
    </filter>
    <filter id="shadow">
      <feDropShadow dx="0" dy="4" stdDeviation="8" flood-color="#000000" flood-opacity="0.5"/>
    </filter>
  </defs>

  <!-- Background -->
  <rect width="1200" height="630" fill="url(#bgGradient)"/>

  <!-- Decorative ocean gradients -->
  <ellipse cx="1000" cy="150" rx="300" ry="200" fill="url(#oceanGradient)" opacity="0.4"/>
  <ellipse cx="200" cy="530" rx="250" ry="180" fill="url(#oceanGradient)" opacity="0.3"/>

  <!-- Wave patterns -->
  <path d="M 0 400 Q 300 350 600 400 T 1200 400 L 1200 630 L 0 630 Z" fill="#1E90A0" opacity="0.08"/>
  <path d="M 0 450 Q 250 420 500 450 T 1000 450 T 1200 450 L 1200 630 L 0 630 Z" fill="#4FD1C5" opacity="0.05"/>

  <!-- Caviar roe particles -->
  <circle cx="11.260751648578005" cy="413.1582444957826" r="3.030610986882346" fill="#CFAE58" opacity="0.20173857144835067"/>
  <circle cx="459.8593076525525" cy="367.1921340037287" r="2.5121120659839473" fill="#CFAE58" opacity="0.18712328308716442"/>
  <circle cx="525.3440022127048" cy="46.09784014923575" r="3.412760363448193" fill="#CFAE58" opacity="0.1668569069446472"/>
  <circle cx="711.71590070079" cy="65.4140136744668" r="4.551832284901265" fill="#CFAE58" opacity="0.21015074268588102"/>
  <circle cx="132.20615643785" cy="403.91638870439397" r="5.699522653253055" fill="#CFAE58" opacity="0.22888283564694917"/>
  <circle cx="1099.5541857398189" cy="348.94113592161665" r="5.21138747571604" fill="#CFAE58" opacity="0.13742925224419134"/>
  <circle cx="567.2861401297112" cy="100.11125223842637" r="3.001710924722806" fill="#CFAE58" opacity="0.22872909365707322"/>
  <circle cx="830.6946038833041" cy="247.93938219711418" r="4.531860574167367" fill="#CFAE58" opacity="0.12936950842835815"/>
  <circle cx="763.210372683216" cy="601.9633062982988" r="4.336326486987508" fill="#CFAE58" opacity="0.16365291572277624"/>
  <circle cx="43.09901301791346" cy="70.21906590858465" r="3.37464821760208" fill="#CFAE58" opacity="0.16127594363970515"/>
  <circle cx="855.1925948437298" cy="399.0277441815372" r="5.257551081815631" fill="#CFAE58" opacity="0.12229518883315303"/>
  <circle cx="418.81351723550847" cy="70.26261874662178" r="2.340050369665443" fill="#CFAE58" opacity="0.15109435383847988"/>
  <circle cx="483.06157327682985" cy="302.0715383718232" r="3.3302866380100378" fill="#CFAE58" opacity="0.24319750415149358"/>
  <circle cx="466.9310704958851" cy="264.04617093707145" r="4.656703775401277" fill="#CFAE58" opacity="0.19303587746420078"/>
  <circle cx="348.30615439853364" cy="152.85629597841054" r="4.362614578392333" fill="#CFAE58" opacity="0.1181643434448373"/>
  <circle cx="418.48294518123674" cy="218.95532913906254" r="4.769059033177376" fill="#CFAE58" opacity="0.2343652078348422"/>
  <circle cx="494.11228727652514" cy="433.51697418874136" r="4.731576665447005" fill="#CFAE58" opacity="0.1879394865317538"/>
  <circle cx="247.3161287728683" cy="582.1306279699211" r="5.135293992049603" fill="#CFAE58" opacity="0.16187329239225862"/>
  <circle cx="632.0006847224942" cy="488.96184445165346" r="5.668138345014015" fill="#CFAE58" opacity="0.10953361216595923"/>
  <circle cx="686.9675740826158" cy="210.1300896094342" r="4.449444463801062" fill="#CFAE58" opacity="0.24327740500370562"/>
  <circle cx="49.611909769317286" cy="624.9355077224565" r="5.056384185328316" fill="#CFAE58" opacity="0.16789730136793746"/>
  <circle cx="358.77499409847206" cy="488.2410458196869" r="5.4482170758074595" fill="#CFAE58" opacity="0.17848724046892797"/>
  <circle cx="742.0145670470495" cy="100.03012487826587" r="3.0591048992231284" fill="#CFAE58" opacity="0.2344093481570509"/>
  <circle cx="122.20784243792373" cy="124.75144701103515" r="5.035098989700811" fill="#CFAE58" opacity="0.19420142138563598"/>
  <circle cx="237.88265899110428" cy="128.3853136660019" r="2.2733087985044023" fill="#CFAE58" opacity="0.1671527208623566"/>
  <circle cx="423.2551897013061" cy="29.150268580058672" r="5.7568963205261445" fill="#CFAE58" opacity="0.13814776651812252"/>
  <circle cx="878.9534629756176" cy="240.03360171363616" r="4.682959768447826" fill="#CFAE58" opacity="0.2035745647015617"/>
  <circle cx="420.6688300586876" cy="252.43666936908102" r="5.094048964158272" fill="#CFAE58" opacity="0.14913860470722692"/>
  <circle cx="700.8753778589912" cy="504.5383784733584" r="2.8397533544285443" fill="#CFAE58" opacity="0.1458088525509168"/>
  <circle cx="520.5059166635941" cy="432.217135516884" r="4.31146112693767" fill="#CFAE58" opacity="0.22045966884037363"/>

  <!-- Border with glow -->
  <rect x="40" y="40" width="1120" height="550" fill="none" stroke="url(#goldGradient)" stroke-width="3" rx="12" filter="url(#softGlow)"/>

  <!-- Icon circle with premium background -->
  <circle cx="150" cy="200" r="75" fill="#CFAE58" opacity="0.15" filter="url(#softGlow)"/>
  <circle cx="150" cy="200" r="70" fill="#CFAE58" opacity="0.25"/>
  <text x="150" y="235" font-size="90" text-anchor="middle" fill="#CFAE58" filter="url(#glow)">🎣</text>

  <!-- Premium logo (crown) with enhanced styling -->
  <g transform="translate(100, 70)">
    <path d="M 30 20 L 40 35 L 35 35 Z M 50 15 L 60 35 L 45 35 Z M 65 20 L 75 35 L 70 35 Z M 30 35 L 75 35 L 73 45 L 32 45 Z"
          fill="url(#goldGradient)" filter="url(#glow)" stroke="#B89842" stroke-width="0.5"/>
    <circle cx="40" cy="25" r="3" fill="#4FD1C5" filter="url(#glow)"/>
    <circle cx="52" cy="20" r="4" fill="#4FD1C5" filter="url(#glow)"/>
    <circle cx="65" cy="25" r="3" fill="#4FD1C5" filter="url(#glow)"/>
  </g>

  <!-- Title with shadow -->
  <text x="280" y="180" font-family="Georgia, serif" font-size="72" font-weight="bold"
        fill="url(#goldGradient)" filter="url(#shadow)">Hatchery Tours</text>

  <!-- Subtitle with subtle glow -->
  <text x="280" y="230" font-family="Arial, sans-serif" font-size="36"
        fill="#D6DEE6" opacity="0.95" filter="url(#softGlow)">Family Experiences &amp; Caviar Tasting</text>

  <!-- Brand name with letter spacing -->
  <text x="280" y="300" font-family="Georgia, serif" font-size="32" font-weight="bold"
        fill="#CFAE58" letter-spacing="4" filter="url(#glow)">ROYAL KETA</text>

  <!-- Russian tagline -->
  <text x="280" y="340" font-family="Arial, sans-serif" font-size="22" font-style="italic"
        fill="#8B95A1" opacity="0.8">От икринки к королевской</text>

  <!-- Location -->
  <text x="280" y="380" font-family="Arial, sans-serif" font-size="20"
        fill="#8B95A1" opacity="0.7">Невельский район, Сахалин</text>

  <!-- Website with glow -->
  <text x="100" y="570" font-family="Arial, sans-serif" font-size="30" font-weight="bold"
        fill="#4FD1C5" filter="url(#glow)">royalketa.com</text>

  <!-- Enhanced decorative salmon silhouette -->
  <g transform="translate(950, 480)" opacity="0.2" filter="url(#softGlow)">
    <ellipse cx="0" cy="0" rx="90" ry="35" fill="#CFAE58"/>
    <path d="M 90 0 L 120 -18 L 130 0 L 120 18 Z" fill="#CFAE58"/>
    <path d="M -25 -35 L 0 -45 L 25 -35 Z" fill="#CFAE58"/>
    <ellipse cx="-50" cy="0" rx="15" ry="12" fill="#0B0F14"/>
  </g>

  <!-- Additional decorative caviar clusters -->
  <g opacity="0.2">
    <circle cx="1050" cy="120" r="6" fill="#CFAE58"/>
    <circle cx="1065" cy="115" r="5" fill="#CFAE58"/>
    <circle cx="1058" cy="130" r="4" fill="#CFAE58"/>
    <circle cx="150" cy="500" r="5" fill="#4FD1C5"/>
    <circle cx="165" cy="508" r="4" fill="#4FD1C5"/>
    <circle cx="140" cy="512" r="5" fill="#4FD1C5"/>
  </g>
</svg>