<svg width="1200" height="630" xmlns="http://www.w3.org/2000/svg">
  <defs>
    <linearGradient id="bgGradient" x1="0%" y1="0%" x2="100%" y2="100%">
      <stop offset="0%" style="stop-color:#0B0F14;stop-opacity:1" />
      <stop offset="50%" style="stop-color:#0F1619;stop-opacity:1" />
      <stop offset="100%" style="stop-color:#0F1922;stop-opacity:1" />
    </linearGradient>
    <linearGradient id="goldGradient" x1="0%" y1="0%" x2="100%" y2="0%">
      <stop offset="0%" style="stop-color:#E5D596;stop-opacity:1" />
      <stop offset="50%" style="stop-color:#CFAE58;stop-opacity:1" />
      <stop offset="100%" style="stop-color:#B89842;stop-opacity:1" />
    </linearGradient>
    <radialGradient id="oceanGradient" cx="50%" cy="50%" r="50%">
      <stop offset="0%" style="stop-color:#4FD1C5;stop-opacity:0.3" />
      <stop offset="100%" style="stop-color:#1E90A0;stop-opacity:0.05" />
    </radialGradient>
    <filter id="glow">
      <feGaussianBlur stdDeviation="5" result="coloredBlur"/>
      <feMerge>
        <feMergeNode in="coloredBlur"/>
        <feMergeNode in="SourceGraphic"/>
      </feMerge>
    </filter>
    <filter id="softGlow">
      <feGaussianBlur stdDeviation="8" result="coloredBlur"/>
      <feMerge>
        <feMergeNode in="coloredBlur"/>
        <feMergeNode in="SourceGraphic"/>
      </feMerge>
    </filter>
    <filter id="shadow">
      <feDropShadow dx="0" dy="4" stdDeviation="8" flood-color="#000000" flood-opacity="0.5"/>
    </filter>
  </defs>

  <!-- Background -->
  <rect width="1200" height="630" fill="url(#bgGradient)"/>

  <!-- Decorative ocean gradients -->
  <ellipse cx="1000" cy="150" rx="300" ry="200" fill="url(#oceanGradient)" opacity="0.4"/>
  <ellipse cx="200" cy="530" rx="250" ry="180" fill="url(#oceanGradient)" opacity="0.3"/>

  <!-- Wave patterns -->
  <path d="M 0 400 Q 300 350 600 400 T 1200 400 L 1200 630 L 0 630 Z" fill="#1E90A0" opacity="0.08"/>
  <path d="M 0 450 Q 250 420 500 450 T 1000 450 T 1200 450 L 1200 630 L 0 630 Z" fill="#4FD1C5" opacity="0.05"/>

  <!-- Caviar roe particles -->
  <circle cx="951.1620915835288" cy="454.64239502309147" r="4.1014394539649865" fill="#CFAE58" opacity="0.1815542765373203"/>
  <circle cx="1009.5024850528978" cy="192.57114348339258" r="4.530906306391088" fill="#CFAE58" opacity="0.10091760033970355"/>
  <circle cx="74.19716310455394" cy="126.50094306161013" r="3.5723726005723773" fill="#CFAE58" opacity="0.20942391620665396"/>
  <circle cx="44.06216239392373" cy="469.56314599453657" r="4.665821129838731" fill="#CFAE58" opacity="0.18121282971354563"/>
  <circle cx="94.64638766588646" cy="162.40601892494612" r="2.4261518987520314" fill="#CFAE58" opacity="0.16062708332320383"/>
  <circle cx="1019.5709677800294" cy="357.2942981384551" r="2.265339062250457" fill="#CFAE58" opacity="0.15620336296828058"/>
  <circle cx="764.7663005886609" cy="110.52527931088665" r="3.1336006061441735" fill="#CFAE58" opacity="0.24375014127167116"/>
  <circle cx="1055.7059330479385" cy="363.77396153808803" r="4.844136604808495" fill="#CFAE58" opacity="0.21053709863524983"/>
  <circle cx="247.26737646890672" cy="519.5853584528735" r="4.062423415691448" fill="#CFAE58" opacity="0.1968764178597125"/>
  <circle cx="916.8645708989422" cy="297.0243805703284" r="2.1780913775917017" fill="#CFAE58" opacity="0.1353294010933462"/>
  <circle cx="29.57241910351072" cy="519.0158275501499" r="3.905721510519542" fill="#CFAE58" opacity="0.21180872473055445"/>
  <circle cx="456.49189703167536" cy="453.93274967613274" r="5.863396730910934" fill="#CFAE58" opacity="0.18644273034501768"/>
  <circle cx="581.1185534542655" cy="198.83356029361892" r="3.6825033437733126" fill="#CFAE58" opacity="0.17159470776106378"/>
  <circle cx="292.15410042731276" cy="212.49581514212525" r="3.5248856723554374" fill="#CFAE58" opacity="0.13597573712432676"/>
  <circle cx="189.7731478625695" cy="423.70517919001975" r="2.4966347731579694" fill="#CFAE58" opacity="0.1702769297232154"/>
  <circle cx="1131.60947783709" cy="386.23193681186984" r="5.909053131390543" fill="#CFAE58" opacity="0.16256472552925308"/>
  <circle cx="437.6929955772375" cy="453.9594977147392" r="5.801602882140573" fill="#CFAE58" opacity="0.18585219712096737"/>
  <circle cx="1106.4689474729755" cy="557.2733648217854" r="3.253421959012246" fill="#CFAE58" opacity="0.22836665055043823"/>
  <circle cx="947.1295367784592" cy="278.8242137984353" r="5.940311564943135" fill="#CFAE58" opacity="0.1099153330705678"/>
  <circle cx="584.8375171457826" cy="311.83851787647916" r="3.6934396886908014" fill="#CFAE58" opacity="0.18983216068179082"/>
  <circle cx="709.2517926356808" cy="238.66035138352606" r="3.9028733046502784" fill="#CFAE58" opacity="0.22407753692977594"/>
  <circle cx="840.6224869414206" cy="26.71278376632045" r="3.538068704074919" fill="#CFAE58" opacity="0.24042849292438592"/>
  <circle cx="222.60069403230722" cy="229.7268495261941" r="3.9305525006170514" fill="#CFAE58" opacity="0.1498586258678444"/>
  <circle cx="860.3164097667043" cy="407.00347032159937" r="2.641193978279903" fill="#CFAE58" opacity="0.16233317670695552"/>
  <circle cx="421.25231327945124" cy="311.6279494490494" r="4.976021574897182" fill="#CFAE58" opacity="0.23117398836421524"/>
  <circle cx="156.81127357415866" cy="442.11178536456447" r="2.5130513645761487" fill="#CFAE58" opacity="0.2052679621280732"/>
  <circle cx="306.3770514715463" cy="360.37649244319016" r="2.1049932643388582" fill="#CFAE58" opacity="0.12011606180664783"/>
  <circle cx="745.032509850584" cy="391.05903558781137" r="2.791109179562667" fill="#CFAE58" opacity="0.2038585504310584"/>
  <circle cx="572.7405990334527" cy="356.0638422727655" r="3.210289314316453" fill="#CFAE58" opacity="0.1531441008261844"/>
  <circle cx="1026.5071108352927" cy="592.4078760144093" r="5.9513210480212075" fill="#CFAE58" opacity="0.2012292795300007"/>

  <!-- Border with glow -->
  <rect x="40" y="40" width="1120" height="550" fill="none" stroke="url(#goldGradient)" stroke-width="3" rx="12" filter="url(#softGlow)"/>

  <!-- Icon circle with premium background -->
  <circle cx="150" cy="200" r="75" fill="#CFAE58" opacity="0.15" filter="url(#softGlow)"/>
  <circle cx="150" cy="200" r="70" fill="#CFAE58" opacity="0.25"/>
  <text x="150" y="235" font-size="90" text-anchor="middle" fill="#CFAE58" filter="url(#glow)">🎣</text>

  <!-- Premium logo (crown) with enhanced styling -->
  <g transform="translate(100, 70)">
    <path d="M 30 20 L 40 35 L 35 35 Z M 50 15 L 60 35 L 45 35 Z M 65 20 L 75 35 L 70 35 Z M 30 35 L 75 35 L 73 45 L 32 45 Z"
          fill="url(#goldGradient)" filter="url(#glow)" stroke="#B89842" stroke-width="0.5"/>
    <circle cx="40" cy="25" r="3" fill="#4FD1C5" filter="url(#glow)"/>
    <circle cx="52" cy="20" r="4" fill="#4FD1C5" filter="url(#glow)"/>
    <circle cx="65" cy="25" r="3" fill="#4FD1C5" filter="url(#glow)"/>
  </g>

  <!-- Title with shadow -->
  <text x="280" y="180" font-family="Georgia, serif" font-size="72" font-weight="bold"
        fill="url(#goldGradient)" filter="url(#shadow)">Hatchery Tours</text>

  <!-- Subtitle with subtle glow -->
  <text x="280" y="230" font-family="Arial, sans-serif" font-size="36"
        fill="#D6DEE6" opacity="0.95" filter="url(#softGlow)">Family Experiences &amp; Caviar Tasting</text>

  <!-- Brand name with letter spacing -->
  <text x="280" y="300" font-family="Georgia, serif" font-size="32" font-weight="bold"
        fill="#CFAE58" letter-spacing="4" filter="url(#glow)">ROYAL KETA</text>

  <!-- Russian tagline -->
  <text x="280" y="340" font-family="Arial, sans-serif" font-size="22" font-style="italic"
        fill="#8B95A1" opacity="0.8">От икринки к королевской</text>

  <!-- Location -->
  <text x="280" y="380" font-family="Arial, sans-serif" font-size="20"
        fill="#8B95A1" opacity="0.7">Невельский район, Сахалин</text>

  <!-- Website with glow -->
  <text x="100" y="570" font-family="Arial, sans-serif" font-size="30" font-weight="bold"
        fill="#4FD1C5" filter="url(#glow)">royalketa.com</text>

  <!-- Enhanced decorative salmon silhouette -->
  <g transform="translate(950, 480)" opacity="0.2" filter="url(#softGlow)">
    <ellipse cx="0" cy="0" rx="90" ry="35" fill="#CFAE58"/>
    <path d="M 90 0 L 120 -18 L 130 0 L 120 18 Z" fill="#CFAE58"/>
    <path d="M -25 -35 L 0 -45 L 25 -35 Z" fill="#CFAE58"/>
    <ellipse cx="-50" cy="0" rx="15" ry="12" fill="#0B0F14"/>
  </g>

  <!-- Additional decorative caviar clusters -->
  <g opacity="0.2">
    <circle cx="1050" cy="120" r="6" fill="#CFAE58"/>
    <circle cx="1065" cy="115" r="5" fill="#CFAE58"/>
    <circle cx="1058" cy="130" r="4" fill="#CFAE58"/>
    <circle cx="150" cy="500" r="5" fill="#4FD1C5"/>
    <circle cx="165" cy="508" r="4" fill="#4FD1C5"/>
    <circle cx="140" cy="512" r="5" fill="#4FD1C5"/>
  </g>
</svg>