<svg width="1200" height="630" xmlns="http://www.w3.org/2000/svg">
  <defs>
    <linearGradient id="bgGradient" x1="0%" y1="0%" x2="100%" y2="100%">
      <stop offset="0%" style="stop-color:#0B0F14;stop-opacity:1" />
      <stop offset="50%" style="stop-color:#0F1619;stop-opacity:1" />
      <stop offset="100%" style="stop-color:#0F1922;stop-opacity:1" />
    </linearGradient>
    <linearGradient id="goldGradient" x1="0%" y1="0%" x2="100%" y2="0%">
      <stop offset="0%" style="stop-color:#E5D596;stop-opacity:1" />
      <stop offset="50%" style="stop-color:#CFAE58;stop-opacity:1" />
      <stop offset="100%" style="stop-color:#B89842;stop-opacity:1" />
    </linearGradient>
    <radialGradient id="oceanGradient" cx="50%" cy="50%" r="50%">
      <stop offset="0%" style="stop-color:#4FD1C5;stop-opacity:0.3" />
      <stop offset="100%" style="stop-color:#1E90A0;stop-opacity:0.05" />
    </radialGradient>
    <filter id="glow">
      <feGaussianBlur stdDeviation="5" result="coloredBlur"/>
      <feMerge>
        <feMergeNode in="coloredBlur"/>
        <feMergeNode in="SourceGraphic"/>
      </feMerge>
    </filter>
    <filter id="softGlow">
      <feGaussianBlur stdDeviation="8" result="coloredBlur"/>
      <feMerge>
        <feMergeNode in="coloredBlur"/>
        <feMergeNode in="SourceGraphic"/>
      </feMerge>
    </filter>
    <filter id="shadow">
      <feDropShadow dx="0" dy="4" stdDeviation="8" flood-color="#000000" flood-opacity="0.5"/>
    </filter>
  </defs>

  <!-- Background -->
  <rect width="1200" height="630" fill="url(#bgGradient)"/>

  <!-- Decorative ocean gradients -->
  <ellipse cx="1000" cy="150" rx="300" ry="200" fill="url(#oceanGradient)" opacity="0.4"/>
  <ellipse cx="200" cy="530" rx="250" ry="180" fill="url(#oceanGradient)" opacity="0.3"/>

  <!-- Wave patterns -->
  <path d="M 0 400 Q 300 350 600 400 T 1200 400 L 1200 630 L 0 630 Z" fill="#1E90A0" opacity="0.08"/>
  <path d="M 0 450 Q 250 420 500 450 T 1000 450 T 1200 450 L 1200 630 L 0 630 Z" fill="#4FD1C5" opacity="0.05"/>

  <!-- Caviar roe particles -->
  <circle cx="742.3537833668087" cy="271.05190076190473" r="4.339886377994186" fill="#CFAE58" opacity="0.14960993560774047"/>
  <circle cx="227.2600567346799" cy="379.6220644116128" r="2.9106052229050765" fill="#CFAE58" opacity="0.22545261016010681"/>
  <circle cx="1117.7972203743218" cy="134.93136768035907" r="5.691142657023473" fill="#CFAE58" opacity="0.19857810941691384"/>
  <circle cx="396.4124772280216" cy="268.9040278282442" r="4.705436983962865" fill="#CFAE58" opacity="0.15620663088384373"/>
  <circle cx="902.6221556289869" cy="595.5595993036306" r="5.05915114521753" fill="#CFAE58" opacity="0.15381196882480583"/>
  <circle cx="747.8171867829456" cy="297.927526935419" r="2.8001860784025197" fill="#CFAE58" opacity="0.17797211663835133"/>
  <circle cx="610.8381564270993" cy="121.81221642810804" r="5.422256663837324" fill="#CFAE58" opacity="0.14752462623067836"/>
  <circle cx="768.2479139270321" cy="520.2024534612623" r="4.075409390653748" fill="#CFAE58" opacity="0.24369453135067445"/>
  <circle cx="523.2791116271444" cy="515.7133274942695" r="4.146599872597786" fill="#CFAE58" opacity="0.14833233430314655"/>
  <circle cx="239.02257636846275" cy="402.299351962429" r="4.390374201343681" fill="#CFAE58" opacity="0.15579199302299507"/>
  <circle cx="416.1430293925214" cy="136.99150073587728" r="2.0301925810269443" fill="#CFAE58" opacity="0.24011375038368588"/>
  <circle cx="609.335723073226" cy="622.0338391764587" r="3.778286958009666" fill="#CFAE58" opacity="0.22079174987744116"/>
  <circle cx="844.8537892673411" cy="93.74786692071872" r="3.6138000291272863" fill="#CFAE58" opacity="0.17693565651655274"/>
  <circle cx="577.3276264818558" cy="313.18467767277457" r="4.907385227215723" fill="#CFAE58" opacity="0.22057530940055042"/>
  <circle cx="76.9434077795991" cy="529.319661420308" r="3.6413763434447346" fill="#CFAE58" opacity="0.2114925265567184"/>
  <circle cx="92.04637086591015" cy="111.90562802599165" r="5.5207070699593235" fill="#CFAE58" opacity="0.21499409734412592"/>
  <circle cx="236.33753181015226" cy="403.06340591360265" r="2.939546908268174" fill="#CFAE58" opacity="0.12951584479634873"/>
  <circle cx="469.5258257892069" cy="124.46708062987842" r="3.3972444829250126" fill="#CFAE58" opacity="0.22543214098055656"/>
  <circle cx="169.41840906237968" cy="335.3425136698264" r="2.8715060272240143" fill="#CFAE58" opacity="0.2309136577604549"/>
  <circle cx="560.1145683802371" cy="213.48985756453266" r="4.196014726930722" fill="#CFAE58" opacity="0.190916161335822"/>
  <circle cx="1025.0468446276361" cy="563.0274458889069" r="3.3758770942976946" fill="#CFAE58" opacity="0.1064151414351627"/>
  <circle cx="470.66591451588823" cy="538.7911813378579" r="2.6517408326114196" fill="#CFAE58" opacity="0.21581718113326098"/>
  <circle cx="387.78272791512904" cy="43.34154381099072" r="3.687527267544957" fill="#CFAE58" opacity="0.13799417447023216"/>
  <circle cx="314.85520898591943" cy="500.40325091147105" r="2.136211158314957" fill="#CFAE58" opacity="0.17797378797172875"/>
  <circle cx="303.77552066917895" cy="385.3154873595536" r="2.8906898002444708" fill="#CFAE58" opacity="0.20219413125738478"/>
  <circle cx="658.6658633808195" cy="468.9936155170108" r="5.333729221100153" fill="#CFAE58" opacity="0.2284175638727855"/>
  <circle cx="1130.7390685850437" cy="312.8143357432072" r="2.3490703561302384" fill="#CFAE58" opacity="0.12212216792693727"/>
  <circle cx="284.2961396212256" cy="211.48758989377833" r="3.8492951971467737" fill="#CFAE58" opacity="0.1917437031324028"/>
  <circle cx="461.4895154141356" cy="453.990643472034" r="5.874754514446151" fill="#CFAE58" opacity="0.2106108835396158"/>
  <circle cx="1048.4110708791077" cy="200.29635467108227" r="4.339958718129879" fill="#CFAE58" opacity="0.201651365999238"/>

  <!-- Border with glow -->
  <rect x="40" y="40" width="1120" height="550" fill="none" stroke="url(#goldGradient)" stroke-width="3" rx="12" filter="url(#softGlow)"/>

  <!-- Icon circle with premium background -->
  <circle cx="150" cy="200" r="75" fill="#CFAE58" opacity="0.15" filter="url(#softGlow)"/>
  <circle cx="150" cy="200" r="70" fill="#CFAE58" opacity="0.25"/>
  <text x="150" y="235" font-size="90" text-anchor="middle" fill="#CFAE58" filter="url(#glow)">🎣</text>

  <!-- Premium logo (crown) with enhanced styling -->
  <g transform="translate(100, 70)">
    <path d="M 30 20 L 40 35 L 35 35 Z M 50 15 L 60 35 L 45 35 Z M 65 20 L 75 35 L 70 35 Z M 30 35 L 75 35 L 73 45 L 32 45 Z"
          fill="url(#goldGradient)" filter="url(#glow)" stroke="#B89842" stroke-width="0.5"/>
    <circle cx="40" cy="25" r="3" fill="#4FD1C5" filter="url(#glow)"/>
    <circle cx="52" cy="20" r="4" fill="#4FD1C5" filter="url(#glow)"/>
    <circle cx="65" cy="25" r="3" fill="#4FD1C5" filter="url(#glow)"/>
  </g>

  <!-- Title with shadow -->
  <text x="280" y="180" font-family="Georgia, serif" font-size="72" font-weight="bold"
        fill="url(#goldGradient)" filter="url(#shadow)">Hatchery Tours</text>

  <!-- Subtitle with subtle glow -->
  <text x="280" y="230" font-family="Arial, sans-serif" font-size="36"
        fill="#D6DEE6" opacity="0.95" filter="url(#softGlow)">Family Experiences &amp; Caviar Tasting</text>

  <!-- Brand name with letter spacing -->
  <text x="280" y="300" font-family="Georgia, serif" font-size="32" font-weight="bold"
        fill="#CFAE58" letter-spacing="4" filter="url(#glow)">ROYAL KETA</text>

  <!-- Russian tagline -->
  <text x="280" y="340" font-family="Arial, sans-serif" font-size="22" font-style="italic"
        fill="#8B95A1" opacity="0.8">От икринки к королевской</text>

  <!-- Location -->
  <text x="280" y="380" font-family="Arial, sans-serif" font-size="20"
        fill="#8B95A1" opacity="0.7">Невельский район, Сахалин</text>

  <!-- Website with glow -->
  <text x="100" y="570" font-family="Arial, sans-serif" font-size="30" font-weight="bold"
        fill="#4FD1C5" filter="url(#glow)">royalketa.com</text>

  <!-- Enhanced decorative salmon silhouette -->
  <g transform="translate(950, 480)" opacity="0.2" filter="url(#softGlow)">
    <ellipse cx="0" cy="0" rx="90" ry="35" fill="#CFAE58"/>
    <path d="M 90 0 L 120 -18 L 130 0 L 120 18 Z" fill="#CFAE58"/>
    <path d="M -25 -35 L 0 -45 L 25 -35 Z" fill="#CFAE58"/>
    <ellipse cx="-50" cy="0" rx="15" ry="12" fill="#0B0F14"/>
  </g>

  <!-- Additional decorative caviar clusters -->
  <g opacity="0.2">
    <circle cx="1050" cy="120" r="6" fill="#CFAE58"/>
    <circle cx="1065" cy="115" r="5" fill="#CFAE58"/>
    <circle cx="1058" cy="130" r="4" fill="#CFAE58"/>
    <circle cx="150" cy="500" r="5" fill="#4FD1C5"/>
    <circle cx="165" cy="508" r="4" fill="#4FD1C5"/>
    <circle cx="140" cy="512" r="5" fill="#4FD1C5"/>
  </g>
</svg>