<svg width="1200" height="630" xmlns="http://www.w3.org/2000/svg">
  <defs>
    <linearGradient id="bgGradient" x1="0%" y1="0%" x2="100%" y2="100%">
      <stop offset="0%" style="stop-color:#0B0F14;stop-opacity:1" />
      <stop offset="50%" style="stop-color:#0F1619;stop-opacity:1" />
      <stop offset="100%" style="stop-color:#0F1922;stop-opacity:1" />
    </linearGradient>
    <linearGradient id="goldGradient" x1="0%" y1="0%" x2="100%" y2="0%">
      <stop offset="0%" style="stop-color:#E5D596;stop-opacity:1" />
      <stop offset="50%" style="stop-color:#CFAE58;stop-opacity:1" />
      <stop offset="100%" style="stop-color:#B89842;stop-opacity:1" />
    </linearGradient>
    <radialGradient id="oceanGradient" cx="50%" cy="50%" r="50%">
      <stop offset="0%" style="stop-color:#4FD1C5;stop-opacity:0.3" />
      <stop offset="100%" style="stop-color:#1E90A0;stop-opacity:0.05" />
    </radialGradient>
    <filter id="glow">
      <feGaussianBlur stdDeviation="5" result="coloredBlur"/>
      <feMerge>
        <feMergeNode in="coloredBlur"/>
        <feMergeNode in="SourceGraphic"/>
      </feMerge>
    </filter>
    <filter id="softGlow">
      <feGaussianBlur stdDeviation="8" result="coloredBlur"/>
      <feMerge>
        <feMergeNode in="coloredBlur"/>
        <feMergeNode in="SourceGraphic"/>
      </feMerge>
    </filter>
    <filter id="shadow">
      <feDropShadow dx="0" dy="4" stdDeviation="8" flood-color="#000000" flood-opacity="0.5"/>
    </filter>
  </defs>

  <!-- Background -->
  <rect width="1200" height="630" fill="url(#bgGradient)"/>

  <!-- Decorative ocean gradients -->
  <ellipse cx="1000" cy="150" rx="300" ry="200" fill="url(#oceanGradient)" opacity="0.4"/>
  <ellipse cx="200" cy="530" rx="250" ry="180" fill="url(#oceanGradient)" opacity="0.3"/>

  <!-- Wave patterns -->
  <path d="M 0 400 Q 300 350 600 400 T 1200 400 L 1200 630 L 0 630 Z" fill="#1E90A0" opacity="0.08"/>
  <path d="M 0 450 Q 250 420 500 450 T 1000 450 T 1200 450 L 1200 630 L 0 630 Z" fill="#4FD1C5" opacity="0.05"/>

  <!-- Caviar roe particles -->
  <circle cx="548.1634224250597" cy="452.0721352669508" r="3.5394433173764632" fill="#CFAE58" opacity="0.13492101905947074"/>
  <circle cx="419.7270873474232" cy="317.0435128314983" r="4.912444776354833" fill="#CFAE58" opacity="0.11578505264517125"/>
  <circle cx="736.5878065665029" cy="448.0220205708401" r="5.608693029461817" fill="#CFAE58" opacity="0.10753806877007532"/>
  <circle cx="925.3458287143565" cy="623.3426869408196" r="4.080386990727316" fill="#CFAE58" opacity="0.13582274801814712"/>
  <circle cx="624.9128207599667" cy="621.6738533536129" r="2.663974917871216" fill="#CFAE58" opacity="0.20721598342723294"/>
  <circle cx="141.95630706899775" cy="14.890570645806154" r="3.456661830639545" fill="#CFAE58" opacity="0.1083936929749288"/>
  <circle cx="524.1762023745301" cy="481.8623196384799" r="4.004898630657332" fill="#CFAE58" opacity="0.14611305686518986"/>
  <circle cx="264.3948502000465" cy="627.9550921441162" r="3.018705141717203" fill="#CFAE58" opacity="0.21586131721141577"/>
  <circle cx="541.8459842475588" cy="443.9835269052429" r="2.1688813217843865" fill="#CFAE58" opacity="0.21419157061723929"/>
  <circle cx="1033.9067574979829" cy="92.1096605658069" r="2.6039509165273973" fill="#CFAE58" opacity="0.22673229916272983"/>
  <circle cx="901.4680259337853" cy="381.3694229239473" r="3.205418153764416" fill="#CFAE58" opacity="0.1150248910166574"/>
  <circle cx="208.72427971672494" cy="102.66844635009976" r="5.364262495998047" fill="#CFAE58" opacity="0.1294983947199248"/>
  <circle cx="1176.9664932707644" cy="94.12184229547671" r="3.369874258565358" fill="#CFAE58" opacity="0.1914736615649209"/>
  <circle cx="669.942036283121" cy="188.77431654704645" r="4.613473126881779" fill="#CFAE58" opacity="0.13868490452542545"/>
  <circle cx="877.7797747504129" cy="38.270098845885734" r="5.521234194899352" fill="#CFAE58" opacity="0.20476399707400572"/>
  <circle cx="993.4964420637607" cy="522.6629085917631" r="2.2544689622676435" fill="#CFAE58" opacity="0.19018347322199236"/>
  <circle cx="1174.9027418101307" cy="128.97784405358894" r="3.3299043696670783" fill="#CFAE58" opacity="0.24854764842473787"/>
  <circle cx="506.6218997620064" cy="506.52957761831567" r="5.733330397234041" fill="#CFAE58" opacity="0.1590433647838243"/>
  <circle cx="797.0922406218214" cy="596.744765827748" r="3.8647662087985575" fill="#CFAE58" opacity="0.21031425400038029"/>
  <circle cx="949.9420175679364" cy="17.199708930027967" r="2.8762039920069107" fill="#CFAE58" opacity="0.2301824607487188"/>
  <circle cx="334.23623523766184" cy="123.6976076558985" r="3.3524428075190498" fill="#CFAE58" opacity="0.17830667878116058"/>
  <circle cx="712.0209601578272" cy="358.1024186916054" r="3.681490149319025" fill="#CFAE58" opacity="0.19428671637693834"/>
  <circle cx="582.2471689008685" cy="241.4033197720935" r="2.2933950664634324" fill="#CFAE58" opacity="0.12792280387188806"/>
  <circle cx="521.8336087819187" cy="439.26299534732226" r="5.246524846027962" fill="#CFAE58" opacity="0.13079648529272814"/>
  <circle cx="722.6039000428373" cy="429.8717379630042" r="5.35058397594342" fill="#CFAE58" opacity="0.21687693146943257"/>
  <circle cx="236.09377925698354" cy="253.02261520799132" r="2.2596222237959207" fill="#CFAE58" opacity="0.16286343538782122"/>
  <circle cx="338.65201989978965" cy="129.3027161403309" r="4.7201389421448345" fill="#CFAE58" opacity="0.12127386472356416"/>
  <circle cx="947.6798417710722" cy="12.680040473570731" r="2.4600347624922687" fill="#CFAE58" opacity="0.17817136551593085"/>
  <circle cx="973.2828630487412" cy="297.79801099779684" r="2.3396795450072077" fill="#CFAE58" opacity="0.16612201531429055"/>
  <circle cx="237.8122820749309" cy="206.43336809580336" r="4.359761220166884" fill="#CFAE58" opacity="0.1135908036376892"/>

  <!-- Border with glow -->
  <rect x="40" y="40" width="1120" height="550" fill="none" stroke="url(#goldGradient)" stroke-width="3" rx="12" filter="url(#softGlow)"/>

  <!-- Icon circle with premium background -->
  <circle cx="150" cy="200" r="75" fill="#CFAE58" opacity="0.15" filter="url(#softGlow)"/>
  <circle cx="150" cy="200" r="70" fill="#CFAE58" opacity="0.25"/>
  <text x="150" y="235" font-size="90" text-anchor="middle" fill="#CFAE58" filter="url(#glow)">🎣</text>

  <!-- Premium logo (crown) with enhanced styling -->
  <g transform="translate(100, 70)">
    <path d="M 30 20 L 40 35 L 35 35 Z M 50 15 L 60 35 L 45 35 Z M 65 20 L 75 35 L 70 35 Z M 30 35 L 75 35 L 73 45 L 32 45 Z"
          fill="url(#goldGradient)" filter="url(#glow)" stroke="#B89842" stroke-width="0.5"/>
    <circle cx="40" cy="25" r="3" fill="#4FD1C5" filter="url(#glow)"/>
    <circle cx="52" cy="20" r="4" fill="#4FD1C5" filter="url(#glow)"/>
    <circle cx="65" cy="25" r="3" fill="#4FD1C5" filter="url(#glow)"/>
  </g>

  <!-- Title with shadow -->
  <text x="280" y="180" font-family="Georgia, serif" font-size="72" font-weight="bold"
        fill="url(#goldGradient)" filter="url(#shadow)">Hatchery Tours</text>

  <!-- Subtitle with subtle glow -->
  <text x="280" y="230" font-family="Arial, sans-serif" font-size="36"
        fill="#D6DEE6" opacity="0.95" filter="url(#softGlow)">Family Experiences & Caviar Tasting</text>

  <!-- Brand name with letter spacing -->
  <text x="280" y="300" font-family="Georgia, serif" font-size="32" font-weight="bold"
        fill="#CFAE58" letter-spacing="4" filter="url(#glow)">ROYAL KETA</text>

  <!-- Russian tagline -->
  <text x="280" y="340" font-family="Arial, sans-serif" font-size="22" font-style="italic"
        fill="#8B95A1" opacity="0.8">От икринки к королевской</text>

  <!-- Location -->
  <text x="280" y="380" font-family="Arial, sans-serif" font-size="20"
        fill="#8B95A1" opacity="0.7">Невельский район, Сахалин</text>

  <!-- Website with glow -->
  <text x="100" y="570" font-family="Arial, sans-serif" font-size="30" font-weight="bold"
        fill="#4FD1C5" filter="url(#glow)">royalketa.com</text>

  <!-- Enhanced decorative salmon silhouette -->
  <g transform="translate(950, 480)" opacity="0.2" filter="url(#softGlow)">
    <ellipse cx="0" cy="0" rx="90" ry="35" fill="#CFAE58"/>
    <path d="M 90 0 L 120 -18 L 130 0 L 120 18 Z" fill="#CFAE58"/>
    <path d="M -25 -35 L 0 -45 L 25 -35 Z" fill="#CFAE58"/>
    <ellipse cx="-50" cy="0" rx="15" ry="12" fill="#0B0F14"/>
  </g>

  <!-- Additional decorative caviar clusters -->
  <g opacity="0.2">
    <circle cx="1050" cy="120" r="6" fill="#CFAE58"/>
    <circle cx="1065" cy="115" r="5" fill="#CFAE58"/>
    <circle cx="1058" cy="130" r="4" fill="#CFAE58"/>
    <circle cx="150" cy="500" r="5" fill="#4FD1C5"/>
    <circle cx="165" cy="508" r="4" fill="#4FD1C5"/>
    <circle cx="140" cy="512" r="5" fill="#4FD1C5"/>
  </g>
</svg>