<svg width="1200" height="630" xmlns="http://www.w3.org/2000/svg">
  <defs>
    <linearGradient id="bgGradient" x1="0%" y1="0%" x2="100%" y2="100%">
      <stop offset="0%" style="stop-color:#0B0F14;stop-opacity:1" />
      <stop offset="50%" style="stop-color:#0F1619;stop-opacity:1" />
      <stop offset="100%" style="stop-color:#0F1922;stop-opacity:1" />
    </linearGradient>
    <linearGradient id="goldGradient" x1="0%" y1="0%" x2="100%" y2="0%">
      <stop offset="0%" style="stop-color:#E5D596;stop-opacity:1" />
      <stop offset="50%" style="stop-color:#CFAE58;stop-opacity:1" />
      <stop offset="100%" style="stop-color:#B89842;stop-opacity:1" />
    </linearGradient>
    <radialGradient id="oceanGradient" cx="50%" cy="50%" r="50%">
      <stop offset="0%" style="stop-color:#4FD1C5;stop-opacity:0.3" />
      <stop offset="100%" style="stop-color:#1E90A0;stop-opacity:0.05" />
    </radialGradient>
    <filter id="glow">
      <feGaussianBlur stdDeviation="5" result="coloredBlur"/>
      <feMerge>
        <feMergeNode in="coloredBlur"/>
        <feMergeNode in="SourceGraphic"/>
      </feMerge>
    </filter>
    <filter id="softGlow">
      <feGaussianBlur stdDeviation="8" result="coloredBlur"/>
      <feMerge>
        <feMergeNode in="coloredBlur"/>
        <feMergeNode in="SourceGraphic"/>
      </feMerge>
    </filter>
    <filter id="shadow">
      <feDropShadow dx="0" dy="4" stdDeviation="8" flood-color="#000000" flood-opacity="0.5"/>
    </filter>
  </defs>

  <!-- Background -->
  <rect width="1200" height="630" fill="url(#bgGradient)"/>

  <!-- Decorative ocean gradients -->
  <ellipse cx="1000" cy="150" rx="300" ry="200" fill="url(#oceanGradient)" opacity="0.4"/>
  <ellipse cx="200" cy="530" rx="250" ry="180" fill="url(#oceanGradient)" opacity="0.3"/>

  <!-- Wave patterns -->
  <path d="M 0 400 Q 300 350 600 400 T 1200 400 L 1200 630 L 0 630 Z" fill="#1E90A0" opacity="0.08"/>
  <path d="M 0 450 Q 250 420 500 450 T 1000 450 T 1200 450 L 1200 630 L 0 630 Z" fill="#4FD1C5" opacity="0.05"/>

  <!-- Caviar roe particles -->
  <circle cx="639.5919495288337" cy="235.65053424318444" r="5.831650798283247" fill="#CFAE58" opacity="0.20415863584957866"/>
  <circle cx="178.84116928917896" cy="491.3789770169251" r="2.3135895535620383" fill="#CFAE58" opacity="0.11703670872334057"/>
  <circle cx="783.6638764229492" cy="341.48595885765917" r="5.732499962760587" fill="#CFAE58" opacity="0.23252214533537446"/>
  <circle cx="126.57324212944702" cy="221.89350261078417" r="2.1122361533696616" fill="#CFAE58" opacity="0.10315968415531881"/>
  <circle cx="81.85616614557519" cy="168.9899311847118" r="2.311617028295045" fill="#CFAE58" opacity="0.23703006644712407"/>
  <circle cx="801.6512370620076" cy="587.5529341136577" r="4.71447272690048" fill="#CFAE58" opacity="0.10370198971307998"/>
  <circle cx="511.1048379256868" cy="190.7806462829157" r="2.275305839383917" fill="#CFAE58" opacity="0.24572267490463498"/>
  <circle cx="330.4907349919079" cy="33.91574894350679" r="4.676026761626712" fill="#CFAE58" opacity="0.1650893411785692"/>
  <circle cx="648.0700929085258" cy="475.51745291268713" r="2.5775525263605776" fill="#CFAE58" opacity="0.1369609449191882"/>
  <circle cx="357.8231824831353" cy="211.29749596518778" r="5.84099050677747" fill="#CFAE58" opacity="0.19356891958110561"/>
  <circle cx="215.317909168825" cy="384.0457277276413" r="5.067739229097894" fill="#CFAE58" opacity="0.21051185536784378"/>
  <circle cx="624.9908910708873" cy="237.94627669485982" r="3.5849435339579436" fill="#CFAE58" opacity="0.10881053881056812"/>
  <circle cx="155.63525594727724" cy="628.6293774920921" r="3.5380018878229667" fill="#CFAE58" opacity="0.14585303948518405"/>
  <circle cx="854.1036990118805" cy="110.41292826546821" r="4.785080985793845" fill="#CFAE58" opacity="0.17249960713181248"/>
  <circle cx="95.96455581021517" cy="495.581777104914" r="4.431989801554231" fill="#CFAE58" opacity="0.1026040912634615"/>
  <circle cx="616.8276944735504" cy="169.31673291964069" r="5.475842522795068" fill="#CFAE58" opacity="0.12393330985556303"/>
  <circle cx="713.0027436003231" cy="301.42509923962587" r="4.183468062177118" fill="#CFAE58" opacity="0.20412761423076908"/>
  <circle cx="969.1738066020084" cy="69.985717976921" r="2.2965015178201025" fill="#CFAE58" opacity="0.11930141177543413"/>
  <circle cx="888.4431448335012" cy="377.7978426413242" r="5.108997290878296" fill="#CFAE58" opacity="0.1324569536443561"/>
  <circle cx="317.44060934299813" cy="24.27933903090937" r="4.679430904086798" fill="#CFAE58" opacity="0.12779688633779643"/>
  <circle cx="442.540863001091" cy="593.7755603692639" r="2.668653260716271" fill="#CFAE58" opacity="0.1270888619393185"/>
  <circle cx="1111.6038198556048" cy="27.578059745645255" r="5.4930602193239" fill="#CFAE58" opacity="0.17160925296242713"/>
  <circle cx="962.3301615690187" cy="605.5034471811127" r="3.5085341256089313" fill="#CFAE58" opacity="0.1559012375240119"/>
  <circle cx="987.9609956511994" cy="442.5758354288795" r="2.0811788517080396" fill="#CFAE58" opacity="0.21237899725192244"/>
  <circle cx="575.5176187949703" cy="75.2097630734278" r="2.5371152277329143" fill="#CFAE58" opacity="0.17892024030719844"/>
  <circle cx="597.9490552318113" cy="199.0944597710061" r="4.587497969977287" fill="#CFAE58" opacity="0.13429323695435824"/>
  <circle cx="1089.3324089132695" cy="628.418668809055" r="5.65598201521797" fill="#CFAE58" opacity="0.11534903137272554"/>
  <circle cx="845.3649443962422" cy="419.1076910763828" r="2.679159740704557" fill="#CFAE58" opacity="0.23010286161590046"/>
  <circle cx="342.8389171338251" cy="128.78365306167197" r="3.506514603489128" fill="#CFAE58" opacity="0.18326576087703628"/>
  <circle cx="1080.986170989847" cy="294.20753555138293" r="5.1377550843316735" fill="#CFAE58" opacity="0.14120713423853978"/>

  <!-- Border with glow -->
  <rect x="40" y="40" width="1120" height="550" fill="none" stroke="url(#goldGradient)" stroke-width="3" rx="12" filter="url(#softGlow)"/>

  <!-- Icon circle with premium background -->
  <circle cx="150" cy="200" r="75" fill="#CFAE58" opacity="0.15" filter="url(#softGlow)"/>
  <circle cx="150" cy="200" r="70" fill="#CFAE58" opacity="0.25"/>
  <text x="150" y="235" font-size="90" text-anchor="middle" fill="#CFAE58" filter="url(#glow)">🎣</text>

  <!-- Premium logo (crown) with enhanced styling -->
  <g transform="translate(100, 70)">
    <path d="M 30 20 L 40 35 L 35 35 Z M 50 15 L 60 35 L 45 35 Z M 65 20 L 75 35 L 70 35 Z M 30 35 L 75 35 L 73 45 L 32 45 Z"
          fill="url(#goldGradient)" filter="url(#glow)" stroke="#B89842" stroke-width="0.5"/>
    <circle cx="40" cy="25" r="3" fill="#4FD1C5" filter="url(#glow)"/>
    <circle cx="52" cy="20" r="4" fill="#4FD1C5" filter="url(#glow)"/>
    <circle cx="65" cy="25" r="3" fill="#4FD1C5" filter="url(#glow)"/>
  </g>

  <!-- Title with shadow -->
  <text x="280" y="180" font-family="Georgia, serif" font-size="72" font-weight="bold"
        fill="url(#goldGradient)" filter="url(#shadow)">Hatchery Tours</text>

  <!-- Subtitle with subtle glow -->
  <text x="280" y="230" font-family="Arial, sans-serif" font-size="36"
        fill="#D6DEE6" opacity="0.95" filter="url(#softGlow)">Family Experiences &amp; Caviar Tasting</text>

  <!-- Brand name with letter spacing -->
  <text x="280" y="300" font-family="Georgia, serif" font-size="32" font-weight="bold"
        fill="#CFAE58" letter-spacing="4" filter="url(#glow)">ROYAL KETA</text>

  <!-- Russian tagline -->
  <text x="280" y="340" font-family="Arial, sans-serif" font-size="22" font-style="italic"
        fill="#8B95A1" opacity="0.8">От икринки к королевской</text>

  <!-- Location -->
  <text x="280" y="380" font-family="Arial, sans-serif" font-size="20"
        fill="#8B95A1" opacity="0.7">Невельский район, Сахалин</text>

  <!-- Website with glow -->
  <text x="100" y="570" font-family="Arial, sans-serif" font-size="30" font-weight="bold"
        fill="#4FD1C5" filter="url(#glow)">royalketa.com</text>

  <!-- Enhanced decorative salmon silhouette -->
  <g transform="translate(950, 480)" opacity="0.2" filter="url(#softGlow)">
    <ellipse cx="0" cy="0" rx="90" ry="35" fill="#CFAE58"/>
    <path d="M 90 0 L 120 -18 L 130 0 L 120 18 Z" fill="#CFAE58"/>
    <path d="M -25 -35 L 0 -45 L 25 -35 Z" fill="#CFAE58"/>
    <ellipse cx="-50" cy="0" rx="15" ry="12" fill="#0B0F14"/>
  </g>

  <!-- Additional decorative caviar clusters -->
  <g opacity="0.2">
    <circle cx="1050" cy="120" r="6" fill="#CFAE58"/>
    <circle cx="1065" cy="115" r="5" fill="#CFAE58"/>
    <circle cx="1058" cy="130" r="4" fill="#CFAE58"/>
    <circle cx="150" cy="500" r="5" fill="#4FD1C5"/>
    <circle cx="165" cy="508" r="4" fill="#4FD1C5"/>
    <circle cx="140" cy="512" r="5" fill="#4FD1C5"/>
  </g>
</svg>