<svg width="1200" height="630" xmlns="http://www.w3.org/2000/svg">
  <defs>
    <linearGradient id="bgGradient" x1="0%" y1="0%" x2="100%" y2="100%">
      <stop offset="0%" style="stop-color:#0B0F14;stop-opacity:1" />
      <stop offset="50%" style="stop-color:#0F1619;stop-opacity:1" />
      <stop offset="100%" style="stop-color:#0F1922;stop-opacity:1" />
    </linearGradient>
    <linearGradient id="goldGradient" x1="0%" y1="0%" x2="100%" y2="0%">
      <stop offset="0%" style="stop-color:#E5D596;stop-opacity:1" />
      <stop offset="50%" style="stop-color:#CFAE58;stop-opacity:1" />
      <stop offset="100%" style="stop-color:#B89842;stop-opacity:1" />
    </linearGradient>
    <radialGradient id="oceanGradient" cx="50%" cy="50%" r="50%">
      <stop offset="0%" style="stop-color:#4FD1C5;stop-opacity:0.3" />
      <stop offset="100%" style="stop-color:#1E90A0;stop-opacity:0.05" />
    </radialGradient>
    <filter id="glow">
      <feGaussianBlur stdDeviation="5" result="coloredBlur"/>
      <feMerge>
        <feMergeNode in="coloredBlur"/>
        <feMergeNode in="SourceGraphic"/>
      </feMerge>
    </filter>
    <filter id="softGlow">
      <feGaussianBlur stdDeviation="8" result="coloredBlur"/>
      <feMerge>
        <feMergeNode in="coloredBlur"/>
        <feMergeNode in="SourceGraphic"/>
      </feMerge>
    </filter>
    <filter id="shadow">
      <feDropShadow dx="0" dy="4" stdDeviation="8" flood-color="#000000" flood-opacity="0.5"/>
    </filter>
  </defs>

  <!-- Background -->
  <rect width="1200" height="630" fill="url(#bgGradient)"/>

  <!-- Decorative ocean gradients -->
  <ellipse cx="1000" cy="150" rx="300" ry="200" fill="url(#oceanGradient)" opacity="0.4"/>
  <ellipse cx="200" cy="530" rx="250" ry="180" fill="url(#oceanGradient)" opacity="0.3"/>

  <!-- Wave patterns -->
  <path d="M 0 400 Q 300 350 600 400 T 1200 400 L 1200 630 L 0 630 Z" fill="#1E90A0" opacity="0.08"/>
  <path d="M 0 450 Q 250 420 500 450 T 1000 450 T 1200 450 L 1200 630 L 0 630 Z" fill="#4FD1C5" opacity="0.05"/>

  <!-- Caviar roe particles -->
  <circle cx="1063.3089848766401" cy="91.49487026783298" r="2.508229686861495" fill="#CFAE58" opacity="0.18566567168554093"/>
  <circle cx="594.4553086860083" cy="243.27544450707154" r="4.983316248088779" fill="#CFAE58" opacity="0.11134550828091101"/>
  <circle cx="628.605717445779" cy="342.5107895870151" r="3.0999304267085925" fill="#CFAE58" opacity="0.2030456850247945"/>
  <circle cx="823.0925952194823" cy="567.8320310575034" r="5.523812131353245" fill="#CFAE58" opacity="0.10138078369534453"/>
  <circle cx="819.4819880991886" cy="558.1832006936572" r="2.5724293750324394" fill="#CFAE58" opacity="0.169837904437187"/>
  <circle cx="813.6780727819223" cy="470.5673587290621" r="2.137970973678036" fill="#CFAE58" opacity="0.14171369565815606"/>
  <circle cx="112.37702525050821" cy="245.12975767820868" r="4.100872490718618" fill="#CFAE58" opacity="0.23265052490513372"/>
  <circle cx="953.0646349887477" cy="533.4630984585823" r="4.808559716044442" fill="#CFAE58" opacity="0.2030697244648288"/>
  <circle cx="479.9654213161735" cy="541.8392185395201" r="4.945241462839583" fill="#CFAE58" opacity="0.1072333172926786"/>
  <circle cx="312.11885662732294" cy="296.9625036563677" r="4.7173297849284275" fill="#CFAE58" opacity="0.16982978524859135"/>
  <circle cx="1022.5134377754875" cy="593.3531018021033" r="2.0743685662415956" fill="#CFAE58" opacity="0.2417565885151724"/>
  <circle cx="1142.9131546948577" cy="487.8777626010949" r="2.7914724485783404" fill="#CFAE58" opacity="0.23781823141101766"/>
  <circle cx="1105.6041521794095" cy="446.07486570651946" r="5.891539885789516" fill="#CFAE58" opacity="0.12949701236358502"/>
  <circle cx="387.40090391801056" cy="75.04533784746333" r="5.481519017447127" fill="#CFAE58" opacity="0.18090472743390984"/>
  <circle cx="165.8133698335953" cy="409.05478573198974" r="3.211353199331085" fill="#CFAE58" opacity="0.21753922946418242"/>
  <circle cx="359.32699984805623" cy="284.08424481824" r="3.4249126407533277" fill="#CFAE58" opacity="0.17924321326821613"/>
  <circle cx="806.8905026739967" cy="164.74751003918422" r="2.430533866156015" fill="#CFAE58" opacity="0.13884777616643443"/>
  <circle cx="583.2641812139688" cy="324.49968905066396" r="3.329171498563926" fill="#CFAE58" opacity="0.14637452842948917"/>
  <circle cx="543.0839072865388" cy="363.77489550907563" r="4.998967826171172" fill="#CFAE58" opacity="0.21187982988626886"/>
  <circle cx="318.9056782545579" cy="79.57265474100429" r="4.220653016600772" fill="#CFAE58" opacity="0.24550415878875403"/>
  <circle cx="80.51353509446236" cy="477.30300066439975" r="4.485737472368906" fill="#CFAE58" opacity="0.19679185718983777"/>
  <circle cx="374.4896593112917" cy="49.13200534777775" r="3.3567004404528973" fill="#CFAE58" opacity="0.13642508650900592"/>
  <circle cx="913.1304738301857" cy="381.4966375414381" r="5.1119340041299886" fill="#CFAE58" opacity="0.16613768057088785"/>
  <circle cx="605.9636898542087" cy="127.86441546554248" r="5.151744594847522" fill="#CFAE58" opacity="0.1832560084059216"/>
  <circle cx="955.5681536814484" cy="203.28036873868035" r="5.361590054618065" fill="#CFAE58" opacity="0.11533275169184809"/>
  <circle cx="689.90412250379" cy="344.92290768215435" r="5.413422475458122" fill="#CFAE58" opacity="0.23954742647151253"/>
  <circle cx="248.11863938136503" cy="542.5022884027061" r="3.0110042843201974" fill="#CFAE58" opacity="0.23572895792682813"/>
  <circle cx="136.3939371136613" cy="257.4652647530705" r="4.015124778161162" fill="#CFAE58" opacity="0.1490904641115744"/>
  <circle cx="183.3525114747343" cy="36.87955148314629" r="5.238602114173776" fill="#CFAE58" opacity="0.23981540532449963"/>
  <circle cx="554.0085330154787" cy="375.1894035470502" r="3.693643335497957" fill="#CFAE58" opacity="0.2163987373965541"/>

  <!-- Border with glow -->
  <rect x="40" y="40" width="1120" height="550" fill="none" stroke="url(#goldGradient)" stroke-width="3" rx="12" filter="url(#softGlow)"/>

  <!-- Icon circle with premium background -->
  <circle cx="150" cy="200" r="75" fill="#CFAE58" opacity="0.15" filter="url(#softGlow)"/>
  <circle cx="150" cy="200" r="70" fill="#CFAE58" opacity="0.25"/>
  <text x="150" y="235" font-size="90" text-anchor="middle" fill="#CFAE58" filter="url(#glow)">🎣</text>

  <!-- Premium logo (crown) with enhanced styling -->
  <g transform="translate(100, 70)">
    <path d="M 30 20 L 40 35 L 35 35 Z M 50 15 L 60 35 L 45 35 Z M 65 20 L 75 35 L 70 35 Z M 30 35 L 75 35 L 73 45 L 32 45 Z"
          fill="url(#goldGradient)" filter="url(#glow)" stroke="#B89842" stroke-width="0.5"/>
    <circle cx="40" cy="25" r="3" fill="#4FD1C5" filter="url(#glow)"/>
    <circle cx="52" cy="20" r="4" fill="#4FD1C5" filter="url(#glow)"/>
    <circle cx="65" cy="25" r="3" fill="#4FD1C5" filter="url(#glow)"/>
  </g>

  <!-- Title with shadow -->
  <text x="280" y="180" font-family="Georgia, serif" font-size="72" font-weight="bold"
        fill="url(#goldGradient)" filter="url(#shadow)">Hatchery Tours</text>

  <!-- Subtitle with subtle glow -->
  <text x="280" y="230" font-family="Arial, sans-serif" font-size="36"
        fill="#D6DEE6" opacity="0.95" filter="url(#softGlow)">Family Experiences &amp; Caviar Tasting</text>

  <!-- Brand name with letter spacing -->
  <text x="280" y="300" font-family="Georgia, serif" font-size="32" font-weight="bold"
        fill="#CFAE58" letter-spacing="4" filter="url(#glow)">ROYAL KETA</text>

  <!-- Russian tagline -->
  <text x="280" y="340" font-family="Arial, sans-serif" font-size="22" font-style="italic"
        fill="#8B95A1" opacity="0.8">От икринки к королевской</text>

  <!-- Location -->
  <text x="280" y="380" font-family="Arial, sans-serif" font-size="20"
        fill="#8B95A1" opacity="0.7">Невельский район, Сахалин</text>

  <!-- Website with glow -->
  <text x="100" y="570" font-family="Arial, sans-serif" font-size="30" font-weight="bold"
        fill="#4FD1C5" filter="url(#glow)">royalketa.com</text>

  <!-- Enhanced decorative salmon silhouette -->
  <g transform="translate(950, 480)" opacity="0.2" filter="url(#softGlow)">
    <ellipse cx="0" cy="0" rx="90" ry="35" fill="#CFAE58"/>
    <path d="M 90 0 L 120 -18 L 130 0 L 120 18 Z" fill="#CFAE58"/>
    <path d="M -25 -35 L 0 -45 L 25 -35 Z" fill="#CFAE58"/>
    <ellipse cx="-50" cy="0" rx="15" ry="12" fill="#0B0F14"/>
  </g>

  <!-- Additional decorative caviar clusters -->
  <g opacity="0.2">
    <circle cx="1050" cy="120" r="6" fill="#CFAE58"/>
    <circle cx="1065" cy="115" r="5" fill="#CFAE58"/>
    <circle cx="1058" cy="130" r="4" fill="#CFAE58"/>
    <circle cx="150" cy="500" r="5" fill="#4FD1C5"/>
    <circle cx="165" cy="508" r="4" fill="#4FD1C5"/>
    <circle cx="140" cy="512" r="5" fill="#4FD1C5"/>
  </g>
</svg>