<svg width="1200" height="630" xmlns="http://www.w3.org/2000/svg">
  <defs>
    <linearGradient id="bgGradient" x1="0%" y1="0%" x2="100%" y2="100%">
      <stop offset="0%" style="stop-color:#0B0F14;stop-opacity:1" />
      <stop offset="50%" style="stop-color:#0F1619;stop-opacity:1" />
      <stop offset="100%" style="stop-color:#0F1922;stop-opacity:1" />
    </linearGradient>
    <linearGradient id="goldGradient" x1="0%" y1="0%" x2="100%" y2="0%">
      <stop offset="0%" style="stop-color:#E5D596;stop-opacity:1" />
      <stop offset="50%" style="stop-color:#CFAE58;stop-opacity:1" />
      <stop offset="100%" style="stop-color:#B89842;stop-opacity:1" />
    </linearGradient>
    <radialGradient id="oceanGradient" cx="50%" cy="50%" r="50%">
      <stop offset="0%" style="stop-color:#4FD1C5;stop-opacity:0.3" />
      <stop offset="100%" style="stop-color:#1E90A0;stop-opacity:0.05" />
    </radialGradient>
    <filter id="glow">
      <feGaussianBlur stdDeviation="5" result="coloredBlur"/>
      <feMerge>
        <feMergeNode in="coloredBlur"/>
        <feMergeNode in="SourceGraphic"/>
      </feMerge>
    </filter>
    <filter id="softGlow">
      <feGaussianBlur stdDeviation="8" result="coloredBlur"/>
      <feMerge>
        <feMergeNode in="coloredBlur"/>
        <feMergeNode in="SourceGraphic"/>
      </feMerge>
    </filter>
    <filter id="shadow">
      <feDropShadow dx="0" dy="4" stdDeviation="8" flood-color="#000000" flood-opacity="0.5"/>
    </filter>
  </defs>

  <!-- Background -->
  <rect width="1200" height="630" fill="url(#bgGradient)"/>

  <!-- Decorative ocean gradients -->
  <ellipse cx="1000" cy="150" rx="300" ry="200" fill="url(#oceanGradient)" opacity="0.4"/>
  <ellipse cx="200" cy="530" rx="250" ry="180" fill="url(#oceanGradient)" opacity="0.3"/>

  <!-- Wave patterns -->
  <path d="M 0 400 Q 300 350 600 400 T 1200 400 L 1200 630 L 0 630 Z" fill="#1E90A0" opacity="0.08"/>
  <path d="M 0 450 Q 250 420 500 450 T 1000 450 T 1200 450 L 1200 630 L 0 630 Z" fill="#4FD1C5" opacity="0.05"/>

  <!-- Caviar roe particles -->
  <circle cx="984.6597157612039" cy="500.9971155582687" r="2.912479467675335" fill="#CFAE58" opacity="0.24690832574576566"/>
  <circle cx="210.36871760075408" cy="621.283466075878" r="4.011233002280714" fill="#CFAE58" opacity="0.12757204164021027"/>
  <circle cx="645.495286228887" cy="542.4471944436807" r="5.349324948180401" fill="#CFAE58" opacity="0.15814298529041806"/>
  <circle cx="998.7804474950655" cy="95.73237375847484" r="5.5399632779488055" fill="#CFAE58" opacity="0.1810540373138454"/>
  <circle cx="247.73331061537885" cy="421.31982130021476" r="3.1275791372205184" fill="#CFAE58" opacity="0.15959186302584144"/>
  <circle cx="224.38173419903737" cy="490.37225453708083" r="3.768495369137904" fill="#CFAE58" opacity="0.1866966154614068"/>
  <circle cx="246.80583542159633" cy="326.11305691954055" r="3.262018622643839" fill="#CFAE58" opacity="0.22929204168541123"/>
  <circle cx="589.4047657874994" cy="392.53674793289" r="3.5168163835725643" fill="#CFAE58" opacity="0.1957621640052088"/>
  <circle cx="485.91150967546247" cy="71.74043252269028" r="3.630321537791178" fill="#CFAE58" opacity="0.20211847167644717"/>
  <circle cx="251.36732370469286" cy="441.0539651445262" r="3.8596315115910667" fill="#CFAE58" opacity="0.1609190041987179"/>
  <circle cx="826.7777863368522" cy="528.8047604098074" r="4.012259912275851" fill="#CFAE58" opacity="0.20295703962600595"/>
  <circle cx="231.73801195008164" cy="471.799234422488" r="4.519230454954236" fill="#CFAE58" opacity="0.12801798330835198"/>
  <circle cx="633.7708051510842" cy="439.6207922294523" r="3.404116355428303" fill="#CFAE58" opacity="0.13912062042367032"/>
  <circle cx="113.37390125560827" cy="122.7692548516135" r="5.541910550339527" fill="#CFAE58" opacity="0.1524354256356877"/>
  <circle cx="754.9163968515297" cy="21.549195327633953" r="3.65204751577655" fill="#CFAE58" opacity="0.21126239052518458"/>
  <circle cx="6.780457402648743" cy="193.11592314157312" r="5.006184368276443" fill="#CFAE58" opacity="0.15466291592514492"/>
  <circle cx="851.0499227584296" cy="555.9545329311685" r="5.043705267220144" fill="#CFAE58" opacity="0.20865958815033742"/>
  <circle cx="513.0937226843549" cy="294.94011798811" r="5.199701708591577" fill="#CFAE58" opacity="0.1819077287450446"/>
  <circle cx="600.7328217037709" cy="362.63621923608304" r="5.265478498411252" fill="#CFAE58" opacity="0.18008263933292695"/>
  <circle cx="170.3071810394892" cy="191.99637515649934" r="3.280598274694581" fill="#CFAE58" opacity="0.1817618592979039"/>
  <circle cx="1156.390453577786" cy="227.62531303084745" r="4.303742039456242" fill="#CFAE58" opacity="0.12048812382672085"/>
  <circle cx="640.6822047191758" cy="108.78169308093592" r="4.949758574958168" fill="#CFAE58" opacity="0.14967913806041816"/>
  <circle cx="261.1166773610824" cy="263.1812266711305" r="2.257321501515478" fill="#CFAE58" opacity="0.10971148159003735"/>
  <circle cx="569.9840747670531" cy="547.7242471979705" r="3.421403404220422" fill="#CFAE58" opacity="0.15507635205886422"/>
  <circle cx="729.171554298252" cy="409.5902856048706" r="5.335142091988898" fill="#CFAE58" opacity="0.22262232841627272"/>
  <circle cx="738.0078218529621" cy="75.59109008731703" r="2.577908350578787" fill="#CFAE58" opacity="0.17373859786273188"/>
  <circle cx="1060.60849171454" cy="569.7172803367241" r="2.021620282208156" fill="#CFAE58" opacity="0.14218729667682706"/>
  <circle cx="720.3470523618107" cy="144.1755715615214" r="4.491054170447387" fill="#CFAE58" opacity="0.16924099017571037"/>
  <circle cx="409.3911756200108" cy="47.32131644880865" r="3.8636947631188514" fill="#CFAE58" opacity="0.18990614393614802"/>
  <circle cx="801.5611079269504" cy="386.56002517906035" r="5.862220646387172" fill="#CFAE58" opacity="0.21867812206234738"/>

  <!-- Border with glow -->
  <rect x="40" y="40" width="1120" height="550" fill="none" stroke="url(#goldGradient)" stroke-width="3" rx="12" filter="url(#softGlow)"/>

  <!-- Icon circle with premium background -->
  <circle cx="150" cy="200" r="75" fill="#CFAE58" opacity="0.15" filter="url(#softGlow)"/>
  <circle cx="150" cy="200" r="70" fill="#CFAE58" opacity="0.25"/>
  <text x="150" y="235" font-size="90" text-anchor="middle" fill="#CFAE58" filter="url(#glow)">🎣</text>

  <!-- Premium logo (crown) with enhanced styling -->
  <g transform="translate(100, 70)">
    <path d="M 30 20 L 40 35 L 35 35 Z M 50 15 L 60 35 L 45 35 Z M 65 20 L 75 35 L 70 35 Z M 30 35 L 75 35 L 73 45 L 32 45 Z"
          fill="url(#goldGradient)" filter="url(#glow)" stroke="#B89842" stroke-width="0.5"/>
    <circle cx="40" cy="25" r="3" fill="#4FD1C5" filter="url(#glow)"/>
    <circle cx="52" cy="20" r="4" fill="#4FD1C5" filter="url(#glow)"/>
    <circle cx="65" cy="25" r="3" fill="#4FD1C5" filter="url(#glow)"/>
  </g>

  <!-- Title with shadow -->
  <text x="280" y="180" font-family="Georgia, serif" font-size="72" font-weight="bold"
        fill="url(#goldGradient)" filter="url(#shadow)">Hatchery Tours</text>

  <!-- Subtitle with subtle glow -->
  <text x="280" y="230" font-family="Arial, sans-serif" font-size="36"
        fill="#D6DEE6" opacity="0.95" filter="url(#softGlow)">Family Experiences & Caviar Tasting</text>

  <!-- Brand name with letter spacing -->
  <text x="280" y="300" font-family="Georgia, serif" font-size="32" font-weight="bold"
        fill="#CFAE58" letter-spacing="4" filter="url(#glow)">ROYAL KETA</text>

  <!-- Russian tagline -->
  <text x="280" y="340" font-family="Arial, sans-serif" font-size="22" font-style="italic"
        fill="#8B95A1" opacity="0.8">От икринки к королевской</text>

  <!-- Location -->
  <text x="280" y="380" font-family="Arial, sans-serif" font-size="20"
        fill="#8B95A1" opacity="0.7">Невельский район, Сахалин</text>

  <!-- Website with glow -->
  <text x="100" y="570" font-family="Arial, sans-serif" font-size="30" font-weight="bold"
        fill="#4FD1C5" filter="url(#glow)">royalketa.com</text>

  <!-- Enhanced decorative salmon silhouette -->
  <g transform="translate(950, 480)" opacity="0.2" filter="url(#softGlow)">
    <ellipse cx="0" cy="0" rx="90" ry="35" fill="#CFAE58"/>
    <path d="M 90 0 L 120 -18 L 130 0 L 120 18 Z" fill="#CFAE58"/>
    <path d="M -25 -35 L 0 -45 L 25 -35 Z" fill="#CFAE58"/>
    <ellipse cx="-50" cy="0" rx="15" ry="12" fill="#0B0F14"/>
  </g>

  <!-- Additional decorative caviar clusters -->
  <g opacity="0.2">
    <circle cx="1050" cy="120" r="6" fill="#CFAE58"/>
    <circle cx="1065" cy="115" r="5" fill="#CFAE58"/>
    <circle cx="1058" cy="130" r="4" fill="#CFAE58"/>
    <circle cx="150" cy="500" r="5" fill="#4FD1C5"/>
    <circle cx="165" cy="508" r="4" fill="#4FD1C5"/>
    <circle cx="140" cy="512" r="5" fill="#4FD1C5"/>
  </g>
</svg>