<svg width="1200" height="630" xmlns="http://www.w3.org/2000/svg">
  <defs>
    <linearGradient id="bgGradient" x1="0%" y1="0%" x2="100%" y2="100%">
      <stop offset="0%" style="stop-color:#0B0F14;stop-opacity:1" />
      <stop offset="50%" style="stop-color:#0F1619;stop-opacity:1" />
      <stop offset="100%" style="stop-color:#0F1922;stop-opacity:1" />
    </linearGradient>
    <linearGradient id="goldGradient" x1="0%" y1="0%" x2="100%" y2="0%">
      <stop offset="0%" style="stop-color:#E5D596;stop-opacity:1" />
      <stop offset="50%" style="stop-color:#CFAE58;stop-opacity:1" />
      <stop offset="100%" style="stop-color:#B89842;stop-opacity:1" />
    </linearGradient>
    <radialGradient id="oceanGradient" cx="50%" cy="50%" r="50%">
      <stop offset="0%" style="stop-color:#4FD1C5;stop-opacity:0.3" />
      <stop offset="100%" style="stop-color:#1E90A0;stop-opacity:0.05" />
    </radialGradient>
    <filter id="glow">
      <feGaussianBlur stdDeviation="5" result="coloredBlur"/>
      <feMerge>
        <feMergeNode in="coloredBlur"/>
        <feMergeNode in="SourceGraphic"/>
      </feMerge>
    </filter>
    <filter id="softGlow">
      <feGaussianBlur stdDeviation="8" result="coloredBlur"/>
      <feMerge>
        <feMergeNode in="coloredBlur"/>
        <feMergeNode in="SourceGraphic"/>
      </feMerge>
    </filter>
    <filter id="shadow">
      <feDropShadow dx="0" dy="4" stdDeviation="8" flood-color="#000000" flood-opacity="0.5"/>
    </filter>
  </defs>

  <!-- Background -->
  <rect width="1200" height="630" fill="url(#bgGradient)"/>

  <!-- Decorative ocean gradients -->
  <ellipse cx="1000" cy="150" rx="300" ry="200" fill="url(#oceanGradient)" opacity="0.4"/>
  <ellipse cx="200" cy="530" rx="250" ry="180" fill="url(#oceanGradient)" opacity="0.3"/>

  <!-- Wave patterns -->
  <path d="M 0 400 Q 300 350 600 400 T 1200 400 L 1200 630 L 0 630 Z" fill="#1E90A0" opacity="0.08"/>
  <path d="M 0 450 Q 250 420 500 450 T 1000 450 T 1200 450 L 1200 630 L 0 630 Z" fill="#4FD1C5" opacity="0.05"/>

  <!-- Caviar roe particles -->
  <circle cx="728.1504812855426" cy="17.998651312178733" r="4.523656959683619" fill="#CFAE58" opacity="0.148816560966552"/>
  <circle cx="921.3906114533117" cy="421.02115269929845" r="2.7924367733334425" fill="#CFAE58" opacity="0.17228200829111756"/>
  <circle cx="1170.815206528084" cy="411.576819233557" r="3.5153390132113893" fill="#CFAE58" opacity="0.17360326161229248"/>
  <circle cx="186.46291194403216" cy="90.04843497959564" r="2.0582613962069773" fill="#CFAE58" opacity="0.21403500850085275"/>
  <circle cx="951.941162082012" cy="340.8625629499826" r="4.787708736948904" fill="#CFAE58" opacity="0.16801129521146066"/>
  <circle cx="363.2335486027041" cy="87.36381486539172" r="2.9968816362212736" fill="#CFAE58" opacity="0.24689879242630125"/>
  <circle cx="837.310190415414" cy="451.5076051459726" r="2.3759680350182153" fill="#CFAE58" opacity="0.2184683334090501"/>
  <circle cx="354.8889541536898" cy="159.9618952255651" r="3.4615418151684403" fill="#CFAE58" opacity="0.1996475287665867"/>
  <circle cx="425.55780558634086" cy="511.03898479045836" r="4.319123746921083" fill="#CFAE58" opacity="0.14422170636754741"/>
  <circle cx="347.72824043181936" cy="379.7939433418052" r="3.4154889787139684" fill="#CFAE58" opacity="0.14649851729133226"/>
  <circle cx="739.060239717292" cy="386.8353207441964" r="3.6256162683721755" fill="#CFAE58" opacity="0.15163877623440764"/>
  <circle cx="623.020463861214" cy="61.59401617023228" r="2.1809366168042525" fill="#CFAE58" opacity="0.1682453465826098"/>
  <circle cx="860.6906580427642" cy="249.40173510762912" r="2.8075117495254287" fill="#CFAE58" opacity="0.12631069082303026"/>
  <circle cx="903.5782632645903" cy="517.6491491530828" r="4.032601625759969" fill="#CFAE58" opacity="0.20242460359677705"/>
  <circle cx="493.9384848907428" cy="271.6460035094281" r="2.9102569771644125" fill="#CFAE58" opacity="0.18013635628654173"/>
  <circle cx="534.3954208415521" cy="335.77568439006643" r="3.5191410096142954" fill="#CFAE58" opacity="0.15807237399264742"/>
  <circle cx="431.1723734450674" cy="160.90688098159708" r="2.6493841169152423" fill="#CFAE58" opacity="0.12476326692965546"/>
  <circle cx="229.3507861696816" cy="345.0118709411858" r="5.978710775256772" fill="#CFAE58" opacity="0.15447724189749773"/>
  <circle cx="427.6647456891481" cy="569.9822912906825" r="3.0202436408391478" fill="#CFAE58" opacity="0.11281966626765479"/>
  <circle cx="79.08457766553964" cy="487.3603106026625" r="4.8296405743927995" fill="#CFAE58" opacity="0.24565601131374912"/>
  <circle cx="4.677958848222552" cy="329.8370839524583" r="5.955052606585122" fill="#CFAE58" opacity="0.1998883751253197"/>
  <circle cx="110.61776932204705" cy="567.9821186506109" r="4.531102807554191" fill="#CFAE58" opacity="0.20356942359004893"/>
  <circle cx="1031.9100095564727" cy="552.4027795713719" r="2.9639825856000517" fill="#CFAE58" opacity="0.16397540016873355"/>
  <circle cx="588.946320058711" cy="196.92728982796396" r="4.282602667278223" fill="#CFAE58" opacity="0.11014513060888631"/>
  <circle cx="573.3328303530631" cy="58.43881567741845" r="3.9670505823204913" fill="#CFAE58" opacity="0.1156238932820568"/>
  <circle cx="414.12223526569767" cy="91.21783919969629" r="3.9865579650184513" fill="#CFAE58" opacity="0.21552566805194034"/>
  <circle cx="1093.6463821341476" cy="147.03261121416242" r="3.2559855032228873" fill="#CFAE58" opacity="0.20330456240866618"/>
  <circle cx="387.82177412690476" cy="218.39196067681323" r="2.883049105305627" fill="#CFAE58" opacity="0.1164097276680266"/>
  <circle cx="168.58492314177192" cy="197.5614636965456" r="3.478531444575744" fill="#CFAE58" opacity="0.2094032055921565"/>
  <circle cx="857.9893576666594" cy="66.76840730515245" r="3.204474868707602" fill="#CFAE58" opacity="0.12280779673181927"/>

  <!-- Border with glow -->
  <rect x="40" y="40" width="1120" height="550" fill="none" stroke="url(#goldGradient)" stroke-width="3" rx="12" filter="url(#softGlow)"/>

  <!-- Icon circle with premium background -->
  <circle cx="150" cy="200" r="75" fill="#CFAE58" opacity="0.15" filter="url(#softGlow)"/>
  <circle cx="150" cy="200" r="70" fill="#CFAE58" opacity="0.25"/>
  <text x="150" y="235" font-size="90" text-anchor="middle" fill="#CFAE58" filter="url(#glow)">🎣</text>

  <!-- Premium logo (crown) with enhanced styling -->
  <g transform="translate(100, 70)">
    <path d="M 30 20 L 40 35 L 35 35 Z M 50 15 L 60 35 L 45 35 Z M 65 20 L 75 35 L 70 35 Z M 30 35 L 75 35 L 73 45 L 32 45 Z"
          fill="url(#goldGradient)" filter="url(#glow)" stroke="#B89842" stroke-width="0.5"/>
    <circle cx="40" cy="25" r="3" fill="#4FD1C5" filter="url(#glow)"/>
    <circle cx="52" cy="20" r="4" fill="#4FD1C5" filter="url(#glow)"/>
    <circle cx="65" cy="25" r="3" fill="#4FD1C5" filter="url(#glow)"/>
  </g>

  <!-- Title with shadow -->
  <text x="280" y="180" font-family="Georgia, serif" font-size="72" font-weight="bold"
        fill="url(#goldGradient)" filter="url(#shadow)">Hatchery Tours</text>

  <!-- Subtitle with subtle glow -->
  <text x="280" y="230" font-family="Arial, sans-serif" font-size="36"
        fill="#D6DEE6" opacity="0.95" filter="url(#softGlow)">Family Experiences &amp; Caviar Tasting</text>

  <!-- Brand name with letter spacing -->
  <text x="280" y="300" font-family="Georgia, serif" font-size="32" font-weight="bold"
        fill="#CFAE58" letter-spacing="4" filter="url(#glow)">ROYAL KETA</text>

  <!-- Russian tagline -->
  <text x="280" y="340" font-family="Arial, sans-serif" font-size="22" font-style="italic"
        fill="#8B95A1" opacity="0.8">От икринки к королевской</text>

  <!-- Location -->
  <text x="280" y="380" font-family="Arial, sans-serif" font-size="20"
        fill="#8B95A1" opacity="0.7">Невельский район, Сахалин</text>

  <!-- Website with glow -->
  <text x="100" y="570" font-family="Arial, sans-serif" font-size="30" font-weight="bold"
        fill="#4FD1C5" filter="url(#glow)">royalketa.com</text>

  <!-- Enhanced decorative salmon silhouette -->
  <g transform="translate(950, 480)" opacity="0.2" filter="url(#softGlow)">
    <ellipse cx="0" cy="0" rx="90" ry="35" fill="#CFAE58"/>
    <path d="M 90 0 L 120 -18 L 130 0 L 120 18 Z" fill="#CFAE58"/>
    <path d="M -25 -35 L 0 -45 L 25 -35 Z" fill="#CFAE58"/>
    <ellipse cx="-50" cy="0" rx="15" ry="12" fill="#0B0F14"/>
  </g>

  <!-- Additional decorative caviar clusters -->
  <g opacity="0.2">
    <circle cx="1050" cy="120" r="6" fill="#CFAE58"/>
    <circle cx="1065" cy="115" r="5" fill="#CFAE58"/>
    <circle cx="1058" cy="130" r="4" fill="#CFAE58"/>
    <circle cx="150" cy="500" r="5" fill="#4FD1C5"/>
    <circle cx="165" cy="508" r="4" fill="#4FD1C5"/>
    <circle cx="140" cy="512" r="5" fill="#4FD1C5"/>
  </g>
</svg>