<svg width="1200" height="630" xmlns="http://www.w3.org/2000/svg">
  <defs>
    <linearGradient id="bgGradient" x1="0%" y1="0%" x2="100%" y2="100%">
      <stop offset="0%" style="stop-color:#0B0F14;stop-opacity:1" />
      <stop offset="50%" style="stop-color:#0F1619;stop-opacity:1" />
      <stop offset="100%" style="stop-color:#0F1922;stop-opacity:1" />
    </linearGradient>
    <linearGradient id="goldGradient" x1="0%" y1="0%" x2="100%" y2="0%">
      <stop offset="0%" style="stop-color:#E5D596;stop-opacity:1" />
      <stop offset="50%" style="stop-color:#CFAE58;stop-opacity:1" />
      <stop offset="100%" style="stop-color:#B89842;stop-opacity:1" />
    </linearGradient>
    <radialGradient id="oceanGradient" cx="50%" cy="50%" r="50%">
      <stop offset="0%" style="stop-color:#4FD1C5;stop-opacity:0.3" />
      <stop offset="100%" style="stop-color:#1E90A0;stop-opacity:0.05" />
    </radialGradient>
    <filter id="glow">
      <feGaussianBlur stdDeviation="5" result="coloredBlur"/>
      <feMerge>
        <feMergeNode in="coloredBlur"/>
        <feMergeNode in="SourceGraphic"/>
      </feMerge>
    </filter>
    <filter id="softGlow">
      <feGaussianBlur stdDeviation="8" result="coloredBlur"/>
      <feMerge>
        <feMergeNode in="coloredBlur"/>
        <feMergeNode in="SourceGraphic"/>
      </feMerge>
    </filter>
    <filter id="shadow">
      <feDropShadow dx="0" dy="4" stdDeviation="8" flood-color="#000000" flood-opacity="0.5"/>
    </filter>
  </defs>

  <!-- Background -->
  <rect width="1200" height="630" fill="url(#bgGradient)"/>

  <!-- Decorative ocean gradients -->
  <ellipse cx="1000" cy="150" rx="300" ry="200" fill="url(#oceanGradient)" opacity="0.4"/>
  <ellipse cx="200" cy="530" rx="250" ry="180" fill="url(#oceanGradient)" opacity="0.3"/>

  <!-- Wave patterns -->
  <path d="M 0 400 Q 300 350 600 400 T 1200 400 L 1200 630 L 0 630 Z" fill="#1E90A0" opacity="0.08"/>
  <path d="M 0 450 Q 250 420 500 450 T 1000 450 T 1200 450 L 1200 630 L 0 630 Z" fill="#4FD1C5" opacity="0.05"/>

  <!-- Caviar roe particles -->
  <circle cx="1081.6437449498592" cy="92.68251311579542" r="5.954097387198589" fill="#CFAE58" opacity="0.15726546150039983"/>
  <circle cx="753.9345125032798" cy="167.9856846052957" r="5.527847300022277" fill="#CFAE58" opacity="0.13438972154866854"/>
  <circle cx="1077.5770358450159" cy="476.9469137633413" r="4.578193428326139" fill="#CFAE58" opacity="0.24599858433188757"/>
  <circle cx="940.4570932752382" cy="252.7028887818494" r="2.5630395599181255" fill="#CFAE58" opacity="0.2119296012654734"/>
  <circle cx="115.18900596245416" cy="111.99087140767722" r="2.543537184322893" fill="#CFAE58" opacity="0.2345428750037505"/>
  <circle cx="928.6098010675607" cy="393.62245724145123" r="4.472353353775478" fill="#CFAE58" opacity="0.2110781383950211"/>
  <circle cx="1145.3125253244248" cy="512.2751878276124" r="3.928919492402547" fill="#CFAE58" opacity="0.15420415344507796"/>
  <circle cx="295.24384944769406" cy="75.75324736911973" r="5.7713560190311295" fill="#CFAE58" opacity="0.24239057502164688"/>
  <circle cx="1172.6358848428629" cy="528.0368340724162" r="5.926289960632503" fill="#CFAE58" opacity="0.23322560441620654"/>
  <circle cx="274.4144633131634" cy="165.08668432686505" r="2.7470065770998247" fill="#CFAE58" opacity="0.20874767601000277"/>
  <circle cx="60.58668199764159" cy="462.71227875261053" r="3.1492652770017613" fill="#CFAE58" opacity="0.10460286640968038"/>
  <circle cx="269.7271539977903" cy="127.08247713117365" r="3.719742484807146" fill="#CFAE58" opacity="0.2176142498644778"/>
  <circle cx="556.0620993594496" cy="214.8389809411415" r="4.5561091946113255" fill="#CFAE58" opacity="0.18227271088625768"/>
  <circle cx="135.4102420324207" cy="15.4672707337339" r="5.590344904717821" fill="#CFAE58" opacity="0.1610839404920422"/>
  <circle cx="1016.7393682875055" cy="336.7050526030584" r="5.377838388265898" fill="#CFAE58" opacity="0.22576907619497336"/>
  <circle cx="428.3009055067376" cy="215.8979126347466" r="5.723217909552453" fill="#CFAE58" opacity="0.18239075914715475"/>
  <circle cx="976.294569618706" cy="416.507059947097" r="2.448397826019937" fill="#CFAE58" opacity="0.18033577626956143"/>
  <circle cx="401.35155928191836" cy="468.6380664614834" r="4.192067339519962" fill="#CFAE58" opacity="0.1040910519339114"/>
  <circle cx="899.8046740008745" cy="377.81158818749583" r="2.785824336531392" fill="#CFAE58" opacity="0.1503193138754172"/>
  <circle cx="672.561108031787" cy="129.57014158826073" r="3.5356649636837676" fill="#CFAE58" opacity="0.2464982809203239"/>
  <circle cx="869.6431348742524" cy="38.182930596818395" r="4.153165459231321" fill="#CFAE58" opacity="0.19631464124057518"/>
  <circle cx="1117.9828780757525" cy="56.39213043517371" r="3.92487931877048" fill="#CFAE58" opacity="0.24644703112114824"/>
  <circle cx="3.2705082127887586" cy="78.75366865625642" r="2.239043325175337" fill="#CFAE58" opacity="0.11459157855728337"/>
  <circle cx="342.1177443162778" cy="182.20821668533554" r="5.087135209512054" fill="#CFAE58" opacity="0.2451172078168121"/>
  <circle cx="328.0782891997946" cy="413.38238160014953" r="3.391994347920689" fill="#CFAE58" opacity="0.17418973150970335"/>
  <circle cx="486.01831205723875" cy="550.6850671349051" r="4.911246303903199" fill="#CFAE58" opacity="0.17310947356676964"/>
  <circle cx="417.59700151575055" cy="606.5830792085732" r="4.018852797095954" fill="#CFAE58" opacity="0.11477763828169213"/>
  <circle cx="64.66263557597634" cy="610.1398323668958" r="2.7274994042990217" fill="#CFAE58" opacity="0.20524958521737274"/>
  <circle cx="392.8117000816003" cy="155.61733717494548" r="5.5361635957402" fill="#CFAE58" opacity="0.20715370333406644"/>
  <circle cx="55.720764022257185" cy="551.5461539211345" r="2.0132717697766247" fill="#CFAE58" opacity="0.20104176937914842"/>

  <!-- Border with glow -->
  <rect x="40" y="40" width="1120" height="550" fill="none" stroke="url(#goldGradient)" stroke-width="3" rx="12" filter="url(#softGlow)"/>

  <!-- Icon circle with premium background -->
  <circle cx="150" cy="200" r="75" fill="#CFAE58" opacity="0.15" filter="url(#softGlow)"/>
  <circle cx="150" cy="200" r="70" fill="#CFAE58" opacity="0.25"/>
  <text x="150" y="235" font-size="90" text-anchor="middle" fill="#CFAE58" filter="url(#glow)">🎣</text>

  <!-- Premium logo (crown) with enhanced styling -->
  <g transform="translate(100, 70)">
    <path d="M 30 20 L 40 35 L 35 35 Z M 50 15 L 60 35 L 45 35 Z M 65 20 L 75 35 L 70 35 Z M 30 35 L 75 35 L 73 45 L 32 45 Z"
          fill="url(#goldGradient)" filter="url(#glow)" stroke="#B89842" stroke-width="0.5"/>
    <circle cx="40" cy="25" r="3" fill="#4FD1C5" filter="url(#glow)"/>
    <circle cx="52" cy="20" r="4" fill="#4FD1C5" filter="url(#glow)"/>
    <circle cx="65" cy="25" r="3" fill="#4FD1C5" filter="url(#glow)"/>
  </g>

  <!-- Title with shadow -->
  <text x="280" y="180" font-family="Georgia, serif" font-size="72" font-weight="bold"
        fill="url(#goldGradient)" filter="url(#shadow)">Hatchery Tours</text>

  <!-- Subtitle with subtle glow -->
  <text x="280" y="230" font-family="Arial, sans-serif" font-size="36"
        fill="#D6DEE6" opacity="0.95" filter="url(#softGlow)">Family Experiences &amp; Caviar Tasting</text>

  <!-- Brand name with letter spacing -->
  <text x="280" y="300" font-family="Georgia, serif" font-size="32" font-weight="bold"
        fill="#CFAE58" letter-spacing="4" filter="url(#glow)">ROYAL KETA</text>

  <!-- Russian tagline -->
  <text x="280" y="340" font-family="Arial, sans-serif" font-size="22" font-style="italic"
        fill="#8B95A1" opacity="0.8">От икринки к королевской</text>

  <!-- Location -->
  <text x="280" y="380" font-family="Arial, sans-serif" font-size="20"
        fill="#8B95A1" opacity="0.7">Невельский район, Сахалин</text>

  <!-- Website with glow -->
  <text x="100" y="570" font-family="Arial, sans-serif" font-size="30" font-weight="bold"
        fill="#4FD1C5" filter="url(#glow)">royalketa.com</text>

  <!-- Enhanced decorative salmon silhouette -->
  <g transform="translate(950, 480)" opacity="0.2" filter="url(#softGlow)">
    <ellipse cx="0" cy="0" rx="90" ry="35" fill="#CFAE58"/>
    <path d="M 90 0 L 120 -18 L 130 0 L 120 18 Z" fill="#CFAE58"/>
    <path d="M -25 -35 L 0 -45 L 25 -35 Z" fill="#CFAE58"/>
    <ellipse cx="-50" cy="0" rx="15" ry="12" fill="#0B0F14"/>
  </g>

  <!-- Additional decorative caviar clusters -->
  <g opacity="0.2">
    <circle cx="1050" cy="120" r="6" fill="#CFAE58"/>
    <circle cx="1065" cy="115" r="5" fill="#CFAE58"/>
    <circle cx="1058" cy="130" r="4" fill="#CFAE58"/>
    <circle cx="150" cy="500" r="5" fill="#4FD1C5"/>
    <circle cx="165" cy="508" r="4" fill="#4FD1C5"/>
    <circle cx="140" cy="512" r="5" fill="#4FD1C5"/>
  </g>
</svg>