<svg width="1200" height="630" xmlns="http://www.w3.org/2000/svg">
  <defs>
    <linearGradient id="bgGradient" x1="0%" y1="0%" x2="100%" y2="100%">
      <stop offset="0%" style="stop-color:#0B0F14;stop-opacity:1" />
      <stop offset="50%" style="stop-color:#0F1619;stop-opacity:1" />
      <stop offset="100%" style="stop-color:#0F1922;stop-opacity:1" />
    </linearGradient>
    <linearGradient id="goldGradient" x1="0%" y1="0%" x2="100%" y2="0%">
      <stop offset="0%" style="stop-color:#E5D596;stop-opacity:1" />
      <stop offset="50%" style="stop-color:#CFAE58;stop-opacity:1" />
      <stop offset="100%" style="stop-color:#B89842;stop-opacity:1" />
    </linearGradient>
    <radialGradient id="oceanGradient" cx="50%" cy="50%" r="50%">
      <stop offset="0%" style="stop-color:#4FD1C5;stop-opacity:0.3" />
      <stop offset="100%" style="stop-color:#1E90A0;stop-opacity:0.05" />
    </radialGradient>
    <filter id="glow">
      <feGaussianBlur stdDeviation="5" result="coloredBlur"/>
      <feMerge>
        <feMergeNode in="coloredBlur"/>
        <feMergeNode in="SourceGraphic"/>
      </feMerge>
    </filter>
    <filter id="softGlow">
      <feGaussianBlur stdDeviation="8" result="coloredBlur"/>
      <feMerge>
        <feMergeNode in="coloredBlur"/>
        <feMergeNode in="SourceGraphic"/>
      </feMerge>
    </filter>
    <filter id="shadow">
      <feDropShadow dx="0" dy="4" stdDeviation="8" flood-color="#000000" flood-opacity="0.5"/>
    </filter>
  </defs>

  <!-- Background -->
  <rect width="1200" height="630" fill="url(#bgGradient)"/>

  <!-- Decorative ocean gradients -->
  <ellipse cx="1000" cy="150" rx="300" ry="200" fill="url(#oceanGradient)" opacity="0.4"/>
  <ellipse cx="200" cy="530" rx="250" ry="180" fill="url(#oceanGradient)" opacity="0.3"/>

  <!-- Wave patterns -->
  <path d="M 0 400 Q 300 350 600 400 T 1200 400 L 1200 630 L 0 630 Z" fill="#1E90A0" opacity="0.08"/>
  <path d="M 0 450 Q 250 420 500 450 T 1000 450 T 1200 450 L 1200 630 L 0 630 Z" fill="#4FD1C5" opacity="0.05"/>

  <!-- Caviar roe particles -->
  <circle cx="706.7888915453074" cy="398.65909227536423" r="5.571697152452754" fill="#CFAE58" opacity="0.12792947441995367"/>
  <circle cx="1148.7030376858734" cy="365.57368544852187" r="2.6930715103593057" fill="#CFAE58" opacity="0.10034519528886861"/>
  <circle cx="616.0683182767071" cy="313.32395098180797" r="3.5291574557916077" fill="#CFAE58" opacity="0.24373798825728019"/>
  <circle cx="688.31863758358" cy="359.66119104542145" r="3.5350028924874968" fill="#CFAE58" opacity="0.20400414329005342"/>
  <circle cx="355.2545922561123" cy="424.29567598709184" r="2.424656384724801" fill="#CFAE58" opacity="0.13591047893654734"/>
  <circle cx="640.000345701701" cy="612.0681036287729" r="2.1051027598156518" fill="#CFAE58" opacity="0.21326480949727905"/>
  <circle cx="232.6306289054516" cy="161.48518164951778" r="5.950968051115683" fill="#CFAE58" opacity="0.16682515996311992"/>
  <circle cx="971.6815361398981" cy="367.0056413923757" r="2.2194720886242694" fill="#CFAE58" opacity="0.23789770196511617"/>
  <circle cx="407.1391155207356" cy="560.9143593775136" r="3.23374556706115" fill="#CFAE58" opacity="0.19272783161262308"/>
  <circle cx="750.3001842519583" cy="7.019412397591795" r="4.985798891381471" fill="#CFAE58" opacity="0.22728178610327018"/>
  <circle cx="228.94482704505324" cy="559.5400460161633" r="2.341024291426458" fill="#CFAE58" opacity="0.1764667830467021"/>
  <circle cx="823.4137376652592" cy="216.19949371538547" r="3.1557477442901183" fill="#CFAE58" opacity="0.21251628758625482"/>
  <circle cx="944.0605047657405" cy="205.95484060069614" r="2.478943117789136" fill="#CFAE58" opacity="0.1411211081239498"/>
  <circle cx="443.57958184061135" cy="334.78727765739126" r="4.529223664588093" fill="#CFAE58" opacity="0.13225315428839707"/>
  <circle cx="1117.3412519695653" cy="554.9358651885977" r="5.597164588202786" fill="#CFAE58" opacity="0.1901660970412305"/>
  <circle cx="1045.4038564954576" cy="450.5994696068223" r="5.141753496714891" fill="#CFAE58" opacity="0.11961832713157089"/>
  <circle cx="853.0120764561299" cy="316.9792586173841" r="4.0379837590333025" fill="#CFAE58" opacity="0.1568885157612312"/>
  <circle cx="948.5538712544412" cy="61.01933143156242" r="3.7466281603016967" fill="#CFAE58" opacity="0.23952644940968287"/>
  <circle cx="506.4562696347879" cy="217.74421659370415" r="3.9433032426650474" fill="#CFAE58" opacity="0.19087929869315692"/>
  <circle cx="827.3356448244335" cy="177.40374740489654" r="5.485724522729015" fill="#CFAE58" opacity="0.1664989513223158"/>
  <circle cx="807.3647989007155" cy="29.87813178416979" r="2.7264707356723843" fill="#CFAE58" opacity="0.11936517381147695"/>
  <circle cx="903.7795273983805" cy="375.09030454044876" r="2.7628991165545864" fill="#CFAE58" opacity="0.19979206940358243"/>
  <circle cx="617.0125148677485" cy="241.35627234120247" r="3.068076919597762" fill="#CFAE58" opacity="0.1256052444210961"/>
  <circle cx="794.5930159196205" cy="257.0749862832512" r="4.360745114995497" fill="#CFAE58" opacity="0.1782956388079769"/>
  <circle cx="109.84554620496158" cy="125.77034097658293" r="3.1714398535881294" fill="#CFAE58" opacity="0.1280742049711234"/>
  <circle cx="614.4801948392559" cy="213.62871953381907" r="4.212155983402125" fill="#CFAE58" opacity="0.2023533545866117"/>
  <circle cx="1180.024315696656" cy="533.2339333081396" r="4.166056949066281" fill="#CFAE58" opacity="0.23767957191128497"/>
  <circle cx="293.23001439284894" cy="94.22961427421924" r="5.455183874624445" fill="#CFAE58" opacity="0.13782684923352653"/>
  <circle cx="231.9413674038916" cy="349.0574873083474" r="2.04397093968844" fill="#CFAE58" opacity="0.11047927654996267"/>
  <circle cx="974.2645544358343" cy="547.6913740360633" r="2.6169820840491207" fill="#CFAE58" opacity="0.16371683329177994"/>

  <!-- Border with glow -->
  <rect x="40" y="40" width="1120" height="550" fill="none" stroke="url(#goldGradient)" stroke-width="3" rx="12" filter="url(#softGlow)"/>

  <!-- Icon circle with premium background -->
  <circle cx="150" cy="200" r="75" fill="#CFAE58" opacity="0.15" filter="url(#softGlow)"/>
  <circle cx="150" cy="200" r="70" fill="#CFAE58" opacity="0.25"/>
  <text x="150" y="235" font-size="90" text-anchor="middle" fill="#CFAE58" filter="url(#glow)">🏠</text>

  <!-- Premium logo (crown) with enhanced styling -->
  <g transform="translate(100, 70)">
    <path d="M 30 20 L 40 35 L 35 35 Z M 50 15 L 60 35 L 45 35 Z M 65 20 L 75 35 L 70 35 Z M 30 35 L 75 35 L 73 45 L 32 45 Z"
          fill="url(#goldGradient)" filter="url(#glow)" stroke="#B89842" stroke-width="0.5"/>
    <circle cx="40" cy="25" r="3" fill="#4FD1C5" filter="url(#glow)"/>
    <circle cx="52" cy="20" r="4" fill="#4FD1C5" filter="url(#glow)"/>
    <circle cx="65" cy="25" r="3" fill="#4FD1C5" filter="url(#glow)"/>
  </g>

  <!-- Title with shadow -->
  <text x="280" y="180" font-family="Georgia, serif" font-size="72" font-weight="bold"
        fill="url(#goldGradient)" filter="url(#shadow)">From Roe to Royal</text>

  <!-- Subtitle with subtle glow -->
  <text x="280" y="230" font-family="Arial, sans-serif" font-size="36"
        fill="#D6DEE6" opacity="0.95" filter="url(#softGlow)">Premium Salmon Hatchery & Caviar</text>

  <!-- Brand name with letter spacing -->
  <text x="280" y="300" font-family="Georgia, serif" font-size="32" font-weight="bold"
        fill="#CFAE58" letter-spacing="4" filter="url(#glow)">ROYAL KETA</text>

  <!-- Russian tagline -->
  <text x="280" y="340" font-family="Arial, sans-serif" font-size="22" font-style="italic"
        fill="#8B95A1" opacity="0.8">От икринки к королевской</text>

  <!-- Location -->
  <text x="280" y="380" font-family="Arial, sans-serif" font-size="20"
        fill="#8B95A1" opacity="0.7">Невельский район, Сахалин</text>

  <!-- Website with glow -->
  <text x="100" y="570" font-family="Arial, sans-serif" font-size="30" font-weight="bold"
        fill="#4FD1C5" filter="url(#glow)">royalketa.com</text>

  <!-- Enhanced decorative salmon silhouette -->
  <g transform="translate(950, 480)" opacity="0.2" filter="url(#softGlow)">
    <ellipse cx="0" cy="0" rx="90" ry="35" fill="#CFAE58"/>
    <path d="M 90 0 L 120 -18 L 130 0 L 120 18 Z" fill="#CFAE58"/>
    <path d="M -25 -35 L 0 -45 L 25 -35 Z" fill="#CFAE58"/>
    <ellipse cx="-50" cy="0" rx="15" ry="12" fill="#0B0F14"/>
  </g>

  <!-- Additional decorative caviar clusters -->
  <g opacity="0.2">
    <circle cx="1050" cy="120" r="6" fill="#CFAE58"/>
    <circle cx="1065" cy="115" r="5" fill="#CFAE58"/>
    <circle cx="1058" cy="130" r="4" fill="#CFAE58"/>
    <circle cx="150" cy="500" r="5" fill="#4FD1C5"/>
    <circle cx="165" cy="508" r="4" fill="#4FD1C5"/>
    <circle cx="140" cy="512" r="5" fill="#4FD1C5"/>
  </g>
</svg>