<svg width="1200" height="630" xmlns="http://www.w3.org/2000/svg">
  <defs>
    <linearGradient id="bgGradient" x1="0%" y1="0%" x2="100%" y2="100%">
      <stop offset="0%" style="stop-color:#0B0F14;stop-opacity:1" />
      <stop offset="50%" style="stop-color:#0F1619;stop-opacity:1" />
      <stop offset="100%" style="stop-color:#0F1922;stop-opacity:1" />
    </linearGradient>
    <linearGradient id="goldGradient" x1="0%" y1="0%" x2="100%" y2="0%">
      <stop offset="0%" style="stop-color:#E5D596;stop-opacity:1" />
      <stop offset="50%" style="stop-color:#CFAE58;stop-opacity:1" />
      <stop offset="100%" style="stop-color:#B89842;stop-opacity:1" />
    </linearGradient>
    <radialGradient id="oceanGradient" cx="50%" cy="50%" r="50%">
      <stop offset="0%" style="stop-color:#4FD1C5;stop-opacity:0.3" />
      <stop offset="100%" style="stop-color:#1E90A0;stop-opacity:0.05" />
    </radialGradient>
    <filter id="glow">
      <feGaussianBlur stdDeviation="5" result="coloredBlur"/>
      <feMerge>
        <feMergeNode in="coloredBlur"/>
        <feMergeNode in="SourceGraphic"/>
      </feMerge>
    </filter>
    <filter id="softGlow">
      <feGaussianBlur stdDeviation="8" result="coloredBlur"/>
      <feMerge>
        <feMergeNode in="coloredBlur"/>
        <feMergeNode in="SourceGraphic"/>
      </feMerge>
    </filter>
    <filter id="shadow">
      <feDropShadow dx="0" dy="4" stdDeviation="8" flood-color="#000000" flood-opacity="0.5"/>
    </filter>
  </defs>

  <!-- Background -->
  <rect width="1200" height="630" fill="url(#bgGradient)"/>

  <!-- Decorative ocean gradients -->
  <ellipse cx="1000" cy="150" rx="300" ry="200" fill="url(#oceanGradient)" opacity="0.4"/>
  <ellipse cx="200" cy="530" rx="250" ry="180" fill="url(#oceanGradient)" opacity="0.3"/>

  <!-- Wave patterns -->
  <path d="M 0 400 Q 300 350 600 400 T 1200 400 L 1200 630 L 0 630 Z" fill="#1E90A0" opacity="0.08"/>
  <path d="M 0 450 Q 250 420 500 450 T 1000 450 T 1200 450 L 1200 630 L 0 630 Z" fill="#4FD1C5" opacity="0.05"/>

  <!-- Caviar roe particles -->
  <circle cx="836.6089325194982" cy="593.5556415460983" r="3.648040373253113" fill="#CFAE58" opacity="0.24981459508901"/>
  <circle cx="659.9707749373918" cy="215.9893334087102" r="4.601982827370053" fill="#CFAE58" opacity="0.18060046086068848"/>
  <circle cx="626.7542362618" cy="555.3203648028808" r="2.9020158604897124" fill="#CFAE58" opacity="0.15329541286284082"/>
  <circle cx="427.11270618349164" cy="490.5537926058315" r="4.123804143893036" fill="#CFAE58" opacity="0.11866017054194927"/>
  <circle cx="53.26961171640239" cy="100.09794450440697" r="3.3646986273136084" fill="#CFAE58" opacity="0.19247262269482812"/>
  <circle cx="939.7549169085917" cy="16.688256884662316" r="4.9168722408160495" fill="#CFAE58" opacity="0.13584319064097128"/>
  <circle cx="293.8677868997558" cy="294.44923830465615" r="3.6553617136559438" fill="#CFAE58" opacity="0.2408262895887883"/>
  <circle cx="1116.3653564958759" cy="580.856347883229" r="2.7418933759076505" fill="#CFAE58" opacity="0.1824843521968787"/>
  <circle cx="111.56168530494864" cy="37.16644816441854" r="4.279540317521913" fill="#CFAE58" opacity="0.1875464268655635"/>
  <circle cx="996.5211600702909" cy="601.322185638807" r="3.049615092367399" fill="#CFAE58" opacity="0.11388782789795393"/>
  <circle cx="360.5361121476618" cy="590.7717992848134" r="3.3737821188480264" fill="#CFAE58" opacity="0.17664982936361665"/>
  <circle cx="1030.9371554227587" cy="180.65420630079657" r="3.4412159002013976" fill="#CFAE58" opacity="0.17815972381671313"/>
  <circle cx="838.1235723835706" cy="87.49336356888071" r="4.993408767197082" fill="#CFAE58" opacity="0.1521352905469547"/>
  <circle cx="632.3429175836285" cy="233.06842286936185" r="5.2696967293853145" fill="#CFAE58" opacity="0.15519869600630062"/>
  <circle cx="841.897378633198" cy="552.7592506984232" r="2.4632059608325467" fill="#CFAE58" opacity="0.2369610145126382"/>
  <circle cx="657.9312042835548" cy="202.43255340530914" r="5.547392005231131" fill="#CFAE58" opacity="0.19973502947165833"/>
  <circle cx="1121.5381655154042" cy="415.8721266403164" r="5.452436259563218" fill="#CFAE58" opacity="0.1134695956686925"/>
  <circle cx="155.61403067567147" cy="358.77173645311376" r="2.362965419432315" fill="#CFAE58" opacity="0.23546241608663834"/>
  <circle cx="943.1997619050243" cy="205.21990401390613" r="5.727010467702922" fill="#CFAE58" opacity="0.17771713537519956"/>
  <circle cx="481.7040038685464" cy="595.7085741115748" r="3.5401878175435257" fill="#CFAE58" opacity="0.15766488222239847"/>
  <circle cx="962.2791485999353" cy="207.88410408025882" r="4.032496979724749" fill="#CFAE58" opacity="0.24804787338529888"/>
  <circle cx="120.94236432391025" cy="386.48903803103866" r="5.234724662763396" fill="#CFAE58" opacity="0.14421836315844777"/>
  <circle cx="113.20561561495057" cy="269.94468983897144" r="2.329644383042629" fill="#CFAE58" opacity="0.12567509399751375"/>
  <circle cx="1100.564979763754" cy="151.1876131655559" r="3.5499261405151086" fill="#CFAE58" opacity="0.21275567921290836"/>
  <circle cx="455.80283536751523" cy="300.6079959962265" r="5.488291629314124" fill="#CFAE58" opacity="0.22215892894455214"/>
  <circle cx="641.783027258763" cy="268.6095264148748" r="3.3391712614927362" fill="#CFAE58" opacity="0.15188796595527193"/>
  <circle cx="534.7954983857036" cy="6.34273869328693" r="2.42656823208302" fill="#CFAE58" opacity="0.1338610135076765"/>
  <circle cx="256.823884863689" cy="356.08338868581177" r="4.031697818054006" fill="#CFAE58" opacity="0.2052727096559536"/>
  <circle cx="964.2816044995075" cy="554.8208394483114" r="5.548160463228129" fill="#CFAE58" opacity="0.19552568728441838"/>
  <circle cx="777.5413367613442" cy="341.6563171176669" r="5.965020095856881" fill="#CFAE58" opacity="0.24483142794812882"/>

  <!-- Border with glow -->
  <rect x="40" y="40" width="1120" height="550" fill="none" stroke="url(#goldGradient)" stroke-width="3" rx="12" filter="url(#softGlow)"/>

  <!-- Icon circle with premium background -->
  <circle cx="150" cy="200" r="75" fill="#CFAE58" opacity="0.15" filter="url(#softGlow)"/>
  <circle cx="150" cy="200" r="70" fill="#CFAE58" opacity="0.25"/>
  <text x="150" y="235" font-size="90" text-anchor="middle" fill="#CFAE58" filter="url(#glow)">🏠</text>

  <!-- Premium logo (crown) with enhanced styling -->
  <g transform="translate(100, 70)">
    <path d="M 30 20 L 40 35 L 35 35 Z M 50 15 L 60 35 L 45 35 Z M 65 20 L 75 35 L 70 35 Z M 30 35 L 75 35 L 73 45 L 32 45 Z"
          fill="url(#goldGradient)" filter="url(#glow)" stroke="#B89842" stroke-width="0.5"/>
    <circle cx="40" cy="25" r="3" fill="#4FD1C5" filter="url(#glow)"/>
    <circle cx="52" cy="20" r="4" fill="#4FD1C5" filter="url(#glow)"/>
    <circle cx="65" cy="25" r="3" fill="#4FD1C5" filter="url(#glow)"/>
  </g>

  <!-- Title with shadow -->
  <text x="280" y="180" font-family="Georgia, serif" font-size="72" font-weight="bold"
        fill="url(#goldGradient)" filter="url(#shadow)">From Roe to Royal</text>

  <!-- Subtitle with subtle glow -->
  <text x="280" y="230" font-family="Arial, sans-serif" font-size="36"
        fill="#D6DEE6" opacity="0.95" filter="url(#softGlow)">Premium Salmon Hatchery &amp; Caviar</text>

  <!-- Brand name with letter spacing -->
  <text x="280" y="300" font-family="Georgia, serif" font-size="32" font-weight="bold"
        fill="#CFAE58" letter-spacing="4" filter="url(#glow)">ROYAL KETA</text>

  <!-- Russian tagline -->
  <text x="280" y="340" font-family="Arial, sans-serif" font-size="22" font-style="italic"
        fill="#8B95A1" opacity="0.8">От икринки к королевской</text>

  <!-- Location -->
  <text x="280" y="380" font-family="Arial, sans-serif" font-size="20"
        fill="#8B95A1" opacity="0.7">Невельский район, Сахалин</text>

  <!-- Website with glow -->
  <text x="100" y="570" font-family="Arial, sans-serif" font-size="30" font-weight="bold"
        fill="#4FD1C5" filter="url(#glow)">royalketa.com</text>

  <!-- Enhanced decorative salmon silhouette -->
  <g transform="translate(950, 480)" opacity="0.2" filter="url(#softGlow)">
    <ellipse cx="0" cy="0" rx="90" ry="35" fill="#CFAE58"/>
    <path d="M 90 0 L 120 -18 L 130 0 L 120 18 Z" fill="#CFAE58"/>
    <path d="M -25 -35 L 0 -45 L 25 -35 Z" fill="#CFAE58"/>
    <ellipse cx="-50" cy="0" rx="15" ry="12" fill="#0B0F14"/>
  </g>

  <!-- Additional decorative caviar clusters -->
  <g opacity="0.2">
    <circle cx="1050" cy="120" r="6" fill="#CFAE58"/>
    <circle cx="1065" cy="115" r="5" fill="#CFAE58"/>
    <circle cx="1058" cy="130" r="4" fill="#CFAE58"/>
    <circle cx="150" cy="500" r="5" fill="#4FD1C5"/>
    <circle cx="165" cy="508" r="4" fill="#4FD1C5"/>
    <circle cx="140" cy="512" r="5" fill="#4FD1C5"/>
  </g>
</svg>