<svg width="1200" height="630" xmlns="http://www.w3.org/2000/svg">
  <defs>
    <linearGradient id="bgGradient" x1="0%" y1="0%" x2="100%" y2="100%">
      <stop offset="0%" style="stop-color:#0B0F14;stop-opacity:1" />
      <stop offset="50%" style="stop-color:#0F1619;stop-opacity:1" />
      <stop offset="100%" style="stop-color:#0F1922;stop-opacity:1" />
    </linearGradient>
    <linearGradient id="goldGradient" x1="0%" y1="0%" x2="100%" y2="0%">
      <stop offset="0%" style="stop-color:#E5D596;stop-opacity:1" />
      <stop offset="50%" style="stop-color:#CFAE58;stop-opacity:1" />
      <stop offset="100%" style="stop-color:#B89842;stop-opacity:1" />
    </linearGradient>
    <radialGradient id="oceanGradient" cx="50%" cy="50%" r="50%">
      <stop offset="0%" style="stop-color:#4FD1C5;stop-opacity:0.3" />
      <stop offset="100%" style="stop-color:#1E90A0;stop-opacity:0.05" />
    </radialGradient>
    <filter id="glow">
      <feGaussianBlur stdDeviation="5" result="coloredBlur"/>
      <feMerge>
        <feMergeNode in="coloredBlur"/>
        <feMergeNode in="SourceGraphic"/>
      </feMerge>
    </filter>
    <filter id="softGlow">
      <feGaussianBlur stdDeviation="8" result="coloredBlur"/>
      <feMerge>
        <feMergeNode in="coloredBlur"/>
        <feMergeNode in="SourceGraphic"/>
      </feMerge>
    </filter>
    <filter id="shadow">
      <feDropShadow dx="0" dy="4" stdDeviation="8" flood-color="#000000" flood-opacity="0.5"/>
    </filter>
  </defs>

  <!-- Background -->
  <rect width="1200" height="630" fill="url(#bgGradient)"/>

  <!-- Decorative ocean gradients -->
  <ellipse cx="1000" cy="150" rx="300" ry="200" fill="url(#oceanGradient)" opacity="0.4"/>
  <ellipse cx="200" cy="530" rx="250" ry="180" fill="url(#oceanGradient)" opacity="0.3"/>

  <!-- Wave patterns -->
  <path d="M 0 400 Q 300 350 600 400 T 1200 400 L 1200 630 L 0 630 Z" fill="#1E90A0" opacity="0.08"/>
  <path d="M 0 450 Q 250 420 500 450 T 1000 450 T 1200 450 L 1200 630 L 0 630 Z" fill="#4FD1C5" opacity="0.05"/>

  <!-- Caviar roe particles -->
  <circle cx="1174.6975448070502" cy="480.0134606266691" r="5.392934264051065" fill="#CFAE58" opacity="0.23669611723541759"/>
  <circle cx="552.7838618579377" cy="537.7111845447128" r="2.253267168351627" fill="#CFAE58" opacity="0.13371164713244127"/>
  <circle cx="804.4686567823017" cy="298.91347756985436" r="5.005491291534372" fill="#CFAE58" opacity="0.22209607502290413"/>
  <circle cx="1151.959404706995" cy="247.84995081140497" r="2.6469157786468314" fill="#CFAE58" opacity="0.13209950591680825"/>
  <circle cx="910.0021169812682" cy="385.08245078629574" r="5.948953455109777" fill="#CFAE58" opacity="0.23726906551856733"/>
  <circle cx="736.7695636067083" cy="602.6276664365748" r="3.9213986754612877" fill="#CFAE58" opacity="0.24928491307931339"/>
  <circle cx="247.7686916811379" cy="530.037941047845" r="5.460394976293082" fill="#CFAE58" opacity="0.12525673739491683"/>
  <circle cx="729.4224399756943" cy="147.49887741576188" r="2.2535146182223285" fill="#CFAE58" opacity="0.12015073963281062"/>
  <circle cx="880.6150728060964" cy="28.34438322286212" r="5.211371656264387" fill="#CFAE58" opacity="0.2211485153591912"/>
  <circle cx="418.93105773504357" cy="377.08099795190583" r="3.9357074415891526" fill="#CFAE58" opacity="0.2070584832991479"/>
  <circle cx="1031.573448296673" cy="0.1584962156876757" r="4.716096136407829" fill="#CFAE58" opacity="0.24488176143696622"/>
  <circle cx="104.89272603865957" cy="593.7086117667914" r="2.811126151655194" fill="#CFAE58" opacity="0.14377122876017098"/>
  <circle cx="149.7967816969445" cy="81.87194293823072" r="4.582128338411515" fill="#CFAE58" opacity="0.1582997424164051"/>
  <circle cx="485.06020974472267" cy="610.6570661696829" r="4.272676494284076" fill="#CFAE58" opacity="0.17451375283887377"/>
  <circle cx="1047.2113884514788" cy="136.864834262221" r="3.5260040933546337" fill="#CFAE58" opacity="0.16450094376732377"/>
  <circle cx="495.0637434463238" cy="146.78245760059076" r="3.0324549976183306" fill="#CFAE58" opacity="0.23396506810658302"/>
  <circle cx="184.89752149805207" cy="457.59221501468835" r="5.075326134119773" fill="#CFAE58" opacity="0.11651377759785811"/>
  <circle cx="392.2436062152749" cy="155.38088407180675" r="3.0727377685961956" fill="#CFAE58" opacity="0.22183315225967423"/>
  <circle cx="692.0806070409975" cy="515.4956266250816" r="2.448313412121842" fill="#CFAE58" opacity="0.12809991032615484"/>
  <circle cx="945.7939594070392" cy="393.658636772098" r="5.115577491635096" fill="#CFAE58" opacity="0.12143616946587128"/>
  <circle cx="55.47450640112261" cy="134.4476441972504" r="2.831766144022687" fill="#CFAE58" opacity="0.2375463231334047"/>
  <circle cx="412.5079435412248" cy="353.0652418196297" r="3.4897062929857716" fill="#CFAE58" opacity="0.16649315292190342"/>
  <circle cx="798.7035537019293" cy="224.7251326692429" r="5.69355874754543" fill="#CFAE58" opacity="0.18738953709300593"/>
  <circle cx="74.12759731710193" cy="448.8840853796322" r="4.323808753965468" fill="#CFAE58" opacity="0.2368208550411348"/>
  <circle cx="1063.293832502333" cy="485.34833526907585" r="4.335505818180252" fill="#CFAE58" opacity="0.1340996816600155"/>
  <circle cx="1191.015145950036" cy="10.586939277544769" r="3.439712834517117" fill="#CFAE58" opacity="0.17585816111817681"/>
  <circle cx="1114.9463924758043" cy="535.4860241329725" r="2.0391045636679177" fill="#CFAE58" opacity="0.12616004886154647"/>
  <circle cx="1128.6650949694927" cy="185.14578729115715" r="5.757940432884024" fill="#CFAE58" opacity="0.1414936481098056"/>
  <circle cx="885.8576834170741" cy="334.33898924964154" r="4.567865191899738" fill="#CFAE58" opacity="0.12178125427749094"/>
  <circle cx="607.8805451288204" cy="530.8275119646856" r="2.1262804829255337" fill="#CFAE58" opacity="0.1348318259813918"/>

  <!-- Border with glow -->
  <rect x="40" y="40" width="1120" height="550" fill="none" stroke="url(#goldGradient)" stroke-width="3" rx="12" filter="url(#softGlow)"/>

  <!-- Icon circle with premium background -->
  <circle cx="150" cy="200" r="75" fill="#CFAE58" opacity="0.15" filter="url(#softGlow)"/>
  <circle cx="150" cy="200" r="70" fill="#CFAE58" opacity="0.25"/>
  <text x="150" y="235" font-size="90" text-anchor="middle" fill="#CFAE58" filter="url(#glow)">🏠</text>

  <!-- Premium logo (crown) with enhanced styling -->
  <g transform="translate(100, 70)">
    <path d="M 30 20 L 40 35 L 35 35 Z M 50 15 L 60 35 L 45 35 Z M 65 20 L 75 35 L 70 35 Z M 30 35 L 75 35 L 73 45 L 32 45 Z"
          fill="url(#goldGradient)" filter="url(#glow)" stroke="#B89842" stroke-width="0.5"/>
    <circle cx="40" cy="25" r="3" fill="#4FD1C5" filter="url(#glow)"/>
    <circle cx="52" cy="20" r="4" fill="#4FD1C5" filter="url(#glow)"/>
    <circle cx="65" cy="25" r="3" fill="#4FD1C5" filter="url(#glow)"/>
  </g>

  <!-- Title with shadow -->
  <text x="280" y="180" font-family="Georgia, serif" font-size="72" font-weight="bold"
        fill="url(#goldGradient)" filter="url(#shadow)">From Roe to Royal</text>

  <!-- Subtitle with subtle glow -->
  <text x="280" y="230" font-family="Arial, sans-serif" font-size="36"
        fill="#D6DEE6" opacity="0.95" filter="url(#softGlow)">Premium Salmon Hatchery & Caviar</text>

  <!-- Brand name with letter spacing -->
  <text x="280" y="300" font-family="Georgia, serif" font-size="32" font-weight="bold"
        fill="#CFAE58" letter-spacing="4" filter="url(#glow)">ROYAL KETA</text>

  <!-- Russian tagline -->
  <text x="280" y="340" font-family="Arial, sans-serif" font-size="22" font-style="italic"
        fill="#8B95A1" opacity="0.8">От икринки к королевской</text>

  <!-- Location -->
  <text x="280" y="380" font-family="Arial, sans-serif" font-size="20"
        fill="#8B95A1" opacity="0.7">Невельский район, Сахалин</text>

  <!-- Website with glow -->
  <text x="100" y="570" font-family="Arial, sans-serif" font-size="30" font-weight="bold"
        fill="#4FD1C5" filter="url(#glow)">royalketa.com</text>

  <!-- Enhanced decorative salmon silhouette -->
  <g transform="translate(950, 480)" opacity="0.2" filter="url(#softGlow)">
    <ellipse cx="0" cy="0" rx="90" ry="35" fill="#CFAE58"/>
    <path d="M 90 0 L 120 -18 L 130 0 L 120 18 Z" fill="#CFAE58"/>
    <path d="M -25 -35 L 0 -45 L 25 -35 Z" fill="#CFAE58"/>
    <ellipse cx="-50" cy="0" rx="15" ry="12" fill="#0B0F14"/>
  </g>

  <!-- Additional decorative caviar clusters -->
  <g opacity="0.2">
    <circle cx="1050" cy="120" r="6" fill="#CFAE58"/>
    <circle cx="1065" cy="115" r="5" fill="#CFAE58"/>
    <circle cx="1058" cy="130" r="4" fill="#CFAE58"/>
    <circle cx="150" cy="500" r="5" fill="#4FD1C5"/>
    <circle cx="165" cy="508" r="4" fill="#4FD1C5"/>
    <circle cx="140" cy="512" r="5" fill="#4FD1C5"/>
  </g>
</svg>