<svg width="1200" height="630" xmlns="http://www.w3.org/2000/svg">
  <defs>
    <linearGradient id="bgGradient" x1="0%" y1="0%" x2="100%" y2="100%">
      <stop offset="0%" style="stop-color:#0B0F14;stop-opacity:1" />
      <stop offset="50%" style="stop-color:#0F1619;stop-opacity:1" />
      <stop offset="100%" style="stop-color:#0F1922;stop-opacity:1" />
    </linearGradient>
    <linearGradient id="goldGradient" x1="0%" y1="0%" x2="100%" y2="0%">
      <stop offset="0%" style="stop-color:#E5D596;stop-opacity:1" />
      <stop offset="50%" style="stop-color:#CFAE58;stop-opacity:1" />
      <stop offset="100%" style="stop-color:#B89842;stop-opacity:1" />
    </linearGradient>
    <radialGradient id="oceanGradient" cx="50%" cy="50%" r="50%">
      <stop offset="0%" style="stop-color:#4FD1C5;stop-opacity:0.3" />
      <stop offset="100%" style="stop-color:#1E90A0;stop-opacity:0.05" />
    </radialGradient>
    <filter id="glow">
      <feGaussianBlur stdDeviation="5" result="coloredBlur"/>
      <feMerge>
        <feMergeNode in="coloredBlur"/>
        <feMergeNode in="SourceGraphic"/>
      </feMerge>
    </filter>
    <filter id="softGlow">
      <feGaussianBlur stdDeviation="8" result="coloredBlur"/>
      <feMerge>
        <feMergeNode in="coloredBlur"/>
        <feMergeNode in="SourceGraphic"/>
      </feMerge>
    </filter>
    <filter id="shadow">
      <feDropShadow dx="0" dy="4" stdDeviation="8" flood-color="#000000" flood-opacity="0.5"/>
    </filter>
  </defs>

  <!-- Background -->
  <rect width="1200" height="630" fill="url(#bgGradient)"/>

  <!-- Decorative ocean gradients -->
  <ellipse cx="1000" cy="150" rx="300" ry="200" fill="url(#oceanGradient)" opacity="0.4"/>
  <ellipse cx="200" cy="530" rx="250" ry="180" fill="url(#oceanGradient)" opacity="0.3"/>

  <!-- Wave patterns -->
  <path d="M 0 400 Q 300 350 600 400 T 1200 400 L 1200 630 L 0 630 Z" fill="#1E90A0" opacity="0.08"/>
  <path d="M 0 450 Q 250 420 500 450 T 1000 450 T 1200 450 L 1200 630 L 0 630 Z" fill="#4FD1C5" opacity="0.05"/>

  <!-- Caviar roe particles -->
  <circle cx="878.2071607270065" cy="564.8933553062506" r="5.8429711668396" fill="#CFAE58" opacity="0.1206507420591219"/>
  <circle cx="699.682225785081" cy="552.7740673811601" r="5.705513762269499" fill="#CFAE58" opacity="0.21005530439423348"/>
  <circle cx="439.5481172174849" cy="321.8882963884973" r="2.6197767120591644" fill="#CFAE58" opacity="0.1761193062571008"/>
  <circle cx="1094.6498839765763" cy="119.1395767483537" r="4.813682284182564" fill="#CFAE58" opacity="0.11003000587645102"/>
  <circle cx="139.56766917990535" cy="416.30899290912555" r="4.538962883081248" fill="#CFAE58" opacity="0.1790270606203968"/>
  <circle cx="674.7789386605012" cy="215.06371999091277" r="5.110803185969005" fill="#CFAE58" opacity="0.12377062539236332"/>
  <circle cx="1005.1260318166693" cy="553.476853858074" r="5.383363213418788" fill="#CFAE58" opacity="0.24129803394553992"/>
  <circle cx="331.4980650826311" cy="519.4462725470768" r="4.2870006709553925" fill="#CFAE58" opacity="0.12246118311985285"/>
  <circle cx="447.512329062429" cy="294.2339665909412" r="5.618208794674564" fill="#CFAE58" opacity="0.18842595864303363"/>
  <circle cx="245.44390727655951" cy="303.73531175975586" r="5.854575502699612" fill="#CFAE58" opacity="0.2430616344762607"/>
  <circle cx="618.5681112689446" cy="87.82030079448194" r="4.896939324671614" fill="#CFAE58" opacity="0.2074322911143059"/>
  <circle cx="1076.7441158401587" cy="362.5260110527433" r="2.6610438166375645" fill="#CFAE58" opacity="0.2058594951641307"/>
  <circle cx="352.7778388833411" cy="1.0179303626761071" r="3.3887968431924347" fill="#CFAE58" opacity="0.110260330771703"/>
  <circle cx="1112.9910909005157" cy="257.45610300182744" r="2.734584649900735" fill="#CFAE58" opacity="0.23692837382069337"/>
  <circle cx="129.58014444848357" cy="355.7956555456295" r="4.192242636308629" fill="#CFAE58" opacity="0.11241861055160518"/>
  <circle cx="344.06773751812534" cy="572.1014813678338" r="4.172169763793083" fill="#CFAE58" opacity="0.11500762963290576"/>
  <circle cx="80.74422319445831" cy="178.17497417396882" r="3.8975229862709884" fill="#CFAE58" opacity="0.21621509133269878"/>
  <circle cx="663.711433126449" cy="158.81466123694472" r="2.1006788228287254" fill="#CFAE58" opacity="0.15579745949449034"/>
  <circle cx="484.50840604963963" cy="385.5291742771841" r="4.1383340119957115" fill="#CFAE58" opacity="0.1968761269809386"/>
  <circle cx="680.4778199510514" cy="489.191983616519" r="4.878273933825838" fill="#CFAE58" opacity="0.1018867103689497"/>
  <circle cx="202.736744453928" cy="303.48097737554684" r="3.221935328369104" fill="#CFAE58" opacity="0.129986417732515"/>
  <circle cx="894.1378733053898" cy="316.6388765021331" r="3.9595900838928113" fill="#CFAE58" opacity="0.23302034950645417"/>
  <circle cx="501.9534529044935" cy="170.20759404247718" r="5.922121921966573" fill="#CFAE58" opacity="0.2208235103705597"/>
  <circle cx="1107.6767706255139" cy="499.7967379647333" r="2.327695465897807" fill="#CFAE58" opacity="0.1656272117004538"/>
  <circle cx="1111.4017780202428" cy="348.0518794688367" r="2.0661575278262454" fill="#CFAE58" opacity="0.18336759855072587"/>
  <circle cx="87.36957509535364" cy="627.7966911891153" r="4.920945806966976" fill="#CFAE58" opacity="0.1304761787348308"/>
  <circle cx="274.7720296091556" cy="296.7558420298041" r="4.605282732669403" fill="#CFAE58" opacity="0.16076651320034693"/>
  <circle cx="683.7989782419514" cy="190.628833834751" r="4.734003280167184" fill="#CFAE58" opacity="0.238663912878268"/>
  <circle cx="1099.0632043194018" cy="576.5386655597982" r="2.4184999968391767" fill="#CFAE58" opacity="0.15812138754990301"/>
  <circle cx="767.9717806205894" cy="23.244908582660646" r="4.8066783417578804" fill="#CFAE58" opacity="0.2037986465698725"/>

  <!-- Border with glow -->
  <rect x="40" y="40" width="1120" height="550" fill="none" stroke="url(#goldGradient)" stroke-width="3" rx="12" filter="url(#softGlow)"/>

  <!-- Icon circle with premium background -->
  <circle cx="150" cy="200" r="75" fill="#CFAE58" opacity="0.15" filter="url(#softGlow)"/>
  <circle cx="150" cy="200" r="70" fill="#CFAE58" opacity="0.25"/>
  <text x="150" y="235" font-size="90" text-anchor="middle" fill="#CFAE58" filter="url(#glow)">🏠</text>

  <!-- Premium logo (crown) with enhanced styling -->
  <g transform="translate(100, 70)">
    <path d="M 30 20 L 40 35 L 35 35 Z M 50 15 L 60 35 L 45 35 Z M 65 20 L 75 35 L 70 35 Z M 30 35 L 75 35 L 73 45 L 32 45 Z"
          fill="url(#goldGradient)" filter="url(#glow)" stroke="#B89842" stroke-width="0.5"/>
    <circle cx="40" cy="25" r="3" fill="#4FD1C5" filter="url(#glow)"/>
    <circle cx="52" cy="20" r="4" fill="#4FD1C5" filter="url(#glow)"/>
    <circle cx="65" cy="25" r="3" fill="#4FD1C5" filter="url(#glow)"/>
  </g>

  <!-- Title with shadow -->
  <text x="280" y="180" font-family="Georgia, serif" font-size="72" font-weight="bold"
        fill="url(#goldGradient)" filter="url(#shadow)">From Roe to Royal</text>

  <!-- Subtitle with subtle glow -->
  <text x="280" y="230" font-family="Arial, sans-serif" font-size="36"
        fill="#D6DEE6" opacity="0.95" filter="url(#softGlow)">Premium Salmon Hatchery &amp; Caviar</text>

  <!-- Brand name with letter spacing -->
  <text x="280" y="300" font-family="Georgia, serif" font-size="32" font-weight="bold"
        fill="#CFAE58" letter-spacing="4" filter="url(#glow)">ROYAL KETA</text>

  <!-- Russian tagline -->
  <text x="280" y="340" font-family="Arial, sans-serif" font-size="22" font-style="italic"
        fill="#8B95A1" opacity="0.8">От икринки к королевской</text>

  <!-- Location -->
  <text x="280" y="380" font-family="Arial, sans-serif" font-size="20"
        fill="#8B95A1" opacity="0.7">Невельский район, Сахалин</text>

  <!-- Website with glow -->
  <text x="100" y="570" font-family="Arial, sans-serif" font-size="30" font-weight="bold"
        fill="#4FD1C5" filter="url(#glow)">royalketa.com</text>

  <!-- Enhanced decorative salmon silhouette -->
  <g transform="translate(950, 480)" opacity="0.2" filter="url(#softGlow)">
    <ellipse cx="0" cy="0" rx="90" ry="35" fill="#CFAE58"/>
    <path d="M 90 0 L 120 -18 L 130 0 L 120 18 Z" fill="#CFAE58"/>
    <path d="M -25 -35 L 0 -45 L 25 -35 Z" fill="#CFAE58"/>
    <ellipse cx="-50" cy="0" rx="15" ry="12" fill="#0B0F14"/>
  </g>

  <!-- Additional decorative caviar clusters -->
  <g opacity="0.2">
    <circle cx="1050" cy="120" r="6" fill="#CFAE58"/>
    <circle cx="1065" cy="115" r="5" fill="#CFAE58"/>
    <circle cx="1058" cy="130" r="4" fill="#CFAE58"/>
    <circle cx="150" cy="500" r="5" fill="#4FD1C5"/>
    <circle cx="165" cy="508" r="4" fill="#4FD1C5"/>
    <circle cx="140" cy="512" r="5" fill="#4FD1C5"/>
  </g>
</svg>