<svg width="1200" height="630" xmlns="http://www.w3.org/2000/svg">
  <defs>
    <linearGradient id="bgGradient" x1="0%" y1="0%" x2="100%" y2="100%">
      <stop offset="0%" style="stop-color:#0B0F14;stop-opacity:1" />
      <stop offset="50%" style="stop-color:#0F1619;stop-opacity:1" />
      <stop offset="100%" style="stop-color:#0F1922;stop-opacity:1" />
    </linearGradient>
    <linearGradient id="goldGradient" x1="0%" y1="0%" x2="100%" y2="0%">
      <stop offset="0%" style="stop-color:#E5D596;stop-opacity:1" />
      <stop offset="50%" style="stop-color:#CFAE58;stop-opacity:1" />
      <stop offset="100%" style="stop-color:#B89842;stop-opacity:1" />
    </linearGradient>
    <radialGradient id="oceanGradient" cx="50%" cy="50%" r="50%">
      <stop offset="0%" style="stop-color:#4FD1C5;stop-opacity:0.3" />
      <stop offset="100%" style="stop-color:#1E90A0;stop-opacity:0.05" />
    </radialGradient>
    <filter id="glow">
      <feGaussianBlur stdDeviation="5" result="coloredBlur"/>
      <feMerge>
        <feMergeNode in="coloredBlur"/>
        <feMergeNode in="SourceGraphic"/>
      </feMerge>
    </filter>
    <filter id="softGlow">
      <feGaussianBlur stdDeviation="8" result="coloredBlur"/>
      <feMerge>
        <feMergeNode in="coloredBlur"/>
        <feMergeNode in="SourceGraphic"/>
      </feMerge>
    </filter>
    <filter id="shadow">
      <feDropShadow dx="0" dy="4" stdDeviation="8" flood-color="#000000" flood-opacity="0.5"/>
    </filter>
  </defs>

  <!-- Background -->
  <rect width="1200" height="630" fill="url(#bgGradient)"/>

  <!-- Decorative ocean gradients -->
  <ellipse cx="1000" cy="150" rx="300" ry="200" fill="url(#oceanGradient)" opacity="0.4"/>
  <ellipse cx="200" cy="530" rx="250" ry="180" fill="url(#oceanGradient)" opacity="0.3"/>

  <!-- Wave patterns -->
  <path d="M 0 400 Q 300 350 600 400 T 1200 400 L 1200 630 L 0 630 Z" fill="#1E90A0" opacity="0.08"/>
  <path d="M 0 450 Q 250 420 500 450 T 1000 450 T 1200 450 L 1200 630 L 0 630 Z" fill="#4FD1C5" opacity="0.05"/>

  <!-- Caviar roe particles -->
  <circle cx="629.5576215786564" cy="597.0474977035861" r="4.556616707337701" fill="#CFAE58" opacity="0.1430997210008592"/>
  <circle cx="333.1089986517031" cy="590.5699413635465" r="3.2410091897950535" fill="#CFAE58" opacity="0.14236041145846293"/>
  <circle cx="1033.1097874382763" cy="383.1175348972728" r="3.5320850122218452" fill="#CFAE58" opacity="0.2388058915690053"/>
  <circle cx="123.14380370721109" cy="390.89916432928766" r="5.574726284206273" fill="#CFAE58" opacity="0.2222842633732822"/>
  <circle cx="62.18264917520675" cy="76.38765333328064" r="3.374500404531101" fill="#CFAE58" opacity="0.14002097337675623"/>
  <circle cx="28.734839116749413" cy="386.85068365281745" r="4.846907699720429" fill="#CFAE58" opacity="0.18866762046162136"/>
  <circle cx="216.2012186825705" cy="589.2499854831509" r="2.0984481706043336" fill="#CFAE58" opacity="0.16947814745482415"/>
  <circle cx="710.0592477123859" cy="100.76038418770312" r="3.1942477000830665" fill="#CFAE58" opacity="0.15658490090062654"/>
  <circle cx="978.2900312785765" cy="85.54450768030286" r="2.9109777365550964" fill="#CFAE58" opacity="0.23551381824909362"/>
  <circle cx="360.23105186740116" cy="624.4240131364178" r="3.643891260662846" fill="#CFAE58" opacity="0.2072493101142211"/>
  <circle cx="1116.244867509033" cy="309.8337543701585" r="4.575574023774258" fill="#CFAE58" opacity="0.2055289642768482"/>
  <circle cx="676.1573558395638" cy="616.7983612577924" r="5.30443083103804" fill="#CFAE58" opacity="0.1324055216222499"/>
  <circle cx="299.27199255407334" cy="371.2419461685042" r="2.7838318853806383" fill="#CFAE58" opacity="0.17377880540015672"/>
  <circle cx="908.3634216531469" cy="541.2327951750007" r="5.060973096200634" fill="#CFAE58" opacity="0.1995328908204792"/>
  <circle cx="856.4373295101037" cy="381.75394482122425" r="2.4899383537689976" fill="#CFAE58" opacity="0.19190153055618075"/>
  <circle cx="1177.2988516849175" cy="167.9977474054231" r="4.268446054792358" fill="#CFAE58" opacity="0.13910860287703633"/>
  <circle cx="1069.3292185557252" cy="171.3713623760942" r="4.601690782692958" fill="#CFAE58" opacity="0.2006548872851487"/>
  <circle cx="443.7013618011352" cy="494.06543990288475" r="4.336147792465507" fill="#CFAE58" opacity="0.19635953855725286"/>
  <circle cx="998.6074296718265" cy="422.41186005708767" r="5.686102668332187" fill="#CFAE58" opacity="0.15136269497852553"/>
  <circle cx="223.73708410951346" cy="354.460158491163" r="4.522291240971617" fill="#CFAE58" opacity="0.11538585129815125"/>
  <circle cx="1128.2706206384325" cy="157.78566248917295" r="3.782211666233252" fill="#CFAE58" opacity="0.10314230113105047"/>
  <circle cx="775.2623778899979" cy="254.19196615883533" r="5.293023617772775" fill="#CFAE58" opacity="0.11806663875751444"/>
  <circle cx="330.64048883219147" cy="477.5867688327762" r="5.721785744024388" fill="#CFAE58" opacity="0.1963294005213735"/>
  <circle cx="897.9632320515905" cy="449.84204725341164" r="3.5606538853315013" fill="#CFAE58" opacity="0.15278316544663978"/>
  <circle cx="295.14899645791235" cy="448.528226415666" r="2.614442199279452" fill="#CFAE58" opacity="0.1983700015781168"/>
  <circle cx="202.228212869398" cy="611.1128195416323" r="3.541448447506961" fill="#CFAE58" opacity="0.23833440180545937"/>
  <circle cx="538.2468203383304" cy="262.05176380134293" r="3.7750680022127354" fill="#CFAE58" opacity="0.11773859301775239"/>
  <circle cx="6.527485729491689" cy="9.677858456990231" r="3.3481628089398052" fill="#CFAE58" opacity="0.14864906714986115"/>
  <circle cx="1135.7711741775458" cy="310.11679286393246" r="2.3827355284502474" fill="#CFAE58" opacity="0.11221262421530862"/>
  <circle cx="295.215110291235" cy="176.63778668734514" r="2.58227031770845" fill="#CFAE58" opacity="0.1980769534062659"/>

  <!-- Border with glow -->
  <rect x="40" y="40" width="1120" height="550" fill="none" stroke="url(#goldGradient)" stroke-width="3" rx="12" filter="url(#softGlow)"/>

  <!-- Icon circle with premium background -->
  <circle cx="150" cy="200" r="75" fill="#CFAE58" opacity="0.15" filter="url(#softGlow)"/>
  <circle cx="150" cy="200" r="70" fill="#CFAE58" opacity="0.25"/>
  <text x="150" y="235" font-size="90" text-anchor="middle" fill="#CFAE58" filter="url(#glow)">🏠</text>

  <!-- Premium logo (crown) with enhanced styling -->
  <g transform="translate(100, 70)">
    <path d="M 30 20 L 40 35 L 35 35 Z M 50 15 L 60 35 L 45 35 Z M 65 20 L 75 35 L 70 35 Z M 30 35 L 75 35 L 73 45 L 32 45 Z"
          fill="url(#goldGradient)" filter="url(#glow)" stroke="#B89842" stroke-width="0.5"/>
    <circle cx="40" cy="25" r="3" fill="#4FD1C5" filter="url(#glow)"/>
    <circle cx="52" cy="20" r="4" fill="#4FD1C5" filter="url(#glow)"/>
    <circle cx="65" cy="25" r="3" fill="#4FD1C5" filter="url(#glow)"/>
  </g>

  <!-- Title with shadow -->
  <text x="280" y="180" font-family="Georgia, serif" font-size="72" font-weight="bold"
        fill="url(#goldGradient)" filter="url(#shadow)">From Roe to Royal</text>

  <!-- Subtitle with subtle glow -->
  <text x="280" y="230" font-family="Arial, sans-serif" font-size="36"
        fill="#D6DEE6" opacity="0.95" filter="url(#softGlow)">Premium Salmon Hatchery &amp; Caviar</text>

  <!-- Brand name with letter spacing -->
  <text x="280" y="300" font-family="Georgia, serif" font-size="32" font-weight="bold"
        fill="#CFAE58" letter-spacing="4" filter="url(#glow)">ROYAL KETA</text>

  <!-- Russian tagline -->
  <text x="280" y="340" font-family="Arial, sans-serif" font-size="22" font-style="italic"
        fill="#8B95A1" opacity="0.8">От икринки к королевской</text>

  <!-- Location -->
  <text x="280" y="380" font-family="Arial, sans-serif" font-size="20"
        fill="#8B95A1" opacity="0.7">Невельский район, Сахалин</text>

  <!-- Website with glow -->
  <text x="100" y="570" font-family="Arial, sans-serif" font-size="30" font-weight="bold"
        fill="#4FD1C5" filter="url(#glow)">royalketa.com</text>

  <!-- Enhanced decorative salmon silhouette -->
  <g transform="translate(950, 480)" opacity="0.2" filter="url(#softGlow)">
    <ellipse cx="0" cy="0" rx="90" ry="35" fill="#CFAE58"/>
    <path d="M 90 0 L 120 -18 L 130 0 L 120 18 Z" fill="#CFAE58"/>
    <path d="M -25 -35 L 0 -45 L 25 -35 Z" fill="#CFAE58"/>
    <ellipse cx="-50" cy="0" rx="15" ry="12" fill="#0B0F14"/>
  </g>

  <!-- Additional decorative caviar clusters -->
  <g opacity="0.2">
    <circle cx="1050" cy="120" r="6" fill="#CFAE58"/>
    <circle cx="1065" cy="115" r="5" fill="#CFAE58"/>
    <circle cx="1058" cy="130" r="4" fill="#CFAE58"/>
    <circle cx="150" cy="500" r="5" fill="#4FD1C5"/>
    <circle cx="165" cy="508" r="4" fill="#4FD1C5"/>
    <circle cx="140" cy="512" r="5" fill="#4FD1C5"/>
  </g>
</svg>