<svg width="1200" height="630" xmlns="http://www.w3.org/2000/svg">
  <defs>
    <linearGradient id="bgGradient" x1="0%" y1="0%" x2="100%" y2="100%">
      <stop offset="0%" style="stop-color:#0B0F14;stop-opacity:1" />
      <stop offset="50%" style="stop-color:#0F1619;stop-opacity:1" />
      <stop offset="100%" style="stop-color:#0F1922;stop-opacity:1" />
    </linearGradient>
    <linearGradient id="goldGradient" x1="0%" y1="0%" x2="100%" y2="0%">
      <stop offset="0%" style="stop-color:#E5D596;stop-opacity:1" />
      <stop offset="50%" style="stop-color:#CFAE58;stop-opacity:1" />
      <stop offset="100%" style="stop-color:#B89842;stop-opacity:1" />
    </linearGradient>
    <radialGradient id="oceanGradient" cx="50%" cy="50%" r="50%">
      <stop offset="0%" style="stop-color:#4FD1C5;stop-opacity:0.3" />
      <stop offset="100%" style="stop-color:#1E90A0;stop-opacity:0.05" />
    </radialGradient>
    <filter id="glow">
      <feGaussianBlur stdDeviation="5" result="coloredBlur"/>
      <feMerge>
        <feMergeNode in="coloredBlur"/>
        <feMergeNode in="SourceGraphic"/>
      </feMerge>
    </filter>
    <filter id="softGlow">
      <feGaussianBlur stdDeviation="8" result="coloredBlur"/>
      <feMerge>
        <feMergeNode in="coloredBlur"/>
        <feMergeNode in="SourceGraphic"/>
      </feMerge>
    </filter>
    <filter id="shadow">
      <feDropShadow dx="0" dy="4" stdDeviation="8" flood-color="#000000" flood-opacity="0.5"/>
    </filter>
  </defs>

  <!-- Background -->
  <rect width="1200" height="630" fill="url(#bgGradient)"/>

  <!-- Decorative ocean gradients -->
  <ellipse cx="1000" cy="150" rx="300" ry="200" fill="url(#oceanGradient)" opacity="0.4"/>
  <ellipse cx="200" cy="530" rx="250" ry="180" fill="url(#oceanGradient)" opacity="0.3"/>

  <!-- Wave patterns -->
  <path d="M 0 400 Q 300 350 600 400 T 1200 400 L 1200 630 L 0 630 Z" fill="#1E90A0" opacity="0.08"/>
  <path d="M 0 450 Q 250 420 500 450 T 1000 450 T 1200 450 L 1200 630 L 0 630 Z" fill="#4FD1C5" opacity="0.05"/>

  <!-- Caviar roe particles -->
  <circle cx="238.96608467346329" cy="290.24756685914093" r="4.277501029494103" fill="#CFAE58" opacity="0.15472540957874228"/>
  <circle cx="911.064299372059" cy="430.8091734234261" r="3.9352765503062646" fill="#CFAE58" opacity="0.23912713334287575"/>
  <circle cx="459.1685723723247" cy="227.6251392715121" r="2.8967452141090058" fill="#CFAE58" opacity="0.1823801680592101"/>
  <circle cx="1070.1008776442989" cy="29.16440650378967" r="4.037248816240647" fill="#CFAE58" opacity="0.12672439768133578"/>
  <circle cx="148.43798000237328" cy="245.72449822845937" r="5.727082049442139" fill="#CFAE58" opacity="0.13397854040416685"/>
  <circle cx="316.7805549963317" cy="40.4577745325115" r="4.903403241577561" fill="#CFAE58" opacity="0.10195012094636481"/>
  <circle cx="969.6209127299297" cy="153.18006273592619" r="2.290263597791258" fill="#CFAE58" opacity="0.24243711603775162"/>
  <circle cx="193.46234095715212" cy="297.4597847495168" r="5.802546804348971" fill="#CFAE58" opacity="0.18627361232023368"/>
  <circle cx="928.4276461851576" cy="268.37085343873" r="2.9510887111760984" fill="#CFAE58" opacity="0.1803679558201019"/>
  <circle cx="104.25991627770088" cy="83.11152095675816" r="5.133213995946965" fill="#CFAE58" opacity="0.2302979269394255"/>
  <circle cx="376.7206587262792" cy="547.0875785324298" r="5.723618686879371" fill="#CFAE58" opacity="0.16147936607641522"/>
  <circle cx="246.74787931253684" cy="323.2313035743418" r="5.584152852369801" fill="#CFAE58" opacity="0.13865510503004377"/>
  <circle cx="187.96642525835813" cy="196.65143294402867" r="2.9048516118846806" fill="#CFAE58" opacity="0.2134966680569625"/>
  <circle cx="782.1126035499171" cy="20.832159930279165" r="2.588601848147963" fill="#CFAE58" opacity="0.16685563994826064"/>
  <circle cx="1129.4979076531017" cy="435.60608003124617" r="2.4444705797771253" fill="#CFAE58" opacity="0.15945689883339748"/>
  <circle cx="1018.7545718825357" cy="0.30759729720049256" r="3.564222211645355" fill="#CFAE58" opacity="0.16530715903250273"/>
  <circle cx="985.0791494055779" cy="137.70806162814353" r="5.86059907596185" fill="#CFAE58" opacity="0.12604635818205392"/>
  <circle cx="812.4194328950465" cy="434.4108333812843" r="4.237085616167276" fill="#CFAE58" opacity="0.17540770911898612"/>
  <circle cx="47.973063763604394" cy="187.57970201527976" r="3.4682589098020635" fill="#CFAE58" opacity="0.12390655081311397"/>
  <circle cx="595.5954608718408" cy="106.0697623794582" r="3.3728175233887585" fill="#CFAE58" opacity="0.1333143818275957"/>
  <circle cx="847.8196418925453" cy="172.75797696506135" r="4.680481123505613" fill="#CFAE58" opacity="0.22890206954337244"/>
  <circle cx="1033.4523685523736" cy="75.66114331117127" r="3.1679713875529134" fill="#CFAE58" opacity="0.15975654471036133"/>
  <circle cx="476.2788236065976" cy="448.5999403407276" r="2.1858481619739094" fill="#CFAE58" opacity="0.14845294238368378"/>
  <circle cx="623.02563659942" cy="78.84687855056771" r="4.956020880117254" fill="#CFAE58" opacity="0.11872649510494185"/>
  <circle cx="677.7533335424398" cy="407.10995596620273" r="5.706856177702415" fill="#CFAE58" opacity="0.17811591865073356"/>
  <circle cx="810.3894378371851" cy="384.28256355013025" r="5.491731136554605" fill="#CFAE58" opacity="0.17036012229236164"/>
  <circle cx="512.9407580974621" cy="27.026387160596" r="4.349334213513643" fill="#CFAE58" opacity="0.22157075394806508"/>
  <circle cx="285.9661661826792" cy="614.044840278504" r="5.599226539692918" fill="#CFAE58" opacity="0.10603863747628034"/>
  <circle cx="756.5027192920495" cy="187.30626570639183" r="4.981544650497636" fill="#CFAE58" opacity="0.1204304184817632"/>
  <circle cx="638.2189863314561" cy="37.16202237811454" r="5.822844243780938" fill="#CFAE58" opacity="0.17958553110176895"/>

  <!-- Border with glow -->
  <rect x="40" y="40" width="1120" height="550" fill="none" stroke="url(#goldGradient)" stroke-width="3" rx="12" filter="url(#softGlow)"/>

  <!-- Icon circle with premium background -->
  <circle cx="150" cy="200" r="75" fill="#CFAE58" opacity="0.15" filter="url(#softGlow)"/>
  <circle cx="150" cy="200" r="70" fill="#CFAE58" opacity="0.25"/>
  <text x="150" y="235" font-size="90" text-anchor="middle" fill="#CFAE58" filter="url(#glow)">🏠</text>

  <!-- Premium logo (crown) with enhanced styling -->
  <g transform="translate(100, 70)">
    <path d="M 30 20 L 40 35 L 35 35 Z M 50 15 L 60 35 L 45 35 Z M 65 20 L 75 35 L 70 35 Z M 30 35 L 75 35 L 73 45 L 32 45 Z"
          fill="url(#goldGradient)" filter="url(#glow)" stroke="#B89842" stroke-width="0.5"/>
    <circle cx="40" cy="25" r="3" fill="#4FD1C5" filter="url(#glow)"/>
    <circle cx="52" cy="20" r="4" fill="#4FD1C5" filter="url(#glow)"/>
    <circle cx="65" cy="25" r="3" fill="#4FD1C5" filter="url(#glow)"/>
  </g>

  <!-- Title with shadow -->
  <text x="280" y="180" font-family="Georgia, serif" font-size="72" font-weight="bold"
        fill="url(#goldGradient)" filter="url(#shadow)">From Roe to Royal</text>

  <!-- Subtitle with subtle glow -->
  <text x="280" y="230" font-family="Arial, sans-serif" font-size="36"
        fill="#D6DEE6" opacity="0.95" filter="url(#softGlow)">Premium Salmon Hatchery &amp; Caviar</text>

  <!-- Brand name with letter spacing -->
  <text x="280" y="300" font-family="Georgia, serif" font-size="32" font-weight="bold"
        fill="#CFAE58" letter-spacing="4" filter="url(#glow)">ROYAL KETA</text>

  <!-- Russian tagline -->
  <text x="280" y="340" font-family="Arial, sans-serif" font-size="22" font-style="italic"
        fill="#8B95A1" opacity="0.8">От икринки к королевской</text>

  <!-- Location -->
  <text x="280" y="380" font-family="Arial, sans-serif" font-size="20"
        fill="#8B95A1" opacity="0.7">Невельский район, Сахалин</text>

  <!-- Website with glow -->
  <text x="100" y="570" font-family="Arial, sans-serif" font-size="30" font-weight="bold"
        fill="#4FD1C5" filter="url(#glow)">royalketa.com</text>

  <!-- Enhanced decorative salmon silhouette -->
  <g transform="translate(950, 480)" opacity="0.2" filter="url(#softGlow)">
    <ellipse cx="0" cy="0" rx="90" ry="35" fill="#CFAE58"/>
    <path d="M 90 0 L 120 -18 L 130 0 L 120 18 Z" fill="#CFAE58"/>
    <path d="M -25 -35 L 0 -45 L 25 -35 Z" fill="#CFAE58"/>
    <ellipse cx="-50" cy="0" rx="15" ry="12" fill="#0B0F14"/>
  </g>

  <!-- Additional decorative caviar clusters -->
  <g opacity="0.2">
    <circle cx="1050" cy="120" r="6" fill="#CFAE58"/>
    <circle cx="1065" cy="115" r="5" fill="#CFAE58"/>
    <circle cx="1058" cy="130" r="4" fill="#CFAE58"/>
    <circle cx="150" cy="500" r="5" fill="#4FD1C5"/>
    <circle cx="165" cy="508" r="4" fill="#4FD1C5"/>
    <circle cx="140" cy="512" r="5" fill="#4FD1C5"/>
  </g>
</svg>