<svg width="1200" height="630" xmlns="http://www.w3.org/2000/svg">
  <defs>
    <linearGradient id="bgGradient" x1="0%" y1="0%" x2="100%" y2="100%">
      <stop offset="0%" style="stop-color:#0B0F14;stop-opacity:1" />
      <stop offset="50%" style="stop-color:#0F1619;stop-opacity:1" />
      <stop offset="100%" style="stop-color:#0F1922;stop-opacity:1" />
    </linearGradient>
    <linearGradient id="goldGradient" x1="0%" y1="0%" x2="100%" y2="0%">
      <stop offset="0%" style="stop-color:#E5D596;stop-opacity:1" />
      <stop offset="50%" style="stop-color:#CFAE58;stop-opacity:1" />
      <stop offset="100%" style="stop-color:#B89842;stop-opacity:1" />
    </linearGradient>
    <radialGradient id="oceanGradient" cx="50%" cy="50%" r="50%">
      <stop offset="0%" style="stop-color:#4FD1C5;stop-opacity:0.3" />
      <stop offset="100%" style="stop-color:#1E90A0;stop-opacity:0.05" />
    </radialGradient>
    <filter id="glow">
      <feGaussianBlur stdDeviation="5" result="coloredBlur"/>
      <feMerge>
        <feMergeNode in="coloredBlur"/>
        <feMergeNode in="SourceGraphic"/>
      </feMerge>
    </filter>
    <filter id="softGlow">
      <feGaussianBlur stdDeviation="8" result="coloredBlur"/>
      <feMerge>
        <feMergeNode in="coloredBlur"/>
        <feMergeNode in="SourceGraphic"/>
      </feMerge>
    </filter>
    <filter id="shadow">
      <feDropShadow dx="0" dy="4" stdDeviation="8" flood-color="#000000" flood-opacity="0.5"/>
    </filter>
  </defs>

  <!-- Background -->
  <rect width="1200" height="630" fill="url(#bgGradient)"/>

  <!-- Decorative ocean gradients -->
  <ellipse cx="1000" cy="150" rx="300" ry="200" fill="url(#oceanGradient)" opacity="0.4"/>
  <ellipse cx="200" cy="530" rx="250" ry="180" fill="url(#oceanGradient)" opacity="0.3"/>

  <!-- Wave patterns -->
  <path d="M 0 400 Q 300 350 600 400 T 1200 400 L 1200 630 L 0 630 Z" fill="#1E90A0" opacity="0.08"/>
  <path d="M 0 450 Q 250 420 500 450 T 1000 450 T 1200 450 L 1200 630 L 0 630 Z" fill="#4FD1C5" opacity="0.05"/>

  <!-- Caviar roe particles -->
  <circle cx="640.4225568265156" cy="159.71474643086233" r="2.0300945222009608" fill="#CFAE58" opacity="0.14684417352378326"/>
  <circle cx="772.6704478940057" cy="498.03486488707534" r="2.3795988391880787" fill="#CFAE58" opacity="0.1050843391467659"/>
  <circle cx="799.973162808621" cy="267.37504702906017" r="2.097127318817412" fill="#CFAE58" opacity="0.1221004243343875"/>
  <circle cx="436.5954629919783" cy="433.15577550423245" r="5.890697993582591" fill="#CFAE58" opacity="0.10285795278975086"/>
  <circle cx="216.75951398516878" cy="184.02945715297744" r="4.289439183633046" fill="#CFAE58" opacity="0.23015437170706768"/>
  <circle cx="1114.973635309122" cy="101.31000352625458" r="4.864242769262088" fill="#CFAE58" opacity="0.1640211096370992"/>
  <circle cx="355.91677234341904" cy="468.0181914953304" r="4.029618956419375" fill="#CFAE58" opacity="0.2046673873494445"/>
  <circle cx="39.52020136693504" cy="203.65180862937166" r="2.6779701445288993" fill="#CFAE58" opacity="0.20695671098029794"/>
  <circle cx="581.089625202103" cy="83.2502475273015" r="5.256493349161704" fill="#CFAE58" opacity="0.1860985944496515"/>
  <circle cx="963.9980162881411" cy="388.584701910045" r="3.5001264517464667" fill="#CFAE58" opacity="0.1281355286396354"/>
  <circle cx="625.3583670206724" cy="125.88321095563973" r="5.770759238131603" fill="#CFAE58" opacity="0.2243854597839281"/>
  <circle cx="865.0369571078197" cy="546.9298935506977" r="4.245291667109907" fill="#CFAE58" opacity="0.23971617370803722"/>
  <circle cx="781.2879723076205" cy="216.52112801697254" r="2.8680724033113307" fill="#CFAE58" opacity="0.21427867362423364"/>
  <circle cx="435.6351839794619" cy="251.40232262069574" r="4.2605655983371244" fill="#CFAE58" opacity="0.22941349444539252"/>
  <circle cx="312.4344431846998" cy="365.92078644852467" r="3.250695955219844" fill="#CFAE58" opacity="0.19660571890862594"/>
  <circle cx="1133.2961110783529" cy="217.96052495693584" r="3.1901974183865427" fill="#CFAE58" opacity="0.2203594240706936"/>
  <circle cx="627.3058549701253" cy="17.881753807811346" r="3.4803613948831575" fill="#CFAE58" opacity="0.24420783556326323"/>
  <circle cx="1152.6087805184447" cy="8.545839940581592" r="2.3860473301007845" fill="#CFAE58" opacity="0.14799715202414987"/>
  <circle cx="1184.579617112376" cy="389.3101437764357" r="5.82769517320569" fill="#CFAE58" opacity="0.1527587865072673"/>
  <circle cx="1038.9573741738282" cy="180.594556202692" r="5.84755153017266" fill="#CFAE58" opacity="0.20750447568563662"/>
  <circle cx="428.6071446680899" cy="144.24083089440262" r="4.988054690528964" fill="#CFAE58" opacity="0.1240684927929767"/>
  <circle cx="2.789009391535835" cy="575.5361930516166" r="4.180889790571852" fill="#CFAE58" opacity="0.20085157405065512"/>
  <circle cx="1062.108960614585" cy="22.68851595603281" r="2.8272432673009407" fill="#CFAE58" opacity="0.14247901069799254"/>
  <circle cx="55.36171901384171" cy="590.2733486072831" r="5.321704954859964" fill="#CFAE58" opacity="0.1915785667738247"/>
  <circle cx="855.9740056884033" cy="614.8859643177918" r="3.129842771327554" fill="#CFAE58" opacity="0.14446449837143885"/>
  <circle cx="286.8464819770246" cy="478.68574187037075" r="3.875635399896394" fill="#CFAE58" opacity="0.11887981184026376"/>
  <circle cx="824.8924209465521" cy="39.56002274823233" r="2.8890030515327156" fill="#CFAE58" opacity="0.14620774505881243"/>
  <circle cx="463.99370400409515" cy="96.44767966709729" r="2.4751912870312474" fill="#CFAE58" opacity="0.20211821657595885"/>
  <circle cx="684.6219253767505" cy="403.882636420754" r="4.4028771815053185" fill="#CFAE58" opacity="0.15051201143459825"/>
  <circle cx="818.5016699385241" cy="219.0424105931779" r="4.8859364077195195" fill="#CFAE58" opacity="0.12112902591992875"/>

  <!-- Border with glow -->
  <rect x="40" y="40" width="1120" height="550" fill="none" stroke="url(#goldGradient)" stroke-width="3" rx="12" filter="url(#softGlow)"/>

  <!-- Icon circle with premium background -->
  <circle cx="150" cy="200" r="75" fill="#CFAE58" opacity="0.15" filter="url(#softGlow)"/>
  <circle cx="150" cy="200" r="70" fill="#CFAE58" opacity="0.25"/>
  <text x="150" y="235" font-size="90" text-anchor="middle" fill="#CFAE58" filter="url(#glow)">🏠</text>

  <!-- Premium logo (crown) with enhanced styling -->
  <g transform="translate(100, 70)">
    <path d="M 30 20 L 40 35 L 35 35 Z M 50 15 L 60 35 L 45 35 Z M 65 20 L 75 35 L 70 35 Z M 30 35 L 75 35 L 73 45 L 32 45 Z"
          fill="url(#goldGradient)" filter="url(#glow)" stroke="#B89842" stroke-width="0.5"/>
    <circle cx="40" cy="25" r="3" fill="#4FD1C5" filter="url(#glow)"/>
    <circle cx="52" cy="20" r="4" fill="#4FD1C5" filter="url(#glow)"/>
    <circle cx="65" cy="25" r="3" fill="#4FD1C5" filter="url(#glow)"/>
  </g>

  <!-- Title with shadow -->
  <text x="280" y="180" font-family="Georgia, serif" font-size="72" font-weight="bold"
        fill="url(#goldGradient)" filter="url(#shadow)">From Roe to Royal</text>

  <!-- Subtitle with subtle glow -->
  <text x="280" y="230" font-family="Arial, sans-serif" font-size="36"
        fill="#D6DEE6" opacity="0.95" filter="url(#softGlow)">Premium Salmon Hatchery & Caviar</text>

  <!-- Brand name with letter spacing -->
  <text x="280" y="300" font-family="Georgia, serif" font-size="32" font-weight="bold"
        fill="#CFAE58" letter-spacing="4" filter="url(#glow)">ROYAL KETA</text>

  <!-- Russian tagline -->
  <text x="280" y="340" font-family="Arial, sans-serif" font-size="22" font-style="italic"
        fill="#8B95A1" opacity="0.8">От икринки к королевской</text>

  <!-- Location -->
  <text x="280" y="380" font-family="Arial, sans-serif" font-size="20"
        fill="#8B95A1" opacity="0.7">Невельский район, Сахалин</text>

  <!-- Website with glow -->
  <text x="100" y="570" font-family="Arial, sans-serif" font-size="30" font-weight="bold"
        fill="#4FD1C5" filter="url(#glow)">royalketa.com</text>

  <!-- Enhanced decorative salmon silhouette -->
  <g transform="translate(950, 480)" opacity="0.2" filter="url(#softGlow)">
    <ellipse cx="0" cy="0" rx="90" ry="35" fill="#CFAE58"/>
    <path d="M 90 0 L 120 -18 L 130 0 L 120 18 Z" fill="#CFAE58"/>
    <path d="M -25 -35 L 0 -45 L 25 -35 Z" fill="#CFAE58"/>
    <ellipse cx="-50" cy="0" rx="15" ry="12" fill="#0B0F14"/>
  </g>

  <!-- Additional decorative caviar clusters -->
  <g opacity="0.2">
    <circle cx="1050" cy="120" r="6" fill="#CFAE58"/>
    <circle cx="1065" cy="115" r="5" fill="#CFAE58"/>
    <circle cx="1058" cy="130" r="4" fill="#CFAE58"/>
    <circle cx="150" cy="500" r="5" fill="#4FD1C5"/>
    <circle cx="165" cy="508" r="4" fill="#4FD1C5"/>
    <circle cx="140" cy="512" r="5" fill="#4FD1C5"/>
  </g>
</svg>