<svg width="1200" height="630" xmlns="http://www.w3.org/2000/svg">
  <defs>
    <linearGradient id="bgGradient" x1="0%" y1="0%" x2="100%" y2="100%">
      <stop offset="0%" style="stop-color:#0B0F14;stop-opacity:1" />
      <stop offset="50%" style="stop-color:#0F1619;stop-opacity:1" />
      <stop offset="100%" style="stop-color:#0F1922;stop-opacity:1" />
    </linearGradient>
    <linearGradient id="goldGradient" x1="0%" y1="0%" x2="100%" y2="0%">
      <stop offset="0%" style="stop-color:#E5D596;stop-opacity:1" />
      <stop offset="50%" style="stop-color:#CFAE58;stop-opacity:1" />
      <stop offset="100%" style="stop-color:#B89842;stop-opacity:1" />
    </linearGradient>
    <radialGradient id="oceanGradient" cx="50%" cy="50%" r="50%">
      <stop offset="0%" style="stop-color:#4FD1C5;stop-opacity:0.3" />
      <stop offset="100%" style="stop-color:#1E90A0;stop-opacity:0.05" />
    </radialGradient>
    <filter id="glow">
      <feGaussianBlur stdDeviation="5" result="coloredBlur"/>
      <feMerge>
        <feMergeNode in="coloredBlur"/>
        <feMergeNode in="SourceGraphic"/>
      </feMerge>
    </filter>
    <filter id="softGlow">
      <feGaussianBlur stdDeviation="8" result="coloredBlur"/>
      <feMerge>
        <feMergeNode in="coloredBlur"/>
        <feMergeNode in="SourceGraphic"/>
      </feMerge>
    </filter>
    <filter id="shadow">
      <feDropShadow dx="0" dy="4" stdDeviation="8" flood-color="#000000" flood-opacity="0.5"/>
    </filter>
  </defs>

  <!-- Background -->
  <rect width="1200" height="630" fill="url(#bgGradient)"/>

  <!-- Decorative ocean gradients -->
  <ellipse cx="1000" cy="150" rx="300" ry="200" fill="url(#oceanGradient)" opacity="0.4"/>
  <ellipse cx="200" cy="530" rx="250" ry="180" fill="url(#oceanGradient)" opacity="0.3"/>

  <!-- Wave patterns -->
  <path d="M 0 400 Q 300 350 600 400 T 1200 400 L 1200 630 L 0 630 Z" fill="#1E90A0" opacity="0.08"/>
  <path d="M 0 450 Q 250 420 500 450 T 1000 450 T 1200 450 L 1200 630 L 0 630 Z" fill="#4FD1C5" opacity="0.05"/>

  <!-- Caviar roe particles -->
  <circle cx="143.03689900987476" cy="54.27715256745437" r="5.413290893650494" fill="#CFAE58" opacity="0.17302755160759667"/>
  <circle cx="484.400475879808" cy="470.9128457630079" r="4.792447288951854" fill="#CFAE58" opacity="0.11249355250595071"/>
  <circle cx="883.1657563620222" cy="200.41597497766182" r="2.4885544522910186" fill="#CFAE58" opacity="0.1870748553438461"/>
  <circle cx="582.8998041463402" cy="451.38799612817803" r="3.740323849610708" fill="#CFAE58" opacity="0.23747884389040003"/>
  <circle cx="330.7930130437095" cy="465.95863375978143" r="4.287277418454344" fill="#CFAE58" opacity="0.21842993310443912"/>
  <circle cx="307.13511964766377" cy="0.7099037286736243" r="3.8522754745207424" fill="#CFAE58" opacity="0.16132402632502074"/>
  <circle cx="308.42948552261083" cy="138.36142453391957" r="2.613093552715066" fill="#CFAE58" opacity="0.20680317868909298"/>
  <circle cx="1014.2753055915867" cy="101.7879648103607" r="5.693125779508838" fill="#CFAE58" opacity="0.17829681490274027"/>
  <circle cx="859.8521045826417" cy="235.46957363871778" r="5.158708637417002" fill="#CFAE58" opacity="0.10245707456833339"/>
  <circle cx="793.0727581478035" cy="316.4246204115994" r="2.236750197615611" fill="#CFAE58" opacity="0.21442742289305555"/>
  <circle cx="1194.7941108937473" cy="119.66203838757238" r="5.463114298644354" fill="#CFAE58" opacity="0.12020427244333799"/>
  <circle cx="328.2909001145113" cy="205.60297819994895" r="5.709819303703802" fill="#CFAE58" opacity="0.1825786387107307"/>
  <circle cx="1109.1521574812737" cy="607.9456344558803" r="2.712224584092316" fill="#CFAE58" opacity="0.20810220336192142"/>
  <circle cx="534.1654144909943" cy="521.882030111873" r="3.333615751455648" fill="#CFAE58" opacity="0.17527691134210963"/>
  <circle cx="95.71920705546529" cy="453.2565902314471" r="2.533919122872839" fill="#CFAE58" opacity="0.15274177342844245"/>
  <circle cx="960.1152000854307" cy="300.49384626494424" r="2.117305132155612" fill="#CFAE58" opacity="0.11856868952779254"/>
  <circle cx="200.5017108183205" cy="373.4695513629453" r="5.970154887204282" fill="#CFAE58" opacity="0.13042301569768738"/>
  <circle cx="507.0815037020523" cy="191.38858966058294" r="3.234084336225446" fill="#CFAE58" opacity="0.11607156565835047"/>
  <circle cx="361.91469615635634" cy="232.83632297216988" r="3.18373458166017" fill="#CFAE58" opacity="0.14795593501955212"/>
  <circle cx="245.52829478728998" cy="621.3863883534427" r="5.331856305039292" fill="#CFAE58" opacity="0.14802730330567124"/>
  <circle cx="867.5181257599156" cy="279.52861400008004" r="2.05122222707179" fill="#CFAE58" opacity="0.1141285613275092"/>
  <circle cx="389.8594784210542" cy="133.20173357005223" r="2.644078873472565" fill="#CFAE58" opacity="0.2015759294572389"/>
  <circle cx="1146.5275441973204" cy="612.4195297285137" r="5.496629155272674" fill="#CFAE58" opacity="0.20638637970052665"/>
  <circle cx="319.2289610907083" cy="495.68380832386356" r="3.598753413419315" fill="#CFAE58" opacity="0.1131103645091862"/>
  <circle cx="123.4559176888161" cy="221.84939525480522" r="4.64005179800067" fill="#CFAE58" opacity="0.21928400797211256"/>
  <circle cx="337.90872140745967" cy="519.058215665982" r="5.444975984336429" fill="#CFAE58" opacity="0.14751664471361525"/>
  <circle cx="218.194004109243" cy="333.128533632043" r="3.1702255666401618" fill="#CFAE58" opacity="0.12404269385328333"/>
  <circle cx="156.58310793912253" cy="318.9703749994926" r="5.508073926893169" fill="#CFAE58" opacity="0.11854523113578408"/>
  <circle cx="801.6033165866695" cy="603.9710690844809" r="3.082716515560465" fill="#CFAE58" opacity="0.16940837695687194"/>
  <circle cx="684.8189777634343" cy="532.2490987870478" r="2.078975348403012" fill="#CFAE58" opacity="0.1383835127194112"/>

  <!-- Border with glow -->
  <rect x="40" y="40" width="1120" height="550" fill="none" stroke="url(#goldGradient)" stroke-width="3" rx="12" filter="url(#softGlow)"/>

  <!-- Icon circle with premium background -->
  <circle cx="150" cy="200" r="75" fill="#CFAE58" opacity="0.15" filter="url(#softGlow)"/>
  <circle cx="150" cy="200" r="70" fill="#CFAE58" opacity="0.25"/>
  <text x="150" y="235" font-size="90" text-anchor="middle" fill="#CFAE58" filter="url(#glow)">🏠</text>

  <!-- Premium logo (crown) with enhanced styling -->
  <g transform="translate(100, 70)">
    <path d="M 30 20 L 40 35 L 35 35 Z M 50 15 L 60 35 L 45 35 Z M 65 20 L 75 35 L 70 35 Z M 30 35 L 75 35 L 73 45 L 32 45 Z"
          fill="url(#goldGradient)" filter="url(#glow)" stroke="#B89842" stroke-width="0.5"/>
    <circle cx="40" cy="25" r="3" fill="#4FD1C5" filter="url(#glow)"/>
    <circle cx="52" cy="20" r="4" fill="#4FD1C5" filter="url(#glow)"/>
    <circle cx="65" cy="25" r="3" fill="#4FD1C5" filter="url(#glow)"/>
  </g>

  <!-- Title with shadow -->
  <text x="280" y="180" font-family="Georgia, serif" font-size="72" font-weight="bold"
        fill="url(#goldGradient)" filter="url(#shadow)">From Roe to Royal</text>

  <!-- Subtitle with subtle glow -->
  <text x="280" y="230" font-family="Arial, sans-serif" font-size="36"
        fill="#D6DEE6" opacity="0.95" filter="url(#softGlow)">Premium Salmon Hatchery &amp; Caviar</text>

  <!-- Brand name with letter spacing -->
  <text x="280" y="300" font-family="Georgia, serif" font-size="32" font-weight="bold"
        fill="#CFAE58" letter-spacing="4" filter="url(#glow)">ROYAL KETA</text>

  <!-- Russian tagline -->
  <text x="280" y="340" font-family="Arial, sans-serif" font-size="22" font-style="italic"
        fill="#8B95A1" opacity="0.8">От икринки к королевской</text>

  <!-- Location -->
  <text x="280" y="380" font-family="Arial, sans-serif" font-size="20"
        fill="#8B95A1" opacity="0.7">Невельский район, Сахалин</text>

  <!-- Website with glow -->
  <text x="100" y="570" font-family="Arial, sans-serif" font-size="30" font-weight="bold"
        fill="#4FD1C5" filter="url(#glow)">royalketa.com</text>

  <!-- Enhanced decorative salmon silhouette -->
  <g transform="translate(950, 480)" opacity="0.2" filter="url(#softGlow)">
    <ellipse cx="0" cy="0" rx="90" ry="35" fill="#CFAE58"/>
    <path d="M 90 0 L 120 -18 L 130 0 L 120 18 Z" fill="#CFAE58"/>
    <path d="M -25 -35 L 0 -45 L 25 -35 Z" fill="#CFAE58"/>
    <ellipse cx="-50" cy="0" rx="15" ry="12" fill="#0B0F14"/>
  </g>

  <!-- Additional decorative caviar clusters -->
  <g opacity="0.2">
    <circle cx="1050" cy="120" r="6" fill="#CFAE58"/>
    <circle cx="1065" cy="115" r="5" fill="#CFAE58"/>
    <circle cx="1058" cy="130" r="4" fill="#CFAE58"/>
    <circle cx="150" cy="500" r="5" fill="#4FD1C5"/>
    <circle cx="165" cy="508" r="4" fill="#4FD1C5"/>
    <circle cx="140" cy="512" r="5" fill="#4FD1C5"/>
  </g>
</svg>