<svg width="1200" height="630" xmlns="http://www.w3.org/2000/svg">
  <defs>
    <linearGradient id="bgGradient" x1="0%" y1="0%" x2="100%" y2="100%">
      <stop offset="0%" style="stop-color:#0B0F14;stop-opacity:1" />
      <stop offset="50%" style="stop-color:#0F1619;stop-opacity:1" />
      <stop offset="100%" style="stop-color:#0F1922;stop-opacity:1" />
    </linearGradient>
    <linearGradient id="goldGradient" x1="0%" y1="0%" x2="100%" y2="0%">
      <stop offset="0%" style="stop-color:#E5D596;stop-opacity:1" />
      <stop offset="50%" style="stop-color:#CFAE58;stop-opacity:1" />
      <stop offset="100%" style="stop-color:#B89842;stop-opacity:1" />
    </linearGradient>
    <radialGradient id="oceanGradient" cx="50%" cy="50%" r="50%">
      <stop offset="0%" style="stop-color:#4FD1C5;stop-opacity:0.3" />
      <stop offset="100%" style="stop-color:#1E90A0;stop-opacity:0.05" />
    </radialGradient>
    <filter id="glow">
      <feGaussianBlur stdDeviation="5" result="coloredBlur"/>
      <feMerge>
        <feMergeNode in="coloredBlur"/>
        <feMergeNode in="SourceGraphic"/>
      </feMerge>
    </filter>
    <filter id="softGlow">
      <feGaussianBlur stdDeviation="8" result="coloredBlur"/>
      <feMerge>
        <feMergeNode in="coloredBlur"/>
        <feMergeNode in="SourceGraphic"/>
      </feMerge>
    </filter>
    <filter id="shadow">
      <feDropShadow dx="0" dy="4" stdDeviation="8" flood-color="#000000" flood-opacity="0.5"/>
    </filter>
  </defs>

  <!-- Background -->
  <rect width="1200" height="630" fill="url(#bgGradient)"/>

  <!-- Decorative ocean gradients -->
  <ellipse cx="1000" cy="150" rx="300" ry="200" fill="url(#oceanGradient)" opacity="0.4"/>
  <ellipse cx="200" cy="530" rx="250" ry="180" fill="url(#oceanGradient)" opacity="0.3"/>

  <!-- Wave patterns -->
  <path d="M 0 400 Q 300 350 600 400 T 1200 400 L 1200 630 L 0 630 Z" fill="#1E90A0" opacity="0.08"/>
  <path d="M 0 450 Q 250 420 500 450 T 1000 450 T 1200 450 L 1200 630 L 0 630 Z" fill="#4FD1C5" opacity="0.05"/>

  <!-- Caviar roe particles -->
  <circle cx="967.4881463811186" cy="271.422817708192" r="5.648385184470781" fill="#CFAE58" opacity="0.15377921813572465"/>
  <circle cx="1067.692039222812" cy="612.5467240470964" r="4.026839067416538" fill="#CFAE58" opacity="0.20672532577161956"/>
  <circle cx="483.99085746565254" cy="373.6783747773925" r="4.602125804995549" fill="#CFAE58" opacity="0.13651820526051145"/>
  <circle cx="52.731596620957966" cy="260.4298196134946" r="2.531361223994578" fill="#CFAE58" opacity="0.10122078576459183"/>
  <circle cx="348.98320421870136" cy="184.65089779406054" r="5.620443297186958" fill="#CFAE58" opacity="0.16419977702939992"/>
  <circle cx="973.8760861948645" cy="487.42156585988573" r="2.7550793765229544" fill="#CFAE58" opacity="0.15980821067838707"/>
  <circle cx="760.5191166511602" cy="182.06022489703344" r="2.1113824488424724" fill="#CFAE58" opacity="0.23603305194654162"/>
  <circle cx="920.8053831798748" cy="458.77089972775707" r="5.751102712076239" fill="#CFAE58" opacity="0.15878299201157098"/>
  <circle cx="1185.3569138578648" cy="189.9937803116844" r="4.956199670024023" fill="#CFAE58" opacity="0.1758766611204537"/>
  <circle cx="920.4308465618484" cy="112.80631759966145" r="2.557361502482549" fill="#CFAE58" opacity="0.1361416614494289"/>
  <circle cx="102.1973198922658" cy="318.78360607044493" r="3.769541690159728" fill="#CFAE58" opacity="0.22927478862059236"/>
  <circle cx="1132.7119389177872" cy="409.2808035370793" r="5.8317421131204465" fill="#CFAE58" opacity="0.1297239252696461"/>
  <circle cx="1160.683706467121" cy="41.50908191204738" r="2.114752710050017" fill="#CFAE58" opacity="0.1606647808140813"/>
  <circle cx="17.194946566919178" cy="479.9044908643672" r="5.140584961208673" fill="#CFAE58" opacity="0.21887895025668883"/>
  <circle cx="1179.554411255026" cy="506.14607959144087" r="5.966030500567418" fill="#CFAE58" opacity="0.11242918036542249"/>
  <circle cx="474.36712561679445" cy="338.81577186665294" r="2.434204562259862" fill="#CFAE58" opacity="0.23320716218007836"/>
  <circle cx="881.3988073659169" cy="624.1611932499402" r="5.033923394070831" fill="#CFAE58" opacity="0.10717267755276778"/>
  <circle cx="1009.0454719958047" cy="37.45117812421864" r="4.333827639300899" fill="#CFAE58" opacity="0.18946415205286954"/>
  <circle cx="589.1762407095424" cy="81.05335678055837" r="2.783177583018217" fill="#CFAE58" opacity="0.10313346551221589"/>
  <circle cx="1101.5486048863315" cy="507.53765257556563" r="2.9025202337726785" fill="#CFAE58" opacity="0.20011440570023267"/>
  <circle cx="627.6057371819123" cy="506.4648042320837" r="5.602443543501879" fill="#CFAE58" opacity="0.16823824713109414"/>
  <circle cx="977.6622189681461" cy="367.21983465048294" r="4.3717769726811095" fill="#CFAE58" opacity="0.23258952876046735"/>
  <circle cx="246.16788682954018" cy="448.0812619196636" r="4.389609862997732" fill="#CFAE58" opacity="0.13764153896517056"/>
  <circle cx="956.5559980044559" cy="198.83477254232037" r="3.6007265945183944" fill="#CFAE58" opacity="0.24046495880564087"/>
  <circle cx="880.2805703200617" cy="306.9506705277995" r="3.350539954604548" fill="#CFAE58" opacity="0.2220987495061102"/>
  <circle cx="364.8151583215887" cy="172.06020980087223" r="5.682399219986505" fill="#CFAE58" opacity="0.17055607741993495"/>
  <circle cx="882.2452336202371" cy="193.77002975647693" r="5.894135020110299" fill="#CFAE58" opacity="0.14635406084800845"/>
  <circle cx="1131.3826960362155" cy="29.956078421003056" r="5.459991037850303" fill="#CFAE58" opacity="0.14821679315667216"/>
  <circle cx="123.32719571414721" cy="74.88693626803393" r="2.3239860844139937" fill="#CFAE58" opacity="0.1535068926527628"/>
  <circle cx="645.5285703906575" cy="317.47515636411356" r="2.108304527308044" fill="#CFAE58" opacity="0.12233326374191837"/>

  <!-- Border with glow -->
  <rect x="40" y="40" width="1120" height="550" fill="none" stroke="url(#goldGradient)" stroke-width="3" rx="12" filter="url(#softGlow)"/>

  <!-- Icon circle with premium background -->
  <circle cx="150" cy="200" r="75" fill="#CFAE58" opacity="0.15" filter="url(#softGlow)"/>
  <circle cx="150" cy="200" r="70" fill="#CFAE58" opacity="0.25"/>
  <text x="150" y="235" font-size="90" text-anchor="middle" fill="#CFAE58" filter="url(#glow)">🏠</text>

  <!-- Premium logo (crown) with enhanced styling -->
  <g transform="translate(100, 70)">
    <path d="M 30 20 L 40 35 L 35 35 Z M 50 15 L 60 35 L 45 35 Z M 65 20 L 75 35 L 70 35 Z M 30 35 L 75 35 L 73 45 L 32 45 Z"
          fill="url(#goldGradient)" filter="url(#glow)" stroke="#B89842" stroke-width="0.5"/>
    <circle cx="40" cy="25" r="3" fill="#4FD1C5" filter="url(#glow)"/>
    <circle cx="52" cy="20" r="4" fill="#4FD1C5" filter="url(#glow)"/>
    <circle cx="65" cy="25" r="3" fill="#4FD1C5" filter="url(#glow)"/>
  </g>

  <!-- Title with shadow -->
  <text x="280" y="180" font-family="Georgia, serif" font-size="72" font-weight="bold"
        fill="url(#goldGradient)" filter="url(#shadow)">From Roe to Royal</text>

  <!-- Subtitle with subtle glow -->
  <text x="280" y="230" font-family="Arial, sans-serif" font-size="36"
        fill="#D6DEE6" opacity="0.95" filter="url(#softGlow)">Premium Salmon Hatchery &amp; Caviar</text>

  <!-- Brand name with letter spacing -->
  <text x="280" y="300" font-family="Georgia, serif" font-size="32" font-weight="bold"
        fill="#CFAE58" letter-spacing="4" filter="url(#glow)">ROYAL KETA</text>

  <!-- Russian tagline -->
  <text x="280" y="340" font-family="Arial, sans-serif" font-size="22" font-style="italic"
        fill="#8B95A1" opacity="0.8">От икринки к королевской</text>

  <!-- Location -->
  <text x="280" y="380" font-family="Arial, sans-serif" font-size="20"
        fill="#8B95A1" opacity="0.7">Невельский район, Сахалин</text>

  <!-- Website with glow -->
  <text x="100" y="570" font-family="Arial, sans-serif" font-size="30" font-weight="bold"
        fill="#4FD1C5" filter="url(#glow)">royalketa.com</text>

  <!-- Enhanced decorative salmon silhouette -->
  <g transform="translate(950, 480)" opacity="0.2" filter="url(#softGlow)">
    <ellipse cx="0" cy="0" rx="90" ry="35" fill="#CFAE58"/>
    <path d="M 90 0 L 120 -18 L 130 0 L 120 18 Z" fill="#CFAE58"/>
    <path d="M -25 -35 L 0 -45 L 25 -35 Z" fill="#CFAE58"/>
    <ellipse cx="-50" cy="0" rx="15" ry="12" fill="#0B0F14"/>
  </g>

  <!-- Additional decorative caviar clusters -->
  <g opacity="0.2">
    <circle cx="1050" cy="120" r="6" fill="#CFAE58"/>
    <circle cx="1065" cy="115" r="5" fill="#CFAE58"/>
    <circle cx="1058" cy="130" r="4" fill="#CFAE58"/>
    <circle cx="150" cy="500" r="5" fill="#4FD1C5"/>
    <circle cx="165" cy="508" r="4" fill="#4FD1C5"/>
    <circle cx="140" cy="512" r="5" fill="#4FD1C5"/>
  </g>
</svg>