<svg width="1200" height="630" xmlns="http://www.w3.org/2000/svg">
  <defs>
    <linearGradient id="bgGradient" x1="0%" y1="0%" x2="100%" y2="100%">
      <stop offset="0%" style="stop-color:#0B0F14;stop-opacity:1" />
      <stop offset="50%" style="stop-color:#0F1619;stop-opacity:1" />
      <stop offset="100%" style="stop-color:#0F1922;stop-opacity:1" />
    </linearGradient>
    <linearGradient id="goldGradient" x1="0%" y1="0%" x2="100%" y2="0%">
      <stop offset="0%" style="stop-color:#E5D596;stop-opacity:1" />
      <stop offset="50%" style="stop-color:#CFAE58;stop-opacity:1" />
      <stop offset="100%" style="stop-color:#B89842;stop-opacity:1" />
    </linearGradient>
    <radialGradient id="oceanGradient" cx="50%" cy="50%" r="50%">
      <stop offset="0%" style="stop-color:#4FD1C5;stop-opacity:0.3" />
      <stop offset="100%" style="stop-color:#1E90A0;stop-opacity:0.05" />
    </radialGradient>
    <filter id="glow">
      <feGaussianBlur stdDeviation="5" result="coloredBlur"/>
      <feMerge>
        <feMergeNode in="coloredBlur"/>
        <feMergeNode in="SourceGraphic"/>
      </feMerge>
    </filter>
    <filter id="softGlow">
      <feGaussianBlur stdDeviation="8" result="coloredBlur"/>
      <feMerge>
        <feMergeNode in="coloredBlur"/>
        <feMergeNode in="SourceGraphic"/>
      </feMerge>
    </filter>
    <filter id="shadow">
      <feDropShadow dx="0" dy="4" stdDeviation="8" flood-color="#000000" flood-opacity="0.5"/>
    </filter>
  </defs>

  <!-- Background -->
  <rect width="1200" height="630" fill="url(#bgGradient)"/>

  <!-- Decorative ocean gradients -->
  <ellipse cx="1000" cy="150" rx="300" ry="200" fill="url(#oceanGradient)" opacity="0.4"/>
  <ellipse cx="200" cy="530" rx="250" ry="180" fill="url(#oceanGradient)" opacity="0.3"/>

  <!-- Wave patterns -->
  <path d="M 0 400 Q 300 350 600 400 T 1200 400 L 1200 630 L 0 630 Z" fill="#1E90A0" opacity="0.08"/>
  <path d="M 0 450 Q 250 420 500 450 T 1000 450 T 1200 450 L 1200 630 L 0 630 Z" fill="#4FD1C5" opacity="0.05"/>

  <!-- Caviar roe particles -->
  <circle cx="905.2381694735836" cy="588.1500734048905" r="3.2884371235654344" fill="#CFAE58" opacity="0.10262893538225838"/>
  <circle cx="497.7951386373002" cy="518.2372337298073" r="3.2679681358980215" fill="#CFAE58" opacity="0.11042430827915722"/>
  <circle cx="1162.5996669257968" cy="591.1224071924042" r="3.319621257967124" fill="#CFAE58" opacity="0.13308734793081403"/>
  <circle cx="916.737940694817" cy="14.730551873597737" r="3.8780344694355593" fill="#CFAE58" opacity="0.15822986578627818"/>
  <circle cx="424.03382126943063" cy="93.24669375690164" r="5.284386004574063" fill="#CFAE58" opacity="0.11275581508435281"/>
  <circle cx="473.288388740367" cy="97.82965111366902" r="3.007661348752449" fill="#CFAE58" opacity="0.16074493528031372"/>
  <circle cx="292.82871727643067" cy="252.1274514886347" r="3.197032489988046" fill="#CFAE58" opacity="0.16126289235300428"/>
  <circle cx="1107.2380230701397" cy="238.88539137676085" r="3.5074610363056715" fill="#CFAE58" opacity="0.23416627460889655"/>
  <circle cx="768.6963778861649" cy="24.59069780681711" r="5.927470835572633" fill="#CFAE58" opacity="0.13667777415169566"/>
  <circle cx="411.42648273595006" cy="273.7603730825573" r="4.857813146177316" fill="#CFAE58" opacity="0.19635917230079425"/>
  <circle cx="96.00792318548086" cy="570.6619019945887" r="4.0582387151831565" fill="#CFAE58" opacity="0.12300009004075259"/>
  <circle cx="7.704111952961146" cy="383.25960349706264" r="4.843936048646505" fill="#CFAE58" opacity="0.1527298233650902"/>
  <circle cx="444.1458738813272" cy="227.99791043323816" r="2.1211238012594142" fill="#CFAE58" opacity="0.2445250334515176"/>
  <circle cx="822.714238740895" cy="148.22021947463358" r="2.3382542247144515" fill="#CFAE58" opacity="0.24580993922012195"/>
  <circle cx="591.5374625292574" cy="37.06903809795001" r="5.559831416159497" fill="#CFAE58" opacity="0.17976893891383833"/>
  <circle cx="99.56982068147893" cy="219.5576945237949" r="5.745523280906244" fill="#CFAE58" opacity="0.11704666620970863"/>
  <circle cx="389.69549354522866" cy="12.739846288122843" r="2.5382120394928744" fill="#CFAE58" opacity="0.20463380667836983"/>
  <circle cx="997.7863693081167" cy="387.7561199473759" r="5.86680972242813" fill="#CFAE58" opacity="0.21668829939782688"/>
  <circle cx="526.7260909134284" cy="384.32916123742" r="3.246868915342916" fill="#CFAE58" opacity="0.17107172012381003"/>
  <circle cx="218.91333025242378" cy="165.1497306118723" r="2.1364700292726884" fill="#CFAE58" opacity="0.16616166052111786"/>
  <circle cx="115.48410111131729" cy="338.8660080570427" r="3.8875226562172562" fill="#CFAE58" opacity="0.20441559427167227"/>
  <circle cx="1028.1598189823978" cy="383.9466516806087" r="3.2154965598137526" fill="#CFAE58" opacity="0.21674123566734144"/>
  <circle cx="858.5767138013781" cy="400.8568750833122" r="2.910451023942451" fill="#CFAE58" opacity="0.20527649226455502"/>
  <circle cx="673.9172493143443" cy="530.8062935366581" r="5.3463828831337645" fill="#CFAE58" opacity="0.24498763020905498"/>
  <circle cx="456.9139838931239" cy="465.45538380312036" r="4.854209622262886" fill="#CFAE58" opacity="0.10250382533782283"/>
  <circle cx="400.74275559252135" cy="73.65270961384242" r="2.6643106380075166" fill="#CFAE58" opacity="0.21069152137499886"/>
  <circle cx="1110.242339996815" cy="192.87913973717565" r="2.653747818294862" fill="#CFAE58" opacity="0.21879794614168974"/>
  <circle cx="44.794166219168915" cy="330.85327034292976" r="3.724871101988846" fill="#CFAE58" opacity="0.19548882769086381"/>
  <circle cx="796.7511743772545" cy="245.4315325835835" r="4.861334080592253" fill="#CFAE58" opacity="0.17101448199224167"/>
  <circle cx="90.76936690831046" cy="429.52993208788723" r="3.491355841318727" fill="#CFAE58" opacity="0.10062892331631579"/>

  <!-- Border with glow -->
  <rect x="40" y="40" width="1120" height="550" fill="none" stroke="url(#goldGradient)" stroke-width="3" rx="12" filter="url(#softGlow)"/>

  <!-- Icon circle with premium background -->
  <circle cx="150" cy="200" r="75" fill="#CFAE58" opacity="0.15" filter="url(#softGlow)"/>
  <circle cx="150" cy="200" r="70" fill="#CFAE58" opacity="0.25"/>
  <text x="150" y="235" font-size="90" text-anchor="middle" fill="#CFAE58" filter="url(#glow)">🏠</text>

  <!-- Premium logo (crown) with enhanced styling -->
  <g transform="translate(100, 70)">
    <path d="M 30 20 L 40 35 L 35 35 Z M 50 15 L 60 35 L 45 35 Z M 65 20 L 75 35 L 70 35 Z M 30 35 L 75 35 L 73 45 L 32 45 Z"
          fill="url(#goldGradient)" filter="url(#glow)" stroke="#B89842" stroke-width="0.5"/>
    <circle cx="40" cy="25" r="3" fill="#4FD1C5" filter="url(#glow)"/>
    <circle cx="52" cy="20" r="4" fill="#4FD1C5" filter="url(#glow)"/>
    <circle cx="65" cy="25" r="3" fill="#4FD1C5" filter="url(#glow)"/>
  </g>

  <!-- Title with shadow -->
  <text x="280" y="180" font-family="Georgia, serif" font-size="72" font-weight="bold"
        fill="url(#goldGradient)" filter="url(#shadow)">From Roe to Royal</text>

  <!-- Subtitle with subtle glow -->
  <text x="280" y="230" font-family="Arial, sans-serif" font-size="36"
        fill="#D6DEE6" opacity="0.95" filter="url(#softGlow)">Premium Salmon Hatchery &amp; Caviar</text>

  <!-- Brand name with letter spacing -->
  <text x="280" y="300" font-family="Georgia, serif" font-size="32" font-weight="bold"
        fill="#CFAE58" letter-spacing="4" filter="url(#glow)">ROYAL KETA</text>

  <!-- Russian tagline -->
  <text x="280" y="340" font-family="Arial, sans-serif" font-size="22" font-style="italic"
        fill="#8B95A1" opacity="0.8">От икринки к королевской</text>

  <!-- Location -->
  <text x="280" y="380" font-family="Arial, sans-serif" font-size="20"
        fill="#8B95A1" opacity="0.7">Невельский район, Сахалин</text>

  <!-- Website with glow -->
  <text x="100" y="570" font-family="Arial, sans-serif" font-size="30" font-weight="bold"
        fill="#4FD1C5" filter="url(#glow)">royalketa.com</text>

  <!-- Enhanced decorative salmon silhouette -->
  <g transform="translate(950, 480)" opacity="0.2" filter="url(#softGlow)">
    <ellipse cx="0" cy="0" rx="90" ry="35" fill="#CFAE58"/>
    <path d="M 90 0 L 120 -18 L 130 0 L 120 18 Z" fill="#CFAE58"/>
    <path d="M -25 -35 L 0 -45 L 25 -35 Z" fill="#CFAE58"/>
    <ellipse cx="-50" cy="0" rx="15" ry="12" fill="#0B0F14"/>
  </g>

  <!-- Additional decorative caviar clusters -->
  <g opacity="0.2">
    <circle cx="1050" cy="120" r="6" fill="#CFAE58"/>
    <circle cx="1065" cy="115" r="5" fill="#CFAE58"/>
    <circle cx="1058" cy="130" r="4" fill="#CFAE58"/>
    <circle cx="150" cy="500" r="5" fill="#4FD1C5"/>
    <circle cx="165" cy="508" r="4" fill="#4FD1C5"/>
    <circle cx="140" cy="512" r="5" fill="#4FD1C5"/>
  </g>
</svg>