<svg width="1200" height="630" xmlns="http://www.w3.org/2000/svg">
  <defs>
    <linearGradient id="bgGradient" x1="0%" y1="0%" x2="100%" y2="100%">
      <stop offset="0%" style="stop-color:#0B0F14;stop-opacity:1" />
      <stop offset="50%" style="stop-color:#0F1619;stop-opacity:1" />
      <stop offset="100%" style="stop-color:#0F1922;stop-opacity:1" />
    </linearGradient>
    <linearGradient id="goldGradient" x1="0%" y1="0%" x2="100%" y2="0%">
      <stop offset="0%" style="stop-color:#E5D596;stop-opacity:1" />
      <stop offset="50%" style="stop-color:#CFAE58;stop-opacity:1" />
      <stop offset="100%" style="stop-color:#B89842;stop-opacity:1" />
    </linearGradient>
    <radialGradient id="oceanGradient" cx="50%" cy="50%" r="50%">
      <stop offset="0%" style="stop-color:#4FD1C5;stop-opacity:0.3" />
      <stop offset="100%" style="stop-color:#1E90A0;stop-opacity:0.05" />
    </radialGradient>
    <filter id="glow">
      <feGaussianBlur stdDeviation="5" result="coloredBlur"/>
      <feMerge>
        <feMergeNode in="coloredBlur"/>
        <feMergeNode in="SourceGraphic"/>
      </feMerge>
    </filter>
    <filter id="softGlow">
      <feGaussianBlur stdDeviation="8" result="coloredBlur"/>
      <feMerge>
        <feMergeNode in="coloredBlur"/>
        <feMergeNode in="SourceGraphic"/>
      </feMerge>
    </filter>
    <filter id="shadow">
      <feDropShadow dx="0" dy="4" stdDeviation="8" flood-color="#000000" flood-opacity="0.5"/>
    </filter>
  </defs>

  <!-- Background -->
  <rect width="1200" height="630" fill="url(#bgGradient)"/>

  <!-- Decorative ocean gradients -->
  <ellipse cx="1000" cy="150" rx="300" ry="200" fill="url(#oceanGradient)" opacity="0.4"/>
  <ellipse cx="200" cy="530" rx="250" ry="180" fill="url(#oceanGradient)" opacity="0.3"/>

  <!-- Wave patterns -->
  <path d="M 0 400 Q 300 350 600 400 T 1200 400 L 1200 630 L 0 630 Z" fill="#1E90A0" opacity="0.08"/>
  <path d="M 0 450 Q 250 420 500 450 T 1000 450 T 1200 450 L 1200 630 L 0 630 Z" fill="#4FD1C5" opacity="0.05"/>

  <!-- Caviar roe particles -->
  <circle cx="645.5442717247477" cy="487.3311362450599" r="5.311818413941675" fill="#CFAE58" opacity="0.23782901159367628"/>
  <circle cx="148.45478351905524" cy="245.02284188414004" r="5.6273410694948405" fill="#CFAE58" opacity="0.16277316589235383"/>
  <circle cx="41.80534552845394" cy="477.9869137471774" r="4.950955610823936" fill="#CFAE58" opacity="0.2415831308299139"/>
  <circle cx="81.85549156768657" cy="269.32654959814363" r="4.325290159956023" fill="#CFAE58" opacity="0.18324401022570186"/>
  <circle cx="128.1280526437212" cy="601.8004847403975" r="5.3303929473793055" fill="#CFAE58" opacity="0.2347514051248643"/>
  <circle cx="505.69186540703663" cy="443.58114756541625" r="4.907175730575255" fill="#CFAE58" opacity="0.1806426977438056"/>
  <circle cx="1078.962254625818" cy="430.50219964048233" r="2.572655879694614" fill="#CFAE58" opacity="0.1334676331379886"/>
  <circle cx="345.6286422990139" cy="594.5542917311707" r="5.442311950827254" fill="#CFAE58" opacity="0.2466272266516413"/>
  <circle cx="361.8064526697994" cy="543.322805807401" r="2.482343940463461" fill="#CFAE58" opacity="0.18475525361126768"/>
  <circle cx="313.97206290528646" cy="493.9449663459156" r="3.841120242326305" fill="#CFAE58" opacity="0.24872003649578986"/>
  <circle cx="540.1967498799879" cy="379.71437106362913" r="3.386719081015716" fill="#CFAE58" opacity="0.236831018355755"/>
  <circle cx="1145.3266052881286" cy="97.60013149898523" r="4.8040301213890695" fill="#CFAE58" opacity="0.16056429656493348"/>
  <circle cx="381.40390224022093" cy="394.7896790734151" r="3.6499135953621824" fill="#CFAE58" opacity="0.14105205945548663"/>
  <circle cx="1045.602742169371" cy="627.8452827119596" r="2.279937837233418" fill="#CFAE58" opacity="0.22804106244170552"/>
  <circle cx="972.7207688191597" cy="148.52834484463227" r="2.7577766248009032" fill="#CFAE58" opacity="0.14661790605163738"/>
  <circle cx="53.437107385110494" cy="580.216685663875" r="3.9526508382654946" fill="#CFAE58" opacity="0.24016393665544383"/>
  <circle cx="470.6879370755513" cy="614.3770786599524" r="4.580527411599781" fill="#CFAE58" opacity="0.13437614558493863"/>
  <circle cx="266.05434229890267" cy="47.72355222264916" r="2.637526041677254" fill="#CFAE58" opacity="0.1374989631822792"/>
  <circle cx="783.7088137915456" cy="253.96172046348406" r="2.0727542725718715" fill="#CFAE58" opacity="0.1146622504999804"/>
  <circle cx="906.1437410568038" cy="417.07404000551406" r="5.06587298961478" fill="#CFAE58" opacity="0.205852267466259"/>
  <circle cx="347.0475524291342" cy="117.92529046600313" r="2.6620461041789465" fill="#CFAE58" opacity="0.15812479973723845"/>
  <circle cx="268.1913526854836" cy="222.19078311163975" r="4.862007536610658" fill="#CFAE58" opacity="0.10959390382564406"/>
  <circle cx="1108.8209576745965" cy="547.6886051389496" r="2.6050997166313374" fill="#CFAE58" opacity="0.11076860276502493"/>
  <circle cx="653.9175149148114" cy="504.749286070901" r="5.088630920669904" fill="#CFAE58" opacity="0.24224719962425517"/>
  <circle cx="1150.5530488336458" cy="595.4919727010134" r="5.3490752333236085" fill="#CFAE58" opacity="0.20280836584373893"/>
  <circle cx="866.7101035519141" cy="263.00447087057296" r="3.965314716079522" fill="#CFAE58" opacity="0.23429670237261158"/>
  <circle cx="529.8873301552916" cy="336.8014003136369" r="4.220722421895624" fill="#CFAE58" opacity="0.12016138093833506"/>
  <circle cx="1102.7279776324917" cy="469.18661655910864" r="2.965264514774228" fill="#CFAE58" opacity="0.15704999358179875"/>
  <circle cx="663.9020658447255" cy="446.3668347044718" r="5.544753957756055" fill="#CFAE58" opacity="0.22916351937203097"/>
  <circle cx="461.4724678215748" cy="365.70923386062526" r="4.1771714645382545" fill="#CFAE58" opacity="0.1518440475487607"/>

  <!-- Border with glow -->
  <rect x="40" y="40" width="1120" height="550" fill="none" stroke="url(#goldGradient)" stroke-width="3" rx="12" filter="url(#softGlow)"/>

  <!-- Icon circle with premium background -->
  <circle cx="150" cy="200" r="75" fill="#CFAE58" opacity="0.15" filter="url(#softGlow)"/>
  <circle cx="150" cy="200" r="70" fill="#CFAE58" opacity="0.25"/>
  <text x="150" y="235" font-size="90" text-anchor="middle" fill="#CFAE58" filter="url(#glow)">🏠</text>

  <!-- Premium logo (crown) with enhanced styling -->
  <g transform="translate(100, 70)">
    <path d="M 30 20 L 40 35 L 35 35 Z M 50 15 L 60 35 L 45 35 Z M 65 20 L 75 35 L 70 35 Z M 30 35 L 75 35 L 73 45 L 32 45 Z"
          fill="url(#goldGradient)" filter="url(#glow)" stroke="#B89842" stroke-width="0.5"/>
    <circle cx="40" cy="25" r="3" fill="#4FD1C5" filter="url(#glow)"/>
    <circle cx="52" cy="20" r="4" fill="#4FD1C5" filter="url(#glow)"/>
    <circle cx="65" cy="25" r="3" fill="#4FD1C5" filter="url(#glow)"/>
  </g>

  <!-- Title with shadow -->
  <text x="280" y="180" font-family="Georgia, serif" font-size="72" font-weight="bold"
        fill="url(#goldGradient)" filter="url(#shadow)">From Roe to Royal</text>

  <!-- Subtitle with subtle glow -->
  <text x="280" y="230" font-family="Arial, sans-serif" font-size="36"
        fill="#D6DEE6" opacity="0.95" filter="url(#softGlow)">Premium Salmon Hatchery &amp; Caviar</text>

  <!-- Brand name with letter spacing -->
  <text x="280" y="300" font-family="Georgia, serif" font-size="32" font-weight="bold"
        fill="#CFAE58" letter-spacing="4" filter="url(#glow)">ROYAL KETA</text>

  <!-- Russian tagline -->
  <text x="280" y="340" font-family="Arial, sans-serif" font-size="22" font-style="italic"
        fill="#8B95A1" opacity="0.8">От икринки к королевской</text>

  <!-- Location -->
  <text x="280" y="380" font-family="Arial, sans-serif" font-size="20"
        fill="#8B95A1" opacity="0.7">Невельский район, Сахалин</text>

  <!-- Website with glow -->
  <text x="100" y="570" font-family="Arial, sans-serif" font-size="30" font-weight="bold"
        fill="#4FD1C5" filter="url(#glow)">royalketa.com</text>

  <!-- Enhanced decorative salmon silhouette -->
  <g transform="translate(950, 480)" opacity="0.2" filter="url(#softGlow)">
    <ellipse cx="0" cy="0" rx="90" ry="35" fill="#CFAE58"/>
    <path d="M 90 0 L 120 -18 L 130 0 L 120 18 Z" fill="#CFAE58"/>
    <path d="M -25 -35 L 0 -45 L 25 -35 Z" fill="#CFAE58"/>
    <ellipse cx="-50" cy="0" rx="15" ry="12" fill="#0B0F14"/>
  </g>

  <!-- Additional decorative caviar clusters -->
  <g opacity="0.2">
    <circle cx="1050" cy="120" r="6" fill="#CFAE58"/>
    <circle cx="1065" cy="115" r="5" fill="#CFAE58"/>
    <circle cx="1058" cy="130" r="4" fill="#CFAE58"/>
    <circle cx="150" cy="500" r="5" fill="#4FD1C5"/>
    <circle cx="165" cy="508" r="4" fill="#4FD1C5"/>
    <circle cx="140" cy="512" r="5" fill="#4FD1C5"/>
  </g>
</svg>