<svg width="1200" height="630" xmlns="http://www.w3.org/2000/svg">
  <defs>
    <linearGradient id="bgGradient" x1="0%" y1="0%" x2="100%" y2="100%">
      <stop offset="0%" style="stop-color:#0B0F14;stop-opacity:1" />
      <stop offset="50%" style="stop-color:#0F1619;stop-opacity:1" />
      <stop offset="100%" style="stop-color:#0F1922;stop-opacity:1" />
    </linearGradient>
    <linearGradient id="goldGradient" x1="0%" y1="0%" x2="100%" y2="0%">
      <stop offset="0%" style="stop-color:#E5D596;stop-opacity:1" />
      <stop offset="50%" style="stop-color:#CFAE58;stop-opacity:1" />
      <stop offset="100%" style="stop-color:#B89842;stop-opacity:1" />
    </linearGradient>
    <radialGradient id="oceanGradient" cx="50%" cy="50%" r="50%">
      <stop offset="0%" style="stop-color:#4FD1C5;stop-opacity:0.3" />
      <stop offset="100%" style="stop-color:#1E90A0;stop-opacity:0.05" />
    </radialGradient>
    <filter id="glow">
      <feGaussianBlur stdDeviation="5" result="coloredBlur"/>
      <feMerge>
        <feMergeNode in="coloredBlur"/>
        <feMergeNode in="SourceGraphic"/>
      </feMerge>
    </filter>
    <filter id="softGlow">
      <feGaussianBlur stdDeviation="8" result="coloredBlur"/>
      <feMerge>
        <feMergeNode in="coloredBlur"/>
        <feMergeNode in="SourceGraphic"/>
      </feMerge>
    </filter>
    <filter id="shadow">
      <feDropShadow dx="0" dy="4" stdDeviation="8" flood-color="#000000" flood-opacity="0.5"/>
    </filter>
  </defs>

  <!-- Background -->
  <rect width="1200" height="630" fill="url(#bgGradient)"/>

  <!-- Decorative ocean gradients -->
  <ellipse cx="1000" cy="150" rx="300" ry="200" fill="url(#oceanGradient)" opacity="0.4"/>
  <ellipse cx="200" cy="530" rx="250" ry="180" fill="url(#oceanGradient)" opacity="0.3"/>

  <!-- Wave patterns -->
  <path d="M 0 400 Q 300 350 600 400 T 1200 400 L 1200 630 L 0 630 Z" fill="#1E90A0" opacity="0.08"/>
  <path d="M 0 450 Q 250 420 500 450 T 1000 450 T 1200 450 L 1200 630 L 0 630 Z" fill="#4FD1C5" opacity="0.05"/>

  <!-- Caviar roe particles -->
  <circle cx="979.0770894116287" cy="133.55089010475768" r="3.582430608315878" fill="#CFAE58" opacity="0.13501229421902053"/>
  <circle cx="239.10046975435293" cy="277.2392745354457" r="4.831411344115851" fill="#CFAE58" opacity="0.133463006971148"/>
  <circle cx="26.01507249065458" cy="538.809070223617" r="4.004397092776" fill="#CFAE58" opacity="0.1734561232775053"/>
  <circle cx="83.03874840939089" cy="483.3059292800464" r="2.296584023455689" fill="#CFAE58" opacity="0.1904171460877333"/>
  <circle cx="726.7016997748153" cy="61.92351222077633" r="4.433217573151159" fill="#CFAE58" opacity="0.16293654884032313"/>
  <circle cx="1111.3858389392788" cy="498.5364829581236" r="5.855535897055317" fill="#CFAE58" opacity="0.24557964383614528"/>
  <circle cx="276.5746893587032" cy="286.4779473097092" r="2.7453934566360774" fill="#CFAE58" opacity="0.24079642302277737"/>
  <circle cx="788.0539610289991" cy="188.83933323084906" r="5.315114111704613" fill="#CFAE58" opacity="0.20213271166530017"/>
  <circle cx="480.4982346824814" cy="566.0978001494659" r="5.151445048337977" fill="#CFAE58" opacity="0.17967814190256964"/>
  <circle cx="60.01099489497719" cy="254.5285834863488" r="4.8857878801683" fill="#CFAE58" opacity="0.15955020299780798"/>
  <circle cx="537.1354130270086" cy="411.2742428216249" r="3.81635171494621" fill="#CFAE58" opacity="0.2129676892372553"/>
  <circle cx="1114.549448273467" cy="198.72216696152572" r="5.753873968920807" fill="#CFAE58" opacity="0.13740400591586993"/>
  <circle cx="395.0916206238623" cy="385.802118625575" r="3.3953254553568284" fill="#CFAE58" opacity="0.2142084246070845"/>
  <circle cx="246.87562233936174" cy="338.2662156876857" r="3.0323057171181222" fill="#CFAE58" opacity="0.14990234884747153"/>
  <circle cx="1125.4863600044175" cy="88.42871569464837" r="5.363609799542735" fill="#CFAE58" opacity="0.21885671455744005"/>
  <circle cx="950.0515709777328" cy="36.13007861987485" r="3.817586750375904" fill="#CFAE58" opacity="0.1522990192103375"/>
  <circle cx="650.969692192402" cy="97.88251159156539" r="2.405058721007392" fill="#CFAE58" opacity="0.19854950165176233"/>
  <circle cx="681.651896638909" cy="115.8142727552847" r="2.394121481789571" fill="#CFAE58" opacity="0.18471232624585582"/>
  <circle cx="206.3427897275493" cy="36.269515569082024" r="5.665989294927467" fill="#CFAE58" opacity="0.1874549885316976"/>
  <circle cx="1163.0498214159475" cy="608.7526797062204" r="2.024629143650478" fill="#CFAE58" opacity="0.18739851814936925"/>
  <circle cx="1086.6989780787399" cy="309.483097495554" r="5.1379396072741" fill="#CFAE58" opacity="0.2473467822022598"/>
  <circle cx="773.3759295088558" cy="229.78275502105345" r="2.137311431421609" fill="#CFAE58" opacity="0.1688263439253391"/>
  <circle cx="316.57451291257894" cy="593.6886884669557" r="4.650454094799461" fill="#CFAE58" opacity="0.2007085433811009"/>
  <circle cx="953.576629520415" cy="118.28521590087415" r="5.427065909200927" fill="#CFAE58" opacity="0.10887451574977411"/>
  <circle cx="35.153363866027654" cy="194.9986011636049" r="2.271121667881393" fill="#CFAE58" opacity="0.2460703072496389"/>
  <circle cx="1043.5311145495316" cy="20.30965770444918" r="4.453274868167278" fill="#CFAE58" opacity="0.19235725464742012"/>
  <circle cx="367.9121458228716" cy="135.9751251541328" r="5.102822183927251" fill="#CFAE58" opacity="0.1430463741047487"/>
  <circle cx="1090.9530263611866" cy="176.08710011162978" r="2.999505312695921" fill="#CFAE58" opacity="0.13560207370117144"/>
  <circle cx="902.2165436096803" cy="93.8685176388507" r="2.380826946367873" fill="#CFAE58" opacity="0.21218669123829886"/>
  <circle cx="161.1138612762569" cy="113.42487825282248" r="4.39847783331997" fill="#CFAE58" opacity="0.20754730106157415"/>

  <!-- Border with glow -->
  <rect x="40" y="40" width="1120" height="550" fill="none" stroke="url(#goldGradient)" stroke-width="3" rx="12" filter="url(#softGlow)"/>

  <!-- Icon circle with premium background -->
  <circle cx="150" cy="200" r="75" fill="#CFAE58" opacity="0.15" filter="url(#softGlow)"/>
  <circle cx="150" cy="200" r="70" fill="#CFAE58" opacity="0.25"/>
  <text x="150" y="235" font-size="90" text-anchor="middle" fill="#CFAE58" filter="url(#glow)">🏠</text>

  <!-- Premium logo (crown) with enhanced styling -->
  <g transform="translate(100, 70)">
    <path d="M 30 20 L 40 35 L 35 35 Z M 50 15 L 60 35 L 45 35 Z M 65 20 L 75 35 L 70 35 Z M 30 35 L 75 35 L 73 45 L 32 45 Z"
          fill="url(#goldGradient)" filter="url(#glow)" stroke="#B89842" stroke-width="0.5"/>
    <circle cx="40" cy="25" r="3" fill="#4FD1C5" filter="url(#glow)"/>
    <circle cx="52" cy="20" r="4" fill="#4FD1C5" filter="url(#glow)"/>
    <circle cx="65" cy="25" r="3" fill="#4FD1C5" filter="url(#glow)"/>
  </g>

  <!-- Title with shadow -->
  <text x="280" y="180" font-family="Georgia, serif" font-size="72" font-weight="bold"
        fill="url(#goldGradient)" filter="url(#shadow)">From Roe to Royal</text>

  <!-- Subtitle with subtle glow -->
  <text x="280" y="230" font-family="Arial, sans-serif" font-size="36"
        fill="#D6DEE6" opacity="0.95" filter="url(#softGlow)">Premium Salmon Hatchery &amp; Caviar</text>

  <!-- Brand name with letter spacing -->
  <text x="280" y="300" font-family="Georgia, serif" font-size="32" font-weight="bold"
        fill="#CFAE58" letter-spacing="4" filter="url(#glow)">ROYAL KETA</text>

  <!-- Russian tagline -->
  <text x="280" y="340" font-family="Arial, sans-serif" font-size="22" font-style="italic"
        fill="#8B95A1" opacity="0.8">От икринки к королевской</text>

  <!-- Location -->
  <text x="280" y="380" font-family="Arial, sans-serif" font-size="20"
        fill="#8B95A1" opacity="0.7">Невельский район, Сахалин</text>

  <!-- Website with glow -->
  <text x="100" y="570" font-family="Arial, sans-serif" font-size="30" font-weight="bold"
        fill="#4FD1C5" filter="url(#glow)">royalketa.com</text>

  <!-- Enhanced decorative salmon silhouette -->
  <g transform="translate(950, 480)" opacity="0.2" filter="url(#softGlow)">
    <ellipse cx="0" cy="0" rx="90" ry="35" fill="#CFAE58"/>
    <path d="M 90 0 L 120 -18 L 130 0 L 120 18 Z" fill="#CFAE58"/>
    <path d="M -25 -35 L 0 -45 L 25 -35 Z" fill="#CFAE58"/>
    <ellipse cx="-50" cy="0" rx="15" ry="12" fill="#0B0F14"/>
  </g>

  <!-- Additional decorative caviar clusters -->
  <g opacity="0.2">
    <circle cx="1050" cy="120" r="6" fill="#CFAE58"/>
    <circle cx="1065" cy="115" r="5" fill="#CFAE58"/>
    <circle cx="1058" cy="130" r="4" fill="#CFAE58"/>
    <circle cx="150" cy="500" r="5" fill="#4FD1C5"/>
    <circle cx="165" cy="508" r="4" fill="#4FD1C5"/>
    <circle cx="140" cy="512" r="5" fill="#4FD1C5"/>
  </g>
</svg>