<svg width="1200" height="630" xmlns="http://www.w3.org/2000/svg">
  <defs>
    <linearGradient id="bgGradient" x1="0%" y1="0%" x2="100%" y2="100%">
      <stop offset="0%" style="stop-color:#0B0F14;stop-opacity:1" />
      <stop offset="50%" style="stop-color:#0F1619;stop-opacity:1" />
      <stop offset="100%" style="stop-color:#0F1922;stop-opacity:1" />
    </linearGradient>
    <linearGradient id="goldGradient" x1="0%" y1="0%" x2="100%" y2="0%">
      <stop offset="0%" style="stop-color:#E5D596;stop-opacity:1" />
      <stop offset="50%" style="stop-color:#CFAE58;stop-opacity:1" />
      <stop offset="100%" style="stop-color:#B89842;stop-opacity:1" />
    </linearGradient>
    <radialGradient id="oceanGradient" cx="50%" cy="50%" r="50%">
      <stop offset="0%" style="stop-color:#4FD1C5;stop-opacity:0.3" />
      <stop offset="100%" style="stop-color:#1E90A0;stop-opacity:0.05" />
    </radialGradient>
    <filter id="glow">
      <feGaussianBlur stdDeviation="5" result="coloredBlur"/>
      <feMerge>
        <feMergeNode in="coloredBlur"/>
        <feMergeNode in="SourceGraphic"/>
      </feMerge>
    </filter>
    <filter id="softGlow">
      <feGaussianBlur stdDeviation="8" result="coloredBlur"/>
      <feMerge>
        <feMergeNode in="coloredBlur"/>
        <feMergeNode in="SourceGraphic"/>
      </feMerge>
    </filter>
    <filter id="shadow">
      <feDropShadow dx="0" dy="4" stdDeviation="8" flood-color="#000000" flood-opacity="0.5"/>
    </filter>
  </defs>

  <!-- Background -->
  <rect width="1200" height="630" fill="url(#bgGradient)"/>

  <!-- Decorative ocean gradients -->
  <ellipse cx="1000" cy="150" rx="300" ry="200" fill="url(#oceanGradient)" opacity="0.4"/>
  <ellipse cx="200" cy="530" rx="250" ry="180" fill="url(#oceanGradient)" opacity="0.3"/>

  <!-- Wave patterns -->
  <path d="M 0 400 Q 300 350 600 400 T 1200 400 L 1200 630 L 0 630 Z" fill="#1E90A0" opacity="0.08"/>
  <path d="M 0 450 Q 250 420 500 450 T 1000 450 T 1200 450 L 1200 630 L 0 630 Z" fill="#4FD1C5" opacity="0.05"/>

  <!-- Caviar roe particles -->
  <circle cx="412.614113159652" cy="489.22997837477925" r="5.6293489757036745" fill="#CFAE58" opacity="0.22954064521131956"/>
  <circle cx="717.7317628515833" cy="432.82473689971755" r="3.5802432668848914" fill="#CFAE58" opacity="0.19058256710546573"/>
  <circle cx="573.2659611526026" cy="520.1758726662551" r="4.623953847178194" fill="#CFAE58" opacity="0.24912029878289677"/>
  <circle cx="394.10491744538837" cy="223.04904253583334" r="5.54235597703028" fill="#CFAE58" opacity="0.2318721893078156"/>
  <circle cx="189.44695060009886" cy="151.63071189623824" r="3.1913267854369556" fill="#CFAE58" opacity="0.19492589521457215"/>
  <circle cx="583.4303242796665" cy="200.15406397065868" r="5.717110516090464" fill="#CFAE58" opacity="0.19924464974194595"/>
  <circle cx="485.06915196470715" cy="120.26990854390985" r="4.293566117861812" fill="#CFAE58" opacity="0.13232965915691655"/>
  <circle cx="89.33554380158614" cy="257.5745926326901" r="5.077994226196189" fill="#CFAE58" opacity="0.1832065069818964"/>
  <circle cx="426.7692189484784" cy="251.5826214522487" r="2.385936330090815" fill="#CFAE58" opacity="0.14973076877678104"/>
  <circle cx="399.28165893648526" cy="342.21657658301046" r="5.2286601374152095" fill="#CFAE58" opacity="0.19646670006179015"/>
  <circle cx="372.4971980608629" cy="410.4004787997101" r="5.89211657767936" fill="#CFAE58" opacity="0.24991954490558202"/>
  <circle cx="34.53226178813411" cy="620.0062726105274" r="4.207369539715686" fill="#CFAE58" opacity="0.13903594381411885"/>
  <circle cx="21.642750842933722" cy="534.5020332073442" r="5.676906688125545" fill="#CFAE58" opacity="0.24643421402698826"/>
  <circle cx="1080.946105048839" cy="314.1371832262502" r="4.015153456043822" fill="#CFAE58" opacity="0.22402534798898918"/>
  <circle cx="136.4593943452241" cy="69.0670297635313" r="5.837475278567817" fill="#CFAE58" opacity="0.12154323104558368"/>
  <circle cx="741.5603127872738" cy="251.2384418916453" r="5.862045792975755" fill="#CFAE58" opacity="0.2240296052701476"/>
  <circle cx="40.5098658148618" cy="318.9401989944386" r="5.482691928465373" fill="#CFAE58" opacity="0.15817768994373238"/>
  <circle cx="1107.3984601899388" cy="398.8009884252204" r="4.109677689550277" fill="#CFAE58" opacity="0.22477351925224184"/>
  <circle cx="33.1731793813935" cy="30.295702274334033" r="3.8726112777725987" fill="#CFAE58" opacity="0.1546433416311901"/>
  <circle cx="1072.5764473657798" cy="503.3691487520888" r="4.044908364332691" fill="#CFAE58" opacity="0.1232283308593598"/>
  <circle cx="656.6574328170535" cy="628.5727141863553" r="4.815511597878212" fill="#CFAE58" opacity="0.11448836912483529"/>
  <circle cx="255.34552649404824" cy="585.9592788928414" r="4.216340224688112" fill="#CFAE58" opacity="0.24955558681388704"/>
  <circle cx="387.91181453034875" cy="111.96721151670086" r="3.5994234567227927" fill="#CFAE58" opacity="0.11778589488061762"/>
  <circle cx="843.4574313244442" cy="35.9320034534424" r="5.552880939182923" fill="#CFAE58" opacity="0.22937471018287925"/>
  <circle cx="456.48756556170866" cy="116.72394289399213" r="5.8629082314859" fill="#CFAE58" opacity="0.1929084708061795"/>
  <circle cx="763.7623492295739" cy="398.8558459133419" r="4.149996059751683" fill="#CFAE58" opacity="0.18676566627948504"/>
  <circle cx="902.4608893573474" cy="45.08809377146561" r="4.751434033294475" fill="#CFAE58" opacity="0.16423366329840638"/>
  <circle cx="898.7806868035024" cy="607.9929901652009" r="4.744665576344321" fill="#CFAE58" opacity="0.12761436939660456"/>
  <circle cx="747.5279509688446" cy="307.7835232251211" r="4.72244372280892" fill="#CFAE58" opacity="0.17622641892370305"/>
  <circle cx="728.1198573261523" cy="440.03051545279004" r="3.7623430962083377" fill="#CFAE58" opacity="0.15556518934776564"/>

  <!-- Border with glow -->
  <rect x="40" y="40" width="1120" height="550" fill="none" stroke="url(#goldGradient)" stroke-width="3" rx="12" filter="url(#softGlow)"/>

  <!-- Icon circle with premium background -->
  <circle cx="150" cy="200" r="75" fill="#CFAE58" opacity="0.15" filter="url(#softGlow)"/>
  <circle cx="150" cy="200" r="70" fill="#CFAE58" opacity="0.25"/>
  <text x="150" y="235" font-size="90" text-anchor="middle" fill="#CFAE58" filter="url(#glow)">🏠</text>

  <!-- Premium logo (crown) with enhanced styling -->
  <g transform="translate(100, 70)">
    <path d="M 30 20 L 40 35 L 35 35 Z M 50 15 L 60 35 L 45 35 Z M 65 20 L 75 35 L 70 35 Z M 30 35 L 75 35 L 73 45 L 32 45 Z"
          fill="url(#goldGradient)" filter="url(#glow)" stroke="#B89842" stroke-width="0.5"/>
    <circle cx="40" cy="25" r="3" fill="#4FD1C5" filter="url(#glow)"/>
    <circle cx="52" cy="20" r="4" fill="#4FD1C5" filter="url(#glow)"/>
    <circle cx="65" cy="25" r="3" fill="#4FD1C5" filter="url(#glow)"/>
  </g>

  <!-- Title with shadow -->
  <text x="280" y="180" font-family="Georgia, serif" font-size="72" font-weight="bold"
        fill="url(#goldGradient)" filter="url(#shadow)">From Roe to Royal</text>

  <!-- Subtitle with subtle glow -->
  <text x="280" y="230" font-family="Arial, sans-serif" font-size="36"
        fill="#D6DEE6" opacity="0.95" filter="url(#softGlow)">Premium Salmon Hatchery &amp; Caviar</text>

  <!-- Brand name with letter spacing -->
  <text x="280" y="300" font-family="Georgia, serif" font-size="32" font-weight="bold"
        fill="#CFAE58" letter-spacing="4" filter="url(#glow)">ROYAL KETA</text>

  <!-- Russian tagline -->
  <text x="280" y="340" font-family="Arial, sans-serif" font-size="22" font-style="italic"
        fill="#8B95A1" opacity="0.8">От икринки к королевской</text>

  <!-- Location -->
  <text x="280" y="380" font-family="Arial, sans-serif" font-size="20"
        fill="#8B95A1" opacity="0.7">Невельский район, Сахалин</text>

  <!-- Website with glow -->
  <text x="100" y="570" font-family="Arial, sans-serif" font-size="30" font-weight="bold"
        fill="#4FD1C5" filter="url(#glow)">royalketa.com</text>

  <!-- Enhanced decorative salmon silhouette -->
  <g transform="translate(950, 480)" opacity="0.2" filter="url(#softGlow)">
    <ellipse cx="0" cy="0" rx="90" ry="35" fill="#CFAE58"/>
    <path d="M 90 0 L 120 -18 L 130 0 L 120 18 Z" fill="#CFAE58"/>
    <path d="M -25 -35 L 0 -45 L 25 -35 Z" fill="#CFAE58"/>
    <ellipse cx="-50" cy="0" rx="15" ry="12" fill="#0B0F14"/>
  </g>

  <!-- Additional decorative caviar clusters -->
  <g opacity="0.2">
    <circle cx="1050" cy="120" r="6" fill="#CFAE58"/>
    <circle cx="1065" cy="115" r="5" fill="#CFAE58"/>
    <circle cx="1058" cy="130" r="4" fill="#CFAE58"/>
    <circle cx="150" cy="500" r="5" fill="#4FD1C5"/>
    <circle cx="165" cy="508" r="4" fill="#4FD1C5"/>
    <circle cx="140" cy="512" r="5" fill="#4FD1C5"/>
  </g>
</svg>