<svg width="1200" height="630" xmlns="http://www.w3.org/2000/svg">
  <defs>
    <linearGradient id="bgGradient" x1="0%" y1="0%" x2="100%" y2="100%">
      <stop offset="0%" style="stop-color:#0B0F14;stop-opacity:1" />
      <stop offset="50%" style="stop-color:#0F1619;stop-opacity:1" />
      <stop offset="100%" style="stop-color:#0F1922;stop-opacity:1" />
    </linearGradient>
    <linearGradient id="goldGradient" x1="0%" y1="0%" x2="100%" y2="0%">
      <stop offset="0%" style="stop-color:#E5D596;stop-opacity:1" />
      <stop offset="50%" style="stop-color:#CFAE58;stop-opacity:1" />
      <stop offset="100%" style="stop-color:#B89842;stop-opacity:1" />
    </linearGradient>
    <radialGradient id="oceanGradient" cx="50%" cy="50%" r="50%">
      <stop offset="0%" style="stop-color:#4FD1C5;stop-opacity:0.3" />
      <stop offset="100%" style="stop-color:#1E90A0;stop-opacity:0.05" />
    </radialGradient>
    <filter id="glow">
      <feGaussianBlur stdDeviation="5" result="coloredBlur"/>
      <feMerge>
        <feMergeNode in="coloredBlur"/>
        <feMergeNode in="SourceGraphic"/>
      </feMerge>
    </filter>
    <filter id="softGlow">
      <feGaussianBlur stdDeviation="8" result="coloredBlur"/>
      <feMerge>
        <feMergeNode in="coloredBlur"/>
        <feMergeNode in="SourceGraphic"/>
      </feMerge>
    </filter>
    <filter id="shadow">
      <feDropShadow dx="0" dy="4" stdDeviation="8" flood-color="#000000" flood-opacity="0.5"/>
    </filter>
  </defs>

  <!-- Background -->
  <rect width="1200" height="630" fill="url(#bgGradient)"/>

  <!-- Decorative ocean gradients -->
  <ellipse cx="1000" cy="150" rx="300" ry="200" fill="url(#oceanGradient)" opacity="0.4"/>
  <ellipse cx="200" cy="530" rx="250" ry="180" fill="url(#oceanGradient)" opacity="0.3"/>

  <!-- Wave patterns -->
  <path d="M 0 400 Q 300 350 600 400 T 1200 400 L 1200 630 L 0 630 Z" fill="#1E90A0" opacity="0.08"/>
  <path d="M 0 450 Q 250 420 500 450 T 1000 450 T 1200 450 L 1200 630 L 0 630 Z" fill="#4FD1C5" opacity="0.05"/>

  <!-- Caviar roe particles -->
  <circle cx="905.8102032995523" cy="508.28481523269835" r="5.29898446161949" fill="#CFAE58" opacity="0.13550653093435786"/>
  <circle cx="651.728066447625" cy="397.11539579913773" r="4.126649682032127" fill="#CFAE58" opacity="0.16458555959311957"/>
  <circle cx="878.9512203792282" cy="404.01885980926744" r="4.579760422381037" fill="#CFAE58" opacity="0.22200733691401225"/>
  <circle cx="159.08980341184397" cy="6.326576339100001" r="2.4960194767675863" fill="#CFAE58" opacity="0.18385589547885903"/>
  <circle cx="728.4140175819847" cy="502.7501883568896" r="3.963464339311779" fill="#CFAE58" opacity="0.1432436281942333"/>
  <circle cx="1023.369445396125" cy="262.1202579828327" r="4.22920286371431" fill="#CFAE58" opacity="0.12915984694306254"/>
  <circle cx="88.24234180218471" cy="416.3459348872233" r="3.9845475051494663" fill="#CFAE58" opacity="0.18594216586802875"/>
  <circle cx="827.5277658222644" cy="478.3011582446093" r="4.2186069473165695" fill="#CFAE58" opacity="0.18189287961435696"/>
  <circle cx="866.580211489732" cy="171.03812001946412" r="4.482289499626458" fill="#CFAE58" opacity="0.10009696824481518"/>
  <circle cx="1193.9498485582371" cy="72.96527137589494" r="5.75730232036212" fill="#CFAE58" opacity="0.10515472105120585"/>
  <circle cx="536.5885079440429" cy="316.55077641520484" r="5.793990612098858" fill="#CFAE58" opacity="0.10387531739605162"/>
  <circle cx="1145.451736487463" cy="482.90605369941915" r="4.387558297569491" fill="#CFAE58" opacity="0.19467289429575907"/>
  <circle cx="93.03519717820281" cy="153.94194083658687" r="5.639504800962481" fill="#CFAE58" opacity="0.19473103525576163"/>
  <circle cx="426.20788720176205" cy="598.384826264644" r="5.408010221720134" fill="#CFAE58" opacity="0.15263902141678265"/>
  <circle cx="1054.939468266848" cy="208.40117596435664" r="2.1309522348683068" fill="#CFAE58" opacity="0.12452752215829027"/>
  <circle cx="800.5409066338556" cy="178.783924732781" r="3.823149485049229" fill="#CFAE58" opacity="0.10034536546697359"/>
  <circle cx="504.752543681077" cy="439.93772249878583" r="3.8833206331088914" fill="#CFAE58" opacity="0.16129850094327733"/>
  <circle cx="218.86771841595652" cy="478.79590230049627" r="3.984778678460216" fill="#CFAE58" opacity="0.11938961050165041"/>
  <circle cx="933.648719584194" cy="506.3800356709466" r="5.282038615821181" fill="#CFAE58" opacity="0.1097754727630198"/>
  <circle cx="755.7685931769149" cy="251.94582479723945" r="5.337208782901114" fill="#CFAE58" opacity="0.21437642766021198"/>
  <circle cx="218.98015294033678" cy="449.34717704403954" r="3.1425227248101733" fill="#CFAE58" opacity="0.1670692543033317"/>
  <circle cx="906.0357537855472" cy="315.2821726620668" r="4.110961806590369" fill="#CFAE58" opacity="0.1254592092103615"/>
  <circle cx="777.3782784538353" cy="306.18904680493586" r="5.355459718061899" fill="#CFAE58" opacity="0.1278630647819508"/>
  <circle cx="306.5774517129195" cy="538.2639662947722" r="5.985304066572014" fill="#CFAE58" opacity="0.10913194116255383"/>
  <circle cx="113.73866694885066" cy="270.08184328628715" r="4.876758482074773" fill="#CFAE58" opacity="0.1906302566913976"/>
  <circle cx="827.0035133870183" cy="89.2747027581273" r="2.8477156803350674" fill="#CFAE58" opacity="0.10230423337141566"/>
  <circle cx="297.9572353379323" cy="124.79074435371871" r="5.518769227132831" fill="#CFAE58" opacity="0.182617426560663"/>
  <circle cx="566.6700956296733" cy="470.75277730732256" r="4.922974818822006" fill="#CFAE58" opacity="0.10666765080926173"/>
  <circle cx="1146.2826160564673" cy="429.46613673444665" r="4.619870181449556" fill="#CFAE58" opacity="0.21453497034858887"/>
  <circle cx="652.4110704584181" cy="384.68722126243165" r="5.276666057845556" fill="#CFAE58" opacity="0.21364103938162127"/>

  <!-- Border with glow -->
  <rect x="40" y="40" width="1120" height="550" fill="none" stroke="url(#goldGradient)" stroke-width="3" rx="12" filter="url(#softGlow)"/>

  <!-- Icon circle with premium background -->
  <circle cx="150" cy="200" r="75" fill="#CFAE58" opacity="0.15" filter="url(#softGlow)"/>
  <circle cx="150" cy="200" r="70" fill="#CFAE58" opacity="0.25"/>
  <text x="150" y="235" font-size="90" text-anchor="middle" fill="#CFAE58" filter="url(#glow)">🏠</text>

  <!-- Premium logo (crown) with enhanced styling -->
  <g transform="translate(100, 70)">
    <path d="M 30 20 L 40 35 L 35 35 Z M 50 15 L 60 35 L 45 35 Z M 65 20 L 75 35 L 70 35 Z M 30 35 L 75 35 L 73 45 L 32 45 Z"
          fill="url(#goldGradient)" filter="url(#glow)" stroke="#B89842" stroke-width="0.5"/>
    <circle cx="40" cy="25" r="3" fill="#4FD1C5" filter="url(#glow)"/>
    <circle cx="52" cy="20" r="4" fill="#4FD1C5" filter="url(#glow)"/>
    <circle cx="65" cy="25" r="3" fill="#4FD1C5" filter="url(#glow)"/>
  </g>

  <!-- Title with shadow -->
  <text x="280" y="180" font-family="Georgia, serif" font-size="72" font-weight="bold"
        fill="url(#goldGradient)" filter="url(#shadow)">From Roe to Royal</text>

  <!-- Subtitle with subtle glow -->
  <text x="280" y="230" font-family="Arial, sans-serif" font-size="36"
        fill="#D6DEE6" opacity="0.95" filter="url(#softGlow)">Premium Salmon Hatchery &amp; Caviar</text>

  <!-- Brand name with letter spacing -->
  <text x="280" y="300" font-family="Georgia, serif" font-size="32" font-weight="bold"
        fill="#CFAE58" letter-spacing="4" filter="url(#glow)">ROYAL KETA</text>

  <!-- Russian tagline -->
  <text x="280" y="340" font-family="Arial, sans-serif" font-size="22" font-style="italic"
        fill="#8B95A1" opacity="0.8">От икринки к королевской</text>

  <!-- Location -->
  <text x="280" y="380" font-family="Arial, sans-serif" font-size="20"
        fill="#8B95A1" opacity="0.7">Невельский район, Сахалин</text>

  <!-- Website with glow -->
  <text x="100" y="570" font-family="Arial, sans-serif" font-size="30" font-weight="bold"
        fill="#4FD1C5" filter="url(#glow)">royalketa.com</text>

  <!-- Enhanced decorative salmon silhouette -->
  <g transform="translate(950, 480)" opacity="0.2" filter="url(#softGlow)">
    <ellipse cx="0" cy="0" rx="90" ry="35" fill="#CFAE58"/>
    <path d="M 90 0 L 120 -18 L 130 0 L 120 18 Z" fill="#CFAE58"/>
    <path d="M -25 -35 L 0 -45 L 25 -35 Z" fill="#CFAE58"/>
    <ellipse cx="-50" cy="0" rx="15" ry="12" fill="#0B0F14"/>
  </g>

  <!-- Additional decorative caviar clusters -->
  <g opacity="0.2">
    <circle cx="1050" cy="120" r="6" fill="#CFAE58"/>
    <circle cx="1065" cy="115" r="5" fill="#CFAE58"/>
    <circle cx="1058" cy="130" r="4" fill="#CFAE58"/>
    <circle cx="150" cy="500" r="5" fill="#4FD1C5"/>
    <circle cx="165" cy="508" r="4" fill="#4FD1C5"/>
    <circle cx="140" cy="512" r="5" fill="#4FD1C5"/>
  </g>
</svg>