<svg width="1200" height="630" xmlns="http://www.w3.org/2000/svg">
  <defs>
    <linearGradient id="bgGradient" x1="0%" y1="0%" x2="100%" y2="100%">
      <stop offset="0%" style="stop-color:#0B0F14;stop-opacity:1" />
      <stop offset="50%" style="stop-color:#0F1619;stop-opacity:1" />
      <stop offset="100%" style="stop-color:#0F1922;stop-opacity:1" />
    </linearGradient>
    <linearGradient id="goldGradient" x1="0%" y1="0%" x2="100%" y2="0%">
      <stop offset="0%" style="stop-color:#E5D596;stop-opacity:1" />
      <stop offset="50%" style="stop-color:#CFAE58;stop-opacity:1" />
      <stop offset="100%" style="stop-color:#B89842;stop-opacity:1" />
    </linearGradient>
    <radialGradient id="oceanGradient" cx="50%" cy="50%" r="50%">
      <stop offset="0%" style="stop-color:#4FD1C5;stop-opacity:0.3" />
      <stop offset="100%" style="stop-color:#1E90A0;stop-opacity:0.05" />
    </radialGradient>
    <filter id="glow">
      <feGaussianBlur stdDeviation="5" result="coloredBlur"/>
      <feMerge>
        <feMergeNode in="coloredBlur"/>
        <feMergeNode in="SourceGraphic"/>
      </feMerge>
    </filter>
    <filter id="softGlow">
      <feGaussianBlur stdDeviation="8" result="coloredBlur"/>
      <feMerge>
        <feMergeNode in="coloredBlur"/>
        <feMergeNode in="SourceGraphic"/>
      </feMerge>
    </filter>
    <filter id="shadow">
      <feDropShadow dx="0" dy="4" stdDeviation="8" flood-color="#000000" flood-opacity="0.5"/>
    </filter>
  </defs>

  <!-- Background -->
  <rect width="1200" height="630" fill="url(#bgGradient)"/>

  <!-- Decorative ocean gradients -->
  <ellipse cx="1000" cy="150" rx="300" ry="200" fill="url(#oceanGradient)" opacity="0.4"/>
  <ellipse cx="200" cy="530" rx="250" ry="180" fill="url(#oceanGradient)" opacity="0.3"/>

  <!-- Wave patterns -->
  <path d="M 0 400 Q 300 350 600 400 T 1200 400 L 1200 630 L 0 630 Z" fill="#1E90A0" opacity="0.08"/>
  <path d="M 0 450 Q 250 420 500 450 T 1000 450 T 1200 450 L 1200 630 L 0 630 Z" fill="#4FD1C5" opacity="0.05"/>

  <!-- Caviar roe particles -->
  <circle cx="892.5855619174465" cy="119.48910105259344" r="5.061030054474768" fill="#CFAE58" opacity="0.21598399662844486"/>
  <circle cx="650.6643605546699" cy="375.4056848124598" r="5.062236699733491" fill="#CFAE58" opacity="0.14112835134769286"/>
  <circle cx="318.2196770772368" cy="286.7799864951165" r="3.3118593182804275" fill="#CFAE58" opacity="0.10678974703792987"/>
  <circle cx="428.43547036231917" cy="294.33949196381553" r="4.98379782222125" fill="#CFAE58" opacity="0.15112078699689221"/>
  <circle cx="594.9804196922892" cy="342.5178171511948" r="3.424650041258188" fill="#CFAE58" opacity="0.16386180052019425"/>
  <circle cx="175.41748140266637" cy="174.13161012162394" r="5.142572244061076" fill="#CFAE58" opacity="0.22148978564929755"/>
  <circle cx="457.4013813552487" cy="434.6386867449221" r="3.6572621969516255" fill="#CFAE58" opacity="0.14462166884897473"/>
  <circle cx="1105.0610737120346" cy="626.8099998778428" r="4.578151553951924" fill="#CFAE58" opacity="0.11558363892898736"/>
  <circle cx="132.61179541652345" cy="120.07045425504744" r="4.931239886393265" fill="#CFAE58" opacity="0.2430087059218503"/>
  <circle cx="112.56184701493778" cy="165.9184434217678" r="4.746647336766948" fill="#CFAE58" opacity="0.165041235343102"/>
  <circle cx="767.9752903674597" cy="425.46276173428885" r="3.6566965080567537" fill="#CFAE58" opacity="0.12374060626944548"/>
  <circle cx="1130.8959534920452" cy="242.1047701574627" r="5.954219069690716" fill="#CFAE58" opacity="0.23633055928087013"/>
  <circle cx="641.5258333352704" cy="117.2170420207289" r="3.1418108612519915" fill="#CFAE58" opacity="0.24710472731908964"/>
  <circle cx="424.9441493672749" cy="577.5370972908136" r="2.368053271489208" fill="#CFAE58" opacity="0.17178062551876422"/>
  <circle cx="1056.3166448895097" cy="157.71643292171152" r="3.1347302977319993" fill="#CFAE58" opacity="0.1274619963725092"/>
  <circle cx="177.8837105460143" cy="120.80622831533893" r="5.329817656424241" fill="#CFAE58" opacity="0.12028298572865412"/>
  <circle cx="728.646194224411" cy="441.62067118076294" r="4.656054262063235" fill="#CFAE58" opacity="0.1414891486235964"/>
  <circle cx="343.5557341979531" cy="84.32324679626622" r="5.663431408792564" fill="#CFAE58" opacity="0.10641696621466713"/>
  <circle cx="245.19565074744568" cy="326.9281814946474" r="5.564078011663813" fill="#CFAE58" opacity="0.1816550777017081"/>
  <circle cx="981.3444246135091" cy="232.555666095934" r="5.731533232996076" fill="#CFAE58" opacity="0.21278755856853054"/>
  <circle cx="145.25072890187238" cy="184.71049643322218" r="2.9659864457837397" fill="#CFAE58" opacity="0.13541825339300792"/>
  <circle cx="254.48687816961768" cy="567.4517920552275" r="2.2105945900915556" fill="#CFAE58" opacity="0.22259694748757738"/>
  <circle cx="496.64908071890767" cy="100.10668103076269" r="4.726689785458779" fill="#CFAE58" opacity="0.2357967623924555"/>
  <circle cx="28.327175581339592" cy="77.65869447773751" r="4.2905504910531445" fill="#CFAE58" opacity="0.23332449970367"/>
  <circle cx="343.64865591731785" cy="581.170598810496" r="2.1025465204657277" fill="#CFAE58" opacity="0.18964222275689313"/>
  <circle cx="692.3857289433384" cy="476.1676582843851" r="2.4069987698791317" fill="#CFAE58" opacity="0.23686082718562196"/>
  <circle cx="671.8994361101065" cy="68.20370897337268" r="5.4677692820543164" fill="#CFAE58" opacity="0.10986990042766699"/>
  <circle cx="624.3876859640283" cy="587.9607978710915" r="2.7061854729777006" fill="#CFAE58" opacity="0.22079494692893764"/>
  <circle cx="1012.9975648627524" cy="205.61725159100422" r="4.659443441096794" fill="#CFAE58" opacity="0.14924109599247337"/>
  <circle cx="872.7176092999792" cy="581.4964456531723" r="3.829366749967953" fill="#CFAE58" opacity="0.245966554451576"/>

  <!-- Border with glow -->
  <rect x="40" y="40" width="1120" height="550" fill="none" stroke="url(#goldGradient)" stroke-width="3" rx="12" filter="url(#softGlow)"/>

  <!-- Icon circle with premium background -->
  <circle cx="150" cy="200" r="75" fill="#CFAE58" opacity="0.15" filter="url(#softGlow)"/>
  <circle cx="150" cy="200" r="70" fill="#CFAE58" opacity="0.25"/>
  <text x="150" y="235" font-size="90" text-anchor="middle" fill="#CFAE58" filter="url(#glow)">🏠</text>

  <!-- Premium logo (crown) with enhanced styling -->
  <g transform="translate(100, 70)">
    <path d="M 30 20 L 40 35 L 35 35 Z M 50 15 L 60 35 L 45 35 Z M 65 20 L 75 35 L 70 35 Z M 30 35 L 75 35 L 73 45 L 32 45 Z"
          fill="url(#goldGradient)" filter="url(#glow)" stroke="#B89842" stroke-width="0.5"/>
    <circle cx="40" cy="25" r="3" fill="#4FD1C5" filter="url(#glow)"/>
    <circle cx="52" cy="20" r="4" fill="#4FD1C5" filter="url(#glow)"/>
    <circle cx="65" cy="25" r="3" fill="#4FD1C5" filter="url(#glow)"/>
  </g>

  <!-- Title with shadow -->
  <text x="280" y="180" font-family="Georgia, serif" font-size="72" font-weight="bold"
        fill="url(#goldGradient)" filter="url(#shadow)">From Roe to Royal</text>

  <!-- Subtitle with subtle glow -->
  <text x="280" y="230" font-family="Arial, sans-serif" font-size="36"
        fill="#D6DEE6" opacity="0.95" filter="url(#softGlow)">Premium Salmon Hatchery &amp; Caviar</text>

  <!-- Brand name with letter spacing -->
  <text x="280" y="300" font-family="Georgia, serif" font-size="32" font-weight="bold"
        fill="#CFAE58" letter-spacing="4" filter="url(#glow)">ROYAL KETA</text>

  <!-- Russian tagline -->
  <text x="280" y="340" font-family="Arial, sans-serif" font-size="22" font-style="italic"
        fill="#8B95A1" opacity="0.8">От икринки к королевской</text>

  <!-- Location -->
  <text x="280" y="380" font-family="Arial, sans-serif" font-size="20"
        fill="#8B95A1" opacity="0.7">Невельский район, Сахалин</text>

  <!-- Website with glow -->
  <text x="100" y="570" font-family="Arial, sans-serif" font-size="30" font-weight="bold"
        fill="#4FD1C5" filter="url(#glow)">royalketa.com</text>

  <!-- Enhanced decorative salmon silhouette -->
  <g transform="translate(950, 480)" opacity="0.2" filter="url(#softGlow)">
    <ellipse cx="0" cy="0" rx="90" ry="35" fill="#CFAE58"/>
    <path d="M 90 0 L 120 -18 L 130 0 L 120 18 Z" fill="#CFAE58"/>
    <path d="M -25 -35 L 0 -45 L 25 -35 Z" fill="#CFAE58"/>
    <ellipse cx="-50" cy="0" rx="15" ry="12" fill="#0B0F14"/>
  </g>

  <!-- Additional decorative caviar clusters -->
  <g opacity="0.2">
    <circle cx="1050" cy="120" r="6" fill="#CFAE58"/>
    <circle cx="1065" cy="115" r="5" fill="#CFAE58"/>
    <circle cx="1058" cy="130" r="4" fill="#CFAE58"/>
    <circle cx="150" cy="500" r="5" fill="#4FD1C5"/>
    <circle cx="165" cy="508" r="4" fill="#4FD1C5"/>
    <circle cx="140" cy="512" r="5" fill="#4FD1C5"/>
  </g>
</svg>