<svg width="1200" height="630" xmlns="http://www.w3.org/2000/svg">
  <defs>
    <linearGradient id="bgGradient" x1="0%" y1="0%" x2="100%" y2="100%">
      <stop offset="0%" style="stop-color:#0B0F14;stop-opacity:1" />
      <stop offset="50%" style="stop-color:#0F1619;stop-opacity:1" />
      <stop offset="100%" style="stop-color:#0F1922;stop-opacity:1" />
    </linearGradient>
    <linearGradient id="goldGradient" x1="0%" y1="0%" x2="100%" y2="0%">
      <stop offset="0%" style="stop-color:#E5D596;stop-opacity:1" />
      <stop offset="50%" style="stop-color:#CFAE58;stop-opacity:1" />
      <stop offset="100%" style="stop-color:#B89842;stop-opacity:1" />
    </linearGradient>
    <radialGradient id="oceanGradient" cx="50%" cy="50%" r="50%">
      <stop offset="0%" style="stop-color:#4FD1C5;stop-opacity:0.3" />
      <stop offset="100%" style="stop-color:#1E90A0;stop-opacity:0.05" />
    </radialGradient>
    <filter id="glow">
      <feGaussianBlur stdDeviation="5" result="coloredBlur"/>
      <feMerge>
        <feMergeNode in="coloredBlur"/>
        <feMergeNode in="SourceGraphic"/>
      </feMerge>
    </filter>
    <filter id="softGlow">
      <feGaussianBlur stdDeviation="8" result="coloredBlur"/>
      <feMerge>
        <feMergeNode in="coloredBlur"/>
        <feMergeNode in="SourceGraphic"/>
      </feMerge>
    </filter>
    <filter id="shadow">
      <feDropShadow dx="0" dy="4" stdDeviation="8" flood-color="#000000" flood-opacity="0.5"/>
    </filter>
  </defs>

  <!-- Background -->
  <rect width="1200" height="630" fill="url(#bgGradient)"/>

  <!-- Decorative ocean gradients -->
  <ellipse cx="1000" cy="150" rx="300" ry="200" fill="url(#oceanGradient)" opacity="0.4"/>
  <ellipse cx="200" cy="530" rx="250" ry="180" fill="url(#oceanGradient)" opacity="0.3"/>

  <!-- Wave patterns -->
  <path d="M 0 400 Q 300 350 600 400 T 1200 400 L 1200 630 L 0 630 Z" fill="#1E90A0" opacity="0.08"/>
  <path d="M 0 450 Q 250 420 500 450 T 1000 450 T 1200 450 L 1200 630 L 0 630 Z" fill="#4FD1C5" opacity="0.05"/>

  <!-- Caviar roe particles -->
  <circle cx="566.864300096608" cy="192.14763003960562" r="2.7378235343128887" fill="#CFAE58" opacity="0.2481216958192309"/>
  <circle cx="133.0675808151339" cy="538.6724094706218" r="2.1894182164674314" fill="#CFAE58" opacity="0.11411962762188531"/>
  <circle cx="1091.847751802322" cy="71.19024169635978" r="3.1995810135664247" fill="#CFAE58" opacity="0.16678741810562087"/>
  <circle cx="1144.6979692509512" cy="108.56510972432656" r="3.1872780692243614" fill="#CFAE58" opacity="0.16478480762625997"/>
  <circle cx="456.6180132455917" cy="541.716032189233" r="4.423038554102105" fill="#CFAE58" opacity="0.16895435806006723"/>
  <circle cx="141.16958712751736" cy="343.1676916011785" r="4.079913169979493" fill="#CFAE58" opacity="0.21372471091830655"/>
  <circle cx="378.66655723686443" cy="113.44748670577945" r="4.98475826129418" fill="#CFAE58" opacity="0.18423908568401515"/>
  <circle cx="398.0480276931802" cy="381.23632333821547" r="4.332213571778193" fill="#CFAE58" opacity="0.20385112305526298"/>
  <circle cx="674.5082860469597" cy="312.3952612751401" r="2.2997202318714045" fill="#CFAE58" opacity="0.12812640130557298"/>
  <circle cx="953.9209712388343" cy="296.9149867003084" r="2.982690121529295" fill="#CFAE58" opacity="0.10044782654186732"/>
  <circle cx="752.2265365542897" cy="159.58804752884447" r="4.877108261937509" fill="#CFAE58" opacity="0.1768324223247033"/>
  <circle cx="319.40753411451306" cy="503.3117399644785" r="5.542304236583855" fill="#CFAE58" opacity="0.17983004418596593"/>
  <circle cx="1090.6062853350816" cy="446.63235621889913" r="5.859385331777822" fill="#CFAE58" opacity="0.2456406008647582"/>
  <circle cx="695.5006039605357" cy="35.62481794325515" r="4.432619097804402" fill="#CFAE58" opacity="0.18086003883197416"/>
  <circle cx="596.972241392934" cy="383.18350231571213" r="4.848503743559517" fill="#CFAE58" opacity="0.15448892310006487"/>
  <circle cx="155.91942739031248" cy="529.0594806072254" r="4.798564085060651" fill="#CFAE58" opacity="0.23557142334758865"/>
  <circle cx="877.3186947822343" cy="149.94270258272348" r="5.5247284887732375" fill="#CFAE58" opacity="0.12434614223577906"/>
  <circle cx="705.5228761993101" cy="576.0355138121862" r="2.9571086202185164" fill="#CFAE58" opacity="0.23795894208314927"/>
  <circle cx="388.59765799558784" cy="535.1058338231885" r="3.5159887868482507" fill="#CFAE58" opacity="0.24977055098396092"/>
  <circle cx="1104.8959433053035" cy="282.8547100005252" r="5.316868925480037" fill="#CFAE58" opacity="0.11464668053329588"/>
  <circle cx="149.61387998655562" cy="624.4830164085193" r="3.9140751821158313" fill="#CFAE58" opacity="0.1667133861175606"/>
  <circle cx="249.21573313449468" cy="599.5254494427566" r="3.7402246779014128" fill="#CFAE58" opacity="0.23344325121628706"/>
  <circle cx="1183.1224593506904" cy="363.6598831196537" r="5.288044806198611" fill="#CFAE58" opacity="0.20038286896761903"/>
  <circle cx="33.18807976199487" cy="315.6436357923032" r="3.59212822225052" fill="#CFAE58" opacity="0.20479550376718048"/>
  <circle cx="828.4464460817054" cy="85.61784868688397" r="4.015584026530962" fill="#CFAE58" opacity="0.2152827811340283"/>
  <circle cx="144.4440870899508" cy="453.1333639531944" r="2.8421323654828825" fill="#CFAE58" opacity="0.17714723449421088"/>
  <circle cx="987.0100584366662" cy="293.38569804346844" r="3.6465047837154954" fill="#CFAE58" opacity="0.13839023186534727"/>
  <circle cx="1087.1151650636266" cy="406.8140432472937" r="5.144756100893913" fill="#CFAE58" opacity="0.14488934505963943"/>
  <circle cx="133.00589555980702" cy="576.0750472295286" r="5.181030388688246" fill="#CFAE58" opacity="0.23157822646146875"/>
  <circle cx="581.7698964960205" cy="284.0707243209416" r="5.280281004517218" fill="#CFAE58" opacity="0.10822411193001812"/>

  <!-- Border with glow -->
  <rect x="40" y="40" width="1120" height="550" fill="none" stroke="url(#goldGradient)" stroke-width="3" rx="12" filter="url(#softGlow)"/>

  <!-- Icon circle with premium background -->
  <circle cx="150" cy="200" r="75" fill="#CFAE58" opacity="0.15" filter="url(#softGlow)"/>
  <circle cx="150" cy="200" r="70" fill="#CFAE58" opacity="0.25"/>
  <text x="150" y="235" font-size="90" text-anchor="middle" fill="#CFAE58" filter="url(#glow)">🏠</text>

  <!-- Premium logo (crown) with enhanced styling -->
  <g transform="translate(100, 70)">
    <path d="M 30 20 L 40 35 L 35 35 Z M 50 15 L 60 35 L 45 35 Z M 65 20 L 75 35 L 70 35 Z M 30 35 L 75 35 L 73 45 L 32 45 Z"
          fill="url(#goldGradient)" filter="url(#glow)" stroke="#B89842" stroke-width="0.5"/>
    <circle cx="40" cy="25" r="3" fill="#4FD1C5" filter="url(#glow)"/>
    <circle cx="52" cy="20" r="4" fill="#4FD1C5" filter="url(#glow)"/>
    <circle cx="65" cy="25" r="3" fill="#4FD1C5" filter="url(#glow)"/>
  </g>

  <!-- Title with shadow -->
  <text x="280" y="180" font-family="Georgia, serif" font-size="72" font-weight="bold"
        fill="url(#goldGradient)" filter="url(#shadow)">From Roe to Royal</text>

  <!-- Subtitle with subtle glow -->
  <text x="280" y="230" font-family="Arial, sans-serif" font-size="36"
        fill="#D6DEE6" opacity="0.95" filter="url(#softGlow)">Premium Salmon Hatchery &amp; Caviar</text>

  <!-- Brand name with letter spacing -->
  <text x="280" y="300" font-family="Georgia, serif" font-size="32" font-weight="bold"
        fill="#CFAE58" letter-spacing="4" filter="url(#glow)">ROYAL KETA</text>

  <!-- Russian tagline -->
  <text x="280" y="340" font-family="Arial, sans-serif" font-size="22" font-style="italic"
        fill="#8B95A1" opacity="0.8">От икринки к королевской</text>

  <!-- Location -->
  <text x="280" y="380" font-family="Arial, sans-serif" font-size="20"
        fill="#8B95A1" opacity="0.7">Невельский район, Сахалин</text>

  <!-- Website with glow -->
  <text x="100" y="570" font-family="Arial, sans-serif" font-size="30" font-weight="bold"
        fill="#4FD1C5" filter="url(#glow)">royalketa.com</text>

  <!-- Enhanced decorative salmon silhouette -->
  <g transform="translate(950, 480)" opacity="0.2" filter="url(#softGlow)">
    <ellipse cx="0" cy="0" rx="90" ry="35" fill="#CFAE58"/>
    <path d="M 90 0 L 120 -18 L 130 0 L 120 18 Z" fill="#CFAE58"/>
    <path d="M -25 -35 L 0 -45 L 25 -35 Z" fill="#CFAE58"/>
    <ellipse cx="-50" cy="0" rx="15" ry="12" fill="#0B0F14"/>
  </g>

  <!-- Additional decorative caviar clusters -->
  <g opacity="0.2">
    <circle cx="1050" cy="120" r="6" fill="#CFAE58"/>
    <circle cx="1065" cy="115" r="5" fill="#CFAE58"/>
    <circle cx="1058" cy="130" r="4" fill="#CFAE58"/>
    <circle cx="150" cy="500" r="5" fill="#4FD1C5"/>
    <circle cx="165" cy="508" r="4" fill="#4FD1C5"/>
    <circle cx="140" cy="512" r="5" fill="#4FD1C5"/>
  </g>
</svg>