<svg width="1200" height="630" xmlns="http://www.w3.org/2000/svg">
  <defs>
    <linearGradient id="bgGradient" x1="0%" y1="0%" x2="100%" y2="100%">
      <stop offset="0%" style="stop-color:#0B0F14;stop-opacity:1" />
      <stop offset="50%" style="stop-color:#0F1619;stop-opacity:1" />
      <stop offset="100%" style="stop-color:#0F1922;stop-opacity:1" />
    </linearGradient>
    <linearGradient id="goldGradient" x1="0%" y1="0%" x2="100%" y2="0%">
      <stop offset="0%" style="stop-color:#E5D596;stop-opacity:1" />
      <stop offset="50%" style="stop-color:#CFAE58;stop-opacity:1" />
      <stop offset="100%" style="stop-color:#B89842;stop-opacity:1" />
    </linearGradient>
    <radialGradient id="oceanGradient" cx="50%" cy="50%" r="50%">
      <stop offset="0%" style="stop-color:#4FD1C5;stop-opacity:0.3" />
      <stop offset="100%" style="stop-color:#1E90A0;stop-opacity:0.05" />
    </radialGradient>
    <filter id="glow">
      <feGaussianBlur stdDeviation="5" result="coloredBlur"/>
      <feMerge>
        <feMergeNode in="coloredBlur"/>
        <feMergeNode in="SourceGraphic"/>
      </feMerge>
    </filter>
    <filter id="softGlow">
      <feGaussianBlur stdDeviation="8" result="coloredBlur"/>
      <feMerge>
        <feMergeNode in="coloredBlur"/>
        <feMergeNode in="SourceGraphic"/>
      </feMerge>
    </filter>
    <filter id="shadow">
      <feDropShadow dx="0" dy="4" stdDeviation="8" flood-color="#000000" flood-opacity="0.5"/>
    </filter>
  </defs>

  <!-- Background -->
  <rect width="1200" height="630" fill="url(#bgGradient)"/>

  <!-- Decorative ocean gradients -->
  <ellipse cx="1000" cy="150" rx="300" ry="200" fill="url(#oceanGradient)" opacity="0.4"/>
  <ellipse cx="200" cy="530" rx="250" ry="180" fill="url(#oceanGradient)" opacity="0.3"/>

  <!-- Wave patterns -->
  <path d="M 0 400 Q 300 350 600 400 T 1200 400 L 1200 630 L 0 630 Z" fill="#1E90A0" opacity="0.08"/>
  <path d="M 0 450 Q 250 420 500 450 T 1000 450 T 1200 450 L 1200 630 L 0 630 Z" fill="#4FD1C5" opacity="0.05"/>

  <!-- Caviar roe particles -->
  <circle cx="644.1017749797943" cy="353.625445236027" r="2.720279769532635" fill="#CFAE58" opacity="0.24672626301842024"/>
  <circle cx="10.129142376495937" cy="79.99269883927649" r="2.4926911538949303" fill="#CFAE58" opacity="0.22299884438164552"/>
  <circle cx="862.8123468417439" cy="543.279118058303" r="5.365616656299061" fill="#CFAE58" opacity="0.1762168026796299"/>
  <circle cx="1034.3833263239728" cy="586.806648381974" r="3.1240732467930967" fill="#CFAE58" opacity="0.18179553985409075"/>
  <circle cx="859.6512051601419" cy="241.23521372671695" r="4.031632109347479" fill="#CFAE58" opacity="0.19758851424932267"/>
  <circle cx="790.6231709562974" cy="106.57344485191716" r="5.160745281123531" fill="#CFAE58" opacity="0.21738049676601628"/>
  <circle cx="573.8561826447641" cy="509.2583378830273" r="2.1318477335413775" fill="#CFAE58" opacity="0.1242753136863709"/>
  <circle cx="1107.6075270743704" cy="199.08033472732862" r="2.929408803265573" fill="#CFAE58" opacity="0.21793593709684483"/>
  <circle cx="956.2929501284636" cy="374.27132930122804" r="5.280138742135033" fill="#CFAE58" opacity="0.22918388695719166"/>
  <circle cx="1038.7027949171638" cy="159.98874423207818" r="5.431580675843518" fill="#CFAE58" opacity="0.10574056343077094"/>
  <circle cx="433.75004168181823" cy="418.3551683373595" r="5.570531878539564" fill="#CFAE58" opacity="0.1407731002835767"/>
  <circle cx="1118.9248053166825" cy="266.6071284860784" r="2.623781511658967" fill="#CFAE58" opacity="0.1979164348435661"/>
  <circle cx="240.287118237026" cy="497.7310206436813" r="2.9815410521379957" fill="#CFAE58" opacity="0.19649628365258404"/>
  <circle cx="953.0512786571472" cy="120.9433750436951" r="3.0691202843475573" fill="#CFAE58" opacity="0.20251635059815465"/>
  <circle cx="1139.5410203379322" cy="397.8119577018259" r="4.251043682318403" fill="#CFAE58" opacity="0.16468319370116358"/>
  <circle cx="338.71102978538477" cy="346.75949695342536" r="2.7459487525635953" fill="#CFAE58" opacity="0.1632139226925297"/>
  <circle cx="100.2971242638456" cy="293.95482717358004" r="2.4285814640651027" fill="#CFAE58" opacity="0.15086729341255237"/>
  <circle cx="961.9598153272474" cy="501.4164897510943" r="2.4478240504321565" fill="#CFAE58" opacity="0.2012213376113406"/>
  <circle cx="895.9805574092065" cy="163.57734094090827" r="2.383892964204386" fill="#CFAE58" opacity="0.10855988257893333"/>
  <circle cx="966.521479317258" cy="158.55183922107233" r="5.207558756850546" fill="#CFAE58" opacity="0.12539452284904698"/>
  <circle cx="424.0803817687694" cy="276.51946348663614" r="5.019407233402479" fill="#CFAE58" opacity="0.16894975487127034"/>
  <circle cx="1190.5655317546114" cy="403.37784500173717" r="2.335559508622607" fill="#CFAE58" opacity="0.11158595643952876"/>
  <circle cx="1171.7679973358497" cy="121.88361176572839" r="5.93160877356252" fill="#CFAE58" opacity="0.15052313703054931"/>
  <circle cx="1182.42306517535" cy="369.10797432897186" r="5.245240997630202" fill="#CFAE58" opacity="0.10905165671612155"/>
  <circle cx="1056.9780538275645" cy="595.8405314770995" r="5.968364206333267" fill="#CFAE58" opacity="0.11605019712678839"/>
  <circle cx="189.53086973184946" cy="199.12455508602278" r="4.793110270566291" fill="#CFAE58" opacity="0.1758141646600727"/>
  <circle cx="318.2729871566288" cy="392.03522692032885" r="5.953082144895643" fill="#CFAE58" opacity="0.14978001503837474"/>
  <circle cx="588.9837505335684" cy="221.48200479568362" r="4.104440515792936" fill="#CFAE58" opacity="0.2156402427268753"/>
  <circle cx="834.1226499676341" cy="272.3531954296608" r="2.078676630400645" fill="#CFAE58" opacity="0.23728229714863786"/>
  <circle cx="573.7730859662805" cy="389.23533135802916" r="3.031565499089438" fill="#CFAE58" opacity="0.11078424702518758"/>

  <!-- Border with glow -->
  <rect x="40" y="40" width="1120" height="550" fill="none" stroke="url(#goldGradient)" stroke-width="3" rx="12" filter="url(#softGlow)"/>

  <!-- Icon circle with premium background -->
  <circle cx="150" cy="200" r="75" fill="#CFAE58" opacity="0.15" filter="url(#softGlow)"/>
  <circle cx="150" cy="200" r="70" fill="#CFAE58" opacity="0.25"/>
  <text x="150" y="235" font-size="90" text-anchor="middle" fill="#CFAE58" filter="url(#glow)">🏠</text>

  <!-- Premium logo (crown) with enhanced styling -->
  <g transform="translate(100, 70)">
    <path d="M 30 20 L 40 35 L 35 35 Z M 50 15 L 60 35 L 45 35 Z M 65 20 L 75 35 L 70 35 Z M 30 35 L 75 35 L 73 45 L 32 45 Z"
          fill="url(#goldGradient)" filter="url(#glow)" stroke="#B89842" stroke-width="0.5"/>
    <circle cx="40" cy="25" r="3" fill="#4FD1C5" filter="url(#glow)"/>
    <circle cx="52" cy="20" r="4" fill="#4FD1C5" filter="url(#glow)"/>
    <circle cx="65" cy="25" r="3" fill="#4FD1C5" filter="url(#glow)"/>
  </g>

  <!-- Title with shadow -->
  <text x="280" y="180" font-family="Georgia, serif" font-size="72" font-weight="bold"
        fill="url(#goldGradient)" filter="url(#shadow)">From Roe to Royal</text>

  <!-- Subtitle with subtle glow -->
  <text x="280" y="230" font-family="Arial, sans-serif" font-size="36"
        fill="#D6DEE6" opacity="0.95" filter="url(#softGlow)">Premium Salmon Hatchery &amp; Caviar</text>

  <!-- Brand name with letter spacing -->
  <text x="280" y="300" font-family="Georgia, serif" font-size="32" font-weight="bold"
        fill="#CFAE58" letter-spacing="4" filter="url(#glow)">ROYAL KETA</text>

  <!-- Russian tagline -->
  <text x="280" y="340" font-family="Arial, sans-serif" font-size="22" font-style="italic"
        fill="#8B95A1" opacity="0.8">От икринки к королевской</text>

  <!-- Location -->
  <text x="280" y="380" font-family="Arial, sans-serif" font-size="20"
        fill="#8B95A1" opacity="0.7">Невельский район, Сахалин</text>

  <!-- Website with glow -->
  <text x="100" y="570" font-family="Arial, sans-serif" font-size="30" font-weight="bold"
        fill="#4FD1C5" filter="url(#glow)">royalketa.com</text>

  <!-- Enhanced decorative salmon silhouette -->
  <g transform="translate(950, 480)" opacity="0.2" filter="url(#softGlow)">
    <ellipse cx="0" cy="0" rx="90" ry="35" fill="#CFAE58"/>
    <path d="M 90 0 L 120 -18 L 130 0 L 120 18 Z" fill="#CFAE58"/>
    <path d="M -25 -35 L 0 -45 L 25 -35 Z" fill="#CFAE58"/>
    <ellipse cx="-50" cy="0" rx="15" ry="12" fill="#0B0F14"/>
  </g>

  <!-- Additional decorative caviar clusters -->
  <g opacity="0.2">
    <circle cx="1050" cy="120" r="6" fill="#CFAE58"/>
    <circle cx="1065" cy="115" r="5" fill="#CFAE58"/>
    <circle cx="1058" cy="130" r="4" fill="#CFAE58"/>
    <circle cx="150" cy="500" r="5" fill="#4FD1C5"/>
    <circle cx="165" cy="508" r="4" fill="#4FD1C5"/>
    <circle cx="140" cy="512" r="5" fill="#4FD1C5"/>
  </g>
</svg>