<svg width="1200" height="630" xmlns="http://www.w3.org/2000/svg">
  <defs>
    <linearGradient id="bgGradient" x1="0%" y1="0%" x2="100%" y2="100%">
      <stop offset="0%" style="stop-color:#0B0F14;stop-opacity:1" />
      <stop offset="50%" style="stop-color:#0F1619;stop-opacity:1" />
      <stop offset="100%" style="stop-color:#0F1922;stop-opacity:1" />
    </linearGradient>
    <linearGradient id="goldGradient" x1="0%" y1="0%" x2="100%" y2="0%">
      <stop offset="0%" style="stop-color:#E5D596;stop-opacity:1" />
      <stop offset="50%" style="stop-color:#CFAE58;stop-opacity:1" />
      <stop offset="100%" style="stop-color:#B89842;stop-opacity:1" />
    </linearGradient>
    <radialGradient id="oceanGradient" cx="50%" cy="50%" r="50%">
      <stop offset="0%" style="stop-color:#4FD1C5;stop-opacity:0.3" />
      <stop offset="100%" style="stop-color:#1E90A0;stop-opacity:0.05" />
    </radialGradient>
    <filter id="glow">
      <feGaussianBlur stdDeviation="5" result="coloredBlur"/>
      <feMerge>
        <feMergeNode in="coloredBlur"/>
        <feMergeNode in="SourceGraphic"/>
      </feMerge>
    </filter>
    <filter id="softGlow">
      <feGaussianBlur stdDeviation="8" result="coloredBlur"/>
      <feMerge>
        <feMergeNode in="coloredBlur"/>
        <feMergeNode in="SourceGraphic"/>
      </feMerge>
    </filter>
    <filter id="shadow">
      <feDropShadow dx="0" dy="4" stdDeviation="8" flood-color="#000000" flood-opacity="0.5"/>
    </filter>
  </defs>

  <!-- Background -->
  <rect width="1200" height="630" fill="url(#bgGradient)"/>

  <!-- Decorative ocean gradients -->
  <ellipse cx="1000" cy="150" rx="300" ry="200" fill="url(#oceanGradient)" opacity="0.4"/>
  <ellipse cx="200" cy="530" rx="250" ry="180" fill="url(#oceanGradient)" opacity="0.3"/>

  <!-- Wave patterns -->
  <path d="M 0 400 Q 300 350 600 400 T 1200 400 L 1200 630 L 0 630 Z" fill="#1E90A0" opacity="0.08"/>
  <path d="M 0 450 Q 250 420 500 450 T 1000 450 T 1200 450 L 1200 630 L 0 630 Z" fill="#4FD1C5" opacity="0.05"/>

  <!-- Caviar roe particles -->
  <circle cx="481.04072471942663" cy="295.53099954690447" r="2.7486511196507077" fill="#CFAE58" opacity="0.1983027268360502"/>
  <circle cx="1088.369089373272" cy="222.0849709176669" r="4.12158785359718" fill="#CFAE58" opacity="0.2350827914304193"/>
  <circle cx="53.48244877468726" cy="68.79870123996605" r="4.76735145133228" fill="#CFAE58" opacity="0.2325929871271186"/>
  <circle cx="902.4340978757441" cy="382.9042954609834" r="5.086667356262829" fill="#CFAE58" opacity="0.10132914830555725"/>
  <circle cx="350.37153518460514" cy="74.9957588792545" r="4.725751866972988" fill="#CFAE58" opacity="0.1098255865841383"/>
  <circle cx="1106.7866310495046" cy="51.019685493299505" r="5.7997756219257095" fill="#CFAE58" opacity="0.11668670149032938"/>
  <circle cx="463.384087510758" cy="234.5471505528145" r="5.0465912808388245" fill="#CFAE58" opacity="0.18249196532319883"/>
  <circle cx="1021.2716951556483" cy="33.6609766923592" r="3.9763587304502988" fill="#CFAE58" opacity="0.15243334472255257"/>
  <circle cx="586.1903216974791" cy="168.28172521659872" r="2.2252036165881672" fill="#CFAE58" opacity="0.13005532277256862"/>
  <circle cx="26.79737391920103" cy="82.88105933491211" r="3.1859409510845045" fill="#CFAE58" opacity="0.19652320399919354"/>
  <circle cx="336.7698180614546" cy="533.7971730874151" r="5.9600712699023095" fill="#CFAE58" opacity="0.13855416879520477"/>
  <circle cx="638.348036580983" cy="623.0844116198712" r="4.082832784070471" fill="#CFAE58" opacity="0.2282606178844867"/>
  <circle cx="459.8273621995409" cy="428.9769060383309" r="2.4055694746527347" fill="#CFAE58" opacity="0.10228191085044133"/>
  <circle cx="373.9048483755088" cy="389.381011371773" r="3.4686849341029755" fill="#CFAE58" opacity="0.2281139629929841"/>
  <circle cx="885.8140801826388" cy="394.88146754035535" r="3.1168519779348323" fill="#CFAE58" opacity="0.24503467794544195"/>
  <circle cx="341.73903024299483" cy="145.01705988079553" r="5.661967561284676" fill="#CFAE58" opacity="0.22906995506251732"/>
  <circle cx="463.4962115351689" cy="415.3851285416062" r="5.224896438997172" fill="#CFAE58" opacity="0.12749456075905352"/>
  <circle cx="807.484002109808" cy="147.13382080250005" r="5.153508838918203" fill="#CFAE58" opacity="0.17571301072674866"/>
  <circle cx="415.49535707263334" cy="593.6353194837416" r="4.500997561108209" fill="#CFAE58" opacity="0.1183432216571593"/>
  <circle cx="1016.6825874115879" cy="6.773193577759129" r="4.676674577249022" fill="#CFAE58" opacity="0.21183163090616935"/>
  <circle cx="454.0014922499445" cy="382.1782518084399" r="4.647786771672064" fill="#CFAE58" opacity="0.22926478860767868"/>
  <circle cx="497.8587805448869" cy="297.00918641038817" r="2.6086703323651528" fill="#CFAE58" opacity="0.14401253014916082"/>
  <circle cx="522.250844446722" cy="33.20652139209106" r="3.577018750790538" fill="#CFAE58" opacity="0.14382347115422658"/>
  <circle cx="371.39087381767297" cy="128.76604582680903" r="2.945737019056582" fill="#CFAE58" opacity="0.2488686435929687"/>
  <circle cx="330.77509628408086" cy="625.6885736107911" r="3.950433143389159" fill="#CFAE58" opacity="0.15060768421033874"/>
  <circle cx="348.39139629612265" cy="69.2406786023933" r="4.762703848304744" fill="#CFAE58" opacity="0.24356282981639887"/>
  <circle cx="840.2749962560188" cy="620.4831479420533" r="4.9898204509601936" fill="#CFAE58" opacity="0.18164684978340223"/>
  <circle cx="873.821147393198" cy="132.6325764554639" r="2.6958106216556983" fill="#CFAE58" opacity="0.23184523529444262"/>
  <circle cx="960.3033549991632" cy="482.29312611211293" r="3.6954366632702067" fill="#CFAE58" opacity="0.22391745718324813"/>
  <circle cx="479.3094421241585" cy="156.46971836435534" r="3.912507123683668" fill="#CFAE58" opacity="0.10423294176300486"/>

  <!-- Border with glow -->
  <rect x="40" y="40" width="1120" height="550" fill="none" stroke="url(#goldGradient)" stroke-width="3" rx="12" filter="url(#softGlow)"/>

  <!-- Icon circle with premium background -->
  <circle cx="150" cy="200" r="75" fill="#CFAE58" opacity="0.15" filter="url(#softGlow)"/>
  <circle cx="150" cy="200" r="70" fill="#CFAE58" opacity="0.25"/>
  <text x="150" y="235" font-size="90" text-anchor="middle" fill="#CFAE58" filter="url(#glow)">🏠</text>

  <!-- Premium logo (crown) with enhanced styling -->
  <g transform="translate(100, 70)">
    <path d="M 30 20 L 40 35 L 35 35 Z M 50 15 L 60 35 L 45 35 Z M 65 20 L 75 35 L 70 35 Z M 30 35 L 75 35 L 73 45 L 32 45 Z"
          fill="url(#goldGradient)" filter="url(#glow)" stroke="#B89842" stroke-width="0.5"/>
    <circle cx="40" cy="25" r="3" fill="#4FD1C5" filter="url(#glow)"/>
    <circle cx="52" cy="20" r="4" fill="#4FD1C5" filter="url(#glow)"/>
    <circle cx="65" cy="25" r="3" fill="#4FD1C5" filter="url(#glow)"/>
  </g>

  <!-- Title with shadow -->
  <text x="280" y="180" font-family="Georgia, serif" font-size="72" font-weight="bold"
        fill="url(#goldGradient)" filter="url(#shadow)">From Roe to Royal</text>

  <!-- Subtitle with subtle glow -->
  <text x="280" y="230" font-family="Arial, sans-serif" font-size="36"
        fill="#D6DEE6" opacity="0.95" filter="url(#softGlow)">Premium Salmon Hatchery &amp; Caviar</text>

  <!-- Brand name with letter spacing -->
  <text x="280" y="300" font-family="Georgia, serif" font-size="32" font-weight="bold"
        fill="#CFAE58" letter-spacing="4" filter="url(#glow)">ROYAL KETA</text>

  <!-- Russian tagline -->
  <text x="280" y="340" font-family="Arial, sans-serif" font-size="22" font-style="italic"
        fill="#8B95A1" opacity="0.8">От икринки к королевской</text>

  <!-- Location -->
  <text x="280" y="380" font-family="Arial, sans-serif" font-size="20"
        fill="#8B95A1" opacity="0.7">Невельский район, Сахалин</text>

  <!-- Website with glow -->
  <text x="100" y="570" font-family="Arial, sans-serif" font-size="30" font-weight="bold"
        fill="#4FD1C5" filter="url(#glow)">royalketa.com</text>

  <!-- Enhanced decorative salmon silhouette -->
  <g transform="translate(950, 480)" opacity="0.2" filter="url(#softGlow)">
    <ellipse cx="0" cy="0" rx="90" ry="35" fill="#CFAE58"/>
    <path d="M 90 0 L 120 -18 L 130 0 L 120 18 Z" fill="#CFAE58"/>
    <path d="M -25 -35 L 0 -45 L 25 -35 Z" fill="#CFAE58"/>
    <ellipse cx="-50" cy="0" rx="15" ry="12" fill="#0B0F14"/>
  </g>

  <!-- Additional decorative caviar clusters -->
  <g opacity="0.2">
    <circle cx="1050" cy="120" r="6" fill="#CFAE58"/>
    <circle cx="1065" cy="115" r="5" fill="#CFAE58"/>
    <circle cx="1058" cy="130" r="4" fill="#CFAE58"/>
    <circle cx="150" cy="500" r="5" fill="#4FD1C5"/>
    <circle cx="165" cy="508" r="4" fill="#4FD1C5"/>
    <circle cx="140" cy="512" r="5" fill="#4FD1C5"/>
  </g>
</svg>