<svg width="1200" height="630" xmlns="http://www.w3.org/2000/svg">
  <defs>
    <linearGradient id="bgGradient" x1="0%" y1="0%" x2="100%" y2="100%">
      <stop offset="0%" style="stop-color:#0B0F14;stop-opacity:1" />
      <stop offset="50%" style="stop-color:#0F1619;stop-opacity:1" />
      <stop offset="100%" style="stop-color:#0F1922;stop-opacity:1" />
    </linearGradient>
    <linearGradient id="goldGradient" x1="0%" y1="0%" x2="100%" y2="0%">
      <stop offset="0%" style="stop-color:#E5D596;stop-opacity:1" />
      <stop offset="50%" style="stop-color:#CFAE58;stop-opacity:1" />
      <stop offset="100%" style="stop-color:#B89842;stop-opacity:1" />
    </linearGradient>
    <radialGradient id="oceanGradient" cx="50%" cy="50%" r="50%">
      <stop offset="0%" style="stop-color:#4FD1C5;stop-opacity:0.3" />
      <stop offset="100%" style="stop-color:#1E90A0;stop-opacity:0.05" />
    </radialGradient>
    <filter id="glow">
      <feGaussianBlur stdDeviation="5" result="coloredBlur"/>
      <feMerge>
        <feMergeNode in="coloredBlur"/>
        <feMergeNode in="SourceGraphic"/>
      </feMerge>
    </filter>
    <filter id="softGlow">
      <feGaussianBlur stdDeviation="8" result="coloredBlur"/>
      <feMerge>
        <feMergeNode in="coloredBlur"/>
        <feMergeNode in="SourceGraphic"/>
      </feMerge>
    </filter>
    <filter id="shadow">
      <feDropShadow dx="0" dy="4" stdDeviation="8" flood-color="#000000" flood-opacity="0.5"/>
    </filter>
  </defs>

  <!-- Background -->
  <rect width="1200" height="630" fill="url(#bgGradient)"/>

  <!-- Decorative ocean gradients -->
  <ellipse cx="1000" cy="150" rx="300" ry="200" fill="url(#oceanGradient)" opacity="0.4"/>
  <ellipse cx="200" cy="530" rx="250" ry="180" fill="url(#oceanGradient)" opacity="0.3"/>

  <!-- Wave patterns -->
  <path d="M 0 400 Q 300 350 600 400 T 1200 400 L 1200 630 L 0 630 Z" fill="#1E90A0" opacity="0.08"/>
  <path d="M 0 450 Q 250 420 500 450 T 1000 450 T 1200 450 L 1200 630 L 0 630 Z" fill="#4FD1C5" opacity="0.05"/>

  <!-- Caviar roe particles -->
  <circle cx="862.5299098168241" cy="540.701302038515" r="5.418619978223953" fill="#CFAE58" opacity="0.10511708327895346"/>
  <circle cx="207.9564561170937" cy="211.9375363511047" r="4.297396617558831" fill="#CFAE58" opacity="0.23523404848673818"/>
  <circle cx="700.1239124278118" cy="2.099956718514553" r="5.383433485491351" fill="#CFAE58" opacity="0.1841829599802169"/>
  <circle cx="478.71740219621194" cy="391.9436099904144" r="3.4424021937038933" fill="#CFAE58" opacity="0.1391694338388162"/>
  <circle cx="223.28241234731198" cy="278.38747976657487" r="3.8497677610711003" fill="#CFAE58" opacity="0.16891180483264973"/>
  <circle cx="295.88602607065997" cy="501.80417996527717" r="5.172352909929864" fill="#CFAE58" opacity="0.109393991220706"/>
  <circle cx="483.2965471322037" cy="78.28635192754817" r="2.4412748308991192" fill="#CFAE58" opacity="0.1351397672697618"/>
  <circle cx="827.6199232541086" cy="251.07149533524426" r="3.4691703478771023" fill="#CFAE58" opacity="0.1083641507386574"/>
  <circle cx="696.8986657929646" cy="302.0560362368768" r="5.880019229405702" fill="#CFAE58" opacity="0.19745145100701816"/>
  <circle cx="656.7287665406773" cy="311.30178418414783" r="2.8241566547362043" fill="#CFAE58" opacity="0.12281950871849848"/>
  <circle cx="158.34806460966968" cy="591.8499837586788" r="5.656006917858892" fill="#CFAE58" opacity="0.20975153391235338"/>
  <circle cx="539.2105767861779" cy="40.377673150898055" r="2.991574935772319" fill="#CFAE58" opacity="0.1120763641437154"/>
  <circle cx="672.3652328927168" cy="249.4753607279488" r="4.046575264690472" fill="#CFAE58" opacity="0.11838183950044917"/>
  <circle cx="810.2940835829164" cy="101.48007164260326" r="4.316552195017594" fill="#CFAE58" opacity="0.22569803157629167"/>
  <circle cx="556.0344034928203" cy="103.57893821545532" r="5.126863756381343" fill="#CFAE58" opacity="0.13861298514050263"/>
  <circle cx="1118.5523134117911" cy="351.1669591864766" r="4.940037660331342" fill="#CFAE58" opacity="0.22062394613930683"/>
  <circle cx="955.7932118844075" cy="74.90565665913749" r="3.1636260150674325" fill="#CFAE58" opacity="0.10637062854431743"/>
  <circle cx="909.7534433190232" cy="12.425211239588204" r="5.846267791821488" fill="#CFAE58" opacity="0.18108844411953479"/>
  <circle cx="48.214596891760394" cy="121.06889437274906" r="4.083680030191637" fill="#CFAE58" opacity="0.23167468901835728"/>
  <circle cx="318.0158828618003" cy="146.10514098755712" r="5.71029214185626" fill="#CFAE58" opacity="0.10661253687358312"/>
  <circle cx="219.01499509082862" cy="134.14220307519267" r="3.508471713763848" fill="#CFAE58" opacity="0.22251675476310462"/>
  <circle cx="628.1819654088457" cy="330.14149605222065" r="4.974807616841488" fill="#CFAE58" opacity="0.13682964490412194"/>
  <circle cx="720.4894205821779" cy="31.693332458022287" r="4.413504628713207" fill="#CFAE58" opacity="0.1467307302172787"/>
  <circle cx="869.8817857426126" cy="124.39253263751455" r="3.343530593243412" fill="#CFAE58" opacity="0.22183647737343162"/>
  <circle cx="935.8503865345375" cy="288.8108191233608" r="5.921211853705122" fill="#CFAE58" opacity="0.13825042500931783"/>
  <circle cx="365.817541099669" cy="141.47298018540542" r="5.596608432654792" fill="#CFAE58" opacity="0.16667423871770543"/>
  <circle cx="684.9037203764988" cy="325.2816243045184" r="3.8359705874603724" fill="#CFAE58" opacity="0.23313659559350436"/>
  <circle cx="156.92106024688633" cy="2.7516389852294854" r="3.0243670379926497" fill="#CFAE58" opacity="0.12774914091867773"/>
  <circle cx="67.84291901399557" cy="516.6643157758981" r="4.60797904689645" fill="#CFAE58" opacity="0.1642647285047003"/>
  <circle cx="1128.0824996109206" cy="99.33517054118258" r="4.216631094285667" fill="#CFAE58" opacity="0.23308735387183324"/>

  <!-- Border with glow -->
  <rect x="40" y="40" width="1120" height="550" fill="none" stroke="url(#goldGradient)" stroke-width="3" rx="12" filter="url(#softGlow)"/>

  <!-- Icon circle with premium background -->
  <circle cx="150" cy="200" r="75" fill="#CFAE58" opacity="0.15" filter="url(#softGlow)"/>
  <circle cx="150" cy="200" r="70" fill="#CFAE58" opacity="0.25"/>
  <text x="150" y="235" font-size="90" text-anchor="middle" fill="#CFAE58" filter="url(#glow)">🏠</text>

  <!-- Premium logo (crown) with enhanced styling -->
  <g transform="translate(100, 70)">
    <path d="M 30 20 L 40 35 L 35 35 Z M 50 15 L 60 35 L 45 35 Z M 65 20 L 75 35 L 70 35 Z M 30 35 L 75 35 L 73 45 L 32 45 Z"
          fill="url(#goldGradient)" filter="url(#glow)" stroke="#B89842" stroke-width="0.5"/>
    <circle cx="40" cy="25" r="3" fill="#4FD1C5" filter="url(#glow)"/>
    <circle cx="52" cy="20" r="4" fill="#4FD1C5" filter="url(#glow)"/>
    <circle cx="65" cy="25" r="3" fill="#4FD1C5" filter="url(#glow)"/>
  </g>

  <!-- Title with shadow -->
  <text x="280" y="180" font-family="Georgia, serif" font-size="72" font-weight="bold"
        fill="url(#goldGradient)" filter="url(#shadow)">From Roe to Royal</text>

  <!-- Subtitle with subtle glow -->
  <text x="280" y="230" font-family="Arial, sans-serif" font-size="36"
        fill="#D6DEE6" opacity="0.95" filter="url(#softGlow)">Premium Salmon Hatchery &amp; Caviar</text>

  <!-- Brand name with letter spacing -->
  <text x="280" y="300" font-family="Georgia, serif" font-size="32" font-weight="bold"
        fill="#CFAE58" letter-spacing="4" filter="url(#glow)">ROYAL KETA</text>

  <!-- Russian tagline -->
  <text x="280" y="340" font-family="Arial, sans-serif" font-size="22" font-style="italic"
        fill="#8B95A1" opacity="0.8">От икринки к королевской</text>

  <!-- Location -->
  <text x="280" y="380" font-family="Arial, sans-serif" font-size="20"
        fill="#8B95A1" opacity="0.7">Невельский район, Сахалин</text>

  <!-- Website with glow -->
  <text x="100" y="570" font-family="Arial, sans-serif" font-size="30" font-weight="bold"
        fill="#4FD1C5" filter="url(#glow)">royalketa.com</text>

  <!-- Enhanced decorative salmon silhouette -->
  <g transform="translate(950, 480)" opacity="0.2" filter="url(#softGlow)">
    <ellipse cx="0" cy="0" rx="90" ry="35" fill="#CFAE58"/>
    <path d="M 90 0 L 120 -18 L 130 0 L 120 18 Z" fill="#CFAE58"/>
    <path d="M -25 -35 L 0 -45 L 25 -35 Z" fill="#CFAE58"/>
    <ellipse cx="-50" cy="0" rx="15" ry="12" fill="#0B0F14"/>
  </g>

  <!-- Additional decorative caviar clusters -->
  <g opacity="0.2">
    <circle cx="1050" cy="120" r="6" fill="#CFAE58"/>
    <circle cx="1065" cy="115" r="5" fill="#CFAE58"/>
    <circle cx="1058" cy="130" r="4" fill="#CFAE58"/>
    <circle cx="150" cy="500" r="5" fill="#4FD1C5"/>
    <circle cx="165" cy="508" r="4" fill="#4FD1C5"/>
    <circle cx="140" cy="512" r="5" fill="#4FD1C5"/>
  </g>
</svg>