<svg width="1200" height="630" xmlns="http://www.w3.org/2000/svg">
  <defs>
    <linearGradient id="bgGradient" x1="0%" y1="0%" x2="100%" y2="100%">
      <stop offset="0%" style="stop-color:#0B0F14;stop-opacity:1" />
      <stop offset="50%" style="stop-color:#0F1619;stop-opacity:1" />
      <stop offset="100%" style="stop-color:#0F1922;stop-opacity:1" />
    </linearGradient>
    <linearGradient id="goldGradient" x1="0%" y1="0%" x2="100%" y2="0%">
      <stop offset="0%" style="stop-color:#E5D596;stop-opacity:1" />
      <stop offset="50%" style="stop-color:#CFAE58;stop-opacity:1" />
      <stop offset="100%" style="stop-color:#B89842;stop-opacity:1" />
    </linearGradient>
    <radialGradient id="oceanGradient" cx="50%" cy="50%" r="50%">
      <stop offset="0%" style="stop-color:#4FD1C5;stop-opacity:0.3" />
      <stop offset="100%" style="stop-color:#1E90A0;stop-opacity:0.05" />
    </radialGradient>
    <filter id="glow">
      <feGaussianBlur stdDeviation="5" result="coloredBlur"/>
      <feMerge>
        <feMergeNode in="coloredBlur"/>
        <feMergeNode in="SourceGraphic"/>
      </feMerge>
    </filter>
    <filter id="softGlow">
      <feGaussianBlur stdDeviation="8" result="coloredBlur"/>
      <feMerge>
        <feMergeNode in="coloredBlur"/>
        <feMergeNode in="SourceGraphic"/>
      </feMerge>
    </filter>
    <filter id="shadow">
      <feDropShadow dx="0" dy="4" stdDeviation="8" flood-color="#000000" flood-opacity="0.5"/>
    </filter>
  </defs>

  <!-- Background -->
  <rect width="1200" height="630" fill="url(#bgGradient)"/>

  <!-- Decorative ocean gradients -->
  <ellipse cx="1000" cy="150" rx="300" ry="200" fill="url(#oceanGradient)" opacity="0.4"/>
  <ellipse cx="200" cy="530" rx="250" ry="180" fill="url(#oceanGradient)" opacity="0.3"/>

  <!-- Wave patterns -->
  <path d="M 0 400 Q 300 350 600 400 T 1200 400 L 1200 630 L 0 630 Z" fill="#1E90A0" opacity="0.08"/>
  <path d="M 0 450 Q 250 420 500 450 T 1000 450 T 1200 450 L 1200 630 L 0 630 Z" fill="#4FD1C5" opacity="0.05"/>

  <!-- Caviar roe particles -->
  <circle cx="613.322710185296" cy="132.2659314978234" r="2.418942774931168" fill="#CFAE58" opacity="0.2475801258823658"/>
  <circle cx="296.875171885267" cy="154.2700929411308" r="5.295737659617176" fill="#CFAE58" opacity="0.141663515610225"/>
  <circle cx="900.3263476708471" cy="233.61391380390543" r="3.1685442108807775" fill="#CFAE58" opacity="0.20945525795062345"/>
  <circle cx="362.2561082054997" cy="371.3904046756762" r="4.561772093805892" fill="#CFAE58" opacity="0.12180693262460314"/>
  <circle cx="1007.4961156644897" cy="79.68432915574951" r="2.5434035440625244" fill="#CFAE58" opacity="0.15037714853138906"/>
  <circle cx="370.57388585125454" cy="480.13514355602814" r="5.426777048534385" fill="#CFAE58" opacity="0.2372774412398189"/>
  <circle cx="442.9062988966319" cy="212.19351605040353" r="5.761427866281647" fill="#CFAE58" opacity="0.2113014299979314"/>
  <circle cx="758.4049592819944" cy="233.21199951774713" r="2.333871324245794" fill="#CFAE58" opacity="0.12308524416181427"/>
  <circle cx="63.828742307143706" cy="449.53697856445723" r="4.312974540875038" fill="#CFAE58" opacity="0.22860641436284498"/>
  <circle cx="1002.605238517234" cy="596.4055135323517" r="4.70604159418935" fill="#CFAE58" opacity="0.22678840507833703"/>
  <circle cx="385.9020928579079" cy="65.03268900696168" r="2.283403564455732" fill="#CFAE58" opacity="0.23712510855055885"/>
  <circle cx="504.9819340681934" cy="345.6050603420859" r="3.417553777663089" fill="#CFAE58" opacity="0.19514005402136153"/>
  <circle cx="624.2466675805405" cy="158.3125572038598" r="5.658918468888622" fill="#CFAE58" opacity="0.1926533914431836"/>
  <circle cx="307.52308977913987" cy="563.7450128036619" r="5.045365047510151" fill="#CFAE58" opacity="0.15151547976708907"/>
  <circle cx="1192.6955823729975" cy="600.4461708641072" r="2.8160925986478818" fill="#CFAE58" opacity="0.24876391697751007"/>
  <circle cx="903.3967547368612" cy="546.9146620782682" r="4.864495116922113" fill="#CFAE58" opacity="0.2171867432935407"/>
  <circle cx="1065.782906570089" cy="282.3541351020393" r="2.8420294001876587" fill="#CFAE58" opacity="0.11301640840786482"/>
  <circle cx="786.325767124706" cy="445.8137597467302" r="3.40499653564862" fill="#CFAE58" opacity="0.22715689915765563"/>
  <circle cx="223.66900707084943" cy="44.5250264004458" r="5.618300367516495" fill="#CFAE58" opacity="0.23582463392248196"/>
  <circle cx="618.6841269742374" cy="480.84927222816367" r="2.2308241396466615" fill="#CFAE58" opacity="0.13595096960035585"/>
  <circle cx="728.743981335446" cy="507.77829970194506" r="4.1992272620772315" fill="#CFAE58" opacity="0.21330508318199048"/>
  <circle cx="214.53157087369047" cy="199.4867976357646" r="5.77320888213236" fill="#CFAE58" opacity="0.12804609944673417"/>
  <circle cx="258.6902492991261" cy="211.63666720703233" r="5.212525217403123" fill="#CFAE58" opacity="0.14429623177180456"/>
  <circle cx="811.0063316318565" cy="389.75243898906814" r="2.4373245995874804" fill="#CFAE58" opacity="0.1217623822896881"/>
  <circle cx="625.9048078433892" cy="374.41624630698317" r="4.634398321122904" fill="#CFAE58" opacity="0.19301142119812786"/>
  <circle cx="484.4994046562956" cy="168.9610488201001" r="3.5342804226505304" fill="#CFAE58" opacity="0.22939108570272496"/>
  <circle cx="349.0251954221763" cy="111.45188003710045" r="3.2654162491678957" fill="#CFAE58" opacity="0.20101558243561946"/>
  <circle cx="1145.433144693536" cy="341.57793153732473" r="2.10464356866891" fill="#CFAE58" opacity="0.24379364501836306"/>
  <circle cx="1116.763560785977" cy="170.0162019665222" r="3.5310186349401698" fill="#CFAE58" opacity="0.2395577989597621"/>
  <circle cx="698.452964508913" cy="44.93181699139976" r="2.6906293247726034" fill="#CFAE58" opacity="0.1991311834683816"/>

  <!-- Border with glow -->
  <rect x="40" y="40" width="1120" height="550" fill="none" stroke="url(#goldGradient)" stroke-width="3" rx="12" filter="url(#softGlow)"/>

  <!-- Icon circle with premium background -->
  <circle cx="150" cy="200" r="75" fill="#CFAE58" opacity="0.15" filter="url(#softGlow)"/>
  <circle cx="150" cy="200" r="70" fill="#CFAE58" opacity="0.25"/>
  <text x="150" y="235" font-size="90" text-anchor="middle" fill="#CFAE58" filter="url(#glow)">🏠</text>

  <!-- Premium logo (crown) with enhanced styling -->
  <g transform="translate(100, 70)">
    <path d="M 30 20 L 40 35 L 35 35 Z M 50 15 L 60 35 L 45 35 Z M 65 20 L 75 35 L 70 35 Z M 30 35 L 75 35 L 73 45 L 32 45 Z"
          fill="url(#goldGradient)" filter="url(#glow)" stroke="#B89842" stroke-width="0.5"/>
    <circle cx="40" cy="25" r="3" fill="#4FD1C5" filter="url(#glow)"/>
    <circle cx="52" cy="20" r="4" fill="#4FD1C5" filter="url(#glow)"/>
    <circle cx="65" cy="25" r="3" fill="#4FD1C5" filter="url(#glow)"/>
  </g>

  <!-- Title with shadow -->
  <text x="280" y="180" font-family="Georgia, serif" font-size="72" font-weight="bold"
        fill="url(#goldGradient)" filter="url(#shadow)">From Roe to Royal</text>

  <!-- Subtitle with subtle glow -->
  <text x="280" y="230" font-family="Arial, sans-serif" font-size="36"
        fill="#D6DEE6" opacity="0.95" filter="url(#softGlow)">Premium Salmon Hatchery &amp; Caviar</text>

  <!-- Brand name with letter spacing -->
  <text x="280" y="300" font-family="Georgia, serif" font-size="32" font-weight="bold"
        fill="#CFAE58" letter-spacing="4" filter="url(#glow)">ROYAL KETA</text>

  <!-- Russian tagline -->
  <text x="280" y="340" font-family="Arial, sans-serif" font-size="22" font-style="italic"
        fill="#8B95A1" opacity="0.8">От икринки к королевской</text>

  <!-- Location -->
  <text x="280" y="380" font-family="Arial, sans-serif" font-size="20"
        fill="#8B95A1" opacity="0.7">Невельский район, Сахалин</text>

  <!-- Website with glow -->
  <text x="100" y="570" font-family="Arial, sans-serif" font-size="30" font-weight="bold"
        fill="#4FD1C5" filter="url(#glow)">royalketa.com</text>

  <!-- Enhanced decorative salmon silhouette -->
  <g transform="translate(950, 480)" opacity="0.2" filter="url(#softGlow)">
    <ellipse cx="0" cy="0" rx="90" ry="35" fill="#CFAE58"/>
    <path d="M 90 0 L 120 -18 L 130 0 L 120 18 Z" fill="#CFAE58"/>
    <path d="M -25 -35 L 0 -45 L 25 -35 Z" fill="#CFAE58"/>
    <ellipse cx="-50" cy="0" rx="15" ry="12" fill="#0B0F14"/>
  </g>

  <!-- Additional decorative caviar clusters -->
  <g opacity="0.2">
    <circle cx="1050" cy="120" r="6" fill="#CFAE58"/>
    <circle cx="1065" cy="115" r="5" fill="#CFAE58"/>
    <circle cx="1058" cy="130" r="4" fill="#CFAE58"/>
    <circle cx="150" cy="500" r="5" fill="#4FD1C5"/>
    <circle cx="165" cy="508" r="4" fill="#4FD1C5"/>
    <circle cx="140" cy="512" r="5" fill="#4FD1C5"/>
  </g>
</svg>