<svg width="1200" height="630" xmlns="http://www.w3.org/2000/svg">
  <defs>
    <linearGradient id="bgGradient" x1="0%" y1="0%" x2="100%" y2="100%">
      <stop offset="0%" style="stop-color:#0B0F14;stop-opacity:1" />
      <stop offset="50%" style="stop-color:#0F1619;stop-opacity:1" />
      <stop offset="100%" style="stop-color:#0F1922;stop-opacity:1" />
    </linearGradient>
    <linearGradient id="goldGradient" x1="0%" y1="0%" x2="100%" y2="0%">
      <stop offset="0%" style="stop-color:#E5D596;stop-opacity:1" />
      <stop offset="50%" style="stop-color:#CFAE58;stop-opacity:1" />
      <stop offset="100%" style="stop-color:#B89842;stop-opacity:1" />
    </linearGradient>
    <radialGradient id="oceanGradient" cx="50%" cy="50%" r="50%">
      <stop offset="0%" style="stop-color:#4FD1C5;stop-opacity:0.3" />
      <stop offset="100%" style="stop-color:#1E90A0;stop-opacity:0.05" />
    </radialGradient>
    <filter id="glow">
      <feGaussianBlur stdDeviation="5" result="coloredBlur"/>
      <feMerge>
        <feMergeNode in="coloredBlur"/>
        <feMergeNode in="SourceGraphic"/>
      </feMerge>
    </filter>
    <filter id="softGlow">
      <feGaussianBlur stdDeviation="8" result="coloredBlur"/>
      <feMerge>
        <feMergeNode in="coloredBlur"/>
        <feMergeNode in="SourceGraphic"/>
      </feMerge>
    </filter>
    <filter id="shadow">
      <feDropShadow dx="0" dy="4" stdDeviation="8" flood-color="#000000" flood-opacity="0.5"/>
    </filter>
  </defs>

  <!-- Background -->
  <rect width="1200" height="630" fill="url(#bgGradient)"/>

  <!-- Decorative ocean gradients -->
  <ellipse cx="1000" cy="150" rx="300" ry="200" fill="url(#oceanGradient)" opacity="0.4"/>
  <ellipse cx="200" cy="530" rx="250" ry="180" fill="url(#oceanGradient)" opacity="0.3"/>

  <!-- Wave patterns -->
  <path d="M 0 400 Q 300 350 600 400 T 1200 400 L 1200 630 L 0 630 Z" fill="#1E90A0" opacity="0.08"/>
  <path d="M 0 450 Q 250 420 500 450 T 1000 450 T 1200 450 L 1200 630 L 0 630 Z" fill="#4FD1C5" opacity="0.05"/>

  <!-- Caviar roe particles -->
  <circle cx="1080.4560101201419" cy="308.14208356152903" r="3.5204477198902158" fill="#CFAE58" opacity="0.22357351435043757"/>
  <circle cx="1027.9075254923896" cy="443.98636067243325" r="5.8596427890368865" fill="#CFAE58" opacity="0.16651279686006537"/>
  <circle cx="780.1114266296134" cy="208.8865283157572" r="2.829222574106086" fill="#CFAE58" opacity="0.2290261401165939"/>
  <circle cx="829.8547760630033" cy="110.47454381591024" r="2.7678154349462023" fill="#CFAE58" opacity="0.1308104841962298"/>
  <circle cx="1045.3832894798984" cy="525.4018384010001" r="2.8800869922825605" fill="#CFAE58" opacity="0.17080718134207337"/>
  <circle cx="1027.9145634323254" cy="415.0575253509915" r="5.652933407871438" fill="#CFAE58" opacity="0.10063157531776507"/>
  <circle cx="316.1015039545521" cy="302.4870716646596" r="5.72378914028827" fill="#CFAE58" opacity="0.2452436814561652"/>
  <circle cx="56.34270927655756" cy="335.12154757335963" r="5.507795043928189" fill="#CFAE58" opacity="0.12897009876131577"/>
  <circle cx="474.38302575016786" cy="226.4172923966889" r="3.0122878439418344" fill="#CFAE58" opacity="0.23844643722995482"/>
  <circle cx="833.8973686436018" cy="208.49528698343724" r="2.272556282906222" fill="#CFAE58" opacity="0.13862019806112372"/>
  <circle cx="1172.650861757389" cy="436.4690632912143" r="3.585269536856985" fill="#CFAE58" opacity="0.24677863447091053"/>
  <circle cx="685.7106762410112" cy="304.7332819736256" r="5.452562431646996" fill="#CFAE58" opacity="0.2245411953666409"/>
  <circle cx="253.18254147067282" cy="338.12742180508144" r="5.837841650424697" fill="#CFAE58" opacity="0.140962413959488"/>
  <circle cx="679.9029537398712" cy="297.10035015964826" r="5.052290042709147" fill="#CFAE58" opacity="0.1970272681534229"/>
  <circle cx="546.5621097044533" cy="250.98631325996664" r="3.7618772418352115" fill="#CFAE58" opacity="0.1561003379410043"/>
  <circle cx="751.2443389275763" cy="361.55251603960875" r="4.498620355968737" fill="#CFAE58" opacity="0.19941823440742013"/>
  <circle cx="937.209537469336" cy="576.7045157504513" r="2.004003133437698" fill="#CFAE58" opacity="0.19593419947239346"/>
  <circle cx="65.76757616479867" cy="343.90814108184446" r="2.7825788104482996" fill="#CFAE58" opacity="0.2018127396055524"/>
  <circle cx="269.6944212769192" cy="184.2802593684406" r="4.088760358799752" fill="#CFAE58" opacity="0.12832899087259067"/>
  <circle cx="1125.5773934963804" cy="350.46709804657314" r="3.793815159668698" fill="#CFAE58" opacity="0.16928722636498872"/>
  <circle cx="1063.10132496506" cy="616.1990157373657" r="3.439746507524317" fill="#CFAE58" opacity="0.1463966532682484"/>
  <circle cx="547.5593670412422" cy="186.02792222876474" r="2.9367895213938926" fill="#CFAE58" opacity="0.21866412276182418"/>
  <circle cx="704.0279965388994" cy="241.243390357554" r="5.535881561210561" fill="#CFAE58" opacity="0.2473333742872193"/>
  <circle cx="916.8279439284315" cy="232.63485216602635" r="3.2432707892810484" fill="#CFAE58" opacity="0.2437619845592368"/>
  <circle cx="820.6967476047262" cy="326.71723099709544" r="4.160106006843509" fill="#CFAE58" opacity="0.17111588360061059"/>
  <circle cx="641.9056152360463" cy="160.4757374059672" r="4.207014689184061" fill="#CFAE58" opacity="0.1608149350446552"/>
  <circle cx="675.4891605677552" cy="18.835389826008143" r="5.733204113912229" fill="#CFAE58" opacity="0.1717758162323662"/>
  <circle cx="263.6279117396172" cy="192.416582183286" r="3.6753259249171153" fill="#CFAE58" opacity="0.21800652009628227"/>
  <circle cx="937.8558276069284" cy="104.07240467104857" r="4.3176977449046285" fill="#CFAE58" opacity="0.202120406576697"/>
  <circle cx="1153.9888569336974" cy="283.06415161844" r="5.18942941950217" fill="#CFAE58" opacity="0.17804661799410548"/>

  <!-- Border with glow -->
  <rect x="40" y="40" width="1120" height="550" fill="none" stroke="url(#goldGradient)" stroke-width="3" rx="12" filter="url(#softGlow)"/>

  <!-- Icon circle with premium background -->
  <circle cx="150" cy="200" r="75" fill="#CFAE58" opacity="0.15" filter="url(#softGlow)"/>
  <circle cx="150" cy="200" r="70" fill="#CFAE58" opacity="0.25"/>
  <text x="150" y="235" font-size="90" text-anchor="middle" fill="#CFAE58" filter="url(#glow)">🏠</text>

  <!-- Premium logo (crown) with enhanced styling -->
  <g transform="translate(100, 70)">
    <path d="M 30 20 L 40 35 L 35 35 Z M 50 15 L 60 35 L 45 35 Z M 65 20 L 75 35 L 70 35 Z M 30 35 L 75 35 L 73 45 L 32 45 Z"
          fill="url(#goldGradient)" filter="url(#glow)" stroke="#B89842" stroke-width="0.5"/>
    <circle cx="40" cy="25" r="3" fill="#4FD1C5" filter="url(#glow)"/>
    <circle cx="52" cy="20" r="4" fill="#4FD1C5" filter="url(#glow)"/>
    <circle cx="65" cy="25" r="3" fill="#4FD1C5" filter="url(#glow)"/>
  </g>

  <!-- Title with shadow -->
  <text x="280" y="180" font-family="Georgia, serif" font-size="72" font-weight="bold"
        fill="url(#goldGradient)" filter="url(#shadow)">From Roe to Royal</text>

  <!-- Subtitle with subtle glow -->
  <text x="280" y="230" font-family="Arial, sans-serif" font-size="36"
        fill="#D6DEE6" opacity="0.95" filter="url(#softGlow)">Premium Salmon Hatchery &amp; Caviar</text>

  <!-- Brand name with letter spacing -->
  <text x="280" y="300" font-family="Georgia, serif" font-size="32" font-weight="bold"
        fill="#CFAE58" letter-spacing="4" filter="url(#glow)">ROYAL KETA</text>

  <!-- Russian tagline -->
  <text x="280" y="340" font-family="Arial, sans-serif" font-size="22" font-style="italic"
        fill="#8B95A1" opacity="0.8">От икринки к королевской</text>

  <!-- Location -->
  <text x="280" y="380" font-family="Arial, sans-serif" font-size="20"
        fill="#8B95A1" opacity="0.7">Невельский район, Сахалин</text>

  <!-- Website with glow -->
  <text x="100" y="570" font-family="Arial, sans-serif" font-size="30" font-weight="bold"
        fill="#4FD1C5" filter="url(#glow)">royalketa.com</text>

  <!-- Enhanced decorative salmon silhouette -->
  <g transform="translate(950, 480)" opacity="0.2" filter="url(#softGlow)">
    <ellipse cx="0" cy="0" rx="90" ry="35" fill="#CFAE58"/>
    <path d="M 90 0 L 120 -18 L 130 0 L 120 18 Z" fill="#CFAE58"/>
    <path d="M -25 -35 L 0 -45 L 25 -35 Z" fill="#CFAE58"/>
    <ellipse cx="-50" cy="0" rx="15" ry="12" fill="#0B0F14"/>
  </g>

  <!-- Additional decorative caviar clusters -->
  <g opacity="0.2">
    <circle cx="1050" cy="120" r="6" fill="#CFAE58"/>
    <circle cx="1065" cy="115" r="5" fill="#CFAE58"/>
    <circle cx="1058" cy="130" r="4" fill="#CFAE58"/>
    <circle cx="150" cy="500" r="5" fill="#4FD1C5"/>
    <circle cx="165" cy="508" r="4" fill="#4FD1C5"/>
    <circle cx="140" cy="512" r="5" fill="#4FD1C5"/>
  </g>
</svg>