<svg width="1200" height="630" xmlns="http://www.w3.org/2000/svg">
  <defs>
    <linearGradient id="bgGradient" x1="0%" y1="0%" x2="100%" y2="100%">
      <stop offset="0%" style="stop-color:#0B0F14;stop-opacity:1" />
      <stop offset="50%" style="stop-color:#0F1619;stop-opacity:1" />
      <stop offset="100%" style="stop-color:#0F1922;stop-opacity:1" />
    </linearGradient>
    <linearGradient id="goldGradient" x1="0%" y1="0%" x2="100%" y2="0%">
      <stop offset="0%" style="stop-color:#E5D596;stop-opacity:1" />
      <stop offset="50%" style="stop-color:#CFAE58;stop-opacity:1" />
      <stop offset="100%" style="stop-color:#B89842;stop-opacity:1" />
    </linearGradient>
    <radialGradient id="oceanGradient" cx="50%" cy="50%" r="50%">
      <stop offset="0%" style="stop-color:#4FD1C5;stop-opacity:0.3" />
      <stop offset="100%" style="stop-color:#1E90A0;stop-opacity:0.05" />
    </radialGradient>
    <filter id="glow">
      <feGaussianBlur stdDeviation="5" result="coloredBlur"/>
      <feMerge>
        <feMergeNode in="coloredBlur"/>
        <feMergeNode in="SourceGraphic"/>
      </feMerge>
    </filter>
    <filter id="softGlow">
      <feGaussianBlur stdDeviation="8" result="coloredBlur"/>
      <feMerge>
        <feMergeNode in="coloredBlur"/>
        <feMergeNode in="SourceGraphic"/>
      </feMerge>
    </filter>
    <filter id="shadow">
      <feDropShadow dx="0" dy="4" stdDeviation="8" flood-color="#000000" flood-opacity="0.5"/>
    </filter>
  </defs>

  <!-- Background -->
  <rect width="1200" height="630" fill="url(#bgGradient)"/>

  <!-- Decorative ocean gradients -->
  <ellipse cx="1000" cy="150" rx="300" ry="200" fill="url(#oceanGradient)" opacity="0.4"/>
  <ellipse cx="200" cy="530" rx="250" ry="180" fill="url(#oceanGradient)" opacity="0.3"/>

  <!-- Wave patterns -->
  <path d="M 0 400 Q 300 350 600 400 T 1200 400 L 1200 630 L 0 630 Z" fill="#1E90A0" opacity="0.08"/>
  <path d="M 0 450 Q 250 420 500 450 T 1000 450 T 1200 450 L 1200 630 L 0 630 Z" fill="#4FD1C5" opacity="0.05"/>

  <!-- Caviar roe particles -->
  <circle cx="171.60987848133803" cy="47.43418371970699" r="2.778785240006698" fill="#CFAE58" opacity="0.21443383483198122"/>
  <circle cx="904.7185709351438" cy="48.582191961877996" r="2.936432796199847" fill="#CFAE58" opacity="0.11110240034520191"/>
  <circle cx="929.7047044843077" cy="484.20800809269184" r="4.877450337164644" fill="#CFAE58" opacity="0.1423043228352065"/>
  <circle cx="1130.141115755177" cy="502.7338622661594" r="4.379266569537584" fill="#CFAE58" opacity="0.17157857740402122"/>
  <circle cx="1035.018431375149" cy="434.5004970044316" r="2.959428938379659" fill="#CFAE58" opacity="0.15568903965548395"/>
  <circle cx="809.4740593053165" cy="537.8854872363015" r="2.5600382498688035" fill="#CFAE58" opacity="0.2296591843518969"/>
  <circle cx="139.8417789243896" cy="300.1335676044073" r="2.839347991331354" fill="#CFAE58" opacity="0.15203344369498079"/>
  <circle cx="714.9681989035325" cy="470.3331987101113" r="3.9851381044482044" fill="#CFAE58" opacity="0.16808218426121102"/>
  <circle cx="260.11236696626946" cy="198.3078740651658" r="5.717011232010141" fill="#CFAE58" opacity="0.1332440946570188"/>
  <circle cx="381.46612881324444" cy="346.1200219053723" r="4.847715578077919" fill="#CFAE58" opacity="0.12948824228103212"/>
  <circle cx="52.91584396068054" cy="413.483429805146" r="4.755503213202859" fill="#CFAE58" opacity="0.14523705244648646"/>
  <circle cx="38.60563635190388" cy="160.69107896049056" r="4.475624008156469" fill="#CFAE58" opacity="0.12683546452087593"/>
  <circle cx="424.25721804236474" cy="154.39065479957293" r="4.087529125890471" fill="#CFAE58" opacity="0.1567139659954954"/>
  <circle cx="781.923331855014" cy="138.05395190171546" r="3.4702056660461156" fill="#CFAE58" opacity="0.22904092778011328"/>
  <circle cx="395.0817829360784" cy="582.0221875228947" r="2.8340966955885882" fill="#CFAE58" opacity="0.21653007485449335"/>
  <circle cx="946.7565863237947" cy="117.13291406573981" r="5.970430419742094" fill="#CFAE58" opacity="0.20080935043936254"/>
  <circle cx="625.360831533077" cy="307.06150869694324" r="4.055689562571782" fill="#CFAE58" opacity="0.23713103086028864"/>
  <circle cx="894.0481911264742" cy="200.82370671068148" r="4.171226691142718" fill="#CFAE58" opacity="0.15638957736024053"/>
  <circle cx="483.57375443554685" cy="606.8966382038847" r="2.411536954139053" fill="#CFAE58" opacity="0.12852920641749233"/>
  <circle cx="339.12969385071744" cy="348.3383850940583" r="4.3485824234833" fill="#CFAE58" opacity="0.16690392042016988"/>
  <circle cx="138.5009731625842" cy="432.35623868731307" r="4.996680762518718" fill="#CFAE58" opacity="0.13682068912421014"/>
  <circle cx="210.99982342614348" cy="435.21010056201095" r="3.594548694490048" fill="#CFAE58" opacity="0.1671491856895378"/>
  <circle cx="415.95801794353895" cy="65.62881940507354" r="3.469157748050003" fill="#CFAE58" opacity="0.11498654539995452"/>
  <circle cx="39.5084827975138" cy="549.2132984367743" r="3.538741926162572" fill="#CFAE58" opacity="0.20399677242370695"/>
  <circle cx="1056.8384452445746" cy="321.0407290466292" r="5.082054924694864" fill="#CFAE58" opacity="0.22267185904129763"/>
  <circle cx="816.3632479702685" cy="36.14903330462133" r="5.746577410722445" fill="#CFAE58" opacity="0.21694789204356796"/>
  <circle cx="1101.7102379425862" cy="527.9205841408498" r="4.360146840114334" fill="#CFAE58" opacity="0.24947437187037583"/>
  <circle cx="101.10990863008928" cy="392.4889994030672" r="3.2544006605566254" fill="#CFAE58" opacity="0.14498081532823032"/>
  <circle cx="873.0596997589116" cy="454.45109515230956" r="3.3706175486073597" fill="#CFAE58" opacity="0.19143141715998618"/>
  <circle cx="88.93673641330224" cy="72.90471587180676" r="2.046127344635102" fill="#CFAE58" opacity="0.12544674640573086"/>

  <!-- Border with glow -->
  <rect x="40" y="40" width="1120" height="550" fill="none" stroke="url(#goldGradient)" stroke-width="3" rx="12" filter="url(#softGlow)"/>

  <!-- Icon circle with premium background -->
  <circle cx="150" cy="200" r="75" fill="#CFAE58" opacity="0.15" filter="url(#softGlow)"/>
  <circle cx="150" cy="200" r="70" fill="#CFAE58" opacity="0.25"/>
  <text x="150" y="235" font-size="90" text-anchor="middle" fill="#CFAE58" filter="url(#glow)">🏠</text>

  <!-- Premium logo (crown) with enhanced styling -->
  <g transform="translate(100, 70)">
    <path d="M 30 20 L 40 35 L 35 35 Z M 50 15 L 60 35 L 45 35 Z M 65 20 L 75 35 L 70 35 Z M 30 35 L 75 35 L 73 45 L 32 45 Z"
          fill="url(#goldGradient)" filter="url(#glow)" stroke="#B89842" stroke-width="0.5"/>
    <circle cx="40" cy="25" r="3" fill="#4FD1C5" filter="url(#glow)"/>
    <circle cx="52" cy="20" r="4" fill="#4FD1C5" filter="url(#glow)"/>
    <circle cx="65" cy="25" r="3" fill="#4FD1C5" filter="url(#glow)"/>
  </g>

  <!-- Title with shadow -->
  <text x="280" y="180" font-family="Georgia, serif" font-size="72" font-weight="bold"
        fill="url(#goldGradient)" filter="url(#shadow)">From Roe to Royal</text>

  <!-- Subtitle with subtle glow -->
  <text x="280" y="230" font-family="Arial, sans-serif" font-size="36"
        fill="#D6DEE6" opacity="0.95" filter="url(#softGlow)">Premium Salmon Hatchery &amp; Caviar</text>

  <!-- Brand name with letter spacing -->
  <text x="280" y="300" font-family="Georgia, serif" font-size="32" font-weight="bold"
        fill="#CFAE58" letter-spacing="4" filter="url(#glow)">ROYAL KETA</text>

  <!-- Russian tagline -->
  <text x="280" y="340" font-family="Arial, sans-serif" font-size="22" font-style="italic"
        fill="#8B95A1" opacity="0.8">От икринки к королевской</text>

  <!-- Location -->
  <text x="280" y="380" font-family="Arial, sans-serif" font-size="20"
        fill="#8B95A1" opacity="0.7">Невельский район, Сахалин</text>

  <!-- Website with glow -->
  <text x="100" y="570" font-family="Arial, sans-serif" font-size="30" font-weight="bold"
        fill="#4FD1C5" filter="url(#glow)">royalketa.com</text>

  <!-- Enhanced decorative salmon silhouette -->
  <g transform="translate(950, 480)" opacity="0.2" filter="url(#softGlow)">
    <ellipse cx="0" cy="0" rx="90" ry="35" fill="#CFAE58"/>
    <path d="M 90 0 L 120 -18 L 130 0 L 120 18 Z" fill="#CFAE58"/>
    <path d="M -25 -35 L 0 -45 L 25 -35 Z" fill="#CFAE58"/>
    <ellipse cx="-50" cy="0" rx="15" ry="12" fill="#0B0F14"/>
  </g>

  <!-- Additional decorative caviar clusters -->
  <g opacity="0.2">
    <circle cx="1050" cy="120" r="6" fill="#CFAE58"/>
    <circle cx="1065" cy="115" r="5" fill="#CFAE58"/>
    <circle cx="1058" cy="130" r="4" fill="#CFAE58"/>
    <circle cx="150" cy="500" r="5" fill="#4FD1C5"/>
    <circle cx="165" cy="508" r="4" fill="#4FD1C5"/>
    <circle cx="140" cy="512" r="5" fill="#4FD1C5"/>
  </g>
</svg>