<svg width="1200" height="630" xmlns="http://www.w3.org/2000/svg">
  <defs>
    <linearGradient id="bgGradient" x1="0%" y1="0%" x2="100%" y2="100%">
      <stop offset="0%" style="stop-color:#0B0F14;stop-opacity:1" />
      <stop offset="50%" style="stop-color:#0F1619;stop-opacity:1" />
      <stop offset="100%" style="stop-color:#0F1922;stop-opacity:1" />
    </linearGradient>
    <linearGradient id="goldGradient" x1="0%" y1="0%" x2="100%" y2="0%">
      <stop offset="0%" style="stop-color:#E5D596;stop-opacity:1" />
      <stop offset="50%" style="stop-color:#CFAE58;stop-opacity:1" />
      <stop offset="100%" style="stop-color:#B89842;stop-opacity:1" />
    </linearGradient>
    <radialGradient id="oceanGradient" cx="50%" cy="50%" r="50%">
      <stop offset="0%" style="stop-color:#4FD1C5;stop-opacity:0.3" />
      <stop offset="100%" style="stop-color:#1E90A0;stop-opacity:0.05" />
    </radialGradient>
    <filter id="glow">
      <feGaussianBlur stdDeviation="5" result="coloredBlur"/>
      <feMerge>
        <feMergeNode in="coloredBlur"/>
        <feMergeNode in="SourceGraphic"/>
      </feMerge>
    </filter>
    <filter id="softGlow">
      <feGaussianBlur stdDeviation="8" result="coloredBlur"/>
      <feMerge>
        <feMergeNode in="coloredBlur"/>
        <feMergeNode in="SourceGraphic"/>
      </feMerge>
    </filter>
    <filter id="shadow">
      <feDropShadow dx="0" dy="4" stdDeviation="8" flood-color="#000000" flood-opacity="0.5"/>
    </filter>
  </defs>

  <!-- Background -->
  <rect width="1200" height="630" fill="url(#bgGradient)"/>

  <!-- Decorative ocean gradients -->
  <ellipse cx="1000" cy="150" rx="300" ry="200" fill="url(#oceanGradient)" opacity="0.4"/>
  <ellipse cx="200" cy="530" rx="250" ry="180" fill="url(#oceanGradient)" opacity="0.3"/>

  <!-- Wave patterns -->
  <path d="M 0 400 Q 300 350 600 400 T 1200 400 L 1200 630 L 0 630 Z" fill="#1E90A0" opacity="0.08"/>
  <path d="M 0 450 Q 250 420 500 450 T 1000 450 T 1200 450 L 1200 630 L 0 630 Z" fill="#4FD1C5" opacity="0.05"/>

  <!-- Caviar roe particles -->
  <circle cx="737.6220042465833" cy="625.3329525704235" r="2.4601733650940316" fill="#CFAE58" opacity="0.11634443350270576"/>
  <circle cx="703.1897399080893" cy="82.5253456060236" r="3.060857751279353" fill="#CFAE58" opacity="0.18463805220947666"/>
  <circle cx="665.0202324353871" cy="267.1891425473838" r="4.502582195030822" fill="#CFAE58" opacity="0.12524064013293437"/>
  <circle cx="679.4799483208599" cy="298.716473424643" r="4.316807504396524" fill="#CFAE58" opacity="0.10351544456946239"/>
  <circle cx="1103.1408520044606" cy="90.4340299759079" r="4.478344592178707" fill="#CFAE58" opacity="0.1633205861458517"/>
  <circle cx="748.9278927178123" cy="284.38837240716936" r="2.586486238537999" fill="#CFAE58" opacity="0.1894182647538784"/>
  <circle cx="7.585821609659238" cy="33.278951103195645" r="2.191332817349358" fill="#CFAE58" opacity="0.14405198022147095"/>
  <circle cx="26.15550897030685" cy="41.38745693711642" r="2.0511470250848074" fill="#CFAE58" opacity="0.20763525321257253"/>
  <circle cx="971.5217804764656" cy="204.8443708179123" r="5.441016793766665" fill="#CFAE58" opacity="0.14505386528631825"/>
  <circle cx="394.5054201163908" cy="315.45080617119913" r="3.7061642281916507" fill="#CFAE58" opacity="0.18086549763919363"/>
  <circle cx="279.93519709084796" cy="156.97350270368923" r="2.7351265763670867" fill="#CFAE58" opacity="0.22654826244597004"/>
  <circle cx="667.5987429643226" cy="555.1024035021895" r="3.6673421958620995" fill="#CFAE58" opacity="0.13151457451249463"/>
  <circle cx="698.680657020793" cy="123.02926867139038" r="3.8713463902758285" fill="#CFAE58" opacity="0.15009252563684075"/>
  <circle cx="220.75296210094973" cy="156.94869773088686" r="4.913109143604789" fill="#CFAE58" opacity="0.16127415167727108"/>
  <circle cx="303.2334668522715" cy="542.1285011142945" r="5.9026033380048455" fill="#CFAE58" opacity="0.10342695342865965"/>
  <circle cx="986.3660118231636" cy="23.792857721127213" r="3.002602867647374" fill="#CFAE58" opacity="0.2397110221866943"/>
  <circle cx="1136.506043814739" cy="548.3595495744622" r="4.588042991274805" fill="#CFAE58" opacity="0.2343812754955256"/>
  <circle cx="546.1909110636213" cy="295.10431010089343" r="4.262165344613355" fill="#CFAE58" opacity="0.22085134676391543"/>
  <circle cx="977.881272568417" cy="108.4269625035243" r="2.5247802083027437" fill="#CFAE58" opacity="0.15132936867911473"/>
  <circle cx="186.56420508127144" cy="23.214018143772766" r="3.181996533705381" fill="#CFAE58" opacity="0.22070737272450847"/>
  <circle cx="176.62262322645378" cy="528.9865995605514" r="4.904525896026831" fill="#CFAE58" opacity="0.16460418710503"/>
  <circle cx="401.6098749174462" cy="234.4221255506821" r="3.27730624997628" fill="#CFAE58" opacity="0.12640019906270722"/>
  <circle cx="143.42613937141982" cy="179.62541743811644" r="5.4419181536443375" fill="#CFAE58" opacity="0.14996749325288977"/>
  <circle cx="277.80027816033373" cy="488.366742679121" r="3.001144761479221" fill="#CFAE58" opacity="0.24059519909140886"/>
  <circle cx="570.912957658076" cy="171.83903354534053" r="2.356094440115733" fill="#CFAE58" opacity="0.2127164287920479"/>
  <circle cx="612.9497522538142" cy="269.31090092627454" r="5.943263091045455" fill="#CFAE58" opacity="0.11869570418602367"/>
  <circle cx="444.79819387277865" cy="117.744791834467" r="2.927898068628952" fill="#CFAE58" opacity="0.15787553422766537"/>
  <circle cx="843.6346886847335" cy="336.53187754819743" r="3.899751310847602" fill="#CFAE58" opacity="0.22205633754340784"/>
  <circle cx="664.3275464269349" cy="265.4419557213016" r="5.001739096781343" fill="#CFAE58" opacity="0.1501130162464044"/>
  <circle cx="992.3122321284258" cy="27.126980719183873" r="5.7489276963360005" fill="#CFAE58" opacity="0.20745500313575135"/>

  <!-- Border with glow -->
  <rect x="40" y="40" width="1120" height="550" fill="none" stroke="url(#goldGradient)" stroke-width="3" rx="12" filter="url(#softGlow)"/>

  <!-- Icon circle with premium background -->
  <circle cx="150" cy="200" r="75" fill="#CFAE58" opacity="0.15" filter="url(#softGlow)"/>
  <circle cx="150" cy="200" r="70" fill="#CFAE58" opacity="0.25"/>
  <text x="150" y="235" font-size="90" text-anchor="middle" fill="#CFAE58" filter="url(#glow)">🏠</text>

  <!-- Premium logo (crown) with enhanced styling -->
  <g transform="translate(100, 70)">
    <path d="M 30 20 L 40 35 L 35 35 Z M 50 15 L 60 35 L 45 35 Z M 65 20 L 75 35 L 70 35 Z M 30 35 L 75 35 L 73 45 L 32 45 Z"
          fill="url(#goldGradient)" filter="url(#glow)" stroke="#B89842" stroke-width="0.5"/>
    <circle cx="40" cy="25" r="3" fill="#4FD1C5" filter="url(#glow)"/>
    <circle cx="52" cy="20" r="4" fill="#4FD1C5" filter="url(#glow)"/>
    <circle cx="65" cy="25" r="3" fill="#4FD1C5" filter="url(#glow)"/>
  </g>

  <!-- Title with shadow -->
  <text x="280" y="180" font-family="Georgia, serif" font-size="72" font-weight="bold"
        fill="url(#goldGradient)" filter="url(#shadow)">From Roe to Royal</text>

  <!-- Subtitle with subtle glow -->
  <text x="280" y="230" font-family="Arial, sans-serif" font-size="36"
        fill="#D6DEE6" opacity="0.95" filter="url(#softGlow)">Premium Salmon Hatchery & Caviar</text>

  <!-- Brand name with letter spacing -->
  <text x="280" y="300" font-family="Georgia, serif" font-size="32" font-weight="bold"
        fill="#CFAE58" letter-spacing="4" filter="url(#glow)">ROYAL KETA</text>

  <!-- Russian tagline -->
  <text x="280" y="340" font-family="Arial, sans-serif" font-size="22" font-style="italic"
        fill="#8B95A1" opacity="0.8">От икринки к королевской</text>

  <!-- Location -->
  <text x="280" y="380" font-family="Arial, sans-serif" font-size="20"
        fill="#8B95A1" opacity="0.7">Невельский район, Сахалин</text>

  <!-- Website with glow -->
  <text x="100" y="570" font-family="Arial, sans-serif" font-size="30" font-weight="bold"
        fill="#4FD1C5" filter="url(#glow)">royalketa.com</text>

  <!-- Enhanced decorative salmon silhouette -->
  <g transform="translate(950, 480)" opacity="0.2" filter="url(#softGlow)">
    <ellipse cx="0" cy="0" rx="90" ry="35" fill="#CFAE58"/>
    <path d="M 90 0 L 120 -18 L 130 0 L 120 18 Z" fill="#CFAE58"/>
    <path d="M -25 -35 L 0 -45 L 25 -35 Z" fill="#CFAE58"/>
    <ellipse cx="-50" cy="0" rx="15" ry="12" fill="#0B0F14"/>
  </g>

  <!-- Additional decorative caviar clusters -->
  <g opacity="0.2">
    <circle cx="1050" cy="120" r="6" fill="#CFAE58"/>
    <circle cx="1065" cy="115" r="5" fill="#CFAE58"/>
    <circle cx="1058" cy="130" r="4" fill="#CFAE58"/>
    <circle cx="150" cy="500" r="5" fill="#4FD1C5"/>
    <circle cx="165" cy="508" r="4" fill="#4FD1C5"/>
    <circle cx="140" cy="512" r="5" fill="#4FD1C5"/>
  </g>
</svg>