<svg width="1200" height="630" xmlns="http://www.w3.org/2000/svg">
  <defs>
    <linearGradient id="bgGradient" x1="0%" y1="0%" x2="100%" y2="100%">
      <stop offset="0%" style="stop-color:#0B0F14;stop-opacity:1" />
      <stop offset="50%" style="stop-color:#0F1619;stop-opacity:1" />
      <stop offset="100%" style="stop-color:#0F1922;stop-opacity:1" />
    </linearGradient>
    <linearGradient id="goldGradient" x1="0%" y1="0%" x2="100%" y2="0%">
      <stop offset="0%" style="stop-color:#E5D596;stop-opacity:1" />
      <stop offset="50%" style="stop-color:#CFAE58;stop-opacity:1" />
      <stop offset="100%" style="stop-color:#B89842;stop-opacity:1" />
    </linearGradient>
    <radialGradient id="oceanGradient" cx="50%" cy="50%" r="50%">
      <stop offset="0%" style="stop-color:#4FD1C5;stop-opacity:0.3" />
      <stop offset="100%" style="stop-color:#1E90A0;stop-opacity:0.05" />
    </radialGradient>
    <filter id="glow">
      <feGaussianBlur stdDeviation="5" result="coloredBlur"/>
      <feMerge>
        <feMergeNode in="coloredBlur"/>
        <feMergeNode in="SourceGraphic"/>
      </feMerge>
    </filter>
    <filter id="softGlow">
      <feGaussianBlur stdDeviation="8" result="coloredBlur"/>
      <feMerge>
        <feMergeNode in="coloredBlur"/>
        <feMergeNode in="SourceGraphic"/>
      </feMerge>
    </filter>
    <filter id="shadow">
      <feDropShadow dx="0" dy="4" stdDeviation="8" flood-color="#000000" flood-opacity="0.5"/>
    </filter>
  </defs>

  <!-- Background -->
  <rect width="1200" height="630" fill="url(#bgGradient)"/>

  <!-- Decorative ocean gradients -->
  <ellipse cx="1000" cy="150" rx="300" ry="200" fill="url(#oceanGradient)" opacity="0.4"/>
  <ellipse cx="200" cy="530" rx="250" ry="180" fill="url(#oceanGradient)" opacity="0.3"/>

  <!-- Wave patterns -->
  <path d="M 0 400 Q 300 350 600 400 T 1200 400 L 1200 630 L 0 630 Z" fill="#1E90A0" opacity="0.08"/>
  <path d="M 0 450 Q 250 420 500 450 T 1000 450 T 1200 450 L 1200 630 L 0 630 Z" fill="#4FD1C5" opacity="0.05"/>

  <!-- Caviar roe particles -->
  <circle cx="510.98091646543867" cy="169.1007067617729" r="2.0916024081552447" fill="#CFAE58" opacity="0.11323606390420005"/>
  <circle cx="487.65985700860847" cy="310.98573110649795" r="3.97178144828243" fill="#CFAE58" opacity="0.2469649728440953"/>
  <circle cx="901.3959314707155" cy="548.8399738098882" r="5.939856476033215" fill="#CFAE58" opacity="0.13819532483213456"/>
  <circle cx="165.7192638102912" cy="17.70731916929421" r="5.101344529685036" fill="#CFAE58" opacity="0.22482156895242122"/>
  <circle cx="559.045656893494" cy="432.75753063059267" r="5.738820179963308" fill="#CFAE58" opacity="0.16572370869527872"/>
  <circle cx="555.3408494802435" cy="341.34975156229723" r="2.263421975247676" fill="#CFAE58" opacity="0.12512403171671724"/>
  <circle cx="572.7077365409557" cy="485.6951389402277" r="2.5273845767455643" fill="#CFAE58" opacity="0.19851072965053204"/>
  <circle cx="30.480131156706" cy="199.1833300765418" r="2.6665642202740174" fill="#CFAE58" opacity="0.22194587585567987"/>
  <circle cx="668.9465694196329" cy="405.58222010244947" r="2.9758158103244945" fill="#CFAE58" opacity="0.20084421420365028"/>
  <circle cx="235.99700342296694" cy="447.5013848842669" r="3.130164056753056" fill="#CFAE58" opacity="0.13075177292141746"/>
  <circle cx="151.02057834900512" cy="606.7662570532258" r="5.968283733822838" fill="#CFAE58" opacity="0.17239608361662662"/>
  <circle cx="46.67609604819529" cy="145.29289135201307" r="5.49440952643258" fill="#CFAE58" opacity="0.195607148636191"/>
  <circle cx="698.148237446113" cy="25.238596391654944" r="4.3907575750719445" fill="#CFAE58" opacity="0.22202254405803729"/>
  <circle cx="465.9156081192999" cy="490.2459258618966" r="5.6002117436928" fill="#CFAE58" opacity="0.1337164240539509"/>
  <circle cx="816.9165292649466" cy="502.0052167035557" r="2.3560192351211615" fill="#CFAE58" opacity="0.12669652593788547"/>
  <circle cx="123.10826239473376" cy="87.34623920149727" r="2.1164084641368532" fill="#CFAE58" opacity="0.2376134838082647"/>
  <circle cx="1042.1443998574343" cy="205.5205586293938" r="5.283485114497848" fill="#CFAE58" opacity="0.18241908045428357"/>
  <circle cx="937.2404479335808" cy="62.93853089272175" r="4.951394741432022" fill="#CFAE58" opacity="0.16662141974764144"/>
  <circle cx="985.8983689998743" cy="364.53554596954393" r="5.5729249172811715" fill="#CFAE58" opacity="0.22584013908446404"/>
  <circle cx="686.7544596649362" cy="144.08677125112504" r="3.2314705380513393" fill="#CFAE58" opacity="0.18761262087058356"/>
  <circle cx="1019.8911682349278" cy="511.69344243620145" r="4.608162255161899" fill="#CFAE58" opacity="0.1262292374223843"/>
  <circle cx="16.913872419694577" cy="602.8718484046465" r="5.656693513312264" fill="#CFAE58" opacity="0.1724564861508128"/>
  <circle cx="766.018895863286" cy="545.619540622528" r="5.344864682868728" fill="#CFAE58" opacity="0.21008017699791126"/>
  <circle cx="910.8983067552541" cy="7.318636633907741" r="3.251345904049653" fill="#CFAE58" opacity="0.1270636407336251"/>
  <circle cx="1008.4799280434614" cy="88.46140965223948" r="2.278267333466468" fill="#CFAE58" opacity="0.21853634662265609"/>
  <circle cx="1069.7070477785392" cy="623.5437809827074" r="3.1611053107455946" fill="#CFAE58" opacity="0.24378445015495415"/>
  <circle cx="1067.1786348370847" cy="390.60965607550366" r="4.304451909726619" fill="#CFAE58" opacity="0.125473442399274"/>
  <circle cx="368.1472725502697" cy="236.0779587058411" r="2.6898018070649887" fill="#CFAE58" opacity="0.22602365572502803"/>
  <circle cx="889.6946350034119" cy="322.5774699897133" r="2.6992383340348796" fill="#CFAE58" opacity="0.23560932786039557"/>
  <circle cx="367.33310553945864" cy="85.00001712823803" r="2.4077622719310217" fill="#CFAE58" opacity="0.15884034090958507"/>

  <!-- Border with glow -->
  <rect x="40" y="40" width="1120" height="550" fill="none" stroke="url(#goldGradient)" stroke-width="3" rx="12" filter="url(#softGlow)"/>

  <!-- Icon circle with premium background -->
  <circle cx="150" cy="200" r="75" fill="#CFAE58" opacity="0.15" filter="url(#softGlow)"/>
  <circle cx="150" cy="200" r="70" fill="#CFAE58" opacity="0.25"/>
  <text x="150" y="235" font-size="90" text-anchor="middle" fill="#CFAE58" filter="url(#glow)">🏠</text>

  <!-- Premium logo (crown) with enhanced styling -->
  <g transform="translate(100, 70)">
    <path d="M 30 20 L 40 35 L 35 35 Z M 50 15 L 60 35 L 45 35 Z M 65 20 L 75 35 L 70 35 Z M 30 35 L 75 35 L 73 45 L 32 45 Z"
          fill="url(#goldGradient)" filter="url(#glow)" stroke="#B89842" stroke-width="0.5"/>
    <circle cx="40" cy="25" r="3" fill="#4FD1C5" filter="url(#glow)"/>
    <circle cx="52" cy="20" r="4" fill="#4FD1C5" filter="url(#glow)"/>
    <circle cx="65" cy="25" r="3" fill="#4FD1C5" filter="url(#glow)"/>
  </g>

  <!-- Title with shadow -->
  <text x="280" y="180" font-family="Georgia, serif" font-size="72" font-weight="bold"
        fill="url(#goldGradient)" filter="url(#shadow)">From Roe to Royal</text>

  <!-- Subtitle with subtle glow -->
  <text x="280" y="230" font-family="Arial, sans-serif" font-size="36"
        fill="#D6DEE6" opacity="0.95" filter="url(#softGlow)">Premium Salmon Hatchery &amp; Caviar</text>

  <!-- Brand name with letter spacing -->
  <text x="280" y="300" font-family="Georgia, serif" font-size="32" font-weight="bold"
        fill="#CFAE58" letter-spacing="4" filter="url(#glow)">ROYAL KETA</text>

  <!-- Russian tagline -->
  <text x="280" y="340" font-family="Arial, sans-serif" font-size="22" font-style="italic"
        fill="#8B95A1" opacity="0.8">От икринки к королевской</text>

  <!-- Location -->
  <text x="280" y="380" font-family="Arial, sans-serif" font-size="20"
        fill="#8B95A1" opacity="0.7">Невельский район, Сахалин</text>

  <!-- Website with glow -->
  <text x="100" y="570" font-family="Arial, sans-serif" font-size="30" font-weight="bold"
        fill="#4FD1C5" filter="url(#glow)">royalketa.com</text>

  <!-- Enhanced decorative salmon silhouette -->
  <g transform="translate(950, 480)" opacity="0.2" filter="url(#softGlow)">
    <ellipse cx="0" cy="0" rx="90" ry="35" fill="#CFAE58"/>
    <path d="M 90 0 L 120 -18 L 130 0 L 120 18 Z" fill="#CFAE58"/>
    <path d="M -25 -35 L 0 -45 L 25 -35 Z" fill="#CFAE58"/>
    <ellipse cx="-50" cy="0" rx="15" ry="12" fill="#0B0F14"/>
  </g>

  <!-- Additional decorative caviar clusters -->
  <g opacity="0.2">
    <circle cx="1050" cy="120" r="6" fill="#CFAE58"/>
    <circle cx="1065" cy="115" r="5" fill="#CFAE58"/>
    <circle cx="1058" cy="130" r="4" fill="#CFAE58"/>
    <circle cx="150" cy="500" r="5" fill="#4FD1C5"/>
    <circle cx="165" cy="508" r="4" fill="#4FD1C5"/>
    <circle cx="140" cy="512" r="5" fill="#4FD1C5"/>
  </g>
</svg>