<svg width="1200" height="630" xmlns="http://www.w3.org/2000/svg">
  <defs>
    <linearGradient id="bgGradient" x1="0%" y1="0%" x2="100%" y2="100%">
      <stop offset="0%" style="stop-color:#0B0F14;stop-opacity:1" />
      <stop offset="50%" style="stop-color:#0F1619;stop-opacity:1" />
      <stop offset="100%" style="stop-color:#0F1922;stop-opacity:1" />
    </linearGradient>
    <linearGradient id="goldGradient" x1="0%" y1="0%" x2="100%" y2="0%">
      <stop offset="0%" style="stop-color:#E5D596;stop-opacity:1" />
      <stop offset="50%" style="stop-color:#CFAE58;stop-opacity:1" />
      <stop offset="100%" style="stop-color:#B89842;stop-opacity:1" />
    </linearGradient>
    <radialGradient id="oceanGradient" cx="50%" cy="50%" r="50%">
      <stop offset="0%" style="stop-color:#4FD1C5;stop-opacity:0.3" />
      <stop offset="100%" style="stop-color:#1E90A0;stop-opacity:0.05" />
    </radialGradient>
    <filter id="glow">
      <feGaussianBlur stdDeviation="5" result="coloredBlur"/>
      <feMerge>
        <feMergeNode in="coloredBlur"/>
        <feMergeNode in="SourceGraphic"/>
      </feMerge>
    </filter>
    <filter id="softGlow">
      <feGaussianBlur stdDeviation="8" result="coloredBlur"/>
      <feMerge>
        <feMergeNode in="coloredBlur"/>
        <feMergeNode in="SourceGraphic"/>
      </feMerge>
    </filter>
    <filter id="shadow">
      <feDropShadow dx="0" dy="4" stdDeviation="8" flood-color="#000000" flood-opacity="0.5"/>
    </filter>
  </defs>

  <!-- Background -->
  <rect width="1200" height="630" fill="url(#bgGradient)"/>

  <!-- Decorative ocean gradients -->
  <ellipse cx="1000" cy="150" rx="300" ry="200" fill="url(#oceanGradient)" opacity="0.4"/>
  <ellipse cx="200" cy="530" rx="250" ry="180" fill="url(#oceanGradient)" opacity="0.3"/>

  <!-- Wave patterns -->
  <path d="M 0 400 Q 300 350 600 400 T 1200 400 L 1200 630 L 0 630 Z" fill="#1E90A0" opacity="0.08"/>
  <path d="M 0 450 Q 250 420 500 450 T 1000 450 T 1200 450 L 1200 630 L 0 630 Z" fill="#4FD1C5" opacity="0.05"/>

  <!-- Caviar roe particles -->
  <circle cx="973.9617969789327" cy="517.8954670308957" r="3.2958222913715254" fill="#CFAE58" opacity="0.24791916885390128"/>
  <circle cx="344.6602682246764" cy="301.59272796808733" r="2.6695719246062017" fill="#CFAE58" opacity="0.17910402729199518"/>
  <circle cx="1177.0087250116374" cy="501.51069788425815" r="4.882062689649744" fill="#CFAE58" opacity="0.11279850721555454"/>
  <circle cx="747.6268098797397" cy="312.33756078623884" r="3.9607255997369286" fill="#CFAE58" opacity="0.15781766855381366"/>
  <circle cx="463.0281670540763" cy="53.675525577693705" r="3.4209800622880104" fill="#CFAE58" opacity="0.15792937003225266"/>
  <circle cx="80.42681125057535" cy="385.75525268081645" r="4.126176845247565" fill="#CFAE58" opacity="0.12330208777632802"/>
  <circle cx="757.1006378130127" cy="323.8894324801635" r="3.5509258534093453" fill="#CFAE58" opacity="0.2156213250163589"/>
  <circle cx="566.8703371639334" cy="192.2044872781367" r="5.260890435943991" fill="#CFAE58" opacity="0.1828879310657528"/>
  <circle cx="1117.212968081051" cy="309.6053679128479" r="4.156263875950365" fill="#CFAE58" opacity="0.23351462623649924"/>
  <circle cx="1102.6859537936257" cy="612.4684441839903" r="5.481818581080309" fill="#CFAE58" opacity="0.18445885857151745"/>
  <circle cx="645.4059761192763" cy="561.7537444370771" r="4.263565058277301" fill="#CFAE58" opacity="0.24274524201309267"/>
  <circle cx="302.9358587460691" cy="181.01198517798898" r="2.5588498914855613" fill="#CFAE58" opacity="0.2059688902396351"/>
  <circle cx="1159.9568905801436" cy="570.3852492100078" r="4.462472701756239" fill="#CFAE58" opacity="0.16860540019963458"/>
  <circle cx="1025.8238120080753" cy="194.90574521845073" r="3.490803619014196" fill="#CFAE58" opacity="0.17693956925643514"/>
  <circle cx="1030.5881068057136" cy="69.71286407247122" r="5.709687312859986" fill="#CFAE58" opacity="0.18258021756841086"/>
  <circle cx="1111.745245377335" cy="509.2220033556106" r="4.788493427845557" fill="#CFAE58" opacity="0.14964347166033565"/>
  <circle cx="650.6217961573534" cy="102.60105508708519" r="4.998873763836855" fill="#CFAE58" opacity="0.2340557774469811"/>
  <circle cx="1081.654177919154" cy="529.5086770675523" r="2.0944543925686068" fill="#CFAE58" opacity="0.24847235988850155"/>
  <circle cx="507.03328956215523" cy="336.0789196090238" r="3.0030225003978943" fill="#CFAE58" opacity="0.1992347130078279"/>
  <circle cx="804.7425643076925" cy="614.1391633659945" r="3.0209427242276794" fill="#CFAE58" opacity="0.2114365940187884"/>
  <circle cx="731.6119749593736" cy="443.4302949026462" r="5.570612811768805" fill="#CFAE58" opacity="0.10494015241419247"/>
  <circle cx="673.7822610932335" cy="553.7660924293226" r="4.097578958654103" fill="#CFAE58" opacity="0.17237335048248204"/>
  <circle cx="451.85803652243004" cy="599.3782641900123" r="2.517952298378937" fill="#CFAE58" opacity="0.19561305242966365"/>
  <circle cx="814.6897582965858" cy="99.54774200002208" r="3.0968073672686174" fill="#CFAE58" opacity="0.1733263923365252"/>
  <circle cx="1136.6826706059069" cy="556.0066834016905" r="2.4362158933229425" fill="#CFAE58" opacity="0.17331948032232142"/>
  <circle cx="894.6779028068916" cy="284.63284301178714" r="3.5614570055246064" fill="#CFAE58" opacity="0.21653430769078133"/>
  <circle cx="1082.3089979079334" cy="41.90835006243721" r="2.5860990628268237" fill="#CFAE58" opacity="0.23845194304439468"/>
  <circle cx="745.8984860633539" cy="494.67004641768483" r="3.437449004248233" fill="#CFAE58" opacity="0.15299318641527246"/>
  <circle cx="349.9234619498149" cy="318.59276514070615" r="3.950535638303082" fill="#CFAE58" opacity="0.16047500855649982"/>
  <circle cx="269.40595652853807" cy="512.458883587478" r="3.550691862557211" fill="#CFAE58" opacity="0.1145675183183223"/>

  <!-- Border with glow -->
  <rect x="40" y="40" width="1120" height="550" fill="none" stroke="url(#goldGradient)" stroke-width="3" rx="12" filter="url(#softGlow)"/>

  <!-- Icon circle with premium background -->
  <circle cx="150" cy="200" r="75" fill="#CFAE58" opacity="0.15" filter="url(#softGlow)"/>
  <circle cx="150" cy="200" r="70" fill="#CFAE58" opacity="0.25"/>
  <text x="150" y="235" font-size="90" text-anchor="middle" fill="#CFAE58" filter="url(#glow)">🏠</text>

  <!-- Premium logo (crown) with enhanced styling -->
  <g transform="translate(100, 70)">
    <path d="M 30 20 L 40 35 L 35 35 Z M 50 15 L 60 35 L 45 35 Z M 65 20 L 75 35 L 70 35 Z M 30 35 L 75 35 L 73 45 L 32 45 Z"
          fill="url(#goldGradient)" filter="url(#glow)" stroke="#B89842" stroke-width="0.5"/>
    <circle cx="40" cy="25" r="3" fill="#4FD1C5" filter="url(#glow)"/>
    <circle cx="52" cy="20" r="4" fill="#4FD1C5" filter="url(#glow)"/>
    <circle cx="65" cy="25" r="3" fill="#4FD1C5" filter="url(#glow)"/>
  </g>

  <!-- Title with shadow -->
  <text x="280" y="180" font-family="Georgia, serif" font-size="72" font-weight="bold"
        fill="url(#goldGradient)" filter="url(#shadow)">From Roe to Royal</text>

  <!-- Subtitle with subtle glow -->
  <text x="280" y="230" font-family="Arial, sans-serif" font-size="36"
        fill="#D6DEE6" opacity="0.95" filter="url(#softGlow)">Premium Salmon Hatchery & Caviar</text>

  <!-- Brand name with letter spacing -->
  <text x="280" y="300" font-family="Georgia, serif" font-size="32" font-weight="bold"
        fill="#CFAE58" letter-spacing="4" filter="url(#glow)">ROYAL KETA</text>

  <!-- Russian tagline -->
  <text x="280" y="340" font-family="Arial, sans-serif" font-size="22" font-style="italic"
        fill="#8B95A1" opacity="0.8">От икринки к королевской</text>

  <!-- Location -->
  <text x="280" y="380" font-family="Arial, sans-serif" font-size="20"
        fill="#8B95A1" opacity="0.7">Невельский район, Сахалин</text>

  <!-- Website with glow -->
  <text x="100" y="570" font-family="Arial, sans-serif" font-size="30" font-weight="bold"
        fill="#4FD1C5" filter="url(#glow)">royalketa.com</text>

  <!-- Enhanced decorative salmon silhouette -->
  <g transform="translate(950, 480)" opacity="0.2" filter="url(#softGlow)">
    <ellipse cx="0" cy="0" rx="90" ry="35" fill="#CFAE58"/>
    <path d="M 90 0 L 120 -18 L 130 0 L 120 18 Z" fill="#CFAE58"/>
    <path d="M -25 -35 L 0 -45 L 25 -35 Z" fill="#CFAE58"/>
    <ellipse cx="-50" cy="0" rx="15" ry="12" fill="#0B0F14"/>
  </g>

  <!-- Additional decorative caviar clusters -->
  <g opacity="0.2">
    <circle cx="1050" cy="120" r="6" fill="#CFAE58"/>
    <circle cx="1065" cy="115" r="5" fill="#CFAE58"/>
    <circle cx="1058" cy="130" r="4" fill="#CFAE58"/>
    <circle cx="150" cy="500" r="5" fill="#4FD1C5"/>
    <circle cx="165" cy="508" r="4" fill="#4FD1C5"/>
    <circle cx="140" cy="512" r="5" fill="#4FD1C5"/>
  </g>
</svg>