<svg width="1200" height="630" xmlns="http://www.w3.org/2000/svg">
  <defs>
    <linearGradient id="bgGradient" x1="0%" y1="0%" x2="100%" y2="100%">
      <stop offset="0%" style="stop-color:#0B0F14;stop-opacity:1" />
      <stop offset="50%" style="stop-color:#0F1619;stop-opacity:1" />
      <stop offset="100%" style="stop-color:#0F1922;stop-opacity:1" />
    </linearGradient>
    <linearGradient id="goldGradient" x1="0%" y1="0%" x2="100%" y2="0%">
      <stop offset="0%" style="stop-color:#E5D596;stop-opacity:1" />
      <stop offset="50%" style="stop-color:#CFAE58;stop-opacity:1" />
      <stop offset="100%" style="stop-color:#B89842;stop-opacity:1" />
    </linearGradient>
    <radialGradient id="oceanGradient" cx="50%" cy="50%" r="50%">
      <stop offset="0%" style="stop-color:#4FD1C5;stop-opacity:0.3" />
      <stop offset="100%" style="stop-color:#1E90A0;stop-opacity:0.05" />
    </radialGradient>
    <filter id="glow">
      <feGaussianBlur stdDeviation="5" result="coloredBlur"/>
      <feMerge>
        <feMergeNode in="coloredBlur"/>
        <feMergeNode in="SourceGraphic"/>
      </feMerge>
    </filter>
    <filter id="softGlow">
      <feGaussianBlur stdDeviation="8" result="coloredBlur"/>
      <feMerge>
        <feMergeNode in="coloredBlur"/>
        <feMergeNode in="SourceGraphic"/>
      </feMerge>
    </filter>
    <filter id="shadow">
      <feDropShadow dx="0" dy="4" stdDeviation="8" flood-color="#000000" flood-opacity="0.5"/>
    </filter>
  </defs>

  <!-- Background -->
  <rect width="1200" height="630" fill="url(#bgGradient)"/>

  <!-- Decorative ocean gradients -->
  <ellipse cx="1000" cy="150" rx="300" ry="200" fill="url(#oceanGradient)" opacity="0.4"/>
  <ellipse cx="200" cy="530" rx="250" ry="180" fill="url(#oceanGradient)" opacity="0.3"/>

  <!-- Wave patterns -->
  <path d="M 0 400 Q 300 350 600 400 T 1200 400 L 1200 630 L 0 630 Z" fill="#1E90A0" opacity="0.08"/>
  <path d="M 0 450 Q 250 420 500 450 T 1000 450 T 1200 450 L 1200 630 L 0 630 Z" fill="#4FD1C5" opacity="0.05"/>

  <!-- Caviar roe particles -->
  <circle cx="21.766323005966814" cy="426.02192048906767" r="5.827634031520642" fill="#CFAE58" opacity="0.10587028851242095"/>
  <circle cx="183.76534233526752" cy="309.46982374022616" r="5.901623553135755" fill="#CFAE58" opacity="0.12242522776544713"/>
  <circle cx="193.34463559535573" cy="70.31005966580386" r="5.351819938347627" fill="#CFAE58" opacity="0.2185670316429091"/>
  <circle cx="92.99054985754225" cy="594.4204340577221" r="3.5059926551624114" fill="#CFAE58" opacity="0.2230333432606051"/>
  <circle cx="400.7644978747466" cy="205.26431577074115" r="4.529063060498123" fill="#CFAE58" opacity="0.17832734224612934"/>
  <circle cx="686.4177291005957" cy="570.4406214671224" r="4.089651078212611" fill="#CFAE58" opacity="0.19498810324046895"/>
  <circle cx="693.6626965305175" cy="163.9017908837098" r="4.1856676833948425" fill="#CFAE58" opacity="0.10216069445825583"/>
  <circle cx="153.0815591903349" cy="458.0047114568125" r="2.4011495171031942" fill="#CFAE58" opacity="0.23071356690347897"/>
  <circle cx="670.9815913516252" cy="306.65229200381646" r="2.637321880950899" fill="#CFAE58" opacity="0.15896958454715068"/>
  <circle cx="471.4215030808218" cy="14.199959590579551" r="3.7980976444739216" fill="#CFAE58" opacity="0.1438274425535217"/>
  <circle cx="1032.6646180368705" cy="210.9519982861088" r="3.1011795095173857" fill="#CFAE58" opacity="0.13864575602642115"/>
  <circle cx="679.6622645772778" cy="319.8708294856545" r="2.0682430665055733" fill="#CFAE58" opacity="0.16277901408042883"/>
  <circle cx="148.23280921066288" cy="185.26577441458747" r="4.43450584840319" fill="#CFAE58" opacity="0.20517762995024702"/>
  <circle cx="42.266911989620404" cy="320.1602648869154" r="3.8809561496403395" fill="#CFAE58" opacity="0.20355465934333822"/>
  <circle cx="879.9800563856747" cy="603.1416243672259" r="2.2275186779671383" fill="#CFAE58" opacity="0.10404081923097545"/>
  <circle cx="1058.0461855229366" cy="37.279050599017694" r="3.758463677195506" fill="#CFAE58" opacity="0.20828089914678713"/>
  <circle cx="197.0202858739845" cy="287.7861029069389" r="5.706346369829347" fill="#CFAE58" opacity="0.23419273174954292"/>
  <circle cx="281.0822299383049" cy="38.69148433993613" r="3.6730968344067305" fill="#CFAE58" opacity="0.11684231404715564"/>
  <circle cx="100.56544106603278" cy="473.41202093066204" r="4.5388948756136385" fill="#CFAE58" opacity="0.24686829917011235"/>
  <circle cx="1150.7370011806825" cy="58.72259606425974" r="5.2917071283596995" fill="#CFAE58" opacity="0.2368777783303612"/>
  <circle cx="1142.9571797485496" cy="292.6823147916451" r="2.561190439039777" fill="#CFAE58" opacity="0.23492705285960064"/>
  <circle cx="296.9527216409675" cy="107.47082201061303" r="2.8602872565159636" fill="#CFAE58" opacity="0.185529128650555"/>
  <circle cx="570.8989437120612" cy="290.9467254799849" r="5.813156597270295" fill="#CFAE58" opacity="0.10277797327551519"/>
  <circle cx="1056.6478829047683" cy="382.14680094703135" r="5.8603675611345505" fill="#CFAE58" opacity="0.17739986015368828"/>
  <circle cx="453.4408202578386" cy="566.0644419811046" r="4.059696684450935" fill="#CFAE58" opacity="0.21418778276156253"/>
  <circle cx="101.68294860578087" cy="148.80980833803906" r="2.356195567272093" fill="#CFAE58" opacity="0.18487098922906445"/>
  <circle cx="575.5974751962513" cy="604.9135873821338" r="4.819656482782535" fill="#CFAE58" opacity="0.24511973341453464"/>
  <circle cx="840.4546651464542" cy="259.4697036808804" r="3.672510953921625" fill="#CFAE58" opacity="0.12816033715491787"/>
  <circle cx="945.2385768139918" cy="122.38528637472966" r="3.146129461528284" fill="#CFAE58" opacity="0.13496971600536448"/>
  <circle cx="923.5018327637645" cy="418.9291224673764" r="5.864801690681624" fill="#CFAE58" opacity="0.14235167054982145"/>

  <!-- Border with glow -->
  <rect x="40" y="40" width="1120" height="550" fill="none" stroke="url(#goldGradient)" stroke-width="3" rx="12" filter="url(#softGlow)"/>

  <!-- Icon circle with premium background -->
  <circle cx="150" cy="200" r="75" fill="#CFAE58" opacity="0.15" filter="url(#softGlow)"/>
  <circle cx="150" cy="200" r="70" fill="#CFAE58" opacity="0.25"/>
  <text x="150" y="235" font-size="90" text-anchor="middle" fill="#CFAE58" filter="url(#glow)">🏠</text>

  <!-- Premium logo (crown) with enhanced styling -->
  <g transform="translate(100, 70)">
    <path d="M 30 20 L 40 35 L 35 35 Z M 50 15 L 60 35 L 45 35 Z M 65 20 L 75 35 L 70 35 Z M 30 35 L 75 35 L 73 45 L 32 45 Z"
          fill="url(#goldGradient)" filter="url(#glow)" stroke="#B89842" stroke-width="0.5"/>
    <circle cx="40" cy="25" r="3" fill="#4FD1C5" filter="url(#glow)"/>
    <circle cx="52" cy="20" r="4" fill="#4FD1C5" filter="url(#glow)"/>
    <circle cx="65" cy="25" r="3" fill="#4FD1C5" filter="url(#glow)"/>
  </g>

  <!-- Title with shadow -->
  <text x="280" y="180" font-family="Georgia, serif" font-size="72" font-weight="bold"
        fill="url(#goldGradient)" filter="url(#shadow)">From Roe to Royal</text>

  <!-- Subtitle with subtle glow -->
  <text x="280" y="230" font-family="Arial, sans-serif" font-size="36"
        fill="#D6DEE6" opacity="0.95" filter="url(#softGlow)">Premium Salmon Hatchery &amp; Caviar</text>

  <!-- Brand name with letter spacing -->
  <text x="280" y="300" font-family="Georgia, serif" font-size="32" font-weight="bold"
        fill="#CFAE58" letter-spacing="4" filter="url(#glow)">ROYAL KETA</text>

  <!-- Russian tagline -->
  <text x="280" y="340" font-family="Arial, sans-serif" font-size="22" font-style="italic"
        fill="#8B95A1" opacity="0.8">От икринки к королевской</text>

  <!-- Location -->
  <text x="280" y="380" font-family="Arial, sans-serif" font-size="20"
        fill="#8B95A1" opacity="0.7">Невельский район, Сахалин</text>

  <!-- Website with glow -->
  <text x="100" y="570" font-family="Arial, sans-serif" font-size="30" font-weight="bold"
        fill="#4FD1C5" filter="url(#glow)">royalketa.com</text>

  <!-- Enhanced decorative salmon silhouette -->
  <g transform="translate(950, 480)" opacity="0.2" filter="url(#softGlow)">
    <ellipse cx="0" cy="0" rx="90" ry="35" fill="#CFAE58"/>
    <path d="M 90 0 L 120 -18 L 130 0 L 120 18 Z" fill="#CFAE58"/>
    <path d="M -25 -35 L 0 -45 L 25 -35 Z" fill="#CFAE58"/>
    <ellipse cx="-50" cy="0" rx="15" ry="12" fill="#0B0F14"/>
  </g>

  <!-- Additional decorative caviar clusters -->
  <g opacity="0.2">
    <circle cx="1050" cy="120" r="6" fill="#CFAE58"/>
    <circle cx="1065" cy="115" r="5" fill="#CFAE58"/>
    <circle cx="1058" cy="130" r="4" fill="#CFAE58"/>
    <circle cx="150" cy="500" r="5" fill="#4FD1C5"/>
    <circle cx="165" cy="508" r="4" fill="#4FD1C5"/>
    <circle cx="140" cy="512" r="5" fill="#4FD1C5"/>
  </g>
</svg>