<svg width="1200" height="630" xmlns="http://www.w3.org/2000/svg">
  <defs>
    <linearGradient id="bgGradient" x1="0%" y1="0%" x2="100%" y2="100%">
      <stop offset="0%" style="stop-color:#0B0F14;stop-opacity:1" />
      <stop offset="50%" style="stop-color:#0F1619;stop-opacity:1" />
      <stop offset="100%" style="stop-color:#0F1922;stop-opacity:1" />
    </linearGradient>
    <linearGradient id="goldGradient" x1="0%" y1="0%" x2="100%" y2="0%">
      <stop offset="0%" style="stop-color:#E5D596;stop-opacity:1" />
      <stop offset="50%" style="stop-color:#CFAE58;stop-opacity:1" />
      <stop offset="100%" style="stop-color:#B89842;stop-opacity:1" />
    </linearGradient>
    <radialGradient id="oceanGradient" cx="50%" cy="50%" r="50%">
      <stop offset="0%" style="stop-color:#4FD1C5;stop-opacity:0.3" />
      <stop offset="100%" style="stop-color:#1E90A0;stop-opacity:0.05" />
    </radialGradient>
    <filter id="glow">
      <feGaussianBlur stdDeviation="5" result="coloredBlur"/>
      <feMerge>
        <feMergeNode in="coloredBlur"/>
        <feMergeNode in="SourceGraphic"/>
      </feMerge>
    </filter>
    <filter id="softGlow">
      <feGaussianBlur stdDeviation="8" result="coloredBlur"/>
      <feMerge>
        <feMergeNode in="coloredBlur"/>
        <feMergeNode in="SourceGraphic"/>
      </feMerge>
    </filter>
    <filter id="shadow">
      <feDropShadow dx="0" dy="4" stdDeviation="8" flood-color="#000000" flood-opacity="0.5"/>
    </filter>
  </defs>

  <!-- Background -->
  <rect width="1200" height="630" fill="url(#bgGradient)"/>

  <!-- Decorative ocean gradients -->
  <ellipse cx="1000" cy="150" rx="300" ry="200" fill="url(#oceanGradient)" opacity="0.4"/>
  <ellipse cx="200" cy="530" rx="250" ry="180" fill="url(#oceanGradient)" opacity="0.3"/>

  <!-- Wave patterns -->
  <path d="M 0 400 Q 300 350 600 400 T 1200 400 L 1200 630 L 0 630 Z" fill="#1E90A0" opacity="0.08"/>
  <path d="M 0 450 Q 250 420 500 450 T 1000 450 T 1200 450 L 1200 630 L 0 630 Z" fill="#4FD1C5" opacity="0.05"/>

  <!-- Caviar roe particles -->
  <circle cx="1158.6856788059906" cy="332.27527715775295" r="5.262327493892366" fill="#CFAE58" opacity="0.11965232125557307"/>
  <circle cx="225.17820668727353" cy="538.4400117720479" r="4.362913843210541" fill="#CFAE58" opacity="0.21367614082649167"/>
  <circle cx="868.827570442834" cy="281.05036058274453" r="2.281924652682216" fill="#CFAE58" opacity="0.13936733848400704"/>
  <circle cx="687.3098035446071" cy="594.867137584244" r="5.1246526928403915" fill="#CFAE58" opacity="0.22850368486770495"/>
  <circle cx="921.1272017118454" cy="499.28296025730873" r="4.895240648011635" fill="#CFAE58" opacity="0.24650278456730434"/>
  <circle cx="484.39480890637856" cy="456.68115741710665" r="5.096033142654888" fill="#CFAE58" opacity="0.11027090127034919"/>
  <circle cx="607.115555267139" cy="189.91785458664708" r="2.0098828301511498" fill="#CFAE58" opacity="0.17689206255941214"/>
  <circle cx="978.2111156011349" cy="296.4079484955618" r="3.4307460548564386" fill="#CFAE58" opacity="0.16626587493611594"/>
  <circle cx="703.5346608356807" cy="109.46694263216145" r="2.549632357902535" fill="#CFAE58" opacity="0.12366490041890396"/>
  <circle cx="199.94561183066733" cy="524.6327652178009" r="3.508195696505343" fill="#CFAE58" opacity="0.20464134266942047"/>
  <circle cx="1137.7610389090676" cy="83.54896197796147" r="4.880639752546528" fill="#CFAE58" opacity="0.201044503636175"/>
  <circle cx="649.2626123182423" cy="280.00045950699683" r="3.3102439206430025" fill="#CFAE58" opacity="0.19207468772444358"/>
  <circle cx="335.7921891100748" cy="478.2474018446377" r="5.11071694434865" fill="#CFAE58" opacity="0.15384717648726529"/>
  <circle cx="826.3889085799976" cy="212.66762340461906" r="3.702391883027337" fill="#CFAE58" opacity="0.23898462967476336"/>
  <circle cx="754.8059646648607" cy="628.765678551711" r="2.30424275436578" fill="#CFAE58" opacity="0.10388185232787084"/>
  <circle cx="931.7863690418335" cy="371.39873778824517" r="5.169773867242157" fill="#CFAE58" opacity="0.2331574394922478"/>
  <circle cx="947.2719656108978" cy="252.4853880231851" r="3.9767674544001608" fill="#CFAE58" opacity="0.20380250205299402"/>
  <circle cx="1024.466526406557" cy="350.3368408679309" r="3.0909414608591854" fill="#CFAE58" opacity="0.22103934919666363"/>
  <circle cx="816.2026614114319" cy="564.1038714694569" r="2.9718777930081046" fill="#CFAE58" opacity="0.23887293120158687"/>
  <circle cx="1003.7940530572924" cy="612.5197257712717" r="2.6487922803850905" fill="#CFAE58" opacity="0.16250488877765673"/>
  <circle cx="336.8019131613178" cy="137.94228230003242" r="5.906248342563424" fill="#CFAE58" opacity="0.10073130881435728"/>
  <circle cx="391.8217662752089" cy="339.8643342601265" r="2.5272450301725353" fill="#CFAE58" opacity="0.24364048902692992"/>
  <circle cx="420.6552817386079" cy="166.8368076041132" r="2.810890275195951" fill="#CFAE58" opacity="0.20511696510600436"/>
  <circle cx="327.24277077173997" cy="262.4613432947326" r="3.011203497407614" fill="#CFAE58" opacity="0.17675809253008942"/>
  <circle cx="1116.6986243158774" cy="396.88894191071086" r="4.6127380883198015" fill="#CFAE58" opacity="0.21451701705827037"/>
  <circle cx="277.76361053595" cy="410.799274856546" r="2.876025985435936" fill="#CFAE58" opacity="0.24376802004123269"/>
  <circle cx="22.683876160498606" cy="147.40937449512288" r="4.089551796290348" fill="#CFAE58" opacity="0.17602596727305578"/>
  <circle cx="966.6583714608792" cy="421.43974457579264" r="2.696529526116204" fill="#CFAE58" opacity="0.1033374639029607"/>
  <circle cx="130.32062515183645" cy="451.0550911926756" r="5.151012609119549" fill="#CFAE58" opacity="0.12513824096063833"/>
  <circle cx="256.49011171172765" cy="141.01417795915057" r="2.900797468351029" fill="#CFAE58" opacity="0.19756507843815824"/>

  <!-- Border with glow -->
  <rect x="40" y="40" width="1120" height="550" fill="none" stroke="url(#goldGradient)" stroke-width="3" rx="12" filter="url(#softGlow)"/>

  <!-- Icon circle with premium background -->
  <circle cx="150" cy="200" r="75" fill="#CFAE58" opacity="0.15" filter="url(#softGlow)"/>
  <circle cx="150" cy="200" r="70" fill="#CFAE58" opacity="0.25"/>
  <text x="150" y="235" font-size="90" text-anchor="middle" fill="#CFAE58" filter="url(#glow)">🏠</text>

  <!-- Premium logo (crown) with enhanced styling -->
  <g transform="translate(100, 70)">
    <path d="M 30 20 L 40 35 L 35 35 Z M 50 15 L 60 35 L 45 35 Z M 65 20 L 75 35 L 70 35 Z M 30 35 L 75 35 L 73 45 L 32 45 Z"
          fill="url(#goldGradient)" filter="url(#glow)" stroke="#B89842" stroke-width="0.5"/>
    <circle cx="40" cy="25" r="3" fill="#4FD1C5" filter="url(#glow)"/>
    <circle cx="52" cy="20" r="4" fill="#4FD1C5" filter="url(#glow)"/>
    <circle cx="65" cy="25" r="3" fill="#4FD1C5" filter="url(#glow)"/>
  </g>

  <!-- Title with shadow -->
  <text x="280" y="180" font-family="Georgia, serif" font-size="72" font-weight="bold"
        fill="url(#goldGradient)" filter="url(#shadow)">From Roe to Royal</text>

  <!-- Subtitle with subtle glow -->
  <text x="280" y="230" font-family="Arial, sans-serif" font-size="36"
        fill="#D6DEE6" opacity="0.95" filter="url(#softGlow)">Premium Salmon Hatchery &amp; Caviar</text>

  <!-- Brand name with letter spacing -->
  <text x="280" y="300" font-family="Georgia, serif" font-size="32" font-weight="bold"
        fill="#CFAE58" letter-spacing="4" filter="url(#glow)">ROYAL KETA</text>

  <!-- Russian tagline -->
  <text x="280" y="340" font-family="Arial, sans-serif" font-size="22" font-style="italic"
        fill="#8B95A1" opacity="0.8">От икринки к королевской</text>

  <!-- Location -->
  <text x="280" y="380" font-family="Arial, sans-serif" font-size="20"
        fill="#8B95A1" opacity="0.7">Невельский район, Сахалин</text>

  <!-- Website with glow -->
  <text x="100" y="570" font-family="Arial, sans-serif" font-size="30" font-weight="bold"
        fill="#4FD1C5" filter="url(#glow)">royalketa.com</text>

  <!-- Enhanced decorative salmon silhouette -->
  <g transform="translate(950, 480)" opacity="0.2" filter="url(#softGlow)">
    <ellipse cx="0" cy="0" rx="90" ry="35" fill="#CFAE58"/>
    <path d="M 90 0 L 120 -18 L 130 0 L 120 18 Z" fill="#CFAE58"/>
    <path d="M -25 -35 L 0 -45 L 25 -35 Z" fill="#CFAE58"/>
    <ellipse cx="-50" cy="0" rx="15" ry="12" fill="#0B0F14"/>
  </g>

  <!-- Additional decorative caviar clusters -->
  <g opacity="0.2">
    <circle cx="1050" cy="120" r="6" fill="#CFAE58"/>
    <circle cx="1065" cy="115" r="5" fill="#CFAE58"/>
    <circle cx="1058" cy="130" r="4" fill="#CFAE58"/>
    <circle cx="150" cy="500" r="5" fill="#4FD1C5"/>
    <circle cx="165" cy="508" r="4" fill="#4FD1C5"/>
    <circle cx="140" cy="512" r="5" fill="#4FD1C5"/>
  </g>
</svg>