<svg width="1200" height="630" xmlns="http://www.w3.org/2000/svg">
  <defs>
    <linearGradient id="bgGradient" x1="0%" y1="0%" x2="100%" y2="100%">
      <stop offset="0%" style="stop-color:#0B0F14;stop-opacity:1" />
      <stop offset="50%" style="stop-color:#0F1619;stop-opacity:1" />
      <stop offset="100%" style="stop-color:#0F1922;stop-opacity:1" />
    </linearGradient>
    <linearGradient id="goldGradient" x1="0%" y1="0%" x2="100%" y2="0%">
      <stop offset="0%" style="stop-color:#E5D596;stop-opacity:1" />
      <stop offset="50%" style="stop-color:#CFAE58;stop-opacity:1" />
      <stop offset="100%" style="stop-color:#B89842;stop-opacity:1" />
    </linearGradient>
    <radialGradient id="oceanGradient" cx="50%" cy="50%" r="50%">
      <stop offset="0%" style="stop-color:#4FD1C5;stop-opacity:0.3" />
      <stop offset="100%" style="stop-color:#1E90A0;stop-opacity:0.05" />
    </radialGradient>
    <filter id="glow">
      <feGaussianBlur stdDeviation="5" result="coloredBlur"/>
      <feMerge>
        <feMergeNode in="coloredBlur"/>
        <feMergeNode in="SourceGraphic"/>
      </feMerge>
    </filter>
    <filter id="softGlow">
      <feGaussianBlur stdDeviation="8" result="coloredBlur"/>
      <feMerge>
        <feMergeNode in="coloredBlur"/>
        <feMergeNode in="SourceGraphic"/>
      </feMerge>
    </filter>
    <filter id="shadow">
      <feDropShadow dx="0" dy="4" stdDeviation="8" flood-color="#000000" flood-opacity="0.5"/>
    </filter>
  </defs>

  <!-- Background -->
  <rect width="1200" height="630" fill="url(#bgGradient)"/>

  <!-- Decorative ocean gradients -->
  <ellipse cx="1000" cy="150" rx="300" ry="200" fill="url(#oceanGradient)" opacity="0.4"/>
  <ellipse cx="200" cy="530" rx="250" ry="180" fill="url(#oceanGradient)" opacity="0.3"/>

  <!-- Wave patterns -->
  <path d="M 0 400 Q 300 350 600 400 T 1200 400 L 1200 630 L 0 630 Z" fill="#1E90A0" opacity="0.08"/>
  <path d="M 0 450 Q 250 420 500 450 T 1000 450 T 1200 450 L 1200 630 L 0 630 Z" fill="#4FD1C5" opacity="0.05"/>

  <!-- Caviar roe particles -->
  <circle cx="602.4951164901993" cy="451.2821655328146" r="5.968015093555675" fill="#CFAE58" opacity="0.10746965302439407"/>
  <circle cx="141.43823648431385" cy="110.81528025460383" r="3.512300647579724" fill="#CFAE58" opacity="0.14772041640810527"/>
  <circle cx="498.4034098241995" cy="573.7616916743847" r="2.7075293925507196" fill="#CFAE58" opacity="0.13318012334415164"/>
  <circle cx="519.6988794285288" cy="85.9749075014559" r="4.79370975306608" fill="#CFAE58" opacity="0.18532260668525546"/>
  <circle cx="342.37953406473" cy="247.86793626368998" r="3.28909277766512" fill="#CFAE58" opacity="0.16622072359805456"/>
  <circle cx="732.7604412122993" cy="197.18162129226306" r="2.307431161178486" fill="#CFAE58" opacity="0.1327216170090174"/>
  <circle cx="75.93458235997757" cy="301.17835762355867" r="3.5344967998407797" fill="#CFAE58" opacity="0.16611497536099296"/>
  <circle cx="876.1345848692911" cy="484.82361763971284" r="5.530173596047339" fill="#CFAE58" opacity="0.16991240967141202"/>
  <circle cx="939.3547111302131" cy="164.75821787499424" r="4.963111980277246" fill="#CFAE58" opacity="0.203881871195282"/>
  <circle cx="749.2796766723718" cy="478.6779476335057" r="5.244566714368069" fill="#CFAE58" opacity="0.13243985584523887"/>
  <circle cx="1165.7667161646639" cy="433.0447443111511" r="4.063691532867805" fill="#CFAE58" opacity="0.14832113042318043"/>
  <circle cx="1148.8928516327367" cy="9.284289507086964" r="2.2227463584572877" fill="#CFAE58" opacity="0.16185303433431672"/>
  <circle cx="1069.0769454942408" cy="522.8293825805903" r="3.1894271308399675" fill="#CFAE58" opacity="0.11875847078187553"/>
  <circle cx="538.0690270110707" cy="254.275136220756" r="5.12115374645774" fill="#CFAE58" opacity="0.18023195549567878"/>
  <circle cx="107.81397978388102" cy="397.8312031320936" r="3.9642414061737026" fill="#CFAE58" opacity="0.21934968398521146"/>
  <circle cx="1002.2126755407467" cy="435.8301450804406" r="3.3024407467767585" fill="#CFAE58" opacity="0.23252744677630022"/>
  <circle cx="781.1012045805135" cy="289.54490542187256" r="5.058730156690954" fill="#CFAE58" opacity="0.20268209753524966"/>
  <circle cx="70.32028063279512" cy="583.9842916252504" r="2.1557736018812244" fill="#CFAE58" opacity="0.19865347684258575"/>
  <circle cx="941.357290067936" cy="265.30202838340585" r="5.285963269546519" fill="#CFAE58" opacity="0.22682886807937458"/>
  <circle cx="320.77951040601744" cy="64.73520762701695" r="2.460321551807567" fill="#CFAE58" opacity="0.13059378026882248"/>
  <circle cx="825.9705447381533" cy="351.50370915809896" r="4.352117375305884" fill="#CFAE58" opacity="0.12898745824184676"/>
  <circle cx="20.86839275903305" cy="322.03041343125864" r="3.7790722687856455" fill="#CFAE58" opacity="0.1873022092488787"/>
  <circle cx="724.9249217195376" cy="345.9845092195018" r="2.5170084073260077" fill="#CFAE58" opacity="0.24827395048092277"/>
  <circle cx="968.0244072868292" cy="538.6816232706454" r="4.498150608546975" fill="#CFAE58" opacity="0.16789649512359478"/>
  <circle cx="78.35454757135332" cy="274.8386123095072" r="5.104531157133266" fill="#CFAE58" opacity="0.16258465823376828"/>
  <circle cx="197.56944534619714" cy="453.5283686937899" r="5.795121849606094" fill="#CFAE58" opacity="0.11380302960671025"/>
  <circle cx="331.61453818397786" cy="553.387901530087" r="2.6490543185117925" fill="#CFAE58" opacity="0.1799665615786477"/>
  <circle cx="245.59959187458068" cy="12.248565558104271" r="3.9700352224334816" fill="#CFAE58" opacity="0.15752085024254758"/>
  <circle cx="1001.1185342482339" cy="344.47959760509303" r="2.138653916709254" fill="#CFAE58" opacity="0.2430312359176515"/>
  <circle cx="353.8262440338892" cy="405.95796440602976" r="5.177692481909361" fill="#CFAE58" opacity="0.24095272341375346"/>

  <!-- Border with glow -->
  <rect x="40" y="40" width="1120" height="550" fill="none" stroke="url(#goldGradient)" stroke-width="3" rx="12" filter="url(#softGlow)"/>

  <!-- Icon circle with premium background -->
  <circle cx="150" cy="200" r="75" fill="#CFAE58" opacity="0.15" filter="url(#softGlow)"/>
  <circle cx="150" cy="200" r="70" fill="#CFAE58" opacity="0.25"/>
  <text x="150" y="235" font-size="90" text-anchor="middle" fill="#CFAE58" filter="url(#glow)">🏠</text>

  <!-- Premium logo (crown) with enhanced styling -->
  <g transform="translate(100, 70)">
    <path d="M 30 20 L 40 35 L 35 35 Z M 50 15 L 60 35 L 45 35 Z M 65 20 L 75 35 L 70 35 Z M 30 35 L 75 35 L 73 45 L 32 45 Z"
          fill="url(#goldGradient)" filter="url(#glow)" stroke="#B89842" stroke-width="0.5"/>
    <circle cx="40" cy="25" r="3" fill="#4FD1C5" filter="url(#glow)"/>
    <circle cx="52" cy="20" r="4" fill="#4FD1C5" filter="url(#glow)"/>
    <circle cx="65" cy="25" r="3" fill="#4FD1C5" filter="url(#glow)"/>
  </g>

  <!-- Title with shadow -->
  <text x="280" y="180" font-family="Georgia, serif" font-size="72" font-weight="bold"
        fill="url(#goldGradient)" filter="url(#shadow)">From Roe to Royal</text>

  <!-- Subtitle with subtle glow -->
  <text x="280" y="230" font-family="Arial, sans-serif" font-size="36"
        fill="#D6DEE6" opacity="0.95" filter="url(#softGlow)">Premium Salmon Hatchery &amp; Caviar</text>

  <!-- Brand name with letter spacing -->
  <text x="280" y="300" font-family="Georgia, serif" font-size="32" font-weight="bold"
        fill="#CFAE58" letter-spacing="4" filter="url(#glow)">ROYAL KETA</text>

  <!-- Russian tagline -->
  <text x="280" y="340" font-family="Arial, sans-serif" font-size="22" font-style="italic"
        fill="#8B95A1" opacity="0.8">От икринки к королевской</text>

  <!-- Location -->
  <text x="280" y="380" font-family="Arial, sans-serif" font-size="20"
        fill="#8B95A1" opacity="0.7">Невельский район, Сахалин</text>

  <!-- Website with glow -->
  <text x="100" y="570" font-family="Arial, sans-serif" font-size="30" font-weight="bold"
        fill="#4FD1C5" filter="url(#glow)">royalketa.com</text>

  <!-- Enhanced decorative salmon silhouette -->
  <g transform="translate(950, 480)" opacity="0.2" filter="url(#softGlow)">
    <ellipse cx="0" cy="0" rx="90" ry="35" fill="#CFAE58"/>
    <path d="M 90 0 L 120 -18 L 130 0 L 120 18 Z" fill="#CFAE58"/>
    <path d="M -25 -35 L 0 -45 L 25 -35 Z" fill="#CFAE58"/>
    <ellipse cx="-50" cy="0" rx="15" ry="12" fill="#0B0F14"/>
  </g>

  <!-- Additional decorative caviar clusters -->
  <g opacity="0.2">
    <circle cx="1050" cy="120" r="6" fill="#CFAE58"/>
    <circle cx="1065" cy="115" r="5" fill="#CFAE58"/>
    <circle cx="1058" cy="130" r="4" fill="#CFAE58"/>
    <circle cx="150" cy="500" r="5" fill="#4FD1C5"/>
    <circle cx="165" cy="508" r="4" fill="#4FD1C5"/>
    <circle cx="140" cy="512" r="5" fill="#4FD1C5"/>
  </g>
</svg>