<svg width="1200" height="630" xmlns="http://www.w3.org/2000/svg">
  <defs>
    <linearGradient id="bgGradient" x1="0%" y1="0%" x2="100%" y2="100%">
      <stop offset="0%" style="stop-color:#0B0F14;stop-opacity:1" />
      <stop offset="50%" style="stop-color:#0F1619;stop-opacity:1" />
      <stop offset="100%" style="stop-color:#0F1922;stop-opacity:1" />
    </linearGradient>
    <linearGradient id="goldGradient" x1="0%" y1="0%" x2="100%" y2="0%">
      <stop offset="0%" style="stop-color:#E5D596;stop-opacity:1" />
      <stop offset="50%" style="stop-color:#CFAE58;stop-opacity:1" />
      <stop offset="100%" style="stop-color:#B89842;stop-opacity:1" />
    </linearGradient>
    <radialGradient id="oceanGradient" cx="50%" cy="50%" r="50%">
      <stop offset="0%" style="stop-color:#4FD1C5;stop-opacity:0.3" />
      <stop offset="100%" style="stop-color:#1E90A0;stop-opacity:0.05" />
    </radialGradient>
    <filter id="glow">
      <feGaussianBlur stdDeviation="5" result="coloredBlur"/>
      <feMerge>
        <feMergeNode in="coloredBlur"/>
        <feMergeNode in="SourceGraphic"/>
      </feMerge>
    </filter>
    <filter id="softGlow">
      <feGaussianBlur stdDeviation="8" result="coloredBlur"/>
      <feMerge>
        <feMergeNode in="coloredBlur"/>
        <feMergeNode in="SourceGraphic"/>
      </feMerge>
    </filter>
    <filter id="shadow">
      <feDropShadow dx="0" dy="4" stdDeviation="8" flood-color="#000000" flood-opacity="0.5"/>
    </filter>
  </defs>

  <!-- Background -->
  <rect width="1200" height="630" fill="url(#bgGradient)"/>

  <!-- Decorative ocean gradients -->
  <ellipse cx="1000" cy="150" rx="300" ry="200" fill="url(#oceanGradient)" opacity="0.4"/>
  <ellipse cx="200" cy="530" rx="250" ry="180" fill="url(#oceanGradient)" opacity="0.3"/>

  <!-- Wave patterns -->
  <path d="M 0 400 Q 300 350 600 400 T 1200 400 L 1200 630 L 0 630 Z" fill="#1E90A0" opacity="0.08"/>
  <path d="M 0 450 Q 250 420 500 450 T 1000 450 T 1200 450 L 1200 630 L 0 630 Z" fill="#4FD1C5" opacity="0.05"/>

  <!-- Caviar roe particles -->
  <circle cx="582.2578608297939" cy="617.4798158912988" r="3.9513373267575806" fill="#CFAE58" opacity="0.21387206197434805"/>
  <circle cx="125.7072890515874" cy="50.74345258111385" r="4.650231673983932" fill="#CFAE58" opacity="0.10218849918443347"/>
  <circle cx="27.272370423717838" cy="271.1723919912829" r="2.1708323379234753" fill="#CFAE58" opacity="0.19711969055594025"/>
  <circle cx="486.5190674891217" cy="133.06756147178717" r="4.664257994584245" fill="#CFAE58" opacity="0.2196654733739012"/>
  <circle cx="1118.4826657999095" cy="375.8707818974866" r="3.5569868488645815" fill="#CFAE58" opacity="0.14699959162525744"/>
  <circle cx="1135.1949343904134" cy="585.1251645685492" r="3.363549367839717" fill="#CFAE58" opacity="0.22762585976215022"/>
  <circle cx="1060.6783998161172" cy="392.45401571832406" r="4.522613935730947" fill="#CFAE58" opacity="0.14291165111712642"/>
  <circle cx="1014.1421109944844" cy="138.14990718093617" r="5.520843508066008" fill="#CFAE58" opacity="0.15796585797380513"/>
  <circle cx="615.6402116254017" cy="607.4264928821901" r="2.4898178183717623" fill="#CFAE58" opacity="0.22578936660265284"/>
  <circle cx="6.064479464049155" cy="322.4923359164065" r="3.8911409290187122" fill="#CFAE58" opacity="0.14640145971419097"/>
  <circle cx="353.80332316943344" cy="24.29207365866029" r="2.5260831770712984" fill="#CFAE58" opacity="0.14138930022061819"/>
  <circle cx="1119.3412596887977" cy="244.44156887102187" r="4.324591683868174" fill="#CFAE58" opacity="0.10949369498747237"/>
  <circle cx="514.3350951170559" cy="222.34940981989996" r="5.306295343632817" fill="#CFAE58" opacity="0.18175508991827413"/>
  <circle cx="427.23956288359" cy="434.7920639980567" r="4.87396114394595" fill="#CFAE58" opacity="0.1394084322272734"/>
  <circle cx="773.5502699362441" cy="47.26624894614781" r="2.67628699071683" fill="#CFAE58" opacity="0.18915098833516558"/>
  <circle cx="998.4478569200162" cy="516.6521246400332" r="3.8491260756888823" fill="#CFAE58" opacity="0.2327546883299518"/>
  <circle cx="225.71754577395632" cy="397.91602689883416" r="5.438507701318631" fill="#CFAE58" opacity="0.13516623240295716"/>
  <circle cx="925.2542705091486" cy="519.625673769436" r="5.764905882426341" fill="#CFAE58" opacity="0.18069382308034226"/>
  <circle cx="511.93729590135763" cy="455.8878732562105" r="5.47675182398236" fill="#CFAE58" opacity="0.10485194511578115"/>
  <circle cx="302.43781856597576" cy="283.9238472831476" r="2.795374872607586" fill="#CFAE58" opacity="0.21398210846224716"/>
  <circle cx="1025.6514310923305" cy="32.11964158330137" r="4.083588277183174" fill="#CFAE58" opacity="0.1543336480574672"/>
  <circle cx="980.9888411173913" cy="139.1310413542078" r="2.302600850493047" fill="#CFAE58" opacity="0.17474837891829065"/>
  <circle cx="735.7774169489695" cy="452.7808318370723" r="3.504772803322864" fill="#CFAE58" opacity="0.2288171478841831"/>
  <circle cx="646.3427348766153" cy="60.29974984057981" r="3.209085397449314" fill="#CFAE58" opacity="0.10683651033063851"/>
  <circle cx="1064.150426058704" cy="475.84640064570766" r="2.459972022399099" fill="#CFAE58" opacity="0.15964881884010607"/>
  <circle cx="461.2733037340958" cy="593.207825065281" r="3.1627783049024707" fill="#CFAE58" opacity="0.17924443904860132"/>
  <circle cx="865.154379847891" cy="456.5796482757961" r="2.259374174394946" fill="#CFAE58" opacity="0.1126271021953459"/>
  <circle cx="420.2059310080252" cy="456.51261503124755" r="3.093177150606213" fill="#CFAE58" opacity="0.13438695269994308"/>
  <circle cx="1084.5074549444262" cy="565.3513656286766" r="2.3363347488990525" fill="#CFAE58" opacity="0.13940962018631828"/>
  <circle cx="806.726500506191" cy="488.9871219586732" r="3.5126333430514713" fill="#CFAE58" opacity="0.11947742453205566"/>

  <!-- Border with glow -->
  <rect x="40" y="40" width="1120" height="550" fill="none" stroke="url(#goldGradient)" stroke-width="3" rx="12" filter="url(#softGlow)"/>

  <!-- Icon circle with premium background -->
  <circle cx="150" cy="200" r="75" fill="#CFAE58" opacity="0.15" filter="url(#softGlow)"/>
  <circle cx="150" cy="200" r="70" fill="#CFAE58" opacity="0.25"/>
  <text x="150" y="235" font-size="90" text-anchor="middle" fill="#CFAE58" filter="url(#glow)">🏠</text>

  <!-- Premium logo (crown) with enhanced styling -->
  <g transform="translate(100, 70)">
    <path d="M 30 20 L 40 35 L 35 35 Z M 50 15 L 60 35 L 45 35 Z M 65 20 L 75 35 L 70 35 Z M 30 35 L 75 35 L 73 45 L 32 45 Z"
          fill="url(#goldGradient)" filter="url(#glow)" stroke="#B89842" stroke-width="0.5"/>
    <circle cx="40" cy="25" r="3" fill="#4FD1C5" filter="url(#glow)"/>
    <circle cx="52" cy="20" r="4" fill="#4FD1C5" filter="url(#glow)"/>
    <circle cx="65" cy="25" r="3" fill="#4FD1C5" filter="url(#glow)"/>
  </g>

  <!-- Title with shadow -->
  <text x="280" y="180" font-family="Georgia, serif" font-size="72" font-weight="bold"
        fill="url(#goldGradient)" filter="url(#shadow)">From Roe to Royal</text>

  <!-- Subtitle with subtle glow -->
  <text x="280" y="230" font-family="Arial, sans-serif" font-size="36"
        fill="#D6DEE6" opacity="0.95" filter="url(#softGlow)">Premium Salmon Hatchery &amp; Caviar</text>

  <!-- Brand name with letter spacing -->
  <text x="280" y="300" font-family="Georgia, serif" font-size="32" font-weight="bold"
        fill="#CFAE58" letter-spacing="4" filter="url(#glow)">ROYAL KETA</text>

  <!-- Russian tagline -->
  <text x="280" y="340" font-family="Arial, sans-serif" font-size="22" font-style="italic"
        fill="#8B95A1" opacity="0.8">От икринки к королевской</text>

  <!-- Location -->
  <text x="280" y="380" font-family="Arial, sans-serif" font-size="20"
        fill="#8B95A1" opacity="0.7">Невельский район, Сахалин</text>

  <!-- Website with glow -->
  <text x="100" y="570" font-family="Arial, sans-serif" font-size="30" font-weight="bold"
        fill="#4FD1C5" filter="url(#glow)">royalketa.com</text>

  <!-- Enhanced decorative salmon silhouette -->
  <g transform="translate(950, 480)" opacity="0.2" filter="url(#softGlow)">
    <ellipse cx="0" cy="0" rx="90" ry="35" fill="#CFAE58"/>
    <path d="M 90 0 L 120 -18 L 130 0 L 120 18 Z" fill="#CFAE58"/>
    <path d="M -25 -35 L 0 -45 L 25 -35 Z" fill="#CFAE58"/>
    <ellipse cx="-50" cy="0" rx="15" ry="12" fill="#0B0F14"/>
  </g>

  <!-- Additional decorative caviar clusters -->
  <g opacity="0.2">
    <circle cx="1050" cy="120" r="6" fill="#CFAE58"/>
    <circle cx="1065" cy="115" r="5" fill="#CFAE58"/>
    <circle cx="1058" cy="130" r="4" fill="#CFAE58"/>
    <circle cx="150" cy="500" r="5" fill="#4FD1C5"/>
    <circle cx="165" cy="508" r="4" fill="#4FD1C5"/>
    <circle cx="140" cy="512" r="5" fill="#4FD1C5"/>
  </g>
</svg>