<svg width="1200" height="630" xmlns="http://www.w3.org/2000/svg">
  <defs>
    <linearGradient id="bgGradient" x1="0%" y1="0%" x2="100%" y2="100%">
      <stop offset="0%" style="stop-color:#0B0F14;stop-opacity:1" />
      <stop offset="50%" style="stop-color:#0F1619;stop-opacity:1" />
      <stop offset="100%" style="stop-color:#0F1922;stop-opacity:1" />
    </linearGradient>
    <linearGradient id="goldGradient" x1="0%" y1="0%" x2="100%" y2="0%">
      <stop offset="0%" style="stop-color:#E5D596;stop-opacity:1" />
      <stop offset="50%" style="stop-color:#CFAE58;stop-opacity:1" />
      <stop offset="100%" style="stop-color:#B89842;stop-opacity:1" />
    </linearGradient>
    <radialGradient id="oceanGradient" cx="50%" cy="50%" r="50%">
      <stop offset="0%" style="stop-color:#4FD1C5;stop-opacity:0.3" />
      <stop offset="100%" style="stop-color:#1E90A0;stop-opacity:0.05" />
    </radialGradient>
    <filter id="glow">
      <feGaussianBlur stdDeviation="5" result="coloredBlur"/>
      <feMerge>
        <feMergeNode in="coloredBlur"/>
        <feMergeNode in="SourceGraphic"/>
      </feMerge>
    </filter>
    <filter id="softGlow">
      <feGaussianBlur stdDeviation="8" result="coloredBlur"/>
      <feMerge>
        <feMergeNode in="coloredBlur"/>
        <feMergeNode in="SourceGraphic"/>
      </feMerge>
    </filter>
    <filter id="shadow">
      <feDropShadow dx="0" dy="4" stdDeviation="8" flood-color="#000000" flood-opacity="0.5"/>
    </filter>
  </defs>

  <!-- Background -->
  <rect width="1200" height="630" fill="url(#bgGradient)"/>

  <!-- Decorative ocean gradients -->
  <ellipse cx="1000" cy="150" rx="300" ry="200" fill="url(#oceanGradient)" opacity="0.4"/>
  <ellipse cx="200" cy="530" rx="250" ry="180" fill="url(#oceanGradient)" opacity="0.3"/>

  <!-- Wave patterns -->
  <path d="M 0 400 Q 300 350 600 400 T 1200 400 L 1200 630 L 0 630 Z" fill="#1E90A0" opacity="0.08"/>
  <path d="M 0 450 Q 250 420 500 450 T 1000 450 T 1200 450 L 1200 630 L 0 630 Z" fill="#4FD1C5" opacity="0.05"/>

  <!-- Caviar roe particles -->
  <circle cx="26.80588865298521" cy="536.1985873433168" r="3.3703081829516783" fill="#CFAE58" opacity="0.1895933643947934"/>
  <circle cx="556.4261521467394" cy="226.0019548797846" r="5.4242248354117155" fill="#CFAE58" opacity="0.12229392502911002"/>
  <circle cx="1083.7619450500429" cy="447.251317110562" r="2.436161177964923" fill="#CFAE58" opacity="0.22244758894732788"/>
  <circle cx="873.4932578814481" cy="368.4247538768646" r="2.084256251411847" fill="#CFAE58" opacity="0.15736459986417456"/>
  <circle cx="729.0274137721275" cy="575.8176241224392" r="4.889548679022973" fill="#CFAE58" opacity="0.2365616628914989"/>
  <circle cx="1052.4198093339799" cy="352.2638513406132" r="3.1620355360117234" fill="#CFAE58" opacity="0.19704392037108232"/>
  <circle cx="517.1856173764717" cy="218.83212114893246" r="3.0959398459734055" fill="#CFAE58" opacity="0.12079071833552688"/>
  <circle cx="801.6633233240011" cy="381.8919488821537" r="4.146599637883269" fill="#CFAE58" opacity="0.20218101862157295"/>
  <circle cx="148.06366948174627" cy="141.12425463515575" r="5.110602799532419" fill="#CFAE58" opacity="0.1394836498317858"/>
  <circle cx="752.0326339275144" cy="293.46563872117616" r="4.562198379393698" fill="#CFAE58" opacity="0.14351209317271343"/>
  <circle cx="1158.744638344437" cy="351.26654952470375" r="5.020449505664026" fill="#CFAE58" opacity="0.16578363029151003"/>
  <circle cx="996.7790218174401" cy="498.75165956267466" r="2.209407842552679" fill="#CFAE58" opacity="0.13357868184184007"/>
  <circle cx="1114.4724156213024" cy="58.66203913018327" r="4.441983413637557" fill="#CFAE58" opacity="0.23268963838370926"/>
  <circle cx="943.674046969525" cy="294.0258070621399" r="2.0265268079950722" fill="#CFAE58" opacity="0.1040576536307472"/>
  <circle cx="1032.0971284644897" cy="59.52556011155213" r="2.5281738747404443" fill="#CFAE58" opacity="0.23105650364928548"/>
  <circle cx="96.99939499238451" cy="424.4114881220934" r="4.996966375117817" fill="#CFAE58" opacity="0.11025807277019893"/>
  <circle cx="89.55770581835321" cy="596.9739557225745" r="2.4985790222981334" fill="#CFAE58" opacity="0.14407886236047165"/>
  <circle cx="1061.524874710474" cy="381.31675330782747" r="4.383488595579554" fill="#CFAE58" opacity="0.2364905163551662"/>
  <circle cx="47.79116787994049" cy="522.3161262667106" r="3.5249222509160294" fill="#CFAE58" opacity="0.12335110733886513"/>
  <circle cx="742.1511903785195" cy="619.564692156883" r="4.71627654186444" fill="#CFAE58" opacity="0.13446059986741785"/>
  <circle cx="168.42051124798152" cy="494.81439856652753" r="2.2147988812099664" fill="#CFAE58" opacity="0.22393763823219082"/>
  <circle cx="382.27709217921824" cy="337.9656991916367" r="2.9184793868360117" fill="#CFAE58" opacity="0.16196018789009545"/>
  <circle cx="119.243043303657" cy="395.059987611399" r="5.250359255803948" fill="#CFAE58" opacity="0.10188989255371"/>
  <circle cx="501.1632050403379" cy="409.5494629365296" r="4.28368967519885" fill="#CFAE58" opacity="0.15620194233399537"/>
  <circle cx="843.1820944197866" cy="381.9920534482605" r="5.496735079350124" fill="#CFAE58" opacity="0.1506483150537631"/>
  <circle cx="25.4491639372028" cy="322.3354097069808" r="4.053635606486163" fill="#CFAE58" opacity="0.2153275985230786"/>
  <circle cx="530.407220835616" cy="352.9175906461255" r="2.0332508020770454" fill="#CFAE58" opacity="0.18311028484883973"/>
  <circle cx="396.8777928671576" cy="381.15829305887905" r="5.86436902191236" fill="#CFAE58" opacity="0.17980100923514597"/>
  <circle cx="876.6693259014996" cy="179.0177683859202" r="4.869230397239796" fill="#CFAE58" opacity="0.19975346921462683"/>
  <circle cx="544.7898978293557" cy="365.1998273176943" r="3.5866663564612864" fill="#CFAE58" opacity="0.1155891404114676"/>

  <!-- Border with glow -->
  <rect x="40" y="40" width="1120" height="550" fill="none" stroke="url(#goldGradient)" stroke-width="3" rx="12" filter="url(#softGlow)"/>

  <!-- Icon circle with premium background -->
  <circle cx="150" cy="200" r="75" fill="#CFAE58" opacity="0.15" filter="url(#softGlow)"/>
  <circle cx="150" cy="200" r="70" fill="#CFAE58" opacity="0.25"/>
  <text x="150" y="235" font-size="90" text-anchor="middle" fill="#CFAE58" filter="url(#glow)">📈</text>

  <!-- Premium logo (crown) with enhanced styling -->
  <g transform="translate(100, 70)">
    <path d="M 30 20 L 40 35 L 35 35 Z M 50 15 L 60 35 L 45 35 Z M 65 20 L 75 35 L 70 35 Z M 30 35 L 75 35 L 73 45 L 32 45 Z"
          fill="url(#goldGradient)" filter="url(#glow)" stroke="#B89842" stroke-width="0.5"/>
    <circle cx="40" cy="25" r="3" fill="#4FD1C5" filter="url(#glow)"/>
    <circle cx="52" cy="20" r="4" fill="#4FD1C5" filter="url(#glow)"/>
    <circle cx="65" cy="25" r="3" fill="#4FD1C5" filter="url(#glow)"/>
  </g>

  <!-- Title with shadow -->
  <text x="280" y="180" font-family="Georgia, serif" font-size="72" font-weight="bold"
        fill="url(#goldGradient)" filter="url(#shadow)">Investment Opportunities</text>

  <!-- Subtitle with subtle glow -->
  <text x="280" y="230" font-family="Arial, sans-serif" font-size="36"
        fill="#D6DEE6" opacity="0.95" filter="url(#softGlow)">Models A/B/C/D Returns</text>

  <!-- Brand name with letter spacing -->
  <text x="280" y="300" font-family="Georgia, serif" font-size="32" font-weight="bold"
        fill="#CFAE58" letter-spacing="4" filter="url(#glow)">ROYAL KETA</text>

  <!-- Russian tagline -->
  <text x="280" y="340" font-family="Arial, sans-serif" font-size="22" font-style="italic"
        fill="#8B95A1" opacity="0.8">От икринки к королевской</text>

  <!-- Location -->
  <text x="280" y="380" font-family="Arial, sans-serif" font-size="20"
        fill="#8B95A1" opacity="0.7">Невельский район, Сахалин</text>

  <!-- Website with glow -->
  <text x="100" y="570" font-family="Arial, sans-serif" font-size="30" font-weight="bold"
        fill="#4FD1C5" filter="url(#glow)">royalketa.com</text>

  <!-- Enhanced decorative salmon silhouette -->
  <g transform="translate(950, 480)" opacity="0.2" filter="url(#softGlow)">
    <ellipse cx="0" cy="0" rx="90" ry="35" fill="#CFAE58"/>
    <path d="M 90 0 L 120 -18 L 130 0 L 120 18 Z" fill="#CFAE58"/>
    <path d="M -25 -35 L 0 -45 L 25 -35 Z" fill="#CFAE58"/>
    <ellipse cx="-50" cy="0" rx="15" ry="12" fill="#0B0F14"/>
  </g>

  <!-- Additional decorative caviar clusters -->
  <g opacity="0.2">
    <circle cx="1050" cy="120" r="6" fill="#CFAE58"/>
    <circle cx="1065" cy="115" r="5" fill="#CFAE58"/>
    <circle cx="1058" cy="130" r="4" fill="#CFAE58"/>
    <circle cx="150" cy="500" r="5" fill="#4FD1C5"/>
    <circle cx="165" cy="508" r="4" fill="#4FD1C5"/>
    <circle cx="140" cy="512" r="5" fill="#4FD1C5"/>
  </g>
</svg>