<svg width="1200" height="630" xmlns="http://www.w3.org/2000/svg">
  <defs>
    <linearGradient id="bgGradient" x1="0%" y1="0%" x2="100%" y2="100%">
      <stop offset="0%" style="stop-color:#0B0F14;stop-opacity:1" />
      <stop offset="50%" style="stop-color:#0F1619;stop-opacity:1" />
      <stop offset="100%" style="stop-color:#0F1922;stop-opacity:1" />
    </linearGradient>
    <linearGradient id="goldGradient" x1="0%" y1="0%" x2="100%" y2="0%">
      <stop offset="0%" style="stop-color:#E5D596;stop-opacity:1" />
      <stop offset="50%" style="stop-color:#CFAE58;stop-opacity:1" />
      <stop offset="100%" style="stop-color:#B89842;stop-opacity:1" />
    </linearGradient>
    <radialGradient id="oceanGradient" cx="50%" cy="50%" r="50%">
      <stop offset="0%" style="stop-color:#4FD1C5;stop-opacity:0.3" />
      <stop offset="100%" style="stop-color:#1E90A0;stop-opacity:0.05" />
    </radialGradient>
    <filter id="glow">
      <feGaussianBlur stdDeviation="5" result="coloredBlur"/>
      <feMerge>
        <feMergeNode in="coloredBlur"/>
        <feMergeNode in="SourceGraphic"/>
      </feMerge>
    </filter>
    <filter id="softGlow">
      <feGaussianBlur stdDeviation="8" result="coloredBlur"/>
      <feMerge>
        <feMergeNode in="coloredBlur"/>
        <feMergeNode in="SourceGraphic"/>
      </feMerge>
    </filter>
    <filter id="shadow">
      <feDropShadow dx="0" dy="4" stdDeviation="8" flood-color="#000000" flood-opacity="0.5"/>
    </filter>
  </defs>

  <!-- Background -->
  <rect width="1200" height="630" fill="url(#bgGradient)"/>

  <!-- Decorative ocean gradients -->
  <ellipse cx="1000" cy="150" rx="300" ry="200" fill="url(#oceanGradient)" opacity="0.4"/>
  <ellipse cx="200" cy="530" rx="250" ry="180" fill="url(#oceanGradient)" opacity="0.3"/>

  <!-- Wave patterns -->
  <path d="M 0 400 Q 300 350 600 400 T 1200 400 L 1200 630 L 0 630 Z" fill="#1E90A0" opacity="0.08"/>
  <path d="M 0 450 Q 250 420 500 450 T 1000 450 T 1200 450 L 1200 630 L 0 630 Z" fill="#4FD1C5" opacity="0.05"/>

  <!-- Caviar roe particles -->
  <circle cx="289.79250962698194" cy="300.4677310478758" r="5.187559865022834" fill="#CFAE58" opacity="0.21885888255861236"/>
  <circle cx="974.8606375243678" cy="123.68488148147473" r="3.647302427963155" fill="#CFAE58" opacity="0.2187282783134541"/>
  <circle cx="799.6825270354276" cy="212.8766673407242" r="2.2250156151065283" fill="#CFAE58" opacity="0.18265711371553087"/>
  <circle cx="495.62042959061046" cy="191.0456438079648" r="3.9790593882942225" fill="#CFAE58" opacity="0.2008981517908473"/>
  <circle cx="723.2191492751992" cy="600.5949781618446" r="4.431694965610344" fill="#CFAE58" opacity="0.1097865849117135"/>
  <circle cx="772.9123860251669" cy="8.917047064782025" r="2.6255448152402767" fill="#CFAE58" opacity="0.11237598498344972"/>
  <circle cx="188.45158804654517" cy="457.72622786531485" r="3.703690522858439" fill="#CFAE58" opacity="0.14106184078034373"/>
  <circle cx="169.56210985351868" cy="277.5268848817177" r="2.933363168191606" fill="#CFAE58" opacity="0.10635893207314359"/>
  <circle cx="903.2968910404501" cy="339.0181235086191" r="2.727693274419411" fill="#CFAE58" opacity="0.2449256237613533"/>
  <circle cx="252.87121620682518" cy="0.07290589697222849" r="4.575632365671638" fill="#CFAE58" opacity="0.1927019398823986"/>
  <circle cx="171.132390790128" cy="559.6287645172042" r="4.716077048693977" fill="#CFAE58" opacity="0.13500884396819046"/>
  <circle cx="7.751454300951277" cy="529.0094820351812" r="2.630068777146294" fill="#CFAE58" opacity="0.22434639036005757"/>
  <circle cx="290.93910593129084" cy="525.7398720164532" r="4.15885132849146" fill="#CFAE58" opacity="0.16801540560171485"/>
  <circle cx="250.03435057379306" cy="336.1908730021635" r="5.051000353942932" fill="#CFAE58" opacity="0.12725185863891875"/>
  <circle cx="573.7067116310124" cy="475.48714502813806" r="4.8323016429096555" fill="#CFAE58" opacity="0.23139749608451726"/>
  <circle cx="665.1494761278364" cy="18.456461781506608" r="5.947343092826223" fill="#CFAE58" opacity="0.1449663886366116"/>
  <circle cx="352.6388141219832" cy="429.43124035742454" r="3.2026427569611964" fill="#CFAE58" opacity="0.15703230228893084"/>
  <circle cx="46.12571847424771" cy="242.85385907090492" r="5.724333534269219" fill="#CFAE58" opacity="0.18178416542117332"/>
  <circle cx="808.1519776910196" cy="367.9195963328595" r="2.1708866116311545" fill="#CFAE58" opacity="0.1625382773924045"/>
  <circle cx="782.6695598705685" cy="353.09513395303503" r="3.131583396179086" fill="#CFAE58" opacity="0.23390361915244454"/>
  <circle cx="904.8948425269776" cy="431.5427949045911" r="4.379204731586899" fill="#CFAE58" opacity="0.1781728511531599"/>
  <circle cx="602.565424313346" cy="618.7372751721629" r="5.740876951333181" fill="#CFAE58" opacity="0.12651653689891157"/>
  <circle cx="128.71768700006743" cy="169.4929734242592" r="4.818403206378015" fill="#CFAE58" opacity="0.18312095087401914"/>
  <circle cx="220.07390370919197" cy="433.60272849273025" r="5.805536950581416" fill="#CFAE58" opacity="0.22551635952256768"/>
  <circle cx="155.0383442988278" cy="308.0689488796051" r="4.131937899250776" fill="#CFAE58" opacity="0.1436127498182795"/>
  <circle cx="32.635369660780356" cy="139.1975624029102" r="5.246198150619811" fill="#CFAE58" opacity="0.11864693000766513"/>
  <circle cx="344.30660235353554" cy="137.2695421814925" r="4.629572791970845" fill="#CFAE58" opacity="0.12234878644779948"/>
  <circle cx="447.0306611805562" cy="316.38435065989404" r="2.111499713613402" fill="#CFAE58" opacity="0.13174472499812456"/>
  <circle cx="991.3255526427373" cy="155.07209626562042" r="3.0938247041319493" fill="#CFAE58" opacity="0.17758543473355268"/>
  <circle cx="327.13802287509026" cy="290.9125616300242" r="5.174503789918914" fill="#CFAE58" opacity="0.17437359271225467"/>

  <!-- Border with glow -->
  <rect x="40" y="40" width="1120" height="550" fill="none" stroke="url(#goldGradient)" stroke-width="3" rx="12" filter="url(#softGlow)"/>

  <!-- Icon circle with premium background -->
  <circle cx="150" cy="200" r="75" fill="#CFAE58" opacity="0.15" filter="url(#softGlow)"/>
  <circle cx="150" cy="200" r="70" fill="#CFAE58" opacity="0.25"/>
  <text x="150" y="235" font-size="90" text-anchor="middle" fill="#CFAE58" filter="url(#glow)">📈</text>

  <!-- Premium logo (crown) with enhanced styling -->
  <g transform="translate(100, 70)">
    <path d="M 30 20 L 40 35 L 35 35 Z M 50 15 L 60 35 L 45 35 Z M 65 20 L 75 35 L 70 35 Z M 30 35 L 75 35 L 73 45 L 32 45 Z"
          fill="url(#goldGradient)" filter="url(#glow)" stroke="#B89842" stroke-width="0.5"/>
    <circle cx="40" cy="25" r="3" fill="#4FD1C5" filter="url(#glow)"/>
    <circle cx="52" cy="20" r="4" fill="#4FD1C5" filter="url(#glow)"/>
    <circle cx="65" cy="25" r="3" fill="#4FD1C5" filter="url(#glow)"/>
  </g>

  <!-- Title with shadow -->
  <text x="280" y="180" font-family="Georgia, serif" font-size="72" font-weight="bold"
        fill="url(#goldGradient)" filter="url(#shadow)">Investment Opportunities</text>

  <!-- Subtitle with subtle glow -->
  <text x="280" y="230" font-family="Arial, sans-serif" font-size="36"
        fill="#D6DEE6" opacity="0.95" filter="url(#softGlow)">Models A/B/C/D Returns</text>

  <!-- Brand name with letter spacing -->
  <text x="280" y="300" font-family="Georgia, serif" font-size="32" font-weight="bold"
        fill="#CFAE58" letter-spacing="4" filter="url(#glow)">ROYAL KETA</text>

  <!-- Russian tagline -->
  <text x="280" y="340" font-family="Arial, sans-serif" font-size="22" font-style="italic"
        fill="#8B95A1" opacity="0.8">От икринки к королевской</text>

  <!-- Location -->
  <text x="280" y="380" font-family="Arial, sans-serif" font-size="20"
        fill="#8B95A1" opacity="0.7">Невельский район, Сахалин</text>

  <!-- Website with glow -->
  <text x="100" y="570" font-family="Arial, sans-serif" font-size="30" font-weight="bold"
        fill="#4FD1C5" filter="url(#glow)">royalketa.com</text>

  <!-- Enhanced decorative salmon silhouette -->
  <g transform="translate(950, 480)" opacity="0.2" filter="url(#softGlow)">
    <ellipse cx="0" cy="0" rx="90" ry="35" fill="#CFAE58"/>
    <path d="M 90 0 L 120 -18 L 130 0 L 120 18 Z" fill="#CFAE58"/>
    <path d="M -25 -35 L 0 -45 L 25 -35 Z" fill="#CFAE58"/>
    <ellipse cx="-50" cy="0" rx="15" ry="12" fill="#0B0F14"/>
  </g>

  <!-- Additional decorative caviar clusters -->
  <g opacity="0.2">
    <circle cx="1050" cy="120" r="6" fill="#CFAE58"/>
    <circle cx="1065" cy="115" r="5" fill="#CFAE58"/>
    <circle cx="1058" cy="130" r="4" fill="#CFAE58"/>
    <circle cx="150" cy="500" r="5" fill="#4FD1C5"/>
    <circle cx="165" cy="508" r="4" fill="#4FD1C5"/>
    <circle cx="140" cy="512" r="5" fill="#4FD1C5"/>
  </g>
</svg>