<svg width="1200" height="630" xmlns="http://www.w3.org/2000/svg">
  <defs>
    <linearGradient id="bgGradient" x1="0%" y1="0%" x2="100%" y2="100%">
      <stop offset="0%" style="stop-color:#0B0F14;stop-opacity:1" />
      <stop offset="50%" style="stop-color:#0F1619;stop-opacity:1" />
      <stop offset="100%" style="stop-color:#0F1922;stop-opacity:1" />
    </linearGradient>
    <linearGradient id="goldGradient" x1="0%" y1="0%" x2="100%" y2="0%">
      <stop offset="0%" style="stop-color:#E5D596;stop-opacity:1" />
      <stop offset="50%" style="stop-color:#CFAE58;stop-opacity:1" />
      <stop offset="100%" style="stop-color:#B89842;stop-opacity:1" />
    </linearGradient>
    <radialGradient id="oceanGradient" cx="50%" cy="50%" r="50%">
      <stop offset="0%" style="stop-color:#4FD1C5;stop-opacity:0.3" />
      <stop offset="100%" style="stop-color:#1E90A0;stop-opacity:0.05" />
    </radialGradient>
    <filter id="glow">
      <feGaussianBlur stdDeviation="5" result="coloredBlur"/>
      <feMerge>
        <feMergeNode in="coloredBlur"/>
        <feMergeNode in="SourceGraphic"/>
      </feMerge>
    </filter>
    <filter id="softGlow">
      <feGaussianBlur stdDeviation="8" result="coloredBlur"/>
      <feMerge>
        <feMergeNode in="coloredBlur"/>
        <feMergeNode in="SourceGraphic"/>
      </feMerge>
    </filter>
    <filter id="shadow">
      <feDropShadow dx="0" dy="4" stdDeviation="8" flood-color="#000000" flood-opacity="0.5"/>
    </filter>
  </defs>

  <!-- Background -->
  <rect width="1200" height="630" fill="url(#bgGradient)"/>

  <!-- Decorative ocean gradients -->
  <ellipse cx="1000" cy="150" rx="300" ry="200" fill="url(#oceanGradient)" opacity="0.4"/>
  <ellipse cx="200" cy="530" rx="250" ry="180" fill="url(#oceanGradient)" opacity="0.3"/>

  <!-- Wave patterns -->
  <path d="M 0 400 Q 300 350 600 400 T 1200 400 L 1200 630 L 0 630 Z" fill="#1E90A0" opacity="0.08"/>
  <path d="M 0 450 Q 250 420 500 450 T 1000 450 T 1200 450 L 1200 630 L 0 630 Z" fill="#4FD1C5" opacity="0.05"/>

  <!-- Caviar roe particles -->
  <circle cx="645.4148919562729" cy="560.9581401873282" r="5.989141741880605" fill="#CFAE58" opacity="0.1589707339256923"/>
  <circle cx="1046.2044623789673" cy="191.102143035213" r="5.3442436542796" fill="#CFAE58" opacity="0.1328055561748903"/>
  <circle cx="559.4332106442098" cy="485.5261551863614" r="4.8613114451031" fill="#CFAE58" opacity="0.10702163830990545"/>
  <circle cx="1134.4685995279071" cy="470.6886391740825" r="4.847120276547668" fill="#CFAE58" opacity="0.20180804687813275"/>
  <circle cx="572.2833226709639" cy="193.96206934256168" r="2.2822094686059073" fill="#CFAE58" opacity="0.1795640085183734"/>
  <circle cx="90.16607197496742" cy="274.02833335234226" r="4.489779418778854" fill="#CFAE58" opacity="0.19089517149594792"/>
  <circle cx="578.487324193281" cy="527.1260242556579" r="5.305785415306984" fill="#CFAE58" opacity="0.13541614221086465"/>
  <circle cx="964.9918747543825" cy="377.728928083916" r="4.526863554667245" fill="#CFAE58" opacity="0.12913147277074236"/>
  <circle cx="31.585218750446842" cy="105.35506764416905" r="4.536680963207295" fill="#CFAE58" opacity="0.10334726365726842"/>
  <circle cx="334.4685856470976" cy="46.55581199419273" r="3.5943075189826983" fill="#CFAE58" opacity="0.1795620790101132"/>
  <circle cx="199.452609177338" cy="157.72822904962845" r="5.594712996073498" fill="#CFAE58" opacity="0.16245151398834112"/>
  <circle cx="676.5741509247413" cy="527.2693907650699" r="4.741782623211707" fill="#CFAE58" opacity="0.19514808994868732"/>
  <circle cx="90.27716425301536" cy="436.34364021513176" r="2.781943112666744" fill="#CFAE58" opacity="0.13087908718477465"/>
  <circle cx="958.839910966559" cy="510.6367368675492" r="2.0973200905736524" fill="#CFAE58" opacity="0.21869883563962852"/>
  <circle cx="841.0878895334398" cy="455.46117362312447" r="2.141500002612031" fill="#CFAE58" opacity="0.1772559023298782"/>
  <circle cx="526.9623726998946" cy="37.200575094055445" r="3.3088327286910704" fill="#CFAE58" opacity="0.14525551920882473"/>
  <circle cx="413.8015188578856" cy="504.30434649897177" r="3.6778664584927196" fill="#CFAE58" opacity="0.1492369881509068"/>
  <circle cx="122.89883791710241" cy="54.63542182371825" r="4.723277394301298" fill="#CFAE58" opacity="0.12881120806490173"/>
  <circle cx="505.9216912247962" cy="344.1435604706146" r="5.32805023487197" fill="#CFAE58" opacity="0.149627483701944"/>
  <circle cx="471.76736271545263" cy="108.00616011643498" r="4.3867058008347035" fill="#CFAE58" opacity="0.12459833510143789"/>
  <circle cx="329.74204520495385" cy="23.222349045901264" r="2.8952996553509913" fill="#CFAE58" opacity="0.15019220226962662"/>
  <circle cx="1191.2413463555542" cy="204.17564916629482" r="4.360171906384576" fill="#CFAE58" opacity="0.19406738393755657"/>
  <circle cx="305.83254772620637" cy="436.794575311654" r="4.5384642224924185" fill="#CFAE58" opacity="0.20143067972246287"/>
  <circle cx="429.9621579211156" cy="165.81660715427788" r="4.709481100905771" fill="#CFAE58" opacity="0.13395706731755136"/>
  <circle cx="550.0965920364304" cy="253.3181340671632" r="4.933595494287648" fill="#CFAE58" opacity="0.2458130386163333"/>
  <circle cx="450.0302034092407" cy="51.08717498443757" r="4.588025006246954" fill="#CFAE58" opacity="0.11342575528232796"/>
  <circle cx="656.7904826271205" cy="516.4624685008957" r="3.3256006410099466" fill="#CFAE58" opacity="0.12933302607965033"/>
  <circle cx="1149.2066256426133" cy="494.32242504765316" r="5.023030751481998" fill="#CFAE58" opacity="0.1837228213856037"/>
  <circle cx="75.66481218280762" cy="18.80344599192434" r="2.208338310630281" fill="#CFAE58" opacity="0.2172514932404496"/>
  <circle cx="521.2050913795091" cy="523.3172517259502" r="3.073983190890706" fill="#CFAE58" opacity="0.17895220080225424"/>

  <!-- Border with glow -->
  <rect x="40" y="40" width="1120" height="550" fill="none" stroke="url(#goldGradient)" stroke-width="3" rx="12" filter="url(#softGlow)"/>

  <!-- Icon circle with premium background -->
  <circle cx="150" cy="200" r="75" fill="#CFAE58" opacity="0.15" filter="url(#softGlow)"/>
  <circle cx="150" cy="200" r="70" fill="#CFAE58" opacity="0.25"/>
  <text x="150" y="235" font-size="90" text-anchor="middle" fill="#CFAE58" filter="url(#glow)">📈</text>

  <!-- Premium logo (crown) with enhanced styling -->
  <g transform="translate(100, 70)">
    <path d="M 30 20 L 40 35 L 35 35 Z M 50 15 L 60 35 L 45 35 Z M 65 20 L 75 35 L 70 35 Z M 30 35 L 75 35 L 73 45 L 32 45 Z"
          fill="url(#goldGradient)" filter="url(#glow)" stroke="#B89842" stroke-width="0.5"/>
    <circle cx="40" cy="25" r="3" fill="#4FD1C5" filter="url(#glow)"/>
    <circle cx="52" cy="20" r="4" fill="#4FD1C5" filter="url(#glow)"/>
    <circle cx="65" cy="25" r="3" fill="#4FD1C5" filter="url(#glow)"/>
  </g>

  <!-- Title with shadow -->
  <text x="280" y="180" font-family="Georgia, serif" font-size="72" font-weight="bold"
        fill="url(#goldGradient)" filter="url(#shadow)">Investment Opportunities</text>

  <!-- Subtitle with subtle glow -->
  <text x="280" y="230" font-family="Arial, sans-serif" font-size="36"
        fill="#D6DEE6" opacity="0.95" filter="url(#softGlow)">Models A/B/C/D Returns</text>

  <!-- Brand name with letter spacing -->
  <text x="280" y="300" font-family="Georgia, serif" font-size="32" font-weight="bold"
        fill="#CFAE58" letter-spacing="4" filter="url(#glow)">ROYAL KETA</text>

  <!-- Russian tagline -->
  <text x="280" y="340" font-family="Arial, sans-serif" font-size="22" font-style="italic"
        fill="#8B95A1" opacity="0.8">От икринки к королевской</text>

  <!-- Location -->
  <text x="280" y="380" font-family="Arial, sans-serif" font-size="20"
        fill="#8B95A1" opacity="0.7">Невельский район, Сахалин</text>

  <!-- Website with glow -->
  <text x="100" y="570" font-family="Arial, sans-serif" font-size="30" font-weight="bold"
        fill="#4FD1C5" filter="url(#glow)">royalketa.com</text>

  <!-- Enhanced decorative salmon silhouette -->
  <g transform="translate(950, 480)" opacity="0.2" filter="url(#softGlow)">
    <ellipse cx="0" cy="0" rx="90" ry="35" fill="#CFAE58"/>
    <path d="M 90 0 L 120 -18 L 130 0 L 120 18 Z" fill="#CFAE58"/>
    <path d="M -25 -35 L 0 -45 L 25 -35 Z" fill="#CFAE58"/>
    <ellipse cx="-50" cy="0" rx="15" ry="12" fill="#0B0F14"/>
  </g>

  <!-- Additional decorative caviar clusters -->
  <g opacity="0.2">
    <circle cx="1050" cy="120" r="6" fill="#CFAE58"/>
    <circle cx="1065" cy="115" r="5" fill="#CFAE58"/>
    <circle cx="1058" cy="130" r="4" fill="#CFAE58"/>
    <circle cx="150" cy="500" r="5" fill="#4FD1C5"/>
    <circle cx="165" cy="508" r="4" fill="#4FD1C5"/>
    <circle cx="140" cy="512" r="5" fill="#4FD1C5"/>
  </g>
</svg>