<svg width="1200" height="630" xmlns="http://www.w3.org/2000/svg">
  <defs>
    <linearGradient id="bgGradient" x1="0%" y1="0%" x2="100%" y2="100%">
      <stop offset="0%" style="stop-color:#0B0F14;stop-opacity:1" />
      <stop offset="50%" style="stop-color:#0F1619;stop-opacity:1" />
      <stop offset="100%" style="stop-color:#0F1922;stop-opacity:1" />
    </linearGradient>
    <linearGradient id="goldGradient" x1="0%" y1="0%" x2="100%" y2="0%">
      <stop offset="0%" style="stop-color:#E5D596;stop-opacity:1" />
      <stop offset="50%" style="stop-color:#CFAE58;stop-opacity:1" />
      <stop offset="100%" style="stop-color:#B89842;stop-opacity:1" />
    </linearGradient>
    <radialGradient id="oceanGradient" cx="50%" cy="50%" r="50%">
      <stop offset="0%" style="stop-color:#4FD1C5;stop-opacity:0.3" />
      <stop offset="100%" style="stop-color:#1E90A0;stop-opacity:0.05" />
    </radialGradient>
    <filter id="glow">
      <feGaussianBlur stdDeviation="5" result="coloredBlur"/>
      <feMerge>
        <feMergeNode in="coloredBlur"/>
        <feMergeNode in="SourceGraphic"/>
      </feMerge>
    </filter>
    <filter id="softGlow">
      <feGaussianBlur stdDeviation="8" result="coloredBlur"/>
      <feMerge>
        <feMergeNode in="coloredBlur"/>
        <feMergeNode in="SourceGraphic"/>
      </feMerge>
    </filter>
    <filter id="shadow">
      <feDropShadow dx="0" dy="4" stdDeviation="8" flood-color="#000000" flood-opacity="0.5"/>
    </filter>
  </defs>

  <!-- Background -->
  <rect width="1200" height="630" fill="url(#bgGradient)"/>

  <!-- Decorative ocean gradients -->
  <ellipse cx="1000" cy="150" rx="300" ry="200" fill="url(#oceanGradient)" opacity="0.4"/>
  <ellipse cx="200" cy="530" rx="250" ry="180" fill="url(#oceanGradient)" opacity="0.3"/>

  <!-- Wave patterns -->
  <path d="M 0 400 Q 300 350 600 400 T 1200 400 L 1200 630 L 0 630 Z" fill="#1E90A0" opacity="0.08"/>
  <path d="M 0 450 Q 250 420 500 450 T 1000 450 T 1200 450 L 1200 630 L 0 630 Z" fill="#4FD1C5" opacity="0.05"/>

  <!-- Caviar roe particles -->
  <circle cx="807.211508189238" cy="432.8461394846734" r="4.7232082739898695" fill="#CFAE58" opacity="0.22029739261342124"/>
  <circle cx="80.19925771903527" cy="31.95567411188954" r="5.898285814752298" fill="#CFAE58" opacity="0.11792209002366283"/>
  <circle cx="444.0952383000643" cy="276.49995079163614" r="5.38384960305426" fill="#CFAE58" opacity="0.22063854447271153"/>
  <circle cx="631.4463010662325" cy="244.34426411532513" r="3.1754549420853886" fill="#CFAE58" opacity="0.15128345191223558"/>
  <circle cx="104.64163437372322" cy="419.89955776256664" r="2.0951160097382875" fill="#CFAE58" opacity="0.1612979310683316"/>
  <circle cx="790.3848801302231" cy="243.41851960575187" r="4.563252177962999" fill="#CFAE58" opacity="0.2453527017696836"/>
  <circle cx="1097.998911585938" cy="40.25226546201934" r="5.579976617300655" fill="#CFAE58" opacity="0.22641828897328176"/>
  <circle cx="218.36687715344078" cy="75.90588567652311" r="2.967095400507838" fill="#CFAE58" opacity="0.17760786986756083"/>
  <circle cx="349.36060834046964" cy="616.9864625392692" r="5.935476921378696" fill="#CFAE58" opacity="0.1914224615392106"/>
  <circle cx="874.9367044280846" cy="201.54629510917223" r="2.8759307028781578" fill="#CFAE58" opacity="0.10816509826259676"/>
  <circle cx="528.9432435568165" cy="493.735477554863" r="3.6726702814559724" fill="#CFAE58" opacity="0.18400126413495954"/>
  <circle cx="547.7698180117853" cy="118.20158848852932" r="2.544397544197298" fill="#CFAE58" opacity="0.16238965638919195"/>
  <circle cx="592.7121468981917" cy="109.55957522293396" r="4.327733885589421" fill="#CFAE58" opacity="0.23864169117595177"/>
  <circle cx="5.905648218343718" cy="46.93490231719698" r="4.432195443616001" fill="#CFAE58" opacity="0.12594244440479144"/>
  <circle cx="108.09425760583231" cy="256.5456241840355" r="2.8473044802240945" fill="#CFAE58" opacity="0.18278180048293385"/>
  <circle cx="300.38952570934623" cy="82.08752046542747" r="5.442502850897141" fill="#CFAE58" opacity="0.23751412199774813"/>
  <circle cx="406.49376530510193" cy="91.54507243962145" r="5.677268789823729" fill="#CFAE58" opacity="0.14310042615267732"/>
  <circle cx="876.75248637541" cy="296.20685359276666" r="3.752819872412031" fill="#CFAE58" opacity="0.1889774851266055"/>
  <circle cx="122.52502320892917" cy="136.8921814675321" r="5.196195544772237" fill="#CFAE58" opacity="0.13641051834357676"/>
  <circle cx="151.90212584435034" cy="86.71479478795409" r="2.9980274374012197" fill="#CFAE58" opacity="0.21766156844138373"/>
  <circle cx="841.9649030393732" cy="130.31570625366908" r="4.852250668930645" fill="#CFAE58" opacity="0.13721181885263067"/>
  <circle cx="1130.8299736398685" cy="128.59269471955164" r="4.510548304433185" fill="#CFAE58" opacity="0.12896668874994022"/>
  <circle cx="1149.5998470033353" cy="375.50147870788726" r="2.123818118637198" fill="#CFAE58" opacity="0.23862105821676832"/>
  <circle cx="503.4524203036314" cy="403.1524621143302" r="5.638109744319123" fill="#CFAE58" opacity="0.2060841022547304"/>
  <circle cx="422.4931208035219" cy="136.80187774055173" r="5.249697987544237" fill="#CFAE58" opacity="0.20316523819826168"/>
  <circle cx="361.0616968517525" cy="238.2130585281036" r="3.3391563752545412" fill="#CFAE58" opacity="0.10251509294820843"/>
  <circle cx="139.27578420283115" cy="355.95503306420875" r="5.38507382146257" fill="#CFAE58" opacity="0.23246405120528754"/>
  <circle cx="619.1489331250569" cy="385.42758664050604" r="4.736440046998311" fill="#CFAE58" opacity="0.19546070517960276"/>
  <circle cx="112.80227928559717" cy="341.7904971084991" r="2.085334106378986" fill="#CFAE58" opacity="0.18353384144268203"/>
  <circle cx="1196.5831454681568" cy="415.4203276975932" r="3.5331903501994146" fill="#CFAE58" opacity="0.21067775121397175"/>

  <!-- Border with glow -->
  <rect x="40" y="40" width="1120" height="550" fill="none" stroke="url(#goldGradient)" stroke-width="3" rx="12" filter="url(#softGlow)"/>

  <!-- Icon circle with premium background -->
  <circle cx="150" cy="200" r="75" fill="#CFAE58" opacity="0.15" filter="url(#softGlow)"/>
  <circle cx="150" cy="200" r="70" fill="#CFAE58" opacity="0.25"/>
  <text x="150" y="235" font-size="90" text-anchor="middle" fill="#CFAE58" filter="url(#glow)">📈</text>

  <!-- Premium logo (crown) with enhanced styling -->
  <g transform="translate(100, 70)">
    <path d="M 30 20 L 40 35 L 35 35 Z M 50 15 L 60 35 L 45 35 Z M 65 20 L 75 35 L 70 35 Z M 30 35 L 75 35 L 73 45 L 32 45 Z"
          fill="url(#goldGradient)" filter="url(#glow)" stroke="#B89842" stroke-width="0.5"/>
    <circle cx="40" cy="25" r="3" fill="#4FD1C5" filter="url(#glow)"/>
    <circle cx="52" cy="20" r="4" fill="#4FD1C5" filter="url(#glow)"/>
    <circle cx="65" cy="25" r="3" fill="#4FD1C5" filter="url(#glow)"/>
  </g>

  <!-- Title with shadow -->
  <text x="280" y="180" font-family="Georgia, serif" font-size="72" font-weight="bold"
        fill="url(#goldGradient)" filter="url(#shadow)">Investment Opportunities</text>

  <!-- Subtitle with subtle glow -->
  <text x="280" y="230" font-family="Arial, sans-serif" font-size="36"
        fill="#D6DEE6" opacity="0.95" filter="url(#softGlow)">Models A/B/C/D Returns</text>

  <!-- Brand name with letter spacing -->
  <text x="280" y="300" font-family="Georgia, serif" font-size="32" font-weight="bold"
        fill="#CFAE58" letter-spacing="4" filter="url(#glow)">ROYAL KETA</text>

  <!-- Russian tagline -->
  <text x="280" y="340" font-family="Arial, sans-serif" font-size="22" font-style="italic"
        fill="#8B95A1" opacity="0.8">От икринки к королевской</text>

  <!-- Location -->
  <text x="280" y="380" font-family="Arial, sans-serif" font-size="20"
        fill="#8B95A1" opacity="0.7">Невельский район, Сахалин</text>

  <!-- Website with glow -->
  <text x="100" y="570" font-family="Arial, sans-serif" font-size="30" font-weight="bold"
        fill="#4FD1C5" filter="url(#glow)">royalketa.com</text>

  <!-- Enhanced decorative salmon silhouette -->
  <g transform="translate(950, 480)" opacity="0.2" filter="url(#softGlow)">
    <ellipse cx="0" cy="0" rx="90" ry="35" fill="#CFAE58"/>
    <path d="M 90 0 L 120 -18 L 130 0 L 120 18 Z" fill="#CFAE58"/>
    <path d="M -25 -35 L 0 -45 L 25 -35 Z" fill="#CFAE58"/>
    <ellipse cx="-50" cy="0" rx="15" ry="12" fill="#0B0F14"/>
  </g>

  <!-- Additional decorative caviar clusters -->
  <g opacity="0.2">
    <circle cx="1050" cy="120" r="6" fill="#CFAE58"/>
    <circle cx="1065" cy="115" r="5" fill="#CFAE58"/>
    <circle cx="1058" cy="130" r="4" fill="#CFAE58"/>
    <circle cx="150" cy="500" r="5" fill="#4FD1C5"/>
    <circle cx="165" cy="508" r="4" fill="#4FD1C5"/>
    <circle cx="140" cy="512" r="5" fill="#4FD1C5"/>
  </g>
</svg>