<svg width="1200" height="630" xmlns="http://www.w3.org/2000/svg">
  <defs>
    <linearGradient id="bgGradient" x1="0%" y1="0%" x2="100%" y2="100%">
      <stop offset="0%" style="stop-color:#0B0F14;stop-opacity:1" />
      <stop offset="50%" style="stop-color:#0F1619;stop-opacity:1" />
      <stop offset="100%" style="stop-color:#0F1922;stop-opacity:1" />
    </linearGradient>
    <linearGradient id="goldGradient" x1="0%" y1="0%" x2="100%" y2="0%">
      <stop offset="0%" style="stop-color:#E5D596;stop-opacity:1" />
      <stop offset="50%" style="stop-color:#CFAE58;stop-opacity:1" />
      <stop offset="100%" style="stop-color:#B89842;stop-opacity:1" />
    </linearGradient>
    <radialGradient id="oceanGradient" cx="50%" cy="50%" r="50%">
      <stop offset="0%" style="stop-color:#4FD1C5;stop-opacity:0.3" />
      <stop offset="100%" style="stop-color:#1E90A0;stop-opacity:0.05" />
    </radialGradient>
    <filter id="glow">
      <feGaussianBlur stdDeviation="5" result="coloredBlur"/>
      <feMerge>
        <feMergeNode in="coloredBlur"/>
        <feMergeNode in="SourceGraphic"/>
      </feMerge>
    </filter>
    <filter id="softGlow">
      <feGaussianBlur stdDeviation="8" result="coloredBlur"/>
      <feMerge>
        <feMergeNode in="coloredBlur"/>
        <feMergeNode in="SourceGraphic"/>
      </feMerge>
    </filter>
    <filter id="shadow">
      <feDropShadow dx="0" dy="4" stdDeviation="8" flood-color="#000000" flood-opacity="0.5"/>
    </filter>
  </defs>

  <!-- Background -->
  <rect width="1200" height="630" fill="url(#bgGradient)"/>

  <!-- Decorative ocean gradients -->
  <ellipse cx="1000" cy="150" rx="300" ry="200" fill="url(#oceanGradient)" opacity="0.4"/>
  <ellipse cx="200" cy="530" rx="250" ry="180" fill="url(#oceanGradient)" opacity="0.3"/>

  <!-- Wave patterns -->
  <path d="M 0 400 Q 300 350 600 400 T 1200 400 L 1200 630 L 0 630 Z" fill="#1E90A0" opacity="0.08"/>
  <path d="M 0 450 Q 250 420 500 450 T 1000 450 T 1200 450 L 1200 630 L 0 630 Z" fill="#4FD1C5" opacity="0.05"/>

  <!-- Caviar roe particles -->
  <circle cx="859.9895012695" cy="495.800280723703" r="2.617302584468547" fill="#CFAE58" opacity="0.10275434103818265"/>
  <circle cx="7.746238960561858" cy="276.6891526115998" r="2.7774673701169608" fill="#CFAE58" opacity="0.246338815458044"/>
  <circle cx="172.75613668199466" cy="65.8678378837472" r="2.365673142471082" fill="#CFAE58" opacity="0.1776953077809389"/>
  <circle cx="133.87735752974237" cy="374.31334020161216" r="2.7527974633918033" fill="#CFAE58" opacity="0.1901845788023782"/>
  <circle cx="931.4734604821842" cy="294.7246897169548" r="2.7734205723674323" fill="#CFAE58" opacity="0.17502696113984606"/>
  <circle cx="581.9819644061641" cy="450.710871774918" r="2.259920052489038" fill="#CFAE58" opacity="0.20574003001271146"/>
  <circle cx="247.1602770116272" cy="202.7580152129246" r="4.023138477721153" fill="#CFAE58" opacity="0.1100901620086897"/>
  <circle cx="131.70555328492898" cy="601.1750058879187" r="3.4971664985674114" fill="#CFAE58" opacity="0.215640320170328"/>
  <circle cx="934.5586871330954" cy="453.1037989188071" r="4.97843349328855" fill="#CFAE58" opacity="0.18673254678913476"/>
  <circle cx="129.9110687417879" cy="308.23609803453314" r="2.3617293570432594" fill="#CFAE58" opacity="0.24958394615741686"/>
  <circle cx="145.94363680514695" cy="387.18290545970586" r="2.5096724683577714" fill="#CFAE58" opacity="0.17436735204867107"/>
  <circle cx="902.837365270257" cy="215.25339287102125" r="5.104877146623996" fill="#CFAE58" opacity="0.16752067601717227"/>
  <circle cx="1055.6129452146229" cy="551.1630549283863" r="5.039173119277126" fill="#CFAE58" opacity="0.13113154454657844"/>
  <circle cx="845.068397320855" cy="540.9787217707056" r="5.3395541796994825" fill="#CFAE58" opacity="0.1546844004116505"/>
  <circle cx="845.3228813067124" cy="169.05649870336723" r="4.134840712464657" fill="#CFAE58" opacity="0.23180958346248542"/>
  <circle cx="882.0482010929004" cy="394.9873019544726" r="3.0990993287162096" fill="#CFAE58" opacity="0.1298407881681004"/>
  <circle cx="1118.244781833742" cy="348.34967752005724" r="4.233229126658839" fill="#CFAE58" opacity="0.1663255830985037"/>
  <circle cx="696.2188366891845" cy="258.8552482155909" r="5.508555943415593" fill="#CFAE58" opacity="0.20189401164691761"/>
  <circle cx="254.8937531422447" cy="275.245657131267" r="3.039388230517372" fill="#CFAE58" opacity="0.15038920291481073"/>
  <circle cx="578.3712991126807" cy="84.95416757705219" r="2.0450164583020447" fill="#CFAE58" opacity="0.21974920492387034"/>
  <circle cx="1154.886849711145" cy="61.08192395576475" r="3.221763909817928" fill="#CFAE58" opacity="0.22902096883516035"/>
  <circle cx="265.6190395327046" cy="261.5740110249471" r="3.625039687151437" fill="#CFAE58" opacity="0.18044240849643878"/>
  <circle cx="651.7852900197271" cy="394.9180316034817" r="2.562093750667545" fill="#CFAE58" opacity="0.13569765831964403"/>
  <circle cx="484.9550443021891" cy="490.1795477465223" r="4.7036128293090025" fill="#CFAE58" opacity="0.14482683213407802"/>
  <circle cx="458.5070594788495" cy="272.95414141540994" r="5.3470687140718605" fill="#CFAE58" opacity="0.24891514081814864"/>
  <circle cx="1065.0612535801365" cy="126.37360023498175" r="4.3703214076789285" fill="#CFAE58" opacity="0.15654278578629824"/>
  <circle cx="95.42668662473845" cy="295.76957340772907" r="4.186687900732812" fill="#CFAE58" opacity="0.20344087951869616"/>
  <circle cx="83.56049060930557" cy="467.37460739935256" r="3.4718255736763046" fill="#CFAE58" opacity="0.23231576695362946"/>
  <circle cx="76.6778020484148" cy="497.51989921819927" r="4.016530684193144" fill="#CFAE58" opacity="0.1553828790991375"/>
  <circle cx="30.6546947025109" cy="513.2337076594587" r="5.026372476881469" fill="#CFAE58" opacity="0.1310680653122935"/>

  <!-- Border with glow -->
  <rect x="40" y="40" width="1120" height="550" fill="none" stroke="url(#goldGradient)" stroke-width="3" rx="12" filter="url(#softGlow)"/>

  <!-- Icon circle with premium background -->
  <circle cx="150" cy="200" r="75" fill="#CFAE58" opacity="0.15" filter="url(#softGlow)"/>
  <circle cx="150" cy="200" r="70" fill="#CFAE58" opacity="0.25"/>
  <text x="150" y="235" font-size="90" text-anchor="middle" fill="#CFAE58" filter="url(#glow)">📈</text>

  <!-- Premium logo (crown) with enhanced styling -->
  <g transform="translate(100, 70)">
    <path d="M 30 20 L 40 35 L 35 35 Z M 50 15 L 60 35 L 45 35 Z M 65 20 L 75 35 L 70 35 Z M 30 35 L 75 35 L 73 45 L 32 45 Z"
          fill="url(#goldGradient)" filter="url(#glow)" stroke="#B89842" stroke-width="0.5"/>
    <circle cx="40" cy="25" r="3" fill="#4FD1C5" filter="url(#glow)"/>
    <circle cx="52" cy="20" r="4" fill="#4FD1C5" filter="url(#glow)"/>
    <circle cx="65" cy="25" r="3" fill="#4FD1C5" filter="url(#glow)"/>
  </g>

  <!-- Title with shadow -->
  <text x="280" y="180" font-family="Georgia, serif" font-size="72" font-weight="bold"
        fill="url(#goldGradient)" filter="url(#shadow)">Investment Opportunities</text>

  <!-- Subtitle with subtle glow -->
  <text x="280" y="230" font-family="Arial, sans-serif" font-size="36"
        fill="#D6DEE6" opacity="0.95" filter="url(#softGlow)">Models A/B/C/D Returns</text>

  <!-- Brand name with letter spacing -->
  <text x="280" y="300" font-family="Georgia, serif" font-size="32" font-weight="bold"
        fill="#CFAE58" letter-spacing="4" filter="url(#glow)">ROYAL KETA</text>

  <!-- Russian tagline -->
  <text x="280" y="340" font-family="Arial, sans-serif" font-size="22" font-style="italic"
        fill="#8B95A1" opacity="0.8">От икринки к королевской</text>

  <!-- Location -->
  <text x="280" y="380" font-family="Arial, sans-serif" font-size="20"
        fill="#8B95A1" opacity="0.7">Невельский район, Сахалин</text>

  <!-- Website with glow -->
  <text x="100" y="570" font-family="Arial, sans-serif" font-size="30" font-weight="bold"
        fill="#4FD1C5" filter="url(#glow)">royalketa.com</text>

  <!-- Enhanced decorative salmon silhouette -->
  <g transform="translate(950, 480)" opacity="0.2" filter="url(#softGlow)">
    <ellipse cx="0" cy="0" rx="90" ry="35" fill="#CFAE58"/>
    <path d="M 90 0 L 120 -18 L 130 0 L 120 18 Z" fill="#CFAE58"/>
    <path d="M -25 -35 L 0 -45 L 25 -35 Z" fill="#CFAE58"/>
    <ellipse cx="-50" cy="0" rx="15" ry="12" fill="#0B0F14"/>
  </g>

  <!-- Additional decorative caviar clusters -->
  <g opacity="0.2">
    <circle cx="1050" cy="120" r="6" fill="#CFAE58"/>
    <circle cx="1065" cy="115" r="5" fill="#CFAE58"/>
    <circle cx="1058" cy="130" r="4" fill="#CFAE58"/>
    <circle cx="150" cy="500" r="5" fill="#4FD1C5"/>
    <circle cx="165" cy="508" r="4" fill="#4FD1C5"/>
    <circle cx="140" cy="512" r="5" fill="#4FD1C5"/>
  </g>
</svg>