<svg width="1200" height="630" xmlns="http://www.w3.org/2000/svg">
  <defs>
    <linearGradient id="bgGradient" x1="0%" y1="0%" x2="100%" y2="100%">
      <stop offset="0%" style="stop-color:#0B0F14;stop-opacity:1" />
      <stop offset="50%" style="stop-color:#0F1619;stop-opacity:1" />
      <stop offset="100%" style="stop-color:#0F1922;stop-opacity:1" />
    </linearGradient>
    <linearGradient id="goldGradient" x1="0%" y1="0%" x2="100%" y2="0%">
      <stop offset="0%" style="stop-color:#E5D596;stop-opacity:1" />
      <stop offset="50%" style="stop-color:#CFAE58;stop-opacity:1" />
      <stop offset="100%" style="stop-color:#B89842;stop-opacity:1" />
    </linearGradient>
    <radialGradient id="oceanGradient" cx="50%" cy="50%" r="50%">
      <stop offset="0%" style="stop-color:#4FD1C5;stop-opacity:0.3" />
      <stop offset="100%" style="stop-color:#1E90A0;stop-opacity:0.05" />
    </radialGradient>
    <filter id="glow">
      <feGaussianBlur stdDeviation="5" result="coloredBlur"/>
      <feMerge>
        <feMergeNode in="coloredBlur"/>
        <feMergeNode in="SourceGraphic"/>
      </feMerge>
    </filter>
    <filter id="softGlow">
      <feGaussianBlur stdDeviation="8" result="coloredBlur"/>
      <feMerge>
        <feMergeNode in="coloredBlur"/>
        <feMergeNode in="SourceGraphic"/>
      </feMerge>
    </filter>
    <filter id="shadow">
      <feDropShadow dx="0" dy="4" stdDeviation="8" flood-color="#000000" flood-opacity="0.5"/>
    </filter>
  </defs>

  <!-- Background -->
  <rect width="1200" height="630" fill="url(#bgGradient)"/>

  <!-- Decorative ocean gradients -->
  <ellipse cx="1000" cy="150" rx="300" ry="200" fill="url(#oceanGradient)" opacity="0.4"/>
  <ellipse cx="200" cy="530" rx="250" ry="180" fill="url(#oceanGradient)" opacity="0.3"/>

  <!-- Wave patterns -->
  <path d="M 0 400 Q 300 350 600 400 T 1200 400 L 1200 630 L 0 630 Z" fill="#1E90A0" opacity="0.08"/>
  <path d="M 0 450 Q 250 420 500 450 T 1000 450 T 1200 450 L 1200 630 L 0 630 Z" fill="#4FD1C5" opacity="0.05"/>

  <!-- Caviar roe particles -->
  <circle cx="876.6224707351573" cy="325.8362798305575" r="4.213419770449407" fill="#CFAE58" opacity="0.12837371632719466"/>
  <circle cx="376.35983390088194" cy="233.4416598094036" r="3.9767925442600953" fill="#CFAE58" opacity="0.11147787336780096"/>
  <circle cx="146.23696030314113" cy="284.3177763189679" r="2.2835161660272725" fill="#CFAE58" opacity="0.1616134709123828"/>
  <circle cx="572.9106909948835" cy="180.9547856983159" r="4.8586728671439925" fill="#CFAE58" opacity="0.21520846308614702"/>
  <circle cx="1064.2413951751735" cy="291.0320188255225" r="2.001343528486929" fill="#CFAE58" opacity="0.16846522706666744"/>
  <circle cx="726.810112463146" cy="289.1391731032035" r="2.9551977279031236" fill="#CFAE58" opacity="0.208666353381264"/>
  <circle cx="1166.5066461393512" cy="47.2167090213056" r="3.2002061142499345" fill="#CFAE58" opacity="0.19447340956640669"/>
  <circle cx="126.49011112598174" cy="250.82140168511611" r="5.493117154756092" fill="#CFAE58" opacity="0.18217232010894646"/>
  <circle cx="672.4801441653993" cy="318.89998992534714" r="2.7304626113924106" fill="#CFAE58" opacity="0.15868261682684978"/>
  <circle cx="96.81764146937626" cy="513.1439678432645" r="2.0119875760832517" fill="#CFAE58" opacity="0.22985401846474746"/>
  <circle cx="499.66817633811934" cy="320.86276667371703" r="2.394258472621707" fill="#CFAE58" opacity="0.19876348142250422"/>
  <circle cx="191.74326881050874" cy="376.23219971314376" r="2.9159558016787113" fill="#CFAE58" opacity="0.24285821293196863"/>
  <circle cx="45.35833652624852" cy="275.74670561189953" r="2.6295644378658087" fill="#CFAE58" opacity="0.1217479137720638"/>
  <circle cx="171.7153306852878" cy="118.75632083695493" r="2.683033107478087" fill="#CFAE58" opacity="0.1738150071854418"/>
  <circle cx="172.49714573868636" cy="10.803579054480394" r="2.8849854917277247" fill="#CFAE58" opacity="0.16052884502928214"/>
  <circle cx="764.4455892837859" cy="565.8107570331769" r="3.669568620886327" fill="#CFAE58" opacity="0.221782039169094"/>
  <circle cx="1177.0406295118403" cy="381.53691322287915" r="4.2634319976185155" fill="#CFAE58" opacity="0.13464373692118742"/>
  <circle cx="418.1799814797463" cy="290.2663384441285" r="5.783607421236639" fill="#CFAE58" opacity="0.1826289184495902"/>
  <circle cx="14.889118852393679" cy="192.82624049202337" r="5.005419517278676" fill="#CFAE58" opacity="0.21458088105268144"/>
  <circle cx="976.6248931467712" cy="329.16800848669783" r="5.767179318705222" fill="#CFAE58" opacity="0.22071637028347615"/>
  <circle cx="534.9675610130114" cy="387.0552804656751" r="5.360289678743448" fill="#CFAE58" opacity="0.13594995972768065"/>
  <circle cx="380.58825474034944" cy="38.19968532626948" r="2.6826278958801026" fill="#CFAE58" opacity="0.24380756290810723"/>
  <circle cx="1164.079735353502" cy="390.1634041639816" r="3.6275415699144054" fill="#CFAE58" opacity="0.17887950131492109"/>
  <circle cx="153.37168763880493" cy="21.784319952871044" r="3.6993886318587235" fill="#CFAE58" opacity="0.22341188275230123"/>
  <circle cx="1093.5010388011078" cy="201.5887224601212" r="5.684888518361239" fill="#CFAE58" opacity="0.1104403317857533"/>
  <circle cx="43.80153903354991" cy="180.93412988899556" r="4.366179391179701" fill="#CFAE58" opacity="0.18777609992449357"/>
  <circle cx="904.2387140578892" cy="84.08579622122762" r="5.099577971875939" fill="#CFAE58" opacity="0.16254730029922976"/>
  <circle cx="413.272612983509" cy="230.89354322594122" r="2.3229327524466035" fill="#CFAE58" opacity="0.1642675544721684"/>
  <circle cx="534.5789971159793" cy="531.7878641420032" r="4.764032890975914" fill="#CFAE58" opacity="0.17868605135395746"/>
  <circle cx="812.2167504851318" cy="206.66185828138185" r="3.4225862728495073" fill="#CFAE58" opacity="0.13610280529289198"/>

  <!-- Border with glow -->
  <rect x="40" y="40" width="1120" height="550" fill="none" stroke="url(#goldGradient)" stroke-width="3" rx="12" filter="url(#softGlow)"/>

  <!-- Icon circle with premium background -->
  <circle cx="150" cy="200" r="75" fill="#CFAE58" opacity="0.15" filter="url(#softGlow)"/>
  <circle cx="150" cy="200" r="70" fill="#CFAE58" opacity="0.25"/>
  <text x="150" y="235" font-size="90" text-anchor="middle" fill="#CFAE58" filter="url(#glow)">📈</text>

  <!-- Premium logo (crown) with enhanced styling -->
  <g transform="translate(100, 70)">
    <path d="M 30 20 L 40 35 L 35 35 Z M 50 15 L 60 35 L 45 35 Z M 65 20 L 75 35 L 70 35 Z M 30 35 L 75 35 L 73 45 L 32 45 Z"
          fill="url(#goldGradient)" filter="url(#glow)" stroke="#B89842" stroke-width="0.5"/>
    <circle cx="40" cy="25" r="3" fill="#4FD1C5" filter="url(#glow)"/>
    <circle cx="52" cy="20" r="4" fill="#4FD1C5" filter="url(#glow)"/>
    <circle cx="65" cy="25" r="3" fill="#4FD1C5" filter="url(#glow)"/>
  </g>

  <!-- Title with shadow -->
  <text x="280" y="180" font-family="Georgia, serif" font-size="72" font-weight="bold"
        fill="url(#goldGradient)" filter="url(#shadow)">Investment Opportunities</text>

  <!-- Subtitle with subtle glow -->
  <text x="280" y="230" font-family="Arial, sans-serif" font-size="36"
        fill="#D6DEE6" opacity="0.95" filter="url(#softGlow)">Models A/B/C/D Returns</text>

  <!-- Brand name with letter spacing -->
  <text x="280" y="300" font-family="Georgia, serif" font-size="32" font-weight="bold"
        fill="#CFAE58" letter-spacing="4" filter="url(#glow)">ROYAL KETA</text>

  <!-- Russian tagline -->
  <text x="280" y="340" font-family="Arial, sans-serif" font-size="22" font-style="italic"
        fill="#8B95A1" opacity="0.8">От икринки к королевской</text>

  <!-- Location -->
  <text x="280" y="380" font-family="Arial, sans-serif" font-size="20"
        fill="#8B95A1" opacity="0.7">Невельский район, Сахалин</text>

  <!-- Website with glow -->
  <text x="100" y="570" font-family="Arial, sans-serif" font-size="30" font-weight="bold"
        fill="#4FD1C5" filter="url(#glow)">royalketa.com</text>

  <!-- Enhanced decorative salmon silhouette -->
  <g transform="translate(950, 480)" opacity="0.2" filter="url(#softGlow)">
    <ellipse cx="0" cy="0" rx="90" ry="35" fill="#CFAE58"/>
    <path d="M 90 0 L 120 -18 L 130 0 L 120 18 Z" fill="#CFAE58"/>
    <path d="M -25 -35 L 0 -45 L 25 -35 Z" fill="#CFAE58"/>
    <ellipse cx="-50" cy="0" rx="15" ry="12" fill="#0B0F14"/>
  </g>

  <!-- Additional decorative caviar clusters -->
  <g opacity="0.2">
    <circle cx="1050" cy="120" r="6" fill="#CFAE58"/>
    <circle cx="1065" cy="115" r="5" fill="#CFAE58"/>
    <circle cx="1058" cy="130" r="4" fill="#CFAE58"/>
    <circle cx="150" cy="500" r="5" fill="#4FD1C5"/>
    <circle cx="165" cy="508" r="4" fill="#4FD1C5"/>
    <circle cx="140" cy="512" r="5" fill="#4FD1C5"/>
  </g>
</svg>