<svg width="1200" height="630" xmlns="http://www.w3.org/2000/svg">
  <defs>
    <linearGradient id="bgGradient" x1="0%" y1="0%" x2="100%" y2="100%">
      <stop offset="0%" style="stop-color:#0B0F14;stop-opacity:1" />
      <stop offset="50%" style="stop-color:#0F1619;stop-opacity:1" />
      <stop offset="100%" style="stop-color:#0F1922;stop-opacity:1" />
    </linearGradient>
    <linearGradient id="goldGradient" x1="0%" y1="0%" x2="100%" y2="0%">
      <stop offset="0%" style="stop-color:#E5D596;stop-opacity:1" />
      <stop offset="50%" style="stop-color:#CFAE58;stop-opacity:1" />
      <stop offset="100%" style="stop-color:#B89842;stop-opacity:1" />
    </linearGradient>
    <radialGradient id="oceanGradient" cx="50%" cy="50%" r="50%">
      <stop offset="0%" style="stop-color:#4FD1C5;stop-opacity:0.3" />
      <stop offset="100%" style="stop-color:#1E90A0;stop-opacity:0.05" />
    </radialGradient>
    <filter id="glow">
      <feGaussianBlur stdDeviation="5" result="coloredBlur"/>
      <feMerge>
        <feMergeNode in="coloredBlur"/>
        <feMergeNode in="SourceGraphic"/>
      </feMerge>
    </filter>
    <filter id="softGlow">
      <feGaussianBlur stdDeviation="8" result="coloredBlur"/>
      <feMerge>
        <feMergeNode in="coloredBlur"/>
        <feMergeNode in="SourceGraphic"/>
      </feMerge>
    </filter>
    <filter id="shadow">
      <feDropShadow dx="0" dy="4" stdDeviation="8" flood-color="#000000" flood-opacity="0.5"/>
    </filter>
  </defs>

  <!-- Background -->
  <rect width="1200" height="630" fill="url(#bgGradient)"/>

  <!-- Decorative ocean gradients -->
  <ellipse cx="1000" cy="150" rx="300" ry="200" fill="url(#oceanGradient)" opacity="0.4"/>
  <ellipse cx="200" cy="530" rx="250" ry="180" fill="url(#oceanGradient)" opacity="0.3"/>

  <!-- Wave patterns -->
  <path d="M 0 400 Q 300 350 600 400 T 1200 400 L 1200 630 L 0 630 Z" fill="#1E90A0" opacity="0.08"/>
  <path d="M 0 450 Q 250 420 500 450 T 1000 450 T 1200 450 L 1200 630 L 0 630 Z" fill="#4FD1C5" opacity="0.05"/>

  <!-- Caviar roe particles -->
  <circle cx="791.1975417325184" cy="78.4925554167418" r="5.144165273919841" fill="#CFAE58" opacity="0.18626403104736566"/>
  <circle cx="576.2200539543278" cy="595.7772956282394" r="3.6513604546568086" fill="#CFAE58" opacity="0.12670279821621977"/>
  <circle cx="295.61454980237966" cy="340.90973307086443" r="3.215885147964822" fill="#CFAE58" opacity="0.10321903988886195"/>
  <circle cx="844.8562126093677" cy="588.6807909581506" r="4.972057769538571" fill="#CFAE58" opacity="0.10086523260521234"/>
  <circle cx="54.71087074169212" cy="173.9131567727871" r="2.0446797904787095" fill="#CFAE58" opacity="0.20905572164858033"/>
  <circle cx="22.939644095506928" cy="276.618132407896" r="5.4985335681432135" fill="#CFAE58" opacity="0.2396308527655347"/>
  <circle cx="679.4169373944766" cy="148.58452851039812" r="3.410630209067574" fill="#CFAE58" opacity="0.23184064974632795"/>
  <circle cx="439.89928734474137" cy="608.4431620593025" r="5.929091605501489" fill="#CFAE58" opacity="0.15638680023415602"/>
  <circle cx="541.2481600839113" cy="163.6846172274636" r="5.025253266864688" fill="#CFAE58" opacity="0.15165456872526512"/>
  <circle cx="802.520827859436" cy="261.59001079718513" r="5.290466345724548" fill="#CFAE58" opacity="0.22877363062798203"/>
  <circle cx="31.222924573146216" cy="569.6182779050185" r="3.9712746738721734" fill="#CFAE58" opacity="0.10724480000861066"/>
  <circle cx="9.595504665353882" cy="12.66765811328192" r="3.957018602799552" fill="#CFAE58" opacity="0.1075129292520452"/>
  <circle cx="1073.7432835562552" cy="447.1919044899461" r="3.738436817928447" fill="#CFAE58" opacity="0.1113466344070327"/>
  <circle cx="77.29002333388637" cy="46.07033530442486" r="3.286654145674425" fill="#CFAE58" opacity="0.19811277218908413"/>
  <circle cx="884.302609533949" cy="85.21974103500902" r="4.7160106670699955" fill="#CFAE58" opacity="0.2469338141645509"/>
  <circle cx="365.4108674567087" cy="277.6456739787724" r="5.3235449373211985" fill="#CFAE58" opacity="0.19068398913156429"/>
  <circle cx="454.6956804249553" cy="269.21983250332113" r="5.466689023625718" fill="#CFAE58" opacity="0.2378815536328755"/>
  <circle cx="624.2979099774205" cy="440.5290562003707" r="3.017551167310473" fill="#CFAE58" opacity="0.1376747851948371"/>
  <circle cx="274.5270586172858" cy="261.15175142862824" r="2.090271631791172" fill="#CFAE58" opacity="0.1507057349185605"/>
  <circle cx="759.1837332010061" cy="524.1491314611909" r="5.050962787671678" fill="#CFAE58" opacity="0.16882729624300552"/>
  <circle cx="763.5101911592174" cy="343.873159508771" r="5.290847293621195" fill="#CFAE58" opacity="0.15309799339527846"/>
  <circle cx="494.69989028272715" cy="78.52012643112388" r="5.54542712222154" fill="#CFAE58" opacity="0.1983795527532054"/>
  <circle cx="16.47581228105297" cy="230.0020495603576" r="5.901066138168953" fill="#CFAE58" opacity="0.11789417376331343"/>
  <circle cx="777.0305530516665" cy="357.1001582356709" r="3.6943413478969136" fill="#CFAE58" opacity="0.23107319121604494"/>
  <circle cx="630.5602679433508" cy="167.81601633239177" r="2.7721867335367163" fill="#CFAE58" opacity="0.19337718929369402"/>
  <circle cx="947.3157965669465" cy="487.0647699892546" r="2.620651797011659" fill="#CFAE58" opacity="0.21229249299258185"/>
  <circle cx="697.5209784581251" cy="579.0277532122949" r="2.577819040966654" fill="#CFAE58" opacity="0.17816009448205938"/>
  <circle cx="737.9356724860943" cy="556.1124676565935" r="3.377440044097673" fill="#CFAE58" opacity="0.18240999952987788"/>
  <circle cx="184.41795622918244" cy="447.7957801666969" r="5.344637998723845" fill="#CFAE58" opacity="0.20373149795497575"/>
  <circle cx="733.5815881227641" cy="142.586129965567" r="3.7026809630272766" fill="#CFAE58" opacity="0.24341363248813974"/>

  <!-- Border with glow -->
  <rect x="40" y="40" width="1120" height="550" fill="none" stroke="url(#goldGradient)" stroke-width="3" rx="12" filter="url(#softGlow)"/>

  <!-- Icon circle with premium background -->
  <circle cx="150" cy="200" r="75" fill="#CFAE58" opacity="0.15" filter="url(#softGlow)"/>
  <circle cx="150" cy="200" r="70" fill="#CFAE58" opacity="0.25"/>
  <text x="150" y="235" font-size="90" text-anchor="middle" fill="#CFAE58" filter="url(#glow)">📈</text>

  <!-- Premium logo (crown) with enhanced styling -->
  <g transform="translate(100, 70)">
    <path d="M 30 20 L 40 35 L 35 35 Z M 50 15 L 60 35 L 45 35 Z M 65 20 L 75 35 L 70 35 Z M 30 35 L 75 35 L 73 45 L 32 45 Z"
          fill="url(#goldGradient)" filter="url(#glow)" stroke="#B89842" stroke-width="0.5"/>
    <circle cx="40" cy="25" r="3" fill="#4FD1C5" filter="url(#glow)"/>
    <circle cx="52" cy="20" r="4" fill="#4FD1C5" filter="url(#glow)"/>
    <circle cx="65" cy="25" r="3" fill="#4FD1C5" filter="url(#glow)"/>
  </g>

  <!-- Title with shadow -->
  <text x="280" y="180" font-family="Georgia, serif" font-size="72" font-weight="bold"
        fill="url(#goldGradient)" filter="url(#shadow)">Investment Opportunities</text>

  <!-- Subtitle with subtle glow -->
  <text x="280" y="230" font-family="Arial, sans-serif" font-size="36"
        fill="#D6DEE6" opacity="0.95" filter="url(#softGlow)">Models A/B/C/D Returns</text>

  <!-- Brand name with letter spacing -->
  <text x="280" y="300" font-family="Georgia, serif" font-size="32" font-weight="bold"
        fill="#CFAE58" letter-spacing="4" filter="url(#glow)">ROYAL KETA</text>

  <!-- Russian tagline -->
  <text x="280" y="340" font-family="Arial, sans-serif" font-size="22" font-style="italic"
        fill="#8B95A1" opacity="0.8">От икринки к королевской</text>

  <!-- Location -->
  <text x="280" y="380" font-family="Arial, sans-serif" font-size="20"
        fill="#8B95A1" opacity="0.7">Невельский район, Сахалин</text>

  <!-- Website with glow -->
  <text x="100" y="570" font-family="Arial, sans-serif" font-size="30" font-weight="bold"
        fill="#4FD1C5" filter="url(#glow)">royalketa.com</text>

  <!-- Enhanced decorative salmon silhouette -->
  <g transform="translate(950, 480)" opacity="0.2" filter="url(#softGlow)">
    <ellipse cx="0" cy="0" rx="90" ry="35" fill="#CFAE58"/>
    <path d="M 90 0 L 120 -18 L 130 0 L 120 18 Z" fill="#CFAE58"/>
    <path d="M -25 -35 L 0 -45 L 25 -35 Z" fill="#CFAE58"/>
    <ellipse cx="-50" cy="0" rx="15" ry="12" fill="#0B0F14"/>
  </g>

  <!-- Additional decorative caviar clusters -->
  <g opacity="0.2">
    <circle cx="1050" cy="120" r="6" fill="#CFAE58"/>
    <circle cx="1065" cy="115" r="5" fill="#CFAE58"/>
    <circle cx="1058" cy="130" r="4" fill="#CFAE58"/>
    <circle cx="150" cy="500" r="5" fill="#4FD1C5"/>
    <circle cx="165" cy="508" r="4" fill="#4FD1C5"/>
    <circle cx="140" cy="512" r="5" fill="#4FD1C5"/>
  </g>
</svg>