<svg width="1200" height="630" xmlns="http://www.w3.org/2000/svg">
  <defs>
    <linearGradient id="bgGradient" x1="0%" y1="0%" x2="100%" y2="100%">
      <stop offset="0%" style="stop-color:#0B0F14;stop-opacity:1" />
      <stop offset="50%" style="stop-color:#0F1619;stop-opacity:1" />
      <stop offset="100%" style="stop-color:#0F1922;stop-opacity:1" />
    </linearGradient>
    <linearGradient id="goldGradient" x1="0%" y1="0%" x2="100%" y2="0%">
      <stop offset="0%" style="stop-color:#E5D596;stop-opacity:1" />
      <stop offset="50%" style="stop-color:#CFAE58;stop-opacity:1" />
      <stop offset="100%" style="stop-color:#B89842;stop-opacity:1" />
    </linearGradient>
    <radialGradient id="oceanGradient" cx="50%" cy="50%" r="50%">
      <stop offset="0%" style="stop-color:#4FD1C5;stop-opacity:0.3" />
      <stop offset="100%" style="stop-color:#1E90A0;stop-opacity:0.05" />
    </radialGradient>
    <filter id="glow">
      <feGaussianBlur stdDeviation="5" result="coloredBlur"/>
      <feMerge>
        <feMergeNode in="coloredBlur"/>
        <feMergeNode in="SourceGraphic"/>
      </feMerge>
    </filter>
    <filter id="softGlow">
      <feGaussianBlur stdDeviation="8" result="coloredBlur"/>
      <feMerge>
        <feMergeNode in="coloredBlur"/>
        <feMergeNode in="SourceGraphic"/>
      </feMerge>
    </filter>
    <filter id="shadow">
      <feDropShadow dx="0" dy="4" stdDeviation="8" flood-color="#000000" flood-opacity="0.5"/>
    </filter>
  </defs>

  <!-- Background -->
  <rect width="1200" height="630" fill="url(#bgGradient)"/>

  <!-- Decorative ocean gradients -->
  <ellipse cx="1000" cy="150" rx="300" ry="200" fill="url(#oceanGradient)" opacity="0.4"/>
  <ellipse cx="200" cy="530" rx="250" ry="180" fill="url(#oceanGradient)" opacity="0.3"/>

  <!-- Wave patterns -->
  <path d="M 0 400 Q 300 350 600 400 T 1200 400 L 1200 630 L 0 630 Z" fill="#1E90A0" opacity="0.08"/>
  <path d="M 0 450 Q 250 420 500 450 T 1000 450 T 1200 450 L 1200 630 L 0 630 Z" fill="#4FD1C5" opacity="0.05"/>

  <!-- Caviar roe particles -->
  <circle cx="1094.4263381759513" cy="301.8108021302627" r="2.5669172845204757" fill="#CFAE58" opacity="0.11056317032250523"/>
  <circle cx="715.8680939886909" cy="345.93002379946506" r="2.724110235355825" fill="#CFAE58" opacity="0.22813832409187626"/>
  <circle cx="41.01090226994204" cy="519.8685411123712" r="2.0282220138341165" fill="#CFAE58" opacity="0.19254699901318195"/>
  <circle cx="1130.193103750592" cy="607.3474489824465" r="5.623473108214397" fill="#CFAE58" opacity="0.1826094379988391"/>
  <circle cx="1072.6981489754646" cy="64.07971273446243" r="2.0290842037832535" fill="#CFAE58" opacity="0.18235652311872652"/>
  <circle cx="545.9745845778825" cy="38.31523523812327" r="4.146391843845607" fill="#CFAE58" opacity="0.24268839582504814"/>
  <circle cx="530.2758760660789" cy="609.1116557483906" r="4.824165437576708" fill="#CFAE58" opacity="0.12340573180500905"/>
  <circle cx="760.9939372627881" cy="329.6547747739036" r="3.173536503157984" fill="#CFAE58" opacity="0.17544997284451164"/>
  <circle cx="767.1883755268256" cy="275.74799656705176" r="2.8225154411194238" fill="#CFAE58" opacity="0.14813445964065874"/>
  <circle cx="12.080153116828019" cy="288.67162983993217" r="3.316280908674207" fill="#CFAE58" opacity="0.19325389403455645"/>
  <circle cx="296.51212041608915" cy="352.1777590358983" r="3.3195876557050052" fill="#CFAE58" opacity="0.24545378335678383"/>
  <circle cx="314.01542650845283" cy="260.2167153914003" r="2.6549205829680247" fill="#CFAE58" opacity="0.10760303079266836"/>
  <circle cx="681.560712564642" cy="443.86059674904095" r="5.884720261484068" fill="#CFAE58" opacity="0.22613829268512742"/>
  <circle cx="1067.8058334165664" cy="525.1433105477442" r="5.1355404816929635" fill="#CFAE58" opacity="0.20014945951792262"/>
  <circle cx="77.27758115015719" cy="125.83785043887177" r="4.313625677112873" fill="#CFAE58" opacity="0.1365427303194447"/>
  <circle cx="317.3699732766746" cy="564.4365031459691" r="4.094464363333768" fill="#CFAE58" opacity="0.11007349097955849"/>
  <circle cx="874.4583862188396" cy="127.72396265701386" r="2.603553145740265" fill="#CFAE58" opacity="0.16304289988377385"/>
  <circle cx="176.04795585932553" cy="45.19594634400096" r="2.7902236082594394" fill="#CFAE58" opacity="0.11862669431266748"/>
  <circle cx="215.50998722785417" cy="331.44390398010586" r="4.692874444761142" fill="#CFAE58" opacity="0.14411326137485958"/>
  <circle cx="802.6700445510112" cy="616.2821285999061" r="2.5583975071523026" fill="#CFAE58" opacity="0.13407707018563492"/>
  <circle cx="439.0693569083516" cy="569.3977996254457" r="4.982553489671169" fill="#CFAE58" opacity="0.18473337505454568"/>
  <circle cx="152.32473202126977" cy="455.590895894197" r="5.025062249545107" fill="#CFAE58" opacity="0.23992659904474095"/>
  <circle cx="649.856707805548" cy="32.67729745107626" r="2.21839072205914" fill="#CFAE58" opacity="0.17831890320576266"/>
  <circle cx="373.7006350857677" cy="585.4693446552691" r="4.2487879650639835" fill="#CFAE58" opacity="0.13996833233918565"/>
  <circle cx="506.56175714105603" cy="11.188947337724699" r="3.9494057080723204" fill="#CFAE58" opacity="0.10237421069329322"/>
  <circle cx="140.53622179184632" cy="118.01664387204777" r="3.5719076815705364" fill="#CFAE58" opacity="0.23954320512400015"/>
  <circle cx="881.2218464517191" cy="573.6062997130201" r="2.5253269438777775" fill="#CFAE58" opacity="0.12643536740836875"/>
  <circle cx="702.7754687351004" cy="534.1879392704817" r="3.8026076548285275" fill="#CFAE58" opacity="0.21167693879672633"/>
  <circle cx="755.1494729868942" cy="529.8552684997762" r="4.143744944394588" fill="#CFAE58" opacity="0.2304503888502784"/>
  <circle cx="487.6244900326992" cy="151.8767144984222" r="5.594468451528281" fill="#CFAE58" opacity="0.16221106100587362"/>

  <!-- Border with glow -->
  <rect x="40" y="40" width="1120" height="550" fill="none" stroke="url(#goldGradient)" stroke-width="3" rx="12" filter="url(#softGlow)"/>

  <!-- Icon circle with premium background -->
  <circle cx="150" cy="200" r="75" fill="#CFAE58" opacity="0.15" filter="url(#softGlow)"/>
  <circle cx="150" cy="200" r="70" fill="#CFAE58" opacity="0.25"/>
  <text x="150" y="235" font-size="90" text-anchor="middle" fill="#CFAE58" filter="url(#glow)">📈</text>

  <!-- Premium logo (crown) with enhanced styling -->
  <g transform="translate(100, 70)">
    <path d="M 30 20 L 40 35 L 35 35 Z M 50 15 L 60 35 L 45 35 Z M 65 20 L 75 35 L 70 35 Z M 30 35 L 75 35 L 73 45 L 32 45 Z"
          fill="url(#goldGradient)" filter="url(#glow)" stroke="#B89842" stroke-width="0.5"/>
    <circle cx="40" cy="25" r="3" fill="#4FD1C5" filter="url(#glow)"/>
    <circle cx="52" cy="20" r="4" fill="#4FD1C5" filter="url(#glow)"/>
    <circle cx="65" cy="25" r="3" fill="#4FD1C5" filter="url(#glow)"/>
  </g>

  <!-- Title with shadow -->
  <text x="280" y="180" font-family="Georgia, serif" font-size="72" font-weight="bold"
        fill="url(#goldGradient)" filter="url(#shadow)">Investment Opportunities</text>

  <!-- Subtitle with subtle glow -->
  <text x="280" y="230" font-family="Arial, sans-serif" font-size="36"
        fill="#D6DEE6" opacity="0.95" filter="url(#softGlow)">Models A/B/C/D Returns</text>

  <!-- Brand name with letter spacing -->
  <text x="280" y="300" font-family="Georgia, serif" font-size="32" font-weight="bold"
        fill="#CFAE58" letter-spacing="4" filter="url(#glow)">ROYAL KETA</text>

  <!-- Russian tagline -->
  <text x="280" y="340" font-family="Arial, sans-serif" font-size="22" font-style="italic"
        fill="#8B95A1" opacity="0.8">От икринки к королевской</text>

  <!-- Location -->
  <text x="280" y="380" font-family="Arial, sans-serif" font-size="20"
        fill="#8B95A1" opacity="0.7">Невельский район, Сахалин</text>

  <!-- Website with glow -->
  <text x="100" y="570" font-family="Arial, sans-serif" font-size="30" font-weight="bold"
        fill="#4FD1C5" filter="url(#glow)">royalketa.com</text>

  <!-- Enhanced decorative salmon silhouette -->
  <g transform="translate(950, 480)" opacity="0.2" filter="url(#softGlow)">
    <ellipse cx="0" cy="0" rx="90" ry="35" fill="#CFAE58"/>
    <path d="M 90 0 L 120 -18 L 130 0 L 120 18 Z" fill="#CFAE58"/>
    <path d="M -25 -35 L 0 -45 L 25 -35 Z" fill="#CFAE58"/>
    <ellipse cx="-50" cy="0" rx="15" ry="12" fill="#0B0F14"/>
  </g>

  <!-- Additional decorative caviar clusters -->
  <g opacity="0.2">
    <circle cx="1050" cy="120" r="6" fill="#CFAE58"/>
    <circle cx="1065" cy="115" r="5" fill="#CFAE58"/>
    <circle cx="1058" cy="130" r="4" fill="#CFAE58"/>
    <circle cx="150" cy="500" r="5" fill="#4FD1C5"/>
    <circle cx="165" cy="508" r="4" fill="#4FD1C5"/>
    <circle cx="140" cy="512" r="5" fill="#4FD1C5"/>
  </g>
</svg>