<svg width="1200" height="630" xmlns="http://www.w3.org/2000/svg">
  <defs>
    <linearGradient id="bgGradient" x1="0%" y1="0%" x2="100%" y2="100%">
      <stop offset="0%" style="stop-color:#0B0F14;stop-opacity:1" />
      <stop offset="50%" style="stop-color:#0F1619;stop-opacity:1" />
      <stop offset="100%" style="stop-color:#0F1922;stop-opacity:1" />
    </linearGradient>
    <linearGradient id="goldGradient" x1="0%" y1="0%" x2="100%" y2="0%">
      <stop offset="0%" style="stop-color:#E5D596;stop-opacity:1" />
      <stop offset="50%" style="stop-color:#CFAE58;stop-opacity:1" />
      <stop offset="100%" style="stop-color:#B89842;stop-opacity:1" />
    </linearGradient>
    <radialGradient id="oceanGradient" cx="50%" cy="50%" r="50%">
      <stop offset="0%" style="stop-color:#4FD1C5;stop-opacity:0.3" />
      <stop offset="100%" style="stop-color:#1E90A0;stop-opacity:0.05" />
    </radialGradient>
    <filter id="glow">
      <feGaussianBlur stdDeviation="5" result="coloredBlur"/>
      <feMerge>
        <feMergeNode in="coloredBlur"/>
        <feMergeNode in="SourceGraphic"/>
      </feMerge>
    </filter>
    <filter id="softGlow">
      <feGaussianBlur stdDeviation="8" result="coloredBlur"/>
      <feMerge>
        <feMergeNode in="coloredBlur"/>
        <feMergeNode in="SourceGraphic"/>
      </feMerge>
    </filter>
    <filter id="shadow">
      <feDropShadow dx="0" dy="4" stdDeviation="8" flood-color="#000000" flood-opacity="0.5"/>
    </filter>
  </defs>

  <!-- Background -->
  <rect width="1200" height="630" fill="url(#bgGradient)"/>

  <!-- Decorative ocean gradients -->
  <ellipse cx="1000" cy="150" rx="300" ry="200" fill="url(#oceanGradient)" opacity="0.4"/>
  <ellipse cx="200" cy="530" rx="250" ry="180" fill="url(#oceanGradient)" opacity="0.3"/>

  <!-- Wave patterns -->
  <path d="M 0 400 Q 300 350 600 400 T 1200 400 L 1200 630 L 0 630 Z" fill="#1E90A0" opacity="0.08"/>
  <path d="M 0 450 Q 250 420 500 450 T 1000 450 T 1200 450 L 1200 630 L 0 630 Z" fill="#4FD1C5" opacity="0.05"/>

  <!-- Caviar roe particles -->
  <circle cx="590.1143517428242" cy="81.9393596631919" r="5.484766251710368" fill="#CFAE58" opacity="0.14083011866690998"/>
  <circle cx="1004.5894575694801" cy="122.71264424959317" r="2.7036451298788373" fill="#CFAE58" opacity="0.16930142193412548"/>
  <circle cx="607.1246416103004" cy="318.5439410348596" r="5.002998234272539" fill="#CFAE58" opacity="0.19704346467318906"/>
  <circle cx="372.3658801287133" cy="415.7600441838799" r="5.857006582147707" fill="#CFAE58" opacity="0.23495410777255646"/>
  <circle cx="223.5032911291567" cy="416.0254631721367" r="4.810289482535144" fill="#CFAE58" opacity="0.20531889787465551"/>
  <circle cx="765.2135808157002" cy="14.250732945482817" r="3.272553904953269" fill="#CFAE58" opacity="0.19310875160336932"/>
  <circle cx="370.73085336218037" cy="551.367924573331" r="2.8245833439228782" fill="#CFAE58" opacity="0.1868250772989012"/>
  <circle cx="1083.0684586795264" cy="396.54640398139566" r="2.5122415552008546" fill="#CFAE58" opacity="0.206643454165998"/>
  <circle cx="398.32376366688067" cy="418.6509331909636" r="3.856356874409805" fill="#CFAE58" opacity="0.24324695155916704"/>
  <circle cx="1132.7485727504786" cy="398.1483130236233" r="5.215505416769546" fill="#CFAE58" opacity="0.22678754993573358"/>
  <circle cx="679.2395382981998" cy="0.3744040435429552" r="4.909200748322623" fill="#CFAE58" opacity="0.17045758530700722"/>
  <circle cx="571.8563653215061" cy="623.1958463900959" r="5.324124009326466" fill="#CFAE58" opacity="0.20772582206494822"/>
  <circle cx="525.3738035099342" cy="254.3839150830647" r="5.728194225235517" fill="#CFAE58" opacity="0.12464345049515851"/>
  <circle cx="140.41197525891036" cy="436.3978280360823" r="3.0201854368990864" fill="#CFAE58" opacity="0.14957815961781495"/>
  <circle cx="740.9446543696913" cy="377.1412499215616" r="5.880625246188053" fill="#CFAE58" opacity="0.11018161963335342"/>
  <circle cx="551.1102121390711" cy="357.3842531274009" r="2.0951318195888966" fill="#CFAE58" opacity="0.24774568232486238"/>
  <circle cx="420.82666976373935" cy="26.990605697433228" r="2.3744841903003087" fill="#CFAE58" opacity="0.19716598490456377"/>
  <circle cx="157.24548007726077" cy="176.49286533776376" r="4.23787208091717" fill="#CFAE58" opacity="0.17691054277570184"/>
  <circle cx="542.4208401512228" cy="157.0789646788906" r="2.8100230688294126" fill="#CFAE58" opacity="0.17713066746702327"/>
  <circle cx="676.5352428790071" cy="163.70614057273727" r="3.9362257295085437" fill="#CFAE58" opacity="0.12889853177460106"/>
  <circle cx="627.6521887794974" cy="302.1277532652611" r="2.578357625995756" fill="#CFAE58" opacity="0.11919518404326924"/>
  <circle cx="11.467556487380559" cy="33.940418582106425" r="4.283623988958444" fill="#CFAE58" opacity="0.23050901749964176"/>
  <circle cx="802.738653042019" cy="93.21381415752433" r="3.837042799590499" fill="#CFAE58" opacity="0.1604701736422105"/>
  <circle cx="55.52274220143154" cy="274.9651560975162" r="2.150387492007802" fill="#CFAE58" opacity="0.16978768230715025"/>
  <circle cx="185.78289349295264" cy="467.86477481374635" r="4.954999991933505" fill="#CFAE58" opacity="0.20532737416833463"/>
  <circle cx="384.90763125353294" cy="325.6557059159933" r="3.939918835521272" fill="#CFAE58" opacity="0.24450783833122602"/>
  <circle cx="827.2183271096502" cy="219.2055688197113" r="2.6796687880128447" fill="#CFAE58" opacity="0.2401460220989311"/>
  <circle cx="1140.7519648139164" cy="263.4549300733394" r="2.338087346297063" fill="#CFAE58" opacity="0.1620688216245908"/>
  <circle cx="1037.0403715091836" cy="471.3641629164402" r="3.739571597201297" fill="#CFAE58" opacity="0.1370254445767134"/>
  <circle cx="1045.9857787501353" cy="620.9844064167638" r="2.192139713551767" fill="#CFAE58" opacity="0.17759277441980553"/>

  <!-- Border with glow -->
  <rect x="40" y="40" width="1120" height="550" fill="none" stroke="url(#goldGradient)" stroke-width="3" rx="12" filter="url(#softGlow)"/>

  <!-- Icon circle with premium background -->
  <circle cx="150" cy="200" r="75" fill="#CFAE58" opacity="0.15" filter="url(#softGlow)"/>
  <circle cx="150" cy="200" r="70" fill="#CFAE58" opacity="0.25"/>
  <text x="150" y="235" font-size="90" text-anchor="middle" fill="#CFAE58" filter="url(#glow)">📈</text>

  <!-- Premium logo (crown) with enhanced styling -->
  <g transform="translate(100, 70)">
    <path d="M 30 20 L 40 35 L 35 35 Z M 50 15 L 60 35 L 45 35 Z M 65 20 L 75 35 L 70 35 Z M 30 35 L 75 35 L 73 45 L 32 45 Z"
          fill="url(#goldGradient)" filter="url(#glow)" stroke="#B89842" stroke-width="0.5"/>
    <circle cx="40" cy="25" r="3" fill="#4FD1C5" filter="url(#glow)"/>
    <circle cx="52" cy="20" r="4" fill="#4FD1C5" filter="url(#glow)"/>
    <circle cx="65" cy="25" r="3" fill="#4FD1C5" filter="url(#glow)"/>
  </g>

  <!-- Title with shadow -->
  <text x="280" y="180" font-family="Georgia, serif" font-size="72" font-weight="bold"
        fill="url(#goldGradient)" filter="url(#shadow)">Investment Opportunities</text>

  <!-- Subtitle with subtle glow -->
  <text x="280" y="230" font-family="Arial, sans-serif" font-size="36"
        fill="#D6DEE6" opacity="0.95" filter="url(#softGlow)">Models A/B/C/D Returns</text>

  <!-- Brand name with letter spacing -->
  <text x="280" y="300" font-family="Georgia, serif" font-size="32" font-weight="bold"
        fill="#CFAE58" letter-spacing="4" filter="url(#glow)">ROYAL KETA</text>

  <!-- Russian tagline -->
  <text x="280" y="340" font-family="Arial, sans-serif" font-size="22" font-style="italic"
        fill="#8B95A1" opacity="0.8">От икринки к королевской</text>

  <!-- Location -->
  <text x="280" y="380" font-family="Arial, sans-serif" font-size="20"
        fill="#8B95A1" opacity="0.7">Невельский район, Сахалин</text>

  <!-- Website with glow -->
  <text x="100" y="570" font-family="Arial, sans-serif" font-size="30" font-weight="bold"
        fill="#4FD1C5" filter="url(#glow)">royalketa.com</text>

  <!-- Enhanced decorative salmon silhouette -->
  <g transform="translate(950, 480)" opacity="0.2" filter="url(#softGlow)">
    <ellipse cx="0" cy="0" rx="90" ry="35" fill="#CFAE58"/>
    <path d="M 90 0 L 120 -18 L 130 0 L 120 18 Z" fill="#CFAE58"/>
    <path d="M -25 -35 L 0 -45 L 25 -35 Z" fill="#CFAE58"/>
    <ellipse cx="-50" cy="0" rx="15" ry="12" fill="#0B0F14"/>
  </g>

  <!-- Additional decorative caviar clusters -->
  <g opacity="0.2">
    <circle cx="1050" cy="120" r="6" fill="#CFAE58"/>
    <circle cx="1065" cy="115" r="5" fill="#CFAE58"/>
    <circle cx="1058" cy="130" r="4" fill="#CFAE58"/>
    <circle cx="150" cy="500" r="5" fill="#4FD1C5"/>
    <circle cx="165" cy="508" r="4" fill="#4FD1C5"/>
    <circle cx="140" cy="512" r="5" fill="#4FD1C5"/>
  </g>
</svg>