<svg width="1200" height="630" xmlns="http://www.w3.org/2000/svg">
  <defs>
    <linearGradient id="bgGradient" x1="0%" y1="0%" x2="100%" y2="100%">
      <stop offset="0%" style="stop-color:#0B0F14;stop-opacity:1" />
      <stop offset="50%" style="stop-color:#0F1619;stop-opacity:1" />
      <stop offset="100%" style="stop-color:#0F1922;stop-opacity:1" />
    </linearGradient>
    <linearGradient id="goldGradient" x1="0%" y1="0%" x2="100%" y2="0%">
      <stop offset="0%" style="stop-color:#E5D596;stop-opacity:1" />
      <stop offset="50%" style="stop-color:#CFAE58;stop-opacity:1" />
      <stop offset="100%" style="stop-color:#B89842;stop-opacity:1" />
    </linearGradient>
    <radialGradient id="oceanGradient" cx="50%" cy="50%" r="50%">
      <stop offset="0%" style="stop-color:#4FD1C5;stop-opacity:0.3" />
      <stop offset="100%" style="stop-color:#1E90A0;stop-opacity:0.05" />
    </radialGradient>
    <filter id="glow">
      <feGaussianBlur stdDeviation="5" result="coloredBlur"/>
      <feMerge>
        <feMergeNode in="coloredBlur"/>
        <feMergeNode in="SourceGraphic"/>
      </feMerge>
    </filter>
    <filter id="softGlow">
      <feGaussianBlur stdDeviation="8" result="coloredBlur"/>
      <feMerge>
        <feMergeNode in="coloredBlur"/>
        <feMergeNode in="SourceGraphic"/>
      </feMerge>
    </filter>
    <filter id="shadow">
      <feDropShadow dx="0" dy="4" stdDeviation="8" flood-color="#000000" flood-opacity="0.5"/>
    </filter>
  </defs>

  <!-- Background -->
  <rect width="1200" height="630" fill="url(#bgGradient)"/>

  <!-- Decorative ocean gradients -->
  <ellipse cx="1000" cy="150" rx="300" ry="200" fill="url(#oceanGradient)" opacity="0.4"/>
  <ellipse cx="200" cy="530" rx="250" ry="180" fill="url(#oceanGradient)" opacity="0.3"/>

  <!-- Wave patterns -->
  <path d="M 0 400 Q 300 350 600 400 T 1200 400 L 1200 630 L 0 630 Z" fill="#1E90A0" opacity="0.08"/>
  <path d="M 0 450 Q 250 420 500 450 T 1000 450 T 1200 450 L 1200 630 L 0 630 Z" fill="#4FD1C5" opacity="0.05"/>

  <!-- Caviar roe particles -->
  <circle cx="612.9020224049566" cy="15.770123828449329" r="4.395419176480103" fill="#CFAE58" opacity="0.19099109799757746"/>
  <circle cx="941.9776143170097" cy="209.13920973527934" r="4.938291609316075" fill="#CFAE58" opacity="0.24986694617180397"/>
  <circle cx="184.71198939674426" cy="46.99294106518769" r="3.330186071558945" fill="#CFAE58" opacity="0.23744426979713218"/>
  <circle cx="986.1610549434826" cy="198.31480823970685" r="2.65725262629258" fill="#CFAE58" opacity="0.17011287304413703"/>
  <circle cx="213.2044945449258" cy="332.12020776135006" r="3.3018512593040237" fill="#CFAE58" opacity="0.20199409991316108"/>
  <circle cx="469.7358512096632" cy="259.13328196215366" r="4.949079367827599" fill="#CFAE58" opacity="0.18559569622583802"/>
  <circle cx="421.86748497635824" cy="105.77884720261919" r="3.0360237086003607" fill="#CFAE58" opacity="0.23528389136838854"/>
  <circle cx="1148.578737119695" cy="574.8958917196304" r="4.866357169915103" fill="#CFAE58" opacity="0.14315610094747605"/>
  <circle cx="866.7080329541558" cy="328.7132564301183" r="5.29248997533748" fill="#CFAE58" opacity="0.20075927354835632"/>
  <circle cx="180.96490493058522" cy="246.2685805106223" r="4.553294602550407" fill="#CFAE58" opacity="0.21224661121946237"/>
  <circle cx="566.359575930906" cy="113.8191036506147" r="4.724103914146544" fill="#CFAE58" opacity="0.17328717687749273"/>
  <circle cx="603.3626071843833" cy="580.4326338015493" r="4.443010313832329" fill="#CFAE58" opacity="0.1012563728013903"/>
  <circle cx="476.5950656435829" cy="402.8361049767462" r="5.5740876842821505" fill="#CFAE58" opacity="0.2113677675683528"/>
  <circle cx="868.1373437622229" cy="145.81214172895358" r="2.032565356044686" fill="#CFAE58" opacity="0.1698658997946104"/>
  <circle cx="273.2102837684198" cy="274.64906167540755" r="3.7157484146041027" fill="#CFAE58" opacity="0.16223079695236658"/>
  <circle cx="435.84413845361445" cy="11.081067777751382" r="5.385218860327368" fill="#CFAE58" opacity="0.24560001746417623"/>
  <circle cx="557.2206024196449" cy="494.65859726644885" r="2.730886252772815" fill="#CFAE58" opacity="0.23634247887876506"/>
  <circle cx="153.3626892179365" cy="448.9147509494898" r="2.064770495463259" fill="#CFAE58" opacity="0.13531438508370058"/>
  <circle cx="965.4507578836607" cy="628.0813772432886" r="5.702137883998917" fill="#CFAE58" opacity="0.20264423617470906"/>
  <circle cx="79.7358975294201" cy="129.96860290298088" r="4.566547158297462" fill="#CFAE58" opacity="0.14010106023990315"/>
  <circle cx="701.7955483050652" cy="49.25237854596915" r="3.7510804862679477" fill="#CFAE58" opacity="0.24667298111033195"/>
  <circle cx="628.0720798732816" cy="156.28419494026855" r="2.3128708274658987" fill="#CFAE58" opacity="0.10812432437798768"/>
  <circle cx="366.49522927773984" cy="58.16002577417268" r="2.598932027535347" fill="#CFAE58" opacity="0.1746147329893477"/>
  <circle cx="590.4729572812303" cy="526.843387300851" r="2.241258450916331" fill="#CFAE58" opacity="0.10185351108424201"/>
  <circle cx="1038.253985443786" cy="210.3842115402354" r="5.703789899194336" fill="#CFAE58" opacity="0.1820114052506956"/>
  <circle cx="807.7259719424806" cy="81.974725365896" r="4.2851677525293645" fill="#CFAE58" opacity="0.2345683456388065"/>
  <circle cx="1139.321210741528" cy="395.8158050748061" r="2.0004874837982527" fill="#CFAE58" opacity="0.18713830479410637"/>
  <circle cx="45.33542828956625" cy="150.06871919907152" r="3.1881029481948007" fill="#CFAE58" opacity="0.20777499874439548"/>
  <circle cx="3.7410709067840386" cy="37.40453159470415" r="3.0119439647314117" fill="#CFAE58" opacity="0.13737315723338547"/>
  <circle cx="923.0266190423138" cy="556.7249324039325" r="3.0395266494565147" fill="#CFAE58" opacity="0.19000832241531365"/>

  <!-- Border with glow -->
  <rect x="40" y="40" width="1120" height="550" fill="none" stroke="url(#goldGradient)" stroke-width="3" rx="12" filter="url(#softGlow)"/>

  <!-- Icon circle with premium background -->
  <circle cx="150" cy="200" r="75" fill="#CFAE58" opacity="0.15" filter="url(#softGlow)"/>
  <circle cx="150" cy="200" r="70" fill="#CFAE58" opacity="0.25"/>
  <text x="150" y="235" font-size="90" text-anchor="middle" fill="#CFAE58" filter="url(#glow)">📈</text>

  <!-- Premium logo (crown) with enhanced styling -->
  <g transform="translate(100, 70)">
    <path d="M 30 20 L 40 35 L 35 35 Z M 50 15 L 60 35 L 45 35 Z M 65 20 L 75 35 L 70 35 Z M 30 35 L 75 35 L 73 45 L 32 45 Z"
          fill="url(#goldGradient)" filter="url(#glow)" stroke="#B89842" stroke-width="0.5"/>
    <circle cx="40" cy="25" r="3" fill="#4FD1C5" filter="url(#glow)"/>
    <circle cx="52" cy="20" r="4" fill="#4FD1C5" filter="url(#glow)"/>
    <circle cx="65" cy="25" r="3" fill="#4FD1C5" filter="url(#glow)"/>
  </g>

  <!-- Title with shadow -->
  <text x="280" y="180" font-family="Georgia, serif" font-size="72" font-weight="bold"
        fill="url(#goldGradient)" filter="url(#shadow)">Investment Opportunities</text>

  <!-- Subtitle with subtle glow -->
  <text x="280" y="230" font-family="Arial, sans-serif" font-size="36"
        fill="#D6DEE6" opacity="0.95" filter="url(#softGlow)">Models A/B/C/D Returns</text>

  <!-- Brand name with letter spacing -->
  <text x="280" y="300" font-family="Georgia, serif" font-size="32" font-weight="bold"
        fill="#CFAE58" letter-spacing="4" filter="url(#glow)">ROYAL KETA</text>

  <!-- Russian tagline -->
  <text x="280" y="340" font-family="Arial, sans-serif" font-size="22" font-style="italic"
        fill="#8B95A1" opacity="0.8">От икринки к королевской</text>

  <!-- Location -->
  <text x="280" y="380" font-family="Arial, sans-serif" font-size="20"
        fill="#8B95A1" opacity="0.7">Невельский район, Сахалин</text>

  <!-- Website with glow -->
  <text x="100" y="570" font-family="Arial, sans-serif" font-size="30" font-weight="bold"
        fill="#4FD1C5" filter="url(#glow)">royalketa.com</text>

  <!-- Enhanced decorative salmon silhouette -->
  <g transform="translate(950, 480)" opacity="0.2" filter="url(#softGlow)">
    <ellipse cx="0" cy="0" rx="90" ry="35" fill="#CFAE58"/>
    <path d="M 90 0 L 120 -18 L 130 0 L 120 18 Z" fill="#CFAE58"/>
    <path d="M -25 -35 L 0 -45 L 25 -35 Z" fill="#CFAE58"/>
    <ellipse cx="-50" cy="0" rx="15" ry="12" fill="#0B0F14"/>
  </g>

  <!-- Additional decorative caviar clusters -->
  <g opacity="0.2">
    <circle cx="1050" cy="120" r="6" fill="#CFAE58"/>
    <circle cx="1065" cy="115" r="5" fill="#CFAE58"/>
    <circle cx="1058" cy="130" r="4" fill="#CFAE58"/>
    <circle cx="150" cy="500" r="5" fill="#4FD1C5"/>
    <circle cx="165" cy="508" r="4" fill="#4FD1C5"/>
    <circle cx="140" cy="512" r="5" fill="#4FD1C5"/>
  </g>
</svg>