<svg width="1200" height="630" xmlns="http://www.w3.org/2000/svg">
  <defs>
    <linearGradient id="bgGradient" x1="0%" y1="0%" x2="100%" y2="100%">
      <stop offset="0%" style="stop-color:#0B0F14;stop-opacity:1" />
      <stop offset="50%" style="stop-color:#0F1619;stop-opacity:1" />
      <stop offset="100%" style="stop-color:#0F1922;stop-opacity:1" />
    </linearGradient>
    <linearGradient id="goldGradient" x1="0%" y1="0%" x2="100%" y2="0%">
      <stop offset="0%" style="stop-color:#E5D596;stop-opacity:1" />
      <stop offset="50%" style="stop-color:#CFAE58;stop-opacity:1" />
      <stop offset="100%" style="stop-color:#B89842;stop-opacity:1" />
    </linearGradient>
    <radialGradient id="oceanGradient" cx="50%" cy="50%" r="50%">
      <stop offset="0%" style="stop-color:#4FD1C5;stop-opacity:0.3" />
      <stop offset="100%" style="stop-color:#1E90A0;stop-opacity:0.05" />
    </radialGradient>
    <filter id="glow">
      <feGaussianBlur stdDeviation="5" result="coloredBlur"/>
      <feMerge>
        <feMergeNode in="coloredBlur"/>
        <feMergeNode in="SourceGraphic"/>
      </feMerge>
    </filter>
    <filter id="softGlow">
      <feGaussianBlur stdDeviation="8" result="coloredBlur"/>
      <feMerge>
        <feMergeNode in="coloredBlur"/>
        <feMergeNode in="SourceGraphic"/>
      </feMerge>
    </filter>
    <filter id="shadow">
      <feDropShadow dx="0" dy="4" stdDeviation="8" flood-color="#000000" flood-opacity="0.5"/>
    </filter>
  </defs>

  <!-- Background -->
  <rect width="1200" height="630" fill="url(#bgGradient)"/>

  <!-- Decorative ocean gradients -->
  <ellipse cx="1000" cy="150" rx="300" ry="200" fill="url(#oceanGradient)" opacity="0.4"/>
  <ellipse cx="200" cy="530" rx="250" ry="180" fill="url(#oceanGradient)" opacity="0.3"/>

  <!-- Wave patterns -->
  <path d="M 0 400 Q 300 350 600 400 T 1200 400 L 1200 630 L 0 630 Z" fill="#1E90A0" opacity="0.08"/>
  <path d="M 0 450 Q 250 420 500 450 T 1000 450 T 1200 450 L 1200 630 L 0 630 Z" fill="#4FD1C5" opacity="0.05"/>

  <!-- Caviar roe particles -->
  <circle cx="102.73131148018786" cy="522.067844641187" r="3.4957116217697903" fill="#CFAE58" opacity="0.12134687341401697"/>
  <circle cx="287.40982182097565" cy="303.0743803284306" r="5.341976440670472" fill="#CFAE58" opacity="0.18475596744494294"/>
  <circle cx="597.3809090654156" cy="174.81786079245683" r="5.261986689161598" fill="#CFAE58" opacity="0.16691980776182896"/>
  <circle cx="870.5241832585439" cy="525.8447795246353" r="5.517971301897295" fill="#CFAE58" opacity="0.1678172816904121"/>
  <circle cx="36.06528034356349" cy="364.9644269803909" r="5.7230570274036205" fill="#CFAE58" opacity="0.11671723247624483"/>
  <circle cx="61.01245867276366" cy="402.2430205775601" r="4.0682631324257805" fill="#CFAE58" opacity="0.21341212810753085"/>
  <circle cx="827.7121007081915" cy="500.94578256290845" r="2.1769706910147804" fill="#CFAE58" opacity="0.2165795509353543"/>
  <circle cx="39.90937759283653" cy="117.55586927126413" r="2.8880220047583367" fill="#CFAE58" opacity="0.18409378998314163"/>
  <circle cx="934.7064866314369" cy="550.9487461500511" r="3.7229215926750556" fill="#CFAE58" opacity="0.22664291999741498"/>
  <circle cx="893.578868047443" cy="168.62447187229918" r="3.019664159788366" fill="#CFAE58" opacity="0.2435778786056845"/>
  <circle cx="200.52775660115873" cy="177.38273426201962" r="5.3692949813668065" fill="#CFAE58" opacity="0.145628788863089"/>
  <circle cx="354.24511242848314" cy="509.66969317081004" r="3.9622979035929604" fill="#CFAE58" opacity="0.10784962325661766"/>
  <circle cx="960.6290437911032" cy="71.31205260145697" r="2.0324186422379116" fill="#CFAE58" opacity="0.2092698271795237"/>
  <circle cx="719.1068357011947" cy="607.7892907222543" r="3.958036934499268" fill="#CFAE58" opacity="0.1257247381127737"/>
  <circle cx="804.5441134377239" cy="446.15376002423864" r="5.56107043661982" fill="#CFAE58" opacity="0.21367721403705653"/>
  <circle cx="1033.7767109576923" cy="81.3901491773131" r="2.1098356146589112" fill="#CFAE58" opacity="0.14152147849897387"/>
  <circle cx="1173.516759748606" cy="625.8812838188687" r="5.343131456523975" fill="#CFAE58" opacity="0.10138827855501863"/>
  <circle cx="1034.0892854266672" cy="34.6859269150337" r="2.6948308925736066" fill="#CFAE58" opacity="0.11602164310528496"/>
  <circle cx="633.9123756127902" cy="607.5706377244663" r="2.1069428753601622" fill="#CFAE58" opacity="0.15440395489965883"/>
  <circle cx="357.98236189852344" cy="25.627839120992274" r="2.5151984222343287" fill="#CFAE58" opacity="0.2060820214175001"/>
  <circle cx="481.57352691980077" cy="236.05507676839892" r="4.695895950997493" fill="#CFAE58" opacity="0.13753117980226734"/>
  <circle cx="206.33221892663536" cy="271.5746826797155" r="2.6673991250016904" fill="#CFAE58" opacity="0.21383666144716673"/>
  <circle cx="752.9842304033566" cy="40.08985307610828" r="3.4682483321465116" fill="#CFAE58" opacity="0.23934763598417635"/>
  <circle cx="734.0476762941498" cy="292.81115996191244" r="3.675201180078502" fill="#CFAE58" opacity="0.22684707830391965"/>
  <circle cx="699.1111334742494" cy="400.38306908332174" r="2.513495965481018" fill="#CFAE58" opacity="0.20081687297519443"/>
  <circle cx="1038.138673641503" cy="214.8052780768902" r="2.5462983414166356" fill="#CFAE58" opacity="0.14828377048325286"/>
  <circle cx="45.00939457319948" cy="34.03528356992418" r="5.285219591224626" fill="#CFAE58" opacity="0.2327711207596087"/>
  <circle cx="540.9589669159659" cy="445.9327305014265" r="4.000293862710954" fill="#CFAE58" opacity="0.12179232351527144"/>
  <circle cx="834.4116340675902" cy="10.15674256677275" r="2.1729139037475242" fill="#CFAE58" opacity="0.18230246626406776"/>
  <circle cx="1037.6711872732074" cy="482.5220855762491" r="5.439552198030938" fill="#CFAE58" opacity="0.13671617181532775"/>

  <!-- Border with glow -->
  <rect x="40" y="40" width="1120" height="550" fill="none" stroke="url(#goldGradient)" stroke-width="3" rx="12" filter="url(#softGlow)"/>

  <!-- Icon circle with premium background -->
  <circle cx="150" cy="200" r="75" fill="#CFAE58" opacity="0.15" filter="url(#softGlow)"/>
  <circle cx="150" cy="200" r="70" fill="#CFAE58" opacity="0.25"/>
  <text x="150" y="235" font-size="90" text-anchor="middle" fill="#CFAE58" filter="url(#glow)">📈</text>

  <!-- Premium logo (crown) with enhanced styling -->
  <g transform="translate(100, 70)">
    <path d="M 30 20 L 40 35 L 35 35 Z M 50 15 L 60 35 L 45 35 Z M 65 20 L 75 35 L 70 35 Z M 30 35 L 75 35 L 73 45 L 32 45 Z"
          fill="url(#goldGradient)" filter="url(#glow)" stroke="#B89842" stroke-width="0.5"/>
    <circle cx="40" cy="25" r="3" fill="#4FD1C5" filter="url(#glow)"/>
    <circle cx="52" cy="20" r="4" fill="#4FD1C5" filter="url(#glow)"/>
    <circle cx="65" cy="25" r="3" fill="#4FD1C5" filter="url(#glow)"/>
  </g>

  <!-- Title with shadow -->
  <text x="280" y="180" font-family="Georgia, serif" font-size="72" font-weight="bold"
        fill="url(#goldGradient)" filter="url(#shadow)">Investment Opportunities</text>

  <!-- Subtitle with subtle glow -->
  <text x="280" y="230" font-family="Arial, sans-serif" font-size="36"
        fill="#D6DEE6" opacity="0.95" filter="url(#softGlow)">Models A/B/C/D Returns</text>

  <!-- Brand name with letter spacing -->
  <text x="280" y="300" font-family="Georgia, serif" font-size="32" font-weight="bold"
        fill="#CFAE58" letter-spacing="4" filter="url(#glow)">ROYAL KETA</text>

  <!-- Russian tagline -->
  <text x="280" y="340" font-family="Arial, sans-serif" font-size="22" font-style="italic"
        fill="#8B95A1" opacity="0.8">От икринки к королевской</text>

  <!-- Location -->
  <text x="280" y="380" font-family="Arial, sans-serif" font-size="20"
        fill="#8B95A1" opacity="0.7">Невельский район, Сахалин</text>

  <!-- Website with glow -->
  <text x="100" y="570" font-family="Arial, sans-serif" font-size="30" font-weight="bold"
        fill="#4FD1C5" filter="url(#glow)">royalketa.com</text>

  <!-- Enhanced decorative salmon silhouette -->
  <g transform="translate(950, 480)" opacity="0.2" filter="url(#softGlow)">
    <ellipse cx="0" cy="0" rx="90" ry="35" fill="#CFAE58"/>
    <path d="M 90 0 L 120 -18 L 130 0 L 120 18 Z" fill="#CFAE58"/>
    <path d="M -25 -35 L 0 -45 L 25 -35 Z" fill="#CFAE58"/>
    <ellipse cx="-50" cy="0" rx="15" ry="12" fill="#0B0F14"/>
  </g>

  <!-- Additional decorative caviar clusters -->
  <g opacity="0.2">
    <circle cx="1050" cy="120" r="6" fill="#CFAE58"/>
    <circle cx="1065" cy="115" r="5" fill="#CFAE58"/>
    <circle cx="1058" cy="130" r="4" fill="#CFAE58"/>
    <circle cx="150" cy="500" r="5" fill="#4FD1C5"/>
    <circle cx="165" cy="508" r="4" fill="#4FD1C5"/>
    <circle cx="140" cy="512" r="5" fill="#4FD1C5"/>
  </g>
</svg>