<svg width="1200" height="630" xmlns="http://www.w3.org/2000/svg">
  <defs>
    <linearGradient id="bgGradient" x1="0%" y1="0%" x2="100%" y2="100%">
      <stop offset="0%" style="stop-color:#0B0F14;stop-opacity:1" />
      <stop offset="50%" style="stop-color:#0F1619;stop-opacity:1" />
      <stop offset="100%" style="stop-color:#0F1922;stop-opacity:1" />
    </linearGradient>
    <linearGradient id="goldGradient" x1="0%" y1="0%" x2="100%" y2="0%">
      <stop offset="0%" style="stop-color:#E5D596;stop-opacity:1" />
      <stop offset="50%" style="stop-color:#CFAE58;stop-opacity:1" />
      <stop offset="100%" style="stop-color:#B89842;stop-opacity:1" />
    </linearGradient>
    <radialGradient id="oceanGradient" cx="50%" cy="50%" r="50%">
      <stop offset="0%" style="stop-color:#4FD1C5;stop-opacity:0.3" />
      <stop offset="100%" style="stop-color:#1E90A0;stop-opacity:0.05" />
    </radialGradient>
    <filter id="glow">
      <feGaussianBlur stdDeviation="5" result="coloredBlur"/>
      <feMerge>
        <feMergeNode in="coloredBlur"/>
        <feMergeNode in="SourceGraphic"/>
      </feMerge>
    </filter>
    <filter id="softGlow">
      <feGaussianBlur stdDeviation="8" result="coloredBlur"/>
      <feMerge>
        <feMergeNode in="coloredBlur"/>
        <feMergeNode in="SourceGraphic"/>
      </feMerge>
    </filter>
    <filter id="shadow">
      <feDropShadow dx="0" dy="4" stdDeviation="8" flood-color="#000000" flood-opacity="0.5"/>
    </filter>
  </defs>

  <!-- Background -->
  <rect width="1200" height="630" fill="url(#bgGradient)"/>

  <!-- Decorative ocean gradients -->
  <ellipse cx="1000" cy="150" rx="300" ry="200" fill="url(#oceanGradient)" opacity="0.4"/>
  <ellipse cx="200" cy="530" rx="250" ry="180" fill="url(#oceanGradient)" opacity="0.3"/>

  <!-- Wave patterns -->
  <path d="M 0 400 Q 300 350 600 400 T 1200 400 L 1200 630 L 0 630 Z" fill="#1E90A0" opacity="0.08"/>
  <path d="M 0 450 Q 250 420 500 450 T 1000 450 T 1200 450 L 1200 630 L 0 630 Z" fill="#4FD1C5" opacity="0.05"/>

  <!-- Caviar roe particles -->
  <circle cx="1112.1854545803985" cy="321.13481440668187" r="2.2807285763358824" fill="#CFAE58" opacity="0.15189537632481864"/>
  <circle cx="775.2611048643082" cy="477.7993556373068" r="5.667583253215048" fill="#CFAE58" opacity="0.17875826984809068"/>
  <circle cx="186.7340030272822" cy="260.0323369973572" r="3.4123196976472636" fill="#CFAE58" opacity="0.10934444490491678"/>
  <circle cx="51.54409972965488" cy="323.4852720482443" r="5.877845975822927" fill="#CFAE58" opacity="0.21442140434682"/>
  <circle cx="93.04621109112303" cy="374.6317182517719" r="3.453713340533816" fill="#CFAE58" opacity="0.2234190242060602"/>
  <circle cx="990.0026838822172" cy="224.48825038862168" r="5.215526710732506" fill="#CFAE58" opacity="0.1782749249179254"/>
  <circle cx="907.327728981804" cy="268.4334839703605" r="3.2512922223444" fill="#CFAE58" opacity="0.14389768484485738"/>
  <circle cx="1019.9735302846135" cy="208.47499032370098" r="5.913267834782641" fill="#CFAE58" opacity="0.12617901282478658"/>
  <circle cx="593.3710188290141" cy="215.03846233535776" r="2.68589020160456" fill="#CFAE58" opacity="0.21839125239303586"/>
  <circle cx="1051.4021882656295" cy="487.33110803007145" r="3.2696325612187174" fill="#CFAE58" opacity="0.20627035736790883"/>
  <circle cx="479.6896232057254" cy="467.3641172506248" r="5.180286437661892" fill="#CFAE58" opacity="0.15838428887768838"/>
  <circle cx="266.6873310430828" cy="21.247164778419574" r="3.9564935219366713" fill="#CFAE58" opacity="0.18044354297728063"/>
  <circle cx="835.5115806284567" cy="237.0193701141624" r="4.9526159439254736" fill="#CFAE58" opacity="0.1563128305182745"/>
  <circle cx="148.44013635551758" cy="387.0096753252871" r="2.0078222796469753" fill="#CFAE58" opacity="0.16371523040556796"/>
  <circle cx="228.4575979254016" cy="385.0342611810173" r="3.699724078189859" fill="#CFAE58" opacity="0.11021290210723882"/>
  <circle cx="358.9030540807325" cy="445.7555476526508" r="5.847786456254634" fill="#CFAE58" opacity="0.23480874859556702"/>
  <circle cx="533.6031505019052" cy="395.15554740106523" r="4.560065959810139" fill="#CFAE58" opacity="0.22026025306822483"/>
  <circle cx="593.0836292236855" cy="214.97453847758345" r="5.3770599104255705" fill="#CFAE58" opacity="0.13254667024182482"/>
  <circle cx="840.2427238872173" cy="462.83200501260285" r="5.521614995203679" fill="#CFAE58" opacity="0.24183685216445075"/>
  <circle cx="473.15546992127145" cy="463.9127915277198" r="5.529657471165901" fill="#CFAE58" opacity="0.11892251054564831"/>
  <circle cx="602.8779394196604" cy="200.02206378991033" r="3.545353269648643" fill="#CFAE58" opacity="0.20156646885205423"/>
  <circle cx="381.5439634949534" cy="60.604257881805324" r="5.801149238855071" fill="#CFAE58" opacity="0.10621017004577385"/>
  <circle cx="425.86149742395867" cy="587.2541844542125" r="5.306799605213625" fill="#CFAE58" opacity="0.15763735245217744"/>
  <circle cx="1095.3747289203488" cy="79.22161491875438" r="5.503225880992472" fill="#CFAE58" opacity="0.22096918326175277"/>
  <circle cx="1139.884020030401" cy="593.3132717437901" r="4.493319805085539" fill="#CFAE58" opacity="0.11658836212879117"/>
  <circle cx="1193.098710488125" cy="257.2017300528223" r="3.4994439071902943" fill="#CFAE58" opacity="0.14216894697236715"/>
  <circle cx="917.05196255851" cy="33.869473768052856" r="2.826829423274159" fill="#CFAE58" opacity="0.2115714823313547"/>
  <circle cx="552.2935863517353" cy="319.7894171269547" r="3.7990019451975834" fill="#CFAE58" opacity="0.12775805351972166"/>
  <circle cx="353.68582106604555" cy="36.644102675223685" r="2.0219956729005935" fill="#CFAE58" opacity="0.10662950907316382"/>
  <circle cx="162.70053268564592" cy="584.0339689385221" r="3.8022631346239963" fill="#CFAE58" opacity="0.101120173178216"/>

  <!-- Border with glow -->
  <rect x="40" y="40" width="1120" height="550" fill="none" stroke="url(#goldGradient)" stroke-width="3" rx="12" filter="url(#softGlow)"/>

  <!-- Icon circle with premium background -->
  <circle cx="150" cy="200" r="75" fill="#CFAE58" opacity="0.15" filter="url(#softGlow)"/>
  <circle cx="150" cy="200" r="70" fill="#CFAE58" opacity="0.25"/>
  <text x="150" y="235" font-size="90" text-anchor="middle" fill="#CFAE58" filter="url(#glow)">📈</text>

  <!-- Premium logo (crown) with enhanced styling -->
  <g transform="translate(100, 70)">
    <path d="M 30 20 L 40 35 L 35 35 Z M 50 15 L 60 35 L 45 35 Z M 65 20 L 75 35 L 70 35 Z M 30 35 L 75 35 L 73 45 L 32 45 Z"
          fill="url(#goldGradient)" filter="url(#glow)" stroke="#B89842" stroke-width="0.5"/>
    <circle cx="40" cy="25" r="3" fill="#4FD1C5" filter="url(#glow)"/>
    <circle cx="52" cy="20" r="4" fill="#4FD1C5" filter="url(#glow)"/>
    <circle cx="65" cy="25" r="3" fill="#4FD1C5" filter="url(#glow)"/>
  </g>

  <!-- Title with shadow -->
  <text x="280" y="180" font-family="Georgia, serif" font-size="72" font-weight="bold"
        fill="url(#goldGradient)" filter="url(#shadow)">Investment Opportunities</text>

  <!-- Subtitle with subtle glow -->
  <text x="280" y="230" font-family="Arial, sans-serif" font-size="36"
        fill="#D6DEE6" opacity="0.95" filter="url(#softGlow)">Models A/B/C/D Returns</text>

  <!-- Brand name with letter spacing -->
  <text x="280" y="300" font-family="Georgia, serif" font-size="32" font-weight="bold"
        fill="#CFAE58" letter-spacing="4" filter="url(#glow)">ROYAL KETA</text>

  <!-- Russian tagline -->
  <text x="280" y="340" font-family="Arial, sans-serif" font-size="22" font-style="italic"
        fill="#8B95A1" opacity="0.8">От икринки к королевской</text>

  <!-- Location -->
  <text x="280" y="380" font-family="Arial, sans-serif" font-size="20"
        fill="#8B95A1" opacity="0.7">Невельский район, Сахалин</text>

  <!-- Website with glow -->
  <text x="100" y="570" font-family="Arial, sans-serif" font-size="30" font-weight="bold"
        fill="#4FD1C5" filter="url(#glow)">royalketa.com</text>

  <!-- Enhanced decorative salmon silhouette -->
  <g transform="translate(950, 480)" opacity="0.2" filter="url(#softGlow)">
    <ellipse cx="0" cy="0" rx="90" ry="35" fill="#CFAE58"/>
    <path d="M 90 0 L 120 -18 L 130 0 L 120 18 Z" fill="#CFAE58"/>
    <path d="M -25 -35 L 0 -45 L 25 -35 Z" fill="#CFAE58"/>
    <ellipse cx="-50" cy="0" rx="15" ry="12" fill="#0B0F14"/>
  </g>

  <!-- Additional decorative caviar clusters -->
  <g opacity="0.2">
    <circle cx="1050" cy="120" r="6" fill="#CFAE58"/>
    <circle cx="1065" cy="115" r="5" fill="#CFAE58"/>
    <circle cx="1058" cy="130" r="4" fill="#CFAE58"/>
    <circle cx="150" cy="500" r="5" fill="#4FD1C5"/>
    <circle cx="165" cy="508" r="4" fill="#4FD1C5"/>
    <circle cx="140" cy="512" r="5" fill="#4FD1C5"/>
  </g>
</svg>