<svg width="1200" height="630" xmlns="http://www.w3.org/2000/svg">
  <defs>
    <linearGradient id="bgGradient" x1="0%" y1="0%" x2="100%" y2="100%">
      <stop offset="0%" style="stop-color:#0B0F14;stop-opacity:1" />
      <stop offset="50%" style="stop-color:#0F1619;stop-opacity:1" />
      <stop offset="100%" style="stop-color:#0F1922;stop-opacity:1" />
    </linearGradient>
    <linearGradient id="goldGradient" x1="0%" y1="0%" x2="100%" y2="0%">
      <stop offset="0%" style="stop-color:#E5D596;stop-opacity:1" />
      <stop offset="50%" style="stop-color:#CFAE58;stop-opacity:1" />
      <stop offset="100%" style="stop-color:#B89842;stop-opacity:1" />
    </linearGradient>
    <radialGradient id="oceanGradient" cx="50%" cy="50%" r="50%">
      <stop offset="0%" style="stop-color:#4FD1C5;stop-opacity:0.3" />
      <stop offset="100%" style="stop-color:#1E90A0;stop-opacity:0.05" />
    </radialGradient>
    <filter id="glow">
      <feGaussianBlur stdDeviation="5" result="coloredBlur"/>
      <feMerge>
        <feMergeNode in="coloredBlur"/>
        <feMergeNode in="SourceGraphic"/>
      </feMerge>
    </filter>
    <filter id="softGlow">
      <feGaussianBlur stdDeviation="8" result="coloredBlur"/>
      <feMerge>
        <feMergeNode in="coloredBlur"/>
        <feMergeNode in="SourceGraphic"/>
      </feMerge>
    </filter>
    <filter id="shadow">
      <feDropShadow dx="0" dy="4" stdDeviation="8" flood-color="#000000" flood-opacity="0.5"/>
    </filter>
  </defs>

  <!-- Background -->
  <rect width="1200" height="630" fill="url(#bgGradient)"/>

  <!-- Decorative ocean gradients -->
  <ellipse cx="1000" cy="150" rx="300" ry="200" fill="url(#oceanGradient)" opacity="0.4"/>
  <ellipse cx="200" cy="530" rx="250" ry="180" fill="url(#oceanGradient)" opacity="0.3"/>

  <!-- Wave patterns -->
  <path d="M 0 400 Q 300 350 600 400 T 1200 400 L 1200 630 L 0 630 Z" fill="#1E90A0" opacity="0.08"/>
  <path d="M 0 450 Q 250 420 500 450 T 1000 450 T 1200 450 L 1200 630 L 0 630 Z" fill="#4FD1C5" opacity="0.05"/>

  <!-- Caviar roe particles -->
  <circle cx="1125.6520500774602" cy="485.8292990397528" r="4.003621439349622" fill="#CFAE58" opacity="0.12450817389240017"/>
  <circle cx="560.5556300776379" cy="613.5200740202937" r="2.2120349468448417" fill="#CFAE58" opacity="0.12894560883724215"/>
  <circle cx="1185.3465200362348" cy="227.35445367701618" r="5.819565930975337" fill="#CFAE58" opacity="0.1074720020977938"/>
  <circle cx="266.40883706491155" cy="60.58242435770278" r="2.1138282548891905" fill="#CFAE58" opacity="0.1958537948497357"/>
  <circle cx="186.3415020267988" cy="609.2110151184161" r="4.808587737282301" fill="#CFAE58" opacity="0.1543438630564951"/>
  <circle cx="901.1648918951086" cy="59.30729583741928" r="3.444294699073631" fill="#CFAE58" opacity="0.17233328067365183"/>
  <circle cx="964.2876029028786" cy="246.93825700468116" r="3.783304146962995" fill="#CFAE58" opacity="0.1643009272262025"/>
  <circle cx="607.3441911777961" cy="570.9227084034388" r="4.148421732832047" fill="#CFAE58" opacity="0.18123039408635014"/>
  <circle cx="22.843306111368555" cy="537.5830703241418" r="4.830279073786298" fill="#CFAE58" opacity="0.20269022733497916"/>
  <circle cx="1160.8430283714617" cy="140.0848849252622" r="2.8468279717192573" fill="#CFAE58" opacity="0.1373935376103292"/>
  <circle cx="86.72305683829799" cy="150.7150781686108" r="5.590752501862719" fill="#CFAE58" opacity="0.24773809571001917"/>
  <circle cx="1027.488722022945" cy="390.00142053422616" r="5.837423177093486" fill="#CFAE58" opacity="0.11664535046132143"/>
  <circle cx="140.45476244406183" cy="582.2316114091957" r="2.755210282668748" fill="#CFAE58" opacity="0.1341030520576744"/>
  <circle cx="32.182652911666935" cy="167.72019591917106" r="4.117048631474348" fill="#CFAE58" opacity="0.14312453047120982"/>
  <circle cx="303.3250173463063" cy="201.5216527651209" r="3.398996965726255" fill="#CFAE58" opacity="0.11006642160475144"/>
  <circle cx="107.21130881617809" cy="166.00102408247153" r="5.211653515936" fill="#CFAE58" opacity="0.2345410421991724"/>
  <circle cx="779.7707399230045" cy="71.10270668270127" r="3.373627627881522" fill="#CFAE58" opacity="0.13612163895670273"/>
  <circle cx="766.7966063218461" cy="409.48723419153407" r="2.8480235109329133" fill="#CFAE58" opacity="0.11471278434017097"/>
  <circle cx="587.0679362146558" cy="564.9580036588626" r="4.833838548406435" fill="#CFAE58" opacity="0.24433409543220003"/>
  <circle cx="588.7503496734508" cy="290.28435535819193" r="3.5322472648494303" fill="#CFAE58" opacity="0.16857649182852513"/>
  <circle cx="103.1727797015904" cy="151.22526794503855" r="5.864765100483131" fill="#CFAE58" opacity="0.11554509666803434"/>
  <circle cx="127.76312303848067" cy="118.3226075903226" r="2.779382278592837" fill="#CFAE58" opacity="0.1474852439713125"/>
  <circle cx="412.9117330486153" cy="410.73839105192553" r="3.878488791699608" fill="#CFAE58" opacity="0.17967461374177157"/>
  <circle cx="819.0752961659783" cy="98.95690483323004" r="2.7931569596489823" fill="#CFAE58" opacity="0.21585806975878544"/>
  <circle cx="1123.2359916932091" cy="417.5307341690313" r="5.251102727170962" fill="#CFAE58" opacity="0.22658024963933526"/>
  <circle cx="840.8259962458526" cy="459.9851638909679" r="3.8286364013477154" fill="#CFAE58" opacity="0.13149891454673499"/>
  <circle cx="958.3596539073579" cy="483.5181357947597" r="5.663536016816765" fill="#CFAE58" opacity="0.18229013028225627"/>
  <circle cx="807.4083981421511" cy="65.3167742045451" r="4.79071617905432" fill="#CFAE58" opacity="0.13340111196039017"/>
  <circle cx="651.4765270313851" cy="29.972830070711076" r="3.6996883937487084" fill="#CFAE58" opacity="0.18375396007471256"/>
  <circle cx="638.9125465291091" cy="349.4361928368952" r="2.431330737031857" fill="#CFAE58" opacity="0.19747051337538843"/>

  <!-- Border with glow -->
  <rect x="40" y="40" width="1120" height="550" fill="none" stroke="url(#goldGradient)" stroke-width="3" rx="12" filter="url(#softGlow)"/>

  <!-- Icon circle with premium background -->
  <circle cx="150" cy="200" r="75" fill="#CFAE58" opacity="0.15" filter="url(#softGlow)"/>
  <circle cx="150" cy="200" r="70" fill="#CFAE58" opacity="0.25"/>
  <text x="150" y="235" font-size="90" text-anchor="middle" fill="#CFAE58" filter="url(#glow)">📈</text>

  <!-- Premium logo (crown) with enhanced styling -->
  <g transform="translate(100, 70)">
    <path d="M 30 20 L 40 35 L 35 35 Z M 50 15 L 60 35 L 45 35 Z M 65 20 L 75 35 L 70 35 Z M 30 35 L 75 35 L 73 45 L 32 45 Z"
          fill="url(#goldGradient)" filter="url(#glow)" stroke="#B89842" stroke-width="0.5"/>
    <circle cx="40" cy="25" r="3" fill="#4FD1C5" filter="url(#glow)"/>
    <circle cx="52" cy="20" r="4" fill="#4FD1C5" filter="url(#glow)"/>
    <circle cx="65" cy="25" r="3" fill="#4FD1C5" filter="url(#glow)"/>
  </g>

  <!-- Title with shadow -->
  <text x="280" y="180" font-family="Georgia, serif" font-size="72" font-weight="bold"
        fill="url(#goldGradient)" filter="url(#shadow)">Investment Opportunities</text>

  <!-- Subtitle with subtle glow -->
  <text x="280" y="230" font-family="Arial, sans-serif" font-size="36"
        fill="#D6DEE6" opacity="0.95" filter="url(#softGlow)">Models A/B/C/D Returns</text>

  <!-- Brand name with letter spacing -->
  <text x="280" y="300" font-family="Georgia, serif" font-size="32" font-weight="bold"
        fill="#CFAE58" letter-spacing="4" filter="url(#glow)">ROYAL KETA</text>

  <!-- Russian tagline -->
  <text x="280" y="340" font-family="Arial, sans-serif" font-size="22" font-style="italic"
        fill="#8B95A1" opacity="0.8">От икринки к королевской</text>

  <!-- Location -->
  <text x="280" y="380" font-family="Arial, sans-serif" font-size="20"
        fill="#8B95A1" opacity="0.7">Невельский район, Сахалин</text>

  <!-- Website with glow -->
  <text x="100" y="570" font-family="Arial, sans-serif" font-size="30" font-weight="bold"
        fill="#4FD1C5" filter="url(#glow)">royalketa.com</text>

  <!-- Enhanced decorative salmon silhouette -->
  <g transform="translate(950, 480)" opacity="0.2" filter="url(#softGlow)">
    <ellipse cx="0" cy="0" rx="90" ry="35" fill="#CFAE58"/>
    <path d="M 90 0 L 120 -18 L 130 0 L 120 18 Z" fill="#CFAE58"/>
    <path d="M -25 -35 L 0 -45 L 25 -35 Z" fill="#CFAE58"/>
    <ellipse cx="-50" cy="0" rx="15" ry="12" fill="#0B0F14"/>
  </g>

  <!-- Additional decorative caviar clusters -->
  <g opacity="0.2">
    <circle cx="1050" cy="120" r="6" fill="#CFAE58"/>
    <circle cx="1065" cy="115" r="5" fill="#CFAE58"/>
    <circle cx="1058" cy="130" r="4" fill="#CFAE58"/>
    <circle cx="150" cy="500" r="5" fill="#4FD1C5"/>
    <circle cx="165" cy="508" r="4" fill="#4FD1C5"/>
    <circle cx="140" cy="512" r="5" fill="#4FD1C5"/>
  </g>
</svg>