<svg width="1200" height="630" xmlns="http://www.w3.org/2000/svg">
  <defs>
    <linearGradient id="bgGradient" x1="0%" y1="0%" x2="100%" y2="100%">
      <stop offset="0%" style="stop-color:#0B0F14;stop-opacity:1" />
      <stop offset="50%" style="stop-color:#0F1619;stop-opacity:1" />
      <stop offset="100%" style="stop-color:#0F1922;stop-opacity:1" />
    </linearGradient>
    <linearGradient id="goldGradient" x1="0%" y1="0%" x2="100%" y2="0%">
      <stop offset="0%" style="stop-color:#E5D596;stop-opacity:1" />
      <stop offset="50%" style="stop-color:#CFAE58;stop-opacity:1" />
      <stop offset="100%" style="stop-color:#B89842;stop-opacity:1" />
    </linearGradient>
    <radialGradient id="oceanGradient" cx="50%" cy="50%" r="50%">
      <stop offset="0%" style="stop-color:#4FD1C5;stop-opacity:0.3" />
      <stop offset="100%" style="stop-color:#1E90A0;stop-opacity:0.05" />
    </radialGradient>
    <filter id="glow">
      <feGaussianBlur stdDeviation="5" result="coloredBlur"/>
      <feMerge>
        <feMergeNode in="coloredBlur"/>
        <feMergeNode in="SourceGraphic"/>
      </feMerge>
    </filter>
    <filter id="softGlow">
      <feGaussianBlur stdDeviation="8" result="coloredBlur"/>
      <feMerge>
        <feMergeNode in="coloredBlur"/>
        <feMergeNode in="SourceGraphic"/>
      </feMerge>
    </filter>
    <filter id="shadow">
      <feDropShadow dx="0" dy="4" stdDeviation="8" flood-color="#000000" flood-opacity="0.5"/>
    </filter>
  </defs>

  <!-- Background -->
  <rect width="1200" height="630" fill="url(#bgGradient)"/>

  <!-- Decorative ocean gradients -->
  <ellipse cx="1000" cy="150" rx="300" ry="200" fill="url(#oceanGradient)" opacity="0.4"/>
  <ellipse cx="200" cy="530" rx="250" ry="180" fill="url(#oceanGradient)" opacity="0.3"/>

  <!-- Wave patterns -->
  <path d="M 0 400 Q 300 350 600 400 T 1200 400 L 1200 630 L 0 630 Z" fill="#1E90A0" opacity="0.08"/>
  <path d="M 0 450 Q 250 420 500 450 T 1000 450 T 1200 450 L 1200 630 L 0 630 Z" fill="#4FD1C5" opacity="0.05"/>

  <!-- Caviar roe particles -->
  <circle cx="592.6221823217351" cy="415.9401562720409" r="4.186677151560942" fill="#CFAE58" opacity="0.13713579384515578"/>
  <circle cx="450.27663667529015" cy="239.29967920484427" r="3.0395566294482084" fill="#CFAE58" opacity="0.21676277925380805"/>
  <circle cx="204.26297394436773" cy="386.0394007810192" r="2.7531583448688135" fill="#CFAE58" opacity="0.2086293235567436"/>
  <circle cx="126.47503521613869" cy="259.2835723149478" r="3.948194054945969" fill="#CFAE58" opacity="0.1733696176275356"/>
  <circle cx="286.52447278854305" cy="362.2408544564954" r="5.035763942371493" fill="#CFAE58" opacity="0.10402902380619995"/>
  <circle cx="1044.4729476148332" cy="576.6043250885418" r="2.0771561571119226" fill="#CFAE58" opacity="0.1740126889847145"/>
  <circle cx="646.261732742095" cy="626.0437875270349" r="4.678197795273084" fill="#CFAE58" opacity="0.21931680952880678"/>
  <circle cx="810.7460686130534" cy="179.1741832659682" r="4.617373115793081" fill="#CFAE58" opacity="0.11817757973554496"/>
  <circle cx="727.0337877733992" cy="31.320760637902303" r="2.7624405164388603" fill="#CFAE58" opacity="0.23021935017068654"/>
  <circle cx="540.2443336583672" cy="264.9730621967035" r="2.152602704586257" fill="#CFAE58" opacity="0.11344241718442281"/>
  <circle cx="255.22959154877483" cy="74.05359911986362" r="5.90150013909254" fill="#CFAE58" opacity="0.24209411887994614"/>
  <circle cx="866.2868075012166" cy="444.8547823923292" r="3.617885313008355" fill="#CFAE58" opacity="0.11393587769915191"/>
  <circle cx="1095.7715892238948" cy="622.5945076101212" r="4.529849866107639" fill="#CFAE58" opacity="0.13543720925907193"/>
  <circle cx="501.9947952680454" cy="67.17577545664383" r="5.7135851941365665" fill="#CFAE58" opacity="0.20811293076648574"/>
  <circle cx="425.8755773010279" cy="241.56116558171541" r="3.910418157861101" fill="#CFAE58" opacity="0.16080302295695997"/>
  <circle cx="718.4537198955495" cy="425.8165628390033" r="3.7823239682700533" fill="#CFAE58" opacity="0.17914809603301945"/>
  <circle cx="95.05217741826209" cy="499.4321513875453" r="3.0478618697305" fill="#CFAE58" opacity="0.12587174142998464"/>
  <circle cx="655.0120200291601" cy="387.8895941723726" r="3.009250325541647" fill="#CFAE58" opacity="0.13605578917797367"/>
  <circle cx="1089.142024486035" cy="319.3245395282619" r="5.5038993538448295" fill="#CFAE58" opacity="0.11196439491469361"/>
  <circle cx="184.225820247722" cy="429.4364938693673" r="4.828443163598881" fill="#CFAE58" opacity="0.16384432554135514"/>
  <circle cx="319.0224576691773" cy="268.5885777388976" r="5.233029797229646" fill="#CFAE58" opacity="0.1732072986131497"/>
  <circle cx="868.9733569355222" cy="16.770000519045936" r="3.765494255906044" fill="#CFAE58" opacity="0.19118818511865726"/>
  <circle cx="764.3032954893558" cy="448.47233067119373" r="2.3940429911722028" fill="#CFAE58" opacity="0.1424938780840584"/>
  <circle cx="220.04120310783057" cy="522.9630899916834" r="2.734909932077279" fill="#CFAE58" opacity="0.16230164593083968"/>
  <circle cx="225.07925009181938" cy="255.0455267618889" r="3.346834662528763" fill="#CFAE58" opacity="0.21935601193475882"/>
  <circle cx="922.2021601566073" cy="339.19980905846336" r="4.122134109440616" fill="#CFAE58" opacity="0.20015442927241367"/>
  <circle cx="272.62417176351846" cy="422.5458701038472" r="4.555780503977384" fill="#CFAE58" opacity="0.12692065503171832"/>
  <circle cx="914.4188836865301" cy="408.161692038516" r="3.2783299518651794" fill="#CFAE58" opacity="0.1209117861276389"/>
  <circle cx="1140.987325294071" cy="412.2733812062431" r="3.062041325666985" fill="#CFAE58" opacity="0.16902072255328499"/>
  <circle cx="1133.6346789592499" cy="100.15843450622279" r="3.0558403040493927" fill="#CFAE58" opacity="0.17009138069662677"/>

  <!-- Border with glow -->
  <rect x="40" y="40" width="1120" height="550" fill="none" stroke="url(#goldGradient)" stroke-width="3" rx="12" filter="url(#softGlow)"/>

  <!-- Icon circle with premium background -->
  <circle cx="150" cy="200" r="75" fill="#CFAE58" opacity="0.15" filter="url(#softGlow)"/>
  <circle cx="150" cy="200" r="70" fill="#CFAE58" opacity="0.25"/>
  <text x="150" y="235" font-size="90" text-anchor="middle" fill="#CFAE58" filter="url(#glow)">📈</text>

  <!-- Premium logo (crown) with enhanced styling -->
  <g transform="translate(100, 70)">
    <path d="M 30 20 L 40 35 L 35 35 Z M 50 15 L 60 35 L 45 35 Z M 65 20 L 75 35 L 70 35 Z M 30 35 L 75 35 L 73 45 L 32 45 Z"
          fill="url(#goldGradient)" filter="url(#glow)" stroke="#B89842" stroke-width="0.5"/>
    <circle cx="40" cy="25" r="3" fill="#4FD1C5" filter="url(#glow)"/>
    <circle cx="52" cy="20" r="4" fill="#4FD1C5" filter="url(#glow)"/>
    <circle cx="65" cy="25" r="3" fill="#4FD1C5" filter="url(#glow)"/>
  </g>

  <!-- Title with shadow -->
  <text x="280" y="180" font-family="Georgia, serif" font-size="72" font-weight="bold"
        fill="url(#goldGradient)" filter="url(#shadow)">Investment Opportunities</text>

  <!-- Subtitle with subtle glow -->
  <text x="280" y="230" font-family="Arial, sans-serif" font-size="36"
        fill="#D6DEE6" opacity="0.95" filter="url(#softGlow)">Models A/B/C/D Returns</text>

  <!-- Brand name with letter spacing -->
  <text x="280" y="300" font-family="Georgia, serif" font-size="32" font-weight="bold"
        fill="#CFAE58" letter-spacing="4" filter="url(#glow)">ROYAL KETA</text>

  <!-- Russian tagline -->
  <text x="280" y="340" font-family="Arial, sans-serif" font-size="22" font-style="italic"
        fill="#8B95A1" opacity="0.8">От икринки к королевской</text>

  <!-- Location -->
  <text x="280" y="380" font-family="Arial, sans-serif" font-size="20"
        fill="#8B95A1" opacity="0.7">Невельский район, Сахалин</text>

  <!-- Website with glow -->
  <text x="100" y="570" font-family="Arial, sans-serif" font-size="30" font-weight="bold"
        fill="#4FD1C5" filter="url(#glow)">royalketa.com</text>

  <!-- Enhanced decorative salmon silhouette -->
  <g transform="translate(950, 480)" opacity="0.2" filter="url(#softGlow)">
    <ellipse cx="0" cy="0" rx="90" ry="35" fill="#CFAE58"/>
    <path d="M 90 0 L 120 -18 L 130 0 L 120 18 Z" fill="#CFAE58"/>
    <path d="M -25 -35 L 0 -45 L 25 -35 Z" fill="#CFAE58"/>
    <ellipse cx="-50" cy="0" rx="15" ry="12" fill="#0B0F14"/>
  </g>

  <!-- Additional decorative caviar clusters -->
  <g opacity="0.2">
    <circle cx="1050" cy="120" r="6" fill="#CFAE58"/>
    <circle cx="1065" cy="115" r="5" fill="#CFAE58"/>
    <circle cx="1058" cy="130" r="4" fill="#CFAE58"/>
    <circle cx="150" cy="500" r="5" fill="#4FD1C5"/>
    <circle cx="165" cy="508" r="4" fill="#4FD1C5"/>
    <circle cx="140" cy="512" r="5" fill="#4FD1C5"/>
  </g>
</svg>