<svg width="1200" height="630" xmlns="http://www.w3.org/2000/svg">
  <defs>
    <linearGradient id="bgGradient" x1="0%" y1="0%" x2="100%" y2="100%">
      <stop offset="0%" style="stop-color:#0B0F14;stop-opacity:1" />
      <stop offset="50%" style="stop-color:#0F1619;stop-opacity:1" />
      <stop offset="100%" style="stop-color:#0F1922;stop-opacity:1" />
    </linearGradient>
    <linearGradient id="goldGradient" x1="0%" y1="0%" x2="100%" y2="0%">
      <stop offset="0%" style="stop-color:#E5D596;stop-opacity:1" />
      <stop offset="50%" style="stop-color:#CFAE58;stop-opacity:1" />
      <stop offset="100%" style="stop-color:#B89842;stop-opacity:1" />
    </linearGradient>
    <radialGradient id="oceanGradient" cx="50%" cy="50%" r="50%">
      <stop offset="0%" style="stop-color:#4FD1C5;stop-opacity:0.3" />
      <stop offset="100%" style="stop-color:#1E90A0;stop-opacity:0.05" />
    </radialGradient>
    <filter id="glow">
      <feGaussianBlur stdDeviation="5" result="coloredBlur"/>
      <feMerge>
        <feMergeNode in="coloredBlur"/>
        <feMergeNode in="SourceGraphic"/>
      </feMerge>
    </filter>
    <filter id="softGlow">
      <feGaussianBlur stdDeviation="8" result="coloredBlur"/>
      <feMerge>
        <feMergeNode in="coloredBlur"/>
        <feMergeNode in="SourceGraphic"/>
      </feMerge>
    </filter>
    <filter id="shadow">
      <feDropShadow dx="0" dy="4" stdDeviation="8" flood-color="#000000" flood-opacity="0.5"/>
    </filter>
  </defs>

  <!-- Background -->
  <rect width="1200" height="630" fill="url(#bgGradient)"/>

  <!-- Decorative ocean gradients -->
  <ellipse cx="1000" cy="150" rx="300" ry="200" fill="url(#oceanGradient)" opacity="0.4"/>
  <ellipse cx="200" cy="530" rx="250" ry="180" fill="url(#oceanGradient)" opacity="0.3"/>

  <!-- Wave patterns -->
  <path d="M 0 400 Q 300 350 600 400 T 1200 400 L 1200 630 L 0 630 Z" fill="#1E90A0" opacity="0.08"/>
  <path d="M 0 450 Q 250 420 500 450 T 1000 450 T 1200 450 L 1200 630 L 0 630 Z" fill="#4FD1C5" opacity="0.05"/>

  <!-- Caviar roe particles -->
  <circle cx="859.690146265358" cy="411.6070234056752" r="3.8028137148820313" fill="#CFAE58" opacity="0.15700727180221552"/>
  <circle cx="975.9360921172724" cy="164.6358739786419" r="4.331681266305994" fill="#CFAE58" opacity="0.21184810539106594"/>
  <circle cx="519.2011742493056" cy="541.4619040363107" r="5.466302601745926" fill="#CFAE58" opacity="0.2176044902804316"/>
  <circle cx="632.3327888823221" cy="158.5609680468278" r="3.600720705419154" fill="#CFAE58" opacity="0.14999740332940517"/>
  <circle cx="1102.114082995117" cy="543.8302663475093" r="2.157188054039204" fill="#CFAE58" opacity="0.1414217394026624"/>
  <circle cx="738.7389874935084" cy="459.7574974452245" r="5.821826375688638" fill="#CFAE58" opacity="0.16729816621416874"/>
  <circle cx="500.7177721178029" cy="311.83538828180207" r="3.736344090250719" fill="#CFAE58" opacity="0.17197351012815384"/>
  <circle cx="352.7996592480275" cy="14.08056121060704" r="2.8513553003399847" fill="#CFAE58" opacity="0.13558740723902865"/>
  <circle cx="202.01515126298278" cy="375.0354201336956" r="5.12173388286944" fill="#CFAE58" opacity="0.20549081421816612"/>
  <circle cx="1179.5793818698758" cy="82.79186377425106" r="3.5979584385943815" fill="#CFAE58" opacity="0.22781894712943765"/>
  <circle cx="584.0182905829955" cy="258.82815610704455" r="4.890776479106918" fill="#CFAE58" opacity="0.10026494527920848"/>
  <circle cx="941.3499990324848" cy="432.1505837495752" r="3.682696843473358" fill="#CFAE58" opacity="0.16925686649736604"/>
  <circle cx="496.1130315450698" cy="586.1656731523117" r="2.7044900263454554" fill="#CFAE58" opacity="0.1435510016134489"/>
  <circle cx="253.38396800496508" cy="115.00228929675819" r="3.1065389484031387" fill="#CFAE58" opacity="0.20091666162381652"/>
  <circle cx="793.4897324138567" cy="616.87610144679" r="2.5695793472554085" fill="#CFAE58" opacity="0.18649280610955782"/>
  <circle cx="533.7157880182999" cy="202.92398019130536" r="2.1988879127040217" fill="#CFAE58" opacity="0.17390762797510045"/>
  <circle cx="204.8979303877272" cy="204.43768335033423" r="4.9401844824849785" fill="#CFAE58" opacity="0.11623081484860177"/>
  <circle cx="1090.668484127632" cy="16.69198453302676" r="2.537426374854017" fill="#CFAE58" opacity="0.23293124035366292"/>
  <circle cx="341.1154079221777" cy="170.6579147353416" r="4.881205897720789" fill="#CFAE58" opacity="0.1035867568431079"/>
  <circle cx="286.10594465533234" cy="327.1396699466477" r="4.307094652677136" fill="#CFAE58" opacity="0.14936645499214565"/>
  <circle cx="250.69741454704638" cy="106.15033177790455" r="3.1963559738954057" fill="#CFAE58" opacity="0.2112372670149479"/>
  <circle cx="1111.3786855622518" cy="117.25310486696065" r="5.5360861438242015" fill="#CFAE58" opacity="0.11634064023635757"/>
  <circle cx="728.2009200893751" cy="605.3609190711625" r="3.392349346962111" fill="#CFAE58" opacity="0.2176056097497133"/>
  <circle cx="1101.6602724905854" cy="128.43100880031656" r="2.020306047937053" fill="#CFAE58" opacity="0.17915824109636377"/>
  <circle cx="17.766706885563632" cy="117.09356271560942" r="5.561359315554949" fill="#CFAE58" opacity="0.1561626418232531"/>
  <circle cx="944.4027125637008" cy="551.1961734918722" r="2.4196863404846187" fill="#CFAE58" opacity="0.23778016292577275"/>
  <circle cx="474.4134780747429" cy="3.5938159098916267" r="3.9541688437001348" fill="#CFAE58" opacity="0.2279298123573294"/>
  <circle cx="725.5530224464499" cy="330.56334009878447" r="2.1315002831446375" fill="#CFAE58" opacity="0.12711920070743046"/>
  <circle cx="885.2377803905249" cy="319.9586797698419" r="3.014503714101995" fill="#CFAE58" opacity="0.18679820309388662"/>
  <circle cx="31.88206963749014" cy="629.5131467073245" r="2.185305570921688" fill="#CFAE58" opacity="0.12091679291138951"/>

  <!-- Border with glow -->
  <rect x="40" y="40" width="1120" height="550" fill="none" stroke="url(#goldGradient)" stroke-width="3" rx="12" filter="url(#softGlow)"/>

  <!-- Icon circle with premium background -->
  <circle cx="150" cy="200" r="75" fill="#CFAE58" opacity="0.15" filter="url(#softGlow)"/>
  <circle cx="150" cy="200" r="70" fill="#CFAE58" opacity="0.25"/>
  <text x="150" y="235" font-size="90" text-anchor="middle" fill="#CFAE58" filter="url(#glow)">📈</text>

  <!-- Premium logo (crown) with enhanced styling -->
  <g transform="translate(100, 70)">
    <path d="M 30 20 L 40 35 L 35 35 Z M 50 15 L 60 35 L 45 35 Z M 65 20 L 75 35 L 70 35 Z M 30 35 L 75 35 L 73 45 L 32 45 Z"
          fill="url(#goldGradient)" filter="url(#glow)" stroke="#B89842" stroke-width="0.5"/>
    <circle cx="40" cy="25" r="3" fill="#4FD1C5" filter="url(#glow)"/>
    <circle cx="52" cy="20" r="4" fill="#4FD1C5" filter="url(#glow)"/>
    <circle cx="65" cy="25" r="3" fill="#4FD1C5" filter="url(#glow)"/>
  </g>

  <!-- Title with shadow -->
  <text x="280" y="180" font-family="Georgia, serif" font-size="72" font-weight="bold"
        fill="url(#goldGradient)" filter="url(#shadow)">Investment Opportunities</text>

  <!-- Subtitle with subtle glow -->
  <text x="280" y="230" font-family="Arial, sans-serif" font-size="36"
        fill="#D6DEE6" opacity="0.95" filter="url(#softGlow)">Models A/B/C/D Returns</text>

  <!-- Brand name with letter spacing -->
  <text x="280" y="300" font-family="Georgia, serif" font-size="32" font-weight="bold"
        fill="#CFAE58" letter-spacing="4" filter="url(#glow)">ROYAL KETA</text>

  <!-- Russian tagline -->
  <text x="280" y="340" font-family="Arial, sans-serif" font-size="22" font-style="italic"
        fill="#8B95A1" opacity="0.8">От икринки к королевской</text>

  <!-- Location -->
  <text x="280" y="380" font-family="Arial, sans-serif" font-size="20"
        fill="#8B95A1" opacity="0.7">Невельский район, Сахалин</text>

  <!-- Website with glow -->
  <text x="100" y="570" font-family="Arial, sans-serif" font-size="30" font-weight="bold"
        fill="#4FD1C5" filter="url(#glow)">royalketa.com</text>

  <!-- Enhanced decorative salmon silhouette -->
  <g transform="translate(950, 480)" opacity="0.2" filter="url(#softGlow)">
    <ellipse cx="0" cy="0" rx="90" ry="35" fill="#CFAE58"/>
    <path d="M 90 0 L 120 -18 L 130 0 L 120 18 Z" fill="#CFAE58"/>
    <path d="M -25 -35 L 0 -45 L 25 -35 Z" fill="#CFAE58"/>
    <ellipse cx="-50" cy="0" rx="15" ry="12" fill="#0B0F14"/>
  </g>

  <!-- Additional decorative caviar clusters -->
  <g opacity="0.2">
    <circle cx="1050" cy="120" r="6" fill="#CFAE58"/>
    <circle cx="1065" cy="115" r="5" fill="#CFAE58"/>
    <circle cx="1058" cy="130" r="4" fill="#CFAE58"/>
    <circle cx="150" cy="500" r="5" fill="#4FD1C5"/>
    <circle cx="165" cy="508" r="4" fill="#4FD1C5"/>
    <circle cx="140" cy="512" r="5" fill="#4FD1C5"/>
  </g>
</svg>