<svg width="1200" height="630" xmlns="http://www.w3.org/2000/svg">
  <defs>
    <linearGradient id="bgGradient" x1="0%" y1="0%" x2="100%" y2="100%">
      <stop offset="0%" style="stop-color:#0B0F14;stop-opacity:1" />
      <stop offset="50%" style="stop-color:#0F1619;stop-opacity:1" />
      <stop offset="100%" style="stop-color:#0F1922;stop-opacity:1" />
    </linearGradient>
    <linearGradient id="goldGradient" x1="0%" y1="0%" x2="100%" y2="0%">
      <stop offset="0%" style="stop-color:#E5D596;stop-opacity:1" />
      <stop offset="50%" style="stop-color:#CFAE58;stop-opacity:1" />
      <stop offset="100%" style="stop-color:#B89842;stop-opacity:1" />
    </linearGradient>
    <radialGradient id="oceanGradient" cx="50%" cy="50%" r="50%">
      <stop offset="0%" style="stop-color:#4FD1C5;stop-opacity:0.3" />
      <stop offset="100%" style="stop-color:#1E90A0;stop-opacity:0.05" />
    </radialGradient>
    <filter id="glow">
      <feGaussianBlur stdDeviation="5" result="coloredBlur"/>
      <feMerge>
        <feMergeNode in="coloredBlur"/>
        <feMergeNode in="SourceGraphic"/>
      </feMerge>
    </filter>
    <filter id="softGlow">
      <feGaussianBlur stdDeviation="8" result="coloredBlur"/>
      <feMerge>
        <feMergeNode in="coloredBlur"/>
        <feMergeNode in="SourceGraphic"/>
      </feMerge>
    </filter>
    <filter id="shadow">
      <feDropShadow dx="0" dy="4" stdDeviation="8" flood-color="#000000" flood-opacity="0.5"/>
    </filter>
  </defs>

  <!-- Background -->
  <rect width="1200" height="630" fill="url(#bgGradient)"/>

  <!-- Decorative ocean gradients -->
  <ellipse cx="1000" cy="150" rx="300" ry="200" fill="url(#oceanGradient)" opacity="0.4"/>
  <ellipse cx="200" cy="530" rx="250" ry="180" fill="url(#oceanGradient)" opacity="0.3"/>

  <!-- Wave patterns -->
  <path d="M 0 400 Q 300 350 600 400 T 1200 400 L 1200 630 L 0 630 Z" fill="#1E90A0" opacity="0.08"/>
  <path d="M 0 450 Q 250 420 500 450 T 1000 450 T 1200 450 L 1200 630 L 0 630 Z" fill="#4FD1C5" opacity="0.05"/>

  <!-- Caviar roe particles -->
  <circle cx="630.4188777743508" cy="226.1990931705631" r="3.1316187791174457" fill="#CFAE58" opacity="0.15052583108693357"/>
  <circle cx="237.05022452660458" cy="82.49865415518244" r="4.381924888865406" fill="#CFAE58" opacity="0.1698312725067952"/>
  <circle cx="1023.5770521691732" cy="407.6044168101122" r="3.301243388519195" fill="#CFAE58" opacity="0.23549606328724304"/>
  <circle cx="274.4112336711513" cy="265.90807406476665" r="5.706947676322452" fill="#CFAE58" opacity="0.1689865581151473"/>
  <circle cx="919.1048185715073" cy="111.8024463379201" r="2.2622923733741445" fill="#CFAE58" opacity="0.23162763470421938"/>
  <circle cx="367.77373445960296" cy="8.834507039087436" r="2.2686845600864105" fill="#CFAE58" opacity="0.2088932455159983"/>
  <circle cx="906.1096304968149" cy="352.71945235248535" r="4.083937069877365" fill="#CFAE58" opacity="0.13045679139638347"/>
  <circle cx="833.3561938793823" cy="117.86091778312141" r="4.069546271813308" fill="#CFAE58" opacity="0.14112854471794664"/>
  <circle cx="632.5931551007071" cy="133.48140977588292" r="5.698732071448358" fill="#CFAE58" opacity="0.18321571940340342"/>
  <circle cx="293.4342899232986" cy="258.4757060352918" r="4.177955562152913" fill="#CFAE58" opacity="0.16214312671654912"/>
  <circle cx="22.610077493934977" cy="152.09224038400072" r="3.3164441238566607" fill="#CFAE58" opacity="0.12642823936824585"/>
  <circle cx="1169.818282593712" cy="378.4767091750198" r="2.144673543101626" fill="#CFAE58" opacity="0.10087954222947298"/>
  <circle cx="808.2167591874069" cy="92.22676707465911" r="4.053627033691577" fill="#CFAE58" opacity="0.2248412093448452"/>
  <circle cx="33.95623939367152" cy="272.92919930434533" r="5.39024958224065" fill="#CFAE58" opacity="0.23079810876929935"/>
  <circle cx="200.65214767166327" cy="463.39842813402606" r="4.432566667296547" fill="#CFAE58" opacity="0.1344042679295392"/>
  <circle cx="694.2748842862112" cy="162.7851369558264" r="5.745055305945834" fill="#CFAE58" opacity="0.15099342427317733"/>
  <circle cx="392.78281967303934" cy="343.7903372205837" r="2.215670506849377" fill="#CFAE58" opacity="0.2216771475392311"/>
  <circle cx="185.8354421829853" cy="465.77097414503544" r="3.830355614000492" fill="#CFAE58" opacity="0.22368393732214792"/>
  <circle cx="583.5226325170718" cy="244.59402586534526" r="2.2413969345862936" fill="#CFAE58" opacity="0.10732715804376139"/>
  <circle cx="44.74225629622053" cy="101.00554565186215" r="2.904845285056984" fill="#CFAE58" opacity="0.16457941225953288"/>
  <circle cx="50.65403416869145" cy="530.4892720602344" r="3.5123718931928414" fill="#CFAE58" opacity="0.2450894520222155"/>
  <circle cx="358.32636681094965" cy="355.79541409215676" r="2.786009756260296" fill="#CFAE58" opacity="0.11732901478897187"/>
  <circle cx="724.745279508387" cy="151.22371780073985" r="3.235406832765369" fill="#CFAE58" opacity="0.1489329898179375"/>
  <circle cx="608.3648607260807" cy="468.0097671480265" r="4.404501270557075" fill="#CFAE58" opacity="0.23100134080949847"/>
  <circle cx="8.851909959523496" cy="390.76740135037784" r="3.0464877445719267" fill="#CFAE58" opacity="0.13965772313207558"/>
  <circle cx="478.0323591154593" cy="80.67080690669451" r="2.6611807037682675" fill="#CFAE58" opacity="0.12857447077935605"/>
  <circle cx="1036.7092295051439" cy="382.23136332464463" r="5.1255996496334255" fill="#CFAE58" opacity="0.2477082613371371"/>
  <circle cx="1098.7734130427991" cy="190.12457184968275" r="3.974542546033752" fill="#CFAE58" opacity="0.197836194972069"/>
  <circle cx="95.37488948444208" cy="11.023879051212154" r="2.5175491296536308" fill="#CFAE58" opacity="0.13507288909134252"/>
  <circle cx="263.2749275849401" cy="213.47073196713842" r="4.138812971230734" fill="#CFAE58" opacity="0.2445119707608209"/>

  <!-- Border with glow -->
  <rect x="40" y="40" width="1120" height="550" fill="none" stroke="url(#goldGradient)" stroke-width="3" rx="12" filter="url(#softGlow)"/>

  <!-- Icon circle with premium background -->
  <circle cx="150" cy="200" r="75" fill="#CFAE58" opacity="0.15" filter="url(#softGlow)"/>
  <circle cx="150" cy="200" r="70" fill="#CFAE58" opacity="0.25"/>
  <text x="150" y="235" font-size="90" text-anchor="middle" fill="#CFAE58" filter="url(#glow)">📈</text>

  <!-- Premium logo (crown) with enhanced styling -->
  <g transform="translate(100, 70)">
    <path d="M 30 20 L 40 35 L 35 35 Z M 50 15 L 60 35 L 45 35 Z M 65 20 L 75 35 L 70 35 Z M 30 35 L 75 35 L 73 45 L 32 45 Z"
          fill="url(#goldGradient)" filter="url(#glow)" stroke="#B89842" stroke-width="0.5"/>
    <circle cx="40" cy="25" r="3" fill="#4FD1C5" filter="url(#glow)"/>
    <circle cx="52" cy="20" r="4" fill="#4FD1C5" filter="url(#glow)"/>
    <circle cx="65" cy="25" r="3" fill="#4FD1C5" filter="url(#glow)"/>
  </g>

  <!-- Title with shadow -->
  <text x="280" y="180" font-family="Georgia, serif" font-size="72" font-weight="bold"
        fill="url(#goldGradient)" filter="url(#shadow)">Investment Opportunities</text>

  <!-- Subtitle with subtle glow -->
  <text x="280" y="230" font-family="Arial, sans-serif" font-size="36"
        fill="#D6DEE6" opacity="0.95" filter="url(#softGlow)">Models A/B/C/D Returns</text>

  <!-- Brand name with letter spacing -->
  <text x="280" y="300" font-family="Georgia, serif" font-size="32" font-weight="bold"
        fill="#CFAE58" letter-spacing="4" filter="url(#glow)">ROYAL KETA</text>

  <!-- Russian tagline -->
  <text x="280" y="340" font-family="Arial, sans-serif" font-size="22" font-style="italic"
        fill="#8B95A1" opacity="0.8">От икринки к королевской</text>

  <!-- Location -->
  <text x="280" y="380" font-family="Arial, sans-serif" font-size="20"
        fill="#8B95A1" opacity="0.7">Невельский район, Сахалин</text>

  <!-- Website with glow -->
  <text x="100" y="570" font-family="Arial, sans-serif" font-size="30" font-weight="bold"
        fill="#4FD1C5" filter="url(#glow)">royalketa.com</text>

  <!-- Enhanced decorative salmon silhouette -->
  <g transform="translate(950, 480)" opacity="0.2" filter="url(#softGlow)">
    <ellipse cx="0" cy="0" rx="90" ry="35" fill="#CFAE58"/>
    <path d="M 90 0 L 120 -18 L 130 0 L 120 18 Z" fill="#CFAE58"/>
    <path d="M -25 -35 L 0 -45 L 25 -35 Z" fill="#CFAE58"/>
    <ellipse cx="-50" cy="0" rx="15" ry="12" fill="#0B0F14"/>
  </g>

  <!-- Additional decorative caviar clusters -->
  <g opacity="0.2">
    <circle cx="1050" cy="120" r="6" fill="#CFAE58"/>
    <circle cx="1065" cy="115" r="5" fill="#CFAE58"/>
    <circle cx="1058" cy="130" r="4" fill="#CFAE58"/>
    <circle cx="150" cy="500" r="5" fill="#4FD1C5"/>
    <circle cx="165" cy="508" r="4" fill="#4FD1C5"/>
    <circle cx="140" cy="512" r="5" fill="#4FD1C5"/>
  </g>
</svg>