<svg width="1200" height="630" xmlns="http://www.w3.org/2000/svg">
  <defs>
    <linearGradient id="bgGradient" x1="0%" y1="0%" x2="100%" y2="100%">
      <stop offset="0%" style="stop-color:#0B0F14;stop-opacity:1" />
      <stop offset="50%" style="stop-color:#0F1619;stop-opacity:1" />
      <stop offset="100%" style="stop-color:#0F1922;stop-opacity:1" />
    </linearGradient>
    <linearGradient id="goldGradient" x1="0%" y1="0%" x2="100%" y2="0%">
      <stop offset="0%" style="stop-color:#E5D596;stop-opacity:1" />
      <stop offset="50%" style="stop-color:#CFAE58;stop-opacity:1" />
      <stop offset="100%" style="stop-color:#B89842;stop-opacity:1" />
    </linearGradient>
    <radialGradient id="oceanGradient" cx="50%" cy="50%" r="50%">
      <stop offset="0%" style="stop-color:#4FD1C5;stop-opacity:0.3" />
      <stop offset="100%" style="stop-color:#1E90A0;stop-opacity:0.05" />
    </radialGradient>
    <filter id="glow">
      <feGaussianBlur stdDeviation="5" result="coloredBlur"/>
      <feMerge>
        <feMergeNode in="coloredBlur"/>
        <feMergeNode in="SourceGraphic"/>
      </feMerge>
    </filter>
    <filter id="softGlow">
      <feGaussianBlur stdDeviation="8" result="coloredBlur"/>
      <feMerge>
        <feMergeNode in="coloredBlur"/>
        <feMergeNode in="SourceGraphic"/>
      </feMerge>
    </filter>
    <filter id="shadow">
      <feDropShadow dx="0" dy="4" stdDeviation="8" flood-color="#000000" flood-opacity="0.5"/>
    </filter>
  </defs>

  <!-- Background -->
  <rect width="1200" height="630" fill="url(#bgGradient)"/>

  <!-- Decorative ocean gradients -->
  <ellipse cx="1000" cy="150" rx="300" ry="200" fill="url(#oceanGradient)" opacity="0.4"/>
  <ellipse cx="200" cy="530" rx="250" ry="180" fill="url(#oceanGradient)" opacity="0.3"/>

  <!-- Wave patterns -->
  <path d="M 0 400 Q 300 350 600 400 T 1200 400 L 1200 630 L 0 630 Z" fill="#1E90A0" opacity="0.08"/>
  <path d="M 0 450 Q 250 420 500 450 T 1000 450 T 1200 450 L 1200 630 L 0 630 Z" fill="#4FD1C5" opacity="0.05"/>

  <!-- Caviar roe particles -->
  <circle cx="927.7469560205304" cy="86.04431630471707" r="5.463643660199187" fill="#CFAE58" opacity="0.10707382470950003"/>
  <circle cx="778.2606793898108" cy="53.111710701259774" r="2.2236069400993626" fill="#CFAE58" opacity="0.20543934685346563"/>
  <circle cx="332.70978663612004" cy="252.38762892015515" r="4.471736785520237" fill="#CFAE58" opacity="0.12822482794882967"/>
  <circle cx="112.76546162557537" cy="29.989607178355257" r="4.011482515590448" fill="#CFAE58" opacity="0.15239603822116615"/>
  <circle cx="1153.8096695898628" cy="153.54457822730606" r="2.382881076545088" fill="#CFAE58" opacity="0.11780838765001767"/>
  <circle cx="1137.276499988985" cy="138.1735019520789" r="3.357715421118489" fill="#CFAE58" opacity="0.21420877586385395"/>
  <circle cx="197.05620894081184" cy="434.05013058473713" r="3.538020119125552" fill="#CFAE58" opacity="0.1739350319927443"/>
  <circle cx="1116.789428796137" cy="245.98049285563295" r="3.100373647462317" fill="#CFAE58" opacity="0.1768851754267479"/>
  <circle cx="422.40407790799753" cy="212.11629433661957" r="3.394066969092732" fill="#CFAE58" opacity="0.15513213247427385"/>
  <circle cx="415.8201275044337" cy="134.29985029571958" r="2.7488790783854498" fill="#CFAE58" opacity="0.22442611696761197"/>
  <circle cx="840.2956416571077" cy="76.75540515313781" r="3.0640654124593296" fill="#CFAE58" opacity="0.1177470553697548"/>
  <circle cx="1110.5723925319446" cy="47.01585358991705" r="2.8064307205652534" fill="#CFAE58" opacity="0.19153638608365578"/>
  <circle cx="996.3895055672357" cy="228.25015657427508" r="2.5266006767952134" fill="#CFAE58" opacity="0.1351100673134903"/>
  <circle cx="859.612037182441" cy="374.69035758331995" r="5.398808461883708" fill="#CFAE58" opacity="0.1807900449367038"/>
  <circle cx="581.7196617794042" cy="116.50196292031796" r="4.394698042510692" fill="#CFAE58" opacity="0.18558235420631342"/>
  <circle cx="818.6929676216813" cy="605.5543314085688" r="4.21438972103468" fill="#CFAE58" opacity="0.17711812203329866"/>
  <circle cx="731.7880970727881" cy="584.6863169384862" r="3.689564760153815" fill="#CFAE58" opacity="0.22208121395170835"/>
  <circle cx="637.6457984480536" cy="19.05892562565438" r="5.146134985402895" fill="#CFAE58" opacity="0.1949003893233016"/>
  <circle cx="128.48488600882416" cy="282.78481880794567" r="2.1830188673234665" fill="#CFAE58" opacity="0.12218931367409872"/>
  <circle cx="93.13105216882506" cy="49.503621334074275" r="5.524622869335646" fill="#CFAE58" opacity="0.21990168494069204"/>
  <circle cx="269.7927590858163" cy="228.53393533611128" r="2.056970311258085" fill="#CFAE58" opacity="0.13004545133419218"/>
  <circle cx="147.95038967213432" cy="248.718205875422" r="2.648132480638628" fill="#CFAE58" opacity="0.1750048958980268"/>
  <circle cx="461.9970984544483" cy="328.1080073856985" r="4.380474804939763" fill="#CFAE58" opacity="0.2445707605006887"/>
  <circle cx="645.807252352344" cy="460.00003054677455" r="3.957536366581717" fill="#CFAE58" opacity="0.15357888840320427"/>
  <circle cx="927.6043153989203" cy="167.8523323625008" r="4.699443901107063" fill="#CFAE58" opacity="0.24162020859820213"/>
  <circle cx="972.8458749023087" cy="366.0449015667012" r="3.3925919571755623" fill="#CFAE58" opacity="0.2206981718803464"/>
  <circle cx="982.773724267828" cy="430.03889206792053" r="3.1528473922372804" fill="#CFAE58" opacity="0.17026160177457206"/>
  <circle cx="951.6992508351989" cy="177.48114499801827" r="2.9353335961149276" fill="#CFAE58" opacity="0.2373666095801073"/>
  <circle cx="185.0923010032652" cy="206.62364259211668" r="4.736928872090834" fill="#CFAE58" opacity="0.11518534234777571"/>
  <circle cx="323.50372583717035" cy="229.38035900334054" r="4.355691222396414" fill="#CFAE58" opacity="0.2050102973883613"/>

  <!-- Border with glow -->
  <rect x="40" y="40" width="1120" height="550" fill="none" stroke="url(#goldGradient)" stroke-width="3" rx="12" filter="url(#softGlow)"/>

  <!-- Icon circle with premium background -->
  <circle cx="150" cy="200" r="75" fill="#CFAE58" opacity="0.15" filter="url(#softGlow)"/>
  <circle cx="150" cy="200" r="70" fill="#CFAE58" opacity="0.25"/>
  <text x="150" y="235" font-size="90" text-anchor="middle" fill="#CFAE58" filter="url(#glow)">📈</text>

  <!-- Premium logo (crown) with enhanced styling -->
  <g transform="translate(100, 70)">
    <path d="M 30 20 L 40 35 L 35 35 Z M 50 15 L 60 35 L 45 35 Z M 65 20 L 75 35 L 70 35 Z M 30 35 L 75 35 L 73 45 L 32 45 Z"
          fill="url(#goldGradient)" filter="url(#glow)" stroke="#B89842" stroke-width="0.5"/>
    <circle cx="40" cy="25" r="3" fill="#4FD1C5" filter="url(#glow)"/>
    <circle cx="52" cy="20" r="4" fill="#4FD1C5" filter="url(#glow)"/>
    <circle cx="65" cy="25" r="3" fill="#4FD1C5" filter="url(#glow)"/>
  </g>

  <!-- Title with shadow -->
  <text x="280" y="180" font-family="Georgia, serif" font-size="72" font-weight="bold"
        fill="url(#goldGradient)" filter="url(#shadow)">Investment Opportunities</text>

  <!-- Subtitle with subtle glow -->
  <text x="280" y="230" font-family="Arial, sans-serif" font-size="36"
        fill="#D6DEE6" opacity="0.95" filter="url(#softGlow)">Models A/B/C/D Returns</text>

  <!-- Brand name with letter spacing -->
  <text x="280" y="300" font-family="Georgia, serif" font-size="32" font-weight="bold"
        fill="#CFAE58" letter-spacing="4" filter="url(#glow)">ROYAL KETA</text>

  <!-- Russian tagline -->
  <text x="280" y="340" font-family="Arial, sans-serif" font-size="22" font-style="italic"
        fill="#8B95A1" opacity="0.8">От икринки к королевской</text>

  <!-- Location -->
  <text x="280" y="380" font-family="Arial, sans-serif" font-size="20"
        fill="#8B95A1" opacity="0.7">Невельский район, Сахалин</text>

  <!-- Website with glow -->
  <text x="100" y="570" font-family="Arial, sans-serif" font-size="30" font-weight="bold"
        fill="#4FD1C5" filter="url(#glow)">royalketa.com</text>

  <!-- Enhanced decorative salmon silhouette -->
  <g transform="translate(950, 480)" opacity="0.2" filter="url(#softGlow)">
    <ellipse cx="0" cy="0" rx="90" ry="35" fill="#CFAE58"/>
    <path d="M 90 0 L 120 -18 L 130 0 L 120 18 Z" fill="#CFAE58"/>
    <path d="M -25 -35 L 0 -45 L 25 -35 Z" fill="#CFAE58"/>
    <ellipse cx="-50" cy="0" rx="15" ry="12" fill="#0B0F14"/>
  </g>

  <!-- Additional decorative caviar clusters -->
  <g opacity="0.2">
    <circle cx="1050" cy="120" r="6" fill="#CFAE58"/>
    <circle cx="1065" cy="115" r="5" fill="#CFAE58"/>
    <circle cx="1058" cy="130" r="4" fill="#CFAE58"/>
    <circle cx="150" cy="500" r="5" fill="#4FD1C5"/>
    <circle cx="165" cy="508" r="4" fill="#4FD1C5"/>
    <circle cx="140" cy="512" r="5" fill="#4FD1C5"/>
  </g>
</svg>