<svg width="1200" height="630" xmlns="http://www.w3.org/2000/svg">
  <defs>
    <linearGradient id="bgGradient" x1="0%" y1="0%" x2="100%" y2="100%">
      <stop offset="0%" style="stop-color:#0B0F14;stop-opacity:1" />
      <stop offset="50%" style="stop-color:#0F1619;stop-opacity:1" />
      <stop offset="100%" style="stop-color:#0F1922;stop-opacity:1" />
    </linearGradient>
    <linearGradient id="goldGradient" x1="0%" y1="0%" x2="100%" y2="0%">
      <stop offset="0%" style="stop-color:#E5D596;stop-opacity:1" />
      <stop offset="50%" style="stop-color:#CFAE58;stop-opacity:1" />
      <stop offset="100%" style="stop-color:#B89842;stop-opacity:1" />
    </linearGradient>
    <radialGradient id="oceanGradient" cx="50%" cy="50%" r="50%">
      <stop offset="0%" style="stop-color:#4FD1C5;stop-opacity:0.3" />
      <stop offset="100%" style="stop-color:#1E90A0;stop-opacity:0.05" />
    </radialGradient>
    <filter id="glow">
      <feGaussianBlur stdDeviation="5" result="coloredBlur"/>
      <feMerge>
        <feMergeNode in="coloredBlur"/>
        <feMergeNode in="SourceGraphic"/>
      </feMerge>
    </filter>
    <filter id="softGlow">
      <feGaussianBlur stdDeviation="8" result="coloredBlur"/>
      <feMerge>
        <feMergeNode in="coloredBlur"/>
        <feMergeNode in="SourceGraphic"/>
      </feMerge>
    </filter>
    <filter id="shadow">
      <feDropShadow dx="0" dy="4" stdDeviation="8" flood-color="#000000" flood-opacity="0.5"/>
    </filter>
  </defs>

  <!-- Background -->
  <rect width="1200" height="630" fill="url(#bgGradient)"/>

  <!-- Decorative ocean gradients -->
  <ellipse cx="1000" cy="150" rx="300" ry="200" fill="url(#oceanGradient)" opacity="0.4"/>
  <ellipse cx="200" cy="530" rx="250" ry="180" fill="url(#oceanGradient)" opacity="0.3"/>

  <!-- Wave patterns -->
  <path d="M 0 400 Q 300 350 600 400 T 1200 400 L 1200 630 L 0 630 Z" fill="#1E90A0" opacity="0.08"/>
  <path d="M 0 450 Q 250 420 500 450 T 1000 450 T 1200 450 L 1200 630 L 0 630 Z" fill="#4FD1C5" opacity="0.05"/>

  <!-- Caviar roe particles -->
  <circle cx="406.7928934490036" cy="555.8410964005915" r="4.6049714416896705" fill="#CFAE58" opacity="0.12978438365350414"/>
  <circle cx="799.7287625287686" cy="290.81907590200615" r="2.762482606774206" fill="#CFAE58" opacity="0.17047300776341212"/>
  <circle cx="1126.4336187962888" cy="611.2157829344616" r="5.091322805350565" fill="#CFAE58" opacity="0.1940634002712372"/>
  <circle cx="1023.4552497189613" cy="268.0356639196216" r="2.657361799259126" fill="#CFAE58" opacity="0.16818606611224357"/>
  <circle cx="233.18330344482706" cy="194.8161609829121" r="5.071529734915682" fill="#CFAE58" opacity="0.12890294307695027"/>
  <circle cx="657.3095049571643" cy="25.863029072535717" r="2.7212656300016977" fill="#CFAE58" opacity="0.18210902795255124"/>
  <circle cx="279.6773815349304" cy="35.583988155878444" r="4.704018877477257" fill="#CFAE58" opacity="0.12758463409793294"/>
  <circle cx="802.5012246412088" cy="410.4759437955688" r="5.011057282430765" fill="#CFAE58" opacity="0.195045216681433"/>
  <circle cx="649.5752349237333" cy="120.12415286198787" r="2.4409092188218464" fill="#CFAE58" opacity="0.15693128652535349"/>
  <circle cx="846.0470848089143" cy="257.62524456158843" r="5.475831513573514" fill="#CFAE58" opacity="0.16182999382967111"/>
  <circle cx="952.2984248677172" cy="161.80069909272854" r="4.129153256909159" fill="#CFAE58" opacity="0.21667358979296517"/>
  <circle cx="284.1010740512221" cy="614.3462211249447" r="2.961663232560843" fill="#CFAE58" opacity="0.17819088557862778"/>
  <circle cx="459.9566252343032" cy="192.22053730935744" r="2.9808116308530206" fill="#CFAE58" opacity="0.16189340531122748"/>
  <circle cx="990.8159518057577" cy="206.04462910766432" r="2.219314364595551" fill="#CFAE58" opacity="0.1288114563985283"/>
  <circle cx="225.2087200970118" cy="266.73289762508244" r="5.091647434428405" fill="#CFAE58" opacity="0.20601662006096566"/>
  <circle cx="667.3906799344501" cy="28.177779079607408" r="5.153191709650843" fill="#CFAE58" opacity="0.10673096397144521"/>
  <circle cx="1191.90720150212" cy="128.57262551820563" r="4.258938958713955" fill="#CFAE58" opacity="0.19820302151205588"/>
  <circle cx="242.81902580140476" cy="16.8872202167293" r="3.590143354299727" fill="#CFAE58" opacity="0.22784257036742522"/>
  <circle cx="926.7443387057957" cy="90.17128179174016" r="3.0238083015929433" fill="#CFAE58" opacity="0.23633515631505161"/>
  <circle cx="343.17339069277637" cy="465.6042314226487" r="4.21053193787785" fill="#CFAE58" opacity="0.2243263046532999"/>
  <circle cx="1021.6087106535153" cy="321.10484641736105" r="5.828031389887673" fill="#CFAE58" opacity="0.18351987544859952"/>
  <circle cx="315.8529600606167" cy="387.6161548966467" r="3.5027674414240257" fill="#CFAE58" opacity="0.24585686362727063"/>
  <circle cx="847.1044312056572" cy="120.3250702600334" r="3.673307387659274" fill="#CFAE58" opacity="0.12039820801972448"/>
  <circle cx="189.88013934875042" cy="368.1020883506148" r="5.418769553065761" fill="#CFAE58" opacity="0.1675131184327598"/>
  <circle cx="36.37027569442108" cy="233.85290343786346" r="2.3733393235602227" fill="#CFAE58" opacity="0.15448340914109715"/>
  <circle cx="487.9603581544081" cy="314.18471638220575" r="4.612913460557321" fill="#CFAE58" opacity="0.11190068960654861"/>
  <circle cx="221.5780177351958" cy="397.17994690518634" r="3.763516424201179" fill="#CFAE58" opacity="0.21051258014989943"/>
  <circle cx="909.3721466460282" cy="160.86428024897697" r="5.485963046029742" fill="#CFAE58" opacity="0.10740335417643894"/>
  <circle cx="353.0909439102014" cy="115.98845814961037" r="2.335771294424921" fill="#CFAE58" opacity="0.21591792103399737"/>
  <circle cx="534.0007252611333" cy="407.3452429310018" r="5.787019323929689" fill="#CFAE58" opacity="0.21589813656726867"/>

  <!-- Border with glow -->
  <rect x="40" y="40" width="1120" height="550" fill="none" stroke="url(#goldGradient)" stroke-width="3" rx="12" filter="url(#softGlow)"/>

  <!-- Icon circle with premium background -->
  <circle cx="150" cy="200" r="75" fill="#CFAE58" opacity="0.15" filter="url(#softGlow)"/>
  <circle cx="150" cy="200" r="70" fill="#CFAE58" opacity="0.25"/>
  <text x="150" y="235" font-size="90" text-anchor="middle" fill="#CFAE58" filter="url(#glow)">📈</text>

  <!-- Premium logo (crown) with enhanced styling -->
  <g transform="translate(100, 70)">
    <path d="M 30 20 L 40 35 L 35 35 Z M 50 15 L 60 35 L 45 35 Z M 65 20 L 75 35 L 70 35 Z M 30 35 L 75 35 L 73 45 L 32 45 Z"
          fill="url(#goldGradient)" filter="url(#glow)" stroke="#B89842" stroke-width="0.5"/>
    <circle cx="40" cy="25" r="3" fill="#4FD1C5" filter="url(#glow)"/>
    <circle cx="52" cy="20" r="4" fill="#4FD1C5" filter="url(#glow)"/>
    <circle cx="65" cy="25" r="3" fill="#4FD1C5" filter="url(#glow)"/>
  </g>

  <!-- Title with shadow -->
  <text x="280" y="180" font-family="Georgia, serif" font-size="72" font-weight="bold"
        fill="url(#goldGradient)" filter="url(#shadow)">Investment Opportunities</text>

  <!-- Subtitle with subtle glow -->
  <text x="280" y="230" font-family="Arial, sans-serif" font-size="36"
        fill="#D6DEE6" opacity="0.95" filter="url(#softGlow)">Models A/B/C/D Returns</text>

  <!-- Brand name with letter spacing -->
  <text x="280" y="300" font-family="Georgia, serif" font-size="32" font-weight="bold"
        fill="#CFAE58" letter-spacing="4" filter="url(#glow)">ROYAL KETA</text>

  <!-- Russian tagline -->
  <text x="280" y="340" font-family="Arial, sans-serif" font-size="22" font-style="italic"
        fill="#8B95A1" opacity="0.8">От икринки к королевской</text>

  <!-- Location -->
  <text x="280" y="380" font-family="Arial, sans-serif" font-size="20"
        fill="#8B95A1" opacity="0.7">Невельский район, Сахалин</text>

  <!-- Website with glow -->
  <text x="100" y="570" font-family="Arial, sans-serif" font-size="30" font-weight="bold"
        fill="#4FD1C5" filter="url(#glow)">royalketa.com</text>

  <!-- Enhanced decorative salmon silhouette -->
  <g transform="translate(950, 480)" opacity="0.2" filter="url(#softGlow)">
    <ellipse cx="0" cy="0" rx="90" ry="35" fill="#CFAE58"/>
    <path d="M 90 0 L 120 -18 L 130 0 L 120 18 Z" fill="#CFAE58"/>
    <path d="M -25 -35 L 0 -45 L 25 -35 Z" fill="#CFAE58"/>
    <ellipse cx="-50" cy="0" rx="15" ry="12" fill="#0B0F14"/>
  </g>

  <!-- Additional decorative caviar clusters -->
  <g opacity="0.2">
    <circle cx="1050" cy="120" r="6" fill="#CFAE58"/>
    <circle cx="1065" cy="115" r="5" fill="#CFAE58"/>
    <circle cx="1058" cy="130" r="4" fill="#CFAE58"/>
    <circle cx="150" cy="500" r="5" fill="#4FD1C5"/>
    <circle cx="165" cy="508" r="4" fill="#4FD1C5"/>
    <circle cx="140" cy="512" r="5" fill="#4FD1C5"/>
  </g>
</svg>