<svg width="1200" height="630" xmlns="http://www.w3.org/2000/svg">
  <defs>
    <linearGradient id="bgGradient" x1="0%" y1="0%" x2="100%" y2="100%">
      <stop offset="0%" style="stop-color:#0B0F14;stop-opacity:1" />
      <stop offset="50%" style="stop-color:#0F1619;stop-opacity:1" />
      <stop offset="100%" style="stop-color:#0F1922;stop-opacity:1" />
    </linearGradient>
    <linearGradient id="goldGradient" x1="0%" y1="0%" x2="100%" y2="0%">
      <stop offset="0%" style="stop-color:#E5D596;stop-opacity:1" />
      <stop offset="50%" style="stop-color:#CFAE58;stop-opacity:1" />
      <stop offset="100%" style="stop-color:#B89842;stop-opacity:1" />
    </linearGradient>
    <radialGradient id="oceanGradient" cx="50%" cy="50%" r="50%">
      <stop offset="0%" style="stop-color:#4FD1C5;stop-opacity:0.3" />
      <stop offset="100%" style="stop-color:#1E90A0;stop-opacity:0.05" />
    </radialGradient>
    <filter id="glow">
      <feGaussianBlur stdDeviation="5" result="coloredBlur"/>
      <feMerge>
        <feMergeNode in="coloredBlur"/>
        <feMergeNode in="SourceGraphic"/>
      </feMerge>
    </filter>
    <filter id="softGlow">
      <feGaussianBlur stdDeviation="8" result="coloredBlur"/>
      <feMerge>
        <feMergeNode in="coloredBlur"/>
        <feMergeNode in="SourceGraphic"/>
      </feMerge>
    </filter>
    <filter id="shadow">
      <feDropShadow dx="0" dy="4" stdDeviation="8" flood-color="#000000" flood-opacity="0.5"/>
    </filter>
  </defs>

  <!-- Background -->
  <rect width="1200" height="630" fill="url(#bgGradient)"/>

  <!-- Decorative ocean gradients -->
  <ellipse cx="1000" cy="150" rx="300" ry="200" fill="url(#oceanGradient)" opacity="0.4"/>
  <ellipse cx="200" cy="530" rx="250" ry="180" fill="url(#oceanGradient)" opacity="0.3"/>

  <!-- Wave patterns -->
  <path d="M 0 400 Q 300 350 600 400 T 1200 400 L 1200 630 L 0 630 Z" fill="#1E90A0" opacity="0.08"/>
  <path d="M 0 450 Q 250 420 500 450 T 1000 450 T 1200 450 L 1200 630 L 0 630 Z" fill="#4FD1C5" opacity="0.05"/>

  <!-- Caviar roe particles -->
  <circle cx="72.69478556389082" cy="86.94050027443122" r="3.8217260097235677" fill="#CFAE58" opacity="0.18441378081878657"/>
  <circle cx="173.36350706545014" cy="122.12962007919619" r="5.8556308217361535" fill="#CFAE58" opacity="0.16966150450801024"/>
  <circle cx="166.45912731385044" cy="177.48746545107176" r="5.8355305770289645" fill="#CFAE58" opacity="0.19007914919768226"/>
  <circle cx="190.97231876425883" cy="590.8754086766994" r="2.9818529606668465" fill="#CFAE58" opacity="0.14790937819466354"/>
  <circle cx="995.9579561441566" cy="29.086989221722938" r="5.236081154455166" fill="#CFAE58" opacity="0.1425492682724273"/>
  <circle cx="990.0252815478005" cy="583.9215937452209" r="5.78461971184205" fill="#CFAE58" opacity="0.12643331641523606"/>
  <circle cx="997.3636217041909" cy="96.66471098068406" r="3.5848195980004585" fill="#CFAE58" opacity="0.21485697372259754"/>
  <circle cx="1199.298243984766" cy="380.84762412260966" r="5.493260254223916" fill="#CFAE58" opacity="0.20828058106914465"/>
  <circle cx="952.2776897445564" cy="593.586513256489" r="3.90732014181072" fill="#CFAE58" opacity="0.24555832356965523"/>
  <circle cx="310.03271360809384" cy="471.61575252787327" r="4.905614980394884" fill="#CFAE58" opacity="0.12264914742865446"/>
  <circle cx="47.477614943667135" cy="429.2590954516132" r="3.25131461834041" fill="#CFAE58" opacity="0.23017756568679903"/>
  <circle cx="1001.1935746243823" cy="380.21969287712835" r="3.356000471616995" fill="#CFAE58" opacity="0.1271921077365429"/>
  <circle cx="935.7588881627647" cy="414.754505228398" r="2.2552835931951085" fill="#CFAE58" opacity="0.15968524569266584"/>
  <circle cx="298.3350691487746" cy="332.1598616414774" r="4.4966431382727565" fill="#CFAE58" opacity="0.23523342013260448"/>
  <circle cx="553.1971061747959" cy="625.4559949563776" r="5.9874617887428485" fill="#CFAE58" opacity="0.1119334712588305"/>
  <circle cx="913.9792674663379" cy="369.66605650045483" r="5.571846813580747" fill="#CFAE58" opacity="0.22691103812902666"/>
  <circle cx="106.13381861437841" cy="291.6320377150084" r="2.9181572699915135" fill="#CFAE58" opacity="0.2183022711643718"/>
  <circle cx="348.64750724377194" cy="210.59534512045033" r="3.1383992864869468" fill="#CFAE58" opacity="0.10263115939742651"/>
  <circle cx="913.5385831469632" cy="530.5808486828149" r="5.880933249571126" fill="#CFAE58" opacity="0.12388873746910554"/>
  <circle cx="986.4512459370377" cy="307.4316502352768" r="3.4711198522369306" fill="#CFAE58" opacity="0.22510698973011617"/>
  <circle cx="1038.9321807794538" cy="112.22591076837537" r="2.5078167034788894" fill="#CFAE58" opacity="0.17448309264265965"/>
  <circle cx="303.32195116384344" cy="59.213165946291376" r="2.9001995942540733" fill="#CFAE58" opacity="0.1650154467254106"/>
  <circle cx="203.84537954952603" cy="90.25097597470148" r="3.9294602659977382" fill="#CFAE58" opacity="0.21874331683858117"/>
  <circle cx="854.7530693073929" cy="267.80066845561765" r="3.101179415266764" fill="#CFAE58" opacity="0.19835520182742805"/>
  <circle cx="810.815296155001" cy="29.95874372240444" r="2.0928748345818926" fill="#CFAE58" opacity="0.14459519873657325"/>
  <circle cx="677.2199892859182" cy="550.9607837968907" r="5.549627148938471" fill="#CFAE58" opacity="0.2206085671509664"/>
  <circle cx="523.0027564304985" cy="426.9302281766713" r="4.832847341227681" fill="#CFAE58" opacity="0.21262502390901059"/>
  <circle cx="139.18782367794336" cy="433.32960959052133" r="5.933230083658326" fill="#CFAE58" opacity="0.1689161463312884"/>
  <circle cx="778.4218536040686" cy="28.405085996840963" r="4.568486232257249" fill="#CFAE58" opacity="0.1958002099248969"/>
  <circle cx="1051.5921454654208" cy="88.91506595113565" r="4.81277629817111" fill="#CFAE58" opacity="0.15723351139096942"/>

  <!-- Border with glow -->
  <rect x="40" y="40" width="1120" height="550" fill="none" stroke="url(#goldGradient)" stroke-width="3" rx="12" filter="url(#softGlow)"/>

  <!-- Icon circle with premium background -->
  <circle cx="150" cy="200" r="75" fill="#CFAE58" opacity="0.15" filter="url(#softGlow)"/>
  <circle cx="150" cy="200" r="70" fill="#CFAE58" opacity="0.25"/>
  <text x="150" y="235" font-size="90" text-anchor="middle" fill="#CFAE58" filter="url(#glow)">📈</text>

  <!-- Premium logo (crown) with enhanced styling -->
  <g transform="translate(100, 70)">
    <path d="M 30 20 L 40 35 L 35 35 Z M 50 15 L 60 35 L 45 35 Z M 65 20 L 75 35 L 70 35 Z M 30 35 L 75 35 L 73 45 L 32 45 Z"
          fill="url(#goldGradient)" filter="url(#glow)" stroke="#B89842" stroke-width="0.5"/>
    <circle cx="40" cy="25" r="3" fill="#4FD1C5" filter="url(#glow)"/>
    <circle cx="52" cy="20" r="4" fill="#4FD1C5" filter="url(#glow)"/>
    <circle cx="65" cy="25" r="3" fill="#4FD1C5" filter="url(#glow)"/>
  </g>

  <!-- Title with shadow -->
  <text x="280" y="180" font-family="Georgia, serif" font-size="72" font-weight="bold"
        fill="url(#goldGradient)" filter="url(#shadow)">Investment Opportunities</text>

  <!-- Subtitle with subtle glow -->
  <text x="280" y="230" font-family="Arial, sans-serif" font-size="36"
        fill="#D6DEE6" opacity="0.95" filter="url(#softGlow)">Models A/B/C/D Returns</text>

  <!-- Brand name with letter spacing -->
  <text x="280" y="300" font-family="Georgia, serif" font-size="32" font-weight="bold"
        fill="#CFAE58" letter-spacing="4" filter="url(#glow)">ROYAL KETA</text>

  <!-- Russian tagline -->
  <text x="280" y="340" font-family="Arial, sans-serif" font-size="22" font-style="italic"
        fill="#8B95A1" opacity="0.8">От икринки к королевской</text>

  <!-- Location -->
  <text x="280" y="380" font-family="Arial, sans-serif" font-size="20"
        fill="#8B95A1" opacity="0.7">Невельский район, Сахалин</text>

  <!-- Website with glow -->
  <text x="100" y="570" font-family="Arial, sans-serif" font-size="30" font-weight="bold"
        fill="#4FD1C5" filter="url(#glow)">royalketa.com</text>

  <!-- Enhanced decorative salmon silhouette -->
  <g transform="translate(950, 480)" opacity="0.2" filter="url(#softGlow)">
    <ellipse cx="0" cy="0" rx="90" ry="35" fill="#CFAE58"/>
    <path d="M 90 0 L 120 -18 L 130 0 L 120 18 Z" fill="#CFAE58"/>
    <path d="M -25 -35 L 0 -45 L 25 -35 Z" fill="#CFAE58"/>
    <ellipse cx="-50" cy="0" rx="15" ry="12" fill="#0B0F14"/>
  </g>

  <!-- Additional decorative caviar clusters -->
  <g opacity="0.2">
    <circle cx="1050" cy="120" r="6" fill="#CFAE58"/>
    <circle cx="1065" cy="115" r="5" fill="#CFAE58"/>
    <circle cx="1058" cy="130" r="4" fill="#CFAE58"/>
    <circle cx="150" cy="500" r="5" fill="#4FD1C5"/>
    <circle cx="165" cy="508" r="4" fill="#4FD1C5"/>
    <circle cx="140" cy="512" r="5" fill="#4FD1C5"/>
  </g>
</svg>