<svg width="1200" height="630" xmlns="http://www.w3.org/2000/svg">
  <defs>
    <linearGradient id="bgGradient" x1="0%" y1="0%" x2="100%" y2="100%">
      <stop offset="0%" style="stop-color:#0B0F14;stop-opacity:1" />
      <stop offset="50%" style="stop-color:#0F1619;stop-opacity:1" />
      <stop offset="100%" style="stop-color:#0F1922;stop-opacity:1" />
    </linearGradient>
    <linearGradient id="goldGradient" x1="0%" y1="0%" x2="100%" y2="0%">
      <stop offset="0%" style="stop-color:#E5D596;stop-opacity:1" />
      <stop offset="50%" style="stop-color:#CFAE58;stop-opacity:1" />
      <stop offset="100%" style="stop-color:#B89842;stop-opacity:1" />
    </linearGradient>
    <radialGradient id="oceanGradient" cx="50%" cy="50%" r="50%">
      <stop offset="0%" style="stop-color:#4FD1C5;stop-opacity:0.3" />
      <stop offset="100%" style="stop-color:#1E90A0;stop-opacity:0.05" />
    </radialGradient>
    <filter id="glow">
      <feGaussianBlur stdDeviation="5" result="coloredBlur"/>
      <feMerge>
        <feMergeNode in="coloredBlur"/>
        <feMergeNode in="SourceGraphic"/>
      </feMerge>
    </filter>
    <filter id="softGlow">
      <feGaussianBlur stdDeviation="8" result="coloredBlur"/>
      <feMerge>
        <feMergeNode in="coloredBlur"/>
        <feMergeNode in="SourceGraphic"/>
      </feMerge>
    </filter>
    <filter id="shadow">
      <feDropShadow dx="0" dy="4" stdDeviation="8" flood-color="#000000" flood-opacity="0.5"/>
    </filter>
  </defs>

  <!-- Background -->
  <rect width="1200" height="630" fill="url(#bgGradient)"/>

  <!-- Decorative ocean gradients -->
  <ellipse cx="1000" cy="150" rx="300" ry="200" fill="url(#oceanGradient)" opacity="0.4"/>
  <ellipse cx="200" cy="530" rx="250" ry="180" fill="url(#oceanGradient)" opacity="0.3"/>

  <!-- Wave patterns -->
  <path d="M 0 400 Q 300 350 600 400 T 1200 400 L 1200 630 L 0 630 Z" fill="#1E90A0" opacity="0.08"/>
  <path d="M 0 450 Q 250 420 500 450 T 1000 450 T 1200 450 L 1200 630 L 0 630 Z" fill="#4FD1C5" opacity="0.05"/>

  <!-- Caviar roe particles -->
  <circle cx="106.65256035926478" cy="470.05820600434987" r="4.740736973771726" fill="#CFAE58" opacity="0.16991589790435002"/>
  <circle cx="176.83052877759923" cy="323.2979900926701" r="2.092850512064112" fill="#CFAE58" opacity="0.2292002800512645"/>
  <circle cx="105.0821984792055" cy="308.18936733783346" r="4.9331506805751495" fill="#CFAE58" opacity="0.10182075092529191"/>
  <circle cx="480.3707414391832" cy="301.39530855787564" r="4.610277047472917" fill="#CFAE58" opacity="0.13356158539131618"/>
  <circle cx="962.3428808635639" cy="537.8574758152097" r="3.66291260287988" fill="#CFAE58" opacity="0.18628886591091942"/>
  <circle cx="272.4198478493764" cy="588.6846892044814" r="2.6582965832932457" fill="#CFAE58" opacity="0.23891373556205725"/>
  <circle cx="790.1668218752219" cy="281.56767578810343" r="3.6016992264905143" fill="#CFAE58" opacity="0.17463545954326243"/>
  <circle cx="869.7822513624317" cy="472.9966505655268" r="2.5937821264280134" fill="#CFAE58" opacity="0.2397638684631442"/>
  <circle cx="893.8954460163922" cy="154.97935316327187" r="3.425139359187094" fill="#CFAE58" opacity="0.19467131674992594"/>
  <circle cx="179.74846791292677" cy="401.32868894676614" r="3.2935632905370884" fill="#CFAE58" opacity="0.19221118850456495"/>
  <circle cx="793.3841803151466" cy="296.982036680518" r="4.689584966390335" fill="#CFAE58" opacity="0.2378912612693367"/>
  <circle cx="898.7252672042042" cy="96.30501687383563" r="2.0769112640126197" fill="#CFAE58" opacity="0.1626187494768601"/>
  <circle cx="853.5722986797773" cy="625.5969388499639" r="4.605973688696054" fill="#CFAE58" opacity="0.1915794271541617"/>
  <circle cx="379.7931318306885" cy="8.632718195286596" r="5.835865333627034" fill="#CFAE58" opacity="0.19233986293564692"/>
  <circle cx="862.9530166895938" cy="286.5507664435796" r="3.9638498756676848" fill="#CFAE58" opacity="0.14563934683550284"/>
  <circle cx="780.5971511448115" cy="550.6459712422854" r="3.5169802164901363" fill="#CFAE58" opacity="0.24237096245712844"/>
  <circle cx="451.2245109387139" cy="345.6146032524074" r="3.5924346630374924" fill="#CFAE58" opacity="0.11841779884100925"/>
  <circle cx="88.19552529356037" cy="602.2379973930507" r="4.2477166237243" fill="#CFAE58" opacity="0.13764740045665616"/>
  <circle cx="23.75876300599988" cy="46.807930762470214" r="2.099973709215592" fill="#CFAE58" opacity="0.2168768254641317"/>
  <circle cx="1038.5390441365785" cy="215.0714505795045" r="5.349756413203905" fill="#CFAE58" opacity="0.13824793847162525"/>
  <circle cx="1140.5368412591124" cy="327.16283620746026" r="4.262662841814477" fill="#CFAE58" opacity="0.2317486218808708"/>
  <circle cx="134.42722674315175" cy="534.5602764735456" r="4.563428583707965" fill="#CFAE58" opacity="0.15736989580225827"/>
  <circle cx="30.39332830375865" cy="168.15471029800904" r="5.925879823844346" fill="#CFAE58" opacity="0.21481121458755417"/>
  <circle cx="1018.7415908423712" cy="153.88393150904852" r="2.451004495947802" fill="#CFAE58" opacity="0.1305310860921225"/>
  <circle cx="290.50342926409667" cy="320.88589580376816" r="4.896663201970282" fill="#CFAE58" opacity="0.18540430069744362"/>
  <circle cx="1181.6729780497653" cy="560.5017637794546" r="2.567889801322595" fill="#CFAE58" opacity="0.17850166426895858"/>
  <circle cx="144.20639242111534" cy="242.4465769059815" r="2.4926921796246813" fill="#CFAE58" opacity="0.2058511934479485"/>
  <circle cx="312.91121203270137" cy="214.9008437065676" r="3.0964376102072295" fill="#CFAE58" opacity="0.13447726077806385"/>
  <circle cx="182.63173367007144" cy="448.8278709620205" r="4.926139436333239" fill="#CFAE58" opacity="0.24800518651522804"/>
  <circle cx="197.73594324333374" cy="585.5466301497725" r="3.5538852898317894" fill="#CFAE58" opacity="0.12679009385043527"/>

  <!-- Border with glow -->
  <rect x="40" y="40" width="1120" height="550" fill="none" stroke="url(#goldGradient)" stroke-width="3" rx="12" filter="url(#softGlow)"/>

  <!-- Icon circle with premium background -->
  <circle cx="150" cy="200" r="75" fill="#CFAE58" opacity="0.15" filter="url(#softGlow)"/>
  <circle cx="150" cy="200" r="70" fill="#CFAE58" opacity="0.25"/>
  <text x="150" y="235" font-size="90" text-anchor="middle" fill="#CFAE58" filter="url(#glow)">📈</text>

  <!-- Premium logo (crown) with enhanced styling -->
  <g transform="translate(100, 70)">
    <path d="M 30 20 L 40 35 L 35 35 Z M 50 15 L 60 35 L 45 35 Z M 65 20 L 75 35 L 70 35 Z M 30 35 L 75 35 L 73 45 L 32 45 Z"
          fill="url(#goldGradient)" filter="url(#glow)" stroke="#B89842" stroke-width="0.5"/>
    <circle cx="40" cy="25" r="3" fill="#4FD1C5" filter="url(#glow)"/>
    <circle cx="52" cy="20" r="4" fill="#4FD1C5" filter="url(#glow)"/>
    <circle cx="65" cy="25" r="3" fill="#4FD1C5" filter="url(#glow)"/>
  </g>

  <!-- Title with shadow -->
  <text x="280" y="180" font-family="Georgia, serif" font-size="72" font-weight="bold"
        fill="url(#goldGradient)" filter="url(#shadow)">Investment Opportunities</text>

  <!-- Subtitle with subtle glow -->
  <text x="280" y="230" font-family="Arial, sans-serif" font-size="36"
        fill="#D6DEE6" opacity="0.95" filter="url(#softGlow)">Models A/B/C/D Returns</text>

  <!-- Brand name with letter spacing -->
  <text x="280" y="300" font-family="Georgia, serif" font-size="32" font-weight="bold"
        fill="#CFAE58" letter-spacing="4" filter="url(#glow)">ROYAL KETA</text>

  <!-- Russian tagline -->
  <text x="280" y="340" font-family="Arial, sans-serif" font-size="22" font-style="italic"
        fill="#8B95A1" opacity="0.8">От икринки к королевской</text>

  <!-- Location -->
  <text x="280" y="380" font-family="Arial, sans-serif" font-size="20"
        fill="#8B95A1" opacity="0.7">Невельский район, Сахалин</text>

  <!-- Website with glow -->
  <text x="100" y="570" font-family="Arial, sans-serif" font-size="30" font-weight="bold"
        fill="#4FD1C5" filter="url(#glow)">royalketa.com</text>

  <!-- Enhanced decorative salmon silhouette -->
  <g transform="translate(950, 480)" opacity="0.2" filter="url(#softGlow)">
    <ellipse cx="0" cy="0" rx="90" ry="35" fill="#CFAE58"/>
    <path d="M 90 0 L 120 -18 L 130 0 L 120 18 Z" fill="#CFAE58"/>
    <path d="M -25 -35 L 0 -45 L 25 -35 Z" fill="#CFAE58"/>
    <ellipse cx="-50" cy="0" rx="15" ry="12" fill="#0B0F14"/>
  </g>

  <!-- Additional decorative caviar clusters -->
  <g opacity="0.2">
    <circle cx="1050" cy="120" r="6" fill="#CFAE58"/>
    <circle cx="1065" cy="115" r="5" fill="#CFAE58"/>
    <circle cx="1058" cy="130" r="4" fill="#CFAE58"/>
    <circle cx="150" cy="500" r="5" fill="#4FD1C5"/>
    <circle cx="165" cy="508" r="4" fill="#4FD1C5"/>
    <circle cx="140" cy="512" r="5" fill="#4FD1C5"/>
  </g>
</svg>