<svg width="1200" height="630" xmlns="http://www.w3.org/2000/svg">
  <defs>
    <linearGradient id="bgGradient" x1="0%" y1="0%" x2="100%" y2="100%">
      <stop offset="0%" style="stop-color:#0B0F14;stop-opacity:1" />
      <stop offset="50%" style="stop-color:#0F1619;stop-opacity:1" />
      <stop offset="100%" style="stop-color:#0F1922;stop-opacity:1" />
    </linearGradient>
    <linearGradient id="goldGradient" x1="0%" y1="0%" x2="100%" y2="0%">
      <stop offset="0%" style="stop-color:#E5D596;stop-opacity:1" />
      <stop offset="50%" style="stop-color:#CFAE58;stop-opacity:1" />
      <stop offset="100%" style="stop-color:#B89842;stop-opacity:1" />
    </linearGradient>
    <radialGradient id="oceanGradient" cx="50%" cy="50%" r="50%">
      <stop offset="0%" style="stop-color:#4FD1C5;stop-opacity:0.3" />
      <stop offset="100%" style="stop-color:#1E90A0;stop-opacity:0.05" />
    </radialGradient>
    <filter id="glow">
      <feGaussianBlur stdDeviation="5" result="coloredBlur"/>
      <feMerge>
        <feMergeNode in="coloredBlur"/>
        <feMergeNode in="SourceGraphic"/>
      </feMerge>
    </filter>
    <filter id="softGlow">
      <feGaussianBlur stdDeviation="8" result="coloredBlur"/>
      <feMerge>
        <feMergeNode in="coloredBlur"/>
        <feMergeNode in="SourceGraphic"/>
      </feMerge>
    </filter>
    <filter id="shadow">
      <feDropShadow dx="0" dy="4" stdDeviation="8" flood-color="#000000" flood-opacity="0.5"/>
    </filter>
  </defs>

  <!-- Background -->
  <rect width="1200" height="630" fill="url(#bgGradient)"/>

  <!-- Decorative ocean gradients -->
  <ellipse cx="1000" cy="150" rx="300" ry="200" fill="url(#oceanGradient)" opacity="0.4"/>
  <ellipse cx="200" cy="530" rx="250" ry="180" fill="url(#oceanGradient)" opacity="0.3"/>

  <!-- Wave patterns -->
  <path d="M 0 400 Q 300 350 600 400 T 1200 400 L 1200 630 L 0 630 Z" fill="#1E90A0" opacity="0.08"/>
  <path d="M 0 450 Q 250 420 500 450 T 1000 450 T 1200 450 L 1200 630 L 0 630 Z" fill="#4FD1C5" opacity="0.05"/>

  <!-- Caviar roe particles -->
  <circle cx="831.4771067333778" cy="460.28540247828715" r="3.1745239519768864" fill="#CFAE58" opacity="0.22424325003474965"/>
  <circle cx="478.37490653958463" cy="1.9283676200687871" r="2.126817909715304" fill="#CFAE58" opacity="0.10673840665259159"/>
  <circle cx="1144.1963148425511" cy="345.1284938578771" r="5.573646360199632" fill="#CFAE58" opacity="0.15007965401327877"/>
  <circle cx="896.918686441566" cy="79.1752108509784" r="2.2619355017687077" fill="#CFAE58" opacity="0.17260407733445476"/>
  <circle cx="1038.5640211301286" cy="419.31948060853307" r="5.363920034192174" fill="#CFAE58" opacity="0.1720186894587257"/>
  <circle cx="570.8195442676483" cy="365.0885489856487" r="3.483831739833904" fill="#CFAE58" opacity="0.2487039068290159"/>
  <circle cx="474.67557554504475" cy="285.9267905205668" r="3.0944124896116794" fill="#CFAE58" opacity="0.1280237576433048"/>
  <circle cx="398.26401314859396" cy="64.45604311315613" r="4.219873310691308" fill="#CFAE58" opacity="0.21929168177568858"/>
  <circle cx="761.678389774704" cy="271.64694799862946" r="4.994562841438244" fill="#CFAE58" opacity="0.1094886855658016"/>
  <circle cx="376.399040142371" cy="315.71630275641866" r="2.358357800009623" fill="#CFAE58" opacity="0.13389760885607913"/>
  <circle cx="1113.4063855006452" cy="230.6027566647539" r="5.401585298601852" fill="#CFAE58" opacity="0.1343589141018049"/>
  <circle cx="867.8022411808109" cy="302.23516149101005" r="2.936706051253603" fill="#CFAE58" opacity="0.13193927050757115"/>
  <circle cx="840.4276003465567" cy="536.8998665781676" r="3.5952277471785505" fill="#CFAE58" opacity="0.24160522764698153"/>
  <circle cx="787.8166077544656" cy="298.71462355523886" r="4.594782097964595" fill="#CFAE58" opacity="0.11193351972671621"/>
  <circle cx="966.6012505830562" cy="508.6434484880068" r="4.852958064616239" fill="#CFAE58" opacity="0.13756426964968432"/>
  <circle cx="1008.4735581738416" cy="95.22597156876252" r="4.675295521836327" fill="#CFAE58" opacity="0.16066117729466523"/>
  <circle cx="267.4422683370788" cy="564.4583680913637" r="3.528299208003828" fill="#CFAE58" opacity="0.19690832136748224"/>
  <circle cx="176.09580228392332" cy="548.3503450922669" r="4.525460412508674" fill="#CFAE58" opacity="0.171408772935069"/>
  <circle cx="1004.4043143623967" cy="44.79320368051641" r="3.515518494942514" fill="#CFAE58" opacity="0.11149915541259596"/>
  <circle cx="316.4145742732409" cy="526.091519537262" r="5.028483553938338" fill="#CFAE58" opacity="0.1717434841019304"/>
  <circle cx="539.8782897142851" cy="237.22004639501313" r="4.151951601626927" fill="#CFAE58" opacity="0.14900386444034802"/>
  <circle cx="503.2352961149873" cy="326.74500861631975" r="3.697451359111282" fill="#CFAE58" opacity="0.13787809597075515"/>
  <circle cx="569.8827744922617" cy="395.292336698715" r="2.8819493674888266" fill="#CFAE58" opacity="0.22447655140165781"/>
  <circle cx="954.94425132437" cy="56.38467102882422" r="4.845088681702695" fill="#CFAE58" opacity="0.17100597353334002"/>
  <circle cx="907.8904616626367" cy="345.7261437123895" r="4.52957531104065" fill="#CFAE58" opacity="0.20423142214886802"/>
  <circle cx="290.8725042122958" cy="16.240215098816893" r="5.026669966290028" fill="#CFAE58" opacity="0.13789071791305318"/>
  <circle cx="1141.2552519215794" cy="601.1451382900256" r="5.870519609241687" fill="#CFAE58" opacity="0.11110200404716636"/>
  <circle cx="107.01026221559431" cy="271.6580762304931" r="2.451325126616431" fill="#CFAE58" opacity="0.22189700546671826"/>
  <circle cx="810.4853689937189" cy="545.8206339567605" r="2.485352244666557" fill="#CFAE58" opacity="0.20107867892510728"/>
  <circle cx="1064.759061141313" cy="167.57912265211846" r="4.424889676383863" fill="#CFAE58" opacity="0.20554498585631048"/>

  <!-- Border with glow -->
  <rect x="40" y="40" width="1120" height="550" fill="none" stroke="url(#goldGradient)" stroke-width="3" rx="12" filter="url(#softGlow)"/>

  <!-- Icon circle with premium background -->
  <circle cx="150" cy="200" r="75" fill="#CFAE58" opacity="0.15" filter="url(#softGlow)"/>
  <circle cx="150" cy="200" r="70" fill="#CFAE58" opacity="0.25"/>
  <text x="150" y="235" font-size="90" text-anchor="middle" fill="#CFAE58" filter="url(#glow)">📈</text>

  <!-- Premium logo (crown) with enhanced styling -->
  <g transform="translate(100, 70)">
    <path d="M 30 20 L 40 35 L 35 35 Z M 50 15 L 60 35 L 45 35 Z M 65 20 L 75 35 L 70 35 Z M 30 35 L 75 35 L 73 45 L 32 45 Z"
          fill="url(#goldGradient)" filter="url(#glow)" stroke="#B89842" stroke-width="0.5"/>
    <circle cx="40" cy="25" r="3" fill="#4FD1C5" filter="url(#glow)"/>
    <circle cx="52" cy="20" r="4" fill="#4FD1C5" filter="url(#glow)"/>
    <circle cx="65" cy="25" r="3" fill="#4FD1C5" filter="url(#glow)"/>
  </g>

  <!-- Title with shadow -->
  <text x="280" y="180" font-family="Georgia, serif" font-size="72" font-weight="bold"
        fill="url(#goldGradient)" filter="url(#shadow)">Investment Opportunities</text>

  <!-- Subtitle with subtle glow -->
  <text x="280" y="230" font-family="Arial, sans-serif" font-size="36"
        fill="#D6DEE6" opacity="0.95" filter="url(#softGlow)">Models A/B/C/D Returns</text>

  <!-- Brand name with letter spacing -->
  <text x="280" y="300" font-family="Georgia, serif" font-size="32" font-weight="bold"
        fill="#CFAE58" letter-spacing="4" filter="url(#glow)">ROYAL KETA</text>

  <!-- Russian tagline -->
  <text x="280" y="340" font-family="Arial, sans-serif" font-size="22" font-style="italic"
        fill="#8B95A1" opacity="0.8">От икринки к королевской</text>

  <!-- Location -->
  <text x="280" y="380" font-family="Arial, sans-serif" font-size="20"
        fill="#8B95A1" opacity="0.7">Невельский район, Сахалин</text>

  <!-- Website with glow -->
  <text x="100" y="570" font-family="Arial, sans-serif" font-size="30" font-weight="bold"
        fill="#4FD1C5" filter="url(#glow)">royalketa.com</text>

  <!-- Enhanced decorative salmon silhouette -->
  <g transform="translate(950, 480)" opacity="0.2" filter="url(#softGlow)">
    <ellipse cx="0" cy="0" rx="90" ry="35" fill="#CFAE58"/>
    <path d="M 90 0 L 120 -18 L 130 0 L 120 18 Z" fill="#CFAE58"/>
    <path d="M -25 -35 L 0 -45 L 25 -35 Z" fill="#CFAE58"/>
    <ellipse cx="-50" cy="0" rx="15" ry="12" fill="#0B0F14"/>
  </g>

  <!-- Additional decorative caviar clusters -->
  <g opacity="0.2">
    <circle cx="1050" cy="120" r="6" fill="#CFAE58"/>
    <circle cx="1065" cy="115" r="5" fill="#CFAE58"/>
    <circle cx="1058" cy="130" r="4" fill="#CFAE58"/>
    <circle cx="150" cy="500" r="5" fill="#4FD1C5"/>
    <circle cx="165" cy="508" r="4" fill="#4FD1C5"/>
    <circle cx="140" cy="512" r="5" fill="#4FD1C5"/>
  </g>
</svg>