<svg width="1200" height="630" xmlns="http://www.w3.org/2000/svg">
  <defs>
    <linearGradient id="bgGradient" x1="0%" y1="0%" x2="100%" y2="100%">
      <stop offset="0%" style="stop-color:#0B0F14;stop-opacity:1" />
      <stop offset="50%" style="stop-color:#0F1619;stop-opacity:1" />
      <stop offset="100%" style="stop-color:#0F1922;stop-opacity:1" />
    </linearGradient>
    <linearGradient id="goldGradient" x1="0%" y1="0%" x2="100%" y2="0%">
      <stop offset="0%" style="stop-color:#E5D596;stop-opacity:1" />
      <stop offset="50%" style="stop-color:#CFAE58;stop-opacity:1" />
      <stop offset="100%" style="stop-color:#B89842;stop-opacity:1" />
    </linearGradient>
    <radialGradient id="oceanGradient" cx="50%" cy="50%" r="50%">
      <stop offset="0%" style="stop-color:#4FD1C5;stop-opacity:0.3" />
      <stop offset="100%" style="stop-color:#1E90A0;stop-opacity:0.05" />
    </radialGradient>
    <filter id="glow">
      <feGaussianBlur stdDeviation="5" result="coloredBlur"/>
      <feMerge>
        <feMergeNode in="coloredBlur"/>
        <feMergeNode in="SourceGraphic"/>
      </feMerge>
    </filter>
    <filter id="softGlow">
      <feGaussianBlur stdDeviation="8" result="coloredBlur"/>
      <feMerge>
        <feMergeNode in="coloredBlur"/>
        <feMergeNode in="SourceGraphic"/>
      </feMerge>
    </filter>
    <filter id="shadow">
      <feDropShadow dx="0" dy="4" stdDeviation="8" flood-color="#000000" flood-opacity="0.5"/>
    </filter>
  </defs>

  <!-- Background -->
  <rect width="1200" height="630" fill="url(#bgGradient)"/>

  <!-- Decorative ocean gradients -->
  <ellipse cx="1000" cy="150" rx="300" ry="200" fill="url(#oceanGradient)" opacity="0.4"/>
  <ellipse cx="200" cy="530" rx="250" ry="180" fill="url(#oceanGradient)" opacity="0.3"/>

  <!-- Wave patterns -->
  <path d="M 0 400 Q 300 350 600 400 T 1200 400 L 1200 630 L 0 630 Z" fill="#1E90A0" opacity="0.08"/>
  <path d="M 0 450 Q 250 420 500 450 T 1000 450 T 1200 450 L 1200 630 L 0 630 Z" fill="#4FD1C5" opacity="0.05"/>

  <!-- Caviar roe particles -->
  <circle cx="1005.7398083525434" cy="76.07110142328764" r="4.83959698278383" fill="#CFAE58" opacity="0.2261130062219572"/>
  <circle cx="856.834577932331" cy="47.545213948833734" r="4.567286494808329" fill="#CFAE58" opacity="0.19742999197989597"/>
  <circle cx="592.8230504193601" cy="47.851054706657315" r="4.303951737430568" fill="#CFAE58" opacity="0.23190773807800852"/>
  <circle cx="984.0971430449381" cy="502.95582789633653" r="5.694357368867077" fill="#CFAE58" opacity="0.15172490722067755"/>
  <circle cx="52.05398751741406" cy="118.08568319918459" r="4.111918754471865" fill="#CFAE58" opacity="0.16819873801753105"/>
  <circle cx="254.89851525662272" cy="455.3531942150931" r="2.197317368875215" fill="#CFAE58" opacity="0.24736412713480296"/>
  <circle cx="609.8673045041224" cy="207.79009140807355" r="5.943320829731584" fill="#CFAE58" opacity="0.22099679829704139"/>
  <circle cx="43.79671562547589" cy="380.8394931662454" r="4.018713032170382" fill="#CFAE58" opacity="0.18391395654316342"/>
  <circle cx="914.6652509624913" cy="68.7005539341024" r="3.848772850996002" fill="#CFAE58" opacity="0.12425103668527036"/>
  <circle cx="164.6789767213595" cy="473.92594327590183" r="2.709705738106069" fill="#CFAE58" opacity="0.24508850162723744"/>
  <circle cx="812.1081544779827" cy="73.75679917174841" r="5.31457252223364" fill="#CFAE58" opacity="0.23461683702698233"/>
  <circle cx="142.4600869311651" cy="178.15208582200665" r="2.913529121251683" fill="#CFAE58" opacity="0.12619724934818494"/>
  <circle cx="114.59828243838271" cy="586.6391084291124" r="2.440017182805698" fill="#CFAE58" opacity="0.22570979255926926"/>
  <circle cx="716.1222441528737" cy="468.6772359859549" r="3.3163892971946556" fill="#CFAE58" opacity="0.21649595810638872"/>
  <circle cx="779.3472584386355" cy="464.9300983707113" r="5.4945811127068716" fill="#CFAE58" opacity="0.20687772928543213"/>
  <circle cx="309.8595387423534" cy="207.62339879170466" r="4.937976677463025" fill="#CFAE58" opacity="0.10436754705231172"/>
  <circle cx="577.4243476030395" cy="225.2214548740936" r="2.6649222562980297" fill="#CFAE58" opacity="0.12075347283727614"/>
  <circle cx="959.2360168368067" cy="227.6032009416703" r="3.527529688761758" fill="#CFAE58" opacity="0.1814848610211312"/>
  <circle cx="925.8477952249984" cy="265.09805935145465" r="3.93884030391151" fill="#CFAE58" opacity="0.24386344343691974"/>
  <circle cx="813.3446418101145" cy="494.48197920735873" r="5.665296345904521" fill="#CFAE58" opacity="0.21985180855004338"/>
  <circle cx="801.7558409308226" cy="499.121254275781" r="2.1698700990878104" fill="#CFAE58" opacity="0.1502232656154589"/>
  <circle cx="648.1680153973736" cy="285.522122762375" r="2.3539595173509174" fill="#CFAE58" opacity="0.1786731403017684"/>
  <circle cx="763.3408350301536" cy="531.7484511770006" r="4.9891160829452375" fill="#CFAE58" opacity="0.1994842375576636"/>
  <circle cx="900.7012136107631" cy="19.761879556963024" r="3.032613058048992" fill="#CFAE58" opacity="0.199082694414442"/>
  <circle cx="538.1670410798697" cy="175.05582253298263" r="5.1982416981099915" fill="#CFAE58" opacity="0.17085981280913215"/>
  <circle cx="188.54436081388482" cy="117.08344974614134" r="5.325071251771866" fill="#CFAE58" opacity="0.1490851520053783"/>
  <circle cx="1010.1092311324102" cy="315.6627002085388" r="3.208475162144996" fill="#CFAE58" opacity="0.20794584973450186"/>
  <circle cx="636.2944290938057" cy="445.3629628749561" r="3.7472693260387118" fill="#CFAE58" opacity="0.22772813459216165"/>
  <circle cx="986.362465616912" cy="427.7215456249439" r="3.440477914304899" fill="#CFAE58" opacity="0.2134893629910289"/>
  <circle cx="1179.775199770729" cy="481.8345576301895" r="3.08536505154148" fill="#CFAE58" opacity="0.1522320307511222"/>

  <!-- Border with glow -->
  <rect x="40" y="40" width="1120" height="550" fill="none" stroke="url(#goldGradient)" stroke-width="3" rx="12" filter="url(#softGlow)"/>

  <!-- Icon circle with premium background -->
  <circle cx="150" cy="200" r="75" fill="#CFAE58" opacity="0.15" filter="url(#softGlow)"/>
  <circle cx="150" cy="200" r="70" fill="#CFAE58" opacity="0.25"/>
  <text x="150" y="235" font-size="90" text-anchor="middle" fill="#CFAE58" filter="url(#glow)">📈</text>

  <!-- Premium logo (crown) with enhanced styling -->
  <g transform="translate(100, 70)">
    <path d="M 30 20 L 40 35 L 35 35 Z M 50 15 L 60 35 L 45 35 Z M 65 20 L 75 35 L 70 35 Z M 30 35 L 75 35 L 73 45 L 32 45 Z"
          fill="url(#goldGradient)" filter="url(#glow)" stroke="#B89842" stroke-width="0.5"/>
    <circle cx="40" cy="25" r="3" fill="#4FD1C5" filter="url(#glow)"/>
    <circle cx="52" cy="20" r="4" fill="#4FD1C5" filter="url(#glow)"/>
    <circle cx="65" cy="25" r="3" fill="#4FD1C5" filter="url(#glow)"/>
  </g>

  <!-- Title with shadow -->
  <text x="280" y="180" font-family="Georgia, serif" font-size="72" font-weight="bold"
        fill="url(#goldGradient)" filter="url(#shadow)">Investment Opportunities</text>

  <!-- Subtitle with subtle glow -->
  <text x="280" y="230" font-family="Arial, sans-serif" font-size="36"
        fill="#D6DEE6" opacity="0.95" filter="url(#softGlow)">Models A/B/C/D Returns</text>

  <!-- Brand name with letter spacing -->
  <text x="280" y="300" font-family="Georgia, serif" font-size="32" font-weight="bold"
        fill="#CFAE58" letter-spacing="4" filter="url(#glow)">ROYAL KETA</text>

  <!-- Russian tagline -->
  <text x="280" y="340" font-family="Arial, sans-serif" font-size="22" font-style="italic"
        fill="#8B95A1" opacity="0.8">От икринки к королевской</text>

  <!-- Location -->
  <text x="280" y="380" font-family="Arial, sans-serif" font-size="20"
        fill="#8B95A1" opacity="0.7">Невельский район, Сахалин</text>

  <!-- Website with glow -->
  <text x="100" y="570" font-family="Arial, sans-serif" font-size="30" font-weight="bold"
        fill="#4FD1C5" filter="url(#glow)">royalketa.com</text>

  <!-- Enhanced decorative salmon silhouette -->
  <g transform="translate(950, 480)" opacity="0.2" filter="url(#softGlow)">
    <ellipse cx="0" cy="0" rx="90" ry="35" fill="#CFAE58"/>
    <path d="M 90 0 L 120 -18 L 130 0 L 120 18 Z" fill="#CFAE58"/>
    <path d="M -25 -35 L 0 -45 L 25 -35 Z" fill="#CFAE58"/>
    <ellipse cx="-50" cy="0" rx="15" ry="12" fill="#0B0F14"/>
  </g>

  <!-- Additional decorative caviar clusters -->
  <g opacity="0.2">
    <circle cx="1050" cy="120" r="6" fill="#CFAE58"/>
    <circle cx="1065" cy="115" r="5" fill="#CFAE58"/>
    <circle cx="1058" cy="130" r="4" fill="#CFAE58"/>
    <circle cx="150" cy="500" r="5" fill="#4FD1C5"/>
    <circle cx="165" cy="508" r="4" fill="#4FD1C5"/>
    <circle cx="140" cy="512" r="5" fill="#4FD1C5"/>
  </g>
</svg>