<svg width="1200" height="630" xmlns="http://www.w3.org/2000/svg">
  <defs>
    <linearGradient id="bgGradient" x1="0%" y1="0%" x2="100%" y2="100%">
      <stop offset="0%" style="stop-color:#0B0F14;stop-opacity:1" />
      <stop offset="50%" style="stop-color:#0F1619;stop-opacity:1" />
      <stop offset="100%" style="stop-color:#0F1922;stop-opacity:1" />
    </linearGradient>
    <linearGradient id="goldGradient" x1="0%" y1="0%" x2="100%" y2="0%">
      <stop offset="0%" style="stop-color:#E5D596;stop-opacity:1" />
      <stop offset="50%" style="stop-color:#CFAE58;stop-opacity:1" />
      <stop offset="100%" style="stop-color:#B89842;stop-opacity:1" />
    </linearGradient>
    <radialGradient id="oceanGradient" cx="50%" cy="50%" r="50%">
      <stop offset="0%" style="stop-color:#4FD1C5;stop-opacity:0.3" />
      <stop offset="100%" style="stop-color:#1E90A0;stop-opacity:0.05" />
    </radialGradient>
    <filter id="glow">
      <feGaussianBlur stdDeviation="5" result="coloredBlur"/>
      <feMerge>
        <feMergeNode in="coloredBlur"/>
        <feMergeNode in="SourceGraphic"/>
      </feMerge>
    </filter>
    <filter id="softGlow">
      <feGaussianBlur stdDeviation="8" result="coloredBlur"/>
      <feMerge>
        <feMergeNode in="coloredBlur"/>
        <feMergeNode in="SourceGraphic"/>
      </feMerge>
    </filter>
    <filter id="shadow">
      <feDropShadow dx="0" dy="4" stdDeviation="8" flood-color="#000000" flood-opacity="0.5"/>
    </filter>
  </defs>

  <!-- Background -->
  <rect width="1200" height="630" fill="url(#bgGradient)"/>

  <!-- Decorative ocean gradients -->
  <ellipse cx="1000" cy="150" rx="300" ry="200" fill="url(#oceanGradient)" opacity="0.4"/>
  <ellipse cx="200" cy="530" rx="250" ry="180" fill="url(#oceanGradient)" opacity="0.3"/>

  <!-- Wave patterns -->
  <path d="M 0 400 Q 300 350 600 400 T 1200 400 L 1200 630 L 0 630 Z" fill="#1E90A0" opacity="0.08"/>
  <path d="M 0 450 Q 250 420 500 450 T 1000 450 T 1200 450 L 1200 630 L 0 630 Z" fill="#4FD1C5" opacity="0.05"/>

  <!-- Caviar roe particles -->
  <circle cx="493.5256678734394" cy="443.3943875263305" r="5.90104968252083" fill="#CFAE58" opacity="0.13561482624908333"/>
  <circle cx="1125.1187622878929" cy="240.66258499537273" r="2.4560964349484156" fill="#CFAE58" opacity="0.10965270561939727"/>
  <circle cx="1091.2686676809415" cy="120.18172301296866" r="4.29985060386067" fill="#CFAE58" opacity="0.21761274491636584"/>
  <circle cx="612.2284194868087" cy="389.876534042383" r="5.763863526444527" fill="#CFAE58" opacity="0.18860931352607468"/>
  <circle cx="777.5570524261557" cy="4.801651944552581" r="3.387570852167359" fill="#CFAE58" opacity="0.24983260602688767"/>
  <circle cx="91.66641810437292" cy="108.48686014915872" r="4.055549018240194" fill="#CFAE58" opacity="0.19831567464769256"/>
  <circle cx="292.3909810242149" cy="111.44985022005119" r="4.019209657005316" fill="#CFAE58" opacity="0.18321408870171402"/>
  <circle cx="826.2450811399415" cy="453.81867888239503" r="5.797203054986759" fill="#CFAE58" opacity="0.14336259375033233"/>
  <circle cx="1111.4341777439724" cy="235.6297077229916" r="4.263660018301785" fill="#CFAE58" opacity="0.2199825766250462"/>
  <circle cx="835.3460212351106" cy="106.75745851730566" r="4.209323443834193" fill="#CFAE58" opacity="0.1287537561091304"/>
  <circle cx="1165.8704665361458" cy="164.27663124694644" r="3.867037201338211" fill="#CFAE58" opacity="0.21487870712503215"/>
  <circle cx="541.6180735301547" cy="63.80358090635078" r="5.025448642252022" fill="#CFAE58" opacity="0.1658708987863306"/>
  <circle cx="27.945428476870937" cy="339.94027368732895" r="2.5151971265213433" fill="#CFAE58" opacity="0.18828832929475722"/>
  <circle cx="517.9361120812098" cy="40.439186424798635" r="4.529029786202182" fill="#CFAE58" opacity="0.22948416638783967"/>
  <circle cx="3.951572219522337" cy="6.396940713624593" r="3.4897744005341123" fill="#CFAE58" opacity="0.1600167912203462"/>
  <circle cx="861.8625008929823" cy="250.74966714177302" r="5.996632184729639" fill="#CFAE58" opacity="0.104176460745416"/>
  <circle cx="466.89542873637146" cy="361.7522521087187" r="2.6606096534727035" fill="#CFAE58" opacity="0.21513195313319317"/>
  <circle cx="612.2712742410561" cy="95.49173315723169" r="2.4266651852346186" fill="#CFAE58" opacity="0.15876717002471044"/>
  <circle cx="707.3783274342431" cy="480.73598420629247" r="2.308216225424639" fill="#CFAE58" opacity="0.12962506802962892"/>
  <circle cx="377.6516595763316" cy="504.8358298829972" r="2.266055369197951" fill="#CFAE58" opacity="0.18704884560126456"/>
  <circle cx="203.3593201777042" cy="96.28174619080319" r="2.7385917365940626" fill="#CFAE58" opacity="0.16152154882297676"/>
  <circle cx="1106.5866952714207" cy="583.1970067204749" r="4.958927031068944" fill="#CFAE58" opacity="0.11248949651767416"/>
  <circle cx="50.94875850835496" cy="101.48289616131603" r="4.484989994967397" fill="#CFAE58" opacity="0.16823596523087864"/>
  <circle cx="428.51424519679614" cy="323.0800335544211" r="4.144598158799586" fill="#CFAE58" opacity="0.13265073134265104"/>
  <circle cx="341.4784075448956" cy="623.1844560353528" r="4.447212296517991" fill="#CFAE58" opacity="0.170809765450389"/>
  <circle cx="447.50529259141405" cy="311.9746232104481" r="5.691419985048031" fill="#CFAE58" opacity="0.15801943439296445"/>
  <circle cx="709.6335546013898" cy="488.07974380660613" r="5.1330073358612305" fill="#CFAE58" opacity="0.24127863644082545"/>
  <circle cx="1176.6365661868836" cy="93.71443252660477" r="3.4095189704477296" fill="#CFAE58" opacity="0.18419373544652162"/>
  <circle cx="596.0201263272439" cy="608.3094607605567" r="4.638034881767997" fill="#CFAE58" opacity="0.14492643014565415"/>
  <circle cx="149.33023208751922" cy="255.77439420681216" r="3.4025941527235615" fill="#CFAE58" opacity="0.2166402216000096"/>

  <!-- Border with glow -->
  <rect x="40" y="40" width="1120" height="550" fill="none" stroke="url(#goldGradient)" stroke-width="3" rx="12" filter="url(#softGlow)"/>

  <!-- Icon circle with premium background -->
  <circle cx="150" cy="200" r="75" fill="#CFAE58" opacity="0.15" filter="url(#softGlow)"/>
  <circle cx="150" cy="200" r="70" fill="#CFAE58" opacity="0.25"/>
  <text x="150" y="235" font-size="90" text-anchor="middle" fill="#CFAE58" filter="url(#glow)">📈</text>

  <!-- Premium logo (crown) with enhanced styling -->
  <g transform="translate(100, 70)">
    <path d="M 30 20 L 40 35 L 35 35 Z M 50 15 L 60 35 L 45 35 Z M 65 20 L 75 35 L 70 35 Z M 30 35 L 75 35 L 73 45 L 32 45 Z"
          fill="url(#goldGradient)" filter="url(#glow)" stroke="#B89842" stroke-width="0.5"/>
    <circle cx="40" cy="25" r="3" fill="#4FD1C5" filter="url(#glow)"/>
    <circle cx="52" cy="20" r="4" fill="#4FD1C5" filter="url(#glow)"/>
    <circle cx="65" cy="25" r="3" fill="#4FD1C5" filter="url(#glow)"/>
  </g>

  <!-- Title with shadow -->
  <text x="280" y="180" font-family="Georgia, serif" font-size="72" font-weight="bold"
        fill="url(#goldGradient)" filter="url(#shadow)">Investment Opportunities</text>

  <!-- Subtitle with subtle glow -->
  <text x="280" y="230" font-family="Arial, sans-serif" font-size="36"
        fill="#D6DEE6" opacity="0.95" filter="url(#softGlow)">Models A/B/C/D Returns</text>

  <!-- Brand name with letter spacing -->
  <text x="280" y="300" font-family="Georgia, serif" font-size="32" font-weight="bold"
        fill="#CFAE58" letter-spacing="4" filter="url(#glow)">ROYAL KETA</text>

  <!-- Russian tagline -->
  <text x="280" y="340" font-family="Arial, sans-serif" font-size="22" font-style="italic"
        fill="#8B95A1" opacity="0.8">От икринки к королевской</text>

  <!-- Location -->
  <text x="280" y="380" font-family="Arial, sans-serif" font-size="20"
        fill="#8B95A1" opacity="0.7">Невельский район, Сахалин</text>

  <!-- Website with glow -->
  <text x="100" y="570" font-family="Arial, sans-serif" font-size="30" font-weight="bold"
        fill="#4FD1C5" filter="url(#glow)">royalketa.com</text>

  <!-- Enhanced decorative salmon silhouette -->
  <g transform="translate(950, 480)" opacity="0.2" filter="url(#softGlow)">
    <ellipse cx="0" cy="0" rx="90" ry="35" fill="#CFAE58"/>
    <path d="M 90 0 L 120 -18 L 130 0 L 120 18 Z" fill="#CFAE58"/>
    <path d="M -25 -35 L 0 -45 L 25 -35 Z" fill="#CFAE58"/>
    <ellipse cx="-50" cy="0" rx="15" ry="12" fill="#0B0F14"/>
  </g>

  <!-- Additional decorative caviar clusters -->
  <g opacity="0.2">
    <circle cx="1050" cy="120" r="6" fill="#CFAE58"/>
    <circle cx="1065" cy="115" r="5" fill="#CFAE58"/>
    <circle cx="1058" cy="130" r="4" fill="#CFAE58"/>
    <circle cx="150" cy="500" r="5" fill="#4FD1C5"/>
    <circle cx="165" cy="508" r="4" fill="#4FD1C5"/>
    <circle cx="140" cy="512" r="5" fill="#4FD1C5"/>
  </g>
</svg>