<svg width="1200" height="630" xmlns="http://www.w3.org/2000/svg">
  <defs>
    <linearGradient id="bgGradient" x1="0%" y1="0%" x2="100%" y2="100%">
      <stop offset="0%" style="stop-color:#0B0F14;stop-opacity:1" />
      <stop offset="50%" style="stop-color:#0F1619;stop-opacity:1" />
      <stop offset="100%" style="stop-color:#0F1922;stop-opacity:1" />
    </linearGradient>
    <linearGradient id="goldGradient" x1="0%" y1="0%" x2="100%" y2="0%">
      <stop offset="0%" style="stop-color:#E5D596;stop-opacity:1" />
      <stop offset="50%" style="stop-color:#CFAE58;stop-opacity:1" />
      <stop offset="100%" style="stop-color:#B89842;stop-opacity:1" />
    </linearGradient>
    <radialGradient id="oceanGradient" cx="50%" cy="50%" r="50%">
      <stop offset="0%" style="stop-color:#4FD1C5;stop-opacity:0.3" />
      <stop offset="100%" style="stop-color:#1E90A0;stop-opacity:0.05" />
    </radialGradient>
    <filter id="glow">
      <feGaussianBlur stdDeviation="5" result="coloredBlur"/>
      <feMerge>
        <feMergeNode in="coloredBlur"/>
        <feMergeNode in="SourceGraphic"/>
      </feMerge>
    </filter>
    <filter id="softGlow">
      <feGaussianBlur stdDeviation="8" result="coloredBlur"/>
      <feMerge>
        <feMergeNode in="coloredBlur"/>
        <feMergeNode in="SourceGraphic"/>
      </feMerge>
    </filter>
    <filter id="shadow">
      <feDropShadow dx="0" dy="4" stdDeviation="8" flood-color="#000000" flood-opacity="0.5"/>
    </filter>
  </defs>

  <!-- Background -->
  <rect width="1200" height="630" fill="url(#bgGradient)"/>

  <!-- Decorative ocean gradients -->
  <ellipse cx="1000" cy="150" rx="300" ry="200" fill="url(#oceanGradient)" opacity="0.4"/>
  <ellipse cx="200" cy="530" rx="250" ry="180" fill="url(#oceanGradient)" opacity="0.3"/>

  <!-- Wave patterns -->
  <path d="M 0 400 Q 300 350 600 400 T 1200 400 L 1200 630 L 0 630 Z" fill="#1E90A0" opacity="0.08"/>
  <path d="M 0 450 Q 250 420 500 450 T 1000 450 T 1200 450 L 1200 630 L 0 630 Z" fill="#4FD1C5" opacity="0.05"/>

  <!-- Caviar roe particles -->
  <circle cx="581.163010171548" cy="131.97328538068655" r="3.37257580741249" fill="#CFAE58" opacity="0.10583976662442718"/>
  <circle cx="1186.525674383495" cy="320.99774386499865" r="4.157305697666793" fill="#CFAE58" opacity="0.10912589486185213"/>
  <circle cx="212.8418912633815" cy="342.76835890119787" r="3.706502339043102" fill="#CFAE58" opacity="0.19036674175470597"/>
  <circle cx="1099.5075867538358" cy="599.4873574783768" r="4.772721127391402" fill="#CFAE58" opacity="0.2210662165039566"/>
  <circle cx="239.27540306794194" cy="151.03341155573605" r="4.729462446611578" fill="#CFAE58" opacity="0.17644403103215878"/>
  <circle cx="921.7424738091352" cy="100.59911384787729" r="2.4948577655630046" fill="#CFAE58" opacity="0.23252011239862666"/>
  <circle cx="327.84930045423636" cy="372.98187362557553" r="4.834044171729737" fill="#CFAE58" opacity="0.1345885175681919"/>
  <circle cx="889.3657497285714" cy="103.61507235500615" r="2.2056973474959083" fill="#CFAE58" opacity="0.2041974471107446"/>
  <circle cx="449.29958799395706" cy="523.2292512771252" r="2.1146209464725523" fill="#CFAE58" opacity="0.11586401077393164"/>
  <circle cx="625.8252526267166" cy="466.9208439043225" r="3.4610702502247803" fill="#CFAE58" opacity="0.2078444065668139"/>
  <circle cx="166.01826337874664" cy="265.9798167902321" r="2.1318584811965957" fill="#CFAE58" opacity="0.12114940140070994"/>
  <circle cx="59.89982524035131" cy="179.389139033365" r="2.557352735732658" fill="#CFAE58" opacity="0.11860817292815251"/>
  <circle cx="743.4393362725527" cy="626.3336401735265" r="3.013825954822999" fill="#CFAE58" opacity="0.22542619838635428"/>
  <circle cx="979.528752398784" cy="224.3049277065385" r="4.306106612589985" fill="#CFAE58" opacity="0.14067764081067288"/>
  <circle cx="394.78032743332324" cy="238.99553136010678" r="3.423787322321507" fill="#CFAE58" opacity="0.167003159808051"/>
  <circle cx="6.591390148832588" cy="152.9711556070003" r="3.3809721007628375" fill="#CFAE58" opacity="0.20345621417629556"/>
  <circle cx="538.8909246941012" cy="416.79037855684516" r="3.191383167327194" fill="#CFAE58" opacity="0.23781867723485342"/>
  <circle cx="232.23589724154544" cy="63.896638224068674" r="5.385965318988424" fill="#CFAE58" opacity="0.24549940031120682"/>
  <circle cx="177.42777163210656" cy="186.2186920023227" r="3.702266220958678" fill="#CFAE58" opacity="0.1982521147205776"/>
  <circle cx="118.0529339860056" cy="159.7014601290342" r="2.6397211276589103" fill="#CFAE58" opacity="0.11014839661817596"/>
  <circle cx="585.0261599384364" cy="202.81422345712528" r="4.84583310880295" fill="#CFAE58" opacity="0.2004921849670252"/>
  <circle cx="1077.9021220171498" cy="53.83160777261048" r="3.3913758567085783" fill="#CFAE58" opacity="0.16314957414882567"/>
  <circle cx="146.663929623647" cy="577.5733207967291" r="2.9247426070870755" fill="#CFAE58" opacity="0.22912393904510303"/>
  <circle cx="297.72875510908864" cy="13.898716829009421" r="3.5428735475891773" fill="#CFAE58" opacity="0.1190084090051063"/>
  <circle cx="1084.88712678564" cy="462.0984423728657" r="3.6179057271173796" fill="#CFAE58" opacity="0.24270274972812517"/>
  <circle cx="28.95349087806256" cy="484.8540436862142" r="5.590161872891562" fill="#CFAE58" opacity="0.16667981117849295"/>
  <circle cx="697.6058011071269" cy="319.86182312057645" r="4.143949322614652" fill="#CFAE58" opacity="0.24043565220571403"/>
  <circle cx="558.468685516365" cy="118.09771674470079" r="5.119864760818418" fill="#CFAE58" opacity="0.12636906094876013"/>
  <circle cx="880.7332016252924" cy="270.83139688978616" r="5.56399783857665" fill="#CFAE58" opacity="0.16500898410356876"/>
  <circle cx="734.1622478090662" cy="40.42919590141116" r="4.096934338615469" fill="#CFAE58" opacity="0.24875707186690124"/>

  <!-- Border with glow -->
  <rect x="40" y="40" width="1120" height="550" fill="none" stroke="url(#goldGradient)" stroke-width="3" rx="12" filter="url(#softGlow)"/>

  <!-- Icon circle with premium background -->
  <circle cx="150" cy="200" r="75" fill="#CFAE58" opacity="0.15" filter="url(#softGlow)"/>
  <circle cx="150" cy="200" r="70" fill="#CFAE58" opacity="0.25"/>
  <text x="150" y="235" font-size="90" text-anchor="middle" fill="#CFAE58" filter="url(#glow)">📈</text>

  <!-- Premium logo (crown) with enhanced styling -->
  <g transform="translate(100, 70)">
    <path d="M 30 20 L 40 35 L 35 35 Z M 50 15 L 60 35 L 45 35 Z M 65 20 L 75 35 L 70 35 Z M 30 35 L 75 35 L 73 45 L 32 45 Z"
          fill="url(#goldGradient)" filter="url(#glow)" stroke="#B89842" stroke-width="0.5"/>
    <circle cx="40" cy="25" r="3" fill="#4FD1C5" filter="url(#glow)"/>
    <circle cx="52" cy="20" r="4" fill="#4FD1C5" filter="url(#glow)"/>
    <circle cx="65" cy="25" r="3" fill="#4FD1C5" filter="url(#glow)"/>
  </g>

  <!-- Title with shadow -->
  <text x="280" y="180" font-family="Georgia, serif" font-size="72" font-weight="bold"
        fill="url(#goldGradient)" filter="url(#shadow)">Investment Opportunities</text>

  <!-- Subtitle with subtle glow -->
  <text x="280" y="230" font-family="Arial, sans-serif" font-size="36"
        fill="#D6DEE6" opacity="0.95" filter="url(#softGlow)">Models A/B/C/D Returns</text>

  <!-- Brand name with letter spacing -->
  <text x="280" y="300" font-family="Georgia, serif" font-size="32" font-weight="bold"
        fill="#CFAE58" letter-spacing="4" filter="url(#glow)">ROYAL KETA</text>

  <!-- Russian tagline -->
  <text x="280" y="340" font-family="Arial, sans-serif" font-size="22" font-style="italic"
        fill="#8B95A1" opacity="0.8">От икринки к королевской</text>

  <!-- Location -->
  <text x="280" y="380" font-family="Arial, sans-serif" font-size="20"
        fill="#8B95A1" opacity="0.7">Невельский район, Сахалин</text>

  <!-- Website with glow -->
  <text x="100" y="570" font-family="Arial, sans-serif" font-size="30" font-weight="bold"
        fill="#4FD1C5" filter="url(#glow)">royalketa.com</text>

  <!-- Enhanced decorative salmon silhouette -->
  <g transform="translate(950, 480)" opacity="0.2" filter="url(#softGlow)">
    <ellipse cx="0" cy="0" rx="90" ry="35" fill="#CFAE58"/>
    <path d="M 90 0 L 120 -18 L 130 0 L 120 18 Z" fill="#CFAE58"/>
    <path d="M -25 -35 L 0 -45 L 25 -35 Z" fill="#CFAE58"/>
    <ellipse cx="-50" cy="0" rx="15" ry="12" fill="#0B0F14"/>
  </g>

  <!-- Additional decorative caviar clusters -->
  <g opacity="0.2">
    <circle cx="1050" cy="120" r="6" fill="#CFAE58"/>
    <circle cx="1065" cy="115" r="5" fill="#CFAE58"/>
    <circle cx="1058" cy="130" r="4" fill="#CFAE58"/>
    <circle cx="150" cy="500" r="5" fill="#4FD1C5"/>
    <circle cx="165" cy="508" r="4" fill="#4FD1C5"/>
    <circle cx="140" cy="512" r="5" fill="#4FD1C5"/>
  </g>
</svg>