<svg width="1200" height="630" xmlns="http://www.w3.org/2000/svg">
  <defs>
    <linearGradient id="bgGradient" x1="0%" y1="0%" x2="100%" y2="100%">
      <stop offset="0%" style="stop-color:#0B0F14;stop-opacity:1" />
      <stop offset="50%" style="stop-color:#0F1619;stop-opacity:1" />
      <stop offset="100%" style="stop-color:#0F1922;stop-opacity:1" />
    </linearGradient>
    <linearGradient id="goldGradient" x1="0%" y1="0%" x2="100%" y2="0%">
      <stop offset="0%" style="stop-color:#E5D596;stop-opacity:1" />
      <stop offset="50%" style="stop-color:#CFAE58;stop-opacity:1" />
      <stop offset="100%" style="stop-color:#B89842;stop-opacity:1" />
    </linearGradient>
    <radialGradient id="oceanGradient" cx="50%" cy="50%" r="50%">
      <stop offset="0%" style="stop-color:#4FD1C5;stop-opacity:0.3" />
      <stop offset="100%" style="stop-color:#1E90A0;stop-opacity:0.05" />
    </radialGradient>
    <filter id="glow">
      <feGaussianBlur stdDeviation="5" result="coloredBlur"/>
      <feMerge>
        <feMergeNode in="coloredBlur"/>
        <feMergeNode in="SourceGraphic"/>
      </feMerge>
    </filter>
    <filter id="softGlow">
      <feGaussianBlur stdDeviation="8" result="coloredBlur"/>
      <feMerge>
        <feMergeNode in="coloredBlur"/>
        <feMergeNode in="SourceGraphic"/>
      </feMerge>
    </filter>
    <filter id="shadow">
      <feDropShadow dx="0" dy="4" stdDeviation="8" flood-color="#000000" flood-opacity="0.5"/>
    </filter>
  </defs>

  <!-- Background -->
  <rect width="1200" height="630" fill="url(#bgGradient)"/>

  <!-- Decorative ocean gradients -->
  <ellipse cx="1000" cy="150" rx="300" ry="200" fill="url(#oceanGradient)" opacity="0.4"/>
  <ellipse cx="200" cy="530" rx="250" ry="180" fill="url(#oceanGradient)" opacity="0.3"/>

  <!-- Wave patterns -->
  <path d="M 0 400 Q 300 350 600 400 T 1200 400 L 1200 630 L 0 630 Z" fill="#1E90A0" opacity="0.08"/>
  <path d="M 0 450 Q 250 420 500 450 T 1000 450 T 1200 450 L 1200 630 L 0 630 Z" fill="#4FD1C5" opacity="0.05"/>

  <!-- Caviar roe particles -->
  <circle cx="42.73917982801683" cy="29.57005278387025" r="5.350904381711116" fill="#CFAE58" opacity="0.10092514501158151"/>
  <circle cx="877.9023777641033" cy="10.945024403109095" r="3.9490159815709864" fill="#CFAE58" opacity="0.22745734983716276"/>
  <circle cx="31.365199876721217" cy="520.6877554768416" r="3.6940253848349167" fill="#CFAE58" opacity="0.1130286990961798"/>
  <circle cx="717.4780208705225" cy="75.50827125855818" r="3.457235744004734" fill="#CFAE58" opacity="0.21855913766638974"/>
  <circle cx="1018.7623938131039" cy="603.7701448015714" r="5.086500602834369" fill="#CFAE58" opacity="0.11390080131143425"/>
  <circle cx="489.8912042552917" cy="91.61482352028173" r="5.875538687572045" fill="#CFAE58" opacity="0.165402818285314"/>
  <circle cx="314.88058533325705" cy="138.03773651206834" r="4.084241864037094" fill="#CFAE58" opacity="0.1563802098829622"/>
  <circle cx="168.99114920863755" cy="204.49258769025576" r="3.1107002198753637" fill="#CFAE58" opacity="0.15376259645916202"/>
  <circle cx="669.7902407185952" cy="601.049072282006" r="4.381597464344355" fill="#CFAE58" opacity="0.17007255152184414"/>
  <circle cx="608.5270543589569" cy="428.31858244924564" r="2.6481375818162753" fill="#CFAE58" opacity="0.1903863510029238"/>
  <circle cx="1177.3089811597154" cy="50.4239437769028" r="4.949757254895287" fill="#CFAE58" opacity="0.15348338996634237"/>
  <circle cx="299.1077677831111" cy="533.0439392128486" r="3.415142889633846" fill="#CFAE58" opacity="0.17963162105929673"/>
  <circle cx="616.0333682504527" cy="170.44517540298312" r="4.4051677580511495" fill="#CFAE58" opacity="0.23081771758870417"/>
  <circle cx="343.2834235513816" cy="449.49548612672703" r="5.744108229891469" fill="#CFAE58" opacity="0.11674691329320157"/>
  <circle cx="999.9956345392494" cy="385.46786786788897" r="5.223791375100268" fill="#CFAE58" opacity="0.21048160073084632"/>
  <circle cx="895.3460890042609" cy="628.8353193097361" r="5.576219864945736" fill="#CFAE58" opacity="0.2213789849720398"/>
  <circle cx="909.6864099641568" cy="199.59146104305088" r="4.682860956935728" fill="#CFAE58" opacity="0.15522344069934238"/>
  <circle cx="1024.6882701759007" cy="318.60023430650006" r="5.8616484045793085" fill="#CFAE58" opacity="0.2067656114973329"/>
  <circle cx="1102.585696880986" cy="522.3921534817604" r="3.0715782565916703" fill="#CFAE58" opacity="0.11105641438964106"/>
  <circle cx="384.2289490786599" cy="502.46575618088804" r="5.86356612028479" fill="#CFAE58" opacity="0.20548787522471842"/>
  <circle cx="1064.6762790682233" cy="357.09021541606654" r="4.701534209526479" fill="#CFAE58" opacity="0.10683756254135503"/>
  <circle cx="494.33323940310095" cy="548.6777416540173" r="5.517604989242947" fill="#CFAE58" opacity="0.24820314817342268"/>
  <circle cx="650.9621987506151" cy="78.89850166344777" r="3.156261862838651" fill="#CFAE58" opacity="0.15178280228989333"/>
  <circle cx="755.4479170343246" cy="275.50848614359535" r="3.044362805877146" fill="#CFAE58" opacity="0.20153222385049044"/>
  <circle cx="936.6716375057775" cy="376.25471006942166" r="4.826797447842904" fill="#CFAE58" opacity="0.22302316413138387"/>
  <circle cx="637.9651917292786" cy="378.8852969102483" r="2.335073956499528" fill="#CFAE58" opacity="0.24539826730942854"/>
  <circle cx="40.982994763667065" cy="518.5883646003161" r="2.7315625936457" fill="#CFAE58" opacity="0.21301747387311698"/>
  <circle cx="753.1188450387002" cy="464.04787701241065" r="5.177882118797775" fill="#CFAE58" opacity="0.14073104614687293"/>
  <circle cx="615.3546886440326" cy="177.0665488221469" r="5.382600361081967" fill="#CFAE58" opacity="0.168600301440613"/>
  <circle cx="184.56137749761564" cy="569.5411092955991" r="4.878958449593616" fill="#CFAE58" opacity="0.1785886320188214"/>

  <!-- Border with glow -->
  <rect x="40" y="40" width="1120" height="550" fill="none" stroke="url(#goldGradient)" stroke-width="3" rx="12" filter="url(#softGlow)"/>

  <!-- Icon circle with premium background -->
  <circle cx="150" cy="200" r="75" fill="#CFAE58" opacity="0.15" filter="url(#softGlow)"/>
  <circle cx="150" cy="200" r="70" fill="#CFAE58" opacity="0.25"/>
  <text x="150" y="235" font-size="90" text-anchor="middle" fill="#CFAE58" filter="url(#glow)">📈</text>

  <!-- Premium logo (crown) with enhanced styling -->
  <g transform="translate(100, 70)">
    <path d="M 30 20 L 40 35 L 35 35 Z M 50 15 L 60 35 L 45 35 Z M 65 20 L 75 35 L 70 35 Z M 30 35 L 75 35 L 73 45 L 32 45 Z"
          fill="url(#goldGradient)" filter="url(#glow)" stroke="#B89842" stroke-width="0.5"/>
    <circle cx="40" cy="25" r="3" fill="#4FD1C5" filter="url(#glow)"/>
    <circle cx="52" cy="20" r="4" fill="#4FD1C5" filter="url(#glow)"/>
    <circle cx="65" cy="25" r="3" fill="#4FD1C5" filter="url(#glow)"/>
  </g>

  <!-- Title with shadow -->
  <text x="280" y="180" font-family="Georgia, serif" font-size="72" font-weight="bold"
        fill="url(#goldGradient)" filter="url(#shadow)">Investment Opportunities</text>

  <!-- Subtitle with subtle glow -->
  <text x="280" y="230" font-family="Arial, sans-serif" font-size="36"
        fill="#D6DEE6" opacity="0.95" filter="url(#softGlow)">Models A/B/C/D Returns</text>

  <!-- Brand name with letter spacing -->
  <text x="280" y="300" font-family="Georgia, serif" font-size="32" font-weight="bold"
        fill="#CFAE58" letter-spacing="4" filter="url(#glow)">ROYAL KETA</text>

  <!-- Russian tagline -->
  <text x="280" y="340" font-family="Arial, sans-serif" font-size="22" font-style="italic"
        fill="#8B95A1" opacity="0.8">От икринки к королевской</text>

  <!-- Location -->
  <text x="280" y="380" font-family="Arial, sans-serif" font-size="20"
        fill="#8B95A1" opacity="0.7">Невельский район, Сахалин</text>

  <!-- Website with glow -->
  <text x="100" y="570" font-family="Arial, sans-serif" font-size="30" font-weight="bold"
        fill="#4FD1C5" filter="url(#glow)">royalketa.com</text>

  <!-- Enhanced decorative salmon silhouette -->
  <g transform="translate(950, 480)" opacity="0.2" filter="url(#softGlow)">
    <ellipse cx="0" cy="0" rx="90" ry="35" fill="#CFAE58"/>
    <path d="M 90 0 L 120 -18 L 130 0 L 120 18 Z" fill="#CFAE58"/>
    <path d="M -25 -35 L 0 -45 L 25 -35 Z" fill="#CFAE58"/>
    <ellipse cx="-50" cy="0" rx="15" ry="12" fill="#0B0F14"/>
  </g>

  <!-- Additional decorative caviar clusters -->
  <g opacity="0.2">
    <circle cx="1050" cy="120" r="6" fill="#CFAE58"/>
    <circle cx="1065" cy="115" r="5" fill="#CFAE58"/>
    <circle cx="1058" cy="130" r="4" fill="#CFAE58"/>
    <circle cx="150" cy="500" r="5" fill="#4FD1C5"/>
    <circle cx="165" cy="508" r="4" fill="#4FD1C5"/>
    <circle cx="140" cy="512" r="5" fill="#4FD1C5"/>
  </g>
</svg>