<svg width="1200" height="630" xmlns="http://www.w3.org/2000/svg">
  <defs>
    <linearGradient id="bgGradient" x1="0%" y1="0%" x2="100%" y2="100%">
      <stop offset="0%" style="stop-color:#0B0F14;stop-opacity:1" />
      <stop offset="50%" style="stop-color:#0F1619;stop-opacity:1" />
      <stop offset="100%" style="stop-color:#0F1922;stop-opacity:1" />
    </linearGradient>
    <linearGradient id="goldGradient" x1="0%" y1="0%" x2="100%" y2="0%">
      <stop offset="0%" style="stop-color:#E5D596;stop-opacity:1" />
      <stop offset="50%" style="stop-color:#CFAE58;stop-opacity:1" />
      <stop offset="100%" style="stop-color:#B89842;stop-opacity:1" />
    </linearGradient>
    <radialGradient id="oceanGradient" cx="50%" cy="50%" r="50%">
      <stop offset="0%" style="stop-color:#4FD1C5;stop-opacity:0.3" />
      <stop offset="100%" style="stop-color:#1E90A0;stop-opacity:0.05" />
    </radialGradient>
    <filter id="glow">
      <feGaussianBlur stdDeviation="5" result="coloredBlur"/>
      <feMerge>
        <feMergeNode in="coloredBlur"/>
        <feMergeNode in="SourceGraphic"/>
      </feMerge>
    </filter>
    <filter id="softGlow">
      <feGaussianBlur stdDeviation="8" result="coloredBlur"/>
      <feMerge>
        <feMergeNode in="coloredBlur"/>
        <feMergeNode in="SourceGraphic"/>
      </feMerge>
    </filter>
    <filter id="shadow">
      <feDropShadow dx="0" dy="4" stdDeviation="8" flood-color="#000000" flood-opacity="0.5"/>
    </filter>
  </defs>

  <!-- Background -->
  <rect width="1200" height="630" fill="url(#bgGradient)"/>

  <!-- Decorative ocean gradients -->
  <ellipse cx="1000" cy="150" rx="300" ry="200" fill="url(#oceanGradient)" opacity="0.4"/>
  <ellipse cx="200" cy="530" rx="250" ry="180" fill="url(#oceanGradient)" opacity="0.3"/>

  <!-- Wave patterns -->
  <path d="M 0 400 Q 300 350 600 400 T 1200 400 L 1200 630 L 0 630 Z" fill="#1E90A0" opacity="0.08"/>
  <path d="M 0 450 Q 250 420 500 450 T 1000 450 T 1200 450 L 1200 630 L 0 630 Z" fill="#4FD1C5" opacity="0.05"/>

  <!-- Caviar roe particles -->
  <circle cx="329.44449251332105" cy="541.3826907555587" r="4.07454209297798" fill="#CFAE58" opacity="0.17596103315747058"/>
  <circle cx="675.8076071507179" cy="228.40901379723775" r="2.076204195827253" fill="#CFAE58" opacity="0.1768548164822128"/>
  <circle cx="494.556560160199" cy="333.8635144536648" r="5.012734023824931" fill="#CFAE58" opacity="0.17235439839028227"/>
  <circle cx="670.1238453475371" cy="271.49474424790924" r="3.753572733353002" fill="#CFAE58" opacity="0.13138853618684515"/>
  <circle cx="279.26723857691496" cy="89.58330444414727" r="4.108481692179919" fill="#CFAE58" opacity="0.12538783320448038"/>
  <circle cx="605.9164774968675" cy="371.2508546859263" r="5.464403528955483" fill="#CFAE58" opacity="0.19676639313871544"/>
  <circle cx="479.1814498471984" cy="480.8533538771798" r="5.429733989511657" fill="#CFAE58" opacity="0.14296768878290972"/>
  <circle cx="137.32832351152143" cy="235.263014836511" r="2.6145789130224197" fill="#CFAE58" opacity="0.24704450086371535"/>
  <circle cx="838.6556204520624" cy="387.825610040647" r="2.487629980395982" fill="#CFAE58" opacity="0.24502468927263765"/>
  <circle cx="779.6312296176646" cy="294.78191658913323" r="3.4868610178991477" fill="#CFAE58" opacity="0.12141361323327954"/>
  <circle cx="805.2377434940935" cy="414.4298322585852" r="3.102452406900528" fill="#CFAE58" opacity="0.12597624231627563"/>
  <circle cx="169.68588470019444" cy="273.059776118915" r="2.8650786832108057" fill="#CFAE58" opacity="0.2317851494012895"/>
  <circle cx="370.1144598001862" cy="110.8122959914017" r="3.6603107632899374" fill="#CFAE58" opacity="0.24123378477273266"/>
  <circle cx="675.1646581653483" cy="96.59925256962883" r="3.6499494888168593" fill="#CFAE58" opacity="0.12834123064704606"/>
  <circle cx="1086.1781707645503" cy="431.4158674391051" r="4.247869862511104" fill="#CFAE58" opacity="0.2380230926286549"/>
  <circle cx="152.67709759100256" cy="576.858164356785" r="2.520477733998358" fill="#CFAE58" opacity="0.20022110418447753"/>
  <circle cx="550.5638118032028" cy="98.09300593632294" r="3.894320569150836" fill="#CFAE58" opacity="0.21609780067322287"/>
  <circle cx="946.843022972725" cy="618.4470035895521" r="4.8000686196918245" fill="#CFAE58" opacity="0.13394454318900922"/>
  <circle cx="722.7968310431717" cy="468.3261481241615" r="4.982053091097875" fill="#CFAE58" opacity="0.1890823768878928"/>
  <circle cx="713.8718239634915" cy="480.7709491458771" r="2.743605830718299" fill="#CFAE58" opacity="0.2086866915492056"/>
  <circle cx="297.59211480043416" cy="58.037477524783384" r="2.9073305483361804" fill="#CFAE58" opacity="0.13219489647058535"/>
  <circle cx="720.0405956077583" cy="284.319230744441" r="3.706385864225994" fill="#CFAE58" opacity="0.1938180698985994"/>
  <circle cx="698.1242681525812" cy="329.71385665903404" r="3.6126673037761514" fill="#CFAE58" opacity="0.12174035514479743"/>
  <circle cx="825.3481788014903" cy="550.8182614103991" r="3.865410850636368" fill="#CFAE58" opacity="0.21532635849821014"/>
  <circle cx="577.6319688871519" cy="117.98958944317754" r="5.402235294616354" fill="#CFAE58" opacity="0.14630908472074594"/>
  <circle cx="967.2561188807227" cy="583.3654614302422" r="5.559742809324361" fill="#CFAE58" opacity="0.10304786646237726"/>
  <circle cx="483.5162411140393" cy="323.2501547906153" r="5.964659738826212" fill="#CFAE58" opacity="0.22540742742467393"/>
  <circle cx="1014.4640854465032" cy="250.11946622235902" r="4.115514864543107" fill="#CFAE58" opacity="0.24542195388912427"/>
  <circle cx="1050.4765923981513" cy="207.52010917863845" r="5.5488416392561595" fill="#CFAE58" opacity="0.14398230885065108"/>
  <circle cx="884.9435923489874" cy="470.4855644187506" r="5.589033555861154" fill="#CFAE58" opacity="0.18317638948157317"/>

  <!-- Border with glow -->
  <rect x="40" y="40" width="1120" height="550" fill="none" stroke="url(#goldGradient)" stroke-width="3" rx="12" filter="url(#softGlow)"/>

  <!-- Icon circle with premium background -->
  <circle cx="150" cy="200" r="75" fill="#CFAE58" opacity="0.15" filter="url(#softGlow)"/>
  <circle cx="150" cy="200" r="70" fill="#CFAE58" opacity="0.25"/>
  <text x="150" y="235" font-size="90" text-anchor="middle" fill="#CFAE58" filter="url(#glow)">📈</text>

  <!-- Premium logo (crown) with enhanced styling -->
  <g transform="translate(100, 70)">
    <path d="M 30 20 L 40 35 L 35 35 Z M 50 15 L 60 35 L 45 35 Z M 65 20 L 75 35 L 70 35 Z M 30 35 L 75 35 L 73 45 L 32 45 Z"
          fill="url(#goldGradient)" filter="url(#glow)" stroke="#B89842" stroke-width="0.5"/>
    <circle cx="40" cy="25" r="3" fill="#4FD1C5" filter="url(#glow)"/>
    <circle cx="52" cy="20" r="4" fill="#4FD1C5" filter="url(#glow)"/>
    <circle cx="65" cy="25" r="3" fill="#4FD1C5" filter="url(#glow)"/>
  </g>

  <!-- Title with shadow -->
  <text x="280" y="180" font-family="Georgia, serif" font-size="72" font-weight="bold"
        fill="url(#goldGradient)" filter="url(#shadow)">Investment Opportunities</text>

  <!-- Subtitle with subtle glow -->
  <text x="280" y="230" font-family="Arial, sans-serif" font-size="36"
        fill="#D6DEE6" opacity="0.95" filter="url(#softGlow)">Models A/B/C/D Returns</text>

  <!-- Brand name with letter spacing -->
  <text x="280" y="300" font-family="Georgia, serif" font-size="32" font-weight="bold"
        fill="#CFAE58" letter-spacing="4" filter="url(#glow)">ROYAL KETA</text>

  <!-- Russian tagline -->
  <text x="280" y="340" font-family="Arial, sans-serif" font-size="22" font-style="italic"
        fill="#8B95A1" opacity="0.8">От икринки к королевской</text>

  <!-- Location -->
  <text x="280" y="380" font-family="Arial, sans-serif" font-size="20"
        fill="#8B95A1" opacity="0.7">Невельский район, Сахалин</text>

  <!-- Website with glow -->
  <text x="100" y="570" font-family="Arial, sans-serif" font-size="30" font-weight="bold"
        fill="#4FD1C5" filter="url(#glow)">royalketa.com</text>

  <!-- Enhanced decorative salmon silhouette -->
  <g transform="translate(950, 480)" opacity="0.2" filter="url(#softGlow)">
    <ellipse cx="0" cy="0" rx="90" ry="35" fill="#CFAE58"/>
    <path d="M 90 0 L 120 -18 L 130 0 L 120 18 Z" fill="#CFAE58"/>
    <path d="M -25 -35 L 0 -45 L 25 -35 Z" fill="#CFAE58"/>
    <ellipse cx="-50" cy="0" rx="15" ry="12" fill="#0B0F14"/>
  </g>

  <!-- Additional decorative caviar clusters -->
  <g opacity="0.2">
    <circle cx="1050" cy="120" r="6" fill="#CFAE58"/>
    <circle cx="1065" cy="115" r="5" fill="#CFAE58"/>
    <circle cx="1058" cy="130" r="4" fill="#CFAE58"/>
    <circle cx="150" cy="500" r="5" fill="#4FD1C5"/>
    <circle cx="165" cy="508" r="4" fill="#4FD1C5"/>
    <circle cx="140" cy="512" r="5" fill="#4FD1C5"/>
  </g>
</svg>