<svg width="1200" height="630" xmlns="http://www.w3.org/2000/svg">
  <defs>
    <linearGradient id="bgGradient" x1="0%" y1="0%" x2="100%" y2="100%">
      <stop offset="0%" style="stop-color:#0B0F14;stop-opacity:1" />
      <stop offset="50%" style="stop-color:#0F1619;stop-opacity:1" />
      <stop offset="100%" style="stop-color:#0F1922;stop-opacity:1" />
    </linearGradient>
    <linearGradient id="goldGradient" x1="0%" y1="0%" x2="100%" y2="0%">
      <stop offset="0%" style="stop-color:#E5D596;stop-opacity:1" />
      <stop offset="50%" style="stop-color:#CFAE58;stop-opacity:1" />
      <stop offset="100%" style="stop-color:#B89842;stop-opacity:1" />
    </linearGradient>
    <radialGradient id="oceanGradient" cx="50%" cy="50%" r="50%">
      <stop offset="0%" style="stop-color:#4FD1C5;stop-opacity:0.3" />
      <stop offset="100%" style="stop-color:#1E90A0;stop-opacity:0.05" />
    </radialGradient>
    <filter id="glow">
      <feGaussianBlur stdDeviation="5" result="coloredBlur"/>
      <feMerge>
        <feMergeNode in="coloredBlur"/>
        <feMergeNode in="SourceGraphic"/>
      </feMerge>
    </filter>
    <filter id="softGlow">
      <feGaussianBlur stdDeviation="8" result="coloredBlur"/>
      <feMerge>
        <feMergeNode in="coloredBlur"/>
        <feMergeNode in="SourceGraphic"/>
      </feMerge>
    </filter>
    <filter id="shadow">
      <feDropShadow dx="0" dy="4" stdDeviation="8" flood-color="#000000" flood-opacity="0.5"/>
    </filter>
  </defs>

  <!-- Background -->
  <rect width="1200" height="630" fill="url(#bgGradient)"/>

  <!-- Decorative ocean gradients -->
  <ellipse cx="1000" cy="150" rx="300" ry="200" fill="url(#oceanGradient)" opacity="0.4"/>
  <ellipse cx="200" cy="530" rx="250" ry="180" fill="url(#oceanGradient)" opacity="0.3"/>

  <!-- Wave patterns -->
  <path d="M 0 400 Q 300 350 600 400 T 1200 400 L 1200 630 L 0 630 Z" fill="#1E90A0" opacity="0.08"/>
  <path d="M 0 450 Q 250 420 500 450 T 1000 450 T 1200 450 L 1200 630 L 0 630 Z" fill="#4FD1C5" opacity="0.05"/>

  <!-- Caviar roe particles -->
  <circle cx="101.16874151543796" cy="327.1729512958861" r="3.466376209152749" fill="#CFAE58" opacity="0.12856398664288415"/>
  <circle cx="193.7922858777013" cy="380.90258989851003" r="3.1613287809542374" fill="#CFAE58" opacity="0.23463445082226866"/>
  <circle cx="456.4678871762165" cy="564.4083990052394" r="5.541953754778026" fill="#CFAE58" opacity="0.23072848643088387"/>
  <circle cx="128.59227444950983" cy="117.7068269162853" r="3.025901535663284" fill="#CFAE58" opacity="0.16628269772426324"/>
  <circle cx="273.29850810340173" cy="398.4722480353341" r="2.617658965532918" fill="#CFAE58" opacity="0.10205615502307303"/>
  <circle cx="384.0692225379706" cy="397.501634391743" r="4.046858524138257" fill="#CFAE58" opacity="0.17268438409963893"/>
  <circle cx="604.7177552874849" cy="552.937847724528" r="5.14995320181218" fill="#CFAE58" opacity="0.11083854254909054"/>
  <circle cx="12.563588445391716" cy="56.78075779790606" r="3.3204547190023814" fill="#CFAE58" opacity="0.18793861569251535"/>
  <circle cx="730.5905520981197" cy="417.62210553914105" r="4.581301017407052" fill="#CFAE58" opacity="0.2366729598799992"/>
  <circle cx="932.343226619866" cy="311.54586433748943" r="3.4332303474995545" fill="#CFAE58" opacity="0.21686218173656413"/>
  <circle cx="860.2336648727203" cy="320.63931910845054" r="2.109456156961331" fill="#CFAE58" opacity="0.15086669611162956"/>
  <circle cx="1153.2747252524457" cy="338.40340156105714" r="5.241688104326829" fill="#CFAE58" opacity="0.18460813471337528"/>
  <circle cx="343.85234170648545" cy="220.46933610754996" r="2.7830610923784063" fill="#CFAE58" opacity="0.22325449095695332"/>
  <circle cx="527.4366710854736" cy="474.7435464497337" r="5.620869323265518" fill="#CFAE58" opacity="0.205128227098095"/>
  <circle cx="1183.780811931057" cy="116.07437231618559" r="4.912492472261607" fill="#CFAE58" opacity="0.11446587839071701"/>
  <circle cx="20.8406425867671" cy="126.78207949905368" r="5.73784057946248" fill="#CFAE58" opacity="0.1970532203876475"/>
  <circle cx="622.9080400271902" cy="47.94976873655461" r="3.763679458706974" fill="#CFAE58" opacity="0.24220939100630476"/>
  <circle cx="1015.9063847351941" cy="114.79198115965548" r="3.203552117758727" fill="#CFAE58" opacity="0.1412888195713609"/>
  <circle cx="15.6181857804357" cy="94.74304372294434" r="5.770178713616186" fill="#CFAE58" opacity="0.23952415388767043"/>
  <circle cx="497.7202118280669" cy="61.67135917702399" r="2.7096087304765026" fill="#CFAE58" opacity="0.10885689077937477"/>
  <circle cx="193.08758412072868" cy="316.0779856928606" r="5.158521360516975" fill="#CFAE58" opacity="0.20625755184234587"/>
  <circle cx="483.38343075562244" cy="112.22897883254426" r="4.116645719759536" fill="#CFAE58" opacity="0.20291383899558174"/>
  <circle cx="201.5869638894727" cy="267.15515629803343" r="4.815911270157754" fill="#CFAE58" opacity="0.12005739769728802"/>
  <circle cx="1192.88755532264" cy="122.07039539144881" r="3.5182498372932303" fill="#CFAE58" opacity="0.15308211516712847"/>
  <circle cx="350.7516532005707" cy="313.56785563740516" r="5.684104380088391" fill="#CFAE58" opacity="0.24902917297716157"/>
  <circle cx="470.7170169558833" cy="313.91371908976373" r="5.780843217135358" fill="#CFAE58" opacity="0.20326177912980303"/>
  <circle cx="377.5441743148343" cy="342.12742150512895" r="4.2205888434641485" fill="#CFAE58" opacity="0.19213836063683504"/>
  <circle cx="455.97874358523524" cy="530.9203920012957" r="5.285953709324394" fill="#CFAE58" opacity="0.12233250392085689"/>
  <circle cx="409.5058875423937" cy="286.07369703425957" r="4.209311809447904" fill="#CFAE58" opacity="0.2171900604866512"/>
  <circle cx="817.7517297101451" cy="121.73892666460304" r="3.6264128518869" fill="#CFAE58" opacity="0.12817164204005127"/>

  <!-- Border with glow -->
  <rect x="40" y="40" width="1120" height="550" fill="none" stroke="url(#goldGradient)" stroke-width="3" rx="12" filter="url(#softGlow)"/>

  <!-- Icon circle with premium background -->
  <circle cx="150" cy="200" r="75" fill="#CFAE58" opacity="0.15" filter="url(#softGlow)"/>
  <circle cx="150" cy="200" r="70" fill="#CFAE58" opacity="0.25"/>
  <text x="150" y="235" font-size="90" text-anchor="middle" fill="#CFAE58" filter="url(#glow)">📈</text>

  <!-- Premium logo (crown) with enhanced styling -->
  <g transform="translate(100, 70)">
    <path d="M 30 20 L 40 35 L 35 35 Z M 50 15 L 60 35 L 45 35 Z M 65 20 L 75 35 L 70 35 Z M 30 35 L 75 35 L 73 45 L 32 45 Z"
          fill="url(#goldGradient)" filter="url(#glow)" stroke="#B89842" stroke-width="0.5"/>
    <circle cx="40" cy="25" r="3" fill="#4FD1C5" filter="url(#glow)"/>
    <circle cx="52" cy="20" r="4" fill="#4FD1C5" filter="url(#glow)"/>
    <circle cx="65" cy="25" r="3" fill="#4FD1C5" filter="url(#glow)"/>
  </g>

  <!-- Title with shadow -->
  <text x="280" y="180" font-family="Georgia, serif" font-size="72" font-weight="bold"
        fill="url(#goldGradient)" filter="url(#shadow)">Investment Opportunities</text>

  <!-- Subtitle with subtle glow -->
  <text x="280" y="230" font-family="Arial, sans-serif" font-size="36"
        fill="#D6DEE6" opacity="0.95" filter="url(#softGlow)">Models A/B/C/D Returns</text>

  <!-- Brand name with letter spacing -->
  <text x="280" y="300" font-family="Georgia, serif" font-size="32" font-weight="bold"
        fill="#CFAE58" letter-spacing="4" filter="url(#glow)">ROYAL KETA</text>

  <!-- Russian tagline -->
  <text x="280" y="340" font-family="Arial, sans-serif" font-size="22" font-style="italic"
        fill="#8B95A1" opacity="0.8">От икринки к королевской</text>

  <!-- Location -->
  <text x="280" y="380" font-family="Arial, sans-serif" font-size="20"
        fill="#8B95A1" opacity="0.7">Невельский район, Сахалин</text>

  <!-- Website with glow -->
  <text x="100" y="570" font-family="Arial, sans-serif" font-size="30" font-weight="bold"
        fill="#4FD1C5" filter="url(#glow)">royalketa.com</text>

  <!-- Enhanced decorative salmon silhouette -->
  <g transform="translate(950, 480)" opacity="0.2" filter="url(#softGlow)">
    <ellipse cx="0" cy="0" rx="90" ry="35" fill="#CFAE58"/>
    <path d="M 90 0 L 120 -18 L 130 0 L 120 18 Z" fill="#CFAE58"/>
    <path d="M -25 -35 L 0 -45 L 25 -35 Z" fill="#CFAE58"/>
    <ellipse cx="-50" cy="0" rx="15" ry="12" fill="#0B0F14"/>
  </g>

  <!-- Additional decorative caviar clusters -->
  <g opacity="0.2">
    <circle cx="1050" cy="120" r="6" fill="#CFAE58"/>
    <circle cx="1065" cy="115" r="5" fill="#CFAE58"/>
    <circle cx="1058" cy="130" r="4" fill="#CFAE58"/>
    <circle cx="150" cy="500" r="5" fill="#4FD1C5"/>
    <circle cx="165" cy="508" r="4" fill="#4FD1C5"/>
    <circle cx="140" cy="512" r="5" fill="#4FD1C5"/>
  </g>
</svg>