<svg width="1200" height="630" xmlns="http://www.w3.org/2000/svg">
  <defs>
    <linearGradient id="bgGradient" x1="0%" y1="0%" x2="100%" y2="100%">
      <stop offset="0%" style="stop-color:#0B0F14;stop-opacity:1" />
      <stop offset="50%" style="stop-color:#0F1619;stop-opacity:1" />
      <stop offset="100%" style="stop-color:#0F1922;stop-opacity:1" />
    </linearGradient>
    <linearGradient id="goldGradient" x1="0%" y1="0%" x2="100%" y2="0%">
      <stop offset="0%" style="stop-color:#E5D596;stop-opacity:1" />
      <stop offset="50%" style="stop-color:#CFAE58;stop-opacity:1" />
      <stop offset="100%" style="stop-color:#B89842;stop-opacity:1" />
    </linearGradient>
    <radialGradient id="oceanGradient" cx="50%" cy="50%" r="50%">
      <stop offset="0%" style="stop-color:#4FD1C5;stop-opacity:0.3" />
      <stop offset="100%" style="stop-color:#1E90A0;stop-opacity:0.05" />
    </radialGradient>
    <filter id="glow">
      <feGaussianBlur stdDeviation="5" result="coloredBlur"/>
      <feMerge>
        <feMergeNode in="coloredBlur"/>
        <feMergeNode in="SourceGraphic"/>
      </feMerge>
    </filter>
    <filter id="softGlow">
      <feGaussianBlur stdDeviation="8" result="coloredBlur"/>
      <feMerge>
        <feMergeNode in="coloredBlur"/>
        <feMergeNode in="SourceGraphic"/>
      </feMerge>
    </filter>
    <filter id="shadow">
      <feDropShadow dx="0" dy="4" stdDeviation="8" flood-color="#000000" flood-opacity="0.5"/>
    </filter>
  </defs>

  <!-- Background -->
  <rect width="1200" height="630" fill="url(#bgGradient)"/>

  <!-- Decorative ocean gradients -->
  <ellipse cx="1000" cy="150" rx="300" ry="200" fill="url(#oceanGradient)" opacity="0.4"/>
  <ellipse cx="200" cy="530" rx="250" ry="180" fill="url(#oceanGradient)" opacity="0.3"/>

  <!-- Wave patterns -->
  <path d="M 0 400 Q 300 350 600 400 T 1200 400 L 1200 630 L 0 630 Z" fill="#1E90A0" opacity="0.08"/>
  <path d="M 0 450 Q 250 420 500 450 T 1000 450 T 1200 450 L 1200 630 L 0 630 Z" fill="#4FD1C5" opacity="0.05"/>

  <!-- Caviar roe particles -->
  <circle cx="102.1911062440914" cy="312.25292732335777" r="3.6152768364282997" fill="#CFAE58" opacity="0.1994004968658143"/>
  <circle cx="699.3765391215719" cy="517.4669286877133" r="5.24052025391188" fill="#CFAE58" opacity="0.21826198992468068"/>
  <circle cx="778.1767312620266" cy="149.1214364798979" r="3.4005054295636548" fill="#CFAE58" opacity="0.20553061634784417"/>
  <circle cx="1087.3980102616663" cy="64.78055135902025" r="3.164024695460376" fill="#CFAE58" opacity="0.13922627104029017"/>
  <circle cx="1159.480905441713" cy="9.768776735323474" r="4.846782331492996" fill="#CFAE58" opacity="0.22930633565894276"/>
  <circle cx="36.66149525100724" cy="442.0010934073268" r="5.825848222852372" fill="#CFAE58" opacity="0.22912750731668685"/>
  <circle cx="1081.517716131784" cy="559.0702696292116" r="5.4808024676876075" fill="#CFAE58" opacity="0.16071252262627997"/>
  <circle cx="417.4007715611406" cy="210.86522982974017" r="4.836450921696159" fill="#CFAE58" opacity="0.18074408317341334"/>
  <circle cx="833.1818989513938" cy="285.1459534940659" r="3.3531358632688746" fill="#CFAE58" opacity="0.16826240395529088"/>
  <circle cx="1002.2207691371203" cy="366.12034461128326" r="2.7940389883798886" fill="#CFAE58" opacity="0.18699494952506646"/>
  <circle cx="1003.3101711263987" cy="70.95851098804586" r="2.4887317821295656" fill="#CFAE58" opacity="0.20587057559102784"/>
  <circle cx="900.2102024236744" cy="279.5304480541455" r="2.330209562083873" fill="#CFAE58" opacity="0.15315344766803354"/>
  <circle cx="623.2550803871744" cy="209.69507732319664" r="5.631721604017798" fill="#CFAE58" opacity="0.24382452276859898"/>
  <circle cx="866.5415736543573" cy="235.45993379852163" r="4.3714468194289715" fill="#CFAE58" opacity="0.12561825913018054"/>
  <circle cx="455.53248375249484" cy="390.4458811664086" r="3.093955385537314" fill="#CFAE58" opacity="0.19890780637961408"/>
  <circle cx="644.0097434515229" cy="236.2883963137396" r="5.36938774355811" fill="#CFAE58" opacity="0.17605225227928273"/>
  <circle cx="266.6240833087771" cy="10.685021438857426" r="2.065937147584678" fill="#CFAE58" opacity="0.15130608695622055"/>
  <circle cx="308.5583312776794" cy="223.97747879184848" r="3.6737982962490925" fill="#CFAE58" opacity="0.1928707125401408"/>
  <circle cx="187.3898252477478" cy="399.2991338205558" r="4.9278823115934385" fill="#CFAE58" opacity="0.1782780816357698"/>
  <circle cx="273.0244186339581" cy="560.6861242668377" r="5.224924608236288" fill="#CFAE58" opacity="0.13051381290217595"/>
  <circle cx="186.54954902654507" cy="596.888635697454" r="5.341516495889859" fill="#CFAE58" opacity="0.24999465071666896"/>
  <circle cx="1076.3901916498044" cy="474.95461798405705" r="3.71779741473711" fill="#CFAE58" opacity="0.16960888251886108"/>
  <circle cx="776.8174759208805" cy="535.2486520667426" r="3.9498310090117807" fill="#CFAE58" opacity="0.1379853885653337"/>
  <circle cx="470.17555404133924" cy="521.827342752697" r="4.074279406153186" fill="#CFAE58" opacity="0.13451785590510612"/>
  <circle cx="352.85620369379785" cy="282.0065365808922" r="5.157601810579134" fill="#CFAE58" opacity="0.20415784781296367"/>
  <circle cx="1009.3662749077458" cy="505.2306393301726" r="4.738779882552431" fill="#CFAE58" opacity="0.15061289438031283"/>
  <circle cx="34.4092360664304" cy="443.69745549725667" r="3.2502159534428277" fill="#CFAE58" opacity="0.20675775388820616"/>
  <circle cx="636.0593863796047" cy="466.04436119849777" r="3.5079662098121434" fill="#CFAE58" opacity="0.164966869937122"/>
  <circle cx="214.98543829633888" cy="566.8423947198373" r="2.8692269253815263" fill="#CFAE58" opacity="0.18117899341650018"/>
  <circle cx="1049.0182952277441" cy="265.183307386615" r="2.1808904401860287" fill="#CFAE58" opacity="0.13614005506959498"/>

  <!-- Border with glow -->
  <rect x="40" y="40" width="1120" height="550" fill="none" stroke="url(#goldGradient)" stroke-width="3" rx="12" filter="url(#softGlow)"/>

  <!-- Icon circle with premium background -->
  <circle cx="150" cy="200" r="75" fill="#CFAE58" opacity="0.15" filter="url(#softGlow)"/>
  <circle cx="150" cy="200" r="70" fill="#CFAE58" opacity="0.25"/>
  <text x="150" y="235" font-size="90" text-anchor="middle" fill="#CFAE58" filter="url(#glow)">📈</text>

  <!-- Premium logo (crown) with enhanced styling -->
  <g transform="translate(100, 70)">
    <path d="M 30 20 L 40 35 L 35 35 Z M 50 15 L 60 35 L 45 35 Z M 65 20 L 75 35 L 70 35 Z M 30 35 L 75 35 L 73 45 L 32 45 Z"
          fill="url(#goldGradient)" filter="url(#glow)" stroke="#B89842" stroke-width="0.5"/>
    <circle cx="40" cy="25" r="3" fill="#4FD1C5" filter="url(#glow)"/>
    <circle cx="52" cy="20" r="4" fill="#4FD1C5" filter="url(#glow)"/>
    <circle cx="65" cy="25" r="3" fill="#4FD1C5" filter="url(#glow)"/>
  </g>

  <!-- Title with shadow -->
  <text x="280" y="180" font-family="Georgia, serif" font-size="72" font-weight="bold"
        fill="url(#goldGradient)" filter="url(#shadow)">Investment Opportunities</text>

  <!-- Subtitle with subtle glow -->
  <text x="280" y="230" font-family="Arial, sans-serif" font-size="36"
        fill="#D6DEE6" opacity="0.95" filter="url(#softGlow)">Models A/B/C/D Returns</text>

  <!-- Brand name with letter spacing -->
  <text x="280" y="300" font-family="Georgia, serif" font-size="32" font-weight="bold"
        fill="#CFAE58" letter-spacing="4" filter="url(#glow)">ROYAL KETA</text>

  <!-- Russian tagline -->
  <text x="280" y="340" font-family="Arial, sans-serif" font-size="22" font-style="italic"
        fill="#8B95A1" opacity="0.8">От икринки к королевской</text>

  <!-- Location -->
  <text x="280" y="380" font-family="Arial, sans-serif" font-size="20"
        fill="#8B95A1" opacity="0.7">Невельский район, Сахалин</text>

  <!-- Website with glow -->
  <text x="100" y="570" font-family="Arial, sans-serif" font-size="30" font-weight="bold"
        fill="#4FD1C5" filter="url(#glow)">royalketa.com</text>

  <!-- Enhanced decorative salmon silhouette -->
  <g transform="translate(950, 480)" opacity="0.2" filter="url(#softGlow)">
    <ellipse cx="0" cy="0" rx="90" ry="35" fill="#CFAE58"/>
    <path d="M 90 0 L 120 -18 L 130 0 L 120 18 Z" fill="#CFAE58"/>
    <path d="M -25 -35 L 0 -45 L 25 -35 Z" fill="#CFAE58"/>
    <ellipse cx="-50" cy="0" rx="15" ry="12" fill="#0B0F14"/>
  </g>

  <!-- Additional decorative caviar clusters -->
  <g opacity="0.2">
    <circle cx="1050" cy="120" r="6" fill="#CFAE58"/>
    <circle cx="1065" cy="115" r="5" fill="#CFAE58"/>
    <circle cx="1058" cy="130" r="4" fill="#CFAE58"/>
    <circle cx="150" cy="500" r="5" fill="#4FD1C5"/>
    <circle cx="165" cy="508" r="4" fill="#4FD1C5"/>
    <circle cx="140" cy="512" r="5" fill="#4FD1C5"/>
  </g>
</svg>