<svg width="1200" height="630" xmlns="http://www.w3.org/2000/svg">
  <defs>
    <linearGradient id="bgGradient" x1="0%" y1="0%" x2="100%" y2="100%">
      <stop offset="0%" style="stop-color:#0B0F14;stop-opacity:1" />
      <stop offset="50%" style="stop-color:#0F1619;stop-opacity:1" />
      <stop offset="100%" style="stop-color:#0F1922;stop-opacity:1" />
    </linearGradient>
    <linearGradient id="goldGradient" x1="0%" y1="0%" x2="100%" y2="0%">
      <stop offset="0%" style="stop-color:#E5D596;stop-opacity:1" />
      <stop offset="50%" style="stop-color:#CFAE58;stop-opacity:1" />
      <stop offset="100%" style="stop-color:#B89842;stop-opacity:1" />
    </linearGradient>
    <radialGradient id="oceanGradient" cx="50%" cy="50%" r="50%">
      <stop offset="0%" style="stop-color:#4FD1C5;stop-opacity:0.3" />
      <stop offset="100%" style="stop-color:#1E90A0;stop-opacity:0.05" />
    </radialGradient>
    <filter id="glow">
      <feGaussianBlur stdDeviation="5" result="coloredBlur"/>
      <feMerge>
        <feMergeNode in="coloredBlur"/>
        <feMergeNode in="SourceGraphic"/>
      </feMerge>
    </filter>
    <filter id="softGlow">
      <feGaussianBlur stdDeviation="8" result="coloredBlur"/>
      <feMerge>
        <feMergeNode in="coloredBlur"/>
        <feMergeNode in="SourceGraphic"/>
      </feMerge>
    </filter>
    <filter id="shadow">
      <feDropShadow dx="0" dy="4" stdDeviation="8" flood-color="#000000" flood-opacity="0.5"/>
    </filter>
  </defs>

  <!-- Background -->
  <rect width="1200" height="630" fill="url(#bgGradient)"/>

  <!-- Decorative ocean gradients -->
  <ellipse cx="1000" cy="150" rx="300" ry="200" fill="url(#oceanGradient)" opacity="0.4"/>
  <ellipse cx="200" cy="530" rx="250" ry="180" fill="url(#oceanGradient)" opacity="0.3"/>

  <!-- Wave patterns -->
  <path d="M 0 400 Q 300 350 600 400 T 1200 400 L 1200 630 L 0 630 Z" fill="#1E90A0" opacity="0.08"/>
  <path d="M 0 450 Q 250 420 500 450 T 1000 450 T 1200 450 L 1200 630 L 0 630 Z" fill="#4FD1C5" opacity="0.05"/>

  <!-- Caviar roe particles -->
  <circle cx="251.71217678118737" cy="331.5901343730232" r="4.485840402712914" fill="#CFAE58" opacity="0.20072416716214964"/>
  <circle cx="1129.648699617896" cy="35.196508171764336" r="2.632301253785665" fill="#CFAE58" opacity="0.22134097059073427"/>
  <circle cx="417.52706679644547" cy="10.177094896960625" r="5.313867347594618" fill="#CFAE58" opacity="0.11975371736393253"/>
  <circle cx="782.7583301992082" cy="511.82845817661814" r="2.7149592727069503" fill="#CFAE58" opacity="0.230544672692873"/>
  <circle cx="1004.9738139467794" cy="466.16956797811287" r="5.9149687616695035" fill="#CFAE58" opacity="0.19526698403931736"/>
  <circle cx="128.32378342866048" cy="218.83146810142418" r="5.8663552794481575" fill="#CFAE58" opacity="0.12849914351758657"/>
  <circle cx="908.4865127418061" cy="567.1426852756414" r="5.55538786238453" fill="#CFAE58" opacity="0.24404699691767445"/>
  <circle cx="1034.1549099017436" cy="592.8537864328489" r="4.79807454239054" fill="#CFAE58" opacity="0.22602133002869257"/>
  <circle cx="623.6161643431772" cy="443.82559644807753" r="5.666674546855137" fill="#CFAE58" opacity="0.24280518311733765"/>
  <circle cx="72.68301317938426" cy="603.915101654745" r="5.065612433168754" fill="#CFAE58" opacity="0.11091010224486271"/>
  <circle cx="639.6156364346367" cy="326.5099685722136" r="5.565661864217564" fill="#CFAE58" opacity="0.15046274446681446"/>
  <circle cx="401.35286880641934" cy="583.2327949275481" r="4.362852182883863" fill="#CFAE58" opacity="0.2359138359453242"/>
  <circle cx="975.4060690420755" cy="152.29063804436709" r="3.1289623485984324" fill="#CFAE58" opacity="0.12636973284929792"/>
  <circle cx="996.0811174908445" cy="26.575838294621565" r="3.1052177400000835" fill="#CFAE58" opacity="0.17858748657677603"/>
  <circle cx="1008.3317889207618" cy="81.53345775100867" r="3.658343129091943" fill="#CFAE58" opacity="0.13659883961963074"/>
  <circle cx="66.5879277760375" cy="20.154349674188193" r="5.025592699001501" fill="#CFAE58" opacity="0.14813672199660977"/>
  <circle cx="1027.0938325293512" cy="44.50217388874448" r="5.831512563394295" fill="#CFAE58" opacity="0.1589410873857779"/>
  <circle cx="905.5949184494842" cy="131.511872582142" r="2.0790767396024505" fill="#CFAE58" opacity="0.1906227529169069"/>
  <circle cx="507.780211396823" cy="24.968360936717946" r="2.917595559375275" fill="#CFAE58" opacity="0.1524690582229757"/>
  <circle cx="131.79151964795687" cy="26.955054448989735" r="5.42367115236239" fill="#CFAE58" opacity="0.17445307404051597"/>
  <circle cx="660.9667053744648" cy="603.5226938322228" r="5.818362020626392" fill="#CFAE58" opacity="0.1657368560387284"/>
  <circle cx="346.5000348523716" cy="602.2388107118264" r="3.6061515130046793" fill="#CFAE58" opacity="0.2196927792073897"/>
  <circle cx="150.1491367012256" cy="520.1492899914774" r="4.8552996030328615" fill="#CFAE58" opacity="0.10608366910609024"/>
  <circle cx="42.39774374847212" cy="48.939976775282325" r="5.791915372529158" fill="#CFAE58" opacity="0.11405177051524602"/>
  <circle cx="998.4400724463977" cy="14.044729900193314" r="4.374765528899873" fill="#CFAE58" opacity="0.18488760608631805"/>
  <circle cx="453.8881882840139" cy="513.367133157639" r="3.6205949037751903" fill="#CFAE58" opacity="0.13956129471702872"/>
  <circle cx="1038.1504975045834" cy="475.3156716673508" r="4.390553244643352" fill="#CFAE58" opacity="0.2059095786723908"/>
  <circle cx="684.8207105781593" cy="573.4191514872442" r="5.208354335859446" fill="#CFAE58" opacity="0.22520878812549622"/>
  <circle cx="223.96047811945414" cy="252.93106861154837" r="5.931784008877192" fill="#CFAE58" opacity="0.2455291222711673"/>
  <circle cx="953.0141521443169" cy="588.8647523239567" r="3.9875823765995233" fill="#CFAE58" opacity="0.22354668248330434"/>

  <!-- Border with glow -->
  <rect x="40" y="40" width="1120" height="550" fill="none" stroke="url(#goldGradient)" stroke-width="3" rx="12" filter="url(#softGlow)"/>

  <!-- Icon circle with premium background -->
  <circle cx="150" cy="200" r="75" fill="#CFAE58" opacity="0.15" filter="url(#softGlow)"/>
  <circle cx="150" cy="200" r="70" fill="#CFAE58" opacity="0.25"/>
  <text x="150" y="235" font-size="90" text-anchor="middle" fill="#CFAE58" filter="url(#glow)">📈</text>

  <!-- Premium logo (crown) with enhanced styling -->
  <g transform="translate(100, 70)">
    <path d="M 30 20 L 40 35 L 35 35 Z M 50 15 L 60 35 L 45 35 Z M 65 20 L 75 35 L 70 35 Z M 30 35 L 75 35 L 73 45 L 32 45 Z"
          fill="url(#goldGradient)" filter="url(#glow)" stroke="#B89842" stroke-width="0.5"/>
    <circle cx="40" cy="25" r="3" fill="#4FD1C5" filter="url(#glow)"/>
    <circle cx="52" cy="20" r="4" fill="#4FD1C5" filter="url(#glow)"/>
    <circle cx="65" cy="25" r="3" fill="#4FD1C5" filter="url(#glow)"/>
  </g>

  <!-- Title with shadow -->
  <text x="280" y="180" font-family="Georgia, serif" font-size="72" font-weight="bold"
        fill="url(#goldGradient)" filter="url(#shadow)">Investment Opportunities</text>

  <!-- Subtitle with subtle glow -->
  <text x="280" y="230" font-family="Arial, sans-serif" font-size="36"
        fill="#D6DEE6" opacity="0.95" filter="url(#softGlow)">Models A/B/C/D Returns</text>

  <!-- Brand name with letter spacing -->
  <text x="280" y="300" font-family="Georgia, serif" font-size="32" font-weight="bold"
        fill="#CFAE58" letter-spacing="4" filter="url(#glow)">ROYAL KETA</text>

  <!-- Russian tagline -->
  <text x="280" y="340" font-family="Arial, sans-serif" font-size="22" font-style="italic"
        fill="#8B95A1" opacity="0.8">От икринки к королевской</text>

  <!-- Location -->
  <text x="280" y="380" font-family="Arial, sans-serif" font-size="20"
        fill="#8B95A1" opacity="0.7">Невельский район, Сахалин</text>

  <!-- Website with glow -->
  <text x="100" y="570" font-family="Arial, sans-serif" font-size="30" font-weight="bold"
        fill="#4FD1C5" filter="url(#glow)">royalketa.com</text>

  <!-- Enhanced decorative salmon silhouette -->
  <g transform="translate(950, 480)" opacity="0.2" filter="url(#softGlow)">
    <ellipse cx="0" cy="0" rx="90" ry="35" fill="#CFAE58"/>
    <path d="M 90 0 L 120 -18 L 130 0 L 120 18 Z" fill="#CFAE58"/>
    <path d="M -25 -35 L 0 -45 L 25 -35 Z" fill="#CFAE58"/>
    <ellipse cx="-50" cy="0" rx="15" ry="12" fill="#0B0F14"/>
  </g>

  <!-- Additional decorative caviar clusters -->
  <g opacity="0.2">
    <circle cx="1050" cy="120" r="6" fill="#CFAE58"/>
    <circle cx="1065" cy="115" r="5" fill="#CFAE58"/>
    <circle cx="1058" cy="130" r="4" fill="#CFAE58"/>
    <circle cx="150" cy="500" r="5" fill="#4FD1C5"/>
    <circle cx="165" cy="508" r="4" fill="#4FD1C5"/>
    <circle cx="140" cy="512" r="5" fill="#4FD1C5"/>
  </g>
</svg>