<svg width="1200" height="630" xmlns="http://www.w3.org/2000/svg">
  <defs>
    <linearGradient id="bgGradient" x1="0%" y1="0%" x2="100%" y2="100%">
      <stop offset="0%" style="stop-color:#0B0F14;stop-opacity:1" />
      <stop offset="50%" style="stop-color:#0F1619;stop-opacity:1" />
      <stop offset="100%" style="stop-color:#0F1922;stop-opacity:1" />
    </linearGradient>
    <linearGradient id="goldGradient" x1="0%" y1="0%" x2="100%" y2="0%">
      <stop offset="0%" style="stop-color:#E5D596;stop-opacity:1" />
      <stop offset="50%" style="stop-color:#CFAE58;stop-opacity:1" />
      <stop offset="100%" style="stop-color:#B89842;stop-opacity:1" />
    </linearGradient>
    <radialGradient id="oceanGradient" cx="50%" cy="50%" r="50%">
      <stop offset="0%" style="stop-color:#4FD1C5;stop-opacity:0.3" />
      <stop offset="100%" style="stop-color:#1E90A0;stop-opacity:0.05" />
    </radialGradient>
    <filter id="glow">
      <feGaussianBlur stdDeviation="5" result="coloredBlur"/>
      <feMerge>
        <feMergeNode in="coloredBlur"/>
        <feMergeNode in="SourceGraphic"/>
      </feMerge>
    </filter>
    <filter id="softGlow">
      <feGaussianBlur stdDeviation="8" result="coloredBlur"/>
      <feMerge>
        <feMergeNode in="coloredBlur"/>
        <feMergeNode in="SourceGraphic"/>
      </feMerge>
    </filter>
    <filter id="shadow">
      <feDropShadow dx="0" dy="4" stdDeviation="8" flood-color="#000000" flood-opacity="0.5"/>
    </filter>
  </defs>

  <!-- Background -->
  <rect width="1200" height="630" fill="url(#bgGradient)"/>

  <!-- Decorative ocean gradients -->
  <ellipse cx="1000" cy="150" rx="300" ry="200" fill="url(#oceanGradient)" opacity="0.4"/>
  <ellipse cx="200" cy="530" rx="250" ry="180" fill="url(#oceanGradient)" opacity="0.3"/>

  <!-- Wave patterns -->
  <path d="M 0 400 Q 300 350 600 400 T 1200 400 L 1200 630 L 0 630 Z" fill="#1E90A0" opacity="0.08"/>
  <path d="M 0 450 Q 250 420 500 450 T 1000 450 T 1200 450 L 1200 630 L 0 630 Z" fill="#4FD1C5" opacity="0.05"/>

  <!-- Caviar roe particles -->
  <circle cx="389.803053871034" cy="118.50258777575498" r="4.614330180674441" fill="#CFAE58" opacity="0.22182109378872703"/>
  <circle cx="890.525126419132" cy="561.9846522682353" r="5.171099460372752" fill="#CFAE58" opacity="0.23650211885215974"/>
  <circle cx="735.8524912939537" cy="470.3815865536559" r="3.903859306128641" fill="#CFAE58" opacity="0.24309302923284634"/>
  <circle cx="1074.9427427004784" cy="485.0261500869768" r="5.633973495730316" fill="#CFAE58" opacity="0.18322969029382127"/>
  <circle cx="733.4811658863057" cy="86.06485956404507" r="3.7174882058333045" fill="#CFAE58" opacity="0.20012374934389243"/>
  <circle cx="755.3094004276976" cy="401.69852922628405" r="4.443754014539806" fill="#CFAE58" opacity="0.13427289164176265"/>
  <circle cx="1120.4727581140103" cy="262.57708572431153" r="3.0859879259587233" fill="#CFAE58" opacity="0.21213573033383815"/>
  <circle cx="73.46419690090964" cy="501.4753821847606" r="5.158479717202482" fill="#CFAE58" opacity="0.11046522969234619"/>
  <circle cx="887.7538111087315" cy="56.93590366388709" r="5.563374665216309" fill="#CFAE58" opacity="0.1502395746233345"/>
  <circle cx="888.841302049562" cy="64.71841652298127" r="4.97100501128023" fill="#CFAE58" opacity="0.20201093627448952"/>
  <circle cx="668.7790803072276" cy="622.569712657589" r="4.087881072952783" fill="#CFAE58" opacity="0.20189493590800334"/>
  <circle cx="726.9379664746896" cy="487.3195437198781" r="4.41899384513089" fill="#CFAE58" opacity="0.15262281334277805"/>
  <circle cx="784.282263542282" cy="330.89308948085346" r="3.512545231559387" fill="#CFAE58" opacity="0.20673999753158323"/>
  <circle cx="650.2433339050165" cy="495.51390824772847" r="4.65069957503048" fill="#CFAE58" opacity="0.19083999963248915"/>
  <circle cx="18.81783679905795" cy="174.93600986687392" r="3.040215495076844" fill="#CFAE58" opacity="0.10003597775010115"/>
  <circle cx="159.78160530929856" cy="135.10846396347554" r="4.660254356808419" fill="#CFAE58" opacity="0.10585339516528622"/>
  <circle cx="1016.623661312657" cy="50.11146848540819" r="4.802498578804655" fill="#CFAE58" opacity="0.14167954103106384"/>
  <circle cx="212.64722559809536" cy="123.80550468433135" r="4.750839559583137" fill="#CFAE58" opacity="0.18232421978120816"/>
  <circle cx="1140.3310506326595" cy="326.3021515001421" r="3.487137394022623" fill="#CFAE58" opacity="0.1556564722168901"/>
  <circle cx="1124.30304476877" cy="1.0699530006048896" r="4.116253571165762" fill="#CFAE58" opacity="0.14879617386128924"/>
  <circle cx="378.20356149193077" cy="140.8209472593158" r="3.7397556431687264" fill="#CFAE58" opacity="0.1453183550770725"/>
  <circle cx="558.712339352441" cy="353.97123064419384" r="3.997903598887223" fill="#CFAE58" opacity="0.1389486199086929"/>
  <circle cx="194.10883158651444" cy="484.08533838405293" r="2.5102147115023907" fill="#CFAE58" opacity="0.17312754268348407"/>
  <circle cx="348.94424720176863" cy="465.8664446338537" r="2.2287626147191153" fill="#CFAE58" opacity="0.24047941613219698"/>
  <circle cx="628.351572158028" cy="497.9063447216009" r="3.329691457148902" fill="#CFAE58" opacity="0.10537757135930097"/>
  <circle cx="567.340585535538" cy="250.27602829004115" r="4.898042033912345" fill="#CFAE58" opacity="0.17228901364727675"/>
  <circle cx="293.78671452889427" cy="361.38972634220016" r="3.865348747149937" fill="#CFAE58" opacity="0.1466374218086012"/>
  <circle cx="1034.361203934747" cy="360.1145843776664" r="2.7333990932446657" fill="#CFAE58" opacity="0.11215810757859591"/>
  <circle cx="774.6251995076098" cy="13.785523646392349" r="3.929597310052587" fill="#CFAE58" opacity="0.20458002327623478"/>
  <circle cx="52.19918609851404" cy="183.1216691104046" r="3.766053289732915" fill="#CFAE58" opacity="0.12445532811040683"/>

  <!-- Border with glow -->
  <rect x="40" y="40" width="1120" height="550" fill="none" stroke="url(#goldGradient)" stroke-width="3" rx="12" filter="url(#softGlow)"/>

  <!-- Icon circle with premium background -->
  <circle cx="150" cy="200" r="75" fill="#CFAE58" opacity="0.15" filter="url(#softGlow)"/>
  <circle cx="150" cy="200" r="70" fill="#CFAE58" opacity="0.25"/>
  <text x="150" y="235" font-size="90" text-anchor="middle" fill="#CFAE58" filter="url(#glow)">📈</text>

  <!-- Premium logo (crown) with enhanced styling -->
  <g transform="translate(100, 70)">
    <path d="M 30 20 L 40 35 L 35 35 Z M 50 15 L 60 35 L 45 35 Z M 65 20 L 75 35 L 70 35 Z M 30 35 L 75 35 L 73 45 L 32 45 Z"
          fill="url(#goldGradient)" filter="url(#glow)" stroke="#B89842" stroke-width="0.5"/>
    <circle cx="40" cy="25" r="3" fill="#4FD1C5" filter="url(#glow)"/>
    <circle cx="52" cy="20" r="4" fill="#4FD1C5" filter="url(#glow)"/>
    <circle cx="65" cy="25" r="3" fill="#4FD1C5" filter="url(#glow)"/>
  </g>

  <!-- Title with shadow -->
  <text x="280" y="180" font-family="Georgia, serif" font-size="72" font-weight="bold"
        fill="url(#goldGradient)" filter="url(#shadow)">Investment Opportunities</text>

  <!-- Subtitle with subtle glow -->
  <text x="280" y="230" font-family="Arial, sans-serif" font-size="36"
        fill="#D6DEE6" opacity="0.95" filter="url(#softGlow)">Models A/B/C/D Returns</text>

  <!-- Brand name with letter spacing -->
  <text x="280" y="300" font-family="Georgia, serif" font-size="32" font-weight="bold"
        fill="#CFAE58" letter-spacing="4" filter="url(#glow)">ROYAL KETA</text>

  <!-- Russian tagline -->
  <text x="280" y="340" font-family="Arial, sans-serif" font-size="22" font-style="italic"
        fill="#8B95A1" opacity="0.8">От икринки к королевской</text>

  <!-- Location -->
  <text x="280" y="380" font-family="Arial, sans-serif" font-size="20"
        fill="#8B95A1" opacity="0.7">Невельский район, Сахалин</text>

  <!-- Website with glow -->
  <text x="100" y="570" font-family="Arial, sans-serif" font-size="30" font-weight="bold"
        fill="#4FD1C5" filter="url(#glow)">royalketa.com</text>

  <!-- Enhanced decorative salmon silhouette -->
  <g transform="translate(950, 480)" opacity="0.2" filter="url(#softGlow)">
    <ellipse cx="0" cy="0" rx="90" ry="35" fill="#CFAE58"/>
    <path d="M 90 0 L 120 -18 L 130 0 L 120 18 Z" fill="#CFAE58"/>
    <path d="M -25 -35 L 0 -45 L 25 -35 Z" fill="#CFAE58"/>
    <ellipse cx="-50" cy="0" rx="15" ry="12" fill="#0B0F14"/>
  </g>

  <!-- Additional decorative caviar clusters -->
  <g opacity="0.2">
    <circle cx="1050" cy="120" r="6" fill="#CFAE58"/>
    <circle cx="1065" cy="115" r="5" fill="#CFAE58"/>
    <circle cx="1058" cy="130" r="4" fill="#CFAE58"/>
    <circle cx="150" cy="500" r="5" fill="#4FD1C5"/>
    <circle cx="165" cy="508" r="4" fill="#4FD1C5"/>
    <circle cx="140" cy="512" r="5" fill="#4FD1C5"/>
  </g>
</svg>