<svg width="1200" height="630" xmlns="http://www.w3.org/2000/svg">
  <defs>
    <linearGradient id="bgGradient" x1="0%" y1="0%" x2="100%" y2="100%">
      <stop offset="0%" style="stop-color:#0B0F14;stop-opacity:1" />
      <stop offset="50%" style="stop-color:#0F1619;stop-opacity:1" />
      <stop offset="100%" style="stop-color:#0F1922;stop-opacity:1" />
    </linearGradient>
    <linearGradient id="goldGradient" x1="0%" y1="0%" x2="100%" y2="0%">
      <stop offset="0%" style="stop-color:#E5D596;stop-opacity:1" />
      <stop offset="50%" style="stop-color:#CFAE58;stop-opacity:1" />
      <stop offset="100%" style="stop-color:#B89842;stop-opacity:1" />
    </linearGradient>
    <radialGradient id="oceanGradient" cx="50%" cy="50%" r="50%">
      <stop offset="0%" style="stop-color:#4FD1C5;stop-opacity:0.3" />
      <stop offset="100%" style="stop-color:#1E90A0;stop-opacity:0.05" />
    </radialGradient>
    <filter id="glow">
      <feGaussianBlur stdDeviation="5" result="coloredBlur"/>
      <feMerge>
        <feMergeNode in="coloredBlur"/>
        <feMergeNode in="SourceGraphic"/>
      </feMerge>
    </filter>
    <filter id="softGlow">
      <feGaussianBlur stdDeviation="8" result="coloredBlur"/>
      <feMerge>
        <feMergeNode in="coloredBlur"/>
        <feMergeNode in="SourceGraphic"/>
      </feMerge>
    </filter>
    <filter id="shadow">
      <feDropShadow dx="0" dy="4" stdDeviation="8" flood-color="#000000" flood-opacity="0.5"/>
    </filter>
  </defs>

  <!-- Background -->
  <rect width="1200" height="630" fill="url(#bgGradient)"/>

  <!-- Decorative ocean gradients -->
  <ellipse cx="1000" cy="150" rx="300" ry="200" fill="url(#oceanGradient)" opacity="0.4"/>
  <ellipse cx="200" cy="530" rx="250" ry="180" fill="url(#oceanGradient)" opacity="0.3"/>

  <!-- Wave patterns -->
  <path d="M 0 400 Q 300 350 600 400 T 1200 400 L 1200 630 L 0 630 Z" fill="#1E90A0" opacity="0.08"/>
  <path d="M 0 450 Q 250 420 500 450 T 1000 450 T 1200 450 L 1200 630 L 0 630 Z" fill="#4FD1C5" opacity="0.05"/>

  <!-- Caviar roe particles -->
  <circle cx="31.920614913079337" cy="158.4273242384135" r="2.0422154741588185" fill="#CFAE58" opacity="0.16207670870706392"/>
  <circle cx="786.9000147732291" cy="67.72285769152991" r="2.264344537052388" fill="#CFAE58" opacity="0.22006872497874083"/>
  <circle cx="1054.3836934116875" cy="559.9458039726752" r="4.76145110253404" fill="#CFAE58" opacity="0.12635196147888803"/>
  <circle cx="1031.5856339312563" cy="215.05653170171573" r="4.868166083246652" fill="#CFAE58" opacity="0.13214212363751526"/>
  <circle cx="440.73184093837267" cy="174.68722266667967" r="4.743498666992618" fill="#CFAE58" opacity="0.12091060504929653"/>
  <circle cx="1149.0157804335192" cy="538.8152396882022" r="3.648883950741368" fill="#CFAE58" opacity="0.1649143373876376"/>
  <circle cx="765.9183942731864" cy="267.3354549809165" r="5.0242920188071" fill="#CFAE58" opacity="0.12007756042912542"/>
  <circle cx="885.2394635285149" cy="345.8727245938565" r="5.532719526981259" fill="#CFAE58" opacity="0.24629232151776234"/>
  <circle cx="940.0716079901281" cy="395.81263826447537" r="3.7690735336097" fill="#CFAE58" opacity="0.17858896272767671"/>
  <circle cx="186.1561510793754" cy="345.42016895902026" r="2.6827929026355593" fill="#CFAE58" opacity="0.16372887123216684"/>
  <circle cx="471.68657396949334" cy="602.5613870558327" r="5.708279842845151" fill="#CFAE58" opacity="0.22760061772651505"/>
  <circle cx="423.4813832351038" cy="577.1463511735328" r="5.361657813128788" fill="#CFAE58" opacity="0.14005542057481296"/>
  <circle cx="665.0568179415386" cy="610.7208433191494" r="5.100671626131767" fill="#CFAE58" opacity="0.18766213067187743"/>
  <circle cx="170.98724372181405" cy="348.5751269221298" r="3.215312905795132" fill="#CFAE58" opacity="0.24039379693393148"/>
  <circle cx="436.97404827747846" cy="499.93158806295196" r="3.0017570667081825" fill="#CFAE58" opacity="0.2196710338128579"/>
  <circle cx="1187.9282630801345" cy="314.0623013914195" r="4.774194336488434" fill="#CFAE58" opacity="0.10761407187151344"/>
  <circle cx="680.097509395992" cy="201.75780680391182" r="3.727212753898498" fill="#CFAE58" opacity="0.12851510158665974"/>
  <circle cx="407.7903320274994" cy="617.5923187090349" r="5.505633019548427" fill="#CFAE58" opacity="0.2100788169632724"/>
  <circle cx="324.3666343527994" cy="482.51364769567454" r="2.101068748777717" fill="#CFAE58" opacity="0.17972403688449695"/>
  <circle cx="836.6122104281343" cy="249.56265736448933" r="5.233228731897935" fill="#CFAE58" opacity="0.11111957534435536"/>
  <circle cx="563.4581052535111" cy="334.9107692553792" r="4.944549702694136" fill="#CFAE58" opacity="0.21626505158138226"/>
  <circle cx="999.6141936841618" cy="164.38656347956754" r="4.569380380190133" fill="#CFAE58" opacity="0.1072282657202035"/>
  <circle cx="121.77882596499856" cy="184.79925073745557" r="3.4386382382354164" fill="#CFAE58" opacity="0.16800582504947095"/>
  <circle cx="298.422445172067" cy="373.17741413801724" r="3.6611202997567656" fill="#CFAE58" opacity="0.1685909962902376"/>
  <circle cx="699.1849396682095" cy="417.3481857257318" r="4.709762844859174" fill="#CFAE58" opacity="0.14476805836533768"/>
  <circle cx="248.137355162969" cy="297.0004892799456" r="3.2399077473274804" fill="#CFAE58" opacity="0.1326705932767658"/>
  <circle cx="721.2374038653436" cy="214.99767582545195" r="5.780851482362922" fill="#CFAE58" opacity="0.11040099352077228"/>
  <circle cx="21.887668541018712" cy="273.668257135302" r="2.3762418991774448" fill="#CFAE58" opacity="0.24747170595637008"/>
  <circle cx="1193.651978551095" cy="408.9161159366916" r="3.1571593629356354" fill="#CFAE58" opacity="0.1752733246642475"/>
  <circle cx="1166.489152587475" cy="220.7334412947736" r="5.659740111450448" fill="#CFAE58" opacity="0.2161851667165675"/>

  <!-- Border with glow -->
  <rect x="40" y="40" width="1120" height="550" fill="none" stroke="url(#goldGradient)" stroke-width="3" rx="12" filter="url(#softGlow)"/>

  <!-- Icon circle with premium background -->
  <circle cx="150" cy="200" r="75" fill="#CFAE58" opacity="0.15" filter="url(#softGlow)"/>
  <circle cx="150" cy="200" r="70" fill="#CFAE58" opacity="0.25"/>
  <text x="150" y="235" font-size="90" text-anchor="middle" fill="#CFAE58" filter="url(#glow)">📈</text>

  <!-- Premium logo (crown) with enhanced styling -->
  <g transform="translate(100, 70)">
    <path d="M 30 20 L 40 35 L 35 35 Z M 50 15 L 60 35 L 45 35 Z M 65 20 L 75 35 L 70 35 Z M 30 35 L 75 35 L 73 45 L 32 45 Z"
          fill="url(#goldGradient)" filter="url(#glow)" stroke="#B89842" stroke-width="0.5"/>
    <circle cx="40" cy="25" r="3" fill="#4FD1C5" filter="url(#glow)"/>
    <circle cx="52" cy="20" r="4" fill="#4FD1C5" filter="url(#glow)"/>
    <circle cx="65" cy="25" r="3" fill="#4FD1C5" filter="url(#glow)"/>
  </g>

  <!-- Title with shadow -->
  <text x="280" y="180" font-family="Georgia, serif" font-size="72" font-weight="bold"
        fill="url(#goldGradient)" filter="url(#shadow)">Investment Opportunities</text>

  <!-- Subtitle with subtle glow -->
  <text x="280" y="230" font-family="Arial, sans-serif" font-size="36"
        fill="#D6DEE6" opacity="0.95" filter="url(#softGlow)">Models A/B/C/D Returns</text>

  <!-- Brand name with letter spacing -->
  <text x="280" y="300" font-family="Georgia, serif" font-size="32" font-weight="bold"
        fill="#CFAE58" letter-spacing="4" filter="url(#glow)">ROYAL KETA</text>

  <!-- Russian tagline -->
  <text x="280" y="340" font-family="Arial, sans-serif" font-size="22" font-style="italic"
        fill="#8B95A1" opacity="0.8">От икринки к королевской</text>

  <!-- Location -->
  <text x="280" y="380" font-family="Arial, sans-serif" font-size="20"
        fill="#8B95A1" opacity="0.7">Невельский район, Сахалин</text>

  <!-- Website with glow -->
  <text x="100" y="570" font-family="Arial, sans-serif" font-size="30" font-weight="bold"
        fill="#4FD1C5" filter="url(#glow)">royalketa.com</text>

  <!-- Enhanced decorative salmon silhouette -->
  <g transform="translate(950, 480)" opacity="0.2" filter="url(#softGlow)">
    <ellipse cx="0" cy="0" rx="90" ry="35" fill="#CFAE58"/>
    <path d="M 90 0 L 120 -18 L 130 0 L 120 18 Z" fill="#CFAE58"/>
    <path d="M -25 -35 L 0 -45 L 25 -35 Z" fill="#CFAE58"/>
    <ellipse cx="-50" cy="0" rx="15" ry="12" fill="#0B0F14"/>
  </g>

  <!-- Additional decorative caviar clusters -->
  <g opacity="0.2">
    <circle cx="1050" cy="120" r="6" fill="#CFAE58"/>
    <circle cx="1065" cy="115" r="5" fill="#CFAE58"/>
    <circle cx="1058" cy="130" r="4" fill="#CFAE58"/>
    <circle cx="150" cy="500" r="5" fill="#4FD1C5"/>
    <circle cx="165" cy="508" r="4" fill="#4FD1C5"/>
    <circle cx="140" cy="512" r="5" fill="#4FD1C5"/>
  </g>
</svg>