<svg width="1200" height="630" xmlns="http://www.w3.org/2000/svg">
  <defs>
    <linearGradient id="bgGradient" x1="0%" y1="0%" x2="100%" y2="100%">
      <stop offset="0%" style="stop-color:#0B0F14;stop-opacity:1" />
      <stop offset="50%" style="stop-color:#0F1619;stop-opacity:1" />
      <stop offset="100%" style="stop-color:#0F1922;stop-opacity:1" />
    </linearGradient>
    <linearGradient id="goldGradient" x1="0%" y1="0%" x2="100%" y2="0%">
      <stop offset="0%" style="stop-color:#E5D596;stop-opacity:1" />
      <stop offset="50%" style="stop-color:#CFAE58;stop-opacity:1" />
      <stop offset="100%" style="stop-color:#B89842;stop-opacity:1" />
    </linearGradient>
    <radialGradient id="oceanGradient" cx="50%" cy="50%" r="50%">
      <stop offset="0%" style="stop-color:#4FD1C5;stop-opacity:0.3" />
      <stop offset="100%" style="stop-color:#1E90A0;stop-opacity:0.05" />
    </radialGradient>
    <filter id="glow">
      <feGaussianBlur stdDeviation="5" result="coloredBlur"/>
      <feMerge>
        <feMergeNode in="coloredBlur"/>
        <feMergeNode in="SourceGraphic"/>
      </feMerge>
    </filter>
    <filter id="softGlow">
      <feGaussianBlur stdDeviation="8" result="coloredBlur"/>
      <feMerge>
        <feMergeNode in="coloredBlur"/>
        <feMergeNode in="SourceGraphic"/>
      </feMerge>
    </filter>
    <filter id="shadow">
      <feDropShadow dx="0" dy="4" stdDeviation="8" flood-color="#000000" flood-opacity="0.5"/>
    </filter>
  </defs>

  <!-- Background -->
  <rect width="1200" height="630" fill="url(#bgGradient)"/>

  <!-- Decorative ocean gradients -->
  <ellipse cx="1000" cy="150" rx="300" ry="200" fill="url(#oceanGradient)" opacity="0.4"/>
  <ellipse cx="200" cy="530" rx="250" ry="180" fill="url(#oceanGradient)" opacity="0.3"/>

  <!-- Wave patterns -->
  <path d="M 0 400 Q 300 350 600 400 T 1200 400 L 1200 630 L 0 630 Z" fill="#1E90A0" opacity="0.08"/>
  <path d="M 0 450 Q 250 420 500 450 T 1000 450 T 1200 450 L 1200 630 L 0 630 Z" fill="#4FD1C5" opacity="0.05"/>

  <!-- Caviar roe particles -->
  <circle cx="136.60116132748365" cy="594.7996838857337" r="2.2119650263837496" fill="#CFAE58" opacity="0.2399628890901121"/>
  <circle cx="306.222958555252" cy="123.53906371521322" r="4.202150344039814" fill="#CFAE58" opacity="0.10039964456316956"/>
  <circle cx="717.7050709315936" cy="68.08790327971774" r="2.883121360470483" fill="#CFAE58" opacity="0.21684135004952848"/>
  <circle cx="679.4428015805945" cy="125.40397639587495" r="4.94575696904602" fill="#CFAE58" opacity="0.14259002405684712"/>
  <circle cx="666.4364542915728" cy="105.00072016460054" r="2.979834843798992" fill="#CFAE58" opacity="0.24643648736788876"/>
  <circle cx="182.79045315026724" cy="45.18937053651143" r="4.463980036000957" fill="#CFAE58" opacity="0.11310701847790144"/>
  <circle cx="153.53388815399924" cy="242.63135395197682" r="2.063541543248796" fill="#CFAE58" opacity="0.2339935334043784"/>
  <circle cx="543.7799808068867" cy="124.50682749941114" r="4.080725080775854" fill="#CFAE58" opacity="0.24017661236021604"/>
  <circle cx="1071.4018486410614" cy="300.2682857531784" r="4.5095320903872" fill="#CFAE58" opacity="0.19341387045211883"/>
  <circle cx="488.0296244824038" cy="430.5928171088481" r="5.8954325908188485" fill="#CFAE58" opacity="0.19734762806338052"/>
  <circle cx="1151.9432068736248" cy="547.6123329679284" r="4.079462375834701" fill="#CFAE58" opacity="0.18115695387159012"/>
  <circle cx="7.8030188985425575" cy="148.5979307960175" r="4.031771540199966" fill="#CFAE58" opacity="0.246743320214595"/>
  <circle cx="765.7889637103516" cy="484.80172972392603" r="2.875170885840129" fill="#CFAE58" opacity="0.24356232355303348"/>
  <circle cx="741.9250953629389" cy="185.614763396017" r="3.4760573121927063" fill="#CFAE58" opacity="0.24893371317590304"/>
  <circle cx="101.5772882558541" cy="233.8837438015628" r="2.5644328272696724" fill="#CFAE58" opacity="0.21293699860051793"/>
  <circle cx="1093.832452952243" cy="312.4115651022145" r="3.773321581693173" fill="#CFAE58" opacity="0.12046007235099575"/>
  <circle cx="893.8267602959473" cy="571.6488987946041" r="3.2553291445629053" fill="#CFAE58" opacity="0.20493609982357225"/>
  <circle cx="107.65242001905735" cy="258.3562904309268" r="5.077004780769303" fill="#CFAE58" opacity="0.16302990518859278"/>
  <circle cx="756.8990785783164" cy="559.9304344584226" r="5.17916180479705" fill="#CFAE58" opacity="0.19673273362458948"/>
  <circle cx="31.85182698349891" cy="310.96596897891163" r="4.8385900505571335" fill="#CFAE58" opacity="0.1014211914693942"/>
  <circle cx="886.5160049005337" cy="593.4140053668233" r="5.424522681329094" fill="#CFAE58" opacity="0.23232500785006038"/>
  <circle cx="621.1965671637856" cy="11.954891688001892" r="4.685914121046316" fill="#CFAE58" opacity="0.21644904158326733"/>
  <circle cx="879.4662722051359" cy="528.3324196537178" r="5.763413723402533" fill="#CFAE58" opacity="0.1562977124735751"/>
  <circle cx="815.7775276027822" cy="544.0801068379493" r="4.9405964895627354" fill="#CFAE58" opacity="0.1369301444482528"/>
  <circle cx="936.10533719668" cy="205.75603417593584" r="4.897030914673025" fill="#CFAE58" opacity="0.17695871733429597"/>
  <circle cx="30.754170952551885" cy="28.789435682248172" r="5.328483507449001" fill="#CFAE58" opacity="0.10413864583151854"/>
  <circle cx="554.7143900372952" cy="138.65185973853139" r="5.678007910768474" fill="#CFAE58" opacity="0.18238720369939337"/>
  <circle cx="894.3455956170305" cy="532.7035911352475" r="2.5354629847622476" fill="#CFAE58" opacity="0.10061930384764081"/>
  <circle cx="219.0407830895147" cy="502.00262806368175" r="5.188403683315899" fill="#CFAE58" opacity="0.19635980079400467"/>
  <circle cx="14.611876417141723" cy="232.88626130827595" r="3.6438137079241386" fill="#CFAE58" opacity="0.19813104092068068"/>

  <!-- Border with glow -->
  <rect x="40" y="40" width="1120" height="550" fill="none" stroke="url(#goldGradient)" stroke-width="3" rx="12" filter="url(#softGlow)"/>

  <!-- Icon circle with premium background -->
  <circle cx="150" cy="200" r="75" fill="#CFAE58" opacity="0.15" filter="url(#softGlow)"/>
  <circle cx="150" cy="200" r="70" fill="#CFAE58" opacity="0.25"/>
  <text x="150" y="235" font-size="90" text-anchor="middle" fill="#CFAE58" filter="url(#glow)">📈</text>

  <!-- Premium logo (crown) with enhanced styling -->
  <g transform="translate(100, 70)">
    <path d="M 30 20 L 40 35 L 35 35 Z M 50 15 L 60 35 L 45 35 Z M 65 20 L 75 35 L 70 35 Z M 30 35 L 75 35 L 73 45 L 32 45 Z"
          fill="url(#goldGradient)" filter="url(#glow)" stroke="#B89842" stroke-width="0.5"/>
    <circle cx="40" cy="25" r="3" fill="#4FD1C5" filter="url(#glow)"/>
    <circle cx="52" cy="20" r="4" fill="#4FD1C5" filter="url(#glow)"/>
    <circle cx="65" cy="25" r="3" fill="#4FD1C5" filter="url(#glow)"/>
  </g>

  <!-- Title with shadow -->
  <text x="280" y="180" font-family="Georgia, serif" font-size="72" font-weight="bold"
        fill="url(#goldGradient)" filter="url(#shadow)">Investment Opportunities</text>

  <!-- Subtitle with subtle glow -->
  <text x="280" y="230" font-family="Arial, sans-serif" font-size="36"
        fill="#D6DEE6" opacity="0.95" filter="url(#softGlow)">Models A/B/C/D Returns</text>

  <!-- Brand name with letter spacing -->
  <text x="280" y="300" font-family="Georgia, serif" font-size="32" font-weight="bold"
        fill="#CFAE58" letter-spacing="4" filter="url(#glow)">ROYAL KETA</text>

  <!-- Russian tagline -->
  <text x="280" y="340" font-family="Arial, sans-serif" font-size="22" font-style="italic"
        fill="#8B95A1" opacity="0.8">От икринки к королевской</text>

  <!-- Location -->
  <text x="280" y="380" font-family="Arial, sans-serif" font-size="20"
        fill="#8B95A1" opacity="0.7">Невельский район, Сахалин</text>

  <!-- Website with glow -->
  <text x="100" y="570" font-family="Arial, sans-serif" font-size="30" font-weight="bold"
        fill="#4FD1C5" filter="url(#glow)">royalketa.com</text>

  <!-- Enhanced decorative salmon silhouette -->
  <g transform="translate(950, 480)" opacity="0.2" filter="url(#softGlow)">
    <ellipse cx="0" cy="0" rx="90" ry="35" fill="#CFAE58"/>
    <path d="M 90 0 L 120 -18 L 130 0 L 120 18 Z" fill="#CFAE58"/>
    <path d="M -25 -35 L 0 -45 L 25 -35 Z" fill="#CFAE58"/>
    <ellipse cx="-50" cy="0" rx="15" ry="12" fill="#0B0F14"/>
  </g>

  <!-- Additional decorative caviar clusters -->
  <g opacity="0.2">
    <circle cx="1050" cy="120" r="6" fill="#CFAE58"/>
    <circle cx="1065" cy="115" r="5" fill="#CFAE58"/>
    <circle cx="1058" cy="130" r="4" fill="#CFAE58"/>
    <circle cx="150" cy="500" r="5" fill="#4FD1C5"/>
    <circle cx="165" cy="508" r="4" fill="#4FD1C5"/>
    <circle cx="140" cy="512" r="5" fill="#4FD1C5"/>
  </g>
</svg>