<svg width="1200" height="630" xmlns="http://www.w3.org/2000/svg">
  <defs>
    <linearGradient id="bgGradient" x1="0%" y1="0%" x2="100%" y2="100%">
      <stop offset="0%" style="stop-color:#0B0F14;stop-opacity:1" />
      <stop offset="50%" style="stop-color:#0F1619;stop-opacity:1" />
      <stop offset="100%" style="stop-color:#0F1922;stop-opacity:1" />
    </linearGradient>
    <linearGradient id="goldGradient" x1="0%" y1="0%" x2="100%" y2="0%">
      <stop offset="0%" style="stop-color:#E5D596;stop-opacity:1" />
      <stop offset="50%" style="stop-color:#CFAE58;stop-opacity:1" />
      <stop offset="100%" style="stop-color:#B89842;stop-opacity:1" />
    </linearGradient>
    <radialGradient id="oceanGradient" cx="50%" cy="50%" r="50%">
      <stop offset="0%" style="stop-color:#4FD1C5;stop-opacity:0.3" />
      <stop offset="100%" style="stop-color:#1E90A0;stop-opacity:0.05" />
    </radialGradient>
    <filter id="glow">
      <feGaussianBlur stdDeviation="5" result="coloredBlur"/>
      <feMerge>
        <feMergeNode in="coloredBlur"/>
        <feMergeNode in="SourceGraphic"/>
      </feMerge>
    </filter>
    <filter id="softGlow">
      <feGaussianBlur stdDeviation="8" result="coloredBlur"/>
      <feMerge>
        <feMergeNode in="coloredBlur"/>
        <feMergeNode in="SourceGraphic"/>
      </feMerge>
    </filter>
    <filter id="shadow">
      <feDropShadow dx="0" dy="4" stdDeviation="8" flood-color="#000000" flood-opacity="0.5"/>
    </filter>
  </defs>

  <!-- Background -->
  <rect width="1200" height="630" fill="url(#bgGradient)"/>

  <!-- Decorative ocean gradients -->
  <ellipse cx="1000" cy="150" rx="300" ry="200" fill="url(#oceanGradient)" opacity="0.4"/>
  <ellipse cx="200" cy="530" rx="250" ry="180" fill="url(#oceanGradient)" opacity="0.3"/>

  <!-- Wave patterns -->
  <path d="M 0 400 Q 300 350 600 400 T 1200 400 L 1200 630 L 0 630 Z" fill="#1E90A0" opacity="0.08"/>
  <path d="M 0 450 Q 250 420 500 450 T 1000 450 T 1200 450 L 1200 630 L 0 630 Z" fill="#4FD1C5" opacity="0.05"/>

  <!-- Caviar roe particles -->
  <circle cx="16.578446348848974" cy="615.5160420075958" r="5.40785557693815" fill="#CFAE58" opacity="0.1706257345547188"/>
  <circle cx="545.1215514042988" cy="477.86728968929873" r="3.4495629866235866" fill="#CFAE58" opacity="0.1686379776204891"/>
  <circle cx="767.6709303578951" cy="355.0627238320565" r="5.033277961685482" fill="#CFAE58" opacity="0.2431200024305949"/>
  <circle cx="1007.9024620758762" cy="562.4506737811107" r="5.911730665365102" fill="#CFAE58" opacity="0.1397032623939118"/>
  <circle cx="1048.540220131638" cy="438.90432639392003" r="5.577307956496024" fill="#CFAE58" opacity="0.17165464476326003"/>
  <circle cx="490.5813161653601" cy="58.50269230467839" r="2.5860630775547087" fill="#CFAE58" opacity="0.20000915999375263"/>
  <circle cx="115.22277726977333" cy="274.0051931044297" r="2.489741520171143" fill="#CFAE58" opacity="0.10323046074584373"/>
  <circle cx="6.8464433571651995" cy="195.93249387780972" r="4.039513491904255" fill="#CFAE58" opacity="0.16140180196239295"/>
  <circle cx="33.22676570530394" cy="391.0754684927714" r="5.481945647211615" fill="#CFAE58" opacity="0.23083301704391965"/>
  <circle cx="373.0940301103244" cy="563.8955343201137" r="4.094386184112559" fill="#CFAE58" opacity="0.23792252300475106"/>
  <circle cx="624.5052205354574" cy="496.9289544471685" r="2.2884871338155923" fill="#CFAE58" opacity="0.24738586769001905"/>
  <circle cx="679.0574273851586" cy="191.3422578500162" r="2.1917070473528355" fill="#CFAE58" opacity="0.20239035966107966"/>
  <circle cx="772.825101471697" cy="73.74777293742335" r="3.3527955706032744" fill="#CFAE58" opacity="0.11656085861329647"/>
  <circle cx="1167.097620390747" cy="347.7643407148959" r="5.332188429150278" fill="#CFAE58" opacity="0.21374285701111112"/>
  <circle cx="1110.2877591760498" cy="400.5040259042857" r="3.0591287867498496" fill="#CFAE58" opacity="0.21917968686182757"/>
  <circle cx="805.1801402604644" cy="326.46466507945763" r="2.834724474707177" fill="#CFAE58" opacity="0.19080604616823527"/>
  <circle cx="422.4049986542216" cy="340.6967966002144" r="3.3126046739939845" fill="#CFAE58" opacity="0.16776024721297267"/>
  <circle cx="1196.9634314986208" cy="615.1255116495107" r="4.968464246644295" fill="#CFAE58" opacity="0.18377228604862111"/>
  <circle cx="1061.3043212216594" cy="458.720165982697" r="5.427240139514507" fill="#CFAE58" opacity="0.15763913417023584"/>
  <circle cx="689.5157095428867" cy="5.855312154962946" r="2.784800356746765" fill="#CFAE58" opacity="0.13950665801882817"/>
  <circle cx="46.26752912985728" cy="316.6311213228041" r="5.5683238155348" fill="#CFAE58" opacity="0.12841261023732814"/>
  <circle cx="1091.9593674039054" cy="170.91421351441102" r="3.9461807330266705" fill="#CFAE58" opacity="0.13756062643857078"/>
  <circle cx="394.6136583009023" cy="405.03996308965986" r="5.9939575477338805" fill="#CFAE58" opacity="0.2285406381184086"/>
  <circle cx="513.0237990334684" cy="599.9355473392394" r="3.331159970785362" fill="#CFAE58" opacity="0.22946793097399248"/>
  <circle cx="926.9863553460751" cy="165.5004015689445" r="5.527998639817033" fill="#CFAE58" opacity="0.17610678920134992"/>
  <circle cx="1002.4673525005239" cy="140.8132264989203" r="5.310193179629598" fill="#CFAE58" opacity="0.15404902781775276"/>
  <circle cx="777.5908704995" cy="318.8565154148703" r="5.053543998151595" fill="#CFAE58" opacity="0.16791602119903082"/>
  <circle cx="1031.600106837031" cy="230.9512598380695" r="5.965421907625034" fill="#CFAE58" opacity="0.11130532683020705"/>
  <circle cx="756.3878505691854" cy="167.8343124085665" r="3.7135117217368574" fill="#CFAE58" opacity="0.14823377997033893"/>
  <circle cx="392.77945842199654" cy="175.49104503529276" r="5.956022220969482" fill="#CFAE58" opacity="0.10283129951285924"/>

  <!-- Border with glow -->
  <rect x="40" y="40" width="1120" height="550" fill="none" stroke="url(#goldGradient)" stroke-width="3" rx="12" filter="url(#softGlow)"/>

  <!-- Icon circle with premium background -->
  <circle cx="150" cy="200" r="75" fill="#CFAE58" opacity="0.15" filter="url(#softGlow)"/>
  <circle cx="150" cy="200" r="70" fill="#CFAE58" opacity="0.25"/>
  <text x="150" y="235" font-size="90" text-anchor="middle" fill="#CFAE58" filter="url(#glow)">⚖️</text>

  <!-- Premium logo (crown) with enhanced styling -->
  <g transform="translate(100, 70)">
    <path d="M 30 20 L 40 35 L 35 35 Z M 50 15 L 60 35 L 45 35 Z M 65 20 L 75 35 L 70 35 Z M 30 35 L 75 35 L 73 45 L 32 45 Z"
          fill="url(#goldGradient)" filter="url(#glow)" stroke="#B89842" stroke-width="0.5"/>
    <circle cx="40" cy="25" r="3" fill="#4FD1C5" filter="url(#glow)"/>
    <circle cx="52" cy="20" r="4" fill="#4FD1C5" filter="url(#glow)"/>
    <circle cx="65" cy="25" r="3" fill="#4FD1C5" filter="url(#glow)"/>
  </g>

  <!-- Title with shadow -->
  <text x="280" y="180" font-family="Georgia, serif" font-size="72" font-weight="bold"
        fill="url(#goldGradient)" filter="url(#shadow)">Legal Information</text>

  <!-- Subtitle with subtle glow -->
  <text x="280" y="230" font-family="Arial, sans-serif" font-size="36"
        fill="#D6DEE6" opacity="0.95" filter="url(#softGlow)">Terms, Privacy &amp; Disclosures</text>

  <!-- Brand name with letter spacing -->
  <text x="280" y="300" font-family="Georgia, serif" font-size="32" font-weight="bold"
        fill="#CFAE58" letter-spacing="4" filter="url(#glow)">ROYAL KETA</text>

  <!-- Russian tagline -->
  <text x="280" y="340" font-family="Arial, sans-serif" font-size="22" font-style="italic"
        fill="#8B95A1" opacity="0.8">От икринки к королевской</text>

  <!-- Location -->
  <text x="280" y="380" font-family="Arial, sans-serif" font-size="20"
        fill="#8B95A1" opacity="0.7">Невельский район, Сахалин</text>

  <!-- Website with glow -->
  <text x="100" y="570" font-family="Arial, sans-serif" font-size="30" font-weight="bold"
        fill="#4FD1C5" filter="url(#glow)">royalketa.com</text>

  <!-- Enhanced decorative salmon silhouette -->
  <g transform="translate(950, 480)" opacity="0.2" filter="url(#softGlow)">
    <ellipse cx="0" cy="0" rx="90" ry="35" fill="#CFAE58"/>
    <path d="M 90 0 L 120 -18 L 130 0 L 120 18 Z" fill="#CFAE58"/>
    <path d="M -25 -35 L 0 -45 L 25 -35 Z" fill="#CFAE58"/>
    <ellipse cx="-50" cy="0" rx="15" ry="12" fill="#0B0F14"/>
  </g>

  <!-- Additional decorative caviar clusters -->
  <g opacity="0.2">
    <circle cx="1050" cy="120" r="6" fill="#CFAE58"/>
    <circle cx="1065" cy="115" r="5" fill="#CFAE58"/>
    <circle cx="1058" cy="130" r="4" fill="#CFAE58"/>
    <circle cx="150" cy="500" r="5" fill="#4FD1C5"/>
    <circle cx="165" cy="508" r="4" fill="#4FD1C5"/>
    <circle cx="140" cy="512" r="5" fill="#4FD1C5"/>
  </g>
</svg>