<svg width="1200" height="630" xmlns="http://www.w3.org/2000/svg">
  <defs>
    <linearGradient id="bgGradient" x1="0%" y1="0%" x2="100%" y2="100%">
      <stop offset="0%" style="stop-color:#0B0F14;stop-opacity:1" />
      <stop offset="50%" style="stop-color:#0F1619;stop-opacity:1" />
      <stop offset="100%" style="stop-color:#0F1922;stop-opacity:1" />
    </linearGradient>
    <linearGradient id="goldGradient" x1="0%" y1="0%" x2="100%" y2="0%">
      <stop offset="0%" style="stop-color:#E5D596;stop-opacity:1" />
      <stop offset="50%" style="stop-color:#CFAE58;stop-opacity:1" />
      <stop offset="100%" style="stop-color:#B89842;stop-opacity:1" />
    </linearGradient>
    <radialGradient id="oceanGradient" cx="50%" cy="50%" r="50%">
      <stop offset="0%" style="stop-color:#4FD1C5;stop-opacity:0.3" />
      <stop offset="100%" style="stop-color:#1E90A0;stop-opacity:0.05" />
    </radialGradient>
    <filter id="glow">
      <feGaussianBlur stdDeviation="5" result="coloredBlur"/>
      <feMerge>
        <feMergeNode in="coloredBlur"/>
        <feMergeNode in="SourceGraphic"/>
      </feMerge>
    </filter>
    <filter id="softGlow">
      <feGaussianBlur stdDeviation="8" result="coloredBlur"/>
      <feMerge>
        <feMergeNode in="coloredBlur"/>
        <feMergeNode in="SourceGraphic"/>
      </feMerge>
    </filter>
    <filter id="shadow">
      <feDropShadow dx="0" dy="4" stdDeviation="8" flood-color="#000000" flood-opacity="0.5"/>
    </filter>
  </defs>

  <!-- Background -->
  <rect width="1200" height="630" fill="url(#bgGradient)"/>

  <!-- Decorative ocean gradients -->
  <ellipse cx="1000" cy="150" rx="300" ry="200" fill="url(#oceanGradient)" opacity="0.4"/>
  <ellipse cx="200" cy="530" rx="250" ry="180" fill="url(#oceanGradient)" opacity="0.3"/>

  <!-- Wave patterns -->
  <path d="M 0 400 Q 300 350 600 400 T 1200 400 L 1200 630 L 0 630 Z" fill="#1E90A0" opacity="0.08"/>
  <path d="M 0 450 Q 250 420 500 450 T 1000 450 T 1200 450 L 1200 630 L 0 630 Z" fill="#4FD1C5" opacity="0.05"/>

  <!-- Caviar roe particles -->
  <circle cx="763.7239855064647" cy="215.33781215677084" r="3.8427922737114217" fill="#CFAE58" opacity="0.19016543744832715"/>
  <circle cx="162.53325570790835" cy="356.1688957450571" r="5.282893359750748" fill="#CFAE58" opacity="0.17911580989486758"/>
  <circle cx="762.67324230233" cy="102.23162825676987" r="4.0948128945865605" fill="#CFAE58" opacity="0.12129328035282406"/>
  <circle cx="366.296041972316" cy="117.26570509118066" r="2.4598653259192638" fill="#CFAE58" opacity="0.17094740205436043"/>
  <circle cx="974.2434984136858" cy="77.22848623482194" r="2.1721729556129477" fill="#CFAE58" opacity="0.24711163524535673"/>
  <circle cx="1133.2582007167816" cy="597.2917141054918" r="2.5720029620947633" fill="#CFAE58" opacity="0.11900861792054793"/>
  <circle cx="400.9541012628472" cy="189.4624638944984" r="5.271085158317018" fill="#CFAE58" opacity="0.21548063778561366"/>
  <circle cx="554.9200606587925" cy="396.15093685640505" r="5.520926579465535" fill="#CFAE58" opacity="0.13033572042482816"/>
  <circle cx="206.73937715893248" cy="264.5656855560021" r="4.5580524879930815" fill="#CFAE58" opacity="0.21203255292631762"/>
  <circle cx="1129.838265599715" cy="533.189776009334" r="4.3095425263664815" fill="#CFAE58" opacity="0.2465406601429535"/>
  <circle cx="1183.3115937124594" cy="84.17657011545536" r="4.6205003148806645" fill="#CFAE58" opacity="0.15934424778244133"/>
  <circle cx="415.5433563573016" cy="237.93328519165394" r="5.717412870167329" fill="#CFAE58" opacity="0.16282201826890655"/>
  <circle cx="1050.930748285883" cy="110.94846590478909" r="2.670443489793252" fill="#CFAE58" opacity="0.16506769794109422"/>
  <circle cx="1041.0545266889023" cy="289.48908497427703" r="3.1871513730102015" fill="#CFAE58" opacity="0.2194270007456196"/>
  <circle cx="12.730051552179855" cy="76.78472250384118" r="2.7098203616408236" fill="#CFAE58" opacity="0.20819647686855375"/>
  <circle cx="455.4751334040047" cy="252.58117919990346" r="5.174033546198382" fill="#CFAE58" opacity="0.1166083758126541"/>
  <circle cx="424.15416968651994" cy="222.55240674350267" r="2.0774993987771264" fill="#CFAE58" opacity="0.17264364622839196"/>
  <circle cx="230.55843904163495" cy="408.9824525100236" r="5.890711035799433" fill="#CFAE58" opacity="0.2138154020342401"/>
  <circle cx="1066.714895534015" cy="417.7506123494757" r="2.4460598656181913" fill="#CFAE58" opacity="0.1558842524543204"/>
  <circle cx="723.0946326716704" cy="230.39210031912347" r="3.528613876613866" fill="#CFAE58" opacity="0.10439228233011469"/>
  <circle cx="1038.2790661389984" cy="381.2778544174409" r="5.379884540578619" fill="#CFAE58" opacity="0.16606626267270388"/>
  <circle cx="764.1799514682853" cy="290.1227103294391" r="5.242992925334477" fill="#CFAE58" opacity="0.23516055993543725"/>
  <circle cx="994.2469581376756" cy="127.78677860883177" r="5.390094397597194" fill="#CFAE58" opacity="0.13031791769722692"/>
  <circle cx="781.5173584627386" cy="178.0434256520209" r="3.459042406646663" fill="#CFAE58" opacity="0.14029161310600913"/>
  <circle cx="248.399902900485" cy="386.5702573847889" r="4.8143363557078205" fill="#CFAE58" opacity="0.2341684902508932"/>
  <circle cx="851.9775717383264" cy="141.6530141456161" r="3.7794785456237827" fill="#CFAE58" opacity="0.13268043694563258"/>
  <circle cx="496.7218189453796" cy="144.00310013378873" r="4.782015266777105" fill="#CFAE58" opacity="0.16596715991171312"/>
  <circle cx="983.6391556853862" cy="385.329898856042" r="5.581160382268238" fill="#CFAE58" opacity="0.16333596857943167"/>
  <circle cx="842.7878709103722" cy="567.8798950378107" r="4.9157633475364655" fill="#CFAE58" opacity="0.21600415587623792"/>
  <circle cx="394.69916857223" cy="252.87416791087534" r="4.649442962159012" fill="#CFAE58" opacity="0.17138831102255542"/>

  <!-- Border with glow -->
  <rect x="40" y="40" width="1120" height="550" fill="none" stroke="url(#goldGradient)" stroke-width="3" rx="12" filter="url(#softGlow)"/>

  <!-- Icon circle with premium background -->
  <circle cx="150" cy="200" r="75" fill="#CFAE58" opacity="0.15" filter="url(#softGlow)"/>
  <circle cx="150" cy="200" r="70" fill="#CFAE58" opacity="0.25"/>
  <text x="150" y="235" font-size="90" text-anchor="middle" fill="#CFAE58" filter="url(#glow)">⚖️</text>

  <!-- Premium logo (crown) with enhanced styling -->
  <g transform="translate(100, 70)">
    <path d="M 30 20 L 40 35 L 35 35 Z M 50 15 L 60 35 L 45 35 Z M 65 20 L 75 35 L 70 35 Z M 30 35 L 75 35 L 73 45 L 32 45 Z"
          fill="url(#goldGradient)" filter="url(#glow)" stroke="#B89842" stroke-width="0.5"/>
    <circle cx="40" cy="25" r="3" fill="#4FD1C5" filter="url(#glow)"/>
    <circle cx="52" cy="20" r="4" fill="#4FD1C5" filter="url(#glow)"/>
    <circle cx="65" cy="25" r="3" fill="#4FD1C5" filter="url(#glow)"/>
  </g>

  <!-- Title with shadow -->
  <text x="280" y="180" font-family="Georgia, serif" font-size="72" font-weight="bold"
        fill="url(#goldGradient)" filter="url(#shadow)">Legal Information</text>

  <!-- Subtitle with subtle glow -->
  <text x="280" y="230" font-family="Arial, sans-serif" font-size="36"
        fill="#D6DEE6" opacity="0.95" filter="url(#softGlow)">Terms, Privacy &amp; Disclosures</text>

  <!-- Brand name with letter spacing -->
  <text x="280" y="300" font-family="Georgia, serif" font-size="32" font-weight="bold"
        fill="#CFAE58" letter-spacing="4" filter="url(#glow)">ROYAL KETA</text>

  <!-- Russian tagline -->
  <text x="280" y="340" font-family="Arial, sans-serif" font-size="22" font-style="italic"
        fill="#8B95A1" opacity="0.8">От икринки к королевской</text>

  <!-- Location -->
  <text x="280" y="380" font-family="Arial, sans-serif" font-size="20"
        fill="#8B95A1" opacity="0.7">Невельский район, Сахалин</text>

  <!-- Website with glow -->
  <text x="100" y="570" font-family="Arial, sans-serif" font-size="30" font-weight="bold"
        fill="#4FD1C5" filter="url(#glow)">royalketa.com</text>

  <!-- Enhanced decorative salmon silhouette -->
  <g transform="translate(950, 480)" opacity="0.2" filter="url(#softGlow)">
    <ellipse cx="0" cy="0" rx="90" ry="35" fill="#CFAE58"/>
    <path d="M 90 0 L 120 -18 L 130 0 L 120 18 Z" fill="#CFAE58"/>
    <path d="M -25 -35 L 0 -45 L 25 -35 Z" fill="#CFAE58"/>
    <ellipse cx="-50" cy="0" rx="15" ry="12" fill="#0B0F14"/>
  </g>

  <!-- Additional decorative caviar clusters -->
  <g opacity="0.2">
    <circle cx="1050" cy="120" r="6" fill="#CFAE58"/>
    <circle cx="1065" cy="115" r="5" fill="#CFAE58"/>
    <circle cx="1058" cy="130" r="4" fill="#CFAE58"/>
    <circle cx="150" cy="500" r="5" fill="#4FD1C5"/>
    <circle cx="165" cy="508" r="4" fill="#4FD1C5"/>
    <circle cx="140" cy="512" r="5" fill="#4FD1C5"/>
  </g>
</svg>