<svg width="1200" height="630" xmlns="http://www.w3.org/2000/svg">
  <defs>
    <linearGradient id="bgGradient" x1="0%" y1="0%" x2="100%" y2="100%">
      <stop offset="0%" style="stop-color:#0B0F14;stop-opacity:1" />
      <stop offset="50%" style="stop-color:#0F1619;stop-opacity:1" />
      <stop offset="100%" style="stop-color:#0F1922;stop-opacity:1" />
    </linearGradient>
    <linearGradient id="goldGradient" x1="0%" y1="0%" x2="100%" y2="0%">
      <stop offset="0%" style="stop-color:#E5D596;stop-opacity:1" />
      <stop offset="50%" style="stop-color:#CFAE58;stop-opacity:1" />
      <stop offset="100%" style="stop-color:#B89842;stop-opacity:1" />
    </linearGradient>
    <radialGradient id="oceanGradient" cx="50%" cy="50%" r="50%">
      <stop offset="0%" style="stop-color:#4FD1C5;stop-opacity:0.3" />
      <stop offset="100%" style="stop-color:#1E90A0;stop-opacity:0.05" />
    </radialGradient>
    <filter id="glow">
      <feGaussianBlur stdDeviation="5" result="coloredBlur"/>
      <feMerge>
        <feMergeNode in="coloredBlur"/>
        <feMergeNode in="SourceGraphic"/>
      </feMerge>
    </filter>
    <filter id="softGlow">
      <feGaussianBlur stdDeviation="8" result="coloredBlur"/>
      <feMerge>
        <feMergeNode in="coloredBlur"/>
        <feMergeNode in="SourceGraphic"/>
      </feMerge>
    </filter>
    <filter id="shadow">
      <feDropShadow dx="0" dy="4" stdDeviation="8" flood-color="#000000" flood-opacity="0.5"/>
    </filter>
  </defs>

  <!-- Background -->
  <rect width="1200" height="630" fill="url(#bgGradient)"/>

  <!-- Decorative ocean gradients -->
  <ellipse cx="1000" cy="150" rx="300" ry="200" fill="url(#oceanGradient)" opacity="0.4"/>
  <ellipse cx="200" cy="530" rx="250" ry="180" fill="url(#oceanGradient)" opacity="0.3"/>

  <!-- Wave patterns -->
  <path d="M 0 400 Q 300 350 600 400 T 1200 400 L 1200 630 L 0 630 Z" fill="#1E90A0" opacity="0.08"/>
  <path d="M 0 450 Q 250 420 500 450 T 1000 450 T 1200 450 L 1200 630 L 0 630 Z" fill="#4FD1C5" opacity="0.05"/>

  <!-- Caviar roe particles -->
  <circle cx="876.6580385804021" cy="435.00294539201997" r="5.700413180675045" fill="#CFAE58" opacity="0.2387581412275021"/>
  <circle cx="908.4711680947158" cy="32.174619301094005" r="5.52247389717405" fill="#CFAE58" opacity="0.13549304275846874"/>
  <circle cx="887.6671377105303" cy="375.21439461973625" r="3.719023844560403" fill="#CFAE58" opacity="0.23308667093414223"/>
  <circle cx="1128.093265122069" cy="36.03462836864629" r="2.9497536472396817" fill="#CFAE58" opacity="0.1338285037206481"/>
  <circle cx="176.16092613230356" cy="47.259572407896165" r="3.569590722827163" fill="#CFAE58" opacity="0.18581123164859165"/>
  <circle cx="624.4210410105438" cy="533.8250042298878" r="5.864473183735894" fill="#CFAE58" opacity="0.1486635414447816"/>
  <circle cx="965.7682536259067" cy="514.8586687580871" r="3.2116362205328888" fill="#CFAE58" opacity="0.13148370969743417"/>
  <circle cx="1120.1851256858345" cy="494.2431185503789" r="2.1264367964705695" fill="#CFAE58" opacity="0.20852216737954193"/>
  <circle cx="289.25050008081456" cy="495.6947042685142" r="5.89379313200822" fill="#CFAE58" opacity="0.21232863477763098"/>
  <circle cx="398.4232052094481" cy="414.38185039405107" r="4.869937559942295" fill="#CFAE58" opacity="0.173670900784541"/>
  <circle cx="1184.927732611679" cy="539.5200183603272" r="2.8099589723087557" fill="#CFAE58" opacity="0.16580827707019435"/>
  <circle cx="774.489340975808" cy="430.16249349842457" r="4.083595541618932" fill="#CFAE58" opacity="0.21492857819305214"/>
  <circle cx="153.15075618115554" cy="480.09235828904167" r="3.22694047772979" fill="#CFAE58" opacity="0.10594337338453466"/>
  <circle cx="990.8364190303572" cy="397.6795896812309" r="4.580390378578247" fill="#CFAE58" opacity="0.2215380751399807"/>
  <circle cx="520.5940276060842" cy="208.5108271312952" r="4.962418329300508" fill="#CFAE58" opacity="0.13702456658268852"/>
  <circle cx="131.51530547959936" cy="480.3684868063831" r="3.3640759148516466" fill="#CFAE58" opacity="0.19650667054546878"/>
  <circle cx="983.6746406526761" cy="596.166504939538" r="5.023725453975757" fill="#CFAE58" opacity="0.19708480097728392"/>
  <circle cx="216.49278967041394" cy="212.36730049942986" r="3.230585200051092" fill="#CFAE58" opacity="0.10124111361188678"/>
  <circle cx="964.3662828334892" cy="24.6851339164854" r="2.4740123039443" fill="#CFAE58" opacity="0.2067899101925551"/>
  <circle cx="1029.7823598910516" cy="473.1904622753798" r="2.3105554730291944" fill="#CFAE58" opacity="0.17202649702974832"/>
  <circle cx="794.1285254814802" cy="608.1322288618841" r="3.987747731155609" fill="#CFAE58" opacity="0.17445472417638533"/>
  <circle cx="382.4015120220196" cy="431.28061167746574" r="4.288478576825873" fill="#CFAE58" opacity="0.1546633012932677"/>
  <circle cx="1147.7540350891777" cy="111.48273074271165" r="2.378605726501355" fill="#CFAE58" opacity="0.14689966553035738"/>
  <circle cx="361.8189839686235" cy="304.8237291862025" r="3.9037477061672003" fill="#CFAE58" opacity="0.16195781983323232"/>
  <circle cx="279.99274795057136" cy="339.59532038351085" r="3.017717337990718" fill="#CFAE58" opacity="0.22845497866396303"/>
  <circle cx="556.1420809858059" cy="287.6360279615335" r="5.029351122017625" fill="#CFAE58" opacity="0.14460754942573373"/>
  <circle cx="734.9842166746439" cy="458.12658819250515" r="5.374289961702353" fill="#CFAE58" opacity="0.14449380903034056"/>
  <circle cx="1012.8546618119675" cy="129.71777101526283" r="4.274592155970463" fill="#CFAE58" opacity="0.1728368314969906"/>
  <circle cx="830.0094169402854" cy="341.01552804711787" r="2.2823520481015724" fill="#CFAE58" opacity="0.16968582745854727"/>
  <circle cx="328.7799076405547" cy="134.20100396110172" r="3.834477912196067" fill="#CFAE58" opacity="0.16034607550481925"/>

  <!-- Border with glow -->
  <rect x="40" y="40" width="1120" height="550" fill="none" stroke="url(#goldGradient)" stroke-width="3" rx="12" filter="url(#softGlow)"/>

  <!-- Icon circle with premium background -->
  <circle cx="150" cy="200" r="75" fill="#CFAE58" opacity="0.15" filter="url(#softGlow)"/>
  <circle cx="150" cy="200" r="70" fill="#CFAE58" opacity="0.25"/>
  <text x="150" y="235" font-size="90" text-anchor="middle" fill="#CFAE58" filter="url(#glow)">⚖️</text>

  <!-- Premium logo (crown) with enhanced styling -->
  <g transform="translate(100, 70)">
    <path d="M 30 20 L 40 35 L 35 35 Z M 50 15 L 60 35 L 45 35 Z M 65 20 L 75 35 L 70 35 Z M 30 35 L 75 35 L 73 45 L 32 45 Z"
          fill="url(#goldGradient)" filter="url(#glow)" stroke="#B89842" stroke-width="0.5"/>
    <circle cx="40" cy="25" r="3" fill="#4FD1C5" filter="url(#glow)"/>
    <circle cx="52" cy="20" r="4" fill="#4FD1C5" filter="url(#glow)"/>
    <circle cx="65" cy="25" r="3" fill="#4FD1C5" filter="url(#glow)"/>
  </g>

  <!-- Title with shadow -->
  <text x="280" y="180" font-family="Georgia, serif" font-size="72" font-weight="bold"
        fill="url(#goldGradient)" filter="url(#shadow)">Legal Information</text>

  <!-- Subtitle with subtle glow -->
  <text x="280" y="230" font-family="Arial, sans-serif" font-size="36"
        fill="#D6DEE6" opacity="0.95" filter="url(#softGlow)">Terms, Privacy &amp; Disclosures</text>

  <!-- Brand name with letter spacing -->
  <text x="280" y="300" font-family="Georgia, serif" font-size="32" font-weight="bold"
        fill="#CFAE58" letter-spacing="4" filter="url(#glow)">ROYAL KETA</text>

  <!-- Russian tagline -->
  <text x="280" y="340" font-family="Arial, sans-serif" font-size="22" font-style="italic"
        fill="#8B95A1" opacity="0.8">От икринки к королевской</text>

  <!-- Location -->
  <text x="280" y="380" font-family="Arial, sans-serif" font-size="20"
        fill="#8B95A1" opacity="0.7">Невельский район, Сахалин</text>

  <!-- Website with glow -->
  <text x="100" y="570" font-family="Arial, sans-serif" font-size="30" font-weight="bold"
        fill="#4FD1C5" filter="url(#glow)">royalketa.com</text>

  <!-- Enhanced decorative salmon silhouette -->
  <g transform="translate(950, 480)" opacity="0.2" filter="url(#softGlow)">
    <ellipse cx="0" cy="0" rx="90" ry="35" fill="#CFAE58"/>
    <path d="M 90 0 L 120 -18 L 130 0 L 120 18 Z" fill="#CFAE58"/>
    <path d="M -25 -35 L 0 -45 L 25 -35 Z" fill="#CFAE58"/>
    <ellipse cx="-50" cy="0" rx="15" ry="12" fill="#0B0F14"/>
  </g>

  <!-- Additional decorative caviar clusters -->
  <g opacity="0.2">
    <circle cx="1050" cy="120" r="6" fill="#CFAE58"/>
    <circle cx="1065" cy="115" r="5" fill="#CFAE58"/>
    <circle cx="1058" cy="130" r="4" fill="#CFAE58"/>
    <circle cx="150" cy="500" r="5" fill="#4FD1C5"/>
    <circle cx="165" cy="508" r="4" fill="#4FD1C5"/>
    <circle cx="140" cy="512" r="5" fill="#4FD1C5"/>
  </g>
</svg>