<svg width="1200" height="630" xmlns="http://www.w3.org/2000/svg">
  <defs>
    <linearGradient id="bgGradient" x1="0%" y1="0%" x2="100%" y2="100%">
      <stop offset="0%" style="stop-color:#0B0F14;stop-opacity:1" />
      <stop offset="50%" style="stop-color:#0F1619;stop-opacity:1" />
      <stop offset="100%" style="stop-color:#0F1922;stop-opacity:1" />
    </linearGradient>
    <linearGradient id="goldGradient" x1="0%" y1="0%" x2="100%" y2="0%">
      <stop offset="0%" style="stop-color:#E5D596;stop-opacity:1" />
      <stop offset="50%" style="stop-color:#CFAE58;stop-opacity:1" />
      <stop offset="100%" style="stop-color:#B89842;stop-opacity:1" />
    </linearGradient>
    <radialGradient id="oceanGradient" cx="50%" cy="50%" r="50%">
      <stop offset="0%" style="stop-color:#4FD1C5;stop-opacity:0.3" />
      <stop offset="100%" style="stop-color:#1E90A0;stop-opacity:0.05" />
    </radialGradient>
    <filter id="glow">
      <feGaussianBlur stdDeviation="5" result="coloredBlur"/>
      <feMerge>
        <feMergeNode in="coloredBlur"/>
        <feMergeNode in="SourceGraphic"/>
      </feMerge>
    </filter>
    <filter id="softGlow">
      <feGaussianBlur stdDeviation="8" result="coloredBlur"/>
      <feMerge>
        <feMergeNode in="coloredBlur"/>
        <feMergeNode in="SourceGraphic"/>
      </feMerge>
    </filter>
    <filter id="shadow">
      <feDropShadow dx="0" dy="4" stdDeviation="8" flood-color="#000000" flood-opacity="0.5"/>
    </filter>
  </defs>

  <!-- Background -->
  <rect width="1200" height="630" fill="url(#bgGradient)"/>

  <!-- Decorative ocean gradients -->
  <ellipse cx="1000" cy="150" rx="300" ry="200" fill="url(#oceanGradient)" opacity="0.4"/>
  <ellipse cx="200" cy="530" rx="250" ry="180" fill="url(#oceanGradient)" opacity="0.3"/>

  <!-- Wave patterns -->
  <path d="M 0 400 Q 300 350 600 400 T 1200 400 L 1200 630 L 0 630 Z" fill="#1E90A0" opacity="0.08"/>
  <path d="M 0 450 Q 250 420 500 450 T 1000 450 T 1200 450 L 1200 630 L 0 630 Z" fill="#4FD1C5" opacity="0.05"/>

  <!-- Caviar roe particles -->
  <circle cx="1136.6250624359898" cy="22.9834286318243" r="3.680845053391427" fill="#CFAE58" opacity="0.24199358042585634"/>
  <circle cx="1185.8342736430193" cy="232.58490291934223" r="5.639569898296253" fill="#CFAE58" opacity="0.18708575014935477"/>
  <circle cx="730.7671887817016" cy="623.6260266280244" r="5.856344014895184" fill="#CFAE58" opacity="0.16036723418814766"/>
  <circle cx="986.500348749179" cy="436.24713544442534" r="4.817791386320851" fill="#CFAE58" opacity="0.23623375763938786"/>
  <circle cx="89.35279539473457" cy="489.1346276824442" r="3.6050613884913023" fill="#CFAE58" opacity="0.22394839143013867"/>
  <circle cx="1028.157725039568" cy="362.9808167219574" r="2.2337738403449894" fill="#CFAE58" opacity="0.2449815943999713"/>
  <circle cx="268.0327538672755" cy="246.80373769350473" r="2.5710675603150586" fill="#CFAE58" opacity="0.11764541930845465"/>
  <circle cx="6.770930371409101" cy="418.7334354095171" r="3.2377881489273737" fill="#CFAE58" opacity="0.2125814344639982"/>
  <circle cx="384.86478760284655" cy="562.7270998692616" r="2.410641038710236" fill="#CFAE58" opacity="0.18964871298043423"/>
  <circle cx="751.3993459079044" cy="110.0365369429815" r="3.2110184458716047" fill="#CFAE58" opacity="0.11909745793969964"/>
  <circle cx="583.917724362154" cy="29.031653926652588" r="4.015632611448914" fill="#CFAE58" opacity="0.11946133384333188"/>
  <circle cx="42.62146863885023" cy="150.75150401687975" r="2.569723636145212" fill="#CFAE58" opacity="0.15549435518981347"/>
  <circle cx="814.4267809516103" cy="390.7806551563388" r="4.419468242071949" fill="#CFAE58" opacity="0.21275548519226406"/>
  <circle cx="849.2380050634813" cy="208.01253951559613" r="4.853608293552211" fill="#CFAE58" opacity="0.1777573716764434"/>
  <circle cx="738.6142281037229" cy="146.96201861730478" r="3.3791861503933083" fill="#CFAE58" opacity="0.18619768514306084"/>
  <circle cx="1088.5999400504302" cy="509.8871818942013" r="2.7644224611684276" fill="#CFAE58" opacity="0.12582832862069573"/>
  <circle cx="927.6456138752304" cy="438.8897699769586" r="5.745274826890231" fill="#CFAE58" opacity="0.2085492114986094"/>
  <circle cx="55.96466493525778" cy="582.9746272745954" r="4.594792963974362" fill="#CFAE58" opacity="0.2412544560548036"/>
  <circle cx="902.0956408821124" cy="555.6578640374925" r="2.372744661551451" fill="#CFAE58" opacity="0.24800105764498015"/>
  <circle cx="89.2099814150873" cy="315.4332953563412" r="2.6416205059875297" fill="#CFAE58" opacity="0.20549872125413451"/>
  <circle cx="218.12048456627505" cy="190.93961349600934" r="5.633984348837494" fill="#CFAE58" opacity="0.1496107270253637"/>
  <circle cx="767.0437035739901" cy="202.06248357660135" r="3.5931942841265414" fill="#CFAE58" opacity="0.22720458388517134"/>
  <circle cx="581.9084291181626" cy="624.717361775488" r="2.6156728987035285" fill="#CFAE58" opacity="0.1586694194895818"/>
  <circle cx="618.9987342591735" cy="414.79566320673155" r="4.086733179267018" fill="#CFAE58" opacity="0.16688398191354764"/>
  <circle cx="445.34792788306936" cy="230.98546839289529" r="4.356747426160151" fill="#CFAE58" opacity="0.24922497051166276"/>
  <circle cx="130.8186223188411" cy="101.57974625435915" r="4.318637681733702" fill="#CFAE58" opacity="0.12303868418925318"/>
  <circle cx="236.1465340883642" cy="371.9563497925989" r="3.4089884746997683" fill="#CFAE58" opacity="0.20479008852540204"/>
  <circle cx="111.87472295870853" cy="235.5656703648108" r="2.105855134573366" fill="#CFAE58" opacity="0.1382858352849914"/>
  <circle cx="668.8718012310876" cy="154.82546844916644" r="2.693784051096242" fill="#CFAE58" opacity="0.12528196976060985"/>
  <circle cx="1171.2425701051793" cy="60.60680365075205" r="5.4498277859846285" fill="#CFAE58" opacity="0.2324631300625423"/>

  <!-- Border with glow -->
  <rect x="40" y="40" width="1120" height="550" fill="none" stroke="url(#goldGradient)" stroke-width="3" rx="12" filter="url(#softGlow)"/>

  <!-- Icon circle with premium background -->
  <circle cx="150" cy="200" r="75" fill="#CFAE58" opacity="0.15" filter="url(#softGlow)"/>
  <circle cx="150" cy="200" r="70" fill="#CFAE58" opacity="0.25"/>
  <text x="150" y="235" font-size="90" text-anchor="middle" fill="#CFAE58" filter="url(#glow)">⚖️</text>

  <!-- Premium logo (crown) with enhanced styling -->
  <g transform="translate(100, 70)">
    <path d="M 30 20 L 40 35 L 35 35 Z M 50 15 L 60 35 L 45 35 Z M 65 20 L 75 35 L 70 35 Z M 30 35 L 75 35 L 73 45 L 32 45 Z"
          fill="url(#goldGradient)" filter="url(#glow)" stroke="#B89842" stroke-width="0.5"/>
    <circle cx="40" cy="25" r="3" fill="#4FD1C5" filter="url(#glow)"/>
    <circle cx="52" cy="20" r="4" fill="#4FD1C5" filter="url(#glow)"/>
    <circle cx="65" cy="25" r="3" fill="#4FD1C5" filter="url(#glow)"/>
  </g>

  <!-- Title with shadow -->
  <text x="280" y="180" font-family="Georgia, serif" font-size="72" font-weight="bold"
        fill="url(#goldGradient)" filter="url(#shadow)">Legal Information</text>

  <!-- Subtitle with subtle glow -->
  <text x="280" y="230" font-family="Arial, sans-serif" font-size="36"
        fill="#D6DEE6" opacity="0.95" filter="url(#softGlow)">Terms, Privacy & Disclosures</text>

  <!-- Brand name with letter spacing -->
  <text x="280" y="300" font-family="Georgia, serif" font-size="32" font-weight="bold"
        fill="#CFAE58" letter-spacing="4" filter="url(#glow)">ROYAL KETA</text>

  <!-- Russian tagline -->
  <text x="280" y="340" font-family="Arial, sans-serif" font-size="22" font-style="italic"
        fill="#8B95A1" opacity="0.8">От икринки к королевской</text>

  <!-- Location -->
  <text x="280" y="380" font-family="Arial, sans-serif" font-size="20"
        fill="#8B95A1" opacity="0.7">Невельский район, Сахалин</text>

  <!-- Website with glow -->
  <text x="100" y="570" font-family="Arial, sans-serif" font-size="30" font-weight="bold"
        fill="#4FD1C5" filter="url(#glow)">royalketa.com</text>

  <!-- Enhanced decorative salmon silhouette -->
  <g transform="translate(950, 480)" opacity="0.2" filter="url(#softGlow)">
    <ellipse cx="0" cy="0" rx="90" ry="35" fill="#CFAE58"/>
    <path d="M 90 0 L 120 -18 L 130 0 L 120 18 Z" fill="#CFAE58"/>
    <path d="M -25 -35 L 0 -45 L 25 -35 Z" fill="#CFAE58"/>
    <ellipse cx="-50" cy="0" rx="15" ry="12" fill="#0B0F14"/>
  </g>

  <!-- Additional decorative caviar clusters -->
  <g opacity="0.2">
    <circle cx="1050" cy="120" r="6" fill="#CFAE58"/>
    <circle cx="1065" cy="115" r="5" fill="#CFAE58"/>
    <circle cx="1058" cy="130" r="4" fill="#CFAE58"/>
    <circle cx="150" cy="500" r="5" fill="#4FD1C5"/>
    <circle cx="165" cy="508" r="4" fill="#4FD1C5"/>
    <circle cx="140" cy="512" r="5" fill="#4FD1C5"/>
  </g>
</svg>