<svg width="1200" height="630" xmlns="http://www.w3.org/2000/svg">
  <defs>
    <linearGradient id="bgGradient" x1="0%" y1="0%" x2="100%" y2="100%">
      <stop offset="0%" style="stop-color:#0B0F14;stop-opacity:1" />
      <stop offset="50%" style="stop-color:#0F1619;stop-opacity:1" />
      <stop offset="100%" style="stop-color:#0F1922;stop-opacity:1" />
    </linearGradient>
    <linearGradient id="goldGradient" x1="0%" y1="0%" x2="100%" y2="0%">
      <stop offset="0%" style="stop-color:#E5D596;stop-opacity:1" />
      <stop offset="50%" style="stop-color:#CFAE58;stop-opacity:1" />
      <stop offset="100%" style="stop-color:#B89842;stop-opacity:1" />
    </linearGradient>
    <radialGradient id="oceanGradient" cx="50%" cy="50%" r="50%">
      <stop offset="0%" style="stop-color:#4FD1C5;stop-opacity:0.3" />
      <stop offset="100%" style="stop-color:#1E90A0;stop-opacity:0.05" />
    </radialGradient>
    <filter id="glow">
      <feGaussianBlur stdDeviation="5" result="coloredBlur"/>
      <feMerge>
        <feMergeNode in="coloredBlur"/>
        <feMergeNode in="SourceGraphic"/>
      </feMerge>
    </filter>
    <filter id="softGlow">
      <feGaussianBlur stdDeviation="8" result="coloredBlur"/>
      <feMerge>
        <feMergeNode in="coloredBlur"/>
        <feMergeNode in="SourceGraphic"/>
      </feMerge>
    </filter>
    <filter id="shadow">
      <feDropShadow dx="0" dy="4" stdDeviation="8" flood-color="#000000" flood-opacity="0.5"/>
    </filter>
  </defs>

  <!-- Background -->
  <rect width="1200" height="630" fill="url(#bgGradient)"/>

  <!-- Decorative ocean gradients -->
  <ellipse cx="1000" cy="150" rx="300" ry="200" fill="url(#oceanGradient)" opacity="0.4"/>
  <ellipse cx="200" cy="530" rx="250" ry="180" fill="url(#oceanGradient)" opacity="0.3"/>

  <!-- Wave patterns -->
  <path d="M 0 400 Q 300 350 600 400 T 1200 400 L 1200 630 L 0 630 Z" fill="#1E90A0" opacity="0.08"/>
  <path d="M 0 450 Q 250 420 500 450 T 1000 450 T 1200 450 L 1200 630 L 0 630 Z" fill="#4FD1C5" opacity="0.05"/>

  <!-- Caviar roe particles -->
  <circle cx="488.9152550487202" cy="535.1234684213083" r="4.652632283016097" fill="#CFAE58" opacity="0.24689258108975295"/>
  <circle cx="202.4479107608867" cy="444.6083282170107" r="2.310411714536336" fill="#CFAE58" opacity="0.12338028852102535"/>
  <circle cx="648.1969378956687" cy="450.58639822044347" r="4.48896104489819" fill="#CFAE58" opacity="0.14621035576968314"/>
  <circle cx="806.494115446216" cy="182.70580836917068" r="5.915371948200817" fill="#CFAE58" opacity="0.15157826976003946"/>
  <circle cx="149.52703572474033" cy="212.10025356150507" r="5.071737552749445" fill="#CFAE58" opacity="0.13953193103489378"/>
  <circle cx="609.0993438268981" cy="216.75796036693043" r="4.479375972025631" fill="#CFAE58" opacity="0.15295877956163575"/>
  <circle cx="232.07187055000566" cy="317.8181156819948" r="2.485845416314051" fill="#CFAE58" opacity="0.19787481230796672"/>
  <circle cx="583.9952613392016" cy="527.5180439812287" r="5.950517337970963" fill="#CFAE58" opacity="0.17122367008124978"/>
  <circle cx="1098.866620222933" cy="607.9400620888325" r="4.061158952419465" fill="#CFAE58" opacity="0.1074992502237663"/>
  <circle cx="1178.5017663492513" cy="587.0853819761817" r="3.154046230467789" fill="#CFAE58" opacity="0.1839581517583469"/>
  <circle cx="838.1775075754609" cy="235.15789762146508" r="3.5433767131114426" fill="#CFAE58" opacity="0.1071639870369385"/>
  <circle cx="1061.858732516911" cy="27.437703015436423" r="5.204267570191356" fill="#CFAE58" opacity="0.20582198705634797"/>
  <circle cx="865.3322345049482" cy="354.58878566325166" r="3.091112817348801" fill="#CFAE58" opacity="0.19145900526788912"/>
  <circle cx="522.6968353183839" cy="271.88564999789406" r="2.4133234537062127" fill="#CFAE58" opacity="0.211590083675405"/>
  <circle cx="928.5157274903947" cy="36.33108162518818" r="2.028305905126553" fill="#CFAE58" opacity="0.14937024754290565"/>
  <circle cx="604.77273419709" cy="628.2539693690397" r="4.342615566476047" fill="#CFAE58" opacity="0.1402382703994668"/>
  <circle cx="294.74329033775086" cy="477.20886609375333" r="2.004629133753692" fill="#CFAE58" opacity="0.1095564571623498"/>
  <circle cx="802.0402523424693" cy="455.4267210717959" r="5.514738058472053" fill="#CFAE58" opacity="0.10431137149999287"/>
  <circle cx="952.8664498032811" cy="102.50014205135719" r="3.7796962615635405" fill="#CFAE58" opacity="0.18628421055676306"/>
  <circle cx="765.3010736615721" cy="397.4608252169022" r="4.097625026471118" fill="#CFAE58" opacity="0.1530243484604915"/>
  <circle cx="977.5315833071703" cy="338.5080073540405" r="2.208601631913384" fill="#CFAE58" opacity="0.17141045311304298"/>
  <circle cx="758.5070848494067" cy="227.68977954121692" r="4.223586296854562" fill="#CFAE58" opacity="0.2055465770123594"/>
  <circle cx="1121.0016965586185" cy="375.7363523856251" r="3.2009059103448783" fill="#CFAE58" opacity="0.10640555982993802"/>
  <circle cx="812.0605828424943" cy="416.87551691565955" r="3.2510844846926656" fill="#CFAE58" opacity="0.19846001836643842"/>
  <circle cx="1058.979191973152" cy="1.1516333907426612" r="4.787257350979041" fill="#CFAE58" opacity="0.19750450396613448"/>
  <circle cx="219.3934292240683" cy="74.93592157442214" r="4.072834827178451" fill="#CFAE58" opacity="0.21196922923615338"/>
  <circle cx="1166.8192524580431" cy="113.36094505634756" r="5.235191393574555" fill="#CFAE58" opacity="0.1017170767265145"/>
  <circle cx="91.25016252284625" cy="49.48085708077367" r="5.5500711879604925" fill="#CFAE58" opacity="0.13677866081153595"/>
  <circle cx="596.6860250014853" cy="415.80733234475736" r="3.127362071735614" fill="#CFAE58" opacity="0.19668507467634566"/>
  <circle cx="84.29417435336535" cy="193.8800866263017" r="3.3539757907002348" fill="#CFAE58" opacity="0.1456643641113886"/>

  <!-- Border with glow -->
  <rect x="40" y="40" width="1120" height="550" fill="none" stroke="url(#goldGradient)" stroke-width="3" rx="12" filter="url(#softGlow)"/>

  <!-- Icon circle with premium background -->
  <circle cx="150" cy="200" r="75" fill="#CFAE58" opacity="0.15" filter="url(#softGlow)"/>
  <circle cx="150" cy="200" r="70" fill="#CFAE58" opacity="0.25"/>
  <text x="150" y="235" font-size="90" text-anchor="middle" fill="#CFAE58" filter="url(#glow)">⚖️</text>

  <!-- Premium logo (crown) with enhanced styling -->
  <g transform="translate(100, 70)">
    <path d="M 30 20 L 40 35 L 35 35 Z M 50 15 L 60 35 L 45 35 Z M 65 20 L 75 35 L 70 35 Z M 30 35 L 75 35 L 73 45 L 32 45 Z"
          fill="url(#goldGradient)" filter="url(#glow)" stroke="#B89842" stroke-width="0.5"/>
    <circle cx="40" cy="25" r="3" fill="#4FD1C5" filter="url(#glow)"/>
    <circle cx="52" cy="20" r="4" fill="#4FD1C5" filter="url(#glow)"/>
    <circle cx="65" cy="25" r="3" fill="#4FD1C5" filter="url(#glow)"/>
  </g>

  <!-- Title with shadow -->
  <text x="280" y="180" font-family="Georgia, serif" font-size="72" font-weight="bold"
        fill="url(#goldGradient)" filter="url(#shadow)">Legal Information</text>

  <!-- Subtitle with subtle glow -->
  <text x="280" y="230" font-family="Arial, sans-serif" font-size="36"
        fill="#D6DEE6" opacity="0.95" filter="url(#softGlow)">Terms, Privacy &amp; Disclosures</text>

  <!-- Brand name with letter spacing -->
  <text x="280" y="300" font-family="Georgia, serif" font-size="32" font-weight="bold"
        fill="#CFAE58" letter-spacing="4" filter="url(#glow)">ROYAL KETA</text>

  <!-- Russian tagline -->
  <text x="280" y="340" font-family="Arial, sans-serif" font-size="22" font-style="italic"
        fill="#8B95A1" opacity="0.8">От икринки к королевской</text>

  <!-- Location -->
  <text x="280" y="380" font-family="Arial, sans-serif" font-size="20"
        fill="#8B95A1" opacity="0.7">Невельский район, Сахалин</text>

  <!-- Website with glow -->
  <text x="100" y="570" font-family="Arial, sans-serif" font-size="30" font-weight="bold"
        fill="#4FD1C5" filter="url(#glow)">royalketa.com</text>

  <!-- Enhanced decorative salmon silhouette -->
  <g transform="translate(950, 480)" opacity="0.2" filter="url(#softGlow)">
    <ellipse cx="0" cy="0" rx="90" ry="35" fill="#CFAE58"/>
    <path d="M 90 0 L 120 -18 L 130 0 L 120 18 Z" fill="#CFAE58"/>
    <path d="M -25 -35 L 0 -45 L 25 -35 Z" fill="#CFAE58"/>
    <ellipse cx="-50" cy="0" rx="15" ry="12" fill="#0B0F14"/>
  </g>

  <!-- Additional decorative caviar clusters -->
  <g opacity="0.2">
    <circle cx="1050" cy="120" r="6" fill="#CFAE58"/>
    <circle cx="1065" cy="115" r="5" fill="#CFAE58"/>
    <circle cx="1058" cy="130" r="4" fill="#CFAE58"/>
    <circle cx="150" cy="500" r="5" fill="#4FD1C5"/>
    <circle cx="165" cy="508" r="4" fill="#4FD1C5"/>
    <circle cx="140" cy="512" r="5" fill="#4FD1C5"/>
  </g>
</svg>