<svg width="1200" height="630" xmlns="http://www.w3.org/2000/svg">
  <defs>
    <linearGradient id="bgGradient" x1="0%" y1="0%" x2="100%" y2="100%">
      <stop offset="0%" style="stop-color:#0B0F14;stop-opacity:1" />
      <stop offset="50%" style="stop-color:#0F1619;stop-opacity:1" />
      <stop offset="100%" style="stop-color:#0F1922;stop-opacity:1" />
    </linearGradient>
    <linearGradient id="goldGradient" x1="0%" y1="0%" x2="100%" y2="0%">
      <stop offset="0%" style="stop-color:#E5D596;stop-opacity:1" />
      <stop offset="50%" style="stop-color:#CFAE58;stop-opacity:1" />
      <stop offset="100%" style="stop-color:#B89842;stop-opacity:1" />
    </linearGradient>
    <radialGradient id="oceanGradient" cx="50%" cy="50%" r="50%">
      <stop offset="0%" style="stop-color:#4FD1C5;stop-opacity:0.3" />
      <stop offset="100%" style="stop-color:#1E90A0;stop-opacity:0.05" />
    </radialGradient>
    <filter id="glow">
      <feGaussianBlur stdDeviation="5" result="coloredBlur"/>
      <feMerge>
        <feMergeNode in="coloredBlur"/>
        <feMergeNode in="SourceGraphic"/>
      </feMerge>
    </filter>
    <filter id="softGlow">
      <feGaussianBlur stdDeviation="8" result="coloredBlur"/>
      <feMerge>
        <feMergeNode in="coloredBlur"/>
        <feMergeNode in="SourceGraphic"/>
      </feMerge>
    </filter>
    <filter id="shadow">
      <feDropShadow dx="0" dy="4" stdDeviation="8" flood-color="#000000" flood-opacity="0.5"/>
    </filter>
  </defs>

  <!-- Background -->
  <rect width="1200" height="630" fill="url(#bgGradient)"/>

  <!-- Decorative ocean gradients -->
  <ellipse cx="1000" cy="150" rx="300" ry="200" fill="url(#oceanGradient)" opacity="0.4"/>
  <ellipse cx="200" cy="530" rx="250" ry="180" fill="url(#oceanGradient)" opacity="0.3"/>

  <!-- Wave patterns -->
  <path d="M 0 400 Q 300 350 600 400 T 1200 400 L 1200 630 L 0 630 Z" fill="#1E90A0" opacity="0.08"/>
  <path d="M 0 450 Q 250 420 500 450 T 1000 450 T 1200 450 L 1200 630 L 0 630 Z" fill="#4FD1C5" opacity="0.05"/>

  <!-- Caviar roe particles -->
  <circle cx="987.57954072589" cy="391.38970793076527" r="2.120822090879781" fill="#CFAE58" opacity="0.103401981864558"/>
  <circle cx="1079.6135746741984" cy="11.751555124876292" r="3.4759586991373284" fill="#CFAE58" opacity="0.169769445269139"/>
  <circle cx="698.0512558490295" cy="609.6233739235308" r="5.6958291825936085" fill="#CFAE58" opacity="0.23883138837421292"/>
  <circle cx="298.90784010450375" cy="81.89488609496338" r="5.309698964130214" fill="#CFAE58" opacity="0.19248860063752943"/>
  <circle cx="1049.1088728075788" cy="59.59732673096202" r="5.805619337536427" fill="#CFAE58" opacity="0.18174186424976568"/>
  <circle cx="521.3363300390707" cy="254.76587448658069" r="5.638213575654295" fill="#CFAE58" opacity="0.10516390555221772"/>
  <circle cx="690.400521785837" cy="440.1678385221791" r="3.474182843788261" fill="#CFAE58" opacity="0.22067610855062234"/>
  <circle cx="32.93489180760876" cy="131.46654355659558" r="2.07106600493141" fill="#CFAE58" opacity="0.12980411671288158"/>
  <circle cx="1196.0046940222655" cy="342.62353350256916" r="5.343303505133589" fill="#CFAE58" opacity="0.1399846751466484"/>
  <circle cx="824.7697224158796" cy="553.2278856160627" r="2.972126694467794" fill="#CFAE58" opacity="0.20399508063169808"/>
  <circle cx="865.4177024009116" cy="74.0969966638579" r="5.494271504044034" fill="#CFAE58" opacity="0.19319527214650933"/>
  <circle cx="207.9314840705384" cy="458.1768778924343" r="4.183133180819933" fill="#CFAE58" opacity="0.11747711610088907"/>
  <circle cx="411.5358004129247" cy="146.99275847035452" r="5.31957660617201" fill="#CFAE58" opacity="0.17875579737344355"/>
  <circle cx="354.4223928046114" cy="478.8052556633321" r="4.081165813159219" fill="#CFAE58" opacity="0.21805956764813483"/>
  <circle cx="1188.1536043495125" cy="313.98840021872917" r="3.929174411285812" fill="#CFAE58" opacity="0.16510356822914202"/>
  <circle cx="595.6992273190098" cy="460.94330209294384" r="5.624080724375851" fill="#CFAE58" opacity="0.16716285670198855"/>
  <circle cx="1034.1654237019054" cy="174.92857976025334" r="3.218772332258005" fill="#CFAE58" opacity="0.1255244040817814"/>
  <circle cx="1049.8019783638283" cy="338.55122684008154" r="5.931155052013416" fill="#CFAE58" opacity="0.2197502209575197"/>
  <circle cx="713.1869794027782" cy="229.01404012700704" r="4.8980233600856895" fill="#CFAE58" opacity="0.20774500357779346"/>
  <circle cx="15.989263698871303" cy="323.04800597902306" r="2.2373597903401605" fill="#CFAE58" opacity="0.19876224656848757"/>
  <circle cx="694.9696831400623" cy="462.4671080785928" r="4.025623168891565" fill="#CFAE58" opacity="0.18238037909660273"/>
  <circle cx="900.0856592783954" cy="308.65841423227545" r="4.985977654249874" fill="#CFAE58" opacity="0.246878806747414"/>
  <circle cx="585.2071129327517" cy="573.9757780857593" r="3.0398058135212347" fill="#CFAE58" opacity="0.12768079968307797"/>
  <circle cx="174.3570732967233" cy="446.23385917281684" r="5.382470742069511" fill="#CFAE58" opacity="0.16229804210477558"/>
  <circle cx="624.2443392146184" cy="390.62985181611805" r="2.5980607230581283" fill="#CFAE58" opacity="0.12193499116022632"/>
  <circle cx="75.83128084436028" cy="56.63649491071119" r="3.4624993106649886" fill="#CFAE58" opacity="0.22690594024355365"/>
  <circle cx="251.03969900323122" cy="451.15953471886667" r="4.864599804508856" fill="#CFAE58" opacity="0.21924337378105113"/>
  <circle cx="431.79175301785244" cy="297.607082039542" r="5.087418499253267" fill="#CFAE58" opacity="0.2497634159584927"/>
  <circle cx="190.5085191000327" cy="58.83417183696027" r="3.3304373815884905" fill="#CFAE58" opacity="0.18793294724587378"/>
  <circle cx="846.6302586720034" cy="394.75880648497827" r="3.2661219946863635" fill="#CFAE58" opacity="0.1596680745047152"/>

  <!-- Border with glow -->
  <rect x="40" y="40" width="1120" height="550" fill="none" stroke="url(#goldGradient)" stroke-width="3" rx="12" filter="url(#softGlow)"/>

  <!-- Icon circle with premium background -->
  <circle cx="150" cy="200" r="75" fill="#CFAE58" opacity="0.15" filter="url(#softGlow)"/>
  <circle cx="150" cy="200" r="70" fill="#CFAE58" opacity="0.25"/>
  <text x="150" y="235" font-size="90" text-anchor="middle" fill="#CFAE58" filter="url(#glow)">⚖️</text>

  <!-- Premium logo (crown) with enhanced styling -->
  <g transform="translate(100, 70)">
    <path d="M 30 20 L 40 35 L 35 35 Z M 50 15 L 60 35 L 45 35 Z M 65 20 L 75 35 L 70 35 Z M 30 35 L 75 35 L 73 45 L 32 45 Z"
          fill="url(#goldGradient)" filter="url(#glow)" stroke="#B89842" stroke-width="0.5"/>
    <circle cx="40" cy="25" r="3" fill="#4FD1C5" filter="url(#glow)"/>
    <circle cx="52" cy="20" r="4" fill="#4FD1C5" filter="url(#glow)"/>
    <circle cx="65" cy="25" r="3" fill="#4FD1C5" filter="url(#glow)"/>
  </g>

  <!-- Title with shadow -->
  <text x="280" y="180" font-family="Georgia, serif" font-size="72" font-weight="bold"
        fill="url(#goldGradient)" filter="url(#shadow)">Legal Information</text>

  <!-- Subtitle with subtle glow -->
  <text x="280" y="230" font-family="Arial, sans-serif" font-size="36"
        fill="#D6DEE6" opacity="0.95" filter="url(#softGlow)">Terms, Privacy &amp; Disclosures</text>

  <!-- Brand name with letter spacing -->
  <text x="280" y="300" font-family="Georgia, serif" font-size="32" font-weight="bold"
        fill="#CFAE58" letter-spacing="4" filter="url(#glow)">ROYAL KETA</text>

  <!-- Russian tagline -->
  <text x="280" y="340" font-family="Arial, sans-serif" font-size="22" font-style="italic"
        fill="#8B95A1" opacity="0.8">От икринки к королевской</text>

  <!-- Location -->
  <text x="280" y="380" font-family="Arial, sans-serif" font-size="20"
        fill="#8B95A1" opacity="0.7">Невельский район, Сахалин</text>

  <!-- Website with glow -->
  <text x="100" y="570" font-family="Arial, sans-serif" font-size="30" font-weight="bold"
        fill="#4FD1C5" filter="url(#glow)">royalketa.com</text>

  <!-- Enhanced decorative salmon silhouette -->
  <g transform="translate(950, 480)" opacity="0.2" filter="url(#softGlow)">
    <ellipse cx="0" cy="0" rx="90" ry="35" fill="#CFAE58"/>
    <path d="M 90 0 L 120 -18 L 130 0 L 120 18 Z" fill="#CFAE58"/>
    <path d="M -25 -35 L 0 -45 L 25 -35 Z" fill="#CFAE58"/>
    <ellipse cx="-50" cy="0" rx="15" ry="12" fill="#0B0F14"/>
  </g>

  <!-- Additional decorative caviar clusters -->
  <g opacity="0.2">
    <circle cx="1050" cy="120" r="6" fill="#CFAE58"/>
    <circle cx="1065" cy="115" r="5" fill="#CFAE58"/>
    <circle cx="1058" cy="130" r="4" fill="#CFAE58"/>
    <circle cx="150" cy="500" r="5" fill="#4FD1C5"/>
    <circle cx="165" cy="508" r="4" fill="#4FD1C5"/>
    <circle cx="140" cy="512" r="5" fill="#4FD1C5"/>
  </g>
</svg>