<svg width="1200" height="630" xmlns="http://www.w3.org/2000/svg">
  <defs>
    <linearGradient id="bgGradient" x1="0%" y1="0%" x2="100%" y2="100%">
      <stop offset="0%" style="stop-color:#0B0F14;stop-opacity:1" />
      <stop offset="50%" style="stop-color:#0F1619;stop-opacity:1" />
      <stop offset="100%" style="stop-color:#0F1922;stop-opacity:1" />
    </linearGradient>
    <linearGradient id="goldGradient" x1="0%" y1="0%" x2="100%" y2="0%">
      <stop offset="0%" style="stop-color:#E5D596;stop-opacity:1" />
      <stop offset="50%" style="stop-color:#CFAE58;stop-opacity:1" />
      <stop offset="100%" style="stop-color:#B89842;stop-opacity:1" />
    </linearGradient>
    <radialGradient id="oceanGradient" cx="50%" cy="50%" r="50%">
      <stop offset="0%" style="stop-color:#4FD1C5;stop-opacity:0.3" />
      <stop offset="100%" style="stop-color:#1E90A0;stop-opacity:0.05" />
    </radialGradient>
    <filter id="glow">
      <feGaussianBlur stdDeviation="5" result="coloredBlur"/>
      <feMerge>
        <feMergeNode in="coloredBlur"/>
        <feMergeNode in="SourceGraphic"/>
      </feMerge>
    </filter>
    <filter id="softGlow">
      <feGaussianBlur stdDeviation="8" result="coloredBlur"/>
      <feMerge>
        <feMergeNode in="coloredBlur"/>
        <feMergeNode in="SourceGraphic"/>
      </feMerge>
    </filter>
    <filter id="shadow">
      <feDropShadow dx="0" dy="4" stdDeviation="8" flood-color="#000000" flood-opacity="0.5"/>
    </filter>
  </defs>

  <!-- Background -->
  <rect width="1200" height="630" fill="url(#bgGradient)"/>

  <!-- Decorative ocean gradients -->
  <ellipse cx="1000" cy="150" rx="300" ry="200" fill="url(#oceanGradient)" opacity="0.4"/>
  <ellipse cx="200" cy="530" rx="250" ry="180" fill="url(#oceanGradient)" opacity="0.3"/>

  <!-- Wave patterns -->
  <path d="M 0 400 Q 300 350 600 400 T 1200 400 L 1200 630 L 0 630 Z" fill="#1E90A0" opacity="0.08"/>
  <path d="M 0 450 Q 250 420 500 450 T 1000 450 T 1200 450 L 1200 630 L 0 630 Z" fill="#4FD1C5" opacity="0.05"/>

  <!-- Caviar roe particles -->
  <circle cx="919.5931470547808" cy="279.6729375449849" r="4.627504403952356" fill="#CFAE58" opacity="0.10151177983014886"/>
  <circle cx="562.7657637190122" cy="432.4023574150542" r="5.604060264441375" fill="#CFAE58" opacity="0.1678672056746262"/>
  <circle cx="1073.0666705267474" cy="365.81121272205536" r="2.438333713009559" fill="#CFAE58" opacity="0.10392778316354684"/>
  <circle cx="370.2852243249156" cy="119.7799047862333" r="4.164987543348518" fill="#CFAE58" opacity="0.14538581906836232"/>
  <circle cx="512.3329162848853" cy="45.29409217332508" r="5.142090183127715" fill="#CFAE58" opacity="0.20057070447541858"/>
  <circle cx="901.0695411962479" cy="189.80747644276468" r="4.476659334464491" fill="#CFAE58" opacity="0.10171033413783687"/>
  <circle cx="692.0856087341548" cy="459.4628570390612" r="3.700659881821491" fill="#CFAE58" opacity="0.21831122261177688"/>
  <circle cx="93.48359785863738" cy="589.3712653416253" r="5.967102530249448" fill="#CFAE58" opacity="0.17422150533182235"/>
  <circle cx="939.6220627651412" cy="261.06732170392957" r="5.403066865501755" fill="#CFAE58" opacity="0.2027620991282646"/>
  <circle cx="844.4147243488845" cy="573.914908960913" r="2.7535130626662303" fill="#CFAE58" opacity="0.18653471991231407"/>
  <circle cx="549.0654714610291" cy="347.8236717502988" r="4.215991239343723" fill="#CFAE58" opacity="0.21502492014285562"/>
  <circle cx="543.8710556962055" cy="554.4008468952179" r="4.100848710552679" fill="#CFAE58" opacity="0.11569962189341584"/>
  <circle cx="975.3053140009579" cy="74.77754992247962" r="3.53757985697113" fill="#CFAE58" opacity="0.22361556917819567"/>
  <circle cx="442.2278784857408" cy="314.48171841922175" r="2.0914331158239357" fill="#CFAE58" opacity="0.200483432139416"/>
  <circle cx="319.26053766298935" cy="341.62453774475466" r="5.824252713549191" fill="#CFAE58" opacity="0.19248683851575554"/>
  <circle cx="136.2675838404522" cy="107.05458659339058" r="3.048360089845462" fill="#CFAE58" opacity="0.24562983327122162"/>
  <circle cx="96.4550519385913" cy="170.48681221217834" r="4.860141707307128" fill="#CFAE58" opacity="0.1300390557192032"/>
  <circle cx="1196.5707036002007" cy="136.21613366074047" r="5.450104752233334" fill="#CFAE58" opacity="0.10368789307732197"/>
  <circle cx="597.8188662637396" cy="536.6693925231883" r="3.919423519257913" fill="#CFAE58" opacity="0.2236342868604292"/>
  <circle cx="121.59285852037746" cy="388.25459773557816" r="2.7081468876478034" fill="#CFAE58" opacity="0.2467628471742193"/>
  <circle cx="27.457784267691476" cy="22.342873471250183" r="3.077870980286398" fill="#CFAE58" opacity="0.14392886211328912"/>
  <circle cx="1139.5162566239928" cy="443.31009195736436" r="5.084292654635059" fill="#CFAE58" opacity="0.24753915443135446"/>
  <circle cx="468.06412196742497" cy="473.7593338484147" r="5.5899506930153136" fill="#CFAE58" opacity="0.24325551064092146"/>
  <circle cx="1057.678690622238" cy="514.082075998453" r="2.213152998844422" fill="#CFAE58" opacity="0.17450904192468153"/>
  <circle cx="560.5165987013074" cy="389.18430217232867" r="4.187636564870759" fill="#CFAE58" opacity="0.24373544878883538"/>
  <circle cx="1181.3904076596139" cy="427.9618710616447" r="4.631499755277031" fill="#CFAE58" opacity="0.10739039842022421"/>
  <circle cx="527.8717274298758" cy="52.415716544925" r="5.580078365168179" fill="#CFAE58" opacity="0.17013848776961796"/>
  <circle cx="902.6732426187208" cy="376.2974700459462" r="2.8601967980274092" fill="#CFAE58" opacity="0.1811382379577124"/>
  <circle cx="1182.3409445454663" cy="616.1174636814313" r="2.97147236820322" fill="#CFAE58" opacity="0.1462057091301236"/>
  <circle cx="357.84119179403535" cy="515.9942483406294" r="4.858512481761615" fill="#CFAE58" opacity="0.2122552367474026"/>

  <!-- Border with glow -->
  <rect x="40" y="40" width="1120" height="550" fill="none" stroke="url(#goldGradient)" stroke-width="3" rx="12" filter="url(#softGlow)"/>

  <!-- Icon circle with premium background -->
  <circle cx="150" cy="200" r="75" fill="#CFAE58" opacity="0.15" filter="url(#softGlow)"/>
  <circle cx="150" cy="200" r="70" fill="#CFAE58" opacity="0.25"/>
  <text x="150" y="235" font-size="90" text-anchor="middle" fill="#CFAE58" filter="url(#glow)">⚖️</text>

  <!-- Premium logo (crown) with enhanced styling -->
  <g transform="translate(100, 70)">
    <path d="M 30 20 L 40 35 L 35 35 Z M 50 15 L 60 35 L 45 35 Z M 65 20 L 75 35 L 70 35 Z M 30 35 L 75 35 L 73 45 L 32 45 Z"
          fill="url(#goldGradient)" filter="url(#glow)" stroke="#B89842" stroke-width="0.5"/>
    <circle cx="40" cy="25" r="3" fill="#4FD1C5" filter="url(#glow)"/>
    <circle cx="52" cy="20" r="4" fill="#4FD1C5" filter="url(#glow)"/>
    <circle cx="65" cy="25" r="3" fill="#4FD1C5" filter="url(#glow)"/>
  </g>

  <!-- Title with shadow -->
  <text x="280" y="180" font-family="Georgia, serif" font-size="72" font-weight="bold"
        fill="url(#goldGradient)" filter="url(#shadow)">Legal Information</text>

  <!-- Subtitle with subtle glow -->
  <text x="280" y="230" font-family="Arial, sans-serif" font-size="36"
        fill="#D6DEE6" opacity="0.95" filter="url(#softGlow)">Terms, Privacy &amp; Disclosures</text>

  <!-- Brand name with letter spacing -->
  <text x="280" y="300" font-family="Georgia, serif" font-size="32" font-weight="bold"
        fill="#CFAE58" letter-spacing="4" filter="url(#glow)">ROYAL KETA</text>

  <!-- Russian tagline -->
  <text x="280" y="340" font-family="Arial, sans-serif" font-size="22" font-style="italic"
        fill="#8B95A1" opacity="0.8">От икринки к королевской</text>

  <!-- Location -->
  <text x="280" y="380" font-family="Arial, sans-serif" font-size="20"
        fill="#8B95A1" opacity="0.7">Невельский район, Сахалин</text>

  <!-- Website with glow -->
  <text x="100" y="570" font-family="Arial, sans-serif" font-size="30" font-weight="bold"
        fill="#4FD1C5" filter="url(#glow)">royalketa.com</text>

  <!-- Enhanced decorative salmon silhouette -->
  <g transform="translate(950, 480)" opacity="0.2" filter="url(#softGlow)">
    <ellipse cx="0" cy="0" rx="90" ry="35" fill="#CFAE58"/>
    <path d="M 90 0 L 120 -18 L 130 0 L 120 18 Z" fill="#CFAE58"/>
    <path d="M -25 -35 L 0 -45 L 25 -35 Z" fill="#CFAE58"/>
    <ellipse cx="-50" cy="0" rx="15" ry="12" fill="#0B0F14"/>
  </g>

  <!-- Additional decorative caviar clusters -->
  <g opacity="0.2">
    <circle cx="1050" cy="120" r="6" fill="#CFAE58"/>
    <circle cx="1065" cy="115" r="5" fill="#CFAE58"/>
    <circle cx="1058" cy="130" r="4" fill="#CFAE58"/>
    <circle cx="150" cy="500" r="5" fill="#4FD1C5"/>
    <circle cx="165" cy="508" r="4" fill="#4FD1C5"/>
    <circle cx="140" cy="512" r="5" fill="#4FD1C5"/>
  </g>
</svg>