<svg width="1200" height="630" xmlns="http://www.w3.org/2000/svg">
  <defs>
    <linearGradient id="bgGradient" x1="0%" y1="0%" x2="100%" y2="100%">
      <stop offset="0%" style="stop-color:#0B0F14;stop-opacity:1" />
      <stop offset="50%" style="stop-color:#0F1619;stop-opacity:1" />
      <stop offset="100%" style="stop-color:#0F1922;stop-opacity:1" />
    </linearGradient>
    <linearGradient id="goldGradient" x1="0%" y1="0%" x2="100%" y2="0%">
      <stop offset="0%" style="stop-color:#E5D596;stop-opacity:1" />
      <stop offset="50%" style="stop-color:#CFAE58;stop-opacity:1" />
      <stop offset="100%" style="stop-color:#B89842;stop-opacity:1" />
    </linearGradient>
    <radialGradient id="oceanGradient" cx="50%" cy="50%" r="50%">
      <stop offset="0%" style="stop-color:#4FD1C5;stop-opacity:0.3" />
      <stop offset="100%" style="stop-color:#1E90A0;stop-opacity:0.05" />
    </radialGradient>
    <filter id="glow">
      <feGaussianBlur stdDeviation="5" result="coloredBlur"/>
      <feMerge>
        <feMergeNode in="coloredBlur"/>
        <feMergeNode in="SourceGraphic"/>
      </feMerge>
    </filter>
    <filter id="softGlow">
      <feGaussianBlur stdDeviation="8" result="coloredBlur"/>
      <feMerge>
        <feMergeNode in="coloredBlur"/>
        <feMergeNode in="SourceGraphic"/>
      </feMerge>
    </filter>
    <filter id="shadow">
      <feDropShadow dx="0" dy="4" stdDeviation="8" flood-color="#000000" flood-opacity="0.5"/>
    </filter>
  </defs>

  <!-- Background -->
  <rect width="1200" height="630" fill="url(#bgGradient)"/>

  <!-- Decorative ocean gradients -->
  <ellipse cx="1000" cy="150" rx="300" ry="200" fill="url(#oceanGradient)" opacity="0.4"/>
  <ellipse cx="200" cy="530" rx="250" ry="180" fill="url(#oceanGradient)" opacity="0.3"/>

  <!-- Wave patterns -->
  <path d="M 0 400 Q 300 350 600 400 T 1200 400 L 1200 630 L 0 630 Z" fill="#1E90A0" opacity="0.08"/>
  <path d="M 0 450 Q 250 420 500 450 T 1000 450 T 1200 450 L 1200 630 L 0 630 Z" fill="#4FD1C5" opacity="0.05"/>

  <!-- Caviar roe particles -->
  <circle cx="519.3946726695427" cy="220.25805445360808" r="4.764789834152767" fill="#CFAE58" opacity="0.1890802641487067"/>
  <circle cx="1176.7297021971506" cy="71.1956172825748" r="3.0548728190223606" fill="#CFAE58" opacity="0.11752988564765221"/>
  <circle cx="104.64001919410491" cy="617.694517447078" r="3.1333106237364188" fill="#CFAE58" opacity="0.17182753297160125"/>
  <circle cx="746.3594450490339" cy="448.8026114211375" r="2.2014141781555496" fill="#CFAE58" opacity="0.11003156311152318"/>
  <circle cx="522.4903746767012" cy="307.0818622663661" r="3.1310850900853087" fill="#CFAE58" opacity="0.1382242404105214"/>
  <circle cx="95.02031045281151" cy="44.39295122758943" r="5.892419336960086" fill="#CFAE58" opacity="0.11869867963182212"/>
  <circle cx="692.4528777432229" cy="112.79259055808977" r="2.8909099240015506" fill="#CFAE58" opacity="0.132328024040292"/>
  <circle cx="651.1882093345038" cy="592.2843981411218" r="3.723613776329234" fill="#CFAE58" opacity="0.2054828256528561"/>
  <circle cx="99.00924824489925" cy="301.60895352406504" r="4.992821604213996" fill="#CFAE58" opacity="0.19841515516966463"/>
  <circle cx="289.24886907453146" cy="246.17373297200385" r="3.1006470318945185" fill="#CFAE58" opacity="0.114803562725099"/>
  <circle cx="1058.189927723322" cy="393.11008740746365" r="5.559563453876469" fill="#CFAE58" opacity="0.13121566091710624"/>
  <circle cx="610.2536674489808" cy="529.8646255279577" r="2.7043502190255166" fill="#CFAE58" opacity="0.12521361978932152"/>
  <circle cx="806.7502018255169" cy="375.23394790432866" r="5.197341428630652" fill="#CFAE58" opacity="0.20509184427890298"/>
  <circle cx="238.96998893608927" cy="513.3400356637187" r="4.455887554792973" fill="#CFAE58" opacity="0.1575835440274101"/>
  <circle cx="332.7861392399012" cy="35.57568494436643" r="2.9244243868427446" fill="#CFAE58" opacity="0.17070607491521259"/>
  <circle cx="215.50160859622568" cy="207.70356094477003" r="2.3708035613250003" fill="#CFAE58" opacity="0.17741151655235549"/>
  <circle cx="589.6948716163888" cy="620.3888421339936" r="4.333694019460357" fill="#CFAE58" opacity="0.2230965089522014"/>
  <circle cx="178.75419338727764" cy="480.4963356771366" r="3.8572061429843867" fill="#CFAE58" opacity="0.22228306047519703"/>
  <circle cx="623.5139001342324" cy="505.76305179728917" r="5.0238015819762865" fill="#CFAE58" opacity="0.11016409006069898"/>
  <circle cx="251.0211318620736" cy="415.9084676548786" r="5.453724983188528" fill="#CFAE58" opacity="0.2140375086053667"/>
  <circle cx="196.8158072325463" cy="588.6279679113045" r="2.6080664995127725" fill="#CFAE58" opacity="0.10395756022364469"/>
  <circle cx="266.29802187577354" cy="52.45324930251834" r="2.249091689344735" fill="#CFAE58" opacity="0.17022862603031003"/>
  <circle cx="1181.1786911473368" cy="486.16412774166594" r="2.0827890545844214" fill="#CFAE58" opacity="0.1705371389611009"/>
  <circle cx="758.2643312921919" cy="214.81875201668606" r="4.25665159317797" fill="#CFAE58" opacity="0.20442401988445186"/>
  <circle cx="598.1206464164268" cy="556.0017822868616" r="2.999004188175224" fill="#CFAE58" opacity="0.17549256748790754"/>
  <circle cx="644.6864910556385" cy="244.07586955417668" r="3.585725098576316" fill="#CFAE58" opacity="0.16569422713710447"/>
  <circle cx="1087.1718331515926" cy="361.174798345236" r="5.64616804657005" fill="#CFAE58" opacity="0.22733958308514293"/>
  <circle cx="153.74895079429854" cy="187.09611617446535" r="5.050042480185379" fill="#CFAE58" opacity="0.1844892463893213"/>
  <circle cx="1124.2549520918974" cy="84.66016770611019" r="2.808809277502431" fill="#CFAE58" opacity="0.24598630502672691"/>
  <circle cx="269.5100715049293" cy="206.6081682941536" r="4.766848496383947" fill="#CFAE58" opacity="0.20381917942849492"/>

  <!-- Border with glow -->
  <rect x="40" y="40" width="1120" height="550" fill="none" stroke="url(#goldGradient)" stroke-width="3" rx="12" filter="url(#softGlow)"/>

  <!-- Icon circle with premium background -->
  <circle cx="150" cy="200" r="75" fill="#CFAE58" opacity="0.15" filter="url(#softGlow)"/>
  <circle cx="150" cy="200" r="70" fill="#CFAE58" opacity="0.25"/>
  <text x="150" y="235" font-size="90" text-anchor="middle" fill="#CFAE58" filter="url(#glow)">⚖️</text>

  <!-- Premium logo (crown) with enhanced styling -->
  <g transform="translate(100, 70)">
    <path d="M 30 20 L 40 35 L 35 35 Z M 50 15 L 60 35 L 45 35 Z M 65 20 L 75 35 L 70 35 Z M 30 35 L 75 35 L 73 45 L 32 45 Z"
          fill="url(#goldGradient)" filter="url(#glow)" stroke="#B89842" stroke-width="0.5"/>
    <circle cx="40" cy="25" r="3" fill="#4FD1C5" filter="url(#glow)"/>
    <circle cx="52" cy="20" r="4" fill="#4FD1C5" filter="url(#glow)"/>
    <circle cx="65" cy="25" r="3" fill="#4FD1C5" filter="url(#glow)"/>
  </g>

  <!-- Title with shadow -->
  <text x="280" y="180" font-family="Georgia, serif" font-size="72" font-weight="bold"
        fill="url(#goldGradient)" filter="url(#shadow)">Legal Information</text>

  <!-- Subtitle with subtle glow -->
  <text x="280" y="230" font-family="Arial, sans-serif" font-size="36"
        fill="#D6DEE6" opacity="0.95" filter="url(#softGlow)">Terms, Privacy &amp; Disclosures</text>

  <!-- Brand name with letter spacing -->
  <text x="280" y="300" font-family="Georgia, serif" font-size="32" font-weight="bold"
        fill="#CFAE58" letter-spacing="4" filter="url(#glow)">ROYAL KETA</text>

  <!-- Russian tagline -->
  <text x="280" y="340" font-family="Arial, sans-serif" font-size="22" font-style="italic"
        fill="#8B95A1" opacity="0.8">От икринки к королевской</text>

  <!-- Location -->
  <text x="280" y="380" font-family="Arial, sans-serif" font-size="20"
        fill="#8B95A1" opacity="0.7">Невельский район, Сахалин</text>

  <!-- Website with glow -->
  <text x="100" y="570" font-family="Arial, sans-serif" font-size="30" font-weight="bold"
        fill="#4FD1C5" filter="url(#glow)">royalketa.com</text>

  <!-- Enhanced decorative salmon silhouette -->
  <g transform="translate(950, 480)" opacity="0.2" filter="url(#softGlow)">
    <ellipse cx="0" cy="0" rx="90" ry="35" fill="#CFAE58"/>
    <path d="M 90 0 L 120 -18 L 130 0 L 120 18 Z" fill="#CFAE58"/>
    <path d="M -25 -35 L 0 -45 L 25 -35 Z" fill="#CFAE58"/>
    <ellipse cx="-50" cy="0" rx="15" ry="12" fill="#0B0F14"/>
  </g>

  <!-- Additional decorative caviar clusters -->
  <g opacity="0.2">
    <circle cx="1050" cy="120" r="6" fill="#CFAE58"/>
    <circle cx="1065" cy="115" r="5" fill="#CFAE58"/>
    <circle cx="1058" cy="130" r="4" fill="#CFAE58"/>
    <circle cx="150" cy="500" r="5" fill="#4FD1C5"/>
    <circle cx="165" cy="508" r="4" fill="#4FD1C5"/>
    <circle cx="140" cy="512" r="5" fill="#4FD1C5"/>
  </g>
</svg>