<svg width="1200" height="630" xmlns="http://www.w3.org/2000/svg">
  <defs>
    <linearGradient id="bgGradient" x1="0%" y1="0%" x2="100%" y2="100%">
      <stop offset="0%" style="stop-color:#0B0F14;stop-opacity:1" />
      <stop offset="50%" style="stop-color:#0F1619;stop-opacity:1" />
      <stop offset="100%" style="stop-color:#0F1922;stop-opacity:1" />
    </linearGradient>
    <linearGradient id="goldGradient" x1="0%" y1="0%" x2="100%" y2="0%">
      <stop offset="0%" style="stop-color:#E5D596;stop-opacity:1" />
      <stop offset="50%" style="stop-color:#CFAE58;stop-opacity:1" />
      <stop offset="100%" style="stop-color:#B89842;stop-opacity:1" />
    </linearGradient>
    <radialGradient id="oceanGradient" cx="50%" cy="50%" r="50%">
      <stop offset="0%" style="stop-color:#4FD1C5;stop-opacity:0.3" />
      <stop offset="100%" style="stop-color:#1E90A0;stop-opacity:0.05" />
    </radialGradient>
    <filter id="glow">
      <feGaussianBlur stdDeviation="5" result="coloredBlur"/>
      <feMerge>
        <feMergeNode in="coloredBlur"/>
        <feMergeNode in="SourceGraphic"/>
      </feMerge>
    </filter>
    <filter id="softGlow">
      <feGaussianBlur stdDeviation="8" result="coloredBlur"/>
      <feMerge>
        <feMergeNode in="coloredBlur"/>
        <feMergeNode in="SourceGraphic"/>
      </feMerge>
    </filter>
    <filter id="shadow">
      <feDropShadow dx="0" dy="4" stdDeviation="8" flood-color="#000000" flood-opacity="0.5"/>
    </filter>
  </defs>

  <!-- Background -->
  <rect width="1200" height="630" fill="url(#bgGradient)"/>

  <!-- Decorative ocean gradients -->
  <ellipse cx="1000" cy="150" rx="300" ry="200" fill="url(#oceanGradient)" opacity="0.4"/>
  <ellipse cx="200" cy="530" rx="250" ry="180" fill="url(#oceanGradient)" opacity="0.3"/>

  <!-- Wave patterns -->
  <path d="M 0 400 Q 300 350 600 400 T 1200 400 L 1200 630 L 0 630 Z" fill="#1E90A0" opacity="0.08"/>
  <path d="M 0 450 Q 250 420 500 450 T 1000 450 T 1200 450 L 1200 630 L 0 630 Z" fill="#4FD1C5" opacity="0.05"/>

  <!-- Caviar roe particles -->
  <circle cx="252.03289170575448" cy="20.183276256100545" r="4.093386516075851" fill="#CFAE58" opacity="0.2093367853653452"/>
  <circle cx="531.9311578380971" cy="405.32653260274134" r="5.6920453189294165" fill="#CFAE58" opacity="0.11138263984409459"/>
  <circle cx="176.61512324265564" cy="616.819152263346" r="2.7373928729816535" fill="#CFAE58" opacity="0.18705776787879685"/>
  <circle cx="516.9574979299049" cy="607.9549067083857" r="2.5039089787915816" fill="#CFAE58" opacity="0.18645314458444662"/>
  <circle cx="867.4484313128759" cy="595.4978978835114" r="3.450395144811574" fill="#CFAE58" opacity="0.12543702467239803"/>
  <circle cx="283.40610925621144" cy="267.14768935480197" r="4.369650735196715" fill="#CFAE58" opacity="0.17237552110837676"/>
  <circle cx="1105.3517862532874" cy="421.2662847246305" r="4.285748397298605" fill="#CFAE58" opacity="0.14475082381763438"/>
  <circle cx="1099.7585113406578" cy="118.41290966109284" r="4.282647268075396" fill="#CFAE58" opacity="0.12176846017907178"/>
  <circle cx="475.44047666542883" cy="557.2807263395975" r="3.6529545464179742" fill="#CFAE58" opacity="0.16634113154195446"/>
  <circle cx="616.322079787376" cy="587.5832331348387" r="4.541667370259587" fill="#CFAE58" opacity="0.23992897812176286"/>
  <circle cx="413.76715831068765" cy="83.83053370708211" r="5.647384917794881" fill="#CFAE58" opacity="0.14948682107803396"/>
  <circle cx="908.0555658826182" cy="456.96369282404487" r="4.429108566478" fill="#CFAE58" opacity="0.24905251614272225"/>
  <circle cx="910.6589775474008" cy="310.77110927834764" r="4.2358609197403805" fill="#CFAE58" opacity="0.1868588578020542"/>
  <circle cx="115.91577732455485" cy="515.6781851036556" r="3.523287609778073" fill="#CFAE58" opacity="0.14004058758533983"/>
  <circle cx="947.8244210267793" cy="355.20067862551036" r="4.978175112952023" fill="#CFAE58" opacity="0.16152977252860004"/>
  <circle cx="413.5779706574415" cy="495.02912647918714" r="5.555216049001691" fill="#CFAE58" opacity="0.2473502961337003"/>
  <circle cx="231.5354579610867" cy="170.4688552375533" r="3.8916411645579765" fill="#CFAE58" opacity="0.1847655059534728"/>
  <circle cx="209.461751440155" cy="473.7342603733538" r="4.363328209959537" fill="#CFAE58" opacity="0.16857772116489494"/>
  <circle cx="243.28228718813608" cy="69.90162368928536" r="2.4981804795377243" fill="#CFAE58" opacity="0.1455833072521576"/>
  <circle cx="621.9853646668838" cy="442.75114078994466" r="2.273592544453907" fill="#CFAE58" opacity="0.10164601136765525"/>
  <circle cx="371.4516679485035" cy="387.1220974585682" r="2.7376813837832965" fill="#CFAE58" opacity="0.18705327782668896"/>
  <circle cx="581.0146452905975" cy="357.05587282513164" r="2.068162885912669" fill="#CFAE58" opacity="0.12460016138109004"/>
  <circle cx="891.0034528195241" cy="600.5358452655296" r="2.256560970978466" fill="#CFAE58" opacity="0.1791539261686252"/>
  <circle cx="877.9619940710834" cy="432.2534864207073" r="5.698955044751495" fill="#CFAE58" opacity="0.24764065245907296"/>
  <circle cx="996.0160392655604" cy="336.69892689964956" r="3.1938834502526734" fill="#CFAE58" opacity="0.14029195610040063"/>
  <circle cx="493.83064021310736" cy="98.23247500586909" r="5.80709349565123" fill="#CFAE58" opacity="0.20880546145976275"/>
  <circle cx="538.4700138789323" cy="382.28069393902757" r="3.0877331124237744" fill="#CFAE58" opacity="0.22295305238427604"/>
  <circle cx="56.408728804379884" cy="469.66455861308447" r="5.247204059762461" fill="#CFAE58" opacity="0.2240130716941527"/>
  <circle cx="27.481570276917466" cy="197.8938710632593" r="2.5451891260557633" fill="#CFAE58" opacity="0.191013161781092"/>
  <circle cx="47.47548600581673" cy="166.2170588062941" r="4.304001739007836" fill="#CFAE58" opacity="0.20686268331175395"/>

  <!-- Border with glow -->
  <rect x="40" y="40" width="1120" height="550" fill="none" stroke="url(#goldGradient)" stroke-width="3" rx="12" filter="url(#softGlow)"/>

  <!-- Icon circle with premium background -->
  <circle cx="150" cy="200" r="75" fill="#CFAE58" opacity="0.15" filter="url(#softGlow)"/>
  <circle cx="150" cy="200" r="70" fill="#CFAE58" opacity="0.25"/>
  <text x="150" y="235" font-size="90" text-anchor="middle" fill="#CFAE58" filter="url(#glow)">⚖️</text>

  <!-- Premium logo (crown) with enhanced styling -->
  <g transform="translate(100, 70)">
    <path d="M 30 20 L 40 35 L 35 35 Z M 50 15 L 60 35 L 45 35 Z M 65 20 L 75 35 L 70 35 Z M 30 35 L 75 35 L 73 45 L 32 45 Z"
          fill="url(#goldGradient)" filter="url(#glow)" stroke="#B89842" stroke-width="0.5"/>
    <circle cx="40" cy="25" r="3" fill="#4FD1C5" filter="url(#glow)"/>
    <circle cx="52" cy="20" r="4" fill="#4FD1C5" filter="url(#glow)"/>
    <circle cx="65" cy="25" r="3" fill="#4FD1C5" filter="url(#glow)"/>
  </g>

  <!-- Title with shadow -->
  <text x="280" y="180" font-family="Georgia, serif" font-size="72" font-weight="bold"
        fill="url(#goldGradient)" filter="url(#shadow)">Legal Information</text>

  <!-- Subtitle with subtle glow -->
  <text x="280" y="230" font-family="Arial, sans-serif" font-size="36"
        fill="#D6DEE6" opacity="0.95" filter="url(#softGlow)">Terms, Privacy &amp; Disclosures</text>

  <!-- Brand name with letter spacing -->
  <text x="280" y="300" font-family="Georgia, serif" font-size="32" font-weight="bold"
        fill="#CFAE58" letter-spacing="4" filter="url(#glow)">ROYAL KETA</text>

  <!-- Russian tagline -->
  <text x="280" y="340" font-family="Arial, sans-serif" font-size="22" font-style="italic"
        fill="#8B95A1" opacity="0.8">От икринки к королевской</text>

  <!-- Location -->
  <text x="280" y="380" font-family="Arial, sans-serif" font-size="20"
        fill="#8B95A1" opacity="0.7">Невельский район, Сахалин</text>

  <!-- Website with glow -->
  <text x="100" y="570" font-family="Arial, sans-serif" font-size="30" font-weight="bold"
        fill="#4FD1C5" filter="url(#glow)">royalketa.com</text>

  <!-- Enhanced decorative salmon silhouette -->
  <g transform="translate(950, 480)" opacity="0.2" filter="url(#softGlow)">
    <ellipse cx="0" cy="0" rx="90" ry="35" fill="#CFAE58"/>
    <path d="M 90 0 L 120 -18 L 130 0 L 120 18 Z" fill="#CFAE58"/>
    <path d="M -25 -35 L 0 -45 L 25 -35 Z" fill="#CFAE58"/>
    <ellipse cx="-50" cy="0" rx="15" ry="12" fill="#0B0F14"/>
  </g>

  <!-- Additional decorative caviar clusters -->
  <g opacity="0.2">
    <circle cx="1050" cy="120" r="6" fill="#CFAE58"/>
    <circle cx="1065" cy="115" r="5" fill="#CFAE58"/>
    <circle cx="1058" cy="130" r="4" fill="#CFAE58"/>
    <circle cx="150" cy="500" r="5" fill="#4FD1C5"/>
    <circle cx="165" cy="508" r="4" fill="#4FD1C5"/>
    <circle cx="140" cy="512" r="5" fill="#4FD1C5"/>
  </g>
</svg>