<svg width="1200" height="630" xmlns="http://www.w3.org/2000/svg">
  <defs>
    <linearGradient id="bgGradient" x1="0%" y1="0%" x2="100%" y2="100%">
      <stop offset="0%" style="stop-color:#0B0F14;stop-opacity:1" />
      <stop offset="50%" style="stop-color:#0F1619;stop-opacity:1" />
      <stop offset="100%" style="stop-color:#0F1922;stop-opacity:1" />
    </linearGradient>
    <linearGradient id="goldGradient" x1="0%" y1="0%" x2="100%" y2="0%">
      <stop offset="0%" style="stop-color:#E5D596;stop-opacity:1" />
      <stop offset="50%" style="stop-color:#CFAE58;stop-opacity:1" />
      <stop offset="100%" style="stop-color:#B89842;stop-opacity:1" />
    </linearGradient>
    <radialGradient id="oceanGradient" cx="50%" cy="50%" r="50%">
      <stop offset="0%" style="stop-color:#4FD1C5;stop-opacity:0.3" />
      <stop offset="100%" style="stop-color:#1E90A0;stop-opacity:0.05" />
    </radialGradient>
    <filter id="glow">
      <feGaussianBlur stdDeviation="5" result="coloredBlur"/>
      <feMerge>
        <feMergeNode in="coloredBlur"/>
        <feMergeNode in="SourceGraphic"/>
      </feMerge>
    </filter>
    <filter id="softGlow">
      <feGaussianBlur stdDeviation="8" result="coloredBlur"/>
      <feMerge>
        <feMergeNode in="coloredBlur"/>
        <feMergeNode in="SourceGraphic"/>
      </feMerge>
    </filter>
    <filter id="shadow">
      <feDropShadow dx="0" dy="4" stdDeviation="8" flood-color="#000000" flood-opacity="0.5"/>
    </filter>
  </defs>

  <!-- Background -->
  <rect width="1200" height="630" fill="url(#bgGradient)"/>

  <!-- Decorative ocean gradients -->
  <ellipse cx="1000" cy="150" rx="300" ry="200" fill="url(#oceanGradient)" opacity="0.4"/>
  <ellipse cx="200" cy="530" rx="250" ry="180" fill="url(#oceanGradient)" opacity="0.3"/>

  <!-- Wave patterns -->
  <path d="M 0 400 Q 300 350 600 400 T 1200 400 L 1200 630 L 0 630 Z" fill="#1E90A0" opacity="0.08"/>
  <path d="M 0 450 Q 250 420 500 450 T 1000 450 T 1200 450 L 1200 630 L 0 630 Z" fill="#4FD1C5" opacity="0.05"/>

  <!-- Caviar roe particles -->
  <circle cx="1064.842300584441" cy="620.9025500310247" r="5.702597594939116" fill="#CFAE58" opacity="0.14282546073708396"/>
  <circle cx="705.0866891860705" cy="568.2732786806469" r="2.933913371096337" fill="#CFAE58" opacity="0.1536896799615293"/>
  <circle cx="691.1664440968573" cy="111.85391706069404" r="3.0577378230001484" fill="#CFAE58" opacity="0.11593898166512226"/>
  <circle cx="594.959185141611" cy="412.46986962269904" r="2.6033792494148607" fill="#CFAE58" opacity="0.14629440554540601"/>
  <circle cx="535.2363264318956" cy="521.7188184062794" r="2.3738406631335245" fill="#CFAE58" opacity="0.18298519204627067"/>
  <circle cx="25.30197454109171" cy="279.0681176596553" r="3.218448746897213" fill="#CFAE58" opacity="0.1321924276479519"/>
  <circle cx="796.3534103220151" cy="114.31243139810452" r="3.333637153343563" fill="#CFAE58" opacity="0.11614499171104474"/>
  <circle cx="345.4728167843143" cy="569.9263819512881" r="2.399197443691069" fill="#CFAE58" opacity="0.16253687585415777"/>
  <circle cx="745.310773208798" cy="56.63925520329221" r="2.2361199983924935" fill="#CFAE58" opacity="0.17504174579297918"/>
  <circle cx="949.1980463852803" cy="193.67671394260705" r="2.7476037351111025" fill="#CFAE58" opacity="0.2496676316964207"/>
  <circle cx="171.09174101933496" cy="212.5139507912527" r="3.2362223812035475" fill="#CFAE58" opacity="0.1725972125284838"/>
  <circle cx="1071.3908406389078" cy="433.46184569405335" r="4.647110458182182" fill="#CFAE58" opacity="0.1818048460522697"/>
  <circle cx="487.25828212962796" cy="208.23090495435915" r="2.3571043716898448" fill="#CFAE58" opacity="0.15903041634994428"/>
  <circle cx="1148.4022415814547" cy="316.50204199526416" r="5.831196549000942" fill="#CFAE58" opacity="0.12375615293705818"/>
  <circle cx="667.5214759276269" cy="294.48456346997" r="4.329011166007749" fill="#CFAE58" opacity="0.24300460377648975"/>
  <circle cx="372.8539726954926" cy="363.1766484564713" r="2.2729152691193724" fill="#CFAE58" opacity="0.1735225856037217"/>
  <circle cx="864.0778297702395" cy="463.91987436565245" r="4.192025439111547" fill="#CFAE58" opacity="0.10019603711177655"/>
  <circle cx="366.5080201928245" cy="426.5363060430102" r="3.225061738905268" fill="#CFAE58" opacity="0.19113204726537192"/>
  <circle cx="251.52804032205137" cy="2.9258702651908886" r="2.7597055510235506" fill="#CFAE58" opacity="0.16726921671391806"/>
  <circle cx="406.66881756830173" cy="155.7380434432106" r="3.810282279407229" fill="#CFAE58" opacity="0.11509883999895895"/>
  <circle cx="1047.9397357794564" cy="258.91113422874446" r="4.868387701294507" fill="#CFAE58" opacity="0.14748717954004947"/>
  <circle cx="227.38792939369353" cy="530.6647858990085" r="3.084837262151215" fill="#CFAE58" opacity="0.24231193737454673"/>
  <circle cx="142.42510754606732" cy="65.40762729811503" r="3.999582519866868" fill="#CFAE58" opacity="0.15502958096545613"/>
  <circle cx="602.8193428400315" cy="400.95132876163126" r="3.061994257406707" fill="#CFAE58" opacity="0.16806206553213507"/>
  <circle cx="1064.4913431897608" cy="146.19864870602922" r="4.560660115665149" fill="#CFAE58" opacity="0.17642302104917312"/>
  <circle cx="1175.1251015282342" cy="129.11144717537658" r="3.2763302911235845" fill="#CFAE58" opacity="0.16003504421139425"/>
  <circle cx="659.3411539377859" cy="43.40413795810933" r="4.249736821162916" fill="#CFAE58" opacity="0.18710643725546217"/>
  <circle cx="123.69561262100079" cy="573.3235909343955" r="3.8221905343663334" fill="#CFAE58" opacity="0.17477576536859318"/>
  <circle cx="134.48268306738785" cy="100.3963287802295" r="2.3553915671504564" fill="#CFAE58" opacity="0.2065773524973078"/>
  <circle cx="236.51011950171838" cy="306.2328338803492" r="3.6657019341482036" fill="#CFAE58" opacity="0.19426875194246201"/>

  <!-- Border with glow -->
  <rect x="40" y="40" width="1120" height="550" fill="none" stroke="url(#goldGradient)" stroke-width="3" rx="12" filter="url(#softGlow)"/>

  <!-- Icon circle with premium background -->
  <circle cx="150" cy="200" r="75" fill="#CFAE58" opacity="0.15" filter="url(#softGlow)"/>
  <circle cx="150" cy="200" r="70" fill="#CFAE58" opacity="0.25"/>
  <text x="150" y="235" font-size="90" text-anchor="middle" fill="#CFAE58" filter="url(#glow)">⚖️</text>

  <!-- Premium logo (crown) with enhanced styling -->
  <g transform="translate(100, 70)">
    <path d="M 30 20 L 40 35 L 35 35 Z M 50 15 L 60 35 L 45 35 Z M 65 20 L 75 35 L 70 35 Z M 30 35 L 75 35 L 73 45 L 32 45 Z"
          fill="url(#goldGradient)" filter="url(#glow)" stroke="#B89842" stroke-width="0.5"/>
    <circle cx="40" cy="25" r="3" fill="#4FD1C5" filter="url(#glow)"/>
    <circle cx="52" cy="20" r="4" fill="#4FD1C5" filter="url(#glow)"/>
    <circle cx="65" cy="25" r="3" fill="#4FD1C5" filter="url(#glow)"/>
  </g>

  <!-- Title with shadow -->
  <text x="280" y="180" font-family="Georgia, serif" font-size="72" font-weight="bold"
        fill="url(#goldGradient)" filter="url(#shadow)">Legal Information</text>

  <!-- Subtitle with subtle glow -->
  <text x="280" y="230" font-family="Arial, sans-serif" font-size="36"
        fill="#D6DEE6" opacity="0.95" filter="url(#softGlow)">Terms, Privacy &amp; Disclosures</text>

  <!-- Brand name with letter spacing -->
  <text x="280" y="300" font-family="Georgia, serif" font-size="32" font-weight="bold"
        fill="#CFAE58" letter-spacing="4" filter="url(#glow)">ROYAL KETA</text>

  <!-- Russian tagline -->
  <text x="280" y="340" font-family="Arial, sans-serif" font-size="22" font-style="italic"
        fill="#8B95A1" opacity="0.8">От икринки к королевской</text>

  <!-- Location -->
  <text x="280" y="380" font-family="Arial, sans-serif" font-size="20"
        fill="#8B95A1" opacity="0.7">Невельский район, Сахалин</text>

  <!-- Website with glow -->
  <text x="100" y="570" font-family="Arial, sans-serif" font-size="30" font-weight="bold"
        fill="#4FD1C5" filter="url(#glow)">royalketa.com</text>

  <!-- Enhanced decorative salmon silhouette -->
  <g transform="translate(950, 480)" opacity="0.2" filter="url(#softGlow)">
    <ellipse cx="0" cy="0" rx="90" ry="35" fill="#CFAE58"/>
    <path d="M 90 0 L 120 -18 L 130 0 L 120 18 Z" fill="#CFAE58"/>
    <path d="M -25 -35 L 0 -45 L 25 -35 Z" fill="#CFAE58"/>
    <ellipse cx="-50" cy="0" rx="15" ry="12" fill="#0B0F14"/>
  </g>

  <!-- Additional decorative caviar clusters -->
  <g opacity="0.2">
    <circle cx="1050" cy="120" r="6" fill="#CFAE58"/>
    <circle cx="1065" cy="115" r="5" fill="#CFAE58"/>
    <circle cx="1058" cy="130" r="4" fill="#CFAE58"/>
    <circle cx="150" cy="500" r="5" fill="#4FD1C5"/>
    <circle cx="165" cy="508" r="4" fill="#4FD1C5"/>
    <circle cx="140" cy="512" r="5" fill="#4FD1C5"/>
  </g>
</svg>