<svg width="1200" height="630" xmlns="http://www.w3.org/2000/svg">
  <defs>
    <linearGradient id="bgGradient" x1="0%" y1="0%" x2="100%" y2="100%">
      <stop offset="0%" style="stop-color:#0B0F14;stop-opacity:1" />
      <stop offset="50%" style="stop-color:#0F1619;stop-opacity:1" />
      <stop offset="100%" style="stop-color:#0F1922;stop-opacity:1" />
    </linearGradient>
    <linearGradient id="goldGradient" x1="0%" y1="0%" x2="100%" y2="0%">
      <stop offset="0%" style="stop-color:#E5D596;stop-opacity:1" />
      <stop offset="50%" style="stop-color:#CFAE58;stop-opacity:1" />
      <stop offset="100%" style="stop-color:#B89842;stop-opacity:1" />
    </linearGradient>
    <radialGradient id="oceanGradient" cx="50%" cy="50%" r="50%">
      <stop offset="0%" style="stop-color:#4FD1C5;stop-opacity:0.3" />
      <stop offset="100%" style="stop-color:#1E90A0;stop-opacity:0.05" />
    </radialGradient>
    <filter id="glow">
      <feGaussianBlur stdDeviation="5" result="coloredBlur"/>
      <feMerge>
        <feMergeNode in="coloredBlur"/>
        <feMergeNode in="SourceGraphic"/>
      </feMerge>
    </filter>
    <filter id="softGlow">
      <feGaussianBlur stdDeviation="8" result="coloredBlur"/>
      <feMerge>
        <feMergeNode in="coloredBlur"/>
        <feMergeNode in="SourceGraphic"/>
      </feMerge>
    </filter>
    <filter id="shadow">
      <feDropShadow dx="0" dy="4" stdDeviation="8" flood-color="#000000" flood-opacity="0.5"/>
    </filter>
  </defs>

  <!-- Background -->
  <rect width="1200" height="630" fill="url(#bgGradient)"/>

  <!-- Decorative ocean gradients -->
  <ellipse cx="1000" cy="150" rx="300" ry="200" fill="url(#oceanGradient)" opacity="0.4"/>
  <ellipse cx="200" cy="530" rx="250" ry="180" fill="url(#oceanGradient)" opacity="0.3"/>

  <!-- Wave patterns -->
  <path d="M 0 400 Q 300 350 600 400 T 1200 400 L 1200 630 L 0 630 Z" fill="#1E90A0" opacity="0.08"/>
  <path d="M 0 450 Q 250 420 500 450 T 1000 450 T 1200 450 L 1200 630 L 0 630 Z" fill="#4FD1C5" opacity="0.05"/>

  <!-- Caviar roe particles -->
  <circle cx="873.9591938384654" cy="167.47589234289083" r="4.166870811619955" fill="#CFAE58" opacity="0.13139502372707818"/>
  <circle cx="429.8884238450619" cy="612.2926046154071" r="5.340377551857942" fill="#CFAE58" opacity="0.15370927685925537"/>
  <circle cx="982.3776304457476" cy="598.1098363699697" r="5.343283637195691" fill="#CFAE58" opacity="0.10698708610972293"/>
  <circle cx="159.13510316981885" cy="526.426359405821" r="4.522325198100036" fill="#CFAE58" opacity="0.18063653687283943"/>
  <circle cx="1019.5931830095637" cy="158.15324071404362" r="3.7867216683916034" fill="#CFAE58" opacity="0.1990867305785114"/>
  <circle cx="973.1656667872578" cy="446.46029728904057" r="3.551468897113378" fill="#CFAE58" opacity="0.21551144255890056"/>
  <circle cx="641.9426224763295" cy="534.7772783935591" r="5.044789111948851" fill="#CFAE58" opacity="0.18539544713086423"/>
  <circle cx="7.721088885236327" cy="474.16826112531544" r="2.526589335378203" fill="#CFAE58" opacity="0.24273707996014382"/>
  <circle cx="1109.6120230590602" cy="111.01234358792016" r="3.6422146124672725" fill="#CFAE58" opacity="0.24024467473206648"/>
  <circle cx="90.88290918362691" cy="596.3821620336416" r="3.280690522421848" fill="#CFAE58" opacity="0.22142377062265806"/>
  <circle cx="782.3078469319222" cy="526.3354662967485" r="2.3188783664702566" fill="#CFAE58" opacity="0.13304992871829296"/>
  <circle cx="1062.3142443706286" cy="470.6037081475016" r="3.702890964968839" fill="#CFAE58" opacity="0.2358510649841526"/>
  <circle cx="518.1388848438503" cy="226.27826921260885" r="5.299033117194199" fill="#CFAE58" opacity="0.2074269279505353"/>
  <circle cx="612.0006898320389" cy="133.33981034166857" r="4.956588286158748" fill="#CFAE58" opacity="0.22812246059178748"/>
  <circle cx="813.4247001759051" cy="589.0785473765422" r="3.8589693086801047" fill="#CFAE58" opacity="0.12155200970100948"/>
  <circle cx="1190.877724571044" cy="371.21916619737533" r="4.408005689802008" fill="#CFAE58" opacity="0.13897234152165755"/>
  <circle cx="60.81287808813612" cy="351.6121344551921" r="2.7159832414130376" fill="#CFAE58" opacity="0.2158574175927841"/>
  <circle cx="290.4561759648705" cy="49.871454350066344" r="5.5400637595835525" fill="#CFAE58" opacity="0.13242995898776178"/>
  <circle cx="284.1935508362083" cy="164.59309099866962" r="4.393207981101674" fill="#CFAE58" opacity="0.12115150688847015"/>
  <circle cx="3.004323089747718" cy="248.55177737946275" r="4.006483503047377" fill="#CFAE58" opacity="0.17960242726672165"/>
  <circle cx="216.49119795684408" cy="175.817186472317" r="3.498395544911527" fill="#CFAE58" opacity="0.14156271283167637"/>
  <circle cx="1174.5481809264802" cy="596.2970903421825" r="2.261649654022597" fill="#CFAE58" opacity="0.19202030599033415"/>
  <circle cx="240.09400524632792" cy="6.21052324713064" r="4.615981382918045" fill="#CFAE58" opacity="0.12577028074774968"/>
  <circle cx="974.4254012413501" cy="561.6598678016119" r="2.896029029993924" fill="#CFAE58" opacity="0.11495098654873359"/>
  <circle cx="704.5998162857244" cy="58.340665696350406" r="3.4135212219772226" fill="#CFAE58" opacity="0.2476983015764813"/>
  <circle cx="717.8033705434668" cy="377.6955510221606" r="3.6831352335881133" fill="#CFAE58" opacity="0.13516229047180678"/>
  <circle cx="507.57282745935504" cy="186.6205260733298" r="4.493689879818445" fill="#CFAE58" opacity="0.23526736255185673"/>
  <circle cx="698.9298710689494" cy="504.09195068678963" r="3.5321503798646177" fill="#CFAE58" opacity="0.21227553607454192"/>
  <circle cx="60.05023920306254" cy="591.412910130124" r="4.338196950462812" fill="#CFAE58" opacity="0.10603783911025527"/>
  <circle cx="259.6536624512622" cy="333.61540073317013" r="4.110447034045025" fill="#CFAE58" opacity="0.24273739963109897"/>

  <!-- Border with glow -->
  <rect x="40" y="40" width="1120" height="550" fill="none" stroke="url(#goldGradient)" stroke-width="3" rx="12" filter="url(#softGlow)"/>

  <!-- Icon circle with premium background -->
  <circle cx="150" cy="200" r="75" fill="#CFAE58" opacity="0.15" filter="url(#softGlow)"/>
  <circle cx="150" cy="200" r="70" fill="#CFAE58" opacity="0.25"/>
  <text x="150" y="235" font-size="90" text-anchor="middle" fill="#CFAE58" filter="url(#glow)">⚖️</text>

  <!-- Premium logo (crown) with enhanced styling -->
  <g transform="translate(100, 70)">
    <path d="M 30 20 L 40 35 L 35 35 Z M 50 15 L 60 35 L 45 35 Z M 65 20 L 75 35 L 70 35 Z M 30 35 L 75 35 L 73 45 L 32 45 Z"
          fill="url(#goldGradient)" filter="url(#glow)" stroke="#B89842" stroke-width="0.5"/>
    <circle cx="40" cy="25" r="3" fill="#4FD1C5" filter="url(#glow)"/>
    <circle cx="52" cy="20" r="4" fill="#4FD1C5" filter="url(#glow)"/>
    <circle cx="65" cy="25" r="3" fill="#4FD1C5" filter="url(#glow)"/>
  </g>

  <!-- Title with shadow -->
  <text x="280" y="180" font-family="Georgia, serif" font-size="72" font-weight="bold"
        fill="url(#goldGradient)" filter="url(#shadow)">Legal Information</text>

  <!-- Subtitle with subtle glow -->
  <text x="280" y="230" font-family="Arial, sans-serif" font-size="36"
        fill="#D6DEE6" opacity="0.95" filter="url(#softGlow)">Terms, Privacy & Disclosures</text>

  <!-- Brand name with letter spacing -->
  <text x="280" y="300" font-family="Georgia, serif" font-size="32" font-weight="bold"
        fill="#CFAE58" letter-spacing="4" filter="url(#glow)">ROYAL KETA</text>

  <!-- Russian tagline -->
  <text x="280" y="340" font-family="Arial, sans-serif" font-size="22" font-style="italic"
        fill="#8B95A1" opacity="0.8">От икринки к королевской</text>

  <!-- Location -->
  <text x="280" y="380" font-family="Arial, sans-serif" font-size="20"
        fill="#8B95A1" opacity="0.7">Невельский район, Сахалин</text>

  <!-- Website with glow -->
  <text x="100" y="570" font-family="Arial, sans-serif" font-size="30" font-weight="bold"
        fill="#4FD1C5" filter="url(#glow)">royalketa.com</text>

  <!-- Enhanced decorative salmon silhouette -->
  <g transform="translate(950, 480)" opacity="0.2" filter="url(#softGlow)">
    <ellipse cx="0" cy="0" rx="90" ry="35" fill="#CFAE58"/>
    <path d="M 90 0 L 120 -18 L 130 0 L 120 18 Z" fill="#CFAE58"/>
    <path d="M -25 -35 L 0 -45 L 25 -35 Z" fill="#CFAE58"/>
    <ellipse cx="-50" cy="0" rx="15" ry="12" fill="#0B0F14"/>
  </g>

  <!-- Additional decorative caviar clusters -->
  <g opacity="0.2">
    <circle cx="1050" cy="120" r="6" fill="#CFAE58"/>
    <circle cx="1065" cy="115" r="5" fill="#CFAE58"/>
    <circle cx="1058" cy="130" r="4" fill="#CFAE58"/>
    <circle cx="150" cy="500" r="5" fill="#4FD1C5"/>
    <circle cx="165" cy="508" r="4" fill="#4FD1C5"/>
    <circle cx="140" cy="512" r="5" fill="#4FD1C5"/>
  </g>
</svg>