<svg width="1200" height="630" xmlns="http://www.w3.org/2000/svg">
  <defs>
    <linearGradient id="bgGradient" x1="0%" y1="0%" x2="100%" y2="100%">
      <stop offset="0%" style="stop-color:#0B0F14;stop-opacity:1" />
      <stop offset="50%" style="stop-color:#0F1619;stop-opacity:1" />
      <stop offset="100%" style="stop-color:#0F1922;stop-opacity:1" />
    </linearGradient>
    <linearGradient id="goldGradient" x1="0%" y1="0%" x2="100%" y2="0%">
      <stop offset="0%" style="stop-color:#E5D596;stop-opacity:1" />
      <stop offset="50%" style="stop-color:#CFAE58;stop-opacity:1" />
      <stop offset="100%" style="stop-color:#B89842;stop-opacity:1" />
    </linearGradient>
    <radialGradient id="oceanGradient" cx="50%" cy="50%" r="50%">
      <stop offset="0%" style="stop-color:#4FD1C5;stop-opacity:0.3" />
      <stop offset="100%" style="stop-color:#1E90A0;stop-opacity:0.05" />
    </radialGradient>
    <filter id="glow">
      <feGaussianBlur stdDeviation="5" result="coloredBlur"/>
      <feMerge>
        <feMergeNode in="coloredBlur"/>
        <feMergeNode in="SourceGraphic"/>
      </feMerge>
    </filter>
    <filter id="softGlow">
      <feGaussianBlur stdDeviation="8" result="coloredBlur"/>
      <feMerge>
        <feMergeNode in="coloredBlur"/>
        <feMergeNode in="SourceGraphic"/>
      </feMerge>
    </filter>
    <filter id="shadow">
      <feDropShadow dx="0" dy="4" stdDeviation="8" flood-color="#000000" flood-opacity="0.5"/>
    </filter>
  </defs>

  <!-- Background -->
  <rect width="1200" height="630" fill="url(#bgGradient)"/>

  <!-- Decorative ocean gradients -->
  <ellipse cx="1000" cy="150" rx="300" ry="200" fill="url(#oceanGradient)" opacity="0.4"/>
  <ellipse cx="200" cy="530" rx="250" ry="180" fill="url(#oceanGradient)" opacity="0.3"/>

  <!-- Wave patterns -->
  <path d="M 0 400 Q 300 350 600 400 T 1200 400 L 1200 630 L 0 630 Z" fill="#1E90A0" opacity="0.08"/>
  <path d="M 0 450 Q 250 420 500 450 T 1000 450 T 1200 450 L 1200 630 L 0 630 Z" fill="#4FD1C5" opacity="0.05"/>

  <!-- Caviar roe particles -->
  <circle cx="637.4529328759905" cy="283.3468928424744" r="4.79159797442733" fill="#CFAE58" opacity="0.12583340874018173"/>
  <circle cx="237.6831539229614" cy="41.411090558236495" r="5.402715198007215" fill="#CFAE58" opacity="0.2494979836646279"/>
  <circle cx="626.9215914669144" cy="380.13521339736184" r="2.319038412787437" fill="#CFAE58" opacity="0.14420306869477947"/>
  <circle cx="1081.001146990105" cy="45.08016846805153" r="4.833726051436967" fill="#CFAE58" opacity="0.19013756952754496"/>
  <circle cx="882.9890106701873" cy="285.1675418231992" r="5.0410824066433495" fill="#CFAE58" opacity="0.14821590578873"/>
  <circle cx="711.9142094813557" cy="286.09657857721004" r="4.881500415123698" fill="#CFAE58" opacity="0.23540656868380166"/>
  <circle cx="679.9097738196422" cy="13.9849000935493" r="4.099727188726748" fill="#CFAE58" opacity="0.24892265483963597"/>
  <circle cx="132.9416357438849" cy="303.0608781963149" r="2.218056877252438" fill="#CFAE58" opacity="0.18687615785193823"/>
  <circle cx="561.3625905166502" cy="283.1547541263919" r="3.7951171215215824" fill="#CFAE58" opacity="0.10196795482543215"/>
  <circle cx="593.3966244676767" cy="118.83924136040389" r="4.60711617773473" fill="#CFAE58" opacity="0.11920343122952907"/>
  <circle cx="62.390977513354116" cy="105.62842943684284" r="4.064448184774491" fill="#CFAE58" opacity="0.1962670750952512"/>
  <circle cx="970.1658628729707" cy="59.00320628723311" r="4.244052094529509" fill="#CFAE58" opacity="0.120054013633858"/>
  <circle cx="986.067652691571" cy="626.8841787088343" r="4.128666707980923" fill="#CFAE58" opacity="0.2309066891154871"/>
  <circle cx="97.04622247279246" cy="274.0038245812617" r="3.7547011593006854" fill="#CFAE58" opacity="0.14993656795517332"/>
  <circle cx="507.7579430220402" cy="415.5753920773285" r="3.081209901246179" fill="#CFAE58" opacity="0.1694320489357224"/>
  <circle cx="844.6624559264749" cy="491.08493139571954" r="3.550097496310138" fill="#CFAE58" opacity="0.17404232361994387"/>
  <circle cx="810.969642032987" cy="412.7695033177075" r="2.0606079275769082" fill="#CFAE58" opacity="0.1986045488208697"/>
  <circle cx="48.46124164549255" cy="257.31853228920573" r="4.462358950276677" fill="#CFAE58" opacity="0.22572670827202243"/>
  <circle cx="588.517649813418" cy="622.2596484183128" r="3.067623028571931" fill="#CFAE58" opacity="0.21188278839558808"/>
  <circle cx="269.9675220314204" cy="292.431513642394" r="2.066778799559964" fill="#CFAE58" opacity="0.1196415899619459"/>
  <circle cx="271.6783204379755" cy="219.53422434721944" r="5.42742191926441" fill="#CFAE58" opacity="0.20478600603952507"/>
  <circle cx="1118.4893886043392" cy="93.61043940200427" r="3.3935635418598222" fill="#CFAE58" opacity="0.11884340115821979"/>
  <circle cx="16.82645970318437" cy="532.848092111126" r="3.59799563389003" fill="#CFAE58" opacity="0.22095513534835165"/>
  <circle cx="2.5903213682930915" cy="43.45647567699" r="5.864551496583877" fill="#CFAE58" opacity="0.2226446190620941"/>
  <circle cx="804.4324712423208" cy="479.2876843160589" r="4.457357384466636" fill="#CFAE58" opacity="0.1263380488930589"/>
  <circle cx="651.6442150042876" cy="85.34856297500524" r="3.8593663560864715" fill="#CFAE58" opacity="0.20085644073149436"/>
  <circle cx="191.4167326173662" cy="336.27192739444473" r="5.972816642750483" fill="#CFAE58" opacity="0.1118739316225911"/>
  <circle cx="251.60062891151327" cy="601.1101074040782" r="3.577177832121935" fill="#CFAE58" opacity="0.17990983898006396"/>
  <circle cx="635.8745697203497" cy="152.75132448971274" r="4.2693148414334186" fill="#CFAE58" opacity="0.2017511548385018"/>
  <circle cx="640.3964571775476" cy="111.78925997082588" r="4.9231858829147" fill="#CFAE58" opacity="0.17137399202058912"/>

  <!-- Border with glow -->
  <rect x="40" y="40" width="1120" height="550" fill="none" stroke="url(#goldGradient)" stroke-width="3" rx="12" filter="url(#softGlow)"/>

  <!-- Icon circle with premium background -->
  <circle cx="150" cy="200" r="75" fill="#CFAE58" opacity="0.15" filter="url(#softGlow)"/>
  <circle cx="150" cy="200" r="70" fill="#CFAE58" opacity="0.25"/>
  <text x="150" y="235" font-size="90" text-anchor="middle" fill="#CFAE58" filter="url(#glow)">⚖️</text>

  <!-- Premium logo (crown) with enhanced styling -->
  <g transform="translate(100, 70)">
    <path d="M 30 20 L 40 35 L 35 35 Z M 50 15 L 60 35 L 45 35 Z M 65 20 L 75 35 L 70 35 Z M 30 35 L 75 35 L 73 45 L 32 45 Z"
          fill="url(#goldGradient)" filter="url(#glow)" stroke="#B89842" stroke-width="0.5"/>
    <circle cx="40" cy="25" r="3" fill="#4FD1C5" filter="url(#glow)"/>
    <circle cx="52" cy="20" r="4" fill="#4FD1C5" filter="url(#glow)"/>
    <circle cx="65" cy="25" r="3" fill="#4FD1C5" filter="url(#glow)"/>
  </g>

  <!-- Title with shadow -->
  <text x="280" y="180" font-family="Georgia, serif" font-size="72" font-weight="bold"
        fill="url(#goldGradient)" filter="url(#shadow)">Legal Information</text>

  <!-- Subtitle with subtle glow -->
  <text x="280" y="230" font-family="Arial, sans-serif" font-size="36"
        fill="#D6DEE6" opacity="0.95" filter="url(#softGlow)">Terms, Privacy &amp; Disclosures</text>

  <!-- Brand name with letter spacing -->
  <text x="280" y="300" font-family="Georgia, serif" font-size="32" font-weight="bold"
        fill="#CFAE58" letter-spacing="4" filter="url(#glow)">ROYAL KETA</text>

  <!-- Russian tagline -->
  <text x="280" y="340" font-family="Arial, sans-serif" font-size="22" font-style="italic"
        fill="#8B95A1" opacity="0.8">От икринки к королевской</text>

  <!-- Location -->
  <text x="280" y="380" font-family="Arial, sans-serif" font-size="20"
        fill="#8B95A1" opacity="0.7">Невельский район, Сахалин</text>

  <!-- Website with glow -->
  <text x="100" y="570" font-family="Arial, sans-serif" font-size="30" font-weight="bold"
        fill="#4FD1C5" filter="url(#glow)">royalketa.com</text>

  <!-- Enhanced decorative salmon silhouette -->
  <g transform="translate(950, 480)" opacity="0.2" filter="url(#softGlow)">
    <ellipse cx="0" cy="0" rx="90" ry="35" fill="#CFAE58"/>
    <path d="M 90 0 L 120 -18 L 130 0 L 120 18 Z" fill="#CFAE58"/>
    <path d="M -25 -35 L 0 -45 L 25 -35 Z" fill="#CFAE58"/>
    <ellipse cx="-50" cy="0" rx="15" ry="12" fill="#0B0F14"/>
  </g>

  <!-- Additional decorative caviar clusters -->
  <g opacity="0.2">
    <circle cx="1050" cy="120" r="6" fill="#CFAE58"/>
    <circle cx="1065" cy="115" r="5" fill="#CFAE58"/>
    <circle cx="1058" cy="130" r="4" fill="#CFAE58"/>
    <circle cx="150" cy="500" r="5" fill="#4FD1C5"/>
    <circle cx="165" cy="508" r="4" fill="#4FD1C5"/>
    <circle cx="140" cy="512" r="5" fill="#4FD1C5"/>
  </g>
</svg>