<svg width="1200" height="630" xmlns="http://www.w3.org/2000/svg">
  <defs>
    <linearGradient id="bgGradient" x1="0%" y1="0%" x2="100%" y2="100%">
      <stop offset="0%" style="stop-color:#0B0F14;stop-opacity:1" />
      <stop offset="50%" style="stop-color:#0F1619;stop-opacity:1" />
      <stop offset="100%" style="stop-color:#0F1922;stop-opacity:1" />
    </linearGradient>
    <linearGradient id="goldGradient" x1="0%" y1="0%" x2="100%" y2="0%">
      <stop offset="0%" style="stop-color:#E5D596;stop-opacity:1" />
      <stop offset="50%" style="stop-color:#CFAE58;stop-opacity:1" />
      <stop offset="100%" style="stop-color:#B89842;stop-opacity:1" />
    </linearGradient>
    <radialGradient id="oceanGradient" cx="50%" cy="50%" r="50%">
      <stop offset="0%" style="stop-color:#4FD1C5;stop-opacity:0.3" />
      <stop offset="100%" style="stop-color:#1E90A0;stop-opacity:0.05" />
    </radialGradient>
    <filter id="glow">
      <feGaussianBlur stdDeviation="5" result="coloredBlur"/>
      <feMerge>
        <feMergeNode in="coloredBlur"/>
        <feMergeNode in="SourceGraphic"/>
      </feMerge>
    </filter>
    <filter id="softGlow">
      <feGaussianBlur stdDeviation="8" result="coloredBlur"/>
      <feMerge>
        <feMergeNode in="coloredBlur"/>
        <feMergeNode in="SourceGraphic"/>
      </feMerge>
    </filter>
    <filter id="shadow">
      <feDropShadow dx="0" dy="4" stdDeviation="8" flood-color="#000000" flood-opacity="0.5"/>
    </filter>
  </defs>

  <!-- Background -->
  <rect width="1200" height="630" fill="url(#bgGradient)"/>

  <!-- Decorative ocean gradients -->
  <ellipse cx="1000" cy="150" rx="300" ry="200" fill="url(#oceanGradient)" opacity="0.4"/>
  <ellipse cx="200" cy="530" rx="250" ry="180" fill="url(#oceanGradient)" opacity="0.3"/>

  <!-- Wave patterns -->
  <path d="M 0 400 Q 300 350 600 400 T 1200 400 L 1200 630 L 0 630 Z" fill="#1E90A0" opacity="0.08"/>
  <path d="M 0 450 Q 250 420 500 450 T 1000 450 T 1200 450 L 1200 630 L 0 630 Z" fill="#4FD1C5" opacity="0.05"/>

  <!-- Caviar roe particles -->
  <circle cx="1043.946525005099" cy="221.68002783128813" r="4.266437094048809" fill="#CFAE58" opacity="0.2042659845381264"/>
  <circle cx="467.21967644631974" cy="450.8981084273821" r="5.350929265619817" fill="#CFAE58" opacity="0.115097143724757"/>
  <circle cx="136.20298457695563" cy="3.170101770582845" r="4.787337150687097" fill="#CFAE58" opacity="0.24947048361859858"/>
  <circle cx="108.10437488718154" cy="544.788777963078" r="2.7555675395668744" fill="#CFAE58" opacity="0.13708799162251642"/>
  <circle cx="721.5105900471796" cy="289.58304159354697" r="4.325752006134628" fill="#CFAE58" opacity="0.1842874961907019"/>
  <circle cx="932.0634651050585" cy="190.46753655400522" r="2.117558740459156" fill="#CFAE58" opacity="0.16122228149010825"/>
  <circle cx="117.71327940871568" cy="593.9908022407692" r="4.847847159964752" fill="#CFAE58" opacity="0.17825185227463108"/>
  <circle cx="941.1529513262084" cy="40.227358228174" r="4.575735323650463" fill="#CFAE58" opacity="0.18397254765586946"/>
  <circle cx="1163.4815922417783" cy="99.9882311441227" r="3.7546218053838087" fill="#CFAE58" opacity="0.18609983544610814"/>
  <circle cx="917.32279716013" cy="5.096210842373532" r="3.8162401721132073" fill="#CFAE58" opacity="0.22857007402406168"/>
  <circle cx="1.2186075033492116" cy="61.00469137351971" r="5.2010411402830865" fill="#CFAE58" opacity="0.10455277849612908"/>
  <circle cx="186.16460674576567" cy="117.78869850609095" r="4.740624738947778" fill="#CFAE58" opacity="0.22537223100430545"/>
  <circle cx="1070.7107478637765" cy="491.18466204400283" r="2.6896186170497174" fill="#CFAE58" opacity="0.11821951191014057"/>
  <circle cx="542.5645711959043" cy="411.3292254016558" r="5.914594736090271" fill="#CFAE58" opacity="0.24377208340086132"/>
  <circle cx="74.90959177375353" cy="471.1482622469735" r="5.11849187149676" fill="#CFAE58" opacity="0.12425606224086591"/>
  <circle cx="1173.1136914528383" cy="48.354759661528306" r="4.682832364620817" fill="#CFAE58" opacity="0.14266191019119187"/>
  <circle cx="566.3660442563638" cy="81.72982123316076" r="3.1077356916198884" fill="#CFAE58" opacity="0.2499093519547026"/>
  <circle cx="387.2980957677879" cy="574.7348951471416" r="2.6945827442756283" fill="#CFAE58" opacity="0.12605275950898598"/>
  <circle cx="874.3161703297526" cy="576.9349882152541" r="2.7795001883772157" fill="#CFAE58" opacity="0.10095979903259145"/>
  <circle cx="269.9824388213466" cy="549.7565173378792" r="4.286969878956441" fill="#CFAE58" opacity="0.11030008248120475"/>
  <circle cx="223.73080353308615" cy="594.9471726073778" r="5.959147041852461" fill="#CFAE58" opacity="0.2358980164376288"/>
  <circle cx="652.1264889688649" cy="523.9098254444034" r="3.415719996018412" fill="#CFAE58" opacity="0.10105111410623448"/>
  <circle cx="11.675884487840849" cy="508.76832182300313" r="5.322391078596959" fill="#CFAE58" opacity="0.2410578891616594"/>
  <circle cx="90.84423305128881" cy="311.37232628340104" r="5.177348924323921" fill="#CFAE58" opacity="0.1830366352857043"/>
  <circle cx="555.370071854094" cy="607.9482223332853" r="3.0345047773262612" fill="#CFAE58" opacity="0.13771405741931947"/>
  <circle cx="291.2468770252518" cy="516.9816761437329" r="2.627596266743709" fill="#CFAE58" opacity="0.24920213254662876"/>
  <circle cx="916.2331704029056" cy="42.41716391162494" r="3.0528114161848077" fill="#CFAE58" opacity="0.18491109777582482"/>
  <circle cx="1055.2768990407724" cy="131.74661850762485" r="4.769438455979028" fill="#CFAE58" opacity="0.142048074546754"/>
  <circle cx="68.05486258597125" cy="557.261352699698" r="3.9299133260948276" fill="#CFAE58" opacity="0.12290377162109452"/>
  <circle cx="890.7355620948337" cy="601.0907005087569" r="5.317332085292641" fill="#CFAE58" opacity="0.10548361828524284"/>

  <!-- Border with glow -->
  <rect x="40" y="40" width="1120" height="550" fill="none" stroke="url(#goldGradient)" stroke-width="3" rx="12" filter="url(#softGlow)"/>

  <!-- Icon circle with premium background -->
  <circle cx="150" cy="200" r="75" fill="#CFAE58" opacity="0.15" filter="url(#softGlow)"/>
  <circle cx="150" cy="200" r="70" fill="#CFAE58" opacity="0.25"/>
  <text x="150" y="235" font-size="90" text-anchor="middle" fill="#CFAE58" filter="url(#glow)">⚖️</text>

  <!-- Premium logo (crown) with enhanced styling -->
  <g transform="translate(100, 70)">
    <path d="M 30 20 L 40 35 L 35 35 Z M 50 15 L 60 35 L 45 35 Z M 65 20 L 75 35 L 70 35 Z M 30 35 L 75 35 L 73 45 L 32 45 Z"
          fill="url(#goldGradient)" filter="url(#glow)" stroke="#B89842" stroke-width="0.5"/>
    <circle cx="40" cy="25" r="3" fill="#4FD1C5" filter="url(#glow)"/>
    <circle cx="52" cy="20" r="4" fill="#4FD1C5" filter="url(#glow)"/>
    <circle cx="65" cy="25" r="3" fill="#4FD1C5" filter="url(#glow)"/>
  </g>

  <!-- Title with shadow -->
  <text x="280" y="180" font-family="Georgia, serif" font-size="72" font-weight="bold"
        fill="url(#goldGradient)" filter="url(#shadow)">Legal Information</text>

  <!-- Subtitle with subtle glow -->
  <text x="280" y="230" font-family="Arial, sans-serif" font-size="36"
        fill="#D6DEE6" opacity="0.95" filter="url(#softGlow)">Terms, Privacy &amp; Disclosures</text>

  <!-- Brand name with letter spacing -->
  <text x="280" y="300" font-family="Georgia, serif" font-size="32" font-weight="bold"
        fill="#CFAE58" letter-spacing="4" filter="url(#glow)">ROYAL KETA</text>

  <!-- Russian tagline -->
  <text x="280" y="340" font-family="Arial, sans-serif" font-size="22" font-style="italic"
        fill="#8B95A1" opacity="0.8">От икринки к королевской</text>

  <!-- Location -->
  <text x="280" y="380" font-family="Arial, sans-serif" font-size="20"
        fill="#8B95A1" opacity="0.7">Невельский район, Сахалин</text>

  <!-- Website with glow -->
  <text x="100" y="570" font-family="Arial, sans-serif" font-size="30" font-weight="bold"
        fill="#4FD1C5" filter="url(#glow)">royalketa.com</text>

  <!-- Enhanced decorative salmon silhouette -->
  <g transform="translate(950, 480)" opacity="0.2" filter="url(#softGlow)">
    <ellipse cx="0" cy="0" rx="90" ry="35" fill="#CFAE58"/>
    <path d="M 90 0 L 120 -18 L 130 0 L 120 18 Z" fill="#CFAE58"/>
    <path d="M -25 -35 L 0 -45 L 25 -35 Z" fill="#CFAE58"/>
    <ellipse cx="-50" cy="0" rx="15" ry="12" fill="#0B0F14"/>
  </g>

  <!-- Additional decorative caviar clusters -->
  <g opacity="0.2">
    <circle cx="1050" cy="120" r="6" fill="#CFAE58"/>
    <circle cx="1065" cy="115" r="5" fill="#CFAE58"/>
    <circle cx="1058" cy="130" r="4" fill="#CFAE58"/>
    <circle cx="150" cy="500" r="5" fill="#4FD1C5"/>
    <circle cx="165" cy="508" r="4" fill="#4FD1C5"/>
    <circle cx="140" cy="512" r="5" fill="#4FD1C5"/>
  </g>
</svg>