<svg width="1200" height="630" xmlns="http://www.w3.org/2000/svg">
  <defs>
    <linearGradient id="bgGradient" x1="0%" y1="0%" x2="100%" y2="100%">
      <stop offset="0%" style="stop-color:#0B0F14;stop-opacity:1" />
      <stop offset="50%" style="stop-color:#0F1619;stop-opacity:1" />
      <stop offset="100%" style="stop-color:#0F1922;stop-opacity:1" />
    </linearGradient>
    <linearGradient id="goldGradient" x1="0%" y1="0%" x2="100%" y2="0%">
      <stop offset="0%" style="stop-color:#E5D596;stop-opacity:1" />
      <stop offset="50%" style="stop-color:#CFAE58;stop-opacity:1" />
      <stop offset="100%" style="stop-color:#B89842;stop-opacity:1" />
    </linearGradient>
    <radialGradient id="oceanGradient" cx="50%" cy="50%" r="50%">
      <stop offset="0%" style="stop-color:#4FD1C5;stop-opacity:0.3" />
      <stop offset="100%" style="stop-color:#1E90A0;stop-opacity:0.05" />
    </radialGradient>
    <filter id="glow">
      <feGaussianBlur stdDeviation="5" result="coloredBlur"/>
      <feMerge>
        <feMergeNode in="coloredBlur"/>
        <feMergeNode in="SourceGraphic"/>
      </feMerge>
    </filter>
    <filter id="softGlow">
      <feGaussianBlur stdDeviation="8" result="coloredBlur"/>
      <feMerge>
        <feMergeNode in="coloredBlur"/>
        <feMergeNode in="SourceGraphic"/>
      </feMerge>
    </filter>
    <filter id="shadow">
      <feDropShadow dx="0" dy="4" stdDeviation="8" flood-color="#000000" flood-opacity="0.5"/>
    </filter>
  </defs>

  <!-- Background -->
  <rect width="1200" height="630" fill="url(#bgGradient)"/>

  <!-- Decorative ocean gradients -->
  <ellipse cx="1000" cy="150" rx="300" ry="200" fill="url(#oceanGradient)" opacity="0.4"/>
  <ellipse cx="200" cy="530" rx="250" ry="180" fill="url(#oceanGradient)" opacity="0.3"/>

  <!-- Wave patterns -->
  <path d="M 0 400 Q 300 350 600 400 T 1200 400 L 1200 630 L 0 630 Z" fill="#1E90A0" opacity="0.08"/>
  <path d="M 0 450 Q 250 420 500 450 T 1000 450 T 1200 450 L 1200 630 L 0 630 Z" fill="#4FD1C5" opacity="0.05"/>

  <!-- Caviar roe particles -->
  <circle cx="1087.6830150982762" cy="150.53860310084642" r="4.684770343716205" fill="#CFAE58" opacity="0.15104692144552273"/>
  <circle cx="584.7784281065346" cy="346.21117735641207" r="4.177713623631537" fill="#CFAE58" opacity="0.2015056550596681"/>
  <circle cx="820.8282135284119" cy="605.1135685560603" r="4.271460435591087" fill="#CFAE58" opacity="0.16366516408321857"/>
  <circle cx="73.287956240857" cy="171.48690523623384" r="3.8244320132060565" fill="#CFAE58" opacity="0.1751688663714162"/>
  <circle cx="1155.3245560911205" cy="196.15839499815394" r="3.6369966585881777" fill="#CFAE58" opacity="0.13242463582338393"/>
  <circle cx="845.2616101610621" cy="345.2043172777904" r="3.6516443819282145" fill="#CFAE58" opacity="0.13335015529958824"/>
  <circle cx="788.533683903105" cy="35.93102569016841" r="4.553183089525406" fill="#CFAE58" opacity="0.21168636218996018"/>
  <circle cx="1090.783160897147" cy="395.51984749454795" r="4.662986700227916" fill="#CFAE58" opacity="0.13297390098908263"/>
  <circle cx="665.7855191042572" cy="402.7888898677519" r="5.621638675078244" fill="#CFAE58" opacity="0.22525012318385423"/>
  <circle cx="209.99838641482472" cy="389.53644086938516" r="2.5066964978538717" fill="#CFAE58" opacity="0.16551688587911143"/>
  <circle cx="338.2444424103194" cy="530.4715659342751" r="5.765393941389073" fill="#CFAE58" opacity="0.2192340598475781"/>
  <circle cx="339.6359614824126" cy="41.3680963107581" r="2.9940902723825307" fill="#CFAE58" opacity="0.1624051917682615"/>
  <circle cx="104.33410593873572" cy="414.19406331553915" r="2.8490278876460327" fill="#CFAE58" opacity="0.20649358935096124"/>
  <circle cx="424.96946077085187" cy="201.18199701874778" r="5.426067263210734" fill="#CFAE58" opacity="0.16326812292644532"/>
  <circle cx="212.5037122064648" cy="32.53940177226971" r="2.2998634341457764" fill="#CFAE58" opacity="0.21966616191427196"/>
  <circle cx="857.6623555221371" cy="169.44143805518888" r="2.851134665932424" fill="#CFAE58" opacity="0.21390089435344398"/>
  <circle cx="459.5214252028424" cy="562.629903527537" r="4.862664792087079" fill="#CFAE58" opacity="0.23008900678362568"/>
  <circle cx="222.9797281107836" cy="446.36727925481597" r="5.00142877344501" fill="#CFAE58" opacity="0.1475754345955092"/>
  <circle cx="517.1521896121047" cy="556.0941729778132" r="3.701989120408406" fill="#CFAE58" opacity="0.23288930243624217"/>
  <circle cx="293.54620319481893" cy="379.76462868381185" r="3.6678999931331813" fill="#CFAE58" opacity="0.18672921766423056"/>
  <circle cx="766.0602617117368" cy="137.35813400509485" r="4.613465882829886" fill="#CFAE58" opacity="0.18550015102165818"/>
  <circle cx="297.261577338881" cy="273.65881522648925" r="5.518483969324585" fill="#CFAE58" opacity="0.2463687086348456"/>
  <circle cx="247.88992479816665" cy="425.193221683463" r="3.6326212591406275" fill="#CFAE58" opacity="0.24343359808733886"/>
  <circle cx="141.1284700086032" cy="420.0371693035418" r="3.156047815988189" fill="#CFAE58" opacity="0.11510773859490356"/>
  <circle cx="15.811346892621891" cy="572.9130502245761" r="2.572914509516271" fill="#CFAE58" opacity="0.18763356836815492"/>
  <circle cx="1000.8585538513782" cy="307.8164506454318" r="3.1069249776705083" fill="#CFAE58" opacity="0.24899361321309554"/>
  <circle cx="1183.8631533468003" cy="43.09487550401297" r="3.628086815112656" fill="#CFAE58" opacity="0.21922477540490548"/>
  <circle cx="244.26292292667551" cy="453.5094660732006" r="2.253006272756596" fill="#CFAE58" opacity="0.14063796865323147"/>
  <circle cx="214.52557630337327" cy="313.62354026441386" r="3.9557948999041557" fill="#CFAE58" opacity="0.1417304921933192"/>
  <circle cx="204.38276317278712" cy="90.38247196944451" r="2.8409796859091143" fill="#CFAE58" opacity="0.24699932193848062"/>

  <!-- Border with glow -->
  <rect x="40" y="40" width="1120" height="550" fill="none" stroke="url(#goldGradient)" stroke-width="3" rx="12" filter="url(#softGlow)"/>

  <!-- Icon circle with premium background -->
  <circle cx="150" cy="200" r="75" fill="#CFAE58" opacity="0.15" filter="url(#softGlow)"/>
  <circle cx="150" cy="200" r="70" fill="#CFAE58" opacity="0.25"/>
  <text x="150" y="235" font-size="90" text-anchor="middle" fill="#CFAE58" filter="url(#glow)">⚖️</text>

  <!-- Premium logo (crown) with enhanced styling -->
  <g transform="translate(100, 70)">
    <path d="M 30 20 L 40 35 L 35 35 Z M 50 15 L 60 35 L 45 35 Z M 65 20 L 75 35 L 70 35 Z M 30 35 L 75 35 L 73 45 L 32 45 Z"
          fill="url(#goldGradient)" filter="url(#glow)" stroke="#B89842" stroke-width="0.5"/>
    <circle cx="40" cy="25" r="3" fill="#4FD1C5" filter="url(#glow)"/>
    <circle cx="52" cy="20" r="4" fill="#4FD1C5" filter="url(#glow)"/>
    <circle cx="65" cy="25" r="3" fill="#4FD1C5" filter="url(#glow)"/>
  </g>

  <!-- Title with shadow -->
  <text x="280" y="180" font-family="Georgia, serif" font-size="72" font-weight="bold"
        fill="url(#goldGradient)" filter="url(#shadow)">Legal Information</text>

  <!-- Subtitle with subtle glow -->
  <text x="280" y="230" font-family="Arial, sans-serif" font-size="36"
        fill="#D6DEE6" opacity="0.95" filter="url(#softGlow)">Terms, Privacy & Disclosures</text>

  <!-- Brand name with letter spacing -->
  <text x="280" y="300" font-family="Georgia, serif" font-size="32" font-weight="bold"
        fill="#CFAE58" letter-spacing="4" filter="url(#glow)">ROYAL KETA</text>

  <!-- Russian tagline -->
  <text x="280" y="340" font-family="Arial, sans-serif" font-size="22" font-style="italic"
        fill="#8B95A1" opacity="0.8">От икринки к королевской</text>

  <!-- Location -->
  <text x="280" y="380" font-family="Arial, sans-serif" font-size="20"
        fill="#8B95A1" opacity="0.7">Невельский район, Сахалин</text>

  <!-- Website with glow -->
  <text x="100" y="570" font-family="Arial, sans-serif" font-size="30" font-weight="bold"
        fill="#4FD1C5" filter="url(#glow)">royalketa.com</text>

  <!-- Enhanced decorative salmon silhouette -->
  <g transform="translate(950, 480)" opacity="0.2" filter="url(#softGlow)">
    <ellipse cx="0" cy="0" rx="90" ry="35" fill="#CFAE58"/>
    <path d="M 90 0 L 120 -18 L 130 0 L 120 18 Z" fill="#CFAE58"/>
    <path d="M -25 -35 L 0 -45 L 25 -35 Z" fill="#CFAE58"/>
    <ellipse cx="-50" cy="0" rx="15" ry="12" fill="#0B0F14"/>
  </g>

  <!-- Additional decorative caviar clusters -->
  <g opacity="0.2">
    <circle cx="1050" cy="120" r="6" fill="#CFAE58"/>
    <circle cx="1065" cy="115" r="5" fill="#CFAE58"/>
    <circle cx="1058" cy="130" r="4" fill="#CFAE58"/>
    <circle cx="150" cy="500" r="5" fill="#4FD1C5"/>
    <circle cx="165" cy="508" r="4" fill="#4FD1C5"/>
    <circle cx="140" cy="512" r="5" fill="#4FD1C5"/>
  </g>
</svg>