<svg width="1200" height="630" xmlns="http://www.w3.org/2000/svg">
  <defs>
    <linearGradient id="bgGradient" x1="0%" y1="0%" x2="100%" y2="100%">
      <stop offset="0%" style="stop-color:#0B0F14;stop-opacity:1" />
      <stop offset="50%" style="stop-color:#0F1619;stop-opacity:1" />
      <stop offset="100%" style="stop-color:#0F1922;stop-opacity:1" />
    </linearGradient>
    <linearGradient id="goldGradient" x1="0%" y1="0%" x2="100%" y2="0%">
      <stop offset="0%" style="stop-color:#E5D596;stop-opacity:1" />
      <stop offset="50%" style="stop-color:#CFAE58;stop-opacity:1" />
      <stop offset="100%" style="stop-color:#B89842;stop-opacity:1" />
    </linearGradient>
    <radialGradient id="oceanGradient" cx="50%" cy="50%" r="50%">
      <stop offset="0%" style="stop-color:#4FD1C5;stop-opacity:0.3" />
      <stop offset="100%" style="stop-color:#1E90A0;stop-opacity:0.05" />
    </radialGradient>
    <filter id="glow">
      <feGaussianBlur stdDeviation="5" result="coloredBlur"/>
      <feMerge>
        <feMergeNode in="coloredBlur"/>
        <feMergeNode in="SourceGraphic"/>
      </feMerge>
    </filter>
    <filter id="softGlow">
      <feGaussianBlur stdDeviation="8" result="coloredBlur"/>
      <feMerge>
        <feMergeNode in="coloredBlur"/>
        <feMergeNode in="SourceGraphic"/>
      </feMerge>
    </filter>
    <filter id="shadow">
      <feDropShadow dx="0" dy="4" stdDeviation="8" flood-color="#000000" flood-opacity="0.5"/>
    </filter>
  </defs>

  <!-- Background -->
  <rect width="1200" height="630" fill="url(#bgGradient)"/>

  <!-- Decorative ocean gradients -->
  <ellipse cx="1000" cy="150" rx="300" ry="200" fill="url(#oceanGradient)" opacity="0.4"/>
  <ellipse cx="200" cy="530" rx="250" ry="180" fill="url(#oceanGradient)" opacity="0.3"/>

  <!-- Wave patterns -->
  <path d="M 0 400 Q 300 350 600 400 T 1200 400 L 1200 630 L 0 630 Z" fill="#1E90A0" opacity="0.08"/>
  <path d="M 0 450 Q 250 420 500 450 T 1000 450 T 1200 450 L 1200 630 L 0 630 Z" fill="#4FD1C5" opacity="0.05"/>

  <!-- Caviar roe particles -->
  <circle cx="1085.332192394533" cy="426.63056000753716" r="5.190723670421174" fill="#CFAE58" opacity="0.11974893069335986"/>
  <circle cx="630.5871131043338" cy="279.45796113690704" r="4.4654595456277715" fill="#CFAE58" opacity="0.2089798927584054"/>
  <circle cx="50.984313430052985" cy="169.75293994539254" r="3.0114703450906486" fill="#CFAE58" opacity="0.14972435203024123"/>
  <circle cx="613.4461768291688" cy="103.91189822310825" r="4.352235910340449" fill="#CFAE58" opacity="0.10389186251585855"/>
  <circle cx="1199.3195682545072" cy="504.8780010705268" r="2.077379327275752" fill="#CFAE58" opacity="0.1521181207961431"/>
  <circle cx="975.5449601148392" cy="297.8531915315461" r="2.6031282237707796" fill="#CFAE58" opacity="0.17011693401017575"/>
  <circle cx="299.4384431214689" cy="358.05099899038686" r="3.7856382668870685" fill="#CFAE58" opacity="0.15569374087782137"/>
  <circle cx="859.6575168072995" cy="360.1288891837677" r="2.3223935096777124" fill="#CFAE58" opacity="0.12373425390981725"/>
  <circle cx="644.6211876273788" cy="572.3661841210287" r="3.0934482308460076" fill="#CFAE58" opacity="0.17097441248887701"/>
  <circle cx="930.4892031604741" cy="515.219918861518" r="4.712454665934089" fill="#CFAE58" opacity="0.13493892453028317"/>
  <circle cx="388.85447055199086" cy="430.35177243400454" r="3.525651748401998" fill="#CFAE58" opacity="0.18941367882438598"/>
  <circle cx="384.26337136049654" cy="452.9251860520543" r="4.973580047001001" fill="#CFAE58" opacity="0.20964571368360535"/>
  <circle cx="166.16607460453014" cy="592.1770779265445" r="4.8779794795204765" fill="#CFAE58" opacity="0.17627538666621845"/>
  <circle cx="87.7051103805532" cy="580.6023936066244" r="2.6409167356032857" fill="#CFAE58" opacity="0.21673969667179177"/>
  <circle cx="7.536640561267038" cy="193.91031929586762" r="4.071106813594408" fill="#CFAE58" opacity="0.12605222283326215"/>
  <circle cx="583.0361123780633" cy="3.172851829256529" r="2.805308488442023" fill="#CFAE58" opacity="0.22791622713392368"/>
  <circle cx="989.6710724892038" cy="32.05444822852036" r="2.263449577581552" fill="#CFAE58" opacity="0.16865533131254118"/>
  <circle cx="907.6378786966036" cy="308.10007648756067" r="4.68653301780741" fill="#CFAE58" opacity="0.18415488628898116"/>
  <circle cx="399.768940258972" cy="592.1452992037158" r="3.1768455179966884" fill="#CFAE58" opacity="0.17675869265643845"/>
  <circle cx="569.2719972475863" cy="235.9925243242991" r="4.643175392857143" fill="#CFAE58" opacity="0.16245326299833152"/>
  <circle cx="829.4981647040828" cy="540.7114832998911" r="5.132000750284197" fill="#CFAE58" opacity="0.21123062991984773"/>
  <circle cx="401.1938274985024" cy="203.2989668710567" r="4.941625467104069" fill="#CFAE58" opacity="0.17618393466261212"/>
  <circle cx="721.1785776291084" cy="415.74978839550727" r="3.9387279995532944" fill="#CFAE58" opacity="0.14010314759225156"/>
  <circle cx="1069.6846762694474" cy="85.20977402395903" r="2.6581263182610604" fill="#CFAE58" opacity="0.19262543180391176"/>
  <circle cx="527.6489879591908" cy="376.93991238298844" r="4.250794160576771" fill="#CFAE58" opacity="0.12651185049436528"/>
  <circle cx="72.4121612978986" cy="281.87807903256197" r="2.197303506257917" fill="#CFAE58" opacity="0.12009146858784296"/>
  <circle cx="1006.4467864343284" cy="151.0195203082331" r="5.0628324447731" fill="#CFAE58" opacity="0.23219138556840951"/>
  <circle cx="1032.3314631237117" cy="572.9037291080804" r="3.454863745572788" fill="#CFAE58" opacity="0.1529974985612224"/>
  <circle cx="149.72768248355894" cy="44.747146301265246" r="4.048611430011184" fill="#CFAE58" opacity="0.10156363087710835"/>
  <circle cx="859.0118715334472" cy="184.55086085326113" r="3.2820280486537285" fill="#CFAE58" opacity="0.10979067144931084"/>

  <!-- Border with glow -->
  <rect x="40" y="40" width="1120" height="550" fill="none" stroke="url(#goldGradient)" stroke-width="3" rx="12" filter="url(#softGlow)"/>

  <!-- Icon circle with premium background -->
  <circle cx="150" cy="200" r="75" fill="#CFAE58" opacity="0.15" filter="url(#softGlow)"/>
  <circle cx="150" cy="200" r="70" fill="#CFAE58" opacity="0.25"/>
  <text x="150" y="235" font-size="90" text-anchor="middle" fill="#CFAE58" filter="url(#glow)">⚖️</text>

  <!-- Premium logo (crown) with enhanced styling -->
  <g transform="translate(100, 70)">
    <path d="M 30 20 L 40 35 L 35 35 Z M 50 15 L 60 35 L 45 35 Z M 65 20 L 75 35 L 70 35 Z M 30 35 L 75 35 L 73 45 L 32 45 Z"
          fill="url(#goldGradient)" filter="url(#glow)" stroke="#B89842" stroke-width="0.5"/>
    <circle cx="40" cy="25" r="3" fill="#4FD1C5" filter="url(#glow)"/>
    <circle cx="52" cy="20" r="4" fill="#4FD1C5" filter="url(#glow)"/>
    <circle cx="65" cy="25" r="3" fill="#4FD1C5" filter="url(#glow)"/>
  </g>

  <!-- Title with shadow -->
  <text x="280" y="180" font-family="Georgia, serif" font-size="72" font-weight="bold"
        fill="url(#goldGradient)" filter="url(#shadow)">Legal Information</text>

  <!-- Subtitle with subtle glow -->
  <text x="280" y="230" font-family="Arial, sans-serif" font-size="36"
        fill="#D6DEE6" opacity="0.95" filter="url(#softGlow)">Terms, Privacy & Disclosures</text>

  <!-- Brand name with letter spacing -->
  <text x="280" y="300" font-family="Georgia, serif" font-size="32" font-weight="bold"
        fill="#CFAE58" letter-spacing="4" filter="url(#glow)">ROYAL KETA</text>

  <!-- Russian tagline -->
  <text x="280" y="340" font-family="Arial, sans-serif" font-size="22" font-style="italic"
        fill="#8B95A1" opacity="0.8">От икринки к королевской</text>

  <!-- Location -->
  <text x="280" y="380" font-family="Arial, sans-serif" font-size="20"
        fill="#8B95A1" opacity="0.7">Невельский район, Сахалин</text>

  <!-- Website with glow -->
  <text x="100" y="570" font-family="Arial, sans-serif" font-size="30" font-weight="bold"
        fill="#4FD1C5" filter="url(#glow)">royalketa.com</text>

  <!-- Enhanced decorative salmon silhouette -->
  <g transform="translate(950, 480)" opacity="0.2" filter="url(#softGlow)">
    <ellipse cx="0" cy="0" rx="90" ry="35" fill="#CFAE58"/>
    <path d="M 90 0 L 120 -18 L 130 0 L 120 18 Z" fill="#CFAE58"/>
    <path d="M -25 -35 L 0 -45 L 25 -35 Z" fill="#CFAE58"/>
    <ellipse cx="-50" cy="0" rx="15" ry="12" fill="#0B0F14"/>
  </g>

  <!-- Additional decorative caviar clusters -->
  <g opacity="0.2">
    <circle cx="1050" cy="120" r="6" fill="#CFAE58"/>
    <circle cx="1065" cy="115" r="5" fill="#CFAE58"/>
    <circle cx="1058" cy="130" r="4" fill="#CFAE58"/>
    <circle cx="150" cy="500" r="5" fill="#4FD1C5"/>
    <circle cx="165" cy="508" r="4" fill="#4FD1C5"/>
    <circle cx="140" cy="512" r="5" fill="#4FD1C5"/>
  </g>
</svg>