<svg width="1200" height="630" xmlns="http://www.w3.org/2000/svg">
  <defs>
    <linearGradient id="bgGradient" x1="0%" y1="0%" x2="100%" y2="100%">
      <stop offset="0%" style="stop-color:#0B0F14;stop-opacity:1" />
      <stop offset="50%" style="stop-color:#0F1619;stop-opacity:1" />
      <stop offset="100%" style="stop-color:#0F1922;stop-opacity:1" />
    </linearGradient>
    <linearGradient id="goldGradient" x1="0%" y1="0%" x2="100%" y2="0%">
      <stop offset="0%" style="stop-color:#E5D596;stop-opacity:1" />
      <stop offset="50%" style="stop-color:#CFAE58;stop-opacity:1" />
      <stop offset="100%" style="stop-color:#B89842;stop-opacity:1" />
    </linearGradient>
    <radialGradient id="oceanGradient" cx="50%" cy="50%" r="50%">
      <stop offset="0%" style="stop-color:#4FD1C5;stop-opacity:0.3" />
      <stop offset="100%" style="stop-color:#1E90A0;stop-opacity:0.05" />
    </radialGradient>
    <filter id="glow">
      <feGaussianBlur stdDeviation="5" result="coloredBlur"/>
      <feMerge>
        <feMergeNode in="coloredBlur"/>
        <feMergeNode in="SourceGraphic"/>
      </feMerge>
    </filter>
    <filter id="softGlow">
      <feGaussianBlur stdDeviation="8" result="coloredBlur"/>
      <feMerge>
        <feMergeNode in="coloredBlur"/>
        <feMergeNode in="SourceGraphic"/>
      </feMerge>
    </filter>
    <filter id="shadow">
      <feDropShadow dx="0" dy="4" stdDeviation="8" flood-color="#000000" flood-opacity="0.5"/>
    </filter>
  </defs>

  <!-- Background -->
  <rect width="1200" height="630" fill="url(#bgGradient)"/>

  <!-- Decorative ocean gradients -->
  <ellipse cx="1000" cy="150" rx="300" ry="200" fill="url(#oceanGradient)" opacity="0.4"/>
  <ellipse cx="200" cy="530" rx="250" ry="180" fill="url(#oceanGradient)" opacity="0.3"/>

  <!-- Wave patterns -->
  <path d="M 0 400 Q 300 350 600 400 T 1200 400 L 1200 630 L 0 630 Z" fill="#1E90A0" opacity="0.08"/>
  <path d="M 0 450 Q 250 420 500 450 T 1000 450 T 1200 450 L 1200 630 L 0 630 Z" fill="#4FD1C5" opacity="0.05"/>

  <!-- Caviar roe particles -->
  <circle cx="723.1964690607612" cy="162.67923188368485" r="3.299364349763319" fill="#CFAE58" opacity="0.12891557443092727"/>
  <circle cx="329.0956223017658" cy="174.17517927043244" r="5.556413120472925" fill="#CFAE58" opacity="0.1394744080036819"/>
  <circle cx="635.5890705760083" cy="231.12053147860485" r="5.232368030837958" fill="#CFAE58" opacity="0.17088584758875525"/>
  <circle cx="546.0011614714925" cy="381.58294355568495" r="4.696625359133284" fill="#CFAE58" opacity="0.20544220538131902"/>
  <circle cx="599.3883673555287" cy="21.48181602124763" r="2.7762686140660677" fill="#CFAE58" opacity="0.18966543600500865"/>
  <circle cx="90.41372307234026" cy="144.303529907634" r="2.2432976485639706" fill="#CFAE58" opacity="0.14234134238999654"/>
  <circle cx="1097.1109884975313" cy="570.7148434416237" r="4.409651562247978" fill="#CFAE58" opacity="0.213412429135304"/>
  <circle cx="895.069298126729" cy="521.1300021548994" r="4.088882402520538" fill="#CFAE58" opacity="0.19744849690974367"/>
  <circle cx="754.4129150311182" cy="442.47703630065183" r="4.9342063236388345" fill="#CFAE58" opacity="0.17403403751353924"/>
  <circle cx="325.3969436350281" cy="545.7794986202024" r="3.073017053320117" fill="#CFAE58" opacity="0.15763641562425598"/>
  <circle cx="1005.8237942223468" cy="525.7579815073487" r="2.35533193785928" fill="#CFAE58" opacity="0.1494477675871646"/>
  <circle cx="575.9444073013303" cy="187.57884650581028" r="3.8686357763465744" fill="#CFAE58" opacity="0.1234065671705626"/>
  <circle cx="639.3039956850815" cy="533.1835333574342" r="4.689697259876622" fill="#CFAE58" opacity="0.12382367300848261"/>
  <circle cx="1000.1997928613122" cy="44.93057960054457" r="3.052389391668381" fill="#CFAE58" opacity="0.21355570970371796"/>
  <circle cx="951.7706805530373" cy="422.1701654103862" r="2.520771149220912" fill="#CFAE58" opacity="0.13170763976665312"/>
  <circle cx="441.4269857402878" cy="115.86197674929626" r="4.360163640605869" fill="#CFAE58" opacity="0.22750040377775027"/>
  <circle cx="138.949631448942" cy="546.0736124045786" r="5.689414583832128" fill="#CFAE58" opacity="0.15937561984301782"/>
  <circle cx="996.6066407996801" cy="561.748963659269" r="3.5050994465982197" fill="#CFAE58" opacity="0.1338928891680226"/>
  <circle cx="1078.2794022219414" cy="60.62918718787707" r="4.472341240501877" fill="#CFAE58" opacity="0.2182358379933475"/>
  <circle cx="370.50548995563565" cy="492.4201135681928" r="4.75150786161474" fill="#CFAE58" opacity="0.20484026895805763"/>
  <circle cx="485.8159154577583" cy="384.14374356672243" r="5.090307828936314" fill="#CFAE58" opacity="0.19636749608851695"/>
  <circle cx="722.4074339547813" cy="519.6908442891448" r="4.848572730081273" fill="#CFAE58" opacity="0.21503162317827101"/>
  <circle cx="931.2353190259066" cy="18.04089355370448" r="2.00309551099588" fill="#CFAE58" opacity="0.19510406217276083"/>
  <circle cx="687.0732580853064" cy="22.310298947681485" r="3.973297547150824" fill="#CFAE58" opacity="0.21200035422804106"/>
  <circle cx="263.99330715402573" cy="126.80051866713556" r="3.8128192421485068" fill="#CFAE58" opacity="0.10771584436237752"/>
  <circle cx="1009.4639799299582" cy="340.9710704452886" r="5.054965314129391" fill="#CFAE58" opacity="0.11846218713634989"/>
  <circle cx="572.1946690751921" cy="480.04613277725434" r="3.0721921876474676" fill="#CFAE58" opacity="0.11184307176521771"/>
  <circle cx="157.9125082656653" cy="264.6551253140156" r="4.360805923451576" fill="#CFAE58" opacity="0.14972171170695628"/>
  <circle cx="1067.8271949317605" cy="376.0305580815198" r="5.775182028515948" fill="#CFAE58" opacity="0.12085788176288896"/>
  <circle cx="21.93286493245359" cy="50.21206215619331" r="2.1130953281425353" fill="#CFAE58" opacity="0.19945047610996758"/>

  <!-- Border with glow -->
  <rect x="40" y="40" width="1120" height="550" fill="none" stroke="url(#goldGradient)" stroke-width="3" rx="12" filter="url(#softGlow)"/>

  <!-- Icon circle with premium background -->
  <circle cx="150" cy="200" r="75" fill="#CFAE58" opacity="0.15" filter="url(#softGlow)"/>
  <circle cx="150" cy="200" r="70" fill="#CFAE58" opacity="0.25"/>
  <text x="150" y="235" font-size="90" text-anchor="middle" fill="#CFAE58" filter="url(#glow)">⚖️</text>

  <!-- Premium logo (crown) with enhanced styling -->
  <g transform="translate(100, 70)">
    <path d="M 30 20 L 40 35 L 35 35 Z M 50 15 L 60 35 L 45 35 Z M 65 20 L 75 35 L 70 35 Z M 30 35 L 75 35 L 73 45 L 32 45 Z"
          fill="url(#goldGradient)" filter="url(#glow)" stroke="#B89842" stroke-width="0.5"/>
    <circle cx="40" cy="25" r="3" fill="#4FD1C5" filter="url(#glow)"/>
    <circle cx="52" cy="20" r="4" fill="#4FD1C5" filter="url(#glow)"/>
    <circle cx="65" cy="25" r="3" fill="#4FD1C5" filter="url(#glow)"/>
  </g>

  <!-- Title with shadow -->
  <text x="280" y="180" font-family="Georgia, serif" font-size="72" font-weight="bold"
        fill="url(#goldGradient)" filter="url(#shadow)">Legal Information</text>

  <!-- Subtitle with subtle glow -->
  <text x="280" y="230" font-family="Arial, sans-serif" font-size="36"
        fill="#D6DEE6" opacity="0.95" filter="url(#softGlow)">Terms, Privacy &amp; Disclosures</text>

  <!-- Brand name with letter spacing -->
  <text x="280" y="300" font-family="Georgia, serif" font-size="32" font-weight="bold"
        fill="#CFAE58" letter-spacing="4" filter="url(#glow)">ROYAL KETA</text>

  <!-- Russian tagline -->
  <text x="280" y="340" font-family="Arial, sans-serif" font-size="22" font-style="italic"
        fill="#8B95A1" opacity="0.8">От икринки к королевской</text>

  <!-- Location -->
  <text x="280" y="380" font-family="Arial, sans-serif" font-size="20"
        fill="#8B95A1" opacity="0.7">Невельский район, Сахалин</text>

  <!-- Website with glow -->
  <text x="100" y="570" font-family="Arial, sans-serif" font-size="30" font-weight="bold"
        fill="#4FD1C5" filter="url(#glow)">royalketa.com</text>

  <!-- Enhanced decorative salmon silhouette -->
  <g transform="translate(950, 480)" opacity="0.2" filter="url(#softGlow)">
    <ellipse cx="0" cy="0" rx="90" ry="35" fill="#CFAE58"/>
    <path d="M 90 0 L 120 -18 L 130 0 L 120 18 Z" fill="#CFAE58"/>
    <path d="M -25 -35 L 0 -45 L 25 -35 Z" fill="#CFAE58"/>
    <ellipse cx="-50" cy="0" rx="15" ry="12" fill="#0B0F14"/>
  </g>

  <!-- Additional decorative caviar clusters -->
  <g opacity="0.2">
    <circle cx="1050" cy="120" r="6" fill="#CFAE58"/>
    <circle cx="1065" cy="115" r="5" fill="#CFAE58"/>
    <circle cx="1058" cy="130" r="4" fill="#CFAE58"/>
    <circle cx="150" cy="500" r="5" fill="#4FD1C5"/>
    <circle cx="165" cy="508" r="4" fill="#4FD1C5"/>
    <circle cx="140" cy="512" r="5" fill="#4FD1C5"/>
  </g>
</svg>