<svg width="1200" height="630" xmlns="http://www.w3.org/2000/svg">
  <defs>
    <linearGradient id="bgGradient" x1="0%" y1="0%" x2="100%" y2="100%">
      <stop offset="0%" style="stop-color:#0B0F14;stop-opacity:1" />
      <stop offset="50%" style="stop-color:#0F1619;stop-opacity:1" />
      <stop offset="100%" style="stop-color:#0F1922;stop-opacity:1" />
    </linearGradient>
    <linearGradient id="goldGradient" x1="0%" y1="0%" x2="100%" y2="0%">
      <stop offset="0%" style="stop-color:#E5D596;stop-opacity:1" />
      <stop offset="50%" style="stop-color:#CFAE58;stop-opacity:1" />
      <stop offset="100%" style="stop-color:#B89842;stop-opacity:1" />
    </linearGradient>
    <radialGradient id="oceanGradient" cx="50%" cy="50%" r="50%">
      <stop offset="0%" style="stop-color:#4FD1C5;stop-opacity:0.3" />
      <stop offset="100%" style="stop-color:#1E90A0;stop-opacity:0.05" />
    </radialGradient>
    <filter id="glow">
      <feGaussianBlur stdDeviation="5" result="coloredBlur"/>
      <feMerge>
        <feMergeNode in="coloredBlur"/>
        <feMergeNode in="SourceGraphic"/>
      </feMerge>
    </filter>
    <filter id="softGlow">
      <feGaussianBlur stdDeviation="8" result="coloredBlur"/>
      <feMerge>
        <feMergeNode in="coloredBlur"/>
        <feMergeNode in="SourceGraphic"/>
      </feMerge>
    </filter>
    <filter id="shadow">
      <feDropShadow dx="0" dy="4" stdDeviation="8" flood-color="#000000" flood-opacity="0.5"/>
    </filter>
  </defs>

  <!-- Background -->
  <rect width="1200" height="630" fill="url(#bgGradient)"/>

  <!-- Decorative ocean gradients -->
  <ellipse cx="1000" cy="150" rx="300" ry="200" fill="url(#oceanGradient)" opacity="0.4"/>
  <ellipse cx="200" cy="530" rx="250" ry="180" fill="url(#oceanGradient)" opacity="0.3"/>

  <!-- Wave patterns -->
  <path d="M 0 400 Q 300 350 600 400 T 1200 400 L 1200 630 L 0 630 Z" fill="#1E90A0" opacity="0.08"/>
  <path d="M 0 450 Q 250 420 500 450 T 1000 450 T 1200 450 L 1200 630 L 0 630 Z" fill="#4FD1C5" opacity="0.05"/>

  <!-- Caviar roe particles -->
  <circle cx="1198.4012184986475" cy="500.508688149521" r="5.658492026716542" fill="#CFAE58" opacity="0.1268865534562412"/>
  <circle cx="0.2646132086887576" cy="307.1367096505199" r="5.110296122375932" fill="#CFAE58" opacity="0.20007565140557604"/>
  <circle cx="665.81052158447" cy="29.590442223149584" r="5.978863471493082" fill="#CFAE58" opacity="0.11897256654416251"/>
  <circle cx="959.5263107462705" cy="415.9140040666643" r="4.363835310522112" fill="#CFAE58" opacity="0.20909825296657591"/>
  <circle cx="676.0415181055095" cy="613.2833659454534" r="4.296187870156347" fill="#CFAE58" opacity="0.1674312728106141"/>
  <circle cx="1059.361410207866" cy="523.2290689244064" r="4.22140442446998" fill="#CFAE58" opacity="0.22278424281841208"/>
  <circle cx="45.26701013871693" cy="571.0322926707717" r="4.321659783305699" fill="#CFAE58" opacity="0.2102867618658707"/>
  <circle cx="423.8252804269161" cy="538.527388448512" r="5.339300790869809" fill="#CFAE58" opacity="0.21678067651897104"/>
  <circle cx="723.6788082543743" cy="365.0933701734141" r="3.3520070775354904" fill="#CFAE58" opacity="0.12490590049611633"/>
  <circle cx="410.5859999927181" cy="30.083957737038535" r="3.1868996924604645" fill="#CFAE58" opacity="0.22566137735663722"/>
  <circle cx="858.2363843489386" cy="188.5353282899769" r="3.865567946678162" fill="#CFAE58" opacity="0.22032757932110125"/>
  <circle cx="274.5511297185332" cy="8.400739670994788" r="4.803715487096582" fill="#CFAE58" opacity="0.18613340503777628"/>
  <circle cx="620.1789668099052" cy="103.86693025434703" r="5.316660631904478" fill="#CFAE58" opacity="0.20766044178518372"/>
  <circle cx="71.08889938956571" cy="420.85884549346474" r="2.6501319663799974" fill="#CFAE58" opacity="0.14455181015132"/>
  <circle cx="544.2544081434431" cy="441.64504564317264" r="5.418983514864594" fill="#CFAE58" opacity="0.18862329713777176"/>
  <circle cx="386.69731017060707" cy="338.45515713837244" r="5.515243163338966" fill="#CFAE58" opacity="0.22811806862130946"/>
  <circle cx="54.09567756362668" cy="106.40565459752278" r="2.8943744181580637" fill="#CFAE58" opacity="0.16235813147572978"/>
  <circle cx="1007.6350482114873" cy="479.22052626628505" r="5.629228584527257" fill="#CFAE58" opacity="0.23716786063080847"/>
  <circle cx="185.3345128710469" cy="340.7130929117438" r="4.3127952702337895" fill="#CFAE58" opacity="0.13385620394784503"/>
  <circle cx="861.3063960037455" cy="144.53739821199463" r="5.169453754768635" fill="#CFAE58" opacity="0.14684357789135014"/>
  <circle cx="310.2663199075235" cy="615.1852549323562" r="3.8431443241133856" fill="#CFAE58" opacity="0.1769835661698598"/>
  <circle cx="637.9292241379011" cy="585.5352649103643" r="4.6016701524497545" fill="#CFAE58" opacity="0.1377201922512609"/>
  <circle cx="1.3262130303577813" cy="571.9753067596976" r="5.757559344814311" fill="#CFAE58" opacity="0.19064742643213212"/>
  <circle cx="1012.9378364489276" cy="46.78810249326136" r="5.299817130236035" fill="#CFAE58" opacity="0.24854857160571991"/>
  <circle cx="1160.4675075846949" cy="258.1908850224181" r="2.8236654620575194" fill="#CFAE58" opacity="0.18214713598809745"/>
  <circle cx="1100.5071145998345" cy="36.29713137859706" r="5.372132874392098" fill="#CFAE58" opacity="0.14942920598258577"/>
  <circle cx="955.7568001203795" cy="510.00979401320103" r="2.13026382878037" fill="#CFAE58" opacity="0.10125514454987777"/>
  <circle cx="572.3863276166493" cy="15.283714554008046" r="4.281825032371609" fill="#CFAE58" opacity="0.22389179370162918"/>
  <circle cx="331.6181294476831" cy="245.40789826388968" r="4.964414404228811" fill="#CFAE58" opacity="0.23255591813213425"/>
  <circle cx="359.9966633923136" cy="490.6830155649516" r="2.515899499266034" fill="#CFAE58" opacity="0.1262852154717704"/>

  <!-- Border with glow -->
  <rect x="40" y="40" width="1120" height="550" fill="none" stroke="url(#goldGradient)" stroke-width="3" rx="12" filter="url(#softGlow)"/>

  <!-- Icon circle with premium background -->
  <circle cx="150" cy="200" r="75" fill="#CFAE58" opacity="0.15" filter="url(#softGlow)"/>
  <circle cx="150" cy="200" r="70" fill="#CFAE58" opacity="0.25"/>
  <text x="150" y="235" font-size="90" text-anchor="middle" fill="#CFAE58" filter="url(#glow)">⚖️</text>

  <!-- Premium logo (crown) with enhanced styling -->
  <g transform="translate(100, 70)">
    <path d="M 30 20 L 40 35 L 35 35 Z M 50 15 L 60 35 L 45 35 Z M 65 20 L 75 35 L 70 35 Z M 30 35 L 75 35 L 73 45 L 32 45 Z"
          fill="url(#goldGradient)" filter="url(#glow)" stroke="#B89842" stroke-width="0.5"/>
    <circle cx="40" cy="25" r="3" fill="#4FD1C5" filter="url(#glow)"/>
    <circle cx="52" cy="20" r="4" fill="#4FD1C5" filter="url(#glow)"/>
    <circle cx="65" cy="25" r="3" fill="#4FD1C5" filter="url(#glow)"/>
  </g>

  <!-- Title with shadow -->
  <text x="280" y="180" font-family="Georgia, serif" font-size="72" font-weight="bold"
        fill="url(#goldGradient)" filter="url(#shadow)">Legal Information</text>

  <!-- Subtitle with subtle glow -->
  <text x="280" y="230" font-family="Arial, sans-serif" font-size="36"
        fill="#D6DEE6" opacity="0.95" filter="url(#softGlow)">Terms, Privacy & Disclosures</text>

  <!-- Brand name with letter spacing -->
  <text x="280" y="300" font-family="Georgia, serif" font-size="32" font-weight="bold"
        fill="#CFAE58" letter-spacing="4" filter="url(#glow)">ROYAL KETA</text>

  <!-- Russian tagline -->
  <text x="280" y="340" font-family="Arial, sans-serif" font-size="22" font-style="italic"
        fill="#8B95A1" opacity="0.8">От икринки к королевской</text>

  <!-- Location -->
  <text x="280" y="380" font-family="Arial, sans-serif" font-size="20"
        fill="#8B95A1" opacity="0.7">Невельский район, Сахалин</text>

  <!-- Website with glow -->
  <text x="100" y="570" font-family="Arial, sans-serif" font-size="30" font-weight="bold"
        fill="#4FD1C5" filter="url(#glow)">royalketa.com</text>

  <!-- Enhanced decorative salmon silhouette -->
  <g transform="translate(950, 480)" opacity="0.2" filter="url(#softGlow)">
    <ellipse cx="0" cy="0" rx="90" ry="35" fill="#CFAE58"/>
    <path d="M 90 0 L 120 -18 L 130 0 L 120 18 Z" fill="#CFAE58"/>
    <path d="M -25 -35 L 0 -45 L 25 -35 Z" fill="#CFAE58"/>
    <ellipse cx="-50" cy="0" rx="15" ry="12" fill="#0B0F14"/>
  </g>

  <!-- Additional decorative caviar clusters -->
  <g opacity="0.2">
    <circle cx="1050" cy="120" r="6" fill="#CFAE58"/>
    <circle cx="1065" cy="115" r="5" fill="#CFAE58"/>
    <circle cx="1058" cy="130" r="4" fill="#CFAE58"/>
    <circle cx="150" cy="500" r="5" fill="#4FD1C5"/>
    <circle cx="165" cy="508" r="4" fill="#4FD1C5"/>
    <circle cx="140" cy="512" r="5" fill="#4FD1C5"/>
  </g>
</svg>