<svg width="1200" height="630" xmlns="http://www.w3.org/2000/svg">
  <defs>
    <linearGradient id="bgGradient" x1="0%" y1="0%" x2="100%" y2="100%">
      <stop offset="0%" style="stop-color:#0B0F14;stop-opacity:1" />
      <stop offset="50%" style="stop-color:#0F1619;stop-opacity:1" />
      <stop offset="100%" style="stop-color:#0F1922;stop-opacity:1" />
    </linearGradient>
    <linearGradient id="goldGradient" x1="0%" y1="0%" x2="100%" y2="0%">
      <stop offset="0%" style="stop-color:#E5D596;stop-opacity:1" />
      <stop offset="50%" style="stop-color:#CFAE58;stop-opacity:1" />
      <stop offset="100%" style="stop-color:#B89842;stop-opacity:1" />
    </linearGradient>
    <radialGradient id="oceanGradient" cx="50%" cy="50%" r="50%">
      <stop offset="0%" style="stop-color:#4FD1C5;stop-opacity:0.3" />
      <stop offset="100%" style="stop-color:#1E90A0;stop-opacity:0.05" />
    </radialGradient>
    <filter id="glow">
      <feGaussianBlur stdDeviation="5" result="coloredBlur"/>
      <feMerge>
        <feMergeNode in="coloredBlur"/>
        <feMergeNode in="SourceGraphic"/>
      </feMerge>
    </filter>
    <filter id="softGlow">
      <feGaussianBlur stdDeviation="8" result="coloredBlur"/>
      <feMerge>
        <feMergeNode in="coloredBlur"/>
        <feMergeNode in="SourceGraphic"/>
      </feMerge>
    </filter>
    <filter id="shadow">
      <feDropShadow dx="0" dy="4" stdDeviation="8" flood-color="#000000" flood-opacity="0.5"/>
    </filter>
  </defs>

  <!-- Background -->
  <rect width="1200" height="630" fill="url(#bgGradient)"/>

  <!-- Decorative ocean gradients -->
  <ellipse cx="1000" cy="150" rx="300" ry="200" fill="url(#oceanGradient)" opacity="0.4"/>
  <ellipse cx="200" cy="530" rx="250" ry="180" fill="url(#oceanGradient)" opacity="0.3"/>

  <!-- Wave patterns -->
  <path d="M 0 400 Q 300 350 600 400 T 1200 400 L 1200 630 L 0 630 Z" fill="#1E90A0" opacity="0.08"/>
  <path d="M 0 450 Q 250 420 500 450 T 1000 450 T 1200 450 L 1200 630 L 0 630 Z" fill="#4FD1C5" opacity="0.05"/>

  <!-- Caviar roe particles -->
  <circle cx="1013.9449848486317" cy="537.0953751720338" r="3.1737872537792375" fill="#CFAE58" opacity="0.17086469376131141"/>
  <circle cx="528.9994615342054" cy="343.06530035969314" r="3.8088052431041723" fill="#CFAE58" opacity="0.12144391882951866"/>
  <circle cx="8.229582259619539" cy="153.32012100674655" r="2.9968152051411487" fill="#CFAE58" opacity="0.18645357913633553"/>
  <circle cx="1169.4333075946547" cy="562.6372099258921" r="2.7471505143582537" fill="#CFAE58" opacity="0.20433847560004875"/>
  <circle cx="718.6889673958573" cy="52.823732269890016" r="3.5830511626987143" fill="#CFAE58" opacity="0.12168650625829938"/>
  <circle cx="15.763272563099173" cy="371.9061525126645" r="3.3541039282764697" fill="#CFAE58" opacity="0.22554871607230567"/>
  <circle cx="432.1097177031531" cy="216.45599548800334" r="4.680371106261609" fill="#CFAE58" opacity="0.203260850273269"/>
  <circle cx="303.370765056274" cy="137.21557383167521" r="5.227170336876951" fill="#CFAE58" opacity="0.213068542933624"/>
  <circle cx="684.5888058528873" cy="478.5695488034216" r="4.127363131107405" fill="#CFAE58" opacity="0.22963882547825354"/>
  <circle cx="691.6529813343934" cy="319.3456041220518" r="3.3288303748919246" fill="#CFAE58" opacity="0.13400198696990992"/>
  <circle cx="1191.0806989753949" cy="487.3946505902283" r="3.111209629188064" fill="#CFAE58" opacity="0.17913698596721916"/>
  <circle cx="783.399067367521" cy="263.42457591688566" r="4.612922391044108" fill="#CFAE58" opacity="0.14850275434788782"/>
  <circle cx="578.5223803968629" cy="246.53499612096806" r="5.338807483974212" fill="#CFAE58" opacity="0.19617920669186667"/>
  <circle cx="986.2127266435955" cy="271.44085755262523" r="5.195956439959946" fill="#CFAE58" opacity="0.1639133717740074"/>
  <circle cx="250.7286903764495" cy="448.77719714803294" r="3.0003370105177054" fill="#CFAE58" opacity="0.10701791031567817"/>
  <circle cx="128.1851742338386" cy="44.62687327397994" r="5.6100768715964975" fill="#CFAE58" opacity="0.14180408174465747"/>
  <circle cx="830.1658726969375" cy="581.9411307033367" r="3.6873417918090734" fill="#CFAE58" opacity="0.1984684738934574"/>
  <circle cx="207.64259383260168" cy="39.30932686901104" r="3.8463417694384168" fill="#CFAE58" opacity="0.13437705511267573"/>
  <circle cx="1064.1529173871372" cy="519.1734997812102" r="3.7932678520970984" fill="#CFAE58" opacity="0.1530603166722142"/>
  <circle cx="480.03091409885764" cy="416.02360116752834" r="4.4572731594563075" fill="#CFAE58" opacity="0.13726564728480098"/>
  <circle cx="158.12151620999225" cy="30.15783014900683" r="5.336709962154265" fill="#CFAE58" opacity="0.22324788055399453"/>
  <circle cx="567.5057166010567" cy="50.03583910620263" r="5.808697042085217" fill="#CFAE58" opacity="0.19307056916353027"/>
  <circle cx="534.2672986489505" cy="359.9551044259845" r="4.290687294942752" fill="#CFAE58" opacity="0.19273404394779597"/>
  <circle cx="728.0011070312075" cy="364.8951599090573" r="2.1126508866247984" fill="#CFAE58" opacity="0.15541252143783707"/>
  <circle cx="951.6688689407692" cy="21.55495371731373" r="3.0242507500424542" fill="#CFAE58" opacity="0.21649253179477795"/>
  <circle cx="853.1238838857281" cy="136.20526534212726" r="2.4903824883882217" fill="#CFAE58" opacity="0.1678184811621397"/>
  <circle cx="142.87797658842942" cy="294.4694894592514" r="5.702900657773261" fill="#CFAE58" opacity="0.2267243670584067"/>
  <circle cx="216.20780526387034" cy="36.29664808886038" r="4.16854365619232" fill="#CFAE58" opacity="0.1978946770116355"/>
  <circle cx="596.3668332717086" cy="21.080325088542274" r="3.9906516239251104" fill="#CFAE58" opacity="0.17497444804835455"/>
  <circle cx="1073.9557595304427" cy="97.91537230479669" r="4.6560341923756425" fill="#CFAE58" opacity="0.1451486187441728"/>

  <!-- Border with glow -->
  <rect x="40" y="40" width="1120" height="550" fill="none" stroke="url(#goldGradient)" stroke-width="3" rx="12" filter="url(#softGlow)"/>

  <!-- Icon circle with premium background -->
  <circle cx="150" cy="200" r="75" fill="#CFAE58" opacity="0.15" filter="url(#softGlow)"/>
  <circle cx="150" cy="200" r="70" fill="#CFAE58" opacity="0.25"/>
  <text x="150" y="235" font-size="90" text-anchor="middle" fill="#CFAE58" filter="url(#glow)">⚖️</text>

  <!-- Premium logo (crown) with enhanced styling -->
  <g transform="translate(100, 70)">
    <path d="M 30 20 L 40 35 L 35 35 Z M 50 15 L 60 35 L 45 35 Z M 65 20 L 75 35 L 70 35 Z M 30 35 L 75 35 L 73 45 L 32 45 Z"
          fill="url(#goldGradient)" filter="url(#glow)" stroke="#B89842" stroke-width="0.5"/>
    <circle cx="40" cy="25" r="3" fill="#4FD1C5" filter="url(#glow)"/>
    <circle cx="52" cy="20" r="4" fill="#4FD1C5" filter="url(#glow)"/>
    <circle cx="65" cy="25" r="3" fill="#4FD1C5" filter="url(#glow)"/>
  </g>

  <!-- Title with shadow -->
  <text x="280" y="180" font-family="Georgia, serif" font-size="72" font-weight="bold"
        fill="url(#goldGradient)" filter="url(#shadow)">Legal Information</text>

  <!-- Subtitle with subtle glow -->
  <text x="280" y="230" font-family="Arial, sans-serif" font-size="36"
        fill="#D6DEE6" opacity="0.95" filter="url(#softGlow)">Terms, Privacy &amp; Disclosures</text>

  <!-- Brand name with letter spacing -->
  <text x="280" y="300" font-family="Georgia, serif" font-size="32" font-weight="bold"
        fill="#CFAE58" letter-spacing="4" filter="url(#glow)">ROYAL KETA</text>

  <!-- Russian tagline -->
  <text x="280" y="340" font-family="Arial, sans-serif" font-size="22" font-style="italic"
        fill="#8B95A1" opacity="0.8">От икринки к королевской</text>

  <!-- Location -->
  <text x="280" y="380" font-family="Arial, sans-serif" font-size="20"
        fill="#8B95A1" opacity="0.7">Невельский район, Сахалин</text>

  <!-- Website with glow -->
  <text x="100" y="570" font-family="Arial, sans-serif" font-size="30" font-weight="bold"
        fill="#4FD1C5" filter="url(#glow)">royalketa.com</text>

  <!-- Enhanced decorative salmon silhouette -->
  <g transform="translate(950, 480)" opacity="0.2" filter="url(#softGlow)">
    <ellipse cx="0" cy="0" rx="90" ry="35" fill="#CFAE58"/>
    <path d="M 90 0 L 120 -18 L 130 0 L 120 18 Z" fill="#CFAE58"/>
    <path d="M -25 -35 L 0 -45 L 25 -35 Z" fill="#CFAE58"/>
    <ellipse cx="-50" cy="0" rx="15" ry="12" fill="#0B0F14"/>
  </g>

  <!-- Additional decorative caviar clusters -->
  <g opacity="0.2">
    <circle cx="1050" cy="120" r="6" fill="#CFAE58"/>
    <circle cx="1065" cy="115" r="5" fill="#CFAE58"/>
    <circle cx="1058" cy="130" r="4" fill="#CFAE58"/>
    <circle cx="150" cy="500" r="5" fill="#4FD1C5"/>
    <circle cx="165" cy="508" r="4" fill="#4FD1C5"/>
    <circle cx="140" cy="512" r="5" fill="#4FD1C5"/>
  </g>
</svg>