<svg width="1200" height="630" xmlns="http://www.w3.org/2000/svg">
  <defs>
    <linearGradient id="bgGradient" x1="0%" y1="0%" x2="100%" y2="100%">
      <stop offset="0%" style="stop-color:#0B0F14;stop-opacity:1" />
      <stop offset="50%" style="stop-color:#0F1619;stop-opacity:1" />
      <stop offset="100%" style="stop-color:#0F1922;stop-opacity:1" />
    </linearGradient>
    <linearGradient id="goldGradient" x1="0%" y1="0%" x2="100%" y2="0%">
      <stop offset="0%" style="stop-color:#E5D596;stop-opacity:1" />
      <stop offset="50%" style="stop-color:#CFAE58;stop-opacity:1" />
      <stop offset="100%" style="stop-color:#B89842;stop-opacity:1" />
    </linearGradient>
    <radialGradient id="oceanGradient" cx="50%" cy="50%" r="50%">
      <stop offset="0%" style="stop-color:#4FD1C5;stop-opacity:0.3" />
      <stop offset="100%" style="stop-color:#1E90A0;stop-opacity:0.05" />
    </radialGradient>
    <filter id="glow">
      <feGaussianBlur stdDeviation="5" result="coloredBlur"/>
      <feMerge>
        <feMergeNode in="coloredBlur"/>
        <feMergeNode in="SourceGraphic"/>
      </feMerge>
    </filter>
    <filter id="softGlow">
      <feGaussianBlur stdDeviation="8" result="coloredBlur"/>
      <feMerge>
        <feMergeNode in="coloredBlur"/>
        <feMergeNode in="SourceGraphic"/>
      </feMerge>
    </filter>
    <filter id="shadow">
      <feDropShadow dx="0" dy="4" stdDeviation="8" flood-color="#000000" flood-opacity="0.5"/>
    </filter>
  </defs>

  <!-- Background -->
  <rect width="1200" height="630" fill="url(#bgGradient)"/>

  <!-- Decorative ocean gradients -->
  <ellipse cx="1000" cy="150" rx="300" ry="200" fill="url(#oceanGradient)" opacity="0.4"/>
  <ellipse cx="200" cy="530" rx="250" ry="180" fill="url(#oceanGradient)" opacity="0.3"/>

  <!-- Wave patterns -->
  <path d="M 0 400 Q 300 350 600 400 T 1200 400 L 1200 630 L 0 630 Z" fill="#1E90A0" opacity="0.08"/>
  <path d="M 0 450 Q 250 420 500 450 T 1000 450 T 1200 450 L 1200 630 L 0 630 Z" fill="#4FD1C5" opacity="0.05"/>

  <!-- Caviar roe particles -->
  <circle cx="565.2969010725083" cy="419.7655636009921" r="5.846626825904973" fill="#CFAE58" opacity="0.20809538174258546"/>
  <circle cx="308.8381378232662" cy="410.9376126215503" r="3.1519535456369665" fill="#CFAE58" opacity="0.18954425097191963"/>
  <circle cx="388.39141303579083" cy="84.33467200451199" r="4.067403295657831" fill="#CFAE58" opacity="0.10733633636748334"/>
  <circle cx="218.36695424476824" cy="227.8487683981811" r="2.448787418626309" fill="#CFAE58" opacity="0.1738049192719092"/>
  <circle cx="404.10493135683316" cy="388.6250279307216" r="3.730454276090242" fill="#CFAE58" opacity="0.17213861106084477"/>
  <circle cx="144.12332202132774" cy="237.56803902713713" r="3.857249753396986" fill="#CFAE58" opacity="0.18338196743991883"/>
  <circle cx="741.2108517526078" cy="316.8722564922539" r="4.086264422806652" fill="#CFAE58" opacity="0.24549027660674064"/>
  <circle cx="518.5482610062325" cy="501.5530287190175" r="3.6323441512206385" fill="#CFAE58" opacity="0.10254646520593091"/>
  <circle cx="749.325077971677" cy="315.7646952165017" r="4.644209725186423" fill="#CFAE58" opacity="0.12738326246439202"/>
  <circle cx="330.20950664232333" cy="333.65431893739697" r="4.393495725076554" fill="#CFAE58" opacity="0.10436037959004892"/>
  <circle cx="720.7985443661098" cy="316.98179662269644" r="3.7657057792694175" fill="#CFAE58" opacity="0.20212286185847006"/>
  <circle cx="1142.8437958593552" cy="576.5316655887261" r="3.3938184990489413" fill="#CFAE58" opacity="0.20123306138243868"/>
  <circle cx="652.0117515212964" cy="336.4603306818752" r="5.344736974110048" fill="#CFAE58" opacity="0.17033667834266436"/>
  <circle cx="505.33372490120996" cy="597.2217875389588" r="4.067076260525737" fill="#CFAE58" opacity="0.17316179346892688"/>
  <circle cx="754.5323388924838" cy="552.0612679578297" r="3.928370110295214" fill="#CFAE58" opacity="0.12930124988188274"/>
  <circle cx="603.4515078234338" cy="76.16759825188902" r="4.7035346986511835" fill="#CFAE58" opacity="0.23449460276064427"/>
  <circle cx="66.20897421571685" cy="160.50187111312732" r="2.176817544674032" fill="#CFAE58" opacity="0.2157838921956752"/>
  <circle cx="324.2811507872359" cy="565.2089105594697" r="2.6113102577938507" fill="#CFAE58" opacity="0.1636971654853736"/>
  <circle cx="168.66200697749133" cy="177.56873381140517" r="4.928707034700094" fill="#CFAE58" opacity="0.2016791529081589"/>
  <circle cx="1138.073857973349" cy="336.5020992218648" r="3.077556726524989" fill="#CFAE58" opacity="0.21456583848680777"/>
  <circle cx="35.28907352989768" cy="146.12777691772743" r="5.056194781318978" fill="#CFAE58" opacity="0.1888695138967555"/>
  <circle cx="326.8989184250974" cy="401.2141809918106" r="2.5136970399573277" fill="#CFAE58" opacity="0.19338244996375736"/>
  <circle cx="934.2121800127818" cy="149.4741949758534" r="3.777101297492403" fill="#CFAE58" opacity="0.21903129560942206"/>
  <circle cx="664.0567611165894" cy="373.7464577095841" r="4.710783345684425" fill="#CFAE58" opacity="0.19463347684164117"/>
  <circle cx="791.1902391578103" cy="5.781719354840158" r="4.024539073948354" fill="#CFAE58" opacity="0.16357877733828696"/>
  <circle cx="1191.9409383066854" cy="5.185149490813963" r="2.8903936233907253" fill="#CFAE58" opacity="0.20673910766826337"/>
  <circle cx="1196.326081012778" cy="499.9777782490213" r="2.659541186242219" fill="#CFAE58" opacity="0.17598241050949015"/>
  <circle cx="905.8212399368223" cy="11.898256303055428" r="4.325823935116092" fill="#CFAE58" opacity="0.12459279405652254"/>
  <circle cx="1070.230343255491" cy="52.8318135395602" r="4.583895363800912" fill="#CFAE58" opacity="0.21913248566947113"/>
  <circle cx="816.5387751038643" cy="527.8136182735678" r="4.534967829409403" fill="#CFAE58" opacity="0.13786703717665888"/>

  <!-- Border with glow -->
  <rect x="40" y="40" width="1120" height="550" fill="none" stroke="url(#goldGradient)" stroke-width="3" rx="12" filter="url(#softGlow)"/>

  <!-- Icon circle with premium background -->
  <circle cx="150" cy="200" r="75" fill="#CFAE58" opacity="0.15" filter="url(#softGlow)"/>
  <circle cx="150" cy="200" r="70" fill="#CFAE58" opacity="0.25"/>
  <text x="150" y="235" font-size="90" text-anchor="middle" fill="#CFAE58" filter="url(#glow)">⚖️</text>

  <!-- Premium logo (crown) with enhanced styling -->
  <g transform="translate(100, 70)">
    <path d="M 30 20 L 40 35 L 35 35 Z M 50 15 L 60 35 L 45 35 Z M 65 20 L 75 35 L 70 35 Z M 30 35 L 75 35 L 73 45 L 32 45 Z"
          fill="url(#goldGradient)" filter="url(#glow)" stroke="#B89842" stroke-width="0.5"/>
    <circle cx="40" cy="25" r="3" fill="#4FD1C5" filter="url(#glow)"/>
    <circle cx="52" cy="20" r="4" fill="#4FD1C5" filter="url(#glow)"/>
    <circle cx="65" cy="25" r="3" fill="#4FD1C5" filter="url(#glow)"/>
  </g>

  <!-- Title with shadow -->
  <text x="280" y="180" font-family="Georgia, serif" font-size="72" font-weight="bold"
        fill="url(#goldGradient)" filter="url(#shadow)">Legal Information</text>

  <!-- Subtitle with subtle glow -->
  <text x="280" y="230" font-family="Arial, sans-serif" font-size="36"
        fill="#D6DEE6" opacity="0.95" filter="url(#softGlow)">Terms, Privacy &amp; Disclosures</text>

  <!-- Brand name with letter spacing -->
  <text x="280" y="300" font-family="Georgia, serif" font-size="32" font-weight="bold"
        fill="#CFAE58" letter-spacing="4" filter="url(#glow)">ROYAL KETA</text>

  <!-- Russian tagline -->
  <text x="280" y="340" font-family="Arial, sans-serif" font-size="22" font-style="italic"
        fill="#8B95A1" opacity="0.8">От икринки к королевской</text>

  <!-- Location -->
  <text x="280" y="380" font-family="Arial, sans-serif" font-size="20"
        fill="#8B95A1" opacity="0.7">Невельский район, Сахалин</text>

  <!-- Website with glow -->
  <text x="100" y="570" font-family="Arial, sans-serif" font-size="30" font-weight="bold"
        fill="#4FD1C5" filter="url(#glow)">royalketa.com</text>

  <!-- Enhanced decorative salmon silhouette -->
  <g transform="translate(950, 480)" opacity="0.2" filter="url(#softGlow)">
    <ellipse cx="0" cy="0" rx="90" ry="35" fill="#CFAE58"/>
    <path d="M 90 0 L 120 -18 L 130 0 L 120 18 Z" fill="#CFAE58"/>
    <path d="M -25 -35 L 0 -45 L 25 -35 Z" fill="#CFAE58"/>
    <ellipse cx="-50" cy="0" rx="15" ry="12" fill="#0B0F14"/>
  </g>

  <!-- Additional decorative caviar clusters -->
  <g opacity="0.2">
    <circle cx="1050" cy="120" r="6" fill="#CFAE58"/>
    <circle cx="1065" cy="115" r="5" fill="#CFAE58"/>
    <circle cx="1058" cy="130" r="4" fill="#CFAE58"/>
    <circle cx="150" cy="500" r="5" fill="#4FD1C5"/>
    <circle cx="165" cy="508" r="4" fill="#4FD1C5"/>
    <circle cx="140" cy="512" r="5" fill="#4FD1C5"/>
  </g>
</svg>