<svg width="1200" height="630" xmlns="http://www.w3.org/2000/svg">
  <defs>
    <linearGradient id="bgGradient" x1="0%" y1="0%" x2="100%" y2="100%">
      <stop offset="0%" style="stop-color:#0B0F14;stop-opacity:1" />
      <stop offset="50%" style="stop-color:#0F1619;stop-opacity:1" />
      <stop offset="100%" style="stop-color:#0F1922;stop-opacity:1" />
    </linearGradient>
    <linearGradient id="goldGradient" x1="0%" y1="0%" x2="100%" y2="0%">
      <stop offset="0%" style="stop-color:#E5D596;stop-opacity:1" />
      <stop offset="50%" style="stop-color:#CFAE58;stop-opacity:1" />
      <stop offset="100%" style="stop-color:#B89842;stop-opacity:1" />
    </linearGradient>
    <radialGradient id="oceanGradient" cx="50%" cy="50%" r="50%">
      <stop offset="0%" style="stop-color:#4FD1C5;stop-opacity:0.3" />
      <stop offset="100%" style="stop-color:#1E90A0;stop-opacity:0.05" />
    </radialGradient>
    <filter id="glow">
      <feGaussianBlur stdDeviation="5" result="coloredBlur"/>
      <feMerge>
        <feMergeNode in="coloredBlur"/>
        <feMergeNode in="SourceGraphic"/>
      </feMerge>
    </filter>
    <filter id="softGlow">
      <feGaussianBlur stdDeviation="8" result="coloredBlur"/>
      <feMerge>
        <feMergeNode in="coloredBlur"/>
        <feMergeNode in="SourceGraphic"/>
      </feMerge>
    </filter>
    <filter id="shadow">
      <feDropShadow dx="0" dy="4" stdDeviation="8" flood-color="#000000" flood-opacity="0.5"/>
    </filter>
  </defs>

  <!-- Background -->
  <rect width="1200" height="630" fill="url(#bgGradient)"/>

  <!-- Decorative ocean gradients -->
  <ellipse cx="1000" cy="150" rx="300" ry="200" fill="url(#oceanGradient)" opacity="0.4"/>
  <ellipse cx="200" cy="530" rx="250" ry="180" fill="url(#oceanGradient)" opacity="0.3"/>

  <!-- Wave patterns -->
  <path d="M 0 400 Q 300 350 600 400 T 1200 400 L 1200 630 L 0 630 Z" fill="#1E90A0" opacity="0.08"/>
  <path d="M 0 450 Q 250 420 500 450 T 1000 450 T 1200 450 L 1200 630 L 0 630 Z" fill="#4FD1C5" opacity="0.05"/>

  <!-- Caviar roe particles -->
  <circle cx="89.42981902012272" cy="126.18014062562901" r="2.4351221239841507" fill="#CFAE58" opacity="0.139881093931602"/>
  <circle cx="512.712649998564" cy="123.45385996328629" r="2.2429868295408637" fill="#CFAE58" opacity="0.21431748262182465"/>
  <circle cx="222.1880046603731" cy="45.1553625744481" r="4.412288023841578" fill="#CFAE58" opacity="0.1498398398891587"/>
  <circle cx="33.201854194135905" cy="508.5752207783021" r="5.162125117828289" fill="#CFAE58" opacity="0.20875316392540036"/>
  <circle cx="583.8256445498703" cy="481.61759213513903" r="3.0955080858279382" fill="#CFAE58" opacity="0.13822760762990002"/>
  <circle cx="797.520114299692" cy="124.5283979534174" r="2.2338488517419695" fill="#CFAE58" opacity="0.1755375278552675"/>
  <circle cx="1115.0627218115037" cy="308.5329091776817" r="3.186436584807412" fill="#CFAE58" opacity="0.24633127109031666"/>
  <circle cx="422.22288712186105" cy="450.7837796784159" r="5.509833838087653" fill="#CFAE58" opacity="0.20619360599851794"/>
  <circle cx="909.3577737276922" cy="209.9169722303946" r="4.879597747644865" fill="#CFAE58" opacity="0.22507364548129952"/>
  <circle cx="825.2427383521639" cy="285.38208907916317" r="5.255383051261967" fill="#CFAE58" opacity="0.2162942957487862"/>
  <circle cx="1147.8792980789367" cy="165.92646127213553" r="4.1418205473955405" fill="#CFAE58" opacity="0.10051532014866289"/>
  <circle cx="289.5503574335902" cy="509.7719938229887" r="4.525523817647906" fill="#CFAE58" opacity="0.2178604243064378"/>
  <circle cx="634.9592595968339" cy="516.5937713473866" r="3.904866783811478" fill="#CFAE58" opacity="0.10150936245209241"/>
  <circle cx="219.76623549750877" cy="538.1776937544258" r="2.9447630795515005" fill="#CFAE58" opacity="0.22402951494477263"/>
  <circle cx="537.6349375099189" cy="333.5898977431413" r="3.0956047533673727" fill="#CFAE58" opacity="0.24977793530920372"/>
  <circle cx="934.9785083698785" cy="120.72472862812612" r="2.8730267317144564" fill="#CFAE58" opacity="0.12946372995609032"/>
  <circle cx="283.3611811831646" cy="418.5081999423114" r="3.399676710193992" fill="#CFAE58" opacity="0.2286004273835289"/>
  <circle cx="495.88378695123663" cy="350.2504992270424" r="2.5641912287167585" fill="#CFAE58" opacity="0.14668486532045694"/>
  <circle cx="305.58073347486516" cy="127.76538721230598" r="2.56488291730886" fill="#CFAE58" opacity="0.13218127124471765"/>
  <circle cx="35.68483591644443" cy="590.2198908228762" r="5.535699862998444" fill="#CFAE58" opacity="0.20490753789853514"/>
  <circle cx="255.8770759938951" cy="229.44335736865492" r="5.355570192305088" fill="#CFAE58" opacity="0.17259879597319974"/>
  <circle cx="717.7112394379986" cy="5.732365003241493" r="3.6434831365935425" fill="#CFAE58" opacity="0.20791286514034382"/>
  <circle cx="0.9265161410037415" cy="383.0341026715581" r="3.9511627690538873" fill="#CFAE58" opacity="0.2310835997203757"/>
  <circle cx="173.33743995325096" cy="385.0832765117637" r="2.7776048356091305" fill="#CFAE58" opacity="0.2467115463593831"/>
  <circle cx="451.6042716473663" cy="82.42471348221545" r="5.367932600244204" fill="#CFAE58" opacity="0.21648217180459792"/>
  <circle cx="23.212492673411056" cy="351.5645610355895" r="4.914915652288467" fill="#CFAE58" opacity="0.15195285843131798"/>
  <circle cx="834.4686002283688" cy="248.1421197217621" r="5.3560390474247805" fill="#CFAE58" opacity="0.19815594108756335"/>
  <circle cx="21.482342768231444" cy="327.5610963849436" r="5.528262317652448" fill="#CFAE58" opacity="0.21257185894945915"/>
  <circle cx="539.6883951201966" cy="378.649583520297" r="2.527546307509687" fill="#CFAE58" opacity="0.22781937212430742"/>
  <circle cx="1143.5927912972531" cy="303.84011428187233" r="5.805316677393139" fill="#CFAE58" opacity="0.11282007599553036"/>

  <!-- Border with glow -->
  <rect x="40" y="40" width="1120" height="550" fill="none" stroke="url(#goldGradient)" stroke-width="3" rx="12" filter="url(#softGlow)"/>

  <!-- Icon circle with premium background -->
  <circle cx="150" cy="200" r="75" fill="#CFAE58" opacity="0.15" filter="url(#softGlow)"/>
  <circle cx="150" cy="200" r="70" fill="#CFAE58" opacity="0.25"/>
  <text x="150" y="235" font-size="90" text-anchor="middle" fill="#CFAE58" filter="url(#glow)">⚖️</text>

  <!-- Premium logo (crown) with enhanced styling -->
  <g transform="translate(100, 70)">
    <path d="M 30 20 L 40 35 L 35 35 Z M 50 15 L 60 35 L 45 35 Z M 65 20 L 75 35 L 70 35 Z M 30 35 L 75 35 L 73 45 L 32 45 Z"
          fill="url(#goldGradient)" filter="url(#glow)" stroke="#B89842" stroke-width="0.5"/>
    <circle cx="40" cy="25" r="3" fill="#4FD1C5" filter="url(#glow)"/>
    <circle cx="52" cy="20" r="4" fill="#4FD1C5" filter="url(#glow)"/>
    <circle cx="65" cy="25" r="3" fill="#4FD1C5" filter="url(#glow)"/>
  </g>

  <!-- Title with shadow -->
  <text x="280" y="180" font-family="Georgia, serif" font-size="72" font-weight="bold"
        fill="url(#goldGradient)" filter="url(#shadow)">Legal Information</text>

  <!-- Subtitle with subtle glow -->
  <text x="280" y="230" font-family="Arial, sans-serif" font-size="36"
        fill="#D6DEE6" opacity="0.95" filter="url(#softGlow)">Terms, Privacy &amp; Disclosures</text>

  <!-- Brand name with letter spacing -->
  <text x="280" y="300" font-family="Georgia, serif" font-size="32" font-weight="bold"
        fill="#CFAE58" letter-spacing="4" filter="url(#glow)">ROYAL KETA</text>

  <!-- Russian tagline -->
  <text x="280" y="340" font-family="Arial, sans-serif" font-size="22" font-style="italic"
        fill="#8B95A1" opacity="0.8">От икринки к королевской</text>

  <!-- Location -->
  <text x="280" y="380" font-family="Arial, sans-serif" font-size="20"
        fill="#8B95A1" opacity="0.7">Невельский район, Сахалин</text>

  <!-- Website with glow -->
  <text x="100" y="570" font-family="Arial, sans-serif" font-size="30" font-weight="bold"
        fill="#4FD1C5" filter="url(#glow)">royalketa.com</text>

  <!-- Enhanced decorative salmon silhouette -->
  <g transform="translate(950, 480)" opacity="0.2" filter="url(#softGlow)">
    <ellipse cx="0" cy="0" rx="90" ry="35" fill="#CFAE58"/>
    <path d="M 90 0 L 120 -18 L 130 0 L 120 18 Z" fill="#CFAE58"/>
    <path d="M -25 -35 L 0 -45 L 25 -35 Z" fill="#CFAE58"/>
    <ellipse cx="-50" cy="0" rx="15" ry="12" fill="#0B0F14"/>
  </g>

  <!-- Additional decorative caviar clusters -->
  <g opacity="0.2">
    <circle cx="1050" cy="120" r="6" fill="#CFAE58"/>
    <circle cx="1065" cy="115" r="5" fill="#CFAE58"/>
    <circle cx="1058" cy="130" r="4" fill="#CFAE58"/>
    <circle cx="150" cy="500" r="5" fill="#4FD1C5"/>
    <circle cx="165" cy="508" r="4" fill="#4FD1C5"/>
    <circle cx="140" cy="512" r="5" fill="#4FD1C5"/>
  </g>
</svg>