<svg width="1200" height="630" xmlns="http://www.w3.org/2000/svg">
  <defs>
    <linearGradient id="bgGradient" x1="0%" y1="0%" x2="100%" y2="100%">
      <stop offset="0%" style="stop-color:#0B0F14;stop-opacity:1" />
      <stop offset="50%" style="stop-color:#0F1619;stop-opacity:1" />
      <stop offset="100%" style="stop-color:#0F1922;stop-opacity:1" />
    </linearGradient>
    <linearGradient id="goldGradient" x1="0%" y1="0%" x2="100%" y2="0%">
      <stop offset="0%" style="stop-color:#E5D596;stop-opacity:1" />
      <stop offset="50%" style="stop-color:#CFAE58;stop-opacity:1" />
      <stop offset="100%" style="stop-color:#B89842;stop-opacity:1" />
    </linearGradient>
    <radialGradient id="oceanGradient" cx="50%" cy="50%" r="50%">
      <stop offset="0%" style="stop-color:#4FD1C5;stop-opacity:0.3" />
      <stop offset="100%" style="stop-color:#1E90A0;stop-opacity:0.05" />
    </radialGradient>
    <filter id="glow">
      <feGaussianBlur stdDeviation="5" result="coloredBlur"/>
      <feMerge>
        <feMergeNode in="coloredBlur"/>
        <feMergeNode in="SourceGraphic"/>
      </feMerge>
    </filter>
    <filter id="softGlow">
      <feGaussianBlur stdDeviation="8" result="coloredBlur"/>
      <feMerge>
        <feMergeNode in="coloredBlur"/>
        <feMergeNode in="SourceGraphic"/>
      </feMerge>
    </filter>
    <filter id="shadow">
      <feDropShadow dx="0" dy="4" stdDeviation="8" flood-color="#000000" flood-opacity="0.5"/>
    </filter>
  </defs>

  <!-- Background -->
  <rect width="1200" height="630" fill="url(#bgGradient)"/>

  <!-- Decorative ocean gradients -->
  <ellipse cx="1000" cy="150" rx="300" ry="200" fill="url(#oceanGradient)" opacity="0.4"/>
  <ellipse cx="200" cy="530" rx="250" ry="180" fill="url(#oceanGradient)" opacity="0.3"/>

  <!-- Wave patterns -->
  <path d="M 0 400 Q 300 350 600 400 T 1200 400 L 1200 630 L 0 630 Z" fill="#1E90A0" opacity="0.08"/>
  <path d="M 0 450 Q 250 420 500 450 T 1000 450 T 1200 450 L 1200 630 L 0 630 Z" fill="#4FD1C5" opacity="0.05"/>

  <!-- Caviar roe particles -->
  <circle cx="1025.2429468818973" cy="431.7468672314809" r="3.222890011068623" fill="#CFAE58" opacity="0.15183686716032146"/>
  <circle cx="1095.6027028467697" cy="246.1404509687803" r="2.631499599348099" fill="#CFAE58" opacity="0.14435733611604123"/>
  <circle cx="217.0739247591389" cy="65.04387109345323" r="2.617567098984799" fill="#CFAE58" opacity="0.16464844930959108"/>
  <circle cx="954.7084106900467" cy="520.4009725689001" r="3.5028068887828923" fill="#CFAE58" opacity="0.2335506793609181"/>
  <circle cx="670.4841685232926" cy="288.10498283992166" r="3.3241651926964093" fill="#CFAE58" opacity="0.24892655980243822"/>
  <circle cx="886.1848486218979" cy="96.13408048392502" r="5.522342911832228" fill="#CFAE58" opacity="0.18889113043856753"/>
  <circle cx="108.53381863948806" cy="265.84125068261096" r="5.372623765786266" fill="#CFAE58" opacity="0.14645852366815365"/>
  <circle cx="724.7064125010319" cy="130.54578582916102" r="5.616333143588422" fill="#CFAE58" opacity="0.11529126971035072"/>
  <circle cx="511.04429686552544" cy="405.6446184139393" r="3.3992040462065174" fill="#CFAE58" opacity="0.14742305896111255"/>
  <circle cx="682.7566046829411" cy="302.66134642780213" r="5.714977276698391" fill="#CFAE58" opacity="0.10934448713432793"/>
  <circle cx="812.228294907067" cy="166.4839749198424" r="3.285508984039588" fill="#CFAE58" opacity="0.20199923664096653"/>
  <circle cx="182.75282681526352" cy="423.76318939911926" r="3.014521975326464" fill="#CFAE58" opacity="0.1440068719748605"/>
  <circle cx="541.3415151898881" cy="99.40369002756358" r="2.110026054218563" fill="#CFAE58" opacity="0.23303327199968255"/>
  <circle cx="171.92126550281665" cy="222.52307990926036" r="5.51835805164424" fill="#CFAE58" opacity="0.1813890611047057"/>
  <circle cx="123.4344640485614" cy="272.02086158351756" r="2.232411135015855" fill="#CFAE58" opacity="0.1879880421668973"/>
  <circle cx="690.1518410852473" cy="265.09485153338505" r="3.7068427014124756" fill="#CFAE58" opacity="0.12848230978209338"/>
  <circle cx="649.2762337292578" cy="237.62390230696474" r="5.362018699109669" fill="#CFAE58" opacity="0.21038259350071253"/>
  <circle cx="873.2034897454605" cy="245.0225270214212" r="4.72619317403233" fill="#CFAE58" opacity="0.15628087543131416"/>
  <circle cx="787.0565597990199" cy="77.42435192141795" r="5.513698742623033" fill="#CFAE58" opacity="0.13139965157041777"/>
  <circle cx="54.638939464378254" cy="497.3416615532588" r="4.303561364982843" fill="#CFAE58" opacity="0.15898235276297504"/>
  <circle cx="737.7966522975152" cy="375.9406755994097" r="4.33490494040597" fill="#CFAE58" opacity="0.17336913537738563"/>
  <circle cx="126.15966053397254" cy="419.9654883935127" r="3.1933011935452535" fill="#CFAE58" opacity="0.11834402040448103"/>
  <circle cx="431.6714370770023" cy="188.29784739187016" r="5.6793446465066975" fill="#CFAE58" opacity="0.18748865481435958"/>
  <circle cx="617.0818792049034" cy="153.33666565768442" r="3.701166065800548" fill="#CFAE58" opacity="0.15397405726012758"/>
  <circle cx="1019.2139500802008" cy="621.8913638220457" r="4.82201937074708" fill="#CFAE58" opacity="0.10083354627227352"/>
  <circle cx="442.2574883413683" cy="430.97017300579586" r="5.933733006042549" fill="#CFAE58" opacity="0.16150144758898563"/>
  <circle cx="243.19176124532765" cy="208.51045949261783" r="5.843469892866658" fill="#CFAE58" opacity="0.19884501765136772"/>
  <circle cx="591.1428648971536" cy="164.82232392559942" r="4.076816424839663" fill="#CFAE58" opacity="0.19927094165454484"/>
  <circle cx="853.3488189099652" cy="525.2344020891784" r="4.257317042141004" fill="#CFAE58" opacity="0.2151790888189593"/>
  <circle cx="508.25217544930433" cy="612.6607331023595" r="3.7186083670601793" fill="#CFAE58" opacity="0.16645262048410886"/>

  <!-- Border with glow -->
  <rect x="40" y="40" width="1120" height="550" fill="none" stroke="url(#goldGradient)" stroke-width="3" rx="12" filter="url(#softGlow)"/>

  <!-- Icon circle with premium background -->
  <circle cx="150" cy="200" r="75" fill="#CFAE58" opacity="0.15" filter="url(#softGlow)"/>
  <circle cx="150" cy="200" r="70" fill="#CFAE58" opacity="0.25"/>
  <text x="150" y="235" font-size="90" text-anchor="middle" fill="#CFAE58" filter="url(#glow)">⚖️</text>

  <!-- Premium logo (crown) with enhanced styling -->
  <g transform="translate(100, 70)">
    <path d="M 30 20 L 40 35 L 35 35 Z M 50 15 L 60 35 L 45 35 Z M 65 20 L 75 35 L 70 35 Z M 30 35 L 75 35 L 73 45 L 32 45 Z"
          fill="url(#goldGradient)" filter="url(#glow)" stroke="#B89842" stroke-width="0.5"/>
    <circle cx="40" cy="25" r="3" fill="#4FD1C5" filter="url(#glow)"/>
    <circle cx="52" cy="20" r="4" fill="#4FD1C5" filter="url(#glow)"/>
    <circle cx="65" cy="25" r="3" fill="#4FD1C5" filter="url(#glow)"/>
  </g>

  <!-- Title with shadow -->
  <text x="280" y="180" font-family="Georgia, serif" font-size="72" font-weight="bold"
        fill="url(#goldGradient)" filter="url(#shadow)">Legal Information</text>

  <!-- Subtitle with subtle glow -->
  <text x="280" y="230" font-family="Arial, sans-serif" font-size="36"
        fill="#D6DEE6" opacity="0.95" filter="url(#softGlow)">Terms, Privacy &amp; Disclosures</text>

  <!-- Brand name with letter spacing -->
  <text x="280" y="300" font-family="Georgia, serif" font-size="32" font-weight="bold"
        fill="#CFAE58" letter-spacing="4" filter="url(#glow)">ROYAL KETA</text>

  <!-- Russian tagline -->
  <text x="280" y="340" font-family="Arial, sans-serif" font-size="22" font-style="italic"
        fill="#8B95A1" opacity="0.8">От икринки к королевской</text>

  <!-- Location -->
  <text x="280" y="380" font-family="Arial, sans-serif" font-size="20"
        fill="#8B95A1" opacity="0.7">Невельский район, Сахалин</text>

  <!-- Website with glow -->
  <text x="100" y="570" font-family="Arial, sans-serif" font-size="30" font-weight="bold"
        fill="#4FD1C5" filter="url(#glow)">royalketa.com</text>

  <!-- Enhanced decorative salmon silhouette -->
  <g transform="translate(950, 480)" opacity="0.2" filter="url(#softGlow)">
    <ellipse cx="0" cy="0" rx="90" ry="35" fill="#CFAE58"/>
    <path d="M 90 0 L 120 -18 L 130 0 L 120 18 Z" fill="#CFAE58"/>
    <path d="M -25 -35 L 0 -45 L 25 -35 Z" fill="#CFAE58"/>
    <ellipse cx="-50" cy="0" rx="15" ry="12" fill="#0B0F14"/>
  </g>

  <!-- Additional decorative caviar clusters -->
  <g opacity="0.2">
    <circle cx="1050" cy="120" r="6" fill="#CFAE58"/>
    <circle cx="1065" cy="115" r="5" fill="#CFAE58"/>
    <circle cx="1058" cy="130" r="4" fill="#CFAE58"/>
    <circle cx="150" cy="500" r="5" fill="#4FD1C5"/>
    <circle cx="165" cy="508" r="4" fill="#4FD1C5"/>
    <circle cx="140" cy="512" r="5" fill="#4FD1C5"/>
  </g>
</svg>