<svg width="1200" height="630" xmlns="http://www.w3.org/2000/svg">
  <defs>
    <linearGradient id="bgGradient" x1="0%" y1="0%" x2="100%" y2="100%">
      <stop offset="0%" style="stop-color:#0B0F14;stop-opacity:1" />
      <stop offset="50%" style="stop-color:#0F1619;stop-opacity:1" />
      <stop offset="100%" style="stop-color:#0F1922;stop-opacity:1" />
    </linearGradient>
    <linearGradient id="goldGradient" x1="0%" y1="0%" x2="100%" y2="0%">
      <stop offset="0%" style="stop-color:#E5D596;stop-opacity:1" />
      <stop offset="50%" style="stop-color:#CFAE58;stop-opacity:1" />
      <stop offset="100%" style="stop-color:#B89842;stop-opacity:1" />
    </linearGradient>
    <radialGradient id="oceanGradient" cx="50%" cy="50%" r="50%">
      <stop offset="0%" style="stop-color:#4FD1C5;stop-opacity:0.3" />
      <stop offset="100%" style="stop-color:#1E90A0;stop-opacity:0.05" />
    </radialGradient>
    <filter id="glow">
      <feGaussianBlur stdDeviation="5" result="coloredBlur"/>
      <feMerge>
        <feMergeNode in="coloredBlur"/>
        <feMergeNode in="SourceGraphic"/>
      </feMerge>
    </filter>
    <filter id="softGlow">
      <feGaussianBlur stdDeviation="8" result="coloredBlur"/>
      <feMerge>
        <feMergeNode in="coloredBlur"/>
        <feMergeNode in="SourceGraphic"/>
      </feMerge>
    </filter>
    <filter id="shadow">
      <feDropShadow dx="0" dy="4" stdDeviation="8" flood-color="#000000" flood-opacity="0.5"/>
    </filter>
  </defs>

  <!-- Background -->
  <rect width="1200" height="630" fill="url(#bgGradient)"/>

  <!-- Decorative ocean gradients -->
  <ellipse cx="1000" cy="150" rx="300" ry="200" fill="url(#oceanGradient)" opacity="0.4"/>
  <ellipse cx="200" cy="530" rx="250" ry="180" fill="url(#oceanGradient)" opacity="0.3"/>

  <!-- Wave patterns -->
  <path d="M 0 400 Q 300 350 600 400 T 1200 400 L 1200 630 L 0 630 Z" fill="#1E90A0" opacity="0.08"/>
  <path d="M 0 450 Q 250 420 500 450 T 1000 450 T 1200 450 L 1200 630 L 0 630 Z" fill="#4FD1C5" opacity="0.05"/>

  <!-- Caviar roe particles -->
  <circle cx="301.02469278265687" cy="619.7247386052094" r="2.4808433747572307" fill="#CFAE58" opacity="0.12012385925994264"/>
  <circle cx="696.0070123312262" cy="358.29014631635846" r="2.577010216204017" fill="#CFAE58" opacity="0.11461957117110573"/>
  <circle cx="1041.6444493978086" cy="240.4797140955678" r="3.5364903767319866" fill="#CFAE58" opacity="0.16023306957307562"/>
  <circle cx="782.1834517270506" cy="295.38194811719103" r="3.2244274924157246" fill="#CFAE58" opacity="0.17264463251652978"/>
  <circle cx="485.20765126429933" cy="450.6041052062921" r="3.574896671488914" fill="#CFAE58" opacity="0.19385520433918496"/>
  <circle cx="202.0429998564114" cy="441.76773781166213" r="5.142661246880306" fill="#CFAE58" opacity="0.19372387342197522"/>
  <circle cx="42.72542583751084" cy="374.2374917115191" r="5.722416637836857" fill="#CFAE58" opacity="0.12677438899116866"/>
  <circle cx="1009.4510194836146" cy="225.84761460351015" r="5.325593159143793" fill="#CFAE58" opacity="0.1943381222484718"/>
  <circle cx="102.59562146390726" cy="510.31682306823694" r="5.765637479247034" fill="#CFAE58" opacity="0.17488354306429682"/>
  <circle cx="65.13741192800344" cy="159.14714864580867" r="4.040446668576245" fill="#CFAE58" opacity="0.2106302946070715"/>
  <circle cx="966.5051850004559" cy="463.3227644854571" r="4.878300566716887" fill="#CFAE58" opacity="0.1572989832881946"/>
  <circle cx="968.0455815804029" cy="440.02927215080024" r="2.3173152953736684" fill="#CFAE58" opacity="0.13054366539878315"/>
  <circle cx="876.2614636720256" cy="476.7237514934979" r="2.145195219798177" fill="#CFAE58" opacity="0.17568572083286743"/>
  <circle cx="1174.0969341780713" cy="4.683612821335781" r="3.836879041173198" fill="#CFAE58" opacity="0.20159157838490718"/>
  <circle cx="147.07743351483035" cy="574.8927659295282" r="3.5784876719015797" fill="#CFAE58" opacity="0.21861472625350864"/>
  <circle cx="51.89675938556242" cy="235.09663238407225" r="3.901666248555797" fill="#CFAE58" opacity="0.19176682345318286"/>
  <circle cx="718.780157994269" cy="620.734382289763" r="3.4286028109841586" fill="#CFAE58" opacity="0.21001493534277815"/>
  <circle cx="732.9133255207928" cy="493.1008088686614" r="2.1848146316041737" fill="#CFAE58" opacity="0.2268164356167033"/>
  <circle cx="524.0027098071253" cy="534.8991315131083" r="3.476589158313014" fill="#CFAE58" opacity="0.2449311692623221"/>
  <circle cx="305.9600699375567" cy="623.8195902712296" r="4.314451769283982" fill="#CFAE58" opacity="0.17490424672421961"/>
  <circle cx="1122.7705502757617" cy="207.6943806236395" r="5.083103892761204" fill="#CFAE58" opacity="0.1019547862735617"/>
  <circle cx="270.70183738267525" cy="626.8884376487014" r="4.21970237986731" fill="#CFAE58" opacity="0.21821335061351882"/>
  <circle cx="486.65344125687204" cy="452.02536503871255" r="2.4864105272494035" fill="#CFAE58" opacity="0.17522507595784348"/>
  <circle cx="182.9309062680456" cy="337.6906864748632" r="5.819468666423877" fill="#CFAE58" opacity="0.21236007380302618"/>
  <circle cx="726.1686541256385" cy="210.43024149720563" r="2.1363362219542354" fill="#CFAE58" opacity="0.2048115361381891"/>
  <circle cx="37.91408965980896" cy="483.8073719905596" r="3.850949158857719" fill="#CFAE58" opacity="0.16463451138483837"/>
  <circle cx="220.1711960657857" cy="238.19071650124403" r="5.9470385064908635" fill="#CFAE58" opacity="0.209449150875748"/>
  <circle cx="464.8438663174861" cy="67.07126843543936" r="3.2091990504998638" fill="#CFAE58" opacity="0.20438096923918941"/>
  <circle cx="948.8225280360404" cy="79.81399379663891" r="3.0188330024250405" fill="#CFAE58" opacity="0.1877479843288903"/>
  <circle cx="527.0817722302495" cy="503.23063884566875" r="3.0465497951336378" fill="#CFAE58" opacity="0.17886903342630472"/>

  <!-- Border with glow -->
  <rect x="40" y="40" width="1120" height="550" fill="none" stroke="url(#goldGradient)" stroke-width="3" rx="12" filter="url(#softGlow)"/>

  <!-- Icon circle with premium background -->
  <circle cx="150" cy="200" r="75" fill="#CFAE58" opacity="0.15" filter="url(#softGlow)"/>
  <circle cx="150" cy="200" r="70" fill="#CFAE58" opacity="0.25"/>
  <text x="150" y="235" font-size="90" text-anchor="middle" fill="#CFAE58" filter="url(#glow)">⚖️</text>

  <!-- Premium logo (crown) with enhanced styling -->
  <g transform="translate(100, 70)">
    <path d="M 30 20 L 40 35 L 35 35 Z M 50 15 L 60 35 L 45 35 Z M 65 20 L 75 35 L 70 35 Z M 30 35 L 75 35 L 73 45 L 32 45 Z"
          fill="url(#goldGradient)" filter="url(#glow)" stroke="#B89842" stroke-width="0.5"/>
    <circle cx="40" cy="25" r="3" fill="#4FD1C5" filter="url(#glow)"/>
    <circle cx="52" cy="20" r="4" fill="#4FD1C5" filter="url(#glow)"/>
    <circle cx="65" cy="25" r="3" fill="#4FD1C5" filter="url(#glow)"/>
  </g>

  <!-- Title with shadow -->
  <text x="280" y="180" font-family="Georgia, serif" font-size="72" font-weight="bold"
        fill="url(#goldGradient)" filter="url(#shadow)">Legal Information</text>

  <!-- Subtitle with subtle glow -->
  <text x="280" y="230" font-family="Arial, sans-serif" font-size="36"
        fill="#D6DEE6" opacity="0.95" filter="url(#softGlow)">Terms, Privacy &amp; Disclosures</text>

  <!-- Brand name with letter spacing -->
  <text x="280" y="300" font-family="Georgia, serif" font-size="32" font-weight="bold"
        fill="#CFAE58" letter-spacing="4" filter="url(#glow)">ROYAL KETA</text>

  <!-- Russian tagline -->
  <text x="280" y="340" font-family="Arial, sans-serif" font-size="22" font-style="italic"
        fill="#8B95A1" opacity="0.8">От икринки к королевской</text>

  <!-- Location -->
  <text x="280" y="380" font-family="Arial, sans-serif" font-size="20"
        fill="#8B95A1" opacity="0.7">Невельский район, Сахалин</text>

  <!-- Website with glow -->
  <text x="100" y="570" font-family="Arial, sans-serif" font-size="30" font-weight="bold"
        fill="#4FD1C5" filter="url(#glow)">royalketa.com</text>

  <!-- Enhanced decorative salmon silhouette -->
  <g transform="translate(950, 480)" opacity="0.2" filter="url(#softGlow)">
    <ellipse cx="0" cy="0" rx="90" ry="35" fill="#CFAE58"/>
    <path d="M 90 0 L 120 -18 L 130 0 L 120 18 Z" fill="#CFAE58"/>
    <path d="M -25 -35 L 0 -45 L 25 -35 Z" fill="#CFAE58"/>
    <ellipse cx="-50" cy="0" rx="15" ry="12" fill="#0B0F14"/>
  </g>

  <!-- Additional decorative caviar clusters -->
  <g opacity="0.2">
    <circle cx="1050" cy="120" r="6" fill="#CFAE58"/>
    <circle cx="1065" cy="115" r="5" fill="#CFAE58"/>
    <circle cx="1058" cy="130" r="4" fill="#CFAE58"/>
    <circle cx="150" cy="500" r="5" fill="#4FD1C5"/>
    <circle cx="165" cy="508" r="4" fill="#4FD1C5"/>
    <circle cx="140" cy="512" r="5" fill="#4FD1C5"/>
  </g>
</svg>