<svg width="1200" height="630" xmlns="http://www.w3.org/2000/svg">
  <defs>
    <linearGradient id="bgGradient" x1="0%" y1="0%" x2="100%" y2="100%">
      <stop offset="0%" style="stop-color:#0B0F14;stop-opacity:1" />
      <stop offset="50%" style="stop-color:#0F1619;stop-opacity:1" />
      <stop offset="100%" style="stop-color:#0F1922;stop-opacity:1" />
    </linearGradient>
    <linearGradient id="goldGradient" x1="0%" y1="0%" x2="100%" y2="0%">
      <stop offset="0%" style="stop-color:#E5D596;stop-opacity:1" />
      <stop offset="50%" style="stop-color:#CFAE58;stop-opacity:1" />
      <stop offset="100%" style="stop-color:#B89842;stop-opacity:1" />
    </linearGradient>
    <radialGradient id="oceanGradient" cx="50%" cy="50%" r="50%">
      <stop offset="0%" style="stop-color:#4FD1C5;stop-opacity:0.3" />
      <stop offset="100%" style="stop-color:#1E90A0;stop-opacity:0.05" />
    </radialGradient>
    <filter id="glow">
      <feGaussianBlur stdDeviation="5" result="coloredBlur"/>
      <feMerge>
        <feMergeNode in="coloredBlur"/>
        <feMergeNode in="SourceGraphic"/>
      </feMerge>
    </filter>
    <filter id="softGlow">
      <feGaussianBlur stdDeviation="8" result="coloredBlur"/>
      <feMerge>
        <feMergeNode in="coloredBlur"/>
        <feMergeNode in="SourceGraphic"/>
      </feMerge>
    </filter>
    <filter id="shadow">
      <feDropShadow dx="0" dy="4" stdDeviation="8" flood-color="#000000" flood-opacity="0.5"/>
    </filter>
  </defs>

  <!-- Background -->
  <rect width="1200" height="630" fill="url(#bgGradient)"/>

  <!-- Decorative ocean gradients -->
  <ellipse cx="1000" cy="150" rx="300" ry="200" fill="url(#oceanGradient)" opacity="0.4"/>
  <ellipse cx="200" cy="530" rx="250" ry="180" fill="url(#oceanGradient)" opacity="0.3"/>

  <!-- Wave patterns -->
  <path d="M 0 400 Q 300 350 600 400 T 1200 400 L 1200 630 L 0 630 Z" fill="#1E90A0" opacity="0.08"/>
  <path d="M 0 450 Q 250 420 500 450 T 1000 450 T 1200 450 L 1200 630 L 0 630 Z" fill="#4FD1C5" opacity="0.05"/>

  <!-- Caviar roe particles -->
  <circle cx="810.9380179566239" cy="58.277638275663264" r="2.6378958569642337" fill="#CFAE58" opacity="0.15453956218527648"/>
  <circle cx="965.2523116246276" cy="292.05187044369245" r="4.860785030411907" fill="#CFAE58" opacity="0.23502914587386606"/>
  <circle cx="351.40735160061206" cy="8.153672297872838" r="5.930260036482282" fill="#CFAE58" opacity="0.21804938663019285"/>
  <circle cx="874.3451404190128" cy="87.40926719341545" r="2.3963310725457125" fill="#CFAE58" opacity="0.21917117138373765"/>
  <circle cx="874.2969144513817" cy="101.10612021700118" r="4.167112874103099" fill="#CFAE58" opacity="0.21037816031151235"/>
  <circle cx="1149.0132472326377" cy="228.03206130763576" r="5.848761737143658" fill="#CFAE58" opacity="0.1591471398744072"/>
  <circle cx="525.934393647006" cy="5.288078348670522" r="2.1904971564962383" fill="#CFAE58" opacity="0.16045683761339585"/>
  <circle cx="1067.8944875317143" cy="182.11056225111193" r="5.99866501657507" fill="#CFAE58" opacity="0.14406511775692582"/>
  <circle cx="831.1238796807556" cy="486.59280620672314" r="3.7208405040876764" fill="#CFAE58" opacity="0.19080407964383994"/>
  <circle cx="81.53212987476617" cy="37.049209624342055" r="5.2918819426889865" fill="#CFAE58" opacity="0.2454586293750796"/>
  <circle cx="439.9460028633338" cy="69.35999479513106" r="3.572128842411847" fill="#CFAE58" opacity="0.22001078792763246"/>
  <circle cx="588.9654401193918" cy="535.3231058454816" r="4.427471279119718" fill="#CFAE58" opacity="0.1835872673766415"/>
  <circle cx="59.23692213686165" cy="21.682321019520092" r="4.221186895471305" fill="#CFAE58" opacity="0.24275530799929868"/>
  <circle cx="925.106437989488" cy="146.83471474533977" r="4.69033924280179" fill="#CFAE58" opacity="0.18125847185713806"/>
  <circle cx="550.3454200421005" cy="14.375619340246887" r="3.645342875171401" fill="#CFAE58" opacity="0.19418844814506717"/>
  <circle cx="358.4972650921069" cy="189.72204664184093" r="4.508232895137146" fill="#CFAE58" opacity="0.2051820999530929"/>
  <circle cx="946.7087538624005" cy="106.56249283374616" r="2.8937520301594177" fill="#CFAE58" opacity="0.18711554753772983"/>
  <circle cx="199.7681418437994" cy="32.14289439811058" r="5.134444682007668" fill="#CFAE58" opacity="0.1208462160564532"/>
  <circle cx="795.6494192556227" cy="115.53974109373937" r="3.175899408871724" fill="#CFAE58" opacity="0.1234250234171447"/>
  <circle cx="580.8513294820334" cy="496.04109500799706" r="3.725848607827677" fill="#CFAE58" opacity="0.18411379142738848"/>
  <circle cx="951.6766788435351" cy="548.1439828293462" r="5.931081738643238" fill="#CFAE58" opacity="0.18071794525533252"/>
  <circle cx="1149.0268033688083" cy="82.30947974385838" r="5.855176990686113" fill="#CFAE58" opacity="0.17624542717200264"/>
  <circle cx="384.3984819593811" cy="532.5434828246339" r="5.955135567637219" fill="#CFAE58" opacity="0.24944574569541852"/>
  <circle cx="121.75199156430038" cy="132.5991415336299" r="4.5113861796161965" fill="#CFAE58" opacity="0.24025945921179157"/>
  <circle cx="813.958294592379" cy="196.59539966130293" r="2.8398374765640497" fill="#CFAE58" opacity="0.13023375788008668"/>
  <circle cx="620.0947536732469" cy="527.9757391908158" r="4.63486431983004" fill="#CFAE58" opacity="0.16076821863751956"/>
  <circle cx="401.78441105211994" cy="262.9185436521352" r="3.1127607679780698" fill="#CFAE58" opacity="0.21293639410576845"/>
  <circle cx="570.5447663992384" cy="541.1617473926141" r="5.54067719131071" fill="#CFAE58" opacity="0.12670727518209784"/>
  <circle cx="698.8149192753914" cy="402.0104609193294" r="2.171524637768299" fill="#CFAE58" opacity="0.21542259622594484"/>
  <circle cx="616.0868600424893" cy="587.7291222237218" r="4.709529282209266" fill="#CFAE58" opacity="0.1821646418074011"/>

  <!-- Border with glow -->
  <rect x="40" y="40" width="1120" height="550" fill="none" stroke="url(#goldGradient)" stroke-width="3" rx="12" filter="url(#softGlow)"/>

  <!-- Icon circle with premium background -->
  <circle cx="150" cy="200" r="75" fill="#CFAE58" opacity="0.15" filter="url(#softGlow)"/>
  <circle cx="150" cy="200" r="70" fill="#CFAE58" opacity="0.25"/>
  <text x="150" y="235" font-size="90" text-anchor="middle" fill="#CFAE58" filter="url(#glow)">⚖️</text>

  <!-- Premium logo (crown) with enhanced styling -->
  <g transform="translate(100, 70)">
    <path d="M 30 20 L 40 35 L 35 35 Z M 50 15 L 60 35 L 45 35 Z M 65 20 L 75 35 L 70 35 Z M 30 35 L 75 35 L 73 45 L 32 45 Z"
          fill="url(#goldGradient)" filter="url(#glow)" stroke="#B89842" stroke-width="0.5"/>
    <circle cx="40" cy="25" r="3" fill="#4FD1C5" filter="url(#glow)"/>
    <circle cx="52" cy="20" r="4" fill="#4FD1C5" filter="url(#glow)"/>
    <circle cx="65" cy="25" r="3" fill="#4FD1C5" filter="url(#glow)"/>
  </g>

  <!-- Title with shadow -->
  <text x="280" y="180" font-family="Georgia, serif" font-size="72" font-weight="bold"
        fill="url(#goldGradient)" filter="url(#shadow)">Legal Information</text>

  <!-- Subtitle with subtle glow -->
  <text x="280" y="230" font-family="Arial, sans-serif" font-size="36"
        fill="#D6DEE6" opacity="0.95" filter="url(#softGlow)">Terms, Privacy &amp; Disclosures</text>

  <!-- Brand name with letter spacing -->
  <text x="280" y="300" font-family="Georgia, serif" font-size="32" font-weight="bold"
        fill="#CFAE58" letter-spacing="4" filter="url(#glow)">ROYAL KETA</text>

  <!-- Russian tagline -->
  <text x="280" y="340" font-family="Arial, sans-serif" font-size="22" font-style="italic"
        fill="#8B95A1" opacity="0.8">От икринки к королевской</text>

  <!-- Location -->
  <text x="280" y="380" font-family="Arial, sans-serif" font-size="20"
        fill="#8B95A1" opacity="0.7">Невельский район, Сахалин</text>

  <!-- Website with glow -->
  <text x="100" y="570" font-family="Arial, sans-serif" font-size="30" font-weight="bold"
        fill="#4FD1C5" filter="url(#glow)">royalketa.com</text>

  <!-- Enhanced decorative salmon silhouette -->
  <g transform="translate(950, 480)" opacity="0.2" filter="url(#softGlow)">
    <ellipse cx="0" cy="0" rx="90" ry="35" fill="#CFAE58"/>
    <path d="M 90 0 L 120 -18 L 130 0 L 120 18 Z" fill="#CFAE58"/>
    <path d="M -25 -35 L 0 -45 L 25 -35 Z" fill="#CFAE58"/>
    <ellipse cx="-50" cy="0" rx="15" ry="12" fill="#0B0F14"/>
  </g>

  <!-- Additional decorative caviar clusters -->
  <g opacity="0.2">
    <circle cx="1050" cy="120" r="6" fill="#CFAE58"/>
    <circle cx="1065" cy="115" r="5" fill="#CFAE58"/>
    <circle cx="1058" cy="130" r="4" fill="#CFAE58"/>
    <circle cx="150" cy="500" r="5" fill="#4FD1C5"/>
    <circle cx="165" cy="508" r="4" fill="#4FD1C5"/>
    <circle cx="140" cy="512" r="5" fill="#4FD1C5"/>
  </g>
</svg>