<svg width="1200" height="630" xmlns="http://www.w3.org/2000/svg">
  <defs>
    <linearGradient id="bgGradient" x1="0%" y1="0%" x2="100%" y2="100%">
      <stop offset="0%" style="stop-color:#0B0F14;stop-opacity:1" />
      <stop offset="50%" style="stop-color:#0F1619;stop-opacity:1" />
      <stop offset="100%" style="stop-color:#0F1922;stop-opacity:1" />
    </linearGradient>
    <linearGradient id="goldGradient" x1="0%" y1="0%" x2="100%" y2="0%">
      <stop offset="0%" style="stop-color:#E5D596;stop-opacity:1" />
      <stop offset="50%" style="stop-color:#CFAE58;stop-opacity:1" />
      <stop offset="100%" style="stop-color:#B89842;stop-opacity:1" />
    </linearGradient>
    <radialGradient id="oceanGradient" cx="50%" cy="50%" r="50%">
      <stop offset="0%" style="stop-color:#4FD1C5;stop-opacity:0.3" />
      <stop offset="100%" style="stop-color:#1E90A0;stop-opacity:0.05" />
    </radialGradient>
    <filter id="glow">
      <feGaussianBlur stdDeviation="5" result="coloredBlur"/>
      <feMerge>
        <feMergeNode in="coloredBlur"/>
        <feMergeNode in="SourceGraphic"/>
      </feMerge>
    </filter>
    <filter id="softGlow">
      <feGaussianBlur stdDeviation="8" result="coloredBlur"/>
      <feMerge>
        <feMergeNode in="coloredBlur"/>
        <feMergeNode in="SourceGraphic"/>
      </feMerge>
    </filter>
    <filter id="shadow">
      <feDropShadow dx="0" dy="4" stdDeviation="8" flood-color="#000000" flood-opacity="0.5"/>
    </filter>
  </defs>

  <!-- Background -->
  <rect width="1200" height="630" fill="url(#bgGradient)"/>

  <!-- Decorative ocean gradients -->
  <ellipse cx="1000" cy="150" rx="300" ry="200" fill="url(#oceanGradient)" opacity="0.4"/>
  <ellipse cx="200" cy="530" rx="250" ry="180" fill="url(#oceanGradient)" opacity="0.3"/>

  <!-- Wave patterns -->
  <path d="M 0 400 Q 300 350 600 400 T 1200 400 L 1200 630 L 0 630 Z" fill="#1E90A0" opacity="0.08"/>
  <path d="M 0 450 Q 250 420 500 450 T 1000 450 T 1200 450 L 1200 630 L 0 630 Z" fill="#4FD1C5" opacity="0.05"/>

  <!-- Caviar roe particles -->
  <circle cx="355.50132462955287" cy="542.9177494975495" r="3.6234426212911126" fill="#CFAE58" opacity="0.1971067509676354"/>
  <circle cx="1006.8869705704253" cy="61.164181827068" r="4.372656035805768" fill="#CFAE58" opacity="0.24256288681440086"/>
  <circle cx="1024.9439007004698" cy="179.6960697525883" r="3.0648516854680636" fill="#CFAE58" opacity="0.2051881327283981"/>
  <circle cx="1116.6651392021017" cy="371.1371923289489" r="3.8225498429086393" fill="#CFAE58" opacity="0.10237361013888994"/>
  <circle cx="584.7531863054337" cy="447.9916225350483" r="2.5285014722558437" fill="#CFAE58" opacity="0.14825098702014555"/>
  <circle cx="562.6044337950782" cy="259.69944679692503" r="5.812004034328923" fill="#CFAE58" opacity="0.16548711585574588"/>
  <circle cx="369.1466079763205" cy="613.3908381716741" r="5.219281422967614" fill="#CFAE58" opacity="0.1958512350592947"/>
  <circle cx="688.1126400023397" cy="421.78233737725765" r="3.083425277835169" fill="#CFAE58" opacity="0.1757804948421005"/>
  <circle cx="554.8668904388254" cy="51.89184146450629" r="4.3324961477091195" fill="#CFAE58" opacity="0.17252036898283102"/>
  <circle cx="301.7211460712937" cy="208.71559071543618" r="3.232468296675944" fill="#CFAE58" opacity="0.12731762300396846"/>
  <circle cx="126.76570161565417" cy="280.64212515857514" r="3.813034111706794" fill="#CFAE58" opacity="0.21707984966829644"/>
  <circle cx="64.77252135181652" cy="149.8162517019081" r="3.6358038662063645" fill="#CFAE58" opacity="0.11843280721067086"/>
  <circle cx="669.5096930848097" cy="104.7329676933044" r="5.402569051083627" fill="#CFAE58" opacity="0.11868616207462611"/>
  <circle cx="455.0869922315894" cy="153.8961063221163" r="2.487560869491703" fill="#CFAE58" opacity="0.17925935957876954"/>
  <circle cx="361.5917921019826" cy="371.8979418325195" r="3.6099618621274008" fill="#CFAE58" opacity="0.17549627019176683"/>
  <circle cx="874.9842689218688" cy="124.53667306375526" r="3.6827415889236326" fill="#CFAE58" opacity="0.16643533392057147"/>
  <circle cx="674.205434146101" cy="271.44322118508546" r="4.5632306441252215" fill="#CFAE58" opacity="0.19652185619245283"/>
  <circle cx="425.9329824302929" cy="216.9403110917456" r="4.767049170896142" fill="#CFAE58" opacity="0.24056034135819776"/>
  <circle cx="1194.5510183051288" cy="12.581152242155769" r="5.327601043956645" fill="#CFAE58" opacity="0.24654099056155798"/>
  <circle cx="255.08924900611393" cy="156.2801921772078" r="5.121609118084299" fill="#CFAE58" opacity="0.18405153392115475"/>
  <circle cx="647.1861019716403" cy="128.156669340206" r="5.514541325952914" fill="#CFAE58" opacity="0.19863311327008373"/>
  <circle cx="302.8919265516958" cy="115.15312758522846" r="4.987082871573963" fill="#CFAE58" opacity="0.1743856299028371"/>
  <circle cx="252.79797847954376" cy="128.37185895962355" r="2.392454193630038" fill="#CFAE58" opacity="0.20662779683290755"/>
  <circle cx="991.3880107534251" cy="196.5694227067224" r="2.30082157230805" fill="#CFAE58" opacity="0.24770391513858636"/>
  <circle cx="747.4518925668732" cy="281.3986101604466" r="5.557544258444645" fill="#CFAE58" opacity="0.21063547449798176"/>
  <circle cx="296.48557319211244" cy="212.98440986144237" r="4.2185277421355725" fill="#CFAE58" opacity="0.18630737570812891"/>
  <circle cx="308.7087210752707" cy="616.226031869695" r="4.458868576002352" fill="#CFAE58" opacity="0.22953854907607452"/>
  <circle cx="557.1449107882124" cy="527.153983119698" r="4.170893747369078" fill="#CFAE58" opacity="0.19739331567618848"/>
  <circle cx="13.129689218275065" cy="307.12278033277613" r="4.1006908275892044" fill="#CFAE58" opacity="0.15524107178055122"/>
  <circle cx="688.3687438027731" cy="123.3855088840596" r="4.316028693229937" fill="#CFAE58" opacity="0.2442487057444418"/>

  <!-- Border with glow -->
  <rect x="40" y="40" width="1120" height="550" fill="none" stroke="url(#goldGradient)" stroke-width="3" rx="12" filter="url(#softGlow)"/>

  <!-- Icon circle with premium background -->
  <circle cx="150" cy="200" r="75" fill="#CFAE58" opacity="0.15" filter="url(#softGlow)"/>
  <circle cx="150" cy="200" r="70" fill="#CFAE58" opacity="0.25"/>
  <text x="150" y="235" font-size="90" text-anchor="middle" fill="#CFAE58" filter="url(#glow)">⚖️</text>

  <!-- Premium logo (crown) with enhanced styling -->
  <g transform="translate(100, 70)">
    <path d="M 30 20 L 40 35 L 35 35 Z M 50 15 L 60 35 L 45 35 Z M 65 20 L 75 35 L 70 35 Z M 30 35 L 75 35 L 73 45 L 32 45 Z"
          fill="url(#goldGradient)" filter="url(#glow)" stroke="#B89842" stroke-width="0.5"/>
    <circle cx="40" cy="25" r="3" fill="#4FD1C5" filter="url(#glow)"/>
    <circle cx="52" cy="20" r="4" fill="#4FD1C5" filter="url(#glow)"/>
    <circle cx="65" cy="25" r="3" fill="#4FD1C5" filter="url(#glow)"/>
  </g>

  <!-- Title with shadow -->
  <text x="280" y="180" font-family="Georgia, serif" font-size="72" font-weight="bold"
        fill="url(#goldGradient)" filter="url(#shadow)">Legal Information</text>

  <!-- Subtitle with subtle glow -->
  <text x="280" y="230" font-family="Arial, sans-serif" font-size="36"
        fill="#D6DEE6" opacity="0.95" filter="url(#softGlow)">Terms, Privacy &amp; Disclosures</text>

  <!-- Brand name with letter spacing -->
  <text x="280" y="300" font-family="Georgia, serif" font-size="32" font-weight="bold"
        fill="#CFAE58" letter-spacing="4" filter="url(#glow)">ROYAL KETA</text>

  <!-- Russian tagline -->
  <text x="280" y="340" font-family="Arial, sans-serif" font-size="22" font-style="italic"
        fill="#8B95A1" opacity="0.8">От икринки к королевской</text>

  <!-- Location -->
  <text x="280" y="380" font-family="Arial, sans-serif" font-size="20"
        fill="#8B95A1" opacity="0.7">Невельский район, Сахалин</text>

  <!-- Website with glow -->
  <text x="100" y="570" font-family="Arial, sans-serif" font-size="30" font-weight="bold"
        fill="#4FD1C5" filter="url(#glow)">royalketa.com</text>

  <!-- Enhanced decorative salmon silhouette -->
  <g transform="translate(950, 480)" opacity="0.2" filter="url(#softGlow)">
    <ellipse cx="0" cy="0" rx="90" ry="35" fill="#CFAE58"/>
    <path d="M 90 0 L 120 -18 L 130 0 L 120 18 Z" fill="#CFAE58"/>
    <path d="M -25 -35 L 0 -45 L 25 -35 Z" fill="#CFAE58"/>
    <ellipse cx="-50" cy="0" rx="15" ry="12" fill="#0B0F14"/>
  </g>

  <!-- Additional decorative caviar clusters -->
  <g opacity="0.2">
    <circle cx="1050" cy="120" r="6" fill="#CFAE58"/>
    <circle cx="1065" cy="115" r="5" fill="#CFAE58"/>
    <circle cx="1058" cy="130" r="4" fill="#CFAE58"/>
    <circle cx="150" cy="500" r="5" fill="#4FD1C5"/>
    <circle cx="165" cy="508" r="4" fill="#4FD1C5"/>
    <circle cx="140" cy="512" r="5" fill="#4FD1C5"/>
  </g>
</svg>