<svg width="1200" height="630" xmlns="http://www.w3.org/2000/svg">
  <defs>
    <linearGradient id="bgGradient" x1="0%" y1="0%" x2="100%" y2="100%">
      <stop offset="0%" style="stop-color:#0B0F14;stop-opacity:1" />
      <stop offset="50%" style="stop-color:#0F1619;stop-opacity:1" />
      <stop offset="100%" style="stop-color:#0F1922;stop-opacity:1" />
    </linearGradient>
    <linearGradient id="goldGradient" x1="0%" y1="0%" x2="100%" y2="0%">
      <stop offset="0%" style="stop-color:#E5D596;stop-opacity:1" />
      <stop offset="50%" style="stop-color:#CFAE58;stop-opacity:1" />
      <stop offset="100%" style="stop-color:#B89842;stop-opacity:1" />
    </linearGradient>
    <radialGradient id="oceanGradient" cx="50%" cy="50%" r="50%">
      <stop offset="0%" style="stop-color:#4FD1C5;stop-opacity:0.3" />
      <stop offset="100%" style="stop-color:#1E90A0;stop-opacity:0.05" />
    </radialGradient>
    <filter id="glow">
      <feGaussianBlur stdDeviation="5" result="coloredBlur"/>
      <feMerge>
        <feMergeNode in="coloredBlur"/>
        <feMergeNode in="SourceGraphic"/>
      </feMerge>
    </filter>
    <filter id="softGlow">
      <feGaussianBlur stdDeviation="8" result="coloredBlur"/>
      <feMerge>
        <feMergeNode in="coloredBlur"/>
        <feMergeNode in="SourceGraphic"/>
      </feMerge>
    </filter>
    <filter id="shadow">
      <feDropShadow dx="0" dy="4" stdDeviation="8" flood-color="#000000" flood-opacity="0.5"/>
    </filter>
  </defs>

  <!-- Background -->
  <rect width="1200" height="630" fill="url(#bgGradient)"/>

  <!-- Decorative ocean gradients -->
  <ellipse cx="1000" cy="150" rx="300" ry="200" fill="url(#oceanGradient)" opacity="0.4"/>
  <ellipse cx="200" cy="530" rx="250" ry="180" fill="url(#oceanGradient)" opacity="0.3"/>

  <!-- Wave patterns -->
  <path d="M 0 400 Q 300 350 600 400 T 1200 400 L 1200 630 L 0 630 Z" fill="#1E90A0" opacity="0.08"/>
  <path d="M 0 450 Q 250 420 500 450 T 1000 450 T 1200 450 L 1200 630 L 0 630 Z" fill="#4FD1C5" opacity="0.05"/>

  <!-- Caviar roe particles -->
  <circle cx="556.5610205120125" cy="366.482907842198" r="2.811919602843205" fill="#CFAE58" opacity="0.11554305685734748"/>
  <circle cx="457.5335433266924" cy="95.81624760649584" r="4.135869413192552" fill="#CFAE58" opacity="0.19064477455786843"/>
  <circle cx="851.2501222622541" cy="568.0776807157325" r="5.978254642021343" fill="#CFAE58" opacity="0.13914107120411895"/>
  <circle cx="234.2001275888843" cy="562.872957332959" r="3.502094129895447" fill="#CFAE58" opacity="0.11470958498585357"/>
  <circle cx="475.24654065353735" cy="62.00359335700811" r="2.2017647935624103" fill="#CFAE58" opacity="0.16486290363262218"/>
  <circle cx="393.092421549806" cy="112.3722030262698" r="2.15026067180155" fill="#CFAE58" opacity="0.19770197588085717"/>
  <circle cx="817.5328738764475" cy="396.03922891407507" r="2.9720579100550237" fill="#CFAE58" opacity="0.2313537924753362"/>
  <circle cx="1044.3539147162794" cy="40.39512211782438" r="4.00737061882039" fill="#CFAE58" opacity="0.21891288200074577"/>
  <circle cx="600.9249389543196" cy="98.66381087531745" r="4.394178005163984" fill="#CFAE58" opacity="0.2491867955559377"/>
  <circle cx="318.6418736513475" cy="238.43537868881486" r="5.570442571504768" fill="#CFAE58" opacity="0.11946331821415737"/>
  <circle cx="602.4307404712216" cy="94.35535252212938" r="5.172196115996821" fill="#CFAE58" opacity="0.23467920482152638"/>
  <circle cx="454.23092444648603" cy="282.76177644220155" r="5.269049054429385" fill="#CFAE58" opacity="0.20759946250966932"/>
  <circle cx="276.206354310032" cy="383.903252583476" r="5.366594535103241" fill="#CFAE58" opacity="0.23598393159561792"/>
  <circle cx="1144.7421733265091" cy="495.14559916871735" r="5.777739906246866" fill="#CFAE58" opacity="0.15283079837971772"/>
  <circle cx="889.2412787370281" cy="468.1850493636522" r="4.941333174163447" fill="#CFAE58" opacity="0.10375151664966209"/>
  <circle cx="865.3937832151287" cy="48.11232529556705" r="5.025388916119482" fill="#CFAE58" opacity="0.21282678376529193"/>
  <circle cx="144.31030145601457" cy="416.3382689800578" r="5.097271654503342" fill="#CFAE58" opacity="0.155940708920191"/>
  <circle cx="1193.3075531348632" cy="439.3829426395608" r="4.185815229984634" fill="#CFAE58" opacity="0.23891535693425528"/>
  <circle cx="129.71341462679442" cy="144.24255518818174" r="3.5164662604015415" fill="#CFAE58" opacity="0.2287749737740268"/>
  <circle cx="799.2940040170845" cy="317.5080968501274" r="2.45621882136306" fill="#CFAE58" opacity="0.15872381870107088"/>
  <circle cx="1180.3448454116108" cy="101.00265745178572" r="2.1883777953502976" fill="#CFAE58" opacity="0.13853491056376221"/>
  <circle cx="267.5543484476015" cy="559.9344482763149" r="2.9461426252863525" fill="#CFAE58" opacity="0.23944710253048712"/>
  <circle cx="931.3861502859226" cy="557.1680098820573" r="3.989205531038901" fill="#CFAE58" opacity="0.14908949986114187"/>
  <circle cx="101.92755081410807" cy="550.4787491071327" r="2.101381682646771" fill="#CFAE58" opacity="0.11354145064078038"/>
  <circle cx="943.6653391616545" cy="186.9669316324365" r="4.790253729051975" fill="#CFAE58" opacity="0.23004036204798936"/>
  <circle cx="802.6636743453778" cy="333.5013370421408" r="5.218913023782244" fill="#CFAE58" opacity="0.12637908564733574"/>
  <circle cx="301.04803612247986" cy="330.33784147009067" r="3.1320150167464016" fill="#CFAE58" opacity="0.18294213291509476"/>
  <circle cx="136.49337489881876" cy="358.52445281036245" r="2.702201664923579" fill="#CFAE58" opacity="0.18102571156984004"/>
  <circle cx="967.0313944798509" cy="404.30150055868484" r="2.854669743621699" fill="#CFAE58" opacity="0.21470859022223507"/>
  <circle cx="717.280973001058" cy="393.16959557858934" r="3.0077554112765084" fill="#CFAE58" opacity="0.17876908214448883"/>

  <!-- Border with glow -->
  <rect x="40" y="40" width="1120" height="550" fill="none" stroke="url(#goldGradient)" stroke-width="3" rx="12" filter="url(#softGlow)"/>

  <!-- Icon circle with premium background -->
  <circle cx="150" cy="200" r="75" fill="#CFAE58" opacity="0.15" filter="url(#softGlow)"/>
  <circle cx="150" cy="200" r="70" fill="#CFAE58" opacity="0.25"/>
  <text x="150" y="235" font-size="90" text-anchor="middle" fill="#CFAE58" filter="url(#glow)">⚖️</text>

  <!-- Premium logo (crown) with enhanced styling -->
  <g transform="translate(100, 70)">
    <path d="M 30 20 L 40 35 L 35 35 Z M 50 15 L 60 35 L 45 35 Z M 65 20 L 75 35 L 70 35 Z M 30 35 L 75 35 L 73 45 L 32 45 Z"
          fill="url(#goldGradient)" filter="url(#glow)" stroke="#B89842" stroke-width="0.5"/>
    <circle cx="40" cy="25" r="3" fill="#4FD1C5" filter="url(#glow)"/>
    <circle cx="52" cy="20" r="4" fill="#4FD1C5" filter="url(#glow)"/>
    <circle cx="65" cy="25" r="3" fill="#4FD1C5" filter="url(#glow)"/>
  </g>

  <!-- Title with shadow -->
  <text x="280" y="180" font-family="Georgia, serif" font-size="72" font-weight="bold"
        fill="url(#goldGradient)" filter="url(#shadow)">Legal Information</text>

  <!-- Subtitle with subtle glow -->
  <text x="280" y="230" font-family="Arial, sans-serif" font-size="36"
        fill="#D6DEE6" opacity="0.95" filter="url(#softGlow)">Terms, Privacy & Disclosures</text>

  <!-- Brand name with letter spacing -->
  <text x="280" y="300" font-family="Georgia, serif" font-size="32" font-weight="bold"
        fill="#CFAE58" letter-spacing="4" filter="url(#glow)">ROYAL KETA</text>

  <!-- Russian tagline -->
  <text x="280" y="340" font-family="Arial, sans-serif" font-size="22" font-style="italic"
        fill="#8B95A1" opacity="0.8">От икринки к королевской</text>

  <!-- Location -->
  <text x="280" y="380" font-family="Arial, sans-serif" font-size="20"
        fill="#8B95A1" opacity="0.7">Невельский район, Сахалин</text>

  <!-- Website with glow -->
  <text x="100" y="570" font-family="Arial, sans-serif" font-size="30" font-weight="bold"
        fill="#4FD1C5" filter="url(#glow)">royalketa.com</text>

  <!-- Enhanced decorative salmon silhouette -->
  <g transform="translate(950, 480)" opacity="0.2" filter="url(#softGlow)">
    <ellipse cx="0" cy="0" rx="90" ry="35" fill="#CFAE58"/>
    <path d="M 90 0 L 120 -18 L 130 0 L 120 18 Z" fill="#CFAE58"/>
    <path d="M -25 -35 L 0 -45 L 25 -35 Z" fill="#CFAE58"/>
    <ellipse cx="-50" cy="0" rx="15" ry="12" fill="#0B0F14"/>
  </g>

  <!-- Additional decorative caviar clusters -->
  <g opacity="0.2">
    <circle cx="1050" cy="120" r="6" fill="#CFAE58"/>
    <circle cx="1065" cy="115" r="5" fill="#CFAE58"/>
    <circle cx="1058" cy="130" r="4" fill="#CFAE58"/>
    <circle cx="150" cy="500" r="5" fill="#4FD1C5"/>
    <circle cx="165" cy="508" r="4" fill="#4FD1C5"/>
    <circle cx="140" cy="512" r="5" fill="#4FD1C5"/>
  </g>
</svg>