<svg width="1200" height="630" xmlns="http://www.w3.org/2000/svg">
  <defs>
    <linearGradient id="bgGradient" x1="0%" y1="0%" x2="100%" y2="100%">
      <stop offset="0%" style="stop-color:#0B0F14;stop-opacity:1" />
      <stop offset="50%" style="stop-color:#0F1619;stop-opacity:1" />
      <stop offset="100%" style="stop-color:#0F1922;stop-opacity:1" />
    </linearGradient>
    <linearGradient id="goldGradient" x1="0%" y1="0%" x2="100%" y2="0%">
      <stop offset="0%" style="stop-color:#E5D596;stop-opacity:1" />
      <stop offset="50%" style="stop-color:#CFAE58;stop-opacity:1" />
      <stop offset="100%" style="stop-color:#B89842;stop-opacity:1" />
    </linearGradient>
    <radialGradient id="oceanGradient" cx="50%" cy="50%" r="50%">
      <stop offset="0%" style="stop-color:#4FD1C5;stop-opacity:0.3" />
      <stop offset="100%" style="stop-color:#1E90A0;stop-opacity:0.05" />
    </radialGradient>
    <filter id="glow">
      <feGaussianBlur stdDeviation="5" result="coloredBlur"/>
      <feMerge>
        <feMergeNode in="coloredBlur"/>
        <feMergeNode in="SourceGraphic"/>
      </feMerge>
    </filter>
    <filter id="softGlow">
      <feGaussianBlur stdDeviation="8" result="coloredBlur"/>
      <feMerge>
        <feMergeNode in="coloredBlur"/>
        <feMergeNode in="SourceGraphic"/>
      </feMerge>
    </filter>
    <filter id="shadow">
      <feDropShadow dx="0" dy="4" stdDeviation="8" flood-color="#000000" flood-opacity="0.5"/>
    </filter>
  </defs>

  <!-- Background -->
  <rect width="1200" height="630" fill="url(#bgGradient)"/>

  <!-- Decorative ocean gradients -->
  <ellipse cx="1000" cy="150" rx="300" ry="200" fill="url(#oceanGradient)" opacity="0.4"/>
  <ellipse cx="200" cy="530" rx="250" ry="180" fill="url(#oceanGradient)" opacity="0.3"/>

  <!-- Wave patterns -->
  <path d="M 0 400 Q 300 350 600 400 T 1200 400 L 1200 630 L 0 630 Z" fill="#1E90A0" opacity="0.08"/>
  <path d="M 0 450 Q 250 420 500 450 T 1000 450 T 1200 450 L 1200 630 L 0 630 Z" fill="#4FD1C5" opacity="0.05"/>

  <!-- Caviar roe particles -->
  <circle cx="668.1974208786157" cy="6.610903593673613" r="4.217658999941042" fill="#CFAE58" opacity="0.21573959515263544"/>
  <circle cx="102.0618962165556" cy="505.8441046894711" r="3.433548219432838" fill="#CFAE58" opacity="0.12245029847045641"/>
  <circle cx="791.4220496777897" cy="517.2430707150885" r="5.318430748952274" fill="#CFAE58" opacity="0.1955369885963564"/>
  <circle cx="1078.9656497078454" cy="284.2071299304362" r="2.1154458861717234" fill="#CFAE58" opacity="0.14035773619519795"/>
  <circle cx="429.2764798330493" cy="37.02934868326545" r="4.8776025412757775" fill="#CFAE58" opacity="0.160074236732133"/>
  <circle cx="748.5456353676543" cy="331.7347580136341" r="2.597537158539257" fill="#CFAE58" opacity="0.2265004062387548"/>
  <circle cx="572.3181075007576" cy="389.9596997291213" r="2.4400668000451606" fill="#CFAE58" opacity="0.11416180616632111"/>
  <circle cx="600.3584169266087" cy="380.31728346750106" r="4.531025281913772" fill="#CFAE58" opacity="0.2137351567922235"/>
  <circle cx="525.3895394209682" cy="164.28094179905102" r="5.74251692987562" fill="#CFAE58" opacity="0.2299781043475677"/>
  <circle cx="906.2014030371554" cy="139.58754291445115" r="5.329582774994067" fill="#CFAE58" opacity="0.21399444074882795"/>
  <circle cx="658.578673689409" cy="532.4659443872525" r="4.720579613458704" fill="#CFAE58" opacity="0.13556345032606737"/>
  <circle cx="391.00338319619584" cy="184.06150832643948" r="3.907429880824276" fill="#CFAE58" opacity="0.1435282912036847"/>
  <circle cx="789.3697635662412" cy="483.7094885194343" r="2.258520834872904" fill="#CFAE58" opacity="0.24199983149518864"/>
  <circle cx="450.7924334902858" cy="496.817330759895" r="3.259680735559146" fill="#CFAE58" opacity="0.13092890403084145"/>
  <circle cx="466.8402715122383" cy="50.4834100017887" r="4.2111201185543035" fill="#CFAE58" opacity="0.2175255534406149"/>
  <circle cx="947.1005285796957" cy="469.10334857329207" r="3.402519310476303" fill="#CFAE58" opacity="0.10435256139796609"/>
  <circle cx="833.93682499183" cy="147.23662230704346" r="5.348006897560124" fill="#CFAE58" opacity="0.21943104534447969"/>
  <circle cx="490.0971590229252" cy="452.25938090739" r="4.32731737889878" fill="#CFAE58" opacity="0.2103318564222998"/>
  <circle cx="1071.40993140773" cy="510.94380628775394" r="4.985144414028918" fill="#CFAE58" opacity="0.16638517392847507"/>
  <circle cx="718.6675558216682" cy="175.38811105645692" r="3.524739145310195" fill="#CFAE58" opacity="0.2112847019385083"/>
  <circle cx="263.6561238827559" cy="290.99188688819714" r="2.4497772805091693" fill="#CFAE58" opacity="0.24875594836847098"/>
  <circle cx="350.00848817144674" cy="133.22907191071823" r="5.850918551887646" fill="#CFAE58" opacity="0.12342471310448083"/>
  <circle cx="862.9426592539752" cy="534.8783426358965" r="4.621896636772966" fill="#CFAE58" opacity="0.23037963435662312"/>
  <circle cx="488.72853278383405" cy="388.5580713936544" r="3.086501926487184" fill="#CFAE58" opacity="0.13089960083630825"/>
  <circle cx="1079.80994102235" cy="243.52013627506722" r="3.3180011826489597" fill="#CFAE58" opacity="0.12776606859188003"/>
  <circle cx="246.46715801792362" cy="86.092875050875" r="5.587032772588094" fill="#CFAE58" opacity="0.16539936649836728"/>
  <circle cx="184.56111102924186" cy="80.72333170010477" r="2.4522452864597564" fill="#CFAE58" opacity="0.20759356997057515"/>
  <circle cx="271.22062289385127" cy="174.2301230287124" r="3.545026834949541" fill="#CFAE58" opacity="0.12758131701835648"/>
  <circle cx="1071.5384476373533" cy="23.276599630504347" r="3.570443886210432" fill="#CFAE58" opacity="0.18703934504756692"/>
  <circle cx="677.7858320181565" cy="453.12032260394335" r="5.048377952776097" fill="#CFAE58" opacity="0.14499913844905532"/>

  <!-- Border with glow -->
  <rect x="40" y="40" width="1120" height="550" fill="none" stroke="url(#goldGradient)" stroke-width="3" rx="12" filter="url(#softGlow)"/>

  <!-- Icon circle with premium background -->
  <circle cx="150" cy="200" r="75" fill="#CFAE58" opacity="0.15" filter="url(#softGlow)"/>
  <circle cx="150" cy="200" r="70" fill="#CFAE58" opacity="0.25"/>
  <text x="150" y="235" font-size="90" text-anchor="middle" fill="#CFAE58" filter="url(#glow)">⚖️</text>

  <!-- Premium logo (crown) with enhanced styling -->
  <g transform="translate(100, 70)">
    <path d="M 30 20 L 40 35 L 35 35 Z M 50 15 L 60 35 L 45 35 Z M 65 20 L 75 35 L 70 35 Z M 30 35 L 75 35 L 73 45 L 32 45 Z"
          fill="url(#goldGradient)" filter="url(#glow)" stroke="#B89842" stroke-width="0.5"/>
    <circle cx="40" cy="25" r="3" fill="#4FD1C5" filter="url(#glow)"/>
    <circle cx="52" cy="20" r="4" fill="#4FD1C5" filter="url(#glow)"/>
    <circle cx="65" cy="25" r="3" fill="#4FD1C5" filter="url(#glow)"/>
  </g>

  <!-- Title with shadow -->
  <text x="280" y="180" font-family="Georgia, serif" font-size="72" font-weight="bold"
        fill="url(#goldGradient)" filter="url(#shadow)">Legal Information</text>

  <!-- Subtitle with subtle glow -->
  <text x="280" y="230" font-family="Arial, sans-serif" font-size="36"
        fill="#D6DEE6" opacity="0.95" filter="url(#softGlow)">Terms, Privacy &amp; Disclosures</text>

  <!-- Brand name with letter spacing -->
  <text x="280" y="300" font-family="Georgia, serif" font-size="32" font-weight="bold"
        fill="#CFAE58" letter-spacing="4" filter="url(#glow)">ROYAL KETA</text>

  <!-- Russian tagline -->
  <text x="280" y="340" font-family="Arial, sans-serif" font-size="22" font-style="italic"
        fill="#8B95A1" opacity="0.8">От икринки к королевской</text>

  <!-- Location -->
  <text x="280" y="380" font-family="Arial, sans-serif" font-size="20"
        fill="#8B95A1" opacity="0.7">Невельский район, Сахалин</text>

  <!-- Website with glow -->
  <text x="100" y="570" font-family="Arial, sans-serif" font-size="30" font-weight="bold"
        fill="#4FD1C5" filter="url(#glow)">royalketa.com</text>

  <!-- Enhanced decorative salmon silhouette -->
  <g transform="translate(950, 480)" opacity="0.2" filter="url(#softGlow)">
    <ellipse cx="0" cy="0" rx="90" ry="35" fill="#CFAE58"/>
    <path d="M 90 0 L 120 -18 L 130 0 L 120 18 Z" fill="#CFAE58"/>
    <path d="M -25 -35 L 0 -45 L 25 -35 Z" fill="#CFAE58"/>
    <ellipse cx="-50" cy="0" rx="15" ry="12" fill="#0B0F14"/>
  </g>

  <!-- Additional decorative caviar clusters -->
  <g opacity="0.2">
    <circle cx="1050" cy="120" r="6" fill="#CFAE58"/>
    <circle cx="1065" cy="115" r="5" fill="#CFAE58"/>
    <circle cx="1058" cy="130" r="4" fill="#CFAE58"/>
    <circle cx="150" cy="500" r="5" fill="#4FD1C5"/>
    <circle cx="165" cy="508" r="4" fill="#4FD1C5"/>
    <circle cx="140" cy="512" r="5" fill="#4FD1C5"/>
  </g>
</svg>