<svg width="1200" height="630" xmlns="http://www.w3.org/2000/svg">
  <defs>
    <linearGradient id="bgGradient" x1="0%" y1="0%" x2="100%" y2="100%">
      <stop offset="0%" style="stop-color:#0B0F14;stop-opacity:1" />
      <stop offset="50%" style="stop-color:#0F1619;stop-opacity:1" />
      <stop offset="100%" style="stop-color:#0F1922;stop-opacity:1" />
    </linearGradient>
    <linearGradient id="goldGradient" x1="0%" y1="0%" x2="100%" y2="0%">
      <stop offset="0%" style="stop-color:#E5D596;stop-opacity:1" />
      <stop offset="50%" style="stop-color:#CFAE58;stop-opacity:1" />
      <stop offset="100%" style="stop-color:#B89842;stop-opacity:1" />
    </linearGradient>
    <radialGradient id="oceanGradient" cx="50%" cy="50%" r="50%">
      <stop offset="0%" style="stop-color:#4FD1C5;stop-opacity:0.3" />
      <stop offset="100%" style="stop-color:#1E90A0;stop-opacity:0.05" />
    </radialGradient>
    <filter id="glow">
      <feGaussianBlur stdDeviation="5" result="coloredBlur"/>
      <feMerge>
        <feMergeNode in="coloredBlur"/>
        <feMergeNode in="SourceGraphic"/>
      </feMerge>
    </filter>
    <filter id="softGlow">
      <feGaussianBlur stdDeviation="8" result="coloredBlur"/>
      <feMerge>
        <feMergeNode in="coloredBlur"/>
        <feMergeNode in="SourceGraphic"/>
      </feMerge>
    </filter>
    <filter id="shadow">
      <feDropShadow dx="0" dy="4" stdDeviation="8" flood-color="#000000" flood-opacity="0.5"/>
    </filter>
  </defs>

  <!-- Background -->
  <rect width="1200" height="630" fill="url(#bgGradient)"/>

  <!-- Decorative ocean gradients -->
  <ellipse cx="1000" cy="150" rx="300" ry="200" fill="url(#oceanGradient)" opacity="0.4"/>
  <ellipse cx="200" cy="530" rx="250" ry="180" fill="url(#oceanGradient)" opacity="0.3"/>

  <!-- Wave patterns -->
  <path d="M 0 400 Q 300 350 600 400 T 1200 400 L 1200 630 L 0 630 Z" fill="#1E90A0" opacity="0.08"/>
  <path d="M 0 450 Q 250 420 500 450 T 1000 450 T 1200 450 L 1200 630 L 0 630 Z" fill="#4FD1C5" opacity="0.05"/>

  <!-- Caviar roe particles -->
  <circle cx="301.0085121002371" cy="194.47656726773278" r="2.672799654761243" fill="#CFAE58" opacity="0.22600863634350182"/>
  <circle cx="409.38715971855356" cy="370.07257040866943" r="4.181436677767275" fill="#CFAE58" opacity="0.1945558381693293"/>
  <circle cx="297.5959023031011" cy="262.0341564330161" r="2.5385563214158307" fill="#CFAE58" opacity="0.13115454594245055"/>
  <circle cx="202.13674098034556" cy="134.68324301334906" r="2.2778511278845857" fill="#CFAE58" opacity="0.2306726450410288"/>
  <circle cx="442.5692889642698" cy="550.7949105633584" r="5.243412163449418" fill="#CFAE58" opacity="0.1756908041479744"/>
  <circle cx="33.94507701501919" cy="523.4659437403842" r="5.854159901173191" fill="#CFAE58" opacity="0.13837501504778846"/>
  <circle cx="417.2175311481168" cy="156.33150200553789" r="2.2403986042286883" fill="#CFAE58" opacity="0.13911408983274573"/>
  <circle cx="781.5769555727154" cy="60.09424810089777" r="4.624299096198611" fill="#CFAE58" opacity="0.20700181189520872"/>
  <circle cx="166.74716937383928" cy="268.7245644212916" r="5.088687202060833" fill="#CFAE58" opacity="0.13959854098820723"/>
  <circle cx="573.1392840780488" cy="168.32116238491167" r="4.530957042905675" fill="#CFAE58" opacity="0.20442088858638194"/>
  <circle cx="977.8667110868455" cy="328.175110910502" r="5.523093560219078" fill="#CFAE58" opacity="0.1105071507724237"/>
  <circle cx="0.2670678879339583" cy="473.0311818608355" r="2.4840802527223733" fill="#CFAE58" opacity="0.2390144622569179"/>
  <circle cx="634.5117268555113" cy="454.56731658371314" r="3.343124587318705" fill="#CFAE58" opacity="0.18439909498822035"/>
  <circle cx="942.2729087896548" cy="626.9883147366012" r="5.115099878281836" fill="#CFAE58" opacity="0.22177935174913982"/>
  <circle cx="552.9918894824775" cy="22.997591691879972" r="5.853374261856483" fill="#CFAE58" opacity="0.20683777250187263"/>
  <circle cx="749.4189078947196" cy="263.40925267457567" r="3.7225416206594666" fill="#CFAE58" opacity="0.23723870993559001"/>
  <circle cx="1190.1079382160628" cy="477.3502906542409" r="4.593552399248958" fill="#CFAE58" opacity="0.11232670739206262"/>
  <circle cx="342.0351460634067" cy="385.68576999228964" r="3.9667084991258186" fill="#CFAE58" opacity="0.10103162904124942"/>
  <circle cx="1168.719736293656" cy="396.66998360148034" r="5.5314592020527" fill="#CFAE58" opacity="0.19024343815530548"/>
  <circle cx="316.5290211459753" cy="231.84328841274322" r="2.988180224881658" fill="#CFAE58" opacity="0.2462435769346139"/>
  <circle cx="281.4868897056832" cy="311.69737585521295" r="2.566096020151832" fill="#CFAE58" opacity="0.2239583170817716"/>
  <circle cx="1038.3310553867748" cy="375.7675064761043" r="2.7562005321256366" fill="#CFAE58" opacity="0.11740933731567664"/>
  <circle cx="764.4079052401745" cy="24.09122603144607" r="2.345433109927466" fill="#CFAE58" opacity="0.18751827254077352"/>
  <circle cx="541.4204035556909" cy="534.9203224511133" r="2.7800238639335344" fill="#CFAE58" opacity="0.13744783713770448"/>
  <circle cx="1157.8772982611301" cy="447.13701468640403" r="2.2210728164372107" fill="#CFAE58" opacity="0.24776350760760102"/>
  <circle cx="1107.5605084986228" cy="622.2948446920263" r="3.412723204032858" fill="#CFAE58" opacity="0.1728730593051051"/>
  <circle cx="422.9561068459945" cy="147.36929448485267" r="3.9059124442529782" fill="#CFAE58" opacity="0.14533537732982077"/>
  <circle cx="192.53598919802624" cy="297.7022493655492" r="4.628820884660885" fill="#CFAE58" opacity="0.1587477929322115"/>
  <circle cx="80.68898168933458" cy="21.16719363778383" r="3.201439062680527" fill="#CFAE58" opacity="0.12862144927347346"/>
  <circle cx="1019.2572563719843" cy="124.90773796384381" r="4.5520740913180395" fill="#CFAE58" opacity="0.18188169185296837"/>

  <!-- Border with glow -->
  <rect x="40" y="40" width="1120" height="550" fill="none" stroke="url(#goldGradient)" stroke-width="3" rx="12" filter="url(#softGlow)"/>

  <!-- Icon circle with premium background -->
  <circle cx="150" cy="200" r="75" fill="#CFAE58" opacity="0.15" filter="url(#softGlow)"/>
  <circle cx="150" cy="200" r="70" fill="#CFAE58" opacity="0.25"/>
  <text x="150" y="235" font-size="90" text-anchor="middle" fill="#CFAE58" filter="url(#glow)">⚖️</text>

  <!-- Premium logo (crown) with enhanced styling -->
  <g transform="translate(100, 70)">
    <path d="M 30 20 L 40 35 L 35 35 Z M 50 15 L 60 35 L 45 35 Z M 65 20 L 75 35 L 70 35 Z M 30 35 L 75 35 L 73 45 L 32 45 Z"
          fill="url(#goldGradient)" filter="url(#glow)" stroke="#B89842" stroke-width="0.5"/>
    <circle cx="40" cy="25" r="3" fill="#4FD1C5" filter="url(#glow)"/>
    <circle cx="52" cy="20" r="4" fill="#4FD1C5" filter="url(#glow)"/>
    <circle cx="65" cy="25" r="3" fill="#4FD1C5" filter="url(#glow)"/>
  </g>

  <!-- Title with shadow -->
  <text x="280" y="180" font-family="Georgia, serif" font-size="72" font-weight="bold"
        fill="url(#goldGradient)" filter="url(#shadow)">Legal Information</text>

  <!-- Subtitle with subtle glow -->
  <text x="280" y="230" font-family="Arial, sans-serif" font-size="36"
        fill="#D6DEE6" opacity="0.95" filter="url(#softGlow)">Terms, Privacy &amp; Disclosures</text>

  <!-- Brand name with letter spacing -->
  <text x="280" y="300" font-family="Georgia, serif" font-size="32" font-weight="bold"
        fill="#CFAE58" letter-spacing="4" filter="url(#glow)">ROYAL KETA</text>

  <!-- Russian tagline -->
  <text x="280" y="340" font-family="Arial, sans-serif" font-size="22" font-style="italic"
        fill="#8B95A1" opacity="0.8">От икринки к королевской</text>

  <!-- Location -->
  <text x="280" y="380" font-family="Arial, sans-serif" font-size="20"
        fill="#8B95A1" opacity="0.7">Невельский район, Сахалин</text>

  <!-- Website with glow -->
  <text x="100" y="570" font-family="Arial, sans-serif" font-size="30" font-weight="bold"
        fill="#4FD1C5" filter="url(#glow)">royalketa.com</text>

  <!-- Enhanced decorative salmon silhouette -->
  <g transform="translate(950, 480)" opacity="0.2" filter="url(#softGlow)">
    <ellipse cx="0" cy="0" rx="90" ry="35" fill="#CFAE58"/>
    <path d="M 90 0 L 120 -18 L 130 0 L 120 18 Z" fill="#CFAE58"/>
    <path d="M -25 -35 L 0 -45 L 25 -35 Z" fill="#CFAE58"/>
    <ellipse cx="-50" cy="0" rx="15" ry="12" fill="#0B0F14"/>
  </g>

  <!-- Additional decorative caviar clusters -->
  <g opacity="0.2">
    <circle cx="1050" cy="120" r="6" fill="#CFAE58"/>
    <circle cx="1065" cy="115" r="5" fill="#CFAE58"/>
    <circle cx="1058" cy="130" r="4" fill="#CFAE58"/>
    <circle cx="150" cy="500" r="5" fill="#4FD1C5"/>
    <circle cx="165" cy="508" r="4" fill="#4FD1C5"/>
    <circle cx="140" cy="512" r="5" fill="#4FD1C5"/>
  </g>
</svg>