<svg width="1200" height="630" xmlns="http://www.w3.org/2000/svg">
  <defs>
    <linearGradient id="bgGradient" x1="0%" y1="0%" x2="100%" y2="100%">
      <stop offset="0%" style="stop-color:#0B0F14;stop-opacity:1" />
      <stop offset="50%" style="stop-color:#0F1619;stop-opacity:1" />
      <stop offset="100%" style="stop-color:#0F1922;stop-opacity:1" />
    </linearGradient>
    <linearGradient id="goldGradient" x1="0%" y1="0%" x2="100%" y2="0%">
      <stop offset="0%" style="stop-color:#E5D596;stop-opacity:1" />
      <stop offset="50%" style="stop-color:#CFAE58;stop-opacity:1" />
      <stop offset="100%" style="stop-color:#B89842;stop-opacity:1" />
    </linearGradient>
    <radialGradient id="oceanGradient" cx="50%" cy="50%" r="50%">
      <stop offset="0%" style="stop-color:#4FD1C5;stop-opacity:0.3" />
      <stop offset="100%" style="stop-color:#1E90A0;stop-opacity:0.05" />
    </radialGradient>
    <filter id="glow">
      <feGaussianBlur stdDeviation="5" result="coloredBlur"/>
      <feMerge>
        <feMergeNode in="coloredBlur"/>
        <feMergeNode in="SourceGraphic"/>
      </feMerge>
    </filter>
    <filter id="softGlow">
      <feGaussianBlur stdDeviation="8" result="coloredBlur"/>
      <feMerge>
        <feMergeNode in="coloredBlur"/>
        <feMergeNode in="SourceGraphic"/>
      </feMerge>
    </filter>
    <filter id="shadow">
      <feDropShadow dx="0" dy="4" stdDeviation="8" flood-color="#000000" flood-opacity="0.5"/>
    </filter>
  </defs>

  <!-- Background -->
  <rect width="1200" height="630" fill="url(#bgGradient)"/>

  <!-- Decorative ocean gradients -->
  <ellipse cx="1000" cy="150" rx="300" ry="200" fill="url(#oceanGradient)" opacity="0.4"/>
  <ellipse cx="200" cy="530" rx="250" ry="180" fill="url(#oceanGradient)" opacity="0.3"/>

  <!-- Wave patterns -->
  <path d="M 0 400 Q 300 350 600 400 T 1200 400 L 1200 630 L 0 630 Z" fill="#1E90A0" opacity="0.08"/>
  <path d="M 0 450 Q 250 420 500 450 T 1000 450 T 1200 450 L 1200 630 L 0 630 Z" fill="#4FD1C5" opacity="0.05"/>

  <!-- Caviar roe particles -->
  <circle cx="648.7075096244533" cy="235.91125215168313" r="2.960352377608322" fill="#CFAE58" opacity="0.13483811052563519"/>
  <circle cx="189.65366098917843" cy="385.89446352683535" r="2.079144331944131" fill="#CFAE58" opacity="0.1970104080838584"/>
  <circle cx="173.84688892897984" cy="71.2776875557173" r="4.886349442131313" fill="#CFAE58" opacity="0.17101838347611048"/>
  <circle cx="1050.866479595386" cy="383.1810673013826" r="4.893633251389194" fill="#CFAE58" opacity="0.23612408862653936"/>
  <circle cx="893.6881451569427" cy="329.267311075107" r="2.2460099250737784" fill="#CFAE58" opacity="0.21409178884506982"/>
  <circle cx="1165.9637274437455" cy="236.31927032634667" r="3.9506983242640477" fill="#CFAE58" opacity="0.226940955534438"/>
  <circle cx="1068.4798163624528" cy="71.41218475015884" r="2.185228804469441" fill="#CFAE58" opacity="0.22007360790374136"/>
  <circle cx="258.20187635932876" cy="8.810947103844434" r="5.2545194119147025" fill="#CFAE58" opacity="0.13579037665364263"/>
  <circle cx="178.28990854564887" cy="624.895620147281" r="3.9680083507534745" fill="#CFAE58" opacity="0.10821157494424462"/>
  <circle cx="504.9465315136467" cy="565.1297611279402" r="2.6510771060161824" fill="#CFAE58" opacity="0.23551932875465276"/>
  <circle cx="797.100791110102" cy="407.49896442484754" r="4.103245990365278" fill="#CFAE58" opacity="0.14676952526396972"/>
  <circle cx="428.9807186302796" cy="47.72490116377456" r="3.5463434049735563" fill="#CFAE58" opacity="0.1862842837455275"/>
  <circle cx="312.11023803442146" cy="203.67280752362296" r="2.9335327966349505" fill="#CFAE58" opacity="0.11190819422595244"/>
  <circle cx="639.8944836672007" cy="241.33454524636107" r="5.799807596270279" fill="#CFAE58" opacity="0.1384762313593911"/>
  <circle cx="1106.708817844342" cy="154.99547153191168" r="2.5476197934341087" fill="#CFAE58" opacity="0.1111065636632043"/>
  <circle cx="14.196567423516981" cy="336.3041123637676" r="3.4709991617993703" fill="#CFAE58" opacity="0.24557839960126582"/>
  <circle cx="342.1700380851907" cy="214.67067720548087" r="5.972917976792761" fill="#CFAE58" opacity="0.23178206600187262"/>
  <circle cx="851.9593719896596" cy="447.1300593280787" r="5.694551430665835" fill="#CFAE58" opacity="0.21716877135020948"/>
  <circle cx="548.7760674364444" cy="358.12100893100086" r="2.0215563289133405" fill="#CFAE58" opacity="0.13309210524572876"/>
  <circle cx="1109.7191097122306" cy="95.0705297628115" r="5.588649361749079" fill="#CFAE58" opacity="0.1841156893767269"/>
  <circle cx="612.666450757781" cy="279.2405898360871" r="5.085560423689194" fill="#CFAE58" opacity="0.1880865895884315"/>
  <circle cx="121.58293138871583" cy="323.5119726105793" r="5.221506276459856" fill="#CFAE58" opacity="0.11244869253602864"/>
  <circle cx="1155.223442640003" cy="247.07101495588103" r="2.9885872254560892" fill="#CFAE58" opacity="0.1505010971612405"/>
  <circle cx="374.85310799064814" cy="136.35546265765478" r="3.289437372423322" fill="#CFAE58" opacity="0.1690727304700475"/>
  <circle cx="763.8564379322714" cy="290.72495063703485" r="5.178718149007523" fill="#CFAE58" opacity="0.19346608166709803"/>
  <circle cx="369.47537928688286" cy="456.3508792235784" r="3.434229695065717" fill="#CFAE58" opacity="0.16967562877062708"/>
  <circle cx="1125.2511783585753" cy="547.1602044440548" r="5.989107998252782" fill="#CFAE58" opacity="0.10397378484428178"/>
  <circle cx="442.1179755568776" cy="506.74663874931974" r="3.975061859674847" fill="#CFAE58" opacity="0.1992115695173728"/>
  <circle cx="772.0421006124075" cy="59.54526111072041" r="3.8997625207128124" fill="#CFAE58" opacity="0.19015326447421038"/>
  <circle cx="1108.6748671539144" cy="357.8561129071459" r="2.9311629654140328" fill="#CFAE58" opacity="0.1820599344788929"/>

  <!-- Border with glow -->
  <rect x="40" y="40" width="1120" height="550" fill="none" stroke="url(#goldGradient)" stroke-width="3" rx="12" filter="url(#softGlow)"/>

  <!-- Icon circle with premium background -->
  <circle cx="150" cy="200" r="75" fill="#CFAE58" opacity="0.15" filter="url(#softGlow)"/>
  <circle cx="150" cy="200" r="70" fill="#CFAE58" opacity="0.25"/>
  <text x="150" y="235" font-size="90" text-anchor="middle" fill="#CFAE58" filter="url(#glow)">⚖️</text>

  <!-- Premium logo (crown) with enhanced styling -->
  <g transform="translate(100, 70)">
    <path d="M 30 20 L 40 35 L 35 35 Z M 50 15 L 60 35 L 45 35 Z M 65 20 L 75 35 L 70 35 Z M 30 35 L 75 35 L 73 45 L 32 45 Z"
          fill="url(#goldGradient)" filter="url(#glow)" stroke="#B89842" stroke-width="0.5"/>
    <circle cx="40" cy="25" r="3" fill="#4FD1C5" filter="url(#glow)"/>
    <circle cx="52" cy="20" r="4" fill="#4FD1C5" filter="url(#glow)"/>
    <circle cx="65" cy="25" r="3" fill="#4FD1C5" filter="url(#glow)"/>
  </g>

  <!-- Title with shadow -->
  <text x="280" y="180" font-family="Georgia, serif" font-size="72" font-weight="bold"
        fill="url(#goldGradient)" filter="url(#shadow)">Legal Information</text>

  <!-- Subtitle with subtle glow -->
  <text x="280" y="230" font-family="Arial, sans-serif" font-size="36"
        fill="#D6DEE6" opacity="0.95" filter="url(#softGlow)">Terms, Privacy &amp; Disclosures</text>

  <!-- Brand name with letter spacing -->
  <text x="280" y="300" font-family="Georgia, serif" font-size="32" font-weight="bold"
        fill="#CFAE58" letter-spacing="4" filter="url(#glow)">ROYAL KETA</text>

  <!-- Russian tagline -->
  <text x="280" y="340" font-family="Arial, sans-serif" font-size="22" font-style="italic"
        fill="#8B95A1" opacity="0.8">От икринки к королевской</text>

  <!-- Location -->
  <text x="280" y="380" font-family="Arial, sans-serif" font-size="20"
        fill="#8B95A1" opacity="0.7">Невельский район, Сахалин</text>

  <!-- Website with glow -->
  <text x="100" y="570" font-family="Arial, sans-serif" font-size="30" font-weight="bold"
        fill="#4FD1C5" filter="url(#glow)">royalketa.com</text>

  <!-- Enhanced decorative salmon silhouette -->
  <g transform="translate(950, 480)" opacity="0.2" filter="url(#softGlow)">
    <ellipse cx="0" cy="0" rx="90" ry="35" fill="#CFAE58"/>
    <path d="M 90 0 L 120 -18 L 130 0 L 120 18 Z" fill="#CFAE58"/>
    <path d="M -25 -35 L 0 -45 L 25 -35 Z" fill="#CFAE58"/>
    <ellipse cx="-50" cy="0" rx="15" ry="12" fill="#0B0F14"/>
  </g>

  <!-- Additional decorative caviar clusters -->
  <g opacity="0.2">
    <circle cx="1050" cy="120" r="6" fill="#CFAE58"/>
    <circle cx="1065" cy="115" r="5" fill="#CFAE58"/>
    <circle cx="1058" cy="130" r="4" fill="#CFAE58"/>
    <circle cx="150" cy="500" r="5" fill="#4FD1C5"/>
    <circle cx="165" cy="508" r="4" fill="#4FD1C5"/>
    <circle cx="140" cy="512" r="5" fill="#4FD1C5"/>
  </g>
</svg>