<svg width="1200" height="630" xmlns="http://www.w3.org/2000/svg">
  <defs>
    <linearGradient id="bgGradient" x1="0%" y1="0%" x2="100%" y2="100%">
      <stop offset="0%" style="stop-color:#0B0F14;stop-opacity:1" />
      <stop offset="50%" style="stop-color:#0F1619;stop-opacity:1" />
      <stop offset="100%" style="stop-color:#0F1922;stop-opacity:1" />
    </linearGradient>
    <linearGradient id="goldGradient" x1="0%" y1="0%" x2="100%" y2="0%">
      <stop offset="0%" style="stop-color:#E5D596;stop-opacity:1" />
      <stop offset="50%" style="stop-color:#CFAE58;stop-opacity:1" />
      <stop offset="100%" style="stop-color:#B89842;stop-opacity:1" />
    </linearGradient>
    <radialGradient id="oceanGradient" cx="50%" cy="50%" r="50%">
      <stop offset="0%" style="stop-color:#4FD1C5;stop-opacity:0.3" />
      <stop offset="100%" style="stop-color:#1E90A0;stop-opacity:0.05" />
    </radialGradient>
    <filter id="glow">
      <feGaussianBlur stdDeviation="5" result="coloredBlur"/>
      <feMerge>
        <feMergeNode in="coloredBlur"/>
        <feMergeNode in="SourceGraphic"/>
      </feMerge>
    </filter>
    <filter id="softGlow">
      <feGaussianBlur stdDeviation="8" result="coloredBlur"/>
      <feMerge>
        <feMergeNode in="coloredBlur"/>
        <feMergeNode in="SourceGraphic"/>
      </feMerge>
    </filter>
    <filter id="shadow">
      <feDropShadow dx="0" dy="4" stdDeviation="8" flood-color="#000000" flood-opacity="0.5"/>
    </filter>
  </defs>

  <!-- Background -->
  <rect width="1200" height="630" fill="url(#bgGradient)"/>

  <!-- Decorative ocean gradients -->
  <ellipse cx="1000" cy="150" rx="300" ry="200" fill="url(#oceanGradient)" opacity="0.4"/>
  <ellipse cx="200" cy="530" rx="250" ry="180" fill="url(#oceanGradient)" opacity="0.3"/>

  <!-- Wave patterns -->
  <path d="M 0 400 Q 300 350 600 400 T 1200 400 L 1200 630 L 0 630 Z" fill="#1E90A0" opacity="0.08"/>
  <path d="M 0 450 Q 250 420 500 450 T 1000 450 T 1200 450 L 1200 630 L 0 630 Z" fill="#4FD1C5" opacity="0.05"/>

  <!-- Caviar roe particles -->
  <circle cx="461.2843783615101" cy="333.44736477090555" r="3.1126545111433317" fill="#CFAE58" opacity="0.1613531469131168"/>
  <circle cx="970.2067681458293" cy="195.88627761169383" r="5.174319882493879" fill="#CFAE58" opacity="0.16231801390521697"/>
  <circle cx="866.7304865828005" cy="337.8078457561115" r="4.366843057518555" fill="#CFAE58" opacity="0.16652655189732102"/>
  <circle cx="666.0041441605484" cy="231.01875297020644" r="3.0600073637626015" fill="#CFAE58" opacity="0.21378307688657128"/>
  <circle cx="409.2361219218556" cy="254.58543726010453" r="2.5459432952212184" fill="#CFAE58" opacity="0.17516573857019874"/>
  <circle cx="509.8859033505502" cy="210.4746479216296" r="2.16060409514052" fill="#CFAE58" opacity="0.10819467284532286"/>
  <circle cx="921.4091437857172" cy="216.43021707038255" r="2.6267245924031046" fill="#CFAE58" opacity="0.11382965579069484"/>
  <circle cx="1024.8185484586968" cy="159.85801446299783" r="2.996805022691678" fill="#CFAE58" opacity="0.23706273298011196"/>
  <circle cx="285.5369449352275" cy="531.4683231478509" r="4.468876103159758" fill="#CFAE58" opacity="0.16433437719609695"/>
  <circle cx="23.752493526120766" cy="371.7058038250933" r="3.8016328240509827" fill="#CFAE58" opacity="0.24105465558739442"/>
  <circle cx="1129.985539745321" cy="467.27642099630344" r="5.993237352710329" fill="#CFAE58" opacity="0.1273702876256185"/>
  <circle cx="246.5855451717538" cy="17.736137105602396" r="4.013671255555813" fill="#CFAE58" opacity="0.19086446368436472"/>
  <circle cx="1191.5359351718962" cy="219.5433101482915" r="2.119927705579283" fill="#CFAE58" opacity="0.2025306392740897"/>
  <circle cx="702.8950076395206" cy="421.14727316021396" r="5.204072452840876" fill="#CFAE58" opacity="0.2437215848403967"/>
  <circle cx="648.4805625300202" cy="141.1526754998939" r="4.250573700336819" fill="#CFAE58" opacity="0.2080535602684233"/>
  <circle cx="413.6195810679447" cy="292.099912327479" r="5.618586914803501" fill="#CFAE58" opacity="0.19198684193108878"/>
  <circle cx="236.4229610290965" cy="11.331943088184417" r="2.545956172092661" fill="#CFAE58" opacity="0.11223019715690101"/>
  <circle cx="543.8644778897285" cy="492.37673108408245" r="2.2762168305360064" fill="#CFAE58" opacity="0.199673148126818"/>
  <circle cx="559.9409703485418" cy="443.03425840026546" r="3.8891800560148875" fill="#CFAE58" opacity="0.21604986862805425"/>
  <circle cx="209.48890280145363" cy="2.462734001848923" r="5.528946780443951" fill="#CFAE58" opacity="0.18352303083425253"/>
  <circle cx="141.544739187971" cy="550.5168038023329" r="2.9847230883629963" fill="#CFAE58" opacity="0.1740097752986387"/>
  <circle cx="376.03083631804293" cy="507.2669663539517" r="5.165368237632789" fill="#CFAE58" opacity="0.12959168931985526"/>
  <circle cx="696.6786037420726" cy="84.43487353500035" r="3.811532864585934" fill="#CFAE58" opacity="0.23671889404637325"/>
  <circle cx="493.62730304932074" cy="193.30539445954116" r="5.577175027126659" fill="#CFAE58" opacity="0.22335417519648065"/>
  <circle cx="984.3113285722982" cy="528.102845711772" r="3.980608213044123" fill="#CFAE58" opacity="0.22375151780993963"/>
  <circle cx="555.3638731381126" cy="247.899856244193" r="4.2483785695277" fill="#CFAE58" opacity="0.11948345523229374"/>
  <circle cx="706.1132267258829" cy="60.63668624014096" r="5.584923944318263" fill="#CFAE58" opacity="0.13648241932233718"/>
  <circle cx="282.5933795769488" cy="590.2765971732732" r="2.2188867881252565" fill="#CFAE58" opacity="0.23550452040090358"/>
  <circle cx="751.979582667642" cy="319.2919789141905" r="2.496375199574051" fill="#CFAE58" opacity="0.2188971101700244"/>
  <circle cx="99.58130124820687" cy="498.8035288630708" r="3.34907938884468" fill="#CFAE58" opacity="0.11732062409219747"/>

  <!-- Border with glow -->
  <rect x="40" y="40" width="1120" height="550" fill="none" stroke="url(#goldGradient)" stroke-width="3" rx="12" filter="url(#softGlow)"/>

  <!-- Icon circle with premium background -->
  <circle cx="150" cy="200" r="75" fill="#CFAE58" opacity="0.15" filter="url(#softGlow)"/>
  <circle cx="150" cy="200" r="70" fill="#CFAE58" opacity="0.25"/>
  <text x="150" y="235" font-size="90" text-anchor="middle" fill="#CFAE58" filter="url(#glow)">⚖️</text>

  <!-- Premium logo (crown) with enhanced styling -->
  <g transform="translate(100, 70)">
    <path d="M 30 20 L 40 35 L 35 35 Z M 50 15 L 60 35 L 45 35 Z M 65 20 L 75 35 L 70 35 Z M 30 35 L 75 35 L 73 45 L 32 45 Z"
          fill="url(#goldGradient)" filter="url(#glow)" stroke="#B89842" stroke-width="0.5"/>
    <circle cx="40" cy="25" r="3" fill="#4FD1C5" filter="url(#glow)"/>
    <circle cx="52" cy="20" r="4" fill="#4FD1C5" filter="url(#glow)"/>
    <circle cx="65" cy="25" r="3" fill="#4FD1C5" filter="url(#glow)"/>
  </g>

  <!-- Title with shadow -->
  <text x="280" y="180" font-family="Georgia, serif" font-size="72" font-weight="bold"
        fill="url(#goldGradient)" filter="url(#shadow)">Legal Information</text>

  <!-- Subtitle with subtle glow -->
  <text x="280" y="230" font-family="Arial, sans-serif" font-size="36"
        fill="#D6DEE6" opacity="0.95" filter="url(#softGlow)">Terms, Privacy &amp; Disclosures</text>

  <!-- Brand name with letter spacing -->
  <text x="280" y="300" font-family="Georgia, serif" font-size="32" font-weight="bold"
        fill="#CFAE58" letter-spacing="4" filter="url(#glow)">ROYAL KETA</text>

  <!-- Russian tagline -->
  <text x="280" y="340" font-family="Arial, sans-serif" font-size="22" font-style="italic"
        fill="#8B95A1" opacity="0.8">От икринки к королевской</text>

  <!-- Location -->
  <text x="280" y="380" font-family="Arial, sans-serif" font-size="20"
        fill="#8B95A1" opacity="0.7">Невельский район, Сахалин</text>

  <!-- Website with glow -->
  <text x="100" y="570" font-family="Arial, sans-serif" font-size="30" font-weight="bold"
        fill="#4FD1C5" filter="url(#glow)">royalketa.com</text>

  <!-- Enhanced decorative salmon silhouette -->
  <g transform="translate(950, 480)" opacity="0.2" filter="url(#softGlow)">
    <ellipse cx="0" cy="0" rx="90" ry="35" fill="#CFAE58"/>
    <path d="M 90 0 L 120 -18 L 130 0 L 120 18 Z" fill="#CFAE58"/>
    <path d="M -25 -35 L 0 -45 L 25 -35 Z" fill="#CFAE58"/>
    <ellipse cx="-50" cy="0" rx="15" ry="12" fill="#0B0F14"/>
  </g>

  <!-- Additional decorative caviar clusters -->
  <g opacity="0.2">
    <circle cx="1050" cy="120" r="6" fill="#CFAE58"/>
    <circle cx="1065" cy="115" r="5" fill="#CFAE58"/>
    <circle cx="1058" cy="130" r="4" fill="#CFAE58"/>
    <circle cx="150" cy="500" r="5" fill="#4FD1C5"/>
    <circle cx="165" cy="508" r="4" fill="#4FD1C5"/>
    <circle cx="140" cy="512" r="5" fill="#4FD1C5"/>
  </g>
</svg>