<svg width="1200" height="630" xmlns="http://www.w3.org/2000/svg">
  <defs>
    <linearGradient id="bgGradient" x1="0%" y1="0%" x2="100%" y2="100%">
      <stop offset="0%" style="stop-color:#0B0F14;stop-opacity:1" />
      <stop offset="50%" style="stop-color:#0F1619;stop-opacity:1" />
      <stop offset="100%" style="stop-color:#0F1922;stop-opacity:1" />
    </linearGradient>
    <linearGradient id="goldGradient" x1="0%" y1="0%" x2="100%" y2="0%">
      <stop offset="0%" style="stop-color:#E5D596;stop-opacity:1" />
      <stop offset="50%" style="stop-color:#CFAE58;stop-opacity:1" />
      <stop offset="100%" style="stop-color:#B89842;stop-opacity:1" />
    </linearGradient>
    <radialGradient id="oceanGradient" cx="50%" cy="50%" r="50%">
      <stop offset="0%" style="stop-color:#4FD1C5;stop-opacity:0.3" />
      <stop offset="100%" style="stop-color:#1E90A0;stop-opacity:0.05" />
    </radialGradient>
    <filter id="glow">
      <feGaussianBlur stdDeviation="5" result="coloredBlur"/>
      <feMerge>
        <feMergeNode in="coloredBlur"/>
        <feMergeNode in="SourceGraphic"/>
      </feMerge>
    </filter>
    <filter id="softGlow">
      <feGaussianBlur stdDeviation="8" result="coloredBlur"/>
      <feMerge>
        <feMergeNode in="coloredBlur"/>
        <feMergeNode in="SourceGraphic"/>
      </feMerge>
    </filter>
    <filter id="shadow">
      <feDropShadow dx="0" dy="4" stdDeviation="8" flood-color="#000000" flood-opacity="0.5"/>
    </filter>
  </defs>

  <!-- Background -->
  <rect width="1200" height="630" fill="url(#bgGradient)"/>

  <!-- Decorative ocean gradients -->
  <ellipse cx="1000" cy="150" rx="300" ry="200" fill="url(#oceanGradient)" opacity="0.4"/>
  <ellipse cx="200" cy="530" rx="250" ry="180" fill="url(#oceanGradient)" opacity="0.3"/>

  <!-- Wave patterns -->
  <path d="M 0 400 Q 300 350 600 400 T 1200 400 L 1200 630 L 0 630 Z" fill="#1E90A0" opacity="0.08"/>
  <path d="M 0 450 Q 250 420 500 450 T 1000 450 T 1200 450 L 1200 630 L 0 630 Z" fill="#4FD1C5" opacity="0.05"/>

  <!-- Caviar roe particles -->
  <circle cx="168.76373391782326" cy="510.57511242265826" r="3.6707246333050376" fill="#CFAE58" opacity="0.1355705010562755"/>
  <circle cx="509.71415949626413" cy="377.43530815686336" r="2.4595627347801177" fill="#CFAE58" opacity="0.21315702086965746"/>
  <circle cx="940.883657373251" cy="62.80134784213057" r="2.513537857459622" fill="#CFAE58" opacity="0.20370363362470256"/>
  <circle cx="488.1558850464492" cy="209.30011737701403" r="2.127528289377665" fill="#CFAE58" opacity="0.17752000419953223"/>
  <circle cx="157.71970921566574" cy="592.5744437583159" r="4.442584658481504" fill="#CFAE58" opacity="0.17112095509452252"/>
  <circle cx="518.4414690385875" cy="427.62339333351684" r="5.1849384467062105" fill="#CFAE58" opacity="0.14676290446801807"/>
  <circle cx="663.6473232182393" cy="50.89185702472869" r="3.106083333431587" fill="#CFAE58" opacity="0.2266489661944307"/>
  <circle cx="75.91145869454539" cy="126.58897741524754" r="4.312252850696101" fill="#CFAE58" opacity="0.22373086425677904"/>
  <circle cx="711.1491453293336" cy="150.60493462686296" r="4.653811937873742" fill="#CFAE58" opacity="0.19359890301757837"/>
  <circle cx="605.4071496764129" cy="36.252645218073724" r="4.714971129536444" fill="#CFAE58" opacity="0.11952856496282852"/>
  <circle cx="1146.8638615139976" cy="567.045812242512" r="5.142863206372751" fill="#CFAE58" opacity="0.18361385404047575"/>
  <circle cx="967.6152046667032" cy="236.2028451734217" r="5.036914504680206" fill="#CFAE58" opacity="0.1984690644078875"/>
  <circle cx="314.62142391767094" cy="341.9058681906877" r="4.570198739981736" fill="#CFAE58" opacity="0.16805160083155618"/>
  <circle cx="835.0649907250153" cy="363.07151919603064" r="5.553979282918223" fill="#CFAE58" opacity="0.23782984510349617"/>
  <circle cx="578.1341242271732" cy="120.92356764603957" r="5.942161422649917" fill="#CFAE58" opacity="0.10466104968964117"/>
  <circle cx="619.1747902064137" cy="533.3167558630888" r="4.102431226866304" fill="#CFAE58" opacity="0.22952770911286097"/>
  <circle cx="371.53044907119653" cy="405.2101081724266" r="5.703326238156295" fill="#CFAE58" opacity="0.23162181962068173"/>
  <circle cx="192.24216601238012" cy="514.3214502850406" r="3.8076966000786467" fill="#CFAE58" opacity="0.2082131345670156"/>
  <circle cx="82.73147763874445" cy="228.88758471331533" r="4.8753351953453565" fill="#CFAE58" opacity="0.1757554243529136"/>
  <circle cx="15.392335893856846" cy="184.11157419832085" r="2.961357809822454" fill="#CFAE58" opacity="0.17389505570489605"/>
  <circle cx="762.6172370282993" cy="503.8434624119075" r="2.077998837341852" fill="#CFAE58" opacity="0.10351862559916891"/>
  <circle cx="689.9283270320531" cy="449.9555609848187" r="2.2687707930608627" fill="#CFAE58" opacity="0.12968323081527758"/>
  <circle cx="481.2133698927599" cy="283.32805827795477" r="3.538695558789554" fill="#CFAE58" opacity="0.24690737583744182"/>
  <circle cx="638.115129365695" cy="575.12124441295" r="2.0455166762340333" fill="#CFAE58" opacity="0.2142707256860405"/>
  <circle cx="215.17895537221133" cy="132.2054600498728" r="3.1805273663691453" fill="#CFAE58" opacity="0.19671780805671624"/>
  <circle cx="942.1082711227275" cy="220.47599782493631" r="3.118783397533524" fill="#CFAE58" opacity="0.15539681170067926"/>
  <circle cx="958.6035968188875" cy="465.48467470456285" r="3.301671093156054" fill="#CFAE58" opacity="0.22552305853342314"/>
  <circle cx="541.3196984947206" cy="170.4452218120114" r="3.3630539793937793" fill="#CFAE58" opacity="0.24834632757071726"/>
  <circle cx="162.38945017205327" cy="233.6806534126839" r="5.502502256021019" fill="#CFAE58" opacity="0.24074470355926741"/>
  <circle cx="669.2982130657639" cy="417.5657617909879" r="2.862727195628996" fill="#CFAE58" opacity="0.21464791948864365"/>

  <!-- Border with glow -->
  <rect x="40" y="40" width="1120" height="550" fill="none" stroke="url(#goldGradient)" stroke-width="3" rx="12" filter="url(#softGlow)"/>

  <!-- Icon circle with premium background -->
  <circle cx="150" cy="200" r="75" fill="#CFAE58" opacity="0.15" filter="url(#softGlow)"/>
  <circle cx="150" cy="200" r="70" fill="#CFAE58" opacity="0.25"/>
  <text x="150" y="235" font-size="90" text-anchor="middle" fill="#CFAE58" filter="url(#glow)">⚖️</text>

  <!-- Premium logo (crown) with enhanced styling -->
  <g transform="translate(100, 70)">
    <path d="M 30 20 L 40 35 L 35 35 Z M 50 15 L 60 35 L 45 35 Z M 65 20 L 75 35 L 70 35 Z M 30 35 L 75 35 L 73 45 L 32 45 Z"
          fill="url(#goldGradient)" filter="url(#glow)" stroke="#B89842" stroke-width="0.5"/>
    <circle cx="40" cy="25" r="3" fill="#4FD1C5" filter="url(#glow)"/>
    <circle cx="52" cy="20" r="4" fill="#4FD1C5" filter="url(#glow)"/>
    <circle cx="65" cy="25" r="3" fill="#4FD1C5" filter="url(#glow)"/>
  </g>

  <!-- Title with shadow -->
  <text x="280" y="180" font-family="Georgia, serif" font-size="72" font-weight="bold"
        fill="url(#goldGradient)" filter="url(#shadow)">Legal Information</text>

  <!-- Subtitle with subtle glow -->
  <text x="280" y="230" font-family="Arial, sans-serif" font-size="36"
        fill="#D6DEE6" opacity="0.95" filter="url(#softGlow)">Terms, Privacy &amp; Disclosures</text>

  <!-- Brand name with letter spacing -->
  <text x="280" y="300" font-family="Georgia, serif" font-size="32" font-weight="bold"
        fill="#CFAE58" letter-spacing="4" filter="url(#glow)">ROYAL KETA</text>

  <!-- Russian tagline -->
  <text x="280" y="340" font-family="Arial, sans-serif" font-size="22" font-style="italic"
        fill="#8B95A1" opacity="0.8">От икринки к королевской</text>

  <!-- Location -->
  <text x="280" y="380" font-family="Arial, sans-serif" font-size="20"
        fill="#8B95A1" opacity="0.7">Невельский район, Сахалин</text>

  <!-- Website with glow -->
  <text x="100" y="570" font-family="Arial, sans-serif" font-size="30" font-weight="bold"
        fill="#4FD1C5" filter="url(#glow)">royalketa.com</text>

  <!-- Enhanced decorative salmon silhouette -->
  <g transform="translate(950, 480)" opacity="0.2" filter="url(#softGlow)">
    <ellipse cx="0" cy="0" rx="90" ry="35" fill="#CFAE58"/>
    <path d="M 90 0 L 120 -18 L 130 0 L 120 18 Z" fill="#CFAE58"/>
    <path d="M -25 -35 L 0 -45 L 25 -35 Z" fill="#CFAE58"/>
    <ellipse cx="-50" cy="0" rx="15" ry="12" fill="#0B0F14"/>
  </g>

  <!-- Additional decorative caviar clusters -->
  <g opacity="0.2">
    <circle cx="1050" cy="120" r="6" fill="#CFAE58"/>
    <circle cx="1065" cy="115" r="5" fill="#CFAE58"/>
    <circle cx="1058" cy="130" r="4" fill="#CFAE58"/>
    <circle cx="150" cy="500" r="5" fill="#4FD1C5"/>
    <circle cx="165" cy="508" r="4" fill="#4FD1C5"/>
    <circle cx="140" cy="512" r="5" fill="#4FD1C5"/>
  </g>
</svg>