<svg width="1200" height="630" xmlns="http://www.w3.org/2000/svg">
  <defs>
    <linearGradient id="bgGradient" x1="0%" y1="0%" x2="100%" y2="100%">
      <stop offset="0%" style="stop-color:#0B0F14;stop-opacity:1" />
      <stop offset="50%" style="stop-color:#0F1619;stop-opacity:1" />
      <stop offset="100%" style="stop-color:#0F1922;stop-opacity:1" />
    </linearGradient>
    <linearGradient id="goldGradient" x1="0%" y1="0%" x2="100%" y2="0%">
      <stop offset="0%" style="stop-color:#E5D596;stop-opacity:1" />
      <stop offset="50%" style="stop-color:#CFAE58;stop-opacity:1" />
      <stop offset="100%" style="stop-color:#B89842;stop-opacity:1" />
    </linearGradient>
    <radialGradient id="oceanGradient" cx="50%" cy="50%" r="50%">
      <stop offset="0%" style="stop-color:#4FD1C5;stop-opacity:0.3" />
      <stop offset="100%" style="stop-color:#1E90A0;stop-opacity:0.05" />
    </radialGradient>
    <filter id="glow">
      <feGaussianBlur stdDeviation="5" result="coloredBlur"/>
      <feMerge>
        <feMergeNode in="coloredBlur"/>
        <feMergeNode in="SourceGraphic"/>
      </feMerge>
    </filter>
    <filter id="softGlow">
      <feGaussianBlur stdDeviation="8" result="coloredBlur"/>
      <feMerge>
        <feMergeNode in="coloredBlur"/>
        <feMergeNode in="SourceGraphic"/>
      </feMerge>
    </filter>
    <filter id="shadow">
      <feDropShadow dx="0" dy="4" stdDeviation="8" flood-color="#000000" flood-opacity="0.5"/>
    </filter>
  </defs>

  <!-- Background -->
  <rect width="1200" height="630" fill="url(#bgGradient)"/>

  <!-- Decorative ocean gradients -->
  <ellipse cx="1000" cy="150" rx="300" ry="200" fill="url(#oceanGradient)" opacity="0.4"/>
  <ellipse cx="200" cy="530" rx="250" ry="180" fill="url(#oceanGradient)" opacity="0.3"/>

  <!-- Wave patterns -->
  <path d="M 0 400 Q 300 350 600 400 T 1200 400 L 1200 630 L 0 630 Z" fill="#1E90A0" opacity="0.08"/>
  <path d="M 0 450 Q 250 420 500 450 T 1000 450 T 1200 450 L 1200 630 L 0 630 Z" fill="#4FD1C5" opacity="0.05"/>

  <!-- Caviar roe particles -->
  <circle cx="720.5268880895563" cy="629.1492151235439" r="4.324541544224473" fill="#CFAE58" opacity="0.1158274013814048"/>
  <circle cx="336.1624407252302" cy="618.3049633872165" r="3.55736011105225" fill="#CFAE58" opacity="0.19190090328691622"/>
  <circle cx="996.0364105517425" cy="568.0051993397277" r="4.8110392118842755" fill="#CFAE58" opacity="0.1073334160472175"/>
  <circle cx="1151.6351640753603" cy="113.51846566183104" r="3.017858793337716" fill="#CFAE58" opacity="0.1273679600348347"/>
  <circle cx="240.72280347006182" cy="99.18823385028456" r="3.3215080788881943" fill="#CFAE58" opacity="0.11367464220690487"/>
  <circle cx="121.57879145874313" cy="103.65971805967963" r="4.405418235828004" fill="#CFAE58" opacity="0.10045786559199818"/>
  <circle cx="519.3589165500093" cy="45.94126662962485" r="3.3978481983541373" fill="#CFAE58" opacity="0.11457448585500023"/>
  <circle cx="943.2301330756089" cy="484.8797954775612" r="3.9369413699751012" fill="#CFAE58" opacity="0.20534145328380232"/>
  <circle cx="472.56612904322645" cy="586.523629548054" r="5.320100007534703" fill="#CFAE58" opacity="0.16650476984185986"/>
  <circle cx="77.65226965225018" cy="78.53622227604478" r="4.662203619435541" fill="#CFAE58" opacity="0.24236372016595858"/>
  <circle cx="298.53020714154013" cy="115.55793527258677" r="3.2600723542146044" fill="#CFAE58" opacity="0.12073371465325958"/>
  <circle cx="106.76084440444606" cy="311.34346305739115" r="5.639430285732754" fill="#CFAE58" opacity="0.24964148539934813"/>
  <circle cx="274.7663749792745" cy="232.000933080265" r="3.893654879018958" fill="#CFAE58" opacity="0.11457745280914809"/>
  <circle cx="303.1385608817877" cy="479.1606785582363" r="3.3710707828893156" fill="#CFAE58" opacity="0.2305502884861638"/>
  <circle cx="238.24978822824008" cy="437.362874800908" r="3.265304482671011" fill="#CFAE58" opacity="0.20404375164020971"/>
  <circle cx="298.6571603623201" cy="331.19924681243674" r="4.4629283631459575" fill="#CFAE58" opacity="0.11248255473111325"/>
  <circle cx="1152.5849745790906" cy="506.42504863428707" r="4.86090543716727" fill="#CFAE58" opacity="0.22053938000980178"/>
  <circle cx="296.2558181437054" cy="480.38293032972683" r="2.7630375862529277" fill="#CFAE58" opacity="0.1455680801168748"/>
  <circle cx="524.3847475254058" cy="68.78790646974876" r="4.678211151230356" fill="#CFAE58" opacity="0.2207275777090771"/>
  <circle cx="1113.5350992216797" cy="469.3767853913926" r="2.995551311425153" fill="#CFAE58" opacity="0.19107884353635216"/>
  <circle cx="752.9169583772212" cy="399.09909944606375" r="3.1394807293435987" fill="#CFAE58" opacity="0.13414045836692606"/>
  <circle cx="572.0007468122373" cy="53.54779606055991" r="4.140620662331019" fill="#CFAE58" opacity="0.13788788078213696"/>
  <circle cx="213.06751657396177" cy="313.3015019539455" r="2.3904315434046586" fill="#CFAE58" opacity="0.11181440564828073"/>
  <circle cx="1143.72067405091" cy="91.02477911693447" r="3.1843603193875305" fill="#CFAE58" opacity="0.1588039823402608"/>
  <circle cx="874.3404267746639" cy="205.9952602396091" r="4.431571697210141" fill="#CFAE58" opacity="0.2234753150423472"/>
  <circle cx="487.19704381672517" cy="69.32979906233075" r="2.2913100298579883" fill="#CFAE58" opacity="0.17846689005739885"/>
  <circle cx="437.70114752367544" cy="455.3156733614031" r="4.178133217638321" fill="#CFAE58" opacity="0.12632259343911997"/>
  <circle cx="600.6770832550959" cy="591.7947385445606" r="4.218506808635968" fill="#CFAE58" opacity="0.12427937981544912"/>
  <circle cx="214.58724066501418" cy="499.483855708988" r="5.100775303808273" fill="#CFAE58" opacity="0.1401056459845974"/>
  <circle cx="1026.1551400143796" cy="278.9539599449284" r="5.081398692960546" fill="#CFAE58" opacity="0.2323201895040615"/>

  <!-- Border with glow -->
  <rect x="40" y="40" width="1120" height="550" fill="none" stroke="url(#goldGradient)" stroke-width="3" rx="12" filter="url(#softGlow)"/>

  <!-- Icon circle with premium background -->
  <circle cx="150" cy="200" r="75" fill="#CFAE58" opacity="0.15" filter="url(#softGlow)"/>
  <circle cx="150" cy="200" r="70" fill="#CFAE58" opacity="0.25"/>
  <text x="150" y="235" font-size="90" text-anchor="middle" fill="#CFAE58" filter="url(#glow)">⚖️</text>

  <!-- Premium logo (crown) with enhanced styling -->
  <g transform="translate(100, 70)">
    <path d="M 30 20 L 40 35 L 35 35 Z M 50 15 L 60 35 L 45 35 Z M 65 20 L 75 35 L 70 35 Z M 30 35 L 75 35 L 73 45 L 32 45 Z"
          fill="url(#goldGradient)" filter="url(#glow)" stroke="#B89842" stroke-width="0.5"/>
    <circle cx="40" cy="25" r="3" fill="#4FD1C5" filter="url(#glow)"/>
    <circle cx="52" cy="20" r="4" fill="#4FD1C5" filter="url(#glow)"/>
    <circle cx="65" cy="25" r="3" fill="#4FD1C5" filter="url(#glow)"/>
  </g>

  <!-- Title with shadow -->
  <text x="280" y="180" font-family="Georgia, serif" font-size="72" font-weight="bold"
        fill="url(#goldGradient)" filter="url(#shadow)">Legal Information</text>

  <!-- Subtitle with subtle glow -->
  <text x="280" y="230" font-family="Arial, sans-serif" font-size="36"
        fill="#D6DEE6" opacity="0.95" filter="url(#softGlow)">Terms, Privacy & Disclosures</text>

  <!-- Brand name with letter spacing -->
  <text x="280" y="300" font-family="Georgia, serif" font-size="32" font-weight="bold"
        fill="#CFAE58" letter-spacing="4" filter="url(#glow)">ROYAL KETA</text>

  <!-- Russian tagline -->
  <text x="280" y="340" font-family="Arial, sans-serif" font-size="22" font-style="italic"
        fill="#8B95A1" opacity="0.8">От икринки к королевской</text>

  <!-- Location -->
  <text x="280" y="380" font-family="Arial, sans-serif" font-size="20"
        fill="#8B95A1" opacity="0.7">Невельский район, Сахалин</text>

  <!-- Website with glow -->
  <text x="100" y="570" font-family="Arial, sans-serif" font-size="30" font-weight="bold"
        fill="#4FD1C5" filter="url(#glow)">royalketa.com</text>

  <!-- Enhanced decorative salmon silhouette -->
  <g transform="translate(950, 480)" opacity="0.2" filter="url(#softGlow)">
    <ellipse cx="0" cy="0" rx="90" ry="35" fill="#CFAE58"/>
    <path d="M 90 0 L 120 -18 L 130 0 L 120 18 Z" fill="#CFAE58"/>
    <path d="M -25 -35 L 0 -45 L 25 -35 Z" fill="#CFAE58"/>
    <ellipse cx="-50" cy="0" rx="15" ry="12" fill="#0B0F14"/>
  </g>

  <!-- Additional decorative caviar clusters -->
  <g opacity="0.2">
    <circle cx="1050" cy="120" r="6" fill="#CFAE58"/>
    <circle cx="1065" cy="115" r="5" fill="#CFAE58"/>
    <circle cx="1058" cy="130" r="4" fill="#CFAE58"/>
    <circle cx="150" cy="500" r="5" fill="#4FD1C5"/>
    <circle cx="165" cy="508" r="4" fill="#4FD1C5"/>
    <circle cx="140" cy="512" r="5" fill="#4FD1C5"/>
  </g>
</svg>