<svg width="1200" height="630" xmlns="http://www.w3.org/2000/svg">
  <defs>
    <linearGradient id="bgGradient" x1="0%" y1="0%" x2="100%" y2="100%">
      <stop offset="0%" style="stop-color:#0B0F14;stop-opacity:1" />
      <stop offset="50%" style="stop-color:#0F1619;stop-opacity:1" />
      <stop offset="100%" style="stop-color:#0F1922;stop-opacity:1" />
    </linearGradient>
    <linearGradient id="goldGradient" x1="0%" y1="0%" x2="100%" y2="0%">
      <stop offset="0%" style="stop-color:#E5D596;stop-opacity:1" />
      <stop offset="50%" style="stop-color:#CFAE58;stop-opacity:1" />
      <stop offset="100%" style="stop-color:#B89842;stop-opacity:1" />
    </linearGradient>
    <radialGradient id="oceanGradient" cx="50%" cy="50%" r="50%">
      <stop offset="0%" style="stop-color:#4FD1C5;stop-opacity:0.3" />
      <stop offset="100%" style="stop-color:#1E90A0;stop-opacity:0.05" />
    </radialGradient>
    <filter id="glow">
      <feGaussianBlur stdDeviation="5" result="coloredBlur"/>
      <feMerge>
        <feMergeNode in="coloredBlur"/>
        <feMergeNode in="SourceGraphic"/>
      </feMerge>
    </filter>
    <filter id="softGlow">
      <feGaussianBlur stdDeviation="8" result="coloredBlur"/>
      <feMerge>
        <feMergeNode in="coloredBlur"/>
        <feMergeNode in="SourceGraphic"/>
      </feMerge>
    </filter>
    <filter id="shadow">
      <feDropShadow dx="0" dy="4" stdDeviation="8" flood-color="#000000" flood-opacity="0.5"/>
    </filter>
  </defs>

  <!-- Background -->
  <rect width="1200" height="630" fill="url(#bgGradient)"/>

  <!-- Decorative ocean gradients -->
  <ellipse cx="1000" cy="150" rx="300" ry="200" fill="url(#oceanGradient)" opacity="0.4"/>
  <ellipse cx="200" cy="530" rx="250" ry="180" fill="url(#oceanGradient)" opacity="0.3"/>

  <!-- Wave patterns -->
  <path d="M 0 400 Q 300 350 600 400 T 1200 400 L 1200 630 L 0 630 Z" fill="#1E90A0" opacity="0.08"/>
  <path d="M 0 450 Q 250 420 500 450 T 1000 450 T 1200 450 L 1200 630 L 0 630 Z" fill="#4FD1C5" opacity="0.05"/>

  <!-- Caviar roe particles -->
  <circle cx="609.0902790812582" cy="454.7174808033347" r="3.9047375932677246" fill="#CFAE58" opacity="0.13688729404236646"/>
  <circle cx="811.3520499448881" cy="164.85899146023155" r="4.622501984677086" fill="#CFAE58" opacity="0.17213444622799517"/>
  <circle cx="382.40083011188614" cy="341.9411843930878" r="2.5736417766918347" fill="#CFAE58" opacity="0.1477191447656449"/>
  <circle cx="52.41858898241985" cy="468.3428789691658" r="2.3638680617480903" fill="#CFAE58" opacity="0.20091414488169762"/>
  <circle cx="278.7960291130831" cy="137.13032199855306" r="2.4439306569522623" fill="#CFAE58" opacity="0.19921062904219178"/>
  <circle cx="468.6529882772125" cy="253.19317865238327" r="2.8614107113784826" fill="#CFAE58" opacity="0.15241876901434467"/>
  <circle cx="1153.232945682059" cy="475.87676181017196" r="3.944011828280363" fill="#CFAE58" opacity="0.157573936097407"/>
  <circle cx="835.9974394209598" cy="616.0340719303616" r="5.080567145978766" fill="#CFAE58" opacity="0.1666841204307904"/>
  <circle cx="850.9428985959565" cy="109.02227294974529" r="3.7363319227407263" fill="#CFAE58" opacity="0.2027645454784906"/>
  <circle cx="309.49466355173075" cy="153.952175559141" r="4.4042839507424425" fill="#CFAE58" opacity="0.2130881440582504"/>
  <circle cx="782.6255311262227" cy="130.76211260192335" r="2.2641246378225253" fill="#CFAE58" opacity="0.16132308189488198"/>
  <circle cx="984.4324586709513" cy="407.4929722417265" r="5.908219124589026" fill="#CFAE58" opacity="0.1959543642912428"/>
  <circle cx="1009.7526393128912" cy="476.92084865143914" r="2.9093519087240702" fill="#CFAE58" opacity="0.22629555178193136"/>
  <circle cx="657.6134752210364" cy="514.0211513473115" r="5.103352356762417" fill="#CFAE58" opacity="0.17753873891828967"/>
  <circle cx="148.37170099923958" cy="298.30147004854354" r="4.821276102433488" fill="#CFAE58" opacity="0.10769981299163803"/>
  <circle cx="483.4383300715781" cy="515.1214827345005" r="3.693561960132241" fill="#CFAE58" opacity="0.18346265912510532"/>
  <circle cx="868.9136324631901" cy="270.6328561771656" r="5.555622203579773" fill="#CFAE58" opacity="0.17077128226515106"/>
  <circle cx="706.0584145991253" cy="129.77133375637342" r="4.554188730982408" fill="#CFAE58" opacity="0.1198022433111835"/>
  <circle cx="1062.1812880856137" cy="440.1156639302923" r="2.036511097281065" fill="#CFAE58" opacity="0.14703201433452168"/>
  <circle cx="347.5825445002182" cy="455.51561383191046" r="4.2348701883452184" fill="#CFAE58" opacity="0.23037254050621164"/>
  <circle cx="341.4882801384514" cy="21.553827562253794" r="4.471941884953558" fill="#CFAE58" opacity="0.22367367636688795"/>
  <circle cx="1095.2094043621303" cy="236.3752214038729" r="2.3719065755511233" fill="#CFAE58" opacity="0.22201418261883296"/>
  <circle cx="614.9633314943843" cy="183.46744927876" r="5.600446790119581" fill="#CFAE58" opacity="0.20043031029800193"/>
  <circle cx="65.79812933256166" cy="284.44892991156854" r="5.12207161318402" fill="#CFAE58" opacity="0.13794805327373943"/>
  <circle cx="300.65800353275336" cy="475.9131355549787" r="2.9549521140092416" fill="#CFAE58" opacity="0.12360170177811516"/>
  <circle cx="344.8126834810533" cy="209.74108938001652" r="3.6018178354795625" fill="#CFAE58" opacity="0.23258537924664213"/>
  <circle cx="451.09947602985085" cy="287.50918949564516" r="4.632947795867699" fill="#CFAE58" opacity="0.21162832473633592"/>
  <circle cx="205.20304317421028" cy="88.8494487405696" r="5.662784527458006" fill="#CFAE58" opacity="0.20407901703032533"/>
  <circle cx="832.4974415762582" cy="374.50151494208484" r="2.18120962786072" fill="#CFAE58" opacity="0.17122591581846947"/>
  <circle cx="204.9295449401386" cy="512.225914024639" r="2.761779210209279" fill="#CFAE58" opacity="0.18325650870921018"/>

  <!-- Border with glow -->
  <rect x="40" y="40" width="1120" height="550" fill="none" stroke="url(#goldGradient)" stroke-width="3" rx="12" filter="url(#softGlow)"/>

  <!-- Icon circle with premium background -->
  <circle cx="150" cy="200" r="75" fill="#CFAE58" opacity="0.15" filter="url(#softGlow)"/>
  <circle cx="150" cy="200" r="70" fill="#CFAE58" opacity="0.25"/>
  <text x="150" y="235" font-size="90" text-anchor="middle" fill="#CFAE58" filter="url(#glow)">✓</text>

  <!-- Premium logo (crown) with enhanced styling -->
  <g transform="translate(100, 70)">
    <path d="M 30 20 L 40 35 L 35 35 Z M 50 15 L 60 35 L 45 35 Z M 65 20 L 75 35 L 70 35 Z M 30 35 L 75 35 L 73 45 L 32 45 Z"
          fill="url(#goldGradient)" filter="url(#glow)" stroke="#B89842" stroke-width="0.5"/>
    <circle cx="40" cy="25" r="3" fill="#4FD1C5" filter="url(#glow)"/>
    <circle cx="52" cy="20" r="4" fill="#4FD1C5" filter="url(#glow)"/>
    <circle cx="65" cy="25" r="3" fill="#4FD1C5" filter="url(#glow)"/>
  </g>

  <!-- Title with shadow -->
  <text x="280" y="180" font-family="Georgia, serif" font-size="72" font-weight="bold"
        fill="url(#goldGradient)" filter="url(#shadow)">Mercury eVSD System</text>

  <!-- Subtitle with subtle glow -->
  <text x="280" y="230" font-family="Arial, sans-serif" font-size="36"
        fill="#D6DEE6" opacity="0.95" filter="url(#softGlow)">Electronic Veterinary Certification</text>

  <!-- Brand name with letter spacing -->
  <text x="280" y="300" font-family="Georgia, serif" font-size="32" font-weight="bold"
        fill="#CFAE58" letter-spacing="4" filter="url(#glow)">ROYAL KETA</text>

  <!-- Russian tagline -->
  <text x="280" y="340" font-family="Arial, sans-serif" font-size="22" font-style="italic"
        fill="#8B95A1" opacity="0.8">От икринки к королевской</text>

  <!-- Location -->
  <text x="280" y="380" font-family="Arial, sans-serif" font-size="20"
        fill="#8B95A1" opacity="0.7">Невельский район, Сахалин</text>

  <!-- Website with glow -->
  <text x="100" y="570" font-family="Arial, sans-serif" font-size="30" font-weight="bold"
        fill="#4FD1C5" filter="url(#glow)">royalketa.com</text>

  <!-- Enhanced decorative salmon silhouette -->
  <g transform="translate(950, 480)" opacity="0.2" filter="url(#softGlow)">
    <ellipse cx="0" cy="0" rx="90" ry="35" fill="#CFAE58"/>
    <path d="M 90 0 L 120 -18 L 130 0 L 120 18 Z" fill="#CFAE58"/>
    <path d="M -25 -35 L 0 -45 L 25 -35 Z" fill="#CFAE58"/>
    <ellipse cx="-50" cy="0" rx="15" ry="12" fill="#0B0F14"/>
  </g>

  <!-- Additional decorative caviar clusters -->
  <g opacity="0.2">
    <circle cx="1050" cy="120" r="6" fill="#CFAE58"/>
    <circle cx="1065" cy="115" r="5" fill="#CFAE58"/>
    <circle cx="1058" cy="130" r="4" fill="#CFAE58"/>
    <circle cx="150" cy="500" r="5" fill="#4FD1C5"/>
    <circle cx="165" cy="508" r="4" fill="#4FD1C5"/>
    <circle cx="140" cy="512" r="5" fill="#4FD1C5"/>
  </g>
</svg>