<svg width="1200" height="630" xmlns="http://www.w3.org/2000/svg">
  <defs>
    <linearGradient id="bgGradient" x1="0%" y1="0%" x2="100%" y2="100%">
      <stop offset="0%" style="stop-color:#0B0F14;stop-opacity:1" />
      <stop offset="50%" style="stop-color:#0F1619;stop-opacity:1" />
      <stop offset="100%" style="stop-color:#0F1922;stop-opacity:1" />
    </linearGradient>
    <linearGradient id="goldGradient" x1="0%" y1="0%" x2="100%" y2="0%">
      <stop offset="0%" style="stop-color:#E5D596;stop-opacity:1" />
      <stop offset="50%" style="stop-color:#CFAE58;stop-opacity:1" />
      <stop offset="100%" style="stop-color:#B89842;stop-opacity:1" />
    </linearGradient>
    <radialGradient id="oceanGradient" cx="50%" cy="50%" r="50%">
      <stop offset="0%" style="stop-color:#4FD1C5;stop-opacity:0.3" />
      <stop offset="100%" style="stop-color:#1E90A0;stop-opacity:0.05" />
    </radialGradient>
    <filter id="glow">
      <feGaussianBlur stdDeviation="5" result="coloredBlur"/>
      <feMerge>
        <feMergeNode in="coloredBlur"/>
        <feMergeNode in="SourceGraphic"/>
      </feMerge>
    </filter>
    <filter id="softGlow">
      <feGaussianBlur stdDeviation="8" result="coloredBlur"/>
      <feMerge>
        <feMergeNode in="coloredBlur"/>
        <feMergeNode in="SourceGraphic"/>
      </feMerge>
    </filter>
    <filter id="shadow">
      <feDropShadow dx="0" dy="4" stdDeviation="8" flood-color="#000000" flood-opacity="0.5"/>
    </filter>
  </defs>

  <!-- Background -->
  <rect width="1200" height="630" fill="url(#bgGradient)"/>

  <!-- Decorative ocean gradients -->
  <ellipse cx="1000" cy="150" rx="300" ry="200" fill="url(#oceanGradient)" opacity="0.4"/>
  <ellipse cx="200" cy="530" rx="250" ry="180" fill="url(#oceanGradient)" opacity="0.3"/>

  <!-- Wave patterns -->
  <path d="M 0 400 Q 300 350 600 400 T 1200 400 L 1200 630 L 0 630 Z" fill="#1E90A0" opacity="0.08"/>
  <path d="M 0 450 Q 250 420 500 450 T 1000 450 T 1200 450 L 1200 630 L 0 630 Z" fill="#4FD1C5" opacity="0.05"/>

  <!-- Caviar roe particles -->
  <circle cx="1172.410061927034" cy="262.05336007475074" r="3.9518756504022337" fill="#CFAE58" opacity="0.2335758678686734"/>
  <circle cx="1090.687675629909" cy="348.073543326066" r="4.764949241963805" fill="#CFAE58" opacity="0.13839997919650956"/>
  <circle cx="926.4168557923957" cy="352.0518776692928" r="3.991335969176628" fill="#CFAE58" opacity="0.17441330355455725"/>
  <circle cx="661.1567328823073" cy="543.0832882562663" r="2.3729559303839993" fill="#CFAE58" opacity="0.24850511928155788"/>
  <circle cx="49.873191152434075" cy="260.6896912382284" r="5.360586979179463" fill="#CFAE58" opacity="0.22398086358311148"/>
  <circle cx="527.4622612000356" cy="452.74649160389845" r="3.6782463418156235" fill="#CFAE58" opacity="0.21995563023891088"/>
  <circle cx="823.791508619661" cy="274.52799092111763" r="2.001716494906689" fill="#CFAE58" opacity="0.18407110354754463"/>
  <circle cx="951.317349217402" cy="408.65463017698255" r="3.32477389315157" fill="#CFAE58" opacity="0.19767005437524404"/>
  <circle cx="35.13507229876147" cy="429.49743480821525" r="5.290584317181407" fill="#CFAE58" opacity="0.2058453104037496"/>
  <circle cx="942.0070671239702" cy="369.01700078883573" r="3.3398146791927905" fill="#CFAE58" opacity="0.23179154027903873"/>
  <circle cx="601.1321366384208" cy="629.5776738335262" r="2.5504996121351304" fill="#CFAE58" opacity="0.20039037110240626"/>
  <circle cx="1024.4812951662275" cy="375.1543992805464" r="2.7721597917039498" fill="#CFAE58" opacity="0.11017364954629878"/>
  <circle cx="100.06001597383722" cy="295.9004337439022" r="2.786682783134907" fill="#CFAE58" opacity="0.17276075265517266"/>
  <circle cx="63.80557040142296" cy="246.1887602157951" r="2.535410068589866" fill="#CFAE58" opacity="0.12405094685434785"/>
  <circle cx="644.7945371873022" cy="446.1189035866912" r="5.549968183006992" fill="#CFAE58" opacity="0.197356354095225"/>
  <circle cx="430.4134540888931" cy="389.41094464859464" r="2.438331056175673" fill="#CFAE58" opacity="0.12230445696956216"/>
  <circle cx="109.59938591222516" cy="58.71949320348232" r="4.793170307752313" fill="#CFAE58" opacity="0.15539800493840486"/>
  <circle cx="118.25293905021637" cy="192.9781930754055" r="3.146917399424594" fill="#CFAE58" opacity="0.23469672596011912"/>
  <circle cx="311.15726469432457" cy="43.269234669436216" r="5.653461803028796" fill="#CFAE58" opacity="0.18522458811312903"/>
  <circle cx="835.1669012795547" cy="31.455598717947552" r="3.952283743896067" fill="#CFAE58" opacity="0.11119712091628291"/>
  <circle cx="740.9768979934993" cy="412.60328113534587" r="2.3464723519757937" fill="#CFAE58" opacity="0.20714303902599707"/>
  <circle cx="735.1415970211787" cy="355.94565980344754" r="5.06306304129852" fill="#CFAE58" opacity="0.2394968938122758"/>
  <circle cx="1115.1786491224045" cy="484.33122876721296" r="3.805715729903911" fill="#CFAE58" opacity="0.1313610227912941"/>
  <circle cx="326.88875402960224" cy="160.01277222299694" r="4.064490080996653" fill="#CFAE58" opacity="0.20196182284152647"/>
  <circle cx="211.6390267497781" cy="585.1793972224195" r="4.288019333975973" fill="#CFAE58" opacity="0.11650961140689513"/>
  <circle cx="613.0934785307376" cy="401.0160467463142" r="3.0672938310768982" fill="#CFAE58" opacity="0.23679280391313412"/>
  <circle cx="265.91500053602897" cy="517.4265299744659" r="2.974359908378511" fill="#CFAE58" opacity="0.13011238943972436"/>
  <circle cx="1111.3270104867916" cy="148.34740360926241" r="3.6791823993367476" fill="#CFAE58" opacity="0.20707263733842"/>
  <circle cx="472.21709124465605" cy="267.4920510380931" r="5.069357299223712" fill="#CFAE58" opacity="0.14438898360827193"/>
  <circle cx="1013.6175644862409" cy="174.38964301241617" r="2.1349847731336036" fill="#CFAE58" opacity="0.1992840213042482"/>

  <!-- Border with glow -->
  <rect x="40" y="40" width="1120" height="550" fill="none" stroke="url(#goldGradient)" stroke-width="3" rx="12" filter="url(#softGlow)"/>

  <!-- Icon circle with premium background -->
  <circle cx="150" cy="200" r="75" fill="#CFAE58" opacity="0.15" filter="url(#softGlow)"/>
  <circle cx="150" cy="200" r="70" fill="#CFAE58" opacity="0.25"/>
  <text x="150" y="235" font-size="90" text-anchor="middle" fill="#CFAE58" filter="url(#glow)">✓</text>

  <!-- Premium logo (crown) with enhanced styling -->
  <g transform="translate(100, 70)">
    <path d="M 30 20 L 40 35 L 35 35 Z M 50 15 L 60 35 L 45 35 Z M 65 20 L 75 35 L 70 35 Z M 30 35 L 75 35 L 73 45 L 32 45 Z"
          fill="url(#goldGradient)" filter="url(#glow)" stroke="#B89842" stroke-width="0.5"/>
    <circle cx="40" cy="25" r="3" fill="#4FD1C5" filter="url(#glow)"/>
    <circle cx="52" cy="20" r="4" fill="#4FD1C5" filter="url(#glow)"/>
    <circle cx="65" cy="25" r="3" fill="#4FD1C5" filter="url(#glow)"/>
  </g>

  <!-- Title with shadow -->
  <text x="280" y="180" font-family="Georgia, serif" font-size="72" font-weight="bold"
        fill="url(#goldGradient)" filter="url(#shadow)">Mercury eVSD System</text>

  <!-- Subtitle with subtle glow -->
  <text x="280" y="230" font-family="Arial, sans-serif" font-size="36"
        fill="#D6DEE6" opacity="0.95" filter="url(#softGlow)">Electronic Veterinary Certification</text>

  <!-- Brand name with letter spacing -->
  <text x="280" y="300" font-family="Georgia, serif" font-size="32" font-weight="bold"
        fill="#CFAE58" letter-spacing="4" filter="url(#glow)">ROYAL KETA</text>

  <!-- Russian tagline -->
  <text x="280" y="340" font-family="Arial, sans-serif" font-size="22" font-style="italic"
        fill="#8B95A1" opacity="0.8">От икринки к королевской</text>

  <!-- Location -->
  <text x="280" y="380" font-family="Arial, sans-serif" font-size="20"
        fill="#8B95A1" opacity="0.7">Невельский район, Сахалин</text>

  <!-- Website with glow -->
  <text x="100" y="570" font-family="Arial, sans-serif" font-size="30" font-weight="bold"
        fill="#4FD1C5" filter="url(#glow)">royalketa.com</text>

  <!-- Enhanced decorative salmon silhouette -->
  <g transform="translate(950, 480)" opacity="0.2" filter="url(#softGlow)">
    <ellipse cx="0" cy="0" rx="90" ry="35" fill="#CFAE58"/>
    <path d="M 90 0 L 120 -18 L 130 0 L 120 18 Z" fill="#CFAE58"/>
    <path d="M -25 -35 L 0 -45 L 25 -35 Z" fill="#CFAE58"/>
    <ellipse cx="-50" cy="0" rx="15" ry="12" fill="#0B0F14"/>
  </g>

  <!-- Additional decorative caviar clusters -->
  <g opacity="0.2">
    <circle cx="1050" cy="120" r="6" fill="#CFAE58"/>
    <circle cx="1065" cy="115" r="5" fill="#CFAE58"/>
    <circle cx="1058" cy="130" r="4" fill="#CFAE58"/>
    <circle cx="150" cy="500" r="5" fill="#4FD1C5"/>
    <circle cx="165" cy="508" r="4" fill="#4FD1C5"/>
    <circle cx="140" cy="512" r="5" fill="#4FD1C5"/>
  </g>
</svg>