<svg width="1200" height="630" xmlns="http://www.w3.org/2000/svg">
  <defs>
    <linearGradient id="bgGradient" x1="0%" y1="0%" x2="100%" y2="100%">
      <stop offset="0%" style="stop-color:#0B0F14;stop-opacity:1" />
      <stop offset="50%" style="stop-color:#0F1619;stop-opacity:1" />
      <stop offset="100%" style="stop-color:#0F1922;stop-opacity:1" />
    </linearGradient>
    <linearGradient id="goldGradient" x1="0%" y1="0%" x2="100%" y2="0%">
      <stop offset="0%" style="stop-color:#E5D596;stop-opacity:1" />
      <stop offset="50%" style="stop-color:#CFAE58;stop-opacity:1" />
      <stop offset="100%" style="stop-color:#B89842;stop-opacity:1" />
    </linearGradient>
    <radialGradient id="oceanGradient" cx="50%" cy="50%" r="50%">
      <stop offset="0%" style="stop-color:#4FD1C5;stop-opacity:0.3" />
      <stop offset="100%" style="stop-color:#1E90A0;stop-opacity:0.05" />
    </radialGradient>
    <filter id="glow">
      <feGaussianBlur stdDeviation="5" result="coloredBlur"/>
      <feMerge>
        <feMergeNode in="coloredBlur"/>
        <feMergeNode in="SourceGraphic"/>
      </feMerge>
    </filter>
    <filter id="softGlow">
      <feGaussianBlur stdDeviation="8" result="coloredBlur"/>
      <feMerge>
        <feMergeNode in="coloredBlur"/>
        <feMergeNode in="SourceGraphic"/>
      </feMerge>
    </filter>
    <filter id="shadow">
      <feDropShadow dx="0" dy="4" stdDeviation="8" flood-color="#000000" flood-opacity="0.5"/>
    </filter>
  </defs>

  <!-- Background -->
  <rect width="1200" height="630" fill="url(#bgGradient)"/>

  <!-- Decorative ocean gradients -->
  <ellipse cx="1000" cy="150" rx="300" ry="200" fill="url(#oceanGradient)" opacity="0.4"/>
  <ellipse cx="200" cy="530" rx="250" ry="180" fill="url(#oceanGradient)" opacity="0.3"/>

  <!-- Wave patterns -->
  <path d="M 0 400 Q 300 350 600 400 T 1200 400 L 1200 630 L 0 630 Z" fill="#1E90A0" opacity="0.08"/>
  <path d="M 0 450 Q 250 420 500 450 T 1000 450 T 1200 450 L 1200 630 L 0 630 Z" fill="#4FD1C5" opacity="0.05"/>

  <!-- Caviar roe particles -->
  <circle cx="903.5561153665516" cy="5.671316850316385" r="2.351517120266207" fill="#CFAE58" opacity="0.16751507048342107"/>
  <circle cx="973.1759072401917" cy="614.4693326964942" r="5.571100150474857" fill="#CFAE58" opacity="0.20517198468519326"/>
  <circle cx="1189.4938466269407" cy="37.891081816652424" r="4.737106020645007" fill="#CFAE58" opacity="0.13889362007585426"/>
  <circle cx="953.649208457223" cy="10.579864727665854" r="3.6070855444377115" fill="#CFAE58" opacity="0.18835906305024708"/>
  <circle cx="166.37117755175143" cy="455.83625445874003" r="4.566847439883952" fill="#CFAE58" opacity="0.21021782691151397"/>
  <circle cx="791.9210944367678" cy="254.49865749544824" r="5.7203651098620885" fill="#CFAE58" opacity="0.14531427203796277"/>
  <circle cx="276.61594318671473" cy="603.7286594460204" r="2.063322921028279" fill="#CFAE58" opacity="0.22651102217267483"/>
  <circle cx="410.76171636851535" cy="53.75074007681091" r="5.10626483844891" fill="#CFAE58" opacity="0.15125577182441663"/>
  <circle cx="756.9458757408767" cy="396.81583341129203" r="2.6002202745273886" fill="#CFAE58" opacity="0.10798276440193495"/>
  <circle cx="651.6973441181893" cy="180.16895426412057" r="3.4507048705800374" fill="#CFAE58" opacity="0.22257008138745296"/>
  <circle cx="757.1641693494438" cy="538.1136844605604" r="2.9507972150449326" fill="#CFAE58" opacity="0.19568266160114373"/>
  <circle cx="1130.2078387909878" cy="373.90935019789106" r="2.8221513376513663" fill="#CFAE58" opacity="0.1569066004669584"/>
  <circle cx="660.2216504576712" cy="335.02526292325695" r="3.2926303562831984" fill="#CFAE58" opacity="0.13484473614486095"/>
  <circle cx="783.953877698378" cy="625.7539953378082" r="3.2586994356734005" fill="#CFAE58" opacity="0.19393802387204714"/>
  <circle cx="713.4161581842699" cy="54.908930499946216" r="3.112316983384975" fill="#CFAE58" opacity="0.18860280110624883"/>
  <circle cx="1048.9121048331026" cy="19.42594345077742" r="4.040662934494552" fill="#CFAE58" opacity="0.16792080932657144"/>
  <circle cx="640.4714422762446" cy="530.586706495836" r="4.532293314412575" fill="#CFAE58" opacity="0.14061116916821417"/>
  <circle cx="683.9142985954207" cy="326.638482458617" r="3.4681826991353066" fill="#CFAE58" opacity="0.2222355074589109"/>
  <circle cx="752.4343270448499" cy="377.64485173884157" r="5.804833789255461" fill="#CFAE58" opacity="0.13348248590399936"/>
  <circle cx="72.68082191571814" cy="510.2012032413277" r="4.8818418842333475" fill="#CFAE58" opacity="0.17654371784402867"/>
  <circle cx="1149.6931759208887" cy="384.83592982439757" r="2.9407617246134325" fill="#CFAE58" opacity="0.10394226882634364"/>
  <circle cx="25.616347776572557" cy="188.56890859794743" r="4.329546386364419" fill="#CFAE58" opacity="0.18761885101018622"/>
  <circle cx="672.1988528815328" cy="487.67672220415653" r="5.331463151577368" fill="#CFAE58" opacity="0.23937353483086393"/>
  <circle cx="585.0494765532744" cy="301.2263142410971" r="3.610292139751744" fill="#CFAE58" opacity="0.2235518242958443"/>
  <circle cx="1175.2832379640759" cy="363.6343624338405" r="2.180962746830337" fill="#CFAE58" opacity="0.1803724122340935"/>
  <circle cx="1199.043200977349" cy="496.68578154236263" r="2.057840447260867" fill="#CFAE58" opacity="0.24738538613861422"/>
  <circle cx="353.71251589187364" cy="29.970501025552064" r="2.738425925567963" fill="#CFAE58" opacity="0.2193132205500473"/>
  <circle cx="654.9764778542647" cy="490.1594892458823" r="4.116108797440069" fill="#CFAE58" opacity="0.10199812523811015"/>
  <circle cx="848.4648501665683" cy="413.0469004711438" r="3.3125053771527613" fill="#CFAE58" opacity="0.1107159414529426"/>
  <circle cx="1187.559947595836" cy="174.65436436428317" r="4.9070553810855095" fill="#CFAE58" opacity="0.11400030705168847"/>

  <!-- Border with glow -->
  <rect x="40" y="40" width="1120" height="550" fill="none" stroke="url(#goldGradient)" stroke-width="3" rx="12" filter="url(#softGlow)"/>

  <!-- Icon circle with premium background -->
  <circle cx="150" cy="200" r="75" fill="#CFAE58" opacity="0.15" filter="url(#softGlow)"/>
  <circle cx="150" cy="200" r="70" fill="#CFAE58" opacity="0.25"/>
  <text x="150" y="235" font-size="90" text-anchor="middle" fill="#CFAE58" filter="url(#glow)">✓</text>

  <!-- Premium logo (crown) with enhanced styling -->
  <g transform="translate(100, 70)">
    <path d="M 30 20 L 40 35 L 35 35 Z M 50 15 L 60 35 L 45 35 Z M 65 20 L 75 35 L 70 35 Z M 30 35 L 75 35 L 73 45 L 32 45 Z"
          fill="url(#goldGradient)" filter="url(#glow)" stroke="#B89842" stroke-width="0.5"/>
    <circle cx="40" cy="25" r="3" fill="#4FD1C5" filter="url(#glow)"/>
    <circle cx="52" cy="20" r="4" fill="#4FD1C5" filter="url(#glow)"/>
    <circle cx="65" cy="25" r="3" fill="#4FD1C5" filter="url(#glow)"/>
  </g>

  <!-- Title with shadow -->
  <text x="280" y="180" font-family="Georgia, serif" font-size="72" font-weight="bold"
        fill="url(#goldGradient)" filter="url(#shadow)">Mercury eVSD System</text>

  <!-- Subtitle with subtle glow -->
  <text x="280" y="230" font-family="Arial, sans-serif" font-size="36"
        fill="#D6DEE6" opacity="0.95" filter="url(#softGlow)">Electronic Veterinary Certification</text>

  <!-- Brand name with letter spacing -->
  <text x="280" y="300" font-family="Georgia, serif" font-size="32" font-weight="bold"
        fill="#CFAE58" letter-spacing="4" filter="url(#glow)">ROYAL KETA</text>

  <!-- Russian tagline -->
  <text x="280" y="340" font-family="Arial, sans-serif" font-size="22" font-style="italic"
        fill="#8B95A1" opacity="0.8">От икринки к королевской</text>

  <!-- Location -->
  <text x="280" y="380" font-family="Arial, sans-serif" font-size="20"
        fill="#8B95A1" opacity="0.7">Невельский район, Сахалин</text>

  <!-- Website with glow -->
  <text x="100" y="570" font-family="Arial, sans-serif" font-size="30" font-weight="bold"
        fill="#4FD1C5" filter="url(#glow)">royalketa.com</text>

  <!-- Enhanced decorative salmon silhouette -->
  <g transform="translate(950, 480)" opacity="0.2" filter="url(#softGlow)">
    <ellipse cx="0" cy="0" rx="90" ry="35" fill="#CFAE58"/>
    <path d="M 90 0 L 120 -18 L 130 0 L 120 18 Z" fill="#CFAE58"/>
    <path d="M -25 -35 L 0 -45 L 25 -35 Z" fill="#CFAE58"/>
    <ellipse cx="-50" cy="0" rx="15" ry="12" fill="#0B0F14"/>
  </g>

  <!-- Additional decorative caviar clusters -->
  <g opacity="0.2">
    <circle cx="1050" cy="120" r="6" fill="#CFAE58"/>
    <circle cx="1065" cy="115" r="5" fill="#CFAE58"/>
    <circle cx="1058" cy="130" r="4" fill="#CFAE58"/>
    <circle cx="150" cy="500" r="5" fill="#4FD1C5"/>
    <circle cx="165" cy="508" r="4" fill="#4FD1C5"/>
    <circle cx="140" cy="512" r="5" fill="#4FD1C5"/>
  </g>
</svg>