<svg width="1200" height="630" xmlns="http://www.w3.org/2000/svg">
  <defs>
    <linearGradient id="bgGradient" x1="0%" y1="0%" x2="100%" y2="100%">
      <stop offset="0%" style="stop-color:#0B0F14;stop-opacity:1" />
      <stop offset="50%" style="stop-color:#0F1619;stop-opacity:1" />
      <stop offset="100%" style="stop-color:#0F1922;stop-opacity:1" />
    </linearGradient>
    <linearGradient id="goldGradient" x1="0%" y1="0%" x2="100%" y2="0%">
      <stop offset="0%" style="stop-color:#E5D596;stop-opacity:1" />
      <stop offset="50%" style="stop-color:#CFAE58;stop-opacity:1" />
      <stop offset="100%" style="stop-color:#B89842;stop-opacity:1" />
    </linearGradient>
    <radialGradient id="oceanGradient" cx="50%" cy="50%" r="50%">
      <stop offset="0%" style="stop-color:#4FD1C5;stop-opacity:0.3" />
      <stop offset="100%" style="stop-color:#1E90A0;stop-opacity:0.05" />
    </radialGradient>
    <filter id="glow">
      <feGaussianBlur stdDeviation="5" result="coloredBlur"/>
      <feMerge>
        <feMergeNode in="coloredBlur"/>
        <feMergeNode in="SourceGraphic"/>
      </feMerge>
    </filter>
    <filter id="softGlow">
      <feGaussianBlur stdDeviation="8" result="coloredBlur"/>
      <feMerge>
        <feMergeNode in="coloredBlur"/>
        <feMergeNode in="SourceGraphic"/>
      </feMerge>
    </filter>
    <filter id="shadow">
      <feDropShadow dx="0" dy="4" stdDeviation="8" flood-color="#000000" flood-opacity="0.5"/>
    </filter>
  </defs>

  <!-- Background -->
  <rect width="1200" height="630" fill="url(#bgGradient)"/>

  <!-- Decorative ocean gradients -->
  <ellipse cx="1000" cy="150" rx="300" ry="200" fill="url(#oceanGradient)" opacity="0.4"/>
  <ellipse cx="200" cy="530" rx="250" ry="180" fill="url(#oceanGradient)" opacity="0.3"/>

  <!-- Wave patterns -->
  <path d="M 0 400 Q 300 350 600 400 T 1200 400 L 1200 630 L 0 630 Z" fill="#1E90A0" opacity="0.08"/>
  <path d="M 0 450 Q 250 420 500 450 T 1000 450 T 1200 450 L 1200 630 L 0 630 Z" fill="#4FD1C5" opacity="0.05"/>

  <!-- Caviar roe particles -->
  <circle cx="331.55768549218897" cy="67.51365531552317" r="5.850584826865523" fill="#CFAE58" opacity="0.1382347942509066"/>
  <circle cx="346.4907639317952" cy="108.22215520604597" r="5.596054800256175" fill="#CFAE58" opacity="0.18671902449760988"/>
  <circle cx="105.78108692916075" cy="456.7126316121159" r="4.715717320874292" fill="#CFAE58" opacity="0.1973849600020391"/>
  <circle cx="1028.0124400044178" cy="308.2523239313549" r="3.6346119913511394" fill="#CFAE58" opacity="0.20625241328043575"/>
  <circle cx="1191.3558683866227" cy="394.36214912774307" r="5.814036685982668" fill="#CFAE58" opacity="0.11261740189603361"/>
  <circle cx="1031.0417501605805" cy="308.53385816175273" r="5.103772342318638" fill="#CFAE58" opacity="0.18402322302212754"/>
  <circle cx="813.0876865511564" cy="150.5251499223126" r="2.140327261093571" fill="#CFAE58" opacity="0.20251480828557947"/>
  <circle cx="220.60697588220438" cy="271.3680719975337" r="5.299423967465297" fill="#CFAE58" opacity="0.21006144332190194"/>
  <circle cx="126.92076485171464" cy="482.6425347556835" r="4.262091785283445" fill="#CFAE58" opacity="0.2327945359855087"/>
  <circle cx="94.14516451370378" cy="451.07376127059064" r="5.483691449583864" fill="#CFAE58" opacity="0.1492789967204433"/>
  <circle cx="1182.5737185686737" cy="439.47674702368613" r="5.941757534813035" fill="#CFAE58" opacity="0.19262734917706897"/>
  <circle cx="383.55505960779783" cy="252.62961349882266" r="4.238170013376813" fill="#CFAE58" opacity="0.20436291737862128"/>
  <circle cx="790.3862836289389" cy="462.38773312398763" r="3.909266191133246" fill="#CFAE58" opacity="0.11585718133274073"/>
  <circle cx="1130.954155545096" cy="354.3093157067398" r="4.435515831015588" fill="#CFAE58" opacity="0.22210634529564435"/>
  <circle cx="267.8839370293924" cy="136.55393325433818" r="4.805351134053211" fill="#CFAE58" opacity="0.1903209052156633"/>
  <circle cx="185.4962905350674" cy="44.212586152392554" r="5.7667178054422825" fill="#CFAE58" opacity="0.22198109371482988"/>
  <circle cx="313.2506093405087" cy="575.4121387833159" r="4.38783750648738" fill="#CFAE58" opacity="0.11798214500547244"/>
  <circle cx="375.2267128415678" cy="386.99577709388484" r="2.8228440170941402" fill="#CFAE58" opacity="0.20551100582658027"/>
  <circle cx="1027.909091831177" cy="255.13488913353223" r="3.358213860612042" fill="#CFAE58" opacity="0.11236825839322921"/>
  <circle cx="352.66485705615" cy="55.878277850366814" r="4.615472307277676" fill="#CFAE58" opacity="0.22300232128945016"/>
  <circle cx="593.5841606088585" cy="252.95834373824457" r="2.070751244061954" fill="#CFAE58" opacity="0.13672338180812835"/>
  <circle cx="460.8899610898432" cy="613.0850086440566" r="4.991264410334912" fill="#CFAE58" opacity="0.1458513623148328"/>
  <circle cx="874.770826668415" cy="10.953825985969194" r="4.543774657185742" fill="#CFAE58" opacity="0.23686224179093945"/>
  <circle cx="754.9295304316804" cy="34.880925895119105" r="2.846235083484088" fill="#CFAE58" opacity="0.19514635091642613"/>
  <circle cx="576.3612173961958" cy="403.86437851140215" r="3.9552396010543935" fill="#CFAE58" opacity="0.17041836909939273"/>
  <circle cx="334.6351517933848" cy="404.92737929373794" r="2.281406376363962" fill="#CFAE58" opacity="0.17186084623719897"/>
  <circle cx="909.6652030910608" cy="474.3830640689516" r="4.941329834884685" fill="#CFAE58" opacity="0.11845440963617594"/>
  <circle cx="1123.6968470581858" cy="437.0202518417021" r="4.9448098584111015" fill="#CFAE58" opacity="0.214596858140834"/>
  <circle cx="1125.9958594115105" cy="139.0851041600425" r="3.61439356184826" fill="#CFAE58" opacity="0.1418011920879414"/>
  <circle cx="1104.4001763451738" cy="459.8018603796469" r="2.4953462164704563" fill="#CFAE58" opacity="0.11784762854692812"/>

  <!-- Border with glow -->
  <rect x="40" y="40" width="1120" height="550" fill="none" stroke="url(#goldGradient)" stroke-width="3" rx="12" filter="url(#softGlow)"/>

  <!-- Icon circle with premium background -->
  <circle cx="150" cy="200" r="75" fill="#CFAE58" opacity="0.15" filter="url(#softGlow)"/>
  <circle cx="150" cy="200" r="70" fill="#CFAE58" opacity="0.25"/>
  <text x="150" y="235" font-size="90" text-anchor="middle" fill="#CFAE58" filter="url(#glow)">✓</text>

  <!-- Premium logo (crown) with enhanced styling -->
  <g transform="translate(100, 70)">
    <path d="M 30 20 L 40 35 L 35 35 Z M 50 15 L 60 35 L 45 35 Z M 65 20 L 75 35 L 70 35 Z M 30 35 L 75 35 L 73 45 L 32 45 Z"
          fill="url(#goldGradient)" filter="url(#glow)" stroke="#B89842" stroke-width="0.5"/>
    <circle cx="40" cy="25" r="3" fill="#4FD1C5" filter="url(#glow)"/>
    <circle cx="52" cy="20" r="4" fill="#4FD1C5" filter="url(#glow)"/>
    <circle cx="65" cy="25" r="3" fill="#4FD1C5" filter="url(#glow)"/>
  </g>

  <!-- Title with shadow -->
  <text x="280" y="180" font-family="Georgia, serif" font-size="72" font-weight="bold"
        fill="url(#goldGradient)" filter="url(#shadow)">Mercury eVSD System</text>

  <!-- Subtitle with subtle glow -->
  <text x="280" y="230" font-family="Arial, sans-serif" font-size="36"
        fill="#D6DEE6" opacity="0.95" filter="url(#softGlow)">Electronic Veterinary Certification</text>

  <!-- Brand name with letter spacing -->
  <text x="280" y="300" font-family="Georgia, serif" font-size="32" font-weight="bold"
        fill="#CFAE58" letter-spacing="4" filter="url(#glow)">ROYAL KETA</text>

  <!-- Russian tagline -->
  <text x="280" y="340" font-family="Arial, sans-serif" font-size="22" font-style="italic"
        fill="#8B95A1" opacity="0.8">От икринки к королевской</text>

  <!-- Location -->
  <text x="280" y="380" font-family="Arial, sans-serif" font-size="20"
        fill="#8B95A1" opacity="0.7">Невельский район, Сахалин</text>

  <!-- Website with glow -->
  <text x="100" y="570" font-family="Arial, sans-serif" font-size="30" font-weight="bold"
        fill="#4FD1C5" filter="url(#glow)">royalketa.com</text>

  <!-- Enhanced decorative salmon silhouette -->
  <g transform="translate(950, 480)" opacity="0.2" filter="url(#softGlow)">
    <ellipse cx="0" cy="0" rx="90" ry="35" fill="#CFAE58"/>
    <path d="M 90 0 L 120 -18 L 130 0 L 120 18 Z" fill="#CFAE58"/>
    <path d="M -25 -35 L 0 -45 L 25 -35 Z" fill="#CFAE58"/>
    <ellipse cx="-50" cy="0" rx="15" ry="12" fill="#0B0F14"/>
  </g>

  <!-- Additional decorative caviar clusters -->
  <g opacity="0.2">
    <circle cx="1050" cy="120" r="6" fill="#CFAE58"/>
    <circle cx="1065" cy="115" r="5" fill="#CFAE58"/>
    <circle cx="1058" cy="130" r="4" fill="#CFAE58"/>
    <circle cx="150" cy="500" r="5" fill="#4FD1C5"/>
    <circle cx="165" cy="508" r="4" fill="#4FD1C5"/>
    <circle cx="140" cy="512" r="5" fill="#4FD1C5"/>
  </g>
</svg>