<svg width="1200" height="630" xmlns="http://www.w3.org/2000/svg">
  <defs>
    <linearGradient id="bgGradient" x1="0%" y1="0%" x2="100%" y2="100%">
      <stop offset="0%" style="stop-color:#0B0F14;stop-opacity:1" />
      <stop offset="50%" style="stop-color:#0F1619;stop-opacity:1" />
      <stop offset="100%" style="stop-color:#0F1922;stop-opacity:1" />
    </linearGradient>
    <linearGradient id="goldGradient" x1="0%" y1="0%" x2="100%" y2="0%">
      <stop offset="0%" style="stop-color:#E5D596;stop-opacity:1" />
      <stop offset="50%" style="stop-color:#CFAE58;stop-opacity:1" />
      <stop offset="100%" style="stop-color:#B89842;stop-opacity:1" />
    </linearGradient>
    <radialGradient id="oceanGradient" cx="50%" cy="50%" r="50%">
      <stop offset="0%" style="stop-color:#4FD1C5;stop-opacity:0.3" />
      <stop offset="100%" style="stop-color:#1E90A0;stop-opacity:0.05" />
    </radialGradient>
    <filter id="glow">
      <feGaussianBlur stdDeviation="5" result="coloredBlur"/>
      <feMerge>
        <feMergeNode in="coloredBlur"/>
        <feMergeNode in="SourceGraphic"/>
      </feMerge>
    </filter>
    <filter id="softGlow">
      <feGaussianBlur stdDeviation="8" result="coloredBlur"/>
      <feMerge>
        <feMergeNode in="coloredBlur"/>
        <feMergeNode in="SourceGraphic"/>
      </feMerge>
    </filter>
    <filter id="shadow">
      <feDropShadow dx="0" dy="4" stdDeviation="8" flood-color="#000000" flood-opacity="0.5"/>
    </filter>
  </defs>

  <!-- Background -->
  <rect width="1200" height="630" fill="url(#bgGradient)"/>

  <!-- Decorative ocean gradients -->
  <ellipse cx="1000" cy="150" rx="300" ry="200" fill="url(#oceanGradient)" opacity="0.4"/>
  <ellipse cx="200" cy="530" rx="250" ry="180" fill="url(#oceanGradient)" opacity="0.3"/>

  <!-- Wave patterns -->
  <path d="M 0 400 Q 300 350 600 400 T 1200 400 L 1200 630 L 0 630 Z" fill="#1E90A0" opacity="0.08"/>
  <path d="M 0 450 Q 250 420 500 450 T 1000 450 T 1200 450 L 1200 630 L 0 630 Z" fill="#4FD1C5" opacity="0.05"/>

  <!-- Caviar roe particles -->
  <circle cx="385.0609873180879" cy="171.15157829259294" r="4.11749580534832" fill="#CFAE58" opacity="0.11516447411195879"/>
  <circle cx="769.7313634599126" cy="465.0562802427367" r="2.8532987503589418" fill="#CFAE58" opacity="0.19229515361705932"/>
  <circle cx="247.03754764330105" cy="478.4444933203203" r="5.209267250707477" fill="#CFAE58" opacity="0.2246748660542408"/>
  <circle cx="323.9954512978921" cy="75.8645536918921" r="3.7888546766560602" fill="#CFAE58" opacity="0.22895504278553502"/>
  <circle cx="760.4240009462856" cy="123.32928031741078" r="3.548185801490816" fill="#CFAE58" opacity="0.20677961533925515"/>
  <circle cx="605.2375787220644" cy="74.7192957533301" r="4.588366618185238" fill="#CFAE58" opacity="0.1250660044073749"/>
  <circle cx="858.7206201545764" cy="298.5804739816273" r="2.103126900239119" fill="#CFAE58" opacity="0.18923301525648786"/>
  <circle cx="549.1817839339043" cy="112.78929522671076" r="5.796037513866322" fill="#CFAE58" opacity="0.15752930173408544"/>
  <circle cx="1116.9641725262634" cy="539.5002657183447" r="4.250850985739463" fill="#CFAE58" opacity="0.1608665855252404"/>
  <circle cx="731.1957009519189" cy="77.00364821684528" r="4.100457196785875" fill="#CFAE58" opacity="0.1527698653162101"/>
  <circle cx="311.50969756116575" cy="536.9030497308391" r="5.509172187718443" fill="#CFAE58" opacity="0.17621162035553728"/>
  <circle cx="180.1781086055576" cy="629.890453265246" r="5.86578616300439" fill="#CFAE58" opacity="0.12439989679676719"/>
  <circle cx="637.9576691438318" cy="449.1427299026414" r="3.385338973630643" fill="#CFAE58" opacity="0.23609505340705886"/>
  <circle cx="583.9522073943364" cy="122.9528959243262" r="4.755287165193851" fill="#CFAE58" opacity="0.1458090152282187"/>
  <circle cx="95.73782649569532" cy="230.29600254133732" r="2.2949368266288137" fill="#CFAE58" opacity="0.20990914624727308"/>
  <circle cx="13.798523427896692" cy="161.88797378330102" r="3.531083648591659" fill="#CFAE58" opacity="0.11035765755890718"/>
  <circle cx="742.8566659756468" cy="55.20080478759447" r="3.2283548238533633" fill="#CFAE58" opacity="0.10846879490613866"/>
  <circle cx="276.2216772972604" cy="346.05159078630186" r="2.9992516217799774" fill="#CFAE58" opacity="0.21153794619343075"/>
  <circle cx="928.0990028785266" cy="593.6327196511266" r="2.3465352708866907" fill="#CFAE58" opacity="0.19536728750745133"/>
  <circle cx="686.5941740128237" cy="608.3659936301156" r="2.760011356153141" fill="#CFAE58" opacity="0.21169126879375788"/>
  <circle cx="183.80451112046973" cy="202.0670010219221" r="2.9026052000574185" fill="#CFAE58" opacity="0.10996552371790795"/>
  <circle cx="154.42171555869288" cy="278.86739123571647" r="2.970515936125153" fill="#CFAE58" opacity="0.21126459147755916"/>
  <circle cx="311.3595136898602" cy="543.2933446010985" r="4.761451330181415" fill="#CFAE58" opacity="0.12236580175780597"/>
  <circle cx="43.42054714931041" cy="561.5388632119647" r="3.671898615408712" fill="#CFAE58" opacity="0.1848125062580882"/>
  <circle cx="1145.7216828113942" cy="455.1729406983078" r="3.042855289067343" fill="#CFAE58" opacity="0.22260030811645645"/>
  <circle cx="539.5142379787314" cy="108.9995659013807" r="3.7559777185364602" fill="#CFAE58" opacity="0.21968318040554324"/>
  <circle cx="213.19650188793688" cy="551.4166513498285" r="4.834527716059068" fill="#CFAE58" opacity="0.18837370451071878"/>
  <circle cx="168.5513021283317" cy="273.5736568699441" r="2.3194920284228555" fill="#CFAE58" opacity="0.19605641090662024"/>
  <circle cx="936.2437874910769" cy="208.37813979541144" r="4.0915446706089025" fill="#CFAE58" opacity="0.17818929543889706"/>
  <circle cx="182.30969662157065" cy="27.472382217469583" r="4.765355879839966" fill="#CFAE58" opacity="0.17571694070370025"/>

  <!-- Border with glow -->
  <rect x="40" y="40" width="1120" height="550" fill="none" stroke="url(#goldGradient)" stroke-width="3" rx="12" filter="url(#softGlow)"/>

  <!-- Icon circle with premium background -->
  <circle cx="150" cy="200" r="75" fill="#CFAE58" opacity="0.15" filter="url(#softGlow)"/>
  <circle cx="150" cy="200" r="70" fill="#CFAE58" opacity="0.25"/>
  <text x="150" y="235" font-size="90" text-anchor="middle" fill="#CFAE58" filter="url(#glow)">✓</text>

  <!-- Premium logo (crown) with enhanced styling -->
  <g transform="translate(100, 70)">
    <path d="M 30 20 L 40 35 L 35 35 Z M 50 15 L 60 35 L 45 35 Z M 65 20 L 75 35 L 70 35 Z M 30 35 L 75 35 L 73 45 L 32 45 Z"
          fill="url(#goldGradient)" filter="url(#glow)" stroke="#B89842" stroke-width="0.5"/>
    <circle cx="40" cy="25" r="3" fill="#4FD1C5" filter="url(#glow)"/>
    <circle cx="52" cy="20" r="4" fill="#4FD1C5" filter="url(#glow)"/>
    <circle cx="65" cy="25" r="3" fill="#4FD1C5" filter="url(#glow)"/>
  </g>

  <!-- Title with shadow -->
  <text x="280" y="180" font-family="Georgia, serif" font-size="72" font-weight="bold"
        fill="url(#goldGradient)" filter="url(#shadow)">Mercury eVSD System</text>

  <!-- Subtitle with subtle glow -->
  <text x="280" y="230" font-family="Arial, sans-serif" font-size="36"
        fill="#D6DEE6" opacity="0.95" filter="url(#softGlow)">Electronic Veterinary Certification</text>

  <!-- Brand name with letter spacing -->
  <text x="280" y="300" font-family="Georgia, serif" font-size="32" font-weight="bold"
        fill="#CFAE58" letter-spacing="4" filter="url(#glow)">ROYAL KETA</text>

  <!-- Russian tagline -->
  <text x="280" y="340" font-family="Arial, sans-serif" font-size="22" font-style="italic"
        fill="#8B95A1" opacity="0.8">От икринки к королевской</text>

  <!-- Location -->
  <text x="280" y="380" font-family="Arial, sans-serif" font-size="20"
        fill="#8B95A1" opacity="0.7">Невельский район, Сахалин</text>

  <!-- Website with glow -->
  <text x="100" y="570" font-family="Arial, sans-serif" font-size="30" font-weight="bold"
        fill="#4FD1C5" filter="url(#glow)">royalketa.com</text>

  <!-- Enhanced decorative salmon silhouette -->
  <g transform="translate(950, 480)" opacity="0.2" filter="url(#softGlow)">
    <ellipse cx="0" cy="0" rx="90" ry="35" fill="#CFAE58"/>
    <path d="M 90 0 L 120 -18 L 130 0 L 120 18 Z" fill="#CFAE58"/>
    <path d="M -25 -35 L 0 -45 L 25 -35 Z" fill="#CFAE58"/>
    <ellipse cx="-50" cy="0" rx="15" ry="12" fill="#0B0F14"/>
  </g>

  <!-- Additional decorative caviar clusters -->
  <g opacity="0.2">
    <circle cx="1050" cy="120" r="6" fill="#CFAE58"/>
    <circle cx="1065" cy="115" r="5" fill="#CFAE58"/>
    <circle cx="1058" cy="130" r="4" fill="#CFAE58"/>
    <circle cx="150" cy="500" r="5" fill="#4FD1C5"/>
    <circle cx="165" cy="508" r="4" fill="#4FD1C5"/>
    <circle cx="140" cy="512" r="5" fill="#4FD1C5"/>
  </g>
</svg>