<svg width="1200" height="630" xmlns="http://www.w3.org/2000/svg">
  <defs>
    <linearGradient id="bgGradient" x1="0%" y1="0%" x2="100%" y2="100%">
      <stop offset="0%" style="stop-color:#0B0F14;stop-opacity:1" />
      <stop offset="50%" style="stop-color:#0F1619;stop-opacity:1" />
      <stop offset="100%" style="stop-color:#0F1922;stop-opacity:1" />
    </linearGradient>
    <linearGradient id="goldGradient" x1="0%" y1="0%" x2="100%" y2="0%">
      <stop offset="0%" style="stop-color:#E5D596;stop-opacity:1" />
      <stop offset="50%" style="stop-color:#CFAE58;stop-opacity:1" />
      <stop offset="100%" style="stop-color:#B89842;stop-opacity:1" />
    </linearGradient>
    <radialGradient id="oceanGradient" cx="50%" cy="50%" r="50%">
      <stop offset="0%" style="stop-color:#4FD1C5;stop-opacity:0.3" />
      <stop offset="100%" style="stop-color:#1E90A0;stop-opacity:0.05" />
    </radialGradient>
    <filter id="glow">
      <feGaussianBlur stdDeviation="5" result="coloredBlur"/>
      <feMerge>
        <feMergeNode in="coloredBlur"/>
        <feMergeNode in="SourceGraphic"/>
      </feMerge>
    </filter>
    <filter id="softGlow">
      <feGaussianBlur stdDeviation="8" result="coloredBlur"/>
      <feMerge>
        <feMergeNode in="coloredBlur"/>
        <feMergeNode in="SourceGraphic"/>
      </feMerge>
    </filter>
    <filter id="shadow">
      <feDropShadow dx="0" dy="4" stdDeviation="8" flood-color="#000000" flood-opacity="0.5"/>
    </filter>
  </defs>

  <!-- Background -->
  <rect width="1200" height="630" fill="url(#bgGradient)"/>

  <!-- Decorative ocean gradients -->
  <ellipse cx="1000" cy="150" rx="300" ry="200" fill="url(#oceanGradient)" opacity="0.4"/>
  <ellipse cx="200" cy="530" rx="250" ry="180" fill="url(#oceanGradient)" opacity="0.3"/>

  <!-- Wave patterns -->
  <path d="M 0 400 Q 300 350 600 400 T 1200 400 L 1200 630 L 0 630 Z" fill="#1E90A0" opacity="0.08"/>
  <path d="M 0 450 Q 250 420 500 450 T 1000 450 T 1200 450 L 1200 630 L 0 630 Z" fill="#4FD1C5" opacity="0.05"/>

  <!-- Caviar roe particles -->
  <circle cx="1185.5022240531239" cy="304.5216858660206" r="5.802538134225301" fill="#CFAE58" opacity="0.15806158045035265"/>
  <circle cx="826.804894299351" cy="230.06848329828856" r="5.3120352009314535" fill="#CFAE58" opacity="0.11495995980570643"/>
  <circle cx="867.7823711078463" cy="127.36782822251104" r="4.203502192914433" fill="#CFAE58" opacity="0.13882454609422393"/>
  <circle cx="929.8078587956951" cy="493.7975560261644" r="3.1876665409520584" fill="#CFAE58" opacity="0.20129115864273364"/>
  <circle cx="665.5948771913496" cy="320.39123431321156" r="5.897463781282729" fill="#CFAE58" opacity="0.18787172315988226"/>
  <circle cx="1053.1951257013075" cy="162.48452618950202" r="2.042767822888875" fill="#CFAE58" opacity="0.16425335722087606"/>
  <circle cx="1114.6265761168554" cy="266.73120746768876" r="3.982736109397988" fill="#CFAE58" opacity="0.11606487701132773"/>
  <circle cx="748.0401959864608" cy="67.33704362545635" r="5.937596069255174" fill="#CFAE58" opacity="0.15809721083919898"/>
  <circle cx="646.7404016492682" cy="86.37837964953448" r="3.681860806907118" fill="#CFAE58" opacity="0.15351920863090218"/>
  <circle cx="53.9882515232398" cy="230.27520091713512" r="4.533930279763825" fill="#CFAE58" opacity="0.23986767053491478"/>
  <circle cx="1178.4792020709301" cy="495.4129639639958" r="2.6353598135651666" fill="#CFAE58" opacity="0.22047896695813218"/>
  <circle cx="418.6427215885237" cy="148.65507903032713" r="5.158576814564752" fill="#CFAE58" opacity="0.22865205131132377"/>
  <circle cx="826.094288500775" cy="628.6331899550551" r="2.391708534880006" fill="#CFAE58" opacity="0.1854417765301502"/>
  <circle cx="640.2202608100198" cy="526.7893123776228" r="3.5689164306015915" fill="#CFAE58" opacity="0.142880564598662"/>
  <circle cx="1055.3241918210801" cy="41.330556240956675" r="5.44109829855109" fill="#CFAE58" opacity="0.128872138102335"/>
  <circle cx="637.8857225630768" cy="350.75570790715255" r="2.2993350433743527" fill="#CFAE58" opacity="0.225729518423276"/>
  <circle cx="1004.2140250427339" cy="471.21855739772053" r="5.691087494569519" fill="#CFAE58" opacity="0.24759061918386388"/>
  <circle cx="161.6386713276359" cy="428.71640616941994" r="5.578462796831739" fill="#CFAE58" opacity="0.128424682912597"/>
  <circle cx="739.1102717249834" cy="520.8228971285071" r="5.633093667298114" fill="#CFAE58" opacity="0.21175693014731223"/>
  <circle cx="243.05382700566497" cy="253.4311949965018" r="5.639063711780095" fill="#CFAE58" opacity="0.2227604754006391"/>
  <circle cx="936.3953582862683" cy="107.64590651337043" r="4.276623006517334" fill="#CFAE58" opacity="0.22042497039510348"/>
  <circle cx="98.52666177624205" cy="606.4658719875848" r="3.8067148044520533" fill="#CFAE58" opacity="0.21912207555822052"/>
  <circle cx="442.71009934066853" cy="108.78088181267823" r="5.070136409711352" fill="#CFAE58" opacity="0.11243091207990184"/>
  <circle cx="962.2660316589479" cy="576.2684695561825" r="2.456184495823994" fill="#CFAE58" opacity="0.15442421445475618"/>
  <circle cx="320.01514746807936" cy="213.35837747618757" r="5.542645902002394" fill="#CFAE58" opacity="0.17606233734490556"/>
  <circle cx="535.5156995347122" cy="139.86636997989697" r="4.777012816290983" fill="#CFAE58" opacity="0.1265290434586259"/>
  <circle cx="873.9867425856447" cy="120.937688193494" r="5.122466229848051" fill="#CFAE58" opacity="0.12076127829100458"/>
  <circle cx="1044.8989717213726" cy="403.10328746464745" r="5.741876397975185" fill="#CFAE58" opacity="0.21191466960912364"/>
  <circle cx="640.7410879405919" cy="497.9592269491393" r="4.7308492291448605" fill="#CFAE58" opacity="0.15278982956833598"/>
  <circle cx="409.4263513711035" cy="209.40276591783257" r="3.3156553925702044" fill="#CFAE58" opacity="0.20195735724265634"/>

  <!-- Border with glow -->
  <rect x="40" y="40" width="1120" height="550" fill="none" stroke="url(#goldGradient)" stroke-width="3" rx="12" filter="url(#softGlow)"/>

  <!-- Icon circle with premium background -->
  <circle cx="150" cy="200" r="75" fill="#CFAE58" opacity="0.15" filter="url(#softGlow)"/>
  <circle cx="150" cy="200" r="70" fill="#CFAE58" opacity="0.25"/>
  <text x="150" y="235" font-size="90" text-anchor="middle" fill="#CFAE58" filter="url(#glow)">✓</text>

  <!-- Premium logo (crown) with enhanced styling -->
  <g transform="translate(100, 70)">
    <path d="M 30 20 L 40 35 L 35 35 Z M 50 15 L 60 35 L 45 35 Z M 65 20 L 75 35 L 70 35 Z M 30 35 L 75 35 L 73 45 L 32 45 Z"
          fill="url(#goldGradient)" filter="url(#glow)" stroke="#B89842" stroke-width="0.5"/>
    <circle cx="40" cy="25" r="3" fill="#4FD1C5" filter="url(#glow)"/>
    <circle cx="52" cy="20" r="4" fill="#4FD1C5" filter="url(#glow)"/>
    <circle cx="65" cy="25" r="3" fill="#4FD1C5" filter="url(#glow)"/>
  </g>

  <!-- Title with shadow -->
  <text x="280" y="180" font-family="Georgia, serif" font-size="72" font-weight="bold"
        fill="url(#goldGradient)" filter="url(#shadow)">Mercury eVSD System</text>

  <!-- Subtitle with subtle glow -->
  <text x="280" y="230" font-family="Arial, sans-serif" font-size="36"
        fill="#D6DEE6" opacity="0.95" filter="url(#softGlow)">Electronic Veterinary Certification</text>

  <!-- Brand name with letter spacing -->
  <text x="280" y="300" font-family="Georgia, serif" font-size="32" font-weight="bold"
        fill="#CFAE58" letter-spacing="4" filter="url(#glow)">ROYAL KETA</text>

  <!-- Russian tagline -->
  <text x="280" y="340" font-family="Arial, sans-serif" font-size="22" font-style="italic"
        fill="#8B95A1" opacity="0.8">От икринки к королевской</text>

  <!-- Location -->
  <text x="280" y="380" font-family="Arial, sans-serif" font-size="20"
        fill="#8B95A1" opacity="0.7">Невельский район, Сахалин</text>

  <!-- Website with glow -->
  <text x="100" y="570" font-family="Arial, sans-serif" font-size="30" font-weight="bold"
        fill="#4FD1C5" filter="url(#glow)">royalketa.com</text>

  <!-- Enhanced decorative salmon silhouette -->
  <g transform="translate(950, 480)" opacity="0.2" filter="url(#softGlow)">
    <ellipse cx="0" cy="0" rx="90" ry="35" fill="#CFAE58"/>
    <path d="M 90 0 L 120 -18 L 130 0 L 120 18 Z" fill="#CFAE58"/>
    <path d="M -25 -35 L 0 -45 L 25 -35 Z" fill="#CFAE58"/>
    <ellipse cx="-50" cy="0" rx="15" ry="12" fill="#0B0F14"/>
  </g>

  <!-- Additional decorative caviar clusters -->
  <g opacity="0.2">
    <circle cx="1050" cy="120" r="6" fill="#CFAE58"/>
    <circle cx="1065" cy="115" r="5" fill="#CFAE58"/>
    <circle cx="1058" cy="130" r="4" fill="#CFAE58"/>
    <circle cx="150" cy="500" r="5" fill="#4FD1C5"/>
    <circle cx="165" cy="508" r="4" fill="#4FD1C5"/>
    <circle cx="140" cy="512" r="5" fill="#4FD1C5"/>
  </g>
</svg>