<svg width="1200" height="630" xmlns="http://www.w3.org/2000/svg">
  <defs>
    <linearGradient id="bgGradient" x1="0%" y1="0%" x2="100%" y2="100%">
      <stop offset="0%" style="stop-color:#0B0F14;stop-opacity:1" />
      <stop offset="50%" style="stop-color:#0F1619;stop-opacity:1" />
      <stop offset="100%" style="stop-color:#0F1922;stop-opacity:1" />
    </linearGradient>
    <linearGradient id="goldGradient" x1="0%" y1="0%" x2="100%" y2="0%">
      <stop offset="0%" style="stop-color:#E5D596;stop-opacity:1" />
      <stop offset="50%" style="stop-color:#CFAE58;stop-opacity:1" />
      <stop offset="100%" style="stop-color:#B89842;stop-opacity:1" />
    </linearGradient>
    <radialGradient id="oceanGradient" cx="50%" cy="50%" r="50%">
      <stop offset="0%" style="stop-color:#4FD1C5;stop-opacity:0.3" />
      <stop offset="100%" style="stop-color:#1E90A0;stop-opacity:0.05" />
    </radialGradient>
    <filter id="glow">
      <feGaussianBlur stdDeviation="5" result="coloredBlur"/>
      <feMerge>
        <feMergeNode in="coloredBlur"/>
        <feMergeNode in="SourceGraphic"/>
      </feMerge>
    </filter>
    <filter id="softGlow">
      <feGaussianBlur stdDeviation="8" result="coloredBlur"/>
      <feMerge>
        <feMergeNode in="coloredBlur"/>
        <feMergeNode in="SourceGraphic"/>
      </feMerge>
    </filter>
    <filter id="shadow">
      <feDropShadow dx="0" dy="4" stdDeviation="8" flood-color="#000000" flood-opacity="0.5"/>
    </filter>
  </defs>

  <!-- Background -->
  <rect width="1200" height="630" fill="url(#bgGradient)"/>

  <!-- Decorative ocean gradients -->
  <ellipse cx="1000" cy="150" rx="300" ry="200" fill="url(#oceanGradient)" opacity="0.4"/>
  <ellipse cx="200" cy="530" rx="250" ry="180" fill="url(#oceanGradient)" opacity="0.3"/>

  <!-- Wave patterns -->
  <path d="M 0 400 Q 300 350 600 400 T 1200 400 L 1200 630 L 0 630 Z" fill="#1E90A0" opacity="0.08"/>
  <path d="M 0 450 Q 250 420 500 450 T 1000 450 T 1200 450 L 1200 630 L 0 630 Z" fill="#4FD1C5" opacity="0.05"/>

  <!-- Caviar roe particles -->
  <circle cx="657.245341976984" cy="424.40845548591847" r="2.521282198138405" fill="#CFAE58" opacity="0.20013205091033603"/>
  <circle cx="482.0547476953752" cy="121.1295989411963" r="2.280060421695263" fill="#CFAE58" opacity="0.11201710470512023"/>
  <circle cx="336.13532941301526" cy="215.29936320426327" r="4.271115544369422" fill="#CFAE58" opacity="0.1633829891241924"/>
  <circle cx="153.75679008027956" cy="204.66224530274738" r="5.602975170012692" fill="#CFAE58" opacity="0.19495846198621705"/>
  <circle cx="391.72498082969554" cy="28.91563839346772" r="2.699186065363595" fill="#CFAE58" opacity="0.21624684716086903"/>
  <circle cx="422.175506199202" cy="328.62851547616816" r="5.197239434391196" fill="#CFAE58" opacity="0.1875620340276602"/>
  <circle cx="359.74746941536233" cy="417.44151314461953" r="2.2670540586740775" fill="#CFAE58" opacity="0.16036831510888402"/>
  <circle cx="821.6358445649031" cy="420.31197696268026" r="4.672986355736974" fill="#CFAE58" opacity="0.1321028986293163"/>
  <circle cx="470.87344768905376" cy="568.080378057475" r="2.824539524272001" fill="#CFAE58" opacity="0.21795561504745095"/>
  <circle cx="986.0498695558812" cy="571.2602089073619" r="3.2116114943200476" fill="#CFAE58" opacity="0.12641261578930404"/>
  <circle cx="440.94718612937896" cy="235.0495099455339" r="3.947099441777027" fill="#CFAE58" opacity="0.2355605202915314"/>
  <circle cx="180.5283650399515" cy="383.28398257211074" r="2.580826088903287" fill="#CFAE58" opacity="0.13539620956750342"/>
  <circle cx="1157.7702908161932" cy="604.8496098320942" r="5.909099565969198" fill="#CFAE58" opacity="0.1106585285056587"/>
  <circle cx="66.00535849611941" cy="192.45948576417737" r="5.6566160510244075" fill="#CFAE58" opacity="0.1444536078675093"/>
  <circle cx="191.43727331407425" cy="261.0803273266079" r="5.702207889765393" fill="#CFAE58" opacity="0.23352482428517135"/>
  <circle cx="32.2298582320133" cy="171.9746525172605" r="3.7583018309210456" fill="#CFAE58" opacity="0.2022837449779687"/>
  <circle cx="688.5928241598378" cy="71.45942772375574" r="5.722508135848901" fill="#CFAE58" opacity="0.14287811029474587"/>
  <circle cx="685.5762302800053" cy="403.6870638751159" r="4.028884275940326" fill="#CFAE58" opacity="0.12333759679588784"/>
  <circle cx="493.3170045855715" cy="17.87065759784629" r="5.082640966803563" fill="#CFAE58" opacity="0.2184970623031513"/>
  <circle cx="1086.299930957436" cy="131.31018890815417" r="5.556038948617271" fill="#CFAE58" opacity="0.14217293680679735"/>
  <circle cx="746.9270083412403" cy="289.5075530764437" r="4.658238531766495" fill="#CFAE58" opacity="0.21200826843358514"/>
  <circle cx="659.9114800648906" cy="49.499943055817795" r="3.226566713964835" fill="#CFAE58" opacity="0.21133554386567693"/>
  <circle cx="873.3509005014066" cy="354.21815322374704" r="5.073852987997686" fill="#CFAE58" opacity="0.15220440754001097"/>
  <circle cx="661.320028108177" cy="420.53729085569574" r="2.3558197937943937" fill="#CFAE58" opacity="0.11389204866061661"/>
  <circle cx="1167.8051905633465" cy="54.810080806057606" r="5.793800886093253" fill="#CFAE58" opacity="0.17881215899523978"/>
  <circle cx="622.7309617683127" cy="433.5216652321047" r="3.930493979693162" fill="#CFAE58" opacity="0.23516810254981"/>
  <circle cx="888.8910952109953" cy="85.66030736242146" r="4.42802716054635" fill="#CFAE58" opacity="0.14852328753179678"/>
  <circle cx="541.2132353099229" cy="149.40703291338116" r="2.5563523403267387" fill="#CFAE58" opacity="0.13928136873195573"/>
  <circle cx="138.6689884676862" cy="491.19845349601246" r="5.785889700523304" fill="#CFAE58" opacity="0.16718513868890017"/>
  <circle cx="293.39958342545003" cy="568.0083525990066" r="3.2817495061358146" fill="#CFAE58" opacity="0.15331675286105895"/>

  <!-- Border with glow -->
  <rect x="40" y="40" width="1120" height="550" fill="none" stroke="url(#goldGradient)" stroke-width="3" rx="12" filter="url(#softGlow)"/>

  <!-- Icon circle with premium background -->
  <circle cx="150" cy="200" r="75" fill="#CFAE58" opacity="0.15" filter="url(#softGlow)"/>
  <circle cx="150" cy="200" r="70" fill="#CFAE58" opacity="0.25"/>
  <text x="150" y="235" font-size="90" text-anchor="middle" fill="#CFAE58" filter="url(#glow)">✓</text>

  <!-- Premium logo (crown) with enhanced styling -->
  <g transform="translate(100, 70)">
    <path d="M 30 20 L 40 35 L 35 35 Z M 50 15 L 60 35 L 45 35 Z M 65 20 L 75 35 L 70 35 Z M 30 35 L 75 35 L 73 45 L 32 45 Z"
          fill="url(#goldGradient)" filter="url(#glow)" stroke="#B89842" stroke-width="0.5"/>
    <circle cx="40" cy="25" r="3" fill="#4FD1C5" filter="url(#glow)"/>
    <circle cx="52" cy="20" r="4" fill="#4FD1C5" filter="url(#glow)"/>
    <circle cx="65" cy="25" r="3" fill="#4FD1C5" filter="url(#glow)"/>
  </g>

  <!-- Title with shadow -->
  <text x="280" y="180" font-family="Georgia, serif" font-size="72" font-weight="bold"
        fill="url(#goldGradient)" filter="url(#shadow)">Mercury eVSD System</text>

  <!-- Subtitle with subtle glow -->
  <text x="280" y="230" font-family="Arial, sans-serif" font-size="36"
        fill="#D6DEE6" opacity="0.95" filter="url(#softGlow)">Electronic Veterinary Certification</text>

  <!-- Brand name with letter spacing -->
  <text x="280" y="300" font-family="Georgia, serif" font-size="32" font-weight="bold"
        fill="#CFAE58" letter-spacing="4" filter="url(#glow)">ROYAL KETA</text>

  <!-- Russian tagline -->
  <text x="280" y="340" font-family="Arial, sans-serif" font-size="22" font-style="italic"
        fill="#8B95A1" opacity="0.8">От икринки к королевской</text>

  <!-- Location -->
  <text x="280" y="380" font-family="Arial, sans-serif" font-size="20"
        fill="#8B95A1" opacity="0.7">Невельский район, Сахалин</text>

  <!-- Website with glow -->
  <text x="100" y="570" font-family="Arial, sans-serif" font-size="30" font-weight="bold"
        fill="#4FD1C5" filter="url(#glow)">royalketa.com</text>

  <!-- Enhanced decorative salmon silhouette -->
  <g transform="translate(950, 480)" opacity="0.2" filter="url(#softGlow)">
    <ellipse cx="0" cy="0" rx="90" ry="35" fill="#CFAE58"/>
    <path d="M 90 0 L 120 -18 L 130 0 L 120 18 Z" fill="#CFAE58"/>
    <path d="M -25 -35 L 0 -45 L 25 -35 Z" fill="#CFAE58"/>
    <ellipse cx="-50" cy="0" rx="15" ry="12" fill="#0B0F14"/>
  </g>

  <!-- Additional decorative caviar clusters -->
  <g opacity="0.2">
    <circle cx="1050" cy="120" r="6" fill="#CFAE58"/>
    <circle cx="1065" cy="115" r="5" fill="#CFAE58"/>
    <circle cx="1058" cy="130" r="4" fill="#CFAE58"/>
    <circle cx="150" cy="500" r="5" fill="#4FD1C5"/>
    <circle cx="165" cy="508" r="4" fill="#4FD1C5"/>
    <circle cx="140" cy="512" r="5" fill="#4FD1C5"/>
  </g>
</svg>