<svg width="1200" height="630" xmlns="http://www.w3.org/2000/svg">
  <defs>
    <linearGradient id="bgGradient" x1="0%" y1="0%" x2="100%" y2="100%">
      <stop offset="0%" style="stop-color:#0B0F14;stop-opacity:1" />
      <stop offset="50%" style="stop-color:#0F1619;stop-opacity:1" />
      <stop offset="100%" style="stop-color:#0F1922;stop-opacity:1" />
    </linearGradient>
    <linearGradient id="goldGradient" x1="0%" y1="0%" x2="100%" y2="0%">
      <stop offset="0%" style="stop-color:#E5D596;stop-opacity:1" />
      <stop offset="50%" style="stop-color:#CFAE58;stop-opacity:1" />
      <stop offset="100%" style="stop-color:#B89842;stop-opacity:1" />
    </linearGradient>
    <radialGradient id="oceanGradient" cx="50%" cy="50%" r="50%">
      <stop offset="0%" style="stop-color:#4FD1C5;stop-opacity:0.3" />
      <stop offset="100%" style="stop-color:#1E90A0;stop-opacity:0.05" />
    </radialGradient>
    <filter id="glow">
      <feGaussianBlur stdDeviation="5" result="coloredBlur"/>
      <feMerge>
        <feMergeNode in="coloredBlur"/>
        <feMergeNode in="SourceGraphic"/>
      </feMerge>
    </filter>
    <filter id="softGlow">
      <feGaussianBlur stdDeviation="8" result="coloredBlur"/>
      <feMerge>
        <feMergeNode in="coloredBlur"/>
        <feMergeNode in="SourceGraphic"/>
      </feMerge>
    </filter>
    <filter id="shadow">
      <feDropShadow dx="0" dy="4" stdDeviation="8" flood-color="#000000" flood-opacity="0.5"/>
    </filter>
  </defs>

  <!-- Background -->
  <rect width="1200" height="630" fill="url(#bgGradient)"/>

  <!-- Decorative ocean gradients -->
  <ellipse cx="1000" cy="150" rx="300" ry="200" fill="url(#oceanGradient)" opacity="0.4"/>
  <ellipse cx="200" cy="530" rx="250" ry="180" fill="url(#oceanGradient)" opacity="0.3"/>

  <!-- Wave patterns -->
  <path d="M 0 400 Q 300 350 600 400 T 1200 400 L 1200 630 L 0 630 Z" fill="#1E90A0" opacity="0.08"/>
  <path d="M 0 450 Q 250 420 500 450 T 1000 450 T 1200 450 L 1200 630 L 0 630 Z" fill="#4FD1C5" opacity="0.05"/>

  <!-- Caviar roe particles -->
  <circle cx="892.8143276337784" cy="366.70178256092913" r="4.945664211991579" fill="#CFAE58" opacity="0.105918707951369"/>
  <circle cx="1146.6611277367344" cy="621.5032774246469" r="2.313184313664764" fill="#CFAE58" opacity="0.1746738003539846"/>
  <circle cx="944.1797208536678" cy="291.05683485889267" r="5.733394775118993" fill="#CFAE58" opacity="0.11376054695616877"/>
  <circle cx="788.8833503298754" cy="36.78681701181337" r="3.5144165872274886" fill="#CFAE58" opacity="0.1908908717101654"/>
  <circle cx="887.3624720129941" cy="378.6231161785836" r="4.751218595573752" fill="#CFAE58" opacity="0.11601189728378036"/>
  <circle cx="1062.2585232546198" cy="105.93114956529777" r="3.0794556373972712" fill="#CFAE58" opacity="0.1757159519347686"/>
  <circle cx="143.01708043732262" cy="522.376364113661" r="5.315885124625091" fill="#CFAE58" opacity="0.14979103202015343"/>
  <circle cx="828.4612926309919" cy="339.383575908361" r="2.5305357438181204" fill="#CFAE58" opacity="0.1885584100555241"/>
  <circle cx="573.6133287862225" cy="218.28764288564997" r="4.685765521703573" fill="#CFAE58" opacity="0.1651778688018305"/>
  <circle cx="363.2849030415964" cy="352.9620847411397" r="2.699070897541013" fill="#CFAE58" opacity="0.22884197478647675"/>
  <circle cx="72.57356204821619" cy="209.331806768658" r="4.190008562739321" fill="#CFAE58" opacity="0.20059977974180573"/>
  <circle cx="823.4399602940049" cy="585.2485269722856" r="4.359681050288441" fill="#CFAE58" opacity="0.11940332100156842"/>
  <circle cx="455.4360638506212" cy="394.76033593901866" r="3.403359220488591" fill="#CFAE58" opacity="0.12861036873158474"/>
  <circle cx="44.73043115243263" cy="440.5114579818865" r="3.863896753179038" fill="#CFAE58" opacity="0.22911254931683428"/>
  <circle cx="912.8150099911813" cy="251.71170436655706" r="4.196006373449395" fill="#CFAE58" opacity="0.13399225739418297"/>
  <circle cx="750.5444652876397" cy="65.245147528117" r="5.439183426128314" fill="#CFAE58" opacity="0.20959430021975964"/>
  <circle cx="873.1649514220325" cy="588.5553094139445" r="5.323762658680955" fill="#CFAE58" opacity="0.16220248912373653"/>
  <circle cx="1052.4802733714946" cy="580.2708863838135" r="5.301073476739939" fill="#CFAE58" opacity="0.24158290241668812"/>
  <circle cx="507.9848252547487" cy="276.6754442021981" r="3.8554608422285686" fill="#CFAE58" opacity="0.15512991571564866"/>
  <circle cx="499.5097529984715" cy="0.805557956226719" r="3.0193844658899085" fill="#CFAE58" opacity="0.13972864765485432"/>
  <circle cx="110.91271639778935" cy="363.1047477680035" r="4.845002744707299" fill="#CFAE58" opacity="0.2083332350580458"/>
  <circle cx="893.6041386805874" cy="381.3183612389936" r="5.3596153023210515" fill="#CFAE58" opacity="0.1023758522697838"/>
  <circle cx="39.53230719378027" cy="210.5170525659381" r="3.5835133655747757" fill="#CFAE58" opacity="0.21186096469632892"/>
  <circle cx="8.10368324122086" cy="170.89261121420486" r="4.320244224199813" fill="#CFAE58" opacity="0.24814450465062876"/>
  <circle cx="134.94879550168665" cy="87.37753288805754" r="4.279275265673323" fill="#CFAE58" opacity="0.1718056640231711"/>
  <circle cx="286.79378097287565" cy="429.26821295784237" r="2.950354903142302" fill="#CFAE58" opacity="0.14971731498821048"/>
  <circle cx="152.55207298345948" cy="293.4426150869212" r="4.659234042329122" fill="#CFAE58" opacity="0.20696643149812977"/>
  <circle cx="555.996668041293" cy="282.40682483683975" r="3.9869587337014263" fill="#CFAE58" opacity="0.23095606248227246"/>
  <circle cx="241.92732486237452" cy="259.2200909928137" r="5.66812548049848" fill="#CFAE58" opacity="0.24540524154995474"/>
  <circle cx="82.68857186044593" cy="186.76153179172533" r="4.838960140839835" fill="#CFAE58" opacity="0.23751167205568288"/>

  <!-- Border with glow -->
  <rect x="40" y="40" width="1120" height="550" fill="none" stroke="url(#goldGradient)" stroke-width="3" rx="12" filter="url(#softGlow)"/>

  <!-- Icon circle with premium background -->
  <circle cx="150" cy="200" r="75" fill="#CFAE58" opacity="0.15" filter="url(#softGlow)"/>
  <circle cx="150" cy="200" r="70" fill="#CFAE58" opacity="0.25"/>
  <text x="150" y="235" font-size="90" text-anchor="middle" fill="#CFAE58" filter="url(#glow)">✓</text>

  <!-- Premium logo (crown) with enhanced styling -->
  <g transform="translate(100, 70)">
    <path d="M 30 20 L 40 35 L 35 35 Z M 50 15 L 60 35 L 45 35 Z M 65 20 L 75 35 L 70 35 Z M 30 35 L 75 35 L 73 45 L 32 45 Z"
          fill="url(#goldGradient)" filter="url(#glow)" stroke="#B89842" stroke-width="0.5"/>
    <circle cx="40" cy="25" r="3" fill="#4FD1C5" filter="url(#glow)"/>
    <circle cx="52" cy="20" r="4" fill="#4FD1C5" filter="url(#glow)"/>
    <circle cx="65" cy="25" r="3" fill="#4FD1C5" filter="url(#glow)"/>
  </g>

  <!-- Title with shadow -->
  <text x="280" y="180" font-family="Georgia, serif" font-size="72" font-weight="bold"
        fill="url(#goldGradient)" filter="url(#shadow)">Mercury eVSD System</text>

  <!-- Subtitle with subtle glow -->
  <text x="280" y="230" font-family="Arial, sans-serif" font-size="36"
        fill="#D6DEE6" opacity="0.95" filter="url(#softGlow)">Electronic Veterinary Certification</text>

  <!-- Brand name with letter spacing -->
  <text x="280" y="300" font-family="Georgia, serif" font-size="32" font-weight="bold"
        fill="#CFAE58" letter-spacing="4" filter="url(#glow)">ROYAL KETA</text>

  <!-- Russian tagline -->
  <text x="280" y="340" font-family="Arial, sans-serif" font-size="22" font-style="italic"
        fill="#8B95A1" opacity="0.8">От икринки к королевской</text>

  <!-- Location -->
  <text x="280" y="380" font-family="Arial, sans-serif" font-size="20"
        fill="#8B95A1" opacity="0.7">Невельский район, Сахалин</text>

  <!-- Website with glow -->
  <text x="100" y="570" font-family="Arial, sans-serif" font-size="30" font-weight="bold"
        fill="#4FD1C5" filter="url(#glow)">royalketa.com</text>

  <!-- Enhanced decorative salmon silhouette -->
  <g transform="translate(950, 480)" opacity="0.2" filter="url(#softGlow)">
    <ellipse cx="0" cy="0" rx="90" ry="35" fill="#CFAE58"/>
    <path d="M 90 0 L 120 -18 L 130 0 L 120 18 Z" fill="#CFAE58"/>
    <path d="M -25 -35 L 0 -45 L 25 -35 Z" fill="#CFAE58"/>
    <ellipse cx="-50" cy="0" rx="15" ry="12" fill="#0B0F14"/>
  </g>

  <!-- Additional decorative caviar clusters -->
  <g opacity="0.2">
    <circle cx="1050" cy="120" r="6" fill="#CFAE58"/>
    <circle cx="1065" cy="115" r="5" fill="#CFAE58"/>
    <circle cx="1058" cy="130" r="4" fill="#CFAE58"/>
    <circle cx="150" cy="500" r="5" fill="#4FD1C5"/>
    <circle cx="165" cy="508" r="4" fill="#4FD1C5"/>
    <circle cx="140" cy="512" r="5" fill="#4FD1C5"/>
  </g>
</svg>