<svg width="1200" height="630" xmlns="http://www.w3.org/2000/svg">
  <defs>
    <linearGradient id="bgGradient" x1="0%" y1="0%" x2="100%" y2="100%">
      <stop offset="0%" style="stop-color:#0B0F14;stop-opacity:1" />
      <stop offset="50%" style="stop-color:#0F1619;stop-opacity:1" />
      <stop offset="100%" style="stop-color:#0F1922;stop-opacity:1" />
    </linearGradient>
    <linearGradient id="goldGradient" x1="0%" y1="0%" x2="100%" y2="0%">
      <stop offset="0%" style="stop-color:#E5D596;stop-opacity:1" />
      <stop offset="50%" style="stop-color:#CFAE58;stop-opacity:1" />
      <stop offset="100%" style="stop-color:#B89842;stop-opacity:1" />
    </linearGradient>
    <radialGradient id="oceanGradient" cx="50%" cy="50%" r="50%">
      <stop offset="0%" style="stop-color:#4FD1C5;stop-opacity:0.3" />
      <stop offset="100%" style="stop-color:#1E90A0;stop-opacity:0.05" />
    </radialGradient>
    <filter id="glow">
      <feGaussianBlur stdDeviation="5" result="coloredBlur"/>
      <feMerge>
        <feMergeNode in="coloredBlur"/>
        <feMergeNode in="SourceGraphic"/>
      </feMerge>
    </filter>
    <filter id="softGlow">
      <feGaussianBlur stdDeviation="8" result="coloredBlur"/>
      <feMerge>
        <feMergeNode in="coloredBlur"/>
        <feMergeNode in="SourceGraphic"/>
      </feMerge>
    </filter>
    <filter id="shadow">
      <feDropShadow dx="0" dy="4" stdDeviation="8" flood-color="#000000" flood-opacity="0.5"/>
    </filter>
  </defs>

  <!-- Background -->
  <rect width="1200" height="630" fill="url(#bgGradient)"/>

  <!-- Decorative ocean gradients -->
  <ellipse cx="1000" cy="150" rx="300" ry="200" fill="url(#oceanGradient)" opacity="0.4"/>
  <ellipse cx="200" cy="530" rx="250" ry="180" fill="url(#oceanGradient)" opacity="0.3"/>

  <!-- Wave patterns -->
  <path d="M 0 400 Q 300 350 600 400 T 1200 400 L 1200 630 L 0 630 Z" fill="#1E90A0" opacity="0.08"/>
  <path d="M 0 450 Q 250 420 500 450 T 1000 450 T 1200 450 L 1200 630 L 0 630 Z" fill="#4FD1C5" opacity="0.05"/>

  <!-- Caviar roe particles -->
  <circle cx="616.2411528113904" cy="401.238216736294" r="2.7760992382500547" fill="#CFAE58" opacity="0.12842929899793004"/>
  <circle cx="755.605262582191" cy="500.8390345570332" r="2.9121338442325344" fill="#CFAE58" opacity="0.1777122043023475"/>
  <circle cx="933.6312498470816" cy="598.7111932064792" r="3.9911171403651062" fill="#CFAE58" opacity="0.19579359623779413"/>
  <circle cx="118.4797912814421" cy="272.3530999564291" r="3.9432168224639623" fill="#CFAE58" opacity="0.21945532289050584"/>
  <circle cx="251.41975998847084" cy="300.1228885095962" r="2.0555850562535234" fill="#CFAE58" opacity="0.22556040297661603"/>
  <circle cx="174.75327579994317" cy="340.5954228404939" r="3.792072708837142" fill="#CFAE58" opacity="0.21479347165960896"/>
  <circle cx="839.5600331485409" cy="304.412820067552" r="5.825224512210074" fill="#CFAE58" opacity="0.18492558819037214"/>
  <circle cx="234.2018130256478" cy="628.0590202560487" r="2.772637843519041" fill="#CFAE58" opacity="0.10772432857766735"/>
  <circle cx="1031.4878763531758" cy="181.2988454566856" r="3.3521188556771246" fill="#CFAE58" opacity="0.11602432163079957"/>
  <circle cx="702.9876486348838" cy="187.46982679041685" r="2.428279762602963" fill="#CFAE58" opacity="0.24957321863643955"/>
  <circle cx="402.08440231999356" cy="554.5270915780277" r="4.313294471464012" fill="#CFAE58" opacity="0.23794348152888464"/>
  <circle cx="450.4028496143415" cy="621.8734889959529" r="2.625017979449007" fill="#CFAE58" opacity="0.24379746554274842"/>
  <circle cx="443.1320450563984" cy="323.40736386144295" r="4.264833117028249" fill="#CFAE58" opacity="0.15910956501996598"/>
  <circle cx="1199.7758454917155" cy="133.77132015787012" r="3.970962866300254" fill="#CFAE58" opacity="0.1919281154365241"/>
  <circle cx="874.3986146274709" cy="295.20798215932297" r="3.316566275884142" fill="#CFAE58" opacity="0.19272862807586555"/>
  <circle cx="950.7840161232428" cy="253.89294235126846" r="5.670971049107096" fill="#CFAE58" opacity="0.24437926083548345"/>
  <circle cx="850.9622635701679" cy="92.75011524886686" r="2.2425702209562237" fill="#CFAE58" opacity="0.10347530579977232"/>
  <circle cx="566.7187854027761" cy="310.0717416260815" r="5.8274950718959975" fill="#CFAE58" opacity="0.16235756674327098"/>
  <circle cx="254.8246849911106" cy="89.55651594719538" r="4.1245878148021005" fill="#CFAE58" opacity="0.13043632324023208"/>
  <circle cx="1038.6489504642168" cy="594.467220132204" r="5.610538860845829" fill="#CFAE58" opacity="0.1627996949729608"/>
  <circle cx="276.58477532672237" cy="162.8524392008622" r="3.6317820870526676" fill="#CFAE58" opacity="0.2280937005443514"/>
  <circle cx="280.5156520430466" cy="107.53750079996566" r="4.021431239746948" fill="#CFAE58" opacity="0.1418794917115664"/>
  <circle cx="333.18164415401526" cy="186.86304400408216" r="5.647995899449034" fill="#CFAE58" opacity="0.10846384779360474"/>
  <circle cx="1076.8791690643786" cy="570.3667294589806" r="2.7204209200878964" fill="#CFAE58" opacity="0.23344465790182015"/>
  <circle cx="464.9865649226091" cy="43.88971539669552" r="3.0004726403882787" fill="#CFAE58" opacity="0.12455030327219342"/>
  <circle cx="754.9107720672621" cy="506.07129938060854" r="2.9959637282126392" fill="#CFAE58" opacity="0.14490103265645932"/>
  <circle cx="803.3610600010144" cy="618.7046147051219" r="3.2319312670522757" fill="#CFAE58" opacity="0.2430642769850958"/>
  <circle cx="1183.4501660565318" cy="117.33201127049153" r="4.16861503035277" fill="#CFAE58" opacity="0.1756850029549392"/>
  <circle cx="602.6575390852731" cy="315.5509851840075" r="3.3151404047617" fill="#CFAE58" opacity="0.22599192283218453"/>
  <circle cx="448.45045014863007" cy="506.16833088905724" r="5.558600160797621" fill="#CFAE58" opacity="0.13012580478220528"/>

  <!-- Border with glow -->
  <rect x="40" y="40" width="1120" height="550" fill="none" stroke="url(#goldGradient)" stroke-width="3" rx="12" filter="url(#softGlow)"/>

  <!-- Icon circle with premium background -->
  <circle cx="150" cy="200" r="75" fill="#CFAE58" opacity="0.15" filter="url(#softGlow)"/>
  <circle cx="150" cy="200" r="70" fill="#CFAE58" opacity="0.25"/>
  <text x="150" y="235" font-size="90" text-anchor="middle" fill="#CFAE58" filter="url(#glow)">✓</text>

  <!-- Premium logo (crown) with enhanced styling -->
  <g transform="translate(100, 70)">
    <path d="M 30 20 L 40 35 L 35 35 Z M 50 15 L 60 35 L 45 35 Z M 65 20 L 75 35 L 70 35 Z M 30 35 L 75 35 L 73 45 L 32 45 Z"
          fill="url(#goldGradient)" filter="url(#glow)" stroke="#B89842" stroke-width="0.5"/>
    <circle cx="40" cy="25" r="3" fill="#4FD1C5" filter="url(#glow)"/>
    <circle cx="52" cy="20" r="4" fill="#4FD1C5" filter="url(#glow)"/>
    <circle cx="65" cy="25" r="3" fill="#4FD1C5" filter="url(#glow)"/>
  </g>

  <!-- Title with shadow -->
  <text x="280" y="180" font-family="Georgia, serif" font-size="72" font-weight="bold"
        fill="url(#goldGradient)" filter="url(#shadow)">Mercury eVSD System</text>

  <!-- Subtitle with subtle glow -->
  <text x="280" y="230" font-family="Arial, sans-serif" font-size="36"
        fill="#D6DEE6" opacity="0.95" filter="url(#softGlow)">Electronic Veterinary Certification</text>

  <!-- Brand name with letter spacing -->
  <text x="280" y="300" font-family="Georgia, serif" font-size="32" font-weight="bold"
        fill="#CFAE58" letter-spacing="4" filter="url(#glow)">ROYAL KETA</text>

  <!-- Russian tagline -->
  <text x="280" y="340" font-family="Arial, sans-serif" font-size="22" font-style="italic"
        fill="#8B95A1" opacity="0.8">От икринки к королевской</text>

  <!-- Location -->
  <text x="280" y="380" font-family="Arial, sans-serif" font-size="20"
        fill="#8B95A1" opacity="0.7">Невельский район, Сахалин</text>

  <!-- Website with glow -->
  <text x="100" y="570" font-family="Arial, sans-serif" font-size="30" font-weight="bold"
        fill="#4FD1C5" filter="url(#glow)">royalketa.com</text>

  <!-- Enhanced decorative salmon silhouette -->
  <g transform="translate(950, 480)" opacity="0.2" filter="url(#softGlow)">
    <ellipse cx="0" cy="0" rx="90" ry="35" fill="#CFAE58"/>
    <path d="M 90 0 L 120 -18 L 130 0 L 120 18 Z" fill="#CFAE58"/>
    <path d="M -25 -35 L 0 -45 L 25 -35 Z" fill="#CFAE58"/>
    <ellipse cx="-50" cy="0" rx="15" ry="12" fill="#0B0F14"/>
  </g>

  <!-- Additional decorative caviar clusters -->
  <g opacity="0.2">
    <circle cx="1050" cy="120" r="6" fill="#CFAE58"/>
    <circle cx="1065" cy="115" r="5" fill="#CFAE58"/>
    <circle cx="1058" cy="130" r="4" fill="#CFAE58"/>
    <circle cx="150" cy="500" r="5" fill="#4FD1C5"/>
    <circle cx="165" cy="508" r="4" fill="#4FD1C5"/>
    <circle cx="140" cy="512" r="5" fill="#4FD1C5"/>
  </g>
</svg>