<svg width="1200" height="630" xmlns="http://www.w3.org/2000/svg">
  <defs>
    <linearGradient id="bgGradient" x1="0%" y1="0%" x2="100%" y2="100%">
      <stop offset="0%" style="stop-color:#0B0F14;stop-opacity:1" />
      <stop offset="50%" style="stop-color:#0F1619;stop-opacity:1" />
      <stop offset="100%" style="stop-color:#0F1922;stop-opacity:1" />
    </linearGradient>
    <linearGradient id="goldGradient" x1="0%" y1="0%" x2="100%" y2="0%">
      <stop offset="0%" style="stop-color:#E5D596;stop-opacity:1" />
      <stop offset="50%" style="stop-color:#CFAE58;stop-opacity:1" />
      <stop offset="100%" style="stop-color:#B89842;stop-opacity:1" />
    </linearGradient>
    <radialGradient id="oceanGradient" cx="50%" cy="50%" r="50%">
      <stop offset="0%" style="stop-color:#4FD1C5;stop-opacity:0.3" />
      <stop offset="100%" style="stop-color:#1E90A0;stop-opacity:0.05" />
    </radialGradient>
    <filter id="glow">
      <feGaussianBlur stdDeviation="5" result="coloredBlur"/>
      <feMerge>
        <feMergeNode in="coloredBlur"/>
        <feMergeNode in="SourceGraphic"/>
      </feMerge>
    </filter>
    <filter id="softGlow">
      <feGaussianBlur stdDeviation="8" result="coloredBlur"/>
      <feMerge>
        <feMergeNode in="coloredBlur"/>
        <feMergeNode in="SourceGraphic"/>
      </feMerge>
    </filter>
    <filter id="shadow">
      <feDropShadow dx="0" dy="4" stdDeviation="8" flood-color="#000000" flood-opacity="0.5"/>
    </filter>
  </defs>

  <!-- Background -->
  <rect width="1200" height="630" fill="url(#bgGradient)"/>

  <!-- Decorative ocean gradients -->
  <ellipse cx="1000" cy="150" rx="300" ry="200" fill="url(#oceanGradient)" opacity="0.4"/>
  <ellipse cx="200" cy="530" rx="250" ry="180" fill="url(#oceanGradient)" opacity="0.3"/>

  <!-- Wave patterns -->
  <path d="M 0 400 Q 300 350 600 400 T 1200 400 L 1200 630 L 0 630 Z" fill="#1E90A0" opacity="0.08"/>
  <path d="M 0 450 Q 250 420 500 450 T 1000 450 T 1200 450 L 1200 630 L 0 630 Z" fill="#4FD1C5" opacity="0.05"/>

  <!-- Caviar roe particles -->
  <circle cx="860.2794030040832" cy="608.8134407897685" r="5.376262949708007" fill="#CFAE58" opacity="0.15864604046103786"/>
  <circle cx="308.4244238986878" cy="107.51378839985459" r="2.7874252052944932" fill="#CFAE58" opacity="0.15586417809892564"/>
  <circle cx="1148.8900558093817" cy="518.6193320321761" r="3.5232430824098815" fill="#CFAE58" opacity="0.18882873908244568"/>
  <circle cx="166.97914608427214" cy="60.585015386213804" r="3.9844943359549343" fill="#CFAE58" opacity="0.2015061400810036"/>
  <circle cx="863.5739442126037" cy="441.63176055200364" r="5.912974806738189" fill="#CFAE58" opacity="0.18939830932295124"/>
  <circle cx="712.2628150848948" cy="306.9956785619782" r="3.1395958133727486" fill="#CFAE58" opacity="0.2449480550729207"/>
  <circle cx="1095.14112520039" cy="67.38145874159667" r="5.890920660957301" fill="#CFAE58" opacity="0.12841396011243594"/>
  <circle cx="446.6352348392164" cy="555.1093758417796" r="2.969077827148919" fill="#CFAE58" opacity="0.22627950963071775"/>
  <circle cx="694.5937858997505" cy="322.2708923657492" r="5.879521337456706" fill="#CFAE58" opacity="0.20721824403794709"/>
  <circle cx="960.6686366413913" cy="481.25152308175336" r="4.197581536792171" fill="#CFAE58" opacity="0.12429513454204552"/>
  <circle cx="690.7712764425349" cy="247.8044101966909" r="4.1647326897809975" fill="#CFAE58" opacity="0.11249086824814067"/>
  <circle cx="752.425610669024" cy="165.5447574604837" r="2.3577818668361354" fill="#CFAE58" opacity="0.21144261813544285"/>
  <circle cx="789.5424846855616" cy="196.99691093515716" r="3.3817570806562545" fill="#CFAE58" opacity="0.10419815885475284"/>
  <circle cx="957.5105058039683" cy="256.2800123541972" r="4.564917564862989" fill="#CFAE58" opacity="0.21518002808481018"/>
  <circle cx="315.9905634035701" cy="180.2768753466862" r="2.044127004184156" fill="#CFAE58" opacity="0.10184334428382602"/>
  <circle cx="795.6324087241838" cy="521.5203665344347" r="5.774930260720557" fill="#CFAE58" opacity="0.2388633037837623"/>
  <circle cx="668.4154124380257" cy="281.44395704540875" r="4.751628065248257" fill="#CFAE58" opacity="0.2137270748875858"/>
  <circle cx="615.0884545754844" cy="562.2101875380471" r="2.382311104301146" fill="#CFAE58" opacity="0.121063474561737"/>
  <circle cx="877.105307912372" cy="335.86044559584536" r="4.82187105713961" fill="#CFAE58" opacity="0.23973500411467458"/>
  <circle cx="480.0357680073284" cy="577.8749874880791" r="2.9118803569986" fill="#CFAE58" opacity="0.18295162970604795"/>
  <circle cx="405.58031273051665" cy="292.0497509861158" r="2.186460576517924" fill="#CFAE58" opacity="0.17003782466791192"/>
  <circle cx="568.7228708881978" cy="317.46871518622703" r="2.1272873589046237" fill="#CFAE58" opacity="0.1856400925935166"/>
  <circle cx="632.6794786142966" cy="292.9543311280647" r="4.038782811790014" fill="#CFAE58" opacity="0.12133180171484927"/>
  <circle cx="1020.6956146328939" cy="384.9824882126849" r="5.727413496684267" fill="#CFAE58" opacity="0.18785309021267807"/>
  <circle cx="776.6637139889499" cy="237.27779238079805" r="4.883064503538465" fill="#CFAE58" opacity="0.13840724109107524"/>
  <circle cx="999.2655047092258" cy="250.37357489544917" r="4.1451974992723875" fill="#CFAE58" opacity="0.11193647333367475"/>
  <circle cx="682.9389165944896" cy="505.01056185890366" r="4.0831054930297705" fill="#CFAE58" opacity="0.11377186252939306"/>
  <circle cx="857.7655994398256" cy="482.3017969697345" r="5.401302659244532" fill="#CFAE58" opacity="0.21230658856169576"/>
  <circle cx="787.5896651327192" cy="103.066120545498" r="2.279710084222592" fill="#CFAE58" opacity="0.11344874233159212"/>
  <circle cx="297.18879039443067" cy="62.363090514995" r="5.372044060369346" fill="#CFAE58" opacity="0.23367826045039522"/>

  <!-- Border with glow -->
  <rect x="40" y="40" width="1120" height="550" fill="none" stroke="url(#goldGradient)" stroke-width="3" rx="12" filter="url(#softGlow)"/>

  <!-- Icon circle with premium background -->
  <circle cx="150" cy="200" r="75" fill="#CFAE58" opacity="0.15" filter="url(#softGlow)"/>
  <circle cx="150" cy="200" r="70" fill="#CFAE58" opacity="0.25"/>
  <text x="150" y="235" font-size="90" text-anchor="middle" fill="#CFAE58" filter="url(#glow)">✓</text>

  <!-- Premium logo (crown) with enhanced styling -->
  <g transform="translate(100, 70)">
    <path d="M 30 20 L 40 35 L 35 35 Z M 50 15 L 60 35 L 45 35 Z M 65 20 L 75 35 L 70 35 Z M 30 35 L 75 35 L 73 45 L 32 45 Z"
          fill="url(#goldGradient)" filter="url(#glow)" stroke="#B89842" stroke-width="0.5"/>
    <circle cx="40" cy="25" r="3" fill="#4FD1C5" filter="url(#glow)"/>
    <circle cx="52" cy="20" r="4" fill="#4FD1C5" filter="url(#glow)"/>
    <circle cx="65" cy="25" r="3" fill="#4FD1C5" filter="url(#glow)"/>
  </g>

  <!-- Title with shadow -->
  <text x="280" y="180" font-family="Georgia, serif" font-size="72" font-weight="bold"
        fill="url(#goldGradient)" filter="url(#shadow)">Mercury eVSD System</text>

  <!-- Subtitle with subtle glow -->
  <text x="280" y="230" font-family="Arial, sans-serif" font-size="36"
        fill="#D6DEE6" opacity="0.95" filter="url(#softGlow)">Electronic Veterinary Certification</text>

  <!-- Brand name with letter spacing -->
  <text x="280" y="300" font-family="Georgia, serif" font-size="32" font-weight="bold"
        fill="#CFAE58" letter-spacing="4" filter="url(#glow)">ROYAL KETA</text>

  <!-- Russian tagline -->
  <text x="280" y="340" font-family="Arial, sans-serif" font-size="22" font-style="italic"
        fill="#8B95A1" opacity="0.8">От икринки к королевской</text>

  <!-- Location -->
  <text x="280" y="380" font-family="Arial, sans-serif" font-size="20"
        fill="#8B95A1" opacity="0.7">Невельский район, Сахалин</text>

  <!-- Website with glow -->
  <text x="100" y="570" font-family="Arial, sans-serif" font-size="30" font-weight="bold"
        fill="#4FD1C5" filter="url(#glow)">royalketa.com</text>

  <!-- Enhanced decorative salmon silhouette -->
  <g transform="translate(950, 480)" opacity="0.2" filter="url(#softGlow)">
    <ellipse cx="0" cy="0" rx="90" ry="35" fill="#CFAE58"/>
    <path d="M 90 0 L 120 -18 L 130 0 L 120 18 Z" fill="#CFAE58"/>
    <path d="M -25 -35 L 0 -45 L 25 -35 Z" fill="#CFAE58"/>
    <ellipse cx="-50" cy="0" rx="15" ry="12" fill="#0B0F14"/>
  </g>

  <!-- Additional decorative caviar clusters -->
  <g opacity="0.2">
    <circle cx="1050" cy="120" r="6" fill="#CFAE58"/>
    <circle cx="1065" cy="115" r="5" fill="#CFAE58"/>
    <circle cx="1058" cy="130" r="4" fill="#CFAE58"/>
    <circle cx="150" cy="500" r="5" fill="#4FD1C5"/>
    <circle cx="165" cy="508" r="4" fill="#4FD1C5"/>
    <circle cx="140" cy="512" r="5" fill="#4FD1C5"/>
  </g>
</svg>