<svg width="1200" height="630" xmlns="http://www.w3.org/2000/svg">
  <defs>
    <linearGradient id="bgGradient" x1="0%" y1="0%" x2="100%" y2="100%">
      <stop offset="0%" style="stop-color:#0B0F14;stop-opacity:1" />
      <stop offset="50%" style="stop-color:#0F1619;stop-opacity:1" />
      <stop offset="100%" style="stop-color:#0F1922;stop-opacity:1" />
    </linearGradient>
    <linearGradient id="goldGradient" x1="0%" y1="0%" x2="100%" y2="0%">
      <stop offset="0%" style="stop-color:#E5D596;stop-opacity:1" />
      <stop offset="50%" style="stop-color:#CFAE58;stop-opacity:1" />
      <stop offset="100%" style="stop-color:#B89842;stop-opacity:1" />
    </linearGradient>
    <radialGradient id="oceanGradient" cx="50%" cy="50%" r="50%">
      <stop offset="0%" style="stop-color:#4FD1C5;stop-opacity:0.3" />
      <stop offset="100%" style="stop-color:#1E90A0;stop-opacity:0.05" />
    </radialGradient>
    <filter id="glow">
      <feGaussianBlur stdDeviation="5" result="coloredBlur"/>
      <feMerge>
        <feMergeNode in="coloredBlur"/>
        <feMergeNode in="SourceGraphic"/>
      </feMerge>
    </filter>
    <filter id="softGlow">
      <feGaussianBlur stdDeviation="8" result="coloredBlur"/>
      <feMerge>
        <feMergeNode in="coloredBlur"/>
        <feMergeNode in="SourceGraphic"/>
      </feMerge>
    </filter>
    <filter id="shadow">
      <feDropShadow dx="0" dy="4" stdDeviation="8" flood-color="#000000" flood-opacity="0.5"/>
    </filter>
  </defs>

  <!-- Background -->
  <rect width="1200" height="630" fill="url(#bgGradient)"/>

  <!-- Decorative ocean gradients -->
  <ellipse cx="1000" cy="150" rx="300" ry="200" fill="url(#oceanGradient)" opacity="0.4"/>
  <ellipse cx="200" cy="530" rx="250" ry="180" fill="url(#oceanGradient)" opacity="0.3"/>

  <!-- Wave patterns -->
  <path d="M 0 400 Q 300 350 600 400 T 1200 400 L 1200 630 L 0 630 Z" fill="#1E90A0" opacity="0.08"/>
  <path d="M 0 450 Q 250 420 500 450 T 1000 450 T 1200 450 L 1200 630 L 0 630 Z" fill="#4FD1C5" opacity="0.05"/>

  <!-- Caviar roe particles -->
  <circle cx="634.843448045182" cy="189.52876545984074" r="2.5918054274325852" fill="#CFAE58" opacity="0.11182427682008789"/>
  <circle cx="479.02584224737615" cy="564.047024491546" r="3.355123917980494" fill="#CFAE58" opacity="0.2493249649167813"/>
  <circle cx="961.1259550292796" cy="53.870044229376305" r="5.889782965385413" fill="#CFAE58" opacity="0.1143340461004932"/>
  <circle cx="38.11768180463759" cy="204.3949682404457" r="4.855798687630939" fill="#CFAE58" opacity="0.1286284833959118"/>
  <circle cx="488.83923497631946" cy="324.79860305329856" r="2.3506669956498287" fill="#CFAE58" opacity="0.20144885578174046"/>
  <circle cx="55.30968044918217" cy="430.2859270841266" r="3.9261350004350795" fill="#CFAE58" opacity="0.1465821135402645"/>
  <circle cx="1178.9648737443774" cy="581.2406738986805" r="2.139357148260643" fill="#CFAE58" opacity="0.1806367592899486"/>
  <circle cx="609.209633160013" cy="134.47604352780212" r="5.89616170159551" fill="#CFAE58" opacity="0.2250769693312013"/>
  <circle cx="508.5405709134025" cy="486.21416051730245" r="4.345477223306226" fill="#CFAE58" opacity="0.2000519211388478"/>
  <circle cx="327.21283048845083" cy="208.52988623618444" r="4.849686933819736" fill="#CFAE58" opacity="0.17851625789401207"/>
  <circle cx="824.3482051828038" cy="105.89105928314693" r="4.309238476809055" fill="#CFAE58" opacity="0.1899753832209031"/>
  <circle cx="648.228621512593" cy="516.4319369438462" r="5.980652640230181" fill="#CFAE58" opacity="0.18176886992848745"/>
  <circle cx="198.03119270636859" cy="601.1226119454151" r="3.7900637032810294" fill="#CFAE58" opacity="0.2131907274929944"/>
  <circle cx="104.22372529712422" cy="272.5506099805671" r="2.6053149071624624" fill="#CFAE58" opacity="0.24335389264157267"/>
  <circle cx="721.3393159034046" cy="579.5590819964497" r="5.475913368333061" fill="#CFAE58" opacity="0.15972729288774257"/>
  <circle cx="1008.2015167328701" cy="391.04304177205523" r="5.147741557156547" fill="#CFAE58" opacity="0.22044739606861824"/>
  <circle cx="1062.7710575165577" cy="414.95004735987345" r="4.211292638689741" fill="#CFAE58" opacity="0.124072755224851"/>
  <circle cx="913.2391547384636" cy="582.8341612117267" r="3.5050293474121017" fill="#CFAE58" opacity="0.19373133318307678"/>
  <circle cx="1143.8947742619234" cy="236.23416878067525" r="2.7432859026019005" fill="#CFAE58" opacity="0.12945639953236976"/>
  <circle cx="468.8753808789067" cy="443.73770908049477" r="5.426138421612198" fill="#CFAE58" opacity="0.11174071694355012"/>
  <circle cx="448.0059479579413" cy="10.506472176472204" r="4.4754580365998855" fill="#CFAE58" opacity="0.19853499285047987"/>
  <circle cx="994.8886706347405" cy="21.36147943296589" r="4.375968584090456" fill="#CFAE58" opacity="0.23898932618892374"/>
  <circle cx="984.1818299954947" cy="377.4080357022642" r="4.862743853812491" fill="#CFAE58" opacity="0.24876741456492302"/>
  <circle cx="414.582262918337" cy="534.4318779697091" r="5.459083728915317" fill="#CFAE58" opacity="0.24858084278025774"/>
  <circle cx="1081.0723936127702" cy="619.3583587154733" r="3.9130646724052047" fill="#CFAE58" opacity="0.11550618305641731"/>
  <circle cx="637.1575221159808" cy="486.1257549216589" r="3.731887900643589" fill="#CFAE58" opacity="0.2463462648878213"/>
  <circle cx="414.4194331873748" cy="617.1707528698436" r="3.6556180926584663" fill="#CFAE58" opacity="0.15468920122945762"/>
  <circle cx="904.5666152730431" cy="465.0249722086826" r="5.36750968460151" fill="#CFAE58" opacity="0.16199536342678578"/>
  <circle cx="138.19279252787018" cy="193.40869105625745" r="3.147123386196224" fill="#CFAE58" opacity="0.12177966480414842"/>
  <circle cx="12.35367295586669" cy="303.86452540398346" r="3.5852728424228153" fill="#CFAE58" opacity="0.13792209690714521"/>

  <!-- Border with glow -->
  <rect x="40" y="40" width="1120" height="550" fill="none" stroke="url(#goldGradient)" stroke-width="3" rx="12" filter="url(#softGlow)"/>

  <!-- Icon circle with premium background -->
  <circle cx="150" cy="200" r="75" fill="#CFAE58" opacity="0.15" filter="url(#softGlow)"/>
  <circle cx="150" cy="200" r="70" fill="#CFAE58" opacity="0.25"/>
  <text x="150" y="235" font-size="90" text-anchor="middle" fill="#CFAE58" filter="url(#glow)">✓</text>

  <!-- Premium logo (crown) with enhanced styling -->
  <g transform="translate(100, 70)">
    <path d="M 30 20 L 40 35 L 35 35 Z M 50 15 L 60 35 L 45 35 Z M 65 20 L 75 35 L 70 35 Z M 30 35 L 75 35 L 73 45 L 32 45 Z"
          fill="url(#goldGradient)" filter="url(#glow)" stroke="#B89842" stroke-width="0.5"/>
    <circle cx="40" cy="25" r="3" fill="#4FD1C5" filter="url(#glow)"/>
    <circle cx="52" cy="20" r="4" fill="#4FD1C5" filter="url(#glow)"/>
    <circle cx="65" cy="25" r="3" fill="#4FD1C5" filter="url(#glow)"/>
  </g>

  <!-- Title with shadow -->
  <text x="280" y="180" font-family="Georgia, serif" font-size="72" font-weight="bold"
        fill="url(#goldGradient)" filter="url(#shadow)">Mercury eVSD System</text>

  <!-- Subtitle with subtle glow -->
  <text x="280" y="230" font-family="Arial, sans-serif" font-size="36"
        fill="#D6DEE6" opacity="0.95" filter="url(#softGlow)">Electronic Veterinary Certification</text>

  <!-- Brand name with letter spacing -->
  <text x="280" y="300" font-family="Georgia, serif" font-size="32" font-weight="bold"
        fill="#CFAE58" letter-spacing="4" filter="url(#glow)">ROYAL KETA</text>

  <!-- Russian tagline -->
  <text x="280" y="340" font-family="Arial, sans-serif" font-size="22" font-style="italic"
        fill="#8B95A1" opacity="0.8">От икринки к королевской</text>

  <!-- Location -->
  <text x="280" y="380" font-family="Arial, sans-serif" font-size="20"
        fill="#8B95A1" opacity="0.7">Невельский район, Сахалин</text>

  <!-- Website with glow -->
  <text x="100" y="570" font-family="Arial, sans-serif" font-size="30" font-weight="bold"
        fill="#4FD1C5" filter="url(#glow)">royalketa.com</text>

  <!-- Enhanced decorative salmon silhouette -->
  <g transform="translate(950, 480)" opacity="0.2" filter="url(#softGlow)">
    <ellipse cx="0" cy="0" rx="90" ry="35" fill="#CFAE58"/>
    <path d="M 90 0 L 120 -18 L 130 0 L 120 18 Z" fill="#CFAE58"/>
    <path d="M -25 -35 L 0 -45 L 25 -35 Z" fill="#CFAE58"/>
    <ellipse cx="-50" cy="0" rx="15" ry="12" fill="#0B0F14"/>
  </g>

  <!-- Additional decorative caviar clusters -->
  <g opacity="0.2">
    <circle cx="1050" cy="120" r="6" fill="#CFAE58"/>
    <circle cx="1065" cy="115" r="5" fill="#CFAE58"/>
    <circle cx="1058" cy="130" r="4" fill="#CFAE58"/>
    <circle cx="150" cy="500" r="5" fill="#4FD1C5"/>
    <circle cx="165" cy="508" r="4" fill="#4FD1C5"/>
    <circle cx="140" cy="512" r="5" fill="#4FD1C5"/>
  </g>
</svg>