<svg width="1200" height="630" xmlns="http://www.w3.org/2000/svg">
  <defs>
    <linearGradient id="bgGradient" x1="0%" y1="0%" x2="100%" y2="100%">
      <stop offset="0%" style="stop-color:#0B0F14;stop-opacity:1" />
      <stop offset="50%" style="stop-color:#0F1619;stop-opacity:1" />
      <stop offset="100%" style="stop-color:#0F1922;stop-opacity:1" />
    </linearGradient>
    <linearGradient id="goldGradient" x1="0%" y1="0%" x2="100%" y2="0%">
      <stop offset="0%" style="stop-color:#E5D596;stop-opacity:1" />
      <stop offset="50%" style="stop-color:#CFAE58;stop-opacity:1" />
      <stop offset="100%" style="stop-color:#B89842;stop-opacity:1" />
    </linearGradient>
    <radialGradient id="oceanGradient" cx="50%" cy="50%" r="50%">
      <stop offset="0%" style="stop-color:#4FD1C5;stop-opacity:0.3" />
      <stop offset="100%" style="stop-color:#1E90A0;stop-opacity:0.05" />
    </radialGradient>
    <filter id="glow">
      <feGaussianBlur stdDeviation="5" result="coloredBlur"/>
      <feMerge>
        <feMergeNode in="coloredBlur"/>
        <feMergeNode in="SourceGraphic"/>
      </feMerge>
    </filter>
    <filter id="softGlow">
      <feGaussianBlur stdDeviation="8" result="coloredBlur"/>
      <feMerge>
        <feMergeNode in="coloredBlur"/>
        <feMergeNode in="SourceGraphic"/>
      </feMerge>
    </filter>
    <filter id="shadow">
      <feDropShadow dx="0" dy="4" stdDeviation="8" flood-color="#000000" flood-opacity="0.5"/>
    </filter>
  </defs>

  <!-- Background -->
  <rect width="1200" height="630" fill="url(#bgGradient)"/>

  <!-- Decorative ocean gradients -->
  <ellipse cx="1000" cy="150" rx="300" ry="200" fill="url(#oceanGradient)" opacity="0.4"/>
  <ellipse cx="200" cy="530" rx="250" ry="180" fill="url(#oceanGradient)" opacity="0.3"/>

  <!-- Wave patterns -->
  <path d="M 0 400 Q 300 350 600 400 T 1200 400 L 1200 630 L 0 630 Z" fill="#1E90A0" opacity="0.08"/>
  <path d="M 0 450 Q 250 420 500 450 T 1000 450 T 1200 450 L 1200 630 L 0 630 Z" fill="#4FD1C5" opacity="0.05"/>

  <!-- Caviar roe particles -->
  <circle cx="70.63718049923895" cy="39.577959638791086" r="5.765943493705889" fill="#CFAE58" opacity="0.18856855264541617"/>
  <circle cx="357.477259503932" cy="274.99194443477097" r="2.145159800940705" fill="#CFAE58" opacity="0.16321603747269686"/>
  <circle cx="612.0284379774723" cy="605.0816643914023" r="2.5600263263947562" fill="#CFAE58" opacity="0.22534300712104338"/>
  <circle cx="69.18625440077153" cy="551.9471128146664" r="4.630541456515983" fill="#CFAE58" opacity="0.2059880969770942"/>
  <circle cx="1086.0895129157109" cy="499.00408958876216" r="2.8909292601966965" fill="#CFAE58" opacity="0.17929120282004274"/>
  <circle cx="807.1668250815599" cy="339.97614465871345" r="3.301902989436901" fill="#CFAE58" opacity="0.2245708892538301"/>
  <circle cx="429.6018878536807" cy="611.9647758374174" r="2.6818578404910336" fill="#CFAE58" opacity="0.18676317234806453"/>
  <circle cx="902.2316693066666" cy="504.5374438264066" r="2.10997631113086" fill="#CFAE58" opacity="0.15423104026147283"/>
  <circle cx="1103.0905281238422" cy="113.86436677027883" r="5.750476935995059" fill="#CFAE58" opacity="0.15982187485967062"/>
  <circle cx="1141.6801066530477" cy="26.822523160754454" r="5.841037297121129" fill="#CFAE58" opacity="0.21840903534043177"/>
  <circle cx="321.03373765699524" cy="46.97490305854952" r="3.3858661946728255" fill="#CFAE58" opacity="0.23940755694293864"/>
  <circle cx="197.2886498744427" cy="242.03394265467782" r="5.93744788260833" fill="#CFAE58" opacity="0.16206164846459054"/>
  <circle cx="1149.583254289297" cy="77.01781438633422" r="3.8459170392500766" fill="#CFAE58" opacity="0.12579026707122634"/>
  <circle cx="921.1380414480309" cy="444.2610545728688" r="3.829554567254082" fill="#CFAE58" opacity="0.19754091630997478"/>
  <circle cx="1121.2629655536186" cy="126.9108262460894" r="3.9719651389666972" fill="#CFAE58" opacity="0.1320367601024609"/>
  <circle cx="1024.4653087566078" cy="218.36281948828076" r="3.7564816220856483" fill="#CFAE58" opacity="0.16692804137060369"/>
  <circle cx="770.7010924041791" cy="7.607746478875028" r="4.844681772308824" fill="#CFAE58" opacity="0.21030039255161043"/>
  <circle cx="444.6001527321045" cy="574.1520880108053" r="4.659937913844528" fill="#CFAE58" opacity="0.2421944623259025"/>
  <circle cx="1030.7807226483376" cy="48.961468269151105" r="2.899922820938246" fill="#CFAE58" opacity="0.24648794796001747"/>
  <circle cx="125.87182741550578" cy="17.84306645063817" r="4.653039314442533" fill="#CFAE58" opacity="0.12233451366765868"/>
  <circle cx="7.605250714662892" cy="515.0774904913777" r="3.524448248111122" fill="#CFAE58" opacity="0.24844695275073972"/>
  <circle cx="836.1956380311709" cy="90.04610121071411" r="2.72910295495008" fill="#CFAE58" opacity="0.14786738796804502"/>
  <circle cx="783.5796610608377" cy="155.78788718045047" r="2.1048453428194627" fill="#CFAE58" opacity="0.19202586968636598"/>
  <circle cx="1078.2214867383298" cy="538.7634633100237" r="5.188919039439045" fill="#CFAE58" opacity="0.12889309802859789"/>
  <circle cx="107.99802522589212" cy="162.50654421305074" r="4.308312309394012" fill="#CFAE58" opacity="0.11161242293082221"/>
  <circle cx="265.3976043437235" cy="205.5066415423813" r="5.866288953334479" fill="#CFAE58" opacity="0.21842026889200594"/>
  <circle cx="398.81363985904574" cy="247.05535277338197" r="4.236276027627837" fill="#CFAE58" opacity="0.24263542462714277"/>
  <circle cx="924.7631154338724" cy="544.1230534200929" r="2.3842821135977124" fill="#CFAE58" opacity="0.19185128835395732"/>
  <circle cx="570.7304464318945" cy="272.1392635718909" r="4.493753688044146" fill="#CFAE58" opacity="0.1868721794321762"/>
  <circle cx="1157.0119841349301" cy="110.7899756231597" r="3.1723196820211013" fill="#CFAE58" opacity="0.20122955069538112"/>

  <!-- Border with glow -->
  <rect x="40" y="40" width="1120" height="550" fill="none" stroke="url(#goldGradient)" stroke-width="3" rx="12" filter="url(#softGlow)"/>

  <!-- Icon circle with premium background -->
  <circle cx="150" cy="200" r="75" fill="#CFAE58" opacity="0.15" filter="url(#softGlow)"/>
  <circle cx="150" cy="200" r="70" fill="#CFAE58" opacity="0.25"/>
  <text x="150" y="235" font-size="90" text-anchor="middle" fill="#CFAE58" filter="url(#glow)">✓</text>

  <!-- Premium logo (crown) with enhanced styling -->
  <g transform="translate(100, 70)">
    <path d="M 30 20 L 40 35 L 35 35 Z M 50 15 L 60 35 L 45 35 Z M 65 20 L 75 35 L 70 35 Z M 30 35 L 75 35 L 73 45 L 32 45 Z"
          fill="url(#goldGradient)" filter="url(#glow)" stroke="#B89842" stroke-width="0.5"/>
    <circle cx="40" cy="25" r="3" fill="#4FD1C5" filter="url(#glow)"/>
    <circle cx="52" cy="20" r="4" fill="#4FD1C5" filter="url(#glow)"/>
    <circle cx="65" cy="25" r="3" fill="#4FD1C5" filter="url(#glow)"/>
  </g>

  <!-- Title with shadow -->
  <text x="280" y="180" font-family="Georgia, serif" font-size="72" font-weight="bold"
        fill="url(#goldGradient)" filter="url(#shadow)">Mercury eVSD System</text>

  <!-- Subtitle with subtle glow -->
  <text x="280" y="230" font-family="Arial, sans-serif" font-size="36"
        fill="#D6DEE6" opacity="0.95" filter="url(#softGlow)">Electronic Veterinary Certification</text>

  <!-- Brand name with letter spacing -->
  <text x="280" y="300" font-family="Georgia, serif" font-size="32" font-weight="bold"
        fill="#CFAE58" letter-spacing="4" filter="url(#glow)">ROYAL KETA</text>

  <!-- Russian tagline -->
  <text x="280" y="340" font-family="Arial, sans-serif" font-size="22" font-style="italic"
        fill="#8B95A1" opacity="0.8">От икринки к королевской</text>

  <!-- Location -->
  <text x="280" y="380" font-family="Arial, sans-serif" font-size="20"
        fill="#8B95A1" opacity="0.7">Невельский район, Сахалин</text>

  <!-- Website with glow -->
  <text x="100" y="570" font-family="Arial, sans-serif" font-size="30" font-weight="bold"
        fill="#4FD1C5" filter="url(#glow)">royalketa.com</text>

  <!-- Enhanced decorative salmon silhouette -->
  <g transform="translate(950, 480)" opacity="0.2" filter="url(#softGlow)">
    <ellipse cx="0" cy="0" rx="90" ry="35" fill="#CFAE58"/>
    <path d="M 90 0 L 120 -18 L 130 0 L 120 18 Z" fill="#CFAE58"/>
    <path d="M -25 -35 L 0 -45 L 25 -35 Z" fill="#CFAE58"/>
    <ellipse cx="-50" cy="0" rx="15" ry="12" fill="#0B0F14"/>
  </g>

  <!-- Additional decorative caviar clusters -->
  <g opacity="0.2">
    <circle cx="1050" cy="120" r="6" fill="#CFAE58"/>
    <circle cx="1065" cy="115" r="5" fill="#CFAE58"/>
    <circle cx="1058" cy="130" r="4" fill="#CFAE58"/>
    <circle cx="150" cy="500" r="5" fill="#4FD1C5"/>
    <circle cx="165" cy="508" r="4" fill="#4FD1C5"/>
    <circle cx="140" cy="512" r="5" fill="#4FD1C5"/>
  </g>
</svg>