<svg width="1200" height="630" xmlns="http://www.w3.org/2000/svg">
  <defs>
    <linearGradient id="bgGradient" x1="0%" y1="0%" x2="100%" y2="100%">
      <stop offset="0%" style="stop-color:#0B0F14;stop-opacity:1" />
      <stop offset="50%" style="stop-color:#0F1619;stop-opacity:1" />
      <stop offset="100%" style="stop-color:#0F1922;stop-opacity:1" />
    </linearGradient>
    <linearGradient id="goldGradient" x1="0%" y1="0%" x2="100%" y2="0%">
      <stop offset="0%" style="stop-color:#E5D596;stop-opacity:1" />
      <stop offset="50%" style="stop-color:#CFAE58;stop-opacity:1" />
      <stop offset="100%" style="stop-color:#B89842;stop-opacity:1" />
    </linearGradient>
    <radialGradient id="oceanGradient" cx="50%" cy="50%" r="50%">
      <stop offset="0%" style="stop-color:#4FD1C5;stop-opacity:0.3" />
      <stop offset="100%" style="stop-color:#1E90A0;stop-opacity:0.05" />
    </radialGradient>
    <filter id="glow">
      <feGaussianBlur stdDeviation="5" result="coloredBlur"/>
      <feMerge>
        <feMergeNode in="coloredBlur"/>
        <feMergeNode in="SourceGraphic"/>
      </feMerge>
    </filter>
    <filter id="softGlow">
      <feGaussianBlur stdDeviation="8" result="coloredBlur"/>
      <feMerge>
        <feMergeNode in="coloredBlur"/>
        <feMergeNode in="SourceGraphic"/>
      </feMerge>
    </filter>
    <filter id="shadow">
      <feDropShadow dx="0" dy="4" stdDeviation="8" flood-color="#000000" flood-opacity="0.5"/>
    </filter>
  </defs>

  <!-- Background -->
  <rect width="1200" height="630" fill="url(#bgGradient)"/>

  <!-- Decorative ocean gradients -->
  <ellipse cx="1000" cy="150" rx="300" ry="200" fill="url(#oceanGradient)" opacity="0.4"/>
  <ellipse cx="200" cy="530" rx="250" ry="180" fill="url(#oceanGradient)" opacity="0.3"/>

  <!-- Wave patterns -->
  <path d="M 0 400 Q 300 350 600 400 T 1200 400 L 1200 630 L 0 630 Z" fill="#1E90A0" opacity="0.08"/>
  <path d="M 0 450 Q 250 420 500 450 T 1000 450 T 1200 450 L 1200 630 L 0 630 Z" fill="#4FD1C5" opacity="0.05"/>

  <!-- Caviar roe particles -->
  <circle cx="658.1585668713527" cy="487.31637901344214" r="3.8537899195882606" fill="#CFAE58" opacity="0.24722454481871298"/>
  <circle cx="1087.245571287175" cy="46.23383112037159" r="3.5678208198820425" fill="#CFAE58" opacity="0.1323488400551521"/>
  <circle cx="1158.910366343366" cy="377.80567769592756" r="3.4632516859222413" fill="#CFAE58" opacity="0.1935181383784798"/>
  <circle cx="572.7269724398747" cy="45.80799677969957" r="3.2413244988010357" fill="#CFAE58" opacity="0.17898885350205407"/>
  <circle cx="710.5222274589811" cy="360.7164888821631" r="2.707198217998191" fill="#CFAE58" opacity="0.15263484534965827"/>
  <circle cx="656.5206486340871" cy="45.70779686302462" r="3.46978414161085" fill="#CFAE58" opacity="0.2103864003602095"/>
  <circle cx="869.8083914711311" cy="248.2913337775718" r="3.9423015735045963" fill="#CFAE58" opacity="0.16147151777497848"/>
  <circle cx="1003.9891376351113" cy="307.68663903932776" r="2.5850751667276928" fill="#CFAE58" opacity="0.14503448749958264"/>
  <circle cx="4.534494149775625" cy="62.08184473442584" r="4.202362338533922" fill="#CFAE58" opacity="0.12704533458788653"/>
  <circle cx="105.42679390820507" cy="303.4223932234893" r="5.326668131849149" fill="#CFAE58" opacity="0.22028619145840211"/>
  <circle cx="5.293335301962898" cy="36.62430152220301" r="3.8313267137036355" fill="#CFAE58" opacity="0.1628108811266223"/>
  <circle cx="776.9287681512997" cy="221.91858241226632" r="3.7549622352431298" fill="#CFAE58" opacity="0.12549847378177972"/>
  <circle cx="163.0383214615338" cy="187.81676055092" r="2.0598289618332606" fill="#CFAE58" opacity="0.1838290229845854"/>
  <circle cx="1129.6522357860158" cy="413.6124755785087" r="5.653365942159849" fill="#CFAE58" opacity="0.22357708647460922"/>
  <circle cx="531.2337814207422" cy="289.4237514774982" r="2.0468287583218308" fill="#CFAE58" opacity="0.17704970753582"/>
  <circle cx="870.4058961111296" cy="355.52636146194845" r="3.3302576485649826" fill="#CFAE58" opacity="0.16069763247571023"/>
  <circle cx="857.6572256808956" cy="241.70150000846644" r="4.652347797534494" fill="#CFAE58" opacity="0.1707876747862326"/>
  <circle cx="869.8563206667457" cy="186.39300010175077" r="5.3816152405943445" fill="#CFAE58" opacity="0.14830890458355317"/>
  <circle cx="143.23276238330783" cy="356.02557805151866" r="5.191647176444722" fill="#CFAE58" opacity="0.17851483550105995"/>
  <circle cx="110.78930392153072" cy="545.9584970107105" r="3.2404983139069863" fill="#CFAE58" opacity="0.17878100421323168"/>
  <circle cx="589.6011409578553" cy="450.4169236244377" r="3.6393311659663246" fill="#CFAE58" opacity="0.216129745859606"/>
  <circle cx="1189.9192320230884" cy="184.73662114477438" r="3.394626109933111" fill="#CFAE58" opacity="0.17381595557082669"/>
  <circle cx="173.2403756891692" cy="221.7525646183955" r="5.245091768457769" fill="#CFAE58" opacity="0.17968006261752867"/>
  <circle cx="1132.762774427484" cy="301.9513573380301" r="5.070957332149032" fill="#CFAE58" opacity="0.10110039858934827"/>
  <circle cx="1047.2687389720822" cy="199.8514036844589" r="3.040800952843413" fill="#CFAE58" opacity="0.1058482546119522"/>
  <circle cx="1077.3448966606275" cy="600.4866313365881" r="3.3858987268040766" fill="#CFAE58" opacity="0.15325159362916202"/>
  <circle cx="618.9838206621284" cy="329.37061602109713" r="5.039290315192117" fill="#CFAE58" opacity="0.10535469603244699"/>
  <circle cx="910.8348425126181" cy="417.6407543732614" r="4.624531649074089" fill="#CFAE58" opacity="0.2379990797807838"/>
  <circle cx="569.9843230988013" cy="624.6201115996973" r="4.895912284249983" fill="#CFAE58" opacity="0.16193115430932598"/>
  <circle cx="1177.4597412919272" cy="155.87326977208008" r="2.786252957232672" fill="#CFAE58" opacity="0.10705864436808193"/>

  <!-- Border with glow -->
  <rect x="40" y="40" width="1120" height="550" fill="none" stroke="url(#goldGradient)" stroke-width="3" rx="12" filter="url(#softGlow)"/>

  <!-- Icon circle with premium background -->
  <circle cx="150" cy="200" r="75" fill="#CFAE58" opacity="0.15" filter="url(#softGlow)"/>
  <circle cx="150" cy="200" r="70" fill="#CFAE58" opacity="0.25"/>
  <text x="150" y="235" font-size="90" text-anchor="middle" fill="#CFAE58" filter="url(#glow)">✓</text>

  <!-- Premium logo (crown) with enhanced styling -->
  <g transform="translate(100, 70)">
    <path d="M 30 20 L 40 35 L 35 35 Z M 50 15 L 60 35 L 45 35 Z M 65 20 L 75 35 L 70 35 Z M 30 35 L 75 35 L 73 45 L 32 45 Z"
          fill="url(#goldGradient)" filter="url(#glow)" stroke="#B89842" stroke-width="0.5"/>
    <circle cx="40" cy="25" r="3" fill="#4FD1C5" filter="url(#glow)"/>
    <circle cx="52" cy="20" r="4" fill="#4FD1C5" filter="url(#glow)"/>
    <circle cx="65" cy="25" r="3" fill="#4FD1C5" filter="url(#glow)"/>
  </g>

  <!-- Title with shadow -->
  <text x="280" y="180" font-family="Georgia, serif" font-size="72" font-weight="bold"
        fill="url(#goldGradient)" filter="url(#shadow)">Mercury eVSD System</text>

  <!-- Subtitle with subtle glow -->
  <text x="280" y="230" font-family="Arial, sans-serif" font-size="36"
        fill="#D6DEE6" opacity="0.95" filter="url(#softGlow)">Electronic Veterinary Certification</text>

  <!-- Brand name with letter spacing -->
  <text x="280" y="300" font-family="Georgia, serif" font-size="32" font-weight="bold"
        fill="#CFAE58" letter-spacing="4" filter="url(#glow)">ROYAL KETA</text>

  <!-- Russian tagline -->
  <text x="280" y="340" font-family="Arial, sans-serif" font-size="22" font-style="italic"
        fill="#8B95A1" opacity="0.8">От икринки к королевской</text>

  <!-- Location -->
  <text x="280" y="380" font-family="Arial, sans-serif" font-size="20"
        fill="#8B95A1" opacity="0.7">Невельский район, Сахалин</text>

  <!-- Website with glow -->
  <text x="100" y="570" font-family="Arial, sans-serif" font-size="30" font-weight="bold"
        fill="#4FD1C5" filter="url(#glow)">royalketa.com</text>

  <!-- Enhanced decorative salmon silhouette -->
  <g transform="translate(950, 480)" opacity="0.2" filter="url(#softGlow)">
    <ellipse cx="0" cy="0" rx="90" ry="35" fill="#CFAE58"/>
    <path d="M 90 0 L 120 -18 L 130 0 L 120 18 Z" fill="#CFAE58"/>
    <path d="M -25 -35 L 0 -45 L 25 -35 Z" fill="#CFAE58"/>
    <ellipse cx="-50" cy="0" rx="15" ry="12" fill="#0B0F14"/>
  </g>

  <!-- Additional decorative caviar clusters -->
  <g opacity="0.2">
    <circle cx="1050" cy="120" r="6" fill="#CFAE58"/>
    <circle cx="1065" cy="115" r="5" fill="#CFAE58"/>
    <circle cx="1058" cy="130" r="4" fill="#CFAE58"/>
    <circle cx="150" cy="500" r="5" fill="#4FD1C5"/>
    <circle cx="165" cy="508" r="4" fill="#4FD1C5"/>
    <circle cx="140" cy="512" r="5" fill="#4FD1C5"/>
  </g>
</svg>