<svg width="1200" height="630" xmlns="http://www.w3.org/2000/svg">
  <defs>
    <linearGradient id="bgGradient" x1="0%" y1="0%" x2="100%" y2="100%">
      <stop offset="0%" style="stop-color:#0B0F14;stop-opacity:1" />
      <stop offset="50%" style="stop-color:#0F1619;stop-opacity:1" />
      <stop offset="100%" style="stop-color:#0F1922;stop-opacity:1" />
    </linearGradient>
    <linearGradient id="goldGradient" x1="0%" y1="0%" x2="100%" y2="0%">
      <stop offset="0%" style="stop-color:#E5D596;stop-opacity:1" />
      <stop offset="50%" style="stop-color:#CFAE58;stop-opacity:1" />
      <stop offset="100%" style="stop-color:#B89842;stop-opacity:1" />
    </linearGradient>
    <radialGradient id="oceanGradient" cx="50%" cy="50%" r="50%">
      <stop offset="0%" style="stop-color:#4FD1C5;stop-opacity:0.3" />
      <stop offset="100%" style="stop-color:#1E90A0;stop-opacity:0.05" />
    </radialGradient>
    <filter id="glow">
      <feGaussianBlur stdDeviation="5" result="coloredBlur"/>
      <feMerge>
        <feMergeNode in="coloredBlur"/>
        <feMergeNode in="SourceGraphic"/>
      </feMerge>
    </filter>
    <filter id="softGlow">
      <feGaussianBlur stdDeviation="8" result="coloredBlur"/>
      <feMerge>
        <feMergeNode in="coloredBlur"/>
        <feMergeNode in="SourceGraphic"/>
      </feMerge>
    </filter>
    <filter id="shadow">
      <feDropShadow dx="0" dy="4" stdDeviation="8" flood-color="#000000" flood-opacity="0.5"/>
    </filter>
  </defs>

  <!-- Background -->
  <rect width="1200" height="630" fill="url(#bgGradient)"/>

  <!-- Decorative ocean gradients -->
  <ellipse cx="1000" cy="150" rx="300" ry="200" fill="url(#oceanGradient)" opacity="0.4"/>
  <ellipse cx="200" cy="530" rx="250" ry="180" fill="url(#oceanGradient)" opacity="0.3"/>

  <!-- Wave patterns -->
  <path d="M 0 400 Q 300 350 600 400 T 1200 400 L 1200 630 L 0 630 Z" fill="#1E90A0" opacity="0.08"/>
  <path d="M 0 450 Q 250 420 500 450 T 1000 450 T 1200 450 L 1200 630 L 0 630 Z" fill="#4FD1C5" opacity="0.05"/>

  <!-- Caviar roe particles -->
  <circle cx="309.54757971457536" cy="361.8805025502534" r="5.53946075497701" fill="#CFAE58" opacity="0.12451968809982936"/>
  <circle cx="292.24275929391234" cy="362.1848054535347" r="2.3242467524546853" fill="#CFAE58" opacity="0.17081097954949107"/>
  <circle cx="1194.1738949223325" cy="349.77831843386286" r="3.6461511137510834" fill="#CFAE58" opacity="0.14242529900132955"/>
  <circle cx="593.4543190465379" cy="597.1135572507272" r="3.44643250231737" fill="#CFAE58" opacity="0.20226172213755597"/>
  <circle cx="30.35086938794569" cy="194.93811612296736" r="5.105234891081738" fill="#CFAE58" opacity="0.1502611612181265"/>
  <circle cx="103.64935700129662" cy="212.6308493013298" r="3.5282979639315295" fill="#CFAE58" opacity="0.15366916816150977"/>
  <circle cx="745.7888096407395" cy="170.9769153455774" r="3.1987359949528202" fill="#CFAE58" opacity="0.24994197419053618"/>
  <circle cx="981.4250539989607" cy="56.46767241077724" r="3.7134412117707196" fill="#CFAE58" opacity="0.12510485622423764"/>
  <circle cx="508.51151964205366" cy="199.39159491038157" r="3.7689105501304505" fill="#CFAE58" opacity="0.20273313927885434"/>
  <circle cx="546.4652063089868" cy="259.0181552509167" r="4.287517338428184" fill="#CFAE58" opacity="0.23107608812205332"/>
  <circle cx="1190.113547563552" cy="224.3029831528658" r="2.3607343171548654" fill="#CFAE58" opacity="0.22896060162299606"/>
  <circle cx="992.5013203515541" cy="227.14685397451098" r="2.2005503236092205" fill="#CFAE58" opacity="0.1719401031528659"/>
  <circle cx="997.7366403457751" cy="74.7022871708615" r="5.165230751154677" fill="#CFAE58" opacity="0.21265222573723908"/>
  <circle cx="675.7435234115542" cy="292.8056865823195" r="3.357362121437047" fill="#CFAE58" opacity="0.19737685663259386"/>
  <circle cx="702.0237057504258" cy="415.43638134347174" r="4.201235148918448" fill="#CFAE58" opacity="0.1288851216472533"/>
  <circle cx="711.3674877780888" cy="39.72262496083812" r="3.89998435694074" fill="#CFAE58" opacity="0.20435046299811988"/>
  <circle cx="717.2817253099196" cy="444.3386740386851" r="2.7794809870590114" fill="#CFAE58" opacity="0.21811022104199493"/>
  <circle cx="316.8233490926115" cy="4.69090273934129" r="3.925610172185235" fill="#CFAE58" opacity="0.23784615222404695"/>
  <circle cx="1055.2420296069645" cy="242.3309524434223" r="4.26788381163788" fill="#CFAE58" opacity="0.17338973680387937"/>
  <circle cx="400.3978332811277" cy="126.83697318965511" r="2.1006838689855547" fill="#CFAE58" opacity="0.1841134976453256"/>
  <circle cx="47.03672153272369" cy="252.39335998696131" r="5.0115631450517455" fill="#CFAE58" opacity="0.24863195463046317"/>
  <circle cx="215.49697868354204" cy="51.912335816191145" r="2.471598220636439" fill="#CFAE58" opacity="0.20155954927102088"/>
  <circle cx="1051.8319594418147" cy="588.5179899779737" r="2.219809057784018" fill="#CFAE58" opacity="0.16234876294841113"/>
  <circle cx="724.4669431568366" cy="383.8042179911299" r="4.242987899036583" fill="#CFAE58" opacity="0.221293798518234"/>
  <circle cx="873.5561341968875" cy="260.0847078891308" r="2.10095397664405" fill="#CFAE58" opacity="0.16463508617057965"/>
  <circle cx="816.2928734624937" cy="368.3055926622923" r="3.768578191732681" fill="#CFAE58" opacity="0.18112540423818263"/>
  <circle cx="928.2529219581564" cy="416.9152335900836" r="5.549911760483587" fill="#CFAE58" opacity="0.15285570140180613"/>
  <circle cx="826.7114691536085" cy="386.618888848867" r="5.321479309032768" fill="#CFAE58" opacity="0.22859771681982521"/>
  <circle cx="779.2730803585494" cy="597.5503341405079" r="5.959453898549365" fill="#CFAE58" opacity="0.17739600918458798"/>
  <circle cx="56.70768623018208" cy="576.0313119262674" r="5.446013559602402" fill="#CFAE58" opacity="0.14871870393954262"/>

  <!-- Border with glow -->
  <rect x="40" y="40" width="1120" height="550" fill="none" stroke="url(#goldGradient)" stroke-width="3" rx="12" filter="url(#softGlow)"/>

  <!-- Icon circle with premium background -->
  <circle cx="150" cy="200" r="75" fill="#CFAE58" opacity="0.15" filter="url(#softGlow)"/>
  <circle cx="150" cy="200" r="70" fill="#CFAE58" opacity="0.25"/>
  <text x="150" y="235" font-size="90" text-anchor="middle" fill="#CFAE58" filter="url(#glow)">✓</text>

  <!-- Premium logo (crown) with enhanced styling -->
  <g transform="translate(100, 70)">
    <path d="M 30 20 L 40 35 L 35 35 Z M 50 15 L 60 35 L 45 35 Z M 65 20 L 75 35 L 70 35 Z M 30 35 L 75 35 L 73 45 L 32 45 Z"
          fill="url(#goldGradient)" filter="url(#glow)" stroke="#B89842" stroke-width="0.5"/>
    <circle cx="40" cy="25" r="3" fill="#4FD1C5" filter="url(#glow)"/>
    <circle cx="52" cy="20" r="4" fill="#4FD1C5" filter="url(#glow)"/>
    <circle cx="65" cy="25" r="3" fill="#4FD1C5" filter="url(#glow)"/>
  </g>

  <!-- Title with shadow -->
  <text x="280" y="180" font-family="Georgia, serif" font-size="72" font-weight="bold"
        fill="url(#goldGradient)" filter="url(#shadow)">Mercury eVSD System</text>

  <!-- Subtitle with subtle glow -->
  <text x="280" y="230" font-family="Arial, sans-serif" font-size="36"
        fill="#D6DEE6" opacity="0.95" filter="url(#softGlow)">Electronic Veterinary Certification</text>

  <!-- Brand name with letter spacing -->
  <text x="280" y="300" font-family="Georgia, serif" font-size="32" font-weight="bold"
        fill="#CFAE58" letter-spacing="4" filter="url(#glow)">ROYAL KETA</text>

  <!-- Russian tagline -->
  <text x="280" y="340" font-family="Arial, sans-serif" font-size="22" font-style="italic"
        fill="#8B95A1" opacity="0.8">От икринки к королевской</text>

  <!-- Location -->
  <text x="280" y="380" font-family="Arial, sans-serif" font-size="20"
        fill="#8B95A1" opacity="0.7">Невельский район, Сахалин</text>

  <!-- Website with glow -->
  <text x="100" y="570" font-family="Arial, sans-serif" font-size="30" font-weight="bold"
        fill="#4FD1C5" filter="url(#glow)">royalketa.com</text>

  <!-- Enhanced decorative salmon silhouette -->
  <g transform="translate(950, 480)" opacity="0.2" filter="url(#softGlow)">
    <ellipse cx="0" cy="0" rx="90" ry="35" fill="#CFAE58"/>
    <path d="M 90 0 L 120 -18 L 130 0 L 120 18 Z" fill="#CFAE58"/>
    <path d="M -25 -35 L 0 -45 L 25 -35 Z" fill="#CFAE58"/>
    <ellipse cx="-50" cy="0" rx="15" ry="12" fill="#0B0F14"/>
  </g>

  <!-- Additional decorative caviar clusters -->
  <g opacity="0.2">
    <circle cx="1050" cy="120" r="6" fill="#CFAE58"/>
    <circle cx="1065" cy="115" r="5" fill="#CFAE58"/>
    <circle cx="1058" cy="130" r="4" fill="#CFAE58"/>
    <circle cx="150" cy="500" r="5" fill="#4FD1C5"/>
    <circle cx="165" cy="508" r="4" fill="#4FD1C5"/>
    <circle cx="140" cy="512" r="5" fill="#4FD1C5"/>
  </g>
</svg>