<svg width="1200" height="630" xmlns="http://www.w3.org/2000/svg">
  <defs>
    <linearGradient id="bgGradient" x1="0%" y1="0%" x2="100%" y2="100%">
      <stop offset="0%" style="stop-color:#0B0F14;stop-opacity:1" />
      <stop offset="50%" style="stop-color:#0F1619;stop-opacity:1" />
      <stop offset="100%" style="stop-color:#0F1922;stop-opacity:1" />
    </linearGradient>
    <linearGradient id="goldGradient" x1="0%" y1="0%" x2="100%" y2="0%">
      <stop offset="0%" style="stop-color:#E5D596;stop-opacity:1" />
      <stop offset="50%" style="stop-color:#CFAE58;stop-opacity:1" />
      <stop offset="100%" style="stop-color:#B89842;stop-opacity:1" />
    </linearGradient>
    <radialGradient id="oceanGradient" cx="50%" cy="50%" r="50%">
      <stop offset="0%" style="stop-color:#4FD1C5;stop-opacity:0.3" />
      <stop offset="100%" style="stop-color:#1E90A0;stop-opacity:0.05" />
    </radialGradient>
    <filter id="glow">
      <feGaussianBlur stdDeviation="5" result="coloredBlur"/>
      <feMerge>
        <feMergeNode in="coloredBlur"/>
        <feMergeNode in="SourceGraphic"/>
      </feMerge>
    </filter>
    <filter id="softGlow">
      <feGaussianBlur stdDeviation="8" result="coloredBlur"/>
      <feMerge>
        <feMergeNode in="coloredBlur"/>
        <feMergeNode in="SourceGraphic"/>
      </feMerge>
    </filter>
    <filter id="shadow">
      <feDropShadow dx="0" dy="4" stdDeviation="8" flood-color="#000000" flood-opacity="0.5"/>
    </filter>
  </defs>

  <!-- Background -->
  <rect width="1200" height="630" fill="url(#bgGradient)"/>

  <!-- Decorative ocean gradients -->
  <ellipse cx="1000" cy="150" rx="300" ry="200" fill="url(#oceanGradient)" opacity="0.4"/>
  <ellipse cx="200" cy="530" rx="250" ry="180" fill="url(#oceanGradient)" opacity="0.3"/>

  <!-- Wave patterns -->
  <path d="M 0 400 Q 300 350 600 400 T 1200 400 L 1200 630 L 0 630 Z" fill="#1E90A0" opacity="0.08"/>
  <path d="M 0 450 Q 250 420 500 450 T 1000 450 T 1200 450 L 1200 630 L 0 630 Z" fill="#4FD1C5" opacity="0.05"/>

  <!-- Caviar roe particles -->
  <circle cx="902.9892881336251" cy="108.28220024092539" r="2.8897804400260148" fill="#CFAE58" opacity="0.22188706581714446"/>
  <circle cx="217.5810493247912" cy="118.94487232169072" r="5.860036807522272" fill="#CFAE58" opacity="0.23711325843132106"/>
  <circle cx="1144.3106046425914" cy="274.4656109273059" r="2.951115442953996" fill="#CFAE58" opacity="0.1448525093375816"/>
  <circle cx="811.382369675058" cy="3.537964039555445" r="5.448521824295332" fill="#CFAE58" opacity="0.2174551680931492"/>
  <circle cx="1032.3364427208933" cy="457.97790635099346" r="3.7185602409215304" fill="#CFAE58" opacity="0.117772116443968"/>
  <circle cx="918.1798966326926" cy="84.74335308606791" r="5.827843706041576" fill="#CFAE58" opacity="0.1378422245854376"/>
  <circle cx="892.277532559051" cy="390.05539273530496" r="2.799979245458609" fill="#CFAE58" opacity="0.22215737382971246"/>
  <circle cx="30.914196643338833" cy="575.4881650920842" r="3.550034784613763" fill="#CFAE58" opacity="0.13708199935310578"/>
  <circle cx="622.79560751254" cy="179.18317781412568" r="3.7230380220957793" fill="#CFAE58" opacity="0.18377326711365355"/>
  <circle cx="745.86732366892" cy="19.478272708564905" r="5.89894598999241" fill="#CFAE58" opacity="0.2390066279590383"/>
  <circle cx="1090.5050732559587" cy="26.70194238929865" r="2.3426332316626373" fill="#CFAE58" opacity="0.22034395614218927"/>
  <circle cx="547.5277909556785" cy="47.34921452396951" r="5.433406226912056" fill="#CFAE58" opacity="0.21102906693604953"/>
  <circle cx="1076.4682550304585" cy="249.5612957253279" r="2.55492431541331" fill="#CFAE58" opacity="0.19723933733474958"/>
  <circle cx="1030.9650943774257" cy="127.69682904689441" r="5.296426405977977" fill="#CFAE58" opacity="0.10834860683960934"/>
  <circle cx="441.5129916550836" cy="75.76224611584014" r="4.882500157717347" fill="#CFAE58" opacity="0.24799496564969203"/>
  <circle cx="646.7688275916934" cy="356.9506099267894" r="3.876829327871144" fill="#CFAE58" opacity="0.1666482018769102"/>
  <circle cx="1078.987334869323" cy="545.0065093945161" r="3.359824382458943" fill="#CFAE58" opacity="0.11713603599762809"/>
  <circle cx="1189.7067144261555" cy="289.4121667971288" r="5.587558474021667" fill="#CFAE58" opacity="0.1480381624298619"/>
  <circle cx="674.9880170080106" cy="170.06323357751313" r="4.656071370647933" fill="#CFAE58" opacity="0.19487867893475497"/>
  <circle cx="434.1549869013377" cy="354.41325894819886" r="2.135532744590238" fill="#CFAE58" opacity="0.10927054748103106"/>
  <circle cx="926.4097825782922" cy="147.16538010813647" r="2.668857970510173" fill="#CFAE58" opacity="0.10401231813178767"/>
  <circle cx="398.4032352898352" cy="243.69200717264522" r="4.042056421349972" fill="#CFAE58" opacity="0.16065931065417194"/>
  <circle cx="169.166815913457" cy="623.3305608844587" r="5.231944127973925" fill="#CFAE58" opacity="0.1924047055292888"/>
  <circle cx="54.14061744438339" cy="358.0622026813957" r="3.740632514626328" fill="#CFAE58" opacity="0.24706285630104463"/>
  <circle cx="787.671838835542" cy="271.3600587086548" r="5.14077046384924" fill="#CFAE58" opacity="0.18520470043938203"/>
  <circle cx="511.1907303677472" cy="423.68164153457815" r="4.929454077677249" fill="#CFAE58" opacity="0.1297575202034106"/>
  <circle cx="161.5291601524794" cy="610.8222093896026" r="4.1046559157722164" fill="#CFAE58" opacity="0.11833009806990602"/>
  <circle cx="684.8124570741837" cy="94.00173448027154" r="4.00472221599515" fill="#CFAE58" opacity="0.16994907528533165"/>
  <circle cx="987.208435151854" cy="56.55843144787871" r="3.3678353203850473" fill="#CFAE58" opacity="0.1450389037147804"/>
  <circle cx="591.4939493701038" cy="57.14681303471288" r="5.403083177020717" fill="#CFAE58" opacity="0.196563859253088"/>

  <!-- Border with glow -->
  <rect x="40" y="40" width="1120" height="550" fill="none" stroke="url(#goldGradient)" stroke-width="3" rx="12" filter="url(#softGlow)"/>

  <!-- Icon circle with premium background -->
  <circle cx="150" cy="200" r="75" fill="#CFAE58" opacity="0.15" filter="url(#softGlow)"/>
  <circle cx="150" cy="200" r="70" fill="#CFAE58" opacity="0.25"/>
  <text x="150" y="235" font-size="90" text-anchor="middle" fill="#CFAE58" filter="url(#glow)">✓</text>

  <!-- Premium logo (crown) with enhanced styling -->
  <g transform="translate(100, 70)">
    <path d="M 30 20 L 40 35 L 35 35 Z M 50 15 L 60 35 L 45 35 Z M 65 20 L 75 35 L 70 35 Z M 30 35 L 75 35 L 73 45 L 32 45 Z"
          fill="url(#goldGradient)" filter="url(#glow)" stroke="#B89842" stroke-width="0.5"/>
    <circle cx="40" cy="25" r="3" fill="#4FD1C5" filter="url(#glow)"/>
    <circle cx="52" cy="20" r="4" fill="#4FD1C5" filter="url(#glow)"/>
    <circle cx="65" cy="25" r="3" fill="#4FD1C5" filter="url(#glow)"/>
  </g>

  <!-- Title with shadow -->
  <text x="280" y="180" font-family="Georgia, serif" font-size="72" font-weight="bold"
        fill="url(#goldGradient)" filter="url(#shadow)">Mercury eVSD System</text>

  <!-- Subtitle with subtle glow -->
  <text x="280" y="230" font-family="Arial, sans-serif" font-size="36"
        fill="#D6DEE6" opacity="0.95" filter="url(#softGlow)">Electronic Veterinary Certification</text>

  <!-- Brand name with letter spacing -->
  <text x="280" y="300" font-family="Georgia, serif" font-size="32" font-weight="bold"
        fill="#CFAE58" letter-spacing="4" filter="url(#glow)">ROYAL KETA</text>

  <!-- Russian tagline -->
  <text x="280" y="340" font-family="Arial, sans-serif" font-size="22" font-style="italic"
        fill="#8B95A1" opacity="0.8">От икринки к королевской</text>

  <!-- Location -->
  <text x="280" y="380" font-family="Arial, sans-serif" font-size="20"
        fill="#8B95A1" opacity="0.7">Невельский район, Сахалин</text>

  <!-- Website with glow -->
  <text x="100" y="570" font-family="Arial, sans-serif" font-size="30" font-weight="bold"
        fill="#4FD1C5" filter="url(#glow)">royalketa.com</text>

  <!-- Enhanced decorative salmon silhouette -->
  <g transform="translate(950, 480)" opacity="0.2" filter="url(#softGlow)">
    <ellipse cx="0" cy="0" rx="90" ry="35" fill="#CFAE58"/>
    <path d="M 90 0 L 120 -18 L 130 0 L 120 18 Z" fill="#CFAE58"/>
    <path d="M -25 -35 L 0 -45 L 25 -35 Z" fill="#CFAE58"/>
    <ellipse cx="-50" cy="0" rx="15" ry="12" fill="#0B0F14"/>
  </g>

  <!-- Additional decorative caviar clusters -->
  <g opacity="0.2">
    <circle cx="1050" cy="120" r="6" fill="#CFAE58"/>
    <circle cx="1065" cy="115" r="5" fill="#CFAE58"/>
    <circle cx="1058" cy="130" r="4" fill="#CFAE58"/>
    <circle cx="150" cy="500" r="5" fill="#4FD1C5"/>
    <circle cx="165" cy="508" r="4" fill="#4FD1C5"/>
    <circle cx="140" cy="512" r="5" fill="#4FD1C5"/>
  </g>
</svg>