<svg width="1200" height="630" xmlns="http://www.w3.org/2000/svg">
  <defs>
    <linearGradient id="bgGradient" x1="0%" y1="0%" x2="100%" y2="100%">
      <stop offset="0%" style="stop-color:#0B0F14;stop-opacity:1" />
      <stop offset="50%" style="stop-color:#0F1619;stop-opacity:1" />
      <stop offset="100%" style="stop-color:#0F1922;stop-opacity:1" />
    </linearGradient>
    <linearGradient id="goldGradient" x1="0%" y1="0%" x2="100%" y2="0%">
      <stop offset="0%" style="stop-color:#E5D596;stop-opacity:1" />
      <stop offset="50%" style="stop-color:#CFAE58;stop-opacity:1" />
      <stop offset="100%" style="stop-color:#B89842;stop-opacity:1" />
    </linearGradient>
    <radialGradient id="oceanGradient" cx="50%" cy="50%" r="50%">
      <stop offset="0%" style="stop-color:#4FD1C5;stop-opacity:0.3" />
      <stop offset="100%" style="stop-color:#1E90A0;stop-opacity:0.05" />
    </radialGradient>
    <filter id="glow">
      <feGaussianBlur stdDeviation="5" result="coloredBlur"/>
      <feMerge>
        <feMergeNode in="coloredBlur"/>
        <feMergeNode in="SourceGraphic"/>
      </feMerge>
    </filter>
    <filter id="softGlow">
      <feGaussianBlur stdDeviation="8" result="coloredBlur"/>
      <feMerge>
        <feMergeNode in="coloredBlur"/>
        <feMergeNode in="SourceGraphic"/>
      </feMerge>
    </filter>
    <filter id="shadow">
      <feDropShadow dx="0" dy="4" stdDeviation="8" flood-color="#000000" flood-opacity="0.5"/>
    </filter>
  </defs>

  <!-- Background -->
  <rect width="1200" height="630" fill="url(#bgGradient)"/>

  <!-- Decorative ocean gradients -->
  <ellipse cx="1000" cy="150" rx="300" ry="200" fill="url(#oceanGradient)" opacity="0.4"/>
  <ellipse cx="200" cy="530" rx="250" ry="180" fill="url(#oceanGradient)" opacity="0.3"/>

  <!-- Wave patterns -->
  <path d="M 0 400 Q 300 350 600 400 T 1200 400 L 1200 630 L 0 630 Z" fill="#1E90A0" opacity="0.08"/>
  <path d="M 0 450 Q 250 420 500 450 T 1000 450 T 1200 450 L 1200 630 L 0 630 Z" fill="#4FD1C5" opacity="0.05"/>

  <!-- Caviar roe particles -->
  <circle cx="563.0576029772052" cy="535.513519958452" r="5.548218374279715" fill="#CFAE58" opacity="0.13473278296620744"/>
  <circle cx="471.68251105040764" cy="409.0541034837748" r="4.64828415940591" fill="#CFAE58" opacity="0.12530676977197597"/>
  <circle cx="1144.7529978015953" cy="400.3760480141519" r="3.0653553356633934" fill="#CFAE58" opacity="0.23238520078158112"/>
  <circle cx="564.6795081230887" cy="501.7491916383067" r="5.9516383697214925" fill="#CFAE58" opacity="0.18689392753557155"/>
  <circle cx="495.0609690800063" cy="397.4414333315174" r="3.045517703440326" fill="#CFAE58" opacity="0.20313151465400098"/>
  <circle cx="970.6032145168356" cy="532.0242752508508" r="2.492509858178282" fill="#CFAE58" opacity="0.11756396030312133"/>
  <circle cx="1127.4421619117118" cy="143.5736262227729" r="2.0820864729071413" fill="#CFAE58" opacity="0.10185791674776867"/>
  <circle cx="411.62128247237695" cy="374.50153041968485" r="5.692300386169581" fill="#CFAE58" opacity="0.20638371868470917"/>
  <circle cx="689.2993629742189" cy="236.37912078307033" r="5.586060089088127" fill="#CFAE58" opacity="0.24767642870065032"/>
  <circle cx="639.3179755168746" cy="123.76374275502036" r="2.3659284957892033" fill="#CFAE58" opacity="0.15400993477430627"/>
  <circle cx="252.82423421517313" cy="608.3210708089832" r="2.9201364372613448" fill="#CFAE58" opacity="0.23947732102941519"/>
  <circle cx="701.0342009700321" cy="71.97306427824522" r="4.267739343574878" fill="#CFAE58" opacity="0.23020124413238083"/>
  <circle cx="238.3096920828491" cy="224.51786785552952" r="5.530933156781156" fill="#CFAE58" opacity="0.1944149930883914"/>
  <circle cx="723.1233864708727" cy="587.8049881444133" r="5.936060695842384" fill="#CFAE58" opacity="0.179938226009647"/>
  <circle cx="715.1561620168712" cy="443.88053478649744" r="4.348872532341762" fill="#CFAE58" opacity="0.20970513102722865"/>
  <circle cx="398.4118187382038" cy="446.00469397828925" r="5.383101569965361" fill="#CFAE58" opacity="0.1562450861274104"/>
  <circle cx="1189.1654710530104" cy="58.19814702021187" r="3.10083373707419" fill="#CFAE58" opacity="0.19426020875458322"/>
  <circle cx="310.7396570268737" cy="503.1365377214847" r="5.103491918472362" fill="#CFAE58" opacity="0.24517161230444035"/>
  <circle cx="882.7229334336569" cy="217.8072436980971" r="2.790534418610233" fill="#CFAE58" opacity="0.14079602694073987"/>
  <circle cx="468.5587522406052" cy="463.61091488739925" r="3.8278969142915478" fill="#CFAE58" opacity="0.10727126782068168"/>
  <circle cx="217.14968762222117" cy="607.6184336943276" r="2.92635578660698" fill="#CFAE58" opacity="0.16378644640409373"/>
  <circle cx="431.058747531915" cy="590.3182725306691" r="2.3852485058754027" fill="#CFAE58" opacity="0.20519862059550154"/>
  <circle cx="992.5820549566703" cy="387.65232975261034" r="5.216654545802755" fill="#CFAE58" opacity="0.19694383068725796"/>
  <circle cx="261.4687975932683" cy="345.7295841875366" r="2.7665975293254066" fill="#CFAE58" opacity="0.109011930744494"/>
  <circle cx="723.2327901624335" cy="139.3036982340575" r="4.970379406206897" fill="#CFAE58" opacity="0.1509904173340754"/>
  <circle cx="1075.4689762999399" cy="195.23898043722352" r="4.354948633438271" fill="#CFAE58" opacity="0.22036860132766536"/>
  <circle cx="190.90153466232272" cy="195.24406309261653" r="5.136462538186067" fill="#CFAE58" opacity="0.15724456131266393"/>
  <circle cx="643.9451875198781" cy="546.4745146113947" r="4.1070832340818715" fill="#CFAE58" opacity="0.2177205186505084"/>
  <circle cx="993.6512398246455" cy="406.9790218683537" r="5.4007543013390915" fill="#CFAE58" opacity="0.1758364020142397"/>
  <circle cx="197.19678620709274" cy="203.23004186397318" r="2.9131661708664685" fill="#CFAE58" opacity="0.24542763052765668"/>

  <!-- Border with glow -->
  <rect x="40" y="40" width="1120" height="550" fill="none" stroke="url(#goldGradient)" stroke-width="3" rx="12" filter="url(#softGlow)"/>

  <!-- Icon circle with premium background -->
  <circle cx="150" cy="200" r="75" fill="#CFAE58" opacity="0.15" filter="url(#softGlow)"/>
  <circle cx="150" cy="200" r="70" fill="#CFAE58" opacity="0.25"/>
  <text x="150" y="235" font-size="90" text-anchor="middle" fill="#CFAE58" filter="url(#glow)">✓</text>

  <!-- Premium logo (crown) with enhanced styling -->
  <g transform="translate(100, 70)">
    <path d="M 30 20 L 40 35 L 35 35 Z M 50 15 L 60 35 L 45 35 Z M 65 20 L 75 35 L 70 35 Z M 30 35 L 75 35 L 73 45 L 32 45 Z"
          fill="url(#goldGradient)" filter="url(#glow)" stroke="#B89842" stroke-width="0.5"/>
    <circle cx="40" cy="25" r="3" fill="#4FD1C5" filter="url(#glow)"/>
    <circle cx="52" cy="20" r="4" fill="#4FD1C5" filter="url(#glow)"/>
    <circle cx="65" cy="25" r="3" fill="#4FD1C5" filter="url(#glow)"/>
  </g>

  <!-- Title with shadow -->
  <text x="280" y="180" font-family="Georgia, serif" font-size="72" font-weight="bold"
        fill="url(#goldGradient)" filter="url(#shadow)">Mercury eVSD System</text>

  <!-- Subtitle with subtle glow -->
  <text x="280" y="230" font-family="Arial, sans-serif" font-size="36"
        fill="#D6DEE6" opacity="0.95" filter="url(#softGlow)">Electronic Veterinary Certification</text>

  <!-- Brand name with letter spacing -->
  <text x="280" y="300" font-family="Georgia, serif" font-size="32" font-weight="bold"
        fill="#CFAE58" letter-spacing="4" filter="url(#glow)">ROYAL KETA</text>

  <!-- Russian tagline -->
  <text x="280" y="340" font-family="Arial, sans-serif" font-size="22" font-style="italic"
        fill="#8B95A1" opacity="0.8">От икринки к королевской</text>

  <!-- Location -->
  <text x="280" y="380" font-family="Arial, sans-serif" font-size="20"
        fill="#8B95A1" opacity="0.7">Невельский район, Сахалин</text>

  <!-- Website with glow -->
  <text x="100" y="570" font-family="Arial, sans-serif" font-size="30" font-weight="bold"
        fill="#4FD1C5" filter="url(#glow)">royalketa.com</text>

  <!-- Enhanced decorative salmon silhouette -->
  <g transform="translate(950, 480)" opacity="0.2" filter="url(#softGlow)">
    <ellipse cx="0" cy="0" rx="90" ry="35" fill="#CFAE58"/>
    <path d="M 90 0 L 120 -18 L 130 0 L 120 18 Z" fill="#CFAE58"/>
    <path d="M -25 -35 L 0 -45 L 25 -35 Z" fill="#CFAE58"/>
    <ellipse cx="-50" cy="0" rx="15" ry="12" fill="#0B0F14"/>
  </g>

  <!-- Additional decorative caviar clusters -->
  <g opacity="0.2">
    <circle cx="1050" cy="120" r="6" fill="#CFAE58"/>
    <circle cx="1065" cy="115" r="5" fill="#CFAE58"/>
    <circle cx="1058" cy="130" r="4" fill="#CFAE58"/>
    <circle cx="150" cy="500" r="5" fill="#4FD1C5"/>
    <circle cx="165" cy="508" r="4" fill="#4FD1C5"/>
    <circle cx="140" cy="512" r="5" fill="#4FD1C5"/>
  </g>
</svg>