<svg width="1200" height="630" xmlns="http://www.w3.org/2000/svg">
  <defs>
    <linearGradient id="bgGradient" x1="0%" y1="0%" x2="100%" y2="100%">
      <stop offset="0%" style="stop-color:#0B0F14;stop-opacity:1" />
      <stop offset="50%" style="stop-color:#0F1619;stop-opacity:1" />
      <stop offset="100%" style="stop-color:#0F1922;stop-opacity:1" />
    </linearGradient>
    <linearGradient id="goldGradient" x1="0%" y1="0%" x2="100%" y2="0%">
      <stop offset="0%" style="stop-color:#E5D596;stop-opacity:1" />
      <stop offset="50%" style="stop-color:#CFAE58;stop-opacity:1" />
      <stop offset="100%" style="stop-color:#B89842;stop-opacity:1" />
    </linearGradient>
    <radialGradient id="oceanGradient" cx="50%" cy="50%" r="50%">
      <stop offset="0%" style="stop-color:#4FD1C5;stop-opacity:0.3" />
      <stop offset="100%" style="stop-color:#1E90A0;stop-opacity:0.05" />
    </radialGradient>
    <filter id="glow">
      <feGaussianBlur stdDeviation="5" result="coloredBlur"/>
      <feMerge>
        <feMergeNode in="coloredBlur"/>
        <feMergeNode in="SourceGraphic"/>
      </feMerge>
    </filter>
    <filter id="softGlow">
      <feGaussianBlur stdDeviation="8" result="coloredBlur"/>
      <feMerge>
        <feMergeNode in="coloredBlur"/>
        <feMergeNode in="SourceGraphic"/>
      </feMerge>
    </filter>
    <filter id="shadow">
      <feDropShadow dx="0" dy="4" stdDeviation="8" flood-color="#000000" flood-opacity="0.5"/>
    </filter>
  </defs>

  <!-- Background -->
  <rect width="1200" height="630" fill="url(#bgGradient)"/>

  <!-- Decorative ocean gradients -->
  <ellipse cx="1000" cy="150" rx="300" ry="200" fill="url(#oceanGradient)" opacity="0.4"/>
  <ellipse cx="200" cy="530" rx="250" ry="180" fill="url(#oceanGradient)" opacity="0.3"/>

  <!-- Wave patterns -->
  <path d="M 0 400 Q 300 350 600 400 T 1200 400 L 1200 630 L 0 630 Z" fill="#1E90A0" opacity="0.08"/>
  <path d="M 0 450 Q 250 420 500 450 T 1000 450 T 1200 450 L 1200 630 L 0 630 Z" fill="#4FD1C5" opacity="0.05"/>

  <!-- Caviar roe particles -->
  <circle cx="17.924080382842966" cy="302.56084569319955" r="4.96102131275634" fill="#CFAE58" opacity="0.1086114070673019"/>
  <circle cx="389.83739023943474" cy="16.06213500987549" r="3.741356005650397" fill="#CFAE58" opacity="0.21724024353702737"/>
  <circle cx="968.063795124252" cy="422.74942953741333" r="3.7936339816608653" fill="#CFAE58" opacity="0.10090091548947237"/>
  <circle cx="1149.7064385695398" cy="82.50928579650781" r="4.18635958281426" fill="#CFAE58" opacity="0.1518325617158466"/>
  <circle cx="624.8305805947452" cy="20.7028645216995" r="3.9273881735252436" fill="#CFAE58" opacity="0.18553952370836696"/>
  <circle cx="201.622260537279" cy="19.982026840946197" r="4.673837438675675" fill="#CFAE58" opacity="0.1230570110773685"/>
  <circle cx="323.9606075335222" cy="103.52754926634935" r="3.0524888864466337" fill="#CFAE58" opacity="0.2058639979385018"/>
  <circle cx="175.13663620025196" cy="345.6915822840093" r="2.8551967733046713" fill="#CFAE58" opacity="0.15229593912456316"/>
  <circle cx="394.0604544722536" cy="68.7327713921025" r="4.602905231359513" fill="#CFAE58" opacity="0.11503495533121338"/>
  <circle cx="708.393167035217" cy="371.1474287583252" r="4.520103753588668" fill="#CFAE58" opacity="0.11577060540110522"/>
  <circle cx="389.32655938505513" cy="12.273392645106615" r="5.872917950496172" fill="#CFAE58" opacity="0.11874171957823058"/>
  <circle cx="300.97055290745953" cy="264.1711568081785" r="4.015524230110252" fill="#CFAE58" opacity="0.2306121744200879"/>
  <circle cx="716.9218221119951" cy="474.74896455904786" r="4.3751424552972145" fill="#CFAE58" opacity="0.22415002363553474"/>
  <circle cx="499.4503684906169" cy="198.9822763383441" r="3.5794894085398727" fill="#CFAE58" opacity="0.10504563283058478"/>
  <circle cx="553.317419161438" cy="212.82814749702118" r="3.1062399870550195" fill="#CFAE58" opacity="0.1569852014510831"/>
  <circle cx="1091.0695280751588" cy="429.80002717234726" r="2.84976741676184" fill="#CFAE58" opacity="0.1476735255863275"/>
  <circle cx="617.6356121248679" cy="629.9821691394976" r="3.9776902248796295" fill="#CFAE58" opacity="0.17564544680957347"/>
  <circle cx="789.8643980002357" cy="190.67912676929748" r="5.893771702028195" fill="#CFAE58" opacity="0.16773657406360276"/>
  <circle cx="196.34723251164462" cy="587.3000687501294" r="4.890001058000714" fill="#CFAE58" opacity="0.2112266466604587"/>
  <circle cx="982.4742552322864" cy="12.907485905190248" r="3.8860905991412675" fill="#CFAE58" opacity="0.21786811421399316"/>
  <circle cx="653.348955692042" cy="182.9827368095593" r="2.370429438642283" fill="#CFAE58" opacity="0.15766013112368696"/>
  <circle cx="1017.5207626868695" cy="479.91792040866625" r="2.0278215926831713" fill="#CFAE58" opacity="0.18094774993730225"/>
  <circle cx="886.129791431197" cy="117.06532012065684" r="2.8112328675356464" fill="#CFAE58" opacity="0.2101836018572655"/>
  <circle cx="978.0890997213422" cy="94.1137580420213" r="5.347129405721067" fill="#CFAE58" opacity="0.22813703119653328"/>
  <circle cx="1112.274868312832" cy="517.9315060315533" r="5.951354391624935" fill="#CFAE58" opacity="0.17991503451253738"/>
  <circle cx="672.4091984051882" cy="82.01198508230097" r="5.072879989715672" fill="#CFAE58" opacity="0.22386466646179837"/>
  <circle cx="191.7809839271774" cy="403.274818343228" r="4.340479431653456" fill="#CFAE58" opacity="0.11682131588222114"/>
  <circle cx="273.9649342664082" cy="514.6876370958386" r="5.557509439015092" fill="#CFAE58" opacity="0.19006748203473245"/>
  <circle cx="1036.481616842438" cy="139.25862261557438" r="5.319333169408284" fill="#CFAE58" opacity="0.14121610522374314"/>
  <circle cx="997.6629176706697" cy="562.0725873253799" r="3.0479213961033587" fill="#CFAE58" opacity="0.1620968903337181"/>

  <!-- Border with glow -->
  <rect x="40" y="40" width="1120" height="550" fill="none" stroke="url(#goldGradient)" stroke-width="3" rx="12" filter="url(#softGlow)"/>

  <!-- Icon circle with premium background -->
  <circle cx="150" cy="200" r="75" fill="#CFAE58" opacity="0.15" filter="url(#softGlow)"/>
  <circle cx="150" cy="200" r="70" fill="#CFAE58" opacity="0.25"/>
  <text x="150" y="235" font-size="90" text-anchor="middle" fill="#CFAE58" filter="url(#glow)">✓</text>

  <!-- Premium logo (crown) with enhanced styling -->
  <g transform="translate(100, 70)">
    <path d="M 30 20 L 40 35 L 35 35 Z M 50 15 L 60 35 L 45 35 Z M 65 20 L 75 35 L 70 35 Z M 30 35 L 75 35 L 73 45 L 32 45 Z"
          fill="url(#goldGradient)" filter="url(#glow)" stroke="#B89842" stroke-width="0.5"/>
    <circle cx="40" cy="25" r="3" fill="#4FD1C5" filter="url(#glow)"/>
    <circle cx="52" cy="20" r="4" fill="#4FD1C5" filter="url(#glow)"/>
    <circle cx="65" cy="25" r="3" fill="#4FD1C5" filter="url(#glow)"/>
  </g>

  <!-- Title with shadow -->
  <text x="280" y="180" font-family="Georgia, serif" font-size="72" font-weight="bold"
        fill="url(#goldGradient)" filter="url(#shadow)">Mercury eVSD System</text>

  <!-- Subtitle with subtle glow -->
  <text x="280" y="230" font-family="Arial, sans-serif" font-size="36"
        fill="#D6DEE6" opacity="0.95" filter="url(#softGlow)">Electronic Veterinary Certification</text>

  <!-- Brand name with letter spacing -->
  <text x="280" y="300" font-family="Georgia, serif" font-size="32" font-weight="bold"
        fill="#CFAE58" letter-spacing="4" filter="url(#glow)">ROYAL KETA</text>

  <!-- Russian tagline -->
  <text x="280" y="340" font-family="Arial, sans-serif" font-size="22" font-style="italic"
        fill="#8B95A1" opacity="0.8">От икринки к королевской</text>

  <!-- Location -->
  <text x="280" y="380" font-family="Arial, sans-serif" font-size="20"
        fill="#8B95A1" opacity="0.7">Невельский район, Сахалин</text>

  <!-- Website with glow -->
  <text x="100" y="570" font-family="Arial, sans-serif" font-size="30" font-weight="bold"
        fill="#4FD1C5" filter="url(#glow)">royalketa.com</text>

  <!-- Enhanced decorative salmon silhouette -->
  <g transform="translate(950, 480)" opacity="0.2" filter="url(#softGlow)">
    <ellipse cx="0" cy="0" rx="90" ry="35" fill="#CFAE58"/>
    <path d="M 90 0 L 120 -18 L 130 0 L 120 18 Z" fill="#CFAE58"/>
    <path d="M -25 -35 L 0 -45 L 25 -35 Z" fill="#CFAE58"/>
    <ellipse cx="-50" cy="0" rx="15" ry="12" fill="#0B0F14"/>
  </g>

  <!-- Additional decorative caviar clusters -->
  <g opacity="0.2">
    <circle cx="1050" cy="120" r="6" fill="#CFAE58"/>
    <circle cx="1065" cy="115" r="5" fill="#CFAE58"/>
    <circle cx="1058" cy="130" r="4" fill="#CFAE58"/>
    <circle cx="150" cy="500" r="5" fill="#4FD1C5"/>
    <circle cx="165" cy="508" r="4" fill="#4FD1C5"/>
    <circle cx="140" cy="512" r="5" fill="#4FD1C5"/>
  </g>
</svg>