<svg width="1200" height="630" xmlns="http://www.w3.org/2000/svg">
  <defs>
    <linearGradient id="bgGradient" x1="0%" y1="0%" x2="100%" y2="100%">
      <stop offset="0%" style="stop-color:#0B0F14;stop-opacity:1" />
      <stop offset="50%" style="stop-color:#0F1619;stop-opacity:1" />
      <stop offset="100%" style="stop-color:#0F1922;stop-opacity:1" />
    </linearGradient>
    <linearGradient id="goldGradient" x1="0%" y1="0%" x2="100%" y2="0%">
      <stop offset="0%" style="stop-color:#E5D596;stop-opacity:1" />
      <stop offset="50%" style="stop-color:#CFAE58;stop-opacity:1" />
      <stop offset="100%" style="stop-color:#B89842;stop-opacity:1" />
    </linearGradient>
    <radialGradient id="oceanGradient" cx="50%" cy="50%" r="50%">
      <stop offset="0%" style="stop-color:#4FD1C5;stop-opacity:0.3" />
      <stop offset="100%" style="stop-color:#1E90A0;stop-opacity:0.05" />
    </radialGradient>
    <filter id="glow">
      <feGaussianBlur stdDeviation="5" result="coloredBlur"/>
      <feMerge>
        <feMergeNode in="coloredBlur"/>
        <feMergeNode in="SourceGraphic"/>
      </feMerge>
    </filter>
    <filter id="softGlow">
      <feGaussianBlur stdDeviation="8" result="coloredBlur"/>
      <feMerge>
        <feMergeNode in="coloredBlur"/>
        <feMergeNode in="SourceGraphic"/>
      </feMerge>
    </filter>
    <filter id="shadow">
      <feDropShadow dx="0" dy="4" stdDeviation="8" flood-color="#000000" flood-opacity="0.5"/>
    </filter>
  </defs>

  <!-- Background -->
  <rect width="1200" height="630" fill="url(#bgGradient)"/>

  <!-- Decorative ocean gradients -->
  <ellipse cx="1000" cy="150" rx="300" ry="200" fill="url(#oceanGradient)" opacity="0.4"/>
  <ellipse cx="200" cy="530" rx="250" ry="180" fill="url(#oceanGradient)" opacity="0.3"/>

  <!-- Wave patterns -->
  <path d="M 0 400 Q 300 350 600 400 T 1200 400 L 1200 630 L 0 630 Z" fill="#1E90A0" opacity="0.08"/>
  <path d="M 0 450 Q 250 420 500 450 T 1000 450 T 1200 450 L 1200 630 L 0 630 Z" fill="#4FD1C5" opacity="0.05"/>

  <!-- Caviar roe particles -->
  <circle cx="201.26037601843382" cy="342.5209989010903" r="4.018845619560764" fill="#CFAE58" opacity="0.15491077916288037"/>
  <circle cx="99.67443296140877" cy="82.07546592451297" r="4.257077523343811" fill="#CFAE58" opacity="0.23626965315071147"/>
  <circle cx="734.5877969621921" cy="214.95427934668277" r="4.383396780868076" fill="#CFAE58" opacity="0.14061832799429747"/>
  <circle cx="417.5566461746563" cy="378.6271546852763" r="3.2546809027130443" fill="#CFAE58" opacity="0.12159355152153832"/>
  <circle cx="1103.5494267816844" cy="451.6962964418349" r="4.924963429263424" fill="#CFAE58" opacity="0.1512922827519709"/>
  <circle cx="718.1710423290426" cy="329.99613390440686" r="2.9058676489803332" fill="#CFAE58" opacity="0.13881152853076079"/>
  <circle cx="381.20429511399203" cy="436.23043407236725" r="5.445984476440096" fill="#CFAE58" opacity="0.16891313961222476"/>
  <circle cx="821.6149842270012" cy="333.9798426534752" r="2.418211553614541" fill="#CFAE58" opacity="0.24247135098507122"/>
  <circle cx="1156.2102015887685" cy="351.4813665099714" r="3.1317664088302113" fill="#CFAE58" opacity="0.1591764980643846"/>
  <circle cx="605.5553453491384" cy="387.3450490289693" r="3.1243473808253013" fill="#CFAE58" opacity="0.22562548012666248"/>
  <circle cx="211.24473615352449" cy="565.4034037091926" r="2.2308863514782784" fill="#CFAE58" opacity="0.17517959032789415"/>
  <circle cx="113.01320860994562" cy="271.95935099071886" r="3.9237404121086437" fill="#CFAE58" opacity="0.1864268992639035"/>
  <circle cx="928.1846783775602" cy="9.89439256514622" r="5.614637921217698" fill="#CFAE58" opacity="0.19291482254050168"/>
  <circle cx="559.4268403653678" cy="263.4803178352812" r="4.610415330808175" fill="#CFAE58" opacity="0.20725936557126587"/>
  <circle cx="791.3340170712173" cy="283.08159445086073" r="5.660331818422555" fill="#CFAE58" opacity="0.18237001452244148"/>
  <circle cx="929.0097182060002" cy="170.48466433217484" r="4.29580977856042" fill="#CFAE58" opacity="0.11833303781791964"/>
  <circle cx="465.1877577216393" cy="564.0528779255638" r="5.366290244271359" fill="#CFAE58" opacity="0.10398317346519066"/>
  <circle cx="148.73253891050976" cy="234.30706058906256" r="5.844002586870549" fill="#CFAE58" opacity="0.14840459197381153"/>
  <circle cx="353.58552036544006" cy="306.390278298161" r="4.147989628069567" fill="#CFAE58" opacity="0.12353468298614788"/>
  <circle cx="1020.4780300407313" cy="234.11242723142317" r="4.94868432385131" fill="#CFAE58" opacity="0.24741199184308546"/>
  <circle cx="581.7266795151932" cy="398.1898825357544" r="3.641631463133523" fill="#CFAE58" opacity="0.19511248021549737"/>
  <circle cx="18.10909991537777" cy="583.6310873797568" r="5.815817882791648" fill="#CFAE58" opacity="0.2106119152518275"/>
  <circle cx="198.32759652830907" cy="583.730986653713" r="4.132092146274691" fill="#CFAE58" opacity="0.20606995487481536"/>
  <circle cx="227.5833684941661" cy="290.37514945931485" r="4.953812108317568" fill="#CFAE58" opacity="0.14974965947259108"/>
  <circle cx="259.191637479457" cy="307.0840486587935" r="2.327436148125596" fill="#CFAE58" opacity="0.23852771848969165"/>
  <circle cx="57.748025361793424" cy="217.98625999517458" r="5.065957816298401" fill="#CFAE58" opacity="0.12732099346220663"/>
  <circle cx="1185.9957350081897" cy="587.9428304241028" r="4.475701595847525" fill="#CFAE58" opacity="0.23026097446020477"/>
  <circle cx="1097.730826995262" cy="85.66936562283415" r="3.128722907727365" fill="#CFAE58" opacity="0.13949052385905963"/>
  <circle cx="524.2464627478806" cy="539.153717691315" r="3.9197711015488297" fill="#CFAE58" opacity="0.14608893278372076"/>
  <circle cx="424.2236757418256" cy="51.66444206996097" r="2.155334605944785" fill="#CFAE58" opacity="0.14420656569925608"/>

  <!-- Border with glow -->
  <rect x="40" y="40" width="1120" height="550" fill="none" stroke="url(#goldGradient)" stroke-width="3" rx="12" filter="url(#softGlow)"/>

  <!-- Icon circle with premium background -->
  <circle cx="150" cy="200" r="75" fill="#CFAE58" opacity="0.15" filter="url(#softGlow)"/>
  <circle cx="150" cy="200" r="70" fill="#CFAE58" opacity="0.25"/>
  <text x="150" y="235" font-size="90" text-anchor="middle" fill="#CFAE58" filter="url(#glow)">✓</text>

  <!-- Premium logo (crown) with enhanced styling -->
  <g transform="translate(100, 70)">
    <path d="M 30 20 L 40 35 L 35 35 Z M 50 15 L 60 35 L 45 35 Z M 65 20 L 75 35 L 70 35 Z M 30 35 L 75 35 L 73 45 L 32 45 Z"
          fill="url(#goldGradient)" filter="url(#glow)" stroke="#B89842" stroke-width="0.5"/>
    <circle cx="40" cy="25" r="3" fill="#4FD1C5" filter="url(#glow)"/>
    <circle cx="52" cy="20" r="4" fill="#4FD1C5" filter="url(#glow)"/>
    <circle cx="65" cy="25" r="3" fill="#4FD1C5" filter="url(#glow)"/>
  </g>

  <!-- Title with shadow -->
  <text x="280" y="180" font-family="Georgia, serif" font-size="72" font-weight="bold"
        fill="url(#goldGradient)" filter="url(#shadow)">Mercury eVSD System</text>

  <!-- Subtitle with subtle glow -->
  <text x="280" y="230" font-family="Arial, sans-serif" font-size="36"
        fill="#D6DEE6" opacity="0.95" filter="url(#softGlow)">Electronic Veterinary Certification</text>

  <!-- Brand name with letter spacing -->
  <text x="280" y="300" font-family="Georgia, serif" font-size="32" font-weight="bold"
        fill="#CFAE58" letter-spacing="4" filter="url(#glow)">ROYAL KETA</text>

  <!-- Russian tagline -->
  <text x="280" y="340" font-family="Arial, sans-serif" font-size="22" font-style="italic"
        fill="#8B95A1" opacity="0.8">От икринки к королевской</text>

  <!-- Location -->
  <text x="280" y="380" font-family="Arial, sans-serif" font-size="20"
        fill="#8B95A1" opacity="0.7">Невельский район, Сахалин</text>

  <!-- Website with glow -->
  <text x="100" y="570" font-family="Arial, sans-serif" font-size="30" font-weight="bold"
        fill="#4FD1C5" filter="url(#glow)">royalketa.com</text>

  <!-- Enhanced decorative salmon silhouette -->
  <g transform="translate(950, 480)" opacity="0.2" filter="url(#softGlow)">
    <ellipse cx="0" cy="0" rx="90" ry="35" fill="#CFAE58"/>
    <path d="M 90 0 L 120 -18 L 130 0 L 120 18 Z" fill="#CFAE58"/>
    <path d="M -25 -35 L 0 -45 L 25 -35 Z" fill="#CFAE58"/>
    <ellipse cx="-50" cy="0" rx="15" ry="12" fill="#0B0F14"/>
  </g>

  <!-- Additional decorative caviar clusters -->
  <g opacity="0.2">
    <circle cx="1050" cy="120" r="6" fill="#CFAE58"/>
    <circle cx="1065" cy="115" r="5" fill="#CFAE58"/>
    <circle cx="1058" cy="130" r="4" fill="#CFAE58"/>
    <circle cx="150" cy="500" r="5" fill="#4FD1C5"/>
    <circle cx="165" cy="508" r="4" fill="#4FD1C5"/>
    <circle cx="140" cy="512" r="5" fill="#4FD1C5"/>
  </g>
</svg>