<svg width="1200" height="630" xmlns="http://www.w3.org/2000/svg">
  <defs>
    <linearGradient id="bgGradient" x1="0%" y1="0%" x2="100%" y2="100%">
      <stop offset="0%" style="stop-color:#0B0F14;stop-opacity:1" />
      <stop offset="50%" style="stop-color:#0F1619;stop-opacity:1" />
      <stop offset="100%" style="stop-color:#0F1922;stop-opacity:1" />
    </linearGradient>
    <linearGradient id="goldGradient" x1="0%" y1="0%" x2="100%" y2="0%">
      <stop offset="0%" style="stop-color:#E5D596;stop-opacity:1" />
      <stop offset="50%" style="stop-color:#CFAE58;stop-opacity:1" />
      <stop offset="100%" style="stop-color:#B89842;stop-opacity:1" />
    </linearGradient>
    <radialGradient id="oceanGradient" cx="50%" cy="50%" r="50%">
      <stop offset="0%" style="stop-color:#4FD1C5;stop-opacity:0.3" />
      <stop offset="100%" style="stop-color:#1E90A0;stop-opacity:0.05" />
    </radialGradient>
    <filter id="glow">
      <feGaussianBlur stdDeviation="5" result="coloredBlur"/>
      <feMerge>
        <feMergeNode in="coloredBlur"/>
        <feMergeNode in="SourceGraphic"/>
      </feMerge>
    </filter>
    <filter id="softGlow">
      <feGaussianBlur stdDeviation="8" result="coloredBlur"/>
      <feMerge>
        <feMergeNode in="coloredBlur"/>
        <feMergeNode in="SourceGraphic"/>
      </feMerge>
    </filter>
    <filter id="shadow">
      <feDropShadow dx="0" dy="4" stdDeviation="8" flood-color="#000000" flood-opacity="0.5"/>
    </filter>
  </defs>

  <!-- Background -->
  <rect width="1200" height="630" fill="url(#bgGradient)"/>

  <!-- Decorative ocean gradients -->
  <ellipse cx="1000" cy="150" rx="300" ry="200" fill="url(#oceanGradient)" opacity="0.4"/>
  <ellipse cx="200" cy="530" rx="250" ry="180" fill="url(#oceanGradient)" opacity="0.3"/>

  <!-- Wave patterns -->
  <path d="M 0 400 Q 300 350 600 400 T 1200 400 L 1200 630 L 0 630 Z" fill="#1E90A0" opacity="0.08"/>
  <path d="M 0 450 Q 250 420 500 450 T 1000 450 T 1200 450 L 1200 630 L 0 630 Z" fill="#4FD1C5" opacity="0.05"/>

  <!-- Caviar roe particles -->
  <circle cx="817.5086254545236" cy="488.49909319089755" r="2.1104652582978787" fill="#CFAE58" opacity="0.19469525292872075"/>
  <circle cx="814.220100963303" cy="261.5066328123271" r="4.846239302021611" fill="#CFAE58" opacity="0.1494858896445121"/>
  <circle cx="730.9540951824847" cy="115.5043870007839" r="5.577976379525327" fill="#CFAE58" opacity="0.20190143715480735"/>
  <circle cx="1068.544244882903" cy="117.7319455931507" r="4.781705614447203" fill="#CFAE58" opacity="0.16183223046868106"/>
  <circle cx="1032.5293107515058" cy="50.953725261179386" r="4.636289775904343" fill="#CFAE58" opacity="0.23192640597718012"/>
  <circle cx="837.0057078448224" cy="68.3699689045231" r="5.763106512964141" fill="#CFAE58" opacity="0.15098582031940805"/>
  <circle cx="239.73377922295435" cy="316.1481490063284" r="4.56928114450799" fill="#CFAE58" opacity="0.1710931187473976"/>
  <circle cx="993.2042681676423" cy="537.0009585479139" r="3.8943884091723575" fill="#CFAE58" opacity="0.13949443477444456"/>
  <circle cx="1134.7636388496783" cy="42.271950801214786" r="5.810538323420116" fill="#CFAE58" opacity="0.22378459323826502"/>
  <circle cx="880.6767378872083" cy="27.29151670704838" r="2.9606673969863255" fill="#CFAE58" opacity="0.16042007180696372"/>
  <circle cx="1131.9229128456336" cy="50.2850842490102" r="5.629072214172616" fill="#CFAE58" opacity="0.12808236766762693"/>
  <circle cx="31.969178557760713" cy="329.3586987878989" r="4.002369886517484" fill="#CFAE58" opacity="0.10715334483706468"/>
  <circle cx="690.6335051768632" cy="268.95294737136066" r="4.7170945777960585" fill="#CFAE58" opacity="0.1764985011522708"/>
  <circle cx="691.9898612197993" cy="501.5918932390752" r="4.286404509285014" fill="#CFAE58" opacity="0.11084449815210354"/>
  <circle cx="607.2685726106334" cy="329.2989487651905" r="4.39803581913961" fill="#CFAE58" opacity="0.14434255373952257"/>
  <circle cx="876.7904396248771" cy="200.01287799364724" r="4.285909876272521" fill="#CFAE58" opacity="0.17656904321552164"/>
  <circle cx="1050.2680307119997" cy="519.0264513754385" r="5.947493460574583" fill="#CFAE58" opacity="0.23074969547192392"/>
  <circle cx="391.38857478784024" cy="381.42519184992045" r="2.1331461687219546" fill="#CFAE58" opacity="0.2294529969748176"/>
  <circle cx="286.69994990858737" cy="8.899560814645868" r="2.713682687088334" fill="#CFAE58" opacity="0.15460431186998072"/>
  <circle cx="453.0498595326553" cy="509.09795507356733" r="4.095354632267589" fill="#CFAE58" opacity="0.10903161072689131"/>
  <circle cx="548.7725237655263" cy="312.290476722645" r="2.72506625498563" fill="#CFAE58" opacity="0.20752212230590505"/>
  <circle cx="736.4344624741532" cy="474.5137747030721" r="3.9563298839999357" fill="#CFAE58" opacity="0.12075201188392937"/>
  <circle cx="603.6296180976525" cy="386.0061164116559" r="5.012954646317448" fill="#CFAE58" opacity="0.2483944945945723"/>
  <circle cx="147.47159046364925" cy="213.48397782850117" r="4.54564329075123" fill="#CFAE58" opacity="0.20340810298362677"/>
  <circle cx="440.8919762565059" cy="619.0114038132203" r="2.9461763371366905" fill="#CFAE58" opacity="0.1705791428300002"/>
  <circle cx="100.28948576517563" cy="143.80685512093805" r="4.482228133525066" fill="#CFAE58" opacity="0.2003925274984521"/>
  <circle cx="606.0980853331811" cy="185.88071824644882" r="5.004076977318186" fill="#CFAE58" opacity="0.18095913542528486"/>
  <circle cx="386.9512220272769" cy="295.7403272502145" r="5.9336389626886215" fill="#CFAE58" opacity="0.24722125777122397"/>
  <circle cx="187.37971604015263" cy="207.64922699524078" r="2.488372051803718" fill="#CFAE58" opacity="0.18932674811154793"/>
  <circle cx="55.477745591541435" cy="531.6222281595241" r="4.672004447912133" fill="#CFAE58" opacity="0.11110631911592148"/>

  <!-- Border with glow -->
  <rect x="40" y="40" width="1120" height="550" fill="none" stroke="url(#goldGradient)" stroke-width="3" rx="12" filter="url(#softGlow)"/>

  <!-- Icon circle with premium background -->
  <circle cx="150" cy="200" r="75" fill="#CFAE58" opacity="0.15" filter="url(#softGlow)"/>
  <circle cx="150" cy="200" r="70" fill="#CFAE58" opacity="0.25"/>
  <text x="150" y="235" font-size="90" text-anchor="middle" fill="#CFAE58" filter="url(#glow)">✓</text>

  <!-- Premium logo (crown) with enhanced styling -->
  <g transform="translate(100, 70)">
    <path d="M 30 20 L 40 35 L 35 35 Z M 50 15 L 60 35 L 45 35 Z M 65 20 L 75 35 L 70 35 Z M 30 35 L 75 35 L 73 45 L 32 45 Z"
          fill="url(#goldGradient)" filter="url(#glow)" stroke="#B89842" stroke-width="0.5"/>
    <circle cx="40" cy="25" r="3" fill="#4FD1C5" filter="url(#glow)"/>
    <circle cx="52" cy="20" r="4" fill="#4FD1C5" filter="url(#glow)"/>
    <circle cx="65" cy="25" r="3" fill="#4FD1C5" filter="url(#glow)"/>
  </g>

  <!-- Title with shadow -->
  <text x="280" y="180" font-family="Georgia, serif" font-size="72" font-weight="bold"
        fill="url(#goldGradient)" filter="url(#shadow)">Mercury eVSD System</text>

  <!-- Subtitle with subtle glow -->
  <text x="280" y="230" font-family="Arial, sans-serif" font-size="36"
        fill="#D6DEE6" opacity="0.95" filter="url(#softGlow)">Electronic Veterinary Certification</text>

  <!-- Brand name with letter spacing -->
  <text x="280" y="300" font-family="Georgia, serif" font-size="32" font-weight="bold"
        fill="#CFAE58" letter-spacing="4" filter="url(#glow)">ROYAL KETA</text>

  <!-- Russian tagline -->
  <text x="280" y="340" font-family="Arial, sans-serif" font-size="22" font-style="italic"
        fill="#8B95A1" opacity="0.8">От икринки к королевской</text>

  <!-- Location -->
  <text x="280" y="380" font-family="Arial, sans-serif" font-size="20"
        fill="#8B95A1" opacity="0.7">Невельский район, Сахалин</text>

  <!-- Website with glow -->
  <text x="100" y="570" font-family="Arial, sans-serif" font-size="30" font-weight="bold"
        fill="#4FD1C5" filter="url(#glow)">royalketa.com</text>

  <!-- Enhanced decorative salmon silhouette -->
  <g transform="translate(950, 480)" opacity="0.2" filter="url(#softGlow)">
    <ellipse cx="0" cy="0" rx="90" ry="35" fill="#CFAE58"/>
    <path d="M 90 0 L 120 -18 L 130 0 L 120 18 Z" fill="#CFAE58"/>
    <path d="M -25 -35 L 0 -45 L 25 -35 Z" fill="#CFAE58"/>
    <ellipse cx="-50" cy="0" rx="15" ry="12" fill="#0B0F14"/>
  </g>

  <!-- Additional decorative caviar clusters -->
  <g opacity="0.2">
    <circle cx="1050" cy="120" r="6" fill="#CFAE58"/>
    <circle cx="1065" cy="115" r="5" fill="#CFAE58"/>
    <circle cx="1058" cy="130" r="4" fill="#CFAE58"/>
    <circle cx="150" cy="500" r="5" fill="#4FD1C5"/>
    <circle cx="165" cy="508" r="4" fill="#4FD1C5"/>
    <circle cx="140" cy="512" r="5" fill="#4FD1C5"/>
  </g>
</svg>