<svg width="1200" height="630" xmlns="http://www.w3.org/2000/svg">
  <defs>
    <linearGradient id="bgGradient" x1="0%" y1="0%" x2="100%" y2="100%">
      <stop offset="0%" style="stop-color:#0B0F14;stop-opacity:1" />
      <stop offset="50%" style="stop-color:#0F1619;stop-opacity:1" />
      <stop offset="100%" style="stop-color:#0F1922;stop-opacity:1" />
    </linearGradient>
    <linearGradient id="goldGradient" x1="0%" y1="0%" x2="100%" y2="0%">
      <stop offset="0%" style="stop-color:#E5D596;stop-opacity:1" />
      <stop offset="50%" style="stop-color:#CFAE58;stop-opacity:1" />
      <stop offset="100%" style="stop-color:#B89842;stop-opacity:1" />
    </linearGradient>
    <radialGradient id="oceanGradient" cx="50%" cy="50%" r="50%">
      <stop offset="0%" style="stop-color:#4FD1C5;stop-opacity:0.3" />
      <stop offset="100%" style="stop-color:#1E90A0;stop-opacity:0.05" />
    </radialGradient>
    <filter id="glow">
      <feGaussianBlur stdDeviation="5" result="coloredBlur"/>
      <feMerge>
        <feMergeNode in="coloredBlur"/>
        <feMergeNode in="SourceGraphic"/>
      </feMerge>
    </filter>
    <filter id="softGlow">
      <feGaussianBlur stdDeviation="8" result="coloredBlur"/>
      <feMerge>
        <feMergeNode in="coloredBlur"/>
        <feMergeNode in="SourceGraphic"/>
      </feMerge>
    </filter>
    <filter id="shadow">
      <feDropShadow dx="0" dy="4" stdDeviation="8" flood-color="#000000" flood-opacity="0.5"/>
    </filter>
  </defs>

  <!-- Background -->
  <rect width="1200" height="630" fill="url(#bgGradient)"/>

  <!-- Decorative ocean gradients -->
  <ellipse cx="1000" cy="150" rx="300" ry="200" fill="url(#oceanGradient)" opacity="0.4"/>
  <ellipse cx="200" cy="530" rx="250" ry="180" fill="url(#oceanGradient)" opacity="0.3"/>

  <!-- Wave patterns -->
  <path d="M 0 400 Q 300 350 600 400 T 1200 400 L 1200 630 L 0 630 Z" fill="#1E90A0" opacity="0.08"/>
  <path d="M 0 450 Q 250 420 500 450 T 1000 450 T 1200 450 L 1200 630 L 0 630 Z" fill="#4FD1C5" opacity="0.05"/>

  <!-- Caviar roe particles -->
  <circle cx="8.669042024809004" cy="269.09650859982736" r="2.885117687549551" fill="#CFAE58" opacity="0.12324635588919533"/>
  <circle cx="992.8637695168022" cy="547.0545224838812" r="2.6216321779419736" fill="#CFAE58" opacity="0.1822126828459142"/>
  <circle cx="90.66663578926328" cy="283.8035108442111" r="3.9829459766476853" fill="#CFAE58" opacity="0.19736436015704276"/>
  <circle cx="385.2260889084579" cy="513.3186185368772" r="5.304333362278287" fill="#CFAE58" opacity="0.24461035056478558"/>
  <circle cx="869.2216319091464" cy="54.020788939940616" r="4.0402389430641845" fill="#CFAE58" opacity="0.1403186588329769"/>
  <circle cx="409.65622433777094" cy="386.7332006474271" r="4.252926994909659" fill="#CFAE58" opacity="0.10894806401100082"/>
  <circle cx="10.387174802999377" cy="520.6486139900967" r="2.78408045235749" fill="#CFAE58" opacity="0.19628810774877095"/>
  <circle cx="928.0975808487624" cy="277.99153956469615" r="5.717009709999067" fill="#CFAE58" opacity="0.132467526184798"/>
  <circle cx="824.3779361225756" cy="191.1164026840948" r="4.167247490511179" fill="#CFAE58" opacity="0.2161892534239252"/>
  <circle cx="442.81312070742774" cy="312.1676013731789" r="5.508840442155705" fill="#CFAE58" opacity="0.175795599008329"/>
  <circle cx="817.8650109239092" cy="611.5443838428007" r="3.8873039152516973" fill="#CFAE58" opacity="0.16656402250474134"/>
  <circle cx="567.5290258167698" cy="20.87125567714911" r="4.865812670445048" fill="#CFAE58" opacity="0.1499806567819789"/>
  <circle cx="752.5407686927892" cy="233.12033081226193" r="3.5389683773876155" fill="#CFAE58" opacity="0.16464451532290814"/>
  <circle cx="743.115745474461" cy="87.23724733382544" r="2.550175485758964" fill="#CFAE58" opacity="0.2451705032624034"/>
  <circle cx="441.84687735953077" cy="585.8300681225496" r="3.6436485526964533" fill="#CFAE58" opacity="0.12885929428635431"/>
  <circle cx="707.6870165015531" cy="147.41589484486582" r="3.9537095131099567" fill="#CFAE58" opacity="0.1471479968117015"/>
  <circle cx="441.29215279563374" cy="322.1987125599531" r="2.018684800677699" fill="#CFAE58" opacity="0.23756648440132136"/>
  <circle cx="1061.3439613685846" cy="375.29316124920365" r="4.273833713361844" fill="#CFAE58" opacity="0.228770258843064"/>
  <circle cx="123.24618996976623" cy="355.1799656709259" r="5.535332397295689" fill="#CFAE58" opacity="0.22503236509713606"/>
  <circle cx="283.2417074415006" cy="237.2353015142195" r="3.833369332129089" fill="#CFAE58" opacity="0.16099610606889092"/>
  <circle cx="112.80141176260466" cy="456.5896565784096" r="3.7050475115516655" fill="#CFAE58" opacity="0.18860483046299753"/>
  <circle cx="424.8233738487449" cy="167.8817449601937" r="3.4528547570621284" fill="#CFAE58" opacity="0.22395513881367013"/>
  <circle cx="757.0849204215683" cy="149.4197396917326" r="3.6425914542480125" fill="#CFAE58" opacity="0.1841548773949584"/>
  <circle cx="720.995878859877" cy="351.53544370851955" r="3.438641211060512" fill="#CFAE58" opacity="0.24335502654207908"/>
  <circle cx="1029.9143957261692" cy="200.80999867576674" r="4.987096408400573" fill="#CFAE58" opacity="0.16816756615101003"/>
  <circle cx="361.92477102109086" cy="93.5840519967488" r="2.566420226263126" fill="#CFAE58" opacity="0.17007745731637064"/>
  <circle cx="393.6770439963213" cy="484.1063062272998" r="5.200313738743002" fill="#CFAE58" opacity="0.1850780355744564"/>
  <circle cx="153.41756195483347" cy="40.88512020236171" r="4.135830746198533" fill="#CFAE58" opacity="0.10437076012723298"/>
  <circle cx="1177.402275565236" cy="218.02808588054805" r="4.821980042722608" fill="#CFAE58" opacity="0.1599327899252817"/>
  <circle cx="151.82103367098142" cy="586.1437217605204" r="5.855277167532161" fill="#CFAE58" opacity="0.15591206457394247"/>

  <!-- Border with glow -->
  <rect x="40" y="40" width="1120" height="550" fill="none" stroke="url(#goldGradient)" stroke-width="3" rx="12" filter="url(#softGlow)"/>

  <!-- Icon circle with premium background -->
  <circle cx="150" cy="200" r="75" fill="#CFAE58" opacity="0.15" filter="url(#softGlow)"/>
  <circle cx="150" cy="200" r="70" fill="#CFAE58" opacity="0.25"/>
  <text x="150" y="235" font-size="90" text-anchor="middle" fill="#CFAE58" filter="url(#glow)">✓</text>

  <!-- Premium logo (crown) with enhanced styling -->
  <g transform="translate(100, 70)">
    <path d="M 30 20 L 40 35 L 35 35 Z M 50 15 L 60 35 L 45 35 Z M 65 20 L 75 35 L 70 35 Z M 30 35 L 75 35 L 73 45 L 32 45 Z"
          fill="url(#goldGradient)" filter="url(#glow)" stroke="#B89842" stroke-width="0.5"/>
    <circle cx="40" cy="25" r="3" fill="#4FD1C5" filter="url(#glow)"/>
    <circle cx="52" cy="20" r="4" fill="#4FD1C5" filter="url(#glow)"/>
    <circle cx="65" cy="25" r="3" fill="#4FD1C5" filter="url(#glow)"/>
  </g>

  <!-- Title with shadow -->
  <text x="280" y="180" font-family="Georgia, serif" font-size="72" font-weight="bold"
        fill="url(#goldGradient)" filter="url(#shadow)">Mercury eVSD System</text>

  <!-- Subtitle with subtle glow -->
  <text x="280" y="230" font-family="Arial, sans-serif" font-size="36"
        fill="#D6DEE6" opacity="0.95" filter="url(#softGlow)">Electronic Veterinary Certification</text>

  <!-- Brand name with letter spacing -->
  <text x="280" y="300" font-family="Georgia, serif" font-size="32" font-weight="bold"
        fill="#CFAE58" letter-spacing="4" filter="url(#glow)">ROYAL KETA</text>

  <!-- Russian tagline -->
  <text x="280" y="340" font-family="Arial, sans-serif" font-size="22" font-style="italic"
        fill="#8B95A1" opacity="0.8">От икринки к королевской</text>

  <!-- Location -->
  <text x="280" y="380" font-family="Arial, sans-serif" font-size="20"
        fill="#8B95A1" opacity="0.7">Невельский район, Сахалин</text>

  <!-- Website with glow -->
  <text x="100" y="570" font-family="Arial, sans-serif" font-size="30" font-weight="bold"
        fill="#4FD1C5" filter="url(#glow)">royalketa.com</text>

  <!-- Enhanced decorative salmon silhouette -->
  <g transform="translate(950, 480)" opacity="0.2" filter="url(#softGlow)">
    <ellipse cx="0" cy="0" rx="90" ry="35" fill="#CFAE58"/>
    <path d="M 90 0 L 120 -18 L 130 0 L 120 18 Z" fill="#CFAE58"/>
    <path d="M -25 -35 L 0 -45 L 25 -35 Z" fill="#CFAE58"/>
    <ellipse cx="-50" cy="0" rx="15" ry="12" fill="#0B0F14"/>
  </g>

  <!-- Additional decorative caviar clusters -->
  <g opacity="0.2">
    <circle cx="1050" cy="120" r="6" fill="#CFAE58"/>
    <circle cx="1065" cy="115" r="5" fill="#CFAE58"/>
    <circle cx="1058" cy="130" r="4" fill="#CFAE58"/>
    <circle cx="150" cy="500" r="5" fill="#4FD1C5"/>
    <circle cx="165" cy="508" r="4" fill="#4FD1C5"/>
    <circle cx="140" cy="512" r="5" fill="#4FD1C5"/>
  </g>
</svg>