<svg width="1200" height="630" xmlns="http://www.w3.org/2000/svg">
  <defs>
    <linearGradient id="bgGradient" x1="0%" y1="0%" x2="100%" y2="100%">
      <stop offset="0%" style="stop-color:#0B0F14;stop-opacity:1" />
      <stop offset="50%" style="stop-color:#0F1619;stop-opacity:1" />
      <stop offset="100%" style="stop-color:#0F1922;stop-opacity:1" />
    </linearGradient>
    <linearGradient id="goldGradient" x1="0%" y1="0%" x2="100%" y2="0%">
      <stop offset="0%" style="stop-color:#E5D596;stop-opacity:1" />
      <stop offset="50%" style="stop-color:#CFAE58;stop-opacity:1" />
      <stop offset="100%" style="stop-color:#B89842;stop-opacity:1" />
    </linearGradient>
    <radialGradient id="oceanGradient" cx="50%" cy="50%" r="50%">
      <stop offset="0%" style="stop-color:#4FD1C5;stop-opacity:0.3" />
      <stop offset="100%" style="stop-color:#1E90A0;stop-opacity:0.05" />
    </radialGradient>
    <filter id="glow">
      <feGaussianBlur stdDeviation="5" result="coloredBlur"/>
      <feMerge>
        <feMergeNode in="coloredBlur"/>
        <feMergeNode in="SourceGraphic"/>
      </feMerge>
    </filter>
    <filter id="softGlow">
      <feGaussianBlur stdDeviation="8" result="coloredBlur"/>
      <feMerge>
        <feMergeNode in="coloredBlur"/>
        <feMergeNode in="SourceGraphic"/>
      </feMerge>
    </filter>
    <filter id="shadow">
      <feDropShadow dx="0" dy="4" stdDeviation="8" flood-color="#000000" flood-opacity="0.5"/>
    </filter>
  </defs>

  <!-- Background -->
  <rect width="1200" height="630" fill="url(#bgGradient)"/>

  <!-- Decorative ocean gradients -->
  <ellipse cx="1000" cy="150" rx="300" ry="200" fill="url(#oceanGradient)" opacity="0.4"/>
  <ellipse cx="200" cy="530" rx="250" ry="180" fill="url(#oceanGradient)" opacity="0.3"/>

  <!-- Wave patterns -->
  <path d="M 0 400 Q 300 350 600 400 T 1200 400 L 1200 630 L 0 630 Z" fill="#1E90A0" opacity="0.08"/>
  <path d="M 0 450 Q 250 420 500 450 T 1000 450 T 1200 450 L 1200 630 L 0 630 Z" fill="#4FD1C5" opacity="0.05"/>

  <!-- Caviar roe particles -->
  <circle cx="763.1983990978254" cy="399.73668671756366" r="5.530806961052553" fill="#CFAE58" opacity="0.10293779270154754"/>
  <circle cx="332.1828794582227" cy="110.44669434715196" r="4.514834781758711" fill="#CFAE58" opacity="0.13905612482064772"/>
  <circle cx="1004.5511060019579" cy="8.671529608061476" r="3.739126076036451" fill="#CFAE58" opacity="0.18529750090189678"/>
  <circle cx="857.7076838225821" cy="37.876955099922284" r="3.7974947888003383" fill="#CFAE58" opacity="0.2045072997601513"/>
  <circle cx="204.766690915858" cy="450.9922701086589" r="4.62285434303924" fill="#CFAE58" opacity="0.1993811676983312"/>
  <circle cx="272.6885611707507" cy="127.27981255400958" r="4.389972003885839" fill="#CFAE58" opacity="0.15692369563633385"/>
  <circle cx="16.828962937401748" cy="165.7019583470009" r="3.7731252642761786" fill="#CFAE58" opacity="0.1835773420904015"/>
  <circle cx="295.5353383916076" cy="325.9466365052478" r="2.583387669473873" fill="#CFAE58" opacity="0.22183126984970342"/>
  <circle cx="158.0032529652933" cy="237.7852739522979" r="5.890150416313004" fill="#CFAE58" opacity="0.13969059334053835"/>
  <circle cx="916.129513201834" cy="130.9623632241846" r="3.516494079098652" fill="#CFAE58" opacity="0.1594869111953629"/>
  <circle cx="1085.5235892028772" cy="624.2958264774222" r="5.169519813527294" fill="#CFAE58" opacity="0.222727976414338"/>
  <circle cx="1045.5467846033914" cy="181.69295625538598" r="4.7311345191175755" fill="#CFAE58" opacity="0.1490349418968025"/>
  <circle cx="969.4196036073308" cy="522.1714854736441" r="2.792504862593429" fill="#CFAE58" opacity="0.19283208499963833"/>
  <circle cx="487.6527455837111" cy="339.70238759847615" r="4.10078734988038" fill="#CFAE58" opacity="0.1498538139347779"/>
  <circle cx="1041.9087483321598" cy="429.4455460398295" r="5.940667414957687" fill="#CFAE58" opacity="0.19417441389840612"/>
  <circle cx="838.9125726129233" cy="218.02520563262797" r="2.829873978067264" fill="#CFAE58" opacity="0.1504990798191623"/>
  <circle cx="1014.7223826413759" cy="181.71753686102417" r="3.4947895072731208" fill="#CFAE58" opacity="0.20984299795528555"/>
  <circle cx="725.7255781785244" cy="152.85608626282337" r="4.673625021840925" fill="#CFAE58" opacity="0.21223555504452085"/>
  <circle cx="1144.6095768787181" cy="604.912131860513" r="5.194971467562081" fill="#CFAE58" opacity="0.10600636368302405"/>
  <circle cx="722.6366557610136" cy="517.135378496836" r="4.0031651411650735" fill="#CFAE58" opacity="0.18348064174042042"/>
  <circle cx="785.6487269397446" cy="610.1768561009013" r="2.451721333914477" fill="#CFAE58" opacity="0.17931412618607728"/>
  <circle cx="1186.6974450329346" cy="293.6330762314824" r="3.2872852535977093" fill="#CFAE58" opacity="0.2386890671336659"/>
  <circle cx="810.4877573726583" cy="443.2000602737961" r="3.5805828531099277" fill="#CFAE58" opacity="0.17946271905764055"/>
  <circle cx="367.1965134566715" cy="468.3400683583883" r="3.465864028391445" fill="#CFAE58" opacity="0.20571230072253224"/>
  <circle cx="456.7169000376289" cy="599.0108090113034" r="2.514535760339101" fill="#CFAE58" opacity="0.19666603446132175"/>
  <circle cx="446.2414535610217" cy="314.3122560891456" r="3.397279012772574" fill="#CFAE58" opacity="0.10504743780114813"/>
  <circle cx="680.6426171772486" cy="414.216696378174" r="3.7733408363661143" fill="#CFAE58" opacity="0.1175435382552464"/>
  <circle cx="900.8525382498647" cy="102.65566724253739" r="3.5556214043717027" fill="#CFAE58" opacity="0.13560028907258231"/>
  <circle cx="345.7929737142861" cy="208.193835347345" r="5.441781403698352" fill="#CFAE58" opacity="0.18240346939938756"/>
  <circle cx="790.7968955011725" cy="589.8353637900015" r="2.943969479645919" fill="#CFAE58" opacity="0.15368651508061748"/>

  <!-- Border with glow -->
  <rect x="40" y="40" width="1120" height="550" fill="none" stroke="url(#goldGradient)" stroke-width="3" rx="12" filter="url(#softGlow)"/>

  <!-- Icon circle with premium background -->
  <circle cx="150" cy="200" r="75" fill="#CFAE58" opacity="0.15" filter="url(#softGlow)"/>
  <circle cx="150" cy="200" r="70" fill="#CFAE58" opacity="0.25"/>
  <text x="150" y="235" font-size="90" text-anchor="middle" fill="#CFAE58" filter="url(#glow)">✓</text>

  <!-- Premium logo (crown) with enhanced styling -->
  <g transform="translate(100, 70)">
    <path d="M 30 20 L 40 35 L 35 35 Z M 50 15 L 60 35 L 45 35 Z M 65 20 L 75 35 L 70 35 Z M 30 35 L 75 35 L 73 45 L 32 45 Z"
          fill="url(#goldGradient)" filter="url(#glow)" stroke="#B89842" stroke-width="0.5"/>
    <circle cx="40" cy="25" r="3" fill="#4FD1C5" filter="url(#glow)"/>
    <circle cx="52" cy="20" r="4" fill="#4FD1C5" filter="url(#glow)"/>
    <circle cx="65" cy="25" r="3" fill="#4FD1C5" filter="url(#glow)"/>
  </g>

  <!-- Title with shadow -->
  <text x="280" y="180" font-family="Georgia, serif" font-size="72" font-weight="bold"
        fill="url(#goldGradient)" filter="url(#shadow)">Mercury eVSD System</text>

  <!-- Subtitle with subtle glow -->
  <text x="280" y="230" font-family="Arial, sans-serif" font-size="36"
        fill="#D6DEE6" opacity="0.95" filter="url(#softGlow)">Electronic Veterinary Certification</text>

  <!-- Brand name with letter spacing -->
  <text x="280" y="300" font-family="Georgia, serif" font-size="32" font-weight="bold"
        fill="#CFAE58" letter-spacing="4" filter="url(#glow)">ROYAL KETA</text>

  <!-- Russian tagline -->
  <text x="280" y="340" font-family="Arial, sans-serif" font-size="22" font-style="italic"
        fill="#8B95A1" opacity="0.8">От икринки к королевской</text>

  <!-- Location -->
  <text x="280" y="380" font-family="Arial, sans-serif" font-size="20"
        fill="#8B95A1" opacity="0.7">Невельский район, Сахалин</text>

  <!-- Website with glow -->
  <text x="100" y="570" font-family="Arial, sans-serif" font-size="30" font-weight="bold"
        fill="#4FD1C5" filter="url(#glow)">royalketa.com</text>

  <!-- Enhanced decorative salmon silhouette -->
  <g transform="translate(950, 480)" opacity="0.2" filter="url(#softGlow)">
    <ellipse cx="0" cy="0" rx="90" ry="35" fill="#CFAE58"/>
    <path d="M 90 0 L 120 -18 L 130 0 L 120 18 Z" fill="#CFAE58"/>
    <path d="M -25 -35 L 0 -45 L 25 -35 Z" fill="#CFAE58"/>
    <ellipse cx="-50" cy="0" rx="15" ry="12" fill="#0B0F14"/>
  </g>

  <!-- Additional decorative caviar clusters -->
  <g opacity="0.2">
    <circle cx="1050" cy="120" r="6" fill="#CFAE58"/>
    <circle cx="1065" cy="115" r="5" fill="#CFAE58"/>
    <circle cx="1058" cy="130" r="4" fill="#CFAE58"/>
    <circle cx="150" cy="500" r="5" fill="#4FD1C5"/>
    <circle cx="165" cy="508" r="4" fill="#4FD1C5"/>
    <circle cx="140" cy="512" r="5" fill="#4FD1C5"/>
  </g>
</svg>