<svg width="1200" height="630" xmlns="http://www.w3.org/2000/svg">
  <defs>
    <linearGradient id="bgGradient" x1="0%" y1="0%" x2="100%" y2="100%">
      <stop offset="0%" style="stop-color:#0B0F14;stop-opacity:1" />
      <stop offset="50%" style="stop-color:#0F1619;stop-opacity:1" />
      <stop offset="100%" style="stop-color:#0F1922;stop-opacity:1" />
    </linearGradient>
    <linearGradient id="goldGradient" x1="0%" y1="0%" x2="100%" y2="0%">
      <stop offset="0%" style="stop-color:#E5D596;stop-opacity:1" />
      <stop offset="50%" style="stop-color:#CFAE58;stop-opacity:1" />
      <stop offset="100%" style="stop-color:#B89842;stop-opacity:1" />
    </linearGradient>
    <radialGradient id="oceanGradient" cx="50%" cy="50%" r="50%">
      <stop offset="0%" style="stop-color:#4FD1C5;stop-opacity:0.3" />
      <stop offset="100%" style="stop-color:#1E90A0;stop-opacity:0.05" />
    </radialGradient>
    <filter id="glow">
      <feGaussianBlur stdDeviation="5" result="coloredBlur"/>
      <feMerge>
        <feMergeNode in="coloredBlur"/>
        <feMergeNode in="SourceGraphic"/>
      </feMerge>
    </filter>
    <filter id="softGlow">
      <feGaussianBlur stdDeviation="8" result="coloredBlur"/>
      <feMerge>
        <feMergeNode in="coloredBlur"/>
        <feMergeNode in="SourceGraphic"/>
      </feMerge>
    </filter>
    <filter id="shadow">
      <feDropShadow dx="0" dy="4" stdDeviation="8" flood-color="#000000" flood-opacity="0.5"/>
    </filter>
  </defs>

  <!-- Background -->
  <rect width="1200" height="630" fill="url(#bgGradient)"/>

  <!-- Decorative ocean gradients -->
  <ellipse cx="1000" cy="150" rx="300" ry="200" fill="url(#oceanGradient)" opacity="0.4"/>
  <ellipse cx="200" cy="530" rx="250" ry="180" fill="url(#oceanGradient)" opacity="0.3"/>

  <!-- Wave patterns -->
  <path d="M 0 400 Q 300 350 600 400 T 1200 400 L 1200 630 L 0 630 Z" fill="#1E90A0" opacity="0.08"/>
  <path d="M 0 450 Q 250 420 500 450 T 1000 450 T 1200 450 L 1200 630 L 0 630 Z" fill="#4FD1C5" opacity="0.05"/>

  <!-- Caviar roe particles -->
  <circle cx="12.391110662604854" cy="212.14783818212229" r="2.4970480415500966" fill="#CFAE58" opacity="0.2115327233192561"/>
  <circle cx="549.7844455045953" cy="526.1619348489464" r="4.7478461551608575" fill="#CFAE58" opacity="0.19753293146381032"/>
  <circle cx="1079.2762664640961" cy="591.6596547899131" r="2.5408841162620135" fill="#CFAE58" opacity="0.14409822703151953"/>
  <circle cx="1174.8070587382458" cy="251.14396231270672" r="3.375946411184239" fill="#CFAE58" opacity="0.1915919596092569"/>
  <circle cx="886.4964685874457" cy="96.74831093229491" r="3.828141658208723" fill="#CFAE58" opacity="0.11661266037536941"/>
  <circle cx="414.66381913440557" cy="505.8753786948585" r="4.494958419970421" fill="#CFAE58" opacity="0.12001611776963815"/>
  <circle cx="107.25612681170622" cy="120.20036579903996" r="2.6108555815747048" fill="#CFAE58" opacity="0.17603908037117588"/>
  <circle cx="581.4596922164511" cy="159.90143724060636" r="2.6705060416948223" fill="#CFAE58" opacity="0.12865949908571558"/>
  <circle cx="225.50485102884537" cy="252.64168523458264" r="2.344510199028586" fill="#CFAE58" opacity="0.23757567888355435"/>
  <circle cx="127.7028903233326" cy="581.8210438304573" r="4.782032618988664" fill="#CFAE58" opacity="0.15888683015096616"/>
  <circle cx="428.5219508624441" cy="203.69540675741794" r="3.260608362061012" fill="#CFAE58" opacity="0.2100750278009026"/>
  <circle cx="988.6453950370209" cy="595.7193543667955" r="3.460485692137865" fill="#CFAE58" opacity="0.1690274152896704"/>
  <circle cx="162.004858008684" cy="45.73547146902424" r="2.2950168307547987" fill="#CFAE58" opacity="0.1999122262191509"/>
  <circle cx="734.2279162879202" cy="281.9641422139126" r="4.112777905585832" fill="#CFAE58" opacity="0.16506476886714228"/>
  <circle cx="849.7378871678906" cy="106.71642342247563" r="2.8647545152516343" fill="#CFAE58" opacity="0.21063871911096255"/>
  <circle cx="693.3795111517536" cy="118.51831751604166" r="2.0672152779170196" fill="#CFAE58" opacity="0.24229817586566413"/>
  <circle cx="724.4361617916667" cy="9.010368121816065" r="3.6153173414315436" fill="#CFAE58" opacity="0.11026689633514616"/>
  <circle cx="420.93518031261027" cy="587.0968390238353" r="3.7879976130971342" fill="#CFAE58" opacity="0.24972504476151697"/>
  <circle cx="1099.308643916424" cy="136.09981232053215" r="2.763986075620486" fill="#CFAE58" opacity="0.10861133996659156"/>
  <circle cx="110.4089017142714" cy="451.9961189783833" r="4.272446724188152" fill="#CFAE58" opacity="0.1037894271803611"/>
  <circle cx="294.7059149539739" cy="133.6211450852846" r="4.25127916132488" fill="#CFAE58" opacity="0.21088754725956782"/>
  <circle cx="466.6663609328662" cy="341.5263745617651" r="3.435595845177199" fill="#CFAE58" opacity="0.2487395794825592"/>
  <circle cx="187.6987775040078" cy="283.1409419359989" r="2.203402202602927" fill="#CFAE58" opacity="0.20007652338393878"/>
  <circle cx="175.7973445291253" cy="65.68795432053788" r="3.0380351494451157" fill="#CFAE58" opacity="0.1430992019349278"/>
  <circle cx="1121.3374462935712" cy="168.18751078391122" r="3.357026095923468" fill="#CFAE58" opacity="0.18615274141965843"/>
  <circle cx="82.62402961491611" cy="15.81761559783381" r="2.9819355776213308" fill="#CFAE58" opacity="0.11670335188083521"/>
  <circle cx="329.38648096140895" cy="532.5538827753842" r="2.635727268733135" fill="#CFAE58" opacity="0.19066993741766908"/>
  <circle cx="488.34054743972894" cy="14.970123977970939" r="5.9293845095934445" fill="#CFAE58" opacity="0.2286065068614022"/>
  <circle cx="551.381111322888" cy="100.00003349629092" r="3.4771862095831" fill="#CFAE58" opacity="0.12496420196500113"/>
  <circle cx="31.106965263902087" cy="628.1741858063308" r="3.901142836176534" fill="#CFAE58" opacity="0.10251032430572464"/>

  <!-- Border with glow -->
  <rect x="40" y="40" width="1120" height="550" fill="none" stroke="url(#goldGradient)" stroke-width="3" rx="12" filter="url(#softGlow)"/>

  <!-- Icon circle with premium background -->
  <circle cx="150" cy="200" r="75" fill="#CFAE58" opacity="0.15" filter="url(#softGlow)"/>
  <circle cx="150" cy="200" r="70" fill="#CFAE58" opacity="0.25"/>
  <text x="150" y="235" font-size="90" text-anchor="middle" fill="#CFAE58" filter="url(#glow)">✓</text>

  <!-- Premium logo (crown) with enhanced styling -->
  <g transform="translate(100, 70)">
    <path d="M 30 20 L 40 35 L 35 35 Z M 50 15 L 60 35 L 45 35 Z M 65 20 L 75 35 L 70 35 Z M 30 35 L 75 35 L 73 45 L 32 45 Z"
          fill="url(#goldGradient)" filter="url(#glow)" stroke="#B89842" stroke-width="0.5"/>
    <circle cx="40" cy="25" r="3" fill="#4FD1C5" filter="url(#glow)"/>
    <circle cx="52" cy="20" r="4" fill="#4FD1C5" filter="url(#glow)"/>
    <circle cx="65" cy="25" r="3" fill="#4FD1C5" filter="url(#glow)"/>
  </g>

  <!-- Title with shadow -->
  <text x="280" y="180" font-family="Georgia, serif" font-size="72" font-weight="bold"
        fill="url(#goldGradient)" filter="url(#shadow)">Mercury eVSD System</text>

  <!-- Subtitle with subtle glow -->
  <text x="280" y="230" font-family="Arial, sans-serif" font-size="36"
        fill="#D6DEE6" opacity="0.95" filter="url(#softGlow)">Electronic Veterinary Certification</text>

  <!-- Brand name with letter spacing -->
  <text x="280" y="300" font-family="Georgia, serif" font-size="32" font-weight="bold"
        fill="#CFAE58" letter-spacing="4" filter="url(#glow)">ROYAL KETA</text>

  <!-- Russian tagline -->
  <text x="280" y="340" font-family="Arial, sans-serif" font-size="22" font-style="italic"
        fill="#8B95A1" opacity="0.8">От икринки к королевской</text>

  <!-- Location -->
  <text x="280" y="380" font-family="Arial, sans-serif" font-size="20"
        fill="#8B95A1" opacity="0.7">Невельский район, Сахалин</text>

  <!-- Website with glow -->
  <text x="100" y="570" font-family="Arial, sans-serif" font-size="30" font-weight="bold"
        fill="#4FD1C5" filter="url(#glow)">royalketa.com</text>

  <!-- Enhanced decorative salmon silhouette -->
  <g transform="translate(950, 480)" opacity="0.2" filter="url(#softGlow)">
    <ellipse cx="0" cy="0" rx="90" ry="35" fill="#CFAE58"/>
    <path d="M 90 0 L 120 -18 L 130 0 L 120 18 Z" fill="#CFAE58"/>
    <path d="M -25 -35 L 0 -45 L 25 -35 Z" fill="#CFAE58"/>
    <ellipse cx="-50" cy="0" rx="15" ry="12" fill="#0B0F14"/>
  </g>

  <!-- Additional decorative caviar clusters -->
  <g opacity="0.2">
    <circle cx="1050" cy="120" r="6" fill="#CFAE58"/>
    <circle cx="1065" cy="115" r="5" fill="#CFAE58"/>
    <circle cx="1058" cy="130" r="4" fill="#CFAE58"/>
    <circle cx="150" cy="500" r="5" fill="#4FD1C5"/>
    <circle cx="165" cy="508" r="4" fill="#4FD1C5"/>
    <circle cx="140" cy="512" r="5" fill="#4FD1C5"/>
  </g>
</svg>