<svg width="1200" height="630" xmlns="http://www.w3.org/2000/svg">
  <defs>
    <linearGradient id="bgGradient" x1="0%" y1="0%" x2="100%" y2="100%">
      <stop offset="0%" style="stop-color:#0B0F14;stop-opacity:1" />
      <stop offset="50%" style="stop-color:#0F1619;stop-opacity:1" />
      <stop offset="100%" style="stop-color:#0F1922;stop-opacity:1" />
    </linearGradient>
    <linearGradient id="goldGradient" x1="0%" y1="0%" x2="100%" y2="0%">
      <stop offset="0%" style="stop-color:#E5D596;stop-opacity:1" />
      <stop offset="50%" style="stop-color:#CFAE58;stop-opacity:1" />
      <stop offset="100%" style="stop-color:#B89842;stop-opacity:1" />
    </linearGradient>
    <radialGradient id="oceanGradient" cx="50%" cy="50%" r="50%">
      <stop offset="0%" style="stop-color:#4FD1C5;stop-opacity:0.3" />
      <stop offset="100%" style="stop-color:#1E90A0;stop-opacity:0.05" />
    </radialGradient>
    <filter id="glow">
      <feGaussianBlur stdDeviation="5" result="coloredBlur"/>
      <feMerge>
        <feMergeNode in="coloredBlur"/>
        <feMergeNode in="SourceGraphic"/>
      </feMerge>
    </filter>
    <filter id="softGlow">
      <feGaussianBlur stdDeviation="8" result="coloredBlur"/>
      <feMerge>
        <feMergeNode in="coloredBlur"/>
        <feMergeNode in="SourceGraphic"/>
      </feMerge>
    </filter>
    <filter id="shadow">
      <feDropShadow dx="0" dy="4" stdDeviation="8" flood-color="#000000" flood-opacity="0.5"/>
    </filter>
  </defs>

  <!-- Background -->
  <rect width="1200" height="630" fill="url(#bgGradient)"/>

  <!-- Decorative ocean gradients -->
  <ellipse cx="1000" cy="150" rx="300" ry="200" fill="url(#oceanGradient)" opacity="0.4"/>
  <ellipse cx="200" cy="530" rx="250" ry="180" fill="url(#oceanGradient)" opacity="0.3"/>

  <!-- Wave patterns -->
  <path d="M 0 400 Q 300 350 600 400 T 1200 400 L 1200 630 L 0 630 Z" fill="#1E90A0" opacity="0.08"/>
  <path d="M 0 450 Q 250 420 500 450 T 1000 450 T 1200 450 L 1200 630 L 0 630 Z" fill="#4FD1C5" opacity="0.05"/>

  <!-- Caviar roe particles -->
  <circle cx="491.9645271615149" cy="204.32972920775356" r="3.9558369048816875" fill="#CFAE58" opacity="0.2004208598253729"/>
  <circle cx="965.0469457822571" cy="530.1073787021473" r="3.7594472953499842" fill="#CFAE58" opacity="0.20559300918369605"/>
  <circle cx="575.1423944455092" cy="622.3138659012222" r="4.770351989421737" fill="#CFAE58" opacity="0.11171968609632286"/>
  <circle cx="1016.5448413616432" cy="510.4336463381887" r="3.1520644986126642" fill="#CFAE58" opacity="0.13925104915439193"/>
  <circle cx="1167.682449350969" cy="437.21805398161126" r="5.111148625029403" fill="#CFAE58" opacity="0.12810662416241544"/>
  <circle cx="911.8635414693997" cy="108.82857390144522" r="2.9638327715228776" fill="#CFAE58" opacity="0.24790183179923475"/>
  <circle cx="298.55990323656" cy="132.28470035142024" r="5.806649673392224" fill="#CFAE58" opacity="0.10677085765161096"/>
  <circle cx="1077.026240860018" cy="473.8886470002024" r="4.9438140861815265" fill="#CFAE58" opacity="0.12776784288566062"/>
  <circle cx="450.90765238282955" cy="58.304222672954026" r="3.1766472995406305" fill="#CFAE58" opacity="0.24881202511241143"/>
  <circle cx="746.958612987095" cy="47.993421364962465" r="2.36527185835956" fill="#CFAE58" opacity="0.20237470862998236"/>
  <circle cx="1131.203596595664" cy="244.0757059511699" r="4.7705751120633275" fill="#CFAE58" opacity="0.1892908505707912"/>
  <circle cx="1111.6791867293716" cy="544.1904752808629" r="4.71456223297252" fill="#CFAE58" opacity="0.16597590446572147"/>
  <circle cx="175.78439300951558" cy="562.1375676057369" r="2.162454984219715" fill="#CFAE58" opacity="0.11461340721997938"/>
  <circle cx="858.5912200147601" cy="371.61855219888133" r="2.049261635258781" fill="#CFAE58" opacity="0.18110844704486423"/>
  <circle cx="919.924636024368" cy="569.8402365978321" r="2.2403527138238895" fill="#CFAE58" opacity="0.2323541587955902"/>
  <circle cx="145.19847956142496" cy="210.12819880571092" r="2.6391350691910036" fill="#CFAE58" opacity="0.1995836406325256"/>
  <circle cx="255.59944936980958" cy="478.3218691694831" r="3.359874553650374" fill="#CFAE58" opacity="0.11113612994064297"/>
  <circle cx="523.2080226342654" cy="603.364567621069" r="3.229397691998245" fill="#CFAE58" opacity="0.2220025018583297"/>
  <circle cx="263.6347748203316" cy="571.9295955953992" r="2.1810249608191983" fill="#CFAE58" opacity="0.17404044179814318"/>
  <circle cx="352.9900423358018" cy="315.679499658448" r="3.994606831435699" fill="#CFAE58" opacity="0.11700280701492732"/>
  <circle cx="92.53384235484896" cy="58.77321510046796" r="2.891479606409078" fill="#CFAE58" opacity="0.23290729757170536"/>
  <circle cx="481.3135728917184" cy="559.1393296997238" r="4.767442801087587" fill="#CFAE58" opacity="0.1589635589067526"/>
  <circle cx="723.4388797980757" cy="447.5526887128752" r="5.507492452768203" fill="#CFAE58" opacity="0.14270971025747042"/>
  <circle cx="20.79129346335513" cy="115.05899571035998" r="2.901232754838386" fill="#CFAE58" opacity="0.19938436888227512"/>
  <circle cx="451.96479876934063" cy="471.35781069020464" r="2.002278267925232" fill="#CFAE58" opacity="0.18684635466958371"/>
  <circle cx="261.2947424923661" cy="59.72915913641403" r="4.617396132031241" fill="#CFAE58" opacity="0.2249672546870224"/>
  <circle cx="1005.1748719087968" cy="507.81144923991934" r="4.707274298105789" fill="#CFAE58" opacity="0.19773391674992258"/>
  <circle cx="423.1361846225552" cy="409.44421097285743" r="5.68574671405986" fill="#CFAE58" opacity="0.22314035219620154"/>
  <circle cx="254.78726303249894" cy="130.83687605666378" r="2.427042052413362" fill="#CFAE58" opacity="0.22445642906928712"/>
  <circle cx="197.60182783792538" cy="329.0176469115305" r="2.5359127779498687" fill="#CFAE58" opacity="0.186726388986421"/>

  <!-- Border with glow -->
  <rect x="40" y="40" width="1120" height="550" fill="none" stroke="url(#goldGradient)" stroke-width="3" rx="12" filter="url(#softGlow)"/>

  <!-- Icon circle with premium background -->
  <circle cx="150" cy="200" r="75" fill="#CFAE58" opacity="0.15" filter="url(#softGlow)"/>
  <circle cx="150" cy="200" r="70" fill="#CFAE58" opacity="0.25"/>
  <text x="150" y="235" font-size="90" text-anchor="middle" fill="#CFAE58" filter="url(#glow)">✓</text>

  <!-- Premium logo (crown) with enhanced styling -->
  <g transform="translate(100, 70)">
    <path d="M 30 20 L 40 35 L 35 35 Z M 50 15 L 60 35 L 45 35 Z M 65 20 L 75 35 L 70 35 Z M 30 35 L 75 35 L 73 45 L 32 45 Z"
          fill="url(#goldGradient)" filter="url(#glow)" stroke="#B89842" stroke-width="0.5"/>
    <circle cx="40" cy="25" r="3" fill="#4FD1C5" filter="url(#glow)"/>
    <circle cx="52" cy="20" r="4" fill="#4FD1C5" filter="url(#glow)"/>
    <circle cx="65" cy="25" r="3" fill="#4FD1C5" filter="url(#glow)"/>
  </g>

  <!-- Title with shadow -->
  <text x="280" y="180" font-family="Georgia, serif" font-size="72" font-weight="bold"
        fill="url(#goldGradient)" filter="url(#shadow)">Mercury eVSD System</text>

  <!-- Subtitle with subtle glow -->
  <text x="280" y="230" font-family="Arial, sans-serif" font-size="36"
        fill="#D6DEE6" opacity="0.95" filter="url(#softGlow)">Electronic Veterinary Certification</text>

  <!-- Brand name with letter spacing -->
  <text x="280" y="300" font-family="Georgia, serif" font-size="32" font-weight="bold"
        fill="#CFAE58" letter-spacing="4" filter="url(#glow)">ROYAL KETA</text>

  <!-- Russian tagline -->
  <text x="280" y="340" font-family="Arial, sans-serif" font-size="22" font-style="italic"
        fill="#8B95A1" opacity="0.8">От икринки к королевской</text>

  <!-- Location -->
  <text x="280" y="380" font-family="Arial, sans-serif" font-size="20"
        fill="#8B95A1" opacity="0.7">Невельский район, Сахалин</text>

  <!-- Website with glow -->
  <text x="100" y="570" font-family="Arial, sans-serif" font-size="30" font-weight="bold"
        fill="#4FD1C5" filter="url(#glow)">royalketa.com</text>

  <!-- Enhanced decorative salmon silhouette -->
  <g transform="translate(950, 480)" opacity="0.2" filter="url(#softGlow)">
    <ellipse cx="0" cy="0" rx="90" ry="35" fill="#CFAE58"/>
    <path d="M 90 0 L 120 -18 L 130 0 L 120 18 Z" fill="#CFAE58"/>
    <path d="M -25 -35 L 0 -45 L 25 -35 Z" fill="#CFAE58"/>
    <ellipse cx="-50" cy="0" rx="15" ry="12" fill="#0B0F14"/>
  </g>

  <!-- Additional decorative caviar clusters -->
  <g opacity="0.2">
    <circle cx="1050" cy="120" r="6" fill="#CFAE58"/>
    <circle cx="1065" cy="115" r="5" fill="#CFAE58"/>
    <circle cx="1058" cy="130" r="4" fill="#CFAE58"/>
    <circle cx="150" cy="500" r="5" fill="#4FD1C5"/>
    <circle cx="165" cy="508" r="4" fill="#4FD1C5"/>
    <circle cx="140" cy="512" r="5" fill="#4FD1C5"/>
  </g>
</svg>