<svg width="1200" height="630" xmlns="http://www.w3.org/2000/svg">
  <defs>
    <linearGradient id="bgGradient" x1="0%" y1="0%" x2="100%" y2="100%">
      <stop offset="0%" style="stop-color:#0B0F14;stop-opacity:1" />
      <stop offset="50%" style="stop-color:#0F1619;stop-opacity:1" />
      <stop offset="100%" style="stop-color:#0F1922;stop-opacity:1" />
    </linearGradient>
    <linearGradient id="goldGradient" x1="0%" y1="0%" x2="100%" y2="0%">
      <stop offset="0%" style="stop-color:#E5D596;stop-opacity:1" />
      <stop offset="50%" style="stop-color:#CFAE58;stop-opacity:1" />
      <stop offset="100%" style="stop-color:#B89842;stop-opacity:1" />
    </linearGradient>
    <radialGradient id="oceanGradient" cx="50%" cy="50%" r="50%">
      <stop offset="0%" style="stop-color:#4FD1C5;stop-opacity:0.3" />
      <stop offset="100%" style="stop-color:#1E90A0;stop-opacity:0.05" />
    </radialGradient>
    <filter id="glow">
      <feGaussianBlur stdDeviation="5" result="coloredBlur"/>
      <feMerge>
        <feMergeNode in="coloredBlur"/>
        <feMergeNode in="SourceGraphic"/>
      </feMerge>
    </filter>
    <filter id="softGlow">
      <feGaussianBlur stdDeviation="8" result="coloredBlur"/>
      <feMerge>
        <feMergeNode in="coloredBlur"/>
        <feMergeNode in="SourceGraphic"/>
      </feMerge>
    </filter>
    <filter id="shadow">
      <feDropShadow dx="0" dy="4" stdDeviation="8" flood-color="#000000" flood-opacity="0.5"/>
    </filter>
  </defs>

  <!-- Background -->
  <rect width="1200" height="630" fill="url(#bgGradient)"/>

  <!-- Decorative ocean gradients -->
  <ellipse cx="1000" cy="150" rx="300" ry="200" fill="url(#oceanGradient)" opacity="0.4"/>
  <ellipse cx="200" cy="530" rx="250" ry="180" fill="url(#oceanGradient)" opacity="0.3"/>

  <!-- Wave patterns -->
  <path d="M 0 400 Q 300 350 600 400 T 1200 400 L 1200 630 L 0 630 Z" fill="#1E90A0" opacity="0.08"/>
  <path d="M 0 450 Q 250 420 500 450 T 1000 450 T 1200 450 L 1200 630 L 0 630 Z" fill="#4FD1C5" opacity="0.05"/>

  <!-- Caviar roe particles -->
  <circle cx="404.5772499710061" cy="350.79937135738777" r="2.684805845965101" fill="#CFAE58" opacity="0.23032411005396494"/>
  <circle cx="70.29432986712476" cy="16.721940941727674" r="3.9762375174189137" fill="#CFAE58" opacity="0.24476430227262125"/>
  <circle cx="1001.4771026368215" cy="434.82076756417763" r="5.238817532303882" fill="#CFAE58" opacity="0.10999227345158863"/>
  <circle cx="1133.4175852446685" cy="366.92207575748034" r="2.045412730852837" fill="#CFAE58" opacity="0.12634080762647243"/>
  <circle cx="329.401217597124" cy="417.49102951029306" r="2.161833714192348" fill="#CFAE58" opacity="0.21322157476836678"/>
  <circle cx="499.38363539702493" cy="313.41120767063865" r="2.2572822675929864" fill="#CFAE58" opacity="0.1792960210102605"/>
  <circle cx="558.9411557382191" cy="491.9586809388051" r="2.3539818049351515" fill="#CFAE58" opacity="0.15861402228087254"/>
  <circle cx="302.87993374957733" cy="301.8502190017968" r="3.235300282441449" fill="#CFAE58" opacity="0.14975684368734682"/>
  <circle cx="264.46339686887825" cy="122.83038376339715" r="3.316333468512611" fill="#CFAE58" opacity="0.15648750106491066"/>
  <circle cx="714.1526229752047" cy="466.95780409088843" r="5.673177627733724" fill="#CFAE58" opacity="0.1834939273655541"/>
  <circle cx="88.58778004464223" cy="88.56151235331976" r="3.9602624409480867" fill="#CFAE58" opacity="0.14994916997730456"/>
  <circle cx="28.675057553791206" cy="253.97765733861493" r="4.423285950419293" fill="#CFAE58" opacity="0.24010527864439007"/>
  <circle cx="619.1166312196519" cy="397.22179270401307" r="4.361105297469564" fill="#CFAE58" opacity="0.1759195813834486"/>
  <circle cx="904.8567068864947" cy="297.38510234051205" r="3.3302106503165576" fill="#CFAE58" opacity="0.24135486237663206"/>
  <circle cx="1045.354196682899" cy="378.1501974808038" r="2.6527611900640466" fill="#CFAE58" opacity="0.108443571489278"/>
  <circle cx="581.6760575701842" cy="148.49816469619728" r="5.392649459433278" fill="#CFAE58" opacity="0.10973749090278218"/>
  <circle cx="301.9910003446551" cy="66.17895536536734" r="5.64783702044914" fill="#CFAE58" opacity="0.2166180528176066"/>
  <circle cx="1110.735048273598" cy="94.9581853115942" r="4.624638761572456" fill="#CFAE58" opacity="0.10181675868521439"/>
  <circle cx="203.2929269997682" cy="336.88930813204" r="2.423357830641658" fill="#CFAE58" opacity="0.11488301530065378"/>
  <circle cx="1036.6478737523455" cy="418.63735933183034" r="3.02378473942857" fill="#CFAE58" opacity="0.1853096153125466"/>
  <circle cx="64.62677000008368" cy="197.81803876473106" r="2.0169355212580156" fill="#CFAE58" opacity="0.1161065451363204"/>
  <circle cx="184.43173012947275" cy="135.88854399317066" r="5.812020248905172" fill="#CFAE58" opacity="0.21474819232949777"/>
  <circle cx="110.2120621191002" cy="605.9526222636619" r="3.5763456921255248" fill="#CFAE58" opacity="0.19303917969125534"/>
  <circle cx="92.79268935873634" cy="288.2812369678526" r="3.2837158232538037" fill="#CFAE58" opacity="0.2384186648198724"/>
  <circle cx="908.356261175699" cy="365.75568870403123" r="5.059151930026536" fill="#CFAE58" opacity="0.11271247734969725"/>
  <circle cx="623.349569645514" cy="610.3874825422918" r="3.8252406272549178" fill="#CFAE58" opacity="0.18591863129695751"/>
  <circle cx="917.615196308152" cy="227.47089769025877" r="4.403110516025482" fill="#CFAE58" opacity="0.1348902105002549"/>
  <circle cx="65.3347043593115" cy="209.20404968266445" r="5.76792891666442" fill="#CFAE58" opacity="0.12231418207729526"/>
  <circle cx="674.4112511730758" cy="73.49607744188177" r="5.555589887402114" fill="#CFAE58" opacity="0.16106194712200234"/>
  <circle cx="667.2530683926425" cy="616.81279907909" r="2.931210665760515" fill="#CFAE58" opacity="0.11709997403041422"/>

  <!-- Border with glow -->
  <rect x="40" y="40" width="1120" height="550" fill="none" stroke="url(#goldGradient)" stroke-width="3" rx="12" filter="url(#softGlow)"/>

  <!-- Icon circle with premium background -->
  <circle cx="150" cy="200" r="75" fill="#CFAE58" opacity="0.15" filter="url(#softGlow)"/>
  <circle cx="150" cy="200" r="70" fill="#CFAE58" opacity="0.25"/>
  <text x="150" y="235" font-size="90" text-anchor="middle" fill="#CFAE58" filter="url(#glow)">✓</text>

  <!-- Premium logo (crown) with enhanced styling -->
  <g transform="translate(100, 70)">
    <path d="M 30 20 L 40 35 L 35 35 Z M 50 15 L 60 35 L 45 35 Z M 65 20 L 75 35 L 70 35 Z M 30 35 L 75 35 L 73 45 L 32 45 Z"
          fill="url(#goldGradient)" filter="url(#glow)" stroke="#B89842" stroke-width="0.5"/>
    <circle cx="40" cy="25" r="3" fill="#4FD1C5" filter="url(#glow)"/>
    <circle cx="52" cy="20" r="4" fill="#4FD1C5" filter="url(#glow)"/>
    <circle cx="65" cy="25" r="3" fill="#4FD1C5" filter="url(#glow)"/>
  </g>

  <!-- Title with shadow -->
  <text x="280" y="180" font-family="Georgia, serif" font-size="72" font-weight="bold"
        fill="url(#goldGradient)" filter="url(#shadow)">Mercury eVSD System</text>

  <!-- Subtitle with subtle glow -->
  <text x="280" y="230" font-family="Arial, sans-serif" font-size="36"
        fill="#D6DEE6" opacity="0.95" filter="url(#softGlow)">Electronic Veterinary Certification</text>

  <!-- Brand name with letter spacing -->
  <text x="280" y="300" font-family="Georgia, serif" font-size="32" font-weight="bold"
        fill="#CFAE58" letter-spacing="4" filter="url(#glow)">ROYAL KETA</text>

  <!-- Russian tagline -->
  <text x="280" y="340" font-family="Arial, sans-serif" font-size="22" font-style="italic"
        fill="#8B95A1" opacity="0.8">От икринки к королевской</text>

  <!-- Location -->
  <text x="280" y="380" font-family="Arial, sans-serif" font-size="20"
        fill="#8B95A1" opacity="0.7">Невельский район, Сахалин</text>

  <!-- Website with glow -->
  <text x="100" y="570" font-family="Arial, sans-serif" font-size="30" font-weight="bold"
        fill="#4FD1C5" filter="url(#glow)">royalketa.com</text>

  <!-- Enhanced decorative salmon silhouette -->
  <g transform="translate(950, 480)" opacity="0.2" filter="url(#softGlow)">
    <ellipse cx="0" cy="0" rx="90" ry="35" fill="#CFAE58"/>
    <path d="M 90 0 L 120 -18 L 130 0 L 120 18 Z" fill="#CFAE58"/>
    <path d="M -25 -35 L 0 -45 L 25 -35 Z" fill="#CFAE58"/>
    <ellipse cx="-50" cy="0" rx="15" ry="12" fill="#0B0F14"/>
  </g>

  <!-- Additional decorative caviar clusters -->
  <g opacity="0.2">
    <circle cx="1050" cy="120" r="6" fill="#CFAE58"/>
    <circle cx="1065" cy="115" r="5" fill="#CFAE58"/>
    <circle cx="1058" cy="130" r="4" fill="#CFAE58"/>
    <circle cx="150" cy="500" r="5" fill="#4FD1C5"/>
    <circle cx="165" cy="508" r="4" fill="#4FD1C5"/>
    <circle cx="140" cy="512" r="5" fill="#4FD1C5"/>
  </g>
</svg>