<svg width="1200" height="630" xmlns="http://www.w3.org/2000/svg">
  <defs>
    <linearGradient id="bgGradient" x1="0%" y1="0%" x2="100%" y2="100%">
      <stop offset="0%" style="stop-color:#0B0F14;stop-opacity:1" />
      <stop offset="50%" style="stop-color:#0F1619;stop-opacity:1" />
      <stop offset="100%" style="stop-color:#0F1922;stop-opacity:1" />
    </linearGradient>
    <linearGradient id="goldGradient" x1="0%" y1="0%" x2="100%" y2="0%">
      <stop offset="0%" style="stop-color:#E5D596;stop-opacity:1" />
      <stop offset="50%" style="stop-color:#CFAE58;stop-opacity:1" />
      <stop offset="100%" style="stop-color:#B89842;stop-opacity:1" />
    </linearGradient>
    <radialGradient id="oceanGradient" cx="50%" cy="50%" r="50%">
      <stop offset="0%" style="stop-color:#4FD1C5;stop-opacity:0.3" />
      <stop offset="100%" style="stop-color:#1E90A0;stop-opacity:0.05" />
    </radialGradient>
    <filter id="glow">
      <feGaussianBlur stdDeviation="5" result="coloredBlur"/>
      <feMerge>
        <feMergeNode in="coloredBlur"/>
        <feMergeNode in="SourceGraphic"/>
      </feMerge>
    </filter>
    <filter id="softGlow">
      <feGaussianBlur stdDeviation="8" result="coloredBlur"/>
      <feMerge>
        <feMergeNode in="coloredBlur"/>
        <feMergeNode in="SourceGraphic"/>
      </feMerge>
    </filter>
    <filter id="shadow">
      <feDropShadow dx="0" dy="4" stdDeviation="8" flood-color="#000000" flood-opacity="0.5"/>
    </filter>
  </defs>

  <!-- Background -->
  <rect width="1200" height="630" fill="url(#bgGradient)"/>

  <!-- Decorative ocean gradients -->
  <ellipse cx="1000" cy="150" rx="300" ry="200" fill="url(#oceanGradient)" opacity="0.4"/>
  <ellipse cx="200" cy="530" rx="250" ry="180" fill="url(#oceanGradient)" opacity="0.3"/>

  <!-- Wave patterns -->
  <path d="M 0 400 Q 300 350 600 400 T 1200 400 L 1200 630 L 0 630 Z" fill="#1E90A0" opacity="0.08"/>
  <path d="M 0 450 Q 250 420 500 450 T 1000 450 T 1200 450 L 1200 630 L 0 630 Z" fill="#4FD1C5" opacity="0.05"/>

  <!-- Caviar roe particles -->
  <circle cx="721.9203139212207" cy="255.64136401953638" r="4.2744705312932885" fill="#CFAE58" opacity="0.10118625083483924"/>
  <circle cx="175.80753011182165" cy="345.1696661373572" r="4.571227575286141" fill="#CFAE58" opacity="0.1722096680620911"/>
  <circle cx="872.5202174303805" cy="521.1757691354159" r="4.371811863379202" fill="#CFAE58" opacity="0.15459538277685686"/>
  <circle cx="839.7174561980962" cy="528.2808660732803" r="5.036983325762583" fill="#CFAE58" opacity="0.20534194684001528"/>
  <circle cx="1074.0235205972094" cy="264.04288550494545" r="5.773788690440952" fill="#CFAE58" opacity="0.15980766393685655"/>
  <circle cx="1130.3008176648073" cy="24.26515473473162" r="3.943567046184981" fill="#CFAE58" opacity="0.1576191442025527"/>
  <circle cx="877.3978679050464" cy="524.6924114569064" r="2.154273226445259" fill="#CFAE58" opacity="0.2335205837414856"/>
  <circle cx="346.36311150661766" cy="125.73714336292547" r="4.883724574909948" fill="#CFAE58" opacity="0.174459748659848"/>
  <circle cx="941.1472406347652" cy="525.412513254334" r="5.693779917680435" fill="#CFAE58" opacity="0.17505068885681602"/>
  <circle cx="1039.4406358586982" cy="625.8763555931108" r="5.328178865694326" fill="#CFAE58" opacity="0.19757768310546397"/>
  <circle cx="1087.9166518999525" cy="499.77320178118885" r="4.162441092358814" fill="#CFAE58" opacity="0.2495949460831963"/>
  <circle cx="565.0706367469974" cy="24.740919944985116" r="3.8910174584569948" fill="#CFAE58" opacity="0.22615569189230894"/>
  <circle cx="851.5644706146912" cy="505.6446769333438" r="5.79072644240188" fill="#CFAE58" opacity="0.14401793700754417"/>
  <circle cx="724.6632295359922" cy="490.91287810475677" r="3.9904690431492584" fill="#CFAE58" opacity="0.12803671227925548"/>
  <circle cx="329.0798790143105" cy="271.9573281161674" r="4.18804199387282" fill="#CFAE58" opacity="0.2107354706946274"/>
  <circle cx="279.81148395760175" cy="477.4187414636312" r="3.754783887421598" fill="#CFAE58" opacity="0.1294548126837743"/>
  <circle cx="860.3646855213252" cy="139.37562290239754" r="5.812034839428633" fill="#CFAE58" opacity="0.21702208013225052"/>
  <circle cx="266.29372341763747" cy="564.0465372459585" r="5.55279648046009" fill="#CFAE58" opacity="0.1616188961651277"/>
  <circle cx="292.09538033040536" cy="349.15976619147403" r="5.513387835426087" fill="#CFAE58" opacity="0.249608729577202"/>
  <circle cx="187.22151098459133" cy="210.407494197906" r="5.10619769295395" fill="#CFAE58" opacity="0.246679933314256"/>
  <circle cx="656.0309481339683" cy="231.6425152913745" r="2.6655926691439102" fill="#CFAE58" opacity="0.24992778678549948"/>
  <circle cx="987.9265351533693" cy="252.94125876635056" r="5.584025057799128" fill="#CFAE58" opacity="0.13966076523739837"/>
  <circle cx="163.18838820017714" cy="541.3700305505525" r="4.311937054348221" fill="#CFAE58" opacity="0.15663715288792426"/>
  <circle cx="605.887762895331" cy="128.9021784667999" r="4.031695945475852" fill="#CFAE58" opacity="0.22871816329166922"/>
  <circle cx="351.3382066130854" cy="381.94864817006516" r="4.301678781464956" fill="#CFAE58" opacity="0.11605633034722301"/>
  <circle cx="582.3317461130274" cy="305.38982476035244" r="4.555156058900666" fill="#CFAE58" opacity="0.24240539981428325"/>
  <circle cx="725.5894360696482" cy="67.31502557044564" r="4.945833796812899" fill="#CFAE58" opacity="0.18882566431697884"/>
  <circle cx="5.107092500007937" cy="390.2118789798171" r="5.1494990997613" fill="#CFAE58" opacity="0.1796982980637154"/>
  <circle cx="311.8859785306708" cy="607.3200092699676" r="2.1835993519187893" fill="#CFAE58" opacity="0.20169821348476638"/>
  <circle cx="562.8274252194846" cy="264.45102690821795" r="4.226360136823823" fill="#CFAE58" opacity="0.10743926607983795"/>

  <!-- Border with glow -->
  <rect x="40" y="40" width="1120" height="550" fill="none" stroke="url(#goldGradient)" stroke-width="3" rx="12" filter="url(#softGlow)"/>

  <!-- Icon circle with premium background -->
  <circle cx="150" cy="200" r="75" fill="#CFAE58" opacity="0.15" filter="url(#softGlow)"/>
  <circle cx="150" cy="200" r="70" fill="#CFAE58" opacity="0.25"/>
  <text x="150" y="235" font-size="90" text-anchor="middle" fill="#CFAE58" filter="url(#glow)">✓</text>

  <!-- Premium logo (crown) with enhanced styling -->
  <g transform="translate(100, 70)">
    <path d="M 30 20 L 40 35 L 35 35 Z M 50 15 L 60 35 L 45 35 Z M 65 20 L 75 35 L 70 35 Z M 30 35 L 75 35 L 73 45 L 32 45 Z"
          fill="url(#goldGradient)" filter="url(#glow)" stroke="#B89842" stroke-width="0.5"/>
    <circle cx="40" cy="25" r="3" fill="#4FD1C5" filter="url(#glow)"/>
    <circle cx="52" cy="20" r="4" fill="#4FD1C5" filter="url(#glow)"/>
    <circle cx="65" cy="25" r="3" fill="#4FD1C5" filter="url(#glow)"/>
  </g>

  <!-- Title with shadow -->
  <text x="280" y="180" font-family="Georgia, serif" font-size="72" font-weight="bold"
        fill="url(#goldGradient)" filter="url(#shadow)">Mercury eVSD System</text>

  <!-- Subtitle with subtle glow -->
  <text x="280" y="230" font-family="Arial, sans-serif" font-size="36"
        fill="#D6DEE6" opacity="0.95" filter="url(#softGlow)">Electronic Veterinary Certification</text>

  <!-- Brand name with letter spacing -->
  <text x="280" y="300" font-family="Georgia, serif" font-size="32" font-weight="bold"
        fill="#CFAE58" letter-spacing="4" filter="url(#glow)">ROYAL KETA</text>

  <!-- Russian tagline -->
  <text x="280" y="340" font-family="Arial, sans-serif" font-size="22" font-style="italic"
        fill="#8B95A1" opacity="0.8">От икринки к королевской</text>

  <!-- Location -->
  <text x="280" y="380" font-family="Arial, sans-serif" font-size="20"
        fill="#8B95A1" opacity="0.7">Невельский район, Сахалин</text>

  <!-- Website with glow -->
  <text x="100" y="570" font-family="Arial, sans-serif" font-size="30" font-weight="bold"
        fill="#4FD1C5" filter="url(#glow)">royalketa.com</text>

  <!-- Enhanced decorative salmon silhouette -->
  <g transform="translate(950, 480)" opacity="0.2" filter="url(#softGlow)">
    <ellipse cx="0" cy="0" rx="90" ry="35" fill="#CFAE58"/>
    <path d="M 90 0 L 120 -18 L 130 0 L 120 18 Z" fill="#CFAE58"/>
    <path d="M -25 -35 L 0 -45 L 25 -35 Z" fill="#CFAE58"/>
    <ellipse cx="-50" cy="0" rx="15" ry="12" fill="#0B0F14"/>
  </g>

  <!-- Additional decorative caviar clusters -->
  <g opacity="0.2">
    <circle cx="1050" cy="120" r="6" fill="#CFAE58"/>
    <circle cx="1065" cy="115" r="5" fill="#CFAE58"/>
    <circle cx="1058" cy="130" r="4" fill="#CFAE58"/>
    <circle cx="150" cy="500" r="5" fill="#4FD1C5"/>
    <circle cx="165" cy="508" r="4" fill="#4FD1C5"/>
    <circle cx="140" cy="512" r="5" fill="#4FD1C5"/>
  </g>
</svg>