<svg width="1200" height="630" xmlns="http://www.w3.org/2000/svg">
  <defs>
    <linearGradient id="bgGradient" x1="0%" y1="0%" x2="100%" y2="100%">
      <stop offset="0%" style="stop-color:#0B0F14;stop-opacity:1" />
      <stop offset="50%" style="stop-color:#0F1619;stop-opacity:1" />
      <stop offset="100%" style="stop-color:#0F1922;stop-opacity:1" />
    </linearGradient>
    <linearGradient id="goldGradient" x1="0%" y1="0%" x2="100%" y2="0%">
      <stop offset="0%" style="stop-color:#E5D596;stop-opacity:1" />
      <stop offset="50%" style="stop-color:#CFAE58;stop-opacity:1" />
      <stop offset="100%" style="stop-color:#B89842;stop-opacity:1" />
    </linearGradient>
    <radialGradient id="oceanGradient" cx="50%" cy="50%" r="50%">
      <stop offset="0%" style="stop-color:#4FD1C5;stop-opacity:0.3" />
      <stop offset="100%" style="stop-color:#1E90A0;stop-opacity:0.05" />
    </radialGradient>
    <filter id="glow">
      <feGaussianBlur stdDeviation="5" result="coloredBlur"/>
      <feMerge>
        <feMergeNode in="coloredBlur"/>
        <feMergeNode in="SourceGraphic"/>
      </feMerge>
    </filter>
    <filter id="softGlow">
      <feGaussianBlur stdDeviation="8" result="coloredBlur"/>
      <feMerge>
        <feMergeNode in="coloredBlur"/>
        <feMergeNode in="SourceGraphic"/>
      </feMerge>
    </filter>
    <filter id="shadow">
      <feDropShadow dx="0" dy="4" stdDeviation="8" flood-color="#000000" flood-opacity="0.5"/>
    </filter>
  </defs>

  <!-- Background -->
  <rect width="1200" height="630" fill="url(#bgGradient)"/>

  <!-- Decorative ocean gradients -->
  <ellipse cx="1000" cy="150" rx="300" ry="200" fill="url(#oceanGradient)" opacity="0.4"/>
  <ellipse cx="200" cy="530" rx="250" ry="180" fill="url(#oceanGradient)" opacity="0.3"/>

  <!-- Wave patterns -->
  <path d="M 0 400 Q 300 350 600 400 T 1200 400 L 1200 630 L 0 630 Z" fill="#1E90A0" opacity="0.08"/>
  <path d="M 0 450 Q 250 420 500 450 T 1000 450 T 1200 450 L 1200 630 L 0 630 Z" fill="#4FD1C5" opacity="0.05"/>

  <!-- Caviar roe particles -->
  <circle cx="913.1273151883887" cy="101.89487456222658" r="3.727804432153061" fill="#CFAE58" opacity="0.19228781795471772"/>
  <circle cx="1046.3969954366628" cy="425.770571224704" r="2.1910669766621225" fill="#CFAE58" opacity="0.17034615007315784"/>
  <circle cx="646.7077719560111" cy="496.40929205109376" r="3.2993498210079717" fill="#CFAE58" opacity="0.22912905712111087"/>
  <circle cx="730.2679653362452" cy="445.6389173724669" r="3.3939349500701717" fill="#CFAE58" opacity="0.10541847160406814"/>
  <circle cx="217.41592795116725" cy="187.02219454458853" r="2.9495016808673507" fill="#CFAE58" opacity="0.1760680549948675"/>
  <circle cx="981.3230642911763" cy="545.3245803432279" r="4.40038088954386" fill="#CFAE58" opacity="0.11284036612261661"/>
  <circle cx="166.7183428403937" cy="570.0842543187482" r="3.60836488539029" fill="#CFAE58" opacity="0.18845930861001867"/>
  <circle cx="436.5827574603836" cy="370.05456687669385" r="4.294390368588233" fill="#CFAE58" opacity="0.24860916685940382"/>
  <circle cx="320.7158329586425" cy="185.79664674813844" r="3.671646784820293" fill="#CFAE58" opacity="0.1572902187895282"/>
  <circle cx="338.09856349810116" cy="452.7478085913636" r="4.974238040859773" fill="#CFAE58" opacity="0.1840842936741875"/>
  <circle cx="148.64890785951084" cy="309.1382199363928" r="5.544073345097091" fill="#CFAE58" opacity="0.19650545539322395"/>
  <circle cx="978.6224253331447" cy="12.19296895013921" r="5.87762602438197" fill="#CFAE58" opacity="0.23559864952974527"/>
  <circle cx="981.9771488618335" cy="60.36725814349347" r="5.541657528493074" fill="#CFAE58" opacity="0.14596366950043024"/>
  <circle cx="948.5168553015928" cy="275.31812789972537" r="2.6525185340667226" fill="#CFAE58" opacity="0.20866647954170592"/>
  <circle cx="492.73295048539615" cy="333.7764651821387" r="5.2224074015932835" fill="#CFAE58" opacity="0.24997227870000688"/>
  <circle cx="853.1878753350012" cy="597.4791503846204" r="5.265927593796534" fill="#CFAE58" opacity="0.13333957385066567"/>
  <circle cx="299.727265969385" cy="144.26226579281706" r="2.1556005712678887" fill="#CFAE58" opacity="0.1721587768034829"/>
  <circle cx="638.6180849370364" cy="375.0633388082357" r="4.825276204416024" fill="#CFAE58" opacity="0.1167502556124648"/>
  <circle cx="779.1936001676879" cy="523.9203180560648" r="5.1422103564734964" fill="#CFAE58" opacity="0.14006466299373682"/>
  <circle cx="939.2874626980803" cy="32.085877364440805" r="2.87213084608626" fill="#CFAE58" opacity="0.10539528494165738"/>
  <circle cx="436.0262475231667" cy="359.4877669326379" r="2.3832830629603814" fill="#CFAE58" opacity="0.20883848429632335"/>
  <circle cx="606.2260330151817" cy="558.03454009382" r="5.9582956410105" fill="#CFAE58" opacity="0.125500104487669"/>
  <circle cx="653.0969188597272" cy="471.1206135614876" r="2.4009486093014196" fill="#CFAE58" opacity="0.1933897118362589"/>
  <circle cx="988.2095330044286" cy="237.62475267971712" r="2.1990288475268107" fill="#CFAE58" opacity="0.10010312954805645"/>
  <circle cx="120.67981950091648" cy="36.34359567624329" r="5.672585480742619" fill="#CFAE58" opacity="0.11016154805643859"/>
  <circle cx="140.98032357676064" cy="118.83187713229177" r="4.431929927306726" fill="#CFAE58" opacity="0.20035107736442098"/>
  <circle cx="983.2865065752821" cy="2.199393653874875" r="2.5036806782910124" fill="#CFAE58" opacity="0.11085089796877456"/>
  <circle cx="593.8073583412142" cy="323.89828799958644" r="2.4641332039922257" fill="#CFAE58" opacity="0.18752611358315124"/>
  <circle cx="174.77097675825988" cy="545.8669567856974" r="4.773442881361899" fill="#CFAE58" opacity="0.23390727402971553"/>
  <circle cx="870.4597842292761" cy="363.0174063128755" r="3.655856258760991" fill="#CFAE58" opacity="0.1917988252931852"/>

  <!-- Border with glow -->
  <rect x="40" y="40" width="1120" height="550" fill="none" stroke="url(#goldGradient)" stroke-width="3" rx="12" filter="url(#softGlow)"/>

  <!-- Icon circle with premium background -->
  <circle cx="150" cy="200" r="75" fill="#CFAE58" opacity="0.15" filter="url(#softGlow)"/>
  <circle cx="150" cy="200" r="70" fill="#CFAE58" opacity="0.25"/>
  <text x="150" y="235" font-size="90" text-anchor="middle" fill="#CFAE58" filter="url(#glow)">✓</text>

  <!-- Premium logo (crown) with enhanced styling -->
  <g transform="translate(100, 70)">
    <path d="M 30 20 L 40 35 L 35 35 Z M 50 15 L 60 35 L 45 35 Z M 65 20 L 75 35 L 70 35 Z M 30 35 L 75 35 L 73 45 L 32 45 Z"
          fill="url(#goldGradient)" filter="url(#glow)" stroke="#B89842" stroke-width="0.5"/>
    <circle cx="40" cy="25" r="3" fill="#4FD1C5" filter="url(#glow)"/>
    <circle cx="52" cy="20" r="4" fill="#4FD1C5" filter="url(#glow)"/>
    <circle cx="65" cy="25" r="3" fill="#4FD1C5" filter="url(#glow)"/>
  </g>

  <!-- Title with shadow -->
  <text x="280" y="180" font-family="Georgia, serif" font-size="72" font-weight="bold"
        fill="url(#goldGradient)" filter="url(#shadow)">Mercury eVSD System</text>

  <!-- Subtitle with subtle glow -->
  <text x="280" y="230" font-family="Arial, sans-serif" font-size="36"
        fill="#D6DEE6" opacity="0.95" filter="url(#softGlow)">Electronic Veterinary Certification</text>

  <!-- Brand name with letter spacing -->
  <text x="280" y="300" font-family="Georgia, serif" font-size="32" font-weight="bold"
        fill="#CFAE58" letter-spacing="4" filter="url(#glow)">ROYAL KETA</text>

  <!-- Russian tagline -->
  <text x="280" y="340" font-family="Arial, sans-serif" font-size="22" font-style="italic"
        fill="#8B95A1" opacity="0.8">От икринки к королевской</text>

  <!-- Location -->
  <text x="280" y="380" font-family="Arial, sans-serif" font-size="20"
        fill="#8B95A1" opacity="0.7">Невельский район, Сахалин</text>

  <!-- Website with glow -->
  <text x="100" y="570" font-family="Arial, sans-serif" font-size="30" font-weight="bold"
        fill="#4FD1C5" filter="url(#glow)">royalketa.com</text>

  <!-- Enhanced decorative salmon silhouette -->
  <g transform="translate(950, 480)" opacity="0.2" filter="url(#softGlow)">
    <ellipse cx="0" cy="0" rx="90" ry="35" fill="#CFAE58"/>
    <path d="M 90 0 L 120 -18 L 130 0 L 120 18 Z" fill="#CFAE58"/>
    <path d="M -25 -35 L 0 -45 L 25 -35 Z" fill="#CFAE58"/>
    <ellipse cx="-50" cy="0" rx="15" ry="12" fill="#0B0F14"/>
  </g>

  <!-- Additional decorative caviar clusters -->
  <g opacity="0.2">
    <circle cx="1050" cy="120" r="6" fill="#CFAE58"/>
    <circle cx="1065" cy="115" r="5" fill="#CFAE58"/>
    <circle cx="1058" cy="130" r="4" fill="#CFAE58"/>
    <circle cx="150" cy="500" r="5" fill="#4FD1C5"/>
    <circle cx="165" cy="508" r="4" fill="#4FD1C5"/>
    <circle cx="140" cy="512" r="5" fill="#4FD1C5"/>
  </g>
</svg>