<svg width="1200" height="630" xmlns="http://www.w3.org/2000/svg">
  <defs>
    <linearGradient id="bgGradient" x1="0%" y1="0%" x2="100%" y2="100%">
      <stop offset="0%" style="stop-color:#0B0F14;stop-opacity:1" />
      <stop offset="50%" style="stop-color:#0F1619;stop-opacity:1" />
      <stop offset="100%" style="stop-color:#0F1922;stop-opacity:1" />
    </linearGradient>
    <linearGradient id="goldGradient" x1="0%" y1="0%" x2="100%" y2="0%">
      <stop offset="0%" style="stop-color:#E5D596;stop-opacity:1" />
      <stop offset="50%" style="stop-color:#CFAE58;stop-opacity:1" />
      <stop offset="100%" style="stop-color:#B89842;stop-opacity:1" />
    </linearGradient>
    <radialGradient id="oceanGradient" cx="50%" cy="50%" r="50%">
      <stop offset="0%" style="stop-color:#4FD1C5;stop-opacity:0.3" />
      <stop offset="100%" style="stop-color:#1E90A0;stop-opacity:0.05" />
    </radialGradient>
    <filter id="glow">
      <feGaussianBlur stdDeviation="5" result="coloredBlur"/>
      <feMerge>
        <feMergeNode in="coloredBlur"/>
        <feMergeNode in="SourceGraphic"/>
      </feMerge>
    </filter>
    <filter id="softGlow">
      <feGaussianBlur stdDeviation="8" result="coloredBlur"/>
      <feMerge>
        <feMergeNode in="coloredBlur"/>
        <feMergeNode in="SourceGraphic"/>
      </feMerge>
    </filter>
    <filter id="shadow">
      <feDropShadow dx="0" dy="4" stdDeviation="8" flood-color="#000000" flood-opacity="0.5"/>
    </filter>
  </defs>

  <!-- Background -->
  <rect width="1200" height="630" fill="url(#bgGradient)"/>

  <!-- Decorative ocean gradients -->
  <ellipse cx="1000" cy="150" rx="300" ry="200" fill="url(#oceanGradient)" opacity="0.4"/>
  <ellipse cx="200" cy="530" rx="250" ry="180" fill="url(#oceanGradient)" opacity="0.3"/>

  <!-- Wave patterns -->
  <path d="M 0 400 Q 300 350 600 400 T 1200 400 L 1200 630 L 0 630 Z" fill="#1E90A0" opacity="0.08"/>
  <path d="M 0 450 Q 250 420 500 450 T 1000 450 T 1200 450 L 1200 630 L 0 630 Z" fill="#4FD1C5" opacity="0.05"/>

  <!-- Caviar roe particles -->
  <circle cx="324.50910171889547" cy="63.606194196584724" r="5.745545244462956" fill="#CFAE58" opacity="0.10989257515555709"/>
  <circle cx="708.5388290411387" cy="180.66072089810032" r="3.605426179141575" fill="#CFAE58" opacity="0.1864102733799467"/>
  <circle cx="442.9448133641892" cy="123.0832240079718" r="3.424684627587594" fill="#CFAE58" opacity="0.20095204897717656"/>
  <circle cx="782.863757237199" cy="187.86167204581645" r="4.054116919887669" fill="#CFAE58" opacity="0.13562264954109157"/>
  <circle cx="1136.6986232428173" cy="546.1683890371825" r="5.441090560832908" fill="#CFAE58" opacity="0.1724446322625865"/>
  <circle cx="1145.3098765375648" cy="107.62753657508627" r="2.629693015727866" fill="#CFAE58" opacity="0.22099170928368977"/>
  <circle cx="421.387159736771" cy="81.72010655188626" r="3.000716792144374" fill="#CFAE58" opacity="0.10809661314798896"/>
  <circle cx="500.12399968898677" cy="580.6781012973552" r="5.094909800852896" fill="#CFAE58" opacity="0.18918584067096755"/>
  <circle cx="948.1517958782348" cy="530.6039030731807" r="2.2219105137788815" fill="#CFAE58" opacity="0.11528304394305953"/>
  <circle cx="1107.5477557497686" cy="322.60710103393984" r="5.119483785617483" fill="#CFAE58" opacity="0.10114840156948263"/>
  <circle cx="587.663087466713" cy="545.2274044255678" r="4.225592223250947" fill="#CFAE58" opacity="0.20362501538963151"/>
  <circle cx="950.9302074825117" cy="307.80854909740674" r="5.653484042940665" fill="#CFAE58" opacity="0.22113255298315518"/>
  <circle cx="651.023151099055" cy="308.44047074250403" r="5.435401999238499" fill="#CFAE58" opacity="0.19283921520535027"/>
  <circle cx="1119.6411137224022" cy="513.1009347220067" r="2.3529120240332624" fill="#CFAE58" opacity="0.20659322945940328"/>
  <circle cx="1195.4455892430212" cy="560.4253180895595" r="5.10921089770597" fill="#CFAE58" opacity="0.1529413788892326"/>
  <circle cx="896.7330179647884" cy="591.3686648073738" r="5.90944657699358" fill="#CFAE58" opacity="0.21365620723230644"/>
  <circle cx="96.38402718719124" cy="252.855898433846" r="2.834970606961312" fill="#CFAE58" opacity="0.24468471369259953"/>
  <circle cx="764.2359319591061" cy="366.94410263956905" r="4.362971129187178" fill="#CFAE58" opacity="0.16127773672646106"/>
  <circle cx="1169.786742780215" cy="94.82981106663047" r="3.4803569349098185" fill="#CFAE58" opacity="0.19069805538644252"/>
  <circle cx="714.5057716028621" cy="170.47807179572476" r="3.315017955397071" fill="#CFAE58" opacity="0.2320776391793141"/>
  <circle cx="1064.7879606500917" cy="425.59203505915065" r="4.167702565758979" fill="#CFAE58" opacity="0.20325214721861717"/>
  <circle cx="201.5732386425548" cy="587.0427512809522" r="3.996727336676919" fill="#CFAE58" opacity="0.1913746722066057"/>
  <circle cx="384.63130642305885" cy="148.87875487388737" r="2.246671381840015" fill="#CFAE58" opacity="0.20695025063060224"/>
  <circle cx="432.29397244743836" cy="454.68098318494157" r="5.824854404092694" fill="#CFAE58" opacity="0.11652607882177518"/>
  <circle cx="479.68161455919136" cy="316.837106958251" r="2.3885107007167985" fill="#CFAE58" opacity="0.2266682550519054"/>
  <circle cx="42.70116645859581" cy="449.51796233266975" r="5.6969000458418595" fill="#CFAE58" opacity="0.10896233917251111"/>
  <circle cx="446.15961145504406" cy="566.0299478600066" r="3.2622389381860843" fill="#CFAE58" opacity="0.10570321228216957"/>
  <circle cx="260.14372299302505" cy="483.61064146988684" r="2.4702987333712154" fill="#CFAE58" opacity="0.11920824607299625"/>
  <circle cx="1107.0248829094871" cy="348.5028053740552" r="2.0947925590903953" fill="#CFAE58" opacity="0.17932302446044115"/>
  <circle cx="254.85044225281223" cy="10.656255060439324" r="2.661208674978104" fill="#CFAE58" opacity="0.1748767135066987"/>

  <!-- Border with glow -->
  <rect x="40" y="40" width="1120" height="550" fill="none" stroke="url(#goldGradient)" stroke-width="3" rx="12" filter="url(#softGlow)"/>

  <!-- Icon circle with premium background -->
  <circle cx="150" cy="200" r="75" fill="#CFAE58" opacity="0.15" filter="url(#softGlow)"/>
  <circle cx="150" cy="200" r="70" fill="#CFAE58" opacity="0.25"/>
  <text x="150" y="235" font-size="90" text-anchor="middle" fill="#CFAE58" filter="url(#glow)">🚚</text>

  <!-- Premium logo (crown) with enhanced styling -->
  <g transform="translate(100, 70)">
    <path d="M 30 20 L 40 35 L 35 35 Z M 50 15 L 60 35 L 45 35 Z M 65 20 L 75 35 L 70 35 Z M 30 35 L 75 35 L 73 45 L 32 45 Z"
          fill="url(#goldGradient)" filter="url(#glow)" stroke="#B89842" stroke-width="0.5"/>
    <circle cx="40" cy="25" r="3" fill="#4FD1C5" filter="url(#glow)"/>
    <circle cx="52" cy="20" r="4" fill="#4FD1C5" filter="url(#glow)"/>
    <circle cx="65" cy="25" r="3" fill="#4FD1C5" filter="url(#glow)"/>
  </g>

  <!-- Title with shadow -->
  <text x="280" y="180" font-family="Georgia, serif" font-size="72" font-weight="bold"
        fill="url(#goldGradient)" filter="url(#shadow)">Logistics Partners</text>

  <!-- Subtitle with subtle glow -->
  <text x="280" y="230" font-family="Arial, sans-serif" font-size="36"
        fill="#D6DEE6" opacity="0.95" filter="url(#softGlow)">Reliable Delivery Across Russia</text>

  <!-- Brand name with letter spacing -->
  <text x="280" y="300" font-family="Georgia, serif" font-size="32" font-weight="bold"
        fill="#CFAE58" letter-spacing="4" filter="url(#glow)">ROYAL KETA</text>

  <!-- Russian tagline -->
  <text x="280" y="340" font-family="Arial, sans-serif" font-size="22" font-style="italic"
        fill="#8B95A1" opacity="0.8">От икринки к королевской</text>

  <!-- Location -->
  <text x="280" y="380" font-family="Arial, sans-serif" font-size="20"
        fill="#8B95A1" opacity="0.7">Невельский район, Сахалин</text>

  <!-- Website with glow -->
  <text x="100" y="570" font-family="Arial, sans-serif" font-size="30" font-weight="bold"
        fill="#4FD1C5" filter="url(#glow)">royalketa.com</text>

  <!-- Enhanced decorative salmon silhouette -->
  <g transform="translate(950, 480)" opacity="0.2" filter="url(#softGlow)">
    <ellipse cx="0" cy="0" rx="90" ry="35" fill="#CFAE58"/>
    <path d="M 90 0 L 120 -18 L 130 0 L 120 18 Z" fill="#CFAE58"/>
    <path d="M -25 -35 L 0 -45 L 25 -35 Z" fill="#CFAE58"/>
    <ellipse cx="-50" cy="0" rx="15" ry="12" fill="#0B0F14"/>
  </g>

  <!-- Additional decorative caviar clusters -->
  <g opacity="0.2">
    <circle cx="1050" cy="120" r="6" fill="#CFAE58"/>
    <circle cx="1065" cy="115" r="5" fill="#CFAE58"/>
    <circle cx="1058" cy="130" r="4" fill="#CFAE58"/>
    <circle cx="150" cy="500" r="5" fill="#4FD1C5"/>
    <circle cx="165" cy="508" r="4" fill="#4FD1C5"/>
    <circle cx="140" cy="512" r="5" fill="#4FD1C5"/>
  </g>
</svg>