<svg width="1200" height="630" xmlns="http://www.w3.org/2000/svg">
  <defs>
    <linearGradient id="bgGradient" x1="0%" y1="0%" x2="100%" y2="100%">
      <stop offset="0%" style="stop-color:#0B0F14;stop-opacity:1" />
      <stop offset="50%" style="stop-color:#0F1619;stop-opacity:1" />
      <stop offset="100%" style="stop-color:#0F1922;stop-opacity:1" />
    </linearGradient>
    <linearGradient id="goldGradient" x1="0%" y1="0%" x2="100%" y2="0%">
      <stop offset="0%" style="stop-color:#E5D596;stop-opacity:1" />
      <stop offset="50%" style="stop-color:#CFAE58;stop-opacity:1" />
      <stop offset="100%" style="stop-color:#B89842;stop-opacity:1" />
    </linearGradient>
    <radialGradient id="oceanGradient" cx="50%" cy="50%" r="50%">
      <stop offset="0%" style="stop-color:#4FD1C5;stop-opacity:0.3" />
      <stop offset="100%" style="stop-color:#1E90A0;stop-opacity:0.05" />
    </radialGradient>
    <filter id="glow">
      <feGaussianBlur stdDeviation="5" result="coloredBlur"/>
      <feMerge>
        <feMergeNode in="coloredBlur"/>
        <feMergeNode in="SourceGraphic"/>
      </feMerge>
    </filter>
    <filter id="softGlow">
      <feGaussianBlur stdDeviation="8" result="coloredBlur"/>
      <feMerge>
        <feMergeNode in="coloredBlur"/>
        <feMergeNode in="SourceGraphic"/>
      </feMerge>
    </filter>
    <filter id="shadow">
      <feDropShadow dx="0" dy="4" stdDeviation="8" flood-color="#000000" flood-opacity="0.5"/>
    </filter>
  </defs>

  <!-- Background -->
  <rect width="1200" height="630" fill="url(#bgGradient)"/>

  <!-- Decorative ocean gradients -->
  <ellipse cx="1000" cy="150" rx="300" ry="200" fill="url(#oceanGradient)" opacity="0.4"/>
  <ellipse cx="200" cy="530" rx="250" ry="180" fill="url(#oceanGradient)" opacity="0.3"/>

  <!-- Wave patterns -->
  <path d="M 0 400 Q 300 350 600 400 T 1200 400 L 1200 630 L 0 630 Z" fill="#1E90A0" opacity="0.08"/>
  <path d="M 0 450 Q 250 420 500 450 T 1000 450 T 1200 450 L 1200 630 L 0 630 Z" fill="#4FD1C5" opacity="0.05"/>

  <!-- Caviar roe particles -->
  <circle cx="384.79424392437693" cy="584.0992071091666" r="4.8416419226189795" fill="#CFAE58" opacity="0.18479928580849558"/>
  <circle cx="842.3513301698752" cy="289.834295941691" r="4.655465810610408" fill="#CFAE58" opacity="0.1350145561597396"/>
  <circle cx="913.5266755673396" cy="360.34743119078763" r="4.023188505236012" fill="#CFAE58" opacity="0.15558288640735568"/>
  <circle cx="415.73574939335407" cy="173.85772817591558" r="5.245172891109609" fill="#CFAE58" opacity="0.12503371189859697"/>
  <circle cx="269.72477837284555" cy="9.442861268883059" r="2.5901017777576536" fill="#CFAE58" opacity="0.13585074734211328"/>
  <circle cx="483.09810155642936" cy="561.5919563485503" r="2.537884059018193" fill="#CFAE58" opacity="0.17506840123757383"/>
  <circle cx="356.60389869513864" cy="378.14198264844777" r="2.025945581629916" fill="#CFAE58" opacity="0.2446873563530586"/>
  <circle cx="1056.7606096415154" cy="220.38708473780719" r="5.45776719914784" fill="#CFAE58" opacity="0.20732856159512036"/>
  <circle cx="842.1212249466307" cy="546.4151780663406" r="2.004265513124392" fill="#CFAE58" opacity="0.21945389659887507"/>
  <circle cx="47.62741422159023" cy="440.88658482406163" r="2.2289856516990376" fill="#CFAE58" opacity="0.17931346112348964"/>
  <circle cx="239.82249209123" cy="122.59082065797527" r="5.780685400704468" fill="#CFAE58" opacity="0.16913668591371583"/>
  <circle cx="645.0840072267044" cy="315.97853841920613" r="5.682510797558279" fill="#CFAE58" opacity="0.14015319081714997"/>
  <circle cx="1005.6100094776205" cy="63.36685346447805" r="2.8751931027162403" fill="#CFAE58" opacity="0.10641012494207282"/>
  <circle cx="988.6474907982546" cy="133.21295693428493" r="4.640538834429859" fill="#CFAE58" opacity="0.18066800996545512"/>
  <circle cx="816.7039718887661" cy="16.332785096920436" r="4.581758524540164" fill="#CFAE58" opacity="0.20425490865894774"/>
  <circle cx="1031.0349668196" cy="66.73771717071557" r="5.471777019759065" fill="#CFAE58" opacity="0.1274265871299473"/>
  <circle cx="22.698205053112908" cy="559.4499797084399" r="2.8924164150354335" fill="#CFAE58" opacity="0.13004070360097317"/>
  <circle cx="603.4573377462125" cy="43.004795303408066" r="3.9771737741470305" fill="#CFAE58" opacity="0.2184064861785041"/>
  <circle cx="212.25809110654703" cy="408.47629118298335" r="3.6694635793959947" fill="#CFAE58" opacity="0.17592769218935267"/>
  <circle cx="345.89375994807136" cy="629.6441086097226" r="4.574021851033144" fill="#CFAE58" opacity="0.10389403759707543"/>
  <circle cx="1177.5334379681663" cy="109.96066390728107" r="3.571847772247386" fill="#CFAE58" opacity="0.24708407580811625"/>
  <circle cx="577.3977603944406" cy="173.9792071273799" r="4.555894192395716" fill="#CFAE58" opacity="0.22387961528424083"/>
  <circle cx="391.5516098026616" cy="104.17600752518744" r="4.093220703568819" fill="#CFAE58" opacity="0.10207811604414659"/>
  <circle cx="653.6466194604898" cy="205.53333165217518" r="2.0780066774104418" fill="#CFAE58" opacity="0.14654069115117158"/>
  <circle cx="335.2990797111895" cy="583.4959080459105" r="4.269059769152458" fill="#CFAE58" opacity="0.17977393781981066"/>
  <circle cx="1091.0037437282494" cy="397.5069517177055" r="2.3405858817678906" fill="#CFAE58" opacity="0.10298318313670812"/>
  <circle cx="913.174555869029" cy="103.78512210809697" r="4.199096389800695" fill="#CFAE58" opacity="0.15713909466874434"/>
  <circle cx="1091.9185670747634" cy="439.27676025594826" r="3.0037713548174203" fill="#CFAE58" opacity="0.18179885404030094"/>
  <circle cx="700.8848716325377" cy="349.35433435573316" r="4.790516694831661" fill="#CFAE58" opacity="0.14143579261160158"/>
  <circle cx="107.77200024592481" cy="104.90568309905585" r="3.2767965456734425" fill="#CFAE58" opacity="0.10667547176946213"/>

  <!-- Border with glow -->
  <rect x="40" y="40" width="1120" height="550" fill="none" stroke="url(#goldGradient)" stroke-width="3" rx="12" filter="url(#softGlow)"/>

  <!-- Icon circle with premium background -->
  <circle cx="150" cy="200" r="75" fill="#CFAE58" opacity="0.15" filter="url(#softGlow)"/>
  <circle cx="150" cy="200" r="70" fill="#CFAE58" opacity="0.25"/>
  <text x="150" y="235" font-size="90" text-anchor="middle" fill="#CFAE58" filter="url(#glow)">🚚</text>

  <!-- Premium logo (crown) with enhanced styling -->
  <g transform="translate(100, 70)">
    <path d="M 30 20 L 40 35 L 35 35 Z M 50 15 L 60 35 L 45 35 Z M 65 20 L 75 35 L 70 35 Z M 30 35 L 75 35 L 73 45 L 32 45 Z"
          fill="url(#goldGradient)" filter="url(#glow)" stroke="#B89842" stroke-width="0.5"/>
    <circle cx="40" cy="25" r="3" fill="#4FD1C5" filter="url(#glow)"/>
    <circle cx="52" cy="20" r="4" fill="#4FD1C5" filter="url(#glow)"/>
    <circle cx="65" cy="25" r="3" fill="#4FD1C5" filter="url(#glow)"/>
  </g>

  <!-- Title with shadow -->
  <text x="280" y="180" font-family="Georgia, serif" font-size="72" font-weight="bold"
        fill="url(#goldGradient)" filter="url(#shadow)">Logistics Partners</text>

  <!-- Subtitle with subtle glow -->
  <text x="280" y="230" font-family="Arial, sans-serif" font-size="36"
        fill="#D6DEE6" opacity="0.95" filter="url(#softGlow)">Reliable Delivery Across Russia</text>

  <!-- Brand name with letter spacing -->
  <text x="280" y="300" font-family="Georgia, serif" font-size="32" font-weight="bold"
        fill="#CFAE58" letter-spacing="4" filter="url(#glow)">ROYAL KETA</text>

  <!-- Russian tagline -->
  <text x="280" y="340" font-family="Arial, sans-serif" font-size="22" font-style="italic"
        fill="#8B95A1" opacity="0.8">От икринки к королевской</text>

  <!-- Location -->
  <text x="280" y="380" font-family="Arial, sans-serif" font-size="20"
        fill="#8B95A1" opacity="0.7">Невельский район, Сахалин</text>

  <!-- Website with glow -->
  <text x="100" y="570" font-family="Arial, sans-serif" font-size="30" font-weight="bold"
        fill="#4FD1C5" filter="url(#glow)">royalketa.com</text>

  <!-- Enhanced decorative salmon silhouette -->
  <g transform="translate(950, 480)" opacity="0.2" filter="url(#softGlow)">
    <ellipse cx="0" cy="0" rx="90" ry="35" fill="#CFAE58"/>
    <path d="M 90 0 L 120 -18 L 130 0 L 120 18 Z" fill="#CFAE58"/>
    <path d="M -25 -35 L 0 -45 L 25 -35 Z" fill="#CFAE58"/>
    <ellipse cx="-50" cy="0" rx="15" ry="12" fill="#0B0F14"/>
  </g>

  <!-- Additional decorative caviar clusters -->
  <g opacity="0.2">
    <circle cx="1050" cy="120" r="6" fill="#CFAE58"/>
    <circle cx="1065" cy="115" r="5" fill="#CFAE58"/>
    <circle cx="1058" cy="130" r="4" fill="#CFAE58"/>
    <circle cx="150" cy="500" r="5" fill="#4FD1C5"/>
    <circle cx="165" cy="508" r="4" fill="#4FD1C5"/>
    <circle cx="140" cy="512" r="5" fill="#4FD1C5"/>
  </g>
</svg>