<svg width="1200" height="630" xmlns="http://www.w3.org/2000/svg">
  <defs>
    <linearGradient id="bgGradient" x1="0%" y1="0%" x2="100%" y2="100%">
      <stop offset="0%" style="stop-color:#0B0F14;stop-opacity:1" />
      <stop offset="50%" style="stop-color:#0F1619;stop-opacity:1" />
      <stop offset="100%" style="stop-color:#0F1922;stop-opacity:1" />
    </linearGradient>
    <linearGradient id="goldGradient" x1="0%" y1="0%" x2="100%" y2="0%">
      <stop offset="0%" style="stop-color:#E5D596;stop-opacity:1" />
      <stop offset="50%" style="stop-color:#CFAE58;stop-opacity:1" />
      <stop offset="100%" style="stop-color:#B89842;stop-opacity:1" />
    </linearGradient>
    <radialGradient id="oceanGradient" cx="50%" cy="50%" r="50%">
      <stop offset="0%" style="stop-color:#4FD1C5;stop-opacity:0.3" />
      <stop offset="100%" style="stop-color:#1E90A0;stop-opacity:0.05" />
    </radialGradient>
    <filter id="glow">
      <feGaussianBlur stdDeviation="5" result="coloredBlur"/>
      <feMerge>
        <feMergeNode in="coloredBlur"/>
        <feMergeNode in="SourceGraphic"/>
      </feMerge>
    </filter>
    <filter id="softGlow">
      <feGaussianBlur stdDeviation="8" result="coloredBlur"/>
      <feMerge>
        <feMergeNode in="coloredBlur"/>
        <feMergeNode in="SourceGraphic"/>
      </feMerge>
    </filter>
    <filter id="shadow">
      <feDropShadow dx="0" dy="4" stdDeviation="8" flood-color="#000000" flood-opacity="0.5"/>
    </filter>
  </defs>

  <!-- Background -->
  <rect width="1200" height="630" fill="url(#bgGradient)"/>

  <!-- Decorative ocean gradients -->
  <ellipse cx="1000" cy="150" rx="300" ry="200" fill="url(#oceanGradient)" opacity="0.4"/>
  <ellipse cx="200" cy="530" rx="250" ry="180" fill="url(#oceanGradient)" opacity="0.3"/>

  <!-- Wave patterns -->
  <path d="M 0 400 Q 300 350 600 400 T 1200 400 L 1200 630 L 0 630 Z" fill="#1E90A0" opacity="0.08"/>
  <path d="M 0 450 Q 250 420 500 450 T 1000 450 T 1200 450 L 1200 630 L 0 630 Z" fill="#4FD1C5" opacity="0.05"/>

  <!-- Caviar roe particles -->
  <circle cx="586.3572250834402" cy="613.0292118557223" r="4.974017728778421" fill="#CFAE58" opacity="0.179837914862561"/>
  <circle cx="333.42811235012385" cy="272.03900914995165" r="5.019729094407032" fill="#CFAE58" opacity="0.18611008952709002"/>
  <circle cx="214.24476988962047" cy="322.5953684415257" r="5.21395797110498" fill="#CFAE58" opacity="0.188009587157124"/>
  <circle cx="438.52186541673115" cy="257.263621290249" r="3.8835908426557717" fill="#CFAE58" opacity="0.2479465530592088"/>
  <circle cx="346.3565541823578" cy="334.2610864402872" r="2.8574881419879485" fill="#CFAE58" opacity="0.20695467645306176"/>
  <circle cx="1086.6047007893355" cy="380.25418179464157" r="5.58103494419353" fill="#CFAE58" opacity="0.23298134114882008"/>
  <circle cx="842.1077306329041" cy="222.66497939383663" r="5.386109920996599" fill="#CFAE58" opacity="0.17055436335355922"/>
  <circle cx="868.6454915798818" cy="385.07065651217346" r="4.111506763994823" fill="#CFAE58" opacity="0.24630747234299444"/>
  <circle cx="201.94781888079217" cy="344.05991909913246" r="2.2609547086237907" fill="#CFAE58" opacity="0.20299119721537892"/>
  <circle cx="193.12857441937882" cy="505.48002433285046" r="5.31300363012695" fill="#CFAE58" opacity="0.1274678269091319"/>
  <circle cx="779.2950672138982" cy="199.3966086041879" r="3.729968357002681" fill="#CFAE58" opacity="0.17356124982915846"/>
  <circle cx="675.5795734767604" cy="546.0315620011296" r="2.7838127610110437" fill="#CFAE58" opacity="0.1410213946683571"/>
  <circle cx="360.91993646468137" cy="344.8374047209379" r="3.690893495158276" fill="#CFAE58" opacity="0.20174524133684252"/>
  <circle cx="1002.8833979975874" cy="318.18356550357527" r="5.416468885018808" fill="#CFAE58" opacity="0.13574071054404926"/>
  <circle cx="897.9446913163337" cy="582.4724263322165" r="2.527373051041625" fill="#CFAE58" opacity="0.1871257904358979"/>
  <circle cx="322.021285684569" cy="359.53879745885814" r="5.425423647406263" fill="#CFAE58" opacity="0.24625679297016134"/>
  <circle cx="564.0663178357837" cy="325.79018520716266" r="4.754954957219016" fill="#CFAE58" opacity="0.2263480464625133"/>
  <circle cx="269.2633680112819" cy="52.290564772248025" r="5.428041918521856" fill="#CFAE58" opacity="0.12066947685860276"/>
  <circle cx="557.277282376309" cy="592.2472484320906" r="5.476719544799095" fill="#CFAE58" opacity="0.11312517917001372"/>
  <circle cx="323.67132487187564" cy="37.32301914960769" r="2.514694889706572" fill="#CFAE58" opacity="0.2181695622251861"/>
  <circle cx="719.2110211773528" cy="143.3145682000131" r="5.5132223433623455" fill="#CFAE58" opacity="0.13391983902747973"/>
  <circle cx="401.8522094036494" cy="39.53928421185011" r="5.479677489203823" fill="#CFAE58" opacity="0.10228570345339619"/>
  <circle cx="795.1545892104511" cy="456.60207018204886" r="5.263384701593152" fill="#CFAE58" opacity="0.17829500302727602"/>
  <circle cx="159.87989420407462" cy="112.9332495458631" r="4.262335120135537" fill="#CFAE58" opacity="0.14185356457811416"/>
  <circle cx="201.5256573216961" cy="323.9457227353317" r="4.723772062086637" fill="#CFAE58" opacity="0.21981389905878435"/>
  <circle cx="177.11466991278007" cy="436.6051708050768" r="2.357941870185506" fill="#CFAE58" opacity="0.21515355205780226"/>
  <circle cx="490.00378562278416" cy="572.4111686700834" r="2.616828276627885" fill="#CFAE58" opacity="0.11925049903046331"/>
  <circle cx="860.9804660381158" cy="550.1818477401944" r="3.977312130283222" fill="#CFAE58" opacity="0.21079458194129552"/>
  <circle cx="456.27932108793647" cy="246.91887295496343" r="5.505522678324365" fill="#CFAE58" opacity="0.17271906678196003"/>
  <circle cx="222.00546736681906" cy="225.13733151630936" r="5.9607885058339996" fill="#CFAE58" opacity="0.13754820642629817"/>

  <!-- Border with glow -->
  <rect x="40" y="40" width="1120" height="550" fill="none" stroke="url(#goldGradient)" stroke-width="3" rx="12" filter="url(#softGlow)"/>

  <!-- Icon circle with premium background -->
  <circle cx="150" cy="200" r="75" fill="#CFAE58" opacity="0.15" filter="url(#softGlow)"/>
  <circle cx="150" cy="200" r="70" fill="#CFAE58" opacity="0.25"/>
  <text x="150" y="235" font-size="90" text-anchor="middle" fill="#CFAE58" filter="url(#glow)">🚚</text>

  <!-- Premium logo (crown) with enhanced styling -->
  <g transform="translate(100, 70)">
    <path d="M 30 20 L 40 35 L 35 35 Z M 50 15 L 60 35 L 45 35 Z M 65 20 L 75 35 L 70 35 Z M 30 35 L 75 35 L 73 45 L 32 45 Z"
          fill="url(#goldGradient)" filter="url(#glow)" stroke="#B89842" stroke-width="0.5"/>
    <circle cx="40" cy="25" r="3" fill="#4FD1C5" filter="url(#glow)"/>
    <circle cx="52" cy="20" r="4" fill="#4FD1C5" filter="url(#glow)"/>
    <circle cx="65" cy="25" r="3" fill="#4FD1C5" filter="url(#glow)"/>
  </g>

  <!-- Title with shadow -->
  <text x="280" y="180" font-family="Georgia, serif" font-size="72" font-weight="bold"
        fill="url(#goldGradient)" filter="url(#shadow)">Logistics Partners</text>

  <!-- Subtitle with subtle glow -->
  <text x="280" y="230" font-family="Arial, sans-serif" font-size="36"
        fill="#D6DEE6" opacity="0.95" filter="url(#softGlow)">Reliable Delivery Across Russia</text>

  <!-- Brand name with letter spacing -->
  <text x="280" y="300" font-family="Georgia, serif" font-size="32" font-weight="bold"
        fill="#CFAE58" letter-spacing="4" filter="url(#glow)">ROYAL KETA</text>

  <!-- Russian tagline -->
  <text x="280" y="340" font-family="Arial, sans-serif" font-size="22" font-style="italic"
        fill="#8B95A1" opacity="0.8">От икринки к королевской</text>

  <!-- Location -->
  <text x="280" y="380" font-family="Arial, sans-serif" font-size="20"
        fill="#8B95A1" opacity="0.7">Невельский район, Сахалин</text>

  <!-- Website with glow -->
  <text x="100" y="570" font-family="Arial, sans-serif" font-size="30" font-weight="bold"
        fill="#4FD1C5" filter="url(#glow)">royalketa.com</text>

  <!-- Enhanced decorative salmon silhouette -->
  <g transform="translate(950, 480)" opacity="0.2" filter="url(#softGlow)">
    <ellipse cx="0" cy="0" rx="90" ry="35" fill="#CFAE58"/>
    <path d="M 90 0 L 120 -18 L 130 0 L 120 18 Z" fill="#CFAE58"/>
    <path d="M -25 -35 L 0 -45 L 25 -35 Z" fill="#CFAE58"/>
    <ellipse cx="-50" cy="0" rx="15" ry="12" fill="#0B0F14"/>
  </g>

  <!-- Additional decorative caviar clusters -->
  <g opacity="0.2">
    <circle cx="1050" cy="120" r="6" fill="#CFAE58"/>
    <circle cx="1065" cy="115" r="5" fill="#CFAE58"/>
    <circle cx="1058" cy="130" r="4" fill="#CFAE58"/>
    <circle cx="150" cy="500" r="5" fill="#4FD1C5"/>
    <circle cx="165" cy="508" r="4" fill="#4FD1C5"/>
    <circle cx="140" cy="512" r="5" fill="#4FD1C5"/>
  </g>
</svg>