<svg width="1200" height="630" xmlns="http://www.w3.org/2000/svg">
  <defs>
    <linearGradient id="bgGradient" x1="0%" y1="0%" x2="100%" y2="100%">
      <stop offset="0%" style="stop-color:#0B0F14;stop-opacity:1" />
      <stop offset="50%" style="stop-color:#0F1619;stop-opacity:1" />
      <stop offset="100%" style="stop-color:#0F1922;stop-opacity:1" />
    </linearGradient>
    <linearGradient id="goldGradient" x1="0%" y1="0%" x2="100%" y2="0%">
      <stop offset="0%" style="stop-color:#E5D596;stop-opacity:1" />
      <stop offset="50%" style="stop-color:#CFAE58;stop-opacity:1" />
      <stop offset="100%" style="stop-color:#B89842;stop-opacity:1" />
    </linearGradient>
    <radialGradient id="oceanGradient" cx="50%" cy="50%" r="50%">
      <stop offset="0%" style="stop-color:#4FD1C5;stop-opacity:0.3" />
      <stop offset="100%" style="stop-color:#1E90A0;stop-opacity:0.05" />
    </radialGradient>
    <filter id="glow">
      <feGaussianBlur stdDeviation="5" result="coloredBlur"/>
      <feMerge>
        <feMergeNode in="coloredBlur"/>
        <feMergeNode in="SourceGraphic"/>
      </feMerge>
    </filter>
    <filter id="softGlow">
      <feGaussianBlur stdDeviation="8" result="coloredBlur"/>
      <feMerge>
        <feMergeNode in="coloredBlur"/>
        <feMergeNode in="SourceGraphic"/>
      </feMerge>
    </filter>
    <filter id="shadow">
      <feDropShadow dx="0" dy="4" stdDeviation="8" flood-color="#000000" flood-opacity="0.5"/>
    </filter>
  </defs>

  <!-- Background -->
  <rect width="1200" height="630" fill="url(#bgGradient)"/>

  <!-- Decorative ocean gradients -->
  <ellipse cx="1000" cy="150" rx="300" ry="200" fill="url(#oceanGradient)" opacity="0.4"/>
  <ellipse cx="200" cy="530" rx="250" ry="180" fill="url(#oceanGradient)" opacity="0.3"/>

  <!-- Wave patterns -->
  <path d="M 0 400 Q 300 350 600 400 T 1200 400 L 1200 630 L 0 630 Z" fill="#1E90A0" opacity="0.08"/>
  <path d="M 0 450 Q 250 420 500 450 T 1000 450 T 1200 450 L 1200 630 L 0 630 Z" fill="#4FD1C5" opacity="0.05"/>

  <!-- Caviar roe particles -->
  <circle cx="344.75248646494146" cy="355.0669797712291" r="2.4993537780750206" fill="#CFAE58" opacity="0.1053409134051477"/>
  <circle cx="261.10484079947315" cy="584.1956676523096" r="4.976369568469479" fill="#CFAE58" opacity="0.16129890499929764"/>
  <circle cx="761.1052688658209" cy="589.9672689690849" r="2.951486798009811" fill="#CFAE58" opacity="0.14205760205638795"/>
  <circle cx="609.6646747624253" cy="582.1547247857352" r="4.29269313109754" fill="#CFAE58" opacity="0.20105476059912403"/>
  <circle cx="571.1167255996111" cy="374.5767451434654" r="3.0464304147403567" fill="#CFAE58" opacity="0.23626661055671305"/>
  <circle cx="1015.4223130507098" cy="38.373159926144154" r="3.9052103439374903" fill="#CFAE58" opacity="0.1401494896262822"/>
  <circle cx="237.1573537512532" cy="340.684982700921" r="5.721780938633943" fill="#CFAE58" opacity="0.21061980449003273"/>
  <circle cx="290.4207850221487" cy="107.34260200262536" r="3.935055937134064" fill="#CFAE58" opacity="0.12150556666158609"/>
  <circle cx="621.8747610952166" cy="407.9901014532298" r="3.048443977679824" fill="#CFAE58" opacity="0.14237288859451727"/>
  <circle cx="1155.9930312460422" cy="553.8278240723985" r="2.1323195098043053" fill="#CFAE58" opacity="0.119103100096061"/>
  <circle cx="402.3395761221464" cy="67.88136754024386" r="5.340657047090991" fill="#CFAE58" opacity="0.15771437297724766"/>
  <circle cx="969.5252143248866" cy="436.1080542653268" r="2.5355030850533256" fill="#CFAE58" opacity="0.23799917946802268"/>
  <circle cx="608.0200600242051" cy="112.14195684165192" r="3.6532658448618784" fill="#CFAE58" opacity="0.17451005397360853"/>
  <circle cx="57.375970589680136" cy="485.6663094319914" r="3.863186237131533" fill="#CFAE58" opacity="0.24892844494653193"/>
  <circle cx="913.1487316596953" cy="33.75281469623742" r="4.543709482455471" fill="#CFAE58" opacity="0.14754294145473154"/>
  <circle cx="619.0012648050938" cy="222.19029938082252" r="4.965773291038261" fill="#CFAE58" opacity="0.20942297632978596"/>
  <circle cx="972.5523635980591" cy="395.83308749949737" r="5.7455904485329015" fill="#CFAE58" opacity="0.14661416417548856"/>
  <circle cx="815.3835373711479" cy="361.09109133827434" r="5.530480799694907" fill="#CFAE58" opacity="0.22390723155643588"/>
  <circle cx="542.9641134954383" cy="327.29448431506387" r="5.85739183789785" fill="#CFAE58" opacity="0.16798518343013608"/>
  <circle cx="58.66120663833705" cy="367.2370880915761" r="4.973292425161743" fill="#CFAE58" opacity="0.21872270493256538"/>
  <circle cx="33.87014191210813" cy="417.7397389805306" r="3.8519605845256972" fill="#CFAE58" opacity="0.1333538753796992"/>
  <circle cx="1053.4808182133597" cy="593.9731277275038" r="3.63150953042342" fill="#CFAE58" opacity="0.11796716206863901"/>
  <circle cx="1062.141692077765" cy="117.8952504778022" r="2.6499676199634887" fill="#CFAE58" opacity="0.10836175141419625"/>
  <circle cx="7.097218022327656" cy="51.70718263019484" r="4.670853015836123" fill="#CFAE58" opacity="0.12246944785860553"/>
  <circle cx="1140.3581256176817" cy="483.49391715324765" r="3.6685983501023633" fill="#CFAE58" opacity="0.17632302956180596"/>
  <circle cx="683.4465227673187" cy="93.67418074133758" r="4.328242366875293" fill="#CFAE58" opacity="0.23055508307343048"/>
  <circle cx="1033.4127319912204" cy="75.37846076198444" r="4.267197288216063" fill="#CFAE58" opacity="0.2280820131197648"/>
  <circle cx="726.834842843934" cy="396.3817849833356" r="2.026133648492168" fill="#CFAE58" opacity="0.10231103845618676"/>
  <circle cx="522.112573636344" cy="336.11194862955244" r="3.3249400616460223" fill="#CFAE58" opacity="0.2151188032810054"/>
  <circle cx="704.0222204349435" cy="353.69133784681674" r="3.236798447894045" fill="#CFAE58" opacity="0.22141820301676912"/>

  <!-- Border with glow -->
  <rect x="40" y="40" width="1120" height="550" fill="none" stroke="url(#goldGradient)" stroke-width="3" rx="12" filter="url(#softGlow)"/>

  <!-- Icon circle with premium background -->
  <circle cx="150" cy="200" r="75" fill="#CFAE58" opacity="0.15" filter="url(#softGlow)"/>
  <circle cx="150" cy="200" r="70" fill="#CFAE58" opacity="0.25"/>
  <text x="150" y="235" font-size="90" text-anchor="middle" fill="#CFAE58" filter="url(#glow)">🚚</text>

  <!-- Premium logo (crown) with enhanced styling -->
  <g transform="translate(100, 70)">
    <path d="M 30 20 L 40 35 L 35 35 Z M 50 15 L 60 35 L 45 35 Z M 65 20 L 75 35 L 70 35 Z M 30 35 L 75 35 L 73 45 L 32 45 Z"
          fill="url(#goldGradient)" filter="url(#glow)" stroke="#B89842" stroke-width="0.5"/>
    <circle cx="40" cy="25" r="3" fill="#4FD1C5" filter="url(#glow)"/>
    <circle cx="52" cy="20" r="4" fill="#4FD1C5" filter="url(#glow)"/>
    <circle cx="65" cy="25" r="3" fill="#4FD1C5" filter="url(#glow)"/>
  </g>

  <!-- Title with shadow -->
  <text x="280" y="180" font-family="Georgia, serif" font-size="72" font-weight="bold"
        fill="url(#goldGradient)" filter="url(#shadow)">Logistics Partners</text>

  <!-- Subtitle with subtle glow -->
  <text x="280" y="230" font-family="Arial, sans-serif" font-size="36"
        fill="#D6DEE6" opacity="0.95" filter="url(#softGlow)">Reliable Delivery Across Russia</text>

  <!-- Brand name with letter spacing -->
  <text x="280" y="300" font-family="Georgia, serif" font-size="32" font-weight="bold"
        fill="#CFAE58" letter-spacing="4" filter="url(#glow)">ROYAL KETA</text>

  <!-- Russian tagline -->
  <text x="280" y="340" font-family="Arial, sans-serif" font-size="22" font-style="italic"
        fill="#8B95A1" opacity="0.8">От икринки к королевской</text>

  <!-- Location -->
  <text x="280" y="380" font-family="Arial, sans-serif" font-size="20"
        fill="#8B95A1" opacity="0.7">Невельский район, Сахалин</text>

  <!-- Website with glow -->
  <text x="100" y="570" font-family="Arial, sans-serif" font-size="30" font-weight="bold"
        fill="#4FD1C5" filter="url(#glow)">royalketa.com</text>

  <!-- Enhanced decorative salmon silhouette -->
  <g transform="translate(950, 480)" opacity="0.2" filter="url(#softGlow)">
    <ellipse cx="0" cy="0" rx="90" ry="35" fill="#CFAE58"/>
    <path d="M 90 0 L 120 -18 L 130 0 L 120 18 Z" fill="#CFAE58"/>
    <path d="M -25 -35 L 0 -45 L 25 -35 Z" fill="#CFAE58"/>
    <ellipse cx="-50" cy="0" rx="15" ry="12" fill="#0B0F14"/>
  </g>

  <!-- Additional decorative caviar clusters -->
  <g opacity="0.2">
    <circle cx="1050" cy="120" r="6" fill="#CFAE58"/>
    <circle cx="1065" cy="115" r="5" fill="#CFAE58"/>
    <circle cx="1058" cy="130" r="4" fill="#CFAE58"/>
    <circle cx="150" cy="500" r="5" fill="#4FD1C5"/>
    <circle cx="165" cy="508" r="4" fill="#4FD1C5"/>
    <circle cx="140" cy="512" r="5" fill="#4FD1C5"/>
  </g>
</svg>