<svg width="1200" height="630" xmlns="http://www.w3.org/2000/svg">
  <defs>
    <linearGradient id="bgGradient" x1="0%" y1="0%" x2="100%" y2="100%">
      <stop offset="0%" style="stop-color:#0B0F14;stop-opacity:1" />
      <stop offset="50%" style="stop-color:#0F1619;stop-opacity:1" />
      <stop offset="100%" style="stop-color:#0F1922;stop-opacity:1" />
    </linearGradient>
    <linearGradient id="goldGradient" x1="0%" y1="0%" x2="100%" y2="0%">
      <stop offset="0%" style="stop-color:#E5D596;stop-opacity:1" />
      <stop offset="50%" style="stop-color:#CFAE58;stop-opacity:1" />
      <stop offset="100%" style="stop-color:#B89842;stop-opacity:1" />
    </linearGradient>
    <radialGradient id="oceanGradient" cx="50%" cy="50%" r="50%">
      <stop offset="0%" style="stop-color:#4FD1C5;stop-opacity:0.3" />
      <stop offset="100%" style="stop-color:#1E90A0;stop-opacity:0.05" />
    </radialGradient>
    <filter id="glow">
      <feGaussianBlur stdDeviation="5" result="coloredBlur"/>
      <feMerge>
        <feMergeNode in="coloredBlur"/>
        <feMergeNode in="SourceGraphic"/>
      </feMerge>
    </filter>
    <filter id="softGlow">
      <feGaussianBlur stdDeviation="8" result="coloredBlur"/>
      <feMerge>
        <feMergeNode in="coloredBlur"/>
        <feMergeNode in="SourceGraphic"/>
      </feMerge>
    </filter>
    <filter id="shadow">
      <feDropShadow dx="0" dy="4" stdDeviation="8" flood-color="#000000" flood-opacity="0.5"/>
    </filter>
  </defs>

  <!-- Background -->
  <rect width="1200" height="630" fill="url(#bgGradient)"/>

  <!-- Decorative ocean gradients -->
  <ellipse cx="1000" cy="150" rx="300" ry="200" fill="url(#oceanGradient)" opacity="0.4"/>
  <ellipse cx="200" cy="530" rx="250" ry="180" fill="url(#oceanGradient)" opacity="0.3"/>

  <!-- Wave patterns -->
  <path d="M 0 400 Q 300 350 600 400 T 1200 400 L 1200 630 L 0 630 Z" fill="#1E90A0" opacity="0.08"/>
  <path d="M 0 450 Q 250 420 500 450 T 1000 450 T 1200 450 L 1200 630 L 0 630 Z" fill="#4FD1C5" opacity="0.05"/>

  <!-- Caviar roe particles -->
  <circle cx="1057.845805339004" cy="312.52103341476396" r="2.321481488187005" fill="#CFAE58" opacity="0.19996926940080498"/>
  <circle cx="463.5858339745653" cy="13.396578381173505" r="2.470707166388851" fill="#CFAE58" opacity="0.2495033423739738"/>
  <circle cx="953.4101723072054" cy="613.1320340013331" r="3.8041588090630487" fill="#CFAE58" opacity="0.17326832949289656"/>
  <circle cx="1119.5637527863385" cy="464.72006270472536" r="2.203647790542676" fill="#CFAE58" opacity="0.23498466030044934"/>
  <circle cx="241.06934232434742" cy="361.3716598669938" r="3.2811922734040344" fill="#CFAE58" opacity="0.11355473688162113"/>
  <circle cx="483.56396665042814" cy="502.0032170486615" r="2.594647189332888" fill="#CFAE58" opacity="0.20279162395387124"/>
  <circle cx="993.110612076416" cy="266.0331465008556" r="2.8838269847319786" fill="#CFAE58" opacity="0.18094733124660484"/>
  <circle cx="697.3634934721147" cy="485.7843053629113" r="4.793946212976745" fill="#CFAE58" opacity="0.19018280382933633"/>
  <circle cx="373.18295874512495" cy="126.03204415284677" r="5.126169541336717" fill="#CFAE58" opacity="0.21462631620366485"/>
  <circle cx="556.9096312784156" cy="323.7041705975017" r="2.4251765877827944" fill="#CFAE58" opacity="0.22978601939375315"/>
  <circle cx="1016.6645219550787" cy="316.25792020263395" r="2.3151227464804753" fill="#CFAE58" opacity="0.24278493647212085"/>
  <circle cx="577.7481955140947" cy="165.57410969657482" r="2.030883897075591" fill="#CFAE58" opacity="0.13589109480293002"/>
  <circle cx="161.75452967922473" cy="592.5681803546266" r="5.627484907185377" fill="#CFAE58" opacity="0.17546728720299798"/>
  <circle cx="601.7638075273971" cy="362.1025732921092" r="4.51269517009837" fill="#CFAE58" opacity="0.11731602277467035"/>
  <circle cx="1087.2055083568894" cy="606.1800241472616" r="3.8404957735279623" fill="#CFAE58" opacity="0.15660766160709452"/>
  <circle cx="455.12472926863535" cy="227.01993472599247" r="2.7252397895971665" fill="#CFAE58" opacity="0.19609911150835307"/>
  <circle cx="192.21906256716306" cy="601.6447304422974" r="2.854143105110918" fill="#CFAE58" opacity="0.2122438220250054"/>
  <circle cx="881.4388572360423" cy="166.7881653772477" r="4.979624870220266" fill="#CFAE58" opacity="0.20521188930023304"/>
  <circle cx="430.20463081851403" cy="111.71203556588185" r="2.1411778920682565" fill="#CFAE58" opacity="0.2265694556129248"/>
  <circle cx="143.6173168906307" cy="420.70326049173946" r="3.9676894131006524" fill="#CFAE58" opacity="0.19031602683786514"/>
  <circle cx="172.69030982812365" cy="603.0932816003763" r="3.3464796690597254" fill="#CFAE58" opacity="0.14355648002272875"/>
  <circle cx="452.7512294755016" cy="335.8800900556796" r="2.3076128871604764" fill="#CFAE58" opacity="0.20758780550490352"/>
  <circle cx="1171.1582231801553" cy="622.3843490616258" r="5.33356657698621" fill="#CFAE58" opacity="0.18605167982527038"/>
  <circle cx="920.9213040487741" cy="393.4953135746205" r="5.07366782268037" fill="#CFAE58" opacity="0.2087313691218138"/>
  <circle cx="795.0964238030806" cy="450.8445420596145" r="2.704491711658161" fill="#CFAE58" opacity="0.11829031443256521"/>
  <circle cx="846.2557591473578" cy="526.3140441199197" r="3.8172822391549417" fill="#CFAE58" opacity="0.15172058896854204"/>
  <circle cx="938.889726392631" cy="625.6155110900972" r="4.361115279379058" fill="#CFAE58" opacity="0.22377196062068913"/>
  <circle cx="292.0846192745291" cy="382.8172329461398" r="5.367359851046792" fill="#CFAE58" opacity="0.2270635649216257"/>
  <circle cx="1060.6864823718881" cy="620.364866087578" r="3.5559384781399137" fill="#CFAE58" opacity="0.12418166483529776"/>
  <circle cx="635.2956965599964" cy="29.809475041267962" r="5.647235577863507" fill="#CFAE58" opacity="0.1508408910388756"/>

  <!-- Border with glow -->
  <rect x="40" y="40" width="1120" height="550" fill="none" stroke="url(#goldGradient)" stroke-width="3" rx="12" filter="url(#softGlow)"/>

  <!-- Icon circle with premium background -->
  <circle cx="150" cy="200" r="75" fill="#CFAE58" opacity="0.15" filter="url(#softGlow)"/>
  <circle cx="150" cy="200" r="70" fill="#CFAE58" opacity="0.25"/>
  <text x="150" y="235" font-size="90" text-anchor="middle" fill="#CFAE58" filter="url(#glow)">🚚</text>

  <!-- Premium logo (crown) with enhanced styling -->
  <g transform="translate(100, 70)">
    <path d="M 30 20 L 40 35 L 35 35 Z M 50 15 L 60 35 L 45 35 Z M 65 20 L 75 35 L 70 35 Z M 30 35 L 75 35 L 73 45 L 32 45 Z"
          fill="url(#goldGradient)" filter="url(#glow)" stroke="#B89842" stroke-width="0.5"/>
    <circle cx="40" cy="25" r="3" fill="#4FD1C5" filter="url(#glow)"/>
    <circle cx="52" cy="20" r="4" fill="#4FD1C5" filter="url(#glow)"/>
    <circle cx="65" cy="25" r="3" fill="#4FD1C5" filter="url(#glow)"/>
  </g>

  <!-- Title with shadow -->
  <text x="280" y="180" font-family="Georgia, serif" font-size="72" font-weight="bold"
        fill="url(#goldGradient)" filter="url(#shadow)">Logistics Partners</text>

  <!-- Subtitle with subtle glow -->
  <text x="280" y="230" font-family="Arial, sans-serif" font-size="36"
        fill="#D6DEE6" opacity="0.95" filter="url(#softGlow)">Reliable Delivery Across Russia</text>

  <!-- Brand name with letter spacing -->
  <text x="280" y="300" font-family="Georgia, serif" font-size="32" font-weight="bold"
        fill="#CFAE58" letter-spacing="4" filter="url(#glow)">ROYAL KETA</text>

  <!-- Russian tagline -->
  <text x="280" y="340" font-family="Arial, sans-serif" font-size="22" font-style="italic"
        fill="#8B95A1" opacity="0.8">От икринки к королевской</text>

  <!-- Location -->
  <text x="280" y="380" font-family="Arial, sans-serif" font-size="20"
        fill="#8B95A1" opacity="0.7">Невельский район, Сахалин</text>

  <!-- Website with glow -->
  <text x="100" y="570" font-family="Arial, sans-serif" font-size="30" font-weight="bold"
        fill="#4FD1C5" filter="url(#glow)">royalketa.com</text>

  <!-- Enhanced decorative salmon silhouette -->
  <g transform="translate(950, 480)" opacity="0.2" filter="url(#softGlow)">
    <ellipse cx="0" cy="0" rx="90" ry="35" fill="#CFAE58"/>
    <path d="M 90 0 L 120 -18 L 130 0 L 120 18 Z" fill="#CFAE58"/>
    <path d="M -25 -35 L 0 -45 L 25 -35 Z" fill="#CFAE58"/>
    <ellipse cx="-50" cy="0" rx="15" ry="12" fill="#0B0F14"/>
  </g>

  <!-- Additional decorative caviar clusters -->
  <g opacity="0.2">
    <circle cx="1050" cy="120" r="6" fill="#CFAE58"/>
    <circle cx="1065" cy="115" r="5" fill="#CFAE58"/>
    <circle cx="1058" cy="130" r="4" fill="#CFAE58"/>
    <circle cx="150" cy="500" r="5" fill="#4FD1C5"/>
    <circle cx="165" cy="508" r="4" fill="#4FD1C5"/>
    <circle cx="140" cy="512" r="5" fill="#4FD1C5"/>
  </g>
</svg>