<svg width="1200" height="630" xmlns="http://www.w3.org/2000/svg">
  <defs>
    <linearGradient id="bgGradient" x1="0%" y1="0%" x2="100%" y2="100%">
      <stop offset="0%" style="stop-color:#0B0F14;stop-opacity:1" />
      <stop offset="50%" style="stop-color:#0F1619;stop-opacity:1" />
      <stop offset="100%" style="stop-color:#0F1922;stop-opacity:1" />
    </linearGradient>
    <linearGradient id="goldGradient" x1="0%" y1="0%" x2="100%" y2="0%">
      <stop offset="0%" style="stop-color:#E5D596;stop-opacity:1" />
      <stop offset="50%" style="stop-color:#CFAE58;stop-opacity:1" />
      <stop offset="100%" style="stop-color:#B89842;stop-opacity:1" />
    </linearGradient>
    <radialGradient id="oceanGradient" cx="50%" cy="50%" r="50%">
      <stop offset="0%" style="stop-color:#4FD1C5;stop-opacity:0.3" />
      <stop offset="100%" style="stop-color:#1E90A0;stop-opacity:0.05" />
    </radialGradient>
    <filter id="glow">
      <feGaussianBlur stdDeviation="5" result="coloredBlur"/>
      <feMerge>
        <feMergeNode in="coloredBlur"/>
        <feMergeNode in="SourceGraphic"/>
      </feMerge>
    </filter>
    <filter id="softGlow">
      <feGaussianBlur stdDeviation="8" result="coloredBlur"/>
      <feMerge>
        <feMergeNode in="coloredBlur"/>
        <feMergeNode in="SourceGraphic"/>
      </feMerge>
    </filter>
    <filter id="shadow">
      <feDropShadow dx="0" dy="4" stdDeviation="8" flood-color="#000000" flood-opacity="0.5"/>
    </filter>
  </defs>

  <!-- Background -->
  <rect width="1200" height="630" fill="url(#bgGradient)"/>

  <!-- Decorative ocean gradients -->
  <ellipse cx="1000" cy="150" rx="300" ry="200" fill="url(#oceanGradient)" opacity="0.4"/>
  <ellipse cx="200" cy="530" rx="250" ry="180" fill="url(#oceanGradient)" opacity="0.3"/>

  <!-- Wave patterns -->
  <path d="M 0 400 Q 300 350 600 400 T 1200 400 L 1200 630 L 0 630 Z" fill="#1E90A0" opacity="0.08"/>
  <path d="M 0 450 Q 250 420 500 450 T 1000 450 T 1200 450 L 1200 630 L 0 630 Z" fill="#4FD1C5" opacity="0.05"/>

  <!-- Caviar roe particles -->
  <circle cx="298.70519186855097" cy="220.99999117390146" r="5.242401439634012" fill="#CFAE58" opacity="0.24171005018841435"/>
  <circle cx="164.18711396236776" cy="494.1586308663896" r="3.537787216953256" fill="#CFAE58" opacity="0.10016691686578755"/>
  <circle cx="41.643679191936656" cy="366.94634533758534" r="4.213231594040993" fill="#CFAE58" opacity="0.21292226631367744"/>
  <circle cx="218.42614012978095" cy="276.34932874001" r="2.3683687620857117" fill="#CFAE58" opacity="0.21141901346841857"/>
  <circle cx="571.3745804388548" cy="533.2930812165336" r="4.283452606679344" fill="#CFAE58" opacity="0.17405338061135966"/>
  <circle cx="285.04483431725214" cy="452.974643356514" r="4.4641957756448996" fill="#CFAE58" opacity="0.17300163534472493"/>
  <circle cx="689.8660820154098" cy="84.39982257659287" r="3.132162558070212" fill="#CFAE58" opacity="0.22189952839663868"/>
  <circle cx="42.4197532885302" cy="241.09479965384432" r="2.393345091200468" fill="#CFAE58" opacity="0.10353970221380886"/>
  <circle cx="598.3476403761923" cy="74.93813995256204" r="2.7075454231737233" fill="#CFAE58" opacity="0.13714653936002535"/>
  <circle cx="532.6465686123131" cy="33.91263662819937" r="2.9278723132165676" fill="#CFAE58" opacity="0.22837821117632218"/>
  <circle cx="54.79801956343975" cy="380.3355541785018" r="5.232074439338113" fill="#CFAE58" opacity="0.10685911252279598"/>
  <circle cx="462.13140337008525" cy="509.83430607430455" r="4.412462815355937" fill="#CFAE58" opacity="0.13455977028057564"/>
  <circle cx="340.3976306335704" cy="179.69516827284392" r="5.880117881644609" fill="#CFAE58" opacity="0.2235461841024927"/>
  <circle cx="389.94590885521944" cy="12.554815668392589" r="2.4930960119596217" fill="#CFAE58" opacity="0.1651510440027844"/>
  <circle cx="123.22202937717952" cy="477.4935759979194" r="3.0571044011235413" fill="#CFAE58" opacity="0.2245846271455216"/>
  <circle cx="1060.7271850730813" cy="96.72878781562665" r="3.7237346979550545" fill="#CFAE58" opacity="0.12095308454225333"/>
  <circle cx="139.9900408308941" cy="294.7009672878236" r="5.489834169423951" fill="#CFAE58" opacity="0.23431952541987944"/>
  <circle cx="233.46419986238735" cy="191.79868540775846" r="3.3211246294439847" fill="#CFAE58" opacity="0.19576236713117512"/>
  <circle cx="673.4685616415679" cy="328.31418127267443" r="2.074257399930303" fill="#CFAE58" opacity="0.10586528561565191"/>
  <circle cx="354.39065993472985" cy="598.8387167493939" r="3.207934836875505" fill="#CFAE58" opacity="0.19537424050723082"/>
  <circle cx="864.8980150215541" cy="250.3411728126923" r="4.102073840238017" fill="#CFAE58" opacity="0.19855266141337544"/>
  <circle cx="908.8395502496144" cy="217.63587026864897" r="4.943260263326156" fill="#CFAE58" opacity="0.16079896418016562"/>
  <circle cx="564.2574748545927" cy="19.575530298990344" r="5.499841035045275" fill="#CFAE58" opacity="0.16172316717222102"/>
  <circle cx="563.7478077398862" cy="31.686681950854855" r="4.991001985564832" fill="#CFAE58" opacity="0.10671785573828303"/>
  <circle cx="1105.3504850732572" cy="74.80307829129944" r="4.7266785412369" fill="#CFAE58" opacity="0.18567993288424117"/>
  <circle cx="622.1537187744102" cy="438.8584739764724" r="3.4720532463073734" fill="#CFAE58" opacity="0.15368142221116246"/>
  <circle cx="1143.9552703659667" cy="134.17108138938585" r="2.6521834939719695" fill="#CFAE58" opacity="0.11525776422559575"/>
  <circle cx="68.31854422138521" cy="508.5054692060759" r="5.5493698773998865" fill="#CFAE58" opacity="0.16742373173558783"/>
  <circle cx="609.7645384289892" cy="179.5269021574095" r="3.934590669743026" fill="#CFAE58" opacity="0.17247731596510757"/>
  <circle cx="330.6314387796645" cy="184.47384176501646" r="2.455597432952812" fill="#CFAE58" opacity="0.16811478984670464"/>

  <!-- Border with glow -->
  <rect x="40" y="40" width="1120" height="550" fill="none" stroke="url(#goldGradient)" stroke-width="3" rx="12" filter="url(#softGlow)"/>

  <!-- Icon circle with premium background -->
  <circle cx="150" cy="200" r="75" fill="#CFAE58" opacity="0.15" filter="url(#softGlow)"/>
  <circle cx="150" cy="200" r="70" fill="#CFAE58" opacity="0.25"/>
  <text x="150" y="235" font-size="90" text-anchor="middle" fill="#CFAE58" filter="url(#glow)">🚚</text>

  <!-- Premium logo (crown) with enhanced styling -->
  <g transform="translate(100, 70)">
    <path d="M 30 20 L 40 35 L 35 35 Z M 50 15 L 60 35 L 45 35 Z M 65 20 L 75 35 L 70 35 Z M 30 35 L 75 35 L 73 45 L 32 45 Z"
          fill="url(#goldGradient)" filter="url(#glow)" stroke="#B89842" stroke-width="0.5"/>
    <circle cx="40" cy="25" r="3" fill="#4FD1C5" filter="url(#glow)"/>
    <circle cx="52" cy="20" r="4" fill="#4FD1C5" filter="url(#glow)"/>
    <circle cx="65" cy="25" r="3" fill="#4FD1C5" filter="url(#glow)"/>
  </g>

  <!-- Title with shadow -->
  <text x="280" y="180" font-family="Georgia, serif" font-size="72" font-weight="bold"
        fill="url(#goldGradient)" filter="url(#shadow)">Logistics Partners</text>

  <!-- Subtitle with subtle glow -->
  <text x="280" y="230" font-family="Arial, sans-serif" font-size="36"
        fill="#D6DEE6" opacity="0.95" filter="url(#softGlow)">Reliable Delivery Across Russia</text>

  <!-- Brand name with letter spacing -->
  <text x="280" y="300" font-family="Georgia, serif" font-size="32" font-weight="bold"
        fill="#CFAE58" letter-spacing="4" filter="url(#glow)">ROYAL KETA</text>

  <!-- Russian tagline -->
  <text x="280" y="340" font-family="Arial, sans-serif" font-size="22" font-style="italic"
        fill="#8B95A1" opacity="0.8">От икринки к королевской</text>

  <!-- Location -->
  <text x="280" y="380" font-family="Arial, sans-serif" font-size="20"
        fill="#8B95A1" opacity="0.7">Невельский район, Сахалин</text>

  <!-- Website with glow -->
  <text x="100" y="570" font-family="Arial, sans-serif" font-size="30" font-weight="bold"
        fill="#4FD1C5" filter="url(#glow)">royalketa.com</text>

  <!-- Enhanced decorative salmon silhouette -->
  <g transform="translate(950, 480)" opacity="0.2" filter="url(#softGlow)">
    <ellipse cx="0" cy="0" rx="90" ry="35" fill="#CFAE58"/>
    <path d="M 90 0 L 120 -18 L 130 0 L 120 18 Z" fill="#CFAE58"/>
    <path d="M -25 -35 L 0 -45 L 25 -35 Z" fill="#CFAE58"/>
    <ellipse cx="-50" cy="0" rx="15" ry="12" fill="#0B0F14"/>
  </g>

  <!-- Additional decorative caviar clusters -->
  <g opacity="0.2">
    <circle cx="1050" cy="120" r="6" fill="#CFAE58"/>
    <circle cx="1065" cy="115" r="5" fill="#CFAE58"/>
    <circle cx="1058" cy="130" r="4" fill="#CFAE58"/>
    <circle cx="150" cy="500" r="5" fill="#4FD1C5"/>
    <circle cx="165" cy="508" r="4" fill="#4FD1C5"/>
    <circle cx="140" cy="512" r="5" fill="#4FD1C5"/>
  </g>
</svg>