<svg width="1200" height="630" xmlns="http://www.w3.org/2000/svg">
  <defs>
    <linearGradient id="bgGradient" x1="0%" y1="0%" x2="100%" y2="100%">
      <stop offset="0%" style="stop-color:#0B0F14;stop-opacity:1" />
      <stop offset="50%" style="stop-color:#0F1619;stop-opacity:1" />
      <stop offset="100%" style="stop-color:#0F1922;stop-opacity:1" />
    </linearGradient>
    <linearGradient id="goldGradient" x1="0%" y1="0%" x2="100%" y2="0%">
      <stop offset="0%" style="stop-color:#E5D596;stop-opacity:1" />
      <stop offset="50%" style="stop-color:#CFAE58;stop-opacity:1" />
      <stop offset="100%" style="stop-color:#B89842;stop-opacity:1" />
    </linearGradient>
    <radialGradient id="oceanGradient" cx="50%" cy="50%" r="50%">
      <stop offset="0%" style="stop-color:#4FD1C5;stop-opacity:0.3" />
      <stop offset="100%" style="stop-color:#1E90A0;stop-opacity:0.05" />
    </radialGradient>
    <filter id="glow">
      <feGaussianBlur stdDeviation="5" result="coloredBlur"/>
      <feMerge>
        <feMergeNode in="coloredBlur"/>
        <feMergeNode in="SourceGraphic"/>
      </feMerge>
    </filter>
    <filter id="softGlow">
      <feGaussianBlur stdDeviation="8" result="coloredBlur"/>
      <feMerge>
        <feMergeNode in="coloredBlur"/>
        <feMergeNode in="SourceGraphic"/>
      </feMerge>
    </filter>
    <filter id="shadow">
      <feDropShadow dx="0" dy="4" stdDeviation="8" flood-color="#000000" flood-opacity="0.5"/>
    </filter>
  </defs>

  <!-- Background -->
  <rect width="1200" height="630" fill="url(#bgGradient)"/>

  <!-- Decorative ocean gradients -->
  <ellipse cx="1000" cy="150" rx="300" ry="200" fill="url(#oceanGradient)" opacity="0.4"/>
  <ellipse cx="200" cy="530" rx="250" ry="180" fill="url(#oceanGradient)" opacity="0.3"/>

  <!-- Wave patterns -->
  <path d="M 0 400 Q 300 350 600 400 T 1200 400 L 1200 630 L 0 630 Z" fill="#1E90A0" opacity="0.08"/>
  <path d="M 0 450 Q 250 420 500 450 T 1000 450 T 1200 450 L 1200 630 L 0 630 Z" fill="#4FD1C5" opacity="0.05"/>

  <!-- Caviar roe particles -->
  <circle cx="316.3656225316774" cy="155.8346440872977" r="5.210432859781583" fill="#CFAE58" opacity="0.15988402804980079"/>
  <circle cx="227.84537442317472" cy="530.245627118813" r="4.368167609879352" fill="#CFAE58" opacity="0.17235738455335836"/>
  <circle cx="965.4622262912033" cy="4.513975533460542" r="4.957162114564649" fill="#CFAE58" opacity="0.23412962577944044"/>
  <circle cx="806.3054980721458" cy="137.6012757501752" r="3.3231882141431424" fill="#CFAE58" opacity="0.1679004442402433"/>
  <circle cx="978.912873340436" cy="134.54598881949713" r="5.32453308019352" fill="#CFAE58" opacity="0.13230952918311928"/>
  <circle cx="494.4522201668104" cy="193.5604598241183" r="3.535846839832409" fill="#CFAE58" opacity="0.1352546167170298"/>
  <circle cx="939.4397143458268" cy="240.83989360326" r="3.3765644760382294" fill="#CFAE58" opacity="0.12868694131210903"/>
  <circle cx="46.593529607400356" cy="456.93915922877443" r="3.350367021178216" fill="#CFAE58" opacity="0.1379153076177769"/>
  <circle cx="591.8973947371817" cy="100.80610459921614" r="3.683217639182809" fill="#CFAE58" opacity="0.12328254689597119"/>
  <circle cx="563.6101060862258" cy="253.10925616375647" r="5.364018815871102" fill="#CFAE58" opacity="0.14583183524748286"/>
  <circle cx="1139.5495055803115" cy="189.0046972501548" r="4.0391451070815005" fill="#CFAE58" opacity="0.20507644096603783"/>
  <circle cx="158.99735404832177" cy="576.1036416192568" r="2.259347847512192" fill="#CFAE58" opacity="0.11452088744494207"/>
  <circle cx="389.6899734342944" cy="419.1944236192167" r="4.587592298048359" fill="#CFAE58" opacity="0.1354744708591555"/>
  <circle cx="1196.5273475201732" cy="610.7610258366667" r="4.806134084205051" fill="#CFAE58" opacity="0.16343326251826434"/>
  <circle cx="694.2096656930652" cy="207.6140896488086" r="5.876770124489483" fill="#CFAE58" opacity="0.2312956207659976"/>
  <circle cx="474.2094739211963" cy="207.6768106463921" r="5.2296109198971426" fill="#CFAE58" opacity="0.14868588068781594"/>
  <circle cx="69.62221757755911" cy="96.73324960507084" r="3.274527296461823" fill="#CFAE58" opacity="0.11665913611827924"/>
  <circle cx="590.366819532358" cy="11.151227805867261" r="4.636525068003143" fill="#CFAE58" opacity="0.18325040578788976"/>
  <circle cx="831.0743226986266" cy="478.9238362900969" r="4.414924579393495" fill="#CFAE58" opacity="0.1863768362070668"/>
  <circle cx="470.54478089814563" cy="109.67062358978997" r="5.544027168565216" fill="#CFAE58" opacity="0.20506068745489864"/>
  <circle cx="753.7146009521108" cy="13.30985742178677" r="5.8197127912732105" fill="#CFAE58" opacity="0.11234488292083278"/>
  <circle cx="545.0761675014201" cy="267.8119329604696" r="5.735135062766305" fill="#CFAE58" opacity="0.21421041348047107"/>
  <circle cx="651.4623145288926" cy="113.01262152126603" r="2.3638652272014546" fill="#CFAE58" opacity="0.2488464671660851"/>
  <circle cx="226.0518335575604" cy="629.7094455472687" r="4.826716652490999" fill="#CFAE58" opacity="0.14323508162653684"/>
  <circle cx="1033.9319945975224" cy="333.83981716684343" r="2.885243124462014" fill="#CFAE58" opacity="0.2366341651083262"/>
  <circle cx="30.397488132631345" cy="23.97355536704727" r="3.159136425576805" fill="#CFAE58" opacity="0.12411646396342237"/>
  <circle cx="626.7820216863819" cy="335.0185597422598" r="4.543936102382082" fill="#CFAE58" opacity="0.12421734359041241"/>
  <circle cx="874.4402206078772" cy="271.21486841480447" r="2.247800758826952" fill="#CFAE58" opacity="0.16482391464296237"/>
  <circle cx="461.1423986583847" cy="406.97954147607726" r="3.8973153800274503" fill="#CFAE58" opacity="0.2019336780051917"/>
  <circle cx="755.7027997500404" cy="596.5277798990508" r="4.47674837302728" fill="#CFAE58" opacity="0.23414189573658012"/>

  <!-- Border with glow -->
  <rect x="40" y="40" width="1120" height="550" fill="none" stroke="url(#goldGradient)" stroke-width="3" rx="12" filter="url(#softGlow)"/>

  <!-- Icon circle with premium background -->
  <circle cx="150" cy="200" r="75" fill="#CFAE58" opacity="0.15" filter="url(#softGlow)"/>
  <circle cx="150" cy="200" r="70" fill="#CFAE58" opacity="0.25"/>
  <text x="150" y="235" font-size="90" text-anchor="middle" fill="#CFAE58" filter="url(#glow)">🚚</text>

  <!-- Premium logo (crown) with enhanced styling -->
  <g transform="translate(100, 70)">
    <path d="M 30 20 L 40 35 L 35 35 Z M 50 15 L 60 35 L 45 35 Z M 65 20 L 75 35 L 70 35 Z M 30 35 L 75 35 L 73 45 L 32 45 Z"
          fill="url(#goldGradient)" filter="url(#glow)" stroke="#B89842" stroke-width="0.5"/>
    <circle cx="40" cy="25" r="3" fill="#4FD1C5" filter="url(#glow)"/>
    <circle cx="52" cy="20" r="4" fill="#4FD1C5" filter="url(#glow)"/>
    <circle cx="65" cy="25" r="3" fill="#4FD1C5" filter="url(#glow)"/>
  </g>

  <!-- Title with shadow -->
  <text x="280" y="180" font-family="Georgia, serif" font-size="72" font-weight="bold"
        fill="url(#goldGradient)" filter="url(#shadow)">Logistics Partners</text>

  <!-- Subtitle with subtle glow -->
  <text x="280" y="230" font-family="Arial, sans-serif" font-size="36"
        fill="#D6DEE6" opacity="0.95" filter="url(#softGlow)">Reliable Delivery Across Russia</text>

  <!-- Brand name with letter spacing -->
  <text x="280" y="300" font-family="Georgia, serif" font-size="32" font-weight="bold"
        fill="#CFAE58" letter-spacing="4" filter="url(#glow)">ROYAL KETA</text>

  <!-- Russian tagline -->
  <text x="280" y="340" font-family="Arial, sans-serif" font-size="22" font-style="italic"
        fill="#8B95A1" opacity="0.8">От икринки к королевской</text>

  <!-- Location -->
  <text x="280" y="380" font-family="Arial, sans-serif" font-size="20"
        fill="#8B95A1" opacity="0.7">Невельский район, Сахалин</text>

  <!-- Website with glow -->
  <text x="100" y="570" font-family="Arial, sans-serif" font-size="30" font-weight="bold"
        fill="#4FD1C5" filter="url(#glow)">royalketa.com</text>

  <!-- Enhanced decorative salmon silhouette -->
  <g transform="translate(950, 480)" opacity="0.2" filter="url(#softGlow)">
    <ellipse cx="0" cy="0" rx="90" ry="35" fill="#CFAE58"/>
    <path d="M 90 0 L 120 -18 L 130 0 L 120 18 Z" fill="#CFAE58"/>
    <path d="M -25 -35 L 0 -45 L 25 -35 Z" fill="#CFAE58"/>
    <ellipse cx="-50" cy="0" rx="15" ry="12" fill="#0B0F14"/>
  </g>

  <!-- Additional decorative caviar clusters -->
  <g opacity="0.2">
    <circle cx="1050" cy="120" r="6" fill="#CFAE58"/>
    <circle cx="1065" cy="115" r="5" fill="#CFAE58"/>
    <circle cx="1058" cy="130" r="4" fill="#CFAE58"/>
    <circle cx="150" cy="500" r="5" fill="#4FD1C5"/>
    <circle cx="165" cy="508" r="4" fill="#4FD1C5"/>
    <circle cx="140" cy="512" r="5" fill="#4FD1C5"/>
  </g>
</svg>