<svg width="1200" height="630" xmlns="http://www.w3.org/2000/svg">
  <defs>
    <linearGradient id="bgGradient" x1="0%" y1="0%" x2="100%" y2="100%">
      <stop offset="0%" style="stop-color:#0B0F14;stop-opacity:1" />
      <stop offset="50%" style="stop-color:#0F1619;stop-opacity:1" />
      <stop offset="100%" style="stop-color:#0F1922;stop-opacity:1" />
    </linearGradient>
    <linearGradient id="goldGradient" x1="0%" y1="0%" x2="100%" y2="0%">
      <stop offset="0%" style="stop-color:#E5D596;stop-opacity:1" />
      <stop offset="50%" style="stop-color:#CFAE58;stop-opacity:1" />
      <stop offset="100%" style="stop-color:#B89842;stop-opacity:1" />
    </linearGradient>
    <radialGradient id="oceanGradient" cx="50%" cy="50%" r="50%">
      <stop offset="0%" style="stop-color:#4FD1C5;stop-opacity:0.3" />
      <stop offset="100%" style="stop-color:#1E90A0;stop-opacity:0.05" />
    </radialGradient>
    <filter id="glow">
      <feGaussianBlur stdDeviation="5" result="coloredBlur"/>
      <feMerge>
        <feMergeNode in="coloredBlur"/>
        <feMergeNode in="SourceGraphic"/>
      </feMerge>
    </filter>
    <filter id="softGlow">
      <feGaussianBlur stdDeviation="8" result="coloredBlur"/>
      <feMerge>
        <feMergeNode in="coloredBlur"/>
        <feMergeNode in="SourceGraphic"/>
      </feMerge>
    </filter>
    <filter id="shadow">
      <feDropShadow dx="0" dy="4" stdDeviation="8" flood-color="#000000" flood-opacity="0.5"/>
    </filter>
  </defs>

  <!-- Background -->
  <rect width="1200" height="630" fill="url(#bgGradient)"/>

  <!-- Decorative ocean gradients -->
  <ellipse cx="1000" cy="150" rx="300" ry="200" fill="url(#oceanGradient)" opacity="0.4"/>
  <ellipse cx="200" cy="530" rx="250" ry="180" fill="url(#oceanGradient)" opacity="0.3"/>

  <!-- Wave patterns -->
  <path d="M 0 400 Q 300 350 600 400 T 1200 400 L 1200 630 L 0 630 Z" fill="#1E90A0" opacity="0.08"/>
  <path d="M 0 450 Q 250 420 500 450 T 1000 450 T 1200 450 L 1200 630 L 0 630 Z" fill="#4FD1C5" opacity="0.05"/>

  <!-- Caviar roe particles -->
  <circle cx="646.7051180549469" cy="356.6599611352595" r="2.200752298828939" fill="#CFAE58" opacity="0.1164933592132406"/>
  <circle cx="628.427637518966" cy="596.1825677229451" r="3.199105845624092" fill="#CFAE58" opacity="0.18840432447218403"/>
  <circle cx="154.5305699081056" cy="171.57821413187014" r="4.889643128268605" fill="#CFAE58" opacity="0.11825920733348927"/>
  <circle cx="127.41046971145416" cy="200.41157128590925" r="5.883855675933589" fill="#CFAE58" opacity="0.14688794570838684"/>
  <circle cx="41.468471455387416" cy="476.31694642244344" r="3.667414493649507" fill="#CFAE58" opacity="0.1780340107683916"/>
  <circle cx="252.1426467137296" cy="198.6828425086237" r="2.490560758998872" fill="#CFAE58" opacity="0.16429299952382614"/>
  <circle cx="1096.8633564892252" cy="375.9193265649644" r="2.7940250708416894" fill="#CFAE58" opacity="0.2320277207018007"/>
  <circle cx="670.7397024621398" cy="186.17359795938617" r="2.3914837199258443" fill="#CFAE58" opacity="0.17234858566554823"/>
  <circle cx="942.5128912289717" cy="108.30644881744337" r="2.0542964458781805" fill="#CFAE58" opacity="0.14443700420755798"/>
  <circle cx="600.7159399984927" cy="442.4049205567398" r="2.6039929786168887" fill="#CFAE58" opacity="0.20360535050507256"/>
  <circle cx="343.669920685421" cy="462.4680642452162" r="5.6507850198147045" fill="#CFAE58" opacity="0.2099164589678457"/>
  <circle cx="1185.7161544784747" cy="483.1443742416428" r="2.5648456151162122" fill="#CFAE58" opacity="0.11801861515554564"/>
  <circle cx="293.8033127944384" cy="137.76466704041965" r="4.611996498864012" fill="#CFAE58" opacity="0.17230144597413805"/>
  <circle cx="1102.4224113918153" cy="593.9140390138339" r="5.065216478574202" fill="#CFAE58" opacity="0.13123360873703255"/>
  <circle cx="447.2417850299082" cy="167.4748162764918" r="2.570266841180991" fill="#CFAE58" opacity="0.13792953124178983"/>
  <circle cx="138.31708055187778" cy="218.70921307888977" r="2.7122919127047727" fill="#CFAE58" opacity="0.19931032407586477"/>
  <circle cx="60.058097621789486" cy="447.4249232507851" r="2.3319595684222563" fill="#CFAE58" opacity="0.2438719451531785"/>
  <circle cx="1102.1415775662674" cy="197.66306684551714" r="5.471702764730479" fill="#CFAE58" opacity="0.17124959174344817"/>
  <circle cx="225.83993795385382" cy="533.8539752613176" r="2.032432993528958" fill="#CFAE58" opacity="0.17142893619163657"/>
  <circle cx="1050.7094777119526" cy="221.30388652366014" r="2.9074566435892635" fill="#CFAE58" opacity="0.17298006635056917"/>
  <circle cx="1139.9598183218332" cy="26.31189792527538" r="2.938115964719633" fill="#CFAE58" opacity="0.1925391376485669"/>
  <circle cx="101.41277850227688" cy="19.602601971661997" r="4.653748861531146" fill="#CFAE58" opacity="0.1773224564622414"/>
  <circle cx="2.126478962966427" cy="116.3026291291754" r="3.5233646897292488" fill="#CFAE58" opacity="0.23863207641855216"/>
  <circle cx="683.5045495355515" cy="32.91041563054441" r="2.497488266507548" fill="#CFAE58" opacity="0.12564571304036123"/>
  <circle cx="292.1983513554717" cy="289.9304446829965" r="3.6908236289427148" fill="#CFAE58" opacity="0.14677422648827707"/>
  <circle cx="182.55372331243817" cy="228.52849398606378" r="2.6888243373875236" fill="#CFAE58" opacity="0.21677337974607527"/>
  <circle cx="521.8168996558175" cy="172.6365478418018" r="5.01505370718984" fill="#CFAE58" opacity="0.24977404130400874"/>
  <circle cx="532.658430256693" cy="237.10180004852768" r="4.895372705003721" fill="#CFAE58" opacity="0.15136120124294392"/>
  <circle cx="220.09402517353456" cy="423.6945230153019" r="4.529866761003949" fill="#CFAE58" opacity="0.10209004979038229"/>
  <circle cx="446.2862476524827" cy="621.6234867968556" r="3.075398876321077" fill="#CFAE58" opacity="0.21844104731499778"/>

  <!-- Border with glow -->
  <rect x="40" y="40" width="1120" height="550" fill="none" stroke="url(#goldGradient)" stroke-width="3" rx="12" filter="url(#softGlow)"/>

  <!-- Icon circle with premium background -->
  <circle cx="150" cy="200" r="75" fill="#CFAE58" opacity="0.15" filter="url(#softGlow)"/>
  <circle cx="150" cy="200" r="70" fill="#CFAE58" opacity="0.25"/>
  <text x="150" y="235" font-size="90" text-anchor="middle" fill="#CFAE58" filter="url(#glow)">🚚</text>

  <!-- Premium logo (crown) with enhanced styling -->
  <g transform="translate(100, 70)">
    <path d="M 30 20 L 40 35 L 35 35 Z M 50 15 L 60 35 L 45 35 Z M 65 20 L 75 35 L 70 35 Z M 30 35 L 75 35 L 73 45 L 32 45 Z"
          fill="url(#goldGradient)" filter="url(#glow)" stroke="#B89842" stroke-width="0.5"/>
    <circle cx="40" cy="25" r="3" fill="#4FD1C5" filter="url(#glow)"/>
    <circle cx="52" cy="20" r="4" fill="#4FD1C5" filter="url(#glow)"/>
    <circle cx="65" cy="25" r="3" fill="#4FD1C5" filter="url(#glow)"/>
  </g>

  <!-- Title with shadow -->
  <text x="280" y="180" font-family="Georgia, serif" font-size="72" font-weight="bold"
        fill="url(#goldGradient)" filter="url(#shadow)">Logistics Partners</text>

  <!-- Subtitle with subtle glow -->
  <text x="280" y="230" font-family="Arial, sans-serif" font-size="36"
        fill="#D6DEE6" opacity="0.95" filter="url(#softGlow)">Reliable Delivery Across Russia</text>

  <!-- Brand name with letter spacing -->
  <text x="280" y="300" font-family="Georgia, serif" font-size="32" font-weight="bold"
        fill="#CFAE58" letter-spacing="4" filter="url(#glow)">ROYAL KETA</text>

  <!-- Russian tagline -->
  <text x="280" y="340" font-family="Arial, sans-serif" font-size="22" font-style="italic"
        fill="#8B95A1" opacity="0.8">От икринки к королевской</text>

  <!-- Location -->
  <text x="280" y="380" font-family="Arial, sans-serif" font-size="20"
        fill="#8B95A1" opacity="0.7">Невельский район, Сахалин</text>

  <!-- Website with glow -->
  <text x="100" y="570" font-family="Arial, sans-serif" font-size="30" font-weight="bold"
        fill="#4FD1C5" filter="url(#glow)">royalketa.com</text>

  <!-- Enhanced decorative salmon silhouette -->
  <g transform="translate(950, 480)" opacity="0.2" filter="url(#softGlow)">
    <ellipse cx="0" cy="0" rx="90" ry="35" fill="#CFAE58"/>
    <path d="M 90 0 L 120 -18 L 130 0 L 120 18 Z" fill="#CFAE58"/>
    <path d="M -25 -35 L 0 -45 L 25 -35 Z" fill="#CFAE58"/>
    <ellipse cx="-50" cy="0" rx="15" ry="12" fill="#0B0F14"/>
  </g>

  <!-- Additional decorative caviar clusters -->
  <g opacity="0.2">
    <circle cx="1050" cy="120" r="6" fill="#CFAE58"/>
    <circle cx="1065" cy="115" r="5" fill="#CFAE58"/>
    <circle cx="1058" cy="130" r="4" fill="#CFAE58"/>
    <circle cx="150" cy="500" r="5" fill="#4FD1C5"/>
    <circle cx="165" cy="508" r="4" fill="#4FD1C5"/>
    <circle cx="140" cy="512" r="5" fill="#4FD1C5"/>
  </g>
</svg>