<svg width="1200" height="630" xmlns="http://www.w3.org/2000/svg">
  <defs>
    <linearGradient id="bgGradient" x1="0%" y1="0%" x2="100%" y2="100%">
      <stop offset="0%" style="stop-color:#0B0F14;stop-opacity:1" />
      <stop offset="50%" style="stop-color:#0F1619;stop-opacity:1" />
      <stop offset="100%" style="stop-color:#0F1922;stop-opacity:1" />
    </linearGradient>
    <linearGradient id="goldGradient" x1="0%" y1="0%" x2="100%" y2="0%">
      <stop offset="0%" style="stop-color:#E5D596;stop-opacity:1" />
      <stop offset="50%" style="stop-color:#CFAE58;stop-opacity:1" />
      <stop offset="100%" style="stop-color:#B89842;stop-opacity:1" />
    </linearGradient>
    <radialGradient id="oceanGradient" cx="50%" cy="50%" r="50%">
      <stop offset="0%" style="stop-color:#4FD1C5;stop-opacity:0.3" />
      <stop offset="100%" style="stop-color:#1E90A0;stop-opacity:0.05" />
    </radialGradient>
    <filter id="glow">
      <feGaussianBlur stdDeviation="5" result="coloredBlur"/>
      <feMerge>
        <feMergeNode in="coloredBlur"/>
        <feMergeNode in="SourceGraphic"/>
      </feMerge>
    </filter>
    <filter id="softGlow">
      <feGaussianBlur stdDeviation="8" result="coloredBlur"/>
      <feMerge>
        <feMergeNode in="coloredBlur"/>
        <feMergeNode in="SourceGraphic"/>
      </feMerge>
    </filter>
    <filter id="shadow">
      <feDropShadow dx="0" dy="4" stdDeviation="8" flood-color="#000000" flood-opacity="0.5"/>
    </filter>
  </defs>

  <!-- Background -->
  <rect width="1200" height="630" fill="url(#bgGradient)"/>

  <!-- Decorative ocean gradients -->
  <ellipse cx="1000" cy="150" rx="300" ry="200" fill="url(#oceanGradient)" opacity="0.4"/>
  <ellipse cx="200" cy="530" rx="250" ry="180" fill="url(#oceanGradient)" opacity="0.3"/>

  <!-- Wave patterns -->
  <path d="M 0 400 Q 300 350 600 400 T 1200 400 L 1200 630 L 0 630 Z" fill="#1E90A0" opacity="0.08"/>
  <path d="M 0 450 Q 250 420 500 450 T 1000 450 T 1200 450 L 1200 630 L 0 630 Z" fill="#4FD1C5" opacity="0.05"/>

  <!-- Caviar roe particles -->
  <circle cx="901.6613542089166" cy="476.260994084664" r="4.884439336653541" fill="#CFAE58" opacity="0.10230281019714133"/>
  <circle cx="178.6686823208727" cy="473.14331475012125" r="4.295169094076442" fill="#CFAE58" opacity="0.24424000339722032"/>
  <circle cx="492.5770360148693" cy="40.8172981182456" r="2.8028093779160295" fill="#CFAE58" opacity="0.13865521639079936"/>
  <circle cx="158.69269255278758" cy="236.515560216131" r="3.1787443360203804" fill="#CFAE58" opacity="0.15699873488668298"/>
  <circle cx="11.157153736557568" cy="74.75394228584032" r="2.9480782163756465" fill="#CFAE58" opacity="0.1188710035972198"/>
  <circle cx="514.5686306288003" cy="371.8215249394703" r="2.479160734410579" fill="#CFAE58" opacity="0.16075063818637375"/>
  <circle cx="291.58534213314624" cy="70.42047379932718" r="4.9295671467543904" fill="#CFAE58" opacity="0.18090665661497124"/>
  <circle cx="695.2381103676775" cy="497.39317209346206" r="4.948759024879797" fill="#CFAE58" opacity="0.1505891465314903"/>
  <circle cx="217.56090448550265" cy="214.25694353292388" r="3.601630747265137" fill="#CFAE58" opacity="0.16316352521764604"/>
  <circle cx="451.5903605744619" cy="453.8996520960585" r="3.8017524097251916" fill="#CFAE58" opacity="0.2226562935687314"/>
  <circle cx="1054.4464962037596" cy="332.0936860055477" r="3.8213925707494503" fill="#CFAE58" opacity="0.23456430005351367"/>
  <circle cx="989.5028483864407" cy="509.92107320408513" r="2.9814072305152615" fill="#CFAE58" opacity="0.1489387208474021"/>
  <circle cx="443.9109139003036" cy="349.57415258203406" r="2.6471314315354824" fill="#CFAE58" opacity="0.12385589888887727"/>
  <circle cx="651.6732991782513" cy="153.51439099139023" r="2.0994165898002266" fill="#CFAE58" opacity="0.1950533855254045"/>
  <circle cx="690.8193420022327" cy="565.31190797346" r="5.741756248418304" fill="#CFAE58" opacity="0.136183826000752"/>
  <circle cx="399.2905897588088" cy="411.52892249610005" r="5.695212897682881" fill="#CFAE58" opacity="0.13780881248582322"/>
  <circle cx="597.0943202824959" cy="381.99367949184403" r="5.298031433098132" fill="#CFAE58" opacity="0.23270212409452318"/>
  <circle cx="374.2138617152757" cy="115.47093904553063" r="2.7976214032602167" fill="#CFAE58" opacity="0.16636915965727628"/>
  <circle cx="559.3368827012043" cy="131.20730712244782" r="5.874291758925222" fill="#CFAE58" opacity="0.12636221523967892"/>
  <circle cx="607.6581507948238" cy="174.36201210084405" r="4.908260578935261" fill="#CFAE58" opacity="0.1761210469348976"/>
  <circle cx="154.96245926655038" cy="58.977463307614656" r="2.208697906953328" fill="#CFAE58" opacity="0.19152370439529698"/>
  <circle cx="998.3462722462551" cy="62.85494208091972" r="3.0159428351677646" fill="#CFAE58" opacity="0.13679991482687845"/>
  <circle cx="1138.7980773462443" cy="276.14513549216673" r="5.491754229640367" fill="#CFAE58" opacity="0.10260241631758442"/>
  <circle cx="677.8181498296447" cy="32.24397407236377" r="5.407758846145495" fill="#CFAE58" opacity="0.19093082483377646"/>
  <circle cx="391.7175298195309" cy="443.9594524028348" r="4.069988912995994" fill="#CFAE58" opacity="0.22071440802645761"/>
  <circle cx="593.2740507272771" cy="179.53202740097495" r="2.8097634421464672" fill="#CFAE58" opacity="0.14485637338483745"/>
  <circle cx="280.69442775309864" cy="74.60636127091614" r="5.0443677444101604" fill="#CFAE58" opacity="0.14903100536927003"/>
  <circle cx="724.1104664309355" cy="562.8503956409384" r="4.972747207720447" fill="#CFAE58" opacity="0.20573711273104678"/>
  <circle cx="930.0065228654285" cy="469.4198326692349" r="3.366309731565426" fill="#CFAE58" opacity="0.17002501401332712"/>
  <circle cx="7.888001965613389" cy="159.83523309579203" r="3.1308379341180768" fill="#CFAE58" opacity="0.1504654115918724"/>

  <!-- Border with glow -->
  <rect x="40" y="40" width="1120" height="550" fill="none" stroke="url(#goldGradient)" stroke-width="3" rx="12" filter="url(#softGlow)"/>

  <!-- Icon circle with premium background -->
  <circle cx="150" cy="200" r="75" fill="#CFAE58" opacity="0.15" filter="url(#softGlow)"/>
  <circle cx="150" cy="200" r="70" fill="#CFAE58" opacity="0.25"/>
  <text x="150" y="235" font-size="90" text-anchor="middle" fill="#CFAE58" filter="url(#glow)">🚚</text>

  <!-- Premium logo (crown) with enhanced styling -->
  <g transform="translate(100, 70)">
    <path d="M 30 20 L 40 35 L 35 35 Z M 50 15 L 60 35 L 45 35 Z M 65 20 L 75 35 L 70 35 Z M 30 35 L 75 35 L 73 45 L 32 45 Z"
          fill="url(#goldGradient)" filter="url(#glow)" stroke="#B89842" stroke-width="0.5"/>
    <circle cx="40" cy="25" r="3" fill="#4FD1C5" filter="url(#glow)"/>
    <circle cx="52" cy="20" r="4" fill="#4FD1C5" filter="url(#glow)"/>
    <circle cx="65" cy="25" r="3" fill="#4FD1C5" filter="url(#glow)"/>
  </g>

  <!-- Title with shadow -->
  <text x="280" y="180" font-family="Georgia, serif" font-size="72" font-weight="bold"
        fill="url(#goldGradient)" filter="url(#shadow)">Logistics Partners</text>

  <!-- Subtitle with subtle glow -->
  <text x="280" y="230" font-family="Arial, sans-serif" font-size="36"
        fill="#D6DEE6" opacity="0.95" filter="url(#softGlow)">Reliable Delivery Across Russia</text>

  <!-- Brand name with letter spacing -->
  <text x="280" y="300" font-family="Georgia, serif" font-size="32" font-weight="bold"
        fill="#CFAE58" letter-spacing="4" filter="url(#glow)">ROYAL KETA</text>

  <!-- Russian tagline -->
  <text x="280" y="340" font-family="Arial, sans-serif" font-size="22" font-style="italic"
        fill="#8B95A1" opacity="0.8">От икринки к королевской</text>

  <!-- Location -->
  <text x="280" y="380" font-family="Arial, sans-serif" font-size="20"
        fill="#8B95A1" opacity="0.7">Невельский район, Сахалин</text>

  <!-- Website with glow -->
  <text x="100" y="570" font-family="Arial, sans-serif" font-size="30" font-weight="bold"
        fill="#4FD1C5" filter="url(#glow)">royalketa.com</text>

  <!-- Enhanced decorative salmon silhouette -->
  <g transform="translate(950, 480)" opacity="0.2" filter="url(#softGlow)">
    <ellipse cx="0" cy="0" rx="90" ry="35" fill="#CFAE58"/>
    <path d="M 90 0 L 120 -18 L 130 0 L 120 18 Z" fill="#CFAE58"/>
    <path d="M -25 -35 L 0 -45 L 25 -35 Z" fill="#CFAE58"/>
    <ellipse cx="-50" cy="0" rx="15" ry="12" fill="#0B0F14"/>
  </g>

  <!-- Additional decorative caviar clusters -->
  <g opacity="0.2">
    <circle cx="1050" cy="120" r="6" fill="#CFAE58"/>
    <circle cx="1065" cy="115" r="5" fill="#CFAE58"/>
    <circle cx="1058" cy="130" r="4" fill="#CFAE58"/>
    <circle cx="150" cy="500" r="5" fill="#4FD1C5"/>
    <circle cx="165" cy="508" r="4" fill="#4FD1C5"/>
    <circle cx="140" cy="512" r="5" fill="#4FD1C5"/>
  </g>
</svg>