<svg width="1200" height="630" xmlns="http://www.w3.org/2000/svg">
  <defs>
    <linearGradient id="bgGradient" x1="0%" y1="0%" x2="100%" y2="100%">
      <stop offset="0%" style="stop-color:#0B0F14;stop-opacity:1" />
      <stop offset="50%" style="stop-color:#0F1619;stop-opacity:1" />
      <stop offset="100%" style="stop-color:#0F1922;stop-opacity:1" />
    </linearGradient>
    <linearGradient id="goldGradient" x1="0%" y1="0%" x2="100%" y2="0%">
      <stop offset="0%" style="stop-color:#E5D596;stop-opacity:1" />
      <stop offset="50%" style="stop-color:#CFAE58;stop-opacity:1" />
      <stop offset="100%" style="stop-color:#B89842;stop-opacity:1" />
    </linearGradient>
    <radialGradient id="oceanGradient" cx="50%" cy="50%" r="50%">
      <stop offset="0%" style="stop-color:#4FD1C5;stop-opacity:0.3" />
      <stop offset="100%" style="stop-color:#1E90A0;stop-opacity:0.05" />
    </radialGradient>
    <filter id="glow">
      <feGaussianBlur stdDeviation="5" result="coloredBlur"/>
      <feMerge>
        <feMergeNode in="coloredBlur"/>
        <feMergeNode in="SourceGraphic"/>
      </feMerge>
    </filter>
    <filter id="softGlow">
      <feGaussianBlur stdDeviation="8" result="coloredBlur"/>
      <feMerge>
        <feMergeNode in="coloredBlur"/>
        <feMergeNode in="SourceGraphic"/>
      </feMerge>
    </filter>
    <filter id="shadow">
      <feDropShadow dx="0" dy="4" stdDeviation="8" flood-color="#000000" flood-opacity="0.5"/>
    </filter>
  </defs>

  <!-- Background -->
  <rect width="1200" height="630" fill="url(#bgGradient)"/>

  <!-- Decorative ocean gradients -->
  <ellipse cx="1000" cy="150" rx="300" ry="200" fill="url(#oceanGradient)" opacity="0.4"/>
  <ellipse cx="200" cy="530" rx="250" ry="180" fill="url(#oceanGradient)" opacity="0.3"/>

  <!-- Wave patterns -->
  <path d="M 0 400 Q 300 350 600 400 T 1200 400 L 1200 630 L 0 630 Z" fill="#1E90A0" opacity="0.08"/>
  <path d="M 0 450 Q 250 420 500 450 T 1000 450 T 1200 450 L 1200 630 L 0 630 Z" fill="#4FD1C5" opacity="0.05"/>

  <!-- Caviar roe particles -->
  <circle cx="294.1810835487438" cy="241.88185334797456" r="4.315499679613978" fill="#CFAE58" opacity="0.10062470376080886"/>
  <circle cx="592.4727800885979" cy="124.28457639779083" r="4.935976965374859" fill="#CFAE58" opacity="0.1305715454715211"/>
  <circle cx="40.658931100464635" cy="508.17555403729045" r="3.9012140026221345" fill="#CFAE58" opacity="0.22534902186012892"/>
  <circle cx="97.12882841230504" cy="489.95727723930145" r="5.532562825286192" fill="#CFAE58" opacity="0.19893829621197245"/>
  <circle cx="843.7145195116991" cy="402.9101519958724" r="4.176716616447941" fill="#CFAE58" opacity="0.11729104296242787"/>
  <circle cx="1051.4802165039055" cy="120.65681863816374" r="2.6718006053208154" fill="#CFAE58" opacity="0.14509237420627116"/>
  <circle cx="831.4259778704856" cy="213.85009665183549" r="4.642959264321112" fill="#CFAE58" opacity="0.18660726705917005"/>
  <circle cx="55.32434348447839" cy="15.8802580737456" r="4.1544048867600205" fill="#CFAE58" opacity="0.15034767127343657"/>
  <circle cx="352.855627357168" cy="556.1713352825327" r="3.661325814042882" fill="#CFAE58" opacity="0.11856195172330228"/>
  <circle cx="420.6014403710529" cy="373.83357605858305" r="3.46944359009944" fill="#CFAE58" opacity="0.182746313851609"/>
  <circle cx="689.4753814569176" cy="150.56029869817263" r="4.423589328571943" fill="#CFAE58" opacity="0.1543748852095322"/>
  <circle cx="862.7004861007033" cy="468.87989188581105" r="5.030934228498401" fill="#CFAE58" opacity="0.12369424712751365"/>
  <circle cx="571.972786390388" cy="458.2308663868553" r="3.693801247177805" fill="#CFAE58" opacity="0.1779460190325563"/>
  <circle cx="1013.3224285946288" cy="140.77762560812675" r="2.4253525624522427" fill="#CFAE58" opacity="0.17800421094327715"/>
  <circle cx="149.89535913869568" cy="350.93766925842584" r="3.8843292779690275" fill="#CFAE58" opacity="0.1266429696799676"/>
  <circle cx="744.6328345099035" cy="408.56076756476847" r="5.730575483524726" fill="#CFAE58" opacity="0.13896697235334987"/>
  <circle cx="398.7087212381806" cy="400.4641587654348" r="4.023377162955725" fill="#CFAE58" opacity="0.2320849852633761"/>
  <circle cx="277.29668946972697" cy="470.3775762975357" r="4.097119812361436" fill="#CFAE58" opacity="0.18357610793652665"/>
  <circle cx="266.9845374559603" cy="254.59256227802246" r="2.927210041960132" fill="#CFAE58" opacity="0.14984195296649866"/>
  <circle cx="464.0766694846828" cy="392.0630367415558" r="3.2021325542556878" fill="#CFAE58" opacity="0.11982130909473493"/>
  <circle cx="628.9878728318038" cy="377.7812616523676" r="5.321671864451156" fill="#CFAE58" opacity="0.12697301603221928"/>
  <circle cx="311.3180240367006" cy="501.75379779619993" r="2.295090011173556" fill="#CFAE58" opacity="0.1858373635097611"/>
  <circle cx="404.7474630750491" cy="224.47745578946922" r="5.079641715558854" fill="#CFAE58" opacity="0.11775296035148543"/>
  <circle cx="426.20809174356594" cy="479.8442495633794" r="3.864734141627932" fill="#CFAE58" opacity="0.10914974321112761"/>
  <circle cx="673.5969935788863" cy="205.20191475278514" r="3.2454617384691526" fill="#CFAE58" opacity="0.1948146177241346"/>
  <circle cx="425.1920279970435" cy="160.2575694219204" r="2.6869297928449702" fill="#CFAE58" opacity="0.13181216767771903"/>
  <circle cx="966.2914504825181" cy="475.5318786020196" r="3.3343540923163135" fill="#CFAE58" opacity="0.1612467227167752"/>
  <circle cx="453.0248686297947" cy="498.2014129431988" r="2.774786284680184" fill="#CFAE58" opacity="0.20668923207197362"/>
  <circle cx="34.436917784807264" cy="455.3969824686875" r="4.228360266957862" fill="#CFAE58" opacity="0.15483710910385395"/>
  <circle cx="99.69531650230002" cy="400.63195182168704" r="5.620834976818886" fill="#CFAE58" opacity="0.2270913532183046"/>

  <!-- Border with glow -->
  <rect x="40" y="40" width="1120" height="550" fill="none" stroke="url(#goldGradient)" stroke-width="3" rx="12" filter="url(#softGlow)"/>

  <!-- Icon circle with premium background -->
  <circle cx="150" cy="200" r="75" fill="#CFAE58" opacity="0.15" filter="url(#softGlow)"/>
  <circle cx="150" cy="200" r="70" fill="#CFAE58" opacity="0.25"/>
  <text x="150" y="235" font-size="90" text-anchor="middle" fill="#CFAE58" filter="url(#glow)">🚚</text>

  <!-- Premium logo (crown) with enhanced styling -->
  <g transform="translate(100, 70)">
    <path d="M 30 20 L 40 35 L 35 35 Z M 50 15 L 60 35 L 45 35 Z M 65 20 L 75 35 L 70 35 Z M 30 35 L 75 35 L 73 45 L 32 45 Z"
          fill="url(#goldGradient)" filter="url(#glow)" stroke="#B89842" stroke-width="0.5"/>
    <circle cx="40" cy="25" r="3" fill="#4FD1C5" filter="url(#glow)"/>
    <circle cx="52" cy="20" r="4" fill="#4FD1C5" filter="url(#glow)"/>
    <circle cx="65" cy="25" r="3" fill="#4FD1C5" filter="url(#glow)"/>
  </g>

  <!-- Title with shadow -->
  <text x="280" y="180" font-family="Georgia, serif" font-size="72" font-weight="bold"
        fill="url(#goldGradient)" filter="url(#shadow)">Logistics Partners</text>

  <!-- Subtitle with subtle glow -->
  <text x="280" y="230" font-family="Arial, sans-serif" font-size="36"
        fill="#D6DEE6" opacity="0.95" filter="url(#softGlow)">Reliable Delivery Across Russia</text>

  <!-- Brand name with letter spacing -->
  <text x="280" y="300" font-family="Georgia, serif" font-size="32" font-weight="bold"
        fill="#CFAE58" letter-spacing="4" filter="url(#glow)">ROYAL KETA</text>

  <!-- Russian tagline -->
  <text x="280" y="340" font-family="Arial, sans-serif" font-size="22" font-style="italic"
        fill="#8B95A1" opacity="0.8">От икринки к королевской</text>

  <!-- Location -->
  <text x="280" y="380" font-family="Arial, sans-serif" font-size="20"
        fill="#8B95A1" opacity="0.7">Невельский район, Сахалин</text>

  <!-- Website with glow -->
  <text x="100" y="570" font-family="Arial, sans-serif" font-size="30" font-weight="bold"
        fill="#4FD1C5" filter="url(#glow)">royalketa.com</text>

  <!-- Enhanced decorative salmon silhouette -->
  <g transform="translate(950, 480)" opacity="0.2" filter="url(#softGlow)">
    <ellipse cx="0" cy="0" rx="90" ry="35" fill="#CFAE58"/>
    <path d="M 90 0 L 120 -18 L 130 0 L 120 18 Z" fill="#CFAE58"/>
    <path d="M -25 -35 L 0 -45 L 25 -35 Z" fill="#CFAE58"/>
    <ellipse cx="-50" cy="0" rx="15" ry="12" fill="#0B0F14"/>
  </g>

  <!-- Additional decorative caviar clusters -->
  <g opacity="0.2">
    <circle cx="1050" cy="120" r="6" fill="#CFAE58"/>
    <circle cx="1065" cy="115" r="5" fill="#CFAE58"/>
    <circle cx="1058" cy="130" r="4" fill="#CFAE58"/>
    <circle cx="150" cy="500" r="5" fill="#4FD1C5"/>
    <circle cx="165" cy="508" r="4" fill="#4FD1C5"/>
    <circle cx="140" cy="512" r="5" fill="#4FD1C5"/>
  </g>
</svg>