<svg width="1200" height="630" xmlns="http://www.w3.org/2000/svg">
  <defs>
    <linearGradient id="bgGradient" x1="0%" y1="0%" x2="100%" y2="100%">
      <stop offset="0%" style="stop-color:#0B0F14;stop-opacity:1" />
      <stop offset="50%" style="stop-color:#0F1619;stop-opacity:1" />
      <stop offset="100%" style="stop-color:#0F1922;stop-opacity:1" />
    </linearGradient>
    <linearGradient id="goldGradient" x1="0%" y1="0%" x2="100%" y2="0%">
      <stop offset="0%" style="stop-color:#E5D596;stop-opacity:1" />
      <stop offset="50%" style="stop-color:#CFAE58;stop-opacity:1" />
      <stop offset="100%" style="stop-color:#B89842;stop-opacity:1" />
    </linearGradient>
    <radialGradient id="oceanGradient" cx="50%" cy="50%" r="50%">
      <stop offset="0%" style="stop-color:#4FD1C5;stop-opacity:0.3" />
      <stop offset="100%" style="stop-color:#1E90A0;stop-opacity:0.05" />
    </radialGradient>
    <filter id="glow">
      <feGaussianBlur stdDeviation="5" result="coloredBlur"/>
      <feMerge>
        <feMergeNode in="coloredBlur"/>
        <feMergeNode in="SourceGraphic"/>
      </feMerge>
    </filter>
    <filter id="softGlow">
      <feGaussianBlur stdDeviation="8" result="coloredBlur"/>
      <feMerge>
        <feMergeNode in="coloredBlur"/>
        <feMergeNode in="SourceGraphic"/>
      </feMerge>
    </filter>
    <filter id="shadow">
      <feDropShadow dx="0" dy="4" stdDeviation="8" flood-color="#000000" flood-opacity="0.5"/>
    </filter>
  </defs>

  <!-- Background -->
  <rect width="1200" height="630" fill="url(#bgGradient)"/>

  <!-- Decorative ocean gradients -->
  <ellipse cx="1000" cy="150" rx="300" ry="200" fill="url(#oceanGradient)" opacity="0.4"/>
  <ellipse cx="200" cy="530" rx="250" ry="180" fill="url(#oceanGradient)" opacity="0.3"/>

  <!-- Wave patterns -->
  <path d="M 0 400 Q 300 350 600 400 T 1200 400 L 1200 630 L 0 630 Z" fill="#1E90A0" opacity="0.08"/>
  <path d="M 0 450 Q 250 420 500 450 T 1000 450 T 1200 450 L 1200 630 L 0 630 Z" fill="#4FD1C5" opacity="0.05"/>

  <!-- Caviar roe particles -->
  <circle cx="382.13037875926614" cy="21.946515866551323" r="5.1838291039194" fill="#CFAE58" opacity="0.2202437529887989"/>
  <circle cx="606.8533700953378" cy="332.7358878497085" r="4.52847607352478" fill="#CFAE58" opacity="0.14410367777836655"/>
  <circle cx="1107.3706664151991" cy="406.42524073526096" r="4.888107750196391" fill="#CFAE58" opacity="0.2034438731251808"/>
  <circle cx="760.1462839918091" cy="218.11262394305118" r="5.3445821637760895" fill="#CFAE58" opacity="0.13043611180249087"/>
  <circle cx="1173.0690656637867" cy="319.9928684633732" r="2.4650403960063265" fill="#CFAE58" opacity="0.14130632013995953"/>
  <circle cx="990.1632118039654" cy="265.4618414155151" r="3.5516757288433833" fill="#CFAE58" opacity="0.1490065042301836"/>
  <circle cx="456.66122223671334" cy="446.128099377018" r="4.565412253233758" fill="#CFAE58" opacity="0.2483816967596567"/>
  <circle cx="637.1623808494023" cy="537.6712567074608" r="2.716104716546365" fill="#CFAE58" opacity="0.2029101969711094"/>
  <circle cx="6.690705837832045" cy="446.0931809022376" r="3.7584294167036845" fill="#CFAE58" opacity="0.2144711558640548"/>
  <circle cx="106.43329325506326" cy="426.6708572666065" r="3.3692373865487646" fill="#CFAE58" opacity="0.16499388656880723"/>
  <circle cx="1179.3845788630317" cy="89.69667263399322" r="5.97591454091643" fill="#CFAE58" opacity="0.1514883557691565"/>
  <circle cx="1194.447232490511" cy="286.2748080203439" r="5.700176429560614" fill="#CFAE58" opacity="0.1633685998194916"/>
  <circle cx="962.8887609650446" cy="111.86237276479567" r="2.5948451870323774" fill="#CFAE58" opacity="0.11192758897622326"/>
  <circle cx="405.18599388817915" cy="147.03053703431175" r="3.860128452550523" fill="#CFAE58" opacity="0.13463165403746274"/>
  <circle cx="305.2149368678961" cy="627.9665813101647" r="5.469715297682141" fill="#CFAE58" opacity="0.11424079938543531"/>
  <circle cx="207.89192883820178" cy="39.08580035658291" r="5.805691153103051" fill="#CFAE58" opacity="0.17275469603634563"/>
  <circle cx="935.5781481635853" cy="221.44546352156385" r="2.5431855855220826" fill="#CFAE58" opacity="0.14395593741707766"/>
  <circle cx="1147.0218107810763" cy="189.5352920603482" r="2.888282540131259" fill="#CFAE58" opacity="0.1447900693170934"/>
  <circle cx="900.7189329130342" cy="18.334505847573435" r="4.237006799314237" fill="#CFAE58" opacity="0.11999731062485798"/>
  <circle cx="877.6908998627508" cy="433.462970435179" r="4.946423395629571" fill="#CFAE58" opacity="0.1531447053427725"/>
  <circle cx="1061.4482426904667" cy="212.71127192627836" r="4.8643884720230455" fill="#CFAE58" opacity="0.16777120660391875"/>
  <circle cx="1058.3301752275165" cy="41.73210995251087" r="3.1762746469734857" fill="#CFAE58" opacity="0.17574089507071738"/>
  <circle cx="916.2570529532269" cy="564.6187796415227" r="2.654850989466821" fill="#CFAE58" opacity="0.21382567389653778"/>
  <circle cx="572.398076419109" cy="154.44895163518808" r="2.224612852079214" fill="#CFAE58" opacity="0.10190882449190503"/>
  <circle cx="63.430272828275314" cy="432.19738101745094" r="4.9022112407994705" fill="#CFAE58" opacity="0.19439935771931766"/>
  <circle cx="692.5391497695005" cy="63.99948239938487" r="2.649036229048046" fill="#CFAE58" opacity="0.17738878817360626"/>
  <circle cx="925.4996409174004" cy="90.74755070390637" r="5.007713381073773" fill="#CFAE58" opacity="0.2245259020543492"/>
  <circle cx="432.60344752714246" cy="252.88896034128945" r="2.863557364440056" fill="#CFAE58" opacity="0.12969411708218082"/>
  <circle cx="775.0788156074012" cy="212.6434417322477" r="5.838290226813321" fill="#CFAE58" opacity="0.17770130908976267"/>
  <circle cx="1027.6799675241903" cy="43.101877246617136" r="2.1095990198480488" fill="#CFAE58" opacity="0.23530562411214961"/>

  <!-- Border with glow -->
  <rect x="40" y="40" width="1120" height="550" fill="none" stroke="url(#goldGradient)" stroke-width="3" rx="12" filter="url(#softGlow)"/>

  <!-- Icon circle with premium background -->
  <circle cx="150" cy="200" r="75" fill="#CFAE58" opacity="0.15" filter="url(#softGlow)"/>
  <circle cx="150" cy="200" r="70" fill="#CFAE58" opacity="0.25"/>
  <text x="150" y="235" font-size="90" text-anchor="middle" fill="#CFAE58" filter="url(#glow)">🚚</text>

  <!-- Premium logo (crown) with enhanced styling -->
  <g transform="translate(100, 70)">
    <path d="M 30 20 L 40 35 L 35 35 Z M 50 15 L 60 35 L 45 35 Z M 65 20 L 75 35 L 70 35 Z M 30 35 L 75 35 L 73 45 L 32 45 Z"
          fill="url(#goldGradient)" filter="url(#glow)" stroke="#B89842" stroke-width="0.5"/>
    <circle cx="40" cy="25" r="3" fill="#4FD1C5" filter="url(#glow)"/>
    <circle cx="52" cy="20" r="4" fill="#4FD1C5" filter="url(#glow)"/>
    <circle cx="65" cy="25" r="3" fill="#4FD1C5" filter="url(#glow)"/>
  </g>

  <!-- Title with shadow -->
  <text x="280" y="180" font-family="Georgia, serif" font-size="72" font-weight="bold"
        fill="url(#goldGradient)" filter="url(#shadow)">Logistics Partners</text>

  <!-- Subtitle with subtle glow -->
  <text x="280" y="230" font-family="Arial, sans-serif" font-size="36"
        fill="#D6DEE6" opacity="0.95" filter="url(#softGlow)">Reliable Delivery Across Russia</text>

  <!-- Brand name with letter spacing -->
  <text x="280" y="300" font-family="Georgia, serif" font-size="32" font-weight="bold"
        fill="#CFAE58" letter-spacing="4" filter="url(#glow)">ROYAL KETA</text>

  <!-- Russian tagline -->
  <text x="280" y="340" font-family="Arial, sans-serif" font-size="22" font-style="italic"
        fill="#8B95A1" opacity="0.8">От икринки к королевской</text>

  <!-- Location -->
  <text x="280" y="380" font-family="Arial, sans-serif" font-size="20"
        fill="#8B95A1" opacity="0.7">Невельский район, Сахалин</text>

  <!-- Website with glow -->
  <text x="100" y="570" font-family="Arial, sans-serif" font-size="30" font-weight="bold"
        fill="#4FD1C5" filter="url(#glow)">royalketa.com</text>

  <!-- Enhanced decorative salmon silhouette -->
  <g transform="translate(950, 480)" opacity="0.2" filter="url(#softGlow)">
    <ellipse cx="0" cy="0" rx="90" ry="35" fill="#CFAE58"/>
    <path d="M 90 0 L 120 -18 L 130 0 L 120 18 Z" fill="#CFAE58"/>
    <path d="M -25 -35 L 0 -45 L 25 -35 Z" fill="#CFAE58"/>
    <ellipse cx="-50" cy="0" rx="15" ry="12" fill="#0B0F14"/>
  </g>

  <!-- Additional decorative caviar clusters -->
  <g opacity="0.2">
    <circle cx="1050" cy="120" r="6" fill="#CFAE58"/>
    <circle cx="1065" cy="115" r="5" fill="#CFAE58"/>
    <circle cx="1058" cy="130" r="4" fill="#CFAE58"/>
    <circle cx="150" cy="500" r="5" fill="#4FD1C5"/>
    <circle cx="165" cy="508" r="4" fill="#4FD1C5"/>
    <circle cx="140" cy="512" r="5" fill="#4FD1C5"/>
  </g>
</svg>