<svg width="1200" height="630" xmlns="http://www.w3.org/2000/svg">
  <defs>
    <linearGradient id="bgGradient" x1="0%" y1="0%" x2="100%" y2="100%">
      <stop offset="0%" style="stop-color:#0B0F14;stop-opacity:1" />
      <stop offset="50%" style="stop-color:#0F1619;stop-opacity:1" />
      <stop offset="100%" style="stop-color:#0F1922;stop-opacity:1" />
    </linearGradient>
    <linearGradient id="goldGradient" x1="0%" y1="0%" x2="100%" y2="0%">
      <stop offset="0%" style="stop-color:#E5D596;stop-opacity:1" />
      <stop offset="50%" style="stop-color:#CFAE58;stop-opacity:1" />
      <stop offset="100%" style="stop-color:#B89842;stop-opacity:1" />
    </linearGradient>
    <radialGradient id="oceanGradient" cx="50%" cy="50%" r="50%">
      <stop offset="0%" style="stop-color:#4FD1C5;stop-opacity:0.3" />
      <stop offset="100%" style="stop-color:#1E90A0;stop-opacity:0.05" />
    </radialGradient>
    <filter id="glow">
      <feGaussianBlur stdDeviation="5" result="coloredBlur"/>
      <feMerge>
        <feMergeNode in="coloredBlur"/>
        <feMergeNode in="SourceGraphic"/>
      </feMerge>
    </filter>
    <filter id="softGlow">
      <feGaussianBlur stdDeviation="8" result="coloredBlur"/>
      <feMerge>
        <feMergeNode in="coloredBlur"/>
        <feMergeNode in="SourceGraphic"/>
      </feMerge>
    </filter>
    <filter id="shadow">
      <feDropShadow dx="0" dy="4" stdDeviation="8" flood-color="#000000" flood-opacity="0.5"/>
    </filter>
  </defs>

  <!-- Background -->
  <rect width="1200" height="630" fill="url(#bgGradient)"/>

  <!-- Decorative ocean gradients -->
  <ellipse cx="1000" cy="150" rx="300" ry="200" fill="url(#oceanGradient)" opacity="0.4"/>
  <ellipse cx="200" cy="530" rx="250" ry="180" fill="url(#oceanGradient)" opacity="0.3"/>

  <!-- Wave patterns -->
  <path d="M 0 400 Q 300 350 600 400 T 1200 400 L 1200 630 L 0 630 Z" fill="#1E90A0" opacity="0.08"/>
  <path d="M 0 450 Q 250 420 500 450 T 1000 450 T 1200 450 L 1200 630 L 0 630 Z" fill="#4FD1C5" opacity="0.05"/>

  <!-- Caviar roe particles -->
  <circle cx="881.562393926622" cy="380.539154866934" r="3.0608946780344777" fill="#CFAE58" opacity="0.20167647223659274"/>
  <circle cx="18.5600177897431" cy="165.21813678879724" r="4.577007241975982" fill="#CFAE58" opacity="0.14390875715159251"/>
  <circle cx="64.84621378620217" cy="228.5011492818568" r="4.9226994104770565" fill="#CFAE58" opacity="0.21749229165612768"/>
  <circle cx="109.01976495258086" cy="619.6420381939269" r="2.713219048793561" fill="#CFAE58" opacity="0.14251261271170226"/>
  <circle cx="680.62476446605" cy="547.1194755464863" r="4.959603760475133" fill="#CFAE58" opacity="0.22483717283788762"/>
  <circle cx="618.8104996852644" cy="525.4619403068056" r="4.557219002741469" fill="#CFAE58" opacity="0.11628368072442509"/>
  <circle cx="511.51368626479405" cy="484.0177475488642" r="4.429943178236051" fill="#CFAE58" opacity="0.24961143064902835"/>
  <circle cx="1175.1220634514677" cy="602.0189230156602" r="2.1007690585907985" fill="#CFAE58" opacity="0.20541325070970812"/>
  <circle cx="1092.2501747757121" cy="529.9000316393295" r="3.236047002101944" fill="#CFAE58" opacity="0.22953866608634071"/>
  <circle cx="286.533548973813" cy="54.91049127080066" r="2.2383585650370965" fill="#CFAE58" opacity="0.17848430775712965"/>
  <circle cx="127.40686924073393" cy="110.89229375625841" r="2.78533459527146" fill="#CFAE58" opacity="0.20635963083121306"/>
  <circle cx="484.1610255960971" cy="312.5275473313458" r="4.951820681553871" fill="#CFAE58" opacity="0.15826511914321606"/>
  <circle cx="654.1303150849113" cy="462.48286419263303" r="3.5528651830097346" fill="#CFAE58" opacity="0.18090928773884335"/>
  <circle cx="183.8384350636575" cy="109.60661042212283" r="2.2406568617384797" fill="#CFAE58" opacity="0.20886980179716208"/>
  <circle cx="28.981831961321582" cy="8.286868867549526" r="2.1245441483936998" fill="#CFAE58" opacity="0.24410228626486385"/>
  <circle cx="541.7113074263154" cy="104.00019453434037" r="2.6567871344368643" fill="#CFAE58" opacity="0.1627726033856461"/>
  <circle cx="267.06840646293955" cy="143.84688973949068" r="5.3639735388684" fill="#CFAE58" opacity="0.21016138763370135"/>
  <circle cx="386.93936715131605" cy="251.57622533066498" r="4.204376566476819" fill="#CFAE58" opacity="0.20328080696637235"/>
  <circle cx="111.40468115766349" cy="109.75411323475241" r="3.9518968010589903" fill="#CFAE58" opacity="0.14258990461453844"/>
  <circle cx="443.9707399984145" cy="251.8420036269653" r="3.7838431797658467" fill="#CFAE58" opacity="0.22523070735195655"/>
  <circle cx="199.23699632260482" cy="198.67674492738442" r="3.043131934428039" fill="#CFAE58" opacity="0.1320310320350525"/>
  <circle cx="996.602958972931" cy="155.9984784917746" r="5.242257663000181" fill="#CFAE58" opacity="0.13533745645628714"/>
  <circle cx="986.1412713377132" cy="626.0166025316752" r="5.107172926612621" fill="#CFAE58" opacity="0.2265457439651921"/>
  <circle cx="681.9374801686052" cy="50.85569407735647" r="5.072584274150921" fill="#CFAE58" opacity="0.13389067495084223"/>
  <circle cx="926.5593224475263" cy="228.83818076171414" r="4.8336239681580455" fill="#CFAE58" opacity="0.21158894914025642"/>
  <circle cx="247.79137371087234" cy="37.96965827440257" r="4.584541616672299" fill="#CFAE58" opacity="0.11464519558781328"/>
  <circle cx="1077.881719393248" cy="158.5203142288269" r="5.188546377306118" fill="#CFAE58" opacity="0.11370960365417833"/>
  <circle cx="113.23753783262754" cy="200.3315903821004" r="4.8706049899923425" fill="#CFAE58" opacity="0.15597517592903656"/>
  <circle cx="1124.9774022812792" cy="629.8764807872727" r="4.6256607622433945" fill="#CFAE58" opacity="0.15426248391517508"/>
  <circle cx="1196.6437406002442" cy="259.5508597721971" r="4.494390982399766" fill="#CFAE58" opacity="0.1481380458656533"/>

  <!-- Border with glow -->
  <rect x="40" y="40" width="1120" height="550" fill="none" stroke="url(#goldGradient)" stroke-width="3" rx="12" filter="url(#softGlow)"/>

  <!-- Icon circle with premium background -->
  <circle cx="150" cy="200" r="75" fill="#CFAE58" opacity="0.15" filter="url(#softGlow)"/>
  <circle cx="150" cy="200" r="70" fill="#CFAE58" opacity="0.25"/>
  <text x="150" y="235" font-size="90" text-anchor="middle" fill="#CFAE58" filter="url(#glow)">🚚</text>

  <!-- Premium logo (crown) with enhanced styling -->
  <g transform="translate(100, 70)">
    <path d="M 30 20 L 40 35 L 35 35 Z M 50 15 L 60 35 L 45 35 Z M 65 20 L 75 35 L 70 35 Z M 30 35 L 75 35 L 73 45 L 32 45 Z"
          fill="url(#goldGradient)" filter="url(#glow)" stroke="#B89842" stroke-width="0.5"/>
    <circle cx="40" cy="25" r="3" fill="#4FD1C5" filter="url(#glow)"/>
    <circle cx="52" cy="20" r="4" fill="#4FD1C5" filter="url(#glow)"/>
    <circle cx="65" cy="25" r="3" fill="#4FD1C5" filter="url(#glow)"/>
  </g>

  <!-- Title with shadow -->
  <text x="280" y="180" font-family="Georgia, serif" font-size="72" font-weight="bold"
        fill="url(#goldGradient)" filter="url(#shadow)">Logistics Partners</text>

  <!-- Subtitle with subtle glow -->
  <text x="280" y="230" font-family="Arial, sans-serif" font-size="36"
        fill="#D6DEE6" opacity="0.95" filter="url(#softGlow)">Reliable Delivery Across Russia</text>

  <!-- Brand name with letter spacing -->
  <text x="280" y="300" font-family="Georgia, serif" font-size="32" font-weight="bold"
        fill="#CFAE58" letter-spacing="4" filter="url(#glow)">ROYAL KETA</text>

  <!-- Russian tagline -->
  <text x="280" y="340" font-family="Arial, sans-serif" font-size="22" font-style="italic"
        fill="#8B95A1" opacity="0.8">От икринки к королевской</text>

  <!-- Location -->
  <text x="280" y="380" font-family="Arial, sans-serif" font-size="20"
        fill="#8B95A1" opacity="0.7">Невельский район, Сахалин</text>

  <!-- Website with glow -->
  <text x="100" y="570" font-family="Arial, sans-serif" font-size="30" font-weight="bold"
        fill="#4FD1C5" filter="url(#glow)">royalketa.com</text>

  <!-- Enhanced decorative salmon silhouette -->
  <g transform="translate(950, 480)" opacity="0.2" filter="url(#softGlow)">
    <ellipse cx="0" cy="0" rx="90" ry="35" fill="#CFAE58"/>
    <path d="M 90 0 L 120 -18 L 130 0 L 120 18 Z" fill="#CFAE58"/>
    <path d="M -25 -35 L 0 -45 L 25 -35 Z" fill="#CFAE58"/>
    <ellipse cx="-50" cy="0" rx="15" ry="12" fill="#0B0F14"/>
  </g>

  <!-- Additional decorative caviar clusters -->
  <g opacity="0.2">
    <circle cx="1050" cy="120" r="6" fill="#CFAE58"/>
    <circle cx="1065" cy="115" r="5" fill="#CFAE58"/>
    <circle cx="1058" cy="130" r="4" fill="#CFAE58"/>
    <circle cx="150" cy="500" r="5" fill="#4FD1C5"/>
    <circle cx="165" cy="508" r="4" fill="#4FD1C5"/>
    <circle cx="140" cy="512" r="5" fill="#4FD1C5"/>
  </g>
</svg>