<svg width="1200" height="630" xmlns="http://www.w3.org/2000/svg">
  <defs>
    <linearGradient id="bgGradient" x1="0%" y1="0%" x2="100%" y2="100%">
      <stop offset="0%" style="stop-color:#0B0F14;stop-opacity:1" />
      <stop offset="50%" style="stop-color:#0F1619;stop-opacity:1" />
      <stop offset="100%" style="stop-color:#0F1922;stop-opacity:1" />
    </linearGradient>
    <linearGradient id="goldGradient" x1="0%" y1="0%" x2="100%" y2="0%">
      <stop offset="0%" style="stop-color:#E5D596;stop-opacity:1" />
      <stop offset="50%" style="stop-color:#CFAE58;stop-opacity:1" />
      <stop offset="100%" style="stop-color:#B89842;stop-opacity:1" />
    </linearGradient>
    <radialGradient id="oceanGradient" cx="50%" cy="50%" r="50%">
      <stop offset="0%" style="stop-color:#4FD1C5;stop-opacity:0.3" />
      <stop offset="100%" style="stop-color:#1E90A0;stop-opacity:0.05" />
    </radialGradient>
    <filter id="glow">
      <feGaussianBlur stdDeviation="5" result="coloredBlur"/>
      <feMerge>
        <feMergeNode in="coloredBlur"/>
        <feMergeNode in="SourceGraphic"/>
      </feMerge>
    </filter>
    <filter id="softGlow">
      <feGaussianBlur stdDeviation="8" result="coloredBlur"/>
      <feMerge>
        <feMergeNode in="coloredBlur"/>
        <feMergeNode in="SourceGraphic"/>
      </feMerge>
    </filter>
    <filter id="shadow">
      <feDropShadow dx="0" dy="4" stdDeviation="8" flood-color="#000000" flood-opacity="0.5"/>
    </filter>
  </defs>

  <!-- Background -->
  <rect width="1200" height="630" fill="url(#bgGradient)"/>

  <!-- Decorative ocean gradients -->
  <ellipse cx="1000" cy="150" rx="300" ry="200" fill="url(#oceanGradient)" opacity="0.4"/>
  <ellipse cx="200" cy="530" rx="250" ry="180" fill="url(#oceanGradient)" opacity="0.3"/>

  <!-- Wave patterns -->
  <path d="M 0 400 Q 300 350 600 400 T 1200 400 L 1200 630 L 0 630 Z" fill="#1E90A0" opacity="0.08"/>
  <path d="M 0 450 Q 250 420 500 450 T 1000 450 T 1200 450 L 1200 630 L 0 630 Z" fill="#4FD1C5" opacity="0.05"/>

  <!-- Caviar roe particles -->
  <circle cx="1008.6264863634915" cy="557.2693541594772" r="3.4645525978812213" fill="#CFAE58" opacity="0.21693259126166678"/>
  <circle cx="442.94725898584375" cy="562.2584663712541" r="5.235184410666211" fill="#CFAE58" opacity="0.12881223743395118"/>
  <circle cx="1134.3634217238261" cy="628.0901786434669" r="4.703758544844631" fill="#CFAE58" opacity="0.127009978622971"/>
  <circle cx="78.32373286826532" cy="265.9317032531476" r="5.710922512734125" fill="#CFAE58" opacity="0.2162523080891271"/>
  <circle cx="82.12326464212971" cy="34.9681623096347" r="5.701554274818419" fill="#CFAE58" opacity="0.1006898622025191"/>
  <circle cx="1164.1628385903707" cy="307.9397887793826" r="5.429232295628686" fill="#CFAE58" opacity="0.12771243218382905"/>
  <circle cx="80.16198566179841" cy="76.91414492089481" r="4.530397742367369" fill="#CFAE58" opacity="0.20089944730306003"/>
  <circle cx="583.1250348997171" cy="143.35095477895712" r="2.191416878997493" fill="#CFAE58" opacity="0.16435873553896443"/>
  <circle cx="551.553837520428" cy="328.4295272189371" r="3.0891140502299557" fill="#CFAE58" opacity="0.20329743813770051"/>
  <circle cx="710.6898857557405" cy="177.95184429209093" r="3.0958483702318293" fill="#CFAE58" opacity="0.24890209922824605"/>
  <circle cx="695.1324710373401" cy="574.9788444492406" r="2.3888623212462603" fill="#CFAE58" opacity="0.22529331701147987"/>
  <circle cx="649.2847366497582" cy="237.56497707048374" r="5.479956248285802" fill="#CFAE58" opacity="0.1000997020453272"/>
  <circle cx="653.7485125949695" cy="461.9813239967911" r="5.114827140408221" fill="#CFAE58" opacity="0.23280810627259527"/>
  <circle cx="511.76766652350096" cy="282.28600777279286" r="2.7264357542470874" fill="#CFAE58" opacity="0.11811814770122252"/>
  <circle cx="1044.1011329206797" cy="351.36749426731643" r="2.315649159785716" fill="#CFAE58" opacity="0.24582169741621449"/>
  <circle cx="1017.2071281395267" cy="46.28949232858431" r="3.249396093598218" fill="#CFAE58" opacity="0.1400784987053873"/>
  <circle cx="682.6158430763242" cy="84.12203311034828" r="4.165426360728801" fill="#CFAE58" opacity="0.11840459796270353"/>
  <circle cx="439.80399826870473" cy="506.55370032266984" r="3.976834264593929" fill="#CFAE58" opacity="0.17166125391062104"/>
  <circle cx="16.070656278903517" cy="574.0246791024873" r="5.1072655561259905" fill="#CFAE58" opacity="0.17742775089962687"/>
  <circle cx="1156.130033191578" cy="130.4589231004471" r="2.5688924338887187" fill="#CFAE58" opacity="0.21574269828073828"/>
  <circle cx="743.0110212697771" cy="291.27661485362535" r="4.054850778285868" fill="#CFAE58" opacity="0.13729126675594522"/>
  <circle cx="1157.1713866551686" cy="546.1944497285206" r="4.157042326653321" fill="#CFAE58" opacity="0.18783795997175035"/>
  <circle cx="1030.8458470111354" cy="365.83695866020656" r="5.357344913522938" fill="#CFAE58" opacity="0.13789535780809978"/>
  <circle cx="197.86931067653234" cy="352.12020932867335" r="5.228970251076044" fill="#CFAE58" opacity="0.22299903447380431"/>
  <circle cx="673.0229671844737" cy="498.5522033805375" r="5.753648141820802" fill="#CFAE58" opacity="0.2344955957836076"/>
  <circle cx="419.8100992920955" cy="488.39699522482294" r="5.892195416407032" fill="#CFAE58" opacity="0.13027219861566017"/>
  <circle cx="313.4411620513097" cy="200.93621740019486" r="3.8560063348899742" fill="#CFAE58" opacity="0.20747013501954042"/>
  <circle cx="128.42428988531617" cy="627.3146073841478" r="2.4100060457199124" fill="#CFAE58" opacity="0.11997029381468002"/>
  <circle cx="1082.0760542515059" cy="114.18304770813849" r="3.4692476219091493" fill="#CFAE58" opacity="0.11129822231460917"/>
  <circle cx="1027.0386582348156" cy="460.25948331601677" r="4.767302425635713" fill="#CFAE58" opacity="0.24036879354767712"/>

  <!-- Border with glow -->
  <rect x="40" y="40" width="1120" height="550" fill="none" stroke="url(#goldGradient)" stroke-width="3" rx="12" filter="url(#softGlow)"/>

  <!-- Icon circle with premium background -->
  <circle cx="150" cy="200" r="75" fill="#CFAE58" opacity="0.15" filter="url(#softGlow)"/>
  <circle cx="150" cy="200" r="70" fill="#CFAE58" opacity="0.25"/>
  <text x="150" y="235" font-size="90" text-anchor="middle" fill="#CFAE58" filter="url(#glow)">🚚</text>

  <!-- Premium logo (crown) with enhanced styling -->
  <g transform="translate(100, 70)">
    <path d="M 30 20 L 40 35 L 35 35 Z M 50 15 L 60 35 L 45 35 Z M 65 20 L 75 35 L 70 35 Z M 30 35 L 75 35 L 73 45 L 32 45 Z"
          fill="url(#goldGradient)" filter="url(#glow)" stroke="#B89842" stroke-width="0.5"/>
    <circle cx="40" cy="25" r="3" fill="#4FD1C5" filter="url(#glow)"/>
    <circle cx="52" cy="20" r="4" fill="#4FD1C5" filter="url(#glow)"/>
    <circle cx="65" cy="25" r="3" fill="#4FD1C5" filter="url(#glow)"/>
  </g>

  <!-- Title with shadow -->
  <text x="280" y="180" font-family="Georgia, serif" font-size="72" font-weight="bold"
        fill="url(#goldGradient)" filter="url(#shadow)">Logistics Partners</text>

  <!-- Subtitle with subtle glow -->
  <text x="280" y="230" font-family="Arial, sans-serif" font-size="36"
        fill="#D6DEE6" opacity="0.95" filter="url(#softGlow)">Reliable Delivery Across Russia</text>

  <!-- Brand name with letter spacing -->
  <text x="280" y="300" font-family="Georgia, serif" font-size="32" font-weight="bold"
        fill="#CFAE58" letter-spacing="4" filter="url(#glow)">ROYAL KETA</text>

  <!-- Russian tagline -->
  <text x="280" y="340" font-family="Arial, sans-serif" font-size="22" font-style="italic"
        fill="#8B95A1" opacity="0.8">От икринки к королевской</text>

  <!-- Location -->
  <text x="280" y="380" font-family="Arial, sans-serif" font-size="20"
        fill="#8B95A1" opacity="0.7">Невельский район, Сахалин</text>

  <!-- Website with glow -->
  <text x="100" y="570" font-family="Arial, sans-serif" font-size="30" font-weight="bold"
        fill="#4FD1C5" filter="url(#glow)">royalketa.com</text>

  <!-- Enhanced decorative salmon silhouette -->
  <g transform="translate(950, 480)" opacity="0.2" filter="url(#softGlow)">
    <ellipse cx="0" cy="0" rx="90" ry="35" fill="#CFAE58"/>
    <path d="M 90 0 L 120 -18 L 130 0 L 120 18 Z" fill="#CFAE58"/>
    <path d="M -25 -35 L 0 -45 L 25 -35 Z" fill="#CFAE58"/>
    <ellipse cx="-50" cy="0" rx="15" ry="12" fill="#0B0F14"/>
  </g>

  <!-- Additional decorative caviar clusters -->
  <g opacity="0.2">
    <circle cx="1050" cy="120" r="6" fill="#CFAE58"/>
    <circle cx="1065" cy="115" r="5" fill="#CFAE58"/>
    <circle cx="1058" cy="130" r="4" fill="#CFAE58"/>
    <circle cx="150" cy="500" r="5" fill="#4FD1C5"/>
    <circle cx="165" cy="508" r="4" fill="#4FD1C5"/>
    <circle cx="140" cy="512" r="5" fill="#4FD1C5"/>
  </g>
</svg>