<svg width="1200" height="630" xmlns="http://www.w3.org/2000/svg">
  <defs>
    <linearGradient id="bgGradient" x1="0%" y1="0%" x2="100%" y2="100%">
      <stop offset="0%" style="stop-color:#0B0F14;stop-opacity:1" />
      <stop offset="50%" style="stop-color:#0F1619;stop-opacity:1" />
      <stop offset="100%" style="stop-color:#0F1922;stop-opacity:1" />
    </linearGradient>
    <linearGradient id="goldGradient" x1="0%" y1="0%" x2="100%" y2="0%">
      <stop offset="0%" style="stop-color:#E5D596;stop-opacity:1" />
      <stop offset="50%" style="stop-color:#CFAE58;stop-opacity:1" />
      <stop offset="100%" style="stop-color:#B89842;stop-opacity:1" />
    </linearGradient>
    <radialGradient id="oceanGradient" cx="50%" cy="50%" r="50%">
      <stop offset="0%" style="stop-color:#4FD1C5;stop-opacity:0.3" />
      <stop offset="100%" style="stop-color:#1E90A0;stop-opacity:0.05" />
    </radialGradient>
    <filter id="glow">
      <feGaussianBlur stdDeviation="5" result="coloredBlur"/>
      <feMerge>
        <feMergeNode in="coloredBlur"/>
        <feMergeNode in="SourceGraphic"/>
      </feMerge>
    </filter>
    <filter id="softGlow">
      <feGaussianBlur stdDeviation="8" result="coloredBlur"/>
      <feMerge>
        <feMergeNode in="coloredBlur"/>
        <feMergeNode in="SourceGraphic"/>
      </feMerge>
    </filter>
    <filter id="shadow">
      <feDropShadow dx="0" dy="4" stdDeviation="8" flood-color="#000000" flood-opacity="0.5"/>
    </filter>
  </defs>

  <!-- Background -->
  <rect width="1200" height="630" fill="url(#bgGradient)"/>

  <!-- Decorative ocean gradients -->
  <ellipse cx="1000" cy="150" rx="300" ry="200" fill="url(#oceanGradient)" opacity="0.4"/>
  <ellipse cx="200" cy="530" rx="250" ry="180" fill="url(#oceanGradient)" opacity="0.3"/>

  <!-- Wave patterns -->
  <path d="M 0 400 Q 300 350 600 400 T 1200 400 L 1200 630 L 0 630 Z" fill="#1E90A0" opacity="0.08"/>
  <path d="M 0 450 Q 250 420 500 450 T 1000 450 T 1200 450 L 1200 630 L 0 630 Z" fill="#4FD1C5" opacity="0.05"/>

  <!-- Caviar roe particles -->
  <circle cx="697.8260141922357" cy="533.6932763253632" r="4.298164306368701" fill="#CFAE58" opacity="0.11702382574584871"/>
  <circle cx="554.6995596788512" cy="70.50587955688599" r="5.788128183246025" fill="#CFAE58" opacity="0.13192779743144656"/>
  <circle cx="813.1416910104606" cy="25.034418968462838" r="2.6183006777880946" fill="#CFAE58" opacity="0.17113578316175726"/>
  <circle cx="30.412866474919742" cy="76.23832236306133" r="5.304476164243614" fill="#CFAE58" opacity="0.1786481492977215"/>
  <circle cx="917.2009834629761" cy="139.45921995331435" r="4.596932584801461" fill="#CFAE58" opacity="0.12569419815740193"/>
  <circle cx="758.1117400926994" cy="169.4044552674767" r="4.507294783562711" fill="#CFAE58" opacity="0.21617530828055376"/>
  <circle cx="423.68691953713204" cy="365.60565846548013" r="3.4756124327157654" fill="#CFAE58" opacity="0.24526749679683293"/>
  <circle cx="135.41432032143987" cy="32.87049613283235" r="2.454764866524055" fill="#CFAE58" opacity="0.22858203876780547"/>
  <circle cx="871.0256217066744" cy="437.88295456040584" r="3.8193023136125435" fill="#CFAE58" opacity="0.22456740260360136"/>
  <circle cx="174.87881503567672" cy="375.7282900320015" r="2.928182852490636" fill="#CFAE58" opacity="0.12139999619527361"/>
  <circle cx="981.1095438996492" cy="355.4085815104741" r="4.664546451777829" fill="#CFAE58" opacity="0.18173001456746268"/>
  <circle cx="932.6110700481106" cy="486.50398197538965" r="2.528819625470221" fill="#CFAE58" opacity="0.20930406517960642"/>
  <circle cx="555.3455724378179" cy="475.0603764515278" r="5.076493001703189" fill="#CFAE58" opacity="0.1939649816857924"/>
  <circle cx="830.7569266361933" cy="100.54630185233961" r="4.225490613949803" fill="#CFAE58" opacity="0.11761105754861595"/>
  <circle cx="636.2198486101299" cy="17.01512243685879" r="4.800692652227435" fill="#CFAE58" opacity="0.17890646221296788"/>
  <circle cx="301.1530579999203" cy="430.1069124613864" r="5.863746691023304" fill="#CFAE58" opacity="0.19432223989738934"/>
  <circle cx="923.174654299894" cy="108.1076379571955" r="5.886633440173457" fill="#CFAE58" opacity="0.12816625036676493"/>
  <circle cx="316.1207980634341" cy="239.00954788936465" r="3.0066134371096167" fill="#CFAE58" opacity="0.14133939277331092"/>
  <circle cx="644.5911255019192" cy="206.50385452938045" r="3.008660128161358" fill="#CFAE58" opacity="0.18022313012432953"/>
  <circle cx="761.9135023614099" cy="45.44031715707899" r="2.8101809083457807" fill="#CFAE58" opacity="0.22354585440813496"/>
  <circle cx="717.2251895124529" cy="103.47716340457026" r="5.892937798372803" fill="#CFAE58" opacity="0.14944268813927153"/>
  <circle cx="122.53857369144256" cy="563.9185311489007" r="4.793154861331206" fill="#CFAE58" opacity="0.13881228122799694"/>
  <circle cx="569.0506750396064" cy="488.5233550925121" r="3.922723660090373" fill="#CFAE58" opacity="0.11595885129897981"/>
  <circle cx="607.7214547888709" cy="225.02435770074638" r="4.406421305314715" fill="#CFAE58" opacity="0.2120594649320332"/>
  <circle cx="807.1147520333119" cy="331.1581505514866" r="5.80668394476565" fill="#CFAE58" opacity="0.23863232613035965"/>
  <circle cx="81.86260069285724" cy="239.03407167069284" r="2.3899232906110157" fill="#CFAE58" opacity="0.2365442257975347"/>
  <circle cx="307.4130090387284" cy="594.9101876419227" r="2.76978564528278" fill="#CFAE58" opacity="0.2100109901667642"/>
  <circle cx="806.1807819486504" cy="94.26568317337988" r="3.37949554246641" fill="#CFAE58" opacity="0.2364593432442369"/>
  <circle cx="314.91364735225346" cy="273.6090987362526" r="5.272404665936549" fill="#CFAE58" opacity="0.1511958940737252"/>
  <circle cx="122.01813844000719" cy="125.10680602886632" r="3.1233260318776805" fill="#CFAE58" opacity="0.2233465252225996"/>

  <!-- Border with glow -->
  <rect x="40" y="40" width="1120" height="550" fill="none" stroke="url(#goldGradient)" stroke-width="3" rx="12" filter="url(#softGlow)"/>

  <!-- Icon circle with premium background -->
  <circle cx="150" cy="200" r="75" fill="#CFAE58" opacity="0.15" filter="url(#softGlow)"/>
  <circle cx="150" cy="200" r="70" fill="#CFAE58" opacity="0.25"/>
  <text x="150" y="235" font-size="90" text-anchor="middle" fill="#CFAE58" filter="url(#glow)">🚚</text>

  <!-- Premium logo (crown) with enhanced styling -->
  <g transform="translate(100, 70)">
    <path d="M 30 20 L 40 35 L 35 35 Z M 50 15 L 60 35 L 45 35 Z M 65 20 L 75 35 L 70 35 Z M 30 35 L 75 35 L 73 45 L 32 45 Z"
          fill="url(#goldGradient)" filter="url(#glow)" stroke="#B89842" stroke-width="0.5"/>
    <circle cx="40" cy="25" r="3" fill="#4FD1C5" filter="url(#glow)"/>
    <circle cx="52" cy="20" r="4" fill="#4FD1C5" filter="url(#glow)"/>
    <circle cx="65" cy="25" r="3" fill="#4FD1C5" filter="url(#glow)"/>
  </g>

  <!-- Title with shadow -->
  <text x="280" y="180" font-family="Georgia, serif" font-size="72" font-weight="bold"
        fill="url(#goldGradient)" filter="url(#shadow)">Logistics Partners</text>

  <!-- Subtitle with subtle glow -->
  <text x="280" y="230" font-family="Arial, sans-serif" font-size="36"
        fill="#D6DEE6" opacity="0.95" filter="url(#softGlow)">Reliable Delivery Across Russia</text>

  <!-- Brand name with letter spacing -->
  <text x="280" y="300" font-family="Georgia, serif" font-size="32" font-weight="bold"
        fill="#CFAE58" letter-spacing="4" filter="url(#glow)">ROYAL KETA</text>

  <!-- Russian tagline -->
  <text x="280" y="340" font-family="Arial, sans-serif" font-size="22" font-style="italic"
        fill="#8B95A1" opacity="0.8">От икринки к королевской</text>

  <!-- Location -->
  <text x="280" y="380" font-family="Arial, sans-serif" font-size="20"
        fill="#8B95A1" opacity="0.7">Невельский район, Сахалин</text>

  <!-- Website with glow -->
  <text x="100" y="570" font-family="Arial, sans-serif" font-size="30" font-weight="bold"
        fill="#4FD1C5" filter="url(#glow)">royalketa.com</text>

  <!-- Enhanced decorative salmon silhouette -->
  <g transform="translate(950, 480)" opacity="0.2" filter="url(#softGlow)">
    <ellipse cx="0" cy="0" rx="90" ry="35" fill="#CFAE58"/>
    <path d="M 90 0 L 120 -18 L 130 0 L 120 18 Z" fill="#CFAE58"/>
    <path d="M -25 -35 L 0 -45 L 25 -35 Z" fill="#CFAE58"/>
    <ellipse cx="-50" cy="0" rx="15" ry="12" fill="#0B0F14"/>
  </g>

  <!-- Additional decorative caviar clusters -->
  <g opacity="0.2">
    <circle cx="1050" cy="120" r="6" fill="#CFAE58"/>
    <circle cx="1065" cy="115" r="5" fill="#CFAE58"/>
    <circle cx="1058" cy="130" r="4" fill="#CFAE58"/>
    <circle cx="150" cy="500" r="5" fill="#4FD1C5"/>
    <circle cx="165" cy="508" r="4" fill="#4FD1C5"/>
    <circle cx="140" cy="512" r="5" fill="#4FD1C5"/>
  </g>
</svg>