<svg width="1200" height="630" xmlns="http://www.w3.org/2000/svg">
  <defs>
    <linearGradient id="bgGradient" x1="0%" y1="0%" x2="100%" y2="100%">
      <stop offset="0%" style="stop-color:#0B0F14;stop-opacity:1" />
      <stop offset="50%" style="stop-color:#0F1619;stop-opacity:1" />
      <stop offset="100%" style="stop-color:#0F1922;stop-opacity:1" />
    </linearGradient>
    <linearGradient id="goldGradient" x1="0%" y1="0%" x2="100%" y2="0%">
      <stop offset="0%" style="stop-color:#E5D596;stop-opacity:1" />
      <stop offset="50%" style="stop-color:#CFAE58;stop-opacity:1" />
      <stop offset="100%" style="stop-color:#B89842;stop-opacity:1" />
    </linearGradient>
    <radialGradient id="oceanGradient" cx="50%" cy="50%" r="50%">
      <stop offset="0%" style="stop-color:#4FD1C5;stop-opacity:0.3" />
      <stop offset="100%" style="stop-color:#1E90A0;stop-opacity:0.05" />
    </radialGradient>
    <filter id="glow">
      <feGaussianBlur stdDeviation="5" result="coloredBlur"/>
      <feMerge>
        <feMergeNode in="coloredBlur"/>
        <feMergeNode in="SourceGraphic"/>
      </feMerge>
    </filter>
    <filter id="softGlow">
      <feGaussianBlur stdDeviation="8" result="coloredBlur"/>
      <feMerge>
        <feMergeNode in="coloredBlur"/>
        <feMergeNode in="SourceGraphic"/>
      </feMerge>
    </filter>
    <filter id="shadow">
      <feDropShadow dx="0" dy="4" stdDeviation="8" flood-color="#000000" flood-opacity="0.5"/>
    </filter>
  </defs>

  <!-- Background -->
  <rect width="1200" height="630" fill="url(#bgGradient)"/>

  <!-- Decorative ocean gradients -->
  <ellipse cx="1000" cy="150" rx="300" ry="200" fill="url(#oceanGradient)" opacity="0.4"/>
  <ellipse cx="200" cy="530" rx="250" ry="180" fill="url(#oceanGradient)" opacity="0.3"/>

  <!-- Wave patterns -->
  <path d="M 0 400 Q 300 350 600 400 T 1200 400 L 1200 630 L 0 630 Z" fill="#1E90A0" opacity="0.08"/>
  <path d="M 0 450 Q 250 420 500 450 T 1000 450 T 1200 450 L 1200 630 L 0 630 Z" fill="#4FD1C5" opacity="0.05"/>

  <!-- Caviar roe particles -->
  <circle cx="106.13242306924269" cy="581.7191302875588" r="4.3075854357642065" fill="#CFAE58" opacity="0.2377672060965054"/>
  <circle cx="763.7547759552789" cy="516.6422849138013" r="5.522909914083131" fill="#CFAE58" opacity="0.11724042021365501"/>
  <circle cx="798.4982495748441" cy="296.7775727601616" r="4.885341365659957" fill="#CFAE58" opacity="0.11035908136598799"/>
  <circle cx="547.4733161615258" cy="522.7529544485868" r="5.959324534553161" fill="#CFAE58" opacity="0.15830130501803902"/>
  <circle cx="1183.7603165353314" cy="369.2933097137835" r="4.650783425434389" fill="#CFAE58" opacity="0.14230461359985952"/>
  <circle cx="1134.5057596846934" cy="201.11336704170466" r="3.122918554366775" fill="#CFAE58" opacity="0.19619727783943441"/>
  <circle cx="747.7033833672765" cy="170.40253537619034" r="4.6202933733451825" fill="#CFAE58" opacity="0.24643126917483688"/>
  <circle cx="1127.1684666202575" cy="486.0404732610158" r="3.5853683063785033" fill="#CFAE58" opacity="0.2472003166429409"/>
  <circle cx="829.3700891663667" cy="612.3333733491318" r="2.514353470582944" fill="#CFAE58" opacity="0.19018502695191009"/>
  <circle cx="214.69854086546314" cy="551.638226135339" r="3.102581760771965" fill="#CFAE58" opacity="0.12803994780761116"/>
  <circle cx="961.5764582952626" cy="360.9813674051659" r="4.420290361012853" fill="#CFAE58" opacity="0.13119184207976714"/>
  <circle cx="582.2280160577609" cy="353.4244190079964" r="5.3906551201977075" fill="#CFAE58" opacity="0.1480448727997306"/>
  <circle cx="74.79236519655417" cy="536.9906002819462" r="2.741300572998544" fill="#CFAE58" opacity="0.13268559145867492"/>
  <circle cx="619.4477479670447" cy="375.4162236170158" r="2.7900949385524783" fill="#CFAE58" opacity="0.2041177947780901"/>
  <circle cx="649.3588024666203" cy="217.43048127567155" r="3.2472904269679526" fill="#CFAE58" opacity="0.1260485989033658"/>
  <circle cx="13.71136380122091" cy="477.0162449969896" r="3.595816442922284" fill="#CFAE58" opacity="0.197287941118026"/>
  <circle cx="841.8868234547082" cy="454.51353264795773" r="4.3207142943019" fill="#CFAE58" opacity="0.10226233936249189"/>
  <circle cx="219.02714626228658" cy="160.5573530987763" r="4.487483472949793" fill="#CFAE58" opacity="0.16368452366934194"/>
  <circle cx="1149.0016974198622" cy="13.420822144598167" r="2.606274527785009" fill="#CFAE58" opacity="0.17977670437824153"/>
  <circle cx="28.86953247479753" cy="574.4747524759181" r="5.136810853194512" fill="#CFAE58" opacity="0.16393591105162703"/>
  <circle cx="1045.8405703837414" cy="102.6518861275449" r="2.670612268626574" fill="#CFAE58" opacity="0.2040431147532306"/>
  <circle cx="90.63899973748187" cy="569.8042333780893" r="4.422073572635755" fill="#CFAE58" opacity="0.21557343111263016"/>
  <circle cx="647.3702185699821" cy="71.5989759436608" r="2.779321981384492" fill="#CFAE58" opacity="0.1458799431129059"/>
  <circle cx="817.561028395749" cy="185.2662565550159" r="4.29095433605342" fill="#CFAE58" opacity="0.10678528823841463"/>
  <circle cx="90.45431784428021" cy="319.3319710919773" r="2.2080596086903426" fill="#CFAE58" opacity="0.23230075407877696"/>
  <circle cx="26.745258933336657" cy="198.69837580178063" r="5.816249194004269" fill="#CFAE58" opacity="0.11274710343619021"/>
  <circle cx="462.2473974025456" cy="228.35831013553855" r="4.114906178884187" fill="#CFAE58" opacity="0.178309512757932"/>
  <circle cx="916.1940702477727" cy="441.42082265696683" r="4.887704746758111" fill="#CFAE58" opacity="0.2377249755320502"/>
  <circle cx="663.1511978662122" cy="65.26136845023653" r="5.783044527991434" fill="#CFAE58" opacity="0.11426638258294833"/>
  <circle cx="1142.9472112449523" cy="427.9339055215945" r="5.293593669293971" fill="#CFAE58" opacity="0.10006125265733642"/>

  <!-- Border with glow -->
  <rect x="40" y="40" width="1120" height="550" fill="none" stroke="url(#goldGradient)" stroke-width="3" rx="12" filter="url(#softGlow)"/>

  <!-- Icon circle with premium background -->
  <circle cx="150" cy="200" r="75" fill="#CFAE58" opacity="0.15" filter="url(#softGlow)"/>
  <circle cx="150" cy="200" r="70" fill="#CFAE58" opacity="0.25"/>
  <text x="150" y="235" font-size="90" text-anchor="middle" fill="#CFAE58" filter="url(#glow)">🚚</text>

  <!-- Premium logo (crown) with enhanced styling -->
  <g transform="translate(100, 70)">
    <path d="M 30 20 L 40 35 L 35 35 Z M 50 15 L 60 35 L 45 35 Z M 65 20 L 75 35 L 70 35 Z M 30 35 L 75 35 L 73 45 L 32 45 Z"
          fill="url(#goldGradient)" filter="url(#glow)" stroke="#B89842" stroke-width="0.5"/>
    <circle cx="40" cy="25" r="3" fill="#4FD1C5" filter="url(#glow)"/>
    <circle cx="52" cy="20" r="4" fill="#4FD1C5" filter="url(#glow)"/>
    <circle cx="65" cy="25" r="3" fill="#4FD1C5" filter="url(#glow)"/>
  </g>

  <!-- Title with shadow -->
  <text x="280" y="180" font-family="Georgia, serif" font-size="72" font-weight="bold"
        fill="url(#goldGradient)" filter="url(#shadow)">Logistics Partners</text>

  <!-- Subtitle with subtle glow -->
  <text x="280" y="230" font-family="Arial, sans-serif" font-size="36"
        fill="#D6DEE6" opacity="0.95" filter="url(#softGlow)">Reliable Delivery Across Russia</text>

  <!-- Brand name with letter spacing -->
  <text x="280" y="300" font-family="Georgia, serif" font-size="32" font-weight="bold"
        fill="#CFAE58" letter-spacing="4" filter="url(#glow)">ROYAL KETA</text>

  <!-- Russian tagline -->
  <text x="280" y="340" font-family="Arial, sans-serif" font-size="22" font-style="italic"
        fill="#8B95A1" opacity="0.8">От икринки к королевской</text>

  <!-- Location -->
  <text x="280" y="380" font-family="Arial, sans-serif" font-size="20"
        fill="#8B95A1" opacity="0.7">Невельский район, Сахалин</text>

  <!-- Website with glow -->
  <text x="100" y="570" font-family="Arial, sans-serif" font-size="30" font-weight="bold"
        fill="#4FD1C5" filter="url(#glow)">royalketa.com</text>

  <!-- Enhanced decorative salmon silhouette -->
  <g transform="translate(950, 480)" opacity="0.2" filter="url(#softGlow)">
    <ellipse cx="0" cy="0" rx="90" ry="35" fill="#CFAE58"/>
    <path d="M 90 0 L 120 -18 L 130 0 L 120 18 Z" fill="#CFAE58"/>
    <path d="M -25 -35 L 0 -45 L 25 -35 Z" fill="#CFAE58"/>
    <ellipse cx="-50" cy="0" rx="15" ry="12" fill="#0B0F14"/>
  </g>

  <!-- Additional decorative caviar clusters -->
  <g opacity="0.2">
    <circle cx="1050" cy="120" r="6" fill="#CFAE58"/>
    <circle cx="1065" cy="115" r="5" fill="#CFAE58"/>
    <circle cx="1058" cy="130" r="4" fill="#CFAE58"/>
    <circle cx="150" cy="500" r="5" fill="#4FD1C5"/>
    <circle cx="165" cy="508" r="4" fill="#4FD1C5"/>
    <circle cx="140" cy="512" r="5" fill="#4FD1C5"/>
  </g>
</svg>