<svg width="1200" height="630" xmlns="http://www.w3.org/2000/svg">
  <defs>
    <linearGradient id="bgGradient" x1="0%" y1="0%" x2="100%" y2="100%">
      <stop offset="0%" style="stop-color:#0B0F14;stop-opacity:1" />
      <stop offset="50%" style="stop-color:#0F1619;stop-opacity:1" />
      <stop offset="100%" style="stop-color:#0F1922;stop-opacity:1" />
    </linearGradient>
    <linearGradient id="goldGradient" x1="0%" y1="0%" x2="100%" y2="0%">
      <stop offset="0%" style="stop-color:#E5D596;stop-opacity:1" />
      <stop offset="50%" style="stop-color:#CFAE58;stop-opacity:1" />
      <stop offset="100%" style="stop-color:#B89842;stop-opacity:1" />
    </linearGradient>
    <radialGradient id="oceanGradient" cx="50%" cy="50%" r="50%">
      <stop offset="0%" style="stop-color:#4FD1C5;stop-opacity:0.3" />
      <stop offset="100%" style="stop-color:#1E90A0;stop-opacity:0.05" />
    </radialGradient>
    <filter id="glow">
      <feGaussianBlur stdDeviation="5" result="coloredBlur"/>
      <feMerge>
        <feMergeNode in="coloredBlur"/>
        <feMergeNode in="SourceGraphic"/>
      </feMerge>
    </filter>
    <filter id="softGlow">
      <feGaussianBlur stdDeviation="8" result="coloredBlur"/>
      <feMerge>
        <feMergeNode in="coloredBlur"/>
        <feMergeNode in="SourceGraphic"/>
      </feMerge>
    </filter>
    <filter id="shadow">
      <feDropShadow dx="0" dy="4" stdDeviation="8" flood-color="#000000" flood-opacity="0.5"/>
    </filter>
  </defs>

  <!-- Background -->
  <rect width="1200" height="630" fill="url(#bgGradient)"/>

  <!-- Decorative ocean gradients -->
  <ellipse cx="1000" cy="150" rx="300" ry="200" fill="url(#oceanGradient)" opacity="0.4"/>
  <ellipse cx="200" cy="530" rx="250" ry="180" fill="url(#oceanGradient)" opacity="0.3"/>

  <!-- Wave patterns -->
  <path d="M 0 400 Q 300 350 600 400 T 1200 400 L 1200 630 L 0 630 Z" fill="#1E90A0" opacity="0.08"/>
  <path d="M 0 450 Q 250 420 500 450 T 1000 450 T 1200 450 L 1200 630 L 0 630 Z" fill="#4FD1C5" opacity="0.05"/>

  <!-- Caviar roe particles -->
  <circle cx="711.344850510515" cy="402.13658779728837" r="4.459066707246221" fill="#CFAE58" opacity="0.10262059381544017"/>
  <circle cx="180.0577279771643" cy="297.11189188018403" r="3.085108808480997" fill="#CFAE58" opacity="0.12065753553985234"/>
  <circle cx="354.886461902219" cy="462.87913965109385" r="5.701415589553171" fill="#CFAE58" opacity="0.14809989353338848"/>
  <circle cx="1125.7376157840874" cy="330.55886145215965" r="5.968834177558814" fill="#CFAE58" opacity="0.1863096937853569"/>
  <circle cx="677.5018202709053" cy="55.49749641169329" r="3.9305663063105714" fill="#CFAE58" opacity="0.13310384751428034"/>
  <circle cx="228.0453372791122" cy="226.9901918084815" r="3.221631114763463" fill="#CFAE58" opacity="0.11570719542426376"/>
  <circle cx="655.6488807748929" cy="109.99618133182676" r="4.729872721910437" fill="#CFAE58" opacity="0.21447579125100952"/>
  <circle cx="1137.2590002357533" cy="284.29710544140534" r="5.349981947785793" fill="#CFAE58" opacity="0.20353999286881655"/>
  <circle cx="1061.530968335469" cy="71.14692382965234" r="4.778069643938211" fill="#CFAE58" opacity="0.16912089908740363"/>
  <circle cx="774.1280621470358" cy="178.56040655982852" r="2.85334627928502" fill="#CFAE58" opacity="0.13223649177875926"/>
  <circle cx="1150.3960070860958" cy="49.96720278001449" r="4.898258850635454" fill="#CFAE58" opacity="0.2218830374907469"/>
  <circle cx="672.8477814922004" cy="209.91681534142523" r="3.0857504005132785" fill="#CFAE58" opacity="0.19884365297654616"/>
  <circle cx="223.77830880143108" cy="590.0610909308176" r="2.0715950819245235" fill="#CFAE58" opacity="0.13611397456469876"/>
  <circle cx="326.7686585952698" cy="198.03105467725408" r="5.3149021899662285" fill="#CFAE58" opacity="0.18339538644377867"/>
  <circle cx="763.342805581733" cy="517.5713249676837" r="4.9241122224821625" fill="#CFAE58" opacity="0.15933702673227423"/>
  <circle cx="150.93927289833582" cy="264.5215050351839" r="4.453071042317097" fill="#CFAE58" opacity="0.21923671194729452"/>
  <circle cx="168.48913977515946" cy="28.683491829462675" r="3.3610951887255274" fill="#CFAE58" opacity="0.16061656892635093"/>
  <circle cx="596.0149254394498" cy="393.8317649015755" r="2.0678591047871997" fill="#CFAE58" opacity="0.13079486308744825"/>
  <circle cx="273.9948809141271" cy="192.66803851935572" r="4.712845730878176" fill="#CFAE58" opacity="0.1243776105096416"/>
  <circle cx="600.2666495984282" cy="247.57939989994662" r="5.928548395584584" fill="#CFAE58" opacity="0.15326979345077224"/>
  <circle cx="1066.9108283460037" cy="271.4838718698411" r="3.7076267609608653" fill="#CFAE58" opacity="0.24301516947217017"/>
  <circle cx="186.82962573656496" cy="63.892134148946916" r="2.470942080129638" fill="#CFAE58" opacity="0.1299472428477177"/>
  <circle cx="857.6781189697459" cy="0.24644848596292013" r="2.889155175585822" fill="#CFAE58" opacity="0.1068587696617044"/>
  <circle cx="67.32762887768322" cy="325.05662678568984" r="5.752201785206538" fill="#CFAE58" opacity="0.14187059164601942"/>
  <circle cx="951.8817578359165" cy="218.6889193933701" r="4.934173658530815" fill="#CFAE58" opacity="0.2034418283696185"/>
  <circle cx="748.3338234398415" cy="454.10617390095206" r="3.123732747108007" fill="#CFAE58" opacity="0.11470381439154541"/>
  <circle cx="375.88148941946207" cy="301.24398423847344" r="3.5690585639259726" fill="#CFAE58" opacity="0.1841938895427945"/>
  <circle cx="653.1412664172992" cy="46.74858145593976" r="2.3612273013506844" fill="#CFAE58" opacity="0.20291474458793735"/>
  <circle cx="796.0916616585401" cy="248.58152803733597" r="4.535714355520676" fill="#CFAE58" opacity="0.23415606867587663"/>
  <circle cx="245.93703008980378" cy="60.2939286486286" r="2.0522328310232556" fill="#CFAE58" opacity="0.11352280467506001"/>

  <!-- Border with glow -->
  <rect x="40" y="40" width="1120" height="550" fill="none" stroke="url(#goldGradient)" stroke-width="3" rx="12" filter="url(#softGlow)"/>

  <!-- Icon circle with premium background -->
  <circle cx="150" cy="200" r="75" fill="#CFAE58" opacity="0.15" filter="url(#softGlow)"/>
  <circle cx="150" cy="200" r="70" fill="#CFAE58" opacity="0.25"/>
  <text x="150" y="235" font-size="90" text-anchor="middle" fill="#CFAE58" filter="url(#glow)">🚚</text>

  <!-- Premium logo (crown) with enhanced styling -->
  <g transform="translate(100, 70)">
    <path d="M 30 20 L 40 35 L 35 35 Z M 50 15 L 60 35 L 45 35 Z M 65 20 L 75 35 L 70 35 Z M 30 35 L 75 35 L 73 45 L 32 45 Z"
          fill="url(#goldGradient)" filter="url(#glow)" stroke="#B89842" stroke-width="0.5"/>
    <circle cx="40" cy="25" r="3" fill="#4FD1C5" filter="url(#glow)"/>
    <circle cx="52" cy="20" r="4" fill="#4FD1C5" filter="url(#glow)"/>
    <circle cx="65" cy="25" r="3" fill="#4FD1C5" filter="url(#glow)"/>
  </g>

  <!-- Title with shadow -->
  <text x="280" y="180" font-family="Georgia, serif" font-size="72" font-weight="bold"
        fill="url(#goldGradient)" filter="url(#shadow)">Logistics Partners</text>

  <!-- Subtitle with subtle glow -->
  <text x="280" y="230" font-family="Arial, sans-serif" font-size="36"
        fill="#D6DEE6" opacity="0.95" filter="url(#softGlow)">Reliable Delivery Across Russia</text>

  <!-- Brand name with letter spacing -->
  <text x="280" y="300" font-family="Georgia, serif" font-size="32" font-weight="bold"
        fill="#CFAE58" letter-spacing="4" filter="url(#glow)">ROYAL KETA</text>

  <!-- Russian tagline -->
  <text x="280" y="340" font-family="Arial, sans-serif" font-size="22" font-style="italic"
        fill="#8B95A1" opacity="0.8">От икринки к королевской</text>

  <!-- Location -->
  <text x="280" y="380" font-family="Arial, sans-serif" font-size="20"
        fill="#8B95A1" opacity="0.7">Невельский район, Сахалин</text>

  <!-- Website with glow -->
  <text x="100" y="570" font-family="Arial, sans-serif" font-size="30" font-weight="bold"
        fill="#4FD1C5" filter="url(#glow)">royalketa.com</text>

  <!-- Enhanced decorative salmon silhouette -->
  <g transform="translate(950, 480)" opacity="0.2" filter="url(#softGlow)">
    <ellipse cx="0" cy="0" rx="90" ry="35" fill="#CFAE58"/>
    <path d="M 90 0 L 120 -18 L 130 0 L 120 18 Z" fill="#CFAE58"/>
    <path d="M -25 -35 L 0 -45 L 25 -35 Z" fill="#CFAE58"/>
    <ellipse cx="-50" cy="0" rx="15" ry="12" fill="#0B0F14"/>
  </g>

  <!-- Additional decorative caviar clusters -->
  <g opacity="0.2">
    <circle cx="1050" cy="120" r="6" fill="#CFAE58"/>
    <circle cx="1065" cy="115" r="5" fill="#CFAE58"/>
    <circle cx="1058" cy="130" r="4" fill="#CFAE58"/>
    <circle cx="150" cy="500" r="5" fill="#4FD1C5"/>
    <circle cx="165" cy="508" r="4" fill="#4FD1C5"/>
    <circle cx="140" cy="512" r="5" fill="#4FD1C5"/>
  </g>
</svg>