<svg width="1200" height="630" xmlns="http://www.w3.org/2000/svg">
  <defs>
    <linearGradient id="bgGradient" x1="0%" y1="0%" x2="100%" y2="100%">
      <stop offset="0%" style="stop-color:#0B0F14;stop-opacity:1" />
      <stop offset="50%" style="stop-color:#0F1619;stop-opacity:1" />
      <stop offset="100%" style="stop-color:#0F1922;stop-opacity:1" />
    </linearGradient>
    <linearGradient id="goldGradient" x1="0%" y1="0%" x2="100%" y2="0%">
      <stop offset="0%" style="stop-color:#E5D596;stop-opacity:1" />
      <stop offset="50%" style="stop-color:#CFAE58;stop-opacity:1" />
      <stop offset="100%" style="stop-color:#B89842;stop-opacity:1" />
    </linearGradient>
    <radialGradient id="oceanGradient" cx="50%" cy="50%" r="50%">
      <stop offset="0%" style="stop-color:#4FD1C5;stop-opacity:0.3" />
      <stop offset="100%" style="stop-color:#1E90A0;stop-opacity:0.05" />
    </radialGradient>
    <filter id="glow">
      <feGaussianBlur stdDeviation="5" result="coloredBlur"/>
      <feMerge>
        <feMergeNode in="coloredBlur"/>
        <feMergeNode in="SourceGraphic"/>
      </feMerge>
    </filter>
    <filter id="softGlow">
      <feGaussianBlur stdDeviation="8" result="coloredBlur"/>
      <feMerge>
        <feMergeNode in="coloredBlur"/>
        <feMergeNode in="SourceGraphic"/>
      </feMerge>
    </filter>
    <filter id="shadow">
      <feDropShadow dx="0" dy="4" stdDeviation="8" flood-color="#000000" flood-opacity="0.5"/>
    </filter>
  </defs>

  <!-- Background -->
  <rect width="1200" height="630" fill="url(#bgGradient)"/>

  <!-- Decorative ocean gradients -->
  <ellipse cx="1000" cy="150" rx="300" ry="200" fill="url(#oceanGradient)" opacity="0.4"/>
  <ellipse cx="200" cy="530" rx="250" ry="180" fill="url(#oceanGradient)" opacity="0.3"/>

  <!-- Wave patterns -->
  <path d="M 0 400 Q 300 350 600 400 T 1200 400 L 1200 630 L 0 630 Z" fill="#1E90A0" opacity="0.08"/>
  <path d="M 0 450 Q 250 420 500 450 T 1000 450 T 1200 450 L 1200 630 L 0 630 Z" fill="#4FD1C5" opacity="0.05"/>

  <!-- Caviar roe particles -->
  <circle cx="1181.6918332238731" cy="300.875988610659" r="2.9334539135991644" fill="#CFAE58" opacity="0.10305191162905503"/>
  <circle cx="1074.946526356459" cy="174.3020606341717" r="4.215107527137588" fill="#CFAE58" opacity="0.11485287227952316"/>
  <circle cx="596.5075380315259" cy="184.44453007439753" r="2.9462733440745215" fill="#CFAE58" opacity="0.15294838259895208"/>
  <circle cx="553.1537626832608" cy="307.26708628871455" r="2.3412633520584274" fill="#CFAE58" opacity="0.14994513216854383"/>
  <circle cx="624.3967685114312" cy="79.9329247145978" r="3.2439374529319327" fill="#CFAE58" opacity="0.1037027075219637"/>
  <circle cx="335.04682409521223" cy="144.15053182503266" r="5.431272816732" fill="#CFAE58" opacity="0.10133552350825581"/>
  <circle cx="513.8657146621059" cy="437.8443904890613" r="5.869387231427952" fill="#CFAE58" opacity="0.18113081093551536"/>
  <circle cx="1180.2521501328729" cy="194.57209518717974" r="5.925177246213524" fill="#CFAE58" opacity="0.15396961999875788"/>
  <circle cx="190.75311946042913" cy="490.8169695339045" r="3.359126436024705" fill="#CFAE58" opacity="0.1540982568996215"/>
  <circle cx="26.923950996692447" cy="572.6485224334858" r="2.5085805906234766" fill="#CFAE58" opacity="0.11877526474727904"/>
  <circle cx="279.1041227348368" cy="241.40375009205525" r="3.7511244593229094" fill="#CFAE58" opacity="0.15892130964350243"/>
  <circle cx="252.03239397054622" cy="15.987783027165346" r="4.475504722138919" fill="#CFAE58" opacity="0.24449568566930643"/>
  <circle cx="53.0510028699581" cy="392.96724225738274" r="3.9812712263280767" fill="#CFAE58" opacity="0.16065251577257983"/>
  <circle cx="644.6536396360493" cy="622.5589891341488" r="2.972432276722971" fill="#CFAE58" opacity="0.20978573814095808"/>
  <circle cx="321.20586739349164" cy="530.255739686459" r="3.108046451732596" fill="#CFAE58" opacity="0.16670589225533045"/>
  <circle cx="510.8552968805044" cy="416.3020876726902" r="5.555265021244262" fill="#CFAE58" opacity="0.16109934692961192"/>
  <circle cx="206.9616302353386" cy="293.1723375479621" r="5.896447960933356" fill="#CFAE58" opacity="0.22352642468321726"/>
  <circle cx="111.74858604208939" cy="12.945362707391315" r="4.54936775888603" fill="#CFAE58" opacity="0.2323074033243388"/>
  <circle cx="383.42829821327626" cy="253.74654166577378" r="5.633561548515196" fill="#CFAE58" opacity="0.11532561632697037"/>
  <circle cx="679.1455341245324" cy="276.9235844466296" r="5.131212785845755" fill="#CFAE58" opacity="0.11644431312655854"/>
  <circle cx="218.8791245790652" cy="259.36292241126415" r="5.034228097451311" fill="#CFAE58" opacity="0.19921292676754104"/>
  <circle cx="1038.6065074911355" cy="518.5195350160958" r="4.606691200220235" fill="#CFAE58" opacity="0.24436034277703805"/>
  <circle cx="752.2320186418294" cy="203.5559870285786" r="2.629616190714022" fill="#CFAE58" opacity="0.16103742254239276"/>
  <circle cx="796.146857208962" cy="15.673064159783745" r="4.230828824016039" fill="#CFAE58" opacity="0.2451034575175328"/>
  <circle cx="559.8492253070915" cy="109.9938770894773" r="2.0254437224784905" fill="#CFAE58" opacity="0.12821161951048066"/>
  <circle cx="632.1748804363593" cy="533.9466405760782" r="2.074370076701431" fill="#CFAE58" opacity="0.1799131154324238"/>
  <circle cx="42.11604838939742" cy="358.15052533720336" r="4.04303651248874" fill="#CFAE58" opacity="0.1171863088929117"/>
  <circle cx="838.9100328368362" cy="525.9783375819848" r="4.314268088553571" fill="#CFAE58" opacity="0.18061026541096697"/>
  <circle cx="1135.222425850787" cy="585.2994966712288" r="5.141174716767938" fill="#CFAE58" opacity="0.21470153754020457"/>
  <circle cx="450.08989579843507" cy="11.82393444290599" r="4.701709643253037" fill="#CFAE58" opacity="0.13343097389460654"/>

  <!-- Border with glow -->
  <rect x="40" y="40" width="1120" height="550" fill="none" stroke="url(#goldGradient)" stroke-width="3" rx="12" filter="url(#softGlow)"/>

  <!-- Icon circle with premium background -->
  <circle cx="150" cy="200" r="75" fill="#CFAE58" opacity="0.15" filter="url(#softGlow)"/>
  <circle cx="150" cy="200" r="70" fill="#CFAE58" opacity="0.25"/>
  <text x="150" y="235" font-size="90" text-anchor="middle" fill="#CFAE58" filter="url(#glow)">🚚</text>

  <!-- Premium logo (crown) with enhanced styling -->
  <g transform="translate(100, 70)">
    <path d="M 30 20 L 40 35 L 35 35 Z M 50 15 L 60 35 L 45 35 Z M 65 20 L 75 35 L 70 35 Z M 30 35 L 75 35 L 73 45 L 32 45 Z"
          fill="url(#goldGradient)" filter="url(#glow)" stroke="#B89842" stroke-width="0.5"/>
    <circle cx="40" cy="25" r="3" fill="#4FD1C5" filter="url(#glow)"/>
    <circle cx="52" cy="20" r="4" fill="#4FD1C5" filter="url(#glow)"/>
    <circle cx="65" cy="25" r="3" fill="#4FD1C5" filter="url(#glow)"/>
  </g>

  <!-- Title with shadow -->
  <text x="280" y="180" font-family="Georgia, serif" font-size="72" font-weight="bold"
        fill="url(#goldGradient)" filter="url(#shadow)">Logistics Partners</text>

  <!-- Subtitle with subtle glow -->
  <text x="280" y="230" font-family="Arial, sans-serif" font-size="36"
        fill="#D6DEE6" opacity="0.95" filter="url(#softGlow)">Reliable Delivery Across Russia</text>

  <!-- Brand name with letter spacing -->
  <text x="280" y="300" font-family="Georgia, serif" font-size="32" font-weight="bold"
        fill="#CFAE58" letter-spacing="4" filter="url(#glow)">ROYAL KETA</text>

  <!-- Russian tagline -->
  <text x="280" y="340" font-family="Arial, sans-serif" font-size="22" font-style="italic"
        fill="#8B95A1" opacity="0.8">От икринки к королевской</text>

  <!-- Location -->
  <text x="280" y="380" font-family="Arial, sans-serif" font-size="20"
        fill="#8B95A1" opacity="0.7">Невельский район, Сахалин</text>

  <!-- Website with glow -->
  <text x="100" y="570" font-family="Arial, sans-serif" font-size="30" font-weight="bold"
        fill="#4FD1C5" filter="url(#glow)">royalketa.com</text>

  <!-- Enhanced decorative salmon silhouette -->
  <g transform="translate(950, 480)" opacity="0.2" filter="url(#softGlow)">
    <ellipse cx="0" cy="0" rx="90" ry="35" fill="#CFAE58"/>
    <path d="M 90 0 L 120 -18 L 130 0 L 120 18 Z" fill="#CFAE58"/>
    <path d="M -25 -35 L 0 -45 L 25 -35 Z" fill="#CFAE58"/>
    <ellipse cx="-50" cy="0" rx="15" ry="12" fill="#0B0F14"/>
  </g>

  <!-- Additional decorative caviar clusters -->
  <g opacity="0.2">
    <circle cx="1050" cy="120" r="6" fill="#CFAE58"/>
    <circle cx="1065" cy="115" r="5" fill="#CFAE58"/>
    <circle cx="1058" cy="130" r="4" fill="#CFAE58"/>
    <circle cx="150" cy="500" r="5" fill="#4FD1C5"/>
    <circle cx="165" cy="508" r="4" fill="#4FD1C5"/>
    <circle cx="140" cy="512" r="5" fill="#4FD1C5"/>
  </g>
</svg>