<svg width="1200" height="630" xmlns="http://www.w3.org/2000/svg">
  <defs>
    <linearGradient id="bgGradient" x1="0%" y1="0%" x2="100%" y2="100%">
      <stop offset="0%" style="stop-color:#0B0F14;stop-opacity:1" />
      <stop offset="50%" style="stop-color:#0F1619;stop-opacity:1" />
      <stop offset="100%" style="stop-color:#0F1922;stop-opacity:1" />
    </linearGradient>
    <linearGradient id="goldGradient" x1="0%" y1="0%" x2="100%" y2="0%">
      <stop offset="0%" style="stop-color:#E5D596;stop-opacity:1" />
      <stop offset="50%" style="stop-color:#CFAE58;stop-opacity:1" />
      <stop offset="100%" style="stop-color:#B89842;stop-opacity:1" />
    </linearGradient>
    <radialGradient id="oceanGradient" cx="50%" cy="50%" r="50%">
      <stop offset="0%" style="stop-color:#4FD1C5;stop-opacity:0.3" />
      <stop offset="100%" style="stop-color:#1E90A0;stop-opacity:0.05" />
    </radialGradient>
    <filter id="glow">
      <feGaussianBlur stdDeviation="5" result="coloredBlur"/>
      <feMerge>
        <feMergeNode in="coloredBlur"/>
        <feMergeNode in="SourceGraphic"/>
      </feMerge>
    </filter>
    <filter id="softGlow">
      <feGaussianBlur stdDeviation="8" result="coloredBlur"/>
      <feMerge>
        <feMergeNode in="coloredBlur"/>
        <feMergeNode in="SourceGraphic"/>
      </feMerge>
    </filter>
    <filter id="shadow">
      <feDropShadow dx="0" dy="4" stdDeviation="8" flood-color="#000000" flood-opacity="0.5"/>
    </filter>
  </defs>

  <!-- Background -->
  <rect width="1200" height="630" fill="url(#bgGradient)"/>

  <!-- Decorative ocean gradients -->
  <ellipse cx="1000" cy="150" rx="300" ry="200" fill="url(#oceanGradient)" opacity="0.4"/>
  <ellipse cx="200" cy="530" rx="250" ry="180" fill="url(#oceanGradient)" opacity="0.3"/>

  <!-- Wave patterns -->
  <path d="M 0 400 Q 300 350 600 400 T 1200 400 L 1200 630 L 0 630 Z" fill="#1E90A0" opacity="0.08"/>
  <path d="M 0 450 Q 250 420 500 450 T 1000 450 T 1200 450 L 1200 630 L 0 630 Z" fill="#4FD1C5" opacity="0.05"/>

  <!-- Caviar roe particles -->
  <circle cx="1063.1945299931667" cy="13.442484851533923" r="5.644792107653791" fill="#CFAE58" opacity="0.16055654665139288"/>
  <circle cx="1133.94320008933" cy="95.96001671471761" r="4.336442117797634" fill="#CFAE58" opacity="0.10095593390360283"/>
  <circle cx="444.1886605241141" cy="301.631656096451" r="5.5912011890171245" fill="#CFAE58" opacity="0.18687807398456358"/>
  <circle cx="156.0089086321441" cy="589.1770628036209" r="2.8592800961295324" fill="#CFAE58" opacity="0.14263098659032347"/>
  <circle cx="341.73663343156323" cy="566.2781735194803" r="3.87073748051129" fill="#CFAE58" opacity="0.21829123517465945"/>
  <circle cx="271.89395670706983" cy="101.35910134929603" r="3.1561877034842376" fill="#CFAE58" opacity="0.11857334073100267"/>
  <circle cx="849.8956041489748" cy="294.04942692690753" r="3.3386099778040923" fill="#CFAE58" opacity="0.2273353871559075"/>
  <circle cx="378.89669324269863" cy="382.3355002868165" r="3.9025987131471167" fill="#CFAE58" opacity="0.18062969597614337"/>
  <circle cx="771.0650596968163" cy="361.93346126919255" r="4.608580860533431" fill="#CFAE58" opacity="0.20443203206114555"/>
  <circle cx="279.35259602149546" cy="114.44273010745442" r="3.8483664455360245" fill="#CFAE58" opacity="0.15491808690896886"/>
  <circle cx="975.384233088728" cy="565.6647797899002" r="3.8396068819820206" fill="#CFAE58" opacity="0.22068163810071167"/>
  <circle cx="7.579668894709579" cy="250.77226963760071" r="5.562908411941834" fill="#CFAE58" opacity="0.14698621904120573"/>
  <circle cx="55.157339542755146" cy="46.93131916607906" r="2.4210796396122167" fill="#CFAE58" opacity="0.21734823149057464"/>
  <circle cx="1086.4647687148008" cy="584.4548392150301" r="4.054127473031417" fill="#CFAE58" opacity="0.22828611803537788"/>
  <circle cx="814.1642981495243" cy="620.387529483551" r="4.710651868629155" fill="#CFAE58" opacity="0.12956306434404613"/>
  <circle cx="231.75683235382883" cy="49.54800331318437" r="5.561840427387333" fill="#CFAE58" opacity="0.23884743045500614"/>
  <circle cx="932.2534258778395" cy="46.35881300696327" r="5.4358249005448975" fill="#CFAE58" opacity="0.24803128020611637"/>
  <circle cx="975.3506135174747" cy="590.3544653275713" r="2.3508835612156522" fill="#CFAE58" opacity="0.21754611477115177"/>
  <circle cx="181.96119827689913" cy="627.6885953519889" r="5.846963018024535" fill="#CFAE58" opacity="0.16224638915180886"/>
  <circle cx="194.4094718225181" cy="513.1278173461909" r="3.7501232809842002" fill="#CFAE58" opacity="0.1844541822072508"/>
  <circle cx="991.1729622596265" cy="167.57701849168637" r="5.903176990620837" fill="#CFAE58" opacity="0.17471702264061995"/>
  <circle cx="581.4126459445467" cy="583.330652354599" r="3.3137549256577215" fill="#CFAE58" opacity="0.10671562010574469"/>
  <circle cx="675.4395690631391" cy="398.727692521555" r="2.3314815297137703" fill="#CFAE58" opacity="0.13934979355706675"/>
  <circle cx="790.7133571953347" cy="516.6306166349988" r="3.764659899649048" fill="#CFAE58" opacity="0.10334848123534685"/>
  <circle cx="432.2804184927908" cy="440.00209210880394" r="5.070635874683635" fill="#CFAE58" opacity="0.2046334344565629"/>
  <circle cx="199.23954415579246" cy="143.35483902324415" r="2.2226343732183316" fill="#CFAE58" opacity="0.18459296776856396"/>
  <circle cx="1143.267406628269" cy="39.51186951919357" r="3.7247302784386087" fill="#CFAE58" opacity="0.17820080484494888"/>
  <circle cx="597.111165035549" cy="263.118931869085" r="2.1387534689305006" fill="#CFAE58" opacity="0.1798610731673077"/>
  <circle cx="786.3334399179549" cy="284.75658619474984" r="4.241205385144962" fill="#CFAE58" opacity="0.11289364547861025"/>
  <circle cx="873.5392767209894" cy="133.55539670946004" r="5.474496994645444" fill="#CFAE58" opacity="0.1548045881260877"/>

  <!-- Border with glow -->
  <rect x="40" y="40" width="1120" height="550" fill="none" stroke="url(#goldGradient)" stroke-width="3" rx="12" filter="url(#softGlow)"/>

  <!-- Icon circle with premium background -->
  <circle cx="150" cy="200" r="75" fill="#CFAE58" opacity="0.15" filter="url(#softGlow)"/>
  <circle cx="150" cy="200" r="70" fill="#CFAE58" opacity="0.25"/>
  <text x="150" y="235" font-size="90" text-anchor="middle" fill="#CFAE58" filter="url(#glow)">🚚</text>

  <!-- Premium logo (crown) with enhanced styling -->
  <g transform="translate(100, 70)">
    <path d="M 30 20 L 40 35 L 35 35 Z M 50 15 L 60 35 L 45 35 Z M 65 20 L 75 35 L 70 35 Z M 30 35 L 75 35 L 73 45 L 32 45 Z"
          fill="url(#goldGradient)" filter="url(#glow)" stroke="#B89842" stroke-width="0.5"/>
    <circle cx="40" cy="25" r="3" fill="#4FD1C5" filter="url(#glow)"/>
    <circle cx="52" cy="20" r="4" fill="#4FD1C5" filter="url(#glow)"/>
    <circle cx="65" cy="25" r="3" fill="#4FD1C5" filter="url(#glow)"/>
  </g>

  <!-- Title with shadow -->
  <text x="280" y="180" font-family="Georgia, serif" font-size="72" font-weight="bold"
        fill="url(#goldGradient)" filter="url(#shadow)">Logistics Partners</text>

  <!-- Subtitle with subtle glow -->
  <text x="280" y="230" font-family="Arial, sans-serif" font-size="36"
        fill="#D6DEE6" opacity="0.95" filter="url(#softGlow)">Reliable Delivery Across Russia</text>

  <!-- Brand name with letter spacing -->
  <text x="280" y="300" font-family="Georgia, serif" font-size="32" font-weight="bold"
        fill="#CFAE58" letter-spacing="4" filter="url(#glow)">ROYAL KETA</text>

  <!-- Russian tagline -->
  <text x="280" y="340" font-family="Arial, sans-serif" font-size="22" font-style="italic"
        fill="#8B95A1" opacity="0.8">От икринки к королевской</text>

  <!-- Location -->
  <text x="280" y="380" font-family="Arial, sans-serif" font-size="20"
        fill="#8B95A1" opacity="0.7">Невельский район, Сахалин</text>

  <!-- Website with glow -->
  <text x="100" y="570" font-family="Arial, sans-serif" font-size="30" font-weight="bold"
        fill="#4FD1C5" filter="url(#glow)">royalketa.com</text>

  <!-- Enhanced decorative salmon silhouette -->
  <g transform="translate(950, 480)" opacity="0.2" filter="url(#softGlow)">
    <ellipse cx="0" cy="0" rx="90" ry="35" fill="#CFAE58"/>
    <path d="M 90 0 L 120 -18 L 130 0 L 120 18 Z" fill="#CFAE58"/>
    <path d="M -25 -35 L 0 -45 L 25 -35 Z" fill="#CFAE58"/>
    <ellipse cx="-50" cy="0" rx="15" ry="12" fill="#0B0F14"/>
  </g>

  <!-- Additional decorative caviar clusters -->
  <g opacity="0.2">
    <circle cx="1050" cy="120" r="6" fill="#CFAE58"/>
    <circle cx="1065" cy="115" r="5" fill="#CFAE58"/>
    <circle cx="1058" cy="130" r="4" fill="#CFAE58"/>
    <circle cx="150" cy="500" r="5" fill="#4FD1C5"/>
    <circle cx="165" cy="508" r="4" fill="#4FD1C5"/>
    <circle cx="140" cy="512" r="5" fill="#4FD1C5"/>
  </g>
</svg>