<svg width="1200" height="630" xmlns="http://www.w3.org/2000/svg">
  <defs>
    <linearGradient id="bgGradient" x1="0%" y1="0%" x2="100%" y2="100%">
      <stop offset="0%" style="stop-color:#0B0F14;stop-opacity:1" />
      <stop offset="50%" style="stop-color:#0F1619;stop-opacity:1" />
      <stop offset="100%" style="stop-color:#0F1922;stop-opacity:1" />
    </linearGradient>
    <linearGradient id="goldGradient" x1="0%" y1="0%" x2="100%" y2="0%">
      <stop offset="0%" style="stop-color:#E5D596;stop-opacity:1" />
      <stop offset="50%" style="stop-color:#CFAE58;stop-opacity:1" />
      <stop offset="100%" style="stop-color:#B89842;stop-opacity:1" />
    </linearGradient>
    <radialGradient id="oceanGradient" cx="50%" cy="50%" r="50%">
      <stop offset="0%" style="stop-color:#4FD1C5;stop-opacity:0.3" />
      <stop offset="100%" style="stop-color:#1E90A0;stop-opacity:0.05" />
    </radialGradient>
    <filter id="glow">
      <feGaussianBlur stdDeviation="5" result="coloredBlur"/>
      <feMerge>
        <feMergeNode in="coloredBlur"/>
        <feMergeNode in="SourceGraphic"/>
      </feMerge>
    </filter>
    <filter id="softGlow">
      <feGaussianBlur stdDeviation="8" result="coloredBlur"/>
      <feMerge>
        <feMergeNode in="coloredBlur"/>
        <feMergeNode in="SourceGraphic"/>
      </feMerge>
    </filter>
    <filter id="shadow">
      <feDropShadow dx="0" dy="4" stdDeviation="8" flood-color="#000000" flood-opacity="0.5"/>
    </filter>
  </defs>

  <!-- Background -->
  <rect width="1200" height="630" fill="url(#bgGradient)"/>

  <!-- Decorative ocean gradients -->
  <ellipse cx="1000" cy="150" rx="300" ry="200" fill="url(#oceanGradient)" opacity="0.4"/>
  <ellipse cx="200" cy="530" rx="250" ry="180" fill="url(#oceanGradient)" opacity="0.3"/>

  <!-- Wave patterns -->
  <path d="M 0 400 Q 300 350 600 400 T 1200 400 L 1200 630 L 0 630 Z" fill="#1E90A0" opacity="0.08"/>
  <path d="M 0 450 Q 250 420 500 450 T 1000 450 T 1200 450 L 1200 630 L 0 630 Z" fill="#4FD1C5" opacity="0.05"/>

  <!-- Caviar roe particles -->
  <circle cx="298.16597990340864" cy="108.84174000921793" r="2.4607019701340227" fill="#CFAE58" opacity="0.1306377116400546"/>
  <circle cx="894.0385711719017" cy="367.28546837087526" r="2.201496197610502" fill="#CFAE58" opacity="0.14081656684514793"/>
  <circle cx="542.9981559162388" cy="368.5213831642966" r="4.110463800787354" fill="#CFAE58" opacity="0.2226050394283669"/>
  <circle cx="247.09058549227018" cy="430.8141378654429" r="4.909051957687833" fill="#CFAE58" opacity="0.23754650351671128"/>
  <circle cx="1002.5226861037546" cy="382.5425986986866" r="4.5077314056958055" fill="#CFAE58" opacity="0.10601129876275552"/>
  <circle cx="423.33039368654613" cy="246.33341529118525" r="4.38456757142046" fill="#CFAE58" opacity="0.17042879197141292"/>
  <circle cx="527.278599601543" cy="513.5513369708142" r="2.8691966970412714" fill="#CFAE58" opacity="0.14325481682517166"/>
  <circle cx="145.80422122462204" cy="595.9237093802467" r="3.8116453267603014" fill="#CFAE58" opacity="0.19181452002801724"/>
  <circle cx="493.90190520778975" cy="78.2575602264522" r="3.102827161593386" fill="#CFAE58" opacity="0.21163437793955958"/>
  <circle cx="464.70173925309325" cy="545.5243849882457" r="3.3423008535070142" fill="#CFAE58" opacity="0.1790281425188972"/>
  <circle cx="195.7165689953358" cy="471.5145934424269" r="2.0622609064856756" fill="#CFAE58" opacity="0.20245748889103488"/>
  <circle cx="550.759197978539" cy="624.6674793560819" r="2.368327437386445" fill="#CFAE58" opacity="0.22832954274006476"/>
  <circle cx="899.9033619223703" cy="561.6946776921477" r="5.8602112173804635" fill="#CFAE58" opacity="0.10542124694575583"/>
  <circle cx="1192.8096772506958" cy="565.6438763849293" r="2.891171043091036" fill="#CFAE58" opacity="0.11908137772144868"/>
  <circle cx="1031.6582353169701" cy="151.69881406929417" r="4.506827477113813" fill="#CFAE58" opacity="0.22339885788902333"/>
  <circle cx="603.2270831653992" cy="325.05544987373685" r="4.815337509908413" fill="#CFAE58" opacity="0.14581140564455736"/>
  <circle cx="287.16298747670237" cy="100.75396841266841" r="4.0626361699552485" fill="#CFAE58" opacity="0.11882416397500908"/>
  <circle cx="839.7236952690666" cy="232.1040624743315" r="4.821005512025512" fill="#CFAE58" opacity="0.11324979040858618"/>
  <circle cx="628.5845004348862" cy="184.43241448409003" r="2.1731375604610457" fill="#CFAE58" opacity="0.18318400616332436"/>
  <circle cx="591.3637120985076" cy="345.4200427303267" r="4.658184216211641" fill="#CFAE58" opacity="0.24553141953268526"/>
  <circle cx="542.9915615852022" cy="245.95397854937767" r="3.1373616921291942" fill="#CFAE58" opacity="0.15947353793768546"/>
  <circle cx="1162.4770909757258" cy="320.15259270204166" r="4.236649503493217" fill="#CFAE58" opacity="0.23043837833396394"/>
  <circle cx="327.0476932575027" cy="212.94497926740834" r="4.015819821985051" fill="#CFAE58" opacity="0.18360099223167686"/>
  <circle cx="388.3870647070482" cy="285.7867055273828" r="5.141271561271745" fill="#CFAE58" opacity="0.22756268488860365"/>
  <circle cx="369.5358299100819" cy="234.7719048184037" r="4.436151762218545" fill="#CFAE58" opacity="0.23357798136748897"/>
  <circle cx="673.3855201202902" cy="126.08792719092229" r="3.5909961933008567" fill="#CFAE58" opacity="0.23667281416850988"/>
  <circle cx="1154.2515963397104" cy="558.6212460836118" r="2.8226109154561265" fill="#CFAE58" opacity="0.10104589775982889"/>
  <circle cx="1151.0992174883102" cy="118.12085873408466" r="4.734560231544773" fill="#CFAE58" opacity="0.2085851232761216"/>
  <circle cx="302.1359448223835" cy="108.75911049623006" r="2.9509474348267175" fill="#CFAE58" opacity="0.2337492636880014"/>
  <circle cx="3.952194907678974" cy="567.9927570565642" r="2.878112253099665" fill="#CFAE58" opacity="0.22797325285556633"/>

  <!-- Border with glow -->
  <rect x="40" y="40" width="1120" height="550" fill="none" stroke="url(#goldGradient)" stroke-width="3" rx="12" filter="url(#softGlow)"/>

  <!-- Icon circle with premium background -->
  <circle cx="150" cy="200" r="75" fill="#CFAE58" opacity="0.15" filter="url(#softGlow)"/>
  <circle cx="150" cy="200" r="70" fill="#CFAE58" opacity="0.25"/>
  <text x="150" y="235" font-size="90" text-anchor="middle" fill="#CFAE58" filter="url(#glow)">🚚</text>

  <!-- Premium logo (crown) with enhanced styling -->
  <g transform="translate(100, 70)">
    <path d="M 30 20 L 40 35 L 35 35 Z M 50 15 L 60 35 L 45 35 Z M 65 20 L 75 35 L 70 35 Z M 30 35 L 75 35 L 73 45 L 32 45 Z"
          fill="url(#goldGradient)" filter="url(#glow)" stroke="#B89842" stroke-width="0.5"/>
    <circle cx="40" cy="25" r="3" fill="#4FD1C5" filter="url(#glow)"/>
    <circle cx="52" cy="20" r="4" fill="#4FD1C5" filter="url(#glow)"/>
    <circle cx="65" cy="25" r="3" fill="#4FD1C5" filter="url(#glow)"/>
  </g>

  <!-- Title with shadow -->
  <text x="280" y="180" font-family="Georgia, serif" font-size="72" font-weight="bold"
        fill="url(#goldGradient)" filter="url(#shadow)">Logistics Partners</text>

  <!-- Subtitle with subtle glow -->
  <text x="280" y="230" font-family="Arial, sans-serif" font-size="36"
        fill="#D6DEE6" opacity="0.95" filter="url(#softGlow)">Reliable Delivery Across Russia</text>

  <!-- Brand name with letter spacing -->
  <text x="280" y="300" font-family="Georgia, serif" font-size="32" font-weight="bold"
        fill="#CFAE58" letter-spacing="4" filter="url(#glow)">ROYAL KETA</text>

  <!-- Russian tagline -->
  <text x="280" y="340" font-family="Arial, sans-serif" font-size="22" font-style="italic"
        fill="#8B95A1" opacity="0.8">От икринки к королевской</text>

  <!-- Location -->
  <text x="280" y="380" font-family="Arial, sans-serif" font-size="20"
        fill="#8B95A1" opacity="0.7">Невельский район, Сахалин</text>

  <!-- Website with glow -->
  <text x="100" y="570" font-family="Arial, sans-serif" font-size="30" font-weight="bold"
        fill="#4FD1C5" filter="url(#glow)">royalketa.com</text>

  <!-- Enhanced decorative salmon silhouette -->
  <g transform="translate(950, 480)" opacity="0.2" filter="url(#softGlow)">
    <ellipse cx="0" cy="0" rx="90" ry="35" fill="#CFAE58"/>
    <path d="M 90 0 L 120 -18 L 130 0 L 120 18 Z" fill="#CFAE58"/>
    <path d="M -25 -35 L 0 -45 L 25 -35 Z" fill="#CFAE58"/>
    <ellipse cx="-50" cy="0" rx="15" ry="12" fill="#0B0F14"/>
  </g>

  <!-- Additional decorative caviar clusters -->
  <g opacity="0.2">
    <circle cx="1050" cy="120" r="6" fill="#CFAE58"/>
    <circle cx="1065" cy="115" r="5" fill="#CFAE58"/>
    <circle cx="1058" cy="130" r="4" fill="#CFAE58"/>
    <circle cx="150" cy="500" r="5" fill="#4FD1C5"/>
    <circle cx="165" cy="508" r="4" fill="#4FD1C5"/>
    <circle cx="140" cy="512" r="5" fill="#4FD1C5"/>
  </g>
</svg>