<svg width="1200" height="630" xmlns="http://www.w3.org/2000/svg">
  <defs>
    <linearGradient id="bgGradient" x1="0%" y1="0%" x2="100%" y2="100%">
      <stop offset="0%" style="stop-color:#0B0F14;stop-opacity:1" />
      <stop offset="50%" style="stop-color:#0F1619;stop-opacity:1" />
      <stop offset="100%" style="stop-color:#0F1922;stop-opacity:1" />
    </linearGradient>
    <linearGradient id="goldGradient" x1="0%" y1="0%" x2="100%" y2="0%">
      <stop offset="0%" style="stop-color:#E5D596;stop-opacity:1" />
      <stop offset="50%" style="stop-color:#CFAE58;stop-opacity:1" />
      <stop offset="100%" style="stop-color:#B89842;stop-opacity:1" />
    </linearGradient>
    <radialGradient id="oceanGradient" cx="50%" cy="50%" r="50%">
      <stop offset="0%" style="stop-color:#4FD1C5;stop-opacity:0.3" />
      <stop offset="100%" style="stop-color:#1E90A0;stop-opacity:0.05" />
    </radialGradient>
    <filter id="glow">
      <feGaussianBlur stdDeviation="5" result="coloredBlur"/>
      <feMerge>
        <feMergeNode in="coloredBlur"/>
        <feMergeNode in="SourceGraphic"/>
      </feMerge>
    </filter>
    <filter id="softGlow">
      <feGaussianBlur stdDeviation="8" result="coloredBlur"/>
      <feMerge>
        <feMergeNode in="coloredBlur"/>
        <feMergeNode in="SourceGraphic"/>
      </feMerge>
    </filter>
    <filter id="shadow">
      <feDropShadow dx="0" dy="4" stdDeviation="8" flood-color="#000000" flood-opacity="0.5"/>
    </filter>
  </defs>

  <!-- Background -->
  <rect width="1200" height="630" fill="url(#bgGradient)"/>

  <!-- Decorative ocean gradients -->
  <ellipse cx="1000" cy="150" rx="300" ry="200" fill="url(#oceanGradient)" opacity="0.4"/>
  <ellipse cx="200" cy="530" rx="250" ry="180" fill="url(#oceanGradient)" opacity="0.3"/>

  <!-- Wave patterns -->
  <path d="M 0 400 Q 300 350 600 400 T 1200 400 L 1200 630 L 0 630 Z" fill="#1E90A0" opacity="0.08"/>
  <path d="M 0 450 Q 250 420 500 450 T 1000 450 T 1200 450 L 1200 630 L 0 630 Z" fill="#4FD1C5" opacity="0.05"/>

  <!-- Caviar roe particles -->
  <circle cx="724.0461773648938" cy="339.43957978892763" r="2.8401571034769018" fill="#CFAE58" opacity="0.1339667354122992"/>
  <circle cx="236.3431325198504" cy="503.033542888604" r="4.271078793987559" fill="#CFAE58" opacity="0.12264682917804681"/>
  <circle cx="1101.7967266684257" cy="107.542765886361" r="4.35776535859735" fill="#CFAE58" opacity="0.24698840283387544"/>
  <circle cx="349.16183702865993" cy="25.631641111915474" r="3.66212757390802" fill="#CFAE58" opacity="0.20134815813440166"/>
  <circle cx="248.64391588366698" cy="506.74331509297184" r="4.485694125211289" fill="#CFAE58" opacity="0.1065229061433906"/>
  <circle cx="573.1867692162131" cy="574.0288870866484" r="3.8658990346347255" fill="#CFAE58" opacity="0.16974814374470826"/>
  <circle cx="350.76875093325805" cy="411.29691736840164" r="2.032111138073352" fill="#CFAE58" opacity="0.1885917936997225"/>
  <circle cx="943.9608136355365" cy="57.23687050452296" r="4.462723858188091" fill="#CFAE58" opacity="0.20099286109999964"/>
  <circle cx="313.9849534337286" cy="42.91777788047228" r="4.96157595143513" fill="#CFAE58" opacity="0.18746444390255382"/>
  <circle cx="896.3492765830558" cy="97.79650972350287" r="4.572132699368552" fill="#CFAE58" opacity="0.21234617060582753"/>
  <circle cx="1183.3142142663157" cy="600.7304587867627" r="3.1806670501503667" fill="#CFAE58" opacity="0.11813723380887796"/>
  <circle cx="152.08417759357297" cy="204.35960765098469" r="2.157602059519246" fill="#CFAE58" opacity="0.16364050881250036"/>
  <circle cx="900.6818749124125" cy="424.18592717951134" r="4.503013037685683" fill="#CFAE58" opacity="0.10760694150215093"/>
  <circle cx="493.2364616276043" cy="323.92381989530793" r="4.643388397440267" fill="#CFAE58" opacity="0.13103287432915717"/>
  <circle cx="652.6147970275626" cy="265.7035818414518" r="4.562750944482088" fill="#CFAE58" opacity="0.22921384708914674"/>
  <circle cx="800.888846637339" cy="279.1544887673512" r="2.0197290684395126" fill="#CFAE58" opacity="0.16366275152245563"/>
  <circle cx="872.5553287669992" cy="162.80133316530453" r="3.097195025957828" fill="#CFAE58" opacity="0.1453154436280551"/>
  <circle cx="30.56345763858115" cy="224.9519826381698" r="3.7324186325006603" fill="#CFAE58" opacity="0.14670256036442073"/>
  <circle cx="406.363888005565" cy="399.4448782211076" r="2.7114743467553364" fill="#CFAE58" opacity="0.10734854661775886"/>
  <circle cx="957.4880972080557" cy="509.4470368454212" r="4.505332773723611" fill="#CFAE58" opacity="0.13813804711174085"/>
  <circle cx="1167.319549774836" cy="106.61102800498949" r="3.53805002612692" fill="#CFAE58" opacity="0.20752477041076522"/>
  <circle cx="699.5613460316243" cy="52.10966190929125" r="3.5019602183130907" fill="#CFAE58" opacity="0.20604803128704818"/>
  <circle cx="477.2243058738642" cy="517.3720058755263" r="3.548193851259242" fill="#CFAE58" opacity="0.12468050014168038"/>
  <circle cx="1156.8115352274056" cy="512.4875344963665" r="2.559473524281774" fill="#CFAE58" opacity="0.21307244061345776"/>
  <circle cx="323.88584680364767" cy="167.29879751562194" r="5.098107219937853" fill="#CFAE58" opacity="0.11725709313608809"/>
  <circle cx="379.67026892817063" cy="23.945870145202015" r="4.537421217426606" fill="#CFAE58" opacity="0.13709735715955443"/>
  <circle cx="15.411990036120526" cy="190.52900185412648" r="5.074497958462353" fill="#CFAE58" opacity="0.1906518353451459"/>
  <circle cx="1138.2370482901772" cy="293.18682634418053" r="2.471259407417753" fill="#CFAE58" opacity="0.23625227521469427"/>
  <circle cx="1104.4667407371667" cy="277.0005994402272" r="2.0787218177578795" fill="#CFAE58" opacity="0.19466001680433181"/>
  <circle cx="56.06141357353884" cy="603.6935763738226" r="4.720657975689168" fill="#CFAE58" opacity="0.17559718226537502"/>

  <!-- Border with glow -->
  <rect x="40" y="40" width="1120" height="550" fill="none" stroke="url(#goldGradient)" stroke-width="3" rx="12" filter="url(#softGlow)"/>

  <!-- Icon circle with premium background -->
  <circle cx="150" cy="200" r="75" fill="#CFAE58" opacity="0.15" filter="url(#softGlow)"/>
  <circle cx="150" cy="200" r="70" fill="#CFAE58" opacity="0.25"/>
  <text x="150" y="235" font-size="90" text-anchor="middle" fill="#CFAE58" filter="url(#glow)">🚚</text>

  <!-- Premium logo (crown) with enhanced styling -->
  <g transform="translate(100, 70)">
    <path d="M 30 20 L 40 35 L 35 35 Z M 50 15 L 60 35 L 45 35 Z M 65 20 L 75 35 L 70 35 Z M 30 35 L 75 35 L 73 45 L 32 45 Z"
          fill="url(#goldGradient)" filter="url(#glow)" stroke="#B89842" stroke-width="0.5"/>
    <circle cx="40" cy="25" r="3" fill="#4FD1C5" filter="url(#glow)"/>
    <circle cx="52" cy="20" r="4" fill="#4FD1C5" filter="url(#glow)"/>
    <circle cx="65" cy="25" r="3" fill="#4FD1C5" filter="url(#glow)"/>
  </g>

  <!-- Title with shadow -->
  <text x="280" y="180" font-family="Georgia, serif" font-size="72" font-weight="bold"
        fill="url(#goldGradient)" filter="url(#shadow)">Logistics Partners</text>

  <!-- Subtitle with subtle glow -->
  <text x="280" y="230" font-family="Arial, sans-serif" font-size="36"
        fill="#D6DEE6" opacity="0.95" filter="url(#softGlow)">Reliable Delivery Across Russia</text>

  <!-- Brand name with letter spacing -->
  <text x="280" y="300" font-family="Georgia, serif" font-size="32" font-weight="bold"
        fill="#CFAE58" letter-spacing="4" filter="url(#glow)">ROYAL KETA</text>

  <!-- Russian tagline -->
  <text x="280" y="340" font-family="Arial, sans-serif" font-size="22" font-style="italic"
        fill="#8B95A1" opacity="0.8">От икринки к королевской</text>

  <!-- Location -->
  <text x="280" y="380" font-family="Arial, sans-serif" font-size="20"
        fill="#8B95A1" opacity="0.7">Невельский район, Сахалин</text>

  <!-- Website with glow -->
  <text x="100" y="570" font-family="Arial, sans-serif" font-size="30" font-weight="bold"
        fill="#4FD1C5" filter="url(#glow)">royalketa.com</text>

  <!-- Enhanced decorative salmon silhouette -->
  <g transform="translate(950, 480)" opacity="0.2" filter="url(#softGlow)">
    <ellipse cx="0" cy="0" rx="90" ry="35" fill="#CFAE58"/>
    <path d="M 90 0 L 120 -18 L 130 0 L 120 18 Z" fill="#CFAE58"/>
    <path d="M -25 -35 L 0 -45 L 25 -35 Z" fill="#CFAE58"/>
    <ellipse cx="-50" cy="0" rx="15" ry="12" fill="#0B0F14"/>
  </g>

  <!-- Additional decorative caviar clusters -->
  <g opacity="0.2">
    <circle cx="1050" cy="120" r="6" fill="#CFAE58"/>
    <circle cx="1065" cy="115" r="5" fill="#CFAE58"/>
    <circle cx="1058" cy="130" r="4" fill="#CFAE58"/>
    <circle cx="150" cy="500" r="5" fill="#4FD1C5"/>
    <circle cx="165" cy="508" r="4" fill="#4FD1C5"/>
    <circle cx="140" cy="512" r="5" fill="#4FD1C5"/>
  </g>
</svg>