<svg width="1200" height="630" xmlns="http://www.w3.org/2000/svg">
  <defs>
    <linearGradient id="bgGradient" x1="0%" y1="0%" x2="100%" y2="100%">
      <stop offset="0%" style="stop-color:#0B0F14;stop-opacity:1" />
      <stop offset="50%" style="stop-color:#0F1619;stop-opacity:1" />
      <stop offset="100%" style="stop-color:#0F1922;stop-opacity:1" />
    </linearGradient>
    <linearGradient id="goldGradient" x1="0%" y1="0%" x2="100%" y2="0%">
      <stop offset="0%" style="stop-color:#E5D596;stop-opacity:1" />
      <stop offset="50%" style="stop-color:#CFAE58;stop-opacity:1" />
      <stop offset="100%" style="stop-color:#B89842;stop-opacity:1" />
    </linearGradient>
    <radialGradient id="oceanGradient" cx="50%" cy="50%" r="50%">
      <stop offset="0%" style="stop-color:#4FD1C5;stop-opacity:0.3" />
      <stop offset="100%" style="stop-color:#1E90A0;stop-opacity:0.05" />
    </radialGradient>
    <filter id="glow">
      <feGaussianBlur stdDeviation="5" result="coloredBlur"/>
      <feMerge>
        <feMergeNode in="coloredBlur"/>
        <feMergeNode in="SourceGraphic"/>
      </feMerge>
    </filter>
    <filter id="softGlow">
      <feGaussianBlur stdDeviation="8" result="coloredBlur"/>
      <feMerge>
        <feMergeNode in="coloredBlur"/>
        <feMergeNode in="SourceGraphic"/>
      </feMerge>
    </filter>
    <filter id="shadow">
      <feDropShadow dx="0" dy="4" stdDeviation="8" flood-color="#000000" flood-opacity="0.5"/>
    </filter>
  </defs>

  <!-- Background -->
  <rect width="1200" height="630" fill="url(#bgGradient)"/>

  <!-- Decorative ocean gradients -->
  <ellipse cx="1000" cy="150" rx="300" ry="200" fill="url(#oceanGradient)" opacity="0.4"/>
  <ellipse cx="200" cy="530" rx="250" ry="180" fill="url(#oceanGradient)" opacity="0.3"/>

  <!-- Wave patterns -->
  <path d="M 0 400 Q 300 350 600 400 T 1200 400 L 1200 630 L 0 630 Z" fill="#1E90A0" opacity="0.08"/>
  <path d="M 0 450 Q 250 420 500 450 T 1000 450 T 1200 450 L 1200 630 L 0 630 Z" fill="#4FD1C5" opacity="0.05"/>

  <!-- Caviar roe particles -->
  <circle cx="915.3112672542511" cy="15.656977590552486" r="5.302688163296537" fill="#CFAE58" opacity="0.12363571505996904"/>
  <circle cx="254.53016307453495" cy="410.4883795834013" r="2.0283811414937425" fill="#CFAE58" opacity="0.22520997729203446"/>
  <circle cx="138.79176935821232" cy="176.89299271978282" r="3.324859169667881" fill="#CFAE58" opacity="0.11565065451108002"/>
  <circle cx="782.8249328749697" cy="361.1601658805207" r="2.2843075542731133" fill="#CFAE58" opacity="0.18400800337589562"/>
  <circle cx="557.284200689586" cy="554.8131395633383" r="5.188145808143037" fill="#CFAE58" opacity="0.1896025307647115"/>
  <circle cx="259.44863169588615" cy="137.73346242046662" r="2.2329788473997976" fill="#CFAE58" opacity="0.18216902090720183"/>
  <circle cx="1030.5346509741744" cy="27.217914899810747" r="2.034866249049735" fill="#CFAE58" opacity="0.15111770690686002"/>
  <circle cx="810.8048882302553" cy="510.8594130002881" r="3.9748125617479144" fill="#CFAE58" opacity="0.13620026495121956"/>
  <circle cx="693.7321365569765" cy="160.92744973093423" r="2.864994953910081" fill="#CFAE58" opacity="0.13425015148006553"/>
  <circle cx="580.9147544795946" cy="39.59694989999498" r="4.772857596260451" fill="#CFAE58" opacity="0.21520167109484153"/>
  <circle cx="445.70519942646956" cy="557.9279420838608" r="4.5072103102402945" fill="#CFAE58" opacity="0.16988072173079505"/>
  <circle cx="802.1961428738778" cy="283.56910008747315" r="4.145137938331716" fill="#CFAE58" opacity="0.11176740404226197"/>
  <circle cx="1047.0503222242937" cy="187.83976108225212" r="5.645187128801038" fill="#CFAE58" opacity="0.18046140980209388"/>
  <circle cx="713.3716062916571" cy="79.39821853522436" r="2.2918103537644745" fill="#CFAE58" opacity="0.1174830171665236"/>
  <circle cx="169.71561944767095" cy="579.3389055889326" r="4.115440980053249" fill="#CFAE58" opacity="0.11918518482976119"/>
  <circle cx="227.1906269714755" cy="447.47701243611493" r="3.0786823046671854" fill="#CFAE58" opacity="0.23778715328958294"/>
  <circle cx="848.9648017514354" cy="482.37068170356804" r="4.641241952923396" fill="#CFAE58" opacity="0.1811993164669906"/>
  <circle cx="135.6168147779379" cy="254.9501318070337" r="3.255197128529699" fill="#CFAE58" opacity="0.10254592063687383"/>
  <circle cx="1158.1936793959253" cy="172.96142166543788" r="5.089558819132335" fill="#CFAE58" opacity="0.15620806562624728"/>
  <circle cx="119.83330460817064" cy="543.7595367793608" r="3.3896530225521118" fill="#CFAE58" opacity="0.1637273533811322"/>
  <circle cx="12.303573643554122" cy="538.7253921868204" r="2.6901864788560736" fill="#CFAE58" opacity="0.21116192271784387"/>
  <circle cx="207.9419719680478" cy="531.690420134016" r="4.133242362807126" fill="#CFAE58" opacity="0.10991706105889196"/>
  <circle cx="183.61326414195563" cy="512.7747130352885" r="4.802833683963163" fill="#CFAE58" opacity="0.1935631391991674"/>
  <circle cx="544.8532601549473" cy="294.2016391987597" r="4.503135508882651" fill="#CFAE58" opacity="0.19546143636097646"/>
  <circle cx="173.10181101185793" cy="176.11264416036593" r="5.827542587269766" fill="#CFAE58" opacity="0.14209728758392964"/>
  <circle cx="1109.8466455474463" cy="131.00185980851714" r="2.0008901840851863" fill="#CFAE58" opacity="0.14658178945253889"/>
  <circle cx="1087.256191958969" cy="163.932767631428" r="4.461118327316408" fill="#CFAE58" opacity="0.13305507726935178"/>
  <circle cx="1064.8424543944866" cy="313.840625939601" r="4.086978959360856" fill="#CFAE58" opacity="0.24397345294446313"/>
  <circle cx="747.7133182679937" cy="395.3962169452547" r="4.7373669447349815" fill="#CFAE58" opacity="0.14744449328070808"/>
  <circle cx="736.1571386973025" cy="247.97217206497956" r="5.050851930935469" fill="#CFAE58" opacity="0.23710979168596072"/>

  <!-- Border with glow -->
  <rect x="40" y="40" width="1120" height="550" fill="none" stroke="url(#goldGradient)" stroke-width="3" rx="12" filter="url(#softGlow)"/>

  <!-- Icon circle with premium background -->
  <circle cx="150" cy="200" r="75" fill="#CFAE58" opacity="0.15" filter="url(#softGlow)"/>
  <circle cx="150" cy="200" r="70" fill="#CFAE58" opacity="0.25"/>
  <text x="150" y="235" font-size="90" text-anchor="middle" fill="#CFAE58" filter="url(#glow)">🚚</text>

  <!-- Premium logo (crown) with enhanced styling -->
  <g transform="translate(100, 70)">
    <path d="M 30 20 L 40 35 L 35 35 Z M 50 15 L 60 35 L 45 35 Z M 65 20 L 75 35 L 70 35 Z M 30 35 L 75 35 L 73 45 L 32 45 Z"
          fill="url(#goldGradient)" filter="url(#glow)" stroke="#B89842" stroke-width="0.5"/>
    <circle cx="40" cy="25" r="3" fill="#4FD1C5" filter="url(#glow)"/>
    <circle cx="52" cy="20" r="4" fill="#4FD1C5" filter="url(#glow)"/>
    <circle cx="65" cy="25" r="3" fill="#4FD1C5" filter="url(#glow)"/>
  </g>

  <!-- Title with shadow -->
  <text x="280" y="180" font-family="Georgia, serif" font-size="72" font-weight="bold"
        fill="url(#goldGradient)" filter="url(#shadow)">Logistics Partners</text>

  <!-- Subtitle with subtle glow -->
  <text x="280" y="230" font-family="Arial, sans-serif" font-size="36"
        fill="#D6DEE6" opacity="0.95" filter="url(#softGlow)">Reliable Delivery Across Russia</text>

  <!-- Brand name with letter spacing -->
  <text x="280" y="300" font-family="Georgia, serif" font-size="32" font-weight="bold"
        fill="#CFAE58" letter-spacing="4" filter="url(#glow)">ROYAL KETA</text>

  <!-- Russian tagline -->
  <text x="280" y="340" font-family="Arial, sans-serif" font-size="22" font-style="italic"
        fill="#8B95A1" opacity="0.8">От икринки к королевской</text>

  <!-- Location -->
  <text x="280" y="380" font-family="Arial, sans-serif" font-size="20"
        fill="#8B95A1" opacity="0.7">Невельский район, Сахалин</text>

  <!-- Website with glow -->
  <text x="100" y="570" font-family="Arial, sans-serif" font-size="30" font-weight="bold"
        fill="#4FD1C5" filter="url(#glow)">royalketa.com</text>

  <!-- Enhanced decorative salmon silhouette -->
  <g transform="translate(950, 480)" opacity="0.2" filter="url(#softGlow)">
    <ellipse cx="0" cy="0" rx="90" ry="35" fill="#CFAE58"/>
    <path d="M 90 0 L 120 -18 L 130 0 L 120 18 Z" fill="#CFAE58"/>
    <path d="M -25 -35 L 0 -45 L 25 -35 Z" fill="#CFAE58"/>
    <ellipse cx="-50" cy="0" rx="15" ry="12" fill="#0B0F14"/>
  </g>

  <!-- Additional decorative caviar clusters -->
  <g opacity="0.2">
    <circle cx="1050" cy="120" r="6" fill="#CFAE58"/>
    <circle cx="1065" cy="115" r="5" fill="#CFAE58"/>
    <circle cx="1058" cy="130" r="4" fill="#CFAE58"/>
    <circle cx="150" cy="500" r="5" fill="#4FD1C5"/>
    <circle cx="165" cy="508" r="4" fill="#4FD1C5"/>
    <circle cx="140" cy="512" r="5" fill="#4FD1C5"/>
  </g>
</svg>