<svg width="1200" height="630" xmlns="http://www.w3.org/2000/svg">
  <defs>
    <linearGradient id="bgGradient" x1="0%" y1="0%" x2="100%" y2="100%">
      <stop offset="0%" style="stop-color:#0B0F14;stop-opacity:1" />
      <stop offset="50%" style="stop-color:#0F1619;stop-opacity:1" />
      <stop offset="100%" style="stop-color:#0F1922;stop-opacity:1" />
    </linearGradient>
    <linearGradient id="goldGradient" x1="0%" y1="0%" x2="100%" y2="0%">
      <stop offset="0%" style="stop-color:#E5D596;stop-opacity:1" />
      <stop offset="50%" style="stop-color:#CFAE58;stop-opacity:1" />
      <stop offset="100%" style="stop-color:#B89842;stop-opacity:1" />
    </linearGradient>
    <radialGradient id="oceanGradient" cx="50%" cy="50%" r="50%">
      <stop offset="0%" style="stop-color:#4FD1C5;stop-opacity:0.3" />
      <stop offset="100%" style="stop-color:#1E90A0;stop-opacity:0.05" />
    </radialGradient>
    <filter id="glow">
      <feGaussianBlur stdDeviation="5" result="coloredBlur"/>
      <feMerge>
        <feMergeNode in="coloredBlur"/>
        <feMergeNode in="SourceGraphic"/>
      </feMerge>
    </filter>
    <filter id="softGlow">
      <feGaussianBlur stdDeviation="8" result="coloredBlur"/>
      <feMerge>
        <feMergeNode in="coloredBlur"/>
        <feMergeNode in="SourceGraphic"/>
      </feMerge>
    </filter>
    <filter id="shadow">
      <feDropShadow dx="0" dy="4" stdDeviation="8" flood-color="#000000" flood-opacity="0.5"/>
    </filter>
  </defs>

  <!-- Background -->
  <rect width="1200" height="630" fill="url(#bgGradient)"/>

  <!-- Decorative ocean gradients -->
  <ellipse cx="1000" cy="150" rx="300" ry="200" fill="url(#oceanGradient)" opacity="0.4"/>
  <ellipse cx="200" cy="530" rx="250" ry="180" fill="url(#oceanGradient)" opacity="0.3"/>

  <!-- Wave patterns -->
  <path d="M 0 400 Q 300 350 600 400 T 1200 400 L 1200 630 L 0 630 Z" fill="#1E90A0" opacity="0.08"/>
  <path d="M 0 450 Q 250 420 500 450 T 1000 450 T 1200 450 L 1200 630 L 0 630 Z" fill="#4FD1C5" opacity="0.05"/>

  <!-- Caviar roe particles -->
  <circle cx="91.4814291702422" cy="367.3516558240841" r="5.028844012130605" fill="#CFAE58" opacity="0.16043113831536462"/>
  <circle cx="836.8021602710795" cy="387.40827073256895" r="5.4178714553614356" fill="#CFAE58" opacity="0.19951428049366288"/>
  <circle cx="591.3436964025353" cy="368.1954876743966" r="5.857737595911868" fill="#CFAE58" opacity="0.129898482223076"/>
  <circle cx="1147.1792496817957" cy="116.58600605855376" r="4.517785777859125" fill="#CFAE58" opacity="0.18644715160777997"/>
  <circle cx="186.95698973703182" cy="185.13229946124412" r="4.425014480798957" fill="#CFAE58" opacity="0.19144178563918712"/>
  <circle cx="803.0257234997712" cy="219.43367621067043" r="5.80446481909458" fill="#CFAE58" opacity="0.22770151707710137"/>
  <circle cx="1007.05461298517" cy="294.8938426555702" r="5.647363797621921" fill="#CFAE58" opacity="0.24758017175315936"/>
  <circle cx="385.55964283893104" cy="561.8658198686636" r="4.36783510744969" fill="#CFAE58" opacity="0.17997063367837024"/>
  <circle cx="470.69692794704514" cy="324.30683227354996" r="3.344204279866603" fill="#CFAE58" opacity="0.11383220122635244"/>
  <circle cx="659.4540312132356" cy="37.42795279322312" r="3.9101772193942153" fill="#CFAE58" opacity="0.21288959462231577"/>
  <circle cx="340.29206472246943" cy="270.00196633738227" r="3.333034248084239" fill="#CFAE58" opacity="0.1503492550720426"/>
  <circle cx="252.99184914886234" cy="436.1286848508406" r="2.0147574025997" fill="#CFAE58" opacity="0.11183513370212632"/>
  <circle cx="850.8076615218731" cy="174.62802161599973" r="3.168359148685861" fill="#CFAE58" opacity="0.15945299407013536"/>
  <circle cx="662.567801907589" cy="269.8161362012248" r="4.414261569221733" fill="#CFAE58" opacity="0.2358135294805824"/>
  <circle cx="380.83350758294097" cy="462.04958111411116" r="5.0405798710915874" fill="#CFAE58" opacity="0.12812970793003117"/>
  <circle cx="282.39180667938035" cy="503.44577481588544" r="5.540022406979812" fill="#CFAE58" opacity="0.22837712091978105"/>
  <circle cx="349.869124893199" cy="1.866999626246093" r="3.3125277131467437" fill="#CFAE58" opacity="0.24421548789037661"/>
  <circle cx="259.59185357585415" cy="369.82603003573604" r="2.9254830369985716" fill="#CFAE58" opacity="0.1756768317212008"/>
  <circle cx="89.3289557130208" cy="94.01487984950553" r="2.0020161664320075" fill="#CFAE58" opacity="0.10944819231873851"/>
  <circle cx="316.05811006599015" cy="140.26505764326183" r="5.56546813182105" fill="#CFAE58" opacity="0.15517676790904178"/>
  <circle cx="871.714212703658" cy="325.4367084270965" r="5.139625052259985" fill="#CFAE58" opacity="0.10700623890053007"/>
  <circle cx="1071.3389617904793" cy="117.78319288262993" r="3.7519453676554546" fill="#CFAE58" opacity="0.17537858258480843"/>
  <circle cx="775.1501563396923" cy="76.42914475242813" r="4.889056687629191" fill="#CFAE58" opacity="0.23924264830762343"/>
  <circle cx="1096.1861710589299" cy="542.7288572724337" r="2.2784257615154533" fill="#CFAE58" opacity="0.2440725544975185"/>
  <circle cx="489.0396801850745" cy="93.75306982351972" r="5.662935085834914" fill="#CFAE58" opacity="0.14550767255999345"/>
  <circle cx="746.9557601702643" cy="546.5110768898882" r="2.063155303244754" fill="#CFAE58" opacity="0.12516105069613398"/>
  <circle cx="1042.5567540751101" cy="383.6226230074803" r="3.9609042274848796" fill="#CFAE58" opacity="0.10320266289042432"/>
  <circle cx="278.3319373105644" cy="133.8245941197737" r="3.458255917456788" fill="#CFAE58" opacity="0.13447828268766346"/>
  <circle cx="283.89993034794657" cy="187.7041092078681" r="4.724108156767894" fill="#CFAE58" opacity="0.12765012028178643"/>
  <circle cx="364.06971931285466" cy="520.123488598835" r="5.041447811456949" fill="#CFAE58" opacity="0.23664612123626322"/>

  <!-- Border with glow -->
  <rect x="40" y="40" width="1120" height="550" fill="none" stroke="url(#goldGradient)" stroke-width="3" rx="12" filter="url(#softGlow)"/>

  <!-- Icon circle with premium background -->
  <circle cx="150" cy="200" r="75" fill="#CFAE58" opacity="0.15" filter="url(#softGlow)"/>
  <circle cx="150" cy="200" r="70" fill="#CFAE58" opacity="0.25"/>
  <text x="150" y="235" font-size="90" text-anchor="middle" fill="#CFAE58" filter="url(#glow)">🚚</text>

  <!-- Premium logo (crown) with enhanced styling -->
  <g transform="translate(100, 70)">
    <path d="M 30 20 L 40 35 L 35 35 Z M 50 15 L 60 35 L 45 35 Z M 65 20 L 75 35 L 70 35 Z M 30 35 L 75 35 L 73 45 L 32 45 Z"
          fill="url(#goldGradient)" filter="url(#glow)" stroke="#B89842" stroke-width="0.5"/>
    <circle cx="40" cy="25" r="3" fill="#4FD1C5" filter="url(#glow)"/>
    <circle cx="52" cy="20" r="4" fill="#4FD1C5" filter="url(#glow)"/>
    <circle cx="65" cy="25" r="3" fill="#4FD1C5" filter="url(#glow)"/>
  </g>

  <!-- Title with shadow -->
  <text x="280" y="180" font-family="Georgia, serif" font-size="72" font-weight="bold"
        fill="url(#goldGradient)" filter="url(#shadow)">Logistics Partners</text>

  <!-- Subtitle with subtle glow -->
  <text x="280" y="230" font-family="Arial, sans-serif" font-size="36"
        fill="#D6DEE6" opacity="0.95" filter="url(#softGlow)">Reliable Delivery Across Russia</text>

  <!-- Brand name with letter spacing -->
  <text x="280" y="300" font-family="Georgia, serif" font-size="32" font-weight="bold"
        fill="#CFAE58" letter-spacing="4" filter="url(#glow)">ROYAL KETA</text>

  <!-- Russian tagline -->
  <text x="280" y="340" font-family="Arial, sans-serif" font-size="22" font-style="italic"
        fill="#8B95A1" opacity="0.8">От икринки к королевской</text>

  <!-- Location -->
  <text x="280" y="380" font-family="Arial, sans-serif" font-size="20"
        fill="#8B95A1" opacity="0.7">Невельский район, Сахалин</text>

  <!-- Website with glow -->
  <text x="100" y="570" font-family="Arial, sans-serif" font-size="30" font-weight="bold"
        fill="#4FD1C5" filter="url(#glow)">royalketa.com</text>

  <!-- Enhanced decorative salmon silhouette -->
  <g transform="translate(950, 480)" opacity="0.2" filter="url(#softGlow)">
    <ellipse cx="0" cy="0" rx="90" ry="35" fill="#CFAE58"/>
    <path d="M 90 0 L 120 -18 L 130 0 L 120 18 Z" fill="#CFAE58"/>
    <path d="M -25 -35 L 0 -45 L 25 -35 Z" fill="#CFAE58"/>
    <ellipse cx="-50" cy="0" rx="15" ry="12" fill="#0B0F14"/>
  </g>

  <!-- Additional decorative caviar clusters -->
  <g opacity="0.2">
    <circle cx="1050" cy="120" r="6" fill="#CFAE58"/>
    <circle cx="1065" cy="115" r="5" fill="#CFAE58"/>
    <circle cx="1058" cy="130" r="4" fill="#CFAE58"/>
    <circle cx="150" cy="500" r="5" fill="#4FD1C5"/>
    <circle cx="165" cy="508" r="4" fill="#4FD1C5"/>
    <circle cx="140" cy="512" r="5" fill="#4FD1C5"/>
  </g>
</svg>