<svg width="1200" height="630" xmlns="http://www.w3.org/2000/svg">
  <defs>
    <linearGradient id="bgGradient" x1="0%" y1="0%" x2="100%" y2="100%">
      <stop offset="0%" style="stop-color:#0B0F14;stop-opacity:1" />
      <stop offset="50%" style="stop-color:#0F1619;stop-opacity:1" />
      <stop offset="100%" style="stop-color:#0F1922;stop-opacity:1" />
    </linearGradient>
    <linearGradient id="goldGradient" x1="0%" y1="0%" x2="100%" y2="0%">
      <stop offset="0%" style="stop-color:#E5D596;stop-opacity:1" />
      <stop offset="50%" style="stop-color:#CFAE58;stop-opacity:1" />
      <stop offset="100%" style="stop-color:#B89842;stop-opacity:1" />
    </linearGradient>
    <radialGradient id="oceanGradient" cx="50%" cy="50%" r="50%">
      <stop offset="0%" style="stop-color:#4FD1C5;stop-opacity:0.3" />
      <stop offset="100%" style="stop-color:#1E90A0;stop-opacity:0.05" />
    </radialGradient>
    <filter id="glow">
      <feGaussianBlur stdDeviation="5" result="coloredBlur"/>
      <feMerge>
        <feMergeNode in="coloredBlur"/>
        <feMergeNode in="SourceGraphic"/>
      </feMerge>
    </filter>
    <filter id="softGlow">
      <feGaussianBlur stdDeviation="8" result="coloredBlur"/>
      <feMerge>
        <feMergeNode in="coloredBlur"/>
        <feMergeNode in="SourceGraphic"/>
      </feMerge>
    </filter>
    <filter id="shadow">
      <feDropShadow dx="0" dy="4" stdDeviation="8" flood-color="#000000" flood-opacity="0.5"/>
    </filter>
  </defs>

  <!-- Background -->
  <rect width="1200" height="630" fill="url(#bgGradient)"/>

  <!-- Decorative ocean gradients -->
  <ellipse cx="1000" cy="150" rx="300" ry="200" fill="url(#oceanGradient)" opacity="0.4"/>
  <ellipse cx="200" cy="530" rx="250" ry="180" fill="url(#oceanGradient)" opacity="0.3"/>

  <!-- Wave patterns -->
  <path d="M 0 400 Q 300 350 600 400 T 1200 400 L 1200 630 L 0 630 Z" fill="#1E90A0" opacity="0.08"/>
  <path d="M 0 450 Q 250 420 500 450 T 1000 450 T 1200 450 L 1200 630 L 0 630 Z" fill="#4FD1C5" opacity="0.05"/>

  <!-- Caviar roe particles -->
  <circle cx="269.9362287009456" cy="236.46018566446918" r="4.766344026721763" fill="#CFAE58" opacity="0.14570755281882525"/>
  <circle cx="166.25988880915727" cy="533.8203402570581" r="5.032448398887975" fill="#CFAE58" opacity="0.18902322443381858"/>
  <circle cx="874.3846800854533" cy="229.58872390451555" r="2.443310252603715" fill="#CFAE58" opacity="0.1182541555399245"/>
  <circle cx="789.3490316970397" cy="171.45271870882968" r="4.221472449393119" fill="#CFAE58" opacity="0.22139399084252118"/>
  <circle cx="481.635354317031" cy="102.29431808345598" r="5.714747731696024" fill="#CFAE58" opacity="0.11804314592556776"/>
  <circle cx="543.325496064639" cy="364.9532441910428" r="3.180072151375735" fill="#CFAE58" opacity="0.21498501496170952"/>
  <circle cx="871.0110014785889" cy="326.2684302258997" r="5.695006283451412" fill="#CFAE58" opacity="0.1975477899367613"/>
  <circle cx="1083.229733868168" cy="51.32936250334915" r="2.418425517231462" fill="#CFAE58" opacity="0.12585996628583962"/>
  <circle cx="82.4519389144176" cy="198.4993310384355" r="4.84128711542519" fill="#CFAE58" opacity="0.13543562616827107"/>
  <circle cx="545.1813686022899" cy="441.1634503333467" r="5.304878749952693" fill="#CFAE58" opacity="0.18246968252151596"/>
  <circle cx="1029.5899655302655" cy="202.14993034643248" r="2.78470408119934" fill="#CFAE58" opacity="0.2085578474228137"/>
  <circle cx="1092.5640656130518" cy="524.9298438553163" r="3.6172334474560834" fill="#CFAE58" opacity="0.13491001492520363"/>
  <circle cx="381.25963951755796" cy="127.96892800194038" r="4.20913453440607" fill="#CFAE58" opacity="0.16042943361103168"/>
  <circle cx="555.1556983123396" cy="344.7975322254734" r="4.441353511604001" fill="#CFAE58" opacity="0.2285145722868787"/>
  <circle cx="273.2802613566502" cy="10.690740844047317" r="5.689292345268075" fill="#CFAE58" opacity="0.131434432268959"/>
  <circle cx="1003.9840308502575" cy="308.596036567937" r="2.1742485173567685" fill="#CFAE58" opacity="0.17309897615406833"/>
  <circle cx="775.5271657842834" cy="451.5821386807652" r="5.457682042795502" fill="#CFAE58" opacity="0.22056333993326477"/>
  <circle cx="185.05485799883087" cy="607.0268021926262" r="5.476145773493232" fill="#CFAE58" opacity="0.18481999133257043"/>
  <circle cx="1082.730768762655" cy="611.4723396399864" r="2.6366687831182203" fill="#CFAE58" opacity="0.13597382178781753"/>
  <circle cx="1059.2418127518958" cy="587.8984420558264" r="4.314632704933076" fill="#CFAE58" opacity="0.1639504628176669"/>
  <circle cx="833.7594916182957" cy="594.0798487963481" r="5.156625529278293" fill="#CFAE58" opacity="0.12154266459260399"/>
  <circle cx="64.40018014854019" cy="168.5049317193624" r="5.946539262905745" fill="#CFAE58" opacity="0.1597667134547815"/>
  <circle cx="292.7187887394164" cy="454.7635618481814" r="4.4955754746874215" fill="#CFAE58" opacity="0.11103920715390601"/>
  <circle cx="55.34055606377599" cy="172.9267745838262" r="2.67692442023007" fill="#CFAE58" opacity="0.19014035384769956"/>
  <circle cx="1140.2398200406817" cy="158.9602519102251" r="3.4168333587774438" fill="#CFAE58" opacity="0.230072363264468"/>
  <circle cx="245.11194700514204" cy="246.2441454849975" r="2.82167024319513" fill="#CFAE58" opacity="0.2156592235429287"/>
  <circle cx="815.4262103296863" cy="184.40990506213683" r="2.638585954472119" fill="#CFAE58" opacity="0.23836893239705909"/>
  <circle cx="439.4104383530868" cy="580.224771783877" r="5.001250964469887" fill="#CFAE58" opacity="0.1329748107758721"/>
  <circle cx="430.6412657056994" cy="287.93780512918386" r="2.8104992453097033" fill="#CFAE58" opacity="0.19438584277797166"/>
  <circle cx="371.1928177508895" cy="70.11118011502997" r="5.102167408480591" fill="#CFAE58" opacity="0.1316645668583032"/>

  <!-- Border with glow -->
  <rect x="40" y="40" width="1120" height="550" fill="none" stroke="url(#goldGradient)" stroke-width="3" rx="12" filter="url(#softGlow)"/>

  <!-- Icon circle with premium background -->
  <circle cx="150" cy="200" r="75" fill="#CFAE58" opacity="0.15" filter="url(#softGlow)"/>
  <circle cx="150" cy="200" r="70" fill="#CFAE58" opacity="0.25"/>
  <text x="150" y="235" font-size="90" text-anchor="middle" fill="#CFAE58" filter="url(#glow)">🚚</text>

  <!-- Premium logo (crown) with enhanced styling -->
  <g transform="translate(100, 70)">
    <path d="M 30 20 L 40 35 L 35 35 Z M 50 15 L 60 35 L 45 35 Z M 65 20 L 75 35 L 70 35 Z M 30 35 L 75 35 L 73 45 L 32 45 Z"
          fill="url(#goldGradient)" filter="url(#glow)" stroke="#B89842" stroke-width="0.5"/>
    <circle cx="40" cy="25" r="3" fill="#4FD1C5" filter="url(#glow)"/>
    <circle cx="52" cy="20" r="4" fill="#4FD1C5" filter="url(#glow)"/>
    <circle cx="65" cy="25" r="3" fill="#4FD1C5" filter="url(#glow)"/>
  </g>

  <!-- Title with shadow -->
  <text x="280" y="180" font-family="Georgia, serif" font-size="72" font-weight="bold"
        fill="url(#goldGradient)" filter="url(#shadow)">Logistics Partners</text>

  <!-- Subtitle with subtle glow -->
  <text x="280" y="230" font-family="Arial, sans-serif" font-size="36"
        fill="#D6DEE6" opacity="0.95" filter="url(#softGlow)">Reliable Delivery Across Russia</text>

  <!-- Brand name with letter spacing -->
  <text x="280" y="300" font-family="Georgia, serif" font-size="32" font-weight="bold"
        fill="#CFAE58" letter-spacing="4" filter="url(#glow)">ROYAL KETA</text>

  <!-- Russian tagline -->
  <text x="280" y="340" font-family="Arial, sans-serif" font-size="22" font-style="italic"
        fill="#8B95A1" opacity="0.8">От икринки к королевской</text>

  <!-- Location -->
  <text x="280" y="380" font-family="Arial, sans-serif" font-size="20"
        fill="#8B95A1" opacity="0.7">Невельский район, Сахалин</text>

  <!-- Website with glow -->
  <text x="100" y="570" font-family="Arial, sans-serif" font-size="30" font-weight="bold"
        fill="#4FD1C5" filter="url(#glow)">royalketa.com</text>

  <!-- Enhanced decorative salmon silhouette -->
  <g transform="translate(950, 480)" opacity="0.2" filter="url(#softGlow)">
    <ellipse cx="0" cy="0" rx="90" ry="35" fill="#CFAE58"/>
    <path d="M 90 0 L 120 -18 L 130 0 L 120 18 Z" fill="#CFAE58"/>
    <path d="M -25 -35 L 0 -45 L 25 -35 Z" fill="#CFAE58"/>
    <ellipse cx="-50" cy="0" rx="15" ry="12" fill="#0B0F14"/>
  </g>

  <!-- Additional decorative caviar clusters -->
  <g opacity="0.2">
    <circle cx="1050" cy="120" r="6" fill="#CFAE58"/>
    <circle cx="1065" cy="115" r="5" fill="#CFAE58"/>
    <circle cx="1058" cy="130" r="4" fill="#CFAE58"/>
    <circle cx="150" cy="500" r="5" fill="#4FD1C5"/>
    <circle cx="165" cy="508" r="4" fill="#4FD1C5"/>
    <circle cx="140" cy="512" r="5" fill="#4FD1C5"/>
  </g>
</svg>