<svg width="1200" height="630" xmlns="http://www.w3.org/2000/svg">
  <defs>
    <linearGradient id="bgGradient" x1="0%" y1="0%" x2="100%" y2="100%">
      <stop offset="0%" style="stop-color:#0B0F14;stop-opacity:1" />
      <stop offset="50%" style="stop-color:#0F1619;stop-opacity:1" />
      <stop offset="100%" style="stop-color:#0F1922;stop-opacity:1" />
    </linearGradient>
    <linearGradient id="goldGradient" x1="0%" y1="0%" x2="100%" y2="0%">
      <stop offset="0%" style="stop-color:#E5D596;stop-opacity:1" />
      <stop offset="50%" style="stop-color:#CFAE58;stop-opacity:1" />
      <stop offset="100%" style="stop-color:#B89842;stop-opacity:1" />
    </linearGradient>
    <radialGradient id="oceanGradient" cx="50%" cy="50%" r="50%">
      <stop offset="0%" style="stop-color:#4FD1C5;stop-opacity:0.3" />
      <stop offset="100%" style="stop-color:#1E90A0;stop-opacity:0.05" />
    </radialGradient>
    <filter id="glow">
      <feGaussianBlur stdDeviation="5" result="coloredBlur"/>
      <feMerge>
        <feMergeNode in="coloredBlur"/>
        <feMergeNode in="SourceGraphic"/>
      </feMerge>
    </filter>
    <filter id="softGlow">
      <feGaussianBlur stdDeviation="8" result="coloredBlur"/>
      <feMerge>
        <feMergeNode in="coloredBlur"/>
        <feMergeNode in="SourceGraphic"/>
      </feMerge>
    </filter>
    <filter id="shadow">
      <feDropShadow dx="0" dy="4" stdDeviation="8" flood-color="#000000" flood-opacity="0.5"/>
    </filter>
  </defs>

  <!-- Background -->
  <rect width="1200" height="630" fill="url(#bgGradient)"/>

  <!-- Decorative ocean gradients -->
  <ellipse cx="1000" cy="150" rx="300" ry="200" fill="url(#oceanGradient)" opacity="0.4"/>
  <ellipse cx="200" cy="530" rx="250" ry="180" fill="url(#oceanGradient)" opacity="0.3"/>

  <!-- Wave patterns -->
  <path d="M 0 400 Q 300 350 600 400 T 1200 400 L 1200 630 L 0 630 Z" fill="#1E90A0" opacity="0.08"/>
  <path d="M 0 450 Q 250 420 500 450 T 1000 450 T 1200 450 L 1200 630 L 0 630 Z" fill="#4FD1C5" opacity="0.05"/>

  <!-- Caviar roe particles -->
  <circle cx="5.948183451146738" cy="493.742192941621" r="3.9192150592674655" fill="#CFAE58" opacity="0.1652560150135987"/>
  <circle cx="178.8365652823733" cy="487.643128971061" r="2.23720261303045" fill="#CFAE58" opacity="0.14992062348642338"/>
  <circle cx="612.2793453795023" cy="524.6511776965417" r="5.7835443719099295" fill="#CFAE58" opacity="0.10005024944006995"/>
  <circle cx="966.3656093712949" cy="248.3455038588584" r="5.838973223141889" fill="#CFAE58" opacity="0.22042183928683529"/>
  <circle cx="1035.1026383611318" cy="55.53977479211412" r="2.963738426438256" fill="#CFAE58" opacity="0.17201780056351426"/>
  <circle cx="224.48350078560787" cy="282.7227375762042" r="5.22763184376689" fill="#CFAE58" opacity="0.21653723380743156"/>
  <circle cx="759.5021246683178" cy="304.7857066236723" r="4.006982493545796" fill="#CFAE58" opacity="0.14423056884037716"/>
  <circle cx="642.4740683309615" cy="284.41519829618113" r="5.100957983956642" fill="#CFAE58" opacity="0.14052401078872118"/>
  <circle cx="569.149974472419" cy="231.5250849399462" r="4.078128640534847" fill="#CFAE58" opacity="0.21054755577904238"/>
  <circle cx="0.2839887399801455" cy="147.52583778685576" r="3.011428108953978" fill="#CFAE58" opacity="0.21752298538521853"/>
  <circle cx="229.47960693267163" cy="275.49429214310436" r="5.716427659376638" fill="#CFAE58" opacity="0.15034829693204244"/>
  <circle cx="448.2632023741675" cy="150.15137506875587" r="2.349086979330709" fill="#CFAE58" opacity="0.13270673354994755"/>
  <circle cx="931.8946700327656" cy="498.2058794805347" r="2.7508064446956175" fill="#CFAE58" opacity="0.21737332694567685"/>
  <circle cx="780.8218532107963" cy="610.128470298197" r="5.372941267923977" fill="#CFAE58" opacity="0.15457781234942614"/>
  <circle cx="661.6420312953542" cy="498.94261906254377" r="3.4651542201025887" fill="#CFAE58" opacity="0.21275882136842167"/>
  <circle cx="634.7296864892337" cy="575.4038584395036" r="3.5205631552450445" fill="#CFAE58" opacity="0.24576113412154965"/>
  <circle cx="154.45185531177233" cy="289.78017307739754" r="4.421853929385724" fill="#CFAE58" opacity="0.17477032360439787"/>
  <circle cx="338.37156442733044" cy="339.05277594045333" r="5.801332568057903" fill="#CFAE58" opacity="0.210650648619552"/>
  <circle cx="170.2726966280026" cy="601.5976379184013" r="4.626435980562087" fill="#CFAE58" opacity="0.24655612677969374"/>
  <circle cx="742.4477288983079" cy="127.6924008889267" r="4.235005919900111" fill="#CFAE58" opacity="0.21353804151353117"/>
  <circle cx="231.83391079104817" cy="545.8806814767524" r="3.448126167132717" fill="#CFAE58" opacity="0.14133516158600598"/>
  <circle cx="118.14093761266156" cy="410.7156567159821" r="4.2906113514470245" fill="#CFAE58" opacity="0.13985500525267366"/>
  <circle cx="782.3450717047622" cy="597.6512336628152" r="5.320132494450942" fill="#CFAE58" opacity="0.15298724450082313"/>
  <circle cx="291.8973954415621" cy="338.7440460461363" r="3.6108845788432626" fill="#CFAE58" opacity="0.13065535763217384"/>
  <circle cx="334.36532689101585" cy="221.86748799199577" r="3.4154869465004447" fill="#CFAE58" opacity="0.11305424135424065"/>
  <circle cx="535.4813927356249" cy="432.14100024077135" r="4.537731408720502" fill="#CFAE58" opacity="0.24702780780761804"/>
  <circle cx="571.036023646677" cy="239.6402391304366" r="5.08901112713518" fill="#CFAE58" opacity="0.11301847157741768"/>
  <circle cx="454.20222769154026" cy="572.7280497355644" r="3.8198800015348326" fill="#CFAE58" opacity="0.21121849648707103"/>
  <circle cx="304.7317791737127" cy="500.3998287466865" r="3.0349306024739335" fill="#CFAE58" opacity="0.23724256255530735"/>
  <circle cx="1029.3215920578136" cy="358.4493975471024" r="2.1440178212272403" fill="#CFAE58" opacity="0.16722781505712841"/>

  <!-- Border with glow -->
  <rect x="40" y="40" width="1120" height="550" fill="none" stroke="url(#goldGradient)" stroke-width="3" rx="12" filter="url(#softGlow)"/>

  <!-- Icon circle with premium background -->
  <circle cx="150" cy="200" r="75" fill="#CFAE58" opacity="0.15" filter="url(#softGlow)"/>
  <circle cx="150" cy="200" r="70" fill="#CFAE58" opacity="0.25"/>
  <text x="150" y="235" font-size="90" text-anchor="middle" fill="#CFAE58" filter="url(#glow)">🚚</text>

  <!-- Premium logo (crown) with enhanced styling -->
  <g transform="translate(100, 70)">
    <path d="M 30 20 L 40 35 L 35 35 Z M 50 15 L 60 35 L 45 35 Z M 65 20 L 75 35 L 70 35 Z M 30 35 L 75 35 L 73 45 L 32 45 Z"
          fill="url(#goldGradient)" filter="url(#glow)" stroke="#B89842" stroke-width="0.5"/>
    <circle cx="40" cy="25" r="3" fill="#4FD1C5" filter="url(#glow)"/>
    <circle cx="52" cy="20" r="4" fill="#4FD1C5" filter="url(#glow)"/>
    <circle cx="65" cy="25" r="3" fill="#4FD1C5" filter="url(#glow)"/>
  </g>

  <!-- Title with shadow -->
  <text x="280" y="180" font-family="Georgia, serif" font-size="72" font-weight="bold"
        fill="url(#goldGradient)" filter="url(#shadow)">Logistics Partners</text>

  <!-- Subtitle with subtle glow -->
  <text x="280" y="230" font-family="Arial, sans-serif" font-size="36"
        fill="#D6DEE6" opacity="0.95" filter="url(#softGlow)">Reliable Delivery Across Russia</text>

  <!-- Brand name with letter spacing -->
  <text x="280" y="300" font-family="Georgia, serif" font-size="32" font-weight="bold"
        fill="#CFAE58" letter-spacing="4" filter="url(#glow)">ROYAL KETA</text>

  <!-- Russian tagline -->
  <text x="280" y="340" font-family="Arial, sans-serif" font-size="22" font-style="italic"
        fill="#8B95A1" opacity="0.8">От икринки к королевской</text>

  <!-- Location -->
  <text x="280" y="380" font-family="Arial, sans-serif" font-size="20"
        fill="#8B95A1" opacity="0.7">Невельский район, Сахалин</text>

  <!-- Website with glow -->
  <text x="100" y="570" font-family="Arial, sans-serif" font-size="30" font-weight="bold"
        fill="#4FD1C5" filter="url(#glow)">royalketa.com</text>

  <!-- Enhanced decorative salmon silhouette -->
  <g transform="translate(950, 480)" opacity="0.2" filter="url(#softGlow)">
    <ellipse cx="0" cy="0" rx="90" ry="35" fill="#CFAE58"/>
    <path d="M 90 0 L 120 -18 L 130 0 L 120 18 Z" fill="#CFAE58"/>
    <path d="M -25 -35 L 0 -45 L 25 -35 Z" fill="#CFAE58"/>
    <ellipse cx="-50" cy="0" rx="15" ry="12" fill="#0B0F14"/>
  </g>

  <!-- Additional decorative caviar clusters -->
  <g opacity="0.2">
    <circle cx="1050" cy="120" r="6" fill="#CFAE58"/>
    <circle cx="1065" cy="115" r="5" fill="#CFAE58"/>
    <circle cx="1058" cy="130" r="4" fill="#CFAE58"/>
    <circle cx="150" cy="500" r="5" fill="#4FD1C5"/>
    <circle cx="165" cy="508" r="4" fill="#4FD1C5"/>
    <circle cx="140" cy="512" r="5" fill="#4FD1C5"/>
  </g>
</svg>