<svg width="1200" height="630" xmlns="http://www.w3.org/2000/svg">
  <defs>
    <linearGradient id="bgGradient" x1="0%" y1="0%" x2="100%" y2="100%">
      <stop offset="0%" style="stop-color:#0B0F14;stop-opacity:1" />
      <stop offset="50%" style="stop-color:#0F1619;stop-opacity:1" />
      <stop offset="100%" style="stop-color:#0F1922;stop-opacity:1" />
    </linearGradient>
    <linearGradient id="goldGradient" x1="0%" y1="0%" x2="100%" y2="0%">
      <stop offset="0%" style="stop-color:#E5D596;stop-opacity:1" />
      <stop offset="50%" style="stop-color:#CFAE58;stop-opacity:1" />
      <stop offset="100%" style="stop-color:#B89842;stop-opacity:1" />
    </linearGradient>
    <radialGradient id="oceanGradient" cx="50%" cy="50%" r="50%">
      <stop offset="0%" style="stop-color:#4FD1C5;stop-opacity:0.3" />
      <stop offset="100%" style="stop-color:#1E90A0;stop-opacity:0.05" />
    </radialGradient>
    <filter id="glow">
      <feGaussianBlur stdDeviation="5" result="coloredBlur"/>
      <feMerge>
        <feMergeNode in="coloredBlur"/>
        <feMergeNode in="SourceGraphic"/>
      </feMerge>
    </filter>
    <filter id="softGlow">
      <feGaussianBlur stdDeviation="8" result="coloredBlur"/>
      <feMerge>
        <feMergeNode in="coloredBlur"/>
        <feMergeNode in="SourceGraphic"/>
      </feMerge>
    </filter>
    <filter id="shadow">
      <feDropShadow dx="0" dy="4" stdDeviation="8" flood-color="#000000" flood-opacity="0.5"/>
    </filter>
  </defs>

  <!-- Background -->
  <rect width="1200" height="630" fill="url(#bgGradient)"/>

  <!-- Decorative ocean gradients -->
  <ellipse cx="1000" cy="150" rx="300" ry="200" fill="url(#oceanGradient)" opacity="0.4"/>
  <ellipse cx="200" cy="530" rx="250" ry="180" fill="url(#oceanGradient)" opacity="0.3"/>

  <!-- Wave patterns -->
  <path d="M 0 400 Q 300 350 600 400 T 1200 400 L 1200 630 L 0 630 Z" fill="#1E90A0" opacity="0.08"/>
  <path d="M 0 450 Q 250 420 500 450 T 1000 450 T 1200 450 L 1200 630 L 0 630 Z" fill="#4FD1C5" opacity="0.05"/>

  <!-- Caviar roe particles -->
  <circle cx="773.0501634334054" cy="135.84042508777114" r="2.575337750910834" fill="#CFAE58" opacity="0.14393718269046668"/>
  <circle cx="140.35054959619703" cy="176.83332460362237" r="4.004956175538281" fill="#CFAE58" opacity="0.10664334536040547"/>
  <circle cx="333.91582457340564" cy="18.857646757103147" r="5.8635457601747065" fill="#CFAE58" opacity="0.1502937909136175"/>
  <circle cx="508.99583884511975" cy="606.8258823707656" r="4.3788924259075435" fill="#CFAE58" opacity="0.10848429879271623"/>
  <circle cx="1185.4317307265762" cy="213.33752441865315" r="3.9425033741083846" fill="#CFAE58" opacity="0.19026521488014608"/>
  <circle cx="926.7325602101394" cy="503.91755139070244" r="3.595941750944837" fill="#CFAE58" opacity="0.13761479706744587"/>
  <circle cx="107.77805201889609" cy="457.0064078951949" r="5.461264824140494" fill="#CFAE58" opacity="0.15569097813429242"/>
  <circle cx="1148.9535523060665" cy="190.0671599988915" r="3.2403135137207864" fill="#CFAE58" opacity="0.2014219346900329"/>
  <circle cx="80.4281477890835" cy="554.3199484667649" r="2.252096593765847" fill="#CFAE58" opacity="0.17106032727926967"/>
  <circle cx="219.54964829456802" cy="568.8669186708091" r="2.4642595430542684" fill="#CFAE58" opacity="0.10434246049036255"/>
  <circle cx="785.6740578610946" cy="560.4974610078946" r="3.6650124468291576" fill="#CFAE58" opacity="0.17567429005231477"/>
  <circle cx="332.41834785518625" cy="600.0079403213683" r="2.172119971817236" fill="#CFAE58" opacity="0.2467236997609683"/>
  <circle cx="1199.7855744862297" cy="396.3739567925082" r="5.746979089759901" fill="#CFAE58" opacity="0.1677596135167594"/>
  <circle cx="113.03708802856436" cy="587.2631797277221" r="5.009308915875494" fill="#CFAE58" opacity="0.17455813854580624"/>
  <circle cx="855.5920651893734" cy="578.7751394662887" r="4.6242775812128025" fill="#CFAE58" opacity="0.13112727658142198"/>
  <circle cx="94.31283862814527" cy="27.270396181211172" r="4.455714944983295" fill="#CFAE58" opacity="0.12104086953933796"/>
  <circle cx="937.9226394938249" cy="346.6571132909575" r="2.8745152711789075" fill="#CFAE58" opacity="0.15712353920193323"/>
  <circle cx="453.02527591279363" cy="434.2963406010003" r="3.47742393300417" fill="#CFAE58" opacity="0.21854740041169407"/>
  <circle cx="1018.3129268953697" cy="536.7097396616379" r="4.754451132167895" fill="#CFAE58" opacity="0.13711385724842914"/>
  <circle cx="999.3772533766586" cy="455.9157329356947" r="3.3186417670591606" fill="#CFAE58" opacity="0.1236341912382832"/>
  <circle cx="804.905010497847" cy="537.2303129080789" r="3.9798836993086804" fill="#CFAE58" opacity="0.2263013145510536"/>
  <circle cx="376.43680207039233" cy="280.76113760271505" r="3.0959684336301017" fill="#CFAE58" opacity="0.12052413983324009"/>
  <circle cx="1146.5501645950553" cy="423.10141757262625" r="2.208463821814374" fill="#CFAE58" opacity="0.175738289764088"/>
  <circle cx="147.17653883939084" cy="353.6770836382608" r="3.53305337356439" fill="#CFAE58" opacity="0.21397275062025115"/>
  <circle cx="855.6905300779667" cy="26.344508921313114" r="2.585073279754706" fill="#CFAE58" opacity="0.13858989650149894"/>
  <circle cx="700.119773649376" cy="136.94446432127717" r="4.823082488636813" fill="#CFAE58" opacity="0.1013466388873332"/>
  <circle cx="1148.8387964415624" cy="2.9218347701090885" r="2.2331509493638038" fill="#CFAE58" opacity="0.14678155631349996"/>
  <circle cx="644.3685697185208" cy="625.7258951659755" r="5.3124793261226" fill="#CFAE58" opacity="0.17934190036044895"/>
  <circle cx="503.6738275909673" cy="251.56173109358093" r="5.997990106382252" fill="#CFAE58" opacity="0.13682450628238324"/>
  <circle cx="451.36236621282285" cy="139.37014239824325" r="5.157541548814459" fill="#CFAE58" opacity="0.18820112451383608"/>

  <!-- Border with glow -->
  <rect x="40" y="40" width="1120" height="550" fill="none" stroke="url(#goldGradient)" stroke-width="3" rx="12" filter="url(#softGlow)"/>

  <!-- Icon circle with premium background -->
  <circle cx="150" cy="200" r="75" fill="#CFAE58" opacity="0.15" filter="url(#softGlow)"/>
  <circle cx="150" cy="200" r="70" fill="#CFAE58" opacity="0.25"/>
  <text x="150" y="235" font-size="90" text-anchor="middle" fill="#CFAE58" filter="url(#glow)">🚚</text>

  <!-- Premium logo (crown) with enhanced styling -->
  <g transform="translate(100, 70)">
    <path d="M 30 20 L 40 35 L 35 35 Z M 50 15 L 60 35 L 45 35 Z M 65 20 L 75 35 L 70 35 Z M 30 35 L 75 35 L 73 45 L 32 45 Z"
          fill="url(#goldGradient)" filter="url(#glow)" stroke="#B89842" stroke-width="0.5"/>
    <circle cx="40" cy="25" r="3" fill="#4FD1C5" filter="url(#glow)"/>
    <circle cx="52" cy="20" r="4" fill="#4FD1C5" filter="url(#glow)"/>
    <circle cx="65" cy="25" r="3" fill="#4FD1C5" filter="url(#glow)"/>
  </g>

  <!-- Title with shadow -->
  <text x="280" y="180" font-family="Georgia, serif" font-size="72" font-weight="bold"
        fill="url(#goldGradient)" filter="url(#shadow)">Logistics Partners</text>

  <!-- Subtitle with subtle glow -->
  <text x="280" y="230" font-family="Arial, sans-serif" font-size="36"
        fill="#D6DEE6" opacity="0.95" filter="url(#softGlow)">Reliable Delivery Across Russia</text>

  <!-- Brand name with letter spacing -->
  <text x="280" y="300" font-family="Georgia, serif" font-size="32" font-weight="bold"
        fill="#CFAE58" letter-spacing="4" filter="url(#glow)">ROYAL KETA</text>

  <!-- Russian tagline -->
  <text x="280" y="340" font-family="Arial, sans-serif" font-size="22" font-style="italic"
        fill="#8B95A1" opacity="0.8">От икринки к королевской</text>

  <!-- Location -->
  <text x="280" y="380" font-family="Arial, sans-serif" font-size="20"
        fill="#8B95A1" opacity="0.7">Невельский район, Сахалин</text>

  <!-- Website with glow -->
  <text x="100" y="570" font-family="Arial, sans-serif" font-size="30" font-weight="bold"
        fill="#4FD1C5" filter="url(#glow)">royalketa.com</text>

  <!-- Enhanced decorative salmon silhouette -->
  <g transform="translate(950, 480)" opacity="0.2" filter="url(#softGlow)">
    <ellipse cx="0" cy="0" rx="90" ry="35" fill="#CFAE58"/>
    <path d="M 90 0 L 120 -18 L 130 0 L 120 18 Z" fill="#CFAE58"/>
    <path d="M -25 -35 L 0 -45 L 25 -35 Z" fill="#CFAE58"/>
    <ellipse cx="-50" cy="0" rx="15" ry="12" fill="#0B0F14"/>
  </g>

  <!-- Additional decorative caviar clusters -->
  <g opacity="0.2">
    <circle cx="1050" cy="120" r="6" fill="#CFAE58"/>
    <circle cx="1065" cy="115" r="5" fill="#CFAE58"/>
    <circle cx="1058" cy="130" r="4" fill="#CFAE58"/>
    <circle cx="150" cy="500" r="5" fill="#4FD1C5"/>
    <circle cx="165" cy="508" r="4" fill="#4FD1C5"/>
    <circle cx="140" cy="512" r="5" fill="#4FD1C5"/>
  </g>
</svg>