<svg width="1200" height="630" xmlns="http://www.w3.org/2000/svg">
  <defs>
    <linearGradient id="bgGradient" x1="0%" y1="0%" x2="100%" y2="100%">
      <stop offset="0%" style="stop-color:#0B0F14;stop-opacity:1" />
      <stop offset="50%" style="stop-color:#0F1619;stop-opacity:1" />
      <stop offset="100%" style="stop-color:#0F1922;stop-opacity:1" />
    </linearGradient>
    <linearGradient id="goldGradient" x1="0%" y1="0%" x2="100%" y2="0%">
      <stop offset="0%" style="stop-color:#E5D596;stop-opacity:1" />
      <stop offset="50%" style="stop-color:#CFAE58;stop-opacity:1" />
      <stop offset="100%" style="stop-color:#B89842;stop-opacity:1" />
    </linearGradient>
    <radialGradient id="oceanGradient" cx="50%" cy="50%" r="50%">
      <stop offset="0%" style="stop-color:#4FD1C5;stop-opacity:0.3" />
      <stop offset="100%" style="stop-color:#1E90A0;stop-opacity:0.05" />
    </radialGradient>
    <filter id="glow">
      <feGaussianBlur stdDeviation="5" result="coloredBlur"/>
      <feMerge>
        <feMergeNode in="coloredBlur"/>
        <feMergeNode in="SourceGraphic"/>
      </feMerge>
    </filter>
    <filter id="softGlow">
      <feGaussianBlur stdDeviation="8" result="coloredBlur"/>
      <feMerge>
        <feMergeNode in="coloredBlur"/>
        <feMergeNode in="SourceGraphic"/>
      </feMerge>
    </filter>
    <filter id="shadow">
      <feDropShadow dx="0" dy="4" stdDeviation="8" flood-color="#000000" flood-opacity="0.5"/>
    </filter>
  </defs>

  <!-- Background -->
  <rect width="1200" height="630" fill="url(#bgGradient)"/>

  <!-- Decorative ocean gradients -->
  <ellipse cx="1000" cy="150" rx="300" ry="200" fill="url(#oceanGradient)" opacity="0.4"/>
  <ellipse cx="200" cy="530" rx="250" ry="180" fill="url(#oceanGradient)" opacity="0.3"/>

  <!-- Wave patterns -->
  <path d="M 0 400 Q 300 350 600 400 T 1200 400 L 1200 630 L 0 630 Z" fill="#1E90A0" opacity="0.08"/>
  <path d="M 0 450 Q 250 420 500 450 T 1000 450 T 1200 450 L 1200 630 L 0 630 Z" fill="#4FD1C5" opacity="0.05"/>

  <!-- Caviar roe particles -->
  <circle cx="482.7690180006229" cy="611.8042218048896" r="3.767092197193379" fill="#CFAE58" opacity="0.11210067177755445"/>
  <circle cx="39.69303543811016" cy="131.23066093334614" r="3.9618531478011096" fill="#CFAE58" opacity="0.2261978916640433"/>
  <circle cx="1063.810913329454" cy="380.3406156267648" r="2.2824494436848966" fill="#CFAE58" opacity="0.19832249018305914"/>
  <circle cx="347.22619045584526" cy="50.78867721355588" r="4.169263281666445" fill="#CFAE58" opacity="0.1361603195606044"/>
  <circle cx="813.2287648249363" cy="152.25456189507935" r="5.561220860634188" fill="#CFAE58" opacity="0.13547283802746862"/>
  <circle cx="305.70010449986535" cy="102.14199868444037" r="3.6867656768726462" fill="#CFAE58" opacity="0.10190195897352976"/>
  <circle cx="746.6757727014257" cy="76.7883030255862" r="5.7652113149007445" fill="#CFAE58" opacity="0.17505039758015595"/>
  <circle cx="333.1076458076893" cy="365.678003508868" r="4.186441109349221" fill="#CFAE58" opacity="0.1809194132723959"/>
  <circle cx="153.63535046182113" cy="277.7206340572144" r="2.019252451400024" fill="#CFAE58" opacity="0.1415353515422978"/>
  <circle cx="548.7392232465479" cy="551.1645282296764" r="5.592355398563608" fill="#CFAE58" opacity="0.14472037188002168"/>
  <circle cx="55.48519627899937" cy="258.2811423316451" r="3.3396621767369927" fill="#CFAE58" opacity="0.14032584086138417"/>
  <circle cx="421.54545067245397" cy="192.66984646241224" r="4.80787069362585" fill="#CFAE58" opacity="0.2171002249805596"/>
  <circle cx="722.1517941278667" cy="182.4434350668006" r="2.2507714035534274" fill="#CFAE58" opacity="0.13015931984441564"/>
  <circle cx="230.78228066380078" cy="249.4990484471244" r="5.763787099569514" fill="#CFAE58" opacity="0.10336500221682636"/>
  <circle cx="697.4719592826773" cy="521.6251175029264" r="5.749375657708717" fill="#CFAE58" opacity="0.2362534075419563"/>
  <circle cx="254.386166425983" cy="45.09001058713258" r="3.1295449367900448" fill="#CFAE58" opacity="0.23941719624506475"/>
  <circle cx="1133.764361810199" cy="255.80362973445168" r="3.974811986668513" fill="#CFAE58" opacity="0.12945137330029258"/>
  <circle cx="512.8326601977492" cy="95.7074331785346" r="4.249367603028274" fill="#CFAE58" opacity="0.21002376807225498"/>
  <circle cx="999.8506852393775" cy="550.4920489960722" r="3.7892134049795656" fill="#CFAE58" opacity="0.12477838151249696"/>
  <circle cx="354.9307932068787" cy="421.29336346396354" r="5.891399431115187" fill="#CFAE58" opacity="0.10772702165913325"/>
  <circle cx="472.8148793775209" cy="63.31442431470211" r="4.519160204322497" fill="#CFAE58" opacity="0.10092144113043729"/>
  <circle cx="86.18455387039008" cy="268.8886263135796" r="4.101653564027853" fill="#CFAE58" opacity="0.2471308600747565"/>
  <circle cx="137.62870474475795" cy="490.79391975500675" r="5.182451757823956" fill="#CFAE58" opacity="0.2336567087693146"/>
  <circle cx="93.58738451648838" cy="354.3734580870926" r="2.5986879958682563" fill="#CFAE58" opacity="0.19236351615182185"/>
  <circle cx="664.4200010755961" cy="501.0377594643267" r="3.8729625678982833" fill="#CFAE58" opacity="0.14005233590358668"/>
  <circle cx="40.64014880898572" cy="301.486113547027" r="3.436608392454822" fill="#CFAE58" opacity="0.14027019258021164"/>
  <circle cx="730.6363846639737" cy="526.8165163139475" r="3.271859222398801" fill="#CFAE58" opacity="0.15761116555548002"/>
  <circle cx="982.0163560819454" cy="572.8668184460604" r="5.391457976265096" fill="#CFAE58" opacity="0.15132389783324748"/>
  <circle cx="688.497463882286" cy="176.47797605686964" r="3.558908802590591" fill="#CFAE58" opacity="0.1646914176251146"/>
  <circle cx="933.8102519176911" cy="303.8731213986351" r="4.27969607275862" fill="#CFAE58" opacity="0.19031579685977013"/>

  <!-- Border with glow -->
  <rect x="40" y="40" width="1120" height="550" fill="none" stroke="url(#goldGradient)" stroke-width="3" rx="12" filter="url(#softGlow)"/>

  <!-- Icon circle with premium background -->
  <circle cx="150" cy="200" r="75" fill="#CFAE58" opacity="0.15" filter="url(#softGlow)"/>
  <circle cx="150" cy="200" r="70" fill="#CFAE58" opacity="0.25"/>
  <text x="150" y="235" font-size="90" text-anchor="middle" fill="#CFAE58" filter="url(#glow)">🚚</text>

  <!-- Premium logo (crown) with enhanced styling -->
  <g transform="translate(100, 70)">
    <path d="M 30 20 L 40 35 L 35 35 Z M 50 15 L 60 35 L 45 35 Z M 65 20 L 75 35 L 70 35 Z M 30 35 L 75 35 L 73 45 L 32 45 Z"
          fill="url(#goldGradient)" filter="url(#glow)" stroke="#B89842" stroke-width="0.5"/>
    <circle cx="40" cy="25" r="3" fill="#4FD1C5" filter="url(#glow)"/>
    <circle cx="52" cy="20" r="4" fill="#4FD1C5" filter="url(#glow)"/>
    <circle cx="65" cy="25" r="3" fill="#4FD1C5" filter="url(#glow)"/>
  </g>

  <!-- Title with shadow -->
  <text x="280" y="180" font-family="Georgia, serif" font-size="72" font-weight="bold"
        fill="url(#goldGradient)" filter="url(#shadow)">Logistics Partners</text>

  <!-- Subtitle with subtle glow -->
  <text x="280" y="230" font-family="Arial, sans-serif" font-size="36"
        fill="#D6DEE6" opacity="0.95" filter="url(#softGlow)">Reliable Delivery Across Russia</text>

  <!-- Brand name with letter spacing -->
  <text x="280" y="300" font-family="Georgia, serif" font-size="32" font-weight="bold"
        fill="#CFAE58" letter-spacing="4" filter="url(#glow)">ROYAL KETA</text>

  <!-- Russian tagline -->
  <text x="280" y="340" font-family="Arial, sans-serif" font-size="22" font-style="italic"
        fill="#8B95A1" opacity="0.8">От икринки к королевской</text>

  <!-- Location -->
  <text x="280" y="380" font-family="Arial, sans-serif" font-size="20"
        fill="#8B95A1" opacity="0.7">Невельский район, Сахалин</text>

  <!-- Website with glow -->
  <text x="100" y="570" font-family="Arial, sans-serif" font-size="30" font-weight="bold"
        fill="#4FD1C5" filter="url(#glow)">royalketa.com</text>

  <!-- Enhanced decorative salmon silhouette -->
  <g transform="translate(950, 480)" opacity="0.2" filter="url(#softGlow)">
    <ellipse cx="0" cy="0" rx="90" ry="35" fill="#CFAE58"/>
    <path d="M 90 0 L 120 -18 L 130 0 L 120 18 Z" fill="#CFAE58"/>
    <path d="M -25 -35 L 0 -45 L 25 -35 Z" fill="#CFAE58"/>
    <ellipse cx="-50" cy="0" rx="15" ry="12" fill="#0B0F14"/>
  </g>

  <!-- Additional decorative caviar clusters -->
  <g opacity="0.2">
    <circle cx="1050" cy="120" r="6" fill="#CFAE58"/>
    <circle cx="1065" cy="115" r="5" fill="#CFAE58"/>
    <circle cx="1058" cy="130" r="4" fill="#CFAE58"/>
    <circle cx="150" cy="500" r="5" fill="#4FD1C5"/>
    <circle cx="165" cy="508" r="4" fill="#4FD1C5"/>
    <circle cx="140" cy="512" r="5" fill="#4FD1C5"/>
  </g>
</svg>