<svg width="1200" height="630" xmlns="http://www.w3.org/2000/svg">
  <defs>
    <linearGradient id="bgGradient" x1="0%" y1="0%" x2="100%" y2="100%">
      <stop offset="0%" style="stop-color:#0B0F14;stop-opacity:1" />
      <stop offset="50%" style="stop-color:#0F1619;stop-opacity:1" />
      <stop offset="100%" style="stop-color:#0F1922;stop-opacity:1" />
    </linearGradient>
    <linearGradient id="goldGradient" x1="0%" y1="0%" x2="100%" y2="0%">
      <stop offset="0%" style="stop-color:#E5D596;stop-opacity:1" />
      <stop offset="50%" style="stop-color:#CFAE58;stop-opacity:1" />
      <stop offset="100%" style="stop-color:#B89842;stop-opacity:1" />
    </linearGradient>
    <radialGradient id="oceanGradient" cx="50%" cy="50%" r="50%">
      <stop offset="0%" style="stop-color:#4FD1C5;stop-opacity:0.3" />
      <stop offset="100%" style="stop-color:#1E90A0;stop-opacity:0.05" />
    </radialGradient>
    <filter id="glow">
      <feGaussianBlur stdDeviation="5" result="coloredBlur"/>
      <feMerge>
        <feMergeNode in="coloredBlur"/>
        <feMergeNode in="SourceGraphic"/>
      </feMerge>
    </filter>
    <filter id="softGlow">
      <feGaussianBlur stdDeviation="8" result="coloredBlur"/>
      <feMerge>
        <feMergeNode in="coloredBlur"/>
        <feMergeNode in="SourceGraphic"/>
      </feMerge>
    </filter>
    <filter id="shadow">
      <feDropShadow dx="0" dy="4" stdDeviation="8" flood-color="#000000" flood-opacity="0.5"/>
    </filter>
  </defs>

  <!-- Background -->
  <rect width="1200" height="630" fill="url(#bgGradient)"/>

  <!-- Decorative ocean gradients -->
  <ellipse cx="1000" cy="150" rx="300" ry="200" fill="url(#oceanGradient)" opacity="0.4"/>
  <ellipse cx="200" cy="530" rx="250" ry="180" fill="url(#oceanGradient)" opacity="0.3"/>

  <!-- Wave patterns -->
  <path d="M 0 400 Q 300 350 600 400 T 1200 400 L 1200 630 L 0 630 Z" fill="#1E90A0" opacity="0.08"/>
  <path d="M 0 450 Q 250 420 500 450 T 1000 450 T 1200 450 L 1200 630 L 0 630 Z" fill="#4FD1C5" opacity="0.05"/>

  <!-- Caviar roe particles -->
  <circle cx="48.434529032859075" cy="376.5257870535765" r="4.1488795780051895" fill="#CFAE58" opacity="0.22541322306901956"/>
  <circle cx="131.63126908354553" cy="202.4382895211689" r="3.5279971055931814" fill="#CFAE58" opacity="0.19507242863451024"/>
  <circle cx="509.521105452698" cy="518.5675596748946" r="2.6247928626131447" fill="#CFAE58" opacity="0.1996237940569576"/>
  <circle cx="609.4300836184452" cy="36.23958412744551" r="4.598309596885154" fill="#CFAE58" opacity="0.1844690601005406"/>
  <circle cx="193.7816794248337" cy="22.07879506107591" r="4.745226171086204" fill="#CFAE58" opacity="0.14112609411634217"/>
  <circle cx="557.0186551660798" cy="534.8050159388933" r="5.744199872288152" fill="#CFAE58" opacity="0.22765428306357172"/>
  <circle cx="1170.8221165833304" cy="468.3717727110787" r="4.369319826759149" fill="#CFAE58" opacity="0.10161909166719746"/>
  <circle cx="904.4231892919632" cy="220.27145065888257" r="5.7534749084798555" fill="#CFAE58" opacity="0.23973481560310098"/>
  <circle cx="666.652675015808" cy="239.72215959428684" r="3.306865567246586" fill="#CFAE58" opacity="0.22076805211877967"/>
  <circle cx="686.3021939097658" cy="506.61678653392335" r="5.5741552022125695" fill="#CFAE58" opacity="0.11860897326591913"/>
  <circle cx="445.43776166299756" cy="134.4926573437029" r="4.6210483575634065" fill="#CFAE58" opacity="0.16961503456157"/>
  <circle cx="354.9699217775561" cy="486.8382933039379" r="5.1492401508511785" fill="#CFAE58" opacity="0.22535441250179972"/>
  <circle cx="593.0092887935524" cy="144.15504443692868" r="2.6290838351939447" fill="#CFAE58" opacity="0.18086539382298844"/>
  <circle cx="1187.7647454700962" cy="79.40318637305661" r="5.144300975112305" fill="#CFAE58" opacity="0.13087837457204723"/>
  <circle cx="712.7309412743178" cy="487.11214770678" r="3.1291704582467608" fill="#CFAE58" opacity="0.1718672507728206"/>
  <circle cx="934.2633189666792" cy="147.57067323516299" r="5.105505098536149" fill="#CFAE58" opacity="0.14093758563379094"/>
  <circle cx="983.7748036298383" cy="347.6346161533765" r="5.032570180544205" fill="#CFAE58" opacity="0.18170310436906664"/>
  <circle cx="660.3728444403969" cy="91.68112226455892" r="3.9649113796280266" fill="#CFAE58" opacity="0.24161319126277783"/>
  <circle cx="144.30135338512127" cy="320.535939824237" r="4.957456174667637" fill="#CFAE58" opacity="0.23223567373416004"/>
  <circle cx="175.09395723910117" cy="291.95842848890493" r="3.16304640767391" fill="#CFAE58" opacity="0.15977253356086532"/>
  <circle cx="1166.5883775983643" cy="40.39334788341767" r="2.6728037665155684" fill="#CFAE58" opacity="0.20968163313838856"/>
  <circle cx="615.9925568878796" cy="119.40000674919878" r="2.469571437460404" fill="#CFAE58" opacity="0.18110713322403094"/>
  <circle cx="645.1925920899914" cy="317.1094241819921" r="4.638359370914852" fill="#CFAE58" opacity="0.1471766138805001"/>
  <circle cx="250.78651486780413" cy="337.7830423609305" r="4.4370861784203806" fill="#CFAE58" opacity="0.1624704087258274"/>
  <circle cx="1023.7979556675465" cy="609.4160261393552" r="2.778145842301691" fill="#CFAE58" opacity="0.13991347866437256"/>
  <circle cx="527.3632079300494" cy="622.5931385910133" r="3.254584245785342" fill="#CFAE58" opacity="0.19832470497145754"/>
  <circle cx="961.2286417968635" cy="450.6081004118708" r="4.300590949435594" fill="#CFAE58" opacity="0.10857683121133097"/>
  <circle cx="776.3921098289746" cy="368.48605565581835" r="3.5951258354773055" fill="#CFAE58" opacity="0.19758216737446016"/>
  <circle cx="677.3854226547946" cy="139.20293997777824" r="2.030996639117345" fill="#CFAE58" opacity="0.15336378904583997"/>
  <circle cx="52.392814550668554" cy="72.23200803724006" r="2.730754957884228" fill="#CFAE58" opacity="0.21210559994040656"/>

  <!-- Border with glow -->
  <rect x="40" y="40" width="1120" height="550" fill="none" stroke="url(#goldGradient)" stroke-width="3" rx="12" filter="url(#softGlow)"/>

  <!-- Icon circle with premium background -->
  <circle cx="150" cy="200" r="75" fill="#CFAE58" opacity="0.15" filter="url(#softGlow)"/>
  <circle cx="150" cy="200" r="70" fill="#CFAE58" opacity="0.25"/>
  <text x="150" y="235" font-size="90" text-anchor="middle" fill="#CFAE58" filter="url(#glow)">🚚</text>

  <!-- Premium logo (crown) with enhanced styling -->
  <g transform="translate(100, 70)">
    <path d="M 30 20 L 40 35 L 35 35 Z M 50 15 L 60 35 L 45 35 Z M 65 20 L 75 35 L 70 35 Z M 30 35 L 75 35 L 73 45 L 32 45 Z"
          fill="url(#goldGradient)" filter="url(#glow)" stroke="#B89842" stroke-width="0.5"/>
    <circle cx="40" cy="25" r="3" fill="#4FD1C5" filter="url(#glow)"/>
    <circle cx="52" cy="20" r="4" fill="#4FD1C5" filter="url(#glow)"/>
    <circle cx="65" cy="25" r="3" fill="#4FD1C5" filter="url(#glow)"/>
  </g>

  <!-- Title with shadow -->
  <text x="280" y="180" font-family="Georgia, serif" font-size="72" font-weight="bold"
        fill="url(#goldGradient)" filter="url(#shadow)">Logistics Partners</text>

  <!-- Subtitle with subtle glow -->
  <text x="280" y="230" font-family="Arial, sans-serif" font-size="36"
        fill="#D6DEE6" opacity="0.95" filter="url(#softGlow)">Reliable Delivery Across Russia</text>

  <!-- Brand name with letter spacing -->
  <text x="280" y="300" font-family="Georgia, serif" font-size="32" font-weight="bold"
        fill="#CFAE58" letter-spacing="4" filter="url(#glow)">ROYAL KETA</text>

  <!-- Russian tagline -->
  <text x="280" y="340" font-family="Arial, sans-serif" font-size="22" font-style="italic"
        fill="#8B95A1" opacity="0.8">От икринки к королевской</text>

  <!-- Location -->
  <text x="280" y="380" font-family="Arial, sans-serif" font-size="20"
        fill="#8B95A1" opacity="0.7">Невельский район, Сахалин</text>

  <!-- Website with glow -->
  <text x="100" y="570" font-family="Arial, sans-serif" font-size="30" font-weight="bold"
        fill="#4FD1C5" filter="url(#glow)">royalketa.com</text>

  <!-- Enhanced decorative salmon silhouette -->
  <g transform="translate(950, 480)" opacity="0.2" filter="url(#softGlow)">
    <ellipse cx="0" cy="0" rx="90" ry="35" fill="#CFAE58"/>
    <path d="M 90 0 L 120 -18 L 130 0 L 120 18 Z" fill="#CFAE58"/>
    <path d="M -25 -35 L 0 -45 L 25 -35 Z" fill="#CFAE58"/>
    <ellipse cx="-50" cy="0" rx="15" ry="12" fill="#0B0F14"/>
  </g>

  <!-- Additional decorative caviar clusters -->
  <g opacity="0.2">
    <circle cx="1050" cy="120" r="6" fill="#CFAE58"/>
    <circle cx="1065" cy="115" r="5" fill="#CFAE58"/>
    <circle cx="1058" cy="130" r="4" fill="#CFAE58"/>
    <circle cx="150" cy="500" r="5" fill="#4FD1C5"/>
    <circle cx="165" cy="508" r="4" fill="#4FD1C5"/>
    <circle cx="140" cy="512" r="5" fill="#4FD1C5"/>
  </g>
</svg>