<svg width="1200" height="630" xmlns="http://www.w3.org/2000/svg">
  <defs>
    <linearGradient id="bgGradient" x1="0%" y1="0%" x2="100%" y2="100%">
      <stop offset="0%" style="stop-color:#0B0F14;stop-opacity:1" />
      <stop offset="50%" style="stop-color:#0F1619;stop-opacity:1" />
      <stop offset="100%" style="stop-color:#0F1922;stop-opacity:1" />
    </linearGradient>
    <linearGradient id="goldGradient" x1="0%" y1="0%" x2="100%" y2="0%">
      <stop offset="0%" style="stop-color:#E5D596;stop-opacity:1" />
      <stop offset="50%" style="stop-color:#CFAE58;stop-opacity:1" />
      <stop offset="100%" style="stop-color:#B89842;stop-opacity:1" />
    </linearGradient>
    <radialGradient id="oceanGradient" cx="50%" cy="50%" r="50%">
      <stop offset="0%" style="stop-color:#4FD1C5;stop-opacity:0.3" />
      <stop offset="100%" style="stop-color:#1E90A0;stop-opacity:0.05" />
    </radialGradient>
    <filter id="glow">
      <feGaussianBlur stdDeviation="5" result="coloredBlur"/>
      <feMerge>
        <feMergeNode in="coloredBlur"/>
        <feMergeNode in="SourceGraphic"/>
      </feMerge>
    </filter>
    <filter id="softGlow">
      <feGaussianBlur stdDeviation="8" result="coloredBlur"/>
      <feMerge>
        <feMergeNode in="coloredBlur"/>
        <feMergeNode in="SourceGraphic"/>
      </feMerge>
    </filter>
    <filter id="shadow">
      <feDropShadow dx="0" dy="4" stdDeviation="8" flood-color="#000000" flood-opacity="0.5"/>
    </filter>
  </defs>

  <!-- Background -->
  <rect width="1200" height="630" fill="url(#bgGradient)"/>

  <!-- Decorative ocean gradients -->
  <ellipse cx="1000" cy="150" rx="300" ry="200" fill="url(#oceanGradient)" opacity="0.4"/>
  <ellipse cx="200" cy="530" rx="250" ry="180" fill="url(#oceanGradient)" opacity="0.3"/>

  <!-- Wave patterns -->
  <path d="M 0 400 Q 300 350 600 400 T 1200 400 L 1200 630 L 0 630 Z" fill="#1E90A0" opacity="0.08"/>
  <path d="M 0 450 Q 250 420 500 450 T 1000 450 T 1200 450 L 1200 630 L 0 630 Z" fill="#4FD1C5" opacity="0.05"/>

  <!-- Caviar roe particles -->
  <circle cx="244.15122615081603" cy="43.0471401311461" r="4.5207278807328874" fill="#CFAE58" opacity="0.1171925785119191"/>
  <circle cx="676.0850676780083" cy="153.12123910481696" r="2.522633819737142" fill="#CFAE58" opacity="0.231652295582189"/>
  <circle cx="677.7576423976077" cy="349.8028737732083" r="4.483039141348204" fill="#CFAE58" opacity="0.2131939557762789"/>
  <circle cx="1010.5102347231966" cy="7.746912617193122" r="4.632561439278947" fill="#CFAE58" opacity="0.23687488307110252"/>
  <circle cx="137.5159781640323" cy="603.1935208446412" r="4.31011938226437" fill="#CFAE58" opacity="0.15676484150844172"/>
  <circle cx="395.94650081018744" cy="396.5970800540134" r="3.9152944382188926" fill="#CFAE58" opacity="0.20899680939429202"/>
  <circle cx="948.0089724110683" cy="468.3515093279502" r="5.906175877108994" fill="#CFAE58" opacity="0.14575632282476023"/>
  <circle cx="275.24364741621474" cy="573.6065158975681" r="5.883117279320106" fill="#CFAE58" opacity="0.20576623639080951"/>
  <circle cx="878.2035514331583" cy="392.9965708431031" r="4.8205306835843995" fill="#CFAE58" opacity="0.11152080692871474"/>
  <circle cx="645.6224701757202" cy="424.62356142646786" r="5.454823479376371" fill="#CFAE58" opacity="0.20536950395460302"/>
  <circle cx="1137.5665584834621" cy="187.63116748954204" r="2.9468700923753053" fill="#CFAE58" opacity="0.15987931647718348"/>
  <circle cx="248.45000784407648" cy="45.168826698724736" r="4.886068165181279" fill="#CFAE58" opacity="0.1959561711996659"/>
  <circle cx="1044.2666204770762" cy="356.3036853335712" r="3.819010366487788" fill="#CFAE58" opacity="0.12143309862901189"/>
  <circle cx="335.6390606945722" cy="277.860487577298" r="3.7760497459095497" fill="#CFAE58" opacity="0.21002344003856455"/>
  <circle cx="229.31070021345815" cy="572.0573728685813" r="2.7646460094296277" fill="#CFAE58" opacity="0.17051199605688588"/>
  <circle cx="709.8847209224749" cy="197.95284281608716" r="4.098966720195216" fill="#CFAE58" opacity="0.12564011201521183"/>
  <circle cx="425.2105186489386" cy="84.1490965997609" r="5.568418318225844" fill="#CFAE58" opacity="0.13333474388630945"/>
  <circle cx="728.0416890028789" cy="78.73713771923349" r="5.035323751949282" fill="#CFAE58" opacity="0.20011447905876872"/>
  <circle cx="286.21177686335375" cy="131.4282894636876" r="2.52869947580011" fill="#CFAE58" opacity="0.2043051478473672"/>
  <circle cx="1058.6619537605789" cy="46.07440482451089" r="4.577531977730117" fill="#CFAE58" opacity="0.11496085560243523"/>
  <circle cx="385.06449723166634" cy="344.467094339616" r="5.363782433012106" fill="#CFAE58" opacity="0.2487330072608245"/>
  <circle cx="903.6074517425445" cy="189.0084147724236" r="3.002549551668742" fill="#CFAE58" opacity="0.2288415701382718"/>
  <circle cx="8.798590023122976" cy="16.27013003142934" r="4.591827218627953" fill="#CFAE58" opacity="0.2013799737072689"/>
  <circle cx="481.32239782888615" cy="302.55079346496126" r="4.02280884454253" fill="#CFAE58" opacity="0.13548340399606879"/>
  <circle cx="706.6077324500392" cy="3.109100142119141" r="3.280851256134289" fill="#CFAE58" opacity="0.11045080284280889"/>
  <circle cx="665.6209665247034" cy="139.98622125990605" r="3.0299119743836433" fill="#CFAE58" opacity="0.12868231455667423"/>
  <circle cx="876.3447470554956" cy="242.4495759253969" r="3.917014425160321" fill="#CFAE58" opacity="0.23550918694392642"/>
  <circle cx="309.5888435827284" cy="356.47231004984116" r="5.86992795297598" fill="#CFAE58" opacity="0.11838848237520094"/>
  <circle cx="903.1507240896804" cy="197.21713116180948" r="4.004826100083824" fill="#CFAE58" opacity="0.21903225374073376"/>
  <circle cx="329.7201707446237" cy="554.2433662953374" r="4.277725798357469" fill="#CFAE58" opacity="0.20799390287675565"/>

  <!-- Border with glow -->
  <rect x="40" y="40" width="1120" height="550" fill="none" stroke="url(#goldGradient)" stroke-width="3" rx="12" filter="url(#softGlow)"/>

  <!-- Icon circle with premium background -->
  <circle cx="150" cy="200" r="75" fill="#CFAE58" opacity="0.15" filter="url(#softGlow)"/>
  <circle cx="150" cy="200" r="70" fill="#CFAE58" opacity="0.25"/>
  <text x="150" y="235" font-size="90" text-anchor="middle" fill="#CFAE58" filter="url(#glow)">🚚</text>

  <!-- Premium logo (crown) with enhanced styling -->
  <g transform="translate(100, 70)">
    <path d="M 30 20 L 40 35 L 35 35 Z M 50 15 L 60 35 L 45 35 Z M 65 20 L 75 35 L 70 35 Z M 30 35 L 75 35 L 73 45 L 32 45 Z"
          fill="url(#goldGradient)" filter="url(#glow)" stroke="#B89842" stroke-width="0.5"/>
    <circle cx="40" cy="25" r="3" fill="#4FD1C5" filter="url(#glow)"/>
    <circle cx="52" cy="20" r="4" fill="#4FD1C5" filter="url(#glow)"/>
    <circle cx="65" cy="25" r="3" fill="#4FD1C5" filter="url(#glow)"/>
  </g>

  <!-- Title with shadow -->
  <text x="280" y="180" font-family="Georgia, serif" font-size="72" font-weight="bold"
        fill="url(#goldGradient)" filter="url(#shadow)">Logistics Partners</text>

  <!-- Subtitle with subtle glow -->
  <text x="280" y="230" font-family="Arial, sans-serif" font-size="36"
        fill="#D6DEE6" opacity="0.95" filter="url(#softGlow)">Reliable Delivery Across Russia</text>

  <!-- Brand name with letter spacing -->
  <text x="280" y="300" font-family="Georgia, serif" font-size="32" font-weight="bold"
        fill="#CFAE58" letter-spacing="4" filter="url(#glow)">ROYAL KETA</text>

  <!-- Russian tagline -->
  <text x="280" y="340" font-family="Arial, sans-serif" font-size="22" font-style="italic"
        fill="#8B95A1" opacity="0.8">От икринки к королевской</text>

  <!-- Location -->
  <text x="280" y="380" font-family="Arial, sans-serif" font-size="20"
        fill="#8B95A1" opacity="0.7">Невельский район, Сахалин</text>

  <!-- Website with glow -->
  <text x="100" y="570" font-family="Arial, sans-serif" font-size="30" font-weight="bold"
        fill="#4FD1C5" filter="url(#glow)">royalketa.com</text>

  <!-- Enhanced decorative salmon silhouette -->
  <g transform="translate(950, 480)" opacity="0.2" filter="url(#softGlow)">
    <ellipse cx="0" cy="0" rx="90" ry="35" fill="#CFAE58"/>
    <path d="M 90 0 L 120 -18 L 130 0 L 120 18 Z" fill="#CFAE58"/>
    <path d="M -25 -35 L 0 -45 L 25 -35 Z" fill="#CFAE58"/>
    <ellipse cx="-50" cy="0" rx="15" ry="12" fill="#0B0F14"/>
  </g>

  <!-- Additional decorative caviar clusters -->
  <g opacity="0.2">
    <circle cx="1050" cy="120" r="6" fill="#CFAE58"/>
    <circle cx="1065" cy="115" r="5" fill="#CFAE58"/>
    <circle cx="1058" cy="130" r="4" fill="#CFAE58"/>
    <circle cx="150" cy="500" r="5" fill="#4FD1C5"/>
    <circle cx="165" cy="508" r="4" fill="#4FD1C5"/>
    <circle cx="140" cy="512" r="5" fill="#4FD1C5"/>
  </g>
</svg>