<svg width="1200" height="630" xmlns="http://www.w3.org/2000/svg">
  <defs>
    <linearGradient id="bgGradient" x1="0%" y1="0%" x2="100%" y2="100%">
      <stop offset="0%" style="stop-color:#0B0F14;stop-opacity:1" />
      <stop offset="50%" style="stop-color:#0F1619;stop-opacity:1" />
      <stop offset="100%" style="stop-color:#0F1922;stop-opacity:1" />
    </linearGradient>
    <linearGradient id="goldGradient" x1="0%" y1="0%" x2="100%" y2="0%">
      <stop offset="0%" style="stop-color:#E5D596;stop-opacity:1" />
      <stop offset="50%" style="stop-color:#CFAE58;stop-opacity:1" />
      <stop offset="100%" style="stop-color:#B89842;stop-opacity:1" />
    </linearGradient>
    <radialGradient id="oceanGradient" cx="50%" cy="50%" r="50%">
      <stop offset="0%" style="stop-color:#4FD1C5;stop-opacity:0.3" />
      <stop offset="100%" style="stop-color:#1E90A0;stop-opacity:0.05" />
    </radialGradient>
    <filter id="glow">
      <feGaussianBlur stdDeviation="5" result="coloredBlur"/>
      <feMerge>
        <feMergeNode in="coloredBlur"/>
        <feMergeNode in="SourceGraphic"/>
      </feMerge>
    </filter>
    <filter id="softGlow">
      <feGaussianBlur stdDeviation="8" result="coloredBlur"/>
      <feMerge>
        <feMergeNode in="coloredBlur"/>
        <feMergeNode in="SourceGraphic"/>
      </feMerge>
    </filter>
    <filter id="shadow">
      <feDropShadow dx="0" dy="4" stdDeviation="8" flood-color="#000000" flood-opacity="0.5"/>
    </filter>
  </defs>

  <!-- Background -->
  <rect width="1200" height="630" fill="url(#bgGradient)"/>

  <!-- Decorative ocean gradients -->
  <ellipse cx="1000" cy="150" rx="300" ry="200" fill="url(#oceanGradient)" opacity="0.4"/>
  <ellipse cx="200" cy="530" rx="250" ry="180" fill="url(#oceanGradient)" opacity="0.3"/>

  <!-- Wave patterns -->
  <path d="M 0 400 Q 300 350 600 400 T 1200 400 L 1200 630 L 0 630 Z" fill="#1E90A0" opacity="0.08"/>
  <path d="M 0 450 Q 250 420 500 450 T 1000 450 T 1200 450 L 1200 630 L 0 630 Z" fill="#4FD1C5" opacity="0.05"/>

  <!-- Caviar roe particles -->
  <circle cx="819.2129806563167" cy="509.70891700431844" r="2.887066053407577" fill="#CFAE58" opacity="0.24939369623366192"/>
  <circle cx="194.23669839116266" cy="363.22119204400207" r="3.1330742583652387" fill="#CFAE58" opacity="0.1866610876037559"/>
  <circle cx="711.6048287672226" cy="579.9387525808093" r="3.1309119240005754" fill="#CFAE58" opacity="0.10631073105993749"/>
  <circle cx="78.67946462335564" cy="93.61380073224896" r="2.7033963720800074" fill="#CFAE58" opacity="0.12943113249773328"/>
  <circle cx="797.4370061195663" cy="336.26186498144625" r="3.986489470347878" fill="#CFAE58" opacity="0.16953842350107948"/>
  <circle cx="461.8946196663475" cy="285.74492773974043" r="3.7870628326934233" fill="#CFAE58" opacity="0.18319825314056798"/>
  <circle cx="404.83941994441597" cy="324.62147441670544" r="3.3347318188249373" fill="#CFAE58" opacity="0.10309317399037772"/>
  <circle cx="171.5188201901726" cy="576.7445100449861" r="5.9446631423060765" fill="#CFAE58" opacity="0.20869912540059182"/>
  <circle cx="76.15445715236046" cy="150.700053708943" r="4.8624551784146135" fill="#CFAE58" opacity="0.17441715521703066"/>
  <circle cx="164.95641489368933" cy="415.1163985726076" r="2.450533671855594" fill="#CFAE58" opacity="0.13991359363298178"/>
  <circle cx="704.1429245772447" cy="355.928426234469" r="2.9205599957820154" fill="#CFAE58" opacity="0.13075513156690757"/>
  <circle cx="943.3331651598355" cy="214.30048217751587" r="3.932873676751912" fill="#CFAE58" opacity="0.2383739069477819"/>
  <circle cx="847.2896773542627" cy="10.602831604562073" r="5.184016457359187" fill="#CFAE58" opacity="0.14354803305015554"/>
  <circle cx="33.13343889299878" cy="591.7186135767024" r="4.66816347397296" fill="#CFAE58" opacity="0.11502169839126233"/>
  <circle cx="1062.0203476050376" cy="395.1745588245316" r="2.194169190546223" fill="#CFAE58" opacity="0.10297792548704587"/>
  <circle cx="728.9051871913415" cy="71.63248580349116" r="3.7573118025020724" fill="#CFAE58" opacity="0.1949369813840326"/>
  <circle cx="253.08707778350487" cy="19.449619608988193" r="4.873523008059945" fill="#CFAE58" opacity="0.1920618029162352"/>
  <circle cx="728.2970944340269" cy="503.463501828805" r="3.5302191789192334" fill="#CFAE58" opacity="0.13671634037659694"/>
  <circle cx="634.8220602617971" cy="306.0589571334433" r="4.337280002698076" fill="#CFAE58" opacity="0.16908674138542568"/>
  <circle cx="478.4322059303757" cy="357.9938210439545" r="2.8831070958120795" fill="#CFAE58" opacity="0.1915003814153792"/>
  <circle cx="1005.0553963158794" cy="336.67723045258674" r="3.975737632876312" fill="#CFAE58" opacity="0.248614729227362"/>
  <circle cx="540.8155831841586" cy="507.96071039930376" r="3.703136831922234" fill="#CFAE58" opacity="0.10702775702269406"/>
  <circle cx="590.6590601421817" cy="206.76599903443235" r="4.763303091493706" fill="#CFAE58" opacity="0.1736467110991214"/>
  <circle cx="1126.1138305082127" cy="133.10885091800773" r="3.2704585034313487" fill="#CFAE58" opacity="0.14967084887508925"/>
  <circle cx="679.0036839376082" cy="372.36778760211956" r="4.060623415660803" fill="#CFAE58" opacity="0.1658567677807894"/>
  <circle cx="394.2072851274416" cy="473.3304681199444" r="3.8758968939101033" fill="#CFAE58" opacity="0.16575427858941832"/>
  <circle cx="69.3607846161079" cy="2.449183485414459" r="4.73444587216314" fill="#CFAE58" opacity="0.11527082998809385"/>
  <circle cx="1102.8249790653838" cy="607.8185950511644" r="5.808834520136758" fill="#CFAE58" opacity="0.23092249964671308"/>
  <circle cx="1011.9190666780122" cy="80.98188872290099" r="4.568226492656338" fill="#CFAE58" opacity="0.1279530823467324"/>
  <circle cx="1092.6536159240707" cy="359.9960230497213" r="3.617222362790069" fill="#CFAE58" opacity="0.1861710501029577"/>

  <!-- Border with glow -->
  <rect x="40" y="40" width="1120" height="550" fill="none" stroke="url(#goldGradient)" stroke-width="3" rx="12" filter="url(#softGlow)"/>

  <!-- Icon circle with premium background -->
  <circle cx="150" cy="200" r="75" fill="#CFAE58" opacity="0.15" filter="url(#softGlow)"/>
  <circle cx="150" cy="200" r="70" fill="#CFAE58" opacity="0.25"/>
  <text x="150" y="235" font-size="90" text-anchor="middle" fill="#CFAE58" filter="url(#glow)">🚚</text>

  <!-- Premium logo (crown) with enhanced styling -->
  <g transform="translate(100, 70)">
    <path d="M 30 20 L 40 35 L 35 35 Z M 50 15 L 60 35 L 45 35 Z M 65 20 L 75 35 L 70 35 Z M 30 35 L 75 35 L 73 45 L 32 45 Z"
          fill="url(#goldGradient)" filter="url(#glow)" stroke="#B89842" stroke-width="0.5"/>
    <circle cx="40" cy="25" r="3" fill="#4FD1C5" filter="url(#glow)"/>
    <circle cx="52" cy="20" r="4" fill="#4FD1C5" filter="url(#glow)"/>
    <circle cx="65" cy="25" r="3" fill="#4FD1C5" filter="url(#glow)"/>
  </g>

  <!-- Title with shadow -->
  <text x="280" y="180" font-family="Georgia, serif" font-size="72" font-weight="bold"
        fill="url(#goldGradient)" filter="url(#shadow)">Logistics Partners</text>

  <!-- Subtitle with subtle glow -->
  <text x="280" y="230" font-family="Arial, sans-serif" font-size="36"
        fill="#D6DEE6" opacity="0.95" filter="url(#softGlow)">Reliable Delivery Across Russia</text>

  <!-- Brand name with letter spacing -->
  <text x="280" y="300" font-family="Georgia, serif" font-size="32" font-weight="bold"
        fill="#CFAE58" letter-spacing="4" filter="url(#glow)">ROYAL KETA</text>

  <!-- Russian tagline -->
  <text x="280" y="340" font-family="Arial, sans-serif" font-size="22" font-style="italic"
        fill="#8B95A1" opacity="0.8">От икринки к королевской</text>

  <!-- Location -->
  <text x="280" y="380" font-family="Arial, sans-serif" font-size="20"
        fill="#8B95A1" opacity="0.7">Невельский район, Сахалин</text>

  <!-- Website with glow -->
  <text x="100" y="570" font-family="Arial, sans-serif" font-size="30" font-weight="bold"
        fill="#4FD1C5" filter="url(#glow)">royalketa.com</text>

  <!-- Enhanced decorative salmon silhouette -->
  <g transform="translate(950, 480)" opacity="0.2" filter="url(#softGlow)">
    <ellipse cx="0" cy="0" rx="90" ry="35" fill="#CFAE58"/>
    <path d="M 90 0 L 120 -18 L 130 0 L 120 18 Z" fill="#CFAE58"/>
    <path d="M -25 -35 L 0 -45 L 25 -35 Z" fill="#CFAE58"/>
    <ellipse cx="-50" cy="0" rx="15" ry="12" fill="#0B0F14"/>
  </g>

  <!-- Additional decorative caviar clusters -->
  <g opacity="0.2">
    <circle cx="1050" cy="120" r="6" fill="#CFAE58"/>
    <circle cx="1065" cy="115" r="5" fill="#CFAE58"/>
    <circle cx="1058" cy="130" r="4" fill="#CFAE58"/>
    <circle cx="150" cy="500" r="5" fill="#4FD1C5"/>
    <circle cx="165" cy="508" r="4" fill="#4FD1C5"/>
    <circle cx="140" cy="512" r="5" fill="#4FD1C5"/>
  </g>
</svg>