<svg width="1200" height="630" xmlns="http://www.w3.org/2000/svg">
  <defs>
    <linearGradient id="bgGradient" x1="0%" y1="0%" x2="100%" y2="100%">
      <stop offset="0%" style="stop-color:#0B0F14;stop-opacity:1" />
      <stop offset="50%" style="stop-color:#0F1619;stop-opacity:1" />
      <stop offset="100%" style="stop-color:#0F1922;stop-opacity:1" />
    </linearGradient>
    <linearGradient id="goldGradient" x1="0%" y1="0%" x2="100%" y2="0%">
      <stop offset="0%" style="stop-color:#E5D596;stop-opacity:1" />
      <stop offset="50%" style="stop-color:#CFAE58;stop-opacity:1" />
      <stop offset="100%" style="stop-color:#B89842;stop-opacity:1" />
    </linearGradient>
    <radialGradient id="oceanGradient" cx="50%" cy="50%" r="50%">
      <stop offset="0%" style="stop-color:#4FD1C5;stop-opacity:0.3" />
      <stop offset="100%" style="stop-color:#1E90A0;stop-opacity:0.05" />
    </radialGradient>
    <filter id="glow">
      <feGaussianBlur stdDeviation="5" result="coloredBlur"/>
      <feMerge>
        <feMergeNode in="coloredBlur"/>
        <feMergeNode in="SourceGraphic"/>
      </feMerge>
    </filter>
    <filter id="softGlow">
      <feGaussianBlur stdDeviation="8" result="coloredBlur"/>
      <feMerge>
        <feMergeNode in="coloredBlur"/>
        <feMergeNode in="SourceGraphic"/>
      </feMerge>
    </filter>
    <filter id="shadow">
      <feDropShadow dx="0" dy="4" stdDeviation="8" flood-color="#000000" flood-opacity="0.5"/>
    </filter>
  </defs>

  <!-- Background -->
  <rect width="1200" height="630" fill="url(#bgGradient)"/>

  <!-- Decorative ocean gradients -->
  <ellipse cx="1000" cy="150" rx="300" ry="200" fill="url(#oceanGradient)" opacity="0.4"/>
  <ellipse cx="200" cy="530" rx="250" ry="180" fill="url(#oceanGradient)" opacity="0.3"/>

  <!-- Wave patterns -->
  <path d="M 0 400 Q 300 350 600 400 T 1200 400 L 1200 630 L 0 630 Z" fill="#1E90A0" opacity="0.08"/>
  <path d="M 0 450 Q 250 420 500 450 T 1000 450 T 1200 450 L 1200 630 L 0 630 Z" fill="#4FD1C5" opacity="0.05"/>

  <!-- Caviar roe particles -->
  <circle cx="981.3823782807374" cy="124.40751360081693" r="2.364767530068616" fill="#CFAE58" opacity="0.20923020167355827"/>
  <circle cx="987.3236415377556" cy="298.50493468363595" r="4.981500665174653" fill="#CFAE58" opacity="0.24415287721907242"/>
  <circle cx="502.5946341057336" cy="512.7368915631754" r="4.3416982567853495" fill="#CFAE58" opacity="0.21778093961893805"/>
  <circle cx="793.0483761870016" cy="39.26688614454746" r="4.923897322228708" fill="#CFAE58" opacity="0.24361922604408562"/>
  <circle cx="1188.9483978593798" cy="428.3896517946496" r="4.489753151190492" fill="#CFAE58" opacity="0.15319777881988922"/>
  <circle cx="207.24419298114398" cy="457.8643613282377" r="4.4273476849934745" fill="#CFAE58" opacity="0.21198077115362202"/>
  <circle cx="233.16236770192802" cy="146.76521962491938" r="5.114915276443123" fill="#CFAE58" opacity="0.12940989985015655"/>
  <circle cx="7.772963920518627" cy="537.8235094044502" r="5.202897116308284" fill="#CFAE58" opacity="0.15999142118388796"/>
  <circle cx="515.7516287408964" cy="41.90637586843947" r="2.9877048734854457" fill="#CFAE58" opacity="0.20085450127275026"/>
  <circle cx="1109.2630146237768" cy="499.4272089887536" r="5.350824326556138" fill="#CFAE58" opacity="0.23605249445121082"/>
  <circle cx="206.59633706786042" cy="278.61928888065216" r="5.204864770590543" fill="#CFAE58" opacity="0.12767152025402945"/>
  <circle cx="803.5462312141493" cy="486.27722882397217" r="2.745369079067582" fill="#CFAE58" opacity="0.18612926254219164"/>
  <circle cx="761.2993414348192" cy="585.5171626874913" r="3.1101575056766935" fill="#CFAE58" opacity="0.11243192701432714"/>
  <circle cx="275.99021095336377" cy="23.685257937452207" r="2.129362216626797" fill="#CFAE58" opacity="0.22191474710979914"/>
  <circle cx="823.698444626579" cy="505.5220365426756" r="3.9216995689701797" fill="#CFAE58" opacity="0.16023009093679738"/>
  <circle cx="1170.0136037606997" cy="234.5618417865813" r="2.6199586417569725" fill="#CFAE58" opacity="0.23552207274240947"/>
  <circle cx="46.31521013962363" cy="335.5107967215289" r="4.061691288416387" fill="#CFAE58" opacity="0.1910634916836082"/>
  <circle cx="486.3041634575298" cy="295.53904613517767" r="2.7591362879365526" fill="#CFAE58" opacity="0.2455895487904099"/>
  <circle cx="256.93731209523094" cy="615.1290233420347" r="2.5697807880503634" fill="#CFAE58" opacity="0.22851166176743845"/>
  <circle cx="1022.142812515189" cy="125.58600829421417" r="5.754443692612556" fill="#CFAE58" opacity="0.1921536094059897"/>
  <circle cx="284.4925860395779" cy="128.4972856685218" r="2.9899951067927093" fill="#CFAE58" opacity="0.22474018704630855"/>
  <circle cx="983.7022630838613" cy="257.74628514266993" r="2.0360244422413256" fill="#CFAE58" opacity="0.16140985504505864"/>
  <circle cx="803.6385666252754" cy="3.8822219195164154" r="3.787490771187173" fill="#CFAE58" opacity="0.19208266615087555"/>
  <circle cx="468.3711361136455" cy="566.1348940034625" r="2.3733404018251676" fill="#CFAE58" opacity="0.22494268078569382"/>
  <circle cx="50.50969524328597" cy="213.78285296107228" r="3.6391168627832347" fill="#CFAE58" opacity="0.15682816571345692"/>
  <circle cx="575.6307289967264" cy="18.13620477150242" r="2.8965875002482617" fill="#CFAE58" opacity="0.141247447790996"/>
  <circle cx="855.3795986806659" cy="492.11316556522354" r="4.8448728463934145" fill="#CFAE58" opacity="0.16524210786665672"/>
  <circle cx="480.65625415294824" cy="620.594015762955" r="5.93890066201161" fill="#CFAE58" opacity="0.19166525501923057"/>
  <circle cx="769.5773744725022" cy="199.76149552805919" r="4.243816604107486" fill="#CFAE58" opacity="0.13689380066400494"/>
  <circle cx="472.4731685504832" cy="276.9567936798369" r="4.038466256518828" fill="#CFAE58" opacity="0.14168967682782274"/>

  <!-- Border with glow -->
  <rect x="40" y="40" width="1120" height="550" fill="none" stroke="url(#goldGradient)" stroke-width="3" rx="12" filter="url(#softGlow)"/>

  <!-- Icon circle with premium background -->
  <circle cx="150" cy="200" r="75" fill="#CFAE58" opacity="0.15" filter="url(#softGlow)"/>
  <circle cx="150" cy="200" r="70" fill="#CFAE58" opacity="0.25"/>
  <text x="150" y="235" font-size="90" text-anchor="middle" fill="#CFAE58" filter="url(#glow)">🚚</text>

  <!-- Premium logo (crown) with enhanced styling -->
  <g transform="translate(100, 70)">
    <path d="M 30 20 L 40 35 L 35 35 Z M 50 15 L 60 35 L 45 35 Z M 65 20 L 75 35 L 70 35 Z M 30 35 L 75 35 L 73 45 L 32 45 Z"
          fill="url(#goldGradient)" filter="url(#glow)" stroke="#B89842" stroke-width="0.5"/>
    <circle cx="40" cy="25" r="3" fill="#4FD1C5" filter="url(#glow)"/>
    <circle cx="52" cy="20" r="4" fill="#4FD1C5" filter="url(#glow)"/>
    <circle cx="65" cy="25" r="3" fill="#4FD1C5" filter="url(#glow)"/>
  </g>

  <!-- Title with shadow -->
  <text x="280" y="180" font-family="Georgia, serif" font-size="72" font-weight="bold"
        fill="url(#goldGradient)" filter="url(#shadow)">Logistics Partners</text>

  <!-- Subtitle with subtle glow -->
  <text x="280" y="230" font-family="Arial, sans-serif" font-size="36"
        fill="#D6DEE6" opacity="0.95" filter="url(#softGlow)">Reliable Delivery Across Russia</text>

  <!-- Brand name with letter spacing -->
  <text x="280" y="300" font-family="Georgia, serif" font-size="32" font-weight="bold"
        fill="#CFAE58" letter-spacing="4" filter="url(#glow)">ROYAL KETA</text>

  <!-- Russian tagline -->
  <text x="280" y="340" font-family="Arial, sans-serif" font-size="22" font-style="italic"
        fill="#8B95A1" opacity="0.8">От икринки к королевской</text>

  <!-- Location -->
  <text x="280" y="380" font-family="Arial, sans-serif" font-size="20"
        fill="#8B95A1" opacity="0.7">Невельский район, Сахалин</text>

  <!-- Website with glow -->
  <text x="100" y="570" font-family="Arial, sans-serif" font-size="30" font-weight="bold"
        fill="#4FD1C5" filter="url(#glow)">royalketa.com</text>

  <!-- Enhanced decorative salmon silhouette -->
  <g transform="translate(950, 480)" opacity="0.2" filter="url(#softGlow)">
    <ellipse cx="0" cy="0" rx="90" ry="35" fill="#CFAE58"/>
    <path d="M 90 0 L 120 -18 L 130 0 L 120 18 Z" fill="#CFAE58"/>
    <path d="M -25 -35 L 0 -45 L 25 -35 Z" fill="#CFAE58"/>
    <ellipse cx="-50" cy="0" rx="15" ry="12" fill="#0B0F14"/>
  </g>

  <!-- Additional decorative caviar clusters -->
  <g opacity="0.2">
    <circle cx="1050" cy="120" r="6" fill="#CFAE58"/>
    <circle cx="1065" cy="115" r="5" fill="#CFAE58"/>
    <circle cx="1058" cy="130" r="4" fill="#CFAE58"/>
    <circle cx="150" cy="500" r="5" fill="#4FD1C5"/>
    <circle cx="165" cy="508" r="4" fill="#4FD1C5"/>
    <circle cx="140" cy="512" r="5" fill="#4FD1C5"/>
  </g>
</svg>