<svg width="1200" height="630" xmlns="http://www.w3.org/2000/svg">
  <defs>
    <linearGradient id="bgGradient" x1="0%" y1="0%" x2="100%" y2="100%">
      <stop offset="0%" style="stop-color:#0B0F14;stop-opacity:1" />
      <stop offset="50%" style="stop-color:#0F1619;stop-opacity:1" />
      <stop offset="100%" style="stop-color:#0F1922;stop-opacity:1" />
    </linearGradient>
    <linearGradient id="goldGradient" x1="0%" y1="0%" x2="100%" y2="0%">
      <stop offset="0%" style="stop-color:#E5D596;stop-opacity:1" />
      <stop offset="50%" style="stop-color:#CFAE58;stop-opacity:1" />
      <stop offset="100%" style="stop-color:#B89842;stop-opacity:1" />
    </linearGradient>
    <radialGradient id="oceanGradient" cx="50%" cy="50%" r="50%">
      <stop offset="0%" style="stop-color:#4FD1C5;stop-opacity:0.3" />
      <stop offset="100%" style="stop-color:#1E90A0;stop-opacity:0.05" />
    </radialGradient>
    <filter id="glow">
      <feGaussianBlur stdDeviation="5" result="coloredBlur"/>
      <feMerge>
        <feMergeNode in="coloredBlur"/>
        <feMergeNode in="SourceGraphic"/>
      </feMerge>
    </filter>
    <filter id="softGlow">
      <feGaussianBlur stdDeviation="8" result="coloredBlur"/>
      <feMerge>
        <feMergeNode in="coloredBlur"/>
        <feMergeNode in="SourceGraphic"/>
      </feMerge>
    </filter>
    <filter id="shadow">
      <feDropShadow dx="0" dy="4" stdDeviation="8" flood-color="#000000" flood-opacity="0.5"/>
    </filter>
  </defs>

  <!-- Background -->
  <rect width="1200" height="630" fill="url(#bgGradient)"/>

  <!-- Decorative ocean gradients -->
  <ellipse cx="1000" cy="150" rx="300" ry="200" fill="url(#oceanGradient)" opacity="0.4"/>
  <ellipse cx="200" cy="530" rx="250" ry="180" fill="url(#oceanGradient)" opacity="0.3"/>

  <!-- Wave patterns -->
  <path d="M 0 400 Q 300 350 600 400 T 1200 400 L 1200 630 L 0 630 Z" fill="#1E90A0" opacity="0.08"/>
  <path d="M 0 450 Q 250 420 500 450 T 1000 450 T 1200 450 L 1200 630 L 0 630 Z" fill="#4FD1C5" opacity="0.05"/>

  <!-- Caviar roe particles -->
  <circle cx="349.75817513657546" cy="533.7486564850486" r="5.666383014703179" fill="#CFAE58" opacity="0.1777755447879325"/>
  <circle cx="152.40201573846696" cy="127.28792105900959" r="5.376154801174428" fill="#CFAE58" opacity="0.11020626985135423"/>
  <circle cx="888.373869464006" cy="105.52910684551192" r="3.7603907134529653" fill="#CFAE58" opacity="0.22744558182015628"/>
  <circle cx="513.9565612524724" cy="340.4670564857938" r="5.199923595807562" fill="#CFAE58" opacity="0.1679802333884004"/>
  <circle cx="422.09614073533044" cy="163.77471650442882" r="3.7386696185492845" fill="#CFAE58" opacity="0.1602852814246884"/>
  <circle cx="443.31870184026434" cy="108.00097562899693" r="4.335615098558548" fill="#CFAE58" opacity="0.20248783345642068"/>
  <circle cx="190.53269506238286" cy="17.846340844208004" r="2.909386675504123" fill="#CFAE58" opacity="0.10801063521163953"/>
  <circle cx="851.8257391440543" cy="115.79110406692199" r="3.2840646665603375" fill="#CFAE58" opacity="0.2094803651782936"/>
  <circle cx="335.8599099904216" cy="121.45426536333032" r="4.757373702747291" fill="#CFAE58" opacity="0.16640183816973264"/>
  <circle cx="755.7160914378427" cy="224.29562840853066" r="3.120798941054423" fill="#CFAE58" opacity="0.10891813177054824"/>
  <circle cx="723.2731566630325" cy="139.63632436777095" r="4.302282902711622" fill="#CFAE58" opacity="0.1704337685242222"/>
  <circle cx="792.0127292739458" cy="332.28058648337475" r="4.909586708565906" fill="#CFAE58" opacity="0.24656703670676883"/>
  <circle cx="815.850581668445" cy="125.41914739081274" r="4.954284254288016" fill="#CFAE58" opacity="0.15705326674939415"/>
  <circle cx="1197.303648551024" cy="110.85677040392598" r="3.67452703658135" fill="#CFAE58" opacity="0.16167325112377773"/>
  <circle cx="236.37831510735373" cy="56.73932163261112" r="3.605162746926532" fill="#CFAE58" opacity="0.2020333744300722"/>
  <circle cx="840.0087093924951" cy="546.0712581710811" r="4.816432883196843" fill="#CFAE58" opacity="0.15919279544340997"/>
  <circle cx="766.9849560701317" cy="44.47560465742241" r="2.939183975735505" fill="#CFAE58" opacity="0.235652806531254"/>
  <circle cx="443.6418801007146" cy="2.9771665325399663" r="3.6781197580789877" fill="#CFAE58" opacity="0.1735870139513715"/>
  <circle cx="922.2450001008996" cy="200.9981599108866" r="3.391614340262363" fill="#CFAE58" opacity="0.20487785448232515"/>
  <circle cx="1176.5881156133025" cy="261.49504756524465" r="2.7384933196042205" fill="#CFAE58" opacity="0.12890942909355446"/>
  <circle cx="1081.169839595231" cy="149.16436426200164" r="5.314828898968163" fill="#CFAE58" opacity="0.24851518425657082"/>
  <circle cx="318.36868527972047" cy="226.801202048427" r="5.894629430983888" fill="#CFAE58" opacity="0.20649473187457795"/>
  <circle cx="381.0725378564347" cy="249.96986957762024" r="2.181306003142174" fill="#CFAE58" opacity="0.17216161637435368"/>
  <circle cx="143.0658002676817" cy="580.9404312205736" r="3.8885662747488725" fill="#CFAE58" opacity="0.16018159891116027"/>
  <circle cx="827.7447992659033" cy="556.3547169094467" r="2.7099454401283576" fill="#CFAE58" opacity="0.1719758935504761"/>
  <circle cx="27.392481136845426" cy="329.80309877377886" r="4.436847254874598" fill="#CFAE58" opacity="0.10272430358333065"/>
  <circle cx="620.6510219008318" cy="312.1670073646021" r="3.0189756071777647" fill="#CFAE58" opacity="0.16211376194360813"/>
  <circle cx="47.541779880931266" cy="241.0532146118957" r="2.0258500174418654" fill="#CFAE58" opacity="0.11447385201963206"/>
  <circle cx="397.3291832065074" cy="71.90028429317225" r="4.084834956751575" fill="#CFAE58" opacity="0.2265394922125271"/>
  <circle cx="971.2777541990641" cy="27.2242771112751" r="5.009390839819758" fill="#CFAE58" opacity="0.21776871705341477"/>

  <!-- Border with glow -->
  <rect x="40" y="40" width="1120" height="550" fill="none" stroke="url(#goldGradient)" stroke-width="3" rx="12" filter="url(#softGlow)"/>

  <!-- Icon circle with premium background -->
  <circle cx="150" cy="200" r="75" fill="#CFAE58" opacity="0.15" filter="url(#softGlow)"/>
  <circle cx="150" cy="200" r="70" fill="#CFAE58" opacity="0.25"/>
  <text x="150" y="235" font-size="90" text-anchor="middle" fill="#CFAE58" filter="url(#glow)">🚚</text>

  <!-- Premium logo (crown) with enhanced styling -->
  <g transform="translate(100, 70)">
    <path d="M 30 20 L 40 35 L 35 35 Z M 50 15 L 60 35 L 45 35 Z M 65 20 L 75 35 L 70 35 Z M 30 35 L 75 35 L 73 45 L 32 45 Z"
          fill="url(#goldGradient)" filter="url(#glow)" stroke="#B89842" stroke-width="0.5"/>
    <circle cx="40" cy="25" r="3" fill="#4FD1C5" filter="url(#glow)"/>
    <circle cx="52" cy="20" r="4" fill="#4FD1C5" filter="url(#glow)"/>
    <circle cx="65" cy="25" r="3" fill="#4FD1C5" filter="url(#glow)"/>
  </g>

  <!-- Title with shadow -->
  <text x="280" y="180" font-family="Georgia, serif" font-size="72" font-weight="bold"
        fill="url(#goldGradient)" filter="url(#shadow)">Logistics Partners</text>

  <!-- Subtitle with subtle glow -->
  <text x="280" y="230" font-family="Arial, sans-serif" font-size="36"
        fill="#D6DEE6" opacity="0.95" filter="url(#softGlow)">Reliable Delivery Across Russia</text>

  <!-- Brand name with letter spacing -->
  <text x="280" y="300" font-family="Georgia, serif" font-size="32" font-weight="bold"
        fill="#CFAE58" letter-spacing="4" filter="url(#glow)">ROYAL KETA</text>

  <!-- Russian tagline -->
  <text x="280" y="340" font-family="Arial, sans-serif" font-size="22" font-style="italic"
        fill="#8B95A1" opacity="0.8">От икринки к королевской</text>

  <!-- Location -->
  <text x="280" y="380" font-family="Arial, sans-serif" font-size="20"
        fill="#8B95A1" opacity="0.7">Невельский район, Сахалин</text>

  <!-- Website with glow -->
  <text x="100" y="570" font-family="Arial, sans-serif" font-size="30" font-weight="bold"
        fill="#4FD1C5" filter="url(#glow)">royalketa.com</text>

  <!-- Enhanced decorative salmon silhouette -->
  <g transform="translate(950, 480)" opacity="0.2" filter="url(#softGlow)">
    <ellipse cx="0" cy="0" rx="90" ry="35" fill="#CFAE58"/>
    <path d="M 90 0 L 120 -18 L 130 0 L 120 18 Z" fill="#CFAE58"/>
    <path d="M -25 -35 L 0 -45 L 25 -35 Z" fill="#CFAE58"/>
    <ellipse cx="-50" cy="0" rx="15" ry="12" fill="#0B0F14"/>
  </g>

  <!-- Additional decorative caviar clusters -->
  <g opacity="0.2">
    <circle cx="1050" cy="120" r="6" fill="#CFAE58"/>
    <circle cx="1065" cy="115" r="5" fill="#CFAE58"/>
    <circle cx="1058" cy="130" r="4" fill="#CFAE58"/>
    <circle cx="150" cy="500" r="5" fill="#4FD1C5"/>
    <circle cx="165" cy="508" r="4" fill="#4FD1C5"/>
    <circle cx="140" cy="512" r="5" fill="#4FD1C5"/>
  </g>
</svg>