<svg width="1200" height="630" xmlns="http://www.w3.org/2000/svg">
  <defs>
    <linearGradient id="bgGradient" x1="0%" y1="0%" x2="100%" y2="100%">
      <stop offset="0%" style="stop-color:#0B0F14;stop-opacity:1" />
      <stop offset="50%" style="stop-color:#0F1619;stop-opacity:1" />
      <stop offset="100%" style="stop-color:#0F1922;stop-opacity:1" />
    </linearGradient>
    <linearGradient id="goldGradient" x1="0%" y1="0%" x2="100%" y2="0%">
      <stop offset="0%" style="stop-color:#E5D596;stop-opacity:1" />
      <stop offset="50%" style="stop-color:#CFAE58;stop-opacity:1" />
      <stop offset="100%" style="stop-color:#B89842;stop-opacity:1" />
    </linearGradient>
    <radialGradient id="oceanGradient" cx="50%" cy="50%" r="50%">
      <stop offset="0%" style="stop-color:#4FD1C5;stop-opacity:0.3" />
      <stop offset="100%" style="stop-color:#1E90A0;stop-opacity:0.05" />
    </radialGradient>
    <filter id="glow">
      <feGaussianBlur stdDeviation="5" result="coloredBlur"/>
      <feMerge>
        <feMergeNode in="coloredBlur"/>
        <feMergeNode in="SourceGraphic"/>
      </feMerge>
    </filter>
    <filter id="softGlow">
      <feGaussianBlur stdDeviation="8" result="coloredBlur"/>
      <feMerge>
        <feMergeNode in="coloredBlur"/>
        <feMergeNode in="SourceGraphic"/>
      </feMerge>
    </filter>
    <filter id="shadow">
      <feDropShadow dx="0" dy="4" stdDeviation="8" flood-color="#000000" flood-opacity="0.5"/>
    </filter>
  </defs>

  <!-- Background -->
  <rect width="1200" height="630" fill="url(#bgGradient)"/>

  <!-- Decorative ocean gradients -->
  <ellipse cx="1000" cy="150" rx="300" ry="200" fill="url(#oceanGradient)" opacity="0.4"/>
  <ellipse cx="200" cy="530" rx="250" ry="180" fill="url(#oceanGradient)" opacity="0.3"/>

  <!-- Wave patterns -->
  <path d="M 0 400 Q 300 350 600 400 T 1200 400 L 1200 630 L 0 630 Z" fill="#1E90A0" opacity="0.08"/>
  <path d="M 0 450 Q 250 420 500 450 T 1000 450 T 1200 450 L 1200 630 L 0 630 Z" fill="#4FD1C5" opacity="0.05"/>

  <!-- Caviar roe particles -->
  <circle cx="1003.1850076726948" cy="87.23506722730531" r="2.9797262172378476" fill="#CFAE58" opacity="0.13657097469569873"/>
  <circle cx="596.9519373966872" cy="588.5979769822329" r="2.8041976150351187" fill="#CFAE58" opacity="0.23185552190904515"/>
  <circle cx="109.01881749523187" cy="192.81204378238004" r="3.072438295423136" fill="#CFAE58" opacity="0.14814835811335875"/>
  <circle cx="1012.3520501744879" cy="485.5450605096097" r="2.1634073719588502" fill="#CFAE58" opacity="0.1414370275219592"/>
  <circle cx="859.1252778892677" cy="313.86427647924813" r="4.362644374338691" fill="#CFAE58" opacity="0.1873188047013398"/>
  <circle cx="702.0340338170655" cy="534.5250316133862" r="4.177363767590958" fill="#CFAE58" opacity="0.2045675255434179"/>
  <circle cx="1078.8608366795524" cy="234.70057691085844" r="2.268139675954965" fill="#CFAE58" opacity="0.16579670148696765"/>
  <circle cx="1144.1590667447201" cy="395.82011817968987" r="5.9536202732213175" fill="#CFAE58" opacity="0.1900104600182888"/>
  <circle cx="396.63994612888723" cy="592.2440638268253" r="2.593936209035042" fill="#CFAE58" opacity="0.16555448872665648"/>
  <circle cx="775.0172030392372" cy="211.33335496501104" r="5.287130897562262" fill="#CFAE58" opacity="0.18644364616117026"/>
  <circle cx="642.0469931091858" cy="36.730595004247064" r="5.828237271090424" fill="#CFAE58" opacity="0.2350412508646996"/>
  <circle cx="907.1761356630786" cy="223.09249263662048" r="3.5185069927236774" fill="#CFAE58" opacity="0.20552015115629535"/>
  <circle cx="808.9306962226991" cy="234.68127013144098" r="4.649017978978533" fill="#CFAE58" opacity="0.11443865176589914"/>
  <circle cx="1173.0705205862882" cy="550.3765083235942" r="4.722708962193089" fill="#CFAE58" opacity="0.14491427372630575"/>
  <circle cx="863.8530284240521" cy="381.0301817967317" r="5.86556855956123" fill="#CFAE58" opacity="0.11645745236812827"/>
  <circle cx="382.72658298083826" cy="253.7602347173879" r="5.11682936876791" fill="#CFAE58" opacity="0.2122444413579624"/>
  <circle cx="1102.3502221823999" cy="511.3331857496858" r="5.305862887762195" fill="#CFAE58" opacity="0.1436759890199174"/>
  <circle cx="583.5143417416937" cy="331.99687759576324" r="3.0496486308893136" fill="#CFAE58" opacity="0.1626938584652639"/>
  <circle cx="906.9637168281735" cy="263.62986374751546" r="3.012601335666565" fill="#CFAE58" opacity="0.23548568725803934"/>
  <circle cx="412.21345962163485" cy="104.98867987926884" r="3.549616393559981" fill="#CFAE58" opacity="0.24846605729958005"/>
  <circle cx="813.3736899771591" cy="386.2544443835762" r="4.726488409677369" fill="#CFAE58" opacity="0.10985744239379494"/>
  <circle cx="979.8437742389207" cy="329.2529246214354" r="2.1674663395810017" fill="#CFAE58" opacity="0.12695932324266662"/>
  <circle cx="540.5192389973507" cy="46.762641990060004" r="2.03375691622332" fill="#CFAE58" opacity="0.1509718647107749"/>
  <circle cx="872.140350297672" cy="498.5336177961381" r="4.224088189753049" fill="#CFAE58" opacity="0.11888937463507492"/>
  <circle cx="318.4224025474391" cy="440.12996130428877" r="2.399007277094117" fill="#CFAE58" opacity="0.18080061916622897"/>
  <circle cx="519.9738971018446" cy="535.6066780401671" r="5.418359483701772" fill="#CFAE58" opacity="0.17740621917008442"/>
  <circle cx="736.6857670026471" cy="433.1591458750655" r="3.862221885515363" fill="#CFAE58" opacity="0.21524643922531908"/>
  <circle cx="149.06582923859526" cy="63.40577232436215" r="2.705346664728993" fill="#CFAE58" opacity="0.1796020752218611"/>
  <circle cx="1168.5611890960902" cy="505.3769606288582" r="2.716557073952697" fill="#CFAE58" opacity="0.22694550548819517"/>
  <circle cx="234.88995250473806" cy="571.6419562402499" r="4.32822432989343" fill="#CFAE58" opacity="0.1580044708945097"/>

  <!-- Border with glow -->
  <rect x="40" y="40" width="1120" height="550" fill="none" stroke="url(#goldGradient)" stroke-width="3" rx="12" filter="url(#softGlow)"/>

  <!-- Icon circle with premium background -->
  <circle cx="150" cy="200" r="75" fill="#CFAE58" opacity="0.15" filter="url(#softGlow)"/>
  <circle cx="150" cy="200" r="70" fill="#CFAE58" opacity="0.25"/>
  <text x="150" y="235" font-size="90" text-anchor="middle" fill="#CFAE58" filter="url(#glow)">💰</text>

  <!-- Premium logo (crown) with enhanced styling -->
  <g transform="translate(100, 70)">
    <path d="M 30 20 L 40 35 L 35 35 Z M 50 15 L 60 35 L 45 35 Z M 65 20 L 75 35 L 70 35 Z M 30 35 L 75 35 L 73 45 L 32 45 Z"
          fill="url(#goldGradient)" filter="url(#glow)" stroke="#B89842" stroke-width="0.5"/>
    <circle cx="40" cy="25" r="3" fill="#4FD1C5" filter="url(#glow)"/>
    <circle cx="52" cy="20" r="4" fill="#4FD1C5" filter="url(#glow)"/>
    <circle cx="65" cy="25" r="3" fill="#4FD1C5" filter="url(#glow)"/>
  </g>

  <!-- Title with shadow -->
  <text x="280" y="180" font-family="Georgia, serif" font-size="72" font-weight="bold"
        fill="url(#goldGradient)" filter="url(#shadow)">Tour Pricing</text>

  <!-- Subtitle with subtle glow -->
  <text x="280" y="230" font-family="Arial, sans-serif" font-size="36"
        fill="#D6DEE6" opacity="0.95" filter="url(#softGlow)">Family, Premium &amp; Corporate Packages</text>

  <!-- Brand name with letter spacing -->
  <text x="280" y="300" font-family="Georgia, serif" font-size="32" font-weight="bold"
        fill="#CFAE58" letter-spacing="4" filter="url(#glow)">ROYAL KETA</text>

  <!-- Russian tagline -->
  <text x="280" y="340" font-family="Arial, sans-serif" font-size="22" font-style="italic"
        fill="#8B95A1" opacity="0.8">От икринки к королевской</text>

  <!-- Location -->
  <text x="280" y="380" font-family="Arial, sans-serif" font-size="20"
        fill="#8B95A1" opacity="0.7">Невельский район, Сахалин</text>

  <!-- Website with glow -->
  <text x="100" y="570" font-family="Arial, sans-serif" font-size="30" font-weight="bold"
        fill="#4FD1C5" filter="url(#glow)">royalketa.com</text>

  <!-- Enhanced decorative salmon silhouette -->
  <g transform="translate(950, 480)" opacity="0.2" filter="url(#softGlow)">
    <ellipse cx="0" cy="0" rx="90" ry="35" fill="#CFAE58"/>
    <path d="M 90 0 L 120 -18 L 130 0 L 120 18 Z" fill="#CFAE58"/>
    <path d="M -25 -35 L 0 -45 L 25 -35 Z" fill="#CFAE58"/>
    <ellipse cx="-50" cy="0" rx="15" ry="12" fill="#0B0F14"/>
  </g>

  <!-- Additional decorative caviar clusters -->
  <g opacity="0.2">
    <circle cx="1050" cy="120" r="6" fill="#CFAE58"/>
    <circle cx="1065" cy="115" r="5" fill="#CFAE58"/>
    <circle cx="1058" cy="130" r="4" fill="#CFAE58"/>
    <circle cx="150" cy="500" r="5" fill="#4FD1C5"/>
    <circle cx="165" cy="508" r="4" fill="#4FD1C5"/>
    <circle cx="140" cy="512" r="5" fill="#4FD1C5"/>
  </g>
</svg>