<svg width="1200" height="630" xmlns="http://www.w3.org/2000/svg">
  <defs>
    <linearGradient id="bgGradient" x1="0%" y1="0%" x2="100%" y2="100%">
      <stop offset="0%" style="stop-color:#0B0F14;stop-opacity:1" />
      <stop offset="50%" style="stop-color:#0F1619;stop-opacity:1" />
      <stop offset="100%" style="stop-color:#0F1922;stop-opacity:1" />
    </linearGradient>
    <linearGradient id="goldGradient" x1="0%" y1="0%" x2="100%" y2="0%">
      <stop offset="0%" style="stop-color:#E5D596;stop-opacity:1" />
      <stop offset="50%" style="stop-color:#CFAE58;stop-opacity:1" />
      <stop offset="100%" style="stop-color:#B89842;stop-opacity:1" />
    </linearGradient>
    <radialGradient id="oceanGradient" cx="50%" cy="50%" r="50%">
      <stop offset="0%" style="stop-color:#4FD1C5;stop-opacity:0.3" />
      <stop offset="100%" style="stop-color:#1E90A0;stop-opacity:0.05" />
    </radialGradient>
    <filter id="glow">
      <feGaussianBlur stdDeviation="5" result="coloredBlur"/>
      <feMerge>
        <feMergeNode in="coloredBlur"/>
        <feMergeNode in="SourceGraphic"/>
      </feMerge>
    </filter>
    <filter id="softGlow">
      <feGaussianBlur stdDeviation="8" result="coloredBlur"/>
      <feMerge>
        <feMergeNode in="coloredBlur"/>
        <feMergeNode in="SourceGraphic"/>
      </feMerge>
    </filter>
    <filter id="shadow">
      <feDropShadow dx="0" dy="4" stdDeviation="8" flood-color="#000000" flood-opacity="0.5"/>
    </filter>
  </defs>

  <!-- Background -->
  <rect width="1200" height="630" fill="url(#bgGradient)"/>

  <!-- Decorative ocean gradients -->
  <ellipse cx="1000" cy="150" rx="300" ry="200" fill="url(#oceanGradient)" opacity="0.4"/>
  <ellipse cx="200" cy="530" rx="250" ry="180" fill="url(#oceanGradient)" opacity="0.3"/>

  <!-- Wave patterns -->
  <path d="M 0 400 Q 300 350 600 400 T 1200 400 L 1200 630 L 0 630 Z" fill="#1E90A0" opacity="0.08"/>
  <path d="M 0 450 Q 250 420 500 450 T 1000 450 T 1200 450 L 1200 630 L 0 630 Z" fill="#4FD1C5" opacity="0.05"/>

  <!-- Caviar roe particles -->
  <circle cx="186.86054646840685" cy="345.4181396508071" r="4.6018719915598005" fill="#CFAE58" opacity="0.23702080419753657"/>
  <circle cx="1117.0862144289454" cy="134.44352044045976" r="4.052456072919878" fill="#CFAE58" opacity="0.2447268353993634"/>
  <circle cx="467.32136155481527" cy="157.65364570002893" r="2.728440786019471" fill="#CFAE58" opacity="0.24795191116140508"/>
  <circle cx="97.96296747865227" cy="150.5531412234125" r="2.983459992758835" fill="#CFAE58" opacity="0.15077611804851057"/>
  <circle cx="419.5143974291015" cy="285.19391365731013" r="5.328304290062254" fill="#CFAE58" opacity="0.22826145561619673"/>
  <circle cx="1033.0767383028904" cy="386.7735341948623" r="3.475297032177939" fill="#CFAE58" opacity="0.17595336904393855"/>
  <circle cx="170.03917445639897" cy="210.02322701532816" r="5.01597294226178" fill="#CFAE58" opacity="0.1248017026594218"/>
  <circle cx="667.6572411770176" cy="599.143678526521" r="2.955087304528556" fill="#CFAE58" opacity="0.21752826618682128"/>
  <circle cx="1199.6472416504027" cy="545.8377787586023" r="3.049639882615228" fill="#CFAE58" opacity="0.20548976363447208"/>
  <circle cx="739.2376064675202" cy="286.10481516362637" r="4.096651762446934" fill="#CFAE58" opacity="0.21810117186184746"/>
  <circle cx="71.73489383975307" cy="52.79448639866145" r="2.4349126851577756" fill="#CFAE58" opacity="0.19292517715561297"/>
  <circle cx="108.16777776001771" cy="223.04452772506116" r="4.932907562745061" fill="#CFAE58" opacity="0.10942331447837543"/>
  <circle cx="1010.4713362333097" cy="250.02277878787277" r="4.28318220393329" fill="#CFAE58" opacity="0.1212816803599992"/>
  <circle cx="405.87313819266654" cy="54.59472040572864" r="3.524432244079579" fill="#CFAE58" opacity="0.24573678181206907"/>
  <circle cx="1092.138926216345" cy="306.99770429122145" r="5.63387560253588" fill="#CFAE58" opacity="0.17128803600915513"/>
  <circle cx="600.6835079481007" cy="492.69137291765054" r="5.340911205395265" fill="#CFAE58" opacity="0.24929336108135056"/>
  <circle cx="989.9355367994422" cy="574.6882943265251" r="3.167667120830286" fill="#CFAE58" opacity="0.23510362396597032"/>
  <circle cx="448.8897732946409" cy="30.26444741577999" r="2.0162912952208645" fill="#CFAE58" opacity="0.13703447932699614"/>
  <circle cx="302.01651955784274" cy="205.42047722486902" r="5.6516847510640895" fill="#CFAE58" opacity="0.1099154412372211"/>
  <circle cx="674.2260164863201" cy="219.37392086391372" r="5.150824605186932" fill="#CFAE58" opacity="0.1395732907841069"/>
  <circle cx="409.62279287992766" cy="499.10782536061663" r="5.981751627233852" fill="#CFAE58" opacity="0.1189304783238605"/>
  <circle cx="571.1439590514847" cy="47.89750507673239" r="2.9944349919276796" fill="#CFAE58" opacity="0.18195936059570073"/>
  <circle cx="266.6303943730978" cy="423.47862678753944" r="5.89032097916304" fill="#CFAE58" opacity="0.18521940896442907"/>
  <circle cx="597.3897585529323" cy="594.5331594639307" r="5.049023773088656" fill="#CFAE58" opacity="0.23813159789730967"/>
  <circle cx="250.9191675683727" cy="401.5475616209228" r="3.2696703820156525" fill="#CFAE58" opacity="0.1268649495920882"/>
  <circle cx="1165.662076445791" cy="572.2801140021336" r="5.102831286755501" fill="#CFAE58" opacity="0.1842194074046649"/>
  <circle cx="791.0171817485912" cy="307.8121784313882" r="5.145502143742298" fill="#CFAE58" opacity="0.1341679731881785"/>
  <circle cx="330.92847477253525" cy="426.48966260109006" r="3.5357806861762837" fill="#CFAE58" opacity="0.153361718269354"/>
  <circle cx="330.31519017769193" cy="295.70112502428606" r="3.087090246008687" fill="#CFAE58" opacity="0.14204941055319956"/>
  <circle cx="576.2057979077592" cy="317.43891324293077" r="4.661703736114475" fill="#CFAE58" opacity="0.14711971544695107"/>

  <!-- Border with glow -->
  <rect x="40" y="40" width="1120" height="550" fill="none" stroke="url(#goldGradient)" stroke-width="3" rx="12" filter="url(#softGlow)"/>

  <!-- Icon circle with premium background -->
  <circle cx="150" cy="200" r="75" fill="#CFAE58" opacity="0.15" filter="url(#softGlow)"/>
  <circle cx="150" cy="200" r="70" fill="#CFAE58" opacity="0.25"/>
  <text x="150" y="235" font-size="90" text-anchor="middle" fill="#CFAE58" filter="url(#glow)">💰</text>

  <!-- Premium logo (crown) with enhanced styling -->
  <g transform="translate(100, 70)">
    <path d="M 30 20 L 40 35 L 35 35 Z M 50 15 L 60 35 L 45 35 Z M 65 20 L 75 35 L 70 35 Z M 30 35 L 75 35 L 73 45 L 32 45 Z"
          fill="url(#goldGradient)" filter="url(#glow)" stroke="#B89842" stroke-width="0.5"/>
    <circle cx="40" cy="25" r="3" fill="#4FD1C5" filter="url(#glow)"/>
    <circle cx="52" cy="20" r="4" fill="#4FD1C5" filter="url(#glow)"/>
    <circle cx="65" cy="25" r="3" fill="#4FD1C5" filter="url(#glow)"/>
  </g>

  <!-- Title with shadow -->
  <text x="280" y="180" font-family="Georgia, serif" font-size="72" font-weight="bold"
        fill="url(#goldGradient)" filter="url(#shadow)">Tour Pricing</text>

  <!-- Subtitle with subtle glow -->
  <text x="280" y="230" font-family="Arial, sans-serif" font-size="36"
        fill="#D6DEE6" opacity="0.95" filter="url(#softGlow)">Family, Premium & Corporate Packages</text>

  <!-- Brand name with letter spacing -->
  <text x="280" y="300" font-family="Georgia, serif" font-size="32" font-weight="bold"
        fill="#CFAE58" letter-spacing="4" filter="url(#glow)">ROYAL KETA</text>

  <!-- Russian tagline -->
  <text x="280" y="340" font-family="Arial, sans-serif" font-size="22" font-style="italic"
        fill="#8B95A1" opacity="0.8">От икринки к королевской</text>

  <!-- Location -->
  <text x="280" y="380" font-family="Arial, sans-serif" font-size="20"
        fill="#8B95A1" opacity="0.7">Невельский район, Сахалин</text>

  <!-- Website with glow -->
  <text x="100" y="570" font-family="Arial, sans-serif" font-size="30" font-weight="bold"
        fill="#4FD1C5" filter="url(#glow)">royalketa.com</text>

  <!-- Enhanced decorative salmon silhouette -->
  <g transform="translate(950, 480)" opacity="0.2" filter="url(#softGlow)">
    <ellipse cx="0" cy="0" rx="90" ry="35" fill="#CFAE58"/>
    <path d="M 90 0 L 120 -18 L 130 0 L 120 18 Z" fill="#CFAE58"/>
    <path d="M -25 -35 L 0 -45 L 25 -35 Z" fill="#CFAE58"/>
    <ellipse cx="-50" cy="0" rx="15" ry="12" fill="#0B0F14"/>
  </g>

  <!-- Additional decorative caviar clusters -->
  <g opacity="0.2">
    <circle cx="1050" cy="120" r="6" fill="#CFAE58"/>
    <circle cx="1065" cy="115" r="5" fill="#CFAE58"/>
    <circle cx="1058" cy="130" r="4" fill="#CFAE58"/>
    <circle cx="150" cy="500" r="5" fill="#4FD1C5"/>
    <circle cx="165" cy="508" r="4" fill="#4FD1C5"/>
    <circle cx="140" cy="512" r="5" fill="#4FD1C5"/>
  </g>
</svg>