<svg width="1200" height="630" xmlns="http://www.w3.org/2000/svg">
  <defs>
    <linearGradient id="bgGradient" x1="0%" y1="0%" x2="100%" y2="100%">
      <stop offset="0%" style="stop-color:#0B0F14;stop-opacity:1" />
      <stop offset="50%" style="stop-color:#0F1619;stop-opacity:1" />
      <stop offset="100%" style="stop-color:#0F1922;stop-opacity:1" />
    </linearGradient>
    <linearGradient id="goldGradient" x1="0%" y1="0%" x2="100%" y2="0%">
      <stop offset="0%" style="stop-color:#E5D596;stop-opacity:1" />
      <stop offset="50%" style="stop-color:#CFAE58;stop-opacity:1" />
      <stop offset="100%" style="stop-color:#B89842;stop-opacity:1" />
    </linearGradient>
    <radialGradient id="oceanGradient" cx="50%" cy="50%" r="50%">
      <stop offset="0%" style="stop-color:#4FD1C5;stop-opacity:0.3" />
      <stop offset="100%" style="stop-color:#1E90A0;stop-opacity:0.05" />
    </radialGradient>
    <filter id="glow">
      <feGaussianBlur stdDeviation="5" result="coloredBlur"/>
      <feMerge>
        <feMergeNode in="coloredBlur"/>
        <feMergeNode in="SourceGraphic"/>
      </feMerge>
    </filter>
    <filter id="softGlow">
      <feGaussianBlur stdDeviation="8" result="coloredBlur"/>
      <feMerge>
        <feMergeNode in="coloredBlur"/>
        <feMergeNode in="SourceGraphic"/>
      </feMerge>
    </filter>
    <filter id="shadow">
      <feDropShadow dx="0" dy="4" stdDeviation="8" flood-color="#000000" flood-opacity="0.5"/>
    </filter>
  </defs>

  <!-- Background -->
  <rect width="1200" height="630" fill="url(#bgGradient)"/>

  <!-- Decorative ocean gradients -->
  <ellipse cx="1000" cy="150" rx="300" ry="200" fill="url(#oceanGradient)" opacity="0.4"/>
  <ellipse cx="200" cy="530" rx="250" ry="180" fill="url(#oceanGradient)" opacity="0.3"/>

  <!-- Wave patterns -->
  <path d="M 0 400 Q 300 350 600 400 T 1200 400 L 1200 630 L 0 630 Z" fill="#1E90A0" opacity="0.08"/>
  <path d="M 0 450 Q 250 420 500 450 T 1000 450 T 1200 450 L 1200 630 L 0 630 Z" fill="#4FD1C5" opacity="0.05"/>

  <!-- Caviar roe particles -->
  <circle cx="885.1991067780527" cy="15.727107395667932" r="2.844472193567526" fill="#CFAE58" opacity="0.11905486105833463"/>
  <circle cx="79.71125071554015" cy="192.1952157081384" r="5.00363808710126" fill="#CFAE58" opacity="0.16545655514908025"/>
  <circle cx="1125.973659597795" cy="276.7817140317219" r="2.76473698156986" fill="#CFAE58" opacity="0.17114112781501714"/>
  <circle cx="413.5787585554727" cy="378.26495349671023" r="5.360840839505943" fill="#CFAE58" opacity="0.2357955335703857"/>
  <circle cx="111.11786184493475" cy="187.22409171928203" r="5.509655347549355" fill="#CFAE58" opacity="0.116343731579794"/>
  <circle cx="1153.8767412274215" cy="263.13973218710595" r="3.4163683771744466" fill="#CFAE58" opacity="0.13495007836673306"/>
  <circle cx="856.0609591898531" cy="342.17102586208506" r="3.8600393731672327" fill="#CFAE58" opacity="0.16079685583893133"/>
  <circle cx="1151.4309734581393" cy="62.396837787779525" r="4.8214790083787324" fill="#CFAE58" opacity="0.13789145816479192"/>
  <circle cx="798.8025238646103" cy="464.33277400515743" r="5.610887501155466" fill="#CFAE58" opacity="0.22231389063198648"/>
  <circle cx="506.2501942661552" cy="531.7496082491901" r="4.187676534186101" fill="#CFAE58" opacity="0.1750746875204"/>
  <circle cx="350.07466443855753" cy="100.51473343405607" r="3.8047380781958493" fill="#CFAE58" opacity="0.13747942554908113"/>
  <circle cx="879.8040344066225" cy="539.7716109726969" r="3.2543173742196654" fill="#CFAE58" opacity="0.21389108812203525"/>
  <circle cx="908.5553919121224" cy="161.05675973736126" r="4.856331449792418" fill="#CFAE58" opacity="0.12309183148955588"/>
  <circle cx="1141.982371858971" cy="401.8871706290125" r="4.196963243726197" fill="#CFAE58" opacity="0.11534383077961537"/>
  <circle cx="677.4135624333426" cy="336.0890514270654" r="3.6230566500614954" fill="#CFAE58" opacity="0.17419364875626164"/>
  <circle cx="361.8832582408386" cy="258.708259204896" r="5.4731478586000994" fill="#CFAE58" opacity="0.21751917302404303"/>
  <circle cx="1137.5909174602805" cy="313.62468011035014" r="3.890506247298741" fill="#CFAE58" opacity="0.2246649412878651"/>
  <circle cx="983.4727037394026" cy="220.91137508519103" r="2.6161340165719205" fill="#CFAE58" opacity="0.19623871184313413"/>
  <circle cx="200.31390148156635" cy="592.5870729419885" r="4.016170672135789" fill="#CFAE58" opacity="0.18465110448208644"/>
  <circle cx="476.89453929615127" cy="489.00905449353786" r="5.5795427674819305" fill="#CFAE58" opacity="0.1554509250215943"/>
  <circle cx="169.26450114468565" cy="296.3282533875501" r="4.98961634026099" fill="#CFAE58" opacity="0.1581425423752427"/>
  <circle cx="674.4477262110593" cy="558.0547576773149" r="2.1327268581128136" fill="#CFAE58" opacity="0.14713656419029308"/>
  <circle cx="311.66397618786954" cy="241.0924512625794" r="2.905188132806564" fill="#CFAE58" opacity="0.16503084089346493"/>
  <circle cx="663.0284575998115" cy="117.17975285277848" r="3.0414432888558895" fill="#CFAE58" opacity="0.1253154803571608"/>
  <circle cx="231.04825216409967" cy="610.0282340941978" r="4.075364713517743" fill="#CFAE58" opacity="0.1885225872608869"/>
  <circle cx="583.8802005836013" cy="617.5411335174246" r="2.4552991898057925" fill="#CFAE58" opacity="0.22785316542721915"/>
  <circle cx="614.9809264393053" cy="596.0610725076391" r="4.14192007495406" fill="#CFAE58" opacity="0.21381050449187566"/>
  <circle cx="594.2576709783391" cy="438.68103936361" r="3.7000558977764895" fill="#CFAE58" opacity="0.20158184383669586"/>
  <circle cx="308.26783762247106" cy="125.69385532695102" r="2.8115249893229812" fill="#CFAE58" opacity="0.10217849039451668"/>
  <circle cx="666.9936765278451" cy="618.3198192375686" r="4.361101571632244" fill="#CFAE58" opacity="0.2369816396558379"/>

  <!-- Border with glow -->
  <rect x="40" y="40" width="1120" height="550" fill="none" stroke="url(#goldGradient)" stroke-width="3" rx="12" filter="url(#softGlow)"/>

  <!-- Icon circle with premium background -->
  <circle cx="150" cy="200" r="75" fill="#CFAE58" opacity="0.15" filter="url(#softGlow)"/>
  <circle cx="150" cy="200" r="70" fill="#CFAE58" opacity="0.25"/>
  <text x="150" y="235" font-size="90" text-anchor="middle" fill="#CFAE58" filter="url(#glow)">💰</text>

  <!-- Premium logo (crown) with enhanced styling -->
  <g transform="translate(100, 70)">
    <path d="M 30 20 L 40 35 L 35 35 Z M 50 15 L 60 35 L 45 35 Z M 65 20 L 75 35 L 70 35 Z M 30 35 L 75 35 L 73 45 L 32 45 Z"
          fill="url(#goldGradient)" filter="url(#glow)" stroke="#B89842" stroke-width="0.5"/>
    <circle cx="40" cy="25" r="3" fill="#4FD1C5" filter="url(#glow)"/>
    <circle cx="52" cy="20" r="4" fill="#4FD1C5" filter="url(#glow)"/>
    <circle cx="65" cy="25" r="3" fill="#4FD1C5" filter="url(#glow)"/>
  </g>

  <!-- Title with shadow -->
  <text x="280" y="180" font-family="Georgia, serif" font-size="72" font-weight="bold"
        fill="url(#goldGradient)" filter="url(#shadow)">Tour Pricing</text>

  <!-- Subtitle with subtle glow -->
  <text x="280" y="230" font-family="Arial, sans-serif" font-size="36"
        fill="#D6DEE6" opacity="0.95" filter="url(#softGlow)">Family, Premium &amp; Corporate Packages</text>

  <!-- Brand name with letter spacing -->
  <text x="280" y="300" font-family="Georgia, serif" font-size="32" font-weight="bold"
        fill="#CFAE58" letter-spacing="4" filter="url(#glow)">ROYAL KETA</text>

  <!-- Russian tagline -->
  <text x="280" y="340" font-family="Arial, sans-serif" font-size="22" font-style="italic"
        fill="#8B95A1" opacity="0.8">От икринки к королевской</text>

  <!-- Location -->
  <text x="280" y="380" font-family="Arial, sans-serif" font-size="20"
        fill="#8B95A1" opacity="0.7">Невельский район, Сахалин</text>

  <!-- Website with glow -->
  <text x="100" y="570" font-family="Arial, sans-serif" font-size="30" font-weight="bold"
        fill="#4FD1C5" filter="url(#glow)">royalketa.com</text>

  <!-- Enhanced decorative salmon silhouette -->
  <g transform="translate(950, 480)" opacity="0.2" filter="url(#softGlow)">
    <ellipse cx="0" cy="0" rx="90" ry="35" fill="#CFAE58"/>
    <path d="M 90 0 L 120 -18 L 130 0 L 120 18 Z" fill="#CFAE58"/>
    <path d="M -25 -35 L 0 -45 L 25 -35 Z" fill="#CFAE58"/>
    <ellipse cx="-50" cy="0" rx="15" ry="12" fill="#0B0F14"/>
  </g>

  <!-- Additional decorative caviar clusters -->
  <g opacity="0.2">
    <circle cx="1050" cy="120" r="6" fill="#CFAE58"/>
    <circle cx="1065" cy="115" r="5" fill="#CFAE58"/>
    <circle cx="1058" cy="130" r="4" fill="#CFAE58"/>
    <circle cx="150" cy="500" r="5" fill="#4FD1C5"/>
    <circle cx="165" cy="508" r="4" fill="#4FD1C5"/>
    <circle cx="140" cy="512" r="5" fill="#4FD1C5"/>
  </g>
</svg>