<svg width="1200" height="630" xmlns="http://www.w3.org/2000/svg">
  <defs>
    <linearGradient id="bgGradient" x1="0%" y1="0%" x2="100%" y2="100%">
      <stop offset="0%" style="stop-color:#0B0F14;stop-opacity:1" />
      <stop offset="50%" style="stop-color:#0F1619;stop-opacity:1" />
      <stop offset="100%" style="stop-color:#0F1922;stop-opacity:1" />
    </linearGradient>
    <linearGradient id="goldGradient" x1="0%" y1="0%" x2="100%" y2="0%">
      <stop offset="0%" style="stop-color:#E5D596;stop-opacity:1" />
      <stop offset="50%" style="stop-color:#CFAE58;stop-opacity:1" />
      <stop offset="100%" style="stop-color:#B89842;stop-opacity:1" />
    </linearGradient>
    <radialGradient id="oceanGradient" cx="50%" cy="50%" r="50%">
      <stop offset="0%" style="stop-color:#4FD1C5;stop-opacity:0.3" />
      <stop offset="100%" style="stop-color:#1E90A0;stop-opacity:0.05" />
    </radialGradient>
    <filter id="glow">
      <feGaussianBlur stdDeviation="5" result="coloredBlur"/>
      <feMerge>
        <feMergeNode in="coloredBlur"/>
        <feMergeNode in="SourceGraphic"/>
      </feMerge>
    </filter>
    <filter id="softGlow">
      <feGaussianBlur stdDeviation="8" result="coloredBlur"/>
      <feMerge>
        <feMergeNode in="coloredBlur"/>
        <feMergeNode in="SourceGraphic"/>
      </feMerge>
    </filter>
    <filter id="shadow">
      <feDropShadow dx="0" dy="4" stdDeviation="8" flood-color="#000000" flood-opacity="0.5"/>
    </filter>
  </defs>

  <!-- Background -->
  <rect width="1200" height="630" fill="url(#bgGradient)"/>

  <!-- Decorative ocean gradients -->
  <ellipse cx="1000" cy="150" rx="300" ry="200" fill="url(#oceanGradient)" opacity="0.4"/>
  <ellipse cx="200" cy="530" rx="250" ry="180" fill="url(#oceanGradient)" opacity="0.3"/>

  <!-- Wave patterns -->
  <path d="M 0 400 Q 300 350 600 400 T 1200 400 L 1200 630 L 0 630 Z" fill="#1E90A0" opacity="0.08"/>
  <path d="M 0 450 Q 250 420 500 450 T 1000 450 T 1200 450 L 1200 630 L 0 630 Z" fill="#4FD1C5" opacity="0.05"/>

  <!-- Caviar roe particles -->
  <circle cx="1013.3143967512647" cy="265.5858723060031" r="5.907032150392283" fill="#CFAE58" opacity="0.20973037183071624"/>
  <circle cx="789.8567552423708" cy="57.82384653522256" r="2.887817157768585" fill="#CFAE58" opacity="0.2194248359066411"/>
  <circle cx="914.1098767575022" cy="396.7938528302414" r="2.4489557715548065" fill="#CFAE58" opacity="0.15686145177216787"/>
  <circle cx="533.6690495238508" cy="586.9860894579938" r="2.45405793622926" fill="#CFAE58" opacity="0.11722687959612821"/>
  <circle cx="569.1266259181767" cy="103.70809583276798" r="3.0260496491629816" fill="#CFAE58" opacity="0.2393904958675496"/>
  <circle cx="501.7588775237589" cy="284.1293054126629" r="2.871088116909621" fill="#CFAE58" opacity="0.2107094103630894"/>
  <circle cx="770.3068519601044" cy="73.39531462699769" r="4.216095068165514" fill="#CFAE58" opacity="0.1567456711691395"/>
  <circle cx="1008.0494251113922" cy="453.5153077155857" r="2.983226928226351" fill="#CFAE58" opacity="0.21740868045730238"/>
  <circle cx="153.12721775072367" cy="347.4294603799627" r="5.957896859922048" fill="#CFAE58" opacity="0.16070368457440865"/>
  <circle cx="1028.228796394394" cy="148.88014755546735" r="3.3695610473132964" fill="#CFAE58" opacity="0.24640465206594164"/>
  <circle cx="639.7892687613736" cy="161.56535246274942" r="4.159959442733518" fill="#CFAE58" opacity="0.24778426678467516"/>
  <circle cx="765.9384489584266" cy="297.53214689956945" r="5.588203069098377" fill="#CFAE58" opacity="0.1720898908302566"/>
  <circle cx="67.06704221525142" cy="311.2359586162006" r="3.8079910343560783" fill="#CFAE58" opacity="0.16689703761810543"/>
  <circle cx="1155.20653273338" cy="597.1042970152446" r="3.9918577590230377" fill="#CFAE58" opacity="0.16726994508092943"/>
  <circle cx="846.5573391936293" cy="361.01785885290474" r="4.83571747566844" fill="#CFAE58" opacity="0.18488332715825972"/>
  <circle cx="971.0228799944224" cy="575.9361073829313" r="4.983015827431505" fill="#CFAE58" opacity="0.2358803993349476"/>
  <circle cx="294.71274455203337" cy="189.17935715936167" r="4.746334012158436" fill="#CFAE58" opacity="0.1874578677840047"/>
  <circle cx="1178.3218513498555" cy="143.83569329874" r="2.514040414163344" fill="#CFAE58" opacity="0.24467947942902618"/>
  <circle cx="382.82769153834255" cy="290.9193283888625" r="5.1452555336749874" fill="#CFAE58" opacity="0.23118143160521837"/>
  <circle cx="886.1706262339495" cy="283.95184793335864" r="4.97756454533745" fill="#CFAE58" opacity="0.21951814336002623"/>
  <circle cx="227.56294340782864" cy="601.7629098048455" r="4.102846269671834" fill="#CFAE58" opacity="0.24432728022278175"/>
  <circle cx="369.76479188598137" cy="60.1678962239637" r="2.5891310929187785" fill="#CFAE58" opacity="0.1749731110082242"/>
  <circle cx="1102.1212138440792" cy="409.49128799806164" r="5.525061452537579" fill="#CFAE58" opacity="0.16090399250786624"/>
  <circle cx="1031.4920930571745" cy="25.995732143483654" r="5.0434852025142245" fill="#CFAE58" opacity="0.20148937814591036"/>
  <circle cx="873.5429527140633" cy="370.01364683716577" r="3.033764567523642" fill="#CFAE58" opacity="0.13392515053863097"/>
  <circle cx="142.68699609575714" cy="43.62810889758615" r="5.107138531411204" fill="#CFAE58" opacity="0.18437495254583436"/>
  <circle cx="535.0585313553598" cy="589.0749782999127" r="4.12521127885472" fill="#CFAE58" opacity="0.2248972898205326"/>
  <circle cx="191.0983744652043" cy="363.7750805965438" r="4.328255262394229" fill="#CFAE58" opacity="0.16391863979666016"/>
  <circle cx="251.7737132763627" cy="159.01175245147547" r="2.379995549989509" fill="#CFAE58" opacity="0.17621282079708217"/>
  <circle cx="88.8901997624214" cy="361.12988660132265" r="4.374029680565491" fill="#CFAE58" opacity="0.12409823847213304"/>

  <!-- Border with glow -->
  <rect x="40" y="40" width="1120" height="550" fill="none" stroke="url(#goldGradient)" stroke-width="3" rx="12" filter="url(#softGlow)"/>

  <!-- Icon circle with premium background -->
  <circle cx="150" cy="200" r="75" fill="#CFAE58" opacity="0.15" filter="url(#softGlow)"/>
  <circle cx="150" cy="200" r="70" fill="#CFAE58" opacity="0.25"/>
  <text x="150" y="235" font-size="90" text-anchor="middle" fill="#CFAE58" filter="url(#glow)">💰</text>

  <!-- Premium logo (crown) with enhanced styling -->
  <g transform="translate(100, 70)">
    <path d="M 30 20 L 40 35 L 35 35 Z M 50 15 L 60 35 L 45 35 Z M 65 20 L 75 35 L 70 35 Z M 30 35 L 75 35 L 73 45 L 32 45 Z"
          fill="url(#goldGradient)" filter="url(#glow)" stroke="#B89842" stroke-width="0.5"/>
    <circle cx="40" cy="25" r="3" fill="#4FD1C5" filter="url(#glow)"/>
    <circle cx="52" cy="20" r="4" fill="#4FD1C5" filter="url(#glow)"/>
    <circle cx="65" cy="25" r="3" fill="#4FD1C5" filter="url(#glow)"/>
  </g>

  <!-- Title with shadow -->
  <text x="280" y="180" font-family="Georgia, serif" font-size="72" font-weight="bold"
        fill="url(#goldGradient)" filter="url(#shadow)">Tour Pricing</text>

  <!-- Subtitle with subtle glow -->
  <text x="280" y="230" font-family="Arial, sans-serif" font-size="36"
        fill="#D6DEE6" opacity="0.95" filter="url(#softGlow)">Family, Premium &amp; Corporate Packages</text>

  <!-- Brand name with letter spacing -->
  <text x="280" y="300" font-family="Georgia, serif" font-size="32" font-weight="bold"
        fill="#CFAE58" letter-spacing="4" filter="url(#glow)">ROYAL KETA</text>

  <!-- Russian tagline -->
  <text x="280" y="340" font-family="Arial, sans-serif" font-size="22" font-style="italic"
        fill="#8B95A1" opacity="0.8">От икринки к королевской</text>

  <!-- Location -->
  <text x="280" y="380" font-family="Arial, sans-serif" font-size="20"
        fill="#8B95A1" opacity="0.7">Невельский район, Сахалин</text>

  <!-- Website with glow -->
  <text x="100" y="570" font-family="Arial, sans-serif" font-size="30" font-weight="bold"
        fill="#4FD1C5" filter="url(#glow)">royalketa.com</text>

  <!-- Enhanced decorative salmon silhouette -->
  <g transform="translate(950, 480)" opacity="0.2" filter="url(#softGlow)">
    <ellipse cx="0" cy="0" rx="90" ry="35" fill="#CFAE58"/>
    <path d="M 90 0 L 120 -18 L 130 0 L 120 18 Z" fill="#CFAE58"/>
    <path d="M -25 -35 L 0 -45 L 25 -35 Z" fill="#CFAE58"/>
    <ellipse cx="-50" cy="0" rx="15" ry="12" fill="#0B0F14"/>
  </g>

  <!-- Additional decorative caviar clusters -->
  <g opacity="0.2">
    <circle cx="1050" cy="120" r="6" fill="#CFAE58"/>
    <circle cx="1065" cy="115" r="5" fill="#CFAE58"/>
    <circle cx="1058" cy="130" r="4" fill="#CFAE58"/>
    <circle cx="150" cy="500" r="5" fill="#4FD1C5"/>
    <circle cx="165" cy="508" r="4" fill="#4FD1C5"/>
    <circle cx="140" cy="512" r="5" fill="#4FD1C5"/>
  </g>
</svg>