<svg width="1200" height="630" xmlns="http://www.w3.org/2000/svg">
  <defs>
    <linearGradient id="bgGradient" x1="0%" y1="0%" x2="100%" y2="100%">
      <stop offset="0%" style="stop-color:#0B0F14;stop-opacity:1" />
      <stop offset="50%" style="stop-color:#0F1619;stop-opacity:1" />
      <stop offset="100%" style="stop-color:#0F1922;stop-opacity:1" />
    </linearGradient>
    <linearGradient id="goldGradient" x1="0%" y1="0%" x2="100%" y2="0%">
      <stop offset="0%" style="stop-color:#E5D596;stop-opacity:1" />
      <stop offset="50%" style="stop-color:#CFAE58;stop-opacity:1" />
      <stop offset="100%" style="stop-color:#B89842;stop-opacity:1" />
    </linearGradient>
    <radialGradient id="oceanGradient" cx="50%" cy="50%" r="50%">
      <stop offset="0%" style="stop-color:#4FD1C5;stop-opacity:0.3" />
      <stop offset="100%" style="stop-color:#1E90A0;stop-opacity:0.05" />
    </radialGradient>
    <filter id="glow">
      <feGaussianBlur stdDeviation="5" result="coloredBlur"/>
      <feMerge>
        <feMergeNode in="coloredBlur"/>
        <feMergeNode in="SourceGraphic"/>
      </feMerge>
    </filter>
    <filter id="softGlow">
      <feGaussianBlur stdDeviation="8" result="coloredBlur"/>
      <feMerge>
        <feMergeNode in="coloredBlur"/>
        <feMergeNode in="SourceGraphic"/>
      </feMerge>
    </filter>
    <filter id="shadow">
      <feDropShadow dx="0" dy="4" stdDeviation="8" flood-color="#000000" flood-opacity="0.5"/>
    </filter>
  </defs>

  <!-- Background -->
  <rect width="1200" height="630" fill="url(#bgGradient)"/>

  <!-- Decorative ocean gradients -->
  <ellipse cx="1000" cy="150" rx="300" ry="200" fill="url(#oceanGradient)" opacity="0.4"/>
  <ellipse cx="200" cy="530" rx="250" ry="180" fill="url(#oceanGradient)" opacity="0.3"/>

  <!-- Wave patterns -->
  <path d="M 0 400 Q 300 350 600 400 T 1200 400 L 1200 630 L 0 630 Z" fill="#1E90A0" opacity="0.08"/>
  <path d="M 0 450 Q 250 420 500 450 T 1000 450 T 1200 450 L 1200 630 L 0 630 Z" fill="#4FD1C5" opacity="0.05"/>

  <!-- Caviar roe particles -->
  <circle cx="558.6865163206037" cy="362.3971369347657" r="5.616355901810726" fill="#CFAE58" opacity="0.24151482323908197"/>
  <circle cx="459.53199248376075" cy="89.65484291659469" r="3.9995080112794534" fill="#CFAE58" opacity="0.10803817516525355"/>
  <circle cx="829.1352882790801" cy="546.266419642141" r="4.979887879788701" fill="#CFAE58" opacity="0.24860631740760847"/>
  <circle cx="346.97371041728326" cy="618.5397802604377" r="2.4879001051532796" fill="#CFAE58" opacity="0.12409377937023622"/>
  <circle cx="72.92550448146633" cy="380.43021592123256" r="2.99815829652138" fill="#CFAE58" opacity="0.16881743334375005"/>
  <circle cx="1057.1533682296058" cy="55.33177868174166" r="2.3483266266394596" fill="#CFAE58" opacity="0.1479043481363964"/>
  <circle cx="698.5670789416508" cy="598.4464237230599" r="3.5702414556023676" fill="#CFAE58" opacity="0.17584496891124313"/>
  <circle cx="31.833585222932026" cy="429.0242258538737" r="3.51267518161411" fill="#CFAE58" opacity="0.24845252994598568"/>
  <circle cx="585.8942814614302" cy="147.98592762816426" r="5.319433489220101" fill="#CFAE58" opacity="0.17493499384879602"/>
  <circle cx="618.772628666365" cy="69.61768270727593" r="3.8465838104392676" fill="#CFAE58" opacity="0.1272858489042019"/>
  <circle cx="1182.28792801315" cy="574.9539643853846" r="4.080765993699541" fill="#CFAE58" opacity="0.22191962725024328"/>
  <circle cx="602.7087928756317" cy="137.95950500026532" r="3.288807829661292" fill="#CFAE58" opacity="0.14186653213311945"/>
  <circle cx="661.0297968231629" cy="618.8562720382536" r="4.233195291027143" fill="#CFAE58" opacity="0.16629848513023332"/>
  <circle cx="96.96062844107996" cy="161.6972278579687" r="2.335023999992117" fill="#CFAE58" opacity="0.10234867302559042"/>
  <circle cx="937.6228593993616" cy="609.0905352193247" r="3.470359507221217" fill="#CFAE58" opacity="0.17300523815281013"/>
  <circle cx="1039.7360797795538" cy="600.6496953783164" r="5.699646840066351" fill="#CFAE58" opacity="0.17704819932123667"/>
  <circle cx="227.9494816983058" cy="160.05075545447855" r="2.067828398192189" fill="#CFAE58" opacity="0.1263924611964833"/>
  <circle cx="69.41644972669235" cy="353.267373321182" r="5.845742448023528" fill="#CFAE58" opacity="0.18045285834584424"/>
  <circle cx="798.8500831761017" cy="448.30342851012284" r="2.458733560712248" fill="#CFAE58" opacity="0.16584245305373435"/>
  <circle cx="557.1577704590006" cy="112.11566280765093" r="2.043986964056712" fill="#CFAE58" opacity="0.21977357663332228"/>
  <circle cx="744.5286246514688" cy="394.4087896267635" r="3.2479455197462457" fill="#CFAE58" opacity="0.14385294876765709"/>
  <circle cx="813.3630263914347" cy="331.61180736190835" r="3.0372316411698748" fill="#CFAE58" opacity="0.1313876558933114"/>
  <circle cx="820.054270891678" cy="121.20775564572166" r="3.3408369019253037" fill="#CFAE58" opacity="0.22921017502050833"/>
  <circle cx="836.8628359350682" cy="142.80011377049345" r="5.4666487376443405" fill="#CFAE58" opacity="0.16930337373237553"/>
  <circle cx="576.509545038675" cy="75.43102914964942" r="3.1896410742230037" fill="#CFAE58" opacity="0.1985235091269894"/>
  <circle cx="91.14017009744408" cy="560.9366629553766" r="3.4140804598495285" fill="#CFAE58" opacity="0.1870611640143065"/>
  <circle cx="959.3951240613659" cy="588.2914889864619" r="4.408225405079348" fill="#CFAE58" opacity="0.1260804835021923"/>
  <circle cx="610.2648075134562" cy="606.6781970377134" r="2.3854605781248317" fill="#CFAE58" opacity="0.23397744967621897"/>
  <circle cx="1128.5138796748972" cy="570.3718337618725" r="5.835895482491078" fill="#CFAE58" opacity="0.1895608104572194"/>
  <circle cx="642.7622642695773" cy="387.5977725043936" r="2.633451096867155" fill="#CFAE58" opacity="0.13139537279174815"/>

  <!-- Border with glow -->
  <rect x="40" y="40" width="1120" height="550" fill="none" stroke="url(#goldGradient)" stroke-width="3" rx="12" filter="url(#softGlow)"/>

  <!-- Icon circle with premium background -->
  <circle cx="150" cy="200" r="75" fill="#CFAE58" opacity="0.15" filter="url(#softGlow)"/>
  <circle cx="150" cy="200" r="70" fill="#CFAE58" opacity="0.25"/>
  <text x="150" y="235" font-size="90" text-anchor="middle" fill="#CFAE58" filter="url(#glow)">💰</text>

  <!-- Premium logo (crown) with enhanced styling -->
  <g transform="translate(100, 70)">
    <path d="M 30 20 L 40 35 L 35 35 Z M 50 15 L 60 35 L 45 35 Z M 65 20 L 75 35 L 70 35 Z M 30 35 L 75 35 L 73 45 L 32 45 Z"
          fill="url(#goldGradient)" filter="url(#glow)" stroke="#B89842" stroke-width="0.5"/>
    <circle cx="40" cy="25" r="3" fill="#4FD1C5" filter="url(#glow)"/>
    <circle cx="52" cy="20" r="4" fill="#4FD1C5" filter="url(#glow)"/>
    <circle cx="65" cy="25" r="3" fill="#4FD1C5" filter="url(#glow)"/>
  </g>

  <!-- Title with shadow -->
  <text x="280" y="180" font-family="Georgia, serif" font-size="72" font-weight="bold"
        fill="url(#goldGradient)" filter="url(#shadow)">Tour Pricing</text>

  <!-- Subtitle with subtle glow -->
  <text x="280" y="230" font-family="Arial, sans-serif" font-size="36"
        fill="#D6DEE6" opacity="0.95" filter="url(#softGlow)">Family, Premium &amp; Corporate Packages</text>

  <!-- Brand name with letter spacing -->
  <text x="280" y="300" font-family="Georgia, serif" font-size="32" font-weight="bold"
        fill="#CFAE58" letter-spacing="4" filter="url(#glow)">ROYAL KETA</text>

  <!-- Russian tagline -->
  <text x="280" y="340" font-family="Arial, sans-serif" font-size="22" font-style="italic"
        fill="#8B95A1" opacity="0.8">От икринки к королевской</text>

  <!-- Location -->
  <text x="280" y="380" font-family="Arial, sans-serif" font-size="20"
        fill="#8B95A1" opacity="0.7">Невельский район, Сахалин</text>

  <!-- Website with glow -->
  <text x="100" y="570" font-family="Arial, sans-serif" font-size="30" font-weight="bold"
        fill="#4FD1C5" filter="url(#glow)">royalketa.com</text>

  <!-- Enhanced decorative salmon silhouette -->
  <g transform="translate(950, 480)" opacity="0.2" filter="url(#softGlow)">
    <ellipse cx="0" cy="0" rx="90" ry="35" fill="#CFAE58"/>
    <path d="M 90 0 L 120 -18 L 130 0 L 120 18 Z" fill="#CFAE58"/>
    <path d="M -25 -35 L 0 -45 L 25 -35 Z" fill="#CFAE58"/>
    <ellipse cx="-50" cy="0" rx="15" ry="12" fill="#0B0F14"/>
  </g>

  <!-- Additional decorative caviar clusters -->
  <g opacity="0.2">
    <circle cx="1050" cy="120" r="6" fill="#CFAE58"/>
    <circle cx="1065" cy="115" r="5" fill="#CFAE58"/>
    <circle cx="1058" cy="130" r="4" fill="#CFAE58"/>
    <circle cx="150" cy="500" r="5" fill="#4FD1C5"/>
    <circle cx="165" cy="508" r="4" fill="#4FD1C5"/>
    <circle cx="140" cy="512" r="5" fill="#4FD1C5"/>
  </g>
</svg>