<svg width="1200" height="630" xmlns="http://www.w3.org/2000/svg">
  <defs>
    <linearGradient id="bgGradient" x1="0%" y1="0%" x2="100%" y2="100%">
      <stop offset="0%" style="stop-color:#0B0F14;stop-opacity:1" />
      <stop offset="50%" style="stop-color:#0F1619;stop-opacity:1" />
      <stop offset="100%" style="stop-color:#0F1922;stop-opacity:1" />
    </linearGradient>
    <linearGradient id="goldGradient" x1="0%" y1="0%" x2="100%" y2="0%">
      <stop offset="0%" style="stop-color:#E5D596;stop-opacity:1" />
      <stop offset="50%" style="stop-color:#CFAE58;stop-opacity:1" />
      <stop offset="100%" style="stop-color:#B89842;stop-opacity:1" />
    </linearGradient>
    <radialGradient id="oceanGradient" cx="50%" cy="50%" r="50%">
      <stop offset="0%" style="stop-color:#4FD1C5;stop-opacity:0.3" />
      <stop offset="100%" style="stop-color:#1E90A0;stop-opacity:0.05" />
    </radialGradient>
    <filter id="glow">
      <feGaussianBlur stdDeviation="5" result="coloredBlur"/>
      <feMerge>
        <feMergeNode in="coloredBlur"/>
        <feMergeNode in="SourceGraphic"/>
      </feMerge>
    </filter>
    <filter id="softGlow">
      <feGaussianBlur stdDeviation="8" result="coloredBlur"/>
      <feMerge>
        <feMergeNode in="coloredBlur"/>
        <feMergeNode in="SourceGraphic"/>
      </feMerge>
    </filter>
    <filter id="shadow">
      <feDropShadow dx="0" dy="4" stdDeviation="8" flood-color="#000000" flood-opacity="0.5"/>
    </filter>
  </defs>

  <!-- Background -->
  <rect width="1200" height="630" fill="url(#bgGradient)"/>

  <!-- Decorative ocean gradients -->
  <ellipse cx="1000" cy="150" rx="300" ry="200" fill="url(#oceanGradient)" opacity="0.4"/>
  <ellipse cx="200" cy="530" rx="250" ry="180" fill="url(#oceanGradient)" opacity="0.3"/>

  <!-- Wave patterns -->
  <path d="M 0 400 Q 300 350 600 400 T 1200 400 L 1200 630 L 0 630 Z" fill="#1E90A0" opacity="0.08"/>
  <path d="M 0 450 Q 250 420 500 450 T 1000 450 T 1200 450 L 1200 630 L 0 630 Z" fill="#4FD1C5" opacity="0.05"/>

  <!-- Caviar roe particles -->
  <circle cx="422.491848610767" cy="493.31685106295043" r="5.3846341572451175" fill="#CFAE58" opacity="0.1918386140136955"/>
  <circle cx="671.6715995698352" cy="391.7834241905229" r="2.9616113564868214" fill="#CFAE58" opacity="0.1638786282206967"/>
  <circle cx="918.2186473680878" cy="136.9147774201499" r="2.8451331897428456" fill="#CFAE58" opacity="0.12153150698017132"/>
  <circle cx="1013.7300671547025" cy="324.0377942693545" r="2.948407365690299" fill="#CFAE58" opacity="0.20136000056867215"/>
  <circle cx="562.5687943608784" cy="352.38107275292157" r="3.8020498834659926" fill="#CFAE58" opacity="0.23874153611320034"/>
  <circle cx="1106.8604639195617" cy="507.65215855844485" r="3.3899404902274606" fill="#CFAE58" opacity="0.21969467440958101"/>
  <circle cx="759.2497169741499" cy="358.40804343749386" r="5.391514735908751" fill="#CFAE58" opacity="0.22528681663087097"/>
  <circle cx="1187.6490988796716" cy="550.1095757382926" r="3.0797631289961944" fill="#CFAE58" opacity="0.17751015640263532"/>
  <circle cx="100.3346198477102" cy="328.96046405809" r="3.259711146972855" fill="#CFAE58" opacity="0.22157125060548963"/>
  <circle cx="82.82955492511013" cy="528.1076670147005" r="5.181532406578206" fill="#CFAE58" opacity="0.18994023533136933"/>
  <circle cx="961.3467156695333" cy="393.78529447245114" r="2.0327298325572274" fill="#CFAE58" opacity="0.19294106786983417"/>
  <circle cx="1006.4790186628073" cy="267.8848637262185" r="3.5595254183492173" fill="#CFAE58" opacity="0.16569547944546334"/>
  <circle cx="48.30198572704614" cy="147.1104593546185" r="4.800597434326453" fill="#CFAE58" opacity="0.2139914743442573"/>
  <circle cx="1102.8829487029238" cy="261.8200226334961" r="4.271392376087906" fill="#CFAE58" opacity="0.14149382248933803"/>
  <circle cx="319.0620770444041" cy="242.3109731692035" r="2.5052909966459183" fill="#CFAE58" opacity="0.1862673130656295"/>
  <circle cx="438.89521591557246" cy="157.66443977139414" r="3.45160830270983" fill="#CFAE58" opacity="0.19807965277584483"/>
  <circle cx="304.05460336240316" cy="551.042209700128" r="5.223827036828312" fill="#CFAE58" opacity="0.1870863471017961"/>
  <circle cx="657.687784026598" cy="253.43078735848997" r="5.100165450689482" fill="#CFAE58" opacity="0.18426422807622184"/>
  <circle cx="35.702606047826805" cy="407.091331636726" r="5.722802305042622" fill="#CFAE58" opacity="0.2324977933220185"/>
  <circle cx="653.7750045440316" cy="260.9941087039606" r="3.2607177232364615" fill="#CFAE58" opacity="0.18292687026445545"/>
  <circle cx="958.0129720000281" cy="247.98452513179393" r="3.5746969215359092" fill="#CFAE58" opacity="0.21390077041489125"/>
  <circle cx="378.71746480925503" cy="175.8345277661115" r="4.294176827035827" fill="#CFAE58" opacity="0.24683689208911094"/>
  <circle cx="75.64150863389388" cy="331.6685124610058" r="2.3562719825101928" fill="#CFAE58" opacity="0.1632997390815491"/>
  <circle cx="687.6661645977462" cy="330.5422136274011" r="5.9031738884434235" fill="#CFAE58" opacity="0.158576192455047"/>
  <circle cx="715.7625689338962" cy="64.46479259763923" r="2.091635002513145" fill="#CFAE58" opacity="0.1790488767216616"/>
  <circle cx="972.7162312977706" cy="365.65874294185636" r="5.973819086835128" fill="#CFAE58" opacity="0.16771932421269214"/>
  <circle cx="733.0550292336196" cy="369.29356816001484" r="3.396980440282999" fill="#CFAE58" opacity="0.11782420545682902"/>
  <circle cx="1120.1824184406673" cy="232.09879637714502" r="4.275699677044203" fill="#CFAE58" opacity="0.16139352297388024"/>
  <circle cx="459.36549988196373" cy="610.8716493299396" r="3.039736679391983" fill="#CFAE58" opacity="0.2442258709514839"/>
  <circle cx="369.3430392421989" cy="360.35597379116695" r="5.907813621196101" fill="#CFAE58" opacity="0.1414633783537691"/>

  <!-- Border with glow -->
  <rect x="40" y="40" width="1120" height="550" fill="none" stroke="url(#goldGradient)" stroke-width="3" rx="12" filter="url(#softGlow)"/>

  <!-- Icon circle with premium background -->
  <circle cx="150" cy="200" r="75" fill="#CFAE58" opacity="0.15" filter="url(#softGlow)"/>
  <circle cx="150" cy="200" r="70" fill="#CFAE58" opacity="0.25"/>
  <text x="150" y="235" font-size="90" text-anchor="middle" fill="#CFAE58" filter="url(#glow)">💰</text>

  <!-- Premium logo (crown) with enhanced styling -->
  <g transform="translate(100, 70)">
    <path d="M 30 20 L 40 35 L 35 35 Z M 50 15 L 60 35 L 45 35 Z M 65 20 L 75 35 L 70 35 Z M 30 35 L 75 35 L 73 45 L 32 45 Z"
          fill="url(#goldGradient)" filter="url(#glow)" stroke="#B89842" stroke-width="0.5"/>
    <circle cx="40" cy="25" r="3" fill="#4FD1C5" filter="url(#glow)"/>
    <circle cx="52" cy="20" r="4" fill="#4FD1C5" filter="url(#glow)"/>
    <circle cx="65" cy="25" r="3" fill="#4FD1C5" filter="url(#glow)"/>
  </g>

  <!-- Title with shadow -->
  <text x="280" y="180" font-family="Georgia, serif" font-size="72" font-weight="bold"
        fill="url(#goldGradient)" filter="url(#shadow)">Tour Pricing</text>

  <!-- Subtitle with subtle glow -->
  <text x="280" y="230" font-family="Arial, sans-serif" font-size="36"
        fill="#D6DEE6" opacity="0.95" filter="url(#softGlow)">Family, Premium &amp; Corporate Packages</text>

  <!-- Brand name with letter spacing -->
  <text x="280" y="300" font-family="Georgia, serif" font-size="32" font-weight="bold"
        fill="#CFAE58" letter-spacing="4" filter="url(#glow)">ROYAL KETA</text>

  <!-- Russian tagline -->
  <text x="280" y="340" font-family="Arial, sans-serif" font-size="22" font-style="italic"
        fill="#8B95A1" opacity="0.8">От икринки к королевской</text>

  <!-- Location -->
  <text x="280" y="380" font-family="Arial, sans-serif" font-size="20"
        fill="#8B95A1" opacity="0.7">Невельский район, Сахалин</text>

  <!-- Website with glow -->
  <text x="100" y="570" font-family="Arial, sans-serif" font-size="30" font-weight="bold"
        fill="#4FD1C5" filter="url(#glow)">royalketa.com</text>

  <!-- Enhanced decorative salmon silhouette -->
  <g transform="translate(950, 480)" opacity="0.2" filter="url(#softGlow)">
    <ellipse cx="0" cy="0" rx="90" ry="35" fill="#CFAE58"/>
    <path d="M 90 0 L 120 -18 L 130 0 L 120 18 Z" fill="#CFAE58"/>
    <path d="M -25 -35 L 0 -45 L 25 -35 Z" fill="#CFAE58"/>
    <ellipse cx="-50" cy="0" rx="15" ry="12" fill="#0B0F14"/>
  </g>

  <!-- Additional decorative caviar clusters -->
  <g opacity="0.2">
    <circle cx="1050" cy="120" r="6" fill="#CFAE58"/>
    <circle cx="1065" cy="115" r="5" fill="#CFAE58"/>
    <circle cx="1058" cy="130" r="4" fill="#CFAE58"/>
    <circle cx="150" cy="500" r="5" fill="#4FD1C5"/>
    <circle cx="165" cy="508" r="4" fill="#4FD1C5"/>
    <circle cx="140" cy="512" r="5" fill="#4FD1C5"/>
  </g>
</svg>