<svg width="1200" height="630" xmlns="http://www.w3.org/2000/svg">
  <defs>
    <linearGradient id="bgGradient" x1="0%" y1="0%" x2="100%" y2="100%">
      <stop offset="0%" style="stop-color:#0B0F14;stop-opacity:1" />
      <stop offset="50%" style="stop-color:#0F1619;stop-opacity:1" />
      <stop offset="100%" style="stop-color:#0F1922;stop-opacity:1" />
    </linearGradient>
    <linearGradient id="goldGradient" x1="0%" y1="0%" x2="100%" y2="0%">
      <stop offset="0%" style="stop-color:#E5D596;stop-opacity:1" />
      <stop offset="50%" style="stop-color:#CFAE58;stop-opacity:1" />
      <stop offset="100%" style="stop-color:#B89842;stop-opacity:1" />
    </linearGradient>
    <radialGradient id="oceanGradient" cx="50%" cy="50%" r="50%">
      <stop offset="0%" style="stop-color:#4FD1C5;stop-opacity:0.3" />
      <stop offset="100%" style="stop-color:#1E90A0;stop-opacity:0.05" />
    </radialGradient>
    <filter id="glow">
      <feGaussianBlur stdDeviation="5" result="coloredBlur"/>
      <feMerge>
        <feMergeNode in="coloredBlur"/>
        <feMergeNode in="SourceGraphic"/>
      </feMerge>
    </filter>
    <filter id="softGlow">
      <feGaussianBlur stdDeviation="8" result="coloredBlur"/>
      <feMerge>
        <feMergeNode in="coloredBlur"/>
        <feMergeNode in="SourceGraphic"/>
      </feMerge>
    </filter>
    <filter id="shadow">
      <feDropShadow dx="0" dy="4" stdDeviation="8" flood-color="#000000" flood-opacity="0.5"/>
    </filter>
  </defs>

  <!-- Background -->
  <rect width="1200" height="630" fill="url(#bgGradient)"/>

  <!-- Decorative ocean gradients -->
  <ellipse cx="1000" cy="150" rx="300" ry="200" fill="url(#oceanGradient)" opacity="0.4"/>
  <ellipse cx="200" cy="530" rx="250" ry="180" fill="url(#oceanGradient)" opacity="0.3"/>

  <!-- Wave patterns -->
  <path d="M 0 400 Q 300 350 600 400 T 1200 400 L 1200 630 L 0 630 Z" fill="#1E90A0" opacity="0.08"/>
  <path d="M 0 450 Q 250 420 500 450 T 1000 450 T 1200 450 L 1200 630 L 0 630 Z" fill="#4FD1C5" opacity="0.05"/>

  <!-- Caviar roe particles -->
  <circle cx="1058.5382105326896" cy="595.7296868857608" r="5.4145125323420515" fill="#CFAE58" opacity="0.12032215070649133"/>
  <circle cx="1138.8662398950048" cy="232.1408438205794" r="2.5760553041437317" fill="#CFAE58" opacity="0.11074078815529897"/>
  <circle cx="64.50065110732001" cy="289.53096524809894" r="2.078176255140546" fill="#CFAE58" opacity="0.15480264740522515"/>
  <circle cx="934.9170148147703" cy="211.66682057534078" r="3.031617558489292" fill="#CFAE58" opacity="0.2397520478715306"/>
  <circle cx="415.51493934914913" cy="165.3991345310427" r="3.8215415161484145" fill="#CFAE58" opacity="0.196304564084201"/>
  <circle cx="356.48039994870715" cy="397.18615653074517" r="4.696120861719001" fill="#CFAE58" opacity="0.2265006456093127"/>
  <circle cx="31.829808823416794" cy="531.5902903762674" r="5.741737935113572" fill="#CFAE58" opacity="0.11539552527725654"/>
  <circle cx="0.19440047656145154" cy="121.8364712964968" r="4.252750220982199" fill="#CFAE58" opacity="0.12973549797195583"/>
  <circle cx="507.279368490254" cy="384.3474553894562" r="3.5747411639687554" fill="#CFAE58" opacity="0.13656742767569263"/>
  <circle cx="231.58255877639098" cy="392.203695196143" r="3.672018895350199" fill="#CFAE58" opacity="0.18131240894533646"/>
  <circle cx="624.9556149818329" cy="147.23734719955235" r="3.689692889610975" fill="#CFAE58" opacity="0.21637102785232654"/>
  <circle cx="936.203874465251" cy="548.3458770669247" r="4.464738616418598" fill="#CFAE58" opacity="0.17044251975657115"/>
  <circle cx="580.0104772616972" cy="398.77691135144545" r="4.590533011574879" fill="#CFAE58" opacity="0.1906195512097637"/>
  <circle cx="282.24621005382727" cy="100.10750650775752" r="2.303315177460698" fill="#CFAE58" opacity="0.20421041022876155"/>
  <circle cx="703.5591896485528" cy="104.77031742439617" r="5.651441732800508" fill="#CFAE58" opacity="0.2031317493271025"/>
  <circle cx="779.6755313334011" cy="629.5230215622948" r="4.550561418105791" fill="#CFAE58" opacity="0.21075259237294586"/>
  <circle cx="1037.3809953006387" cy="247.89334203766398" r="4.972499385074666" fill="#CFAE58" opacity="0.14513386354123936"/>
  <circle cx="573.2380681326025" cy="404.36388755308894" r="2.2817892061054446" fill="#CFAE58" opacity="0.238093037015644"/>
  <circle cx="1159.7561442161448" cy="294.5678966580479" r="5.270187053031409" fill="#CFAE58" opacity="0.17282687165068383"/>
  <circle cx="853.7874850305603" cy="488.73409532262696" r="5.555104053070163" fill="#CFAE58" opacity="0.12772329521644424"/>
  <circle cx="838.6215438276081" cy="515.5927142554033" r="4.313098891497476" fill="#CFAE58" opacity="0.2445429152210383"/>
  <circle cx="137.54017349943206" cy="72.12368573487541" r="5.773444625732139" fill="#CFAE58" opacity="0.10521142288332357"/>
  <circle cx="114.21516606026225" cy="601.850240423909" r="2.9780019862081977" fill="#CFAE58" opacity="0.24705114706445638"/>
  <circle cx="177.05453130300296" cy="319.3042651043671" r="2.9339988822810126" fill="#CFAE58" opacity="0.20887959029069664"/>
  <circle cx="1196.1528524143337" cy="229.5336494731639" r="3.575036418897195" fill="#CFAE58" opacity="0.21551201320285707"/>
  <circle cx="896.8287162862157" cy="373.3367103505821" r="5.109554737604992" fill="#CFAE58" opacity="0.11150657407140468"/>
  <circle cx="475.95544224094857" cy="305.0601236958806" r="3.621458757162789" fill="#CFAE58" opacity="0.24273117666628735"/>
  <circle cx="263.3694181865653" cy="143.88470589359082" r="2.141905805650354" fill="#CFAE58" opacity="0.18521250426237507"/>
  <circle cx="530.6780357553552" cy="446.0947680259218" r="3.066605806700431" fill="#CFAE58" opacity="0.11050549528480774"/>
  <circle cx="349.17442192759285" cy="67.58447643743845" r="4.602898105272226" fill="#CFAE58" opacity="0.1156323549785714"/>

  <!-- Border with glow -->
  <rect x="40" y="40" width="1120" height="550" fill="none" stroke="url(#goldGradient)" stroke-width="3" rx="12" filter="url(#softGlow)"/>

  <!-- Icon circle with premium background -->
  <circle cx="150" cy="200" r="75" fill="#CFAE58" opacity="0.15" filter="url(#softGlow)"/>
  <circle cx="150" cy="200" r="70" fill="#CFAE58" opacity="0.25"/>
  <text x="150" y="235" font-size="90" text-anchor="middle" fill="#CFAE58" filter="url(#glow)">💰</text>

  <!-- Premium logo (crown) with enhanced styling -->
  <g transform="translate(100, 70)">
    <path d="M 30 20 L 40 35 L 35 35 Z M 50 15 L 60 35 L 45 35 Z M 65 20 L 75 35 L 70 35 Z M 30 35 L 75 35 L 73 45 L 32 45 Z"
          fill="url(#goldGradient)" filter="url(#glow)" stroke="#B89842" stroke-width="0.5"/>
    <circle cx="40" cy="25" r="3" fill="#4FD1C5" filter="url(#glow)"/>
    <circle cx="52" cy="20" r="4" fill="#4FD1C5" filter="url(#glow)"/>
    <circle cx="65" cy="25" r="3" fill="#4FD1C5" filter="url(#glow)"/>
  </g>

  <!-- Title with shadow -->
  <text x="280" y="180" font-family="Georgia, serif" font-size="72" font-weight="bold"
        fill="url(#goldGradient)" filter="url(#shadow)">Tour Pricing</text>

  <!-- Subtitle with subtle glow -->
  <text x="280" y="230" font-family="Arial, sans-serif" font-size="36"
        fill="#D6DEE6" opacity="0.95" filter="url(#softGlow)">Family, Premium & Corporate Packages</text>

  <!-- Brand name with letter spacing -->
  <text x="280" y="300" font-family="Georgia, serif" font-size="32" font-weight="bold"
        fill="#CFAE58" letter-spacing="4" filter="url(#glow)">ROYAL KETA</text>

  <!-- Russian tagline -->
  <text x="280" y="340" font-family="Arial, sans-serif" font-size="22" font-style="italic"
        fill="#8B95A1" opacity="0.8">От икринки к королевской</text>

  <!-- Location -->
  <text x="280" y="380" font-family="Arial, sans-serif" font-size="20"
        fill="#8B95A1" opacity="0.7">Невельский район, Сахалин</text>

  <!-- Website with glow -->
  <text x="100" y="570" font-family="Arial, sans-serif" font-size="30" font-weight="bold"
        fill="#4FD1C5" filter="url(#glow)">royalketa.com</text>

  <!-- Enhanced decorative salmon silhouette -->
  <g transform="translate(950, 480)" opacity="0.2" filter="url(#softGlow)">
    <ellipse cx="0" cy="0" rx="90" ry="35" fill="#CFAE58"/>
    <path d="M 90 0 L 120 -18 L 130 0 L 120 18 Z" fill="#CFAE58"/>
    <path d="M -25 -35 L 0 -45 L 25 -35 Z" fill="#CFAE58"/>
    <ellipse cx="-50" cy="0" rx="15" ry="12" fill="#0B0F14"/>
  </g>

  <!-- Additional decorative caviar clusters -->
  <g opacity="0.2">
    <circle cx="1050" cy="120" r="6" fill="#CFAE58"/>
    <circle cx="1065" cy="115" r="5" fill="#CFAE58"/>
    <circle cx="1058" cy="130" r="4" fill="#CFAE58"/>
    <circle cx="150" cy="500" r="5" fill="#4FD1C5"/>
    <circle cx="165" cy="508" r="4" fill="#4FD1C5"/>
    <circle cx="140" cy="512" r="5" fill="#4FD1C5"/>
  </g>
</svg>