<svg width="1200" height="630" xmlns="http://www.w3.org/2000/svg">
  <defs>
    <linearGradient id="bgGradient" x1="0%" y1="0%" x2="100%" y2="100%">
      <stop offset="0%" style="stop-color:#0B0F14;stop-opacity:1" />
      <stop offset="50%" style="stop-color:#0F1619;stop-opacity:1" />
      <stop offset="100%" style="stop-color:#0F1922;stop-opacity:1" />
    </linearGradient>
    <linearGradient id="goldGradient" x1="0%" y1="0%" x2="100%" y2="0%">
      <stop offset="0%" style="stop-color:#E5D596;stop-opacity:1" />
      <stop offset="50%" style="stop-color:#CFAE58;stop-opacity:1" />
      <stop offset="100%" style="stop-color:#B89842;stop-opacity:1" />
    </linearGradient>
    <radialGradient id="oceanGradient" cx="50%" cy="50%" r="50%">
      <stop offset="0%" style="stop-color:#4FD1C5;stop-opacity:0.3" />
      <stop offset="100%" style="stop-color:#1E90A0;stop-opacity:0.05" />
    </radialGradient>
    <filter id="glow">
      <feGaussianBlur stdDeviation="5" result="coloredBlur"/>
      <feMerge>
        <feMergeNode in="coloredBlur"/>
        <feMergeNode in="SourceGraphic"/>
      </feMerge>
    </filter>
    <filter id="softGlow">
      <feGaussianBlur stdDeviation="8" result="coloredBlur"/>
      <feMerge>
        <feMergeNode in="coloredBlur"/>
        <feMergeNode in="SourceGraphic"/>
      </feMerge>
    </filter>
    <filter id="shadow">
      <feDropShadow dx="0" dy="4" stdDeviation="8" flood-color="#000000" flood-opacity="0.5"/>
    </filter>
  </defs>

  <!-- Background -->
  <rect width="1200" height="630" fill="url(#bgGradient)"/>

  <!-- Decorative ocean gradients -->
  <ellipse cx="1000" cy="150" rx="300" ry="200" fill="url(#oceanGradient)" opacity="0.4"/>
  <ellipse cx="200" cy="530" rx="250" ry="180" fill="url(#oceanGradient)" opacity="0.3"/>

  <!-- Wave patterns -->
  <path d="M 0 400 Q 300 350 600 400 T 1200 400 L 1200 630 L 0 630 Z" fill="#1E90A0" opacity="0.08"/>
  <path d="M 0 450 Q 250 420 500 450 T 1000 450 T 1200 450 L 1200 630 L 0 630 Z" fill="#4FD1C5" opacity="0.05"/>

  <!-- Caviar roe particles -->
  <circle cx="783.8718056863028" cy="604.689480657266" r="2.504680370463052" fill="#CFAE58" opacity="0.11392450497161419"/>
  <circle cx="440.66067872106294" cy="264.7276561786102" r="2.666924534812394" fill="#CFAE58" opacity="0.17383994901725602"/>
  <circle cx="958.5045714763045" cy="103.32735213093447" r="5.783165498815688" fill="#CFAE58" opacity="0.24411743605191405"/>
  <circle cx="510.77805782688364" cy="489.0943080907851" r="5.273386707922769" fill="#CFAE58" opacity="0.15400227838497824"/>
  <circle cx="401.63624489831653" cy="484.1214710598329" r="4.847925259400564" fill="#CFAE58" opacity="0.10808983737576533"/>
  <circle cx="605.0714820353477" cy="53.04117886612148" r="4.814115108015508" fill="#CFAE58" opacity="0.24958993263007423"/>
  <circle cx="766.1671982011233" cy="238.05141078697224" r="5.279835734757411" fill="#CFAE58" opacity="0.12040094571493386"/>
  <circle cx="457.0662364655705" cy="256.3554545655548" r="5.0167621536545015" fill="#CFAE58" opacity="0.17600316688615852"/>
  <circle cx="1179.5950027211923" cy="222.4582302439819" r="5.648172514012325" fill="#CFAE58" opacity="0.19132067249851503"/>
  <circle cx="670.8020197599661" cy="488.4512446640765" r="4.29877321886907" fill="#CFAE58" opacity="0.2415063317559761"/>
  <circle cx="952.2880072102752" cy="386.56610640167514" r="5.9536817878987005" fill="#CFAE58" opacity="0.20483833832724324"/>
  <circle cx="602.8133598070044" cy="199.79085856709332" r="3.8345573635305312" fill="#CFAE58" opacity="0.17300844813283084"/>
  <circle cx="733.5356818344344" cy="173.65298882549632" r="2.8868455331464897" fill="#CFAE58" opacity="0.14019406848549987"/>
  <circle cx="1173.974493609147" cy="277.529418157847" r="4.123987222757017" fill="#CFAE58" opacity="0.12587528566367343"/>
  <circle cx="466.06933363006374" cy="343.8158124283072" r="5.366977810197061" fill="#CFAE58" opacity="0.16213970566871344"/>
  <circle cx="13.628303781545537" cy="232.03011805370855" r="3.3873691641186197" fill="#CFAE58" opacity="0.1717344907764312"/>
  <circle cx="401.9596290243042" cy="461.01944882982116" r="4.972891958126922" fill="#CFAE58" opacity="0.20857395653296143"/>
  <circle cx="1189.9699659042099" cy="23.57171529980161" r="3.8461411044654676" fill="#CFAE58" opacity="0.22077283908222245"/>
  <circle cx="450.6787554042657" cy="552.6616374953464" r="2.606872391664808" fill="#CFAE58" opacity="0.20056260399694154"/>
  <circle cx="309.54935224567004" cy="5.3581356522985635" r="3.8142286319677563" fill="#CFAE58" opacity="0.15637375866256764"/>
  <circle cx="499.1288414138298" cy="49.31361251952838" r="3.4241905907913317" fill="#CFAE58" opacity="0.15556981093109934"/>
  <circle cx="873.2488273006081" cy="322.584266042316" r="2.0920129953621327" fill="#CFAE58" opacity="0.10722530856545466"/>
  <circle cx="133.28491477964457" cy="315.84711615278167" r="2.5109342271777644" fill="#CFAE58" opacity="0.14278300250424245"/>
  <circle cx="276.58886763012515" cy="329.26213977829156" r="2.839078686154809" fill="#CFAE58" opacity="0.23643203400732823"/>
  <circle cx="1138.7173441373714" cy="43.197462421046296" r="5.573335662145778" fill="#CFAE58" opacity="0.2164491629813428"/>
  <circle cx="377.36770355348074" cy="31.74116743513205" r="2.5958840740383113" fill="#CFAE58" opacity="0.19523269889781758"/>
  <circle cx="74.29726765745839" cy="475.77529858160983" r="4.029305129176809" fill="#CFAE58" opacity="0.21291228234783818"/>
  <circle cx="913.4192724908303" cy="372.71957241958887" r="3.6469746767593456" fill="#CFAE58" opacity="0.23358438223872022"/>
  <circle cx="570.290553848416" cy="176.29965423096803" r="4.024749159112204" fill="#CFAE58" opacity="0.1533433368362352"/>
  <circle cx="335.4513092294109" cy="473.78092666931167" r="2.370081217450436" fill="#CFAE58" opacity="0.10511030328266815"/>

  <!-- Border with glow -->
  <rect x="40" y="40" width="1120" height="550" fill="none" stroke="url(#goldGradient)" stroke-width="3" rx="12" filter="url(#softGlow)"/>

  <!-- Icon circle with premium background -->
  <circle cx="150" cy="200" r="75" fill="#CFAE58" opacity="0.15" filter="url(#softGlow)"/>
  <circle cx="150" cy="200" r="70" fill="#CFAE58" opacity="0.25"/>
  <text x="150" y="235" font-size="90" text-anchor="middle" fill="#CFAE58" filter="url(#glow)">💰</text>

  <!-- Premium logo (crown) with enhanced styling -->
  <g transform="translate(100, 70)">
    <path d="M 30 20 L 40 35 L 35 35 Z M 50 15 L 60 35 L 45 35 Z M 65 20 L 75 35 L 70 35 Z M 30 35 L 75 35 L 73 45 L 32 45 Z"
          fill="url(#goldGradient)" filter="url(#glow)" stroke="#B89842" stroke-width="0.5"/>
    <circle cx="40" cy="25" r="3" fill="#4FD1C5" filter="url(#glow)"/>
    <circle cx="52" cy="20" r="4" fill="#4FD1C5" filter="url(#glow)"/>
    <circle cx="65" cy="25" r="3" fill="#4FD1C5" filter="url(#glow)"/>
  </g>

  <!-- Title with shadow -->
  <text x="280" y="180" font-family="Georgia, serif" font-size="72" font-weight="bold"
        fill="url(#goldGradient)" filter="url(#shadow)">Tour Pricing</text>

  <!-- Subtitle with subtle glow -->
  <text x="280" y="230" font-family="Arial, sans-serif" font-size="36"
        fill="#D6DEE6" opacity="0.95" filter="url(#softGlow)">Family, Premium &amp; Corporate Packages</text>

  <!-- Brand name with letter spacing -->
  <text x="280" y="300" font-family="Georgia, serif" font-size="32" font-weight="bold"
        fill="#CFAE58" letter-spacing="4" filter="url(#glow)">ROYAL KETA</text>

  <!-- Russian tagline -->
  <text x="280" y="340" font-family="Arial, sans-serif" font-size="22" font-style="italic"
        fill="#8B95A1" opacity="0.8">От икринки к королевской</text>

  <!-- Location -->
  <text x="280" y="380" font-family="Arial, sans-serif" font-size="20"
        fill="#8B95A1" opacity="0.7">Невельский район, Сахалин</text>

  <!-- Website with glow -->
  <text x="100" y="570" font-family="Arial, sans-serif" font-size="30" font-weight="bold"
        fill="#4FD1C5" filter="url(#glow)">royalketa.com</text>

  <!-- Enhanced decorative salmon silhouette -->
  <g transform="translate(950, 480)" opacity="0.2" filter="url(#softGlow)">
    <ellipse cx="0" cy="0" rx="90" ry="35" fill="#CFAE58"/>
    <path d="M 90 0 L 120 -18 L 130 0 L 120 18 Z" fill="#CFAE58"/>
    <path d="M -25 -35 L 0 -45 L 25 -35 Z" fill="#CFAE58"/>
    <ellipse cx="-50" cy="0" rx="15" ry="12" fill="#0B0F14"/>
  </g>

  <!-- Additional decorative caviar clusters -->
  <g opacity="0.2">
    <circle cx="1050" cy="120" r="6" fill="#CFAE58"/>
    <circle cx="1065" cy="115" r="5" fill="#CFAE58"/>
    <circle cx="1058" cy="130" r="4" fill="#CFAE58"/>
    <circle cx="150" cy="500" r="5" fill="#4FD1C5"/>
    <circle cx="165" cy="508" r="4" fill="#4FD1C5"/>
    <circle cx="140" cy="512" r="5" fill="#4FD1C5"/>
  </g>
</svg>