<svg width="1200" height="630" xmlns="http://www.w3.org/2000/svg">
  <defs>
    <linearGradient id="bgGradient" x1="0%" y1="0%" x2="100%" y2="100%">
      <stop offset="0%" style="stop-color:#0B0F14;stop-opacity:1" />
      <stop offset="50%" style="stop-color:#0F1619;stop-opacity:1" />
      <stop offset="100%" style="stop-color:#0F1922;stop-opacity:1" />
    </linearGradient>
    <linearGradient id="goldGradient" x1="0%" y1="0%" x2="100%" y2="0%">
      <stop offset="0%" style="stop-color:#E5D596;stop-opacity:1" />
      <stop offset="50%" style="stop-color:#CFAE58;stop-opacity:1" />
      <stop offset="100%" style="stop-color:#B89842;stop-opacity:1" />
    </linearGradient>
    <radialGradient id="oceanGradient" cx="50%" cy="50%" r="50%">
      <stop offset="0%" style="stop-color:#4FD1C5;stop-opacity:0.3" />
      <stop offset="100%" style="stop-color:#1E90A0;stop-opacity:0.05" />
    </radialGradient>
    <filter id="glow">
      <feGaussianBlur stdDeviation="5" result="coloredBlur"/>
      <feMerge>
        <feMergeNode in="coloredBlur"/>
        <feMergeNode in="SourceGraphic"/>
      </feMerge>
    </filter>
    <filter id="softGlow">
      <feGaussianBlur stdDeviation="8" result="coloredBlur"/>
      <feMerge>
        <feMergeNode in="coloredBlur"/>
        <feMergeNode in="SourceGraphic"/>
      </feMerge>
    </filter>
    <filter id="shadow">
      <feDropShadow dx="0" dy="4" stdDeviation="8" flood-color="#000000" flood-opacity="0.5"/>
    </filter>
  </defs>

  <!-- Background -->
  <rect width="1200" height="630" fill="url(#bgGradient)"/>

  <!-- Decorative ocean gradients -->
  <ellipse cx="1000" cy="150" rx="300" ry="200" fill="url(#oceanGradient)" opacity="0.4"/>
  <ellipse cx="200" cy="530" rx="250" ry="180" fill="url(#oceanGradient)" opacity="0.3"/>

  <!-- Wave patterns -->
  <path d="M 0 400 Q 300 350 600 400 T 1200 400 L 1200 630 L 0 630 Z" fill="#1E90A0" opacity="0.08"/>
  <path d="M 0 450 Q 250 420 500 450 T 1000 450 T 1200 450 L 1200 630 L 0 630 Z" fill="#4FD1C5" opacity="0.05"/>

  <!-- Caviar roe particles -->
  <circle cx="574.7555430635794" cy="128.39969852462076" r="4.111476796823249" fill="#CFAE58" opacity="0.16655913758479934"/>
  <circle cx="469.8059423905628" cy="312.4063890129216" r="2.7344733286447784" fill="#CFAE58" opacity="0.17050673060494373"/>
  <circle cx="768.8966203657378" cy="289.8612817912882" r="3.272353888829266" fill="#CFAE58" opacity="0.19595160237999681"/>
  <circle cx="175.67351004198764" cy="610.8471121103067" r="3.3347909601932555" fill="#CFAE58" opacity="0.12818151618765983"/>
  <circle cx="1054.6887184267255" cy="448.54682020737584" r="4.230304170350506" fill="#CFAE58" opacity="0.23489506608501495"/>
  <circle cx="729.0404247177966" cy="487.55264422355543" r="3.2169556924508327" fill="#CFAE58" opacity="0.2229432943867487"/>
  <circle cx="109.69999470289342" cy="316.4401736943912" r="2.508149011926809" fill="#CFAE58" opacity="0.18912571464050837"/>
  <circle cx="301.8081625857904" cy="515.6319731003953" r="2.7515314258431087" fill="#CFAE58" opacity="0.2194720119104216"/>
  <circle cx="1099.7423269173137" cy="313.64932077209534" r="5.06636682491054" fill="#CFAE58" opacity="0.18044093600620092"/>
  <circle cx="912.3093455114763" cy="409.1828995820235" r="3.397331352410984" fill="#CFAE58" opacity="0.15893102183936464"/>
  <circle cx="1056.5863411489834" cy="360.32502628850534" r="4.35389084679889" fill="#CFAE58" opacity="0.2036445207088471"/>
  <circle cx="547.2526537156826" cy="470.5069081482504" r="5.4546356621960275" fill="#CFAE58" opacity="0.2125703924950188"/>
  <circle cx="518.5517864435375" cy="69.78202885566392" r="2.5238968492736507" fill="#CFAE58" opacity="0.21110087932908056"/>
  <circle cx="356.489154745442" cy="538.1856699156436" r="4.930926407061257" fill="#CFAE58" opacity="0.1928732037294395"/>
  <circle cx="935.0181891162788" cy="309.09925812980987" r="3.893503076958137" fill="#CFAE58" opacity="0.12260195851485613"/>
  <circle cx="849.0458845788772" cy="326.79535362245673" r="5.4486722599044395" fill="#CFAE58" opacity="0.2375118261315847"/>
  <circle cx="792.0734339648394" cy="322.83137752058997" r="4.852304751717847" fill="#CFAE58" opacity="0.15378328736938648"/>
  <circle cx="230.39772904190477" cy="18.208626457965114" r="5.061091880605763" fill="#CFAE58" opacity="0.24196036840706778"/>
  <circle cx="693.4011889230319" cy="155.95127745700776" r="3.587972538684603" fill="#CFAE58" opacity="0.17860368840753998"/>
  <circle cx="356.3246277232956" cy="100.37091355699827" r="3.874419248162747" fill="#CFAE58" opacity="0.23737381770973198"/>
  <circle cx="792.3546131044178" cy="600.6739069732452" r="3.993277137266089" fill="#CFAE58" opacity="0.1900674534637405"/>
  <circle cx="554.1244358177532" cy="404.7581514075002" r="4.981119358020475" fill="#CFAE58" opacity="0.10790381001827329"/>
  <circle cx="1164.5493931198619" cy="316.28615372003554" r="3.409463947396558" fill="#CFAE58" opacity="0.24628516084757626"/>
  <circle cx="783.8085677469221" cy="458.6035207493274" r="4.6541532067468605" fill="#CFAE58" opacity="0.1977807648527674"/>
  <circle cx="314.45249998795794" cy="113.37058684519195" r="2.0626771022141193" fill="#CFAE58" opacity="0.12638238717915612"/>
  <circle cx="456.9966721223872" cy="478.9024748362918" r="4.2944513284310855" fill="#CFAE58" opacity="0.21779669401811746"/>
  <circle cx="966.3326147701891" cy="574.0936501828169" r="2.618638517285077" fill="#CFAE58" opacity="0.11545204216406375"/>
  <circle cx="553.9850659105854" cy="301.75436811991887" r="3.9580948089827674" fill="#CFAE58" opacity="0.11419199928420166"/>
  <circle cx="535.8815836246303" cy="268.0974111090694" r="5.020121514644982" fill="#CFAE58" opacity="0.24827436176465567"/>
  <circle cx="412.52137065436426" cy="95.53192311817305" r="2.3958699247251722" fill="#CFAE58" opacity="0.17655179629556214"/>

  <!-- Border with glow -->
  <rect x="40" y="40" width="1120" height="550" fill="none" stroke="url(#goldGradient)" stroke-width="3" rx="12" filter="url(#softGlow)"/>

  <!-- Icon circle with premium background -->
  <circle cx="150" cy="200" r="75" fill="#CFAE58" opacity="0.15" filter="url(#softGlow)"/>
  <circle cx="150" cy="200" r="70" fill="#CFAE58" opacity="0.25"/>
  <text x="150" y="235" font-size="90" text-anchor="middle" fill="#CFAE58" filter="url(#glow)">💰</text>

  <!-- Premium logo (crown) with enhanced styling -->
  <g transform="translate(100, 70)">
    <path d="M 30 20 L 40 35 L 35 35 Z M 50 15 L 60 35 L 45 35 Z M 65 20 L 75 35 L 70 35 Z M 30 35 L 75 35 L 73 45 L 32 45 Z"
          fill="url(#goldGradient)" filter="url(#glow)" stroke="#B89842" stroke-width="0.5"/>
    <circle cx="40" cy="25" r="3" fill="#4FD1C5" filter="url(#glow)"/>
    <circle cx="52" cy="20" r="4" fill="#4FD1C5" filter="url(#glow)"/>
    <circle cx="65" cy="25" r="3" fill="#4FD1C5" filter="url(#glow)"/>
  </g>

  <!-- Title with shadow -->
  <text x="280" y="180" font-family="Georgia, serif" font-size="72" font-weight="bold"
        fill="url(#goldGradient)" filter="url(#shadow)">Tour Pricing</text>

  <!-- Subtitle with subtle glow -->
  <text x="280" y="230" font-family="Arial, sans-serif" font-size="36"
        fill="#D6DEE6" opacity="0.95" filter="url(#softGlow)">Family, Premium &amp; Corporate Packages</text>

  <!-- Brand name with letter spacing -->
  <text x="280" y="300" font-family="Georgia, serif" font-size="32" font-weight="bold"
        fill="#CFAE58" letter-spacing="4" filter="url(#glow)">ROYAL KETA</text>

  <!-- Russian tagline -->
  <text x="280" y="340" font-family="Arial, sans-serif" font-size="22" font-style="italic"
        fill="#8B95A1" opacity="0.8">От икринки к королевской</text>

  <!-- Location -->
  <text x="280" y="380" font-family="Arial, sans-serif" font-size="20"
        fill="#8B95A1" opacity="0.7">Невельский район, Сахалин</text>

  <!-- Website with glow -->
  <text x="100" y="570" font-family="Arial, sans-serif" font-size="30" font-weight="bold"
        fill="#4FD1C5" filter="url(#glow)">royalketa.com</text>

  <!-- Enhanced decorative salmon silhouette -->
  <g transform="translate(950, 480)" opacity="0.2" filter="url(#softGlow)">
    <ellipse cx="0" cy="0" rx="90" ry="35" fill="#CFAE58"/>
    <path d="M 90 0 L 120 -18 L 130 0 L 120 18 Z" fill="#CFAE58"/>
    <path d="M -25 -35 L 0 -45 L 25 -35 Z" fill="#CFAE58"/>
    <ellipse cx="-50" cy="0" rx="15" ry="12" fill="#0B0F14"/>
  </g>

  <!-- Additional decorative caviar clusters -->
  <g opacity="0.2">
    <circle cx="1050" cy="120" r="6" fill="#CFAE58"/>
    <circle cx="1065" cy="115" r="5" fill="#CFAE58"/>
    <circle cx="1058" cy="130" r="4" fill="#CFAE58"/>
    <circle cx="150" cy="500" r="5" fill="#4FD1C5"/>
    <circle cx="165" cy="508" r="4" fill="#4FD1C5"/>
    <circle cx="140" cy="512" r="5" fill="#4FD1C5"/>
  </g>
</svg>