<svg width="1200" height="630" xmlns="http://www.w3.org/2000/svg">
  <defs>
    <linearGradient id="bgGradient" x1="0%" y1="0%" x2="100%" y2="100%">
      <stop offset="0%" style="stop-color:#0B0F14;stop-opacity:1" />
      <stop offset="50%" style="stop-color:#0F1619;stop-opacity:1" />
      <stop offset="100%" style="stop-color:#0F1922;stop-opacity:1" />
    </linearGradient>
    <linearGradient id="goldGradient" x1="0%" y1="0%" x2="100%" y2="0%">
      <stop offset="0%" style="stop-color:#E5D596;stop-opacity:1" />
      <stop offset="50%" style="stop-color:#CFAE58;stop-opacity:1" />
      <stop offset="100%" style="stop-color:#B89842;stop-opacity:1" />
    </linearGradient>
    <radialGradient id="oceanGradient" cx="50%" cy="50%" r="50%">
      <stop offset="0%" style="stop-color:#4FD1C5;stop-opacity:0.3" />
      <stop offset="100%" style="stop-color:#1E90A0;stop-opacity:0.05" />
    </radialGradient>
    <filter id="glow">
      <feGaussianBlur stdDeviation="5" result="coloredBlur"/>
      <feMerge>
        <feMergeNode in="coloredBlur"/>
        <feMergeNode in="SourceGraphic"/>
      </feMerge>
    </filter>
    <filter id="softGlow">
      <feGaussianBlur stdDeviation="8" result="coloredBlur"/>
      <feMerge>
        <feMergeNode in="coloredBlur"/>
        <feMergeNode in="SourceGraphic"/>
      </feMerge>
    </filter>
    <filter id="shadow">
      <feDropShadow dx="0" dy="4" stdDeviation="8" flood-color="#000000" flood-opacity="0.5"/>
    </filter>
  </defs>

  <!-- Background -->
  <rect width="1200" height="630" fill="url(#bgGradient)"/>

  <!-- Decorative ocean gradients -->
  <ellipse cx="1000" cy="150" rx="300" ry="200" fill="url(#oceanGradient)" opacity="0.4"/>
  <ellipse cx="200" cy="530" rx="250" ry="180" fill="url(#oceanGradient)" opacity="0.3"/>

  <!-- Wave patterns -->
  <path d="M 0 400 Q 300 350 600 400 T 1200 400 L 1200 630 L 0 630 Z" fill="#1E90A0" opacity="0.08"/>
  <path d="M 0 450 Q 250 420 500 450 T 1000 450 T 1200 450 L 1200 630 L 0 630 Z" fill="#4FD1C5" opacity="0.05"/>

  <!-- Caviar roe particles -->
  <circle cx="1098.0620871323465" cy="381.47817810154714" r="3.4170866831121676" fill="#CFAE58" opacity="0.23020660501496792"/>
  <circle cx="858.9844039392274" cy="513.2417580652817" r="5.412368174017608" fill="#CFAE58" opacity="0.11809675833443696"/>
  <circle cx="382.47522103840964" cy="94.19427621080143" r="2.0713903667580373" fill="#CFAE58" opacity="0.18056511289841315"/>
  <circle cx="188.7416334880371" cy="36.09137321852083" r="4.971341894501174" fill="#CFAE58" opacity="0.11976409972867237"/>
  <circle cx="889.0487385290121" cy="484.10829402815125" r="5.55972366556567" fill="#CFAE58" opacity="0.17590506050722532"/>
  <circle cx="651.8102519192607" cy="399.58553856994104" r="5.026811079863302" fill="#CFAE58" opacity="0.19821319164189022"/>
  <circle cx="93.42862988047114" cy="223.47869962650276" r="3.2544994827520526" fill="#CFAE58" opacity="0.1460164832921125"/>
  <circle cx="692.963440574381" cy="358.19492805465507" r="3.9847781609191326" fill="#CFAE58" opacity="0.10311268426710384"/>
  <circle cx="99.38327343031825" cy="460.54946800130085" r="3.8658866165026526" fill="#CFAE58" opacity="0.13190612752747607"/>
  <circle cx="241.50859561537567" cy="506.96662806811327" r="2.2271370646623834" fill="#CFAE58" opacity="0.1773131775306297"/>
  <circle cx="1105.4040528825385" cy="186.83839894078778" r="5.189336978164317" fill="#CFAE58" opacity="0.15453486779489817"/>
  <circle cx="1182.9005852374037" cy="294.67051732593404" r="2.531532604043371" fill="#CFAE58" opacity="0.2232081210240201"/>
  <circle cx="1087.7668015435202" cy="290.60012494034106" r="4.782326780337441" fill="#CFAE58" opacity="0.22474188922513738"/>
  <circle cx="817.1167064322217" cy="428.64929237550587" r="5.5664281328155845" fill="#CFAE58" opacity="0.2391062376339684"/>
  <circle cx="956.5985828066655" cy="12.288852016341565" r="4.960557202960995" fill="#CFAE58" opacity="0.23885210157568532"/>
  <circle cx="68.65759444139611" cy="511.60622388318717" r="2.680618246659254" fill="#CFAE58" opacity="0.1871285457754226"/>
  <circle cx="946.5991207206034" cy="361.817654088205" r="4.7722630120859995" fill="#CFAE58" opacity="0.2083988417464117"/>
  <circle cx="392.3890627075164" cy="466.0996205970481" r="4.674391400031363" fill="#CFAE58" opacity="0.22396179030785457"/>
  <circle cx="230.30494983909722" cy="390.14184302446347" r="3.0623578658918476" fill="#CFAE58" opacity="0.1830504593054128"/>
  <circle cx="967.5197125353844" cy="72.45093500242122" r="3.7192472165882657" fill="#CFAE58" opacity="0.21679236955278294"/>
  <circle cx="431.9151819672646" cy="484.6989721109026" r="5.609009024069563" fill="#CFAE58" opacity="0.10902039725897675"/>
  <circle cx="973.0958674264356" cy="142.20092455053364" r="3.7451084144350846" fill="#CFAE58" opacity="0.12362549590470495"/>
  <circle cx="333.9820866055978" cy="36.39701489492171" r="4.401596934114013" fill="#CFAE58" opacity="0.24914007330861399"/>
  <circle cx="414.1847487940425" cy="33.95217074485405" r="4.13072579687299" fill="#CFAE58" opacity="0.17699336458040738"/>
  <circle cx="1052.934253740658" cy="170.7681053973686" r="3.9681729529028997" fill="#CFAE58" opacity="0.17355595713772068"/>
  <circle cx="329.5782958290452" cy="589.067449952989" r="5.5441452483770775" fill="#CFAE58" opacity="0.10060703841941374"/>
  <circle cx="930.6292742435331" cy="281.09862651919167" r="2.316985906978634" fill="#CFAE58" opacity="0.19351480560683237"/>
  <circle cx="238.27854004882778" cy="206.44808253836126" r="5.677355070474762" fill="#CFAE58" opacity="0.21311636225192154"/>
  <circle cx="57.37836949066892" cy="149.70147999565964" r="5.140008911698763" fill="#CFAE58" opacity="0.186001749074024"/>
  <circle cx="134.3742765118908" cy="20.739115450094268" r="5.341137768838859" fill="#CFAE58" opacity="0.12836881152981947"/>

  <!-- Border with glow -->
  <rect x="40" y="40" width="1120" height="550" fill="none" stroke="url(#goldGradient)" stroke-width="3" rx="12" filter="url(#softGlow)"/>

  <!-- Icon circle with premium background -->
  <circle cx="150" cy="200" r="75" fill="#CFAE58" opacity="0.15" filter="url(#softGlow)"/>
  <circle cx="150" cy="200" r="70" fill="#CFAE58" opacity="0.25"/>
  <text x="150" y="235" font-size="90" text-anchor="middle" fill="#CFAE58" filter="url(#glow)">💰</text>

  <!-- Premium logo (crown) with enhanced styling -->
  <g transform="translate(100, 70)">
    <path d="M 30 20 L 40 35 L 35 35 Z M 50 15 L 60 35 L 45 35 Z M 65 20 L 75 35 L 70 35 Z M 30 35 L 75 35 L 73 45 L 32 45 Z"
          fill="url(#goldGradient)" filter="url(#glow)" stroke="#B89842" stroke-width="0.5"/>
    <circle cx="40" cy="25" r="3" fill="#4FD1C5" filter="url(#glow)"/>
    <circle cx="52" cy="20" r="4" fill="#4FD1C5" filter="url(#glow)"/>
    <circle cx="65" cy="25" r="3" fill="#4FD1C5" filter="url(#glow)"/>
  </g>

  <!-- Title with shadow -->
  <text x="280" y="180" font-family="Georgia, serif" font-size="72" font-weight="bold"
        fill="url(#goldGradient)" filter="url(#shadow)">Tour Pricing</text>

  <!-- Subtitle with subtle glow -->
  <text x="280" y="230" font-family="Arial, sans-serif" font-size="36"
        fill="#D6DEE6" opacity="0.95" filter="url(#softGlow)">Family, Premium &amp; Corporate Packages</text>

  <!-- Brand name with letter spacing -->
  <text x="280" y="300" font-family="Georgia, serif" font-size="32" font-weight="bold"
        fill="#CFAE58" letter-spacing="4" filter="url(#glow)">ROYAL KETA</text>

  <!-- Russian tagline -->
  <text x="280" y="340" font-family="Arial, sans-serif" font-size="22" font-style="italic"
        fill="#8B95A1" opacity="0.8">От икринки к королевской</text>

  <!-- Location -->
  <text x="280" y="380" font-family="Arial, sans-serif" font-size="20"
        fill="#8B95A1" opacity="0.7">Невельский район, Сахалин</text>

  <!-- Website with glow -->
  <text x="100" y="570" font-family="Arial, sans-serif" font-size="30" font-weight="bold"
        fill="#4FD1C5" filter="url(#glow)">royalketa.com</text>

  <!-- Enhanced decorative salmon silhouette -->
  <g transform="translate(950, 480)" opacity="0.2" filter="url(#softGlow)">
    <ellipse cx="0" cy="0" rx="90" ry="35" fill="#CFAE58"/>
    <path d="M 90 0 L 120 -18 L 130 0 L 120 18 Z" fill="#CFAE58"/>
    <path d="M -25 -35 L 0 -45 L 25 -35 Z" fill="#CFAE58"/>
    <ellipse cx="-50" cy="0" rx="15" ry="12" fill="#0B0F14"/>
  </g>

  <!-- Additional decorative caviar clusters -->
  <g opacity="0.2">
    <circle cx="1050" cy="120" r="6" fill="#CFAE58"/>
    <circle cx="1065" cy="115" r="5" fill="#CFAE58"/>
    <circle cx="1058" cy="130" r="4" fill="#CFAE58"/>
    <circle cx="150" cy="500" r="5" fill="#4FD1C5"/>
    <circle cx="165" cy="508" r="4" fill="#4FD1C5"/>
    <circle cx="140" cy="512" r="5" fill="#4FD1C5"/>
  </g>
</svg>