<svg width="1200" height="630" xmlns="http://www.w3.org/2000/svg">
  <defs>
    <linearGradient id="bgGradient" x1="0%" y1="0%" x2="100%" y2="100%">
      <stop offset="0%" style="stop-color:#0B0F14;stop-opacity:1" />
      <stop offset="50%" style="stop-color:#0F1619;stop-opacity:1" />
      <stop offset="100%" style="stop-color:#0F1922;stop-opacity:1" />
    </linearGradient>
    <linearGradient id="goldGradient" x1="0%" y1="0%" x2="100%" y2="0%">
      <stop offset="0%" style="stop-color:#E5D596;stop-opacity:1" />
      <stop offset="50%" style="stop-color:#CFAE58;stop-opacity:1" />
      <stop offset="100%" style="stop-color:#B89842;stop-opacity:1" />
    </linearGradient>
    <radialGradient id="oceanGradient" cx="50%" cy="50%" r="50%">
      <stop offset="0%" style="stop-color:#4FD1C5;stop-opacity:0.3" />
      <stop offset="100%" style="stop-color:#1E90A0;stop-opacity:0.05" />
    </radialGradient>
    <filter id="glow">
      <feGaussianBlur stdDeviation="5" result="coloredBlur"/>
      <feMerge>
        <feMergeNode in="coloredBlur"/>
        <feMergeNode in="SourceGraphic"/>
      </feMerge>
    </filter>
    <filter id="softGlow">
      <feGaussianBlur stdDeviation="8" result="coloredBlur"/>
      <feMerge>
        <feMergeNode in="coloredBlur"/>
        <feMergeNode in="SourceGraphic"/>
      </feMerge>
    </filter>
    <filter id="shadow">
      <feDropShadow dx="0" dy="4" stdDeviation="8" flood-color="#000000" flood-opacity="0.5"/>
    </filter>
  </defs>

  <!-- Background -->
  <rect width="1200" height="630" fill="url(#bgGradient)"/>

  <!-- Decorative ocean gradients -->
  <ellipse cx="1000" cy="150" rx="300" ry="200" fill="url(#oceanGradient)" opacity="0.4"/>
  <ellipse cx="200" cy="530" rx="250" ry="180" fill="url(#oceanGradient)" opacity="0.3"/>

  <!-- Wave patterns -->
  <path d="M 0 400 Q 300 350 600 400 T 1200 400 L 1200 630 L 0 630 Z" fill="#1E90A0" opacity="0.08"/>
  <path d="M 0 450 Q 250 420 500 450 T 1000 450 T 1200 450 L 1200 630 L 0 630 Z" fill="#4FD1C5" opacity="0.05"/>

  <!-- Caviar roe particles -->
  <circle cx="262.95887756584966" cy="93.29811693471116" r="4.927467656641952" fill="#CFAE58" opacity="0.2334590939898427"/>
  <circle cx="464.33876505258553" cy="593.8312815896109" r="2.6326907765821654" fill="#CFAE58" opacity="0.19871393637453555"/>
  <circle cx="346.9852622609507" cy="63.32610602273599" r="3.8249517221823894" fill="#CFAE58" opacity="0.11554088834300978"/>
  <circle cx="501.0213401190657" cy="593.7172064574571" r="4.674438090139418" fill="#CFAE58" opacity="0.18583864179136278"/>
  <circle cx="558.9157542683655" cy="81.7488746006495" r="5.3867042338560225" fill="#CFAE58" opacity="0.18711365031615806"/>
  <circle cx="747.6306189389018" cy="610.8976149920553" r="2.4382417114561905" fill="#CFAE58" opacity="0.24185143267878764"/>
  <circle cx="69.8325460739695" cy="492.37421871807675" r="4.77608130754078" fill="#CFAE58" opacity="0.15049287413112483"/>
  <circle cx="570.3318526070775" cy="23.390933701493356" r="3.8950815375703045" fill="#CFAE58" opacity="0.16847874550767675"/>
  <circle cx="455.3434502537307" cy="507.74686582487027" r="4.647088539036841" fill="#CFAE58" opacity="0.12314755772661232"/>
  <circle cx="559.5750295746882" cy="244.37603559080247" r="2.5066410084388604" fill="#CFAE58" opacity="0.21755540153272063"/>
  <circle cx="452.0334053618133" cy="112.66791312442625" r="5.132980117849223" fill="#CFAE58" opacity="0.23486658358483783"/>
  <circle cx="267.3965109407473" cy="159.01665366713627" r="5.106146692047579" fill="#CFAE58" opacity="0.23423344590170417"/>
  <circle cx="691.5363176276052" cy="13.87809972693509" r="3.77791638658972" fill="#CFAE58" opacity="0.13710749078849213"/>
  <circle cx="686.9061269389899" cy="227.69063758433822" r="3.214122063916258" fill="#CFAE58" opacity="0.11703165258236417"/>
  <circle cx="394.89240903794143" cy="399.3595766221706" r="3.9076683752840555" fill="#CFAE58" opacity="0.12004516681618581"/>
  <circle cx="214.4099892802624" cy="444.2408049478987" r="3.9889678479122743" fill="#CFAE58" opacity="0.15651227839342505"/>
  <circle cx="549.3696805336622" cy="106.35828539454997" r="4.887858343948052" fill="#CFAE58" opacity="0.12925742208349414"/>
  <circle cx="488.7908764991026" cy="587.9385102948834" r="4.45384936713833" fill="#CFAE58" opacity="0.15160087654030596"/>
  <circle cx="41.406984890972254" cy="122.85697091941626" r="2.3735586084740015" fill="#CFAE58" opacity="0.20744678201566918"/>
  <circle cx="116.37965013773388" cy="397.2516282325001" r="5.93321001906796" fill="#CFAE58" opacity="0.12179948388699613"/>
  <circle cx="851.258385419003" cy="187.8680245639019" r="5.091942899271938" fill="#CFAE58" opacity="0.11354332482369509"/>
  <circle cx="521.9113456037286" cy="563.0285698372936" r="4.146064763477218" fill="#CFAE58" opacity="0.11890264101026912"/>
  <circle cx="788.4846217071932" cy="28.774562393526214" r="2.751952923100415" fill="#CFAE58" opacity="0.17499356747092149"/>
  <circle cx="57.195605980741384" cy="312.7573122511673" r="3.1448780193497723" fill="#CFAE58" opacity="0.2341213194682939"/>
  <circle cx="202.8762140636235" cy="437.12203272321784" r="4.144208945119333" fill="#CFAE58" opacity="0.10649622443833749"/>
  <circle cx="468.722946469483" cy="596.4721000550263" r="5.993989672536965" fill="#CFAE58" opacity="0.23350507492277645"/>
  <circle cx="908.4581659375029" cy="519.3160120565425" r="3.1232449210426587" fill="#CFAE58" opacity="0.10192935930232283"/>
  <circle cx="490.61453417809446" cy="487.04960802710207" r="4.619640847522405" fill="#CFAE58" opacity="0.15562444157090904"/>
  <circle cx="936.828988740309" cy="252.69206417241867" r="2.7134249450004764" fill="#CFAE58" opacity="0.24083463666240967"/>
  <circle cx="951.2804159973756" cy="517.015339465239" r="5.770835834929653" fill="#CFAE58" opacity="0.1219454948477053"/>

  <!-- Border with glow -->
  <rect x="40" y="40" width="1120" height="550" fill="none" stroke="url(#goldGradient)" stroke-width="3" rx="12" filter="url(#softGlow)"/>

  <!-- Icon circle with premium background -->
  <circle cx="150" cy="200" r="75" fill="#CFAE58" opacity="0.15" filter="url(#softGlow)"/>
  <circle cx="150" cy="200" r="70" fill="#CFAE58" opacity="0.25"/>
  <text x="150" y="235" font-size="90" text-anchor="middle" fill="#CFAE58" filter="url(#glow)">💰</text>

  <!-- Premium logo (crown) with enhanced styling -->
  <g transform="translate(100, 70)">
    <path d="M 30 20 L 40 35 L 35 35 Z M 50 15 L 60 35 L 45 35 Z M 65 20 L 75 35 L 70 35 Z M 30 35 L 75 35 L 73 45 L 32 45 Z"
          fill="url(#goldGradient)" filter="url(#glow)" stroke="#B89842" stroke-width="0.5"/>
    <circle cx="40" cy="25" r="3" fill="#4FD1C5" filter="url(#glow)"/>
    <circle cx="52" cy="20" r="4" fill="#4FD1C5" filter="url(#glow)"/>
    <circle cx="65" cy="25" r="3" fill="#4FD1C5" filter="url(#glow)"/>
  </g>

  <!-- Title with shadow -->
  <text x="280" y="180" font-family="Georgia, serif" font-size="72" font-weight="bold"
        fill="url(#goldGradient)" filter="url(#shadow)">Tour Pricing</text>

  <!-- Subtitle with subtle glow -->
  <text x="280" y="230" font-family="Arial, sans-serif" font-size="36"
        fill="#D6DEE6" opacity="0.95" filter="url(#softGlow)">Family, Premium &amp; Corporate Packages</text>

  <!-- Brand name with letter spacing -->
  <text x="280" y="300" font-family="Georgia, serif" font-size="32" font-weight="bold"
        fill="#CFAE58" letter-spacing="4" filter="url(#glow)">ROYAL KETA</text>

  <!-- Russian tagline -->
  <text x="280" y="340" font-family="Arial, sans-serif" font-size="22" font-style="italic"
        fill="#8B95A1" opacity="0.8">От икринки к королевской</text>

  <!-- Location -->
  <text x="280" y="380" font-family="Arial, sans-serif" font-size="20"
        fill="#8B95A1" opacity="0.7">Невельский район, Сахалин</text>

  <!-- Website with glow -->
  <text x="100" y="570" font-family="Arial, sans-serif" font-size="30" font-weight="bold"
        fill="#4FD1C5" filter="url(#glow)">royalketa.com</text>

  <!-- Enhanced decorative salmon silhouette -->
  <g transform="translate(950, 480)" opacity="0.2" filter="url(#softGlow)">
    <ellipse cx="0" cy="0" rx="90" ry="35" fill="#CFAE58"/>
    <path d="M 90 0 L 120 -18 L 130 0 L 120 18 Z" fill="#CFAE58"/>
    <path d="M -25 -35 L 0 -45 L 25 -35 Z" fill="#CFAE58"/>
    <ellipse cx="-50" cy="0" rx="15" ry="12" fill="#0B0F14"/>
  </g>

  <!-- Additional decorative caviar clusters -->
  <g opacity="0.2">
    <circle cx="1050" cy="120" r="6" fill="#CFAE58"/>
    <circle cx="1065" cy="115" r="5" fill="#CFAE58"/>
    <circle cx="1058" cy="130" r="4" fill="#CFAE58"/>
    <circle cx="150" cy="500" r="5" fill="#4FD1C5"/>
    <circle cx="165" cy="508" r="4" fill="#4FD1C5"/>
    <circle cx="140" cy="512" r="5" fill="#4FD1C5"/>
  </g>
</svg>