<svg width="1200" height="630" xmlns="http://www.w3.org/2000/svg">
  <defs>
    <linearGradient id="bgGradient" x1="0%" y1="0%" x2="100%" y2="100%">
      <stop offset="0%" style="stop-color:#0B0F14;stop-opacity:1" />
      <stop offset="50%" style="stop-color:#0F1619;stop-opacity:1" />
      <stop offset="100%" style="stop-color:#0F1922;stop-opacity:1" />
    </linearGradient>
    <linearGradient id="goldGradient" x1="0%" y1="0%" x2="100%" y2="0%">
      <stop offset="0%" style="stop-color:#E5D596;stop-opacity:1" />
      <stop offset="50%" style="stop-color:#CFAE58;stop-opacity:1" />
      <stop offset="100%" style="stop-color:#B89842;stop-opacity:1" />
    </linearGradient>
    <radialGradient id="oceanGradient" cx="50%" cy="50%" r="50%">
      <stop offset="0%" style="stop-color:#4FD1C5;stop-opacity:0.3" />
      <stop offset="100%" style="stop-color:#1E90A0;stop-opacity:0.05" />
    </radialGradient>
    <filter id="glow">
      <feGaussianBlur stdDeviation="5" result="coloredBlur"/>
      <feMerge>
        <feMergeNode in="coloredBlur"/>
        <feMergeNode in="SourceGraphic"/>
      </feMerge>
    </filter>
    <filter id="softGlow">
      <feGaussianBlur stdDeviation="8" result="coloredBlur"/>
      <feMerge>
        <feMergeNode in="coloredBlur"/>
        <feMergeNode in="SourceGraphic"/>
      </feMerge>
    </filter>
    <filter id="shadow">
      <feDropShadow dx="0" dy="4" stdDeviation="8" flood-color="#000000" flood-opacity="0.5"/>
    </filter>
  </defs>

  <!-- Background -->
  <rect width="1200" height="630" fill="url(#bgGradient)"/>

  <!-- Decorative ocean gradients -->
  <ellipse cx="1000" cy="150" rx="300" ry="200" fill="url(#oceanGradient)" opacity="0.4"/>
  <ellipse cx="200" cy="530" rx="250" ry="180" fill="url(#oceanGradient)" opacity="0.3"/>

  <!-- Wave patterns -->
  <path d="M 0 400 Q 300 350 600 400 T 1200 400 L 1200 630 L 0 630 Z" fill="#1E90A0" opacity="0.08"/>
  <path d="M 0 450 Q 250 420 500 450 T 1000 450 T 1200 450 L 1200 630 L 0 630 Z" fill="#4FD1C5" opacity="0.05"/>

  <!-- Caviar roe particles -->
  <circle cx="990.173298001356" cy="159.6872834743479" r="2.4296701115153083" fill="#CFAE58" opacity="0.11470462548439658"/>
  <circle cx="1180.623003317265" cy="57.045411490159395" r="4.95722499804608" fill="#CFAE58" opacity="0.23252205161441147"/>
  <circle cx="198.2796846753103" cy="134.91146526567357" r="2.1004057432547647" fill="#CFAE58" opacity="0.1791645535949971"/>
  <circle cx="1176.2910579503557" cy="339.69491362910475" r="4.481501546056125" fill="#CFAE58" opacity="0.1763840124838687"/>
  <circle cx="897.3091564401484" cy="70.3412309642984" r="5.675901071589875" fill="#CFAE58" opacity="0.13183720867413964"/>
  <circle cx="1065.2550091967546" cy="250.30596431342067" r="3.6463346177098863" fill="#CFAE58" opacity="0.12646078107152822"/>
  <circle cx="1088.0810270558097" cy="490.7271451755471" r="3.193332856813244" fill="#CFAE58" opacity="0.20690357517008934"/>
  <circle cx="553.7104436377485" cy="59.40863278733126" r="5.952632700646989" fill="#CFAE58" opacity="0.13731699926236388"/>
  <circle cx="1164.6008822366066" cy="576.2142447180181" r="2.7417932696395515" fill="#CFAE58" opacity="0.13289541584487752"/>
  <circle cx="655.7803076136317" cy="393.53522166014534" r="2.8339954045356137" fill="#CFAE58" opacity="0.20194001845909498"/>
  <circle cx="641.2655444863221" cy="214.55536136448853" r="2.8815211794002074" fill="#CFAE58" opacity="0.23373453995236798"/>
  <circle cx="421.0605413756617" cy="116.99783924423274" r="2.3768341211184016" fill="#CFAE58" opacity="0.15917466865468685"/>
  <circle cx="1120.8513646741442" cy="309.6632013546798" r="2.586241586694361" fill="#CFAE58" opacity="0.22676542699573207"/>
  <circle cx="175.2907056676436" cy="610.6944695184425" r="4.466971994612141" fill="#CFAE58" opacity="0.20944499739319433"/>
  <circle cx="254.7296144919128" cy="102.3755140455552" r="4.0383880692168574" fill="#CFAE58" opacity="0.12947700500763792"/>
  <circle cx="220.87120365891172" cy="302.4807018352116" r="2.7578117354494753" fill="#CFAE58" opacity="0.18448244668921307"/>
  <circle cx="966.9733185866761" cy="489.4781703121408" r="3.2025915465259516" fill="#CFAE58" opacity="0.19223414227397256"/>
  <circle cx="718.614332839441" cy="482.9102996343689" r="5.5464977017763" fill="#CFAE58" opacity="0.2246335079750028"/>
  <circle cx="1102.8556628379208" cy="346.8573570883189" r="4.373203248410242" fill="#CFAE58" opacity="0.12974253588958234"/>
  <circle cx="566.2377643900064" cy="624.1005029420722" r="5.6060339875943015" fill="#CFAE58" opacity="0.19579383825329155"/>
  <circle cx="1018.9042014484683" cy="432.6399798933505" r="3.2594552748677112" fill="#CFAE58" opacity="0.21702569524740642"/>
  <circle cx="969.7341943702199" cy="397.09951680761975" r="2.902034919758157" fill="#CFAE58" opacity="0.19898996689072262"/>
  <circle cx="471.45237355209974" cy="63.51782987729379" r="4.956596732868928" fill="#CFAE58" opacity="0.2247174162543444"/>
  <circle cx="47.55240293588976" cy="75.58886923971494" r="5.989832363634971" fill="#CFAE58" opacity="0.21738183789862348"/>
  <circle cx="768.7573777817057" cy="350.047247074321" r="2.889417683367582" fill="#CFAE58" opacity="0.11911044574576443"/>
  <circle cx="195.52891651808872" cy="158.74363318516677" r="5.488391262412593" fill="#CFAE58" opacity="0.17029742432470196"/>
  <circle cx="749.2776226495769" cy="271.81504733039037" r="2.3557300110048907" fill="#CFAE58" opacity="0.21131122298374094"/>
  <circle cx="731.7847559964855" cy="377.81539365916984" r="5.700746017059547" fill="#CFAE58" opacity="0.22837121511949698"/>
  <circle cx="413.91434138522135" cy="269.7249786842795" r="4.743828107238906" fill="#CFAE58" opacity="0.17726722223692934"/>
  <circle cx="117.12444390486093" cy="247.84677731539145" r="5.901865731828384" fill="#CFAE58" opacity="0.2016284022818903"/>

  <!-- Border with glow -->
  <rect x="40" y="40" width="1120" height="550" fill="none" stroke="url(#goldGradient)" stroke-width="3" rx="12" filter="url(#softGlow)"/>

  <!-- Icon circle with premium background -->
  <circle cx="150" cy="200" r="75" fill="#CFAE58" opacity="0.15" filter="url(#softGlow)"/>
  <circle cx="150" cy="200" r="70" fill="#CFAE58" opacity="0.25"/>
  <text x="150" y="235" font-size="90" text-anchor="middle" fill="#CFAE58" filter="url(#glow)">💰</text>

  <!-- Premium logo (crown) with enhanced styling -->
  <g transform="translate(100, 70)">
    <path d="M 30 20 L 40 35 L 35 35 Z M 50 15 L 60 35 L 45 35 Z M 65 20 L 75 35 L 70 35 Z M 30 35 L 75 35 L 73 45 L 32 45 Z"
          fill="url(#goldGradient)" filter="url(#glow)" stroke="#B89842" stroke-width="0.5"/>
    <circle cx="40" cy="25" r="3" fill="#4FD1C5" filter="url(#glow)"/>
    <circle cx="52" cy="20" r="4" fill="#4FD1C5" filter="url(#glow)"/>
    <circle cx="65" cy="25" r="3" fill="#4FD1C5" filter="url(#glow)"/>
  </g>

  <!-- Title with shadow -->
  <text x="280" y="180" font-family="Georgia, serif" font-size="72" font-weight="bold"
        fill="url(#goldGradient)" filter="url(#shadow)">Tour Pricing</text>

  <!-- Subtitle with subtle glow -->
  <text x="280" y="230" font-family="Arial, sans-serif" font-size="36"
        fill="#D6DEE6" opacity="0.95" filter="url(#softGlow)">Family, Premium &amp; Corporate Packages</text>

  <!-- Brand name with letter spacing -->
  <text x="280" y="300" font-family="Georgia, serif" font-size="32" font-weight="bold"
        fill="#CFAE58" letter-spacing="4" filter="url(#glow)">ROYAL KETA</text>

  <!-- Russian tagline -->
  <text x="280" y="340" font-family="Arial, sans-serif" font-size="22" font-style="italic"
        fill="#8B95A1" opacity="0.8">От икринки к королевской</text>

  <!-- Location -->
  <text x="280" y="380" font-family="Arial, sans-serif" font-size="20"
        fill="#8B95A1" opacity="0.7">Невельский район, Сахалин</text>

  <!-- Website with glow -->
  <text x="100" y="570" font-family="Arial, sans-serif" font-size="30" font-weight="bold"
        fill="#4FD1C5" filter="url(#glow)">royalketa.com</text>

  <!-- Enhanced decorative salmon silhouette -->
  <g transform="translate(950, 480)" opacity="0.2" filter="url(#softGlow)">
    <ellipse cx="0" cy="0" rx="90" ry="35" fill="#CFAE58"/>
    <path d="M 90 0 L 120 -18 L 130 0 L 120 18 Z" fill="#CFAE58"/>
    <path d="M -25 -35 L 0 -45 L 25 -35 Z" fill="#CFAE58"/>
    <ellipse cx="-50" cy="0" rx="15" ry="12" fill="#0B0F14"/>
  </g>

  <!-- Additional decorative caviar clusters -->
  <g opacity="0.2">
    <circle cx="1050" cy="120" r="6" fill="#CFAE58"/>
    <circle cx="1065" cy="115" r="5" fill="#CFAE58"/>
    <circle cx="1058" cy="130" r="4" fill="#CFAE58"/>
    <circle cx="150" cy="500" r="5" fill="#4FD1C5"/>
    <circle cx="165" cy="508" r="4" fill="#4FD1C5"/>
    <circle cx="140" cy="512" r="5" fill="#4FD1C5"/>
  </g>
</svg>