<svg width="1200" height="630" xmlns="http://www.w3.org/2000/svg">
  <defs>
    <linearGradient id="bgGradient" x1="0%" y1="0%" x2="100%" y2="100%">
      <stop offset="0%" style="stop-color:#0B0F14;stop-opacity:1" />
      <stop offset="50%" style="stop-color:#0F1619;stop-opacity:1" />
      <stop offset="100%" style="stop-color:#0F1922;stop-opacity:1" />
    </linearGradient>
    <linearGradient id="goldGradient" x1="0%" y1="0%" x2="100%" y2="0%">
      <stop offset="0%" style="stop-color:#E5D596;stop-opacity:1" />
      <stop offset="50%" style="stop-color:#CFAE58;stop-opacity:1" />
      <stop offset="100%" style="stop-color:#B89842;stop-opacity:1" />
    </linearGradient>
    <radialGradient id="oceanGradient" cx="50%" cy="50%" r="50%">
      <stop offset="0%" style="stop-color:#4FD1C5;stop-opacity:0.3" />
      <stop offset="100%" style="stop-color:#1E90A0;stop-opacity:0.05" />
    </radialGradient>
    <filter id="glow">
      <feGaussianBlur stdDeviation="5" result="coloredBlur"/>
      <feMerge>
        <feMergeNode in="coloredBlur"/>
        <feMergeNode in="SourceGraphic"/>
      </feMerge>
    </filter>
    <filter id="softGlow">
      <feGaussianBlur stdDeviation="8" result="coloredBlur"/>
      <feMerge>
        <feMergeNode in="coloredBlur"/>
        <feMergeNode in="SourceGraphic"/>
      </feMerge>
    </filter>
    <filter id="shadow">
      <feDropShadow dx="0" dy="4" stdDeviation="8" flood-color="#000000" flood-opacity="0.5"/>
    </filter>
  </defs>

  <!-- Background -->
  <rect width="1200" height="630" fill="url(#bgGradient)"/>

  <!-- Decorative ocean gradients -->
  <ellipse cx="1000" cy="150" rx="300" ry="200" fill="url(#oceanGradient)" opacity="0.4"/>
  <ellipse cx="200" cy="530" rx="250" ry="180" fill="url(#oceanGradient)" opacity="0.3"/>

  <!-- Wave patterns -->
  <path d="M 0 400 Q 300 350 600 400 T 1200 400 L 1200 630 L 0 630 Z" fill="#1E90A0" opacity="0.08"/>
  <path d="M 0 450 Q 250 420 500 450 T 1000 450 T 1200 450 L 1200 630 L 0 630 Z" fill="#4FD1C5" opacity="0.05"/>

  <!-- Caviar roe particles -->
  <circle cx="199.39905482739545" cy="609.4601770407846" r="2.3416122364731624" fill="#CFAE58" opacity="0.10164338727787411"/>
  <circle cx="649.8232292213818" cy="596.8561616491492" r="2.1557748053545254" fill="#CFAE58" opacity="0.14300885848387293"/>
  <circle cx="802.1388416215702" cy="273.9884969491707" r="4.642820562069578" fill="#CFAE58" opacity="0.15025990444866716"/>
  <circle cx="761.6595796868846" cy="76.52720361954978" r="3.808153537775702" fill="#CFAE58" opacity="0.10577222817642151"/>
  <circle cx="550.2408111542007" cy="80.19160709998131" r="4.164564072151504" fill="#CFAE58" opacity="0.17403948001495256"/>
  <circle cx="1162.2593897309887" cy="361.0152133363554" r="2.72513260535732" fill="#CFAE58" opacity="0.1750563306333512"/>
  <circle cx="164.94792248124872" cy="443.1171580535338" r="2.1127193272817415" fill="#CFAE58" opacity="0.19335992050521977"/>
  <circle cx="519.2121453371087" cy="462.7611900568643" r="3.538018078830855" fill="#CFAE58" opacity="0.21870082167041394"/>
  <circle cx="1067.8884449431357" cy="44.68847349256291" r="5.379804688902774" fill="#CFAE58" opacity="0.21338981473017482"/>
  <circle cx="677.2641474537706" cy="290.6451568817865" r="3.1923130344327184" fill="#CFAE58" opacity="0.19367828930519632"/>
  <circle cx="368.87206274397624" cy="314.9671566326993" r="3.563641230338659" fill="#CFAE58" opacity="0.24223707754967355"/>
  <circle cx="909.9649904002704" cy="554.5503373261001" r="3.4988253053432015" fill="#CFAE58" opacity="0.21583774949218246"/>
  <circle cx="779.1775536475808" cy="180.36982585307533" r="4.732190254480486" fill="#CFAE58" opacity="0.17407241347190314"/>
  <circle cx="366.63274085571044" cy="603.5437030495626" r="4.58582502317322" fill="#CFAE58" opacity="0.2094945296613976"/>
  <circle cx="477.5758949634696" cy="135.66270246679838" r="3.634413351015957" fill="#CFAE58" opacity="0.1172245787601478"/>
  <circle cx="779.4336071550758" cy="260.5982325917164" r="2.3301176326595074" fill="#CFAE58" opacity="0.13819594815987346"/>
  <circle cx="437.62822670859475" cy="465.6918391052059" r="5.0702238755287965" fill="#CFAE58" opacity="0.14769069832721063"/>
  <circle cx="868.1888827153629" cy="322.1948638789468" r="4.648391996784039" fill="#CFAE58" opacity="0.10971031601120101"/>
  <circle cx="422.99407337668845" cy="594.299638535238" r="3.519757170235457" fill="#CFAE58" opacity="0.23201037841687508"/>
  <circle cx="299.90669486534944" cy="551.7762570153021" r="4.140286608062594" fill="#CFAE58" opacity="0.2400633012718788"/>
  <circle cx="723.8881574648212" cy="262.14940887166733" r="4.34117717527543" fill="#CFAE58" opacity="0.16595971396354553"/>
  <circle cx="300.5677193474252" cy="280.7389299808848" r="2.2011033274612446" fill="#CFAE58" opacity="0.10421889084347748"/>
  <circle cx="391.6251676528058" cy="143.4801689456284" r="5.880591663748692" fill="#CFAE58" opacity="0.20390585273942197"/>
  <circle cx="465.3012035237386" cy="541.077456963244" r="5.981711518560891" fill="#CFAE58" opacity="0.2412241130169415"/>
  <circle cx="1135.95371108315" cy="47.61510485164067" r="5.351710899827799" fill="#CFAE58" opacity="0.23593539238032848"/>
  <circle cx="387.37068988623724" cy="313.11492778080196" r="3.6040793865783787" fill="#CFAE58" opacity="0.12455015520962685"/>
  <circle cx="1027.400862641546" cy="572.5708979286003" r="3.159238565165994" fill="#CFAE58" opacity="0.12681925702112676"/>
  <circle cx="676.8027258612216" cy="594.290969268808" r="2.8324133536760714" fill="#CFAE58" opacity="0.13410759554645307"/>
  <circle cx="180.73397510156246" cy="476.56267662837973" r="4.250348789945925" fill="#CFAE58" opacity="0.1685407426223477"/>
  <circle cx="562.5033778982809" cy="67.26160147979746" r="4.959316190693102" fill="#CFAE58" opacity="0.17651035445511482"/>

  <!-- Border with glow -->
  <rect x="40" y="40" width="1120" height="550" fill="none" stroke="url(#goldGradient)" stroke-width="3" rx="12" filter="url(#softGlow)"/>

  <!-- Icon circle with premium background -->
  <circle cx="150" cy="200" r="75" fill="#CFAE58" opacity="0.15" filter="url(#softGlow)"/>
  <circle cx="150" cy="200" r="70" fill="#CFAE58" opacity="0.25"/>
  <text x="150" y="235" font-size="90" text-anchor="middle" fill="#CFAE58" filter="url(#glow)">💰</text>

  <!-- Premium logo (crown) with enhanced styling -->
  <g transform="translate(100, 70)">
    <path d="M 30 20 L 40 35 L 35 35 Z M 50 15 L 60 35 L 45 35 Z M 65 20 L 75 35 L 70 35 Z M 30 35 L 75 35 L 73 45 L 32 45 Z"
          fill="url(#goldGradient)" filter="url(#glow)" stroke="#B89842" stroke-width="0.5"/>
    <circle cx="40" cy="25" r="3" fill="#4FD1C5" filter="url(#glow)"/>
    <circle cx="52" cy="20" r="4" fill="#4FD1C5" filter="url(#glow)"/>
    <circle cx="65" cy="25" r="3" fill="#4FD1C5" filter="url(#glow)"/>
  </g>

  <!-- Title with shadow -->
  <text x="280" y="180" font-family="Georgia, serif" font-size="72" font-weight="bold"
        fill="url(#goldGradient)" filter="url(#shadow)">Tour Pricing</text>

  <!-- Subtitle with subtle glow -->
  <text x="280" y="230" font-family="Arial, sans-serif" font-size="36"
        fill="#D6DEE6" opacity="0.95" filter="url(#softGlow)">Family, Premium &amp; Corporate Packages</text>

  <!-- Brand name with letter spacing -->
  <text x="280" y="300" font-family="Georgia, serif" font-size="32" font-weight="bold"
        fill="#CFAE58" letter-spacing="4" filter="url(#glow)">ROYAL KETA</text>

  <!-- Russian tagline -->
  <text x="280" y="340" font-family="Arial, sans-serif" font-size="22" font-style="italic"
        fill="#8B95A1" opacity="0.8">От икринки к королевской</text>

  <!-- Location -->
  <text x="280" y="380" font-family="Arial, sans-serif" font-size="20"
        fill="#8B95A1" opacity="0.7">Невельский район, Сахалин</text>

  <!-- Website with glow -->
  <text x="100" y="570" font-family="Arial, sans-serif" font-size="30" font-weight="bold"
        fill="#4FD1C5" filter="url(#glow)">royalketa.com</text>

  <!-- Enhanced decorative salmon silhouette -->
  <g transform="translate(950, 480)" opacity="0.2" filter="url(#softGlow)">
    <ellipse cx="0" cy="0" rx="90" ry="35" fill="#CFAE58"/>
    <path d="M 90 0 L 120 -18 L 130 0 L 120 18 Z" fill="#CFAE58"/>
    <path d="M -25 -35 L 0 -45 L 25 -35 Z" fill="#CFAE58"/>
    <ellipse cx="-50" cy="0" rx="15" ry="12" fill="#0B0F14"/>
  </g>

  <!-- Additional decorative caviar clusters -->
  <g opacity="0.2">
    <circle cx="1050" cy="120" r="6" fill="#CFAE58"/>
    <circle cx="1065" cy="115" r="5" fill="#CFAE58"/>
    <circle cx="1058" cy="130" r="4" fill="#CFAE58"/>
    <circle cx="150" cy="500" r="5" fill="#4FD1C5"/>
    <circle cx="165" cy="508" r="4" fill="#4FD1C5"/>
    <circle cx="140" cy="512" r="5" fill="#4FD1C5"/>
  </g>
</svg>