<svg width="1200" height="630" xmlns="http://www.w3.org/2000/svg">
  <defs>
    <linearGradient id="bgGradient" x1="0%" y1="0%" x2="100%" y2="100%">
      <stop offset="0%" style="stop-color:#0B0F14;stop-opacity:1" />
      <stop offset="50%" style="stop-color:#0F1619;stop-opacity:1" />
      <stop offset="100%" style="stop-color:#0F1922;stop-opacity:1" />
    </linearGradient>
    <linearGradient id="goldGradient" x1="0%" y1="0%" x2="100%" y2="0%">
      <stop offset="0%" style="stop-color:#E5D596;stop-opacity:1" />
      <stop offset="50%" style="stop-color:#CFAE58;stop-opacity:1" />
      <stop offset="100%" style="stop-color:#B89842;stop-opacity:1" />
    </linearGradient>
    <radialGradient id="oceanGradient" cx="50%" cy="50%" r="50%">
      <stop offset="0%" style="stop-color:#4FD1C5;stop-opacity:0.3" />
      <stop offset="100%" style="stop-color:#1E90A0;stop-opacity:0.05" />
    </radialGradient>
    <filter id="glow">
      <feGaussianBlur stdDeviation="5" result="coloredBlur"/>
      <feMerge>
        <feMergeNode in="coloredBlur"/>
        <feMergeNode in="SourceGraphic"/>
      </feMerge>
    </filter>
    <filter id="softGlow">
      <feGaussianBlur stdDeviation="8" result="coloredBlur"/>
      <feMerge>
        <feMergeNode in="coloredBlur"/>
        <feMergeNode in="SourceGraphic"/>
      </feMerge>
    </filter>
    <filter id="shadow">
      <feDropShadow dx="0" dy="4" stdDeviation="8" flood-color="#000000" flood-opacity="0.5"/>
    </filter>
  </defs>

  <!-- Background -->
  <rect width="1200" height="630" fill="url(#bgGradient)"/>

  <!-- Decorative ocean gradients -->
  <ellipse cx="1000" cy="150" rx="300" ry="200" fill="url(#oceanGradient)" opacity="0.4"/>
  <ellipse cx="200" cy="530" rx="250" ry="180" fill="url(#oceanGradient)" opacity="0.3"/>

  <!-- Wave patterns -->
  <path d="M 0 400 Q 300 350 600 400 T 1200 400 L 1200 630 L 0 630 Z" fill="#1E90A0" opacity="0.08"/>
  <path d="M 0 450 Q 250 420 500 450 T 1000 450 T 1200 450 L 1200 630 L 0 630 Z" fill="#4FD1C5" opacity="0.05"/>

  <!-- Caviar roe particles -->
  <circle cx="989.5118505969419" cy="549.1636420436325" r="2.2516675519666847" fill="#CFAE58" opacity="0.10279813045506966"/>
  <circle cx="614.741362615623" cy="528.2858300253338" r="5.169409095029671" fill="#CFAE58" opacity="0.19098812094031525"/>
  <circle cx="513.0359513259006" cy="198.83272896094635" r="5.662690564645525" fill="#CFAE58" opacity="0.20298849493723697"/>
  <circle cx="970.5490410118309" cy="323.03123354652075" r="5.261795335558416" fill="#CFAE58" opacity="0.10168280573774559"/>
  <circle cx="693.6594854453353" cy="68.76705189541826" r="3.594085659945912" fill="#CFAE58" opacity="0.13404596354326015"/>
  <circle cx="415.9592654395966" cy="495.0606467931414" r="3.346065893214136" fill="#CFAE58" opacity="0.13260496244748918"/>
  <circle cx="255.9039602565582" cy="550.912933185168" r="5.295764080529464" fill="#CFAE58" opacity="0.13650420667776225"/>
  <circle cx="633.6641435857126" cy="272.09422486220984" r="3.6438238630811024" fill="#CFAE58" opacity="0.16064085444815637"/>
  <circle cx="290.97121079296306" cy="208.80846306555654" r="5.612285878305956" fill="#CFAE58" opacity="0.18400421566271924"/>
  <circle cx="859.7144896652488" cy="507.2807914803286" r="3.09008991067818" fill="#CFAE58" opacity="0.18137990243409283"/>
  <circle cx="954.1733290976516" cy="215.70972515200248" r="2.5006388353932993" fill="#CFAE58" opacity="0.22207497935588"/>
  <circle cx="1197.3824585824916" cy="477.00730777207673" r="2.9961833979811168" fill="#CFAE58" opacity="0.18702243714836944"/>
  <circle cx="648.7834482170878" cy="14.22055075581158" r="5.611006931791434" fill="#CFAE58" opacity="0.13131931142509817"/>
  <circle cx="303.58394235434537" cy="135.1264269034738" r="5.159520022793224" fill="#CFAE58" opacity="0.22070981619460828"/>
  <circle cx="1112.2512691321635" cy="346.61883260819087" r="2.880108523743411" fill="#CFAE58" opacity="0.16055385161815822"/>
  <circle cx="500.2148451696957" cy="403.5985312689648" r="2.081560037202333" fill="#CFAE58" opacity="0.11191831902379319"/>
  <circle cx="871.9421867794133" cy="349.5971047421999" r="3.252806373178429" fill="#CFAE58" opacity="0.1542609186883793"/>
  <circle cx="111.13330442968024" cy="267.3722192411002" r="3.7353482621189116" fill="#CFAE58" opacity="0.15265362894609827"/>
  <circle cx="310.31162117243724" cy="587.4204759390044" r="5.5728527459453945" fill="#CFAE58" opacity="0.223984465294766"/>
  <circle cx="850.1065506141589" cy="422.58376426987195" r="3.19599929899486" fill="#CFAE58" opacity="0.1490147001531865"/>
  <circle cx="53.619872983379004" cy="512.2087928096879" r="4.8269455130076855" fill="#CFAE58" opacity="0.22989766105283807"/>
  <circle cx="322.4340216705294" cy="106.29688605740606" r="5.457020138908993" fill="#CFAE58" opacity="0.24489938625640148"/>
  <circle cx="502.0170100540742" cy="251.95079156379447" r="2.8264623761447645" fill="#CFAE58" opacity="0.1680112210049087"/>
  <circle cx="142.35253855049072" cy="25.023139387237375" r="5.36906183496415" fill="#CFAE58" opacity="0.13439101402304104"/>
  <circle cx="990.5547014395722" cy="74.1621005198527" r="2.9331636257363343" fill="#CFAE58" opacity="0.16405768306833116"/>
  <circle cx="1101.2089826326537" cy="362.38416810856796" r="5.800650377877863" fill="#CFAE58" opacity="0.21812685722725267"/>
  <circle cx="872.296071439588" cy="130.0345224850845" r="3.617775874750782" fill="#CFAE58" opacity="0.15114668636230727"/>
  <circle cx="738.6665836010674" cy="134.12845266805547" r="2.5436747257921355" fill="#CFAE58" opacity="0.14677413745759058"/>
  <circle cx="349.4983369413676" cy="244.53549477584738" r="3.1279322540120864" fill="#CFAE58" opacity="0.24117329461799833"/>
  <circle cx="111.15269926163309" cy="494.63207927675154" r="2.2912324926275303" fill="#CFAE58" opacity="0.1947433021797232"/>

  <!-- Border with glow -->
  <rect x="40" y="40" width="1120" height="550" fill="none" stroke="url(#goldGradient)" stroke-width="3" rx="12" filter="url(#softGlow)"/>

  <!-- Icon circle with premium background -->
  <circle cx="150" cy="200" r="75" fill="#CFAE58" opacity="0.15" filter="url(#softGlow)"/>
  <circle cx="150" cy="200" r="70" fill="#CFAE58" opacity="0.25"/>
  <text x="150" y="235" font-size="90" text-anchor="middle" fill="#CFAE58" filter="url(#glow)">💰</text>

  <!-- Premium logo (crown) with enhanced styling -->
  <g transform="translate(100, 70)">
    <path d="M 30 20 L 40 35 L 35 35 Z M 50 15 L 60 35 L 45 35 Z M 65 20 L 75 35 L 70 35 Z M 30 35 L 75 35 L 73 45 L 32 45 Z"
          fill="url(#goldGradient)" filter="url(#glow)" stroke="#B89842" stroke-width="0.5"/>
    <circle cx="40" cy="25" r="3" fill="#4FD1C5" filter="url(#glow)"/>
    <circle cx="52" cy="20" r="4" fill="#4FD1C5" filter="url(#glow)"/>
    <circle cx="65" cy="25" r="3" fill="#4FD1C5" filter="url(#glow)"/>
  </g>

  <!-- Title with shadow -->
  <text x="280" y="180" font-family="Georgia, serif" font-size="72" font-weight="bold"
        fill="url(#goldGradient)" filter="url(#shadow)">Tour Pricing</text>

  <!-- Subtitle with subtle glow -->
  <text x="280" y="230" font-family="Arial, sans-serif" font-size="36"
        fill="#D6DEE6" opacity="0.95" filter="url(#softGlow)">Family, Premium &amp; Corporate Packages</text>

  <!-- Brand name with letter spacing -->
  <text x="280" y="300" font-family="Georgia, serif" font-size="32" font-weight="bold"
        fill="#CFAE58" letter-spacing="4" filter="url(#glow)">ROYAL KETA</text>

  <!-- Russian tagline -->
  <text x="280" y="340" font-family="Arial, sans-serif" font-size="22" font-style="italic"
        fill="#8B95A1" opacity="0.8">От икринки к королевской</text>

  <!-- Location -->
  <text x="280" y="380" font-family="Arial, sans-serif" font-size="20"
        fill="#8B95A1" opacity="0.7">Невельский район, Сахалин</text>

  <!-- Website with glow -->
  <text x="100" y="570" font-family="Arial, sans-serif" font-size="30" font-weight="bold"
        fill="#4FD1C5" filter="url(#glow)">royalketa.com</text>

  <!-- Enhanced decorative salmon silhouette -->
  <g transform="translate(950, 480)" opacity="0.2" filter="url(#softGlow)">
    <ellipse cx="0" cy="0" rx="90" ry="35" fill="#CFAE58"/>
    <path d="M 90 0 L 120 -18 L 130 0 L 120 18 Z" fill="#CFAE58"/>
    <path d="M -25 -35 L 0 -45 L 25 -35 Z" fill="#CFAE58"/>
    <ellipse cx="-50" cy="0" rx="15" ry="12" fill="#0B0F14"/>
  </g>

  <!-- Additional decorative caviar clusters -->
  <g opacity="0.2">
    <circle cx="1050" cy="120" r="6" fill="#CFAE58"/>
    <circle cx="1065" cy="115" r="5" fill="#CFAE58"/>
    <circle cx="1058" cy="130" r="4" fill="#CFAE58"/>
    <circle cx="150" cy="500" r="5" fill="#4FD1C5"/>
    <circle cx="165" cy="508" r="4" fill="#4FD1C5"/>
    <circle cx="140" cy="512" r="5" fill="#4FD1C5"/>
  </g>
</svg>