<svg width="1200" height="630" xmlns="http://www.w3.org/2000/svg">
  <defs>
    <linearGradient id="bgGradient" x1="0%" y1="0%" x2="100%" y2="100%">
      <stop offset="0%" style="stop-color:#0B0F14;stop-opacity:1" />
      <stop offset="50%" style="stop-color:#0F1619;stop-opacity:1" />
      <stop offset="100%" style="stop-color:#0F1922;stop-opacity:1" />
    </linearGradient>
    <linearGradient id="goldGradient" x1="0%" y1="0%" x2="100%" y2="0%">
      <stop offset="0%" style="stop-color:#E5D596;stop-opacity:1" />
      <stop offset="50%" style="stop-color:#CFAE58;stop-opacity:1" />
      <stop offset="100%" style="stop-color:#B89842;stop-opacity:1" />
    </linearGradient>
    <radialGradient id="oceanGradient" cx="50%" cy="50%" r="50%">
      <stop offset="0%" style="stop-color:#4FD1C5;stop-opacity:0.3" />
      <stop offset="100%" style="stop-color:#1E90A0;stop-opacity:0.05" />
    </radialGradient>
    <filter id="glow">
      <feGaussianBlur stdDeviation="5" result="coloredBlur"/>
      <feMerge>
        <feMergeNode in="coloredBlur"/>
        <feMergeNode in="SourceGraphic"/>
      </feMerge>
    </filter>
    <filter id="softGlow">
      <feGaussianBlur stdDeviation="8" result="coloredBlur"/>
      <feMerge>
        <feMergeNode in="coloredBlur"/>
        <feMergeNode in="SourceGraphic"/>
      </feMerge>
    </filter>
    <filter id="shadow">
      <feDropShadow dx="0" dy="4" stdDeviation="8" flood-color="#000000" flood-opacity="0.5"/>
    </filter>
  </defs>

  <!-- Background -->
  <rect width="1200" height="630" fill="url(#bgGradient)"/>

  <!-- Decorative ocean gradients -->
  <ellipse cx="1000" cy="150" rx="300" ry="200" fill="url(#oceanGradient)" opacity="0.4"/>
  <ellipse cx="200" cy="530" rx="250" ry="180" fill="url(#oceanGradient)" opacity="0.3"/>

  <!-- Wave patterns -->
  <path d="M 0 400 Q 300 350 600 400 T 1200 400 L 1200 630 L 0 630 Z" fill="#1E90A0" opacity="0.08"/>
  <path d="M 0 450 Q 250 420 500 450 T 1000 450 T 1200 450 L 1200 630 L 0 630 Z" fill="#4FD1C5" opacity="0.05"/>

  <!-- Caviar roe particles -->
  <circle cx="1119.0037047556157" cy="347.86087309042205" r="5.820884509795825" fill="#CFAE58" opacity="0.24250716941171582"/>
  <circle cx="460.9663579130119" cy="163.178888523915" r="4.57207656748234" fill="#CFAE58" opacity="0.22735935297479581"/>
  <circle cx="270.5794240211715" cy="293.08592486787114" r="2.5171067411519688" fill="#CFAE58" opacity="0.1881568208654032"/>
  <circle cx="197.25646235279402" cy="608.3199197464096" r="3.348384640062593" fill="#CFAE58" opacity="0.21742298741243712"/>
  <circle cx="296.2085193670898" cy="422.98500039205084" r="2.3908512849756853" fill="#CFAE58" opacity="0.12076164904614824"/>
  <circle cx="867.8244370840332" cy="532.1856394462469" r="4.738603499073537" fill="#CFAE58" opacity="0.23376533225946786"/>
  <circle cx="887.8784126043704" cy="436.54205221602916" r="3.3682166852109" fill="#CFAE58" opacity="0.2293600301870162"/>
  <circle cx="662.0415723415304" cy="334.8200436123413" r="4.013658296187716" fill="#CFAE58" opacity="0.20151454174695232"/>
  <circle cx="295.7472427924003" cy="354.3085435682152" r="5.364413931474658" fill="#CFAE58" opacity="0.1007358435017858"/>
  <circle cx="527.3733116148453" cy="305.67911319305546" r="2.310184060464541" fill="#CFAE58" opacity="0.17555138946828994"/>
  <circle cx="1084.0830023046017" cy="482.5464979025084" r="2.2303410431890263" fill="#CFAE58" opacity="0.24664481027971535"/>
  <circle cx="337.208847913079" cy="601.8914258492207" r="3.2956346897996047" fill="#CFAE58" opacity="0.1052667978117183"/>
  <circle cx="1063.5638720681688" cy="572.556432295701" r="5.826231000336483" fill="#CFAE58" opacity="0.17626853499459627"/>
  <circle cx="903.7929598369167" cy="443.794567238172" r="3.2673927052387244" fill="#CFAE58" opacity="0.24256919180699288"/>
  <circle cx="711.4557565434189" cy="473.1782180791412" r="4.0057915893757325" fill="#CFAE58" opacity="0.1496649637483815"/>
  <circle cx="108.27166038819493" cy="530.2251298311367" r="4.8537399597571" fill="#CFAE58" opacity="0.23323570210766464"/>
  <circle cx="1176.2417341664482" cy="409.8687160074916" r="4.38554609717078" fill="#CFAE58" opacity="0.14191345826193127"/>
  <circle cx="631.3953423431736" cy="142.58995202267187" r="3.2229556758455558" fill="#CFAE58" opacity="0.19763716131595976"/>
  <circle cx="269.3917492141883" cy="536.5672328271824" r="5.927381083680091" fill="#CFAE58" opacity="0.12153647580958109"/>
  <circle cx="465.23977342473455" cy="427.28086783611315" r="5.581492028832418" fill="#CFAE58" opacity="0.15539534246425346"/>
  <circle cx="628.2898294032275" cy="107.50439267623905" r="3.519361877080907" fill="#CFAE58" opacity="0.10318836531747844"/>
  <circle cx="291.01071637951105" cy="136.86464332688868" r="5.0707072262741235" fill="#CFAE58" opacity="0.13907244850681838"/>
  <circle cx="859.7355640963225" cy="600.7880085330391" r="5.985866897392967" fill="#CFAE58" opacity="0.22628115169254248"/>
  <circle cx="1119.3428671012714" cy="516.8054305408981" r="3.1512419979991613" fill="#CFAE58" opacity="0.11226061987160126"/>
  <circle cx="896.0866762801223" cy="148.57576645287762" r="5.195323139353086" fill="#CFAE58" opacity="0.2049710261617677"/>
  <circle cx="612.2639163761628" cy="10.566320746129072" r="5.447164226854349" fill="#CFAE58" opacity="0.17221162271980905"/>
  <circle cx="162.50317378166304" cy="508.75065708651476" r="4.052387444841223" fill="#CFAE58" opacity="0.1628709641289448"/>
  <circle cx="982.1242654191701" cy="216.57653547518117" r="2.4541700269708793" fill="#CFAE58" opacity="0.1828793606059022"/>
  <circle cx="8.681259695166954" cy="478.97292434972627" r="2.4633111336572644" fill="#CFAE58" opacity="0.14004975450456975"/>
  <circle cx="66.8292535870033" cy="475.5005851285589" r="5.871261702350246" fill="#CFAE58" opacity="0.13227786435215536"/>

  <!-- Border with glow -->
  <rect x="40" y="40" width="1120" height="550" fill="none" stroke="url(#goldGradient)" stroke-width="3" rx="12" filter="url(#softGlow)"/>

  <!-- Icon circle with premium background -->
  <circle cx="150" cy="200" r="75" fill="#CFAE58" opacity="0.15" filter="url(#softGlow)"/>
  <circle cx="150" cy="200" r="70" fill="#CFAE58" opacity="0.25"/>
  <text x="150" y="235" font-size="90" text-anchor="middle" fill="#CFAE58" filter="url(#glow)">💰</text>

  <!-- Premium logo (crown) with enhanced styling -->
  <g transform="translate(100, 70)">
    <path d="M 30 20 L 40 35 L 35 35 Z M 50 15 L 60 35 L 45 35 Z M 65 20 L 75 35 L 70 35 Z M 30 35 L 75 35 L 73 45 L 32 45 Z"
          fill="url(#goldGradient)" filter="url(#glow)" stroke="#B89842" stroke-width="0.5"/>
    <circle cx="40" cy="25" r="3" fill="#4FD1C5" filter="url(#glow)"/>
    <circle cx="52" cy="20" r="4" fill="#4FD1C5" filter="url(#glow)"/>
    <circle cx="65" cy="25" r="3" fill="#4FD1C5" filter="url(#glow)"/>
  </g>

  <!-- Title with shadow -->
  <text x="280" y="180" font-family="Georgia, serif" font-size="72" font-weight="bold"
        fill="url(#goldGradient)" filter="url(#shadow)">Tour Pricing</text>

  <!-- Subtitle with subtle glow -->
  <text x="280" y="230" font-family="Arial, sans-serif" font-size="36"
        fill="#D6DEE6" opacity="0.95" filter="url(#softGlow)">Family, Premium &amp; Corporate Packages</text>

  <!-- Brand name with letter spacing -->
  <text x="280" y="300" font-family="Georgia, serif" font-size="32" font-weight="bold"
        fill="#CFAE58" letter-spacing="4" filter="url(#glow)">ROYAL KETA</text>

  <!-- Russian tagline -->
  <text x="280" y="340" font-family="Arial, sans-serif" font-size="22" font-style="italic"
        fill="#8B95A1" opacity="0.8">От икринки к королевской</text>

  <!-- Location -->
  <text x="280" y="380" font-family="Arial, sans-serif" font-size="20"
        fill="#8B95A1" opacity="0.7">Невельский район, Сахалин</text>

  <!-- Website with glow -->
  <text x="100" y="570" font-family="Arial, sans-serif" font-size="30" font-weight="bold"
        fill="#4FD1C5" filter="url(#glow)">royalketa.com</text>

  <!-- Enhanced decorative salmon silhouette -->
  <g transform="translate(950, 480)" opacity="0.2" filter="url(#softGlow)">
    <ellipse cx="0" cy="0" rx="90" ry="35" fill="#CFAE58"/>
    <path d="M 90 0 L 120 -18 L 130 0 L 120 18 Z" fill="#CFAE58"/>
    <path d="M -25 -35 L 0 -45 L 25 -35 Z" fill="#CFAE58"/>
    <ellipse cx="-50" cy="0" rx="15" ry="12" fill="#0B0F14"/>
  </g>

  <!-- Additional decorative caviar clusters -->
  <g opacity="0.2">
    <circle cx="1050" cy="120" r="6" fill="#CFAE58"/>
    <circle cx="1065" cy="115" r="5" fill="#CFAE58"/>
    <circle cx="1058" cy="130" r="4" fill="#CFAE58"/>
    <circle cx="150" cy="500" r="5" fill="#4FD1C5"/>
    <circle cx="165" cy="508" r="4" fill="#4FD1C5"/>
    <circle cx="140" cy="512" r="5" fill="#4FD1C5"/>
  </g>
</svg>