<svg width="1200" height="630" xmlns="http://www.w3.org/2000/svg">
  <defs>
    <linearGradient id="bgGradient" x1="0%" y1="0%" x2="100%" y2="100%">
      <stop offset="0%" style="stop-color:#0B0F14;stop-opacity:1" />
      <stop offset="50%" style="stop-color:#0F1619;stop-opacity:1" />
      <stop offset="100%" style="stop-color:#0F1922;stop-opacity:1" />
    </linearGradient>
    <linearGradient id="goldGradient" x1="0%" y1="0%" x2="100%" y2="0%">
      <stop offset="0%" style="stop-color:#E5D596;stop-opacity:1" />
      <stop offset="50%" style="stop-color:#CFAE58;stop-opacity:1" />
      <stop offset="100%" style="stop-color:#B89842;stop-opacity:1" />
    </linearGradient>
    <radialGradient id="oceanGradient" cx="50%" cy="50%" r="50%">
      <stop offset="0%" style="stop-color:#4FD1C5;stop-opacity:0.3" />
      <stop offset="100%" style="stop-color:#1E90A0;stop-opacity:0.05" />
    </radialGradient>
    <filter id="glow">
      <feGaussianBlur stdDeviation="5" result="coloredBlur"/>
      <feMerge>
        <feMergeNode in="coloredBlur"/>
        <feMergeNode in="SourceGraphic"/>
      </feMerge>
    </filter>
    <filter id="softGlow">
      <feGaussianBlur stdDeviation="8" result="coloredBlur"/>
      <feMerge>
        <feMergeNode in="coloredBlur"/>
        <feMergeNode in="SourceGraphic"/>
      </feMerge>
    </filter>
    <filter id="shadow">
      <feDropShadow dx="0" dy="4" stdDeviation="8" flood-color="#000000" flood-opacity="0.5"/>
    </filter>
  </defs>

  <!-- Background -->
  <rect width="1200" height="630" fill="url(#bgGradient)"/>

  <!-- Decorative ocean gradients -->
  <ellipse cx="1000" cy="150" rx="300" ry="200" fill="url(#oceanGradient)" opacity="0.4"/>
  <ellipse cx="200" cy="530" rx="250" ry="180" fill="url(#oceanGradient)" opacity="0.3"/>

  <!-- Wave patterns -->
  <path d="M 0 400 Q 300 350 600 400 T 1200 400 L 1200 630 L 0 630 Z" fill="#1E90A0" opacity="0.08"/>
  <path d="M 0 450 Q 250 420 500 450 T 1000 450 T 1200 450 L 1200 630 L 0 630 Z" fill="#4FD1C5" opacity="0.05"/>

  <!-- Caviar roe particles -->
  <circle cx="875.6176816638989" cy="457.9683555312739" r="3.6125266103159657" fill="#CFAE58" opacity="0.16340782687389122"/>
  <circle cx="891.8160020967777" cy="516.5156196130503" r="5.659257660756495" fill="#CFAE58" opacity="0.17887081633911167"/>
  <circle cx="212.29165898039213" cy="58.34721012679883" r="5.575126584987664" fill="#CFAE58" opacity="0.17919371344563437"/>
  <circle cx="673.5643276986196" cy="158.01897511990805" r="3.9471443651277687" fill="#CFAE58" opacity="0.17190763247719176"/>
  <circle cx="161.17016911645115" cy="181.69151329672542" r="3.3942514407526048" fill="#CFAE58" opacity="0.22218986901456889"/>
  <circle cx="228.93057692291282" cy="480.06562076405027" r="3.967046525575028" fill="#CFAE58" opacity="0.1973613100733495"/>
  <circle cx="1080.824981650408" cy="408.7582716451709" r="4.588447520767376" fill="#CFAE58" opacity="0.12972470864482896"/>
  <circle cx="155.4444854502826" cy="370.0518750286021" r="4.170987720649961" fill="#CFAE58" opacity="0.15907058365407628"/>
  <circle cx="104.78052672821522" cy="72.91980070858922" r="4.967182498641697" fill="#CFAE58" opacity="0.11878346504775769"/>
  <circle cx="880.6700919016251" cy="9.734446324578157" r="3.955357442029565" fill="#CFAE58" opacity="0.2028061536357389"/>
  <circle cx="367.48932984250524" cy="498.6190852126123" r="5.015133030824917" fill="#CFAE58" opacity="0.151784538993156"/>
  <circle cx="938.9710400870014" cy="538.6815016463353" r="3.9423172156838717" fill="#CFAE58" opacity="0.13693182945806603"/>
  <circle cx="868.4464704194683" cy="127.32337851492619" r="5.322783168988367" fill="#CFAE58" opacity="0.20495023122320016"/>
  <circle cx="476.0633481077139" cy="467.6172086457407" r="5.102137142810506" fill="#CFAE58" opacity="0.10248813308052972"/>
  <circle cx="1038.7108499913577" cy="476.94911599770705" r="4.666900975565439" fill="#CFAE58" opacity="0.15427689941759723"/>
  <circle cx="348.79857100465364" cy="91.69990263613897" r="2.2171651773109105" fill="#CFAE58" opacity="0.1866941046421447"/>
  <circle cx="341.2108668224379" cy="261.77574473801315" r="4.918403432376768" fill="#CFAE58" opacity="0.16491392392093968"/>
  <circle cx="218.84965602855823" cy="30.25758236891547" r="3.9071299302590496" fill="#CFAE58" opacity="0.19941396489282467"/>
  <circle cx="700.4628577022271" cy="329.12708836101854" r="2.804265565544993" fill="#CFAE58" opacity="0.16000814703361496"/>
  <circle cx="373.2891231942965" cy="339.8428396181191" r="4.121151094283364" fill="#CFAE58" opacity="0.2191291470919891"/>
  <circle cx="331.1408099926499" cy="530.7593872950582" r="4.69863283214313" fill="#CFAE58" opacity="0.1377946895271454"/>
  <circle cx="837.4472192861792" cy="595.1816558622437" r="3.253528154019622" fill="#CFAE58" opacity="0.213420129598385"/>
  <circle cx="340.95609398042103" cy="395.6890670206593" r="2.307236663740639" fill="#CFAE58" opacity="0.14068519403651078"/>
  <circle cx="280.89443584947577" cy="36.05936121608532" r="2.234992135792848" fill="#CFAE58" opacity="0.2403005766825923"/>
  <circle cx="366.93430147062946" cy="51.432355340248435" r="2.866241659630126" fill="#CFAE58" opacity="0.20216688908140706"/>
  <circle cx="837.533736697155" cy="352.2182684002611" r="3.757890845084633" fill="#CFAE58" opacity="0.10734279661589263"/>
  <circle cx="188.72284831225966" cy="104.1570360561139" r="5.668281512023338" fill="#CFAE58" opacity="0.2426439559946493"/>
  <circle cx="965.9075035082109" cy="252.942314825722" r="2.322899215717942" fill="#CFAE58" opacity="0.19148054595050445"/>
  <circle cx="762.3889879809958" cy="257.3072611002913" r="4.458527727882208" fill="#CFAE58" opacity="0.15182379504967647"/>
  <circle cx="228.2269419759296" cy="287.7449452111029" r="2.1995188157905954" fill="#CFAE58" opacity="0.183427374876711"/>

  <!-- Border with glow -->
  <rect x="40" y="40" width="1120" height="550" fill="none" stroke="url(#goldGradient)" stroke-width="3" rx="12" filter="url(#softGlow)"/>

  <!-- Icon circle with premium background -->
  <circle cx="150" cy="200" r="75" fill="#CFAE58" opacity="0.15" filter="url(#softGlow)"/>
  <circle cx="150" cy="200" r="70" fill="#CFAE58" opacity="0.25"/>
  <text x="150" y="235" font-size="90" text-anchor="middle" fill="#CFAE58" filter="url(#glow)">💰</text>

  <!-- Premium logo (crown) with enhanced styling -->
  <g transform="translate(100, 70)">
    <path d="M 30 20 L 40 35 L 35 35 Z M 50 15 L 60 35 L 45 35 Z M 65 20 L 75 35 L 70 35 Z M 30 35 L 75 35 L 73 45 L 32 45 Z"
          fill="url(#goldGradient)" filter="url(#glow)" stroke="#B89842" stroke-width="0.5"/>
    <circle cx="40" cy="25" r="3" fill="#4FD1C5" filter="url(#glow)"/>
    <circle cx="52" cy="20" r="4" fill="#4FD1C5" filter="url(#glow)"/>
    <circle cx="65" cy="25" r="3" fill="#4FD1C5" filter="url(#glow)"/>
  </g>

  <!-- Title with shadow -->
  <text x="280" y="180" font-family="Georgia, serif" font-size="72" font-weight="bold"
        fill="url(#goldGradient)" filter="url(#shadow)">Tour Pricing</text>

  <!-- Subtitle with subtle glow -->
  <text x="280" y="230" font-family="Arial, sans-serif" font-size="36"
        fill="#D6DEE6" opacity="0.95" filter="url(#softGlow)">Family, Premium &amp; Corporate Packages</text>

  <!-- Brand name with letter spacing -->
  <text x="280" y="300" font-family="Georgia, serif" font-size="32" font-weight="bold"
        fill="#CFAE58" letter-spacing="4" filter="url(#glow)">ROYAL KETA</text>

  <!-- Russian tagline -->
  <text x="280" y="340" font-family="Arial, sans-serif" font-size="22" font-style="italic"
        fill="#8B95A1" opacity="0.8">От икринки к королевской</text>

  <!-- Location -->
  <text x="280" y="380" font-family="Arial, sans-serif" font-size="20"
        fill="#8B95A1" opacity="0.7">Невельский район, Сахалин</text>

  <!-- Website with glow -->
  <text x="100" y="570" font-family="Arial, sans-serif" font-size="30" font-weight="bold"
        fill="#4FD1C5" filter="url(#glow)">royalketa.com</text>

  <!-- Enhanced decorative salmon silhouette -->
  <g transform="translate(950, 480)" opacity="0.2" filter="url(#softGlow)">
    <ellipse cx="0" cy="0" rx="90" ry="35" fill="#CFAE58"/>
    <path d="M 90 0 L 120 -18 L 130 0 L 120 18 Z" fill="#CFAE58"/>
    <path d="M -25 -35 L 0 -45 L 25 -35 Z" fill="#CFAE58"/>
    <ellipse cx="-50" cy="0" rx="15" ry="12" fill="#0B0F14"/>
  </g>

  <!-- Additional decorative caviar clusters -->
  <g opacity="0.2">
    <circle cx="1050" cy="120" r="6" fill="#CFAE58"/>
    <circle cx="1065" cy="115" r="5" fill="#CFAE58"/>
    <circle cx="1058" cy="130" r="4" fill="#CFAE58"/>
    <circle cx="150" cy="500" r="5" fill="#4FD1C5"/>
    <circle cx="165" cy="508" r="4" fill="#4FD1C5"/>
    <circle cx="140" cy="512" r="5" fill="#4FD1C5"/>
  </g>
</svg>