<svg width="1200" height="630" xmlns="http://www.w3.org/2000/svg">
  <defs>
    <linearGradient id="bgGradient" x1="0%" y1="0%" x2="100%" y2="100%">
      <stop offset="0%" style="stop-color:#0B0F14;stop-opacity:1" />
      <stop offset="50%" style="stop-color:#0F1619;stop-opacity:1" />
      <stop offset="100%" style="stop-color:#0F1922;stop-opacity:1" />
    </linearGradient>
    <linearGradient id="goldGradient" x1="0%" y1="0%" x2="100%" y2="0%">
      <stop offset="0%" style="stop-color:#E5D596;stop-opacity:1" />
      <stop offset="50%" style="stop-color:#CFAE58;stop-opacity:1" />
      <stop offset="100%" style="stop-color:#B89842;stop-opacity:1" />
    </linearGradient>
    <radialGradient id="oceanGradient" cx="50%" cy="50%" r="50%">
      <stop offset="0%" style="stop-color:#4FD1C5;stop-opacity:0.3" />
      <stop offset="100%" style="stop-color:#1E90A0;stop-opacity:0.05" />
    </radialGradient>
    <filter id="glow">
      <feGaussianBlur stdDeviation="5" result="coloredBlur"/>
      <feMerge>
        <feMergeNode in="coloredBlur"/>
        <feMergeNode in="SourceGraphic"/>
      </feMerge>
    </filter>
    <filter id="softGlow">
      <feGaussianBlur stdDeviation="8" result="coloredBlur"/>
      <feMerge>
        <feMergeNode in="coloredBlur"/>
        <feMergeNode in="SourceGraphic"/>
      </feMerge>
    </filter>
    <filter id="shadow">
      <feDropShadow dx="0" dy="4" stdDeviation="8" flood-color="#000000" flood-opacity="0.5"/>
    </filter>
  </defs>

  <!-- Background -->
  <rect width="1200" height="630" fill="url(#bgGradient)"/>

  <!-- Decorative ocean gradients -->
  <ellipse cx="1000" cy="150" rx="300" ry="200" fill="url(#oceanGradient)" opacity="0.4"/>
  <ellipse cx="200" cy="530" rx="250" ry="180" fill="url(#oceanGradient)" opacity="0.3"/>

  <!-- Wave patterns -->
  <path d="M 0 400 Q 300 350 600 400 T 1200 400 L 1200 630 L 0 630 Z" fill="#1E90A0" opacity="0.08"/>
  <path d="M 0 450 Q 250 420 500 450 T 1000 450 T 1200 450 L 1200 630 L 0 630 Z" fill="#4FD1C5" opacity="0.05"/>

  <!-- Caviar roe particles -->
  <circle cx="1104.381147329037" cy="68.29655991201767" r="4.9961535029142" fill="#CFAE58" opacity="0.24536686586870465"/>
  <circle cx="584.6300457244197" cy="388.99463365239876" r="5.460576176320935" fill="#CFAE58" opacity="0.11429753939533158"/>
  <circle cx="969.9091024462033" cy="360.1116000959327" r="2.677271589443877" fill="#CFAE58" opacity="0.18635281024678327"/>
  <circle cx="289.29970575201935" cy="434.7635811610029" r="3.514409031615238" fill="#CFAE58" opacity="0.1959842345388536"/>
  <circle cx="77.70349887419874" cy="97.3349733596635" r="2.909957433369046" fill="#CFAE58" opacity="0.2247710308935088"/>
  <circle cx="1124.8928553708042" cy="507.7407901049685" r="2.0413580593760026" fill="#CFAE58" opacity="0.1589005349515295"/>
  <circle cx="1023.179159533078" cy="411.43874691066844" r="5.6669471708032955" fill="#CFAE58" opacity="0.17408683662755942"/>
  <circle cx="210.5626658773498" cy="525.9387627426346" r="3.6791069846038837" fill="#CFAE58" opacity="0.19159826281772369"/>
  <circle cx="157.46467189664034" cy="604.7906574297733" r="2.932365864498676" fill="#CFAE58" opacity="0.22699508826528395"/>
  <circle cx="556.2335851122047" cy="188.84735438721648" r="5.352096521510593" fill="#CFAE58" opacity="0.1723975398854964"/>
  <circle cx="45.382925491029894" cy="60.45672208827545" r="5.588911988883209" fill="#CFAE58" opacity="0.23559248034959485"/>
  <circle cx="1004.233193153389" cy="585.0709824173244" r="4.441453769354741" fill="#CFAE58" opacity="0.22742153391270478"/>
  <circle cx="690.4904854741102" cy="133.25800529970462" r="2.7978899897659835" fill="#CFAE58" opacity="0.2185302283255243"/>
  <circle cx="662.7398663493416" cy="194.48083044656593" r="2.872412185544027" fill="#CFAE58" opacity="0.2056781554034835"/>
  <circle cx="649.6194413527252" cy="252.98279363906627" r="4.34197305465808" fill="#CFAE58" opacity="0.10656075422493885"/>
  <circle cx="430.48721832729376" cy="37.55929057538377" r="2.563325138012476" fill="#CFAE58" opacity="0.1025718662312503"/>
  <circle cx="1148.468089160995" cy="429.2474441447135" r="3.9958868712544913" fill="#CFAE58" opacity="0.18989883573299896"/>
  <circle cx="771.1126698075623" cy="180.54075684150845" r="2.9286312287667107" fill="#CFAE58" opacity="0.20364033748578317"/>
  <circle cx="24.758657131947448" cy="541.9615840659941" r="2.8772158051561547" fill="#CFAE58" opacity="0.18544140088817682"/>
  <circle cx="861.380784706294" cy="447.30885431302005" r="5.669649557865906" fill="#CFAE58" opacity="0.23243801722705393"/>
  <circle cx="1078.2553100164232" cy="541.0804487375616" r="5.322533088717859" fill="#CFAE58" opacity="0.16520207600477171"/>
  <circle cx="553.8003164050227" cy="105.7802232466999" r="4.469307785549748" fill="#CFAE58" opacity="0.11747655261748119"/>
  <circle cx="213.65285123184526" cy="65.45307940283405" r="5.107181999487051" fill="#CFAE58" opacity="0.120058792724576"/>
  <circle cx="982.5804532381087" cy="114.59340028689725" r="3.9820020232873885" fill="#CFAE58" opacity="0.2495854678805598"/>
  <circle cx="996.9772814627163" cy="214.51999153699938" r="2.8491576719324847" fill="#CFAE58" opacity="0.20465360571932845"/>
  <circle cx="454.20583122473727" cy="379.6441659630696" r="3.2439197101416326" fill="#CFAE58" opacity="0.2080391900893046"/>
  <circle cx="247.9251998136579" cy="144.33958032304727" r="2.543865286834534" fill="#CFAE58" opacity="0.14802034415375218"/>
  <circle cx="286.3147695632152" cy="530.8234776260159" r="4.66458523307938" fill="#CFAE58" opacity="0.15664203373479935"/>
  <circle cx="477.7907491057524" cy="332.42306588426214" r="3.336926801898076" fill="#CFAE58" opacity="0.19042406590928243"/>
  <circle cx="1105.076285725219" cy="420.2327048069951" r="4.841899373777451" fill="#CFAE58" opacity="0.22424369085318052"/>

  <!-- Border with glow -->
  <rect x="40" y="40" width="1120" height="550" fill="none" stroke="url(#goldGradient)" stroke-width="3" rx="12" filter="url(#softGlow)"/>

  <!-- Icon circle with premium background -->
  <circle cx="150" cy="200" r="75" fill="#CFAE58" opacity="0.15" filter="url(#softGlow)"/>
  <circle cx="150" cy="200" r="70" fill="#CFAE58" opacity="0.25"/>
  <text x="150" y="235" font-size="90" text-anchor="middle" fill="#CFAE58" filter="url(#glow)">💰</text>

  <!-- Premium logo (crown) with enhanced styling -->
  <g transform="translate(100, 70)">
    <path d="M 30 20 L 40 35 L 35 35 Z M 50 15 L 60 35 L 45 35 Z M 65 20 L 75 35 L 70 35 Z M 30 35 L 75 35 L 73 45 L 32 45 Z"
          fill="url(#goldGradient)" filter="url(#glow)" stroke="#B89842" stroke-width="0.5"/>
    <circle cx="40" cy="25" r="3" fill="#4FD1C5" filter="url(#glow)"/>
    <circle cx="52" cy="20" r="4" fill="#4FD1C5" filter="url(#glow)"/>
    <circle cx="65" cy="25" r="3" fill="#4FD1C5" filter="url(#glow)"/>
  </g>

  <!-- Title with shadow -->
  <text x="280" y="180" font-family="Georgia, serif" font-size="72" font-weight="bold"
        fill="url(#goldGradient)" filter="url(#shadow)">Tour Pricing</text>

  <!-- Subtitle with subtle glow -->
  <text x="280" y="230" font-family="Arial, sans-serif" font-size="36"
        fill="#D6DEE6" opacity="0.95" filter="url(#softGlow)">Family, Premium & Corporate Packages</text>

  <!-- Brand name with letter spacing -->
  <text x="280" y="300" font-family="Georgia, serif" font-size="32" font-weight="bold"
        fill="#CFAE58" letter-spacing="4" filter="url(#glow)">ROYAL KETA</text>

  <!-- Russian tagline -->
  <text x="280" y="340" font-family="Arial, sans-serif" font-size="22" font-style="italic"
        fill="#8B95A1" opacity="0.8">От икринки к королевской</text>

  <!-- Location -->
  <text x="280" y="380" font-family="Arial, sans-serif" font-size="20"
        fill="#8B95A1" opacity="0.7">Невельский район, Сахалин</text>

  <!-- Website with glow -->
  <text x="100" y="570" font-family="Arial, sans-serif" font-size="30" font-weight="bold"
        fill="#4FD1C5" filter="url(#glow)">royalketa.com</text>

  <!-- Enhanced decorative salmon silhouette -->
  <g transform="translate(950, 480)" opacity="0.2" filter="url(#softGlow)">
    <ellipse cx="0" cy="0" rx="90" ry="35" fill="#CFAE58"/>
    <path d="M 90 0 L 120 -18 L 130 0 L 120 18 Z" fill="#CFAE58"/>
    <path d="M -25 -35 L 0 -45 L 25 -35 Z" fill="#CFAE58"/>
    <ellipse cx="-50" cy="0" rx="15" ry="12" fill="#0B0F14"/>
  </g>

  <!-- Additional decorative caviar clusters -->
  <g opacity="0.2">
    <circle cx="1050" cy="120" r="6" fill="#CFAE58"/>
    <circle cx="1065" cy="115" r="5" fill="#CFAE58"/>
    <circle cx="1058" cy="130" r="4" fill="#CFAE58"/>
    <circle cx="150" cy="500" r="5" fill="#4FD1C5"/>
    <circle cx="165" cy="508" r="4" fill="#4FD1C5"/>
    <circle cx="140" cy="512" r="5" fill="#4FD1C5"/>
  </g>
</svg>