<svg width="1200" height="630" xmlns="http://www.w3.org/2000/svg">
  <defs>
    <linearGradient id="bgGradient" x1="0%" y1="0%" x2="100%" y2="100%">
      <stop offset="0%" style="stop-color:#0B0F14;stop-opacity:1" />
      <stop offset="50%" style="stop-color:#0F1619;stop-opacity:1" />
      <stop offset="100%" style="stop-color:#0F1922;stop-opacity:1" />
    </linearGradient>
    <linearGradient id="goldGradient" x1="0%" y1="0%" x2="100%" y2="0%">
      <stop offset="0%" style="stop-color:#E5D596;stop-opacity:1" />
      <stop offset="50%" style="stop-color:#CFAE58;stop-opacity:1" />
      <stop offset="100%" style="stop-color:#B89842;stop-opacity:1" />
    </linearGradient>
    <radialGradient id="oceanGradient" cx="50%" cy="50%" r="50%">
      <stop offset="0%" style="stop-color:#4FD1C5;stop-opacity:0.3" />
      <stop offset="100%" style="stop-color:#1E90A0;stop-opacity:0.05" />
    </radialGradient>
    <filter id="glow">
      <feGaussianBlur stdDeviation="5" result="coloredBlur"/>
      <feMerge>
        <feMergeNode in="coloredBlur"/>
        <feMergeNode in="SourceGraphic"/>
      </feMerge>
    </filter>
    <filter id="softGlow">
      <feGaussianBlur stdDeviation="8" result="coloredBlur"/>
      <feMerge>
        <feMergeNode in="coloredBlur"/>
        <feMergeNode in="SourceGraphic"/>
      </feMerge>
    </filter>
    <filter id="shadow">
      <feDropShadow dx="0" dy="4" stdDeviation="8" flood-color="#000000" flood-opacity="0.5"/>
    </filter>
  </defs>

  <!-- Background -->
  <rect width="1200" height="630" fill="url(#bgGradient)"/>

  <!-- Decorative ocean gradients -->
  <ellipse cx="1000" cy="150" rx="300" ry="200" fill="url(#oceanGradient)" opacity="0.4"/>
  <ellipse cx="200" cy="530" rx="250" ry="180" fill="url(#oceanGradient)" opacity="0.3"/>

  <!-- Wave patterns -->
  <path d="M 0 400 Q 300 350 600 400 T 1200 400 L 1200 630 L 0 630 Z" fill="#1E90A0" opacity="0.08"/>
  <path d="M 0 450 Q 250 420 500 450 T 1000 450 T 1200 450 L 1200 630 L 0 630 Z" fill="#4FD1C5" opacity="0.05"/>

  <!-- Caviar roe particles -->
  <circle cx="1064.7806777525639" cy="140.06420495235253" r="4.607508892513742" fill="#CFAE58" opacity="0.1063283785791913"/>
  <circle cx="859.7359809665244" cy="33.54031362176894" r="4.314245311228729" fill="#CFAE58" opacity="0.13776793212986765"/>
  <circle cx="738.7158807329002" cy="446.2710842705824" r="4.1203173090719165" fill="#CFAE58" opacity="0.1864462846021101"/>
  <circle cx="700.5234010277302" cy="210.39425916173346" r="2.8891229497435305" fill="#CFAE58" opacity="0.23629842733627904"/>
  <circle cx="330.4732689514408" cy="278.3326374091791" r="5.149665352055783" fill="#CFAE58" opacity="0.2035496300229434"/>
  <circle cx="217.62061226478383" cy="417.86822504999793" r="5.592316333734458" fill="#CFAE58" opacity="0.13313397983953665"/>
  <circle cx="176.29623020299653" cy="364.48307362260545" r="2.3824947662502414" fill="#CFAE58" opacity="0.10769585677872169"/>
  <circle cx="321.72465137027484" cy="88.95044086326979" r="3.6918673752866242" fill="#CFAE58" opacity="0.10805662762358392"/>
  <circle cx="249.45335358911578" cy="356.3225905981071" r="2.5097696881102864" fill="#CFAE58" opacity="0.24407977947695966"/>
  <circle cx="426.4092294674356" cy="464.41904644410994" r="2.033882089742689" fill="#CFAE58" opacity="0.22887759321147855"/>
  <circle cx="361.4575740512374" cy="73.17740832199507" r="2.7168667265297177" fill="#CFAE58" opacity="0.12245466863239601"/>
  <circle cx="502.4989667362014" cy="511.9672712525217" r="2.1351226337663203" fill="#CFAE58" opacity="0.14936222223837248"/>
  <circle cx="794.9968820952961" cy="619.3698231368218" r="2.8873016443029362" fill="#CFAE58" opacity="0.21560794754175105"/>
  <circle cx="1036.5121546800515" cy="298.3090924839768" r="2.741019031530061" fill="#CFAE58" opacity="0.1556441074706536"/>
  <circle cx="109.22518754643758" cy="233.0501421322812" r="4.312279630468871" fill="#CFAE58" opacity="0.19338670946991854"/>
  <circle cx="1169.3475666881502" cy="474.26246405727335" r="3.380053225093169" fill="#CFAE58" opacity="0.14919029700711284"/>
  <circle cx="101.60967598577022" cy="350.0892212942765" r="5.061936542578132" fill="#CFAE58" opacity="0.15485174768814067"/>
  <circle cx="64.42230856139216" cy="521.7186384801317" r="3.3493001612017714" fill="#CFAE58" opacity="0.11031521402172115"/>
  <circle cx="377.5931011716802" cy="172.04572824105614" r="5.72180127228266" fill="#CFAE58" opacity="0.10117505187061028"/>
  <circle cx="293.94447646401227" cy="412.0964519135777" r="3.9377922523250266" fill="#CFAE58" opacity="0.17786085081058034"/>
  <circle cx="586.6591247312058" cy="145.5726813783344" r="5.992998945623212" fill="#CFAE58" opacity="0.19558533557311752"/>
  <circle cx="386.0325420062325" cy="51.33984388888893" r="3.8609333962633894" fill="#CFAE58" opacity="0.1802287146794912"/>
  <circle cx="748.9510596916203" cy="106.06223322809137" r="5.527420679329351" fill="#CFAE58" opacity="0.2049048687670671"/>
  <circle cx="389.9976264594931" cy="433.92921422580326" r="4.901810338426274" fill="#CFAE58" opacity="0.17678432242959857"/>
  <circle cx="1150.3187387362395" cy="56.37237996229635" r="4.743639610890966" fill="#CFAE58" opacity="0.16815272810778126"/>
  <circle cx="632.5748010758808" cy="62.24163062173307" r="4.425364979548724" fill="#CFAE58" opacity="0.19419108275563046"/>
  <circle cx="731.6672309868592" cy="598.4023084484725" r="2.6622883181342436" fill="#CFAE58" opacity="0.13731755439542018"/>
  <circle cx="751.063686931003" cy="291.25076001056624" r="2.5682902079850134" fill="#CFAE58" opacity="0.21660250274214127"/>
  <circle cx="721.481259365596" cy="131.1287731724773" r="4.739396102616077" fill="#CFAE58" opacity="0.1801196230564031"/>
  <circle cx="927.8978180774304" cy="255.76815782883676" r="4.107382365989872" fill="#CFAE58" opacity="0.15352783909217302"/>

  <!-- Border with glow -->
  <rect x="40" y="40" width="1120" height="550" fill="none" stroke="url(#goldGradient)" stroke-width="3" rx="12" filter="url(#softGlow)"/>

  <!-- Icon circle with premium background -->
  <circle cx="150" cy="200" r="75" fill="#CFAE58" opacity="0.15" filter="url(#softGlow)"/>
  <circle cx="150" cy="200" r="70" fill="#CFAE58" opacity="0.25"/>
  <text x="150" y="235" font-size="90" text-anchor="middle" fill="#CFAE58" filter="url(#glow)">💰</text>

  <!-- Premium logo (crown) with enhanced styling -->
  <g transform="translate(100, 70)">
    <path d="M 30 20 L 40 35 L 35 35 Z M 50 15 L 60 35 L 45 35 Z M 65 20 L 75 35 L 70 35 Z M 30 35 L 75 35 L 73 45 L 32 45 Z"
          fill="url(#goldGradient)" filter="url(#glow)" stroke="#B89842" stroke-width="0.5"/>
    <circle cx="40" cy="25" r="3" fill="#4FD1C5" filter="url(#glow)"/>
    <circle cx="52" cy="20" r="4" fill="#4FD1C5" filter="url(#glow)"/>
    <circle cx="65" cy="25" r="3" fill="#4FD1C5" filter="url(#glow)"/>
  </g>

  <!-- Title with shadow -->
  <text x="280" y="180" font-family="Georgia, serif" font-size="72" font-weight="bold"
        fill="url(#goldGradient)" filter="url(#shadow)">Tour Pricing</text>

  <!-- Subtitle with subtle glow -->
  <text x="280" y="230" font-family="Arial, sans-serif" font-size="36"
        fill="#D6DEE6" opacity="0.95" filter="url(#softGlow)">Family, Premium &amp; Corporate Packages</text>

  <!-- Brand name with letter spacing -->
  <text x="280" y="300" font-family="Georgia, serif" font-size="32" font-weight="bold"
        fill="#CFAE58" letter-spacing="4" filter="url(#glow)">ROYAL KETA</text>

  <!-- Russian tagline -->
  <text x="280" y="340" font-family="Arial, sans-serif" font-size="22" font-style="italic"
        fill="#8B95A1" opacity="0.8">От икринки к королевской</text>

  <!-- Location -->
  <text x="280" y="380" font-family="Arial, sans-serif" font-size="20"
        fill="#8B95A1" opacity="0.7">Невельский район, Сахалин</text>

  <!-- Website with glow -->
  <text x="100" y="570" font-family="Arial, sans-serif" font-size="30" font-weight="bold"
        fill="#4FD1C5" filter="url(#glow)">royalketa.com</text>

  <!-- Enhanced decorative salmon silhouette -->
  <g transform="translate(950, 480)" opacity="0.2" filter="url(#softGlow)">
    <ellipse cx="0" cy="0" rx="90" ry="35" fill="#CFAE58"/>
    <path d="M 90 0 L 120 -18 L 130 0 L 120 18 Z" fill="#CFAE58"/>
    <path d="M -25 -35 L 0 -45 L 25 -35 Z" fill="#CFAE58"/>
    <ellipse cx="-50" cy="0" rx="15" ry="12" fill="#0B0F14"/>
  </g>

  <!-- Additional decorative caviar clusters -->
  <g opacity="0.2">
    <circle cx="1050" cy="120" r="6" fill="#CFAE58"/>
    <circle cx="1065" cy="115" r="5" fill="#CFAE58"/>
    <circle cx="1058" cy="130" r="4" fill="#CFAE58"/>
    <circle cx="150" cy="500" r="5" fill="#4FD1C5"/>
    <circle cx="165" cy="508" r="4" fill="#4FD1C5"/>
    <circle cx="140" cy="512" r="5" fill="#4FD1C5"/>
  </g>
</svg>