<svg width="1200" height="630" xmlns="http://www.w3.org/2000/svg">
  <defs>
    <linearGradient id="bgGradient" x1="0%" y1="0%" x2="100%" y2="100%">
      <stop offset="0%" style="stop-color:#0B0F14;stop-opacity:1" />
      <stop offset="50%" style="stop-color:#0F1619;stop-opacity:1" />
      <stop offset="100%" style="stop-color:#0F1922;stop-opacity:1" />
    </linearGradient>
    <linearGradient id="goldGradient" x1="0%" y1="0%" x2="100%" y2="0%">
      <stop offset="0%" style="stop-color:#E5D596;stop-opacity:1" />
      <stop offset="50%" style="stop-color:#CFAE58;stop-opacity:1" />
      <stop offset="100%" style="stop-color:#B89842;stop-opacity:1" />
    </linearGradient>
    <radialGradient id="oceanGradient" cx="50%" cy="50%" r="50%">
      <stop offset="0%" style="stop-color:#4FD1C5;stop-opacity:0.3" />
      <stop offset="100%" style="stop-color:#1E90A0;stop-opacity:0.05" />
    </radialGradient>
    <filter id="glow">
      <feGaussianBlur stdDeviation="5" result="coloredBlur"/>
      <feMerge>
        <feMergeNode in="coloredBlur"/>
        <feMergeNode in="SourceGraphic"/>
      </feMerge>
    </filter>
    <filter id="softGlow">
      <feGaussianBlur stdDeviation="8" result="coloredBlur"/>
      <feMerge>
        <feMergeNode in="coloredBlur"/>
        <feMergeNode in="SourceGraphic"/>
      </feMerge>
    </filter>
    <filter id="shadow">
      <feDropShadow dx="0" dy="4" stdDeviation="8" flood-color="#000000" flood-opacity="0.5"/>
    </filter>
  </defs>

  <!-- Background -->
  <rect width="1200" height="630" fill="url(#bgGradient)"/>

  <!-- Decorative ocean gradients -->
  <ellipse cx="1000" cy="150" rx="300" ry="200" fill="url(#oceanGradient)" opacity="0.4"/>
  <ellipse cx="200" cy="530" rx="250" ry="180" fill="url(#oceanGradient)" opacity="0.3"/>

  <!-- Wave patterns -->
  <path d="M 0 400 Q 300 350 600 400 T 1200 400 L 1200 630 L 0 630 Z" fill="#1E90A0" opacity="0.08"/>
  <path d="M 0 450 Q 250 420 500 450 T 1000 450 T 1200 450 L 1200 630 L 0 630 Z" fill="#4FD1C5" opacity="0.05"/>

  <!-- Caviar roe particles -->
  <circle cx="829.3661032554953" cy="45.879132572187444" r="3.157925561665484" fill="#CFAE58" opacity="0.19946403402128982"/>
  <circle cx="395.3109336396886" cy="132.12847501615943" r="4.628152269565293" fill="#CFAE58" opacity="0.18472581597291682"/>
  <circle cx="64.45644502561177" cy="167.59007270880159" r="5.702318022342821" fill="#CFAE58" opacity="0.21951711273801328"/>
  <circle cx="566.6655599557361" cy="317.7255359960588" r="5.558166075967" fill="#CFAE58" opacity="0.24701725116199502"/>
  <circle cx="644.6181629768662" cy="434.2535376697798" r="3.6981259982557857" fill="#CFAE58" opacity="0.22412585721225886"/>
  <circle cx="1005.709707338297" cy="219.3651780578044" r="3.3155636109646056" fill="#CFAE58" opacity="0.23377005895801686"/>
  <circle cx="855.7565727871499" cy="617.6322011964378" r="5.153176556773028" fill="#CFAE58" opacity="0.12872915879356195"/>
  <circle cx="231.28921330791417" cy="413.6753969349234" r="4.2048130414050995" fill="#CFAE58" opacity="0.15155410377755762"/>
  <circle cx="608.4505113760125" cy="140.6443605883945" r="5.15673229643056" fill="#CFAE58" opacity="0.14585323464433472"/>
  <circle cx="1183.7101180581217" cy="546.2691275790752" r="5.968011313208624" fill="#CFAE58" opacity="0.24962059031097134"/>
  <circle cx="458.2513887918849" cy="348.4019299576461" r="3.376057006892651" fill="#CFAE58" opacity="0.23158018363716332"/>
  <circle cx="449.0047793564375" cy="464.14860001239504" r="4.409817444921622" fill="#CFAE58" opacity="0.24318718595846478"/>
  <circle cx="993.359380042662" cy="112.07246791965835" r="4.705682432812442" fill="#CFAE58" opacity="0.19887670558713408"/>
  <circle cx="513.172017553081" cy="222.7530422170703" r="5.107783289830021" fill="#CFAE58" opacity="0.22761793623235071"/>
  <circle cx="923.4134471998983" cy="138.28497661116324" r="4.13931152996922" fill="#CFAE58" opacity="0.17938046247951273"/>
  <circle cx="8.671482441861578" cy="536.6199610328441" r="4.748312689740304" fill="#CFAE58" opacity="0.1599904670053391"/>
  <circle cx="153.92302199086686" cy="426.0614394847703" r="3.2071360362968826" fill="#CFAE58" opacity="0.11716492156288633"/>
  <circle cx="437.0022370614013" cy="492.2841210215798" r="5.483320854363091" fill="#CFAE58" opacity="0.17444951082027282"/>
  <circle cx="928.322468652991" cy="448.8016149748" r="5.7161205364454855" fill="#CFAE58" opacity="0.14906162676816534"/>
  <circle cx="633.5769973364546" cy="486.4651945155627" r="3.4841385418075417" fill="#CFAE58" opacity="0.1707331935807208"/>
  <circle cx="867.8162988719064" cy="487.03258525630736" r="4.6612919989798" fill="#CFAE58" opacity="0.12599211213491104"/>
  <circle cx="311.78823963826693" cy="237.63443174608727" r="3.1468402956819066" fill="#CFAE58" opacity="0.1300176043162879"/>
  <circle cx="1184.1850558280055" cy="124.40313850004591" r="2.567137677970158" fill="#CFAE58" opacity="0.11704558216634522"/>
  <circle cx="254.55666430610324" cy="612.6334346382536" r="5.9973445859161165" fill="#CFAE58" opacity="0.18487195242088594"/>
  <circle cx="1063.463194940584" cy="16.21565066097468" r="4.285639029098355" fill="#CFAE58" opacity="0.16728360471474651"/>
  <circle cx="1040.6510702734327" cy="215.33969026990576" r="5.050729890810879" fill="#CFAE58" opacity="0.2374482898626595"/>
  <circle cx="730.2701993175891" cy="37.03381191107547" r="2.7553261007488086" fill="#CFAE58" opacity="0.12760806793368523"/>
  <circle cx="637.0526213293142" cy="255.81942552487584" r="5.105583263253463" fill="#CFAE58" opacity="0.16097819421950232"/>
  <circle cx="1006.0714883830593" cy="473.4583095956738" r="3.678860421650002" fill="#CFAE58" opacity="0.13353214688867898"/>
  <circle cx="859.9845736724482" cy="425.87955913265307" r="5.110344345617509" fill="#CFAE58" opacity="0.24704757749338446"/>

  <!-- Border with glow -->
  <rect x="40" y="40" width="1120" height="550" fill="none" stroke="url(#goldGradient)" stroke-width="3" rx="12" filter="url(#softGlow)"/>

  <!-- Icon circle with premium background -->
  <circle cx="150" cy="200" r="75" fill="#CFAE58" opacity="0.15" filter="url(#softGlow)"/>
  <circle cx="150" cy="200" r="70" fill="#CFAE58" opacity="0.25"/>
  <text x="150" y="235" font-size="90" text-anchor="middle" fill="#CFAE58" filter="url(#glow)">💰</text>

  <!-- Premium logo (crown) with enhanced styling -->
  <g transform="translate(100, 70)">
    <path d="M 30 20 L 40 35 L 35 35 Z M 50 15 L 60 35 L 45 35 Z M 65 20 L 75 35 L 70 35 Z M 30 35 L 75 35 L 73 45 L 32 45 Z"
          fill="url(#goldGradient)" filter="url(#glow)" stroke="#B89842" stroke-width="0.5"/>
    <circle cx="40" cy="25" r="3" fill="#4FD1C5" filter="url(#glow)"/>
    <circle cx="52" cy="20" r="4" fill="#4FD1C5" filter="url(#glow)"/>
    <circle cx="65" cy="25" r="3" fill="#4FD1C5" filter="url(#glow)"/>
  </g>

  <!-- Title with shadow -->
  <text x="280" y="180" font-family="Georgia, serif" font-size="72" font-weight="bold"
        fill="url(#goldGradient)" filter="url(#shadow)">Tour Pricing</text>

  <!-- Subtitle with subtle glow -->
  <text x="280" y="230" font-family="Arial, sans-serif" font-size="36"
        fill="#D6DEE6" opacity="0.95" filter="url(#softGlow)">Family, Premium &amp; Corporate Packages</text>

  <!-- Brand name with letter spacing -->
  <text x="280" y="300" font-family="Georgia, serif" font-size="32" font-weight="bold"
        fill="#CFAE58" letter-spacing="4" filter="url(#glow)">ROYAL KETA</text>

  <!-- Russian tagline -->
  <text x="280" y="340" font-family="Arial, sans-serif" font-size="22" font-style="italic"
        fill="#8B95A1" opacity="0.8">От икринки к королевской</text>

  <!-- Location -->
  <text x="280" y="380" font-family="Arial, sans-serif" font-size="20"
        fill="#8B95A1" opacity="0.7">Невельский район, Сахалин</text>

  <!-- Website with glow -->
  <text x="100" y="570" font-family="Arial, sans-serif" font-size="30" font-weight="bold"
        fill="#4FD1C5" filter="url(#glow)">royalketa.com</text>

  <!-- Enhanced decorative salmon silhouette -->
  <g transform="translate(950, 480)" opacity="0.2" filter="url(#softGlow)">
    <ellipse cx="0" cy="0" rx="90" ry="35" fill="#CFAE58"/>
    <path d="M 90 0 L 120 -18 L 130 0 L 120 18 Z" fill="#CFAE58"/>
    <path d="M -25 -35 L 0 -45 L 25 -35 Z" fill="#CFAE58"/>
    <ellipse cx="-50" cy="0" rx="15" ry="12" fill="#0B0F14"/>
  </g>

  <!-- Additional decorative caviar clusters -->
  <g opacity="0.2">
    <circle cx="1050" cy="120" r="6" fill="#CFAE58"/>
    <circle cx="1065" cy="115" r="5" fill="#CFAE58"/>
    <circle cx="1058" cy="130" r="4" fill="#CFAE58"/>
    <circle cx="150" cy="500" r="5" fill="#4FD1C5"/>
    <circle cx="165" cy="508" r="4" fill="#4FD1C5"/>
    <circle cx="140" cy="512" r="5" fill="#4FD1C5"/>
  </g>
</svg>