<svg width="1200" height="630" xmlns="http://www.w3.org/2000/svg">
  <defs>
    <linearGradient id="bgGradient" x1="0%" y1="0%" x2="100%" y2="100%">
      <stop offset="0%" style="stop-color:#0B0F14;stop-opacity:1" />
      <stop offset="50%" style="stop-color:#0F1619;stop-opacity:1" />
      <stop offset="100%" style="stop-color:#0F1922;stop-opacity:1" />
    </linearGradient>
    <linearGradient id="goldGradient" x1="0%" y1="0%" x2="100%" y2="0%">
      <stop offset="0%" style="stop-color:#E5D596;stop-opacity:1" />
      <stop offset="50%" style="stop-color:#CFAE58;stop-opacity:1" />
      <stop offset="100%" style="stop-color:#B89842;stop-opacity:1" />
    </linearGradient>
    <radialGradient id="oceanGradient" cx="50%" cy="50%" r="50%">
      <stop offset="0%" style="stop-color:#4FD1C5;stop-opacity:0.3" />
      <stop offset="100%" style="stop-color:#1E90A0;stop-opacity:0.05" />
    </radialGradient>
    <filter id="glow">
      <feGaussianBlur stdDeviation="5" result="coloredBlur"/>
      <feMerge>
        <feMergeNode in="coloredBlur"/>
        <feMergeNode in="SourceGraphic"/>
      </feMerge>
    </filter>
    <filter id="softGlow">
      <feGaussianBlur stdDeviation="8" result="coloredBlur"/>
      <feMerge>
        <feMergeNode in="coloredBlur"/>
        <feMergeNode in="SourceGraphic"/>
      </feMerge>
    </filter>
    <filter id="shadow">
      <feDropShadow dx="0" dy="4" stdDeviation="8" flood-color="#000000" flood-opacity="0.5"/>
    </filter>
  </defs>

  <!-- Background -->
  <rect width="1200" height="630" fill="url(#bgGradient)"/>

  <!-- Decorative ocean gradients -->
  <ellipse cx="1000" cy="150" rx="300" ry="200" fill="url(#oceanGradient)" opacity="0.4"/>
  <ellipse cx="200" cy="530" rx="250" ry="180" fill="url(#oceanGradient)" opacity="0.3"/>

  <!-- Wave patterns -->
  <path d="M 0 400 Q 300 350 600 400 T 1200 400 L 1200 630 L 0 630 Z" fill="#1E90A0" opacity="0.08"/>
  <path d="M 0 450 Q 250 420 500 450 T 1000 450 T 1200 450 L 1200 630 L 0 630 Z" fill="#4FD1C5" opacity="0.05"/>

  <!-- Caviar roe particles -->
  <circle cx="523.7348024739584" cy="548.1322652759691" r="5.112578135372365" fill="#CFAE58" opacity="0.1378027382105637"/>
  <circle cx="87.8018735224491" cy="390.7223289533798" r="5.497267402106901" fill="#CFAE58" opacity="0.2379471480708405"/>
  <circle cx="126.94275658408101" cy="408.3988667130874" r="2.897465481592537" fill="#CFAE58" opacity="0.2034896046933124"/>
  <circle cx="696.1309597414444" cy="425.67118130880846" r="4.715869228663111" fill="#CFAE58" opacity="0.18342148471616854"/>
  <circle cx="309.5684596450189" cy="321.3460545319713" r="4.709686960947377" fill="#CFAE58" opacity="0.15517372688076644"/>
  <circle cx="513.7715750453312" cy="122.63629387681632" r="3.936700418105981" fill="#CFAE58" opacity="0.24918876956637934"/>
  <circle cx="279.7200315237616" cy="449.7261481746163" r="4.218330385017203" fill="#CFAE58" opacity="0.24028315834077402"/>
  <circle cx="1034.4699015297263" cy="411.7442221108067" r="3.4491549271536925" fill="#CFAE58" opacity="0.10679060111784659"/>
  <circle cx="837.6906247513256" cy="199.8771895414841" r="4.9128634219629665" fill="#CFAE58" opacity="0.21629482823271792"/>
  <circle cx="497.54735279376206" cy="259.62092818423514" r="2.473871761994592" fill="#CFAE58" opacity="0.10121034606605632"/>
  <circle cx="999.9117544350046" cy="589.8373484733645" r="3.929258945444989" fill="#CFAE58" opacity="0.2176855747629548"/>
  <circle cx="815.9902261747721" cy="608.82132035681" r="5.212308207303371" fill="#CFAE58" opacity="0.24264804340238955"/>
  <circle cx="941.385929093435" cy="393.16571135945617" r="2.906563485172464" fill="#CFAE58" opacity="0.13305517940361156"/>
  <circle cx="762.232965761782" cy="143.98081241884282" r="5.482575071971568" fill="#CFAE58" opacity="0.1346733070428809"/>
  <circle cx="1023.1328842464588" cy="589.9893422733561" r="4.592742234630052" fill="#CFAE58" opacity="0.15579610020514287"/>
  <circle cx="935.7357844443018" cy="458.5585529823895" r="3.5073314266208735" fill="#CFAE58" opacity="0.22339831651450273"/>
  <circle cx="1024.0374195909542" cy="334.85944598270044" r="2.9206234971983367" fill="#CFAE58" opacity="0.19475561515217005"/>
  <circle cx="675.4700723695638" cy="30.400872524825168" r="5.063359425035769" fill="#CFAE58" opacity="0.21655047638859995"/>
  <circle cx="1186.4523410702138" cy="302.01678642021557" r="2.101781608817978" fill="#CFAE58" opacity="0.21946131083123846"/>
  <circle cx="921.739488331738" cy="472.19566401077805" r="3.4730516169608077" fill="#CFAE58" opacity="0.2225675855205113"/>
  <circle cx="152.70176230804626" cy="245.58467750967418" r="5.961562035275071" fill="#CFAE58" opacity="0.1603734846193014"/>
  <circle cx="814.0287230734633" cy="626.4442430046422" r="4.013626493467371" fill="#CFAE58" opacity="0.19605517744156148"/>
  <circle cx="748.9262206243792" cy="112.21651715743897" r="4.317121576691653" fill="#CFAE58" opacity="0.17280101370493506"/>
  <circle cx="282.6563113665396" cy="343.01680561781217" r="4.753713144121932" fill="#CFAE58" opacity="0.13728699718966844"/>
  <circle cx="336.0069439864587" cy="2.5095639070086784" r="5.315099512240041" fill="#CFAE58" opacity="0.1882643150782456"/>
  <circle cx="534.4907555138942" cy="138.4741370172569" r="2.5027057722832105" fill="#CFAE58" opacity="0.14618165502732194"/>
  <circle cx="850.9322915924141" cy="414.2680757527404" r="3.6723687478097764" fill="#CFAE58" opacity="0.11856599801291123"/>
  <circle cx="1195.4371755741936" cy="564.0328626360514" r="3.391427642159065" fill="#CFAE58" opacity="0.10073931944783181"/>
  <circle cx="455.4095429468985" cy="257.632057211119" r="2.944086652225641" fill="#CFAE58" opacity="0.2296678102755073"/>
  <circle cx="743.2750938742668" cy="99.79627419751999" r="5.558119456556696" fill="#CFAE58" opacity="0.21504069674202925"/>

  <!-- Border with glow -->
  <rect x="40" y="40" width="1120" height="550" fill="none" stroke="url(#goldGradient)" stroke-width="3" rx="12" filter="url(#softGlow)"/>

  <!-- Icon circle with premium background -->
  <circle cx="150" cy="200" r="75" fill="#CFAE58" opacity="0.15" filter="url(#softGlow)"/>
  <circle cx="150" cy="200" r="70" fill="#CFAE58" opacity="0.25"/>
  <text x="150" y="235" font-size="90" text-anchor="middle" fill="#CFAE58" filter="url(#glow)">💰</text>

  <!-- Premium logo (crown) with enhanced styling -->
  <g transform="translate(100, 70)">
    <path d="M 30 20 L 40 35 L 35 35 Z M 50 15 L 60 35 L 45 35 Z M 65 20 L 75 35 L 70 35 Z M 30 35 L 75 35 L 73 45 L 32 45 Z"
          fill="url(#goldGradient)" filter="url(#glow)" stroke="#B89842" stroke-width="0.5"/>
    <circle cx="40" cy="25" r="3" fill="#4FD1C5" filter="url(#glow)"/>
    <circle cx="52" cy="20" r="4" fill="#4FD1C5" filter="url(#glow)"/>
    <circle cx="65" cy="25" r="3" fill="#4FD1C5" filter="url(#glow)"/>
  </g>

  <!-- Title with shadow -->
  <text x="280" y="180" font-family="Georgia, serif" font-size="72" font-weight="bold"
        fill="url(#goldGradient)" filter="url(#shadow)">Tour Pricing</text>

  <!-- Subtitle with subtle glow -->
  <text x="280" y="230" font-family="Arial, sans-serif" font-size="36"
        fill="#D6DEE6" opacity="0.95" filter="url(#softGlow)">Family, Premium &amp; Corporate Packages</text>

  <!-- Brand name with letter spacing -->
  <text x="280" y="300" font-family="Georgia, serif" font-size="32" font-weight="bold"
        fill="#CFAE58" letter-spacing="4" filter="url(#glow)">ROYAL KETA</text>

  <!-- Russian tagline -->
  <text x="280" y="340" font-family="Arial, sans-serif" font-size="22" font-style="italic"
        fill="#8B95A1" opacity="0.8">От икринки к королевской</text>

  <!-- Location -->
  <text x="280" y="380" font-family="Arial, sans-serif" font-size="20"
        fill="#8B95A1" opacity="0.7">Невельский район, Сахалин</text>

  <!-- Website with glow -->
  <text x="100" y="570" font-family="Arial, sans-serif" font-size="30" font-weight="bold"
        fill="#4FD1C5" filter="url(#glow)">royalketa.com</text>

  <!-- Enhanced decorative salmon silhouette -->
  <g transform="translate(950, 480)" opacity="0.2" filter="url(#softGlow)">
    <ellipse cx="0" cy="0" rx="90" ry="35" fill="#CFAE58"/>
    <path d="M 90 0 L 120 -18 L 130 0 L 120 18 Z" fill="#CFAE58"/>
    <path d="M -25 -35 L 0 -45 L 25 -35 Z" fill="#CFAE58"/>
    <ellipse cx="-50" cy="0" rx="15" ry="12" fill="#0B0F14"/>
  </g>

  <!-- Additional decorative caviar clusters -->
  <g opacity="0.2">
    <circle cx="1050" cy="120" r="6" fill="#CFAE58"/>
    <circle cx="1065" cy="115" r="5" fill="#CFAE58"/>
    <circle cx="1058" cy="130" r="4" fill="#CFAE58"/>
    <circle cx="150" cy="500" r="5" fill="#4FD1C5"/>
    <circle cx="165" cy="508" r="4" fill="#4FD1C5"/>
    <circle cx="140" cy="512" r="5" fill="#4FD1C5"/>
  </g>
</svg>