<svg width="1200" height="630" xmlns="http://www.w3.org/2000/svg">
  <defs>
    <linearGradient id="bgGradient" x1="0%" y1="0%" x2="100%" y2="100%">
      <stop offset="0%" style="stop-color:#0B0F14;stop-opacity:1" />
      <stop offset="50%" style="stop-color:#0F1619;stop-opacity:1" />
      <stop offset="100%" style="stop-color:#0F1922;stop-opacity:1" />
    </linearGradient>
    <linearGradient id="goldGradient" x1="0%" y1="0%" x2="100%" y2="0%">
      <stop offset="0%" style="stop-color:#E5D596;stop-opacity:1" />
      <stop offset="50%" style="stop-color:#CFAE58;stop-opacity:1" />
      <stop offset="100%" style="stop-color:#B89842;stop-opacity:1" />
    </linearGradient>
    <radialGradient id="oceanGradient" cx="50%" cy="50%" r="50%">
      <stop offset="0%" style="stop-color:#4FD1C5;stop-opacity:0.3" />
      <stop offset="100%" style="stop-color:#1E90A0;stop-opacity:0.05" />
    </radialGradient>
    <filter id="glow">
      <feGaussianBlur stdDeviation="5" result="coloredBlur"/>
      <feMerge>
        <feMergeNode in="coloredBlur"/>
        <feMergeNode in="SourceGraphic"/>
      </feMerge>
    </filter>
    <filter id="softGlow">
      <feGaussianBlur stdDeviation="8" result="coloredBlur"/>
      <feMerge>
        <feMergeNode in="coloredBlur"/>
        <feMergeNode in="SourceGraphic"/>
      </feMerge>
    </filter>
    <filter id="shadow">
      <feDropShadow dx="0" dy="4" stdDeviation="8" flood-color="#000000" flood-opacity="0.5"/>
    </filter>
  </defs>

  <!-- Background -->
  <rect width="1200" height="630" fill="url(#bgGradient)"/>

  <!-- Decorative ocean gradients -->
  <ellipse cx="1000" cy="150" rx="300" ry="200" fill="url(#oceanGradient)" opacity="0.4"/>
  <ellipse cx="200" cy="530" rx="250" ry="180" fill="url(#oceanGradient)" opacity="0.3"/>

  <!-- Wave patterns -->
  <path d="M 0 400 Q 300 350 600 400 T 1200 400 L 1200 630 L 0 630 Z" fill="#1E90A0" opacity="0.08"/>
  <path d="M 0 450 Q 250 420 500 450 T 1000 450 T 1200 450 L 1200 630 L 0 630 Z" fill="#4FD1C5" opacity="0.05"/>

  <!-- Caviar roe particles -->
  <circle cx="1017.975804611125" cy="389.8448576031201" r="5.433532053576298" fill="#CFAE58" opacity="0.11254283753780997"/>
  <circle cx="1153.4438927366566" cy="154.02510239722966" r="4.5103199038321495" fill="#CFAE58" opacity="0.20067573566435917"/>
  <circle cx="1098.873693357344" cy="208.64849839191214" r="2.713284766328443" fill="#CFAE58" opacity="0.1912305275117814"/>
  <circle cx="941.9081920182963" cy="141.65008578613222" r="3.7475436304826992" fill="#CFAE58" opacity="0.12640546229315053"/>
  <circle cx="297.9025110358607" cy="8.03838180673499" r="3.7640792358429884" fill="#CFAE58" opacity="0.16826039607634669"/>
  <circle cx="947.6743422617348" cy="512.6721633392955" r="3.219990887541453" fill="#CFAE58" opacity="0.19863954564462583"/>
  <circle cx="713.9918078372249" cy="455.18741096625916" r="3.67499222528906" fill="#CFAE58" opacity="0.1490764766946897"/>
  <circle cx="1044.9562881803745" cy="7.437002640320043" r="5.44083023420416" fill="#CFAE58" opacity="0.10320904587533271"/>
  <circle cx="123.47170288214696" cy="263.13454506288883" r="4.490625351418229" fill="#CFAE58" opacity="0.1622251502973479"/>
  <circle cx="602.8869810247902" cy="198.2286903949597" r="5.488361387166253" fill="#CFAE58" opacity="0.18211960223871634"/>
  <circle cx="707.6761396356517" cy="131.6364380403152" r="2.3742598080319635" fill="#CFAE58" opacity="0.20619081126349031"/>
  <circle cx="551.3385545489936" cy="244.136869016607" r="2.696406949747308" fill="#CFAE58" opacity="0.19692142457685752"/>
  <circle cx="568.2857615178369" cy="364.82212968891685" r="4.471783852590214" fill="#CFAE58" opacity="0.2016347406070687"/>
  <circle cx="416.45857148717715" cy="295.5825327266456" r="5.436651697776547" fill="#CFAE58" opacity="0.1300727945337805"/>
  <circle cx="1145.061366019104" cy="531.4834978054919" r="5.994492940761185" fill="#CFAE58" opacity="0.13090752565267716"/>
  <circle cx="371.7324996416525" cy="585.262997084879" r="2.1707199373265667" fill="#CFAE58" opacity="0.2406078881197991"/>
  <circle cx="640.2673856415717" cy="246.79009530143836" r="5.894264738806854" fill="#CFAE58" opacity="0.14136270032438364"/>
  <circle cx="105.5652609992225" cy="197.1799135362428" r="3.363450560428423" fill="#CFAE58" opacity="0.2227434427115613"/>
  <circle cx="1104.0736811369397" cy="526.2189231555207" r="2.9562301699768936" fill="#CFAE58" opacity="0.14875769138895423"/>
  <circle cx="285.4351506818439" cy="626.4457723765888" r="4.199659970920438" fill="#CFAE58" opacity="0.10620996603840882"/>
  <circle cx="1104.4650691113611" cy="260.6559642513242" r="5.241282606535561" fill="#CFAE58" opacity="0.1513885666513471"/>
  <circle cx="392.0555297650872" cy="530.721346270355" r="5.683294981138341" fill="#CFAE58" opacity="0.2247499151841338"/>
  <circle cx="63.483409682785386" cy="61.717031436815795" r="3.303590431701341" fill="#CFAE58" opacity="0.13372166966779925"/>
  <circle cx="464.6475847744938" cy="393.7134082162306" r="3.8542864514682504" fill="#CFAE58" opacity="0.2341515073765537"/>
  <circle cx="918.2171801521581" cy="326.37414842871476" r="3.110932827726642" fill="#CFAE58" opacity="0.15168787732402325"/>
  <circle cx="129.6403910193594" cy="494.7183228835135" r="2.705806731281754" fill="#CFAE58" opacity="0.2041732132827182"/>
  <circle cx="357.0762370580836" cy="576.9542918251398" r="3.752275866411855" fill="#CFAE58" opacity="0.18860239480039026"/>
  <circle cx="919.040842601973" cy="538.0613289666051" r="2.5087248052374287" fill="#CFAE58" opacity="0.2423700100381002"/>
  <circle cx="111.74836504094428" cy="210.62983427817088" r="2.145478865244936" fill="#CFAE58" opacity="0.17201304106843968"/>
  <circle cx="501.9762177482999" cy="612.1177916676368" r="3.8194498566210697" fill="#CFAE58" opacity="0.17801970312785234"/>

  <!-- Border with glow -->
  <rect x="40" y="40" width="1120" height="550" fill="none" stroke="url(#goldGradient)" stroke-width="3" rx="12" filter="url(#softGlow)"/>

  <!-- Icon circle with premium background -->
  <circle cx="150" cy="200" r="75" fill="#CFAE58" opacity="0.15" filter="url(#softGlow)"/>
  <circle cx="150" cy="200" r="70" fill="#CFAE58" opacity="0.25"/>
  <text x="150" y="235" font-size="90" text-anchor="middle" fill="#CFAE58" filter="url(#glow)">💰</text>

  <!-- Premium logo (crown) with enhanced styling -->
  <g transform="translate(100, 70)">
    <path d="M 30 20 L 40 35 L 35 35 Z M 50 15 L 60 35 L 45 35 Z M 65 20 L 75 35 L 70 35 Z M 30 35 L 75 35 L 73 45 L 32 45 Z"
          fill="url(#goldGradient)" filter="url(#glow)" stroke="#B89842" stroke-width="0.5"/>
    <circle cx="40" cy="25" r="3" fill="#4FD1C5" filter="url(#glow)"/>
    <circle cx="52" cy="20" r="4" fill="#4FD1C5" filter="url(#glow)"/>
    <circle cx="65" cy="25" r="3" fill="#4FD1C5" filter="url(#glow)"/>
  </g>

  <!-- Title with shadow -->
  <text x="280" y="180" font-family="Georgia, serif" font-size="72" font-weight="bold"
        fill="url(#goldGradient)" filter="url(#shadow)">Tour Pricing</text>

  <!-- Subtitle with subtle glow -->
  <text x="280" y="230" font-family="Arial, sans-serif" font-size="36"
        fill="#D6DEE6" opacity="0.95" filter="url(#softGlow)">Family, Premium &amp; Corporate Packages</text>

  <!-- Brand name with letter spacing -->
  <text x="280" y="300" font-family="Georgia, serif" font-size="32" font-weight="bold"
        fill="#CFAE58" letter-spacing="4" filter="url(#glow)">ROYAL KETA</text>

  <!-- Russian tagline -->
  <text x="280" y="340" font-family="Arial, sans-serif" font-size="22" font-style="italic"
        fill="#8B95A1" opacity="0.8">От икринки к королевской</text>

  <!-- Location -->
  <text x="280" y="380" font-family="Arial, sans-serif" font-size="20"
        fill="#8B95A1" opacity="0.7">Невельский район, Сахалин</text>

  <!-- Website with glow -->
  <text x="100" y="570" font-family="Arial, sans-serif" font-size="30" font-weight="bold"
        fill="#4FD1C5" filter="url(#glow)">royalketa.com</text>

  <!-- Enhanced decorative salmon silhouette -->
  <g transform="translate(950, 480)" opacity="0.2" filter="url(#softGlow)">
    <ellipse cx="0" cy="0" rx="90" ry="35" fill="#CFAE58"/>
    <path d="M 90 0 L 120 -18 L 130 0 L 120 18 Z" fill="#CFAE58"/>
    <path d="M -25 -35 L 0 -45 L 25 -35 Z" fill="#CFAE58"/>
    <ellipse cx="-50" cy="0" rx="15" ry="12" fill="#0B0F14"/>
  </g>

  <!-- Additional decorative caviar clusters -->
  <g opacity="0.2">
    <circle cx="1050" cy="120" r="6" fill="#CFAE58"/>
    <circle cx="1065" cy="115" r="5" fill="#CFAE58"/>
    <circle cx="1058" cy="130" r="4" fill="#CFAE58"/>
    <circle cx="150" cy="500" r="5" fill="#4FD1C5"/>
    <circle cx="165" cy="508" r="4" fill="#4FD1C5"/>
    <circle cx="140" cy="512" r="5" fill="#4FD1C5"/>
  </g>
</svg>