<svg width="1200" height="630" xmlns="http://www.w3.org/2000/svg">
  <defs>
    <linearGradient id="bgGradient" x1="0%" y1="0%" x2="100%" y2="100%">
      <stop offset="0%" style="stop-color:#0B0F14;stop-opacity:1" />
      <stop offset="50%" style="stop-color:#0F1619;stop-opacity:1" />
      <stop offset="100%" style="stop-color:#0F1922;stop-opacity:1" />
    </linearGradient>
    <linearGradient id="goldGradient" x1="0%" y1="0%" x2="100%" y2="0%">
      <stop offset="0%" style="stop-color:#E5D596;stop-opacity:1" />
      <stop offset="50%" style="stop-color:#CFAE58;stop-opacity:1" />
      <stop offset="100%" style="stop-color:#B89842;stop-opacity:1" />
    </linearGradient>
    <radialGradient id="oceanGradient" cx="50%" cy="50%" r="50%">
      <stop offset="0%" style="stop-color:#4FD1C5;stop-opacity:0.3" />
      <stop offset="100%" style="stop-color:#1E90A0;stop-opacity:0.05" />
    </radialGradient>
    <filter id="glow">
      <feGaussianBlur stdDeviation="5" result="coloredBlur"/>
      <feMerge>
        <feMergeNode in="coloredBlur"/>
        <feMergeNode in="SourceGraphic"/>
      </feMerge>
    </filter>
    <filter id="softGlow">
      <feGaussianBlur stdDeviation="8" result="coloredBlur"/>
      <feMerge>
        <feMergeNode in="coloredBlur"/>
        <feMergeNode in="SourceGraphic"/>
      </feMerge>
    </filter>
    <filter id="shadow">
      <feDropShadow dx="0" dy="4" stdDeviation="8" flood-color="#000000" flood-opacity="0.5"/>
    </filter>
  </defs>

  <!-- Background -->
  <rect width="1200" height="630" fill="url(#bgGradient)"/>

  <!-- Decorative ocean gradients -->
  <ellipse cx="1000" cy="150" rx="300" ry="200" fill="url(#oceanGradient)" opacity="0.4"/>
  <ellipse cx="200" cy="530" rx="250" ry="180" fill="url(#oceanGradient)" opacity="0.3"/>

  <!-- Wave patterns -->
  <path d="M 0 400 Q 300 350 600 400 T 1200 400 L 1200 630 L 0 630 Z" fill="#1E90A0" opacity="0.08"/>
  <path d="M 0 450 Q 250 420 500 450 T 1000 450 T 1200 450 L 1200 630 L 0 630 Z" fill="#4FD1C5" opacity="0.05"/>

  <!-- Caviar roe particles -->
  <circle cx="556.3065556552731" cy="297.41335491852004" r="5.6020617056592945" fill="#CFAE58" opacity="0.1502566897025398"/>
  <circle cx="201.2408638213921" cy="535.389513981771" r="5.727363642168193" fill="#CFAE58" opacity="0.11659545604967426"/>
  <circle cx="952.3453082653599" cy="324.48606470628795" r="5.263637349353351" fill="#CFAE58" opacity="0.11099806291186029"/>
  <circle cx="408.2983849584442" cy="356.4131765712261" r="5.541860173246989" fill="#CFAE58" opacity="0.10790185027445755"/>
  <circle cx="954.9441064212807" cy="374.4600419537992" r="2.7194006398455564" fill="#CFAE58" opacity="0.15455992076847294"/>
  <circle cx="986.367649669051" cy="378.7171692341614" r="4.318864285716904" fill="#CFAE58" opacity="0.22426413029597195"/>
  <circle cx="23.843661003620696" cy="354.37269970591683" r="5.329942405139715" fill="#CFAE58" opacity="0.1327918367284343"/>
  <circle cx="539.8115972602304" cy="347.68416000923463" r="2.1974386923082037" fill="#CFAE58" opacity="0.15069880797922275"/>
  <circle cx="641.0323367789679" cy="247.47815725717362" r="5.018200005365904" fill="#CFAE58" opacity="0.160549791361603"/>
  <circle cx="60.008478180097356" cy="578.5463316857767" r="4.8052651068702845" fill="#CFAE58" opacity="0.10652412164983158"/>
  <circle cx="351.72600055447333" cy="397.1476738977218" r="5.376766775655465" fill="#CFAE58" opacity="0.24095604787065267"/>
  <circle cx="644.7158759597667" cy="446.1625162201682" r="5.107083309647447" fill="#CFAE58" opacity="0.14213579067703036"/>
  <circle cx="1179.538966955839" cy="54.832426861845505" r="4.382789354033353" fill="#CFAE58" opacity="0.2404337653130896"/>
  <circle cx="455.92190096083834" cy="126.46624284647835" r="4.081635875812648" fill="#CFAE58" opacity="0.19683920874664407"/>
  <circle cx="195.21990372828282" cy="417.84914391796497" r="2.561325854650562" fill="#CFAE58" opacity="0.23463059253210772"/>
  <circle cx="1013.8266733189016" cy="87.68645337346405" r="2.5375966309687867" fill="#CFAE58" opacity="0.19690023022583125"/>
  <circle cx="852.235679393674" cy="57.9277882098548" r="5.903267554079661" fill="#CFAE58" opacity="0.21812318245895657"/>
  <circle cx="649.6733278832571" cy="51.677685566202655" r="2.2130597006004047" fill="#CFAE58" opacity="0.18692924173272896"/>
  <circle cx="1077.2666194426174" cy="494.38773826750395" r="5.428264123134932" fill="#CFAE58" opacity="0.24587440347347075"/>
  <circle cx="386.643282640152" cy="334.59100746236476" r="5.660509705163069" fill="#CFAE58" opacity="0.15228927502544423"/>
  <circle cx="248.8117969167435" cy="161.25593214380956" r="4.2323598755467335" fill="#CFAE58" opacity="0.17629721109521845"/>
  <circle cx="911.9435986834387" cy="625.7669401181104" r="2.581214476328584" fill="#CFAE58" opacity="0.20555768194559876"/>
  <circle cx="34.74277322545212" cy="17.776661409252323" r="2.800497150827426" fill="#CFAE58" opacity="0.22263327650394527"/>
  <circle cx="501.74739890458983" cy="88.05058334062346" r="5.387341767603841" fill="#CFAE58" opacity="0.22361133987897042"/>
  <circle cx="815.949245640744" cy="347.7300589964093" r="4.67622257788293" fill="#CFAE58" opacity="0.2095598986097516"/>
  <circle cx="67.36652248807408" cy="99.09378600881003" r="2.1155200628555875" fill="#CFAE58" opacity="0.24757849869756177"/>
  <circle cx="982.936073679029" cy="453.8981401444173" r="3.4553628953079807" fill="#CFAE58" opacity="0.19958093105732938"/>
  <circle cx="1155.7778848035982" cy="80.35068326487114" r="4.578421807286505" fill="#CFAE58" opacity="0.17454271874871496"/>
  <circle cx="173.8639529583852" cy="514.5795501171148" r="4.765218386362477" fill="#CFAE58" opacity="0.13032348729631607"/>
  <circle cx="447.2701350186129" cy="88.59204593136228" r="4.181035501904732" fill="#CFAE58" opacity="0.1284531342495409"/>

  <!-- Border with glow -->
  <rect x="40" y="40" width="1120" height="550" fill="none" stroke="url(#goldGradient)" stroke-width="3" rx="12" filter="url(#softGlow)"/>

  <!-- Icon circle with premium background -->
  <circle cx="150" cy="200" r="75" fill="#CFAE58" opacity="0.15" filter="url(#softGlow)"/>
  <circle cx="150" cy="200" r="70" fill="#CFAE58" opacity="0.25"/>
  <text x="150" y="235" font-size="90" text-anchor="middle" fill="#CFAE58" filter="url(#glow)">💰</text>

  <!-- Premium logo (crown) with enhanced styling -->
  <g transform="translate(100, 70)">
    <path d="M 30 20 L 40 35 L 35 35 Z M 50 15 L 60 35 L 45 35 Z M 65 20 L 75 35 L 70 35 Z M 30 35 L 75 35 L 73 45 L 32 45 Z"
          fill="url(#goldGradient)" filter="url(#glow)" stroke="#B89842" stroke-width="0.5"/>
    <circle cx="40" cy="25" r="3" fill="#4FD1C5" filter="url(#glow)"/>
    <circle cx="52" cy="20" r="4" fill="#4FD1C5" filter="url(#glow)"/>
    <circle cx="65" cy="25" r="3" fill="#4FD1C5" filter="url(#glow)"/>
  </g>

  <!-- Title with shadow -->
  <text x="280" y="180" font-family="Georgia, serif" font-size="72" font-weight="bold"
        fill="url(#goldGradient)" filter="url(#shadow)">Tour Pricing</text>

  <!-- Subtitle with subtle glow -->
  <text x="280" y="230" font-family="Arial, sans-serif" font-size="36"
        fill="#D6DEE6" opacity="0.95" filter="url(#softGlow)">Family, Premium &amp; Corporate Packages</text>

  <!-- Brand name with letter spacing -->
  <text x="280" y="300" font-family="Georgia, serif" font-size="32" font-weight="bold"
        fill="#CFAE58" letter-spacing="4" filter="url(#glow)">ROYAL KETA</text>

  <!-- Russian tagline -->
  <text x="280" y="340" font-family="Arial, sans-serif" font-size="22" font-style="italic"
        fill="#8B95A1" opacity="0.8">От икринки к королевской</text>

  <!-- Location -->
  <text x="280" y="380" font-family="Arial, sans-serif" font-size="20"
        fill="#8B95A1" opacity="0.7">Невельский район, Сахалин</text>

  <!-- Website with glow -->
  <text x="100" y="570" font-family="Arial, sans-serif" font-size="30" font-weight="bold"
        fill="#4FD1C5" filter="url(#glow)">royalketa.com</text>

  <!-- Enhanced decorative salmon silhouette -->
  <g transform="translate(950, 480)" opacity="0.2" filter="url(#softGlow)">
    <ellipse cx="0" cy="0" rx="90" ry="35" fill="#CFAE58"/>
    <path d="M 90 0 L 120 -18 L 130 0 L 120 18 Z" fill="#CFAE58"/>
    <path d="M -25 -35 L 0 -45 L 25 -35 Z" fill="#CFAE58"/>
    <ellipse cx="-50" cy="0" rx="15" ry="12" fill="#0B0F14"/>
  </g>

  <!-- Additional decorative caviar clusters -->
  <g opacity="0.2">
    <circle cx="1050" cy="120" r="6" fill="#CFAE58"/>
    <circle cx="1065" cy="115" r="5" fill="#CFAE58"/>
    <circle cx="1058" cy="130" r="4" fill="#CFAE58"/>
    <circle cx="150" cy="500" r="5" fill="#4FD1C5"/>
    <circle cx="165" cy="508" r="4" fill="#4FD1C5"/>
    <circle cx="140" cy="512" r="5" fill="#4FD1C5"/>
  </g>
</svg>