<svg width="1200" height="630" xmlns="http://www.w3.org/2000/svg">
  <defs>
    <linearGradient id="bgGradient" x1="0%" y1="0%" x2="100%" y2="100%">
      <stop offset="0%" style="stop-color:#0B0F14;stop-opacity:1" />
      <stop offset="50%" style="stop-color:#0F1619;stop-opacity:1" />
      <stop offset="100%" style="stop-color:#0F1922;stop-opacity:1" />
    </linearGradient>
    <linearGradient id="goldGradient" x1="0%" y1="0%" x2="100%" y2="0%">
      <stop offset="0%" style="stop-color:#E5D596;stop-opacity:1" />
      <stop offset="50%" style="stop-color:#CFAE58;stop-opacity:1" />
      <stop offset="100%" style="stop-color:#B89842;stop-opacity:1" />
    </linearGradient>
    <radialGradient id="oceanGradient" cx="50%" cy="50%" r="50%">
      <stop offset="0%" style="stop-color:#4FD1C5;stop-opacity:0.3" />
      <stop offset="100%" style="stop-color:#1E90A0;stop-opacity:0.05" />
    </radialGradient>
    <filter id="glow">
      <feGaussianBlur stdDeviation="5" result="coloredBlur"/>
      <feMerge>
        <feMergeNode in="coloredBlur"/>
        <feMergeNode in="SourceGraphic"/>
      </feMerge>
    </filter>
    <filter id="softGlow">
      <feGaussianBlur stdDeviation="8" result="coloredBlur"/>
      <feMerge>
        <feMergeNode in="coloredBlur"/>
        <feMergeNode in="SourceGraphic"/>
      </feMerge>
    </filter>
    <filter id="shadow">
      <feDropShadow dx="0" dy="4" stdDeviation="8" flood-color="#000000" flood-opacity="0.5"/>
    </filter>
  </defs>

  <!-- Background -->
  <rect width="1200" height="630" fill="url(#bgGradient)"/>

  <!-- Decorative ocean gradients -->
  <ellipse cx="1000" cy="150" rx="300" ry="200" fill="url(#oceanGradient)" opacity="0.4"/>
  <ellipse cx="200" cy="530" rx="250" ry="180" fill="url(#oceanGradient)" opacity="0.3"/>

  <!-- Wave patterns -->
  <path d="M 0 400 Q 300 350 600 400 T 1200 400 L 1200 630 L 0 630 Z" fill="#1E90A0" opacity="0.08"/>
  <path d="M 0 450 Q 250 420 500 450 T 1000 450 T 1200 450 L 1200 630 L 0 630 Z" fill="#4FD1C5" opacity="0.05"/>

  <!-- Caviar roe particles -->
  <circle cx="363.2256003052917" cy="73.88348682861611" r="2.329593789538608" fill="#CFAE58" opacity="0.24787828266767212"/>
  <circle cx="153.19787813878438" cy="458.71057899624134" r="4.750234206736032" fill="#CFAE58" opacity="0.1177782549657021"/>
  <circle cx="1129.409890607689" cy="16.539148240324113" r="5.921739125079236" fill="#CFAE58" opacity="0.23815238043966072"/>
  <circle cx="725.9364433056207" cy="69.51055152344856" r="2.333759106223613" fill="#CFAE58" opacity="0.10956620749960579"/>
  <circle cx="917.336765716943" cy="416.8187716086154" r="3.5096278385091804" fill="#CFAE58" opacity="0.1614335947510469"/>
  <circle cx="234.86870212935082" cy="216.55551941154823" r="5.282507285367384" fill="#CFAE58" opacity="0.1753738824243865"/>
  <circle cx="21.832657302053526" cy="465.18291835832537" r="2.959207305316999" fill="#CFAE58" opacity="0.15872471139483213"/>
  <circle cx="457.2823365256171" cy="621.9986466026965" r="4.018847517717038" fill="#CFAE58" opacity="0.11649652209638993"/>
  <circle cx="486.5701646750054" cy="65.27292606274543" r="3.4935193711340222" fill="#CFAE58" opacity="0.19775121014896285"/>
  <circle cx="522.3451976748903" cy="404.70153452986324" r="3.4029310100433308" fill="#CFAE58" opacity="0.24074711298295223"/>
  <circle cx="326.5096554663683" cy="444.31607756117666" r="2.291775650402219" fill="#CFAE58" opacity="0.11833623750731764"/>
  <circle cx="59.320307478375156" cy="569.2273523844656" r="2.740306266648522" fill="#CFAE58" opacity="0.21949750808073226"/>
  <circle cx="713.4767376866445" cy="102.60786546945958" r="4.7973966645973265" fill="#CFAE58" opacity="0.22648926321519164"/>
  <circle cx="856.2248928049496" cy="533.1063482191313" r="3.58710291163146" fill="#CFAE58" opacity="0.22711663360872178"/>
  <circle cx="107.67870001566035" cy="22.680367269361664" r="3.137114210123899" fill="#CFAE58" opacity="0.11276755325249047"/>
  <circle cx="493.03296141354383" cy="88.81427513324851" r="4.016230963527727" fill="#CFAE58" opacity="0.18757273296932753"/>
  <circle cx="339.76855652098845" cy="234.31256061419722" r="5.615855187466478" fill="#CFAE58" opacity="0.14769877632386447"/>
  <circle cx="940.2596704323956" cy="490.7548848184327" r="5.97742888600966" fill="#CFAE58" opacity="0.13247236115122002"/>
  <circle cx="1117.3522217564366" cy="585.7775671292214" r="5.375875399155049" fill="#CFAE58" opacity="0.12866998959141704"/>
  <circle cx="391.939506394107" cy="72.44305853312098" r="3.1797890764680967" fill="#CFAE58" opacity="0.13086209387557374"/>
  <circle cx="452.3512063536777" cy="290.2800099090705" r="2.02744392437833" fill="#CFAE58" opacity="0.12324315297563704"/>
  <circle cx="1022.7975348085262" cy="508.94161180878854" r="5.522983054661274" fill="#CFAE58" opacity="0.23167147890591827"/>
  <circle cx="334.41685806438494" cy="313.93496904159207" r="3.4403788538883626" fill="#CFAE58" opacity="0.18750731434444018"/>
  <circle cx="437.2515075957329" cy="390.41955869616794" r="2.576823664891083" fill="#CFAE58" opacity="0.14370174898219723"/>
  <circle cx="1167.6057231128893" cy="346.8454570950084" r="5.1106170172718315" fill="#CFAE58" opacity="0.16616418178145692"/>
  <circle cx="956.8546033666167" cy="130.7839834019044" r="3.5492184649030594" fill="#CFAE58" opacity="0.18703406619915916"/>
  <circle cx="524.2381947909317" cy="283.38246057652907" r="2.2301497800095937" fill="#CFAE58" opacity="0.2328071228604082"/>
  <circle cx="437.9268684386626" cy="180.2781637514527" r="2.749943367803922" fill="#CFAE58" opacity="0.20955064047278368"/>
  <circle cx="12.591970777827877" cy="601.4097819439063" r="3.6318390942043024" fill="#CFAE58" opacity="0.19250119937198956"/>
  <circle cx="476.71144909008024" cy="499.41959792990605" r="5.921519915987304" fill="#CFAE58" opacity="0.18598916475621546"/>

  <!-- Border with glow -->
  <rect x="40" y="40" width="1120" height="550" fill="none" stroke="url(#goldGradient)" stroke-width="3" rx="12" filter="url(#softGlow)"/>

  <!-- Icon circle with premium background -->
  <circle cx="150" cy="200" r="75" fill="#CFAE58" opacity="0.15" filter="url(#softGlow)"/>
  <circle cx="150" cy="200" r="70" fill="#CFAE58" opacity="0.25"/>
  <text x="150" y="235" font-size="90" text-anchor="middle" fill="#CFAE58" filter="url(#glow)">💰</text>

  <!-- Premium logo (crown) with enhanced styling -->
  <g transform="translate(100, 70)">
    <path d="M 30 20 L 40 35 L 35 35 Z M 50 15 L 60 35 L 45 35 Z M 65 20 L 75 35 L 70 35 Z M 30 35 L 75 35 L 73 45 L 32 45 Z"
          fill="url(#goldGradient)" filter="url(#glow)" stroke="#B89842" stroke-width="0.5"/>
    <circle cx="40" cy="25" r="3" fill="#4FD1C5" filter="url(#glow)"/>
    <circle cx="52" cy="20" r="4" fill="#4FD1C5" filter="url(#glow)"/>
    <circle cx="65" cy="25" r="3" fill="#4FD1C5" filter="url(#glow)"/>
  </g>

  <!-- Title with shadow -->
  <text x="280" y="180" font-family="Georgia, serif" font-size="72" font-weight="bold"
        fill="url(#goldGradient)" filter="url(#shadow)">Tour Pricing</text>

  <!-- Subtitle with subtle glow -->
  <text x="280" y="230" font-family="Arial, sans-serif" font-size="36"
        fill="#D6DEE6" opacity="0.95" filter="url(#softGlow)">Family, Premium &amp; Corporate Packages</text>

  <!-- Brand name with letter spacing -->
  <text x="280" y="300" font-family="Georgia, serif" font-size="32" font-weight="bold"
        fill="#CFAE58" letter-spacing="4" filter="url(#glow)">ROYAL KETA</text>

  <!-- Russian tagline -->
  <text x="280" y="340" font-family="Arial, sans-serif" font-size="22" font-style="italic"
        fill="#8B95A1" opacity="0.8">От икринки к королевской</text>

  <!-- Location -->
  <text x="280" y="380" font-family="Arial, sans-serif" font-size="20"
        fill="#8B95A1" opacity="0.7">Невельский район, Сахалин</text>

  <!-- Website with glow -->
  <text x="100" y="570" font-family="Arial, sans-serif" font-size="30" font-weight="bold"
        fill="#4FD1C5" filter="url(#glow)">royalketa.com</text>

  <!-- Enhanced decorative salmon silhouette -->
  <g transform="translate(950, 480)" opacity="0.2" filter="url(#softGlow)">
    <ellipse cx="0" cy="0" rx="90" ry="35" fill="#CFAE58"/>
    <path d="M 90 0 L 120 -18 L 130 0 L 120 18 Z" fill="#CFAE58"/>
    <path d="M -25 -35 L 0 -45 L 25 -35 Z" fill="#CFAE58"/>
    <ellipse cx="-50" cy="0" rx="15" ry="12" fill="#0B0F14"/>
  </g>

  <!-- Additional decorative caviar clusters -->
  <g opacity="0.2">
    <circle cx="1050" cy="120" r="6" fill="#CFAE58"/>
    <circle cx="1065" cy="115" r="5" fill="#CFAE58"/>
    <circle cx="1058" cy="130" r="4" fill="#CFAE58"/>
    <circle cx="150" cy="500" r="5" fill="#4FD1C5"/>
    <circle cx="165" cy="508" r="4" fill="#4FD1C5"/>
    <circle cx="140" cy="512" r="5" fill="#4FD1C5"/>
  </g>
</svg>