<svg width="1200" height="630" xmlns="http://www.w3.org/2000/svg">
  <defs>
    <linearGradient id="bgGradient" x1="0%" y1="0%" x2="100%" y2="100%">
      <stop offset="0%" style="stop-color:#0B0F14;stop-opacity:1" />
      <stop offset="50%" style="stop-color:#0F1619;stop-opacity:1" />
      <stop offset="100%" style="stop-color:#0F1922;stop-opacity:1" />
    </linearGradient>
    <linearGradient id="goldGradient" x1="0%" y1="0%" x2="100%" y2="0%">
      <stop offset="0%" style="stop-color:#E5D596;stop-opacity:1" />
      <stop offset="50%" style="stop-color:#CFAE58;stop-opacity:1" />
      <stop offset="100%" style="stop-color:#B89842;stop-opacity:1" />
    </linearGradient>
    <radialGradient id="oceanGradient" cx="50%" cy="50%" r="50%">
      <stop offset="0%" style="stop-color:#4FD1C5;stop-opacity:0.3" />
      <stop offset="100%" style="stop-color:#1E90A0;stop-opacity:0.05" />
    </radialGradient>
    <filter id="glow">
      <feGaussianBlur stdDeviation="5" result="coloredBlur"/>
      <feMerge>
        <feMergeNode in="coloredBlur"/>
        <feMergeNode in="SourceGraphic"/>
      </feMerge>
    </filter>
    <filter id="softGlow">
      <feGaussianBlur stdDeviation="8" result="coloredBlur"/>
      <feMerge>
        <feMergeNode in="coloredBlur"/>
        <feMergeNode in="SourceGraphic"/>
      </feMerge>
    </filter>
    <filter id="shadow">
      <feDropShadow dx="0" dy="4" stdDeviation="8" flood-color="#000000" flood-opacity="0.5"/>
    </filter>
  </defs>

  <!-- Background -->
  <rect width="1200" height="630" fill="url(#bgGradient)"/>

  <!-- Decorative ocean gradients -->
  <ellipse cx="1000" cy="150" rx="300" ry="200" fill="url(#oceanGradient)" opacity="0.4"/>
  <ellipse cx="200" cy="530" rx="250" ry="180" fill="url(#oceanGradient)" opacity="0.3"/>

  <!-- Wave patterns -->
  <path d="M 0 400 Q 300 350 600 400 T 1200 400 L 1200 630 L 0 630 Z" fill="#1E90A0" opacity="0.08"/>
  <path d="M 0 450 Q 250 420 500 450 T 1000 450 T 1200 450 L 1200 630 L 0 630 Z" fill="#4FD1C5" opacity="0.05"/>

  <!-- Caviar roe particles -->
  <circle cx="613.3050028168589" cy="356.10997135071176" r="2.46093800642715" fill="#CFAE58" opacity="0.17430813227989322"/>
  <circle cx="410.35254571012393" cy="481.1104960694326" r="4.505668261391111" fill="#CFAE58" opacity="0.2017533506182903"/>
  <circle cx="329.0133899650842" cy="144.6103304880212" r="4.695092112873592" fill="#CFAE58" opacity="0.13415148870282484"/>
  <circle cx="813.7575006210591" cy="359.4707374767651" r="4.570700457423773" fill="#CFAE58" opacity="0.15563379659321927"/>
  <circle cx="615.5327043365066" cy="90.30389224962624" r="2.9940994242110657" fill="#CFAE58" opacity="0.21079582540964886"/>
  <circle cx="1109.3295235892451" cy="308.3257866685912" r="5.764049710763193" fill="#CFAE58" opacity="0.17282081147936335"/>
  <circle cx="265.4011779927886" cy="488.06129232197287" r="4.340731820108202" fill="#CFAE58" opacity="0.17998629550827538"/>
  <circle cx="1082.6670145820008" cy="263.8471535492013" r="3.1962374472178254" fill="#CFAE58" opacity="0.1575381983218429"/>
  <circle cx="1181.2478303487628" cy="514.5819174330506" r="4.750726034730385" fill="#CFAE58" opacity="0.17979408939631597"/>
  <circle cx="452.1259324540301" cy="172.2107013806235" r="4.702606934077329" fill="#CFAE58" opacity="0.12922023261141646"/>
  <circle cx="553.2337072348291" cy="527.7753816248861" r="5.668773313508451" fill="#CFAE58" opacity="0.16567696868520937"/>
  <circle cx="330.92277437196543" cy="376.6142871335378" r="4.942180819557729" fill="#CFAE58" opacity="0.1709698443549012"/>
  <circle cx="985.6948438897792" cy="111.08135660953518" r="5.730958971450814" fill="#CFAE58" opacity="0.1297224153757606"/>
  <circle cx="602.3011721935401" cy="547.9337592999781" r="2.720082016307738" fill="#CFAE58" opacity="0.11403792923882142"/>
  <circle cx="610.902461988519" cy="497.56917656814085" r="3.434310949810307" fill="#CFAE58" opacity="0.2046672905286523"/>
  <circle cx="85.89420051557437" cy="63.06165290780401" r="2.522203524780513" fill="#CFAE58" opacity="0.18727027784783568"/>
  <circle cx="102.93468857197445" cy="494.88300174105865" r="4.624728908923242" fill="#CFAE58" opacity="0.1614684168726383"/>
  <circle cx="1137.6765118860567" cy="390.4970398294234" r="4.0236496582701164" fill="#CFAE58" opacity="0.17465875821181098"/>
  <circle cx="953.6991418980343" cy="263.9180384991706" r="3.2103738435257068" fill="#CFAE58" opacity="0.15466400052062318"/>
  <circle cx="1197.4425222467144" cy="109.61502566332626" r="4.962401118897103" fill="#CFAE58" opacity="0.24579022669723866"/>
  <circle cx="1147.9220429305708" cy="615.6713897800099" r="4.6692112164669375" fill="#CFAE58" opacity="0.19956663798629926"/>
  <circle cx="1094.481313005163" cy="175.00601870815342" r="5.887478989872429" fill="#CFAE58" opacity="0.22461123621167575"/>
  <circle cx="1070.3361199387239" cy="160.96470707940853" r="3.914750515875376" fill="#CFAE58" opacity="0.17879603637384966"/>
  <circle cx="1065.080755822731" cy="399.10436995826365" r="5.563854048126313" fill="#CFAE58" opacity="0.148864431682095"/>
  <circle cx="613.6915983245954" cy="65.80370188555483" r="4.844189253297417" fill="#CFAE58" opacity="0.13787030438723105"/>
  <circle cx="2.1084257408332086" cy="21.364620731655478" r="2.505539492759148" fill="#CFAE58" opacity="0.2337676608525788"/>
  <circle cx="664.3721992153081" cy="485.7182770927704" r="5.134774923823856" fill="#CFAE58" opacity="0.20921959967361442"/>
  <circle cx="326.42157788825983" cy="34.048772539710505" r="2.043635507564407" fill="#CFAE58" opacity="0.16360644797561602"/>
  <circle cx="48.69868570835618" cy="141.16586568402371" r="4.728358562353424" fill="#CFAE58" opacity="0.20343992984501338"/>
  <circle cx="848.1135846931438" cy="626.9095572619043" r="4.600492440619702" fill="#CFAE58" opacity="0.2287586661592372"/>

  <!-- Border with glow -->
  <rect x="40" y="40" width="1120" height="550" fill="none" stroke="url(#goldGradient)" stroke-width="3" rx="12" filter="url(#softGlow)"/>

  <!-- Icon circle with premium background -->
  <circle cx="150" cy="200" r="75" fill="#CFAE58" opacity="0.15" filter="url(#softGlow)"/>
  <circle cx="150" cy="200" r="70" fill="#CFAE58" opacity="0.25"/>
  <text x="150" y="235" font-size="90" text-anchor="middle" fill="#CFAE58" filter="url(#glow)">💰</text>

  <!-- Premium logo (crown) with enhanced styling -->
  <g transform="translate(100, 70)">
    <path d="M 30 20 L 40 35 L 35 35 Z M 50 15 L 60 35 L 45 35 Z M 65 20 L 75 35 L 70 35 Z M 30 35 L 75 35 L 73 45 L 32 45 Z"
          fill="url(#goldGradient)" filter="url(#glow)" stroke="#B89842" stroke-width="0.5"/>
    <circle cx="40" cy="25" r="3" fill="#4FD1C5" filter="url(#glow)"/>
    <circle cx="52" cy="20" r="4" fill="#4FD1C5" filter="url(#glow)"/>
    <circle cx="65" cy="25" r="3" fill="#4FD1C5" filter="url(#glow)"/>
  </g>

  <!-- Title with shadow -->
  <text x="280" y="180" font-family="Georgia, serif" font-size="72" font-weight="bold"
        fill="url(#goldGradient)" filter="url(#shadow)">Tour Pricing</text>

  <!-- Subtitle with subtle glow -->
  <text x="280" y="230" font-family="Arial, sans-serif" font-size="36"
        fill="#D6DEE6" opacity="0.95" filter="url(#softGlow)">Family, Premium &amp; Corporate Packages</text>

  <!-- Brand name with letter spacing -->
  <text x="280" y="300" font-family="Georgia, serif" font-size="32" font-weight="bold"
        fill="#CFAE58" letter-spacing="4" filter="url(#glow)">ROYAL KETA</text>

  <!-- Russian tagline -->
  <text x="280" y="340" font-family="Arial, sans-serif" font-size="22" font-style="italic"
        fill="#8B95A1" opacity="0.8">От икринки к королевской</text>

  <!-- Location -->
  <text x="280" y="380" font-family="Arial, sans-serif" font-size="20"
        fill="#8B95A1" opacity="0.7">Невельский район, Сахалин</text>

  <!-- Website with glow -->
  <text x="100" y="570" font-family="Arial, sans-serif" font-size="30" font-weight="bold"
        fill="#4FD1C5" filter="url(#glow)">royalketa.com</text>

  <!-- Enhanced decorative salmon silhouette -->
  <g transform="translate(950, 480)" opacity="0.2" filter="url(#softGlow)">
    <ellipse cx="0" cy="0" rx="90" ry="35" fill="#CFAE58"/>
    <path d="M 90 0 L 120 -18 L 130 0 L 120 18 Z" fill="#CFAE58"/>
    <path d="M -25 -35 L 0 -45 L 25 -35 Z" fill="#CFAE58"/>
    <ellipse cx="-50" cy="0" rx="15" ry="12" fill="#0B0F14"/>
  </g>

  <!-- Additional decorative caviar clusters -->
  <g opacity="0.2">
    <circle cx="1050" cy="120" r="6" fill="#CFAE58"/>
    <circle cx="1065" cy="115" r="5" fill="#CFAE58"/>
    <circle cx="1058" cy="130" r="4" fill="#CFAE58"/>
    <circle cx="150" cy="500" r="5" fill="#4FD1C5"/>
    <circle cx="165" cy="508" r="4" fill="#4FD1C5"/>
    <circle cx="140" cy="512" r="5" fill="#4FD1C5"/>
  </g>
</svg>