<svg width="1200" height="630" xmlns="http://www.w3.org/2000/svg">
  <defs>
    <linearGradient id="bgGradient" x1="0%" y1="0%" x2="100%" y2="100%">
      <stop offset="0%" style="stop-color:#0B0F14;stop-opacity:1" />
      <stop offset="50%" style="stop-color:#0F1619;stop-opacity:1" />
      <stop offset="100%" style="stop-color:#0F1922;stop-opacity:1" />
    </linearGradient>
    <linearGradient id="goldGradient" x1="0%" y1="0%" x2="100%" y2="0%">
      <stop offset="0%" style="stop-color:#E5D596;stop-opacity:1" />
      <stop offset="50%" style="stop-color:#CFAE58;stop-opacity:1" />
      <stop offset="100%" style="stop-color:#B89842;stop-opacity:1" />
    </linearGradient>
    <radialGradient id="oceanGradient" cx="50%" cy="50%" r="50%">
      <stop offset="0%" style="stop-color:#4FD1C5;stop-opacity:0.3" />
      <stop offset="100%" style="stop-color:#1E90A0;stop-opacity:0.05" />
    </radialGradient>
    <filter id="glow">
      <feGaussianBlur stdDeviation="5" result="coloredBlur"/>
      <feMerge>
        <feMergeNode in="coloredBlur"/>
        <feMergeNode in="SourceGraphic"/>
      </feMerge>
    </filter>
    <filter id="softGlow">
      <feGaussianBlur stdDeviation="8" result="coloredBlur"/>
      <feMerge>
        <feMergeNode in="coloredBlur"/>
        <feMergeNode in="SourceGraphic"/>
      </feMerge>
    </filter>
    <filter id="shadow">
      <feDropShadow dx="0" dy="4" stdDeviation="8" flood-color="#000000" flood-opacity="0.5"/>
    </filter>
  </defs>

  <!-- Background -->
  <rect width="1200" height="630" fill="url(#bgGradient)"/>

  <!-- Decorative ocean gradients -->
  <ellipse cx="1000" cy="150" rx="300" ry="200" fill="url(#oceanGradient)" opacity="0.4"/>
  <ellipse cx="200" cy="530" rx="250" ry="180" fill="url(#oceanGradient)" opacity="0.3"/>

  <!-- Wave patterns -->
  <path d="M 0 400 Q 300 350 600 400 T 1200 400 L 1200 630 L 0 630 Z" fill="#1E90A0" opacity="0.08"/>
  <path d="M 0 450 Q 250 420 500 450 T 1000 450 T 1200 450 L 1200 630 L 0 630 Z" fill="#4FD1C5" opacity="0.05"/>

  <!-- Caviar roe particles -->
  <circle cx="721.071910927827" cy="217.30360395709516" r="3.2576902245976953" fill="#CFAE58" opacity="0.23333890295770096"/>
  <circle cx="668.3850631956141" cy="425.45918550000346" r="3.184911447822407" fill="#CFAE58" opacity="0.17818253727266092"/>
  <circle cx="645.0664441014727" cy="295.0772420042623" r="4.561253721951967" fill="#CFAE58" opacity="0.15010115217100908"/>
  <circle cx="629.422107436572" cy="22.003480134245624" r="2.5506461515011356" fill="#CFAE58" opacity="0.1351108860314793"/>
  <circle cx="1071.7761019928578" cy="318.1751085948591" r="3.718259349645834" fill="#CFAE58" opacity="0.1665474941848762"/>
  <circle cx="654.5493497220505" cy="321.23574222191905" r="5.902729483189618" fill="#CFAE58" opacity="0.2106999477118624"/>
  <circle cx="1026.1288581961642" cy="198.8012283881278" r="3.5640291836569284" fill="#CFAE58" opacity="0.12932739901774729"/>
  <circle cx="677.4118102674664" cy="387.83649864846194" r="5.998476957876014" fill="#CFAE58" opacity="0.2468693184323829"/>
  <circle cx="1153.1547475461962" cy="236.3905474410228" r="4.054290811464228" fill="#CFAE58" opacity="0.17156082866732486"/>
  <circle cx="186.59132044143743" cy="332.229480598609" r="3.8611315932541252" fill="#CFAE58" opacity="0.19638034098655266"/>
  <circle cx="601.7549979927953" cy="18.66657589600305" r="3.420432979488644" fill="#CFAE58" opacity="0.21614232551953133"/>
  <circle cx="561.4651563174078" cy="40.91313326174421" r="4.511934652260625" fill="#CFAE58" opacity="0.12900030322718742"/>
  <circle cx="330.5594042268557" cy="358.68375355386524" r="2.1376079908382346" fill="#CFAE58" opacity="0.23778315387840535"/>
  <circle cx="399.7991628774625" cy="163.5188115178581" r="3.1457015842561766" fill="#CFAE58" opacity="0.11678102776710614"/>
  <circle cx="842.1519612951809" cy="582.6567133436386" r="4.900853586936905" fill="#CFAE58" opacity="0.21624725295739566"/>
  <circle cx="327.6030388469446" cy="621.5063181686243" r="3.825563337139715" fill="#CFAE58" opacity="0.10103811390865358"/>
  <circle cx="410.3378012420102" cy="296.4882330563351" r="5.378470882390902" fill="#CFAE58" opacity="0.12461823594670352"/>
  <circle cx="153.88252601139482" cy="209.7640080510563" r="5.853253609408482" fill="#CFAE58" opacity="0.24062867152862452"/>
  <circle cx="1002.0827043974302" cy="507.05187800999977" r="4.7192448187070335" fill="#CFAE58" opacity="0.12742367937316038"/>
  <circle cx="810.8070620739717" cy="48.2767901994884" r="5.776723531681748" fill="#CFAE58" opacity="0.1625234103264818"/>
  <circle cx="1179.9691740789751" cy="314.82733581814523" r="4.268437902401757" fill="#CFAE58" opacity="0.16055754788219717"/>
  <circle cx="151.28500509690372" cy="72.10569051308528" r="4.40975983291994" fill="#CFAE58" opacity="0.22445044501660058"/>
  <circle cx="1151.6840077539782" cy="8.396547495062574" r="2.8353561231505138" fill="#CFAE58" opacity="0.1922371030403407"/>
  <circle cx="1096.2225804602651" cy="92.99076206055823" r="3.340487289939718" fill="#CFAE58" opacity="0.20842579219246965"/>
  <circle cx="958.3643142304139" cy="328.67071068240915" r="4.136644246547887" fill="#CFAE58" opacity="0.1168190610723794"/>
  <circle cx="1187.4290101367942" cy="628.7992805017302" r="5.750565981224336" fill="#CFAE58" opacity="0.15947568561251543"/>
  <circle cx="636.5876299935433" cy="375.7549563271686" r="2.886004998889888" fill="#CFAE58" opacity="0.22439519383143072"/>
  <circle cx="646.5604870172352" cy="6.825209232611485" r="4.145890717374183" fill="#CFAE58" opacity="0.2065184100309315"/>
  <circle cx="296.3662531354301" cy="386.5479829219754" r="3.9466661787391404" fill="#CFAE58" opacity="0.22576878455920552"/>
  <circle cx="229.9356374397841" cy="163.7743576056069" r="2.784409168545811" fill="#CFAE58" opacity="0.1981883556936092"/>

  <!-- Border with glow -->
  <rect x="40" y="40" width="1120" height="550" fill="none" stroke="url(#goldGradient)" stroke-width="3" rx="12" filter="url(#softGlow)"/>

  <!-- Icon circle with premium background -->
  <circle cx="150" cy="200" r="75" fill="#CFAE58" opacity="0.15" filter="url(#softGlow)"/>
  <circle cx="150" cy="200" r="70" fill="#CFAE58" opacity="0.25"/>
  <text x="150" y="235" font-size="90" text-anchor="middle" fill="#CFAE58" filter="url(#glow)">💰</text>

  <!-- Premium logo (crown) with enhanced styling -->
  <g transform="translate(100, 70)">
    <path d="M 30 20 L 40 35 L 35 35 Z M 50 15 L 60 35 L 45 35 Z M 65 20 L 75 35 L 70 35 Z M 30 35 L 75 35 L 73 45 L 32 45 Z"
          fill="url(#goldGradient)" filter="url(#glow)" stroke="#B89842" stroke-width="0.5"/>
    <circle cx="40" cy="25" r="3" fill="#4FD1C5" filter="url(#glow)"/>
    <circle cx="52" cy="20" r="4" fill="#4FD1C5" filter="url(#glow)"/>
    <circle cx="65" cy="25" r="3" fill="#4FD1C5" filter="url(#glow)"/>
  </g>

  <!-- Title with shadow -->
  <text x="280" y="180" font-family="Georgia, serif" font-size="72" font-weight="bold"
        fill="url(#goldGradient)" filter="url(#shadow)">Tour Pricing</text>

  <!-- Subtitle with subtle glow -->
  <text x="280" y="230" font-family="Arial, sans-serif" font-size="36"
        fill="#D6DEE6" opacity="0.95" filter="url(#softGlow)">Family, Premium & Corporate Packages</text>

  <!-- Brand name with letter spacing -->
  <text x="280" y="300" font-family="Georgia, serif" font-size="32" font-weight="bold"
        fill="#CFAE58" letter-spacing="4" filter="url(#glow)">ROYAL KETA</text>

  <!-- Russian tagline -->
  <text x="280" y="340" font-family="Arial, sans-serif" font-size="22" font-style="italic"
        fill="#8B95A1" opacity="0.8">От икринки к королевской</text>

  <!-- Location -->
  <text x="280" y="380" font-family="Arial, sans-serif" font-size="20"
        fill="#8B95A1" opacity="0.7">Невельский район, Сахалин</text>

  <!-- Website with glow -->
  <text x="100" y="570" font-family="Arial, sans-serif" font-size="30" font-weight="bold"
        fill="#4FD1C5" filter="url(#glow)">royalketa.com</text>

  <!-- Enhanced decorative salmon silhouette -->
  <g transform="translate(950, 480)" opacity="0.2" filter="url(#softGlow)">
    <ellipse cx="0" cy="0" rx="90" ry="35" fill="#CFAE58"/>
    <path d="M 90 0 L 120 -18 L 130 0 L 120 18 Z" fill="#CFAE58"/>
    <path d="M -25 -35 L 0 -45 L 25 -35 Z" fill="#CFAE58"/>
    <ellipse cx="-50" cy="0" rx="15" ry="12" fill="#0B0F14"/>
  </g>

  <!-- Additional decorative caviar clusters -->
  <g opacity="0.2">
    <circle cx="1050" cy="120" r="6" fill="#CFAE58"/>
    <circle cx="1065" cy="115" r="5" fill="#CFAE58"/>
    <circle cx="1058" cy="130" r="4" fill="#CFAE58"/>
    <circle cx="150" cy="500" r="5" fill="#4FD1C5"/>
    <circle cx="165" cy="508" r="4" fill="#4FD1C5"/>
    <circle cx="140" cy="512" r="5" fill="#4FD1C5"/>
  </g>
</svg>