<svg width="1200" height="630" xmlns="http://www.w3.org/2000/svg">
  <defs>
    <linearGradient id="bgGradient" x1="0%" y1="0%" x2="100%" y2="100%">
      <stop offset="0%" style="stop-color:#0B0F14;stop-opacity:1" />
      <stop offset="50%" style="stop-color:#0F1619;stop-opacity:1" />
      <stop offset="100%" style="stop-color:#0F1922;stop-opacity:1" />
    </linearGradient>
    <linearGradient id="goldGradient" x1="0%" y1="0%" x2="100%" y2="0%">
      <stop offset="0%" style="stop-color:#E5D596;stop-opacity:1" />
      <stop offset="50%" style="stop-color:#CFAE58;stop-opacity:1" />
      <stop offset="100%" style="stop-color:#B89842;stop-opacity:1" />
    </linearGradient>
    <radialGradient id="oceanGradient" cx="50%" cy="50%" r="50%">
      <stop offset="0%" style="stop-color:#4FD1C5;stop-opacity:0.3" />
      <stop offset="100%" style="stop-color:#1E90A0;stop-opacity:0.05" />
    </radialGradient>
    <filter id="glow">
      <feGaussianBlur stdDeviation="5" result="coloredBlur"/>
      <feMerge>
        <feMergeNode in="coloredBlur"/>
        <feMergeNode in="SourceGraphic"/>
      </feMerge>
    </filter>
    <filter id="softGlow">
      <feGaussianBlur stdDeviation="8" result="coloredBlur"/>
      <feMerge>
        <feMergeNode in="coloredBlur"/>
        <feMergeNode in="SourceGraphic"/>
      </feMerge>
    </filter>
    <filter id="shadow">
      <feDropShadow dx="0" dy="4" stdDeviation="8" flood-color="#000000" flood-opacity="0.5"/>
    </filter>
  </defs>

  <!-- Background -->
  <rect width="1200" height="630" fill="url(#bgGradient)"/>

  <!-- Decorative ocean gradients -->
  <ellipse cx="1000" cy="150" rx="300" ry="200" fill="url(#oceanGradient)" opacity="0.4"/>
  <ellipse cx="200" cy="530" rx="250" ry="180" fill="url(#oceanGradient)" opacity="0.3"/>

  <!-- Wave patterns -->
  <path d="M 0 400 Q 300 350 600 400 T 1200 400 L 1200 630 L 0 630 Z" fill="#1E90A0" opacity="0.08"/>
  <path d="M 0 450 Q 250 420 500 450 T 1000 450 T 1200 450 L 1200 630 L 0 630 Z" fill="#4FD1C5" opacity="0.05"/>

  <!-- Caviar roe particles -->
  <circle cx="465.68132315205446" cy="96.30592767820553" r="5.004486807065713" fill="#CFAE58" opacity="0.2010153048011331"/>
  <circle cx="227.46138982243247" cy="4.304959450621951" r="3.4713713807529345" fill="#CFAE58" opacity="0.10496380943306026"/>
  <circle cx="600.9157901871072" cy="503.3546399142151" r="4.148002516036762" fill="#CFAE58" opacity="0.23618583103738952"/>
  <circle cx="716.5740932110983" cy="385.41331305896654" r="4.862272596785297" fill="#CFAE58" opacity="0.16205995546308904"/>
  <circle cx="59.826682148927986" cy="309.34160835111373" r="5.460810028117703" fill="#CFAE58" opacity="0.17281564226454177"/>
  <circle cx="734.4160424071284" cy="517.3571497296786" r="4.603643373037377" fill="#CFAE58" opacity="0.14307427833130112"/>
  <circle cx="485.2604675906254" cy="276.87261970365535" r="2.82397276861259" fill="#CFAE58" opacity="0.19572700090224776"/>
  <circle cx="305.1000365702973" cy="394.5847764883558" r="3.8240831307914087" fill="#CFAE58" opacity="0.10225612832222354"/>
  <circle cx="66.12588995864499" cy="252.39460159138164" r="5.275827275961859" fill="#CFAE58" opacity="0.1601153281766837"/>
  <circle cx="267.00933861852957" cy="337.3261916997339" r="3.150228963184235" fill="#CFAE58" opacity="0.249379823996689"/>
  <circle cx="411.3670174107234" cy="103.73514802197333" r="2.1156527893903325" fill="#CFAE58" opacity="0.11328815044301997"/>
  <circle cx="493.64840566276393" cy="100.87180190125851" r="4.148224250983364" fill="#CFAE58" opacity="0.18920723603191866"/>
  <circle cx="1042.7820334679675" cy="86.6430440148735" r="5.096692195981316" fill="#CFAE58" opacity="0.1407201640645513"/>
  <circle cx="280.3900796678187" cy="398.4633075544685" r="3.5944046903291564" fill="#CFAE58" opacity="0.10111988974073056"/>
  <circle cx="675.9365512892691" cy="579.1645683764295" r="3.103348847431758" fill="#CFAE58" opacity="0.21819185124369797"/>
  <circle cx="395.879868067885" cy="33.47902121848501" r="4.483443631080601" fill="#CFAE58" opacity="0.24365159391310193"/>
  <circle cx="89.90156257433775" cy="526.9316587891561" r="4.333239705070656" fill="#CFAE58" opacity="0.196803371316028"/>
  <circle cx="1108.957223386137" cy="88.84184361119578" r="2.5621337507876936" fill="#CFAE58" opacity="0.16608225343442068"/>
  <circle cx="466.48853163882376" cy="509.20894926699543" r="3.6554235305881324" fill="#CFAE58" opacity="0.1813978584915631"/>
  <circle cx="696.0623454688905" cy="386.40560315063743" r="3.6513454333332813" fill="#CFAE58" opacity="0.1877123542910993"/>
  <circle cx="423.1410956087817" cy="498.7386361610418" r="2.0341337076619688" fill="#CFAE58" opacity="0.1373903506903451"/>
  <circle cx="471.10095256791624" cy="494.0216057361769" r="3.7184318336962923" fill="#CFAE58" opacity="0.16284161460236624"/>
  <circle cx="251.2125778885462" cy="499.8854086389989" r="3.099244462189384" fill="#CFAE58" opacity="0.10704790662214657"/>
  <circle cx="110.82292085861702" cy="0.7759605392308555" r="2.9658518622481758" fill="#CFAE58" opacity="0.10682779928808808"/>
  <circle cx="771.7667446426457" cy="392.00847730996907" r="5.904398802781573" fill="#CFAE58" opacity="0.20967193005103638"/>
  <circle cx="401.02301943302916" cy="623.7516819031152" r="3.505222217521232" fill="#CFAE58" opacity="0.18298327443668727"/>
  <circle cx="1042.7024176711632" cy="24.572451312838325" r="2.7511176608930112" fill="#CFAE58" opacity="0.24321978335606298"/>
  <circle cx="652.3508992029189" cy="138.50480972133326" r="4.699473916840292" fill="#CFAE58" opacity="0.1552228175127332"/>
  <circle cx="21.716837311274695" cy="411.55231062767973" r="3.6744479103041776" fill="#CFAE58" opacity="0.2157371944929763"/>
  <circle cx="725.311832926518" cy="167.501396761415" r="5.392992033721017" fill="#CFAE58" opacity="0.19880383985044323"/>

  <!-- Border with glow -->
  <rect x="40" y="40" width="1120" height="550" fill="none" stroke="url(#goldGradient)" stroke-width="3" rx="12" filter="url(#softGlow)"/>

  <!-- Icon circle with premium background -->
  <circle cx="150" cy="200" r="75" fill="#CFAE58" opacity="0.15" filter="url(#softGlow)"/>
  <circle cx="150" cy="200" r="70" fill="#CFAE58" opacity="0.25"/>
  <text x="150" y="235" font-size="90" text-anchor="middle" fill="#CFAE58" filter="url(#glow)">💰</text>

  <!-- Premium logo (crown) with enhanced styling -->
  <g transform="translate(100, 70)">
    <path d="M 30 20 L 40 35 L 35 35 Z M 50 15 L 60 35 L 45 35 Z M 65 20 L 75 35 L 70 35 Z M 30 35 L 75 35 L 73 45 L 32 45 Z"
          fill="url(#goldGradient)" filter="url(#glow)" stroke="#B89842" stroke-width="0.5"/>
    <circle cx="40" cy="25" r="3" fill="#4FD1C5" filter="url(#glow)"/>
    <circle cx="52" cy="20" r="4" fill="#4FD1C5" filter="url(#glow)"/>
    <circle cx="65" cy="25" r="3" fill="#4FD1C5" filter="url(#glow)"/>
  </g>

  <!-- Title with shadow -->
  <text x="280" y="180" font-family="Georgia, serif" font-size="72" font-weight="bold"
        fill="url(#goldGradient)" filter="url(#shadow)">Tour Pricing</text>

  <!-- Subtitle with subtle glow -->
  <text x="280" y="230" font-family="Arial, sans-serif" font-size="36"
        fill="#D6DEE6" opacity="0.95" filter="url(#softGlow)">Family, Premium &amp; Corporate Packages</text>

  <!-- Brand name with letter spacing -->
  <text x="280" y="300" font-family="Georgia, serif" font-size="32" font-weight="bold"
        fill="#CFAE58" letter-spacing="4" filter="url(#glow)">ROYAL KETA</text>

  <!-- Russian tagline -->
  <text x="280" y="340" font-family="Arial, sans-serif" font-size="22" font-style="italic"
        fill="#8B95A1" opacity="0.8">От икринки к королевской</text>

  <!-- Location -->
  <text x="280" y="380" font-family="Arial, sans-serif" font-size="20"
        fill="#8B95A1" opacity="0.7">Невельский район, Сахалин</text>

  <!-- Website with glow -->
  <text x="100" y="570" font-family="Arial, sans-serif" font-size="30" font-weight="bold"
        fill="#4FD1C5" filter="url(#glow)">royalketa.com</text>

  <!-- Enhanced decorative salmon silhouette -->
  <g transform="translate(950, 480)" opacity="0.2" filter="url(#softGlow)">
    <ellipse cx="0" cy="0" rx="90" ry="35" fill="#CFAE58"/>
    <path d="M 90 0 L 120 -18 L 130 0 L 120 18 Z" fill="#CFAE58"/>
    <path d="M -25 -35 L 0 -45 L 25 -35 Z" fill="#CFAE58"/>
    <ellipse cx="-50" cy="0" rx="15" ry="12" fill="#0B0F14"/>
  </g>

  <!-- Additional decorative caviar clusters -->
  <g opacity="0.2">
    <circle cx="1050" cy="120" r="6" fill="#CFAE58"/>
    <circle cx="1065" cy="115" r="5" fill="#CFAE58"/>
    <circle cx="1058" cy="130" r="4" fill="#CFAE58"/>
    <circle cx="150" cy="500" r="5" fill="#4FD1C5"/>
    <circle cx="165" cy="508" r="4" fill="#4FD1C5"/>
    <circle cx="140" cy="512" r="5" fill="#4FD1C5"/>
  </g>
</svg>