<svg width="1200" height="630" xmlns="http://www.w3.org/2000/svg">
  <defs>
    <linearGradient id="bgGradient" x1="0%" y1="0%" x2="100%" y2="100%">
      <stop offset="0%" style="stop-color:#0B0F14;stop-opacity:1" />
      <stop offset="50%" style="stop-color:#0F1619;stop-opacity:1" />
      <stop offset="100%" style="stop-color:#0F1922;stop-opacity:1" />
    </linearGradient>
    <linearGradient id="goldGradient" x1="0%" y1="0%" x2="100%" y2="0%">
      <stop offset="0%" style="stop-color:#E5D596;stop-opacity:1" />
      <stop offset="50%" style="stop-color:#CFAE58;stop-opacity:1" />
      <stop offset="100%" style="stop-color:#B89842;stop-opacity:1" />
    </linearGradient>
    <radialGradient id="oceanGradient" cx="50%" cy="50%" r="50%">
      <stop offset="0%" style="stop-color:#4FD1C5;stop-opacity:0.3" />
      <stop offset="100%" style="stop-color:#1E90A0;stop-opacity:0.05" />
    </radialGradient>
    <filter id="glow">
      <feGaussianBlur stdDeviation="5" result="coloredBlur"/>
      <feMerge>
        <feMergeNode in="coloredBlur"/>
        <feMergeNode in="SourceGraphic"/>
      </feMerge>
    </filter>
    <filter id="softGlow">
      <feGaussianBlur stdDeviation="8" result="coloredBlur"/>
      <feMerge>
        <feMergeNode in="coloredBlur"/>
        <feMergeNode in="SourceGraphic"/>
      </feMerge>
    </filter>
    <filter id="shadow">
      <feDropShadow dx="0" dy="4" stdDeviation="8" flood-color="#000000" flood-opacity="0.5"/>
    </filter>
  </defs>

  <!-- Background -->
  <rect width="1200" height="630" fill="url(#bgGradient)"/>

  <!-- Decorative ocean gradients -->
  <ellipse cx="1000" cy="150" rx="300" ry="200" fill="url(#oceanGradient)" opacity="0.4"/>
  <ellipse cx="200" cy="530" rx="250" ry="180" fill="url(#oceanGradient)" opacity="0.3"/>

  <!-- Wave patterns -->
  <path d="M 0 400 Q 300 350 600 400 T 1200 400 L 1200 630 L 0 630 Z" fill="#1E90A0" opacity="0.08"/>
  <path d="M 0 450 Q 250 420 500 450 T 1000 450 T 1200 450 L 1200 630 L 0 630 Z" fill="#4FD1C5" opacity="0.05"/>

  <!-- Caviar roe particles -->
  <circle cx="748.3433655444701" cy="388.3008270965281" r="3.9176204071184406" fill="#CFAE58" opacity="0.248308189569741"/>
  <circle cx="390.7686469987979" cy="42.94967896034878" r="2.639227112346335" fill="#CFAE58" opacity="0.2444298710599024"/>
  <circle cx="308.2376893641623" cy="56.65966338363644" r="5.115105423335087" fill="#CFAE58" opacity="0.11755108481875697"/>
  <circle cx="308.23639970718244" cy="241.60312805401483" r="2.651829261991642" fill="#CFAE58" opacity="0.1580877809360416"/>
  <circle cx="706.7878047178395" cy="307.9954405625301" r="4.60322823646447" fill="#CFAE58" opacity="0.1239845088209715"/>
  <circle cx="933.9489392729846" cy="403.6736806219008" r="2.50564492384766" fill="#CFAE58" opacity="0.20828494852885798"/>
  <circle cx="981.9300110862232" cy="214.79664862209955" r="5.777148946295569" fill="#CFAE58" opacity="0.17755757812385536"/>
  <circle cx="829.2010931406588" cy="507.83587067414885" r="3.856719986375623" fill="#CFAE58" opacity="0.1225900045137804"/>
  <circle cx="863.6823043783878" cy="586.3295825688513" r="3.960035881847328" fill="#CFAE58" opacity="0.13029956746785462"/>
  <circle cx="152.65408959817216" cy="337.8528630802364" r="3.385975810540536" fill="#CFAE58" opacity="0.19452893925008985"/>
  <circle cx="242.47037751602204" cy="486.1628550358064" r="2.3059954152141655" fill="#CFAE58" opacity="0.12432318327048034"/>
  <circle cx="457.8311002264016" cy="380.066278894142" r="4.059791788524085" fill="#CFAE58" opacity="0.11436510690156926"/>
  <circle cx="715.9796271956134" cy="366.6383711204762" r="5.928271277207127" fill="#CFAE58" opacity="0.24484786265448466"/>
  <circle cx="274.5226212588019" cy="386.7532346513712" r="4.0195255997171975" fill="#CFAE58" opacity="0.11943865250082558"/>
  <circle cx="659.3384992708627" cy="90.59225057113424" r="4.842221791869954" fill="#CFAE58" opacity="0.17486544132164383"/>
  <circle cx="596.6308176845259" cy="201.06841085721723" r="4.854985520794957" fill="#CFAE58" opacity="0.16147112659386428"/>
  <circle cx="1058.7480423316042" cy="125.85438703235904" r="4.849810310835343" fill="#CFAE58" opacity="0.2241709948521442"/>
  <circle cx="20.559365628011328" cy="319.0352478084403" r="5.38802021197637" fill="#CFAE58" opacity="0.22478851472651531"/>
  <circle cx="809.4331207694445" cy="607.4388445239534" r="4.499673734435783" fill="#CFAE58" opacity="0.10811964382556266"/>
  <circle cx="1122.217152986758" cy="31.209320543596665" r="4.7779261210194015" fill="#CFAE58" opacity="0.163527580796499"/>
  <circle cx="403.707439307705" cy="42.50292972244567" r="4.43975918646576" fill="#CFAE58" opacity="0.20551274224065885"/>
  <circle cx="274.65635387151633" cy="241.1138164245815" r="2.9776575081036354" fill="#CFAE58" opacity="0.24958083556001887"/>
  <circle cx="112.72385371875862" cy="396.37700832970296" r="4.993349087527678" fill="#CFAE58" opacity="0.1940112247321969"/>
  <circle cx="980.8962546124791" cy="84.12656599987507" r="2.895282168184936" fill="#CFAE58" opacity="0.2196177573369217"/>
  <circle cx="820.6162481424999" cy="416.3476058694045" r="4.96595799163644" fill="#CFAE58" opacity="0.12349799700785637"/>
  <circle cx="387.9388014089648" cy="366.9019091323552" r="4.225261825598381" fill="#CFAE58" opacity="0.15687029620966314"/>
  <circle cx="102.7104347288362" cy="335.0735976862114" r="5.944144907741305" fill="#CFAE58" opacity="0.21089374635093353"/>
  <circle cx="883.7526785116444" cy="457.55628743123566" r="4.178007867199455" fill="#CFAE58" opacity="0.12416327193168743"/>
  <circle cx="1.0617386675608742" cy="68.521606843598" r="3.2682115040110356" fill="#CFAE58" opacity="0.23804860646411308"/>
  <circle cx="138.31438824199128" cy="326.97171955788264" r="3.494302643451893" fill="#CFAE58" opacity="0.16371320577541687"/>

  <!-- Border with glow -->
  <rect x="40" y="40" width="1120" height="550" fill="none" stroke="url(#goldGradient)" stroke-width="3" rx="12" filter="url(#softGlow)"/>

  <!-- Icon circle with premium background -->
  <circle cx="150" cy="200" r="75" fill="#CFAE58" opacity="0.15" filter="url(#softGlow)"/>
  <circle cx="150" cy="200" r="70" fill="#CFAE58" opacity="0.25"/>
  <text x="150" y="235" font-size="90" text-anchor="middle" fill="#CFAE58" filter="url(#glow)">💰</text>

  <!-- Premium logo (crown) with enhanced styling -->
  <g transform="translate(100, 70)">
    <path d="M 30 20 L 40 35 L 35 35 Z M 50 15 L 60 35 L 45 35 Z M 65 20 L 75 35 L 70 35 Z M 30 35 L 75 35 L 73 45 L 32 45 Z"
          fill="url(#goldGradient)" filter="url(#glow)" stroke="#B89842" stroke-width="0.5"/>
    <circle cx="40" cy="25" r="3" fill="#4FD1C5" filter="url(#glow)"/>
    <circle cx="52" cy="20" r="4" fill="#4FD1C5" filter="url(#glow)"/>
    <circle cx="65" cy="25" r="3" fill="#4FD1C5" filter="url(#glow)"/>
  </g>

  <!-- Title with shadow -->
  <text x="280" y="180" font-family="Georgia, serif" font-size="72" font-weight="bold"
        fill="url(#goldGradient)" filter="url(#shadow)">Tour Pricing</text>

  <!-- Subtitle with subtle glow -->
  <text x="280" y="230" font-family="Arial, sans-serif" font-size="36"
        fill="#D6DEE6" opacity="0.95" filter="url(#softGlow)">Family, Premium &amp; Corporate Packages</text>

  <!-- Brand name with letter spacing -->
  <text x="280" y="300" font-family="Georgia, serif" font-size="32" font-weight="bold"
        fill="#CFAE58" letter-spacing="4" filter="url(#glow)">ROYAL KETA</text>

  <!-- Russian tagline -->
  <text x="280" y="340" font-family="Arial, sans-serif" font-size="22" font-style="italic"
        fill="#8B95A1" opacity="0.8">От икринки к королевской</text>

  <!-- Location -->
  <text x="280" y="380" font-family="Arial, sans-serif" font-size="20"
        fill="#8B95A1" opacity="0.7">Невельский район, Сахалин</text>

  <!-- Website with glow -->
  <text x="100" y="570" font-family="Arial, sans-serif" font-size="30" font-weight="bold"
        fill="#4FD1C5" filter="url(#glow)">royalketa.com</text>

  <!-- Enhanced decorative salmon silhouette -->
  <g transform="translate(950, 480)" opacity="0.2" filter="url(#softGlow)">
    <ellipse cx="0" cy="0" rx="90" ry="35" fill="#CFAE58"/>
    <path d="M 90 0 L 120 -18 L 130 0 L 120 18 Z" fill="#CFAE58"/>
    <path d="M -25 -35 L 0 -45 L 25 -35 Z" fill="#CFAE58"/>
    <ellipse cx="-50" cy="0" rx="15" ry="12" fill="#0B0F14"/>
  </g>

  <!-- Additional decorative caviar clusters -->
  <g opacity="0.2">
    <circle cx="1050" cy="120" r="6" fill="#CFAE58"/>
    <circle cx="1065" cy="115" r="5" fill="#CFAE58"/>
    <circle cx="1058" cy="130" r="4" fill="#CFAE58"/>
    <circle cx="150" cy="500" r="5" fill="#4FD1C5"/>
    <circle cx="165" cy="508" r="4" fill="#4FD1C5"/>
    <circle cx="140" cy="512" r="5" fill="#4FD1C5"/>
  </g>
</svg>