<svg width="1200" height="630" xmlns="http://www.w3.org/2000/svg">
  <defs>
    <linearGradient id="bgGradient" x1="0%" y1="0%" x2="100%" y2="100%">
      <stop offset="0%" style="stop-color:#0B0F14;stop-opacity:1" />
      <stop offset="50%" style="stop-color:#0F1619;stop-opacity:1" />
      <stop offset="100%" style="stop-color:#0F1922;stop-opacity:1" />
    </linearGradient>
    <linearGradient id="goldGradient" x1="0%" y1="0%" x2="100%" y2="0%">
      <stop offset="0%" style="stop-color:#E5D596;stop-opacity:1" />
      <stop offset="50%" style="stop-color:#CFAE58;stop-opacity:1" />
      <stop offset="100%" style="stop-color:#B89842;stop-opacity:1" />
    </linearGradient>
    <radialGradient id="oceanGradient" cx="50%" cy="50%" r="50%">
      <stop offset="0%" style="stop-color:#4FD1C5;stop-opacity:0.3" />
      <stop offset="100%" style="stop-color:#1E90A0;stop-opacity:0.05" />
    </radialGradient>
    <filter id="glow">
      <feGaussianBlur stdDeviation="5" result="coloredBlur"/>
      <feMerge>
        <feMergeNode in="coloredBlur"/>
        <feMergeNode in="SourceGraphic"/>
      </feMerge>
    </filter>
    <filter id="softGlow">
      <feGaussianBlur stdDeviation="8" result="coloredBlur"/>
      <feMerge>
        <feMergeNode in="coloredBlur"/>
        <feMergeNode in="SourceGraphic"/>
      </feMerge>
    </filter>
    <filter id="shadow">
      <feDropShadow dx="0" dy="4" stdDeviation="8" flood-color="#000000" flood-opacity="0.5"/>
    </filter>
  </defs>

  <!-- Background -->
  <rect width="1200" height="630" fill="url(#bgGradient)"/>

  <!-- Decorative ocean gradients -->
  <ellipse cx="1000" cy="150" rx="300" ry="200" fill="url(#oceanGradient)" opacity="0.4"/>
  <ellipse cx="200" cy="530" rx="250" ry="180" fill="url(#oceanGradient)" opacity="0.3"/>

  <!-- Wave patterns -->
  <path d="M 0 400 Q 300 350 600 400 T 1200 400 L 1200 630 L 0 630 Z" fill="#1E90A0" opacity="0.08"/>
  <path d="M 0 450 Q 250 420 500 450 T 1000 450 T 1200 450 L 1200 630 L 0 630 Z" fill="#4FD1C5" opacity="0.05"/>

  <!-- Caviar roe particles -->
  <circle cx="377.2618256462546" cy="539.4625256606453" r="2.580760803809481" fill="#CFAE58" opacity="0.21420247384630162"/>
  <circle cx="1166.2426644956051" cy="493.541507381973" r="3.237859486556351" fill="#CFAE58" opacity="0.10527081894415721"/>
  <circle cx="893.5652695992582" cy="629.0633513330314" r="5.4043272004809335" fill="#CFAE58" opacity="0.11887937231981023"/>
  <circle cx="533.9175985649557" cy="107.87310723444797" r="4.4743079029262125" fill="#CFAE58" opacity="0.13220271790504504"/>
  <circle cx="1198.4652528602096" cy="434.69669225010534" r="3.2193231601710277" fill="#CFAE58" opacity="0.1856294767388456"/>
  <circle cx="800.908250515954" cy="471.42052571534566" r="5.522336937938591" fill="#CFAE58" opacity="0.2456908640180162"/>
  <circle cx="250.36785712402542" cy="167.2060549316722" r="5.971021906922119" fill="#CFAE58" opacity="0.19857926521760333"/>
  <circle cx="289.460194769715" cy="73.14008180589674" r="3.7366849470256334" fill="#CFAE58" opacity="0.221207125223486"/>
  <circle cx="338.59518715716746" cy="257.9538293149747" r="4.109022926658189" fill="#CFAE58" opacity="0.1871079113223345"/>
  <circle cx="729.4045741444588" cy="128.53773895402838" r="2.574027320577831" fill="#CFAE58" opacity="0.21878623698656263"/>
  <circle cx="245.03929889921318" cy="618.7755040708298" r="5.014699488460053" fill="#CFAE58" opacity="0.18140532421623146"/>
  <circle cx="373.2447656300367" cy="395.3716290914931" r="3.720615150570109" fill="#CFAE58" opacity="0.24024783013813233"/>
  <circle cx="476.4781925722006" cy="122.68153964635847" r="4.68432712499523" fill="#CFAE58" opacity="0.16767531475629327"/>
  <circle cx="1040.38954074604" cy="207.26241075595914" r="4.69122559943137" fill="#CFAE58" opacity="0.16889726912350073"/>
  <circle cx="117.5063256501013" cy="69.01788437411822" r="3.741665561549019" fill="#CFAE58" opacity="0.11446353354218806"/>
  <circle cx="1197.757463362299" cy="502.9583199665987" r="5.690920769920161" fill="#CFAE58" opacity="0.1232784455562743"/>
  <circle cx="820.4623307336308" cy="46.158620130110855" r="4.706415208028921" fill="#CFAE58" opacity="0.18089914698361653"/>
  <circle cx="348.6699238098236" cy="267.0550281597099" r="3.346825809835992" fill="#CFAE58" opacity="0.13617990662144908"/>
  <circle cx="811.4129699284887" cy="225.43411614306447" r="3.144523024068297" fill="#CFAE58" opacity="0.10459260494340175"/>
  <circle cx="292.94864270397125" cy="598.2264934711031" r="5.891635515673942" fill="#CFAE58" opacity="0.19258366068944488"/>
  <circle cx="443.19866539083756" cy="241.41044618093912" r="3.5882450811445725" fill="#CFAE58" opacity="0.12681281267423797"/>
  <circle cx="90.70763918244103" cy="68.60863235381602" r="5.887993306708928" fill="#CFAE58" opacity="0.1674830656581454"/>
  <circle cx="672.3810221408356" cy="14.97095179376879" r="4.801353086111511" fill="#CFAE58" opacity="0.15661704842823665"/>
  <circle cx="895.0532092321473" cy="295.7930504607467" r="4.327020798210477" fill="#CFAE58" opacity="0.17384771538188684"/>
  <circle cx="696.8253841221275" cy="501.6040804873611" r="3.644473176997262" fill="#CFAE58" opacity="0.1495040469731272"/>
  <circle cx="814.9613234748421" cy="120.67919777233757" r="4.774559582120632" fill="#CFAE58" opacity="0.20033437914589597"/>
  <circle cx="245.0114512342096" cy="61.203843811590794" r="3.1710235595837677" fill="#CFAE58" opacity="0.19842666316607926"/>
  <circle cx="196.07702765494537" cy="561.3536335662776" r="2.9982723932240667" fill="#CFAE58" opacity="0.13182775250127154"/>
  <circle cx="775.6500413328392" cy="304.0960179370961" r="3.2797982972204123" fill="#CFAE58" opacity="0.2374933019886613"/>
  <circle cx="697.9604510579067" cy="394.24476115878525" r="4.439131574327943" fill="#CFAE58" opacity="0.2496917384197822"/>

  <!-- Border with glow -->
  <rect x="40" y="40" width="1120" height="550" fill="none" stroke="url(#goldGradient)" stroke-width="3" rx="12" filter="url(#softGlow)"/>

  <!-- Icon circle with premium background -->
  <circle cx="150" cy="200" r="75" fill="#CFAE58" opacity="0.15" filter="url(#softGlow)"/>
  <circle cx="150" cy="200" r="70" fill="#CFAE58" opacity="0.25"/>
  <text x="150" y="235" font-size="90" text-anchor="middle" fill="#CFAE58" filter="url(#glow)">💰</text>

  <!-- Premium logo (crown) with enhanced styling -->
  <g transform="translate(100, 70)">
    <path d="M 30 20 L 40 35 L 35 35 Z M 50 15 L 60 35 L 45 35 Z M 65 20 L 75 35 L 70 35 Z M 30 35 L 75 35 L 73 45 L 32 45 Z"
          fill="url(#goldGradient)" filter="url(#glow)" stroke="#B89842" stroke-width="0.5"/>
    <circle cx="40" cy="25" r="3" fill="#4FD1C5" filter="url(#glow)"/>
    <circle cx="52" cy="20" r="4" fill="#4FD1C5" filter="url(#glow)"/>
    <circle cx="65" cy="25" r="3" fill="#4FD1C5" filter="url(#glow)"/>
  </g>

  <!-- Title with shadow -->
  <text x="280" y="180" font-family="Georgia, serif" font-size="72" font-weight="bold"
        fill="url(#goldGradient)" filter="url(#shadow)">Tour Pricing</text>

  <!-- Subtitle with subtle glow -->
  <text x="280" y="230" font-family="Arial, sans-serif" font-size="36"
        fill="#D6DEE6" opacity="0.95" filter="url(#softGlow)">Family, Premium & Corporate Packages</text>

  <!-- Brand name with letter spacing -->
  <text x="280" y="300" font-family="Georgia, serif" font-size="32" font-weight="bold"
        fill="#CFAE58" letter-spacing="4" filter="url(#glow)">ROYAL KETA</text>

  <!-- Russian tagline -->
  <text x="280" y="340" font-family="Arial, sans-serif" font-size="22" font-style="italic"
        fill="#8B95A1" opacity="0.8">От икринки к королевской</text>

  <!-- Location -->
  <text x="280" y="380" font-family="Arial, sans-serif" font-size="20"
        fill="#8B95A1" opacity="0.7">Невельский район, Сахалин</text>

  <!-- Website with glow -->
  <text x="100" y="570" font-family="Arial, sans-serif" font-size="30" font-weight="bold"
        fill="#4FD1C5" filter="url(#glow)">royalketa.com</text>

  <!-- Enhanced decorative salmon silhouette -->
  <g transform="translate(950, 480)" opacity="0.2" filter="url(#softGlow)">
    <ellipse cx="0" cy="0" rx="90" ry="35" fill="#CFAE58"/>
    <path d="M 90 0 L 120 -18 L 130 0 L 120 18 Z" fill="#CFAE58"/>
    <path d="M -25 -35 L 0 -45 L 25 -35 Z" fill="#CFAE58"/>
    <ellipse cx="-50" cy="0" rx="15" ry="12" fill="#0B0F14"/>
  </g>

  <!-- Additional decorative caviar clusters -->
  <g opacity="0.2">
    <circle cx="1050" cy="120" r="6" fill="#CFAE58"/>
    <circle cx="1065" cy="115" r="5" fill="#CFAE58"/>
    <circle cx="1058" cy="130" r="4" fill="#CFAE58"/>
    <circle cx="150" cy="500" r="5" fill="#4FD1C5"/>
    <circle cx="165" cy="508" r="4" fill="#4FD1C5"/>
    <circle cx="140" cy="512" r="5" fill="#4FD1C5"/>
  </g>
</svg>