<svg width="1200" height="630" xmlns="http://www.w3.org/2000/svg">
  <defs>
    <linearGradient id="bgGradient" x1="0%" y1="0%" x2="100%" y2="100%">
      <stop offset="0%" style="stop-color:#0B0F14;stop-opacity:1" />
      <stop offset="50%" style="stop-color:#0F1619;stop-opacity:1" />
      <stop offset="100%" style="stop-color:#0F1922;stop-opacity:1" />
    </linearGradient>
    <linearGradient id="goldGradient" x1="0%" y1="0%" x2="100%" y2="0%">
      <stop offset="0%" style="stop-color:#E5D596;stop-opacity:1" />
      <stop offset="50%" style="stop-color:#CFAE58;stop-opacity:1" />
      <stop offset="100%" style="stop-color:#B89842;stop-opacity:1" />
    </linearGradient>
    <radialGradient id="oceanGradient" cx="50%" cy="50%" r="50%">
      <stop offset="0%" style="stop-color:#4FD1C5;stop-opacity:0.3" />
      <stop offset="100%" style="stop-color:#1E90A0;stop-opacity:0.05" />
    </radialGradient>
    <filter id="glow">
      <feGaussianBlur stdDeviation="5" result="coloredBlur"/>
      <feMerge>
        <feMergeNode in="coloredBlur"/>
        <feMergeNode in="SourceGraphic"/>
      </feMerge>
    </filter>
    <filter id="softGlow">
      <feGaussianBlur stdDeviation="8" result="coloredBlur"/>
      <feMerge>
        <feMergeNode in="coloredBlur"/>
        <feMergeNode in="SourceGraphic"/>
      </feMerge>
    </filter>
    <filter id="shadow">
      <feDropShadow dx="0" dy="4" stdDeviation="8" flood-color="#000000" flood-opacity="0.5"/>
    </filter>
  </defs>

  <!-- Background -->
  <rect width="1200" height="630" fill="url(#bgGradient)"/>

  <!-- Decorative ocean gradients -->
  <ellipse cx="1000" cy="150" rx="300" ry="200" fill="url(#oceanGradient)" opacity="0.4"/>
  <ellipse cx="200" cy="530" rx="250" ry="180" fill="url(#oceanGradient)" opacity="0.3"/>

  <!-- Wave patterns -->
  <path d="M 0 400 Q 300 350 600 400 T 1200 400 L 1200 630 L 0 630 Z" fill="#1E90A0" opacity="0.08"/>
  <path d="M 0 450 Q 250 420 500 450 T 1000 450 T 1200 450 L 1200 630 L 0 630 Z" fill="#4FD1C5" opacity="0.05"/>

  <!-- Caviar roe particles -->
  <circle cx="528.870525891515" cy="509.45020170544836" r="3.4184388613161802" fill="#CFAE58" opacity="0.24491732809166633"/>
  <circle cx="1004.0271496297779" cy="397.25466551072344" r="2.4415294735220137" fill="#CFAE58" opacity="0.11004547486358629"/>
  <circle cx="122.6383339483368" cy="88.38625558137149" r="5.104386328585105" fill="#CFAE58" opacity="0.12897681287880391"/>
  <circle cx="850.1231088436656" cy="443.8776468358164" r="5.8472881153826854" fill="#CFAE58" opacity="0.10135062189035793"/>
  <circle cx="801.3053468567867" cy="130.41253501611752" r="2.134279054760885" fill="#CFAE58" opacity="0.19736435895094046"/>
  <circle cx="303.9696595188902" cy="314.0539869763074" r="4.24066576386628" fill="#CFAE58" opacity="0.12292367535851514"/>
  <circle cx="312.1518971035853" cy="548.7130393114229" r="4.728268718259947" fill="#CFAE58" opacity="0.11265186187496329"/>
  <circle cx="1124.1124149954103" cy="472.26975816487794" r="3.804427212774452" fill="#CFAE58" opacity="0.1811386157930891"/>
  <circle cx="906.2955694289209" cy="466.8679591285447" r="3.8345170198684233" fill="#CFAE58" opacity="0.193696969878715"/>
  <circle cx="476.8280352782831" cy="506.97604641617266" r="5.199502660890923" fill="#CFAE58" opacity="0.10694246951896802"/>
  <circle cx="969.1228920426106" cy="255.96233447922117" r="2.3203233224186137" fill="#CFAE58" opacity="0.18705055546518742"/>
  <circle cx="1156.3786215872803" cy="329.0650677588573" r="2.3010765914969014" fill="#CFAE58" opacity="0.15355131870076652"/>
  <circle cx="422.4951389865314" cy="434.8864703585246" r="5.637533669096615" fill="#CFAE58" opacity="0.1811315802426145"/>
  <circle cx="444.26926178094243" cy="560.9075887497575" r="2.059914467844287" fill="#CFAE58" opacity="0.20124184430614234"/>
  <circle cx="334.0973721938402" cy="620.540102508287" r="5.834600117141659" fill="#CFAE58" opacity="0.14132281503146943"/>
  <circle cx="628.2075706366942" cy="407.4852572400972" r="3.7640358572077126" fill="#CFAE58" opacity="0.10722624388122043"/>
  <circle cx="558.3849972224699" cy="381.56696819447507" r="2.8426927812195197" fill="#CFAE58" opacity="0.2296034536200998"/>
  <circle cx="1159.09282543215" cy="368.12673118468905" r="3.4636999359215803" fill="#CFAE58" opacity="0.16762358066550342"/>
  <circle cx="989.8469913373293" cy="253.1104241311076" r="5.874225739391138" fill="#CFAE58" opacity="0.2479139642803817"/>
  <circle cx="1102.4948898844375" cy="242.70796776543474" r="3.151211142540557" fill="#CFAE58" opacity="0.14934147887593677"/>
  <circle cx="1137.2474575507892" cy="181.23540976997648" r="2.007488122699015" fill="#CFAE58" opacity="0.2147994495602411"/>
  <circle cx="816.020597619228" cy="179.5615555296505" r="2.6010559808104414" fill="#CFAE58" opacity="0.21551658517979086"/>
  <circle cx="169.3806809029816" cy="122.49103233081996" r="2.3963909386233917" fill="#CFAE58" opacity="0.19203974680618352"/>
  <circle cx="491.6211497066057" cy="348.0298300784633" r="5.123332564589803" fill="#CFAE58" opacity="0.20257053190219243"/>
  <circle cx="806.5635351294504" cy="523.1681287803564" r="2.0750706126715004" fill="#CFAE58" opacity="0.12911791591320854"/>
  <circle cx="161.1052165558217" cy="110.74198069517192" r="4.906700947604815" fill="#CFAE58" opacity="0.13109028292584418"/>
  <circle cx="967.8919681072937" cy="452.11001979161443" r="2.5047461269486" fill="#CFAE58" opacity="0.2388303246637873"/>
  <circle cx="1008.7951337509318" cy="434.5817914984975" r="2.502465858200262" fill="#CFAE58" opacity="0.24760867510901552"/>
  <circle cx="839.1288141856938" cy="265.93944642472695" r="5.1456246790653" fill="#CFAE58" opacity="0.12180363241129802"/>
  <circle cx="421.3576854294314" cy="563.5569105836051" r="4.665206950980809" fill="#CFAE58" opacity="0.12776047668513707"/>

  <!-- Border with glow -->
  <rect x="40" y="40" width="1120" height="550" fill="none" stroke="url(#goldGradient)" stroke-width="3" rx="12" filter="url(#softGlow)"/>

  <!-- Icon circle with premium background -->
  <circle cx="150" cy="200" r="75" fill="#CFAE58" opacity="0.15" filter="url(#softGlow)"/>
  <circle cx="150" cy="200" r="70" fill="#CFAE58" opacity="0.25"/>
  <text x="150" y="235" font-size="90" text-anchor="middle" fill="#CFAE58" filter="url(#glow)">💰</text>

  <!-- Premium logo (crown) with enhanced styling -->
  <g transform="translate(100, 70)">
    <path d="M 30 20 L 40 35 L 35 35 Z M 50 15 L 60 35 L 45 35 Z M 65 20 L 75 35 L 70 35 Z M 30 35 L 75 35 L 73 45 L 32 45 Z"
          fill="url(#goldGradient)" filter="url(#glow)" stroke="#B89842" stroke-width="0.5"/>
    <circle cx="40" cy="25" r="3" fill="#4FD1C5" filter="url(#glow)"/>
    <circle cx="52" cy="20" r="4" fill="#4FD1C5" filter="url(#glow)"/>
    <circle cx="65" cy="25" r="3" fill="#4FD1C5" filter="url(#glow)"/>
  </g>

  <!-- Title with shadow -->
  <text x="280" y="180" font-family="Georgia, serif" font-size="72" font-weight="bold"
        fill="url(#goldGradient)" filter="url(#shadow)">Tour Pricing</text>

  <!-- Subtitle with subtle glow -->
  <text x="280" y="230" font-family="Arial, sans-serif" font-size="36"
        fill="#D6DEE6" opacity="0.95" filter="url(#softGlow)">Family, Premium & Corporate Packages</text>

  <!-- Brand name with letter spacing -->
  <text x="280" y="300" font-family="Georgia, serif" font-size="32" font-weight="bold"
        fill="#CFAE58" letter-spacing="4" filter="url(#glow)">ROYAL KETA</text>

  <!-- Russian tagline -->
  <text x="280" y="340" font-family="Arial, sans-serif" font-size="22" font-style="italic"
        fill="#8B95A1" opacity="0.8">От икринки к королевской</text>

  <!-- Location -->
  <text x="280" y="380" font-family="Arial, sans-serif" font-size="20"
        fill="#8B95A1" opacity="0.7">Невельский район, Сахалин</text>

  <!-- Website with glow -->
  <text x="100" y="570" font-family="Arial, sans-serif" font-size="30" font-weight="bold"
        fill="#4FD1C5" filter="url(#glow)">royalketa.com</text>

  <!-- Enhanced decorative salmon silhouette -->
  <g transform="translate(950, 480)" opacity="0.2" filter="url(#softGlow)">
    <ellipse cx="0" cy="0" rx="90" ry="35" fill="#CFAE58"/>
    <path d="M 90 0 L 120 -18 L 130 0 L 120 18 Z" fill="#CFAE58"/>
    <path d="M -25 -35 L 0 -45 L 25 -35 Z" fill="#CFAE58"/>
    <ellipse cx="-50" cy="0" rx="15" ry="12" fill="#0B0F14"/>
  </g>

  <!-- Additional decorative caviar clusters -->
  <g opacity="0.2">
    <circle cx="1050" cy="120" r="6" fill="#CFAE58"/>
    <circle cx="1065" cy="115" r="5" fill="#CFAE58"/>
    <circle cx="1058" cy="130" r="4" fill="#CFAE58"/>
    <circle cx="150" cy="500" r="5" fill="#4FD1C5"/>
    <circle cx="165" cy="508" r="4" fill="#4FD1C5"/>
    <circle cx="140" cy="512" r="5" fill="#4FD1C5"/>
  </g>
</svg>