<svg width="1200" height="630" xmlns="http://www.w3.org/2000/svg">
  <defs>
    <linearGradient id="bgGradient" x1="0%" y1="0%" x2="100%" y2="100%">
      <stop offset="0%" style="stop-color:#0B0F14;stop-opacity:1" />
      <stop offset="50%" style="stop-color:#0F1619;stop-opacity:1" />
      <stop offset="100%" style="stop-color:#0F1922;stop-opacity:1" />
    </linearGradient>
    <linearGradient id="goldGradient" x1="0%" y1="0%" x2="100%" y2="0%">
      <stop offset="0%" style="stop-color:#E5D596;stop-opacity:1" />
      <stop offset="50%" style="stop-color:#CFAE58;stop-opacity:1" />
      <stop offset="100%" style="stop-color:#B89842;stop-opacity:1" />
    </linearGradient>
    <radialGradient id="oceanGradient" cx="50%" cy="50%" r="50%">
      <stop offset="0%" style="stop-color:#4FD1C5;stop-opacity:0.3" />
      <stop offset="100%" style="stop-color:#1E90A0;stop-opacity:0.05" />
    </radialGradient>
    <filter id="glow">
      <feGaussianBlur stdDeviation="5" result="coloredBlur"/>
      <feMerge>
        <feMergeNode in="coloredBlur"/>
        <feMergeNode in="SourceGraphic"/>
      </feMerge>
    </filter>
    <filter id="softGlow">
      <feGaussianBlur stdDeviation="8" result="coloredBlur"/>
      <feMerge>
        <feMergeNode in="coloredBlur"/>
        <feMergeNode in="SourceGraphic"/>
      </feMerge>
    </filter>
    <filter id="shadow">
      <feDropShadow dx="0" dy="4" stdDeviation="8" flood-color="#000000" flood-opacity="0.5"/>
    </filter>
  </defs>

  <!-- Background -->
  <rect width="1200" height="630" fill="url(#bgGradient)"/>

  <!-- Decorative ocean gradients -->
  <ellipse cx="1000" cy="150" rx="300" ry="200" fill="url(#oceanGradient)" opacity="0.4"/>
  <ellipse cx="200" cy="530" rx="250" ry="180" fill="url(#oceanGradient)" opacity="0.3"/>

  <!-- Wave patterns -->
  <path d="M 0 400 Q 300 350 600 400 T 1200 400 L 1200 630 L 0 630 Z" fill="#1E90A0" opacity="0.08"/>
  <path d="M 0 450 Q 250 420 500 450 T 1000 450 T 1200 450 L 1200 630 L 0 630 Z" fill="#4FD1C5" opacity="0.05"/>

  <!-- Caviar roe particles -->
  <circle cx="705.5465744766143" cy="392.6810003487213" r="5.976984008349499" fill="#CFAE58" opacity="0.24979859507241683"/>
  <circle cx="1114.6051776973845" cy="95.10682342885256" r="3.4968846228538024" fill="#CFAE58" opacity="0.2462009996823769"/>
  <circle cx="727.9032094440875" cy="234.13034348631012" r="2.8972601835152956" fill="#CFAE58" opacity="0.19393122387123235"/>
  <circle cx="778.1712407973603" cy="293.3922540207266" r="5.621571643256301" fill="#CFAE58" opacity="0.19582417370700683"/>
  <circle cx="61.68069172420512" cy="498.1259832438651" r="5.887885688936299" fill="#CFAE58" opacity="0.24056895729370825"/>
  <circle cx="560.6564108393852" cy="208.78441139104675" r="2.012557572686054" fill="#CFAE58" opacity="0.11220875835062215"/>
  <circle cx="204.68777400903394" cy="482.9355512048828" r="3.112357930567928" fill="#CFAE58" opacity="0.128136224139406"/>
  <circle cx="300.9023973833888" cy="552.5671036467329" r="4.421168912758429" fill="#CFAE58" opacity="0.20979218043732978"/>
  <circle cx="444.4292303305581" cy="373.05451644537885" r="5.887125584516324" fill="#CFAE58" opacity="0.19484401595880443"/>
  <circle cx="70.01028207308724" cy="417.7665981146973" r="2.8897059557314755" fill="#CFAE58" opacity="0.20320244662522585"/>
  <circle cx="861.7106789843712" cy="348.68322139772135" r="5.107204431023989" fill="#CFAE58" opacity="0.10755782627394259"/>
  <circle cx="970.743802103053" cy="338.2104746869652" r="5.1552832416054635" fill="#CFAE58" opacity="0.1592585113179706"/>
  <circle cx="470.2585097764676" cy="604.8029693913508" r="2.3220322226177905" fill="#CFAE58" opacity="0.12901186017788266"/>
  <circle cx="483.0231082147862" cy="12.295098656266259" r="5.125332675770624" fill="#CFAE58" opacity="0.18392128225636514"/>
  <circle cx="442.2663830566793" cy="281.79751912427065" r="2.76429944521724" fill="#CFAE58" opacity="0.11997647363450581"/>
  <circle cx="593.7935003906773" cy="250.10428077467154" r="4.581345435646377" fill="#CFAE58" opacity="0.21797750064635452"/>
  <circle cx="792.6256329625705" cy="136.4632457126388" r="3.481053711246761" fill="#CFAE58" opacity="0.119528310624638"/>
  <circle cx="499.3795512711954" cy="192.763475611039" r="4.1664608390700835" fill="#CFAE58" opacity="0.14389037290218815"/>
  <circle cx="906.1283117474355" cy="381.4295461983124" r="5.7363928343533725" fill="#CFAE58" opacity="0.17793819798595062"/>
  <circle cx="897.4781274783487" cy="154.41324016994795" r="5.935450781300908" fill="#CFAE58" opacity="0.11940002249187073"/>
  <circle cx="912.4200003535155" cy="24.635053305447006" r="2.2953418982388603" fill="#CFAE58" opacity="0.21628361110815425"/>
  <circle cx="435.485534624917" cy="260.96286083385576" r="5.18861102126341" fill="#CFAE58" opacity="0.1390538196599176"/>
  <circle cx="317.27911966227896" cy="155.3351322181417" r="3.5971117513712874" fill="#CFAE58" opacity="0.16415974863361527"/>
  <circle cx="126.93630179127595" cy="464.3493305707601" r="5.664932871545853" fill="#CFAE58" opacity="0.13495838215530426"/>
  <circle cx="1103.5216180433338" cy="623.6732080485929" r="3.390443948986318" fill="#CFAE58" opacity="0.19980335345724143"/>
  <circle cx="373.70806768467884" cy="252.01827331384396" r="2.9367857317366957" fill="#CFAE58" opacity="0.10734757751363935"/>
  <circle cx="422.73708730092386" cy="172.1794888432172" r="3.7192094062891066" fill="#CFAE58" opacity="0.16569758699748105"/>
  <circle cx="457.5600382978313" cy="236.733914588423" r="4.0787580099779985" fill="#CFAE58" opacity="0.1753599595496549"/>
  <circle cx="349.26932444756864" cy="264.5269713911608" r="3.780677467655799" fill="#CFAE58" opacity="0.20953059124741244"/>
  <circle cx="18.276326913836094" cy="307.51886215661847" r="3.9685902650142433" fill="#CFAE58" opacity="0.1193597756333844"/>

  <!-- Border with glow -->
  <rect x="40" y="40" width="1120" height="550" fill="none" stroke="url(#goldGradient)" stroke-width="3" rx="12" filter="url(#softGlow)"/>

  <!-- Icon circle with premium background -->
  <circle cx="150" cy="200" r="75" fill="#CFAE58" opacity="0.15" filter="url(#softGlow)"/>
  <circle cx="150" cy="200" r="70" fill="#CFAE58" opacity="0.25"/>
  <text x="150" y="235" font-size="90" text-anchor="middle" fill="#CFAE58" filter="url(#glow)">💰</text>

  <!-- Premium logo (crown) with enhanced styling -->
  <g transform="translate(100, 70)">
    <path d="M 30 20 L 40 35 L 35 35 Z M 50 15 L 60 35 L 45 35 Z M 65 20 L 75 35 L 70 35 Z M 30 35 L 75 35 L 73 45 L 32 45 Z"
          fill="url(#goldGradient)" filter="url(#glow)" stroke="#B89842" stroke-width="0.5"/>
    <circle cx="40" cy="25" r="3" fill="#4FD1C5" filter="url(#glow)"/>
    <circle cx="52" cy="20" r="4" fill="#4FD1C5" filter="url(#glow)"/>
    <circle cx="65" cy="25" r="3" fill="#4FD1C5" filter="url(#glow)"/>
  </g>

  <!-- Title with shadow -->
  <text x="280" y="180" font-family="Georgia, serif" font-size="72" font-weight="bold"
        fill="url(#goldGradient)" filter="url(#shadow)">Tour Pricing</text>

  <!-- Subtitle with subtle glow -->
  <text x="280" y="230" font-family="Arial, sans-serif" font-size="36"
        fill="#D6DEE6" opacity="0.95" filter="url(#softGlow)">Family, Premium &amp; Corporate Packages</text>

  <!-- Brand name with letter spacing -->
  <text x="280" y="300" font-family="Georgia, serif" font-size="32" font-weight="bold"
        fill="#CFAE58" letter-spacing="4" filter="url(#glow)">ROYAL KETA</text>

  <!-- Russian tagline -->
  <text x="280" y="340" font-family="Arial, sans-serif" font-size="22" font-style="italic"
        fill="#8B95A1" opacity="0.8">От икринки к королевской</text>

  <!-- Location -->
  <text x="280" y="380" font-family="Arial, sans-serif" font-size="20"
        fill="#8B95A1" opacity="0.7">Невельский район, Сахалин</text>

  <!-- Website with glow -->
  <text x="100" y="570" font-family="Arial, sans-serif" font-size="30" font-weight="bold"
        fill="#4FD1C5" filter="url(#glow)">royalketa.com</text>

  <!-- Enhanced decorative salmon silhouette -->
  <g transform="translate(950, 480)" opacity="0.2" filter="url(#softGlow)">
    <ellipse cx="0" cy="0" rx="90" ry="35" fill="#CFAE58"/>
    <path d="M 90 0 L 120 -18 L 130 0 L 120 18 Z" fill="#CFAE58"/>
    <path d="M -25 -35 L 0 -45 L 25 -35 Z" fill="#CFAE58"/>
    <ellipse cx="-50" cy="0" rx="15" ry="12" fill="#0B0F14"/>
  </g>

  <!-- Additional decorative caviar clusters -->
  <g opacity="0.2">
    <circle cx="1050" cy="120" r="6" fill="#CFAE58"/>
    <circle cx="1065" cy="115" r="5" fill="#CFAE58"/>
    <circle cx="1058" cy="130" r="4" fill="#CFAE58"/>
    <circle cx="150" cy="500" r="5" fill="#4FD1C5"/>
    <circle cx="165" cy="508" r="4" fill="#4FD1C5"/>
    <circle cx="140" cy="512" r="5" fill="#4FD1C5"/>
  </g>
</svg>