<svg width="1200" height="630" xmlns="http://www.w3.org/2000/svg">
  <defs>
    <linearGradient id="bgGradient" x1="0%" y1="0%" x2="100%" y2="100%">
      <stop offset="0%" style="stop-color:#0B0F14;stop-opacity:1" />
      <stop offset="50%" style="stop-color:#0F1619;stop-opacity:1" />
      <stop offset="100%" style="stop-color:#0F1922;stop-opacity:1" />
    </linearGradient>
    <linearGradient id="goldGradient" x1="0%" y1="0%" x2="100%" y2="0%">
      <stop offset="0%" style="stop-color:#E5D596;stop-opacity:1" />
      <stop offset="50%" style="stop-color:#CFAE58;stop-opacity:1" />
      <stop offset="100%" style="stop-color:#B89842;stop-opacity:1" />
    </linearGradient>
    <radialGradient id="oceanGradient" cx="50%" cy="50%" r="50%">
      <stop offset="0%" style="stop-color:#4FD1C5;stop-opacity:0.3" />
      <stop offset="100%" style="stop-color:#1E90A0;stop-opacity:0.05" />
    </radialGradient>
    <filter id="glow">
      <feGaussianBlur stdDeviation="5" result="coloredBlur"/>
      <feMerge>
        <feMergeNode in="coloredBlur"/>
        <feMergeNode in="SourceGraphic"/>
      </feMerge>
    </filter>
    <filter id="softGlow">
      <feGaussianBlur stdDeviation="8" result="coloredBlur"/>
      <feMerge>
        <feMergeNode in="coloredBlur"/>
        <feMergeNode in="SourceGraphic"/>
      </feMerge>
    </filter>
    <filter id="shadow">
      <feDropShadow dx="0" dy="4" stdDeviation="8" flood-color="#000000" flood-opacity="0.5"/>
    </filter>
  </defs>

  <!-- Background -->
  <rect width="1200" height="630" fill="url(#bgGradient)"/>

  <!-- Decorative ocean gradients -->
  <ellipse cx="1000" cy="150" rx="300" ry="200" fill="url(#oceanGradient)" opacity="0.4"/>
  <ellipse cx="200" cy="530" rx="250" ry="180" fill="url(#oceanGradient)" opacity="0.3"/>

  <!-- Wave patterns -->
  <path d="M 0 400 Q 300 350 600 400 T 1200 400 L 1200 630 L 0 630 Z" fill="#1E90A0" opacity="0.08"/>
  <path d="M 0 450 Q 250 420 500 450 T 1000 450 T 1200 450 L 1200 630 L 0 630 Z" fill="#4FD1C5" opacity="0.05"/>

  <!-- Caviar roe particles -->
  <circle cx="177.290428690056" cy="55.83078072349552" r="3.9196750105354354" fill="#CFAE58" opacity="0.12686862212259148"/>
  <circle cx="978.4125609670743" cy="46.07468131283619" r="3.3259561487841145" fill="#CFAE58" opacity="0.15933643824849592"/>
  <circle cx="355.7020394932006" cy="617.282014230343" r="5.993312028507017" fill="#CFAE58" opacity="0.20809995661701722"/>
  <circle cx="212.53930333325775" cy="385.6881944621693" r="3.873918902130458" fill="#CFAE58" opacity="0.11330245122496174"/>
  <circle cx="455.7795526827776" cy="189.6333961522363" r="5.281553741908155" fill="#CFAE58" opacity="0.23608383176922218"/>
  <circle cx="999.4567299537599" cy="542.8821426764933" r="3.983495934631323" fill="#CFAE58" opacity="0.21701484438004726"/>
  <circle cx="346.555129068639" cy="316.1130136076174" r="2.4901804155831178" fill="#CFAE58" opacity="0.10443314784686748"/>
  <circle cx="144.36664917358488" cy="120.75860848217319" r="5.188324875782043" fill="#CFAE58" opacity="0.2202183816713585"/>
  <circle cx="1156.7131473964841" cy="99.49539041588235" r="4.2595902945665225" fill="#CFAE58" opacity="0.12384670788352894"/>
  <circle cx="296.00909149538654" cy="319.85177399915665" r="5.345912652072449" fill="#CFAE58" opacity="0.21244027448649655"/>
  <circle cx="538.1179483844105" cy="68.21162082704811" r="4.89150181498367" fill="#CFAE58" opacity="0.1090283634479151"/>
  <circle cx="820.1644557907625" cy="625.1161545867951" r="3.67833530086451" fill="#CFAE58" opacity="0.11530226279059491"/>
  <circle cx="956.2307522865655" cy="11.480751052366127" r="5.9561692222868885" fill="#CFAE58" opacity="0.22738148800509028"/>
  <circle cx="965.4910916503915" cy="296.58453178679616" r="3.0153612895449626" fill="#CFAE58" opacity="0.1453815363149125"/>
  <circle cx="109.64986398296794" cy="21.130831603853476" r="5.298679256695236" fill="#CFAE58" opacity="0.1331732014487852"/>
  <circle cx="748.4589749039128" cy="577.7257540034917" r="3.6112056122234675" fill="#CFAE58" opacity="0.10126159600713719"/>
  <circle cx="739.053292888647" cy="564.9741483369235" r="4.587717945953687" fill="#CFAE58" opacity="0.22377862766327422"/>
  <circle cx="751.0652787587586" cy="4.685863581582641" r="3.3313493522135866" fill="#CFAE58" opacity="0.10240614382440663"/>
  <circle cx="637.851598059658" cy="191.58180319952885" r="5.095792300849801" fill="#CFAE58" opacity="0.220262532409813"/>
  <circle cx="407.942584958609" cy="335.82417190735873" r="2.8687471913346716" fill="#CFAE58" opacity="0.16181112834520692"/>
  <circle cx="1053.5565008310903" cy="57.841089896692424" r="2.8522495064676257" fill="#CFAE58" opacity="0.16092729467932265"/>
  <circle cx="897.4299330335308" cy="235.20056634925794" r="3.5592272340684215" fill="#CFAE58" opacity="0.16168221233764288"/>
  <circle cx="291.2794884334681" cy="612.1709468692723" r="4.993203866194805" fill="#CFAE58" opacity="0.13516763118091593"/>
  <circle cx="1122.6784833237482" cy="160.2079905029887" r="2.469585747613671" fill="#CFAE58" opacity="0.10258148951360029"/>
  <circle cx="768.634518372331" cy="360.3219560123935" r="4.929317256282186" fill="#CFAE58" opacity="0.14322183808418007"/>
  <circle cx="788.3045702624556" cy="283.05839914999" r="3.4768879519218405" fill="#CFAE58" opacity="0.16305512679606315"/>
  <circle cx="531.9653416375127" cy="118.19831199407068" r="4.982890128363964" fill="#CFAE58" opacity="0.20427962386244744"/>
  <circle cx="780.6137555806922" cy="275.2338298482432" r="2.217210182381808" fill="#CFAE58" opacity="0.11002766102372644"/>
  <circle cx="662.4669751918075" cy="545.4866879964505" r="5.24275094168061" fill="#CFAE58" opacity="0.2409562507664174"/>
  <circle cx="1140.335626356183" cy="173.70775108945088" r="4.7463994512135015" fill="#CFAE58" opacity="0.12327153935731833"/>

  <!-- Border with glow -->
  <rect x="40" y="40" width="1120" height="550" fill="none" stroke="url(#goldGradient)" stroke-width="3" rx="12" filter="url(#softGlow)"/>

  <!-- Icon circle with premium background -->
  <circle cx="150" cy="200" r="75" fill="#CFAE58" opacity="0.15" filter="url(#softGlow)"/>
  <circle cx="150" cy="200" r="70" fill="#CFAE58" opacity="0.25"/>
  <text x="150" y="235" font-size="90" text-anchor="middle" fill="#CFAE58" filter="url(#glow)">💰</text>

  <!-- Premium logo (crown) with enhanced styling -->
  <g transform="translate(100, 70)">
    <path d="M 30 20 L 40 35 L 35 35 Z M 50 15 L 60 35 L 45 35 Z M 65 20 L 75 35 L 70 35 Z M 30 35 L 75 35 L 73 45 L 32 45 Z"
          fill="url(#goldGradient)" filter="url(#glow)" stroke="#B89842" stroke-width="0.5"/>
    <circle cx="40" cy="25" r="3" fill="#4FD1C5" filter="url(#glow)"/>
    <circle cx="52" cy="20" r="4" fill="#4FD1C5" filter="url(#glow)"/>
    <circle cx="65" cy="25" r="3" fill="#4FD1C5" filter="url(#glow)"/>
  </g>

  <!-- Title with shadow -->
  <text x="280" y="180" font-family="Georgia, serif" font-size="72" font-weight="bold"
        fill="url(#goldGradient)" filter="url(#shadow)">Tour Pricing</text>

  <!-- Subtitle with subtle glow -->
  <text x="280" y="230" font-family="Arial, sans-serif" font-size="36"
        fill="#D6DEE6" opacity="0.95" filter="url(#softGlow)">Family, Premium & Corporate Packages</text>

  <!-- Brand name with letter spacing -->
  <text x="280" y="300" font-family="Georgia, serif" font-size="32" font-weight="bold"
        fill="#CFAE58" letter-spacing="4" filter="url(#glow)">ROYAL KETA</text>

  <!-- Russian tagline -->
  <text x="280" y="340" font-family="Arial, sans-serif" font-size="22" font-style="italic"
        fill="#8B95A1" opacity="0.8">От икринки к королевской</text>

  <!-- Location -->
  <text x="280" y="380" font-family="Arial, sans-serif" font-size="20"
        fill="#8B95A1" opacity="0.7">Невельский район, Сахалин</text>

  <!-- Website with glow -->
  <text x="100" y="570" font-family="Arial, sans-serif" font-size="30" font-weight="bold"
        fill="#4FD1C5" filter="url(#glow)">royalketa.com</text>

  <!-- Enhanced decorative salmon silhouette -->
  <g transform="translate(950, 480)" opacity="0.2" filter="url(#softGlow)">
    <ellipse cx="0" cy="0" rx="90" ry="35" fill="#CFAE58"/>
    <path d="M 90 0 L 120 -18 L 130 0 L 120 18 Z" fill="#CFAE58"/>
    <path d="M -25 -35 L 0 -45 L 25 -35 Z" fill="#CFAE58"/>
    <ellipse cx="-50" cy="0" rx="15" ry="12" fill="#0B0F14"/>
  </g>

  <!-- Additional decorative caviar clusters -->
  <g opacity="0.2">
    <circle cx="1050" cy="120" r="6" fill="#CFAE58"/>
    <circle cx="1065" cy="115" r="5" fill="#CFAE58"/>
    <circle cx="1058" cy="130" r="4" fill="#CFAE58"/>
    <circle cx="150" cy="500" r="5" fill="#4FD1C5"/>
    <circle cx="165" cy="508" r="4" fill="#4FD1C5"/>
    <circle cx="140" cy="512" r="5" fill="#4FD1C5"/>
  </g>
</svg>