<svg width="1200" height="630" xmlns="http://www.w3.org/2000/svg">
  <defs>
    <linearGradient id="bgGradient" x1="0%" y1="0%" x2="100%" y2="100%">
      <stop offset="0%" style="stop-color:#0B0F14;stop-opacity:1" />
      <stop offset="50%" style="stop-color:#0F1619;stop-opacity:1" />
      <stop offset="100%" style="stop-color:#0F1922;stop-opacity:1" />
    </linearGradient>
    <linearGradient id="goldGradient" x1="0%" y1="0%" x2="100%" y2="0%">
      <stop offset="0%" style="stop-color:#E5D596;stop-opacity:1" />
      <stop offset="50%" style="stop-color:#CFAE58;stop-opacity:1" />
      <stop offset="100%" style="stop-color:#B89842;stop-opacity:1" />
    </linearGradient>
    <radialGradient id="oceanGradient" cx="50%" cy="50%" r="50%">
      <stop offset="0%" style="stop-color:#4FD1C5;stop-opacity:0.3" />
      <stop offset="100%" style="stop-color:#1E90A0;stop-opacity:0.05" />
    </radialGradient>
    <filter id="glow">
      <feGaussianBlur stdDeviation="5" result="coloredBlur"/>
      <feMerge>
        <feMergeNode in="coloredBlur"/>
        <feMergeNode in="SourceGraphic"/>
      </feMerge>
    </filter>
    <filter id="softGlow">
      <feGaussianBlur stdDeviation="8" result="coloredBlur"/>
      <feMerge>
        <feMergeNode in="coloredBlur"/>
        <feMergeNode in="SourceGraphic"/>
      </feMerge>
    </filter>
    <filter id="shadow">
      <feDropShadow dx="0" dy="4" stdDeviation="8" flood-color="#000000" flood-opacity="0.5"/>
    </filter>
  </defs>

  <!-- Background -->
  <rect width="1200" height="630" fill="url(#bgGradient)"/>

  <!-- Decorative ocean gradients -->
  <ellipse cx="1000" cy="150" rx="300" ry="200" fill="url(#oceanGradient)" opacity="0.4"/>
  <ellipse cx="200" cy="530" rx="250" ry="180" fill="url(#oceanGradient)" opacity="0.3"/>

  <!-- Wave patterns -->
  <path d="M 0 400 Q 300 350 600 400 T 1200 400 L 1200 630 L 0 630 Z" fill="#1E90A0" opacity="0.08"/>
  <path d="M 0 450 Q 250 420 500 450 T 1000 450 T 1200 450 L 1200 630 L 0 630 Z" fill="#4FD1C5" opacity="0.05"/>

  <!-- Caviar roe particles -->
  <circle cx="1044.902228945046" cy="122.64279166321076" r="2.8809804159531263" fill="#CFAE58" opacity="0.1767451264411165"/>
  <circle cx="564.3809454459157" cy="311.40476287148897" r="2.6974240137361587" fill="#CFAE58" opacity="0.13012743675562372"/>
  <circle cx="1103.1743939393484" cy="115.79781633149346" r="4.910059687535262" fill="#CFAE58" opacity="0.14582537750428634"/>
  <circle cx="266.32272723597407" cy="327.6270210614913" r="3.3682045533911786" fill="#CFAE58" opacity="0.22340199948515022"/>
  <circle cx="52.99795471433812" cy="241.90342207768308" r="4.933878337548814" fill="#CFAE58" opacity="0.20416497124638538"/>
  <circle cx="110.58742268977291" cy="42.326105988971484" r="5.363399419734311" fill="#CFAE58" opacity="0.16816356234369534"/>
  <circle cx="337.1502248401719" cy="530.4431738351055" r="4.173216394053048" fill="#CFAE58" opacity="0.11382266211114961"/>
  <circle cx="710.3834214014591" cy="400.4598349616089" r="4.129806871491769" fill="#CFAE58" opacity="0.16769758491973563"/>
  <circle cx="910.5954014818643" cy="38.34976535832941" r="5.187772277422024" fill="#CFAE58" opacity="0.1283503047155492"/>
  <circle cx="905.8835848159131" cy="400.60607272523987" r="4.192045658377052" fill="#CFAE58" opacity="0.15239917877593315"/>
  <circle cx="549.8882713217847" cy="99.05619034711751" r="3.565485584081321" fill="#CFAE58" opacity="0.20750070179547073"/>
  <circle cx="927.329219082743" cy="128.03906605763402" r="3.0702637241670674" fill="#CFAE58" opacity="0.1442754072072756"/>
  <circle cx="87.28359226780267" cy="538.2298855732371" r="5.35279232030032" fill="#CFAE58" opacity="0.13703769802297322"/>
  <circle cx="1065.3173507574015" cy="438.7368680493823" r="4.016173750246587" fill="#CFAE58" opacity="0.14922730452143276"/>
  <circle cx="1037.6751469458488" cy="539.3178418860016" r="4.0827181398882635" fill="#CFAE58" opacity="0.191333736867272"/>
  <circle cx="1177.4998994140633" cy="68.15293951588993" r="3.336858132955685" fill="#CFAE58" opacity="0.2439428162474583"/>
  <circle cx="77.50149109261298" cy="291.05178984830076" r="3.8724856695236864" fill="#CFAE58" opacity="0.15115044723623483"/>
  <circle cx="492.76389414959783" cy="223.36961120163198" r="5.165956961489153" fill="#CFAE58" opacity="0.21435396658090386"/>
  <circle cx="978.9878152822498" cy="76.16965436881125" r="5.908963777170721" fill="#CFAE58" opacity="0.2422810689113547"/>
  <circle cx="360.5048083284646" cy="380.7561886145341" r="3.840156859873006" fill="#CFAE58" opacity="0.1959033542885218"/>
  <circle cx="849.5203096362502" cy="336.05004418857305" r="2.266298854240044" fill="#CFAE58" opacity="0.10746209471693206"/>
  <circle cx="619.3514728508541" cy="572.5957771197144" r="3.409628970047944" fill="#CFAE58" opacity="0.2396785801024691"/>
  <circle cx="225.43151616575682" cy="132.77045602899895" r="4.8479379185041935" fill="#CFAE58" opacity="0.1356147423037181"/>
  <circle cx="692.1401164362354" cy="98.13983630283177" r="2.838112596268844" fill="#CFAE58" opacity="0.1765035313196493"/>
  <circle cx="499.6036814426088" cy="466.46093494275505" r="2.2108134522809735" fill="#CFAE58" opacity="0.11414846765071351"/>
  <circle cx="846.517844019448" cy="222.1572849471126" r="4.208114332542182" fill="#CFAE58" opacity="0.13812239026477435"/>
  <circle cx="174.20467071310668" cy="34.82956658240211" r="4.957893174612981" fill="#CFAE58" opacity="0.22418928821124803"/>
  <circle cx="443.3810503241336" cy="269.4288625173496" r="2.5097384815044963" fill="#CFAE58" opacity="0.15860317641948635"/>
  <circle cx="890.5702577772119" cy="366.29916533368487" r="5.896874815713806" fill="#CFAE58" opacity="0.15945000113792226"/>
  <circle cx="703.4843500781479" cy="215.11698767099597" r="2.1006230247074447" fill="#CFAE58" opacity="0.24968653347553244"/>

  <!-- Border with glow -->
  <rect x="40" y="40" width="1120" height="550" fill="none" stroke="url(#goldGradient)" stroke-width="3" rx="12" filter="url(#softGlow)"/>

  <!-- Icon circle with premium background -->
  <circle cx="150" cy="200" r="75" fill="#CFAE58" opacity="0.15" filter="url(#softGlow)"/>
  <circle cx="150" cy="200" r="70" fill="#CFAE58" opacity="0.25"/>
  <text x="150" y="235" font-size="90" text-anchor="middle" fill="#CFAE58" filter="url(#glow)">🐟</text>

  <!-- Premium logo (crown) with enhanced styling -->
  <g transform="translate(100, 70)">
    <path d="M 30 20 L 40 35 L 35 35 Z M 50 15 L 60 35 L 45 35 Z M 65 20 L 75 35 L 70 35 Z M 30 35 L 75 35 L 73 45 L 32 45 Z"
          fill="url(#goldGradient)" filter="url(#glow)" stroke="#B89842" stroke-width="0.5"/>
    <circle cx="40" cy="25" r="3" fill="#4FD1C5" filter="url(#glow)"/>
    <circle cx="52" cy="20" r="4" fill="#4FD1C5" filter="url(#glow)"/>
    <circle cx="65" cy="25" r="3" fill="#4FD1C5" filter="url(#glow)"/>
  </g>

  <!-- Title with shadow -->
  <text x="280" y="180" font-family="Georgia, serif" font-size="72" font-weight="bold"
        fill="url(#goldGradient)" filter="url(#shadow)">Salmon &amp; Red Caviar</text>

  <!-- Subtitle with subtle glow -->
  <text x="280" y="230" font-family="Arial, sans-serif" font-size="36"
        fill="#D6DEE6" opacity="0.95" filter="url(#softGlow)">Pacific Salmon Species Guide</text>

  <!-- Brand name with letter spacing -->
  <text x="280" y="300" font-family="Georgia, serif" font-size="32" font-weight="bold"
        fill="#CFAE58" letter-spacing="4" filter="url(#glow)">ROYAL KETA</text>

  <!-- Russian tagline -->
  <text x="280" y="340" font-family="Arial, sans-serif" font-size="22" font-style="italic"
        fill="#8B95A1" opacity="0.8">От икринки к королевской</text>

  <!-- Location -->
  <text x="280" y="380" font-family="Arial, sans-serif" font-size="20"
        fill="#8B95A1" opacity="0.7">Невельский район, Сахалин</text>

  <!-- Website with glow -->
  <text x="100" y="570" font-family="Arial, sans-serif" font-size="30" font-weight="bold"
        fill="#4FD1C5" filter="url(#glow)">royalketa.com</text>

  <!-- Enhanced decorative salmon silhouette -->
  <g transform="translate(950, 480)" opacity="0.2" filter="url(#softGlow)">
    <ellipse cx="0" cy="0" rx="90" ry="35" fill="#CFAE58"/>
    <path d="M 90 0 L 120 -18 L 130 0 L 120 18 Z" fill="#CFAE58"/>
    <path d="M -25 -35 L 0 -45 L 25 -35 Z" fill="#CFAE58"/>
    <ellipse cx="-50" cy="0" rx="15" ry="12" fill="#0B0F14"/>
  </g>

  <!-- Additional decorative caviar clusters -->
  <g opacity="0.2">
    <circle cx="1050" cy="120" r="6" fill="#CFAE58"/>
    <circle cx="1065" cy="115" r="5" fill="#CFAE58"/>
    <circle cx="1058" cy="130" r="4" fill="#CFAE58"/>
    <circle cx="150" cy="500" r="5" fill="#4FD1C5"/>
    <circle cx="165" cy="508" r="4" fill="#4FD1C5"/>
    <circle cx="140" cy="512" r="5" fill="#4FD1C5"/>
  </g>
</svg>