<svg width="1200" height="630" xmlns="http://www.w3.org/2000/svg">
  <defs>
    <linearGradient id="bgGradient" x1="0%" y1="0%" x2="100%" y2="100%">
      <stop offset="0%" style="stop-color:#0B0F14;stop-opacity:1" />
      <stop offset="50%" style="stop-color:#0F1619;stop-opacity:1" />
      <stop offset="100%" style="stop-color:#0F1922;stop-opacity:1" />
    </linearGradient>
    <linearGradient id="goldGradient" x1="0%" y1="0%" x2="100%" y2="0%">
      <stop offset="0%" style="stop-color:#E5D596;stop-opacity:1" />
      <stop offset="50%" style="stop-color:#CFAE58;stop-opacity:1" />
      <stop offset="100%" style="stop-color:#B89842;stop-opacity:1" />
    </linearGradient>
    <radialGradient id="oceanGradient" cx="50%" cy="50%" r="50%">
      <stop offset="0%" style="stop-color:#4FD1C5;stop-opacity:0.3" />
      <stop offset="100%" style="stop-color:#1E90A0;stop-opacity:0.05" />
    </radialGradient>
    <filter id="glow">
      <feGaussianBlur stdDeviation="5" result="coloredBlur"/>
      <feMerge>
        <feMergeNode in="coloredBlur"/>
        <feMergeNode in="SourceGraphic"/>
      </feMerge>
    </filter>
    <filter id="softGlow">
      <feGaussianBlur stdDeviation="8" result="coloredBlur"/>
      <feMerge>
        <feMergeNode in="coloredBlur"/>
        <feMergeNode in="SourceGraphic"/>
      </feMerge>
    </filter>
    <filter id="shadow">
      <feDropShadow dx="0" dy="4" stdDeviation="8" flood-color="#000000" flood-opacity="0.5"/>
    </filter>
  </defs>

  <!-- Background -->
  <rect width="1200" height="630" fill="url(#bgGradient)"/>

  <!-- Decorative ocean gradients -->
  <ellipse cx="1000" cy="150" rx="300" ry="200" fill="url(#oceanGradient)" opacity="0.4"/>
  <ellipse cx="200" cy="530" rx="250" ry="180" fill="url(#oceanGradient)" opacity="0.3"/>

  <!-- Wave patterns -->
  <path d="M 0 400 Q 300 350 600 400 T 1200 400 L 1200 630 L 0 630 Z" fill="#1E90A0" opacity="0.08"/>
  <path d="M 0 450 Q 250 420 500 450 T 1000 450 T 1200 450 L 1200 630 L 0 630 Z" fill="#4FD1C5" opacity="0.05"/>

  <!-- Caviar roe particles -->
  <circle cx="734.0635534247949" cy="380.853762889135" r="2.884150622050174" fill="#CFAE58" opacity="0.14250703902407075"/>
  <circle cx="485.22836097490307" cy="79.54743597321038" r="2.9746692063189677" fill="#CFAE58" opacity="0.1800890908540504"/>
  <circle cx="153.65217963255037" cy="597.4202422053063" r="5.82004458921713" fill="#CFAE58" opacity="0.13672007117918586"/>
  <circle cx="466.7558185373767" cy="480.8980857864125" r="3.3943891409394897" fill="#CFAE58" opacity="0.1107450818650849"/>
  <circle cx="863.2143903321721" cy="162.28615993887374" r="4.330164635495409" fill="#CFAE58" opacity="0.20332590447701143"/>
  <circle cx="241.98676435853477" cy="204.43248557705496" r="5.8898809412376325" fill="#CFAE58" opacity="0.1205865538282079"/>
  <circle cx="225.34445585415082" cy="82.83014828156374" r="5.065443913529088" fill="#CFAE58" opacity="0.15496239161584624"/>
  <circle cx="563.9628241020199" cy="248.11566123218535" r="4.338228004462451" fill="#CFAE58" opacity="0.2124654943958229"/>
  <circle cx="200.19321490604963" cy="56.084449739921695" r="4.793134478369328" fill="#CFAE58" opacity="0.11055150111501463"/>
  <circle cx="1128.3753367912996" cy="356.3301600975468" r="2.6350428030677557" fill="#CFAE58" opacity="0.15765070054084515"/>
  <circle cx="844.2488187147401" cy="364.7111371932691" r="2.8580694622544733" fill="#CFAE58" opacity="0.2233445186418967"/>
  <circle cx="854.1161043775367" cy="410.0048765985042" r="2.2002101475153886" fill="#CFAE58" opacity="0.1320129802152731"/>
  <circle cx="747.1766410928725" cy="395.42818751389547" r="4.132929189673939" fill="#CFAE58" opacity="0.18414729216854325"/>
  <circle cx="526.2838076933807" cy="493.6311991321918" r="5.414697353451859" fill="#CFAE58" opacity="0.24218868990777015"/>
  <circle cx="439.1387642700387" cy="352.7479278503173" r="5.495937848968933" fill="#CFAE58" opacity="0.24278492279817174"/>
  <circle cx="23.847078355719464" cy="92.65336746732274" r="5.6561244899490415" fill="#CFAE58" opacity="0.14589618160812612"/>
  <circle cx="201.04215887789348" cy="229.66936736947002" r="5.826689011130998" fill="#CFAE58" opacity="0.17558561851742926"/>
  <circle cx="918.8024551140367" cy="252.1369808904962" r="4.502622608770764" fill="#CFAE58" opacity="0.20255827447427233"/>
  <circle cx="809.1618976037935" cy="144.1917431691587" r="5.22096602651142" fill="#CFAE58" opacity="0.10890677539885375"/>
  <circle cx="1158.8703935118726" cy="192.277618444543" r="2.55826358988124" fill="#CFAE58" opacity="0.23820871458024678"/>
  <circle cx="525.2813415613788" cy="74.28591002912792" r="3.2959128558925688" fill="#CFAE58" opacity="0.23168152582740226"/>
  <circle cx="590.4824940710196" cy="285.956605021449" r="2.3115926277509544" fill="#CFAE58" opacity="0.19826164993733658"/>
  <circle cx="1019.4067134886726" cy="74.84856221534196" r="2.3146494984412183" fill="#CFAE58" opacity="0.24693559300254964"/>
  <circle cx="904.2699594384997" cy="190.79396301498872" r="3.4625553208506883" fill="#CFAE58" opacity="0.19717835861490182"/>
  <circle cx="1173.1391441211435" cy="79.9219268251822" r="3.0608489994810055" fill="#CFAE58" opacity="0.1399693337971133"/>
  <circle cx="596.8160348948667" cy="49.95528770101492" r="2.5525585566913858" fill="#CFAE58" opacity="0.22936576464090086"/>
  <circle cx="389.7289287454203" cy="226.96296707459916" r="3.2904741122232464" fill="#CFAE58" opacity="0.14628819080425703"/>
  <circle cx="1132.8643696975157" cy="261.5346031638243" r="2.148384844099744" fill="#CFAE58" opacity="0.10906515877620086"/>
  <circle cx="400.9886669315553" cy="424.1686764946228" r="3.508309173160243" fill="#CFAE58" opacity="0.13813841141026523"/>
  <circle cx="518.3185542302829" cy="252.74509193514243" r="3.571061813597704" fill="#CFAE58" opacity="0.17052719255799897"/>

  <!-- Border with glow -->
  <rect x="40" y="40" width="1120" height="550" fill="none" stroke="url(#goldGradient)" stroke-width="3" rx="12" filter="url(#softGlow)"/>

  <!-- Icon circle with premium background -->
  <circle cx="150" cy="200" r="75" fill="#CFAE58" opacity="0.15" filter="url(#softGlow)"/>
  <circle cx="150" cy="200" r="70" fill="#CFAE58" opacity="0.25"/>
  <text x="150" y="235" font-size="90" text-anchor="middle" fill="#CFAE58" filter="url(#glow)">🐟</text>

  <!-- Premium logo (crown) with enhanced styling -->
  <g transform="translate(100, 70)">
    <path d="M 30 20 L 40 35 L 35 35 Z M 50 15 L 60 35 L 45 35 Z M 65 20 L 75 35 L 70 35 Z M 30 35 L 75 35 L 73 45 L 32 45 Z"
          fill="url(#goldGradient)" filter="url(#glow)" stroke="#B89842" stroke-width="0.5"/>
    <circle cx="40" cy="25" r="3" fill="#4FD1C5" filter="url(#glow)"/>
    <circle cx="52" cy="20" r="4" fill="#4FD1C5" filter="url(#glow)"/>
    <circle cx="65" cy="25" r="3" fill="#4FD1C5" filter="url(#glow)"/>
  </g>

  <!-- Title with shadow -->
  <text x="280" y="180" font-family="Georgia, serif" font-size="72" font-weight="bold"
        fill="url(#goldGradient)" filter="url(#shadow)">Salmon &amp; Red Caviar</text>

  <!-- Subtitle with subtle glow -->
  <text x="280" y="230" font-family="Arial, sans-serif" font-size="36"
        fill="#D6DEE6" opacity="0.95" filter="url(#softGlow)">Pacific Salmon Species Guide</text>

  <!-- Brand name with letter spacing -->
  <text x="280" y="300" font-family="Georgia, serif" font-size="32" font-weight="bold"
        fill="#CFAE58" letter-spacing="4" filter="url(#glow)">ROYAL KETA</text>

  <!-- Russian tagline -->
  <text x="280" y="340" font-family="Arial, sans-serif" font-size="22" font-style="italic"
        fill="#8B95A1" opacity="0.8">От икринки к королевской</text>

  <!-- Location -->
  <text x="280" y="380" font-family="Arial, sans-serif" font-size="20"
        fill="#8B95A1" opacity="0.7">Невельский район, Сахалин</text>

  <!-- Website with glow -->
  <text x="100" y="570" font-family="Arial, sans-serif" font-size="30" font-weight="bold"
        fill="#4FD1C5" filter="url(#glow)">royalketa.com</text>

  <!-- Enhanced decorative salmon silhouette -->
  <g transform="translate(950, 480)" opacity="0.2" filter="url(#softGlow)">
    <ellipse cx="0" cy="0" rx="90" ry="35" fill="#CFAE58"/>
    <path d="M 90 0 L 120 -18 L 130 0 L 120 18 Z" fill="#CFAE58"/>
    <path d="M -25 -35 L 0 -45 L 25 -35 Z" fill="#CFAE58"/>
    <ellipse cx="-50" cy="0" rx="15" ry="12" fill="#0B0F14"/>
  </g>

  <!-- Additional decorative caviar clusters -->
  <g opacity="0.2">
    <circle cx="1050" cy="120" r="6" fill="#CFAE58"/>
    <circle cx="1065" cy="115" r="5" fill="#CFAE58"/>
    <circle cx="1058" cy="130" r="4" fill="#CFAE58"/>
    <circle cx="150" cy="500" r="5" fill="#4FD1C5"/>
    <circle cx="165" cy="508" r="4" fill="#4FD1C5"/>
    <circle cx="140" cy="512" r="5" fill="#4FD1C5"/>
  </g>
</svg>