<svg width="1200" height="630" xmlns="http://www.w3.org/2000/svg">
  <defs>
    <linearGradient id="bgGradient" x1="0%" y1="0%" x2="100%" y2="100%">
      <stop offset="0%" style="stop-color:#0B0F14;stop-opacity:1" />
      <stop offset="50%" style="stop-color:#0F1619;stop-opacity:1" />
      <stop offset="100%" style="stop-color:#0F1922;stop-opacity:1" />
    </linearGradient>
    <linearGradient id="goldGradient" x1="0%" y1="0%" x2="100%" y2="0%">
      <stop offset="0%" style="stop-color:#E5D596;stop-opacity:1" />
      <stop offset="50%" style="stop-color:#CFAE58;stop-opacity:1" />
      <stop offset="100%" style="stop-color:#B89842;stop-opacity:1" />
    </linearGradient>
    <radialGradient id="oceanGradient" cx="50%" cy="50%" r="50%">
      <stop offset="0%" style="stop-color:#4FD1C5;stop-opacity:0.3" />
      <stop offset="100%" style="stop-color:#1E90A0;stop-opacity:0.05" />
    </radialGradient>
    <filter id="glow">
      <feGaussianBlur stdDeviation="5" result="coloredBlur"/>
      <feMerge>
        <feMergeNode in="coloredBlur"/>
        <feMergeNode in="SourceGraphic"/>
      </feMerge>
    </filter>
    <filter id="softGlow">
      <feGaussianBlur stdDeviation="8" result="coloredBlur"/>
      <feMerge>
        <feMergeNode in="coloredBlur"/>
        <feMergeNode in="SourceGraphic"/>
      </feMerge>
    </filter>
    <filter id="shadow">
      <feDropShadow dx="0" dy="4" stdDeviation="8" flood-color="#000000" flood-opacity="0.5"/>
    </filter>
  </defs>

  <!-- Background -->
  <rect width="1200" height="630" fill="url(#bgGradient)"/>

  <!-- Decorative ocean gradients -->
  <ellipse cx="1000" cy="150" rx="300" ry="200" fill="url(#oceanGradient)" opacity="0.4"/>
  <ellipse cx="200" cy="530" rx="250" ry="180" fill="url(#oceanGradient)" opacity="0.3"/>

  <!-- Wave patterns -->
  <path d="M 0 400 Q 300 350 600 400 T 1200 400 L 1200 630 L 0 630 Z" fill="#1E90A0" opacity="0.08"/>
  <path d="M 0 450 Q 250 420 500 450 T 1000 450 T 1200 450 L 1200 630 L 0 630 Z" fill="#4FD1C5" opacity="0.05"/>

  <!-- Caviar roe particles -->
  <circle cx="769.4858244060947" cy="306.2754682780289" r="3.8287447343321226" fill="#CFAE58" opacity="0.2498406046139507"/>
  <circle cx="828.1055298262199" cy="36.889298230892344" r="5.319967944516606" fill="#CFAE58" opacity="0.11631099143884849"/>
  <circle cx="623.3225289744388" cy="160.3078980968852" r="3.2697523024276895" fill="#CFAE58" opacity="0.11708556506618137"/>
  <circle cx="64.43842751675248" cy="593.7558371702456" r="5.713991197356652" fill="#CFAE58" opacity="0.16057918338906985"/>
  <circle cx="987.8363149740073" cy="532.6347613275157" r="2.1401457826914676" fill="#CFAE58" opacity="0.19206756300168243"/>
  <circle cx="368.82031306307573" cy="252.3350674509604" r="4.882388383840235" fill="#CFAE58" opacity="0.12322260094721668"/>
  <circle cx="1183.0803951554567" cy="31.055655481281743" r="4.345746708784072" fill="#CFAE58" opacity="0.17684021174929698"/>
  <circle cx="311.84525611388045" cy="442.48325009622414" r="2.008656475272719" fill="#CFAE58" opacity="0.24269391750761157"/>
  <circle cx="810.9861899362247" cy="518.0885177328738" r="5.137820585330906" fill="#CFAE58" opacity="0.11279383410053552"/>
  <circle cx="636.0479384938735" cy="218.21570147233317" r="5.09308772334778" fill="#CFAE58" opacity="0.24925052625352248"/>
  <circle cx="701.3926053001244" cy="518.2215364739459" r="2.260187312171955" fill="#CFAE58" opacity="0.13214049857875718"/>
  <circle cx="1050.9392415984676" cy="429.1108414022037" r="4.95788047300384" fill="#CFAE58" opacity="0.22065360911487455"/>
  <circle cx="840.5172635486432" cy="368.9674803551265" r="2.197333890970274" fill="#CFAE58" opacity="0.2499072742607927"/>
  <circle cx="68.68543502908615" cy="181.2926965855889" r="4.957029808690632" fill="#CFAE58" opacity="0.10687348240888188"/>
  <circle cx="785.6809711609975" cy="103.03016778346397" r="2.8977745607557326" fill="#CFAE58" opacity="0.10905830486661615"/>
  <circle cx="910.0067072378384" cy="545.8502567833494" r="5.2683042563139555" fill="#CFAE58" opacity="0.18459477325823395"/>
  <circle cx="21.766272523700447" cy="518.515226054426" r="4.650499581765693" fill="#CFAE58" opacity="0.15609568613716818"/>
  <circle cx="767.6724436751186" cy="306.0186070575948" r="4.388850345262226" fill="#CFAE58" opacity="0.2438485336418912"/>
  <circle cx="1013.821035530304" cy="461.5642380494584" r="3.169263439393201" fill="#CFAE58" opacity="0.24182845377405943"/>
  <circle cx="1195.1750670345336" cy="525.2175087386079" r="4.345140810163449" fill="#CFAE58" opacity="0.17082181989488326"/>
  <circle cx="225.05906156804184" cy="283.7196453395585" r="5.673362568612308" fill="#CFAE58" opacity="0.10074276801349741"/>
  <circle cx="131.460422841678" cy="238.56970780498895" r="3.5887647146910027" fill="#CFAE58" opacity="0.11721860339692641"/>
  <circle cx="548.1704303483451" cy="119.9080192368872" r="5.871756888016076" fill="#CFAE58" opacity="0.21509991905954598"/>
  <circle cx="290.2440627879053" cy="95.60660120061986" r="4.436659575909493" fill="#CFAE58" opacity="0.19407104460905436"/>
  <circle cx="111.31699201875111" cy="471.53674618117765" r="3.8619026524071893" fill="#CFAE58" opacity="0.21773957015938156"/>
  <circle cx="954.7277147638727" cy="177.872601130817" r="4.361413040742198" fill="#CFAE58" opacity="0.1057803542398359"/>
  <circle cx="1151.1755589843644" cy="486.46573215339225" r="3.364440633767238" fill="#CFAE58" opacity="0.21307212091256897"/>
  <circle cx="338.9043151807259" cy="593.3115791482201" r="4.752366083654629" fill="#CFAE58" opacity="0.2045514693974806"/>
  <circle cx="1104.9256667718628" cy="389.76296517335203" r="3.6625948542595603" fill="#CFAE58" opacity="0.20668549403194575"/>
  <circle cx="816.0540743107357" cy="89.95649087136043" r="3.2135132685132906" fill="#CFAE58" opacity="0.12266901691400127"/>

  <!-- Border with glow -->
  <rect x="40" y="40" width="1120" height="550" fill="none" stroke="url(#goldGradient)" stroke-width="3" rx="12" filter="url(#softGlow)"/>

  <!-- Icon circle with premium background -->
  <circle cx="150" cy="200" r="75" fill="#CFAE58" opacity="0.15" filter="url(#softGlow)"/>
  <circle cx="150" cy="200" r="70" fill="#CFAE58" opacity="0.25"/>
  <text x="150" y="235" font-size="90" text-anchor="middle" fill="#CFAE58" filter="url(#glow)">🐟</text>

  <!-- Premium logo (crown) with enhanced styling -->
  <g transform="translate(100, 70)">
    <path d="M 30 20 L 40 35 L 35 35 Z M 50 15 L 60 35 L 45 35 Z M 65 20 L 75 35 L 70 35 Z M 30 35 L 75 35 L 73 45 L 32 45 Z"
          fill="url(#goldGradient)" filter="url(#glow)" stroke="#B89842" stroke-width="0.5"/>
    <circle cx="40" cy="25" r="3" fill="#4FD1C5" filter="url(#glow)"/>
    <circle cx="52" cy="20" r="4" fill="#4FD1C5" filter="url(#glow)"/>
    <circle cx="65" cy="25" r="3" fill="#4FD1C5" filter="url(#glow)"/>
  </g>

  <!-- Title with shadow -->
  <text x="280" y="180" font-family="Georgia, serif" font-size="72" font-weight="bold"
        fill="url(#goldGradient)" filter="url(#shadow)">Salmon & Red Caviar</text>

  <!-- Subtitle with subtle glow -->
  <text x="280" y="230" font-family="Arial, sans-serif" font-size="36"
        fill="#D6DEE6" opacity="0.95" filter="url(#softGlow)">Pacific Salmon Species Guide</text>

  <!-- Brand name with letter spacing -->
  <text x="280" y="300" font-family="Georgia, serif" font-size="32" font-weight="bold"
        fill="#CFAE58" letter-spacing="4" filter="url(#glow)">ROYAL KETA</text>

  <!-- Russian tagline -->
  <text x="280" y="340" font-family="Arial, sans-serif" font-size="22" font-style="italic"
        fill="#8B95A1" opacity="0.8">От икринки к королевской</text>

  <!-- Location -->
  <text x="280" y="380" font-family="Arial, sans-serif" font-size="20"
        fill="#8B95A1" opacity="0.7">Невельский район, Сахалин</text>

  <!-- Website with glow -->
  <text x="100" y="570" font-family="Arial, sans-serif" font-size="30" font-weight="bold"
        fill="#4FD1C5" filter="url(#glow)">royalketa.com</text>

  <!-- Enhanced decorative salmon silhouette -->
  <g transform="translate(950, 480)" opacity="0.2" filter="url(#softGlow)">
    <ellipse cx="0" cy="0" rx="90" ry="35" fill="#CFAE58"/>
    <path d="M 90 0 L 120 -18 L 130 0 L 120 18 Z" fill="#CFAE58"/>
    <path d="M -25 -35 L 0 -45 L 25 -35 Z" fill="#CFAE58"/>
    <ellipse cx="-50" cy="0" rx="15" ry="12" fill="#0B0F14"/>
  </g>

  <!-- Additional decorative caviar clusters -->
  <g opacity="0.2">
    <circle cx="1050" cy="120" r="6" fill="#CFAE58"/>
    <circle cx="1065" cy="115" r="5" fill="#CFAE58"/>
    <circle cx="1058" cy="130" r="4" fill="#CFAE58"/>
    <circle cx="150" cy="500" r="5" fill="#4FD1C5"/>
    <circle cx="165" cy="508" r="4" fill="#4FD1C5"/>
    <circle cx="140" cy="512" r="5" fill="#4FD1C5"/>
  </g>
</svg>