<svg width="1200" height="630" xmlns="http://www.w3.org/2000/svg">
  <defs>
    <linearGradient id="bgGradient" x1="0%" y1="0%" x2="100%" y2="100%">
      <stop offset="0%" style="stop-color:#0B0F14;stop-opacity:1" />
      <stop offset="50%" style="stop-color:#0F1619;stop-opacity:1" />
      <stop offset="100%" style="stop-color:#0F1922;stop-opacity:1" />
    </linearGradient>
    <linearGradient id="goldGradient" x1="0%" y1="0%" x2="100%" y2="0%">
      <stop offset="0%" style="stop-color:#E5D596;stop-opacity:1" />
      <stop offset="50%" style="stop-color:#CFAE58;stop-opacity:1" />
      <stop offset="100%" style="stop-color:#B89842;stop-opacity:1" />
    </linearGradient>
    <radialGradient id="oceanGradient" cx="50%" cy="50%" r="50%">
      <stop offset="0%" style="stop-color:#4FD1C5;stop-opacity:0.3" />
      <stop offset="100%" style="stop-color:#1E90A0;stop-opacity:0.05" />
    </radialGradient>
    <filter id="glow">
      <feGaussianBlur stdDeviation="5" result="coloredBlur"/>
      <feMerge>
        <feMergeNode in="coloredBlur"/>
        <feMergeNode in="SourceGraphic"/>
      </feMerge>
    </filter>
    <filter id="softGlow">
      <feGaussianBlur stdDeviation="8" result="coloredBlur"/>
      <feMerge>
        <feMergeNode in="coloredBlur"/>
        <feMergeNode in="SourceGraphic"/>
      </feMerge>
    </filter>
    <filter id="shadow">
      <feDropShadow dx="0" dy="4" stdDeviation="8" flood-color="#000000" flood-opacity="0.5"/>
    </filter>
  </defs>

  <!-- Background -->
  <rect width="1200" height="630" fill="url(#bgGradient)"/>

  <!-- Decorative ocean gradients -->
  <ellipse cx="1000" cy="150" rx="300" ry="200" fill="url(#oceanGradient)" opacity="0.4"/>
  <ellipse cx="200" cy="530" rx="250" ry="180" fill="url(#oceanGradient)" opacity="0.3"/>

  <!-- Wave patterns -->
  <path d="M 0 400 Q 300 350 600 400 T 1200 400 L 1200 630 L 0 630 Z" fill="#1E90A0" opacity="0.08"/>
  <path d="M 0 450 Q 250 420 500 450 T 1000 450 T 1200 450 L 1200 630 L 0 630 Z" fill="#4FD1C5" opacity="0.05"/>

  <!-- Caviar roe particles -->
  <circle cx="935.9962605919304" cy="394.9982192728053" r="3.7161293234174524" fill="#CFAE58" opacity="0.22090123316796742"/>
  <circle cx="143.68039210037233" cy="470.4122764146368" r="5.1646988001463" fill="#CFAE58" opacity="0.1406755243042218"/>
  <circle cx="1081.3777558408858" cy="80.02594390963066" r="2.869070980084164" fill="#CFAE58" opacity="0.1180219418735342"/>
  <circle cx="252.45954199758137" cy="103.64078194248282" r="4.689277983938174" fill="#CFAE58" opacity="0.23850441722069526"/>
  <circle cx="319.8617958934311" cy="443.0179500289571" r="4.4133889270972535" fill="#CFAE58" opacity="0.24301745628892232"/>
  <circle cx="1015.679556949479" cy="552.8622713484497" r="2.52131133031176" fill="#CFAE58" opacity="0.22342603341949158"/>
  <circle cx="932.4652014779391" cy="607.3130735814099" r="4.576757231286952" fill="#CFAE58" opacity="0.10052570086879851"/>
  <circle cx="170.428490830277" cy="608.7403799812854" r="3.0954201614725374" fill="#CFAE58" opacity="0.20759702969117078"/>
  <circle cx="255.40363031002764" cy="142.70190991568725" r="3.9402191409346248" fill="#CFAE58" opacity="0.22739834092129563"/>
  <circle cx="174.65493679821077" cy="473.7061534461601" r="3.5328800811385817" fill="#CFAE58" opacity="0.12551756272460105"/>
  <circle cx="1009.9114352247501" cy="48.10325733390615" r="4.282635850711875" fill="#CFAE58" opacity="0.23579003928241277"/>
  <circle cx="232.48189922051097" cy="250.97429664501246" r="3.8939410100379517" fill="#CFAE58" opacity="0.19263066967408404"/>
  <circle cx="788.0418169580694" cy="466.90844826809905" r="5.870483342690596" fill="#CFAE58" opacity="0.22096239657806915"/>
  <circle cx="80.50606152405875" cy="230.19307398368326" r="5.9673250639887225" fill="#CFAE58" opacity="0.13295037618585967"/>
  <circle cx="84.43319937759748" cy="356.7032873281372" r="3.3449010045989143" fill="#CFAE58" opacity="0.2478142898515754"/>
  <circle cx="1141.1558172559621" cy="160.83199179272412" r="3.9432896645033875" fill="#CFAE58" opacity="0.1460800370873473"/>
  <circle cx="855.0938870217444" cy="559.2006658069498" r="2.7128817901204156" fill="#CFAE58" opacity="0.11929663296027285"/>
  <circle cx="931.0806936476527" cy="301.0386114333998" r="3.8229898369845996" fill="#CFAE58" opacity="0.19304927402708955"/>
  <circle cx="1164.9633513086328" cy="375.2536148482058" r="5.194335782104669" fill="#CFAE58" opacity="0.24666189577085093"/>
  <circle cx="733.7411880487349" cy="182.00334502909718" r="5.328324795699519" fill="#CFAE58" opacity="0.19995624206798845"/>
  <circle cx="68.73799930101035" cy="132.59694444625413" r="3.808593885124906" fill="#CFAE58" opacity="0.16247269227749492"/>
  <circle cx="445.7926189160242" cy="457.2800499606208" r="3.155394880530693" fill="#CFAE58" opacity="0.2200427872822568"/>
  <circle cx="31.091525154100452" cy="468.4437830262702" r="2.557810595808193" fill="#CFAE58" opacity="0.24892175894388147"/>
  <circle cx="69.44801693475107" cy="364.4435594550981" r="2.6883009500668678" fill="#CFAE58" opacity="0.19217851422453042"/>
  <circle cx="584.6575933876993" cy="289.3158859494964" r="3.4437185922855793" fill="#CFAE58" opacity="0.10452581967454491"/>
  <circle cx="1160.2554807540648" cy="361.265548882965" r="2.7971612630436677" fill="#CFAE58" opacity="0.24527068143804076"/>
  <circle cx="858.0413035460991" cy="123.33920514625213" r="4.329216510084468" fill="#CFAE58" opacity="0.24463564133101245"/>
  <circle cx="373.6245880779421" cy="20.774801477581008" r="5.087317232648327" fill="#CFAE58" opacity="0.23120134598939668"/>
  <circle cx="428.28976874631985" cy="371.34727287390973" r="2.4194573599660743" fill="#CFAE58" opacity="0.11811005306675926"/>
  <circle cx="298.4616612694953" cy="412.39685318078097" r="2.6363614509039666" fill="#CFAE58" opacity="0.10187678719652976"/>

  <!-- Border with glow -->
  <rect x="40" y="40" width="1120" height="550" fill="none" stroke="url(#goldGradient)" stroke-width="3" rx="12" filter="url(#softGlow)"/>

  <!-- Icon circle with premium background -->
  <circle cx="150" cy="200" r="75" fill="#CFAE58" opacity="0.15" filter="url(#softGlow)"/>
  <circle cx="150" cy="200" r="70" fill="#CFAE58" opacity="0.25"/>
  <text x="150" y="235" font-size="90" text-anchor="middle" fill="#CFAE58" filter="url(#glow)">🐟</text>

  <!-- Premium logo (crown) with enhanced styling -->
  <g transform="translate(100, 70)">
    <path d="M 30 20 L 40 35 L 35 35 Z M 50 15 L 60 35 L 45 35 Z M 65 20 L 75 35 L 70 35 Z M 30 35 L 75 35 L 73 45 L 32 45 Z"
          fill="url(#goldGradient)" filter="url(#glow)" stroke="#B89842" stroke-width="0.5"/>
    <circle cx="40" cy="25" r="3" fill="#4FD1C5" filter="url(#glow)"/>
    <circle cx="52" cy="20" r="4" fill="#4FD1C5" filter="url(#glow)"/>
    <circle cx="65" cy="25" r="3" fill="#4FD1C5" filter="url(#glow)"/>
  </g>

  <!-- Title with shadow -->
  <text x="280" y="180" font-family="Georgia, serif" font-size="72" font-weight="bold"
        fill="url(#goldGradient)" filter="url(#shadow)">Salmon &amp; Red Caviar</text>

  <!-- Subtitle with subtle glow -->
  <text x="280" y="230" font-family="Arial, sans-serif" font-size="36"
        fill="#D6DEE6" opacity="0.95" filter="url(#softGlow)">Pacific Salmon Species Guide</text>

  <!-- Brand name with letter spacing -->
  <text x="280" y="300" font-family="Georgia, serif" font-size="32" font-weight="bold"
        fill="#CFAE58" letter-spacing="4" filter="url(#glow)">ROYAL KETA</text>

  <!-- Russian tagline -->
  <text x="280" y="340" font-family="Arial, sans-serif" font-size="22" font-style="italic"
        fill="#8B95A1" opacity="0.8">От икринки к королевской</text>

  <!-- Location -->
  <text x="280" y="380" font-family="Arial, sans-serif" font-size="20"
        fill="#8B95A1" opacity="0.7">Невельский район, Сахалин</text>

  <!-- Website with glow -->
  <text x="100" y="570" font-family="Arial, sans-serif" font-size="30" font-weight="bold"
        fill="#4FD1C5" filter="url(#glow)">royalketa.com</text>

  <!-- Enhanced decorative salmon silhouette -->
  <g transform="translate(950, 480)" opacity="0.2" filter="url(#softGlow)">
    <ellipse cx="0" cy="0" rx="90" ry="35" fill="#CFAE58"/>
    <path d="M 90 0 L 120 -18 L 130 0 L 120 18 Z" fill="#CFAE58"/>
    <path d="M -25 -35 L 0 -45 L 25 -35 Z" fill="#CFAE58"/>
    <ellipse cx="-50" cy="0" rx="15" ry="12" fill="#0B0F14"/>
  </g>

  <!-- Additional decorative caviar clusters -->
  <g opacity="0.2">
    <circle cx="1050" cy="120" r="6" fill="#CFAE58"/>
    <circle cx="1065" cy="115" r="5" fill="#CFAE58"/>
    <circle cx="1058" cy="130" r="4" fill="#CFAE58"/>
    <circle cx="150" cy="500" r="5" fill="#4FD1C5"/>
    <circle cx="165" cy="508" r="4" fill="#4FD1C5"/>
    <circle cx="140" cy="512" r="5" fill="#4FD1C5"/>
  </g>
</svg>