<svg width="1200" height="630" xmlns="http://www.w3.org/2000/svg">
  <defs>
    <linearGradient id="bgGradient" x1="0%" y1="0%" x2="100%" y2="100%">
      <stop offset="0%" style="stop-color:#0B0F14;stop-opacity:1" />
      <stop offset="50%" style="stop-color:#0F1619;stop-opacity:1" />
      <stop offset="100%" style="stop-color:#0F1922;stop-opacity:1" />
    </linearGradient>
    <linearGradient id="goldGradient" x1="0%" y1="0%" x2="100%" y2="0%">
      <stop offset="0%" style="stop-color:#E5D596;stop-opacity:1" />
      <stop offset="50%" style="stop-color:#CFAE58;stop-opacity:1" />
      <stop offset="100%" style="stop-color:#B89842;stop-opacity:1" />
    </linearGradient>
    <radialGradient id="oceanGradient" cx="50%" cy="50%" r="50%">
      <stop offset="0%" style="stop-color:#4FD1C5;stop-opacity:0.3" />
      <stop offset="100%" style="stop-color:#1E90A0;stop-opacity:0.05" />
    </radialGradient>
    <filter id="glow">
      <feGaussianBlur stdDeviation="5" result="coloredBlur"/>
      <feMerge>
        <feMergeNode in="coloredBlur"/>
        <feMergeNode in="SourceGraphic"/>
      </feMerge>
    </filter>
    <filter id="softGlow">
      <feGaussianBlur stdDeviation="8" result="coloredBlur"/>
      <feMerge>
        <feMergeNode in="coloredBlur"/>
        <feMergeNode in="SourceGraphic"/>
      </feMerge>
    </filter>
    <filter id="shadow">
      <feDropShadow dx="0" dy="4" stdDeviation="8" flood-color="#000000" flood-opacity="0.5"/>
    </filter>
  </defs>

  <!-- Background -->
  <rect width="1200" height="630" fill="url(#bgGradient)"/>

  <!-- Decorative ocean gradients -->
  <ellipse cx="1000" cy="150" rx="300" ry="200" fill="url(#oceanGradient)" opacity="0.4"/>
  <ellipse cx="200" cy="530" rx="250" ry="180" fill="url(#oceanGradient)" opacity="0.3"/>

  <!-- Wave patterns -->
  <path d="M 0 400 Q 300 350 600 400 T 1200 400 L 1200 630 L 0 630 Z" fill="#1E90A0" opacity="0.08"/>
  <path d="M 0 450 Q 250 420 500 450 T 1000 450 T 1200 450 L 1200 630 L 0 630 Z" fill="#4FD1C5" opacity="0.05"/>

  <!-- Caviar roe particles -->
  <circle cx="207.4210674904978" cy="626.244908241259" r="5.722471826666373" fill="#CFAE58" opacity="0.18646382418220644"/>
  <circle cx="759.4140349039167" cy="341.5056766319575" r="5.161415998968246" fill="#CFAE58" opacity="0.11329938178914856"/>
  <circle cx="383.8815523384312" cy="390.08847308964124" r="4.310800724679936" fill="#CFAE58" opacity="0.2399885455769013"/>
  <circle cx="920.804747282381" cy="511.22070477995067" r="5.222448240902249" fill="#CFAE58" opacity="0.15699197729791098"/>
  <circle cx="707.9598742207105" cy="507.6501617263709" r="5.94733793638846" fill="#CFAE58" opacity="0.24320243791872043"/>
  <circle cx="924.8696998889926" cy="16.610893822961767" r="5.0682430410504935" fill="#CFAE58" opacity="0.18072088885609044"/>
  <circle cx="1189.1415150102637" cy="389.73264531564166" r="3.1761832995565333" fill="#CFAE58" opacity="0.2128435745992553"/>
  <circle cx="1026.829764732261" cy="129.866362400896" r="5.640874875357016" fill="#CFAE58" opacity="0.13640551370650578"/>
  <circle cx="955.7669323406321" cy="484.743944546859" r="2.275473651923103" fill="#CFAE58" opacity="0.21431932604822723"/>
  <circle cx="550.1224502393159" cy="39.78119964163432" r="2.907821356200884" fill="#CFAE58" opacity="0.1870015932910451"/>
  <circle cx="1136.9805855244613" cy="286.4664835574423" r="2.407947832617219" fill="#CFAE58" opacity="0.22229483268181555"/>
  <circle cx="611.7674277246496" cy="129.80471996694106" r="5.124367449037369" fill="#CFAE58" opacity="0.17896309719889913"/>
  <circle cx="271.1470767166115" cy="135.89594420656834" r="4.01264455576676" fill="#CFAE58" opacity="0.23455366471299607"/>
  <circle cx="239.2841344940927" cy="536.2013957094277" r="2.286618219172283" fill="#CFAE58" opacity="0.16821134238479724"/>
  <circle cx="339.78126249859156" cy="610.8193448386987" r="4.507626563692722" fill="#CFAE58" opacity="0.23492034809059226"/>
  <circle cx="294.0462785894954" cy="171.6614767200853" r="5.529961397064691" fill="#CFAE58" opacity="0.11009348703587345"/>
  <circle cx="207.23174041254023" cy="280.9373527490285" r="4.935953568634601" fill="#CFAE58" opacity="0.18081660718681053"/>
  <circle cx="1174.1563486680432" cy="513.2845593887856" r="3.5280748813372895" fill="#CFAE58" opacity="0.16329701897044607"/>
  <circle cx="146.85159768793542" cy="144.92046133959627" r="3.4425308590659984" fill="#CFAE58" opacity="0.21466541250787513"/>
  <circle cx="799.0871728941391" cy="299.4372487513746" r="3.125084690435373" fill="#CFAE58" opacity="0.12005144494458897"/>
  <circle cx="642.7028971620963" cy="587.9201521483067" r="5.052422353301772" fill="#CFAE58" opacity="0.17758775347651132"/>
  <circle cx="629.662764848673" cy="577.51806764348" r="2.1281797379151284" fill="#CFAE58" opacity="0.23843231304932958"/>
  <circle cx="325.7700389448379" cy="373.76466449438726" r="2.135452676952351" fill="#CFAE58" opacity="0.14373421971080774"/>
  <circle cx="780.2146757837825" cy="508.5976403774994" r="4.25576303997747" fill="#CFAE58" opacity="0.2306275576367695"/>
  <circle cx="608.2613196749778" cy="9.037033073396572" r="2.491487795690351" fill="#CFAE58" opacity="0.12979943477630693"/>
  <circle cx="271.2043876507115" cy="453.360796101727" r="3.68438716639384" fill="#CFAE58" opacity="0.1991882052293629"/>
  <circle cx="3.8586272025365353" cy="373.1955424603106" r="3.7535461919413153" fill="#CFAE58" opacity="0.15242105267769945"/>
  <circle cx="855.5452286001629" cy="115.8080893682343" r="4.262533205152135" fill="#CFAE58" opacity="0.24556593799569149"/>
  <circle cx="703.0502432681935" cy="479.65228536492606" r="4.439797779940819" fill="#CFAE58" opacity="0.13913786607029205"/>
  <circle cx="71.14832201907069" cy="275.9093537968912" r="4.590031554828724" fill="#CFAE58" opacity="0.1122723535530524"/>

  <!-- Border with glow -->
  <rect x="40" y="40" width="1120" height="550" fill="none" stroke="url(#goldGradient)" stroke-width="3" rx="12" filter="url(#softGlow)"/>

  <!-- Icon circle with premium background -->
  <circle cx="150" cy="200" r="75" fill="#CFAE58" opacity="0.15" filter="url(#softGlow)"/>
  <circle cx="150" cy="200" r="70" fill="#CFAE58" opacity="0.25"/>
  <text x="150" y="235" font-size="90" text-anchor="middle" fill="#CFAE58" filter="url(#glow)">🐟</text>

  <!-- Premium logo (crown) with enhanced styling -->
  <g transform="translate(100, 70)">
    <path d="M 30 20 L 40 35 L 35 35 Z M 50 15 L 60 35 L 45 35 Z M 65 20 L 75 35 L 70 35 Z M 30 35 L 75 35 L 73 45 L 32 45 Z"
          fill="url(#goldGradient)" filter="url(#glow)" stroke="#B89842" stroke-width="0.5"/>
    <circle cx="40" cy="25" r="3" fill="#4FD1C5" filter="url(#glow)"/>
    <circle cx="52" cy="20" r="4" fill="#4FD1C5" filter="url(#glow)"/>
    <circle cx="65" cy="25" r="3" fill="#4FD1C5" filter="url(#glow)"/>
  </g>

  <!-- Title with shadow -->
  <text x="280" y="180" font-family="Georgia, serif" font-size="72" font-weight="bold"
        fill="url(#goldGradient)" filter="url(#shadow)">Salmon & Red Caviar</text>

  <!-- Subtitle with subtle glow -->
  <text x="280" y="230" font-family="Arial, sans-serif" font-size="36"
        fill="#D6DEE6" opacity="0.95" filter="url(#softGlow)">Pacific Salmon Species Guide</text>

  <!-- Brand name with letter spacing -->
  <text x="280" y="300" font-family="Georgia, serif" font-size="32" font-weight="bold"
        fill="#CFAE58" letter-spacing="4" filter="url(#glow)">ROYAL KETA</text>

  <!-- Russian tagline -->
  <text x="280" y="340" font-family="Arial, sans-serif" font-size="22" font-style="italic"
        fill="#8B95A1" opacity="0.8">От икринки к королевской</text>

  <!-- Location -->
  <text x="280" y="380" font-family="Arial, sans-serif" font-size="20"
        fill="#8B95A1" opacity="0.7">Невельский район, Сахалин</text>

  <!-- Website with glow -->
  <text x="100" y="570" font-family="Arial, sans-serif" font-size="30" font-weight="bold"
        fill="#4FD1C5" filter="url(#glow)">royalketa.com</text>

  <!-- Enhanced decorative salmon silhouette -->
  <g transform="translate(950, 480)" opacity="0.2" filter="url(#softGlow)">
    <ellipse cx="0" cy="0" rx="90" ry="35" fill="#CFAE58"/>
    <path d="M 90 0 L 120 -18 L 130 0 L 120 18 Z" fill="#CFAE58"/>
    <path d="M -25 -35 L 0 -45 L 25 -35 Z" fill="#CFAE58"/>
    <ellipse cx="-50" cy="0" rx="15" ry="12" fill="#0B0F14"/>
  </g>

  <!-- Additional decorative caviar clusters -->
  <g opacity="0.2">
    <circle cx="1050" cy="120" r="6" fill="#CFAE58"/>
    <circle cx="1065" cy="115" r="5" fill="#CFAE58"/>
    <circle cx="1058" cy="130" r="4" fill="#CFAE58"/>
    <circle cx="150" cy="500" r="5" fill="#4FD1C5"/>
    <circle cx="165" cy="508" r="4" fill="#4FD1C5"/>
    <circle cx="140" cy="512" r="5" fill="#4FD1C5"/>
  </g>
</svg>