<svg width="1200" height="630" xmlns="http://www.w3.org/2000/svg">
  <defs>
    <linearGradient id="bgGradient" x1="0%" y1="0%" x2="100%" y2="100%">
      <stop offset="0%" style="stop-color:#0B0F14;stop-opacity:1" />
      <stop offset="50%" style="stop-color:#0F1619;stop-opacity:1" />
      <stop offset="100%" style="stop-color:#0F1922;stop-opacity:1" />
    </linearGradient>
    <linearGradient id="goldGradient" x1="0%" y1="0%" x2="100%" y2="0%">
      <stop offset="0%" style="stop-color:#E5D596;stop-opacity:1" />
      <stop offset="50%" style="stop-color:#CFAE58;stop-opacity:1" />
      <stop offset="100%" style="stop-color:#B89842;stop-opacity:1" />
    </linearGradient>
    <radialGradient id="oceanGradient" cx="50%" cy="50%" r="50%">
      <stop offset="0%" style="stop-color:#4FD1C5;stop-opacity:0.3" />
      <stop offset="100%" style="stop-color:#1E90A0;stop-opacity:0.05" />
    </radialGradient>
    <filter id="glow">
      <feGaussianBlur stdDeviation="5" result="coloredBlur"/>
      <feMerge>
        <feMergeNode in="coloredBlur"/>
        <feMergeNode in="SourceGraphic"/>
      </feMerge>
    </filter>
    <filter id="softGlow">
      <feGaussianBlur stdDeviation="8" result="coloredBlur"/>
      <feMerge>
        <feMergeNode in="coloredBlur"/>
        <feMergeNode in="SourceGraphic"/>
      </feMerge>
    </filter>
    <filter id="shadow">
      <feDropShadow dx="0" dy="4" stdDeviation="8" flood-color="#000000" flood-opacity="0.5"/>
    </filter>
  </defs>

  <!-- Background -->
  <rect width="1200" height="630" fill="url(#bgGradient)"/>

  <!-- Decorative ocean gradients -->
  <ellipse cx="1000" cy="150" rx="300" ry="200" fill="url(#oceanGradient)" opacity="0.4"/>
  <ellipse cx="200" cy="530" rx="250" ry="180" fill="url(#oceanGradient)" opacity="0.3"/>

  <!-- Wave patterns -->
  <path d="M 0 400 Q 300 350 600 400 T 1200 400 L 1200 630 L 0 630 Z" fill="#1E90A0" opacity="0.08"/>
  <path d="M 0 450 Q 250 420 500 450 T 1000 450 T 1200 450 L 1200 630 L 0 630 Z" fill="#4FD1C5" opacity="0.05"/>

  <!-- Caviar roe particles -->
  <circle cx="503.41112138194603" cy="365.1978236667133" r="5.110791787668104" fill="#CFAE58" opacity="0.11048774588259846"/>
  <circle cx="123.76281726413421" cy="368.5650908341791" r="5.545324052261365" fill="#CFAE58" opacity="0.24300067745048104"/>
  <circle cx="608.1461321610992" cy="215.6390576508382" r="4.614412995884395" fill="#CFAE58" opacity="0.11605893827361688"/>
  <circle cx="188.00634078476733" cy="565.6302652618912" r="3.0741975483510737" fill="#CFAE58" opacity="0.15178671430601431"/>
  <circle cx="484.1561054386752" cy="399.60506165918235" r="4.09054815934803" fill="#CFAE58" opacity="0.1592315660837252"/>
  <circle cx="628.2648184459282" cy="146.07639578368816" r="5.563626455711967" fill="#CFAE58" opacity="0.21191153016752973"/>
  <circle cx="118.77340286620499" cy="369.8797920686625" r="5.069099089990284" fill="#CFAE58" opacity="0.219614892314443"/>
  <circle cx="340.9073715735465" cy="559.2526585599016" r="4.905316863285853" fill="#CFAE58" opacity="0.10175147077330335"/>
  <circle cx="614.5459011714767" cy="451.49042299846275" r="5.586187753652599" fill="#CFAE58" opacity="0.2057904881305645"/>
  <circle cx="705.8675450914673" cy="438.45164118632437" r="5.991394452378228" fill="#CFAE58" opacity="0.14879144044437803"/>
  <circle cx="805.0812765742211" cy="456.0596981056802" r="4.919528320958384" fill="#CFAE58" opacity="0.22125086430943272"/>
  <circle cx="166.1546717966726" cy="347.2828599824883" r="2.9230530662417866" fill="#CFAE58" opacity="0.22292750606619283"/>
  <circle cx="294.01276954724483" cy="144.17592382948425" r="5.683014839148672" fill="#CFAE58" opacity="0.1468932122791337"/>
  <circle cx="897.4326637170727" cy="563.1616078186526" r="2.4053078933242045" fill="#CFAE58" opacity="0.2166636328844807"/>
  <circle cx="1193.649119310697" cy="392.852356289817" r="3.601517214387219" fill="#CFAE58" opacity="0.2007894456760025"/>
  <circle cx="30.255717803659277" cy="521.1233031176229" r="2.0520414540268392" fill="#CFAE58" opacity="0.2186228413296353"/>
  <circle cx="288.8663228896247" cy="357.14185754707523" r="2.519894863984585" fill="#CFAE58" opacity="0.11965287750209244"/>
  <circle cx="61.60713019879407" cy="308.79405753366666" r="2.871438636643689" fill="#CFAE58" opacity="0.19984960934428392"/>
  <circle cx="99.94504954509544" cy="185.26928205101947" r="2.622002351710224" fill="#CFAE58" opacity="0.10017522737332975"/>
  <circle cx="90.07118309399544" cy="500.5841757946251" r="3.2297127673923827" fill="#CFAE58" opacity="0.1269736290784833"/>
  <circle cx="333.59529798965787" cy="8.923107637321529" r="5.585100952481856" fill="#CFAE58" opacity="0.18210580499941792"/>
  <circle cx="604.1699284833282" cy="377.4035999950043" r="5.885665835976617" fill="#CFAE58" opacity="0.23821769129023723"/>
  <circle cx="356.7332800381276" cy="296.4277529855086" r="4.2243693958911415" fill="#CFAE58" opacity="0.15145942508096233"/>
  <circle cx="50.66296937948138" cy="210.3264952562918" r="5.105336474286824" fill="#CFAE58" opacity="0.23280801372958856"/>
  <circle cx="507.0980475643703" cy="622.2941328764349" r="5.514471262907273" fill="#CFAE58" opacity="0.2026877945837085"/>
  <circle cx="533.2426420062008" cy="143.72503558418782" r="3.1074309596235263" fill="#CFAE58" opacity="0.10778118570470743"/>
  <circle cx="41.81317275252643" cy="604.149937945741" r="4.649278797390003" fill="#CFAE58" opacity="0.11938433334458183"/>
  <circle cx="440.42727952533824" cy="149.8259612936419" r="2.1891281251890704" fill="#CFAE58" opacity="0.11746277528907835"/>
  <circle cx="380.01955910817895" cy="314.07374878641366" r="4.144218757220695" fill="#CFAE58" opacity="0.11253261965066473"/>
  <circle cx="7.635157169183859" cy="531.1127722333631" r="2.638153073660541" fill="#CFAE58" opacity="0.11525711825084126"/>

  <!-- Border with glow -->
  <rect x="40" y="40" width="1120" height="550" fill="none" stroke="url(#goldGradient)" stroke-width="3" rx="12" filter="url(#softGlow)"/>

  <!-- Icon circle with premium background -->
  <circle cx="150" cy="200" r="75" fill="#CFAE58" opacity="0.15" filter="url(#softGlow)"/>
  <circle cx="150" cy="200" r="70" fill="#CFAE58" opacity="0.25"/>
  <text x="150" y="235" font-size="90" text-anchor="middle" fill="#CFAE58" filter="url(#glow)">🐟</text>

  <!-- Premium logo (crown) with enhanced styling -->
  <g transform="translate(100, 70)">
    <path d="M 30 20 L 40 35 L 35 35 Z M 50 15 L 60 35 L 45 35 Z M 65 20 L 75 35 L 70 35 Z M 30 35 L 75 35 L 73 45 L 32 45 Z"
          fill="url(#goldGradient)" filter="url(#glow)" stroke="#B89842" stroke-width="0.5"/>
    <circle cx="40" cy="25" r="3" fill="#4FD1C5" filter="url(#glow)"/>
    <circle cx="52" cy="20" r="4" fill="#4FD1C5" filter="url(#glow)"/>
    <circle cx="65" cy="25" r="3" fill="#4FD1C5" filter="url(#glow)"/>
  </g>

  <!-- Title with shadow -->
  <text x="280" y="180" font-family="Georgia, serif" font-size="72" font-weight="bold"
        fill="url(#goldGradient)" filter="url(#shadow)">Salmon &amp; Red Caviar</text>

  <!-- Subtitle with subtle glow -->
  <text x="280" y="230" font-family="Arial, sans-serif" font-size="36"
        fill="#D6DEE6" opacity="0.95" filter="url(#softGlow)">Pacific Salmon Species Guide</text>

  <!-- Brand name with letter spacing -->
  <text x="280" y="300" font-family="Georgia, serif" font-size="32" font-weight="bold"
        fill="#CFAE58" letter-spacing="4" filter="url(#glow)">ROYAL KETA</text>

  <!-- Russian tagline -->
  <text x="280" y="340" font-family="Arial, sans-serif" font-size="22" font-style="italic"
        fill="#8B95A1" opacity="0.8">От икринки к королевской</text>

  <!-- Location -->
  <text x="280" y="380" font-family="Arial, sans-serif" font-size="20"
        fill="#8B95A1" opacity="0.7">Невельский район, Сахалин</text>

  <!-- Website with glow -->
  <text x="100" y="570" font-family="Arial, sans-serif" font-size="30" font-weight="bold"
        fill="#4FD1C5" filter="url(#glow)">royalketa.com</text>

  <!-- Enhanced decorative salmon silhouette -->
  <g transform="translate(950, 480)" opacity="0.2" filter="url(#softGlow)">
    <ellipse cx="0" cy="0" rx="90" ry="35" fill="#CFAE58"/>
    <path d="M 90 0 L 120 -18 L 130 0 L 120 18 Z" fill="#CFAE58"/>
    <path d="M -25 -35 L 0 -45 L 25 -35 Z" fill="#CFAE58"/>
    <ellipse cx="-50" cy="0" rx="15" ry="12" fill="#0B0F14"/>
  </g>

  <!-- Additional decorative caviar clusters -->
  <g opacity="0.2">
    <circle cx="1050" cy="120" r="6" fill="#CFAE58"/>
    <circle cx="1065" cy="115" r="5" fill="#CFAE58"/>
    <circle cx="1058" cy="130" r="4" fill="#CFAE58"/>
    <circle cx="150" cy="500" r="5" fill="#4FD1C5"/>
    <circle cx="165" cy="508" r="4" fill="#4FD1C5"/>
    <circle cx="140" cy="512" r="5" fill="#4FD1C5"/>
  </g>
</svg>