<svg width="1200" height="630" xmlns="http://www.w3.org/2000/svg">
  <defs>
    <linearGradient id="bgGradient" x1="0%" y1="0%" x2="100%" y2="100%">
      <stop offset="0%" style="stop-color:#0B0F14;stop-opacity:1" />
      <stop offset="50%" style="stop-color:#0F1619;stop-opacity:1" />
      <stop offset="100%" style="stop-color:#0F1922;stop-opacity:1" />
    </linearGradient>
    <linearGradient id="goldGradient" x1="0%" y1="0%" x2="100%" y2="0%">
      <stop offset="0%" style="stop-color:#E5D596;stop-opacity:1" />
      <stop offset="50%" style="stop-color:#CFAE58;stop-opacity:1" />
      <stop offset="100%" style="stop-color:#B89842;stop-opacity:1" />
    </linearGradient>
    <radialGradient id="oceanGradient" cx="50%" cy="50%" r="50%">
      <stop offset="0%" style="stop-color:#4FD1C5;stop-opacity:0.3" />
      <stop offset="100%" style="stop-color:#1E90A0;stop-opacity:0.05" />
    </radialGradient>
    <filter id="glow">
      <feGaussianBlur stdDeviation="5" result="coloredBlur"/>
      <feMerge>
        <feMergeNode in="coloredBlur"/>
        <feMergeNode in="SourceGraphic"/>
      </feMerge>
    </filter>
    <filter id="softGlow">
      <feGaussianBlur stdDeviation="8" result="coloredBlur"/>
      <feMerge>
        <feMergeNode in="coloredBlur"/>
        <feMergeNode in="SourceGraphic"/>
      </feMerge>
    </filter>
    <filter id="shadow">
      <feDropShadow dx="0" dy="4" stdDeviation="8" flood-color="#000000" flood-opacity="0.5"/>
    </filter>
  </defs>

  <!-- Background -->
  <rect width="1200" height="630" fill="url(#bgGradient)"/>

  <!-- Decorative ocean gradients -->
  <ellipse cx="1000" cy="150" rx="300" ry="200" fill="url(#oceanGradient)" opacity="0.4"/>
  <ellipse cx="200" cy="530" rx="250" ry="180" fill="url(#oceanGradient)" opacity="0.3"/>

  <!-- Wave patterns -->
  <path d="M 0 400 Q 300 350 600 400 T 1200 400 L 1200 630 L 0 630 Z" fill="#1E90A0" opacity="0.08"/>
  <path d="M 0 450 Q 250 420 500 450 T 1000 450 T 1200 450 L 1200 630 L 0 630 Z" fill="#4FD1C5" opacity="0.05"/>

  <!-- Caviar roe particles -->
  <circle cx="947.748302700603" cy="161.09070941515805" r="5.62639111895057" fill="#CFAE58" opacity="0.12791141616809418"/>
  <circle cx="813.7638208537008" cy="278.5852108141153" r="2.5307922313342175" fill="#CFAE58" opacity="0.1663930797145911"/>
  <circle cx="532.0545858962338" cy="520.29653320593" r="5.8176519101940025" fill="#CFAE58" opacity="0.16610962766602527"/>
  <circle cx="960.3663372269078" cy="348.63250160957347" r="4.844609244292758" fill="#CFAE58" opacity="0.17933533914107797"/>
  <circle cx="112.43107090430398" cy="490.3930421168104" r="5.676826111798589" fill="#CFAE58" opacity="0.13298208855801982"/>
  <circle cx="275.68372439293995" cy="133.05030695203976" r="4.622793039505623" fill="#CFAE58" opacity="0.15620491752542137"/>
  <circle cx="1181.0826322556302" cy="583.7014568040519" r="2.599832148718395" fill="#CFAE58" opacity="0.2307002916185824"/>
  <circle cx="837.206310758515" cy="590.920572008242" r="2.4194676137754065" fill="#CFAE58" opacity="0.12906259042499288"/>
  <circle cx="635.9242451801884" cy="504.80149303084795" r="4.1362398903720345" fill="#CFAE58" opacity="0.138982439538704"/>
  <circle cx="374.6042522606916" cy="599.0361815866329" r="5.694108160070759" fill="#CFAE58" opacity="0.20214008735541444"/>
  <circle cx="1018.0411728521029" cy="555.9498430014957" r="5.91000783999305" fill="#CFAE58" opacity="0.20916189488005893"/>
  <circle cx="187.82921901823784" cy="329.82203246150243" r="4.305197353679707" fill="#CFAE58" opacity="0.14037449332529525"/>
  <circle cx="52.547906949235035" cy="232.8868355583155" r="2.7027895328164933" fill="#CFAE58" opacity="0.19813573061093798"/>
  <circle cx="868.8753889061628" cy="311.79197760301105" r="2.3989176124585168" fill="#CFAE58" opacity="0.1778551916534068"/>
  <circle cx="1167.4208724850207" cy="575.8266740649436" r="3.6221544577369764" fill="#CFAE58" opacity="0.11676850151524851"/>
  <circle cx="287.14589219067824" cy="531.5274996442935" r="2.397296882821135" fill="#CFAE58" opacity="0.18805231476503928"/>
  <circle cx="534.9479182846587" cy="481.6982612825091" r="2.9688809209178055" fill="#CFAE58" opacity="0.22808812534023537"/>
  <circle cx="221.91721860904227" cy="302.3574712375101" r="5.283976330712714" fill="#CFAE58" opacity="0.13043230066547487"/>
  <circle cx="1043.654429619482" cy="307.7686351833635" r="3.4565172169637153" fill="#CFAE58" opacity="0.16033184426900143"/>
  <circle cx="1065.544773952836" cy="50.68260281648059" r="4.405170645845819" fill="#CFAE58" opacity="0.24118297976827308"/>
  <circle cx="13.79176448521875" cy="160.86131112847195" r="2.115532526341581" fill="#CFAE58" opacity="0.10308356160375898"/>
  <circle cx="1024.4287271096596" cy="62.78550720103216" r="4.352866332257777" fill="#CFAE58" opacity="0.11623447383534713"/>
  <circle cx="1065.0707860047457" cy="340.11912492539983" r="3.015946462804288" fill="#CFAE58" opacity="0.16058215510545648"/>
  <circle cx="777.3062488237979" cy="501.15932015534685" r="2.933938662896841" fill="#CFAE58" opacity="0.23256271013736404"/>
  <circle cx="122.65659784373311" cy="412.59225674008087" r="2.3834040854950045" fill="#CFAE58" opacity="0.12424267389529854"/>
  <circle cx="1181.2476810979126" cy="87.29583563415018" r="3.8902977118117255" fill="#CFAE58" opacity="0.24805294250958687"/>
  <circle cx="527.2032671722053" cy="112.55894866314821" r="5.6952413054702085" fill="#CFAE58" opacity="0.21302585609870267"/>
  <circle cx="1041.0073682081272" cy="228.727292111556" r="3.4284524201507818" fill="#CFAE58" opacity="0.11218906776115757"/>
  <circle cx="851.7384938416346" cy="156.3100333215982" r="4.648346013030873" fill="#CFAE58" opacity="0.10477634585882006"/>
  <circle cx="1039.4158584428778" cy="142.63253114703824" r="4.412388082917117" fill="#CFAE58" opacity="0.11435517789317841"/>

  <!-- Border with glow -->
  <rect x="40" y="40" width="1120" height="550" fill="none" stroke="url(#goldGradient)" stroke-width="3" rx="12" filter="url(#softGlow)"/>

  <!-- Icon circle with premium background -->
  <circle cx="150" cy="200" r="75" fill="#CFAE58" opacity="0.15" filter="url(#softGlow)"/>
  <circle cx="150" cy="200" r="70" fill="#CFAE58" opacity="0.25"/>
  <text x="150" y="235" font-size="90" text-anchor="middle" fill="#CFAE58" filter="url(#glow)">🐟</text>

  <!-- Premium logo (crown) with enhanced styling -->
  <g transform="translate(100, 70)">
    <path d="M 30 20 L 40 35 L 35 35 Z M 50 15 L 60 35 L 45 35 Z M 65 20 L 75 35 L 70 35 Z M 30 35 L 75 35 L 73 45 L 32 45 Z"
          fill="url(#goldGradient)" filter="url(#glow)" stroke="#B89842" stroke-width="0.5"/>
    <circle cx="40" cy="25" r="3" fill="#4FD1C5" filter="url(#glow)"/>
    <circle cx="52" cy="20" r="4" fill="#4FD1C5" filter="url(#glow)"/>
    <circle cx="65" cy="25" r="3" fill="#4FD1C5" filter="url(#glow)"/>
  </g>

  <!-- Title with shadow -->
  <text x="280" y="180" font-family="Georgia, serif" font-size="72" font-weight="bold"
        fill="url(#goldGradient)" filter="url(#shadow)">Salmon &amp; Red Caviar</text>

  <!-- Subtitle with subtle glow -->
  <text x="280" y="230" font-family="Arial, sans-serif" font-size="36"
        fill="#D6DEE6" opacity="0.95" filter="url(#softGlow)">Pacific Salmon Species Guide</text>

  <!-- Brand name with letter spacing -->
  <text x="280" y="300" font-family="Georgia, serif" font-size="32" font-weight="bold"
        fill="#CFAE58" letter-spacing="4" filter="url(#glow)">ROYAL KETA</text>

  <!-- Russian tagline -->
  <text x="280" y="340" font-family="Arial, sans-serif" font-size="22" font-style="italic"
        fill="#8B95A1" opacity="0.8">От икринки к королевской</text>

  <!-- Location -->
  <text x="280" y="380" font-family="Arial, sans-serif" font-size="20"
        fill="#8B95A1" opacity="0.7">Невельский район, Сахалин</text>

  <!-- Website with glow -->
  <text x="100" y="570" font-family="Arial, sans-serif" font-size="30" font-weight="bold"
        fill="#4FD1C5" filter="url(#glow)">royalketa.com</text>

  <!-- Enhanced decorative salmon silhouette -->
  <g transform="translate(950, 480)" opacity="0.2" filter="url(#softGlow)">
    <ellipse cx="0" cy="0" rx="90" ry="35" fill="#CFAE58"/>
    <path d="M 90 0 L 120 -18 L 130 0 L 120 18 Z" fill="#CFAE58"/>
    <path d="M -25 -35 L 0 -45 L 25 -35 Z" fill="#CFAE58"/>
    <ellipse cx="-50" cy="0" rx="15" ry="12" fill="#0B0F14"/>
  </g>

  <!-- Additional decorative caviar clusters -->
  <g opacity="0.2">
    <circle cx="1050" cy="120" r="6" fill="#CFAE58"/>
    <circle cx="1065" cy="115" r="5" fill="#CFAE58"/>
    <circle cx="1058" cy="130" r="4" fill="#CFAE58"/>
    <circle cx="150" cy="500" r="5" fill="#4FD1C5"/>
    <circle cx="165" cy="508" r="4" fill="#4FD1C5"/>
    <circle cx="140" cy="512" r="5" fill="#4FD1C5"/>
  </g>
</svg>