<svg width="1200" height="630" xmlns="http://www.w3.org/2000/svg">
  <defs>
    <linearGradient id="bgGradient" x1="0%" y1="0%" x2="100%" y2="100%">
      <stop offset="0%" style="stop-color:#0B0F14;stop-opacity:1" />
      <stop offset="50%" style="stop-color:#0F1619;stop-opacity:1" />
      <stop offset="100%" style="stop-color:#0F1922;stop-opacity:1" />
    </linearGradient>
    <linearGradient id="goldGradient" x1="0%" y1="0%" x2="100%" y2="0%">
      <stop offset="0%" style="stop-color:#E5D596;stop-opacity:1" />
      <stop offset="50%" style="stop-color:#CFAE58;stop-opacity:1" />
      <stop offset="100%" style="stop-color:#B89842;stop-opacity:1" />
    </linearGradient>
    <radialGradient id="oceanGradient" cx="50%" cy="50%" r="50%">
      <stop offset="0%" style="stop-color:#4FD1C5;stop-opacity:0.3" />
      <stop offset="100%" style="stop-color:#1E90A0;stop-opacity:0.05" />
    </radialGradient>
    <filter id="glow">
      <feGaussianBlur stdDeviation="5" result="coloredBlur"/>
      <feMerge>
        <feMergeNode in="coloredBlur"/>
        <feMergeNode in="SourceGraphic"/>
      </feMerge>
    </filter>
    <filter id="softGlow">
      <feGaussianBlur stdDeviation="8" result="coloredBlur"/>
      <feMerge>
        <feMergeNode in="coloredBlur"/>
        <feMergeNode in="SourceGraphic"/>
      </feMerge>
    </filter>
    <filter id="shadow">
      <feDropShadow dx="0" dy="4" stdDeviation="8" flood-color="#000000" flood-opacity="0.5"/>
    </filter>
  </defs>

  <!-- Background -->
  <rect width="1200" height="630" fill="url(#bgGradient)"/>

  <!-- Decorative ocean gradients -->
  <ellipse cx="1000" cy="150" rx="300" ry="200" fill="url(#oceanGradient)" opacity="0.4"/>
  <ellipse cx="200" cy="530" rx="250" ry="180" fill="url(#oceanGradient)" opacity="0.3"/>

  <!-- Wave patterns -->
  <path d="M 0 400 Q 300 350 600 400 T 1200 400 L 1200 630 L 0 630 Z" fill="#1E90A0" opacity="0.08"/>
  <path d="M 0 450 Q 250 420 500 450 T 1000 450 T 1200 450 L 1200 630 L 0 630 Z" fill="#4FD1C5" opacity="0.05"/>

  <!-- Caviar roe particles -->
  <circle cx="616.7883909341047" cy="216.62282270172224" r="5.415395261771749" fill="#CFAE58" opacity="0.1591527384523696"/>
  <circle cx="412.6468992305475" cy="430.1054978194597" r="5.971236245511355" fill="#CFAE58" opacity="0.21421054429542644"/>
  <circle cx="574.8829758196556" cy="613.972457702226" r="2.710104313991124" fill="#CFAE58" opacity="0.10244942569132978"/>
  <circle cx="630.4768591335379" cy="487.4772070781574" r="2.818509796548064" fill="#CFAE58" opacity="0.2342990831879854"/>
  <circle cx="1052.3464958199572" cy="282.15544140787114" r="3.774778790209958" fill="#CFAE58" opacity="0.14044027818910237"/>
  <circle cx="1026.1068722954303" cy="331.65842436541567" r="2.9154178625167635" fill="#CFAE58" opacity="0.15575570264914496"/>
  <circle cx="547.5101091622538" cy="324.1515856066619" r="5.264875008793087" fill="#CFAE58" opacity="0.20895495862112629"/>
  <circle cx="1022.4222707269658" cy="154.10985469335745" r="5.133418165228584" fill="#CFAE58" opacity="0.19938049983759504"/>
  <circle cx="1121.116383882105" cy="82.05158300837503" r="4.15270437248621" fill="#CFAE58" opacity="0.16687088348188112"/>
  <circle cx="897.4089528952251" cy="195.19786357380173" r="2.771951558564298" fill="#CFAE58" opacity="0.20117647926819748"/>
  <circle cx="42.787110575554976" cy="374.06980293606534" r="2.621440274448802" fill="#CFAE58" opacity="0.24876947864922322"/>
  <circle cx="211.11759645818742" cy="302.135628314508" r="3.557815172702452" fill="#CFAE58" opacity="0.15843962096542732"/>
  <circle cx="476.8729827532964" cy="567.9583289080772" r="5.465845284296892" fill="#CFAE58" opacity="0.22422933460593195"/>
  <circle cx="729.9238546126668" cy="613.5691201761377" r="3.7938041988006472" fill="#CFAE58" opacity="0.20727484649091632"/>
  <circle cx="1141.601974324615" cy="418.50446666399534" r="2.36285987261055" fill="#CFAE58" opacity="0.13042822285863745"/>
  <circle cx="109.29968852100416" cy="335.69376532503736" r="5.952978796822215" fill="#CFAE58" opacity="0.13846595658915833"/>
  <circle cx="1035.9201023226046" cy="452.7104491012495" r="3.3046456434898146" fill="#CFAE58" opacity="0.21540240276326467"/>
  <circle cx="117.56995541492907" cy="133.09099086151608" r="3.179552742264876" fill="#CFAE58" opacity="0.2307952696211327"/>
  <circle cx="1098.1801260340949" cy="428.4078982444271" r="5.188607469667114" fill="#CFAE58" opacity="0.10831376473990396"/>
  <circle cx="22.685448242549413" cy="277.9187214747264" r="4.3926610594578115" fill="#CFAE58" opacity="0.16429196925331863"/>
  <circle cx="420.9790244749217" cy="269.94747649976904" r="4.988384029360556" fill="#CFAE58" opacity="0.11844175701533723"/>
  <circle cx="1009.113903063722" cy="88.6358012370356" r="5.944708852484169" fill="#CFAE58" opacity="0.24565652242573766"/>
  <circle cx="436.3967444600743" cy="120.7304019272069" r="4.765024596592756" fill="#CFAE58" opacity="0.19658921024267859"/>
  <circle cx="985.7435381379752" cy="458.9981737375046" r="3.4022465673594477" fill="#CFAE58" opacity="0.1849743922861008"/>
  <circle cx="43.6792026738273" cy="160.74634123747884" r="4.439174093506538" fill="#CFAE58" opacity="0.2486773335111183"/>
  <circle cx="213.73691050750048" cy="30.208658258634" r="3.305906985518935" fill="#CFAE58" opacity="0.21601542119159473"/>
  <circle cx="911.6527073439711" cy="105.32217520566383" r="3.929385937366121" fill="#CFAE58" opacity="0.20172216865506512"/>
  <circle cx="125.41577301709688" cy="593.3283868922381" r="2.9655007535098266" fill="#CFAE58" opacity="0.1756761903378772"/>
  <circle cx="561.8291356034861" cy="411.78033122183444" r="4.588746765909914" fill="#CFAE58" opacity="0.16069351547002708"/>
  <circle cx="50.87982912456286" cy="397.0066264046811" r="5.47961876769992" fill="#CFAE58" opacity="0.1079125961090458"/>

  <!-- Border with glow -->
  <rect x="40" y="40" width="1120" height="550" fill="none" stroke="url(#goldGradient)" stroke-width="3" rx="12" filter="url(#softGlow)"/>

  <!-- Icon circle with premium background -->
  <circle cx="150" cy="200" r="75" fill="#CFAE58" opacity="0.15" filter="url(#softGlow)"/>
  <circle cx="150" cy="200" r="70" fill="#CFAE58" opacity="0.25"/>
  <text x="150" y="235" font-size="90" text-anchor="middle" fill="#CFAE58" filter="url(#glow)">🐟</text>

  <!-- Premium logo (crown) with enhanced styling -->
  <g transform="translate(100, 70)">
    <path d="M 30 20 L 40 35 L 35 35 Z M 50 15 L 60 35 L 45 35 Z M 65 20 L 75 35 L 70 35 Z M 30 35 L 75 35 L 73 45 L 32 45 Z"
          fill="url(#goldGradient)" filter="url(#glow)" stroke="#B89842" stroke-width="0.5"/>
    <circle cx="40" cy="25" r="3" fill="#4FD1C5" filter="url(#glow)"/>
    <circle cx="52" cy="20" r="4" fill="#4FD1C5" filter="url(#glow)"/>
    <circle cx="65" cy="25" r="3" fill="#4FD1C5" filter="url(#glow)"/>
  </g>

  <!-- Title with shadow -->
  <text x="280" y="180" font-family="Georgia, serif" font-size="72" font-weight="bold"
        fill="url(#goldGradient)" filter="url(#shadow)">Salmon &amp; Red Caviar</text>

  <!-- Subtitle with subtle glow -->
  <text x="280" y="230" font-family="Arial, sans-serif" font-size="36"
        fill="#D6DEE6" opacity="0.95" filter="url(#softGlow)">Pacific Salmon Species Guide</text>

  <!-- Brand name with letter spacing -->
  <text x="280" y="300" font-family="Georgia, serif" font-size="32" font-weight="bold"
        fill="#CFAE58" letter-spacing="4" filter="url(#glow)">ROYAL KETA</text>

  <!-- Russian tagline -->
  <text x="280" y="340" font-family="Arial, sans-serif" font-size="22" font-style="italic"
        fill="#8B95A1" opacity="0.8">От икринки к королевской</text>

  <!-- Location -->
  <text x="280" y="380" font-family="Arial, sans-serif" font-size="20"
        fill="#8B95A1" opacity="0.7">Невельский район, Сахалин</text>

  <!-- Website with glow -->
  <text x="100" y="570" font-family="Arial, sans-serif" font-size="30" font-weight="bold"
        fill="#4FD1C5" filter="url(#glow)">royalketa.com</text>

  <!-- Enhanced decorative salmon silhouette -->
  <g transform="translate(950, 480)" opacity="0.2" filter="url(#softGlow)">
    <ellipse cx="0" cy="0" rx="90" ry="35" fill="#CFAE58"/>
    <path d="M 90 0 L 120 -18 L 130 0 L 120 18 Z" fill="#CFAE58"/>
    <path d="M -25 -35 L 0 -45 L 25 -35 Z" fill="#CFAE58"/>
    <ellipse cx="-50" cy="0" rx="15" ry="12" fill="#0B0F14"/>
  </g>

  <!-- Additional decorative caviar clusters -->
  <g opacity="0.2">
    <circle cx="1050" cy="120" r="6" fill="#CFAE58"/>
    <circle cx="1065" cy="115" r="5" fill="#CFAE58"/>
    <circle cx="1058" cy="130" r="4" fill="#CFAE58"/>
    <circle cx="150" cy="500" r="5" fill="#4FD1C5"/>
    <circle cx="165" cy="508" r="4" fill="#4FD1C5"/>
    <circle cx="140" cy="512" r="5" fill="#4FD1C5"/>
  </g>
</svg>