<svg width="1200" height="630" xmlns="http://www.w3.org/2000/svg">
  <defs>
    <linearGradient id="bgGradient" x1="0%" y1="0%" x2="100%" y2="100%">
      <stop offset="0%" style="stop-color:#0B0F14;stop-opacity:1" />
      <stop offset="50%" style="stop-color:#0F1619;stop-opacity:1" />
      <stop offset="100%" style="stop-color:#0F1922;stop-opacity:1" />
    </linearGradient>
    <linearGradient id="goldGradient" x1="0%" y1="0%" x2="100%" y2="0%">
      <stop offset="0%" style="stop-color:#E5D596;stop-opacity:1" />
      <stop offset="50%" style="stop-color:#CFAE58;stop-opacity:1" />
      <stop offset="100%" style="stop-color:#B89842;stop-opacity:1" />
    </linearGradient>
    <radialGradient id="oceanGradient" cx="50%" cy="50%" r="50%">
      <stop offset="0%" style="stop-color:#4FD1C5;stop-opacity:0.3" />
      <stop offset="100%" style="stop-color:#1E90A0;stop-opacity:0.05" />
    </radialGradient>
    <filter id="glow">
      <feGaussianBlur stdDeviation="5" result="coloredBlur"/>
      <feMerge>
        <feMergeNode in="coloredBlur"/>
        <feMergeNode in="SourceGraphic"/>
      </feMerge>
    </filter>
    <filter id="softGlow">
      <feGaussianBlur stdDeviation="8" result="coloredBlur"/>
      <feMerge>
        <feMergeNode in="coloredBlur"/>
        <feMergeNode in="SourceGraphic"/>
      </feMerge>
    </filter>
    <filter id="shadow">
      <feDropShadow dx="0" dy="4" stdDeviation="8" flood-color="#000000" flood-opacity="0.5"/>
    </filter>
  </defs>

  <!-- Background -->
  <rect width="1200" height="630" fill="url(#bgGradient)"/>

  <!-- Decorative ocean gradients -->
  <ellipse cx="1000" cy="150" rx="300" ry="200" fill="url(#oceanGradient)" opacity="0.4"/>
  <ellipse cx="200" cy="530" rx="250" ry="180" fill="url(#oceanGradient)" opacity="0.3"/>

  <!-- Wave patterns -->
  <path d="M 0 400 Q 300 350 600 400 T 1200 400 L 1200 630 L 0 630 Z" fill="#1E90A0" opacity="0.08"/>
  <path d="M 0 450 Q 250 420 500 450 T 1000 450 T 1200 450 L 1200 630 L 0 630 Z" fill="#4FD1C5" opacity="0.05"/>

  <!-- Caviar roe particles -->
  <circle cx="746.433981069909" cy="357.40397256450984" r="3.289110832897844" fill="#CFAE58" opacity="0.12127644251716314"/>
  <circle cx="312.6815135496978" cy="561.7936625062924" r="5.200277049424556" fill="#CFAE58" opacity="0.22395135129845123"/>
  <circle cx="1024.1730838023432" cy="495.4333834774163" r="3.3175684353274484" fill="#CFAE58" opacity="0.18087089222606317"/>
  <circle cx="1101.1167820698156" cy="180.76145914741102" r="3.387629977157191" fill="#CFAE58" opacity="0.247382019428099"/>
  <circle cx="270.7654385957471" cy="72.44871966392478" r="4.275454858456036" fill="#CFAE58" opacity="0.23619181621438762"/>
  <circle cx="262.37630446356553" cy="234.02018861385596" r="5.423228122229676" fill="#CFAE58" opacity="0.24925469421111396"/>
  <circle cx="55.32791822136396" cy="259.0070336587629" r="3.924956846521246" fill="#CFAE58" opacity="0.11809389681485531"/>
  <circle cx="94.78074717488418" cy="26.5273261420646" r="4.452276948940226" fill="#CFAE58" opacity="0.17501502192115348"/>
  <circle cx="784.9014376433388" cy="8.93720634492606" r="4.485649697068514" fill="#CFAE58" opacity="0.12286044478287209"/>
  <circle cx="551.6380982799029" cy="40.68810019295007" r="5.766120709817148" fill="#CFAE58" opacity="0.17454743301933293"/>
  <circle cx="373.6654409316591" cy="328.8636298043176" r="3.117800976377988" fill="#CFAE58" opacity="0.18526061761658547"/>
  <circle cx="593.3811176292959" cy="622.5997697125583" r="5.247042800587021" fill="#CFAE58" opacity="0.2261831800747709"/>
  <circle cx="1190.5536045267759" cy="112.24642100432033" r="3.9725850492167973" fill="#CFAE58" opacity="0.19415027408733362"/>
  <circle cx="716.2542736332225" cy="347.6722879157246" r="5.194302487920558" fill="#CFAE58" opacity="0.2281477321601755"/>
  <circle cx="463.36204335611217" cy="452.0492445286544" r="5.780729362029607" fill="#CFAE58" opacity="0.1947042567587685"/>
  <circle cx="1005.4477964499756" cy="267.4477681582075" r="4.011571039316954" fill="#CFAE58" opacity="0.1554152911423284"/>
  <circle cx="739.0347381287702" cy="175.01829686079893" r="3.6657207909463985" fill="#CFAE58" opacity="0.20881275973671506"/>
  <circle cx="343.5152439781127" cy="209.99526711473925" r="2.895871231868516" fill="#CFAE58" opacity="0.2162598073310786"/>
  <circle cx="455.0131728034347" cy="362.9873952884107" r="4.865983137876264" fill="#CFAE58" opacity="0.17204748458908958"/>
  <circle cx="15.549775283831213" cy="615.2318591896435" r="4.267215929379095" fill="#CFAE58" opacity="0.16041833273867523"/>
  <circle cx="1049.7443910454663" cy="392.29603973404363" r="3.3624325239284856" fill="#CFAE58" opacity="0.1670392166497633"/>
  <circle cx="257.57919456372446" cy="567.6868390087972" r="4.220528778182364" fill="#CFAE58" opacity="0.1449907507143633"/>
  <circle cx="680.1338664093847" cy="550.0689489540696" r="2.6414944670640654" fill="#CFAE58" opacity="0.22118365562198355"/>
  <circle cx="594.8060415130184" cy="164.52104304437904" r="5.829002755115348" fill="#CFAE58" opacity="0.1864225472790017"/>
  <circle cx="908.4848864462134" cy="450.9979565011877" r="4.567047034900335" fill="#CFAE58" opacity="0.17777590023184142"/>
  <circle cx="1173.638799743532" cy="132.0655781877081" r="2.177662738750179" fill="#CFAE58" opacity="0.22583215070445387"/>
  <circle cx="1125.7852332886014" cy="328.7588575288746" r="2.6557251741977366" fill="#CFAE58" opacity="0.22179203730075833"/>
  <circle cx="170.03098860978562" cy="426.68466147075776" r="4.620986071601007" fill="#CFAE58" opacity="0.11014887286970027"/>
  <circle cx="496.1936181912489" cy="235.66299115506175" r="3.571375046924615" fill="#CFAE58" opacity="0.11616118779260166"/>
  <circle cx="606.8090907088327" cy="517.3441635771551" r="2.997485363141724" fill="#CFAE58" opacity="0.1551294035256985"/>

  <!-- Border with glow -->
  <rect x="40" y="40" width="1120" height="550" fill="none" stroke="url(#goldGradient)" stroke-width="3" rx="12" filter="url(#softGlow)"/>

  <!-- Icon circle with premium background -->
  <circle cx="150" cy="200" r="75" fill="#CFAE58" opacity="0.15" filter="url(#softGlow)"/>
  <circle cx="150" cy="200" r="70" fill="#CFAE58" opacity="0.25"/>
  <text x="150" y="235" font-size="90" text-anchor="middle" fill="#CFAE58" filter="url(#glow)">🐟</text>

  <!-- Premium logo (crown) with enhanced styling -->
  <g transform="translate(100, 70)">
    <path d="M 30 20 L 40 35 L 35 35 Z M 50 15 L 60 35 L 45 35 Z M 65 20 L 75 35 L 70 35 Z M 30 35 L 75 35 L 73 45 L 32 45 Z"
          fill="url(#goldGradient)" filter="url(#glow)" stroke="#B89842" stroke-width="0.5"/>
    <circle cx="40" cy="25" r="3" fill="#4FD1C5" filter="url(#glow)"/>
    <circle cx="52" cy="20" r="4" fill="#4FD1C5" filter="url(#glow)"/>
    <circle cx="65" cy="25" r="3" fill="#4FD1C5" filter="url(#glow)"/>
  </g>

  <!-- Title with shadow -->
  <text x="280" y="180" font-family="Georgia, serif" font-size="72" font-weight="bold"
        fill="url(#goldGradient)" filter="url(#shadow)">Salmon &amp; Red Caviar</text>

  <!-- Subtitle with subtle glow -->
  <text x="280" y="230" font-family="Arial, sans-serif" font-size="36"
        fill="#D6DEE6" opacity="0.95" filter="url(#softGlow)">Pacific Salmon Species Guide</text>

  <!-- Brand name with letter spacing -->
  <text x="280" y="300" font-family="Georgia, serif" font-size="32" font-weight="bold"
        fill="#CFAE58" letter-spacing="4" filter="url(#glow)">ROYAL KETA</text>

  <!-- Russian tagline -->
  <text x="280" y="340" font-family="Arial, sans-serif" font-size="22" font-style="italic"
        fill="#8B95A1" opacity="0.8">От икринки к королевской</text>

  <!-- Location -->
  <text x="280" y="380" font-family="Arial, sans-serif" font-size="20"
        fill="#8B95A1" opacity="0.7">Невельский район, Сахалин</text>

  <!-- Website with glow -->
  <text x="100" y="570" font-family="Arial, sans-serif" font-size="30" font-weight="bold"
        fill="#4FD1C5" filter="url(#glow)">royalketa.com</text>

  <!-- Enhanced decorative salmon silhouette -->
  <g transform="translate(950, 480)" opacity="0.2" filter="url(#softGlow)">
    <ellipse cx="0" cy="0" rx="90" ry="35" fill="#CFAE58"/>
    <path d="M 90 0 L 120 -18 L 130 0 L 120 18 Z" fill="#CFAE58"/>
    <path d="M -25 -35 L 0 -45 L 25 -35 Z" fill="#CFAE58"/>
    <ellipse cx="-50" cy="0" rx="15" ry="12" fill="#0B0F14"/>
  </g>

  <!-- Additional decorative caviar clusters -->
  <g opacity="0.2">
    <circle cx="1050" cy="120" r="6" fill="#CFAE58"/>
    <circle cx="1065" cy="115" r="5" fill="#CFAE58"/>
    <circle cx="1058" cy="130" r="4" fill="#CFAE58"/>
    <circle cx="150" cy="500" r="5" fill="#4FD1C5"/>
    <circle cx="165" cy="508" r="4" fill="#4FD1C5"/>
    <circle cx="140" cy="512" r="5" fill="#4FD1C5"/>
  </g>
</svg>