<svg width="1200" height="630" xmlns="http://www.w3.org/2000/svg">
  <defs>
    <linearGradient id="bgGradient" x1="0%" y1="0%" x2="100%" y2="100%">
      <stop offset="0%" style="stop-color:#0B0F14;stop-opacity:1" />
      <stop offset="50%" style="stop-color:#0F1619;stop-opacity:1" />
      <stop offset="100%" style="stop-color:#0F1922;stop-opacity:1" />
    </linearGradient>
    <linearGradient id="goldGradient" x1="0%" y1="0%" x2="100%" y2="0%">
      <stop offset="0%" style="stop-color:#E5D596;stop-opacity:1" />
      <stop offset="50%" style="stop-color:#CFAE58;stop-opacity:1" />
      <stop offset="100%" style="stop-color:#B89842;stop-opacity:1" />
    </linearGradient>
    <radialGradient id="oceanGradient" cx="50%" cy="50%" r="50%">
      <stop offset="0%" style="stop-color:#4FD1C5;stop-opacity:0.3" />
      <stop offset="100%" style="stop-color:#1E90A0;stop-opacity:0.05" />
    </radialGradient>
    <filter id="glow">
      <feGaussianBlur stdDeviation="5" result="coloredBlur"/>
      <feMerge>
        <feMergeNode in="coloredBlur"/>
        <feMergeNode in="SourceGraphic"/>
      </feMerge>
    </filter>
    <filter id="softGlow">
      <feGaussianBlur stdDeviation="8" result="coloredBlur"/>
      <feMerge>
        <feMergeNode in="coloredBlur"/>
        <feMergeNode in="SourceGraphic"/>
      </feMerge>
    </filter>
    <filter id="shadow">
      <feDropShadow dx="0" dy="4" stdDeviation="8" flood-color="#000000" flood-opacity="0.5"/>
    </filter>
  </defs>

  <!-- Background -->
  <rect width="1200" height="630" fill="url(#bgGradient)"/>

  <!-- Decorative ocean gradients -->
  <ellipse cx="1000" cy="150" rx="300" ry="200" fill="url(#oceanGradient)" opacity="0.4"/>
  <ellipse cx="200" cy="530" rx="250" ry="180" fill="url(#oceanGradient)" opacity="0.3"/>

  <!-- Wave patterns -->
  <path d="M 0 400 Q 300 350 600 400 T 1200 400 L 1200 630 L 0 630 Z" fill="#1E90A0" opacity="0.08"/>
  <path d="M 0 450 Q 250 420 500 450 T 1000 450 T 1200 450 L 1200 630 L 0 630 Z" fill="#4FD1C5" opacity="0.05"/>

  <!-- Caviar roe particles -->
  <circle cx="385.0574840381943" cy="598.1391014206446" r="4.533565050087963" fill="#CFAE58" opacity="0.23520228356974146"/>
  <circle cx="347.3818383193674" cy="544.0214049610994" r="3.7011980934440407" fill="#CFAE58" opacity="0.22376492713488771"/>
  <circle cx="955.1881962212747" cy="351.51156062369836" r="4.9420933599704036" fill="#CFAE58" opacity="0.242810620448171"/>
  <circle cx="935.4617404077599" cy="65.03055737986308" r="5.982424324583006" fill="#CFAE58" opacity="0.1880173942120946"/>
  <circle cx="186.66877393940044" cy="102.30296197098485" r="4.103521601999988" fill="#CFAE58" opacity="0.22521342894781507"/>
  <circle cx="389.88175405706625" cy="618.9912316625338" r="4.970635456416879" fill="#CFAE58" opacity="0.167082391113048"/>
  <circle cx="650.7252611346776" cy="267.2318106604517" r="5.498195755576516" fill="#CFAE58" opacity="0.19572916739247748"/>
  <circle cx="408.3568339918408" cy="471.9610162215322" r="3.1060579681327414" fill="#CFAE58" opacity="0.11385888336187318"/>
  <circle cx="7.966277486968032" cy="629.3321877809435" r="2.0552163077609773" fill="#CFAE58" opacity="0.13891933101939738"/>
  <circle cx="555.8854889757699" cy="226.22941772803722" r="2.687542441271833" fill="#CFAE58" opacity="0.13258689496010195"/>
  <circle cx="808.1621244325689" cy="165.20536346528613" r="2.4004373381127526" fill="#CFAE58" opacity="0.13345604042486825"/>
  <circle cx="707.8101699840381" cy="101.8877185581835" r="4.539852196507855" fill="#CFAE58" opacity="0.23083381647896983"/>
  <circle cx="346.9560590090896" cy="623.0409629628042" r="3.2719444750085374" fill="#CFAE58" opacity="0.1451280393621709"/>
  <circle cx="923.8674902100821" cy="287.6320579633534" r="5.179285754560634" fill="#CFAE58" opacity="0.2278588902448116"/>
  <circle cx="1140.526897834912" cy="125.27170037908847" r="3.009173157149296" fill="#CFAE58" opacity="0.20831680521441975"/>
  <circle cx="879.5009515701403" cy="269.81928381690454" r="5.376843955558154" fill="#CFAE58" opacity="0.11350094620304968"/>
  <circle cx="102.05352612877086" cy="150.94024735951672" r="5.9049338427912" fill="#CFAE58" opacity="0.18431360055840196"/>
  <circle cx="248.4918969046752" cy="390.53152077525834" r="5.338580843241795" fill="#CFAE58" opacity="0.22002013678277307"/>
  <circle cx="222.43011634015826" cy="155.8649472890483" r="3.1075483984629213" fill="#CFAE58" opacity="0.14330845216992116"/>
  <circle cx="739.9046764668738" cy="173.3898675405026" r="5.24191764899035" fill="#CFAE58" opacity="0.2329412654923936"/>
  <circle cx="1098.9233180677575" cy="435.66988069502304" r="5.32415607543733" fill="#CFAE58" opacity="0.2436587136661767"/>
  <circle cx="1019.5260962038664" cy="323.8509550821704" r="5.04906015427647" fill="#CFAE58" opacity="0.1115640459834786"/>
  <circle cx="377.70345213737806" cy="329.04966220259666" r="5.09348777098052" fill="#CFAE58" opacity="0.15338753056657262"/>
  <circle cx="434.0540542256942" cy="219.9731282646554" r="2.046048177476219" fill="#CFAE58" opacity="0.1378162164546843"/>
  <circle cx="621.2054410914271" cy="553.4216559981219" r="3.4794355533727446" fill="#CFAE58" opacity="0.21163523798692307"/>
  <circle cx="735.7590419452382" cy="566.2971643678683" r="2.9898778306168396" fill="#CFAE58" opacity="0.11403054250686628"/>
  <circle cx="811.0700400641488" cy="193.48835366915756" r="5.884083798243723" fill="#CFAE58" opacity="0.2099615404591052"/>
  <circle cx="6.955183822200528" cy="547.3734221361514" r="5.087887813402624" fill="#CFAE58" opacity="0.1247578476812869"/>
  <circle cx="223.1415320990617" cy="396.16125525591866" r="2.7796944352344526" fill="#CFAE58" opacity="0.2092605025083862"/>
  <circle cx="144.23097373194656" cy="117.10583358680493" r="5.3582295919493195" fill="#CFAE58" opacity="0.21573662587870304"/>

  <!-- Border with glow -->
  <rect x="40" y="40" width="1120" height="550" fill="none" stroke="url(#goldGradient)" stroke-width="3" rx="12" filter="url(#softGlow)"/>

  <!-- Icon circle with premium background -->
  <circle cx="150" cy="200" r="75" fill="#CFAE58" opacity="0.15" filter="url(#softGlow)"/>
  <circle cx="150" cy="200" r="70" fill="#CFAE58" opacity="0.25"/>
  <text x="150" y="235" font-size="90" text-anchor="middle" fill="#CFAE58" filter="url(#glow)">🐟</text>

  <!-- Premium logo (crown) with enhanced styling -->
  <g transform="translate(100, 70)">
    <path d="M 30 20 L 40 35 L 35 35 Z M 50 15 L 60 35 L 45 35 Z M 65 20 L 75 35 L 70 35 Z M 30 35 L 75 35 L 73 45 L 32 45 Z"
          fill="url(#goldGradient)" filter="url(#glow)" stroke="#B89842" stroke-width="0.5"/>
    <circle cx="40" cy="25" r="3" fill="#4FD1C5" filter="url(#glow)"/>
    <circle cx="52" cy="20" r="4" fill="#4FD1C5" filter="url(#glow)"/>
    <circle cx="65" cy="25" r="3" fill="#4FD1C5" filter="url(#glow)"/>
  </g>

  <!-- Title with shadow -->
  <text x="280" y="180" font-family="Georgia, serif" font-size="72" font-weight="bold"
        fill="url(#goldGradient)" filter="url(#shadow)">Salmon &amp; Red Caviar</text>

  <!-- Subtitle with subtle glow -->
  <text x="280" y="230" font-family="Arial, sans-serif" font-size="36"
        fill="#D6DEE6" opacity="0.95" filter="url(#softGlow)">Pacific Salmon Species Guide</text>

  <!-- Brand name with letter spacing -->
  <text x="280" y="300" font-family="Georgia, serif" font-size="32" font-weight="bold"
        fill="#CFAE58" letter-spacing="4" filter="url(#glow)">ROYAL KETA</text>

  <!-- Russian tagline -->
  <text x="280" y="340" font-family="Arial, sans-serif" font-size="22" font-style="italic"
        fill="#8B95A1" opacity="0.8">От икринки к королевской</text>

  <!-- Location -->
  <text x="280" y="380" font-family="Arial, sans-serif" font-size="20"
        fill="#8B95A1" opacity="0.7">Невельский район, Сахалин</text>

  <!-- Website with glow -->
  <text x="100" y="570" font-family="Arial, sans-serif" font-size="30" font-weight="bold"
        fill="#4FD1C5" filter="url(#glow)">royalketa.com</text>

  <!-- Enhanced decorative salmon silhouette -->
  <g transform="translate(950, 480)" opacity="0.2" filter="url(#softGlow)">
    <ellipse cx="0" cy="0" rx="90" ry="35" fill="#CFAE58"/>
    <path d="M 90 0 L 120 -18 L 130 0 L 120 18 Z" fill="#CFAE58"/>
    <path d="M -25 -35 L 0 -45 L 25 -35 Z" fill="#CFAE58"/>
    <ellipse cx="-50" cy="0" rx="15" ry="12" fill="#0B0F14"/>
  </g>

  <!-- Additional decorative caviar clusters -->
  <g opacity="0.2">
    <circle cx="1050" cy="120" r="6" fill="#CFAE58"/>
    <circle cx="1065" cy="115" r="5" fill="#CFAE58"/>
    <circle cx="1058" cy="130" r="4" fill="#CFAE58"/>
    <circle cx="150" cy="500" r="5" fill="#4FD1C5"/>
    <circle cx="165" cy="508" r="4" fill="#4FD1C5"/>
    <circle cx="140" cy="512" r="5" fill="#4FD1C5"/>
  </g>
</svg>