<svg width="1200" height="630" xmlns="http://www.w3.org/2000/svg">
  <defs>
    <linearGradient id="bgGradient" x1="0%" y1="0%" x2="100%" y2="100%">
      <stop offset="0%" style="stop-color:#0B0F14;stop-opacity:1" />
      <stop offset="50%" style="stop-color:#0F1619;stop-opacity:1" />
      <stop offset="100%" style="stop-color:#0F1922;stop-opacity:1" />
    </linearGradient>
    <linearGradient id="goldGradient" x1="0%" y1="0%" x2="100%" y2="0%">
      <stop offset="0%" style="stop-color:#E5D596;stop-opacity:1" />
      <stop offset="50%" style="stop-color:#CFAE58;stop-opacity:1" />
      <stop offset="100%" style="stop-color:#B89842;stop-opacity:1" />
    </linearGradient>
    <radialGradient id="oceanGradient" cx="50%" cy="50%" r="50%">
      <stop offset="0%" style="stop-color:#4FD1C5;stop-opacity:0.3" />
      <stop offset="100%" style="stop-color:#1E90A0;stop-opacity:0.05" />
    </radialGradient>
    <filter id="glow">
      <feGaussianBlur stdDeviation="5" result="coloredBlur"/>
      <feMerge>
        <feMergeNode in="coloredBlur"/>
        <feMergeNode in="SourceGraphic"/>
      </feMerge>
    </filter>
    <filter id="softGlow">
      <feGaussianBlur stdDeviation="8" result="coloredBlur"/>
      <feMerge>
        <feMergeNode in="coloredBlur"/>
        <feMergeNode in="SourceGraphic"/>
      </feMerge>
    </filter>
    <filter id="shadow">
      <feDropShadow dx="0" dy="4" stdDeviation="8" flood-color="#000000" flood-opacity="0.5"/>
    </filter>
  </defs>

  <!-- Background -->
  <rect width="1200" height="630" fill="url(#bgGradient)"/>

  <!-- Decorative ocean gradients -->
  <ellipse cx="1000" cy="150" rx="300" ry="200" fill="url(#oceanGradient)" opacity="0.4"/>
  <ellipse cx="200" cy="530" rx="250" ry="180" fill="url(#oceanGradient)" opacity="0.3"/>

  <!-- Wave patterns -->
  <path d="M 0 400 Q 300 350 600 400 T 1200 400 L 1200 630 L 0 630 Z" fill="#1E90A0" opacity="0.08"/>
  <path d="M 0 450 Q 250 420 500 450 T 1000 450 T 1200 450 L 1200 630 L 0 630 Z" fill="#4FD1C5" opacity="0.05"/>

  <!-- Caviar roe particles -->
  <circle cx="134.31042906758938" cy="150.6791981029494" r="4.84382562266889" fill="#CFAE58" opacity="0.20370890319574902"/>
  <circle cx="935.6856473084082" cy="323.1383336668851" r="3.212086694784608" fill="#CFAE58" opacity="0.2405936562350008"/>
  <circle cx="1169.2605050673415" cy="234.28535715916857" r="2.528036846849264" fill="#CFAE58" opacity="0.13075678869057208"/>
  <circle cx="610.9568014062436" cy="141.9963161210315" r="4.851448084425323" fill="#CFAE58" opacity="0.12628614253384166"/>
  <circle cx="194.79728220428603" cy="89.89715257447949" r="3.6090066059323784" fill="#CFAE58" opacity="0.1676184748134032"/>
  <circle cx="931.9493044047398" cy="208.196820517733" r="2.4237883264871205" fill="#CFAE58" opacity="0.20119307436106926"/>
  <circle cx="631.8970002530871" cy="476.4405882969873" r="2.7367102661049496" fill="#CFAE58" opacity="0.13904805789521188"/>
  <circle cx="765.4493533749481" cy="327.77034857822946" r="2.3222785943355624" fill="#CFAE58" opacity="0.19177673551216168"/>
  <circle cx="505.25620791031776" cy="475.1358656960901" r="5.728736528139066" fill="#CFAE58" opacity="0.19042469937483775"/>
  <circle cx="496.51939111374344" cy="324.7376640258131" r="3.2144697450696844" fill="#CFAE58" opacity="0.1485467602911274"/>
  <circle cx="489.6182248720257" cy="572.5377567943573" r="2.7005871162105635" fill="#CFAE58" opacity="0.1443477254272748"/>
  <circle cx="569.6517163868335" cy="290.4791900700773" r="4.366084860421619" fill="#CFAE58" opacity="0.13485183451221153"/>
  <circle cx="558.5727541256925" cy="17.78450041327117" r="5.8133337574408355" fill="#CFAE58" opacity="0.10983149213298082"/>
  <circle cx="916.8796282220303" cy="288.13063373904134" r="2.1731246665085315" fill="#CFAE58" opacity="0.23653567892196473"/>
  <circle cx="778.0475064644683" cy="614.8650021321918" r="3.7350016593135726" fill="#CFAE58" opacity="0.20632561098184632"/>
  <circle cx="161.21177231592085" cy="529.1341754991741" r="4.801606785817724" fill="#CFAE58" opacity="0.10972927432706384"/>
  <circle cx="491.5909471174823" cy="599.2436544853083" r="4.265325567952033" fill="#CFAE58" opacity="0.11982920039485391"/>
  <circle cx="689.2619323818134" cy="275.7573115147175" r="2.493309968305472" fill="#CFAE58" opacity="0.21837539041409676"/>
  <circle cx="1145.7668971157093" cy="54.67633835737784" r="4.754163895019406" fill="#CFAE58" opacity="0.11208216605657653"/>
  <circle cx="867.2902274160739" cy="353.8747566283202" r="4.004290443904958" fill="#CFAE58" opacity="0.2351661844972289"/>
  <circle cx="521.8806321198646" cy="527.0153362637719" r="2.6135910120069954" fill="#CFAE58" opacity="0.15901538584320823"/>
  <circle cx="308.80794643028895" cy="596.8856288343" r="2.9090769463528883" fill="#CFAE58" opacity="0.10741843162442075"/>
  <circle cx="218.7958852380226" cy="487.22769151467713" r="4.008063040363103" fill="#CFAE58" opacity="0.13866329224669038"/>
  <circle cx="294.6182725765955" cy="187.3764330817176" r="4.434626059906268" fill="#CFAE58" opacity="0.17985575271747878"/>
  <circle cx="1131.81551262387" cy="95.22452058050558" r="5.751715734321035" fill="#CFAE58" opacity="0.14532002703922658"/>
  <circle cx="897.653104121211" cy="626.601119197979" r="3.645841197495784" fill="#CFAE58" opacity="0.19317579330921536"/>
  <circle cx="179.23776829173553" cy="214.54330633857262" r="2.0043132032125186" fill="#CFAE58" opacity="0.19647465859082314"/>
  <circle cx="645.8853973979474" cy="488.3256063863692" r="3.900661092280586" fill="#CFAE58" opacity="0.12641778422014205"/>
  <circle cx="1044.686918479421" cy="159.51462984989962" r="5.980472268158534" fill="#CFAE58" opacity="0.15020959235002285"/>
  <circle cx="992.1098430673306" cy="42.234547402186834" r="5.069312108454328" fill="#CFAE58" opacity="0.12030017319296572"/>

  <!-- Border with glow -->
  <rect x="40" y="40" width="1120" height="550" fill="none" stroke="url(#goldGradient)" stroke-width="3" rx="12" filter="url(#softGlow)"/>

  <!-- Icon circle with premium background -->
  <circle cx="150" cy="200" r="75" fill="#CFAE58" opacity="0.15" filter="url(#softGlow)"/>
  <circle cx="150" cy="200" r="70" fill="#CFAE58" opacity="0.25"/>
  <text x="150" y="235" font-size="90" text-anchor="middle" fill="#CFAE58" filter="url(#glow)">🐟</text>

  <!-- Premium logo (crown) with enhanced styling -->
  <g transform="translate(100, 70)">
    <path d="M 30 20 L 40 35 L 35 35 Z M 50 15 L 60 35 L 45 35 Z M 65 20 L 75 35 L 70 35 Z M 30 35 L 75 35 L 73 45 L 32 45 Z"
          fill="url(#goldGradient)" filter="url(#glow)" stroke="#B89842" stroke-width="0.5"/>
    <circle cx="40" cy="25" r="3" fill="#4FD1C5" filter="url(#glow)"/>
    <circle cx="52" cy="20" r="4" fill="#4FD1C5" filter="url(#glow)"/>
    <circle cx="65" cy="25" r="3" fill="#4FD1C5" filter="url(#glow)"/>
  </g>

  <!-- Title with shadow -->
  <text x="280" y="180" font-family="Georgia, serif" font-size="72" font-weight="bold"
        fill="url(#goldGradient)" filter="url(#shadow)">Salmon &amp; Red Caviar</text>

  <!-- Subtitle with subtle glow -->
  <text x="280" y="230" font-family="Arial, sans-serif" font-size="36"
        fill="#D6DEE6" opacity="0.95" filter="url(#softGlow)">Pacific Salmon Species Guide</text>

  <!-- Brand name with letter spacing -->
  <text x="280" y="300" font-family="Georgia, serif" font-size="32" font-weight="bold"
        fill="#CFAE58" letter-spacing="4" filter="url(#glow)">ROYAL KETA</text>

  <!-- Russian tagline -->
  <text x="280" y="340" font-family="Arial, sans-serif" font-size="22" font-style="italic"
        fill="#8B95A1" opacity="0.8">От икринки к королевской</text>

  <!-- Location -->
  <text x="280" y="380" font-family="Arial, sans-serif" font-size="20"
        fill="#8B95A1" opacity="0.7">Невельский район, Сахалин</text>

  <!-- Website with glow -->
  <text x="100" y="570" font-family="Arial, sans-serif" font-size="30" font-weight="bold"
        fill="#4FD1C5" filter="url(#glow)">royalketa.com</text>

  <!-- Enhanced decorative salmon silhouette -->
  <g transform="translate(950, 480)" opacity="0.2" filter="url(#softGlow)">
    <ellipse cx="0" cy="0" rx="90" ry="35" fill="#CFAE58"/>
    <path d="M 90 0 L 120 -18 L 130 0 L 120 18 Z" fill="#CFAE58"/>
    <path d="M -25 -35 L 0 -45 L 25 -35 Z" fill="#CFAE58"/>
    <ellipse cx="-50" cy="0" rx="15" ry="12" fill="#0B0F14"/>
  </g>

  <!-- Additional decorative caviar clusters -->
  <g opacity="0.2">
    <circle cx="1050" cy="120" r="6" fill="#CFAE58"/>
    <circle cx="1065" cy="115" r="5" fill="#CFAE58"/>
    <circle cx="1058" cy="130" r="4" fill="#CFAE58"/>
    <circle cx="150" cy="500" r="5" fill="#4FD1C5"/>
    <circle cx="165" cy="508" r="4" fill="#4FD1C5"/>
    <circle cx="140" cy="512" r="5" fill="#4FD1C5"/>
  </g>
</svg>