<svg width="1200" height="630" xmlns="http://www.w3.org/2000/svg">
  <defs>
    <linearGradient id="bgGradient" x1="0%" y1="0%" x2="100%" y2="100%">
      <stop offset="0%" style="stop-color:#0B0F14;stop-opacity:1" />
      <stop offset="50%" style="stop-color:#0F1619;stop-opacity:1" />
      <stop offset="100%" style="stop-color:#0F1922;stop-opacity:1" />
    </linearGradient>
    <linearGradient id="goldGradient" x1="0%" y1="0%" x2="100%" y2="0%">
      <stop offset="0%" style="stop-color:#E5D596;stop-opacity:1" />
      <stop offset="50%" style="stop-color:#CFAE58;stop-opacity:1" />
      <stop offset="100%" style="stop-color:#B89842;stop-opacity:1" />
    </linearGradient>
    <radialGradient id="oceanGradient" cx="50%" cy="50%" r="50%">
      <stop offset="0%" style="stop-color:#4FD1C5;stop-opacity:0.3" />
      <stop offset="100%" style="stop-color:#1E90A0;stop-opacity:0.05" />
    </radialGradient>
    <filter id="glow">
      <feGaussianBlur stdDeviation="5" result="coloredBlur"/>
      <feMerge>
        <feMergeNode in="coloredBlur"/>
        <feMergeNode in="SourceGraphic"/>
      </feMerge>
    </filter>
    <filter id="softGlow">
      <feGaussianBlur stdDeviation="8" result="coloredBlur"/>
      <feMerge>
        <feMergeNode in="coloredBlur"/>
        <feMergeNode in="SourceGraphic"/>
      </feMerge>
    </filter>
    <filter id="shadow">
      <feDropShadow dx="0" dy="4" stdDeviation="8" flood-color="#000000" flood-opacity="0.5"/>
    </filter>
  </defs>

  <!-- Background -->
  <rect width="1200" height="630" fill="url(#bgGradient)"/>

  <!-- Decorative ocean gradients -->
  <ellipse cx="1000" cy="150" rx="300" ry="200" fill="url(#oceanGradient)" opacity="0.4"/>
  <ellipse cx="200" cy="530" rx="250" ry="180" fill="url(#oceanGradient)" opacity="0.3"/>

  <!-- Wave patterns -->
  <path d="M 0 400 Q 300 350 600 400 T 1200 400 L 1200 630 L 0 630 Z" fill="#1E90A0" opacity="0.08"/>
  <path d="M 0 450 Q 250 420 500 450 T 1000 450 T 1200 450 L 1200 630 L 0 630 Z" fill="#4FD1C5" opacity="0.05"/>

  <!-- Caviar roe particles -->
  <circle cx="265.9716770570561" cy="343.2447197674511" r="3.0399131500891126" fill="#CFAE58" opacity="0.11109212975250567"/>
  <circle cx="307.68557586763666" cy="62.72058279297257" r="2.03465860133839" fill="#CFAE58" opacity="0.20196717455769314"/>
  <circle cx="815.1017199214202" cy="18.23773517541094" r="3.6635750549761155" fill="#CFAE58" opacity="0.21208851018669472"/>
  <circle cx="954.0255718111894" cy="55.962399520425876" r="2.500614637868966" fill="#CFAE58" opacity="0.24900468203559425"/>
  <circle cx="723.6596011458572" cy="462.2358204334342" r="2.8178906849168444" fill="#CFAE58" opacity="0.23079302874650018"/>
  <circle cx="921.1725979436435" cy="357.7603318364765" r="2.5038559247869174" fill="#CFAE58" opacity="0.15569551463637538"/>
  <circle cx="260.23797283744574" cy="196.50761327119844" r="3.5605116402943744" fill="#CFAE58" opacity="0.14737996138997211"/>
  <circle cx="264.27469889828757" cy="601.3134665693138" r="5.673916412678615" fill="#CFAE58" opacity="0.23850111871179508"/>
  <circle cx="899.2671090669937" cy="155.1286909118949" r="2.6518843945128365" fill="#CFAE58" opacity="0.15087934586171736"/>
  <circle cx="469.7954330582684" cy="294.13657555767094" r="2.3509607422936782" fill="#CFAE58" opacity="0.2012317323975586"/>
  <circle cx="1090.1958447682512" cy="206.816011700283" r="2.9468257427338886" fill="#CFAE58" opacity="0.23074938746057758"/>
  <circle cx="559.9344608216484" cy="618.172684341823" r="5.527853692957003" fill="#CFAE58" opacity="0.22164430916676553"/>
  <circle cx="329.0494717827852" cy="603.9469020463584" r="2.917253751189417" fill="#CFAE58" opacity="0.16674052613524215"/>
  <circle cx="1180.6861911133926" cy="465.82466317607737" r="4.458393506697568" fill="#CFAE58" opacity="0.21148255977513003"/>
  <circle cx="496.08096485377234" cy="263.904359853783" r="3.1890527288274515" fill="#CFAE58" opacity="0.13705015947020804"/>
  <circle cx="961.8961919587857" cy="261.4932793162493" r="3.4076685856763356" fill="#CFAE58" opacity="0.22068066580422435"/>
  <circle cx="368.7437794877932" cy="276.0862718964516" r="3.5100571478356444" fill="#CFAE58" opacity="0.21728902780362636"/>
  <circle cx="309.42562811405884" cy="305.57178562251" r="3.8368913152245807" fill="#CFAE58" opacity="0.2140412830065459"/>
  <circle cx="801.3683962780585" cy="82.52734443793143" r="2.1938145292999156" fill="#CFAE58" opacity="0.16869665408637557"/>
  <circle cx="893.4081717249271" cy="216.08392177854194" r="5.689568052944139" fill="#CFAE58" opacity="0.21648768464557477"/>
  <circle cx="912.7220975315344" cy="551.1954653502926" r="5.6066608347396425" fill="#CFAE58" opacity="0.1501691000104055"/>
  <circle cx="763.7104609752333" cy="38.23682936626166" r="5.680991781761575" fill="#CFAE58" opacity="0.10451020400602916"/>
  <circle cx="585.5630730078855" cy="523.673101910582" r="2.2669800393534603" fill="#CFAE58" opacity="0.24092762842878343"/>
  <circle cx="1105.8795033817657" cy="240.93090910345623" r="2.0095017153563193" fill="#CFAE58" opacity="0.13591110158288291"/>
  <circle cx="827.3512676287365" cy="121.35608722407639" r="5.246856358108121" fill="#CFAE58" opacity="0.13838979148518776"/>
  <circle cx="969.0675621611689" cy="199.46540318093008" r="3.6649708547618927" fill="#CFAE58" opacity="0.13187433578284766"/>
  <circle cx="108.40291443366633" cy="493.8892264097881" r="3.77723726291941" fill="#CFAE58" opacity="0.11961509458240493"/>
  <circle cx="782.9152061182461" cy="426.33114891638763" r="5.868560786698408" fill="#CFAE58" opacity="0.10250946350082069"/>
  <circle cx="767.1827764332767" cy="28.126487904415256" r="5.469380600012025" fill="#CFAE58" opacity="0.22306756429140873"/>
  <circle cx="220.97284374020117" cy="257.7417907869432" r="4.742891267087697" fill="#CFAE58" opacity="0.1450259842845608"/>

  <!-- Border with glow -->
  <rect x="40" y="40" width="1120" height="550" fill="none" stroke="url(#goldGradient)" stroke-width="3" rx="12" filter="url(#softGlow)"/>

  <!-- Icon circle with premium background -->
  <circle cx="150" cy="200" r="75" fill="#CFAE58" opacity="0.15" filter="url(#softGlow)"/>
  <circle cx="150" cy="200" r="70" fill="#CFAE58" opacity="0.25"/>
  <text x="150" y="235" font-size="90" text-anchor="middle" fill="#CFAE58" filter="url(#glow)">🐟</text>

  <!-- Premium logo (crown) with enhanced styling -->
  <g transform="translate(100, 70)">
    <path d="M 30 20 L 40 35 L 35 35 Z M 50 15 L 60 35 L 45 35 Z M 65 20 L 75 35 L 70 35 Z M 30 35 L 75 35 L 73 45 L 32 45 Z"
          fill="url(#goldGradient)" filter="url(#glow)" stroke="#B89842" stroke-width="0.5"/>
    <circle cx="40" cy="25" r="3" fill="#4FD1C5" filter="url(#glow)"/>
    <circle cx="52" cy="20" r="4" fill="#4FD1C5" filter="url(#glow)"/>
    <circle cx="65" cy="25" r="3" fill="#4FD1C5" filter="url(#glow)"/>
  </g>

  <!-- Title with shadow -->
  <text x="280" y="180" font-family="Georgia, serif" font-size="72" font-weight="bold"
        fill="url(#goldGradient)" filter="url(#shadow)">Salmon &amp; Red Caviar</text>

  <!-- Subtitle with subtle glow -->
  <text x="280" y="230" font-family="Arial, sans-serif" font-size="36"
        fill="#D6DEE6" opacity="0.95" filter="url(#softGlow)">Pacific Salmon Species Guide</text>

  <!-- Brand name with letter spacing -->
  <text x="280" y="300" font-family="Georgia, serif" font-size="32" font-weight="bold"
        fill="#CFAE58" letter-spacing="4" filter="url(#glow)">ROYAL KETA</text>

  <!-- Russian tagline -->
  <text x="280" y="340" font-family="Arial, sans-serif" font-size="22" font-style="italic"
        fill="#8B95A1" opacity="0.8">От икринки к королевской</text>

  <!-- Location -->
  <text x="280" y="380" font-family="Arial, sans-serif" font-size="20"
        fill="#8B95A1" opacity="0.7">Невельский район, Сахалин</text>

  <!-- Website with glow -->
  <text x="100" y="570" font-family="Arial, sans-serif" font-size="30" font-weight="bold"
        fill="#4FD1C5" filter="url(#glow)">royalketa.com</text>

  <!-- Enhanced decorative salmon silhouette -->
  <g transform="translate(950, 480)" opacity="0.2" filter="url(#softGlow)">
    <ellipse cx="0" cy="0" rx="90" ry="35" fill="#CFAE58"/>
    <path d="M 90 0 L 120 -18 L 130 0 L 120 18 Z" fill="#CFAE58"/>
    <path d="M -25 -35 L 0 -45 L 25 -35 Z" fill="#CFAE58"/>
    <ellipse cx="-50" cy="0" rx="15" ry="12" fill="#0B0F14"/>
  </g>

  <!-- Additional decorative caviar clusters -->
  <g opacity="0.2">
    <circle cx="1050" cy="120" r="6" fill="#CFAE58"/>
    <circle cx="1065" cy="115" r="5" fill="#CFAE58"/>
    <circle cx="1058" cy="130" r="4" fill="#CFAE58"/>
    <circle cx="150" cy="500" r="5" fill="#4FD1C5"/>
    <circle cx="165" cy="508" r="4" fill="#4FD1C5"/>
    <circle cx="140" cy="512" r="5" fill="#4FD1C5"/>
  </g>
</svg>