<svg width="1200" height="630" xmlns="http://www.w3.org/2000/svg">
  <defs>
    <linearGradient id="bgGradient" x1="0%" y1="0%" x2="100%" y2="100%">
      <stop offset="0%" style="stop-color:#0B0F14;stop-opacity:1" />
      <stop offset="50%" style="stop-color:#0F1619;stop-opacity:1" />
      <stop offset="100%" style="stop-color:#0F1922;stop-opacity:1" />
    </linearGradient>
    <linearGradient id="goldGradient" x1="0%" y1="0%" x2="100%" y2="0%">
      <stop offset="0%" style="stop-color:#E5D596;stop-opacity:1" />
      <stop offset="50%" style="stop-color:#CFAE58;stop-opacity:1" />
      <stop offset="100%" style="stop-color:#B89842;stop-opacity:1" />
    </linearGradient>
    <radialGradient id="oceanGradient" cx="50%" cy="50%" r="50%">
      <stop offset="0%" style="stop-color:#4FD1C5;stop-opacity:0.3" />
      <stop offset="100%" style="stop-color:#1E90A0;stop-opacity:0.05" />
    </radialGradient>
    <filter id="glow">
      <feGaussianBlur stdDeviation="5" result="coloredBlur"/>
      <feMerge>
        <feMergeNode in="coloredBlur"/>
        <feMergeNode in="SourceGraphic"/>
      </feMerge>
    </filter>
    <filter id="softGlow">
      <feGaussianBlur stdDeviation="8" result="coloredBlur"/>
      <feMerge>
        <feMergeNode in="coloredBlur"/>
        <feMergeNode in="SourceGraphic"/>
      </feMerge>
    </filter>
    <filter id="shadow">
      <feDropShadow dx="0" dy="4" stdDeviation="8" flood-color="#000000" flood-opacity="0.5"/>
    </filter>
  </defs>

  <!-- Background -->
  <rect width="1200" height="630" fill="url(#bgGradient)"/>

  <!-- Decorative ocean gradients -->
  <ellipse cx="1000" cy="150" rx="300" ry="200" fill="url(#oceanGradient)" opacity="0.4"/>
  <ellipse cx="200" cy="530" rx="250" ry="180" fill="url(#oceanGradient)" opacity="0.3"/>

  <!-- Wave patterns -->
  <path d="M 0 400 Q 300 350 600 400 T 1200 400 L 1200 630 L 0 630 Z" fill="#1E90A0" opacity="0.08"/>
  <path d="M 0 450 Q 250 420 500 450 T 1000 450 T 1200 450 L 1200 630 L 0 630 Z" fill="#4FD1C5" opacity="0.05"/>

  <!-- Caviar roe particles -->
  <circle cx="353.29516560010876" cy="159.68111857977166" r="3.205919874028364" fill="#CFAE58" opacity="0.2352116391333658"/>
  <circle cx="1024.4112171591078" cy="322.5984109573785" r="3.920409745502104" fill="#CFAE58" opacity="0.17763492149938834"/>
  <circle cx="469.2810922054509" cy="94.06302549095724" r="4.3602694667312685" fill="#CFAE58" opacity="0.2045371654004014"/>
  <circle cx="436.3928991339186" cy="98.38694018397811" r="2.211712106006841" fill="#CFAE58" opacity="0.2384428401144324"/>
  <circle cx="794.1108632672509" cy="225.936797378932" r="5.3526797968959166" fill="#CFAE58" opacity="0.22370631162700466"/>
  <circle cx="99.11471340166331" cy="412.51137259037324" r="4.158926592330996" fill="#CFAE58" opacity="0.19685750964395085"/>
  <circle cx="350.5364509100177" cy="363.70276162328713" r="5.609134316340911" fill="#CFAE58" opacity="0.128132532900738"/>
  <circle cx="442.2281075224637" cy="104.84363309498717" r="2.66151922681835" fill="#CFAE58" opacity="0.2222429063467359"/>
  <circle cx="2.8219668701151335" cy="110.34444718697304" r="5.113819560067155" fill="#CFAE58" opacity="0.11814582273825233"/>
  <circle cx="396.9265295842146" cy="47.07957507846434" r="5.915051812510372" fill="#CFAE58" opacity="0.21406841579204625"/>
  <circle cx="955.1088742841291" cy="107.31680226908954" r="4.334206799466" fill="#CFAE58" opacity="0.22738374599392006"/>
  <circle cx="849.5840511659186" cy="488.7574982925757" r="4.283456745569836" fill="#CFAE58" opacity="0.1908378150119277"/>
  <circle cx="712.5681486596477" cy="192.4070799447866" r="4.078584349098843" fill="#CFAE58" opacity="0.22918228669884705"/>
  <circle cx="1042.3335353665525" cy="543.8577149429163" r="2.836818797835739" fill="#CFAE58" opacity="0.19192691074490276"/>
  <circle cx="654.138870657877" cy="226.59410187784675" r="3.867462933266048" fill="#CFAE58" opacity="0.2456611661515001"/>
  <circle cx="300.59635298385484" cy="414.35427327192525" r="5.469069582370359" fill="#CFAE58" opacity="0.11875152595028876"/>
  <circle cx="1170.80340818628" cy="419.74053188798433" r="3.397556323990541" fill="#CFAE58" opacity="0.24600327686590656"/>
  <circle cx="319.85948926434713" cy="366.83193072482845" r="5.087772884735245" fill="#CFAE58" opacity="0.1564834986558456"/>
  <circle cx="686.0547376650466" cy="246.13382335869773" r="4.682244952695634" fill="#CFAE58" opacity="0.1835416958604429"/>
  <circle cx="424.15072877407" cy="425.60125656207" r="2.0937118296440786" fill="#CFAE58" opacity="0.20904030933184325"/>
  <circle cx="693.8723332522239" cy="575.1237358327219" r="2.8458191372051163" fill="#CFAE58" opacity="0.24366516172668667"/>
  <circle cx="406.80865078087163" cy="421.15083835079116" r="5.6516838453099405" fill="#CFAE58" opacity="0.15301786835244058"/>
  <circle cx="950.9464463588679" cy="104.82947329546393" r="3.838485043375684" fill="#CFAE58" opacity="0.17931077203814183"/>
  <circle cx="520.099440977347" cy="493.76352206866187" r="4.835149800673328" fill="#CFAE58" opacity="0.19516684783625113"/>
  <circle cx="497.5167974256983" cy="81.3057093656145" r="2.5367300090382052" fill="#CFAE58" opacity="0.19744484385838623"/>
  <circle cx="141.91626588856136" cy="509.9093941950117" r="3.7092360184866537" fill="#CFAE58" opacity="0.17956909203955104"/>
  <circle cx="227.10683654396976" cy="294.2727712309922" r="5.781330447423292" fill="#CFAE58" opacity="0.2291952553617655"/>
  <circle cx="87.29241911861428" cy="366.003346721917" r="4.0276632455902455" fill="#CFAE58" opacity="0.11040468249051062"/>
  <circle cx="199.88972070538208" cy="6.330599240121247" r="4.486397130582947" fill="#CFAE58" opacity="0.24796971761836098"/>
  <circle cx="611.2862894810419" cy="320.0699749543057" r="3.3540136046880917" fill="#CFAE58" opacity="0.10848014095339803"/>

  <!-- Border with glow -->
  <rect x="40" y="40" width="1120" height="550" fill="none" stroke="url(#goldGradient)" stroke-width="3" rx="12" filter="url(#softGlow)"/>

  <!-- Icon circle with premium background -->
  <circle cx="150" cy="200" r="75" fill="#CFAE58" opacity="0.15" filter="url(#softGlow)"/>
  <circle cx="150" cy="200" r="70" fill="#CFAE58" opacity="0.25"/>
  <text x="150" y="235" font-size="90" text-anchor="middle" fill="#CFAE58" filter="url(#glow)">🐟</text>

  <!-- Premium logo (crown) with enhanced styling -->
  <g transform="translate(100, 70)">
    <path d="M 30 20 L 40 35 L 35 35 Z M 50 15 L 60 35 L 45 35 Z M 65 20 L 75 35 L 70 35 Z M 30 35 L 75 35 L 73 45 L 32 45 Z"
          fill="url(#goldGradient)" filter="url(#glow)" stroke="#B89842" stroke-width="0.5"/>
    <circle cx="40" cy="25" r="3" fill="#4FD1C5" filter="url(#glow)"/>
    <circle cx="52" cy="20" r="4" fill="#4FD1C5" filter="url(#glow)"/>
    <circle cx="65" cy="25" r="3" fill="#4FD1C5" filter="url(#glow)"/>
  </g>

  <!-- Title with shadow -->
  <text x="280" y="180" font-family="Georgia, serif" font-size="72" font-weight="bold"
        fill="url(#goldGradient)" filter="url(#shadow)">Salmon &amp; Red Caviar</text>

  <!-- Subtitle with subtle glow -->
  <text x="280" y="230" font-family="Arial, sans-serif" font-size="36"
        fill="#D6DEE6" opacity="0.95" filter="url(#softGlow)">Pacific Salmon Species Guide</text>

  <!-- Brand name with letter spacing -->
  <text x="280" y="300" font-family="Georgia, serif" font-size="32" font-weight="bold"
        fill="#CFAE58" letter-spacing="4" filter="url(#glow)">ROYAL KETA</text>

  <!-- Russian tagline -->
  <text x="280" y="340" font-family="Arial, sans-serif" font-size="22" font-style="italic"
        fill="#8B95A1" opacity="0.8">От икринки к королевской</text>

  <!-- Location -->
  <text x="280" y="380" font-family="Arial, sans-serif" font-size="20"
        fill="#8B95A1" opacity="0.7">Невельский район, Сахалин</text>

  <!-- Website with glow -->
  <text x="100" y="570" font-family="Arial, sans-serif" font-size="30" font-weight="bold"
        fill="#4FD1C5" filter="url(#glow)">royalketa.com</text>

  <!-- Enhanced decorative salmon silhouette -->
  <g transform="translate(950, 480)" opacity="0.2" filter="url(#softGlow)">
    <ellipse cx="0" cy="0" rx="90" ry="35" fill="#CFAE58"/>
    <path d="M 90 0 L 120 -18 L 130 0 L 120 18 Z" fill="#CFAE58"/>
    <path d="M -25 -35 L 0 -45 L 25 -35 Z" fill="#CFAE58"/>
    <ellipse cx="-50" cy="0" rx="15" ry="12" fill="#0B0F14"/>
  </g>

  <!-- Additional decorative caviar clusters -->
  <g opacity="0.2">
    <circle cx="1050" cy="120" r="6" fill="#CFAE58"/>
    <circle cx="1065" cy="115" r="5" fill="#CFAE58"/>
    <circle cx="1058" cy="130" r="4" fill="#CFAE58"/>
    <circle cx="150" cy="500" r="5" fill="#4FD1C5"/>
    <circle cx="165" cy="508" r="4" fill="#4FD1C5"/>
    <circle cx="140" cy="512" r="5" fill="#4FD1C5"/>
  </g>
</svg>