<svg width="1200" height="630" xmlns="http://www.w3.org/2000/svg">
  <defs>
    <linearGradient id="bgGradient" x1="0%" y1="0%" x2="100%" y2="100%">
      <stop offset="0%" style="stop-color:#0B0F14;stop-opacity:1" />
      <stop offset="50%" style="stop-color:#0F1619;stop-opacity:1" />
      <stop offset="100%" style="stop-color:#0F1922;stop-opacity:1" />
    </linearGradient>
    <linearGradient id="goldGradient" x1="0%" y1="0%" x2="100%" y2="0%">
      <stop offset="0%" style="stop-color:#E5D596;stop-opacity:1" />
      <stop offset="50%" style="stop-color:#CFAE58;stop-opacity:1" />
      <stop offset="100%" style="stop-color:#B89842;stop-opacity:1" />
    </linearGradient>
    <radialGradient id="oceanGradient" cx="50%" cy="50%" r="50%">
      <stop offset="0%" style="stop-color:#4FD1C5;stop-opacity:0.3" />
      <stop offset="100%" style="stop-color:#1E90A0;stop-opacity:0.05" />
    </radialGradient>
    <filter id="glow">
      <feGaussianBlur stdDeviation="5" result="coloredBlur"/>
      <feMerge>
        <feMergeNode in="coloredBlur"/>
        <feMergeNode in="SourceGraphic"/>
      </feMerge>
    </filter>
    <filter id="softGlow">
      <feGaussianBlur stdDeviation="8" result="coloredBlur"/>
      <feMerge>
        <feMergeNode in="coloredBlur"/>
        <feMergeNode in="SourceGraphic"/>
      </feMerge>
    </filter>
    <filter id="shadow">
      <feDropShadow dx="0" dy="4" stdDeviation="8" flood-color="#000000" flood-opacity="0.5"/>
    </filter>
  </defs>

  <!-- Background -->
  <rect width="1200" height="630" fill="url(#bgGradient)"/>

  <!-- Decorative ocean gradients -->
  <ellipse cx="1000" cy="150" rx="300" ry="200" fill="url(#oceanGradient)" opacity="0.4"/>
  <ellipse cx="200" cy="530" rx="250" ry="180" fill="url(#oceanGradient)" opacity="0.3"/>

  <!-- Wave patterns -->
  <path d="M 0 400 Q 300 350 600 400 T 1200 400 L 1200 630 L 0 630 Z" fill="#1E90A0" opacity="0.08"/>
  <path d="M 0 450 Q 250 420 500 450 T 1000 450 T 1200 450 L 1200 630 L 0 630 Z" fill="#4FD1C5" opacity="0.05"/>

  <!-- Caviar roe particles -->
  <circle cx="1056.0511242360328" cy="147.35051113872493" r="4.005619218501783" fill="#CFAE58" opacity="0.24365034056255633"/>
  <circle cx="95.32819453993757" cy="608.4794205123006" r="2.308694811237465" fill="#CFAE58" opacity="0.14358596235173895"/>
  <circle cx="356.49205465662413" cy="400.20279954741915" r="2.998851689503727" fill="#CFAE58" opacity="0.19968253165220723"/>
  <circle cx="342.1713156921553" cy="628.0201737155412" r="3.3533186341050962" fill="#CFAE58" opacity="0.1926910141220496"/>
  <circle cx="1173.6269758716649" cy="354.8596288394278" r="3.6168141608655024" fill="#CFAE58" opacity="0.18458936934503412"/>
  <circle cx="642.9168451662487" cy="88.66932050291383" r="2.937327189119662" fill="#CFAE58" opacity="0.1878584123712475"/>
  <circle cx="1051.6303977003718" cy="585.2313047701203" r="3.5798341791080346" fill="#CFAE58" opacity="0.18948273177226194"/>
  <circle cx="2.760742551907658" cy="171.60884921011285" r="5.654423081893459" fill="#CFAE58" opacity="0.2031528969529576"/>
  <circle cx="490.674904694781" cy="38.44627853644079" r="4.078903142817909" fill="#CFAE58" opacity="0.20319050363442215"/>
  <circle cx="624.5888740847004" cy="529.6476192984744" r="2.398638389111938" fill="#CFAE58" opacity="0.21494771316098576"/>
  <circle cx="168.52111724994865" cy="56.19510688779223" r="2.9295134811833514" fill="#CFAE58" opacity="0.2345711609358361"/>
  <circle cx="1085.7224784515154" cy="377.8180138074217" r="4.542439871810922" fill="#CFAE58" opacity="0.1205424683339818"/>
  <circle cx="1172.0213949218025" cy="347.39104692861724" r="4.554055132634728" fill="#CFAE58" opacity="0.21722335040050283"/>
  <circle cx="615.3313504054399" cy="203.14856570127733" r="2.5333270801618526" fill="#CFAE58" opacity="0.11178543675000717"/>
  <circle cx="444.8626627279358" cy="330.1745395707139" r="2.656366800513834" fill="#CFAE58" opacity="0.16047188270303817"/>
  <circle cx="878.383678758477" cy="138.42021609552256" r="5.595204065174167" fill="#CFAE58" opacity="0.1617250630240817"/>
  <circle cx="968.6012159618991" cy="346.994678469647" r="2.0251570981837865" fill="#CFAE58" opacity="0.1184181495534642"/>
  <circle cx="1145.3402876751486" cy="576.923493540093" r="3.056284602049751" fill="#CFAE58" opacity="0.21913198325635497"/>
  <circle cx="278.09310458352996" cy="37.916747159923126" r="5.457852321609247" fill="#CFAE58" opacity="0.22241376658008433"/>
  <circle cx="1129.7139625924567" cy="600.6510098663277" r="5.128612900449056" fill="#CFAE58" opacity="0.1324474163787201"/>
  <circle cx="181.82657001545644" cy="148.57641137911506" r="2.8432885099747107" fill="#CFAE58" opacity="0.24770374226157854"/>
  <circle cx="1148.9400727496418" cy="406.06697957768216" r="4.661156643724068" fill="#CFAE58" opacity="0.13185309570198103"/>
  <circle cx="486.8506885026858" cy="308.1622898646947" r="5.7766666027079925" fill="#CFAE58" opacity="0.20653278632297775"/>
  <circle cx="712.8059665422995" cy="464.3932483148657" r="4.864203251745884" fill="#CFAE58" opacity="0.1019575482706171"/>
  <circle cx="156.8942904716101" cy="32.510178794371676" r="4.819910809776797" fill="#CFAE58" opacity="0.14715003212031258"/>
  <circle cx="1169.6627305022855" cy="449.88406261813395" r="2.405368012797087" fill="#CFAE58" opacity="0.21188516741182734"/>
  <circle cx="226.1836897162031" cy="301.4576306863943" r="3.0591159052506165" fill="#CFAE58" opacity="0.15165116276359278"/>
  <circle cx="485.71507731845526" cy="207.73423377685992" r="4.855942974223432" fill="#CFAE58" opacity="0.24979565346384755"/>
  <circle cx="920.8362894458571" cy="620.9666048259407" r="5.641406448859409" fill="#CFAE58" opacity="0.21756289959790606"/>
  <circle cx="150.84257211169913" cy="474.36599244282615" r="2.7625950875386622" fill="#CFAE58" opacity="0.23134976142236977"/>

  <!-- Border with glow -->
  <rect x="40" y="40" width="1120" height="550" fill="none" stroke="url(#goldGradient)" stroke-width="3" rx="12" filter="url(#softGlow)"/>

  <!-- Icon circle with premium background -->
  <circle cx="150" cy="200" r="75" fill="#CFAE58" opacity="0.15" filter="url(#softGlow)"/>
  <circle cx="150" cy="200" r="70" fill="#CFAE58" opacity="0.25"/>
  <text x="150" y="235" font-size="90" text-anchor="middle" fill="#CFAE58" filter="url(#glow)">🐟</text>

  <!-- Premium logo (crown) with enhanced styling -->
  <g transform="translate(100, 70)">
    <path d="M 30 20 L 40 35 L 35 35 Z M 50 15 L 60 35 L 45 35 Z M 65 20 L 75 35 L 70 35 Z M 30 35 L 75 35 L 73 45 L 32 45 Z"
          fill="url(#goldGradient)" filter="url(#glow)" stroke="#B89842" stroke-width="0.5"/>
    <circle cx="40" cy="25" r="3" fill="#4FD1C5" filter="url(#glow)"/>
    <circle cx="52" cy="20" r="4" fill="#4FD1C5" filter="url(#glow)"/>
    <circle cx="65" cy="25" r="3" fill="#4FD1C5" filter="url(#glow)"/>
  </g>

  <!-- Title with shadow -->
  <text x="280" y="180" font-family="Georgia, serif" font-size="72" font-weight="bold"
        fill="url(#goldGradient)" filter="url(#shadow)">Salmon &amp; Red Caviar</text>

  <!-- Subtitle with subtle glow -->
  <text x="280" y="230" font-family="Arial, sans-serif" font-size="36"
        fill="#D6DEE6" opacity="0.95" filter="url(#softGlow)">Pacific Salmon Species Guide</text>

  <!-- Brand name with letter spacing -->
  <text x="280" y="300" font-family="Georgia, serif" font-size="32" font-weight="bold"
        fill="#CFAE58" letter-spacing="4" filter="url(#glow)">ROYAL KETA</text>

  <!-- Russian tagline -->
  <text x="280" y="340" font-family="Arial, sans-serif" font-size="22" font-style="italic"
        fill="#8B95A1" opacity="0.8">От икринки к королевской</text>

  <!-- Location -->
  <text x="280" y="380" font-family="Arial, sans-serif" font-size="20"
        fill="#8B95A1" opacity="0.7">Невельский район, Сахалин</text>

  <!-- Website with glow -->
  <text x="100" y="570" font-family="Arial, sans-serif" font-size="30" font-weight="bold"
        fill="#4FD1C5" filter="url(#glow)">royalketa.com</text>

  <!-- Enhanced decorative salmon silhouette -->
  <g transform="translate(950, 480)" opacity="0.2" filter="url(#softGlow)">
    <ellipse cx="0" cy="0" rx="90" ry="35" fill="#CFAE58"/>
    <path d="M 90 0 L 120 -18 L 130 0 L 120 18 Z" fill="#CFAE58"/>
    <path d="M -25 -35 L 0 -45 L 25 -35 Z" fill="#CFAE58"/>
    <ellipse cx="-50" cy="0" rx="15" ry="12" fill="#0B0F14"/>
  </g>

  <!-- Additional decorative caviar clusters -->
  <g opacity="0.2">
    <circle cx="1050" cy="120" r="6" fill="#CFAE58"/>
    <circle cx="1065" cy="115" r="5" fill="#CFAE58"/>
    <circle cx="1058" cy="130" r="4" fill="#CFAE58"/>
    <circle cx="150" cy="500" r="5" fill="#4FD1C5"/>
    <circle cx="165" cy="508" r="4" fill="#4FD1C5"/>
    <circle cx="140" cy="512" r="5" fill="#4FD1C5"/>
  </g>
</svg>