<svg width="1200" height="630" xmlns="http://www.w3.org/2000/svg">
  <defs>
    <linearGradient id="bgGradient" x1="0%" y1="0%" x2="100%" y2="100%">
      <stop offset="0%" style="stop-color:#0B0F14;stop-opacity:1" />
      <stop offset="50%" style="stop-color:#0F1619;stop-opacity:1" />
      <stop offset="100%" style="stop-color:#0F1922;stop-opacity:1" />
    </linearGradient>
    <linearGradient id="goldGradient" x1="0%" y1="0%" x2="100%" y2="0%">
      <stop offset="0%" style="stop-color:#E5D596;stop-opacity:1" />
      <stop offset="50%" style="stop-color:#CFAE58;stop-opacity:1" />
      <stop offset="100%" style="stop-color:#B89842;stop-opacity:1" />
    </linearGradient>
    <radialGradient id="oceanGradient" cx="50%" cy="50%" r="50%">
      <stop offset="0%" style="stop-color:#4FD1C5;stop-opacity:0.3" />
      <stop offset="100%" style="stop-color:#1E90A0;stop-opacity:0.05" />
    </radialGradient>
    <filter id="glow">
      <feGaussianBlur stdDeviation="5" result="coloredBlur"/>
      <feMerge>
        <feMergeNode in="coloredBlur"/>
        <feMergeNode in="SourceGraphic"/>
      </feMerge>
    </filter>
    <filter id="softGlow">
      <feGaussianBlur stdDeviation="8" result="coloredBlur"/>
      <feMerge>
        <feMergeNode in="coloredBlur"/>
        <feMergeNode in="SourceGraphic"/>
      </feMerge>
    </filter>
    <filter id="shadow">
      <feDropShadow dx="0" dy="4" stdDeviation="8" flood-color="#000000" flood-opacity="0.5"/>
    </filter>
  </defs>

  <!-- Background -->
  <rect width="1200" height="630" fill="url(#bgGradient)"/>

  <!-- Decorative ocean gradients -->
  <ellipse cx="1000" cy="150" rx="300" ry="200" fill="url(#oceanGradient)" opacity="0.4"/>
  <ellipse cx="200" cy="530" rx="250" ry="180" fill="url(#oceanGradient)" opacity="0.3"/>

  <!-- Wave patterns -->
  <path d="M 0 400 Q 300 350 600 400 T 1200 400 L 1200 630 L 0 630 Z" fill="#1E90A0" opacity="0.08"/>
  <path d="M 0 450 Q 250 420 500 450 T 1000 450 T 1200 450 L 1200 630 L 0 630 Z" fill="#4FD1C5" opacity="0.05"/>

  <!-- Caviar roe particles -->
  <circle cx="1084.2530817279194" cy="138.352474903204" r="4.105501342029129" fill="#CFAE58" opacity="0.19221214900705488"/>
  <circle cx="476.05326074031467" cy="222.5052070553436" r="4.069301000880647" fill="#CFAE58" opacity="0.24020570264928848"/>
  <circle cx="363.9132714941093" cy="466.5755996104723" r="4.831791529499946" fill="#CFAE58" opacity="0.11257623642659909"/>
  <circle cx="628.3912395689371" cy="334.0760267958271" r="5.787774539814883" fill="#CFAE58" opacity="0.1024270673439422"/>
  <circle cx="661.256429947913" cy="275.8077207972392" r="5.314912872662654" fill="#CFAE58" opacity="0.13752830430544902"/>
  <circle cx="899.270463708056" cy="543.1164797678255" r="4.424193844752505" fill="#CFAE58" opacity="0.22805467749415914"/>
  <circle cx="771.1775629782995" cy="121.85247847626121" r="3.8428167718788044" fill="#CFAE58" opacity="0.14459231554628083"/>
  <circle cx="133.99731823312894" cy="381.62073506068157" r="2.967605938037857" fill="#CFAE58" opacity="0.17071452501564596"/>
  <circle cx="540.3271023355111" cy="115.8059407222056" r="2.8686530214326593" fill="#CFAE58" opacity="0.11064921096398747"/>
  <circle cx="915.8285954024946" cy="36.605234170734285" r="2.6712336079997208" fill="#CFAE58" opacity="0.22050630293106976"/>
  <circle cx="578.7169375456533" cy="89.34563764311699" r="5.456632379462648" fill="#CFAE58" opacity="0.17058768577818134"/>
  <circle cx="943.7935956317037" cy="288.67302814613515" r="3.80907812689352" fill="#CFAE58" opacity="0.18799193319764146"/>
  <circle cx="13.496050737024134" cy="626.3346034059306" r="5.955401422969511" fill="#CFAE58" opacity="0.1665917654991812"/>
  <circle cx="215.10824638103233" cy="105.36267660045102" r="4.181008124069283" fill="#CFAE58" opacity="0.1750722610404465"/>
  <circle cx="778.0276796444572" cy="588.2345675571578" r="4.216825379274496" fill="#CFAE58" opacity="0.2449557051187338"/>
  <circle cx="214.3664847573584" cy="224.41849228732124" r="2.4257814545000578" fill="#CFAE58" opacity="0.19348088279242256"/>
  <circle cx="304.37346928434283" cy="186.4725358210479" r="3.2378856019548055" fill="#CFAE58" opacity="0.20317622494749937"/>
  <circle cx="28.431697886438112" cy="114.50175587035285" r="5.911104594999106" fill="#CFAE58" opacity="0.12199398772253839"/>
  <circle cx="839.2483842367833" cy="129.86827365767786" r="5.5019623785036265" fill="#CFAE58" opacity="0.2099488157256592"/>
  <circle cx="266.4608556945031" cy="227.20539918367805" r="2.853425655672411" fill="#CFAE58" opacity="0.22626314296084796"/>
  <circle cx="109.84510847358936" cy="149.24450301160425" r="4.6289126938952725" fill="#CFAE58" opacity="0.15718977377981241"/>
  <circle cx="593.265540502467" cy="21.086203824672708" r="2.4789807361526233" fill="#CFAE58" opacity="0.1754094407790846"/>
  <circle cx="259.2863075085418" cy="236.71216501335408" r="4.802493043682676" fill="#CFAE58" opacity="0.16555082327938192"/>
  <circle cx="825.9397637229101" cy="550.4361964096582" r="2.39952395491087" fill="#CFAE58" opacity="0.22723813274290852"/>
  <circle cx="576.0798064946339" cy="254.8117057129307" r="2.898687431438421" fill="#CFAE58" opacity="0.1212323929786019"/>
  <circle cx="49.82959130832327" cy="532.6563558173084" r="4.710917233833879" fill="#CFAE58" opacity="0.22639775220623864"/>
  <circle cx="705.7734379585428" cy="23.659658304950092" r="5.4611240673027135" fill="#CFAE58" opacity="0.2260443510730889"/>
  <circle cx="102.92817917907442" cy="425.9740597578595" r="4.968023786503883" fill="#CFAE58" opacity="0.24265137116417884"/>
  <circle cx="15.936497527692595" cy="316.42516492351353" r="3.2212075253054016" fill="#CFAE58" opacity="0.17654560143978618"/>
  <circle cx="92.29286270061871" cy="461.55699668955435" r="5.487858040291291" fill="#CFAE58" opacity="0.20531332206680675"/>

  <!-- Border with glow -->
  <rect x="40" y="40" width="1120" height="550" fill="none" stroke="url(#goldGradient)" stroke-width="3" rx="12" filter="url(#softGlow)"/>

  <!-- Icon circle with premium background -->
  <circle cx="150" cy="200" r="75" fill="#CFAE58" opacity="0.15" filter="url(#softGlow)"/>
  <circle cx="150" cy="200" r="70" fill="#CFAE58" opacity="0.25"/>
  <text x="150" y="235" font-size="90" text-anchor="middle" fill="#CFAE58" filter="url(#glow)">🐟</text>

  <!-- Premium logo (crown) with enhanced styling -->
  <g transform="translate(100, 70)">
    <path d="M 30 20 L 40 35 L 35 35 Z M 50 15 L 60 35 L 45 35 Z M 65 20 L 75 35 L 70 35 Z M 30 35 L 75 35 L 73 45 L 32 45 Z"
          fill="url(#goldGradient)" filter="url(#glow)" stroke="#B89842" stroke-width="0.5"/>
    <circle cx="40" cy="25" r="3" fill="#4FD1C5" filter="url(#glow)"/>
    <circle cx="52" cy="20" r="4" fill="#4FD1C5" filter="url(#glow)"/>
    <circle cx="65" cy="25" r="3" fill="#4FD1C5" filter="url(#glow)"/>
  </g>

  <!-- Title with shadow -->
  <text x="280" y="180" font-family="Georgia, serif" font-size="72" font-weight="bold"
        fill="url(#goldGradient)" filter="url(#shadow)">Salmon &amp; Red Caviar</text>

  <!-- Subtitle with subtle glow -->
  <text x="280" y="230" font-family="Arial, sans-serif" font-size="36"
        fill="#D6DEE6" opacity="0.95" filter="url(#softGlow)">Pacific Salmon Species Guide</text>

  <!-- Brand name with letter spacing -->
  <text x="280" y="300" font-family="Georgia, serif" font-size="32" font-weight="bold"
        fill="#CFAE58" letter-spacing="4" filter="url(#glow)">ROYAL KETA</text>

  <!-- Russian tagline -->
  <text x="280" y="340" font-family="Arial, sans-serif" font-size="22" font-style="italic"
        fill="#8B95A1" opacity="0.8">От икринки к королевской</text>

  <!-- Location -->
  <text x="280" y="380" font-family="Arial, sans-serif" font-size="20"
        fill="#8B95A1" opacity="0.7">Невельский район, Сахалин</text>

  <!-- Website with glow -->
  <text x="100" y="570" font-family="Arial, sans-serif" font-size="30" font-weight="bold"
        fill="#4FD1C5" filter="url(#glow)">royalketa.com</text>

  <!-- Enhanced decorative salmon silhouette -->
  <g transform="translate(950, 480)" opacity="0.2" filter="url(#softGlow)">
    <ellipse cx="0" cy="0" rx="90" ry="35" fill="#CFAE58"/>
    <path d="M 90 0 L 120 -18 L 130 0 L 120 18 Z" fill="#CFAE58"/>
    <path d="M -25 -35 L 0 -45 L 25 -35 Z" fill="#CFAE58"/>
    <ellipse cx="-50" cy="0" rx="15" ry="12" fill="#0B0F14"/>
  </g>

  <!-- Additional decorative caviar clusters -->
  <g opacity="0.2">
    <circle cx="1050" cy="120" r="6" fill="#CFAE58"/>
    <circle cx="1065" cy="115" r="5" fill="#CFAE58"/>
    <circle cx="1058" cy="130" r="4" fill="#CFAE58"/>
    <circle cx="150" cy="500" r="5" fill="#4FD1C5"/>
    <circle cx="165" cy="508" r="4" fill="#4FD1C5"/>
    <circle cx="140" cy="512" r="5" fill="#4FD1C5"/>
  </g>
</svg>