<svg width="1200" height="630" xmlns="http://www.w3.org/2000/svg">
  <defs>
    <linearGradient id="bgGradient" x1="0%" y1="0%" x2="100%" y2="100%">
      <stop offset="0%" style="stop-color:#0B0F14;stop-opacity:1" />
      <stop offset="50%" style="stop-color:#0F1619;stop-opacity:1" />
      <stop offset="100%" style="stop-color:#0F1922;stop-opacity:1" />
    </linearGradient>
    <linearGradient id="goldGradient" x1="0%" y1="0%" x2="100%" y2="0%">
      <stop offset="0%" style="stop-color:#E5D596;stop-opacity:1" />
      <stop offset="50%" style="stop-color:#CFAE58;stop-opacity:1" />
      <stop offset="100%" style="stop-color:#B89842;stop-opacity:1" />
    </linearGradient>
    <radialGradient id="oceanGradient" cx="50%" cy="50%" r="50%">
      <stop offset="0%" style="stop-color:#4FD1C5;stop-opacity:0.3" />
      <stop offset="100%" style="stop-color:#1E90A0;stop-opacity:0.05" />
    </radialGradient>
    <filter id="glow">
      <feGaussianBlur stdDeviation="5" result="coloredBlur"/>
      <feMerge>
        <feMergeNode in="coloredBlur"/>
        <feMergeNode in="SourceGraphic"/>
      </feMerge>
    </filter>
    <filter id="softGlow">
      <feGaussianBlur stdDeviation="8" result="coloredBlur"/>
      <feMerge>
        <feMergeNode in="coloredBlur"/>
        <feMergeNode in="SourceGraphic"/>
      </feMerge>
    </filter>
    <filter id="shadow">
      <feDropShadow dx="0" dy="4" stdDeviation="8" flood-color="#000000" flood-opacity="0.5"/>
    </filter>
  </defs>

  <!-- Background -->
  <rect width="1200" height="630" fill="url(#bgGradient)"/>

  <!-- Decorative ocean gradients -->
  <ellipse cx="1000" cy="150" rx="300" ry="200" fill="url(#oceanGradient)" opacity="0.4"/>
  <ellipse cx="200" cy="530" rx="250" ry="180" fill="url(#oceanGradient)" opacity="0.3"/>

  <!-- Wave patterns -->
  <path d="M 0 400 Q 300 350 600 400 T 1200 400 L 1200 630 L 0 630 Z" fill="#1E90A0" opacity="0.08"/>
  <path d="M 0 450 Q 250 420 500 450 T 1000 450 T 1200 450 L 1200 630 L 0 630 Z" fill="#4FD1C5" opacity="0.05"/>

  <!-- Caviar roe particles -->
  <circle cx="863.6497310882929" cy="569.909974935562" r="4.1917103900269215" fill="#CFAE58" opacity="0.11748942365182094"/>
  <circle cx="785.6761280489018" cy="546.9378313148699" r="4.48422522725558" fill="#CFAE58" opacity="0.12409713411842656"/>
  <circle cx="983.0990409879365" cy="534.420360676626" r="5.266505646733641" fill="#CFAE58" opacity="0.17161652646863018"/>
  <circle cx="587.5656849343114" cy="27.736018881572164" r="5.918025279166546" fill="#CFAE58" opacity="0.21541565434200816"/>
  <circle cx="232.17702791775636" cy="485.2185128862455" r="3.3520744482876625" fill="#CFAE58" opacity="0.12853969878652724"/>
  <circle cx="571.654432904056" cy="143.80573670950488" r="5.116487750610249" fill="#CFAE58" opacity="0.12741750170136643"/>
  <circle cx="924.4094143862593" cy="537.8830864004443" r="2.671238998540949" fill="#CFAE58" opacity="0.13964833681064662"/>
  <circle cx="591.357148888559" cy="220.99256238043685" r="2.3779779669999774" fill="#CFAE58" opacity="0.1306013487586341"/>
  <circle cx="1004.4623819650559" cy="494.0510147885974" r="4.762902584594301" fill="#CFAE58" opacity="0.21821476271061005"/>
  <circle cx="429.08651378161903" cy="476.1119729117524" r="2.98508293546686" fill="#CFAE58" opacity="0.19462449618211833"/>
  <circle cx="518.9763937671416" cy="161.1740244883125" r="5.548501396228078" fill="#CFAE58" opacity="0.16051740831517808"/>
  <circle cx="1102.494111308877" cy="126.3018453629457" r="3.5003570176617393" fill="#CFAE58" opacity="0.23120646863705754"/>
  <circle cx="236.90012083957836" cy="256.46191972078805" r="5.63650784271738" fill="#CFAE58" opacity="0.1228559015001265"/>
  <circle cx="51.36834678216178" cy="46.82249366118212" r="3.6834733231068504" fill="#CFAE58" opacity="0.1493373246312258"/>
  <circle cx="95.63930104553621" cy="229.16377330774452" r="5.080892824251631" fill="#CFAE58" opacity="0.13543996766317673"/>
  <circle cx="675.7210367046822" cy="217.26672657436407" r="2.1763824283233535" fill="#CFAE58" opacity="0.22306388921784787"/>
  <circle cx="1118.4437110128767" cy="524.9997181126563" r="3.7436496398537646" fill="#CFAE58" opacity="0.21302645463571995"/>
  <circle cx="1133.3020262640907" cy="303.14744737495226" r="3.9350990973362805" fill="#CFAE58" opacity="0.11174455431671138"/>
  <circle cx="288.28329871998193" cy="589.6492597378392" r="3.204297838799821" fill="#CFAE58" opacity="0.23679647380440455"/>
  <circle cx="901.9409738790677" cy="281.2496298259942" r="3.2391262006609773" fill="#CFAE58" opacity="0.17205670978842985"/>
  <circle cx="1083.88650261926" cy="528.6782353822724" r="3.4382474085248065" fill="#CFAE58" opacity="0.1741614512381171"/>
  <circle cx="832.5251447199827" cy="510.47517668896006" r="4.268347233244574" fill="#CFAE58" opacity="0.18337494395939885"/>
  <circle cx="495.0696179531491" cy="302.7591199770036" r="5.2386626561488825" fill="#CFAE58" opacity="0.16494738198286052"/>
  <circle cx="477.84716135640787" cy="119.62622845095" r="4.579088181978154" fill="#CFAE58" opacity="0.10389180615674894"/>
  <circle cx="892.0562434371888" cy="553.296476264753" r="2.9345199565126223" fill="#CFAE58" opacity="0.2056501108685429"/>
  <circle cx="675.7297215915323" cy="466.26959524420005" r="4.980494297227969" fill="#CFAE58" opacity="0.22846949423873858"/>
  <circle cx="1073.2435949818641" cy="384.56328909874196" r="2.3864189983149506" fill="#CFAE58" opacity="0.20015476071747035"/>
  <circle cx="994.7564220374827" cy="459.24458062800966" r="4.025687662993899" fill="#CFAE58" opacity="0.17606692427688908"/>
  <circle cx="735.0924603759399" cy="261.1190062504345" r="5.681512410456154" fill="#CFAE58" opacity="0.23646248719123197"/>
  <circle cx="656.9038238501131" cy="194.5556423362099" r="3.494164758456803" fill="#CFAE58" opacity="0.10144360197094113"/>

  <!-- Border with glow -->
  <rect x="40" y="40" width="1120" height="550" fill="none" stroke="url(#goldGradient)" stroke-width="3" rx="12" filter="url(#softGlow)"/>

  <!-- Icon circle with premium background -->
  <circle cx="150" cy="200" r="75" fill="#CFAE58" opacity="0.15" filter="url(#softGlow)"/>
  <circle cx="150" cy="200" r="70" fill="#CFAE58" opacity="0.25"/>
  <text x="150" y="235" font-size="90" text-anchor="middle" fill="#CFAE58" filter="url(#glow)">🐟</text>

  <!-- Premium logo (crown) with enhanced styling -->
  <g transform="translate(100, 70)">
    <path d="M 30 20 L 40 35 L 35 35 Z M 50 15 L 60 35 L 45 35 Z M 65 20 L 75 35 L 70 35 Z M 30 35 L 75 35 L 73 45 L 32 45 Z"
          fill="url(#goldGradient)" filter="url(#glow)" stroke="#B89842" stroke-width="0.5"/>
    <circle cx="40" cy="25" r="3" fill="#4FD1C5" filter="url(#glow)"/>
    <circle cx="52" cy="20" r="4" fill="#4FD1C5" filter="url(#glow)"/>
    <circle cx="65" cy="25" r="3" fill="#4FD1C5" filter="url(#glow)"/>
  </g>

  <!-- Title with shadow -->
  <text x="280" y="180" font-family="Georgia, serif" font-size="72" font-weight="bold"
        fill="url(#goldGradient)" filter="url(#shadow)">Salmon &amp; Red Caviar</text>

  <!-- Subtitle with subtle glow -->
  <text x="280" y="230" font-family="Arial, sans-serif" font-size="36"
        fill="#D6DEE6" opacity="0.95" filter="url(#softGlow)">Pacific Salmon Species Guide</text>

  <!-- Brand name with letter spacing -->
  <text x="280" y="300" font-family="Georgia, serif" font-size="32" font-weight="bold"
        fill="#CFAE58" letter-spacing="4" filter="url(#glow)">ROYAL KETA</text>

  <!-- Russian tagline -->
  <text x="280" y="340" font-family="Arial, sans-serif" font-size="22" font-style="italic"
        fill="#8B95A1" opacity="0.8">От икринки к королевской</text>

  <!-- Location -->
  <text x="280" y="380" font-family="Arial, sans-serif" font-size="20"
        fill="#8B95A1" opacity="0.7">Невельский район, Сахалин</text>

  <!-- Website with glow -->
  <text x="100" y="570" font-family="Arial, sans-serif" font-size="30" font-weight="bold"
        fill="#4FD1C5" filter="url(#glow)">royalketa.com</text>

  <!-- Enhanced decorative salmon silhouette -->
  <g transform="translate(950, 480)" opacity="0.2" filter="url(#softGlow)">
    <ellipse cx="0" cy="0" rx="90" ry="35" fill="#CFAE58"/>
    <path d="M 90 0 L 120 -18 L 130 0 L 120 18 Z" fill="#CFAE58"/>
    <path d="M -25 -35 L 0 -45 L 25 -35 Z" fill="#CFAE58"/>
    <ellipse cx="-50" cy="0" rx="15" ry="12" fill="#0B0F14"/>
  </g>

  <!-- Additional decorative caviar clusters -->
  <g opacity="0.2">
    <circle cx="1050" cy="120" r="6" fill="#CFAE58"/>
    <circle cx="1065" cy="115" r="5" fill="#CFAE58"/>
    <circle cx="1058" cy="130" r="4" fill="#CFAE58"/>
    <circle cx="150" cy="500" r="5" fill="#4FD1C5"/>
    <circle cx="165" cy="508" r="4" fill="#4FD1C5"/>
    <circle cx="140" cy="512" r="5" fill="#4FD1C5"/>
  </g>
</svg>