<svg width="1200" height="630" xmlns="http://www.w3.org/2000/svg">
  <defs>
    <linearGradient id="bgGradient" x1="0%" y1="0%" x2="100%" y2="100%">
      <stop offset="0%" style="stop-color:#0B0F14;stop-opacity:1" />
      <stop offset="50%" style="stop-color:#0F1619;stop-opacity:1" />
      <stop offset="100%" style="stop-color:#0F1922;stop-opacity:1" />
    </linearGradient>
    <linearGradient id="goldGradient" x1="0%" y1="0%" x2="100%" y2="0%">
      <stop offset="0%" style="stop-color:#E5D596;stop-opacity:1" />
      <stop offset="50%" style="stop-color:#CFAE58;stop-opacity:1" />
      <stop offset="100%" style="stop-color:#B89842;stop-opacity:1" />
    </linearGradient>
    <radialGradient id="oceanGradient" cx="50%" cy="50%" r="50%">
      <stop offset="0%" style="stop-color:#4FD1C5;stop-opacity:0.3" />
      <stop offset="100%" style="stop-color:#1E90A0;stop-opacity:0.05" />
    </radialGradient>
    <filter id="glow">
      <feGaussianBlur stdDeviation="5" result="coloredBlur"/>
      <feMerge>
        <feMergeNode in="coloredBlur"/>
        <feMergeNode in="SourceGraphic"/>
      </feMerge>
    </filter>
    <filter id="softGlow">
      <feGaussianBlur stdDeviation="8" result="coloredBlur"/>
      <feMerge>
        <feMergeNode in="coloredBlur"/>
        <feMergeNode in="SourceGraphic"/>
      </feMerge>
    </filter>
    <filter id="shadow">
      <feDropShadow dx="0" dy="4" stdDeviation="8" flood-color="#000000" flood-opacity="0.5"/>
    </filter>
  </defs>

  <!-- Background -->
  <rect width="1200" height="630" fill="url(#bgGradient)"/>

  <!-- Decorative ocean gradients -->
  <ellipse cx="1000" cy="150" rx="300" ry="200" fill="url(#oceanGradient)" opacity="0.4"/>
  <ellipse cx="200" cy="530" rx="250" ry="180" fill="url(#oceanGradient)" opacity="0.3"/>

  <!-- Wave patterns -->
  <path d="M 0 400 Q 300 350 600 400 T 1200 400 L 1200 630 L 0 630 Z" fill="#1E90A0" opacity="0.08"/>
  <path d="M 0 450 Q 250 420 500 450 T 1000 450 T 1200 450 L 1200 630 L 0 630 Z" fill="#4FD1C5" opacity="0.05"/>

  <!-- Caviar roe particles -->
  <circle cx="712.314487942" cy="309.60563253977995" r="4.022036752332461" fill="#CFAE58" opacity="0.11115067486836756"/>
  <circle cx="471.95262392146856" cy="572.4033095555436" r="4.38828567589709" fill="#CFAE58" opacity="0.11458094254869922"/>
  <circle cx="243.72005971352593" cy="196.5104100710486" r="5.043698189660143" fill="#CFAE58" opacity="0.20153827893247675"/>
  <circle cx="115.9616182937289" cy="349.3166062681153" r="2.9317873398462453" fill="#CFAE58" opacity="0.12580765371762215"/>
  <circle cx="827.3241027295481" cy="116.6745353673749" r="3.352526086560551" fill="#CFAE58" opacity="0.10604896161500749"/>
  <circle cx="1140.2141600232503" cy="91.04957047492287" r="5.653074380083167" fill="#CFAE58" opacity="0.23345631689056448"/>
  <circle cx="325.46858456094157" cy="261.0378019660358" r="2.6530256396461214" fill="#CFAE58" opacity="0.20775620855244512"/>
  <circle cx="940.29483871851" cy="542.8734127708956" r="3.058124705628172" fill="#CFAE58" opacity="0.22959935530479667"/>
  <circle cx="272.6479974043692" cy="626.970999643074" r="4.656671730629282" fill="#CFAE58" opacity="0.24859857550007966"/>
  <circle cx="1080.3466837245005" cy="606.4410692004162" r="3.9682981631231176" fill="#CFAE58" opacity="0.24596101249739297"/>
  <circle cx="941.7151875918839" cy="311.0072333731146" r="3.639263090556792" fill="#CFAE58" opacity="0.11696087791223747"/>
  <circle cx="738.7038105447497" cy="217.16044961215667" r="4.117785100130508" fill="#CFAE58" opacity="0.23692317982891561"/>
  <circle cx="44.5600984242132" cy="470.8354924710633" r="5.738669085471313" fill="#CFAE58" opacity="0.19484637876475708"/>
  <circle cx="20.410579497854187" cy="321.50548413959996" r="4.568705146403936" fill="#CFAE58" opacity="0.15820544252111168"/>
  <circle cx="60.158271287680606" cy="222.70261798715234" r="3.7833319390919353" fill="#CFAE58" opacity="0.21367800680694674"/>
  <circle cx="608.6323063637267" cy="504.51423424801993" r="5.006039404717234" fill="#CFAE58" opacity="0.13813937244482954"/>
  <circle cx="1097.7129105540312" cy="443.2692416489208" r="2.3096515198993544" fill="#CFAE58" opacity="0.22090004228020088"/>
  <circle cx="575.3296356086531" cy="59.634676610834084" r="3.8824534918895033" fill="#CFAE58" opacity="0.19162885519642714"/>
  <circle cx="37.890804590593504" cy="398.63704344503043" r="5.107113568487469" fill="#CFAE58" opacity="0.2232032962180609"/>
  <circle cx="672.6506150584922" cy="65.61072661146139" r="2.891288125625807" fill="#CFAE58" opacity="0.23542900265953454"/>
  <circle cx="180.4113822110085" cy="254.0777265400631" r="4.179077048258806" fill="#CFAE58" opacity="0.1779786362337426"/>
  <circle cx="286.2129022008519" cy="383.94028172984684" r="5.3332779190440185" fill="#CFAE58" opacity="0.11089823291210962"/>
  <circle cx="1110.7485535848687" cy="480.42108547669545" r="4.70941377178903" fill="#CFAE58" opacity="0.24060523223514296"/>
  <circle cx="393.3254339571702" cy="242.41675351303368" r="5.2154917654346145" fill="#CFAE58" opacity="0.23443278592161637"/>
  <circle cx="1124.382416612234" cy="427.5853110700766" r="4.651407681066929" fill="#CFAE58" opacity="0.2251982358501334"/>
  <circle cx="353.9906812598428" cy="331.2950063653718" r="2.4313501538772284" fill="#CFAE58" opacity="0.10844902233921398"/>
  <circle cx="460.28501526870906" cy="297.10098163852393" r="2.080099164827846" fill="#CFAE58" opacity="0.24396977779811854"/>
  <circle cx="914.02790979643" cy="496.46237223880865" r="3.0296913583651586" fill="#CFAE58" opacity="0.13374100377381828"/>
  <circle cx="685.383488475139" cy="47.948096502339766" r="5.35850970398543" fill="#CFAE58" opacity="0.22520585768938547"/>
  <circle cx="790.5086047835049" cy="367.70549677310555" r="5.07221888251569" fill="#CFAE58" opacity="0.16982818517256032"/>

  <!-- Border with glow -->
  <rect x="40" y="40" width="1120" height="550" fill="none" stroke="url(#goldGradient)" stroke-width="3" rx="12" filter="url(#softGlow)"/>

  <!-- Icon circle with premium background -->
  <circle cx="150" cy="200" r="75" fill="#CFAE58" opacity="0.15" filter="url(#softGlow)"/>
  <circle cx="150" cy="200" r="70" fill="#CFAE58" opacity="0.25"/>
  <text x="150" y="235" font-size="90" text-anchor="middle" fill="#CFAE58" filter="url(#glow)">🐟</text>

  <!-- Premium logo (crown) with enhanced styling -->
  <g transform="translate(100, 70)">
    <path d="M 30 20 L 40 35 L 35 35 Z M 50 15 L 60 35 L 45 35 Z M 65 20 L 75 35 L 70 35 Z M 30 35 L 75 35 L 73 45 L 32 45 Z"
          fill="url(#goldGradient)" filter="url(#glow)" stroke="#B89842" stroke-width="0.5"/>
    <circle cx="40" cy="25" r="3" fill="#4FD1C5" filter="url(#glow)"/>
    <circle cx="52" cy="20" r="4" fill="#4FD1C5" filter="url(#glow)"/>
    <circle cx="65" cy="25" r="3" fill="#4FD1C5" filter="url(#glow)"/>
  </g>

  <!-- Title with shadow -->
  <text x="280" y="180" font-family="Georgia, serif" font-size="72" font-weight="bold"
        fill="url(#goldGradient)" filter="url(#shadow)">Salmon &amp; Red Caviar</text>

  <!-- Subtitle with subtle glow -->
  <text x="280" y="230" font-family="Arial, sans-serif" font-size="36"
        fill="#D6DEE6" opacity="0.95" filter="url(#softGlow)">Pacific Salmon Species Guide</text>

  <!-- Brand name with letter spacing -->
  <text x="280" y="300" font-family="Georgia, serif" font-size="32" font-weight="bold"
        fill="#CFAE58" letter-spacing="4" filter="url(#glow)">ROYAL KETA</text>

  <!-- Russian tagline -->
  <text x="280" y="340" font-family="Arial, sans-serif" font-size="22" font-style="italic"
        fill="#8B95A1" opacity="0.8">От икринки к королевской</text>

  <!-- Location -->
  <text x="280" y="380" font-family="Arial, sans-serif" font-size="20"
        fill="#8B95A1" opacity="0.7">Невельский район, Сахалин</text>

  <!-- Website with glow -->
  <text x="100" y="570" font-family="Arial, sans-serif" font-size="30" font-weight="bold"
        fill="#4FD1C5" filter="url(#glow)">royalketa.com</text>

  <!-- Enhanced decorative salmon silhouette -->
  <g transform="translate(950, 480)" opacity="0.2" filter="url(#softGlow)">
    <ellipse cx="0" cy="0" rx="90" ry="35" fill="#CFAE58"/>
    <path d="M 90 0 L 120 -18 L 130 0 L 120 18 Z" fill="#CFAE58"/>
    <path d="M -25 -35 L 0 -45 L 25 -35 Z" fill="#CFAE58"/>
    <ellipse cx="-50" cy="0" rx="15" ry="12" fill="#0B0F14"/>
  </g>

  <!-- Additional decorative caviar clusters -->
  <g opacity="0.2">
    <circle cx="1050" cy="120" r="6" fill="#CFAE58"/>
    <circle cx="1065" cy="115" r="5" fill="#CFAE58"/>
    <circle cx="1058" cy="130" r="4" fill="#CFAE58"/>
    <circle cx="150" cy="500" r="5" fill="#4FD1C5"/>
    <circle cx="165" cy="508" r="4" fill="#4FD1C5"/>
    <circle cx="140" cy="512" r="5" fill="#4FD1C5"/>
  </g>
</svg>