<svg width="1200" height="630" xmlns="http://www.w3.org/2000/svg">
  <defs>
    <linearGradient id="bgGradient" x1="0%" y1="0%" x2="100%" y2="100%">
      <stop offset="0%" style="stop-color:#0B0F14;stop-opacity:1" />
      <stop offset="50%" style="stop-color:#0F1619;stop-opacity:1" />
      <stop offset="100%" style="stop-color:#0F1922;stop-opacity:1" />
    </linearGradient>
    <linearGradient id="goldGradient" x1="0%" y1="0%" x2="100%" y2="0%">
      <stop offset="0%" style="stop-color:#E5D596;stop-opacity:1" />
      <stop offset="50%" style="stop-color:#CFAE58;stop-opacity:1" />
      <stop offset="100%" style="stop-color:#B89842;stop-opacity:1" />
    </linearGradient>
    <radialGradient id="oceanGradient" cx="50%" cy="50%" r="50%">
      <stop offset="0%" style="stop-color:#4FD1C5;stop-opacity:0.3" />
      <stop offset="100%" style="stop-color:#1E90A0;stop-opacity:0.05" />
    </radialGradient>
    <filter id="glow">
      <feGaussianBlur stdDeviation="5" result="coloredBlur"/>
      <feMerge>
        <feMergeNode in="coloredBlur"/>
        <feMergeNode in="SourceGraphic"/>
      </feMerge>
    </filter>
    <filter id="softGlow">
      <feGaussianBlur stdDeviation="8" result="coloredBlur"/>
      <feMerge>
        <feMergeNode in="coloredBlur"/>
        <feMergeNode in="SourceGraphic"/>
      </feMerge>
    </filter>
    <filter id="shadow">
      <feDropShadow dx="0" dy="4" stdDeviation="8" flood-color="#000000" flood-opacity="0.5"/>
    </filter>
  </defs>

  <!-- Background -->
  <rect width="1200" height="630" fill="url(#bgGradient)"/>

  <!-- Decorative ocean gradients -->
  <ellipse cx="1000" cy="150" rx="300" ry="200" fill="url(#oceanGradient)" opacity="0.4"/>
  <ellipse cx="200" cy="530" rx="250" ry="180" fill="url(#oceanGradient)" opacity="0.3"/>

  <!-- Wave patterns -->
  <path d="M 0 400 Q 300 350 600 400 T 1200 400 L 1200 630 L 0 630 Z" fill="#1E90A0" opacity="0.08"/>
  <path d="M 0 450 Q 250 420 500 450 T 1000 450 T 1200 450 L 1200 630 L 0 630 Z" fill="#4FD1C5" opacity="0.05"/>

  <!-- Caviar roe particles -->
  <circle cx="718.0974724873575" cy="212.49440906034155" r="3.2777803515646857" fill="#CFAE58" opacity="0.12857717066212282"/>
  <circle cx="727.2130933381802" cy="61.84169649631278" r="4.535889208890689" fill="#CFAE58" opacity="0.2270310173485894"/>
  <circle cx="367.2831353833623" cy="438.7503648687395" r="4.612404039380598" fill="#CFAE58" opacity="0.23348172242173054"/>
  <circle cx="138.4253525029323" cy="420.26818848682467" r="5.787189135563355" fill="#CFAE58" opacity="0.24457077408045194"/>
  <circle cx="1084.6476873818083" cy="427.076502260456" r="4.706129505996847" fill="#CFAE58" opacity="0.13996985437468257"/>
  <circle cx="195.1085690041253" cy="125.79210079554504" r="4.573051330042491" fill="#CFAE58" opacity="0.15192854659515087"/>
  <circle cx="837.4951324974953" cy="514.3671221401257" r="3.7126250531495963" fill="#CFAE58" opacity="0.21728294114767496"/>
  <circle cx="750.6096871054019" cy="261.2143820936954" r="2.7018703947448683" fill="#CFAE58" opacity="0.20124797071448497"/>
  <circle cx="640.1377249643774" cy="530.7528233905733" r="5.788432444084066" fill="#CFAE58" opacity="0.1797725918224407"/>
  <circle cx="400.0582957819801" cy="447.46595473420325" r="3.4707969402274896" fill="#CFAE58" opacity="0.17343091824742"/>
  <circle cx="180.94325396093595" cy="340.0456281369775" r="2.177234962371944" fill="#CFAE58" opacity="0.13023015318390904"/>
  <circle cx="31.427227587109474" cy="540.6810614055581" r="3.792569487776185" fill="#CFAE58" opacity="0.24665037379158797"/>
  <circle cx="402.86097415052984" cy="443.2589260343401" r="4.494972941017552" fill="#CFAE58" opacity="0.18441892980790653"/>
  <circle cx="353.70816260342764" cy="295.5199041660743" r="5.547215849897434" fill="#CFAE58" opacity="0.23083283186550985"/>
  <circle cx="383.70272084612117" cy="187.68319123204944" r="3.1728402796963784" fill="#CFAE58" opacity="0.11498541451561901"/>
  <circle cx="943.1199943723549" cy="390.8678392271198" r="5.546130517651507" fill="#CFAE58" opacity="0.17895829641967625"/>
  <circle cx="248.51550825737277" cy="533.1941192586388" r="4.815872359284587" fill="#CFAE58" opacity="0.203352574048849"/>
  <circle cx="61.28869575114586" cy="324.21516592064745" r="5.449501191100971" fill="#CFAE58" opacity="0.24667383989967542"/>
  <circle cx="789.3181169170889" cy="119.52605399024466" r="2.1783907778478957" fill="#CFAE58" opacity="0.1099680751774446"/>
  <circle cx="1135.4580270074812" cy="625.1470770808033" r="4.112474700543512" fill="#CFAE58" opacity="0.20016503621203177"/>
  <circle cx="415.5766666345405" cy="123.93035441793693" r="3.422282788825967" fill="#CFAE58" opacity="0.18757671687080157"/>
  <circle cx="751.3587613927855" cy="325.382883028139" r="2.8947215624006506" fill="#CFAE58" opacity="0.16505225578982946"/>
  <circle cx="84.43655014343254" cy="89.70032693806452" r="4.14321458219065" fill="#CFAE58" opacity="0.13596406990377657"/>
  <circle cx="38.143549345594295" cy="477.4183419084753" r="2.172839050786359" fill="#CFAE58" opacity="0.1509123970808931"/>
  <circle cx="250.3264057695095" cy="273.1256143039105" r="2.8511712213700027" fill="#CFAE58" opacity="0.1383831101248938"/>
  <circle cx="717.8100490102637" cy="555.1116038267088" r="4.757142917758312" fill="#CFAE58" opacity="0.22876195680412736"/>
  <circle cx="674.2193544529524" cy="3.8368285496463725" r="2.206296211878432" fill="#CFAE58" opacity="0.13260018046419708"/>
  <circle cx="214.53310362821378" cy="345.04649280764374" r="5.203716004210747" fill="#CFAE58" opacity="0.19683071182751266"/>
  <circle cx="1156.2774279824523" cy="79.36552480381883" r="2.856611192684373" fill="#CFAE58" opacity="0.19945707464498055"/>
  <circle cx="730.7662035559005" cy="157.86780736030633" r="2.592763897354782" fill="#CFAE58" opacity="0.17358485034385085"/>

  <!-- Border with glow -->
  <rect x="40" y="40" width="1120" height="550" fill="none" stroke="url(#goldGradient)" stroke-width="3" rx="12" filter="url(#softGlow)"/>

  <!-- Icon circle with premium background -->
  <circle cx="150" cy="200" r="75" fill="#CFAE58" opacity="0.15" filter="url(#softGlow)"/>
  <circle cx="150" cy="200" r="70" fill="#CFAE58" opacity="0.25"/>
  <text x="150" y="235" font-size="90" text-anchor="middle" fill="#CFAE58" filter="url(#glow)">🐟</text>

  <!-- Premium logo (crown) with enhanced styling -->
  <g transform="translate(100, 70)">
    <path d="M 30 20 L 40 35 L 35 35 Z M 50 15 L 60 35 L 45 35 Z M 65 20 L 75 35 L 70 35 Z M 30 35 L 75 35 L 73 45 L 32 45 Z"
          fill="url(#goldGradient)" filter="url(#glow)" stroke="#B89842" stroke-width="0.5"/>
    <circle cx="40" cy="25" r="3" fill="#4FD1C5" filter="url(#glow)"/>
    <circle cx="52" cy="20" r="4" fill="#4FD1C5" filter="url(#glow)"/>
    <circle cx="65" cy="25" r="3" fill="#4FD1C5" filter="url(#glow)"/>
  </g>

  <!-- Title with shadow -->
  <text x="280" y="180" font-family="Georgia, serif" font-size="72" font-weight="bold"
        fill="url(#goldGradient)" filter="url(#shadow)">Salmon &amp; Red Caviar</text>

  <!-- Subtitle with subtle glow -->
  <text x="280" y="230" font-family="Arial, sans-serif" font-size="36"
        fill="#D6DEE6" opacity="0.95" filter="url(#softGlow)">Pacific Salmon Species Guide</text>

  <!-- Brand name with letter spacing -->
  <text x="280" y="300" font-family="Georgia, serif" font-size="32" font-weight="bold"
        fill="#CFAE58" letter-spacing="4" filter="url(#glow)">ROYAL KETA</text>

  <!-- Russian tagline -->
  <text x="280" y="340" font-family="Arial, sans-serif" font-size="22" font-style="italic"
        fill="#8B95A1" opacity="0.8">От икринки к королевской</text>

  <!-- Location -->
  <text x="280" y="380" font-family="Arial, sans-serif" font-size="20"
        fill="#8B95A1" opacity="0.7">Невельский район, Сахалин</text>

  <!-- Website with glow -->
  <text x="100" y="570" font-family="Arial, sans-serif" font-size="30" font-weight="bold"
        fill="#4FD1C5" filter="url(#glow)">royalketa.com</text>

  <!-- Enhanced decorative salmon silhouette -->
  <g transform="translate(950, 480)" opacity="0.2" filter="url(#softGlow)">
    <ellipse cx="0" cy="0" rx="90" ry="35" fill="#CFAE58"/>
    <path d="M 90 0 L 120 -18 L 130 0 L 120 18 Z" fill="#CFAE58"/>
    <path d="M -25 -35 L 0 -45 L 25 -35 Z" fill="#CFAE58"/>
    <ellipse cx="-50" cy="0" rx="15" ry="12" fill="#0B0F14"/>
  </g>

  <!-- Additional decorative caviar clusters -->
  <g opacity="0.2">
    <circle cx="1050" cy="120" r="6" fill="#CFAE58"/>
    <circle cx="1065" cy="115" r="5" fill="#CFAE58"/>
    <circle cx="1058" cy="130" r="4" fill="#CFAE58"/>
    <circle cx="150" cy="500" r="5" fill="#4FD1C5"/>
    <circle cx="165" cy="508" r="4" fill="#4FD1C5"/>
    <circle cx="140" cy="512" r="5" fill="#4FD1C5"/>
  </g>
</svg>