<svg width="1200" height="630" xmlns="http://www.w3.org/2000/svg">
  <defs>
    <linearGradient id="bgGradient" x1="0%" y1="0%" x2="100%" y2="100%">
      <stop offset="0%" style="stop-color:#0B0F14;stop-opacity:1" />
      <stop offset="50%" style="stop-color:#0F1619;stop-opacity:1" />
      <stop offset="100%" style="stop-color:#0F1922;stop-opacity:1" />
    </linearGradient>
    <linearGradient id="goldGradient" x1="0%" y1="0%" x2="100%" y2="0%">
      <stop offset="0%" style="stop-color:#E5D596;stop-opacity:1" />
      <stop offset="50%" style="stop-color:#CFAE58;stop-opacity:1" />
      <stop offset="100%" style="stop-color:#B89842;stop-opacity:1" />
    </linearGradient>
    <radialGradient id="oceanGradient" cx="50%" cy="50%" r="50%">
      <stop offset="0%" style="stop-color:#4FD1C5;stop-opacity:0.3" />
      <stop offset="100%" style="stop-color:#1E90A0;stop-opacity:0.05" />
    </radialGradient>
    <filter id="glow">
      <feGaussianBlur stdDeviation="5" result="coloredBlur"/>
      <feMerge>
        <feMergeNode in="coloredBlur"/>
        <feMergeNode in="SourceGraphic"/>
      </feMerge>
    </filter>
    <filter id="softGlow">
      <feGaussianBlur stdDeviation="8" result="coloredBlur"/>
      <feMerge>
        <feMergeNode in="coloredBlur"/>
        <feMergeNode in="SourceGraphic"/>
      </feMerge>
    </filter>
    <filter id="shadow">
      <feDropShadow dx="0" dy="4" stdDeviation="8" flood-color="#000000" flood-opacity="0.5"/>
    </filter>
  </defs>

  <!-- Background -->
  <rect width="1200" height="630" fill="url(#bgGradient)"/>

  <!-- Decorative ocean gradients -->
  <ellipse cx="1000" cy="150" rx="300" ry="200" fill="url(#oceanGradient)" opacity="0.4"/>
  <ellipse cx="200" cy="530" rx="250" ry="180" fill="url(#oceanGradient)" opacity="0.3"/>

  <!-- Wave patterns -->
  <path d="M 0 400 Q 300 350 600 400 T 1200 400 L 1200 630 L 0 630 Z" fill="#1E90A0" opacity="0.08"/>
  <path d="M 0 450 Q 250 420 500 450 T 1000 450 T 1200 450 L 1200 630 L 0 630 Z" fill="#4FD1C5" opacity="0.05"/>

  <!-- Caviar roe particles -->
  <circle cx="58.97705524831514" cy="606.6143517056615" r="5.033189879643706" fill="#CFAE58" opacity="0.20585392421003412"/>
  <circle cx="524.3169449787064" cy="54.76530730449362" r="5.708837309443944" fill="#CFAE58" opacity="0.16387674664835733"/>
  <circle cx="273.6589518679631" cy="181.97314921117524" r="3.4203010377729797" fill="#CFAE58" opacity="0.14809859253040056"/>
  <circle cx="607.627706963595" cy="489.99453197559075" r="3.676712598564849" fill="#CFAE58" opacity="0.2200155921649843"/>
  <circle cx="512.8210248301536" cy="117.24387164344729" r="4.286624820165464" fill="#CFAE58" opacity="0.2323388760086518"/>
  <circle cx="748.2212909205931" cy="406.17912049930584" r="2.2034803472335334" fill="#CFAE58" opacity="0.24070101996119472"/>
  <circle cx="666.1929774468141" cy="111.95976315489682" r="2.311717362279995" fill="#CFAE58" opacity="0.20536728296670675"/>
  <circle cx="376.8416316807387" cy="575.8822839128992" r="5.507564712529424" fill="#CFAE58" opacity="0.11184340331089006"/>
  <circle cx="302.11296616747984" cy="206.02856631984284" r="4.338023912928963" fill="#CFAE58" opacity="0.13113606482928666"/>
  <circle cx="1073.2206727156565" cy="626.1887451700239" r="5.279215237773435" fill="#CFAE58" opacity="0.12732541568537759"/>
  <circle cx="312.7482520975435" cy="307.7265408047249" r="4.329776128115889" fill="#CFAE58" opacity="0.18517754329188385"/>
  <circle cx="1064.1747813283623" cy="338.6289941748644" r="4.169919908540594" fill="#CFAE58" opacity="0.23618812415457993"/>
  <circle cx="991.2637763686919" cy="187.19914352596317" r="2.3723585768437285" fill="#CFAE58" opacity="0.14534070649941788"/>
  <circle cx="465.3927650250297" cy="216.62531982039334" r="2.641594443949118" fill="#CFAE58" opacity="0.23877562791131213"/>
  <circle cx="1121.4808226963805" cy="597.8274885576368" r="3.4653927089676664" fill="#CFAE58" opacity="0.18723713577125867"/>
  <circle cx="500.27756294702783" cy="620.8504170314263" r="5.715559712102417" fill="#CFAE58" opacity="0.23024466893128545"/>
  <circle cx="72.1398693756972" cy="43.07277132887841" r="3.5561368418044723" fill="#CFAE58" opacity="0.24246200033532198"/>
  <circle cx="744.6939548957928" cy="363.93764321443484" r="2.7305565550745743" fill="#CFAE58" opacity="0.18138595016953257"/>
  <circle cx="814.2384105786621" cy="490.8126010398759" r="4.805236267482291" fill="#CFAE58" opacity="0.1730685418679359"/>
  <circle cx="83.66773662980572" cy="156.16726661067946" r="5.311439509056405" fill="#CFAE58" opacity="0.1673569491901682"/>
  <circle cx="688.072758070969" cy="179.79861574001674" r="5.456841004975183" fill="#CFAE58" opacity="0.15268913157316558"/>
  <circle cx="1008.801888619001" cy="287.4702126184932" r="2.355718473223471" fill="#CFAE58" opacity="0.21408508945913468"/>
  <circle cx="788.8330200051613" cy="288.11677558265137" r="3.5238555611362314" fill="#CFAE58" opacity="0.17367978830586756"/>
  <circle cx="822.00532447368" cy="503.1234652088187" r="2.7945672608324332" fill="#CFAE58" opacity="0.19536589433542362"/>
  <circle cx="285.79025394672664" cy="76.72987314778517" r="2.5673837802186124" fill="#CFAE58" opacity="0.15192993384770243"/>
  <circle cx="720.5471843185372" cy="136.04940608787834" r="3.716213589838242" fill="#CFAE58" opacity="0.1451710121382281"/>
  <circle cx="226.3622853224999" cy="401.4208933049412" r="3.086519641556654" fill="#CFAE58" opacity="0.21475523970803287"/>
  <circle cx="108.70536344671558" cy="102.52934852073602" r="5.059841150978752" fill="#CFAE58" opacity="0.11354635339623757"/>
  <circle cx="457.45747428212246" cy="360.9142362179874" r="3.1776712990974514" fill="#CFAE58" opacity="0.11622305081800297"/>
  <circle cx="1056.400779825491" cy="320.4761621082551" r="4.936063692995949" fill="#CFAE58" opacity="0.11889621796530218"/>

  <!-- Border with glow -->
  <rect x="40" y="40" width="1120" height="550" fill="none" stroke="url(#goldGradient)" stroke-width="3" rx="12" filter="url(#softGlow)"/>

  <!-- Icon circle with premium background -->
  <circle cx="150" cy="200" r="75" fill="#CFAE58" opacity="0.15" filter="url(#softGlow)"/>
  <circle cx="150" cy="200" r="70" fill="#CFAE58" opacity="0.25"/>
  <text x="150" y="235" font-size="90" text-anchor="middle" fill="#CFAE58" filter="url(#glow)">🐟</text>

  <!-- Premium logo (crown) with enhanced styling -->
  <g transform="translate(100, 70)">
    <path d="M 30 20 L 40 35 L 35 35 Z M 50 15 L 60 35 L 45 35 Z M 65 20 L 75 35 L 70 35 Z M 30 35 L 75 35 L 73 45 L 32 45 Z"
          fill="url(#goldGradient)" filter="url(#glow)" stroke="#B89842" stroke-width="0.5"/>
    <circle cx="40" cy="25" r="3" fill="#4FD1C5" filter="url(#glow)"/>
    <circle cx="52" cy="20" r="4" fill="#4FD1C5" filter="url(#glow)"/>
    <circle cx="65" cy="25" r="3" fill="#4FD1C5" filter="url(#glow)"/>
  </g>

  <!-- Title with shadow -->
  <text x="280" y="180" font-family="Georgia, serif" font-size="72" font-weight="bold"
        fill="url(#goldGradient)" filter="url(#shadow)">Salmon &amp; Red Caviar</text>

  <!-- Subtitle with subtle glow -->
  <text x="280" y="230" font-family="Arial, sans-serif" font-size="36"
        fill="#D6DEE6" opacity="0.95" filter="url(#softGlow)">Pacific Salmon Species Guide</text>

  <!-- Brand name with letter spacing -->
  <text x="280" y="300" font-family="Georgia, serif" font-size="32" font-weight="bold"
        fill="#CFAE58" letter-spacing="4" filter="url(#glow)">ROYAL KETA</text>

  <!-- Russian tagline -->
  <text x="280" y="340" font-family="Arial, sans-serif" font-size="22" font-style="italic"
        fill="#8B95A1" opacity="0.8">От икринки к королевской</text>

  <!-- Location -->
  <text x="280" y="380" font-family="Arial, sans-serif" font-size="20"
        fill="#8B95A1" opacity="0.7">Невельский район, Сахалин</text>

  <!-- Website with glow -->
  <text x="100" y="570" font-family="Arial, sans-serif" font-size="30" font-weight="bold"
        fill="#4FD1C5" filter="url(#glow)">royalketa.com</text>

  <!-- Enhanced decorative salmon silhouette -->
  <g transform="translate(950, 480)" opacity="0.2" filter="url(#softGlow)">
    <ellipse cx="0" cy="0" rx="90" ry="35" fill="#CFAE58"/>
    <path d="M 90 0 L 120 -18 L 130 0 L 120 18 Z" fill="#CFAE58"/>
    <path d="M -25 -35 L 0 -45 L 25 -35 Z" fill="#CFAE58"/>
    <ellipse cx="-50" cy="0" rx="15" ry="12" fill="#0B0F14"/>
  </g>

  <!-- Additional decorative caviar clusters -->
  <g opacity="0.2">
    <circle cx="1050" cy="120" r="6" fill="#CFAE58"/>
    <circle cx="1065" cy="115" r="5" fill="#CFAE58"/>
    <circle cx="1058" cy="130" r="4" fill="#CFAE58"/>
    <circle cx="150" cy="500" r="5" fill="#4FD1C5"/>
    <circle cx="165" cy="508" r="4" fill="#4FD1C5"/>
    <circle cx="140" cy="512" r="5" fill="#4FD1C5"/>
  </g>
</svg>