<svg width="1200" height="630" xmlns="http://www.w3.org/2000/svg">
  <defs>
    <linearGradient id="bgGradient" x1="0%" y1="0%" x2="100%" y2="100%">
      <stop offset="0%" style="stop-color:#0B0F14;stop-opacity:1" />
      <stop offset="50%" style="stop-color:#0F1619;stop-opacity:1" />
      <stop offset="100%" style="stop-color:#0F1922;stop-opacity:1" />
    </linearGradient>
    <linearGradient id="goldGradient" x1="0%" y1="0%" x2="100%" y2="0%">
      <stop offset="0%" style="stop-color:#E5D596;stop-opacity:1" />
      <stop offset="50%" style="stop-color:#CFAE58;stop-opacity:1" />
      <stop offset="100%" style="stop-color:#B89842;stop-opacity:1" />
    </linearGradient>
    <radialGradient id="oceanGradient" cx="50%" cy="50%" r="50%">
      <stop offset="0%" style="stop-color:#4FD1C5;stop-opacity:0.3" />
      <stop offset="100%" style="stop-color:#1E90A0;stop-opacity:0.05" />
    </radialGradient>
    <filter id="glow">
      <feGaussianBlur stdDeviation="5" result="coloredBlur"/>
      <feMerge>
        <feMergeNode in="coloredBlur"/>
        <feMergeNode in="SourceGraphic"/>
      </feMerge>
    </filter>
    <filter id="softGlow">
      <feGaussianBlur stdDeviation="8" result="coloredBlur"/>
      <feMerge>
        <feMergeNode in="coloredBlur"/>
        <feMergeNode in="SourceGraphic"/>
      </feMerge>
    </filter>
    <filter id="shadow">
      <feDropShadow dx="0" dy="4" stdDeviation="8" flood-color="#000000" flood-opacity="0.5"/>
    </filter>
  </defs>

  <!-- Background -->
  <rect width="1200" height="630" fill="url(#bgGradient)"/>

  <!-- Decorative ocean gradients -->
  <ellipse cx="1000" cy="150" rx="300" ry="200" fill="url(#oceanGradient)" opacity="0.4"/>
  <ellipse cx="200" cy="530" rx="250" ry="180" fill="url(#oceanGradient)" opacity="0.3"/>

  <!-- Wave patterns -->
  <path d="M 0 400 Q 300 350 600 400 T 1200 400 L 1200 630 L 0 630 Z" fill="#1E90A0" opacity="0.08"/>
  <path d="M 0 450 Q 250 420 500 450 T 1000 450 T 1200 450 L 1200 630 L 0 630 Z" fill="#4FD1C5" opacity="0.05"/>

  <!-- Caviar roe particles -->
  <circle cx="823.1540953025186" cy="177.91667245255675" r="4.965591598512022" fill="#CFAE58" opacity="0.17187942074400997"/>
  <circle cx="1141.388540784167" cy="151.34613211420736" r="2.5061306625487365" fill="#CFAE58" opacity="0.19331026986300076"/>
  <circle cx="151.1243280401495" cy="487.0875194714006" r="2.9602240782997633" fill="#CFAE58" opacity="0.19338265190202839"/>
  <circle cx="782.328703704203" cy="598.5842786263295" r="4.327488305366183" fill="#CFAE58" opacity="0.17995405679524767"/>
  <circle cx="920.6511279005458" cy="202.04885052698754" r="4.587482072215629" fill="#CFAE58" opacity="0.2469949254784506"/>
  <circle cx="26.54748276034975" cy="103.39255753896241" r="4.460178231538169" fill="#CFAE58" opacity="0.16483526559340783"/>
  <circle cx="595.1698138434117" cy="176.48862795190388" r="2.208388902431449" fill="#CFAE58" opacity="0.15338756567695128"/>
  <circle cx="754.2740769497576" cy="231.2148450038615" r="3.534909544795227" fill="#CFAE58" opacity="0.12121066050516346"/>
  <circle cx="910.4781412744818" cy="235.15807348673067" r="5.426495684264757" fill="#CFAE58" opacity="0.23421601144061846"/>
  <circle cx="542.0922237703377" cy="73.61465128849609" r="5.542813086780191" fill="#CFAE58" opacity="0.16346463395880526"/>
  <circle cx="149.30170543876588" cy="498.8288862516862" r="5.182576236811568" fill="#CFAE58" opacity="0.23998361117982459"/>
  <circle cx="101.75330992260379" cy="184.00387132699723" r="2.089861561896217" fill="#CFAE58" opacity="0.21749533765332815"/>
  <circle cx="174.65727896780731" cy="481.98956722022234" r="5.496630775400416" fill="#CFAE58" opacity="0.1726371956913554"/>
  <circle cx="818.2871878227273" cy="67.9450070098087" r="4.155534857836512" fill="#CFAE58" opacity="0.1684308213157819"/>
  <circle cx="826.3401464316956" cy="250.33660134885733" r="3.1542003679672916" fill="#CFAE58" opacity="0.24475511653018237"/>
  <circle cx="539.6714407667922" cy="435.0385356214723" r="4.358992735153677" fill="#CFAE58" opacity="0.14945920908422086"/>
  <circle cx="94.28641864272494" cy="158.69825006535575" r="4.631144516209487" fill="#CFAE58" opacity="0.24934700887974154"/>
  <circle cx="789.1692632047807" cy="63.85379614154216" r="3.2079610766823032" fill="#CFAE58" opacity="0.10984573246264123"/>
  <circle cx="385.0357619958145" cy="81.56762547480446" r="2.909312384574882" fill="#CFAE58" opacity="0.1553810049017834"/>
  <circle cx="1137.4628429044503" cy="603.4974836410514" r="3.162143852468061" fill="#CFAE58" opacity="0.14523901248582666"/>
  <circle cx="523.7774004648152" cy="524.7406207997225" r="5.089705704205775" fill="#CFAE58" opacity="0.17874117355533586"/>
  <circle cx="255.1921548437146" cy="4.076505586634722" r="3.485192017321046" fill="#CFAE58" opacity="0.24397062066008846"/>
  <circle cx="87.08792487593296" cy="607.9821693661676" r="3.778001107879633" fill="#CFAE58" opacity="0.1765979531562754"/>
  <circle cx="316.61792154287565" cy="131.30379456268827" r="2.7069126887897523" fill="#CFAE58" opacity="0.12781324175243153"/>
  <circle cx="819.0847886490815" cy="395.85804359515765" r="2.566792089738906" fill="#CFAE58" opacity="0.14048772613860103"/>
  <circle cx="735.2718816239465" cy="449.69144992049803" r="2.099234186529383" fill="#CFAE58" opacity="0.19472196222918559"/>
  <circle cx="1092.3270189932668" cy="274.4361491671293" r="5.514089775077572" fill="#CFAE58" opacity="0.11088623911815979"/>
  <circle cx="150.32512977009068" cy="514.4655549465209" r="4.51970496842189" fill="#CFAE58" opacity="0.17360759473965298"/>
  <circle cx="967.7272041194235" cy="583.2617338214158" r="2.268026445698057" fill="#CFAE58" opacity="0.15292367905847867"/>
  <circle cx="974.8886372227691" cy="76.09413894320363" r="2.7992801111349004" fill="#CFAE58" opacity="0.13121685557109333"/>

  <!-- Border with glow -->
  <rect x="40" y="40" width="1120" height="550" fill="none" stroke="url(#goldGradient)" stroke-width="3" rx="12" filter="url(#softGlow)"/>

  <!-- Icon circle with premium background -->
  <circle cx="150" cy="200" r="75" fill="#CFAE58" opacity="0.15" filter="url(#softGlow)"/>
  <circle cx="150" cy="200" r="70" fill="#CFAE58" opacity="0.25"/>
  <text x="150" y="235" font-size="90" text-anchor="middle" fill="#CFAE58" filter="url(#glow)">🐟</text>

  <!-- Premium logo (crown) with enhanced styling -->
  <g transform="translate(100, 70)">
    <path d="M 30 20 L 40 35 L 35 35 Z M 50 15 L 60 35 L 45 35 Z M 65 20 L 75 35 L 70 35 Z M 30 35 L 75 35 L 73 45 L 32 45 Z"
          fill="url(#goldGradient)" filter="url(#glow)" stroke="#B89842" stroke-width="0.5"/>
    <circle cx="40" cy="25" r="3" fill="#4FD1C5" filter="url(#glow)"/>
    <circle cx="52" cy="20" r="4" fill="#4FD1C5" filter="url(#glow)"/>
    <circle cx="65" cy="25" r="3" fill="#4FD1C5" filter="url(#glow)"/>
  </g>

  <!-- Title with shadow -->
  <text x="280" y="180" font-family="Georgia, serif" font-size="72" font-weight="bold"
        fill="url(#goldGradient)" filter="url(#shadow)">Salmon &amp; Red Caviar</text>

  <!-- Subtitle with subtle glow -->
  <text x="280" y="230" font-family="Arial, sans-serif" font-size="36"
        fill="#D6DEE6" opacity="0.95" filter="url(#softGlow)">Pacific Salmon Species Guide</text>

  <!-- Brand name with letter spacing -->
  <text x="280" y="300" font-family="Georgia, serif" font-size="32" font-weight="bold"
        fill="#CFAE58" letter-spacing="4" filter="url(#glow)">ROYAL KETA</text>

  <!-- Russian tagline -->
  <text x="280" y="340" font-family="Arial, sans-serif" font-size="22" font-style="italic"
        fill="#8B95A1" opacity="0.8">От икринки к королевской</text>

  <!-- Location -->
  <text x="280" y="380" font-family="Arial, sans-serif" font-size="20"
        fill="#8B95A1" opacity="0.7">Невельский район, Сахалин</text>

  <!-- Website with glow -->
  <text x="100" y="570" font-family="Arial, sans-serif" font-size="30" font-weight="bold"
        fill="#4FD1C5" filter="url(#glow)">royalketa.com</text>

  <!-- Enhanced decorative salmon silhouette -->
  <g transform="translate(950, 480)" opacity="0.2" filter="url(#softGlow)">
    <ellipse cx="0" cy="0" rx="90" ry="35" fill="#CFAE58"/>
    <path d="M 90 0 L 120 -18 L 130 0 L 120 18 Z" fill="#CFAE58"/>
    <path d="M -25 -35 L 0 -45 L 25 -35 Z" fill="#CFAE58"/>
    <ellipse cx="-50" cy="0" rx="15" ry="12" fill="#0B0F14"/>
  </g>

  <!-- Additional decorative caviar clusters -->
  <g opacity="0.2">
    <circle cx="1050" cy="120" r="6" fill="#CFAE58"/>
    <circle cx="1065" cy="115" r="5" fill="#CFAE58"/>
    <circle cx="1058" cy="130" r="4" fill="#CFAE58"/>
    <circle cx="150" cy="500" r="5" fill="#4FD1C5"/>
    <circle cx="165" cy="508" r="4" fill="#4FD1C5"/>
    <circle cx="140" cy="512" r="5" fill="#4FD1C5"/>
  </g>
</svg>