<svg width="1200" height="630" xmlns="http://www.w3.org/2000/svg">
  <defs>
    <linearGradient id="bgGradient" x1="0%" y1="0%" x2="100%" y2="100%">
      <stop offset="0%" style="stop-color:#0B0F14;stop-opacity:1" />
      <stop offset="50%" style="stop-color:#0F1619;stop-opacity:1" />
      <stop offset="100%" style="stop-color:#0F1922;stop-opacity:1" />
    </linearGradient>
    <linearGradient id="goldGradient" x1="0%" y1="0%" x2="100%" y2="0%">
      <stop offset="0%" style="stop-color:#E5D596;stop-opacity:1" />
      <stop offset="50%" style="stop-color:#CFAE58;stop-opacity:1" />
      <stop offset="100%" style="stop-color:#B89842;stop-opacity:1" />
    </linearGradient>
    <radialGradient id="oceanGradient" cx="50%" cy="50%" r="50%">
      <stop offset="0%" style="stop-color:#4FD1C5;stop-opacity:0.3" />
      <stop offset="100%" style="stop-color:#1E90A0;stop-opacity:0.05" />
    </radialGradient>
    <filter id="glow">
      <feGaussianBlur stdDeviation="5" result="coloredBlur"/>
      <feMerge>
        <feMergeNode in="coloredBlur"/>
        <feMergeNode in="SourceGraphic"/>
      </feMerge>
    </filter>
    <filter id="softGlow">
      <feGaussianBlur stdDeviation="8" result="coloredBlur"/>
      <feMerge>
        <feMergeNode in="coloredBlur"/>
        <feMergeNode in="SourceGraphic"/>
      </feMerge>
    </filter>
    <filter id="shadow">
      <feDropShadow dx="0" dy="4" stdDeviation="8" flood-color="#000000" flood-opacity="0.5"/>
    </filter>
  </defs>

  <!-- Background -->
  <rect width="1200" height="630" fill="url(#bgGradient)"/>

  <!-- Decorative ocean gradients -->
  <ellipse cx="1000" cy="150" rx="300" ry="200" fill="url(#oceanGradient)" opacity="0.4"/>
  <ellipse cx="200" cy="530" rx="250" ry="180" fill="url(#oceanGradient)" opacity="0.3"/>

  <!-- Wave patterns -->
  <path d="M 0 400 Q 300 350 600 400 T 1200 400 L 1200 630 L 0 630 Z" fill="#1E90A0" opacity="0.08"/>
  <path d="M 0 450 Q 250 420 500 450 T 1000 450 T 1200 450 L 1200 630 L 0 630 Z" fill="#4FD1C5" opacity="0.05"/>

  <!-- Caviar roe particles -->
  <circle cx="923.9880160960687" cy="181.9558410793063" r="2.3341143607135777" fill="#CFAE58" opacity="0.11907915147833864"/>
  <circle cx="1151.5084864329995" cy="190.49754556212415" r="2.9642698866803068" fill="#CFAE58" opacity="0.11551833897596481"/>
  <circle cx="115.98962514848026" cy="230.17511421509542" r="4.390102322692426" fill="#CFAE58" opacity="0.12288265617896849"/>
  <circle cx="672.3029408154324" cy="141.3744732174956" r="5.854433657029766" fill="#CFAE58" opacity="0.17007912492479385"/>
  <circle cx="721.3827748674469" cy="74.09630913631021" r="4.075368410299636" fill="#CFAE58" opacity="0.10206429240986832"/>
  <circle cx="711.2799262151559" cy="117.76118664453418" r="5.112396954257962" fill="#CFAE58" opacity="0.16491175634828972"/>
  <circle cx="203.36444523680424" cy="4.594901620835092" r="5.5247353523355756" fill="#CFAE58" opacity="0.17637946694662548"/>
  <circle cx="1071.9415467499198" cy="573.7766175208395" r="5.894019105926617" fill="#CFAE58" opacity="0.18914456722790174"/>
  <circle cx="247.7925303116675" cy="377.30000640355485" r="4.061263170849215" fill="#CFAE58" opacity="0.22183376252683354"/>
  <circle cx="669.4892064669851" cy="458.95275095876804" r="2.266417573448571" fill="#CFAE58" opacity="0.23847914835033904"/>
  <circle cx="861.4722191992776" cy="397.7469939436689" r="3.8182742037353883" fill="#CFAE58" opacity="0.1712499440889586"/>
  <circle cx="869.0833147393791" cy="143.14773407904556" r="4.873040774042731" fill="#CFAE58" opacity="0.1471025025649115"/>
  <circle cx="656.7979383549183" cy="278.83277878752284" r="4.559922871222751" fill="#CFAE58" opacity="0.1977558157620144"/>
  <circle cx="816.6782382288231" cy="528.7530048881581" r="5.433938330327746" fill="#CFAE58" opacity="0.22695744338195556"/>
  <circle cx="733.7048470607696" cy="1.21599413853416" r="5.028100187339232" fill="#CFAE58" opacity="0.13369718139465386"/>
  <circle cx="446.6479757941399" cy="249.7200440296284" r="3.3638870370933933" fill="#CFAE58" opacity="0.21193066629700053"/>
  <circle cx="260.3606520815939" cy="611.6804379997053" r="2.656090689767585" fill="#CFAE58" opacity="0.17019875022152764"/>
  <circle cx="194.2247580888142" cy="594.0111687803943" r="5.307214758638838" fill="#CFAE58" opacity="0.1952784568296605"/>
  <circle cx="677.9800244959379" cy="586.6925814538365" r="3.5171270963979024" fill="#CFAE58" opacity="0.24576136710079494"/>
  <circle cx="812.7654370366406" cy="421.91341962082396" r="2.2631659931927457" fill="#CFAE58" opacity="0.20400542687756207"/>
  <circle cx="1031.0868471635754" cy="220.6792232537221" r="3.8411812625017845" fill="#CFAE58" opacity="0.19797259350083402"/>
  <circle cx="526.9218399398558" cy="264.33619537039385" r="5.001102378732698" fill="#CFAE58" opacity="0.2148121251169459"/>
  <circle cx="636.9426034427731" cy="294.27881322086085" r="5.1746841582610505" fill="#CFAE58" opacity="0.17314217242631355"/>
  <circle cx="670.7147916427662" cy="561.9683179966944" r="2.3963486888892795" fill="#CFAE58" opacity="0.24305899803007558"/>
  <circle cx="352.8524850888279" cy="511.43230763954006" r="3.782948953187492" fill="#CFAE58" opacity="0.20491163833836684"/>
  <circle cx="1176.8208828373286" cy="9.924506799560165" r="2.306222402717159" fill="#CFAE58" opacity="0.1920617915614815"/>
  <circle cx="301.63290139349374" cy="422.5461128643388" r="3.40236267850974" fill="#CFAE58" opacity="0.1158899589508651"/>
  <circle cx="932.4546598999531" cy="45.39364822485371" r="5.77350861788098" fill="#CFAE58" opacity="0.22995666104078766"/>
  <circle cx="2.9894676317498536" cy="557.0183134213639" r="5.065446449061534" fill="#CFAE58" opacity="0.17498595148104484"/>
  <circle cx="1022.4060605268029" cy="586.5346749165014" r="4.87903239584953" fill="#CFAE58" opacity="0.22042810215446337"/>

  <!-- Border with glow -->
  <rect x="40" y="40" width="1120" height="550" fill="none" stroke="url(#goldGradient)" stroke-width="3" rx="12" filter="url(#softGlow)"/>

  <!-- Icon circle with premium background -->
  <circle cx="150" cy="200" r="75" fill="#CFAE58" opacity="0.15" filter="url(#softGlow)"/>
  <circle cx="150" cy="200" r="70" fill="#CFAE58" opacity="0.25"/>
  <text x="150" y="235" font-size="90" text-anchor="middle" fill="#CFAE58" filter="url(#glow)">🐟</text>

  <!-- Premium logo (crown) with enhanced styling -->
  <g transform="translate(100, 70)">
    <path d="M 30 20 L 40 35 L 35 35 Z M 50 15 L 60 35 L 45 35 Z M 65 20 L 75 35 L 70 35 Z M 30 35 L 75 35 L 73 45 L 32 45 Z"
          fill="url(#goldGradient)" filter="url(#glow)" stroke="#B89842" stroke-width="0.5"/>
    <circle cx="40" cy="25" r="3" fill="#4FD1C5" filter="url(#glow)"/>
    <circle cx="52" cy="20" r="4" fill="#4FD1C5" filter="url(#glow)"/>
    <circle cx="65" cy="25" r="3" fill="#4FD1C5" filter="url(#glow)"/>
  </g>

  <!-- Title with shadow -->
  <text x="280" y="180" font-family="Georgia, serif" font-size="72" font-weight="bold"
        fill="url(#goldGradient)" filter="url(#shadow)">Salmon &amp; Red Caviar</text>

  <!-- Subtitle with subtle glow -->
  <text x="280" y="230" font-family="Arial, sans-serif" font-size="36"
        fill="#D6DEE6" opacity="0.95" filter="url(#softGlow)">Pacific Salmon Species Guide</text>

  <!-- Brand name with letter spacing -->
  <text x="280" y="300" font-family="Georgia, serif" font-size="32" font-weight="bold"
        fill="#CFAE58" letter-spacing="4" filter="url(#glow)">ROYAL KETA</text>

  <!-- Russian tagline -->
  <text x="280" y="340" font-family="Arial, sans-serif" font-size="22" font-style="italic"
        fill="#8B95A1" opacity="0.8">От икринки к королевской</text>

  <!-- Location -->
  <text x="280" y="380" font-family="Arial, sans-serif" font-size="20"
        fill="#8B95A1" opacity="0.7">Невельский район, Сахалин</text>

  <!-- Website with glow -->
  <text x="100" y="570" font-family="Arial, sans-serif" font-size="30" font-weight="bold"
        fill="#4FD1C5" filter="url(#glow)">royalketa.com</text>

  <!-- Enhanced decorative salmon silhouette -->
  <g transform="translate(950, 480)" opacity="0.2" filter="url(#softGlow)">
    <ellipse cx="0" cy="0" rx="90" ry="35" fill="#CFAE58"/>
    <path d="M 90 0 L 120 -18 L 130 0 L 120 18 Z" fill="#CFAE58"/>
    <path d="M -25 -35 L 0 -45 L 25 -35 Z" fill="#CFAE58"/>
    <ellipse cx="-50" cy="0" rx="15" ry="12" fill="#0B0F14"/>
  </g>

  <!-- Additional decorative caviar clusters -->
  <g opacity="0.2">
    <circle cx="1050" cy="120" r="6" fill="#CFAE58"/>
    <circle cx="1065" cy="115" r="5" fill="#CFAE58"/>
    <circle cx="1058" cy="130" r="4" fill="#CFAE58"/>
    <circle cx="150" cy="500" r="5" fill="#4FD1C5"/>
    <circle cx="165" cy="508" r="4" fill="#4FD1C5"/>
    <circle cx="140" cy="512" r="5" fill="#4FD1C5"/>
  </g>
</svg>