<svg width="1200" height="630" xmlns="http://www.w3.org/2000/svg">
  <defs>
    <linearGradient id="bgGradient" x1="0%" y1="0%" x2="100%" y2="100%">
      <stop offset="0%" style="stop-color:#0B0F14;stop-opacity:1" />
      <stop offset="50%" style="stop-color:#0F1619;stop-opacity:1" />
      <stop offset="100%" style="stop-color:#0F1922;stop-opacity:1" />
    </linearGradient>
    <linearGradient id="goldGradient" x1="0%" y1="0%" x2="100%" y2="0%">
      <stop offset="0%" style="stop-color:#E5D596;stop-opacity:1" />
      <stop offset="50%" style="stop-color:#CFAE58;stop-opacity:1" />
      <stop offset="100%" style="stop-color:#B89842;stop-opacity:1" />
    </linearGradient>
    <radialGradient id="oceanGradient" cx="50%" cy="50%" r="50%">
      <stop offset="0%" style="stop-color:#4FD1C5;stop-opacity:0.3" />
      <stop offset="100%" style="stop-color:#1E90A0;stop-opacity:0.05" />
    </radialGradient>
    <filter id="glow">
      <feGaussianBlur stdDeviation="5" result="coloredBlur"/>
      <feMerge>
        <feMergeNode in="coloredBlur"/>
        <feMergeNode in="SourceGraphic"/>
      </feMerge>
    </filter>
    <filter id="softGlow">
      <feGaussianBlur stdDeviation="8" result="coloredBlur"/>
      <feMerge>
        <feMergeNode in="coloredBlur"/>
        <feMergeNode in="SourceGraphic"/>
      </feMerge>
    </filter>
    <filter id="shadow">
      <feDropShadow dx="0" dy="4" stdDeviation="8" flood-color="#000000" flood-opacity="0.5"/>
    </filter>
  </defs>

  <!-- Background -->
  <rect width="1200" height="630" fill="url(#bgGradient)"/>

  <!-- Decorative ocean gradients -->
  <ellipse cx="1000" cy="150" rx="300" ry="200" fill="url(#oceanGradient)" opacity="0.4"/>
  <ellipse cx="200" cy="530" rx="250" ry="180" fill="url(#oceanGradient)" opacity="0.3"/>

  <!-- Wave patterns -->
  <path d="M 0 400 Q 300 350 600 400 T 1200 400 L 1200 630 L 0 630 Z" fill="#1E90A0" opacity="0.08"/>
  <path d="M 0 450 Q 250 420 500 450 T 1000 450 T 1200 450 L 1200 630 L 0 630 Z" fill="#4FD1C5" opacity="0.05"/>

  <!-- Caviar roe particles -->
  <circle cx="255.78733633830626" cy="606.48024154504" r="5.5349789315170925" fill="#CFAE58" opacity="0.19050113956130404"/>
  <circle cx="936.9128820972561" cy="152.1173283381305" r="3.7802865728714785" fill="#CFAE58" opacity="0.14568045152139375"/>
  <circle cx="622.4280913220678" cy="327.16036456537876" r="3.354734581981446" fill="#CFAE58" opacity="0.19202557760090244"/>
  <circle cx="586.6936273383599" cy="514.7733450751043" r="4.198306621442142" fill="#CFAE58" opacity="0.16347419371257033"/>
  <circle cx="634.5353229330998" cy="48.81169586912996" r="4.289870273371191" fill="#CFAE58" opacity="0.18525660751746498"/>
  <circle cx="972.6590822717192" cy="453.7834843371395" r="2.743258641018236" fill="#CFAE58" opacity="0.18539897843465294"/>
  <circle cx="506.8733912239124" cy="33.939724143286185" r="3.734567670002567" fill="#CFAE58" opacity="0.24306158285208035"/>
  <circle cx="863.421841208107" cy="482.6860291051193" r="5.236712789568174" fill="#CFAE58" opacity="0.2416937526436778"/>
  <circle cx="499.06501724157255" cy="178.5493838367028" r="4.0489333306584605" fill="#CFAE58" opacity="0.2102805698012588"/>
  <circle cx="396.57903959188326" cy="85.06319614498089" r="4.637889323473642" fill="#CFAE58" opacity="0.18225051207303888"/>
  <circle cx="1181.8186062824543" cy="361.87864296046774" r="5.180517503280116" fill="#CFAE58" opacity="0.16795375054725953"/>
  <circle cx="228.92668729786143" cy="550.452539343547" r="2.7309821875780393" fill="#CFAE58" opacity="0.23206047527683055"/>
  <circle cx="950.7476605191843" cy="200.30425253852363" r="3.953544569560762" fill="#CFAE58" opacity="0.15967892327255745"/>
  <circle cx="185.74207979953025" cy="513.3824874619886" r="4.488744453095997" fill="#CFAE58" opacity="0.2081342214259903"/>
  <circle cx="1068.8057562976733" cy="166.61196671350353" r="2.4092148495850276" fill="#CFAE58" opacity="0.16891929219311647"/>
  <circle cx="616.9695743501551" cy="567.27959401963" r="2.3817794275428157" fill="#CFAE58" opacity="0.23128503180724874"/>
  <circle cx="652.9216933051841" cy="500.6237380674464" r="2.7170302528274237" fill="#CFAE58" opacity="0.24299323092105454"/>
  <circle cx="1010.3493770893706" cy="589.399773125341" r="2.595031794386941" fill="#CFAE58" opacity="0.17109679026269264"/>
  <circle cx="290.3267934951612" cy="90.59809652167245" r="4.759888488080655" fill="#CFAE58" opacity="0.22027036574585834"/>
  <circle cx="83.6992868596039" cy="282.09807977067777" r="3.321798428676069" fill="#CFAE58" opacity="0.158933572658161"/>
  <circle cx="60.92437335342322" cy="519.923570232407" r="5.639923675559786" fill="#CFAE58" opacity="0.2081010433713743"/>
  <circle cx="241.36181695320516" cy="129.15361299487392" r="4.459387589946658" fill="#CFAE58" opacity="0.10374716553869491"/>
  <circle cx="1117.0907676189727" cy="77.99424757031244" r="5.782746799243453" fill="#CFAE58" opacity="0.22926475749405673"/>
  <circle cx="1049.9911227169457" cy="98.88038832693167" r="3.915588165233808" fill="#CFAE58" opacity="0.10953062644400108"/>
  <circle cx="936.114789602496" cy="313.0637735481463" r="2.1251305053061516" fill="#CFAE58" opacity="0.20650681426805467"/>
  <circle cx="1131.1792801626498" cy="258.56600308749984" r="5.1465894302956015" fill="#CFAE58" opacity="0.1822940559132796"/>
  <circle cx="223.8133072892468" cy="11.243697626786743" r="5.4440674619190155" fill="#CFAE58" opacity="0.18770139161543514"/>
  <circle cx="261.16697701334004" cy="292.0304612418214" r="5.578711815324668" fill="#CFAE58" opacity="0.22541535983297595"/>
  <circle cx="408.84175624921966" cy="310.4883163528977" r="4.524342314546461" fill="#CFAE58" opacity="0.20263196420032895"/>
  <circle cx="1193.447819484033" cy="434.10559603626007" r="3.8370929871371406" fill="#CFAE58" opacity="0.1474390789641786"/>

  <!-- Border with glow -->
  <rect x="40" y="40" width="1120" height="550" fill="none" stroke="url(#goldGradient)" stroke-width="3" rx="12" filter="url(#softGlow)"/>

  <!-- Icon circle with premium background -->
  <circle cx="150" cy="200" r="75" fill="#CFAE58" opacity="0.15" filter="url(#softGlow)"/>
  <circle cx="150" cy="200" r="70" fill="#CFAE58" opacity="0.25"/>
  <text x="150" y="235" font-size="90" text-anchor="middle" fill="#CFAE58" filter="url(#glow)">🐟</text>

  <!-- Premium logo (crown) with enhanced styling -->
  <g transform="translate(100, 70)">
    <path d="M 30 20 L 40 35 L 35 35 Z M 50 15 L 60 35 L 45 35 Z M 65 20 L 75 35 L 70 35 Z M 30 35 L 75 35 L 73 45 L 32 45 Z"
          fill="url(#goldGradient)" filter="url(#glow)" stroke="#B89842" stroke-width="0.5"/>
    <circle cx="40" cy="25" r="3" fill="#4FD1C5" filter="url(#glow)"/>
    <circle cx="52" cy="20" r="4" fill="#4FD1C5" filter="url(#glow)"/>
    <circle cx="65" cy="25" r="3" fill="#4FD1C5" filter="url(#glow)"/>
  </g>

  <!-- Title with shadow -->
  <text x="280" y="180" font-family="Georgia, serif" font-size="72" font-weight="bold"
        fill="url(#goldGradient)" filter="url(#shadow)">Salmon &amp; Red Caviar</text>

  <!-- Subtitle with subtle glow -->
  <text x="280" y="230" font-family="Arial, sans-serif" font-size="36"
        fill="#D6DEE6" opacity="0.95" filter="url(#softGlow)">Pacific Salmon Species Guide</text>

  <!-- Brand name with letter spacing -->
  <text x="280" y="300" font-family="Georgia, serif" font-size="32" font-weight="bold"
        fill="#CFAE58" letter-spacing="4" filter="url(#glow)">ROYAL KETA</text>

  <!-- Russian tagline -->
  <text x="280" y="340" font-family="Arial, sans-serif" font-size="22" font-style="italic"
        fill="#8B95A1" opacity="0.8">От икринки к королевской</text>

  <!-- Location -->
  <text x="280" y="380" font-family="Arial, sans-serif" font-size="20"
        fill="#8B95A1" opacity="0.7">Невельский район, Сахалин</text>

  <!-- Website with glow -->
  <text x="100" y="570" font-family="Arial, sans-serif" font-size="30" font-weight="bold"
        fill="#4FD1C5" filter="url(#glow)">royalketa.com</text>

  <!-- Enhanced decorative salmon silhouette -->
  <g transform="translate(950, 480)" opacity="0.2" filter="url(#softGlow)">
    <ellipse cx="0" cy="0" rx="90" ry="35" fill="#CFAE58"/>
    <path d="M 90 0 L 120 -18 L 130 0 L 120 18 Z" fill="#CFAE58"/>
    <path d="M -25 -35 L 0 -45 L 25 -35 Z" fill="#CFAE58"/>
    <ellipse cx="-50" cy="0" rx="15" ry="12" fill="#0B0F14"/>
  </g>

  <!-- Additional decorative caviar clusters -->
  <g opacity="0.2">
    <circle cx="1050" cy="120" r="6" fill="#CFAE58"/>
    <circle cx="1065" cy="115" r="5" fill="#CFAE58"/>
    <circle cx="1058" cy="130" r="4" fill="#CFAE58"/>
    <circle cx="150" cy="500" r="5" fill="#4FD1C5"/>
    <circle cx="165" cy="508" r="4" fill="#4FD1C5"/>
    <circle cx="140" cy="512" r="5" fill="#4FD1C5"/>
  </g>
</svg>