<svg width="1200" height="630" xmlns="http://www.w3.org/2000/svg">
  <defs>
    <linearGradient id="bgGradient" x1="0%" y1="0%" x2="100%" y2="100%">
      <stop offset="0%" style="stop-color:#0B0F14;stop-opacity:1" />
      <stop offset="50%" style="stop-color:#0F1619;stop-opacity:1" />
      <stop offset="100%" style="stop-color:#0F1922;stop-opacity:1" />
    </linearGradient>
    <linearGradient id="goldGradient" x1="0%" y1="0%" x2="100%" y2="0%">
      <stop offset="0%" style="stop-color:#E5D596;stop-opacity:1" />
      <stop offset="50%" style="stop-color:#CFAE58;stop-opacity:1" />
      <stop offset="100%" style="stop-color:#B89842;stop-opacity:1" />
    </linearGradient>
    <radialGradient id="oceanGradient" cx="50%" cy="50%" r="50%">
      <stop offset="0%" style="stop-color:#4FD1C5;stop-opacity:0.3" />
      <stop offset="100%" style="stop-color:#1E90A0;stop-opacity:0.05" />
    </radialGradient>
    <filter id="glow">
      <feGaussianBlur stdDeviation="5" result="coloredBlur"/>
      <feMerge>
        <feMergeNode in="coloredBlur"/>
        <feMergeNode in="SourceGraphic"/>
      </feMerge>
    </filter>
    <filter id="softGlow">
      <feGaussianBlur stdDeviation="8" result="coloredBlur"/>
      <feMerge>
        <feMergeNode in="coloredBlur"/>
        <feMergeNode in="SourceGraphic"/>
      </feMerge>
    </filter>
    <filter id="shadow">
      <feDropShadow dx="0" dy="4" stdDeviation="8" flood-color="#000000" flood-opacity="0.5"/>
    </filter>
  </defs>

  <!-- Background -->
  <rect width="1200" height="630" fill="url(#bgGradient)"/>

  <!-- Decorative ocean gradients -->
  <ellipse cx="1000" cy="150" rx="300" ry="200" fill="url(#oceanGradient)" opacity="0.4"/>
  <ellipse cx="200" cy="530" rx="250" ry="180" fill="url(#oceanGradient)" opacity="0.3"/>

  <!-- Wave patterns -->
  <path d="M 0 400 Q 300 350 600 400 T 1200 400 L 1200 630 L 0 630 Z" fill="#1E90A0" opacity="0.08"/>
  <path d="M 0 450 Q 250 420 500 450 T 1000 450 T 1200 450 L 1200 630 L 0 630 Z" fill="#4FD1C5" opacity="0.05"/>

  <!-- Caviar roe particles -->
  <circle cx="516.4419693013429" cy="615.3169035113742" r="2.688499793789577" fill="#CFAE58" opacity="0.17462811460275723"/>
  <circle cx="650.4891657459793" cy="236.86790689995973" r="4.939124745548197" fill="#CFAE58" opacity="0.14420238597092094"/>
  <circle cx="640.50042617326" cy="302.45376417456373" r="4.930684704021932" fill="#CFAE58" opacity="0.135973089658919"/>
  <circle cx="96.65301875174252" cy="511.397419752753" r="3.8428462420235454" fill="#CFAE58" opacity="0.24787331715103894"/>
  <circle cx="964.1666316193922" cy="446.54228524620123" r="5.067600124634415" fill="#CFAE58" opacity="0.16673209076499607"/>
  <circle cx="1070.1978664833387" cy="544.4496236534674" r="3.569636518189896" fill="#CFAE58" opacity="0.18482094697254264"/>
  <circle cx="573.3257615796521" cy="79.85495800550711" r="3.314867999602356" fill="#CFAE58" opacity="0.20686537191819615"/>
  <circle cx="718.9901563258761" cy="496.0534354953111" r="2.2266637653944428" fill="#CFAE58" opacity="0.12427407976895474"/>
  <circle cx="649.1104142293332" cy="483.39933689234243" r="2.0213190601986692" fill="#CFAE58" opacity="0.23632831892013673"/>
  <circle cx="232.03523334185863" cy="527.6324996544216" r="3.333566998584588" fill="#CFAE58" opacity="0.16525859099684137"/>
  <circle cx="937.1548164198688" cy="72.349873480046" r="3.1548679236014707" fill="#CFAE58" opacity="0.11346667873137471"/>
  <circle cx="355.9461710924269" cy="145.87891958030534" r="3.6530013557242724" fill="#CFAE58" opacity="0.17957017719199161"/>
  <circle cx="842.3358229307496" cy="555.3298648538823" r="2.6939208478704386" fill="#CFAE58" opacity="0.19523616614399236"/>
  <circle cx="942.5132676652079" cy="26.618453193442065" r="3.3988264096481826" fill="#CFAE58" opacity="0.11518526003237944"/>
  <circle cx="290.0259720359606" cy="148.20269813391928" r="5.981854437276632" fill="#CFAE58" opacity="0.1974729667910498"/>
  <circle cx="338.75785811847663" cy="53.22618359649738" r="4.923990202652162" fill="#CFAE58" opacity="0.19989667569743547"/>
  <circle cx="178.91724824241783" cy="261.0946615666106" r="3.9522658302664624" fill="#CFAE58" opacity="0.14349005870622714"/>
  <circle cx="516.9907587634365" cy="446.6551669788324" r="5.509275547479556" fill="#CFAE58" opacity="0.18794598159889314"/>
  <circle cx="879.6652509742588" cy="370.80876713659745" r="3.0125167030632998" fill="#CFAE58" opacity="0.1791519400755492"/>
  <circle cx="940.5683127163825" cy="540.440633848273" r="4.691336510723371" fill="#CFAE58" opacity="0.12218189219657528"/>
  <circle cx="1087.5660012849482" cy="243.35288420034908" r="3.2644366511210947" fill="#CFAE58" opacity="0.22178316101316115"/>
  <circle cx="51.632105683212174" cy="180.21429649431826" r="2.355534234958315" fill="#CFAE58" opacity="0.10456646700795208"/>
  <circle cx="824.3017309312951" cy="576.8777756223872" r="5.940264093902624" fill="#CFAE58" opacity="0.12243271209673295"/>
  <circle cx="812.0266150902247" cy="47.37046299072111" r="2.011781094170932" fill="#CFAE58" opacity="0.11336644924194672"/>
  <circle cx="934.2501379092865" cy="173.2504801543769" r="3.85244224900708" fill="#CFAE58" opacity="0.1131143596864862"/>
  <circle cx="58.9976440043901" cy="204.4565536778907" r="4.815095863596363" fill="#CFAE58" opacity="0.2011184268404666"/>
  <circle cx="479.34715690949287" cy="5.258014741914783" r="4.1190137341441355" fill="#CFAE58" opacity="0.16559844461459733"/>
  <circle cx="1000.5399568599182" cy="307.7982415141666" r="5.42534849671015" fill="#CFAE58" opacity="0.16841368956303449"/>
  <circle cx="325.743668167503" cy="184.0089116372678" r="5.985033006775982" fill="#CFAE58" opacity="0.2199160481851603"/>
  <circle cx="163.64236844486993" cy="454.1335670427868" r="3.956566764684236" fill="#CFAE58" opacity="0.13112692725959746"/>

  <!-- Border with glow -->
  <rect x="40" y="40" width="1120" height="550" fill="none" stroke="url(#goldGradient)" stroke-width="3" rx="12" filter="url(#softGlow)"/>

  <!-- Icon circle with premium background -->
  <circle cx="150" cy="200" r="75" fill="#CFAE58" opacity="0.15" filter="url(#softGlow)"/>
  <circle cx="150" cy="200" r="70" fill="#CFAE58" opacity="0.25"/>
  <text x="150" y="235" font-size="90" text-anchor="middle" fill="#CFAE58" filter="url(#glow)">🐟</text>

  <!-- Premium logo (crown) with enhanced styling -->
  <g transform="translate(100, 70)">
    <path d="M 30 20 L 40 35 L 35 35 Z M 50 15 L 60 35 L 45 35 Z M 65 20 L 75 35 L 70 35 Z M 30 35 L 75 35 L 73 45 L 32 45 Z"
          fill="url(#goldGradient)" filter="url(#glow)" stroke="#B89842" stroke-width="0.5"/>
    <circle cx="40" cy="25" r="3" fill="#4FD1C5" filter="url(#glow)"/>
    <circle cx="52" cy="20" r="4" fill="#4FD1C5" filter="url(#glow)"/>
    <circle cx="65" cy="25" r="3" fill="#4FD1C5" filter="url(#glow)"/>
  </g>

  <!-- Title with shadow -->
  <text x="280" y="180" font-family="Georgia, serif" font-size="72" font-weight="bold"
        fill="url(#goldGradient)" filter="url(#shadow)">Salmon &amp; Red Caviar</text>

  <!-- Subtitle with subtle glow -->
  <text x="280" y="230" font-family="Arial, sans-serif" font-size="36"
        fill="#D6DEE6" opacity="0.95" filter="url(#softGlow)">Pacific Salmon Species Guide</text>

  <!-- Brand name with letter spacing -->
  <text x="280" y="300" font-family="Georgia, serif" font-size="32" font-weight="bold"
        fill="#CFAE58" letter-spacing="4" filter="url(#glow)">ROYAL KETA</text>

  <!-- Russian tagline -->
  <text x="280" y="340" font-family="Arial, sans-serif" font-size="22" font-style="italic"
        fill="#8B95A1" opacity="0.8">От икринки к королевской</text>

  <!-- Location -->
  <text x="280" y="380" font-family="Arial, sans-serif" font-size="20"
        fill="#8B95A1" opacity="0.7">Невельский район, Сахалин</text>

  <!-- Website with glow -->
  <text x="100" y="570" font-family="Arial, sans-serif" font-size="30" font-weight="bold"
        fill="#4FD1C5" filter="url(#glow)">royalketa.com</text>

  <!-- Enhanced decorative salmon silhouette -->
  <g transform="translate(950, 480)" opacity="0.2" filter="url(#softGlow)">
    <ellipse cx="0" cy="0" rx="90" ry="35" fill="#CFAE58"/>
    <path d="M 90 0 L 120 -18 L 130 0 L 120 18 Z" fill="#CFAE58"/>
    <path d="M -25 -35 L 0 -45 L 25 -35 Z" fill="#CFAE58"/>
    <ellipse cx="-50" cy="0" rx="15" ry="12" fill="#0B0F14"/>
  </g>

  <!-- Additional decorative caviar clusters -->
  <g opacity="0.2">
    <circle cx="1050" cy="120" r="6" fill="#CFAE58"/>
    <circle cx="1065" cy="115" r="5" fill="#CFAE58"/>
    <circle cx="1058" cy="130" r="4" fill="#CFAE58"/>
    <circle cx="150" cy="500" r="5" fill="#4FD1C5"/>
    <circle cx="165" cy="508" r="4" fill="#4FD1C5"/>
    <circle cx="140" cy="512" r="5" fill="#4FD1C5"/>
  </g>
</svg>