<svg width="1200" height="630" xmlns="http://www.w3.org/2000/svg">
  <defs>
    <linearGradient id="bgGradient" x1="0%" y1="0%" x2="100%" y2="100%">
      <stop offset="0%" style="stop-color:#0B0F14;stop-opacity:1" />
      <stop offset="50%" style="stop-color:#0F1619;stop-opacity:1" />
      <stop offset="100%" style="stop-color:#0F1922;stop-opacity:1" />
    </linearGradient>
    <linearGradient id="goldGradient" x1="0%" y1="0%" x2="100%" y2="0%">
      <stop offset="0%" style="stop-color:#E5D596;stop-opacity:1" />
      <stop offset="50%" style="stop-color:#CFAE58;stop-opacity:1" />
      <stop offset="100%" style="stop-color:#B89842;stop-opacity:1" />
    </linearGradient>
    <radialGradient id="oceanGradient" cx="50%" cy="50%" r="50%">
      <stop offset="0%" style="stop-color:#4FD1C5;stop-opacity:0.3" />
      <stop offset="100%" style="stop-color:#1E90A0;stop-opacity:0.05" />
    </radialGradient>
    <filter id="glow">
      <feGaussianBlur stdDeviation="5" result="coloredBlur"/>
      <feMerge>
        <feMergeNode in="coloredBlur"/>
        <feMergeNode in="SourceGraphic"/>
      </feMerge>
    </filter>
    <filter id="softGlow">
      <feGaussianBlur stdDeviation="8" result="coloredBlur"/>
      <feMerge>
        <feMergeNode in="coloredBlur"/>
        <feMergeNode in="SourceGraphic"/>
      </feMerge>
    </filter>
    <filter id="shadow">
      <feDropShadow dx="0" dy="4" stdDeviation="8" flood-color="#000000" flood-opacity="0.5"/>
    </filter>
  </defs>

  <!-- Background -->
  <rect width="1200" height="630" fill="url(#bgGradient)"/>

  <!-- Decorative ocean gradients -->
  <ellipse cx="1000" cy="150" rx="300" ry="200" fill="url(#oceanGradient)" opacity="0.4"/>
  <ellipse cx="200" cy="530" rx="250" ry="180" fill="url(#oceanGradient)" opacity="0.3"/>

  <!-- Wave patterns -->
  <path d="M 0 400 Q 300 350 600 400 T 1200 400 L 1200 630 L 0 630 Z" fill="#1E90A0" opacity="0.08"/>
  <path d="M 0 450 Q 250 420 500 450 T 1000 450 T 1200 450 L 1200 630 L 0 630 Z" fill="#4FD1C5" opacity="0.05"/>

  <!-- Caviar roe particles -->
  <circle cx="1158.533511058613" cy="174.68822977174625" r="4.750277045879148" fill="#CFAE58" opacity="0.23596811510803617"/>
  <circle cx="892.2736501287982" cy="534.7000720594832" r="4.737877264889703" fill="#CFAE58" opacity="0.16432475641290517"/>
  <circle cx="956.3057983248328" cy="546.468602953252" r="2.9569669649020947" fill="#CFAE58" opacity="0.14649574768836515"/>
  <circle cx="755.0628413118275" cy="120.73124997821152" r="4.35277892376155" fill="#CFAE58" opacity="0.14349119535032973"/>
  <circle cx="721.8053728359771" cy="201.98181385126094" r="2.72018523136585" fill="#CFAE58" opacity="0.10514720302062716"/>
  <circle cx="847.1089227537396" cy="48.493542983535995" r="4.374756427479485" fill="#CFAE58" opacity="0.14470655527084444"/>
  <circle cx="547.7613952503876" cy="393.89116114799793" r="5.848424022269751" fill="#CFAE58" opacity="0.22522508827689486"/>
  <circle cx="530.7129368720566" cy="496.57423125876653" r="5.101351973691771" fill="#CFAE58" opacity="0.15573632684553623"/>
  <circle cx="416.83670369570905" cy="416.1017895242914" r="5.981264619538765" fill="#CFAE58" opacity="0.1747771291255007"/>
  <circle cx="663.9109683839156" cy="359.9723693647583" r="4.201176440374074" fill="#CFAE58" opacity="0.16800589710793715"/>
  <circle cx="462.93477091728016" cy="431.95639444387325" r="2.4738973734217042" fill="#CFAE58" opacity="0.24452318452238872"/>
  <circle cx="471.7490026628335" cy="323.31723485139446" r="5.179232203823762" fill="#CFAE58" opacity="0.17287667760224268"/>
  <circle cx="691.5726761761779" cy="348.4802730788691" r="2.6035805804623884" fill="#CFAE58" opacity="0.16431856353267033"/>
  <circle cx="575.6294051149739" cy="77.00516108569542" r="2.0415431990978297" fill="#CFAE58" opacity="0.20040219510357452"/>
  <circle cx="808.6914569891189" cy="192.9290952018593" r="4.399862996244196" fill="#CFAE58" opacity="0.16513799528008105"/>
  <circle cx="827.1831431203476" cy="500.44240108542454" r="3.1208416159961834" fill="#CFAE58" opacity="0.24059326744691448"/>
  <circle cx="108.30513201212719" cy="543.0390500095289" r="2.8855271099537623" fill="#CFAE58" opacity="0.20968694159868706"/>
  <circle cx="874.7858366002173" cy="587.9988335139608" r="2.137273961161698" fill="#CFAE58" opacity="0.23725839939908483"/>
  <circle cx="686.5743314507075" cy="224.23964697287357" r="4.806792964726609" fill="#CFAE58" opacity="0.16782070289003237"/>
  <circle cx="615.052165371736" cy="8.28973890291492" r="3.043958072959379" fill="#CFAE58" opacity="0.1913884196288013"/>
  <circle cx="307.79251037601813" cy="477.69938347381503" r="3.9016590006779976" fill="#CFAE58" opacity="0.14710046507828506"/>
  <circle cx="812.8917958985694" cy="161.21917414535537" r="2.949156195557171" fill="#CFAE58" opacity="0.18305801644366715"/>
  <circle cx="1087.7053283847408" cy="433.5904689552548" r="3.117328226051514" fill="#CFAE58" opacity="0.12540654295101192"/>
  <circle cx="93.23565917551173" cy="525.1389581395912" r="4.143005996296801" fill="#CFAE58" opacity="0.1433991447790107"/>
  <circle cx="914.2893792473548" cy="627.3808580858135" r="2.4066859034707138" fill="#CFAE58" opacity="0.18944490228163122"/>
  <circle cx="333.58608793849055" cy="534.7940596215768" r="4.799719894921703" fill="#CFAE58" opacity="0.19470657938202524"/>
  <circle cx="1054.518549037487" cy="460.8607882749232" r="5.556778773793285" fill="#CFAE58" opacity="0.1195552076483916"/>
  <circle cx="734.1180851944183" cy="496.066995411374" r="2.225097349676796" fill="#CFAE58" opacity="0.11516425968729332"/>
  <circle cx="158.06952058586904" cy="74.25441151898342" r="4.368094757389789" fill="#CFAE58" opacity="0.17844057766432347"/>
  <circle cx="1064.1046918892666" cy="301.64697404774256" r="2.9285419639038617" fill="#CFAE58" opacity="0.2243391916478131"/>

  <!-- Border with glow -->
  <rect x="40" y="40" width="1120" height="550" fill="none" stroke="url(#goldGradient)" stroke-width="3" rx="12" filter="url(#softGlow)"/>

  <!-- Icon circle with premium background -->
  <circle cx="150" cy="200" r="75" fill="#CFAE58" opacity="0.15" filter="url(#softGlow)"/>
  <circle cx="150" cy="200" r="70" fill="#CFAE58" opacity="0.25"/>
  <text x="150" y="235" font-size="90" text-anchor="middle" fill="#CFAE58" filter="url(#glow)">🐟</text>

  <!-- Premium logo (crown) with enhanced styling -->
  <g transform="translate(100, 70)">
    <path d="M 30 20 L 40 35 L 35 35 Z M 50 15 L 60 35 L 45 35 Z M 65 20 L 75 35 L 70 35 Z M 30 35 L 75 35 L 73 45 L 32 45 Z"
          fill="url(#goldGradient)" filter="url(#glow)" stroke="#B89842" stroke-width="0.5"/>
    <circle cx="40" cy="25" r="3" fill="#4FD1C5" filter="url(#glow)"/>
    <circle cx="52" cy="20" r="4" fill="#4FD1C5" filter="url(#glow)"/>
    <circle cx="65" cy="25" r="3" fill="#4FD1C5" filter="url(#glow)"/>
  </g>

  <!-- Title with shadow -->
  <text x="280" y="180" font-family="Georgia, serif" font-size="72" font-weight="bold"
        fill="url(#goldGradient)" filter="url(#shadow)">Salmon &amp; Red Caviar</text>

  <!-- Subtitle with subtle glow -->
  <text x="280" y="230" font-family="Arial, sans-serif" font-size="36"
        fill="#D6DEE6" opacity="0.95" filter="url(#softGlow)">Pacific Salmon Species Guide</text>

  <!-- Brand name with letter spacing -->
  <text x="280" y="300" font-family="Georgia, serif" font-size="32" font-weight="bold"
        fill="#CFAE58" letter-spacing="4" filter="url(#glow)">ROYAL KETA</text>

  <!-- Russian tagline -->
  <text x="280" y="340" font-family="Arial, sans-serif" font-size="22" font-style="italic"
        fill="#8B95A1" opacity="0.8">От икринки к королевской</text>

  <!-- Location -->
  <text x="280" y="380" font-family="Arial, sans-serif" font-size="20"
        fill="#8B95A1" opacity="0.7">Невельский район, Сахалин</text>

  <!-- Website with glow -->
  <text x="100" y="570" font-family="Arial, sans-serif" font-size="30" font-weight="bold"
        fill="#4FD1C5" filter="url(#glow)">royalketa.com</text>

  <!-- Enhanced decorative salmon silhouette -->
  <g transform="translate(950, 480)" opacity="0.2" filter="url(#softGlow)">
    <ellipse cx="0" cy="0" rx="90" ry="35" fill="#CFAE58"/>
    <path d="M 90 0 L 120 -18 L 130 0 L 120 18 Z" fill="#CFAE58"/>
    <path d="M -25 -35 L 0 -45 L 25 -35 Z" fill="#CFAE58"/>
    <ellipse cx="-50" cy="0" rx="15" ry="12" fill="#0B0F14"/>
  </g>

  <!-- Additional decorative caviar clusters -->
  <g opacity="0.2">
    <circle cx="1050" cy="120" r="6" fill="#CFAE58"/>
    <circle cx="1065" cy="115" r="5" fill="#CFAE58"/>
    <circle cx="1058" cy="130" r="4" fill="#CFAE58"/>
    <circle cx="150" cy="500" r="5" fill="#4FD1C5"/>
    <circle cx="165" cy="508" r="4" fill="#4FD1C5"/>
    <circle cx="140" cy="512" r="5" fill="#4FD1C5"/>
  </g>
</svg>