<svg width="1200" height="630" xmlns="http://www.w3.org/2000/svg">
  <defs>
    <linearGradient id="bgGradient" x1="0%" y1="0%" x2="100%" y2="100%">
      <stop offset="0%" style="stop-color:#0B0F14;stop-opacity:1" />
      <stop offset="50%" style="stop-color:#0F1619;stop-opacity:1" />
      <stop offset="100%" style="stop-color:#0F1922;stop-opacity:1" />
    </linearGradient>
    <linearGradient id="goldGradient" x1="0%" y1="0%" x2="100%" y2="0%">
      <stop offset="0%" style="stop-color:#E5D596;stop-opacity:1" />
      <stop offset="50%" style="stop-color:#CFAE58;stop-opacity:1" />
      <stop offset="100%" style="stop-color:#B89842;stop-opacity:1" />
    </linearGradient>
    <radialGradient id="oceanGradient" cx="50%" cy="50%" r="50%">
      <stop offset="0%" style="stop-color:#4FD1C5;stop-opacity:0.3" />
      <stop offset="100%" style="stop-color:#1E90A0;stop-opacity:0.05" />
    </radialGradient>
    <filter id="glow">
      <feGaussianBlur stdDeviation="5" result="coloredBlur"/>
      <feMerge>
        <feMergeNode in="coloredBlur"/>
        <feMergeNode in="SourceGraphic"/>
      </feMerge>
    </filter>
    <filter id="softGlow">
      <feGaussianBlur stdDeviation="8" result="coloredBlur"/>
      <feMerge>
        <feMergeNode in="coloredBlur"/>
        <feMergeNode in="SourceGraphic"/>
      </feMerge>
    </filter>
    <filter id="shadow">
      <feDropShadow dx="0" dy="4" stdDeviation="8" flood-color="#000000" flood-opacity="0.5"/>
    </filter>
  </defs>

  <!-- Background -->
  <rect width="1200" height="630" fill="url(#bgGradient)"/>

  <!-- Decorative ocean gradients -->
  <ellipse cx="1000" cy="150" rx="300" ry="200" fill="url(#oceanGradient)" opacity="0.4"/>
  <ellipse cx="200" cy="530" rx="250" ry="180" fill="url(#oceanGradient)" opacity="0.3"/>

  <!-- Wave patterns -->
  <path d="M 0 400 Q 300 350 600 400 T 1200 400 L 1200 630 L 0 630 Z" fill="#1E90A0" opacity="0.08"/>
  <path d="M 0 450 Q 250 420 500 450 T 1000 450 T 1200 450 L 1200 630 L 0 630 Z" fill="#4FD1C5" opacity="0.05"/>

  <!-- Caviar roe particles -->
  <circle cx="24.036496742644744" cy="463.6189418563801" r="3.6961845565422" fill="#CFAE58" opacity="0.14043527696570532"/>
  <circle cx="435.818833183277" cy="589.4798441526389" r="4.495542132819221" fill="#CFAE58" opacity="0.16504877427783493"/>
  <circle cx="122.99922698840024" cy="382.70386427712083" r="5.111309183066581" fill="#CFAE58" opacity="0.13909355612557703"/>
  <circle cx="603.4814386263105" cy="276.8613039664745" r="3.930374405736088" fill="#CFAE58" opacity="0.21604689599656812"/>
  <circle cx="1088.523864946974" cy="52.30477766761891" r="4.004143948124425" fill="#CFAE58" opacity="0.10699687518271944"/>
  <circle cx="492.19034465093483" cy="555.375233088077" r="5.226180208534007" fill="#CFAE58" opacity="0.21782404008042305"/>
  <circle cx="834.1639585469948" cy="135.9488709609033" r="3.2332371625180665" fill="#CFAE58" opacity="0.1304485492041963"/>
  <circle cx="1164.997604622146" cy="374.64538990344647" r="4.057966178292249" fill="#CFAE58" opacity="0.2399114780073476"/>
  <circle cx="757.8318786832243" cy="220.98157474514687" r="2.9773525128586615" fill="#CFAE58" opacity="0.10455423671593436"/>
  <circle cx="1199.4937099577078" cy="588.173231711348" r="3.546776984081619" fill="#CFAE58" opacity="0.13800589683045997"/>
  <circle cx="934.5587105407024" cy="332.0813159425673" r="3.3880367753590988" fill="#CFAE58" opacity="0.10347973451714819"/>
  <circle cx="979.0222484581254" cy="355.0975001733861" r="5.444964701156515" fill="#CFAE58" opacity="0.2344148217707621"/>
  <circle cx="83.15621431163632" cy="152.3360296153486" r="3.5859881823080983" fill="#CFAE58" opacity="0.11182541784019984"/>
  <circle cx="958.2964526992353" cy="443.6076731458439" r="4.354635206283042" fill="#CFAE58" opacity="0.22431189353897207"/>
  <circle cx="135.89835673725435" cy="92.08237589445689" r="4.754251259979375" fill="#CFAE58" opacity="0.19188414881931065"/>
  <circle cx="649.0351655764595" cy="282.1886308487912" r="2.8512791667896638" fill="#CFAE58" opacity="0.11985083929210699"/>
  <circle cx="800.1581295355314" cy="78.80254645969782" r="5.983866908135143" fill="#CFAE58" opacity="0.1073159722535323"/>
  <circle cx="764.6390417113422" cy="144.54985604632094" r="5.8627006683206995" fill="#CFAE58" opacity="0.1558862133129347"/>
  <circle cx="1191.6399961576537" cy="523.8419138509299" r="5.2273926220823" fill="#CFAE58" opacity="0.11749664001759279"/>
  <circle cx="1156.788274794651" cy="274.2511255521213" r="5.863592831391183" fill="#CFAE58" opacity="0.14092544675282243"/>
  <circle cx="649.3845776178115" cy="151.47802921134664" r="4.5033736661106385" fill="#CFAE58" opacity="0.17225402418410413"/>
  <circle cx="564.2151314185215" cy="421.506417293037" r="3.826686695123129" fill="#CFAE58" opacity="0.1208989498221131"/>
  <circle cx="321.8022934483078" cy="591.5340021131927" r="5.5698768207856775" fill="#CFAE58" opacity="0.2460065649615151"/>
  <circle cx="195.55523965976406" cy="425.6760592573866" r="4.218242661510887" fill="#CFAE58" opacity="0.1306043282064391"/>
  <circle cx="193.76228783545972" cy="584.9514261185429" r="4.183233885776305" fill="#CFAE58" opacity="0.2127820548443755"/>
  <circle cx="185.57344768734802" cy="526.4633992966983" r="5.1890188425587604" fill="#CFAE58" opacity="0.19062924110457524"/>
  <circle cx="999.2961665266051" cy="127.60544371682613" r="5.248541908547817" fill="#CFAE58" opacity="0.18965924493138958"/>
  <circle cx="584.6416233115657" cy="251.05268886219469" r="2.6122466280785495" fill="#CFAE58" opacity="0.18535094525611512"/>
  <circle cx="444.0084770884336" cy="398.54278618828545" r="4.7808286225426055" fill="#CFAE58" opacity="0.18089632872315325"/>
  <circle cx="973.871748988872" cy="398.3527590293357" r="5.309519167667148" fill="#CFAE58" opacity="0.10917589946571922"/>

  <!-- Border with glow -->
  <rect x="40" y="40" width="1120" height="550" fill="none" stroke="url(#goldGradient)" stroke-width="3" rx="12" filter="url(#softGlow)"/>

  <!-- Icon circle with premium background -->
  <circle cx="150" cy="200" r="75" fill="#CFAE58" opacity="0.15" filter="url(#softGlow)"/>
  <circle cx="150" cy="200" r="70" fill="#CFAE58" opacity="0.25"/>
  <text x="150" y="235" font-size="90" text-anchor="middle" fill="#CFAE58" filter="url(#glow)">🐟</text>

  <!-- Premium logo (crown) with enhanced styling -->
  <g transform="translate(100, 70)">
    <path d="M 30 20 L 40 35 L 35 35 Z M 50 15 L 60 35 L 45 35 Z M 65 20 L 75 35 L 70 35 Z M 30 35 L 75 35 L 73 45 L 32 45 Z"
          fill="url(#goldGradient)" filter="url(#glow)" stroke="#B89842" stroke-width="0.5"/>
    <circle cx="40" cy="25" r="3" fill="#4FD1C5" filter="url(#glow)"/>
    <circle cx="52" cy="20" r="4" fill="#4FD1C5" filter="url(#glow)"/>
    <circle cx="65" cy="25" r="3" fill="#4FD1C5" filter="url(#glow)"/>
  </g>

  <!-- Title with shadow -->
  <text x="280" y="180" font-family="Georgia, serif" font-size="72" font-weight="bold"
        fill="url(#goldGradient)" filter="url(#shadow)">Salmon &amp; Red Caviar</text>

  <!-- Subtitle with subtle glow -->
  <text x="280" y="230" font-family="Arial, sans-serif" font-size="36"
        fill="#D6DEE6" opacity="0.95" filter="url(#softGlow)">Pacific Salmon Species Guide</text>

  <!-- Brand name with letter spacing -->
  <text x="280" y="300" font-family="Georgia, serif" font-size="32" font-weight="bold"
        fill="#CFAE58" letter-spacing="4" filter="url(#glow)">ROYAL KETA</text>

  <!-- Russian tagline -->
  <text x="280" y="340" font-family="Arial, sans-serif" font-size="22" font-style="italic"
        fill="#8B95A1" opacity="0.8">От икринки к королевской</text>

  <!-- Location -->
  <text x="280" y="380" font-family="Arial, sans-serif" font-size="20"
        fill="#8B95A1" opacity="0.7">Невельский район, Сахалин</text>

  <!-- Website with glow -->
  <text x="100" y="570" font-family="Arial, sans-serif" font-size="30" font-weight="bold"
        fill="#4FD1C5" filter="url(#glow)">royalketa.com</text>

  <!-- Enhanced decorative salmon silhouette -->
  <g transform="translate(950, 480)" opacity="0.2" filter="url(#softGlow)">
    <ellipse cx="0" cy="0" rx="90" ry="35" fill="#CFAE58"/>
    <path d="M 90 0 L 120 -18 L 130 0 L 120 18 Z" fill="#CFAE58"/>
    <path d="M -25 -35 L 0 -45 L 25 -35 Z" fill="#CFAE58"/>
    <ellipse cx="-50" cy="0" rx="15" ry="12" fill="#0B0F14"/>
  </g>

  <!-- Additional decorative caviar clusters -->
  <g opacity="0.2">
    <circle cx="1050" cy="120" r="6" fill="#CFAE58"/>
    <circle cx="1065" cy="115" r="5" fill="#CFAE58"/>
    <circle cx="1058" cy="130" r="4" fill="#CFAE58"/>
    <circle cx="150" cy="500" r="5" fill="#4FD1C5"/>
    <circle cx="165" cy="508" r="4" fill="#4FD1C5"/>
    <circle cx="140" cy="512" r="5" fill="#4FD1C5"/>
  </g>
</svg>