<svg width="1200" height="630" xmlns="http://www.w3.org/2000/svg">
  <defs>
    <linearGradient id="bgGradient" x1="0%" y1="0%" x2="100%" y2="100%">
      <stop offset="0%" style="stop-color:#0B0F14;stop-opacity:1" />
      <stop offset="50%" style="stop-color:#0F1619;stop-opacity:1" />
      <stop offset="100%" style="stop-color:#0F1922;stop-opacity:1" />
    </linearGradient>
    <linearGradient id="goldGradient" x1="0%" y1="0%" x2="100%" y2="0%">
      <stop offset="0%" style="stop-color:#E5D596;stop-opacity:1" />
      <stop offset="50%" style="stop-color:#CFAE58;stop-opacity:1" />
      <stop offset="100%" style="stop-color:#B89842;stop-opacity:1" />
    </linearGradient>
    <radialGradient id="oceanGradient" cx="50%" cy="50%" r="50%">
      <stop offset="0%" style="stop-color:#4FD1C5;stop-opacity:0.3" />
      <stop offset="100%" style="stop-color:#1E90A0;stop-opacity:0.05" />
    </radialGradient>
    <filter id="glow">
      <feGaussianBlur stdDeviation="5" result="coloredBlur"/>
      <feMerge>
        <feMergeNode in="coloredBlur"/>
        <feMergeNode in="SourceGraphic"/>
      </feMerge>
    </filter>
    <filter id="softGlow">
      <feGaussianBlur stdDeviation="8" result="coloredBlur"/>
      <feMerge>
        <feMergeNode in="coloredBlur"/>
        <feMergeNode in="SourceGraphic"/>
      </feMerge>
    </filter>
    <filter id="shadow">
      <feDropShadow dx="0" dy="4" stdDeviation="8" flood-color="#000000" flood-opacity="0.5"/>
    </filter>
  </defs>

  <!-- Background -->
  <rect width="1200" height="630" fill="url(#bgGradient)"/>

  <!-- Decorative ocean gradients -->
  <ellipse cx="1000" cy="150" rx="300" ry="200" fill="url(#oceanGradient)" opacity="0.4"/>
  <ellipse cx="200" cy="530" rx="250" ry="180" fill="url(#oceanGradient)" opacity="0.3"/>

  <!-- Wave patterns -->
  <path d="M 0 400 Q 300 350 600 400 T 1200 400 L 1200 630 L 0 630 Z" fill="#1E90A0" opacity="0.08"/>
  <path d="M 0 450 Q 250 420 500 450 T 1000 450 T 1200 450 L 1200 630 L 0 630 Z" fill="#4FD1C5" opacity="0.05"/>

  <!-- Caviar roe particles -->
  <circle cx="152.8722801593933" cy="348.8868428717829" r="4.422769170889129" fill="#CFAE58" opacity="0.24347872525107744"/>
  <circle cx="801.9441273628156" cy="575.0969945273974" r="4.9025263700658135" fill="#CFAE58" opacity="0.12594751987346675"/>
  <circle cx="193.42442571422725" cy="610.0748739027549" r="2.1946572415901735" fill="#CFAE58" opacity="0.11020178052001522"/>
  <circle cx="895.3453493022585" cy="246.67539810159516" r="3.3825361789667543" fill="#CFAE58" opacity="0.1195524653256562"/>
  <circle cx="822.6476436590249" cy="214.51633860162985" r="2.405080262048042" fill="#CFAE58" opacity="0.17077709813961606"/>
  <circle cx="229.93802735811215" cy="457.1801186365939" r="2.6979454241272336" fill="#CFAE58" opacity="0.21589632597648323"/>
  <circle cx="263.0688884287916" cy="525.2003336274772" r="4.618245264312461" fill="#CFAE58" opacity="0.21396244209182413"/>
  <circle cx="247.78136976182932" cy="163.1890183986716" r="4.046741940881858" fill="#CFAE58" opacity="0.24348969228937695"/>
  <circle cx="240.72450693792194" cy="34.68847825512749" r="3.8549772723732523" fill="#CFAE58" opacity="0.23812401129970667"/>
  <circle cx="906.5220395527067" cy="348.8585926602277" r="2.8473727602789562" fill="#CFAE58" opacity="0.10716340633242376"/>
  <circle cx="687.0916354964475" cy="0.514794622731185" r="4.383278388808184" fill="#CFAE58" opacity="0.16793581102500976"/>
  <circle cx="87.03274386224602" cy="494.2578825551867" r="5.724481679702872" fill="#CFAE58" opacity="0.1356355268292899"/>
  <circle cx="399.50091959669345" cy="622.8117023428471" r="3.3079538263553006" fill="#CFAE58" opacity="0.10806283899965828"/>
  <circle cx="211.31808053138533" cy="35.111932112604435" r="3.446865319806475" fill="#CFAE58" opacity="0.23531506127997875"/>
  <circle cx="990.774165766967" cy="165.29207726692997" r="5.09064165824892" fill="#CFAE58" opacity="0.1316541914513931"/>
  <circle cx="258.20499930540836" cy="373.9947272986295" r="3.790433798885582" fill="#CFAE58" opacity="0.2269509775875026"/>
  <circle cx="151.4308749386874" cy="274.62115796595054" r="5.28870325840799" fill="#CFAE58" opacity="0.18997997896432245"/>
  <circle cx="743.5060263430361" cy="610.4523393592974" r="3.762528937998725" fill="#CFAE58" opacity="0.18282867113301182"/>
  <circle cx="157.76651290683606" cy="300.85402826960893" r="4.069859921123971" fill="#CFAE58" opacity="0.21673558752574568"/>
  <circle cx="874.553486228595" cy="418.2493379840566" r="5.355248819764889" fill="#CFAE58" opacity="0.23740559074478462"/>
  <circle cx="174.37635868192305" cy="558.7191176504975" r="2.4885839698775665" fill="#CFAE58" opacity="0.13287608206802687"/>
  <circle cx="852.7796134512988" cy="315.6601493005571" r="2.5798335386383515" fill="#CFAE58" opacity="0.14949396148929014"/>
  <circle cx="820.7922748154332" cy="295.3696159574825" r="2.5539455198195" fill="#CFAE58" opacity="0.12934861323171443"/>
  <circle cx="448.21190479076245" cy="286.0198549307559" r="2.022069533927129" fill="#CFAE58" opacity="0.15701695225141515"/>
  <circle cx="25.212392178298735" cy="231.6848007247847" r="2.3827034295240863" fill="#CFAE58" opacity="0.17224140593802378"/>
  <circle cx="990.9050973024542" cy="529.9333529113981" r="2.2454862809111558" fill="#CFAE58" opacity="0.12419592042017215"/>
  <circle cx="765.2179988618587" cy="622.7828221112309" r="3.875410627869897" fill="#CFAE58" opacity="0.11867521294277134"/>
  <circle cx="634.798175493057" cy="296.6076221188993" r="5.345895368209816" fill="#CFAE58" opacity="0.15264990270339826"/>
  <circle cx="533.7672999859323" cy="464.992385343931" r="3.6489971366574485" fill="#CFAE58" opacity="0.1925059250045319"/>
  <circle cx="843.6571998022424" cy="344.1889843901155" r="4.695954599738425" fill="#CFAE58" opacity="0.17581683366063033"/>

  <!-- Border with glow -->
  <rect x="40" y="40" width="1120" height="550" fill="none" stroke="url(#goldGradient)" stroke-width="3" rx="12" filter="url(#softGlow)"/>

  <!-- Icon circle with premium background -->
  <circle cx="150" cy="200" r="75" fill="#CFAE58" opacity="0.15" filter="url(#softGlow)"/>
  <circle cx="150" cy="200" r="70" fill="#CFAE58" opacity="0.25"/>
  <text x="150" y="235" font-size="90" text-anchor="middle" fill="#CFAE58" filter="url(#glow)">🐟</text>

  <!-- Premium logo (crown) with enhanced styling -->
  <g transform="translate(100, 70)">
    <path d="M 30 20 L 40 35 L 35 35 Z M 50 15 L 60 35 L 45 35 Z M 65 20 L 75 35 L 70 35 Z M 30 35 L 75 35 L 73 45 L 32 45 Z"
          fill="url(#goldGradient)" filter="url(#glow)" stroke="#B89842" stroke-width="0.5"/>
    <circle cx="40" cy="25" r="3" fill="#4FD1C5" filter="url(#glow)"/>
    <circle cx="52" cy="20" r="4" fill="#4FD1C5" filter="url(#glow)"/>
    <circle cx="65" cy="25" r="3" fill="#4FD1C5" filter="url(#glow)"/>
  </g>

  <!-- Title with shadow -->
  <text x="280" y="180" font-family="Georgia, serif" font-size="72" font-weight="bold"
        fill="url(#goldGradient)" filter="url(#shadow)">Salmon &amp; Red Caviar</text>

  <!-- Subtitle with subtle glow -->
  <text x="280" y="230" font-family="Arial, sans-serif" font-size="36"
        fill="#D6DEE6" opacity="0.95" filter="url(#softGlow)">Pacific Salmon Species Guide</text>

  <!-- Brand name with letter spacing -->
  <text x="280" y="300" font-family="Georgia, serif" font-size="32" font-weight="bold"
        fill="#CFAE58" letter-spacing="4" filter="url(#glow)">ROYAL KETA</text>

  <!-- Russian tagline -->
  <text x="280" y="340" font-family="Arial, sans-serif" font-size="22" font-style="italic"
        fill="#8B95A1" opacity="0.8">От икринки к королевской</text>

  <!-- Location -->
  <text x="280" y="380" font-family="Arial, sans-serif" font-size="20"
        fill="#8B95A1" opacity="0.7">Невельский район, Сахалин</text>

  <!-- Website with glow -->
  <text x="100" y="570" font-family="Arial, sans-serif" font-size="30" font-weight="bold"
        fill="#4FD1C5" filter="url(#glow)">royalketa.com</text>

  <!-- Enhanced decorative salmon silhouette -->
  <g transform="translate(950, 480)" opacity="0.2" filter="url(#softGlow)">
    <ellipse cx="0" cy="0" rx="90" ry="35" fill="#CFAE58"/>
    <path d="M 90 0 L 120 -18 L 130 0 L 120 18 Z" fill="#CFAE58"/>
    <path d="M -25 -35 L 0 -45 L 25 -35 Z" fill="#CFAE58"/>
    <ellipse cx="-50" cy="0" rx="15" ry="12" fill="#0B0F14"/>
  </g>

  <!-- Additional decorative caviar clusters -->
  <g opacity="0.2">
    <circle cx="1050" cy="120" r="6" fill="#CFAE58"/>
    <circle cx="1065" cy="115" r="5" fill="#CFAE58"/>
    <circle cx="1058" cy="130" r="4" fill="#CFAE58"/>
    <circle cx="150" cy="500" r="5" fill="#4FD1C5"/>
    <circle cx="165" cy="508" r="4" fill="#4FD1C5"/>
    <circle cx="140" cy="512" r="5" fill="#4FD1C5"/>
  </g>
</svg>