<svg width="1200" height="630" xmlns="http://www.w3.org/2000/svg">
  <defs>
    <linearGradient id="bgGradient" x1="0%" y1="0%" x2="100%" y2="100%">
      <stop offset="0%" style="stop-color:#0B0F14;stop-opacity:1" />
      <stop offset="50%" style="stop-color:#0F1619;stop-opacity:1" />
      <stop offset="100%" style="stop-color:#0F1922;stop-opacity:1" />
    </linearGradient>
    <linearGradient id="goldGradient" x1="0%" y1="0%" x2="100%" y2="0%">
      <stop offset="0%" style="stop-color:#E5D596;stop-opacity:1" />
      <stop offset="50%" style="stop-color:#CFAE58;stop-opacity:1" />
      <stop offset="100%" style="stop-color:#B89842;stop-opacity:1" />
    </linearGradient>
    <radialGradient id="oceanGradient" cx="50%" cy="50%" r="50%">
      <stop offset="0%" style="stop-color:#4FD1C5;stop-opacity:0.3" />
      <stop offset="100%" style="stop-color:#1E90A0;stop-opacity:0.05" />
    </radialGradient>
    <filter id="glow">
      <feGaussianBlur stdDeviation="5" result="coloredBlur"/>
      <feMerge>
        <feMergeNode in="coloredBlur"/>
        <feMergeNode in="SourceGraphic"/>
      </feMerge>
    </filter>
    <filter id="softGlow">
      <feGaussianBlur stdDeviation="8" result="coloredBlur"/>
      <feMerge>
        <feMergeNode in="coloredBlur"/>
        <feMergeNode in="SourceGraphic"/>
      </feMerge>
    </filter>
    <filter id="shadow">
      <feDropShadow dx="0" dy="4" stdDeviation="8" flood-color="#000000" flood-opacity="0.5"/>
    </filter>
  </defs>

  <!-- Background -->
  <rect width="1200" height="630" fill="url(#bgGradient)"/>

  <!-- Decorative ocean gradients -->
  <ellipse cx="1000" cy="150" rx="300" ry="200" fill="url(#oceanGradient)" opacity="0.4"/>
  <ellipse cx="200" cy="530" rx="250" ry="180" fill="url(#oceanGradient)" opacity="0.3"/>

  <!-- Wave patterns -->
  <path d="M 0 400 Q 300 350 600 400 T 1200 400 L 1200 630 L 0 630 Z" fill="#1E90A0" opacity="0.08"/>
  <path d="M 0 450 Q 250 420 500 450 T 1000 450 T 1200 450 L 1200 630 L 0 630 Z" fill="#4FD1C5" opacity="0.05"/>

  <!-- Caviar roe particles -->
  <circle cx="160.8740508742966" cy="307.8589854843381" r="5.275069025944896" fill="#CFAE58" opacity="0.1171605711190813"/>
  <circle cx="884.1348321964767" cy="575.8229717703665" r="4.45468606142104" fill="#CFAE58" opacity="0.11651783721755411"/>
  <circle cx="345.49967532061817" cy="217.3086409485457" r="4.564726214601593" fill="#CFAE58" opacity="0.19484826384895637"/>
  <circle cx="808.9797966736368" cy="526.1242881772823" r="4.964234242051246" fill="#CFAE58" opacity="0.23539987016085304"/>
  <circle cx="735.2176344857506" cy="596.7337499746749" r="4.517111211518295" fill="#CFAE58" opacity="0.23887921709563897"/>
  <circle cx="1190.988020258945" cy="388.5217513829401" r="5.21006616672443" fill="#CFAE58" opacity="0.1846794977840706"/>
  <circle cx="59.69214214576333" cy="385.4737760443301" r="2.0092575858509933" fill="#CFAE58" opacity="0.22605132985018378"/>
  <circle cx="570.3597564824832" cy="49.99783633432671" r="4.277438633591804" fill="#CFAE58" opacity="0.13164673509812025"/>
  <circle cx="987.6363456862146" cy="443.39385013391296" r="2.7469059402599703" fill="#CFAE58" opacity="0.2436508613727473"/>
  <circle cx="590.5930499169325" cy="62.74103146511203" r="5.196383312470558" fill="#CFAE58" opacity="0.11557181138672927"/>
  <circle cx="1075.0424195077442" cy="396.08381799608105" r="5.708834486029714" fill="#CFAE58" opacity="0.2322407842699814"/>
  <circle cx="356.29366688457435" cy="127.47462630775301" r="3.5932159912300783" fill="#CFAE58" opacity="0.2434312457413092"/>
  <circle cx="289.5579132487038" cy="359.7074078737877" r="4.21104819035492" fill="#CFAE58" opacity="0.2070131062323991"/>
  <circle cx="1043.9542145962268" cy="59.28107924976159" r="2.7667093122349105" fill="#CFAE58" opacity="0.12709125926936218"/>
  <circle cx="26.060357672374845" cy="413.2376951432064" r="3.3395151940550774" fill="#CFAE58" opacity="0.10572363703396614"/>
  <circle cx="145.57303382364887" cy="357.96641040606437" r="4.236393454215163" fill="#CFAE58" opacity="0.1675059156525004"/>
  <circle cx="1114.514074759662" cy="135.60553171325418" r="3.1209304880176534" fill="#CFAE58" opacity="0.2276172994697434"/>
  <circle cx="304.1267208186143" cy="398.8830787820248" r="3.9508302773952444" fill="#CFAE58" opacity="0.13125599480190844"/>
  <circle cx="414.9756526804026" cy="133.70122614149824" r="3.0980835716787176" fill="#CFAE58" opacity="0.21518713900734693"/>
  <circle cx="1104.0872685683498" cy="165.99810681570924" r="3.650526406938635" fill="#CFAE58" opacity="0.1548918092254163"/>
  <circle cx="275.64783921126866" cy="237.43908971392065" r="5.746785025103242" fill="#CFAE58" opacity="0.20074513211746858"/>
  <circle cx="696.6629240524244" cy="29.341858533953623" r="3.32416572384113" fill="#CFAE58" opacity="0.2302394778292835"/>
  <circle cx="84.63429415540054" cy="577.6257069077843" r="4.008889898951051" fill="#CFAE58" opacity="0.21928456959051287"/>
  <circle cx="210.10242542805696" cy="89.57553865802484" r="3.7564895020192326" fill="#CFAE58" opacity="0.14705942899658173"/>
  <circle cx="379.0402566456128" cy="556.7723057133769" r="5.056268903393247" fill="#CFAE58" opacity="0.12072328349868161"/>
  <circle cx="902.3311797840687" cy="41.39688853585838" r="5.7710662520570875" fill="#CFAE58" opacity="0.14336206919092265"/>
  <circle cx="822.079192969612" cy="49.769993297605595" r="5.377859777710359" fill="#CFAE58" opacity="0.18033622389535278"/>
  <circle cx="1009.6462046648808" cy="569.1855032206537" r="5.365555717207871" fill="#CFAE58" opacity="0.18991266479995422"/>
  <circle cx="1098.1840450595048" cy="15.964865601476584" r="5.064238623073604" fill="#CFAE58" opacity="0.24525354878466388"/>
  <circle cx="10.399703199097932" cy="380.55110743907375" r="4.507236109841376" fill="#CFAE58" opacity="0.21545720695369402"/>

  <!-- Border with glow -->
  <rect x="40" y="40" width="1120" height="550" fill="none" stroke="url(#goldGradient)" stroke-width="3" rx="12" filter="url(#softGlow)"/>

  <!-- Icon circle with premium background -->
  <circle cx="150" cy="200" r="75" fill="#CFAE58" opacity="0.15" filter="url(#softGlow)"/>
  <circle cx="150" cy="200" r="70" fill="#CFAE58" opacity="0.25"/>
  <text x="150" y="235" font-size="90" text-anchor="middle" fill="#CFAE58" filter="url(#glow)">🐟</text>

  <!-- Premium logo (crown) with enhanced styling -->
  <g transform="translate(100, 70)">
    <path d="M 30 20 L 40 35 L 35 35 Z M 50 15 L 60 35 L 45 35 Z M 65 20 L 75 35 L 70 35 Z M 30 35 L 75 35 L 73 45 L 32 45 Z"
          fill="url(#goldGradient)" filter="url(#glow)" stroke="#B89842" stroke-width="0.5"/>
    <circle cx="40" cy="25" r="3" fill="#4FD1C5" filter="url(#glow)"/>
    <circle cx="52" cy="20" r="4" fill="#4FD1C5" filter="url(#glow)"/>
    <circle cx="65" cy="25" r="3" fill="#4FD1C5" filter="url(#glow)"/>
  </g>

  <!-- Title with shadow -->
  <text x="280" y="180" font-family="Georgia, serif" font-size="72" font-weight="bold"
        fill="url(#goldGradient)" filter="url(#shadow)">Salmon &amp; Red Caviar</text>

  <!-- Subtitle with subtle glow -->
  <text x="280" y="230" font-family="Arial, sans-serif" font-size="36"
        fill="#D6DEE6" opacity="0.95" filter="url(#softGlow)">Pacific Salmon Species Guide</text>

  <!-- Brand name with letter spacing -->
  <text x="280" y="300" font-family="Georgia, serif" font-size="32" font-weight="bold"
        fill="#CFAE58" letter-spacing="4" filter="url(#glow)">ROYAL KETA</text>

  <!-- Russian tagline -->
  <text x="280" y="340" font-family="Arial, sans-serif" font-size="22" font-style="italic"
        fill="#8B95A1" opacity="0.8">От икринки к королевской</text>

  <!-- Location -->
  <text x="280" y="380" font-family="Arial, sans-serif" font-size="20"
        fill="#8B95A1" opacity="0.7">Невельский район, Сахалин</text>

  <!-- Website with glow -->
  <text x="100" y="570" font-family="Arial, sans-serif" font-size="30" font-weight="bold"
        fill="#4FD1C5" filter="url(#glow)">royalketa.com</text>

  <!-- Enhanced decorative salmon silhouette -->
  <g transform="translate(950, 480)" opacity="0.2" filter="url(#softGlow)">
    <ellipse cx="0" cy="0" rx="90" ry="35" fill="#CFAE58"/>
    <path d="M 90 0 L 120 -18 L 130 0 L 120 18 Z" fill="#CFAE58"/>
    <path d="M -25 -35 L 0 -45 L 25 -35 Z" fill="#CFAE58"/>
    <ellipse cx="-50" cy="0" rx="15" ry="12" fill="#0B0F14"/>
  </g>

  <!-- Additional decorative caviar clusters -->
  <g opacity="0.2">
    <circle cx="1050" cy="120" r="6" fill="#CFAE58"/>
    <circle cx="1065" cy="115" r="5" fill="#CFAE58"/>
    <circle cx="1058" cy="130" r="4" fill="#CFAE58"/>
    <circle cx="150" cy="500" r="5" fill="#4FD1C5"/>
    <circle cx="165" cy="508" r="4" fill="#4FD1C5"/>
    <circle cx="140" cy="512" r="5" fill="#4FD1C5"/>
  </g>
</svg>