<svg width="1200" height="630" xmlns="http://www.w3.org/2000/svg">
  <defs>
    <linearGradient id="bgGradient" x1="0%" y1="0%" x2="100%" y2="100%">
      <stop offset="0%" style="stop-color:#0B0F14;stop-opacity:1" />
      <stop offset="50%" style="stop-color:#0F1619;stop-opacity:1" />
      <stop offset="100%" style="stop-color:#0F1922;stop-opacity:1" />
    </linearGradient>
    <linearGradient id="goldGradient" x1="0%" y1="0%" x2="100%" y2="0%">
      <stop offset="0%" style="stop-color:#E5D596;stop-opacity:1" />
      <stop offset="50%" style="stop-color:#CFAE58;stop-opacity:1" />
      <stop offset="100%" style="stop-color:#B89842;stop-opacity:1" />
    </linearGradient>
    <radialGradient id="oceanGradient" cx="50%" cy="50%" r="50%">
      <stop offset="0%" style="stop-color:#4FD1C5;stop-opacity:0.3" />
      <stop offset="100%" style="stop-color:#1E90A0;stop-opacity:0.05" />
    </radialGradient>
    <filter id="glow">
      <feGaussianBlur stdDeviation="5" result="coloredBlur"/>
      <feMerge>
        <feMergeNode in="coloredBlur"/>
        <feMergeNode in="SourceGraphic"/>
      </feMerge>
    </filter>
    <filter id="softGlow">
      <feGaussianBlur stdDeviation="8" result="coloredBlur"/>
      <feMerge>
        <feMergeNode in="coloredBlur"/>
        <feMergeNode in="SourceGraphic"/>
      </feMerge>
    </filter>
    <filter id="shadow">
      <feDropShadow dx="0" dy="4" stdDeviation="8" flood-color="#000000" flood-opacity="0.5"/>
    </filter>
  </defs>

  <!-- Background -->
  <rect width="1200" height="630" fill="url(#bgGradient)"/>

  <!-- Decorative ocean gradients -->
  <ellipse cx="1000" cy="150" rx="300" ry="200" fill="url(#oceanGradient)" opacity="0.4"/>
  <ellipse cx="200" cy="530" rx="250" ry="180" fill="url(#oceanGradient)" opacity="0.3"/>

  <!-- Wave patterns -->
  <path d="M 0 400 Q 300 350 600 400 T 1200 400 L 1200 630 L 0 630 Z" fill="#1E90A0" opacity="0.08"/>
  <path d="M 0 450 Q 250 420 500 450 T 1000 450 T 1200 450 L 1200 630 L 0 630 Z" fill="#4FD1C5" opacity="0.05"/>

  <!-- Caviar roe particles -->
  <circle cx="313.77414186266793" cy="476.310187444421" r="4.913653956763162" fill="#CFAE58" opacity="0.20361217487132527"/>
  <circle cx="1008.4999845539967" cy="142.99155129579424" r="2.6660598658455714" fill="#CFAE58" opacity="0.24319273043829526"/>
  <circle cx="1008.1442411008342" cy="628.944808671259" r="4.894851479250489" fill="#CFAE58" opacity="0.12267209368765866"/>
  <circle cx="131.7752144713132" cy="207.9605163486492" r="5.574745976053374" fill="#CFAE58" opacity="0.12177561372816259"/>
  <circle cx="445.9317593435267" cy="20.843336587867963" r="3.7365251639493096" fill="#CFAE58" opacity="0.20455717145229313"/>
  <circle cx="260.9022499869343" cy="612.2198984523843" r="4.262628733415798" fill="#CFAE58" opacity="0.14519277474583436"/>
  <circle cx="720.2462577913303" cy="569.9409134147387" r="5.740625175363701" fill="#CFAE58" opacity="0.2350850569871151"/>
  <circle cx="1004.9224195414827" cy="170.95160239429342" r="3.0707401476260934" fill="#CFAE58" opacity="0.20948301072901307"/>
  <circle cx="500.6803865925713" cy="36.31248693411067" r="2.400588746515166" fill="#CFAE58" opacity="0.1717246549000196"/>
  <circle cx="332.24575212292586" cy="568.091053651393" r="5.586366306421022" fill="#CFAE58" opacity="0.24419294520800314"/>
  <circle cx="595.1554909728" cy="352.8972981609531" r="2.8697418090343287" fill="#CFAE58" opacity="0.1817593312317508"/>
  <circle cx="452.29108726561867" cy="298.4211589167362" r="2.7247644501983483" fill="#CFAE58" opacity="0.1338462310995212"/>
  <circle cx="454.27257527579314" cy="275.21931592734524" r="2.8803568918618057" fill="#CFAE58" opacity="0.2025925988738666"/>
  <circle cx="604.8955088270777" cy="577.4581258458686" r="2.71621192708917" fill="#CFAE58" opacity="0.1290761285650099"/>
  <circle cx="740.9600986305488" cy="285.92250472412235" r="3.9962160997022975" fill="#CFAE58" opacity="0.1068991065143885"/>
  <circle cx="273.90322298757354" cy="592.6735348901082" r="4.6889950756724" fill="#CFAE58" opacity="0.21822148410534242"/>
  <circle cx="880.4436017012721" cy="453.21563096830965" r="2.9317022419643743" fill="#CFAE58" opacity="0.20042759465954468"/>
  <circle cx="819.2878593026428" cy="567.1372629078618" r="3.8355723578026653" fill="#CFAE58" opacity="0.15506660595677002"/>
  <circle cx="801.0455860126289" cy="220.63404798947585" r="3.5428078509388228" fill="#CFAE58" opacity="0.11992919024323127"/>
  <circle cx="636.3632840096624" cy="405.5327299319583" r="4.361658908755239" fill="#CFAE58" opacity="0.24925069455030502"/>
  <circle cx="581.9242335540822" cy="162.86289797953904" r="2.206657981855178" fill="#CFAE58" opacity="0.15292683392186543"/>
  <circle cx="229.5429331725682" cy="510.26133518234263" r="5.839707393413915" fill="#CFAE58" opacity="0.1328711332976284"/>
  <circle cx="915.0485597010301" cy="93.65199973521918" r="4.150954925591404" fill="#CFAE58" opacity="0.19919776368790487"/>
  <circle cx="1166.2347571086505" cy="205.01739345235134" r="4.237525054655468" fill="#CFAE58" opacity="0.20238595214375654"/>
  <circle cx="1057.611715831039" cy="145.68568654506612" r="2.160803230292162" fill="#CFAE58" opacity="0.1736916953284628"/>
  <circle cx="174.50527997990207" cy="413.5859719450127" r="2.3976314445584666" fill="#CFAE58" opacity="0.20815612743056178"/>
  <circle cx="938.3223171061775" cy="570.6667271207101" r="3.499614447751945" fill="#CFAE58" opacity="0.19085639960264114"/>
  <circle cx="177.5740927606525" cy="163.8609756643654" r="4.069174712707147" fill="#CFAE58" opacity="0.11073580677602961"/>
  <circle cx="445.32434264964616" cy="622.6846055916017" r="2.9912913394411746" fill="#CFAE58" opacity="0.13643155072507715"/>
  <circle cx="616.8955580013692" cy="44.256220342200095" r="3.270240193543285" fill="#CFAE58" opacity="0.1547726592369912"/>

  <!-- Border with glow -->
  <rect x="40" y="40" width="1120" height="550" fill="none" stroke="url(#goldGradient)" stroke-width="3" rx="12" filter="url(#softGlow)"/>

  <!-- Icon circle with premium background -->
  <circle cx="150" cy="200" r="75" fill="#CFAE58" opacity="0.15" filter="url(#softGlow)"/>
  <circle cx="150" cy="200" r="70" fill="#CFAE58" opacity="0.25"/>
  <text x="150" y="235" font-size="90" text-anchor="middle" fill="#CFAE58" filter="url(#glow)">🔬</text>

  <!-- Premium logo (crown) with enhanced styling -->
  <g transform="translate(100, 70)">
    <path d="M 30 20 L 40 35 L 35 35 Z M 50 15 L 60 35 L 45 35 Z M 65 20 L 75 35 L 70 35 Z M 30 35 L 75 35 L 73 45 L 32 45 Z"
          fill="url(#goldGradient)" filter="url(#glow)" stroke="#B89842" stroke-width="0.5"/>
    <circle cx="40" cy="25" r="3" fill="#4FD1C5" filter="url(#glow)"/>
    <circle cx="52" cy="20" r="4" fill="#4FD1C5" filter="url(#glow)"/>
    <circle cx="65" cy="25" r="3" fill="#4FD1C5" filter="url(#glow)"/>
  </g>

  <!-- Title with shadow -->
  <text x="280" y="180" font-family="Georgia, serif" font-size="72" font-weight="bold"
        fill="url(#goldGradient)" filter="url(#shadow)">Our Science</text>

  <!-- Subtitle with subtle glow -->
  <text x="280" y="230" font-family="Arial, sans-serif" font-size="36"
        fill="#D6DEE6" opacity="0.95" filter="url(#softGlow)">Advanced Aquaculture Methodology</text>

  <!-- Brand name with letter spacing -->
  <text x="280" y="300" font-family="Georgia, serif" font-size="32" font-weight="bold"
        fill="#CFAE58" letter-spacing="4" filter="url(#glow)">ROYAL KETA</text>

  <!-- Russian tagline -->
  <text x="280" y="340" font-family="Arial, sans-serif" font-size="22" font-style="italic"
        fill="#8B95A1" opacity="0.8">От икринки к королевской</text>

  <!-- Location -->
  <text x="280" y="380" font-family="Arial, sans-serif" font-size="20"
        fill="#8B95A1" opacity="0.7">Невельский район, Сахалин</text>

  <!-- Website with glow -->
  <text x="100" y="570" font-family="Arial, sans-serif" font-size="30" font-weight="bold"
        fill="#4FD1C5" filter="url(#glow)">royalketa.com</text>

  <!-- Enhanced decorative salmon silhouette -->
  <g transform="translate(950, 480)" opacity="0.2" filter="url(#softGlow)">
    <ellipse cx="0" cy="0" rx="90" ry="35" fill="#CFAE58"/>
    <path d="M 90 0 L 120 -18 L 130 0 L 120 18 Z" fill="#CFAE58"/>
    <path d="M -25 -35 L 0 -45 L 25 -35 Z" fill="#CFAE58"/>
    <ellipse cx="-50" cy="0" rx="15" ry="12" fill="#0B0F14"/>
  </g>

  <!-- Additional decorative caviar clusters -->
  <g opacity="0.2">
    <circle cx="1050" cy="120" r="6" fill="#CFAE58"/>
    <circle cx="1065" cy="115" r="5" fill="#CFAE58"/>
    <circle cx="1058" cy="130" r="4" fill="#CFAE58"/>
    <circle cx="150" cy="500" r="5" fill="#4FD1C5"/>
    <circle cx="165" cy="508" r="4" fill="#4FD1C5"/>
    <circle cx="140" cy="512" r="5" fill="#4FD1C5"/>
  </g>
</svg>