<svg width="1200" height="630" xmlns="http://www.w3.org/2000/svg">
  <defs>
    <linearGradient id="bgGradient" x1="0%" y1="0%" x2="100%" y2="100%">
      <stop offset="0%" style="stop-color:#0B0F14;stop-opacity:1" />
      <stop offset="50%" style="stop-color:#0F1619;stop-opacity:1" />
      <stop offset="100%" style="stop-color:#0F1922;stop-opacity:1" />
    </linearGradient>
    <linearGradient id="goldGradient" x1="0%" y1="0%" x2="100%" y2="0%">
      <stop offset="0%" style="stop-color:#E5D596;stop-opacity:1" />
      <stop offset="50%" style="stop-color:#CFAE58;stop-opacity:1" />
      <stop offset="100%" style="stop-color:#B89842;stop-opacity:1" />
    </linearGradient>
    <radialGradient id="oceanGradient" cx="50%" cy="50%" r="50%">
      <stop offset="0%" style="stop-color:#4FD1C5;stop-opacity:0.3" />
      <stop offset="100%" style="stop-color:#1E90A0;stop-opacity:0.05" />
    </radialGradient>
    <filter id="glow">
      <feGaussianBlur stdDeviation="5" result="coloredBlur"/>
      <feMerge>
        <feMergeNode in="coloredBlur"/>
        <feMergeNode in="SourceGraphic"/>
      </feMerge>
    </filter>
    <filter id="softGlow">
      <feGaussianBlur stdDeviation="8" result="coloredBlur"/>
      <feMerge>
        <feMergeNode in="coloredBlur"/>
        <feMergeNode in="SourceGraphic"/>
      </feMerge>
    </filter>
    <filter id="shadow">
      <feDropShadow dx="0" dy="4" stdDeviation="8" flood-color="#000000" flood-opacity="0.5"/>
    </filter>
  </defs>

  <!-- Background -->
  <rect width="1200" height="630" fill="url(#bgGradient)"/>

  <!-- Decorative ocean gradients -->
  <ellipse cx="1000" cy="150" rx="300" ry="200" fill="url(#oceanGradient)" opacity="0.4"/>
  <ellipse cx="200" cy="530" rx="250" ry="180" fill="url(#oceanGradient)" opacity="0.3"/>

  <!-- Wave patterns -->
  <path d="M 0 400 Q 300 350 600 400 T 1200 400 L 1200 630 L 0 630 Z" fill="#1E90A0" opacity="0.08"/>
  <path d="M 0 450 Q 250 420 500 450 T 1000 450 T 1200 450 L 1200 630 L 0 630 Z" fill="#4FD1C5" opacity="0.05"/>

  <!-- Caviar roe particles -->
  <circle cx="607.8646263464226" cy="161.69739952257578" r="5.431896738223813" fill="#CFAE58" opacity="0.16460937180071178"/>
  <circle cx="336.5252417517537" cy="176.27955092857354" r="4.500078500088602" fill="#CFAE58" opacity="0.244533945320499"/>
  <circle cx="722.4411677779832" cy="126.04459345897415" r="4.668426044155004" fill="#CFAE58" opacity="0.16509190138238683"/>
  <circle cx="237.81365868874462" cy="34.62182832710159" r="5.456394615814386" fill="#CFAE58" opacity="0.22686464271695445"/>
  <circle cx="150.24354716279572" cy="391.255976727851" r="3.2188095765988396" fill="#CFAE58" opacity="0.2424058104838172"/>
  <circle cx="279.23777472028684" cy="247.82955452355407" r="3.6053358197348095" fill="#CFAE58" opacity="0.10710020163734502"/>
  <circle cx="643.0590947428667" cy="595.0871357488367" r="2.3271557913365" fill="#CFAE58" opacity="0.22905483050581113"/>
  <circle cx="56.85893552541725" cy="553.2123505826627" r="4.802095591502538" fill="#CFAE58" opacity="0.2270042516765466"/>
  <circle cx="588.2416376351085" cy="231.13984240179136" r="2.4432994067805103" fill="#CFAE58" opacity="0.19645652583636486"/>
  <circle cx="321.0491162186145" cy="15.79661575915732" r="2.877376307154912" fill="#CFAE58" opacity="0.21263239372895476"/>
  <circle cx="1101.8797980928503" cy="399.25500599659426" r="3.6938019493434737" fill="#CFAE58" opacity="0.15800462378967936"/>
  <circle cx="88.69759242619311" cy="496.7628344545532" r="5.812623588757866" fill="#CFAE58" opacity="0.1692089729779263"/>
  <circle cx="263.02953623986133" cy="506.76270540504163" r="2.0890412037440838" fill="#CFAE58" opacity="0.14055096898803948"/>
  <circle cx="614.6937509863833" cy="157.20957936639726" r="5.232269976509457" fill="#CFAE58" opacity="0.10961518073441617"/>
  <circle cx="433.37752972991683" cy="296.801559836632" r="4.448392257768786" fill="#CFAE58" opacity="0.11547137487052642"/>
  <circle cx="697.1682174693208" cy="531.5016185494687" r="5.076510205215017" fill="#CFAE58" opacity="0.241709325656191"/>
  <circle cx="60.21383659461969" cy="382.82939462460917" r="2.6530259821804036" fill="#CFAE58" opacity="0.2410139071005845"/>
  <circle cx="384.2474747121036" cy="319.5889580386106" r="3.17416458391916" fill="#CFAE58" opacity="0.1528370779587212"/>
  <circle cx="781.6398693509817" cy="30.532503490712713" r="5.957681819077586" fill="#CFAE58" opacity="0.22434812447312033"/>
  <circle cx="202.70104536629466" cy="626.2030760734456" r="4.609436248038107" fill="#CFAE58" opacity="0.10452675289505335"/>
  <circle cx="384.80618009435653" cy="74.50664487334757" r="5.025831010120106" fill="#CFAE58" opacity="0.18848472150631013"/>
  <circle cx="6.423903989369073" cy="583.5626082290148" r="5.500078224567865" fill="#CFAE58" opacity="0.21195418291216278"/>
  <circle cx="684.9292947299084" cy="496.9599143923959" r="2.3232237384775383" fill="#CFAE58" opacity="0.24298799326710105"/>
  <circle cx="263.04714869393473" cy="393.03287694466735" r="2.5099189412601364" fill="#CFAE58" opacity="0.19097078696377606"/>
  <circle cx="1088.6879434652674" cy="198.22000950154168" r="5.95726073818935" fill="#CFAE58" opacity="0.23593316000507708"/>
  <circle cx="366.5583129372221" cy="616.7539352240867" r="4.4108510891079" fill="#CFAE58" opacity="0.23120872521923536"/>
  <circle cx="955.4647288016" cy="573.3629133757267" r="4.254859304803977" fill="#CFAE58" opacity="0.14215565765679794"/>
  <circle cx="502.4357895766713" cy="268.779936100586" r="5.5701503202223295" fill="#CFAE58" opacity="0.11532459692758543"/>
  <circle cx="551.7517871789339" cy="131.48767398714887" r="5.263004094465057" fill="#CFAE58" opacity="0.24863069821662118"/>
  <circle cx="1132.8479093388366" cy="43.2747474618888" r="3.8134549040614925" fill="#CFAE58" opacity="0.1209972132681045"/>

  <!-- Border with glow -->
  <rect x="40" y="40" width="1120" height="550" fill="none" stroke="url(#goldGradient)" stroke-width="3" rx="12" filter="url(#softGlow)"/>

  <!-- Icon circle with premium background -->
  <circle cx="150" cy="200" r="75" fill="#CFAE58" opacity="0.15" filter="url(#softGlow)"/>
  <circle cx="150" cy="200" r="70" fill="#CFAE58" opacity="0.25"/>
  <text x="150" y="235" font-size="90" text-anchor="middle" fill="#CFAE58" filter="url(#glow)">🔬</text>

  <!-- Premium logo (crown) with enhanced styling -->
  <g transform="translate(100, 70)">
    <path d="M 30 20 L 40 35 L 35 35 Z M 50 15 L 60 35 L 45 35 Z M 65 20 L 75 35 L 70 35 Z M 30 35 L 75 35 L 73 45 L 32 45 Z"
          fill="url(#goldGradient)" filter="url(#glow)" stroke="#B89842" stroke-width="0.5"/>
    <circle cx="40" cy="25" r="3" fill="#4FD1C5" filter="url(#glow)"/>
    <circle cx="52" cy="20" r="4" fill="#4FD1C5" filter="url(#glow)"/>
    <circle cx="65" cy="25" r="3" fill="#4FD1C5" filter="url(#glow)"/>
  </g>

  <!-- Title with shadow -->
  <text x="280" y="180" font-family="Georgia, serif" font-size="72" font-weight="bold"
        fill="url(#goldGradient)" filter="url(#shadow)">Our Science</text>

  <!-- Subtitle with subtle glow -->
  <text x="280" y="230" font-family="Arial, sans-serif" font-size="36"
        fill="#D6DEE6" opacity="0.95" filter="url(#softGlow)">Advanced Aquaculture Methodology</text>

  <!-- Brand name with letter spacing -->
  <text x="280" y="300" font-family="Georgia, serif" font-size="32" font-weight="bold"
        fill="#CFAE58" letter-spacing="4" filter="url(#glow)">ROYAL KETA</text>

  <!-- Russian tagline -->
  <text x="280" y="340" font-family="Arial, sans-serif" font-size="22" font-style="italic"
        fill="#8B95A1" opacity="0.8">От икринки к королевской</text>

  <!-- Location -->
  <text x="280" y="380" font-family="Arial, sans-serif" font-size="20"
        fill="#8B95A1" opacity="0.7">Невельский район, Сахалин</text>

  <!-- Website with glow -->
  <text x="100" y="570" font-family="Arial, sans-serif" font-size="30" font-weight="bold"
        fill="#4FD1C5" filter="url(#glow)">royalketa.com</text>

  <!-- Enhanced decorative salmon silhouette -->
  <g transform="translate(950, 480)" opacity="0.2" filter="url(#softGlow)">
    <ellipse cx="0" cy="0" rx="90" ry="35" fill="#CFAE58"/>
    <path d="M 90 0 L 120 -18 L 130 0 L 120 18 Z" fill="#CFAE58"/>
    <path d="M -25 -35 L 0 -45 L 25 -35 Z" fill="#CFAE58"/>
    <ellipse cx="-50" cy="0" rx="15" ry="12" fill="#0B0F14"/>
  </g>

  <!-- Additional decorative caviar clusters -->
  <g opacity="0.2">
    <circle cx="1050" cy="120" r="6" fill="#CFAE58"/>
    <circle cx="1065" cy="115" r="5" fill="#CFAE58"/>
    <circle cx="1058" cy="130" r="4" fill="#CFAE58"/>
    <circle cx="150" cy="500" r="5" fill="#4FD1C5"/>
    <circle cx="165" cy="508" r="4" fill="#4FD1C5"/>
    <circle cx="140" cy="512" r="5" fill="#4FD1C5"/>
  </g>
</svg>