<svg width="1200" height="630" xmlns="http://www.w3.org/2000/svg">
  <defs>
    <linearGradient id="bgGradient" x1="0%" y1="0%" x2="100%" y2="100%">
      <stop offset="0%" style="stop-color:#0B0F14;stop-opacity:1" />
      <stop offset="50%" style="stop-color:#0F1619;stop-opacity:1" />
      <stop offset="100%" style="stop-color:#0F1922;stop-opacity:1" />
    </linearGradient>
    <linearGradient id="goldGradient" x1="0%" y1="0%" x2="100%" y2="0%">
      <stop offset="0%" style="stop-color:#E5D596;stop-opacity:1" />
      <stop offset="50%" style="stop-color:#CFAE58;stop-opacity:1" />
      <stop offset="100%" style="stop-color:#B89842;stop-opacity:1" />
    </linearGradient>
    <radialGradient id="oceanGradient" cx="50%" cy="50%" r="50%">
      <stop offset="0%" style="stop-color:#4FD1C5;stop-opacity:0.3" />
      <stop offset="100%" style="stop-color:#1E90A0;stop-opacity:0.05" />
    </radialGradient>
    <filter id="glow">
      <feGaussianBlur stdDeviation="5" result="coloredBlur"/>
      <feMerge>
        <feMergeNode in="coloredBlur"/>
        <feMergeNode in="SourceGraphic"/>
      </feMerge>
    </filter>
    <filter id="softGlow">
      <feGaussianBlur stdDeviation="8" result="coloredBlur"/>
      <feMerge>
        <feMergeNode in="coloredBlur"/>
        <feMergeNode in="SourceGraphic"/>
      </feMerge>
    </filter>
    <filter id="shadow">
      <feDropShadow dx="0" dy="4" stdDeviation="8" flood-color="#000000" flood-opacity="0.5"/>
    </filter>
  </defs>

  <!-- Background -->
  <rect width="1200" height="630" fill="url(#bgGradient)"/>

  <!-- Decorative ocean gradients -->
  <ellipse cx="1000" cy="150" rx="300" ry="200" fill="url(#oceanGradient)" opacity="0.4"/>
  <ellipse cx="200" cy="530" rx="250" ry="180" fill="url(#oceanGradient)" opacity="0.3"/>

  <!-- Wave patterns -->
  <path d="M 0 400 Q 300 350 600 400 T 1200 400 L 1200 630 L 0 630 Z" fill="#1E90A0" opacity="0.08"/>
  <path d="M 0 450 Q 250 420 500 450 T 1000 450 T 1200 450 L 1200 630 L 0 630 Z" fill="#4FD1C5" opacity="0.05"/>

  <!-- Caviar roe particles -->
  <circle cx="605.6236727165955" cy="396.8348983659183" r="5.300292468194277" fill="#CFAE58" opacity="0.12808248458447927"/>
  <circle cx="357.65829417074156" cy="603.1595433823701" r="3.623828349107992" fill="#CFAE58" opacity="0.10965885835669086"/>
  <circle cx="1000.3571944139724" cy="200.45439781551138" r="2.9867151886763565" fill="#CFAE58" opacity="0.21373910319363829"/>
  <circle cx="765.9027626969948" cy="542.7275726115913" r="4.03201531969006" fill="#CFAE58" opacity="0.1761985336819013"/>
  <circle cx="504.68708783598515" cy="205.88357657764382" r="2.3576484599620997" fill="#CFAE58" opacity="0.11190570563352867"/>
  <circle cx="285.8219494832086" cy="260.9705452912549" r="2.8548843269556796" fill="#CFAE58" opacity="0.23571068759516725"/>
  <circle cx="590.2161133081585" cy="306.93510508264166" r="4.0330684246540365" fill="#CFAE58" opacity="0.15171707842288412"/>
  <circle cx="399.02566345013275" cy="150.79642277751046" r="3.599216010880279" fill="#CFAE58" opacity="0.24041605066042687"/>
  <circle cx="1061.4983682837992" cy="350.6940714374337" r="2.7538329899260585" fill="#CFAE58" opacity="0.1287044922537475"/>
  <circle cx="517.172589111002" cy="613.6432413246791" r="2.5755866539611043" fill="#CFAE58" opacity="0.18751449497717776"/>
  <circle cx="898.6839373837514" cy="4.909946453881453" r="3.1189331893848644" fill="#CFAE58" opacity="0.21179665275962034"/>
  <circle cx="1039.106246636977" cy="407.1884831741578" r="2.037550201173742" fill="#CFAE58" opacity="0.12060400575081542"/>
  <circle cx="996.947330547187" cy="390.85981121560894" r="3.7138691689899703" fill="#CFAE58" opacity="0.21308926695847671"/>
  <circle cx="169.4344330090699" cy="534.8780392233291" r="2.6154078731719412" fill="#CFAE58" opacity="0.10922921201982151"/>
  <circle cx="1110.0388194006443" cy="13.824516225772065" r="3.306691517939373" fill="#CFAE58" opacity="0.1668776656581954"/>
  <circle cx="256.05241159591213" cy="615.5923663444104" r="5.434923692485913" fill="#CFAE58" opacity="0.21932865229963058"/>
  <circle cx="931.1879881672071" cy="37.769698593564925" r="4.757862794205369" fill="#CFAE58" opacity="0.16281679567817584"/>
  <circle cx="409.65779543931404" cy="111.79023890738544" r="2.422025384465398" fill="#CFAE58" opacity="0.21079560896402763"/>
  <circle cx="695.1932711664133" cy="414.5277163809309" r="3.35487480934448" fill="#CFAE58" opacity="0.16800632850551447"/>
  <circle cx="117.69164562657836" cy="362.9481764024513" r="3.522610625386201" fill="#CFAE58" opacity="0.12852884699068243"/>
  <circle cx="528.908862248681" cy="520.712019013601" r="2.472185964653506" fill="#CFAE58" opacity="0.18672630221157838"/>
  <circle cx="65.96982711691881" cy="594.7184580671013" r="5.441062039703993" fill="#CFAE58" opacity="0.10459174809085094"/>
  <circle cx="165.54464888085417" cy="47.74511784429496" r="3.341811369801726" fill="#CFAE58" opacity="0.15541984011030907"/>
  <circle cx="1152.567671937095" cy="322.3314550239826" r="5.160281534023439" fill="#CFAE58" opacity="0.15810049480523858"/>
  <circle cx="832.198776800229" cy="118.09788745673552" r="5.007523235042932" fill="#CFAE58" opacity="0.17208468163163346"/>
  <circle cx="676.0119680070293" cy="207.08815696969071" r="5.074999810876966" fill="#CFAE58" opacity="0.24273617366140027"/>
  <circle cx="952.7688481422898" cy="17.862393440828647" r="3.7652381602241283" fill="#CFAE58" opacity="0.1890562392964849"/>
  <circle cx="532.3019868919362" cy="25.48145189026783" r="2.6141998108600895" fill="#CFAE58" opacity="0.1760848046838"/>
  <circle cx="341.9747731010885" cy="42.94082432710271" r="5.668564176764556" fill="#CFAE58" opacity="0.16345143783429147"/>
  <circle cx="171.04777861090082" cy="365.10674386481827" r="5.824766764253589" fill="#CFAE58" opacity="0.1586332860767903"/>

  <!-- Border with glow -->
  <rect x="40" y="40" width="1120" height="550" fill="none" stroke="url(#goldGradient)" stroke-width="3" rx="12" filter="url(#softGlow)"/>

  <!-- Icon circle with premium background -->
  <circle cx="150" cy="200" r="75" fill="#CFAE58" opacity="0.15" filter="url(#softGlow)"/>
  <circle cx="150" cy="200" r="70" fill="#CFAE58" opacity="0.25"/>
  <text x="150" y="235" font-size="90" text-anchor="middle" fill="#CFAE58" filter="url(#glow)">🔬</text>

  <!-- Premium logo (crown) with enhanced styling -->
  <g transform="translate(100, 70)">
    <path d="M 30 20 L 40 35 L 35 35 Z M 50 15 L 60 35 L 45 35 Z M 65 20 L 75 35 L 70 35 Z M 30 35 L 75 35 L 73 45 L 32 45 Z"
          fill="url(#goldGradient)" filter="url(#glow)" stroke="#B89842" stroke-width="0.5"/>
    <circle cx="40" cy="25" r="3" fill="#4FD1C5" filter="url(#glow)"/>
    <circle cx="52" cy="20" r="4" fill="#4FD1C5" filter="url(#glow)"/>
    <circle cx="65" cy="25" r="3" fill="#4FD1C5" filter="url(#glow)"/>
  </g>

  <!-- Title with shadow -->
  <text x="280" y="180" font-family="Georgia, serif" font-size="72" font-weight="bold"
        fill="url(#goldGradient)" filter="url(#shadow)">Our Science</text>

  <!-- Subtitle with subtle glow -->
  <text x="280" y="230" font-family="Arial, sans-serif" font-size="36"
        fill="#D6DEE6" opacity="0.95" filter="url(#softGlow)">Advanced Aquaculture Methodology</text>

  <!-- Brand name with letter spacing -->
  <text x="280" y="300" font-family="Georgia, serif" font-size="32" font-weight="bold"
        fill="#CFAE58" letter-spacing="4" filter="url(#glow)">ROYAL KETA</text>

  <!-- Russian tagline -->
  <text x="280" y="340" font-family="Arial, sans-serif" font-size="22" font-style="italic"
        fill="#8B95A1" opacity="0.8">От икринки к королевской</text>

  <!-- Location -->
  <text x="280" y="380" font-family="Arial, sans-serif" font-size="20"
        fill="#8B95A1" opacity="0.7">Невельский район, Сахалин</text>

  <!-- Website with glow -->
  <text x="100" y="570" font-family="Arial, sans-serif" font-size="30" font-weight="bold"
        fill="#4FD1C5" filter="url(#glow)">royalketa.com</text>

  <!-- Enhanced decorative salmon silhouette -->
  <g transform="translate(950, 480)" opacity="0.2" filter="url(#softGlow)">
    <ellipse cx="0" cy="0" rx="90" ry="35" fill="#CFAE58"/>
    <path d="M 90 0 L 120 -18 L 130 0 L 120 18 Z" fill="#CFAE58"/>
    <path d="M -25 -35 L 0 -45 L 25 -35 Z" fill="#CFAE58"/>
    <ellipse cx="-50" cy="0" rx="15" ry="12" fill="#0B0F14"/>
  </g>

  <!-- Additional decorative caviar clusters -->
  <g opacity="0.2">
    <circle cx="1050" cy="120" r="6" fill="#CFAE58"/>
    <circle cx="1065" cy="115" r="5" fill="#CFAE58"/>
    <circle cx="1058" cy="130" r="4" fill="#CFAE58"/>
    <circle cx="150" cy="500" r="5" fill="#4FD1C5"/>
    <circle cx="165" cy="508" r="4" fill="#4FD1C5"/>
    <circle cx="140" cy="512" r="5" fill="#4FD1C5"/>
  </g>
</svg>