<svg width="1200" height="630" xmlns="http://www.w3.org/2000/svg">
  <defs>
    <linearGradient id="bgGradient" x1="0%" y1="0%" x2="100%" y2="100%">
      <stop offset="0%" style="stop-color:#0B0F14;stop-opacity:1" />
      <stop offset="50%" style="stop-color:#0F1619;stop-opacity:1" />
      <stop offset="100%" style="stop-color:#0F1922;stop-opacity:1" />
    </linearGradient>
    <linearGradient id="goldGradient" x1="0%" y1="0%" x2="100%" y2="0%">
      <stop offset="0%" style="stop-color:#E5D596;stop-opacity:1" />
      <stop offset="50%" style="stop-color:#CFAE58;stop-opacity:1" />
      <stop offset="100%" style="stop-color:#B89842;stop-opacity:1" />
    </linearGradient>
    <radialGradient id="oceanGradient" cx="50%" cy="50%" r="50%">
      <stop offset="0%" style="stop-color:#4FD1C5;stop-opacity:0.3" />
      <stop offset="100%" style="stop-color:#1E90A0;stop-opacity:0.05" />
    </radialGradient>
    <filter id="glow">
      <feGaussianBlur stdDeviation="5" result="coloredBlur"/>
      <feMerge>
        <feMergeNode in="coloredBlur"/>
        <feMergeNode in="SourceGraphic"/>
      </feMerge>
    </filter>
    <filter id="softGlow">
      <feGaussianBlur stdDeviation="8" result="coloredBlur"/>
      <feMerge>
        <feMergeNode in="coloredBlur"/>
        <feMergeNode in="SourceGraphic"/>
      </feMerge>
    </filter>
    <filter id="shadow">
      <feDropShadow dx="0" dy="4" stdDeviation="8" flood-color="#000000" flood-opacity="0.5"/>
    </filter>
  </defs>

  <!-- Background -->
  <rect width="1200" height="630" fill="url(#bgGradient)"/>

  <!-- Decorative ocean gradients -->
  <ellipse cx="1000" cy="150" rx="300" ry="200" fill="url(#oceanGradient)" opacity="0.4"/>
  <ellipse cx="200" cy="530" rx="250" ry="180" fill="url(#oceanGradient)" opacity="0.3"/>

  <!-- Wave patterns -->
  <path d="M 0 400 Q 300 350 600 400 T 1200 400 L 1200 630 L 0 630 Z" fill="#1E90A0" opacity="0.08"/>
  <path d="M 0 450 Q 250 420 500 450 T 1000 450 T 1200 450 L 1200 630 L 0 630 Z" fill="#4FD1C5" opacity="0.05"/>

  <!-- Caviar roe particles -->
  <circle cx="471.2052432102868" cy="133.73560999015473" r="4.9097475575441685" fill="#CFAE58" opacity="0.23577788033272135"/>
  <circle cx="1192.7293739902955" cy="562.0147984114692" r="3.018574407538754" fill="#CFAE58" opacity="0.23492282502139838"/>
  <circle cx="934.3238891003703" cy="252.14630433138052" r="2.9673178732613783" fill="#CFAE58" opacity="0.23314873077633855"/>
  <circle cx="509.66301398382086" cy="114.99795637101865" r="3.3505382918504267" fill="#CFAE58" opacity="0.10538241467279826"/>
  <circle cx="123.06931568814905" cy="322.0825661349968" r="2.2800033265530875" fill="#CFAE58" opacity="0.21235544994445502"/>
  <circle cx="260.6322670534887" cy="183.4640442698703" r="5.174306732042091" fill="#CFAE58" opacity="0.23204522809975514"/>
  <circle cx="918.910779685667" cy="623.664020558659" r="4.151164860992637" fill="#CFAE58" opacity="0.16001696717074837"/>
  <circle cx="686.8180974948153" cy="566.3909895771008" r="3.7140636911017992" fill="#CFAE58" opacity="0.11956209542442896"/>
  <circle cx="1043.1762559452534" cy="270.23062702108115" r="4.175115690456033" fill="#CFAE58" opacity="0.21059258018642102"/>
  <circle cx="1060.563159246361" cy="163.54863646576175" r="3.6002272486192073" fill="#CFAE58" opacity="0.1388162386225745"/>
  <circle cx="411.5170171236479" cy="328.55757898331564" r="4.207780061319922" fill="#CFAE58" opacity="0.13143833708569547"/>
  <circle cx="455.58426632959794" cy="11.968254755647704" r="2.3969957763741574" fill="#CFAE58" opacity="0.23901000510969728"/>
  <circle cx="145.70745263175846" cy="45.62661919666149" r="5.2856010791769386" fill="#CFAE58" opacity="0.11254054012236613"/>
  <circle cx="1174.2894517112118" cy="327.1298817886192" r="3.3798623795271947" fill="#CFAE58" opacity="0.11943263990328937"/>
  <circle cx="980.4542051434596" cy="133.77358056473915" r="3.945992283474605" fill="#CFAE58" opacity="0.20820646191625675"/>
  <circle cx="782.9029637236388" cy="387.9620134886669" r="3.499569604827925" fill="#CFAE58" opacity="0.20941503892282326"/>
  <circle cx="1182.5755259301488" cy="218.21182069193017" r="2.1206200781423705" fill="#CFAE58" opacity="0.2478945667494255"/>
  <circle cx="333.5071189103984" cy="13.625184234538995" r="3.882151713316464" fill="#CFAE58" opacity="0.19791421631136397"/>
  <circle cx="451.2965793681172" cy="389.8227250082513" r="5.821975727991426" fill="#CFAE58" opacity="0.18307625478170964"/>
  <circle cx="732.9940645304072" cy="529.226364941496" r="4.040437597355045" fill="#CFAE58" opacity="0.19720155488421554"/>
  <circle cx="483.63926479035405" cy="557.8123406572587" r="3.7736525312377145" fill="#CFAE58" opacity="0.15650239497968518"/>
  <circle cx="1177.4152160229607" cy="351.4991310960534" r="5.410612433661426" fill="#CFAE58" opacity="0.22663834481717876"/>
  <circle cx="917.0892844509701" cy="63.34150379566542" r="5.900181359644727" fill="#CFAE58" opacity="0.192844441416745"/>
  <circle cx="420.5543866594359" cy="186.10581104986008" r="3.8463298753055897" fill="#CFAE58" opacity="0.15681956466066146"/>
  <circle cx="1060.4670462632348" cy="201.17689614973972" r="5.644325902167826" fill="#CFAE58" opacity="0.16135481262167783"/>
  <circle cx="1056.5457885731323" cy="293.1114896541146" r="3.85952562370431" fill="#CFAE58" opacity="0.15688472471998008"/>
  <circle cx="1115.2935482447833" cy="441.634509134528" r="2.2550460375665136" fill="#CFAE58" opacity="0.2146614022966649"/>
  <circle cx="85.8984599042011" cy="30.778381206515487" r="3.9659697469393667" fill="#CFAE58" opacity="0.1358332806584002"/>
  <circle cx="687.0144112393592" cy="358.9296452569803" r="3.537540139971685" fill="#CFAE58" opacity="0.18977046757097576"/>
  <circle cx="766.7932529620983" cy="206.97255164283706" r="5.958058377494457" fill="#CFAE58" opacity="0.19934739475923102"/>

  <!-- Border with glow -->
  <rect x="40" y="40" width="1120" height="550" fill="none" stroke="url(#goldGradient)" stroke-width="3" rx="12" filter="url(#softGlow)"/>

  <!-- Icon circle with premium background -->
  <circle cx="150" cy="200" r="75" fill="#CFAE58" opacity="0.15" filter="url(#softGlow)"/>
  <circle cx="150" cy="200" r="70" fill="#CFAE58" opacity="0.25"/>
  <text x="150" y="235" font-size="90" text-anchor="middle" fill="#CFAE58" filter="url(#glow)">🔬</text>

  <!-- Premium logo (crown) with enhanced styling -->
  <g transform="translate(100, 70)">
    <path d="M 30 20 L 40 35 L 35 35 Z M 50 15 L 60 35 L 45 35 Z M 65 20 L 75 35 L 70 35 Z M 30 35 L 75 35 L 73 45 L 32 45 Z"
          fill="url(#goldGradient)" filter="url(#glow)" stroke="#B89842" stroke-width="0.5"/>
    <circle cx="40" cy="25" r="3" fill="#4FD1C5" filter="url(#glow)"/>
    <circle cx="52" cy="20" r="4" fill="#4FD1C5" filter="url(#glow)"/>
    <circle cx="65" cy="25" r="3" fill="#4FD1C5" filter="url(#glow)"/>
  </g>

  <!-- Title with shadow -->
  <text x="280" y="180" font-family="Georgia, serif" font-size="72" font-weight="bold"
        fill="url(#goldGradient)" filter="url(#shadow)">Our Science</text>

  <!-- Subtitle with subtle glow -->
  <text x="280" y="230" font-family="Arial, sans-serif" font-size="36"
        fill="#D6DEE6" opacity="0.95" filter="url(#softGlow)">Advanced Aquaculture Methodology</text>

  <!-- Brand name with letter spacing -->
  <text x="280" y="300" font-family="Georgia, serif" font-size="32" font-weight="bold"
        fill="#CFAE58" letter-spacing="4" filter="url(#glow)">ROYAL KETA</text>

  <!-- Russian tagline -->
  <text x="280" y="340" font-family="Arial, sans-serif" font-size="22" font-style="italic"
        fill="#8B95A1" opacity="0.8">От икринки к королевской</text>

  <!-- Location -->
  <text x="280" y="380" font-family="Arial, sans-serif" font-size="20"
        fill="#8B95A1" opacity="0.7">Невельский район, Сахалин</text>

  <!-- Website with glow -->
  <text x="100" y="570" font-family="Arial, sans-serif" font-size="30" font-weight="bold"
        fill="#4FD1C5" filter="url(#glow)">royalketa.com</text>

  <!-- Enhanced decorative salmon silhouette -->
  <g transform="translate(950, 480)" opacity="0.2" filter="url(#softGlow)">
    <ellipse cx="0" cy="0" rx="90" ry="35" fill="#CFAE58"/>
    <path d="M 90 0 L 120 -18 L 130 0 L 120 18 Z" fill="#CFAE58"/>
    <path d="M -25 -35 L 0 -45 L 25 -35 Z" fill="#CFAE58"/>
    <ellipse cx="-50" cy="0" rx="15" ry="12" fill="#0B0F14"/>
  </g>

  <!-- Additional decorative caviar clusters -->
  <g opacity="0.2">
    <circle cx="1050" cy="120" r="6" fill="#CFAE58"/>
    <circle cx="1065" cy="115" r="5" fill="#CFAE58"/>
    <circle cx="1058" cy="130" r="4" fill="#CFAE58"/>
    <circle cx="150" cy="500" r="5" fill="#4FD1C5"/>
    <circle cx="165" cy="508" r="4" fill="#4FD1C5"/>
    <circle cx="140" cy="512" r="5" fill="#4FD1C5"/>
  </g>
</svg>