<svg width="1200" height="630" xmlns="http://www.w3.org/2000/svg">
  <defs>
    <linearGradient id="bgGradient" x1="0%" y1="0%" x2="100%" y2="100%">
      <stop offset="0%" style="stop-color:#0B0F14;stop-opacity:1" />
      <stop offset="50%" style="stop-color:#0F1619;stop-opacity:1" />
      <stop offset="100%" style="stop-color:#0F1922;stop-opacity:1" />
    </linearGradient>
    <linearGradient id="goldGradient" x1="0%" y1="0%" x2="100%" y2="0%">
      <stop offset="0%" style="stop-color:#E5D596;stop-opacity:1" />
      <stop offset="50%" style="stop-color:#CFAE58;stop-opacity:1" />
      <stop offset="100%" style="stop-color:#B89842;stop-opacity:1" />
    </linearGradient>
    <radialGradient id="oceanGradient" cx="50%" cy="50%" r="50%">
      <stop offset="0%" style="stop-color:#4FD1C5;stop-opacity:0.3" />
      <stop offset="100%" style="stop-color:#1E90A0;stop-opacity:0.05" />
    </radialGradient>
    <filter id="glow">
      <feGaussianBlur stdDeviation="5" result="coloredBlur"/>
      <feMerge>
        <feMergeNode in="coloredBlur"/>
        <feMergeNode in="SourceGraphic"/>
      </feMerge>
    </filter>
    <filter id="softGlow">
      <feGaussianBlur stdDeviation="8" result="coloredBlur"/>
      <feMerge>
        <feMergeNode in="coloredBlur"/>
        <feMergeNode in="SourceGraphic"/>
      </feMerge>
    </filter>
    <filter id="shadow">
      <feDropShadow dx="0" dy="4" stdDeviation="8" flood-color="#000000" flood-opacity="0.5"/>
    </filter>
  </defs>

  <!-- Background -->
  <rect width="1200" height="630" fill="url(#bgGradient)"/>

  <!-- Decorative ocean gradients -->
  <ellipse cx="1000" cy="150" rx="300" ry="200" fill="url(#oceanGradient)" opacity="0.4"/>
  <ellipse cx="200" cy="530" rx="250" ry="180" fill="url(#oceanGradient)" opacity="0.3"/>

  <!-- Wave patterns -->
  <path d="M 0 400 Q 300 350 600 400 T 1200 400 L 1200 630 L 0 630 Z" fill="#1E90A0" opacity="0.08"/>
  <path d="M 0 450 Q 250 420 500 450 T 1000 450 T 1200 450 L 1200 630 L 0 630 Z" fill="#4FD1C5" opacity="0.05"/>

  <!-- Caviar roe particles -->
  <circle cx="802.8626308951019" cy="627.0083656927977" r="3.051696819725313" fill="#CFAE58" opacity="0.224424607996042"/>
  <circle cx="1023.6751989219656" cy="425.9030284341847" r="5.145089026976711" fill="#CFAE58" opacity="0.15525014806112514"/>
  <circle cx="234.65332671211013" cy="19.31014476126366" r="4.145827644523991" fill="#CFAE58" opacity="0.1808397059896401"/>
  <circle cx="1142.7017141473716" cy="291.02058298726325" r="4.237290402239102" fill="#CFAE58" opacity="0.12346608909200812"/>
  <circle cx="399.5657699477473" cy="269.9195412683132" r="5.720044535634184" fill="#CFAE58" opacity="0.1557009493467602"/>
  <circle cx="176.46425922919482" cy="313.0039445859302" r="3.796701029700504" fill="#CFAE58" opacity="0.24341245841114512"/>
  <circle cx="1157.8600562602876" cy="599.1098525923446" r="5.580317440121313" fill="#CFAE58" opacity="0.1766170605488946"/>
  <circle cx="1143.8935629468072" cy="324.863573010394" r="4.447324239918692" fill="#CFAE58" opacity="0.24331276874565427"/>
  <circle cx="126.7114806425873" cy="572.7683350489464" r="2.1748585561785765" fill="#CFAE58" opacity="0.21206702642126113"/>
  <circle cx="765.2318131012019" cy="191.99272787105542" r="2.6492837755243253" fill="#CFAE58" opacity="0.17166921704880186"/>
  <circle cx="758.4713381211113" cy="145.07942137339356" r="4.6806264830701085" fill="#CFAE58" opacity="0.22894854490404162"/>
  <circle cx="185.48516931951121" cy="128.1156350096151" r="3.388156077425845" fill="#CFAE58" opacity="0.16056229552621565"/>
  <circle cx="629.2384708576108" cy="625.827049818548" r="5.646224769142589" fill="#CFAE58" opacity="0.21992065057179078"/>
  <circle cx="529.6147344929545" cy="611.8723857035213" r="2.6421635770762872" fill="#CFAE58" opacity="0.2451321688042803"/>
  <circle cx="533.0348516551841" cy="598.0070957965905" r="3.2009967855720927" fill="#CFAE58" opacity="0.19552954043063153"/>
  <circle cx="251.05030817198167" cy="107.04445332398068" r="2.724465937676082" fill="#CFAE58" opacity="0.189145999194043"/>
  <circle cx="777.5091757936284" cy="276.37070909234654" r="3.7270964292918363" fill="#CFAE58" opacity="0.1047501579999136"/>
  <circle cx="826.0596998025766" cy="424.90608460469036" r="3.8918516142643726" fill="#CFAE58" opacity="0.14222545533063002"/>
  <circle cx="956.2306852888858" cy="451.577089949369" r="4.050071238932504" fill="#CFAE58" opacity="0.24497121147337858"/>
  <circle cx="9.63513309985018" cy="60.04985848215995" r="4.382534746226128" fill="#CFAE58" opacity="0.18765875847508318"/>
  <circle cx="852.2212624184422" cy="190.75340708227787" r="3.416741197739875" fill="#CFAE58" opacity="0.20776247909025125"/>
  <circle cx="906.928277891309" cy="428.40040598402936" r="2.9412662150818623" fill="#CFAE58" opacity="0.22894359181331997"/>
  <circle cx="780.9464372974835" cy="77.20758803028647" r="5.166041112313344" fill="#CFAE58" opacity="0.24283287196172265"/>
  <circle cx="1199.2409385908984" cy="127.26168472994718" r="5.216896059931963" fill="#CFAE58" opacity="0.24182521787183134"/>
  <circle cx="700.3295897736095" cy="39.21273555843811" r="2.72680840649996" fill="#CFAE58" opacity="0.2318372562821251"/>
  <circle cx="853.9717877286695" cy="174.328978564892" r="5.09173355465523" fill="#CFAE58" opacity="0.19214672061814586"/>
  <circle cx="505.7626535015204" cy="590.4891481831422" r="3.2843560392947717" fill="#CFAE58" opacity="0.1359841853846352"/>
  <circle cx="561.1380239576296" cy="193.18397053820317" r="3.9287792486472366" fill="#CFAE58" opacity="0.19048882161391117"/>
  <circle cx="208.70930716055432" cy="26.957038990897733" r="4.886114416210685" fill="#CFAE58" opacity="0.2143021305080321"/>
  <circle cx="787.1937075387691" cy="50.35635077432716" r="4.5953913135721995" fill="#CFAE58" opacity="0.10808311847417257"/>

  <!-- Border with glow -->
  <rect x="40" y="40" width="1120" height="550" fill="none" stroke="url(#goldGradient)" stroke-width="3" rx="12" filter="url(#softGlow)"/>

  <!-- Icon circle with premium background -->
  <circle cx="150" cy="200" r="75" fill="#CFAE58" opacity="0.15" filter="url(#softGlow)"/>
  <circle cx="150" cy="200" r="70" fill="#CFAE58" opacity="0.25"/>
  <text x="150" y="235" font-size="90" text-anchor="middle" fill="#CFAE58" filter="url(#glow)">🔬</text>

  <!-- Premium logo (crown) with enhanced styling -->
  <g transform="translate(100, 70)">
    <path d="M 30 20 L 40 35 L 35 35 Z M 50 15 L 60 35 L 45 35 Z M 65 20 L 75 35 L 70 35 Z M 30 35 L 75 35 L 73 45 L 32 45 Z"
          fill="url(#goldGradient)" filter="url(#glow)" stroke="#B89842" stroke-width="0.5"/>
    <circle cx="40" cy="25" r="3" fill="#4FD1C5" filter="url(#glow)"/>
    <circle cx="52" cy="20" r="4" fill="#4FD1C5" filter="url(#glow)"/>
    <circle cx="65" cy="25" r="3" fill="#4FD1C5" filter="url(#glow)"/>
  </g>

  <!-- Title with shadow -->
  <text x="280" y="180" font-family="Georgia, serif" font-size="72" font-weight="bold"
        fill="url(#goldGradient)" filter="url(#shadow)">Our Science</text>

  <!-- Subtitle with subtle glow -->
  <text x="280" y="230" font-family="Arial, sans-serif" font-size="36"
        fill="#D6DEE6" opacity="0.95" filter="url(#softGlow)">Advanced Aquaculture Methodology</text>

  <!-- Brand name with letter spacing -->
  <text x="280" y="300" font-family="Georgia, serif" font-size="32" font-weight="bold"
        fill="#CFAE58" letter-spacing="4" filter="url(#glow)">ROYAL KETA</text>

  <!-- Russian tagline -->
  <text x="280" y="340" font-family="Arial, sans-serif" font-size="22" font-style="italic"
        fill="#8B95A1" opacity="0.8">От икринки к королевской</text>

  <!-- Location -->
  <text x="280" y="380" font-family="Arial, sans-serif" font-size="20"
        fill="#8B95A1" opacity="0.7">Невельский район, Сахалин</text>

  <!-- Website with glow -->
  <text x="100" y="570" font-family="Arial, sans-serif" font-size="30" font-weight="bold"
        fill="#4FD1C5" filter="url(#glow)">royalketa.com</text>

  <!-- Enhanced decorative salmon silhouette -->
  <g transform="translate(950, 480)" opacity="0.2" filter="url(#softGlow)">
    <ellipse cx="0" cy="0" rx="90" ry="35" fill="#CFAE58"/>
    <path d="M 90 0 L 120 -18 L 130 0 L 120 18 Z" fill="#CFAE58"/>
    <path d="M -25 -35 L 0 -45 L 25 -35 Z" fill="#CFAE58"/>
    <ellipse cx="-50" cy="0" rx="15" ry="12" fill="#0B0F14"/>
  </g>

  <!-- Additional decorative caviar clusters -->
  <g opacity="0.2">
    <circle cx="1050" cy="120" r="6" fill="#CFAE58"/>
    <circle cx="1065" cy="115" r="5" fill="#CFAE58"/>
    <circle cx="1058" cy="130" r="4" fill="#CFAE58"/>
    <circle cx="150" cy="500" r="5" fill="#4FD1C5"/>
    <circle cx="165" cy="508" r="4" fill="#4FD1C5"/>
    <circle cx="140" cy="512" r="5" fill="#4FD1C5"/>
  </g>
</svg>