<svg width="1200" height="630" xmlns="http://www.w3.org/2000/svg">
  <defs>
    <linearGradient id="bgGradient" x1="0%" y1="0%" x2="100%" y2="100%">
      <stop offset="0%" style="stop-color:#0B0F14;stop-opacity:1" />
      <stop offset="50%" style="stop-color:#0F1619;stop-opacity:1" />
      <stop offset="100%" style="stop-color:#0F1922;stop-opacity:1" />
    </linearGradient>
    <linearGradient id="goldGradient" x1="0%" y1="0%" x2="100%" y2="0%">
      <stop offset="0%" style="stop-color:#E5D596;stop-opacity:1" />
      <stop offset="50%" style="stop-color:#CFAE58;stop-opacity:1" />
      <stop offset="100%" style="stop-color:#B89842;stop-opacity:1" />
    </linearGradient>
    <radialGradient id="oceanGradient" cx="50%" cy="50%" r="50%">
      <stop offset="0%" style="stop-color:#4FD1C5;stop-opacity:0.3" />
      <stop offset="100%" style="stop-color:#1E90A0;stop-opacity:0.05" />
    </radialGradient>
    <filter id="glow">
      <feGaussianBlur stdDeviation="5" result="coloredBlur"/>
      <feMerge>
        <feMergeNode in="coloredBlur"/>
        <feMergeNode in="SourceGraphic"/>
      </feMerge>
    </filter>
    <filter id="softGlow">
      <feGaussianBlur stdDeviation="8" result="coloredBlur"/>
      <feMerge>
        <feMergeNode in="coloredBlur"/>
        <feMergeNode in="SourceGraphic"/>
      </feMerge>
    </filter>
    <filter id="shadow">
      <feDropShadow dx="0" dy="4" stdDeviation="8" flood-color="#000000" flood-opacity="0.5"/>
    </filter>
  </defs>

  <!-- Background -->
  <rect width="1200" height="630" fill="url(#bgGradient)"/>

  <!-- Decorative ocean gradients -->
  <ellipse cx="1000" cy="150" rx="300" ry="200" fill="url(#oceanGradient)" opacity="0.4"/>
  <ellipse cx="200" cy="530" rx="250" ry="180" fill="url(#oceanGradient)" opacity="0.3"/>

  <!-- Wave patterns -->
  <path d="M 0 400 Q 300 350 600 400 T 1200 400 L 1200 630 L 0 630 Z" fill="#1E90A0" opacity="0.08"/>
  <path d="M 0 450 Q 250 420 500 450 T 1000 450 T 1200 450 L 1200 630 L 0 630 Z" fill="#4FD1C5" opacity="0.05"/>

  <!-- Caviar roe particles -->
  <circle cx="260.8626503301478" cy="566.9650910855842" r="4.334701189185768" fill="#CFAE58" opacity="0.2169361359863883"/>
  <circle cx="495.8218905604228" cy="446.688177408143" r="5.505652539609519" fill="#CFAE58" opacity="0.22990447043552842"/>
  <circle cx="437.45875995602495" cy="508.26232350144016" r="2.217985447787803" fill="#CFAE58" opacity="0.1518470395609638"/>
  <circle cx="716.4747908727456" cy="396.67351843661504" r="2.2817760331204173" fill="#CFAE58" opacity="0.2057090227943636"/>
  <circle cx="270.58059683715027" cy="184.27862455694185" r="5.512233532155285" fill="#CFAE58" opacity="0.14830949849143144"/>
  <circle cx="812.6887499700811" cy="555.9272773013465" r="4.987732864087306" fill="#CFAE58" opacity="0.17257215639407464"/>
  <circle cx="95.9808561498992" cy="387.9342586472798" r="5.232453478922878" fill="#CFAE58" opacity="0.18066072801009975"/>
  <circle cx="321.328785142254" cy="614.9512564995402" r="2.357231459950688" fill="#CFAE58" opacity="0.15054400666770584"/>
  <circle cx="632.217518007962" cy="407.07265261237916" r="3.0355760491262433" fill="#CFAE58" opacity="0.22126698190218475"/>
  <circle cx="1141.057276647291" cy="200.75254033523774" r="2.2427447689032096" fill="#CFAE58" opacity="0.21403952739645826"/>
  <circle cx="698.2163931345875" cy="608.1352695190169" r="5.660236138261586" fill="#CFAE58" opacity="0.15540183660241552"/>
  <circle cx="860.0614091643298" cy="581.1490254782447" r="3.432003023054153" fill="#CFAE58" opacity="0.11063706243709664"/>
  <circle cx="678.6575100960495" cy="189.82652679473503" r="3.440929177895492" fill="#CFAE58" opacity="0.2246559459935876"/>
  <circle cx="166.2904746803661" cy="184.89278017048858" r="2.911849174675316" fill="#CFAE58" opacity="0.20905207028179934"/>
  <circle cx="1123.6153274470314" cy="477.68079558901115" r="2.142377921744848" fill="#CFAE58" opacity="0.13515692886607378"/>
  <circle cx="1128.7068518837543" cy="354.288352187351" r="5.668653767494436" fill="#CFAE58" opacity="0.22664255032697558"/>
  <circle cx="891.9484447490336" cy="400.6742232011849" r="2.8027759491864304" fill="#CFAE58" opacity="0.190129250873746"/>
  <circle cx="946.8238431841024" cy="246.05493754805448" r="5.750038791493041" fill="#CFAE58" opacity="0.20871658621620942"/>
  <circle cx="23.214097397339195" cy="498.2113043009749" r="4.418206848691104" fill="#CFAE58" opacity="0.20150855762531467"/>
  <circle cx="622.3416853101686" cy="301.1506421398661" r="3.9306485747563213" fill="#CFAE58" opacity="0.19225448271967138"/>
  <circle cx="643.8186904063349" cy="324.8664520017458" r="2.199986460792265" fill="#CFAE58" opacity="0.1316283000542358"/>
  <circle cx="1119.1995396972934" cy="403.7529281301449" r="3.593590347438245" fill="#CFAE58" opacity="0.22467426209474053"/>
  <circle cx="56.874810025615474" cy="247.62543247107627" r="3.149919094788629" fill="#CFAE58" opacity="0.22702653932875902"/>
  <circle cx="150.49734485569087" cy="116.1118831107128" r="5.962500070542851" fill="#CFAE58" opacity="0.23711340227491393"/>
  <circle cx="756.8702766309317" cy="321.5280624228762" r="2.777159725176178" fill="#CFAE58" opacity="0.2057941203646609"/>
  <circle cx="209.63983473131788" cy="177.1669877453612" r="3.559923664790497" fill="#CFAE58" opacity="0.2139827233753178"/>
  <circle cx="980.6937845757741" cy="591.3721050095907" r="2.2322483950300684" fill="#CFAE58" opacity="0.10188612921581831"/>
  <circle cx="1171.6439657399012" cy="379.4410977896735" r="4.065585091581657" fill="#CFAE58" opacity="0.22342416881997065"/>
  <circle cx="1008.7039241483822" cy="452.60820022410337" r="5.934151461486268" fill="#CFAE58" opacity="0.24473521228369147"/>
  <circle cx="451.19267807113556" cy="371.3583080814516" r="5.635653074899027" fill="#CFAE58" opacity="0.1947888709293401"/>

  <!-- Border with glow -->
  <rect x="40" y="40" width="1120" height="550" fill="none" stroke="url(#goldGradient)" stroke-width="3" rx="12" filter="url(#softGlow)"/>

  <!-- Icon circle with premium background -->
  <circle cx="150" cy="200" r="75" fill="#CFAE58" opacity="0.15" filter="url(#softGlow)"/>
  <circle cx="150" cy="200" r="70" fill="#CFAE58" opacity="0.25"/>
  <text x="150" y="235" font-size="90" text-anchor="middle" fill="#CFAE58" filter="url(#glow)">🔬</text>

  <!-- Premium logo (crown) with enhanced styling -->
  <g transform="translate(100, 70)">
    <path d="M 30 20 L 40 35 L 35 35 Z M 50 15 L 60 35 L 45 35 Z M 65 20 L 75 35 L 70 35 Z M 30 35 L 75 35 L 73 45 L 32 45 Z"
          fill="url(#goldGradient)" filter="url(#glow)" stroke="#B89842" stroke-width="0.5"/>
    <circle cx="40" cy="25" r="3" fill="#4FD1C5" filter="url(#glow)"/>
    <circle cx="52" cy="20" r="4" fill="#4FD1C5" filter="url(#glow)"/>
    <circle cx="65" cy="25" r="3" fill="#4FD1C5" filter="url(#glow)"/>
  </g>

  <!-- Title with shadow -->
  <text x="280" y="180" font-family="Georgia, serif" font-size="72" font-weight="bold"
        fill="url(#goldGradient)" filter="url(#shadow)">Our Science</text>

  <!-- Subtitle with subtle glow -->
  <text x="280" y="230" font-family="Arial, sans-serif" font-size="36"
        fill="#D6DEE6" opacity="0.95" filter="url(#softGlow)">Advanced Aquaculture Methodology</text>

  <!-- Brand name with letter spacing -->
  <text x="280" y="300" font-family="Georgia, serif" font-size="32" font-weight="bold"
        fill="#CFAE58" letter-spacing="4" filter="url(#glow)">ROYAL KETA</text>

  <!-- Russian tagline -->
  <text x="280" y="340" font-family="Arial, sans-serif" font-size="22" font-style="italic"
        fill="#8B95A1" opacity="0.8">От икринки к королевской</text>

  <!-- Location -->
  <text x="280" y="380" font-family="Arial, sans-serif" font-size="20"
        fill="#8B95A1" opacity="0.7">Невельский район, Сахалин</text>

  <!-- Website with glow -->
  <text x="100" y="570" font-family="Arial, sans-serif" font-size="30" font-weight="bold"
        fill="#4FD1C5" filter="url(#glow)">royalketa.com</text>

  <!-- Enhanced decorative salmon silhouette -->
  <g transform="translate(950, 480)" opacity="0.2" filter="url(#softGlow)">
    <ellipse cx="0" cy="0" rx="90" ry="35" fill="#CFAE58"/>
    <path d="M 90 0 L 120 -18 L 130 0 L 120 18 Z" fill="#CFAE58"/>
    <path d="M -25 -35 L 0 -45 L 25 -35 Z" fill="#CFAE58"/>
    <ellipse cx="-50" cy="0" rx="15" ry="12" fill="#0B0F14"/>
  </g>

  <!-- Additional decorative caviar clusters -->
  <g opacity="0.2">
    <circle cx="1050" cy="120" r="6" fill="#CFAE58"/>
    <circle cx="1065" cy="115" r="5" fill="#CFAE58"/>
    <circle cx="1058" cy="130" r="4" fill="#CFAE58"/>
    <circle cx="150" cy="500" r="5" fill="#4FD1C5"/>
    <circle cx="165" cy="508" r="4" fill="#4FD1C5"/>
    <circle cx="140" cy="512" r="5" fill="#4FD1C5"/>
  </g>
</svg>