<svg width="1200" height="630" xmlns="http://www.w3.org/2000/svg">
  <defs>
    <linearGradient id="bgGradient" x1="0%" y1="0%" x2="100%" y2="100%">
      <stop offset="0%" style="stop-color:#0B0F14;stop-opacity:1" />
      <stop offset="50%" style="stop-color:#0F1619;stop-opacity:1" />
      <stop offset="100%" style="stop-color:#0F1922;stop-opacity:1" />
    </linearGradient>
    <linearGradient id="goldGradient" x1="0%" y1="0%" x2="100%" y2="0%">
      <stop offset="0%" style="stop-color:#E5D596;stop-opacity:1" />
      <stop offset="50%" style="stop-color:#CFAE58;stop-opacity:1" />
      <stop offset="100%" style="stop-color:#B89842;stop-opacity:1" />
    </linearGradient>
    <radialGradient id="oceanGradient" cx="50%" cy="50%" r="50%">
      <stop offset="0%" style="stop-color:#4FD1C5;stop-opacity:0.3" />
      <stop offset="100%" style="stop-color:#1E90A0;stop-opacity:0.05" />
    </radialGradient>
    <filter id="glow">
      <feGaussianBlur stdDeviation="5" result="coloredBlur"/>
      <feMerge>
        <feMergeNode in="coloredBlur"/>
        <feMergeNode in="SourceGraphic"/>
      </feMerge>
    </filter>
    <filter id="softGlow">
      <feGaussianBlur stdDeviation="8" result="coloredBlur"/>
      <feMerge>
        <feMergeNode in="coloredBlur"/>
        <feMergeNode in="SourceGraphic"/>
      </feMerge>
    </filter>
    <filter id="shadow">
      <feDropShadow dx="0" dy="4" stdDeviation="8" flood-color="#000000" flood-opacity="0.5"/>
    </filter>
  </defs>

  <!-- Background -->
  <rect width="1200" height="630" fill="url(#bgGradient)"/>

  <!-- Decorative ocean gradients -->
  <ellipse cx="1000" cy="150" rx="300" ry="200" fill="url(#oceanGradient)" opacity="0.4"/>
  <ellipse cx="200" cy="530" rx="250" ry="180" fill="url(#oceanGradient)" opacity="0.3"/>

  <!-- Wave patterns -->
  <path d="M 0 400 Q 300 350 600 400 T 1200 400 L 1200 630 L 0 630 Z" fill="#1E90A0" opacity="0.08"/>
  <path d="M 0 450 Q 250 420 500 450 T 1000 450 T 1200 450 L 1200 630 L 0 630 Z" fill="#4FD1C5" opacity="0.05"/>

  <!-- Caviar roe particles -->
  <circle cx="389.7239650997541" cy="584.8637468494929" r="4.109356508498309" fill="#CFAE58" opacity="0.14023363925446827"/>
  <circle cx="1191.6990617853407" cy="369.92402555280813" r="4.012844519177289" fill="#CFAE58" opacity="0.12072854418460022"/>
  <circle cx="344.34155232146156" cy="174.70239287820982" r="3.8687155099019224" fill="#CFAE58" opacity="0.1482700953509039"/>
  <circle cx="965.256629926782" cy="72.96036128750332" r="5.723882314007953" fill="#CFAE58" opacity="0.11709933161303715"/>
  <circle cx="277.38981090792765" cy="210.34137373041924" r="2.1035677957487167" fill="#CFAE58" opacity="0.13603847201557534"/>
  <circle cx="1003.2850637064963" cy="183.60424952342672" r="3.9167942521140455" fill="#CFAE58" opacity="0.15600433533362226"/>
  <circle cx="1148.8503188919556" cy="186.59527474497042" r="5.2699439218464414" fill="#CFAE58" opacity="0.24817875147138294"/>
  <circle cx="1035.4794419932355" cy="497.42179229194033" r="3.2807089224347097" fill="#CFAE58" opacity="0.2178596673729956"/>
  <circle cx="655.050240880635" cy="454.80029416719543" r="5.173440442253243" fill="#CFAE58" opacity="0.2066736121090425"/>
  <circle cx="1018.4231245872885" cy="572.1885864992707" r="3.9610702027815137" fill="#CFAE58" opacity="0.24949916746557277"/>
  <circle cx="36.24866294466776" cy="174.87967627451576" r="2.873011334646856" fill="#CFAE58" opacity="0.20337898289388695"/>
  <circle cx="652.8968883530852" cy="312.3435928560962" r="5.663516103902918" fill="#CFAE58" opacity="0.14484683592446868"/>
  <circle cx="273.7480561793789" cy="238.90906322180683" r="2.9879753073330013" fill="#CFAE58" opacity="0.14505227935531037"/>
  <circle cx="272.0944817118621" cy="565.2787688535226" r="5.297260784999488" fill="#CFAE58" opacity="0.15512086884038662"/>
  <circle cx="841.2801137724628" cy="593.4073817282259" r="3.958855746355117" fill="#CFAE58" opacity="0.1933315052099654"/>
  <circle cx="989.0412127128036" cy="494.00650589576844" r="5.724674679593237" fill="#CFAE58" opacity="0.1001926031800714"/>
  <circle cx="132.61913498758994" cy="598.1954870573228" r="4.546814109476804" fill="#CFAE58" opacity="0.14058178807722935"/>
  <circle cx="1059.8917038905663" cy="113.08608189584187" r="2.7598872171834357" fill="#CFAE58" opacity="0.23379904579221217"/>
  <circle cx="668.644144961078" cy="379.1469660888548" r="4.518668512856387" fill="#CFAE58" opacity="0.2370305327922259"/>
  <circle cx="1118.4102988548982" cy="493.7592925579275" r="5.127760853783574" fill="#CFAE58" opacity="0.11369334029588042"/>
  <circle cx="235.55127445009143" cy="473.05283792519714" r="5.282025397678426" fill="#CFAE58" opacity="0.1377632377395204"/>
  <circle cx="822.1277101595464" cy="511.42124421614784" r="5.9798024260002025" fill="#CFAE58" opacity="0.19979891073063963"/>
  <circle cx="273.7101218745738" cy="46.88282048191461" r="5.302223671682799" fill="#CFAE58" opacity="0.24003445235918763"/>
  <circle cx="875.5941193813522" cy="323.13577178250125" r="2.680362258210959" fill="#CFAE58" opacity="0.21120413688828185"/>
  <circle cx="620.5428701668591" cy="617.6523364409098" r="3.69198802640207" fill="#CFAE58" opacity="0.17909628862834248"/>
  <circle cx="868.4288017266724" cy="238.22009979374985" r="3.6833446961008356" fill="#CFAE58" opacity="0.21745264104232473"/>
  <circle cx="1084.3310262655311" cy="303.1525572372041" r="3.5114898621181956" fill="#CFAE58" opacity="0.14882382662640417"/>
  <circle cx="768.777979872905" cy="322.51697854836885" r="5.28606794264168" fill="#CFAE58" opacity="0.12613080426987233"/>
  <circle cx="122.59653486830517" cy="281.1665606262435" r="5.899203572274254" fill="#CFAE58" opacity="0.16883544316827065"/>
  <circle cx="843.8214143509366" cy="102.80451569289264" r="3.063406396273165" fill="#CFAE58" opacity="0.1475794596352112"/>

  <!-- Border with glow -->
  <rect x="40" y="40" width="1120" height="550" fill="none" stroke="url(#goldGradient)" stroke-width="3" rx="12" filter="url(#softGlow)"/>

  <!-- Icon circle with premium background -->
  <circle cx="150" cy="200" r="75" fill="#CFAE58" opacity="0.15" filter="url(#softGlow)"/>
  <circle cx="150" cy="200" r="70" fill="#CFAE58" opacity="0.25"/>
  <text x="150" y="235" font-size="90" text-anchor="middle" fill="#CFAE58" filter="url(#glow)">🔬</text>

  <!-- Premium logo (crown) with enhanced styling -->
  <g transform="translate(100, 70)">
    <path d="M 30 20 L 40 35 L 35 35 Z M 50 15 L 60 35 L 45 35 Z M 65 20 L 75 35 L 70 35 Z M 30 35 L 75 35 L 73 45 L 32 45 Z"
          fill="url(#goldGradient)" filter="url(#glow)" stroke="#B89842" stroke-width="0.5"/>
    <circle cx="40" cy="25" r="3" fill="#4FD1C5" filter="url(#glow)"/>
    <circle cx="52" cy="20" r="4" fill="#4FD1C5" filter="url(#glow)"/>
    <circle cx="65" cy="25" r="3" fill="#4FD1C5" filter="url(#glow)"/>
  </g>

  <!-- Title with shadow -->
  <text x="280" y="180" font-family="Georgia, serif" font-size="72" font-weight="bold"
        fill="url(#goldGradient)" filter="url(#shadow)">Our Science</text>

  <!-- Subtitle with subtle glow -->
  <text x="280" y="230" font-family="Arial, sans-serif" font-size="36"
        fill="#D6DEE6" opacity="0.95" filter="url(#softGlow)">Advanced Aquaculture Methodology</text>

  <!-- Brand name with letter spacing -->
  <text x="280" y="300" font-family="Georgia, serif" font-size="32" font-weight="bold"
        fill="#CFAE58" letter-spacing="4" filter="url(#glow)">ROYAL KETA</text>

  <!-- Russian tagline -->
  <text x="280" y="340" font-family="Arial, sans-serif" font-size="22" font-style="italic"
        fill="#8B95A1" opacity="0.8">От икринки к королевской</text>

  <!-- Location -->
  <text x="280" y="380" font-family="Arial, sans-serif" font-size="20"
        fill="#8B95A1" opacity="0.7">Невельский район, Сахалин</text>

  <!-- Website with glow -->
  <text x="100" y="570" font-family="Arial, sans-serif" font-size="30" font-weight="bold"
        fill="#4FD1C5" filter="url(#glow)">royalketa.com</text>

  <!-- Enhanced decorative salmon silhouette -->
  <g transform="translate(950, 480)" opacity="0.2" filter="url(#softGlow)">
    <ellipse cx="0" cy="0" rx="90" ry="35" fill="#CFAE58"/>
    <path d="M 90 0 L 120 -18 L 130 0 L 120 18 Z" fill="#CFAE58"/>
    <path d="M -25 -35 L 0 -45 L 25 -35 Z" fill="#CFAE58"/>
    <ellipse cx="-50" cy="0" rx="15" ry="12" fill="#0B0F14"/>
  </g>

  <!-- Additional decorative caviar clusters -->
  <g opacity="0.2">
    <circle cx="1050" cy="120" r="6" fill="#CFAE58"/>
    <circle cx="1065" cy="115" r="5" fill="#CFAE58"/>
    <circle cx="1058" cy="130" r="4" fill="#CFAE58"/>
    <circle cx="150" cy="500" r="5" fill="#4FD1C5"/>
    <circle cx="165" cy="508" r="4" fill="#4FD1C5"/>
    <circle cx="140" cy="512" r="5" fill="#4FD1C5"/>
  </g>
</svg>