<svg width="1200" height="630" xmlns="http://www.w3.org/2000/svg">
  <defs>
    <linearGradient id="bgGradient" x1="0%" y1="0%" x2="100%" y2="100%">
      <stop offset="0%" style="stop-color:#0B0F14;stop-opacity:1" />
      <stop offset="50%" style="stop-color:#0F1619;stop-opacity:1" />
      <stop offset="100%" style="stop-color:#0F1922;stop-opacity:1" />
    </linearGradient>
    <linearGradient id="goldGradient" x1="0%" y1="0%" x2="100%" y2="0%">
      <stop offset="0%" style="stop-color:#E5D596;stop-opacity:1" />
      <stop offset="50%" style="stop-color:#CFAE58;stop-opacity:1" />
      <stop offset="100%" style="stop-color:#B89842;stop-opacity:1" />
    </linearGradient>
    <radialGradient id="oceanGradient" cx="50%" cy="50%" r="50%">
      <stop offset="0%" style="stop-color:#4FD1C5;stop-opacity:0.3" />
      <stop offset="100%" style="stop-color:#1E90A0;stop-opacity:0.05" />
    </radialGradient>
    <filter id="glow">
      <feGaussianBlur stdDeviation="5" result="coloredBlur"/>
      <feMerge>
        <feMergeNode in="coloredBlur"/>
        <feMergeNode in="SourceGraphic"/>
      </feMerge>
    </filter>
    <filter id="softGlow">
      <feGaussianBlur stdDeviation="8" result="coloredBlur"/>
      <feMerge>
        <feMergeNode in="coloredBlur"/>
        <feMergeNode in="SourceGraphic"/>
      </feMerge>
    </filter>
    <filter id="shadow">
      <feDropShadow dx="0" dy="4" stdDeviation="8" flood-color="#000000" flood-opacity="0.5"/>
    </filter>
  </defs>

  <!-- Background -->
  <rect width="1200" height="630" fill="url(#bgGradient)"/>

  <!-- Decorative ocean gradients -->
  <ellipse cx="1000" cy="150" rx="300" ry="200" fill="url(#oceanGradient)" opacity="0.4"/>
  <ellipse cx="200" cy="530" rx="250" ry="180" fill="url(#oceanGradient)" opacity="0.3"/>

  <!-- Wave patterns -->
  <path d="M 0 400 Q 300 350 600 400 T 1200 400 L 1200 630 L 0 630 Z" fill="#1E90A0" opacity="0.08"/>
  <path d="M 0 450 Q 250 420 500 450 T 1000 450 T 1200 450 L 1200 630 L 0 630 Z" fill="#4FD1C5" opacity="0.05"/>

  <!-- Caviar roe particles -->
  <circle cx="992.6914952168074" cy="261.5768292474583" r="3.288201294818809" fill="#CFAE58" opacity="0.18187478246427263"/>
  <circle cx="519.4627354526838" cy="594.0072929542297" r="2.6493190340730113" fill="#CFAE58" opacity="0.12775519431297452"/>
  <circle cx="884.8837461812017" cy="126.62304711602202" r="2.428464689945053" fill="#CFAE58" opacity="0.1340589238038173"/>
  <circle cx="346.2567913810641" cy="410.08907140206145" r="2.880804939450094" fill="#CFAE58" opacity="0.2434877469752496"/>
  <circle cx="1093.7641143002263" cy="175.59937845954943" r="4.287767522781401" fill="#CFAE58" opacity="0.23690996593301025"/>
  <circle cx="592.9956465568735" cy="319.8632271459291" r="2.6185712086610815" fill="#CFAE58" opacity="0.23208338518243413"/>
  <circle cx="587.8464793260695" cy="255.2545976056102" r="2.2494907773148567" fill="#CFAE58" opacity="0.23000335769472346"/>
  <circle cx="427.6573470285209" cy="622.2254920876705" r="2.264936788185004" fill="#CFAE58" opacity="0.1168469180041119"/>
  <circle cx="1161.1019586379148" cy="416.7691126851332" r="5.6432708348311635" fill="#CFAE58" opacity="0.12187994829034757"/>
  <circle cx="668.0212872072765" cy="175.96926708166214" r="3.9971188135911184" fill="#CFAE58" opacity="0.24445862426823314"/>
  <circle cx="671.3318860692348" cy="131.56525003746745" r="4.94158364462219" fill="#CFAE58" opacity="0.11985091554209729"/>
  <circle cx="408.9967907703686" cy="586.1343294876856" r="3.5995325431183454" fill="#CFAE58" opacity="0.16146160144749483"/>
  <circle cx="414.2508515517839" cy="545.1890496888565" r="4.086373329755408" fill="#CFAE58" opacity="0.22247773770046592"/>
  <circle cx="1122.9959579595634" cy="458.7735983426257" r="3.8455577565119627" fill="#CFAE58" opacity="0.18394061200338063"/>
  <circle cx="632.3083160815488" cy="622.6784672746496" r="2.2311136520621684" fill="#CFAE58" opacity="0.24618169740191392"/>
  <circle cx="20.86314471011108" cy="504.91817933038374" r="5.312475730903577" fill="#CFAE58" opacity="0.12340022129259098"/>
  <circle cx="334.9648047599413" cy="204.16169692105981" r="2.311120045217815" fill="#CFAE58" opacity="0.15698750245141677"/>
  <circle cx="1180.8834366048193" cy="273.70111280103856" r="3.571455449439481" fill="#CFAE58" opacity="0.12632770812805513"/>
  <circle cx="692.955187517778" cy="127.59027799488966" r="5.301832413980215" fill="#CFAE58" opacity="0.22139401172577047"/>
  <circle cx="764.9293538148054" cy="387.63234905329404" r="3.805160666198033" fill="#CFAE58" opacity="0.23990343218335652"/>
  <circle cx="439.3059153303874" cy="508.9518010070386" r="2.9641045011500946" fill="#CFAE58" opacity="0.13597330102435323"/>
  <circle cx="424.69144145461024" cy="284.9069940760489" r="4.1046403347152545" fill="#CFAE58" opacity="0.19529840963596704"/>
  <circle cx="652.9476192023413" cy="323.4481822976928" r="3.57434817571939" fill="#CFAE58" opacity="0.11352779162558552"/>
  <circle cx="359.7344752853131" cy="89.66601663318431" r="4.609618097209292" fill="#CFAE58" opacity="0.15101593428908372"/>
  <circle cx="840.2268308269072" cy="223.9935839724927" r="3.2900274893411425" fill="#CFAE58" opacity="0.20916515056275145"/>
  <circle cx="558.8073670669477" cy="444.69537731743327" r="5.402409125619501" fill="#CFAE58" opacity="0.1579995702643469"/>
  <circle cx="730.6670849379195" cy="126.20556806601049" r="5.106948104576739" fill="#CFAE58" opacity="0.21934537726286202"/>
  <circle cx="982.8813833256182" cy="417.63957646543867" r="5.312224231429061" fill="#CFAE58" opacity="0.12666815536572026"/>
  <circle cx="613.6268358102217" cy="427.2394939944037" r="4.168858360014898" fill="#CFAE58" opacity="0.14699527859096778"/>
  <circle cx="1074.6949552068033" cy="111.85471583588017" r="5.726916385252453" fill="#CFAE58" opacity="0.24636076499589107"/>

  <!-- Border with glow -->
  <rect x="40" y="40" width="1120" height="550" fill="none" stroke="url(#goldGradient)" stroke-width="3" rx="12" filter="url(#softGlow)"/>

  <!-- Icon circle with premium background -->
  <circle cx="150" cy="200" r="75" fill="#CFAE58" opacity="0.15" filter="url(#softGlow)"/>
  <circle cx="150" cy="200" r="70" fill="#CFAE58" opacity="0.25"/>
  <text x="150" y="235" font-size="90" text-anchor="middle" fill="#CFAE58" filter="url(#glow)">🔬</text>

  <!-- Premium logo (crown) with enhanced styling -->
  <g transform="translate(100, 70)">
    <path d="M 30 20 L 40 35 L 35 35 Z M 50 15 L 60 35 L 45 35 Z M 65 20 L 75 35 L 70 35 Z M 30 35 L 75 35 L 73 45 L 32 45 Z"
          fill="url(#goldGradient)" filter="url(#glow)" stroke="#B89842" stroke-width="0.5"/>
    <circle cx="40" cy="25" r="3" fill="#4FD1C5" filter="url(#glow)"/>
    <circle cx="52" cy="20" r="4" fill="#4FD1C5" filter="url(#glow)"/>
    <circle cx="65" cy="25" r="3" fill="#4FD1C5" filter="url(#glow)"/>
  </g>

  <!-- Title with shadow -->
  <text x="280" y="180" font-family="Georgia, serif" font-size="72" font-weight="bold"
        fill="url(#goldGradient)" filter="url(#shadow)">Our Science</text>

  <!-- Subtitle with subtle glow -->
  <text x="280" y="230" font-family="Arial, sans-serif" font-size="36"
        fill="#D6DEE6" opacity="0.95" filter="url(#softGlow)">Advanced Aquaculture Methodology</text>

  <!-- Brand name with letter spacing -->
  <text x="280" y="300" font-family="Georgia, serif" font-size="32" font-weight="bold"
        fill="#CFAE58" letter-spacing="4" filter="url(#glow)">ROYAL KETA</text>

  <!-- Russian tagline -->
  <text x="280" y="340" font-family="Arial, sans-serif" font-size="22" font-style="italic"
        fill="#8B95A1" opacity="0.8">От икринки к королевской</text>

  <!-- Location -->
  <text x="280" y="380" font-family="Arial, sans-serif" font-size="20"
        fill="#8B95A1" opacity="0.7">Невельский район, Сахалин</text>

  <!-- Website with glow -->
  <text x="100" y="570" font-family="Arial, sans-serif" font-size="30" font-weight="bold"
        fill="#4FD1C5" filter="url(#glow)">royalketa.com</text>

  <!-- Enhanced decorative salmon silhouette -->
  <g transform="translate(950, 480)" opacity="0.2" filter="url(#softGlow)">
    <ellipse cx="0" cy="0" rx="90" ry="35" fill="#CFAE58"/>
    <path d="M 90 0 L 120 -18 L 130 0 L 120 18 Z" fill="#CFAE58"/>
    <path d="M -25 -35 L 0 -45 L 25 -35 Z" fill="#CFAE58"/>
    <ellipse cx="-50" cy="0" rx="15" ry="12" fill="#0B0F14"/>
  </g>

  <!-- Additional decorative caviar clusters -->
  <g opacity="0.2">
    <circle cx="1050" cy="120" r="6" fill="#CFAE58"/>
    <circle cx="1065" cy="115" r="5" fill="#CFAE58"/>
    <circle cx="1058" cy="130" r="4" fill="#CFAE58"/>
    <circle cx="150" cy="500" r="5" fill="#4FD1C5"/>
    <circle cx="165" cy="508" r="4" fill="#4FD1C5"/>
    <circle cx="140" cy="512" r="5" fill="#4FD1C5"/>
  </g>
</svg>