<svg width="1200" height="630" xmlns="http://www.w3.org/2000/svg">
  <defs>
    <linearGradient id="bgGradient" x1="0%" y1="0%" x2="100%" y2="100%">
      <stop offset="0%" style="stop-color:#0B0F14;stop-opacity:1" />
      <stop offset="50%" style="stop-color:#0F1619;stop-opacity:1" />
      <stop offset="100%" style="stop-color:#0F1922;stop-opacity:1" />
    </linearGradient>
    <linearGradient id="goldGradient" x1="0%" y1="0%" x2="100%" y2="0%">
      <stop offset="0%" style="stop-color:#E5D596;stop-opacity:1" />
      <stop offset="50%" style="stop-color:#CFAE58;stop-opacity:1" />
      <stop offset="100%" style="stop-color:#B89842;stop-opacity:1" />
    </linearGradient>
    <radialGradient id="oceanGradient" cx="50%" cy="50%" r="50%">
      <stop offset="0%" style="stop-color:#4FD1C5;stop-opacity:0.3" />
      <stop offset="100%" style="stop-color:#1E90A0;stop-opacity:0.05" />
    </radialGradient>
    <filter id="glow">
      <feGaussianBlur stdDeviation="5" result="coloredBlur"/>
      <feMerge>
        <feMergeNode in="coloredBlur"/>
        <feMergeNode in="SourceGraphic"/>
      </feMerge>
    </filter>
    <filter id="softGlow">
      <feGaussianBlur stdDeviation="8" result="coloredBlur"/>
      <feMerge>
        <feMergeNode in="coloredBlur"/>
        <feMergeNode in="SourceGraphic"/>
      </feMerge>
    </filter>
    <filter id="shadow">
      <feDropShadow dx="0" dy="4" stdDeviation="8" flood-color="#000000" flood-opacity="0.5"/>
    </filter>
  </defs>

  <!-- Background -->
  <rect width="1200" height="630" fill="url(#bgGradient)"/>

  <!-- Decorative ocean gradients -->
  <ellipse cx="1000" cy="150" rx="300" ry="200" fill="url(#oceanGradient)" opacity="0.4"/>
  <ellipse cx="200" cy="530" rx="250" ry="180" fill="url(#oceanGradient)" opacity="0.3"/>

  <!-- Wave patterns -->
  <path d="M 0 400 Q 300 350 600 400 T 1200 400 L 1200 630 L 0 630 Z" fill="#1E90A0" opacity="0.08"/>
  <path d="M 0 450 Q 250 420 500 450 T 1000 450 T 1200 450 L 1200 630 L 0 630 Z" fill="#4FD1C5" opacity="0.05"/>

  <!-- Caviar roe particles -->
  <circle cx="758.9884866195606" cy="28.316658563779" r="3.6954859623929304" fill="#CFAE58" opacity="0.14169849978018528"/>
  <circle cx="1119.333568243168" cy="76.05952983310101" r="5.157766450620059" fill="#CFAE58" opacity="0.1901435071481179"/>
  <circle cx="794.5708719604185" cy="398.01665413442436" r="2.9092269875781227" fill="#CFAE58" opacity="0.1393303545598228"/>
  <circle cx="436.58697235266936" cy="596.1481345657555" r="3.2926645235177103" fill="#CFAE58" opacity="0.17285780661273098"/>
  <circle cx="48.352788898568555" cy="561.3527184122723" r="2.8646115532608327" fill="#CFAE58" opacity="0.19743139369145252"/>
  <circle cx="124.55485513136955" cy="82.34817600512581" r="5.53882782458221" fill="#CFAE58" opacity="0.2458504659039149"/>
  <circle cx="439.7552888541232" cy="197.81189248578303" r="3.2401720340060693" fill="#CFAE58" opacity="0.24267123799695925"/>
  <circle cx="37.95214233123909" cy="507.7899254450874" r="3.997630941848495" fill="#CFAE58" opacity="0.18532110676692018"/>
  <circle cx="1122.0465666265698" cy="266.8080480005442" r="2.416313457424751" fill="#CFAE58" opacity="0.16678435852786871"/>
  <circle cx="120.81133570981484" cy="489.26165825361653" r="4.002399621862102" fill="#CFAE58" opacity="0.1580572035621852"/>
  <circle cx="887.7670338290936" cy="313.4721000710949" r="5.751990411678676" fill="#CFAE58" opacity="0.1515377494069018"/>
  <circle cx="947.3451274249976" cy="453.53484066353406" r="4.077321511928985" fill="#CFAE58" opacity="0.1332663837237211"/>
  <circle cx="361.56391264289647" cy="140.76928247285753" r="5.55485992054515" fill="#CFAE58" opacity="0.2105816197140336"/>
  <circle cx="1116.77294132587" cy="309.25877763052296" r="3.430179491844327" fill="#CFAE58" opacity="0.17430331136054542"/>
  <circle cx="85.54018259195519" cy="419.075078851971" r="3.7115573100721333" fill="#CFAE58" opacity="0.1507638913616947"/>
  <circle cx="891.8294221590031" cy="17.991169670689995" r="4.7943840247545" fill="#CFAE58" opacity="0.22409803986037305"/>
  <circle cx="702.4968561293309" cy="29.663075491521298" r="3.532184116302414" fill="#CFAE58" opacity="0.211900576644487"/>
  <circle cx="1010.7543531810455" cy="174.4537314705258" r="4.0161571806221685" fill="#CFAE58" opacity="0.10274006896244375"/>
  <circle cx="628.5142442341519" cy="621.8751430729678" r="2.3728468073170825" fill="#CFAE58" opacity="0.1802078018583373"/>
  <circle cx="509.317009670891" cy="140.47762926215492" r="5.585591645505642" fill="#CFAE58" opacity="0.2459519948905956"/>
  <circle cx="118.8230237740771" cy="344.63877526469463" r="3.523747423366453" fill="#CFAE58" opacity="0.2009008989944186"/>
  <circle cx="38.24998453297379" cy="362.29570815154636" r="4.112896494851112" fill="#CFAE58" opacity="0.1935103633160012"/>
  <circle cx="87.2579154751402" cy="85.7719996767201" r="2.520615609528967" fill="#CFAE58" opacity="0.2256285340005694"/>
  <circle cx="280.3736401163666" cy="47.61547534126655" r="4.49556384839756" fill="#CFAE58" opacity="0.20798638234714772"/>
  <circle cx="1002.3005885150541" cy="64.59416204103124" r="3.5635360106610294" fill="#CFAE58" opacity="0.16045980032091886"/>
  <circle cx="265.8834790042865" cy="34.8044754335779" r="5.284985491317807" fill="#CFAE58" opacity="0.20798915729383183"/>
  <circle cx="701.7216681112465" cy="599.7790046935683" r="4.841057218325399" fill="#CFAE58" opacity="0.23901062612421914"/>
  <circle cx="503.37956448425" cy="445.5041285010553" r="2.8870806221457546" fill="#CFAE58" opacity="0.12968042637663282"/>
  <circle cx="364.60279654640146" cy="406.31911010736917" r="3.4461749575418725" fill="#CFAE58" opacity="0.12177669159711725"/>
  <circle cx="1072.5488111850655" cy="527.044229336717" r="2.0584088291100837" fill="#CFAE58" opacity="0.22536187174722339"/>

  <!-- Border with glow -->
  <rect x="40" y="40" width="1120" height="550" fill="none" stroke="url(#goldGradient)" stroke-width="3" rx="12" filter="url(#softGlow)"/>

  <!-- Icon circle with premium background -->
  <circle cx="150" cy="200" r="75" fill="#CFAE58" opacity="0.15" filter="url(#softGlow)"/>
  <circle cx="150" cy="200" r="70" fill="#CFAE58" opacity="0.25"/>
  <text x="150" y="235" font-size="90" text-anchor="middle" fill="#CFAE58" filter="url(#glow)">🔬</text>

  <!-- Premium logo (crown) with enhanced styling -->
  <g transform="translate(100, 70)">
    <path d="M 30 20 L 40 35 L 35 35 Z M 50 15 L 60 35 L 45 35 Z M 65 20 L 75 35 L 70 35 Z M 30 35 L 75 35 L 73 45 L 32 45 Z"
          fill="url(#goldGradient)" filter="url(#glow)" stroke="#B89842" stroke-width="0.5"/>
    <circle cx="40" cy="25" r="3" fill="#4FD1C5" filter="url(#glow)"/>
    <circle cx="52" cy="20" r="4" fill="#4FD1C5" filter="url(#glow)"/>
    <circle cx="65" cy="25" r="3" fill="#4FD1C5" filter="url(#glow)"/>
  </g>

  <!-- Title with shadow -->
  <text x="280" y="180" font-family="Georgia, serif" font-size="72" font-weight="bold"
        fill="url(#goldGradient)" filter="url(#shadow)">Our Science</text>

  <!-- Subtitle with subtle glow -->
  <text x="280" y="230" font-family="Arial, sans-serif" font-size="36"
        fill="#D6DEE6" opacity="0.95" filter="url(#softGlow)">Advanced Aquaculture Methodology</text>

  <!-- Brand name with letter spacing -->
  <text x="280" y="300" font-family="Georgia, serif" font-size="32" font-weight="bold"
        fill="#CFAE58" letter-spacing="4" filter="url(#glow)">ROYAL KETA</text>

  <!-- Russian tagline -->
  <text x="280" y="340" font-family="Arial, sans-serif" font-size="22" font-style="italic"
        fill="#8B95A1" opacity="0.8">От икринки к королевской</text>

  <!-- Location -->
  <text x="280" y="380" font-family="Arial, sans-serif" font-size="20"
        fill="#8B95A1" opacity="0.7">Невельский район, Сахалин</text>

  <!-- Website with glow -->
  <text x="100" y="570" font-family="Arial, sans-serif" font-size="30" font-weight="bold"
        fill="#4FD1C5" filter="url(#glow)">royalketa.com</text>

  <!-- Enhanced decorative salmon silhouette -->
  <g transform="translate(950, 480)" opacity="0.2" filter="url(#softGlow)">
    <ellipse cx="0" cy="0" rx="90" ry="35" fill="#CFAE58"/>
    <path d="M 90 0 L 120 -18 L 130 0 L 120 18 Z" fill="#CFAE58"/>
    <path d="M -25 -35 L 0 -45 L 25 -35 Z" fill="#CFAE58"/>
    <ellipse cx="-50" cy="0" rx="15" ry="12" fill="#0B0F14"/>
  </g>

  <!-- Additional decorative caviar clusters -->
  <g opacity="0.2">
    <circle cx="1050" cy="120" r="6" fill="#CFAE58"/>
    <circle cx="1065" cy="115" r="5" fill="#CFAE58"/>
    <circle cx="1058" cy="130" r="4" fill="#CFAE58"/>
    <circle cx="150" cy="500" r="5" fill="#4FD1C5"/>
    <circle cx="165" cy="508" r="4" fill="#4FD1C5"/>
    <circle cx="140" cy="512" r="5" fill="#4FD1C5"/>
  </g>
</svg>