<svg width="1200" height="630" xmlns="http://www.w3.org/2000/svg">
  <defs>
    <linearGradient id="bgGradient" x1="0%" y1="0%" x2="100%" y2="100%">
      <stop offset="0%" style="stop-color:#0B0F14;stop-opacity:1" />
      <stop offset="50%" style="stop-color:#0F1619;stop-opacity:1" />
      <stop offset="100%" style="stop-color:#0F1922;stop-opacity:1" />
    </linearGradient>
    <linearGradient id="goldGradient" x1="0%" y1="0%" x2="100%" y2="0%">
      <stop offset="0%" style="stop-color:#E5D596;stop-opacity:1" />
      <stop offset="50%" style="stop-color:#CFAE58;stop-opacity:1" />
      <stop offset="100%" style="stop-color:#B89842;stop-opacity:1" />
    </linearGradient>
    <radialGradient id="oceanGradient" cx="50%" cy="50%" r="50%">
      <stop offset="0%" style="stop-color:#4FD1C5;stop-opacity:0.3" />
      <stop offset="100%" style="stop-color:#1E90A0;stop-opacity:0.05" />
    </radialGradient>
    <filter id="glow">
      <feGaussianBlur stdDeviation="5" result="coloredBlur"/>
      <feMerge>
        <feMergeNode in="coloredBlur"/>
        <feMergeNode in="SourceGraphic"/>
      </feMerge>
    </filter>
    <filter id="softGlow">
      <feGaussianBlur stdDeviation="8" result="coloredBlur"/>
      <feMerge>
        <feMergeNode in="coloredBlur"/>
        <feMergeNode in="SourceGraphic"/>
      </feMerge>
    </filter>
    <filter id="shadow">
      <feDropShadow dx="0" dy="4" stdDeviation="8" flood-color="#000000" flood-opacity="0.5"/>
    </filter>
  </defs>

  <!-- Background -->
  <rect width="1200" height="630" fill="url(#bgGradient)"/>

  <!-- Decorative ocean gradients -->
  <ellipse cx="1000" cy="150" rx="300" ry="200" fill="url(#oceanGradient)" opacity="0.4"/>
  <ellipse cx="200" cy="530" rx="250" ry="180" fill="url(#oceanGradient)" opacity="0.3"/>

  <!-- Wave patterns -->
  <path d="M 0 400 Q 300 350 600 400 T 1200 400 L 1200 630 L 0 630 Z" fill="#1E90A0" opacity="0.08"/>
  <path d="M 0 450 Q 250 420 500 450 T 1000 450 T 1200 450 L 1200 630 L 0 630 Z" fill="#4FD1C5" opacity="0.05"/>

  <!-- Caviar roe particles -->
  <circle cx="154.97877368366204" cy="476.14234687366593" r="3.2645314645153753" fill="#CFAE58" opacity="0.1515444536524175"/>
  <circle cx="667.7828602809061" cy="604.8761151995261" r="4.842848685210958" fill="#CFAE58" opacity="0.11145908225169306"/>
  <circle cx="316.1543218721287" cy="150.16926534712198" r="3.6808410098714726" fill="#CFAE58" opacity="0.1270914460069761"/>
  <circle cx="965.8699815942816" cy="361.53321655287846" r="2.675248846081879" fill="#CFAE58" opacity="0.16653678624331308"/>
  <circle cx="10.678547490204515" cy="154.69549799374118" r="4.99506068826665" fill="#CFAE58" opacity="0.10293985338413467"/>
  <circle cx="1009.1257709584809" cy="29.89661065400899" r="3.154237543689872" fill="#CFAE58" opacity="0.19571877540867574"/>
  <circle cx="725.1915605065168" cy="172.19333831355152" r="3.519975062535673" fill="#CFAE58" opacity="0.10405099631792059"/>
  <circle cx="1158.9830252722873" cy="437.23556860808264" r="2.0014044167716714" fill="#CFAE58" opacity="0.13703512948927188"/>
  <circle cx="520.6389875315095" cy="609.8417357477159" r="4.906197132788235" fill="#CFAE58" opacity="0.17998343305842934"/>
  <circle cx="316.19974786907807" cy="257.11394339999913" r="5.362316601436696" fill="#CFAE58" opacity="0.21429451380518835"/>
  <circle cx="7.704174622520821" cy="223.40364756209277" r="2.754206857001191" fill="#CFAE58" opacity="0.2473149401540349"/>
  <circle cx="638.7927908878524" cy="228.07382546738776" r="2.5213627623564125" fill="#CFAE58" opacity="0.24827913946156982"/>
  <circle cx="181.17556287504897" cy="425.525703879744" r="4.87751493305093" fill="#CFAE58" opacity="0.16004924979525098"/>
  <circle cx="815.6865747571144" cy="592.4538218646952" r="4.713819479704229" fill="#CFAE58" opacity="0.10493721963036677"/>
  <circle cx="1059.5112247968625" cy="132.93424874178623" r="3.6539052684822266" fill="#CFAE58" opacity="0.10658175346216538"/>
  <circle cx="162.4427677722178" cy="521.753221053044" r="4.710477046407068" fill="#CFAE58" opacity="0.14106113757522923"/>
  <circle cx="441.9235765054282" cy="533.450466859045" r="5.040637619989953" fill="#CFAE58" opacity="0.21896528275677804"/>
  <circle cx="261.88748980639207" cy="608.4891806237972" r="4.175984523957042" fill="#CFAE58" opacity="0.20268339798154322"/>
  <circle cx="58.64841844604687" cy="12.830524426995469" r="2.6190052892308016" fill="#CFAE58" opacity="0.1546766072500681"/>
  <circle cx="454.3346074217698" cy="316.9829697868029" r="4.415235271107904" fill="#CFAE58" opacity="0.209878026823677"/>
  <circle cx="84.401190613859" cy="33.993356636284076" r="3.5452449269652986" fill="#CFAE58" opacity="0.15653794514599814"/>
  <circle cx="9.160425192684052" cy="264.9338787860465" r="5.301450120469392" fill="#CFAE58" opacity="0.20369572099848327"/>
  <circle cx="937.0956862457249" cy="558.0687664431861" r="5.076988163884068" fill="#CFAE58" opacity="0.24852410298714084"/>
  <circle cx="381.36612072798056" cy="407.21591508334757" r="4.614770091105991" fill="#CFAE58" opacity="0.194006680858879"/>
  <circle cx="1177.6408173550547" cy="411.40268935486324" r="4.061784207608855" fill="#CFAE58" opacity="0.19669840050487264"/>
  <circle cx="201.40157418930417" cy="118.58062410840222" r="4.213487430370866" fill="#CFAE58" opacity="0.2318823640635046"/>
  <circle cx="773.2842610903649" cy="466.7700268037308" r="4.235701364071979" fill="#CFAE58" opacity="0.19965814822362793"/>
  <circle cx="927.0739857714896" cy="391.55123860285227" r="3.181005510097102" fill="#CFAE58" opacity="0.1815235323976429"/>
  <circle cx="1000.760233654854" cy="136.2475584050373" r="2.5884636781046426" fill="#CFAE58" opacity="0.16383665488291557"/>
  <circle cx="911.5723433757365" cy="14.013455079779236" r="2.9499597456706486" fill="#CFAE58" opacity="0.24401017665377317"/>

  <!-- Border with glow -->
  <rect x="40" y="40" width="1120" height="550" fill="none" stroke="url(#goldGradient)" stroke-width="3" rx="12" filter="url(#softGlow)"/>

  <!-- Icon circle with premium background -->
  <circle cx="150" cy="200" r="75" fill="#CFAE58" opacity="0.15" filter="url(#softGlow)"/>
  <circle cx="150" cy="200" r="70" fill="#CFAE58" opacity="0.25"/>
  <text x="150" y="235" font-size="90" text-anchor="middle" fill="#CFAE58" filter="url(#glow)">🔬</text>

  <!-- Premium logo (crown) with enhanced styling -->
  <g transform="translate(100, 70)">
    <path d="M 30 20 L 40 35 L 35 35 Z M 50 15 L 60 35 L 45 35 Z M 65 20 L 75 35 L 70 35 Z M 30 35 L 75 35 L 73 45 L 32 45 Z"
          fill="url(#goldGradient)" filter="url(#glow)" stroke="#B89842" stroke-width="0.5"/>
    <circle cx="40" cy="25" r="3" fill="#4FD1C5" filter="url(#glow)"/>
    <circle cx="52" cy="20" r="4" fill="#4FD1C5" filter="url(#glow)"/>
    <circle cx="65" cy="25" r="3" fill="#4FD1C5" filter="url(#glow)"/>
  </g>

  <!-- Title with shadow -->
  <text x="280" y="180" font-family="Georgia, serif" font-size="72" font-weight="bold"
        fill="url(#goldGradient)" filter="url(#shadow)">Our Science</text>

  <!-- Subtitle with subtle glow -->
  <text x="280" y="230" font-family="Arial, sans-serif" font-size="36"
        fill="#D6DEE6" opacity="0.95" filter="url(#softGlow)">Advanced Aquaculture Methodology</text>

  <!-- Brand name with letter spacing -->
  <text x="280" y="300" font-family="Georgia, serif" font-size="32" font-weight="bold"
        fill="#CFAE58" letter-spacing="4" filter="url(#glow)">ROYAL KETA</text>

  <!-- Russian tagline -->
  <text x="280" y="340" font-family="Arial, sans-serif" font-size="22" font-style="italic"
        fill="#8B95A1" opacity="0.8">От икринки к королевской</text>

  <!-- Location -->
  <text x="280" y="380" font-family="Arial, sans-serif" font-size="20"
        fill="#8B95A1" opacity="0.7">Невельский район, Сахалин</text>

  <!-- Website with glow -->
  <text x="100" y="570" font-family="Arial, sans-serif" font-size="30" font-weight="bold"
        fill="#4FD1C5" filter="url(#glow)">royalketa.com</text>

  <!-- Enhanced decorative salmon silhouette -->
  <g transform="translate(950, 480)" opacity="0.2" filter="url(#softGlow)">
    <ellipse cx="0" cy="0" rx="90" ry="35" fill="#CFAE58"/>
    <path d="M 90 0 L 120 -18 L 130 0 L 120 18 Z" fill="#CFAE58"/>
    <path d="M -25 -35 L 0 -45 L 25 -35 Z" fill="#CFAE58"/>
    <ellipse cx="-50" cy="0" rx="15" ry="12" fill="#0B0F14"/>
  </g>

  <!-- Additional decorative caviar clusters -->
  <g opacity="0.2">
    <circle cx="1050" cy="120" r="6" fill="#CFAE58"/>
    <circle cx="1065" cy="115" r="5" fill="#CFAE58"/>
    <circle cx="1058" cy="130" r="4" fill="#CFAE58"/>
    <circle cx="150" cy="500" r="5" fill="#4FD1C5"/>
    <circle cx="165" cy="508" r="4" fill="#4FD1C5"/>
    <circle cx="140" cy="512" r="5" fill="#4FD1C5"/>
  </g>
</svg>