<svg width="1200" height="630" xmlns="http://www.w3.org/2000/svg">
  <defs>
    <linearGradient id="bgGradient" x1="0%" y1="0%" x2="100%" y2="100%">
      <stop offset="0%" style="stop-color:#0B0F14;stop-opacity:1" />
      <stop offset="50%" style="stop-color:#0F1619;stop-opacity:1" />
      <stop offset="100%" style="stop-color:#0F1922;stop-opacity:1" />
    </linearGradient>
    <linearGradient id="goldGradient" x1="0%" y1="0%" x2="100%" y2="0%">
      <stop offset="0%" style="stop-color:#E5D596;stop-opacity:1" />
      <stop offset="50%" style="stop-color:#CFAE58;stop-opacity:1" />
      <stop offset="100%" style="stop-color:#B89842;stop-opacity:1" />
    </linearGradient>
    <radialGradient id="oceanGradient" cx="50%" cy="50%" r="50%">
      <stop offset="0%" style="stop-color:#4FD1C5;stop-opacity:0.3" />
      <stop offset="100%" style="stop-color:#1E90A0;stop-opacity:0.05" />
    </radialGradient>
    <filter id="glow">
      <feGaussianBlur stdDeviation="5" result="coloredBlur"/>
      <feMerge>
        <feMergeNode in="coloredBlur"/>
        <feMergeNode in="SourceGraphic"/>
      </feMerge>
    </filter>
    <filter id="softGlow">
      <feGaussianBlur stdDeviation="8" result="coloredBlur"/>
      <feMerge>
        <feMergeNode in="coloredBlur"/>
        <feMergeNode in="SourceGraphic"/>
      </feMerge>
    </filter>
    <filter id="shadow">
      <feDropShadow dx="0" dy="4" stdDeviation="8" flood-color="#000000" flood-opacity="0.5"/>
    </filter>
  </defs>

  <!-- Background -->
  <rect width="1200" height="630" fill="url(#bgGradient)"/>

  <!-- Decorative ocean gradients -->
  <ellipse cx="1000" cy="150" rx="300" ry="200" fill="url(#oceanGradient)" opacity="0.4"/>
  <ellipse cx="200" cy="530" rx="250" ry="180" fill="url(#oceanGradient)" opacity="0.3"/>

  <!-- Wave patterns -->
  <path d="M 0 400 Q 300 350 600 400 T 1200 400 L 1200 630 L 0 630 Z" fill="#1E90A0" opacity="0.08"/>
  <path d="M 0 450 Q 250 420 500 450 T 1000 450 T 1200 450 L 1200 630 L 0 630 Z" fill="#4FD1C5" opacity="0.05"/>

  <!-- Caviar roe particles -->
  <circle cx="1145.9827187183746" cy="145.67871583940143" r="5.36138062257025" fill="#CFAE58" opacity="0.12094005604837452"/>
  <circle cx="465.11944661712135" cy="551.5450471936578" r="3.88379525340361" fill="#CFAE58" opacity="0.1547261972382828"/>
  <circle cx="8.072396540048121" cy="60.54578161267769" r="5.684519266576606" fill="#CFAE58" opacity="0.24842915632889578"/>
  <circle cx="916.8845890189214" cy="126.30246918964325" r="3.5229018065143967" fill="#CFAE58" opacity="0.1759721724934084"/>
  <circle cx="396.54630610341815" cy="395.7026193238294" r="5.367311544380593" fill="#CFAE58" opacity="0.17581038406364408"/>
  <circle cx="20.318602049209964" cy="45.356831844248546" r="3.6566421915599223" fill="#CFAE58" opacity="0.10474538992457784"/>
  <circle cx="436.53119760452404" cy="29.1601995808423" r="4.892697304202169" fill="#CFAE58" opacity="0.2463081948898775"/>
  <circle cx="78.34415145727812" cy="9.971943297875086" r="3.8279525642779473" fill="#CFAE58" opacity="0.20620960782069236"/>
  <circle cx="402.58535092374836" cy="45.80116106684024" r="3.663576686804537" fill="#CFAE58" opacity="0.24558843676552744"/>
  <circle cx="20.106351911538933" cy="401.1274329786658" r="3.392115592355228" fill="#CFAE58" opacity="0.13457098758567818"/>
  <circle cx="1138.5945176670277" cy="406.0597512722475" r="2.460524698020001" fill="#CFAE58" opacity="0.1947791475141254"/>
  <circle cx="771.9523564464243" cy="554.7837592484934" r="4.153251074367367" fill="#CFAE58" opacity="0.10725150216056845"/>
  <circle cx="567.1517357128648" cy="283.2333455739329" r="3.3367468684753767" fill="#CFAE58" opacity="0.163140367903634"/>
  <circle cx="82.58574296793823" cy="620.2983070088787" r="2.309841152779607" fill="#CFAE58" opacity="0.24509107640049857"/>
  <circle cx="134.86246646662727" cy="444.47344371101707" r="5.809995344952255" fill="#CFAE58" opacity="0.1535022397539759"/>
  <circle cx="656.7448343212443" cy="524.8979622383891" r="2.331039571191078" fill="#CFAE58" opacity="0.12260023776666322"/>
  <circle cx="831.4216391489724" cy="288.4120581891658" r="4.700606064363462" fill="#CFAE58" opacity="0.14980294497975866"/>
  <circle cx="1097.6560693306844" cy="228.44968750297187" r="5.201025713496861" fill="#CFAE58" opacity="0.20187375381321587"/>
  <circle cx="338.7578717992237" cy="475.83220487476854" r="2.3432357849799135" fill="#CFAE58" opacity="0.18887559047517788"/>
  <circle cx="538.4337815547269" cy="424.8040368479893" r="3.6895421489815337" fill="#CFAE58" opacity="0.11675645458630729"/>
  <circle cx="898.621012315683" cy="559.6401224551822" r="3.4938392700225656" fill="#CFAE58" opacity="0.10022240406178919"/>
  <circle cx="541.9551620665871" cy="415.1139878915421" r="5.22453550515071" fill="#CFAE58" opacity="0.2277510178951662"/>
  <circle cx="174.5978154624523" cy="529.5719371461414" r="3.7976696510071406" fill="#CFAE58" opacity="0.1299819038544994"/>
  <circle cx="824.7658162378336" cy="391.9722651139007" r="5.119586451120605" fill="#CFAE58" opacity="0.1318657952250058"/>
  <circle cx="71.84257428493304" cy="515.6831828072566" r="5.616687882051934" fill="#CFAE58" opacity="0.13138926649091992"/>
  <circle cx="0.6000742898095712" cy="434.2198740458485" r="4.237283824934389" fill="#CFAE58" opacity="0.19704959283112067"/>
  <circle cx="938.640244317644" cy="348.80243320376064" r="2.8618232955501526" fill="#CFAE58" opacity="0.24647007459511083"/>
  <circle cx="650.0876809444412" cy="427.4846909663711" r="5.971262382714858" fill="#CFAE58" opacity="0.17232346224705458"/>
  <circle cx="133.5137269844872" cy="84.54720742162995" r="4.124660361288074" fill="#CFAE58" opacity="0.10288081103669912"/>
  <circle cx="956.4142669153439" cy="588.4778497037194" r="3.6286870447522093" fill="#CFAE58" opacity="0.10502375174939507"/>

  <!-- Border with glow -->
  <rect x="40" y="40" width="1120" height="550" fill="none" stroke="url(#goldGradient)" stroke-width="3" rx="12" filter="url(#softGlow)"/>

  <!-- Icon circle with premium background -->
  <circle cx="150" cy="200" r="75" fill="#CFAE58" opacity="0.15" filter="url(#softGlow)"/>
  <circle cx="150" cy="200" r="70" fill="#CFAE58" opacity="0.25"/>
  <text x="150" y="235" font-size="90" text-anchor="middle" fill="#CFAE58" filter="url(#glow)">🔬</text>

  <!-- Premium logo (crown) with enhanced styling -->
  <g transform="translate(100, 70)">
    <path d="M 30 20 L 40 35 L 35 35 Z M 50 15 L 60 35 L 45 35 Z M 65 20 L 75 35 L 70 35 Z M 30 35 L 75 35 L 73 45 L 32 45 Z"
          fill="url(#goldGradient)" filter="url(#glow)" stroke="#B89842" stroke-width="0.5"/>
    <circle cx="40" cy="25" r="3" fill="#4FD1C5" filter="url(#glow)"/>
    <circle cx="52" cy="20" r="4" fill="#4FD1C5" filter="url(#glow)"/>
    <circle cx="65" cy="25" r="3" fill="#4FD1C5" filter="url(#glow)"/>
  </g>

  <!-- Title with shadow -->
  <text x="280" y="180" font-family="Georgia, serif" font-size="72" font-weight="bold"
        fill="url(#goldGradient)" filter="url(#shadow)">Our Science</text>

  <!-- Subtitle with subtle glow -->
  <text x="280" y="230" font-family="Arial, sans-serif" font-size="36"
        fill="#D6DEE6" opacity="0.95" filter="url(#softGlow)">Advanced Aquaculture Methodology</text>

  <!-- Brand name with letter spacing -->
  <text x="280" y="300" font-family="Georgia, serif" font-size="32" font-weight="bold"
        fill="#CFAE58" letter-spacing="4" filter="url(#glow)">ROYAL KETA</text>

  <!-- Russian tagline -->
  <text x="280" y="340" font-family="Arial, sans-serif" font-size="22" font-style="italic"
        fill="#8B95A1" opacity="0.8">От икринки к королевской</text>

  <!-- Location -->
  <text x="280" y="380" font-family="Arial, sans-serif" font-size="20"
        fill="#8B95A1" opacity="0.7">Невельский район, Сахалин</text>

  <!-- Website with glow -->
  <text x="100" y="570" font-family="Arial, sans-serif" font-size="30" font-weight="bold"
        fill="#4FD1C5" filter="url(#glow)">royalketa.com</text>

  <!-- Enhanced decorative salmon silhouette -->
  <g transform="translate(950, 480)" opacity="0.2" filter="url(#softGlow)">
    <ellipse cx="0" cy="0" rx="90" ry="35" fill="#CFAE58"/>
    <path d="M 90 0 L 120 -18 L 130 0 L 120 18 Z" fill="#CFAE58"/>
    <path d="M -25 -35 L 0 -45 L 25 -35 Z" fill="#CFAE58"/>
    <ellipse cx="-50" cy="0" rx="15" ry="12" fill="#0B0F14"/>
  </g>

  <!-- Additional decorative caviar clusters -->
  <g opacity="0.2">
    <circle cx="1050" cy="120" r="6" fill="#CFAE58"/>
    <circle cx="1065" cy="115" r="5" fill="#CFAE58"/>
    <circle cx="1058" cy="130" r="4" fill="#CFAE58"/>
    <circle cx="150" cy="500" r="5" fill="#4FD1C5"/>
    <circle cx="165" cy="508" r="4" fill="#4FD1C5"/>
    <circle cx="140" cy="512" r="5" fill="#4FD1C5"/>
  </g>
</svg>