<svg width="1200" height="630" xmlns="http://www.w3.org/2000/svg">
  <defs>
    <linearGradient id="bgGradient" x1="0%" y1="0%" x2="100%" y2="100%">
      <stop offset="0%" style="stop-color:#0B0F14;stop-opacity:1" />
      <stop offset="50%" style="stop-color:#0F1619;stop-opacity:1" />
      <stop offset="100%" style="stop-color:#0F1922;stop-opacity:1" />
    </linearGradient>
    <linearGradient id="goldGradient" x1="0%" y1="0%" x2="100%" y2="0%">
      <stop offset="0%" style="stop-color:#E5D596;stop-opacity:1" />
      <stop offset="50%" style="stop-color:#CFAE58;stop-opacity:1" />
      <stop offset="100%" style="stop-color:#B89842;stop-opacity:1" />
    </linearGradient>
    <radialGradient id="oceanGradient" cx="50%" cy="50%" r="50%">
      <stop offset="0%" style="stop-color:#4FD1C5;stop-opacity:0.3" />
      <stop offset="100%" style="stop-color:#1E90A0;stop-opacity:0.05" />
    </radialGradient>
    <filter id="glow">
      <feGaussianBlur stdDeviation="5" result="coloredBlur"/>
      <feMerge>
        <feMergeNode in="coloredBlur"/>
        <feMergeNode in="SourceGraphic"/>
      </feMerge>
    </filter>
    <filter id="softGlow">
      <feGaussianBlur stdDeviation="8" result="coloredBlur"/>
      <feMerge>
        <feMergeNode in="coloredBlur"/>
        <feMergeNode in="SourceGraphic"/>
      </feMerge>
    </filter>
    <filter id="shadow">
      <feDropShadow dx="0" dy="4" stdDeviation="8" flood-color="#000000" flood-opacity="0.5"/>
    </filter>
  </defs>

  <!-- Background -->
  <rect width="1200" height="630" fill="url(#bgGradient)"/>

  <!-- Decorative ocean gradients -->
  <ellipse cx="1000" cy="150" rx="300" ry="200" fill="url(#oceanGradient)" opacity="0.4"/>
  <ellipse cx="200" cy="530" rx="250" ry="180" fill="url(#oceanGradient)" opacity="0.3"/>

  <!-- Wave patterns -->
  <path d="M 0 400 Q 300 350 600 400 T 1200 400 L 1200 630 L 0 630 Z" fill="#1E90A0" opacity="0.08"/>
  <path d="M 0 450 Q 250 420 500 450 T 1000 450 T 1200 450 L 1200 630 L 0 630 Z" fill="#4FD1C5" opacity="0.05"/>

  <!-- Caviar roe particles -->
  <circle cx="485.40471628021686" cy="183.42975774346056" r="4.085742310563105" fill="#CFAE58" opacity="0.18607127124439726"/>
  <circle cx="688.2114201501198" cy="610.3675473671863" r="3.1151224030919575" fill="#CFAE58" opacity="0.13537096104283008"/>
  <circle cx="1109.4306839712144" cy="353.35664686795445" r="2.4512908455974074" fill="#CFAE58" opacity="0.24221242753032457"/>
  <circle cx="239.7070691729189" cy="108.05571282789555" r="5.4727505567297365" fill="#CFAE58" opacity="0.20989144990304653"/>
  <circle cx="995.3808950733019" cy="465.74117779696263" r="5.794524482922076" fill="#CFAE58" opacity="0.21087438370753592"/>
  <circle cx="1182.3832086465052" cy="404.1487448391992" r="4.852974859207033" fill="#CFAE58" opacity="0.17067585733174906"/>
  <circle cx="974.5855818754029" cy="540.0599307801468" r="4.658088085276058" fill="#CFAE58" opacity="0.134471523090453"/>
  <circle cx="230.31486975542705" cy="581.654301897583" r="2.735909913447185" fill="#CFAE58" opacity="0.16496475955539955"/>
  <circle cx="658.5875707063267" cy="192.97396006902724" r="5.267169034201003" fill="#CFAE58" opacity="0.23466480038789542"/>
  <circle cx="368.82569476527294" cy="75.81026639387952" r="5.033755098075702" fill="#CFAE58" opacity="0.22650744395813913"/>
  <circle cx="665.0445834822575" cy="124.55622761527843" r="5.263704984664245" fill="#CFAE58" opacity="0.171153955562391"/>
  <circle cx="311.8519189015689" cy="49.03791648068425" r="5.739198085192364" fill="#CFAE58" opacity="0.14769476673801815"/>
  <circle cx="558.1196002059303" cy="129.9229056978989" r="4.62988706593562" fill="#CFAE58" opacity="0.22189497886529605"/>
  <circle cx="1142.9630105679926" cy="299.5629158591817" r="4.777441612786702" fill="#CFAE58" opacity="0.1451702151511979"/>
  <circle cx="1090.4872054945413" cy="143.79726331143397" r="5.808591428112158" fill="#CFAE58" opacity="0.1367565804683717"/>
  <circle cx="336.6456330767578" cy="578.2711640774077" r="5.240682308188876" fill="#CFAE58" opacity="0.1750933345669299"/>
  <circle cx="290.5100509772999" cy="605.9497805630947" r="5.836646196028022" fill="#CFAE58" opacity="0.19068218945378157"/>
  <circle cx="100.38649708109419" cy="274.27646200026714" r="4.910346866315354" fill="#CFAE58" opacity="0.18596314095332978"/>
  <circle cx="648.9351703923666" cy="376.5802525655711" r="3.745683425660136" fill="#CFAE58" opacity="0.23148415844332806"/>
  <circle cx="329.42001164038766" cy="337.9217000900169" r="3.410116950355282" fill="#CFAE58" opacity="0.16505963926240347"/>
  <circle cx="570.8217867833065" cy="13.729813058745464" r="4.939837337385637" fill="#CFAE58" opacity="0.23870368597855823"/>
  <circle cx="729.3822946180807" cy="582.8695778648038" r="5.334439579685195" fill="#CFAE58" opacity="0.24603055868281248"/>
  <circle cx="1055.1905825391539" cy="569.1555581694232" r="4.230292575206658" fill="#CFAE58" opacity="0.15361053104423267"/>
  <circle cx="825.9155843095466" cy="267.49774273279996" r="4.906714153530496" fill="#CFAE58" opacity="0.13985159229798494"/>
  <circle cx="403.00507619536734" cy="103.53445499262484" r="2.838031907166916" fill="#CFAE58" opacity="0.11724027415222323"/>
  <circle cx="600.3655900433127" cy="140.5358164978868" r="4.958521850993196" fill="#CFAE58" opacity="0.13661395420190725"/>
  <circle cx="677.6527514888762" cy="593.755348375184" r="4.175052126647631" fill="#CFAE58" opacity="0.11841988077749341"/>
  <circle cx="517.1104397856375" cy="135.85281281104506" r="5.5210403059440605" fill="#CFAE58" opacity="0.20358380796219772"/>
  <circle cx="1030.0015267927758" cy="430.77256721323664" r="4.825934768514327" fill="#CFAE58" opacity="0.199875587711837"/>
  <circle cx="462.1509769460946" cy="124.30317713832451" r="5.149021911642598" fill="#CFAE58" opacity="0.1612619324257121"/>

  <!-- Border with glow -->
  <rect x="40" y="40" width="1120" height="550" fill="none" stroke="url(#goldGradient)" stroke-width="3" rx="12" filter="url(#softGlow)"/>

  <!-- Icon circle with premium background -->
  <circle cx="150" cy="200" r="75" fill="#CFAE58" opacity="0.15" filter="url(#softGlow)"/>
  <circle cx="150" cy="200" r="70" fill="#CFAE58" opacity="0.25"/>
  <text x="150" y="235" font-size="90" text-anchor="middle" fill="#CFAE58" filter="url(#glow)">🔬</text>

  <!-- Premium logo (crown) with enhanced styling -->
  <g transform="translate(100, 70)">
    <path d="M 30 20 L 40 35 L 35 35 Z M 50 15 L 60 35 L 45 35 Z M 65 20 L 75 35 L 70 35 Z M 30 35 L 75 35 L 73 45 L 32 45 Z"
          fill="url(#goldGradient)" filter="url(#glow)" stroke="#B89842" stroke-width="0.5"/>
    <circle cx="40" cy="25" r="3" fill="#4FD1C5" filter="url(#glow)"/>
    <circle cx="52" cy="20" r="4" fill="#4FD1C5" filter="url(#glow)"/>
    <circle cx="65" cy="25" r="3" fill="#4FD1C5" filter="url(#glow)"/>
  </g>

  <!-- Title with shadow -->
  <text x="280" y="180" font-family="Georgia, serif" font-size="72" font-weight="bold"
        fill="url(#goldGradient)" filter="url(#shadow)">Our Science</text>

  <!-- Subtitle with subtle glow -->
  <text x="280" y="230" font-family="Arial, sans-serif" font-size="36"
        fill="#D6DEE6" opacity="0.95" filter="url(#softGlow)">Advanced Aquaculture Methodology</text>

  <!-- Brand name with letter spacing -->
  <text x="280" y="300" font-family="Georgia, serif" font-size="32" font-weight="bold"
        fill="#CFAE58" letter-spacing="4" filter="url(#glow)">ROYAL KETA</text>

  <!-- Russian tagline -->
  <text x="280" y="340" font-family="Arial, sans-serif" font-size="22" font-style="italic"
        fill="#8B95A1" opacity="0.8">От икринки к королевской</text>

  <!-- Location -->
  <text x="280" y="380" font-family="Arial, sans-serif" font-size="20"
        fill="#8B95A1" opacity="0.7">Невельский район, Сахалин</text>

  <!-- Website with glow -->
  <text x="100" y="570" font-family="Arial, sans-serif" font-size="30" font-weight="bold"
        fill="#4FD1C5" filter="url(#glow)">royalketa.com</text>

  <!-- Enhanced decorative salmon silhouette -->
  <g transform="translate(950, 480)" opacity="0.2" filter="url(#softGlow)">
    <ellipse cx="0" cy="0" rx="90" ry="35" fill="#CFAE58"/>
    <path d="M 90 0 L 120 -18 L 130 0 L 120 18 Z" fill="#CFAE58"/>
    <path d="M -25 -35 L 0 -45 L 25 -35 Z" fill="#CFAE58"/>
    <ellipse cx="-50" cy="0" rx="15" ry="12" fill="#0B0F14"/>
  </g>

  <!-- Additional decorative caviar clusters -->
  <g opacity="0.2">
    <circle cx="1050" cy="120" r="6" fill="#CFAE58"/>
    <circle cx="1065" cy="115" r="5" fill="#CFAE58"/>
    <circle cx="1058" cy="130" r="4" fill="#CFAE58"/>
    <circle cx="150" cy="500" r="5" fill="#4FD1C5"/>
    <circle cx="165" cy="508" r="4" fill="#4FD1C5"/>
    <circle cx="140" cy="512" r="5" fill="#4FD1C5"/>
  </g>
</svg>