<svg width="1200" height="630" xmlns="http://www.w3.org/2000/svg">
  <defs>
    <linearGradient id="bgGradient" x1="0%" y1="0%" x2="100%" y2="100%">
      <stop offset="0%" style="stop-color:#0B0F14;stop-opacity:1" />
      <stop offset="50%" style="stop-color:#0F1619;stop-opacity:1" />
      <stop offset="100%" style="stop-color:#0F1922;stop-opacity:1" />
    </linearGradient>
    <linearGradient id="goldGradient" x1="0%" y1="0%" x2="100%" y2="0%">
      <stop offset="0%" style="stop-color:#E5D596;stop-opacity:1" />
      <stop offset="50%" style="stop-color:#CFAE58;stop-opacity:1" />
      <stop offset="100%" style="stop-color:#B89842;stop-opacity:1" />
    </linearGradient>
    <radialGradient id="oceanGradient" cx="50%" cy="50%" r="50%">
      <stop offset="0%" style="stop-color:#4FD1C5;stop-opacity:0.3" />
      <stop offset="100%" style="stop-color:#1E90A0;stop-opacity:0.05" />
    </radialGradient>
    <filter id="glow">
      <feGaussianBlur stdDeviation="5" result="coloredBlur"/>
      <feMerge>
        <feMergeNode in="coloredBlur"/>
        <feMergeNode in="SourceGraphic"/>
      </feMerge>
    </filter>
    <filter id="softGlow">
      <feGaussianBlur stdDeviation="8" result="coloredBlur"/>
      <feMerge>
        <feMergeNode in="coloredBlur"/>
        <feMergeNode in="SourceGraphic"/>
      </feMerge>
    </filter>
    <filter id="shadow">
      <feDropShadow dx="0" dy="4" stdDeviation="8" flood-color="#000000" flood-opacity="0.5"/>
    </filter>
  </defs>

  <!-- Background -->
  <rect width="1200" height="630" fill="url(#bgGradient)"/>

  <!-- Decorative ocean gradients -->
  <ellipse cx="1000" cy="150" rx="300" ry="200" fill="url(#oceanGradient)" opacity="0.4"/>
  <ellipse cx="200" cy="530" rx="250" ry="180" fill="url(#oceanGradient)" opacity="0.3"/>

  <!-- Wave patterns -->
  <path d="M 0 400 Q 300 350 600 400 T 1200 400 L 1200 630 L 0 630 Z" fill="#1E90A0" opacity="0.08"/>
  <path d="M 0 450 Q 250 420 500 450 T 1000 450 T 1200 450 L 1200 630 L 0 630 Z" fill="#4FD1C5" opacity="0.05"/>

  <!-- Caviar roe particles -->
  <circle cx="101.24131748616354" cy="271.07854431909834" r="2.1696498122008316" fill="#CFAE58" opacity="0.23535652486569703"/>
  <circle cx="614.4580983359724" cy="576.1609506056697" r="3.6447191243779993" fill="#CFAE58" opacity="0.13986259303024562"/>
  <circle cx="525.4649683768334" cy="417.9176721864267" r="4.90716619000908" fill="#CFAE58" opacity="0.1617154743446585"/>
  <circle cx="73.0951112479906" cy="549.0202805268865" r="4.72565674594609" fill="#CFAE58" opacity="0.22212599448522388"/>
  <circle cx="840.7479560504529" cy="63.748546588272276" r="2.8635027966852182" fill="#CFAE58" opacity="0.24632460189430394"/>
  <circle cx="227.97975448330723" cy="214.9133097606565" r="5.2720144812362335" fill="#CFAE58" opacity="0.1644093499388674"/>
  <circle cx="271.258810173753" cy="171.29110854284912" r="2.737056410748941" fill="#CFAE58" opacity="0.11766587714132858"/>
  <circle cx="806.2612457489929" cy="74.19024149325554" r="3.9303597392166947" fill="#CFAE58" opacity="0.19890942219955177"/>
  <circle cx="552.3417449916178" cy="91.81201233110508" r="5.13613586160971" fill="#CFAE58" opacity="0.1288644825620875"/>
  <circle cx="435.5087249253688" cy="210.25576349488415" r="5.653758466827986" fill="#CFAE58" opacity="0.155271760578426"/>
  <circle cx="892.9892113496556" cy="279.47363704511184" r="2.3898233620275002" fill="#CFAE58" opacity="0.13190488287267058"/>
  <circle cx="112.99884986328993" cy="170.4008774936656" r="4.076432156851966" fill="#CFAE58" opacity="0.14738092839447944"/>
  <circle cx="673.7113033437382" cy="608.4941457276445" r="3.859929591318539" fill="#CFAE58" opacity="0.15263709753897575"/>
  <circle cx="693.4199436717535" cy="420.2972565378121" r="5.915783769860369" fill="#CFAE58" opacity="0.14044036418085512"/>
  <circle cx="924.6947021378547" cy="226.34548195990521" r="5.697722647529842" fill="#CFAE58" opacity="0.1305947514771643"/>
  <circle cx="825.8678067929746" cy="391.5631921875911" r="4.781427199377969" fill="#CFAE58" opacity="0.1950574617236136"/>
  <circle cx="793.6049544006497" cy="118.45606637049517" r="5.147563606726042" fill="#CFAE58" opacity="0.2292458381816644"/>
  <circle cx="785.3986783377588" cy="29.575745241629264" r="4.832730827407387" fill="#CFAE58" opacity="0.22743384914007614"/>
  <circle cx="395.37208849664546" cy="76.2590651320398" r="5.480951585601223" fill="#CFAE58" opacity="0.2426526463106387"/>
  <circle cx="579.7664646689641" cy="552.480724670381" r="5.349592353108428" fill="#CFAE58" opacity="0.19690001446867406"/>
  <circle cx="1005.1619815481727" cy="385.26320495804237" r="4.366930897536622" fill="#CFAE58" opacity="0.19394411451416857"/>
  <circle cx="532.5395502372702" cy="46.554794340548" r="3.9714494298471137" fill="#CFAE58" opacity="0.13512240661435237"/>
  <circle cx="540.5758685771397" cy="72.33873022666364" r="5.357298241771578" fill="#CFAE58" opacity="0.17001126535022232"/>
  <circle cx="790.4182485741344" cy="169.294340830381" r="4.566042558173352" fill="#CFAE58" opacity="0.1468357983360782"/>
  <circle cx="599.6531837947638" cy="98.09924825980437" r="4.5895605041489755" fill="#CFAE58" opacity="0.2193867913670577"/>
  <circle cx="905.3474929406083" cy="441.6338690132067" r="4.159299359430544" fill="#CFAE58" opacity="0.18692616837461173"/>
  <circle cx="889.9046858972013" cy="280.26639550857226" r="4.39412085155605" fill="#CFAE58" opacity="0.10613281521998727"/>
  <circle cx="833.7095453880057" cy="491.08616775064" r="4.789033301476371" fill="#CFAE58" opacity="0.11265112834959445"/>
  <circle cx="774.9339595754071" cy="191.81703962682062" r="2.5034231107569034" fill="#CFAE58" opacity="0.12702281352890807"/>
  <circle cx="1138.8776761440336" cy="103.4823891655291" r="4.1373116079555174" fill="#CFAE58" opacity="0.15825643104009068"/>

  <!-- Border with glow -->
  <rect x="40" y="40" width="1120" height="550" fill="none" stroke="url(#goldGradient)" stroke-width="3" rx="12" filter="url(#softGlow)"/>

  <!-- Icon circle with premium background -->
  <circle cx="150" cy="200" r="75" fill="#CFAE58" opacity="0.15" filter="url(#softGlow)"/>
  <circle cx="150" cy="200" r="70" fill="#CFAE58" opacity="0.25"/>
  <text x="150" y="235" font-size="90" text-anchor="middle" fill="#CFAE58" filter="url(#glow)">🔬</text>

  <!-- Premium logo (crown) with enhanced styling -->
  <g transform="translate(100, 70)">
    <path d="M 30 20 L 40 35 L 35 35 Z M 50 15 L 60 35 L 45 35 Z M 65 20 L 75 35 L 70 35 Z M 30 35 L 75 35 L 73 45 L 32 45 Z"
          fill="url(#goldGradient)" filter="url(#glow)" stroke="#B89842" stroke-width="0.5"/>
    <circle cx="40" cy="25" r="3" fill="#4FD1C5" filter="url(#glow)"/>
    <circle cx="52" cy="20" r="4" fill="#4FD1C5" filter="url(#glow)"/>
    <circle cx="65" cy="25" r="3" fill="#4FD1C5" filter="url(#glow)"/>
  </g>

  <!-- Title with shadow -->
  <text x="280" y="180" font-family="Georgia, serif" font-size="72" font-weight="bold"
        fill="url(#goldGradient)" filter="url(#shadow)">Our Science</text>

  <!-- Subtitle with subtle glow -->
  <text x="280" y="230" font-family="Arial, sans-serif" font-size="36"
        fill="#D6DEE6" opacity="0.95" filter="url(#softGlow)">Advanced Aquaculture Methodology</text>

  <!-- Brand name with letter spacing -->
  <text x="280" y="300" font-family="Georgia, serif" font-size="32" font-weight="bold"
        fill="#CFAE58" letter-spacing="4" filter="url(#glow)">ROYAL KETA</text>

  <!-- Russian tagline -->
  <text x="280" y="340" font-family="Arial, sans-serif" font-size="22" font-style="italic"
        fill="#8B95A1" opacity="0.8">От икринки к королевской</text>

  <!-- Location -->
  <text x="280" y="380" font-family="Arial, sans-serif" font-size="20"
        fill="#8B95A1" opacity="0.7">Невельский район, Сахалин</text>

  <!-- Website with glow -->
  <text x="100" y="570" font-family="Arial, sans-serif" font-size="30" font-weight="bold"
        fill="#4FD1C5" filter="url(#glow)">royalketa.com</text>

  <!-- Enhanced decorative salmon silhouette -->
  <g transform="translate(950, 480)" opacity="0.2" filter="url(#softGlow)">
    <ellipse cx="0" cy="0" rx="90" ry="35" fill="#CFAE58"/>
    <path d="M 90 0 L 120 -18 L 130 0 L 120 18 Z" fill="#CFAE58"/>
    <path d="M -25 -35 L 0 -45 L 25 -35 Z" fill="#CFAE58"/>
    <ellipse cx="-50" cy="0" rx="15" ry="12" fill="#0B0F14"/>
  </g>

  <!-- Additional decorative caviar clusters -->
  <g opacity="0.2">
    <circle cx="1050" cy="120" r="6" fill="#CFAE58"/>
    <circle cx="1065" cy="115" r="5" fill="#CFAE58"/>
    <circle cx="1058" cy="130" r="4" fill="#CFAE58"/>
    <circle cx="150" cy="500" r="5" fill="#4FD1C5"/>
    <circle cx="165" cy="508" r="4" fill="#4FD1C5"/>
    <circle cx="140" cy="512" r="5" fill="#4FD1C5"/>
  </g>
</svg>