<svg width="1200" height="630" xmlns="http://www.w3.org/2000/svg">
  <defs>
    <linearGradient id="bgGradient" x1="0%" y1="0%" x2="100%" y2="100%">
      <stop offset="0%" style="stop-color:#0B0F14;stop-opacity:1" />
      <stop offset="50%" style="stop-color:#0F1619;stop-opacity:1" />
      <stop offset="100%" style="stop-color:#0F1922;stop-opacity:1" />
    </linearGradient>
    <linearGradient id="goldGradient" x1="0%" y1="0%" x2="100%" y2="0%">
      <stop offset="0%" style="stop-color:#E5D596;stop-opacity:1" />
      <stop offset="50%" style="stop-color:#CFAE58;stop-opacity:1" />
      <stop offset="100%" style="stop-color:#B89842;stop-opacity:1" />
    </linearGradient>
    <radialGradient id="oceanGradient" cx="50%" cy="50%" r="50%">
      <stop offset="0%" style="stop-color:#4FD1C5;stop-opacity:0.3" />
      <stop offset="100%" style="stop-color:#1E90A0;stop-opacity:0.05" />
    </radialGradient>
    <filter id="glow">
      <feGaussianBlur stdDeviation="5" result="coloredBlur"/>
      <feMerge>
        <feMergeNode in="coloredBlur"/>
        <feMergeNode in="SourceGraphic"/>
      </feMerge>
    </filter>
    <filter id="softGlow">
      <feGaussianBlur stdDeviation="8" result="coloredBlur"/>
      <feMerge>
        <feMergeNode in="coloredBlur"/>
        <feMergeNode in="SourceGraphic"/>
      </feMerge>
    </filter>
    <filter id="shadow">
      <feDropShadow dx="0" dy="4" stdDeviation="8" flood-color="#000000" flood-opacity="0.5"/>
    </filter>
  </defs>

  <!-- Background -->
  <rect width="1200" height="630" fill="url(#bgGradient)"/>

  <!-- Decorative ocean gradients -->
  <ellipse cx="1000" cy="150" rx="300" ry="200" fill="url(#oceanGradient)" opacity="0.4"/>
  <ellipse cx="200" cy="530" rx="250" ry="180" fill="url(#oceanGradient)" opacity="0.3"/>

  <!-- Wave patterns -->
  <path d="M 0 400 Q 300 350 600 400 T 1200 400 L 1200 630 L 0 630 Z" fill="#1E90A0" opacity="0.08"/>
  <path d="M 0 450 Q 250 420 500 450 T 1000 450 T 1200 450 L 1200 630 L 0 630 Z" fill="#4FD1C5" opacity="0.05"/>

  <!-- Caviar roe particles -->
  <circle cx="185.10541746960786" cy="373.41471581118776" r="4.581545870707033" fill="#CFAE58" opacity="0.15528115794483813"/>
  <circle cx="1161.0724997651625" cy="554.3560086275503" r="4.820111577498623" fill="#CFAE58" opacity="0.16266574113157733"/>
  <circle cx="729.8866181974936" cy="369.0528604731291" r="4.3041928358486095" fill="#CFAE58" opacity="0.18776973918704948"/>
  <circle cx="433.55403249395704" cy="601.2278977042548" r="3.908853445390357" fill="#CFAE58" opacity="0.22194259826616788"/>
  <circle cx="1095.5225557749686" cy="141.16256768202476" r="3.2107279851818413" fill="#CFAE58" opacity="0.17581703587897107"/>
  <circle cx="2.1909425609639044" cy="539.5255758689705" r="2.6582550730913495" fill="#CFAE58" opacity="0.13790813733467291"/>
  <circle cx="571.0717785782433" cy="223.32177111169563" r="4.088849855155048" fill="#CFAE58" opacity="0.1466631334764994"/>
  <circle cx="193.85817833718352" cy="377.43397225652666" r="2.0364125712169274" fill="#CFAE58" opacity="0.10020409119259045"/>
  <circle cx="197.88296086487946" cy="147.68697323661596" r="2.235487507933139" fill="#CFAE58" opacity="0.17009674790479298"/>
  <circle cx="70.35033238716491" cy="264.2705069322389" r="5.4728535304584955" fill="#CFAE58" opacity="0.20063571549594433"/>
  <circle cx="528.0552892837675" cy="627.099352215625" r="4.662425585221826" fill="#CFAE58" opacity="0.19881932111936984"/>
  <circle cx="418.04771791725227" cy="483.54990157920497" r="3.9621042623244165" fill="#CFAE58" opacity="0.21195397425889123"/>
  <circle cx="759.1932375656004" cy="286.7699959020705" r="2.510669212554869" fill="#CFAE58" opacity="0.16004073375266747"/>
  <circle cx="817.8867686598422" cy="390.8139936463798" r="5.1741347230276045" fill="#CFAE58" opacity="0.18667347026263464"/>
  <circle cx="175.73253980143093" cy="310.1247469935882" r="2.865043841573483" fill="#CFAE58" opacity="0.1732304074081492"/>
  <circle cx="581.8243814950711" cy="407.1212574714867" r="4.337525511013301" fill="#CFAE58" opacity="0.10172976008816112"/>
  <circle cx="621.693431466395" cy="17.508607889979523" r="3.391256739789676" fill="#CFAE58" opacity="0.22604441407889275"/>
  <circle cx="919.5627150500828" cy="17.135996055133518" r="4.195751812990388" fill="#CFAE58" opacity="0.1449296613369222"/>
  <circle cx="248.85548944490355" cy="428.0749884168279" r="4.738396271407238" fill="#CFAE58" opacity="0.1742008713121972"/>
  <circle cx="541.1557152307172" cy="134.85913699475552" r="5.714530780943582" fill="#CFAE58" opacity="0.16971833129921232"/>
  <circle cx="241.34758014221305" cy="493.4306229971073" r="3.3667829865933587" fill="#CFAE58" opacity="0.12503988220824078"/>
  <circle cx="515.3397650685773" cy="567.4878189877551" r="5.309460805083073" fill="#CFAE58" opacity="0.18380697478883418"/>
  <circle cx="979.5217820892043" cy="598.4967011408555" r="4.208460656135308" fill="#CFAE58" opacity="0.2468949410719497"/>
  <circle cx="917.651896994098" cy="61.329684581360716" r="3.967953515917598" fill="#CFAE58" opacity="0.19276469912963962"/>
  <circle cx="93.07207193772334" cy="616.0438579315637" r="5.094357102231119" fill="#CFAE58" opacity="0.17326177218929023"/>
  <circle cx="594.0076979203421" cy="9.412214869671745" r="5.753036762313915" fill="#CFAE58" opacity="0.11467098446468889"/>
  <circle cx="521.724776062115" cy="419.79591291211204" r="5.883055801240062" fill="#CFAE58" opacity="0.10678982167744194"/>
  <circle cx="21.202464159284684" cy="296.8621867377753" r="3.96442938152049" fill="#CFAE58" opacity="0.12278906954362251"/>
  <circle cx="454.1088914916562" cy="143.22753020429843" r="3.017372183149969" fill="#CFAE58" opacity="0.22252054807336716"/>
  <circle cx="1155.5336094579525" cy="306.75001317565807" r="5.2815286370648025" fill="#CFAE58" opacity="0.2308466931292367"/>

  <!-- Border with glow -->
  <rect x="40" y="40" width="1120" height="550" fill="none" stroke="url(#goldGradient)" stroke-width="3" rx="12" filter="url(#softGlow)"/>

  <!-- Icon circle with premium background -->
  <circle cx="150" cy="200" r="75" fill="#CFAE58" opacity="0.15" filter="url(#softGlow)"/>
  <circle cx="150" cy="200" r="70" fill="#CFAE58" opacity="0.25"/>
  <text x="150" y="235" font-size="90" text-anchor="middle" fill="#CFAE58" filter="url(#glow)">🔬</text>

  <!-- Premium logo (crown) with enhanced styling -->
  <g transform="translate(100, 70)">
    <path d="M 30 20 L 40 35 L 35 35 Z M 50 15 L 60 35 L 45 35 Z M 65 20 L 75 35 L 70 35 Z M 30 35 L 75 35 L 73 45 L 32 45 Z"
          fill="url(#goldGradient)" filter="url(#glow)" stroke="#B89842" stroke-width="0.5"/>
    <circle cx="40" cy="25" r="3" fill="#4FD1C5" filter="url(#glow)"/>
    <circle cx="52" cy="20" r="4" fill="#4FD1C5" filter="url(#glow)"/>
    <circle cx="65" cy="25" r="3" fill="#4FD1C5" filter="url(#glow)"/>
  </g>

  <!-- Title with shadow -->
  <text x="280" y="180" font-family="Georgia, serif" font-size="72" font-weight="bold"
        fill="url(#goldGradient)" filter="url(#shadow)">Our Science</text>

  <!-- Subtitle with subtle glow -->
  <text x="280" y="230" font-family="Arial, sans-serif" font-size="36"
        fill="#D6DEE6" opacity="0.95" filter="url(#softGlow)">Advanced Aquaculture Methodology</text>

  <!-- Brand name with letter spacing -->
  <text x="280" y="300" font-family="Georgia, serif" font-size="32" font-weight="bold"
        fill="#CFAE58" letter-spacing="4" filter="url(#glow)">ROYAL KETA</text>

  <!-- Russian tagline -->
  <text x="280" y="340" font-family="Arial, sans-serif" font-size="22" font-style="italic"
        fill="#8B95A1" opacity="0.8">От икринки к королевской</text>

  <!-- Location -->
  <text x="280" y="380" font-family="Arial, sans-serif" font-size="20"
        fill="#8B95A1" opacity="0.7">Невельский район, Сахалин</text>

  <!-- Website with glow -->
  <text x="100" y="570" font-family="Arial, sans-serif" font-size="30" font-weight="bold"
        fill="#4FD1C5" filter="url(#glow)">royalketa.com</text>

  <!-- Enhanced decorative salmon silhouette -->
  <g transform="translate(950, 480)" opacity="0.2" filter="url(#softGlow)">
    <ellipse cx="0" cy="0" rx="90" ry="35" fill="#CFAE58"/>
    <path d="M 90 0 L 120 -18 L 130 0 L 120 18 Z" fill="#CFAE58"/>
    <path d="M -25 -35 L 0 -45 L 25 -35 Z" fill="#CFAE58"/>
    <ellipse cx="-50" cy="0" rx="15" ry="12" fill="#0B0F14"/>
  </g>

  <!-- Additional decorative caviar clusters -->
  <g opacity="0.2">
    <circle cx="1050" cy="120" r="6" fill="#CFAE58"/>
    <circle cx="1065" cy="115" r="5" fill="#CFAE58"/>
    <circle cx="1058" cy="130" r="4" fill="#CFAE58"/>
    <circle cx="150" cy="500" r="5" fill="#4FD1C5"/>
    <circle cx="165" cy="508" r="4" fill="#4FD1C5"/>
    <circle cx="140" cy="512" r="5" fill="#4FD1C5"/>
  </g>
</svg>