<svg width="1200" height="630" xmlns="http://www.w3.org/2000/svg">
  <defs>
    <linearGradient id="bgGradient" x1="0%" y1="0%" x2="100%" y2="100%">
      <stop offset="0%" style="stop-color:#0B0F14;stop-opacity:1" />
      <stop offset="50%" style="stop-color:#0F1619;stop-opacity:1" />
      <stop offset="100%" style="stop-color:#0F1922;stop-opacity:1" />
    </linearGradient>
    <linearGradient id="goldGradient" x1="0%" y1="0%" x2="100%" y2="0%">
      <stop offset="0%" style="stop-color:#E5D596;stop-opacity:1" />
      <stop offset="50%" style="stop-color:#CFAE58;stop-opacity:1" />
      <stop offset="100%" style="stop-color:#B89842;stop-opacity:1" />
    </linearGradient>
    <radialGradient id="oceanGradient" cx="50%" cy="50%" r="50%">
      <stop offset="0%" style="stop-color:#4FD1C5;stop-opacity:0.3" />
      <stop offset="100%" style="stop-color:#1E90A0;stop-opacity:0.05" />
    </radialGradient>
    <filter id="glow">
      <feGaussianBlur stdDeviation="5" result="coloredBlur"/>
      <feMerge>
        <feMergeNode in="coloredBlur"/>
        <feMergeNode in="SourceGraphic"/>
      </feMerge>
    </filter>
    <filter id="softGlow">
      <feGaussianBlur stdDeviation="8" result="coloredBlur"/>
      <feMerge>
        <feMergeNode in="coloredBlur"/>
        <feMergeNode in="SourceGraphic"/>
      </feMerge>
    </filter>
    <filter id="shadow">
      <feDropShadow dx="0" dy="4" stdDeviation="8" flood-color="#000000" flood-opacity="0.5"/>
    </filter>
  </defs>

  <!-- Background -->
  <rect width="1200" height="630" fill="url(#bgGradient)"/>

  <!-- Decorative ocean gradients -->
  <ellipse cx="1000" cy="150" rx="300" ry="200" fill="url(#oceanGradient)" opacity="0.4"/>
  <ellipse cx="200" cy="530" rx="250" ry="180" fill="url(#oceanGradient)" opacity="0.3"/>

  <!-- Wave patterns -->
  <path d="M 0 400 Q 300 350 600 400 T 1200 400 L 1200 630 L 0 630 Z" fill="#1E90A0" opacity="0.08"/>
  <path d="M 0 450 Q 250 420 500 450 T 1000 450 T 1200 450 L 1200 630 L 0 630 Z" fill="#4FD1C5" opacity="0.05"/>

  <!-- Caviar roe particles -->
  <circle cx="1155.3173168776652" cy="464.02252984735975" r="4.688512755391709" fill="#CFAE58" opacity="0.10466577574195227"/>
  <circle cx="381.73842127636595" cy="618.2285115065694" r="3.963729783736997" fill="#CFAE58" opacity="0.18995076039244368"/>
  <circle cx="1166.366974812089" cy="246.14069022080355" r="2.7221258634295715" fill="#CFAE58" opacity="0.2460680371714898"/>
  <circle cx="1054.4881177312325" cy="375.6042287067033" r="3.689917602480741" fill="#CFAE58" opacity="0.11857631657283602"/>
  <circle cx="466.2300410798273" cy="543.4235230697074" r="4.8841653004187" fill="#CFAE58" opacity="0.2285987570353621"/>
  <circle cx="79.95406848173997" cy="56.28800189768476" r="5.409298833227667" fill="#CFAE58" opacity="0.20410154740794373"/>
  <circle cx="596.0506554880214" cy="472.01292262709205" r="5.524268689397866" fill="#CFAE58" opacity="0.2033991741632708"/>
  <circle cx="901.7763474624792" cy="401.7908418239283" r="4.967467723063137" fill="#CFAE58" opacity="0.23390785414878212"/>
  <circle cx="810.2414073758708" cy="417.4650533244655" r="4.8116754117178235" fill="#CFAE58" opacity="0.15064470704515415"/>
  <circle cx="1073.878097824739" cy="164.55205973725933" r="2.9131401138526813" fill="#CFAE58" opacity="0.2325503278465501"/>
  <circle cx="288.912377087921" cy="378.6595801021072" r="4.811711355221844" fill="#CFAE58" opacity="0.2465393569465585"/>
  <circle cx="712.8583174038301" cy="351.2246969355204" r="4.377689627055647" fill="#CFAE58" opacity="0.20212326148994908"/>
  <circle cx="294.0316249769072" cy="591.3820550542301" r="4.00742068616998" fill="#CFAE58" opacity="0.19218310583783632"/>
  <circle cx="744.6551106671927" cy="38.51771592277408" r="4.642576322697886" fill="#CFAE58" opacity="0.11438774007020852"/>
  <circle cx="402.99352057934385" cy="153.2580558624779" r="2.0061671358658986" fill="#CFAE58" opacity="0.16267935034265854"/>
  <circle cx="81.92016849172754" cy="145.07697118165885" r="3.1342698989732147" fill="#CFAE58" opacity="0.15971643493219356"/>
  <circle cx="1113.5827665734137" cy="297.91995694827204" r="5.234856776142934" fill="#CFAE58" opacity="0.2318269134700722"/>
  <circle cx="1109.5896381716416" cy="179.13626296307672" r="2.7887332849646222" fill="#CFAE58" opacity="0.1532858394263528"/>
  <circle cx="373.69439408123617" cy="415.33079820514473" r="5.802341975545475" fill="#CFAE58" opacity="0.19864991221734407"/>
  <circle cx="889.9168827719363" cy="502.7708418321959" r="3.3953328893450934" fill="#CFAE58" opacity="0.1451300950732212"/>
  <circle cx="1099.219563612248" cy="427.1681411863838" r="2.3631421628653504" fill="#CFAE58" opacity="0.2054247981825443"/>
  <circle cx="46.31619594372572" cy="267.35747555666154" r="4.8542985095295395" fill="#CFAE58" opacity="0.15862103239759584"/>
  <circle cx="417.87007498079305" cy="57.90008604410156" r="5.214730030131905" fill="#CFAE58" opacity="0.18838944972103513"/>
  <circle cx="725.9399066082682" cy="69.37316297062658" r="5.362431201845437" fill="#CFAE58" opacity="0.11877816173182319"/>
  <circle cx="325.3693623518771" cy="578.3037571204939" r="2.044946516805533" fill="#CFAE58" opacity="0.1180582576532021"/>
  <circle cx="821.9027568050517" cy="172.78127188341347" r="5.3457723842160565" fill="#CFAE58" opacity="0.14506295078804649"/>
  <circle cx="166.81705342919386" cy="221.1100082989953" r="2.61473863776145" fill="#CFAE58" opacity="0.1395420236943187"/>
  <circle cx="1070.7557918179227" cy="119.20403272410427" r="4.862956231747003" fill="#CFAE58" opacity="0.24595884967003406"/>
  <circle cx="203.5103410247289" cy="253.09307033874828" r="5.886779646291928" fill="#CFAE58" opacity="0.24547597884951242"/>
  <circle cx="804.9577716250371" cy="625.8128973789187" r="2.1775013779481025" fill="#CFAE58" opacity="0.17951502408667416"/>

  <!-- Border with glow -->
  <rect x="40" y="40" width="1120" height="550" fill="none" stroke="url(#goldGradient)" stroke-width="3" rx="12" filter="url(#softGlow)"/>

  <!-- Icon circle with premium background -->
  <circle cx="150" cy="200" r="75" fill="#CFAE58" opacity="0.15" filter="url(#softGlow)"/>
  <circle cx="150" cy="200" r="70" fill="#CFAE58" opacity="0.25"/>
  <text x="150" y="235" font-size="90" text-anchor="middle" fill="#CFAE58" filter="url(#glow)">🔬</text>

  <!-- Premium logo (crown) with enhanced styling -->
  <g transform="translate(100, 70)">
    <path d="M 30 20 L 40 35 L 35 35 Z M 50 15 L 60 35 L 45 35 Z M 65 20 L 75 35 L 70 35 Z M 30 35 L 75 35 L 73 45 L 32 45 Z"
          fill="url(#goldGradient)" filter="url(#glow)" stroke="#B89842" stroke-width="0.5"/>
    <circle cx="40" cy="25" r="3" fill="#4FD1C5" filter="url(#glow)"/>
    <circle cx="52" cy="20" r="4" fill="#4FD1C5" filter="url(#glow)"/>
    <circle cx="65" cy="25" r="3" fill="#4FD1C5" filter="url(#glow)"/>
  </g>

  <!-- Title with shadow -->
  <text x="280" y="180" font-family="Georgia, serif" font-size="72" font-weight="bold"
        fill="url(#goldGradient)" filter="url(#shadow)">Our Science</text>

  <!-- Subtitle with subtle glow -->
  <text x="280" y="230" font-family="Arial, sans-serif" font-size="36"
        fill="#D6DEE6" opacity="0.95" filter="url(#softGlow)">Advanced Aquaculture Methodology</text>

  <!-- Brand name with letter spacing -->
  <text x="280" y="300" font-family="Georgia, serif" font-size="32" font-weight="bold"
        fill="#CFAE58" letter-spacing="4" filter="url(#glow)">ROYAL KETA</text>

  <!-- Russian tagline -->
  <text x="280" y="340" font-family="Arial, sans-serif" font-size="22" font-style="italic"
        fill="#8B95A1" opacity="0.8">От икринки к королевской</text>

  <!-- Location -->
  <text x="280" y="380" font-family="Arial, sans-serif" font-size="20"
        fill="#8B95A1" opacity="0.7">Невельский район, Сахалин</text>

  <!-- Website with glow -->
  <text x="100" y="570" font-family="Arial, sans-serif" font-size="30" font-weight="bold"
        fill="#4FD1C5" filter="url(#glow)">royalketa.com</text>

  <!-- Enhanced decorative salmon silhouette -->
  <g transform="translate(950, 480)" opacity="0.2" filter="url(#softGlow)">
    <ellipse cx="0" cy="0" rx="90" ry="35" fill="#CFAE58"/>
    <path d="M 90 0 L 120 -18 L 130 0 L 120 18 Z" fill="#CFAE58"/>
    <path d="M -25 -35 L 0 -45 L 25 -35 Z" fill="#CFAE58"/>
    <ellipse cx="-50" cy="0" rx="15" ry="12" fill="#0B0F14"/>
  </g>

  <!-- Additional decorative caviar clusters -->
  <g opacity="0.2">
    <circle cx="1050" cy="120" r="6" fill="#CFAE58"/>
    <circle cx="1065" cy="115" r="5" fill="#CFAE58"/>
    <circle cx="1058" cy="130" r="4" fill="#CFAE58"/>
    <circle cx="150" cy="500" r="5" fill="#4FD1C5"/>
    <circle cx="165" cy="508" r="4" fill="#4FD1C5"/>
    <circle cx="140" cy="512" r="5" fill="#4FD1C5"/>
  </g>
</svg>