<svg width="1200" height="630" xmlns="http://www.w3.org/2000/svg">
  <defs>
    <linearGradient id="bgGradient" x1="0%" y1="0%" x2="100%" y2="100%">
      <stop offset="0%" style="stop-color:#0B0F14;stop-opacity:1" />
      <stop offset="50%" style="stop-color:#0F1619;stop-opacity:1" />
      <stop offset="100%" style="stop-color:#0F1922;stop-opacity:1" />
    </linearGradient>
    <linearGradient id="goldGradient" x1="0%" y1="0%" x2="100%" y2="0%">
      <stop offset="0%" style="stop-color:#E5D596;stop-opacity:1" />
      <stop offset="50%" style="stop-color:#CFAE58;stop-opacity:1" />
      <stop offset="100%" style="stop-color:#B89842;stop-opacity:1" />
    </linearGradient>
    <radialGradient id="oceanGradient" cx="50%" cy="50%" r="50%">
      <stop offset="0%" style="stop-color:#4FD1C5;stop-opacity:0.3" />
      <stop offset="100%" style="stop-color:#1E90A0;stop-opacity:0.05" />
    </radialGradient>
    <filter id="glow">
      <feGaussianBlur stdDeviation="5" result="coloredBlur"/>
      <feMerge>
        <feMergeNode in="coloredBlur"/>
        <feMergeNode in="SourceGraphic"/>
      </feMerge>
    </filter>
    <filter id="softGlow">
      <feGaussianBlur stdDeviation="8" result="coloredBlur"/>
      <feMerge>
        <feMergeNode in="coloredBlur"/>
        <feMergeNode in="SourceGraphic"/>
      </feMerge>
    </filter>
    <filter id="shadow">
      <feDropShadow dx="0" dy="4" stdDeviation="8" flood-color="#000000" flood-opacity="0.5"/>
    </filter>
  </defs>

  <!-- Background -->
  <rect width="1200" height="630" fill="url(#bgGradient)"/>

  <!-- Decorative ocean gradients -->
  <ellipse cx="1000" cy="150" rx="300" ry="200" fill="url(#oceanGradient)" opacity="0.4"/>
  <ellipse cx="200" cy="530" rx="250" ry="180" fill="url(#oceanGradient)" opacity="0.3"/>

  <!-- Wave patterns -->
  <path d="M 0 400 Q 300 350 600 400 T 1200 400 L 1200 630 L 0 630 Z" fill="#1E90A0" opacity="0.08"/>
  <path d="M 0 450 Q 250 420 500 450 T 1000 450 T 1200 450 L 1200 630 L 0 630 Z" fill="#4FD1C5" opacity="0.05"/>

  <!-- Caviar roe particles -->
  <circle cx="994.1812236316231" cy="274.0140720842011" r="3.653694068268202" fill="#CFAE58" opacity="0.11214713581430857"/>
  <circle cx="10.219215934345671" cy="593.906343022148" r="2.1151313560948024" fill="#CFAE58" opacity="0.16511449691631774"/>
  <circle cx="239.01691726142883" cy="160.6474519239171" r="5.410008269414961" fill="#CFAE58" opacity="0.14012484319986884"/>
  <circle cx="1048.736895239762" cy="625.0607313666446" r="3.8690544773977527" fill="#CFAE58" opacity="0.2321618691970403"/>
  <circle cx="1037.4416277197013" cy="223.48574113019862" r="3.432486944246483" fill="#CFAE58" opacity="0.17396628553443122"/>
  <circle cx="356.3878172559264" cy="158.28702587687667" r="2.9765888207343894" fill="#CFAE58" opacity="0.17443428648512538"/>
  <circle cx="51.81459776364497" cy="190.41205181412124" r="3.7740217295633354" fill="#CFAE58" opacity="0.2194403582524844"/>
  <circle cx="7.976064765807012" cy="125.20049353306409" r="3.751839286281371" fill="#CFAE58" opacity="0.10806539016134721"/>
  <circle cx="110.38018445677942" cy="196.39054303576702" r="4.874933212525649" fill="#CFAE58" opacity="0.10787491127364673"/>
  <circle cx="256.7160913478495" cy="327.00388560870863" r="5.905708931065014" fill="#CFAE58" opacity="0.19500289330302628"/>
  <circle cx="656.0189456599853" cy="56.94336949825891" r="3.3154701159803643" fill="#CFAE58" opacity="0.20502552279577868"/>
  <circle cx="66.10406548570067" cy="477.02019184631337" r="3.1112945244170738" fill="#CFAE58" opacity="0.1765125873754697"/>
  <circle cx="957.0917183436045" cy="175.41442329829434" r="3.797383294225265" fill="#CFAE58" opacity="0.17372990764710744"/>
  <circle cx="776.0986331648547" cy="448.6326635826598" r="2.8181954166010432" fill="#CFAE58" opacity="0.10315010301576627"/>
  <circle cx="631.2317443531699" cy="250.01323305611518" r="2.901866366201334" fill="#CFAE58" opacity="0.2191952870641813"/>
  <circle cx="1136.9469167746538" cy="416.5852863755846" r="3.4010176702972474" fill="#CFAE58" opacity="0.183536335720287"/>
  <circle cx="421.91026949948616" cy="106.78694842941601" r="2.7589007652462914" fill="#CFAE58" opacity="0.10686729664222411"/>
  <circle cx="990.556513034979" cy="215.60784733767082" r="3.124941235775089" fill="#CFAE58" opacity="0.10683503941089742"/>
  <circle cx="60.29866963608379" cy="159.22533590937266" r="4.222943190797755" fill="#CFAE58" opacity="0.20906502824488776"/>
  <circle cx="1043.212497374452" cy="412.95652995602717" r="2.119972465422624" fill="#CFAE58" opacity="0.12510993853648994"/>
  <circle cx="1164.841502720372" cy="324.7965518604453" r="3.4764271489767156" fill="#CFAE58" opacity="0.13217093204466476"/>
  <circle cx="97.70614891806821" cy="627.4730376380708" r="3.2798255603553086" fill="#CFAE58" opacity="0.18090488573131697"/>
  <circle cx="1043.4617072615786" cy="29.101169664631673" r="4.142594509594365" fill="#CFAE58" opacity="0.215898310154437"/>
  <circle cx="104.58860693731906" cy="418.6327814226929" r="5.350167472343985" fill="#CFAE58" opacity="0.23546579968656592"/>
  <circle cx="249.00641680530512" cy="199.8549297626659" r="5.720964688913798" fill="#CFAE58" opacity="0.14263083281558087"/>
  <circle cx="243.9735279861344" cy="127.37817222593355" r="3.6772968407490945" fill="#CFAE58" opacity="0.15392840536617963"/>
  <circle cx="1047.4362239996942" cy="123.47358064855746" r="2.6008633583216327" fill="#CFAE58" opacity="0.21020793898309426"/>
  <circle cx="285.6792427098405" cy="190.4735285918349" r="3.1807466634096064" fill="#CFAE58" opacity="0.23797556629067176"/>
  <circle cx="975.1444017091075" cy="245.19953831560173" r="2.2553303911269285" fill="#CFAE58" opacity="0.15475681749104275"/>
  <circle cx="1028.739536360155" cy="139.04257401926776" r="5.052195609302021" fill="#CFAE58" opacity="0.13470742255974857"/>

  <!-- Border with glow -->
  <rect x="40" y="40" width="1120" height="550" fill="none" stroke="url(#goldGradient)" stroke-width="3" rx="12" filter="url(#softGlow)"/>

  <!-- Icon circle with premium background -->
  <circle cx="150" cy="200" r="75" fill="#CFAE58" opacity="0.15" filter="url(#softGlow)"/>
  <circle cx="150" cy="200" r="70" fill="#CFAE58" opacity="0.25"/>
  <text x="150" y="235" font-size="90" text-anchor="middle" fill="#CFAE58" filter="url(#glow)">🔬</text>

  <!-- Premium logo (crown) with enhanced styling -->
  <g transform="translate(100, 70)">
    <path d="M 30 20 L 40 35 L 35 35 Z M 50 15 L 60 35 L 45 35 Z M 65 20 L 75 35 L 70 35 Z M 30 35 L 75 35 L 73 45 L 32 45 Z"
          fill="url(#goldGradient)" filter="url(#glow)" stroke="#B89842" stroke-width="0.5"/>
    <circle cx="40" cy="25" r="3" fill="#4FD1C5" filter="url(#glow)"/>
    <circle cx="52" cy="20" r="4" fill="#4FD1C5" filter="url(#glow)"/>
    <circle cx="65" cy="25" r="3" fill="#4FD1C5" filter="url(#glow)"/>
  </g>

  <!-- Title with shadow -->
  <text x="280" y="180" font-family="Georgia, serif" font-size="72" font-weight="bold"
        fill="url(#goldGradient)" filter="url(#shadow)">Our Science</text>

  <!-- Subtitle with subtle glow -->
  <text x="280" y="230" font-family="Arial, sans-serif" font-size="36"
        fill="#D6DEE6" opacity="0.95" filter="url(#softGlow)">Advanced Aquaculture Methodology</text>

  <!-- Brand name with letter spacing -->
  <text x="280" y="300" font-family="Georgia, serif" font-size="32" font-weight="bold"
        fill="#CFAE58" letter-spacing="4" filter="url(#glow)">ROYAL KETA</text>

  <!-- Russian tagline -->
  <text x="280" y="340" font-family="Arial, sans-serif" font-size="22" font-style="italic"
        fill="#8B95A1" opacity="0.8">От икринки к королевской</text>

  <!-- Location -->
  <text x="280" y="380" font-family="Arial, sans-serif" font-size="20"
        fill="#8B95A1" opacity="0.7">Невельский район, Сахалин</text>

  <!-- Website with glow -->
  <text x="100" y="570" font-family="Arial, sans-serif" font-size="30" font-weight="bold"
        fill="#4FD1C5" filter="url(#glow)">royalketa.com</text>

  <!-- Enhanced decorative salmon silhouette -->
  <g transform="translate(950, 480)" opacity="0.2" filter="url(#softGlow)">
    <ellipse cx="0" cy="0" rx="90" ry="35" fill="#CFAE58"/>
    <path d="M 90 0 L 120 -18 L 130 0 L 120 18 Z" fill="#CFAE58"/>
    <path d="M -25 -35 L 0 -45 L 25 -35 Z" fill="#CFAE58"/>
    <ellipse cx="-50" cy="0" rx="15" ry="12" fill="#0B0F14"/>
  </g>

  <!-- Additional decorative caviar clusters -->
  <g opacity="0.2">
    <circle cx="1050" cy="120" r="6" fill="#CFAE58"/>
    <circle cx="1065" cy="115" r="5" fill="#CFAE58"/>
    <circle cx="1058" cy="130" r="4" fill="#CFAE58"/>
    <circle cx="150" cy="500" r="5" fill="#4FD1C5"/>
    <circle cx="165" cy="508" r="4" fill="#4FD1C5"/>
    <circle cx="140" cy="512" r="5" fill="#4FD1C5"/>
  </g>
</svg>