<svg width="1200" height="630" xmlns="http://www.w3.org/2000/svg">
  <defs>
    <linearGradient id="bgGradient" x1="0%" y1="0%" x2="100%" y2="100%">
      <stop offset="0%" style="stop-color:#0B0F14;stop-opacity:1" />
      <stop offset="50%" style="stop-color:#0F1619;stop-opacity:1" />
      <stop offset="100%" style="stop-color:#0F1922;stop-opacity:1" />
    </linearGradient>
    <linearGradient id="goldGradient" x1="0%" y1="0%" x2="100%" y2="0%">
      <stop offset="0%" style="stop-color:#E5D596;stop-opacity:1" />
      <stop offset="50%" style="stop-color:#CFAE58;stop-opacity:1" />
      <stop offset="100%" style="stop-color:#B89842;stop-opacity:1" />
    </linearGradient>
    <radialGradient id="oceanGradient" cx="50%" cy="50%" r="50%">
      <stop offset="0%" style="stop-color:#4FD1C5;stop-opacity:0.3" />
      <stop offset="100%" style="stop-color:#1E90A0;stop-opacity:0.05" />
    </radialGradient>
    <filter id="glow">
      <feGaussianBlur stdDeviation="5" result="coloredBlur"/>
      <feMerge>
        <feMergeNode in="coloredBlur"/>
        <feMergeNode in="SourceGraphic"/>
      </feMerge>
    </filter>
    <filter id="softGlow">
      <feGaussianBlur stdDeviation="8" result="coloredBlur"/>
      <feMerge>
        <feMergeNode in="coloredBlur"/>
        <feMergeNode in="SourceGraphic"/>
      </feMerge>
    </filter>
    <filter id="shadow">
      <feDropShadow dx="0" dy="4" stdDeviation="8" flood-color="#000000" flood-opacity="0.5"/>
    </filter>
  </defs>

  <!-- Background -->
  <rect width="1200" height="630" fill="url(#bgGradient)"/>

  <!-- Decorative ocean gradients -->
  <ellipse cx="1000" cy="150" rx="300" ry="200" fill="url(#oceanGradient)" opacity="0.4"/>
  <ellipse cx="200" cy="530" rx="250" ry="180" fill="url(#oceanGradient)" opacity="0.3"/>

  <!-- Wave patterns -->
  <path d="M 0 400 Q 300 350 600 400 T 1200 400 L 1200 630 L 0 630 Z" fill="#1E90A0" opacity="0.08"/>
  <path d="M 0 450 Q 250 420 500 450 T 1000 450 T 1200 450 L 1200 630 L 0 630 Z" fill="#4FD1C5" opacity="0.05"/>

  <!-- Caviar roe particles -->
  <circle cx="850.424274999683" cy="620.5212699897224" r="5.208345659286922" fill="#CFAE58" opacity="0.19745403391777075"/>
  <circle cx="239.1798511180686" cy="20.382538633189284" r="4.102814074334484" fill="#CFAE58" opacity="0.17084264687011863"/>
  <circle cx="49.51772068859279" cy="45.67960365240381" r="3.465433727645281" fill="#CFAE58" opacity="0.2420854223812851"/>
  <circle cx="1142.1159781890651" cy="581.0857075643203" r="3.2641994046408085" fill="#CFAE58" opacity="0.1552439728807651"/>
  <circle cx="1178.0427251325764" cy="56.14056001662114" r="2.3852891720032794" fill="#CFAE58" opacity="0.16586333201723785"/>
  <circle cx="679.0351823601947" cy="64.68612523864405" r="5.931762906190831" fill="#CFAE58" opacity="0.10994074836716218"/>
  <circle cx="526.4935406029417" cy="317.60467354425305" r="5.041209317716212" fill="#CFAE58" opacity="0.15269090716637568"/>
  <circle cx="276.34171940787803" cy="401.853170789385" r="3.5722651428563887" fill="#CFAE58" opacity="0.20209545040871646"/>
  <circle cx="134.61167854431412" cy="1.534608395205812" r="4.254629873466051" fill="#CFAE58" opacity="0.1248448859922518"/>
  <circle cx="174.89942873952725" cy="548.0162508047383" r="4.977985034634907" fill="#CFAE58" opacity="0.1854996313685877"/>
  <circle cx="122.34795693185498" cy="58.747869055773855" r="5.661425545013926" fill="#CFAE58" opacity="0.22996075378813174"/>
  <circle cx="63.495716123435386" cy="54.24890494318336" r="3.4040461822522934" fill="#CFAE58" opacity="0.12754471978340995"/>
  <circle cx="510.90575726096057" cy="8.089765220362072" r="5.782983596754045" fill="#CFAE58" opacity="0.1706720865645972"/>
  <circle cx="573.6986075819336" cy="355.05253685414044" r="5.95100073324772" fill="#CFAE58" opacity="0.10408463625169055"/>
  <circle cx="1006.5480958419104" cy="387.26340052990554" r="3.0889630584751737" fill="#CFAE58" opacity="0.1364964586668"/>
  <circle cx="643.074266677187" cy="35.80959410968782" r="3.9384565273257612" fill="#CFAE58" opacity="0.1405714729624787"/>
  <circle cx="140.35222200481607" cy="209.80040828481376" r="2.1101190144953677" fill="#CFAE58" opacity="0.189461752042614"/>
  <circle cx="1128.2886648933481" cy="213.99591264911555" r="3.967729500797194" fill="#CFAE58" opacity="0.24379874829490605"/>
  <circle cx="962.6740369148107" cy="366.48935501110316" r="3.6909428640110846" fill="#CFAE58" opacity="0.12451041608607577"/>
  <circle cx="691.4172417049082" cy="383.7440398943483" r="5.237232579394357" fill="#CFAE58" opacity="0.21293928468318343"/>
  <circle cx="846.502328230537" cy="74.75585656351083" r="4.442405325643298" fill="#CFAE58" opacity="0.18347599592152197"/>
  <circle cx="651.4003653900526" cy="563.4034982121062" r="5.289229744157032" fill="#CFAE58" opacity="0.19400042151961536"/>
  <circle cx="201.85337320449196" cy="417.1408576802088" r="2.533898175970502" fill="#CFAE58" opacity="0.20287219539047702"/>
  <circle cx="464.01313801155874" cy="527.1471199145466" r="5.263865657460299" fill="#CFAE58" opacity="0.10430195938099192"/>
  <circle cx="951.2356445315546" cy="307.3480744943319" r="4.242724525761792" fill="#CFAE58" opacity="0.13083771074676245"/>
  <circle cx="603.6880350921598" cy="562.5871740835095" r="5.043596578007382" fill="#CFAE58" opacity="0.13235049965346252"/>
  <circle cx="527.1030695500817" cy="257.5504014309737" r="4.735151156504124" fill="#CFAE58" opacity="0.14723784191599648"/>
  <circle cx="64.87511821309626" cy="435.68236248869243" r="5.064570652297292" fill="#CFAE58" opacity="0.1482044128305522"/>
  <circle cx="721.0227100382965" cy="517.8761713182643" r="5.470606129147168" fill="#CFAE58" opacity="0.19406098739108402"/>
  <circle cx="713.4292460989983" cy="619.899759370513" r="4.782991800074064" fill="#CFAE58" opacity="0.19924813289722093"/>

  <!-- Border with glow -->
  <rect x="40" y="40" width="1120" height="550" fill="none" stroke="url(#goldGradient)" stroke-width="3" rx="12" filter="url(#softGlow)"/>

  <!-- Icon circle with premium background -->
  <circle cx="150" cy="200" r="75" fill="#CFAE58" opacity="0.15" filter="url(#softGlow)"/>
  <circle cx="150" cy="200" r="70" fill="#CFAE58" opacity="0.25"/>
  <text x="150" y="235" font-size="90" text-anchor="middle" fill="#CFAE58" filter="url(#glow)">🔬</text>

  <!-- Premium logo (crown) with enhanced styling -->
  <g transform="translate(100, 70)">
    <path d="M 30 20 L 40 35 L 35 35 Z M 50 15 L 60 35 L 45 35 Z M 65 20 L 75 35 L 70 35 Z M 30 35 L 75 35 L 73 45 L 32 45 Z"
          fill="url(#goldGradient)" filter="url(#glow)" stroke="#B89842" stroke-width="0.5"/>
    <circle cx="40" cy="25" r="3" fill="#4FD1C5" filter="url(#glow)"/>
    <circle cx="52" cy="20" r="4" fill="#4FD1C5" filter="url(#glow)"/>
    <circle cx="65" cy="25" r="3" fill="#4FD1C5" filter="url(#glow)"/>
  </g>

  <!-- Title with shadow -->
  <text x="280" y="180" font-family="Georgia, serif" font-size="72" font-weight="bold"
        fill="url(#goldGradient)" filter="url(#shadow)">Our Science</text>

  <!-- Subtitle with subtle glow -->
  <text x="280" y="230" font-family="Arial, sans-serif" font-size="36"
        fill="#D6DEE6" opacity="0.95" filter="url(#softGlow)">Advanced Aquaculture Methodology</text>

  <!-- Brand name with letter spacing -->
  <text x="280" y="300" font-family="Georgia, serif" font-size="32" font-weight="bold"
        fill="#CFAE58" letter-spacing="4" filter="url(#glow)">ROYAL KETA</text>

  <!-- Russian tagline -->
  <text x="280" y="340" font-family="Arial, sans-serif" font-size="22" font-style="italic"
        fill="#8B95A1" opacity="0.8">От икринки к королевской</text>

  <!-- Location -->
  <text x="280" y="380" font-family="Arial, sans-serif" font-size="20"
        fill="#8B95A1" opacity="0.7">Невельский район, Сахалин</text>

  <!-- Website with glow -->
  <text x="100" y="570" font-family="Arial, sans-serif" font-size="30" font-weight="bold"
        fill="#4FD1C5" filter="url(#glow)">royalketa.com</text>

  <!-- Enhanced decorative salmon silhouette -->
  <g transform="translate(950, 480)" opacity="0.2" filter="url(#softGlow)">
    <ellipse cx="0" cy="0" rx="90" ry="35" fill="#CFAE58"/>
    <path d="M 90 0 L 120 -18 L 130 0 L 120 18 Z" fill="#CFAE58"/>
    <path d="M -25 -35 L 0 -45 L 25 -35 Z" fill="#CFAE58"/>
    <ellipse cx="-50" cy="0" rx="15" ry="12" fill="#0B0F14"/>
  </g>

  <!-- Additional decorative caviar clusters -->
  <g opacity="0.2">
    <circle cx="1050" cy="120" r="6" fill="#CFAE58"/>
    <circle cx="1065" cy="115" r="5" fill="#CFAE58"/>
    <circle cx="1058" cy="130" r="4" fill="#CFAE58"/>
    <circle cx="150" cy="500" r="5" fill="#4FD1C5"/>
    <circle cx="165" cy="508" r="4" fill="#4FD1C5"/>
    <circle cx="140" cy="512" r="5" fill="#4FD1C5"/>
  </g>
</svg>