<svg width="1200" height="630" xmlns="http://www.w3.org/2000/svg">
  <defs>
    <linearGradient id="bgGradient" x1="0%" y1="0%" x2="100%" y2="100%">
      <stop offset="0%" style="stop-color:#0B0F14;stop-opacity:1" />
      <stop offset="50%" style="stop-color:#0F1619;stop-opacity:1" />
      <stop offset="100%" style="stop-color:#0F1922;stop-opacity:1" />
    </linearGradient>
    <linearGradient id="goldGradient" x1="0%" y1="0%" x2="100%" y2="0%">
      <stop offset="0%" style="stop-color:#E5D596;stop-opacity:1" />
      <stop offset="50%" style="stop-color:#CFAE58;stop-opacity:1" />
      <stop offset="100%" style="stop-color:#B89842;stop-opacity:1" />
    </linearGradient>
    <radialGradient id="oceanGradient" cx="50%" cy="50%" r="50%">
      <stop offset="0%" style="stop-color:#4FD1C5;stop-opacity:0.3" />
      <stop offset="100%" style="stop-color:#1E90A0;stop-opacity:0.05" />
    </radialGradient>
    <filter id="glow">
      <feGaussianBlur stdDeviation="5" result="coloredBlur"/>
      <feMerge>
        <feMergeNode in="coloredBlur"/>
        <feMergeNode in="SourceGraphic"/>
      </feMerge>
    </filter>
    <filter id="softGlow">
      <feGaussianBlur stdDeviation="8" result="coloredBlur"/>
      <feMerge>
        <feMergeNode in="coloredBlur"/>
        <feMergeNode in="SourceGraphic"/>
      </feMerge>
    </filter>
    <filter id="shadow">
      <feDropShadow dx="0" dy="4" stdDeviation="8" flood-color="#000000" flood-opacity="0.5"/>
    </filter>
  </defs>

  <!-- Background -->
  <rect width="1200" height="630" fill="url(#bgGradient)"/>

  <!-- Decorative ocean gradients -->
  <ellipse cx="1000" cy="150" rx="300" ry="200" fill="url(#oceanGradient)" opacity="0.4"/>
  <ellipse cx="200" cy="530" rx="250" ry="180" fill="url(#oceanGradient)" opacity="0.3"/>

  <!-- Wave patterns -->
  <path d="M 0 400 Q 300 350 600 400 T 1200 400 L 1200 630 L 0 630 Z" fill="#1E90A0" opacity="0.08"/>
  <path d="M 0 450 Q 250 420 500 450 T 1000 450 T 1200 450 L 1200 630 L 0 630 Z" fill="#4FD1C5" opacity="0.05"/>

  <!-- Caviar roe particles -->
  <circle cx="793.3061756439164" cy="406.97904258843084" r="2.8981772459122324" fill="#CFAE58" opacity="0.23478853959145798"/>
  <circle cx="1176.677247397856" cy="154.4170794312603" r="3.869592044721222" fill="#CFAE58" opacity="0.16405893221702994"/>
  <circle cx="960.4340795780889" cy="433.27040238461586" r="2.5223595453847283" fill="#CFAE58" opacity="0.22894346658908593"/>
  <circle cx="379.04186414709733" cy="229.8925394931203" r="5.8734469307864785" fill="#CFAE58" opacity="0.18344320316516594"/>
  <circle cx="920.2124483751898" cy="224.11523554706565" r="2.0960610387547023" fill="#CFAE58" opacity="0.2494380527811193"/>
  <circle cx="623.3350026430013" cy="33.10418029489636" r="3.4730681624437656" fill="#CFAE58" opacity="0.216079454113474"/>
  <circle cx="1141.4453632413565" cy="609.2739734077069" r="3.9048268757285767" fill="#CFAE58" opacity="0.14214753128478866"/>
  <circle cx="1147.6382435235043" cy="134.2351375829427" r="5.990815276675725" fill="#CFAE58" opacity="0.11715719397166076"/>
  <circle cx="608.0082019311931" cy="434.1652488323624" r="2.427362521183455" fill="#CFAE58" opacity="0.1477120991571216"/>
  <circle cx="521.1552350427685" cy="501.618036553586" r="3.5100015482788187" fill="#CFAE58" opacity="0.10530930104245098"/>
  <circle cx="772.2538663491277" cy="289.95562344855534" r="3.224730311052318" fill="#CFAE58" opacity="0.1979719509741022"/>
  <circle cx="391.91575952304964" cy="628.8661155019106" r="4.703347208110623" fill="#CFAE58" opacity="0.16865477242742544"/>
  <circle cx="1113.6842551141413" cy="98.11003696476652" r="4.383930360620769" fill="#CFAE58" opacity="0.11702250779568335"/>
  <circle cx="114.02487035756562" cy="229.59127029965995" r="5.0497195836409245" fill="#CFAE58" opacity="0.17807329488147502"/>
  <circle cx="695.9244950123976" cy="292.26835189033994" r="2.478615276662987" fill="#CFAE58" opacity="0.22048986519805241"/>
  <circle cx="608.4473595801026" cy="65.13946674668266" r="2.8359540369526295" fill="#CFAE58" opacity="0.2075379776143903"/>
  <circle cx="759.8024547783808" cy="469.05572901806005" r="5.130688110045037" fill="#CFAE58" opacity="0.14493301322815155"/>
  <circle cx="876.1552680878065" cy="599.039037554472" r="3.782342068059875" fill="#CFAE58" opacity="0.21282582147670476"/>
  <circle cx="1111.1517009769148" cy="312.3115283622779" r="3.9108371318473054" fill="#CFAE58" opacity="0.18639024364466372"/>
  <circle cx="1154.25025766243" cy="324.6529087500941" r="5.166238187716267" fill="#CFAE58" opacity="0.2262233010126903"/>
  <circle cx="1193.8664338650126" cy="603.59530430957" r="4.683394253781605" fill="#CFAE58" opacity="0.11400948677223738"/>
  <circle cx="917.2059774390533" cy="422.6982717242633" r="5.092406119228862" fill="#CFAE58" opacity="0.1741616678003559"/>
  <circle cx="882.7428857772203" cy="497.9650129272166" r="2.5852276449800096" fill="#CFAE58" opacity="0.2394595981473676"/>
  <circle cx="908.7555944878021" cy="94.46146058799813" r="2.232104259360767" fill="#CFAE58" opacity="0.17339667086374091"/>
  <circle cx="11.878744364050942" cy="177.48026340059187" r="4.949626904564929" fill="#CFAE58" opacity="0.11567625874422813"/>
  <circle cx="489.43087668995406" cy="188.12017019561327" r="4.466290343200527" fill="#CFAE58" opacity="0.1973343157946023"/>
  <circle cx="929.7904001040449" cy="295.145405321044" r="5.653999970171515" fill="#CFAE58" opacity="0.22177930450227779"/>
  <circle cx="212.51865067902588" cy="275.24975751006957" r="5.62012893938473" fill="#CFAE58" opacity="0.23207113880587316"/>
  <circle cx="1108.765971496738" cy="58.5930459853617" r="5.144857976610471" fill="#CFAE58" opacity="0.23500278989745452"/>
  <circle cx="44.474337083124205" cy="292.77267560953715" r="5.209820126930076" fill="#CFAE58" opacity="0.2239878369498635"/>

  <!-- Border with glow -->
  <rect x="40" y="40" width="1120" height="550" fill="none" stroke="url(#goldGradient)" stroke-width="3" rx="12" filter="url(#softGlow)"/>

  <!-- Icon circle with premium background -->
  <circle cx="150" cy="200" r="75" fill="#CFAE58" opacity="0.15" filter="url(#softGlow)"/>
  <circle cx="150" cy="200" r="70" fill="#CFAE58" opacity="0.25"/>
  <text x="150" y="235" font-size="90" text-anchor="middle" fill="#CFAE58" filter="url(#glow)">🔬</text>

  <!-- Premium logo (crown) with enhanced styling -->
  <g transform="translate(100, 70)">
    <path d="M 30 20 L 40 35 L 35 35 Z M 50 15 L 60 35 L 45 35 Z M 65 20 L 75 35 L 70 35 Z M 30 35 L 75 35 L 73 45 L 32 45 Z"
          fill="url(#goldGradient)" filter="url(#glow)" stroke="#B89842" stroke-width="0.5"/>
    <circle cx="40" cy="25" r="3" fill="#4FD1C5" filter="url(#glow)"/>
    <circle cx="52" cy="20" r="4" fill="#4FD1C5" filter="url(#glow)"/>
    <circle cx="65" cy="25" r="3" fill="#4FD1C5" filter="url(#glow)"/>
  </g>

  <!-- Title with shadow -->
  <text x="280" y="180" font-family="Georgia, serif" font-size="72" font-weight="bold"
        fill="url(#goldGradient)" filter="url(#shadow)">Our Science</text>

  <!-- Subtitle with subtle glow -->
  <text x="280" y="230" font-family="Arial, sans-serif" font-size="36"
        fill="#D6DEE6" opacity="0.95" filter="url(#softGlow)">Advanced Aquaculture Methodology</text>

  <!-- Brand name with letter spacing -->
  <text x="280" y="300" font-family="Georgia, serif" font-size="32" font-weight="bold"
        fill="#CFAE58" letter-spacing="4" filter="url(#glow)">ROYAL KETA</text>

  <!-- Russian tagline -->
  <text x="280" y="340" font-family="Arial, sans-serif" font-size="22" font-style="italic"
        fill="#8B95A1" opacity="0.8">От икринки к королевской</text>

  <!-- Location -->
  <text x="280" y="380" font-family="Arial, sans-serif" font-size="20"
        fill="#8B95A1" opacity="0.7">Невельский район, Сахалин</text>

  <!-- Website with glow -->
  <text x="100" y="570" font-family="Arial, sans-serif" font-size="30" font-weight="bold"
        fill="#4FD1C5" filter="url(#glow)">royalketa.com</text>

  <!-- Enhanced decorative salmon silhouette -->
  <g transform="translate(950, 480)" opacity="0.2" filter="url(#softGlow)">
    <ellipse cx="0" cy="0" rx="90" ry="35" fill="#CFAE58"/>
    <path d="M 90 0 L 120 -18 L 130 0 L 120 18 Z" fill="#CFAE58"/>
    <path d="M -25 -35 L 0 -45 L 25 -35 Z" fill="#CFAE58"/>
    <ellipse cx="-50" cy="0" rx="15" ry="12" fill="#0B0F14"/>
  </g>

  <!-- Additional decorative caviar clusters -->
  <g opacity="0.2">
    <circle cx="1050" cy="120" r="6" fill="#CFAE58"/>
    <circle cx="1065" cy="115" r="5" fill="#CFAE58"/>
    <circle cx="1058" cy="130" r="4" fill="#CFAE58"/>
    <circle cx="150" cy="500" r="5" fill="#4FD1C5"/>
    <circle cx="165" cy="508" r="4" fill="#4FD1C5"/>
    <circle cx="140" cy="512" r="5" fill="#4FD1C5"/>
  </g>
</svg>