<svg width="1200" height="630" xmlns="http://www.w3.org/2000/svg">
  <defs>
    <linearGradient id="bgGradient" x1="0%" y1="0%" x2="100%" y2="100%">
      <stop offset="0%" style="stop-color:#0B0F14;stop-opacity:1" />
      <stop offset="50%" style="stop-color:#0F1619;stop-opacity:1" />
      <stop offset="100%" style="stop-color:#0F1922;stop-opacity:1" />
    </linearGradient>
    <linearGradient id="goldGradient" x1="0%" y1="0%" x2="100%" y2="0%">
      <stop offset="0%" style="stop-color:#E5D596;stop-opacity:1" />
      <stop offset="50%" style="stop-color:#CFAE58;stop-opacity:1" />
      <stop offset="100%" style="stop-color:#B89842;stop-opacity:1" />
    </linearGradient>
    <radialGradient id="oceanGradient" cx="50%" cy="50%" r="50%">
      <stop offset="0%" style="stop-color:#4FD1C5;stop-opacity:0.3" />
      <stop offset="100%" style="stop-color:#1E90A0;stop-opacity:0.05" />
    </radialGradient>
    <filter id="glow">
      <feGaussianBlur stdDeviation="5" result="coloredBlur"/>
      <feMerge>
        <feMergeNode in="coloredBlur"/>
        <feMergeNode in="SourceGraphic"/>
      </feMerge>
    </filter>
    <filter id="softGlow">
      <feGaussianBlur stdDeviation="8" result="coloredBlur"/>
      <feMerge>
        <feMergeNode in="coloredBlur"/>
        <feMergeNode in="SourceGraphic"/>
      </feMerge>
    </filter>
    <filter id="shadow">
      <feDropShadow dx="0" dy="4" stdDeviation="8" flood-color="#000000" flood-opacity="0.5"/>
    </filter>
  </defs>

  <!-- Background -->
  <rect width="1200" height="630" fill="url(#bgGradient)"/>

  <!-- Decorative ocean gradients -->
  <ellipse cx="1000" cy="150" rx="300" ry="200" fill="url(#oceanGradient)" opacity="0.4"/>
  <ellipse cx="200" cy="530" rx="250" ry="180" fill="url(#oceanGradient)" opacity="0.3"/>

  <!-- Wave patterns -->
  <path d="M 0 400 Q 300 350 600 400 T 1200 400 L 1200 630 L 0 630 Z" fill="#1E90A0" opacity="0.08"/>
  <path d="M 0 450 Q 250 420 500 450 T 1000 450 T 1200 450 L 1200 630 L 0 630 Z" fill="#4FD1C5" opacity="0.05"/>

  <!-- Caviar roe particles -->
  <circle cx="290.8130623482478" cy="291.51913782634546" r="2.8317849585215322" fill="#CFAE58" opacity="0.19319841016013817"/>
  <circle cx="916.7836779501043" cy="337.5922019392797" r="2.971080997235757" fill="#CFAE58" opacity="0.21951191106340195"/>
  <circle cx="502.2064620343651" cy="472.2751542174676" r="4.940390305393737" fill="#CFAE58" opacity="0.15452144808088475"/>
  <circle cx="306.4688624406783" cy="35.51732353305411" r="3.1481714368892115" fill="#CFAE58" opacity="0.1487516715297349"/>
  <circle cx="578.2916706970138" cy="372.85930206996886" r="3.481860015614205" fill="#CFAE58" opacity="0.22163066911195334"/>
  <circle cx="771.9984356022982" cy="373.0467464768981" r="2.908753411947151" fill="#CFAE58" opacity="0.13215848100588307"/>
  <circle cx="239.36909429319132" cy="131.0785066880534" r="3.104407431538667" fill="#CFAE58" opacity="0.24109153471528444"/>
  <circle cx="441.27243623578363" cy="477.2209350109296" r="2.889988257066692" fill="#CFAE58" opacity="0.13624028745891784"/>
  <circle cx="620.4779871440963" cy="416.82564992956327" r="5.557536509939838" fill="#CFAE58" opacity="0.20099276722683024"/>
  <circle cx="959.812189930544" cy="467.199150865381" r="3.2569342282057603" fill="#CFAE58" opacity="0.10146364456759423"/>
  <circle cx="672.3124787530633" cy="247.54441078612933" r="5.654373172866472" fill="#CFAE58" opacity="0.20908471136541695"/>
  <circle cx="703.6641272770182" cy="101.18502768537057" r="2.9973242298353577" fill="#CFAE58" opacity="0.21556495716438465"/>
  <circle cx="1063.8778344378563" cy="415.20881927663487" r="3.742830346855169" fill="#CFAE58" opacity="0.1453899420521833"/>
  <circle cx="73.7935319157578" cy="264.24505383067253" r="5.852557931665255" fill="#CFAE58" opacity="0.16194087781068128"/>
  <circle cx="54.47825159359701" cy="447.7266658568898" r="2.2324164820491585" fill="#CFAE58" opacity="0.17151594915682594"/>
  <circle cx="5.505818498185722" cy="277.7690112012609" r="4.161407939442197" fill="#CFAE58" opacity="0.22991799985957057"/>
  <circle cx="592.5659411687789" cy="299.97721517057823" r="2.144916561966401" fill="#CFAE58" opacity="0.24232082680893785"/>
  <circle cx="936.1901142285706" cy="611.7495592157618" r="5.376366569161959" fill="#CFAE58" opacity="0.21211611553024856"/>
  <circle cx="936.7446366304439" cy="60.04486065976815" r="3.3318283754364666" fill="#CFAE58" opacity="0.1657418413143337"/>
  <circle cx="851.821884913228" cy="508.0284368116827" r="4.528531480611529" fill="#CFAE58" opacity="0.23022978953054846"/>
  <circle cx="288.96134812999287" cy="158.0637227092108" r="3.0091854278707864" fill="#CFAE58" opacity="0.13832730514268818"/>
  <circle cx="881.8141567792287" cy="541.3550418466342" r="4.966481615312809" fill="#CFAE58" opacity="0.2002652430845352"/>
  <circle cx="810.2755632939937" cy="235.8910389983774" r="5.959853199188395" fill="#CFAE58" opacity="0.1472709288421109"/>
  <circle cx="102.25578103437387" cy="561.3045331510357" r="5.846187606242065" fill="#CFAE58" opacity="0.22259112766777267"/>
  <circle cx="1054.962554981532" cy="250.78628913539941" r="3.4443921308814245" fill="#CFAE58" opacity="0.15738910458134978"/>
  <circle cx="1018.0971469867535" cy="455.56580955946777" r="5.180222831020348" fill="#CFAE58" opacity="0.15510389520436452"/>
  <circle cx="253.14712124593876" cy="43.03084360460901" r="4.78313235452325" fill="#CFAE58" opacity="0.12508476146107766"/>
  <circle cx="950.890491552988" cy="509.2731851831215" r="4.338163646974407" fill="#CFAE58" opacity="0.1761582110089086"/>
  <circle cx="446.5111675417748" cy="2.5295711277287714" r="5.176110068358671" fill="#CFAE58" opacity="0.18861171660059728"/>
  <circle cx="148.4105966100091" cy="592.2482116074661" r="2.0851072863732183" fill="#CFAE58" opacity="0.11364223155468811"/>

  <!-- Border with glow -->
  <rect x="40" y="40" width="1120" height="550" fill="none" stroke="url(#goldGradient)" stroke-width="3" rx="12" filter="url(#softGlow)"/>

  <!-- Icon circle with premium background -->
  <circle cx="150" cy="200" r="75" fill="#CFAE58" opacity="0.15" filter="url(#softGlow)"/>
  <circle cx="150" cy="200" r="70" fill="#CFAE58" opacity="0.25"/>
  <text x="150" y="235" font-size="90" text-anchor="middle" fill="#CFAE58" filter="url(#glow)">🔬</text>

  <!-- Premium logo (crown) with enhanced styling -->
  <g transform="translate(100, 70)">
    <path d="M 30 20 L 40 35 L 35 35 Z M 50 15 L 60 35 L 45 35 Z M 65 20 L 75 35 L 70 35 Z M 30 35 L 75 35 L 73 45 L 32 45 Z"
          fill="url(#goldGradient)" filter="url(#glow)" stroke="#B89842" stroke-width="0.5"/>
    <circle cx="40" cy="25" r="3" fill="#4FD1C5" filter="url(#glow)"/>
    <circle cx="52" cy="20" r="4" fill="#4FD1C5" filter="url(#glow)"/>
    <circle cx="65" cy="25" r="3" fill="#4FD1C5" filter="url(#glow)"/>
  </g>

  <!-- Title with shadow -->
  <text x="280" y="180" font-family="Georgia, serif" font-size="72" font-weight="bold"
        fill="url(#goldGradient)" filter="url(#shadow)">Our Science</text>

  <!-- Subtitle with subtle glow -->
  <text x="280" y="230" font-family="Arial, sans-serif" font-size="36"
        fill="#D6DEE6" opacity="0.95" filter="url(#softGlow)">Advanced Aquaculture Methodology</text>

  <!-- Brand name with letter spacing -->
  <text x="280" y="300" font-family="Georgia, serif" font-size="32" font-weight="bold"
        fill="#CFAE58" letter-spacing="4" filter="url(#glow)">ROYAL KETA</text>

  <!-- Russian tagline -->
  <text x="280" y="340" font-family="Arial, sans-serif" font-size="22" font-style="italic"
        fill="#8B95A1" opacity="0.8">От икринки к королевской</text>

  <!-- Location -->
  <text x="280" y="380" font-family="Arial, sans-serif" font-size="20"
        fill="#8B95A1" opacity="0.7">Невельский район, Сахалин</text>

  <!-- Website with glow -->
  <text x="100" y="570" font-family="Arial, sans-serif" font-size="30" font-weight="bold"
        fill="#4FD1C5" filter="url(#glow)">royalketa.com</text>

  <!-- Enhanced decorative salmon silhouette -->
  <g transform="translate(950, 480)" opacity="0.2" filter="url(#softGlow)">
    <ellipse cx="0" cy="0" rx="90" ry="35" fill="#CFAE58"/>
    <path d="M 90 0 L 120 -18 L 130 0 L 120 18 Z" fill="#CFAE58"/>
    <path d="M -25 -35 L 0 -45 L 25 -35 Z" fill="#CFAE58"/>
    <ellipse cx="-50" cy="0" rx="15" ry="12" fill="#0B0F14"/>
  </g>

  <!-- Additional decorative caviar clusters -->
  <g opacity="0.2">
    <circle cx="1050" cy="120" r="6" fill="#CFAE58"/>
    <circle cx="1065" cy="115" r="5" fill="#CFAE58"/>
    <circle cx="1058" cy="130" r="4" fill="#CFAE58"/>
    <circle cx="150" cy="500" r="5" fill="#4FD1C5"/>
    <circle cx="165" cy="508" r="4" fill="#4FD1C5"/>
    <circle cx="140" cy="512" r="5" fill="#4FD1C5"/>
  </g>
</svg>