<svg width="1200" height="630" xmlns="http://www.w3.org/2000/svg">
  <defs>
    <linearGradient id="bgGradient" x1="0%" y1="0%" x2="100%" y2="100%">
      <stop offset="0%" style="stop-color:#0B0F14;stop-opacity:1" />
      <stop offset="50%" style="stop-color:#0F1619;stop-opacity:1" />
      <stop offset="100%" style="stop-color:#0F1922;stop-opacity:1" />
    </linearGradient>
    <linearGradient id="goldGradient" x1="0%" y1="0%" x2="100%" y2="0%">
      <stop offset="0%" style="stop-color:#E5D596;stop-opacity:1" />
      <stop offset="50%" style="stop-color:#CFAE58;stop-opacity:1" />
      <stop offset="100%" style="stop-color:#B89842;stop-opacity:1" />
    </linearGradient>
    <radialGradient id="oceanGradient" cx="50%" cy="50%" r="50%">
      <stop offset="0%" style="stop-color:#4FD1C5;stop-opacity:0.3" />
      <stop offset="100%" style="stop-color:#1E90A0;stop-opacity:0.05" />
    </radialGradient>
    <filter id="glow">
      <feGaussianBlur stdDeviation="5" result="coloredBlur"/>
      <feMerge>
        <feMergeNode in="coloredBlur"/>
        <feMergeNode in="SourceGraphic"/>
      </feMerge>
    </filter>
    <filter id="softGlow">
      <feGaussianBlur stdDeviation="8" result="coloredBlur"/>
      <feMerge>
        <feMergeNode in="coloredBlur"/>
        <feMergeNode in="SourceGraphic"/>
      </feMerge>
    </filter>
    <filter id="shadow">
      <feDropShadow dx="0" dy="4" stdDeviation="8" flood-color="#000000" flood-opacity="0.5"/>
    </filter>
  </defs>

  <!-- Background -->
  <rect width="1200" height="630" fill="url(#bgGradient)"/>

  <!-- Decorative ocean gradients -->
  <ellipse cx="1000" cy="150" rx="300" ry="200" fill="url(#oceanGradient)" opacity="0.4"/>
  <ellipse cx="200" cy="530" rx="250" ry="180" fill="url(#oceanGradient)" opacity="0.3"/>

  <!-- Wave patterns -->
  <path d="M 0 400 Q 300 350 600 400 T 1200 400 L 1200 630 L 0 630 Z" fill="#1E90A0" opacity="0.08"/>
  <path d="M 0 450 Q 250 420 500 450 T 1000 450 T 1200 450 L 1200 630 L 0 630 Z" fill="#4FD1C5" opacity="0.05"/>

  <!-- Caviar roe particles -->
  <circle cx="488.1063326720203" cy="365.28746358435205" r="2.6079825659353713" fill="#CFAE58" opacity="0.18777405894087254"/>
  <circle cx="239.90457060048098" cy="559.703409813388" r="3.45642068510064" fill="#CFAE58" opacity="0.17195356073225745"/>
  <circle cx="815.3987702215919" cy="341.0295034081692" r="5.316851115139964" fill="#CFAE58" opacity="0.19851068790025642"/>
  <circle cx="362.80191311968014" cy="395.5747701791437" r="4.208225430075997" fill="#CFAE58" opacity="0.11007577605973136"/>
  <circle cx="922.0551396323633" cy="25.535433520510058" r="4.291313343567353" fill="#CFAE58" opacity="0.11232054031627198"/>
  <circle cx="69.46628621851167" cy="397.63589958895994" r="4.1980314923651365" fill="#CFAE58" opacity="0.13149564440610575"/>
  <circle cx="1173.7883465452423" cy="525.067925016647" r="5.0907034482377975" fill="#CFAE58" opacity="0.15351617269550216"/>
  <circle cx="531.3548950961128" cy="613.7498987063715" r="4.1833572453104" fill="#CFAE58" opacity="0.12766000092452323"/>
  <circle cx="1027.5815247070743" cy="599.2573593241588" r="3.6938554139227935" fill="#CFAE58" opacity="0.13743209764682635"/>
  <circle cx="535.3270242317386" cy="322.55267844203354" r="2.2187671645254614" fill="#CFAE58" opacity="0.23675994382692606"/>
  <circle cx="322.58042900572804" cy="164.04331904151246" r="3.846887797662513" fill="#CFAE58" opacity="0.13045163802254298"/>
  <circle cx="999.5306348089725" cy="440.7414795500366" r="5.042762109306409" fill="#CFAE58" opacity="0.20797360757493155"/>
  <circle cx="2.6589600863202723" cy="120.28617086700584" r="3.851134430682673" fill="#CFAE58" opacity="0.24322217760819986"/>
  <circle cx="1187.6324411246867" cy="619.5898280052727" r="3.405567823773334" fill="#CFAE58" opacity="0.11202934468478022"/>
  <circle cx="1036.346850019859" cy="545.56224221517" r="2.044561867573674" fill="#CFAE58" opacity="0.16163166842454574"/>
  <circle cx="482.58934748893034" cy="206.25111777737925" r="5.2065896839218295" fill="#CFAE58" opacity="0.13754715092163083"/>
  <circle cx="268.78290724833073" cy="22.788187937132804" r="4.70512037949097" fill="#CFAE58" opacity="0.1406792201842329"/>
  <circle cx="555.3632666647724" cy="403.213251396142" r="3.1830747687873737" fill="#CFAE58" opacity="0.22306983878808953"/>
  <circle cx="423.76052356796214" cy="459.55560982981604" r="4.362852319864183" fill="#CFAE58" opacity="0.14062562124891054"/>
  <circle cx="282.76947936961477" cy="49.89477382512225" r="3.8778864447665358" fill="#CFAE58" opacity="0.19047909905305616"/>
  <circle cx="3.946118557152234" cy="40.33397500493453" r="4.6740525878842165" fill="#CFAE58" opacity="0.12040175080080949"/>
  <circle cx="1044.2898760893124" cy="361.5836838542744" r="3.152998458472902" fill="#CFAE58" opacity="0.2039157584188489"/>
  <circle cx="1027.6229580856664" cy="71.5367274210323" r="4.66036244559869" fill="#CFAE58" opacity="0.22292630793066423"/>
  <circle cx="126.02439601885584" cy="215.22655901874688" r="5.514017905007407" fill="#CFAE58" opacity="0.23423258642649272"/>
  <circle cx="46.905049653433295" cy="229.3122933614372" r="2.5152528133922964" fill="#CFAE58" opacity="0.17734108554393577"/>
  <circle cx="1138.6906127958075" cy="628.8609720422186" r="5.316789077860008" fill="#CFAE58" opacity="0.14012508576558277"/>
  <circle cx="399.74066325478" cy="95.23329576612954" r="5.530290398790248" fill="#CFAE58" opacity="0.22674369432869623"/>
  <circle cx="1179.4958722528672" cy="17.0649541684149" r="3.717131407305893" fill="#CFAE58" opacity="0.1338701007957997"/>
  <circle cx="435.311227084954" cy="26.993290824469515" r="5.882693615422525" fill="#CFAE58" opacity="0.14967752664287456"/>
  <circle cx="969.8613716204926" cy="45.9304554439836" r="4.136727490571314" fill="#CFAE58" opacity="0.12510003490020175"/>

  <!-- Border with glow -->
  <rect x="40" y="40" width="1120" height="550" fill="none" stroke="url(#goldGradient)" stroke-width="3" rx="12" filter="url(#softGlow)"/>

  <!-- Icon circle with premium background -->
  <circle cx="150" cy="200" r="75" fill="#CFAE58" opacity="0.15" filter="url(#softGlow)"/>
  <circle cx="150" cy="200" r="70" fill="#CFAE58" opacity="0.25"/>
  <text x="150" y="235" font-size="90" text-anchor="middle" fill="#CFAE58" filter="url(#glow)">🔬</text>

  <!-- Premium logo (crown) with enhanced styling -->
  <g transform="translate(100, 70)">
    <path d="M 30 20 L 40 35 L 35 35 Z M 50 15 L 60 35 L 45 35 Z M 65 20 L 75 35 L 70 35 Z M 30 35 L 75 35 L 73 45 L 32 45 Z"
          fill="url(#goldGradient)" filter="url(#glow)" stroke="#B89842" stroke-width="0.5"/>
    <circle cx="40" cy="25" r="3" fill="#4FD1C5" filter="url(#glow)"/>
    <circle cx="52" cy="20" r="4" fill="#4FD1C5" filter="url(#glow)"/>
    <circle cx="65" cy="25" r="3" fill="#4FD1C5" filter="url(#glow)"/>
  </g>

  <!-- Title with shadow -->
  <text x="280" y="180" font-family="Georgia, serif" font-size="72" font-weight="bold"
        fill="url(#goldGradient)" filter="url(#shadow)">Our Science</text>

  <!-- Subtitle with subtle glow -->
  <text x="280" y="230" font-family="Arial, sans-serif" font-size="36"
        fill="#D6DEE6" opacity="0.95" filter="url(#softGlow)">Advanced Aquaculture Methodology</text>

  <!-- Brand name with letter spacing -->
  <text x="280" y="300" font-family="Georgia, serif" font-size="32" font-weight="bold"
        fill="#CFAE58" letter-spacing="4" filter="url(#glow)">ROYAL KETA</text>

  <!-- Russian tagline -->
  <text x="280" y="340" font-family="Arial, sans-serif" font-size="22" font-style="italic"
        fill="#8B95A1" opacity="0.8">От икринки к королевской</text>

  <!-- Location -->
  <text x="280" y="380" font-family="Arial, sans-serif" font-size="20"
        fill="#8B95A1" opacity="0.7">Невельский район, Сахалин</text>

  <!-- Website with glow -->
  <text x="100" y="570" font-family="Arial, sans-serif" font-size="30" font-weight="bold"
        fill="#4FD1C5" filter="url(#glow)">royalketa.com</text>

  <!-- Enhanced decorative salmon silhouette -->
  <g transform="translate(950, 480)" opacity="0.2" filter="url(#softGlow)">
    <ellipse cx="0" cy="0" rx="90" ry="35" fill="#CFAE58"/>
    <path d="M 90 0 L 120 -18 L 130 0 L 120 18 Z" fill="#CFAE58"/>
    <path d="M -25 -35 L 0 -45 L 25 -35 Z" fill="#CFAE58"/>
    <ellipse cx="-50" cy="0" rx="15" ry="12" fill="#0B0F14"/>
  </g>

  <!-- Additional decorative caviar clusters -->
  <g opacity="0.2">
    <circle cx="1050" cy="120" r="6" fill="#CFAE58"/>
    <circle cx="1065" cy="115" r="5" fill="#CFAE58"/>
    <circle cx="1058" cy="130" r="4" fill="#CFAE58"/>
    <circle cx="150" cy="500" r="5" fill="#4FD1C5"/>
    <circle cx="165" cy="508" r="4" fill="#4FD1C5"/>
    <circle cx="140" cy="512" r="5" fill="#4FD1C5"/>
  </g>
</svg>