<svg width="1200" height="630" xmlns="http://www.w3.org/2000/svg">
  <defs>
    <linearGradient id="bgGradient" x1="0%" y1="0%" x2="100%" y2="100%">
      <stop offset="0%" style="stop-color:#0B0F14;stop-opacity:1" />
      <stop offset="50%" style="stop-color:#0F1619;stop-opacity:1" />
      <stop offset="100%" style="stop-color:#0F1922;stop-opacity:1" />
    </linearGradient>
    <linearGradient id="goldGradient" x1="0%" y1="0%" x2="100%" y2="0%">
      <stop offset="0%" style="stop-color:#E5D596;stop-opacity:1" />
      <stop offset="50%" style="stop-color:#CFAE58;stop-opacity:1" />
      <stop offset="100%" style="stop-color:#B89842;stop-opacity:1" />
    </linearGradient>
    <radialGradient id="oceanGradient" cx="50%" cy="50%" r="50%">
      <stop offset="0%" style="stop-color:#4FD1C5;stop-opacity:0.3" />
      <stop offset="100%" style="stop-color:#1E90A0;stop-opacity:0.05" />
    </radialGradient>
    <filter id="glow">
      <feGaussianBlur stdDeviation="5" result="coloredBlur"/>
      <feMerge>
        <feMergeNode in="coloredBlur"/>
        <feMergeNode in="SourceGraphic"/>
      </feMerge>
    </filter>
    <filter id="softGlow">
      <feGaussianBlur stdDeviation="8" result="coloredBlur"/>
      <feMerge>
        <feMergeNode in="coloredBlur"/>
        <feMergeNode in="SourceGraphic"/>
      </feMerge>
    </filter>
    <filter id="shadow">
      <feDropShadow dx="0" dy="4" stdDeviation="8" flood-color="#000000" flood-opacity="0.5"/>
    </filter>
  </defs>

  <!-- Background -->
  <rect width="1200" height="630" fill="url(#bgGradient)"/>

  <!-- Decorative ocean gradients -->
  <ellipse cx="1000" cy="150" rx="300" ry="200" fill="url(#oceanGradient)" opacity="0.4"/>
  <ellipse cx="200" cy="530" rx="250" ry="180" fill="url(#oceanGradient)" opacity="0.3"/>

  <!-- Wave patterns -->
  <path d="M 0 400 Q 300 350 600 400 T 1200 400 L 1200 630 L 0 630 Z" fill="#1E90A0" opacity="0.08"/>
  <path d="M 0 450 Q 250 420 500 450 T 1000 450 T 1200 450 L 1200 630 L 0 630 Z" fill="#4FD1C5" opacity="0.05"/>

  <!-- Caviar roe particles -->
  <circle cx="1143.063889525679" cy="514.5234538231962" r="2.8073191966544093" fill="#CFAE58" opacity="0.21388391486078706"/>
  <circle cx="540.2114168482314" cy="78.65962858606183" r="2.028910363222021" fill="#CFAE58" opacity="0.22031872557468674"/>
  <circle cx="701.0748407260428" cy="342.587225639678" r="3.73718425919482" fill="#CFAE58" opacity="0.14154846614350883"/>
  <circle cx="730.8640045147415" cy="609.7788387898435" r="5.935236260238758" fill="#CFAE58" opacity="0.2428448855777191"/>
  <circle cx="604.6255603581352" cy="471.61370440938254" r="3.8748909395761353" fill="#CFAE58" opacity="0.1462011133215258"/>
  <circle cx="442.6387887206472" cy="165.45909352755578" r="3.6726143180429243" fill="#CFAE58" opacity="0.11581375357641567"/>
  <circle cx="634.5930523593404" cy="479.4699304693148" r="3.295256181281092" fill="#CFAE58" opacity="0.21800119904757642"/>
  <circle cx="572.4297353612087" cy="70.27548349018413" r="4.333690620574776" fill="#CFAE58" opacity="0.15975299935221265"/>
  <circle cx="599.8621787963208" cy="16.953650841085455" r="3.234422307658854" fill="#CFAE58" opacity="0.1883524633362111"/>
  <circle cx="150.2786601566658" cy="314.54486666445746" r="5.835272153218476" fill="#CFAE58" opacity="0.23629077167123932"/>
  <circle cx="593.6844903692327" cy="296.37826520313627" r="3.2633692437285275" fill="#CFAE58" opacity="0.23020451002602102"/>
  <circle cx="1114.4287187551138" cy="312.29635602972496" r="5.297032476131546" fill="#CFAE58" opacity="0.18328856479529484"/>
  <circle cx="233.9716565637105" cy="41.96636558319652" r="5.055130905262393" fill="#CFAE58" opacity="0.217233707379968"/>
  <circle cx="1143.7136607771263" cy="360.8573158496956" r="2.1453954727788007" fill="#CFAE58" opacity="0.11948152297364026"/>
  <circle cx="54.16404828364261" cy="150.05095420334405" r="2.6626706665711564" fill="#CFAE58" opacity="0.21899382231197206"/>
  <circle cx="300.45113045375984" cy="466.06754230953277" r="5.157374962061562" fill="#CFAE58" opacity="0.12145884027241946"/>
  <circle cx="777.4050656703344" cy="228.4986526243025" r="5.817737604176148" fill="#CFAE58" opacity="0.14137225025985106"/>
  <circle cx="920.7431979301563" cy="175.49018103787148" r="2.4678056814260527" fill="#CFAE58" opacity="0.10161510728022807"/>
  <circle cx="692.2725032746802" cy="383.4738166847755" r="3.0054432305433214" fill="#CFAE58" opacity="0.22183539413807707"/>
  <circle cx="496.24427319432647" cy="2.1223522209628487" r="4.8479832993190755" fill="#CFAE58" opacity="0.18105970449785422"/>
  <circle cx="888.6337749831447" cy="521.5988037415269" r="5.586090825283051" fill="#CFAE58" opacity="0.20083569174644206"/>
  <circle cx="150.79671093027454" cy="52.671978163743574" r="2.8473696773284947" fill="#CFAE58" opacity="0.20771852577161354"/>
  <circle cx="649.1480891982623" cy="352.235550807726" r="4.528299161370816" fill="#CFAE58" opacity="0.18115265921921048"/>
  <circle cx="43.66423606236154" cy="442.802789059345" r="4.11159002334208" fill="#CFAE58" opacity="0.18875872444086828"/>
  <circle cx="170.23819017543383" cy="491.4468797369484" r="4.684105530698668" fill="#CFAE58" opacity="0.16510309600599243"/>
  <circle cx="448.2243928876228" cy="368.7318941163162" r="4.844240896884557" fill="#CFAE58" opacity="0.13965764719427584"/>
  <circle cx="467.81009496136073" cy="304.2077405929829" r="3.7760483808466883" fill="#CFAE58" opacity="0.19703328644479778"/>
  <circle cx="948.9840199792482" cy="468.5513562780744" r="3.282350134134957" fill="#CFAE58" opacity="0.11290732583293654"/>
  <circle cx="274.7133485356467" cy="133.59260988656428" r="4.597365697680288" fill="#CFAE58" opacity="0.197366175871579"/>
  <circle cx="37.963061055629325" cy="190.33602352210346" r="2.1239401150964423" fill="#CFAE58" opacity="0.11228733125058166"/>

  <!-- Border with glow -->
  <rect x="40" y="40" width="1120" height="550" fill="none" stroke="url(#goldGradient)" stroke-width="3" rx="12" filter="url(#softGlow)"/>

  <!-- Icon circle with premium background -->
  <circle cx="150" cy="200" r="75" fill="#CFAE58" opacity="0.15" filter="url(#softGlow)"/>
  <circle cx="150" cy="200" r="70" fill="#CFAE58" opacity="0.25"/>
  <text x="150" y="235" font-size="90" text-anchor="middle" fill="#CFAE58" filter="url(#glow)">🔬</text>

  <!-- Premium logo (crown) with enhanced styling -->
  <g transform="translate(100, 70)">
    <path d="M 30 20 L 40 35 L 35 35 Z M 50 15 L 60 35 L 45 35 Z M 65 20 L 75 35 L 70 35 Z M 30 35 L 75 35 L 73 45 L 32 45 Z"
          fill="url(#goldGradient)" filter="url(#glow)" stroke="#B89842" stroke-width="0.5"/>
    <circle cx="40" cy="25" r="3" fill="#4FD1C5" filter="url(#glow)"/>
    <circle cx="52" cy="20" r="4" fill="#4FD1C5" filter="url(#glow)"/>
    <circle cx="65" cy="25" r="3" fill="#4FD1C5" filter="url(#glow)"/>
  </g>

  <!-- Title with shadow -->
  <text x="280" y="180" font-family="Georgia, serif" font-size="72" font-weight="bold"
        fill="url(#goldGradient)" filter="url(#shadow)">Our Science</text>

  <!-- Subtitle with subtle glow -->
  <text x="280" y="230" font-family="Arial, sans-serif" font-size="36"
        fill="#D6DEE6" opacity="0.95" filter="url(#softGlow)">Advanced Aquaculture Methodology</text>

  <!-- Brand name with letter spacing -->
  <text x="280" y="300" font-family="Georgia, serif" font-size="32" font-weight="bold"
        fill="#CFAE58" letter-spacing="4" filter="url(#glow)">ROYAL KETA</text>

  <!-- Russian tagline -->
  <text x="280" y="340" font-family="Arial, sans-serif" font-size="22" font-style="italic"
        fill="#8B95A1" opacity="0.8">От икринки к королевской</text>

  <!-- Location -->
  <text x="280" y="380" font-family="Arial, sans-serif" font-size="20"
        fill="#8B95A1" opacity="0.7">Невельский район, Сахалин</text>

  <!-- Website with glow -->
  <text x="100" y="570" font-family="Arial, sans-serif" font-size="30" font-weight="bold"
        fill="#4FD1C5" filter="url(#glow)">royalketa.com</text>

  <!-- Enhanced decorative salmon silhouette -->
  <g transform="translate(950, 480)" opacity="0.2" filter="url(#softGlow)">
    <ellipse cx="0" cy="0" rx="90" ry="35" fill="#CFAE58"/>
    <path d="M 90 0 L 120 -18 L 130 0 L 120 18 Z" fill="#CFAE58"/>
    <path d="M -25 -35 L 0 -45 L 25 -35 Z" fill="#CFAE58"/>
    <ellipse cx="-50" cy="0" rx="15" ry="12" fill="#0B0F14"/>
  </g>

  <!-- Additional decorative caviar clusters -->
  <g opacity="0.2">
    <circle cx="1050" cy="120" r="6" fill="#CFAE58"/>
    <circle cx="1065" cy="115" r="5" fill="#CFAE58"/>
    <circle cx="1058" cy="130" r="4" fill="#CFAE58"/>
    <circle cx="150" cy="500" r="5" fill="#4FD1C5"/>
    <circle cx="165" cy="508" r="4" fill="#4FD1C5"/>
    <circle cx="140" cy="512" r="5" fill="#4FD1C5"/>
  </g>
</svg>