<svg width="1200" height="630" xmlns="http://www.w3.org/2000/svg">
  <defs>
    <linearGradient id="bgGradient" x1="0%" y1="0%" x2="100%" y2="100%">
      <stop offset="0%" style="stop-color:#0B0F14;stop-opacity:1" />
      <stop offset="50%" style="stop-color:#0F1619;stop-opacity:1" />
      <stop offset="100%" style="stop-color:#0F1922;stop-opacity:1" />
    </linearGradient>
    <linearGradient id="goldGradient" x1="0%" y1="0%" x2="100%" y2="0%">
      <stop offset="0%" style="stop-color:#E5D596;stop-opacity:1" />
      <stop offset="50%" style="stop-color:#CFAE58;stop-opacity:1" />
      <stop offset="100%" style="stop-color:#B89842;stop-opacity:1" />
    </linearGradient>
    <radialGradient id="oceanGradient" cx="50%" cy="50%" r="50%">
      <stop offset="0%" style="stop-color:#4FD1C5;stop-opacity:0.3" />
      <stop offset="100%" style="stop-color:#1E90A0;stop-opacity:0.05" />
    </radialGradient>
    <filter id="glow">
      <feGaussianBlur stdDeviation="5" result="coloredBlur"/>
      <feMerge>
        <feMergeNode in="coloredBlur"/>
        <feMergeNode in="SourceGraphic"/>
      </feMerge>
    </filter>
    <filter id="softGlow">
      <feGaussianBlur stdDeviation="8" result="coloredBlur"/>
      <feMerge>
        <feMergeNode in="coloredBlur"/>
        <feMergeNode in="SourceGraphic"/>
      </feMerge>
    </filter>
    <filter id="shadow">
      <feDropShadow dx="0" dy="4" stdDeviation="8" flood-color="#000000" flood-opacity="0.5"/>
    </filter>
  </defs>

  <!-- Background -->
  <rect width="1200" height="630" fill="url(#bgGradient)"/>

  <!-- Decorative ocean gradients -->
  <ellipse cx="1000" cy="150" rx="300" ry="200" fill="url(#oceanGradient)" opacity="0.4"/>
  <ellipse cx="200" cy="530" rx="250" ry="180" fill="url(#oceanGradient)" opacity="0.3"/>

  <!-- Wave patterns -->
  <path d="M 0 400 Q 300 350 600 400 T 1200 400 L 1200 630 L 0 630 Z" fill="#1E90A0" opacity="0.08"/>
  <path d="M 0 450 Q 250 420 500 450 T 1000 450 T 1200 450 L 1200 630 L 0 630 Z" fill="#4FD1C5" opacity="0.05"/>

  <!-- Caviar roe particles -->
  <circle cx="764.9450044327235" cy="77.17470950666313" r="5.039987800434736" fill="#CFAE58" opacity="0.24483918251125725"/>
  <circle cx="550.8548141792072" cy="353.9401642071184" r="4.279279432325303" fill="#CFAE58" opacity="0.10038464879474825"/>
  <circle cx="152.70290778519086" cy="195.23345640047677" r="3.600292223837822" fill="#CFAE58" opacity="0.18096456474702588"/>
  <circle cx="216.94475527320503" cy="238.7423879855017" r="3.935586073754787" fill="#CFAE58" opacity="0.22969474399458"/>
  <circle cx="1030.3898959009477" cy="327.2011555879104" r="4.921746205261577" fill="#CFAE58" opacity="0.19790021058511997"/>
  <circle cx="176.23861605607937" cy="144.4379643675087" r="5.674047924653548" fill="#CFAE58" opacity="0.1034148602924458"/>
  <circle cx="663.1990512154572" cy="110.52481582427785" r="3.4116535108348307" fill="#CFAE58" opacity="0.1993263638957227"/>
  <circle cx="514.9199891963067" cy="565.2619127616776" r="5.157076005628708" fill="#CFAE58" opacity="0.21337500690196082"/>
  <circle cx="302.58383229124433" cy="462.3418156100359" r="4.728186767146093" fill="#CFAE58" opacity="0.12386079267521542"/>
  <circle cx="1196.477004019214" cy="535.3232293671525" r="2.7114696711070554" fill="#CFAE58" opacity="0.2247539245220149"/>
  <circle cx="137.99255717569645" cy="128.46209338422918" r="3.251221405978766" fill="#CFAE58" opacity="0.16553289377642716"/>
  <circle cx="908.4548939333292" cy="50.65272439826731" r="5.395519755844709" fill="#CFAE58" opacity="0.21358341659255903"/>
  <circle cx="984.402149840297" cy="58.52326990949838" r="3.2884705507948504" fill="#CFAE58" opacity="0.10378578182632561"/>
  <circle cx="883.4604131833015" cy="354.7185282463428" r="4.5519902986184935" fill="#CFAE58" opacity="0.19766653630920666"/>
  <circle cx="120.61444909151797" cy="21.54354600931001" r="3.109446209819716" fill="#CFAE58" opacity="0.24306405307117693"/>
  <circle cx="1149.762479054081" cy="297.548468004979" r="5.293294607471241" fill="#CFAE58" opacity="0.1420509742977885"/>
  <circle cx="180.0869036925226" cy="281.4391659617094" r="3.8593846023428853" fill="#CFAE58" opacity="0.10749446816660689"/>
  <circle cx="50.11088036730467" cy="246.15295915281087" r="5.8545697182990555" fill="#CFAE58" opacity="0.17414909463126302"/>
  <circle cx="1081.0268543498769" cy="399.6554260078655" r="2.5298692678436567" fill="#CFAE58" opacity="0.20168866240501854"/>
  <circle cx="1193.217294053651" cy="354.0695504639683" r="3.0102120373249948" fill="#CFAE58" opacity="0.14240732540975506"/>
  <circle cx="348.3373412167567" cy="625.9265847250599" r="4.693499133846215" fill="#CFAE58" opacity="0.20631727403613537"/>
  <circle cx="771.3301764482889" cy="480.9457907901769" r="5.466934550553799" fill="#CFAE58" opacity="0.10563848775881676"/>
  <circle cx="798.4549273746575" cy="85.18919566572256" r="4.0882816564822955" fill="#CFAE58" opacity="0.12025385240565037"/>
  <circle cx="93.25829119643947" cy="417.82672236869706" r="5.800281660822291" fill="#CFAE58" opacity="0.1239936014208823"/>
  <circle cx="399.46869257205293" cy="371.96775294940664" r="2.9794793067407594" fill="#CFAE58" opacity="0.22930374367682593"/>
  <circle cx="1144.2924623138142" cy="55.31884128157174" r="5.235822285416113" fill="#CFAE58" opacity="0.1554064011119831"/>
  <circle cx="110.85756174041848" cy="72.4805221071115" r="2.3052278037449403" fill="#CFAE58" opacity="0.14796212384006824"/>
  <circle cx="1142.963174838992" cy="426.1125191819352" r="5.093069365302401" fill="#CFAE58" opacity="0.20416515793734016"/>
  <circle cx="1019.6203248829355" cy="383.864639972218" r="5.974683635157842" fill="#CFAE58" opacity="0.16962644592683945"/>
  <circle cx="434.7601644924227" cy="436.02900887939444" r="3.7783048681334677" fill="#CFAE58" opacity="0.13400549257010708"/>

  <!-- Border with glow -->
  <rect x="40" y="40" width="1120" height="550" fill="none" stroke="url(#goldGradient)" stroke-width="3" rx="12" filter="url(#softGlow)"/>

  <!-- Icon circle with premium background -->
  <circle cx="150" cy="200" r="75" fill="#CFAE58" opacity="0.15" filter="url(#softGlow)"/>
  <circle cx="150" cy="200" r="70" fill="#CFAE58" opacity="0.25"/>
  <text x="150" y="235" font-size="90" text-anchor="middle" fill="#CFAE58" filter="url(#glow)">🔬</text>

  <!-- Premium logo (crown) with enhanced styling -->
  <g transform="translate(100, 70)">
    <path d="M 30 20 L 40 35 L 35 35 Z M 50 15 L 60 35 L 45 35 Z M 65 20 L 75 35 L 70 35 Z M 30 35 L 75 35 L 73 45 L 32 45 Z"
          fill="url(#goldGradient)" filter="url(#glow)" stroke="#B89842" stroke-width="0.5"/>
    <circle cx="40" cy="25" r="3" fill="#4FD1C5" filter="url(#glow)"/>
    <circle cx="52" cy="20" r="4" fill="#4FD1C5" filter="url(#glow)"/>
    <circle cx="65" cy="25" r="3" fill="#4FD1C5" filter="url(#glow)"/>
  </g>

  <!-- Title with shadow -->
  <text x="280" y="180" font-family="Georgia, serif" font-size="72" font-weight="bold"
        fill="url(#goldGradient)" filter="url(#shadow)">Our Science</text>

  <!-- Subtitle with subtle glow -->
  <text x="280" y="230" font-family="Arial, sans-serif" font-size="36"
        fill="#D6DEE6" opacity="0.95" filter="url(#softGlow)">Advanced Aquaculture Methodology</text>

  <!-- Brand name with letter spacing -->
  <text x="280" y="300" font-family="Georgia, serif" font-size="32" font-weight="bold"
        fill="#CFAE58" letter-spacing="4" filter="url(#glow)">ROYAL KETA</text>

  <!-- Russian tagline -->
  <text x="280" y="340" font-family="Arial, sans-serif" font-size="22" font-style="italic"
        fill="#8B95A1" opacity="0.8">От икринки к королевской</text>

  <!-- Location -->
  <text x="280" y="380" font-family="Arial, sans-serif" font-size="20"
        fill="#8B95A1" opacity="0.7">Невельский район, Сахалин</text>

  <!-- Website with glow -->
  <text x="100" y="570" font-family="Arial, sans-serif" font-size="30" font-weight="bold"
        fill="#4FD1C5" filter="url(#glow)">royalketa.com</text>

  <!-- Enhanced decorative salmon silhouette -->
  <g transform="translate(950, 480)" opacity="0.2" filter="url(#softGlow)">
    <ellipse cx="0" cy="0" rx="90" ry="35" fill="#CFAE58"/>
    <path d="M 90 0 L 120 -18 L 130 0 L 120 18 Z" fill="#CFAE58"/>
    <path d="M -25 -35 L 0 -45 L 25 -35 Z" fill="#CFAE58"/>
    <ellipse cx="-50" cy="0" rx="15" ry="12" fill="#0B0F14"/>
  </g>

  <!-- Additional decorative caviar clusters -->
  <g opacity="0.2">
    <circle cx="1050" cy="120" r="6" fill="#CFAE58"/>
    <circle cx="1065" cy="115" r="5" fill="#CFAE58"/>
    <circle cx="1058" cy="130" r="4" fill="#CFAE58"/>
    <circle cx="150" cy="500" r="5" fill="#4FD1C5"/>
    <circle cx="165" cy="508" r="4" fill="#4FD1C5"/>
    <circle cx="140" cy="512" r="5" fill="#4FD1C5"/>
  </g>
</svg>