<svg width="1200" height="630" xmlns="http://www.w3.org/2000/svg">
  <defs>
    <linearGradient id="bgGradient" x1="0%" y1="0%" x2="100%" y2="100%">
      <stop offset="0%" style="stop-color:#0B0F14;stop-opacity:1" />
      <stop offset="50%" style="stop-color:#0F1619;stop-opacity:1" />
      <stop offset="100%" style="stop-color:#0F1922;stop-opacity:1" />
    </linearGradient>
    <linearGradient id="goldGradient" x1="0%" y1="0%" x2="100%" y2="0%">
      <stop offset="0%" style="stop-color:#E5D596;stop-opacity:1" />
      <stop offset="50%" style="stop-color:#CFAE58;stop-opacity:1" />
      <stop offset="100%" style="stop-color:#B89842;stop-opacity:1" />
    </linearGradient>
    <radialGradient id="oceanGradient" cx="50%" cy="50%" r="50%">
      <stop offset="0%" style="stop-color:#4FD1C5;stop-opacity:0.3" />
      <stop offset="100%" style="stop-color:#1E90A0;stop-opacity:0.05" />
    </radialGradient>
    <filter id="glow">
      <feGaussianBlur stdDeviation="5" result="coloredBlur"/>
      <feMerge>
        <feMergeNode in="coloredBlur"/>
        <feMergeNode in="SourceGraphic"/>
      </feMerge>
    </filter>
    <filter id="softGlow">
      <feGaussianBlur stdDeviation="8" result="coloredBlur"/>
      <feMerge>
        <feMergeNode in="coloredBlur"/>
        <feMergeNode in="SourceGraphic"/>
      </feMerge>
    </filter>
    <filter id="shadow">
      <feDropShadow dx="0" dy="4" stdDeviation="8" flood-color="#000000" flood-opacity="0.5"/>
    </filter>
  </defs>

  <!-- Background -->
  <rect width="1200" height="630" fill="url(#bgGradient)"/>

  <!-- Decorative ocean gradients -->
  <ellipse cx="1000" cy="150" rx="300" ry="200" fill="url(#oceanGradient)" opacity="0.4"/>
  <ellipse cx="200" cy="530" rx="250" ry="180" fill="url(#oceanGradient)" opacity="0.3"/>

  <!-- Wave patterns -->
  <path d="M 0 400 Q 300 350 600 400 T 1200 400 L 1200 630 L 0 630 Z" fill="#1E90A0" opacity="0.08"/>
  <path d="M 0 450 Q 250 420 500 450 T 1000 450 T 1200 450 L 1200 630 L 0 630 Z" fill="#4FD1C5" opacity="0.05"/>

  <!-- Caviar roe particles -->
  <circle cx="582.4695036315002" cy="425.65278546417966" r="3.8779395381310424" fill="#CFAE58" opacity="0.18771784166668493"/>
  <circle cx="560.9591391963818" cy="616.1769855338935" r="2.3358629210221955" fill="#CFAE58" opacity="0.2066788795204135"/>
  <circle cx="690.9334927973174" cy="294.2993252218759" r="3.446160183267404" fill="#CFAE58" opacity="0.14825278771530187"/>
  <circle cx="249.62171069217786" cy="433.45280762588527" r="2.640589560597508" fill="#CFAE58" opacity="0.10155091768628528"/>
  <circle cx="972.2835054841371" cy="308.360862534338" r="4.387076934592175" fill="#CFAE58" opacity="0.1352035078413793"/>
  <circle cx="523.5208217944837" cy="51.34497949036398" r="5.972847709788985" fill="#CFAE58" opacity="0.13863456850716704"/>
  <circle cx="86.42716586370582" cy="601.9917143577047" r="3.159770810682915" fill="#CFAE58" opacity="0.17197986425596404"/>
  <circle cx="430.74938078656606" cy="515.2480449161961" r="3.613968338710422" fill="#CFAE58" opacity="0.23591567253849086"/>
  <circle cx="668.4675772578743" cy="344.47919578936427" r="5.561891985297748" fill="#CFAE58" opacity="0.18336546837516107"/>
  <circle cx="272.2472680598542" cy="34.5995531840927" r="5.5318893605221" fill="#CFAE58" opacity="0.16742593565210612"/>
  <circle cx="479.4768284916295" cy="361.0991340141644" r="5.2087598921389375" fill="#CFAE58" opacity="0.1735765540826104"/>
  <circle cx="91.18404001438618" cy="352.2293312035019" r="5.669743758730316" fill="#CFAE58" opacity="0.16471703729293236"/>
  <circle cx="166.92261501922277" cy="273.03654985669823" r="5.0286166905021545" fill="#CFAE58" opacity="0.14338113478289202"/>
  <circle cx="159.2816826828579" cy="608.2900531349292" r="5.877874938713244" fill="#CFAE58" opacity="0.1372237716235255"/>
  <circle cx="289.6707026603286" cy="342.7166041490886" r="2.250260663311701" fill="#CFAE58" opacity="0.18540849163093104"/>
  <circle cx="655.6117114261798" cy="268.9835528917992" r="5.07669598324628" fill="#CFAE58" opacity="0.22123412019049324"/>
  <circle cx="316.557353098709" cy="311.63791179483366" r="2.0351401550407076" fill="#CFAE58" opacity="0.23468633172467815"/>
  <circle cx="256.9042420995726" cy="301.5270027317991" r="4.328604149282383" fill="#CFAE58" opacity="0.23763850369040437"/>
  <circle cx="957.1732095383858" cy="75.84935759074119" r="3.6711062045298792" fill="#CFAE58" opacity="0.16512548516171524"/>
  <circle cx="287.1603328249401" cy="259.16111416628706" r="2.589554521655116" fill="#CFAE58" opacity="0.12000742732670583"/>
  <circle cx="17.993844332738362" cy="447.63461184429707" r="4.52096180504853" fill="#CFAE58" opacity="0.15616844823338769"/>
  <circle cx="397.0707414163377" cy="500.2962282695526" r="4.775034037220372" fill="#CFAE58" opacity="0.2336916796151964"/>
  <circle cx="581.5168137160454" cy="176.99868449146223" r="4.220537524667559" fill="#CFAE58" opacity="0.16522629232806088"/>
  <circle cx="41.4331787838246" cy="579.2503400751506" r="3.577677501937846" fill="#CFAE58" opacity="0.19797932789793032"/>
  <circle cx="324.3975916778448" cy="440.9706139367758" r="3.7054470090823686" fill="#CFAE58" opacity="0.10624836381167367"/>
  <circle cx="1141.999852016219" cy="550.8890718876601" r="2.9565077150283883" fill="#CFAE58" opacity="0.24045838210868992"/>
  <circle cx="493.74843602939393" cy="86.93059298436522" r="3.0694766313947968" fill="#CFAE58" opacity="0.10254889229357794"/>
  <circle cx="504.5379881950219" cy="170.6910520751561" r="4.184620688075942" fill="#CFAE58" opacity="0.12917406553938468"/>
  <circle cx="559.6316532090001" cy="144.0427607864829" r="5.619901497434137" fill="#CFAE58" opacity="0.13928450258817926"/>
  <circle cx="164.39745857011707" cy="412.6154186074339" r="4.799235924371618" fill="#CFAE58" opacity="0.24641025531980423"/>

  <!-- Border with glow -->
  <rect x="40" y="40" width="1120" height="550" fill="none" stroke="url(#goldGradient)" stroke-width="3" rx="12" filter="url(#softGlow)"/>

  <!-- Icon circle with premium background -->
  <circle cx="150" cy="200" r="75" fill="#CFAE58" opacity="0.15" filter="url(#softGlow)"/>
  <circle cx="150" cy="200" r="70" fill="#CFAE58" opacity="0.25"/>
  <text x="150" y="235" font-size="90" text-anchor="middle" fill="#CFAE58" filter="url(#glow)">🔬</text>

  <!-- Premium logo (crown) with enhanced styling -->
  <g transform="translate(100, 70)">
    <path d="M 30 20 L 40 35 L 35 35 Z M 50 15 L 60 35 L 45 35 Z M 65 20 L 75 35 L 70 35 Z M 30 35 L 75 35 L 73 45 L 32 45 Z"
          fill="url(#goldGradient)" filter="url(#glow)" stroke="#B89842" stroke-width="0.5"/>
    <circle cx="40" cy="25" r="3" fill="#4FD1C5" filter="url(#glow)"/>
    <circle cx="52" cy="20" r="4" fill="#4FD1C5" filter="url(#glow)"/>
    <circle cx="65" cy="25" r="3" fill="#4FD1C5" filter="url(#glow)"/>
  </g>

  <!-- Title with shadow -->
  <text x="280" y="180" font-family="Georgia, serif" font-size="72" font-weight="bold"
        fill="url(#goldGradient)" filter="url(#shadow)">Our Science</text>

  <!-- Subtitle with subtle glow -->
  <text x="280" y="230" font-family="Arial, sans-serif" font-size="36"
        fill="#D6DEE6" opacity="0.95" filter="url(#softGlow)">Advanced Aquaculture Methodology</text>

  <!-- Brand name with letter spacing -->
  <text x="280" y="300" font-family="Georgia, serif" font-size="32" font-weight="bold"
        fill="#CFAE58" letter-spacing="4" filter="url(#glow)">ROYAL KETA</text>

  <!-- Russian tagline -->
  <text x="280" y="340" font-family="Arial, sans-serif" font-size="22" font-style="italic"
        fill="#8B95A1" opacity="0.8">От икринки к королевской</text>

  <!-- Location -->
  <text x="280" y="380" font-family="Arial, sans-serif" font-size="20"
        fill="#8B95A1" opacity="0.7">Невельский район, Сахалин</text>

  <!-- Website with glow -->
  <text x="100" y="570" font-family="Arial, sans-serif" font-size="30" font-weight="bold"
        fill="#4FD1C5" filter="url(#glow)">royalketa.com</text>

  <!-- Enhanced decorative salmon silhouette -->
  <g transform="translate(950, 480)" opacity="0.2" filter="url(#softGlow)">
    <ellipse cx="0" cy="0" rx="90" ry="35" fill="#CFAE58"/>
    <path d="M 90 0 L 120 -18 L 130 0 L 120 18 Z" fill="#CFAE58"/>
    <path d="M -25 -35 L 0 -45 L 25 -35 Z" fill="#CFAE58"/>
    <ellipse cx="-50" cy="0" rx="15" ry="12" fill="#0B0F14"/>
  </g>

  <!-- Additional decorative caviar clusters -->
  <g opacity="0.2">
    <circle cx="1050" cy="120" r="6" fill="#CFAE58"/>
    <circle cx="1065" cy="115" r="5" fill="#CFAE58"/>
    <circle cx="1058" cy="130" r="4" fill="#CFAE58"/>
    <circle cx="150" cy="500" r="5" fill="#4FD1C5"/>
    <circle cx="165" cy="508" r="4" fill="#4FD1C5"/>
    <circle cx="140" cy="512" r="5" fill="#4FD1C5"/>
  </g>
</svg>