<svg width="1200" height="630" xmlns="http://www.w3.org/2000/svg">
  <defs>
    <linearGradient id="bgGradient" x1="0%" y1="0%" x2="100%" y2="100%">
      <stop offset="0%" style="stop-color:#0B0F14;stop-opacity:1" />
      <stop offset="50%" style="stop-color:#0F1619;stop-opacity:1" />
      <stop offset="100%" style="stop-color:#0F1922;stop-opacity:1" />
    </linearGradient>
    <linearGradient id="goldGradient" x1="0%" y1="0%" x2="100%" y2="0%">
      <stop offset="0%" style="stop-color:#E5D596;stop-opacity:1" />
      <stop offset="50%" style="stop-color:#CFAE58;stop-opacity:1" />
      <stop offset="100%" style="stop-color:#B89842;stop-opacity:1" />
    </linearGradient>
    <radialGradient id="oceanGradient" cx="50%" cy="50%" r="50%">
      <stop offset="0%" style="stop-color:#4FD1C5;stop-opacity:0.3" />
      <stop offset="100%" style="stop-color:#1E90A0;stop-opacity:0.05" />
    </radialGradient>
    <filter id="glow">
      <feGaussianBlur stdDeviation="5" result="coloredBlur"/>
      <feMerge>
        <feMergeNode in="coloredBlur"/>
        <feMergeNode in="SourceGraphic"/>
      </feMerge>
    </filter>
    <filter id="softGlow">
      <feGaussianBlur stdDeviation="8" result="coloredBlur"/>
      <feMerge>
        <feMergeNode in="coloredBlur"/>
        <feMergeNode in="SourceGraphic"/>
      </feMerge>
    </filter>
    <filter id="shadow">
      <feDropShadow dx="0" dy="4" stdDeviation="8" flood-color="#000000" flood-opacity="0.5"/>
    </filter>
  </defs>

  <!-- Background -->
  <rect width="1200" height="630" fill="url(#bgGradient)"/>

  <!-- Decorative ocean gradients -->
  <ellipse cx="1000" cy="150" rx="300" ry="200" fill="url(#oceanGradient)" opacity="0.4"/>
  <ellipse cx="200" cy="530" rx="250" ry="180" fill="url(#oceanGradient)" opacity="0.3"/>

  <!-- Wave patterns -->
  <path d="M 0 400 Q 300 350 600 400 T 1200 400 L 1200 630 L 0 630 Z" fill="#1E90A0" opacity="0.08"/>
  <path d="M 0 450 Q 250 420 500 450 T 1000 450 T 1200 450 L 1200 630 L 0 630 Z" fill="#4FD1C5" opacity="0.05"/>

  <!-- Caviar roe particles -->
  <circle cx="1192.4907071562707" cy="356.9760318488539" r="4.209343377607208" fill="#CFAE58" opacity="0.23253912318112335"/>
  <circle cx="371.27882859676254" cy="207.45504659375848" r="4.47965217715509" fill="#CFAE58" opacity="0.13675538219525366"/>
  <circle cx="1003.9912407210011" cy="585.4968218239037" r="3.42046898822582" fill="#CFAE58" opacity="0.22369999988863778"/>
  <circle cx="1164.9971642477578" cy="542.1645510154439" r="4.997077753931433" fill="#CFAE58" opacity="0.10125714031043455"/>
  <circle cx="615.5924495963832" cy="233.66960064564913" r="2.544519423456838" fill="#CFAE58" opacity="0.23757998805285863"/>
  <circle cx="1160.2494118186592" cy="339.6818926765383" r="3.615415623181306" fill="#CFAE58" opacity="0.1044589385604422"/>
  <circle cx="861.8400822272479" cy="186.7172478633805" r="3.542977151962914" fill="#CFAE58" opacity="0.2455307212600594"/>
  <circle cx="609.5558303907112" cy="99.43472650884983" r="3.2430562486420733" fill="#CFAE58" opacity="0.19590397059927334"/>
  <circle cx="570.2493072584216" cy="171.40560542940602" r="5.927145375578946" fill="#CFAE58" opacity="0.207378823242299"/>
  <circle cx="652.7612369512399" cy="430.4613305970383" r="3.6601134828870494" fill="#CFAE58" opacity="0.18558487902192558"/>
  <circle cx="875.7777588323152" cy="80.93711853677502" r="4.977515289046601" fill="#CFAE58" opacity="0.12905007041785704"/>
  <circle cx="576.0107461235987" cy="410.02719467656357" r="2.7685479769965573" fill="#CFAE58" opacity="0.15014028117003553"/>
  <circle cx="1070.7503561755038" cy="400.64210262877253" r="3.559104035446241" fill="#CFAE58" opacity="0.17661653634456065"/>
  <circle cx="694.2445932336157" cy="201.83775060997237" r="5.817051027593638" fill="#CFAE58" opacity="0.23779160920946232"/>
  <circle cx="195.1253720115269" cy="15.263683096159028" r="5.003885715588806" fill="#CFAE58" opacity="0.10842948167816176"/>
  <circle cx="1155.6344349842823" cy="140.74783767035555" r="5.288160856413245" fill="#CFAE58" opacity="0.2218807083037266"/>
  <circle cx="539.8311771570629" cy="545.6478144515319" r="4.104078367772194" fill="#CFAE58" opacity="0.19928502345348587"/>
  <circle cx="52.89876120720196" cy="301.95434604528083" r="4.66167633912706" fill="#CFAE58" opacity="0.1648025407303434"/>
  <circle cx="965.1779702800465" cy="148.303449376603" r="4.671534708459639" fill="#CFAE58" opacity="0.20750560400209545"/>
  <circle cx="509.61434014361345" cy="86.45912797661136" r="2.4116131472525373" fill="#CFAE58" opacity="0.2042209065049032"/>
  <circle cx="1137.74465429274" cy="20.630740307408235" r="4.442283344602244" fill="#CFAE58" opacity="0.23679388445001764"/>
  <circle cx="955.7411306693601" cy="66.6128816052014" r="3.5485290064110036" fill="#CFAE58" opacity="0.1004128719267548"/>
  <circle cx="898.0652132387147" cy="246.60480727778227" r="2.5758275975916325" fill="#CFAE58" opacity="0.18481359148740095"/>
  <circle cx="802.3538764420304" cy="399.0795729586897" r="3.7069408376687933" fill="#CFAE58" opacity="0.235758420683837"/>
  <circle cx="132.9960235285692" cy="566.8638340383645" r="4.180959436255216" fill="#CFAE58" opacity="0.1994390505696958"/>
  <circle cx="1040.3172968735219" cy="578.3663215870818" r="5.479381040246561" fill="#CFAE58" opacity="0.2430302755223574"/>
  <circle cx="977.3135632971453" cy="127.6191578433473" r="2.364011743909882" fill="#CFAE58" opacity="0.1262136763083606"/>
  <circle cx="902.1114324313314" cy="584.7868828215454" r="3.7682864013510082" fill="#CFAE58" opacity="0.10632167315997071"/>
  <circle cx="70.76274732853447" cy="385.8518084029488" r="3.348645101320005" fill="#CFAE58" opacity="0.24298084219612717"/>
  <circle cx="458.1534526726788" cy="146.34119274586962" r="2.0376755458060245" fill="#CFAE58" opacity="0.13549828568077807"/>

  <!-- Border with glow -->
  <rect x="40" y="40" width="1120" height="550" fill="none" stroke="url(#goldGradient)" stroke-width="3" rx="12" filter="url(#softGlow)"/>

  <!-- Icon circle with premium background -->
  <circle cx="150" cy="200" r="75" fill="#CFAE58" opacity="0.15" filter="url(#softGlow)"/>
  <circle cx="150" cy="200" r="70" fill="#CFAE58" opacity="0.25"/>
  <text x="150" y="235" font-size="90" text-anchor="middle" fill="#CFAE58" filter="url(#glow)">🔬</text>

  <!-- Premium logo (crown) with enhanced styling -->
  <g transform="translate(100, 70)">
    <path d="M 30 20 L 40 35 L 35 35 Z M 50 15 L 60 35 L 45 35 Z M 65 20 L 75 35 L 70 35 Z M 30 35 L 75 35 L 73 45 L 32 45 Z"
          fill="url(#goldGradient)" filter="url(#glow)" stroke="#B89842" stroke-width="0.5"/>
    <circle cx="40" cy="25" r="3" fill="#4FD1C5" filter="url(#glow)"/>
    <circle cx="52" cy="20" r="4" fill="#4FD1C5" filter="url(#glow)"/>
    <circle cx="65" cy="25" r="3" fill="#4FD1C5" filter="url(#glow)"/>
  </g>

  <!-- Title with shadow -->
  <text x="280" y="180" font-family="Georgia, serif" font-size="72" font-weight="bold"
        fill="url(#goldGradient)" filter="url(#shadow)">Our Science</text>

  <!-- Subtitle with subtle glow -->
  <text x="280" y="230" font-family="Arial, sans-serif" font-size="36"
        fill="#D6DEE6" opacity="0.95" filter="url(#softGlow)">Advanced Aquaculture Methodology</text>

  <!-- Brand name with letter spacing -->
  <text x="280" y="300" font-family="Georgia, serif" font-size="32" font-weight="bold"
        fill="#CFAE58" letter-spacing="4" filter="url(#glow)">ROYAL KETA</text>

  <!-- Russian tagline -->
  <text x="280" y="340" font-family="Arial, sans-serif" font-size="22" font-style="italic"
        fill="#8B95A1" opacity="0.8">От икринки к королевской</text>

  <!-- Location -->
  <text x="280" y="380" font-family="Arial, sans-serif" font-size="20"
        fill="#8B95A1" opacity="0.7">Невельский район, Сахалин</text>

  <!-- Website with glow -->
  <text x="100" y="570" font-family="Arial, sans-serif" font-size="30" font-weight="bold"
        fill="#4FD1C5" filter="url(#glow)">royalketa.com</text>

  <!-- Enhanced decorative salmon silhouette -->
  <g transform="translate(950, 480)" opacity="0.2" filter="url(#softGlow)">
    <ellipse cx="0" cy="0" rx="90" ry="35" fill="#CFAE58"/>
    <path d="M 90 0 L 120 -18 L 130 0 L 120 18 Z" fill="#CFAE58"/>
    <path d="M -25 -35 L 0 -45 L 25 -35 Z" fill="#CFAE58"/>
    <ellipse cx="-50" cy="0" rx="15" ry="12" fill="#0B0F14"/>
  </g>

  <!-- Additional decorative caviar clusters -->
  <g opacity="0.2">
    <circle cx="1050" cy="120" r="6" fill="#CFAE58"/>
    <circle cx="1065" cy="115" r="5" fill="#CFAE58"/>
    <circle cx="1058" cy="130" r="4" fill="#CFAE58"/>
    <circle cx="150" cy="500" r="5" fill="#4FD1C5"/>
    <circle cx="165" cy="508" r="4" fill="#4FD1C5"/>
    <circle cx="140" cy="512" r="5" fill="#4FD1C5"/>
  </g>
</svg>