<svg width="1200" height="630" xmlns="http://www.w3.org/2000/svg">
  <defs>
    <linearGradient id="bgGradient" x1="0%" y1="0%" x2="100%" y2="100%">
      <stop offset="0%" style="stop-color:#0B0F14;stop-opacity:1" />
      <stop offset="50%" style="stop-color:#0F1619;stop-opacity:1" />
      <stop offset="100%" style="stop-color:#0F1922;stop-opacity:1" />
    </linearGradient>
    <linearGradient id="goldGradient" x1="0%" y1="0%" x2="100%" y2="0%">
      <stop offset="0%" style="stop-color:#E5D596;stop-opacity:1" />
      <stop offset="50%" style="stop-color:#CFAE58;stop-opacity:1" />
      <stop offset="100%" style="stop-color:#B89842;stop-opacity:1" />
    </linearGradient>
    <radialGradient id="oceanGradient" cx="50%" cy="50%" r="50%">
      <stop offset="0%" style="stop-color:#4FD1C5;stop-opacity:0.3" />
      <stop offset="100%" style="stop-color:#1E90A0;stop-opacity:0.05" />
    </radialGradient>
    <filter id="glow">
      <feGaussianBlur stdDeviation="5" result="coloredBlur"/>
      <feMerge>
        <feMergeNode in="coloredBlur"/>
        <feMergeNode in="SourceGraphic"/>
      </feMerge>
    </filter>
    <filter id="softGlow">
      <feGaussianBlur stdDeviation="8" result="coloredBlur"/>
      <feMerge>
        <feMergeNode in="coloredBlur"/>
        <feMergeNode in="SourceGraphic"/>
      </feMerge>
    </filter>
    <filter id="shadow">
      <feDropShadow dx="0" dy="4" stdDeviation="8" flood-color="#000000" flood-opacity="0.5"/>
    </filter>
  </defs>

  <!-- Background -->
  <rect width="1200" height="630" fill="url(#bgGradient)"/>

  <!-- Decorative ocean gradients -->
  <ellipse cx="1000" cy="150" rx="300" ry="200" fill="url(#oceanGradient)" opacity="0.4"/>
  <ellipse cx="200" cy="530" rx="250" ry="180" fill="url(#oceanGradient)" opacity="0.3"/>

  <!-- Wave patterns -->
  <path d="M 0 400 Q 300 350 600 400 T 1200 400 L 1200 630 L 0 630 Z" fill="#1E90A0" opacity="0.08"/>
  <path d="M 0 450 Q 250 420 500 450 T 1000 450 T 1200 450 L 1200 630 L 0 630 Z" fill="#4FD1C5" opacity="0.05"/>

  <!-- Caviar roe particles -->
  <circle cx="844.8106405401002" cy="329.08597660166214" r="5.053971743131037" fill="#CFAE58" opacity="0.20806607594528664"/>
  <circle cx="54.54432110508387" cy="67.1124916978211" r="3.3124038038793984" fill="#CFAE58" opacity="0.24271799441158803"/>
  <circle cx="954.3085701626281" cy="350.28125151108816" r="3.506691049190499" fill="#CFAE58" opacity="0.15570498750296116"/>
  <circle cx="357.62893439182653" cy="147.91108444698605" r="5.896207587869967" fill="#CFAE58" opacity="0.2362800570551118"/>
  <circle cx="1151.0175096752696" cy="457.7085566639355" r="4.174873723187852" fill="#CFAE58" opacity="0.2381656261862393"/>
  <circle cx="57.805884997446455" cy="304.58214221085984" r="3.6576624466661096" fill="#CFAE58" opacity="0.16711706617003785"/>
  <circle cx="530.3687686434654" cy="533.1002747318498" r="5.251378286018833" fill="#CFAE58" opacity="0.23485286710915174"/>
  <circle cx="1041.571126885303" cy="16.48217131920942" r="3.6542504753336553" fill="#CFAE58" opacity="0.23607197753208992"/>
  <circle cx="912.6843828613356" cy="394.53207632959266" r="3.734419848576488" fill="#CFAE58" opacity="0.157893669811792"/>
  <circle cx="884.5043697375403" cy="167.30324120978878" r="3.950138813853269" fill="#CFAE58" opacity="0.17795639742965236"/>
  <circle cx="71.33202047133418" cy="512.060678236116" r="3.5622857750345105" fill="#CFAE58" opacity="0.17223639101648128"/>
  <circle cx="183.7429401599719" cy="197.97119016799047" r="5.902191428448611" fill="#CFAE58" opacity="0.1546489886388445"/>
  <circle cx="499.71968739272086" cy="491.1961509357293" r="2.193553271477854" fill="#CFAE58" opacity="0.22495578742061545"/>
  <circle cx="339.64456096078067" cy="406.4762506588778" r="4.985605393147905" fill="#CFAE58" opacity="0.21002485095343454"/>
  <circle cx="385.00590414213065" cy="572.16293739794" r="4.127942656031503" fill="#CFAE58" opacity="0.11312504043992377"/>
  <circle cx="641.3317806247693" cy="377.82983633197347" r="5.799525682798259" fill="#CFAE58" opacity="0.1802945713265729"/>
  <circle cx="300.82872774036036" cy="189.65639893454903" r="2.8882251789691393" fill="#CFAE58" opacity="0.2010976943139442"/>
  <circle cx="1001.4476191050677" cy="100.7248260044141" r="3.2580030817404637" fill="#CFAE58" opacity="0.17134842288204394"/>
  <circle cx="985.62068660595" cy="13.189964333341113" r="3.196852019997154" fill="#CFAE58" opacity="0.14854775260606273"/>
  <circle cx="853.5490976634609" cy="456.4434767484392" r="3.9834139079237207" fill="#CFAE58" opacity="0.24055317326521058"/>
  <circle cx="997.8555294125168" cy="188.17465035790795" r="4.044453193075932" fill="#CFAE58" opacity="0.14029249323651846"/>
  <circle cx="462.169882199556" cy="616.7162744182789" r="4.976957869750166" fill="#CFAE58" opacity="0.1758564431277538"/>
  <circle cx="388.6078013617471" cy="580.3808985349046" r="2.4809387474569817" fill="#CFAE58" opacity="0.216685966184046"/>
  <circle cx="120.71152933194531" cy="52.06336753911593" r="2.932290657054069" fill="#CFAE58" opacity="0.2122821253615963"/>
  <circle cx="959.8526407824573" cy="31.394939915413232" r="3.725989666679288" fill="#CFAE58" opacity="0.142575618586546"/>
  <circle cx="398.0930966488975" cy="404.49645317264526" r="3.5780060669540825" fill="#CFAE58" opacity="0.1831605548021591"/>
  <circle cx="233.9398166058742" cy="133.4147262698029" r="3.2663342185925304" fill="#CFAE58" opacity="0.1155718593169753"/>
  <circle cx="889.4160692460483" cy="513.7486010935994" r="5.391424515184124" fill="#CFAE58" opacity="0.20565417541337483"/>
  <circle cx="521.6239940976427" cy="18.886828803885628" r="2.28068231253983" fill="#CFAE58" opacity="0.17034893210527152"/>
  <circle cx="1069.9555712127774" cy="343.3140812626046" r="5.739027262757984" fill="#CFAE58" opacity="0.129108840230227"/>

  <!-- Border with glow -->
  <rect x="40" y="40" width="1120" height="550" fill="none" stroke="url(#goldGradient)" stroke-width="3" rx="12" filter="url(#softGlow)"/>

  <!-- Icon circle with premium background -->
  <circle cx="150" cy="200" r="75" fill="#CFAE58" opacity="0.15" filter="url(#softGlow)"/>
  <circle cx="150" cy="200" r="70" fill="#CFAE58" opacity="0.25"/>
  <text x="150" y="235" font-size="90" text-anchor="middle" fill="#CFAE58" filter="url(#glow)">🔬</text>

  <!-- Premium logo (crown) with enhanced styling -->
  <g transform="translate(100, 70)">
    <path d="M 30 20 L 40 35 L 35 35 Z M 50 15 L 60 35 L 45 35 Z M 65 20 L 75 35 L 70 35 Z M 30 35 L 75 35 L 73 45 L 32 45 Z"
          fill="url(#goldGradient)" filter="url(#glow)" stroke="#B89842" stroke-width="0.5"/>
    <circle cx="40" cy="25" r="3" fill="#4FD1C5" filter="url(#glow)"/>
    <circle cx="52" cy="20" r="4" fill="#4FD1C5" filter="url(#glow)"/>
    <circle cx="65" cy="25" r="3" fill="#4FD1C5" filter="url(#glow)"/>
  </g>

  <!-- Title with shadow -->
  <text x="280" y="180" font-family="Georgia, serif" font-size="72" font-weight="bold"
        fill="url(#goldGradient)" filter="url(#shadow)">Our Science</text>

  <!-- Subtitle with subtle glow -->
  <text x="280" y="230" font-family="Arial, sans-serif" font-size="36"
        fill="#D6DEE6" opacity="0.95" filter="url(#softGlow)">Advanced Aquaculture Methodology</text>

  <!-- Brand name with letter spacing -->
  <text x="280" y="300" font-family="Georgia, serif" font-size="32" font-weight="bold"
        fill="#CFAE58" letter-spacing="4" filter="url(#glow)">ROYAL KETA</text>

  <!-- Russian tagline -->
  <text x="280" y="340" font-family="Arial, sans-serif" font-size="22" font-style="italic"
        fill="#8B95A1" opacity="0.8">От икринки к королевской</text>

  <!-- Location -->
  <text x="280" y="380" font-family="Arial, sans-serif" font-size="20"
        fill="#8B95A1" opacity="0.7">Невельский район, Сахалин</text>

  <!-- Website with glow -->
  <text x="100" y="570" font-family="Arial, sans-serif" font-size="30" font-weight="bold"
        fill="#4FD1C5" filter="url(#glow)">royalketa.com</text>

  <!-- Enhanced decorative salmon silhouette -->
  <g transform="translate(950, 480)" opacity="0.2" filter="url(#softGlow)">
    <ellipse cx="0" cy="0" rx="90" ry="35" fill="#CFAE58"/>
    <path d="M 90 0 L 120 -18 L 130 0 L 120 18 Z" fill="#CFAE58"/>
    <path d="M -25 -35 L 0 -45 L 25 -35 Z" fill="#CFAE58"/>
    <ellipse cx="-50" cy="0" rx="15" ry="12" fill="#0B0F14"/>
  </g>

  <!-- Additional decorative caviar clusters -->
  <g opacity="0.2">
    <circle cx="1050" cy="120" r="6" fill="#CFAE58"/>
    <circle cx="1065" cy="115" r="5" fill="#CFAE58"/>
    <circle cx="1058" cy="130" r="4" fill="#CFAE58"/>
    <circle cx="150" cy="500" r="5" fill="#4FD1C5"/>
    <circle cx="165" cy="508" r="4" fill="#4FD1C5"/>
    <circle cx="140" cy="512" r="5" fill="#4FD1C5"/>
  </g>
</svg>