<svg width="1200" height="630" xmlns="http://www.w3.org/2000/svg">
  <defs>
    <linearGradient id="bgGradient" x1="0%" y1="0%" x2="100%" y2="100%">
      <stop offset="0%" style="stop-color:#0B0F14;stop-opacity:1" />
      <stop offset="50%" style="stop-color:#0F1619;stop-opacity:1" />
      <stop offset="100%" style="stop-color:#0F1922;stop-opacity:1" />
    </linearGradient>
    <linearGradient id="goldGradient" x1="0%" y1="0%" x2="100%" y2="0%">
      <stop offset="0%" style="stop-color:#E5D596;stop-opacity:1" />
      <stop offset="50%" style="stop-color:#CFAE58;stop-opacity:1" />
      <stop offset="100%" style="stop-color:#B89842;stop-opacity:1" />
    </linearGradient>
    <radialGradient id="oceanGradient" cx="50%" cy="50%" r="50%">
      <stop offset="0%" style="stop-color:#4FD1C5;stop-opacity:0.3" />
      <stop offset="100%" style="stop-color:#1E90A0;stop-opacity:0.05" />
    </radialGradient>
    <filter id="glow">
      <feGaussianBlur stdDeviation="5" result="coloredBlur"/>
      <feMerge>
        <feMergeNode in="coloredBlur"/>
        <feMergeNode in="SourceGraphic"/>
      </feMerge>
    </filter>
    <filter id="softGlow">
      <feGaussianBlur stdDeviation="8" result="coloredBlur"/>
      <feMerge>
        <feMergeNode in="coloredBlur"/>
        <feMergeNode in="SourceGraphic"/>
      </feMerge>
    </filter>
    <filter id="shadow">
      <feDropShadow dx="0" dy="4" stdDeviation="8" flood-color="#000000" flood-opacity="0.5"/>
    </filter>
  </defs>

  <!-- Background -->
  <rect width="1200" height="630" fill="url(#bgGradient)"/>

  <!-- Decorative ocean gradients -->
  <ellipse cx="1000" cy="150" rx="300" ry="200" fill="url(#oceanGradient)" opacity="0.4"/>
  <ellipse cx="200" cy="530" rx="250" ry="180" fill="url(#oceanGradient)" opacity="0.3"/>

  <!-- Wave patterns -->
  <path d="M 0 400 Q 300 350 600 400 T 1200 400 L 1200 630 L 0 630 Z" fill="#1E90A0" opacity="0.08"/>
  <path d="M 0 450 Q 250 420 500 450 T 1000 450 T 1200 450 L 1200 630 L 0 630 Z" fill="#4FD1C5" opacity="0.05"/>

  <!-- Caviar roe particles -->
  <circle cx="683.6222181747087" cy="86.3101632692241" r="4.663782165848742" fill="#CFAE58" opacity="0.11389995134567817"/>
  <circle cx="187.53069663008048" cy="506.19887299907134" r="4.003848741874006" fill="#CFAE58" opacity="0.12503662234195226"/>
  <circle cx="1125.5153208603642" cy="554.4918641541148" r="2.8411660876061564" fill="#CFAE58" opacity="0.2179014703514571"/>
  <circle cx="1092.1943786836332" cy="134.03728661100544" r="4.653751117412223" fill="#CFAE58" opacity="0.1342313465054571"/>
  <circle cx="697.3475404961257" cy="559.0261300030186" r="4.360886992802461" fill="#CFAE58" opacity="0.23914360878647573"/>
  <circle cx="93.73446644554369" cy="627.2828901945992" r="4.31055569458245" fill="#CFAE58" opacity="0.174795026888904"/>
  <circle cx="318.80974635726903" cy="304.4154641305647" r="2.7245960569590633" fill="#CFAE58" opacity="0.12140678959417676"/>
  <circle cx="785.7658878687542" cy="442.0622097774796" r="2.4164271627545597" fill="#CFAE58" opacity="0.19859657296406502"/>
  <circle cx="475.7323039423645" cy="305.9610934990637" r="3.2019178080581385" fill="#CFAE58" opacity="0.19282057314443313"/>
  <circle cx="263.7691379079847" cy="208.47057187973076" r="5.537653711825705" fill="#CFAE58" opacity="0.20398872548171343"/>
  <circle cx="324.6304159883487" cy="500.0342351339319" r="3.9548511270942504" fill="#CFAE58" opacity="0.21461965071710887"/>
  <circle cx="36.31893018633461" cy="166.73809342368568" r="2.1566115887421455" fill="#CFAE58" opacity="0.17077008828133033"/>
  <circle cx="750.8092151562561" cy="522.7522302584234" r="2.2985784548537076" fill="#CFAE58" opacity="0.23279720809040305"/>
  <circle cx="111.58216956617642" cy="255.61700832817365" r="3.924706956816661" fill="#CFAE58" opacity="0.11814117445794776"/>
  <circle cx="1173.7017093595775" cy="541.9234179681882" r="5.792914310303103" fill="#CFAE58" opacity="0.18311945148644415"/>
  <circle cx="148.63262818186956" cy="124.39372371754942" r="2.8841052459061194" fill="#CFAE58" opacity="0.2113379902286841"/>
  <circle cx="1134.3141269467546" cy="375.7466471132196" r="5.819948012312549" fill="#CFAE58" opacity="0.19158517014743714"/>
  <circle cx="607.0702905087602" cy="606.2864339012888" r="4.54653731946935" fill="#CFAE58" opacity="0.1464815040084611"/>
  <circle cx="50.791583667028384" cy="468.7289846019631" r="2.8410632637238464" fill="#CFAE58" opacity="0.12211266183980148"/>
  <circle cx="103.30267310365917" cy="547.4900204189629" r="3.6937158779827133" fill="#CFAE58" opacity="0.12331055257250795"/>
  <circle cx="1171.427117173269" cy="158.3127883555791" r="5.052505245311434" fill="#CFAE58" opacity="0.12508547896384906"/>
  <circle cx="239.62152297057324" cy="540.0690435426251" r="3.79386263088017" fill="#CFAE58" opacity="0.20663950044697788"/>
  <circle cx="134.33530680754612" cy="20.7306369280455" r="3.905674660945018" fill="#CFAE58" opacity="0.17604977975003494"/>
  <circle cx="1070.1683680204885" cy="21.470299821365163" r="5.486851788801714" fill="#CFAE58" opacity="0.23774565284960533"/>
  <circle cx="544.8180556453228" cy="514.3684795357229" r="5.635148669819562" fill="#CFAE58" opacity="0.13615916399806047"/>
  <circle cx="998.4871387889945" cy="89.26191620255963" r="5.656977227515341" fill="#CFAE58" opacity="0.1129680665515064"/>
  <circle cx="836.6479834564674" cy="534.9877820222808" r="3.770548869454953" fill="#CFAE58" opacity="0.10790630541459212"/>
  <circle cx="824.9222985461766" cy="219.37806716493424" r="2.5611533321695816" fill="#CFAE58" opacity="0.1049571951890078"/>
  <circle cx="1107.3560399708047" cy="592.4032678053135" r="2.0397663676348508" fill="#CFAE58" opacity="0.1286562876907935"/>
  <circle cx="845.5469403452543" cy="291.1595889861062" r="5.808263394218827" fill="#CFAE58" opacity="0.11566353956986625"/>

  <!-- Border with glow -->
  <rect x="40" y="40" width="1120" height="550" fill="none" stroke="url(#goldGradient)" stroke-width="3" rx="12" filter="url(#softGlow)"/>

  <!-- Icon circle with premium background -->
  <circle cx="150" cy="200" r="75" fill="#CFAE58" opacity="0.15" filter="url(#softGlow)"/>
  <circle cx="150" cy="200" r="70" fill="#CFAE58" opacity="0.25"/>
  <text x="150" y="235" font-size="90" text-anchor="middle" fill="#CFAE58" filter="url(#glow)">🔬</text>

  <!-- Premium logo (crown) with enhanced styling -->
  <g transform="translate(100, 70)">
    <path d="M 30 20 L 40 35 L 35 35 Z M 50 15 L 60 35 L 45 35 Z M 65 20 L 75 35 L 70 35 Z M 30 35 L 75 35 L 73 45 L 32 45 Z"
          fill="url(#goldGradient)" filter="url(#glow)" stroke="#B89842" stroke-width="0.5"/>
    <circle cx="40" cy="25" r="3" fill="#4FD1C5" filter="url(#glow)"/>
    <circle cx="52" cy="20" r="4" fill="#4FD1C5" filter="url(#glow)"/>
    <circle cx="65" cy="25" r="3" fill="#4FD1C5" filter="url(#glow)"/>
  </g>

  <!-- Title with shadow -->
  <text x="280" y="180" font-family="Georgia, serif" font-size="72" font-weight="bold"
        fill="url(#goldGradient)" filter="url(#shadow)">Our Science</text>

  <!-- Subtitle with subtle glow -->
  <text x="280" y="230" font-family="Arial, sans-serif" font-size="36"
        fill="#D6DEE6" opacity="0.95" filter="url(#softGlow)">Advanced Aquaculture Methodology</text>

  <!-- Brand name with letter spacing -->
  <text x="280" y="300" font-family="Georgia, serif" font-size="32" font-weight="bold"
        fill="#CFAE58" letter-spacing="4" filter="url(#glow)">ROYAL KETA</text>

  <!-- Russian tagline -->
  <text x="280" y="340" font-family="Arial, sans-serif" font-size="22" font-style="italic"
        fill="#8B95A1" opacity="0.8">От икринки к королевской</text>

  <!-- Location -->
  <text x="280" y="380" font-family="Arial, sans-serif" font-size="20"
        fill="#8B95A1" opacity="0.7">Невельский район, Сахалин</text>

  <!-- Website with glow -->
  <text x="100" y="570" font-family="Arial, sans-serif" font-size="30" font-weight="bold"
        fill="#4FD1C5" filter="url(#glow)">royalketa.com</text>

  <!-- Enhanced decorative salmon silhouette -->
  <g transform="translate(950, 480)" opacity="0.2" filter="url(#softGlow)">
    <ellipse cx="0" cy="0" rx="90" ry="35" fill="#CFAE58"/>
    <path d="M 90 0 L 120 -18 L 130 0 L 120 18 Z" fill="#CFAE58"/>
    <path d="M -25 -35 L 0 -45 L 25 -35 Z" fill="#CFAE58"/>
    <ellipse cx="-50" cy="0" rx="15" ry="12" fill="#0B0F14"/>
  </g>

  <!-- Additional decorative caviar clusters -->
  <g opacity="0.2">
    <circle cx="1050" cy="120" r="6" fill="#CFAE58"/>
    <circle cx="1065" cy="115" r="5" fill="#CFAE58"/>
    <circle cx="1058" cy="130" r="4" fill="#CFAE58"/>
    <circle cx="150" cy="500" r="5" fill="#4FD1C5"/>
    <circle cx="165" cy="508" r="4" fill="#4FD1C5"/>
    <circle cx="140" cy="512" r="5" fill="#4FD1C5"/>
  </g>
</svg>