<svg width="1200" height="630" xmlns="http://www.w3.org/2000/svg">
  <defs>
    <linearGradient id="bgGradient" x1="0%" y1="0%" x2="100%" y2="100%">
      <stop offset="0%" style="stop-color:#0B0F14;stop-opacity:1" />
      <stop offset="50%" style="stop-color:#0F1619;stop-opacity:1" />
      <stop offset="100%" style="stop-color:#0F1922;stop-opacity:1" />
    </linearGradient>
    <linearGradient id="goldGradient" x1="0%" y1="0%" x2="100%" y2="0%">
      <stop offset="0%" style="stop-color:#E5D596;stop-opacity:1" />
      <stop offset="50%" style="stop-color:#CFAE58;stop-opacity:1" />
      <stop offset="100%" style="stop-color:#B89842;stop-opacity:1" />
    </linearGradient>
    <radialGradient id="oceanGradient" cx="50%" cy="50%" r="50%">
      <stop offset="0%" style="stop-color:#4FD1C5;stop-opacity:0.3" />
      <stop offset="100%" style="stop-color:#1E90A0;stop-opacity:0.05" />
    </radialGradient>
    <filter id="glow">
      <feGaussianBlur stdDeviation="5" result="coloredBlur"/>
      <feMerge>
        <feMergeNode in="coloredBlur"/>
        <feMergeNode in="SourceGraphic"/>
      </feMerge>
    </filter>
    <filter id="softGlow">
      <feGaussianBlur stdDeviation="8" result="coloredBlur"/>
      <feMerge>
        <feMergeNode in="coloredBlur"/>
        <feMergeNode in="SourceGraphic"/>
      </feMerge>
    </filter>
    <filter id="shadow">
      <feDropShadow dx="0" dy="4" stdDeviation="8" flood-color="#000000" flood-opacity="0.5"/>
    </filter>
  </defs>

  <!-- Background -->
  <rect width="1200" height="630" fill="url(#bgGradient)"/>

  <!-- Decorative ocean gradients -->
  <ellipse cx="1000" cy="150" rx="300" ry="200" fill="url(#oceanGradient)" opacity="0.4"/>
  <ellipse cx="200" cy="530" rx="250" ry="180" fill="url(#oceanGradient)" opacity="0.3"/>

  <!-- Wave patterns -->
  <path d="M 0 400 Q 300 350 600 400 T 1200 400 L 1200 630 L 0 630 Z" fill="#1E90A0" opacity="0.08"/>
  <path d="M 0 450 Q 250 420 500 450 T 1000 450 T 1200 450 L 1200 630 L 0 630 Z" fill="#4FD1C5" opacity="0.05"/>

  <!-- Caviar roe particles -->
  <circle cx="910.6679835776854" cy="356.93008672389834" r="3.055388958688173" fill="#CFAE58" opacity="0.16329857249656057"/>
  <circle cx="59.84618251230884" cy="302.145499471759" r="3.4140792722088573" fill="#CFAE58" opacity="0.15230717908227973"/>
  <circle cx="262.21092280430173" cy="333.4861640836" r="5.036168787890325" fill="#CFAE58" opacity="0.19160074322916182"/>
  <circle cx="294.0255228851244" cy="527.6148053144049" r="5.50305845016943" fill="#CFAE58" opacity="0.12801721274365063"/>
  <circle cx="105.22771156125543" cy="522.42013748484" r="2.204544930115018" fill="#CFAE58" opacity="0.22831024552986406"/>
  <circle cx="753.7232587984763" cy="134.53725558856752" r="2.9740417752683497" fill="#CFAE58" opacity="0.14375557766640756"/>
  <circle cx="1086.1699927412126" cy="628.6093631892553" r="2.8851662287386137" fill="#CFAE58" opacity="0.1800185616603829"/>
  <circle cx="456.3234069018613" cy="15.519342359332732" r="4.816782391289346" fill="#CFAE58" opacity="0.20401488567354775"/>
  <circle cx="476.6021313688582" cy="517.9114634567793" r="3.011258586128206" fill="#CFAE58" opacity="0.16453593351904283"/>
  <circle cx="957.5307206347006" cy="84.26671932798185" r="3.6920902770021637" fill="#CFAE58" opacity="0.1747971748340844"/>
  <circle cx="505.50062222311396" cy="543.6812941664531" r="4.317190236348112" fill="#CFAE58" opacity="0.1883868492071799"/>
  <circle cx="517.2186505583023" cy="569.3904862755531" r="3.4013895107783574" fill="#CFAE58" opacity="0.17726546953423022"/>
  <circle cx="483.67606248394014" cy="211.6707933390589" r="2.2168084323357924" fill="#CFAE58" opacity="0.18013687416589685"/>
  <circle cx="304.3624552652847" cy="586.844083596131" r="4.651703847902261" fill="#CFAE58" opacity="0.1834335050770336"/>
  <circle cx="1073.7829343035896" cy="21.99150384809291" r="3.9848983640955735" fill="#CFAE58" opacity="0.16903964892541767"/>
  <circle cx="465.0591965352291" cy="527.8984872691251" r="2.819815877382573" fill="#CFAE58" opacity="0.11192730004069926"/>
  <circle cx="486.6546079451306" cy="366.1489354506945" r="4.081175547388682" fill="#CFAE58" opacity="0.11532446228913774"/>
  <circle cx="981.9790801524042" cy="270.1560568839532" r="2.69039514769249" fill="#CFAE58" opacity="0.23612369292341287"/>
  <circle cx="287.50562286288215" cy="220.46393226717575" r="3.083323064415789" fill="#CFAE58" opacity="0.2104880683342391"/>
  <circle cx="145.88283087331888" cy="510.56240179236585" r="4.73580193425988" fill="#CFAE58" opacity="0.22552830658569645"/>
  <circle cx="1106.631842296712" cy="593.0861139012435" r="3.6951253142342013" fill="#CFAE58" opacity="0.2286460091557023"/>
  <circle cx="825.2253100247997" cy="135.71425652706054" r="3.8115811140252944" fill="#CFAE58" opacity="0.1888369588610962"/>
  <circle cx="247.72035817107937" cy="367.6241091815632" r="3.5840066761804428" fill="#CFAE58" opacity="0.23113733267879044"/>
  <circle cx="1034.9676704393785" cy="79.4104560330263" r="5.50235372159895" fill="#CFAE58" opacity="0.23682586843380676"/>
  <circle cx="244.448553128822" cy="119.36169666967507" r="4.149487758460648" fill="#CFAE58" opacity="0.16419058735096687"/>
  <circle cx="412.8615953370955" cy="478.30086466672515" r="5.255898136938386" fill="#CFAE58" opacity="0.1270280343555422"/>
  <circle cx="1045.3399844043545" cy="528.527645847619" r="3.125175121757546" fill="#CFAE58" opacity="0.14271494453733033"/>
  <circle cx="513.9593734907711" cy="37.1346490600408" r="2.659415856935688" fill="#CFAE58" opacity="0.134679301691347"/>
  <circle cx="942.8058878930892" cy="111.76934597012895" r="2.6463955884529957" fill="#CFAE58" opacity="0.16250665364325723"/>
  <circle cx="75.98452481103095" cy="345.6764754880609" r="3.1806439604625005" fill="#CFAE58" opacity="0.12662637679873023"/>

  <!-- Border with glow -->
  <rect x="40" y="40" width="1120" height="550" fill="none" stroke="url(#goldGradient)" stroke-width="3" rx="12" filter="url(#softGlow)"/>

  <!-- Icon circle with premium background -->
  <circle cx="150" cy="200" r="75" fill="#CFAE58" opacity="0.15" filter="url(#softGlow)"/>
  <circle cx="150" cy="200" r="70" fill="#CFAE58" opacity="0.25"/>
  <text x="150" y="235" font-size="90" text-anchor="middle" fill="#CFAE58" filter="url(#glow)">🔬</text>

  <!-- Premium logo (crown) with enhanced styling -->
  <g transform="translate(100, 70)">
    <path d="M 30 20 L 40 35 L 35 35 Z M 50 15 L 60 35 L 45 35 Z M 65 20 L 75 35 L 70 35 Z M 30 35 L 75 35 L 73 45 L 32 45 Z"
          fill="url(#goldGradient)" filter="url(#glow)" stroke="#B89842" stroke-width="0.5"/>
    <circle cx="40" cy="25" r="3" fill="#4FD1C5" filter="url(#glow)"/>
    <circle cx="52" cy="20" r="4" fill="#4FD1C5" filter="url(#glow)"/>
    <circle cx="65" cy="25" r="3" fill="#4FD1C5" filter="url(#glow)"/>
  </g>

  <!-- Title with shadow -->
  <text x="280" y="180" font-family="Georgia, serif" font-size="72" font-weight="bold"
        fill="url(#goldGradient)" filter="url(#shadow)">Our Science</text>

  <!-- Subtitle with subtle glow -->
  <text x="280" y="230" font-family="Arial, sans-serif" font-size="36"
        fill="#D6DEE6" opacity="0.95" filter="url(#softGlow)">Advanced Aquaculture Methodology</text>

  <!-- Brand name with letter spacing -->
  <text x="280" y="300" font-family="Georgia, serif" font-size="32" font-weight="bold"
        fill="#CFAE58" letter-spacing="4" filter="url(#glow)">ROYAL KETA</text>

  <!-- Russian tagline -->
  <text x="280" y="340" font-family="Arial, sans-serif" font-size="22" font-style="italic"
        fill="#8B95A1" opacity="0.8">От икринки к королевской</text>

  <!-- Location -->
  <text x="280" y="380" font-family="Arial, sans-serif" font-size="20"
        fill="#8B95A1" opacity="0.7">Невельский район, Сахалин</text>

  <!-- Website with glow -->
  <text x="100" y="570" font-family="Arial, sans-serif" font-size="30" font-weight="bold"
        fill="#4FD1C5" filter="url(#glow)">royalketa.com</text>

  <!-- Enhanced decorative salmon silhouette -->
  <g transform="translate(950, 480)" opacity="0.2" filter="url(#softGlow)">
    <ellipse cx="0" cy="0" rx="90" ry="35" fill="#CFAE58"/>
    <path d="M 90 0 L 120 -18 L 130 0 L 120 18 Z" fill="#CFAE58"/>
    <path d="M -25 -35 L 0 -45 L 25 -35 Z" fill="#CFAE58"/>
    <ellipse cx="-50" cy="0" rx="15" ry="12" fill="#0B0F14"/>
  </g>

  <!-- Additional decorative caviar clusters -->
  <g opacity="0.2">
    <circle cx="1050" cy="120" r="6" fill="#CFAE58"/>
    <circle cx="1065" cy="115" r="5" fill="#CFAE58"/>
    <circle cx="1058" cy="130" r="4" fill="#CFAE58"/>
    <circle cx="150" cy="500" r="5" fill="#4FD1C5"/>
    <circle cx="165" cy="508" r="4" fill="#4FD1C5"/>
    <circle cx="140" cy="512" r="5" fill="#4FD1C5"/>
  </g>
</svg>