<svg width="1200" height="630" xmlns="http://www.w3.org/2000/svg">
  <defs>
    <linearGradient id="bgGradient" x1="0%" y1="0%" x2="100%" y2="100%">
      <stop offset="0%" style="stop-color:#0B0F14;stop-opacity:1" />
      <stop offset="50%" style="stop-color:#0F1619;stop-opacity:1" />
      <stop offset="100%" style="stop-color:#0F1922;stop-opacity:1" />
    </linearGradient>
    <linearGradient id="goldGradient" x1="0%" y1="0%" x2="100%" y2="0%">
      <stop offset="0%" style="stop-color:#E5D596;stop-opacity:1" />
      <stop offset="50%" style="stop-color:#CFAE58;stop-opacity:1" />
      <stop offset="100%" style="stop-color:#B89842;stop-opacity:1" />
    </linearGradient>
    <radialGradient id="oceanGradient" cx="50%" cy="50%" r="50%">
      <stop offset="0%" style="stop-color:#4FD1C5;stop-opacity:0.3" />
      <stop offset="100%" style="stop-color:#1E90A0;stop-opacity:0.05" />
    </radialGradient>
    <filter id="glow">
      <feGaussianBlur stdDeviation="5" result="coloredBlur"/>
      <feMerge>
        <feMergeNode in="coloredBlur"/>
        <feMergeNode in="SourceGraphic"/>
      </feMerge>
    </filter>
    <filter id="softGlow">
      <feGaussianBlur stdDeviation="8" result="coloredBlur"/>
      <feMerge>
        <feMergeNode in="coloredBlur"/>
        <feMergeNode in="SourceGraphic"/>
      </feMerge>
    </filter>
    <filter id="shadow">
      <feDropShadow dx="0" dy="4" stdDeviation="8" flood-color="#000000" flood-opacity="0.5"/>
    </filter>
  </defs>

  <!-- Background -->
  <rect width="1200" height="630" fill="url(#bgGradient)"/>

  <!-- Decorative ocean gradients -->
  <ellipse cx="1000" cy="150" rx="300" ry="200" fill="url(#oceanGradient)" opacity="0.4"/>
  <ellipse cx="200" cy="530" rx="250" ry="180" fill="url(#oceanGradient)" opacity="0.3"/>

  <!-- Wave patterns -->
  <path d="M 0 400 Q 300 350 600 400 T 1200 400 L 1200 630 L 0 630 Z" fill="#1E90A0" opacity="0.08"/>
  <path d="M 0 450 Q 250 420 500 450 T 1000 450 T 1200 450 L 1200 630 L 0 630 Z" fill="#4FD1C5" opacity="0.05"/>

  <!-- Caviar roe particles -->
  <circle cx="854.8776168989581" cy="351.6442181123734" r="4.306818803995544" fill="#CFAE58" opacity="0.21756241623446068"/>
  <circle cx="954.5340392576898" cy="570.7815055112948" r="4.767859752122826" fill="#CFAE58" opacity="0.19012974755129847"/>
  <circle cx="35.82074902342334" cy="188.25254283977412" r="4.192476644260226" fill="#CFAE58" opacity="0.22277963880784052"/>
  <circle cx="528.6588444082597" cy="36.977800001573755" r="5.900541079021306" fill="#CFAE58" opacity="0.2022959711164925"/>
  <circle cx="778.0689717360115" cy="394.19293261613313" r="4.271543302937708" fill="#CFAE58" opacity="0.18392191667507163"/>
  <circle cx="794.7284771949018" cy="224.00167576756562" r="2.9971689234879864" fill="#CFAE58" opacity="0.23045747390328136"/>
  <circle cx="1105.3216040449722" cy="557.3847579145752" r="3.180750970045206" fill="#CFAE58" opacity="0.19912073021557342"/>
  <circle cx="574.6568576471652" cy="474.08029878161545" r="2.37951833470889" fill="#CFAE58" opacity="0.1805869576569311"/>
  <circle cx="508.8963016799044" cy="7.7281232585228565" r="4.938768781078132" fill="#CFAE58" opacity="0.11817812846457296"/>
  <circle cx="141.00805354756343" cy="146.0070304172576" r="4.404069774993753" fill="#CFAE58" opacity="0.1096291070969674"/>
  <circle cx="577.3816033959276" cy="399.22032783344804" r="2.4282659338600556" fill="#CFAE58" opacity="0.1420895635047102"/>
  <circle cx="938.0535479480367" cy="581.4449542761336" r="2.040445876871948" fill="#CFAE58" opacity="0.24652085449965544"/>
  <circle cx="42.02183807465718" cy="289.56131494079585" r="3.2789617414088075" fill="#CFAE58" opacity="0.1255450736676672"/>
  <circle cx="1034.0218522579858" cy="255.31427217428347" r="2.717339796486692" fill="#CFAE58" opacity="0.1778940643175297"/>
  <circle cx="991.308042249485" cy="69.32849480132923" r="2.2525524487207473" fill="#CFAE58" opacity="0.12576630394776564"/>
  <circle cx="348.1868424956327" cy="593.2741100839178" r="5.930977465128558" fill="#CFAE58" opacity="0.12473082770838383"/>
  <circle cx="847.9444592840833" cy="426.1381397135469" r="4.373330381062587" fill="#CFAE58" opacity="0.10829157006824237"/>
  <circle cx="484.293078578603" cy="355.26570596528956" r="4.581482563597235" fill="#CFAE58" opacity="0.1438909977336101"/>
  <circle cx="783.7496688155557" cy="7.964095822307055" r="2.86887434791903" fill="#CFAE58" opacity="0.1409848769195473"/>
  <circle cx="103.8086974797479" cy="245.41566958286802" r="2.9710804442453567" fill="#CFAE58" opacity="0.2470636186691253"/>
  <circle cx="1056.4462696162443" cy="457.28605473020235" r="5.1761653795199205" fill="#CFAE58" opacity="0.19779287272434617"/>
  <circle cx="1030.603653836986" cy="300.3182658804994" r="4.77486088920738" fill="#CFAE58" opacity="0.14490592828267249"/>
  <circle cx="412.27035528845823" cy="257.09139864440635" r="5.764576344559485" fill="#CFAE58" opacity="0.17659126702683198"/>
  <circle cx="445.4269662723134" cy="230.67259849363" r="2.8393999170890676" fill="#CFAE58" opacity="0.2195104296290944"/>
  <circle cx="270.11057575329306" cy="429.8380444386682" r="3.7038249862275006" fill="#CFAE58" opacity="0.12145117944378678"/>
  <circle cx="783.9776419063624" cy="150.56124555383892" r="3.9100994471140322" fill="#CFAE58" opacity="0.23089093438669162"/>
  <circle cx="548.743459750214" cy="226.17260390658478" r="4.75973730982952" fill="#CFAE58" opacity="0.10156551444625984"/>
  <circle cx="55.783470993661545" cy="535.5610589860567" r="4.138393570919545" fill="#CFAE58" opacity="0.158697376405852"/>
  <circle cx="201.4667663996521" cy="489.68289317111294" r="2.422109587133072" fill="#CFAE58" opacity="0.1494950450143226"/>
  <circle cx="45.93991416549423" cy="445.4336610637897" r="5.640435852461444" fill="#CFAE58" opacity="0.22260673433276845"/>

  <!-- Border with glow -->
  <rect x="40" y="40" width="1120" height="550" fill="none" stroke="url(#goldGradient)" stroke-width="3" rx="12" filter="url(#softGlow)"/>

  <!-- Icon circle with premium background -->
  <circle cx="150" cy="200" r="75" fill="#CFAE58" opacity="0.15" filter="url(#softGlow)"/>
  <circle cx="150" cy="200" r="70" fill="#CFAE58" opacity="0.25"/>
  <text x="150" y="235" font-size="90" text-anchor="middle" fill="#CFAE58" filter="url(#glow)">🔬</text>

  <!-- Premium logo (crown) with enhanced styling -->
  <g transform="translate(100, 70)">
    <path d="M 30 20 L 40 35 L 35 35 Z M 50 15 L 60 35 L 45 35 Z M 65 20 L 75 35 L 70 35 Z M 30 35 L 75 35 L 73 45 L 32 45 Z"
          fill="url(#goldGradient)" filter="url(#glow)" stroke="#B89842" stroke-width="0.5"/>
    <circle cx="40" cy="25" r="3" fill="#4FD1C5" filter="url(#glow)"/>
    <circle cx="52" cy="20" r="4" fill="#4FD1C5" filter="url(#glow)"/>
    <circle cx="65" cy="25" r="3" fill="#4FD1C5" filter="url(#glow)"/>
  </g>

  <!-- Title with shadow -->
  <text x="280" y="180" font-family="Georgia, serif" font-size="72" font-weight="bold"
        fill="url(#goldGradient)" filter="url(#shadow)">Our Science</text>

  <!-- Subtitle with subtle glow -->
  <text x="280" y="230" font-family="Arial, sans-serif" font-size="36"
        fill="#D6DEE6" opacity="0.95" filter="url(#softGlow)">Advanced Aquaculture Methodology</text>

  <!-- Brand name with letter spacing -->
  <text x="280" y="300" font-family="Georgia, serif" font-size="32" font-weight="bold"
        fill="#CFAE58" letter-spacing="4" filter="url(#glow)">ROYAL KETA</text>

  <!-- Russian tagline -->
  <text x="280" y="340" font-family="Arial, sans-serif" font-size="22" font-style="italic"
        fill="#8B95A1" opacity="0.8">От икринки к королевской</text>

  <!-- Location -->
  <text x="280" y="380" font-family="Arial, sans-serif" font-size="20"
        fill="#8B95A1" opacity="0.7">Невельский район, Сахалин</text>

  <!-- Website with glow -->
  <text x="100" y="570" font-family="Arial, sans-serif" font-size="30" font-weight="bold"
        fill="#4FD1C5" filter="url(#glow)">royalketa.com</text>

  <!-- Enhanced decorative salmon silhouette -->
  <g transform="translate(950, 480)" opacity="0.2" filter="url(#softGlow)">
    <ellipse cx="0" cy="0" rx="90" ry="35" fill="#CFAE58"/>
    <path d="M 90 0 L 120 -18 L 130 0 L 120 18 Z" fill="#CFAE58"/>
    <path d="M -25 -35 L 0 -45 L 25 -35 Z" fill="#CFAE58"/>
    <ellipse cx="-50" cy="0" rx="15" ry="12" fill="#0B0F14"/>
  </g>

  <!-- Additional decorative caviar clusters -->
  <g opacity="0.2">
    <circle cx="1050" cy="120" r="6" fill="#CFAE58"/>
    <circle cx="1065" cy="115" r="5" fill="#CFAE58"/>
    <circle cx="1058" cy="130" r="4" fill="#CFAE58"/>
    <circle cx="150" cy="500" r="5" fill="#4FD1C5"/>
    <circle cx="165" cy="508" r="4" fill="#4FD1C5"/>
    <circle cx="140" cy="512" r="5" fill="#4FD1C5"/>
  </g>
</svg>