<svg width="1200" height="630" xmlns="http://www.w3.org/2000/svg">
  <defs>
    <linearGradient id="bgGradient" x1="0%" y1="0%" x2="100%" y2="100%">
      <stop offset="0%" style="stop-color:#0B0F14;stop-opacity:1" />
      <stop offset="50%" style="stop-color:#0F1619;stop-opacity:1" />
      <stop offset="100%" style="stop-color:#0F1922;stop-opacity:1" />
    </linearGradient>
    <linearGradient id="goldGradient" x1="0%" y1="0%" x2="100%" y2="0%">
      <stop offset="0%" style="stop-color:#E5D596;stop-opacity:1" />
      <stop offset="50%" style="stop-color:#CFAE58;stop-opacity:1" />
      <stop offset="100%" style="stop-color:#B89842;stop-opacity:1" />
    </linearGradient>
    <radialGradient id="oceanGradient" cx="50%" cy="50%" r="50%">
      <stop offset="0%" style="stop-color:#4FD1C5;stop-opacity:0.3" />
      <stop offset="100%" style="stop-color:#1E90A0;stop-opacity:0.05" />
    </radialGradient>
    <filter id="glow">
      <feGaussianBlur stdDeviation="5" result="coloredBlur"/>
      <feMerge>
        <feMergeNode in="coloredBlur"/>
        <feMergeNode in="SourceGraphic"/>
      </feMerge>
    </filter>
    <filter id="softGlow">
      <feGaussianBlur stdDeviation="8" result="coloredBlur"/>
      <feMerge>
        <feMergeNode in="coloredBlur"/>
        <feMergeNode in="SourceGraphic"/>
      </feMerge>
    </filter>
    <filter id="shadow">
      <feDropShadow dx="0" dy="4" stdDeviation="8" flood-color="#000000" flood-opacity="0.5"/>
    </filter>
  </defs>

  <!-- Background -->
  <rect width="1200" height="630" fill="url(#bgGradient)"/>

  <!-- Decorative ocean gradients -->
  <ellipse cx="1000" cy="150" rx="300" ry="200" fill="url(#oceanGradient)" opacity="0.4"/>
  <ellipse cx="200" cy="530" rx="250" ry="180" fill="url(#oceanGradient)" opacity="0.3"/>

  <!-- Wave patterns -->
  <path d="M 0 400 Q 300 350 600 400 T 1200 400 L 1200 630 L 0 630 Z" fill="#1E90A0" opacity="0.08"/>
  <path d="M 0 450 Q 250 420 500 450 T 1000 450 T 1200 450 L 1200 630 L 0 630 Z" fill="#4FD1C5" opacity="0.05"/>

  <!-- Caviar roe particles -->
  <circle cx="649.4753144128515" cy="293.49006146329367" r="3.5844877225183964" fill="#CFAE58" opacity="0.12592384056735761"/>
  <circle cx="705.7867346950812" cy="479.77049543718664" r="3.357110982293741" fill="#CFAE58" opacity="0.10676404160777628"/>
  <circle cx="918.7859915090083" cy="486.0118027909214" r="3.3616825758484485" fill="#CFAE58" opacity="0.2309178763917612"/>
  <circle cx="350.51661872471095" cy="1.7097374112136565" r="2.169790865233298" fill="#CFAE58" opacity="0.23411797759137293"/>
  <circle cx="586.6044774295312" cy="502.3131993597629" r="4.037528610553629" fill="#CFAE58" opacity="0.1352745612814352"/>
  <circle cx="885.9520930811211" cy="515.2546069526318" r="2.5009705057640343" fill="#CFAE58" opacity="0.20546006429983035"/>
  <circle cx="275.27341765673947" cy="356.3671592304761" r="3.594184779459735" fill="#CFAE58" opacity="0.24547261101334014"/>
  <circle cx="389.2959311446731" cy="211.31092745153668" r="4.405397711576544" fill="#CFAE58" opacity="0.18345956669941307"/>
  <circle cx="857.3741384302289" cy="203.16556228106282" r="2.7438668235963104" fill="#CFAE58" opacity="0.14941095998096568"/>
  <circle cx="710.3771099448857" cy="92.78420055610506" r="5.062466833280606" fill="#CFAE58" opacity="0.2080378836613603"/>
  <circle cx="553.6889151757149" cy="501.8173615619855" r="5.6836210903066" fill="#CFAE58" opacity="0.19359719899347277"/>
  <circle cx="925.5317246872436" cy="550.3645132004456" r="2.9359450958961433" fill="#CFAE58" opacity="0.12864632899768097"/>
  <circle cx="38.74983969366532" cy="282.92349492126453" r="3.424725118311232" fill="#CFAE58" opacity="0.22633726584719066"/>
  <circle cx="321.9653294122928" cy="409.036997613046" r="3.624799023188688" fill="#CFAE58" opacity="0.2288667875906423"/>
  <circle cx="209.07405346531044" cy="208.42586315005747" r="2.7716819220854334" fill="#CFAE58" opacity="0.2116709623913236"/>
  <circle cx="345.2370321266598" cy="199.34492337870154" r="4.393736603819534" fill="#CFAE58" opacity="0.2475445843294275"/>
  <circle cx="321.3642812055219" cy="285.69396500638965" r="3.702866726340039" fill="#CFAE58" opacity="0.10808918623732504"/>
  <circle cx="795.0052905860923" cy="271.66358680878454" r="2.1043480659703384" fill="#CFAE58" opacity="0.14064880927810694"/>
  <circle cx="614.6356707033962" cy="591.0310165782174" r="3.6145477674547344" fill="#CFAE58" opacity="0.15467344742688288"/>
  <circle cx="872.5282431876761" cy="484.25307485714944" r="3.9418749858351134" fill="#CFAE58" opacity="0.14098141771547917"/>
  <circle cx="970.1365845292465" cy="504.59805539872997" r="2.598441671010514" fill="#CFAE58" opacity="0.1530647104031187"/>
  <circle cx="177.3501416867294" cy="601.2263431759548" r="3.4977162149851972" fill="#CFAE58" opacity="0.1653056520649795"/>
  <circle cx="1139.3216749438411" cy="341.9472271751037" r="4.2674340771084935" fill="#CFAE58" opacity="0.18007955983789725"/>
  <circle cx="871.5650977667959" cy="78.68001878496587" r="5.7342921661428505" fill="#CFAE58" opacity="0.11718224745712044"/>
  <circle cx="810.1114329864755" cy="115.22033239148693" r="4.816619497258525" fill="#CFAE58" opacity="0.17843358735375578"/>
  <circle cx="12.540607453429775" cy="144.03985112836165" r="4.411232774106345" fill="#CFAE58" opacity="0.18617288831948864"/>
  <circle cx="163.44568782615684" cy="516.0878667139937" r="4.348759839733358" fill="#CFAE58" opacity="0.19748431232751723"/>
  <circle cx="244.37241787485254" cy="436.6436071740182" r="5.821596357700006" fill="#CFAE58" opacity="0.11008478995423246"/>
  <circle cx="1122.9492244501319" cy="363.8510834537942" r="2.1023828885849474" fill="#CFAE58" opacity="0.22610266672378643"/>
  <circle cx="266.72357247879245" cy="382.81235055817234" r="2.5058429301095564" fill="#CFAE58" opacity="0.1293875969454644"/>

  <!-- Border with glow -->
  <rect x="40" y="40" width="1120" height="550" fill="none" stroke="url(#goldGradient)" stroke-width="3" rx="12" filter="url(#softGlow)"/>

  <!-- Icon circle with premium background -->
  <circle cx="150" cy="200" r="75" fill="#CFAE58" opacity="0.15" filter="url(#softGlow)"/>
  <circle cx="150" cy="200" r="70" fill="#CFAE58" opacity="0.25"/>
  <text x="150" y="235" font-size="90" text-anchor="middle" fill="#CFAE58" filter="url(#glow)">🔬</text>

  <!-- Premium logo (crown) with enhanced styling -->
  <g transform="translate(100, 70)">
    <path d="M 30 20 L 40 35 L 35 35 Z M 50 15 L 60 35 L 45 35 Z M 65 20 L 75 35 L 70 35 Z M 30 35 L 75 35 L 73 45 L 32 45 Z"
          fill="url(#goldGradient)" filter="url(#glow)" stroke="#B89842" stroke-width="0.5"/>
    <circle cx="40" cy="25" r="3" fill="#4FD1C5" filter="url(#glow)"/>
    <circle cx="52" cy="20" r="4" fill="#4FD1C5" filter="url(#glow)"/>
    <circle cx="65" cy="25" r="3" fill="#4FD1C5" filter="url(#glow)"/>
  </g>

  <!-- Title with shadow -->
  <text x="280" y="180" font-family="Georgia, serif" font-size="72" font-weight="bold"
        fill="url(#goldGradient)" filter="url(#shadow)">Our Science</text>

  <!-- Subtitle with subtle glow -->
  <text x="280" y="230" font-family="Arial, sans-serif" font-size="36"
        fill="#D6DEE6" opacity="0.95" filter="url(#softGlow)">Advanced Aquaculture Methodology</text>

  <!-- Brand name with letter spacing -->
  <text x="280" y="300" font-family="Georgia, serif" font-size="32" font-weight="bold"
        fill="#CFAE58" letter-spacing="4" filter="url(#glow)">ROYAL KETA</text>

  <!-- Russian tagline -->
  <text x="280" y="340" font-family="Arial, sans-serif" font-size="22" font-style="italic"
        fill="#8B95A1" opacity="0.8">От икринки к королевской</text>

  <!-- Location -->
  <text x="280" y="380" font-family="Arial, sans-serif" font-size="20"
        fill="#8B95A1" opacity="0.7">Невельский район, Сахалин</text>

  <!-- Website with glow -->
  <text x="100" y="570" font-family="Arial, sans-serif" font-size="30" font-weight="bold"
        fill="#4FD1C5" filter="url(#glow)">royalketa.com</text>

  <!-- Enhanced decorative salmon silhouette -->
  <g transform="translate(950, 480)" opacity="0.2" filter="url(#softGlow)">
    <ellipse cx="0" cy="0" rx="90" ry="35" fill="#CFAE58"/>
    <path d="M 90 0 L 120 -18 L 130 0 L 120 18 Z" fill="#CFAE58"/>
    <path d="M -25 -35 L 0 -45 L 25 -35 Z" fill="#CFAE58"/>
    <ellipse cx="-50" cy="0" rx="15" ry="12" fill="#0B0F14"/>
  </g>

  <!-- Additional decorative caviar clusters -->
  <g opacity="0.2">
    <circle cx="1050" cy="120" r="6" fill="#CFAE58"/>
    <circle cx="1065" cy="115" r="5" fill="#CFAE58"/>
    <circle cx="1058" cy="130" r="4" fill="#CFAE58"/>
    <circle cx="150" cy="500" r="5" fill="#4FD1C5"/>
    <circle cx="165" cy="508" r="4" fill="#4FD1C5"/>
    <circle cx="140" cy="512" r="5" fill="#4FD1C5"/>
  </g>
</svg>