<svg width="1200" height="630" xmlns="http://www.w3.org/2000/svg">
  <defs>
    <linearGradient id="bgGradient" x1="0%" y1="0%" x2="100%" y2="100%">
      <stop offset="0%" style="stop-color:#0B0F14;stop-opacity:1" />
      <stop offset="50%" style="stop-color:#0F1619;stop-opacity:1" />
      <stop offset="100%" style="stop-color:#0F1922;stop-opacity:1" />
    </linearGradient>
    <linearGradient id="goldGradient" x1="0%" y1="0%" x2="100%" y2="0%">
      <stop offset="0%" style="stop-color:#E5D596;stop-opacity:1" />
      <stop offset="50%" style="stop-color:#CFAE58;stop-opacity:1" />
      <stop offset="100%" style="stop-color:#B89842;stop-opacity:1" />
    </linearGradient>
    <radialGradient id="oceanGradient" cx="50%" cy="50%" r="50%">
      <stop offset="0%" style="stop-color:#4FD1C5;stop-opacity:0.3" />
      <stop offset="100%" style="stop-color:#1E90A0;stop-opacity:0.05" />
    </radialGradient>
    <filter id="glow">
      <feGaussianBlur stdDeviation="5" result="coloredBlur"/>
      <feMerge>
        <feMergeNode in="coloredBlur"/>
        <feMergeNode in="SourceGraphic"/>
      </feMerge>
    </filter>
    <filter id="softGlow">
      <feGaussianBlur stdDeviation="8" result="coloredBlur"/>
      <feMerge>
        <feMergeNode in="coloredBlur"/>
        <feMergeNode in="SourceGraphic"/>
      </feMerge>
    </filter>
    <filter id="shadow">
      <feDropShadow dx="0" dy="4" stdDeviation="8" flood-color="#000000" flood-opacity="0.5"/>
    </filter>
  </defs>

  <!-- Background -->
  <rect width="1200" height="630" fill="url(#bgGradient)"/>

  <!-- Decorative ocean gradients -->
  <ellipse cx="1000" cy="150" rx="300" ry="200" fill="url(#oceanGradient)" opacity="0.4"/>
  <ellipse cx="200" cy="530" rx="250" ry="180" fill="url(#oceanGradient)" opacity="0.3"/>

  <!-- Wave patterns -->
  <path d="M 0 400 Q 300 350 600 400 T 1200 400 L 1200 630 L 0 630 Z" fill="#1E90A0" opacity="0.08"/>
  <path d="M 0 450 Q 250 420 500 450 T 1000 450 T 1200 450 L 1200 630 L 0 630 Z" fill="#4FD1C5" opacity="0.05"/>

  <!-- Caviar roe particles -->
  <circle cx="334.0967850977324" cy="112.21462436158839" r="3.5112290576273413" fill="#CFAE58" opacity="0.20056173623712636"/>
  <circle cx="343.756700824231" cy="586.0954608507092" r="4.2038694218573145" fill="#CFAE58" opacity="0.18211634636445323"/>
  <circle cx="720.712937924515" cy="558.2877169139872" r="4.339665857389056" fill="#CFAE58" opacity="0.18541287006635698"/>
  <circle cx="423.5587646098398" cy="410.8168529669384" r="2.341007667418858" fill="#CFAE58" opacity="0.14969044159722603"/>
  <circle cx="488.7562813582865" cy="350.0949957146009" r="4.718590877916055" fill="#CFAE58" opacity="0.21356606872972245"/>
  <circle cx="802.3825803779713" cy="101.03829708404535" r="4.609144756324848" fill="#CFAE58" opacity="0.18821787416128527"/>
  <circle cx="1098.5443857482876" cy="340.703155633053" r="2.0093929184602266" fill="#CFAE58" opacity="0.198171106171133"/>
  <circle cx="916.174277130994" cy="263.36725584715333" r="4.667534833417646" fill="#CFAE58" opacity="0.12846002475222745"/>
  <circle cx="259.77153922441096" cy="20.69799999179094" r="2.1884523388900625" fill="#CFAE58" opacity="0.14849089393305046"/>
  <circle cx="385.5013919728176" cy="195.75307673929044" r="4.282487183129129" fill="#CFAE58" opacity="0.23293462839194107"/>
  <circle cx="914.5215086233259" cy="534.6446027871012" r="4.813049641092244" fill="#CFAE58" opacity="0.18461441377618099"/>
  <circle cx="160.38251277324832" cy="142.77451939238776" r="4.287584085634993" fill="#CFAE58" opacity="0.1127882851537742"/>
  <circle cx="496.41951527116606" cy="394.6947708409715" r="4.457148232998126" fill="#CFAE58" opacity="0.12693451164498432"/>
  <circle cx="1065.309523761526" cy="320.4458830727388" r="3.960343889927987" fill="#CFAE58" opacity="0.12053981770075166"/>
  <circle cx="78.56015789872251" cy="152.25654299456815" r="4.469732618053438" fill="#CFAE58" opacity="0.239044612169687"/>
  <circle cx="594.3627910139735" cy="67.88227616373645" r="2.7788998270413297" fill="#CFAE58" opacity="0.13932271143283925"/>
  <circle cx="913.6330158513465" cy="391.16898374045815" r="5.458392860931111" fill="#CFAE58" opacity="0.1571407103534788"/>
  <circle cx="234.93326537412847" cy="338.4998842137135" r="4.300131396681055" fill="#CFAE58" opacity="0.14163482843776992"/>
  <circle cx="532.9414339024225" cy="351.9138912482335" r="3.103039133988227" fill="#CFAE58" opacity="0.1583986044722431"/>
  <circle cx="964.8505081812128" cy="16.78869308259061" r="5.858180161418473" fill="#CFAE58" opacity="0.15761309096794937"/>
  <circle cx="574.2981350101014" cy="628.717082138112" r="4.312950644598409" fill="#CFAE58" opacity="0.11855855208019157"/>
  <circle cx="609.1329632422434" cy="100.05291941922795" r="5.981583281484445" fill="#CFAE58" opacity="0.15682128750588156"/>
  <circle cx="1187.86431137126" cy="532.5818028708192" r="3.5089160307631015" fill="#CFAE58" opacity="0.18144712215085904"/>
  <circle cx="149.60274052188188" cy="279.2355889162208" r="5.657378920467251" fill="#CFAE58" opacity="0.19833779758969272"/>
  <circle cx="454.7022592892734" cy="458.2331630443635" r="4.858345236370093" fill="#CFAE58" opacity="0.13264003810992558"/>
  <circle cx="757.4079220052138" cy="617.4799523022384" r="4.302254095942957" fill="#CFAE58" opacity="0.21017289462364214"/>
  <circle cx="678.2498001660152" cy="518.7764842829631" r="4.635262926724476" fill="#CFAE58" opacity="0.10686111649130206"/>
  <circle cx="1005.2817047051659" cy="238.8988226282232" r="5.528546971659539" fill="#CFAE58" opacity="0.1214388008466096"/>
  <circle cx="690.8715729540223" cy="435.76272928458553" r="5.5302094288511565" fill="#CFAE58" opacity="0.11336078538056418"/>
  <circle cx="350.50445677589346" cy="388.44891750798706" r="3.6669310288284054" fill="#CFAE58" opacity="0.19691901780568555"/>

  <!-- Border with glow -->
  <rect x="40" y="40" width="1120" height="550" fill="none" stroke="url(#goldGradient)" stroke-width="3" rx="12" filter="url(#softGlow)"/>

  <!-- Icon circle with premium background -->
  <circle cx="150" cy="200" r="75" fill="#CFAE58" opacity="0.15" filter="url(#softGlow)"/>
  <circle cx="150" cy="200" r="70" fill="#CFAE58" opacity="0.25"/>
  <text x="150" y="235" font-size="90" text-anchor="middle" fill="#CFAE58" filter="url(#glow)">🔬</text>

  <!-- Premium logo (crown) with enhanced styling -->
  <g transform="translate(100, 70)">
    <path d="M 30 20 L 40 35 L 35 35 Z M 50 15 L 60 35 L 45 35 Z M 65 20 L 75 35 L 70 35 Z M 30 35 L 75 35 L 73 45 L 32 45 Z"
          fill="url(#goldGradient)" filter="url(#glow)" stroke="#B89842" stroke-width="0.5"/>
    <circle cx="40" cy="25" r="3" fill="#4FD1C5" filter="url(#glow)"/>
    <circle cx="52" cy="20" r="4" fill="#4FD1C5" filter="url(#glow)"/>
    <circle cx="65" cy="25" r="3" fill="#4FD1C5" filter="url(#glow)"/>
  </g>

  <!-- Title with shadow -->
  <text x="280" y="180" font-family="Georgia, serif" font-size="72" font-weight="bold"
        fill="url(#goldGradient)" filter="url(#shadow)">Our Science</text>

  <!-- Subtitle with subtle glow -->
  <text x="280" y="230" font-family="Arial, sans-serif" font-size="36"
        fill="#D6DEE6" opacity="0.95" filter="url(#softGlow)">Advanced Aquaculture Methodology</text>

  <!-- Brand name with letter spacing -->
  <text x="280" y="300" font-family="Georgia, serif" font-size="32" font-weight="bold"
        fill="#CFAE58" letter-spacing="4" filter="url(#glow)">ROYAL KETA</text>

  <!-- Russian tagline -->
  <text x="280" y="340" font-family="Arial, sans-serif" font-size="22" font-style="italic"
        fill="#8B95A1" opacity="0.8">От икринки к королевской</text>

  <!-- Location -->
  <text x="280" y="380" font-family="Arial, sans-serif" font-size="20"
        fill="#8B95A1" opacity="0.7">Невельский район, Сахалин</text>

  <!-- Website with glow -->
  <text x="100" y="570" font-family="Arial, sans-serif" font-size="30" font-weight="bold"
        fill="#4FD1C5" filter="url(#glow)">royalketa.com</text>

  <!-- Enhanced decorative salmon silhouette -->
  <g transform="translate(950, 480)" opacity="0.2" filter="url(#softGlow)">
    <ellipse cx="0" cy="0" rx="90" ry="35" fill="#CFAE58"/>
    <path d="M 90 0 L 120 -18 L 130 0 L 120 18 Z" fill="#CFAE58"/>
    <path d="M -25 -35 L 0 -45 L 25 -35 Z" fill="#CFAE58"/>
    <ellipse cx="-50" cy="0" rx="15" ry="12" fill="#0B0F14"/>
  </g>

  <!-- Additional decorative caviar clusters -->
  <g opacity="0.2">
    <circle cx="1050" cy="120" r="6" fill="#CFAE58"/>
    <circle cx="1065" cy="115" r="5" fill="#CFAE58"/>
    <circle cx="1058" cy="130" r="4" fill="#CFAE58"/>
    <circle cx="150" cy="500" r="5" fill="#4FD1C5"/>
    <circle cx="165" cy="508" r="4" fill="#4FD1C5"/>
    <circle cx="140" cy="512" r="5" fill="#4FD1C5"/>
  </g>
</svg>