<svg width="1200" height="630" xmlns="http://www.w3.org/2000/svg">
  <defs>
    <linearGradient id="bgGradient" x1="0%" y1="0%" x2="100%" y2="100%">
      <stop offset="0%" style="stop-color:#0B0F14;stop-opacity:1" />
      <stop offset="50%" style="stop-color:#0F1619;stop-opacity:1" />
      <stop offset="100%" style="stop-color:#0F1922;stop-opacity:1" />
    </linearGradient>
    <linearGradient id="goldGradient" x1="0%" y1="0%" x2="100%" y2="0%">
      <stop offset="0%" style="stop-color:#E5D596;stop-opacity:1" />
      <stop offset="50%" style="stop-color:#CFAE58;stop-opacity:1" />
      <stop offset="100%" style="stop-color:#B89842;stop-opacity:1" />
    </linearGradient>
    <radialGradient id="oceanGradient" cx="50%" cy="50%" r="50%">
      <stop offset="0%" style="stop-color:#4FD1C5;stop-opacity:0.3" />
      <stop offset="100%" style="stop-color:#1E90A0;stop-opacity:0.05" />
    </radialGradient>
    <filter id="glow">
      <feGaussianBlur stdDeviation="5" result="coloredBlur"/>
      <feMerge>
        <feMergeNode in="coloredBlur"/>
        <feMergeNode in="SourceGraphic"/>
      </feMerge>
    </filter>
    <filter id="softGlow">
      <feGaussianBlur stdDeviation="8" result="coloredBlur"/>
      <feMerge>
        <feMergeNode in="coloredBlur"/>
        <feMergeNode in="SourceGraphic"/>
      </feMerge>
    </filter>
    <filter id="shadow">
      <feDropShadow dx="0" dy="4" stdDeviation="8" flood-color="#000000" flood-opacity="0.5"/>
    </filter>
  </defs>

  <!-- Background -->
  <rect width="1200" height="630" fill="url(#bgGradient)"/>

  <!-- Decorative ocean gradients -->
  <ellipse cx="1000" cy="150" rx="300" ry="200" fill="url(#oceanGradient)" opacity="0.4"/>
  <ellipse cx="200" cy="530" rx="250" ry="180" fill="url(#oceanGradient)" opacity="0.3"/>

  <!-- Wave patterns -->
  <path d="M 0 400 Q 300 350 600 400 T 1200 400 L 1200 630 L 0 630 Z" fill="#1E90A0" opacity="0.08"/>
  <path d="M 0 450 Q 250 420 500 450 T 1000 450 T 1200 450 L 1200 630 L 0 630 Z" fill="#4FD1C5" opacity="0.05"/>

  <!-- Caviar roe particles -->
  <circle cx="310.4888195771012" cy="204.44257941585266" r="2.984836187507735" fill="#CFAE58" opacity="0.1722131506889782"/>
  <circle cx="630.0904883011635" cy="538.749158121491" r="5.651777128153038" fill="#CFAE58" opacity="0.2482828463172039"/>
  <circle cx="1034.2989608688843" cy="296.49913561173804" r="5.002931306005155" fill="#CFAE58" opacity="0.2482289421855365"/>
  <circle cx="848.7640197533923" cy="0.9737170957105112" r="4.86217213114336" fill="#CFAE58" opacity="0.22150625829257456"/>
  <circle cx="1177.2058208684614" cy="328.86389283715346" r="2.9216471994108066" fill="#CFAE58" opacity="0.13984222984622297"/>
  <circle cx="543.0982650474614" cy="526.4907891256688" r="2.0345557408471593" fill="#CFAE58" opacity="0.13613015858709338"/>
  <circle cx="634.6528133272913" cy="225.4537242050597" r="2.4458121069485896" fill="#CFAE58" opacity="0.10366109468761874"/>
  <circle cx="942.2980537790464" cy="141.21603802136488" r="4.741022286999077" fill="#CFAE58" opacity="0.1286659238082342"/>
  <circle cx="1028.5280612784848" cy="374.0125937896661" r="2.3074156627772773" fill="#CFAE58" opacity="0.17520776419322925"/>
  <circle cx="643.1033284029924" cy="602.6430230084208" r="3.4730392165243233" fill="#CFAE58" opacity="0.17670962496016712"/>
  <circle cx="145.6879755780951" cy="205.17531734749122" r="4.186852827193082" fill="#CFAE58" opacity="0.17878043718059208"/>
  <circle cx="557.8338830906018" cy="214.29199450610614" r="5.6706356014566435" fill="#CFAE58" opacity="0.1844006987719065"/>
  <circle cx="1057.6384458260663" cy="525.4814760719263" r="2.1898795217322276" fill="#CFAE58" opacity="0.23999781398779466"/>
  <circle cx="157.2874206726746" cy="370.2365373611581" r="2.083112572654998" fill="#CFAE58" opacity="0.17970159243427708"/>
  <circle cx="304.7273824004968" cy="12.691972548454967" r="2.874639249991132" fill="#CFAE58" opacity="0.11782755568239792"/>
  <circle cx="801.3901967797618" cy="474.58816601197924" r="5.593242436357906" fill="#CFAE58" opacity="0.15287940197645644"/>
  <circle cx="189.2016781004989" cy="559.7764309695405" r="2.2355321724355735" fill="#CFAE58" opacity="0.17361634795862854"/>
  <circle cx="409.3898031327311" cy="325.0270498296593" r="3.1221816923102703" fill="#CFAE58" opacity="0.2173647232978882"/>
  <circle cx="390.1134770253475" cy="402.72588966264476" r="5.746374188633057" fill="#CFAE58" opacity="0.18523108715353587"/>
  <circle cx="585.9262002466749" cy="232.85800227181042" r="4.233190381060954" fill="#CFAE58" opacity="0.1871174920024508"/>
  <circle cx="856.7567123351132" cy="92.06720516345828" r="2.234553152096118" fill="#CFAE58" opacity="0.17571406965335096"/>
  <circle cx="506.8964314198174" cy="173.42299483594044" r="4.327889797562216" fill="#CFAE58" opacity="0.17022841535783684"/>
  <circle cx="375.80361834761385" cy="323.9654069425989" r="2.7758283059229156" fill="#CFAE58" opacity="0.1955799472362766"/>
  <circle cx="98.93911311704309" cy="394.0915697237744" r="5.4180037676716575" fill="#CFAE58" opacity="0.20878481440920232"/>
  <circle cx="153.3285520220852" cy="72.48827169669869" r="2.231517886862805" fill="#CFAE58" opacity="0.1705494181084238"/>
  <circle cx="664.8715470225852" cy="567.7000149544691" r="4.175304353717239" fill="#CFAE58" opacity="0.23042378483809686"/>
  <circle cx="47.90831185404416" cy="131.5077657527933" r="5.7239646038304794" fill="#CFAE58" opacity="0.14289852805036488"/>
  <circle cx="271.774094515201" cy="479.8308191979379" r="5.159251304705195" fill="#CFAE58" opacity="0.10150833202153457"/>
  <circle cx="407.9845367010628" cy="436.29781998345237" r="2.79947177583791" fill="#CFAE58" opacity="0.15264700397776731"/>
  <circle cx="1163.1785736442196" cy="293.89516568482543" r="2.2490680231238738" fill="#CFAE58" opacity="0.16251642830988627"/>

  <!-- Border with glow -->
  <rect x="40" y="40" width="1120" height="550" fill="none" stroke="url(#goldGradient)" stroke-width="3" rx="12" filter="url(#softGlow)"/>

  <!-- Icon circle with premium background -->
  <circle cx="150" cy="200" r="75" fill="#CFAE58" opacity="0.15" filter="url(#softGlow)"/>
  <circle cx="150" cy="200" r="70" fill="#CFAE58" opacity="0.25"/>
  <text x="150" y="235" font-size="90" text-anchor="middle" fill="#CFAE58" filter="url(#glow)">🔬</text>

  <!-- Premium logo (crown) with enhanced styling -->
  <g transform="translate(100, 70)">
    <path d="M 30 20 L 40 35 L 35 35 Z M 50 15 L 60 35 L 45 35 Z M 65 20 L 75 35 L 70 35 Z M 30 35 L 75 35 L 73 45 L 32 45 Z"
          fill="url(#goldGradient)" filter="url(#glow)" stroke="#B89842" stroke-width="0.5"/>
    <circle cx="40" cy="25" r="3" fill="#4FD1C5" filter="url(#glow)"/>
    <circle cx="52" cy="20" r="4" fill="#4FD1C5" filter="url(#glow)"/>
    <circle cx="65" cy="25" r="3" fill="#4FD1C5" filter="url(#glow)"/>
  </g>

  <!-- Title with shadow -->
  <text x="280" y="180" font-family="Georgia, serif" font-size="72" font-weight="bold"
        fill="url(#goldGradient)" filter="url(#shadow)">Our Science</text>

  <!-- Subtitle with subtle glow -->
  <text x="280" y="230" font-family="Arial, sans-serif" font-size="36"
        fill="#D6DEE6" opacity="0.95" filter="url(#softGlow)">Advanced Aquaculture Methodology</text>

  <!-- Brand name with letter spacing -->
  <text x="280" y="300" font-family="Georgia, serif" font-size="32" font-weight="bold"
        fill="#CFAE58" letter-spacing="4" filter="url(#glow)">ROYAL KETA</text>

  <!-- Russian tagline -->
  <text x="280" y="340" font-family="Arial, sans-serif" font-size="22" font-style="italic"
        fill="#8B95A1" opacity="0.8">От икринки к королевской</text>

  <!-- Location -->
  <text x="280" y="380" font-family="Arial, sans-serif" font-size="20"
        fill="#8B95A1" opacity="0.7">Невельский район, Сахалин</text>

  <!-- Website with glow -->
  <text x="100" y="570" font-family="Arial, sans-serif" font-size="30" font-weight="bold"
        fill="#4FD1C5" filter="url(#glow)">royalketa.com</text>

  <!-- Enhanced decorative salmon silhouette -->
  <g transform="translate(950, 480)" opacity="0.2" filter="url(#softGlow)">
    <ellipse cx="0" cy="0" rx="90" ry="35" fill="#CFAE58"/>
    <path d="M 90 0 L 120 -18 L 130 0 L 120 18 Z" fill="#CFAE58"/>
    <path d="M -25 -35 L 0 -45 L 25 -35 Z" fill="#CFAE58"/>
    <ellipse cx="-50" cy="0" rx="15" ry="12" fill="#0B0F14"/>
  </g>

  <!-- Additional decorative caviar clusters -->
  <g opacity="0.2">
    <circle cx="1050" cy="120" r="6" fill="#CFAE58"/>
    <circle cx="1065" cy="115" r="5" fill="#CFAE58"/>
    <circle cx="1058" cy="130" r="4" fill="#CFAE58"/>
    <circle cx="150" cy="500" r="5" fill="#4FD1C5"/>
    <circle cx="165" cy="508" r="4" fill="#4FD1C5"/>
    <circle cx="140" cy="512" r="5" fill="#4FD1C5"/>
  </g>
</svg>