<svg width="1200" height="630" xmlns="http://www.w3.org/2000/svg">
  <defs>
    <linearGradient id="bgGradient" x1="0%" y1="0%" x2="100%" y2="100%">
      <stop offset="0%" style="stop-color:#0B0F14;stop-opacity:1" />
      <stop offset="50%" style="stop-color:#0F1619;stop-opacity:1" />
      <stop offset="100%" style="stop-color:#0F1922;stop-opacity:1" />
    </linearGradient>
    <linearGradient id="goldGradient" x1="0%" y1="0%" x2="100%" y2="0%">
      <stop offset="0%" style="stop-color:#E5D596;stop-opacity:1" />
      <stop offset="50%" style="stop-color:#CFAE58;stop-opacity:1" />
      <stop offset="100%" style="stop-color:#B89842;stop-opacity:1" />
    </linearGradient>
    <radialGradient id="oceanGradient" cx="50%" cy="50%" r="50%">
      <stop offset="0%" style="stop-color:#4FD1C5;stop-opacity:0.3" />
      <stop offset="100%" style="stop-color:#1E90A0;stop-opacity:0.05" />
    </radialGradient>
    <filter id="glow">
      <feGaussianBlur stdDeviation="5" result="coloredBlur"/>
      <feMerge>
        <feMergeNode in="coloredBlur"/>
        <feMergeNode in="SourceGraphic"/>
      </feMerge>
    </filter>
    <filter id="softGlow">
      <feGaussianBlur stdDeviation="8" result="coloredBlur"/>
      <feMerge>
        <feMergeNode in="coloredBlur"/>
        <feMergeNode in="SourceGraphic"/>
      </feMerge>
    </filter>
    <filter id="shadow">
      <feDropShadow dx="0" dy="4" stdDeviation="8" flood-color="#000000" flood-opacity="0.5"/>
    </filter>
  </defs>

  <!-- Background -->
  <rect width="1200" height="630" fill="url(#bgGradient)"/>

  <!-- Decorative ocean gradients -->
  <ellipse cx="1000" cy="150" rx="300" ry="200" fill="url(#oceanGradient)" opacity="0.4"/>
  <ellipse cx="200" cy="530" rx="250" ry="180" fill="url(#oceanGradient)" opacity="0.3"/>

  <!-- Wave patterns -->
  <path d="M 0 400 Q 300 350 600 400 T 1200 400 L 1200 630 L 0 630 Z" fill="#1E90A0" opacity="0.08"/>
  <path d="M 0 450 Q 250 420 500 450 T 1000 450 T 1200 450 L 1200 630 L 0 630 Z" fill="#4FD1C5" opacity="0.05"/>

  <!-- Caviar roe particles -->
  <circle cx="1127.8542037404707" cy="572.040631947147" r="2.6008616660085524" fill="#CFAE58" opacity="0.15168776965163389"/>
  <circle cx="402.81817969497115" cy="133.2764408013982" r="4.334351998995093" fill="#CFAE58" opacity="0.10163587267874663"/>
  <circle cx="91.70558689369076" cy="140.59526081388137" r="2.5353331732608266" fill="#CFAE58" opacity="0.2274944918431975"/>
  <circle cx="1055.1394135509709" cy="479.8636598975108" r="3.215589728515819" fill="#CFAE58" opacity="0.17393188968685597"/>
  <circle cx="375.17340281782356" cy="189.12899905951284" r="3.96148699773991" fill="#CFAE58" opacity="0.2230396844926826"/>
  <circle cx="704.9263325110826" cy="599.6043805494763" r="4.621693972596923" fill="#CFAE58" opacity="0.175045093834801"/>
  <circle cx="412.6362561416024" cy="124.31879368449283" r="4.3102416868347735" fill="#CFAE58" opacity="0.10907117152682055"/>
  <circle cx="594.7897744885541" cy="242.67466864583608" r="4.517154569549539" fill="#CFAE58" opacity="0.21594136401691846"/>
  <circle cx="741.2219495879993" cy="502.1513824391511" r="3.394199391989784" fill="#CFAE58" opacity="0.19785614364354326"/>
  <circle cx="868.1216636932827" cy="85.67929027406637" r="5.388378268520101" fill="#CFAE58" opacity="0.18196938833700269"/>
  <circle cx="554.2330948710079" cy="475.0428914619354" r="5.9495121463012035" fill="#CFAE58" opacity="0.20528808635352414"/>
  <circle cx="1066.526223505479" cy="171.9801692648724" r="5.115524949508272" fill="#CFAE58" opacity="0.16489626031452742"/>
  <circle cx="1062.0631161431725" cy="434.23562383290437" r="3.7145944821715426" fill="#CFAE58" opacity="0.13787666466722373"/>
  <circle cx="799.4854730946555" cy="453.725912919744" r="2.768450327216404" fill="#CFAE58" opacity="0.17481447990575816"/>
  <circle cx="142.37498987725684" cy="6.310687609542396" r="2.0810122971937" fill="#CFAE58" opacity="0.19853326712660907"/>
  <circle cx="795.081427281762" cy="147.75307440061937" r="2.217129037607421" fill="#CFAE58" opacity="0.13475819305097367"/>
  <circle cx="483.1039408525738" cy="113.21953075350746" r="3.36619907316131" fill="#CFAE58" opacity="0.21167991962064497"/>
  <circle cx="86.31419891011004" cy="576.1803810928583" r="4.052048435640176" fill="#CFAE58" opacity="0.18193549308736628"/>
  <circle cx="563.75376327471" cy="136.14432027256942" r="5.95068869703566" fill="#CFAE58" opacity="0.23784496417230797"/>
  <circle cx="268.74821416914074" cy="314.6654722302637" r="4.120046975374573" fill="#CFAE58" opacity="0.24147654834876578"/>
  <circle cx="20.1106949181586" cy="566.3948395472622" r="5.499297256764755" fill="#CFAE58" opacity="0.12197024426510572"/>
  <circle cx="682.8414085236816" cy="458.60511013991834" r="4.068932860390142" fill="#CFAE58" opacity="0.16664413769431144"/>
  <circle cx="867.9667426247788" cy="537.0452411138031" r="5.498004788181119" fill="#CFAE58" opacity="0.1137077702093127"/>
  <circle cx="456.04643780991677" cy="582.8778387713692" r="3.8891467851912997" fill="#CFAE58" opacity="0.1575177722200648"/>
  <circle cx="1152.8746511244829" cy="500.5389282995127" r="2.8611645876361544" fill="#CFAE58" opacity="0.14734650864627924"/>
  <circle cx="230.04446108851164" cy="112.46369458343042" r="3.6283170964324114" fill="#CFAE58" opacity="0.12932470679769023"/>
  <circle cx="964.8770704461147" cy="309.11137706497635" r="4.484076586952491" fill="#CFAE58" opacity="0.11948472425311034"/>
  <circle cx="791.5865552031515" cy="338.7244499435605" r="4.8983257264110165" fill="#CFAE58" opacity="0.14050556649369483"/>
  <circle cx="961.2337864805127" cy="240.3486019241021" r="2.1650160070693323" fill="#CFAE58" opacity="0.11648731467028726"/>
  <circle cx="70.9081792544687" cy="182.54679435130228" r="3.8975225621554843" fill="#CFAE58" opacity="0.13709178651222093"/>

  <!-- Border with glow -->
  <rect x="40" y="40" width="1120" height="550" fill="none" stroke="url(#goldGradient)" stroke-width="3" rx="12" filter="url(#softGlow)"/>

  <!-- Icon circle with premium background -->
  <circle cx="150" cy="200" r="75" fill="#CFAE58" opacity="0.15" filter="url(#softGlow)"/>
  <circle cx="150" cy="200" r="70" fill="#CFAE58" opacity="0.25"/>
  <text x="150" y="235" font-size="90" text-anchor="middle" fill="#CFAE58" filter="url(#glow)">🔬</text>

  <!-- Premium logo (crown) with enhanced styling -->
  <g transform="translate(100, 70)">
    <path d="M 30 20 L 40 35 L 35 35 Z M 50 15 L 60 35 L 45 35 Z M 65 20 L 75 35 L 70 35 Z M 30 35 L 75 35 L 73 45 L 32 45 Z"
          fill="url(#goldGradient)" filter="url(#glow)" stroke="#B89842" stroke-width="0.5"/>
    <circle cx="40" cy="25" r="3" fill="#4FD1C5" filter="url(#glow)"/>
    <circle cx="52" cy="20" r="4" fill="#4FD1C5" filter="url(#glow)"/>
    <circle cx="65" cy="25" r="3" fill="#4FD1C5" filter="url(#glow)"/>
  </g>

  <!-- Title with shadow -->
  <text x="280" y="180" font-family="Georgia, serif" font-size="72" font-weight="bold"
        fill="url(#goldGradient)" filter="url(#shadow)">Our Science</text>

  <!-- Subtitle with subtle glow -->
  <text x="280" y="230" font-family="Arial, sans-serif" font-size="36"
        fill="#D6DEE6" opacity="0.95" filter="url(#softGlow)">Advanced Aquaculture Methodology</text>

  <!-- Brand name with letter spacing -->
  <text x="280" y="300" font-family="Georgia, serif" font-size="32" font-weight="bold"
        fill="#CFAE58" letter-spacing="4" filter="url(#glow)">ROYAL KETA</text>

  <!-- Russian tagline -->
  <text x="280" y="340" font-family="Arial, sans-serif" font-size="22" font-style="italic"
        fill="#8B95A1" opacity="0.8">От икринки к королевской</text>

  <!-- Location -->
  <text x="280" y="380" font-family="Arial, sans-serif" font-size="20"
        fill="#8B95A1" opacity="0.7">Невельский район, Сахалин</text>

  <!-- Website with glow -->
  <text x="100" y="570" font-family="Arial, sans-serif" font-size="30" font-weight="bold"
        fill="#4FD1C5" filter="url(#glow)">royalketa.com</text>

  <!-- Enhanced decorative salmon silhouette -->
  <g transform="translate(950, 480)" opacity="0.2" filter="url(#softGlow)">
    <ellipse cx="0" cy="0" rx="90" ry="35" fill="#CFAE58"/>
    <path d="M 90 0 L 120 -18 L 130 0 L 120 18 Z" fill="#CFAE58"/>
    <path d="M -25 -35 L 0 -45 L 25 -35 Z" fill="#CFAE58"/>
    <ellipse cx="-50" cy="0" rx="15" ry="12" fill="#0B0F14"/>
  </g>

  <!-- Additional decorative caviar clusters -->
  <g opacity="0.2">
    <circle cx="1050" cy="120" r="6" fill="#CFAE58"/>
    <circle cx="1065" cy="115" r="5" fill="#CFAE58"/>
    <circle cx="1058" cy="130" r="4" fill="#CFAE58"/>
    <circle cx="150" cy="500" r="5" fill="#4FD1C5"/>
    <circle cx="165" cy="508" r="4" fill="#4FD1C5"/>
    <circle cx="140" cy="512" r="5" fill="#4FD1C5"/>
  </g>
</svg>