<svg width="1200" height="630" xmlns="http://www.w3.org/2000/svg">
  <defs>
    <linearGradient id="bgGradient" x1="0%" y1="0%" x2="100%" y2="100%">
      <stop offset="0%" style="stop-color:#0B0F14;stop-opacity:1" />
      <stop offset="50%" style="stop-color:#0F1619;stop-opacity:1" />
      <stop offset="100%" style="stop-color:#0F1922;stop-opacity:1" />
    </linearGradient>
    <linearGradient id="goldGradient" x1="0%" y1="0%" x2="100%" y2="0%">
      <stop offset="0%" style="stop-color:#E5D596;stop-opacity:1" />
      <stop offset="50%" style="stop-color:#CFAE58;stop-opacity:1" />
      <stop offset="100%" style="stop-color:#B89842;stop-opacity:1" />
    </linearGradient>
    <radialGradient id="oceanGradient" cx="50%" cy="50%" r="50%">
      <stop offset="0%" style="stop-color:#4FD1C5;stop-opacity:0.3" />
      <stop offset="100%" style="stop-color:#1E90A0;stop-opacity:0.05" />
    </radialGradient>
    <filter id="glow">
      <feGaussianBlur stdDeviation="5" result="coloredBlur"/>
      <feMerge>
        <feMergeNode in="coloredBlur"/>
        <feMergeNode in="SourceGraphic"/>
      </feMerge>
    </filter>
    <filter id="softGlow">
      <feGaussianBlur stdDeviation="8" result="coloredBlur"/>
      <feMerge>
        <feMergeNode in="coloredBlur"/>
        <feMergeNode in="SourceGraphic"/>
      </feMerge>
    </filter>
    <filter id="shadow">
      <feDropShadow dx="0" dy="4" stdDeviation="8" flood-color="#000000" flood-opacity="0.5"/>
    </filter>
  </defs>

  <!-- Background -->
  <rect width="1200" height="630" fill="url(#bgGradient)"/>

  <!-- Decorative ocean gradients -->
  <ellipse cx="1000" cy="150" rx="300" ry="200" fill="url(#oceanGradient)" opacity="0.4"/>
  <ellipse cx="200" cy="530" rx="250" ry="180" fill="url(#oceanGradient)" opacity="0.3"/>

  <!-- Wave patterns -->
  <path d="M 0 400 Q 300 350 600 400 T 1200 400 L 1200 630 L 0 630 Z" fill="#1E90A0" opacity="0.08"/>
  <path d="M 0 450 Q 250 420 500 450 T 1000 450 T 1200 450 L 1200 630 L 0 630 Z" fill="#4FD1C5" opacity="0.05"/>

  <!-- Caviar roe particles -->
  <circle cx="1107.0501861977855" cy="417.11037814633517" r="4.323240671266684" fill="#CFAE58" opacity="0.18790172346630457"/>
  <circle cx="1076.166759008279" cy="238.9472884677041" r="2.1097986764155134" fill="#CFAE58" opacity="0.10130822762015038"/>
  <circle cx="629.3226976792338" cy="579.0983252014015" r="5.195001902839754" fill="#CFAE58" opacity="0.16486862220034126"/>
  <circle cx="630.0783838966613" cy="571.0492518004265" r="4.8815426044896215" fill="#CFAE58" opacity="0.22298115204428728"/>
  <circle cx="79.49144476375514" cy="4.353635850379549" r="4.163879683798792" fill="#CFAE58" opacity="0.10198945763019901"/>
  <circle cx="858.3216536871886" cy="193.6418637328023" r="5.1258107157869155" fill="#CFAE58" opacity="0.1180792259380664"/>
  <circle cx="840.8798786095952" cy="500.9504141257644" r="4.974039924755055" fill="#CFAE58" opacity="0.14289440938242276"/>
  <circle cx="738.0175229589199" cy="451.6057927070649" r="4.079645484533901" fill="#CFAE58" opacity="0.1644494480961629"/>
  <circle cx="512.8583223867154" cy="234.52283571872604" r="5.633683611951227" fill="#CFAE58" opacity="0.18889211046983323"/>
  <circle cx="913.9249908349358" cy="80.47497396203929" r="2.8660959399231007" fill="#CFAE58" opacity="0.2402130658203681"/>
  <circle cx="815.4907408291245" cy="179.50409475175857" r="3.0025819039613317" fill="#CFAE58" opacity="0.18440918201786693"/>
  <circle cx="206.65225769896853" cy="379.90408351160494" r="3.464450798838225" fill="#CFAE58" opacity="0.10975390388151832"/>
  <circle cx="889.8270521959466" cy="23.819276775501127" r="4.466038304689754" fill="#CFAE58" opacity="0.2172600333845335"/>
  <circle cx="60.25963039489737" cy="413.9106736335108" r="4.699773803604561" fill="#CFAE58" opacity="0.14690302607744618"/>
  <circle cx="242.95950993140457" cy="34.94849147545449" r="4.206252904291955" fill="#CFAE58" opacity="0.22662045995939584"/>
  <circle cx="842.0317984370176" cy="286.9988842772052" r="2.561024615269779" fill="#CFAE58" opacity="0.19445819190961833"/>
  <circle cx="180.7118857506466" cy="463.851588616545" r="4.697466474623752" fill="#CFAE58" opacity="0.237061398746685"/>
  <circle cx="740.717390534883" cy="16.320717198238878" r="3.1341966692284196" fill="#CFAE58" opacity="0.1316877866261614"/>
  <circle cx="327.3861739792074" cy="10.565588970145143" r="2.5262972716175955" fill="#CFAE58" opacity="0.2282131134909738"/>
  <circle cx="67.47865068036853" cy="494.0241240282584" r="3.3043725893403924" fill="#CFAE58" opacity="0.22799416047312104"/>
  <circle cx="652.1060955273506" cy="368.4279661699771" r="3.5408022333058966" fill="#CFAE58" opacity="0.24344924120035605"/>
  <circle cx="584.4094158419766" cy="532.0856079576976" r="5.8882352640097135" fill="#CFAE58" opacity="0.2310916244515564"/>
  <circle cx="658.5831167818716" cy="255.6032369382691" r="4.504327438573522" fill="#CFAE58" opacity="0.22482544909508123"/>
  <circle cx="1055.0224656417843" cy="34.97389831198935" r="5.003726093281232" fill="#CFAE58" opacity="0.18625371511432182"/>
  <circle cx="968.3708117954876" cy="75.07753911012558" r="3.263642550998176" fill="#CFAE58" opacity="0.1674539489616948"/>
  <circle cx="1117.4547390854266" cy="382.44206607645214" r="4.580869585570797" fill="#CFAE58" opacity="0.24647401773985517"/>
  <circle cx="546.3066326599815" cy="554.6393783015603" r="4.272321232643898" fill="#CFAE58" opacity="0.23205926838032748"/>
  <circle cx="853.2196674697042" cy="598.0897217551234" r="4.109932784025204" fill="#CFAE58" opacity="0.13781237373165833"/>
  <circle cx="545.8822779123581" cy="567.3437879006173" r="4.850861617441063" fill="#CFAE58" opacity="0.20192701795878876"/>
  <circle cx="612.8470800296901" cy="246.487155617706" r="5.66350224034849" fill="#CFAE58" opacity="0.20080732346972124"/>

  <!-- Border with glow -->
  <rect x="40" y="40" width="1120" height="550" fill="none" stroke="url(#goldGradient)" stroke-width="3" rx="12" filter="url(#softGlow)"/>

  <!-- Icon circle with premium background -->
  <circle cx="150" cy="200" r="75" fill="#CFAE58" opacity="0.15" filter="url(#softGlow)"/>
  <circle cx="150" cy="200" r="70" fill="#CFAE58" opacity="0.25"/>
  <text x="150" y="235" font-size="90" text-anchor="middle" fill="#CFAE58" filter="url(#glow)">🐠</text>

  <!-- Premium logo (crown) with enhanced styling -->
  <g transform="translate(100, 70)">
    <path d="M 30 20 L 40 35 L 35 35 Z M 50 15 L 60 35 L 45 35 Z M 65 20 L 75 35 L 70 35 Z M 30 35 L 75 35 L 73 45 L 32 45 Z"
          fill="url(#goldGradient)" filter="url(#glow)" stroke="#B89842" stroke-width="0.5"/>
    <circle cx="40" cy="25" r="3" fill="#4FD1C5" filter="url(#glow)"/>
    <circle cx="52" cy="20" r="4" fill="#4FD1C5" filter="url(#glow)"/>
    <circle cx="65" cy="25" r="3" fill="#4FD1C5" filter="url(#glow)"/>
  </g>

  <!-- Title with shadow -->
  <text x="280" y="180" font-family="Georgia, serif" font-size="72" font-weight="bold"
        fill="url(#goldGradient)" filter="url(#shadow)">Sturgeon &amp; Black Caviar</text>

  <!-- Subtitle with subtle glow -->
  <text x="280" y="230" font-family="Arial, sans-serif" font-size="36"
        fill="#D6DEE6" opacity="0.95" filter="url(#softGlow)">Premium Caviar Encyclopedia</text>

  <!-- Brand name with letter spacing -->
  <text x="280" y="300" font-family="Georgia, serif" font-size="32" font-weight="bold"
        fill="#CFAE58" letter-spacing="4" filter="url(#glow)">ROYAL KETA</text>

  <!-- Russian tagline -->
  <text x="280" y="340" font-family="Arial, sans-serif" font-size="22" font-style="italic"
        fill="#8B95A1" opacity="0.8">От икринки к королевской</text>

  <!-- Location -->
  <text x="280" y="380" font-family="Arial, sans-serif" font-size="20"
        fill="#8B95A1" opacity="0.7">Невельский район, Сахалин</text>

  <!-- Website with glow -->
  <text x="100" y="570" font-family="Arial, sans-serif" font-size="30" font-weight="bold"
        fill="#4FD1C5" filter="url(#glow)">royalketa.com</text>

  <!-- Enhanced decorative salmon silhouette -->
  <g transform="translate(950, 480)" opacity="0.2" filter="url(#softGlow)">
    <ellipse cx="0" cy="0" rx="90" ry="35" fill="#CFAE58"/>
    <path d="M 90 0 L 120 -18 L 130 0 L 120 18 Z" fill="#CFAE58"/>
    <path d="M -25 -35 L 0 -45 L 25 -35 Z" fill="#CFAE58"/>
    <ellipse cx="-50" cy="0" rx="15" ry="12" fill="#0B0F14"/>
  </g>

  <!-- Additional decorative caviar clusters -->
  <g opacity="0.2">
    <circle cx="1050" cy="120" r="6" fill="#CFAE58"/>
    <circle cx="1065" cy="115" r="5" fill="#CFAE58"/>
    <circle cx="1058" cy="130" r="4" fill="#CFAE58"/>
    <circle cx="150" cy="500" r="5" fill="#4FD1C5"/>
    <circle cx="165" cy="508" r="4" fill="#4FD1C5"/>
    <circle cx="140" cy="512" r="5" fill="#4FD1C5"/>
  </g>
</svg>