<svg width="1200" height="630" xmlns="http://www.w3.org/2000/svg">
  <defs>
    <linearGradient id="bgGradient" x1="0%" y1="0%" x2="100%" y2="100%">
      <stop offset="0%" style="stop-color:#0B0F14;stop-opacity:1" />
      <stop offset="50%" style="stop-color:#0F1619;stop-opacity:1" />
      <stop offset="100%" style="stop-color:#0F1922;stop-opacity:1" />
    </linearGradient>
    <linearGradient id="goldGradient" x1="0%" y1="0%" x2="100%" y2="0%">
      <stop offset="0%" style="stop-color:#E5D596;stop-opacity:1" />
      <stop offset="50%" style="stop-color:#CFAE58;stop-opacity:1" />
      <stop offset="100%" style="stop-color:#B89842;stop-opacity:1" />
    </linearGradient>
    <radialGradient id="oceanGradient" cx="50%" cy="50%" r="50%">
      <stop offset="0%" style="stop-color:#4FD1C5;stop-opacity:0.3" />
      <stop offset="100%" style="stop-color:#1E90A0;stop-opacity:0.05" />
    </radialGradient>
    <filter id="glow">
      <feGaussianBlur stdDeviation="5" result="coloredBlur"/>
      <feMerge>
        <feMergeNode in="coloredBlur"/>
        <feMergeNode in="SourceGraphic"/>
      </feMerge>
    </filter>
    <filter id="softGlow">
      <feGaussianBlur stdDeviation="8" result="coloredBlur"/>
      <feMerge>
        <feMergeNode in="coloredBlur"/>
        <feMergeNode in="SourceGraphic"/>
      </feMerge>
    </filter>
    <filter id="shadow">
      <feDropShadow dx="0" dy="4" stdDeviation="8" flood-color="#000000" flood-opacity="0.5"/>
    </filter>
  </defs>

  <!-- Background -->
  <rect width="1200" height="630" fill="url(#bgGradient)"/>

  <!-- Decorative ocean gradients -->
  <ellipse cx="1000" cy="150" rx="300" ry="200" fill="url(#oceanGradient)" opacity="0.4"/>
  <ellipse cx="200" cy="530" rx="250" ry="180" fill="url(#oceanGradient)" opacity="0.3"/>

  <!-- Wave patterns -->
  <path d="M 0 400 Q 300 350 600 400 T 1200 400 L 1200 630 L 0 630 Z" fill="#1E90A0" opacity="0.08"/>
  <path d="M 0 450 Q 250 420 500 450 T 1000 450 T 1200 450 L 1200 630 L 0 630 Z" fill="#4FD1C5" opacity="0.05"/>

  <!-- Caviar roe particles -->
  <circle cx="648.0854643868813" cy="136.60617909836142" r="2.134358267020305" fill="#CFAE58" opacity="0.19336609767730129"/>
  <circle cx="374.76551692763303" cy="134.11335087481692" r="3.575818593308513" fill="#CFAE58" opacity="0.10000601392154433"/>
  <circle cx="205.85236206590386" cy="509.5693652017082" r="2.2472481339424575" fill="#CFAE58" opacity="0.19548323244451005"/>
  <circle cx="306.315411159674" cy="519.1427709400399" r="3.1433696048357525" fill="#CFAE58" opacity="0.16262417928456235"/>
  <circle cx="163.6769778015121" cy="71.17487655747125" r="5.808928396119205" fill="#CFAE58" opacity="0.1913531861808591"/>
  <circle cx="761.4371953699517" cy="273.21951307720536" r="4.515774928901273" fill="#CFAE58" opacity="0.22723040742385703"/>
  <circle cx="68.39625316515794" cy="109.78846765535422" r="3.5650307054381356" fill="#CFAE58" opacity="0.21032254618982849"/>
  <circle cx="531.9623938474265" cy="489.3639742571092" r="4.1987138894734475" fill="#CFAE58" opacity="0.20180118511060535"/>
  <circle cx="888.8602654922366" cy="512.6311819010185" r="5.37765679876995" fill="#CFAE58" opacity="0.22900243096351494"/>
  <circle cx="694.6533055179358" cy="26.928990444354273" r="2.6562431887702376" fill="#CFAE58" opacity="0.12912884485344617"/>
  <circle cx="325.3359838480024" cy="629.0645721955894" r="2.8771998935647476" fill="#CFAE58" opacity="0.1860820531838848"/>
  <circle cx="125.00720344508704" cy="183.43160025763663" r="4.9385656941729295" fill="#CFAE58" opacity="0.1432270481742303"/>
  <circle cx="551.5183213153366" cy="28.869393754288794" r="2.4071852641357814" fill="#CFAE58" opacity="0.1272474213880486"/>
  <circle cx="117.79306103447844" cy="510.81178078451615" r="4.537061432254011" fill="#CFAE58" opacity="0.13655504572741545"/>
  <circle cx="644.7097138095281" cy="481.75078562938734" r="5.578775732322423" fill="#CFAE58" opacity="0.11754284914727309"/>
  <circle cx="1131.9003635142842" cy="610.4784060351918" r="5.358061253121521" fill="#CFAE58" opacity="0.1777872919731353"/>
  <circle cx="729.8417741037465" cy="121.50452180377002" r="2.4192965928891064" fill="#CFAE58" opacity="0.2292571538412855"/>
  <circle cx="552.6531746614777" cy="347.9840682536367" r="3.6035173500526536" fill="#CFAE58" opacity="0.11412172232772172"/>
  <circle cx="1113.4884703148712" cy="239.5126934146392" r="3.6918124568098767" fill="#CFAE58" opacity="0.13067424697548308"/>
  <circle cx="1187.35308348416" cy="80.77759329106006" r="5.038697302150876" fill="#CFAE58" opacity="0.23595232442136685"/>
  <circle cx="854.5856395001756" cy="527.4761730420745" r="3.5090985308346507" fill="#CFAE58" opacity="0.12514707940826425"/>
  <circle cx="882.3949759390235" cy="160.24721396475178" r="3.26488050411682" fill="#CFAE58" opacity="0.24865342241473534"/>
  <circle cx="864.1222118006925" cy="348.5450521593809" r="5.7586563927241325" fill="#CFAE58" opacity="0.134610246557646"/>
  <circle cx="221.1563434629714" cy="211.48668551038796" r="2.6438380851573298" fill="#CFAE58" opacity="0.21541197990094912"/>
  <circle cx="695.0051986789555" cy="12.599712698492787" r="2.821278880973345" fill="#CFAE58" opacity="0.12796700211497952"/>
  <circle cx="490.76635140647227" cy="557.5454613383074" r="4.566460219183876" fill="#CFAE58" opacity="0.11716060085665446"/>
  <circle cx="1031.530579752444" cy="367.40519605303587" r="3.6329951915463607" fill="#CFAE58" opacity="0.2182370341392348"/>
  <circle cx="1096.3457513612823" cy="57.74177506753555" r="4.811044360495463" fill="#CFAE58" opacity="0.2067099703361173"/>
  <circle cx="104.67697287094464" cy="459.6305543619365" r="2.8939412043510333" fill="#CFAE58" opacity="0.13226371478906973"/>
  <circle cx="1154.1246369852047" cy="517.1598478301978" r="5.202161269054677" fill="#CFAE58" opacity="0.21322592868768425"/>

  <!-- Border with glow -->
  <rect x="40" y="40" width="1120" height="550" fill="none" stroke="url(#goldGradient)" stroke-width="3" rx="12" filter="url(#softGlow)"/>

  <!-- Icon circle with premium background -->
  <circle cx="150" cy="200" r="75" fill="#CFAE58" opacity="0.15" filter="url(#softGlow)"/>
  <circle cx="150" cy="200" r="70" fill="#CFAE58" opacity="0.25"/>
  <text x="150" y="235" font-size="90" text-anchor="middle" fill="#CFAE58" filter="url(#glow)">🐠</text>

  <!-- Premium logo (crown) with enhanced styling -->
  <g transform="translate(100, 70)">
    <path d="M 30 20 L 40 35 L 35 35 Z M 50 15 L 60 35 L 45 35 Z M 65 20 L 75 35 L 70 35 Z M 30 35 L 75 35 L 73 45 L 32 45 Z"
          fill="url(#goldGradient)" filter="url(#glow)" stroke="#B89842" stroke-width="0.5"/>
    <circle cx="40" cy="25" r="3" fill="#4FD1C5" filter="url(#glow)"/>
    <circle cx="52" cy="20" r="4" fill="#4FD1C5" filter="url(#glow)"/>
    <circle cx="65" cy="25" r="3" fill="#4FD1C5" filter="url(#glow)"/>
  </g>

  <!-- Title with shadow -->
  <text x="280" y="180" font-family="Georgia, serif" font-size="72" font-weight="bold"
        fill="url(#goldGradient)" filter="url(#shadow)">Sturgeon &amp; Black Caviar</text>

  <!-- Subtitle with subtle glow -->
  <text x="280" y="230" font-family="Arial, sans-serif" font-size="36"
        fill="#D6DEE6" opacity="0.95" filter="url(#softGlow)">Premium Caviar Encyclopedia</text>

  <!-- Brand name with letter spacing -->
  <text x="280" y="300" font-family="Georgia, serif" font-size="32" font-weight="bold"
        fill="#CFAE58" letter-spacing="4" filter="url(#glow)">ROYAL KETA</text>

  <!-- Russian tagline -->
  <text x="280" y="340" font-family="Arial, sans-serif" font-size="22" font-style="italic"
        fill="#8B95A1" opacity="0.8">От икринки к королевской</text>

  <!-- Location -->
  <text x="280" y="380" font-family="Arial, sans-serif" font-size="20"
        fill="#8B95A1" opacity="0.7">Невельский район, Сахалин</text>

  <!-- Website with glow -->
  <text x="100" y="570" font-family="Arial, sans-serif" font-size="30" font-weight="bold"
        fill="#4FD1C5" filter="url(#glow)">royalketa.com</text>

  <!-- Enhanced decorative salmon silhouette -->
  <g transform="translate(950, 480)" opacity="0.2" filter="url(#softGlow)">
    <ellipse cx="0" cy="0" rx="90" ry="35" fill="#CFAE58"/>
    <path d="M 90 0 L 120 -18 L 130 0 L 120 18 Z" fill="#CFAE58"/>
    <path d="M -25 -35 L 0 -45 L 25 -35 Z" fill="#CFAE58"/>
    <ellipse cx="-50" cy="0" rx="15" ry="12" fill="#0B0F14"/>
  </g>

  <!-- Additional decorative caviar clusters -->
  <g opacity="0.2">
    <circle cx="1050" cy="120" r="6" fill="#CFAE58"/>
    <circle cx="1065" cy="115" r="5" fill="#CFAE58"/>
    <circle cx="1058" cy="130" r="4" fill="#CFAE58"/>
    <circle cx="150" cy="500" r="5" fill="#4FD1C5"/>
    <circle cx="165" cy="508" r="4" fill="#4FD1C5"/>
    <circle cx="140" cy="512" r="5" fill="#4FD1C5"/>
  </g>
</svg>