<svg width="1200" height="630" xmlns="http://www.w3.org/2000/svg">
  <defs>
    <linearGradient id="bgGradient" x1="0%" y1="0%" x2="100%" y2="100%">
      <stop offset="0%" style="stop-color:#0B0F14;stop-opacity:1" />
      <stop offset="50%" style="stop-color:#0F1619;stop-opacity:1" />
      <stop offset="100%" style="stop-color:#0F1922;stop-opacity:1" />
    </linearGradient>
    <linearGradient id="goldGradient" x1="0%" y1="0%" x2="100%" y2="0%">
      <stop offset="0%" style="stop-color:#E5D596;stop-opacity:1" />
      <stop offset="50%" style="stop-color:#CFAE58;stop-opacity:1" />
      <stop offset="100%" style="stop-color:#B89842;stop-opacity:1" />
    </linearGradient>
    <radialGradient id="oceanGradient" cx="50%" cy="50%" r="50%">
      <stop offset="0%" style="stop-color:#4FD1C5;stop-opacity:0.3" />
      <stop offset="100%" style="stop-color:#1E90A0;stop-opacity:0.05" />
    </radialGradient>
    <filter id="glow">
      <feGaussianBlur stdDeviation="5" result="coloredBlur"/>
      <feMerge>
        <feMergeNode in="coloredBlur"/>
        <feMergeNode in="SourceGraphic"/>
      </feMerge>
    </filter>
    <filter id="softGlow">
      <feGaussianBlur stdDeviation="8" result="coloredBlur"/>
      <feMerge>
        <feMergeNode in="coloredBlur"/>
        <feMergeNode in="SourceGraphic"/>
      </feMerge>
    </filter>
    <filter id="shadow">
      <feDropShadow dx="0" dy="4" stdDeviation="8" flood-color="#000000" flood-opacity="0.5"/>
    </filter>
  </defs>

  <!-- Background -->
  <rect width="1200" height="630" fill="url(#bgGradient)"/>

  <!-- Decorative ocean gradients -->
  <ellipse cx="1000" cy="150" rx="300" ry="200" fill="url(#oceanGradient)" opacity="0.4"/>
  <ellipse cx="200" cy="530" rx="250" ry="180" fill="url(#oceanGradient)" opacity="0.3"/>

  <!-- Wave patterns -->
  <path d="M 0 400 Q 300 350 600 400 T 1200 400 L 1200 630 L 0 630 Z" fill="#1E90A0" opacity="0.08"/>
  <path d="M 0 450 Q 250 420 500 450 T 1000 450 T 1200 450 L 1200 630 L 0 630 Z" fill="#4FD1C5" opacity="0.05"/>

  <!-- Caviar roe particles -->
  <circle cx="81.72381990192763" cy="422.1090056092995" r="4.996839532900538" fill="#CFAE58" opacity="0.119961933118176"/>
  <circle cx="897.2125247459878" cy="130.94471026508245" r="2.083223132428121" fill="#CFAE58" opacity="0.17742599912031992"/>
  <circle cx="1121.669258676822" cy="42.00525300401432" r="5.629113715321101" fill="#CFAE58" opacity="0.13577819646086242"/>
  <circle cx="217.8523036878656" cy="392.5291105395585" r="5.25818938295677" fill="#CFAE58" opacity="0.126265163242423"/>
  <circle cx="691.2902976428055" cy="479.4007704984961" r="4.688463206836763" fill="#CFAE58" opacity="0.14843050663340682"/>
  <circle cx="878.0283842064786" cy="580.8792596751157" r="2.2219034906719806" fill="#CFAE58" opacity="0.18714644544612608"/>
  <circle cx="527.0307423020049" cy="118.9511076170323" r="2.5559665629397346" fill="#CFAE58" opacity="0.24783499126033917"/>
  <circle cx="582.2277031487732" cy="418.10088663328395" r="4.431580212542522" fill="#CFAE58" opacity="0.19896891004668782"/>
  <circle cx="201.3294839397079" cy="443.5584656310339" r="2.21762016999981" fill="#CFAE58" opacity="0.21104173690471734"/>
  <circle cx="199.71093253656136" cy="287.95633988704697" r="2.9825403121793634" fill="#CFAE58" opacity="0.1630669973969241"/>
  <circle cx="638.4787366524747" cy="133.1449825210412" r="2.1164883251463626" fill="#CFAE58" opacity="0.20394479930640808"/>
  <circle cx="856.882381927687" cy="53.90991746687371" r="5.557501436294819" fill="#CFAE58" opacity="0.21218965565150094"/>
  <circle cx="12.001614839791497" cy="410.1615652244569" r="3.2216801235052053" fill="#CFAE58" opacity="0.17485300762178885"/>
  <circle cx="1077.410721224017" cy="353.6432890562141" r="4.923036011810359" fill="#CFAE58" opacity="0.11937508138559833"/>
  <circle cx="448.85276742892756" cy="27.83970368721754" r="4.4680470403182" fill="#CFAE58" opacity="0.1397066503792644"/>
  <circle cx="951.070558745088" cy="389.9250694993929" r="5.187240897538382" fill="#CFAE58" opacity="0.15101375597998"/>
  <circle cx="90.05492620196023" cy="347.65907592781497" r="2.8556135458747107" fill="#CFAE58" opacity="0.14901883435813393"/>
  <circle cx="93.41704316125386" cy="421.1139546875226" r="4.723665756432105" fill="#CFAE58" opacity="0.13078373422239026"/>
  <circle cx="202.45409416800396" cy="36.13022948030257" r="3.9215866912096313" fill="#CFAE58" opacity="0.20545914375801055"/>
  <circle cx="556.3869593842373" cy="312.20326204584484" r="5.708239505511185" fill="#CFAE58" opacity="0.21956067156341913"/>
  <circle cx="354.73614946748074" cy="6.073676271781592" r="3.9971066527814214" fill="#CFAE58" opacity="0.2019598095431164"/>
  <circle cx="584.0268626468654" cy="202.05984429953185" r="3.1824190116034217" fill="#CFAE58" opacity="0.16476750610712887"/>
  <circle cx="457.116975987044" cy="501.1704151621344" r="5.469202257968413" fill="#CFAE58" opacity="0.2166518954588143"/>
  <circle cx="1165.5366728358176" cy="354.04865910822986" r="5.531500141136123" fill="#CFAE58" opacity="0.13575197427082225"/>
  <circle cx="154.41555973612228" cy="580.9862739135738" r="4.622834405342147" fill="#CFAE58" opacity="0.10656767941450675"/>
  <circle cx="730.592138623714" cy="191.46239927187486" r="5.199954559768371" fill="#CFAE58" opacity="0.18524110432340396"/>
  <circle cx="145.4806223964261" cy="264.370003204929" r="2.8314543987119656" fill="#CFAE58" opacity="0.17245083120592086"/>
  <circle cx="745.2987405118524" cy="399.99564131892384" r="4.255005203453617" fill="#CFAE58" opacity="0.161325228571547"/>
  <circle cx="76.69914848479786" cy="75.51118753979482" r="5.0400370591974015" fill="#CFAE58" opacity="0.19183544371782013"/>
  <circle cx="726.452889743902" cy="509.56853096875085" r="4.099580682273866" fill="#CFAE58" opacity="0.1617317579743161"/>

  <!-- Border with glow -->
  <rect x="40" y="40" width="1120" height="550" fill="none" stroke="url(#goldGradient)" stroke-width="3" rx="12" filter="url(#softGlow)"/>

  <!-- Icon circle with premium background -->
  <circle cx="150" cy="200" r="75" fill="#CFAE58" opacity="0.15" filter="url(#softGlow)"/>
  <circle cx="150" cy="200" r="70" fill="#CFAE58" opacity="0.25"/>
  <text x="150" y="235" font-size="90" text-anchor="middle" fill="#CFAE58" filter="url(#glow)">🐠</text>

  <!-- Premium logo (crown) with enhanced styling -->
  <g transform="translate(100, 70)">
    <path d="M 30 20 L 40 35 L 35 35 Z M 50 15 L 60 35 L 45 35 Z M 65 20 L 75 35 L 70 35 Z M 30 35 L 75 35 L 73 45 L 32 45 Z"
          fill="url(#goldGradient)" filter="url(#glow)" stroke="#B89842" stroke-width="0.5"/>
    <circle cx="40" cy="25" r="3" fill="#4FD1C5" filter="url(#glow)"/>
    <circle cx="52" cy="20" r="4" fill="#4FD1C5" filter="url(#glow)"/>
    <circle cx="65" cy="25" r="3" fill="#4FD1C5" filter="url(#glow)"/>
  </g>

  <!-- Title with shadow -->
  <text x="280" y="180" font-family="Georgia, serif" font-size="72" font-weight="bold"
        fill="url(#goldGradient)" filter="url(#shadow)">Sturgeon &amp; Black Caviar</text>

  <!-- Subtitle with subtle glow -->
  <text x="280" y="230" font-family="Arial, sans-serif" font-size="36"
        fill="#D6DEE6" opacity="0.95" filter="url(#softGlow)">Premium Caviar Encyclopedia</text>

  <!-- Brand name with letter spacing -->
  <text x="280" y="300" font-family="Georgia, serif" font-size="32" font-weight="bold"
        fill="#CFAE58" letter-spacing="4" filter="url(#glow)">ROYAL KETA</text>

  <!-- Russian tagline -->
  <text x="280" y="340" font-family="Arial, sans-serif" font-size="22" font-style="italic"
        fill="#8B95A1" opacity="0.8">От икринки к королевской</text>

  <!-- Location -->
  <text x="280" y="380" font-family="Arial, sans-serif" font-size="20"
        fill="#8B95A1" opacity="0.7">Невельский район, Сахалин</text>

  <!-- Website with glow -->
  <text x="100" y="570" font-family="Arial, sans-serif" font-size="30" font-weight="bold"
        fill="#4FD1C5" filter="url(#glow)">royalketa.com</text>

  <!-- Enhanced decorative salmon silhouette -->
  <g transform="translate(950, 480)" opacity="0.2" filter="url(#softGlow)">
    <ellipse cx="0" cy="0" rx="90" ry="35" fill="#CFAE58"/>
    <path d="M 90 0 L 120 -18 L 130 0 L 120 18 Z" fill="#CFAE58"/>
    <path d="M -25 -35 L 0 -45 L 25 -35 Z" fill="#CFAE58"/>
    <ellipse cx="-50" cy="0" rx="15" ry="12" fill="#0B0F14"/>
  </g>

  <!-- Additional decorative caviar clusters -->
  <g opacity="0.2">
    <circle cx="1050" cy="120" r="6" fill="#CFAE58"/>
    <circle cx="1065" cy="115" r="5" fill="#CFAE58"/>
    <circle cx="1058" cy="130" r="4" fill="#CFAE58"/>
    <circle cx="150" cy="500" r="5" fill="#4FD1C5"/>
    <circle cx="165" cy="508" r="4" fill="#4FD1C5"/>
    <circle cx="140" cy="512" r="5" fill="#4FD1C5"/>
  </g>
</svg>