<svg width="1200" height="630" xmlns="http://www.w3.org/2000/svg">
  <defs>
    <linearGradient id="bgGradient" x1="0%" y1="0%" x2="100%" y2="100%">
      <stop offset="0%" style="stop-color:#0B0F14;stop-opacity:1" />
      <stop offset="50%" style="stop-color:#0F1619;stop-opacity:1" />
      <stop offset="100%" style="stop-color:#0F1922;stop-opacity:1" />
    </linearGradient>
    <linearGradient id="goldGradient" x1="0%" y1="0%" x2="100%" y2="0%">
      <stop offset="0%" style="stop-color:#E5D596;stop-opacity:1" />
      <stop offset="50%" style="stop-color:#CFAE58;stop-opacity:1" />
      <stop offset="100%" style="stop-color:#B89842;stop-opacity:1" />
    </linearGradient>
    <radialGradient id="oceanGradient" cx="50%" cy="50%" r="50%">
      <stop offset="0%" style="stop-color:#4FD1C5;stop-opacity:0.3" />
      <stop offset="100%" style="stop-color:#1E90A0;stop-opacity:0.05" />
    </radialGradient>
    <filter id="glow">
      <feGaussianBlur stdDeviation="5" result="coloredBlur"/>
      <feMerge>
        <feMergeNode in="coloredBlur"/>
        <feMergeNode in="SourceGraphic"/>
      </feMerge>
    </filter>
    <filter id="softGlow">
      <feGaussianBlur stdDeviation="8" result="coloredBlur"/>
      <feMerge>
        <feMergeNode in="coloredBlur"/>
        <feMergeNode in="SourceGraphic"/>
      </feMerge>
    </filter>
    <filter id="shadow">
      <feDropShadow dx="0" dy="4" stdDeviation="8" flood-color="#000000" flood-opacity="0.5"/>
    </filter>
  </defs>

  <!-- Background -->
  <rect width="1200" height="630" fill="url(#bgGradient)"/>

  <!-- Decorative ocean gradients -->
  <ellipse cx="1000" cy="150" rx="300" ry="200" fill="url(#oceanGradient)" opacity="0.4"/>
  <ellipse cx="200" cy="530" rx="250" ry="180" fill="url(#oceanGradient)" opacity="0.3"/>

  <!-- Wave patterns -->
  <path d="M 0 400 Q 300 350 600 400 T 1200 400 L 1200 630 L 0 630 Z" fill="#1E90A0" opacity="0.08"/>
  <path d="M 0 450 Q 250 420 500 450 T 1000 450 T 1200 450 L 1200 630 L 0 630 Z" fill="#4FD1C5" opacity="0.05"/>

  <!-- Caviar roe particles -->
  <circle cx="836.7552187331355" cy="423.62882982928903" r="5.280548958699711" fill="#CFAE58" opacity="0.22489616262957046"/>
  <circle cx="1024.2753794308655" cy="162.20335158103364" r="3.5758109086894896" fill="#CFAE58" opacity="0.1851888305728123"/>
  <circle cx="903.4663019804158" cy="397.11500905334236" r="2.8592940999504317" fill="#CFAE58" opacity="0.1998256011396502"/>
  <circle cx="177.8952203660014" cy="377.94775065093455" r="3.233116124846466" fill="#CFAE58" opacity="0.19030435029750625"/>
  <circle cx="251.77300643021175" cy="215.6064511318519" r="5.066308807734131" fill="#CFAE58" opacity="0.1452726639024926"/>
  <circle cx="866.035679953719" cy="466.8378672186366" r="4.5162823879591425" fill="#CFAE58" opacity="0.13832017242922676"/>
  <circle cx="978.4216676858509" cy="113.10720003454837" r="4.188930722621686" fill="#CFAE58" opacity="0.12984283997639257"/>
  <circle cx="536.6572092396823" cy="622.5095467143385" r="4.351124809945692" fill="#CFAE58" opacity="0.16850896689870687"/>
  <circle cx="879.6503088815533" cy="541.8579182361561" r="3.529759418932185" fill="#CFAE58" opacity="0.163586732463297"/>
  <circle cx="563.7716471150491" cy="128.54771985703618" r="4.628840871675587" fill="#CFAE58" opacity="0.21589684517635177"/>
  <circle cx="444.8122786847747" cy="302.01360405846975" r="4.942942902478666" fill="#CFAE58" opacity="0.15263478675883124"/>
  <circle cx="684.6216869548202" cy="125.65884022447136" r="4.9877167310650545" fill="#CFAE58" opacity="0.17574068402028037"/>
  <circle cx="946.464009366481" cy="357.0859403273212" r="2.0546938692258068" fill="#CFAE58" opacity="0.1558993602627991"/>
  <circle cx="771.6951327067709" cy="504.27245566915525" r="3.7539625615548777" fill="#CFAE58" opacity="0.19201942321154242"/>
  <circle cx="169.76868867537993" cy="210.9219764697356" r="5.036377288100254" fill="#CFAE58" opacity="0.21911526373602197"/>
  <circle cx="162.46979295229838" cy="513.4864021459276" r="2.0408472727567912" fill="#CFAE58" opacity="0.2197830221381871"/>
  <circle cx="314.4913035769282" cy="320.03145254741594" r="2.171039961149183" fill="#CFAE58" opacity="0.15354793953720253"/>
  <circle cx="1181.9162862609946" cy="503.7134880503742" r="3.9374810670648634" fill="#CFAE58" opacity="0.21343060965505503"/>
  <circle cx="786.2732100281897" cy="621.9998205197832" r="4.609247203909413" fill="#CFAE58" opacity="0.21318191779461443"/>
  <circle cx="211.18788133373556" cy="17.08100889996193" r="5.460185987051242" fill="#CFAE58" opacity="0.18446423343718266"/>
  <circle cx="1084.6297738396056" cy="203.39648047003536" r="3.1937641978993865" fill="#CFAE58" opacity="0.11830326928650847"/>
  <circle cx="583.7206631128425" cy="559.3186804575056" r="5.189427055174125" fill="#CFAE58" opacity="0.1582352512678454"/>
  <circle cx="1058.367820850387" cy="74.25121965557435" r="3.9348337728357405" fill="#CFAE58" opacity="0.23939632532109814"/>
  <circle cx="1053.7996480169782" cy="446.59014029295435" r="2.4572125840197705" fill="#CFAE58" opacity="0.14909059377007955"/>
  <circle cx="314.81653022042485" cy="453.8943916365959" r="3.001489511238098" fill="#CFAE58" opacity="0.13916410916125357"/>
  <circle cx="843.7950202084388" cy="208.90673985442703" r="5.805250203998367" fill="#CFAE58" opacity="0.10743480929085267"/>
  <circle cx="817.6598049719441" cy="104.18125462742924" r="5.334332140858777" fill="#CFAE58" opacity="0.15417163916370244"/>
  <circle cx="200.5104503490051" cy="628.6521123715652" r="2.222044399945418" fill="#CFAE58" opacity="0.146257425824041"/>
  <circle cx="1126.2711080779795" cy="540.0105870542872" r="2.5270157057170226" fill="#CFAE58" opacity="0.16425214871894328"/>
  <circle cx="826.0901906496555" cy="48.17008816780197" r="5.414627300811425" fill="#CFAE58" opacity="0.245844921978458"/>

  <!-- Border with glow -->
  <rect x="40" y="40" width="1120" height="550" fill="none" stroke="url(#goldGradient)" stroke-width="3" rx="12" filter="url(#softGlow)"/>

  <!-- Icon circle with premium background -->
  <circle cx="150" cy="200" r="75" fill="#CFAE58" opacity="0.15" filter="url(#softGlow)"/>
  <circle cx="150" cy="200" r="70" fill="#CFAE58" opacity="0.25"/>
  <text x="150" y="235" font-size="90" text-anchor="middle" fill="#CFAE58" filter="url(#glow)">🐠</text>

  <!-- Premium logo (crown) with enhanced styling -->
  <g transform="translate(100, 70)">
    <path d="M 30 20 L 40 35 L 35 35 Z M 50 15 L 60 35 L 45 35 Z M 65 20 L 75 35 L 70 35 Z M 30 35 L 75 35 L 73 45 L 32 45 Z"
          fill="url(#goldGradient)" filter="url(#glow)" stroke="#B89842" stroke-width="0.5"/>
    <circle cx="40" cy="25" r="3" fill="#4FD1C5" filter="url(#glow)"/>
    <circle cx="52" cy="20" r="4" fill="#4FD1C5" filter="url(#glow)"/>
    <circle cx="65" cy="25" r="3" fill="#4FD1C5" filter="url(#glow)"/>
  </g>

  <!-- Title with shadow -->
  <text x="280" y="180" font-family="Georgia, serif" font-size="72" font-weight="bold"
        fill="url(#goldGradient)" filter="url(#shadow)">Sturgeon &amp; Black Caviar</text>

  <!-- Subtitle with subtle glow -->
  <text x="280" y="230" font-family="Arial, sans-serif" font-size="36"
        fill="#D6DEE6" opacity="0.95" filter="url(#softGlow)">Premium Caviar Encyclopedia</text>

  <!-- Brand name with letter spacing -->
  <text x="280" y="300" font-family="Georgia, serif" font-size="32" font-weight="bold"
        fill="#CFAE58" letter-spacing="4" filter="url(#glow)">ROYAL KETA</text>

  <!-- Russian tagline -->
  <text x="280" y="340" font-family="Arial, sans-serif" font-size="22" font-style="italic"
        fill="#8B95A1" opacity="0.8">От икринки к королевской</text>

  <!-- Location -->
  <text x="280" y="380" font-family="Arial, sans-serif" font-size="20"
        fill="#8B95A1" opacity="0.7">Невельский район, Сахалин</text>

  <!-- Website with glow -->
  <text x="100" y="570" font-family="Arial, sans-serif" font-size="30" font-weight="bold"
        fill="#4FD1C5" filter="url(#glow)">royalketa.com</text>

  <!-- Enhanced decorative salmon silhouette -->
  <g transform="translate(950, 480)" opacity="0.2" filter="url(#softGlow)">
    <ellipse cx="0" cy="0" rx="90" ry="35" fill="#CFAE58"/>
    <path d="M 90 0 L 120 -18 L 130 0 L 120 18 Z" fill="#CFAE58"/>
    <path d="M -25 -35 L 0 -45 L 25 -35 Z" fill="#CFAE58"/>
    <ellipse cx="-50" cy="0" rx="15" ry="12" fill="#0B0F14"/>
  </g>

  <!-- Additional decorative caviar clusters -->
  <g opacity="0.2">
    <circle cx="1050" cy="120" r="6" fill="#CFAE58"/>
    <circle cx="1065" cy="115" r="5" fill="#CFAE58"/>
    <circle cx="1058" cy="130" r="4" fill="#CFAE58"/>
    <circle cx="150" cy="500" r="5" fill="#4FD1C5"/>
    <circle cx="165" cy="508" r="4" fill="#4FD1C5"/>
    <circle cx="140" cy="512" r="5" fill="#4FD1C5"/>
  </g>
</svg>