<svg width="1200" height="630" xmlns="http://www.w3.org/2000/svg">
  <defs>
    <linearGradient id="bgGradient" x1="0%" y1="0%" x2="100%" y2="100%">
      <stop offset="0%" style="stop-color:#0B0F14;stop-opacity:1" />
      <stop offset="50%" style="stop-color:#0F1619;stop-opacity:1" />
      <stop offset="100%" style="stop-color:#0F1922;stop-opacity:1" />
    </linearGradient>
    <linearGradient id="goldGradient" x1="0%" y1="0%" x2="100%" y2="0%">
      <stop offset="0%" style="stop-color:#E5D596;stop-opacity:1" />
      <stop offset="50%" style="stop-color:#CFAE58;stop-opacity:1" />
      <stop offset="100%" style="stop-color:#B89842;stop-opacity:1" />
    </linearGradient>
    <radialGradient id="oceanGradient" cx="50%" cy="50%" r="50%">
      <stop offset="0%" style="stop-color:#4FD1C5;stop-opacity:0.3" />
      <stop offset="100%" style="stop-color:#1E90A0;stop-opacity:0.05" />
    </radialGradient>
    <filter id="glow">
      <feGaussianBlur stdDeviation="5" result="coloredBlur"/>
      <feMerge>
        <feMergeNode in="coloredBlur"/>
        <feMergeNode in="SourceGraphic"/>
      </feMerge>
    </filter>
    <filter id="softGlow">
      <feGaussianBlur stdDeviation="8" result="coloredBlur"/>
      <feMerge>
        <feMergeNode in="coloredBlur"/>
        <feMergeNode in="SourceGraphic"/>
      </feMerge>
    </filter>
    <filter id="shadow">
      <feDropShadow dx="0" dy="4" stdDeviation="8" flood-color="#000000" flood-opacity="0.5"/>
    </filter>
  </defs>

  <!-- Background -->
  <rect width="1200" height="630" fill="url(#bgGradient)"/>

  <!-- Decorative ocean gradients -->
  <ellipse cx="1000" cy="150" rx="300" ry="200" fill="url(#oceanGradient)" opacity="0.4"/>
  <ellipse cx="200" cy="530" rx="250" ry="180" fill="url(#oceanGradient)" opacity="0.3"/>

  <!-- Wave patterns -->
  <path d="M 0 400 Q 300 350 600 400 T 1200 400 L 1200 630 L 0 630 Z" fill="#1E90A0" opacity="0.08"/>
  <path d="M 0 450 Q 250 420 500 450 T 1000 450 T 1200 450 L 1200 630 L 0 630 Z" fill="#4FD1C5" opacity="0.05"/>

  <!-- Caviar roe particles -->
  <circle cx="808.99922006148" cy="574.212187903622" r="4.12928381099889" fill="#CFAE58" opacity="0.2308987690918544"/>
  <circle cx="870.0980090037485" cy="616.8099826321035" r="2.09794820375094" fill="#CFAE58" opacity="0.11519126107736216"/>
  <circle cx="477.7939049149074" cy="329.49367939929147" r="3.292991017562209" fill="#CFAE58" opacity="0.1972008844896329"/>
  <circle cx="345.2853790718956" cy="248.0131681019687" r="3.2225753726688144" fill="#CFAE58" opacity="0.24088095165245815"/>
  <circle cx="988.563312241485" cy="355.1507795047576" r="4.706076114470964" fill="#CFAE58" opacity="0.20541965765000175"/>
  <circle cx="520.3975360109272" cy="150.04455464643553" r="5.588016372864892" fill="#CFAE58" opacity="0.22886641044439057"/>
  <circle cx="516.6638823899988" cy="318.10269825441213" r="4.059466564476837" fill="#CFAE58" opacity="0.12000379194631164"/>
  <circle cx="1130.890748281042" cy="29.77028965585157" r="5.761919523781207" fill="#CFAE58" opacity="0.19116115695624447"/>
  <circle cx="241.95575907126488" cy="17.50734459046277" r="2.6858668912178576" fill="#CFAE58" opacity="0.22794871860980198"/>
  <circle cx="800.8291278596193" cy="613.9530276612946" r="3.165977524957682" fill="#CFAE58" opacity="0.2128330668983922"/>
  <circle cx="481.95074919707014" cy="378.58192282815276" r="4.240486831190108" fill="#CFAE58" opacity="0.1198045411725753"/>
  <circle cx="529.5603087094073" cy="176.06390785839426" r="3.587701475123555" fill="#CFAE58" opacity="0.12910742301469158"/>
  <circle cx="1099.3064038686489" cy="364.2147909694916" r="5.4514454111856665" fill="#CFAE58" opacity="0.24061367443376488"/>
  <circle cx="454.9941044646041" cy="120.6012394776662" r="3.4938178352001543" fill="#CFAE58" opacity="0.15400318857463344"/>
  <circle cx="283.2541561184514" cy="565.9732329031103" r="2.994669389431864" fill="#CFAE58" opacity="0.10778954339406077"/>
  <circle cx="376.2343004125838" cy="318.37251332296034" r="4.536312318051477" fill="#CFAE58" opacity="0.24648018816572367"/>
  <circle cx="1100.7367649073487" cy="588.8832367822139" r="5.489819457296842" fill="#CFAE58" opacity="0.2418319003269054"/>
  <circle cx="525.5281969672533" cy="319.5888745031609" r="4.6167871183173705" fill="#CFAE58" opacity="0.1933205734386419"/>
  <circle cx="118.1655591537234" cy="160.93063592125478" r="5.458240279944874" fill="#CFAE58" opacity="0.19237166654126836"/>
  <circle cx="805.9395673302604" cy="399.89217337612547" r="3.681511584757483" fill="#CFAE58" opacity="0.11392456056513757"/>
  <circle cx="61.74465796746933" cy="324.1716334041859" r="4.566585143712727" fill="#CFAE58" opacity="0.12582936966298772"/>
  <circle cx="794.7934816693145" cy="497.5167508268365" r="3.9026966586373826" fill="#CFAE58" opacity="0.14138045833258203"/>
  <circle cx="1027.594312496339" cy="23.645336008425282" r="2.8767366013486364" fill="#CFAE58" opacity="0.22066006635439925"/>
  <circle cx="479.1089883640417" cy="468.2397035575044" r="3.5472606336066526" fill="#CFAE58" opacity="0.10132602818822428"/>
  <circle cx="639.3802515076662" cy="454.44500379518877" r="3.774221065015453" fill="#CFAE58" opacity="0.1930580856248043"/>
  <circle cx="302.7681379336994" cy="40.76684820800648" r="5.106346888072491" fill="#CFAE58" opacity="0.20608945586626115"/>
  <circle cx="1144.1776557844248" cy="257.4274578279179" r="5.873424730117103" fill="#CFAE58" opacity="0.19528329804636416"/>
  <circle cx="684.3832653849095" cy="188.89629078797665" r="2.3316573127795426" fill="#CFAE58" opacity="0.2398048826994557"/>
  <circle cx="464.7104638703535" cy="529.45186412485" r="2.6690672018355186" fill="#CFAE58" opacity="0.24622484476879275"/>
  <circle cx="195.96261674552107" cy="268.7361879622664" r="4.992668620271022" fill="#CFAE58" opacity="0.22723739824056174"/>

  <!-- Border with glow -->
  <rect x="40" y="40" width="1120" height="550" fill="none" stroke="url(#goldGradient)" stroke-width="3" rx="12" filter="url(#softGlow)"/>

  <!-- Icon circle with premium background -->
  <circle cx="150" cy="200" r="75" fill="#CFAE58" opacity="0.15" filter="url(#softGlow)"/>
  <circle cx="150" cy="200" r="70" fill="#CFAE58" opacity="0.25"/>
  <text x="150" y="235" font-size="90" text-anchor="middle" fill="#CFAE58" filter="url(#glow)">🐠</text>

  <!-- Premium logo (crown) with enhanced styling -->
  <g transform="translate(100, 70)">
    <path d="M 30 20 L 40 35 L 35 35 Z M 50 15 L 60 35 L 45 35 Z M 65 20 L 75 35 L 70 35 Z M 30 35 L 75 35 L 73 45 L 32 45 Z"
          fill="url(#goldGradient)" filter="url(#glow)" stroke="#B89842" stroke-width="0.5"/>
    <circle cx="40" cy="25" r="3" fill="#4FD1C5" filter="url(#glow)"/>
    <circle cx="52" cy="20" r="4" fill="#4FD1C5" filter="url(#glow)"/>
    <circle cx="65" cy="25" r="3" fill="#4FD1C5" filter="url(#glow)"/>
  </g>

  <!-- Title with shadow -->
  <text x="280" y="180" font-family="Georgia, serif" font-size="72" font-weight="bold"
        fill="url(#goldGradient)" filter="url(#shadow)">Sturgeon &amp; Black Caviar</text>

  <!-- Subtitle with subtle glow -->
  <text x="280" y="230" font-family="Arial, sans-serif" font-size="36"
        fill="#D6DEE6" opacity="0.95" filter="url(#softGlow)">Premium Caviar Encyclopedia</text>

  <!-- Brand name with letter spacing -->
  <text x="280" y="300" font-family="Georgia, serif" font-size="32" font-weight="bold"
        fill="#CFAE58" letter-spacing="4" filter="url(#glow)">ROYAL KETA</text>

  <!-- Russian tagline -->
  <text x="280" y="340" font-family="Arial, sans-serif" font-size="22" font-style="italic"
        fill="#8B95A1" opacity="0.8">От икринки к королевской</text>

  <!-- Location -->
  <text x="280" y="380" font-family="Arial, sans-serif" font-size="20"
        fill="#8B95A1" opacity="0.7">Невельский район, Сахалин</text>

  <!-- Website with glow -->
  <text x="100" y="570" font-family="Arial, sans-serif" font-size="30" font-weight="bold"
        fill="#4FD1C5" filter="url(#glow)">royalketa.com</text>

  <!-- Enhanced decorative salmon silhouette -->
  <g transform="translate(950, 480)" opacity="0.2" filter="url(#softGlow)">
    <ellipse cx="0" cy="0" rx="90" ry="35" fill="#CFAE58"/>
    <path d="M 90 0 L 120 -18 L 130 0 L 120 18 Z" fill="#CFAE58"/>
    <path d="M -25 -35 L 0 -45 L 25 -35 Z" fill="#CFAE58"/>
    <ellipse cx="-50" cy="0" rx="15" ry="12" fill="#0B0F14"/>
  </g>

  <!-- Additional decorative caviar clusters -->
  <g opacity="0.2">
    <circle cx="1050" cy="120" r="6" fill="#CFAE58"/>
    <circle cx="1065" cy="115" r="5" fill="#CFAE58"/>
    <circle cx="1058" cy="130" r="4" fill="#CFAE58"/>
    <circle cx="150" cy="500" r="5" fill="#4FD1C5"/>
    <circle cx="165" cy="508" r="4" fill="#4FD1C5"/>
    <circle cx="140" cy="512" r="5" fill="#4FD1C5"/>
  </g>
</svg>