<svg width="1200" height="630" xmlns="http://www.w3.org/2000/svg">
  <defs>
    <linearGradient id="bgGradient" x1="0%" y1="0%" x2="100%" y2="100%">
      <stop offset="0%" style="stop-color:#0B0F14;stop-opacity:1" />
      <stop offset="50%" style="stop-color:#0F1619;stop-opacity:1" />
      <stop offset="100%" style="stop-color:#0F1922;stop-opacity:1" />
    </linearGradient>
    <linearGradient id="goldGradient" x1="0%" y1="0%" x2="100%" y2="0%">
      <stop offset="0%" style="stop-color:#E5D596;stop-opacity:1" />
      <stop offset="50%" style="stop-color:#CFAE58;stop-opacity:1" />
      <stop offset="100%" style="stop-color:#B89842;stop-opacity:1" />
    </linearGradient>
    <radialGradient id="oceanGradient" cx="50%" cy="50%" r="50%">
      <stop offset="0%" style="stop-color:#4FD1C5;stop-opacity:0.3" />
      <stop offset="100%" style="stop-color:#1E90A0;stop-opacity:0.05" />
    </radialGradient>
    <filter id="glow">
      <feGaussianBlur stdDeviation="5" result="coloredBlur"/>
      <feMerge>
        <feMergeNode in="coloredBlur"/>
        <feMergeNode in="SourceGraphic"/>
      </feMerge>
    </filter>
    <filter id="softGlow">
      <feGaussianBlur stdDeviation="8" result="coloredBlur"/>
      <feMerge>
        <feMergeNode in="coloredBlur"/>
        <feMergeNode in="SourceGraphic"/>
      </feMerge>
    </filter>
    <filter id="shadow">
      <feDropShadow dx="0" dy="4" stdDeviation="8" flood-color="#000000" flood-opacity="0.5"/>
    </filter>
  </defs>

  <!-- Background -->
  <rect width="1200" height="630" fill="url(#bgGradient)"/>

  <!-- Decorative ocean gradients -->
  <ellipse cx="1000" cy="150" rx="300" ry="200" fill="url(#oceanGradient)" opacity="0.4"/>
  <ellipse cx="200" cy="530" rx="250" ry="180" fill="url(#oceanGradient)" opacity="0.3"/>

  <!-- Wave patterns -->
  <path d="M 0 400 Q 300 350 600 400 T 1200 400 L 1200 630 L 0 630 Z" fill="#1E90A0" opacity="0.08"/>
  <path d="M 0 450 Q 250 420 500 450 T 1000 450 T 1200 450 L 1200 630 L 0 630 Z" fill="#4FD1C5" opacity="0.05"/>

  <!-- Caviar roe particles -->
  <circle cx="177.40577070195647" cy="368.48219070336387" r="3.9699429542591362" fill="#CFAE58" opacity="0.1835179697581975"/>
  <circle cx="245.5508379094171" cy="345.3253179394781" r="3.902728918872991" fill="#CFAE58" opacity="0.21415517716291885"/>
  <circle cx="577.4526716100565" cy="391.5832478942933" r="3.410800334800811" fill="#CFAE58" opacity="0.17615939858487017"/>
  <circle cx="510.9191488327102" cy="179.4387267046183" r="5.09818691455041" fill="#CFAE58" opacity="0.16571810831368206"/>
  <circle cx="779.5955748415666" cy="135.12136610032306" r="4.326001175483774" fill="#CFAE58" opacity="0.10724419381523553"/>
  <circle cx="493.34720768779" cy="11.206576945169871" r="5.350871912713289" fill="#CFAE58" opacity="0.23062295402097371"/>
  <circle cx="897.7230141485433" cy="259.57949160470395" r="5.012422602991881" fill="#CFAE58" opacity="0.13513190575878078"/>
  <circle cx="821.065711281422" cy="365.5280757913067" r="4.210392338850232" fill="#CFAE58" opacity="0.11102291423762867"/>
  <circle cx="755.8452478775806" cy="60.296398628278574" r="4.595967828495639" fill="#CFAE58" opacity="0.10640915103696373"/>
  <circle cx="869.2234160735359" cy="360.5101553652238" r="5.062121348287066" fill="#CFAE58" opacity="0.103882986434292"/>
  <circle cx="747.8622944030466" cy="421.8796388765977" r="4.673849880267531" fill="#CFAE58" opacity="0.17191291118215124"/>
  <circle cx="983.7530137614615" cy="460.8841514241252" r="2.851424867084801" fill="#CFAE58" opacity="0.10999985832040252"/>
  <circle cx="269.5766144988798" cy="626.2337802532944" r="4.824993824983627" fill="#CFAE58" opacity="0.21959473835425725"/>
  <circle cx="932.3485483566866" cy="149.180382948902" r="4.345109664704949" fill="#CFAE58" opacity="0.13932677946906794"/>
  <circle cx="1122.9702645223463" cy="391.8983647878653" r="2.1683156386412383" fill="#CFAE58" opacity="0.17409625506688098"/>
  <circle cx="790.0450029751668" cy="160.6872169177818" r="4.337379210327373" fill="#CFAE58" opacity="0.1210028582496823"/>
  <circle cx="525.9591258042095" cy="282.83426180239974" r="4.354544916025121" fill="#CFAE58" opacity="0.18559468022697223"/>
  <circle cx="777.1406122090491" cy="242.47108698412924" r="3.280192178934711" fill="#CFAE58" opacity="0.1974320754266526"/>
  <circle cx="96.96348479138423" cy="192.06299810815193" r="5.447824727839089" fill="#CFAE58" opacity="0.21187265228797447"/>
  <circle cx="296.01579162393426" cy="364.9416116379795" r="2.542862672033495" fill="#CFAE58" opacity="0.23621743981913668"/>
  <circle cx="1177.4771969538667" cy="302.67266275273505" r="3.7355646768077566" fill="#CFAE58" opacity="0.169985187981595"/>
  <circle cx="769.9010947893579" cy="544.269812756727" r="4.2954530343390624" fill="#CFAE58" opacity="0.17680469393955345"/>
  <circle cx="238.89472058382478" cy="422.3870950460374" r="4.168585336988963" fill="#CFAE58" opacity="0.18364573752012614"/>
  <circle cx="1148.4633838977577" cy="564.742169455583" r="2.36505175969719" fill="#CFAE58" opacity="0.13164237319604088"/>
  <circle cx="723.6393544303579" cy="337.1920826457224" r="2.1690931799145288" fill="#CFAE58" opacity="0.19283216803242348"/>
  <circle cx="1091.4132336593286" cy="551.234203167352" r="4.787153492298302" fill="#CFAE58" opacity="0.12292547151990707"/>
  <circle cx="1194.748080315735" cy="72.60740196219977" r="5.069356991094725" fill="#CFAE58" opacity="0.23587956862234816"/>
  <circle cx="297.8506722176232" cy="616.0412042479471" r="3.460468099695322" fill="#CFAE58" opacity="0.10936176167936683"/>
  <circle cx="1110.7640853839343" cy="399.47841297097716" r="3.2274422648710157" fill="#CFAE58" opacity="0.10853732616960048"/>
  <circle cx="516.9283649085363" cy="0.4432795838017145" r="2.269457577435313" fill="#CFAE58" opacity="0.20765547724469824"/>

  <!-- Border with glow -->
  <rect x="40" y="40" width="1120" height="550" fill="none" stroke="url(#goldGradient)" stroke-width="3" rx="12" filter="url(#softGlow)"/>

  <!-- Icon circle with premium background -->
  <circle cx="150" cy="200" r="75" fill="#CFAE58" opacity="0.15" filter="url(#softGlow)"/>
  <circle cx="150" cy="200" r="70" fill="#CFAE58" opacity="0.25"/>
  <text x="150" y="235" font-size="90" text-anchor="middle" fill="#CFAE58" filter="url(#glow)">🐠</text>

  <!-- Premium logo (crown) with enhanced styling -->
  <g transform="translate(100, 70)">
    <path d="M 30 20 L 40 35 L 35 35 Z M 50 15 L 60 35 L 45 35 Z M 65 20 L 75 35 L 70 35 Z M 30 35 L 75 35 L 73 45 L 32 45 Z"
          fill="url(#goldGradient)" filter="url(#glow)" stroke="#B89842" stroke-width="0.5"/>
    <circle cx="40" cy="25" r="3" fill="#4FD1C5" filter="url(#glow)"/>
    <circle cx="52" cy="20" r="4" fill="#4FD1C5" filter="url(#glow)"/>
    <circle cx="65" cy="25" r="3" fill="#4FD1C5" filter="url(#glow)"/>
  </g>

  <!-- Title with shadow -->
  <text x="280" y="180" font-family="Georgia, serif" font-size="72" font-weight="bold"
        fill="url(#goldGradient)" filter="url(#shadow)">Sturgeon &amp; Black Caviar</text>

  <!-- Subtitle with subtle glow -->
  <text x="280" y="230" font-family="Arial, sans-serif" font-size="36"
        fill="#D6DEE6" opacity="0.95" filter="url(#softGlow)">Premium Caviar Encyclopedia</text>

  <!-- Brand name with letter spacing -->
  <text x="280" y="300" font-family="Georgia, serif" font-size="32" font-weight="bold"
        fill="#CFAE58" letter-spacing="4" filter="url(#glow)">ROYAL KETA</text>

  <!-- Russian tagline -->
  <text x="280" y="340" font-family="Arial, sans-serif" font-size="22" font-style="italic"
        fill="#8B95A1" opacity="0.8">От икринки к королевской</text>

  <!-- Location -->
  <text x="280" y="380" font-family="Arial, sans-serif" font-size="20"
        fill="#8B95A1" opacity="0.7">Невельский район, Сахалин</text>

  <!-- Website with glow -->
  <text x="100" y="570" font-family="Arial, sans-serif" font-size="30" font-weight="bold"
        fill="#4FD1C5" filter="url(#glow)">royalketa.com</text>

  <!-- Enhanced decorative salmon silhouette -->
  <g transform="translate(950, 480)" opacity="0.2" filter="url(#softGlow)">
    <ellipse cx="0" cy="0" rx="90" ry="35" fill="#CFAE58"/>
    <path d="M 90 0 L 120 -18 L 130 0 L 120 18 Z" fill="#CFAE58"/>
    <path d="M -25 -35 L 0 -45 L 25 -35 Z" fill="#CFAE58"/>
    <ellipse cx="-50" cy="0" rx="15" ry="12" fill="#0B0F14"/>
  </g>

  <!-- Additional decorative caviar clusters -->
  <g opacity="0.2">
    <circle cx="1050" cy="120" r="6" fill="#CFAE58"/>
    <circle cx="1065" cy="115" r="5" fill="#CFAE58"/>
    <circle cx="1058" cy="130" r="4" fill="#CFAE58"/>
    <circle cx="150" cy="500" r="5" fill="#4FD1C5"/>
    <circle cx="165" cy="508" r="4" fill="#4FD1C5"/>
    <circle cx="140" cy="512" r="5" fill="#4FD1C5"/>
  </g>
</svg>