<svg width="1200" height="630" xmlns="http://www.w3.org/2000/svg">
  <defs>
    <linearGradient id="bgGradient" x1="0%" y1="0%" x2="100%" y2="100%">
      <stop offset="0%" style="stop-color:#0B0F14;stop-opacity:1" />
      <stop offset="50%" style="stop-color:#0F1619;stop-opacity:1" />
      <stop offset="100%" style="stop-color:#0F1922;stop-opacity:1" />
    </linearGradient>
    <linearGradient id="goldGradient" x1="0%" y1="0%" x2="100%" y2="0%">
      <stop offset="0%" style="stop-color:#E5D596;stop-opacity:1" />
      <stop offset="50%" style="stop-color:#CFAE58;stop-opacity:1" />
      <stop offset="100%" style="stop-color:#B89842;stop-opacity:1" />
    </linearGradient>
    <radialGradient id="oceanGradient" cx="50%" cy="50%" r="50%">
      <stop offset="0%" style="stop-color:#4FD1C5;stop-opacity:0.3" />
      <stop offset="100%" style="stop-color:#1E90A0;stop-opacity:0.05" />
    </radialGradient>
    <filter id="glow">
      <feGaussianBlur stdDeviation="5" result="coloredBlur"/>
      <feMerge>
        <feMergeNode in="coloredBlur"/>
        <feMergeNode in="SourceGraphic"/>
      </feMerge>
    </filter>
    <filter id="softGlow">
      <feGaussianBlur stdDeviation="8" result="coloredBlur"/>
      <feMerge>
        <feMergeNode in="coloredBlur"/>
        <feMergeNode in="SourceGraphic"/>
      </feMerge>
    </filter>
    <filter id="shadow">
      <feDropShadow dx="0" dy="4" stdDeviation="8" flood-color="#000000" flood-opacity="0.5"/>
    </filter>
  </defs>

  <!-- Background -->
  <rect width="1200" height="630" fill="url(#bgGradient)"/>

  <!-- Decorative ocean gradients -->
  <ellipse cx="1000" cy="150" rx="300" ry="200" fill="url(#oceanGradient)" opacity="0.4"/>
  <ellipse cx="200" cy="530" rx="250" ry="180" fill="url(#oceanGradient)" opacity="0.3"/>

  <!-- Wave patterns -->
  <path d="M 0 400 Q 300 350 600 400 T 1200 400 L 1200 630 L 0 630 Z" fill="#1E90A0" opacity="0.08"/>
  <path d="M 0 450 Q 250 420 500 450 T 1000 450 T 1200 450 L 1200 630 L 0 630 Z" fill="#4FD1C5" opacity="0.05"/>

  <!-- Caviar roe particles -->
  <circle cx="955.799065978438" cy="240.7055229149029" r="5.265999546611632" fill="#CFAE58" opacity="0.1683812695897109"/>
  <circle cx="307.9155765517536" cy="310.07251377110265" r="2.4908166586443805" fill="#CFAE58" opacity="0.22673061603262878"/>
  <circle cx="1106.2138331325239" cy="336.31576305439694" r="3.4454504248357365" fill="#CFAE58" opacity="0.19694256978225289"/>
  <circle cx="521.3089354945115" cy="366.4318791501891" r="3.8599159956862437" fill="#CFAE58" opacity="0.15451854012637994"/>
  <circle cx="960.7043126249498" cy="469.27604155036306" r="5.2544882931566645" fill="#CFAE58" opacity="0.16383171095775245"/>
  <circle cx="49.81923742222199" cy="456.80625686400066" r="4.84129334782578" fill="#CFAE58" opacity="0.24321145360374488"/>
  <circle cx="58.70265507279129" cy="244.28023613775935" r="5.371393069642952" fill="#CFAE58" opacity="0.1700082438989629"/>
  <circle cx="94.37537749219453" cy="261.78365620346443" r="3.5346093707863835" fill="#CFAE58" opacity="0.10097526977693509"/>
  <circle cx="844.7637809436538" cy="12.618890398568665" r="5.148430094881709" fill="#CFAE58" opacity="0.2197551071815463"/>
  <circle cx="951.9684512343458" cy="120.93465133840238" r="4.068437334756427" fill="#CFAE58" opacity="0.1876468681368859"/>
  <circle cx="308.92944042147474" cy="181.74863195232788" r="2.841209526957525" fill="#CFAE58" opacity="0.20179969940968007"/>
  <circle cx="402.4443345261518" cy="234.31647679217" r="2.0583152944999377" fill="#CFAE58" opacity="0.24036026059234367"/>
  <circle cx="457.51426984176885" cy="594.806708589739" r="2.183943562068264" fill="#CFAE58" opacity="0.19642316766362417"/>
  <circle cx="1187.7185327014042" cy="147.64629022240243" r="3.2132227629963435" fill="#CFAE58" opacity="0.191611061944453"/>
  <circle cx="259.863427526974" cy="439.5456740108656" r="3.289686604181518" fill="#CFAE58" opacity="0.20247864678646604"/>
  <circle cx="19.520183059991414" cy="145.22096500523494" r="5.557298117335419" fill="#CFAE58" opacity="0.22829100506074368"/>
  <circle cx="547.019191413816" cy="95.16933285886377" r="3.942691412373586" fill="#CFAE58" opacity="0.13789836352275142"/>
  <circle cx="205.8905253694504" cy="238.52025732349108" r="5.2528503447457116" fill="#CFAE58" opacity="0.1259629716551831"/>
  <circle cx="341.0121497896115" cy="235.34804415587797" r="5.429115199334521" fill="#CFAE58" opacity="0.1513898162667332"/>
  <circle cx="808.7056340277516" cy="378.7806526720034" r="2.915191203346411" fill="#CFAE58" opacity="0.19862432557818166"/>
  <circle cx="930.7986730627696" cy="183.5126637680513" r="2.3865816979558145" fill="#CFAE58" opacity="0.17123809762209574"/>
  <circle cx="694.1559731488845" cy="476.0508287692827" r="3.147714190325332" fill="#CFAE58" opacity="0.2434654859494961"/>
  <circle cx="326.89075026845995" cy="590.9577203567816" r="5.836341500462794" fill="#CFAE58" opacity="0.13048236120719978"/>
  <circle cx="944.5178082131652" cy="105.72559719756829" r="2.71532764715806" fill="#CFAE58" opacity="0.1489837049966408"/>
  <circle cx="215.20948319773643" cy="280.2590141677154" r="2.375222332839546" fill="#CFAE58" opacity="0.20029839445831202"/>
  <circle cx="687.3942562598666" cy="469.78082695873525" r="4.0622347290224665" fill="#CFAE58" opacity="0.23991937924870899"/>
  <circle cx="1008.2128611290826" cy="596.9201720173298" r="4.831534655159237" fill="#CFAE58" opacity="0.19660395780150763"/>
  <circle cx="67.21646175683986" cy="525.3236013635507" r="2.375580197505567" fill="#CFAE58" opacity="0.1563593747081945"/>
  <circle cx="311.94423138981017" cy="543.693476418466" r="3.4955095087034076" fill="#CFAE58" opacity="0.14803321044649462"/>
  <circle cx="1032.1553452808703" cy="599.7351922078731" r="4.200825995478336" fill="#CFAE58" opacity="0.16141150162914286"/>

  <!-- Border with glow -->
  <rect x="40" y="40" width="1120" height="550" fill="none" stroke="url(#goldGradient)" stroke-width="3" rx="12" filter="url(#softGlow)"/>

  <!-- Icon circle with premium background -->
  <circle cx="150" cy="200" r="75" fill="#CFAE58" opacity="0.15" filter="url(#softGlow)"/>
  <circle cx="150" cy="200" r="70" fill="#CFAE58" opacity="0.25"/>
  <text x="150" y="235" font-size="90" text-anchor="middle" fill="#CFAE58" filter="url(#glow)">🐠</text>

  <!-- Premium logo (crown) with enhanced styling -->
  <g transform="translate(100, 70)">
    <path d="M 30 20 L 40 35 L 35 35 Z M 50 15 L 60 35 L 45 35 Z M 65 20 L 75 35 L 70 35 Z M 30 35 L 75 35 L 73 45 L 32 45 Z"
          fill="url(#goldGradient)" filter="url(#glow)" stroke="#B89842" stroke-width="0.5"/>
    <circle cx="40" cy="25" r="3" fill="#4FD1C5" filter="url(#glow)"/>
    <circle cx="52" cy="20" r="4" fill="#4FD1C5" filter="url(#glow)"/>
    <circle cx="65" cy="25" r="3" fill="#4FD1C5" filter="url(#glow)"/>
  </g>

  <!-- Title with shadow -->
  <text x="280" y="180" font-family="Georgia, serif" font-size="72" font-weight="bold"
        fill="url(#goldGradient)" filter="url(#shadow)">Sturgeon &amp; Black Caviar</text>

  <!-- Subtitle with subtle glow -->
  <text x="280" y="230" font-family="Arial, sans-serif" font-size="36"
        fill="#D6DEE6" opacity="0.95" filter="url(#softGlow)">Premium Caviar Encyclopedia</text>

  <!-- Brand name with letter spacing -->
  <text x="280" y="300" font-family="Georgia, serif" font-size="32" font-weight="bold"
        fill="#CFAE58" letter-spacing="4" filter="url(#glow)">ROYAL KETA</text>

  <!-- Russian tagline -->
  <text x="280" y="340" font-family="Arial, sans-serif" font-size="22" font-style="italic"
        fill="#8B95A1" opacity="0.8">От икринки к королевской</text>

  <!-- Location -->
  <text x="280" y="380" font-family="Arial, sans-serif" font-size="20"
        fill="#8B95A1" opacity="0.7">Невельский район, Сахалин</text>

  <!-- Website with glow -->
  <text x="100" y="570" font-family="Arial, sans-serif" font-size="30" font-weight="bold"
        fill="#4FD1C5" filter="url(#glow)">royalketa.com</text>

  <!-- Enhanced decorative salmon silhouette -->
  <g transform="translate(950, 480)" opacity="0.2" filter="url(#softGlow)">
    <ellipse cx="0" cy="0" rx="90" ry="35" fill="#CFAE58"/>
    <path d="M 90 0 L 120 -18 L 130 0 L 120 18 Z" fill="#CFAE58"/>
    <path d="M -25 -35 L 0 -45 L 25 -35 Z" fill="#CFAE58"/>
    <ellipse cx="-50" cy="0" rx="15" ry="12" fill="#0B0F14"/>
  </g>

  <!-- Additional decorative caviar clusters -->
  <g opacity="0.2">
    <circle cx="1050" cy="120" r="6" fill="#CFAE58"/>
    <circle cx="1065" cy="115" r="5" fill="#CFAE58"/>
    <circle cx="1058" cy="130" r="4" fill="#CFAE58"/>
    <circle cx="150" cy="500" r="5" fill="#4FD1C5"/>
    <circle cx="165" cy="508" r="4" fill="#4FD1C5"/>
    <circle cx="140" cy="512" r="5" fill="#4FD1C5"/>
  </g>
</svg>