<svg width="1200" height="630" xmlns="http://www.w3.org/2000/svg">
  <defs>
    <linearGradient id="bgGradient" x1="0%" y1="0%" x2="100%" y2="100%">
      <stop offset="0%" style="stop-color:#0B0F14;stop-opacity:1" />
      <stop offset="50%" style="stop-color:#0F1619;stop-opacity:1" />
      <stop offset="100%" style="stop-color:#0F1922;stop-opacity:1" />
    </linearGradient>
    <linearGradient id="goldGradient" x1="0%" y1="0%" x2="100%" y2="0%">
      <stop offset="0%" style="stop-color:#E5D596;stop-opacity:1" />
      <stop offset="50%" style="stop-color:#CFAE58;stop-opacity:1" />
      <stop offset="100%" style="stop-color:#B89842;stop-opacity:1" />
    </linearGradient>
    <radialGradient id="oceanGradient" cx="50%" cy="50%" r="50%">
      <stop offset="0%" style="stop-color:#4FD1C5;stop-opacity:0.3" />
      <stop offset="100%" style="stop-color:#1E90A0;stop-opacity:0.05" />
    </radialGradient>
    <filter id="glow">
      <feGaussianBlur stdDeviation="5" result="coloredBlur"/>
      <feMerge>
        <feMergeNode in="coloredBlur"/>
        <feMergeNode in="SourceGraphic"/>
      </feMerge>
    </filter>
    <filter id="softGlow">
      <feGaussianBlur stdDeviation="8" result="coloredBlur"/>
      <feMerge>
        <feMergeNode in="coloredBlur"/>
        <feMergeNode in="SourceGraphic"/>
      </feMerge>
    </filter>
    <filter id="shadow">
      <feDropShadow dx="0" dy="4" stdDeviation="8" flood-color="#000000" flood-opacity="0.5"/>
    </filter>
  </defs>

  <!-- Background -->
  <rect width="1200" height="630" fill="url(#bgGradient)"/>

  <!-- Decorative ocean gradients -->
  <ellipse cx="1000" cy="150" rx="300" ry="200" fill="url(#oceanGradient)" opacity="0.4"/>
  <ellipse cx="200" cy="530" rx="250" ry="180" fill="url(#oceanGradient)" opacity="0.3"/>

  <!-- Wave patterns -->
  <path d="M 0 400 Q 300 350 600 400 T 1200 400 L 1200 630 L 0 630 Z" fill="#1E90A0" opacity="0.08"/>
  <path d="M 0 450 Q 250 420 500 450 T 1000 450 T 1200 450 L 1200 630 L 0 630 Z" fill="#4FD1C5" opacity="0.05"/>

  <!-- Caviar roe particles -->
  <circle cx="88.33025649897306" cy="581.287849408071" r="5.377930236724225" fill="#CFAE58" opacity="0.14134606327269136"/>
  <circle cx="388.5700890438594" cy="301.9913402298578" r="3.6844512291556826" fill="#CFAE58" opacity="0.11835219362991177"/>
  <circle cx="1057.4480412763248" cy="616.1857666306448" r="5.4547046552022325" fill="#CFAE58" opacity="0.16891307217800744"/>
  <circle cx="325.8710755074049" cy="425.268415924515" r="3.602078228740295" fill="#CFAE58" opacity="0.17162373702583672"/>
  <circle cx="930.1776201097443" cy="573.9687109390368" r="4.599298255647101" fill="#CFAE58" opacity="0.23216734558409813"/>
  <circle cx="114.41464999797266" cy="165.6971215478558" r="2.3694769378747327" fill="#CFAE58" opacity="0.21972194784092589"/>
  <circle cx="907.805600592738" cy="47.917318948884216" r="5.3143921025165755" fill="#CFAE58" opacity="0.19287008073382347"/>
  <circle cx="373.80051940890803" cy="44.80770018523282" r="3.375879774838531" fill="#CFAE58" opacity="0.10374882158609265"/>
  <circle cx="1159.8430624346545" cy="123.65683440961561" r="5.116548542198769" fill="#CFAE58" opacity="0.1618244638283658"/>
  <circle cx="508.5071697186309" cy="605.3416539008191" r="4.12531617566676" fill="#CFAE58" opacity="0.1459318673896712"/>
  <circle cx="64.42319816752277" cy="604.091942248441" r="4.080610509834468" fill="#CFAE58" opacity="0.15294267828887248"/>
  <circle cx="782.0559704563146" cy="264.91289162524475" r="2.03486910328618" fill="#CFAE58" opacity="0.17979153183068464"/>
  <circle cx="273.45896079419913" cy="425.69428146662597" r="2.2899143772682224" fill="#CFAE58" opacity="0.2499205217932945"/>
  <circle cx="354.3177582936236" cy="318.9485707813536" r="2.654609151022719" fill="#CFAE58" opacity="0.20056531456306348"/>
  <circle cx="1181.5183098835246" cy="162.98746004100673" r="5.709310686808443" fill="#CFAE58" opacity="0.1623988527663564"/>
  <circle cx="219.13757267041012" cy="169.55760245111216" r="5.708346141590692" fill="#CFAE58" opacity="0.1932796158716707"/>
  <circle cx="120.51235501935444" cy="175.0541384880562" r="5.278460292654104" fill="#CFAE58" opacity="0.1459456475871502"/>
  <circle cx="1159.681521840443" cy="474.13222424667487" r="4.142583249019212" fill="#CFAE58" opacity="0.17384933620944487"/>
  <circle cx="18.27949852319737" cy="77.55057718880147" r="3.465710285434727" fill="#CFAE58" opacity="0.10662659916618852"/>
  <circle cx="1102.7945625182283" cy="516.1158659848348" r="3.6967956244639306" fill="#CFAE58" opacity="0.16732723376077613"/>
  <circle cx="1188.885196226464" cy="188.55880403252993" r="5.5653402005613195" fill="#CFAE58" opacity="0.1037968042394504"/>
  <circle cx="775.1336971483594" cy="409.46506416408124" r="4.066612019183374" fill="#CFAE58" opacity="0.1486751099025989"/>
  <circle cx="277.8967269323249" cy="431.50931714252056" r="4.78815991884256" fill="#CFAE58" opacity="0.1315070002028625"/>
  <circle cx="362.17672245535107" cy="230.12718213842797" r="2.9253931864592455" fill="#CFAE58" opacity="0.1531965417171007"/>
  <circle cx="680.5904303238246" cy="136.52082221510727" r="3.2105917543151716" fill="#CFAE58" opacity="0.20180610137068689"/>
  <circle cx="1090.854268026676" cy="409.9448049231835" r="2.0313717352856444" fill="#CFAE58" opacity="0.1286360248194593"/>
  <circle cx="423.6235725733991" cy="116.37860199807952" r="2.920359283585477" fill="#CFAE58" opacity="0.15880034169873714"/>
  <circle cx="822.158281048634" cy="419.8194587631057" r="5.964366898486389" fill="#CFAE58" opacity="0.2059535483819204"/>
  <circle cx="872.55234009184" cy="587.7353717802971" r="2.7873799327344004" fill="#CFAE58" opacity="0.2278131966420254"/>
  <circle cx="947.9250146989889" cy="367.65973073528664" r="3.388208880125114" fill="#CFAE58" opacity="0.2449834507054487"/>

  <!-- Border with glow -->
  <rect x="40" y="40" width="1120" height="550" fill="none" stroke="url(#goldGradient)" stroke-width="3" rx="12" filter="url(#softGlow)"/>

  <!-- Icon circle with premium background -->
  <circle cx="150" cy="200" r="75" fill="#CFAE58" opacity="0.15" filter="url(#softGlow)"/>
  <circle cx="150" cy="200" r="70" fill="#CFAE58" opacity="0.25"/>
  <text x="150" y="235" font-size="90" text-anchor="middle" fill="#CFAE58" filter="url(#glow)">🐠</text>

  <!-- Premium logo (crown) with enhanced styling -->
  <g transform="translate(100, 70)">
    <path d="M 30 20 L 40 35 L 35 35 Z M 50 15 L 60 35 L 45 35 Z M 65 20 L 75 35 L 70 35 Z M 30 35 L 75 35 L 73 45 L 32 45 Z"
          fill="url(#goldGradient)" filter="url(#glow)" stroke="#B89842" stroke-width="0.5"/>
    <circle cx="40" cy="25" r="3" fill="#4FD1C5" filter="url(#glow)"/>
    <circle cx="52" cy="20" r="4" fill="#4FD1C5" filter="url(#glow)"/>
    <circle cx="65" cy="25" r="3" fill="#4FD1C5" filter="url(#glow)"/>
  </g>

  <!-- Title with shadow -->
  <text x="280" y="180" font-family="Georgia, serif" font-size="72" font-weight="bold"
        fill="url(#goldGradient)" filter="url(#shadow)">Sturgeon &amp; Black Caviar</text>

  <!-- Subtitle with subtle glow -->
  <text x="280" y="230" font-family="Arial, sans-serif" font-size="36"
        fill="#D6DEE6" opacity="0.95" filter="url(#softGlow)">Premium Caviar Encyclopedia</text>

  <!-- Brand name with letter spacing -->
  <text x="280" y="300" font-family="Georgia, serif" font-size="32" font-weight="bold"
        fill="#CFAE58" letter-spacing="4" filter="url(#glow)">ROYAL KETA</text>

  <!-- Russian tagline -->
  <text x="280" y="340" font-family="Arial, sans-serif" font-size="22" font-style="italic"
        fill="#8B95A1" opacity="0.8">От икринки к королевской</text>

  <!-- Location -->
  <text x="280" y="380" font-family="Arial, sans-serif" font-size="20"
        fill="#8B95A1" opacity="0.7">Невельский район, Сахалин</text>

  <!-- Website with glow -->
  <text x="100" y="570" font-family="Arial, sans-serif" font-size="30" font-weight="bold"
        fill="#4FD1C5" filter="url(#glow)">royalketa.com</text>

  <!-- Enhanced decorative salmon silhouette -->
  <g transform="translate(950, 480)" opacity="0.2" filter="url(#softGlow)">
    <ellipse cx="0" cy="0" rx="90" ry="35" fill="#CFAE58"/>
    <path d="M 90 0 L 120 -18 L 130 0 L 120 18 Z" fill="#CFAE58"/>
    <path d="M -25 -35 L 0 -45 L 25 -35 Z" fill="#CFAE58"/>
    <ellipse cx="-50" cy="0" rx="15" ry="12" fill="#0B0F14"/>
  </g>

  <!-- Additional decorative caviar clusters -->
  <g opacity="0.2">
    <circle cx="1050" cy="120" r="6" fill="#CFAE58"/>
    <circle cx="1065" cy="115" r="5" fill="#CFAE58"/>
    <circle cx="1058" cy="130" r="4" fill="#CFAE58"/>
    <circle cx="150" cy="500" r="5" fill="#4FD1C5"/>
    <circle cx="165" cy="508" r="4" fill="#4FD1C5"/>
    <circle cx="140" cy="512" r="5" fill="#4FD1C5"/>
  </g>
</svg>