<svg width="1200" height="630" xmlns="http://www.w3.org/2000/svg">
  <defs>
    <linearGradient id="bgGradient" x1="0%" y1="0%" x2="100%" y2="100%">
      <stop offset="0%" style="stop-color:#0B0F14;stop-opacity:1" />
      <stop offset="50%" style="stop-color:#0F1619;stop-opacity:1" />
      <stop offset="100%" style="stop-color:#0F1922;stop-opacity:1" />
    </linearGradient>
    <linearGradient id="goldGradient" x1="0%" y1="0%" x2="100%" y2="0%">
      <stop offset="0%" style="stop-color:#E5D596;stop-opacity:1" />
      <stop offset="50%" style="stop-color:#CFAE58;stop-opacity:1" />
      <stop offset="100%" style="stop-color:#B89842;stop-opacity:1" />
    </linearGradient>
    <radialGradient id="oceanGradient" cx="50%" cy="50%" r="50%">
      <stop offset="0%" style="stop-color:#4FD1C5;stop-opacity:0.3" />
      <stop offset="100%" style="stop-color:#1E90A0;stop-opacity:0.05" />
    </radialGradient>
    <filter id="glow">
      <feGaussianBlur stdDeviation="5" result="coloredBlur"/>
      <feMerge>
        <feMergeNode in="coloredBlur"/>
        <feMergeNode in="SourceGraphic"/>
      </feMerge>
    </filter>
    <filter id="softGlow">
      <feGaussianBlur stdDeviation="8" result="coloredBlur"/>
      <feMerge>
        <feMergeNode in="coloredBlur"/>
        <feMergeNode in="SourceGraphic"/>
      </feMerge>
    </filter>
    <filter id="shadow">
      <feDropShadow dx="0" dy="4" stdDeviation="8" flood-color="#000000" flood-opacity="0.5"/>
    </filter>
  </defs>

  <!-- Background -->
  <rect width="1200" height="630" fill="url(#bgGradient)"/>

  <!-- Decorative ocean gradients -->
  <ellipse cx="1000" cy="150" rx="300" ry="200" fill="url(#oceanGradient)" opacity="0.4"/>
  <ellipse cx="200" cy="530" rx="250" ry="180" fill="url(#oceanGradient)" opacity="0.3"/>

  <!-- Wave patterns -->
  <path d="M 0 400 Q 300 350 600 400 T 1200 400 L 1200 630 L 0 630 Z" fill="#1E90A0" opacity="0.08"/>
  <path d="M 0 450 Q 250 420 500 450 T 1000 450 T 1200 450 L 1200 630 L 0 630 Z" fill="#4FD1C5" opacity="0.05"/>

  <!-- Caviar roe particles -->
  <circle cx="626.6847153498663" cy="588.4809482046036" r="3.819225369018703" fill="#CFAE58" opacity="0.13113055255517242"/>
  <circle cx="1105.4747581131487" cy="338.9505320628429" r="2.3312346774335992" fill="#CFAE58" opacity="0.16594970682747584"/>
  <circle cx="64.53672525433198" cy="155.22233048567435" r="4.70299368754968" fill="#CFAE58" opacity="0.1294662588491986"/>
  <circle cx="618.0012867099356" cy="217.98559826467252" r="2.675257177005327" fill="#CFAE58" opacity="0.22606142120374667"/>
  <circle cx="789.7127623208366" cy="114.1031693624401" r="2.054138908760936" fill="#CFAE58" opacity="0.1423407685063281"/>
  <circle cx="1073.866035492498" cy="349.17548304888373" r="4.129230917788746" fill="#CFAE58" opacity="0.16007231570357414"/>
  <circle cx="571.409739078757" cy="486.3918040266705" r="3.435753300092564" fill="#CFAE58" opacity="0.19133248964333938"/>
  <circle cx="910.0296032361027" cy="209.4351877867478" r="2.183201127689661" fill="#CFAE58" opacity="0.1332432699009005"/>
  <circle cx="542.4765948667156" cy="380.13830131903313" r="3.1053670337158996" fill="#CFAE58" opacity="0.17347717818063776"/>
  <circle cx="80.11839397823665" cy="13.041167138816549" r="5.1624006596383385" fill="#CFAE58" opacity="0.18871065398956596"/>
  <circle cx="412.8144292586651" cy="350.11719470531335" r="3.9132254946024103" fill="#CFAE58" opacity="0.2199577788277086"/>
  <circle cx="444.1082822881838" cy="622.1898904771925" r="2.4817966161656235" fill="#CFAE58" opacity="0.11941990427219246"/>
  <circle cx="698.6814977516788" cy="29.055611164690333" r="4.741507145978265" fill="#CFAE58" opacity="0.19557057672392522"/>
  <circle cx="848.3118611880656" cy="29.896328254397236" r="2.8842232232825653" fill="#CFAE58" opacity="0.10218897250414014"/>
  <circle cx="575.5018119832596" cy="4.292548879320535" r="5.590069112797855" fill="#CFAE58" opacity="0.23567550209866486"/>
  <circle cx="617.5796279061824" cy="467.97239869262734" r="3.5481840949249435" fill="#CFAE58" opacity="0.2487560652798334"/>
  <circle cx="848.6508138436867" cy="498.0696655795315" r="4.47995227924517" fill="#CFAE58" opacity="0.21681731181725503"/>
  <circle cx="109.33389294719449" cy="493.0215883191415" r="2.642374973926705" fill="#CFAE58" opacity="0.12085050513550927"/>
  <circle cx="899.7820914658713" cy="97.7643421021236" r="4.940812655694869" fill="#CFAE58" opacity="0.19141642503987077"/>
  <circle cx="390.6165291009068" cy="12.393592354551064" r="2.3382693603343467" fill="#CFAE58" opacity="0.21278123526149906"/>
  <circle cx="968.3033618932977" cy="337.4029224588422" r="3.346421274617369" fill="#CFAE58" opacity="0.15887124654498713"/>
  <circle cx="1150.6011168344164" cy="285.02834419020337" r="3.6710652938854436" fill="#CFAE58" opacity="0.21171871997928504"/>
  <circle cx="1111.16684302602" cy="310.25485306698494" r="3.9417929339176787" fill="#CFAE58" opacity="0.16164133702906053"/>
  <circle cx="1158.9440179699614" cy="81.85348996848025" r="3.09540012551948" fill="#CFAE58" opacity="0.19226709563280414"/>
  <circle cx="1000.20705052562" cy="275.0538621058394" r="3.937602413161658" fill="#CFAE58" opacity="0.2107880297222096"/>
  <circle cx="1039.098374205238" cy="348.6492292215811" r="2.1567723043870455" fill="#CFAE58" opacity="0.1358114015354713"/>
  <circle cx="242.95864371170194" cy="573.1137187964556" r="4.729668359302381" fill="#CFAE58" opacity="0.1406471254579516"/>
  <circle cx="493.3264032900641" cy="440.20670057217075" r="4.32281222839104" fill="#CFAE58" opacity="0.2278424141279558"/>
  <circle cx="57.774104270054316" cy="512.7758485186996" r="5.454205038253995" fill="#CFAE58" opacity="0.24981539157834065"/>
  <circle cx="90.30735901840963" cy="354.2525379582398" r="5.950620830801429" fill="#CFAE58" opacity="0.22911311421773092"/>

  <!-- Border with glow -->
  <rect x="40" y="40" width="1120" height="550" fill="none" stroke="url(#goldGradient)" stroke-width="3" rx="12" filter="url(#softGlow)"/>

  <!-- Icon circle with premium background -->
  <circle cx="150" cy="200" r="75" fill="#CFAE58" opacity="0.15" filter="url(#softGlow)"/>
  <circle cx="150" cy="200" r="70" fill="#CFAE58" opacity="0.25"/>
  <text x="150" y="235" font-size="90" text-anchor="middle" fill="#CFAE58" filter="url(#glow)">🐠</text>

  <!-- Premium logo (crown) with enhanced styling -->
  <g transform="translate(100, 70)">
    <path d="M 30 20 L 40 35 L 35 35 Z M 50 15 L 60 35 L 45 35 Z M 65 20 L 75 35 L 70 35 Z M 30 35 L 75 35 L 73 45 L 32 45 Z"
          fill="url(#goldGradient)" filter="url(#glow)" stroke="#B89842" stroke-width="0.5"/>
    <circle cx="40" cy="25" r="3" fill="#4FD1C5" filter="url(#glow)"/>
    <circle cx="52" cy="20" r="4" fill="#4FD1C5" filter="url(#glow)"/>
    <circle cx="65" cy="25" r="3" fill="#4FD1C5" filter="url(#glow)"/>
  </g>

  <!-- Title with shadow -->
  <text x="280" y="180" font-family="Georgia, serif" font-size="72" font-weight="bold"
        fill="url(#goldGradient)" filter="url(#shadow)">Sturgeon &amp; Black Caviar</text>

  <!-- Subtitle with subtle glow -->
  <text x="280" y="230" font-family="Arial, sans-serif" font-size="36"
        fill="#D6DEE6" opacity="0.95" filter="url(#softGlow)">Premium Caviar Encyclopedia</text>

  <!-- Brand name with letter spacing -->
  <text x="280" y="300" font-family="Georgia, serif" font-size="32" font-weight="bold"
        fill="#CFAE58" letter-spacing="4" filter="url(#glow)">ROYAL KETA</text>

  <!-- Russian tagline -->
  <text x="280" y="340" font-family="Arial, sans-serif" font-size="22" font-style="italic"
        fill="#8B95A1" opacity="0.8">От икринки к королевской</text>

  <!-- Location -->
  <text x="280" y="380" font-family="Arial, sans-serif" font-size="20"
        fill="#8B95A1" opacity="0.7">Невельский район, Сахалин</text>

  <!-- Website with glow -->
  <text x="100" y="570" font-family="Arial, sans-serif" font-size="30" font-weight="bold"
        fill="#4FD1C5" filter="url(#glow)">royalketa.com</text>

  <!-- Enhanced decorative salmon silhouette -->
  <g transform="translate(950, 480)" opacity="0.2" filter="url(#softGlow)">
    <ellipse cx="0" cy="0" rx="90" ry="35" fill="#CFAE58"/>
    <path d="M 90 0 L 120 -18 L 130 0 L 120 18 Z" fill="#CFAE58"/>
    <path d="M -25 -35 L 0 -45 L 25 -35 Z" fill="#CFAE58"/>
    <ellipse cx="-50" cy="0" rx="15" ry="12" fill="#0B0F14"/>
  </g>

  <!-- Additional decorative caviar clusters -->
  <g opacity="0.2">
    <circle cx="1050" cy="120" r="6" fill="#CFAE58"/>
    <circle cx="1065" cy="115" r="5" fill="#CFAE58"/>
    <circle cx="1058" cy="130" r="4" fill="#CFAE58"/>
    <circle cx="150" cy="500" r="5" fill="#4FD1C5"/>
    <circle cx="165" cy="508" r="4" fill="#4FD1C5"/>
    <circle cx="140" cy="512" r="5" fill="#4FD1C5"/>
  </g>
</svg>