<svg width="1200" height="630" xmlns="http://www.w3.org/2000/svg">
  <defs>
    <linearGradient id="bgGradient" x1="0%" y1="0%" x2="100%" y2="100%">
      <stop offset="0%" style="stop-color:#0B0F14;stop-opacity:1" />
      <stop offset="50%" style="stop-color:#0F1619;stop-opacity:1" />
      <stop offset="100%" style="stop-color:#0F1922;stop-opacity:1" />
    </linearGradient>
    <linearGradient id="goldGradient" x1="0%" y1="0%" x2="100%" y2="0%">
      <stop offset="0%" style="stop-color:#E5D596;stop-opacity:1" />
      <stop offset="50%" style="stop-color:#CFAE58;stop-opacity:1" />
      <stop offset="100%" style="stop-color:#B89842;stop-opacity:1" />
    </linearGradient>
    <radialGradient id="oceanGradient" cx="50%" cy="50%" r="50%">
      <stop offset="0%" style="stop-color:#4FD1C5;stop-opacity:0.3" />
      <stop offset="100%" style="stop-color:#1E90A0;stop-opacity:0.05" />
    </radialGradient>
    <filter id="glow">
      <feGaussianBlur stdDeviation="5" result="coloredBlur"/>
      <feMerge>
        <feMergeNode in="coloredBlur"/>
        <feMergeNode in="SourceGraphic"/>
      </feMerge>
    </filter>
    <filter id="softGlow">
      <feGaussianBlur stdDeviation="8" result="coloredBlur"/>
      <feMerge>
        <feMergeNode in="coloredBlur"/>
        <feMergeNode in="SourceGraphic"/>
      </feMerge>
    </filter>
    <filter id="shadow">
      <feDropShadow dx="0" dy="4" stdDeviation="8" flood-color="#000000" flood-opacity="0.5"/>
    </filter>
  </defs>

  <!-- Background -->
  <rect width="1200" height="630" fill="url(#bgGradient)"/>

  <!-- Decorative ocean gradients -->
  <ellipse cx="1000" cy="150" rx="300" ry="200" fill="url(#oceanGradient)" opacity="0.4"/>
  <ellipse cx="200" cy="530" rx="250" ry="180" fill="url(#oceanGradient)" opacity="0.3"/>

  <!-- Wave patterns -->
  <path d="M 0 400 Q 300 350 600 400 T 1200 400 L 1200 630 L 0 630 Z" fill="#1E90A0" opacity="0.08"/>
  <path d="M 0 450 Q 250 420 500 450 T 1000 450 T 1200 450 L 1200 630 L 0 630 Z" fill="#4FD1C5" opacity="0.05"/>

  <!-- Caviar roe particles -->
  <circle cx="498.1454410131658" cy="491.6793697251183" r="3.0474958094144737" fill="#CFAE58" opacity="0.2320629131259203"/>
  <circle cx="544.3668132378635" cy="322.8522056624365" r="4.098096104965998" fill="#CFAE58" opacity="0.17191466389670823"/>
  <circle cx="775.3049397461676" cy="461.5497287377325" r="2.924835752416283" fill="#CFAE58" opacity="0.19425266611425857"/>
  <circle cx="845.9743288742249" cy="309.3911991896817" r="4.360372243112658" fill="#CFAE58" opacity="0.24171278072424282"/>
  <circle cx="52.20471801630735" cy="283.77163874041395" r="3.322212302966242" fill="#CFAE58" opacity="0.11260320299684297"/>
  <circle cx="875.7956004485657" cy="158.6269734480871" r="4.931353213673501" fill="#CFAE58" opacity="0.2093146131485625"/>
  <circle cx="446.7902710800507" cy="615.0262009284578" r="3.4590716284861305" fill="#CFAE58" opacity="0.1590192690629615"/>
  <circle cx="825.4504019860311" cy="63.46518105276037" r="5.102932183590403" fill="#CFAE58" opacity="0.11435659135739724"/>
  <circle cx="425.04079606121064" cy="55.18711892816816" r="5.338796424554202" fill="#CFAE58" opacity="0.2099172020565384"/>
  <circle cx="1020.4753470844616" cy="80.38581297253499" r="5.736662906104506" fill="#CFAE58" opacity="0.212178893828747"/>
  <circle cx="171.01170356048777" cy="190.54773183085402" r="5.120675889188377" fill="#CFAE58" opacity="0.1348250453640213"/>
  <circle cx="281.62218374692867" cy="43.5482664197777" r="4.625504742712122" fill="#CFAE58" opacity="0.2107441726650647"/>
  <circle cx="981.9242144644771" cy="140.70815205875653" r="4.3485901320248095" fill="#CFAE58" opacity="0.2024581850793415"/>
  <circle cx="504.8382746778448" cy="194.18714563385" r="4.34697184605717" fill="#CFAE58" opacity="0.20274681687752094"/>
  <circle cx="1131.2183010898382" cy="594.8863960420057" r="3.64776249529773" fill="#CFAE58" opacity="0.1854603118089972"/>
  <circle cx="30.875300366971725" cy="475.0358393630378" r="5.526917528656636" fill="#CFAE58" opacity="0.23111465569655054"/>
  <circle cx="19.47201174915092" cy="349.66245908086614" r="4.627066675713241" fill="#CFAE58" opacity="0.14522687944879034"/>
  <circle cx="825.0808714179412" cy="227.54574264397763" r="5.275279160448739" fill="#CFAE58" opacity="0.17818846762655616"/>
  <circle cx="1082.3811572206694" cy="256.1890194814471" r="5.001480249530588" fill="#CFAE58" opacity="0.17977045402967737"/>
  <circle cx="976.6062634558109" cy="186.6455326482272" r="2.295025127719038" fill="#CFAE58" opacity="0.1904725509254911"/>
  <circle cx="250.7367241874891" cy="335.9298464546799" r="5.035763024738204" fill="#CFAE58" opacity="0.1297977769797012"/>
  <circle cx="80.24452415389361" cy="75.28992545703598" r="2.042535806530065" fill="#CFAE58" opacity="0.21472832336514477"/>
  <circle cx="459.97604914109394" cy="402.2010619847118" r="4.210524700979912" fill="#CFAE58" opacity="0.13284479533979507"/>
  <circle cx="214.7873777777521" cy="419.98688830909526" r="3.786129454534551" fill="#CFAE58" opacity="0.18371800785120518"/>
  <circle cx="382.43317747226575" cy="502.56643145080216" r="3.079776690757119" fill="#CFAE58" opacity="0.21883624074891894"/>
  <circle cx="739.8469549339786" cy="369.2673033530857" r="2.932730288080621" fill="#CFAE58" opacity="0.18950361983045882"/>
  <circle cx="1144.0092575716667" cy="203.17411103384694" r="2.093860448344934" fill="#CFAE58" opacity="0.15954609856818439"/>
  <circle cx="936.8470634284645" cy="125.27571509750409" r="3.899003767777284" fill="#CFAE58" opacity="0.20137076199295162"/>
  <circle cx="1192.876792110504" cy="481.3023551242957" r="4.809110906216763" fill="#CFAE58" opacity="0.19738045640381355"/>
  <circle cx="624.5489452650922" cy="327.2758225568965" r="5.438149865330418" fill="#CFAE58" opacity="0.2396552869128248"/>

  <!-- Border with glow -->
  <rect x="40" y="40" width="1120" height="550" fill="none" stroke="url(#goldGradient)" stroke-width="3" rx="12" filter="url(#softGlow)"/>

  <!-- Icon circle with premium background -->
  <circle cx="150" cy="200" r="75" fill="#CFAE58" opacity="0.15" filter="url(#softGlow)"/>
  <circle cx="150" cy="200" r="70" fill="#CFAE58" opacity="0.25"/>
  <text x="150" y="235" font-size="90" text-anchor="middle" fill="#CFAE58" filter="url(#glow)">🐠</text>

  <!-- Premium logo (crown) with enhanced styling -->
  <g transform="translate(100, 70)">
    <path d="M 30 20 L 40 35 L 35 35 Z M 50 15 L 60 35 L 45 35 Z M 65 20 L 75 35 L 70 35 Z M 30 35 L 75 35 L 73 45 L 32 45 Z"
          fill="url(#goldGradient)" filter="url(#glow)" stroke="#B89842" stroke-width="0.5"/>
    <circle cx="40" cy="25" r="3" fill="#4FD1C5" filter="url(#glow)"/>
    <circle cx="52" cy="20" r="4" fill="#4FD1C5" filter="url(#glow)"/>
    <circle cx="65" cy="25" r="3" fill="#4FD1C5" filter="url(#glow)"/>
  </g>

  <!-- Title with shadow -->
  <text x="280" y="180" font-family="Georgia, serif" font-size="72" font-weight="bold"
        fill="url(#goldGradient)" filter="url(#shadow)">Sturgeon &amp; Black Caviar</text>

  <!-- Subtitle with subtle glow -->
  <text x="280" y="230" font-family="Arial, sans-serif" font-size="36"
        fill="#D6DEE6" opacity="0.95" filter="url(#softGlow)">Premium Caviar Encyclopedia</text>

  <!-- Brand name with letter spacing -->
  <text x="280" y="300" font-family="Georgia, serif" font-size="32" font-weight="bold"
        fill="#CFAE58" letter-spacing="4" filter="url(#glow)">ROYAL KETA</text>

  <!-- Russian tagline -->
  <text x="280" y="340" font-family="Arial, sans-serif" font-size="22" font-style="italic"
        fill="#8B95A1" opacity="0.8">От икринки к королевской</text>

  <!-- Location -->
  <text x="280" y="380" font-family="Arial, sans-serif" font-size="20"
        fill="#8B95A1" opacity="0.7">Невельский район, Сахалин</text>

  <!-- Website with glow -->
  <text x="100" y="570" font-family="Arial, sans-serif" font-size="30" font-weight="bold"
        fill="#4FD1C5" filter="url(#glow)">royalketa.com</text>

  <!-- Enhanced decorative salmon silhouette -->
  <g transform="translate(950, 480)" opacity="0.2" filter="url(#softGlow)">
    <ellipse cx="0" cy="0" rx="90" ry="35" fill="#CFAE58"/>
    <path d="M 90 0 L 120 -18 L 130 0 L 120 18 Z" fill="#CFAE58"/>
    <path d="M -25 -35 L 0 -45 L 25 -35 Z" fill="#CFAE58"/>
    <ellipse cx="-50" cy="0" rx="15" ry="12" fill="#0B0F14"/>
  </g>

  <!-- Additional decorative caviar clusters -->
  <g opacity="0.2">
    <circle cx="1050" cy="120" r="6" fill="#CFAE58"/>
    <circle cx="1065" cy="115" r="5" fill="#CFAE58"/>
    <circle cx="1058" cy="130" r="4" fill="#CFAE58"/>
    <circle cx="150" cy="500" r="5" fill="#4FD1C5"/>
    <circle cx="165" cy="508" r="4" fill="#4FD1C5"/>
    <circle cx="140" cy="512" r="5" fill="#4FD1C5"/>
  </g>
</svg>