<svg width="1200" height="630" xmlns="http://www.w3.org/2000/svg">
  <defs>
    <linearGradient id="bgGradient" x1="0%" y1="0%" x2="100%" y2="100%">
      <stop offset="0%" style="stop-color:#0B0F14;stop-opacity:1" />
      <stop offset="50%" style="stop-color:#0F1619;stop-opacity:1" />
      <stop offset="100%" style="stop-color:#0F1922;stop-opacity:1" />
    </linearGradient>
    <linearGradient id="goldGradient" x1="0%" y1="0%" x2="100%" y2="0%">
      <stop offset="0%" style="stop-color:#E5D596;stop-opacity:1" />
      <stop offset="50%" style="stop-color:#CFAE58;stop-opacity:1" />
      <stop offset="100%" style="stop-color:#B89842;stop-opacity:1" />
    </linearGradient>
    <radialGradient id="oceanGradient" cx="50%" cy="50%" r="50%">
      <stop offset="0%" style="stop-color:#4FD1C5;stop-opacity:0.3" />
      <stop offset="100%" style="stop-color:#1E90A0;stop-opacity:0.05" />
    </radialGradient>
    <filter id="glow">
      <feGaussianBlur stdDeviation="5" result="coloredBlur"/>
      <feMerge>
        <feMergeNode in="coloredBlur"/>
        <feMergeNode in="SourceGraphic"/>
      </feMerge>
    </filter>
    <filter id="softGlow">
      <feGaussianBlur stdDeviation="8" result="coloredBlur"/>
      <feMerge>
        <feMergeNode in="coloredBlur"/>
        <feMergeNode in="SourceGraphic"/>
      </feMerge>
    </filter>
    <filter id="shadow">
      <feDropShadow dx="0" dy="4" stdDeviation="8" flood-color="#000000" flood-opacity="0.5"/>
    </filter>
  </defs>

  <!-- Background -->
  <rect width="1200" height="630" fill="url(#bgGradient)"/>

  <!-- Decorative ocean gradients -->
  <ellipse cx="1000" cy="150" rx="300" ry="200" fill="url(#oceanGradient)" opacity="0.4"/>
  <ellipse cx="200" cy="530" rx="250" ry="180" fill="url(#oceanGradient)" opacity="0.3"/>

  <!-- Wave patterns -->
  <path d="M 0 400 Q 300 350 600 400 T 1200 400 L 1200 630 L 0 630 Z" fill="#1E90A0" opacity="0.08"/>
  <path d="M 0 450 Q 250 420 500 450 T 1000 450 T 1200 450 L 1200 630 L 0 630 Z" fill="#4FD1C5" opacity="0.05"/>

  <!-- Caviar roe particles -->
  <circle cx="446.4150378519547" cy="45.579804813134594" r="4.564778763074642" fill="#CFAE58" opacity="0.15912042536830326"/>
  <circle cx="978.5200685329543" cy="589.8788148604881" r="4.490770161344878" fill="#CFAE58" opacity="0.2193737637750972"/>
  <circle cx="622.8430956871347" cy="158.89164200580998" r="2.0351475597195763" fill="#CFAE58" opacity="0.20554224186757306"/>
  <circle cx="416.0357856392006" cy="169.286984664667" r="5.529191013115945" fill="#CFAE58" opacity="0.18794407604821523"/>
  <circle cx="1079.6448567521409" cy="393.2847391974546" r="4.529375956378761" fill="#CFAE58" opacity="0.1946263782200252"/>
  <circle cx="1164.2909964511184" cy="616.8340924877406" r="2.2037120159819197" fill="#CFAE58" opacity="0.2100739472860888"/>
  <circle cx="468.4388398545116" cy="76.07290260432437" r="2.429431629348597" fill="#CFAE58" opacity="0.18444140406044407"/>
  <circle cx="1126.7448637032644" cy="134.0988138025207" r="4.514157963490605" fill="#CFAE58" opacity="0.18625993172252434"/>
  <circle cx="83.32201955077463" cy="403.78076502030336" r="5.070775719961778" fill="#CFAE58" opacity="0.14381329712846364"/>
  <circle cx="839.6197185151606" cy="23.480889966666037" r="3.255323847316078" fill="#CFAE58" opacity="0.1524501323957439"/>
  <circle cx="433.69579314348385" cy="209.53644480883287" r="5.370573457504731" fill="#CFAE58" opacity="0.22012345154524088"/>
  <circle cx="475.2209900864162" cy="482.75496440955715" r="5.980568586923768" fill="#CFAE58" opacity="0.17070185408849203"/>
  <circle cx="134.25387450247518" cy="347.1638636238299" r="5.086741127486354" fill="#CFAE58" opacity="0.195476894064266"/>
  <circle cx="639.1397858887888" cy="52.33617154874203" r="5.8222992005541405" fill="#CFAE58" opacity="0.11529808612523693"/>
  <circle cx="782.0681598743565" cy="390.3317608829915" r="2.2779646692871327" fill="#CFAE58" opacity="0.16583857529639506"/>
  <circle cx="1128.2622194735695" cy="477.34686734471217" r="2.09537659457889" fill="#CFAE58" opacity="0.10366802375948789"/>
  <circle cx="407.9102527526182" cy="293.8669507456627" r="2.8323092854727996" fill="#CFAE58" opacity="0.13719075005517728"/>
  <circle cx="398.7854535795022" cy="90.93372147338869" r="4.896460907066719" fill="#CFAE58" opacity="0.16507974174387108"/>
  <circle cx="724.1989084654433" cy="511.8518107110528" r="5.930403079902568" fill="#CFAE58" opacity="0.21444125709696857"/>
  <circle cx="264.46380653815925" cy="168.08874144283158" r="3.764501118651179" fill="#CFAE58" opacity="0.1871038012230518"/>
  <circle cx="827.7477738414286" cy="227.41602970966758" r="2.022582496622417" fill="#CFAE58" opacity="0.21446192177880824"/>
  <circle cx="200.25800349053551" cy="166.54591788002497" r="2.7216783896587504" fill="#CFAE58" opacity="0.19619647481108782"/>
  <circle cx="230.7893845706353" cy="451.349075414933" r="2.93476473825664" fill="#CFAE58" opacity="0.11125087660235841"/>
  <circle cx="1186.7784741158482" cy="379.9709471021768" r="3.685269856010815" fill="#CFAE58" opacity="0.24905910006598775"/>
  <circle cx="1062.7669522689532" cy="194.68535496254148" r="3.93453971746337" fill="#CFAE58" opacity="0.15823069231325684"/>
  <circle cx="318.7178645170488" cy="118.0964658092" r="2.731865530527163" fill="#CFAE58" opacity="0.2042529885269389"/>
  <circle cx="666.4977645977995" cy="254.5976338781125" r="5.330136888629294" fill="#CFAE58" opacity="0.22196731063206102"/>
  <circle cx="464.72588526508" cy="599.3287979104554" r="2.611403330317537" fill="#CFAE58" opacity="0.2388518670796093"/>
  <circle cx="134.30998446212973" cy="194.60202345675467" r="5.003915108657459" fill="#CFAE58" opacity="0.1683438477062888"/>
  <circle cx="508.783699802925" cy="167.04952786874685" r="4.143722367193389" fill="#CFAE58" opacity="0.24563465470259746"/>

  <!-- Border with glow -->
  <rect x="40" y="40" width="1120" height="550" fill="none" stroke="url(#goldGradient)" stroke-width="3" rx="12" filter="url(#softGlow)"/>

  <!-- Icon circle with premium background -->
  <circle cx="150" cy="200" r="75" fill="#CFAE58" opacity="0.15" filter="url(#softGlow)"/>
  <circle cx="150" cy="200" r="70" fill="#CFAE58" opacity="0.25"/>
  <text x="150" y="235" font-size="90" text-anchor="middle" fill="#CFAE58" filter="url(#glow)">🐠</text>

  <!-- Premium logo (crown) with enhanced styling -->
  <g transform="translate(100, 70)">
    <path d="M 30 20 L 40 35 L 35 35 Z M 50 15 L 60 35 L 45 35 Z M 65 20 L 75 35 L 70 35 Z M 30 35 L 75 35 L 73 45 L 32 45 Z"
          fill="url(#goldGradient)" filter="url(#glow)" stroke="#B89842" stroke-width="0.5"/>
    <circle cx="40" cy="25" r="3" fill="#4FD1C5" filter="url(#glow)"/>
    <circle cx="52" cy="20" r="4" fill="#4FD1C5" filter="url(#glow)"/>
    <circle cx="65" cy="25" r="3" fill="#4FD1C5" filter="url(#glow)"/>
  </g>

  <!-- Title with shadow -->
  <text x="280" y="180" font-family="Georgia, serif" font-size="72" font-weight="bold"
        fill="url(#goldGradient)" filter="url(#shadow)">Sturgeon &amp; Black Caviar</text>

  <!-- Subtitle with subtle glow -->
  <text x="280" y="230" font-family="Arial, sans-serif" font-size="36"
        fill="#D6DEE6" opacity="0.95" filter="url(#softGlow)">Premium Caviar Encyclopedia</text>

  <!-- Brand name with letter spacing -->
  <text x="280" y="300" font-family="Georgia, serif" font-size="32" font-weight="bold"
        fill="#CFAE58" letter-spacing="4" filter="url(#glow)">ROYAL KETA</text>

  <!-- Russian tagline -->
  <text x="280" y="340" font-family="Arial, sans-serif" font-size="22" font-style="italic"
        fill="#8B95A1" opacity="0.8">От икринки к королевской</text>

  <!-- Location -->
  <text x="280" y="380" font-family="Arial, sans-serif" font-size="20"
        fill="#8B95A1" opacity="0.7">Невельский район, Сахалин</text>

  <!-- Website with glow -->
  <text x="100" y="570" font-family="Arial, sans-serif" font-size="30" font-weight="bold"
        fill="#4FD1C5" filter="url(#glow)">royalketa.com</text>

  <!-- Enhanced decorative salmon silhouette -->
  <g transform="translate(950, 480)" opacity="0.2" filter="url(#softGlow)">
    <ellipse cx="0" cy="0" rx="90" ry="35" fill="#CFAE58"/>
    <path d="M 90 0 L 120 -18 L 130 0 L 120 18 Z" fill="#CFAE58"/>
    <path d="M -25 -35 L 0 -45 L 25 -35 Z" fill="#CFAE58"/>
    <ellipse cx="-50" cy="0" rx="15" ry="12" fill="#0B0F14"/>
  </g>

  <!-- Additional decorative caviar clusters -->
  <g opacity="0.2">
    <circle cx="1050" cy="120" r="6" fill="#CFAE58"/>
    <circle cx="1065" cy="115" r="5" fill="#CFAE58"/>
    <circle cx="1058" cy="130" r="4" fill="#CFAE58"/>
    <circle cx="150" cy="500" r="5" fill="#4FD1C5"/>
    <circle cx="165" cy="508" r="4" fill="#4FD1C5"/>
    <circle cx="140" cy="512" r="5" fill="#4FD1C5"/>
  </g>
</svg>