<svg width="1200" height="630" xmlns="http://www.w3.org/2000/svg">
  <defs>
    <linearGradient id="bgGradient" x1="0%" y1="0%" x2="100%" y2="100%">
      <stop offset="0%" style="stop-color:#0B0F14;stop-opacity:1" />
      <stop offset="50%" style="stop-color:#0F1619;stop-opacity:1" />
      <stop offset="100%" style="stop-color:#0F1922;stop-opacity:1" />
    </linearGradient>
    <linearGradient id="goldGradient" x1="0%" y1="0%" x2="100%" y2="0%">
      <stop offset="0%" style="stop-color:#E5D596;stop-opacity:1" />
      <stop offset="50%" style="stop-color:#CFAE58;stop-opacity:1" />
      <stop offset="100%" style="stop-color:#B89842;stop-opacity:1" />
    </linearGradient>
    <radialGradient id="oceanGradient" cx="50%" cy="50%" r="50%">
      <stop offset="0%" style="stop-color:#4FD1C5;stop-opacity:0.3" />
      <stop offset="100%" style="stop-color:#1E90A0;stop-opacity:0.05" />
    </radialGradient>
    <filter id="glow">
      <feGaussianBlur stdDeviation="5" result="coloredBlur"/>
      <feMerge>
        <feMergeNode in="coloredBlur"/>
        <feMergeNode in="SourceGraphic"/>
      </feMerge>
    </filter>
    <filter id="softGlow">
      <feGaussianBlur stdDeviation="8" result="coloredBlur"/>
      <feMerge>
        <feMergeNode in="coloredBlur"/>
        <feMergeNode in="SourceGraphic"/>
      </feMerge>
    </filter>
    <filter id="shadow">
      <feDropShadow dx="0" dy="4" stdDeviation="8" flood-color="#000000" flood-opacity="0.5"/>
    </filter>
  </defs>

  <!-- Background -->
  <rect width="1200" height="630" fill="url(#bgGradient)"/>

  <!-- Decorative ocean gradients -->
  <ellipse cx="1000" cy="150" rx="300" ry="200" fill="url(#oceanGradient)" opacity="0.4"/>
  <ellipse cx="200" cy="530" rx="250" ry="180" fill="url(#oceanGradient)" opacity="0.3"/>

  <!-- Wave patterns -->
  <path d="M 0 400 Q 300 350 600 400 T 1200 400 L 1200 630 L 0 630 Z" fill="#1E90A0" opacity="0.08"/>
  <path d="M 0 450 Q 250 420 500 450 T 1000 450 T 1200 450 L 1200 630 L 0 630 Z" fill="#4FD1C5" opacity="0.05"/>

  <!-- Caviar roe particles -->
  <circle cx="818.5067951447709" cy="371.7526749600487" r="5.004248130770954" fill="#CFAE58" opacity="0.16887065414922026"/>
  <circle cx="1096.289400115631" cy="30.720530098378887" r="5.995550204394743" fill="#CFAE58" opacity="0.24170401707116665"/>
  <circle cx="158.38983338238143" cy="470.28054752398856" r="4.089025548440871" fill="#CFAE58" opacity="0.13962058079502537"/>
  <circle cx="929.592418942699" cy="2.2693166293949094" r="2.4958595503157963" fill="#CFAE58" opacity="0.1924774261086562"/>
  <circle cx="240.20758048037095" cy="72.25757268188073" r="3.6996303846008147" fill="#CFAE58" opacity="0.16035381713451757"/>
  <circle cx="470.0608399736343" cy="361.48621182685514" r="5.6510320288275775" fill="#CFAE58" opacity="0.10066938063322275"/>
  <circle cx="267.6232078664598" cy="318.6093742770066" r="2.302239260105227" fill="#CFAE58" opacity="0.23503852107166648"/>
  <circle cx="103.58088792478509" cy="137.39303964777105" r="5.467725746592786" fill="#CFAE58" opacity="0.1605118790749873"/>
  <circle cx="794.8104965401529" cy="223.12990011702516" r="3.127819886504994" fill="#CFAE58" opacity="0.13492096949670798"/>
  <circle cx="247.04364930411046" cy="460.1786181298572" r="3.4364074871699946" fill="#CFAE58" opacity="0.11879022873519517"/>
  <circle cx="237.42760942187684" cy="555.1103816485767" r="2.368543037456941" fill="#CFAE58" opacity="0.1406334585070504"/>
  <circle cx="470.15522188372034" cy="614.2120769969821" r="3.3470334036727705" fill="#CFAE58" opacity="0.22567308800225633"/>
  <circle cx="754.0623846883977" cy="299.94035573067885" r="4.265555042322385" fill="#CFAE58" opacity="0.1399420561181296"/>
  <circle cx="1166.954494352881" cy="97.39588286395322" r="5.231324705633908" fill="#CFAE58" opacity="0.1118450818642214"/>
  <circle cx="232.02537562983983" cy="54.23446766883316" r="2.187850556247302" fill="#CFAE58" opacity="0.14642015694695543"/>
  <circle cx="391.36677696588987" cy="360.3874707187609" r="4.079368718147949" fill="#CFAE58" opacity="0.2062111610171825"/>
  <circle cx="58.3364345872015" cy="338.414593920373" r="5.7760207435955" fill="#CFAE58" opacity="0.22797565997480962"/>
  <circle cx="160.31284887593876" cy="221.1498436343379" r="2.184308260952159" fill="#CFAE58" opacity="0.12192785382360641"/>
  <circle cx="904.1307350293482" cy="346.9543671000551" r="3.7425180144549413" fill="#CFAE58" opacity="0.20427506546678653"/>
  <circle cx="205.56735414820176" cy="214.57957086243755" r="2.5054594812846362" fill="#CFAE58" opacity="0.14055328720977048"/>
  <circle cx="83.49472840929391" cy="299.3173195840392" r="5.396348806465709" fill="#CFAE58" opacity="0.21592336407631804"/>
  <circle cx="376.0895203958506" cy="383.8498526415755" r="5.343685683322903" fill="#CFAE58" opacity="0.23459855325307996"/>
  <circle cx="983.4656068292933" cy="500.19681192412366" r="5.62557217948906" fill="#CFAE58" opacity="0.14794880356273912"/>
  <circle cx="629.2248129150737" cy="626.0296025563389" r="2.1760151146227953" fill="#CFAE58" opacity="0.1946054696336218"/>
  <circle cx="793.5047168903861" cy="70.69705969462463" r="3.474171600575204" fill="#CFAE58" opacity="0.24734736189303552"/>
  <circle cx="218.1410616224904" cy="345.1014496062033" r="4.093539788030471" fill="#CFAE58" opacity="0.15380034424043806"/>
  <circle cx="1021.3588758223627" cy="246.9551607430982" r="4.979575162835573" fill="#CFAE58" opacity="0.22285887081674344"/>
  <circle cx="1114.4686476482434" cy="588.0426845929999" r="2.7039810088281615" fill="#CFAE58" opacity="0.21355913296816387"/>
  <circle cx="762.4852618633432" cy="48.52889749680856" r="4.36120564872018" fill="#CFAE58" opacity="0.24457007251570556"/>
  <circle cx="1026.387223962256" cy="562.3466580131928" r="4.082235685022129" fill="#CFAE58" opacity="0.1578708948814176"/>

  <!-- Border with glow -->
  <rect x="40" y="40" width="1120" height="550" fill="none" stroke="url(#goldGradient)" stroke-width="3" rx="12" filter="url(#softGlow)"/>

  <!-- Icon circle with premium background -->
  <circle cx="150" cy="200" r="75" fill="#CFAE58" opacity="0.15" filter="url(#softGlow)"/>
  <circle cx="150" cy="200" r="70" fill="#CFAE58" opacity="0.25"/>
  <text x="150" y="235" font-size="90" text-anchor="middle" fill="#CFAE58" filter="url(#glow)">🐠</text>

  <!-- Premium logo (crown) with enhanced styling -->
  <g transform="translate(100, 70)">
    <path d="M 30 20 L 40 35 L 35 35 Z M 50 15 L 60 35 L 45 35 Z M 65 20 L 75 35 L 70 35 Z M 30 35 L 75 35 L 73 45 L 32 45 Z"
          fill="url(#goldGradient)" filter="url(#glow)" stroke="#B89842" stroke-width="0.5"/>
    <circle cx="40" cy="25" r="3" fill="#4FD1C5" filter="url(#glow)"/>
    <circle cx="52" cy="20" r="4" fill="#4FD1C5" filter="url(#glow)"/>
    <circle cx="65" cy="25" r="3" fill="#4FD1C5" filter="url(#glow)"/>
  </g>

  <!-- Title with shadow -->
  <text x="280" y="180" font-family="Georgia, serif" font-size="72" font-weight="bold"
        fill="url(#goldGradient)" filter="url(#shadow)">Sturgeon &amp; Black Caviar</text>

  <!-- Subtitle with subtle glow -->
  <text x="280" y="230" font-family="Arial, sans-serif" font-size="36"
        fill="#D6DEE6" opacity="0.95" filter="url(#softGlow)">Premium Caviar Encyclopedia</text>

  <!-- Brand name with letter spacing -->
  <text x="280" y="300" font-family="Georgia, serif" font-size="32" font-weight="bold"
        fill="#CFAE58" letter-spacing="4" filter="url(#glow)">ROYAL KETA</text>

  <!-- Russian tagline -->
  <text x="280" y="340" font-family="Arial, sans-serif" font-size="22" font-style="italic"
        fill="#8B95A1" opacity="0.8">От икринки к королевской</text>

  <!-- Location -->
  <text x="280" y="380" font-family="Arial, sans-serif" font-size="20"
        fill="#8B95A1" opacity="0.7">Невельский район, Сахалин</text>

  <!-- Website with glow -->
  <text x="100" y="570" font-family="Arial, sans-serif" font-size="30" font-weight="bold"
        fill="#4FD1C5" filter="url(#glow)">royalketa.com</text>

  <!-- Enhanced decorative salmon silhouette -->
  <g transform="translate(950, 480)" opacity="0.2" filter="url(#softGlow)">
    <ellipse cx="0" cy="0" rx="90" ry="35" fill="#CFAE58"/>
    <path d="M 90 0 L 120 -18 L 130 0 L 120 18 Z" fill="#CFAE58"/>
    <path d="M -25 -35 L 0 -45 L 25 -35 Z" fill="#CFAE58"/>
    <ellipse cx="-50" cy="0" rx="15" ry="12" fill="#0B0F14"/>
  </g>

  <!-- Additional decorative caviar clusters -->
  <g opacity="0.2">
    <circle cx="1050" cy="120" r="6" fill="#CFAE58"/>
    <circle cx="1065" cy="115" r="5" fill="#CFAE58"/>
    <circle cx="1058" cy="130" r="4" fill="#CFAE58"/>
    <circle cx="150" cy="500" r="5" fill="#4FD1C5"/>
    <circle cx="165" cy="508" r="4" fill="#4FD1C5"/>
    <circle cx="140" cy="512" r="5" fill="#4FD1C5"/>
  </g>
</svg>