<svg width="1200" height="630" xmlns="http://www.w3.org/2000/svg">
  <defs>
    <linearGradient id="bgGradient" x1="0%" y1="0%" x2="100%" y2="100%">
      <stop offset="0%" style="stop-color:#0B0F14;stop-opacity:1" />
      <stop offset="50%" style="stop-color:#0F1619;stop-opacity:1" />
      <stop offset="100%" style="stop-color:#0F1922;stop-opacity:1" />
    </linearGradient>
    <linearGradient id="goldGradient" x1="0%" y1="0%" x2="100%" y2="0%">
      <stop offset="0%" style="stop-color:#E5D596;stop-opacity:1" />
      <stop offset="50%" style="stop-color:#CFAE58;stop-opacity:1" />
      <stop offset="100%" style="stop-color:#B89842;stop-opacity:1" />
    </linearGradient>
    <radialGradient id="oceanGradient" cx="50%" cy="50%" r="50%">
      <stop offset="0%" style="stop-color:#4FD1C5;stop-opacity:0.3" />
      <stop offset="100%" style="stop-color:#1E90A0;stop-opacity:0.05" />
    </radialGradient>
    <filter id="glow">
      <feGaussianBlur stdDeviation="5" result="coloredBlur"/>
      <feMerge>
        <feMergeNode in="coloredBlur"/>
        <feMergeNode in="SourceGraphic"/>
      </feMerge>
    </filter>
    <filter id="softGlow">
      <feGaussianBlur stdDeviation="8" result="coloredBlur"/>
      <feMerge>
        <feMergeNode in="coloredBlur"/>
        <feMergeNode in="SourceGraphic"/>
      </feMerge>
    </filter>
    <filter id="shadow">
      <feDropShadow dx="0" dy="4" stdDeviation="8" flood-color="#000000" flood-opacity="0.5"/>
    </filter>
  </defs>

  <!-- Background -->
  <rect width="1200" height="630" fill="url(#bgGradient)"/>

  <!-- Decorative ocean gradients -->
  <ellipse cx="1000" cy="150" rx="300" ry="200" fill="url(#oceanGradient)" opacity="0.4"/>
  <ellipse cx="200" cy="530" rx="250" ry="180" fill="url(#oceanGradient)" opacity="0.3"/>

  <!-- Wave patterns -->
  <path d="M 0 400 Q 300 350 600 400 T 1200 400 L 1200 630 L 0 630 Z" fill="#1E90A0" opacity="0.08"/>
  <path d="M 0 450 Q 250 420 500 450 T 1000 450 T 1200 450 L 1200 630 L 0 630 Z" fill="#4FD1C5" opacity="0.05"/>

  <!-- Caviar roe particles -->
  <circle cx="529.7304820587284" cy="368.1639869782345" r="2.9035133669050484" fill="#CFAE58" opacity="0.20902573622453186"/>
  <circle cx="969.3695498935547" cy="117.5044602019759" r="2.3278455539323617" fill="#CFAE58" opacity="0.12925428226555014"/>
  <circle cx="239.85258391454062" cy="507.9039744870903" r="3.857831261462826" fill="#CFAE58" opacity="0.21815406874292356"/>
  <circle cx="776.1015565058441" cy="269.41280045724784" r="5.49247173857624" fill="#CFAE58" opacity="0.16435425648214183"/>
  <circle cx="87.14928074568782" cy="84.92227324560334" r="5.675257137299022" fill="#CFAE58" opacity="0.2142601914729546"/>
  <circle cx="659.3033756494272" cy="7.764802964297587" r="2.9178732433307877" fill="#CFAE58" opacity="0.2257815468497081"/>
  <circle cx="777.4012024325153" cy="213.19419301556184" r="5.551745921768637" fill="#CFAE58" opacity="0.15972125791083694"/>
  <circle cx="5.300263786350845" cy="92.51551280353651" r="4.351826522868598" fill="#CFAE58" opacity="0.18070154003752448"/>
  <circle cx="235.5224384038333" cy="428.9250855050894" r="4.233130966534198" fill="#CFAE58" opacity="0.18545932221272826"/>
  <circle cx="508.81668836374934" cy="401.8975271680029" r="3.1405756608362085" fill="#CFAE58" opacity="0.1466939623468127"/>
  <circle cx="89.46391289259034" cy="423.9807442321727" r="4.89737797938745" fill="#CFAE58" opacity="0.20102185709241327"/>
  <circle cx="1196.3609097036624" cy="561.7240584520857" r="3.3853737186958517" fill="#CFAE58" opacity="0.18698919103137168"/>
  <circle cx="886.2557093471237" cy="107.40113220192795" r="4.1875334283528645" fill="#CFAE58" opacity="0.16047336612144206"/>
  <circle cx="623.9029069474291" cy="261.9278139271652" r="5.672693737748499" fill="#CFAE58" opacity="0.11007735545158258"/>
  <circle cx="909.7118897444007" cy="313.0606013553701" r="2.266602360093971" fill="#CFAE58" opacity="0.17582760336660064"/>
  <circle cx="1112.490533204377" cy="210.04029646443814" r="3.8031558011129234" fill="#CFAE58" opacity="0.24767870639081763"/>
  <circle cx="972.8883152211253" cy="145.42963280651023" r="5.698018595990131" fill="#CFAE58" opacity="0.14085910148417138"/>
  <circle cx="478.0826283142694" cy="56.8108875939894" r="5.9308235821867346" fill="#CFAE58" opacity="0.12314989196751744"/>
  <circle cx="973.8504520536193" cy="540.7472464914105" r="5.360140210881861" fill="#CFAE58" opacity="0.20545029187926248"/>
  <circle cx="593.652549218785" cy="63.42785753596748" r="5.616531133814054" fill="#CFAE58" opacity="0.17231989245874013"/>
  <circle cx="1174.4066334727293" cy="207.94124551322093" r="2.382645470151982" fill="#CFAE58" opacity="0.2284932003790657"/>
  <circle cx="167.98294235636752" cy="536.5751081824985" r="4.227936013205854" fill="#CFAE58" opacity="0.16112162895578672"/>
  <circle cx="580.921213231069" cy="368.2124805549369" r="4.375298243874049" fill="#CFAE58" opacity="0.2395335892952127"/>
  <circle cx="1141.6493685917292" cy="242.97938856077602" r="2.1178601211435177" fill="#CFAE58" opacity="0.24464852054957306"/>
  <circle cx="436.5025052515344" cy="140.8961499408176" r="2.347842905882337" fill="#CFAE58" opacity="0.13842325982861745"/>
  <circle cx="606.020141353313" cy="578.0624251323012" r="4.092596021020932" fill="#CFAE58" opacity="0.23359781878801927"/>
  <circle cx="1008.8169642831025" cy="619.9818473209725" r="4.910179895548637" fill="#CFAE58" opacity="0.12457717789997239"/>
  <circle cx="0.8686890564578498" cy="237.70279173334006" r="5.6108186388139245" fill="#CFAE58" opacity="0.2420864545269757"/>
  <circle cx="301.02801322002875" cy="395.4555686327103" r="3.5692570300856774" fill="#CFAE58" opacity="0.13460439442315317"/>
  <circle cx="530.8343669607474" cy="21.231388308488725" r="5.350461810739582" fill="#CFAE58" opacity="0.1567268206352274"/>

  <!-- Border with glow -->
  <rect x="40" y="40" width="1120" height="550" fill="none" stroke="url(#goldGradient)" stroke-width="3" rx="12" filter="url(#softGlow)"/>

  <!-- Icon circle with premium background -->
  <circle cx="150" cy="200" r="75" fill="#CFAE58" opacity="0.15" filter="url(#softGlow)"/>
  <circle cx="150" cy="200" r="70" fill="#CFAE58" opacity="0.25"/>
  <text x="150" y="235" font-size="90" text-anchor="middle" fill="#CFAE58" filter="url(#glow)">🐠</text>

  <!-- Premium logo (crown) with enhanced styling -->
  <g transform="translate(100, 70)">
    <path d="M 30 20 L 40 35 L 35 35 Z M 50 15 L 60 35 L 45 35 Z M 65 20 L 75 35 L 70 35 Z M 30 35 L 75 35 L 73 45 L 32 45 Z"
          fill="url(#goldGradient)" filter="url(#glow)" stroke="#B89842" stroke-width="0.5"/>
    <circle cx="40" cy="25" r="3" fill="#4FD1C5" filter="url(#glow)"/>
    <circle cx="52" cy="20" r="4" fill="#4FD1C5" filter="url(#glow)"/>
    <circle cx="65" cy="25" r="3" fill="#4FD1C5" filter="url(#glow)"/>
  </g>

  <!-- Title with shadow -->
  <text x="280" y="180" font-family="Georgia, serif" font-size="72" font-weight="bold"
        fill="url(#goldGradient)" filter="url(#shadow)">Sturgeon &amp; Black Caviar</text>

  <!-- Subtitle with subtle glow -->
  <text x="280" y="230" font-family="Arial, sans-serif" font-size="36"
        fill="#D6DEE6" opacity="0.95" filter="url(#softGlow)">Premium Caviar Encyclopedia</text>

  <!-- Brand name with letter spacing -->
  <text x="280" y="300" font-family="Georgia, serif" font-size="32" font-weight="bold"
        fill="#CFAE58" letter-spacing="4" filter="url(#glow)">ROYAL KETA</text>

  <!-- Russian tagline -->
  <text x="280" y="340" font-family="Arial, sans-serif" font-size="22" font-style="italic"
        fill="#8B95A1" opacity="0.8">От икринки к королевской</text>

  <!-- Location -->
  <text x="280" y="380" font-family="Arial, sans-serif" font-size="20"
        fill="#8B95A1" opacity="0.7">Невельский район, Сахалин</text>

  <!-- Website with glow -->
  <text x="100" y="570" font-family="Arial, sans-serif" font-size="30" font-weight="bold"
        fill="#4FD1C5" filter="url(#glow)">royalketa.com</text>

  <!-- Enhanced decorative salmon silhouette -->
  <g transform="translate(950, 480)" opacity="0.2" filter="url(#softGlow)">
    <ellipse cx="0" cy="0" rx="90" ry="35" fill="#CFAE58"/>
    <path d="M 90 0 L 120 -18 L 130 0 L 120 18 Z" fill="#CFAE58"/>
    <path d="M -25 -35 L 0 -45 L 25 -35 Z" fill="#CFAE58"/>
    <ellipse cx="-50" cy="0" rx="15" ry="12" fill="#0B0F14"/>
  </g>

  <!-- Additional decorative caviar clusters -->
  <g opacity="0.2">
    <circle cx="1050" cy="120" r="6" fill="#CFAE58"/>
    <circle cx="1065" cy="115" r="5" fill="#CFAE58"/>
    <circle cx="1058" cy="130" r="4" fill="#CFAE58"/>
    <circle cx="150" cy="500" r="5" fill="#4FD1C5"/>
    <circle cx="165" cy="508" r="4" fill="#4FD1C5"/>
    <circle cx="140" cy="512" r="5" fill="#4FD1C5"/>
  </g>
</svg>