<svg width="1200" height="630" xmlns="http://www.w3.org/2000/svg">
  <defs>
    <linearGradient id="bgGradient" x1="0%" y1="0%" x2="100%" y2="100%">
      <stop offset="0%" style="stop-color:#0B0F14;stop-opacity:1" />
      <stop offset="50%" style="stop-color:#0F1619;stop-opacity:1" />
      <stop offset="100%" style="stop-color:#0F1922;stop-opacity:1" />
    </linearGradient>
    <linearGradient id="goldGradient" x1="0%" y1="0%" x2="100%" y2="0%">
      <stop offset="0%" style="stop-color:#E5D596;stop-opacity:1" />
      <stop offset="50%" style="stop-color:#CFAE58;stop-opacity:1" />
      <stop offset="100%" style="stop-color:#B89842;stop-opacity:1" />
    </linearGradient>
    <radialGradient id="oceanGradient" cx="50%" cy="50%" r="50%">
      <stop offset="0%" style="stop-color:#4FD1C5;stop-opacity:0.3" />
      <stop offset="100%" style="stop-color:#1E90A0;stop-opacity:0.05" />
    </radialGradient>
    <filter id="glow">
      <feGaussianBlur stdDeviation="5" result="coloredBlur"/>
      <feMerge>
        <feMergeNode in="coloredBlur"/>
        <feMergeNode in="SourceGraphic"/>
      </feMerge>
    </filter>
    <filter id="softGlow">
      <feGaussianBlur stdDeviation="8" result="coloredBlur"/>
      <feMerge>
        <feMergeNode in="coloredBlur"/>
        <feMergeNode in="SourceGraphic"/>
      </feMerge>
    </filter>
    <filter id="shadow">
      <feDropShadow dx="0" dy="4" stdDeviation="8" flood-color="#000000" flood-opacity="0.5"/>
    </filter>
  </defs>

  <!-- Background -->
  <rect width="1200" height="630" fill="url(#bgGradient)"/>

  <!-- Decorative ocean gradients -->
  <ellipse cx="1000" cy="150" rx="300" ry="200" fill="url(#oceanGradient)" opacity="0.4"/>
  <ellipse cx="200" cy="530" rx="250" ry="180" fill="url(#oceanGradient)" opacity="0.3"/>

  <!-- Wave patterns -->
  <path d="M 0 400 Q 300 350 600 400 T 1200 400 L 1200 630 L 0 630 Z" fill="#1E90A0" opacity="0.08"/>
  <path d="M 0 450 Q 250 420 500 450 T 1000 450 T 1200 450 L 1200 630 L 0 630 Z" fill="#4FD1C5" opacity="0.05"/>

  <!-- Caviar roe particles -->
  <circle cx="823.3952225132489" cy="241.03646968510924" r="2.2278531804691735" fill="#CFAE58" opacity="0.2317252795912387"/>
  <circle cx="213.21827349269736" cy="606.2068495061595" r="3.669623706395874" fill="#CFAE58" opacity="0.14086166349234294"/>
  <circle cx="802.8428816055265" cy="9.862819701624217" r="3.47808263052612" fill="#CFAE58" opacity="0.16476506954535958"/>
  <circle cx="726.3341428083332" cy="94.46519935624903" r="4.582284975485621" fill="#CFAE58" opacity="0.19725967321022364"/>
  <circle cx="489.9329291137819" cy="0.995685432373703" r="2.2134916284895194" fill="#CFAE58" opacity="0.24040519983874992"/>
  <circle cx="704.3049509422765" cy="76.62164371598286" r="5.180837279072707" fill="#CFAE58" opacity="0.16493534555553493"/>
  <circle cx="37.26405652242333" cy="202.4307520535738" r="2.1803757515263342" fill="#CFAE58" opacity="0.1452534988248985"/>
  <circle cx="287.461350051653" cy="466.3509460366462" r="2.4361203223982697" fill="#CFAE58" opacity="0.16926588083438526"/>
  <circle cx="309.8229198417035" cy="443.0012316035488" r="3.3147409600195266" fill="#CFAE58" opacity="0.10646433684885206"/>
  <circle cx="787.1599633750088" cy="275.29896503134495" r="4.467016379934786" fill="#CFAE58" opacity="0.16235348454265242"/>
  <circle cx="1188.71770470557" cy="363.1730331064812" r="3.512535122759605" fill="#CFAE58" opacity="0.1814638996732121"/>
  <circle cx="37.45006409657439" cy="548.5157158391108" r="2.6164994210266803" fill="#CFAE58" opacity="0.11711272406209508"/>
  <circle cx="306.47055830652795" cy="471.42678624792916" r="2.8028124823468934" fill="#CFAE58" opacity="0.15928504312451888"/>
  <circle cx="446.2583594884851" cy="360.99775613594863" r="3.233111149459848" fill="#CFAE58" opacity="0.2446133941353582"/>
  <circle cx="856.9903593103619" cy="489.83854890115657" r="2.0011779997424766" fill="#CFAE58" opacity="0.1598132365183848"/>
  <circle cx="363.8679271499618" cy="103.55494070103612" r="4.678617858983446" fill="#CFAE58" opacity="0.1542856192594272"/>
  <circle cx="817.2403836117613" cy="9.160844534597052" r="3.699288251123793" fill="#CFAE58" opacity="0.19139602104034542"/>
  <circle cx="589.2886936035673" cy="317.9522841818713" r="2.88799227087822" fill="#CFAE58" opacity="0.1500621782098872"/>
  <circle cx="158.18299731424216" cy="297.5993549669241" r="3.5721842009626323" fill="#CFAE58" opacity="0.14465261662433754"/>
  <circle cx="1065.6873888984112" cy="608.037465546218" r="4.078047545083623" fill="#CFAE58" opacity="0.11958072165920891"/>
  <circle cx="694.4303790249971" cy="252.37713350343867" r="5.638150264505518" fill="#CFAE58" opacity="0.19411099283802308"/>
  <circle cx="346.4155206485916" cy="258.66215776511467" r="3.164499481170415" fill="#CFAE58" opacity="0.19164090305425613"/>
  <circle cx="11.54062706521568" cy="617.2927961353904" r="4.272701937384563" fill="#CFAE58" opacity="0.14069896667358714"/>
  <circle cx="305.2007077834249" cy="464.298256002796" r="3.7400095815166745" fill="#CFAE58" opacity="0.14710927332507923"/>
  <circle cx="874.9053271241788" cy="516.0485775811835" r="2.1222393154577643" fill="#CFAE58" opacity="0.11432892927538206"/>
  <circle cx="298.0500878020747" cy="42.59057695595599" r="3.3911163654636782" fill="#CFAE58" opacity="0.22319145685583325"/>
  <circle cx="727.0019621691259" cy="191.36455321940278" r="2.343706971310178" fill="#CFAE58" opacity="0.11130163600584275"/>
  <circle cx="34.38978300112821" cy="551.1371817393242" r="5.584075565940723" fill="#CFAE58" opacity="0.12054373800781093"/>
  <circle cx="191.5903948403126" cy="438.310236600822" r="5.464882506093358" fill="#CFAE58" opacity="0.21162214549427194"/>
  <circle cx="527.6398769480679" cy="556.0331008235883" r="5.3342510536725305" fill="#CFAE58" opacity="0.229055468609903"/>

  <!-- Border with glow -->
  <rect x="40" y="40" width="1120" height="550" fill="none" stroke="url(#goldGradient)" stroke-width="3" rx="12" filter="url(#softGlow)"/>

  <!-- Icon circle with premium background -->
  <circle cx="150" cy="200" r="75" fill="#CFAE58" opacity="0.15" filter="url(#softGlow)"/>
  <circle cx="150" cy="200" r="70" fill="#CFAE58" opacity="0.25"/>
  <text x="150" y="235" font-size="90" text-anchor="middle" fill="#CFAE58" filter="url(#glow)">🐠</text>

  <!-- Premium logo (crown) with enhanced styling -->
  <g transform="translate(100, 70)">
    <path d="M 30 20 L 40 35 L 35 35 Z M 50 15 L 60 35 L 45 35 Z M 65 20 L 75 35 L 70 35 Z M 30 35 L 75 35 L 73 45 L 32 45 Z"
          fill="url(#goldGradient)" filter="url(#glow)" stroke="#B89842" stroke-width="0.5"/>
    <circle cx="40" cy="25" r="3" fill="#4FD1C5" filter="url(#glow)"/>
    <circle cx="52" cy="20" r="4" fill="#4FD1C5" filter="url(#glow)"/>
    <circle cx="65" cy="25" r="3" fill="#4FD1C5" filter="url(#glow)"/>
  </g>

  <!-- Title with shadow -->
  <text x="280" y="180" font-family="Georgia, serif" font-size="72" font-weight="bold"
        fill="url(#goldGradient)" filter="url(#shadow)">Sturgeon &amp; Black Caviar</text>

  <!-- Subtitle with subtle glow -->
  <text x="280" y="230" font-family="Arial, sans-serif" font-size="36"
        fill="#D6DEE6" opacity="0.95" filter="url(#softGlow)">Premium Caviar Encyclopedia</text>

  <!-- Brand name with letter spacing -->
  <text x="280" y="300" font-family="Georgia, serif" font-size="32" font-weight="bold"
        fill="#CFAE58" letter-spacing="4" filter="url(#glow)">ROYAL KETA</text>

  <!-- Russian tagline -->
  <text x="280" y="340" font-family="Arial, sans-serif" font-size="22" font-style="italic"
        fill="#8B95A1" opacity="0.8">От икринки к королевской</text>

  <!-- Location -->
  <text x="280" y="380" font-family="Arial, sans-serif" font-size="20"
        fill="#8B95A1" opacity="0.7">Невельский район, Сахалин</text>

  <!-- Website with glow -->
  <text x="100" y="570" font-family="Arial, sans-serif" font-size="30" font-weight="bold"
        fill="#4FD1C5" filter="url(#glow)">royalketa.com</text>

  <!-- Enhanced decorative salmon silhouette -->
  <g transform="translate(950, 480)" opacity="0.2" filter="url(#softGlow)">
    <ellipse cx="0" cy="0" rx="90" ry="35" fill="#CFAE58"/>
    <path d="M 90 0 L 120 -18 L 130 0 L 120 18 Z" fill="#CFAE58"/>
    <path d="M -25 -35 L 0 -45 L 25 -35 Z" fill="#CFAE58"/>
    <ellipse cx="-50" cy="0" rx="15" ry="12" fill="#0B0F14"/>
  </g>

  <!-- Additional decorative caviar clusters -->
  <g opacity="0.2">
    <circle cx="1050" cy="120" r="6" fill="#CFAE58"/>
    <circle cx="1065" cy="115" r="5" fill="#CFAE58"/>
    <circle cx="1058" cy="130" r="4" fill="#CFAE58"/>
    <circle cx="150" cy="500" r="5" fill="#4FD1C5"/>
    <circle cx="165" cy="508" r="4" fill="#4FD1C5"/>
    <circle cx="140" cy="512" r="5" fill="#4FD1C5"/>
  </g>
</svg>