<svg width="1200" height="630" xmlns="http://www.w3.org/2000/svg">
  <defs>
    <linearGradient id="bgGradient" x1="0%" y1="0%" x2="100%" y2="100%">
      <stop offset="0%" style="stop-color:#0B0F14;stop-opacity:1" />
      <stop offset="50%" style="stop-color:#0F1619;stop-opacity:1" />
      <stop offset="100%" style="stop-color:#0F1922;stop-opacity:1" />
    </linearGradient>
    <linearGradient id="goldGradient" x1="0%" y1="0%" x2="100%" y2="0%">
      <stop offset="0%" style="stop-color:#E5D596;stop-opacity:1" />
      <stop offset="50%" style="stop-color:#CFAE58;stop-opacity:1" />
      <stop offset="100%" style="stop-color:#B89842;stop-opacity:1" />
    </linearGradient>
    <radialGradient id="oceanGradient" cx="50%" cy="50%" r="50%">
      <stop offset="0%" style="stop-color:#4FD1C5;stop-opacity:0.3" />
      <stop offset="100%" style="stop-color:#1E90A0;stop-opacity:0.05" />
    </radialGradient>
    <filter id="glow">
      <feGaussianBlur stdDeviation="5" result="coloredBlur"/>
      <feMerge>
        <feMergeNode in="coloredBlur"/>
        <feMergeNode in="SourceGraphic"/>
      </feMerge>
    </filter>
    <filter id="softGlow">
      <feGaussianBlur stdDeviation="8" result="coloredBlur"/>
      <feMerge>
        <feMergeNode in="coloredBlur"/>
        <feMergeNode in="SourceGraphic"/>
      </feMerge>
    </filter>
    <filter id="shadow">
      <feDropShadow dx="0" dy="4" stdDeviation="8" flood-color="#000000" flood-opacity="0.5"/>
    </filter>
  </defs>

  <!-- Background -->
  <rect width="1200" height="630" fill="url(#bgGradient)"/>

  <!-- Decorative ocean gradients -->
  <ellipse cx="1000" cy="150" rx="300" ry="200" fill="url(#oceanGradient)" opacity="0.4"/>
  <ellipse cx="200" cy="530" rx="250" ry="180" fill="url(#oceanGradient)" opacity="0.3"/>

  <!-- Wave patterns -->
  <path d="M 0 400 Q 300 350 600 400 T 1200 400 L 1200 630 L 0 630 Z" fill="#1E90A0" opacity="0.08"/>
  <path d="M 0 450 Q 250 420 500 450 T 1000 450 T 1200 450 L 1200 630 L 0 630 Z" fill="#4FD1C5" opacity="0.05"/>

  <!-- Caviar roe particles -->
  <circle cx="643.8974951479352" cy="363.9432015138523" r="3.047006774199438" fill="#CFAE58" opacity="0.21030077502606093"/>
  <circle cx="505.5498478338075" cy="427.2268368525373" r="3.4197633799537903" fill="#CFAE58" opacity="0.11982994386218504"/>
  <circle cx="699.3345638150239" cy="16.53620349927129" r="4.957561103162934" fill="#CFAE58" opacity="0.22693753340218537"/>
  <circle cx="545.6331351137902" cy="28.646298880972775" r="3.202159976973431" fill="#CFAE58" opacity="0.22818758992376792"/>
  <circle cx="174.22738547325375" cy="63.08952889226735" r="3.7031170436387777" fill="#CFAE58" opacity="0.15253922061302366"/>
  <circle cx="660.5167473124072" cy="13.725826010076785" r="4.585544191323441" fill="#CFAE58" opacity="0.13262838585802028"/>
  <circle cx="293.08114143878424" cy="0.028541393856899022" r="3.7894979939148516" fill="#CFAE58" opacity="0.10403065302368394"/>
  <circle cx="613.9009899835088" cy="177.8299060875989" r="3.181352379141465" fill="#CFAE58" opacity="0.11781101434507948"/>
  <circle cx="279.96689283009835" cy="103.66061315447254" r="4.579480984601259" fill="#CFAE58" opacity="0.1420318207260237"/>
  <circle cx="591.8373031182272" cy="516.1271097167063" r="4.64761210706124" fill="#CFAE58" opacity="0.12987527173517147"/>
  <circle cx="291.3696737861536" cy="468.77417441203335" r="2.883368836465631" fill="#CFAE58" opacity="0.12426120077075095"/>
  <circle cx="791.7015156028494" cy="449.88647295171853" r="5.621190536617684" fill="#CFAE58" opacity="0.1503291312315026"/>
  <circle cx="239.4382245032942" cy="365.99663212924503" r="4.888012467833197" fill="#CFAE58" opacity="0.23198173884222337"/>
  <circle cx="321.1660072644859" cy="235.27727909182954" r="4.357009674888539" fill="#CFAE58" opacity="0.18533053422950607"/>
  <circle cx="257.0333398063938" cy="619.4582430600418" r="3.8121784899325566" fill="#CFAE58" opacity="0.17679827888683547"/>
  <circle cx="331.4650600943791" cy="545.7579588907956" r="3.3249911363105666" fill="#CFAE58" opacity="0.2274063464584262"/>
  <circle cx="127.56737538151386" cy="120.81709729586107" r="4.814590748492234" fill="#CFAE58" opacity="0.12320119086437967"/>
  <circle cx="53.65542366166047" cy="194.7372550468967" r="5.571255029852198" fill="#CFAE58" opacity="0.19671411020436314"/>
  <circle cx="1145.4968991905575" cy="616.6750291251916" r="4.573271592109625" fill="#CFAE58" opacity="0.12247182376439673"/>
  <circle cx="512.1552852870282" cy="299.20091323857224" r="2.2964573021735575" fill="#CFAE58" opacity="0.23148718851446418"/>
  <circle cx="1158.911135962129" cy="427.200795375837" r="2.702148657958529" fill="#CFAE58" opacity="0.19873780304755484"/>
  <circle cx="923.0325583017376" cy="211.77469893994535" r="3.777436679504613" fill="#CFAE58" opacity="0.13516490653701307"/>
  <circle cx="791.5127127052428" cy="142.1197171186497" r="2.2356265151166546" fill="#CFAE58" opacity="0.2042638038619117"/>
  <circle cx="1047.0430443437779" cy="270.41030384771085" r="3.8599480496937426" fill="#CFAE58" opacity="0.17999292442771136"/>
  <circle cx="1018.9720848162808" cy="101.47901027104209" r="5.192554585750113" fill="#CFAE58" opacity="0.17570022449631123"/>
  <circle cx="672.7569238655375" cy="490.9063967025801" r="5.309534838776342" fill="#CFAE58" opacity="0.2282874430250942"/>
  <circle cx="354.5661821614531" cy="132.81339349173572" r="3.318807203705226" fill="#CFAE58" opacity="0.21329716375098878"/>
  <circle cx="910.5193147548597" cy="525.6559525799508" r="4.876366465712855" fill="#CFAE58" opacity="0.10426563174344225"/>
  <circle cx="623.0989313132824" cy="389.2962435312253" r="4.195687574065919" fill="#CFAE58" opacity="0.12355085424108278"/>
  <circle cx="411.78159011585865" cy="200.81951311950183" r="4.108162165959287" fill="#CFAE58" opacity="0.18735433088541342"/>

  <!-- Border with glow -->
  <rect x="40" y="40" width="1120" height="550" fill="none" stroke="url(#goldGradient)" stroke-width="3" rx="12" filter="url(#softGlow)"/>

  <!-- Icon circle with premium background -->
  <circle cx="150" cy="200" r="75" fill="#CFAE58" opacity="0.15" filter="url(#softGlow)"/>
  <circle cx="150" cy="200" r="70" fill="#CFAE58" opacity="0.25"/>
  <text x="150" y="235" font-size="90" text-anchor="middle" fill="#CFAE58" filter="url(#glow)">🐠</text>

  <!-- Premium logo (crown) with enhanced styling -->
  <g transform="translate(100, 70)">
    <path d="M 30 20 L 40 35 L 35 35 Z M 50 15 L 60 35 L 45 35 Z M 65 20 L 75 35 L 70 35 Z M 30 35 L 75 35 L 73 45 L 32 45 Z"
          fill="url(#goldGradient)" filter="url(#glow)" stroke="#B89842" stroke-width="0.5"/>
    <circle cx="40" cy="25" r="3" fill="#4FD1C5" filter="url(#glow)"/>
    <circle cx="52" cy="20" r="4" fill="#4FD1C5" filter="url(#glow)"/>
    <circle cx="65" cy="25" r="3" fill="#4FD1C5" filter="url(#glow)"/>
  </g>

  <!-- Title with shadow -->
  <text x="280" y="180" font-family="Georgia, serif" font-size="72" font-weight="bold"
        fill="url(#goldGradient)" filter="url(#shadow)">Sturgeon &amp; Black Caviar</text>

  <!-- Subtitle with subtle glow -->
  <text x="280" y="230" font-family="Arial, sans-serif" font-size="36"
        fill="#D6DEE6" opacity="0.95" filter="url(#softGlow)">Premium Caviar Encyclopedia</text>

  <!-- Brand name with letter spacing -->
  <text x="280" y="300" font-family="Georgia, serif" font-size="32" font-weight="bold"
        fill="#CFAE58" letter-spacing="4" filter="url(#glow)">ROYAL KETA</text>

  <!-- Russian tagline -->
  <text x="280" y="340" font-family="Arial, sans-serif" font-size="22" font-style="italic"
        fill="#8B95A1" opacity="0.8">От икринки к королевской</text>

  <!-- Location -->
  <text x="280" y="380" font-family="Arial, sans-serif" font-size="20"
        fill="#8B95A1" opacity="0.7">Невельский район, Сахалин</text>

  <!-- Website with glow -->
  <text x="100" y="570" font-family="Arial, sans-serif" font-size="30" font-weight="bold"
        fill="#4FD1C5" filter="url(#glow)">royalketa.com</text>

  <!-- Enhanced decorative salmon silhouette -->
  <g transform="translate(950, 480)" opacity="0.2" filter="url(#softGlow)">
    <ellipse cx="0" cy="0" rx="90" ry="35" fill="#CFAE58"/>
    <path d="M 90 0 L 120 -18 L 130 0 L 120 18 Z" fill="#CFAE58"/>
    <path d="M -25 -35 L 0 -45 L 25 -35 Z" fill="#CFAE58"/>
    <ellipse cx="-50" cy="0" rx="15" ry="12" fill="#0B0F14"/>
  </g>

  <!-- Additional decorative caviar clusters -->
  <g opacity="0.2">
    <circle cx="1050" cy="120" r="6" fill="#CFAE58"/>
    <circle cx="1065" cy="115" r="5" fill="#CFAE58"/>
    <circle cx="1058" cy="130" r="4" fill="#CFAE58"/>
    <circle cx="150" cy="500" r="5" fill="#4FD1C5"/>
    <circle cx="165" cy="508" r="4" fill="#4FD1C5"/>
    <circle cx="140" cy="512" r="5" fill="#4FD1C5"/>
  </g>
</svg>