<svg width="1200" height="630" xmlns="http://www.w3.org/2000/svg">
  <defs>
    <linearGradient id="bgGradient" x1="0%" y1="0%" x2="100%" y2="100%">
      <stop offset="0%" style="stop-color:#0B0F14;stop-opacity:1" />
      <stop offset="50%" style="stop-color:#0F1619;stop-opacity:1" />
      <stop offset="100%" style="stop-color:#0F1922;stop-opacity:1" />
    </linearGradient>
    <linearGradient id="goldGradient" x1="0%" y1="0%" x2="100%" y2="0%">
      <stop offset="0%" style="stop-color:#E5D596;stop-opacity:1" />
      <stop offset="50%" style="stop-color:#CFAE58;stop-opacity:1" />
      <stop offset="100%" style="stop-color:#B89842;stop-opacity:1" />
    </linearGradient>
    <radialGradient id="oceanGradient" cx="50%" cy="50%" r="50%">
      <stop offset="0%" style="stop-color:#4FD1C5;stop-opacity:0.3" />
      <stop offset="100%" style="stop-color:#1E90A0;stop-opacity:0.05" />
    </radialGradient>
    <filter id="glow">
      <feGaussianBlur stdDeviation="5" result="coloredBlur"/>
      <feMerge>
        <feMergeNode in="coloredBlur"/>
        <feMergeNode in="SourceGraphic"/>
      </feMerge>
    </filter>
    <filter id="softGlow">
      <feGaussianBlur stdDeviation="8" result="coloredBlur"/>
      <feMerge>
        <feMergeNode in="coloredBlur"/>
        <feMergeNode in="SourceGraphic"/>
      </feMerge>
    </filter>
    <filter id="shadow">
      <feDropShadow dx="0" dy="4" stdDeviation="8" flood-color="#000000" flood-opacity="0.5"/>
    </filter>
  </defs>

  <!-- Background -->
  <rect width="1200" height="630" fill="url(#bgGradient)"/>

  <!-- Decorative ocean gradients -->
  <ellipse cx="1000" cy="150" rx="300" ry="200" fill="url(#oceanGradient)" opacity="0.4"/>
  <ellipse cx="200" cy="530" rx="250" ry="180" fill="url(#oceanGradient)" opacity="0.3"/>

  <!-- Wave patterns -->
  <path d="M 0 400 Q 300 350 600 400 T 1200 400 L 1200 630 L 0 630 Z" fill="#1E90A0" opacity="0.08"/>
  <path d="M 0 450 Q 250 420 500 450 T 1000 450 T 1200 450 L 1200 630 L 0 630 Z" fill="#4FD1C5" opacity="0.05"/>

  <!-- Caviar roe particles -->
  <circle cx="92.94656318176315" cy="390.8498356161203" r="2.3288839311169793" fill="#CFAE58" opacity="0.1066756874832467"/>
  <circle cx="754.5989147822507" cy="482.73986994297735" r="2.030347535642056" fill="#CFAE58" opacity="0.21442902730123478"/>
  <circle cx="425.9740727348281" cy="442.0743744247513" r="2.950184266450786" fill="#CFAE58" opacity="0.18650685749982096"/>
  <circle cx="530.0632766282864" cy="249.7308974509939" r="3.894383634115009" fill="#CFAE58" opacity="0.1672123926887144"/>
  <circle cx="59.542898405497446" cy="601.9075168406999" r="5.858382252581497" fill="#CFAE58" opacity="0.1281400775410934"/>
  <circle cx="879.6277269565051" cy="367.16688218620635" r="3.147969439491458" fill="#CFAE58" opacity="0.14815787476116055"/>
  <circle cx="1134.6143118685377" cy="283.68777161183607" r="4.178374309337154" fill="#CFAE58" opacity="0.24405198790791216"/>
  <circle cx="465.3233695597349" cy="194.88463946435425" r="2.527005221333119" fill="#CFAE58" opacity="0.15391176099897502"/>
  <circle cx="673.6467283529234" cy="246.984436820559" r="5.914340051693479" fill="#CFAE58" opacity="0.1807455973061716"/>
  <circle cx="982.8772024589124" cy="198.59250685165296" r="5.415026835304771" fill="#CFAE58" opacity="0.14903124302450715"/>
  <circle cx="996.3841961775576" cy="105.24996494592102" r="4.980472208080934" fill="#CFAE58" opacity="0.20817744447439032"/>
  <circle cx="39.78854015771063" cy="352.0664629111529" r="2.623683751742951" fill="#CFAE58" opacity="0.1344249290982415"/>
  <circle cx="469.90778059653195" cy="325.3039632428328" r="5.775918039902117" fill="#CFAE58" opacity="0.17745203871674406"/>
  <circle cx="756.080221829767" cy="515.1263059310423" r="4.9993828831639995" fill="#CFAE58" opacity="0.2187550122880256"/>
  <circle cx="708.1205040502991" cy="166.3388719025235" r="5.4993982528243315" fill="#CFAE58" opacity="0.12883082646880784"/>
  <circle cx="401.2368295461611" cy="250.65611286125102" r="2.633749054375456" fill="#CFAE58" opacity="0.17224648376680668"/>
  <circle cx="687.3751767219356" cy="154.58175536505078" r="3.9595798572564638" fill="#CFAE58" opacity="0.22247264218073706"/>
  <circle cx="283.66664402298306" cy="327.4199244137999" r="4.336226545368143" fill="#CFAE58" opacity="0.1668516525949551"/>
  <circle cx="120.8415975779987" cy="183.89590766734895" r="4.797097147426877" fill="#CFAE58" opacity="0.19506434245383178"/>
  <circle cx="186.2370318876713" cy="602.943689452944" r="3.217671214284815" fill="#CFAE58" opacity="0.12530826170936102"/>
  <circle cx="1073.9529869121595" cy="443.2680667301749" r="5.995283929060577" fill="#CFAE58" opacity="0.12115117495686711"/>
  <circle cx="47.154925191437954" cy="352.9149922639673" r="2.256184855492431" fill="#CFAE58" opacity="0.1390381193027746"/>
  <circle cx="546.5286469030586" cy="363.78996709031867" r="5.124746383626608" fill="#CFAE58" opacity="0.1156911785900814"/>
  <circle cx="674.1723524034019" cy="358.559150867765" r="5.401502981459776" fill="#CFAE58" opacity="0.15283476241161603"/>
  <circle cx="739.1138245574122" cy="511.9401953020841" r="2.704841793920144" fill="#CFAE58" opacity="0.13349043309208058"/>
  <circle cx="1060.576338204925" cy="95.23072537529217" r="5.480234671964192" fill="#CFAE58" opacity="0.17025428823490524"/>
  <circle cx="397.13401676154126" cy="591.4955674771679" r="2.0106447419126807" fill="#CFAE58" opacity="0.1752850730343501"/>
  <circle cx="226.00102772412782" cy="368.2116261844172" r="3.120245877855214" fill="#CFAE58" opacity="0.21722886149634282"/>
  <circle cx="868.3509655058896" cy="623.1922083791515" r="2.980630149649122" fill="#CFAE58" opacity="0.16715603517823127"/>
  <circle cx="986.4989687752421" cy="64.81911176660621" r="5.66432291759003" fill="#CFAE58" opacity="0.21346275555869204"/>

  <!-- Border with glow -->
  <rect x="40" y="40" width="1120" height="550" fill="none" stroke="url(#goldGradient)" stroke-width="3" rx="12" filter="url(#softGlow)"/>

  <!-- Icon circle with premium background -->
  <circle cx="150" cy="200" r="75" fill="#CFAE58" opacity="0.15" filter="url(#softGlow)"/>
  <circle cx="150" cy="200" r="70" fill="#CFAE58" opacity="0.25"/>
  <text x="150" y="235" font-size="90" text-anchor="middle" fill="#CFAE58" filter="url(#glow)">🐠</text>

  <!-- Premium logo (crown) with enhanced styling -->
  <g transform="translate(100, 70)">
    <path d="M 30 20 L 40 35 L 35 35 Z M 50 15 L 60 35 L 45 35 Z M 65 20 L 75 35 L 70 35 Z M 30 35 L 75 35 L 73 45 L 32 45 Z"
          fill="url(#goldGradient)" filter="url(#glow)" stroke="#B89842" stroke-width="0.5"/>
    <circle cx="40" cy="25" r="3" fill="#4FD1C5" filter="url(#glow)"/>
    <circle cx="52" cy="20" r="4" fill="#4FD1C5" filter="url(#glow)"/>
    <circle cx="65" cy="25" r="3" fill="#4FD1C5" filter="url(#glow)"/>
  </g>

  <!-- Title with shadow -->
  <text x="280" y="180" font-family="Georgia, serif" font-size="72" font-weight="bold"
        fill="url(#goldGradient)" filter="url(#shadow)">Sturgeon &amp; Black Caviar</text>

  <!-- Subtitle with subtle glow -->
  <text x="280" y="230" font-family="Arial, sans-serif" font-size="36"
        fill="#D6DEE6" opacity="0.95" filter="url(#softGlow)">Premium Caviar Encyclopedia</text>

  <!-- Brand name with letter spacing -->
  <text x="280" y="300" font-family="Georgia, serif" font-size="32" font-weight="bold"
        fill="#CFAE58" letter-spacing="4" filter="url(#glow)">ROYAL KETA</text>

  <!-- Russian tagline -->
  <text x="280" y="340" font-family="Arial, sans-serif" font-size="22" font-style="italic"
        fill="#8B95A1" opacity="0.8">От икринки к королевской</text>

  <!-- Location -->
  <text x="280" y="380" font-family="Arial, sans-serif" font-size="20"
        fill="#8B95A1" opacity="0.7">Невельский район, Сахалин</text>

  <!-- Website with glow -->
  <text x="100" y="570" font-family="Arial, sans-serif" font-size="30" font-weight="bold"
        fill="#4FD1C5" filter="url(#glow)">royalketa.com</text>

  <!-- Enhanced decorative salmon silhouette -->
  <g transform="translate(950, 480)" opacity="0.2" filter="url(#softGlow)">
    <ellipse cx="0" cy="0" rx="90" ry="35" fill="#CFAE58"/>
    <path d="M 90 0 L 120 -18 L 130 0 L 120 18 Z" fill="#CFAE58"/>
    <path d="M -25 -35 L 0 -45 L 25 -35 Z" fill="#CFAE58"/>
    <ellipse cx="-50" cy="0" rx="15" ry="12" fill="#0B0F14"/>
  </g>

  <!-- Additional decorative caviar clusters -->
  <g opacity="0.2">
    <circle cx="1050" cy="120" r="6" fill="#CFAE58"/>
    <circle cx="1065" cy="115" r="5" fill="#CFAE58"/>
    <circle cx="1058" cy="130" r="4" fill="#CFAE58"/>
    <circle cx="150" cy="500" r="5" fill="#4FD1C5"/>
    <circle cx="165" cy="508" r="4" fill="#4FD1C5"/>
    <circle cx="140" cy="512" r="5" fill="#4FD1C5"/>
  </g>
</svg>