<svg width="1200" height="630" xmlns="http://www.w3.org/2000/svg">
  <defs>
    <linearGradient id="bgGradient" x1="0%" y1="0%" x2="100%" y2="100%">
      <stop offset="0%" style="stop-color:#0B0F14;stop-opacity:1" />
      <stop offset="50%" style="stop-color:#0F1619;stop-opacity:1" />
      <stop offset="100%" style="stop-color:#0F1922;stop-opacity:1" />
    </linearGradient>
    <linearGradient id="goldGradient" x1="0%" y1="0%" x2="100%" y2="0%">
      <stop offset="0%" style="stop-color:#E5D596;stop-opacity:1" />
      <stop offset="50%" style="stop-color:#CFAE58;stop-opacity:1" />
      <stop offset="100%" style="stop-color:#B89842;stop-opacity:1" />
    </linearGradient>
    <radialGradient id="oceanGradient" cx="50%" cy="50%" r="50%">
      <stop offset="0%" style="stop-color:#4FD1C5;stop-opacity:0.3" />
      <stop offset="100%" style="stop-color:#1E90A0;stop-opacity:0.05" />
    </radialGradient>
    <filter id="glow">
      <feGaussianBlur stdDeviation="5" result="coloredBlur"/>
      <feMerge>
        <feMergeNode in="coloredBlur"/>
        <feMergeNode in="SourceGraphic"/>
      </feMerge>
    </filter>
    <filter id="softGlow">
      <feGaussianBlur stdDeviation="8" result="coloredBlur"/>
      <feMerge>
        <feMergeNode in="coloredBlur"/>
        <feMergeNode in="SourceGraphic"/>
      </feMerge>
    </filter>
    <filter id="shadow">
      <feDropShadow dx="0" dy="4" stdDeviation="8" flood-color="#000000" flood-opacity="0.5"/>
    </filter>
  </defs>

  <!-- Background -->
  <rect width="1200" height="630" fill="url(#bgGradient)"/>

  <!-- Decorative ocean gradients -->
  <ellipse cx="1000" cy="150" rx="300" ry="200" fill="url(#oceanGradient)" opacity="0.4"/>
  <ellipse cx="200" cy="530" rx="250" ry="180" fill="url(#oceanGradient)" opacity="0.3"/>

  <!-- Wave patterns -->
  <path d="M 0 400 Q 300 350 600 400 T 1200 400 L 1200 630 L 0 630 Z" fill="#1E90A0" opacity="0.08"/>
  <path d="M 0 450 Q 250 420 500 450 T 1000 450 T 1200 450 L 1200 630 L 0 630 Z" fill="#4FD1C5" opacity="0.05"/>

  <!-- Caviar roe particles -->
  <circle cx="244.98380242157234" cy="8.601357286956691" r="3.078433249558337" fill="#CFAE58" opacity="0.15177757950607446"/>
  <circle cx="325.0897899330665" cy="432.96012881844564" r="3.8583505681865407" fill="#CFAE58" opacity="0.20927763680273515"/>
  <circle cx="202.45584065498994" cy="362.5444301473181" r="2.2168582482281836" fill="#CFAE58" opacity="0.1898882096525116"/>
  <circle cx="851.1205858209104" cy="395.1662368227461" r="4.876802766901865" fill="#CFAE58" opacity="0.1367366281037921"/>
  <circle cx="769.6123315967045" cy="165.7078702396798" r="5.9034119223595205" fill="#CFAE58" opacity="0.2189545293455098"/>
  <circle cx="520.8994913618532" cy="514.0027448967545" r="5.1586510946095085" fill="#CFAE58" opacity="0.18345526302550083"/>
  <circle cx="50.44760324436774" cy="92.80460792484813" r="5.651758087358015" fill="#CFAE58" opacity="0.22460929923690864"/>
  <circle cx="1189.2884377416053" cy="409.4519618885391" r="3.6569505666643987" fill="#CFAE58" opacity="0.10720378310391554"/>
  <circle cx="1162.1543267797495" cy="343.8450772666111" r="2.9073764202752064" fill="#CFAE58" opacity="0.13412119528987917"/>
  <circle cx="1186.6211397854938" cy="301.98993643955157" r="2.779893738176219" fill="#CFAE58" opacity="0.15975253907814765"/>
  <circle cx="651.267223983768" cy="367.9008044316794" r="4.773880805991836" fill="#CFAE58" opacity="0.15242011828055943"/>
  <circle cx="505.92620547358365" cy="565.1184463098241" r="5.587585650091494" fill="#CFAE58" opacity="0.11692109309479484"/>
  <circle cx="367.64155128114356" cy="13.751850645134619" r="4.302997515746073" fill="#CFAE58" opacity="0.1837321655883895"/>
  <circle cx="540.9429693023617" cy="56.95783942277679" r="4.81131498456746" fill="#CFAE58" opacity="0.11262436555181593"/>
  <circle cx="47.07563675142956" cy="229.6281971285445" r="5.848617853671101" fill="#CFAE58" opacity="0.12372967327221919"/>
  <circle cx="980.7543838621536" cy="557.934673879298" r="3.4363610304456818" fill="#CFAE58" opacity="0.13284857580447212"/>
  <circle cx="968.9956680057218" cy="86.4186377304497" r="5.21763664536486" fill="#CFAE58" opacity="0.24389874530489442"/>
  <circle cx="605.1977239788898" cy="417.77822668783125" r="5.433700537498152" fill="#CFAE58" opacity="0.2001939150264933"/>
  <circle cx="763.9963856487776" cy="24.779331100142187" r="5.518796104693514" fill="#CFAE58" opacity="0.15316661644873303"/>
  <circle cx="615.8243497468701" cy="141.73235678361783" r="3.4533485918368294" fill="#CFAE58" opacity="0.11455052766870111"/>
  <circle cx="859.296648128096" cy="37.4993032841377" r="2.248486860731816" fill="#CFAE58" opacity="0.15529703562036268"/>
  <circle cx="214.8055295013126" cy="494.94950046022126" r="4.595135813307291" fill="#CFAE58" opacity="0.16006724901074523"/>
  <circle cx="130.92325077282769" cy="423.5498756732349" r="2.347723308401911" fill="#CFAE58" opacity="0.24759574395697537"/>
  <circle cx="35.901820313924034" cy="561.8002401712448" r="3.7741821155471778" fill="#CFAE58" opacity="0.128389566790765"/>
  <circle cx="160.60257762850094" cy="51.23553716324376" r="4.188664306899652" fill="#CFAE58" opacity="0.1481508158336453"/>
  <circle cx="1158.6449375799336" cy="444.5682744304245" r="4.095417867533799" fill="#CFAE58" opacity="0.1256472843794671"/>
  <circle cx="565.8499479713465" cy="325.3428649568032" r="2.9313367737805693" fill="#CFAE58" opacity="0.15991387697225606"/>
  <circle cx="615.455513406756" cy="67.84904081857715" r="5.882220448286458" fill="#CFAE58" opacity="0.1777556908789189"/>
  <circle cx="149.6876317093938" cy="102.23267437445686" r="4.433497275882807" fill="#CFAE58" opacity="0.15024803708946607"/>
  <circle cx="550.216445579856" cy="449.73689795359707" r="4.373531975366719" fill="#CFAE58" opacity="0.20391849692603264"/>

  <!-- Border with glow -->
  <rect x="40" y="40" width="1120" height="550" fill="none" stroke="url(#goldGradient)" stroke-width="3" rx="12" filter="url(#softGlow)"/>

  <!-- Icon circle with premium background -->
  <circle cx="150" cy="200" r="75" fill="#CFAE58" opacity="0.15" filter="url(#softGlow)"/>
  <circle cx="150" cy="200" r="70" fill="#CFAE58" opacity="0.25"/>
  <text x="150" y="235" font-size="90" text-anchor="middle" fill="#CFAE58" filter="url(#glow)">🐠</text>

  <!-- Premium logo (crown) with enhanced styling -->
  <g transform="translate(100, 70)">
    <path d="M 30 20 L 40 35 L 35 35 Z M 50 15 L 60 35 L 45 35 Z M 65 20 L 75 35 L 70 35 Z M 30 35 L 75 35 L 73 45 L 32 45 Z"
          fill="url(#goldGradient)" filter="url(#glow)" stroke="#B89842" stroke-width="0.5"/>
    <circle cx="40" cy="25" r="3" fill="#4FD1C5" filter="url(#glow)"/>
    <circle cx="52" cy="20" r="4" fill="#4FD1C5" filter="url(#glow)"/>
    <circle cx="65" cy="25" r="3" fill="#4FD1C5" filter="url(#glow)"/>
  </g>

  <!-- Title with shadow -->
  <text x="280" y="180" font-family="Georgia, serif" font-size="72" font-weight="bold"
        fill="url(#goldGradient)" filter="url(#shadow)">Sturgeon &amp; Black Caviar</text>

  <!-- Subtitle with subtle glow -->
  <text x="280" y="230" font-family="Arial, sans-serif" font-size="36"
        fill="#D6DEE6" opacity="0.95" filter="url(#softGlow)">Premium Caviar Encyclopedia</text>

  <!-- Brand name with letter spacing -->
  <text x="280" y="300" font-family="Georgia, serif" font-size="32" font-weight="bold"
        fill="#CFAE58" letter-spacing="4" filter="url(#glow)">ROYAL KETA</text>

  <!-- Russian tagline -->
  <text x="280" y="340" font-family="Arial, sans-serif" font-size="22" font-style="italic"
        fill="#8B95A1" opacity="0.8">От икринки к королевской</text>

  <!-- Location -->
  <text x="280" y="380" font-family="Arial, sans-serif" font-size="20"
        fill="#8B95A1" opacity="0.7">Невельский район, Сахалин</text>

  <!-- Website with glow -->
  <text x="100" y="570" font-family="Arial, sans-serif" font-size="30" font-weight="bold"
        fill="#4FD1C5" filter="url(#glow)">royalketa.com</text>

  <!-- Enhanced decorative salmon silhouette -->
  <g transform="translate(950, 480)" opacity="0.2" filter="url(#softGlow)">
    <ellipse cx="0" cy="0" rx="90" ry="35" fill="#CFAE58"/>
    <path d="M 90 0 L 120 -18 L 130 0 L 120 18 Z" fill="#CFAE58"/>
    <path d="M -25 -35 L 0 -45 L 25 -35 Z" fill="#CFAE58"/>
    <ellipse cx="-50" cy="0" rx="15" ry="12" fill="#0B0F14"/>
  </g>

  <!-- Additional decorative caviar clusters -->
  <g opacity="0.2">
    <circle cx="1050" cy="120" r="6" fill="#CFAE58"/>
    <circle cx="1065" cy="115" r="5" fill="#CFAE58"/>
    <circle cx="1058" cy="130" r="4" fill="#CFAE58"/>
    <circle cx="150" cy="500" r="5" fill="#4FD1C5"/>
    <circle cx="165" cy="508" r="4" fill="#4FD1C5"/>
    <circle cx="140" cy="512" r="5" fill="#4FD1C5"/>
  </g>
</svg>