<svg width="1200" height="630" xmlns="http://www.w3.org/2000/svg">
  <defs>
    <linearGradient id="bgGradient" x1="0%" y1="0%" x2="100%" y2="100%">
      <stop offset="0%" style="stop-color:#0B0F14;stop-opacity:1" />
      <stop offset="50%" style="stop-color:#0F1619;stop-opacity:1" />
      <stop offset="100%" style="stop-color:#0F1922;stop-opacity:1" />
    </linearGradient>
    <linearGradient id="goldGradient" x1="0%" y1="0%" x2="100%" y2="0%">
      <stop offset="0%" style="stop-color:#E5D596;stop-opacity:1" />
      <stop offset="50%" style="stop-color:#CFAE58;stop-opacity:1" />
      <stop offset="100%" style="stop-color:#B89842;stop-opacity:1" />
    </linearGradient>
    <radialGradient id="oceanGradient" cx="50%" cy="50%" r="50%">
      <stop offset="0%" style="stop-color:#4FD1C5;stop-opacity:0.3" />
      <stop offset="100%" style="stop-color:#1E90A0;stop-opacity:0.05" />
    </radialGradient>
    <filter id="glow">
      <feGaussianBlur stdDeviation="5" result="coloredBlur"/>
      <feMerge>
        <feMergeNode in="coloredBlur"/>
        <feMergeNode in="SourceGraphic"/>
      </feMerge>
    </filter>
    <filter id="softGlow">
      <feGaussianBlur stdDeviation="8" result="coloredBlur"/>
      <feMerge>
        <feMergeNode in="coloredBlur"/>
        <feMergeNode in="SourceGraphic"/>
      </feMerge>
    </filter>
    <filter id="shadow">
      <feDropShadow dx="0" dy="4" stdDeviation="8" flood-color="#000000" flood-opacity="0.5"/>
    </filter>
  </defs>

  <!-- Background -->
  <rect width="1200" height="630" fill="url(#bgGradient)"/>

  <!-- Decorative ocean gradients -->
  <ellipse cx="1000" cy="150" rx="300" ry="200" fill="url(#oceanGradient)" opacity="0.4"/>
  <ellipse cx="200" cy="530" rx="250" ry="180" fill="url(#oceanGradient)" opacity="0.3"/>

  <!-- Wave patterns -->
  <path d="M 0 400 Q 300 350 600 400 T 1200 400 L 1200 630 L 0 630 Z" fill="#1E90A0" opacity="0.08"/>
  <path d="M 0 450 Q 250 420 500 450 T 1000 450 T 1200 450 L 1200 630 L 0 630 Z" fill="#4FD1C5" opacity="0.05"/>

  <!-- Caviar roe particles -->
  <circle cx="452.08304775311126" cy="192.50692444232982" r="3.3540818558615557" fill="#CFAE58" opacity="0.20282226297442724"/>
  <circle cx="1189.682152187771" cy="394.5061967310311" r="4.051981864160061" fill="#CFAE58" opacity="0.10800525276262042"/>
  <circle cx="447.09832460190927" cy="373.25055667910567" r="3.443591394764759" fill="#CFAE58" opacity="0.17561569736129928"/>
  <circle cx="572.42083369803" cy="195.37376690842171" r="5.464131312054273" fill="#CFAE58" opacity="0.2295998390744296"/>
  <circle cx="693.3359493200675" cy="272.5572489278512" r="3.739719186898207" fill="#CFAE58" opacity="0.1762775632359791"/>
  <circle cx="751.5116645969509" cy="414.62805505760986" r="4.024945515571023" fill="#CFAE58" opacity="0.15335828272762148"/>
  <circle cx="161.26999460219037" cy="117.64242093916714" r="3.65451211535541" fill="#CFAE58" opacity="0.2007215427557192"/>
  <circle cx="1056.8215568255466" cy="113.84873010115597" r="2.097475903187175" fill="#CFAE58" opacity="0.22421174018022955"/>
  <circle cx="415.70771491089135" cy="22.744934675075378" r="4.197408611328609" fill="#CFAE58" opacity="0.13337171804677206"/>
  <circle cx="479.62615305364056" cy="421.71627465730876" r="3.7835925801978076" fill="#CFAE58" opacity="0.20495724228850942"/>
  <circle cx="137.83505356654518" cy="427.9727886998189" r="5.557577764853063" fill="#CFAE58" opacity="0.2392955119711583"/>
  <circle cx="653.3216745340085" cy="33.72707180881606" r="5.995642888219329" fill="#CFAE58" opacity="0.22104364460765927"/>
  <circle cx="139.27905667712056" cy="404.5846788313714" r="4.444301675526908" fill="#CFAE58" opacity="0.11355256171626939"/>
  <circle cx="728.4988493595071" cy="325.7314562664703" r="5.268895532935916" fill="#CFAE58" opacity="0.12197894050641968"/>
  <circle cx="1075.7620316705213" cy="393.89520685152524" r="5.324696812241145" fill="#CFAE58" opacity="0.2367459288097286"/>
  <circle cx="522.7382642039087" cy="552.5211288869531" r="5.638276770430852" fill="#CFAE58" opacity="0.10870031759964373"/>
  <circle cx="46.0484414290371" cy="136.2477670860099" r="3.3050024156315816" fill="#CFAE58" opacity="0.21961303341548255"/>
  <circle cx="833.0334920793591" cy="617.971050869021" r="4.285101817143571" fill="#CFAE58" opacity="0.1460804430438709"/>
  <circle cx="327.42313365892437" cy="600.3406240577153" r="3.964931391020982" fill="#CFAE58" opacity="0.1604056163556706"/>
  <circle cx="1046.2311419996643" cy="429.8923975789833" r="3.757112983447861" fill="#CFAE58" opacity="0.20737171316692432"/>
  <circle cx="762.0196434813143" cy="272.3843160526502" r="2.3086685538279283" fill="#CFAE58" opacity="0.18427375462383194"/>
  <circle cx="393.6794489241655" cy="282.84819722863824" r="5.30421969744946" fill="#CFAE58" opacity="0.1470062126648013"/>
  <circle cx="53.415803690819175" cy="618.9808780962371" r="5.90414573483173" fill="#CFAE58" opacity="0.17384555016459521"/>
  <circle cx="691.3878079372511" cy="539.7299174404542" r="4.42901698379341" fill="#CFAE58" opacity="0.20908608394915623"/>
  <circle cx="300.252968816506" cy="104.1576937411374" r="5.0645435722514405" fill="#CFAE58" opacity="0.15940235632532898"/>
  <circle cx="915.7136511631807" cy="366.5335541972794" r="3.265057100655933" fill="#CFAE58" opacity="0.20998307762409907"/>
  <circle cx="125.03756690599567" cy="516.8923632114909" r="2.462349335096314" fill="#CFAE58" opacity="0.2154781646941571"/>
  <circle cx="88.20072989302909" cy="320.8893621835639" r="4.450669311712981" fill="#CFAE58" opacity="0.2229574467581667"/>
  <circle cx="248.5080912989396" cy="478.0699402068354" r="2.9624384843654274" fill="#CFAE58" opacity="0.1204000746629669"/>
  <circle cx="1182.4307279837135" cy="257.27451660144965" r="2.1735880967987073" fill="#CFAE58" opacity="0.12062404607295012"/>

  <!-- Border with glow -->
  <rect x="40" y="40" width="1120" height="550" fill="none" stroke="url(#goldGradient)" stroke-width="3" rx="12" filter="url(#softGlow)"/>

  <!-- Icon circle with premium background -->
  <circle cx="150" cy="200" r="75" fill="#CFAE58" opacity="0.15" filter="url(#softGlow)"/>
  <circle cx="150" cy="200" r="70" fill="#CFAE58" opacity="0.25"/>
  <text x="150" y="235" font-size="90" text-anchor="middle" fill="#CFAE58" filter="url(#glow)">🐠</text>

  <!-- Premium logo (crown) with enhanced styling -->
  <g transform="translate(100, 70)">
    <path d="M 30 20 L 40 35 L 35 35 Z M 50 15 L 60 35 L 45 35 Z M 65 20 L 75 35 L 70 35 Z M 30 35 L 75 35 L 73 45 L 32 45 Z"
          fill="url(#goldGradient)" filter="url(#glow)" stroke="#B89842" stroke-width="0.5"/>
    <circle cx="40" cy="25" r="3" fill="#4FD1C5" filter="url(#glow)"/>
    <circle cx="52" cy="20" r="4" fill="#4FD1C5" filter="url(#glow)"/>
    <circle cx="65" cy="25" r="3" fill="#4FD1C5" filter="url(#glow)"/>
  </g>

  <!-- Title with shadow -->
  <text x="280" y="180" font-family="Georgia, serif" font-size="72" font-weight="bold"
        fill="url(#goldGradient)" filter="url(#shadow)">Sturgeon &amp; Black Caviar</text>

  <!-- Subtitle with subtle glow -->
  <text x="280" y="230" font-family="Arial, sans-serif" font-size="36"
        fill="#D6DEE6" opacity="0.95" filter="url(#softGlow)">Premium Caviar Encyclopedia</text>

  <!-- Brand name with letter spacing -->
  <text x="280" y="300" font-family="Georgia, serif" font-size="32" font-weight="bold"
        fill="#CFAE58" letter-spacing="4" filter="url(#glow)">ROYAL KETA</text>

  <!-- Russian tagline -->
  <text x="280" y="340" font-family="Arial, sans-serif" font-size="22" font-style="italic"
        fill="#8B95A1" opacity="0.8">От икринки к королевской</text>

  <!-- Location -->
  <text x="280" y="380" font-family="Arial, sans-serif" font-size="20"
        fill="#8B95A1" opacity="0.7">Невельский район, Сахалин</text>

  <!-- Website with glow -->
  <text x="100" y="570" font-family="Arial, sans-serif" font-size="30" font-weight="bold"
        fill="#4FD1C5" filter="url(#glow)">royalketa.com</text>

  <!-- Enhanced decorative salmon silhouette -->
  <g transform="translate(950, 480)" opacity="0.2" filter="url(#softGlow)">
    <ellipse cx="0" cy="0" rx="90" ry="35" fill="#CFAE58"/>
    <path d="M 90 0 L 120 -18 L 130 0 L 120 18 Z" fill="#CFAE58"/>
    <path d="M -25 -35 L 0 -45 L 25 -35 Z" fill="#CFAE58"/>
    <ellipse cx="-50" cy="0" rx="15" ry="12" fill="#0B0F14"/>
  </g>

  <!-- Additional decorative caviar clusters -->
  <g opacity="0.2">
    <circle cx="1050" cy="120" r="6" fill="#CFAE58"/>
    <circle cx="1065" cy="115" r="5" fill="#CFAE58"/>
    <circle cx="1058" cy="130" r="4" fill="#CFAE58"/>
    <circle cx="150" cy="500" r="5" fill="#4FD1C5"/>
    <circle cx="165" cy="508" r="4" fill="#4FD1C5"/>
    <circle cx="140" cy="512" r="5" fill="#4FD1C5"/>
  </g>
</svg>