<svg width="1200" height="630" xmlns="http://www.w3.org/2000/svg">
  <defs>
    <linearGradient id="bgGradient" x1="0%" y1="0%" x2="100%" y2="100%">
      <stop offset="0%" style="stop-color:#0B0F14;stop-opacity:1" />
      <stop offset="50%" style="stop-color:#0F1619;stop-opacity:1" />
      <stop offset="100%" style="stop-color:#0F1922;stop-opacity:1" />
    </linearGradient>
    <linearGradient id="goldGradient" x1="0%" y1="0%" x2="100%" y2="0%">
      <stop offset="0%" style="stop-color:#E5D596;stop-opacity:1" />
      <stop offset="50%" style="stop-color:#CFAE58;stop-opacity:1" />
      <stop offset="100%" style="stop-color:#B89842;stop-opacity:1" />
    </linearGradient>
    <radialGradient id="oceanGradient" cx="50%" cy="50%" r="50%">
      <stop offset="0%" style="stop-color:#4FD1C5;stop-opacity:0.3" />
      <stop offset="100%" style="stop-color:#1E90A0;stop-opacity:0.05" />
    </radialGradient>
    <filter id="glow">
      <feGaussianBlur stdDeviation="5" result="coloredBlur"/>
      <feMerge>
        <feMergeNode in="coloredBlur"/>
        <feMergeNode in="SourceGraphic"/>
      </feMerge>
    </filter>
    <filter id="softGlow">
      <feGaussianBlur stdDeviation="8" result="coloredBlur"/>
      <feMerge>
        <feMergeNode in="coloredBlur"/>
        <feMergeNode in="SourceGraphic"/>
      </feMerge>
    </filter>
    <filter id="shadow">
      <feDropShadow dx="0" dy="4" stdDeviation="8" flood-color="#000000" flood-opacity="0.5"/>
    </filter>
  </defs>

  <!-- Background -->
  <rect width="1200" height="630" fill="url(#bgGradient)"/>

  <!-- Decorative ocean gradients -->
  <ellipse cx="1000" cy="150" rx="300" ry="200" fill="url(#oceanGradient)" opacity="0.4"/>
  <ellipse cx="200" cy="530" rx="250" ry="180" fill="url(#oceanGradient)" opacity="0.3"/>

  <!-- Wave patterns -->
  <path d="M 0 400 Q 300 350 600 400 T 1200 400 L 1200 630 L 0 630 Z" fill="#1E90A0" opacity="0.08"/>
  <path d="M 0 450 Q 250 420 500 450 T 1000 450 T 1200 450 L 1200 630 L 0 630 Z" fill="#4FD1C5" opacity="0.05"/>

  <!-- Caviar roe particles -->
  <circle cx="788.9004368355279" cy="550.5208599602535" r="3.6308589571242695" fill="#CFAE58" opacity="0.20541921882009945"/>
  <circle cx="23.175698109450327" cy="232.661326502964" r="2.965977385011784" fill="#CFAE58" opacity="0.2128565664238813"/>
  <circle cx="390.03277038684917" cy="294.28907891040694" r="5.120135730257377" fill="#CFAE58" opacity="0.14894868533727734"/>
  <circle cx="1075.578895942359" cy="197.76449889835436" r="3.1171607716796723" fill="#CFAE58" opacity="0.2464353787797099"/>
  <circle cx="931.5618709754777" cy="121.31172593952097" r="5.802394875632475" fill="#CFAE58" opacity="0.19439849353223682"/>
  <circle cx="556.8130220469999" cy="339.0327705791809" r="2.0003480893256738" fill="#CFAE58" opacity="0.18194854870221522"/>
  <circle cx="56.58081013583471" cy="87.47267773594064" r="5.460647558577659" fill="#CFAE58" opacity="0.14771910343577024"/>
  <circle cx="494.9835629617272" cy="535.6327109897719" r="5.791132574190858" fill="#CFAE58" opacity="0.1335746599098643"/>
  <circle cx="682.2367219624474" cy="114.77422007756958" r="4.787038828179454" fill="#CFAE58" opacity="0.21580132274238786"/>
  <circle cx="178.827140771822" cy="499.3783643130043" r="5.085057336340098" fill="#CFAE58" opacity="0.22046705051468557"/>
  <circle cx="192.01857454511764" cy="510.32145545735597" r="3.4060152738017715" fill="#CFAE58" opacity="0.24172916537510497"/>
  <circle cx="1166.2193750028887" cy="56.421327373239976" r="5.354044542755161" fill="#CFAE58" opacity="0.24368567244292214"/>
  <circle cx="422.33855363043426" cy="213.0844562677735" r="2.2390232156271654" fill="#CFAE58" opacity="0.21963071678362686"/>
  <circle cx="1104.5967806651813" cy="383.68084950927596" r="4.315677591548958" fill="#CFAE58" opacity="0.20297289418842107"/>
  <circle cx="515.8789017485723" cy="493.55020075847585" r="2.56865859570578" fill="#CFAE58" opacity="0.17933892762927656"/>
  <circle cx="656.4311290397725" cy="54.627744228952146" r="5.844028674528705" fill="#CFAE58" opacity="0.1387096697104818"/>
  <circle cx="614.8660491679144" cy="608.154238848856" r="2.461156088329089" fill="#CFAE58" opacity="0.11596822639876557"/>
  <circle cx="388.09180187372164" cy="305.97607762503543" r="4.183095285963385" fill="#CFAE58" opacity="0.10010666193897937"/>
  <circle cx="502.94564412288867" cy="82.43219046128765" r="5.724317856945135" fill="#CFAE58" opacity="0.2156983203941419"/>
  <circle cx="314.41861255371026" cy="374.9127369433944" r="3.048333451825111" fill="#CFAE58" opacity="0.1610456234341056"/>
  <circle cx="1007.681034738438" cy="549.7504699752709" r="3.9119441281190213" fill="#CFAE58" opacity="0.18715582835937078"/>
  <circle cx="720.5029200795753" cy="114.63059635963842" r="2.81741023704871" fill="#CFAE58" opacity="0.21857536104062966"/>
  <circle cx="590.0005123542476" cy="522.4148232447511" r="5.358559845768404" fill="#CFAE58" opacity="0.23750186991429825"/>
  <circle cx="795.1706293864794" cy="469.67279012440184" r="5.929601632099167" fill="#CFAE58" opacity="0.1929225180665037"/>
  <circle cx="25.827509396905857" cy="458.3243848816586" r="2.4020694010266714" fill="#CFAE58" opacity="0.2496214037430446"/>
  <circle cx="806.4839304955242" cy="180.46607899876892" r="2.8850731216131074" fill="#CFAE58" opacity="0.1667934775392675"/>
  <circle cx="802.280314166138" cy="89.50691299168672" r="5.164507042607539" fill="#CFAE58" opacity="0.15175768816021096"/>
  <circle cx="841.4391703864582" cy="433.46095756418504" r="5.842355233224989" fill="#CFAE58" opacity="0.24569909107314947"/>
  <circle cx="465.78961803953814" cy="98.49906120549639" r="3.784550296943121" fill="#CFAE58" opacity="0.23160022012853648"/>
  <circle cx="96.13459455443412" cy="190.519635244111" r="2.0408965860768307" fill="#CFAE58" opacity="0.22448966397276035"/>

  <!-- Border with glow -->
  <rect x="40" y="40" width="1120" height="550" fill="none" stroke="url(#goldGradient)" stroke-width="3" rx="12" filter="url(#softGlow)"/>

  <!-- Icon circle with premium background -->
  <circle cx="150" cy="200" r="75" fill="#CFAE58" opacity="0.15" filter="url(#softGlow)"/>
  <circle cx="150" cy="200" r="70" fill="#CFAE58" opacity="0.25"/>
  <text x="150" y="235" font-size="90" text-anchor="middle" fill="#CFAE58" filter="url(#glow)">🐠</text>

  <!-- Premium logo (crown) with enhanced styling -->
  <g transform="translate(100, 70)">
    <path d="M 30 20 L 40 35 L 35 35 Z M 50 15 L 60 35 L 45 35 Z M 65 20 L 75 35 L 70 35 Z M 30 35 L 75 35 L 73 45 L 32 45 Z"
          fill="url(#goldGradient)" filter="url(#glow)" stroke="#B89842" stroke-width="0.5"/>
    <circle cx="40" cy="25" r="3" fill="#4FD1C5" filter="url(#glow)"/>
    <circle cx="52" cy="20" r="4" fill="#4FD1C5" filter="url(#glow)"/>
    <circle cx="65" cy="25" r="3" fill="#4FD1C5" filter="url(#glow)"/>
  </g>

  <!-- Title with shadow -->
  <text x="280" y="180" font-family="Georgia, serif" font-size="72" font-weight="bold"
        fill="url(#goldGradient)" filter="url(#shadow)">Sturgeon & Black Caviar</text>

  <!-- Subtitle with subtle glow -->
  <text x="280" y="230" font-family="Arial, sans-serif" font-size="36"
        fill="#D6DEE6" opacity="0.95" filter="url(#softGlow)">Premium Caviar Encyclopedia</text>

  <!-- Brand name with letter spacing -->
  <text x="280" y="300" font-family="Georgia, serif" font-size="32" font-weight="bold"
        fill="#CFAE58" letter-spacing="4" filter="url(#glow)">ROYAL KETA</text>

  <!-- Russian tagline -->
  <text x="280" y="340" font-family="Arial, sans-serif" font-size="22" font-style="italic"
        fill="#8B95A1" opacity="0.8">От икринки к королевской</text>

  <!-- Location -->
  <text x="280" y="380" font-family="Arial, sans-serif" font-size="20"
        fill="#8B95A1" opacity="0.7">Невельский район, Сахалин</text>

  <!-- Website with glow -->
  <text x="100" y="570" font-family="Arial, sans-serif" font-size="30" font-weight="bold"
        fill="#4FD1C5" filter="url(#glow)">royalketa.com</text>

  <!-- Enhanced decorative salmon silhouette -->
  <g transform="translate(950, 480)" opacity="0.2" filter="url(#softGlow)">
    <ellipse cx="0" cy="0" rx="90" ry="35" fill="#CFAE58"/>
    <path d="M 90 0 L 120 -18 L 130 0 L 120 18 Z" fill="#CFAE58"/>
    <path d="M -25 -35 L 0 -45 L 25 -35 Z" fill="#CFAE58"/>
    <ellipse cx="-50" cy="0" rx="15" ry="12" fill="#0B0F14"/>
  </g>

  <!-- Additional decorative caviar clusters -->
  <g opacity="0.2">
    <circle cx="1050" cy="120" r="6" fill="#CFAE58"/>
    <circle cx="1065" cy="115" r="5" fill="#CFAE58"/>
    <circle cx="1058" cy="130" r="4" fill="#CFAE58"/>
    <circle cx="150" cy="500" r="5" fill="#4FD1C5"/>
    <circle cx="165" cy="508" r="4" fill="#4FD1C5"/>
    <circle cx="140" cy="512" r="5" fill="#4FD1C5"/>
  </g>
</svg>