<svg width="1200" height="630" xmlns="http://www.w3.org/2000/svg">
  <defs>
    <linearGradient id="bgGradient" x1="0%" y1="0%" x2="100%" y2="100%">
      <stop offset="0%" style="stop-color:#0B0F14;stop-opacity:1" />
      <stop offset="50%" style="stop-color:#0F1619;stop-opacity:1" />
      <stop offset="100%" style="stop-color:#0F1922;stop-opacity:1" />
    </linearGradient>
    <linearGradient id="goldGradient" x1="0%" y1="0%" x2="100%" y2="0%">
      <stop offset="0%" style="stop-color:#E5D596;stop-opacity:1" />
      <stop offset="50%" style="stop-color:#CFAE58;stop-opacity:1" />
      <stop offset="100%" style="stop-color:#B89842;stop-opacity:1" />
    </linearGradient>
    <radialGradient id="oceanGradient" cx="50%" cy="50%" r="50%">
      <stop offset="0%" style="stop-color:#4FD1C5;stop-opacity:0.3" />
      <stop offset="100%" style="stop-color:#1E90A0;stop-opacity:0.05" />
    </radialGradient>
    <filter id="glow">
      <feGaussianBlur stdDeviation="5" result="coloredBlur"/>
      <feMerge>
        <feMergeNode in="coloredBlur"/>
        <feMergeNode in="SourceGraphic"/>
      </feMerge>
    </filter>
    <filter id="softGlow">
      <feGaussianBlur stdDeviation="8" result="coloredBlur"/>
      <feMerge>
        <feMergeNode in="coloredBlur"/>
        <feMergeNode in="SourceGraphic"/>
      </feMerge>
    </filter>
    <filter id="shadow">
      <feDropShadow dx="0" dy="4" stdDeviation="8" flood-color="#000000" flood-opacity="0.5"/>
    </filter>
  </defs>

  <!-- Background -->
  <rect width="1200" height="630" fill="url(#bgGradient)"/>

  <!-- Decorative ocean gradients -->
  <ellipse cx="1000" cy="150" rx="300" ry="200" fill="url(#oceanGradient)" opacity="0.4"/>
  <ellipse cx="200" cy="530" rx="250" ry="180" fill="url(#oceanGradient)" opacity="0.3"/>

  <!-- Wave patterns -->
  <path d="M 0 400 Q 300 350 600 400 T 1200 400 L 1200 630 L 0 630 Z" fill="#1E90A0" opacity="0.08"/>
  <path d="M 0 450 Q 250 420 500 450 T 1000 450 T 1200 450 L 1200 630 L 0 630 Z" fill="#4FD1C5" opacity="0.05"/>

  <!-- Caviar roe particles -->
  <circle cx="38.283452913603625" cy="63.80093136664311" r="3.482335714803348" fill="#CFAE58" opacity="0.20546987563342564"/>
  <circle cx="710.7926116245728" cy="82.80857979849507" r="5.560078304006178" fill="#CFAE58" opacity="0.23918022252367516"/>
  <circle cx="17.167146861447424" cy="111.5834606914897" r="5.465618586536352" fill="#CFAE58" opacity="0.1414575048502969"/>
  <circle cx="510.5847313329685" cy="163.58598431968153" r="5.543777369607027" fill="#CFAE58" opacity="0.2217054206183888"/>
  <circle cx="484.99793376454943" cy="64.85936397626465" r="4.745781337074753" fill="#CFAE58" opacity="0.10840861320406682"/>
  <circle cx="134.81136400013165" cy="410.3601042412467" r="5.499244879104418" fill="#CFAE58" opacity="0.14537647135358683"/>
  <circle cx="654.6914718061408" cy="332.496648059106" r="4.61310561661877" fill="#CFAE58" opacity="0.19216153752593063"/>
  <circle cx="1112.9291782684497" cy="610.1391296575642" r="4.664305537959215" fill="#CFAE58" opacity="0.16677243425095367"/>
  <circle cx="598.0268446095051" cy="352.0790241408404" r="3.1592243811307794" fill="#CFAE58" opacity="0.17871886963073014"/>
  <circle cx="759.349455081706" cy="113.25389667938668" r="2.276410397688778" fill="#CFAE58" opacity="0.23521113722580003"/>
  <circle cx="394.1318948200684" cy="1.9457910441163828" r="2.096571123115635" fill="#CFAE58" opacity="0.19013673582986165"/>
  <circle cx="538.1927385010351" cy="564.4879824420523" r="3.7706827649672023" fill="#CFAE58" opacity="0.17031217616504868"/>
  <circle cx="913.1752634709652" cy="586.5931838738192" r="2.6918697372644624" fill="#CFAE58" opacity="0.12718257767828092"/>
  <circle cx="524.2689270432387" cy="257.73612629969284" r="4.986695156003643" fill="#CFAE58" opacity="0.11692779293480766"/>
  <circle cx="536.852514886218" cy="368.2322951361102" r="3.7944200447634566" fill="#CFAE58" opacity="0.1486554987146171"/>
  <circle cx="422.33354809403875" cy="393.69882481013065" r="2.6294359819396735" fill="#CFAE58" opacity="0.1297503922219656"/>
  <circle cx="836.8870720435506" cy="597.5264432196027" r="2.4427429960422575" fill="#CFAE58" opacity="0.11643636132940316"/>
  <circle cx="1163.3830504920568" cy="599.1278883590734" r="2.9860936186200933" fill="#CFAE58" opacity="0.23003099087026407"/>
  <circle cx="237.01512538053714" cy="113.65274140683073" r="2.6203333047264437" fill="#CFAE58" opacity="0.1846071470041757"/>
  <circle cx="545.1046606277176" cy="277.1013958409994" r="2.9728923935013727" fill="#CFAE58" opacity="0.24488187536600414"/>
  <circle cx="206.5602628875732" cy="400.0847267670584" r="5.521631926066349" fill="#CFAE58" opacity="0.12083138305404456"/>
  <circle cx="305.77576374393834" cy="597.6002020040107" r="4.556565315349297" fill="#CFAE58" opacity="0.1439132352170067"/>
  <circle cx="119.87899895253787" cy="567.5690099360693" r="3.937447318430433" fill="#CFAE58" opacity="0.12073071735783748"/>
  <circle cx="1131.6812988077293" cy="423.55908873583604" r="3.7823468137199647" fill="#CFAE58" opacity="0.22754322343709285"/>
  <circle cx="1187.1768007022104" cy="421.5195528893672" r="2.098772675449772" fill="#CFAE58" opacity="0.11730385463957836"/>
  <circle cx="1162.460792896422" cy="361.5287872347955" r="5.288986070863612" fill="#CFAE58" opacity="0.1845817056112497"/>
  <circle cx="256.30423382122893" cy="472.7767805193847" r="4.074179861798645" fill="#CFAE58" opacity="0.1259001506886149"/>
  <circle cx="150.71075446795197" cy="199.38530671850162" r="2.4854910042014335" fill="#CFAE58" opacity="0.17022576139788914"/>
  <circle cx="107.2864283817764" cy="246.2808302294421" r="2.5433489386209995" fill="#CFAE58" opacity="0.1908013199551154"/>
  <circle cx="585.1323751161316" cy="329.4967145387042" r="2.5783585835283214" fill="#CFAE58" opacity="0.1652412082824859"/>

  <!-- Border with glow -->
  <rect x="40" y="40" width="1120" height="550" fill="none" stroke="url(#goldGradient)" stroke-width="3" rx="12" filter="url(#softGlow)"/>

  <!-- Icon circle with premium background -->
  <circle cx="150" cy="200" r="75" fill="#CFAE58" opacity="0.15" filter="url(#softGlow)"/>
  <circle cx="150" cy="200" r="70" fill="#CFAE58" opacity="0.25"/>
  <text x="150" y="235" font-size="90" text-anchor="middle" fill="#CFAE58" filter="url(#glow)">🐠</text>

  <!-- Premium logo (crown) with enhanced styling -->
  <g transform="translate(100, 70)">
    <path d="M 30 20 L 40 35 L 35 35 Z M 50 15 L 60 35 L 45 35 Z M 65 20 L 75 35 L 70 35 Z M 30 35 L 75 35 L 73 45 L 32 45 Z"
          fill="url(#goldGradient)" filter="url(#glow)" stroke="#B89842" stroke-width="0.5"/>
    <circle cx="40" cy="25" r="3" fill="#4FD1C5" filter="url(#glow)"/>
    <circle cx="52" cy="20" r="4" fill="#4FD1C5" filter="url(#glow)"/>
    <circle cx="65" cy="25" r="3" fill="#4FD1C5" filter="url(#glow)"/>
  </g>

  <!-- Title with shadow -->
  <text x="280" y="180" font-family="Georgia, serif" font-size="72" font-weight="bold"
        fill="url(#goldGradient)" filter="url(#shadow)">Sturgeon &amp; Black Caviar</text>

  <!-- Subtitle with subtle glow -->
  <text x="280" y="230" font-family="Arial, sans-serif" font-size="36"
        fill="#D6DEE6" opacity="0.95" filter="url(#softGlow)">Premium Caviar Encyclopedia</text>

  <!-- Brand name with letter spacing -->
  <text x="280" y="300" font-family="Georgia, serif" font-size="32" font-weight="bold"
        fill="#CFAE58" letter-spacing="4" filter="url(#glow)">ROYAL KETA</text>

  <!-- Russian tagline -->
  <text x="280" y="340" font-family="Arial, sans-serif" font-size="22" font-style="italic"
        fill="#8B95A1" opacity="0.8">От икринки к королевской</text>

  <!-- Location -->
  <text x="280" y="380" font-family="Arial, sans-serif" font-size="20"
        fill="#8B95A1" opacity="0.7">Невельский район, Сахалин</text>

  <!-- Website with glow -->
  <text x="100" y="570" font-family="Arial, sans-serif" font-size="30" font-weight="bold"
        fill="#4FD1C5" filter="url(#glow)">royalketa.com</text>

  <!-- Enhanced decorative salmon silhouette -->
  <g transform="translate(950, 480)" opacity="0.2" filter="url(#softGlow)">
    <ellipse cx="0" cy="0" rx="90" ry="35" fill="#CFAE58"/>
    <path d="M 90 0 L 120 -18 L 130 0 L 120 18 Z" fill="#CFAE58"/>
    <path d="M -25 -35 L 0 -45 L 25 -35 Z" fill="#CFAE58"/>
    <ellipse cx="-50" cy="0" rx="15" ry="12" fill="#0B0F14"/>
  </g>

  <!-- Additional decorative caviar clusters -->
  <g opacity="0.2">
    <circle cx="1050" cy="120" r="6" fill="#CFAE58"/>
    <circle cx="1065" cy="115" r="5" fill="#CFAE58"/>
    <circle cx="1058" cy="130" r="4" fill="#CFAE58"/>
    <circle cx="150" cy="500" r="5" fill="#4FD1C5"/>
    <circle cx="165" cy="508" r="4" fill="#4FD1C5"/>
    <circle cx="140" cy="512" r="5" fill="#4FD1C5"/>
  </g>
</svg>