<svg width="1200" height="630" xmlns="http://www.w3.org/2000/svg">
  <defs>
    <linearGradient id="bgGradient" x1="0%" y1="0%" x2="100%" y2="100%">
      <stop offset="0%" style="stop-color:#0B0F14;stop-opacity:1" />
      <stop offset="50%" style="stop-color:#0F1619;stop-opacity:1" />
      <stop offset="100%" style="stop-color:#0F1922;stop-opacity:1" />
    </linearGradient>
    <linearGradient id="goldGradient" x1="0%" y1="0%" x2="100%" y2="0%">
      <stop offset="0%" style="stop-color:#E5D596;stop-opacity:1" />
      <stop offset="50%" style="stop-color:#CFAE58;stop-opacity:1" />
      <stop offset="100%" style="stop-color:#B89842;stop-opacity:1" />
    </linearGradient>
    <radialGradient id="oceanGradient" cx="50%" cy="50%" r="50%">
      <stop offset="0%" style="stop-color:#4FD1C5;stop-opacity:0.3" />
      <stop offset="100%" style="stop-color:#1E90A0;stop-opacity:0.05" />
    </radialGradient>
    <filter id="glow">
      <feGaussianBlur stdDeviation="5" result="coloredBlur"/>
      <feMerge>
        <feMergeNode in="coloredBlur"/>
        <feMergeNode in="SourceGraphic"/>
      </feMerge>
    </filter>
    <filter id="softGlow">
      <feGaussianBlur stdDeviation="8" result="coloredBlur"/>
      <feMerge>
        <feMergeNode in="coloredBlur"/>
        <feMergeNode in="SourceGraphic"/>
      </feMerge>
    </filter>
    <filter id="shadow">
      <feDropShadow dx="0" dy="4" stdDeviation="8" flood-color="#000000" flood-opacity="0.5"/>
    </filter>
  </defs>

  <!-- Background -->
  <rect width="1200" height="630" fill="url(#bgGradient)"/>

  <!-- Decorative ocean gradients -->
  <ellipse cx="1000" cy="150" rx="300" ry="200" fill="url(#oceanGradient)" opacity="0.4"/>
  <ellipse cx="200" cy="530" rx="250" ry="180" fill="url(#oceanGradient)" opacity="0.3"/>

  <!-- Wave patterns -->
  <path d="M 0 400 Q 300 350 600 400 T 1200 400 L 1200 630 L 0 630 Z" fill="#1E90A0" opacity="0.08"/>
  <path d="M 0 450 Q 250 420 500 450 T 1000 450 T 1200 450 L 1200 630 L 0 630 Z" fill="#4FD1C5" opacity="0.05"/>

  <!-- Caviar roe particles -->
  <circle cx="7.006093171773564" cy="396.47859597680315" r="4.087917875071695" fill="#CFAE58" opacity="0.2449101476874174"/>
  <circle cx="666.9849854302411" cy="504.3456420522279" r="3.344998398205059" fill="#CFAE58" opacity="0.1397507998068998"/>
  <circle cx="1137.7602917054614" cy="447.3581542315236" r="5.485131070921778" fill="#CFAE58" opacity="0.12085720217048922"/>
  <circle cx="848.2869075920244" cy="589.4079348568183" r="5.493631610422395" fill="#CFAE58" opacity="0.10953057038127859"/>
  <circle cx="310.4400951024934" cy="90.42814759077355" r="2.6070734269342277" fill="#CFAE58" opacity="0.1818525529816145"/>
  <circle cx="310.87602631749445" cy="402.1154763877704" r="4.724935679368432" fill="#CFAE58" opacity="0.12524355915987542"/>
  <circle cx="287.2363643055996" cy="275.5478309810531" r="3.149206212239021" fill="#CFAE58" opacity="0.1015190984768505"/>
  <circle cx="57.34194915422237" cy="519.5767599612337" r="3.8143122997667502" fill="#CFAE58" opacity="0.12948583812201406"/>
  <circle cx="192.7923825178385" cy="399.2840845591337" r="3.261422566413095" fill="#CFAE58" opacity="0.14942203733557186"/>
  <circle cx="213.42647004369834" cy="64.60902633317046" r="5.124080151726121" fill="#CFAE58" opacity="0.2318074388382119"/>
  <circle cx="69.91169410488087" cy="378.93356621704015" r="5.735842928355336" fill="#CFAE58" opacity="0.2011335287114188"/>
  <circle cx="1101.2254231180007" cy="377.3542796513702" r="2.3175756482590897" fill="#CFAE58" opacity="0.2470239723054225"/>
  <circle cx="593.1861252711346" cy="150.70228530915554" r="5.745748840370506" fill="#CFAE58" opacity="0.18388298212227658"/>
  <circle cx="693.4889246073603" cy="108.48253728018915" r="5.267396179901613" fill="#CFAE58" opacity="0.21264065931600107"/>
  <circle cx="1173.9897111895611" cy="239.57254110519594" r="3.3147200626467335" fill="#CFAE58" opacity="0.11134749917259681"/>
  <circle cx="818.0092211714997" cy="84.52365190852764" r="4.850731005255767" fill="#CFAE58" opacity="0.13111667566890212"/>
  <circle cx="204.9700726707942" cy="585.5503641113513" r="2.9640803262090105" fill="#CFAE58" opacity="0.19331436113060857"/>
  <circle cx="617.0429892727082" cy="579.6828828951578" r="5.408128593477411" fill="#CFAE58" opacity="0.10888162097409908"/>
  <circle cx="388.29639398235724" cy="250.79401588785828" r="5.525471133409647" fill="#CFAE58" opacity="0.1104792043801967"/>
  <circle cx="1173.5501345775904" cy="479.10454405713085" r="2.3698955464075286" fill="#CFAE58" opacity="0.10420698799494642"/>
  <circle cx="942.9877066968347" cy="4.390740560116432" r="5.606179800181451" fill="#CFAE58" opacity="0.19024677553843555"/>
  <circle cx="95.02092481329387" cy="66.15155765633665" r="5.482907683151412" fill="#CFAE58" opacity="0.24351156099614166"/>
  <circle cx="117.79563902235802" cy="93.79228491501952" r="3.286285127393533" fill="#CFAE58" opacity="0.11281606640457625"/>
  <circle cx="769.4702466943804" cy="621.4704049321242" r="4.2338809191145" fill="#CFAE58" opacity="0.2122382486668688"/>
  <circle cx="586.695284578112" cy="476.0487138552078" r="2.6956727818902557" fill="#CFAE58" opacity="0.16356516193137355"/>
  <circle cx="915.7308360390396" cy="324.04738302371845" r="4.745607821839168" fill="#CFAE58" opacity="0.12792453195944264"/>
  <circle cx="241.73765676582718" cy="335.3894454632721" r="3.2705087262093664" fill="#CFAE58" opacity="0.16733254203228737"/>
  <circle cx="957.7774911626473" cy="512.9130152141265" r="4.811789840087" fill="#CFAE58" opacity="0.10027123195425387"/>
  <circle cx="1013.6872416878522" cy="50.94592729988729" r="2.9498524371991497" fill="#CFAE58" opacity="0.24804058965770595"/>
  <circle cx="900.3942492251746" cy="323.90330558601534" r="4.860967137978816" fill="#CFAE58" opacity="0.2347286609063275"/>

  <!-- Border with glow -->
  <rect x="40" y="40" width="1120" height="550" fill="none" stroke="url(#goldGradient)" stroke-width="3" rx="12" filter="url(#softGlow)"/>

  <!-- Icon circle with premium background -->
  <circle cx="150" cy="200" r="75" fill="#CFAE58" opacity="0.15" filter="url(#softGlow)"/>
  <circle cx="150" cy="200" r="70" fill="#CFAE58" opacity="0.25"/>
  <text x="150" y="235" font-size="90" text-anchor="middle" fill="#CFAE58" filter="url(#glow)">🐠</text>

  <!-- Premium logo (crown) with enhanced styling -->
  <g transform="translate(100, 70)">
    <path d="M 30 20 L 40 35 L 35 35 Z M 50 15 L 60 35 L 45 35 Z M 65 20 L 75 35 L 70 35 Z M 30 35 L 75 35 L 73 45 L 32 45 Z"
          fill="url(#goldGradient)" filter="url(#glow)" stroke="#B89842" stroke-width="0.5"/>
    <circle cx="40" cy="25" r="3" fill="#4FD1C5" filter="url(#glow)"/>
    <circle cx="52" cy="20" r="4" fill="#4FD1C5" filter="url(#glow)"/>
    <circle cx="65" cy="25" r="3" fill="#4FD1C5" filter="url(#glow)"/>
  </g>

  <!-- Title with shadow -->
  <text x="280" y="180" font-family="Georgia, serif" font-size="72" font-weight="bold"
        fill="url(#goldGradient)" filter="url(#shadow)">Sturgeon &amp; Black Caviar</text>

  <!-- Subtitle with subtle glow -->
  <text x="280" y="230" font-family="Arial, sans-serif" font-size="36"
        fill="#D6DEE6" opacity="0.95" filter="url(#softGlow)">Premium Caviar Encyclopedia</text>

  <!-- Brand name with letter spacing -->
  <text x="280" y="300" font-family="Georgia, serif" font-size="32" font-weight="bold"
        fill="#CFAE58" letter-spacing="4" filter="url(#glow)">ROYAL KETA</text>

  <!-- Russian tagline -->
  <text x="280" y="340" font-family="Arial, sans-serif" font-size="22" font-style="italic"
        fill="#8B95A1" opacity="0.8">От икринки к королевской</text>

  <!-- Location -->
  <text x="280" y="380" font-family="Arial, sans-serif" font-size="20"
        fill="#8B95A1" opacity="0.7">Невельский район, Сахалин</text>

  <!-- Website with glow -->
  <text x="100" y="570" font-family="Arial, sans-serif" font-size="30" font-weight="bold"
        fill="#4FD1C5" filter="url(#glow)">royalketa.com</text>

  <!-- Enhanced decorative salmon silhouette -->
  <g transform="translate(950, 480)" opacity="0.2" filter="url(#softGlow)">
    <ellipse cx="0" cy="0" rx="90" ry="35" fill="#CFAE58"/>
    <path d="M 90 0 L 120 -18 L 130 0 L 120 18 Z" fill="#CFAE58"/>
    <path d="M -25 -35 L 0 -45 L 25 -35 Z" fill="#CFAE58"/>
    <ellipse cx="-50" cy="0" rx="15" ry="12" fill="#0B0F14"/>
  </g>

  <!-- Additional decorative caviar clusters -->
  <g opacity="0.2">
    <circle cx="1050" cy="120" r="6" fill="#CFAE58"/>
    <circle cx="1065" cy="115" r="5" fill="#CFAE58"/>
    <circle cx="1058" cy="130" r="4" fill="#CFAE58"/>
    <circle cx="150" cy="500" r="5" fill="#4FD1C5"/>
    <circle cx="165" cy="508" r="4" fill="#4FD1C5"/>
    <circle cx="140" cy="512" r="5" fill="#4FD1C5"/>
  </g>
</svg>