<svg width="1200" height="630" xmlns="http://www.w3.org/2000/svg">
  <defs>
    <linearGradient id="bgGradient" x1="0%" y1="0%" x2="100%" y2="100%">
      <stop offset="0%" style="stop-color:#0B0F14;stop-opacity:1" />
      <stop offset="50%" style="stop-color:#0F1619;stop-opacity:1" />
      <stop offset="100%" style="stop-color:#0F1922;stop-opacity:1" />
    </linearGradient>
    <linearGradient id="goldGradient" x1="0%" y1="0%" x2="100%" y2="0%">
      <stop offset="0%" style="stop-color:#E5D596;stop-opacity:1" />
      <stop offset="50%" style="stop-color:#CFAE58;stop-opacity:1" />
      <stop offset="100%" style="stop-color:#B89842;stop-opacity:1" />
    </linearGradient>
    <radialGradient id="oceanGradient" cx="50%" cy="50%" r="50%">
      <stop offset="0%" style="stop-color:#4FD1C5;stop-opacity:0.3" />
      <stop offset="100%" style="stop-color:#1E90A0;stop-opacity:0.05" />
    </radialGradient>
    <filter id="glow">
      <feGaussianBlur stdDeviation="5" result="coloredBlur"/>
      <feMerge>
        <feMergeNode in="coloredBlur"/>
        <feMergeNode in="SourceGraphic"/>
      </feMerge>
    </filter>
    <filter id="softGlow">
      <feGaussianBlur stdDeviation="8" result="coloredBlur"/>
      <feMerge>
        <feMergeNode in="coloredBlur"/>
        <feMergeNode in="SourceGraphic"/>
      </feMerge>
    </filter>
    <filter id="shadow">
      <feDropShadow dx="0" dy="4" stdDeviation="8" flood-color="#000000" flood-opacity="0.5"/>
    </filter>
  </defs>

  <!-- Background -->
  <rect width="1200" height="630" fill="url(#bgGradient)"/>

  <!-- Decorative ocean gradients -->
  <ellipse cx="1000" cy="150" rx="300" ry="200" fill="url(#oceanGradient)" opacity="0.4"/>
  <ellipse cx="200" cy="530" rx="250" ry="180" fill="url(#oceanGradient)" opacity="0.3"/>

  <!-- Wave patterns -->
  <path d="M 0 400 Q 300 350 600 400 T 1200 400 L 1200 630 L 0 630 Z" fill="#1E90A0" opacity="0.08"/>
  <path d="M 0 450 Q 250 420 500 450 T 1000 450 T 1200 450 L 1200 630 L 0 630 Z" fill="#4FD1C5" opacity="0.05"/>

  <!-- Caviar roe particles -->
  <circle cx="334.0303846813282" cy="236.94063828522096" r="3.35708687058497" fill="#CFAE58" opacity="0.1785690669347142"/>
  <circle cx="501.69034961280107" cy="465.9821590863313" r="4.503144961642994" fill="#CFAE58" opacity="0.13463200599231437"/>
  <circle cx="439.339081141907" cy="348.0799568105282" r="5.5472694408307595" fill="#CFAE58" opacity="0.20166156468694169"/>
  <circle cx="577.1022619353193" cy="232.5826662762186" r="2.6445412875601653" fill="#CFAE58" opacity="0.2495145118500985"/>
  <circle cx="657.6083210097923" cy="587.0466683648473" r="3.9629312146095943" fill="#CFAE58" opacity="0.17102567996681944"/>
  <circle cx="729.201739483203" cy="53.119762937132265" r="2.8789790687485697" fill="#CFAE58" opacity="0.21033940139594087"/>
  <circle cx="115.51860983092848" cy="589.9165112032912" r="3.22745119335296" fill="#CFAE58" opacity="0.16015125118890222"/>
  <circle cx="1154.4177344312056" cy="484.1698762798449" r="4.617872993347573" fill="#CFAE58" opacity="0.10198618250430543"/>
  <circle cx="140.84068251121016" cy="142.15414884615083" r="2.0205045464063742" fill="#CFAE58" opacity="0.18594582077112892"/>
  <circle cx="325.9604698459899" cy="342.199514724731" r="2.6873964769371166" fill="#CFAE58" opacity="0.2498847789535209"/>
  <circle cx="757.6899231770971" cy="136.83800944714721" r="2.674233788855142" fill="#CFAE58" opacity="0.24296712162411266"/>
  <circle cx="711.1885514384119" cy="114.54311419430185" r="3.164584613840517" fill="#CFAE58" opacity="0.16119892684124948"/>
  <circle cx="1162.4396084009436" cy="419.60623151994866" r="4.958232343535331" fill="#CFAE58" opacity="0.12172954437187901"/>
  <circle cx="484.18908066163715" cy="205.61881349889194" r="4.464214163738148" fill="#CFAE58" opacity="0.15939232712100354"/>
  <circle cx="743.2172785684315" cy="534.1118579338121" r="2.650994029226273" fill="#CFAE58" opacity="0.13135001248202188"/>
  <circle cx="485.30895465681044" cy="29.499733613237368" r="5.681071534537905" fill="#CFAE58" opacity="0.14119051663311913"/>
  <circle cx="350.4874567265299" cy="450.6248380697363" r="3.7577879683141013" fill="#CFAE58" opacity="0.23141676461108412"/>
  <circle cx="337.7474562611846" cy="10.447469290627284" r="5.232407813751193" fill="#CFAE58" opacity="0.15714601283418575"/>
  <circle cx="1158.3713071095588" cy="595.6619605422253" r="4.375737006029736" fill="#CFAE58" opacity="0.13307580927780596"/>
  <circle cx="1135.3816969066233" cy="365.1071574184954" r="2.02962513186332" fill="#CFAE58" opacity="0.10170112117443271"/>
  <circle cx="770.4275112696153" cy="163.36634793704292" r="3.1402877248158583" fill="#CFAE58" opacity="0.1345493946526286"/>
  <circle cx="777.781511776916" cy="74.36093543663607" r="3.304707483114685" fill="#CFAE58" opacity="0.1290028420824181"/>
  <circle cx="787.8206910181615" cy="552.2708949823717" r="5.761785374448722" fill="#CFAE58" opacity="0.13849737614607913"/>
  <circle cx="930.3548047565605" cy="217.6558984036557" r="5.271721511001228" fill="#CFAE58" opacity="0.1826330306996989"/>
  <circle cx="741.5266169208479" cy="326.2313763155684" r="2.586092112846974" fill="#CFAE58" opacity="0.2070721046775425"/>
  <circle cx="599.4468105248548" cy="563.1656732648416" r="4.228963892101661" fill="#CFAE58" opacity="0.20031749167979412"/>
  <circle cx="786.4703906713057" cy="443.42317044087406" r="5.715729709991431" fill="#CFAE58" opacity="0.16599756171431332"/>
  <circle cx="921.8665624639445" cy="497.994111882643" r="2.3793878978021654" fill="#CFAE58" opacity="0.21218171884087234"/>
  <circle cx="185.22741833143286" cy="556.7303684005412" r="3.435653027788367" fill="#CFAE58" opacity="0.10875274030291035"/>
  <circle cx="183.3841961194898" cy="423.6093341442383" r="5.307505772590528" fill="#CFAE58" opacity="0.2237449051396088"/>

  <!-- Border with glow -->
  <rect x="40" y="40" width="1120" height="550" fill="none" stroke="url(#goldGradient)" stroke-width="3" rx="12" filter="url(#softGlow)"/>

  <!-- Icon circle with premium background -->
  <circle cx="150" cy="200" r="75" fill="#CFAE58" opacity="0.15" filter="url(#softGlow)"/>
  <circle cx="150" cy="200" r="70" fill="#CFAE58" opacity="0.25"/>
  <text x="150" y="235" font-size="90" text-anchor="middle" fill="#CFAE58" filter="url(#glow)">🐠</text>

  <!-- Premium logo (crown) with enhanced styling -->
  <g transform="translate(100, 70)">
    <path d="M 30 20 L 40 35 L 35 35 Z M 50 15 L 60 35 L 45 35 Z M 65 20 L 75 35 L 70 35 Z M 30 35 L 75 35 L 73 45 L 32 45 Z"
          fill="url(#goldGradient)" filter="url(#glow)" stroke="#B89842" stroke-width="0.5"/>
    <circle cx="40" cy="25" r="3" fill="#4FD1C5" filter="url(#glow)"/>
    <circle cx="52" cy="20" r="4" fill="#4FD1C5" filter="url(#glow)"/>
    <circle cx="65" cy="25" r="3" fill="#4FD1C5" filter="url(#glow)"/>
  </g>

  <!-- Title with shadow -->
  <text x="280" y="180" font-family="Georgia, serif" font-size="72" font-weight="bold"
        fill="url(#goldGradient)" filter="url(#shadow)">Sturgeon &amp; Black Caviar</text>

  <!-- Subtitle with subtle glow -->
  <text x="280" y="230" font-family="Arial, sans-serif" font-size="36"
        fill="#D6DEE6" opacity="0.95" filter="url(#softGlow)">Premium Caviar Encyclopedia</text>

  <!-- Brand name with letter spacing -->
  <text x="280" y="300" font-family="Georgia, serif" font-size="32" font-weight="bold"
        fill="#CFAE58" letter-spacing="4" filter="url(#glow)">ROYAL KETA</text>

  <!-- Russian tagline -->
  <text x="280" y="340" font-family="Arial, sans-serif" font-size="22" font-style="italic"
        fill="#8B95A1" opacity="0.8">От икринки к королевской</text>

  <!-- Location -->
  <text x="280" y="380" font-family="Arial, sans-serif" font-size="20"
        fill="#8B95A1" opacity="0.7">Невельский район, Сахалин</text>

  <!-- Website with glow -->
  <text x="100" y="570" font-family="Arial, sans-serif" font-size="30" font-weight="bold"
        fill="#4FD1C5" filter="url(#glow)">royalketa.com</text>

  <!-- Enhanced decorative salmon silhouette -->
  <g transform="translate(950, 480)" opacity="0.2" filter="url(#softGlow)">
    <ellipse cx="0" cy="0" rx="90" ry="35" fill="#CFAE58"/>
    <path d="M 90 0 L 120 -18 L 130 0 L 120 18 Z" fill="#CFAE58"/>
    <path d="M -25 -35 L 0 -45 L 25 -35 Z" fill="#CFAE58"/>
    <ellipse cx="-50" cy="0" rx="15" ry="12" fill="#0B0F14"/>
  </g>

  <!-- Additional decorative caviar clusters -->
  <g opacity="0.2">
    <circle cx="1050" cy="120" r="6" fill="#CFAE58"/>
    <circle cx="1065" cy="115" r="5" fill="#CFAE58"/>
    <circle cx="1058" cy="130" r="4" fill="#CFAE58"/>
    <circle cx="150" cy="500" r="5" fill="#4FD1C5"/>
    <circle cx="165" cy="508" r="4" fill="#4FD1C5"/>
    <circle cx="140" cy="512" r="5" fill="#4FD1C5"/>
  </g>
</svg>