<svg width="1200" height="630" xmlns="http://www.w3.org/2000/svg">
  <defs>
    <linearGradient id="bgGradient" x1="0%" y1="0%" x2="100%" y2="100%">
      <stop offset="0%" style="stop-color:#0B0F14;stop-opacity:1" />
      <stop offset="50%" style="stop-color:#0F1619;stop-opacity:1" />
      <stop offset="100%" style="stop-color:#0F1922;stop-opacity:1" />
    </linearGradient>
    <linearGradient id="goldGradient" x1="0%" y1="0%" x2="100%" y2="0%">
      <stop offset="0%" style="stop-color:#E5D596;stop-opacity:1" />
      <stop offset="50%" style="stop-color:#CFAE58;stop-opacity:1" />
      <stop offset="100%" style="stop-color:#B89842;stop-opacity:1" />
    </linearGradient>
    <radialGradient id="oceanGradient" cx="50%" cy="50%" r="50%">
      <stop offset="0%" style="stop-color:#4FD1C5;stop-opacity:0.3" />
      <stop offset="100%" style="stop-color:#1E90A0;stop-opacity:0.05" />
    </radialGradient>
    <filter id="glow">
      <feGaussianBlur stdDeviation="5" result="coloredBlur"/>
      <feMerge>
        <feMergeNode in="coloredBlur"/>
        <feMergeNode in="SourceGraphic"/>
      </feMerge>
    </filter>
    <filter id="softGlow">
      <feGaussianBlur stdDeviation="8" result="coloredBlur"/>
      <feMerge>
        <feMergeNode in="coloredBlur"/>
        <feMergeNode in="SourceGraphic"/>
      </feMerge>
    </filter>
    <filter id="shadow">
      <feDropShadow dx="0" dy="4" stdDeviation="8" flood-color="#000000" flood-opacity="0.5"/>
    </filter>
  </defs>

  <!-- Background -->
  <rect width="1200" height="630" fill="url(#bgGradient)"/>

  <!-- Decorative ocean gradients -->
  <ellipse cx="1000" cy="150" rx="300" ry="200" fill="url(#oceanGradient)" opacity="0.4"/>
  <ellipse cx="200" cy="530" rx="250" ry="180" fill="url(#oceanGradient)" opacity="0.3"/>

  <!-- Wave patterns -->
  <path d="M 0 400 Q 300 350 600 400 T 1200 400 L 1200 630 L 0 630 Z" fill="#1E90A0" opacity="0.08"/>
  <path d="M 0 450 Q 250 420 500 450 T 1000 450 T 1200 450 L 1200 630 L 0 630 Z" fill="#4FD1C5" opacity="0.05"/>

  <!-- Caviar roe particles -->
  <circle cx="649.8869166902774" cy="47.18881385044505" r="5.535507432746395" fill="#CFAE58" opacity="0.1807202661874725"/>
  <circle cx="451.7419404450715" cy="357.2636028534292" r="5.913912316891027" fill="#CFAE58" opacity="0.10270438975175972"/>
  <circle cx="1034.1755582943163" cy="256.41429825084396" r="4.938715951036371" fill="#CFAE58" opacity="0.10625530247750092"/>
  <circle cx="739.5105128098633" cy="509.4009459518385" r="5.962398854392406" fill="#CFAE58" opacity="0.21977162950215032"/>
  <circle cx="570.1172279403379" cy="186.3376839511889" r="3.833773745771764" fill="#CFAE58" opacity="0.23232939014475026"/>
  <circle cx="300.6615873530412" cy="472.30234075361477" r="3.5240901080369262" fill="#CFAE58" opacity="0.10580726579298719"/>
  <circle cx="1153.8525035226962" cy="493.49766803160634" r="2.5630250473583374" fill="#CFAE58" opacity="0.17878785880484582"/>
  <circle cx="1155.4956911115653" cy="241.79687810578477" r="4.186392842194743" fill="#CFAE58" opacity="0.21503016673901673"/>
  <circle cx="967.7662620971478" cy="75.51642066798064" r="2.1375436039432696" fill="#CFAE58" opacity="0.16324848217723903"/>
  <circle cx="321.95708578924354" cy="577.8134329611343" r="2.076328118380718" fill="#CFAE58" opacity="0.10643386651006709"/>
  <circle cx="842.0463668528348" cy="473.7042186414986" r="5.492348992012383" fill="#CFAE58" opacity="0.2130707538937811"/>
  <circle cx="553.7813775303651" cy="344.6922105169092" r="4.220055796486106" fill="#CFAE58" opacity="0.18135725619696003"/>
  <circle cx="1056.552729193724" cy="522.8937747413644" r="3.3832437649320135" fill="#CFAE58" opacity="0.1990658190523151"/>
  <circle cx="224.58155666708248" cy="387.9391523951341" r="2.5476086461494463" fill="#CFAE58" opacity="0.12207126508131852"/>
  <circle cx="1099.3313497117742" cy="58.0180066151032" r="3.2325576319651987" fill="#CFAE58" opacity="0.1270048820929749"/>
  <circle cx="55.89414858845747" cy="558.8218271151001" r="3.4415162592085964" fill="#CFAE58" opacity="0.10904629864735706"/>
  <circle cx="972.2070137073898" cy="538.2643718314869" r="4.710977897739173" fill="#CFAE58" opacity="0.19972197169205252"/>
  <circle cx="503.96610584038973" cy="145.93326183368382" r="4.066158214498527" fill="#CFAE58" opacity="0.12722300111852886"/>
  <circle cx="18.907739749138575" cy="294.89638811348686" r="2.357671926205821" fill="#CFAE58" opacity="0.18633876944042493"/>
  <circle cx="815.6481987263319" cy="99.7330133697484" r="4.751378637864643" fill="#CFAE58" opacity="0.19280403900993354"/>
  <circle cx="914.6120921233089" cy="470.63821635412495" r="3.88696671443535" fill="#CFAE58" opacity="0.14185988608814723"/>
  <circle cx="452.7782494975141" cy="371.1691029179444" r="3.8618495490830425" fill="#CFAE58" opacity="0.16948215231063238"/>
  <circle cx="977.7448392422738" cy="267.87950506358845" r="2.829035537790989" fill="#CFAE58" opacity="0.13997841686459545"/>
  <circle cx="191.60075444075116" cy="581.8261797813526" r="3.581653895867605" fill="#CFAE58" opacity="0.16533764425021208"/>
  <circle cx="97.06379662828186" cy="284.2980648737752" r="5.680712961840888" fill="#CFAE58" opacity="0.17585972128758454"/>
  <circle cx="476.2950983730752" cy="251.0396208961775" r="4.8550051248606" fill="#CFAE58" opacity="0.13393446644629614"/>
  <circle cx="1028.2991878967468" cy="379.97027246142596" r="2.316452185570321" fill="#CFAE58" opacity="0.22958233340216472"/>
  <circle cx="587.5686699033271" cy="480.02726253513464" r="3.0579042395329252" fill="#CFAE58" opacity="0.12939101512824758"/>
  <circle cx="542.0552743107949" cy="340.24141687505556" r="4.487808895959107" fill="#CFAE58" opacity="0.12496743648522085"/>
  <circle cx="915.0107092739789" cy="297.2116432020006" r="5.68962161211563" fill="#CFAE58" opacity="0.10648240968344884"/>

  <!-- Border with glow -->
  <rect x="40" y="40" width="1120" height="550" fill="none" stroke="url(#goldGradient)" stroke-width="3" rx="12" filter="url(#softGlow)"/>

  <!-- Icon circle with premium background -->
  <circle cx="150" cy="200" r="75" fill="#CFAE58" opacity="0.15" filter="url(#softGlow)"/>
  <circle cx="150" cy="200" r="70" fill="#CFAE58" opacity="0.25"/>
  <text x="150" y="235" font-size="90" text-anchor="middle" fill="#CFAE58" filter="url(#glow)">🐠</text>

  <!-- Premium logo (crown) with enhanced styling -->
  <g transform="translate(100, 70)">
    <path d="M 30 20 L 40 35 L 35 35 Z M 50 15 L 60 35 L 45 35 Z M 65 20 L 75 35 L 70 35 Z M 30 35 L 75 35 L 73 45 L 32 45 Z"
          fill="url(#goldGradient)" filter="url(#glow)" stroke="#B89842" stroke-width="0.5"/>
    <circle cx="40" cy="25" r="3" fill="#4FD1C5" filter="url(#glow)"/>
    <circle cx="52" cy="20" r="4" fill="#4FD1C5" filter="url(#glow)"/>
    <circle cx="65" cy="25" r="3" fill="#4FD1C5" filter="url(#glow)"/>
  </g>

  <!-- Title with shadow -->
  <text x="280" y="180" font-family="Georgia, serif" font-size="72" font-weight="bold"
        fill="url(#goldGradient)" filter="url(#shadow)">Sturgeon &amp; Black Caviar</text>

  <!-- Subtitle with subtle glow -->
  <text x="280" y="230" font-family="Arial, sans-serif" font-size="36"
        fill="#D6DEE6" opacity="0.95" filter="url(#softGlow)">Premium Caviar Encyclopedia</text>

  <!-- Brand name with letter spacing -->
  <text x="280" y="300" font-family="Georgia, serif" font-size="32" font-weight="bold"
        fill="#CFAE58" letter-spacing="4" filter="url(#glow)">ROYAL KETA</text>

  <!-- Russian tagline -->
  <text x="280" y="340" font-family="Arial, sans-serif" font-size="22" font-style="italic"
        fill="#8B95A1" opacity="0.8">От икринки к королевской</text>

  <!-- Location -->
  <text x="280" y="380" font-family="Arial, sans-serif" font-size="20"
        fill="#8B95A1" opacity="0.7">Невельский район, Сахалин</text>

  <!-- Website with glow -->
  <text x="100" y="570" font-family="Arial, sans-serif" font-size="30" font-weight="bold"
        fill="#4FD1C5" filter="url(#glow)">royalketa.com</text>

  <!-- Enhanced decorative salmon silhouette -->
  <g transform="translate(950, 480)" opacity="0.2" filter="url(#softGlow)">
    <ellipse cx="0" cy="0" rx="90" ry="35" fill="#CFAE58"/>
    <path d="M 90 0 L 120 -18 L 130 0 L 120 18 Z" fill="#CFAE58"/>
    <path d="M -25 -35 L 0 -45 L 25 -35 Z" fill="#CFAE58"/>
    <ellipse cx="-50" cy="0" rx="15" ry="12" fill="#0B0F14"/>
  </g>

  <!-- Additional decorative caviar clusters -->
  <g opacity="0.2">
    <circle cx="1050" cy="120" r="6" fill="#CFAE58"/>
    <circle cx="1065" cy="115" r="5" fill="#CFAE58"/>
    <circle cx="1058" cy="130" r="4" fill="#CFAE58"/>
    <circle cx="150" cy="500" r="5" fill="#4FD1C5"/>
    <circle cx="165" cy="508" r="4" fill="#4FD1C5"/>
    <circle cx="140" cy="512" r="5" fill="#4FD1C5"/>
  </g>
</svg>