<svg width="1200" height="630" xmlns="http://www.w3.org/2000/svg">
  <defs>
    <linearGradient id="bgGradient" x1="0%" y1="0%" x2="100%" y2="100%">
      <stop offset="0%" style="stop-color:#0B0F14;stop-opacity:1" />
      <stop offset="50%" style="stop-color:#0F1619;stop-opacity:1" />
      <stop offset="100%" style="stop-color:#0F1922;stop-opacity:1" />
    </linearGradient>
    <linearGradient id="goldGradient" x1="0%" y1="0%" x2="100%" y2="0%">
      <stop offset="0%" style="stop-color:#E5D596;stop-opacity:1" />
      <stop offset="50%" style="stop-color:#CFAE58;stop-opacity:1" />
      <stop offset="100%" style="stop-color:#B89842;stop-opacity:1" />
    </linearGradient>
    <radialGradient id="oceanGradient" cx="50%" cy="50%" r="50%">
      <stop offset="0%" style="stop-color:#4FD1C5;stop-opacity:0.3" />
      <stop offset="100%" style="stop-color:#1E90A0;stop-opacity:0.05" />
    </radialGradient>
    <filter id="glow">
      <feGaussianBlur stdDeviation="5" result="coloredBlur"/>
      <feMerge>
        <feMergeNode in="coloredBlur"/>
        <feMergeNode in="SourceGraphic"/>
      </feMerge>
    </filter>
    <filter id="softGlow">
      <feGaussianBlur stdDeviation="8" result="coloredBlur"/>
      <feMerge>
        <feMergeNode in="coloredBlur"/>
        <feMergeNode in="SourceGraphic"/>
      </feMerge>
    </filter>
    <filter id="shadow">
      <feDropShadow dx="0" dy="4" stdDeviation="8" flood-color="#000000" flood-opacity="0.5"/>
    </filter>
  </defs>

  <!-- Background -->
  <rect width="1200" height="630" fill="url(#bgGradient)"/>

  <!-- Decorative ocean gradients -->
  <ellipse cx="1000" cy="150" rx="300" ry="200" fill="url(#oceanGradient)" opacity="0.4"/>
  <ellipse cx="200" cy="530" rx="250" ry="180" fill="url(#oceanGradient)" opacity="0.3"/>

  <!-- Wave patterns -->
  <path d="M 0 400 Q 300 350 600 400 T 1200 400 L 1200 630 L 0 630 Z" fill="#1E90A0" opacity="0.08"/>
  <path d="M 0 450 Q 250 420 500 450 T 1000 450 T 1200 450 L 1200 630 L 0 630 Z" fill="#4FD1C5" opacity="0.05"/>

  <!-- Caviar roe particles -->
  <circle cx="92.17971915915606" cy="155.06064502323784" r="4.703501466066839" fill="#CFAE58" opacity="0.24322873473587323"/>
  <circle cx="687.6575654943695" cy="382.2150306737154" r="4.687719654064777" fill="#CFAE58" opacity="0.16891535987179762"/>
  <circle cx="887.623986281288" cy="88.02499751696283" r="4.149095578252185" fill="#CFAE58" opacity="0.1253637642388149"/>
  <circle cx="278.0270003997042" cy="253.11791092320797" r="4.8049969339077965" fill="#CFAE58" opacity="0.13870373233133998"/>
  <circle cx="891.9275252955292" cy="247.569245827014" r="3.9529269451955877" fill="#CFAE58" opacity="0.2002050882705474"/>
  <circle cx="791.3565869438202" cy="559.4581726204595" r="3.4709535048130795" fill="#CFAE58" opacity="0.19744978736614355"/>
  <circle cx="606.4692697022933" cy="91.46481933430299" r="5.919054684421905" fill="#CFAE58" opacity="0.10037384401157975"/>
  <circle cx="857.1464966951904" cy="214.29201182642112" r="2.664302727760066" fill="#CFAE58" opacity="0.24434796952115095"/>
  <circle cx="115.31135081449415" cy="605.820214911484" r="2.0651650030551716" fill="#CFAE58" opacity="0.20689542175319647"/>
  <circle cx="327.30173594828557" cy="481.3386009384953" r="5.067370060918168" fill="#CFAE58" opacity="0.17175657434954744"/>
  <circle cx="672.9925910021544" cy="256.94819184916815" r="3.123400032744257" fill="#CFAE58" opacity="0.21212923942302797"/>
  <circle cx="39.84917713385645" cy="471.6475213591012" r="3.2194080225710233" fill="#CFAE58" opacity="0.1982091248637064"/>
  <circle cx="247.41123168817026" cy="598.2167741062834" r="4.403394397370734" fill="#CFAE58" opacity="0.2088658182206607"/>
  <circle cx="733.4709743365999" cy="323.91223537012417" r="2.0725350887676033" fill="#CFAE58" opacity="0.2149261521493433"/>
  <circle cx="1182.512861577808" cy="183.87984606345992" r="3.102106065404998" fill="#CFAE58" opacity="0.2255215856739541"/>
  <circle cx="760.823993568326" cy="459.7697709256228" r="3.590891594632904" fill="#CFAE58" opacity="0.1625941701571338"/>
  <circle cx="1012.7717742962913" cy="467.12601626467676" r="3.011951992505124" fill="#CFAE58" opacity="0.1495166837401935"/>
  <circle cx="1188.0075804096036" cy="48.8199386714833" r="5.558355832675372" fill="#CFAE58" opacity="0.24075009825363486"/>
  <circle cx="439.0271623430364" cy="547.7488604948417" r="2.6241429537386294" fill="#CFAE58" opacity="0.22279612707939828"/>
  <circle cx="673.965951228049" cy="172.62169005239375" r="4.675730412576822" fill="#CFAE58" opacity="0.17564878026054473"/>
  <circle cx="286.84946396428757" cy="274.5099497869237" r="4.085156842708425" fill="#CFAE58" opacity="0.21881946550300285"/>
  <circle cx="263.6833861354852" cy="233.4455220823668" r="5.457552782873665" fill="#CFAE58" opacity="0.107760034035949"/>
  <circle cx="736.3066152028533" cy="302.6702222740856" r="3.8302281252930896" fill="#CFAE58" opacity="0.16775124942648673"/>
  <circle cx="1109.845006248048" cy="240.78209600500065" r="5.706995666347509" fill="#CFAE58" opacity="0.13880453362262443"/>
  <circle cx="113.57384430396245" cy="542.3322201632355" r="3.8920448968262633" fill="#CFAE58" opacity="0.16637208155765976"/>
  <circle cx="1172.4042815922671" cy="486.37448958777486" r="3.6081215615032005" fill="#CFAE58" opacity="0.23620796133134372"/>
  <circle cx="110.47734229775621" cy="461.3360546519879" r="3.5040124890422386" fill="#CFAE58" opacity="0.15692712772161374"/>
  <circle cx="428.15356525947215" cy="188.70793372832367" r="5.191661767171638" fill="#CFAE58" opacity="0.16461199997122772"/>
  <circle cx="903.609521742803" cy="120.99431311214968" r="4.311187449881736" fill="#CFAE58" opacity="0.19948359804948623"/>
  <circle cx="610.907466955984" cy="17.630097866665523" r="3.6060561606688655" fill="#CFAE58" opacity="0.18748321454122555"/>

  <!-- Border with glow -->
  <rect x="40" y="40" width="1120" height="550" fill="none" stroke="url(#goldGradient)" stroke-width="3" rx="12" filter="url(#softGlow)"/>

  <!-- Icon circle with premium background -->
  <circle cx="150" cy="200" r="75" fill="#CFAE58" opacity="0.15" filter="url(#softGlow)"/>
  <circle cx="150" cy="200" r="70" fill="#CFAE58" opacity="0.25"/>
  <text x="150" y="235" font-size="90" text-anchor="middle" fill="#CFAE58" filter="url(#glow)">🐠</text>

  <!-- Premium logo (crown) with enhanced styling -->
  <g transform="translate(100, 70)">
    <path d="M 30 20 L 40 35 L 35 35 Z M 50 15 L 60 35 L 45 35 Z M 65 20 L 75 35 L 70 35 Z M 30 35 L 75 35 L 73 45 L 32 45 Z"
          fill="url(#goldGradient)" filter="url(#glow)" stroke="#B89842" stroke-width="0.5"/>
    <circle cx="40" cy="25" r="3" fill="#4FD1C5" filter="url(#glow)"/>
    <circle cx="52" cy="20" r="4" fill="#4FD1C5" filter="url(#glow)"/>
    <circle cx="65" cy="25" r="3" fill="#4FD1C5" filter="url(#glow)"/>
  </g>

  <!-- Title with shadow -->
  <text x="280" y="180" font-family="Georgia, serif" font-size="72" font-weight="bold"
        fill="url(#goldGradient)" filter="url(#shadow)">Sturgeon &amp; Black Caviar</text>

  <!-- Subtitle with subtle glow -->
  <text x="280" y="230" font-family="Arial, sans-serif" font-size="36"
        fill="#D6DEE6" opacity="0.95" filter="url(#softGlow)">Premium Caviar Encyclopedia</text>

  <!-- Brand name with letter spacing -->
  <text x="280" y="300" font-family="Georgia, serif" font-size="32" font-weight="bold"
        fill="#CFAE58" letter-spacing="4" filter="url(#glow)">ROYAL KETA</text>

  <!-- Russian tagline -->
  <text x="280" y="340" font-family="Arial, sans-serif" font-size="22" font-style="italic"
        fill="#8B95A1" opacity="0.8">От икринки к королевской</text>

  <!-- Location -->
  <text x="280" y="380" font-family="Arial, sans-serif" font-size="20"
        fill="#8B95A1" opacity="0.7">Невельский район, Сахалин</text>

  <!-- Website with glow -->
  <text x="100" y="570" font-family="Arial, sans-serif" font-size="30" font-weight="bold"
        fill="#4FD1C5" filter="url(#glow)">royalketa.com</text>

  <!-- Enhanced decorative salmon silhouette -->
  <g transform="translate(950, 480)" opacity="0.2" filter="url(#softGlow)">
    <ellipse cx="0" cy="0" rx="90" ry="35" fill="#CFAE58"/>
    <path d="M 90 0 L 120 -18 L 130 0 L 120 18 Z" fill="#CFAE58"/>
    <path d="M -25 -35 L 0 -45 L 25 -35 Z" fill="#CFAE58"/>
    <ellipse cx="-50" cy="0" rx="15" ry="12" fill="#0B0F14"/>
  </g>

  <!-- Additional decorative caviar clusters -->
  <g opacity="0.2">
    <circle cx="1050" cy="120" r="6" fill="#CFAE58"/>
    <circle cx="1065" cy="115" r="5" fill="#CFAE58"/>
    <circle cx="1058" cy="130" r="4" fill="#CFAE58"/>
    <circle cx="150" cy="500" r="5" fill="#4FD1C5"/>
    <circle cx="165" cy="508" r="4" fill="#4FD1C5"/>
    <circle cx="140" cy="512" r="5" fill="#4FD1C5"/>
  </g>
</svg>