<svg width="1200" height="630" xmlns="http://www.w3.org/2000/svg">
  <defs>
    <linearGradient id="bgGradient" x1="0%" y1="0%" x2="100%" y2="100%">
      <stop offset="0%" style="stop-color:#0B0F14;stop-opacity:1" />
      <stop offset="50%" style="stop-color:#0F1619;stop-opacity:1" />
      <stop offset="100%" style="stop-color:#0F1922;stop-opacity:1" />
    </linearGradient>
    <linearGradient id="goldGradient" x1="0%" y1="0%" x2="100%" y2="0%">
      <stop offset="0%" style="stop-color:#E5D596;stop-opacity:1" />
      <stop offset="50%" style="stop-color:#CFAE58;stop-opacity:1" />
      <stop offset="100%" style="stop-color:#B89842;stop-opacity:1" />
    </linearGradient>
    <radialGradient id="oceanGradient" cx="50%" cy="50%" r="50%">
      <stop offset="0%" style="stop-color:#4FD1C5;stop-opacity:0.3" />
      <stop offset="100%" style="stop-color:#1E90A0;stop-opacity:0.05" />
    </radialGradient>
    <filter id="glow">
      <feGaussianBlur stdDeviation="5" result="coloredBlur"/>
      <feMerge>
        <feMergeNode in="coloredBlur"/>
        <feMergeNode in="SourceGraphic"/>
      </feMerge>
    </filter>
    <filter id="softGlow">
      <feGaussianBlur stdDeviation="8" result="coloredBlur"/>
      <feMerge>
        <feMergeNode in="coloredBlur"/>
        <feMergeNode in="SourceGraphic"/>
      </feMerge>
    </filter>
    <filter id="shadow">
      <feDropShadow dx="0" dy="4" stdDeviation="8" flood-color="#000000" flood-opacity="0.5"/>
    </filter>
  </defs>

  <!-- Background -->
  <rect width="1200" height="630" fill="url(#bgGradient)"/>

  <!-- Decorative ocean gradients -->
  <ellipse cx="1000" cy="150" rx="300" ry="200" fill="url(#oceanGradient)" opacity="0.4"/>
  <ellipse cx="200" cy="530" rx="250" ry="180" fill="url(#oceanGradient)" opacity="0.3"/>

  <!-- Wave patterns -->
  <path d="M 0 400 Q 300 350 600 400 T 1200 400 L 1200 630 L 0 630 Z" fill="#1E90A0" opacity="0.08"/>
  <path d="M 0 450 Q 250 420 500 450 T 1000 450 T 1200 450 L 1200 630 L 0 630 Z" fill="#4FD1C5" opacity="0.05"/>

  <!-- Caviar roe particles -->
  <circle cx="497.47238822797624" cy="599.9099006727417" r="5.807641227419182" fill="#CFAE58" opacity="0.24203598402322518"/>
  <circle cx="84.68614730138952" cy="104.76751915976078" r="4.438737698997064" fill="#CFAE58" opacity="0.16137321355424133"/>
  <circle cx="450.35942758933254" cy="480.9475161370046" r="3.4240336276010552" fill="#CFAE58" opacity="0.1432002631459013"/>
  <circle cx="6.443320834936994" cy="166.347377095273" r="3.693461981879895" fill="#CFAE58" opacity="0.236088397147993"/>
  <circle cx="277.7479287485832" cy="54.87615532301796" r="5.690209271621255" fill="#CFAE58" opacity="0.2032563261467632"/>
  <circle cx="1130.9780612544364" cy="58.796214239018816" r="5.275742633322829" fill="#CFAE58" opacity="0.10529362219055502"/>
  <circle cx="1037.0807678854276" cy="493.93798233803045" r="3.5704829414219184" fill="#CFAE58" opacity="0.20529265623979379"/>
  <circle cx="174.55372030948863" cy="16.195756749939413" r="3.3454940127318187" fill="#CFAE58" opacity="0.21719568245205423"/>
  <circle cx="662.2485745774561" cy="485.66524210993447" r="4.6176128081919146" fill="#CFAE58" opacity="0.22321933549213246"/>
  <circle cx="309.9462344252572" cy="516.849315548399" r="2.883111314141715" fill="#CFAE58" opacity="0.17629864351216146"/>
  <circle cx="196.80899268660008" cy="147.61183200339664" r="4.1074026019242105" fill="#CFAE58" opacity="0.22788853771556863"/>
  <circle cx="1071.743734319849" cy="36.9575611096371" r="4.62048067910997" fill="#CFAE58" opacity="0.1854747633438858"/>
  <circle cx="1145.5632818191677" cy="380.3941867007472" r="3.2070275019971" fill="#CFAE58" opacity="0.20066930328380278"/>
  <circle cx="225.92938025990392" cy="159.0509176060542" r="5.91205145940061" fill="#CFAE58" opacity="0.240299868599677"/>
  <circle cx="493.12240732291014" cy="190.7392273922225" r="5.549832238836372" fill="#CFAE58" opacity="0.16168230976608003"/>
  <circle cx="805.9084126318968" cy="613.3347662211414" r="3.1915708157878084" fill="#CFAE58" opacity="0.17724118614598494"/>
  <circle cx="1126.313102154368" cy="530.0303955007264" r="2.731322783822307" fill="#CFAE58" opacity="0.12598759834415266"/>
  <circle cx="356.05978298030215" cy="279.3498330799003" r="2.896195417602928" fill="#CFAE58" opacity="0.17526648254182914"/>
  <circle cx="935.2839224016222" cy="34.83263632102988" r="3.9285219661906536" fill="#CFAE58" opacity="0.2436631650007509"/>
  <circle cx="708.292307714748" cy="13.163507523158362" r="3.026546873049326" fill="#CFAE58" opacity="0.11299294811520504"/>
  <circle cx="650.2007766651739" cy="258.9733391395395" r="4.082938862504399" fill="#CFAE58" opacity="0.2260690134505253"/>
  <circle cx="571.8602900952809" cy="629.5536934613193" r="5.934941526451187" fill="#CFAE58" opacity="0.18007769971245524"/>
  <circle cx="24.157256459357335" cy="192.55820293527287" r="4.639397568902302" fill="#CFAE58" opacity="0.18941246557302233"/>
  <circle cx="228.6842827092226" cy="580.1537188509219" r="4.435631395481366" fill="#CFAE58" opacity="0.14502721255612105"/>
  <circle cx="498.5802755092894" cy="204.62051385282302" r="3.841056489701078" fill="#CFAE58" opacity="0.14114931305851977"/>
  <circle cx="1092.3439772126019" cy="298.4119412571998" r="5.101781529907343" fill="#CFAE58" opacity="0.14180989809828665"/>
  <circle cx="1171.925566262655" cy="615.6484324726667" r="3.0219413066419296" fill="#CFAE58" opacity="0.10744114015228251"/>
  <circle cx="103.74117267910225" cy="41.76023788861141" r="2.0624704456859533" fill="#CFAE58" opacity="0.18186106556296194"/>
  <circle cx="513.1044238257141" cy="176.39266935303334" r="3.1026398768496266" fill="#CFAE58" opacity="0.1955727869267992"/>
  <circle cx="672.4278571044717" cy="500.803477857214" r="3.0073838318574344" fill="#CFAE58" opacity="0.23265019200786516"/>

  <!-- Border with glow -->
  <rect x="40" y="40" width="1120" height="550" fill="none" stroke="url(#goldGradient)" stroke-width="3" rx="12" filter="url(#softGlow)"/>

  <!-- Icon circle with premium background -->
  <circle cx="150" cy="200" r="75" fill="#CFAE58" opacity="0.15" filter="url(#softGlow)"/>
  <circle cx="150" cy="200" r="70" fill="#CFAE58" opacity="0.25"/>
  <text x="150" y="235" font-size="90" text-anchor="middle" fill="#CFAE58" filter="url(#glow)">🐠</text>

  <!-- Premium logo (crown) with enhanced styling -->
  <g transform="translate(100, 70)">
    <path d="M 30 20 L 40 35 L 35 35 Z M 50 15 L 60 35 L 45 35 Z M 65 20 L 75 35 L 70 35 Z M 30 35 L 75 35 L 73 45 L 32 45 Z"
          fill="url(#goldGradient)" filter="url(#glow)" stroke="#B89842" stroke-width="0.5"/>
    <circle cx="40" cy="25" r="3" fill="#4FD1C5" filter="url(#glow)"/>
    <circle cx="52" cy="20" r="4" fill="#4FD1C5" filter="url(#glow)"/>
    <circle cx="65" cy="25" r="3" fill="#4FD1C5" filter="url(#glow)"/>
  </g>

  <!-- Title with shadow -->
  <text x="280" y="180" font-family="Georgia, serif" font-size="72" font-weight="bold"
        fill="url(#goldGradient)" filter="url(#shadow)">Sturgeon &amp; Black Caviar</text>

  <!-- Subtitle with subtle glow -->
  <text x="280" y="230" font-family="Arial, sans-serif" font-size="36"
        fill="#D6DEE6" opacity="0.95" filter="url(#softGlow)">Premium Caviar Encyclopedia</text>

  <!-- Brand name with letter spacing -->
  <text x="280" y="300" font-family="Georgia, serif" font-size="32" font-weight="bold"
        fill="#CFAE58" letter-spacing="4" filter="url(#glow)">ROYAL KETA</text>

  <!-- Russian tagline -->
  <text x="280" y="340" font-family="Arial, sans-serif" font-size="22" font-style="italic"
        fill="#8B95A1" opacity="0.8">От икринки к королевской</text>

  <!-- Location -->
  <text x="280" y="380" font-family="Arial, sans-serif" font-size="20"
        fill="#8B95A1" opacity="0.7">Невельский район, Сахалин</text>

  <!-- Website with glow -->
  <text x="100" y="570" font-family="Arial, sans-serif" font-size="30" font-weight="bold"
        fill="#4FD1C5" filter="url(#glow)">royalketa.com</text>

  <!-- Enhanced decorative salmon silhouette -->
  <g transform="translate(950, 480)" opacity="0.2" filter="url(#softGlow)">
    <ellipse cx="0" cy="0" rx="90" ry="35" fill="#CFAE58"/>
    <path d="M 90 0 L 120 -18 L 130 0 L 120 18 Z" fill="#CFAE58"/>
    <path d="M -25 -35 L 0 -45 L 25 -35 Z" fill="#CFAE58"/>
    <ellipse cx="-50" cy="0" rx="15" ry="12" fill="#0B0F14"/>
  </g>

  <!-- Additional decorative caviar clusters -->
  <g opacity="0.2">
    <circle cx="1050" cy="120" r="6" fill="#CFAE58"/>
    <circle cx="1065" cy="115" r="5" fill="#CFAE58"/>
    <circle cx="1058" cy="130" r="4" fill="#CFAE58"/>
    <circle cx="150" cy="500" r="5" fill="#4FD1C5"/>
    <circle cx="165" cy="508" r="4" fill="#4FD1C5"/>
    <circle cx="140" cy="512" r="5" fill="#4FD1C5"/>
  </g>
</svg>