<svg width="1200" height="630" xmlns="http://www.w3.org/2000/svg">
  <defs>
    <linearGradient id="bgGradient" x1="0%" y1="0%" x2="100%" y2="100%">
      <stop offset="0%" style="stop-color:#0B0F14;stop-opacity:1" />
      <stop offset="50%" style="stop-color:#0F1619;stop-opacity:1" />
      <stop offset="100%" style="stop-color:#0F1922;stop-opacity:1" />
    </linearGradient>
    <linearGradient id="goldGradient" x1="0%" y1="0%" x2="100%" y2="0%">
      <stop offset="0%" style="stop-color:#E5D596;stop-opacity:1" />
      <stop offset="50%" style="stop-color:#CFAE58;stop-opacity:1" />
      <stop offset="100%" style="stop-color:#B89842;stop-opacity:1" />
    </linearGradient>
    <radialGradient id="oceanGradient" cx="50%" cy="50%" r="50%">
      <stop offset="0%" style="stop-color:#4FD1C5;stop-opacity:0.3" />
      <stop offset="100%" style="stop-color:#1E90A0;stop-opacity:0.05" />
    </radialGradient>
    <filter id="glow">
      <feGaussianBlur stdDeviation="5" result="coloredBlur"/>
      <feMerge>
        <feMergeNode in="coloredBlur"/>
        <feMergeNode in="SourceGraphic"/>
      </feMerge>
    </filter>
    <filter id="softGlow">
      <feGaussianBlur stdDeviation="8" result="coloredBlur"/>
      <feMerge>
        <feMergeNode in="coloredBlur"/>
        <feMergeNode in="SourceGraphic"/>
      </feMerge>
    </filter>
    <filter id="shadow">
      <feDropShadow dx="0" dy="4" stdDeviation="8" flood-color="#000000" flood-opacity="0.5"/>
    </filter>
  </defs>

  <!-- Background -->
  <rect width="1200" height="630" fill="url(#bgGradient)"/>

  <!-- Decorative ocean gradients -->
  <ellipse cx="1000" cy="150" rx="300" ry="200" fill="url(#oceanGradient)" opacity="0.4"/>
  <ellipse cx="200" cy="530" rx="250" ry="180" fill="url(#oceanGradient)" opacity="0.3"/>

  <!-- Wave patterns -->
  <path d="M 0 400 Q 300 350 600 400 T 1200 400 L 1200 630 L 0 630 Z" fill="#1E90A0" opacity="0.08"/>
  <path d="M 0 450 Q 250 420 500 450 T 1000 450 T 1200 450 L 1200 630 L 0 630 Z" fill="#4FD1C5" opacity="0.05"/>

  <!-- Caviar roe particles -->
  <circle cx="273.5504031621938" cy="532.9843291173123" r="2.2929110237740638" fill="#CFAE58" opacity="0.1404436628683313"/>
  <circle cx="405.92665735220396" cy="619.0882195342658" r="3.435210687718055" fill="#CFAE58" opacity="0.1686479359901003"/>
  <circle cx="736.8748715654499" cy="323.5816197768827" r="5.876013708061278" fill="#CFAE58" opacity="0.1590600274262215"/>
  <circle cx="1021.0602192403006" cy="317.9591057391628" r="5.34034469194227" fill="#CFAE58" opacity="0.12222556069619776"/>
  <circle cx="695.3153217865676" cy="107.25975983563453" r="5.058640711012087" fill="#CFAE58" opacity="0.1080019753883961"/>
  <circle cx="1127.9839389716285" cy="508.1986292414937" r="2.9913044000491373" fill="#CFAE58" opacity="0.15280076274140317"/>
  <circle cx="307.9094615371366" cy="475.01011827614894" r="5.120743883896894" fill="#CFAE58" opacity="0.24974894475956294"/>
  <circle cx="928.6321153129051" cy="445.1806912504068" r="2.8434530627469945" fill="#CFAE58" opacity="0.2014583320516962"/>
  <circle cx="764.3045759676587" cy="378.43294666685784" r="2.2548442678878557" fill="#CFAE58" opacity="0.2193462358427246"/>
  <circle cx="254.41502499397853" cy="99.56919737878515" r="2.60799370865138" fill="#CFAE58" opacity="0.17522924945027274"/>
  <circle cx="161.80923210740445" cy="563.8797493678634" r="2.098064306919182" fill="#CFAE58" opacity="0.18004513541108452"/>
  <circle cx="174.6601109926129" cy="16.776602384209824" r="3.0191189696405174" fill="#CFAE58" opacity="0.23834289917361154"/>
  <circle cx="1034.1851868749573" cy="470.0203287736981" r="4.5237244439395985" fill="#CFAE58" opacity="0.21131511869631397"/>
  <circle cx="821.4100885782304" cy="229.62363669749516" r="2.9226302084964364" fill="#CFAE58" opacity="0.193093412600499"/>
  <circle cx="676.582499801541" cy="189.64223330016355" r="3.5134595586359008" fill="#CFAE58" opacity="0.196759787826695"/>
  <circle cx="193.56106633736707" cy="41.23314088944434" r="5.686836157920297" fill="#CFAE58" opacity="0.11071510157708132"/>
  <circle cx="548.0029895880225" cy="562.652827495594" r="4.629049405517277" fill="#CFAE58" opacity="0.23159687531657105"/>
  <circle cx="478.91638520839996" cy="528.8427850889062" r="4.848424446790052" fill="#CFAE58" opacity="0.22524948195238864"/>
  <circle cx="350.4884950605637" cy="531.9355517684287" r="4.530702209251842" fill="#CFAE58" opacity="0.24732218105927953"/>
  <circle cx="795.6347393688129" cy="543.2362235180871" r="4.789742364613851" fill="#CFAE58" opacity="0.17626399855001987"/>
  <circle cx="923.6386241376732" cy="323.51315297894104" r="5.424571330334409" fill="#CFAE58" opacity="0.24074267133264368"/>
  <circle cx="859.6864144165597" cy="397.55765653872896" r="5.48589696352895" fill="#CFAE58" opacity="0.15895477715207038"/>
  <circle cx="422.2407647909881" cy="293.8921954419574" r="3.070523936278537" fill="#CFAE58" opacity="0.2259122948895585"/>
  <circle cx="1.2853962287114662" cy="8.266974285147265" r="4.979025240446005" fill="#CFAE58" opacity="0.21701452394106327"/>
  <circle cx="504.78573888832227" cy="386.41113645934706" r="5.492468910644601" fill="#CFAE58" opacity="0.13229966985232944"/>
  <circle cx="1023.8246725553149" cy="328.2737572315728" r="3.598821270028946" fill="#CFAE58" opacity="0.22579285280737615"/>
  <circle cx="5.251220921268107" cy="47.31167121601762" r="4.852152177474315" fill="#CFAE58" opacity="0.16011904649187125"/>
  <circle cx="352.07356532975416" cy="579.8583063552461" r="3.1175007354569586" fill="#CFAE58" opacity="0.1361626786419693"/>
  <circle cx="755.6942733098847" cy="282.33309224237894" r="3.7425130531921917" fill="#CFAE58" opacity="0.18892162220988296"/>
  <circle cx="547.9088615491103" cy="125.14715990449416" r="5.372482094795672" fill="#CFAE58" opacity="0.12564266576512786"/>

  <!-- Border with glow -->
  <rect x="40" y="40" width="1120" height="550" fill="none" stroke="url(#goldGradient)" stroke-width="3" rx="12" filter="url(#softGlow)"/>

  <!-- Icon circle with premium background -->
  <circle cx="150" cy="200" r="75" fill="#CFAE58" opacity="0.15" filter="url(#softGlow)"/>
  <circle cx="150" cy="200" r="70" fill="#CFAE58" opacity="0.25"/>
  <text x="150" y="235" font-size="90" text-anchor="middle" fill="#CFAE58" filter="url(#glow)">🐠</text>

  <!-- Premium logo (crown) with enhanced styling -->
  <g transform="translate(100, 70)">
    <path d="M 30 20 L 40 35 L 35 35 Z M 50 15 L 60 35 L 45 35 Z M 65 20 L 75 35 L 70 35 Z M 30 35 L 75 35 L 73 45 L 32 45 Z"
          fill="url(#goldGradient)" filter="url(#glow)" stroke="#B89842" stroke-width="0.5"/>
    <circle cx="40" cy="25" r="3" fill="#4FD1C5" filter="url(#glow)"/>
    <circle cx="52" cy="20" r="4" fill="#4FD1C5" filter="url(#glow)"/>
    <circle cx="65" cy="25" r="3" fill="#4FD1C5" filter="url(#glow)"/>
  </g>

  <!-- Title with shadow -->
  <text x="280" y="180" font-family="Georgia, serif" font-size="72" font-weight="bold"
        fill="url(#goldGradient)" filter="url(#shadow)">Sturgeon &amp; Black Caviar</text>

  <!-- Subtitle with subtle glow -->
  <text x="280" y="230" font-family="Arial, sans-serif" font-size="36"
        fill="#D6DEE6" opacity="0.95" filter="url(#softGlow)">Premium Caviar Encyclopedia</text>

  <!-- Brand name with letter spacing -->
  <text x="280" y="300" font-family="Georgia, serif" font-size="32" font-weight="bold"
        fill="#CFAE58" letter-spacing="4" filter="url(#glow)">ROYAL KETA</text>

  <!-- Russian tagline -->
  <text x="280" y="340" font-family="Arial, sans-serif" font-size="22" font-style="italic"
        fill="#8B95A1" opacity="0.8">От икринки к королевской</text>

  <!-- Location -->
  <text x="280" y="380" font-family="Arial, sans-serif" font-size="20"
        fill="#8B95A1" opacity="0.7">Невельский район, Сахалин</text>

  <!-- Website with glow -->
  <text x="100" y="570" font-family="Arial, sans-serif" font-size="30" font-weight="bold"
        fill="#4FD1C5" filter="url(#glow)">royalketa.com</text>

  <!-- Enhanced decorative salmon silhouette -->
  <g transform="translate(950, 480)" opacity="0.2" filter="url(#softGlow)">
    <ellipse cx="0" cy="0" rx="90" ry="35" fill="#CFAE58"/>
    <path d="M 90 0 L 120 -18 L 130 0 L 120 18 Z" fill="#CFAE58"/>
    <path d="M -25 -35 L 0 -45 L 25 -35 Z" fill="#CFAE58"/>
    <ellipse cx="-50" cy="0" rx="15" ry="12" fill="#0B0F14"/>
  </g>

  <!-- Additional decorative caviar clusters -->
  <g opacity="0.2">
    <circle cx="1050" cy="120" r="6" fill="#CFAE58"/>
    <circle cx="1065" cy="115" r="5" fill="#CFAE58"/>
    <circle cx="1058" cy="130" r="4" fill="#CFAE58"/>
    <circle cx="150" cy="500" r="5" fill="#4FD1C5"/>
    <circle cx="165" cy="508" r="4" fill="#4FD1C5"/>
    <circle cx="140" cy="512" r="5" fill="#4FD1C5"/>
  </g>
</svg>