<svg width="1200" height="630" xmlns="http://www.w3.org/2000/svg">
  <defs>
    <linearGradient id="bgGradient" x1="0%" y1="0%" x2="100%" y2="100%">
      <stop offset="0%" style="stop-color:#0B0F14;stop-opacity:1" />
      <stop offset="50%" style="stop-color:#0F1619;stop-opacity:1" />
      <stop offset="100%" style="stop-color:#0F1922;stop-opacity:1" />
    </linearGradient>
    <linearGradient id="goldGradient" x1="0%" y1="0%" x2="100%" y2="0%">
      <stop offset="0%" style="stop-color:#E5D596;stop-opacity:1" />
      <stop offset="50%" style="stop-color:#CFAE58;stop-opacity:1" />
      <stop offset="100%" style="stop-color:#B89842;stop-opacity:1" />
    </linearGradient>
    <radialGradient id="oceanGradient" cx="50%" cy="50%" r="50%">
      <stop offset="0%" style="stop-color:#4FD1C5;stop-opacity:0.3" />
      <stop offset="100%" style="stop-color:#1E90A0;stop-opacity:0.05" />
    </radialGradient>
    <filter id="glow">
      <feGaussianBlur stdDeviation="5" result="coloredBlur"/>
      <feMerge>
        <feMergeNode in="coloredBlur"/>
        <feMergeNode in="SourceGraphic"/>
      </feMerge>
    </filter>
    <filter id="softGlow">
      <feGaussianBlur stdDeviation="8" result="coloredBlur"/>
      <feMerge>
        <feMergeNode in="coloredBlur"/>
        <feMergeNode in="SourceGraphic"/>
      </feMerge>
    </filter>
    <filter id="shadow">
      <feDropShadow dx="0" dy="4" stdDeviation="8" flood-color="#000000" flood-opacity="0.5"/>
    </filter>
  </defs>

  <!-- Background -->
  <rect width="1200" height="630" fill="url(#bgGradient)"/>

  <!-- Decorative ocean gradients -->
  <ellipse cx="1000" cy="150" rx="300" ry="200" fill="url(#oceanGradient)" opacity="0.4"/>
  <ellipse cx="200" cy="530" rx="250" ry="180" fill="url(#oceanGradient)" opacity="0.3"/>

  <!-- Wave patterns -->
  <path d="M 0 400 Q 300 350 600 400 T 1200 400 L 1200 630 L 0 630 Z" fill="#1E90A0" opacity="0.08"/>
  <path d="M 0 450 Q 250 420 500 450 T 1000 450 T 1200 450 L 1200 630 L 0 630 Z" fill="#4FD1C5" opacity="0.05"/>

  <!-- Caviar roe particles -->
  <circle cx="997.5616547571778" cy="86.69546710170091" r="4.443273268088891" fill="#CFAE58" opacity="0.15352959439018288"/>
  <circle cx="797.9087486352311" cy="515.8956623800588" r="3.2593279686033494" fill="#CFAE58" opacity="0.1259908856856595"/>
  <circle cx="74.87246276532602" cy="298.1580606479958" r="5.323547665758735" fill="#CFAE58" opacity="0.12496538509336474"/>
  <circle cx="247.9705513175766" cy="225.12811182396652" r="4.637216939281054" fill="#CFAE58" opacity="0.21382572999729338"/>
  <circle cx="334.20269661754173" cy="322.0287095620628" r="4.305609386645246" fill="#CFAE58" opacity="0.15189168373069611"/>
  <circle cx="442.4315333643264" cy="581.9849010999852" r="4.730535560977783" fill="#CFAE58" opacity="0.22611983866734173"/>
  <circle cx="236.22555189069726" cy="449.86034580594264" r="4.482348014538686" fill="#CFAE58" opacity="0.19111139835506546"/>
  <circle cx="384.07306613750364" cy="338.7506801373659" r="4.241980715115417" fill="#CFAE58" opacity="0.23964311316627518"/>
  <circle cx="1097.407514153867" cy="232.45077396038565" r="4.05701266193955" fill="#CFAE58" opacity="0.2275403264310236"/>
  <circle cx="578.7579246685743" cy="353.8276709327369" r="4.326523483420221" fill="#CFAE58" opacity="0.18942753996751893"/>
  <circle cx="1060.30067407454" cy="534.7506968197616" r="4.192327840647933" fill="#CFAE58" opacity="0.2303105928501341"/>
  <circle cx="386.278009583424" cy="601.0412866911114" r="4.309677700613563" fill="#CFAE58" opacity="0.18306711759767247"/>
  <circle cx="225.51186274213347" cy="70.35643898501176" r="4.502501749708365" fill="#CFAE58" opacity="0.22248792818582813"/>
  <circle cx="952.4111833714477" cy="212.26136422188517" r="5.273795747979301" fill="#CFAE58" opacity="0.1907260974690465"/>
  <circle cx="510.33581670243444" cy="171.7794534230154" r="3.6939083439839573" fill="#CFAE58" opacity="0.19727536251060196"/>
  <circle cx="746.659660234469" cy="119.8384516964932" r="3.58719434297691" fill="#CFAE58" opacity="0.24525369946517403"/>
  <circle cx="576.6687744108481" cy="9.041779360388782" r="5.7648537314544095" fill="#CFAE58" opacity="0.1575256151227841"/>
  <circle cx="182.80616335514557" cy="79.90764948546692" r="4.088937050131276" fill="#CFAE58" opacity="0.20091952751102557"/>
  <circle cx="50.45845097397192" cy="92.2436635080595" r="5.075306377212577" fill="#CFAE58" opacity="0.23925748551278916"/>
  <circle cx="413.55892788253345" cy="342.8190964127891" r="2.3551100600618193" fill="#CFAE58" opacity="0.17601192791271442"/>
  <circle cx="951.2627172864085" cy="253.5069166558626" r="3.002037491283767" fill="#CFAE58" opacity="0.13022779966983097"/>
  <circle cx="604.9143717060509" cy="24.681677141423833" r="2.9747208159710814" fill="#CFAE58" opacity="0.12784528331054126"/>
  <circle cx="951.635149254941" cy="66.49270162520907" r="5.259000779275376" fill="#CFAE58" opacity="0.14948531910000243"/>
  <circle cx="1096.6204299125834" cy="279.1785042776253" r="2.526200162586531" fill="#CFAE58" opacity="0.23264190014950037"/>
  <circle cx="997.6163993316835" cy="234.45930251713557" r="2.7935131664725734" fill="#CFAE58" opacity="0.15089293536750337"/>
  <circle cx="180.27037516262902" cy="216.28838976832634" r="4.302389567341146" fill="#CFAE58" opacity="0.1504435462887196"/>
  <circle cx="1082.867164711593" cy="411.6885346246149" r="2.8489925677215675" fill="#CFAE58" opacity="0.11675260459549508"/>
  <circle cx="675.122126992294" cy="109.53144239656672" r="4.435416294910402" fill="#CFAE58" opacity="0.17299620740533583"/>
  <circle cx="510.54905111351536" cy="296.7818985169378" r="5.965974766067069" fill="#CFAE58" opacity="0.10533447649669281"/>
  <circle cx="1178.5035697561343" cy="552.5639875751159" r="5.286720651632049" fill="#CFAE58" opacity="0.12709095680107313"/>

  <!-- Border with glow -->
  <rect x="40" y="40" width="1120" height="550" fill="none" stroke="url(#goldGradient)" stroke-width="3" rx="12" filter="url(#softGlow)"/>

  <!-- Icon circle with premium background -->
  <circle cx="150" cy="200" r="75" fill="#CFAE58" opacity="0.15" filter="url(#softGlow)"/>
  <circle cx="150" cy="200" r="70" fill="#CFAE58" opacity="0.25"/>
  <text x="150" y="235" font-size="90" text-anchor="middle" fill="#CFAE58" filter="url(#glow)">🐠</text>

  <!-- Premium logo (crown) with enhanced styling -->
  <g transform="translate(100, 70)">
    <path d="M 30 20 L 40 35 L 35 35 Z M 50 15 L 60 35 L 45 35 Z M 65 20 L 75 35 L 70 35 Z M 30 35 L 75 35 L 73 45 L 32 45 Z"
          fill="url(#goldGradient)" filter="url(#glow)" stroke="#B89842" stroke-width="0.5"/>
    <circle cx="40" cy="25" r="3" fill="#4FD1C5" filter="url(#glow)"/>
    <circle cx="52" cy="20" r="4" fill="#4FD1C5" filter="url(#glow)"/>
    <circle cx="65" cy="25" r="3" fill="#4FD1C5" filter="url(#glow)"/>
  </g>

  <!-- Title with shadow -->
  <text x="280" y="180" font-family="Georgia, serif" font-size="72" font-weight="bold"
        fill="url(#goldGradient)" filter="url(#shadow)">Sturgeon & Black Caviar</text>

  <!-- Subtitle with subtle glow -->
  <text x="280" y="230" font-family="Arial, sans-serif" font-size="36"
        fill="#D6DEE6" opacity="0.95" filter="url(#softGlow)">Premium Caviar Encyclopedia</text>

  <!-- Brand name with letter spacing -->
  <text x="280" y="300" font-family="Georgia, serif" font-size="32" font-weight="bold"
        fill="#CFAE58" letter-spacing="4" filter="url(#glow)">ROYAL KETA</text>

  <!-- Russian tagline -->
  <text x="280" y="340" font-family="Arial, sans-serif" font-size="22" font-style="italic"
        fill="#8B95A1" opacity="0.8">От икринки к королевской</text>

  <!-- Location -->
  <text x="280" y="380" font-family="Arial, sans-serif" font-size="20"
        fill="#8B95A1" opacity="0.7">Невельский район, Сахалин</text>

  <!-- Website with glow -->
  <text x="100" y="570" font-family="Arial, sans-serif" font-size="30" font-weight="bold"
        fill="#4FD1C5" filter="url(#glow)">royalketa.com</text>

  <!-- Enhanced decorative salmon silhouette -->
  <g transform="translate(950, 480)" opacity="0.2" filter="url(#softGlow)">
    <ellipse cx="0" cy="0" rx="90" ry="35" fill="#CFAE58"/>
    <path d="M 90 0 L 120 -18 L 130 0 L 120 18 Z" fill="#CFAE58"/>
    <path d="M -25 -35 L 0 -45 L 25 -35 Z" fill="#CFAE58"/>
    <ellipse cx="-50" cy="0" rx="15" ry="12" fill="#0B0F14"/>
  </g>

  <!-- Additional decorative caviar clusters -->
  <g opacity="0.2">
    <circle cx="1050" cy="120" r="6" fill="#CFAE58"/>
    <circle cx="1065" cy="115" r="5" fill="#CFAE58"/>
    <circle cx="1058" cy="130" r="4" fill="#CFAE58"/>
    <circle cx="150" cy="500" r="5" fill="#4FD1C5"/>
    <circle cx="165" cy="508" r="4" fill="#4FD1C5"/>
    <circle cx="140" cy="512" r="5" fill="#4FD1C5"/>
  </g>
</svg>