<svg width="1200" height="630" xmlns="http://www.w3.org/2000/svg">
  <defs>
    <linearGradient id="bgGradient" x1="0%" y1="0%" x2="100%" y2="100%">
      <stop offset="0%" style="stop-color:#0B0F14;stop-opacity:1" />
      <stop offset="50%" style="stop-color:#0F1619;stop-opacity:1" />
      <stop offset="100%" style="stop-color:#0F1922;stop-opacity:1" />
    </linearGradient>
    <linearGradient id="goldGradient" x1="0%" y1="0%" x2="100%" y2="0%">
      <stop offset="0%" style="stop-color:#E5D596;stop-opacity:1" />
      <stop offset="50%" style="stop-color:#CFAE58;stop-opacity:1" />
      <stop offset="100%" style="stop-color:#B89842;stop-opacity:1" />
    </linearGradient>
    <radialGradient id="oceanGradient" cx="50%" cy="50%" r="50%">
      <stop offset="0%" style="stop-color:#4FD1C5;stop-opacity:0.3" />
      <stop offset="100%" style="stop-color:#1E90A0;stop-opacity:0.05" />
    </radialGradient>
    <filter id="glow">
      <feGaussianBlur stdDeviation="5" result="coloredBlur"/>
      <feMerge>
        <feMergeNode in="coloredBlur"/>
        <feMergeNode in="SourceGraphic"/>
      </feMerge>
    </filter>
    <filter id="softGlow">
      <feGaussianBlur stdDeviation="8" result="coloredBlur"/>
      <feMerge>
        <feMergeNode in="coloredBlur"/>
        <feMergeNode in="SourceGraphic"/>
      </feMerge>
    </filter>
    <filter id="shadow">
      <feDropShadow dx="0" dy="4" stdDeviation="8" flood-color="#000000" flood-opacity="0.5"/>
    </filter>
  </defs>

  <!-- Background -->
  <rect width="1200" height="630" fill="url(#bgGradient)"/>

  <!-- Decorative ocean gradients -->
  <ellipse cx="1000" cy="150" rx="300" ry="200" fill="url(#oceanGradient)" opacity="0.4"/>
  <ellipse cx="200" cy="530" rx="250" ry="180" fill="url(#oceanGradient)" opacity="0.3"/>

  <!-- Wave patterns -->
  <path d="M 0 400 Q 300 350 600 400 T 1200 400 L 1200 630 L 0 630 Z" fill="#1E90A0" opacity="0.08"/>
  <path d="M 0 450 Q 250 420 500 450 T 1000 450 T 1200 450 L 1200 630 L 0 630 Z" fill="#4FD1C5" opacity="0.05"/>

  <!-- Caviar roe particles -->
  <circle cx="629.2702663219096" cy="333.9424885745945" r="5.570179413896005" fill="#CFAE58" opacity="0.12696806139677377"/>
  <circle cx="531.6518398361018" cy="540.1515620950657" r="5.650251037527589" fill="#CFAE58" opacity="0.22809795573067762"/>
  <circle cx="787.6149566957494" cy="444.6842095467252" r="2.031624374344373" fill="#CFAE58" opacity="0.2361794776422439"/>
  <circle cx="386.4361838193786" cy="93.98302964082283" r="2.002024390510045" fill="#CFAE58" opacity="0.1559702004478092"/>
  <circle cx="167.04160945038615" cy="512.5076334794413" r="4.6534463655049425" fill="#CFAE58" opacity="0.22937879525350227"/>
  <circle cx="227.97106825335445" cy="325.5309625092932" r="2.4848426205775627" fill="#CFAE58" opacity="0.12320423253255798"/>
  <circle cx="525.3015923616059" cy="97.37829636218729" r="4.254965200677196" fill="#CFAE58" opacity="0.16838845783846904"/>
  <circle cx="343.85957889567095" cy="13.214187565909421" r="4.28368276009998" fill="#CFAE58" opacity="0.22031258378455926"/>
  <circle cx="660.4342212452918" cy="304.82626959987255" r="3.7692749612222474" fill="#CFAE58" opacity="0.14055800995805526"/>
  <circle cx="544.5059181188668" cy="280.31317709372286" r="4.553973508494655" fill="#CFAE58" opacity="0.13708330862129414"/>
  <circle cx="867.3385722397437" cy="428.59737324457086" r="3.028043432002909" fill="#CFAE58" opacity="0.14260058975809609"/>
  <circle cx="416.87297610738983" cy="299.62803362390247" r="5.167548141611098" fill="#CFAE58" opacity="0.11084806262357935"/>
  <circle cx="263.4428322525079" cy="582.5044449927344" r="4.999820909443056" fill="#CFAE58" opacity="0.12627584037284498"/>
  <circle cx="349.0775369275582" cy="25.184311542199264" r="3.9024144290201326" fill="#CFAE58" opacity="0.17676816477861051"/>
  <circle cx="146.12058135522625" cy="294.35164094676287" r="4.653540017807468" fill="#CFAE58" opacity="0.24317015107444928"/>
  <circle cx="596.0626795932179" cy="491.5531371699587" r="2.700500287598332" fill="#CFAE58" opacity="0.19582263740385808"/>
  <circle cx="256.3035573475017" cy="3.53621422587897" r="4.319529361451629" fill="#CFAE58" opacity="0.1759237542207674"/>
  <circle cx="640.5208989605159" cy="65.6733463081137" r="5.649423352640238" fill="#CFAE58" opacity="0.12248542011072935"/>
  <circle cx="592.3119584136413" cy="425.10479470680457" r="3.542749256576789" fill="#CFAE58" opacity="0.17572380857824582"/>
  <circle cx="193.02474857011757" cy="491.62734808994236" r="4.209516710607567" fill="#CFAE58" opacity="0.148922457114805"/>
  <circle cx="344.1300761805175" cy="34.76983543901318" r="3.2316341578980055" fill="#CFAE58" opacity="0.17917887772111157"/>
  <circle cx="176.73810810442725" cy="4.197790796117267" r="2.0561400197271613" fill="#CFAE58" opacity="0.18228665988198323"/>
  <circle cx="930.6936674496578" cy="581.489133853102" r="3.398843503115824" fill="#CFAE58" opacity="0.21542937354111413"/>
  <circle cx="993.383117713001" cy="309.6136513912681" r="5.459558224868761" fill="#CFAE58" opacity="0.15249583673613604"/>
  <circle cx="1179.935288025048" cy="133.6874992159393" r="4.382657687352761" fill="#CFAE58" opacity="0.1918972050985582"/>
  <circle cx="560.2575945751285" cy="172.7772696882828" r="4.69053154718865" fill="#CFAE58" opacity="0.24677568193173025"/>
  <circle cx="391.7312971524433" cy="12.37288739548562" r="2.6056596941040167" fill="#CFAE58" opacity="0.1126512326992966"/>
  <circle cx="94.46685134491379" cy="579.4055280341602" r="4.629485769421212" fill="#CFAE58" opacity="0.19735039880816851"/>
  <circle cx="38.378766699075186" cy="420.0568284551808" r="2.3420742591529247" fill="#CFAE58" opacity="0.1127759635402039"/>
  <circle cx="1095.6446045550533" cy="499.29553083139547" r="3.7781097042842053" fill="#CFAE58" opacity="0.18606699401039434"/>

  <!-- Border with glow -->
  <rect x="40" y="40" width="1120" height="550" fill="none" stroke="url(#goldGradient)" stroke-width="3" rx="12" filter="url(#softGlow)"/>

  <!-- Icon circle with premium background -->
  <circle cx="150" cy="200" r="75" fill="#CFAE58" opacity="0.15" filter="url(#softGlow)"/>
  <circle cx="150" cy="200" r="70" fill="#CFAE58" opacity="0.25"/>
  <text x="150" y="235" font-size="90" text-anchor="middle" fill="#CFAE58" filter="url(#glow)">⛓️</text>

  <!-- Premium logo (crown) with enhanced styling -->
  <g transform="translate(100, 70)">
    <path d="M 30 20 L 40 35 L 35 35 Z M 50 15 L 60 35 L 45 35 Z M 65 20 L 75 35 L 70 35 Z M 30 35 L 75 35 L 73 45 L 32 45 Z"
          fill="url(#goldGradient)" filter="url(#glow)" stroke="#B89842" stroke-width="0.5"/>
    <circle cx="40" cy="25" r="3" fill="#4FD1C5" filter="url(#glow)"/>
    <circle cx="52" cy="20" r="4" fill="#4FD1C5" filter="url(#glow)"/>
    <circle cx="65" cy="25" r="3" fill="#4FD1C5" filter="url(#glow)"/>
  </g>

  <!-- Title with shadow -->
  <text x="280" y="180" font-family="Georgia, serif" font-size="72" font-weight="bold"
        fill="url(#goldGradient)" filter="url(#shadow)">Tokenization &amp; Franchise</text>

  <!-- Subtitle with subtle glow -->
  <text x="280" y="230" font-family="Arial, sans-serif" font-size="36"
        fill="#D6DEE6" opacity="0.95" filter="url(#softGlow)">Blockchain-Verified Returns</text>

  <!-- Brand name with letter spacing -->
  <text x="280" y="300" font-family="Georgia, serif" font-size="32" font-weight="bold"
        fill="#CFAE58" letter-spacing="4" filter="url(#glow)">ROYAL KETA</text>

  <!-- Russian tagline -->
  <text x="280" y="340" font-family="Arial, sans-serif" font-size="22" font-style="italic"
        fill="#8B95A1" opacity="0.8">От икринки к королевской</text>

  <!-- Location -->
  <text x="280" y="380" font-family="Arial, sans-serif" font-size="20"
        fill="#8B95A1" opacity="0.7">Невельский район, Сахалин</text>

  <!-- Website with glow -->
  <text x="100" y="570" font-family="Arial, sans-serif" font-size="30" font-weight="bold"
        fill="#4FD1C5" filter="url(#glow)">royalketa.com</text>

  <!-- Enhanced decorative salmon silhouette -->
  <g transform="translate(950, 480)" opacity="0.2" filter="url(#softGlow)">
    <ellipse cx="0" cy="0" rx="90" ry="35" fill="#CFAE58"/>
    <path d="M 90 0 L 120 -18 L 130 0 L 120 18 Z" fill="#CFAE58"/>
    <path d="M -25 -35 L 0 -45 L 25 -35 Z" fill="#CFAE58"/>
    <ellipse cx="-50" cy="0" rx="15" ry="12" fill="#0B0F14"/>
  </g>

  <!-- Additional decorative caviar clusters -->
  <g opacity="0.2">
    <circle cx="1050" cy="120" r="6" fill="#CFAE58"/>
    <circle cx="1065" cy="115" r="5" fill="#CFAE58"/>
    <circle cx="1058" cy="130" r="4" fill="#CFAE58"/>
    <circle cx="150" cy="500" r="5" fill="#4FD1C5"/>
    <circle cx="165" cy="508" r="4" fill="#4FD1C5"/>
    <circle cx="140" cy="512" r="5" fill="#4FD1C5"/>
  </g>
</svg>