<svg width="1200" height="630" xmlns="http://www.w3.org/2000/svg">
  <defs>
    <linearGradient id="bgGradient" x1="0%" y1="0%" x2="100%" y2="100%">
      <stop offset="0%" style="stop-color:#0B0F14;stop-opacity:1" />
      <stop offset="50%" style="stop-color:#0F1619;stop-opacity:1" />
      <stop offset="100%" style="stop-color:#0F1922;stop-opacity:1" />
    </linearGradient>
    <linearGradient id="goldGradient" x1="0%" y1="0%" x2="100%" y2="0%">
      <stop offset="0%" style="stop-color:#E5D596;stop-opacity:1" />
      <stop offset="50%" style="stop-color:#CFAE58;stop-opacity:1" />
      <stop offset="100%" style="stop-color:#B89842;stop-opacity:1" />
    </linearGradient>
    <radialGradient id="oceanGradient" cx="50%" cy="50%" r="50%">
      <stop offset="0%" style="stop-color:#4FD1C5;stop-opacity:0.3" />
      <stop offset="100%" style="stop-color:#1E90A0;stop-opacity:0.05" />
    </radialGradient>
    <filter id="glow">
      <feGaussianBlur stdDeviation="5" result="coloredBlur"/>
      <feMerge>
        <feMergeNode in="coloredBlur"/>
        <feMergeNode in="SourceGraphic"/>
      </feMerge>
    </filter>
    <filter id="softGlow">
      <feGaussianBlur stdDeviation="8" result="coloredBlur"/>
      <feMerge>
        <feMergeNode in="coloredBlur"/>
        <feMergeNode in="SourceGraphic"/>
      </feMerge>
    </filter>
    <filter id="shadow">
      <feDropShadow dx="0" dy="4" stdDeviation="8" flood-color="#000000" flood-opacity="0.5"/>
    </filter>
  </defs>

  <!-- Background -->
  <rect width="1200" height="630" fill="url(#bgGradient)"/>

  <!-- Decorative ocean gradients -->
  <ellipse cx="1000" cy="150" rx="300" ry="200" fill="url(#oceanGradient)" opacity="0.4"/>
  <ellipse cx="200" cy="530" rx="250" ry="180" fill="url(#oceanGradient)" opacity="0.3"/>

  <!-- Wave patterns -->
  <path d="M 0 400 Q 300 350 600 400 T 1200 400 L 1200 630 L 0 630 Z" fill="#1E90A0" opacity="0.08"/>
  <path d="M 0 450 Q 250 420 500 450 T 1000 450 T 1200 450 L 1200 630 L 0 630 Z" fill="#4FD1C5" opacity="0.05"/>

  <!-- Caviar roe particles -->
  <circle cx="344.24511069792584" cy="80.78371024180686" r="2.422961925521462" fill="#CFAE58" opacity="0.15511094446739063"/>
  <circle cx="1058.0793347119422" cy="138.47606474814984" r="3.635784002581028" fill="#CFAE58" opacity="0.1464449547017312"/>
  <circle cx="910.2845045382378" cy="619.515065231365" r="4.989598048570111" fill="#CFAE58" opacity="0.17085828008308585"/>
  <circle cx="729.04863743226" cy="338.84652172914633" r="4.810565773100395" fill="#CFAE58" opacity="0.11692602904766308"/>
  <circle cx="27.791643291412615" cy="137.6672668036318" r="2.3401547220432306" fill="#CFAE58" opacity="0.15303729423513981"/>
  <circle cx="600.8094993012255" cy="191.0005023610737" r="2.542771307842248" fill="#CFAE58" opacity="0.20574342352412905"/>
  <circle cx="440.1333036636233" cy="550.7328645862026" r="5.707941262762461" fill="#CFAE58" opacity="0.17127886939350462"/>
  <circle cx="97.4407912021416" cy="195.1192789131263" r="2.00834052829504" fill="#CFAE58" opacity="0.1558655333193718"/>
  <circle cx="106.7236355011798" cy="333.85573237783575" r="5.588967540971607" fill="#CFAE58" opacity="0.15621687010245702"/>
  <circle cx="149.58467203799933" cy="482.24127467478735" r="4.818317607534272" fill="#CFAE58" opacity="0.21753602171296932"/>
  <circle cx="206.9420443449115" cy="174.01988103766183" r="5.456595286111052" fill="#CFAE58" opacity="0.23478786034011934"/>
  <circle cx="554.5130685788421" cy="490.6613057182437" r="2.4109867427555898" fill="#CFAE58" opacity="0.1430145963284974"/>
  <circle cx="527.4557789619085" cy="263.9965538289244" r="3.211284798147849" fill="#CFAE58" opacity="0.20528949946956238"/>
  <circle cx="826.3703308040092" cy="359.1488169921728" r="4.311877105964076" fill="#CFAE58" opacity="0.16556211881447822"/>
  <circle cx="56.859532104450764" cy="85.55897831644683" r="5.183400581312691" fill="#CFAE58" opacity="0.15075556188156589"/>
  <circle cx="9.399264567886956" cy="302.6258568991902" r="2.747789068398096" fill="#CFAE58" opacity="0.23641451731907964"/>
  <circle cx="550.016169082622" cy="407.8775010567936" r="3.0697071936289255" fill="#CFAE58" opacity="0.20786121519305187"/>
  <circle cx="788.3523458447982" cy="188.0530377852868" r="4.696784155186171" fill="#CFAE58" opacity="0.1584617587182359"/>
  <circle cx="520.4308928987647" cy="496.6869848964916" r="5.036833950386362" fill="#CFAE58" opacity="0.16100795964496062"/>
  <circle cx="1126.842263041523" cy="542.1688542194523" r="2.2048955582348624" fill="#CFAE58" opacity="0.19251137911512434"/>
  <circle cx="736.6071301637356" cy="406.4680967730985" r="5.082686419170969" fill="#CFAE58" opacity="0.11629353433507915"/>
  <circle cx="830.6282667722305" cy="84.65454771342235" r="5.0548221186556015" fill="#CFAE58" opacity="0.10529703932794231"/>
  <circle cx="1032.4227460370546" cy="132.15837283766967" r="2.3885955534430243" fill="#CFAE58" opacity="0.22430093241672186"/>
  <circle cx="271.7855868995089" cy="283.98050315989707" r="5.326985177491358" fill="#CFAE58" opacity="0.21600273939178136"/>
  <circle cx="927.6612041205588" cy="464.38101939493066" r="2.6488162592561633" fill="#CFAE58" opacity="0.1132553252157574"/>
  <circle cx="1162.5840822887849" cy="499.1924857184931" r="2.2514882735294703" fill="#CFAE58" opacity="0.22548031897082704"/>
  <circle cx="719.6204631184398" cy="325.7785920969704" r="2.6156030791163607" fill="#CFAE58" opacity="0.22663466002074095"/>
  <circle cx="446.21481315270114" cy="92.59943008886073" r="5.279543719179857" fill="#CFAE58" opacity="0.1462448906147395"/>
  <circle cx="357.28909849483495" cy="541.2264447896496" r="5.173105889477183" fill="#CFAE58" opacity="0.1172106096741196"/>
  <circle cx="1057.680161245752" cy="559.5951018041166" r="4.570224595677367" fill="#CFAE58" opacity="0.13615657948095589"/>

  <!-- Border with glow -->
  <rect x="40" y="40" width="1120" height="550" fill="none" stroke="url(#goldGradient)" stroke-width="3" rx="12" filter="url(#softGlow)"/>

  <!-- Icon circle with premium background -->
  <circle cx="150" cy="200" r="75" fill="#CFAE58" opacity="0.15" filter="url(#softGlow)"/>
  <circle cx="150" cy="200" r="70" fill="#CFAE58" opacity="0.25"/>
  <text x="150" y="235" font-size="90" text-anchor="middle" fill="#CFAE58" filter="url(#glow)">⛓️</text>

  <!-- Premium logo (crown) with enhanced styling -->
  <g transform="translate(100, 70)">
    <path d="M 30 20 L 40 35 L 35 35 Z M 50 15 L 60 35 L 45 35 Z M 65 20 L 75 35 L 70 35 Z M 30 35 L 75 35 L 73 45 L 32 45 Z"
          fill="url(#goldGradient)" filter="url(#glow)" stroke="#B89842" stroke-width="0.5"/>
    <circle cx="40" cy="25" r="3" fill="#4FD1C5" filter="url(#glow)"/>
    <circle cx="52" cy="20" r="4" fill="#4FD1C5" filter="url(#glow)"/>
    <circle cx="65" cy="25" r="3" fill="#4FD1C5" filter="url(#glow)"/>
  </g>

  <!-- Title with shadow -->
  <text x="280" y="180" font-family="Georgia, serif" font-size="72" font-weight="bold"
        fill="url(#goldGradient)" filter="url(#shadow)">Tokenization & Franchise</text>

  <!-- Subtitle with subtle glow -->
  <text x="280" y="230" font-family="Arial, sans-serif" font-size="36"
        fill="#D6DEE6" opacity="0.95" filter="url(#softGlow)">Blockchain-Verified Returns</text>

  <!-- Brand name with letter spacing -->
  <text x="280" y="300" font-family="Georgia, serif" font-size="32" font-weight="bold"
        fill="#CFAE58" letter-spacing="4" filter="url(#glow)">ROYAL KETA</text>

  <!-- Russian tagline -->
  <text x="280" y="340" font-family="Arial, sans-serif" font-size="22" font-style="italic"
        fill="#8B95A1" opacity="0.8">От икринки к королевской</text>

  <!-- Location -->
  <text x="280" y="380" font-family="Arial, sans-serif" font-size="20"
        fill="#8B95A1" opacity="0.7">Невельский район, Сахалин</text>

  <!-- Website with glow -->
  <text x="100" y="570" font-family="Arial, sans-serif" font-size="30" font-weight="bold"
        fill="#4FD1C5" filter="url(#glow)">royalketa.com</text>

  <!-- Enhanced decorative salmon silhouette -->
  <g transform="translate(950, 480)" opacity="0.2" filter="url(#softGlow)">
    <ellipse cx="0" cy="0" rx="90" ry="35" fill="#CFAE58"/>
    <path d="M 90 0 L 120 -18 L 130 0 L 120 18 Z" fill="#CFAE58"/>
    <path d="M -25 -35 L 0 -45 L 25 -35 Z" fill="#CFAE58"/>
    <ellipse cx="-50" cy="0" rx="15" ry="12" fill="#0B0F14"/>
  </g>

  <!-- Additional decorative caviar clusters -->
  <g opacity="0.2">
    <circle cx="1050" cy="120" r="6" fill="#CFAE58"/>
    <circle cx="1065" cy="115" r="5" fill="#CFAE58"/>
    <circle cx="1058" cy="130" r="4" fill="#CFAE58"/>
    <circle cx="150" cy="500" r="5" fill="#4FD1C5"/>
    <circle cx="165" cy="508" r="4" fill="#4FD1C5"/>
    <circle cx="140" cy="512" r="5" fill="#4FD1C5"/>
  </g>
</svg>