<svg width="1200" height="630" xmlns="http://www.w3.org/2000/svg">
  <defs>
    <linearGradient id="bgGradient" x1="0%" y1="0%" x2="100%" y2="100%">
      <stop offset="0%" style="stop-color:#0B0F14;stop-opacity:1" />
      <stop offset="50%" style="stop-color:#0F1619;stop-opacity:1" />
      <stop offset="100%" style="stop-color:#0F1922;stop-opacity:1" />
    </linearGradient>
    <linearGradient id="goldGradient" x1="0%" y1="0%" x2="100%" y2="0%">
      <stop offset="0%" style="stop-color:#E5D596;stop-opacity:1" />
      <stop offset="50%" style="stop-color:#CFAE58;stop-opacity:1" />
      <stop offset="100%" style="stop-color:#B89842;stop-opacity:1" />
    </linearGradient>
    <radialGradient id="oceanGradient" cx="50%" cy="50%" r="50%">
      <stop offset="0%" style="stop-color:#4FD1C5;stop-opacity:0.3" />
      <stop offset="100%" style="stop-color:#1E90A0;stop-opacity:0.05" />
    </radialGradient>
    <filter id="glow">
      <feGaussianBlur stdDeviation="5" result="coloredBlur"/>
      <feMerge>
        <feMergeNode in="coloredBlur"/>
        <feMergeNode in="SourceGraphic"/>
      </feMerge>
    </filter>
    <filter id="softGlow">
      <feGaussianBlur stdDeviation="8" result="coloredBlur"/>
      <feMerge>
        <feMergeNode in="coloredBlur"/>
        <feMergeNode in="SourceGraphic"/>
      </feMerge>
    </filter>
    <filter id="shadow">
      <feDropShadow dx="0" dy="4" stdDeviation="8" flood-color="#000000" flood-opacity="0.5"/>
    </filter>
  </defs>

  <!-- Background -->
  <rect width="1200" height="630" fill="url(#bgGradient)"/>

  <!-- Decorative ocean gradients -->
  <ellipse cx="1000" cy="150" rx="300" ry="200" fill="url(#oceanGradient)" opacity="0.4"/>
  <ellipse cx="200" cy="530" rx="250" ry="180" fill="url(#oceanGradient)" opacity="0.3"/>

  <!-- Wave patterns -->
  <path d="M 0 400 Q 300 350 600 400 T 1200 400 L 1200 630 L 0 630 Z" fill="#1E90A0" opacity="0.08"/>
  <path d="M 0 450 Q 250 420 500 450 T 1000 450 T 1200 450 L 1200 630 L 0 630 Z" fill="#4FD1C5" opacity="0.05"/>

  <!-- Caviar roe particles -->
  <circle cx="369.7659645630323" cy="259.831052686777" r="3.7533847526667232" fill="#CFAE58" opacity="0.17950896532806848"/>
  <circle cx="463.72526888894765" cy="189.15720786344053" r="5.509782699059625" fill="#CFAE58" opacity="0.12670722915181307"/>
  <circle cx="831.7912796184794" cy="70.60283849589506" r="2.3508199373107574" fill="#CFAE58" opacity="0.21378759953253432"/>
  <circle cx="1130.7109088436794" cy="564.1423472383143" r="2.2477479499199804" fill="#CFAE58" opacity="0.14571243484161828"/>
  <circle cx="1190.1949503742653" cy="479.5278392580517" r="4.358005840055721" fill="#CFAE58" opacity="0.11653898861568639"/>
  <circle cx="732.6042778423173" cy="156.51306775570163" r="4.7406435249597125" fill="#CFAE58" opacity="0.19765336893072033"/>
  <circle cx="427.1779523775316" cy="564.8402129637334" r="2.6773388795408213" fill="#CFAE58" opacity="0.13740326061648986"/>
  <circle cx="367.8403408953061" cy="621.6312167039736" r="3.5876330574541635" fill="#CFAE58" opacity="0.1795062026960786"/>
  <circle cx="327.94070087528473" cy="497.57395754013515" r="4.7692161779790165" fill="#CFAE58" opacity="0.1280704855605749"/>
  <circle cx="843.0705322134478" cy="133.3320484950028" r="5.806668025144946" fill="#CFAE58" opacity="0.15265931982943762"/>
  <circle cx="1143.3098906968419" cy="141.5172039222127" r="3.4419606145230786" fill="#CFAE58" opacity="0.13225678783640693"/>
  <circle cx="215.41318075137488" cy="229.45382912323353" r="4.948717021373111" fill="#CFAE58" opacity="0.22785897672204264"/>
  <circle cx="176.8382924905219" cy="604.0731164223782" r="2.5962347814899296" fill="#CFAE58" opacity="0.16658112949214443"/>
  <circle cx="287.81539216800206" cy="390.40247175288226" r="5.428478942552154" fill="#CFAE58" opacity="0.13011579746365606"/>
  <circle cx="420.64872181336546" cy="581.9751085459885" r="2.1543286966764805" fill="#CFAE58" opacity="0.22590582730423298"/>
  <circle cx="1175.0436039692336" cy="189.14186569534075" r="5.072964405391168" fill="#CFAE58" opacity="0.2249940400803125"/>
  <circle cx="975.4048000668752" cy="202.98478659498977" r="3.4699448877826082" fill="#CFAE58" opacity="0.15074613133565454"/>
  <circle cx="63.70625782281518" cy="390.9937449793254" r="4.97742709139181" fill="#CFAE58" opacity="0.11690255231578812"/>
  <circle cx="481.4081338595358" cy="503.9726113618797" r="4.679892066820284" fill="#CFAE58" opacity="0.20834219826009745"/>
  <circle cx="687.3662720129953" cy="206.8697417741486" r="3.7244189548104005" fill="#CFAE58" opacity="0.22999695964820288"/>
  <circle cx="1159.3426135331515" cy="612.9399252867921" r="2.1021337672980884" fill="#CFAE58" opacity="0.20838757059915197"/>
  <circle cx="82.60126407851783" cy="595.8842592989872" r="4.267495845698673" fill="#CFAE58" opacity="0.14635860632222697"/>
  <circle cx="380.21958718958916" cy="136.97730452267052" r="4.069267218663238" fill="#CFAE58" opacity="0.1074245646192983"/>
  <circle cx="846.0973599579912" cy="42.84295279348282" r="3.909670292986686" fill="#CFAE58" opacity="0.12074465660030831"/>
  <circle cx="1143.8047424140007" cy="21.766610218570722" r="2.0743961186973214" fill="#CFAE58" opacity="0.1702441480921657"/>
  <circle cx="856.3978345531808" cy="77.28475294839227" r="2.3883713205462334" fill="#CFAE58" opacity="0.18238692063529888"/>
  <circle cx="19.274574947226064" cy="223.4850428690534" r="5.969435514472392" fill="#CFAE58" opacity="0.22721360608313054"/>
  <circle cx="831.3123589263554" cy="287.1601273018669" r="2.0746616147256542" fill="#CFAE58" opacity="0.21237282415119557"/>
  <circle cx="24.016248099162407" cy="383.7471940228457" r="3.8241204811403033" fill="#CFAE58" opacity="0.18563323301191892"/>
  <circle cx="268.66763222678827" cy="113.26054196223097" r="4.008598610480653" fill="#CFAE58" opacity="0.2160420073553143"/>

  <!-- Border with glow -->
  <rect x="40" y="40" width="1120" height="550" fill="none" stroke="url(#goldGradient)" stroke-width="3" rx="12" filter="url(#softGlow)"/>

  <!-- Icon circle with premium background -->
  <circle cx="150" cy="200" r="75" fill="#CFAE58" opacity="0.15" filter="url(#softGlow)"/>
  <circle cx="150" cy="200" r="70" fill="#CFAE58" opacity="0.25"/>
  <text x="150" y="235" font-size="90" text-anchor="middle" fill="#CFAE58" filter="url(#glow)">⛓️</text>

  <!-- Premium logo (crown) with enhanced styling -->
  <g transform="translate(100, 70)">
    <path d="M 30 20 L 40 35 L 35 35 Z M 50 15 L 60 35 L 45 35 Z M 65 20 L 75 35 L 70 35 Z M 30 35 L 75 35 L 73 45 L 32 45 Z"
          fill="url(#goldGradient)" filter="url(#glow)" stroke="#B89842" stroke-width="0.5"/>
    <circle cx="40" cy="25" r="3" fill="#4FD1C5" filter="url(#glow)"/>
    <circle cx="52" cy="20" r="4" fill="#4FD1C5" filter="url(#glow)"/>
    <circle cx="65" cy="25" r="3" fill="#4FD1C5" filter="url(#glow)"/>
  </g>

  <!-- Title with shadow -->
  <text x="280" y="180" font-family="Georgia, serif" font-size="72" font-weight="bold"
        fill="url(#goldGradient)" filter="url(#shadow)">Tokenization &amp; Franchise</text>

  <!-- Subtitle with subtle glow -->
  <text x="280" y="230" font-family="Arial, sans-serif" font-size="36"
        fill="#D6DEE6" opacity="0.95" filter="url(#softGlow)">Blockchain-Verified Returns</text>

  <!-- Brand name with letter spacing -->
  <text x="280" y="300" font-family="Georgia, serif" font-size="32" font-weight="bold"
        fill="#CFAE58" letter-spacing="4" filter="url(#glow)">ROYAL KETA</text>

  <!-- Russian tagline -->
  <text x="280" y="340" font-family="Arial, sans-serif" font-size="22" font-style="italic"
        fill="#8B95A1" opacity="0.8">От икринки к королевской</text>

  <!-- Location -->
  <text x="280" y="380" font-family="Arial, sans-serif" font-size="20"
        fill="#8B95A1" opacity="0.7">Невельский район, Сахалин</text>

  <!-- Website with glow -->
  <text x="100" y="570" font-family="Arial, sans-serif" font-size="30" font-weight="bold"
        fill="#4FD1C5" filter="url(#glow)">royalketa.com</text>

  <!-- Enhanced decorative salmon silhouette -->
  <g transform="translate(950, 480)" opacity="0.2" filter="url(#softGlow)">
    <ellipse cx="0" cy="0" rx="90" ry="35" fill="#CFAE58"/>
    <path d="M 90 0 L 120 -18 L 130 0 L 120 18 Z" fill="#CFAE58"/>
    <path d="M -25 -35 L 0 -45 L 25 -35 Z" fill="#CFAE58"/>
    <ellipse cx="-50" cy="0" rx="15" ry="12" fill="#0B0F14"/>
  </g>

  <!-- Additional decorative caviar clusters -->
  <g opacity="0.2">
    <circle cx="1050" cy="120" r="6" fill="#CFAE58"/>
    <circle cx="1065" cy="115" r="5" fill="#CFAE58"/>
    <circle cx="1058" cy="130" r="4" fill="#CFAE58"/>
    <circle cx="150" cy="500" r="5" fill="#4FD1C5"/>
    <circle cx="165" cy="508" r="4" fill="#4FD1C5"/>
    <circle cx="140" cy="512" r="5" fill="#4FD1C5"/>
  </g>
</svg>