<svg width="1200" height="630" xmlns="http://www.w3.org/2000/svg">
  <defs>
    <linearGradient id="bgGradient" x1="0%" y1="0%" x2="100%" y2="100%">
      <stop offset="0%" style="stop-color:#0B0F14;stop-opacity:1" />
      <stop offset="50%" style="stop-color:#0F1619;stop-opacity:1" />
      <stop offset="100%" style="stop-color:#0F1922;stop-opacity:1" />
    </linearGradient>
    <linearGradient id="goldGradient" x1="0%" y1="0%" x2="100%" y2="0%">
      <stop offset="0%" style="stop-color:#E5D596;stop-opacity:1" />
      <stop offset="50%" style="stop-color:#CFAE58;stop-opacity:1" />
      <stop offset="100%" style="stop-color:#B89842;stop-opacity:1" />
    </linearGradient>
    <radialGradient id="oceanGradient" cx="50%" cy="50%" r="50%">
      <stop offset="0%" style="stop-color:#4FD1C5;stop-opacity:0.3" />
      <stop offset="100%" style="stop-color:#1E90A0;stop-opacity:0.05" />
    </radialGradient>
    <filter id="glow">
      <feGaussianBlur stdDeviation="5" result="coloredBlur"/>
      <feMerge>
        <feMergeNode in="coloredBlur"/>
        <feMergeNode in="SourceGraphic"/>
      </feMerge>
    </filter>
    <filter id="softGlow">
      <feGaussianBlur stdDeviation="8" result="coloredBlur"/>
      <feMerge>
        <feMergeNode in="coloredBlur"/>
        <feMergeNode in="SourceGraphic"/>
      </feMerge>
    </filter>
    <filter id="shadow">
      <feDropShadow dx="0" dy="4" stdDeviation="8" flood-color="#000000" flood-opacity="0.5"/>
    </filter>
  </defs>

  <!-- Background -->
  <rect width="1200" height="630" fill="url(#bgGradient)"/>

  <!-- Decorative ocean gradients -->
  <ellipse cx="1000" cy="150" rx="300" ry="200" fill="url(#oceanGradient)" opacity="0.4"/>
  <ellipse cx="200" cy="530" rx="250" ry="180" fill="url(#oceanGradient)" opacity="0.3"/>

  <!-- Wave patterns -->
  <path d="M 0 400 Q 300 350 600 400 T 1200 400 L 1200 630 L 0 630 Z" fill="#1E90A0" opacity="0.08"/>
  <path d="M 0 450 Q 250 420 500 450 T 1000 450 T 1200 450 L 1200 630 L 0 630 Z" fill="#4FD1C5" opacity="0.05"/>

  <!-- Caviar roe particles -->
  <circle cx="46.0576454731886" cy="340.1415227765272" r="5.336279076304853" fill="#CFAE58" opacity="0.1469781946128869"/>
  <circle cx="1169.2261916285577" cy="321.54649115564035" r="2.5401379342071624" fill="#CFAE58" opacity="0.24779329942626122"/>
  <circle cx="880.8230489086752" cy="141.94148675181003" r="3.587756111931436" fill="#CFAE58" opacity="0.24339759334995575"/>
  <circle cx="129.33004500078317" cy="249.78850141359268" r="5.175911287467058" fill="#CFAE58" opacity="0.24301299491093672"/>
  <circle cx="1155.68930461897" cy="126.49857079659787" r="4.3410622183623575" fill="#CFAE58" opacity="0.14236407757095476"/>
  <circle cx="814.8181112308343" cy="235.0310013338937" r="2.0680050664275105" fill="#CFAE58" opacity="0.1932754415730013"/>
  <circle cx="946.4068397226183" cy="575.5134368114673" r="3.2112786429928275" fill="#CFAE58" opacity="0.14685919142525028"/>
  <circle cx="1099.3115773284155" cy="237.81059943901246" r="2.4115941830717826" fill="#CFAE58" opacity="0.13304465878042107"/>
  <circle cx="406.0540374419902" cy="373.35225981602053" r="5.014058593310371" fill="#CFAE58" opacity="0.18302602508711047"/>
  <circle cx="1178.1842295353129" cy="110.34815455351362" r="5.397450474790618" fill="#CFAE58" opacity="0.16841590116853944"/>
  <circle cx="269.00012142638354" cy="509.61204694493233" r="3.4676168777182985" fill="#CFAE58" opacity="0.1856840432220398"/>
  <circle cx="447.77291732765764" cy="143.3742404349079" r="2.5345369725344162" fill="#CFAE58" opacity="0.12545758246137012"/>
  <circle cx="684.2191595705126" cy="262.55786447351585" r="5.67859557301344" fill="#CFAE58" opacity="0.11331991418705535"/>
  <circle cx="592.1203871350959" cy="542.0028370628219" r="5.24126979172444" fill="#CFAE58" opacity="0.2151189417960618"/>
  <circle cx="1100.9622405341274" cy="24.703413280767542" r="5.323372461634265" fill="#CFAE58" opacity="0.10995619545749183"/>
  <circle cx="810.1753819365713" cy="347.76988169793293" r="2.4783874733507267" fill="#CFAE58" opacity="0.1261167004267305"/>
  <circle cx="103.69407761694673" cy="384.38552383498865" r="2.8765424233265353" fill="#CFAE58" opacity="0.20420298133927955"/>
  <circle cx="970.1474587746505" cy="296.0246930417193" r="2.6704204610185505" fill="#CFAE58" opacity="0.18802794995260813"/>
  <circle cx="69.61179191609057" cy="426.4224007146176" r="2.834804816072215" fill="#CFAE58" opacity="0.17359829361241727"/>
  <circle cx="810.1159416965966" cy="576.0858996047308" r="2.7114994140403663" fill="#CFAE58" opacity="0.2273471555752849"/>
  <circle cx="491.3973726578223" cy="294.3145296001711" r="3.9272629694660215" fill="#CFAE58" opacity="0.16101570238013843"/>
  <circle cx="807.0730801699157" cy="502.4932790148198" r="2.3735029548091613" fill="#CFAE58" opacity="0.24559272180852146"/>
  <circle cx="988.6867389798265" cy="94.21069641354781" r="3.383887611699361" fill="#CFAE58" opacity="0.21948845460118632"/>
  <circle cx="397.7724237291925" cy="105.54474204619552" r="4.230918856334712" fill="#CFAE58" opacity="0.16994857475637748"/>
  <circle cx="1088.362751268346" cy="399.4835186462359" r="5.702318501728655" fill="#CFAE58" opacity="0.12776696768844142"/>
  <circle cx="282.1350572429283" cy="518.9922340781178" r="4.110443312252697" fill="#CFAE58" opacity="0.18575125539266324"/>
  <circle cx="309.3871813704947" cy="241.42047859877408" r="2.7535381617535117" fill="#CFAE58" opacity="0.16849847110774724"/>
  <circle cx="290.72806547710775" cy="343.2650144680132" r="3.9946421586322027" fill="#CFAE58" opacity="0.2209707420292667"/>
  <circle cx="573.4266464778442" cy="229.05944155429287" r="3.4313261450554657" fill="#CFAE58" opacity="0.11613985502700955"/>
  <circle cx="1187.6373395157007" cy="501.3912453370583" r="3.7613641142057452" fill="#CFAE58" opacity="0.17426201294144417"/>

  <!-- Border with glow -->
  <rect x="40" y="40" width="1120" height="550" fill="none" stroke="url(#goldGradient)" stroke-width="3" rx="12" filter="url(#softGlow)"/>

  <!-- Icon circle with premium background -->
  <circle cx="150" cy="200" r="75" fill="#CFAE58" opacity="0.15" filter="url(#softGlow)"/>
  <circle cx="150" cy="200" r="70" fill="#CFAE58" opacity="0.25"/>
  <text x="150" y="235" font-size="90" text-anchor="middle" fill="#CFAE58" filter="url(#glow)">⛓️</text>

  <!-- Premium logo (crown) with enhanced styling -->
  <g transform="translate(100, 70)">
    <path d="M 30 20 L 40 35 L 35 35 Z M 50 15 L 60 35 L 45 35 Z M 65 20 L 75 35 L 70 35 Z M 30 35 L 75 35 L 73 45 L 32 45 Z"
          fill="url(#goldGradient)" filter="url(#glow)" stroke="#B89842" stroke-width="0.5"/>
    <circle cx="40" cy="25" r="3" fill="#4FD1C5" filter="url(#glow)"/>
    <circle cx="52" cy="20" r="4" fill="#4FD1C5" filter="url(#glow)"/>
    <circle cx="65" cy="25" r="3" fill="#4FD1C5" filter="url(#glow)"/>
  </g>

  <!-- Title with shadow -->
  <text x="280" y="180" font-family="Georgia, serif" font-size="72" font-weight="bold"
        fill="url(#goldGradient)" filter="url(#shadow)">Tokenization &amp; Franchise</text>

  <!-- Subtitle with subtle glow -->
  <text x="280" y="230" font-family="Arial, sans-serif" font-size="36"
        fill="#D6DEE6" opacity="0.95" filter="url(#softGlow)">Blockchain-Verified Returns</text>

  <!-- Brand name with letter spacing -->
  <text x="280" y="300" font-family="Georgia, serif" font-size="32" font-weight="bold"
        fill="#CFAE58" letter-spacing="4" filter="url(#glow)">ROYAL KETA</text>

  <!-- Russian tagline -->
  <text x="280" y="340" font-family="Arial, sans-serif" font-size="22" font-style="italic"
        fill="#8B95A1" opacity="0.8">От икринки к королевской</text>

  <!-- Location -->
  <text x="280" y="380" font-family="Arial, sans-serif" font-size="20"
        fill="#8B95A1" opacity="0.7">Невельский район, Сахалин</text>

  <!-- Website with glow -->
  <text x="100" y="570" font-family="Arial, sans-serif" font-size="30" font-weight="bold"
        fill="#4FD1C5" filter="url(#glow)">royalketa.com</text>

  <!-- Enhanced decorative salmon silhouette -->
  <g transform="translate(950, 480)" opacity="0.2" filter="url(#softGlow)">
    <ellipse cx="0" cy="0" rx="90" ry="35" fill="#CFAE58"/>
    <path d="M 90 0 L 120 -18 L 130 0 L 120 18 Z" fill="#CFAE58"/>
    <path d="M -25 -35 L 0 -45 L 25 -35 Z" fill="#CFAE58"/>
    <ellipse cx="-50" cy="0" rx="15" ry="12" fill="#0B0F14"/>
  </g>

  <!-- Additional decorative caviar clusters -->
  <g opacity="0.2">
    <circle cx="1050" cy="120" r="6" fill="#CFAE58"/>
    <circle cx="1065" cy="115" r="5" fill="#CFAE58"/>
    <circle cx="1058" cy="130" r="4" fill="#CFAE58"/>
    <circle cx="150" cy="500" r="5" fill="#4FD1C5"/>
    <circle cx="165" cy="508" r="4" fill="#4FD1C5"/>
    <circle cx="140" cy="512" r="5" fill="#4FD1C5"/>
  </g>
</svg>