<svg width="1200" height="630" xmlns="http://www.w3.org/2000/svg">
  <defs>
    <linearGradient id="bgGradient" x1="0%" y1="0%" x2="100%" y2="100%">
      <stop offset="0%" style="stop-color:#0B0F14;stop-opacity:1" />
      <stop offset="50%" style="stop-color:#0F1619;stop-opacity:1" />
      <stop offset="100%" style="stop-color:#0F1922;stop-opacity:1" />
    </linearGradient>
    <linearGradient id="goldGradient" x1="0%" y1="0%" x2="100%" y2="0%">
      <stop offset="0%" style="stop-color:#E5D596;stop-opacity:1" />
      <stop offset="50%" style="stop-color:#CFAE58;stop-opacity:1" />
      <stop offset="100%" style="stop-color:#B89842;stop-opacity:1" />
    </linearGradient>
    <radialGradient id="oceanGradient" cx="50%" cy="50%" r="50%">
      <stop offset="0%" style="stop-color:#4FD1C5;stop-opacity:0.3" />
      <stop offset="100%" style="stop-color:#1E90A0;stop-opacity:0.05" />
    </radialGradient>
    <filter id="glow">
      <feGaussianBlur stdDeviation="5" result="coloredBlur"/>
      <feMerge>
        <feMergeNode in="coloredBlur"/>
        <feMergeNode in="SourceGraphic"/>
      </feMerge>
    </filter>
    <filter id="softGlow">
      <feGaussianBlur stdDeviation="8" result="coloredBlur"/>
      <feMerge>
        <feMergeNode in="coloredBlur"/>
        <feMergeNode in="SourceGraphic"/>
      </feMerge>
    </filter>
    <filter id="shadow">
      <feDropShadow dx="0" dy="4" stdDeviation="8" flood-color="#000000" flood-opacity="0.5"/>
    </filter>
  </defs>

  <!-- Background -->
  <rect width="1200" height="630" fill="url(#bgGradient)"/>

  <!-- Decorative ocean gradients -->
  <ellipse cx="1000" cy="150" rx="300" ry="200" fill="url(#oceanGradient)" opacity="0.4"/>
  <ellipse cx="200" cy="530" rx="250" ry="180" fill="url(#oceanGradient)" opacity="0.3"/>

  <!-- Wave patterns -->
  <path d="M 0 400 Q 300 350 600 400 T 1200 400 L 1200 630 L 0 630 Z" fill="#1E90A0" opacity="0.08"/>
  <path d="M 0 450 Q 250 420 500 450 T 1000 450 T 1200 450 L 1200 630 L 0 630 Z" fill="#4FD1C5" opacity="0.05"/>

  <!-- Caviar roe particles -->
  <circle cx="565.862422823645" cy="100.30170212572008" r="2.1036426254173124" fill="#CFAE58" opacity="0.20076589921517773"/>
  <circle cx="894.2183127376809" cy="2.175406673590693" r="3.480050982201955" fill="#CFAE58" opacity="0.24037134697130008"/>
  <circle cx="579.3428123452509" cy="570.1815587014987" r="2.621738783872052" fill="#CFAE58" opacity="0.17884734768320296"/>
  <circle cx="780.1385919851054" cy="291.99692875229624" r="5.777241769165715" fill="#CFAE58" opacity="0.21879840439547682"/>
  <circle cx="380.5294153318164" cy="352.9426636238445" r="4.109500574447205" fill="#CFAE58" opacity="0.11497591858954906"/>
  <circle cx="1147.627746892775" cy="562.3822002709574" r="5.422900578509463" fill="#CFAE58" opacity="0.1483684079561392"/>
  <circle cx="992.8152112173943" cy="215.26269998300134" r="3.654477561522428" fill="#CFAE58" opacity="0.12379219685704511"/>
  <circle cx="827.1507656493039" cy="254.61848604800377" r="3.211730768083063" fill="#CFAE58" opacity="0.23900270665210516"/>
  <circle cx="728.1363821874379" cy="145.7435036108495" r="3.7959379304377148" fill="#CFAE58" opacity="0.18243202157790211"/>
  <circle cx="67.76174614376558" cy="491.7171573646538" r="3.1419250977817943" fill="#CFAE58" opacity="0.12321031083883474"/>
  <circle cx="520.3246704608392" cy="484.522215094753" r="2.3652356798004064" fill="#CFAE58" opacity="0.19139740377399728"/>
  <circle cx="122.27677174137743" cy="194.452425146906" r="4.58460566491737" fill="#CFAE58" opacity="0.11752117217221555"/>
  <circle cx="185.52126239195078" cy="357.97092686284816" r="2.1319936487648263" fill="#CFAE58" opacity="0.18116548793663145"/>
  <circle cx="458.8505583324755" cy="368.8924504894918" r="4.8491216941987885" fill="#CFAE58" opacity="0.1372875352469425"/>
  <circle cx="764.6255732870437" cy="149.8482948078834" r="5.390609396659511" fill="#CFAE58" opacity="0.21426083718686653"/>
  <circle cx="750.135574475699" cy="561.6640380401907" r="3.8822923829678797" fill="#CFAE58" opacity="0.19006757777986744"/>
  <circle cx="794.4677759354091" cy="479.60110139144115" r="5.636328464662016" fill="#CFAE58" opacity="0.18188397227038783"/>
  <circle cx="1151.6978629137393" cy="455.6853544836559" r="4.489751733380427" fill="#CFAE58" opacity="0.24510703956463678"/>
  <circle cx="980.6087101613389" cy="77.63205058329072" r="4.0188581041103575" fill="#CFAE58" opacity="0.10935911358848432"/>
  <circle cx="282.8715845474994" cy="316.5752387678181" r="2.8154208824623566" fill="#CFAE58" opacity="0.14827514711793974"/>
  <circle cx="797.5055406413655" cy="15.127690558372704" r="2.5080416435690007" fill="#CFAE58" opacity="0.15481431152441794"/>
  <circle cx="1076.8178839524662" cy="372.7460534945108" r="5.123591760459227" fill="#CFAE58" opacity="0.10413747445431472"/>
  <circle cx="781.8119143217427" cy="90.76535912550827" r="4.405459455883401" fill="#CFAE58" opacity="0.1442093663650416"/>
  <circle cx="260.11346317296716" cy="531.6423062868729" r="3.12869627640692" fill="#CFAE58" opacity="0.12520735975316358"/>
  <circle cx="930.2109211394187" cy="108.83946367723168" r="2.7730211526114292" fill="#CFAE58" opacity="0.11867529172061916"/>
  <circle cx="38.923094563949604" cy="139.88202051325624" r="2.5856275965926576" fill="#CFAE58" opacity="0.1006093820082916"/>
  <circle cx="14.904957756072035" cy="281.27143257443225" r="4.137437808666686" fill="#CFAE58" opacity="0.22577402304070476"/>
  <circle cx="903.4919672591932" cy="173.4914610221953" r="4.085883624374586" fill="#CFAE58" opacity="0.1721110591711875"/>
  <circle cx="681.2685634321426" cy="291.82549189700245" r="2.6476177250877275" fill="#CFAE58" opacity="0.14654285427199001"/>
  <circle cx="416.68528260959357" cy="539.7074310692876" r="3.7622422937058637" fill="#CFAE58" opacity="0.19931697859640457"/>

  <!-- Border with glow -->
  <rect x="40" y="40" width="1120" height="550" fill="none" stroke="url(#goldGradient)" stroke-width="3" rx="12" filter="url(#softGlow)"/>

  <!-- Icon circle with premium background -->
  <circle cx="150" cy="200" r="75" fill="#CFAE58" opacity="0.15" filter="url(#softGlow)"/>
  <circle cx="150" cy="200" r="70" fill="#CFAE58" opacity="0.25"/>
  <text x="150" y="235" font-size="90" text-anchor="middle" fill="#CFAE58" filter="url(#glow)">⛓️</text>

  <!-- Premium logo (crown) with enhanced styling -->
  <g transform="translate(100, 70)">
    <path d="M 30 20 L 40 35 L 35 35 Z M 50 15 L 60 35 L 45 35 Z M 65 20 L 75 35 L 70 35 Z M 30 35 L 75 35 L 73 45 L 32 45 Z"
          fill="url(#goldGradient)" filter="url(#glow)" stroke="#B89842" stroke-width="0.5"/>
    <circle cx="40" cy="25" r="3" fill="#4FD1C5" filter="url(#glow)"/>
    <circle cx="52" cy="20" r="4" fill="#4FD1C5" filter="url(#glow)"/>
    <circle cx="65" cy="25" r="3" fill="#4FD1C5" filter="url(#glow)"/>
  </g>

  <!-- Title with shadow -->
  <text x="280" y="180" font-family="Georgia, serif" font-size="72" font-weight="bold"
        fill="url(#goldGradient)" filter="url(#shadow)">Tokenization &amp; Franchise</text>

  <!-- Subtitle with subtle glow -->
  <text x="280" y="230" font-family="Arial, sans-serif" font-size="36"
        fill="#D6DEE6" opacity="0.95" filter="url(#softGlow)">Blockchain-Verified Returns</text>

  <!-- Brand name with letter spacing -->
  <text x="280" y="300" font-family="Georgia, serif" font-size="32" font-weight="bold"
        fill="#CFAE58" letter-spacing="4" filter="url(#glow)">ROYAL KETA</text>

  <!-- Russian tagline -->
  <text x="280" y="340" font-family="Arial, sans-serif" font-size="22" font-style="italic"
        fill="#8B95A1" opacity="0.8">От икринки к королевской</text>

  <!-- Location -->
  <text x="280" y="380" font-family="Arial, sans-serif" font-size="20"
        fill="#8B95A1" opacity="0.7">Невельский район, Сахалин</text>

  <!-- Website with glow -->
  <text x="100" y="570" font-family="Arial, sans-serif" font-size="30" font-weight="bold"
        fill="#4FD1C5" filter="url(#glow)">royalketa.com</text>

  <!-- Enhanced decorative salmon silhouette -->
  <g transform="translate(950, 480)" opacity="0.2" filter="url(#softGlow)">
    <ellipse cx="0" cy="0" rx="90" ry="35" fill="#CFAE58"/>
    <path d="M 90 0 L 120 -18 L 130 0 L 120 18 Z" fill="#CFAE58"/>
    <path d="M -25 -35 L 0 -45 L 25 -35 Z" fill="#CFAE58"/>
    <ellipse cx="-50" cy="0" rx="15" ry="12" fill="#0B0F14"/>
  </g>

  <!-- Additional decorative caviar clusters -->
  <g opacity="0.2">
    <circle cx="1050" cy="120" r="6" fill="#CFAE58"/>
    <circle cx="1065" cy="115" r="5" fill="#CFAE58"/>
    <circle cx="1058" cy="130" r="4" fill="#CFAE58"/>
    <circle cx="150" cy="500" r="5" fill="#4FD1C5"/>
    <circle cx="165" cy="508" r="4" fill="#4FD1C5"/>
    <circle cx="140" cy="512" r="5" fill="#4FD1C5"/>
  </g>
</svg>