<svg width="1200" height="630" xmlns="http://www.w3.org/2000/svg">
  <defs>
    <linearGradient id="bgGradient" x1="0%" y1="0%" x2="100%" y2="100%">
      <stop offset="0%" style="stop-color:#0B0F14;stop-opacity:1" />
      <stop offset="50%" style="stop-color:#0F1619;stop-opacity:1" />
      <stop offset="100%" style="stop-color:#0F1922;stop-opacity:1" />
    </linearGradient>
    <linearGradient id="goldGradient" x1="0%" y1="0%" x2="100%" y2="0%">
      <stop offset="0%" style="stop-color:#E5D596;stop-opacity:1" />
      <stop offset="50%" style="stop-color:#CFAE58;stop-opacity:1" />
      <stop offset="100%" style="stop-color:#B89842;stop-opacity:1" />
    </linearGradient>
    <radialGradient id="oceanGradient" cx="50%" cy="50%" r="50%">
      <stop offset="0%" style="stop-color:#4FD1C5;stop-opacity:0.3" />
      <stop offset="100%" style="stop-color:#1E90A0;stop-opacity:0.05" />
    </radialGradient>
    <filter id="glow">
      <feGaussianBlur stdDeviation="5" result="coloredBlur"/>
      <feMerge>
        <feMergeNode in="coloredBlur"/>
        <feMergeNode in="SourceGraphic"/>
      </feMerge>
    </filter>
    <filter id="softGlow">
      <feGaussianBlur stdDeviation="8" result="coloredBlur"/>
      <feMerge>
        <feMergeNode in="coloredBlur"/>
        <feMergeNode in="SourceGraphic"/>
      </feMerge>
    </filter>
    <filter id="shadow">
      <feDropShadow dx="0" dy="4" stdDeviation="8" flood-color="#000000" flood-opacity="0.5"/>
    </filter>
  </defs>

  <!-- Background -->
  <rect width="1200" height="630" fill="url(#bgGradient)"/>

  <!-- Decorative ocean gradients -->
  <ellipse cx="1000" cy="150" rx="300" ry="200" fill="url(#oceanGradient)" opacity="0.4"/>
  <ellipse cx="200" cy="530" rx="250" ry="180" fill="url(#oceanGradient)" opacity="0.3"/>

  <!-- Wave patterns -->
  <path d="M 0 400 Q 300 350 600 400 T 1200 400 L 1200 630 L 0 630 Z" fill="#1E90A0" opacity="0.08"/>
  <path d="M 0 450 Q 250 420 500 450 T 1000 450 T 1200 450 L 1200 630 L 0 630 Z" fill="#4FD1C5" opacity="0.05"/>

  <!-- Caviar roe particles -->
  <circle cx="330.95281643495537" cy="209.91064651875845" r="3.134485414812139" fill="#CFAE58" opacity="0.23661847633745736"/>
  <circle cx="32.16357050303262" cy="308.1135787020457" r="4.988672622781224" fill="#CFAE58" opacity="0.17784999506489485"/>
  <circle cx="202.08836525537305" cy="470.7684565428319" r="5.173121629773923" fill="#CFAE58" opacity="0.1385088362198391"/>
  <circle cx="329.99479293416726" cy="147.99602837947728" r="5.4895823692216235" fill="#CFAE58" opacity="0.1658111555841546"/>
  <circle cx="307.00849507681613" cy="262.7334935937092" r="4.825118838712102" fill="#CFAE58" opacity="0.18606526196918222"/>
  <circle cx="962.0130898920472" cy="275.44146521391133" r="3.149262389834094" fill="#CFAE58" opacity="0.11954346945744795"/>
  <circle cx="993.6255070457104" cy="167.5959205242815" r="3.8033637488919165" fill="#CFAE58" opacity="0.24726936455006474"/>
  <circle cx="763.9602423323662" cy="236.18023223563333" r="2.097387304946017" fill="#CFAE58" opacity="0.2419239343112689"/>
  <circle cx="387.7581097404159" cy="182.0439546744868" r="2.358665015007352" fill="#CFAE58" opacity="0.1926567450992754"/>
  <circle cx="257.4054827437634" cy="500.190758105697" r="2.6121339099773566" fill="#CFAE58" opacity="0.18161349420971665"/>
  <circle cx="310.2790339201838" cy="452.52430072503125" r="2.432962861658134" fill="#CFAE58" opacity="0.13339261854995899"/>
  <circle cx="457.68946572334113" cy="334.0207360410954" r="5.085694378977857" fill="#CFAE58" opacity="0.1064699403334816"/>
  <circle cx="889.0434912616998" cy="628.1546940603894" r="5.264188561602967" fill="#CFAE58" opacity="0.14593256799025683"/>
  <circle cx="206.46553478967303" cy="370.9408131255954" r="2.0354322063821684" fill="#CFAE58" opacity="0.20026786177484007"/>
  <circle cx="515.4939319786422" cy="281.5100341117571" r="2.97621924039076" fill="#CFAE58" opacity="0.22412103934636043"/>
  <circle cx="617.658724497408" cy="52.7248252646057" r="3.9220137254656278" fill="#CFAE58" opacity="0.21272020363658065"/>
  <circle cx="419.0418552769024" cy="419.7388609458788" r="2.060701340496837" fill="#CFAE58" opacity="0.19307945163773826"/>
  <circle cx="477.7964075149789" cy="176.95113476224427" r="2.0420156134721266" fill="#CFAE58" opacity="0.18035075304549442"/>
  <circle cx="472.9143527042928" cy="215.74769958880213" r="2.0828715376959916" fill="#CFAE58" opacity="0.12086285549388961"/>
  <circle cx="524.4703225104399" cy="223.56350132017238" r="4.637496288807513" fill="#CFAE58" opacity="0.1535807489460979"/>
  <circle cx="807.2230872876255" cy="79.51933137170046" r="3.9195308512786013" fill="#CFAE58" opacity="0.10581855760454145"/>
  <circle cx="361.8404735028831" cy="227.98369649020768" r="5.625287043992653" fill="#CFAE58" opacity="0.18471773519704004"/>
  <circle cx="940.897706239946" cy="1.13068430697995" r="4.587621415673408" fill="#CFAE58" opacity="0.16614203749188522"/>
  <circle cx="518.2214833617703" cy="563.9443896240631" r="4.566814511808422" fill="#CFAE58" opacity="0.20110137932218164"/>
  <circle cx="1116.1072113592695" cy="311.2726378373346" r="5.739953754915216" fill="#CFAE58" opacity="0.12586501964941588"/>
  <circle cx="310.73091097694476" cy="531.339727230763" r="5.464311734000944" fill="#CFAE58" opacity="0.19056086359666563"/>
  <circle cx="757.9007471929334" cy="331.36850224181813" r="3.9615170257214922" fill="#CFAE58" opacity="0.11462234658115118"/>
  <circle cx="735.3469813062436" cy="239.26247760414685" r="5.484134739458073" fill="#CFAE58" opacity="0.11874757932270202"/>
  <circle cx="957.674796866163" cy="473.4750531693042" r="3.169320238744051" fill="#CFAE58" opacity="0.1181652888912667"/>
  <circle cx="66.15820292121812" cy="547.2885132586755" r="4.865021897727897" fill="#CFAE58" opacity="0.1353887319579655"/>

  <!-- Border with glow -->
  <rect x="40" y="40" width="1120" height="550" fill="none" stroke="url(#goldGradient)" stroke-width="3" rx="12" filter="url(#softGlow)"/>

  <!-- Icon circle with premium background -->
  <circle cx="150" cy="200" r="75" fill="#CFAE58" opacity="0.15" filter="url(#softGlow)"/>
  <circle cx="150" cy="200" r="70" fill="#CFAE58" opacity="0.25"/>
  <text x="150" y="235" font-size="90" text-anchor="middle" fill="#CFAE58" filter="url(#glow)">⛓️</text>

  <!-- Premium logo (crown) with enhanced styling -->
  <g transform="translate(100, 70)">
    <path d="M 30 20 L 40 35 L 35 35 Z M 50 15 L 60 35 L 45 35 Z M 65 20 L 75 35 L 70 35 Z M 30 35 L 75 35 L 73 45 L 32 45 Z"
          fill="url(#goldGradient)" filter="url(#glow)" stroke="#B89842" stroke-width="0.5"/>
    <circle cx="40" cy="25" r="3" fill="#4FD1C5" filter="url(#glow)"/>
    <circle cx="52" cy="20" r="4" fill="#4FD1C5" filter="url(#glow)"/>
    <circle cx="65" cy="25" r="3" fill="#4FD1C5" filter="url(#glow)"/>
  </g>

  <!-- Title with shadow -->
  <text x="280" y="180" font-family="Georgia, serif" font-size="72" font-weight="bold"
        fill="url(#goldGradient)" filter="url(#shadow)">Tokenization & Franchise</text>

  <!-- Subtitle with subtle glow -->
  <text x="280" y="230" font-family="Arial, sans-serif" font-size="36"
        fill="#D6DEE6" opacity="0.95" filter="url(#softGlow)">Blockchain-Verified Returns</text>

  <!-- Brand name with letter spacing -->
  <text x="280" y="300" font-family="Georgia, serif" font-size="32" font-weight="bold"
        fill="#CFAE58" letter-spacing="4" filter="url(#glow)">ROYAL KETA</text>

  <!-- Russian tagline -->
  <text x="280" y="340" font-family="Arial, sans-serif" font-size="22" font-style="italic"
        fill="#8B95A1" opacity="0.8">От икринки к королевской</text>

  <!-- Location -->
  <text x="280" y="380" font-family="Arial, sans-serif" font-size="20"
        fill="#8B95A1" opacity="0.7">Невельский район, Сахалин</text>

  <!-- Website with glow -->
  <text x="100" y="570" font-family="Arial, sans-serif" font-size="30" font-weight="bold"
        fill="#4FD1C5" filter="url(#glow)">royalketa.com</text>

  <!-- Enhanced decorative salmon silhouette -->
  <g transform="translate(950, 480)" opacity="0.2" filter="url(#softGlow)">
    <ellipse cx="0" cy="0" rx="90" ry="35" fill="#CFAE58"/>
    <path d="M 90 0 L 120 -18 L 130 0 L 120 18 Z" fill="#CFAE58"/>
    <path d="M -25 -35 L 0 -45 L 25 -35 Z" fill="#CFAE58"/>
    <ellipse cx="-50" cy="0" rx="15" ry="12" fill="#0B0F14"/>
  </g>

  <!-- Additional decorative caviar clusters -->
  <g opacity="0.2">
    <circle cx="1050" cy="120" r="6" fill="#CFAE58"/>
    <circle cx="1065" cy="115" r="5" fill="#CFAE58"/>
    <circle cx="1058" cy="130" r="4" fill="#CFAE58"/>
    <circle cx="150" cy="500" r="5" fill="#4FD1C5"/>
    <circle cx="165" cy="508" r="4" fill="#4FD1C5"/>
    <circle cx="140" cy="512" r="5" fill="#4FD1C5"/>
  </g>
</svg>