<svg width="1200" height="630" xmlns="http://www.w3.org/2000/svg">
  <defs>
    <linearGradient id="bgGradient" x1="0%" y1="0%" x2="100%" y2="100%">
      <stop offset="0%" style="stop-color:#0B0F14;stop-opacity:1" />
      <stop offset="50%" style="stop-color:#0F1619;stop-opacity:1" />
      <stop offset="100%" style="stop-color:#0F1922;stop-opacity:1" />
    </linearGradient>
    <linearGradient id="goldGradient" x1="0%" y1="0%" x2="100%" y2="0%">
      <stop offset="0%" style="stop-color:#E5D596;stop-opacity:1" />
      <stop offset="50%" style="stop-color:#CFAE58;stop-opacity:1" />
      <stop offset="100%" style="stop-color:#B89842;stop-opacity:1" />
    </linearGradient>
    <radialGradient id="oceanGradient" cx="50%" cy="50%" r="50%">
      <stop offset="0%" style="stop-color:#4FD1C5;stop-opacity:0.3" />
      <stop offset="100%" style="stop-color:#1E90A0;stop-opacity:0.05" />
    </radialGradient>
    <filter id="glow">
      <feGaussianBlur stdDeviation="5" result="coloredBlur"/>
      <feMerge>
        <feMergeNode in="coloredBlur"/>
        <feMergeNode in="SourceGraphic"/>
      </feMerge>
    </filter>
    <filter id="softGlow">
      <feGaussianBlur stdDeviation="8" result="coloredBlur"/>
      <feMerge>
        <feMergeNode in="coloredBlur"/>
        <feMergeNode in="SourceGraphic"/>
      </feMerge>
    </filter>
    <filter id="shadow">
      <feDropShadow dx="0" dy="4" stdDeviation="8" flood-color="#000000" flood-opacity="0.5"/>
    </filter>
  </defs>

  <!-- Background -->
  <rect width="1200" height="630" fill="url(#bgGradient)"/>

  <!-- Decorative ocean gradients -->
  <ellipse cx="1000" cy="150" rx="300" ry="200" fill="url(#oceanGradient)" opacity="0.4"/>
  <ellipse cx="200" cy="530" rx="250" ry="180" fill="url(#oceanGradient)" opacity="0.3"/>

  <!-- Wave patterns -->
  <path d="M 0 400 Q 300 350 600 400 T 1200 400 L 1200 630 L 0 630 Z" fill="#1E90A0" opacity="0.08"/>
  <path d="M 0 450 Q 250 420 500 450 T 1000 450 T 1200 450 L 1200 630 L 0 630 Z" fill="#4FD1C5" opacity="0.05"/>

  <!-- Caviar roe particles -->
  <circle cx="508.5249210092731" cy="559.2604345221472" r="5.6166793858473945" fill="#CFAE58" opacity="0.1960076807013618"/>
  <circle cx="549.5317259355843" cy="53.81917124879104" r="2.501503588616261" fill="#CFAE58" opacity="0.11093257941066487"/>
  <circle cx="700.2072795190843" cy="114.43777401341922" r="5.023908366268275" fill="#CFAE58" opacity="0.17023969764621733"/>
  <circle cx="792.3634704746362" cy="618.1997827513316" r="4.287623763707495" fill="#CFAE58" opacity="0.1404946715746367"/>
  <circle cx="180.7863156657751" cy="587.4073025669546" r="5.676687306598426" fill="#CFAE58" opacity="0.17920292337616878"/>
  <circle cx="215.4008754908814" cy="57.42045360241636" r="3.718622847191739" fill="#CFAE58" opacity="0.10327824050492082"/>
  <circle cx="651.6847927426708" cy="152.935361257537" r="3.2153029309437153" fill="#CFAE58" opacity="0.2095998665968603"/>
  <circle cx="20.057479971235324" cy="138.27171244485967" r="2.9484910981020906" fill="#CFAE58" opacity="0.1489383579548337"/>
  <circle cx="1146.491948316288" cy="145.0595746677449" r="5.017187147384027" fill="#CFAE58" opacity="0.13371513055526954"/>
  <circle cx="429.4004397669078" cy="99.2631915541981" r="2.735924416849301" fill="#CFAE58" opacity="0.11873281770667286"/>
  <circle cx="806.8394296536561" cy="436.7050596254833" r="3.891841121539765" fill="#CFAE58" opacity="0.17899783803440175"/>
  <circle cx="260.86532347147806" cy="556.9648998528662" r="5.023600139582637" fill="#CFAE58" opacity="0.1925963236373386"/>
  <circle cx="22.482255459107137" cy="523.8161423405614" r="5.01191428456986" fill="#CFAE58" opacity="0.12859066981974876"/>
  <circle cx="1192.2280391904605" cy="233.93773177358702" r="4.703275703554585" fill="#CFAE58" opacity="0.17038580548326757"/>
  <circle cx="409.67724450695056" cy="442.1459050428625" r="3.6832392503707583" fill="#CFAE58" opacity="0.18480331809271672"/>
  <circle cx="323.8709081461365" cy="175.9282352107153" r="4.536511242830564" fill="#CFAE58" opacity="0.20895013861726253"/>
  <circle cx="118.46966904383294" cy="436.4209251408226" r="3.1337222468458137" fill="#CFAE58" opacity="0.11229200827425256"/>
  <circle cx="84.69776719527475" cy="531.0122149907838" r="4.581842603015819" fill="#CFAE58" opacity="0.14108769071028926"/>
  <circle cx="14.50250757891558" cy="427.1756496839038" r="3.347143159676152" fill="#CFAE58" opacity="0.22716762665656948"/>
  <circle cx="622.5166864387918" cy="349.9359418916181" r="5.758373727023215" fill="#CFAE58" opacity="0.20829577639744634"/>
  <circle cx="732.5892202972552" cy="201.91834948533037" r="2.22238433453043" fill="#CFAE58" opacity="0.14535794379431977"/>
  <circle cx="102.53224440944027" cy="615.8995248094988" r="2.0818142493269476" fill="#CFAE58" opacity="0.24463987417778899"/>
  <circle cx="728.9502250357501" cy="622.799802433461" r="5.59967541870536" fill="#CFAE58" opacity="0.22182834441277283"/>
  <circle cx="1010.2201927668968" cy="429.19857836228266" r="5.8893697281574555" fill="#CFAE58" opacity="0.23116562729771817"/>
  <circle cx="614.3575631786258" cy="24.85197945368777" r="4.666531629169672" fill="#CFAE58" opacity="0.17260773522025358"/>
  <circle cx="471.590382149891" cy="186.92530608162636" r="4.899619383713323" fill="#CFAE58" opacity="0.10751672974104742"/>
  <circle cx="576.980793469027" cy="203.94616013650372" r="2.8336320455665147" fill="#CFAE58" opacity="0.11075105298277661"/>
  <circle cx="964.9364830085049" cy="596.1314812406583" r="2.79552986670286" fill="#CFAE58" opacity="0.13487189975599614"/>
  <circle cx="833.0249865694794" cy="505.1539308802644" r="5.653563300390221" fill="#CFAE58" opacity="0.10342112415861378"/>
  <circle cx="1035.4734693964733" cy="548.8502723320007" r="4.7721045958669155" fill="#CFAE58" opacity="0.17866307330591658"/>

  <!-- Border with glow -->
  <rect x="40" y="40" width="1120" height="550" fill="none" stroke="url(#goldGradient)" stroke-width="3" rx="12" filter="url(#softGlow)"/>

  <!-- Icon circle with premium background -->
  <circle cx="150" cy="200" r="75" fill="#CFAE58" opacity="0.15" filter="url(#softGlow)"/>
  <circle cx="150" cy="200" r="70" fill="#CFAE58" opacity="0.25"/>
  <text x="150" y="235" font-size="90" text-anchor="middle" fill="#CFAE58" filter="url(#glow)">⛓️</text>

  <!-- Premium logo (crown) with enhanced styling -->
  <g transform="translate(100, 70)">
    <path d="M 30 20 L 40 35 L 35 35 Z M 50 15 L 60 35 L 45 35 Z M 65 20 L 75 35 L 70 35 Z M 30 35 L 75 35 L 73 45 L 32 45 Z"
          fill="url(#goldGradient)" filter="url(#glow)" stroke="#B89842" stroke-width="0.5"/>
    <circle cx="40" cy="25" r="3" fill="#4FD1C5" filter="url(#glow)"/>
    <circle cx="52" cy="20" r="4" fill="#4FD1C5" filter="url(#glow)"/>
    <circle cx="65" cy="25" r="3" fill="#4FD1C5" filter="url(#glow)"/>
  </g>

  <!-- Title with shadow -->
  <text x="280" y="180" font-family="Georgia, serif" font-size="72" font-weight="bold"
        fill="url(#goldGradient)" filter="url(#shadow)">Tokenization &amp; Franchise</text>

  <!-- Subtitle with subtle glow -->
  <text x="280" y="230" font-family="Arial, sans-serif" font-size="36"
        fill="#D6DEE6" opacity="0.95" filter="url(#softGlow)">Blockchain-Verified Returns</text>

  <!-- Brand name with letter spacing -->
  <text x="280" y="300" font-family="Georgia, serif" font-size="32" font-weight="bold"
        fill="#CFAE58" letter-spacing="4" filter="url(#glow)">ROYAL KETA</text>

  <!-- Russian tagline -->
  <text x="280" y="340" font-family="Arial, sans-serif" font-size="22" font-style="italic"
        fill="#8B95A1" opacity="0.8">От икринки к королевской</text>

  <!-- Location -->
  <text x="280" y="380" font-family="Arial, sans-serif" font-size="20"
        fill="#8B95A1" opacity="0.7">Невельский район, Сахалин</text>

  <!-- Website with glow -->
  <text x="100" y="570" font-family="Arial, sans-serif" font-size="30" font-weight="bold"
        fill="#4FD1C5" filter="url(#glow)">royalketa.com</text>

  <!-- Enhanced decorative salmon silhouette -->
  <g transform="translate(950, 480)" opacity="0.2" filter="url(#softGlow)">
    <ellipse cx="0" cy="0" rx="90" ry="35" fill="#CFAE58"/>
    <path d="M 90 0 L 120 -18 L 130 0 L 120 18 Z" fill="#CFAE58"/>
    <path d="M -25 -35 L 0 -45 L 25 -35 Z" fill="#CFAE58"/>
    <ellipse cx="-50" cy="0" rx="15" ry="12" fill="#0B0F14"/>
  </g>

  <!-- Additional decorative caviar clusters -->
  <g opacity="0.2">
    <circle cx="1050" cy="120" r="6" fill="#CFAE58"/>
    <circle cx="1065" cy="115" r="5" fill="#CFAE58"/>
    <circle cx="1058" cy="130" r="4" fill="#CFAE58"/>
    <circle cx="150" cy="500" r="5" fill="#4FD1C5"/>
    <circle cx="165" cy="508" r="4" fill="#4FD1C5"/>
    <circle cx="140" cy="512" r="5" fill="#4FD1C5"/>
  </g>
</svg>