<svg width="1200" height="630" xmlns="http://www.w3.org/2000/svg">
  <defs>
    <linearGradient id="bgGradient" x1="0%" y1="0%" x2="100%" y2="100%">
      <stop offset="0%" style="stop-color:#0B0F14;stop-opacity:1" />
      <stop offset="50%" style="stop-color:#0F1619;stop-opacity:1" />
      <stop offset="100%" style="stop-color:#0F1922;stop-opacity:1" />
    </linearGradient>
    <linearGradient id="goldGradient" x1="0%" y1="0%" x2="100%" y2="0%">
      <stop offset="0%" style="stop-color:#E5D596;stop-opacity:1" />
      <stop offset="50%" style="stop-color:#CFAE58;stop-opacity:1" />
      <stop offset="100%" style="stop-color:#B89842;stop-opacity:1" />
    </linearGradient>
    <radialGradient id="oceanGradient" cx="50%" cy="50%" r="50%">
      <stop offset="0%" style="stop-color:#4FD1C5;stop-opacity:0.3" />
      <stop offset="100%" style="stop-color:#1E90A0;stop-opacity:0.05" />
    </radialGradient>
    <filter id="glow">
      <feGaussianBlur stdDeviation="5" result="coloredBlur"/>
      <feMerge>
        <feMergeNode in="coloredBlur"/>
        <feMergeNode in="SourceGraphic"/>
      </feMerge>
    </filter>
    <filter id="softGlow">
      <feGaussianBlur stdDeviation="8" result="coloredBlur"/>
      <feMerge>
        <feMergeNode in="coloredBlur"/>
        <feMergeNode in="SourceGraphic"/>
      </feMerge>
    </filter>
    <filter id="shadow">
      <feDropShadow dx="0" dy="4" stdDeviation="8" flood-color="#000000" flood-opacity="0.5"/>
    </filter>
  </defs>

  <!-- Background -->
  <rect width="1200" height="630" fill="url(#bgGradient)"/>

  <!-- Decorative ocean gradients -->
  <ellipse cx="1000" cy="150" rx="300" ry="200" fill="url(#oceanGradient)" opacity="0.4"/>
  <ellipse cx="200" cy="530" rx="250" ry="180" fill="url(#oceanGradient)" opacity="0.3"/>

  <!-- Wave patterns -->
  <path d="M 0 400 Q 300 350 600 400 T 1200 400 L 1200 630 L 0 630 Z" fill="#1E90A0" opacity="0.08"/>
  <path d="M 0 450 Q 250 420 500 450 T 1000 450 T 1200 450 L 1200 630 L 0 630 Z" fill="#4FD1C5" opacity="0.05"/>

  <!-- Caviar roe particles -->
  <circle cx="1102.4114490095455" cy="156.468185652505" r="3.2938735605297946" fill="#CFAE58" opacity="0.16868486574749655"/>
  <circle cx="1195.9381838301006" cy="161.30449425781953" r="3.3626751482927" fill="#CFAE58" opacity="0.19458473416636904"/>
  <circle cx="309.11274682902797" cy="328.93720615645003" r="2.3574384799601384" fill="#CFAE58" opacity="0.12537957523710444"/>
  <circle cx="72.65713635316366" cy="187.16856695171504" r="4.5807470803015535" fill="#CFAE58" opacity="0.11652464194397143"/>
  <circle cx="736.183282032626" cy="546.0007832756401" r="3.1160392905407726" fill="#CFAE58" opacity="0.10044345146339508"/>
  <circle cx="341.2832822931501" cy="533.2866556865912" r="2.593355040095342" fill="#CFAE58" opacity="0.11082668187026161"/>
  <circle cx="921.1978839842393" cy="361.6401478602032" r="5.047338287242876" fill="#CFAE58" opacity="0.21552350368779144"/>
  <circle cx="597.9113781647113" cy="85.86909946152505" r="2.804856506959073" fill="#CFAE58" opacity="0.19622674659083922"/>
  <circle cx="639.689558637478" cy="540.1395044718547" r="5.0236041891130085" fill="#CFAE58" opacity="0.11669383690545936"/>
  <circle cx="170.85384962320626" cy="235.81504054153234" r="5.745267667010461" fill="#CFAE58" opacity="0.21383018694917236"/>
  <circle cx="729.5802415744655" cy="588.6701682170403" r="2.157777545110271" fill="#CFAE58" opacity="0.23005034128674753"/>
  <circle cx="783.1834947667487" cy="502.1000218449742" r="3.2551151425622677" fill="#CFAE58" opacity="0.13432667228075815"/>
  <circle cx="387.82470997989657" cy="39.58314250634375" r="2.9870016528505277" fill="#CFAE58" opacity="0.15802596743851788"/>
  <circle cx="212.80638349747275" cy="31.468446736381726" r="5.803016101556553" fill="#CFAE58" opacity="0.17290289726406105"/>
  <circle cx="142.1369888067553" cy="570.5969523805579" r="3.0496910710380583" fill="#CFAE58" opacity="0.20639642002561392"/>
  <circle cx="152.63712452813988" cy="51.73492491330322" r="3.175026652679736" fill="#CFAE58" opacity="0.22533690118253902"/>
  <circle cx="373.4368540967841" cy="498.05508103168427" r="5.767683723775725" fill="#CFAE58" opacity="0.2440186704418298"/>
  <circle cx="1049.214914762847" cy="201.28238853816924" r="5.9638473758281725" fill="#CFAE58" opacity="0.16346488745486554"/>
  <circle cx="28.611172677460583" cy="337.8727863610533" r="4.882410152182133" fill="#CFAE58" opacity="0.1675908313884416"/>
  <circle cx="1124.2374149857808" cy="108.7396484250185" r="5.125746272429262" fill="#CFAE58" opacity="0.21770078852522912"/>
  <circle cx="672.3444786908749" cy="494.9108101002476" r="3.808633904360061" fill="#CFAE58" opacity="0.21103401237457792"/>
  <circle cx="504.4279067614043" cy="615.9420728583077" r="3.650456414475917" fill="#CFAE58" opacity="0.1525702200584005"/>
  <circle cx="395.1622569913697" cy="77.48371310417016" r="3.3875646963469794" fill="#CFAE58" opacity="0.1765078443897724"/>
  <circle cx="970.0314160549954" cy="415.5774441848876" r="3.615762236110892" fill="#CFAE58" opacity="0.22236414770993795"/>
  <circle cx="676.5023454658797" cy="315.9392803565007" r="3.2272078371107478" fill="#CFAE58" opacity="0.24129856078426157"/>
  <circle cx="35.41127003570929" cy="177.38777749712858" r="2.8800704326280657" fill="#CFAE58" opacity="0.16348427730535012"/>
  <circle cx="627.6006410427399" cy="297.88080581908264" r="3.946139574789548" fill="#CFAE58" opacity="0.12096466689288138"/>
  <circle cx="851.0474563213039" cy="421.29024282543463" r="5.68493793421934" fill="#CFAE58" opacity="0.12408733512197867"/>
  <circle cx="1112.1673372893727" cy="514.2244924163584" r="4.331838921727631" fill="#CFAE58" opacity="0.1892379677051103"/>
  <circle cx="972.486985862019" cy="161.41679356164306" r="5.367808985377294" fill="#CFAE58" opacity="0.22190661919761023"/>

  <!-- Border with glow -->
  <rect x="40" y="40" width="1120" height="550" fill="none" stroke="url(#goldGradient)" stroke-width="3" rx="12" filter="url(#softGlow)"/>

  <!-- Icon circle with premium background -->
  <circle cx="150" cy="200" r="75" fill="#CFAE58" opacity="0.15" filter="url(#softGlow)"/>
  <circle cx="150" cy="200" r="70" fill="#CFAE58" opacity="0.25"/>
  <text x="150" y="235" font-size="90" text-anchor="middle" fill="#CFAE58" filter="url(#glow)">⛓️</text>

  <!-- Premium logo (crown) with enhanced styling -->
  <g transform="translate(100, 70)">
    <path d="M 30 20 L 40 35 L 35 35 Z M 50 15 L 60 35 L 45 35 Z M 65 20 L 75 35 L 70 35 Z M 30 35 L 75 35 L 73 45 L 32 45 Z"
          fill="url(#goldGradient)" filter="url(#glow)" stroke="#B89842" stroke-width="0.5"/>
    <circle cx="40" cy="25" r="3" fill="#4FD1C5" filter="url(#glow)"/>
    <circle cx="52" cy="20" r="4" fill="#4FD1C5" filter="url(#glow)"/>
    <circle cx="65" cy="25" r="3" fill="#4FD1C5" filter="url(#glow)"/>
  </g>

  <!-- Title with shadow -->
  <text x="280" y="180" font-family="Georgia, serif" font-size="72" font-weight="bold"
        fill="url(#goldGradient)" filter="url(#shadow)">Tokenization &amp; Franchise</text>

  <!-- Subtitle with subtle glow -->
  <text x="280" y="230" font-family="Arial, sans-serif" font-size="36"
        fill="#D6DEE6" opacity="0.95" filter="url(#softGlow)">Blockchain-Verified Returns</text>

  <!-- Brand name with letter spacing -->
  <text x="280" y="300" font-family="Georgia, serif" font-size="32" font-weight="bold"
        fill="#CFAE58" letter-spacing="4" filter="url(#glow)">ROYAL KETA</text>

  <!-- Russian tagline -->
  <text x="280" y="340" font-family="Arial, sans-serif" font-size="22" font-style="italic"
        fill="#8B95A1" opacity="0.8">От икринки к королевской</text>

  <!-- Location -->
  <text x="280" y="380" font-family="Arial, sans-serif" font-size="20"
        fill="#8B95A1" opacity="0.7">Невельский район, Сахалин</text>

  <!-- Website with glow -->
  <text x="100" y="570" font-family="Arial, sans-serif" font-size="30" font-weight="bold"
        fill="#4FD1C5" filter="url(#glow)">royalketa.com</text>

  <!-- Enhanced decorative salmon silhouette -->
  <g transform="translate(950, 480)" opacity="0.2" filter="url(#softGlow)">
    <ellipse cx="0" cy="0" rx="90" ry="35" fill="#CFAE58"/>
    <path d="M 90 0 L 120 -18 L 130 0 L 120 18 Z" fill="#CFAE58"/>
    <path d="M -25 -35 L 0 -45 L 25 -35 Z" fill="#CFAE58"/>
    <ellipse cx="-50" cy="0" rx="15" ry="12" fill="#0B0F14"/>
  </g>

  <!-- Additional decorative caviar clusters -->
  <g opacity="0.2">
    <circle cx="1050" cy="120" r="6" fill="#CFAE58"/>
    <circle cx="1065" cy="115" r="5" fill="#CFAE58"/>
    <circle cx="1058" cy="130" r="4" fill="#CFAE58"/>
    <circle cx="150" cy="500" r="5" fill="#4FD1C5"/>
    <circle cx="165" cy="508" r="4" fill="#4FD1C5"/>
    <circle cx="140" cy="512" r="5" fill="#4FD1C5"/>
  </g>
</svg>