<svg width="1200" height="630" xmlns="http://www.w3.org/2000/svg">
  <defs>
    <linearGradient id="bgGradient" x1="0%" y1="0%" x2="100%" y2="100%">
      <stop offset="0%" style="stop-color:#0B0F14;stop-opacity:1" />
      <stop offset="50%" style="stop-color:#0F1619;stop-opacity:1" />
      <stop offset="100%" style="stop-color:#0F1922;stop-opacity:1" />
    </linearGradient>
    <linearGradient id="goldGradient" x1="0%" y1="0%" x2="100%" y2="0%">
      <stop offset="0%" style="stop-color:#E5D596;stop-opacity:1" />
      <stop offset="50%" style="stop-color:#CFAE58;stop-opacity:1" />
      <stop offset="100%" style="stop-color:#B89842;stop-opacity:1" />
    </linearGradient>
    <radialGradient id="oceanGradient" cx="50%" cy="50%" r="50%">
      <stop offset="0%" style="stop-color:#4FD1C5;stop-opacity:0.3" />
      <stop offset="100%" style="stop-color:#1E90A0;stop-opacity:0.05" />
    </radialGradient>
    <filter id="glow">
      <feGaussianBlur stdDeviation="5" result="coloredBlur"/>
      <feMerge>
        <feMergeNode in="coloredBlur"/>
        <feMergeNode in="SourceGraphic"/>
      </feMerge>
    </filter>
    <filter id="softGlow">
      <feGaussianBlur stdDeviation="8" result="coloredBlur"/>
      <feMerge>
        <feMergeNode in="coloredBlur"/>
        <feMergeNode in="SourceGraphic"/>
      </feMerge>
    </filter>
    <filter id="shadow">
      <feDropShadow dx="0" dy="4" stdDeviation="8" flood-color="#000000" flood-opacity="0.5"/>
    </filter>
  </defs>

  <!-- Background -->
  <rect width="1200" height="630" fill="url(#bgGradient)"/>

  <!-- Decorative ocean gradients -->
  <ellipse cx="1000" cy="150" rx="300" ry="200" fill="url(#oceanGradient)" opacity="0.4"/>
  <ellipse cx="200" cy="530" rx="250" ry="180" fill="url(#oceanGradient)" opacity="0.3"/>

  <!-- Wave patterns -->
  <path d="M 0 400 Q 300 350 600 400 T 1200 400 L 1200 630 L 0 630 Z" fill="#1E90A0" opacity="0.08"/>
  <path d="M 0 450 Q 250 420 500 450 T 1000 450 T 1200 450 L 1200 630 L 0 630 Z" fill="#4FD1C5" opacity="0.05"/>

  <!-- Caviar roe particles -->
  <circle cx="513.0709198096127" cy="240.73061702765844" r="4.932323796774126" fill="#CFAE58" opacity="0.10926919283751967"/>
  <circle cx="264.66558652956456" cy="359.5024773806484" r="2.357917183161994" fill="#CFAE58" opacity="0.14713989192783558"/>
  <circle cx="1114.7776607181827" cy="19.12113651362337" r="5.225754805652212" fill="#CFAE58" opacity="0.2403596070292383"/>
  <circle cx="1196.3846497797945" cy="545.4564028600392" r="5.15275522200274" fill="#CFAE58" opacity="0.14634408993768167"/>
  <circle cx="622.6076614381278" cy="135.90671449863552" r="4.873388774800846" fill="#CFAE58" opacity="0.24894506029798788"/>
  <circle cx="847.4055273830445" cy="19.320124379170892" r="2.3744590969950434" fill="#CFAE58" opacity="0.14829405413032354"/>
  <circle cx="753.5666793778676" cy="588.5696211613688" r="5.920188764201194" fill="#CFAE58" opacity="0.19107883377544244"/>
  <circle cx="616.4831947899474" cy="618.0373180750838" r="4.741135999162729" fill="#CFAE58" opacity="0.22516742063390544"/>
  <circle cx="355.8822429405964" cy="233.4201436228648" r="5.044494554244032" fill="#CFAE58" opacity="0.13357230983388463"/>
  <circle cx="602.0572877791423" cy="473.35124000666826" r="4.524367752774534" fill="#CFAE58" opacity="0.10561429990432579"/>
  <circle cx="865.9615044057425" cy="504.41167958396255" r="5.127195709220592" fill="#CFAE58" opacity="0.24715903997055566"/>
  <circle cx="670.3678228095292" cy="571.8465036264649" r="2.47406219140024" fill="#CFAE58" opacity="0.17084848686749493"/>
  <circle cx="550.9065735527986" cy="622.5602560682679" r="5.694836327840607" fill="#CFAE58" opacity="0.10857311101669263"/>
  <circle cx="148.5035405311496" cy="466.3367419683403" r="2.4667505008398107" fill="#CFAE58" opacity="0.1229105805783023"/>
  <circle cx="819.8383682195258" cy="345.68609280696427" r="4.6396925643680715" fill="#CFAE58" opacity="0.23689229133279238"/>
  <circle cx="496.8591440555113" cy="480.5622035410753" r="3.248189399685044" fill="#CFAE58" opacity="0.16937424503922105"/>
  <circle cx="13.051018472332698" cy="53.231620652780684" r="5.998509840211591" fill="#CFAE58" opacity="0.19824199028699274"/>
  <circle cx="168.82831842832275" cy="15.425133652027249" r="2.631471652848767" fill="#CFAE58" opacity="0.22025689280659766"/>
  <circle cx="65.41513091356074" cy="530.4387578064709" r="5.427375795595223" fill="#CFAE58" opacity="0.12905826996620395"/>
  <circle cx="406.52700464496326" cy="461.1231103137847" r="2.8818997548093437" fill="#CFAE58" opacity="0.11704886467442747"/>
  <circle cx="121.09597739039111" cy="47.867749742908856" r="3.8803875204049487" fill="#CFAE58" opacity="0.2219656896113323"/>
  <circle cx="599.6522200698865" cy="198.33107452872298" r="5.136185124146328" fill="#CFAE58" opacity="0.19285571619508002"/>
  <circle cx="1160.0321719694514" cy="432.19462141971553" r="3.504381285295804" fill="#CFAE58" opacity="0.10276943077662212"/>
  <circle cx="713.4168130143312" cy="577.6122118218112" r="5.0734590109783255" fill="#CFAE58" opacity="0.12463641195011738"/>
  <circle cx="556.1224356896076" cy="155.91034841158015" r="2.724187567132611" fill="#CFAE58" opacity="0.15624530271115103"/>
  <circle cx="132.26930065603395" cy="336.9332551855251" r="5.97481461379453" fill="#CFAE58" opacity="0.16555370865957006"/>
  <circle cx="987.4552017770776" cy="204.96023342210097" r="2.1235473268414586" fill="#CFAE58" opacity="0.1125770436024944"/>
  <circle cx="115.50336455714057" cy="117.86861231410319" r="4.26179249491897" fill="#CFAE58" opacity="0.1522626083869562"/>
  <circle cx="782.1342135770865" cy="619.3642271191989" r="5.951115432488821" fill="#CFAE58" opacity="0.1064939328752276"/>
  <circle cx="171.473239755725" cy="379.0567513368967" r="3.1613774090610685" fill="#CFAE58" opacity="0.1034514636048965"/>

  <!-- Border with glow -->
  <rect x="40" y="40" width="1120" height="550" fill="none" stroke="url(#goldGradient)" stroke-width="3" rx="12" filter="url(#softGlow)"/>

  <!-- Icon circle with premium background -->
  <circle cx="150" cy="200" r="75" fill="#CFAE58" opacity="0.15" filter="url(#softGlow)"/>
  <circle cx="150" cy="200" r="70" fill="#CFAE58" opacity="0.25"/>
  <text x="150" y="235" font-size="90" text-anchor="middle" fill="#CFAE58" filter="url(#glow)">⛓️</text>

  <!-- Premium logo (crown) with enhanced styling -->
  <g transform="translate(100, 70)">
    <path d="M 30 20 L 40 35 L 35 35 Z M 50 15 L 60 35 L 45 35 Z M 65 20 L 75 35 L 70 35 Z M 30 35 L 75 35 L 73 45 L 32 45 Z"
          fill="url(#goldGradient)" filter="url(#glow)" stroke="#B89842" stroke-width="0.5"/>
    <circle cx="40" cy="25" r="3" fill="#4FD1C5" filter="url(#glow)"/>
    <circle cx="52" cy="20" r="4" fill="#4FD1C5" filter="url(#glow)"/>
    <circle cx="65" cy="25" r="3" fill="#4FD1C5" filter="url(#glow)"/>
  </g>

  <!-- Title with shadow -->
  <text x="280" y="180" font-family="Georgia, serif" font-size="72" font-weight="bold"
        fill="url(#goldGradient)" filter="url(#shadow)">Tokenization &amp; Franchise</text>

  <!-- Subtitle with subtle glow -->
  <text x="280" y="230" font-family="Arial, sans-serif" font-size="36"
        fill="#D6DEE6" opacity="0.95" filter="url(#softGlow)">Blockchain-Verified Returns</text>

  <!-- Brand name with letter spacing -->
  <text x="280" y="300" font-family="Georgia, serif" font-size="32" font-weight="bold"
        fill="#CFAE58" letter-spacing="4" filter="url(#glow)">ROYAL KETA</text>

  <!-- Russian tagline -->
  <text x="280" y="340" font-family="Arial, sans-serif" font-size="22" font-style="italic"
        fill="#8B95A1" opacity="0.8">От икринки к королевской</text>

  <!-- Location -->
  <text x="280" y="380" font-family="Arial, sans-serif" font-size="20"
        fill="#8B95A1" opacity="0.7">Невельский район, Сахалин</text>

  <!-- Website with glow -->
  <text x="100" y="570" font-family="Arial, sans-serif" font-size="30" font-weight="bold"
        fill="#4FD1C5" filter="url(#glow)">royalketa.com</text>

  <!-- Enhanced decorative salmon silhouette -->
  <g transform="translate(950, 480)" opacity="0.2" filter="url(#softGlow)">
    <ellipse cx="0" cy="0" rx="90" ry="35" fill="#CFAE58"/>
    <path d="M 90 0 L 120 -18 L 130 0 L 120 18 Z" fill="#CFAE58"/>
    <path d="M -25 -35 L 0 -45 L 25 -35 Z" fill="#CFAE58"/>
    <ellipse cx="-50" cy="0" rx="15" ry="12" fill="#0B0F14"/>
  </g>

  <!-- Additional decorative caviar clusters -->
  <g opacity="0.2">
    <circle cx="1050" cy="120" r="6" fill="#CFAE58"/>
    <circle cx="1065" cy="115" r="5" fill="#CFAE58"/>
    <circle cx="1058" cy="130" r="4" fill="#CFAE58"/>
    <circle cx="150" cy="500" r="5" fill="#4FD1C5"/>
    <circle cx="165" cy="508" r="4" fill="#4FD1C5"/>
    <circle cx="140" cy="512" r="5" fill="#4FD1C5"/>
  </g>
</svg>