<svg width="1200" height="630" xmlns="http://www.w3.org/2000/svg">
  <defs>
    <linearGradient id="bgGradient" x1="0%" y1="0%" x2="100%" y2="100%">
      <stop offset="0%" style="stop-color:#0B0F14;stop-opacity:1" />
      <stop offset="50%" style="stop-color:#0F1619;stop-opacity:1" />
      <stop offset="100%" style="stop-color:#0F1922;stop-opacity:1" />
    </linearGradient>
    <linearGradient id="goldGradient" x1="0%" y1="0%" x2="100%" y2="0%">
      <stop offset="0%" style="stop-color:#E5D596;stop-opacity:1" />
      <stop offset="50%" style="stop-color:#CFAE58;stop-opacity:1" />
      <stop offset="100%" style="stop-color:#B89842;stop-opacity:1" />
    </linearGradient>
    <radialGradient id="oceanGradient" cx="50%" cy="50%" r="50%">
      <stop offset="0%" style="stop-color:#4FD1C5;stop-opacity:0.3" />
      <stop offset="100%" style="stop-color:#1E90A0;stop-opacity:0.05" />
    </radialGradient>
    <filter id="glow">
      <feGaussianBlur stdDeviation="5" result="coloredBlur"/>
      <feMerge>
        <feMergeNode in="coloredBlur"/>
        <feMergeNode in="SourceGraphic"/>
      </feMerge>
    </filter>
    <filter id="softGlow">
      <feGaussianBlur stdDeviation="8" result="coloredBlur"/>
      <feMerge>
        <feMergeNode in="coloredBlur"/>
        <feMergeNode in="SourceGraphic"/>
      </feMerge>
    </filter>
    <filter id="shadow">
      <feDropShadow dx="0" dy="4" stdDeviation="8" flood-color="#000000" flood-opacity="0.5"/>
    </filter>
  </defs>

  <!-- Background -->
  <rect width="1200" height="630" fill="url(#bgGradient)"/>

  <!-- Decorative ocean gradients -->
  <ellipse cx="1000" cy="150" rx="300" ry="200" fill="url(#oceanGradient)" opacity="0.4"/>
  <ellipse cx="200" cy="530" rx="250" ry="180" fill="url(#oceanGradient)" opacity="0.3"/>

  <!-- Wave patterns -->
  <path d="M 0 400 Q 300 350 600 400 T 1200 400 L 1200 630 L 0 630 Z" fill="#1E90A0" opacity="0.08"/>
  <path d="M 0 450 Q 250 420 500 450 T 1000 450 T 1200 450 L 1200 630 L 0 630 Z" fill="#4FD1C5" opacity="0.05"/>

  <!-- Caviar roe particles -->
  <circle cx="757.1028603653642" cy="365.21527891128386" r="3.428031173538477" fill="#CFAE58" opacity="0.20349064764654545"/>
  <circle cx="153.40988072853511" cy="140.62353681519525" r="2.7597409058491373" fill="#CFAE58" opacity="0.15897409486001987"/>
  <circle cx="949.9904565012545" cy="459.518125172443" r="5.1787427577880365" fill="#CFAE58" opacity="0.17548415556813"/>
  <circle cx="275.1100218350147" cy="308.2115269465935" r="4.278375071224022" fill="#CFAE58" opacity="0.2126209886407041"/>
  <circle cx="553.5211309478495" cy="549.5241903602815" r="4.912303483540203" fill="#CFAE58" opacity="0.23464359349321806"/>
  <circle cx="299.1327348013445" cy="184.5752366893808" r="3.9707341397923286" fill="#CFAE58" opacity="0.2432024911935559"/>
  <circle cx="967.4998664080363" cy="233.89829023631145" r="2.765359225849057" fill="#CFAE58" opacity="0.10031767074088332"/>
  <circle cx="482.4662215695841" cy="171.1047861926538" r="4.934203432201812" fill="#CFAE58" opacity="0.14175614219053584"/>
  <circle cx="187.9222627431352" cy="74.09244166054282" r="4.692084599806307" fill="#CFAE58" opacity="0.2288721039166866"/>
  <circle cx="27.077500422395584" cy="127.72083345130739" r="2.2410942191414254" fill="#CFAE58" opacity="0.11893641554160564"/>
  <circle cx="222.69666380065695" cy="77.77287480109324" r="5.616155072052664" fill="#CFAE58" opacity="0.19382517958308793"/>
  <circle cx="508.8793045385623" cy="529.8622773407466" r="5.3029090922953905" fill="#CFAE58" opacity="0.21470221485501492"/>
  <circle cx="909.4134554097246" cy="193.95971948780334" r="4.725726192123574" fill="#CFAE58" opacity="0.2428806497352552"/>
  <circle cx="812.8166113809078" cy="302.0866977953343" r="4.868329704193076" fill="#CFAE58" opacity="0.10049901252143086"/>
  <circle cx="1124.8581428211562" cy="221.8120974816216" r="4.445940571489912" fill="#CFAE58" opacity="0.1712240889074947"/>
  <circle cx="597.3842530278931" cy="160.59947449492677" r="3.7877122393890135" fill="#CFAE58" opacity="0.23220320026481456"/>
  <circle cx="699.499229493366" cy="47.54836504857309" r="2.7265070231266186" fill="#CFAE58" opacity="0.1426322184923655"/>
  <circle cx="716.1656847922446" cy="406.4223454420934" r="3.0569512812291806" fill="#CFAE58" opacity="0.20239261893531174"/>
  <circle cx="61.11615323893491" cy="274.93269601424544" r="5.025144880913625" fill="#CFAE58" opacity="0.15831173902787055"/>
  <circle cx="653.7715189561391" cy="126.54308085479668" r="4.461298535742675" fill="#CFAE58" opacity="0.11179500931012624"/>
  <circle cx="504.79558226455345" cy="228.1392355555829" r="2.9045157710159524" fill="#CFAE58" opacity="0.12666656287615696"/>
  <circle cx="307.28421244239235" cy="613.373845476424" r="3.3400158536471802" fill="#CFAE58" opacity="0.10948995478505724"/>
  <circle cx="1126.500994132657" cy="590.761389783339" r="2.5690866191008315" fill="#CFAE58" opacity="0.19405722838515665"/>
  <circle cx="489.6609197972436" cy="497.1316811142928" r="3.418953405024727" fill="#CFAE58" opacity="0.11166427456028943"/>
  <circle cx="455.45213077411034" cy="489.21975291612864" r="2.1947315550982487" fill="#CFAE58" opacity="0.23810140125320892"/>
  <circle cx="673.1210814978633" cy="113.54238178963142" r="2.3276074925524304" fill="#CFAE58" opacity="0.24722092311707128"/>
  <circle cx="955.356045632374" cy="565.9634053500217" r="2.275766491100615" fill="#CFAE58" opacity="0.2490074581983021"/>
  <circle cx="956.6662989528984" cy="456.86781579301066" r="2.7678419437074573" fill="#CFAE58" opacity="0.21045115357294475"/>
  <circle cx="909.8838774931764" cy="480.94165414246527" r="2.2476954733706815" fill="#CFAE58" opacity="0.1916166481284296"/>
  <circle cx="1096.4710919603108" cy="604.1871554219963" r="4.369542382291141" fill="#CFAE58" opacity="0.10553433452739962"/>

  <!-- Border with glow -->
  <rect x="40" y="40" width="1120" height="550" fill="none" stroke="url(#goldGradient)" stroke-width="3" rx="12" filter="url(#softGlow)"/>

  <!-- Icon circle with premium background -->
  <circle cx="150" cy="200" r="75" fill="#CFAE58" opacity="0.15" filter="url(#softGlow)"/>
  <circle cx="150" cy="200" r="70" fill="#CFAE58" opacity="0.25"/>
  <text x="150" y="235" font-size="90" text-anchor="middle" fill="#CFAE58" filter="url(#glow)">⛓️</text>

  <!-- Premium logo (crown) with enhanced styling -->
  <g transform="translate(100, 70)">
    <path d="M 30 20 L 40 35 L 35 35 Z M 50 15 L 60 35 L 45 35 Z M 65 20 L 75 35 L 70 35 Z M 30 35 L 75 35 L 73 45 L 32 45 Z"
          fill="url(#goldGradient)" filter="url(#glow)" stroke="#B89842" stroke-width="0.5"/>
    <circle cx="40" cy="25" r="3" fill="#4FD1C5" filter="url(#glow)"/>
    <circle cx="52" cy="20" r="4" fill="#4FD1C5" filter="url(#glow)"/>
    <circle cx="65" cy="25" r="3" fill="#4FD1C5" filter="url(#glow)"/>
  </g>

  <!-- Title with shadow -->
  <text x="280" y="180" font-family="Georgia, serif" font-size="72" font-weight="bold"
        fill="url(#goldGradient)" filter="url(#shadow)">Tokenization &amp; Franchise</text>

  <!-- Subtitle with subtle glow -->
  <text x="280" y="230" font-family="Arial, sans-serif" font-size="36"
        fill="#D6DEE6" opacity="0.95" filter="url(#softGlow)">Blockchain-Verified Returns</text>

  <!-- Brand name with letter spacing -->
  <text x="280" y="300" font-family="Georgia, serif" font-size="32" font-weight="bold"
        fill="#CFAE58" letter-spacing="4" filter="url(#glow)">ROYAL KETA</text>

  <!-- Russian tagline -->
  <text x="280" y="340" font-family="Arial, sans-serif" font-size="22" font-style="italic"
        fill="#8B95A1" opacity="0.8">От икринки к королевской</text>

  <!-- Location -->
  <text x="280" y="380" font-family="Arial, sans-serif" font-size="20"
        fill="#8B95A1" opacity="0.7">Невельский район, Сахалин</text>

  <!-- Website with glow -->
  <text x="100" y="570" font-family="Arial, sans-serif" font-size="30" font-weight="bold"
        fill="#4FD1C5" filter="url(#glow)">royalketa.com</text>

  <!-- Enhanced decorative salmon silhouette -->
  <g transform="translate(950, 480)" opacity="0.2" filter="url(#softGlow)">
    <ellipse cx="0" cy="0" rx="90" ry="35" fill="#CFAE58"/>
    <path d="M 90 0 L 120 -18 L 130 0 L 120 18 Z" fill="#CFAE58"/>
    <path d="M -25 -35 L 0 -45 L 25 -35 Z" fill="#CFAE58"/>
    <ellipse cx="-50" cy="0" rx="15" ry="12" fill="#0B0F14"/>
  </g>

  <!-- Additional decorative caviar clusters -->
  <g opacity="0.2">
    <circle cx="1050" cy="120" r="6" fill="#CFAE58"/>
    <circle cx="1065" cy="115" r="5" fill="#CFAE58"/>
    <circle cx="1058" cy="130" r="4" fill="#CFAE58"/>
    <circle cx="150" cy="500" r="5" fill="#4FD1C5"/>
    <circle cx="165" cy="508" r="4" fill="#4FD1C5"/>
    <circle cx="140" cy="512" r="5" fill="#4FD1C5"/>
  </g>
</svg>