<svg width="1200" height="630" xmlns="http://www.w3.org/2000/svg">
  <defs>
    <linearGradient id="bgGradient" x1="0%" y1="0%" x2="100%" y2="100%">
      <stop offset="0%" style="stop-color:#0B0F14;stop-opacity:1" />
      <stop offset="50%" style="stop-color:#0F1619;stop-opacity:1" />
      <stop offset="100%" style="stop-color:#0F1922;stop-opacity:1" />
    </linearGradient>
    <linearGradient id="goldGradient" x1="0%" y1="0%" x2="100%" y2="0%">
      <stop offset="0%" style="stop-color:#E5D596;stop-opacity:1" />
      <stop offset="50%" style="stop-color:#CFAE58;stop-opacity:1" />
      <stop offset="100%" style="stop-color:#B89842;stop-opacity:1" />
    </linearGradient>
    <radialGradient id="oceanGradient" cx="50%" cy="50%" r="50%">
      <stop offset="0%" style="stop-color:#4FD1C5;stop-opacity:0.3" />
      <stop offset="100%" style="stop-color:#1E90A0;stop-opacity:0.05" />
    </radialGradient>
    <filter id="glow">
      <feGaussianBlur stdDeviation="5" result="coloredBlur"/>
      <feMerge>
        <feMergeNode in="coloredBlur"/>
        <feMergeNode in="SourceGraphic"/>
      </feMerge>
    </filter>
    <filter id="softGlow">
      <feGaussianBlur stdDeviation="8" result="coloredBlur"/>
      <feMerge>
        <feMergeNode in="coloredBlur"/>
        <feMergeNode in="SourceGraphic"/>
      </feMerge>
    </filter>
    <filter id="shadow">
      <feDropShadow dx="0" dy="4" stdDeviation="8" flood-color="#000000" flood-opacity="0.5"/>
    </filter>
  </defs>

  <!-- Background -->
  <rect width="1200" height="630" fill="url(#bgGradient)"/>

  <!-- Decorative ocean gradients -->
  <ellipse cx="1000" cy="150" rx="300" ry="200" fill="url(#oceanGradient)" opacity="0.4"/>
  <ellipse cx="200" cy="530" rx="250" ry="180" fill="url(#oceanGradient)" opacity="0.3"/>

  <!-- Wave patterns -->
  <path d="M 0 400 Q 300 350 600 400 T 1200 400 L 1200 630 L 0 630 Z" fill="#1E90A0" opacity="0.08"/>
  <path d="M 0 450 Q 250 420 500 450 T 1000 450 T 1200 450 L 1200 630 L 0 630 Z" fill="#4FD1C5" opacity="0.05"/>

  <!-- Caviar roe particles -->
  <circle cx="846.9365781621611" cy="316.70377427186787" r="3.217062700506945" fill="#CFAE58" opacity="0.18883796968390948"/>
  <circle cx="196.2186744333967" cy="622.9015428742914" r="5.687170146464304" fill="#CFAE58" opacity="0.19426029405275308"/>
  <circle cx="1076.6337893206749" cy="296.5654423765984" r="3.5297241151158776" fill="#CFAE58" opacity="0.13268676130184087"/>
  <circle cx="330.00784830306253" cy="585.7360664544068" r="4.659760479556356" fill="#CFAE58" opacity="0.1423694619297639"/>
  <circle cx="999.9053786415005" cy="615.4653434219766" r="2.6447925680291515" fill="#CFAE58" opacity="0.20334678985439214"/>
  <circle cx="24.5648302693378" cy="182.81330439234958" r="3.2475175869466115" fill="#CFAE58" opacity="0.13866846443004624"/>
  <circle cx="152.31316294998987" cy="372.6327082700634" r="3.350342693689977" fill="#CFAE58" opacity="0.18613256802585038"/>
  <circle cx="1068.941134550459" cy="416.53266316922213" r="5.943019719923543" fill="#CFAE58" opacity="0.15641533508846805"/>
  <circle cx="1116.0985630262244" cy="507.11393691610573" r="4.57761598563864" fill="#CFAE58" opacity="0.21845240524112722"/>
  <circle cx="575.7515542483123" cy="202.55577062593085" r="5.986745759346493" fill="#CFAE58" opacity="0.24135610510177977"/>
  <circle cx="975.1809267370552" cy="601.1855511789082" r="4.496133676757498" fill="#CFAE58" opacity="0.11615212746700652"/>
  <circle cx="785.7206067859349" cy="208.08356907392925" r="3.9071915319381985" fill="#CFAE58" opacity="0.18341537049515555"/>
  <circle cx="856.6345111962293" cy="210.69257133692892" r="4.74367012964607" fill="#CFAE58" opacity="0.21136153219590015"/>
  <circle cx="9.842645130954786" cy="200.44428517863412" r="4.145172525433108" fill="#CFAE58" opacity="0.19462043894034192"/>
  <circle cx="337.0936542031102" cy="597.8723347402818" r="4.261390279300998" fill="#CFAE58" opacity="0.23052722936684528"/>
  <circle cx="575.547724614668" cy="210.78551110496386" r="5.183854052184298" fill="#CFAE58" opacity="0.1920035245413464"/>
  <circle cx="183.8488261972464" cy="123.63000568070896" r="5.281733883572739" fill="#CFAE58" opacity="0.17980747353704885"/>
  <circle cx="261.441912106847" cy="398.407224898846" r="4.308142195649447" fill="#CFAE58" opacity="0.20676081509385846"/>
  <circle cx="135.8830296108203" cy="104.08046558590193" r="2.404382793869174" fill="#CFAE58" opacity="0.23089546427202162"/>
  <circle cx="1100.3414401171767" cy="337.8840403660561" r="3.823737664686485" fill="#CFAE58" opacity="0.19736439035325795"/>
  <circle cx="664.4384439140872" cy="475.55693954152144" r="5.057651309663129" fill="#CFAE58" opacity="0.1898786534494937"/>
  <circle cx="312.08011076569716" cy="25.831719118003683" r="2.618593900433246" fill="#CFAE58" opacity="0.17063390613011703"/>
  <circle cx="716.3383169801909" cy="379.1740430577235" r="5.8855714694298" fill="#CFAE58" opacity="0.1395305418726538"/>
  <circle cx="870.5055727261903" cy="105.24021171236011" r="2.765174216694655" fill="#CFAE58" opacity="0.11833708324284654"/>
  <circle cx="924.0634798448575" cy="225.78361863215065" r="3.997116985364081" fill="#CFAE58" opacity="0.17552572445993736"/>
  <circle cx="764.226488159274" cy="343.77074293355963" r="3.632031561422737" fill="#CFAE58" opacity="0.22594690098358283"/>
  <circle cx="47.699112146197194" cy="158.52038507053294" r="5.55034907441526" fill="#CFAE58" opacity="0.1885176933554447"/>
  <circle cx="606.5661847468239" cy="278.80964923556246" r="3.9499113800043286" fill="#CFAE58" opacity="0.13388520844729973"/>
  <circle cx="972.1519290374335" cy="366.1047366014123" r="5.962255310660095" fill="#CFAE58" opacity="0.20012617882030448"/>
  <circle cx="952.940312911122" cy="527.8556766981577" r="4.023486906121313" fill="#CFAE58" opacity="0.12317715476549589"/>

  <!-- Border with glow -->
  <rect x="40" y="40" width="1120" height="550" fill="none" stroke="url(#goldGradient)" stroke-width="3" rx="12" filter="url(#softGlow)"/>

  <!-- Icon circle with premium background -->
  <circle cx="150" cy="200" r="75" fill="#CFAE58" opacity="0.15" filter="url(#softGlow)"/>
  <circle cx="150" cy="200" r="70" fill="#CFAE58" opacity="0.25"/>
  <text x="150" y="235" font-size="90" text-anchor="middle" fill="#CFAE58" filter="url(#glow)">⛓️</text>

  <!-- Premium logo (crown) with enhanced styling -->
  <g transform="translate(100, 70)">
    <path d="M 30 20 L 40 35 L 35 35 Z M 50 15 L 60 35 L 45 35 Z M 65 20 L 75 35 L 70 35 Z M 30 35 L 75 35 L 73 45 L 32 45 Z"
          fill="url(#goldGradient)" filter="url(#glow)" stroke="#B89842" stroke-width="0.5"/>
    <circle cx="40" cy="25" r="3" fill="#4FD1C5" filter="url(#glow)"/>
    <circle cx="52" cy="20" r="4" fill="#4FD1C5" filter="url(#glow)"/>
    <circle cx="65" cy="25" r="3" fill="#4FD1C5" filter="url(#glow)"/>
  </g>

  <!-- Title with shadow -->
  <text x="280" y="180" font-family="Georgia, serif" font-size="72" font-weight="bold"
        fill="url(#goldGradient)" filter="url(#shadow)">Tokenization &amp; Franchise</text>

  <!-- Subtitle with subtle glow -->
  <text x="280" y="230" font-family="Arial, sans-serif" font-size="36"
        fill="#D6DEE6" opacity="0.95" filter="url(#softGlow)">Blockchain-Verified Returns</text>

  <!-- Brand name with letter spacing -->
  <text x="280" y="300" font-family="Georgia, serif" font-size="32" font-weight="bold"
        fill="#CFAE58" letter-spacing="4" filter="url(#glow)">ROYAL KETA</text>

  <!-- Russian tagline -->
  <text x="280" y="340" font-family="Arial, sans-serif" font-size="22" font-style="italic"
        fill="#8B95A1" opacity="0.8">От икринки к королевской</text>

  <!-- Location -->
  <text x="280" y="380" font-family="Arial, sans-serif" font-size="20"
        fill="#8B95A1" opacity="0.7">Невельский район, Сахалин</text>

  <!-- Website with glow -->
  <text x="100" y="570" font-family="Arial, sans-serif" font-size="30" font-weight="bold"
        fill="#4FD1C5" filter="url(#glow)">royalketa.com</text>

  <!-- Enhanced decorative salmon silhouette -->
  <g transform="translate(950, 480)" opacity="0.2" filter="url(#softGlow)">
    <ellipse cx="0" cy="0" rx="90" ry="35" fill="#CFAE58"/>
    <path d="M 90 0 L 120 -18 L 130 0 L 120 18 Z" fill="#CFAE58"/>
    <path d="M -25 -35 L 0 -45 L 25 -35 Z" fill="#CFAE58"/>
    <ellipse cx="-50" cy="0" rx="15" ry="12" fill="#0B0F14"/>
  </g>

  <!-- Additional decorative caviar clusters -->
  <g opacity="0.2">
    <circle cx="1050" cy="120" r="6" fill="#CFAE58"/>
    <circle cx="1065" cy="115" r="5" fill="#CFAE58"/>
    <circle cx="1058" cy="130" r="4" fill="#CFAE58"/>
    <circle cx="150" cy="500" r="5" fill="#4FD1C5"/>
    <circle cx="165" cy="508" r="4" fill="#4FD1C5"/>
    <circle cx="140" cy="512" r="5" fill="#4FD1C5"/>
  </g>
</svg>