<svg width="1200" height="630" xmlns="http://www.w3.org/2000/svg">
  <defs>
    <linearGradient id="bgGradient" x1="0%" y1="0%" x2="100%" y2="100%">
      <stop offset="0%" style="stop-color:#0B0F14;stop-opacity:1" />
      <stop offset="50%" style="stop-color:#0F1619;stop-opacity:1" />
      <stop offset="100%" style="stop-color:#0F1922;stop-opacity:1" />
    </linearGradient>
    <linearGradient id="goldGradient" x1="0%" y1="0%" x2="100%" y2="0%">
      <stop offset="0%" style="stop-color:#E5D596;stop-opacity:1" />
      <stop offset="50%" style="stop-color:#CFAE58;stop-opacity:1" />
      <stop offset="100%" style="stop-color:#B89842;stop-opacity:1" />
    </linearGradient>
    <radialGradient id="oceanGradient" cx="50%" cy="50%" r="50%">
      <stop offset="0%" style="stop-color:#4FD1C5;stop-opacity:0.3" />
      <stop offset="100%" style="stop-color:#1E90A0;stop-opacity:0.05" />
    </radialGradient>
    <filter id="glow">
      <feGaussianBlur stdDeviation="5" result="coloredBlur"/>
      <feMerge>
        <feMergeNode in="coloredBlur"/>
        <feMergeNode in="SourceGraphic"/>
      </feMerge>
    </filter>
    <filter id="softGlow">
      <feGaussianBlur stdDeviation="8" result="coloredBlur"/>
      <feMerge>
        <feMergeNode in="coloredBlur"/>
        <feMergeNode in="SourceGraphic"/>
      </feMerge>
    </filter>
    <filter id="shadow">
      <feDropShadow dx="0" dy="4" stdDeviation="8" flood-color="#000000" flood-opacity="0.5"/>
    </filter>
  </defs>

  <!-- Background -->
  <rect width="1200" height="630" fill="url(#bgGradient)"/>

  <!-- Decorative ocean gradients -->
  <ellipse cx="1000" cy="150" rx="300" ry="200" fill="url(#oceanGradient)" opacity="0.4"/>
  <ellipse cx="200" cy="530" rx="250" ry="180" fill="url(#oceanGradient)" opacity="0.3"/>

  <!-- Wave patterns -->
  <path d="M 0 400 Q 300 350 600 400 T 1200 400 L 1200 630 L 0 630 Z" fill="#1E90A0" opacity="0.08"/>
  <path d="M 0 450 Q 250 420 500 450 T 1000 450 T 1200 450 L 1200 630 L 0 630 Z" fill="#4FD1C5" opacity="0.05"/>

  <!-- Caviar roe particles -->
  <circle cx="773.0776548179953" cy="427.11066089005135" r="5.980754836743718" fill="#CFAE58" opacity="0.13833502657818014"/>
  <circle cx="1194.3166144462612" cy="222.2873563676978" r="2.0667012350066987" fill="#CFAE58" opacity="0.2102719405303911"/>
  <circle cx="564.3194318284179" cy="540.864699808616" r="5.861558117957513" fill="#CFAE58" opacity="0.16548204294975585"/>
  <circle cx="1135.7519268957324" cy="541.6535045357929" r="3.39650128632535" fill="#CFAE58" opacity="0.20726733559797805"/>
  <circle cx="400.2052875615866" cy="335.1676573136752" r="3.5246623694330967" fill="#CFAE58" opacity="0.23375584580151682"/>
  <circle cx="788.5978001609195" cy="615.3675841063878" r="5.298818352005158" fill="#CFAE58" opacity="0.14451090788198123"/>
  <circle cx="168.63738022810946" cy="502.67769984504275" r="5.978214772661998" fill="#CFAE58" opacity="0.19605159581705156"/>
  <circle cx="912.750810277697" cy="547.3570013814787" r="2.8148480224566663" fill="#CFAE58" opacity="0.13151380788920944"/>
  <circle cx="704.897202302853" cy="278.00383808322675" r="5.542376049106844" fill="#CFAE58" opacity="0.13534147763173923"/>
  <circle cx="15.660219095743422" cy="88.0055607323347" r="4.9850466840325955" fill="#CFAE58" opacity="0.14665999101150173"/>
  <circle cx="581.1125498566616" cy="269.63391938788914" r="2.0809450508570464" fill="#CFAE58" opacity="0.12074864440437354"/>
  <circle cx="1166.4212993722015" cy="324.15411551375524" r="3.7342067166711868" fill="#CFAE58" opacity="0.133846363368882"/>
  <circle cx="713.8649669217801" cy="535.9253521024829" r="2.5385252907308695" fill="#CFAE58" opacity="0.14548391183416653"/>
  <circle cx="438.6154455718172" cy="53.949943118357666" r="5.786039699219803" fill="#CFAE58" opacity="0.15861412610396097"/>
  <circle cx="239.99485678266979" cy="183.79121456120885" r="4.775053873704343" fill="#CFAE58" opacity="0.10404593333312691"/>
  <circle cx="244.80807963776226" cy="52.373189618723345" r="4.494726536507316" fill="#CFAE58" opacity="0.12958801486205446"/>
  <circle cx="358.1600020145557" cy="55.14852251579686" r="2.9615814230216655" fill="#CFAE58" opacity="0.24255681359307352"/>
  <circle cx="1183.1832215294944" cy="171.94376045739142" r="5.854658750860569" fill="#CFAE58" opacity="0.24224251967502575"/>
  <circle cx="820.5729489175606" cy="248.11746127168038" r="4.0727192451865415" fill="#CFAE58" opacity="0.10252080961747782"/>
  <circle cx="308.3336955925855" cy="125.70784353198218" r="4.895358941738595" fill="#CFAE58" opacity="0.1953748135324192"/>
  <circle cx="906.8419726517698" cy="437.62291166238015" r="5.1260999305264106" fill="#CFAE58" opacity="0.19280233808972203"/>
  <circle cx="874.3118656598523" cy="497.56981940930564" r="4.392545181717585" fill="#CFAE58" opacity="0.2272613144950561"/>
  <circle cx="509.2073212716632" cy="385.9940936097104" r="3.487569658643147" fill="#CFAE58" opacity="0.12428282349910648"/>
  <circle cx="965.4869174991303" cy="388.3565209462793" r="5.005947858734504" fill="#CFAE58" opacity="0.1138592652534317"/>
  <circle cx="467.77678060379816" cy="9.916631775677786" r="5.816459930600993" fill="#CFAE58" opacity="0.11457859114629021"/>
  <circle cx="839.0031865037892" cy="226.16111344150954" r="4.866747555104765" fill="#CFAE58" opacity="0.10127034662594547"/>
  <circle cx="1128.5453906036773" cy="512.3708153731062" r="3.046042624864622" fill="#CFAE58" opacity="0.12802240977107468"/>
  <circle cx="854.7546182622048" cy="99.33975072452162" r="4.30055859167765" fill="#CFAE58" opacity="0.1864952354457778"/>
  <circle cx="1097.8217005184595" cy="187.95464305979118" r="5.937966991829176" fill="#CFAE58" opacity="0.14831153541426373"/>
  <circle cx="938.6108493162728" cy="216.57449819758628" r="3.280191782537848" fill="#CFAE58" opacity="0.2312126964796689"/>

  <!-- Border with glow -->
  <rect x="40" y="40" width="1120" height="550" fill="none" stroke="url(#goldGradient)" stroke-width="3" rx="12" filter="url(#softGlow)"/>

  <!-- Icon circle with premium background -->
  <circle cx="150" cy="200" r="75" fill="#CFAE58" opacity="0.15" filter="url(#softGlow)"/>
  <circle cx="150" cy="200" r="70" fill="#CFAE58" opacity="0.25"/>
  <text x="150" y="235" font-size="90" text-anchor="middle" fill="#CFAE58" filter="url(#glow)">⛓️</text>

  <!-- Premium logo (crown) with enhanced styling -->
  <g transform="translate(100, 70)">
    <path d="M 30 20 L 40 35 L 35 35 Z M 50 15 L 60 35 L 45 35 Z M 65 20 L 75 35 L 70 35 Z M 30 35 L 75 35 L 73 45 L 32 45 Z"
          fill="url(#goldGradient)" filter="url(#glow)" stroke="#B89842" stroke-width="0.5"/>
    <circle cx="40" cy="25" r="3" fill="#4FD1C5" filter="url(#glow)"/>
    <circle cx="52" cy="20" r="4" fill="#4FD1C5" filter="url(#glow)"/>
    <circle cx="65" cy="25" r="3" fill="#4FD1C5" filter="url(#glow)"/>
  </g>

  <!-- Title with shadow -->
  <text x="280" y="180" font-family="Georgia, serif" font-size="72" font-weight="bold"
        fill="url(#goldGradient)" filter="url(#shadow)">Tokenization &amp; Franchise</text>

  <!-- Subtitle with subtle glow -->
  <text x="280" y="230" font-family="Arial, sans-serif" font-size="36"
        fill="#D6DEE6" opacity="0.95" filter="url(#softGlow)">Blockchain-Verified Returns</text>

  <!-- Brand name with letter spacing -->
  <text x="280" y="300" font-family="Georgia, serif" font-size="32" font-weight="bold"
        fill="#CFAE58" letter-spacing="4" filter="url(#glow)">ROYAL KETA</text>

  <!-- Russian tagline -->
  <text x="280" y="340" font-family="Arial, sans-serif" font-size="22" font-style="italic"
        fill="#8B95A1" opacity="0.8">От икринки к королевской</text>

  <!-- Location -->
  <text x="280" y="380" font-family="Arial, sans-serif" font-size="20"
        fill="#8B95A1" opacity="0.7">Невельский район, Сахалин</text>

  <!-- Website with glow -->
  <text x="100" y="570" font-family="Arial, sans-serif" font-size="30" font-weight="bold"
        fill="#4FD1C5" filter="url(#glow)">royalketa.com</text>

  <!-- Enhanced decorative salmon silhouette -->
  <g transform="translate(950, 480)" opacity="0.2" filter="url(#softGlow)">
    <ellipse cx="0" cy="0" rx="90" ry="35" fill="#CFAE58"/>
    <path d="M 90 0 L 120 -18 L 130 0 L 120 18 Z" fill="#CFAE58"/>
    <path d="M -25 -35 L 0 -45 L 25 -35 Z" fill="#CFAE58"/>
    <ellipse cx="-50" cy="0" rx="15" ry="12" fill="#0B0F14"/>
  </g>

  <!-- Additional decorative caviar clusters -->
  <g opacity="0.2">
    <circle cx="1050" cy="120" r="6" fill="#CFAE58"/>
    <circle cx="1065" cy="115" r="5" fill="#CFAE58"/>
    <circle cx="1058" cy="130" r="4" fill="#CFAE58"/>
    <circle cx="150" cy="500" r="5" fill="#4FD1C5"/>
    <circle cx="165" cy="508" r="4" fill="#4FD1C5"/>
    <circle cx="140" cy="512" r="5" fill="#4FD1C5"/>
  </g>
</svg>