<svg width="1200" height="630" xmlns="http://www.w3.org/2000/svg">
  <defs>
    <linearGradient id="bgGradient" x1="0%" y1="0%" x2="100%" y2="100%">
      <stop offset="0%" style="stop-color:#0B0F14;stop-opacity:1" />
      <stop offset="50%" style="stop-color:#0F1619;stop-opacity:1" />
      <stop offset="100%" style="stop-color:#0F1922;stop-opacity:1" />
    </linearGradient>
    <linearGradient id="goldGradient" x1="0%" y1="0%" x2="100%" y2="0%">
      <stop offset="0%" style="stop-color:#E5D596;stop-opacity:1" />
      <stop offset="50%" style="stop-color:#CFAE58;stop-opacity:1" />
      <stop offset="100%" style="stop-color:#B89842;stop-opacity:1" />
    </linearGradient>
    <radialGradient id="oceanGradient" cx="50%" cy="50%" r="50%">
      <stop offset="0%" style="stop-color:#4FD1C5;stop-opacity:0.3" />
      <stop offset="100%" style="stop-color:#1E90A0;stop-opacity:0.05" />
    </radialGradient>
    <filter id="glow">
      <feGaussianBlur stdDeviation="5" result="coloredBlur"/>
      <feMerge>
        <feMergeNode in="coloredBlur"/>
        <feMergeNode in="SourceGraphic"/>
      </feMerge>
    </filter>
    <filter id="softGlow">
      <feGaussianBlur stdDeviation="8" result="coloredBlur"/>
      <feMerge>
        <feMergeNode in="coloredBlur"/>
        <feMergeNode in="SourceGraphic"/>
      </feMerge>
    </filter>
    <filter id="shadow">
      <feDropShadow dx="0" dy="4" stdDeviation="8" flood-color="#000000" flood-opacity="0.5"/>
    </filter>
  </defs>

  <!-- Background -->
  <rect width="1200" height="630" fill="url(#bgGradient)"/>

  <!-- Decorative ocean gradients -->
  <ellipse cx="1000" cy="150" rx="300" ry="200" fill="url(#oceanGradient)" opacity="0.4"/>
  <ellipse cx="200" cy="530" rx="250" ry="180" fill="url(#oceanGradient)" opacity="0.3"/>

  <!-- Wave patterns -->
  <path d="M 0 400 Q 300 350 600 400 T 1200 400 L 1200 630 L 0 630 Z" fill="#1E90A0" opacity="0.08"/>
  <path d="M 0 450 Q 250 420 500 450 T 1000 450 T 1200 450 L 1200 630 L 0 630 Z" fill="#4FD1C5" opacity="0.05"/>

  <!-- Caviar roe particles -->
  <circle cx="110.09638849075687" cy="485.40010124034757" r="3.0282047159214764" fill="#CFAE58" opacity="0.2479115510785429"/>
  <circle cx="1163.0615147283181" cy="67.51169283327299" r="2.2106790208196916" fill="#CFAE58" opacity="0.16102131890558274"/>
  <circle cx="718.2649592295354" cy="538.6569342904895" r="2.152931828177909" fill="#CFAE58" opacity="0.14922861209038737"/>
  <circle cx="560.8566521219747" cy="48.43725421986286" r="3.334500404778348" fill="#CFAE58" opacity="0.1683210169690146"/>
  <circle cx="32.81137741539047" cy="93.11122725368679" r="3.423347220189087" fill="#CFAE58" opacity="0.24948008967214808"/>
  <circle cx="949.6303699392604" cy="464.6511456744669" r="3.4184008475772476" fill="#CFAE58" opacity="0.24450048920130363"/>
  <circle cx="436.753312571729" cy="12.774425678918867" r="4.6827702292866125" fill="#CFAE58" opacity="0.1642566936432967"/>
  <circle cx="1075.7455069952175" cy="179.08267649004785" r="5.199179353222626" fill="#CFAE58" opacity="0.23212404956790084"/>
  <circle cx="368.11271492647444" cy="60.23309130876353" r="2.817787354175893" fill="#CFAE58" opacity="0.20027019132824583"/>
  <circle cx="909.5271156127769" cy="91.62015166347845" r="5.997379349370007" fill="#CFAE58" opacity="0.1127431895104278"/>
  <circle cx="303.4042965535009" cy="252.40964958180274" r="5.968721322420511" fill="#CFAE58" opacity="0.109680906770727"/>
  <circle cx="853.1289134983182" cy="256.29053932493383" r="5.276726751712096" fill="#CFAE58" opacity="0.11960341806275951"/>
  <circle cx="579.0266338440885" cy="528.4592575184759" r="5.042707650924583" fill="#CFAE58" opacity="0.24805001453494113"/>
  <circle cx="924.9784443139031" cy="365.6541474811735" r="3.8166819317692138" fill="#CFAE58" opacity="0.1547670377648559"/>
  <circle cx="695.5950364534722" cy="358.81587369134206" r="5.506349037875763" fill="#CFAE58" opacity="0.18154167494935475"/>
  <circle cx="938.0336720708525" cy="355.2342272186196" r="5.415286307808113" fill="#CFAE58" opacity="0.19556944811546811"/>
  <circle cx="511.4191647136698" cy="276.206719655704" r="3.104992083499025" fill="#CFAE58" opacity="0.1176553396958519"/>
  <circle cx="884.1770969472751" cy="363.3280564390261" r="3.077769957066117" fill="#CFAE58" opacity="0.18963540752683722"/>
  <circle cx="548.1437673442589" cy="101.09481153730397" r="4.704646082386653" fill="#CFAE58" opacity="0.10600061217740661"/>
  <circle cx="890.7357356343824" cy="278.35591139660534" r="3.1524508127167543" fill="#CFAE58" opacity="0.23201396196820306"/>
  <circle cx="713.1576333305301" cy="565.6843966999988" r="4.5088147473158" fill="#CFAE58" opacity="0.17076427770315422"/>
  <circle cx="628.0449437067086" cy="374.07161702557215" r="5.139962116361829" fill="#CFAE58" opacity="0.12838741619108296"/>
  <circle cx="1107.4038621350812" cy="90.67211648874498" r="3.9172056658730057" fill="#CFAE58" opacity="0.14091077044540534"/>
  <circle cx="759.7564623462442" cy="150.69561110672328" r="3.7955803531401893" fill="#CFAE58" opacity="0.2438917111330684"/>
  <circle cx="150.3956299773879" cy="298.70430058160866" r="5.234230323758413" fill="#CFAE58" opacity="0.1024848109782101"/>
  <circle cx="1038.324035289841" cy="441.2241653461158" r="4.906308570469721" fill="#CFAE58" opacity="0.23551201098937485"/>
  <circle cx="799.2570358453434" cy="55.98734495603695" r="5.475505058049711" fill="#CFAE58" opacity="0.1663644980123814"/>
  <circle cx="426.56220820956446" cy="394.1826276151568" r="3.0645083169393033" fill="#CFAE58" opacity="0.14580797549288657"/>
  <circle cx="12.04147820073862" cy="465.3568332992399" r="4.751396208302651" fill="#CFAE58" opacity="0.1319543760871388"/>
  <circle cx="668.961100370915" cy="512.1820469200992" r="3.1124239444623516" fill="#CFAE58" opacity="0.15266796006818556"/>

  <!-- Border with glow -->
  <rect x="40" y="40" width="1120" height="550" fill="none" stroke="url(#goldGradient)" stroke-width="3" rx="12" filter="url(#softGlow)"/>

  <!-- Icon circle with premium background -->
  <circle cx="150" cy="200" r="75" fill="#CFAE58" opacity="0.15" filter="url(#softGlow)"/>
  <circle cx="150" cy="200" r="70" fill="#CFAE58" opacity="0.25"/>
  <text x="150" y="235" font-size="90" text-anchor="middle" fill="#CFAE58" filter="url(#glow)">⛓️</text>

  <!-- Premium logo (crown) with enhanced styling -->
  <g transform="translate(100, 70)">
    <path d="M 30 20 L 40 35 L 35 35 Z M 50 15 L 60 35 L 45 35 Z M 65 20 L 75 35 L 70 35 Z M 30 35 L 75 35 L 73 45 L 32 45 Z"
          fill="url(#goldGradient)" filter="url(#glow)" stroke="#B89842" stroke-width="0.5"/>
    <circle cx="40" cy="25" r="3" fill="#4FD1C5" filter="url(#glow)"/>
    <circle cx="52" cy="20" r="4" fill="#4FD1C5" filter="url(#glow)"/>
    <circle cx="65" cy="25" r="3" fill="#4FD1C5" filter="url(#glow)"/>
  </g>

  <!-- Title with shadow -->
  <text x="280" y="180" font-family="Georgia, serif" font-size="72" font-weight="bold"
        fill="url(#goldGradient)" filter="url(#shadow)">Tokenization & Franchise</text>

  <!-- Subtitle with subtle glow -->
  <text x="280" y="230" font-family="Arial, sans-serif" font-size="36"
        fill="#D6DEE6" opacity="0.95" filter="url(#softGlow)">Blockchain-Verified Returns</text>

  <!-- Brand name with letter spacing -->
  <text x="280" y="300" font-family="Georgia, serif" font-size="32" font-weight="bold"
        fill="#CFAE58" letter-spacing="4" filter="url(#glow)">ROYAL KETA</text>

  <!-- Russian tagline -->
  <text x="280" y="340" font-family="Arial, sans-serif" font-size="22" font-style="italic"
        fill="#8B95A1" opacity="0.8">От икринки к королевской</text>

  <!-- Location -->
  <text x="280" y="380" font-family="Arial, sans-serif" font-size="20"
        fill="#8B95A1" opacity="0.7">Невельский район, Сахалин</text>

  <!-- Website with glow -->
  <text x="100" y="570" font-family="Arial, sans-serif" font-size="30" font-weight="bold"
        fill="#4FD1C5" filter="url(#glow)">royalketa.com</text>

  <!-- Enhanced decorative salmon silhouette -->
  <g transform="translate(950, 480)" opacity="0.2" filter="url(#softGlow)">
    <ellipse cx="0" cy="0" rx="90" ry="35" fill="#CFAE58"/>
    <path d="M 90 0 L 120 -18 L 130 0 L 120 18 Z" fill="#CFAE58"/>
    <path d="M -25 -35 L 0 -45 L 25 -35 Z" fill="#CFAE58"/>
    <ellipse cx="-50" cy="0" rx="15" ry="12" fill="#0B0F14"/>
  </g>

  <!-- Additional decorative caviar clusters -->
  <g opacity="0.2">
    <circle cx="1050" cy="120" r="6" fill="#CFAE58"/>
    <circle cx="1065" cy="115" r="5" fill="#CFAE58"/>
    <circle cx="1058" cy="130" r="4" fill="#CFAE58"/>
    <circle cx="150" cy="500" r="5" fill="#4FD1C5"/>
    <circle cx="165" cy="508" r="4" fill="#4FD1C5"/>
    <circle cx="140" cy="512" r="5" fill="#4FD1C5"/>
  </g>
</svg>