<svg width="1200" height="630" xmlns="http://www.w3.org/2000/svg">
  <defs>
    <linearGradient id="bgGradient" x1="0%" y1="0%" x2="100%" y2="100%">
      <stop offset="0%" style="stop-color:#0B0F14;stop-opacity:1" />
      <stop offset="50%" style="stop-color:#0F1619;stop-opacity:1" />
      <stop offset="100%" style="stop-color:#0F1922;stop-opacity:1" />
    </linearGradient>
    <linearGradient id="goldGradient" x1="0%" y1="0%" x2="100%" y2="0%">
      <stop offset="0%" style="stop-color:#E5D596;stop-opacity:1" />
      <stop offset="50%" style="stop-color:#CFAE58;stop-opacity:1" />
      <stop offset="100%" style="stop-color:#B89842;stop-opacity:1" />
    </linearGradient>
    <radialGradient id="oceanGradient" cx="50%" cy="50%" r="50%">
      <stop offset="0%" style="stop-color:#4FD1C5;stop-opacity:0.3" />
      <stop offset="100%" style="stop-color:#1E90A0;stop-opacity:0.05" />
    </radialGradient>
    <filter id="glow">
      <feGaussianBlur stdDeviation="5" result="coloredBlur"/>
      <feMerge>
        <feMergeNode in="coloredBlur"/>
        <feMergeNode in="SourceGraphic"/>
      </feMerge>
    </filter>
    <filter id="softGlow">
      <feGaussianBlur stdDeviation="8" result="coloredBlur"/>
      <feMerge>
        <feMergeNode in="coloredBlur"/>
        <feMergeNode in="SourceGraphic"/>
      </feMerge>
    </filter>
    <filter id="shadow">
      <feDropShadow dx="0" dy="4" stdDeviation="8" flood-color="#000000" flood-opacity="0.5"/>
    </filter>
  </defs>

  <!-- Background -->
  <rect width="1200" height="630" fill="url(#bgGradient)"/>

  <!-- Decorative ocean gradients -->
  <ellipse cx="1000" cy="150" rx="300" ry="200" fill="url(#oceanGradient)" opacity="0.4"/>
  <ellipse cx="200" cy="530" rx="250" ry="180" fill="url(#oceanGradient)" opacity="0.3"/>

  <!-- Wave patterns -->
  <path d="M 0 400 Q 300 350 600 400 T 1200 400 L 1200 630 L 0 630 Z" fill="#1E90A0" opacity="0.08"/>
  <path d="M 0 450 Q 250 420 500 450 T 1000 450 T 1200 450 L 1200 630 L 0 630 Z" fill="#4FD1C5" opacity="0.05"/>

  <!-- Caviar roe particles -->
  <circle cx="754.2194439293744" cy="104.6306500831654" r="3.1377233317070385" fill="#CFAE58" opacity="0.13362990062633462"/>
  <circle cx="168.57752628560476" cy="308.15659941752085" r="2.2112571360456656" fill="#CFAE58" opacity="0.129011456755233"/>
  <circle cx="112.2300870523914" cy="469.34418987783" r="2.7233989369891245" fill="#CFAE58" opacity="0.1223935433754965"/>
  <circle cx="46.82178582624199" cy="238.4687572524924" r="4.852313934997644" fill="#CFAE58" opacity="0.22499210261022168"/>
  <circle cx="1118.1447818846334" cy="171.4236952251307" r="3.727691541803265" fill="#CFAE58" opacity="0.1579543701714965"/>
  <circle cx="741.4031369508856" cy="591.4259649436921" r="2.166926094970704" fill="#CFAE58" opacity="0.18821212214726102"/>
  <circle cx="693.6005203977761" cy="78.7521138480755" r="2.5561845608695113" fill="#CFAE58" opacity="0.2111729099049361"/>
  <circle cx="309.8576345919086" cy="444.2417484403902" r="2.9095787045718517" fill="#CFAE58" opacity="0.1001196543588491"/>
  <circle cx="478.3008612938707" cy="583.7357976689092" r="3.413212212330781" fill="#CFAE58" opacity="0.16591612300202585"/>
  <circle cx="1161.940078767008" cy="130.82838056202996" r="3.5002630405087114" fill="#CFAE58" opacity="0.11012203575250881"/>
  <circle cx="378.57811261244507" cy="181.48087534385297" r="3.013512301495922" fill="#CFAE58" opacity="0.17201698037405283"/>
  <circle cx="121.629830326092" cy="552.3253468888795" r="4.300810059279836" fill="#CFAE58" opacity="0.15631076231649702"/>
  <circle cx="986.1116593798188" cy="276.1182509146143" r="3.3176278885931936" fill="#CFAE58" opacity="0.10140370992069024"/>
  <circle cx="168.8956898897319" cy="337.0495044774562" r="2.2223718814293716" fill="#CFAE58" opacity="0.24386150450100416"/>
  <circle cx="698.6179493592938" cy="185.71525314018848" r="2.052392417832667" fill="#CFAE58" opacity="0.19373311715910865"/>
  <circle cx="129.56436071822358" cy="58.30972242512511" r="5.247658140578313" fill="#CFAE58" opacity="0.15935216675074726"/>
  <circle cx="369.972595106268" cy="590.8433855346284" r="5.025270699331024" fill="#CFAE58" opacity="0.14780555442800053"/>
  <circle cx="50.22477213816296" cy="437.93504213070906" r="2.972294102371063" fill="#CFAE58" opacity="0.11198930635953062"/>
  <circle cx="99.31515421166672" cy="405.9465143348602" r="3.9519561775364425" fill="#CFAE58" opacity="0.10109081597309964"/>
  <circle cx="931.1327551932359" cy="92.27560952257465" r="2.2134866387564367" fill="#CFAE58" opacity="0.13001547650904996"/>
  <circle cx="675.3741762694114" cy="568.4750058441834" r="5.402634946973414" fill="#CFAE58" opacity="0.15617692551035"/>
  <circle cx="83.61348059914096" cy="0.7191232622432564" r="2.029450924122368" fill="#CFAE58" opacity="0.215204181140833"/>
  <circle cx="149.16484654676108" cy="300.15098457837786" r="2.304644803242328" fill="#CFAE58" opacity="0.22443121216482947"/>
  <circle cx="1002.7058706390569" cy="114.22782871855148" r="3.261959394905969" fill="#CFAE58" opacity="0.24814638810915776"/>
  <circle cx="1102.1052757456025" cy="64.30393746476275" r="5.535389936523363" fill="#CFAE58" opacity="0.107373749439069"/>
  <circle cx="741.1307488399723" cy="384.17504380826546" r="5.624068688490867" fill="#CFAE58" opacity="0.21799989993711166"/>
  <circle cx="1025.7242207969857" cy="521.1371959201294" r="5.985716801167875" fill="#CFAE58" opacity="0.1926390593965005"/>
  <circle cx="536.7181886584267" cy="261.9809102935845" r="4.924473112695024" fill="#CFAE58" opacity="0.2276634758860377"/>
  <circle cx="937.4792068501446" cy="359.32064829069884" r="4.173459468216469" fill="#CFAE58" opacity="0.13601092950673274"/>
  <circle cx="348.29492352723037" cy="395.083872176852" r="4.995709578496067" fill="#CFAE58" opacity="0.16008363620318233"/>

  <!-- Border with glow -->
  <rect x="40" y="40" width="1120" height="550" fill="none" stroke="url(#goldGradient)" stroke-width="3" rx="12" filter="url(#softGlow)"/>

  <!-- Icon circle with premium background -->
  <circle cx="150" cy="200" r="75" fill="#CFAE58" opacity="0.15" filter="url(#softGlow)"/>
  <circle cx="150" cy="200" r="70" fill="#CFAE58" opacity="0.25"/>
  <text x="150" y="235" font-size="90" text-anchor="middle" fill="#CFAE58" filter="url(#glow)">⛓️</text>

  <!-- Premium logo (crown) with enhanced styling -->
  <g transform="translate(100, 70)">
    <path d="M 30 20 L 40 35 L 35 35 Z M 50 15 L 60 35 L 45 35 Z M 65 20 L 75 35 L 70 35 Z M 30 35 L 75 35 L 73 45 L 32 45 Z"
          fill="url(#goldGradient)" filter="url(#glow)" stroke="#B89842" stroke-width="0.5"/>
    <circle cx="40" cy="25" r="3" fill="#4FD1C5" filter="url(#glow)"/>
    <circle cx="52" cy="20" r="4" fill="#4FD1C5" filter="url(#glow)"/>
    <circle cx="65" cy="25" r="3" fill="#4FD1C5" filter="url(#glow)"/>
  </g>

  <!-- Title with shadow -->
  <text x="280" y="180" font-family="Georgia, serif" font-size="72" font-weight="bold"
        fill="url(#goldGradient)" filter="url(#shadow)">Tokenization &amp; Franchise</text>

  <!-- Subtitle with subtle glow -->
  <text x="280" y="230" font-family="Arial, sans-serif" font-size="36"
        fill="#D6DEE6" opacity="0.95" filter="url(#softGlow)">Blockchain-Verified Returns</text>

  <!-- Brand name with letter spacing -->
  <text x="280" y="300" font-family="Georgia, serif" font-size="32" font-weight="bold"
        fill="#CFAE58" letter-spacing="4" filter="url(#glow)">ROYAL KETA</text>

  <!-- Russian tagline -->
  <text x="280" y="340" font-family="Arial, sans-serif" font-size="22" font-style="italic"
        fill="#8B95A1" opacity="0.8">От икринки к королевской</text>

  <!-- Location -->
  <text x="280" y="380" font-family="Arial, sans-serif" font-size="20"
        fill="#8B95A1" opacity="0.7">Невельский район, Сахалин</text>

  <!-- Website with glow -->
  <text x="100" y="570" font-family="Arial, sans-serif" font-size="30" font-weight="bold"
        fill="#4FD1C5" filter="url(#glow)">royalketa.com</text>

  <!-- Enhanced decorative salmon silhouette -->
  <g transform="translate(950, 480)" opacity="0.2" filter="url(#softGlow)">
    <ellipse cx="0" cy="0" rx="90" ry="35" fill="#CFAE58"/>
    <path d="M 90 0 L 120 -18 L 130 0 L 120 18 Z" fill="#CFAE58"/>
    <path d="M -25 -35 L 0 -45 L 25 -35 Z" fill="#CFAE58"/>
    <ellipse cx="-50" cy="0" rx="15" ry="12" fill="#0B0F14"/>
  </g>

  <!-- Additional decorative caviar clusters -->
  <g opacity="0.2">
    <circle cx="1050" cy="120" r="6" fill="#CFAE58"/>
    <circle cx="1065" cy="115" r="5" fill="#CFAE58"/>
    <circle cx="1058" cy="130" r="4" fill="#CFAE58"/>
    <circle cx="150" cy="500" r="5" fill="#4FD1C5"/>
    <circle cx="165" cy="508" r="4" fill="#4FD1C5"/>
    <circle cx="140" cy="512" r="5" fill="#4FD1C5"/>
  </g>
</svg>