<svg width="1200" height="630" xmlns="http://www.w3.org/2000/svg">
  <defs>
    <linearGradient id="bgGradient" x1="0%" y1="0%" x2="100%" y2="100%">
      <stop offset="0%" style="stop-color:#0B0F14;stop-opacity:1" />
      <stop offset="50%" style="stop-color:#0F1619;stop-opacity:1" />
      <stop offset="100%" style="stop-color:#0F1922;stop-opacity:1" />
    </linearGradient>
    <linearGradient id="goldGradient" x1="0%" y1="0%" x2="100%" y2="0%">
      <stop offset="0%" style="stop-color:#E5D596;stop-opacity:1" />
      <stop offset="50%" style="stop-color:#CFAE58;stop-opacity:1" />
      <stop offset="100%" style="stop-color:#B89842;stop-opacity:1" />
    </linearGradient>
    <radialGradient id="oceanGradient" cx="50%" cy="50%" r="50%">
      <stop offset="0%" style="stop-color:#4FD1C5;stop-opacity:0.3" />
      <stop offset="100%" style="stop-color:#1E90A0;stop-opacity:0.05" />
    </radialGradient>
    <filter id="glow">
      <feGaussianBlur stdDeviation="5" result="coloredBlur"/>
      <feMerge>
        <feMergeNode in="coloredBlur"/>
        <feMergeNode in="SourceGraphic"/>
      </feMerge>
    </filter>
    <filter id="softGlow">
      <feGaussianBlur stdDeviation="8" result="coloredBlur"/>
      <feMerge>
        <feMergeNode in="coloredBlur"/>
        <feMergeNode in="SourceGraphic"/>
      </feMerge>
    </filter>
    <filter id="shadow">
      <feDropShadow dx="0" dy="4" stdDeviation="8" flood-color="#000000" flood-opacity="0.5"/>
    </filter>
  </defs>

  <!-- Background -->
  <rect width="1200" height="630" fill="url(#bgGradient)"/>

  <!-- Decorative ocean gradients -->
  <ellipse cx="1000" cy="150" rx="300" ry="200" fill="url(#oceanGradient)" opacity="0.4"/>
  <ellipse cx="200" cy="530" rx="250" ry="180" fill="url(#oceanGradient)" opacity="0.3"/>

  <!-- Wave patterns -->
  <path d="M 0 400 Q 300 350 600 400 T 1200 400 L 1200 630 L 0 630 Z" fill="#1E90A0" opacity="0.08"/>
  <path d="M 0 450 Q 250 420 500 450 T 1000 450 T 1200 450 L 1200 630 L 0 630 Z" fill="#4FD1C5" opacity="0.05"/>

  <!-- Caviar roe particles -->
  <circle cx="1172.3682670119579" cy="425.95579319481357" r="2.723562943299652" fill="#CFAE58" opacity="0.11649030368901592"/>
  <circle cx="759.8088118199585" cy="123.57540781328451" r="3.384365932495305" fill="#CFAE58" opacity="0.1602336534571142"/>
  <circle cx="909.3568323166999" cy="64.88129689435317" r="5.442653193999358" fill="#CFAE58" opacity="0.23226437845945047"/>
  <circle cx="283.1172474894163" cy="586.8973347033366" r="4.453849462926649" fill="#CFAE58" opacity="0.11106377925626805"/>
  <circle cx="687.1423409264272" cy="33.581309202909466" r="3.536084170431913" fill="#CFAE58" opacity="0.11254963538412423"/>
  <circle cx="284.67554503388357" cy="302.9194407120977" r="5.742416218271292" fill="#CFAE58" opacity="0.16241550432053464"/>
  <circle cx="856.2145045121068" cy="440.81028028080715" r="2.4087577455127427" fill="#CFAE58" opacity="0.2371443914639183"/>
  <circle cx="217.29696308632205" cy="149.00552778138257" r="5.60196206778047" fill="#CFAE58" opacity="0.1551297041664485"/>
  <circle cx="1087.2804697930974" cy="610.063785553084" r="2.604827982662143" fill="#CFAE58" opacity="0.11082197598915877"/>
  <circle cx="95.83484571587447" cy="291.0507281264975" r="2.7889272277866155" fill="#CFAE58" opacity="0.16605564126659356"/>
  <circle cx="632.4007651962505" cy="520.2662464257525" r="5.472054741748578" fill="#CFAE58" opacity="0.16846446647713875"/>
  <circle cx="1097.436798143366" cy="462.67728871806105" r="4.8456129431883745" fill="#CFAE58" opacity="0.16247956236394612"/>
  <circle cx="132.1115616134655" cy="622.9391150190677" r="2.1333794175246217" fill="#CFAE58" opacity="0.15511329180928674"/>
  <circle cx="206.76691230478178" cy="411.2664430510046" r="3.584968057361185" fill="#CFAE58" opacity="0.20483062457262702"/>
  <circle cx="452.04573420703883" cy="379.6592615891991" r="4.727504411061954" fill="#CFAE58" opacity="0.10759079849155172"/>
  <circle cx="88.52858874939074" cy="600.4671675546701" r="2.216823542469621" fill="#CFAE58" opacity="0.1518735227124533"/>
  <circle cx="709.3813073982434" cy="542.7106246448362" r="4.541871028924892" fill="#CFAE58" opacity="0.15996557645234577"/>
  <circle cx="669.3807062899486" cy="606.6987578871723" r="3.9381012996668323" fill="#CFAE58" opacity="0.22422880594547773"/>
  <circle cx="1016.808048394174" cy="62.47062838573355" r="3.575148890308448" fill="#CFAE58" opacity="0.10492890703743347"/>
  <circle cx="138.2630030714415" cy="614.1380324692879" r="5.813084157147936" fill="#CFAE58" opacity="0.1485739357338748"/>
  <circle cx="940.2238986351658" cy="240.3325354808339" r="5.89788165742985" fill="#CFAE58" opacity="0.1513842727585554"/>
  <circle cx="470.31552190149324" cy="436.8414534212453" r="2.436018374168037" fill="#CFAE58" opacity="0.24018269069666948"/>
  <circle cx="120.19585528749354" cy="599.4834151670616" r="4.22354383105415" fill="#CFAE58" opacity="0.19181970144079774"/>
  <circle cx="1182.8249834510034" cy="273.73544204336565" r="4.810366691440952" fill="#CFAE58" opacity="0.10794596942697826"/>
  <circle cx="540.3935624860137" cy="178.50795670091108" r="3.2054698297841613" fill="#CFAE58" opacity="0.22714677210763834"/>
  <circle cx="298.03657511429986" cy="39.32152060714568" r="4.37859709622256" fill="#CFAE58" opacity="0.1840471821386161"/>
  <circle cx="575.2923044924229" cy="293.46945751034593" r="4.146148928676675" fill="#CFAE58" opacity="0.16540489021138338"/>
  <circle cx="883.2095652894499" cy="491.93779222952537" r="2.6451856247697316" fill="#CFAE58" opacity="0.16441209637055765"/>
  <circle cx="352.3621646086719" cy="280.6524930848695" r="2.5152988915498335" fill="#CFAE58" opacity="0.10321441904273519"/>
  <circle cx="102.84064139990691" cy="622.9851060962119" r="2.1998781638432128" fill="#CFAE58" opacity="0.12024352238817278"/>

  <!-- Border with glow -->
  <rect x="40" y="40" width="1120" height="550" fill="none" stroke="url(#goldGradient)" stroke-width="3" rx="12" filter="url(#softGlow)"/>

  <!-- Icon circle with premium background -->
  <circle cx="150" cy="200" r="75" fill="#CFAE58" opacity="0.15" filter="url(#softGlow)"/>
  <circle cx="150" cy="200" r="70" fill="#CFAE58" opacity="0.25"/>
  <text x="150" y="235" font-size="90" text-anchor="middle" fill="#CFAE58" filter="url(#glow)">⛓️</text>

  <!-- Premium logo (crown) with enhanced styling -->
  <g transform="translate(100, 70)">
    <path d="M 30 20 L 40 35 L 35 35 Z M 50 15 L 60 35 L 45 35 Z M 65 20 L 75 35 L 70 35 Z M 30 35 L 75 35 L 73 45 L 32 45 Z"
          fill="url(#goldGradient)" filter="url(#glow)" stroke="#B89842" stroke-width="0.5"/>
    <circle cx="40" cy="25" r="3" fill="#4FD1C5" filter="url(#glow)"/>
    <circle cx="52" cy="20" r="4" fill="#4FD1C5" filter="url(#glow)"/>
    <circle cx="65" cy="25" r="3" fill="#4FD1C5" filter="url(#glow)"/>
  </g>

  <!-- Title with shadow -->
  <text x="280" y="180" font-family="Georgia, serif" font-size="72" font-weight="bold"
        fill="url(#goldGradient)" filter="url(#shadow)">Tokenization & Franchise</text>

  <!-- Subtitle with subtle glow -->
  <text x="280" y="230" font-family="Arial, sans-serif" font-size="36"
        fill="#D6DEE6" opacity="0.95" filter="url(#softGlow)">Blockchain-Verified Returns</text>

  <!-- Brand name with letter spacing -->
  <text x="280" y="300" font-family="Georgia, serif" font-size="32" font-weight="bold"
        fill="#CFAE58" letter-spacing="4" filter="url(#glow)">ROYAL KETA</text>

  <!-- Russian tagline -->
  <text x="280" y="340" font-family="Arial, sans-serif" font-size="22" font-style="italic"
        fill="#8B95A1" opacity="0.8">От икринки к королевской</text>

  <!-- Location -->
  <text x="280" y="380" font-family="Arial, sans-serif" font-size="20"
        fill="#8B95A1" opacity="0.7">Невельский район, Сахалин</text>

  <!-- Website with glow -->
  <text x="100" y="570" font-family="Arial, sans-serif" font-size="30" font-weight="bold"
        fill="#4FD1C5" filter="url(#glow)">royalketa.com</text>

  <!-- Enhanced decorative salmon silhouette -->
  <g transform="translate(950, 480)" opacity="0.2" filter="url(#softGlow)">
    <ellipse cx="0" cy="0" rx="90" ry="35" fill="#CFAE58"/>
    <path d="M 90 0 L 120 -18 L 130 0 L 120 18 Z" fill="#CFAE58"/>
    <path d="M -25 -35 L 0 -45 L 25 -35 Z" fill="#CFAE58"/>
    <ellipse cx="-50" cy="0" rx="15" ry="12" fill="#0B0F14"/>
  </g>

  <!-- Additional decorative caviar clusters -->
  <g opacity="0.2">
    <circle cx="1050" cy="120" r="6" fill="#CFAE58"/>
    <circle cx="1065" cy="115" r="5" fill="#CFAE58"/>
    <circle cx="1058" cy="130" r="4" fill="#CFAE58"/>
    <circle cx="150" cy="500" r="5" fill="#4FD1C5"/>
    <circle cx="165" cy="508" r="4" fill="#4FD1C5"/>
    <circle cx="140" cy="512" r="5" fill="#4FD1C5"/>
  </g>
</svg>