<svg width="1200" height="630" xmlns="http://www.w3.org/2000/svg">
  <defs>
    <linearGradient id="bgGradient" x1="0%" y1="0%" x2="100%" y2="100%">
      <stop offset="0%" style="stop-color:#0B0F14;stop-opacity:1" />
      <stop offset="50%" style="stop-color:#0F1619;stop-opacity:1" />
      <stop offset="100%" style="stop-color:#0F1922;stop-opacity:1" />
    </linearGradient>
    <linearGradient id="goldGradient" x1="0%" y1="0%" x2="100%" y2="0%">
      <stop offset="0%" style="stop-color:#E5D596;stop-opacity:1" />
      <stop offset="50%" style="stop-color:#CFAE58;stop-opacity:1" />
      <stop offset="100%" style="stop-color:#B89842;stop-opacity:1" />
    </linearGradient>
    <radialGradient id="oceanGradient" cx="50%" cy="50%" r="50%">
      <stop offset="0%" style="stop-color:#4FD1C5;stop-opacity:0.3" />
      <stop offset="100%" style="stop-color:#1E90A0;stop-opacity:0.05" />
    </radialGradient>
    <filter id="glow">
      <feGaussianBlur stdDeviation="5" result="coloredBlur"/>
      <feMerge>
        <feMergeNode in="coloredBlur"/>
        <feMergeNode in="SourceGraphic"/>
      </feMerge>
    </filter>
    <filter id="softGlow">
      <feGaussianBlur stdDeviation="8" result="coloredBlur"/>
      <feMerge>
        <feMergeNode in="coloredBlur"/>
        <feMergeNode in="SourceGraphic"/>
      </feMerge>
    </filter>
    <filter id="shadow">
      <feDropShadow dx="0" dy="4" stdDeviation="8" flood-color="#000000" flood-opacity="0.5"/>
    </filter>
  </defs>

  <!-- Background -->
  <rect width="1200" height="630" fill="url(#bgGradient)"/>

  <!-- Decorative ocean gradients -->
  <ellipse cx="1000" cy="150" rx="300" ry="200" fill="url(#oceanGradient)" opacity="0.4"/>
  <ellipse cx="200" cy="530" rx="250" ry="180" fill="url(#oceanGradient)" opacity="0.3"/>

  <!-- Wave patterns -->
  <path d="M 0 400 Q 300 350 600 400 T 1200 400 L 1200 630 L 0 630 Z" fill="#1E90A0" opacity="0.08"/>
  <path d="M 0 450 Q 250 420 500 450 T 1000 450 T 1200 450 L 1200 630 L 0 630 Z" fill="#4FD1C5" opacity="0.05"/>

  <!-- Caviar roe particles -->
  <circle cx="141.3573091587133" cy="479.5461306867222" r="2.875959822826646" fill="#CFAE58" opacity="0.19466260117702122"/>
  <circle cx="991.4688047068609" cy="129.7940461585468" r="2.056841799274089" fill="#CFAE58" opacity="0.17317597800801218"/>
  <circle cx="78.0519157097804" cy="306.90755506959107" r="5.650003205119557" fill="#CFAE58" opacity="0.11803162479169547"/>
  <circle cx="247.93664425528323" cy="312.8502344139357" r="3.3916144721800077" fill="#CFAE58" opacity="0.15150349935309254"/>
  <circle cx="600.9349190274067" cy="175.34379193917366" r="2.3263296253411507" fill="#CFAE58" opacity="0.17348575322782023"/>
  <circle cx="1139.9483591623668" cy="32.786127623076204" r="4.333048543326294" fill="#CFAE58" opacity="0.1142350286444706"/>
  <circle cx="28.38628911511263" cy="156.94688468858647" r="5.080115312540904" fill="#CFAE58" opacity="0.20970038635667174"/>
  <circle cx="108.57788242080231" cy="398.5406010359743" r="2.257693601115612" fill="#CFAE58" opacity="0.17415426031287215"/>
  <circle cx="681.4699170552127" cy="127.3773875046092" r="5.7852484302347795" fill="#CFAE58" opacity="0.15223663919452493"/>
  <circle cx="266.4354195971816" cy="94.8717601216836" r="3.8502819094643526" fill="#CFAE58" opacity="0.11849222737911162"/>
  <circle cx="669.9556628853662" cy="509.72785603302265" r="4.429245402489132" fill="#CFAE58" opacity="0.16497238688604804"/>
  <circle cx="719.1590917917817" cy="265.02629690758323" r="5.299018446310493" fill="#CFAE58" opacity="0.1400253353313143"/>
  <circle cx="562.7553370125191" cy="451.40971332784096" r="4.543444360870567" fill="#CFAE58" opacity="0.14297428780648525"/>
  <circle cx="168.9918724528024" cy="292.4320516367388" r="2.285486341658962" fill="#CFAE58" opacity="0.11972477323530957"/>
  <circle cx="415.35407349431176" cy="86.98501974458748" r="2.480154226487606" fill="#CFAE58" opacity="0.1664532893717955"/>
  <circle cx="1173.143518112828" cy="556.0856143204327" r="4.502382151006128" fill="#CFAE58" opacity="0.10272473582035735"/>
  <circle cx="1189.4324324559338" cy="212.1407045239198" r="2.2572435065822924" fill="#CFAE58" opacity="0.21665060231532113"/>
  <circle cx="1161.0121433443085" cy="627.5501634134026" r="5.786006441124762" fill="#CFAE58" opacity="0.22949234510075198"/>
  <circle cx="918.0855165723934" cy="564.1852413628105" r="5.405515669683343" fill="#CFAE58" opacity="0.1932256038062261"/>
  <circle cx="143.99032762519263" cy="223.06067694250626" r="5.861680364598796" fill="#CFAE58" opacity="0.14378307288847325"/>
  <circle cx="52.94690812395197" cy="428.0701137526797" r="5.293367126020915" fill="#CFAE58" opacity="0.21907648509746872"/>
  <circle cx="744.324235176665" cy="427.11752551899497" r="5.945679097924281" fill="#CFAE58" opacity="0.16258531034294277"/>
  <circle cx="91.39645390999229" cy="182.76998613518887" r="3.9979711303395122" fill="#CFAE58" opacity="0.14063028885077966"/>
  <circle cx="470.49556309543095" cy="351.33312614199815" r="2.7445525028310556" fill="#CFAE58" opacity="0.2058459416327504"/>
  <circle cx="329.22089540931853" cy="38.393943629356414" r="2.2137709931439558" fill="#CFAE58" opacity="0.13648654048665712"/>
  <circle cx="659.7963447688338" cy="378.5005064637633" r="3.0096351310044476" fill="#CFAE58" opacity="0.10657872239234921"/>
  <circle cx="676.2993485666613" cy="499.5777266785943" r="2.073471724913259" fill="#CFAE58" opacity="0.15240452747289399"/>
  <circle cx="241.38270838315367" cy="417.2028638520995" r="3.79883380578661" fill="#CFAE58" opacity="0.10602363018843809"/>
  <circle cx="1137.3267954830949" cy="212.03743937024416" r="4.340369793126185" fill="#CFAE58" opacity="0.23600246617511977"/>
  <circle cx="1104.2051678157502" cy="140.77873998990265" r="5.855348654285145" fill="#CFAE58" opacity="0.14034340162635048"/>

  <!-- Border with glow -->
  <rect x="40" y="40" width="1120" height="550" fill="none" stroke="url(#goldGradient)" stroke-width="3" rx="12" filter="url(#softGlow)"/>

  <!-- Icon circle with premium background -->
  <circle cx="150" cy="200" r="75" fill="#CFAE58" opacity="0.15" filter="url(#softGlow)"/>
  <circle cx="150" cy="200" r="70" fill="#CFAE58" opacity="0.25"/>
  <text x="150" y="235" font-size="90" text-anchor="middle" fill="#CFAE58" filter="url(#glow)">⛓️</text>

  <!-- Premium logo (crown) with enhanced styling -->
  <g transform="translate(100, 70)">
    <path d="M 30 20 L 40 35 L 35 35 Z M 50 15 L 60 35 L 45 35 Z M 65 20 L 75 35 L 70 35 Z M 30 35 L 75 35 L 73 45 L 32 45 Z"
          fill="url(#goldGradient)" filter="url(#glow)" stroke="#B89842" stroke-width="0.5"/>
    <circle cx="40" cy="25" r="3" fill="#4FD1C5" filter="url(#glow)"/>
    <circle cx="52" cy="20" r="4" fill="#4FD1C5" filter="url(#glow)"/>
    <circle cx="65" cy="25" r="3" fill="#4FD1C5" filter="url(#glow)"/>
  </g>

  <!-- Title with shadow -->
  <text x="280" y="180" font-family="Georgia, serif" font-size="72" font-weight="bold"
        fill="url(#goldGradient)" filter="url(#shadow)">Tokenization &amp; Franchise</text>

  <!-- Subtitle with subtle glow -->
  <text x="280" y="230" font-family="Arial, sans-serif" font-size="36"
        fill="#D6DEE6" opacity="0.95" filter="url(#softGlow)">Blockchain-Verified Returns</text>

  <!-- Brand name with letter spacing -->
  <text x="280" y="300" font-family="Georgia, serif" font-size="32" font-weight="bold"
        fill="#CFAE58" letter-spacing="4" filter="url(#glow)">ROYAL KETA</text>

  <!-- Russian tagline -->
  <text x="280" y="340" font-family="Arial, sans-serif" font-size="22" font-style="italic"
        fill="#8B95A1" opacity="0.8">От икринки к королевской</text>

  <!-- Location -->
  <text x="280" y="380" font-family="Arial, sans-serif" font-size="20"
        fill="#8B95A1" opacity="0.7">Невельский район, Сахалин</text>

  <!-- Website with glow -->
  <text x="100" y="570" font-family="Arial, sans-serif" font-size="30" font-weight="bold"
        fill="#4FD1C5" filter="url(#glow)">royalketa.com</text>

  <!-- Enhanced decorative salmon silhouette -->
  <g transform="translate(950, 480)" opacity="0.2" filter="url(#softGlow)">
    <ellipse cx="0" cy="0" rx="90" ry="35" fill="#CFAE58"/>
    <path d="M 90 0 L 120 -18 L 130 0 L 120 18 Z" fill="#CFAE58"/>
    <path d="M -25 -35 L 0 -45 L 25 -35 Z" fill="#CFAE58"/>
    <ellipse cx="-50" cy="0" rx="15" ry="12" fill="#0B0F14"/>
  </g>

  <!-- Additional decorative caviar clusters -->
  <g opacity="0.2">
    <circle cx="1050" cy="120" r="6" fill="#CFAE58"/>
    <circle cx="1065" cy="115" r="5" fill="#CFAE58"/>
    <circle cx="1058" cy="130" r="4" fill="#CFAE58"/>
    <circle cx="150" cy="500" r="5" fill="#4FD1C5"/>
    <circle cx="165" cy="508" r="4" fill="#4FD1C5"/>
    <circle cx="140" cy="512" r="5" fill="#4FD1C5"/>
  </g>
</svg>