<svg width="1200" height="630" xmlns="http://www.w3.org/2000/svg">
  <defs>
    <linearGradient id="bgGradient" x1="0%" y1="0%" x2="100%" y2="100%">
      <stop offset="0%" style="stop-color:#0B0F14;stop-opacity:1" />
      <stop offset="50%" style="stop-color:#0F1619;stop-opacity:1" />
      <stop offset="100%" style="stop-color:#0F1922;stop-opacity:1" />
    </linearGradient>
    <linearGradient id="goldGradient" x1="0%" y1="0%" x2="100%" y2="0%">
      <stop offset="0%" style="stop-color:#E5D596;stop-opacity:1" />
      <stop offset="50%" style="stop-color:#CFAE58;stop-opacity:1" />
      <stop offset="100%" style="stop-color:#B89842;stop-opacity:1" />
    </linearGradient>
    <radialGradient id="oceanGradient" cx="50%" cy="50%" r="50%">
      <stop offset="0%" style="stop-color:#4FD1C5;stop-opacity:0.3" />
      <stop offset="100%" style="stop-color:#1E90A0;stop-opacity:0.05" />
    </radialGradient>
    <filter id="glow">
      <feGaussianBlur stdDeviation="5" result="coloredBlur"/>
      <feMerge>
        <feMergeNode in="coloredBlur"/>
        <feMergeNode in="SourceGraphic"/>
      </feMerge>
    </filter>
    <filter id="softGlow">
      <feGaussianBlur stdDeviation="8" result="coloredBlur"/>
      <feMerge>
        <feMergeNode in="coloredBlur"/>
        <feMergeNode in="SourceGraphic"/>
      </feMerge>
    </filter>
    <filter id="shadow">
      <feDropShadow dx="0" dy="4" stdDeviation="8" flood-color="#000000" flood-opacity="0.5"/>
    </filter>
  </defs>

  <!-- Background -->
  <rect width="1200" height="630" fill="url(#bgGradient)"/>

  <!-- Decorative ocean gradients -->
  <ellipse cx="1000" cy="150" rx="300" ry="200" fill="url(#oceanGradient)" opacity="0.4"/>
  <ellipse cx="200" cy="530" rx="250" ry="180" fill="url(#oceanGradient)" opacity="0.3"/>

  <!-- Wave patterns -->
  <path d="M 0 400 Q 300 350 600 400 T 1200 400 L 1200 630 L 0 630 Z" fill="#1E90A0" opacity="0.08"/>
  <path d="M 0 450 Q 250 420 500 450 T 1000 450 T 1200 450 L 1200 630 L 0 630 Z" fill="#4FD1C5" opacity="0.05"/>

  <!-- Caviar roe particles -->
  <circle cx="918.1655353413822" cy="470.121597240635" r="2.682500048123403" fill="#CFAE58" opacity="0.16183083633382755"/>
  <circle cx="398.76324044096043" cy="177.5164052504653" r="3.054335292965588" fill="#CFAE58" opacity="0.2086984461305575"/>
  <circle cx="950.5055220311781" cy="526.3213408007471" r="5.368319408109841" fill="#CFAE58" opacity="0.22107863069330908"/>
  <circle cx="132.0354967067373" cy="516.1531779620993" r="3.3339355453552386" fill="#CFAE58" opacity="0.23499846550614786"/>
  <circle cx="78.81855587407128" cy="564.0782282375586" r="5.7355814482235585" fill="#CFAE58" opacity="0.11453340781664398"/>
  <circle cx="640.6770941528777" cy="598.565247594533" r="2.061448321637932" fill="#CFAE58" opacity="0.19963455834847632"/>
  <circle cx="785.8944019137241" cy="147.66137148871493" r="2.0753601183689225" fill="#CFAE58" opacity="0.16990112622399173"/>
  <circle cx="1144.3793578464135" cy="221.33919215326688" r="2.316562521390642" fill="#CFAE58" opacity="0.21158168231101082"/>
  <circle cx="931.5175186377539" cy="313.83547282324747" r="4.695217648999132" fill="#CFAE58" opacity="0.236459068612154"/>
  <circle cx="756.3782068476531" cy="487.3693828174369" r="3.7085323521038545" fill="#CFAE58" opacity="0.22496566461022338"/>
  <circle cx="456.5211263688353" cy="322.70019138947754" r="2.1949548390653844" fill="#CFAE58" opacity="0.17559933166741956"/>
  <circle cx="950.2736492682159" cy="582.7958312074516" r="3.6400028739431125" fill="#CFAE58" opacity="0.21921125012309223"/>
  <circle cx="1104.2112753166923" cy="228.52498480123808" r="5.975099223000691" fill="#CFAE58" opacity="0.13843455113287617"/>
  <circle cx="391.33056507226377" cy="589.6641461662614" r="4.956636432310927" fill="#CFAE58" opacity="0.17476234155988185"/>
  <circle cx="520.83001308529" cy="546.8279884717789" r="5.7892981836064585" fill="#CFAE58" opacity="0.189334220400226"/>
  <circle cx="537.727989400996" cy="612.3812609335272" r="3.2787722865398523" fill="#CFAE58" opacity="0.23186807539697465"/>
  <circle cx="338.03429199345345" cy="169.27108351564087" r="4.4453800028735895" fill="#CFAE58" opacity="0.19909743862773238"/>
  <circle cx="306.56453936210096" cy="132.87581987906438" r="5.799272313245015" fill="#CFAE58" opacity="0.10363547957450875"/>
  <circle cx="908.6274441891112" cy="91.57370784736557" r="4.313921661974097" fill="#CFAE58" opacity="0.2109170326333365"/>
  <circle cx="546.8818712634466" cy="203.59223036132934" r="4.553703079917045" fill="#CFAE58" opacity="0.21940576243986015"/>
  <circle cx="309.9134683980476" cy="611.259267311117" r="5.533521816792501" fill="#CFAE58" opacity="0.2056597354411367"/>
  <circle cx="1050.759560449878" cy="336.1716525032647" r="5.259922370443685" fill="#CFAE58" opacity="0.12006159085008086"/>
  <circle cx="839.2703899634647" cy="270.9284303022348" r="3.773865544436168" fill="#CFAE58" opacity="0.12854657502548203"/>
  <circle cx="1016.0198595356459" cy="535.5216589897028" r="5.609246685446237" fill="#CFAE58" opacity="0.13063229400176957"/>
  <circle cx="1056.0542396859737" cy="310.50189985563" r="4.338510533422508" fill="#CFAE58" opacity="0.10132034265732284"/>
  <circle cx="1008.4197883281322" cy="372.2941711928208" r="5.504350483754061" fill="#CFAE58" opacity="0.14325657925994123"/>
  <circle cx="652.1985285818432" cy="255.56490262932863" r="2.159086657379204" fill="#CFAE58" opacity="0.1127809489253376"/>
  <circle cx="1017.1778837243035" cy="491.1221833750332" r="2.1202097402409708" fill="#CFAE58" opacity="0.21458466674758248"/>
  <circle cx="98.70641000204374" cy="372.3863961668742" r="3.0868448164662716" fill="#CFAE58" opacity="0.1830822355401993"/>
  <circle cx="44.94949681230214" cy="269.6178967265143" r="2.7741195365293523" fill="#CFAE58" opacity="0.23536775822368483"/>

  <!-- Border with glow -->
  <rect x="40" y="40" width="1120" height="550" fill="none" stroke="url(#goldGradient)" stroke-width="3" rx="12" filter="url(#softGlow)"/>

  <!-- Icon circle with premium background -->
  <circle cx="150" cy="200" r="75" fill="#CFAE58" opacity="0.15" filter="url(#softGlow)"/>
  <circle cx="150" cy="200" r="70" fill="#CFAE58" opacity="0.25"/>
  <text x="150" y="235" font-size="90" text-anchor="middle" fill="#CFAE58" filter="url(#glow)">⛓️</text>

  <!-- Premium logo (crown) with enhanced styling -->
  <g transform="translate(100, 70)">
    <path d="M 30 20 L 40 35 L 35 35 Z M 50 15 L 60 35 L 45 35 Z M 65 20 L 75 35 L 70 35 Z M 30 35 L 75 35 L 73 45 L 32 45 Z"
          fill="url(#goldGradient)" filter="url(#glow)" stroke="#B89842" stroke-width="0.5"/>
    <circle cx="40" cy="25" r="3" fill="#4FD1C5" filter="url(#glow)"/>
    <circle cx="52" cy="20" r="4" fill="#4FD1C5" filter="url(#glow)"/>
    <circle cx="65" cy="25" r="3" fill="#4FD1C5" filter="url(#glow)"/>
  </g>

  <!-- Title with shadow -->
  <text x="280" y="180" font-family="Georgia, serif" font-size="72" font-weight="bold"
        fill="url(#goldGradient)" filter="url(#shadow)">Tokenization &amp; Franchise</text>

  <!-- Subtitle with subtle glow -->
  <text x="280" y="230" font-family="Arial, sans-serif" font-size="36"
        fill="#D6DEE6" opacity="0.95" filter="url(#softGlow)">Blockchain-Verified Returns</text>

  <!-- Brand name with letter spacing -->
  <text x="280" y="300" font-family="Georgia, serif" font-size="32" font-weight="bold"
        fill="#CFAE58" letter-spacing="4" filter="url(#glow)">ROYAL KETA</text>

  <!-- Russian tagline -->
  <text x="280" y="340" font-family="Arial, sans-serif" font-size="22" font-style="italic"
        fill="#8B95A1" opacity="0.8">От икринки к королевской</text>

  <!-- Location -->
  <text x="280" y="380" font-family="Arial, sans-serif" font-size="20"
        fill="#8B95A1" opacity="0.7">Невельский район, Сахалин</text>

  <!-- Website with glow -->
  <text x="100" y="570" font-family="Arial, sans-serif" font-size="30" font-weight="bold"
        fill="#4FD1C5" filter="url(#glow)">royalketa.com</text>

  <!-- Enhanced decorative salmon silhouette -->
  <g transform="translate(950, 480)" opacity="0.2" filter="url(#softGlow)">
    <ellipse cx="0" cy="0" rx="90" ry="35" fill="#CFAE58"/>
    <path d="M 90 0 L 120 -18 L 130 0 L 120 18 Z" fill="#CFAE58"/>
    <path d="M -25 -35 L 0 -45 L 25 -35 Z" fill="#CFAE58"/>
    <ellipse cx="-50" cy="0" rx="15" ry="12" fill="#0B0F14"/>
  </g>

  <!-- Additional decorative caviar clusters -->
  <g opacity="0.2">
    <circle cx="1050" cy="120" r="6" fill="#CFAE58"/>
    <circle cx="1065" cy="115" r="5" fill="#CFAE58"/>
    <circle cx="1058" cy="130" r="4" fill="#CFAE58"/>
    <circle cx="150" cy="500" r="5" fill="#4FD1C5"/>
    <circle cx="165" cy="508" r="4" fill="#4FD1C5"/>
    <circle cx="140" cy="512" r="5" fill="#4FD1C5"/>
  </g>
</svg>