<svg width="1200" height="630" xmlns="http://www.w3.org/2000/svg">
  <defs>
    <linearGradient id="bgGradient" x1="0%" y1="0%" x2="100%" y2="100%">
      <stop offset="0%" style="stop-color:#0B0F14;stop-opacity:1" />
      <stop offset="50%" style="stop-color:#0F1619;stop-opacity:1" />
      <stop offset="100%" style="stop-color:#0F1922;stop-opacity:1" />
    </linearGradient>
    <linearGradient id="goldGradient" x1="0%" y1="0%" x2="100%" y2="0%">
      <stop offset="0%" style="stop-color:#E5D596;stop-opacity:1" />
      <stop offset="50%" style="stop-color:#CFAE58;stop-opacity:1" />
      <stop offset="100%" style="stop-color:#B89842;stop-opacity:1" />
    </linearGradient>
    <radialGradient id="oceanGradient" cx="50%" cy="50%" r="50%">
      <stop offset="0%" style="stop-color:#4FD1C5;stop-opacity:0.3" />
      <stop offset="100%" style="stop-color:#1E90A0;stop-opacity:0.05" />
    </radialGradient>
    <filter id="glow">
      <feGaussianBlur stdDeviation="5" result="coloredBlur"/>
      <feMerge>
        <feMergeNode in="coloredBlur"/>
        <feMergeNode in="SourceGraphic"/>
      </feMerge>
    </filter>
    <filter id="softGlow">
      <feGaussianBlur stdDeviation="8" result="coloredBlur"/>
      <feMerge>
        <feMergeNode in="coloredBlur"/>
        <feMergeNode in="SourceGraphic"/>
      </feMerge>
    </filter>
    <filter id="shadow">
      <feDropShadow dx="0" dy="4" stdDeviation="8" flood-color="#000000" flood-opacity="0.5"/>
    </filter>
  </defs>

  <!-- Background -->
  <rect width="1200" height="630" fill="url(#bgGradient)"/>

  <!-- Decorative ocean gradients -->
  <ellipse cx="1000" cy="150" rx="300" ry="200" fill="url(#oceanGradient)" opacity="0.4"/>
  <ellipse cx="200" cy="530" rx="250" ry="180" fill="url(#oceanGradient)" opacity="0.3"/>

  <!-- Wave patterns -->
  <path d="M 0 400 Q 300 350 600 400 T 1200 400 L 1200 630 L 0 630 Z" fill="#1E90A0" opacity="0.08"/>
  <path d="M 0 450 Q 250 420 500 450 T 1000 450 T 1200 450 L 1200 630 L 0 630 Z" fill="#4FD1C5" opacity="0.05"/>

  <!-- Caviar roe particles -->
  <circle cx="638.1278815944567" cy="495.9146476822803" r="3.4321690090688843" fill="#CFAE58" opacity="0.2018584832543473"/>
  <circle cx="226.91256147960655" cy="37.771243038665716" r="2.712133442305431" fill="#CFAE58" opacity="0.21802669025310847"/>
  <circle cx="1124.3393960320957" cy="444.2705332969887" r="4.191648883972991" fill="#CFAE58" opacity="0.23807727382875832"/>
  <circle cx="845.4205265692085" cy="480.21540952373107" r="3.801998623024107" fill="#CFAE58" opacity="0.1506579857801592"/>
  <circle cx="993.2683416233771" cy="284.8090524432775" r="5.071999737564368" fill="#CFAE58" opacity="0.21824161700829073"/>
  <circle cx="468.1574008614158" cy="107.18908178461702" r="2.50351019279626" fill="#CFAE58" opacity="0.20036850504010806"/>
  <circle cx="380.24952696185056" cy="13.865078677596742" r="2.1094471583920917" fill="#CFAE58" opacity="0.2044468943648895"/>
  <circle cx="7.023053754774011" cy="517.342893931168" r="2.368797192098773" fill="#CFAE58" opacity="0.160693108445353"/>
  <circle cx="345.25812510020694" cy="418.2849137993696" r="4.668191095087647" fill="#CFAE58" opacity="0.18355418240894877"/>
  <circle cx="669.611644659234" cy="594.0241054780672" r="5.838948983766564" fill="#CFAE58" opacity="0.20895470509816633"/>
  <circle cx="1161.1347713034722" cy="299.55204594964505" r="3.670721003561235" fill="#CFAE58" opacity="0.10618968189927583"/>
  <circle cx="428.80342920925915" cy="345.18620318675937" r="4.1311566221627" fill="#CFAE58" opacity="0.16371990577009243"/>
  <circle cx="252.0782685559401" cy="372.9252182566171" r="3.5470117354782564" fill="#CFAE58" opacity="0.13138205565181424"/>
  <circle cx="429.99759458735394" cy="213.41687550096674" r="2.516638361061286" fill="#CFAE58" opacity="0.19423899963669805"/>
  <circle cx="832.8877242770774" cy="406.7768446725057" r="4.49920107999953" fill="#CFAE58" opacity="0.20829823928156302"/>
  <circle cx="856.7418436823959" cy="605.2548396411536" r="3.278426205548536" fill="#CFAE58" opacity="0.18447013264784756"/>
  <circle cx="334.6297539438489" cy="275.44255667032576" r="3.5234195179189864" fill="#CFAE58" opacity="0.23281490664621893"/>
  <circle cx="589.9436462988039" cy="448.3737673219275" r="3.554428891418329" fill="#CFAE58" opacity="0.20623066499966725"/>
  <circle cx="592.9203497000054" cy="502.69853214603813" r="5.84933436734056" fill="#CFAE58" opacity="0.2401315778409434"/>
  <circle cx="138.28640260759633" cy="495.5098733329187" r="4.085789355712578" fill="#CFAE58" opacity="0.23800839164820395"/>
  <circle cx="830.3343593162856" cy="523.2556760258976" r="4.11288637392157" fill="#CFAE58" opacity="0.14162477399270337"/>
  <circle cx="867.6191530051801" cy="198.6557912574916" r="5.910980738491028" fill="#CFAE58" opacity="0.20079721856947919"/>
  <circle cx="344.5870577074779" cy="377.99967592074506" r="4.994733541645536" fill="#CFAE58" opacity="0.21412579228373776"/>
  <circle cx="1081.3626206691704" cy="551.7220727242752" r="3.249624866003254" fill="#CFAE58" opacity="0.22761661638617667"/>
  <circle cx="127.47009527930926" cy="312.2601143073271" r="5.050653768577429" fill="#CFAE58" opacity="0.11578996157130238"/>
  <circle cx="103.81791289023114" cy="433.1433051489219" r="3.6410097165657547" fill="#CFAE58" opacity="0.13204851632780037"/>
  <circle cx="294.7182697412859" cy="502.5009868544238" r="2.7489771191036887" fill="#CFAE58" opacity="0.18921374946008382"/>
  <circle cx="262.6338331019522" cy="6.689895511467476" r="5.346838437967587" fill="#CFAE58" opacity="0.16440435751128346"/>
  <circle cx="229.2386833091565" cy="550.1549781787893" r="4.084001261809" fill="#CFAE58" opacity="0.22056403620007037"/>
  <circle cx="384.89257399731105" cy="417.2668842879869" r="3.022594799988462" fill="#CFAE58" opacity="0.17733456643979184"/>

  <!-- Border with glow -->
  <rect x="40" y="40" width="1120" height="550" fill="none" stroke="url(#goldGradient)" stroke-width="3" rx="12" filter="url(#softGlow)"/>

  <!-- Icon circle with premium background -->
  <circle cx="150" cy="200" r="75" fill="#CFAE58" opacity="0.15" filter="url(#softGlow)"/>
  <circle cx="150" cy="200" r="70" fill="#CFAE58" opacity="0.25"/>
  <text x="150" y="235" font-size="90" text-anchor="middle" fill="#CFAE58" filter="url(#glow)">⛓️</text>

  <!-- Premium logo (crown) with enhanced styling -->
  <g transform="translate(100, 70)">
    <path d="M 30 20 L 40 35 L 35 35 Z M 50 15 L 60 35 L 45 35 Z M 65 20 L 75 35 L 70 35 Z M 30 35 L 75 35 L 73 45 L 32 45 Z"
          fill="url(#goldGradient)" filter="url(#glow)" stroke="#B89842" stroke-width="0.5"/>
    <circle cx="40" cy="25" r="3" fill="#4FD1C5" filter="url(#glow)"/>
    <circle cx="52" cy="20" r="4" fill="#4FD1C5" filter="url(#glow)"/>
    <circle cx="65" cy="25" r="3" fill="#4FD1C5" filter="url(#glow)"/>
  </g>

  <!-- Title with shadow -->
  <text x="280" y="180" font-family="Georgia, serif" font-size="72" font-weight="bold"
        fill="url(#goldGradient)" filter="url(#shadow)">Tokenization & Franchise</text>

  <!-- Subtitle with subtle glow -->
  <text x="280" y="230" font-family="Arial, sans-serif" font-size="36"
        fill="#D6DEE6" opacity="0.95" filter="url(#softGlow)">Blockchain-Verified Returns</text>

  <!-- Brand name with letter spacing -->
  <text x="280" y="300" font-family="Georgia, serif" font-size="32" font-weight="bold"
        fill="#CFAE58" letter-spacing="4" filter="url(#glow)">ROYAL KETA</text>

  <!-- Russian tagline -->
  <text x="280" y="340" font-family="Arial, sans-serif" font-size="22" font-style="italic"
        fill="#8B95A1" opacity="0.8">От икринки к королевской</text>

  <!-- Location -->
  <text x="280" y="380" font-family="Arial, sans-serif" font-size="20"
        fill="#8B95A1" opacity="0.7">Невельский район, Сахалин</text>

  <!-- Website with glow -->
  <text x="100" y="570" font-family="Arial, sans-serif" font-size="30" font-weight="bold"
        fill="#4FD1C5" filter="url(#glow)">royalketa.com</text>

  <!-- Enhanced decorative salmon silhouette -->
  <g transform="translate(950, 480)" opacity="0.2" filter="url(#softGlow)">
    <ellipse cx="0" cy="0" rx="90" ry="35" fill="#CFAE58"/>
    <path d="M 90 0 L 120 -18 L 130 0 L 120 18 Z" fill="#CFAE58"/>
    <path d="M -25 -35 L 0 -45 L 25 -35 Z" fill="#CFAE58"/>
    <ellipse cx="-50" cy="0" rx="15" ry="12" fill="#0B0F14"/>
  </g>

  <!-- Additional decorative caviar clusters -->
  <g opacity="0.2">
    <circle cx="1050" cy="120" r="6" fill="#CFAE58"/>
    <circle cx="1065" cy="115" r="5" fill="#CFAE58"/>
    <circle cx="1058" cy="130" r="4" fill="#CFAE58"/>
    <circle cx="150" cy="500" r="5" fill="#4FD1C5"/>
    <circle cx="165" cy="508" r="4" fill="#4FD1C5"/>
    <circle cx="140" cy="512" r="5" fill="#4FD1C5"/>
  </g>
</svg>