<svg width="1200" height="630" xmlns="http://www.w3.org/2000/svg">
  <defs>
    <linearGradient id="bgGradient" x1="0%" y1="0%" x2="100%" y2="100%">
      <stop offset="0%" style="stop-color:#0B0F14;stop-opacity:1" />
      <stop offset="50%" style="stop-color:#0F1619;stop-opacity:1" />
      <stop offset="100%" style="stop-color:#0F1922;stop-opacity:1" />
    </linearGradient>
    <linearGradient id="goldGradient" x1="0%" y1="0%" x2="100%" y2="0%">
      <stop offset="0%" style="stop-color:#E5D596;stop-opacity:1" />
      <stop offset="50%" style="stop-color:#CFAE58;stop-opacity:1" />
      <stop offset="100%" style="stop-color:#B89842;stop-opacity:1" />
    </linearGradient>
    <radialGradient id="oceanGradient" cx="50%" cy="50%" r="50%">
      <stop offset="0%" style="stop-color:#4FD1C5;stop-opacity:0.3" />
      <stop offset="100%" style="stop-color:#1E90A0;stop-opacity:0.05" />
    </radialGradient>
    <filter id="glow">
      <feGaussianBlur stdDeviation="5" result="coloredBlur"/>
      <feMerge>
        <feMergeNode in="coloredBlur"/>
        <feMergeNode in="SourceGraphic"/>
      </feMerge>
    </filter>
    <filter id="softGlow">
      <feGaussianBlur stdDeviation="8" result="coloredBlur"/>
      <feMerge>
        <feMergeNode in="coloredBlur"/>
        <feMergeNode in="SourceGraphic"/>
      </feMerge>
    </filter>
    <filter id="shadow">
      <feDropShadow dx="0" dy="4" stdDeviation="8" flood-color="#000000" flood-opacity="0.5"/>
    </filter>
  </defs>

  <!-- Background -->
  <rect width="1200" height="630" fill="url(#bgGradient)"/>

  <!-- Decorative ocean gradients -->
  <ellipse cx="1000" cy="150" rx="300" ry="200" fill="url(#oceanGradient)" opacity="0.4"/>
  <ellipse cx="200" cy="530" rx="250" ry="180" fill="url(#oceanGradient)" opacity="0.3"/>

  <!-- Wave patterns -->
  <path d="M 0 400 Q 300 350 600 400 T 1200 400 L 1200 630 L 0 630 Z" fill="#1E90A0" opacity="0.08"/>
  <path d="M 0 450 Q 250 420 500 450 T 1000 450 T 1200 450 L 1200 630 L 0 630 Z" fill="#4FD1C5" opacity="0.05"/>

  <!-- Caviar roe particles -->
  <circle cx="295.6696819164454" cy="526.2617614305609" r="3.0982850426894224" fill="#CFAE58" opacity="0.16147524682830136"/>
  <circle cx="216.25213651624227" cy="48.403619544222195" r="5.413214638796081" fill="#CFAE58" opacity="0.17555089507931765"/>
  <circle cx="684.779374625745" cy="445.07713307280534" r="3.4085519256251304" fill="#CFAE58" opacity="0.1527139135895457"/>
  <circle cx="841.7081864145504" cy="530.9167924201943" r="4.45111702559742" fill="#CFAE58" opacity="0.19009216110922622"/>
  <circle cx="824.0882874370839" cy="59.64425250266519" r="3.1647958708847748" fill="#CFAE58" opacity="0.22225332572722384"/>
  <circle cx="566.6719273434588" cy="511.6080433181487" r="2.2021025343022353" fill="#CFAE58" opacity="0.11383869344717634"/>
  <circle cx="670.156943905422" cy="478.191845953675" r="4.183541668757995" fill="#CFAE58" opacity="0.12471350532207079"/>
  <circle cx="463.10087629558467" cy="404.49571759557847" r="4.696456152978269" fill="#CFAE58" opacity="0.22514838334280146"/>
  <circle cx="855.3668704788457" cy="488.93834193868696" r="4.589356819955899" fill="#CFAE58" opacity="0.11264630191821005"/>
  <circle cx="1009.401426920939" cy="605.0426191787593" r="2.7498255026312037" fill="#CFAE58" opacity="0.2195894554897456"/>
  <circle cx="328.2514881982171" cy="340.1696225356323" r="2.961423847324059" fill="#CFAE58" opacity="0.21043924175491446"/>
  <circle cx="177.1522009078729" cy="377.55488659146795" r="5.9796210566114985" fill="#CFAE58" opacity="0.22153653488789615"/>
  <circle cx="811.770002330208" cy="528.7915199394521" r="5.448802782774544" fill="#CFAE58" opacity="0.17197651458161162"/>
  <circle cx="1110.6893479504781" cy="173.17884958561956" r="3.376866315857443" fill="#CFAE58" opacity="0.15173277152044587"/>
  <circle cx="550.1383004886553" cy="217.89762013359137" r="2.7393231438983596" fill="#CFAE58" opacity="0.19520423712399543"/>
  <circle cx="646.8649891208522" cy="490.97782860275976" r="2.5562975069559" fill="#CFAE58" opacity="0.13911470148121013"/>
  <circle cx="210.865731716129" cy="528.210833589062" r="5.952505124113684" fill="#CFAE58" opacity="0.13405032271683653"/>
  <circle cx="954.7765806002014" cy="447.9680009515125" r="3.963069438973105" fill="#CFAE58" opacity="0.13347557689136164"/>
  <circle cx="708.970903457305" cy="257.7050052755883" r="2.61815683548776" fill="#CFAE58" opacity="0.21650592456085396"/>
  <circle cx="178.94465147997226" cy="55.46181398689136" r="2.5132966348641634" fill="#CFAE58" opacity="0.23471909452210293"/>
  <circle cx="882.651110828577" cy="428.7647341924577" r="5.0745753472670465" fill="#CFAE58" opacity="0.24086969978526462"/>
  <circle cx="499.15156894881204" cy="344.28657342764734" r="3.442728396148625" fill="#CFAE58" opacity="0.10617211814276555"/>
  <circle cx="91.7806535697121" cy="405.24972639263194" r="5.19425939645466" fill="#CFAE58" opacity="0.1982467021395901"/>
  <circle cx="498.04530255007614" cy="306.0782525008247" r="2.2296376690677127" fill="#CFAE58" opacity="0.1767214406362645"/>
  <circle cx="4.720337650992246" cy="283.45924529701415" r="5.230008476584389" fill="#CFAE58" opacity="0.23441342140597585"/>
  <circle cx="257.19968509138874" cy="478.7754407331554" r="4.038902979688797" fill="#CFAE58" opacity="0.11999321078873881"/>
  <circle cx="187.17187368450857" cy="277.15552130997327" r="3.4485087613963765" fill="#CFAE58" opacity="0.2002802406709807"/>
  <circle cx="213.72196937122067" cy="628.9399729020047" r="5.054074796820383" fill="#CFAE58" opacity="0.24782061134272595"/>
  <circle cx="994.3170431117023" cy="482.03785420641714" r="5.495206729157142" fill="#CFAE58" opacity="0.21222143721582729"/>
  <circle cx="523.3157244926443" cy="332.25677900540137" r="2.5344113308574183" fill="#CFAE58" opacity="0.2380408043961259"/>

  <!-- Border with glow -->
  <rect x="40" y="40" width="1120" height="550" fill="none" stroke="url(#goldGradient)" stroke-width="3" rx="12" filter="url(#softGlow)"/>

  <!-- Icon circle with premium background -->
  <circle cx="150" cy="200" r="75" fill="#CFAE58" opacity="0.15" filter="url(#softGlow)"/>
  <circle cx="150" cy="200" r="70" fill="#CFAE58" opacity="0.25"/>
  <text x="150" y="235" font-size="90" text-anchor="middle" fill="#CFAE58" filter="url(#glow)">⛓️</text>

  <!-- Premium logo (crown) with enhanced styling -->
  <g transform="translate(100, 70)">
    <path d="M 30 20 L 40 35 L 35 35 Z M 50 15 L 60 35 L 45 35 Z M 65 20 L 75 35 L 70 35 Z M 30 35 L 75 35 L 73 45 L 32 45 Z"
          fill="url(#goldGradient)" filter="url(#glow)" stroke="#B89842" stroke-width="0.5"/>
    <circle cx="40" cy="25" r="3" fill="#4FD1C5" filter="url(#glow)"/>
    <circle cx="52" cy="20" r="4" fill="#4FD1C5" filter="url(#glow)"/>
    <circle cx="65" cy="25" r="3" fill="#4FD1C5" filter="url(#glow)"/>
  </g>

  <!-- Title with shadow -->
  <text x="280" y="180" font-family="Georgia, serif" font-size="72" font-weight="bold"
        fill="url(#goldGradient)" filter="url(#shadow)">Tokenization & Franchise</text>

  <!-- Subtitle with subtle glow -->
  <text x="280" y="230" font-family="Arial, sans-serif" font-size="36"
        fill="#D6DEE6" opacity="0.95" filter="url(#softGlow)">Blockchain-Verified Returns</text>

  <!-- Brand name with letter spacing -->
  <text x="280" y="300" font-family="Georgia, serif" font-size="32" font-weight="bold"
        fill="#CFAE58" letter-spacing="4" filter="url(#glow)">ROYAL KETA</text>

  <!-- Russian tagline -->
  <text x="280" y="340" font-family="Arial, sans-serif" font-size="22" font-style="italic"
        fill="#8B95A1" opacity="0.8">От икринки к королевской</text>

  <!-- Location -->
  <text x="280" y="380" font-family="Arial, sans-serif" font-size="20"
        fill="#8B95A1" opacity="0.7">Невельский район, Сахалин</text>

  <!-- Website with glow -->
  <text x="100" y="570" font-family="Arial, sans-serif" font-size="30" font-weight="bold"
        fill="#4FD1C5" filter="url(#glow)">royalketa.com</text>

  <!-- Enhanced decorative salmon silhouette -->
  <g transform="translate(950, 480)" opacity="0.2" filter="url(#softGlow)">
    <ellipse cx="0" cy="0" rx="90" ry="35" fill="#CFAE58"/>
    <path d="M 90 0 L 120 -18 L 130 0 L 120 18 Z" fill="#CFAE58"/>
    <path d="M -25 -35 L 0 -45 L 25 -35 Z" fill="#CFAE58"/>
    <ellipse cx="-50" cy="0" rx="15" ry="12" fill="#0B0F14"/>
  </g>

  <!-- Additional decorative caviar clusters -->
  <g opacity="0.2">
    <circle cx="1050" cy="120" r="6" fill="#CFAE58"/>
    <circle cx="1065" cy="115" r="5" fill="#CFAE58"/>
    <circle cx="1058" cy="130" r="4" fill="#CFAE58"/>
    <circle cx="150" cy="500" r="5" fill="#4FD1C5"/>
    <circle cx="165" cy="508" r="4" fill="#4FD1C5"/>
    <circle cx="140" cy="512" r="5" fill="#4FD1C5"/>
  </g>
</svg>