<svg width="1200" height="630" xmlns="http://www.w3.org/2000/svg">
  <defs>
    <linearGradient id="bgGradient" x1="0%" y1="0%" x2="100%" y2="100%">
      <stop offset="0%" style="stop-color:#0B0F14;stop-opacity:1" />
      <stop offset="50%" style="stop-color:#0F1619;stop-opacity:1" />
      <stop offset="100%" style="stop-color:#0F1922;stop-opacity:1" />
    </linearGradient>
    <linearGradient id="goldGradient" x1="0%" y1="0%" x2="100%" y2="0%">
      <stop offset="0%" style="stop-color:#E5D596;stop-opacity:1" />
      <stop offset="50%" style="stop-color:#CFAE58;stop-opacity:1" />
      <stop offset="100%" style="stop-color:#B89842;stop-opacity:1" />
    </linearGradient>
    <radialGradient id="oceanGradient" cx="50%" cy="50%" r="50%">
      <stop offset="0%" style="stop-color:#4FD1C5;stop-opacity:0.3" />
      <stop offset="100%" style="stop-color:#1E90A0;stop-opacity:0.05" />
    </radialGradient>
    <filter id="glow">
      <feGaussianBlur stdDeviation="5" result="coloredBlur"/>
      <feMerge>
        <feMergeNode in="coloredBlur"/>
        <feMergeNode in="SourceGraphic"/>
      </feMerge>
    </filter>
    <filter id="softGlow">
      <feGaussianBlur stdDeviation="8" result="coloredBlur"/>
      <feMerge>
        <feMergeNode in="coloredBlur"/>
        <feMergeNode in="SourceGraphic"/>
      </feMerge>
    </filter>
    <filter id="shadow">
      <feDropShadow dx="0" dy="4" stdDeviation="8" flood-color="#000000" flood-opacity="0.5"/>
    </filter>
  </defs>

  <!-- Background -->
  <rect width="1200" height="630" fill="url(#bgGradient)"/>

  <!-- Decorative ocean gradients -->
  <ellipse cx="1000" cy="150" rx="300" ry="200" fill="url(#oceanGradient)" opacity="0.4"/>
  <ellipse cx="200" cy="530" rx="250" ry="180" fill="url(#oceanGradient)" opacity="0.3"/>

  <!-- Wave patterns -->
  <path d="M 0 400 Q 300 350 600 400 T 1200 400 L 1200 630 L 0 630 Z" fill="#1E90A0" opacity="0.08"/>
  <path d="M 0 450 Q 250 420 500 450 T 1000 450 T 1200 450 L 1200 630 L 0 630 Z" fill="#4FD1C5" opacity="0.05"/>

  <!-- Caviar roe particles -->
  <circle cx="1135.4838845783524" cy="12.997260171701077" r="3.749451921350394" fill="#CFAE58" opacity="0.10505795568138997"/>
  <circle cx="1041.4509379216881" cy="571.3670258660779" r="4.694901754096776" fill="#CFAE58" opacity="0.1607844020176796"/>
  <circle cx="407.7761098151287" cy="343.3139788630767" r="4.328219071952624" fill="#CFAE58" opacity="0.17620373269670225"/>
  <circle cx="846.196552108375" cy="596.1271696181204" r="3.5409098344946384" fill="#CFAE58" opacity="0.20862714343868216"/>
  <circle cx="651.7651056670735" cy="22.435268917319068" r="4.847956754866905" fill="#CFAE58" opacity="0.14307677682023984"/>
  <circle cx="853.5656387976322" cy="187.9797640981765" r="5.634224450083963" fill="#CFAE58" opacity="0.22702906999566463"/>
  <circle cx="1064.6037805390965" cy="256.7638701825363" r="5.68077010074559" fill="#CFAE58" opacity="0.1658445826458479"/>
  <circle cx="803.1589779621191" cy="419.7492432056159" r="2.9887191029304234" fill="#CFAE58" opacity="0.14854218562093205"/>
  <circle cx="462.21128349484843" cy="540.470249704993" r="2.3411224723161053" fill="#CFAE58" opacity="0.22157530793096536"/>
  <circle cx="723.8695983426686" cy="358.89100721223866" r="4.434378416204476" fill="#CFAE58" opacity="0.1187992661760175"/>
  <circle cx="782.5165254848948" cy="57.53483252338228" r="4.974970370381536" fill="#CFAE58" opacity="0.19811787110109746"/>
  <circle cx="498.7859417550703" cy="116.30459750685364" r="5.72448857772437" fill="#CFAE58" opacity="0.2239820552885213"/>
  <circle cx="533.5509248524253" cy="392.62912296964026" r="2.179753731652287" fill="#CFAE58" opacity="0.10281598983103768"/>
  <circle cx="397.9300057523628" cy="298.3717109073747" r="2.945107969737484" fill="#CFAE58" opacity="0.1497739327387972"/>
  <circle cx="474.5985107643686" cy="311.54886784938697" r="3.6679770674652916" fill="#CFAE58" opacity="0.20421196782322787"/>
  <circle cx="1066.4198714877882" cy="559.8637089355242" r="5.979481694633444" fill="#CFAE58" opacity="0.11957852069340294"/>
  <circle cx="856.0896508795685" cy="420.2023924910804" r="4.933595016353927" fill="#CFAE58" opacity="0.16860533461992883"/>
  <circle cx="960.5063450949411" cy="96.48504862533413" r="5.9030199387921405" fill="#CFAE58" opacity="0.1492055097377473"/>
  <circle cx="387.8796059014213" cy="360.11229895664405" r="2.5881957510658054" fill="#CFAE58" opacity="0.15838439159550224"/>
  <circle cx="165.7113641609813" cy="137.37784543970704" r="2.6083813652473404" fill="#CFAE58" opacity="0.22347686464381156"/>
  <circle cx="859.3969719541019" cy="151.3759955924937" r="3.8165416691192795" fill="#CFAE58" opacity="0.11767503041193285"/>
  <circle cx="918.259715411317" cy="466.1454353148294" r="3.465044564194464" fill="#CFAE58" opacity="0.10303177052555809"/>
  <circle cx="622.2379961898888" cy="499.8044268423931" r="2.6326152828606837" fill="#CFAE58" opacity="0.10084047704327134"/>
  <circle cx="1086.2592898422245" cy="325.15124596810745" r="2.331053477799579" fill="#CFAE58" opacity="0.1166661838016463"/>
  <circle cx="843.8575372238587" cy="173.24449728418816" r="2.7167567606021015" fill="#CFAE58" opacity="0.2013811846312836"/>
  <circle cx="1025.2826718913248" cy="573.4221411535087" r="2.3940110999323627" fill="#CFAE58" opacity="0.18834154728841923"/>
  <circle cx="952.3245844748269" cy="253.0804097789429" r="2.0724261577534904" fill="#CFAE58" opacity="0.23718400357740976"/>
  <circle cx="943.9306005082425" cy="66.04473613583163" r="3.427667872688486" fill="#CFAE58" opacity="0.12069527005191474"/>
  <circle cx="443.9967371794601" cy="30.92810264184546" r="5.702278492705851" fill="#CFAE58" opacity="0.1970978130005347"/>
  <circle cx="403.77404060530966" cy="30.56923270037774" r="4.29387797512946" fill="#CFAE58" opacity="0.1983547310457255"/>

  <!-- Border with glow -->
  <rect x="40" y="40" width="1120" height="550" fill="none" stroke="url(#goldGradient)" stroke-width="3" rx="12" filter="url(#softGlow)"/>

  <!-- Icon circle with premium background -->
  <circle cx="150" cy="200" r="75" fill="#CFAE58" opacity="0.15" filter="url(#softGlow)"/>
  <circle cx="150" cy="200" r="70" fill="#CFAE58" opacity="0.25"/>
  <text x="150" y="235" font-size="90" text-anchor="middle" fill="#CFAE58" filter="url(#glow)">⛓️</text>

  <!-- Premium logo (crown) with enhanced styling -->
  <g transform="translate(100, 70)">
    <path d="M 30 20 L 40 35 L 35 35 Z M 50 15 L 60 35 L 45 35 Z M 65 20 L 75 35 L 70 35 Z M 30 35 L 75 35 L 73 45 L 32 45 Z"
          fill="url(#goldGradient)" filter="url(#glow)" stroke="#B89842" stroke-width="0.5"/>
    <circle cx="40" cy="25" r="3" fill="#4FD1C5" filter="url(#glow)"/>
    <circle cx="52" cy="20" r="4" fill="#4FD1C5" filter="url(#glow)"/>
    <circle cx="65" cy="25" r="3" fill="#4FD1C5" filter="url(#glow)"/>
  </g>

  <!-- Title with shadow -->
  <text x="280" y="180" font-family="Georgia, serif" font-size="72" font-weight="bold"
        fill="url(#goldGradient)" filter="url(#shadow)">Tokenization &amp; Franchise</text>

  <!-- Subtitle with subtle glow -->
  <text x="280" y="230" font-family="Arial, sans-serif" font-size="36"
        fill="#D6DEE6" opacity="0.95" filter="url(#softGlow)">Blockchain-Verified Returns</text>

  <!-- Brand name with letter spacing -->
  <text x="280" y="300" font-family="Georgia, serif" font-size="32" font-weight="bold"
        fill="#CFAE58" letter-spacing="4" filter="url(#glow)">ROYAL KETA</text>

  <!-- Russian tagline -->
  <text x="280" y="340" font-family="Arial, sans-serif" font-size="22" font-style="italic"
        fill="#8B95A1" opacity="0.8">От икринки к королевской</text>

  <!-- Location -->
  <text x="280" y="380" font-family="Arial, sans-serif" font-size="20"
        fill="#8B95A1" opacity="0.7">Невельский район, Сахалин</text>

  <!-- Website with glow -->
  <text x="100" y="570" font-family="Arial, sans-serif" font-size="30" font-weight="bold"
        fill="#4FD1C5" filter="url(#glow)">royalketa.com</text>

  <!-- Enhanced decorative salmon silhouette -->
  <g transform="translate(950, 480)" opacity="0.2" filter="url(#softGlow)">
    <ellipse cx="0" cy="0" rx="90" ry="35" fill="#CFAE58"/>
    <path d="M 90 0 L 120 -18 L 130 0 L 120 18 Z" fill="#CFAE58"/>
    <path d="M -25 -35 L 0 -45 L 25 -35 Z" fill="#CFAE58"/>
    <ellipse cx="-50" cy="0" rx="15" ry="12" fill="#0B0F14"/>
  </g>

  <!-- Additional decorative caviar clusters -->
  <g opacity="0.2">
    <circle cx="1050" cy="120" r="6" fill="#CFAE58"/>
    <circle cx="1065" cy="115" r="5" fill="#CFAE58"/>
    <circle cx="1058" cy="130" r="4" fill="#CFAE58"/>
    <circle cx="150" cy="500" r="5" fill="#4FD1C5"/>
    <circle cx="165" cy="508" r="4" fill="#4FD1C5"/>
    <circle cx="140" cy="512" r="5" fill="#4FD1C5"/>
  </g>
</svg>