<svg width="1200" height="630" xmlns="http://www.w3.org/2000/svg">
  <defs>
    <linearGradient id="bgGradient" x1="0%" y1="0%" x2="100%" y2="100%">
      <stop offset="0%" style="stop-color:#0B0F14;stop-opacity:1" />
      <stop offset="50%" style="stop-color:#0F1619;stop-opacity:1" />
      <stop offset="100%" style="stop-color:#0F1922;stop-opacity:1" />
    </linearGradient>
    <linearGradient id="goldGradient" x1="0%" y1="0%" x2="100%" y2="0%">
      <stop offset="0%" style="stop-color:#E5D596;stop-opacity:1" />
      <stop offset="50%" style="stop-color:#CFAE58;stop-opacity:1" />
      <stop offset="100%" style="stop-color:#B89842;stop-opacity:1" />
    </linearGradient>
    <radialGradient id="oceanGradient" cx="50%" cy="50%" r="50%">
      <stop offset="0%" style="stop-color:#4FD1C5;stop-opacity:0.3" />
      <stop offset="100%" style="stop-color:#1E90A0;stop-opacity:0.05" />
    </radialGradient>
    <filter id="glow">
      <feGaussianBlur stdDeviation="5" result="coloredBlur"/>
      <feMerge>
        <feMergeNode in="coloredBlur"/>
        <feMergeNode in="SourceGraphic"/>
      </feMerge>
    </filter>
    <filter id="softGlow">
      <feGaussianBlur stdDeviation="8" result="coloredBlur"/>
      <feMerge>
        <feMergeNode in="coloredBlur"/>
        <feMergeNode in="SourceGraphic"/>
      </feMerge>
    </filter>
    <filter id="shadow">
      <feDropShadow dx="0" dy="4" stdDeviation="8" flood-color="#000000" flood-opacity="0.5"/>
    </filter>
  </defs>

  <!-- Background -->
  <rect width="1200" height="630" fill="url(#bgGradient)"/>

  <!-- Decorative ocean gradients -->
  <ellipse cx="1000" cy="150" rx="300" ry="200" fill="url(#oceanGradient)" opacity="0.4"/>
  <ellipse cx="200" cy="530" rx="250" ry="180" fill="url(#oceanGradient)" opacity="0.3"/>

  <!-- Wave patterns -->
  <path d="M 0 400 Q 300 350 600 400 T 1200 400 L 1200 630 L 0 630 Z" fill="#1E90A0" opacity="0.08"/>
  <path d="M 0 450 Q 250 420 500 450 T 1000 450 T 1200 450 L 1200 630 L 0 630 Z" fill="#4FD1C5" opacity="0.05"/>

  <!-- Caviar roe particles -->
  <circle cx="357.18562169609436" cy="423.77103365968577" r="3.4217489864419264" fill="#CFAE58" opacity="0.21040450259835852"/>
  <circle cx="869.6068341388088" cy="358.6380499622796" r="5.315593712133145" fill="#CFAE58" opacity="0.14059026246972847"/>
  <circle cx="997.1672448179092" cy="267.3503522324327" r="3.8829911958539722" fill="#CFAE58" opacity="0.24077906415693248"/>
  <circle cx="534.3512497362146" cy="582.4233089050468" r="4.053642329256419" fill="#CFAE58" opacity="0.2111666528384708"/>
  <circle cx="510.1258736193853" cy="246.06721633716285" r="3.8376791378404596" fill="#CFAE58" opacity="0.1383928241141796"/>
  <circle cx="1167.1670151272099" cy="42.94944686268963" r="3.005379516321322" fill="#CFAE58" opacity="0.1292336889178098"/>
  <circle cx="132.79687347244584" cy="411.88773893172214" r="3.6748456065126263" fill="#CFAE58" opacity="0.13726700460216765"/>
  <circle cx="743.0054840588883" cy="418.7733396965132" r="5.739873818959389" fill="#CFAE58" opacity="0.20619260559107538"/>
  <circle cx="627.5409040180672" cy="395.3410000259199" r="3.948798347239706" fill="#CFAE58" opacity="0.15083729402681376"/>
  <circle cx="1016.9754906869008" cy="323.90528126011344" r="3.226935904329146" fill="#CFAE58" opacity="0.15613358450352258"/>
  <circle cx="808.567337078008" cy="80.91626565694162" r="2.115178368523781" fill="#CFAE58" opacity="0.15713633193446516"/>
  <circle cx="734.6810786449489" cy="319.96411956768566" r="5.244104298067606" fill="#CFAE58" opacity="0.2278500424462456"/>
  <circle cx="830.7666267771351" cy="274.34984695310783" r="3.7119248878586606" fill="#CFAE58" opacity="0.18133728263666782"/>
  <circle cx="523.3104993891023" cy="325.92794880240575" r="3.048552827505639" fill="#CFAE58" opacity="0.14450323967687365"/>
  <circle cx="1035.9037153916477" cy="97.2612314740226" r="2.562531410683583" fill="#CFAE58" opacity="0.16416018181620706"/>
  <circle cx="22.262377989242665" cy="187.15608019183574" r="3.1592016266901797" fill="#CFAE58" opacity="0.11332255121089935"/>
  <circle cx="49.66797870358262" cy="468.4348594993712" r="5.723809410957331" fill="#CFAE58" opacity="0.1640668375438271"/>
  <circle cx="135.31817785921936" cy="223.17447974624798" r="3.182340647753516" fill="#CFAE58" opacity="0.1844725699056673"/>
  <circle cx="991.4285704505538" cy="192.39465275807356" r="5.008212263070744" fill="#CFAE58" opacity="0.1682492014127002"/>
  <circle cx="1082.9358570166976" cy="224.26613129177238" r="5.753485344573382" fill="#CFAE58" opacity="0.13355085083890927"/>
  <circle cx="909.4270770289406" cy="124.01026546891947" r="2.7073392218707113" fill="#CFAE58" opacity="0.19217335300729632"/>
  <circle cx="353.7277196453096" cy="437.81213708154417" r="2.227058388480421" fill="#CFAE58" opacity="0.1303248146094449"/>
  <circle cx="1190.156472112271" cy="145.87603257541977" r="5.069074635943172" fill="#CFAE58" opacity="0.24363833735956641"/>
  <circle cx="491.0504364731385" cy="56.18839294111614" r="4.472426832019704" fill="#CFAE58" opacity="0.20307087574651217"/>
  <circle cx="78.55913103730114" cy="126.18519730212131" r="3.3889391336153487" fill="#CFAE58" opacity="0.12212787221995716"/>
  <circle cx="532.9075883324342" cy="62.747545204049175" r="4.986438199771875" fill="#CFAE58" opacity="0.16604098986739713"/>
  <circle cx="1163.6405213274827" cy="507.2798905412063" r="2.592052496937848" fill="#CFAE58" opacity="0.11047030646164853"/>
  <circle cx="530.9634120183027" cy="450.0568506498233" r="2.24412812335735" fill="#CFAE58" opacity="0.19726285537473137"/>
  <circle cx="888.5234489609838" cy="396.5521795806189" r="5.2316288100358435" fill="#CFAE58" opacity="0.20789696889678883"/>
  <circle cx="523.1496476157596" cy="5.101806621636489" r="3.268910521158635" fill="#CFAE58" opacity="0.2384976461163445"/>

  <!-- Border with glow -->
  <rect x="40" y="40" width="1120" height="550" fill="none" stroke="url(#goldGradient)" stroke-width="3" rx="12" filter="url(#softGlow)"/>

  <!-- Icon circle with premium background -->
  <circle cx="150" cy="200" r="75" fill="#CFAE58" opacity="0.15" filter="url(#softGlow)"/>
  <circle cx="150" cy="200" r="70" fill="#CFAE58" opacity="0.25"/>
  <text x="150" y="235" font-size="90" text-anchor="middle" fill="#CFAE58" filter="url(#glow)">⛓️</text>

  <!-- Premium logo (crown) with enhanced styling -->
  <g transform="translate(100, 70)">
    <path d="M 30 20 L 40 35 L 35 35 Z M 50 15 L 60 35 L 45 35 Z M 65 20 L 75 35 L 70 35 Z M 30 35 L 75 35 L 73 45 L 32 45 Z"
          fill="url(#goldGradient)" filter="url(#glow)" stroke="#B89842" stroke-width="0.5"/>
    <circle cx="40" cy="25" r="3" fill="#4FD1C5" filter="url(#glow)"/>
    <circle cx="52" cy="20" r="4" fill="#4FD1C5" filter="url(#glow)"/>
    <circle cx="65" cy="25" r="3" fill="#4FD1C5" filter="url(#glow)"/>
  </g>

  <!-- Title with shadow -->
  <text x="280" y="180" font-family="Georgia, serif" font-size="72" font-weight="bold"
        fill="url(#goldGradient)" filter="url(#shadow)">Tokenization &amp; Franchise</text>

  <!-- Subtitle with subtle glow -->
  <text x="280" y="230" font-family="Arial, sans-serif" font-size="36"
        fill="#D6DEE6" opacity="0.95" filter="url(#softGlow)">Blockchain-Verified Returns</text>

  <!-- Brand name with letter spacing -->
  <text x="280" y="300" font-family="Georgia, serif" font-size="32" font-weight="bold"
        fill="#CFAE58" letter-spacing="4" filter="url(#glow)">ROYAL KETA</text>

  <!-- Russian tagline -->
  <text x="280" y="340" font-family="Arial, sans-serif" font-size="22" font-style="italic"
        fill="#8B95A1" opacity="0.8">От икринки к королевской</text>

  <!-- Location -->
  <text x="280" y="380" font-family="Arial, sans-serif" font-size="20"
        fill="#8B95A1" opacity="0.7">Невельский район, Сахалин</text>

  <!-- Website with glow -->
  <text x="100" y="570" font-family="Arial, sans-serif" font-size="30" font-weight="bold"
        fill="#4FD1C5" filter="url(#glow)">royalketa.com</text>

  <!-- Enhanced decorative salmon silhouette -->
  <g transform="translate(950, 480)" opacity="0.2" filter="url(#softGlow)">
    <ellipse cx="0" cy="0" rx="90" ry="35" fill="#CFAE58"/>
    <path d="M 90 0 L 120 -18 L 130 0 L 120 18 Z" fill="#CFAE58"/>
    <path d="M -25 -35 L 0 -45 L 25 -35 Z" fill="#CFAE58"/>
    <ellipse cx="-50" cy="0" rx="15" ry="12" fill="#0B0F14"/>
  </g>

  <!-- Additional decorative caviar clusters -->
  <g opacity="0.2">
    <circle cx="1050" cy="120" r="6" fill="#CFAE58"/>
    <circle cx="1065" cy="115" r="5" fill="#CFAE58"/>
    <circle cx="1058" cy="130" r="4" fill="#CFAE58"/>
    <circle cx="150" cy="500" r="5" fill="#4FD1C5"/>
    <circle cx="165" cy="508" r="4" fill="#4FD1C5"/>
    <circle cx="140" cy="512" r="5" fill="#4FD1C5"/>
  </g>
</svg>