<svg width="1200" height="630" xmlns="http://www.w3.org/2000/svg">
  <defs>
    <linearGradient id="bgGradient" x1="0%" y1="0%" x2="100%" y2="100%">
      <stop offset="0%" style="stop-color:#0B0F14;stop-opacity:1" />
      <stop offset="50%" style="stop-color:#0F1619;stop-opacity:1" />
      <stop offset="100%" style="stop-color:#0F1922;stop-opacity:1" />
    </linearGradient>
    <linearGradient id="goldGradient" x1="0%" y1="0%" x2="100%" y2="0%">
      <stop offset="0%" style="stop-color:#E5D596;stop-opacity:1" />
      <stop offset="50%" style="stop-color:#CFAE58;stop-opacity:1" />
      <stop offset="100%" style="stop-color:#B89842;stop-opacity:1" />
    </linearGradient>
    <radialGradient id="oceanGradient" cx="50%" cy="50%" r="50%">
      <stop offset="0%" style="stop-color:#4FD1C5;stop-opacity:0.3" />
      <stop offset="100%" style="stop-color:#1E90A0;stop-opacity:0.05" />
    </radialGradient>
    <filter id="glow">
      <feGaussianBlur stdDeviation="5" result="coloredBlur"/>
      <feMerge>
        <feMergeNode in="coloredBlur"/>
        <feMergeNode in="SourceGraphic"/>
      </feMerge>
    </filter>
    <filter id="softGlow">
      <feGaussianBlur stdDeviation="8" result="coloredBlur"/>
      <feMerge>
        <feMergeNode in="coloredBlur"/>
        <feMergeNode in="SourceGraphic"/>
      </feMerge>
    </filter>
    <filter id="shadow">
      <feDropShadow dx="0" dy="4" stdDeviation="8" flood-color="#000000" flood-opacity="0.5"/>
    </filter>
  </defs>

  <!-- Background -->
  <rect width="1200" height="630" fill="url(#bgGradient)"/>

  <!-- Decorative ocean gradients -->
  <ellipse cx="1000" cy="150" rx="300" ry="200" fill="url(#oceanGradient)" opacity="0.4"/>
  <ellipse cx="200" cy="530" rx="250" ry="180" fill="url(#oceanGradient)" opacity="0.3"/>

  <!-- Wave patterns -->
  <path d="M 0 400 Q 300 350 600 400 T 1200 400 L 1200 630 L 0 630 Z" fill="#1E90A0" opacity="0.08"/>
  <path d="M 0 450 Q 250 420 500 450 T 1000 450 T 1200 450 L 1200 630 L 0 630 Z" fill="#4FD1C5" opacity="0.05"/>

  <!-- Caviar roe particles -->
  <circle cx="140.19258011757728" cy="547.6199539101631" r="5.954210397784937" fill="#CFAE58" opacity="0.1961379265076984"/>
  <circle cx="633.026056383827" cy="367.2006473946811" r="4.045313151291134" fill="#CFAE58" opacity="0.20573313783201652"/>
  <circle cx="772.5203378186292" cy="171.02864754639074" r="5.068594049320923" fill="#CFAE58" opacity="0.1145500648153239"/>
  <circle cx="631.6090610073862" cy="451.0735286720883" r="2.0030079814899953" fill="#CFAE58" opacity="0.12261260575111878"/>
  <circle cx="702.89922244864" cy="163.95830458470897" r="4.5026361779829305" fill="#CFAE58" opacity="0.21880040451327665"/>
  <circle cx="317.25971620725477" cy="263.45826591212517" r="4.5591404650487215" fill="#CFAE58" opacity="0.12813849994650192"/>
  <circle cx="170.17703773609333" cy="188.39429956243677" r="4.270584094463128" fill="#CFAE58" opacity="0.2306291045974279"/>
  <circle cx="356.78544253302175" cy="367.08155979047365" r="2.5551204582701317" fill="#CFAE58" opacity="0.12241784154357822"/>
  <circle cx="710.7012135973641" cy="186.14467101511642" r="3.2401082876860974" fill="#CFAE58" opacity="0.11291553510512806"/>
  <circle cx="872.646029753148" cy="155.19449141314405" r="2.1651661687676387" fill="#CFAE58" opacity="0.17653804508387294"/>
  <circle cx="1050.4114947005114" cy="521.8590966686636" r="3.700872109765785" fill="#CFAE58" opacity="0.24155834232863763"/>
  <circle cx="667.2809707500217" cy="227.36208174398396" r="2.2126335494885674" fill="#CFAE58" opacity="0.15577478512084797"/>
  <circle cx="1048.1075122206275" cy="377.2709338340165" r="4.662370645797743" fill="#CFAE58" opacity="0.18372731342440557"/>
  <circle cx="483.4689995096562" cy="468.4698349935934" r="3.3102038104922733" fill="#CFAE58" opacity="0.2431346732522805"/>
  <circle cx="37.78906145057772" cy="36.66464532637102" r="2.134594944225336" fill="#CFAE58" opacity="0.1529205803875021"/>
  <circle cx="327.4070391880113" cy="409.0129288509871" r="5.422057734642264" fill="#CFAE58" opacity="0.20723476630162546"/>
  <circle cx="816.5323388896948" cy="616.4619814609649" r="4.939789728113042" fill="#CFAE58" opacity="0.10890084421847084"/>
  <circle cx="975.3335075610669" cy="466.19905852798695" r="4.080933526715208" fill="#CFAE58" opacity="0.2425312958973221"/>
  <circle cx="493.82945851385307" cy="104.28843668628099" r="2.840034229638779" fill="#CFAE58" opacity="0.11031439999765627"/>
  <circle cx="859.8350393857116" cy="411.7990784665064" r="3.7740070255438756" fill="#CFAE58" opacity="0.23121287886990233"/>
  <circle cx="371.2939567820008" cy="473.54499085319884" r="5.4123069443327925" fill="#CFAE58" opacity="0.19888460096903737"/>
  <circle cx="1077.956856417253" cy="538.929135031949" r="4.5533474020382" fill="#CFAE58" opacity="0.1947101565228237"/>
  <circle cx="542.4801983604807" cy="618.1398524561512" r="2.2681406023760915" fill="#CFAE58" opacity="0.1782716411797367"/>
  <circle cx="1131.7865463760768" cy="566.5959800968401" r="5.339521771211819" fill="#CFAE58" opacity="0.1825658633910523"/>
  <circle cx="643.5295791008043" cy="511.8375084401517" r="5.947672713692389" fill="#CFAE58" opacity="0.19956641681844217"/>
  <circle cx="504.1560523811201" cy="317.6999313876256" r="5.847796970681988" fill="#CFAE58" opacity="0.15045308703026106"/>
  <circle cx="258.87602823727553" cy="76.39076922192574" r="2.594001796480077" fill="#CFAE58" opacity="0.1625012336983524"/>
  <circle cx="286.2030664263052" cy="604.5257244952267" r="5.8149553472238065" fill="#CFAE58" opacity="0.11096238628262244"/>
  <circle cx="310.49832960256674" cy="629.7279574507922" r="2.2768939368403838" fill="#CFAE58" opacity="0.1618201887133432"/>
  <circle cx="971.9339441778337" cy="401.5516572761386" r="3.948416264276242" fill="#CFAE58" opacity="0.18101410869423656"/>

  <!-- Border with glow -->
  <rect x="40" y="40" width="1120" height="550" fill="none" stroke="url(#goldGradient)" stroke-width="3" rx="12" filter="url(#softGlow)"/>

  <!-- Icon circle with premium background -->
  <circle cx="150" cy="200" r="75" fill="#CFAE58" opacity="0.15" filter="url(#softGlow)"/>
  <circle cx="150" cy="200" r="70" fill="#CFAE58" opacity="0.25"/>
  <text x="150" y="235" font-size="90" text-anchor="middle" fill="#CFAE58" filter="url(#glow)">⛓️</text>

  <!-- Premium logo (crown) with enhanced styling -->
  <g transform="translate(100, 70)">
    <path d="M 30 20 L 40 35 L 35 35 Z M 50 15 L 60 35 L 45 35 Z M 65 20 L 75 35 L 70 35 Z M 30 35 L 75 35 L 73 45 L 32 45 Z"
          fill="url(#goldGradient)" filter="url(#glow)" stroke="#B89842" stroke-width="0.5"/>
    <circle cx="40" cy="25" r="3" fill="#4FD1C5" filter="url(#glow)"/>
    <circle cx="52" cy="20" r="4" fill="#4FD1C5" filter="url(#glow)"/>
    <circle cx="65" cy="25" r="3" fill="#4FD1C5" filter="url(#glow)"/>
  </g>

  <!-- Title with shadow -->
  <text x="280" y="180" font-family="Georgia, serif" font-size="72" font-weight="bold"
        fill="url(#goldGradient)" filter="url(#shadow)">Tokenization &amp; Franchise</text>

  <!-- Subtitle with subtle glow -->
  <text x="280" y="230" font-family="Arial, sans-serif" font-size="36"
        fill="#D6DEE6" opacity="0.95" filter="url(#softGlow)">Blockchain-Verified Returns</text>

  <!-- Brand name with letter spacing -->
  <text x="280" y="300" font-family="Georgia, serif" font-size="32" font-weight="bold"
        fill="#CFAE58" letter-spacing="4" filter="url(#glow)">ROYAL KETA</text>

  <!-- Russian tagline -->
  <text x="280" y="340" font-family="Arial, sans-serif" font-size="22" font-style="italic"
        fill="#8B95A1" opacity="0.8">От икринки к королевской</text>

  <!-- Location -->
  <text x="280" y="380" font-family="Arial, sans-serif" font-size="20"
        fill="#8B95A1" opacity="0.7">Невельский район, Сахалин</text>

  <!-- Website with glow -->
  <text x="100" y="570" font-family="Arial, sans-serif" font-size="30" font-weight="bold"
        fill="#4FD1C5" filter="url(#glow)">royalketa.com</text>

  <!-- Enhanced decorative salmon silhouette -->
  <g transform="translate(950, 480)" opacity="0.2" filter="url(#softGlow)">
    <ellipse cx="0" cy="0" rx="90" ry="35" fill="#CFAE58"/>
    <path d="M 90 0 L 120 -18 L 130 0 L 120 18 Z" fill="#CFAE58"/>
    <path d="M -25 -35 L 0 -45 L 25 -35 Z" fill="#CFAE58"/>
    <ellipse cx="-50" cy="0" rx="15" ry="12" fill="#0B0F14"/>
  </g>

  <!-- Additional decorative caviar clusters -->
  <g opacity="0.2">
    <circle cx="1050" cy="120" r="6" fill="#CFAE58"/>
    <circle cx="1065" cy="115" r="5" fill="#CFAE58"/>
    <circle cx="1058" cy="130" r="4" fill="#CFAE58"/>
    <circle cx="150" cy="500" r="5" fill="#4FD1C5"/>
    <circle cx="165" cy="508" r="4" fill="#4FD1C5"/>
    <circle cx="140" cy="512" r="5" fill="#4FD1C5"/>
  </g>
</svg>