<svg width="1200" height="630" xmlns="http://www.w3.org/2000/svg">
  <defs>
    <linearGradient id="bgGradient" x1="0%" y1="0%" x2="100%" y2="100%">
      <stop offset="0%" style="stop-color:#0B0F14;stop-opacity:1" />
      <stop offset="50%" style="stop-color:#0F1619;stop-opacity:1" />
      <stop offset="100%" style="stop-color:#0F1922;stop-opacity:1" />
    </linearGradient>
    <linearGradient id="goldGradient" x1="0%" y1="0%" x2="100%" y2="0%">
      <stop offset="0%" style="stop-color:#E5D596;stop-opacity:1" />
      <stop offset="50%" style="stop-color:#CFAE58;stop-opacity:1" />
      <stop offset="100%" style="stop-color:#B89842;stop-opacity:1" />
    </linearGradient>
    <radialGradient id="oceanGradient" cx="50%" cy="50%" r="50%">
      <stop offset="0%" style="stop-color:#4FD1C5;stop-opacity:0.3" />
      <stop offset="100%" style="stop-color:#1E90A0;stop-opacity:0.05" />
    </radialGradient>
    <filter id="glow">
      <feGaussianBlur stdDeviation="5" result="coloredBlur"/>
      <feMerge>
        <feMergeNode in="coloredBlur"/>
        <feMergeNode in="SourceGraphic"/>
      </feMerge>
    </filter>
    <filter id="softGlow">
      <feGaussianBlur stdDeviation="8" result="coloredBlur"/>
      <feMerge>
        <feMergeNode in="coloredBlur"/>
        <feMergeNode in="SourceGraphic"/>
      </feMerge>
    </filter>
    <filter id="shadow">
      <feDropShadow dx="0" dy="4" stdDeviation="8" flood-color="#000000" flood-opacity="0.5"/>
    </filter>
  </defs>

  <!-- Background -->
  <rect width="1200" height="630" fill="url(#bgGradient)"/>

  <!-- Decorative ocean gradients -->
  <ellipse cx="1000" cy="150" rx="300" ry="200" fill="url(#oceanGradient)" opacity="0.4"/>
  <ellipse cx="200" cy="530" rx="250" ry="180" fill="url(#oceanGradient)" opacity="0.3"/>

  <!-- Wave patterns -->
  <path d="M 0 400 Q 300 350 600 400 T 1200 400 L 1200 630 L 0 630 Z" fill="#1E90A0" opacity="0.08"/>
  <path d="M 0 450 Q 250 420 500 450 T 1000 450 T 1200 450 L 1200 630 L 0 630 Z" fill="#4FD1C5" opacity="0.05"/>

  <!-- Caviar roe particles -->
  <circle cx="755.4836538842055" cy="35.27947898031031" r="3.410541514346431" fill="#CFAE58" opacity="0.1349354762267734"/>
  <circle cx="1141.7585236721459" cy="104.4849178007231" r="5.1468615839288026" fill="#CFAE58" opacity="0.24146374593180844"/>
  <circle cx="1152.348204255034" cy="483.10120878898323" r="5.417532881980923" fill="#CFAE58" opacity="0.22673351364701153"/>
  <circle cx="752.5003387480891" cy="380.608969593074" r="3.0118877792459458" fill="#CFAE58" opacity="0.11746849024629526"/>
  <circle cx="919.8973557948656" cy="433.35101256318546" r="4.598194991018389" fill="#CFAE58" opacity="0.15624771632438433"/>
  <circle cx="261.9628151871984" cy="429.54983456906274" r="3.9688338775862704" fill="#CFAE58" opacity="0.19238967838188029"/>
  <circle cx="373.4893329484861" cy="509.53986662609276" r="5.267996463043904" fill="#CFAE58" opacity="0.22833962029353805"/>
  <circle cx="173.05529346972713" cy="126.82613528382441" r="5.826977199985599" fill="#CFAE58" opacity="0.12710313041333451"/>
  <circle cx="190.53897077349126" cy="160.73037701385093" r="4.225020839974272" fill="#CFAE58" opacity="0.2122184295693381"/>
  <circle cx="438.9932760606583" cy="154.0842823076375" r="3.9362597927816054" fill="#CFAE58" opacity="0.19623290085908165"/>
  <circle cx="674.4916469959172" cy="205.0754019673115" r="2.799986331750232" fill="#CFAE58" opacity="0.23276613673269986"/>
  <circle cx="899.12473175091" cy="36.450257966712776" r="4.940403009184449" fill="#CFAE58" opacity="0.17642089467611316"/>
  <circle cx="873.3715318557453" cy="627.6108432156087" r="2.916389703640076" fill="#CFAE58" opacity="0.2431988512472548"/>
  <circle cx="276.00158982292686" cy="286.1347329126959" r="3.070893783455056" fill="#CFAE58" opacity="0.1293400945282603"/>
  <circle cx="665.5076954807382" cy="459.088688290399" r="3.5740605961184087" fill="#CFAE58" opacity="0.15750067355644237"/>
  <circle cx="671.7572505510498" cy="319.2870709646649" r="4.131692660264481" fill="#CFAE58" opacity="0.24952190455495427"/>
  <circle cx="494.16534203014567" cy="123.52171715399325" r="5.103540237972423" fill="#CFAE58" opacity="0.23388938419966168"/>
  <circle cx="226.11323415235412" cy="614.9869277029885" r="2.120824721419842" fill="#CFAE58" opacity="0.14012714732557002"/>
  <circle cx="872.3852600110624" cy="312.28367880339715" r="2.1483763707815067" fill="#CFAE58" opacity="0.1541730613401949"/>
  <circle cx="30.65333264020156" cy="274.31403776968955" r="3.317346210961839" fill="#CFAE58" opacity="0.16246468399001146"/>
  <circle cx="601.7996900032088" cy="388.41247120993734" r="2.8789692632239263" fill="#CFAE58" opacity="0.1893587453115182"/>
  <circle cx="135.8228781585272" cy="237.62788575596397" r="5.19756111655448" fill="#CFAE58" opacity="0.22052725043131038"/>
  <circle cx="748.0339936054248" cy="201.59875742808129" r="5.332828572388795" fill="#CFAE58" opacity="0.12808715705430238"/>
  <circle cx="308.57916816874507" cy="601.7473293326337" r="4.687872933862732" fill="#CFAE58" opacity="0.24668964689043182"/>
  <circle cx="296.46869825825803" cy="104.45187668657923" r="4.473413249499023" fill="#CFAE58" opacity="0.20432155175712513"/>
  <circle cx="852.6553058783078" cy="21.694826780958113" r="4.070221530799863" fill="#CFAE58" opacity="0.16035404659460448"/>
  <circle cx="275.3699631901438" cy="462.26534682404707" r="2.3781254763815842" fill="#CFAE58" opacity="0.22468367455414523"/>
  <circle cx="1071.59016005048" cy="411.8255581477736" r="5.984089250154222" fill="#CFAE58" opacity="0.17301874420881191"/>
  <circle cx="772.7882124817794" cy="484.57525975068" r="4.835790077755915" fill="#CFAE58" opacity="0.24712418093168478"/>
  <circle cx="330.83811308772204" cy="552.7962993627666" r="4.324778174963738" fill="#CFAE58" opacity="0.13348071518982216"/>

  <!-- Border with glow -->
  <rect x="40" y="40" width="1120" height="550" fill="none" stroke="url(#goldGradient)" stroke-width="3" rx="12" filter="url(#softGlow)"/>

  <!-- Icon circle with premium background -->
  <circle cx="150" cy="200" r="75" fill="#CFAE58" opacity="0.15" filter="url(#softGlow)"/>
  <circle cx="150" cy="200" r="70" fill="#CFAE58" opacity="0.25"/>
  <text x="150" y="235" font-size="90" text-anchor="middle" fill="#CFAE58" filter="url(#glow)">⛓️</text>

  <!-- Premium logo (crown) with enhanced styling -->
  <g transform="translate(100, 70)">
    <path d="M 30 20 L 40 35 L 35 35 Z M 50 15 L 60 35 L 45 35 Z M 65 20 L 75 35 L 70 35 Z M 30 35 L 75 35 L 73 45 L 32 45 Z"
          fill="url(#goldGradient)" filter="url(#glow)" stroke="#B89842" stroke-width="0.5"/>
    <circle cx="40" cy="25" r="3" fill="#4FD1C5" filter="url(#glow)"/>
    <circle cx="52" cy="20" r="4" fill="#4FD1C5" filter="url(#glow)"/>
    <circle cx="65" cy="25" r="3" fill="#4FD1C5" filter="url(#glow)"/>
  </g>

  <!-- Title with shadow -->
  <text x="280" y="180" font-family="Georgia, serif" font-size="72" font-weight="bold"
        fill="url(#goldGradient)" filter="url(#shadow)">Tokenization &amp; Franchise</text>

  <!-- Subtitle with subtle glow -->
  <text x="280" y="230" font-family="Arial, sans-serif" font-size="36"
        fill="#D6DEE6" opacity="0.95" filter="url(#softGlow)">Blockchain-Verified Returns</text>

  <!-- Brand name with letter spacing -->
  <text x="280" y="300" font-family="Georgia, serif" font-size="32" font-weight="bold"
        fill="#CFAE58" letter-spacing="4" filter="url(#glow)">ROYAL KETA</text>

  <!-- Russian tagline -->
  <text x="280" y="340" font-family="Arial, sans-serif" font-size="22" font-style="italic"
        fill="#8B95A1" opacity="0.8">От икринки к королевской</text>

  <!-- Location -->
  <text x="280" y="380" font-family="Arial, sans-serif" font-size="20"
        fill="#8B95A1" opacity="0.7">Невельский район, Сахалин</text>

  <!-- Website with glow -->
  <text x="100" y="570" font-family="Arial, sans-serif" font-size="30" font-weight="bold"
        fill="#4FD1C5" filter="url(#glow)">royalketa.com</text>

  <!-- Enhanced decorative salmon silhouette -->
  <g transform="translate(950, 480)" opacity="0.2" filter="url(#softGlow)">
    <ellipse cx="0" cy="0" rx="90" ry="35" fill="#CFAE58"/>
    <path d="M 90 0 L 120 -18 L 130 0 L 120 18 Z" fill="#CFAE58"/>
    <path d="M -25 -35 L 0 -45 L 25 -35 Z" fill="#CFAE58"/>
    <ellipse cx="-50" cy="0" rx="15" ry="12" fill="#0B0F14"/>
  </g>

  <!-- Additional decorative caviar clusters -->
  <g opacity="0.2">
    <circle cx="1050" cy="120" r="6" fill="#CFAE58"/>
    <circle cx="1065" cy="115" r="5" fill="#CFAE58"/>
    <circle cx="1058" cy="130" r="4" fill="#CFAE58"/>
    <circle cx="150" cy="500" r="5" fill="#4FD1C5"/>
    <circle cx="165" cy="508" r="4" fill="#4FD1C5"/>
    <circle cx="140" cy="512" r="5" fill="#4FD1C5"/>
  </g>
</svg>