<svg width="1200" height="630" xmlns="http://www.w3.org/2000/svg">
  <defs>
    <linearGradient id="bgGradient" x1="0%" y1="0%" x2="100%" y2="100%">
      <stop offset="0%" style="stop-color:#0B0F14;stop-opacity:1" />
      <stop offset="50%" style="stop-color:#0F1619;stop-opacity:1" />
      <stop offset="100%" style="stop-color:#0F1922;stop-opacity:1" />
    </linearGradient>
    <linearGradient id="goldGradient" x1="0%" y1="0%" x2="100%" y2="0%">
      <stop offset="0%" style="stop-color:#E5D596;stop-opacity:1" />
      <stop offset="50%" style="stop-color:#CFAE58;stop-opacity:1" />
      <stop offset="100%" style="stop-color:#B89842;stop-opacity:1" />
    </linearGradient>
    <radialGradient id="oceanGradient" cx="50%" cy="50%" r="50%">
      <stop offset="0%" style="stop-color:#4FD1C5;stop-opacity:0.3" />
      <stop offset="100%" style="stop-color:#1E90A0;stop-opacity:0.05" />
    </radialGradient>
    <filter id="glow">
      <feGaussianBlur stdDeviation="5" result="coloredBlur"/>
      <feMerge>
        <feMergeNode in="coloredBlur"/>
        <feMergeNode in="SourceGraphic"/>
      </feMerge>
    </filter>
    <filter id="softGlow">
      <feGaussianBlur stdDeviation="8" result="coloredBlur"/>
      <feMerge>
        <feMergeNode in="coloredBlur"/>
        <feMergeNode in="SourceGraphic"/>
      </feMerge>
    </filter>
    <filter id="shadow">
      <feDropShadow dx="0" dy="4" stdDeviation="8" flood-color="#000000" flood-opacity="0.5"/>
    </filter>
  </defs>

  <!-- Background -->
  <rect width="1200" height="630" fill="url(#bgGradient)"/>

  <!-- Decorative ocean gradients -->
  <ellipse cx="1000" cy="150" rx="300" ry="200" fill="url(#oceanGradient)" opacity="0.4"/>
  <ellipse cx="200" cy="530" rx="250" ry="180" fill="url(#oceanGradient)" opacity="0.3"/>

  <!-- Wave patterns -->
  <path d="M 0 400 Q 300 350 600 400 T 1200 400 L 1200 630 L 0 630 Z" fill="#1E90A0" opacity="0.08"/>
  <path d="M 0 450 Q 250 420 500 450 T 1000 450 T 1200 450 L 1200 630 L 0 630 Z" fill="#4FD1C5" opacity="0.05"/>

  <!-- Caviar roe particles -->
  <circle cx="593.5365413183066" cy="225.30781402652502" r="2.0917564049448893" fill="#CFAE58" opacity="0.12023414649447751"/>
  <circle cx="784.1389418332661" cy="497.6182135065067" r="4.852896146312123" fill="#CFAE58" opacity="0.16312364501195886"/>
  <circle cx="535.1703191306707" cy="128.8610485445117" r="5.149803429623693" fill="#CFAE58" opacity="0.1230937454828586"/>
  <circle cx="1091.412309277335" cy="74.47045764751543" r="5.958664439253054" fill="#CFAE58" opacity="0.1964958181407701"/>
  <circle cx="624.0264219234001" cy="570.925767225631" r="2.1217133497482807" fill="#CFAE58" opacity="0.169531862527536"/>
  <circle cx="688.7095769204099" cy="476.4869431420458" r="2.436854020745289" fill="#CFAE58" opacity="0.20137620806279807"/>
  <circle cx="121.40760667546519" cy="601.200411216305" r="5.147699901557459" fill="#CFAE58" opacity="0.11867899542241617"/>
  <circle cx="252.8892357143762" cy="140.1269944287551" r="3.7643468341035367" fill="#CFAE58" opacity="0.19468923650030068"/>
  <circle cx="1129.3028542446675" cy="486.3295992026703" r="2.026048281917711" fill="#CFAE58" opacity="0.18686670626901997"/>
  <circle cx="901.0500433813436" cy="345.17944242085275" r="2.723965827720569" fill="#CFAE58" opacity="0.1728780484616491"/>
  <circle cx="773.3902255796014" cy="377.7840855804257" r="2.195202441888917" fill="#CFAE58" opacity="0.2081155391507964"/>
  <circle cx="28.276162005878234" cy="463.407119129965" r="3.934903028562642" fill="#CFAE58" opacity="0.19746332851721238"/>
  <circle cx="804.2041484686132" cy="40.34374748862903" r="4.542438554137763" fill="#CFAE58" opacity="0.23587366937785945"/>
  <circle cx="1067.7832103866187" cy="315.6124943498814" r="5.852013389491466" fill="#CFAE58" opacity="0.21095819109360237"/>
  <circle cx="1065.8005225645595" cy="400.4212965845841" r="3.9179383429341215" fill="#CFAE58" opacity="0.1912770974312079"/>
  <circle cx="50.04729097716223" cy="130.96453601007656" r="5.227812739198065" fill="#CFAE58" opacity="0.24229875273110013"/>
  <circle cx="161.5661313128768" cy="15.777685468405249" r="3.8691393500268196" fill="#CFAE58" opacity="0.22825743558842368"/>
  <circle cx="1074.694244702271" cy="186.95370391763137" r="2.923108856478737" fill="#CFAE58" opacity="0.12406564387099023"/>
  <circle cx="1068.2757775539537" cy="139.6082563762635" r="3.7703016587776954" fill="#CFAE58" opacity="0.24018918844300405"/>
  <circle cx="54.20345083726983" cy="200.15572747044186" r="5.421512842638554" fill="#CFAE58" opacity="0.21155967492074326"/>
  <circle cx="986.8714873257749" cy="502.8840786814002" r="2.574815381501395" fill="#CFAE58" opacity="0.12573251897584428"/>
  <circle cx="802.7321778861715" cy="580.1341288491104" r="3.337275544345283" fill="#CFAE58" opacity="0.23790680170936368"/>
  <circle cx="789.4562370908142" cy="136.35127738137322" r="2.279306201127847" fill="#CFAE58" opacity="0.1867486243980549"/>
  <circle cx="803.0528329692255" cy="89.52614748802442" r="5.775953528652423" fill="#CFAE58" opacity="0.2382392151845278"/>
  <circle cx="583.4414576367067" cy="52.557966921112794" r="5.361654635588767" fill="#CFAE58" opacity="0.19491921762256478"/>
  <circle cx="573.4631608524827" cy="413.9607685244859" r="5.171107814791577" fill="#CFAE58" opacity="0.18808404723432137"/>
  <circle cx="333.57821615468004" cy="484.6887951341789" r="4.855524638860841" fill="#CFAE58" opacity="0.2075557370021536"/>
  <circle cx="927.8803494240794" cy="437.7269234012628" r="4.6496166544929896" fill="#CFAE58" opacity="0.1822699948316708"/>
  <circle cx="72.57931223302955" cy="205.38147245244912" r="5.507951133981027" fill="#CFAE58" opacity="0.22905635421977993"/>
  <circle cx="244.81988454710296" cy="429.53417594333837" r="2.9977248411954815" fill="#CFAE58" opacity="0.221087331322458"/>

  <!-- Border with glow -->
  <rect x="40" y="40" width="1120" height="550" fill="none" stroke="url(#goldGradient)" stroke-width="3" rx="12" filter="url(#softGlow)"/>

  <!-- Icon circle with premium background -->
  <circle cx="150" cy="200" r="75" fill="#CFAE58" opacity="0.15" filter="url(#softGlow)"/>
  <circle cx="150" cy="200" r="70" fill="#CFAE58" opacity="0.25"/>
  <text x="150" y="235" font-size="90" text-anchor="middle" fill="#CFAE58" filter="url(#glow)">⛓️</text>

  <!-- Premium logo (crown) with enhanced styling -->
  <g transform="translate(100, 70)">
    <path d="M 30 20 L 40 35 L 35 35 Z M 50 15 L 60 35 L 45 35 Z M 65 20 L 75 35 L 70 35 Z M 30 35 L 75 35 L 73 45 L 32 45 Z"
          fill="url(#goldGradient)" filter="url(#glow)" stroke="#B89842" stroke-width="0.5"/>
    <circle cx="40" cy="25" r="3" fill="#4FD1C5" filter="url(#glow)"/>
    <circle cx="52" cy="20" r="4" fill="#4FD1C5" filter="url(#glow)"/>
    <circle cx="65" cy="25" r="3" fill="#4FD1C5" filter="url(#glow)"/>
  </g>

  <!-- Title with shadow -->
  <text x="280" y="180" font-family="Georgia, serif" font-size="72" font-weight="bold"
        fill="url(#goldGradient)" filter="url(#shadow)">Tokenization &amp; Franchise</text>

  <!-- Subtitle with subtle glow -->
  <text x="280" y="230" font-family="Arial, sans-serif" font-size="36"
        fill="#D6DEE6" opacity="0.95" filter="url(#softGlow)">Blockchain-Verified Returns</text>

  <!-- Brand name with letter spacing -->
  <text x="280" y="300" font-family="Georgia, serif" font-size="32" font-weight="bold"
        fill="#CFAE58" letter-spacing="4" filter="url(#glow)">ROYAL KETA</text>

  <!-- Russian tagline -->
  <text x="280" y="340" font-family="Arial, sans-serif" font-size="22" font-style="italic"
        fill="#8B95A1" opacity="0.8">От икринки к королевской</text>

  <!-- Location -->
  <text x="280" y="380" font-family="Arial, sans-serif" font-size="20"
        fill="#8B95A1" opacity="0.7">Невельский район, Сахалин</text>

  <!-- Website with glow -->
  <text x="100" y="570" font-family="Arial, sans-serif" font-size="30" font-weight="bold"
        fill="#4FD1C5" filter="url(#glow)">royalketa.com</text>

  <!-- Enhanced decorative salmon silhouette -->
  <g transform="translate(950, 480)" opacity="0.2" filter="url(#softGlow)">
    <ellipse cx="0" cy="0" rx="90" ry="35" fill="#CFAE58"/>
    <path d="M 90 0 L 120 -18 L 130 0 L 120 18 Z" fill="#CFAE58"/>
    <path d="M -25 -35 L 0 -45 L 25 -35 Z" fill="#CFAE58"/>
    <ellipse cx="-50" cy="0" rx="15" ry="12" fill="#0B0F14"/>
  </g>

  <!-- Additional decorative caviar clusters -->
  <g opacity="0.2">
    <circle cx="1050" cy="120" r="6" fill="#CFAE58"/>
    <circle cx="1065" cy="115" r="5" fill="#CFAE58"/>
    <circle cx="1058" cy="130" r="4" fill="#CFAE58"/>
    <circle cx="150" cy="500" r="5" fill="#4FD1C5"/>
    <circle cx="165" cy="508" r="4" fill="#4FD1C5"/>
    <circle cx="140" cy="512" r="5" fill="#4FD1C5"/>
  </g>
</svg>