<svg width="1200" height="630" xmlns="http://www.w3.org/2000/svg">
  <defs>
    <linearGradient id="bgGradient" x1="0%" y1="0%" x2="100%" y2="100%">
      <stop offset="0%" style="stop-color:#0B0F14;stop-opacity:1" />
      <stop offset="50%" style="stop-color:#0F1619;stop-opacity:1" />
      <stop offset="100%" style="stop-color:#0F1922;stop-opacity:1" />
    </linearGradient>
    <linearGradient id="goldGradient" x1="0%" y1="0%" x2="100%" y2="0%">
      <stop offset="0%" style="stop-color:#E5D596;stop-opacity:1" />
      <stop offset="50%" style="stop-color:#CFAE58;stop-opacity:1" />
      <stop offset="100%" style="stop-color:#B89842;stop-opacity:1" />
    </linearGradient>
    <radialGradient id="oceanGradient" cx="50%" cy="50%" r="50%">
      <stop offset="0%" style="stop-color:#4FD1C5;stop-opacity:0.3" />
      <stop offset="100%" style="stop-color:#1E90A0;stop-opacity:0.05" />
    </radialGradient>
    <filter id="glow">
      <feGaussianBlur stdDeviation="5" result="coloredBlur"/>
      <feMerge>
        <feMergeNode in="coloredBlur"/>
        <feMergeNode in="SourceGraphic"/>
      </feMerge>
    </filter>
    <filter id="softGlow">
      <feGaussianBlur stdDeviation="8" result="coloredBlur"/>
      <feMerge>
        <feMergeNode in="coloredBlur"/>
        <feMergeNode in="SourceGraphic"/>
      </feMerge>
    </filter>
    <filter id="shadow">
      <feDropShadow dx="0" dy="4" stdDeviation="8" flood-color="#000000" flood-opacity="0.5"/>
    </filter>
  </defs>

  <!-- Background -->
  <rect width="1200" height="630" fill="url(#bgGradient)"/>

  <!-- Decorative ocean gradients -->
  <ellipse cx="1000" cy="150" rx="300" ry="200" fill="url(#oceanGradient)" opacity="0.4"/>
  <ellipse cx="200" cy="530" rx="250" ry="180" fill="url(#oceanGradient)" opacity="0.3"/>

  <!-- Wave patterns -->
  <path d="M 0 400 Q 300 350 600 400 T 1200 400 L 1200 630 L 0 630 Z" fill="#1E90A0" opacity="0.08"/>
  <path d="M 0 450 Q 250 420 500 450 T 1000 450 T 1200 450 L 1200 630 L 0 630 Z" fill="#4FD1C5" opacity="0.05"/>

  <!-- Caviar roe particles -->
  <circle cx="251.0486590279534" cy="297.65601131754363" r="2.672389221298322" fill="#CFAE58" opacity="0.13216239324041837"/>
  <circle cx="332.04279276189607" cy="199.10771261318715" r="3.3716927803211396" fill="#CFAE58" opacity="0.23461384567969912"/>
  <circle cx="183.42269659069706" cy="512.0921248941311" r="4.8881212768702715" fill="#CFAE58" opacity="0.24759206607514322"/>
  <circle cx="395.9334026601498" cy="89.48247122787508" r="4.456531012639771" fill="#CFAE58" opacity="0.13166833329523078"/>
  <circle cx="1167.88019954331" cy="532.03324518739" r="4.192835176846228" fill="#CFAE58" opacity="0.14987458596984457"/>
  <circle cx="853.2028820201434" cy="588.0421762753473" r="4.97664351474979" fill="#CFAE58" opacity="0.19989883858116664"/>
  <circle cx="435.1187155619894" cy="441.87393547826684" r="5.239484846698242" fill="#CFAE58" opacity="0.23171129720833114"/>
  <circle cx="317.4634584071354" cy="398.6145730319667" r="2.966768204440098" fill="#CFAE58" opacity="0.22212783035093922"/>
  <circle cx="773.9649701920713" cy="540.0412497768489" r="5.46562416038232" fill="#CFAE58" opacity="0.15984906632950208"/>
  <circle cx="824.2299669823943" cy="177.1778535364168" r="2.871926724727829" fill="#CFAE58" opacity="0.15093702945392057"/>
  <circle cx="846.9186045438576" cy="105.3927846822686" r="3.292682075447611" fill="#CFAE58" opacity="0.2075930740533763"/>
  <circle cx="16.945109437330697" cy="104.1048824680593" r="4.480188711398042" fill="#CFAE58" opacity="0.24729882438552753"/>
  <circle cx="37.30393173852811" cy="543.6352824969721" r="5.078334864357856" fill="#CFAE58" opacity="0.11396100620382793"/>
  <circle cx="728.8894111399302" cy="607.0461309244677" r="5.473272181298052" fill="#CFAE58" opacity="0.20186397767953768"/>
  <circle cx="100.1102545017936" cy="270.1648574938099" r="5.843649173950273" fill="#CFAE58" opacity="0.179054769049327"/>
  <circle cx="79.8769545502263" cy="191.71256262724975" r="4.317567722402842" fill="#CFAE58" opacity="0.17895944785245177"/>
  <circle cx="151.67944885041146" cy="2.7105500990227815" r="4.344217641788159" fill="#CFAE58" opacity="0.21169090560886217"/>
  <circle cx="947.7786377022704" cy="524.4081947781073" r="5.176079191983789" fill="#CFAE58" opacity="0.24937829752255872"/>
  <circle cx="443.8850524049799" cy="365.59425591708975" r="3.6035173770323707" fill="#CFAE58" opacity="0.17843446973380722"/>
  <circle cx="477.4975098464591" cy="142.29148817413073" r="4.988266891244946" fill="#CFAE58" opacity="0.11402824938688103"/>
  <circle cx="127.317910588771" cy="63.357956727257374" r="4.106753118820877" fill="#CFAE58" opacity="0.1307676852618093"/>
  <circle cx="1187.8338302609723" cy="498.9459166826848" r="5.517611904011884" fill="#CFAE58" opacity="0.20512137885444243"/>
  <circle cx="568.1047682530995" cy="462.9203428051266" r="5.129445100915009" fill="#CFAE58" opacity="0.19478425683199552"/>
  <circle cx="86.54114975969085" cy="77.294576812849" r="5.718103827761151" fill="#CFAE58" opacity="0.2107318038867555"/>
  <circle cx="818.959951243784" cy="198.4458499803352" r="4.861595766977784" fill="#CFAE58" opacity="0.1033323207515141"/>
  <circle cx="95.11751910065422" cy="412.39363777952553" r="3.896168132336653" fill="#CFAE58" opacity="0.22957004336089798"/>
  <circle cx="896.3300935856101" cy="48.12301452827178" r="2.784909066760167" fill="#CFAE58" opacity="0.2102415731338519"/>
  <circle cx="0.9293396990604386" cy="227.33247189507836" r="2.0720192655662775" fill="#CFAE58" opacity="0.22771834440158759"/>
  <circle cx="85.12642045919839" cy="400.5511043763721" r="3.3079699936782507" fill="#CFAE58" opacity="0.18022952929152108"/>
  <circle cx="185.64548311653581" cy="315.5103309523577" r="2.60416770171552" fill="#CFAE58" opacity="0.22870199958956428"/>

  <!-- Border with glow -->
  <rect x="40" y="40" width="1120" height="550" fill="none" stroke="url(#goldGradient)" stroke-width="3" rx="12" filter="url(#softGlow)"/>

  <!-- Icon circle with premium background -->
  <circle cx="150" cy="200" r="75" fill="#CFAE58" opacity="0.15" filter="url(#softGlow)"/>
  <circle cx="150" cy="200" r="70" fill="#CFAE58" opacity="0.25"/>
  <text x="150" y="235" font-size="90" text-anchor="middle" fill="#CFAE58" filter="url(#glow)">⛓️</text>

  <!-- Premium logo (crown) with enhanced styling -->
  <g transform="translate(100, 70)">
    <path d="M 30 20 L 40 35 L 35 35 Z M 50 15 L 60 35 L 45 35 Z M 65 20 L 75 35 L 70 35 Z M 30 35 L 75 35 L 73 45 L 32 45 Z"
          fill="url(#goldGradient)" filter="url(#glow)" stroke="#B89842" stroke-width="0.5"/>
    <circle cx="40" cy="25" r="3" fill="#4FD1C5" filter="url(#glow)"/>
    <circle cx="52" cy="20" r="4" fill="#4FD1C5" filter="url(#glow)"/>
    <circle cx="65" cy="25" r="3" fill="#4FD1C5" filter="url(#glow)"/>
  </g>

  <!-- Title with shadow -->
  <text x="280" y="180" font-family="Georgia, serif" font-size="72" font-weight="bold"
        fill="url(#goldGradient)" filter="url(#shadow)">Tokenization &amp; Franchise</text>

  <!-- Subtitle with subtle glow -->
  <text x="280" y="230" font-family="Arial, sans-serif" font-size="36"
        fill="#D6DEE6" opacity="0.95" filter="url(#softGlow)">Blockchain-Verified Returns</text>

  <!-- Brand name with letter spacing -->
  <text x="280" y="300" font-family="Georgia, serif" font-size="32" font-weight="bold"
        fill="#CFAE58" letter-spacing="4" filter="url(#glow)">ROYAL KETA</text>

  <!-- Russian tagline -->
  <text x="280" y="340" font-family="Arial, sans-serif" font-size="22" font-style="italic"
        fill="#8B95A1" opacity="0.8">От икринки к королевской</text>

  <!-- Location -->
  <text x="280" y="380" font-family="Arial, sans-serif" font-size="20"
        fill="#8B95A1" opacity="0.7">Невельский район, Сахалин</text>

  <!-- Website with glow -->
  <text x="100" y="570" font-family="Arial, sans-serif" font-size="30" font-weight="bold"
        fill="#4FD1C5" filter="url(#glow)">royalketa.com</text>

  <!-- Enhanced decorative salmon silhouette -->
  <g transform="translate(950, 480)" opacity="0.2" filter="url(#softGlow)">
    <ellipse cx="0" cy="0" rx="90" ry="35" fill="#CFAE58"/>
    <path d="M 90 0 L 120 -18 L 130 0 L 120 18 Z" fill="#CFAE58"/>
    <path d="M -25 -35 L 0 -45 L 25 -35 Z" fill="#CFAE58"/>
    <ellipse cx="-50" cy="0" rx="15" ry="12" fill="#0B0F14"/>
  </g>

  <!-- Additional decorative caviar clusters -->
  <g opacity="0.2">
    <circle cx="1050" cy="120" r="6" fill="#CFAE58"/>
    <circle cx="1065" cy="115" r="5" fill="#CFAE58"/>
    <circle cx="1058" cy="130" r="4" fill="#CFAE58"/>
    <circle cx="150" cy="500" r="5" fill="#4FD1C5"/>
    <circle cx="165" cy="508" r="4" fill="#4FD1C5"/>
    <circle cx="140" cy="512" r="5" fill="#4FD1C5"/>
  </g>
</svg>