<svg width="1200" height="630" xmlns="http://www.w3.org/2000/svg">
  <defs>
    <linearGradient id="bgGradient" x1="0%" y1="0%" x2="100%" y2="100%">
      <stop offset="0%" style="stop-color:#0B0F14;stop-opacity:1" />
      <stop offset="50%" style="stop-color:#0F1619;stop-opacity:1" />
      <stop offset="100%" style="stop-color:#0F1922;stop-opacity:1" />
    </linearGradient>
    <linearGradient id="goldGradient" x1="0%" y1="0%" x2="100%" y2="0%">
      <stop offset="0%" style="stop-color:#E5D596;stop-opacity:1" />
      <stop offset="50%" style="stop-color:#CFAE58;stop-opacity:1" />
      <stop offset="100%" style="stop-color:#B89842;stop-opacity:1" />
    </linearGradient>
    <radialGradient id="oceanGradient" cx="50%" cy="50%" r="50%">
      <stop offset="0%" style="stop-color:#4FD1C5;stop-opacity:0.3" />
      <stop offset="100%" style="stop-color:#1E90A0;stop-opacity:0.05" />
    </radialGradient>
    <filter id="glow">
      <feGaussianBlur stdDeviation="5" result="coloredBlur"/>
      <feMerge>
        <feMergeNode in="coloredBlur"/>
        <feMergeNode in="SourceGraphic"/>
      </feMerge>
    </filter>
    <filter id="softGlow">
      <feGaussianBlur stdDeviation="8" result="coloredBlur"/>
      <feMerge>
        <feMergeNode in="coloredBlur"/>
        <feMergeNode in="SourceGraphic"/>
      </feMerge>
    </filter>
    <filter id="shadow">
      <feDropShadow dx="0" dy="4" stdDeviation="8" flood-color="#000000" flood-opacity="0.5"/>
    </filter>
  </defs>

  <!-- Background -->
  <rect width="1200" height="630" fill="url(#bgGradient)"/>

  <!-- Decorative ocean gradients -->
  <ellipse cx="1000" cy="150" rx="300" ry="200" fill="url(#oceanGradient)" opacity="0.4"/>
  <ellipse cx="200" cy="530" rx="250" ry="180" fill="url(#oceanGradient)" opacity="0.3"/>

  <!-- Wave patterns -->
  <path d="M 0 400 Q 300 350 600 400 T 1200 400 L 1200 630 L 0 630 Z" fill="#1E90A0" opacity="0.08"/>
  <path d="M 0 450 Q 250 420 500 450 T 1000 450 T 1200 450 L 1200 630 L 0 630 Z" fill="#4FD1C5" opacity="0.05"/>

  <!-- Caviar roe particles -->
  <circle cx="1123.1053432902465" cy="574.5476779529099" r="4.715080580069525" fill="#CFAE58" opacity="0.20491887869308492"/>
  <circle cx="660.302148424786" cy="106.96990261138615" r="2.214014370175434" fill="#CFAE58" opacity="0.16946337187790028"/>
  <circle cx="160.38012711585523" cy="623.0773111965427" r="4.250494627407897" fill="#CFAE58" opacity="0.21931596965459924"/>
  <circle cx="660.1817381557305" cy="532.6378549965166" r="3.426544696018393" fill="#CFAE58" opacity="0.16629245779491048"/>
  <circle cx="353.04585168639784" cy="14.20005164200941" r="5.726575672773626" fill="#CFAE58" opacity="0.15882455514267774"/>
  <circle cx="312.4916242287835" cy="108.4557147899092" r="4.0656327801659415" fill="#CFAE58" opacity="0.13650399901179233"/>
  <circle cx="1159.4135715582408" cy="204.79806534407743" r="3.1719469715479907" fill="#CFAE58" opacity="0.11718217768340748"/>
  <circle cx="144.32305578654683" cy="407.9964195863975" r="5.871722841243153" fill="#CFAE58" opacity="0.18835805837142422"/>
  <circle cx="259.00430732141126" cy="509.294683263795" r="5.92709732596582" fill="#CFAE58" opacity="0.12189515947617842"/>
  <circle cx="440.3961919081168" cy="121.02875958835185" r="4.980517301922541" fill="#CFAE58" opacity="0.16169820846774505"/>
  <circle cx="546.417087197489" cy="541.3947864392742" r="4.953316722851626" fill="#CFAE58" opacity="0.17904977575504477"/>
  <circle cx="88.41836371292722" cy="479.1262618201697" r="5.527869793858616" fill="#CFAE58" opacity="0.23571292345117464"/>
  <circle cx="552.6664426743772" cy="223.89708083079867" r="5.427128769996074" fill="#CFAE58" opacity="0.2112551731266289"/>
  <circle cx="517.0210411646531" cy="281.476307890432" r="3.4130846378640687" fill="#CFAE58" opacity="0.12982834765483692"/>
  <circle cx="669.6774816256994" cy="84.59229467536211" r="5.343295800457505" fill="#CFAE58" opacity="0.1423766449066292"/>
  <circle cx="929.168323188645" cy="393.2838479790664" r="5.252712983369956" fill="#CFAE58" opacity="0.17366016858721656"/>
  <circle cx="1020.8529645517042" cy="177.06838011655853" r="3.0566057518924366" fill="#CFAE58" opacity="0.21603995727373385"/>
  <circle cx="322.4562771849087" cy="34.452340903684984" r="5.005424278653466" fill="#CFAE58" opacity="0.11351298429019112"/>
  <circle cx="988.1996185687711" cy="591.561385662112" r="4.8244655550630045" fill="#CFAE58" opacity="0.24621114264096872"/>
  <circle cx="271.2729628627255" cy="59.67404276930239" r="5.183875043207322" fill="#CFAE58" opacity="0.24910938461586404"/>
  <circle cx="744.994449978022" cy="91.54196875188447" r="2.37364705690997" fill="#CFAE58" opacity="0.11083857645100356"/>
  <circle cx="1028.131037258678" cy="229.88493619757233" r="2.9500287677033414" fill="#CFAE58" opacity="0.133723330695287"/>
  <circle cx="629.5069473121805" cy="424.8933169477128" r="4.434165330876655" fill="#CFAE58" opacity="0.18270773400694895"/>
  <circle cx="301.94096631498076" cy="457.06690404984147" r="5.460097858004326" fill="#CFAE58" opacity="0.12352172673608423"/>
  <circle cx="519.4209491465408" cy="203.16365959585107" r="5.515516692301576" fill="#CFAE58" opacity="0.16208911283376942"/>
  <circle cx="394.02392340636953" cy="350.73584219287557" r="5.75736816776998" fill="#CFAE58" opacity="0.21911709385792025"/>
  <circle cx="423.5504162036635" cy="462.1075467332232" r="2.237046209563032" fill="#CFAE58" opacity="0.16043122102121266"/>
  <circle cx="1116.0527978756086" cy="216.09528168893536" r="4.646014244296805" fill="#CFAE58" opacity="0.10706838871322379"/>
  <circle cx="380.6625301886288" cy="183.20624440190764" r="3.979422759104316" fill="#CFAE58" opacity="0.12443918195171264"/>
  <circle cx="591.1965122542351" cy="253.4541215208785" r="5.670213196472722" fill="#CFAE58" opacity="0.12199979416844564"/>

  <!-- Border with glow -->
  <rect x="40" y="40" width="1120" height="550" fill="none" stroke="url(#goldGradient)" stroke-width="3" rx="12" filter="url(#softGlow)"/>

  <!-- Icon circle with premium background -->
  <circle cx="150" cy="200" r="75" fill="#CFAE58" opacity="0.15" filter="url(#softGlow)"/>
  <circle cx="150" cy="200" r="70" fill="#CFAE58" opacity="0.25"/>
  <text x="150" y="235" font-size="90" text-anchor="middle" fill="#CFAE58" filter="url(#glow)">⛓️</text>

  <!-- Premium logo (crown) with enhanced styling -->
  <g transform="translate(100, 70)">
    <path d="M 30 20 L 40 35 L 35 35 Z M 50 15 L 60 35 L 45 35 Z M 65 20 L 75 35 L 70 35 Z M 30 35 L 75 35 L 73 45 L 32 45 Z"
          fill="url(#goldGradient)" filter="url(#glow)" stroke="#B89842" stroke-width="0.5"/>
    <circle cx="40" cy="25" r="3" fill="#4FD1C5" filter="url(#glow)"/>
    <circle cx="52" cy="20" r="4" fill="#4FD1C5" filter="url(#glow)"/>
    <circle cx="65" cy="25" r="3" fill="#4FD1C5" filter="url(#glow)"/>
  </g>

  <!-- Title with shadow -->
  <text x="280" y="180" font-family="Georgia, serif" font-size="72" font-weight="bold"
        fill="url(#goldGradient)" filter="url(#shadow)">Tokenization &amp; Franchise</text>

  <!-- Subtitle with subtle glow -->
  <text x="280" y="230" font-family="Arial, sans-serif" font-size="36"
        fill="#D6DEE6" opacity="0.95" filter="url(#softGlow)">Blockchain-Verified Returns</text>

  <!-- Brand name with letter spacing -->
  <text x="280" y="300" font-family="Georgia, serif" font-size="32" font-weight="bold"
        fill="#CFAE58" letter-spacing="4" filter="url(#glow)">ROYAL KETA</text>

  <!-- Russian tagline -->
  <text x="280" y="340" font-family="Arial, sans-serif" font-size="22" font-style="italic"
        fill="#8B95A1" opacity="0.8">От икринки к королевской</text>

  <!-- Location -->
  <text x="280" y="380" font-family="Arial, sans-serif" font-size="20"
        fill="#8B95A1" opacity="0.7">Невельский район, Сахалин</text>

  <!-- Website with glow -->
  <text x="100" y="570" font-family="Arial, sans-serif" font-size="30" font-weight="bold"
        fill="#4FD1C5" filter="url(#glow)">royalketa.com</text>

  <!-- Enhanced decorative salmon silhouette -->
  <g transform="translate(950, 480)" opacity="0.2" filter="url(#softGlow)">
    <ellipse cx="0" cy="0" rx="90" ry="35" fill="#CFAE58"/>
    <path d="M 90 0 L 120 -18 L 130 0 L 120 18 Z" fill="#CFAE58"/>
    <path d="M -25 -35 L 0 -45 L 25 -35 Z" fill="#CFAE58"/>
    <ellipse cx="-50" cy="0" rx="15" ry="12" fill="#0B0F14"/>
  </g>

  <!-- Additional decorative caviar clusters -->
  <g opacity="0.2">
    <circle cx="1050" cy="120" r="6" fill="#CFAE58"/>
    <circle cx="1065" cy="115" r="5" fill="#CFAE58"/>
    <circle cx="1058" cy="130" r="4" fill="#CFAE58"/>
    <circle cx="150" cy="500" r="5" fill="#4FD1C5"/>
    <circle cx="165" cy="508" r="4" fill="#4FD1C5"/>
    <circle cx="140" cy="512" r="5" fill="#4FD1C5"/>
  </g>
</svg>