<svg width="1200" height="630" xmlns="http://www.w3.org/2000/svg">
  <defs>
    <linearGradient id="bgGradient" x1="0%" y1="0%" x2="100%" y2="100%">
      <stop offset="0%" style="stop-color:#0B0F14;stop-opacity:1" />
      <stop offset="50%" style="stop-color:#0F1619;stop-opacity:1" />
      <stop offset="100%" style="stop-color:#0F1922;stop-opacity:1" />
    </linearGradient>
    <linearGradient id="goldGradient" x1="0%" y1="0%" x2="100%" y2="0%">
      <stop offset="0%" style="stop-color:#E5D596;stop-opacity:1" />
      <stop offset="50%" style="stop-color:#CFAE58;stop-opacity:1" />
      <stop offset="100%" style="stop-color:#B89842;stop-opacity:1" />
    </linearGradient>
    <radialGradient id="oceanGradient" cx="50%" cy="50%" r="50%">
      <stop offset="0%" style="stop-color:#4FD1C5;stop-opacity:0.3" />
      <stop offset="100%" style="stop-color:#1E90A0;stop-opacity:0.05" />
    </radialGradient>
    <filter id="glow">
      <feGaussianBlur stdDeviation="5" result="coloredBlur"/>
      <feMerge>
        <feMergeNode in="coloredBlur"/>
        <feMergeNode in="SourceGraphic"/>
      </feMerge>
    </filter>
    <filter id="softGlow">
      <feGaussianBlur stdDeviation="8" result="coloredBlur"/>
      <feMerge>
        <feMergeNode in="coloredBlur"/>
        <feMergeNode in="SourceGraphic"/>
      </feMerge>
    </filter>
    <filter id="shadow">
      <feDropShadow dx="0" dy="4" stdDeviation="8" flood-color="#000000" flood-opacity="0.5"/>
    </filter>
  </defs>

  <!-- Background -->
  <rect width="1200" height="630" fill="url(#bgGradient)"/>

  <!-- Decorative ocean gradients -->
  <ellipse cx="1000" cy="150" rx="300" ry="200" fill="url(#oceanGradient)" opacity="0.4"/>
  <ellipse cx="200" cy="530" rx="250" ry="180" fill="url(#oceanGradient)" opacity="0.3"/>

  <!-- Wave patterns -->
  <path d="M 0 400 Q 300 350 600 400 T 1200 400 L 1200 630 L 0 630 Z" fill="#1E90A0" opacity="0.08"/>
  <path d="M 0 450 Q 250 420 500 450 T 1000 450 T 1200 450 L 1200 630 L 0 630 Z" fill="#4FD1C5" opacity="0.05"/>

  <!-- Caviar roe particles -->
  <circle cx="714.9132643471787" cy="373.99990335653507" r="5.206496123788695" fill="#CFAE58" opacity="0.11884125733605494"/>
  <circle cx="260.23719604047756" cy="492.30862980756916" r="4.749343545159359" fill="#CFAE58" opacity="0.21504192303518888"/>
  <circle cx="872.2320297868604" cy="274.54233691508733" r="5.7405911590443885" fill="#CFAE58" opacity="0.15987575474579838"/>
  <circle cx="954.4470206544152" cy="222.70244954637928" r="3.209823542382145" fill="#CFAE58" opacity="0.21098359821911922"/>
  <circle cx="370.23149672716386" cy="513.7810953794191" r="2.549617642663958" fill="#CFAE58" opacity="0.1271392679120852"/>
  <circle cx="636.3231957468205" cy="81.65888506586644" r="2.2376917184385" fill="#CFAE58" opacity="0.24018729487509646"/>
  <circle cx="1159.075082389026" cy="570.9523654794324" r="2.357098597333" fill="#CFAE58" opacity="0.18277515980542397"/>
  <circle cx="378.9707842904694" cy="402.9942489818633" r="4.497952187022351" fill="#CFAE58" opacity="0.11159374451999787"/>
  <circle cx="1053.0217301267412" cy="14.768175360138196" r="4.5884343442584985" fill="#CFAE58" opacity="0.15385135358109642"/>
  <circle cx="187.00359108436206" cy="403.40268146391696" r="3.6593789723410164" fill="#CFAE58" opacity="0.1635496970498329"/>
  <circle cx="445.6413363148201" cy="523.7205336056584" r="4.165659430172301" fill="#CFAE58" opacity="0.1438863232269835"/>
  <circle cx="349.50392858275217" cy="457.96979890210923" r="2.2892112174738983" fill="#CFAE58" opacity="0.2254967062759853"/>
  <circle cx="414.65486708179674" cy="517.2306153234401" r="2.1663143653136556" fill="#CFAE58" opacity="0.16916075375666745"/>
  <circle cx="833.2261279748896" cy="92.86253062549429" r="5.067880779775259" fill="#CFAE58" opacity="0.1437803864940139"/>
  <circle cx="899.4242465452396" cy="519.7245817793637" r="3.8606491606103153" fill="#CFAE58" opacity="0.22327776781190414"/>
  <circle cx="120.36105219088289" cy="501.66820766823014" r="4.4356967389280975" fill="#CFAE58" opacity="0.13718955101801006"/>
  <circle cx="963.9540783568423" cy="534.041474813153" r="4.6453512868046" fill="#CFAE58" opacity="0.15025918149898992"/>
  <circle cx="141.80315293160083" cy="457.41511301927414" r="3.4142823165553926" fill="#CFAE58" opacity="0.20463968490609724"/>
  <circle cx="458.2854564236108" cy="324.7733281259874" r="4.047026815350316" fill="#CFAE58" opacity="0.1682879231248906"/>
  <circle cx="58.586595187654346" cy="518.1205951648762" r="4.313889166111195" fill="#CFAE58" opacity="0.23888495570951915"/>
  <circle cx="693.1879402729974" cy="184.83513747025776" r="3.1709072925916915" fill="#CFAE58" opacity="0.12963950397627977"/>
  <circle cx="1118.1530842202362" cy="201.79871913917137" r="4.244104003687198" fill="#CFAE58" opacity="0.1840982375266803"/>
  <circle cx="145.10409175911275" cy="253.17472568370408" r="4.521129536079242" fill="#CFAE58" opacity="0.12205210119219646"/>
  <circle cx="768.1499223164078" cy="595.14368826183" r="3.2970795650783087" fill="#CFAE58" opacity="0.15577635750342977"/>
  <circle cx="106.22421797685675" cy="511.9216833150104" r="2.541312165624779" fill="#CFAE58" opacity="0.12137378762839722"/>
  <circle cx="841.6725695017681" cy="426.4117377326802" r="5.868772464475725" fill="#CFAE58" opacity="0.20179939805839073"/>
  <circle cx="206.17114246900394" cy="113.00558744499304" r="5.007464778453497" fill="#CFAE58" opacity="0.15299161168836767"/>
  <circle cx="858.9148774066614" cy="545.5322099076217" r="2.999832312434305" fill="#CFAE58" opacity="0.19080363758785995"/>
  <circle cx="228.53931212944042" cy="233.51689011629338" r="4.322677602092318" fill="#CFAE58" opacity="0.14938997538258095"/>
  <circle cx="210.50647572642535" cy="72.1407664883849" r="5.201260561773955" fill="#CFAE58" opacity="0.17229035497764528"/>

  <!-- Border with glow -->
  <rect x="40" y="40" width="1120" height="550" fill="none" stroke="url(#goldGradient)" stroke-width="3" rx="12" filter="url(#softGlow)"/>

  <!-- Icon circle with premium background -->
  <circle cx="150" cy="200" r="75" fill="#CFAE58" opacity="0.15" filter="url(#softGlow)"/>
  <circle cx="150" cy="200" r="70" fill="#CFAE58" opacity="0.25"/>
  <text x="150" y="235" font-size="90" text-anchor="middle" fill="#CFAE58" filter="url(#glow)">⛓️</text>

  <!-- Premium logo (crown) with enhanced styling -->
  <g transform="translate(100, 70)">
    <path d="M 30 20 L 40 35 L 35 35 Z M 50 15 L 60 35 L 45 35 Z M 65 20 L 75 35 L 70 35 Z M 30 35 L 75 35 L 73 45 L 32 45 Z"
          fill="url(#goldGradient)" filter="url(#glow)" stroke="#B89842" stroke-width="0.5"/>
    <circle cx="40" cy="25" r="3" fill="#4FD1C5" filter="url(#glow)"/>
    <circle cx="52" cy="20" r="4" fill="#4FD1C5" filter="url(#glow)"/>
    <circle cx="65" cy="25" r="3" fill="#4FD1C5" filter="url(#glow)"/>
  </g>

  <!-- Title with shadow -->
  <text x="280" y="180" font-family="Georgia, serif" font-size="72" font-weight="bold"
        fill="url(#goldGradient)" filter="url(#shadow)">Tokenization &amp; Franchise</text>

  <!-- Subtitle with subtle glow -->
  <text x="280" y="230" font-family="Arial, sans-serif" font-size="36"
        fill="#D6DEE6" opacity="0.95" filter="url(#softGlow)">Blockchain-Verified Returns</text>

  <!-- Brand name with letter spacing -->
  <text x="280" y="300" font-family="Georgia, serif" font-size="32" font-weight="bold"
        fill="#CFAE58" letter-spacing="4" filter="url(#glow)">ROYAL KETA</text>

  <!-- Russian tagline -->
  <text x="280" y="340" font-family="Arial, sans-serif" font-size="22" font-style="italic"
        fill="#8B95A1" opacity="0.8">От икринки к королевской</text>

  <!-- Location -->
  <text x="280" y="380" font-family="Arial, sans-serif" font-size="20"
        fill="#8B95A1" opacity="0.7">Невельский район, Сахалин</text>

  <!-- Website with glow -->
  <text x="100" y="570" font-family="Arial, sans-serif" font-size="30" font-weight="bold"
        fill="#4FD1C5" filter="url(#glow)">royalketa.com</text>

  <!-- Enhanced decorative salmon silhouette -->
  <g transform="translate(950, 480)" opacity="0.2" filter="url(#softGlow)">
    <ellipse cx="0" cy="0" rx="90" ry="35" fill="#CFAE58"/>
    <path d="M 90 0 L 120 -18 L 130 0 L 120 18 Z" fill="#CFAE58"/>
    <path d="M -25 -35 L 0 -45 L 25 -35 Z" fill="#CFAE58"/>
    <ellipse cx="-50" cy="0" rx="15" ry="12" fill="#0B0F14"/>
  </g>

  <!-- Additional decorative caviar clusters -->
  <g opacity="0.2">
    <circle cx="1050" cy="120" r="6" fill="#CFAE58"/>
    <circle cx="1065" cy="115" r="5" fill="#CFAE58"/>
    <circle cx="1058" cy="130" r="4" fill="#CFAE58"/>
    <circle cx="150" cy="500" r="5" fill="#4FD1C5"/>
    <circle cx="165" cy="508" r="4" fill="#4FD1C5"/>
    <circle cx="140" cy="512" r="5" fill="#4FD1C5"/>
  </g>
</svg>