<svg width="1200" height="630" xmlns="http://www.w3.org/2000/svg">
  <defs>
    <linearGradient id="bgGradient" x1="0%" y1="0%" x2="100%" y2="100%">
      <stop offset="0%" style="stop-color:#0B0F14;stop-opacity:1" />
      <stop offset="50%" style="stop-color:#0F1619;stop-opacity:1" />
      <stop offset="100%" style="stop-color:#0F1922;stop-opacity:1" />
    </linearGradient>
    <linearGradient id="goldGradient" x1="0%" y1="0%" x2="100%" y2="0%">
      <stop offset="0%" style="stop-color:#E5D596;stop-opacity:1" />
      <stop offset="50%" style="stop-color:#CFAE58;stop-opacity:1" />
      <stop offset="100%" style="stop-color:#B89842;stop-opacity:1" />
    </linearGradient>
    <radialGradient id="oceanGradient" cx="50%" cy="50%" r="50%">
      <stop offset="0%" style="stop-color:#4FD1C5;stop-opacity:0.3" />
      <stop offset="100%" style="stop-color:#1E90A0;stop-opacity:0.05" />
    </radialGradient>
    <filter id="glow">
      <feGaussianBlur stdDeviation="5" result="coloredBlur"/>
      <feMerge>
        <feMergeNode in="coloredBlur"/>
        <feMergeNode in="SourceGraphic"/>
      </feMerge>
    </filter>
    <filter id="softGlow">
      <feGaussianBlur stdDeviation="8" result="coloredBlur"/>
      <feMerge>
        <feMergeNode in="coloredBlur"/>
        <feMergeNode in="SourceGraphic"/>
      </feMerge>
    </filter>
    <filter id="shadow">
      <feDropShadow dx="0" dy="4" stdDeviation="8" flood-color="#000000" flood-opacity="0.5"/>
    </filter>
  </defs>

  <!-- Background -->
  <rect width="1200" height="630" fill="url(#bgGradient)"/>

  <!-- Decorative ocean gradients -->
  <ellipse cx="1000" cy="150" rx="300" ry="200" fill="url(#oceanGradient)" opacity="0.4"/>
  <ellipse cx="200" cy="530" rx="250" ry="180" fill="url(#oceanGradient)" opacity="0.3"/>

  <!-- Wave patterns -->
  <path d="M 0 400 Q 300 350 600 400 T 1200 400 L 1200 630 L 0 630 Z" fill="#1E90A0" opacity="0.08"/>
  <path d="M 0 450 Q 250 420 500 450 T 1000 450 T 1200 450 L 1200 630 L 0 630 Z" fill="#4FD1C5" opacity="0.05"/>

  <!-- Caviar roe particles -->
  <circle cx="6.88350409580476" cy="201.59161363894967" r="3.43103220135833" fill="#CFAE58" opacity="0.1116972941117731"/>
  <circle cx="1173.9486258863346" cy="220.56022326442837" r="5.955121216931938" fill="#CFAE58" opacity="0.15128773361596792"/>
  <circle cx="803.6799441078139" cy="567.9868310134174" r="2.6880361469685585" fill="#CFAE58" opacity="0.19002093063221243"/>
  <circle cx="421.9259170777202" cy="146.38349681170104" r="2.5370370208383433" fill="#CFAE58" opacity="0.24308458434603414"/>
  <circle cx="869.0922880635856" cy="217.55392578504714" r="5.426732648635211" fill="#CFAE58" opacity="0.14581673981847526"/>
  <circle cx="554.6092826045922" cy="457.2361122513076" r="4.69873923649288" fill="#CFAE58" opacity="0.13535573769854886"/>
  <circle cx="628.1398901357484" cy="218.08720923739068" r="2.7178311113881737" fill="#CFAE58" opacity="0.13047907213335402"/>
  <circle cx="279.69448102984256" cy="181.5331391452921" r="5.981351160686669" fill="#CFAE58" opacity="0.19634305374242023"/>
  <circle cx="283.3919622956603" cy="27.21920752291753" r="5.948535821977764" fill="#CFAE58" opacity="0.22123341961027285"/>
  <circle cx="1041.1793121889143" cy="368.1849930619739" r="4.24402654937031" fill="#CFAE58" opacity="0.24147626017983773"/>
  <circle cx="59.76155099329334" cy="328.56821407116706" r="5.335245304336107" fill="#CFAE58" opacity="0.2141368908508023"/>
  <circle cx="601.9902124023589" cy="325.03907310905225" r="3.522114941986457" fill="#CFAE58" opacity="0.11743473359943345"/>
  <circle cx="390.69860276593874" cy="492.4250115158051" r="5.177474171113271" fill="#CFAE58" opacity="0.22605666809594377"/>
  <circle cx="817.1902221661273" cy="321.68834442443654" r="5.775584156170438" fill="#CFAE58" opacity="0.1355177994493204"/>
  <circle cx="961.492109370616" cy="436.5088832008396" r="5.7105496246937175" fill="#CFAE58" opacity="0.23135197285146727"/>
  <circle cx="74.91488606564856" cy="449.88167634740944" r="2.9601099570748213" fill="#CFAE58" opacity="0.1513906394158125"/>
  <circle cx="878.1906822425842" cy="522.6799201002452" r="5.68692375124145" fill="#CFAE58" opacity="0.1295354137655514"/>
  <circle cx="535.1591592859038" cy="573.0289858497268" r="5.05671660848162" fill="#CFAE58" opacity="0.24572661210304692"/>
  <circle cx="678.4032827274012" cy="331.8113944288228" r="5.5575256156982515" fill="#CFAE58" opacity="0.10775291455842476"/>
  <circle cx="363.18235021287694" cy="123.963601689532" r="2.5683390413928615" fill="#CFAE58" opacity="0.17585522398294962"/>
  <circle cx="693.5424634465555" cy="531.7135892487971" r="2.8383953540141187" fill="#CFAE58" opacity="0.12188267323631351"/>
  <circle cx="733.8116953971962" cy="36.133883185448695" r="2.5468591169538968" fill="#CFAE58" opacity="0.1866661742134461"/>
  <circle cx="134.8034876390435" cy="524.0735955351938" r="3.9176162230777045" fill="#CFAE58" opacity="0.24436944146947362"/>
  <circle cx="267.0366817232625" cy="273.24724766254764" r="4.967687565963163" fill="#CFAE58" opacity="0.2134649707422155"/>
  <circle cx="283.1842304030605" cy="177.54511328624764" r="3.8421092064360733" fill="#CFAE58" opacity="0.22626200169812122"/>
  <circle cx="634.166643291373" cy="87.97336749262632" r="4.2566891696426605" fill="#CFAE58" opacity="0.10170863316530912"/>
  <circle cx="711.0783966869793" cy="63.92703376626124" r="2.927682737057359" fill="#CFAE58" opacity="0.21240461376385505"/>
  <circle cx="269.99212339312567" cy="612.4798264209963" r="5.212692761597199" fill="#CFAE58" opacity="0.13780810464973622"/>
  <circle cx="418.6041111168869" cy="404.0215107613221" r="5.77210762360057" fill="#CFAE58" opacity="0.10951692947211467"/>
  <circle cx="1034.3170512200593" cy="195.4433720968321" r="2.8255713714385067" fill="#CFAE58" opacity="0.14449491838235812"/>

  <!-- Border with glow -->
  <rect x="40" y="40" width="1120" height="550" fill="none" stroke="url(#goldGradient)" stroke-width="3" rx="12" filter="url(#softGlow)"/>

  <!-- Icon circle with premium background -->
  <circle cx="150" cy="200" r="75" fill="#CFAE58" opacity="0.15" filter="url(#softGlow)"/>
  <circle cx="150" cy="200" r="70" fill="#CFAE58" opacity="0.25"/>
  <text x="150" y="235" font-size="90" text-anchor="middle" fill="#CFAE58" filter="url(#glow)">⛓️</text>

  <!-- Premium logo (crown) with enhanced styling -->
  <g transform="translate(100, 70)">
    <path d="M 30 20 L 40 35 L 35 35 Z M 50 15 L 60 35 L 45 35 Z M 65 20 L 75 35 L 70 35 Z M 30 35 L 75 35 L 73 45 L 32 45 Z"
          fill="url(#goldGradient)" filter="url(#glow)" stroke="#B89842" stroke-width="0.5"/>
    <circle cx="40" cy="25" r="3" fill="#4FD1C5" filter="url(#glow)"/>
    <circle cx="52" cy="20" r="4" fill="#4FD1C5" filter="url(#glow)"/>
    <circle cx="65" cy="25" r="3" fill="#4FD1C5" filter="url(#glow)"/>
  </g>

  <!-- Title with shadow -->
  <text x="280" y="180" font-family="Georgia, serif" font-size="72" font-weight="bold"
        fill="url(#goldGradient)" filter="url(#shadow)">Tokenization &amp; Franchise</text>

  <!-- Subtitle with subtle glow -->
  <text x="280" y="230" font-family="Arial, sans-serif" font-size="36"
        fill="#D6DEE6" opacity="0.95" filter="url(#softGlow)">Blockchain-Verified Returns</text>

  <!-- Brand name with letter spacing -->
  <text x="280" y="300" font-family="Georgia, serif" font-size="32" font-weight="bold"
        fill="#CFAE58" letter-spacing="4" filter="url(#glow)">ROYAL KETA</text>

  <!-- Russian tagline -->
  <text x="280" y="340" font-family="Arial, sans-serif" font-size="22" font-style="italic"
        fill="#8B95A1" opacity="0.8">От икринки к королевской</text>

  <!-- Location -->
  <text x="280" y="380" font-family="Arial, sans-serif" font-size="20"
        fill="#8B95A1" opacity="0.7">Невельский район, Сахалин</text>

  <!-- Website with glow -->
  <text x="100" y="570" font-family="Arial, sans-serif" font-size="30" font-weight="bold"
        fill="#4FD1C5" filter="url(#glow)">royalketa.com</text>

  <!-- Enhanced decorative salmon silhouette -->
  <g transform="translate(950, 480)" opacity="0.2" filter="url(#softGlow)">
    <ellipse cx="0" cy="0" rx="90" ry="35" fill="#CFAE58"/>
    <path d="M 90 0 L 120 -18 L 130 0 L 120 18 Z" fill="#CFAE58"/>
    <path d="M -25 -35 L 0 -45 L 25 -35 Z" fill="#CFAE58"/>
    <ellipse cx="-50" cy="0" rx="15" ry="12" fill="#0B0F14"/>
  </g>

  <!-- Additional decorative caviar clusters -->
  <g opacity="0.2">
    <circle cx="1050" cy="120" r="6" fill="#CFAE58"/>
    <circle cx="1065" cy="115" r="5" fill="#CFAE58"/>
    <circle cx="1058" cy="130" r="4" fill="#CFAE58"/>
    <circle cx="150" cy="500" r="5" fill="#4FD1C5"/>
    <circle cx="165" cy="508" r="4" fill="#4FD1C5"/>
    <circle cx="140" cy="512" r="5" fill="#4FD1C5"/>
  </g>
</svg>