<svg width="1200" height="630" xmlns="http://www.w3.org/2000/svg">
  <defs>
    <linearGradient id="bgGradient" x1="0%" y1="0%" x2="100%" y2="100%">
      <stop offset="0%" style="stop-color:#0B0F14;stop-opacity:1" />
      <stop offset="50%" style="stop-color:#0F1619;stop-opacity:1" />
      <stop offset="100%" style="stop-color:#0F1922;stop-opacity:1" />
    </linearGradient>
    <linearGradient id="goldGradient" x1="0%" y1="0%" x2="100%" y2="0%">
      <stop offset="0%" style="stop-color:#E5D596;stop-opacity:1" />
      <stop offset="50%" style="stop-color:#CFAE58;stop-opacity:1" />
      <stop offset="100%" style="stop-color:#B89842;stop-opacity:1" />
    </linearGradient>
    <radialGradient id="oceanGradient" cx="50%" cy="50%" r="50%">
      <stop offset="0%" style="stop-color:#4FD1C5;stop-opacity:0.3" />
      <stop offset="100%" style="stop-color:#1E90A0;stop-opacity:0.05" />
    </radialGradient>
    <filter id="glow">
      <feGaussianBlur stdDeviation="5" result="coloredBlur"/>
      <feMerge>
        <feMergeNode in="coloredBlur"/>
        <feMergeNode in="SourceGraphic"/>
      </feMerge>
    </filter>
    <filter id="softGlow">
      <feGaussianBlur stdDeviation="8" result="coloredBlur"/>
      <feMerge>
        <feMergeNode in="coloredBlur"/>
        <feMergeNode in="SourceGraphic"/>
      </feMerge>
    </filter>
    <filter id="shadow">
      <feDropShadow dx="0" dy="4" stdDeviation="8" flood-color="#000000" flood-opacity="0.5"/>
    </filter>
  </defs>

  <!-- Background -->
  <rect width="1200" height="630" fill="url(#bgGradient)"/>

  <!-- Decorative ocean gradients -->
  <ellipse cx="1000" cy="150" rx="300" ry="200" fill="url(#oceanGradient)" opacity="0.4"/>
  <ellipse cx="200" cy="530" rx="250" ry="180" fill="url(#oceanGradient)" opacity="0.3"/>

  <!-- Wave patterns -->
  <path d="M 0 400 Q 300 350 600 400 T 1200 400 L 1200 630 L 0 630 Z" fill="#1E90A0" opacity="0.08"/>
  <path d="M 0 450 Q 250 420 500 450 T 1000 450 T 1200 450 L 1200 630 L 0 630 Z" fill="#4FD1C5" opacity="0.05"/>

  <!-- Caviar roe particles -->
  <circle cx="550.4919072680714" cy="501.85667364429" r="3.1253342453329314" fill="#CFAE58" opacity="0.21259572383166492"/>
  <circle cx="938.0213142502025" cy="416.23494105684887" r="3.6574888437391273" fill="#CFAE58" opacity="0.2146056592903294"/>
  <circle cx="450.5304032683862" cy="529.1984029664736" r="4.094274135525911" fill="#CFAE58" opacity="0.1560647676707257"/>
  <circle cx="613.1643329247199" cy="339.02277926088" r="3.2454878179860085" fill="#CFAE58" opacity="0.1804991777348287"/>
  <circle cx="1045.8965922485" cy="9.609607537704006" r="3.4434735786195425" fill="#CFAE58" opacity="0.12067327775097124"/>
  <circle cx="930.7725513672017" cy="46.46025638648164" r="5.080682309985164" fill="#CFAE58" opacity="0.19201801345438257"/>
  <circle cx="828.4210551130113" cy="189.8372337410078" r="4.90072453810874" fill="#CFAE58" opacity="0.24853594366179357"/>
  <circle cx="996.6874930194953" cy="97.62850711330262" r="2.597232262041902" fill="#CFAE58" opacity="0.228028646512285"/>
  <circle cx="1139.9808970537356" cy="510.4494843605249" r="3.086323965106863" fill="#CFAE58" opacity="0.10073405883806354"/>
  <circle cx="246.23471810799094" cy="426.9107420318592" r="5.94823522366334" fill="#CFAE58" opacity="0.23352552705012955"/>
  <circle cx="319.207341348146" cy="286.0433857454313" r="4.746923267715487" fill="#CFAE58" opacity="0.10033629280937525"/>
  <circle cx="50.85949610521317" cy="619.1595691580263" r="2.2005848839750053" fill="#CFAE58" opacity="0.15621246085260931"/>
  <circle cx="1093.5822098297165" cy="145.67923526683143" r="5.207095204380305" fill="#CFAE58" opacity="0.14414484629925536"/>
  <circle cx="1049.1351629286917" cy="237.76404985510848" r="5.047243349806538" fill="#CFAE58" opacity="0.2130474279252775"/>
  <circle cx="540.2865085779674" cy="561.3747317551537" r="5.5288741412131" fill="#CFAE58" opacity="0.15471422695404458"/>
  <circle cx="1150.4145081119632" cy="95.24871722320036" r="4.573508008234128" fill="#CFAE58" opacity="0.22452211388286164"/>
  <circle cx="319.41779185849555" cy="556.2017991685924" r="3.0965756774638855" fill="#CFAE58" opacity="0.2132292639284812"/>
  <circle cx="841.4484794663011" cy="530.4650850925537" r="4.348095868311047" fill="#CFAE58" opacity="0.2122782706051633"/>
  <circle cx="527.0907426240319" cy="84.70497066159145" r="2.463680892640779" fill="#CFAE58" opacity="0.18957075451733152"/>
  <circle cx="742.8447397677257" cy="267.17764990125494" r="3.5446002785082174" fill="#CFAE58" opacity="0.21857128320900818"/>
  <circle cx="407.28721528985085" cy="385.9506727493651" r="5.917003245148653" fill="#CFAE58" opacity="0.22920779699244714"/>
  <circle cx="998.0642722049183" cy="216.10951370779304" r="3.19133320268842" fill="#CFAE58" opacity="0.21090869279468002"/>
  <circle cx="779.6701441338732" cy="151.71994749398607" r="3.6193098953249576" fill="#CFAE58" opacity="0.23252969478506796"/>
  <circle cx="329.60325695419164" cy="214.89215593912368" r="3.9523536822658274" fill="#CFAE58" opacity="0.14714850456240286"/>
  <circle cx="760.8602368269093" cy="496.86358416621624" r="3.308942423107082" fill="#CFAE58" opacity="0.11720081917975098"/>
  <circle cx="719.730211280156" cy="117.21902154702464" r="4.252644609660469" fill="#CFAE58" opacity="0.24905003769660944"/>
  <circle cx="52.80973642757196" cy="314.33591629539177" r="3.29539449158945" fill="#CFAE58" opacity="0.16217006942818774"/>
  <circle cx="60.244732435348695" cy="240.16438580387688" r="4.018241368990488" fill="#CFAE58" opacity="0.20319297280807658"/>
  <circle cx="294.7434513879314" cy="156.27679309793743" r="2.4381270956540666" fill="#CFAE58" opacity="0.23793459745705514"/>
  <circle cx="252.68279454926096" cy="304.8499580768184" r="2.300604993904966" fill="#CFAE58" opacity="0.1820594470587874"/>

  <!-- Border with glow -->
  <rect x="40" y="40" width="1120" height="550" fill="none" stroke="url(#goldGradient)" stroke-width="3" rx="12" filter="url(#softGlow)"/>

  <!-- Icon circle with premium background -->
  <circle cx="150" cy="200" r="75" fill="#CFAE58" opacity="0.15" filter="url(#softGlow)"/>
  <circle cx="150" cy="200" r="70" fill="#CFAE58" opacity="0.25"/>
  <text x="150" y="235" font-size="90" text-anchor="middle" fill="#CFAE58" filter="url(#glow)">⛓️</text>

  <!-- Premium logo (crown) with enhanced styling -->
  <g transform="translate(100, 70)">
    <path d="M 30 20 L 40 35 L 35 35 Z M 50 15 L 60 35 L 45 35 Z M 65 20 L 75 35 L 70 35 Z M 30 35 L 75 35 L 73 45 L 32 45 Z"
          fill="url(#goldGradient)" filter="url(#glow)" stroke="#B89842" stroke-width="0.5"/>
    <circle cx="40" cy="25" r="3" fill="#4FD1C5" filter="url(#glow)"/>
    <circle cx="52" cy="20" r="4" fill="#4FD1C5" filter="url(#glow)"/>
    <circle cx="65" cy="25" r="3" fill="#4FD1C5" filter="url(#glow)"/>
  </g>

  <!-- Title with shadow -->
  <text x="280" y="180" font-family="Georgia, serif" font-size="72" font-weight="bold"
        fill="url(#goldGradient)" filter="url(#shadow)">Tokenization & Franchise</text>

  <!-- Subtitle with subtle glow -->
  <text x="280" y="230" font-family="Arial, sans-serif" font-size="36"
        fill="#D6DEE6" opacity="0.95" filter="url(#softGlow)">Blockchain-Verified Returns</text>

  <!-- Brand name with letter spacing -->
  <text x="280" y="300" font-family="Georgia, serif" font-size="32" font-weight="bold"
        fill="#CFAE58" letter-spacing="4" filter="url(#glow)">ROYAL KETA</text>

  <!-- Russian tagline -->
  <text x="280" y="340" font-family="Arial, sans-serif" font-size="22" font-style="italic"
        fill="#8B95A1" opacity="0.8">От икринки к королевской</text>

  <!-- Location -->
  <text x="280" y="380" font-family="Arial, sans-serif" font-size="20"
        fill="#8B95A1" opacity="0.7">Невельский район, Сахалин</text>

  <!-- Website with glow -->
  <text x="100" y="570" font-family="Arial, sans-serif" font-size="30" font-weight="bold"
        fill="#4FD1C5" filter="url(#glow)">royalketa.com</text>

  <!-- Enhanced decorative salmon silhouette -->
  <g transform="translate(950, 480)" opacity="0.2" filter="url(#softGlow)">
    <ellipse cx="0" cy="0" rx="90" ry="35" fill="#CFAE58"/>
    <path d="M 90 0 L 120 -18 L 130 0 L 120 18 Z" fill="#CFAE58"/>
    <path d="M -25 -35 L 0 -45 L 25 -35 Z" fill="#CFAE58"/>
    <ellipse cx="-50" cy="0" rx="15" ry="12" fill="#0B0F14"/>
  </g>

  <!-- Additional decorative caviar clusters -->
  <g opacity="0.2">
    <circle cx="1050" cy="120" r="6" fill="#CFAE58"/>
    <circle cx="1065" cy="115" r="5" fill="#CFAE58"/>
    <circle cx="1058" cy="130" r="4" fill="#CFAE58"/>
    <circle cx="150" cy="500" r="5" fill="#4FD1C5"/>
    <circle cx="165" cy="508" r="4" fill="#4FD1C5"/>
    <circle cx="140" cy="512" r="5" fill="#4FD1C5"/>
  </g>
</svg>