<svg width="1200" height="630" xmlns="http://www.w3.org/2000/svg">
  <defs>
    <linearGradient id="bgGradient" x1="0%" y1="0%" x2="100%" y2="100%">
      <stop offset="0%" style="stop-color:#0B0F14;stop-opacity:1" />
      <stop offset="50%" style="stop-color:#0F1619;stop-opacity:1" />
      <stop offset="100%" style="stop-color:#0F1922;stop-opacity:1" />
    </linearGradient>
    <linearGradient id="goldGradient" x1="0%" y1="0%" x2="100%" y2="0%">
      <stop offset="0%" style="stop-color:#E5D596;stop-opacity:1" />
      <stop offset="50%" style="stop-color:#CFAE58;stop-opacity:1" />
      <stop offset="100%" style="stop-color:#B89842;stop-opacity:1" />
    </linearGradient>
    <radialGradient id="oceanGradient" cx="50%" cy="50%" r="50%">
      <stop offset="0%" style="stop-color:#4FD1C5;stop-opacity:0.3" />
      <stop offset="100%" style="stop-color:#1E90A0;stop-opacity:0.05" />
    </radialGradient>
    <filter id="glow">
      <feGaussianBlur stdDeviation="5" result="coloredBlur"/>
      <feMerge>
        <feMergeNode in="coloredBlur"/>
        <feMergeNode in="SourceGraphic"/>
      </feMerge>
    </filter>
    <filter id="softGlow">
      <feGaussianBlur stdDeviation="8" result="coloredBlur"/>
      <feMerge>
        <feMergeNode in="coloredBlur"/>
        <feMergeNode in="SourceGraphic"/>
      </feMerge>
    </filter>
    <filter id="shadow">
      <feDropShadow dx="0" dy="4" stdDeviation="8" flood-color="#000000" flood-opacity="0.5"/>
    </filter>
  </defs>

  <!-- Background -->
  <rect width="1200" height="630" fill="url(#bgGradient)"/>

  <!-- Decorative ocean gradients -->
  <ellipse cx="1000" cy="150" rx="300" ry="200" fill="url(#oceanGradient)" opacity="0.4"/>
  <ellipse cx="200" cy="530" rx="250" ry="180" fill="url(#oceanGradient)" opacity="0.3"/>

  <!-- Wave patterns -->
  <path d="M 0 400 Q 300 350 600 400 T 1200 400 L 1200 630 L 0 630 Z" fill="#1E90A0" opacity="0.08"/>
  <path d="M 0 450 Q 250 420 500 450 T 1000 450 T 1200 450 L 1200 630 L 0 630 Z" fill="#4FD1C5" opacity="0.05"/>

  <!-- Caviar roe particles -->
  <circle cx="820.8885241126162" cy="197.31124028395678" r="4.353722768959853" fill="#CFAE58" opacity="0.20103259833223408"/>
  <circle cx="496.5769278607403" cy="567.7910431262716" r="5.824474088057329" fill="#CFAE58" opacity="0.22479930118457456"/>
  <circle cx="557.0784100879675" cy="514.2606440267169" r="3.3370084534261233" fill="#CFAE58" opacity="0.19586506758076955"/>
  <circle cx="1133.4167047075584" cy="200.43227526477003" r="4.002071918163097" fill="#CFAE58" opacity="0.2388546569501337"/>
  <circle cx="1164.740550124673" cy="90.58238612120041" r="5.50299846478303" fill="#CFAE58" opacity="0.1288870148617509"/>
  <circle cx="1094.3490341560275" cy="154.34195964101758" r="4.362028242862971" fill="#CFAE58" opacity="0.141359554536597"/>
  <circle cx="491.26392236400596" cy="147.7717620303166" r="2.3614608121828757" fill="#CFAE58" opacity="0.14494530090165225"/>
  <circle cx="950.6979800430033" cy="245.95179974917193" r="5.476494057797212" fill="#CFAE58" opacity="0.13061063059352956"/>
  <circle cx="427.25124735507353" cy="392.219870303097" r="4.182305961729358" fill="#CFAE58" opacity="0.24276479310998084"/>
  <circle cx="1163.2994414239454" cy="337.6721610690919" r="4.1525220738185835" fill="#CFAE58" opacity="0.21381567289052208"/>
  <circle cx="251.51202172033882" cy="605.529111842117" r="4.3316466036511745" fill="#CFAE58" opacity="0.2416394932114192"/>
  <circle cx="163.88186577086802" cy="230.4529299375874" r="5.6892474057260936" fill="#CFAE58" opacity="0.14563823316884572"/>
  <circle cx="818.2534304116657" cy="551.8053791768398" r="5.337436011402141" fill="#CFAE58" opacity="0.20514097559396893"/>
  <circle cx="367.58067487403866" cy="188.0665810918503" r="5.581234408917621" fill="#CFAE58" opacity="0.12232115673286877"/>
  <circle cx="831.8356199412249" cy="608.8103409282169" r="5.072195773071714" fill="#CFAE58" opacity="0.18416177754106555"/>
  <circle cx="470.66333554468764" cy="219.1061770814058" r="5.863654990032161" fill="#CFAE58" opacity="0.11393555506538738"/>
  <circle cx="1002.2163688682336" cy="38.55862810147871" r="2.6511578332396972" fill="#CFAE58" opacity="0.15997457357794495"/>
  <circle cx="470.6016784014265" cy="182.98883893004535" r="4.000464763913174" fill="#CFAE58" opacity="0.21838861110016133"/>
  <circle cx="338.2627499118917" cy="220.84089164825934" r="5.415230652372343" fill="#CFAE58" opacity="0.14377885080861866"/>
  <circle cx="66.96419031879843" cy="553.5950283677028" r="2.343957887451406" fill="#CFAE58" opacity="0.14086405695193202"/>
  <circle cx="675.5046507220542" cy="472.5117973430126" r="3.544708346526873" fill="#CFAE58" opacity="0.21979718981288685"/>
  <circle cx="834.4173591585094" cy="592.1128096255801" r="2.5536548531936365" fill="#CFAE58" opacity="0.13006802578311027"/>
  <circle cx="790.2578432085622" cy="45.833123685500084" r="4.113826865810526" fill="#CFAE58" opacity="0.20379512568135627"/>
  <circle cx="565.2593577162096" cy="397.03648783775304" r="4.299075266165859" fill="#CFAE58" opacity="0.13286326600278422"/>
  <circle cx="792.0889398743248" cy="379.43416315033375" r="3.224508517495156" fill="#CFAE58" opacity="0.12442889793943254"/>
  <circle cx="1058.3425317850806" cy="385.44060575497195" r="2.5153400257944316" fill="#CFAE58" opacity="0.11634128071792778"/>
  <circle cx="1084.018340592315" cy="191.3355034622945" r="5.754781891941758" fill="#CFAE58" opacity="0.17231134967383804"/>
  <circle cx="1125.8154602980048" cy="84.51997473052305" r="2.697134969588757" fill="#CFAE58" opacity="0.24762785359374337"/>
  <circle cx="72.4230543420517" cy="614.7569564284464" r="4.637316402896557" fill="#CFAE58" opacity="0.1307515870885667"/>
  <circle cx="864.6776881643098" cy="49.714541991338336" r="2.090431052352529" fill="#CFAE58" opacity="0.17661030129098562"/>

  <!-- Border with glow -->
  <rect x="40" y="40" width="1120" height="550" fill="none" stroke="url(#goldGradient)" stroke-width="3" rx="12" filter="url(#softGlow)"/>

  <!-- Icon circle with premium background -->
  <circle cx="150" cy="200" r="75" fill="#CFAE58" opacity="0.15" filter="url(#softGlow)"/>
  <circle cx="150" cy="200" r="70" fill="#CFAE58" opacity="0.25"/>
  <text x="150" y="235" font-size="90" text-anchor="middle" fill="#CFAE58" filter="url(#glow)">⛓️</text>

  <!-- Premium logo (crown) with enhanced styling -->
  <g transform="translate(100, 70)">
    <path d="M 30 20 L 40 35 L 35 35 Z M 50 15 L 60 35 L 45 35 Z M 65 20 L 75 35 L 70 35 Z M 30 35 L 75 35 L 73 45 L 32 45 Z"
          fill="url(#goldGradient)" filter="url(#glow)" stroke="#B89842" stroke-width="0.5"/>
    <circle cx="40" cy="25" r="3" fill="#4FD1C5" filter="url(#glow)"/>
    <circle cx="52" cy="20" r="4" fill="#4FD1C5" filter="url(#glow)"/>
    <circle cx="65" cy="25" r="3" fill="#4FD1C5" filter="url(#glow)"/>
  </g>

  <!-- Title with shadow -->
  <text x="280" y="180" font-family="Georgia, serif" font-size="72" font-weight="bold"
        fill="url(#goldGradient)" filter="url(#shadow)">Tokenization &amp; Franchise</text>

  <!-- Subtitle with subtle glow -->
  <text x="280" y="230" font-family="Arial, sans-serif" font-size="36"
        fill="#D6DEE6" opacity="0.95" filter="url(#softGlow)">Blockchain-Verified Returns</text>

  <!-- Brand name with letter spacing -->
  <text x="280" y="300" font-family="Georgia, serif" font-size="32" font-weight="bold"
        fill="#CFAE58" letter-spacing="4" filter="url(#glow)">ROYAL KETA</text>

  <!-- Russian tagline -->
  <text x="280" y="340" font-family="Arial, sans-serif" font-size="22" font-style="italic"
        fill="#8B95A1" opacity="0.8">От икринки к королевской</text>

  <!-- Location -->
  <text x="280" y="380" font-family="Arial, sans-serif" font-size="20"
        fill="#8B95A1" opacity="0.7">Невельский район, Сахалин</text>

  <!-- Website with glow -->
  <text x="100" y="570" font-family="Arial, sans-serif" font-size="30" font-weight="bold"
        fill="#4FD1C5" filter="url(#glow)">royalketa.com</text>

  <!-- Enhanced decorative salmon silhouette -->
  <g transform="translate(950, 480)" opacity="0.2" filter="url(#softGlow)">
    <ellipse cx="0" cy="0" rx="90" ry="35" fill="#CFAE58"/>
    <path d="M 90 0 L 120 -18 L 130 0 L 120 18 Z" fill="#CFAE58"/>
    <path d="M -25 -35 L 0 -45 L 25 -35 Z" fill="#CFAE58"/>
    <ellipse cx="-50" cy="0" rx="15" ry="12" fill="#0B0F14"/>
  </g>

  <!-- Additional decorative caviar clusters -->
  <g opacity="0.2">
    <circle cx="1050" cy="120" r="6" fill="#CFAE58"/>
    <circle cx="1065" cy="115" r="5" fill="#CFAE58"/>
    <circle cx="1058" cy="130" r="4" fill="#CFAE58"/>
    <circle cx="150" cy="500" r="5" fill="#4FD1C5"/>
    <circle cx="165" cy="508" r="4" fill="#4FD1C5"/>
    <circle cx="140" cy="512" r="5" fill="#4FD1C5"/>
  </g>
</svg>