<svg width="1200" height="630" xmlns="http://www.w3.org/2000/svg">
  <defs>
    <linearGradient id="bgGradient" x1="0%" y1="0%" x2="100%" y2="100%">
      <stop offset="0%" style="stop-color:#0B0F14;stop-opacity:1" />
      <stop offset="50%" style="stop-color:#0F1619;stop-opacity:1" />
      <stop offset="100%" style="stop-color:#0F1922;stop-opacity:1" />
    </linearGradient>
    <linearGradient id="goldGradient" x1="0%" y1="0%" x2="100%" y2="0%">
      <stop offset="0%" style="stop-color:#E5D596;stop-opacity:1" />
      <stop offset="50%" style="stop-color:#CFAE58;stop-opacity:1" />
      <stop offset="100%" style="stop-color:#B89842;stop-opacity:1" />
    </linearGradient>
    <radialGradient id="oceanGradient" cx="50%" cy="50%" r="50%">
      <stop offset="0%" style="stop-color:#4FD1C5;stop-opacity:0.3" />
      <stop offset="100%" style="stop-color:#1E90A0;stop-opacity:0.05" />
    </radialGradient>
    <filter id="glow">
      <feGaussianBlur stdDeviation="5" result="coloredBlur"/>
      <feMerge>
        <feMergeNode in="coloredBlur"/>
        <feMergeNode in="SourceGraphic"/>
      </feMerge>
    </filter>
    <filter id="softGlow">
      <feGaussianBlur stdDeviation="8" result="coloredBlur"/>
      <feMerge>
        <feMergeNode in="coloredBlur"/>
        <feMergeNode in="SourceGraphic"/>
      </feMerge>
    </filter>
    <filter id="shadow">
      <feDropShadow dx="0" dy="4" stdDeviation="8" flood-color="#000000" flood-opacity="0.5"/>
    </filter>
  </defs>

  <!-- Background -->
  <rect width="1200" height="630" fill="url(#bgGradient)"/>

  <!-- Decorative ocean gradients -->
  <ellipse cx="1000" cy="150" rx="300" ry="200" fill="url(#oceanGradient)" opacity="0.4"/>
  <ellipse cx="200" cy="530" rx="250" ry="180" fill="url(#oceanGradient)" opacity="0.3"/>

  <!-- Wave patterns -->
  <path d="M 0 400 Q 300 350 600 400 T 1200 400 L 1200 630 L 0 630 Z" fill="#1E90A0" opacity="0.08"/>
  <path d="M 0 450 Q 250 420 500 450 T 1000 450 T 1200 450 L 1200 630 L 0 630 Z" fill="#4FD1C5" opacity="0.05"/>

  <!-- Caviar roe particles -->
  <circle cx="1117.0897185840317" cy="586.8888821282515" r="4.704415166994421" fill="#CFAE58" opacity="0.22763596661844196"/>
  <circle cx="256.7350756490275" cy="554.1950481867849" r="4.0106317239783476" fill="#CFAE58" opacity="0.1314881383532078"/>
  <circle cx="286.4242360205898" cy="328.3738790657927" r="4.301423153370372" fill="#CFAE58" opacity="0.14628223801356355"/>
  <circle cx="260.4540702821677" cy="569.2249988486508" r="3.3238623224304344" fill="#CFAE58" opacity="0.12487746357288669"/>
  <circle cx="826.6998491684045" cy="484.56611672807776" r="3.0847631429133786" fill="#CFAE58" opacity="0.2449855112688669"/>
  <circle cx="62.65865522497123" cy="361.454657066656" r="2.9120820274277746" fill="#CFAE58" opacity="0.15543562701012462"/>
  <circle cx="836.1632592790284" cy="472.22507650272087" r="5.207424999714771" fill="#CFAE58" opacity="0.22151223554519947"/>
  <circle cx="77.06237864182954" cy="331.2322402416109" r="5.862416926492614" fill="#CFAE58" opacity="0.22864319082412385"/>
  <circle cx="366.81152152911994" cy="32.017616755281445" r="3.20311883043673" fill="#CFAE58" opacity="0.19542816675684094"/>
  <circle cx="748.7047353436537" cy="545.6899003201971" r="2.973105185225987" fill="#CFAE58" opacity="0.11474285089595272"/>
  <circle cx="827.2967123325312" cy="120.85164621987744" r="3.274393947628786" fill="#CFAE58" opacity="0.11128112886789222"/>
  <circle cx="87.20431048516133" cy="610.9111350733889" r="4.511046547561155" fill="#CFAE58" opacity="0.21148846569465513"/>
  <circle cx="119.02170605350761" cy="364.4702060281669" r="2.0639159854723026" fill="#CFAE58" opacity="0.18460618856415334"/>
  <circle cx="740.7663403786764" cy="253.15545770480284" r="3.388978302917904" fill="#CFAE58" opacity="0.16205838340017015"/>
  <circle cx="742.2716166822979" cy="612.6137003696152" r="5.5846016478945195" fill="#CFAE58" opacity="0.24605729389588848"/>
  <circle cx="514.4593398649874" cy="95.33344251977056" r="5.406998905245446" fill="#CFAE58" opacity="0.12348883445283097"/>
  <circle cx="258.72112801546905" cy="236.0589598965351" r="2.427505708312639" fill="#CFAE58" opacity="0.10825307294587176"/>
  <circle cx="500.44190858169617" cy="340.553550415531" r="5.360509499340799" fill="#CFAE58" opacity="0.12405280688445382"/>
  <circle cx="438.3912046968994" cy="424.5402457285304" r="2.6525201066864925" fill="#CFAE58" opacity="0.13887577255480088"/>
  <circle cx="1191.7687775458896" cy="160.81589618095683" r="3.822426221831133" fill="#CFAE58" opacity="0.10909939816859013"/>
  <circle cx="495.9961043431546" cy="368.674013552287" r="2.936814680548604" fill="#CFAE58" opacity="0.14107684922383112"/>
  <circle cx="733.0338307987813" cy="140.91397275706365" r="3.7626566103191745" fill="#CFAE58" opacity="0.22739794670220118"/>
  <circle cx="403.60450728944863" cy="538.5708797998733" r="4.095597764223472" fill="#CFAE58" opacity="0.21205961508484056"/>
  <circle cx="344.12304476822044" cy="115.22560630245937" r="5.843325410525257" fill="#CFAE58" opacity="0.15615672205937534"/>
  <circle cx="827.8307110296148" cy="263.2402931567947" r="2.261500736358059" fill="#CFAE58" opacity="0.17571947542792218"/>
  <circle cx="370.5144695300068" cy="462.18614701905113" r="5.885733150729692" fill="#CFAE58" opacity="0.19766409214179181"/>
  <circle cx="192.36929181014278" cy="125.4272630956753" r="3.82231160881015" fill="#CFAE58" opacity="0.18064981959406828"/>
  <circle cx="311.8202802752813" cy="551.1898495312232" r="4.339850918829307" fill="#CFAE58" opacity="0.14177324269763478"/>
  <circle cx="940.4640343969737" cy="297.7777156410261" r="3.8703469151081036" fill="#CFAE58" opacity="0.14916005190478315"/>
  <circle cx="749.6320343076303" cy="91.77205372852383" r="2.4854205356679326" fill="#CFAE58" opacity="0.22010899716909516"/>

  <!-- Border with glow -->
  <rect x="40" y="40" width="1120" height="550" fill="none" stroke="url(#goldGradient)" stroke-width="3" rx="12" filter="url(#softGlow)"/>

  <!-- Icon circle with premium background -->
  <circle cx="150" cy="200" r="75" fill="#CFAE58" opacity="0.15" filter="url(#softGlow)"/>
  <circle cx="150" cy="200" r="70" fill="#CFAE58" opacity="0.25"/>
  <text x="150" y="235" font-size="90" text-anchor="middle" fill="#CFAE58" filter="url(#glow)">⛓️</text>

  <!-- Premium logo (crown) with enhanced styling -->
  <g transform="translate(100, 70)">
    <path d="M 30 20 L 40 35 L 35 35 Z M 50 15 L 60 35 L 45 35 Z M 65 20 L 75 35 L 70 35 Z M 30 35 L 75 35 L 73 45 L 32 45 Z"
          fill="url(#goldGradient)" filter="url(#glow)" stroke="#B89842" stroke-width="0.5"/>
    <circle cx="40" cy="25" r="3" fill="#4FD1C5" filter="url(#glow)"/>
    <circle cx="52" cy="20" r="4" fill="#4FD1C5" filter="url(#glow)"/>
    <circle cx="65" cy="25" r="3" fill="#4FD1C5" filter="url(#glow)"/>
  </g>

  <!-- Title with shadow -->
  <text x="280" y="180" font-family="Georgia, serif" font-size="72" font-weight="bold"
        fill="url(#goldGradient)" filter="url(#shadow)">Tokenization &amp; Franchise</text>

  <!-- Subtitle with subtle glow -->
  <text x="280" y="230" font-family="Arial, sans-serif" font-size="36"
        fill="#D6DEE6" opacity="0.95" filter="url(#softGlow)">Blockchain-Verified Returns</text>

  <!-- Brand name with letter spacing -->
  <text x="280" y="300" font-family="Georgia, serif" font-size="32" font-weight="bold"
        fill="#CFAE58" letter-spacing="4" filter="url(#glow)">ROYAL KETA</text>

  <!-- Russian tagline -->
  <text x="280" y="340" font-family="Arial, sans-serif" font-size="22" font-style="italic"
        fill="#8B95A1" opacity="0.8">От икринки к королевской</text>

  <!-- Location -->
  <text x="280" y="380" font-family="Arial, sans-serif" font-size="20"
        fill="#8B95A1" opacity="0.7">Невельский район, Сахалин</text>

  <!-- Website with glow -->
  <text x="100" y="570" font-family="Arial, sans-serif" font-size="30" font-weight="bold"
        fill="#4FD1C5" filter="url(#glow)">royalketa.com</text>

  <!-- Enhanced decorative salmon silhouette -->
  <g transform="translate(950, 480)" opacity="0.2" filter="url(#softGlow)">
    <ellipse cx="0" cy="0" rx="90" ry="35" fill="#CFAE58"/>
    <path d="M 90 0 L 120 -18 L 130 0 L 120 18 Z" fill="#CFAE58"/>
    <path d="M -25 -35 L 0 -45 L 25 -35 Z" fill="#CFAE58"/>
    <ellipse cx="-50" cy="0" rx="15" ry="12" fill="#0B0F14"/>
  </g>

  <!-- Additional decorative caviar clusters -->
  <g opacity="0.2">
    <circle cx="1050" cy="120" r="6" fill="#CFAE58"/>
    <circle cx="1065" cy="115" r="5" fill="#CFAE58"/>
    <circle cx="1058" cy="130" r="4" fill="#CFAE58"/>
    <circle cx="150" cy="500" r="5" fill="#4FD1C5"/>
    <circle cx="165" cy="508" r="4" fill="#4FD1C5"/>
    <circle cx="140" cy="512" r="5" fill="#4FD1C5"/>
  </g>
</svg>