<svg width="1200" height="630" xmlns="http://www.w3.org/2000/svg">
  <defs>
    <linearGradient id="bgGradient" x1="0%" y1="0%" x2="100%" y2="100%">
      <stop offset="0%" style="stop-color:#0B0F14;stop-opacity:1" />
      <stop offset="50%" style="stop-color:#0F1619;stop-opacity:1" />
      <stop offset="100%" style="stop-color:#0F1922;stop-opacity:1" />
    </linearGradient>
    <linearGradient id="goldGradient" x1="0%" y1="0%" x2="100%" y2="0%">
      <stop offset="0%" style="stop-color:#E5D596;stop-opacity:1" />
      <stop offset="50%" style="stop-color:#CFAE58;stop-opacity:1" />
      <stop offset="100%" style="stop-color:#B89842;stop-opacity:1" />
    </linearGradient>
    <radialGradient id="oceanGradient" cx="50%" cy="50%" r="50%">
      <stop offset="0%" style="stop-color:#4FD1C5;stop-opacity:0.3" />
      <stop offset="100%" style="stop-color:#1E90A0;stop-opacity:0.05" />
    </radialGradient>
    <filter id="glow">
      <feGaussianBlur stdDeviation="5" result="coloredBlur"/>
      <feMerge>
        <feMergeNode in="coloredBlur"/>
        <feMergeNode in="SourceGraphic"/>
      </feMerge>
    </filter>
    <filter id="softGlow">
      <feGaussianBlur stdDeviation="8" result="coloredBlur"/>
      <feMerge>
        <feMergeNode in="coloredBlur"/>
        <feMergeNode in="SourceGraphic"/>
      </feMerge>
    </filter>
    <filter id="shadow">
      <feDropShadow dx="0" dy="4" stdDeviation="8" flood-color="#000000" flood-opacity="0.5"/>
    </filter>
  </defs>

  <!-- Background -->
  <rect width="1200" height="630" fill="url(#bgGradient)"/>

  <!-- Decorative ocean gradients -->
  <ellipse cx="1000" cy="150" rx="300" ry="200" fill="url(#oceanGradient)" opacity="0.4"/>
  <ellipse cx="200" cy="530" rx="250" ry="180" fill="url(#oceanGradient)" opacity="0.3"/>

  <!-- Wave patterns -->
  <path d="M 0 400 Q 300 350 600 400 T 1200 400 L 1200 630 L 0 630 Z" fill="#1E90A0" opacity="0.08"/>
  <path d="M 0 450 Q 250 420 500 450 T 1000 450 T 1200 450 L 1200 630 L 0 630 Z" fill="#4FD1C5" opacity="0.05"/>

  <!-- Caviar roe particles -->
  <circle cx="819.2243525575641" cy="396.1299168601891" r="4.262921152408721" fill="#CFAE58" opacity="0.21435254721801003"/>
  <circle cx="110.27974140949604" cy="434.0930173451209" r="5.932994060832787" fill="#CFAE58" opacity="0.23716117081460789"/>
  <circle cx="381.71514317704316" cy="435.77271886345335" r="3.2232039835461093" fill="#CFAE58" opacity="0.1141443235429526"/>
  <circle cx="222.0198831775461" cy="416.30561109100506" r="5.161852024822515" fill="#CFAE58" opacity="0.22344512393657107"/>
  <circle cx="277.64470193607684" cy="528.5436494160695" r="4.961082131578346" fill="#CFAE58" opacity="0.18437988129018873"/>
  <circle cx="1015.9831463788153" cy="26.04451570754954" r="2.7889432317247644" fill="#CFAE58" opacity="0.1044751092290638"/>
  <circle cx="674.9347296338739" cy="382.02390285864743" r="4.28164364169169" fill="#CFAE58" opacity="0.12891840136459637"/>
  <circle cx="736.3655438440784" cy="449.7384387667424" r="5.273858536628963" fill="#CFAE58" opacity="0.23561968506795736"/>
  <circle cx="848.386074262635" cy="583.3503900578154" r="2.690646390938591" fill="#CFAE58" opacity="0.22472329292637294"/>
  <circle cx="383.49862019452826" cy="162.15817506060543" r="4.129241750472087" fill="#CFAE58" opacity="0.19505851424316129"/>
  <circle cx="653.8305948179952" cy="416.3878943807062" r="2.7004070553984194" fill="#CFAE58" opacity="0.14643035755918885"/>
  <circle cx="574.0156316768181" cy="12.582353228157467" r="5.560478502352137" fill="#CFAE58" opacity="0.1220466452220004"/>
  <circle cx="765.5421345570112" cy="321.61602383464265" r="2.0603552502306663" fill="#CFAE58" opacity="0.14846595813461794"/>
  <circle cx="886.50697569746" cy="530.7787535036537" r="4.199909639501272" fill="#CFAE58" opacity="0.17890858411374308"/>
  <circle cx="1024.3006919841955" cy="45.03289615020097" r="5.578026377064333" fill="#CFAE58" opacity="0.14359951742364124"/>
  <circle cx="960.673196466758" cy="315.46465711526736" r="3.954340073876918" fill="#CFAE58" opacity="0.1116412508528504"/>
  <circle cx="432.59842834452843" cy="313.7859926625864" r="2.9477701771559097" fill="#CFAE58" opacity="0.19709220947349598"/>
  <circle cx="1174.210651622868" cy="7.640363981532346" r="3.720916552980494" fill="#CFAE58" opacity="0.2302669471657244"/>
  <circle cx="315.62332388507707" cy="533.4751393400924" r="3.527123440405529" fill="#CFAE58" opacity="0.22112753035716523"/>
  <circle cx="329.78895830353395" cy="214.90521794380194" r="4.687998646880416" fill="#CFAE58" opacity="0.12783676680534084"/>
  <circle cx="58.10888704143622" cy="285.33434117814915" r="5.640646738174077" fill="#CFAE58" opacity="0.22598355956900668"/>
  <circle cx="355.3152265835968" cy="11.067354174116545" r="2.856961953307602" fill="#CFAE58" opacity="0.1394291778511535"/>
  <circle cx="798.0864821832778" cy="222.474270054084" r="3.2380222065797177" fill="#CFAE58" opacity="0.17333474888871742"/>
  <circle cx="605.0196217406766" cy="426.8862378690138" r="2.8864450843444716" fill="#CFAE58" opacity="0.23475697824204556"/>
  <circle cx="788.809698634572" cy="609.0456616465999" r="3.4519605708151806" fill="#CFAE58" opacity="0.14628711157265648"/>
  <circle cx="521.2424023797909" cy="216.9802522646891" r="3.293681334369789" fill="#CFAE58" opacity="0.220630433154532"/>
  <circle cx="358.1323288805104" cy="250.4198604517414" r="3.171143716789478" fill="#CFAE58" opacity="0.10603636765024632"/>
  <circle cx="938.5291862329303" cy="335.1858225810948" r="2.850998622343505" fill="#CFAE58" opacity="0.11313854438442876"/>
  <circle cx="926.8661351679539" cy="344.67870305401766" r="4.480692311131069" fill="#CFAE58" opacity="0.15407020998263704"/>
  <circle cx="547.5808685646117" cy="372.4021294045803" r="3.878513149419142" fill="#CFAE58" opacity="0.18674563435224742"/>

  <!-- Border with glow -->
  <rect x="40" y="40" width="1120" height="550" fill="none" stroke="url(#goldGradient)" stroke-width="3" rx="12" filter="url(#softGlow)"/>

  <!-- Icon circle with premium background -->
  <circle cx="150" cy="200" r="75" fill="#CFAE58" opacity="0.15" filter="url(#softGlow)"/>
  <circle cx="150" cy="200" r="70" fill="#CFAE58" opacity="0.25"/>
  <text x="150" y="235" font-size="90" text-anchor="middle" fill="#CFAE58" filter="url(#glow)">⛓️</text>

  <!-- Premium logo (crown) with enhanced styling -->
  <g transform="translate(100, 70)">
    <path d="M 30 20 L 40 35 L 35 35 Z M 50 15 L 60 35 L 45 35 Z M 65 20 L 75 35 L 70 35 Z M 30 35 L 75 35 L 73 45 L 32 45 Z"
          fill="url(#goldGradient)" filter="url(#glow)" stroke="#B89842" stroke-width="0.5"/>
    <circle cx="40" cy="25" r="3" fill="#4FD1C5" filter="url(#glow)"/>
    <circle cx="52" cy="20" r="4" fill="#4FD1C5" filter="url(#glow)"/>
    <circle cx="65" cy="25" r="3" fill="#4FD1C5" filter="url(#glow)"/>
  </g>

  <!-- Title with shadow -->
  <text x="280" y="180" font-family="Georgia, serif" font-size="72" font-weight="bold"
        fill="url(#goldGradient)" filter="url(#shadow)">Tokenization &amp; Franchise</text>

  <!-- Subtitle with subtle glow -->
  <text x="280" y="230" font-family="Arial, sans-serif" font-size="36"
        fill="#D6DEE6" opacity="0.95" filter="url(#softGlow)">Blockchain-Verified Returns</text>

  <!-- Brand name with letter spacing -->
  <text x="280" y="300" font-family="Georgia, serif" font-size="32" font-weight="bold"
        fill="#CFAE58" letter-spacing="4" filter="url(#glow)">ROYAL KETA</text>

  <!-- Russian tagline -->
  <text x="280" y="340" font-family="Arial, sans-serif" font-size="22" font-style="italic"
        fill="#8B95A1" opacity="0.8">От икринки к королевской</text>

  <!-- Location -->
  <text x="280" y="380" font-family="Arial, sans-serif" font-size="20"
        fill="#8B95A1" opacity="0.7">Невельский район, Сахалин</text>

  <!-- Website with glow -->
  <text x="100" y="570" font-family="Arial, sans-serif" font-size="30" font-weight="bold"
        fill="#4FD1C5" filter="url(#glow)">royalketa.com</text>

  <!-- Enhanced decorative salmon silhouette -->
  <g transform="translate(950, 480)" opacity="0.2" filter="url(#softGlow)">
    <ellipse cx="0" cy="0" rx="90" ry="35" fill="#CFAE58"/>
    <path d="M 90 0 L 120 -18 L 130 0 L 120 18 Z" fill="#CFAE58"/>
    <path d="M -25 -35 L 0 -45 L 25 -35 Z" fill="#CFAE58"/>
    <ellipse cx="-50" cy="0" rx="15" ry="12" fill="#0B0F14"/>
  </g>

  <!-- Additional decorative caviar clusters -->
  <g opacity="0.2">
    <circle cx="1050" cy="120" r="6" fill="#CFAE58"/>
    <circle cx="1065" cy="115" r="5" fill="#CFAE58"/>
    <circle cx="1058" cy="130" r="4" fill="#CFAE58"/>
    <circle cx="150" cy="500" r="5" fill="#4FD1C5"/>
    <circle cx="165" cy="508" r="4" fill="#4FD1C5"/>
    <circle cx="140" cy="512" r="5" fill="#4FD1C5"/>
  </g>
</svg>